<svg width="32" height="32" fill="none" xmlns="http://www.w3.org/2000/svg"><g filter="url(#a)" fill-rule="evenodd" clip-rule="evenodd"><path d="M28.988 2.846a1 1 0 0 1-.834 1.142l-24 3.75a1 1 0 1 1-.308-1.976l24-3.75a1 1 0 0 1 1.142.834Z" fill="#CEC8D1"/><path d="M28.988 2.846a1 1 0 0 1-.834 1.142l-24 3.75a1 1 0 1 1-.308-1.976l24-3.75a1 1 0 0 1 1.142.834Z" fill="url(#b)"/><path d="M28.988 2.846a1 1 0 0 1-.834 1.142l-24 3.75a1 1 0 1 1-.308-1.976l24-3.75a1 1 0 0 1 1.142.834Z" fill="url(#c)"/><path d="M28.988 2.846a1 1 0 0 1-.834 1.142l-24 3.75a1 1 0 1 1-.308-1.976l24-3.75a1 1 0 0 1 1.142.834Z" fill="url(#d)"/></g><path d="M15 13h2V5h-2v8Z" fill="url(#e)"/><path d="M15 13h2V5h-2v8Z" fill="url(#f)"/><g filter="url(#g)"><path d="M20.999 30H11A2 2 0 0 1 9 27.999V14A2 2 0 0 1 11.001 12H21A2 2 0 0 1 23 14.001V28A2 2 0 0 1 20.999 30Z" fill="url(#h)"/><path d="M20.999 30H11A2 2 0 0 1 9 27.999V14A2 2 0 0 1 11.001 12H21A2 2 0 0 1 23 14.001V28A2 2 0 0 1 20.999 30Z" fill="url(#i)"/><path d="M20.999 30H11A2 2 0 0 1 9 27.999V14A2 2 0 0 1 11.001 12H21A2 2 0 0 1 23 14.001V28A2 2 0 0 1 20.999 30Z" fill="url(#j)"/><path d="M20.999 30H11A2 2 0 0 1 9 27.999V14A2 2 0 0 1 11.001 12H21A2 2 0 0 1 23 14.001V28A2 2 0 0 1 20.999 30Z" fill="url(#k)"/></g><path d="M23 26H9v2h14v-2Z" fill="url(#l)"/><path d="M23 14h-5.07c-.51 0-.93.39-.93.861v7.278c0 .48.42.861.93.861H23v-9Z" fill="url(#m)"/><path d="M23 14h-5.07c-.51 0-.93.39-.93.861v7.278c0 .48.42.861.93.861H23v-9Z" fill="url(#n)"/><path d="M23 14h-5.07c-.51 0-.93.39-.93.861v7.278c0 .48.42.861.93.861H23v-9Z" fill="url(#o)"/><path d="M23 14h-5.07c-.51 0-.93.39-.93.861v7.278c0 .48.42.861.93.861H23v-9Z" fill="url(#p)"/><g filter="url(#q)"><path d="M9 23h5.07c.51 0 .93-.39.93-.861v-7.278c0-.48-.42-.861-.93-.861H9v9Z" fill="url(#r)"/></g><g filter="url(#s)" fill-rule="evenodd" clip-rule="evenodd"><path d="M22.988 3.783a1 1 0 0 1-.834 1.143l-12.5 1.953a1 1 0 1 1-.308-1.976l12.5-1.953a1 1 0 0 1 1.142.833Z" fill="#797879"/><path d="M22.988 3.783a1 1 0 0 1-.834 1.143l-12.5 1.953a1 1 0 1 1-.308-1.976l12.5-1.953a1 1 0 0 1 1.142.833Z" fill="url(#t)"/></g><defs><linearGradient id="b" x1="3.658" y1="8.083" x2="14.934" y2="5.915" gradientUnits="userSpaceOnUse"><stop stop-color="#EAE3EF"/><stop offset="1" stop-color="#EAE3EF" stop-opacity="0"/></linearGradient><linearGradient id="c" x1="29" y1="2.937" x2="27.879" y2="3.053" gradientUnits="userSpaceOnUse"><stop stop-color="#E5E2E8"/><stop offset="1" stop-color="#E5E2E8" stop-opacity="0"/></linearGradient><linearGradient id="f" x1="15.885" y1="5.373" x2="16" y2="6.248" gradientUnits="userSpaceOnUse"><stop stop-color="#463D43"/><stop offset="1" stop-color="#463D43" stop-opacity="0"/></linearGradient><linearGradient id="h" x1="16" y1="12" x2="16" y2="30" gradientUnits="userSpaceOnUse"><stop stop-color="#FFBC43"/><stop offset="1" stop-color="#FF9F43"/></linearGradient><linearGradient id="i" x1="23" y1="25.246" x2="21.006" y2="25.246" gradientUnits="userSpaceOnUse"><stop stop-color="#FFB950"/><stop offset="1" stop-color="#FFB950" stop-opacity="0"/></linearGradient><linearGradient id="j" x1="16" y1="12" x2="16" y2="14.093" gradientUnits="userSpaceOnUse"><stop stop-color="#FFCA3A"/><stop offset="1" stop-color="#FFCA3A" stop-opacity="0"/></linearGradient><linearGradient id="l" x1="9" y1="27.523" x2="23" y2="27.523" gradientUnits="userSpaceOnUse"><stop stop-color="#30A260"/><stop offset=".096" stop-color="#4AE98E"/><stop offset=".927" stop-color="#4AE98E"/><stop offset="1" stop-color="#62FFA9"/></linearGradient><linearGradient id="m" x1="20" y1="14" x2="20" y2="23" gradientUnits="userSpaceOnUse"><stop offset=".833" stop-color="#44CEFF"/><stop offset="1" stop-color="#3FE6FF"/></linearGradient><linearGradient id="n" x1="15.807" y1="20.813" x2="18.369" y2="20.813" gradientUnits="userSpaceOnUse"><stop stop-color="#4FFAFF"/><stop offset="1" stop-color="#4FFAFF" stop-opacity="0"/></linearGradient><linearGradient id="o" x1="20" y1="14" x2="20" y2="16.313" gradientUnits="userSpaceOnUse"><stop stop-color="#2298F9"/><stop offset="1" stop-color="#2298F9" stop-opacity="0"/></linearGradient><linearGradient id="r" x1="10.619" y1="23" x2="10.619" y2="14" gradientUnits="userSpaceOnUse"><stop stop-color="#41D7FF"/><stop offset=".153" stop-color="#3FB9FF"/></linearGradient><linearGradient id="t" x1="23" y1="3.964" x2="21.798" y2="4.132" gradientUnits="userSpaceOnUse"><stop stop-color="#989698"/><stop offset="1" stop-color="#989698" stop-opacity="0"/></linearGradient><radialGradient id="d" cx="0" cy="0" r="1" gradientUnits="userSpaceOnUse" gradientTransform="rotate(170.031 4.531 3.469) scale(1.19254 1.74148)"><stop offset=".338" stop-color="#92748F"/><stop offset="1" stop-color="#92748F" stop-opacity="0"/></radialGradient><radialGradient id="e" cx="0" cy="0" r="1" gradientUnits="userSpaceOnUse" gradientTransform="matrix(-2 0 0 -13.8855 17 8.104)"><stop stop-color="#8C888D"/><stop offset=".896" stop-color="#515151"/></radialGradient><radialGradient id="k" cx="0" cy="0" r="1" gradientUnits="userSpaceOnUse" gradientTransform="rotate(138.751 9.14 10.6) scale(4.13485 3.93679)"><stop stop-color="#FFDE55"/><stop offset="1" stop-color="#FFDE55" stop-opacity="0"/></radialGradient><radialGradient id="p" cx="0" cy="0" r="1" gradientUnits="userSpaceOnUse" gradientTransform="matrix(-3.84375 4.4375 -.99872 -.86509 24.432 13.688)"><stop offset=".56" stop-color="#41C9FF"/><stop offset="1" stop-color="#41C9FF" stop-opacity="0"/></radialGradient><filter id="a" x="3" y="1.6" width="26.4" height="6.15" filterUnits="userSpaceOnUse" color-interpolation-filters="sRGB"><feFlood flood-opacity="0" result="BackgroundImageFix"/><feBlend in="SourceGraphic" in2="BackgroundImageFix" result="shape"/><feColorMatrix in="SourceAlpha" values="0 0 0 0 0 0 0 0 0 0 0 0 0 0 0 0 0 0 127 0" result="hardAlpha"/><feOffset dx=".4" dy="-.4"/><feGaussianBlur stdDeviation=".4"/><feComposite in2="hardAlpha" operator="arithmetic" k2="-1" k3="1"/><feColorMatrix values="0 0 0 0 0.658824 0 0 0 0 0.545098 0 0 0 0 0.698039 0 0 0 1 0"/><feBlend in2="shape" result="effect1_innerShadow_18_12954"/></filter><filter id="g" x="9" y="11.5" width="15" height="18.5" filterUnits="userSpaceOnUse" color-interpolation-filters="sRGB"><feFlood flood-opacity="0" result="BackgroundImageFix"/><feBlend in="SourceGraphic" in2="BackgroundImageFix" result="shape"/><feColorMatrix in="SourceAlpha" values="0 0 0 0 0 0 0 0 0 0 0 0 0 0 0 0 0 0 127 0" result="hardAlpha"/><feOffset dx="1.25" dy="-.5"/><feGaussianBlur stdDeviation=".5"/><feComposite in2="hardAlpha" operator="arithmetic" k2="-1" k3="1"/><feColorMatrix values="0 0 0 0 0.686275 0 0 0 0 0.45098 0 0 0 0 0.231373 0 0 0 1 0"/><feBlend in2="shape" result="effect1_innerShadow_18_12954"/></filter><filter id="q" x="7.5" y="14" width="7.5" height="10" filterUnits="userSpaceOnUse" color-interpolation-filters="sRGB"><feFlood flood-opacity="0" result="BackgroundImageFix"/><feBlend in="SourceGraphic" in2="BackgroundImageFix" result="shape"/><feColorMatrix in="SourceAlpha" values="0 0 0 0 0 0 0 0 0 0 0 0 0 0 0 0 0 0 127 0" result="hardAlpha"/><feOffset dx="-1.5" dy="1"/><feGaussianBlur stdDeviation="1"/><feComposite in2="hardAlpha" operator="arithmetic" k2="-1" k3="1"/><feColorMatrix values="0 0 0 0 0.12549 0 0 0 0 0.521569 0 0 0 0 0.870588 0 0 0 1 0"/><feBlend in2="shape" result="effect1_innerShadow_18_12954"/></filter><filter id="s" x="8.5" y="2.537" width="14.9" height="4.353" filterUnits="userSpaceOnUse" color-interpolation-filters="sRGB"><feFlood flood-opacity="0" result="BackgroundImageFix"/><feBlend in="SourceGraphic" in2="BackgroundImageFix" result="shape"/><feColorMatrix in="SourceAlpha" values="0 0 0 0 0 0 0 0 0 0 0 0 0 0 0 0 0 0 127 0" result="hardAlpha"/><feOffset dx=".4" dy="-.4"/><feGaussianBlur stdDeviation=".4"/><feComposite in2="hardAlpha" operator="arithmetic" k2="-1" k3="1"/><feColorMatrix values="0 0 0 0 0.384314 0 0 0 0 0.317647 0 0 0 0 0.356863 0 0 0 1 0"/><feBlend in2="shape" result="effect1_innerShadow_18_12954"/></filter></defs></svg>