<svg xmlns="http://www.w3.org/2000/svg" fill="none" viewBox="0 0 32 32"><path stroke="url(#amphora_svg__a)" stroke-linecap="round" stroke-linejoin="round" stroke-width="1.25" d="m10.18 12.655-1.335-1.273C6.258 8.836 8.2 7.125 8.2 7.125s1.982-2.4 4.736.418l1.273 1.293"/><g filter="url(#amphora_svg__b)"><path stroke="url(#amphora_svg__c)" stroke-linecap="round" stroke-linejoin="round" stroke-width=".5" d="m10.18 12.655-1.335-1.273C6.258 8.836 8.2 7.125 8.2 7.125s1.982-2.4 4.736.418l1.273 1.293"/></g><path stroke="url(#amphora_svg__d)" stroke-linecap="round" stroke-linejoin="round" stroke-width="1.25" d="m10.18 12.655-1.335-1.273C6.258 8.836 8.2 7.125 8.2 7.125s1.982-2.4 4.736.418l1.273 1.293"/><path stroke="url(#amphora_svg__e)" stroke-linecap="round" stroke-linejoin="round" stroke-width="1.25" d="m21.82 12.655 1.335-1.273c2.587-2.546.646-4.257.646-4.257s-1.982-2.4-4.736.418l-1.273 1.293"/><g filter="url(#amphora_svg__f)"><path stroke="url(#amphora_svg__g)" stroke-linecap="round" stroke-linejoin="round" stroke-width=".5" d="m21.82 12.655 1.335-1.273c2.587-2.546.646-4.257.646-4.257s-1.982-2.4-4.736.418l-1.273 1.293"/></g><path stroke="url(#amphora_svg__h)" stroke-linecap="round" stroke-linejoin="round" stroke-width="1.25" d="m21.82 12.655 1.335-1.273c2.587-2.546.646-4.257.646-4.257s-1.982-2.4-4.736.418l-1.273 1.293"/><path fill="url(#amphora_svg__i)" d="M13.455 6.455C13.1 4.755 13 4 13 4l.043-.075h5.86L19 4s-.1.755-.455 2.455c-.354 1.701-.557 2.706.455 3.33l.106.065c1.224.753 3.404 2.094 4.142 4.775l-.021.047.14.672.042.03q.057.362.08.75l-.036.04v.664l.044.047c-.015.65-.085 1.174-.27 1.75l-.051.031-.27.668.028.05c-.306.682-.768 1.5-1.456 2.66C19.775 24.906 18.5 27.5 18.5 27.5l-.073.067H13.56l-.06-.067s-1.274-2.593-2.978-5.467c-.688-1.159-1.15-1.977-1.456-2.658l.024-.05-.274-.665-.042-.035c-.186-.576-.256-1.1-.27-1.75l.039-.035v-.664l-.031-.051q.02-.39.079-.75l.038-.027.145-.688-.022-.035c.738-2.681 2.918-4.022 4.142-4.775L13 9.785c1.012-.624.809-1.629.455-3.33"/><path fill="url(#amphora_svg__j)" d="M13.455 6.455C13.1 4.755 13 4 13 4l.043-.075h5.86L19 4s-.1.755-.455 2.455c-.354 1.701-.557 2.706.455 3.33l.106.065c1.224.753 3.404 2.094 4.142 4.775l-.021.047.14.672.042.03q.057.362.08.75l-.036.04v.664l.044.047c-.015.65-.085 1.174-.27 1.75l-.051.031-.27.668.028.05c-.306.682-.768 1.5-1.456 2.66C19.775 24.906 18.5 27.5 18.5 27.5l-.073.067H13.56l-.06-.067s-1.274-2.593-2.978-5.467c-.688-1.159-1.15-1.977-1.456-2.658l.024-.05-.274-.665-.042-.035c-.186-.576-.256-1.1-.27-1.75l.039-.035v-.664l-.031-.051q.02-.39.079-.75l.038-.027.145-.688-.022-.035c.738-2.681 2.918-4.022 4.142-4.775L13 9.785c1.012-.624.809-1.629.455-3.33"/><path fill="url(#amphora_svg__k)" d="M13.455 6.455C13.1 4.755 13 4 13 4l.043-.075h5.86L19 4s-.1.755-.455 2.455c-.354 1.701-.557 2.706.455 3.33l.106.065c1.224.753 3.404 2.094 4.142 4.775l-.021.047.14.672.042.03q.057.362.08.75l-.036.04v.664l.044.047c-.015.65-.085 1.174-.27 1.75l-.051.031-.27.668.028.05c-.306.682-.768 1.5-1.456 2.66C19.775 24.906 18.5 27.5 18.5 27.5l-.073.067H13.56l-.06-.067s-1.274-2.593-2.978-5.467c-.688-1.159-1.15-1.977-1.456-2.658l.024-.05-.274-.665-.042-.035c-.186-.576-.256-1.1-.27-1.75l.039-.035v-.664l-.031-.051q.02-.39.079-.75l.038-.027.145-.688-.022-.035c.738-2.681 2.918-4.022 4.142-4.775L13 9.785c1.012-.624.809-1.629.455-3.33"/><mask id="amphora_svg__l" width="16" height="24" x="8" y="4" maskUnits="userSpaceOnUse" style="mask-type:alpha"><path fill="#D3883E" d="M13 4s.1.755.455 2.456c.354 1.7.557 2.705-.455 3.33l-.106.064c-1.492.918-4.403 2.708-4.394 6.733 0 1.8.317 2.577 2.021 5.45A89 89 0 0 1 13.5 27.5h5s1.274-2.593 2.979-5.467c1.704-2.873 2.021-3.65 2.021-5.45.01-4.025-2.902-5.815-4.394-6.733L19 9.785c-1.012-.624-.809-1.629-.455-3.33C18.9 4.756 19 4 19 4z"/></mask><g filter="url(#amphora_svg__m)" mask="url(#amphora_svg__l)"><path fill="url(#amphora_svg__n)" fill-rule="evenodd" d="M12.906 3.918A.13.13 0 0 1 13 3.875h6a.125.125 0 0 1 .124.141v.003l-.001.007-.004.028-.017.11q-.022.146-.073.447a56 56 0 0 1-.361 1.87c-.179.857-.313 1.514-.283 2.036.015.257.07.475.176.662s.267.353.505.5l.11.068c1.493.918 4.458 2.741 4.449 6.836 0 .91-.08 1.57-.38 2.367-.296.79-.808 1.712-1.659 3.147a89 89 0 0 0-2.916 5.342l-.043.087-.011.022-.004.007-.112-.055v-.125h-.078l.024-.048.168-.334a89.368 89.368 0 0 1 2.757-5.024c.853-1.438 1.352-2.34 1.64-3.107.286-.76.364-1.388.364-2.279.009-3.95-2.842-5.708-4.335-6.626l-.106-.065a1.64 1.64 0 0 1-.59-.59 1.74 1.74 0 0 1-.209-.77c-.032-.563.112-1.258.288-2.102.177-.849.29-1.462.36-1.861q.05-.3.072-.443l-5.71-.001q.022.145.073.444c.069.4.182 1.012.36 1.861.175.844.32 1.54.287 2.101a1.74 1.74 0 0 1-.208.771c-.13.23-.323.424-.591.59l-.106.065c-1.493.918-4.344 2.675-4.335 6.626 0 .89.078 1.519.364 2.279.287.766.787 1.67 1.64 3.108a90 90 0 0 1 2.925 5.357l.024.048h4.844l-.02.04-.01.022-.004.007.112.056.112.055a.13.13 0 0 1-.112.07h-5a.13.13 0 0 1-.112-.07l-.004-.007-.01-.022-.044-.087-.167-.332a89.113 89.113 0 0 0-2.749-5.01c-.851-1.435-1.363-2.357-1.66-3.147-.299-.797-.379-1.457-.379-2.367-.01-4.095 2.956-5.918 4.449-6.836l.11-.068c.239-.147.4-.312.505-.5.106-.187.161-.405.176-.662.03-.522-.104-1.18-.283-2.036a56 56 0 0 1-.36-1.87 24 24 0 0 1-.09-.557l-.005-.028v-.009a.13.13 0 0 1 .029-.1" clip-rule="evenodd"/></g><mask id="amphora_svg__o" width="16" height="24" x="8" y="4" maskUnits="userSpaceOnUse" style="mask-type:alpha"><path fill="#000" d="M13 4s.1.755.455 2.456c.354 1.7.557 2.705-.455 3.33l-.106.064c-1.492.918-4.403 2.708-4.394 6.733 0 1.8.317 2.577 2.021 5.45A89 89 0 0 1 13.5 27.5h5s1.274-2.593 2.979-5.467c1.704-2.873 2.021-3.65 2.021-5.45.01-4.025-2.902-5.815-4.394-6.733L19 9.785c-1.012-.624-.809-1.629-.455-3.33C18.9 4.756 19 4 19 4z"/></mask><g filter="url(#amphora_svg__p)" mask="url(#amphora_svg__o)"><path fill="url(#amphora_svg__q)" d="M18.738 9.676c-.468-.324-.623-.957-.535-1.598 0 0-2.638.754-3.68.854 0 0 3.47.341 4.215.744"/></g><path stroke="url(#amphora_svg__r)" stroke-linecap="round" stroke-linejoin="round" stroke-width="2" d="M12.75 3h6.5"/><path stroke="url(#amphora_svg__s)" stroke-linecap="round" stroke-linejoin="round" stroke-width="2" d="M12.75 3h6.5"/><path fill="#8C5543" d="M18.5 27.5h-5l-1 1.5c-.5.75 0 1 .5 1h6c.5 0 1-.25.5-1z"/><path fill="#6D3437" fill-opacity=".6" fill-rule="evenodd" d="M23.248 14.625H21a.375.375 0 0 0-.375.375v1.5c0 .207.168.375.375.375h2.497q.003-.142.003-.292 0-.234-.012-.458h-2.113v-.75h2.034a7 7 0 0 0-.161-.75m-.021 4h-3.352V15a.375.375 0 0 0-.375-.375H14a.375.375 0 0 0-.375.375v1.5c0 .207.168.375.375.375h3.125v1.75h-4.25V15a.375.375 0 0 0-.375-.375H8.752q-.1.36-.161.75h3.534V19c0 .207.168.375.375.375h5a.375.375 0 0 0 .375-.375v-2.5a.375.375 0 0 0-.375-.375h-3.125v-.75h4.75V19c0 .207.168.375.375.375h3.434c.12-.267.216-.513.293-.75m-14.161.75H10.5a.375.375 0 0 0 .375-.375v-2.5a.375.375 0 0 0-.375-.375H8.512q-.012.224-.012.458 0 .15.003.292h1.622v1.75H8.774c.076.237.172.483.292.75" clip-rule="evenodd"/><g filter="url(#amphora_svg__t)"><path fill="url(#amphora_svg__u)" d="m19.585 2.504-.28-.13-5.882.382 5.52.301.642.076.122-.13v-.247z"/></g><g filter="url(#amphora_svg__v)"><path fill="url(#amphora_svg__w)" d="M12.381 3.107 12.582 3l4.241.315-3.98.249-.462.062-.088-.107v-.204z"/></g><defs><linearGradient id="amphora_svg__a" x1="10.854" x2="10.854" y1="6.173" y2="12.655" gradientUnits="userSpaceOnUse"><stop stop-color="#79493A"/><stop offset="1" stop-color="#744B3A"/></linearGradient><linearGradient id="amphora_svg__c" x1="10.854" x2="10.854" y1="6.173" y2="12.655" gradientUnits="userSpaceOnUse"><stop stop-color="#8E5C52"/><stop offset="1" stop-color="#915B45"/></linearGradient><linearGradient id="amphora_svg__d" x1="8.191" x2="10.854" y1="10.012" y2="12.655" gradientUnits="userSpaceOnUse"><stop stop-opacity="0"/><stop offset="1" stop-opacity=".3"/></linearGradient><linearGradient id="amphora_svg__e" x1="21.146" x2="21.146" y1="6.173" y2="12.655" gradientUnits="userSpaceOnUse"><stop stop-color="#7D4F3B"/><stop offset="1" stop-color="#835047"/></linearGradient><linearGradient id="amphora_svg__g" x1="21.146" x2="21.146" y1="6.173" y2="12.655" gradientUnits="userSpaceOnUse"><stop stop-color="#8D5C41"/><stop offset="1" stop-color="#965E54"/></linearGradient><linearGradient id="amphora_svg__h" x1="25.787" x2="21.146" y1="8.405" y2="12.655" gradientUnits="userSpaceOnUse"><stop stop-opacity="0"/><stop offset="1" stop-opacity=".2"/></linearGradient><linearGradient id="amphora_svg__i" x1="8.5" x2="23.5" y1="17" y2="17" gradientUnits="userSpaceOnUse"><stop stop-color="#8E643E"/><stop offset=".281" stop-color="#AC723C"/><stop offset=".536" stop-color="#C8874C"/><stop offset=".766" stop-color="#E4A669"/><stop offset="1" stop-color="#D7A36A"/></linearGradient><linearGradient id="amphora_svg__j" x1="16" x2="16" y1="3.925" y2="27.567" gradientUnits="userSpaceOnUse"><stop offset=".464" stop-color="#C946A4" stop-opacity="0"/><stop offset="1" stop-color="#C946A4" stop-opacity=".4"/></linearGradient><linearGradient id="amphora_svg__k" x1="16" x2="16" y1="3.925" y2="6" gradientUnits="userSpaceOnUse"><stop stop-opacity=".2"/><stop offset="1" stop-opacity="0"/></linearGradient><linearGradient id="amphora_svg__n" x1="16" x2="16" y1="3.875" y2="27.625" gradientUnits="userSpaceOnUse"><stop stop-opacity=".4"/><stop offset="1" stop-opacity=".2"/></linearGradient><linearGradient id="amphora_svg__q" x1="18.21" x2="14.523" y1="8.877" y2="8.877" gradientUnits="userSpaceOnUse"><stop stop-color="#EFC28D"/><stop offset="1" stop-color="#CDA16D" stop-opacity=".2"/></linearGradient><linearGradient id="amphora_svg__r" x1="16" x2="16" y1="2" y2="4" gradientUnits="userSpaceOnUse"><stop stop-color="#795D4E"/><stop offset=".375" stop-color="#81533C"/><stop offset=".656" stop-color="#774A3C"/><stop offset="1" stop-color="#7D4030"/></linearGradient><linearGradient id="amphora_svg__s" x1="15.5" x2="15.5" y1="3" y2="4" gradientUnits="userSpaceOnUse"><stop stop-color="#7B4545" stop-opacity="0"/><stop offset="1" stop-color="#8D2D61" stop-opacity=".2"/></linearGradient><linearGradient id="amphora_svg__u" x1="19.756" x2="13.774" y1="2.951" y2="2.948" gradientUnits="userSpaceOnUse"><stop stop-color="#fff" stop-opacity=".35"/><stop offset="1" stop-color="#fff" stop-opacity="0"/></linearGradient><linearGradient id="amphora_svg__w" x1="12.257" x2="16.571" y1="3.476" y2="3.474" gradientUnits="userSpaceOnUse"><stop stop-color="#fff" stop-opacity=".08"/><stop offset="1" stop-color="#fff" stop-opacity="0"/></linearGradient><filter id="amphora_svg__b" width="7.708" height="7.482" x="7" y="5.673" color-interpolation-filters="sRGB" filterUnits="userSpaceOnUse"><feFlood flood-opacity="0" result="BackgroundImageFix"/><feBlend in="SourceGraphic" in2="BackgroundImageFix" result="shape"/><feGaussianBlur result="effect1_foregroundBlur_18_33363" stdDeviation=".125"/></filter><filter id="amphora_svg__f" width="7.708" height="7.482" x="17.292" y="5.673" color-interpolation-filters="sRGB" filterUnits="userSpaceOnUse"><feFlood flood-opacity="0" result="BackgroundImageFix"/><feBlend in="SourceGraphic" in2="BackgroundImageFix" result="shape"/><feGaussianBlur result="effect1_foregroundBlur_18_33363" stdDeviation=".125"/></filter><filter id="amphora_svg__m" width="17.25" height="25.75" x="7.375" y="2.875" color-interpolation-filters="sRGB" filterUnits="userSpaceOnUse"><feFlood flood-opacity="0" result="BackgroundImageFix"/><feBlend in="SourceGraphic" in2="BackgroundImageFix" result="shape"/><feGaussianBlur result="effect1_foregroundBlur_18_33363" stdDeviation=".5"/></filter><filter id="amphora_svg__p" width="6.715" height="4.098" x="13.273" y="6.828" color-interpolation-filters="sRGB" filterUnits="userSpaceOnUse"><feFlood flood-opacity="0" result="BackgroundImageFix"/><feBlend in="SourceGraphic" in2="BackgroundImageFix" result="shape"/><feGaussianBlur result="effect1_foregroundBlur_18_33363" stdDeviation=".625"/></filter><filter id="amphora_svg__t" width="7.684" height="2.158" x="12.723" y="1.674" color-interpolation-filters="sRGB" filterUnits="userSpaceOnUse"><feFlood flood-opacity="0" result="BackgroundImageFix"/><feBlend in="SourceGraphic" in2="BackgroundImageFix" result="shape"/><feGaussianBlur result="effect1_foregroundBlur_18_33363" stdDeviation=".35"/></filter><filter id="amphora_svg__v" width="5.53" height="1.626" x="11.793" y="2.5" color-interpolation-filters="sRGB" filterUnits="userSpaceOnUse"><feFlood flood-opacity="0" result="BackgroundImageFix"/><feBlend in="SourceGraphic" in2="BackgroundImageFix" result="shape"/><feGaussianBlur result="effect1_foregroundBlur_18_33363" stdDeviation=".25"/></filter></defs></svg>