<svg xmlns="http://www.w3.org/2000/svg" fill="none" viewBox="0 0 32 32"><path fill="url(#astronaut-medium_svg__a)" d="M21.59 18.46H10.38c-3.23 1.92-5.4 5.44-5.4 9.47v2.05H27v-2.05c0-4.03-2.17-7.55-5.41-9.47"/><path fill="url(#astronaut-medium_svg__b)" d="M21.59 18.46H10.38c-3.23 1.92-5.4 5.44-5.4 9.47v2.05H27v-2.05c0-4.03-2.17-7.55-5.41-9.47"/><path fill="url(#astronaut-medium_svg__c)" d="M21.59 18.46H10.38c-3.23 1.92-5.4 5.44-5.4 9.47v2.05H27v-2.05c0-4.03-2.17-7.55-5.41-9.47"/><path fill="url(#astronaut-medium_svg__d)" d="M21.59 18.46H10.38c-3.23 1.92-5.4 5.44-5.4 9.47v2.05H27v-2.05c0-4.03-2.17-7.55-5.41-9.47"/><path fill="url(#astronaut-medium_svg__e)" d="M21.59 18.46H10.38c-3.23 1.92-5.4 5.44-5.4 9.47v2.05H27v-2.05c0-4.03-2.17-7.55-5.41-9.47"/><path fill="#EBDEF9" d="M22.99 19.44v10.54h4v-2.37c-.09-3.29-1.63-6.21-4-8.17"/><path fill="url(#astronaut-medium_svg__f)" d="M22.99 19.44v10.54h4v-2.37c-.09-3.29-1.63-6.21-4-8.17"/><path fill="url(#astronaut-medium_svg__g)" d="M22.99 19.44v10.54h4v-2.37c-.09-3.29-1.63-6.21-4-8.17"/><path fill="url(#astronaut-medium_svg__h)" d="M22.99 19.44v10.54h4v-2.37c-.09-3.29-1.63-6.21-4-8.17"/><path fill="url(#astronaut-medium_svg__i)" d="M22.99 19.44v10.54h4v-2.37c-.09-3.29-1.63-6.21-4-8.17"/><path fill="#D9CDE8" d="m8.993 29.98.017-.01V19.421a10.98 10.98 0 0 0-4.03 8.51v2.05z"/><path fill="url(#astronaut-medium_svg__j)" d="m8.993 29.98.017-.01V19.421a10.98 10.98 0 0 0-4.03 8.51v2.05z"/><path fill="url(#astronaut-medium_svg__k)" d="m8.993 29.98.017-.01V19.421a10.98 10.98 0 0 0-4.03 8.51v2.05z"/><path fill="url(#astronaut-medium_svg__l)" d="m8.993 29.98.017-.01V19.421a10.98 10.98 0 0 0-4.03 8.51v2.05z"/><g filter="url(#astronaut-medium_svg__m)"><path fill="url(#astronaut-medium_svg__n)" d="M19.67 25.97H12.3c-.45 0-.82.37-.82.82v3.2h9.01v-3.2c0-.46-.36-.82-.82-.82"/></g><g filter="url(#astronaut-medium_svg__o)"><path fill="#D6BCDB" d="M13.805 25.225a1.06 1.06 0 1 0 0-2.12 1.06 1.06 0 0 0 0 2.12"/></g><g filter="url(#astronaut-medium_svg__p)"><path fill="#D1B8D6" d="M17.875 25.225a1.06 1.06 0 1 0 0-2.12 1.06 1.06 0 0 0 0 2.12"/></g><g filter="url(#astronaut-medium_svg__q)"><path fill="url(#astronaut-medium_svg__r)" d="M13.99 25.04a1.06 1.06 0 1 0 0-2.12 1.06 1.06 0 0 0 0 2.12"/></g><g filter="url(#astronaut-medium_svg__s)"><path fill="url(#astronaut-medium_svg__t)" d="M17.99 25.04a1.06 1.06 0 1 0 0-2.12 1.06 1.06 0 0 0 0 2.12"/></g><g filter="url(#astronaut-medium_svg__u)"><path stroke="url(#astronaut-medium_svg__v)" stroke-width=".1" d="M17.99 24.855a.875.875 0 1 0 0-1.75.875.875 0 0 0 0 1.75Z"/></g><g filter="url(#astronaut-medium_svg__w)"><path stroke="url(#astronaut-medium_svg__x)" stroke-width=".1" d="M13.99 24.855a.875.875 0 1 0 0-1.75.875.875 0 0 0 0 1.75Z"/></g><path fill="url(#astronaut-medium_svg__y)" d="M7.35 28.65v-1.62c0-.19-.15-.34-.34-.34H5.05c-.03.26-.05.53-.06.8l.01 1.5h2.02c.18 0 .33-.15.33-.34"/><g filter="url(#astronaut-medium_svg__z)"><path fill="url(#astronaut-medium_svg__A)" d="M23.17 18.387c0 1.462-2.782 3.515-7.18 3.515-4.469-.047-7.18-2.053-7.18-3.515s3.215-2.649 7.18-2.649 7.18 1.186 7.18 2.649"/><path fill="url(#astronaut-medium_svg__B)" d="M23.17 18.387c0 1.462-2.782 3.515-7.18 3.515-4.469-.047-7.18-2.053-7.18-3.515s3.215-2.649 7.18-2.649 7.18 1.186 7.18 2.649"/><path fill="url(#astronaut-medium_svg__C)" d="M23.17 18.387c0 1.462-2.782 3.515-7.18 3.515-4.469-.047-7.18-2.053-7.18-3.515s3.215-2.649 7.18-2.649 7.18 1.186 7.18 2.649"/></g><path fill="url(#astronaut-medium_svg__D)" d="M23.17 18.387c0 1.462-2.782 3.515-7.18 3.515-4.469-.047-7.18-2.053-7.18-3.515s3.215-2.649 7.18-2.649 7.18 1.186 7.18 2.649"/><path fill="url(#astronaut-medium_svg__E)" d="M23.17 18.387c0 1.462-2.782 3.515-7.18 3.515-4.469-.047-7.18-2.053-7.18-3.515s3.215-2.649 7.18-2.649 7.18 1.186 7.18 2.649"/><rect width="4.406" height="4.984" x="6.083" y="8.918" fill="url(#astronaut-medium_svg__F)" rx=".75"/><rect width="4.406" height="4.984" x="6.083" y="8.918" fill="url(#astronaut-medium_svg__G)" rx=".75"/><rect width="4.406" height="4.984" x="6.083" y="8.918" fill="url(#astronaut-medium_svg__H)" rx=".75"/><rect width="4.406" height="4.984" x="21.489" y="8.918" fill="url(#astronaut-medium_svg__I)" rx=".75"/><rect width="4.406" height="4.984" x="21.489" y="8.918" fill="url(#astronaut-medium_svg__J)" rx=".75"/><rect width="4.406" height="4.984" x="21.489" y="8.918" fill="url(#astronaut-medium_svg__K)" rx=".75"/><path fill="url(#astronaut-medium_svg__L)" d="M15.937 1.99c-4.98 0-9.01 4.03-9.01 9.01s4.03 9.01 9.01 9.01 9.01-4.03 9.01-9.01-4.04-9.01-9.01-9.01"/><path fill="url(#astronaut-medium_svg__M)" d="M15.937 1.99c-4.98 0-9.01 4.03-9.01 9.01s4.03 9.01 9.01 9.01 9.01-4.03 9.01-9.01-4.04-9.01-9.01-9.01"/><path fill="url(#astronaut-medium_svg__N)" d="M15.937 1.99c-4.98 0-9.01 4.03-9.01 9.01s4.03 9.01 9.01 9.01 9.01-4.03 9.01-9.01-4.04-9.01-9.01-9.01"/><g filter="url(#astronaut-medium_svg__O)"><path fill="url(#astronaut-medium_svg__P)" d="M15.937 2.229A8.767 8.767 0 0 0 7.166 11a8.767 8.767 0 0 0 8.771 8.772A8.767 8.767 0 0 0 24.71 11c0-4.848-3.933-8.771-8.772-8.771"/></g><g filter="url(#astronaut-medium_svg__Q)"><path fill="url(#astronaut-medium_svg__R)" d="M15.937 3.222A7.773 7.773 0 0 0 8.16 11a7.773 7.773 0 0 0 7.778 7.778 7.779 7.779 0 0 0 0-15.555"/></g><path fill="url(#astronaut-medium_svg__S)" d="M15.99 18.516a7.516 7.516 0 1 0 0-15.031 7.516 7.516 0 0 0 0 15.03"/><path fill="url(#astronaut-medium_svg__T)" d="M15.99 18.516a7.516 7.516 0 1 0 0-15.031 7.516 7.516 0 0 0 0 15.03"/><g filter="url(#astronaut-medium_svg__U)"><path fill="#1F1428" d="M10.833 14.044c.292 2.118 2.175 3.694 4.404 3.694h2.138c2.23 0 4.112-1.576 4.404-3.694.134-2.043.268-4.077.367-6.12-.012-.831-.697-1.517-1.563-1.552h-1.586c-1.082 0-2.062-.611-2.507-1.565a.75.75 0 0 0-.697-.454H14.35c-2.092 0-3.787 1.64-3.787 3.665 0 2.018.132 4.003.27 6.026"/></g><g filter="url(#astronaut-medium_svg__V)"><path fill="url(#astronaut-medium_svg__W)" d="M11.024 13.715a3.99 3.99 0 0 0 3.957 3.469h1.92a3.99 3.99 0 0 0 3.957-3.469c.12-1.918.241-3.828.33-5.745a1.476 1.476 0 0 0-1.404-1.458H18.36a2.47 2.47 0 0 1-2.253-1.47.68.68 0 0 0-.626-.426h-1.296c-1.88 0-3.403 1.54-3.403 3.441 0 1.895.119 3.759.243 5.658"/><path fill="url(#astronaut-medium_svg__X)" d="M11.024 13.715a3.99 3.99 0 0 0 3.957 3.469h1.92a3.99 3.99 0 0 0 3.957-3.469c.12-1.918.241-3.828.33-5.745a1.476 1.476 0 0 0-1.404-1.458H18.36a2.47 2.47 0 0 1-2.253-1.47.68.68 0 0 0-.626-.426h-1.296c-1.88 0-3.403 1.54-3.403 3.441 0 1.895.119 3.759.243 5.658"/></g><path fill="url(#astronaut-medium_svg__Y)" d="M11.024 13.715a3.99 3.99 0 0 0 3.957 3.469h1.92a3.99 3.99 0 0 0 3.957-3.469c.12-1.918.241-3.828.33-5.745a1.476 1.476 0 0 0-1.404-1.458H18.36a2.47 2.47 0 0 1-2.253-1.47.68.68 0 0 0-.626-.426h-1.296c-1.88 0-3.403 1.54-3.403 3.441 0 1.895.119 3.759.243 5.658"/><path fill="url(#astronaut-medium_svg__Z)" d="M11.024 13.715a3.99 3.99 0 0 0 3.957 3.469h1.92a3.99 3.99 0 0 0 3.957-3.469c.12-1.918.241-3.828.33-5.745a1.476 1.476 0 0 0-1.404-1.458H18.36a2.47 2.47 0 0 1-2.253-1.47.68.68 0 0 0-.626-.426h-1.296c-1.88 0-3.403 1.54-3.403 3.441 0 1.895.119 3.759.243 5.658"/><path fill="url(#astronaut-medium_svg__aa)" d="M11.024 13.715a3.99 3.99 0 0 0 3.957 3.469h1.92a3.99 3.99 0 0 0 3.957-3.469c.12-1.918.241-3.828.33-5.745a1.476 1.476 0 0 0-1.404-1.458H18.36a2.47 2.47 0 0 1-2.253-1.47.68.68 0 0 0-.626-.426h-1.296c-1.88 0-3.403 1.54-3.403 3.441 0 1.895.119 3.759.243 5.658"/><path fill="url(#astronaut-medium_svg__ab)" d="M11.024 13.715a3.99 3.99 0 0 0 3.957 3.469h1.92a3.99 3.99 0 0 0 3.957-3.469c.12-1.918.241-3.828.33-5.745a1.476 1.476 0 0 0-1.404-1.458H18.36a2.47 2.47 0 0 1-2.253-1.47.68.68 0 0 0-.626-.426h-1.296c-1.88 0-3.403 1.54-3.403 3.441 0 1.895.119 3.759.243 5.658"/><path fill="url(#astronaut-medium_svg__ac)" d="M11.024 13.715a3.99 3.99 0 0 0 3.957 3.469h1.92a3.99 3.99 0 0 0 3.957-3.469c.12-1.918.241-3.828.33-5.745a1.476 1.476 0 0 0-1.404-1.458H18.36a2.47 2.47 0 0 1-2.253-1.47.68.68 0 0 0-.626-.426h-1.296c-1.88 0-3.403 1.54-3.403 3.441 0 1.895.119 3.759.243 5.658"/><path fill="url(#astronaut-medium_svg__ad)" d="M11.024 13.715a3.99 3.99 0 0 0 3.957 3.469h1.92a3.99 3.99 0 0 0 3.957-3.469c.12-1.918.241-3.828.33-5.745a1.476 1.476 0 0 0-1.404-1.458H18.36a2.47 2.47 0 0 1-2.253-1.47.68.68 0 0 0-.626-.426h-1.296c-1.88 0-3.403 1.54-3.403 3.441 0 1.895.119 3.759.243 5.658"/><path fill="url(#astronaut-medium_svg__ae)" d="M11.024 13.715a3.99 3.99 0 0 0 3.957 3.469h1.92a3.99 3.99 0 0 0 3.957-3.469c.12-1.918.241-3.828.33-5.745a1.476 1.476 0 0 0-1.404-1.458H18.36a2.47 2.47 0 0 1-2.253-1.47.68.68 0 0 0-.626-.426h-1.296c-1.88 0-3.403 1.54-3.403 3.441 0 1.895.119 3.759.243 5.658"/><path fill="url(#astronaut-medium_svg__af)" d="M11.024 13.715a3.99 3.99 0 0 0 3.957 3.469h1.92a3.99 3.99 0 0 0 3.957-3.469c.12-1.918.241-3.828.33-5.745a1.476 1.476 0 0 0-1.404-1.458H18.36a2.47 2.47 0 0 1-2.253-1.47.68.68 0 0 0-.626-.426h-1.296c-1.88 0-3.403 1.54-3.403 3.441 0 1.895.119 3.759.243 5.658"/><g filter="url(#astronaut-medium_svg__ag)"><path fill="url(#astronaut-medium_svg__ah)" d="m15.442 10.372-.646 1.872c-.11.385.154.77.53.77h.8c.376 0 .641-.391.53-.77l-.54-1.872c-.117-.415-.552-.415-.674 0"/></g><g filter="url(#astronaut-medium_svg__ai)"><path fill="url(#astronaut-medium_svg__aj)" d="m15.548 10.172-.541 1.872c-.11.385.154.77.53.77h.8c.376 0 .641-.39.53-.77l-.54-1.872c-.116-.414-.658-.414-.78 0"/><path fill="url(#astronaut-medium_svg__ak)" d="m15.548 10.172-.541 1.872c-.11.385.154.77.53.77h.8c.376 0 .641-.39.53-.77l-.54-1.872c-.116-.414-.658-.414-.78 0"/><path fill="url(#astronaut-medium_svg__al)" d="m15.548 10.172-.541 1.872c-.11.385.154.77.53.77h.8c.376 0 .641-.39.53-.77l-.54-1.872c-.116-.414-.658-.414-.78 0"/><path fill="url(#astronaut-medium_svg__am)" d="m15.548 10.172-.541 1.872c-.11.385.154.77.53.77h.8c.376 0 .641-.39.53-.77l-.54-1.872c-.116-.414-.658-.414-.78 0"/></g><path fill="url(#astronaut-medium_svg__an)" d="m15.548 10.117-.541 1.911c-.11.393.154.786.53.786h.8c.376 0 .641-.399.53-.786l-.54-1.911c-.116-.424-.658-.424-.78 0"/><g filter="url(#astronaut-medium_svg__ao)"><path stroke="url(#astronaut-medium_svg__ap)" stroke-width=".2" d="M15.937 13.85a3.06 3.06 0 0 1-1.41-.335c-.14-.07-.29.086-.202.213.34.517.935.861 1.612.861s1.271-.344 1.612-.861c.088-.132-.062-.284-.201-.213a3.04 3.04 0 0 1-1.41.335Z"/></g><path fill="#88024E" d="M15.937 13.85a3.06 3.06 0 0 1-1.41-.335c-.14-.07-.29.086-.202.213.34.517.935.861 1.612.861s1.271-.344 1.612-.861c.088-.132-.062-.284-.201-.213a3.04 3.04 0 0 1-1.41.335"/><g filter="url(#astronaut-medium_svg__aq)"><path fill="#3A1E2F" d="M19.738 7.866a1.9 1.9 0 0 0-.7-.419c-.31-.097-.698-.124-1.235-.058a.282.282 0 0 0 .07.56c.49-.06.79-.028.996.037.201.063.338.166.498.306a.282.282 0 0 0 .371-.426"/></g><g filter="url(#astronaut-medium_svg__ar)"><path fill="#3A1E2F" d="M12.464 7.755a2.824 2.824 0 0 1 1.77-.366.282.282 0 1 1-.068.56 2.26 2.26 0 0 0-1.412.29 1 1 0 0 0-.093.062l-.003.002a.282.282 0 0 1-.346-.447z"/></g><path fill="#fff" d="M18.372 9.205c.665 0 1.227.458 1.38 1.078a.28.28 0 0 1-.273.347h-2.272a.234.234 0 0 1-.231-.277 1.42 1.42 0 0 1 1.396-1.148"/><path fill="url(#astronaut-medium_svg__as)" d="M18.161 9.481a.91.91 0 0 1 .876 1.149H17.28a.912.912 0 0 1 .88-1.148"/><path fill="#000" d="M17.64 10.39c0-.29.232-.52.521-.52a.518.518 0 0 1 .463.76h-.921a.47.47 0 0 1-.062-.24"/><g filter="url(#astronaut-medium_svg__at)"><path fill="#C7A7A3" d="M18.094 9.674c.065.086-.07.192-.224.307s-.268.196-.333.11.008-.25.161-.366c.154-.115.331-.138.396-.051"/><path fill="url(#astronaut-medium_svg__au)" d="M18.094 9.674c.065.086-.07.192-.224.307s-.268.196-.333.11.008-.25.161-.366c.154-.115.331-.138.396-.051"/></g><g filter="url(#astronaut-medium_svg__av)"><path fill="url(#astronaut-medium_svg__aw)" d="M18.97 10.27a.86.86 0 0 0-.235-.47l-.265.29.12.232z"/></g><path fill="#fff" d="M13.503 9.205c-.665 0-1.227.458-1.38 1.078a.28.28 0 0 0 .273.347h2.271c.145 0 .26-.132.232-.277a1.43 1.43 0 0 0-1.396-1.148"/><path fill="url(#astronaut-medium_svg__ax)" d="M13.713 9.481a.91.91 0 0 0-.876 1.149h1.756a1 1 0 0 0 .033-.24.915.915 0 0 0-.913-.909"/><path fill="#000" d="M14.234 10.39c0-.289-.232-.52-.52-.52a.518.518 0 0 0-.463.76h.92a.5.5 0 0 0 .063-.24"/><g filter="url(#astronaut-medium_svg__ay)"><path fill="url(#astronaut-medium_svg__az)" d="M14.544 10.284c0-.294-.24-.49-.304-.55l-.294.285.181.368z"/></g><g filter="url(#astronaut-medium_svg__aA)" transform="rotate(-27.914 13.439 9.87)"><ellipse cx="13.439" cy="9.87" fill="#C7A7A3" fill-opacity=".9" rx=".397" ry=".201"/><ellipse cx="13.439" cy="9.87" fill="url(#astronaut-medium_svg__aB)" rx=".397" ry=".201"/></g><g filter="url(#astronaut-medium_svg__aC)"><path fill="url(#astronaut-medium_svg__aD)" d="M15.99 6.79a12 12 0 0 1 7.3 2.46c-.79-3.3-3.76-5.76-7.3-5.76s-6.51 2.46-7.3 5.76a12 12 0 0 1 7.3-2.46"/><path fill="url(#astronaut-medium_svg__aE)" d="M15.99 6.79a12 12 0 0 1 7.3 2.46c-.79-3.3-3.76-5.76-7.3-5.76s-6.51 2.46-7.3 5.76a12 12 0 0 1 7.3-2.46"/><path fill="url(#astronaut-medium_svg__aF)" d="M15.99 6.79a12 12 0 0 1 7.3 2.46c-.79-3.3-3.76-5.76-7.3-5.76s-6.51 2.46-7.3 5.76a12 12 0 0 1 7.3-2.46"/><path fill="url(#astronaut-medium_svg__aG)" d="M15.99 6.79a12 12 0 0 1 7.3 2.46c-.79-3.3-3.76-5.76-7.3-5.76s-6.51 2.46-7.3 5.76a12 12 0 0 1 7.3-2.46"/></g><path fill="url(#astronaut-medium_svg__aH)" d="M18.01 15.65h2.97c.28 0 .5-.22.5-.5s-.22-.5-.5-.5h-2.97c-.28 0-.5.22-.5.5s.23.5.5.5"/><path fill="url(#astronaut-medium_svg__aI)" d="M18.01 15.65h2.97c.28 0 .5-.22.5-.5s-.22-.5-.5-.5h-2.97c-.28 0-.5.22-.5.5s.23.5.5.5"/><path fill="url(#astronaut-medium_svg__aJ)" d="M18.01 15.65h2.97c.28 0 .5-.22.5-.5s-.22-.5-.5-.5h-2.97c-.28 0-.5.22-.5.5s.23.5.5.5"/><g filter="url(#astronaut-medium_svg__aK)"><rect width="2.844" height=".281" x="18.037" y="14.933" fill="url(#astronaut-medium_svg__aL)" rx=".141"/></g><g filter="url(#astronaut-medium_svg__aM)"><path fill="#B9B2BF" d="M23.006 13.7h-.956c-.4-.01-.78.19-1 .53a6.04 6.04 0 0 1-3.92 2.67c-.44.08-.76.46-.76.91v.696a7.52 7.52 0 0 0 6.636-4.806"/></g><defs><radialGradient id="astronaut-medium_svg__c" cx="0" cy="0" r="1" gradientTransform="matrix(0 5.67857 -3.21429 0 22.919 24.685)" gradientUnits="userSpaceOnUse"><stop stop-color="#F7EFFF"/><stop offset="1" stop-color="#F7EFFF" stop-opacity="0"/></radialGradient><radialGradient id="astronaut-medium_svg__d" cx="0" cy="0" r="1" gradientTransform="matrix(-7.90626 2.7154 -1.39838 -4.07159 16.677 18.46)" gradientUnits="userSpaceOnUse"><stop offset=".655" stop-color="#B096CB"/><stop offset="1" stop-color="#C2B2D7" stop-opacity="0"/></radialGradient><radialGradient id="astronaut-medium_svg__f" cx="0" cy="0" r="1" gradientTransform="matrix(4.375 0 0 11.8756 21.834 29.457)" gradientUnits="userSpaceOnUse"><stop offset=".336" stop-color="#F6EDFF" stop-opacity="0"/><stop offset="1" stop-color="#FDFAFF"/></radialGradient><radialGradient id="astronaut-medium_svg__i" cx="0" cy="0" r="1" gradientTransform="matrix(0 8.53821 -7.17442 0 24.99 21.797)" gradientUnits="userSpaceOnUse"><stop offset=".798" stop-color="#DED6EB" stop-opacity="0"/><stop offset="1" stop-color="#D8C5EC"/></radialGradient><radialGradient id="astronaut-medium_svg__j" cx="0" cy="0" r="1" gradientTransform="matrix(-4.26999 0 0 -10.4063 9.01 28.988)" gradientUnits="userSpaceOnUse"><stop offset=".502" stop-color="#C4C1C5" stop-opacity="0"/><stop offset="1" stop-color="#C4C1C5"/></radialGradient><radialGradient id="astronaut-medium_svg__l" cx="0" cy="0" r="1" gradientTransform="matrix(0 -1.15625 3.70797 0 7.615 30.332)" gradientUnits="userSpaceOnUse"><stop stop-color="#C9B5DE"/><stop offset="1" stop-color="#C9B5DE" stop-opacity="0"/></radialGradient><radialGradient id="astronaut-medium_svg__r" cx="0" cy="0" r="1" gradientTransform="rotate(53.881 -16.071 24.906)scale(2.14706)" gradientUnits="userSpaceOnUse"><stop offset=".403" stop-color="#3D8EE2"/><stop offset="1" stop-color="#3E7CD9"/></radialGradient><radialGradient id="astronaut-medium_svg__y" cx="0" cy="0" r="1" gradientTransform="matrix(-1.9375 0 0 -4.97705 7.177 27.84)" gradientUnits="userSpaceOnUse"><stop offset=".274" stop-color="#3776C0"/><stop offset="1" stop-color="#648CBC"/></radialGradient><radialGradient id="astronaut-medium_svg__B" cx="0" cy="0" r="1" gradientTransform="rotate(-169.849 7.115 8.483)scale(4.49245 1.66714)" gradientUnits="userSpaceOnUse"><stop offset=".5" stop-color="#A59EAC"/><stop offset="1" stop-color="#B3B2B5" stop-opacity="0"/></radialGradient><radialGradient id="astronaut-medium_svg__C" cx="0" cy="0" r="1" gradientTransform="matrix(-5.61229 2.22988 -.54256 -1.36555 22.918 18.82)" gradientUnits="userSpaceOnUse"><stop stop-color="#FFFEFF"/><stop offset="1" stop-color="#FFFEFF" stop-opacity="0"/></radialGradient><radialGradient id="astronaut-medium_svg__D" cx="0" cy="0" r="1" gradientTransform="matrix(0 4.09385 -11.9992 0 15.99 18.126)" gradientUnits="userSpaceOnUse"><stop offset=".613" stop-color="#C9A7EF" stop-opacity="0"/><stop offset=".943" stop-color="#C9A7EF"/></radialGradient><radialGradient id="astronaut-medium_svg__E" cx="0" cy="0" r="1" gradientTransform="matrix(0 1.01366 -3.3941 0 15.99 19.266)" gradientUnits="userSpaceOnUse"><stop stop-color="#D7D2DD"/><stop offset="1" stop-color="#D7D2DD" stop-opacity="0"/></radialGradient><radialGradient id="astronaut-medium_svg__H" cx="0" cy="0" r="1" gradientTransform="matrix(.61774 0 0 2.761 6.083 11.894)" gradientUnits="userSpaceOnUse"><stop stop-color="#ADA9B1"/><stop offset="1" stop-color="#ADA9B1" stop-opacity="0"/></radialGradient><radialGradient id="astronaut-medium_svg__J" cx="0" cy="0" r="1" gradientTransform="matrix(.98754 0 0 2.55399 24.573 10.628)" gradientUnits="userSpaceOnUse"><stop stop-color="#CDCAD1"/><stop offset="1" stop-color="#CDCAD1" stop-opacity="0"/></radialGradient><radialGradient id="astronaut-medium_svg__K" cx="0" cy="0" r="1" gradientTransform="matrix(0 2.9456 -.49377 0 25.612 10.237)" gradientUnits="userSpaceOnUse"><stop stop-color="#DCDADE"/><stop offset="1" stop-color="#DCDADE" stop-opacity="0"/></radialGradient><radialGradient id="astronaut-medium_svg__M" cx="0" cy="0" r="1" gradientTransform="rotate(72.208 .427 16.426)scale(9.27527 14.5186)" gradientUnits="userSpaceOnUse"><stop offset=".922" stop-color="#9F98A6" stop-opacity="0"/><stop offset="1" stop-color="#9F98A6"/></radialGradient><radialGradient id="astronaut-medium_svg__N" cx="0" cy="0" r="1" gradientTransform="matrix(-3.875 -3.5625 1.57331 -1.71133 11.834 19.082)" gradientUnits="userSpaceOnUse"><stop stop-color="#A29CA9"/><stop offset="1" stop-color="#A29CA9" stop-opacity="0"/></radialGradient><radialGradient id="astronaut-medium_svg__R" cx="0" cy="0" r="1" gradientTransform="rotate(123.891 7.386 7.964)scale(12.2137)" gradientUnits="userSpaceOnUse"><stop offset=".307" stop-color="#877F8D"/><stop offset="1" stop-color="#C8BEBF"/></radialGradient><radialGradient id="astronaut-medium_svg__T" cx="0" cy="0" r="1" gradientTransform="rotate(6.45 -87.852 138.644)scale(8.5401)" gradientUnits="userSpaceOnUse"><stop offset=".902" stop-color="#362B3D" stop-opacity="0"/><stop offset="1" stop-color="#362B3D"/></radialGradient><radialGradient id="astronaut-medium_svg__W" cx="0" cy="0" r="1" gradientTransform="matrix(0 6.08497 -6.18486 0 15.985 11.934)" gradientUnits="userSpaceOnUse"><stop offset=".375" stop-color="#AE807A"/><stop offset=".799" stop-color="#855C60"/></radialGradient><radialGradient id="astronaut-medium_svg__X" cx="0" cy="0" r="1" gradientTransform="matrix(-3.03126 -.78123 1.34858 -5.23264 20.647 14.683)" gradientUnits="userSpaceOnUse"><stop stop-color="#8B6C55"/><stop offset="1" stop-color="#8B6C55" stop-opacity="0"/></radialGradient><radialGradient id="astronaut-medium_svg__Z" cx="0" cy="0" r="1" gradientTransform="matrix(0 -10.125 8.75502 0 15.985 16.27)" gradientUnits="userSpaceOnUse"><stop offset=".813" stop-color="#5E3A41" stop-opacity="0"/><stop offset="1" stop-color="#4C2E35"/></radialGradient><radialGradient id="astronaut-medium_svg__aa" cx="0" cy="0" r="1" gradientTransform="matrix(0 7.81982 -7.24372 0 15.985 9.55)" gradientUnits="userSpaceOnUse"><stop offset=".748" stop-color="#825A58" stop-opacity="0"/><stop offset="1" stop-color="#38251F"/></radialGradient><radialGradient id="astronaut-medium_svg__ab" cx="0" cy="0" r="1" gradientTransform="matrix(-3.25 0 0 -1.26563 20.24 15.738)" gradientUnits="userSpaceOnUse"><stop offset=".101" stop-color="#3A2820"/><stop offset="1" stop-color="#794F52" stop-opacity="0"/></radialGradient><radialGradient id="astronaut-medium_svg__ac" cx="0" cy="0" r="1" gradientTransform="matrix(0 3.18781 -7.81147 0 15.985 7.324)" gradientUnits="userSpaceOnUse"><stop stop-color="#7C525A"/><stop offset="1" stop-color="#7C525A" stop-opacity="0"/></radialGradient><radialGradient id="astronaut-medium_svg__ad" cx="0" cy="0" r="1" gradientTransform="matrix(0 -1.18986 1.26423 0 14.064 9.725)" gradientUnits="userSpaceOnUse"><stop offset=".402" stop-color="#835A59"/><stop offset="1" stop-color="#835A59" stop-opacity="0"/></radialGradient><radialGradient id="astronaut-medium_svg__ae" cx="0" cy="0" r="1" gradientTransform="matrix(-1.26562 .43601 -.29198 -.84753 13.866 10.464)" gradientUnits="userSpaceOnUse"><stop offset=".276" stop-color="#856152"/><stop offset="1" stop-color="#856152" stop-opacity="0"/></radialGradient><radialGradient id="astronaut-medium_svg__af" cx="0" cy="0" r="1" gradientTransform="matrix(0 1.125 -2.27319 0 18.429 10.62)" gradientUnits="userSpaceOnUse"><stop stop-color="#9A735F"/><stop offset="1" stop-color="#9A735F" stop-opacity="0"/></radialGradient><radialGradient id="astronaut-medium_svg__ah" cx="0" cy="0" r="1" gradientTransform="rotate(146.924 6.143 8.127)scale(1.04487 1.23672)" gradientUnits="userSpaceOnUse"><stop stop-color="#8A6254"/><stop offset="1" stop-color="#956467"/></radialGradient><radialGradient id="astronaut-medium_svg__ak" cx="0" cy="0" r="1" gradientTransform="matrix(-.70313 0 0 -.32031 16.288 12.209)" gradientUnits="userSpaceOnUse"><stop stop-color="#B99384"/><stop offset="1" stop-color="#B99384" stop-opacity="0"/></radialGradient><radialGradient id="astronaut-medium_svg__al" cx="0" cy="0" r="1" gradientTransform="matrix(.2554 2.91155 -.39026 .03423 16.202 9.598)" gradientUnits="userSpaceOnUse"><stop offset=".307" stop-color="#B89381"/><stop offset="1" stop-color="#B89381" stop-opacity="0"/></radialGradient><radialGradient id="astronaut-medium_svg__ap" cx="0" cy="0" r="1" gradientTransform="matrix(.62856 -.66852 2.11441 1.98802 14.515 14.287)" gradientUnits="userSpaceOnUse"><stop offset=".152" stop-color="#AA847B"/><stop offset="1" stop-color="#AA847B" stop-opacity="0"/></radialGradient><radialGradient id="astronaut-medium_svg__as" cx="0" cy="0" r="1" gradientTransform="matrix(0 .82614 -1.31407 0 18.159 9.967)" gradientUnits="userSpaceOnUse"><stop offset=".802" stop-color="#6C4941"/><stop offset="1" stop-color="#694B43"/><stop offset="1" stop-color="#804D49"/><stop offset="1" stop-color="#5F3F37"/></radialGradient><radialGradient id="astronaut-medium_svg__au" cx="0" cy="0" r="1" gradientTransform="matrix(-.23615 -.30432 .41897 -.32513 17.927 10.053)" gradientUnits="userSpaceOnUse"><stop offset=".766" stop-color="#FFE6E2" stop-opacity="0"/><stop offset=".966" stop-color="#FFE6E2"/></radialGradient><radialGradient id="astronaut-medium_svg__ax" cx="0" cy="0" r="1" gradientTransform="matrix(0 .82618 -1.31413 0 13.715 9.967)" gradientUnits="userSpaceOnUse"><stop offset=".802" stop-color="#6C4941"/><stop offset="1" stop-color="#694B43"/><stop offset="1" stop-color="#804D49"/><stop offset="1" stop-color="#5F3F37"/></radialGradient><radialGradient id="astronaut-medium_svg__aB" cx="0" cy="0" r="1" gradientTransform="matrix(-.00788 -.5031 .60476 -.00947 13.424 10.19)" gradientUnits="userSpaceOnUse"><stop offset=".766" stop-color="#FFE6E2" stop-opacity="0"/><stop offset=".966" stop-color="#FFE6E2"/></radialGradient><radialGradient id="astronaut-medium_svg__aD" cx="0" cy="0" r="1" gradientTransform="matrix(0 4.50166 -9.15821 0 15.99 3.49)" gradientUnits="userSpaceOnUse"><stop offset=".09" stop-color="#848286"/><stop offset="1" stop-color="#655D6D"/></radialGradient><radialGradient id="astronaut-medium_svg__aE" cx="0" cy="0" r="1" gradientTransform="rotate(-66.935 11.492 -2.53)scale(2.63229 2.58351)" gradientUnits="userSpaceOnUse"><stop stop-color="#6C6176"/><stop offset="1" stop-color="#6C6176" stop-opacity="0"/></radialGradient><radialGradient id="astronaut-medium_svg__aF" cx="0" cy="0" r="1" gradientTransform="rotate(-147.95 12.014 3.511)scale(12.72 10.6468)" gradientUnits="userSpaceOnUse"><stop offset=".911" stop-color="#493B54" stop-opacity="0"/><stop offset="1" stop-color="#493B54"/></radialGradient><radialGradient id="astronaut-medium_svg__aH" cx="0" cy="0" r="1" gradientTransform="matrix(3.07812 0 0 1.2594 18.162 15.15)" gradientUnits="userSpaceOnUse"><stop stop-color="#736A6C"/><stop offset=".78" stop-color="#463D38"/></radialGradient><linearGradient id="astronaut-medium_svg__a" x1="10.169" x2="21.419" y1="30.506" y2="30.506" gradientUnits="userSpaceOnUse"><stop offset=".006" stop-color="#DBCFEA"/><stop offset="1" stop-color="#E7D8F7"/></linearGradient><linearGradient id="astronaut-medium_svg__b" x1="8.677" x2="10.834" y1="26.113" y2="26.144" gradientUnits="userSpaceOnUse"><stop stop-color="#BAA7D0"/><stop offset=".231" stop-color="#D3CADE"/><stop offset="1" stop-color="#D3CADE" stop-opacity="0"/></linearGradient><linearGradient id="astronaut-medium_svg__e" x1="16.584" x2="16.584" y1="30.519" y2="29.613" gradientUnits="userSpaceOnUse"><stop stop-color="#C9B4E0"/><stop offset="1" stop-color="#C9B4E0" stop-opacity="0"/></linearGradient><linearGradient id="astronaut-medium_svg__g" x1="22.787" x2="23.427" y1="26.598" y2="26.582" gradientUnits="userSpaceOnUse"><stop offset=".127" stop-color="#C8B9DA"/><stop offset="1" stop-color="#C8B9DA" stop-opacity="0"/></linearGradient><linearGradient id="astronaut-medium_svg__h" x1="26.99" x2="26.271" y1="29.98" y2="29.98" gradientUnits="userSpaceOnUse"><stop stop-color="#E8E4EF"/><stop offset="1" stop-color="#E8E4EF" stop-opacity="0"/></linearGradient><linearGradient id="astronaut-medium_svg__k" x1="9.06" x2="8.685" y1="29.98" y2="29.98" gradientUnits="userSpaceOnUse"><stop stop-color="#BBB7C0"/><stop offset="1" stop-color="#C1B1D5" stop-opacity="0"/></linearGradient><linearGradient id="astronaut-medium_svg__n" x1="20.49" x2="11.48" y1="29.675" y2="29.675" gradientUnits="userSpaceOnUse"><stop stop-color="#CDC0DA"/><stop offset="1" stop-color="#BEB1CC"/></linearGradient><linearGradient id="astronaut-medium_svg__t" x1="17.334" x2="18.756" y1="24.754" y2="23.348" gradientUnits="userSpaceOnUse"><stop stop-color="#EE3880"/><stop offset="1" stop-color="#F13C6A"/></linearGradient><linearGradient id="astronaut-medium_svg__v" x1="18.865" x2="17.373" y1="23.261" y2="24.683" gradientUnits="userSpaceOnUse"><stop stop-color="#FB4F70"/><stop offset=".531" stop-color="#F34B6C" stop-opacity="0"/></linearGradient><linearGradient id="astronaut-medium_svg__x" x1="14.865" x2="13.373" y1="23.261" y2="24.683" gradientUnits="userSpaceOnUse"><stop stop-color="#4D90DF"/><stop offset=".531" stop-color="#4D90DF" stop-opacity="0"/></linearGradient><linearGradient id="astronaut-medium_svg__A" x1="21.602" x2="8.007" y1="19.594" y2="19.594" gradientUnits="userSpaceOnUse"><stop stop-color="#F0E4FC"/><stop offset="1" stop-color="#D8D0E0"/></linearGradient><linearGradient id="astronaut-medium_svg__F" x1="8.286" x2="8.286" y1="8.918" y2="12.488" gradientUnits="userSpaceOnUse"><stop stop-color="#919092"/><stop offset="1" stop-color="#938B9C"/></linearGradient><linearGradient id="astronaut-medium_svg__G" x1="7.115" x2="7.115" y1="13.902" y2="13.175" gradientUnits="userSpaceOnUse"><stop stop-color="#88828E"/><stop offset="1" stop-color="#88828E" stop-opacity="0"/></linearGradient><linearGradient id="astronaut-medium_svg__I" x1="25.181" x2="25.181" y1="8.918" y2="14.052" gradientUnits="userSpaceOnUse"><stop stop-color="#C0BFC0"/><stop offset=".743" stop-color="#AFA9B7"/><stop offset="1" stop-color="#8E8895"/></linearGradient><linearGradient id="astronaut-medium_svg__L" x1="23.927" x2="8.084" y1="6.425" y2="15.707" gradientUnits="userSpaceOnUse"><stop stop-color="#D4D0D7"/><stop offset="1" stop-color="#A6A2AB"/></linearGradient><linearGradient id="astronaut-medium_svg__P" x1="23.716" x2="8.292" y1="6.547" y2="15.582" gradientUnits="userSpaceOnUse"><stop stop-color="#BAB4C1"/><stop offset="1" stop-color="#BDB7C4"/></linearGradient><linearGradient id="astronaut-medium_svg__S" x1="9.865" x2="23.334" y1="12.144" y2="12.144" gradientUnits="userSpaceOnUse"><stop stop-color="#4E4257"/><stop offset=".276" stop-color="#332640"/></linearGradient><linearGradient id="astronaut-medium_svg__Y" x1="21.188" x2="19.944" y1="12.05" y2="12.011" gradientUnits="userSpaceOnUse"><stop stop-color="#462F2D"/><stop offset="1" stop-color="#715544" stop-opacity="0"/></linearGradient><linearGradient id="astronaut-medium_svg__aj" x1="15.937" x2="16.808" y1="11.744" y2="11.744" gradientUnits="userSpaceOnUse"><stop stop-color="#9A726A"/><stop offset="1" stop-color="#AF8771"/></linearGradient><linearGradient id="astronaut-medium_svg__am" x1="15.937" x2="15.937" y1="12.855" y2="12.324" gradientUnits="userSpaceOnUse"><stop stop-color="#976568"/><stop offset="1" stop-color="#976568" stop-opacity="0"/></linearGradient><linearGradient id="astronaut-medium_svg__an" x1="15.937" x2="15.937" y1="9.799" y2="11.173" gradientUnits="userSpaceOnUse"><stop offset=".291" stop-color="#A17471"/><stop offset="1" stop-color="#A17471" stop-opacity="0"/></linearGradient><linearGradient id="astronaut-medium_svg__aw" x1="18.951" x2="18.632" y1="10.022" y2="10.219" gradientUnits="userSpaceOnUse"><stop stop-color="#B4948D"/><stop offset="1" stop-color="#B4948D" stop-opacity="0"/></linearGradient><linearGradient id="astronaut-medium_svg__az" x1="14.473" x2="14.153" y1="10.022" y2="10.219" gradientUnits="userSpaceOnUse"><stop stop-color="#B4948D"/><stop offset="1" stop-color="#B4948D" stop-opacity="0"/></linearGradient><linearGradient id="astronaut-medium_svg__aG" x1="23.29" x2="21.615" y1="9.394" y2="7.332" gradientUnits="userSpaceOnUse"><stop stop-color="#726080"/><stop offset="1" stop-color="#726080" stop-opacity="0"/></linearGradient><linearGradient id="astronaut-medium_svg__aI" x1="17.576" x2="17.951" y1="15.191" y2="15.191" gradientUnits="userSpaceOnUse"><stop stop-color="#615962"/><stop offset="1" stop-color="#615962" stop-opacity="0"/></linearGradient><linearGradient id="astronaut-medium_svg__aJ" x1="19.224" x2="19.224" y1="15.754" y2="15.558" gradientUnits="userSpaceOnUse"><stop stop-color="#3D3438"/><stop offset="1" stop-color="#3D3438" stop-opacity="0"/></linearGradient><linearGradient id="astronaut-medium_svg__aL" x1="18.206" x2="20.392" y1="15.215" y2="15.215" gradientUnits="userSpaceOnUse"><stop stop-color="#797278"/><stop offset="1" stop-color="#5C595D"/></linearGradient><filter id="astronaut-medium_svg__m" width="9.31" height="4.17" x="11.33" y="25.97" color-interpolation-filters="sRGB" filterUnits="userSpaceOnUse"><feFlood flood-opacity="0" result="BackgroundImageFix"/><feBlend in="SourceGraphic" in2="BackgroundImageFix" result="shape"/><feColorMatrix in="SourceAlpha" result="hardAlpha" values="0 0 0 0 0 0 0 0 0 0 0 0 0 0 0 0 0 0 127 0"/><feOffset dx="-.15" dy=".15"/><feGaussianBlur stdDeviation=".125"/><feComposite in2="hardAlpha" k2="-1" k3="1" operator="arithmetic"/><feColorMatrix values="0 0 0 0 0.843137 0 0 0 0 0.811765 0 0 0 0 0.87451 0 0 0 1 0"/><feBlend in2="shape" result="effect1_innerShadow_4002_2537"/><feColorMatrix in="SourceAlpha" result="hardAlpha" values="0 0 0 0 0 0 0 0 0 0 0 0 0 0 0 0 0 0 127 0"/><feOffset dx=".15" dy=".15"/><feGaussianBlur stdDeviation=".2"/><feComposite in2="hardAlpha" k2="-1" k3="1" operator="arithmetic"/><feColorMatrix values="0 0 0 0 0.686275 0 0 0 0 0.635294 0 0 0 0 0.733333 0 0 0 1 0"/><feBlend in2="effect1_innerShadow_4002_2537" result="effect2_innerShadow_4002_2537"/></filter><filter id="astronaut-medium_svg__o" width="3.12" height="3.12" x="12.245" y="22.605" color-interpolation-filters="sRGB" filterUnits="userSpaceOnUse"><feFlood flood-opacity="0" result="BackgroundImageFix"/><feBlend in="SourceGraphic" in2="BackgroundImageFix" result="shape"/><feGaussianBlur result="effect1_foregroundBlur_4002_2537" stdDeviation=".25"/></filter><filter id="astronaut-medium_svg__p" width="3.12" height="3.12" x="16.315" y="22.605" color-interpolation-filters="sRGB" filterUnits="userSpaceOnUse"><feFlood flood-opacity="0" result="BackgroundImageFix"/><feBlend in="SourceGraphic" in2="BackgroundImageFix" result="shape"/><feGaussianBlur result="effect1_foregroundBlur_4002_2537" stdDeviation=".25"/></filter><filter id="astronaut-medium_svg__q" width="2.12" height="2.12" x="12.93" y="22.92" color-interpolation-filters="sRGB" filterUnits="userSpaceOnUse"><feFlood flood-opacity="0" result="BackgroundImageFix"/><feBlend in="SourceGraphic" in2="BackgroundImageFix" result="shape"/><feColorMatrix in="SourceAlpha" result="hardAlpha" values="0 0 0 0 0 0 0 0 0 0 0 0 0 0 0 0 0 0 127 0"/><feOffset/><feGaussianBlur stdDeviation=".125"/><feComposite in2="hardAlpha" k2="-1" k3="1" operator="arithmetic"/><feColorMatrix values="0 0 0 0 0.294118 0 0 0 0 0.498039 0 0 0 0 0.847059 0 0 0 1 0"/><feBlend in2="shape" result="effect1_innerShadow_4002_2537"/></filter><filter id="astronaut-medium_svg__s" width="2.12" height="2.12" x="16.93" y="22.92" color-interpolation-filters="sRGB" filterUnits="userSpaceOnUse"><feFlood flood-opacity="0" result="BackgroundImageFix"/><feBlend in="SourceGraphic" in2="BackgroundImageFix" result="shape"/><feColorMatrix in="SourceAlpha" result="hardAlpha" values="0 0 0 0 0 0 0 0 0 0 0 0 0 0 0 0 0 0 127 0"/><feOffset/><feGaussianBlur stdDeviation=".125"/><feComposite in2="hardAlpha" k2="-1" k3="1" operator="arithmetic"/><feColorMatrix values="0 0 0 0 0.882353 0 0 0 0 0.180392 0 0 0 0 0.380392 0 0 0 1 0"/><feBlend in2="shape" result="effect1_innerShadow_4002_2537"/></filter><filter id="astronaut-medium_svg__u" width="2.05" height="2.05" x="16.965" y="22.955" color-interpolation-filters="sRGB" filterUnits="userSpaceOnUse"><feFlood flood-opacity="0" result="BackgroundImageFix"/><feBlend in="SourceGraphic" in2="BackgroundImageFix" result="shape"/><feGaussianBlur result="effect1_foregroundBlur_4002_2537" stdDeviation=".05"/></filter><filter id="astronaut-medium_svg__w" width="2.05" height="2.05" x="12.965" y="22.955" color-interpolation-filters="sRGB" filterUnits="userSpaceOnUse"><feFlood flood-opacity="0" result="BackgroundImageFix"/><feBlend in="SourceGraphic" in2="BackgroundImageFix" result="shape"/><feGaussianBlur result="effect1_foregroundBlur_4002_2537" stdDeviation=".05"/></filter><filter id="astronaut-medium_svg__z" width="14.359" height="6.364" x="8.81" y="15.538" color-interpolation-filters="sRGB" filterUnits="userSpaceOnUse"><feFlood flood-opacity="0" result="BackgroundImageFix"/><feBlend in="SourceGraphic" in2="BackgroundImageFix" result="shape"/><feColorMatrix in="SourceAlpha" result="hardAlpha" values="0 0 0 0 0 0 0 0 0 0 0 0 0 0 0 0 0 0 127 0"/><feOffset dy="-.2"/><feGaussianBlur stdDeviation=".5"/><feComposite in2="hardAlpha" k2="-1" k3="1" operator="arithmetic"/><feColorMatrix values="0 0 0 0 0.933333 0 0 0 0 0.87451 0 0 0 0 0.996078 0 0 0 1 0"/><feBlend in2="shape" result="effect1_innerShadow_4002_2537"/></filter><filter id="astronaut-medium_svg__O" width="18.043" height="18.043" x="6.916" y="1.979" color-interpolation-filters="sRGB" filterUnits="userSpaceOnUse"><feFlood flood-opacity="0" result="BackgroundImageFix"/><feBlend in="SourceGraphic" in2="BackgroundImageFix" result="shape"/><feGaussianBlur result="effect1_foregroundBlur_4002_2537" stdDeviation=".125"/></filter><filter id="astronaut-medium_svg__Q" width="16.155" height="16.155" x="7.859" y="2.922" color-interpolation-filters="sRGB" filterUnits="userSpaceOnUse"><feFlood flood-opacity="0" result="BackgroundImageFix"/><feBlend in="SourceGraphic" in2="BackgroundImageFix" result="shape"/><feGaussianBlur result="effect1_foregroundBlur_4002_2537" stdDeviation=".15"/></filter><filter id="astronaut-medium_svg__U" width="14.583" height="16.385" x="9.063" y="2.853" color-interpolation-filters="sRGB" filterUnits="userSpaceOnUse"><feFlood flood-opacity="0" result="BackgroundImageFix"/><feBlend in="SourceGraphic" in2="BackgroundImageFix" result="shape"/><feGaussianBlur result="effect1_foregroundBlur_4002_2537" stdDeviation=".75"/></filter><filter id="astronaut-medium_svg__V" width="10.407" height="12.567" x="10.781" y="4.616" color-interpolation-filters="sRGB" filterUnits="userSpaceOnUse"><feFlood flood-opacity="0" result="BackgroundImageFix"/><feBlend in="SourceGraphic" in2="BackgroundImageFix" result="shape"/><feColorMatrix in="SourceAlpha" result="hardAlpha" values="0 0 0 0 0 0 0 0 0 0 0 0 0 0 0 0 0 0 127 0"/><feOffset/><feGaussianBlur stdDeviation="1"/><feComposite in2="hardAlpha" k2="-1" k3="1" operator="arithmetic"/><feColorMatrix values="0 0 0 0 0.278431 0 0 0 0 0.176471 0 0 0 0 0.188235 0 0 0 1 0"/><feBlend in2="shape" result="effect1_innerShadow_4002_2537"/></filter><filter id="astronaut-medium_svg__ag" width="3.912" height="4.953" x="13.77" y="9.061" color-interpolation-filters="sRGB" filterUnits="userSpaceOnUse"><feFlood flood-opacity="0" result="BackgroundImageFix"/><feBlend in="SourceGraphic" in2="BackgroundImageFix" result="shape"/><feGaussianBlur result="effect1_foregroundBlur_4002_2537" stdDeviation=".5"/></filter><filter id="astronaut-medium_svg__ai" width="2.112" height="3.153" x="14.881" y="9.761" color-interpolation-filters="sRGB" filterUnits="userSpaceOnUse"><feFlood flood-opacity="0" result="BackgroundImageFix"/><feBlend in="SourceGraphic" in2="BackgroundImageFix" result="shape"/><feColorMatrix in="SourceAlpha" result="hardAlpha" values="0 0 0 0 0 0 0 0 0 0 0 0 0 0 0 0 0 0 127 0"/><feOffset dx=".1"/><feGaussianBlur stdDeviation=".125"/><feComposite in2="hardAlpha" k2="-1" k3="1" operator="arithmetic"/><feColorMatrix values="0 0 0 0 0.52549 0 0 0 0 0.368627 0 0 0 0 0.313726 0 0 0 1 0"/><feBlend in2="shape" result="effect1_innerShadow_4002_2537"/><feGaussianBlur result="effect2_foregroundBlur_4002_2537" stdDeviation=".05"/></filter><filter id="astronaut-medium_svg__ao" width="3.677" height="1.492" x="14.098" y="13.297" color-interpolation-filters="sRGB" filterUnits="userSpaceOnUse"><feFlood flood-opacity="0" result="BackgroundImageFix"/><feBlend in="SourceGraphic" in2="BackgroundImageFix" result="shape"/><feGaussianBlur result="effect1_foregroundBlur_4002_2537" stdDeviation=".05"/></filter><filter id="astronaut-medium_svg__aq" width="2.38" height="1.209" x="17.555" y="7.353" color-interpolation-filters="sRGB" filterUnits="userSpaceOnUse"><feFlood flood-opacity="0" result="BackgroundImageFix"/><feBlend in="SourceGraphic" in2="BackgroundImageFix" result="shape"/><feColorMatrix in="SourceAlpha" result="hardAlpha" values="0 0 0 0 0 0 0 0 0 0 0 0 0 0 0 0 0 0 127 0"/><feOffset dx=".1" dy=".2"/><feGaussianBlur stdDeviation=".1"/><feComposite in2="hardAlpha" k2="-1" k3="1" operator="arithmetic"/><feColorMatrix values="0 0 0 0 0.145098 0 0 0 0 0.0705882 0 0 0 0 0.0823529 0 0 0 1 0"/><feBlend in2="shape" result="effect1_innerShadow_4002_2537"/></filter><filter id="astronaut-medium_svg__ar" width="2.38" height="1.194" x="12.203" y="7.368" color-interpolation-filters="sRGB" filterUnits="userSpaceOnUse"><feFlood flood-opacity="0" result="BackgroundImageFix"/><feBlend in="SourceGraphic" in2="BackgroundImageFix" result="shape"/><feColorMatrix in="SourceAlpha" result="hardAlpha" values="0 0 0 0 0 0 0 0 0 0 0 0 0 0 0 0 0 0 127 0"/><feOffset dx=".1" dy=".2"/><feGaussianBlur stdDeviation=".1"/><feComposite in2="hardAlpha" k2="-1" k3="1" operator="arithmetic"/><feColorMatrix values="0 0 0 0 0.145098 0 0 0 0 0.0705882 0 0 0 0 0.0823529 0 0 0 1 0"/><feBlend in2="shape" result="effect1_innerShadow_4002_2537"/></filter><filter id="astronaut-medium_svg__at" width=".798" height=".705" x="17.413" y="9.521" color-interpolation-filters="sRGB" filterUnits="userSpaceOnUse"><feFlood flood-opacity="0" result="BackgroundImageFix"/><feBlend in="SourceGraphic" in2="BackgroundImageFix" result="shape"/><feGaussianBlur result="effect1_foregroundBlur_4002_2537" stdDeviation=".05"/></filter><filter id="astronaut-medium_svg__av" width=".9" height=".923" x="18.27" y="9.599" color-interpolation-filters="sRGB" filterUnits="userSpaceOnUse"><feFlood flood-opacity="0" result="BackgroundImageFix"/><feBlend in="SourceGraphic" in2="BackgroundImageFix" result="shape"/><feGaussianBlur result="effect1_foregroundBlur_4002_2537" stdDeviation=".1"/></filter><filter id="astronaut-medium_svg__ay" width=".997" height="1.052" x="13.746" y="9.535" color-interpolation-filters="sRGB" filterUnits="userSpaceOnUse"><feFlood flood-opacity="0" result="BackgroundImageFix"/><feBlend in="SourceGraphic" in2="BackgroundImageFix" result="shape"/><feGaussianBlur result="effect1_foregroundBlur_4002_2537" stdDeviation=".1"/></filter><filter id="astronaut-medium_svg__aA" width=".926" height=".714" x="12.976" y="9.513" color-interpolation-filters="sRGB" filterUnits="userSpaceOnUse"><feFlood flood-opacity="0" result="BackgroundImageFix"/><feBlend in="SourceGraphic" in2="BackgroundImageFix" result="shape"/><feGaussianBlur result="effect1_foregroundBlur_4002_2537" stdDeviation=".05"/></filter><filter id="astronaut-medium_svg__aC" width="14.6" height="5.86" x="8.69" y="3.44" color-interpolation-filters="sRGB" filterUnits="userSpaceOnUse"><feFlood flood-opacity="0" result="BackgroundImageFix"/><feBlend in="SourceGraphic" in2="BackgroundImageFix" result="shape"/><feColorMatrix in="SourceAlpha" result="hardAlpha" values="0 0 0 0 0 0 0 0 0 0 0 0 0 0 0 0 0 0 127 0"/><feOffset dy="-.05"/><feGaussianBlur stdDeviation=".05"/><feComposite in2="hardAlpha" k2="-1" k3="1" operator="arithmetic"/><feColorMatrix values="0 0 0 0 0.286275 0 0 0 0 0.215686 0 0 0 0 0.329412 0 0 0 1 0"/><feBlend in2="shape" result="effect1_innerShadow_4002_2537"/><feColorMatrix in="SourceAlpha" result="hardAlpha" values="0 0 0 0 0 0 0 0 0 0 0 0 0 0 0 0 0 0 127 0"/><feOffset dy=".05"/><feGaussianBlur stdDeviation=".05"/><feComposite in2="hardAlpha" k2="-1" k3="1" operator="arithmetic"/><feColorMatrix values="0 0 0 0 0.247059 0 0 0 0 0.219608 0 0 0 0 0.27451 0 0 0 1 0"/><feBlend in2="effect1_innerShadow_4002_2537" result="effect2_innerShadow_4002_2537"/></filter><filter id="astronaut-medium_svg__aK" width="3.344" height=".781" x="17.787" y="14.683" color-interpolation-filters="sRGB" filterUnits="userSpaceOnUse"><feFlood flood-opacity="0" result="BackgroundImageFix"/><feBlend in="SourceGraphic" in2="BackgroundImageFix" result="shape"/><feGaussianBlur result="effect1_foregroundBlur_4002_2537" stdDeviation=".125"/></filter><filter id="astronaut-medium_svg__aM" width="6.686" height="4.857" x="16.37" y="13.7" color-interpolation-filters="sRGB" filterUnits="userSpaceOnUse"><feFlood flood-opacity="0" result="BackgroundImageFix"/><feBlend in="SourceGraphic" in2="BackgroundImageFix" result="shape"/><feColorMatrix in="SourceAlpha" result="hardAlpha" values="0 0 0 0 0 0 0 0 0 0 0 0 0 0 0 0 0 0 127 0"/><feOffset dx=".05" dy=".05"/><feGaussianBlur stdDeviation=".2"/><feComposite in2="hardAlpha" k2="-1" k3="1" operator="arithmetic"/><feColorMatrix values="0 0 0 0 0.533333 0 0 0 0 0.486275 0 0 0 0 0.498039 0 0 0 1 0"/><feBlend in2="shape" result="effect1_innerShadow_4002_2537"/></filter></defs></svg>