<svg width="32" height="32" fill="none" xmlns="http://www.w3.org/2000/svg"><g filter="url(#a)"><rect x="2.066" y="2.063" width="27.875" height="27.875" rx="3.6" fill="url(#b)"/><rect x="2.066" y="2.063" width="27.875" height="27.875" rx="3.6" fill="url(#c)"/></g><g filter="url(#d)"><path d="M28.253 4.563v22.875" stroke="url(#e)" stroke-width="1.5" stroke-linecap="round"/></g><g filter="url(#f)"><path d="M5.53 3.875H27.31" stroke="url(#g)" stroke-width="1.5" stroke-linecap="round"/></g><g filter="url(#h)"><path fill-rule="evenodd" clip-rule="evenodd" d="M9.915 17.946a.1.1 0 0 1 .09.057l.353.75a.75.75 0 0 0 1.358-.638l-2.472-5.263c-.38-.81-1.535-.803-1.906.012l-2.393 5.26a.75.75 0 0 0 1.365.62l.337-.74a.1.1 0 0 1 .091-.058h3.177Zm-.798-1.5a.1.1 0 0 0 .09-.143l-.815-1.736a.1.1 0 0 0-.181 0l-.79 1.737a.1.1 0 0 0 .09.142h1.606Z" fill="#579FFF"/></g><g filter="url(#i)"><path d="M12.176 12.248a.75.75 0 1 0 0 1.5h1.89a.1.1 0 0 1 .1.1v4.603a.75.75 0 0 0 1.5 0v-4.603a.1.1 0 0 1 .1-.1h1.89a.75.75 0 0 0 0-1.5h-5.48Z" fill="#579FFF"/></g><g filter="url(#j)"><path fill-rule="evenodd" clip-rule="evenodd" d="M20.194 12.3a.75.75 0 0 1 .825.193l2.27 2.485a.1.1 0 0 0 .146.002l2.396-2.5a.75.75 0 0 1 1.292.519v5.454a.75.75 0 0 1-1.5 0v-3.339a.1.1 0 0 0-.173-.07l-1.56 1.63a.75.75 0 0 1-1.096-.013l-1.405-1.539a.1.1 0 0 0-.174.068v3.263a.75.75 0 0 1-1.5 0v-5.454c0-.31.19-.588.479-.7Z" fill="#579FFF"/></g><g filter="url(#k)"><path fill-rule="evenodd" clip-rule="evenodd" d="M9.915 17.946a.1.1 0 0 1 .09.057l.353.75a.75.75 0 0 0 1.358-.638l-2.472-5.263c-.38-.81-1.535-.803-1.906.012l-2.393 5.26a.75.75 0 0 0 1.365.62l.337-.74a.1.1 0 0 1 .091-.058h3.177Zm-.798-1.5a.1.1 0 0 0 .09-.143l-.815-1.736a.1.1 0 0 0-.181 0l-.79 1.737a.1.1 0 0 0 .09.142h1.606Z" fill="#E3DFEB"/></g><g filter="url(#l)"><path d="M12.176 12.248a.75.75 0 1 0 0 1.5h1.89a.1.1 0 0 1 .1.1v4.603a.75.75 0 0 0 1.5 0v-4.603a.1.1 0 0 1 .1-.1h1.89a.75.75 0 0 0 0-1.5h-5.48Z" fill="#E3DFEB"/></g><g filter="url(#m)"><path fill-rule="evenodd" clip-rule="evenodd" d="M20.194 12.3a.75.75 0 0 1 .825.193l2.27 2.485a.1.1 0 0 0 .146.002l2.396-2.5a.75.75 0 0 1 1.292.519v5.454a.75.75 0 0 1-1.5 0v-3.339a.1.1 0 0 0-.173-.07l-1.56 1.63a.75.75 0 0 1-1.096-.013l-1.405-1.539a.1.1 0 0 0-.174.068v3.263a.75.75 0 0 1-1.5 0v-5.454c0-.31.19-.588.479-.7Z" fill="#E3DFEB"/></g><defs><filter id="a" x="2.066" y="1.063" width="28.875" height="28.875" filterUnits="userSpaceOnUse" color-interpolation-filters="sRGB"><feFlood flood-opacity="0" result="BackgroundImageFix"/><feBlend in="SourceGraphic" in2="BackgroundImageFix" result="shape"/><feColorMatrix in="SourceAlpha" values="0 0 0 0 0 0 0 0 0 0 0 0 0 0 0 0 0 0 127 0" result="hardAlpha"/><feOffset dx="1" dy="-1"/><feGaussianBlur stdDeviation="1.5"/><feComposite in2="hardAlpha" operator="arithmetic" k2="-1" k3="1"/><feColorMatrix values="0 0 0 0 0.188235 0 0 0 0 0.470588 0 0 0 0 0.843137 0 0 0 1 0"/><feBlend in2="shape" result="effect1_innerShadow_18590_346"/><feColorMatrix in="SourceAlpha" values="0 0 0 0 0 0 0 0 0 0 0 0 0 0 0 0 0 0 127 0" result="hardAlpha"/><feOffset dy="-1"/><feGaussianBlur stdDeviation="1.5"/><feComposite in2="hardAlpha" operator="arithmetic" k2="-1" k3="1"/><feColorMatrix values="0 0 0 0 0.27451 0 0 0 0 0.34902 0 0 0 0 0.8 0 0 0 1 0"/><feBlend in2="effect1_innerShadow_18590_346" result="effect2_innerShadow_18590_346"/></filter><filter id="d" x="25.503" y="1.813" width="5.5" height="28.375" filterUnits="userSpaceOnUse" color-interpolation-filters="sRGB"><feFlood flood-opacity="0" result="BackgroundImageFix"/><feBlend in="SourceGraphic" in2="BackgroundImageFix" result="shape"/><feGaussianBlur stdDeviation="1" result="effect1_foregroundBlur_18590_346"/></filter><filter id="f" x="2.78" y="1.125" width="27.281" height="5.5" filterUnits="userSpaceOnUse" color-interpolation-filters="sRGB"><feFlood flood-opacity="0" result="BackgroundImageFix"/><feBlend in="SourceGraphic" in2="BackgroundImageFix" result="shape"/><feGaussianBlur stdDeviation="1" result="effect1_foregroundBlur_18590_346"/></filter><filter id="h" x="3.877" y="11.248" width="8.91" height="8.936" filterUnits="userSpaceOnUse" color-interpolation-filters="sRGB"><feFlood flood-opacity="0" result="BackgroundImageFix"/><feBlend in="SourceGraphic" in2="BackgroundImageFix" result="shape"/><feGaussianBlur stdDeviation=".5" result="effect1_foregroundBlur_18590_346"/></filter><filter id="i" x="10.426" y="11.248" width="8.98" height="8.952" filterUnits="userSpaceOnUse" color-interpolation-filters="sRGB"><feFlood flood-opacity="0" result="BackgroundImageFix"/><feBlend in="SourceGraphic" in2="BackgroundImageFix" result="shape"/><feGaussianBlur stdDeviation=".5" result="effect1_foregroundBlur_18590_346"/></filter><filter id="j" x="18.715" y="11.248" width="9.407" height="8.954" filterUnits="userSpaceOnUse" color-interpolation-filters="sRGB"><feFlood flood-opacity="0" result="BackgroundImageFix"/><feBlend in="SourceGraphic" in2="BackgroundImageFix" result="shape"/><feGaussianBlur stdDeviation=".5" result="effect1_foregroundBlur_18590_346"/></filter><filter id="k" x="4.477" y="12.248" width="7.31" height="7.336" filterUnits="userSpaceOnUse" color-interpolation-filters="sRGB"><feFlood flood-opacity="0" result="BackgroundImageFix"/><feBlend in="SourceGraphic" in2="BackgroundImageFix" result="shape"/><feColorMatrix in="SourceAlpha" values="0 0 0 0 0 0 0 0 0 0 0 0 0 0 0 0 0 0 127 0" result="hardAlpha"/><feOffset dx="-.4" dy=".4"/><feGaussianBlur stdDeviation=".375"/><feComposite in2="hardAlpha" operator="arithmetic" k2="-1" k3="1"/><feColorMatrix values="0 0 0 0 0.764706 0 0 0 0 0.741176 0 0 0 0 0.811765 0 0 0 1 0"/><feBlend in2="shape" result="effect1_innerShadow_18590_346"/></filter><filter id="l" x="11.026" y="12.248" width="7.38" height="7.352" filterUnits="userSpaceOnUse" color-interpolation-filters="sRGB"><feFlood flood-opacity="0" result="BackgroundImageFix"/><feBlend in="SourceGraphic" in2="BackgroundImageFix" result="shape"/><feColorMatrix in="SourceAlpha" values="0 0 0 0 0 0 0 0 0 0 0 0 0 0 0 0 0 0 127 0" result="hardAlpha"/><feOffset dx="-.4" dy=".4"/><feGaussianBlur stdDeviation=".375"/><feComposite in2="hardAlpha" operator="arithmetic" k2="-1" k3="1"/><feColorMatrix values="0 0 0 0 0.764706 0 0 0 0 0.741176 0 0 0 0 0.811765 0 0 0 1 0"/><feBlend in2="shape" result="effect1_innerShadow_18590_346"/></filter><filter id="m" x="19.315" y="12.248" width="7.807" height="7.354" filterUnits="userSpaceOnUse" color-interpolation-filters="sRGB"><feFlood flood-opacity="0" result="BackgroundImageFix"/><feBlend in="SourceGraphic" in2="BackgroundImageFix" result="shape"/><feColorMatrix in="SourceAlpha" values="0 0 0 0 0 0 0 0 0 0 0 0 0 0 0 0 0 0 127 0" result="hardAlpha"/><feOffset dx="-.4" dy=".4"/><feGaussianBlur stdDeviation=".375"/><feComposite in2="hardAlpha" operator="arithmetic" k2="-1" k3="1"/><feColorMatrix values="0 0 0 0 0.764706 0 0 0 0 0.741176 0 0 0 0 0.811765 0 0 0 1 0"/><feBlend in2="shape" result="effect1_innerShadow_18590_346"/></filter><linearGradient id="b" x1="16.003" y1="5.637" x2="16.003" y2="38.89" gradientUnits="userSpaceOnUse"><stop stop-color="#5CB7FF"/><stop offset="1" stop-color="#4878DD"/></linearGradient><linearGradient id="e" x1="28.753" y1="4.563" x2="28.753" y2="27.438" gradientUnits="userSpaceOnUse"><stop stop-color="#7FD9FF"/><stop offset="1" stop-color="#639DF4"/></linearGradient><linearGradient id="g" x1="28.467" y1="4.125" x2="2.936" y2="4.125" gradientUnits="userSpaceOnUse"><stop stop-color="#7DD8FF"/><stop offset="1" stop-color="#5DB6FF"/></linearGradient><radialGradient id="c" cx="0" cy="0" r="1" gradientUnits="userSpaceOnUse" gradientTransform="matrix(-1.56249 1.46876 -1.71548 -1.82495 27.722 4.156)"><stop stop-color="#7BD7FF"/><stop offset="1" stop-color="#7BD7FF" stop-opacity="0"/></radialGradient></defs></svg>