<svg width="32" height="32" fill="none" xmlns="http://www.w3.org/2000/svg"><g filter="url(#a)"><path d="M15.972 3.516c2.16 0 4.26.37 5.75 1.01 1.25.54 1.72 1.12 1.72 1.36s-.47.82-1.72 1.36c-1.49.64-3.58 1.01-5.75 1.01s-4.26-.36-5.74-1c-1.26-.54-1.72-1.13-1.72-1.37 0-.24.47-.82 1.72-1.36 1.48-.64 3.58-1.01 5.74-1.01Zm0-1.5c-4.95 0-8.96 1.73-8.96 3.87s4.01 3.87 8.97 3.87c4.96 0 8.97-1.73 8.97-3.87s-4.02-3.87-8.98-3.87Z" fill="url(#b)"/><path d="M15.972 3.516c2.16 0 4.26.37 5.75 1.01 1.25.54 1.72 1.12 1.72 1.36s-.47.82-1.72 1.36c-1.49.64-3.58 1.01-5.75 1.01s-4.26-.36-5.74-1c-1.26-.54-1.72-1.13-1.72-1.37 0-.24.47-.82 1.72-1.36 1.48-.64 3.58-1.01 5.74-1.01Zm0-1.5c-4.95 0-8.96 1.73-8.96 3.87s4.01 3.87 8.97 3.87c4.96 0 8.97-1.73 8.97-3.87s-4.02-3.87-8.98-3.87Z" fill="url(#c)"/><path d="M15.972 3.516c2.16 0 4.26.37 5.75 1.01 1.25.54 1.72 1.12 1.72 1.36s-.47.82-1.72 1.36c-1.49.64-3.58 1.01-5.75 1.01s-4.26-.36-5.74-1c-1.26-.54-1.72-1.13-1.72-1.37 0-.24.47-.82 1.72-1.36 1.48-.64 3.58-1.01 5.74-1.01Zm0-1.5c-4.95 0-8.96 1.73-8.96 3.87s4.01 3.87 8.97 3.87c4.96 0 8.97-1.73 8.97-3.87s-4.02-3.87-8.98-3.87Z" fill="url(#d)"/><path d="M15.972 3.516c2.16 0 4.26.37 5.75 1.01 1.25.54 1.72 1.12 1.72 1.36s-.47.82-1.72 1.36c-1.49.64-3.58 1.01-5.75 1.01s-4.26-.36-5.74-1c-1.26-.54-1.72-1.13-1.72-1.37 0-.24.47-.82 1.72-1.36 1.48-.64 3.58-1.01 5.74-1.01Zm0-1.5c-4.95 0-8.96 1.73-8.96 3.87s4.01 3.87 8.97 3.87c4.96 0 8.97-1.73 8.97-3.87s-4.02-3.87-8.98-3.87Z" fill="url(#e)"/><path d="M15.972 3.516c2.16 0 4.26.37 5.75 1.01 1.25.54 1.72 1.12 1.72 1.36s-.47.82-1.72 1.36c-1.49.64-3.58 1.01-5.75 1.01s-4.26-.36-5.74-1c-1.26-.54-1.72-1.13-1.72-1.37 0-.24.47-.82 1.72-1.36 1.48-.64 3.58-1.01 5.74-1.01Zm0-1.5c-4.95 0-8.96 1.73-8.96 3.87s4.01 3.87 8.97 3.87c4.96 0 8.97-1.73 8.97-3.87s-4.02-3.87-8.98-3.87Z" fill="url(#f)"/><path d="M15.972 3.516c2.16 0 4.26.37 5.75 1.01 1.25.54 1.72 1.12 1.72 1.36s-.47.82-1.72 1.36c-1.49.64-3.58 1.01-5.75 1.01s-4.26-.36-5.74-1c-1.26-.54-1.72-1.13-1.72-1.37 0-.24.47-.82 1.72-1.36 1.48-.64 3.58-1.01 5.74-1.01Zm0-1.5c-4.95 0-8.96 1.73-8.96 3.87s4.01 3.87 8.97 3.87c4.96 0 8.97-1.73 8.97-3.87s-4.02-3.87-8.98-3.87Z" fill="url(#g)"/></g><path d="M15.972 3.516c2.16 0 4.26.37 5.75 1.01 1.25.54 1.72 1.12 1.72 1.36s-.47.82-1.72 1.36c-1.49.64-3.58 1.01-5.75 1.01s-4.26-.36-5.74-1c-1.26-.54-1.72-1.13-1.72-1.37 0-.24.47-.82 1.72-1.36 1.48-.64 3.58-1.01 5.74-1.01Zm0-1.5c-4.95 0-8.96 1.73-8.96 3.87s4.01 3.87 8.97 3.87c4.96 0 8.97-1.73 8.97-3.87s-4.02-3.87-8.98-3.87Z" fill="url(#h)"/><path d="M26.855 28.416a.485.485 0 0 0-.485-.485h-5.288v2.039h4.22c.858 0 1.553-.696 1.553-1.554Z" fill="#FDEDEB"/><path d="M26.855 28.416a.485.485 0 0 0-.485-.485h-5.288v2.039h4.22c.858 0 1.553-.696 1.553-1.554Z" fill="url(#i)"/><path d="M26.855 28.416a.485.485 0 0 0-.485-.485h-5.288v2.039h4.22c.858 0 1.553-.696 1.553-1.554Z" fill="url(#j)"/><path d="M26.855 28.416a.485.485 0 0 0-.485-.485h-5.288v2.039h4.22c.858 0 1.553-.696 1.553-1.554Z" fill="url(#k)"/><path d="M26.855 28.416a.485.485 0 0 0-.485-.485h-5.288v2.039h4.22c.858 0 1.553-.696 1.553-1.554Z" fill="url(#l)"/><g filter="url(#m)"><path d="M28.395 26.335a.499.499 0 0 0-.499-.498h-6.814v2.094h5.717c.881 0 1.596-.715 1.596-1.596Z" fill="#FDEDEB"/><path d="M28.395 26.335a.499.499 0 0 0-.499-.498h-6.814v2.094h5.717c.881 0 1.596-.715 1.596-1.596Z" fill="url(#n)"/><path d="M28.395 26.335a.499.499 0 0 0-.499-.498h-6.814v2.094h5.717c.881 0 1.596-.715 1.596-1.596Z" fill="url(#o)"/><path d="M28.395 26.335a.499.499 0 0 0-.499-.498h-6.814v2.094h5.717c.881 0 1.596-.715 1.596-1.596Z" fill="url(#p)"/></g><g filter="url(#q)"><path d="M29.996 24.242a.499.499 0 0 0-.498-.499h-8.416v2.094h7.319c.88 0 1.595-.714 1.595-1.595Z" fill="#FDEDEB"/><path d="M29.996 24.242a.499.499 0 0 0-.498-.499h-8.416v2.094h7.319c.88 0 1.595-.714 1.595-1.595Z" fill="url(#r)"/><path d="M29.996 24.242a.499.499 0 0 0-.498-.499h-8.416v2.094h7.319c.88 0 1.595-.714 1.595-1.595Z" fill="url(#s)"/><path d="M29.996 24.242a.499.499 0 0 0-.498-.499h-8.416v2.094h7.319c.88 0 1.595-.714 1.595-1.595Z" fill="url(#t)"/></g><g filter="url(#u)" transform="matrix(-1 0 0 1 24.129 23.743)"><rect width="3.969" height="6.227" rx="1" fill="#F7E1ED"/><rect width="3.969" height="6.227" rx="1" fill="url(#v)"/></g><g filter="url(#w)"><path d="M5.145 28.416c0-.268.217-.485.485-.485h5.288v2.039h-4.22a1.554 1.554 0 0 1-1.553-1.554Z" fill="#E7CBD7"/><path d="M5.145 28.416c0-.268.217-.485.485-.485h5.288v2.039h-4.22a1.554 1.554 0 0 1-1.553-1.554Z" fill="url(#x)"/><path d="M5.145 28.416c0-.268.217-.485.485-.485h5.288v2.039h-4.22a1.554 1.554 0 0 1-1.553-1.554Z" fill="url(#y)"/></g><g filter="url(#z)"><path d="M3.605 26.335c0-.275.224-.498.499-.498h6.814v2.094H5.201a1.595 1.595 0 0 1-1.596-1.596Z" fill="#E7CBD7"/><path d="M3.605 26.335c0-.275.224-.498.499-.498h6.814v2.094H5.201a1.595 1.595 0 0 1-1.596-1.596Z" fill="url(#A)"/><path d="M3.605 26.335c0-.275.224-.498.499-.498h6.814v2.094H5.201a1.595 1.595 0 0 1-1.596-1.596Z" fill="url(#B)"/></g><path d="M3.605 26.335c0-.275.224-.498.499-.498h6.814v2.094H5.201a1.595 1.595 0 0 1-1.596-1.596Z" fill="url(#C)"/><g filter="url(#D)"><path d="M2.004 24.242c0-.276.223-.499.498-.499h8.416v2.094H3.599a1.595 1.595 0 0 1-1.595-1.595Z" fill="#E7CBD7"/><path d="M2.004 24.242c0-.276.223-.499.498-.499h8.416v2.094H3.599a1.595 1.595 0 0 1-1.595-1.595Z" fill="#F1D2D6"/><path d="M2.004 24.242c0-.276.223-.499.498-.499h8.416v2.094H3.599a1.595 1.595 0 0 1-1.595-1.595Z" fill="url(#E)"/></g><path d="M2.004 24.242c0-.276.223-.499.498-.499h8.416v2.094H3.599a1.595 1.595 0 0 1-1.595-1.595Z" fill="url(#F)"/><g filter="url(#G)"><rect x="7.871" y="23.743" width="3.969" height="6.227" rx="1" fill="url(#H)"/><rect x="7.871" y="23.743" width="3.969" height="6.227" rx="1" fill="url(#I)"/></g><path d="M7.274 23.599a2.998 2.998 0 1 0 0-5.996 2.998 2.998 0 0 0 0 5.996Z" fill="url(#J)"/><path d="M7.274 23.599a2.998 2.998 0 1 0 0-5.996 2.998 2.998 0 0 0 0 5.996Z" fill="url(#K)"/><g filter="url(#L)"><path d="M7.274 22.464a1.863 1.863 0 1 0 0-3.726 1.863 1.863 0 0 0 0 3.726Z" fill="url(#M)"/></g><path d="M24.8 23.599a2.998 2.998 0 1 0 0-5.996 2.998 2.998 0 0 0 0 5.996Z" fill="url(#N)"/><path d="M24.8 23.599a2.998 2.998 0 1 0 0-5.996 2.998 2.998 0 0 0 0 5.996Z" fill="url(#O)"/><path d="M24.8 23.599a2.998 2.998 0 1 0 0-5.996 2.998 2.998 0 0 0 0 5.996Z" fill="url(#P)"/><path d="M24.8 23.599a2.998 2.998 0 1 0 0-5.996 2.998 2.998 0 0 0 0 5.996Z" fill="url(#Q)"/><g filter="url(#R)"><path d="M24.8 22.52a1.92 1.92 0 1 0 0-3.84 1.92 1.92 0 0 0 0 3.84Z" fill="url(#S)"/></g><g filter="url(#T)"><path d="M22.706 7.651A8.177 8.177 0 0 0 17.81 6H14.3c-1.75 0-3.464.581-4.895 1.651-2.438 1.836-3.755 4.89-3.454 8.017l.828 7.482c.273 2.897 2.193 5.332 4.857 6.163 2.88.894 5.958.894 8.839 0 2.663-.83 4.584-3.266 4.857-6.163l.828-7.482c.301-3.127-1.017-6.18-3.454-8.017Z" fill="#C49380"/><path d="M22.706 7.651A8.177 8.177 0 0 0 17.81 6H14.3c-1.75 0-3.464.581-4.895 1.651-2.438 1.836-3.755 4.89-3.454 8.017l.828 7.482c.273 2.897 2.193 5.332 4.857 6.163 2.88.894 5.958.894 8.839 0 2.663-.83 4.584-3.266 4.857-6.163l.828-7.482c.301-3.127-1.017-6.18-3.454-8.017Z" fill="url(#U)"/><path d="M22.706 7.651A8.177 8.177 0 0 0 17.81 6H14.3c-1.75 0-3.464.581-4.895 1.651-2.438 1.836-3.755 4.89-3.454 8.017l.828 7.482c.273 2.897 2.193 5.332 4.857 6.163 2.88.894 5.958.894 8.839 0 2.663-.83 4.584-3.266 4.857-6.163l.828-7.482c.301-3.127-1.017-6.18-3.454-8.017Z" fill="url(#V)"/><path d="M22.706 7.651A8.177 8.177 0 0 0 17.81 6H14.3c-1.75 0-3.464.581-4.895 1.651-2.438 1.836-3.755 4.89-3.454 8.017l.828 7.482c.273 2.897 2.193 5.332 4.857 6.163 2.88.894 5.958.894 8.839 0 2.663-.83 4.584-3.266 4.857-6.163l.828-7.482c.301-3.127-1.017-6.18-3.454-8.017Z" fill="url(#W)"/><path d="M22.706 7.651A8.177 8.177 0 0 0 17.81 6H14.3c-1.75 0-3.464.581-4.895 1.651-2.438 1.836-3.755 4.89-3.454 8.017l.828 7.482c.273 2.897 2.193 5.332 4.857 6.163 2.88.894 5.958.894 8.839 0 2.663-.83 4.584-3.266 4.857-6.163l.828-7.482c.301-3.127-1.017-6.18-3.454-8.017Z" fill="url(#X)"/><path d="M22.706 7.651A8.177 8.177 0 0 0 17.81 6H14.3c-1.75 0-3.464.581-4.895 1.651-2.438 1.836-3.755 4.89-3.454 8.017l.828 7.482c.273 2.897 2.193 5.332 4.857 6.163 2.88.894 5.958.894 8.839 0 2.663-.83 4.584-3.266 4.857-6.163l.828-7.482c.301-3.127-1.017-6.18-3.454-8.017Z" fill="url(#Y)"/><path d="M22.706 7.651A8.177 8.177 0 0 0 17.81 6H14.3c-1.75 0-3.464.581-4.895 1.651-2.438 1.836-3.755 4.89-3.454 8.017l.828 7.482c.273 2.897 2.193 5.332 4.857 6.163 2.88.894 5.958.894 8.839 0 2.663-.83 4.584-3.266 4.857-6.163l.828-7.482c.301-3.127-1.017-6.18-3.454-8.017Z" fill="url(#Z)"/><path d="M22.706 7.651A8.177 8.177 0 0 0 17.81 6H14.3c-1.75 0-3.464.581-4.895 1.651-2.438 1.836-3.755 4.89-3.454 8.017l.828 7.482c.273 2.897 2.193 5.332 4.857 6.163 2.88.894 5.958.894 8.839 0 2.663-.83 4.584-3.266 4.857-6.163l.828-7.482c.301-3.127-1.017-6.18-3.454-8.017Z" fill="url(#aa)"/></g><path d="M22.706 7.651A8.177 8.177 0 0 0 17.81 6H14.3c-1.75 0-3.464.581-4.895 1.651-2.438 1.836-3.755 4.89-3.454 8.017l.828 7.482c.273 2.897 2.193 5.332 4.857 6.163 2.88.894 5.958.894 8.839 0 2.663-.83 4.584-3.266 4.857-6.163l.828-7.482c.301-3.127-1.017-6.18-3.454-8.017Z" fill="url(#ab)"/><g filter="url(#ac)"><path d="M13.291 23.745c-.344-.185-.71.209-.493.542l.063-.04.43-.502Z" stroke="url(#ad)" stroke-width=".15"/></g><g filter="url(#ae)"><path d="M16.03 24.487c-1.02 0-1.975-.25-2.774-.676-.276-.148-.57.167-.395.435a3.774 3.774 0 0 0 3.178 1.741 3.786 3.786 0 0 0 3.178-1.74c.165-.26-.12-.575-.395-.436a6.044 6.044 0 0 1-2.793.676Z" fill="#88014F"/></g><path d="M20.382 18.12a3.176 3.176 0 0 1 3.08 2.407.623.623 0 0 1-.608.775H17.78a.523.523 0 0 1-.516-.618 3.178 3.178 0 0 1 3.118-2.564ZM11.157 18.12a3.176 3.176 0 0 0-3.08 2.407.623.623 0 0 0 .608.775h5.074a.523.523 0 0 0 .516-.618 3.186 3.186 0 0 0-3.118-2.564Z" fill="#fff"/><path d="M19.911 18.738a2.03 2.03 0 0 1 1.956 2.564h-3.92a2.077 2.077 0 0 1-.074-.535c0-1.116.913-2.03 2.038-2.03Z" fill="url(#af)"/><path d="M11.627 18.738a2.03 2.03 0 0 0-1.955 2.564h3.92c.046-.175.074-.35.074-.535a2.043 2.043 0 0 0-2.039-2.03Z" fill="url(#ag)"/><path d="M18.749 20.767c0-.646.517-1.162 1.162-1.162.646 0 1.163.516 1.163 1.162 0 .194-.047.378-.13.535h-2.057a1.05 1.05 0 0 1-.138-.535ZM12.79 20.767c0-.646-.517-1.162-1.162-1.162-.646 0-1.163.516-1.163 1.162 0 .194.046.378.13.535h2.056c.084-.157.139-.341.139-.535Z" fill="#000"/><g filter="url(#ah)"><path d="M10.023 16.293c.544-.194 1.3-.332 2.278-.24" stroke="#472D2C" stroke-miterlimit="10" stroke-linecap="round" stroke-linejoin="round"/></g><g filter="url(#ai)"><path d="M10.073 16.207c.544-.194 1.3-.333 2.278-.24" stroke="url(#aj)" stroke-width=".3" stroke-miterlimit="10" stroke-linecap="round" stroke-linejoin="round"/></g><g filter="url(#ak)"><path d="M21.618 16.293c-.544-.194-1.3-.332-2.279-.24" stroke="#4C3230" stroke-miterlimit="10" stroke-linecap="round" stroke-linejoin="round"/></g><g filter="url(#al)"><path d="M21.618 16.159c-.544-.194-1.3-.333-2.279-.24" stroke="url(#am)" stroke-width=".3" stroke-miterlimit="10" stroke-linecap="round" stroke-linejoin="round"/></g><g filter="url(#an)"><path d="M16.147 5.12c-1.358-.206-2.543-.003-3.312 1.024 1.84 0 4.355 1.128 3.99 3.544a2.738 2.738 0 0 1-.917 1.675.454.454 0 0 0 .372.796 3.572 3.572 0 0 0 2.863-3.021c.275-1.925-1.074-3.727-2.996-4.019Z" fill="url(#ao)"/></g><g filter="url(#ap)"><path d="M15.759 4.227a3.938 3.938 0 0 0-3.506 2.048 7.881 7.881 0 0 1 1.735-.203h.138c1.67 0 3.072 1.365 3.063 3.035a3.013 3.013 0 0 1-.748 1.965.5.5 0 0 0 .526.812 3.932 3.932 0 0 0 2.666-3.727c.01-2.14-1.734-3.902-3.874-3.93Z" fill="#402B29"/><path d="M15.759 4.227a3.938 3.938 0 0 0-3.506 2.048 7.881 7.881 0 0 1 1.735-.203h.138c1.67 0 3.072 1.365 3.063 3.035a3.013 3.013 0 0 1-.748 1.965.5.5 0 0 0 .526.812 3.932 3.932 0 0 0 2.666-3.727c.01-2.14-1.734-3.902-3.874-3.93Z" fill="url(#aq)"/><path d="M15.759 4.227a3.938 3.938 0 0 0-3.506 2.048 7.881 7.881 0 0 1 1.735-.203h.138c1.67 0 3.072 1.365 3.063 3.035a3.013 3.013 0 0 1-.748 1.965.5.5 0 0 0 .526.812 3.932 3.932 0 0 0 2.666-3.727c.01-2.14-1.734-3.902-3.874-3.93Z" fill="url(#ar)"/><path d="M15.759 4.227a3.938 3.938 0 0 0-3.506 2.048 7.881 7.881 0 0 1 1.735-.203h.138c1.67 0 3.072 1.365 3.063 3.035a3.013 3.013 0 0 1-.748 1.965.5.5 0 0 0 .526.812 3.932 3.932 0 0 0 2.666-3.727c.01-2.14-1.734-3.902-3.874-3.93Z" fill="url(#as)"/><path d="M15.759 4.227a3.938 3.938 0 0 0-3.506 2.048 7.881 7.881 0 0 1 1.735-.203h.138c1.67 0 3.072 1.365 3.063 3.035a3.013 3.013 0 0 1-.748 1.965.5.5 0 0 0 .526.812 3.932 3.932 0 0 0 2.666-3.727c.01-2.14-1.734-3.902-3.874-3.93Z" fill="url(#at)"/></g><g filter="url(#au)"><path d="M15.917 23.599c.47 0 .89-.26 1.129-.648.22-.356-.01-.831-.41-.831h-1.44c-.399 0-.639.485-.409.83.24.4.66.649 1.13.649Z" fill="#905966"/></g><g filter="url(#av)"><path d="M16.04 23.276c.469 0 .889-.26 1.129-.648.22-.356-.01-.831-.41-.831h-1.44c-.4 0-.64.486-.41.831.24.4.66.648 1.13.648Z" fill="url(#aw)"/><path d="M16.04 23.276c.469 0 .889-.26 1.129-.648.22-.356-.01-.831-.41-.831h-1.44c-.4 0-.64.486-.41.831.24.4.66.648 1.13.648Z" fill="url(#ax)"/></g><g filter="url(#ay)"><path d="M19.762 19.167c.145.193-.158.429-.501.686-.344.256-.599.437-.743.244-.145-.193.016-.558.36-.815.344-.257.74-.309.884-.115Z" fill="#C7A7A3"/><path d="M19.762 19.167c.145.193-.158.429-.501.686-.344.256-.599.437-.743.244-.145-.193.016-.558.36-.815.344-.257.74-.309.884-.115Z" fill="url(#az)"/></g><g filter="url(#aA)"><path d="M21.719 20.5a1.91 1.91 0 0 0-.526-1.052l-.591.648.267.519.85-.115Z" fill="url(#aB)"/></g><g filter="url(#aC)"><path d="M13.482 20.529c0-.656-.534-1.093-.678-1.226l-.656.635.404.821.93-.23Z" fill="url(#aD)"/></g><g filter="url(#aE)" transform="rotate(-27.914 11.015 19.605)"><ellipse cx="11.015" cy="19.605" rx=".886" ry=".448" fill="#C7A7A3" fill-opacity=".9"/><ellipse cx="11.015" cy="19.605" rx=".886" ry=".448" fill="url(#aF)"/></g><g filter="url(#aG)"><path d="m18.205 10.783 4.023-2.145c2.557 1.845 2.673 5.179 2.557 6.082l-5.084.692a2.471 2.471 0 0 1-1.496-4.629Z" fill="url(#aH)"/></g><defs><radialGradient id="b" cx="0" cy="0" r="1" gradientUnits="userSpaceOnUse" gradientTransform="matrix(-.75003 3.6875 -9.72121 -1.97727 20.936 3.298)"><stop stop-color="#4DE2FF"/><stop offset="1" stop-color="#33AED4"/></radialGradient><radialGradient id="c" cx="0" cy="0" r="1" gradientUnits="userSpaceOnUse" gradientTransform="matrix(2.8125 -4.40625 8.96895 5.72486 8.562 7.33)"><stop stop-color="#3D8DB9"/><stop offset="1" stop-color="#3D8DB9" stop-opacity="0"/></radialGradient><radialGradient id="d" cx="0" cy="0" r="1" gradientUnits="userSpaceOnUse" gradientTransform="matrix(1.34375 1.46875 -1.11569 1.02074 9.827 6.892)"><stop offset=".158" stop-color="#5BBFD1"/><stop offset="1" stop-color="#5BBFD1" stop-opacity="0"/></radialGradient><radialGradient id="e" cx="0" cy="0" r="1" gradientUnits="userSpaceOnUse" gradientTransform="matrix(-1.03125 -.98438 .58816 -.61616 10.327 7.345)"><stop stop-color="#47C2D5"/><stop offset="1" stop-color="#47C2D5" stop-opacity="0"/></radialGradient><radialGradient id="f" cx="0" cy="0" r="1" gradientUnits="userSpaceOnUse" gradientTransform="matrix(-2.6875 1.85939 -1.34213 -1.93987 23.265 7.688)"><stop offset=".21" stop-color="#4997C1"/><stop offset="1" stop-color="#4997C1" stop-opacity="0"/></radialGradient><radialGradient id="g" cx="0" cy="0" r="1" gradientUnits="userSpaceOnUse" gradientTransform="matrix(-1.1875 .84375 -.60903 -.85715 22.593 6.58)"><stop offset=".21" stop-color="#439FB2"/><stop offset="1" stop-color="#439FB2" stop-opacity="0"/></radialGradient><radialGradient id="h" cx="0" cy="0" r="1" gradientUnits="userSpaceOnUse" gradientTransform="matrix(-1.93752 -7.271 18.54198 -4.94092 11.718 9.756)"><stop offset=".879" stop-color="#43ACC0" stop-opacity="0"/><stop offset="1" stop-color="#43ACC0"/></radialGradient><radialGradient id="j" cx="0" cy="0" r="1" gradientUnits="userSpaceOnUse" gradientTransform="matrix(.6072 2.64774 -4.70572 1.07914 25.39 27.543)"><stop offset=".67" stop-color="#CEBFD0" stop-opacity="0"/><stop offset=".891" stop-color="#A797B5"/></radialGradient><radialGradient id="k" cx="0" cy="0" r="1" gradientUnits="userSpaceOnUse" gradientTransform="matrix(-.52434 .60868 -.33593 -.28939 26.855 28.045)"><stop offset=".201" stop-color="#fff"/><stop offset="1" stop-color="#F7F1F1" stop-opacity="0"/></radialGradient><radialGradient id="o" cx="0" cy="0" r="1" gradientUnits="userSpaceOnUse" gradientTransform="rotate(74.205 -3.547 30.263) scale(2.82543 6.03673)"><stop offset=".67" stop-color="#CEBFD0" stop-opacity="0"/><stop offset=".891" stop-color="#A797B5"/></radialGradient><radialGradient id="p" cx="0" cy="0" r="1" gradientUnits="userSpaceOnUse" gradientTransform="matrix(-.66412 .625 -.34814 -.36993 28.395 25.954)"><stop offset=".201" stop-color="#fff"/><stop offset="1" stop-color="#F7F1F1" stop-opacity="0"/></radialGradient><radialGradient id="s" cx="0" cy="0" r="1" gradientUnits="userSpaceOnUse" gradientTransform="matrix(.9375 2.71875 -6.83491 2.35687 27.733 23.345)"><stop offset=".699" stop-color="#CEBFD0" stop-opacity="0"/><stop offset=".922" stop-color="#A89BB4"/></radialGradient><radialGradient id="t" cx="0" cy="0" r="1" gradientUnits="userSpaceOnUse" gradientTransform="matrix(-.80957 .625 -.33743 -.43707 29.996 23.86)"><stop offset=".201" stop-color="#fff"/><stop offset="1" stop-color="#F7F1F1" stop-opacity="0"/></radialGradient><radialGradient id="x" cx="0" cy="0" r="1" gradientUnits="userSpaceOnUse" gradientTransform="matrix(-.6875 1.73438 -1.37456 -.54486 8.812 28.517)"><stop offset=".308" stop-color="#AF9ABA"/><stop offset="1" stop-color="#AF9ABA" stop-opacity="0"/></radialGradient><radialGradient id="y" cx="0" cy="0" r="1" gradientUnits="userSpaceOnUse" gradientTransform="matrix(.54687 -2.21094 5.39927 1.3355 6.765 30.142)"><stop offset=".513" stop-color="#E7CBD8" stop-opacity="0"/><stop offset="1" stop-color="#BFA9AD"/></radialGradient><radialGradient id="A" cx="0" cy="0" r="1" gradientUnits="userSpaceOnUse" gradientTransform="matrix(-.8125 2.25 -2.22312 -.80279 8.78 26.235)"><stop offset=".308" stop-color="#CFB6BB"/><stop offset="1" stop-color="#CFB6BB" stop-opacity="0"/></radialGradient><radialGradient id="B" cx="0" cy="0" r="1" gradientUnits="userSpaceOnUse" gradientTransform="matrix(.84155 -2.27023 6.63898 2.461 5.657 28.107)"><stop offset=".624" stop-color="#D3B6B4" stop-opacity="0"/><stop offset="1" stop-color="#D3B6B4"/></radialGradient><radialGradient id="C" cx="0" cy="0" r="1" gradientUnits="userSpaceOnUse" gradientTransform="matrix(-1.0827 3.1875 -5.20641 -1.76845 5.832 25.235)"><stop offset=".701" stop-color="#B0A1BB" stop-opacity="0"/><stop offset=".986" stop-color="#B0A1BB"/></radialGradient><radialGradient id="F" cx="0" cy="0" r="1" gradientUnits="userSpaceOnUse" gradientTransform="matrix(-1.21875 3.46875 -6.65848 -2.33947 4.718 23.142)"><stop offset=".701" stop-color="#B0A1BB" stop-opacity="0"/><stop offset=".986" stop-color="#B0A1BB"/></radialGradient><radialGradient id="H" cx="0" cy="0" r="1" gradientUnits="userSpaceOnUse" gradientTransform="rotate(122.4 -2.433 16.416) scale(1.9246 3.13561)"><stop stop-color="#D7B5CA"/><stop offset="1" stop-color="#DCBDC9"/></radialGradient><radialGradient id="K" cx="0" cy="0" r="1" gradientUnits="userSpaceOnUse" gradientTransform="rotate(176.967 3.362 10.483) scale(3.26919 3.39952)"><stop offset=".795" stop-color="#9D7668" stop-opacity="0"/><stop offset="1" stop-color="#9D7668"/></radialGradient><radialGradient id="M" cx="0" cy="0" r="1" gradientUnits="userSpaceOnUse" gradientTransform="rotate(90 -6.663 13.937) scale(1.86302)"><stop stop-color="#744C4D"/><stop offset="1" stop-color="#744745"/></radialGradient><radialGradient id="O" cx="0" cy="0" r="1" gradientUnits="userSpaceOnUse" gradientTransform="matrix(-.07207 4.35281 -4.1715 -.06906 25.12 19.505)"><stop offset=".766" stop-color="#935977" stop-opacity="0"/><stop offset="1" stop-color="#935977"/></radialGradient><radialGradient id="P" cx="0" cy="0" r="1" gradientUnits="userSpaceOnUse" gradientTransform="matrix(1.7049 -1.91697 1.89165 1.68238 25.12 20.226)"><stop offset=".586" stop-color="#9B6859"/><stop offset=".883" stop-color="#9B6859" stop-opacity="0"/></radialGradient><radialGradient id="Q" cx="0" cy="0" r="1" gradientUnits="userSpaceOnUse" gradientTransform="matrix(.7495 -3.51684 2.76171 .58856 25.297 21.422)"><stop offset=".879" stop-color="#BC987A" stop-opacity="0"/><stop offset="1" stop-color="#BC987A"/></radialGradient><radialGradient id="S" cx="0" cy="0" r="1" gradientUnits="userSpaceOnUse" gradientTransform="matrix(1.36927 .2162 -.31963 2.0243 25.427 20.745)"><stop offset=".55" stop-color="#B08471"/><stop offset="1" stop-color="#7B4941"/><stop offset="1" stop-color="#9D6959"/></radialGradient><radialGradient id="W" cx="0" cy="0" r="1" gradientUnits="userSpaceOnUse" gradientTransform="matrix(1.26837 9.2245 -2.81258 .38673 6.229 20.428)"><stop stop-color="#9C7469"/><stop offset="1" stop-color="#9C7469" stop-opacity="0"/></radialGradient><radialGradient id="X" cx="0" cy="0" r="1" gradientUnits="userSpaceOnUse" gradientTransform="matrix(-1.15306 -11.9919 18.81691 -1.80931 11.13 29.984)"><stop offset=".109" stop-color="#935C6F"/><stop offset="1" stop-color="#935C6F" stop-opacity="0"/></radialGradient><radialGradient id="Y" cx="0" cy="0" r="1" gradientUnits="userSpaceOnUse" gradientTransform="rotate(-61.821 21.8 .165) scale(2.74701 3.66268)"><stop offset=".189" stop-color="#8E5A67"/><stop offset="1" stop-color="#8E5A67" stop-opacity="0"/></radialGradient><radialGradient id="Z" cx="0" cy="0" r="1" gradientUnits="userSpaceOnUse" gradientTransform="rotate(-79.579 22.163 -2.764) scale(2.54997 2.98566)"><stop offset=".235" stop-color="#AD7974"/><stop offset="1" stop-color="#AD7974" stop-opacity="0"/></radialGradient><radialGradient id="aa" cx="0" cy="0" r="1" gradientUnits="userSpaceOnUse" gradientTransform="matrix(0 3.34388 -5.44822 0 22.804 20.86)"><stop stop-color="#C5977D"/><stop offset="1" stop-color="#C5977D" stop-opacity="0"/></radialGradient><radialGradient id="af" cx="0" cy="0" r="1" gradientUnits="userSpaceOnUse" gradientTransform="matrix(0 1.8449 -2.93452 0 19.907 19.822)"><stop offset=".802" stop-color="#835A50"/><stop offset="1" stop-color="#694B43"/><stop offset="1" stop-color="#6F4B49"/></radialGradient><radialGradient id="ag" cx="0" cy="0" r="1" gradientUnits="userSpaceOnUse" gradientTransform="matrix(0 1.8449 -2.93452 0 11.632 19.822)"><stop offset=".802" stop-color="#835A50"/><stop offset="1" stop-color="#694B43"/><stop offset="1" stop-color="#6F4B49"/></radialGradient><radialGradient id="aq" cx="0" cy="0" r="1" gradientUnits="userSpaceOnUse" gradientTransform="matrix(7.21511 -1.40763 1.17428 6.01902 12.253 8.263)"><stop offset=".826" stop-color="#584444" stop-opacity="0"/><stop offset="1" stop-color="#584444"/></radialGradient><radialGradient id="ar" cx="0" cy="0" r="1" gradientUnits="userSpaceOnUse" gradientTransform="matrix(5.65011 -2.47909 2.39367 5.45545 12.253 8.753)"><stop offset=".719" stop-color="#483431"/><stop offset=".912" stop-color="#483431" stop-opacity="0"/></radialGradient><radialGradient id="as" cx="0" cy="0" r="1" gradientUnits="userSpaceOnUse" gradientTransform="rotate(-122.764 11.02 .437) scale(6.20054 6.39267)"><stop offset=".825" stop-color="#3E3431" stop-opacity="0"/><stop offset="1" stop-color="#3E3431"/></radialGradient><radialGradient id="at" cx="0" cy="0" r="1" gradientUnits="userSpaceOnUse" gradientTransform="matrix(2.825 4.49695 -4.31925 2.71337 15.28 6.994)"><stop offset=".862" stop-color="#3B212B" stop-opacity="0"/><stop offset=".966" stop-color="#3B212B"/></radialGradient><radialGradient id="aw" cx="0" cy="0" r="1" gradientUnits="userSpaceOnUse" gradientTransform="rotate(1.409 -901.74 634.429) scale(1.75895 .90951)"><stop offset=".468" stop-color="#AA816E"/><stop offset="1" stop-color="#CA9F87"/></radialGradient><radialGradient id="ax" cx="0" cy="0" r="1" gradientUnits="userSpaceOnUse" gradientTransform="matrix(0 1.31161 -1.65549 0 16.037 21.797)"><stop offset=".559" stop-color="#96596F" stop-opacity="0"/><stop offset="1" stop-color="#96596F"/></radialGradient><radialGradient id="az" cx="0" cy="0" r="1" gradientUnits="userSpaceOnUse" gradientTransform="matrix(-.52737 -.67959 .93563 -.72606 19.388 20.014)"><stop offset=".766" stop-color="#FFE6E2" stop-opacity="0"/><stop offset=".966" stop-color="#FFE6E2"/></radialGradient><radialGradient id="aF" cx="0" cy="0" r="1" gradientUnits="userSpaceOnUse" gradientTransform="rotate(-90.897 15.493 4.755) scale(1.1236 1.35062)"><stop offset=".766" stop-color="#FFE6E2" stop-opacity="0"/><stop offset=".966" stop-color="#FFE6E2"/></radialGradient><filter id="a" x="7.011" y="1.816" width="17.94" height="7.94" filterUnits="userSpaceOnUse" color-interpolation-filters="sRGB"><feFlood flood-opacity="0" result="BackgroundImageFix"/><feBlend in="SourceGraphic" in2="BackgroundImageFix" result="shape"/><feColorMatrix in="SourceAlpha" values="0 0 0 0 0 0 0 0 0 0 0 0 0 0 0 0 0 0 127 0" result="hardAlpha"/><feOffset dy="-.2"/><feGaussianBlur stdDeviation=".3"/><feComposite in2="hardAlpha" operator="arithmetic" k2="-1" k3="1"/><feColorMatrix values="0 0 0 0 0.298039 0 0 0 0 0.596078 0 0 0 0 0.72549 0 0 0 1 0"/><feBlend in2="shape" result="effect1_innerShadow_3987_22282"/></filter><filter id="m" x="20.982" y="25.837" width="7.412" height="2.194" filterUnits="userSpaceOnUse" color-interpolation-filters="sRGB"><feFlood flood-opacity="0" result="BackgroundImageFix"/><feBlend in="SourceGraphic" in2="BackgroundImageFix" result="shape"/><feColorMatrix in="SourceAlpha" values="0 0 0 0 0 0 0 0 0 0 0 0 0 0 0 0 0 0 127 0" result="hardAlpha"/><feOffset dx="-.1" dy=".1"/><feGaussianBlur stdDeviation=".2"/><feComposite in2="hardAlpha" operator="arithmetic" k2="-1" k3="1"/><feColorMatrix values="0 0 0 0 0.839216 0 0 0 0 0.768627 0 0 0 0 0.729412 0 0 0 1 0"/><feBlend in2="shape" result="effect1_innerShadow_3987_22282"/></filter><filter id="q" x="20.982" y="23.743" width="9.014" height="2.194" filterUnits="userSpaceOnUse" color-interpolation-filters="sRGB"><feFlood flood-opacity="0" result="BackgroundImageFix"/><feBlend in="SourceGraphic" in2="BackgroundImageFix" result="shape"/><feColorMatrix in="SourceAlpha" values="0 0 0 0 0 0 0 0 0 0 0 0 0 0 0 0 0 0 127 0" result="hardAlpha"/><feOffset dx="-.1" dy=".1"/><feGaussianBlur stdDeviation=".2"/><feComposite in2="hardAlpha" operator="arithmetic" k2="-1" k3="1"/><feColorMatrix values="0 0 0 0 0.839216 0 0 0 0 0.768627 0 0 0 0 0.729412 0 0 0 1 0"/><feBlend in2="shape" result="effect1_innerShadow_3987_22282"/></filter><filter id="u" x="20.16" y="23.343" width="4.369" height="6.627" filterUnits="userSpaceOnUse" color-interpolation-filters="sRGB"><feFlood flood-opacity="0" result="BackgroundImageFix"/><feBlend in="SourceGraphic" in2="BackgroundImageFix" result="shape"/><feColorMatrix in="SourceAlpha" values="0 0 0 0 0 0 0 0 0 0 0 0 0 0 0 0 0 0 127 0" result="hardAlpha"/><feOffset dx=".4" dy="-.4"/><feGaussianBlur stdDeviation=".35"/><feComposite in2="hardAlpha" operator="arithmetic" k2="-1" k3="1"/><feColorMatrix values="0 0 0 0 0.639216 0 0 0 0 0.54902 0 0 0 0 0.713726 0 0 0 1 0"/><feBlend in2="shape" result="effect1_innerShadow_3987_22282"/></filter><filter id="w" x="4.645" y="27.531" width="6.273" height="2.439" filterUnits="userSpaceOnUse" color-interpolation-filters="sRGB"><feFlood flood-opacity="0" result="BackgroundImageFix"/><feBlend in="SourceGraphic" in2="BackgroundImageFix" result="shape"/><feColorMatrix in="SourceAlpha" values="0 0 0 0 0 0 0 0 0 0 0 0 0 0 0 0 0 0 127 0" result="hardAlpha"/><feOffset dx="-.5" dy="-.4"/><feGaussianBlur stdDeviation=".375"/><feComposite in2="hardAlpha" operator="arithmetic" k2="-1" k3="1"/><feColorMatrix values="0 0 0 0 0.635294 0 0 0 0 0.541176 0 0 0 0 0.717647 0 0 0 1 0"/><feBlend in2="shape" result="effect1_innerShadow_3987_22282"/></filter><filter id="z" x="3.105" y="25.437" width="7.813" height="2.494" filterUnits="userSpaceOnUse" color-interpolation-filters="sRGB"><feFlood flood-opacity="0" result="BackgroundImageFix"/><feBlend in="SourceGraphic" in2="BackgroundImageFix" result="shape"/><feColorMatrix in="SourceAlpha" values="0 0 0 0 0 0 0 0 0 0 0 0 0 0 0 0 0 0 127 0" result="hardAlpha"/><feOffset dx="-.5" dy="-.4"/><feGaussianBlur stdDeviation=".375"/><feComposite in2="hardAlpha" operator="arithmetic" k2="-1" k3="1"/><feColorMatrix values="0 0 0 0 0.780392 0 0 0 0 0.694118 0 0 0 0 0.776471 0 0 0 1 0"/><feBlend in2="shape" result="effect1_innerShadow_3987_22282"/></filter><filter id="D" x="1.504" y="23.343" width="9.414" height="2.494" filterUnits="userSpaceOnUse" color-interpolation-filters="sRGB"><feFlood flood-opacity="0" result="BackgroundImageFix"/><feBlend in="SourceGraphic" in2="BackgroundImageFix" result="shape"/><feColorMatrix in="SourceAlpha" values="0 0 0 0 0 0 0 0 0 0 0 0 0 0 0 0 0 0 127 0" result="hardAlpha"/><feOffset dx="-.5" dy="-.4"/><feGaussianBlur stdDeviation=".375"/><feComposite in2="hardAlpha" operator="arithmetic" k2="-1" k3="1"/><feColorMatrix values="0 0 0 0 0.780392 0 0 0 0 0.694118 0 0 0 0 0.776471 0 0 0 1 0"/><feBlend in2="shape" result="effect1_innerShadow_3987_22282"/></filter><filter id="G" x="7.471" y="23.343" width="4.369" height="6.627" filterUnits="userSpaceOnUse" color-interpolation-filters="sRGB"><feFlood flood-opacity="0" result="BackgroundImageFix"/><feBlend in="SourceGraphic" in2="BackgroundImageFix" result="shape"/><feColorMatrix in="SourceAlpha" values="0 0 0 0 0 0 0 0 0 0 0 0 0 0 0 0 0 0 127 0" result="hardAlpha"/><feOffset dx="-.4" dy="-.4"/><feGaussianBlur stdDeviation=".35"/><feComposite in2="hardAlpha" operator="arithmetic" k2="-1" k3="1"/><feColorMatrix values="0 0 0 0 0.67451 0 0 0 0 0.54902 0 0 0 0 0.709804 0 0 0 1 0"/><feBlend in2="shape" result="effect1_innerShadow_3987_22282"/></filter><filter id="L" x="5.161" y="18.488" width="4.226" height="4.226" filterUnits="userSpaceOnUse" color-interpolation-filters="sRGB"><feFlood flood-opacity="0" result="BackgroundImageFix"/><feBlend in="SourceGraphic" in2="BackgroundImageFix" result="shape"/><feGaussianBlur stdDeviation=".125" result="effect1_foregroundBlur_3987_22282"/></filter><filter id="R" x="22.63" y="18.431" width="4.34" height="4.34" filterUnits="userSpaceOnUse" color-interpolation-filters="sRGB"><feFlood flood-opacity="0" result="BackgroundImageFix"/><feBlend in="SourceGraphic" in2="BackgroundImageFix" result="shape"/><feGaussianBlur stdDeviation=".125" result="effect1_foregroundBlur_3987_22282"/></filter><filter id="T" x="5.508" y="6" width="21.944" height="23.984" filterUnits="userSpaceOnUse" color-interpolation-filters="sRGB"><feFlood flood-opacity="0" result="BackgroundImageFix"/><feBlend in="SourceGraphic" in2="BackgroundImageFix" result="shape"/><feColorMatrix in="SourceAlpha" values="0 0 0 0 0 0 0 0 0 0 0 0 0 0 0 0 0 0 127 0" result="hardAlpha"/><feOffset dx="1.25"/><feGaussianBlur stdDeviation="1"/><feComposite in2="hardAlpha" operator="arithmetic" k2="-1" k3="1"/><feColorMatrix values="0 0 0 0 0.607843 0 0 0 0 0.47451 0 0 0 0 0.419608 0 0 0 1 0"/><feBlend in2="shape" result="effect1_innerShadow_3987_22282"/><feColorMatrix in="SourceAlpha" values="0 0 0 0 0 0 0 0 0 0 0 0 0 0 0 0 0 0 127 0" result="hardAlpha"/><feOffset dx="-.4"/><feGaussianBlur stdDeviation=".6"/><feComposite in2="hardAlpha" operator="arithmetic" k2="-1" k3="1"/><feColorMatrix values="0 0 0 0 0.780392 0 0 0 0 0.643137 0 0 0 0 0.541176 0 0 0 1 0"/><feBlend in2="effect1_innerShadow_3987_22282" result="effect2_innerShadow_3987_22282"/></filter><filter id="ac" x="12.557" y="23.522" width="6.959" height="2.715" filterUnits="userSpaceOnUse" color-interpolation-filters="sRGB"><feFlood flood-opacity="0" result="BackgroundImageFix"/><feBlend in="SourceGraphic" in2="BackgroundImageFix" result="shape"/><feGaussianBlur stdDeviation=".05" result="effect1_foregroundBlur_3987_22282"/></filter><filter id="ae" x="12.808" y="23.773" width="6.457" height="2.214" filterUnits="userSpaceOnUse" color-interpolation-filters="sRGB"><feFlood flood-opacity="0" result="BackgroundImageFix"/><feBlend in="SourceGraphic" in2="BackgroundImageFix" result="shape"/><feColorMatrix in="SourceAlpha" values="0 0 0 0 0 0 0 0 0 0 0 0 0 0 0 0 0 0 127 0" result="hardAlpha"/><feOffset/><feGaussianBlur stdDeviation=".5"/><feComposite in2="hardAlpha" operator="arithmetic" k2="-1" k3="1"/><feColorMatrix values="0 0 0 0 0.529412 0 0 0 0 0 0 0 0 0 0.301961 0 0 0 1 0"/><feBlend in2="shape" result="effect1_innerShadow_3987_22282"/></filter><filter id="ah" x="9.522" y="15.224" width="3.529" height="1.569" filterUnits="userSpaceOnUse" color-interpolation-filters="sRGB"><feFlood flood-opacity="0" result="BackgroundImageFix"/><feBlend in="SourceGraphic" in2="BackgroundImageFix" result="shape"/><feColorMatrix in="SourceAlpha" values="0 0 0 0 0 0 0 0 0 0 0 0 0 0 0 0 0 0 127 0" result="hardAlpha"/><feOffset dx=".25" dy="-.3"/><feGaussianBlur stdDeviation=".25"/><feComposite in2="hardAlpha" operator="arithmetic" k2="-1" k3="1"/><feColorMatrix values="0 0 0 0 0.239216 0 0 0 0 0.121569 0 0 0 0 0.196078 0 0 0 1 0"/><feBlend in2="shape" result="effect1_innerShadow_3987_22282"/></filter><filter id="ai" x="9.723" y="15.588" width="2.979" height=".969" filterUnits="userSpaceOnUse" color-interpolation-filters="sRGB"><feFlood flood-opacity="0" result="BackgroundImageFix"/><feBlend in="SourceGraphic" in2="BackgroundImageFix" result="shape"/><feGaussianBlur stdDeviation=".1" result="effect1_foregroundBlur_3987_22282"/></filter><filter id="ak" x="18.589" y="15.224" width="3.529" height="1.569" filterUnits="userSpaceOnUse" color-interpolation-filters="sRGB"><feFlood flood-opacity="0" result="BackgroundImageFix"/><feBlend in="SourceGraphic" in2="BackgroundImageFix" result="shape"/><feColorMatrix in="SourceAlpha" values="0 0 0 0 0 0 0 0 0 0 0 0 0 0 0 0 0 0 127 0" result="hardAlpha"/><feOffset dx="-.25" dy="-.3"/><feGaussianBlur stdDeviation=".25"/><feComposite in2="hardAlpha" operator="arithmetic" k2="-1" k3="1"/><feColorMatrix values="0 0 0 0 0.247059 0 0 0 0 0.141176 0 0 0 0 0.176471 0 0 0 1 0"/><feBlend in2="shape" result="effect1_innerShadow_3987_22282"/></filter><filter id="al" x="18.989" y="15.539" width="2.979" height=".969" filterUnits="userSpaceOnUse" color-interpolation-filters="sRGB"><feFlood flood-opacity="0" result="BackgroundImageFix"/><feBlend in="SourceGraphic" in2="BackgroundImageFix" result="shape"/><feGaussianBlur stdDeviation=".1" result="effect1_foregroundBlur_3987_22282"/></filter><filter id="an" x="12.335" y="4.547" width="7.343" height="8.12" filterUnits="userSpaceOnUse" color-interpolation-filters="sRGB"><feFlood flood-opacity="0" result="BackgroundImageFix"/><feBlend in="SourceGraphic" in2="BackgroundImageFix" result="shape"/><feGaussianBlur stdDeviation=".25" result="effect1_foregroundBlur_3987_22282"/></filter><filter id="ap" x="12.153" y="4.027" width="7.48" height="7.883" filterUnits="userSpaceOnUse" color-interpolation-filters="sRGB"><feFlood flood-opacity="0" result="BackgroundImageFix"/><feBlend in="SourceGraphic" in2="BackgroundImageFix" result="shape"/><feColorMatrix in="SourceAlpha" values="0 0 0 0 0 0 0 0 0 0 0 0 0 0 0 0 0 0 127 0" result="hardAlpha"/><feOffset dx="-.1" dy="-.2"/><feGaussianBlur stdDeviation=".25"/><feComposite in2="hardAlpha" operator="arithmetic" k2="-1" k3="1"/><feColorMatrix values="0 0 0 0 0.188235 0 0 0 0 0.129412 0 0 0 0 0.12549 0 0 0 1 0"/><feBlend in2="shape" result="effect1_innerShadow_3987_22282"/></filter><filter id="au" x="14.197" y="21.62" width="3.434" height="2.479" filterUnits="userSpaceOnUse" color-interpolation-filters="sRGB"><feFlood flood-opacity="0" result="BackgroundImageFix"/><feBlend in="SourceGraphic" in2="BackgroundImageFix" result="shape"/><feGaussianBlur stdDeviation=".25" result="effect1_foregroundBlur_3987_22282"/></filter><filter id="av" x="14.57" y="21.547" width="2.934" height="1.979" filterUnits="userSpaceOnUse" color-interpolation-filters="sRGB"><feFlood flood-opacity="0" result="BackgroundImageFix"/><feBlend in="SourceGraphic" in2="BackgroundImageFix" result="shape"/><feGaussianBlur stdDeviation=".125" result="effect1_foregroundBlur_3987_22282"/></filter><filter id="ay" x="18.365" y="18.95" width="1.534" height="1.329" filterUnits="userSpaceOnUse" color-interpolation-filters="sRGB"><feFlood flood-opacity="0" result="BackgroundImageFix"/><feBlend in="SourceGraphic" in2="BackgroundImageFix" result="shape"/><feGaussianBlur stdDeviation=".05" result="effect1_foregroundBlur_3987_22282"/></filter><filter id="aA" x="20.402" y="19.247" width="1.517" height="1.567" filterUnits="userSpaceOnUse" color-interpolation-filters="sRGB"><feFlood flood-opacity="0" result="BackgroundImageFix"/><feBlend in="SourceGraphic" in2="BackgroundImageFix" result="shape"/><feGaussianBlur stdDeviation=".1" result="effect1_foregroundBlur_3987_22282"/></filter><filter id="aC" x="11.948" y="19.104" width="1.733" height="1.856" filterUnits="userSpaceOnUse" color-interpolation-filters="sRGB"><feFlood flood-opacity="0" result="BackgroundImageFix"/><feBlend in="SourceGraphic" in2="BackgroundImageFix" result="shape"/><feGaussianBlur stdDeviation=".1" result="effect1_foregroundBlur_3987_22282"/></filter><filter id="aE" x="10.104" y="18.931" width="1.821" height="1.347" filterUnits="userSpaceOnUse" color-interpolation-filters="sRGB"><feFlood flood-opacity="0" result="BackgroundImageFix"/><feBlend in="SourceGraphic" in2="BackgroundImageFix" result="shape"/><feGaussianBlur stdDeviation=".05" result="effect1_foregroundBlur_3987_22282"/></filter><filter id="aG" x="14.396" y="6.138" width="12.918" height="11.797" filterUnits="userSpaceOnUse" color-interpolation-filters="sRGB"><feFlood flood-opacity="0" result="BackgroundImageFix"/><feBlend in="SourceGraphic" in2="BackgroundImageFix" result="shape"/><feGaussianBlur stdDeviation="1.25" result="effect1_foregroundBlur_3987_22282"/></filter><linearGradient id="i" x1="24.585" y1="30.192" x2="24.585" y2="28.698" gradientUnits="userSpaceOnUse"><stop offset=".079" stop-color="#9A84AF"/><stop offset="1" stop-color="#C4B7CF" stop-opacity="0"/></linearGradient><linearGradient id="l" x1="24.436" y1="27.931" x2="24.436" y2="28.329" gradientUnits="userSpaceOnUse"><stop stop-color="#CFCACF"/><stop offset="1" stop-color="#FEEEEC" stop-opacity="0"/></linearGradient><linearGradient id="n" x1="25.518" y1="27.931" x2="25.518" y2="26.884" gradientUnits="userSpaceOnUse"><stop offset=".216" stop-color="#C6BEC8"/><stop offset="1" stop-color="#D4C7CD" stop-opacity="0"/></linearGradient><linearGradient id="r" x1="26.49" y1="25.837" x2="26.49" y2="24.79" gradientUnits="userSpaceOnUse"><stop offset=".216" stop-color="#D3C5CF"/><stop offset="1" stop-color="#D4C7CD" stop-opacity="0"/></linearGradient><linearGradient id="v" x1="0" y1="5.398" x2=".958" y2="5.398" gradientUnits="userSpaceOnUse"><stop stop-color="#F6EFF5"/><stop offset="1" stop-color="#F6EFF5" stop-opacity="0"/></linearGradient><linearGradient id="E" x1="6.461" y1="23.743" x2="6.461" y2="24.626" gradientUnits="userSpaceOnUse"><stop stop-color="#CAB1A7"/><stop offset="1" stop-color="#F2D3D7" stop-opacity="0"/></linearGradient><linearGradient id="I" x1="7.871" y1="29.142" x2="9.124" y2="29.142" gradientUnits="userSpaceOnUse"><stop stop-color="#E7D1D9"/><stop offset="1" stop-color="#DAC4CC" stop-opacity="0"/></linearGradient><linearGradient id="J" x1="4.759" y1="18.064" x2="6.921" y2="23.599" gradientUnits="userSpaceOnUse"><stop stop-color="#7C554F"/><stop offset="1" stop-color="#864D67"/></linearGradient><linearGradient id="N" x1="27.459" y1="19.044" x2="25.077" y2="22.907" gradientUnits="userSpaceOnUse"><stop stop-color="#CCA389"/><stop offset="1" stop-color="#AE7E73"/></linearGradient><linearGradient id="U" x1="16.055" y1="30.517" x2="16.055" y2="25.789" gradientUnits="userSpaceOnUse"><stop offset=".195" stop-color="#9A5886"/><stop offset="1" stop-color="#9A5886" stop-opacity="0"/></linearGradient><linearGradient id="V" x1="7.555" y1="18.986" x2="17.932" y2="21.638" gradientUnits="userSpaceOnUse"><stop stop-color="#916F5C"/><stop offset="1" stop-color="#916F5C" stop-opacity="0"/></linearGradient><linearGradient id="ab" x1="16.055" y1="30.517" x2="16.055" y2="27.288" gradientUnits="userSpaceOnUse"><stop offset=".195" stop-color="#985683"/><stop offset="1" stop-color="#9A5886" stop-opacity="0"/></linearGradient><linearGradient id="ad" x1="13.882" y1="25.429" x2="14.343" y2="24.593" gradientUnits="userSpaceOnUse"><stop stop-color="#AB807D"/><stop offset="1" stop-color="#AB807D" stop-opacity="0"/></linearGradient><linearGradient id="aj" x1="12.715" y1="15.83" x2="9.789" y2="16.207" gradientUnits="userSpaceOnUse"><stop stop-color="#543D3E"/><stop offset="1" stop-color="#543D3E" stop-opacity="0"/></linearGradient><linearGradient id="am" x1="21.981" y1="15.782" x2="19.055" y2="16.159" gradientUnits="userSpaceOnUse"><stop stop-color="#543D3E"/><stop offset="1" stop-color="#543D3E" stop-opacity="0"/></linearGradient><linearGradient id="ao" x1="16.335" y1="5.145" x2="15.377" y2="12.058" gradientUnits="userSpaceOnUse"><stop offset=".709" stop-color="#614635"/><stop offset="1" stop-color="#81554E"/></linearGradient><linearGradient id="aB" x1="21.676" y1="19.945" x2="20.962" y2="20.384" gradientUnits="userSpaceOnUse"><stop stop-color="#B4948D"/><stop offset="1" stop-color="#B4948D" stop-opacity="0"/></linearGradient><linearGradient id="aD" x1="13.324" y1="19.945" x2="12.61" y2="20.384" gradientUnits="userSpaceOnUse"><stop stop-color="#B4948D"/><stop offset="1" stop-color="#B4948D" stop-opacity="0"/></linearGradient><linearGradient id="aH" x1="17.579" y1="15.729" x2="26.523" y2="10.338" gradientUnits="userSpaceOnUse"><stop stop-color="#C99F8B"/><stop offset="1" stop-color="#C99F8B" stop-opacity="0"/></linearGradient></defs></svg>