<svg width="32" height="32" fill="none" xmlns="http://www.w3.org/2000/svg"><path d="M15.5 28.438h-1.72l1.2-6h-1.5l-1.2 6h-1.8c-.73 0-1.33.52-1.47 1.21-.04.15.08.29.24.29H16.72c.16 0 .28-.14.25-.29-.14-.69-.74-1.21-1.47-1.21Z" fill="url(#a)"/><path d="M15.5 28.438h-1.72l1.2-6h-1.5l-1.2 6h-1.8c-.73 0-1.33.52-1.47 1.21-.04.15.08.29.24.29H16.72c.16 0 .28-.14.25-.29-.14-.69-.74-1.21-1.47-1.21Z" fill="url(#b)"/><path d="M15.5 28.438h-1.72l1.2-6h-1.5l-1.2 6h-1.8c-.73 0-1.33.52-1.47 1.21-.04.15.08.29.24.29H16.72c.16 0 .28-.14.25-.29-.14-.69-.74-1.21-1.47-1.21Z" fill="url(#c)"/><path d="M15.5 28.438h-1.72l1.2-6h-1.5l-1.2 6h-1.8c-.73 0-1.33.52-1.47 1.21-.04.15.08.29.24.29H16.72c.16 0 .28-.14.25-.29-.14-.69-.74-1.21-1.47-1.21Z" fill="url(#d)"/><path d="M20.55 28.438h-1.78l1.2-6h-1.5l-1.2 6h-1.8c-.73 0-1.33.52-1.47 1.21-.03.15.09.29.25.29H21.78c.16 0 .28-.14.25-.29-.14-.69-.75-1.21-1.48-1.21Z" fill="url(#e)"/><path d="M20.55 28.438h-1.78l1.2-6h-1.5l-1.2 6h-1.8c-.73 0-1.33.52-1.47 1.21-.03.15.09.29.25.29H21.78c.16 0 .28-.14.25-.29-.14-.69-.75-1.21-1.48-1.21Z" fill="url(#f)"/><path d="M20.55 28.438h-1.78l1.2-6h-1.5l-1.2 6h-1.8c-.73 0-1.33.52-1.47 1.21-.03.15.09.29.25.29H21.78c.16 0 .28-.14.25-.29-.14-.69-.75-1.21-1.48-1.21Z" fill="url(#g)"/><path d="M20.55 28.438h-1.78l1.2-6h-1.5l-1.2 6h-1.8c-.73 0-1.33.52-1.47 1.21-.03.15.09.29.25.29H21.78c.16 0 .28-.14.25-.29-.14-.69-.75-1.21-1.48-1.21Z" fill="url(#h)"/><path d="m5.05 8.298-2.72 1.99c-.44.32-.44.97 0 1.29l1.84 1.36.88-4.64Z" fill="url(#i)"/><path d="m5.05 8.298-2.72 1.99c-.44.32-.44.97 0 1.29l1.84 1.36.88-4.64Z" fill="url(#j)"/><path d="m29.03 12.688-9.65-2.53a.963.963 0 0 1-.67-.67 7.473 7.473 0 0 0-7.23-5.55c-4.13 0-7.48 3.35-7.48 7.48v2.52c0 7.18 5.82 13 13 13s13-5.82 13-13c0-.59-.4-1.1-.97-1.25Z" fill="url(#k)"/><path d="m29.03 12.688-9.65-2.53a.963.963 0 0 1-.67-.67 7.473 7.473 0 0 0-7.23-5.55c-4.13 0-7.48 3.35-7.48 7.48v2.52c0 7.18 5.82 13 13 13s13-5.82 13-13c0-.59-.4-1.1-.97-1.25Z" fill="url(#l)"/><path d="m29.03 12.688-9.65-2.53a.963.963 0 0 1-.67-.67 7.473 7.473 0 0 0-7.23-5.55c-4.13 0-7.48 3.35-7.48 7.48v2.52c0 7.18 5.82 13 13 13s13-5.82 13-13c0-.59-.4-1.1-.97-1.25Z" fill="url(#m)"/><path d="m29.03 12.688-9.65-2.53a.963.963 0 0 1-.67-.67 7.473 7.473 0 0 0-7.23-5.55c-4.13 0-7.48 3.35-7.48 7.48v2.52c0 7.18 5.82 13 13 13s13-5.82 13-13c0-.59-.4-1.1-.97-1.25Z" fill="url(#n)"/><path d="m29.03 12.688-9.65-2.53a.963.963 0 0 1-.67-.67 7.473 7.473 0 0 0-7.23-5.55c-4.13 0-7.48 3.35-7.48 7.48v2.52c0 7.18 5.82 13 13 13s13-5.82 13-13c0-.59-.4-1.1-.97-1.25Z" fill="url(#o)"/><path d="m29.03 12.688-9.65-2.53a.963.963 0 0 1-.67-.67 7.473 7.473 0 0 0-7.23-5.55c-4.13 0-7.48 3.35-7.48 7.48v2.52c0 7.18 5.82 13 13 13s13-5.82 13-13c0-.59-.4-1.1-.97-1.25Z" fill="url(#p)"/><path d="M9.465 10.996a.5.5 0 1 0 0-1 .5.5 0 0 0 0 1Z" fill="url(#q)"/><path d="M9.465 10.996a.5.5 0 1 0 0-1 .5.5 0 0 0 0 1Z" fill="url(#r)"/><path d="M9.465 10.996a.5.5 0 1 0 0-1 .5.5 0 0 0 0 1Z" fill="url(#s)"/><path d="M21.26 23.938c3.82-.07 7.13-2.66 8.21-6.32.34-1.17.53-2.4.53-3.68 0-.54-.34-1.02-.83-1.21l-11.64-3.04v2.74h-7.48v.41c0 6.05 4.95 11.1 10.99 11.1h.22Z" fill="url(#t)"/><path d="M21.26 23.938c3.82-.07 7.13-2.66 8.21-6.32.34-1.17.53-2.4.53-3.68 0-.54-.34-1.02-.83-1.21l-11.64-3.04v2.74h-7.48v.41c0 6.05 4.95 11.1 10.99 11.1h.22Z" fill="url(#u)"/><path d="M21.26 23.938c3.82-.07 7.13-2.66 8.21-6.32.34-1.17.53-2.4.53-3.68 0-.54-.34-1.02-.83-1.21l-11.64-3.04v2.74h-7.48v.41c0 6.05 4.95 11.1 10.99 11.1h.22Z" fill="url(#v)"/><g filter="url(#w)"><path d="M17.25 10.844c-.4-4.45-3.23-5.636-4.875-5.969-1.438 8.125 4.203 11.634 7.25 12.188 4.813.875 9-1.75 9.563-3.438L17.25 10.844Z" fill="url(#x)"/></g><g filter="url(#y)"><path d="M28.438 14.156c-.48.625-2.05 1.869-4.5 1.844" stroke="url(#z)" stroke-width=".5" stroke-linecap="round"/></g><defs><radialGradient id="c" cx="0" cy="0" r="1" gradientUnits="userSpaceOnUse" gradientTransform="matrix(-2.29365 0 0 -2.34945 15.035 29.17)"><stop stop-color="#D6551C"/><stop offset="1" stop-color="#D6551C" stop-opacity="0"/></radialGradient><radialGradient id="d" cx="0" cy="0" r="1" gradientUnits="userSpaceOnUse" gradientTransform="rotate(41.926 -31.69 27.458) scale(4.32621 4.88319)"><stop stop-color="#F67F41"/><stop offset="1" stop-color="#F67F41" stop-opacity="0"/></radialGradient><radialGradient id="g" cx="0" cy="0" r="1" gradientUnits="userSpaceOnUse" gradientTransform="matrix(-1.63027 -1.39717 1.1243 -1.31189 21.506 30.272)"><stop stop-color="#FFA56B"/><stop offset="1" stop-color="#FFA56B" stop-opacity="0"/></radialGradient><radialGradient id="i" cx="0" cy="0" r="1" gradientUnits="userSpaceOnUse" gradientTransform="matrix(4.03125 0 0 2.28893 2.438 10.969)"><stop stop-color="#FD8B44"/><stop offset="1" stop-color="#DB7B46"/></radialGradient><radialGradient id="k" cx="0" cy="0" r="1" gradientUnits="userSpaceOnUse" gradientTransform="rotate(59.637 -2.82 13.278) scale(19.4126 28.4213)"><stop stop-color="#FFCF38"/><stop offset="1" stop-color="#FFB071"/></radialGradient><radialGradient id="l" cx="0" cy="0" r="1" gradientUnits="userSpaceOnUse" gradientTransform="matrix(0 19.4375 -17.6875 0 17 7.875)"><stop offset=".916" stop-color="#FFA1D9" stop-opacity="0"/><stop offset="1" stop-color="#FFA1D9"/></radialGradient><radialGradient id="m" cx="0" cy="0" r="1" gradientUnits="userSpaceOnUse" gradientTransform="matrix(0 -2.59375 6.13769 0 17 27.969)"><stop stop-color="#FF8D31"/><stop offset=".975" stop-color="#FF8D31" stop-opacity="0"/></radialGradient><radialGradient id="n" cx="0" cy="0" r="1" gradientUnits="userSpaceOnUse" gradientTransform="rotate(129.12 10.47 7.395) scale(13.3728 13.4634)"><stop stop-color="#FFF463"/><stop offset="1" stop-color="#FFF463" stop-opacity="0"/></radialGradient><radialGradient id="o" cx="0" cy="0" r="1" gradientUnits="userSpaceOnUse" gradientTransform="matrix(-14.12503 7.43752 -9.29421 -17.65118 19.188 15.438)"><stop offset=".837" stop-color="#F7B168" stop-opacity="0"/><stop offset="1" stop-color="#F7B168"/></radialGradient><radialGradient id="p" cx="0" cy="0" r="1" gradientUnits="userSpaceOnUse" gradientTransform="matrix(4.75 5.375 -7.37137 6.51423 3.313 2.875)"><stop offset=".418" stop-color="#CDB168"/><stop offset=".899" stop-color="#CDB168" stop-opacity="0"/></radialGradient><radialGradient id="q" cx="0" cy="0" r="1" gradientUnits="userSpaceOnUse" gradientTransform="rotate(125.838 2.164 7.625) scale(.69386 .61861)"><stop offset=".006" stop-color="#433437"/><stop offset="1" stop-color="#3B2838"/></radialGradient><radialGradient id="r" cx="0" cy="0" r="1" gradientUnits="userSpaceOnUse" gradientTransform="rotate(137.643 2.817 7.055) scale(.35946 .31624)"><stop stop-color="#5C5051"/><stop offset="1" stop-color="#5C5051" stop-opacity="0"/></radialGradient><radialGradient id="u" cx="0" cy="0" r="1" gradientUnits="userSpaceOnUse" gradientTransform="rotate(109.213 9.175 14.819) scale(2.18415 11.9086)"><stop stop-color="#E7A93F"/><stop offset="1" stop-color="#E7A93F" stop-opacity="0"/></radialGradient><linearGradient id="a" x1="12.27" y1="29.23" x2="13.996" y2="22.735" gradientUnits="userSpaceOnUse"><stop stop-color="#E46D33"/><stop offset="1" stop-color="#DB592A"/></linearGradient><linearGradient id="b" x1="12.988" y1="30.424" x2="12.988" y2="29.124" gradientUnits="userSpaceOnUse"><stop stop-color="#F15CC7"/><stop offset=".828" stop-color="#F15CC7" stop-opacity="0"/></linearGradient><linearGradient id="e" x1="17.29" y1="29.23" x2="19.004" y2="22.727" gradientUnits="userSpaceOnUse"><stop stop-color="#E46D33"/><stop offset="1" stop-color="#DB592A"/></linearGradient><linearGradient id="f" x1="21.73" y1="29.106" x2="12.111" y2="29.106" gradientUnits="userSpaceOnUse"><stop stop-color="#F67F41"/><stop offset="1" stop-color="#F67F41" stop-opacity="0"/></linearGradient><linearGradient id="h" x1="18.015" y1="30.424" x2="18.015" y2="29.124" gradientUnits="userSpaceOnUse"><stop stop-color="#F15CC7"/><stop offset=".828" stop-color="#F15CC7" stop-opacity="0"/></linearGradient><linearGradient id="j" x1="3.242" y1="12.539" x2="3.525" y2="11.133" gradientUnits="userSpaceOnUse"><stop stop-color="#F0757C"/><stop offset="1" stop-color="#F0757C" stop-opacity="0"/></linearGradient><linearGradient id="s" x1="9.367" y1="10.103" x2="9.023" y2="9.885" gradientUnits="userSpaceOnUse"><stop stop-color="#5C5051" stop-opacity="0"/><stop offset="1" stop-color="#5C5051"/></linearGradient><linearGradient id="t" x1="30" y1="28.063" x2="18.5" y2="14.875" gradientUnits="userSpaceOnUse"><stop stop-color="#FF8C00"/><stop offset="1" stop-color="#FF8C00" stop-opacity="0"/></linearGradient><linearGradient id="v" x1="22.188" y1="26" x2="22.188" y2="20.688" gradientUnits="userSpaceOnUse"><stop stop-color="#FF946D"/><stop offset="1" stop-color="#FF946D" stop-opacity="0"/></linearGradient><linearGradient id="x" x1="15.75" y1="-.563" x2="29.375" y2="21.813" gradientUnits="userSpaceOnUse"><stop stop-color="#FFF463"/><stop offset="1" stop-color="#FFF463" stop-opacity="0"/></linearGradient><linearGradient id="z" x1="28.438" y1="14.344" x2="23.938" y2="16.25" gradientUnits="userSpaceOnUse"><stop stop-color="#FFF463"/><stop offset="1" stop-color="#FFF463" stop-opacity="0"/></linearGradient><filter id="w" x="9.395" y="2.125" width="22.543" height="17.862" filterUnits="userSpaceOnUse" color-interpolation-filters="sRGB"><feFlood flood-opacity="0" result="BackgroundImageFix"/><feBlend in="SourceGraphic" in2="BackgroundImageFix" result="shape"/><feGaussianBlur stdDeviation="1.375" result="effect1_foregroundBlur_28327_4778"/></filter><filter id="y" x="22.188" y="12.406" width="8" height="5.344" filterUnits="userSpaceOnUse" color-interpolation-filters="sRGB"><feFlood flood-opacity="0" result="BackgroundImageFix"/><feBlend in="SourceGraphic" in2="BackgroundImageFix" result="shape"/><feGaussianBlur stdDeviation=".75" result="effect1_foregroundBlur_28327_4778"/></filter></defs></svg>