<svg width="32" height="32" fill="none" xmlns="http://www.w3.org/2000/svg"><circle cx="12.168" cy="28.891" r="1.059" fill="url(#a)"/><circle cx="17.059" cy="26.453" r="1.059" fill="url(#b)"/><circle cx="19.332" cy="21.793" r="1.059" fill="url(#c)"/><circle cx="10.31" cy="12.801" r="1.059" fill="url(#d)"/><circle cx="5.677" cy="15.152" r="1.059" fill="url(#e)"/><circle cx="3.211" cy="19.934" r="1.059" fill="url(#f)"/><g filter="url(#g)"><ellipse cx="11.305" cy="20.813" rx="8.094" ry="8.078" fill="url(#h)"/></g><g filter="url(#i)"><ellipse cx="11.369" cy="20.734" rx="7.474" ry="7.459" stroke="url(#j)" stroke-width=".5"/></g><g filter="url(#k)"><ellipse cx="11.305" cy="20.813" rx="6.484" ry="6.472" fill="url(#l)"/><ellipse cx="11.305" cy="20.813" rx="6.484" ry="6.472" fill="url(#m)"/></g><g filter="url(#n)"><path d="M8.69 19.803a.832.832 0 0 1 1.176 0l2.57 2.57a.832.832 0 0 1-1.177 1.176l-2.57-2.57a.832.832 0 0 1 0-1.176Z" fill="#CDC5D6"/></g><g filter="url(#o)"><path d="M6.833 23.076a.5.5 0 0 1 .756-.054l1.635 1.644a.5.5 0 0 1-.06.756l-2.84 2.086a.4.4 0 0 1-.52-.04l-1.036-1.036a.4.4 0 0 1-.039-.522l2.104-2.834Z" fill="url(#p)"/><path d="M6.833 23.076a.5.5 0 0 1 .756-.054l1.635 1.644a.5.5 0 0 1-.06.756l-2.84 2.086a.4.4 0 0 1-.52-.04l-1.036-1.036a.4.4 0 0 1-.039-.522l2.104-2.834Z" fill="url(#q)"/></g><g filter="url(#r)"><path d="m23.852 6.086 2.093 2.039-9.831 11.066a.9.9 0 0 1-1.297.051l-1.84-1.769a.9.9 0 0 1 .01-1.309L23.853 6.086Z" fill="url(#s)"/><path d="m23.852 6.086 2.093 2.039-9.831 11.066a.9.9 0 0 1-1.297.051l-1.84-1.769a.9.9 0 0 1 .01-1.309L23.853 6.086Z" fill="url(#t)"/></g><g filter="url(#u)"><circle cx="23.273" cy="4.636" r=".828" fill="url(#v)"/></g><g filter="url(#w)"><circle cx="24.539" cy="2.862" r=".828" fill="url(#x)"/></g><g filter="url(#y)"><circle cx="29.25" cy="7.253" r=".828" fill="url(#z)"/></g><g filter="url(#A)"><circle cx="27.474" cy="8.503" r=".828" fill="url(#B)"/></g><g filter="url(#C)"><path d="M24.923 3.186a1.6 1.6 0 0 1 2.448-.207l1.61 1.629a1.6 1.6 0 0 1-.18 2.406l-1.863 1.393a1 1 0 0 1-1.3-.088l-1.95-1.92a1 1 0 0 1-.116-1.287l1.351-1.926Z" fill="#875753"/><path d="M24.923 3.186a1.6 1.6 0 0 1 2.448-.207l1.61 1.629a1.6 1.6 0 0 1-.18 2.406l-1.863 1.393a1 1 0 0 1-1.3-.088l-1.95-1.92a1 1 0 0 1-.116-1.287l1.351-1.926Z" fill="url(#D)"/><path d="M24.923 3.186a1.6 1.6 0 0 1 2.448-.207l1.61 1.629a1.6 1.6 0 0 1-.18 2.406l-1.863 1.393a1 1 0 0 1-1.3-.088l-1.95-1.92a1 1 0 0 1-.116-1.287l1.351-1.926Z" fill="url(#E)"/></g><defs><radialGradient id="a" cx="0" cy="0" r="1" gradientUnits="userSpaceOnUse" gradientTransform="matrix(-1.5486 2.72657 -1.97443 -1.1214 13.227 26.426)"><stop stop-color="#EFD453"/><stop offset="1" stop-color="#CCAF35"/></radialGradient><radialGradient id="b" cx="0" cy="0" r="1" gradientUnits="userSpaceOnUse" gradientTransform="rotate(165.855 7.514 14.275) scale(1.77427 1.53113)"><stop offset=".125" stop-color="#EFD453"/><stop offset="1" stop-color="#CCAF35"/></radialGradient><radialGradient id="c" cx="0" cy="0" r="1" gradientUnits="userSpaceOnUse" gradientTransform="rotate(150.068 7.48 13.367) scale(2.37993 2.53589)"><stop offset=".376" stop-color="#EFD453"/><stop offset="1" stop-color="#CCAF35"/></radialGradient><radialGradient id="d" cx="0" cy="0" r="1" gradientUnits="userSpaceOnUse" gradientTransform="rotate(150.998 4.043 7.589) scale(1.6436 1.1902)"><stop stop-color="#EFD453"/><stop offset="1" stop-color="#CCAF35"/></radialGradient><radialGradient id="e" cx="0" cy="0" r="1" gradientUnits="userSpaceOnUse" gradientTransform="matrix(-1.8828 1.50782 -1.09188 -1.36343 7.07 13.906)"><stop stop-color="#EFD453"/><stop offset="1" stop-color="#CCAF35"/></radialGradient><radialGradient id="f" cx="0" cy="0" r="1" gradientUnits="userSpaceOnUse" gradientTransform="matrix(-1.5486 2.72657 -1.97443 -1.1214 4.27 17.469)"><stop stop-color="#EFD453"/><stop offset="1" stop-color="#CCAF35"/></radialGradient><radialGradient id="j" cx="0" cy="0" r="1" gradientUnits="userSpaceOnUse" gradientTransform="matrix(.26636 8.48547 -7.2989 .22911 17.359 14.186)"><stop offset=".358" stop-color="#AF837A"/><stop offset="1" stop-color="#AF837A" stop-opacity="0"/></radialGradient><radialGradient id="m" cx="0" cy="0" r="1" gradientUnits="userSpaceOnUse" gradientTransform="matrix(4.28125 -4.125 6.5579 6.8063 6.82 26.031)"><stop stop-color="#E9DCF8"/><stop offset="1" stop-color="#E9DCF8" stop-opacity="0"/></radialGradient><radialGradient id="v" cx="0" cy="0" r="1" gradientUnits="userSpaceOnUse" gradientTransform="matrix(-.875 0 0 -.82813 23.617 4.636)"><stop stop-color="#C2BAC7"/><stop offset="1" stop-color="#B4A8BC"/></radialGradient><radialGradient id="x" cx="0" cy="0" r="1" gradientUnits="userSpaceOnUse" gradientTransform="matrix(-1.07813 .12781 -.12097 -1.02036 25.086 2.734)"><stop stop-color="#D4CFD7"/><stop offset="1" stop-color="#B7ADBE"/></radialGradient><radialGradient id="z" cx="0" cy="0" r="1" gradientUnits="userSpaceOnUse" gradientTransform="matrix(-1.07813 .12781 -.12097 -1.02036 29.797 7.125)"><stop stop-color="#DBD3E0"/><stop offset="1" stop-color="#C9BDD3"/></radialGradient><radialGradient id="B" cx="0" cy="0" r="1" gradientUnits="userSpaceOnUse" gradientTransform="matrix(-.875 0 0 -.82813 27.817 8.503)"><stop stop-color="#C2BAC7"/><stop offset="1" stop-color="#B4A8BC"/></radialGradient><radialGradient id="D" cx="0" cy="0" r="1" gradientUnits="userSpaceOnUse" gradientTransform="rotate(135.461 13.14 8.217) scale(1.62462 3.47825)"><stop stop-color="#B08378"/><stop offset="1" stop-color="#A37062" stop-opacity="0"/></radialGradient><filter id="g" x="3.211" y="12.484" width="16.438" height="16.406" filterUnits="userSpaceOnUse" color-interpolation-filters="sRGB"><feFlood flood-opacity="0" result="BackgroundImageFix"/><feBlend in="SourceGraphic" in2="BackgroundImageFix" result="shape"/><feColorMatrix in="SourceAlpha" values="0 0 0 0 0 0 0 0 0 0 0 0 0 0 0 0 0 0 127 0" result="hardAlpha"/><feOffset dy="-.25"/><feGaussianBlur stdDeviation=".25"/><feComposite in2="hardAlpha" operator="arithmetic" k2="-1" k3="1"/><feColorMatrix values="0 0 0 0 0.380392 0 0 0 0 0.192157 0 0 0 0 0.305882 0 0 0 1 0"/><feBlend in2="shape" result="effect1_innerShadow_18_18868"/><feColorMatrix in="SourceAlpha" values="0 0 0 0 0 0 0 0 0 0 0 0 0 0 0 0 0 0 127 0" result="hardAlpha"/><feOffset dx=".25"/><feGaussianBlur stdDeviation=".25"/><feComposite in2="hardAlpha" operator="arithmetic" k2="-1" k3="1"/><feColorMatrix values="0 0 0 0 0.45098 0 0 0 0 0.337255 0 0 0 0 0.321569 0 0 0 1 0"/><feBlend in2="effect1_innerShadow_18_18868" result="effect2_innerShadow_18_18868"/></filter><filter id="i" x="3.145" y="12.525" width="16.447" height="16.419" filterUnits="userSpaceOnUse" color-interpolation-filters="sRGB"><feFlood flood-opacity="0" result="BackgroundImageFix"/><feBlend in="SourceGraphic" in2="BackgroundImageFix" result="shape"/><feGaussianBlur stdDeviation=".25" result="effect1_foregroundBlur_18_18868"/></filter><filter id="k" x="4.07" y="13.941" width="14.119" height="14.094" filterUnits="userSpaceOnUse" color-interpolation-filters="sRGB"><feFlood flood-opacity="0" result="BackgroundImageFix"/><feColorMatrix in="SourceAlpha" values="0 0 0 0 0 0 0 0 0 0 0 0 0 0 0 0 0 0 127 0" result="hardAlpha"/><feOffset dx="-.25" dy=".25"/><feGaussianBlur stdDeviation=".25"/><feComposite in2="hardAlpha" operator="out"/><feColorMatrix values="0 0 0 0 0.372549 0 0 0 0 0.2 0 0 0 0 0.262745 0 0 0 1 0"/><feBlend in2="BackgroundImageFix" result="effect1_dropShadow_18_18868"/><feBlend in="SourceGraphic" in2="effect1_dropShadow_18_18868" result="shape"/><feColorMatrix in="SourceAlpha" values="0 0 0 0 0 0 0 0 0 0 0 0 0 0 0 0 0 0 127 0" result="hardAlpha"/><feOffset dx=".1" dy="-.4"/><feGaussianBlur stdDeviation=".4"/><feComposite in2="hardAlpha" operator="arithmetic" k2="-1" k3="1"/><feColorMatrix values="0 0 0 0 0.72549 0 0 0 0 0.6 0 0 0 0 0.827451 0 0 0 1 0"/><feBlend in2="shape" result="effect2_innerShadow_18_18868"/><feColorMatrix in="SourceAlpha" values="0 0 0 0 0 0 0 0 0 0 0 0 0 0 0 0 0 0 127 0" result="hardAlpha"/><feOffset dx="-.4" dy=".4"/><feGaussianBlur stdDeviation=".4"/><feComposite in2="hardAlpha" operator="arithmetic" k2="-1" k3="1"/><feColorMatrix values="0 0 0 0 0.956863 0 0 0 0 0.937255 0 0 0 0 0.976471 0 0 0 1 0"/><feBlend in2="effect2_innerShadow_18_18868" result="effect3_innerShadow_18_18868"/><feColorMatrix in="SourceAlpha" values="0 0 0 0 0 0 0 0 0 0 0 0 0 0 0 0 0 0 127 0" result="hardAlpha"/><feOffset dx=".4" dy=".4"/><feGaussianBlur stdDeviation=".4"/><feComposite in2="hardAlpha" operator="arithmetic" k2="-1" k3="1"/><feColorMatrix values="0 0 0 0 0.705882 0 0 0 0 0.690196 0 0 0 0 0.709804 0 0 0 1 0"/><feBlend in2="effect3_innerShadow_18_18868" result="effect4_innerShadow_18_18868"/></filter><filter id="n" x="7.945" y="19.459" width="4.833" height="4.833" filterUnits="userSpaceOnUse" color-interpolation-filters="sRGB"><feFlood flood-opacity="0" result="BackgroundImageFix"/><feBlend in="SourceGraphic" in2="BackgroundImageFix" result="shape"/><feColorMatrix in="SourceAlpha" values="0 0 0 0 0 0 0 0 0 0 0 0 0 0 0 0 0 0 127 0" result="hardAlpha"/><feOffset dx="-.5" dy=".5"/><feGaussianBlur stdDeviation=".5"/><feComposite in2="hardAlpha" operator="arithmetic" k2="-1" k3="1"/><feColorMatrix values="0 0 0 0 0.745098 0 0 0 0 0.701961 0 0 0 0 0.792157 0 0 0 1 0"/><feBlend in2="shape" result="effect1_innerShadow_18_18868"/><feColorMatrix in="SourceAlpha" values="0 0 0 0 0 0 0 0 0 0 0 0 0 0 0 0 0 0 127 0" result="hardAlpha"/><feOffset dx=".1" dy="-.1"/><feGaussianBlur stdDeviation=".125"/><feComposite in2="hardAlpha" operator="arithmetic" k2="-1" k3="1"/><feColorMatrix values="0 0 0 0 0.784314 0 0 0 0 0.752941 0 0 0 0 0.819608 0 0 0 1 0"/><feBlend in2="effect1_innerShadow_18_18868" result="effect2_innerShadow_18_18868"/></filter><filter id="o" x="4.65" y="22.874" width="4.719" height="4.711" filterUnits="userSpaceOnUse" color-interpolation-filters="sRGB"><feFlood flood-opacity="0" result="BackgroundImageFix"/><feBlend in="SourceGraphic" in2="BackgroundImageFix" result="shape"/><feColorMatrix in="SourceAlpha" values="0 0 0 0 0 0 0 0 0 0 0 0 0 0 0 0 0 0 127 0" result="hardAlpha"/><feOffset/><feGaussianBlur stdDeviation=".125"/><feComposite in2="hardAlpha" operator="arithmetic" k2="-1" k3="1"/><feColorMatrix values="0 0 0 0 0.764706 0 0 0 0 0.741176 0 0 0 0 0.796078 0 0 0 1 0"/><feBlend in2="shape" result="effect1_innerShadow_18_18868"/></filter><filter id="r" x="12.7" y="5.786" width="13.245" height="14.007" filterUnits="userSpaceOnUse" color-interpolation-filters="sRGB"><feFlood flood-opacity="0" result="BackgroundImageFix"/><feBlend in="SourceGraphic" in2="BackgroundImageFix" result="shape"/><feColorMatrix in="SourceAlpha" values="0 0 0 0 0 0 0 0 0 0 0 0 0 0 0 0 0 0 127 0" result="hardAlpha"/><feOffset dy="-.3"/><feGaussianBlur stdDeviation=".15"/><feComposite in2="hardAlpha" operator="arithmetic" k2="-1" k3="1"/><feColorMatrix values="0 0 0 0 0.223529 0 0 0 0 0.141176 0 0 0 0 0.266667 0 0 0 1 0"/><feBlend in2="shape" result="effect1_innerShadow_18_18868"/><feColorMatrix in="SourceAlpha" values="0 0 0 0 0 0 0 0 0 0 0 0 0 0 0 0 0 0 127 0" result="hardAlpha"/><feOffset dy=".3"/><feGaussianBlur stdDeviation=".15"/><feComposite in2="hardAlpha" operator="arithmetic" k2="-1" k3="1"/><feColorMatrix values="0 0 0 0 0.207843 0 0 0 0 0.156863 0 0 0 0 0.168627 0 0 0 1 0"/><feBlend in2="effect1_innerShadow_18_18868" result="effect2_innerShadow_18_18868"/></filter><filter id="u" x="22.445" y="3.808" width="1.656" height="1.656" filterUnits="userSpaceOnUse" color-interpolation-filters="sRGB"><feFlood flood-opacity="0" result="BackgroundImageFix"/><feBlend in="SourceGraphic" in2="BackgroundImageFix" result="shape"/><feColorMatrix in="SourceAlpha" values="0 0 0 0 0 0 0 0 0 0 0 0 0 0 0 0 0 0 127 0" result="hardAlpha"/><feOffset/><feGaussianBlur stdDeviation=".25"/><feComposite in2="hardAlpha" operator="arithmetic" k2="-1" k3="1"/><feColorMatrix values="0 0 0 0 0.690196 0 0 0 0 0.635294 0 0 0 0 0.737255 0 0 0 1 0"/><feBlend in2="shape" result="effect1_innerShadow_18_18868"/></filter><filter id="w" x="23.711" y="2.034" width="1.656" height="1.656" filterUnits="userSpaceOnUse" color-interpolation-filters="sRGB"><feFlood flood-opacity="0" result="BackgroundImageFix"/><feBlend in="SourceGraphic" in2="BackgroundImageFix" result="shape"/><feColorMatrix in="SourceAlpha" values="0 0 0 0 0 0 0 0 0 0 0 0 0 0 0 0 0 0 127 0" result="hardAlpha"/><feOffset/><feGaussianBlur stdDeviation=".25"/><feComposite in2="hardAlpha" operator="arithmetic" k2="-1" k3="1"/><feColorMatrix values="0 0 0 0 0.729412 0 0 0 0 0.678431 0 0 0 0 0.772549 0 0 0 1 0"/><feBlend in2="shape" result="effect1_innerShadow_18_18868"/></filter><filter id="y" x="28.422" y="6.425" width="1.656" height="1.656" filterUnits="userSpaceOnUse" color-interpolation-filters="sRGB"><feFlood flood-opacity="0" result="BackgroundImageFix"/><feBlend in="SourceGraphic" in2="BackgroundImageFix" result="shape"/><feColorMatrix in="SourceAlpha" values="0 0 0 0 0 0 0 0 0 0 0 0 0 0 0 0 0 0 127 0" result="hardAlpha"/><feOffset/><feGaussianBlur stdDeviation=".25"/><feComposite in2="hardAlpha" operator="arithmetic" k2="-1" k3="1"/><feColorMatrix values="0 0 0 0 0.729412 0 0 0 0 0.678431 0 0 0 0 0.772549 0 0 0 1 0"/><feBlend in2="shape" result="effect1_innerShadow_18_18868"/></filter><filter id="A" x="26.645" y="7.675" width="1.656" height="1.656" filterUnits="userSpaceOnUse" color-interpolation-filters="sRGB"><feFlood flood-opacity="0" result="BackgroundImageFix"/><feBlend in="SourceGraphic" in2="BackgroundImageFix" result="shape"/><feColorMatrix in="SourceAlpha" values="0 0 0 0 0 0 0 0 0 0 0 0 0 0 0 0 0 0 127 0" result="hardAlpha"/><feOffset/><feGaussianBlur stdDeviation=".25"/><feComposite in2="hardAlpha" operator="arithmetic" k2="-1" k3="1"/><feColorMatrix values="0 0 0 0 0.690196 0 0 0 0 0.635294 0 0 0 0 0.737255 0 0 0 1 0"/><feBlend in2="shape" result="effect1_innerShadow_18_18868"/></filter><filter id="C" x="23.39" y="2.204" width="6.053" height="6.402" filterUnits="userSpaceOnUse" color-interpolation-filters="sRGB"><feFlood flood-opacity="0" result="BackgroundImageFix"/><feBlend in="SourceGraphic" in2="BackgroundImageFix" result="shape"/><feColorMatrix in="SourceAlpha" values="0 0 0 0 0 0 0 0 0 0 0 0 0 0 0 0 0 0 127 0" result="hardAlpha"/><feOffset dy="-.3"/><feGaussianBlur stdDeviation=".375"/><feComposite in2="hardAlpha" operator="arithmetic" k2="-1" k3="1"/><feColorMatrix values="0 0 0 0 0.482353 0 0 0 0 0.286275 0 0 0 0 0.286275 0 0 0 1 0"/><feBlend in2="shape" result="effect1_innerShadow_18_18868"/></filter><linearGradient id="h" x1="18.227" y1="14.938" x2="5.195" y2="26.313" gradientUnits="userSpaceOnUse"><stop offset=".106" stop-color="#956457"/><stop offset="1" stop-color="#653747"/></linearGradient><linearGradient id="l" x1="14.883" y1="22.75" x2="5.258" y2="19.688" gradientUnits="userSpaceOnUse"><stop stop-color="#DED4EA"/><stop offset="1" stop-color="#DAD1E3"/></linearGradient><linearGradient id="p" x1="8.543" y1="23.929" x2="5.156" y2="26.821" gradientUnits="userSpaceOnUse"><stop stop-color="#CBC1D6"/><stop offset="1" stop-color="#B1A3BE"/></linearGradient><linearGradient id="q" x1="8.508" y1="23.891" x2="8.227" y2="24.148" gradientUnits="userSpaceOnUse"><stop stop-color="#D6CEDF"/><stop offset="1" stop-color="#D6CEDF" stop-opacity="0"/></linearGradient><linearGradient id="s" x1="15.617" y1="17.354" x2="22.334" y2="10.349" gradientUnits="userSpaceOnUse"><stop stop-color="#433E4A"/><stop offset="1" stop-color="#503F60"/></linearGradient><linearGradient id="t" x1="24.788" y1="7.499" x2="23.915" y2="8.355" gradientUnits="userSpaceOnUse"><stop offset=".179" stop-color="#37234A"/><stop offset="1" stop-color="#504060" stop-opacity="0"/></linearGradient><linearGradient id="E" x1="23.39" y1="3.816" x2="26.553" y2="5.553" gradientUnits="userSpaceOnUse"><stop offset=".133" stop-color="#562C26"/><stop offset="1" stop-color="#7D4E49" stop-opacity="0"/></linearGradient></defs></svg>