<svg xmlns="http://www.w3.org/2000/svg" fill="none" viewBox="0 0 32 32"><g filter="url(#bar-chart_svg__a)"><rect width="27.906" height="27.906" x="2.047" y="2.055" fill="url(#bar-chart_svg__b)" rx="3.8"/></g><rect width="27.906" height="27.906" x="2.047" y="2.055" fill="url(#bar-chart_svg__c)" rx="3.8"/><rect width="27.906" height="27.906" x="2.047" y="2.055" fill="url(#bar-chart_svg__d)" rx="3.8"/><rect width="27.906" height="27.906" x="2.047" y="2.055" fill="url(#bar-chart_svg__e)" rx="3.8"/><g filter="url(#bar-chart_svg__f)"><path fill="url(#bar-chart_svg__g)" d="M27.26 28.78a3.9 3.9 0 0 1-1.771.418h-3.984V8.134c0-.603.525-1.091 1.172-1.091h3.411c.647 0 1.171.488 1.171 1.09z"/></g><path fill="url(#bar-chart_svg__h)" fill-rule="evenodd" d="M11.523 2.055h-1v8.39H2.047v1h8.476v8.97H2.047v1h8.476v8.546h1v-8.547h9v8.547h1v-8.547h8.43v-1h-8.43v-8.969h8.43v-1h-8.43v-8.39h-1v8.39h-9zm9 9.39v8.97h-9v-8.97z" clip-rule="evenodd"/><path fill="url(#bar-chart_svg__i)" fill-rule="evenodd" d="M11.523 2.055h-1v8.39H2.047v1h8.476v8.97H2.047v1h8.476v8.546h1v-8.547h9v8.547h1v-8.547h8.43v-1h-8.43v-8.969h8.43v-1h-8.43v-8.39h-1v8.39h-9zm9 9.39v8.97h-9v-8.97z" clip-rule="evenodd"/><path fill="url(#bar-chart_svg__j)" fill-rule="evenodd" d="M11.523 2.055h-1v8.39H2.047v1h8.476v8.97H2.047v1h8.476v8.546h1v-8.547h9v8.547h1v-8.547h8.43v-1h-8.43v-8.969h8.43v-1h-8.43v-8.39h-1v8.39h-9zm9 9.39v8.97h-9v-8.97z" clip-rule="evenodd"/><path fill="url(#bar-chart_svg__k)" fill-rule="evenodd" d="M11.523 2.055h-1v8.39H2.047v1h8.476v8.97H2.047v1h8.476v8.546h1v-8.547h9v8.547h1v-8.547h8.43v-1h-8.43v-8.969h8.43v-1h-8.43v-8.39h-1v8.39h-9zm9 9.39v8.97h-9v-8.97z" clip-rule="evenodd"/><path fill="url(#bar-chart_svg__l)" fill-rule="evenodd" d="M11.523 2.055h-1v8.39H2.047v1h8.476v8.97H2.047v1h8.476v8.546h1v-8.547h9v8.547h1v-8.547h1.972v-1h-1.972v-8.969h1.972v-1h-1.972v-8.39h-1v8.39h-9zm9 9.39v8.97h-9v-8.97z" clip-rule="evenodd"/><path fill="url(#bar-chart_svg__m)" fill-rule="evenodd" d="M11.523 2.055h-1v8.39H2.047v1h8.476v8.97H2.047v1h8.476v8.546h1v-8.547h9v8.547h1v-8.547h1.972v-1h-1.972v-8.969h1.972v-1h-1.972v-8.39h-1v8.39h-9zm9 9.39v8.97h-9v-8.97z" clip-rule="evenodd"/><path fill="url(#bar-chart_svg__n)" fill-rule="evenodd" d="M11.523 2.055h-1v8.39H2.047v1h8.476v8.97H2.047v1h8.476v8.546h1v-8.547h9v8.547h1v-8.547h1.972v-1h-1.972v-8.969h1.972v-1h-1.972v-8.39h-1v8.39h-9zm9 9.39v8.97h-9v-8.97z" clip-rule="evenodd"/><g filter="url(#bar-chart_svg__o)"><path fill="url(#bar-chart_svg__p)" d="M18.24 29.387a6.5 6.5 0 0 1-1.772.238h-3.983V17.656c0-.342.524-.62 1.171-.62h3.412c.647 0 1.171.278 1.171.62z"/></g><g filter="url(#bar-chart_svg__q)"><path fill="url(#bar-chart_svg__r)" d="M9.11 28.437a4.4 4.4 0 0 1-1.77.366H3.357V10.382c0-.527.524-.954 1.171-.954H7.94c.647 0 1.172.427 1.172.954z"/></g><g filter="url(#bar-chart_svg__s)"><path fill="url(#bar-chart_svg__t)" d="M27.967 29.5c-.539.294-1.157.461-1.814.461h-4.08V6.794a1.2 1.2 0 0 1 1.2-1.2h3.494a1.2 1.2 0 0 1 1.2 1.2z"/></g><path fill="url(#bar-chart_svg__u)" d="M27.967 29.5c-.539.294-1.157.461-1.814.461h-4.08V6.794a1.2 1.2 0 0 1 1.2-1.2h3.494a1.2 1.2 0 0 1 1.2 1.2z"/><g filter="url(#bar-chart_svg__v)"><rect width=".865" height="22.501" x="26.394" y="6.527" fill="url(#bar-chart_svg__w)" rx=".433"/></g><path fill="url(#bar-chart_svg__x)" d="M13.459 10.445h-1.936v-8.39h-1v8.39H2.047v1h8.476v8.97H2.047v1h8.476v8.546h1v-8.547h1.936v-1h-1.936v-8.969h1.936z"/><path fill="url(#bar-chart_svg__y)" d="M13.459 10.445h-1.936v-8.39h-1v8.39H2.047v1h8.476v8.97H2.047v1h8.476v8.546h1v-8.547h1.936v-1h-1.936v-8.969h1.936z"/><g filter="url(#bar-chart_svg__z)"><path fill="url(#bar-chart_svg__A)" d="M18.947 29.961h-5.894V17.847a1.2 1.2 0 0 1 1.2-1.2h3.494a1.2 1.2 0 0 1 1.2 1.2z"/></g><g filter="url(#bar-chart_svg__B)"><rect width=".865" height="11.643" x="17.374" y="17.555" fill="url(#bar-chart_svg__C)" rx=".433"/></g><g filter="url(#bar-chart_svg__D)"><path fill="url(#bar-chart_svg__E)" d="M9.927 29.96h-4.08a3.8 3.8 0 0 1-1.814-.46V9.866a1.2 1.2 0 0 1 1.2-1.2h3.494a1.2 1.2 0 0 1 1.2 1.2z"/></g><g filter="url(#bar-chart_svg__F)"><rect width=".865" height="19.77" x="8.678" y="9.428" fill="url(#bar-chart_svg__G)" rx=".433"/></g><defs><linearGradient id="bar-chart_svg__b" x1="27.125" x2="11.875" y1="3.883" y2="23.32" gradientUnits="userSpaceOnUse"><stop stop-color="#D8D1E0"/><stop offset="1" stop-color="#D5C9E3"/></linearGradient><linearGradient id="bar-chart_svg__c" x1="21.475" x2="21.475" y1="30.224" y2="27.926" gradientUnits="userSpaceOnUse"><stop stop-color="#A88AC4"/><stop offset="1" stop-color="#CDBCE0" stop-opacity="0"/></linearGradient><linearGradient id="bar-chart_svg__g" x1="24.382" x2="24.382" y1="7.043" y2="29.198" gradientUnits="userSpaceOnUse"><stop stop-color="#9B98B3"/><stop offset="1" stop-color="#9C83AE"/></linearGradient><linearGradient id="bar-chart_svg__h" x1="16" x2="16" y1="4.367" y2="29.961" gradientUnits="userSpaceOnUse"><stop stop-color="#C2BEC6"/><stop offset="1" stop-color="#BAACC6"/></linearGradient><linearGradient id="bar-chart_svg__i" x1="21.719" x2="21.719" y1="30.676" y2="27.195" gradientUnits="userSpaceOnUse"><stop stop-color="#9E83B7"/><stop offset="1" stop-color="#9E83B7" stop-opacity="0"/></linearGradient><linearGradient id="bar-chart_svg__j" x1="1.078" x2="6.391" y1="17.367" y2="17.367" gradientUnits="userSpaceOnUse"><stop stop-color="#96909C"/><stop offset="1" stop-color="#96909C" stop-opacity="0"/></linearGradient><linearGradient id="bar-chart_svg__k" x1="30.766" x2="26.953" y1="18.055" y2="18.055" gradientUnits="userSpaceOnUse"><stop stop-color="#D6D1DA"/><stop offset="1" stop-color="#D6D1DA" stop-opacity="0"/></linearGradient><linearGradient id="bar-chart_svg__l" x1="24.187" x2="20.164" y1="18.334" y2="18.334" gradientUnits="userSpaceOnUse"><stop offset=".452" stop-color="#7C7695"/><stop offset="1" stop-color="#7C7695" stop-opacity="0"/></linearGradient><linearGradient id="bar-chart_svg__m" x1="21.029" x2="21.029" y1="30.534" y2="28.371" gradientUnits="userSpaceOnUse"><stop stop-color="#9070AD"/><stop offset="1" stop-color="#9070AD" stop-opacity="0"/></linearGradient><linearGradient id="bar-chart_svg__n" x1="19.645" x2="19.645" y1="1.549" y2="10.158" gradientUnits="userSpaceOnUse"><stop offset=".668" stop-color="#C3BFC7"/><stop offset="1" stop-color="#C3BFC7" stop-opacity="0"/></linearGradient><linearGradient id="bar-chart_svg__p" x1="15.362" x2="15.362" y1="17.036" y2="29.625" gradientUnits="userSpaceOnUse"><stop stop-color="#9B98B3"/><stop offset="1" stop-color="#9C83AE"/></linearGradient><linearGradient id="bar-chart_svg__r" x1="6.234" x2="6.234" y1="9.428" y2="28.803" gradientUnits="userSpaceOnUse"><stop stop-color="#9B98B3"/><stop offset="1" stop-color="#9C83AE"/></linearGradient><linearGradient id="bar-chart_svg__t" x1="25.02" x2="25.02" y1="5.594" y2="29.961" gradientUnits="userSpaceOnUse"><stop offset=".18" stop-color="#36A4F2"/><stop offset="1" stop-color="#3E79CB"/></linearGradient><linearGradient id="bar-chart_svg__u" x1="21.722" x2="23.538" y1="29.452" y2="29.366" gradientUnits="userSpaceOnUse"><stop offset=".011" stop-color="#404E95"/><stop offset="1" stop-color="#2F66B3" stop-opacity="0"/></linearGradient><linearGradient id="bar-chart_svg__w" x1="26.827" x2="26.827" y1="6.527" y2="29.028" gradientUnits="userSpaceOnUse"><stop stop-color="#53BFFF"/><stop offset="1" stop-color="#508EDC"/></linearGradient><linearGradient id="bar-chart_svg__y" x1="1.519" x2="5.975" y1="17.469" y2="17.469" gradientUnits="userSpaceOnUse"><stop stop-color="#88858D"/><stop offset="1" stop-color="#88858D" stop-opacity="0"/></linearGradient><linearGradient id="bar-chart_svg__A" x1="16" x2="16" y1="16.647" y2="29.961" gradientUnits="userSpaceOnUse"><stop offset=".18" stop-color="#E93586"/><stop offset="1" stop-color="#DD385F"/></linearGradient><linearGradient id="bar-chart_svg__C" x1="17.806" x2="17.806" y1="17.555" y2="29.198" gradientUnits="userSpaceOnUse"><stop stop-color="#FA5598"/><stop offset="1" stop-color="#F34F70"/></linearGradient><linearGradient id="bar-chart_svg__E" x1="6.98" x2="6.98" y1="8.665" y2="29.961" gradientUnits="userSpaceOnUse"><stop offset=".18" stop-color="#ABE263"/><stop offset="1" stop-color="#61E19B"/></linearGradient><linearGradient id="bar-chart_svg__G" x1="9.111" x2="9.111" y1="9.428" y2="29.198" gradientUnits="userSpaceOnUse"><stop stop-color="#C9FE70"/><stop offset="1" stop-color="#6CEDA7"/></linearGradient><filter id="bar-chart_svg__a" width="30.406" height="29.906" x="1.047" y="1.055" color-interpolation-filters="sRGB" filterUnits="userSpaceOnUse"><feFlood flood-opacity="0" result="BackgroundImageFix"/><feBlend in="SourceGraphic" in2="BackgroundImageFix" result="shape"/><feColorMatrix in="SourceAlpha" result="hardAlpha" values="0 0 0 0 0 0 0 0 0 0 0 0 0 0 0 0 0 0 127 0"/><feOffset dx="-1" dy="1"/><feGaussianBlur stdDeviation="1"/><feComposite in2="hardAlpha" k2="-1" k3="1" operator="arithmetic"/><feColorMatrix values="0 0 0 0 0.878431 0 0 0 0 0.87451 0 0 0 0 0.886275 0 0 0 1 0"/><feBlend in2="shape" result="effect1_innerShadow_18_23005"/><feColorMatrix in="SourceAlpha" result="hardAlpha" values="0 0 0 0 0 0 0 0 0 0 0 0 0 0 0 0 0 0 127 0"/><feOffset dx="1.5" dy="-1"/><feGaussianBlur stdDeviation="1.5"/><feComposite in2="hardAlpha" k2="-1" k3="1" operator="arithmetic"/><feColorMatrix values="0 0 0 0 0.698039 0 0 0 0 0.67451 0 0 0 0 0.721569 0 0 0 1 0"/><feBlend in2="effect1_innerShadow_18_23005" result="effect2_innerShadow_18_23005"/><feColorMatrix in="SourceAlpha" result="hardAlpha" values="0 0 0 0 0 0 0 0 0 0 0 0 0 0 0 0 0 0 127 0"/><feOffset dx=".25"/><feGaussianBlur stdDeviation=".25"/><feComposite in2="hardAlpha" k2="-1" k3="1" operator="arithmetic"/><feColorMatrix values="0 0 0 0 0.729412 0 0 0 0 0.729412 0 0 0 0 0.729412 0 0 0 1 0"/><feBlend in2="effect2_innerShadow_18_23005" result="effect3_innerShadow_18_23005"/></filter><filter id="bar-chart_svg__f" width="7.754" height="24.155" x="20.505" y="6.043" color-interpolation-filters="sRGB" filterUnits="userSpaceOnUse"><feFlood flood-opacity="0" result="BackgroundImageFix"/><feBlend in="SourceGraphic" in2="BackgroundImageFix" result="shape"/><feGaussianBlur result="effect1_foregroundBlur_18_23005" stdDeviation=".5"/></filter><filter id="bar-chart_svg__o" width="7.754" height="14.589" x="11.485" y="16.036" color-interpolation-filters="sRGB" filterUnits="userSpaceOnUse"><feFlood flood-opacity="0" result="BackgroundImageFix"/><feBlend in="SourceGraphic" in2="BackgroundImageFix" result="shape"/><feGaussianBlur result="effect1_foregroundBlur_18_23005" stdDeviation=".5"/></filter><filter id="bar-chart_svg__q" width="7.754" height="21.375" x="2.357" y="8.428" color-interpolation-filters="sRGB" filterUnits="userSpaceOnUse"><feFlood flood-opacity="0" result="BackgroundImageFix"/><feBlend in="SourceGraphic" in2="BackgroundImageFix" result="shape"/><feGaussianBlur result="effect1_foregroundBlur_18_23005" stdDeviation=".5"/></filter><filter id="bar-chart_svg__s" width="6.644" height="24.367" x="22.073" y="5.594" color-interpolation-filters="sRGB" filterUnits="userSpaceOnUse"><feFlood flood-opacity="0" result="BackgroundImageFix"/><feBlend in="SourceGraphic" in2="BackgroundImageFix" result="shape"/><feColorMatrix in="SourceAlpha" result="hardAlpha" values="0 0 0 0 0 0 0 0 0 0 0 0 0 0 0 0 0 0 127 0"/><feOffset dx=".75"/><feGaussianBlur stdDeviation=".5"/><feComposite in2="hardAlpha" k2="-1" k3="1" operator="arithmetic"/><feColorMatrix values="0 0 0 0 0.203922 0 0 0 0 0.482353 0 0 0 0 0.74902 0 0 0 1 0"/><feBlend in2="shape" result="effect1_innerShadow_18_23005"/></filter><filter id="bar-chart_svg__v" width="2.865" height="24.502" x="25.394" y="5.527" color-interpolation-filters="sRGB" filterUnits="userSpaceOnUse"><feFlood flood-opacity="0" result="BackgroundImageFix"/><feBlend in="SourceGraphic" in2="BackgroundImageFix" result="shape"/><feGaussianBlur result="effect1_foregroundBlur_18_23005" stdDeviation=".5"/></filter><filter id="bar-chart_svg__z" width="6.644" height="13.314" x="13.053" y="16.647" color-interpolation-filters="sRGB" filterUnits="userSpaceOnUse"><feFlood flood-opacity="0" result="BackgroundImageFix"/><feBlend in="SourceGraphic" in2="BackgroundImageFix" result="shape"/><feColorMatrix in="SourceAlpha" result="hardAlpha" values="0 0 0 0 0 0 0 0 0 0 0 0 0 0 0 0 0 0 127 0"/><feOffset dx=".75"/><feGaussianBlur stdDeviation=".5"/><feComposite in2="hardAlpha" k2="-1" k3="1" operator="arithmetic"/><feColorMatrix values="0 0 0 0 0.67451 0 0 0 0 0.239216 0 0 0 0 0.372549 0 0 0 1 0"/><feBlend in2="shape" result="effect1_innerShadow_18_23005"/></filter><filter id="bar-chart_svg__B" width="2.865" height="13.643" x="16.374" y="16.555" color-interpolation-filters="sRGB" filterUnits="userSpaceOnUse"><feFlood flood-opacity="0" result="BackgroundImageFix"/><feBlend in="SourceGraphic" in2="BackgroundImageFix" result="shape"/><feGaussianBlur result="effect1_foregroundBlur_18_23005" stdDeviation=".5"/></filter><filter id="bar-chart_svg__D" width="6.644" height="21.296" x="4.033" y="8.665" color-interpolation-filters="sRGB" filterUnits="userSpaceOnUse"><feFlood flood-opacity="0" result="BackgroundImageFix"/><feBlend in="SourceGraphic" in2="BackgroundImageFix" result="shape"/><feColorMatrix in="SourceAlpha" result="hardAlpha" values="0 0 0 0 0 0 0 0 0 0 0 0 0 0 0 0 0 0 127 0"/><feOffset dx=".75"/><feGaussianBlur stdDeviation=".5"/><feComposite in2="hardAlpha" k2="-1" k3="1" operator="arithmetic"/><feColorMatrix values="0 0 0 0 0.415686 0 0 0 0 0.792157 0 0 0 0 0.466667 0 0 0 1 0"/><feBlend in2="shape" result="effect1_innerShadow_18_23005"/></filter><filter id="bar-chart_svg__F" width="2.865" height="21.77" x="7.678" y="8.428" color-interpolation-filters="sRGB" filterUnits="userSpaceOnUse"><feFlood flood-opacity="0" result="BackgroundImageFix"/><feBlend in="SourceGraphic" in2="BackgroundImageFix" result="shape"/><feGaussianBlur result="effect1_foregroundBlur_18_23005" stdDeviation=".5"/></filter><radialGradient id="bar-chart_svg__d" cx="0" cy="0" r="1" gradientTransform="matrix(-5.58858 .20883 -.81418 -21.7886 29.953 16.403)" gradientUnits="userSpaceOnUse"><stop stop-color="#F2EDF5"/><stop offset="1" stop-color="#DED3E7" stop-opacity="0"/></radialGradient><radialGradient id="bar-chart_svg__e" cx="0" cy="0" r="1" gradientTransform="matrix(-3.69009 3.2723 -3.38707 -3.81951 29.586 2.896)" gradientUnits="userSpaceOnUse"><stop stop-color="#F7F4F7"/><stop offset="1" stop-color="#E2DCE5" stop-opacity="0"/></radialGradient><radialGradient id="bar-chart_svg__x" cx="0" cy="0" r="1" gradientTransform="matrix(-2.46588 0 0 -2.37936 14.324 20.93)" gradientUnits="userSpaceOnUse"><stop offset=".228" stop-color="#86738A"/><stop offset="1" stop-color="#86738A" stop-opacity="0"/></radialGradient></defs></svg>