<svg xmlns="http://www.w3.org/2000/svg" fill="none" viewBox="0 0 32 32"><path fill="url(#bison_svg__a)" d="m3.333 16.635 2.15 3.36c.27.42.88.41 1.14-.01l.29-.47c.08-.12.25-.14.35-.04l.74.8v-3.27z"/><path fill="url(#bison_svg__b)" d="m3.333 16.635 2.15 3.36c.27.42.88.41 1.14-.01l.29-.47c.08-.12.25-.14.35-.04l.74.8v-3.27z"/><path fill="#784748" d="M21.35 18.34h2.003l-2.541 9.55a.5.5 0 0 1-.483.372h-1.295a.25.25 0 0 1-.241-.314z"/><path fill="url(#bison_svg__c)" d="M21.35 18.34h2.003l-2.541 9.55a.5.5 0 0 1-.483.372h-1.295a.25.25 0 0 1-.241-.314z"/><path fill="url(#bison_svg__d)" d="M21.35 18.34h2.003l-2.541 9.55a.5.5 0 0 1-.483.372h-1.295a.25.25 0 0 1-.241-.314z"/><path fill="url(#bison_svg__e)" d="M12.783 28.275h-1.38c-.17 0-.31-.14-.31-.31v-3.67h2v3.67c0 .17-.14.31-.31.31"/><path fill="url(#bison_svg__f)" d="M12.783 28.275h-1.38c-.17 0-.31-.14-.31-.31v-3.67h2v3.67c0 .17-.14.31-.31.31"/><path fill="url(#bison_svg__g)" d="M27.023 9.965c1.84.79 3.04 2.61 3.04 4.62v8.69h-.907V20.2h-.113v-2.695c-.28.35-.61.66-.98.92V20.2h-5.781l-.052-.032c-.304.594-1.477 1.107-2.297 1.107h-8.84c-1.71 0-3.09-1.38-3.09-3.09v-9.91h13.46c1.06 0 2.1.21 3.07.62z"/><path fill="url(#bison_svg__h)" d="M27.023 9.965c1.84.79 3.04 2.61 3.04 4.62v8.69h-.907V20.2h-.113v-2.695c-.28.35-.61.66-.98.92V20.2h-5.781l-.052-.032c-.304.594-1.477 1.107-2.297 1.107h-8.84c-1.71 0-3.09-1.38-3.09-3.09v-9.91h13.46c1.06 0 2.1.21 3.07.62z"/><path fill="url(#bison_svg__i)" d="M27.023 9.965c1.84.79 3.04 2.61 3.04 4.62v8.69h-.907V20.2h-.113v-2.695c-.28.35-.61.66-.98.92V20.2h-5.781l-.052-.032c-.304.594-1.477 1.107-2.297 1.107h-8.84c-1.71 0-3.09-1.38-3.09-3.09v-9.91h13.46c1.06 0 2.1.21 3.07.62z"/><path fill="url(#bison_svg__j)" d="M27.023 9.965c1.84.79 3.04 2.61 3.04 4.62v8.69h-.907V20.2h-.113v-2.695c-.28.35-.61.66-.98.92V20.2h-5.781l-.052-.032c-.304.594-1.477 1.107-2.297 1.107h-8.84c-1.71 0-3.09-1.38-3.09-3.09v-9.91h13.46c1.06 0 2.1.21 3.07.62z"/><path fill="url(#bison_svg__k)" d="M27.023 9.965c1.84.79 3.04 2.61 3.04 4.62v8.69h-.907V20.2h-.113v-2.695c-.28.35-.61.66-.98.92V20.2h-5.781l-.052-.032c-.304.594-1.477 1.107-2.297 1.107h-8.84c-1.71 0-3.09-1.38-3.09-3.09v-9.91h13.46c1.06 0 2.1.21 3.07.62z"/><path fill="url(#bison_svg__l)" d="M25.725 14.725a3.497 3.497 0 0 0-3.497 3.497v2.556a3.5 3.5 0 0 0 3.5 3.5h.157a.25.25 0 0 1 .25.25v3.242a.5.5 0 0 0 .5.5h.922a.5.5 0 0 0 .5-.5V17.056a2.33 2.33 0 0 0-2.332-2.331"/><path fill="url(#bison_svg__m)" d="M25.725 14.725a3.497 3.497 0 0 0-3.497 3.497v2.556a3.5 3.5 0 0 0 3.5 3.5h.157a.25.25 0 0 1 .25.25v3.242a.5.5 0 0 0 .5.5h.922a.5.5 0 0 0 .5-.5V17.056a2.33 2.33 0 0 0-2.332-2.331"/><path fill="url(#bison_svg__n)" d="M4.063 11.275v2.11c0 .5-.21.98-.56 1.34-.27.26-.44.64-.44 1.05 0 .83.67 1.5 1.5 1.5h4.5v-6z"/><path fill="url(#bison_svg__o)" d="M4.063 11.275v2.11c0 .5-.21.98-.56 1.34-.27.26-.44.64-.44 1.05 0 .83.67 1.5 1.5 1.5h4.5v-6z"/><path fill="url(#bison_svg__p)" d="M4.063 11.275v2.11c0 .5-.21.98-.56 1.34-.27.26-.44.64-.44 1.05 0 .83.67 1.5 1.5 1.5h4.5v-6z"/><path fill="url(#bison_svg__q)" d="M9.032 18.872v3.373c0 1.67 1.36 3.03 3.03 3.03s3.03-1.36 3.03-3.03v-1.63a2 2 0 0 0-.577-1.406l-.906-.916z"/><path fill="url(#bison_svg__r)" d="M9.032 18.872v3.373c0 1.67 1.36 3.03 3.03 3.03s3.03-1.36 3.03-3.03v-1.63a2 2 0 0 0-.577-1.406l-.906-.916z"/><path fill="url(#bison_svg__s)" d="M9.032 18.872v3.373c0 1.67 1.36 3.03 3.03 3.03s3.03-1.36 3.03-3.03v-1.63a2 2 0 0 0-.577-1.406l-.906-.916z"/><path fill="url(#bison_svg__t)" d="M30.063 14.85c-.083 1.223-.802 2.375-1.172 2.818l-.011.03a5 5 0 0 0 .163-.193v5.77h1.02z"/><path fill="url(#bison_svg__u)" d="M30.063 14.85c-.083 1.223-.802 2.375-1.172 2.818l-.011.03a5 5 0 0 0 .163-.193v5.77h1.02z"/><path fill="url(#bison_svg__v)" d="M11.753 28.275h-1.38c-.17 0-.31-.14-.31-.31v-3.67h2v3.67c0 .17-.14.31-.31.31"/><path fill="url(#bison_svg__w)" d="M11.753 28.275h-1.38c-.17 0-.31-.14-.31-.31v-3.67h2v3.67c0 .17-.14.31-.31.31"/><path fill="url(#bison_svg__x)" d="M11.753 28.275h-1.38c-.17 0-.31-.14-.31-.31v-3.67h2v3.67c0 .17-.14.31-.31.31"/><path fill="url(#bison_svg__y)" d="M11.753 28.275h-1.38c-.17 0-.31-.14-.31-.31v-3.67h2v3.67c0 .17-.14.31-.31.31"/><path fill="url(#bison_svg__z)" d="M30.063 24.605v-4c-1.1 0-2 .9-2 2s.9 2 2 2"/><path fill="url(#bison_svg__A)" d="M30.063 24.605v-4c-1.1 0-2 .9-2 2s.9 2 2 2"/><path fill="url(#bison_svg__B)" d="M4.673 14.725H3.496a1.498 1.498 0 0 0 1.066 2.55h1.5v-1.16c0-.77-.62-1.39-1.39-1.39"/><path fill="url(#bison_svg__C)" d="M4.673 14.725H3.496a1.498 1.498 0 0 0 1.066 2.55h1.5v-1.16c0-.77-.62-1.39-1.39-1.39"/><path fill="url(#bison_svg__D)" d="M4.563 16.275a.5.5 0 1 0 0-1 .5.5 0 0 0 0 1"/><path fill="url(#bison_svg__E)" d="M4.563 16.275a.5.5 0 1 0 0-1 .5.5 0 0 0 0 1"/><path fill="url(#bison_svg__F)" d="m21.143 6.885-4.92-2.11a6 6 0 0 0-2.17-.5 5.87 5.87 0 0 0-5.31 3h-.05a1.822 1.822 0 0 0-3.03-.34c-.18.21-.44.34-.72.34h-.88c-1.1 0-2 .9-2 2v1.36c0 .91.73 1.64 1.64 1.64h1.49c.2 0 .37-.17.37-.37v-.45c0-.1.08-.18.18-.18h1.65c.34 0 .61.27.61.61v10.39c0 1.67 1.36 3.03 3.03 3.03s3.03-1.36 3.03-3.03v-8.14c0-1.14.64-2.18 1.66-2.69l6.34-3.148c0-.61-.36-1.172-.92-1.412"/><path fill="url(#bison_svg__G)" d="m21.143 6.885-4.92-2.11a6 6 0 0 0-2.17-.5 5.87 5.87 0 0 0-5.31 3h-.05a1.822 1.822 0 0 0-3.03-.34c-.18.21-.44.34-.72.34h-.88c-1.1 0-2 .9-2 2v1.36c0 .91.73 1.64 1.64 1.64h1.49c.2 0 .37-.17.37-.37v-.45c0-.1.08-.18.18-.18h1.65c.34 0 .61.27.61.61v10.39c0 1.67 1.36 3.03 3.03 3.03s3.03-1.36 3.03-3.03v-8.14c0-1.14.64-2.18 1.66-2.69l6.34-3.148c0-.61-.36-1.172-.92-1.412"/><path fill="url(#bison_svg__H)" d="m21.143 6.885-4.92-2.11a6 6 0 0 0-2.17-.5 5.87 5.87 0 0 0-5.31 3h-.05a1.822 1.822 0 0 0-3.03-.34c-.18.21-.44.34-.72.34h-.88c-1.1 0-2 .9-2 2v1.36c0 .91.73 1.64 1.64 1.64h1.49c.2 0 .37-.17.37-.37v-.45c0-.1.08-.18.18-.18h1.65c.34 0 .61.27.61.61v10.39c0 1.67 1.36 3.03 3.03 3.03s3.03-1.36 3.03-3.03v-8.14c0-1.14.64-2.18 1.66-2.69l6.34-3.148c0-.61-.36-1.172-.92-1.412"/><path fill="url(#bison_svg__I)" d="m21.143 6.885-4.92-2.11a6 6 0 0 0-2.17-.5 5.87 5.87 0 0 0-5.31 3h-.05a1.822 1.822 0 0 0-3.03-.34c-.18.21-.44.34-.72.34h-.88c-1.1 0-2 .9-2 2v1.36c0 .91.73 1.64 1.64 1.64h1.49c.2 0 .37-.17.37-.37v-.45c0-.1.08-.18.18-.18h1.65c.34 0 .61.27.61.61v10.39c0 1.67 1.36 3.03 3.03 3.03s3.03-1.36 3.03-3.03v-8.14c0-1.14.64-2.18 1.66-2.69l6.34-3.148c0-.61-.36-1.172-.92-1.412"/><path fill="url(#bison_svg__J)" d="m21.143 6.885-4.92-2.11a6 6 0 0 0-2.17-.5 5.87 5.87 0 0 0-5.31 3h-.05a1.822 1.822 0 0 0-3.03-.34c-.18.21-.44.34-.72.34h-.88c-1.1 0-2 .9-2 2v1.36c0 .91.73 1.64 1.64 1.64h1.49c.2 0 .37-.17.37-.37v-.45c0-.1.08-.18.18-.18h1.65c.34 0 .61.27.61.61v10.39c0 1.67 1.36 3.03 3.03 3.03s3.03-1.36 3.03-3.03v-8.14c0-1.14.64-2.18 1.66-2.69l6.34-3.148c0-.61-.36-1.172-.92-1.412"/><path fill="url(#bison_svg__K)" d="m21.143 6.885-4.92-2.11a6 6 0 0 0-2.17-.5 5.87 5.87 0 0 0-5.31 3h-.05a1.822 1.822 0 0 0-3.03-.34c-.18.21-.44.34-.72.34h-.88c-1.1 0-2 .9-2 2v1.36c0 .91.73 1.64 1.64 1.64h1.49c.2 0 .37-.17.37-.37v-.45c0-.1.08-.18.18-.18h1.65c.34 0 .61.27.61.61v10.39c0 1.67 1.36 3.03 3.03 3.03s3.03-1.36 3.03-3.03v-8.14c0-1.14.64-2.18 1.66-2.69l6.34-3.148c0-.61-.36-1.172-.92-1.412"/><path fill="url(#bison_svg__L)" d="m21.143 6.885-4.92-2.11a6 6 0 0 0-2.17-.5 5.87 5.87 0 0 0-5.31 3h-.05a1.822 1.822 0 0 0-3.03-.34c-.18.21-.44.34-.72.34h-.88c-1.1 0-2 .9-2 2v1.36c0 .91.73 1.64 1.64 1.64h1.49c.2 0 .37-.17.37-.37v-.45c0-.1.08-.18.18-.18h1.65c.34 0 .61.27.61.61v10.39c0 1.67 1.36 3.03 3.03 3.03s3.03-1.36 3.03-3.03v-8.14c0-1.14.64-2.18 1.66-2.69l6.34-3.148c0-.61-.36-1.172-.92-1.412"/><path fill="url(#bison_svg__M)" d="m21.143 6.885-4.92-2.11a6 6 0 0 0-2.17-.5 5.87 5.87 0 0 0-5.31 3h-.05a1.822 1.822 0 0 0-3.03-.34c-.18.21-.44.34-.72.34h-.88c-1.1 0-2 .9-2 2v1.36c0 .91.73 1.64 1.64 1.64h1.49c.2 0 .37-.17.37-.37v-.45c0-.1.08-.18.18-.18h1.65c.34 0 .61.27.61.61v10.39c0 1.67 1.36 3.03 3.03 3.03s3.03-1.36 3.03-3.03v-8.14c0-1.14.64-2.18 1.66-2.69l6.34-3.148c0-.61-.36-1.172-.92-1.412"/><path fill="url(#bison_svg__N)" d="M7.266 4.25a.155.155 0 0 0-.1.285c.62.364 1.01 1.05.96 1.807-.07 1.05-1.08 1.674-2.095 1.768-.55.05-.937.61-.937 1.015 0 1.092 1.097 1.21 2.072 1.125 1.443-.125 2.78-1.306 2.89-2.858.11-1.62-.993-3.22-2.79-3.141"/><path fill="url(#bison_svg__O)" d="M7.266 4.25a.155.155 0 0 0-.1.285c.62.364 1.01 1.05.96 1.807-.07 1.05-1.08 1.674-2.095 1.768-.55.05-.937.61-.937 1.015 0 1.092 1.097 1.21 2.072 1.125 1.443-.125 2.78-1.306 2.89-2.858.11-1.62-.993-3.22-2.79-3.141"/><path fill="url(#bison_svg__P)" d="M7.266 4.25a.155.155 0 0 0-.1.285c.62.364 1.01 1.05.96 1.807-.07 1.05-1.08 1.674-2.095 1.768-.55.05-.937.61-.937 1.015 0 1.092 1.097 1.21 2.072 1.125 1.443-.125 2.78-1.306 2.89-2.858.11-1.62-.993-3.22-2.79-3.141"/><path fill="url(#bison_svg__Q)" d="M7.266 4.25a.155.155 0 0 0-.1.285c.62.364 1.01 1.05.96 1.807-.07 1.05-1.08 1.674-2.095 1.768-.55.05-.937.61-.937 1.015 0 1.092 1.097 1.21 2.072 1.125 1.443-.125 2.78-1.306 2.89-2.858.11-1.62-.993-3.22-2.79-3.141"/><rect width="1.031" height="2.002" x="6.031" y="12.332" fill="url(#bison_svg__R)" rx=".516"/><rect width="1.031" height="2.002" x="6.031" y="12.332" fill="url(#bison_svg__S)" rx=".516"/><rect width="1.031" height="2.002" x="6.031" y="12.332" fill="url(#bison_svg__T)" rx=".516"/><g filter="url(#bison_svg__U)"><path stroke="url(#bison_svg__V)" stroke-linecap="round" stroke-width=".25" d="M8.133 4.817c.5.156 1.23.86 1.305 1.836.074.975-.329 2.047-1.5 2.531"/></g><g filter="url(#bison_svg__W)"><path stroke="url(#bison_svg__X)" stroke-linecap="round" stroke-width=".1" d="M29.61 21.137v2.656"/></g><g filter="url(#bison_svg__Y)"><path fill="url(#bison_svg__Z)" d="M10.969 12.872 21.03 7.805l-5.425-2.113a2 2 0 0 0-2.62 1.222z"/></g><g filter="url(#bison_svg__aa)"><path fill="url(#bison_svg__ab)" d="M9.446 13.123a2.058 2.058 0 0 1 4.116 0v8.573a2.058 2.058 0 1 1-4.116 0z"/></g><g filter="url(#bison_svg__ac)"><path stroke="url(#bison_svg__ad)" stroke-linecap="round" stroke-width=".25" d="m21.844 22.215-1.453 5.407"/></g><g filter="url(#bison_svg__ae)"><rect width=".578" height="2.359" x="11.147" y="25.497" fill="#866061" fill-opacity=".6" rx=".289"/></g><g filter="url(#bison_svg__af)"><path fill="url(#bison_svg__ag)" fill-opacity=".75" d="M23.85 15.496h3.931v7.469H23.85z"/></g><g filter="url(#bison_svg__ah)"><path fill="#BC8A7E" d="M26.859 21.137h.359v6.289h-.359z"/></g><g filter="url(#bison_svg__ai)"><ellipse cx="22.997" cy="13.077" fill="url(#bison_svg__aj)" fill-opacity=".75" rx="6.096" ry="2.013"/></g><g filter="url(#bison_svg__ak)"><path stroke="#724F4D" stroke-linecap="round" stroke-width="1.25" d="M9.446 11.684v11.279"/></g><g filter="url(#bison_svg__al)"><path stroke="#7B5553" stroke-linecap="round" stroke-width=".25" d="M2.727 8.897v1.75a1 1 0 0 0 1 1h1.039"/></g><defs><radialGradient id="bison_svg__a" cx="0" cy="0" r="1" gradientTransform="matrix(1.48437 2.71875 -1.55165 .84716 4.656 17.403)" gradientUnits="userSpaceOnUse"><stop stop-color="#69494D"/><stop offset="1" stop-color="#4F2535"/></radialGradient><radialGradient id="bison_svg__b" cx="0" cy="0" r="1" gradientTransform="matrix(.46875 1.14063 -.66224 .27215 7.375 19.668)" gradientUnits="userSpaceOnUse"><stop stop-color="#69494D"/><stop offset=".863" stop-color="#69494D" stop-opacity="0"/></radialGradient><radialGradient id="bison_svg__g" cx="0" cy="0" r="1" gradientTransform="matrix(-15.12492 6.50005 -5.71685 -13.30249 26.813 10.809)" gradientUnits="userSpaceOnUse"><stop stop-color="#BC8A7E"/><stop offset=".728" stop-color="#78424A"/><stop offset="1" stop-color="#6B3757"/></radialGradient><radialGradient id="bison_svg__h" cx="0" cy="0" r="1" gradientTransform="matrix(0 -2.78125 4.1875 0 27.688 17.746)" gradientUnits="userSpaceOnUse"><stop stop-color="#A76C61"/><stop offset="1" stop-color="#A76C61" stop-opacity="0"/></radialGradient><radialGradient id="bison_svg__i" cx="0" cy="0" r="1" gradientTransform="matrix(.98437 -2.15625 2.92801 1.3367 27.86 18.621)" gradientUnits="userSpaceOnUse"><stop stop-color="#6E312E"/><stop offset="1" stop-color="#6E312E" stop-opacity="0"/></radialGradient><radialGradient id="bison_svg__j" cx="0" cy="0" r="1" gradientTransform="rotate(-117.78 17.473 3.204)scale(1.97797 2.59434)" gradientUnits="userSpaceOnUse"><stop stop-color="#502220"/><stop offset="1" stop-color="#6E312E" stop-opacity="0"/></radialGradient><radialGradient id="bison_svg__k" cx="0" cy="0" r="1" gradientTransform="matrix(-1.21996 -4.87235 9.63667 -2.41288 19.032 23.275)" gradientUnits="userSpaceOnUse"><stop stop-color="#993E76"/><stop offset="1" stop-color="#6B3757" stop-opacity="0"/></radialGradient><radialGradient id="bison_svg__l" cx="0" cy="0" r="1" gradientTransform="rotate(105.362 7.209 17.475)scale(8.84734 8.19325)" gradientUnits="userSpaceOnUse"><stop stop-color="#A5726D"/><stop offset=".691" stop-color="#8A5558"/></radialGradient><radialGradient id="bison_svg__m" cx="0" cy="0" r="1" gradientTransform="matrix(2 -3.65625 2.83804 1.55243 23.75 24.871)" gradientUnits="userSpaceOnUse"><stop stop-color="#993E76"/><stop offset="1" stop-color="#6B3757" stop-opacity="0"/></radialGradient><radialGradient id="bison_svg__n" cx="0" cy="0" r="1" gradientTransform="rotate(-59.594 15.554 4.088)scale(6.05097 8.28644)" gradientUnits="userSpaceOnUse"><stop stop-color="#9C6C65"/><stop offset="1" stop-color="#794244"/></radialGradient><radialGradient id="bison_svg__q" cx="0" cy="0" r="1" gradientTransform="matrix(1.90625 2.21875 -3.79583 3.2612 12.969 21.434)" gradientUnits="userSpaceOnUse"><stop offset=".067" stop-color="#96625F"/><stop offset="1" stop-color="#7E4A47"/></radialGradient><radialGradient id="bison_svg__s" cx="0" cy="0" r="1" gradientTransform="rotate(-44.894 33.6 -1.017)scale(5.99937 5.27138)" gradientUnits="userSpaceOnUse"><stop offset=".81" stop-color="#7E5153" stop-opacity="0"/><stop offset=".945" stop-color="#976365"/><stop offset="1" stop-color="#703B53"/></radialGradient><radialGradient id="bison_svg__z" cx="0" cy="0" r="1" gradientTransform="matrix(-1.96875 0 0 -2.71792 30.594 22.605)" gradientUnits="userSpaceOnUse"><stop stop-color="#685C5D"/><stop offset=".849" stop-color="#392525"/></radialGradient><radialGradient id="bison_svg__A" cx="0" cy="0" r="1" gradientTransform="rotate(123.245 9.601 18.657)scale(3.90469 3.77151)" gradientUnits="userSpaceOnUse"><stop offset=".81" stop-color="#4F254B" stop-opacity="0"/><stop offset="1" stop-color="#4F254B"/></radialGradient><radialGradient id="bison_svg__B" cx="0" cy="0" r="1" gradientTransform="matrix(1.60937 2.13791 -2.3932 1.80155 3.797 15.137)" gradientUnits="userSpaceOnUse"><stop offset=".385" stop-color="#735150"/><stop offset="1" stop-color="#582B41"/></radialGradient><radialGradient id="bison_svg__D" cx="0" cy="0" r="1" gradientTransform="rotate(57.426 -12.028 11.9)scale(.6675 .60933)" gradientUnits="userSpaceOnUse"><stop stop-color="#5B4044"/><stop offset="1" stop-color="#3F2925"/></radialGradient><radialGradient id="bison_svg__G" cx="0" cy="0" r="1" gradientTransform="matrix(0 -4.90232 4.21875 0 11 25.305)" gradientUnits="userSpaceOnUse"><stop stop-color="#6B3757"/><stop offset="1" stop-color="#6B3757" stop-opacity="0"/></radialGradient><radialGradient id="bison_svg__H" cx="0" cy="0" r="1" gradientTransform="rotate(56.842 -6.248 10.175)scale(1.39981)" gradientUnits="userSpaceOnUse"><stop stop-color="#542C45"/><stop offset="1" stop-color="#542C45" stop-opacity="0"/></radialGradient><radialGradient id="bison_svg__I" cx="0" cy="0" r="1" gradientTransform="matrix(-1.2344 2.32812 -1.4104 -.7478 8.5 8.668)" gradientUnits="userSpaceOnUse"><stop offset=".239" stop-color="#512423"/><stop offset="1" stop-color="#512423" stop-opacity="0"/></radialGradient><radialGradient id="bison_svg__K" cx="0" cy="0" r="1" gradientTransform="matrix(-4.93752 -3.06247 4.05555 -6.53864 17 14.184)" gradientUnits="userSpaceOnUse"><stop stop-color="#633250"/><stop offset="1" stop-color="#6B3757" stop-opacity="0"/></radialGradient><radialGradient id="bison_svg__L" cx="0" cy="0" r="1" gradientTransform="matrix(.78125 -2.90625 5.47405 1.47152 4.063 12.965)" gradientUnits="userSpaceOnUse"><stop stop-color="#572D2F"/><stop offset="1" stop-color="#572D2F" stop-opacity="0"/></radialGradient><radialGradient id="bison_svg__M" cx="0" cy="0" r="1" gradientTransform="rotate(70.56 -1.94 6.691)scale(3.09852 4.74846)" gradientUnits="userSpaceOnUse"><stop offset=".121" stop-color="#8D6B67"/><stop offset=".496" stop-color="#8D6B67" stop-opacity="0"/></radialGradient><radialGradient id="bison_svg__N" cx="0" cy="0" r="1" gradientTransform="matrix(-1.84373 5.30698 -5.58253 -1.93945 9.188 4.965)" gradientUnits="userSpaceOnUse"><stop offset=".006" stop-color="#F5BD93"/><stop offset="1" stop-color="#F5A678"/></radialGradient><radialGradient id="bison_svg__O" cx="0" cy="0" r="1" gradientTransform="matrix(-1.46875 1.25 -5.20906 -6.12062 10.438 5.34)" gradientUnits="userSpaceOnUse"><stop stop-color="#FFDFA9"/><stop offset="1" stop-color="#FFDFA9" stop-opacity="0"/></radialGradient><radialGradient id="bison_svg__P" cx="0" cy="0" r="1" gradientTransform="matrix(0 -1.79688 4.28086 0 7.579 10.7)" gradientUnits="userSpaceOnUse"><stop stop-color="#C87554"/><stop offset="1" stop-color="#C87554" stop-opacity="0"/></radialGradient><radialGradient id="bison_svg__Q" cx="0" cy="0" r="1" gradientTransform="matrix(2.23437 .4375 -.4869 2.48664 6.516 6.309)" gradientUnits="userSpaceOnUse"><stop offset=".606" stop-color="#C78D62"/><stop offset=".832" stop-color="#C78D62" stop-opacity="0"/></radialGradient><radialGradient id="bison_svg__T" cx="0" cy="0" r="1" gradientTransform="matrix(0 -2.125 1.0665 0 6.398 14.27)" gradientUnits="userSpaceOnUse"><stop offset=".776" stop-color="#392833" stop-opacity="0"/><stop offset="1" stop-color="#2B1B25"/></radialGradient><radialGradient id="bison_svg__aj" cx="0" cy="0" r="1" gradientTransform="matrix(-7.738 0 0 -4.5625 27.385 11.996)" gradientUnits="userSpaceOnUse"><stop offset=".001" stop-color="#BC8A7E"/><stop offset="1" stop-color="#BC8A7E" stop-opacity="0"/></radialGradient><linearGradient id="bison_svg__c" x1="20.656" x2="19.438" y1="21.122" y2="25.684" gradientUnits="userSpaceOnUse"><stop stop-color="#41242E"/><stop offset="1" stop-color="#41242E" stop-opacity="0"/></linearGradient><linearGradient id="bison_svg__d" x1="20.766" x2="20.906" y1="28.575" y2="26.997" gradientUnits="userSpaceOnUse"><stop stop-color="#88485E"/><stop offset=".519" stop-color="#88485E" stop-opacity="0"/></linearGradient><linearGradient id="bison_svg__e" x1="13.188" x2="12.092" y1="27.028" y2="27.028" gradientUnits="userSpaceOnUse"><stop stop-color="#563836"/><stop offset="1" stop-color="#715055"/></linearGradient><linearGradient id="bison_svg__f" x1="11.978" x2="11.967" y1="28.4" y2="27.504" gradientUnits="userSpaceOnUse"><stop stop-color="#88485E"/><stop offset=".519" stop-color="#88485E" stop-opacity="0"/></linearGradient><linearGradient id="bison_svg__o" x1="6.063" x2="6.063" y1="18.09" y2="16.09" gradientUnits="userSpaceOnUse"><stop stop-color="#6C334E"/><stop offset="1" stop-color="#6C334E" stop-opacity="0"/></linearGradient><linearGradient id="bison_svg__p" x1="9.906" x2="6.844" y1="16.09" y2="16.09" gradientUnits="userSpaceOnUse"><stop stop-color="#6C334E"/><stop offset="1" stop-color="#6C334E" stop-opacity="0"/></linearGradient><linearGradient id="bison_svg__r" x1="12.063" x2="12.063" y1="27.028" y2="22.028" gradientUnits="userSpaceOnUse"><stop stop-color="#6B3757"/><stop offset="1" stop-color="#6B3757" stop-opacity="0"/></linearGradient><linearGradient id="bison_svg__t" x1="29.063" x2="30.063" y1="19.063" y2="19.063" gradientUnits="userSpaceOnUse"><stop offset=".359" stop-color="#743E3B"/><stop offset="1" stop-color="#936D69"/></linearGradient><linearGradient id="bison_svg__u" x1="30.063" x2="29.75" y1="18.168" y2="18.168" gradientUnits="userSpaceOnUse"><stop stop-color="#875B50"/><stop offset="1" stop-color="#875B50" stop-opacity="0"/></linearGradient><linearGradient id="bison_svg__v" x1="12.438" x2="9.625" y1="25.715" y2="25.715" gradientUnits="userSpaceOnUse"><stop stop-color="#785353"/><stop offset="1" stop-color="#7A514E"/></linearGradient><linearGradient id="bison_svg__w" x1="13.141" x2="9.641" y1="27.347" y2="27.347" gradientUnits="userSpaceOnUse"><stop stop-color="#6B3757"/><stop offset="1" stop-color="#6B3757" stop-opacity="0"/></linearGradient><linearGradient id="bison_svg__x" x1="10.948" x2="10.94" y1="28.4" y2="27.715" gradientUnits="userSpaceOnUse"><stop stop-color="#88485E"/><stop offset=".519" stop-color="#88485E" stop-opacity="0"/></linearGradient><linearGradient id="bison_svg__y" x1="10.906" x2="10.439" y1="24.295" y2="26.076" gradientUnits="userSpaceOnUse"><stop stop-color="#41242E"/><stop offset="1" stop-color="#41242E" stop-opacity="0"/></linearGradient><linearGradient id="bison_svg__C" x1="3.391" x2="4.023" y1="14.684" y2="15.27" gradientUnits="userSpaceOnUse"><stop stop-color="#5F3D39"/><stop offset="1" stop-color="#5F3D39" stop-opacity="0"/></linearGradient><linearGradient id="bison_svg__E" x1="4.148" x2="4.563" y1="15.275" y2="15.871" gradientUnits="userSpaceOnUse"><stop stop-color="#562D36"/><stop offset="1" stop-color="#562D36" stop-opacity="0"/></linearGradient><linearGradient id="bison_svg__F" x1="6.688" x2="16.375" y1="15.59" y2="15.59" gradientUnits="userSpaceOnUse"><stop stop-color="#6C434A"/><stop offset="1" stop-color="#6B3A38"/></linearGradient><linearGradient id="bison_svg__J" x1="15.125" x2="13.188" y1="3.059" y2="7.34" gradientUnits="userSpaceOnUse"><stop stop-color="#7C6460"/><stop offset=".411" stop-color="#7C6460" stop-opacity="0"/></linearGradient><linearGradient id="bison_svg__R" x1="6.031" x2="7.063" y1="13.333" y2="13.333" gradientUnits="userSpaceOnUse"><stop stop-color="#594C4F"/><stop offset=".856" stop-color="#31232C"/></linearGradient><linearGradient id="bison_svg__S" x1="7.224" x2="7.224" y1="14.559" y2="13.832" gradientUnits="userSpaceOnUse"><stop stop-color="#552D52"/><stop offset="1" stop-color="#552D52" stop-opacity="0"/></linearGradient><linearGradient id="bison_svg__V" x1="9.016" x2="9.016" y1="7" y2="10.981" gradientUnits="userSpaceOnUse"><stop stop-color="#FFDFA9"/><stop offset="1" stop-color="#FFDFA9" stop-opacity="0"/></linearGradient><linearGradient id="bison_svg__X" x1="30.109" x2="30.109" y1="21.137" y2="23.34" gradientUnits="userSpaceOnUse"><stop stop-color="#998C8C"/><stop offset="1" stop-color="#998C8C" stop-opacity="0"/></linearGradient><linearGradient id="bison_svg__Z" x1="20.375" x2="10.688" y1="8.809" y2="8.809" gradientUnits="userSpaceOnUse"><stop stop-color="#8D6B67"/><stop offset=".869" stop-color="#8D6B67" stop-opacity="0"/></linearGradient><linearGradient id="bison_svg__ab" x1="15.226" x2="8.93" y1="17.968" y2="17.968" gradientUnits="userSpaceOnUse"><stop stop-color="#8D6B67"/><stop offset=".725" stop-color="#8D6B67" stop-opacity="0"/></linearGradient><linearGradient id="bison_svg__ad" x1="22" x2="19.281" y1="22.215" y2="31.34" gradientUnits="userSpaceOnUse"><stop stop-color="#745155"/><stop offset="1" stop-color="#987176" stop-opacity="0"/></linearGradient><linearGradient id="bison_svg__ag" x1="25.816" x2="22.367" y1="22.965" y2="15.776" gradientUnits="userSpaceOnUse"><stop offset=".523" stop-color="#BC8A7E"/><stop offset="1" stop-color="#BC8A7E" stop-opacity="0"/></linearGradient><filter id="bison_svg__U" width="2.759" height="5.617" x="7.312" y="4.192" color-interpolation-filters="sRGB" filterUnits="userSpaceOnUse"><feFlood flood-opacity="0" result="BackgroundImageFix"/><feBlend in="SourceGraphic" in2="BackgroundImageFix" result="shape"/><feGaussianBlur result="effect1_foregroundBlur_28327_2709" stdDeviation=".25"/></filter><filter id="bison_svg__W" width=".9" height="3.556" x="29.159" y="20.687" color-interpolation-filters="sRGB" filterUnits="userSpaceOnUse"><feFlood flood-opacity="0" result="BackgroundImageFix"/><feBlend in="SourceGraphic" in2="BackgroundImageFix" result="shape"/><feGaussianBlur result="effect1_foregroundBlur_28327_2709" stdDeviation=".2"/></filter><filter id="bison_svg__Y" width="12.063" height="9.315" x="9.969" y="4.556" color-interpolation-filters="sRGB" filterUnits="userSpaceOnUse"><feFlood flood-opacity="0" result="BackgroundImageFix"/><feBlend in="SourceGraphic" in2="BackgroundImageFix" result="shape"/><feGaussianBlur result="effect1_foregroundBlur_28327_2709" stdDeviation=".5"/></filter><filter id="bison_svg__aa" width="6.116" height="14.689" x="8.446" y="10.065" color-interpolation-filters="sRGB" filterUnits="userSpaceOnUse"><feFlood flood-opacity="0" result="BackgroundImageFix"/><feBlend in="SourceGraphic" in2="BackgroundImageFix" result="shape"/><feGaussianBlur result="effect1_foregroundBlur_28327_2709" stdDeviation=".5"/></filter><filter id="bison_svg__ac" width="2.703" height="6.656" x="19.766" y="21.59" color-interpolation-filters="sRGB" filterUnits="userSpaceOnUse"><feFlood flood-opacity="0" result="BackgroundImageFix"/><feBlend in="SourceGraphic" in2="BackgroundImageFix" result="shape"/><feGaussianBlur result="effect1_foregroundBlur_28327_2709" stdDeviation=".25"/></filter><filter id="bison_svg__ae" width="1.278" height="3.059" x="10.797" y="25.146" color-interpolation-filters="sRGB" filterUnits="userSpaceOnUse"><feFlood flood-opacity="0" result="BackgroundImageFix"/><feBlend in="SourceGraphic" in2="BackgroundImageFix" result="shape"/><feGaussianBlur result="effect1_foregroundBlur_28327_2709" stdDeviation=".175"/></filter><filter id="bison_svg__af" width="7.931" height="11.469" x="21.85" y="13.496" color-interpolation-filters="sRGB" filterUnits="userSpaceOnUse"><feFlood flood-opacity="0" result="BackgroundImageFix"/><feBlend in="SourceGraphic" in2="BackgroundImageFix" result="shape"/><feGaussianBlur result="effect1_foregroundBlur_28327_2709" stdDeviation="1"/></filter><filter id="bison_svg__ah" width="2.359" height="8.289" x="25.859" y="20.137" color-interpolation-filters="sRGB" filterUnits="userSpaceOnUse"><feFlood flood-opacity="0" result="BackgroundImageFix"/><feBlend in="SourceGraphic" in2="BackgroundImageFix" result="shape"/><feGaussianBlur result="effect1_foregroundBlur_28327_2709" stdDeviation=".5"/></filter><filter id="bison_svg__ai" width="16.192" height="8.026" x="14.901" y="9.065" color-interpolation-filters="sRGB" filterUnits="userSpaceOnUse"><feFlood flood-opacity="0" result="BackgroundImageFix"/><feBlend in="SourceGraphic" in2="BackgroundImageFix" result="shape"/><feGaussianBlur result="effect1_foregroundBlur_28327_2709" stdDeviation="1"/></filter><filter id="bison_svg__ak" width="4.25" height="15.529" x="7.321" y="9.559" color-interpolation-filters="sRGB" filterUnits="userSpaceOnUse"><feFlood flood-opacity="0" result="BackgroundImageFix"/><feBlend in="SourceGraphic" in2="BackgroundImageFix" result="shape"/><feGaussianBlur result="effect1_foregroundBlur_28327_2709" stdDeviation=".75"/></filter><filter id="bison_svg__al" width="3.489" height="4.2" x="2.002" y="8.172" color-interpolation-filters="sRGB" filterUnits="userSpaceOnUse"><feFlood flood-opacity="0" result="BackgroundImageFix"/><feBlend in="SourceGraphic" in2="BackgroundImageFix" result="shape"/><feGaussianBlur result="effect1_foregroundBlur_28327_2709" stdDeviation=".3"/></filter></defs></svg>