<svg width="32" height="32" fill="none" xmlns="http://www.w3.org/2000/svg"><g filter="url(#a)" fill-rule="evenodd" clip-rule="evenodd"><path d="M23.607 11.19a3.485 3.485 0 0 0 .051-1.572 3.523 3.523 0 0 0-.549-1.323l.006-.001a3.436 3.436 0 0 0-.401-.484l-.003-.003a3.482 3.482 0 0 1-.916-1.762l-.002-.011a3.547 3.547 0 0 0-4.153-2.81.58.58 0 0 1-.528-.153 3.553 3.553 0 0 0-3.11-.907 3.553 3.553 0 0 0-2.55 1.998.608.608 0 0 1-.434.338l-.09.019a3.547 3.547 0 0 0-2.72 4.134l.002.01c.127.663.06 1.351-.195 1.977l-.002.004a3.546 3.546 0 0 0 .428 3.47.553.553 0 0 1 .092.48 3.508 3.508 0 0 0-.055 1.55 3.454 3.454 0 0 0 4.05 2.742l9.058-1.746a3.454 3.454 0 0 0 2.741-4.051 3.507 3.507 0 0 0-.628-1.419.553.553 0 0 1-.092-.48Zm-13.483-.326-.013.002 1.744 2.242c.7 2.933 1.285-.247 4.104-.79 2.82-.544 4.683 2.51 4.243-.472l.549-3.605c-.31-1.303-1.28-1.212-1.47-1.175l-3.398.655a4.151 4.151 0 0 1-3.707-1.117.283.283 0 0 0-.476.148l-.047.221a2.476 2.476 0 0 1-1.055 1.577c-.017.012-.034.023-.05.032-.223.177-.733.677-.562 1.683l.073.32.065.279Z" fill="url(#b)"/><path d="M23.607 11.19a3.485 3.485 0 0 0 .051-1.572 3.523 3.523 0 0 0-.549-1.323l.006-.001a3.436 3.436 0 0 0-.401-.484l-.003-.003a3.482 3.482 0 0 1-.916-1.762l-.002-.011a3.547 3.547 0 0 0-4.153-2.81.58.58 0 0 1-.528-.153 3.553 3.553 0 0 0-3.11-.907 3.553 3.553 0 0 0-2.55 1.998.608.608 0 0 1-.434.338l-.09.019a3.547 3.547 0 0 0-2.72 4.134l.002.01c.127.663.06 1.351-.195 1.977l-.002.004a3.546 3.546 0 0 0 .428 3.47.553.553 0 0 1 .092.48 3.508 3.508 0 0 0-.055 1.55 3.454 3.454 0 0 0 4.05 2.742l9.058-1.746a3.454 3.454 0 0 0 2.741-4.051 3.507 3.507 0 0 0-.628-1.419.553.553 0 0 1-.092-.48Zm-13.483-.326-.013.002 1.744 2.242c.7 2.933 1.285-.247 4.104-.79 2.82-.544 4.683 2.51 4.243-.472l.549-3.605c-.31-1.303-1.28-1.212-1.47-1.175l-3.398.655a4.151 4.151 0 0 1-3.707-1.117.283.283 0 0 0-.476.148l-.047.221a2.476 2.476 0 0 1-1.055 1.577c-.017.012-.034.023-.05.032-.223.177-.733.677-.562 1.683l.073.32.065.279Z" fill="url(#c)"/><path d="M23.607 11.19a3.485 3.485 0 0 0 .051-1.572 3.523 3.523 0 0 0-.549-1.323l.006-.001a3.436 3.436 0 0 0-.401-.484l-.003-.003a3.482 3.482 0 0 1-.916-1.762l-.002-.011a3.547 3.547 0 0 0-4.153-2.81.58.58 0 0 1-.528-.153 3.553 3.553 0 0 0-3.11-.907 3.553 3.553 0 0 0-2.55 1.998.608.608 0 0 1-.434.338l-.09.019a3.547 3.547 0 0 0-2.72 4.134l.002.01c.127.663.06 1.351-.195 1.977l-.002.004a3.546 3.546 0 0 0 .428 3.47.553.553 0 0 1 .092.48 3.508 3.508 0 0 0-.055 1.55 3.454 3.454 0 0 0 4.05 2.742l9.058-1.746a3.454 3.454 0 0 0 2.741-4.051 3.507 3.507 0 0 0-.628-1.419.553.553 0 0 1-.092-.48Zm-13.483-.326-.013.002 1.744 2.242c.7 2.933 1.285-.247 4.104-.79 2.82-.544 4.683 2.51 4.243-.472l.549-3.605c-.31-1.303-1.28-1.212-1.47-1.175l-3.398.655a4.151 4.151 0 0 1-3.707-1.117.283.283 0 0 0-.476.148l-.047.221a2.476 2.476 0 0 1-1.055 1.577c-.017.012-.034.023-.05.032-.223.177-.733.677-.562 1.683l.073.32.065.279Z" fill="url(#d)"/><path d="M23.607 11.19a3.485 3.485 0 0 0 .051-1.572 3.523 3.523 0 0 0-.549-1.323l.006-.001a3.436 3.436 0 0 0-.401-.484l-.003-.003a3.482 3.482 0 0 1-.916-1.762l-.002-.011a3.547 3.547 0 0 0-4.153-2.81.58.58 0 0 1-.528-.153 3.553 3.553 0 0 0-3.11-.907 3.553 3.553 0 0 0-2.55 1.998.608.608 0 0 1-.434.338l-.09.019a3.547 3.547 0 0 0-2.72 4.134l.002.01c.127.663.06 1.351-.195 1.977l-.002.004a3.546 3.546 0 0 0 .428 3.47.553.553 0 0 1 .092.48 3.508 3.508 0 0 0-.055 1.55 3.454 3.454 0 0 0 4.05 2.742l9.058-1.746a3.454 3.454 0 0 0 2.741-4.051 3.507 3.507 0 0 0-.628-1.419.553.553 0 0 1-.092-.48Zm-13.483-.326-.013.002 1.744 2.242c.7 2.933 1.285-.247 4.104-.79 2.82-.544 4.683 2.51 4.243-.472l.549-3.605c-.31-1.303-1.28-1.212-1.47-1.175l-3.398.655a4.151 4.151 0 0 1-3.707-1.117.283.283 0 0 0-.476.148l-.047.221a2.476 2.476 0 0 1-1.055 1.577c-.017.012-.034.023-.05.032-.223.177-.733.677-.562 1.683l.073.32.065.279Z" fill="url(#e)"/><path d="M23.607 11.19a3.485 3.485 0 0 0 .051-1.572 3.523 3.523 0 0 0-.549-1.323l.006-.001a3.436 3.436 0 0 0-.401-.484l-.003-.003a3.482 3.482 0 0 1-.916-1.762l-.002-.011a3.547 3.547 0 0 0-4.153-2.81.58.58 0 0 1-.528-.153 3.553 3.553 0 0 0-3.11-.907 3.553 3.553 0 0 0-2.55 1.998.608.608 0 0 1-.434.338l-.09.019a3.547 3.547 0 0 0-2.72 4.134l.002.01c.127.663.06 1.351-.195 1.977l-.002.004a3.546 3.546 0 0 0 .428 3.47.553.553 0 0 1 .092.48 3.508 3.508 0 0 0-.055 1.55 3.454 3.454 0 0 0 4.05 2.742l9.058-1.746a3.454 3.454 0 0 0 2.741-4.051 3.507 3.507 0 0 0-.628-1.419.553.553 0 0 1-.092-.48Zm-13.483-.326-.013.002 1.744 2.242c.7 2.933 1.285-.247 4.104-.79 2.82-.544 4.683 2.51 4.243-.472l.549-3.605c-.31-1.303-1.28-1.212-1.47-1.175l-3.398.655a4.151 4.151 0 0 1-3.707-1.117.283.283 0 0 0-.476.148l-.047.221a2.476 2.476 0 0 1-1.055 1.577c-.017.012-.034.023-.05.032-.223.177-.733.677-.562 1.683l.073.32.065.279Z" fill="url(#f)"/><path d="M23.607 11.19a3.485 3.485 0 0 0 .051-1.572 3.523 3.523 0 0 0-.549-1.323l.006-.001a3.436 3.436 0 0 0-.401-.484l-.003-.003a3.482 3.482 0 0 1-.916-1.762l-.002-.011a3.547 3.547 0 0 0-4.153-2.81.58.58 0 0 1-.528-.153 3.553 3.553 0 0 0-3.11-.907 3.553 3.553 0 0 0-2.55 1.998.608.608 0 0 1-.434.338l-.09.019a3.547 3.547 0 0 0-2.72 4.134l.002.01c.127.663.06 1.351-.195 1.977l-.002.004a3.546 3.546 0 0 0 .428 3.47.553.553 0 0 1 .092.48 3.508 3.508 0 0 0-.055 1.55 3.454 3.454 0 0 0 4.05 2.742l9.058-1.746a3.454 3.454 0 0 0 2.741-4.051 3.507 3.507 0 0 0-.628-1.419.553.553 0 0 1-.092-.48Zm-13.483-.326-.013.002 1.744 2.242c.7 2.933 1.285-.247 4.104-.79 2.82-.544 4.683 2.51 4.243-.472l.549-3.605c-.31-1.303-1.28-1.212-1.47-1.175l-3.398.655a4.151 4.151 0 0 1-3.707-1.117.283.283 0 0 0-.476.148l-.047.221a2.476 2.476 0 0 1-1.055 1.577c-.017.012-.034.023-.05.032-.223.177-.733.677-.562 1.683l.073.32.065.279Z" fill="url(#g)"/><path d="M23.607 11.19a3.485 3.485 0 0 0 .051-1.572 3.523 3.523 0 0 0-.549-1.323l.006-.001a3.436 3.436 0 0 0-.401-.484l-.003-.003a3.482 3.482 0 0 1-.916-1.762l-.002-.011a3.547 3.547 0 0 0-4.153-2.81.58.58 0 0 1-.528-.153 3.553 3.553 0 0 0-3.11-.907 3.553 3.553 0 0 0-2.55 1.998.608.608 0 0 1-.434.338l-.09.019a3.547 3.547 0 0 0-2.72 4.134l.002.01c.127.663.06 1.351-.195 1.977l-.002.004a3.546 3.546 0 0 0 .428 3.47.553.553 0 0 1 .092.48 3.508 3.508 0 0 0-.055 1.55 3.454 3.454 0 0 0 4.05 2.742l9.058-1.746a3.454 3.454 0 0 0 2.741-4.051 3.507 3.507 0 0 0-.628-1.419.553.553 0 0 1-.092-.48Zm-13.483-.326-.013.002 1.744 2.242c.7 2.933 1.285-.247 4.104-.79 2.82-.544 4.683 2.51 4.243-.472l.549-3.605c-.31-1.303-1.28-1.212-1.47-1.175l-3.398.655a4.151 4.151 0 0 1-3.707-1.117.283.283 0 0 0-.476.148l-.047.221a2.476 2.476 0 0 1-1.055 1.577c-.017.012-.034.023-.05.032-.223.177-.733.677-.562 1.683l.073.32.065.279Z" fill="url(#h)"/><path d="M23.607 11.19a3.485 3.485 0 0 0 .051-1.572 3.523 3.523 0 0 0-.549-1.323l.006-.001a3.436 3.436 0 0 0-.401-.484l-.003-.003a3.482 3.482 0 0 1-.916-1.762l-.002-.011a3.547 3.547 0 0 0-4.153-2.81.58.58 0 0 1-.528-.153 3.553 3.553 0 0 0-3.11-.907 3.553 3.553 0 0 0-2.55 1.998.608.608 0 0 1-.434.338l-.09.019a3.547 3.547 0 0 0-2.72 4.134l.002.01c.127.663.06 1.351-.195 1.977l-.002.004a3.546 3.546 0 0 0 .428 3.47.553.553 0 0 1 .092.48 3.508 3.508 0 0 0-.055 1.55 3.454 3.454 0 0 0 4.05 2.742l9.058-1.746a3.454 3.454 0 0 0 2.741-4.051 3.507 3.507 0 0 0-.628-1.419.553.553 0 0 1-.092-.48Zm-13.483-.326-.013.002 1.744 2.242c.7 2.933 1.285-.247 4.104-.79 2.82-.544 4.683 2.51 4.243-.472l.549-3.605c-.31-1.303-1.28-1.212-1.47-1.175l-3.398.655a4.151 4.151 0 0 1-3.707-1.117.283.283 0 0 0-.476.148l-.047.221a2.476 2.476 0 0 1-1.055 1.577c-.017.012-.034.023-.05.032-.223.177-.733.677-.562 1.683l.073.32.065.279Z" fill="url(#i)"/><path d="M23.607 11.19a3.485 3.485 0 0 0 .051-1.572 3.523 3.523 0 0 0-.549-1.323l.006-.001a3.436 3.436 0 0 0-.401-.484l-.003-.003a3.482 3.482 0 0 1-.916-1.762l-.002-.011a3.547 3.547 0 0 0-4.153-2.81.58.58 0 0 1-.528-.153 3.553 3.553 0 0 0-3.11-.907 3.553 3.553 0 0 0-2.55 1.998.608.608 0 0 1-.434.338l-.09.019a3.547 3.547 0 0 0-2.72 4.134l.002.01c.127.663.06 1.351-.195 1.977l-.002.004a3.546 3.546 0 0 0 .428 3.47.553.553 0 0 1 .092.48 3.508 3.508 0 0 0-.055 1.55 3.454 3.454 0 0 0 4.05 2.742l9.058-1.746a3.454 3.454 0 0 0 2.741-4.051 3.507 3.507 0 0 0-.628-1.419.553.553 0 0 1-.092-.48Zm-13.483-.326-.013.002 1.744 2.242c.7 2.933 1.285-.247 4.104-.79 2.82-.544 4.683 2.51 4.243-.472l.549-3.605c-.31-1.303-1.28-1.212-1.47-1.175l-3.398.655a4.151 4.151 0 0 1-3.707-1.117.283.283 0 0 0-.476.148l-.047.221a2.476 2.476 0 0 1-1.055 1.577c-.017.012-.034.023-.05.032-.223.177-.733.677-.562 1.683l.073.32.065.279Z" fill="url(#j)"/></g><path fill-rule="evenodd" clip-rule="evenodd" d="M23.607 11.19a3.485 3.485 0 0 0 .051-1.572 3.523 3.523 0 0 0-.549-1.323l.006-.001a3.436 3.436 0 0 0-.401-.484l-.003-.003a3.482 3.482 0 0 1-.916-1.762l-.002-.011a3.547 3.547 0 0 0-4.153-2.81.58.58 0 0 1-.528-.153 3.553 3.553 0 0 0-3.11-.907 3.553 3.553 0 0 0-2.55 1.998.608.608 0 0 1-.434.338l-.09.019a3.547 3.547 0 0 0-2.72 4.134l.002.01c.127.663.06 1.351-.195 1.977l-.002.004a3.546 3.546 0 0 0 .428 3.47.553.553 0 0 1 .092.48 3.508 3.508 0 0 0-.055 1.55 3.454 3.454 0 0 0 4.05 2.742l9.058-1.746a3.454 3.454 0 0 0 2.741-4.051 3.507 3.507 0 0 0-.628-1.419.553.553 0 0 1-.092-.48Zm-13.483-.326-.013.002 1.744 2.242c.7 2.933 1.285-.247 4.104-.79 2.82-.544 4.683 2.51 4.243-.472l.549-3.605c-.31-1.303-1.28-1.212-1.47-1.175l-3.398.655a4.151 4.151 0 0 1-3.707-1.117.283.283 0 0 0-.476.148l-.047.221a2.476 2.476 0 0 1-1.055 1.577c-.017.012-.034.023-.05.032-.223.177-.733.677-.562 1.683l.073.32.065.279Z" fill="url(#k)"/><path fill-rule="evenodd" clip-rule="evenodd" d="M23.607 11.19a3.485 3.485 0 0 0 .051-1.572 3.523 3.523 0 0 0-.549-1.323l.006-.001a3.436 3.436 0 0 0-.401-.484l-.003-.003a3.482 3.482 0 0 1-.916-1.762l-.002-.011a3.547 3.547 0 0 0-4.153-2.81.58.58 0 0 1-.528-.153 3.553 3.553 0 0 0-3.11-.907 3.553 3.553 0 0 0-2.55 1.998.608.608 0 0 1-.434.338l-.09.019a3.547 3.547 0 0 0-2.72 4.134l.002.01c.127.663.06 1.351-.195 1.977l-.002.004a3.546 3.546 0 0 0 .428 3.47.553.553 0 0 1 .092.48 3.508 3.508 0 0 0-.055 1.55 3.454 3.454 0 0 0 4.05 2.742l9.058-1.746a3.454 3.454 0 0 0 2.741-4.051 3.507 3.507 0 0 0-.628-1.419.553.553 0 0 1-.092-.48Zm-13.483-.326-.013.002 1.744 2.242c.7 2.933 1.285-.247 4.104-.79 2.82-.544 4.683 2.51 4.243-.472l.549-3.605c-.31-1.303-1.28-1.212-1.47-1.175l-3.398.655a4.151 4.151 0 0 1-3.707-1.117.283.283 0 0 0-.476.148l-.047.221a2.476 2.476 0 0 1-1.055 1.577c-.017.012-.034.023-.05.032-.223.177-.733.677-.562 1.683l.073.32.065.279Z" fill="url(#l)"/><path fill-rule="evenodd" clip-rule="evenodd" d="M23.607 11.19a3.485 3.485 0 0 0 .051-1.572 3.523 3.523 0 0 0-.549-1.323l.006-.001a3.436 3.436 0 0 0-.401-.484l-.003-.003a3.482 3.482 0 0 1-.916-1.762l-.002-.011a3.547 3.547 0 0 0-4.153-2.81.58.58 0 0 1-.528-.153 3.553 3.553 0 0 0-3.11-.907 3.553 3.553 0 0 0-2.55 1.998.608.608 0 0 1-.434.338l-.09.019a3.547 3.547 0 0 0-2.72 4.134l.002.01c.127.663.06 1.351-.195 1.977l-.002.004a3.546 3.546 0 0 0 .428 3.47.553.553 0 0 1 .092.48 3.508 3.508 0 0 0-.055 1.55 3.454 3.454 0 0 0 4.05 2.742l9.058-1.746a3.454 3.454 0 0 0 2.741-4.051 3.507 3.507 0 0 0-.628-1.419.553.553 0 0 1-.092-.48Zm-13.483-.326-.013.002 1.744 2.242c.7 2.933 1.285-.247 4.104-.79 2.82-.544 4.683 2.51 4.243-.472l.549-3.605c-.31-1.303-1.28-1.212-1.47-1.175l-3.398.655a4.151 4.151 0 0 1-3.707-1.117.283.283 0 0 0-.476.148l-.047.221a2.476 2.476 0 0 1-1.055 1.577c-.017.012-.034.023-.05.032-.223.177-.733.677-.562 1.683l.073.32.065.279Z" fill="url(#m)"/><path fill-rule="evenodd" clip-rule="evenodd" d="M23.607 11.19a3.485 3.485 0 0 0 .051-1.572 3.523 3.523 0 0 0-.549-1.323l.006-.001a3.436 3.436 0 0 0-.401-.484l-.003-.003a3.482 3.482 0 0 1-.916-1.762l-.002-.011a3.547 3.547 0 0 0-4.153-2.81.58.58 0 0 1-.528-.153 3.553 3.553 0 0 0-3.11-.907 3.553 3.553 0 0 0-2.55 1.998.608.608 0 0 1-.434.338l-.09.019a3.547 3.547 0 0 0-2.72 4.134l.002.01c.127.663.06 1.351-.195 1.977l-.002.004a3.546 3.546 0 0 0 .428 3.47.553.553 0 0 1 .092.48 3.508 3.508 0 0 0-.055 1.55 3.454 3.454 0 0 0 4.05 2.742l9.058-1.746a3.454 3.454 0 0 0 2.741-4.051 3.507 3.507 0 0 0-.628-1.419.553.553 0 0 1-.092-.48Zm-13.483-.326-.013.002 1.744 2.242c.7 2.933 1.285-.247 4.104-.79 2.82-.544 4.683 2.51 4.243-.472l.549-3.605c-.31-1.303-1.28-1.212-1.47-1.175l-3.398.655a4.151 4.151 0 0 1-3.707-1.117.283.283 0 0 0-.476.148l-.047.221a2.476 2.476 0 0 1-1.055 1.577c-.017.012-.034.023-.05.032-.223.177-.733.677-.562 1.683l.073.32.065.279Z" fill="url(#n)"/><path d="M25.247 29.852c.98 0 1.77-.8 1.77-1.78l-.01-1.99c0-5.39-4.47-9.77-9.99-9.77-5.51 0-9.99 4.37-9.99 9.77l-.15 3.77h18.37Z" fill="#642FC5"/><path d="M25.247 29.852c.98 0 1.77-.8 1.77-1.78l-.01-1.99c0-5.39-4.47-9.77-9.99-9.77-5.51 0-9.99 4.37-9.99 9.77l-.15 3.77h18.37Z" fill="url(#o)"/><g filter="url(#p)"><path d="M17.017 16.313c-.72 0-1.42.08-2.09.22v2.42c0 3.48 2.93 6.25 6.41 6.06l5.58-.31c-.7-4.74-4.86-8.39-9.9-8.39Z" fill="url(#q)"/><path d="M17.017 16.313c-.72 0-1.42.08-2.09.22v2.42c0 3.48 2.93 6.25 6.41 6.06l5.58-.31c-.7-4.74-4.86-8.39-9.9-8.39Z" fill="url(#r)"/><path d="M17.017 16.313c-.72 0-1.42.08-2.09.22v2.42c0 3.48 2.93 6.25 6.41 6.06l5.58-.31c-.7-4.74-4.86-8.39-9.9-8.39Z" fill="url(#s)"/></g><g filter="url(#t)"><path d="M11.12 13.815a1.73 1.73 0 1 0-.655-3.396 1.73 1.73 0 0 0 .654 3.396Z" fill="url(#u)"/></g><g filter="url(#v)"><path d="M21.159 11.88a1.73 1.73 0 1 0-.655-3.396 1.73 1.73 0 0 0 .655 3.396Z" fill="url(#w)"/></g><g filter="url(#x)"><path d="M21.05 11.315a1.154 1.154 0 1 0-.437-2.267 1.154 1.154 0 0 0 .437 2.267Z" fill="#FFCA38"/><path d="M21.05 11.315a1.154 1.154 0 1 0-.437-2.267 1.154 1.154 0 0 0 .437 2.267Z" fill="url(#y)"/></g><g filter="url(#z)"><path d="M11.03 13.247a1.154 1.154 0 1 0-.436-2.267 1.154 1.154 0 0 0 .437 2.267Z" fill="#E28527"/><path d="M11.03 13.247a1.154 1.154 0 1 0-.436-2.267 1.154 1.154 0 0 0 .437 2.267Z" fill="url(#A)"/></g><g filter="url(#B)"><path d="m10.111 10.866.013-.002-.065-.278-.073-.321c-.171-1.006.338-1.506.563-1.683a.771.771 0 0 0 .05-.032c.017-.012.034-.024.05-.032.512-.367.88-.907 1.004-1.545l.047-.221a.283.283 0 0 1 .477-.148 4.151 4.151 0 0 0 3.706 1.117l3.398-.655c.19-.037 1.16-.128 1.47 1.175l.5 3.267c.44 2.983-1.487 5.414-4.306 5.957-2.82.544-5.512-.997-6.213-3.93l-.62-2.669Z" fill="url(#C)"/><path d="m10.111 10.866.013-.002-.065-.278-.073-.321c-.171-1.006.338-1.506.563-1.683a.771.771 0 0 0 .05-.032c.017-.012.034-.024.05-.032.512-.367.88-.907 1.004-1.545l.047-.221a.283.283 0 0 1 .477-.148 4.151 4.151 0 0 0 3.706 1.117l3.398-.655c.19-.037 1.16-.128 1.47 1.175l.5 3.267c.44 2.983-1.487 5.414-4.306 5.957-2.82.544-5.512-.997-6.213-3.93l-.62-2.669Z" fill="url(#D)"/><path d="m10.111 10.866.013-.002-.065-.278-.073-.321c-.171-1.006.338-1.506.563-1.683a.771.771 0 0 0 .05-.032c.017-.012.034-.024.05-.032.512-.367.88-.907 1.004-1.545l.047-.221a.283.283 0 0 1 .477-.148 4.151 4.151 0 0 0 3.706 1.117l3.398-.655c.19-.037 1.16-.128 1.47 1.175l.5 3.267c.44 2.983-1.487 5.414-4.306 5.957-2.82.544-5.512-.997-6.213-3.93l-.62-2.669Z" fill="url(#E)"/><path d="m10.111 10.866.013-.002-.065-.278-.073-.321c-.171-1.006.338-1.506.563-1.683a.771.771 0 0 0 .05-.032c.017-.012.034-.024.05-.032.512-.367.88-.907 1.004-1.545l.047-.221a.283.283 0 0 1 .477-.148 4.151 4.151 0 0 0 3.706 1.117l3.398-.655c.19-.037 1.16-.128 1.47 1.175l.5 3.267c.44 2.983-1.487 5.414-4.306 5.957-2.82.544-5.512-.997-6.213-3.93l-.62-2.669Z" fill="url(#F)"/><path d="m10.111 10.866.013-.002-.065-.278-.073-.321c-.171-1.006.338-1.506.563-1.683a.771.771 0 0 0 .05-.032c.017-.012.034-.024.05-.032.512-.367.88-.907 1.004-1.545l.047-.221a.283.283 0 0 1 .477-.148 4.151 4.151 0 0 0 3.706 1.117l3.398-.655c.19-.037 1.16-.128 1.47 1.175l.5 3.267c.44 2.983-1.487 5.414-4.306 5.957-2.82.544-5.512-.997-6.213-3.93l-.62-2.669Z" fill="url(#G)"/></g><path d="m10.111 10.866.013-.002-.065-.278-.073-.321c-.171-1.006.338-1.506.563-1.683a.771.771 0 0 0 .05-.032c.017-.012.034-.024.05-.032.512-.367.88-.907 1.004-1.545l.047-.221a.283.283 0 0 1 .477-.148 4.151 4.151 0 0 0 3.706 1.117l3.398-.655c.19-.037 1.16-.128 1.47 1.175l.5 3.267c.44 2.983-1.487 5.414-4.306 5.957-2.82.544-5.512-.997-6.213-3.93l-.62-2.669Z" fill="url(#H)"/><g filter="url(#I)"><path d="m15.277 11.008-.375 1.934a.58.58 0 0 0 .691.632l.83-.16a.581.581 0 0 0 .408-.844l-.907-1.686c-.197-.375-.598-.297-.647.124Z" fill="#EB8B29"/></g><g filter="url(#J)"><path d="m15.26 10.86-.215 1.902a.58.58 0 0 0 .692.633l.83-.16a.581.581 0 0 0 .407-.844l-.907-1.686c-.197-.375-.758-.267-.807.155Z" fill="url(#K)"/><path d="m15.26 10.86-.215 1.902a.58.58 0 0 0 .692.633l.83-.16a.581.581 0 0 0 .407-.844l-.907-1.686c-.197-.375-.758-.267-.807.155Z" fill="url(#L)"/><path d="m15.26 10.86-.215 1.902a.58.58 0 0 0 .692.633l.83-.16a.581.581 0 0 0 .407-.844l-.907-1.686c-.197-.375-.758-.267-.807.155Z" fill="url(#M)"/><path d="m15.26 10.86-.215 1.902a.58.58 0 0 0 .692.633l.83-.16a.581.581 0 0 0 .407-.844l-.907-1.686c-.197-.375-.758-.267-.807.155Z" fill="url(#N)"/></g><g filter="url(#O)"><path d="m15.196 10.655-.215 1.902a.58.58 0 0 0 .692.633l.83-.16a.581.581 0 0 0 .407-.845l-.907-1.686c-.197-.374-.758-.266-.807.156Z" fill="url(#P)"/></g><g filter="url(#Q)"><path d="M16.368 14.502a3.253 3.253 0 0 1-1.57-.075c-.164-.048-.29.154-.17.273a2.076 2.076 0 0 0 3.429-.66c.066-.162-.125-.297-.259-.19-.39.314-.875.545-1.43.652Z" stroke="url(#R)" stroke-width=".2"/></g><path d="M16.368 14.502a3.253 3.253 0 0 1-1.57-.075c-.164-.048-.29.154-.17.273a2.076 2.076 0 0 0 3.429-.66c.066-.162-.125-.297-.259-.19-.39.314-.875.545-1.43.652Z" fill="#8A004F"/><g filter="url(#S)"><path d="M9.348 5.812c.543-.71 1.487-.898 2.036-.906l.687 1.28c-.279.011-.502.152-.668.386-.225 1.423-1.737 2.475-2.465 2.824-.462-1.544-.527-2.357.41-3.584Z" fill="url(#T)"/><path d="M9.348 5.812c.543-.71 1.487-.898 2.036-.906l.687 1.28c-.279.011-.502.152-.668.386-.225 1.423-1.737 2.475-2.465 2.824-.462-1.544-.527-2.357.41-3.584Z" fill="url(#U)"/></g><g filter="url(#V)"><path d="M13.515 3.065c-1.246-.034-2.282 1.485-2.32 1.951 2.363 3.508 4.792 2.662 7.505 1.82 1.624-.505 1.95.216 2.162.555-1.285-4.192-4.507-4.25-7.347-4.326Z" fill="url(#W)"/><path d="M13.515 3.065c-1.246-.034-2.282 1.485-2.32 1.951 2.363 3.508 4.792 2.662 7.505 1.82 1.624-.505 1.95.216 2.162.555-1.285-4.192-4.507-4.25-7.347-4.326Z" fill="url(#X)"/><path d="M13.515 3.065c-1.246-.034-2.282 1.485-2.32 1.951 2.363 3.508 4.792 2.662 7.505 1.82 1.624-.505 1.95.216 2.162.555-1.285-4.192-4.507-4.25-7.347-4.326Z" fill="url(#Y)"/></g><g filter="url(#Z)"><path d="M11.355 4.848c.074.252.483 1.173.922 1.694" stroke="url(#aa)" stroke-width=".1" stroke-linecap="round"/></g><path d="M18.83 10.082c-.08.01-.14.06-.19.13-.16.26-.42.45-.74.51s-.63-.03-.86-.23a.286.286 0 0 0-.22-.06c-.22.04-.3.32-.12.47.35.29.82.43 1.3.34.48-.08.87-.37 1.11-.77.11-.19-.06-.43-.28-.39Z" fill="url(#ab)"/><path d="M14.2 10.892c-.08.01-.14.06-.19.13-.16.26-.42.45-.74.51-.31.06-.62-.03-.86-.22a.252.252 0 0 0-.22-.06c-.22.04-.3.32-.12.47.35.29.82.43 1.3.34.48-.08.87-.37 1.11-.77.11-.19-.06-.43-.28-.4Z" fill="url(#ac)"/><path d="M27.184 27.357c-.013-.404-.165-2.417-.222-3.117l-2.825.18-3.008 3.324c0 1.264.513 1.95.805 2.108h4.39c.97-.963.869-2.21.86-2.495Z" fill="url(#ad)"/><path d="M27.184 27.357c-.013-.404-.165-2.417-.222-3.117l-2.825.18-3.008 3.324c0 1.264.513 1.95.805 2.108h4.39c.97-.963.869-2.21.86-2.495Z" fill="url(#ae)"/><path d="M27.184 27.357c-.013-.404-.165-2.417-.222-3.117l-2.825.18-3.008 3.324c0 1.264.513 1.95.805 2.108h4.39c.97-.963.869-2.21.86-2.495Z" fill="url(#af)"/><g filter="url(#ag)"><path d="M13.238 16.918c-3.352 1.352-6.48 5.4-8.31 7.956-.712.853-1.72 2.661-.087 4.978h9.18c.104-.703.154-1.981-.053-3.129-.11-.612-.72-.996-1.341-.996H11.43c.102-.265.731-1.357 1.801-1.936.505-.274.855-.563 1.413-.887l.495-.287.73-.42a6.027 6.027 0 0 1-.942-3.245V17.5a5.222 5.222 0 0 1-1.689-.582Z" fill="url(#ah)"/><path d="M13.238 16.918c-3.352 1.352-6.48 5.4-8.31 7.956-.712.853-1.72 2.661-.087 4.978h9.18c.104-.703.154-1.981-.053-3.129-.11-.612-.72-.996-1.341-.996H11.43c.102-.265.731-1.357 1.801-1.936.505-.274.855-.563 1.413-.887l.495-.287.73-.42a6.027 6.027 0 0 1-.942-3.245V17.5a5.222 5.222 0 0 1-1.689-.582Z" fill="url(#ai)"/><path d="M13.238 16.918c-3.352 1.352-6.48 5.4-8.31 7.956-.712.853-1.72 2.661-.087 4.978h9.18c.104-.703.154-1.981-.053-3.129-.11-.612-.72-.996-1.341-.996H11.43c.102-.265.731-1.357 1.801-1.936.505-.274.855-.563 1.413-.887l.495-.287.73-.42a6.027 6.027 0 0 1-.942-3.245V17.5a5.222 5.222 0 0 1-1.689-.582Z" fill="url(#aj)"/><path d="M13.238 16.918c-3.352 1.352-6.48 5.4-8.31 7.956-.712.853-1.72 2.661-.087 4.978h9.18c.104-.703.154-1.981-.053-3.129-.11-.612-.72-.996-1.341-.996H11.43c.102-.265.731-1.357 1.801-1.936.505-.274.855-.563 1.413-.887l.495-.287.73-.42a6.027 6.027 0 0 1-.942-3.245V17.5a5.222 5.222 0 0 1-1.689-.582Z" fill="url(#ak)"/></g><g filter="url(#al)"><path d="M10.415 25.654h1.57l.977-1.594c-1.675-.138-2.396 1.005-2.547 1.594Z" fill="url(#am)"/></g><g filter="url(#an)"><path d="M26.282 26.412c.273.906.367 2.164-.797 3.18" stroke="url(#ao)" stroke-width=".2"/></g><g filter="url(#ap)"><path fill="url(#aq)" d="M7.337 27.013h6.034v2.188H7.337z"/></g><g filter="url(#ar)"><path d="M11.3 21.014c.344.635 1.032 2.28 1.032 3.78" stroke="url(#as)" stroke-width=".4"/></g><g filter="url(#at)"><path d="M13.12 23.767a3.24 3.24 0 0 1 .068-.038c.505-.274.898-.501 1.456-.825l.495-.286.04-.024.69-.396-.005-.007c1.997-1.01 4.472-.299 5.603 1.672 1.18 2.04.48 4.64-1.56 5.8l-.3.18h-5.584c.102-.705.151-1.977-.054-3.12-.11-.612-.721-.996-1.342-.996h-1.193c.048-.111.1-.221.156-.329.159-.288.425-.695.8-1.066.218-.21.462-.4.73-.565Z" fill="url(#au)"/><path d="M13.12 23.767a3.24 3.24 0 0 1 .068-.038c.505-.274.898-.501 1.456-.825l.495-.286.04-.024.69-.396-.005-.007c1.997-1.01 4.472-.299 5.603 1.672 1.18 2.04.48 4.64-1.56 5.8l-.3.18h-5.584c.102-.705.151-1.977-.054-3.12-.11-.612-.721-.996-1.342-.996h-1.193c.048-.111.1-.221.156-.329.159-.288.425-.695.8-1.066.218-.21.462-.4.73-.565Z" fill="url(#av)"/></g><g filter="url(#aw)"><path d="M13.987 29.852h5.601c.47 0 .85-.38.85-.85 0-.545-.507-.957-1.05-.9-1.243.13-2.714.11-3.596.067a.05.05 0 0 1-.028-.089l1.002-.802a.954.954 0 0 0-1.128-1.536l-1.651 1.11c.185 1.102.097 2.307 0 3Z" fill="url(#ax)"/><path d="M13.987 29.852h5.601c.47 0 .85-.38.85-.85 0-.545-.507-.957-1.05-.9-1.243.13-2.714.11-3.596.067a.05.05 0 0 1-.028-.089l1.002-.802a.954.954 0 0 0-1.128-1.536l-1.651 1.11c.185 1.102.097 2.307 0 3Z" fill="url(#ay)"/><path d="M13.987 29.852h5.601c.47 0 .85-.38.85-.85 0-.545-.507-.957-1.05-.9-1.243.13-2.714.11-3.596.067a.05.05 0 0 1-.028-.089l1.002-.802a.954.954 0 0 0-1.128-1.536l-1.651 1.11c.185 1.102.097 2.307 0 3Z" fill="url(#az)"/><path d="M13.987 29.852h5.601c.47 0 .85-.38.85-.85 0-.545-.507-.957-1.05-.9-1.243.13-2.714.11-3.596.067a.05.05 0 0 1-.028-.089l1.002-.802a.954.954 0 0 0-1.128-1.536l-1.651 1.11c.185 1.102.097 2.307 0 3Z" fill="url(#aA)"/></g><path d="M23.077 27.013a4.3 4.3 0 1 0 0-8.6c-2.375 0-3.553 1.925-3.553 4.3s1.178 4.3 3.553 4.3Z" fill="url(#aB)"/><path d="M23.077 27.013a4.3 4.3 0 1 0 0-8.6c-2.375 0-3.553 1.925-3.553 4.3s1.178 4.3 3.553 4.3Z" fill="url(#aC)"/><path d="M21.207 23.793a4.3 4.3 0 0 1 .71-5.22 4.31 4.31 0 0 0-2.61 6.21 4.304 4.304 0 0 0 6.78 1.01c-1.84.51-3.87-.26-4.88-2Z" fill="url(#aD)"/><path d="M21.207 23.793a4.3 4.3 0 0 1 .71-5.22 4.31 4.31 0 0 0-2.61 6.21 4.304 4.304 0 0 0 6.78 1.01c-1.84.51-3.87-.26-4.88-2Z" fill="url(#aE)"/><g filter="url(#aF)"><path d="M20.604 21.956a.64.64 0 0 1 .913.019c.447.475 1.16 1.226 1.82 1.886a.05.05 0 0 0 .085-.04l-.089-.925a.67.67 0 0 1 1.32-.21l.693 3.103a2.173 2.173 0 0 1-1.688 2.751c-.698.2-1.486-.121-1.795-.308l-2.78-1.69a.632.632 0 0 1 .627-1.097l-.597-.429a.62.62 0 1 1 .737-1l.186.142-.656-.52a.648.648 0 1 1 .837-.989l1.157 1.046-.791-.853a.636.636 0 0 1 .02-.886Z" fill="url(#aG)"/><path d="M20.604 21.956a.64.64 0 0 1 .913.019c.447.475 1.16 1.226 1.82 1.886a.05.05 0 0 0 .085-.04l-.089-.925a.67.67 0 0 1 1.32-.21l.693 3.103a2.173 2.173 0 0 1-1.688 2.751c-.698.2-1.486-.121-1.795-.308l-2.78-1.69a.632.632 0 0 1 .627-1.097l-.597-.429a.62.62 0 1 1 .737-1l.186.142-.656-.52a.648.648 0 1 1 .837-.989l1.157 1.046-.791-.853a.636.636 0 0 1 .02-.886Z" fill="url(#aH)"/><path d="M20.604 21.956a.64.64 0 0 1 .913.019c.447.475 1.16 1.226 1.82 1.886a.05.05 0 0 0 .085-.04l-.089-.925a.67.67 0 0 1 1.32-.21l.693 3.103a2.173 2.173 0 0 1-1.688 2.751c-.698.2-1.486-.121-1.795-.308l-2.78-1.69a.632.632 0 0 1 .627-1.097l-.597-.429a.62.62 0 1 1 .737-1l.186.142-.656-.52a.648.648 0 1 1 .837-.989l1.157 1.046-.791-.853a.636.636 0 0 1 .02-.886Z" fill="url(#aI)"/><path d="M20.604 21.956a.64.64 0 0 1 .913.019c.447.475 1.16 1.226 1.82 1.886a.05.05 0 0 0 .085-.04l-.089-.925a.67.67 0 0 1 1.32-.21l.693 3.103a2.173 2.173 0 0 1-1.688 2.751c-.698.2-1.486-.121-1.795-.308l-2.78-1.69a.632.632 0 0 1 .627-1.097l-.597-.429a.62.62 0 1 1 .737-1l.186.142-.656-.52a.648.648 0 1 1 .837-.989l1.157 1.046-.791-.853a.636.636 0 0 1 .02-.886Z" fill="url(#aJ)"/><path d="M20.604 21.956a.64.64 0 0 1 .913.019c.447.475 1.16 1.226 1.82 1.886a.05.05 0 0 0 .085-.04l-.089-.925a.67.67 0 0 1 1.32-.21l.693 3.103a2.173 2.173 0 0 1-1.688 2.751c-.698.2-1.486-.121-1.795-.308l-2.78-1.69a.632.632 0 0 1 .627-1.097l-.597-.429a.62.62 0 1 1 .737-1l.186.142-.656-.52a.648.648 0 1 1 .837-.989l1.157 1.046-.791-.853a.636.636 0 0 1 .02-.886Z" fill="url(#aK)"/></g><path d="M20.604 21.956a.64.64 0 0 1 .913.019c.447.475 1.16 1.226 1.82 1.886a.05.05 0 0 0 .085-.04l-.089-.925a.67.67 0 0 1 1.32-.21l.693 3.103a2.173 2.173 0 0 1-1.688 2.751c-.698.2-1.486-.121-1.795-.308l-2.78-1.69a.632.632 0 0 1 .627-1.097l-.597-.429a.62.62 0 1 1 .737-1l.186.142-.656-.52a.648.648 0 1 1 .837-.989l1.157 1.046-.791-.853a.636.636 0 0 1 .02-.886Z" fill="url(#aL)"/><g filter="url(#aM)"><path d="M8.4 25.58h2.452c.425-.69 1.037-1.514 1.36-1.841a7.102 7.102 0 0 0-.531-1.663c-1.125.974-2.657 2.742-3.282 3.504Z" fill="url(#aN)"/></g><g filter="url(#aO)" stroke-width=".2" stroke-linecap="round"><path d="M16.876 10.682c.13.122.518.353 1.022.298.504-.054.947-.543 1.06-.728" stroke="url(#aP)"/><path d="M16.876 10.682c.13.122.518.353 1.022.298.504-.054.947-.543 1.06-.728" stroke="url(#aQ)"/></g><g filter="url(#aR)" stroke-width=".2" stroke-linecap="round"><path d="M12.277 11.492c.13.122.518.352 1.022.298.504-.055.947-.543 1.06-.728" stroke="url(#aS)"/><path d="M12.277 11.492c.13.122.518.352 1.022.298.504-.055.947-.543 1.06-.728" stroke="url(#aT)"/></g><g filter="url(#aU)"><path d="M11.977 9.623c1.375-.263 2.391.359 2.672 1.125-1.287-.338-2.07-.118-2.507.117l-.165-1.242Z" fill="url(#aV)"/></g><g filter="url(#aW)"><path d="M16.837 8.374c1.4.011 2.275.82 2.401 1.625-1.197-.582-2.008-.519-2.482-.374l.081-1.25Z" fill="url(#aX)"/></g><g filter="url(#aY)"><path d="m11.79 9.787-.005.004a.288.288 0 0 1-.384-.43l.001-.001.003-.003.009-.007a3.51 3.51 0 0 1 .541-.365c.336-.184.82-.377 1.38-.386a.288.288 0 1 1 .008.576 2.44 2.44 0 0 0-1.112.315 2.937 2.937 0 0 0-.441.297Z" fill="#A64023"/></g><g filter="url(#aZ)"><path fill-rule="evenodd" clip-rule="evenodd" d="m19.24 7.921-.098.271.099-.27a.288.288 0 0 1-.197.541h-.001l-.005-.002a2.95 2.95 0 0 0-.52-.111 2.44 2.44 0 0 0-1.15.12.288.288 0 0 1-.206-.538c.523-.2 1.043-.2 1.424-.155a3.52 3.52 0 0 1 .638.138l.011.004.004.002h.002Z" fill="#A64023"/></g><g filter="url(#ba)"><path d="M17.321 8.141c.325-.148 1.18-.27 1.823.026" stroke="#B45C48" stroke-width=".2" stroke-linecap="round"/></g><g filter="url(#bb)"><path d="M13.3 8.845c-.356-.017-1.195.187-1.682.701" stroke="#B45C48" stroke-width=".2" stroke-linecap="round"/></g><g filter="url(#bc)"><path d="m21.15 22.248 2.109 2.14" stroke="url(#bd)" stroke-width=".4" stroke-linecap="round"/></g><g filter="url(#be)"><path d="m19.867 22.978 2.11 2.14" stroke="url(#bf)" stroke-width=".4" stroke-linecap="round"/></g><g filter="url(#bg)"><path d="m19.93 22.88 2.094 1.727" stroke="url(#bh)" stroke-width=".4" stroke-linecap="round"/></g><g filter="url(#bi)"><path d="m19.493 24.255 1.906 1.211" stroke="url(#bj)" stroke-width=".4" stroke-linecap="round"/></g><g filter="url(#bk)"><path d="m19.477 25.78 1.157.609" stroke="url(#bl)" stroke-width=".4" stroke-linecap="round"/></g><defs><radialGradient id="c" cx="0" cy="0" r="1" gradientUnits="userSpaceOnUse" gradientTransform="rotate(79.088 -2.96 13.98) scale(4.78973 2.88566)"><stop stop-color="#C9641B"/><stop offset="1" stop-color="#D77117" stop-opacity="0"/></radialGradient><radialGradient id="d" cx="0" cy="0" r="1" gradientUnits="userSpaceOnUse" gradientTransform="matrix(1.13345 5.87936 -6.12443 1.1807 16.17 13.408)"><stop offset=".617" stop-color="#E26B25"/><stop offset="1" stop-color="#E26B25" stop-opacity="0"/></radialGradient><radialGradient id="e" cx="0" cy="0" r="1" gradientUnits="userSpaceOnUse" gradientTransform="rotate(116.706 1.457 9.523) scale(2.18477 2.1213)"><stop offset=".161" stop-color="#C9681C"/><stop offset="1" stop-color="#C9681C" stop-opacity="0"/></radialGradient><radialGradient id="f" cx="0" cy="0" r="1" gradientUnits="userSpaceOnUse" gradientTransform="matrix(.01797 2.74805 -2.86158 .0187 10.748 9.81)"><stop offset=".365" stop-color="#D76A18"/><stop offset="1" stop-color="#D76A18" stop-opacity="0"/></radialGradient><radialGradient id="g" cx="0" cy="0" r="1" gradientUnits="userSpaceOnUse" gradientTransform="rotate(51.693 .958 13.246) scale(2.55903 4.87489)"><stop offset=".222" stop-color="#CBA140"/><stop offset=".921" stop-color="#CBA140" stop-opacity="0"/></radialGradient><radialGradient id="h" cx="0" cy="0" r="1" gradientUnits="userSpaceOnUse" gradientTransform="matrix(-.92196 1.49868 -2.09438 -1.28842 20.37 3.981)"><stop stop-color="#FFDF3C"/><stop offset="1" stop-color="#FFDF3C" stop-opacity="0"/></radialGradient><radialGradient id="i" cx="0" cy="0" r="1" gradientUnits="userSpaceOnUse" gradientTransform="matrix(-1.83658 .94116 -2.04784 -3.99616 23.488 8.738)"><stop stop-color="#FFD537"/><stop offset="1" stop-color="#FFD336" stop-opacity="0"/><stop offset="1" stop-color="#FFD537" stop-opacity="0"/></radialGradient><radialGradient id="j" cx="0" cy="0" r="1" gradientUnits="userSpaceOnUse" gradientTransform="matrix(-.28851 -1.44873 .475 -.0946 11.932 6.787)"><stop offset=".295" stop-color="#DB6009"/><stop offset="1" stop-color="#DB6009" stop-opacity="0"/></radialGradient><radialGradient id="k" cx="0" cy="0" r="1" gradientUnits="userSpaceOnUse" gradientTransform="rotate(118.526 5.491 9.217) scale(11.8441 14.5952)"><stop offset=".792" stop-color="#DB7725" stop-opacity="0"/><stop offset=".969" stop-color="#B2614C"/></radialGradient><radialGradient id="m" cx="0" cy="0" r="1" gradientUnits="userSpaceOnUse" gradientTransform="matrix(-4.4375 -.25004 .37412 -6.63958 13.837 17.107)"><stop stop-color="#8C450C"/><stop offset="1" stop-color="#BB5D1B" stop-opacity="0"/></radialGradient><radialGradient id="n" cx="0" cy="0" r="1" gradientUnits="userSpaceOnUse" gradientTransform="matrix(.75 -1.8125 4.88961 2.02328 19.837 17.607)"><stop offset=".34" stop-color="#CE6826"/><stop offset="1" stop-color="#CE6826" stop-opacity="0"/></radialGradient><radialGradient id="o" cx="0" cy="0" r="1" gradientUnits="userSpaceOnUse" gradientTransform="matrix(2.03125 0 0 1.9893 19.18 29.852)"><stop stop-color="#7B42DC"/><stop offset="1" stop-color="#7B42DC" stop-opacity="0"/></radialGradient><radialGradient id="q" cx="0" cy="0" r="1" gradientUnits="userSpaceOnUse" gradientTransform="matrix(-6.50378 0 0 -5.6875 21.43 19.076)"><stop stop-color="#FFE43A"/><stop offset="1" stop-color="#FFC132"/></radialGradient><radialGradient id="r" cx="0" cy="0" r="1" gradientUnits="userSpaceOnUse" gradientTransform="rotate(-154.983 12.292 9.018) scale(2.5864 3.5607)"><stop stop-color="#E5AD2A"/><stop offset="1" stop-color="#FFC132" stop-opacity="0"/></radialGradient><radialGradient id="s" cx="0" cy="0" r="1" gradientUnits="userSpaceOnUse" gradientTransform="rotate(68.199 -3.915 20.364) scale(2.27187 4.46829)"><stop offset=".373" stop-color="#D67E02"/><stop offset="1" stop-color="#EB9A0D" stop-opacity="0"/></radialGradient><radialGradient id="w" cx="0" cy="0" r="1" gradientUnits="userSpaceOnUse" gradientTransform="matrix(2.39665 -1.70043 2.07614 2.9262 20.09 10.806)"><stop offset=".572" stop-color="#FFC531"/><stop offset=".905" stop-color="#FFE549"/></radialGradient><radialGradient id="y" cx="0" cy="0" r="1" gradientUnits="userSpaceOnUse" gradientTransform="rotate(-31.209 29.079 -31.696) scale(1.40215)"><stop offset=".71" stop-color="#FFBA25" stop-opacity="0"/><stop offset="1" stop-color="#FFBA25"/></radialGradient><radialGradient id="A" cx="0" cy="0" r="1" gradientUnits="userSpaceOnUse" gradientTransform="rotate(169.088 4.828 6.573) scale(1.15444 1.10429)"><stop offset=".415" stop-color="#D67923" stop-opacity="0"/><stop offset="1" stop-color="#D67923"/></radialGradient><radialGradient id="C" cx="0" cy="0" r="1" gradientUnits="userSpaceOnUse" gradientTransform="rotate(144.332 7.712 8.007) scale(7.69734 10.3028)"><stop stop-color="#FFE644"/><stop offset="1" stop-color="#EB9235"/></radialGradient><radialGradient id="D" cx="0" cy="0" r="1" gradientUnits="userSpaceOnUse" gradientTransform="matrix(-1.9995 1.6069 -1.36334 -1.69644 17.775 10.946)"><stop stop-color="#FFE842"/><stop offset="1" stop-color="#FFE842" stop-opacity="0"/></radialGradient><radialGradient id="E" cx="0" cy="0" r="1" gradientUnits="userSpaceOnUse" gradientTransform="rotate(-89.222 16.577 1.645) scale(4.43973 5.63319)"><stop stop-color="#E4883F"/><stop offset="1" stop-color="#E4883F" stop-opacity="0"/></radialGradient><radialGradient id="F" cx="0" cy="0" r="1" gradientUnits="userSpaceOnUse" gradientTransform="matrix(1.51383 7.85245 -12.47185 2.40439 15.253 10.14)"><stop offset=".593" stop-color="#EE9D35" stop-opacity="0"/><stop offset="1" stop-color="#DD9318"/></radialGradient><radialGradient id="G" cx="0" cy="0" r="1" gradientUnits="userSpaceOnUse" gradientTransform="matrix(-5.41767 2.6857 -4.62396 -9.32758 16.627 12.217)"><stop offset=".877" stop-color="#D4993E" stop-opacity="0"/><stop offset="1" stop-color="#D4993E"/></radialGradient><radialGradient id="H" cx="0" cy="0" r="1" gradientUnits="userSpaceOnUse" gradientTransform="matrix(-1.42151 .27405 -.90217 -4.67965 21.223 10.688)"><stop stop-color="#FFDA39"/><stop offset="1" stop-color="#FFDA39" stop-opacity="0"/></radialGradient><radialGradient id="L" cx="0" cy="0" r="1" gradientUnits="userSpaceOnUse" gradientTransform="matrix(-1.23444 -2.44346 1.39818 -.70636 16.82 12.332)"><stop offset=".017" stop-color="#FFE848"/><stop offset="1" stop-color="#FFE848" stop-opacity="0"/></radialGradient><radialGradient id="T" cx="0" cy="0" r="1" gradientUnits="userSpaceOnUse" gradientTransform="matrix(-2.76628 5.06487 -2.20895 -1.20646 11.457 4.378)"><stop offset=".396" stop-color="#EE971B" stop-opacity="0"/><stop offset=".911" stop-color="#D8772C"/></radialGradient><radialGradient id="U" cx="0" cy="0" r="1" gradientUnits="userSpaceOnUse" gradientTransform="rotate(133.546 4.64 4.943) scale(4.09838 2.02548)"><stop offset=".12" stop-color="#FFCA2D"/><stop offset="1" stop-color="#FFE134" stop-opacity="0"/><stop offset="1" stop-color="#FFCA2D" stop-opacity="0"/></radialGradient><radialGradient id="W" cx="0" cy="0" r="1" gradientUnits="userSpaceOnUse" gradientTransform="matrix(-1.37955 5.2518 -7.45668 -1.95873 15.974 2.224)"><stop offset=".627" stop-color="#F49523" stop-opacity="0"/><stop offset="1" stop-color="#F49523"/></radialGradient><radialGradient id="X" cx="0" cy="0" r="1" gradientUnits="userSpaceOnUse" gradientTransform="rotate(94.997 6.935 9.483) scale(3.6973 7.74838)"><stop offset=".132" stop-color="#FFE337"/><stop offset="1" stop-color="#FFE337" stop-opacity="0"/></radialGradient><radialGradient id="Y" cx="0" cy="0" r="1" gradientUnits="userSpaceOnUse" gradientTransform="matrix(-4.9218 -6.13025 5.48007 -4.39979 16.698 9.62)"><stop offset=".898" stop-color="#CA9B37" stop-opacity="0"/><stop offset="1" stop-color="#CA9B37"/></radialGradient><radialGradient id="ae" cx="0" cy="0" r="1" gradientUnits="userSpaceOnUse" gradientTransform="rotate(36.198 -30.213 48.966) scale(3.46586 3.31477)"><stop offset=".91" stop-color="#8C60D9"/><stop offset="1" stop-color="#8C60D9" stop-opacity="0"/></radialGradient><radialGradient id="af" cx="0" cy="0" r="1" gradientUnits="userSpaceOnUse" gradientTransform="matrix(1.3125 1.3125 -2.12008 2.12008 21.68 27.732)"><stop stop-color="#6440B8"/><stop offset="1" stop-color="#6440B8" stop-opacity="0"/></radialGradient><radialGradient id="ai" cx="0" cy="0" r="1" gradientUnits="userSpaceOnUse" gradientTransform="rotate(126.08 2.976 12.005) scale(4.98797 9.68383)"><stop offset=".028" stop-color="#6A428C"/><stop offset="1" stop-color="#885EBC" stop-opacity="0"/></radialGradient><radialGradient id="aj" cx="0" cy="0" r="1" gradientUnits="userSpaceOnUse" gradientTransform="matrix(0 2.45313 -.6875 0 13.54 28.232)"><stop stop-color="#AC7FF8"/><stop offset="1" stop-color="#A476F3" stop-opacity="0"/></radialGradient><radialGradient id="ak" cx="0" cy="0" r="1" gradientUnits="userSpaceOnUse" gradientTransform="rotate(-117.519 14.448 7.23) scale(1.35267 2.95016)"><stop offset=".079" stop-color="#7556B0"/><stop offset="1" stop-color="#9165D2" stop-opacity="0"/></radialGradient><radialGradient id="am" cx="0" cy="0" r="1" gradientUnits="userSpaceOnUse" gradientTransform="matrix(1.35937 -1.6057 .88152 .74629 11.43 25.654)"><stop stop-color="#44327F"/><stop offset="1" stop-color="#44327F" stop-opacity="0"/></radialGradient><radialGradient id="ao" cx="0" cy="0" r="1" gradientUnits="userSpaceOnUse" gradientTransform="rotate(-162.16 15.372 12.051) scale(.71402 1.53504)"><stop offset=".287" stop-color="#A980F3"/><stop offset="1" stop-color="#A980F3" stop-opacity="0"/></radialGradient><radialGradient id="av" cx="0" cy="0" r="1" gradientUnits="userSpaceOnUse" gradientTransform="rotate(163.67 8.929 15.433) scale(5.1125 7.55864)"><stop stop-color="#248571"/><stop offset="1" stop-color="#248571" stop-opacity="0"/></radialGradient><radialGradient id="ax" cx="0" cy="0" r="1" gradientUnits="userSpaceOnUse" gradientTransform="matrix(3.3638 -1.04205 1.57356 5.07954 14.95 28.758)"><stop stop-color="#FFCD38"/><stop offset="1" stop-color="#FFBE38"/></radialGradient><radialGradient id="aA" cx="0" cy="0" r="1" gradientUnits="userSpaceOnUse" gradientTransform="rotate(-89.432 24.486 5.421) scale(.79127 4.62191)"><stop offset=".067" stop-color="#F69449"/><stop offset="1" stop-color="#FFC339" stop-opacity="0"/></radialGradient><radialGradient id="aB" cx="0" cy="0" r="1" gradientUnits="userSpaceOnUse" gradientTransform="rotate(154.496 10.637 13.731) scale(3.77401 4.40797)"><stop stop-color="#53FFA2"/><stop offset="1" stop-color="#34E38B"/></radialGradient><radialGradient id="aC" cx="0" cy="0" r="1" gradientUnits="userSpaceOnUse" gradientTransform="rotate(42.983 -16.059 40.17) scale(5.22527)"><stop offset=".732" stop-color="#51E398" stop-opacity="0"/><stop offset=".995" stop-color="#51E398"/></radialGradient><radialGradient id="aE" cx="0" cy="0" r="1" gradientUnits="userSpaceOnUse" gradientTransform="matrix(.39062 -3.01563 4.79304 .62086 19.087 24.326)"><stop stop-color="#309972"/><stop offset="1" stop-color="#309972" stop-opacity="0"/></radialGradient><radialGradient id="aG" cx="0" cy="0" r="1" gradientUnits="userSpaceOnUse" gradientTransform="matrix(-4.43753 -3.96872 3.86667 -4.32342 24.024 27.732)"><stop stop-color="#FFC43D"/><stop offset="1" stop-color="#FFBE3B"/></radialGradient><radialGradient id="aH" cx="0" cy="0" r="1" gradientUnits="userSpaceOnUse" gradientTransform="matrix(2.25781 1.67188 -.22076 .29813 19.04 23.318)"><stop stop-color="#E39723"/><stop offset="1" stop-color="#E39723" stop-opacity="0"/></radialGradient><radialGradient id="aI" cx="0" cy="0" r="1" gradientUnits="userSpaceOnUse" gradientTransform="matrix(1.89294 1.21094 -.1599 .24995 18.78 24.85)"><stop stop-color="#E39723"/><stop offset="1" stop-color="#E39723" stop-opacity="0"/></radialGradient><radialGradient id="aJ" cx="0" cy="0" r="1" gradientUnits="userSpaceOnUse" gradientTransform="matrix(1.70752 2.17188 -.28678 .22547 20.4 22.404)"><stop stop-color="#E39723"/><stop offset="0" stop-color="#F1A028"/><stop offset="1" stop-color="#F1A028" stop-opacity="0"/></radialGradient><radialGradient id="aK" cx="0" cy="0" r="1" gradientUnits="userSpaceOnUse" gradientTransform="matrix(.21875 1.58593 -.49286 .06798 23.345 22.834)"><stop stop-color="#E6AC25"/><stop offset="1" stop-color="#E6AC25" stop-opacity="0"/></radialGradient><radialGradient id="aQ" cx="0" cy="0" r="1" gradientUnits="userSpaceOnUse" gradientTransform="matrix(-.12314 .21283 -.20557 -.11894 18.869 10.312)"><stop stop-color="#B76F5C"/><stop offset="1" stop-color="#B76F5C" stop-opacity="0"/></radialGradient><radialGradient id="aT" cx="0" cy="0" r="1" gradientUnits="userSpaceOnUse" gradientTransform="matrix(-.12314 .21283 -.20557 -.11894 14.27 11.122)"><stop stop-color="#B76F5C"/><stop offset="1" stop-color="#B76F5C" stop-opacity="0"/></radialGradient><filter id="a" x="7.744" y="1.849" width="16.897" height="17.101" filterUnits="userSpaceOnUse" color-interpolation-filters="sRGB"><feFlood flood-opacity="0" result="BackgroundImageFix"/><feBlend in="SourceGraphic" in2="BackgroundImageFix" result="shape"/><feColorMatrix in="SourceAlpha" values="0 0 0 0 0 0 0 0 0 0 0 0 0 0 0 0 0 0 127 0" result="hardAlpha"/><feOffset dx=".25" dy="-.25"/><feGaussianBlur stdDeviation=".375"/><feComposite in2="hardAlpha" operator="arithmetic" k2="-1" k3="1"/><feColorMatrix values="0 0 0 0 0.92549 0 0 0 0 0.537255 0 0 0 0 0.12549 0 0 0 1 0"/><feBlend in2="shape" result="effect1_innerShadow_4002_3504"/></filter><filter id="p" x="14.827" y="16.313" width="12.09" height="8.809" filterUnits="userSpaceOnUse" color-interpolation-filters="sRGB"><feFlood flood-opacity="0" result="BackgroundImageFix"/><feBlend in="SourceGraphic" in2="BackgroundImageFix" result="shape"/><feColorMatrix in="SourceAlpha" values="0 0 0 0 0 0 0 0 0 0 0 0 0 0 0 0 0 0 127 0" result="hardAlpha"/><feOffset dx="-.1" dy=".1"/><feGaussianBlur stdDeviation=".25"/><feComposite in2="hardAlpha" operator="arithmetic" k2="-1" k3="1"/><feColorMatrix values="0 0 0 0 1 0 0 0 0 0.796078 0 0 0 0 0.0627451 0 0 0 1 0"/><feBlend in2="shape" result="effect1_innerShadow_4002_3504"/></filter><filter id="t" x="9.062" y="10.387" width="3.559" height="3.459" filterUnits="userSpaceOnUse" color-interpolation-filters="sRGB"><feFlood flood-opacity="0" result="BackgroundImageFix"/><feBlend in="SourceGraphic" in2="BackgroundImageFix" result="shape"/><feColorMatrix in="SourceAlpha" values="0 0 0 0 0 0 0 0 0 0 0 0 0 0 0 0 0 0 127 0" result="hardAlpha"/><feOffset dx=".1"/><feGaussianBlur stdDeviation=".15"/><feComposite in2="hardAlpha" operator="arithmetic" k2="-1" k3="1"/><feColorMatrix values="0 0 0 0 0.768627 0 0 0 0 0.501961 0 0 0 0 0.160784 0 0 0 1 0"/><feBlend in2="shape" result="effect1_innerShadow_4002_3504"/></filter><filter id="v" x="19.102" y="8.202" width="3.459" height="3.709" filterUnits="userSpaceOnUse" color-interpolation-filters="sRGB"><feFlood flood-opacity="0" result="BackgroundImageFix"/><feBlend in="SourceGraphic" in2="BackgroundImageFix" result="shape"/><feColorMatrix in="SourceAlpha" values="0 0 0 0 0 0 0 0 0 0 0 0 0 0 0 0 0 0 127 0" result="hardAlpha"/><feOffset dy="-.25"/><feGaussianBlur stdDeviation=".25"/><feComposite in2="hardAlpha" operator="arithmetic" k2="-1" k3="1"/><feColorMatrix values="0 0 0 0 0.937255 0 0 0 0 0.576471 0 0 0 0 0.341176 0 0 0 1 0"/><feBlend in2="shape" result="effect1_innerShadow_4002_3504"/></filter><filter id="x" x="19.177" y="8.527" width="3.309" height="3.31" filterUnits="userSpaceOnUse" color-interpolation-filters="sRGB"><feFlood flood-opacity="0" result="BackgroundImageFix"/><feBlend in="SourceGraphic" in2="BackgroundImageFix" result="shape"/><feGaussianBlur stdDeviation=".25" result="effect1_foregroundBlur_4002_3504"/></filter><filter id="z" x="9.408" y="10.709" width="2.809" height="2.81" filterUnits="userSpaceOnUse" color-interpolation-filters="sRGB"><feFlood flood-opacity="0" result="BackgroundImageFix"/><feBlend in="SourceGraphic" in2="BackgroundImageFix" result="shape"/><feGaussianBlur stdDeviation=".125" result="effect1_foregroundBlur_4002_3504"/></filter><filter id="B" x="9.952" y="6.522" width="11.362" height="11.251" filterUnits="userSpaceOnUse" color-interpolation-filters="sRGB"><feFlood flood-opacity="0" result="BackgroundImageFix"/><feBlend in="SourceGraphic" in2="BackgroundImageFix" result="shape"/><feColorMatrix in="SourceAlpha" values="0 0 0 0 0 0 0 0 0 0 0 0 0 0 0 0 0 0 127 0" result="hardAlpha"/><feOffset dy=".2"/><feGaussianBlur stdDeviation=".15"/><feComposite in2="hardAlpha" operator="arithmetic" k2="-1" k3="1"/><feColorMatrix values="0 0 0 0 0.92549 0 0 0 0 0.529412 0 0 0 0 0.137255 0 0 0 1 0"/><feBlend in2="shape" result="effect1_innerShadow_4002_3504"/></filter><filter id="I" x="14.398" y="10.143" width="3.001" height="3.942" filterUnits="userSpaceOnUse" color-interpolation-filters="sRGB"><feFlood flood-opacity="0" result="BackgroundImageFix"/><feBlend in="SourceGraphic" in2="BackgroundImageFix" result="shape"/><feGaussianBlur stdDeviation=".25" result="effect1_foregroundBlur_4002_3504"/></filter><filter id="J" x="14.791" y="10.226" width="2.501" height="3.43" filterUnits="userSpaceOnUse" color-interpolation-filters="sRGB"><feFlood flood-opacity="0" result="BackgroundImageFix"/><feBlend in="SourceGraphic" in2="BackgroundImageFix" result="shape"/><feGaussianBlur stdDeviation=".125" result="effect1_foregroundBlur_4002_3504"/></filter><filter id="O" x="14.727" y="10.021" width="2.501" height="3.43" filterUnits="userSpaceOnUse" color-interpolation-filters="sRGB"><feFlood flood-opacity="0" result="BackgroundImageFix"/><feBlend in="SourceGraphic" in2="BackgroundImageFix" result="shape"/><feGaussianBlur stdDeviation=".125" result="effect1_foregroundBlur_4002_3504"/></filter><filter id="Q" x="14.38" y="13.611" width="3.89" height="1.933" filterUnits="userSpaceOnUse" color-interpolation-filters="sRGB"><feFlood flood-opacity="0" result="BackgroundImageFix"/><feBlend in="SourceGraphic" in2="BackgroundImageFix" result="shape"/><feGaussianBlur stdDeviation=".05" result="effect1_foregroundBlur_4002_3504"/></filter><filter id="S" x="7.86" y="4.156" width="4.961" height="5.989" filterUnits="userSpaceOnUse" color-interpolation-filters="sRGB"><feFlood flood-opacity="0" result="BackgroundImageFix"/><feBlend in="SourceGraphic" in2="BackgroundImageFix" result="shape"/><feGaussianBlur stdDeviation=".375" result="effect1_foregroundBlur_4002_3504"/></filter><filter id="V" x="10.944" y="2.814" width="10.168" height="5.014" filterUnits="userSpaceOnUse" color-interpolation-filters="sRGB"><feFlood flood-opacity="0" result="BackgroundImageFix"/><feBlend in="SourceGraphic" in2="BackgroundImageFix" result="shape"/><feGaussianBlur stdDeviation=".125" result="effect1_foregroundBlur_4002_3504"/></filter><filter id="Z" x="11.055" y="4.548" width="1.523" height="2.293" filterUnits="userSpaceOnUse" color-interpolation-filters="sRGB"><feFlood flood-opacity="0" result="BackgroundImageFix"/><feBlend in="SourceGraphic" in2="BackgroundImageFix" result="shape"/><feGaussianBlur stdDeviation=".125" result="effect1_foregroundBlur_4002_3504"/></filter><filter id="ag" x="3.962" y="16.918" width="12.107" height="12.935" filterUnits="userSpaceOnUse" color-interpolation-filters="sRGB"><feFlood flood-opacity="0" result="BackgroundImageFix"/><feBlend in="SourceGraphic" in2="BackgroundImageFix" result="shape"/><feColorMatrix in="SourceAlpha" values="0 0 0 0 0 0 0 0 0 0 0 0 0 0 0 0 0 0 127 0" result="hardAlpha"/><feOffset dx=".2"/><feGaussianBlur stdDeviation=".75"/><feComposite in2="hardAlpha" operator="arithmetic" k2="-1" k3="1"/><feColorMatrix values="0 0 0 0 0.513726 0 0 0 0 0.392157 0 0 0 0 0.647059 0 0 0 1 0"/><feBlend in2="shape" result="effect1_innerShadow_4002_3504"/></filter><filter id="al" x="9.915" y="23.548" width="3.547" height="2.605" filterUnits="userSpaceOnUse" color-interpolation-filters="sRGB"><feFlood flood-opacity="0" result="BackgroundImageFix"/><feBlend in="SourceGraphic" in2="BackgroundImageFix" result="shape"/><feGaussianBlur stdDeviation=".25" result="effect1_foregroundBlur_4002_3504"/></filter><filter id="an" x="25.32" y="26.283" width="1.338" height="3.484" filterUnits="userSpaceOnUse" color-interpolation-filters="sRGB"><feFlood flood-opacity="0" result="BackgroundImageFix"/><feBlend in="SourceGraphic" in2="BackgroundImageFix" result="shape"/><feGaussianBlur stdDeviation=".05" result="effect1_foregroundBlur_4002_3504"/></filter><filter id="ap" x="6.337" y="26.013" width="8.034" height="4.188" filterUnits="userSpaceOnUse" color-interpolation-filters="sRGB"><feFlood flood-opacity="0" result="BackgroundImageFix"/><feBlend in="SourceGraphic" in2="BackgroundImageFix" result="shape"/><feGaussianBlur stdDeviation=".5" result="effect1_foregroundBlur_4002_3504"/></filter><filter id="ar" x="10.874" y="20.669" width="1.907" height="4.376" filterUnits="userSpaceOnUse" color-interpolation-filters="sRGB"><feFlood flood-opacity="0" result="BackgroundImageFix"/><feBlend in="SourceGraphic" in2="BackgroundImageFix" result="shape"/><feGaussianBlur stdDeviation=".125" result="effect1_foregroundBlur_4002_3504"/></filter><filter id="at" x="11.434" y="21.734" width="10.856" height="8.359" filterUnits="userSpaceOnUse" color-interpolation-filters="sRGB"><feFlood flood-opacity="0" result="BackgroundImageFix"/><feBlend in="SourceGraphic" in2="BackgroundImageFix" result="shape"/><feColorMatrix in="SourceAlpha" values="0 0 0 0 0 0 0 0 0 0 0 0 0 0 0 0 0 0 127 0" result="hardAlpha"/><feOffset dx=".25" dy=".25"/><feGaussianBlur stdDeviation=".5"/><feComposite in2="hardAlpha" operator="arithmetic" k2="-1" k3="1"/><feColorMatrix values="0 0 0 0 0.278431 0 0 0 0 0.682353 0 0 0 0 0.356863 0 0 0 1 0"/><feBlend in2="shape" result="effect1_innerShadow_4002_3504"/></filter><filter id="aw" x="13.787" y="25.58" width="6.652" height="4.473" filterUnits="userSpaceOnUse" color-interpolation-filters="sRGB"><feFlood flood-opacity="0" result="BackgroundImageFix"/><feBlend in="SourceGraphic" in2="BackgroundImageFix" result="shape"/><feColorMatrix in="SourceAlpha" values="0 0 0 0 0 0 0 0 0 0 0 0 0 0 0 0 0 0 127 0" result="hardAlpha"/><feOffset dx="-.2" dy=".2"/><feGaussianBlur stdDeviation=".3"/><feComposite in2="hardAlpha" operator="arithmetic" k2="-1" k3="1"/><feColorMatrix values="0 0 0 0 0.847059 0 0 0 0 0.65098 0 0 0 0 0.0941176 0 0 0 1 0"/><feBlend in2="shape" result="effect1_innerShadow_4002_3504"/></filter><filter id="aF" x="18.78" y="21.373" width="6.654" height="7.23" filterUnits="userSpaceOnUse" color-interpolation-filters="sRGB"><feFlood flood-opacity="0" result="BackgroundImageFix"/><feBlend in="SourceGraphic" in2="BackgroundImageFix" result="shape"/><feColorMatrix in="SourceAlpha" values="0 0 0 0 0 0 0 0 0 0 0 0 0 0 0 0 0 0 127 0" result="hardAlpha"/><feOffset dy="-.4"/><feGaussianBlur stdDeviation=".4"/><feComposite in2="hardAlpha" operator="arithmetic" k2="-1" k3="1"/><feColorMatrix values="0 0 0 0 0.894118 0 0 0 0 0.509804 0 0 0 0 0.266667 0 0 0 1 0"/><feBlend in2="shape" result="effect1_innerShadow_4002_3504"/></filter><filter id="aM" x="7.399" y="21.076" width="5.813" height="5.503" filterUnits="userSpaceOnUse" color-interpolation-filters="sRGB"><feFlood flood-opacity="0" result="BackgroundImageFix"/><feBlend in="SourceGraphic" in2="BackgroundImageFix" result="shape"/><feGaussianBlur stdDeviation=".5" result="effect1_foregroundBlur_4002_3504"/></filter><filter id="aO" x="16.626" y="10.002" width="2.582" height="1.236" filterUnits="userSpaceOnUse" color-interpolation-filters="sRGB"><feFlood flood-opacity="0" result="BackgroundImageFix"/><feBlend in="SourceGraphic" in2="BackgroundImageFix" result="shape"/><feGaussianBlur stdDeviation=".075" result="effect1_foregroundBlur_4002_3504"/></filter><filter id="aR" x="12.027" y="10.812" width="2.582" height="1.236" filterUnits="userSpaceOnUse" color-interpolation-filters="sRGB"><feFlood flood-opacity="0" result="BackgroundImageFix"/><feBlend in="SourceGraphic" in2="BackgroundImageFix" result="shape"/><feGaussianBlur stdDeviation=".075" result="effect1_foregroundBlur_4002_3504"/></filter><filter id="aU" x="11.377" y="8.962" width="3.872" height="2.503" filterUnits="userSpaceOnUse" color-interpolation-filters="sRGB"><feFlood flood-opacity="0" result="BackgroundImageFix"/><feBlend in="SourceGraphic" in2="BackgroundImageFix" result="shape"/><feGaussianBlur stdDeviation=".3" result="effect1_foregroundBlur_4002_3504"/></filter><filter id="aW" x="16.156" y="7.775" width="3.682" height="2.825" filterUnits="userSpaceOnUse" color-interpolation-filters="sRGB"><feFlood flood-opacity="0" result="BackgroundImageFix"/><feBlend in="SourceGraphic" in2="BackgroundImageFix" result="shape"/><feGaussianBlur stdDeviation=".3" result="effect1_foregroundBlur_4002_3504"/></filter><filter id="aY" x="11.305" y="8.399" width="2.522" height="1.466" filterUnits="userSpaceOnUse" color-interpolation-filters="sRGB"><feFlood flood-opacity="0" result="BackgroundImageFix"/><feBlend in="SourceGraphic" in2="BackgroundImageFix" result="shape"/><feColorMatrix in="SourceAlpha" values="0 0 0 0 0 0 0 0 0 0 0 0 0 0 0 0 0 0 127 0" result="hardAlpha"/><feOffset dx=".2" dy="-.2"/><feGaussianBlur stdDeviation=".15"/><feComposite in2="hardAlpha" operator="arithmetic" k2="-1" k3="1"/><feColorMatrix values="0 0 0 0 0.690196 0 0 0 0 0.27451 0 0 0 0 0.0901961 0 0 0 1 0"/><feBlend in2="shape" result="effect1_innerShadow_4002_3504"/></filter><filter id="aZ" x="16.977" y="7.553" width="2.653" height=".937" filterUnits="userSpaceOnUse" color-interpolation-filters="sRGB"><feFlood flood-opacity="0" result="BackgroundImageFix"/><feBlend in="SourceGraphic" in2="BackgroundImageFix" result="shape"/><feColorMatrix in="SourceAlpha" values="0 0 0 0 0 0 0 0 0 0 0 0 0 0 0 0 0 0 127 0" result="hardAlpha"/><feOffset dx=".2" dy="-.2"/><feGaussianBlur stdDeviation=".15"/><feComposite in2="hardAlpha" operator="arithmetic" k2="-1" k3="1"/><feColorMatrix values="0 0 0 0 0.690196 0 0 0 0 0.27451 0 0 0 0 0.0901961 0 0 0 1 0"/><feBlend in2="shape" result="effect1_innerShadow_4002_3504"/></filter><filter id="ba" x="17.021" y="7.685" width="2.423" height=".781" filterUnits="userSpaceOnUse" color-interpolation-filters="sRGB"><feFlood flood-opacity="0" result="BackgroundImageFix"/><feBlend in="SourceGraphic" in2="BackgroundImageFix" result="shape"/><feGaussianBlur stdDeviation=".1" result="effect1_foregroundBlur_4002_3504"/></filter><filter id="bb" x="11.318" y="8.544" width="2.283" height="1.302" filterUnits="userSpaceOnUse" color-interpolation-filters="sRGB"><feFlood flood-opacity="0" result="BackgroundImageFix"/><feBlend in="SourceGraphic" in2="BackgroundImageFix" result="shape"/><feGaussianBlur stdDeviation=".1" result="effect1_foregroundBlur_4002_3504"/></filter><filter id="bc" x="20.549" y="21.648" width="3.309" height="3.341" filterUnits="userSpaceOnUse" color-interpolation-filters="sRGB"><feFlood flood-opacity="0" result="BackgroundImageFix"/><feBlend in="SourceGraphic" in2="BackgroundImageFix" result="shape"/><feGaussianBlur stdDeviation=".2" result="effect1_foregroundBlur_4002_3504"/></filter><filter id="be" x="18.967" y="22.078" width="3.909" height="3.941" filterUnits="userSpaceOnUse" color-interpolation-filters="sRGB"><feFlood flood-opacity="0" result="BackgroundImageFix"/><feBlend in="SourceGraphic" in2="BackgroundImageFix" result="shape"/><feGaussianBlur stdDeviation=".35" result="effect1_foregroundBlur_4002_3504"/></filter><filter id="bg" x="19.331" y="22.281" width="3.294" height="2.926" filterUnits="userSpaceOnUse" color-interpolation-filters="sRGB"><feFlood flood-opacity="0" result="BackgroundImageFix"/><feBlend in="SourceGraphic" in2="BackgroundImageFix" result="shape"/><feGaussianBlur stdDeviation=".2" result="effect1_foregroundBlur_4002_3504"/></filter><filter id="bi" x="18.893" y="23.655" width="3.106" height="2.411" filterUnits="userSpaceOnUse" color-interpolation-filters="sRGB"><feFlood flood-opacity="0" result="BackgroundImageFix"/><feBlend in="SourceGraphic" in2="BackgroundImageFix" result="shape"/><feGaussianBlur stdDeviation=".2" result="effect1_foregroundBlur_4002_3504"/></filter><filter id="bk" x="18.877" y="25.179" width="2.356" height="1.81" filterUnits="userSpaceOnUse" color-interpolation-filters="sRGB"><feFlood flood-opacity="0" result="BackgroundImageFix"/><feBlend in="SourceGraphic" in2="BackgroundImageFix" result="shape"/><feGaussianBlur stdDeviation=".2" result="effect1_foregroundBlur_4002_3504"/></filter><linearGradient id="b" x1="19.275" y1="2.872" x2="14.368" y2="18.532" gradientUnits="userSpaceOnUse"><stop stop-color="#FFD93C"/><stop offset="1" stop-color="#E37923"/></linearGradient><linearGradient id="l" x1="20.152" y1="18.575" x2="19.521" y2="16.773" gradientUnits="userSpaceOnUse"><stop offset=".354" stop-color="#D06E54"/><stop offset="1" stop-color="#E88128" stop-opacity="0"/></linearGradient><linearGradient id="u" x1="9.111" y1="12.536" x2="12.235" y2="11.934" gradientUnits="userSpaceOnUse"><stop stop-color="#E79B27"/><stop offset="1" stop-color="#B96201"/></linearGradient><linearGradient id="K" x1="16.152" y1="13.315" x2="15.606" y2="10.484" gradientUnits="userSpaceOnUse"><stop stop-color="#FFC134"/><stop offset="1" stop-color="#F8C73F"/></linearGradient><linearGradient id="M" x1="14.892" y1="12.723" x2="15.815" y2="12.659" gradientUnits="userSpaceOnUse"><stop stop-color="#F8A322"/><stop offset="1" stop-color="#F8A322" stop-opacity="0"/></linearGradient><linearGradient id="N" x1="16.17" y1="13.412" x2="16.046" y2="12.768" gradientUnits="userSpaceOnUse"><stop stop-color="#E48538"/><stop offset="1" stop-color="#E48538" stop-opacity="0"/></linearGradient><linearGradient id="P" x1="15.542" y1="10.279" x2="15.815" y2="11.484" gradientUnits="userSpaceOnUse"><stop stop-color="#F8C640"/><stop offset="1" stop-color="#F8C640" stop-opacity="0"/></linearGradient><linearGradient id="R" x1="15.74" y1="15.384" x2="16.04" y2="14.373" gradientUnits="userSpaceOnUse"><stop stop-color="#FEAC35"/><stop offset="1" stop-color="#FEAC35" stop-opacity="0"/></linearGradient><linearGradient id="aa" x1="11.425" y1="5.211" x2="12.259" y2="6.444" gradientUnits="userSpaceOnUse"><stop stop-color="#FAA719"/><stop offset="1" stop-color="#DB6008"/></linearGradient><linearGradient id="ab" x1="18.759" y1="10.674" x2="17.196" y2="11.498" gradientUnits="userSpaceOnUse"><stop offset=".558" stop-color="#96442E"/><stop offset="1" stop-color="#C45011"/></linearGradient><linearGradient id="ac" x1="12.275" y1="11.666" x2="14.645" y2="11.219" gradientUnits="userSpaceOnUse"><stop offset=".558" stop-color="#7B2F2A"/><stop offset="1" stop-color="#C45011"/><stop offset="1" stop-color="#AB461C"/></linearGradient><linearGradient id="ad" x1="26.462" y1="25.014" x2="24.16" y2="29.852" gradientUnits="userSpaceOnUse"><stop stop-color="#AB84EE"/><stop offset="1" stop-color="#9C69F1"/></linearGradient><linearGradient id="ah" x1="14.931" y1="19.17" x2="6.462" y2="29.852" gradientUnits="userSpaceOnUse"><stop stop-color="#9165D0"/><stop offset="1" stop-color="#9565E9"/></linearGradient><linearGradient id="aq" x1="13.149" y1="28.857" x2="7.598" y2="28.832" gradientUnits="userSpaceOnUse"><stop stop-color="#A673FF"/><stop offset="1" stop-color="#A673FF" stop-opacity="0"/></linearGradient><linearGradient id="as" x1="12.824" y1="24.245" x2="12.774" y2="21.296" gradientUnits="userSpaceOnUse"><stop stop-color="#A980F3"/><stop offset="1" stop-color="#A980F3" stop-opacity="0"/></linearGradient><linearGradient id="au" x1="21.024" y1="27.576" x2="13.962" y2="27.139" gradientUnits="userSpaceOnUse"><stop stop-color="#349373"/><stop offset="1" stop-color="#37BA71"/></linearGradient><linearGradient id="ay" x1="20.439" y1="29.461" x2="18.399" y2="29.461" gradientUnits="userSpaceOnUse"><stop stop-color="#F9B130"/><stop offset="1" stop-color="#F9B130" stop-opacity="0"/></linearGradient><linearGradient id="az" x1="14.988" y1="25.92" x2="15.426" y2="26.56" gradientUnits="userSpaceOnUse"><stop stop-color="#D29F26"/><stop offset="1" stop-color="#F8BE33" stop-opacity="0"/></linearGradient><linearGradient id="aD" x1="21.337" y1="18.573" x2="19.837" y2="23.17" gradientUnits="userSpaceOnUse"><stop stop-color="#3DB155"/><stop offset=".635" stop-color="#38AA6F"/></linearGradient><linearGradient id="aL" x1="25.227" y1="25.188" x2="24.04" y2="25.451" gradientUnits="userSpaceOnUse"><stop offset=".049" stop-color="#FFE144"/><stop offset="1" stop-color="#FFC53E" stop-opacity="0"/></linearGradient><linearGradient id="aN" x1="10.306" y1="25.58" x2="12.962" y2="22.332" gradientUnits="userSpaceOnUse"><stop stop-color="#A176DF"/><stop offset="1" stop-color="#A176DF" stop-opacity="0"/></linearGradient><linearGradient id="aP" x1="16.728" y1="10.772" x2="19.056" y2="10.934" gradientUnits="userSpaceOnUse"><stop stop-color="#B76F5C"/><stop offset="1" stop-color="#B76F5C" stop-opacity="0"/></linearGradient><linearGradient id="aS" x1="12.129" y1="11.581" x2="14.457" y2="11.743" gradientUnits="userSpaceOnUse"><stop stop-color="#B76F5C"/><stop offset="1" stop-color="#B76F5C" stop-opacity="0"/></linearGradient><linearGradient id="aV" x1="14.204" y1="10.482" x2="12.149" y2="10.189" gradientUnits="userSpaceOnUse"><stop offset=".329" stop-color="#EE9627"/><stop offset="1" stop-color="#F2962E" stop-opacity="0"/></linearGradient><linearGradient id="aX" x1="18.853" y1="9.652" x2="15.379" y2="8.497" gradientUnits="userSpaceOnUse"><stop offset=".329" stop-color="#FFCB2E"/><stop offset="1" stop-color="#FFCB2E" stop-opacity="0"/></linearGradient><linearGradient id="bd" x1="21.634" y1="22.451" x2="23.915" y2="24.748" gradientUnits="userSpaceOnUse"><stop stop-color="#FFDC47"/><stop offset="1" stop-color="#FFDE47" stop-opacity="0"/></linearGradient><linearGradient id="bf" x1="20.351" y1="23.181" x2="22.633" y2="25.478" gradientUnits="userSpaceOnUse"><stop stop-color="#FFDC47"/><stop offset="1" stop-color="#FFDE47" stop-opacity="0"/></linearGradient><linearGradient id="bh" x1="20.415" y1="23.084" x2="22.696" y2="25.381" gradientUnits="userSpaceOnUse"><stop stop-color="#FFDC47"/><stop offset="1" stop-color="#FFDE47" stop-opacity="0"/></linearGradient><linearGradient id="bj" x1="19.978" y1="24.459" x2="21.298" y2="25.466" gradientUnits="userSpaceOnUse"><stop stop-color="#FFDC47"/><stop offset="1" stop-color="#FFDE47" stop-opacity="0"/></linearGradient><linearGradient id="bl" x1="19.477" y1="25.779" x2="20.696" y2="26.537" gradientUnits="userSpaceOnUse"><stop stop-color="#FFDC47"/><stop offset="1" stop-color="#FFDE47" stop-opacity="0"/></linearGradient></defs></svg>