<svg width="32" height="32" fill="none" xmlns="http://www.w3.org/2000/svg"><g filter="url(#a)" fill-rule="evenodd" clip-rule="evenodd"><path d="M23.825 11.315c.134-.499.152-1.03.05-1.56a3.494 3.494 0 0 0-.546-1.31l.005-.002a3.398 3.398 0 0 0-.398-.48l-.003-.003a3.453 3.453 0 0 1-.91-1.746l-.002-.01a3.517 3.517 0 0 0-4.12-2.785.575.575 0 0 1-.525-.15 3.524 3.524 0 0 0-3.085-.897 3.524 3.524 0 0 0-2.528 1.984.603.603 0 0 1-.43.336l-.088.018A3.517 3.517 0 0 0 8.55 8.813l.002.01c.128.657.062 1.34-.191 1.96l-.002.005a3.517 3.517 0 0 0 .427 3.44.548.548 0 0 1 .093.477 3.479 3.479 0 0 0-.054 1.538 3.425 3.425 0 0 0 4.02 2.715l8.981-1.74a3.425 3.425 0 0 0 2.715-4.02 3.48 3.48 0 0 0-.624-1.407.548.548 0 0 1-.092-.476Zm-13.372-.311-.013.002 1.732 2.222c.697 2.908 1.274-.246 4.07-.788 2.795-.542 4.646 2.487 4.207-.471l.54-3.576c-.308-1.292-1.27-1.2-1.458-1.164l-3.37.653a4.117 4.117 0 0 1-3.676-1.105.281.281 0 0 0-.473.147l-.047.22a2.456 2.456 0 0 1-.994 1.533c-.015.008-.032.02-.05.032-.017.011-.034.023-.05.031-.221.176-.726.673-.555 1.67l.072.318.065.276Z" fill="url(#b)"/><path d="M23.825 11.315c.134-.499.152-1.03.05-1.56a3.494 3.494 0 0 0-.546-1.31l.005-.002a3.398 3.398 0 0 0-.398-.48l-.003-.003a3.453 3.453 0 0 1-.91-1.746l-.002-.01a3.517 3.517 0 0 0-4.12-2.785.575.575 0 0 1-.525-.15 3.524 3.524 0 0 0-3.085-.897 3.524 3.524 0 0 0-2.528 1.984.603.603 0 0 1-.43.336l-.088.018A3.517 3.517 0 0 0 8.55 8.813l.002.01c.128.657.062 1.34-.191 1.96l-.002.005a3.517 3.517 0 0 0 .427 3.44.548.548 0 0 1 .093.477 3.479 3.479 0 0 0-.054 1.538 3.425 3.425 0 0 0 4.02 2.715l8.981-1.74a3.425 3.425 0 0 0 2.715-4.02 3.48 3.48 0 0 0-.624-1.407.548.548 0 0 1-.092-.476Zm-13.372-.311-.013.002 1.732 2.222c.697 2.908 1.274-.246 4.07-.788 2.795-.542 4.646 2.487 4.207-.471l.54-3.576c-.308-1.292-1.27-1.2-1.458-1.164l-3.37.653a4.117 4.117 0 0 1-3.676-1.105.281.281 0 0 0-.473.147l-.047.22a2.456 2.456 0 0 1-.994 1.533c-.015.008-.032.02-.05.032-.017.011-.034.023-.05.031-.221.176-.726.673-.555 1.67l.072.318.065.276Z" fill="url(#c)"/><path d="M23.825 11.315c.134-.499.152-1.03.05-1.56a3.494 3.494 0 0 0-.546-1.31l.005-.002a3.398 3.398 0 0 0-.398-.48l-.003-.003a3.453 3.453 0 0 1-.91-1.746l-.002-.01a3.517 3.517 0 0 0-4.12-2.785.575.575 0 0 1-.525-.15 3.524 3.524 0 0 0-3.085-.897 3.524 3.524 0 0 0-2.528 1.984.603.603 0 0 1-.43.336l-.088.018A3.517 3.517 0 0 0 8.55 8.813l.002.01c.128.657.062 1.34-.191 1.96l-.002.005a3.517 3.517 0 0 0 .427 3.44.548.548 0 0 1 .093.477 3.479 3.479 0 0 0-.054 1.538 3.425 3.425 0 0 0 4.02 2.715l8.981-1.74a3.425 3.425 0 0 0 2.715-4.02 3.48 3.48 0 0 0-.624-1.407.548.548 0 0 1-.092-.476Zm-13.372-.311-.013.002 1.732 2.222c.697 2.908 1.274-.246 4.07-.788 2.795-.542 4.646 2.487 4.207-.471l.54-3.576c-.308-1.292-1.27-1.2-1.458-1.164l-3.37.653a4.117 4.117 0 0 1-3.676-1.105.281.281 0 0 0-.473.147l-.047.22a2.456 2.456 0 0 1-.994 1.533c-.015.008-.032.02-.05.032-.017.011-.034.023-.05.031-.221.176-.726.673-.555 1.67l.072.318.065.276Z" fill="url(#d)"/><path d="M23.825 11.315c.134-.499.152-1.03.05-1.56a3.494 3.494 0 0 0-.546-1.31l.005-.002a3.398 3.398 0 0 0-.398-.48l-.003-.003a3.453 3.453 0 0 1-.91-1.746l-.002-.01a3.517 3.517 0 0 0-4.12-2.785.575.575 0 0 1-.525-.15 3.524 3.524 0 0 0-3.085-.897 3.524 3.524 0 0 0-2.528 1.984.603.603 0 0 1-.43.336l-.088.018A3.517 3.517 0 0 0 8.55 8.813l.002.01c.128.657.062 1.34-.191 1.96l-.002.005a3.517 3.517 0 0 0 .427 3.44.548.548 0 0 1 .093.477 3.479 3.479 0 0 0-.054 1.538 3.425 3.425 0 0 0 4.02 2.715l8.981-1.74a3.425 3.425 0 0 0 2.715-4.02 3.48 3.48 0 0 0-.624-1.407.548.548 0 0 1-.092-.476Zm-13.372-.311-.013.002 1.732 2.222c.697 2.908 1.274-.246 4.07-.788 2.795-.542 4.646 2.487 4.207-.471l.54-3.576c-.308-1.292-1.27-1.2-1.458-1.164l-3.37.653a4.117 4.117 0 0 1-3.676-1.105.281.281 0 0 0-.473.147l-.047.22a2.456 2.456 0 0 1-.994 1.533c-.015.008-.032.02-.05.032-.017.011-.034.023-.05.031-.221.176-.726.673-.555 1.67l.072.318.065.276Z" fill="url(#e)"/><path d="M23.825 11.315c.134-.499.152-1.03.05-1.56a3.494 3.494 0 0 0-.546-1.31l.005-.002a3.398 3.398 0 0 0-.398-.48l-.003-.003a3.453 3.453 0 0 1-.91-1.746l-.002-.01a3.517 3.517 0 0 0-4.12-2.785.575.575 0 0 1-.525-.15 3.524 3.524 0 0 0-3.085-.897 3.524 3.524 0 0 0-2.528 1.984.603.603 0 0 1-.43.336l-.088.018A3.517 3.517 0 0 0 8.55 8.813l.002.01c.128.657.062 1.34-.191 1.96l-.002.005a3.517 3.517 0 0 0 .427 3.44.548.548 0 0 1 .093.477 3.479 3.479 0 0 0-.054 1.538 3.425 3.425 0 0 0 4.02 2.715l8.981-1.74a3.425 3.425 0 0 0 2.715-4.02 3.48 3.48 0 0 0-.624-1.407.548.548 0 0 1-.092-.476Zm-13.372-.311-.013.002 1.732 2.222c.697 2.908 1.274-.246 4.07-.788 2.795-.542 4.646 2.487 4.207-.471l.54-3.576c-.308-1.292-1.27-1.2-1.458-1.164l-3.37.653a4.117 4.117 0 0 1-3.676-1.105.281.281 0 0 0-.473.147l-.047.22a2.456 2.456 0 0 1-.994 1.533c-.015.008-.032.02-.05.032-.017.011-.034.023-.05.031-.221.176-.726.673-.555 1.67l.072.318.065.276Z" fill="url(#f)"/><path d="M23.825 11.315c.134-.499.152-1.03.05-1.56a3.494 3.494 0 0 0-.546-1.31l.005-.002a3.398 3.398 0 0 0-.398-.48l-.003-.003a3.453 3.453 0 0 1-.91-1.746l-.002-.01a3.517 3.517 0 0 0-4.12-2.785.575.575 0 0 1-.525-.15 3.524 3.524 0 0 0-3.085-.897 3.524 3.524 0 0 0-2.528 1.984.603.603 0 0 1-.43.336l-.088.018A3.517 3.517 0 0 0 8.55 8.813l.002.01c.128.657.062 1.34-.191 1.96l-.002.005a3.517 3.517 0 0 0 .427 3.44.548.548 0 0 1 .093.477 3.479 3.479 0 0 0-.054 1.538 3.425 3.425 0 0 0 4.02 2.715l8.981-1.74a3.425 3.425 0 0 0 2.715-4.02 3.48 3.48 0 0 0-.624-1.407.548.548 0 0 1-.092-.476Zm-13.372-.311-.013.002 1.732 2.222c.697 2.908 1.274-.246 4.07-.788 2.795-.542 4.646 2.487 4.207-.471l.54-3.576c-.308-1.292-1.27-1.2-1.458-1.164l-3.37.653a4.117 4.117 0 0 1-3.676-1.105.281.281 0 0 0-.473.147l-.047.22a2.456 2.456 0 0 1-.994 1.533c-.015.008-.032.02-.05.032-.017.011-.034.023-.05.031-.221.176-.726.673-.555 1.67l.072.318.065.276Z" fill="url(#g)"/><path d="M23.825 11.315c.134-.499.152-1.03.05-1.56a3.494 3.494 0 0 0-.546-1.31l.005-.002a3.398 3.398 0 0 0-.398-.48l-.003-.003a3.453 3.453 0 0 1-.91-1.746l-.002-.01a3.517 3.517 0 0 0-4.12-2.785.575.575 0 0 1-.525-.15 3.524 3.524 0 0 0-3.085-.897 3.524 3.524 0 0 0-2.528 1.984.603.603 0 0 1-.43.336l-.088.018A3.517 3.517 0 0 0 8.55 8.813l.002.01c.128.657.062 1.34-.191 1.96l-.002.005a3.517 3.517 0 0 0 .427 3.44.548.548 0 0 1 .093.477 3.479 3.479 0 0 0-.054 1.538 3.425 3.425 0 0 0 4.02 2.715l8.981-1.74a3.425 3.425 0 0 0 2.715-4.02 3.48 3.48 0 0 0-.624-1.407.548.548 0 0 1-.092-.476Zm-13.372-.311-.013.002 1.732 2.222c.697 2.908 1.274-.246 4.07-.788 2.795-.542 4.646 2.487 4.207-.471l.54-3.576c-.308-1.292-1.27-1.2-1.458-1.164l-3.37.653a4.117 4.117 0 0 1-3.676-1.105.281.281 0 0 0-.473.147l-.047.22a2.456 2.456 0 0 1-.994 1.533c-.015.008-.032.02-.05.032-.017.011-.034.023-.05.031-.221.176-.726.673-.555 1.67l.072.318.065.276Z" fill="url(#h)"/><path d="M23.825 11.315c.134-.499.152-1.03.05-1.56a3.494 3.494 0 0 0-.546-1.31l.005-.002a3.398 3.398 0 0 0-.398-.48l-.003-.003a3.453 3.453 0 0 1-.91-1.746l-.002-.01a3.517 3.517 0 0 0-4.12-2.785.575.575 0 0 1-.525-.15 3.524 3.524 0 0 0-3.085-.897 3.524 3.524 0 0 0-2.528 1.984.603.603 0 0 1-.43.336l-.088.018A3.517 3.517 0 0 0 8.55 8.813l.002.01c.128.657.062 1.34-.191 1.96l-.002.005a3.517 3.517 0 0 0 .427 3.44.548.548 0 0 1 .093.477 3.479 3.479 0 0 0-.054 1.538 3.425 3.425 0 0 0 4.02 2.715l8.981-1.74a3.425 3.425 0 0 0 2.715-4.02 3.48 3.48 0 0 0-.624-1.407.548.548 0 0 1-.092-.476Zm-13.372-.311-.013.002 1.732 2.222c.697 2.908 1.274-.246 4.07-.788 2.795-.542 4.646 2.487 4.207-.471l.54-3.576c-.308-1.292-1.27-1.2-1.458-1.164l-3.37.653a4.117 4.117 0 0 1-3.676-1.105.281.281 0 0 0-.473.147l-.047.22a2.456 2.456 0 0 1-.994 1.533c-.015.008-.032.02-.05.032-.017.011-.034.023-.05.031-.221.176-.726.673-.555 1.67l.072.318.065.276Z" fill="url(#i)"/><path d="M23.825 11.315c.134-.499.152-1.03.05-1.56a3.494 3.494 0 0 0-.546-1.31l.005-.002a3.398 3.398 0 0 0-.398-.48l-.003-.003a3.453 3.453 0 0 1-.91-1.746l-.002-.01a3.517 3.517 0 0 0-4.12-2.785.575.575 0 0 1-.525-.15 3.524 3.524 0 0 0-3.085-.897 3.524 3.524 0 0 0-2.528 1.984.603.603 0 0 1-.43.336l-.088.018A3.517 3.517 0 0 0 8.55 8.813l.002.01c.128.657.062 1.34-.191 1.96l-.002.005a3.517 3.517 0 0 0 .427 3.44.548.548 0 0 1 .093.477 3.479 3.479 0 0 0-.054 1.538 3.425 3.425 0 0 0 4.02 2.715l8.981-1.74a3.425 3.425 0 0 0 2.715-4.02 3.48 3.48 0 0 0-.624-1.407.548.548 0 0 1-.092-.476Zm-13.372-.311-.013.002 1.732 2.222c.697 2.908 1.274-.246 4.07-.788 2.795-.542 4.646 2.487 4.207-.471l.54-3.576c-.308-1.292-1.27-1.2-1.458-1.164l-3.37.653a4.117 4.117 0 0 1-3.676-1.105.281.281 0 0 0-.473.147l-.047.22a2.456 2.456 0 0 1-.994 1.533c-.015.008-.032.02-.05.032-.017.011-.034.023-.05.031-.221.176-.726.673-.555 1.67l.072.318.065.276Z" fill="url(#j)"/><path d="M23.825 11.315c.134-.499.152-1.03.05-1.56a3.494 3.494 0 0 0-.546-1.31l.005-.002a3.398 3.398 0 0 0-.398-.48l-.003-.003a3.453 3.453 0 0 1-.91-1.746l-.002-.01a3.517 3.517 0 0 0-4.12-2.785.575.575 0 0 1-.525-.15 3.524 3.524 0 0 0-3.085-.897 3.524 3.524 0 0 0-2.528 1.984.603.603 0 0 1-.43.336l-.088.018A3.517 3.517 0 0 0 8.55 8.813l.002.01c.128.657.062 1.34-.191 1.96l-.002.005a3.517 3.517 0 0 0 .427 3.44.548.548 0 0 1 .093.477 3.479 3.479 0 0 0-.054 1.538 3.425 3.425 0 0 0 4.02 2.715l8.981-1.74a3.425 3.425 0 0 0 2.715-4.02 3.48 3.48 0 0 0-.624-1.407.548.548 0 0 1-.092-.476Zm-13.372-.311-.013.002 1.732 2.222c.697 2.908 1.274-.246 4.07-.788 2.795-.542 4.646 2.487 4.207-.471l.54-3.576c-.308-1.292-1.27-1.2-1.458-1.164l-3.37.653a4.117 4.117 0 0 1-3.676-1.105.281.281 0 0 0-.473.147l-.047.22a2.456 2.456 0 0 1-.994 1.533c-.015.008-.032.02-.05.032-.017.011-.034.023-.05.031-.221.176-.726.673-.555 1.67l.072.318.065.276Z" fill="url(#k)"/><path d="M23.825 11.315c.134-.499.152-1.03.05-1.56a3.494 3.494 0 0 0-.546-1.31l.005-.002a3.398 3.398 0 0 0-.398-.48l-.003-.003a3.453 3.453 0 0 1-.91-1.746l-.002-.01a3.517 3.517 0 0 0-4.12-2.785.575.575 0 0 1-.525-.15 3.524 3.524 0 0 0-3.085-.897 3.524 3.524 0 0 0-2.528 1.984.603.603 0 0 1-.43.336l-.088.018A3.517 3.517 0 0 0 8.55 8.813l.002.01c.128.657.062 1.34-.191 1.96l-.002.005a3.517 3.517 0 0 0 .427 3.44.548.548 0 0 1 .093.477 3.479 3.479 0 0 0-.054 1.538 3.425 3.425 0 0 0 4.02 2.715l8.981-1.74a3.425 3.425 0 0 0 2.715-4.02 3.48 3.48 0 0 0-.624-1.407.548.548 0 0 1-.092-.476Zm-13.372-.311-.013.002 1.732 2.222c.697 2.908 1.274-.246 4.07-.788 2.795-.542 4.646 2.487 4.207-.471l.54-3.576c-.308-1.292-1.27-1.2-1.458-1.164l-3.37.653a4.117 4.117 0 0 1-3.676-1.105.281.281 0 0 0-.473.147l-.047.22a2.456 2.456 0 0 1-.994 1.533c-.015.008-.032.02-.05.032-.017.011-.034.023-.05.031-.221.176-.726.673-.555 1.67l.072.318.065.276Z" fill="url(#l)"/><path d="M23.825 11.315c.134-.499.152-1.03.05-1.56a3.494 3.494 0 0 0-.546-1.31l.005-.002a3.398 3.398 0 0 0-.398-.48l-.003-.003a3.453 3.453 0 0 1-.91-1.746l-.002-.01a3.517 3.517 0 0 0-4.12-2.785.575.575 0 0 1-.525-.15 3.524 3.524 0 0 0-3.085-.897 3.524 3.524 0 0 0-2.528 1.984.603.603 0 0 1-.43.336l-.088.018A3.517 3.517 0 0 0 8.55 8.813l.002.01c.128.657.062 1.34-.191 1.96l-.002.005a3.517 3.517 0 0 0 .427 3.44.548.548 0 0 1 .093.477 3.479 3.479 0 0 0-.054 1.538 3.425 3.425 0 0 0 4.02 2.715l8.981-1.74a3.425 3.425 0 0 0 2.715-4.02 3.48 3.48 0 0 0-.624-1.407.548.548 0 0 1-.092-.476Zm-13.372-.311-.013.002 1.732 2.222c.697 2.908 1.274-.246 4.07-.788 2.795-.542 4.646 2.487 4.207-.471l.54-3.576c-.308-1.292-1.27-1.2-1.458-1.164l-3.37.653a4.117 4.117 0 0 1-3.676-1.105.281.281 0 0 0-.473.147l-.047.22a2.456 2.456 0 0 1-.994 1.533c-.015.008-.032.02-.05.032-.017.011-.034.023-.05.031-.221.176-.726.673-.555 1.67l.072.318.065.276Z" fill="url(#m)"/></g><path d="M25.578 29.938c.98 0 1.77-.8 1.77-1.78l-.01-1.99c0-5.39-4.47-9.77-9.99-9.77-5.51 0-9.99 4.37-9.99 9.77l-.15 3.77h18.37Z" fill="#642FC5"/><path d="M25.578 29.938c.98 0 1.77-.8 1.77-1.78l-.01-1.99c0-5.39-4.47-9.77-9.99-9.77-5.51 0-9.99 4.37-9.99 9.77l-.15 3.77h18.37Z" fill="url(#n)"/><path d="M17.348 16.398c-.72 0-1.42.08-2.09.22v2.42c0 3.48 2.93 6.25 6.41 6.06l5.58-.31c-.7-4.74-4.86-8.39-9.9-8.39Z" fill="url(#o)"/><path d="M17.348 16.398c-.72 0-1.42.08-2.09.22v2.42c0 3.48 2.93 6.25 6.41 6.06l5.58-.31c-.7-4.74-4.86-8.39-9.9-8.39Z" fill="url(#p)"/><path d="M17.348 16.398c-.72 0-1.42.08-2.09.22v2.42c0 3.48 2.93 6.25 6.41 6.06l5.58-.31c-.7-4.74-4.86-8.39-9.9-8.39Z" fill="url(#q)"/><path d="M17.348 16.398c-.72 0-1.42.08-2.09.22v2.42c0 3.48 2.93 6.25 6.41 6.06l5.58-.31c-.7-4.74-4.86-8.39-9.9-8.39Z" fill="url(#r)"/><path d="M27.515 27.443c-.013-.405-.165-2.417-.222-3.117l-2.825.18-3.008 3.324c0 1.263.513 1.95.805 2.108h4.39c.97-.963.868-2.21.86-2.495Z" fill="url(#s)"/><path d="M27.515 27.443c-.013-.405-.165-2.417-.222-3.117l-2.825.18-3.008 3.324c0 1.263.513 1.95.805 2.108h4.39c.97-.963.868-2.21.86-2.495Z" fill="url(#t)"/><path d="M27.515 27.443c-.013-.405-.165-2.417-.222-3.117l-2.825.18-3.008 3.324c0 1.263.513 1.95.805 2.108h4.39c.97-.963.868-2.21.86-2.495Z" fill="url(#u)"/><g filter="url(#v)"><path d="M13.57 17.002c-3.353 1.353-6.48 5.4-8.312 7.957-.71.853-1.718 2.661-.086 4.978h9.18c.104-.703.154-1.981-.053-3.129-.11-.612-.72-.996-1.342-.996h-1.196c.102-.265.73-1.357 1.801-1.936.505-.274.854-.564 1.413-.887l.495-.287.73-.42a6.027 6.027 0 0 1-.942-3.245v-1.452a5.216 5.216 0 0 1-1.689-.583Z" fill="url(#w)"/><path d="M13.57 17.002c-3.353 1.353-6.48 5.4-8.312 7.957-.71.853-1.718 2.661-.086 4.978h9.18c.104-.703.154-1.981-.053-3.129-.11-.612-.72-.996-1.342-.996h-1.196c.102-.265.73-1.357 1.801-1.936.505-.274.854-.564 1.413-.887l.495-.287.73-.42a6.027 6.027 0 0 1-.942-3.245v-1.452a5.216 5.216 0 0 1-1.689-.583Z" fill="url(#x)"/><path d="M13.57 17.002c-3.353 1.353-6.48 5.4-8.312 7.957-.71.853-1.718 2.661-.086 4.978h9.18c.104-.703.154-1.981-.053-3.129-.11-.612-.72-.996-1.342-.996h-1.196c.102-.265.73-1.357 1.801-1.936.505-.274.854-.564 1.413-.887l.495-.287.73-.42a6.027 6.027 0 0 1-.942-3.245v-1.452a5.216 5.216 0 0 1-1.689-.583Z" fill="url(#y)"/><path d="M13.57 17.002c-3.353 1.353-6.48 5.4-8.312 7.957-.71.853-1.718 2.661-.086 4.978h9.18c.104-.703.154-1.981-.053-3.129-.11-.612-.72-.996-1.342-.996h-1.196c.102-.265.73-1.357 1.801-1.936.505-.274.854-.564 1.413-.887l.495-.287.73-.42a6.027 6.027 0 0 1-.942-3.245v-1.452a5.216 5.216 0 0 1-1.689-.583Z" fill="url(#z)"/></g><g filter="url(#A)"><path d="M10.746 25.739h1.57l.977-1.594c-1.675-.139-2.396 1.005-2.547 1.594Z" fill="url(#B)"/></g><g filter="url(#C)"><path d="M26.613 26.498c.273.906.367 2.164-.797 3.18" stroke="url(#D)" stroke-width=".2"/></g><g filter="url(#E)"><path fill="url(#F)" d="M7.668 27.098h6.034v2.188H7.668z"/></g><g filter="url(#G)"><path d="M11.631 21.1c.344.634 1.031 2.28 1.031 3.78" stroke="url(#H)" stroke-width=".4"/></g><g filter="url(#I)"><path d="m13.45 23.852.07-.038c.504-.273.896-.5 1.455-.824l.495-.287.04-.023.69-.397-.005-.006c1.997-1.01 4.472-.3 5.603 1.672 1.18 2.04.48 4.64-1.56 5.8l-.3.18h-5.585c.103-.705.152-1.977-.054-3.12-.11-.613-.72-.996-1.341-.996h-1.193c.047-.112.1-.222.156-.33.159-.287.425-.694.8-1.066.217-.21.461-.4.73-.565Z" fill="url(#J)"/><path d="m13.45 23.852.07-.038c.504-.273.896-.5 1.455-.824l.495-.287.04-.023.69-.397-.005-.006c1.997-1.01 4.472-.3 5.603 1.672 1.18 2.04.48 4.64-1.56 5.8l-.3.18h-5.585c.103-.705.152-1.977-.054-3.12-.11-.613-.72-.996-1.341-.996h-1.193c.047-.112.1-.222.156-.33.159-.287.425-.694.8-1.066.217-.21.461-.4.73-.565Z" fill="url(#K)"/></g><g filter="url(#L)"><path d="M14.318 29.937h5.601c.47 0 .85-.38.85-.85 0-.545-.507-.957-1.05-.9-1.243.13-2.714.11-3.596.067a.05.05 0 0 1-.028-.089l1.002-.802a.954.954 0 0 0-1.128-1.536l-1.651 1.11c.185 1.102.097 2.307 0 3Z" fill="#A87D73"/><path d="M14.318 29.937h5.601c.47 0 .85-.38.85-.85 0-.545-.507-.957-1.05-.9-1.243.13-2.714.11-3.596.067a.05.05 0 0 1-.028-.089l1.002-.802a.954.954 0 0 0-1.128-1.536l-1.651 1.11c.185 1.102.097 2.307 0 3Z" fill="url(#M)"/><path d="M14.318 29.937h5.601c.47 0 .85-.38.85-.85 0-.545-.507-.957-1.05-.9-1.243.13-2.714.11-3.596.067a.05.05 0 0 1-.028-.089l1.002-.802a.954.954 0 0 0-1.128-1.536l-1.651 1.11c.185 1.102.097 2.307 0 3Z" fill="url(#N)"/><path d="M14.318 29.937h5.601c.47 0 .85-.38.85-.85 0-.545-.507-.957-1.05-.9-1.243.13-2.714.11-3.596.067a.05.05 0 0 1-.028-.089l1.002-.802a.954.954 0 0 0-1.128-1.536l-1.651 1.11c.185 1.102.097 2.307 0 3Z" fill="url(#O)"/><path d="M14.318 29.937h5.601c.47 0 .85-.38.85-.85 0-.545-.507-.957-1.05-.9-1.243.13-2.714.11-3.596.067a.05.05 0 0 1-.028-.089l1.002-.802a.954.954 0 0 0-1.128-1.536l-1.651 1.11c.185 1.102.097 2.307 0 3Z" fill="url(#P)"/></g><path d="M23.408 27.099a4.3 4.3 0 1 0 0-8.6c-2.375 0-3.553 1.925-3.553 4.3 0 2.374 1.178 4.3 3.553 4.3Z" fill="url(#Q)"/><path d="M23.408 27.099a4.3 4.3 0 1 0 0-8.6c-2.375 0-3.553 1.925-3.553 4.3 0 2.374 1.178 4.3 3.553 4.3Z" fill="url(#R)"/><path d="M21.538 23.878a4.3 4.3 0 0 1 .71-5.22 4.31 4.31 0 0 0-2.61 6.21 4.304 4.304 0 0 0 6.78 1.01c-1.84.51-3.87-.26-4.88-2Z" fill="url(#S)"/><path d="M21.538 23.878a4.3 4.3 0 0 1 .71-5.22 4.31 4.31 0 0 0-2.61 6.21 4.304 4.304 0 0 0 6.78 1.01c-1.84.51-3.87-.26-4.88-2Z" fill="url(#T)"/><g filter="url(#U)"><path d="M20.934 22.041a.64.64 0 0 1 .914.02 93.02 93.02 0 0 0 1.82 1.886.05.05 0 0 0 .085-.04l-.089-.926a.67.67 0 0 1 1.32-.21l.692 3.103a2.173 2.173 0 0 1-1.688 2.751c-.697.2-1.485-.121-1.794-.308l-2.78-1.689a.632.632 0 0 1 .626-1.098l-.596-.428a.621.621 0 1 1 .737-1l.186.141-.656-.52a.648.648 0 1 1 .837-.988l1.156 1.045-.79-.853a.636.636 0 0 1 .02-.886Z" fill="url(#V)"/></g><g filter="url(#W)"><path d="M20.934 22.041a.64.64 0 0 1 .914.02 93.02 93.02 0 0 0 1.82 1.886.05.05 0 0 0 .085-.04l-.089-.926a.67.67 0 0 1 1.32-.21l.692 3.103a2.173 2.173 0 0 1-1.688 2.751c-.697.2-1.485-.121-1.794-.308l-2.78-1.689a.632.632 0 0 1 .626-1.098l-.596-.428a.621.621 0 1 1 .737-1l.186.141-.656-.52a.648.648 0 1 1 .837-.988l1.156 1.045-.79-.853a.636.636 0 0 1 .02-.886Z" fill="url(#X)"/><path d="M20.934 22.041a.64.64 0 0 1 .914.02 93.02 93.02 0 0 0 1.82 1.886.05.05 0 0 0 .085-.04l-.089-.926a.67.67 0 0 1 1.32-.21l.692 3.103a2.173 2.173 0 0 1-1.688 2.751c-.697.2-1.485-.121-1.794-.308l-2.78-1.689a.632.632 0 0 1 .626-1.098l-.596-.428a.621.621 0 1 1 .737-1l.186.141-.656-.52a.648.648 0 1 1 .837-.988l1.156 1.045-.79-.853a.636.636 0 0 1 .02-.886Z" fill="url(#Y)"/><path d="M20.934 22.041a.64.64 0 0 1 .914.02 93.02 93.02 0 0 0 1.82 1.886.05.05 0 0 0 .085-.04l-.089-.926a.67.67 0 0 1 1.32-.21l.692 3.103a2.173 2.173 0 0 1-1.688 2.751c-.697.2-1.485-.121-1.794-.308l-2.78-1.689a.632.632 0 0 1 .626-1.098l-.596-.428a.621.621 0 1 1 .737-1l.186.141-.656-.52a.648.648 0 1 1 .837-.988l1.156 1.045-.79-.853a.636.636 0 0 1 .02-.886Z" fill="url(#Z)"/><path d="M20.934 22.041a.64.64 0 0 1 .914.02 93.02 93.02 0 0 0 1.82 1.886.05.05 0 0 0 .085-.04l-.089-.926a.67.67 0 0 1 1.32-.21l.692 3.103a2.173 2.173 0 0 1-1.688 2.751c-.697.2-1.485-.121-1.794-.308l-2.78-1.689a.632.632 0 0 1 .626-1.098l-.596-.428a.621.621 0 1 1 .737-1l.186.141-.656-.52a.648.648 0 1 1 .837-.988l1.156 1.045-.79-.853a.636.636 0 0 1 .02-.886Z" fill="url(#aa)"/><path d="M20.934 22.041a.64.64 0 0 1 .914.02 93.02 93.02 0 0 0 1.82 1.886.05.05 0 0 0 .085-.04l-.089-.926a.67.67 0 0 1 1.32-.21l.692 3.103a2.173 2.173 0 0 1-1.688 2.751c-.697.2-1.485-.121-1.794-.308l-2.78-1.689a.632.632 0 0 1 .626-1.098l-.596-.428a.621.621 0 1 1 .737-1l.186.141-.656-.52a.648.648 0 1 1 .837-.988l1.156 1.045-.79-.853a.636.636 0 0 1 .02-.886Z" fill="url(#ab)"/></g><path d="M20.934 22.041a.64.64 0 0 1 .914.02 93.02 93.02 0 0 0 1.82 1.886.05.05 0 0 0 .085-.04l-.089-.926a.67.67 0 0 1 1.32-.21l.692 3.103a2.173 2.173 0 0 1-1.688 2.751c-.697.2-1.485-.121-1.794-.308l-2.78-1.689a.632.632 0 0 1 .626-1.098l-.596-.428a.621.621 0 1 1 .737-1l.186.141-.656-.52a.648.648 0 1 1 .837-.988l1.156 1.045-.79-.853a.636.636 0 0 1 .02-.886Z" fill="url(#ac)"/><g filter="url(#ad)"><path d="M8.73 25.665h2.453c.425-.689 1.037-1.514 1.36-1.84a7.102 7.102 0 0 0-.532-1.663c-1.125.974-2.656 2.741-3.28 3.503Z" fill="url(#ae)"/></g><g filter="url(#af)"><path d="m21.48 22.334 2.11 2.14" stroke="url(#ag)" stroke-width=".4" stroke-linecap="round"/></g><g filter="url(#ah)"><path d="m24.49 22.763.813 3.711" stroke="url(#ai)" stroke-width=".4" stroke-linecap="round"/></g><g filter="url(#aj)"><path d="m20.198 23.05 2.093 1.727" stroke="url(#ak)" stroke-width=".4" stroke-linecap="round"/></g><g filter="url(#al)"><path d="m19.824 24.34 1.906 1.211" stroke="url(#am)" stroke-width=".4" stroke-linecap="round"/></g><g filter="url(#an)"><path d="m19.808 25.865 1.843.922" stroke="url(#ao)" stroke-width=".4" stroke-linecap="round"/></g><g filter="url(#ap)"><path d="M15.3 29.04c.886.054 3.107.13 4.898 0" stroke="url(#aq)" stroke-width=".3" stroke-linecap="round"/></g><g filter="url(#ar)"><path d="M11.442 13.93a1.715 1.715 0 1 0-.652-3.367 1.715 1.715 0 0 0 .652 3.367Z" fill="url(#as)"/></g><path d="M11.442 13.93a1.715 1.715 0 1 0-.652-3.367 1.715 1.715 0 0 0 .652 3.367Z" fill="url(#at)"/><g filter="url(#au)"><path d="M21.397 12.001a1.715 1.715 0 1 0-.652-3.367 1.715 1.715 0 0 0 .652 3.367Z" fill="url(#av)"/><path d="M21.397 12.001a1.715 1.715 0 1 0-.652-3.367 1.715 1.715 0 0 0 .652 3.367Z" fill="url(#aw)"/></g><g filter="url(#ax)"><path d="M21.289 11.442a1.145 1.145 0 1 0-.436-2.248 1.145 1.145 0 0 0 .436 2.248Z" fill="#B38574"/><path d="M21.289 11.442a1.145 1.145 0 1 0-.436-2.248 1.145 1.145 0 0 0 .436 2.248Z" fill="url(#ay)"/></g><g filter="url(#az)"><path d="M11.354 13.366a1.145 1.145 0 1 0-.436-2.247 1.145 1.145 0 0 0 .436 2.247Z" fill="#7E555A"/><path d="M11.354 13.366a1.145 1.145 0 1 0-.436-2.247 1.145 1.145 0 0 0 .436 2.247Z" fill="url(#aA)"/></g><g filter="url(#aB)"><path d="m10.44 11.006.012-.003-.064-.275-.073-.319c-.171-.997.334-1.493.556-1.67a.764.764 0 0 0 .05-.031 2.456 2.456 0 0 0 1.044-1.565l.046-.22a.281.281 0 0 1 .473-.146A4.117 4.117 0 0 0 16.16 7.88l3.37-.653c.188-.036 1.15-.128 1.458 1.164l.499 3.24c.439 2.958-1.47 5.371-4.265 5.913-2.796.541-5.468-.984-6.165-3.892l-.619-2.647Z" fill="url(#aC)"/><path d="m10.44 11.006.012-.003-.064-.275-.073-.319c-.171-.997.334-1.493.556-1.67a.764.764 0 0 0 .05-.031 2.456 2.456 0 0 0 1.044-1.565l.046-.22a.281.281 0 0 1 .473-.146A4.117 4.117 0 0 0 16.16 7.88l3.37-.653c.188-.036 1.15-.128 1.458 1.164l.499 3.24c.439 2.958-1.47 5.371-4.265 5.913-2.796.541-5.468-.984-6.165-3.892l-.619-2.647Z" fill="url(#aD)"/><path d="m10.44 11.006.012-.003-.064-.275-.073-.319c-.171-.997.334-1.493.556-1.67a.764.764 0 0 0 .05-.031 2.456 2.456 0 0 0 1.044-1.565l.046-.22a.281.281 0 0 1 .473-.146A4.117 4.117 0 0 0 16.16 7.88l3.37-.653c.188-.036 1.15-.128 1.458 1.164l.499 3.24c.439 2.958-1.47 5.371-4.265 5.913-2.796.541-5.468-.984-6.165-3.892l-.619-2.647Z" fill="url(#aE)"/><path d="m10.44 11.006.012-.003-.064-.275-.073-.319c-.171-.997.334-1.493.556-1.67a.764.764 0 0 0 .05-.031 2.456 2.456 0 0 0 1.044-1.565l.046-.22a.281.281 0 0 1 .473-.146A4.117 4.117 0 0 0 16.16 7.88l3.37-.653c.188-.036 1.15-.128 1.458 1.164l.499 3.24c.439 2.958-1.47 5.371-4.265 5.913-2.796.541-5.468-.984-6.165-3.892l-.619-2.647Z" fill="url(#aF)"/><path d="m10.44 11.006.012-.003-.064-.275-.073-.319c-.171-.997.334-1.493.556-1.67a.764.764 0 0 0 .05-.031 2.456 2.456 0 0 0 1.044-1.565l.046-.22a.281.281 0 0 1 .473-.146A4.117 4.117 0 0 0 16.16 7.88l3.37-.653c.188-.036 1.15-.128 1.458 1.164l.499 3.24c.439 2.958-1.47 5.371-4.265 5.913-2.796.541-5.468-.984-6.165-3.892l-.619-2.647Z" fill="url(#aG)"/><path d="m10.44 11.006.012-.003-.064-.275-.073-.319c-.171-.997.334-1.493.556-1.67a.764.764 0 0 0 .05-.031 2.456 2.456 0 0 0 1.044-1.565l.046-.22a.281.281 0 0 1 .473-.146A4.117 4.117 0 0 0 16.16 7.88l3.37-.653c.188-.036 1.15-.128 1.458 1.164l.499 3.24c.439 2.958-1.47 5.371-4.265 5.913-2.796.541-5.468-.984-6.165-3.892l-.619-2.647Z" fill="url(#aH)"/></g><path d="m10.44 11.006.012-.003-.064-.275-.073-.319c-.171-.997.334-1.493.556-1.67a.764.764 0 0 0 .05-.031 2.456 2.456 0 0 0 1.044-1.565l.046-.22a.281.281 0 0 1 .473-.146A4.117 4.117 0 0 0 16.16 7.88l3.37-.653c.188-.036 1.15-.128 1.458 1.164l.499 3.24c.439 2.958-1.47 5.371-4.265 5.913-2.796.541-5.468-.984-6.165-3.892l-.619-2.647Z" fill="url(#aI)"/><g filter="url(#aJ)"><path d="m15.564 11.143-.37 1.917c-.044.388.3.7.686.626l.822-.16a.576.576 0 0 0 .403-.837l-.9-1.67c-.196-.371-.593-.295-.641.124Z" fill="#88555F"/></g><g filter="url(#aK)"><path d="m15.546 10.996-.211 1.886c-.043.388.3.701.686.626l.823-.159a.577.577 0 0 0 .403-.837l-.9-1.671c-.196-.371-.752-.263-.8.155Z" fill="#B38578"/><path d="m15.546 10.996-.211 1.886c-.043.388.3.701.686.626l.823-.159a.577.577 0 0 0 .403-.837l-.9-1.671c-.196-.371-.752-.263-.8.155Z" fill="url(#aL)"/><path d="m15.546 10.996-.211 1.886c-.043.388.3.701.686.626l.823-.159a.577.577 0 0 0 .403-.837l-.9-1.671c-.196-.371-.752-.263-.8.155Z" fill="url(#aM)"/><path d="m15.546 10.996-.211 1.886c-.043.388.3.701.686.626l.823-.159a.577.577 0 0 0 .403-.837l-.9-1.671c-.196-.371-.752-.263-.8.155Z" fill="url(#aN)"/><path d="m15.546 10.996-.211 1.886c-.043.388.3.701.686.626l.823-.159a.577.577 0 0 0 .403-.837l-.9-1.671c-.196-.371-.752-.263-.8.155Z" fill="url(#aO)"/></g><g filter="url(#aP)"><path d="M16.61 14.344a3.226 3.226 0 0 1-1.558-.073c-.162-.048-.287.152-.168.271a2.059 2.059 0 0 0 3.4-.659c.065-.16-.124-.293-.257-.188a3.21 3.21 0 0 1-1.417.649Z" stroke="url(#aQ)" stroke-width=".2"/></g><path d="M16.61 14.344a3.226 3.226 0 0 1-1.558-.073c-.162-.048-.287.152-.168.271a2.059 2.059 0 0 0 3.4-.659c.065-.16-.124-.293-.257-.188a3.21 3.21 0 0 1-1.417.649Z" fill="#88024E"/><g filter="url(#aR)"><path d="M9.5 6.057c.47-.741 1.59-.96 2.126-.966l.676 1.27c-.272.01-.31.058-.47.29.077 1.171-1.084 2.117-2.575 2.884-.458-1.53-.369-2.512.243-3.478Z" fill="#49302E"/><path d="M9.5 6.057c.47-.741 1.59-.96 2.126-.966l.676 1.27c-.272.01-.31.058-.47.29.077 1.171-1.084 2.117-2.575 2.884-.458-1.53-.369-2.512.243-3.478Z" fill="url(#aS)"/><path d="M9.5 6.057c.47-.741 1.59-.96 2.126-.966l.676 1.27c-.272.01-.31.058-.47.29.077 1.171-1.084 2.117-2.575 2.884-.458-1.53-.369-2.512.243-3.478Z" fill="url(#aT)"/></g><g filter="url(#aU)"><path d="M13.808 3.266c-1.236-.032-2.071 1.356-2.11 1.819C13.519 8.58 16.265 7.839 18.955 7c1.61-.502 1.934.213 2.145.549-.798-4.116-4.447-4.21-7.26-4.283l-.031-.001Z" fill="#553836"/><path d="M13.808 3.266c-1.236-.032-2.071 1.356-2.11 1.819C13.519 8.58 16.265 7.839 18.955 7c1.61-.502 1.934.213 2.145.549-.798-4.116-4.447-4.21-7.26-4.283l-.031-.001Z" fill="url(#aV)"/><path d="M13.808 3.266c-1.236-.032-2.071 1.356-2.11 1.819C13.519 8.58 16.265 7.839 18.955 7c1.61-.502 1.934.213 2.145.549-.798-4.116-4.447-4.21-7.26-4.283l-.031-.001Z" fill="url(#aW)"/></g><g filter="url(#aX)"><path d="M11.667 5.037c.074.25.48 1.162.917 1.678" stroke="url(#aY)" stroke-width=".2" stroke-linecap="round"/></g><g filter="url(#aZ)"><path d="m17.69 6.433-1.438.563a.733.733 0 1 1-.408-1.402l2.45-.475c1.448-.28 2.21 1.086 2.366 1.574a3.354 3.354 0 0 0-2.97-.26Z" fill="#664A4A"/></g><g filter="url(#ba)"><path d="M12.125 9.727c1.375-.263 2.39.359 2.672 1.125-1.413.208-2.038.38-2.476.614l-.196-1.74Z" fill="url(#bb)"/></g><g filter="url(#bc)"><path d="M17.077 8.778c1.041-.327 2.4.235 2.4 1.624-.671-.374-2.007-.518-2.482-.374l.082-1.25Z" fill="url(#bd)"/></g><path d="M19.106 10.2c-.08.01-.14.06-.19.13-.16.26-.42.45-.74.51s-.63-.03-.86-.23a.286.286 0 0 0-.22-.06c-.22.04-.3.32-.12.47.35.29.82.43 1.3.34.48-.08.87-.37 1.11-.77.11-.19-.06-.43-.28-.39Z" fill="url(#be)"/><path d="M14.607 10.953c-.08.01-.14.06-.19.13-.16.26-.42.45-.74.51-.31.06-.62-.03-.86-.22a.252.252 0 0 0-.22-.06c-.22.04-.3.32-.12.47.35.29.82.43 1.3.34.48-.08.87-.37 1.11-.77.11-.19-.06-.43-.28-.4Z" fill="url(#bf)"/><g filter="url(#bg)" stroke-width=".2" stroke-linecap="round"><path d="M17.152 10.8c.13.122.518.353 1.022.298.504-.054.947-.543 1.06-.727" stroke="url(#bh)"/><path d="M17.152 10.8c.13.122.518.353 1.022.298.504-.054.947-.543 1.06-.727" stroke="url(#bi)"/></g><g filter="url(#bj)" stroke-width=".2" stroke-linecap="round"><path d="M12.685 11.552c.13.122.518.353 1.021.298.505-.054.947-.543 1.06-.727" stroke="url(#bk)"/><path d="M12.685 11.552c.13.122.518.353 1.021.298.505-.054.947-.543 1.06-.727" stroke="url(#bl)"/></g><g filter="url(#bm)"><path fill-rule="evenodd" clip-rule="evenodd" d="m19.177 8.342-.098.268.098-.268a.286.286 0 0 1-.195.537l-.006-.002a1.266 1.266 0 0 0-.13-.038 2.922 2.922 0 0 0-.385-.072 2.42 2.42 0 0 0-1.14.121.286.286 0 0 1-.205-.533 2.989 2.989 0 0 1 1.412-.155 3.494 3.494 0 0 1 .632.136l.011.004h.004l.001.001Z" fill="#432A28"/></g><g filter="url(#bn)"><path d="M17.274 8.56c.322-.147 1.169-.268 1.807.024" stroke="#5B4545" stroke-width=".2" stroke-linecap="round"/></g><g filter="url(#bo)"><path d="m12.104 10.124-.004.004a.286.286 0 0 1-.382-.426h.001l.003-.003.009-.008a1.76 1.76 0 0 1 .14-.11c.093-.07.228-.16.396-.253a2.989 2.989 0 0 1 1.367-.383.286.286 0 0 1 .01.571 2.42 2.42 0 0 0-1.103.314 2.922 2.922 0 0 0-.437.294Z" fill="#432A28"/></g><g filter="url(#bp)"><path d="M13.601 9.189c-.353-.017-1.184.187-1.668.697" stroke="#5B4545" stroke-width=".2" stroke-linecap="round"/></g><defs><radialGradient id="c" cx="0" cy="0" r="1" gradientUnits="userSpaceOnUse" gradientTransform="matrix(.29287 4.89336 -6.11281 .36586 16.211 13.975)"><stop offset=".591" stop-color="#261326"/><stop offset="1" stop-color="#261326" stop-opacity="0"/></radialGradient><radialGradient id="d" cx="0" cy="0" r="1" gradientUnits="userSpaceOnUse" gradientTransform="rotate(135.04 3.592 10.169) scale(3.70671 4.87033)"><stop offset=".258" stop-color="#25131C"/><stop offset="1" stop-color="#25131C" stop-opacity="0"/></radialGradient><radialGradient id="e" cx="0" cy="0" r="1" gradientUnits="userSpaceOnUse" gradientTransform="matrix(-1.02155 2.0542 -1.57734 -.7844 10.996 12.51)"><stop offset=".334" stop-color="#27141E"/><stop offset="1" stop-color="#27141E" stop-opacity="0"/></radialGradient><radialGradient id="f" cx="0" cy="0" r="1" gradientUnits="userSpaceOnUse" gradientTransform="matrix(-.92244 2.47178 -1.74115 -.64978 11.058 10.296)"><stop offset=".321" stop-color="#230C14"/><stop offset="1" stop-color="#230C14" stop-opacity="0"/></radialGradient><radialGradient id="g" cx="0" cy="0" r="1" gradientUnits="userSpaceOnUse" gradientTransform="matrix(1.96846 2.45767 -3.41162 2.73252 10.703 3.576)"><stop stop-color="#554543"/><stop offset="1" stop-color="#554543" stop-opacity="0"/></radialGradient><radialGradient id="h" cx="0" cy="0" r="1" gradientUnits="userSpaceOnUse" gradientTransform="rotate(124.034 9.432 7.483) scale(2.17293 3.03664)"><stop stop-color="#6E5350"/><stop offset="1" stop-color="#6E5350" stop-opacity="0"/></radialGradient><radialGradient id="i" cx="0" cy="0" r="1" gradientUnits="userSpaceOnUse" gradientTransform="rotate(152.815 10.779 7.307) scale(2.04673 4.26829)"><stop stop-color="#604947"/><stop offset="1" stop-color="#604947" stop-opacity="0"/></radialGradient><radialGradient id="j" cx="0" cy="0" r="1" gradientUnits="userSpaceOnUse" gradientTransform="matrix(-2.804 1.30759 -1.66567 -3.57188 23.767 12.583)"><stop stop-color="#564544"/><stop offset="1" stop-color="#564544" stop-opacity="0"/></radialGradient><radialGradient id="k" cx="0" cy="0" r="1" gradientUnits="userSpaceOnUse" gradientTransform="matrix(-1.48384 -2.59009 2.04861 -1.17363 20.306 6.899)"><stop stop-color="#5F4846"/><stop offset="1" stop-color="#5F4846" stop-opacity="0"/></radialGradient><radialGradient id="l" cx="0" cy="0" r="1" gradientUnits="userSpaceOnUse" gradientTransform="matrix(1.60581 -.13982 .22656 2.6019 9.413 11.613)"><stop stop-color="#56413D"/><stop offset="1" stop-color="#56413D" stop-opacity="0"/></radialGradient><radialGradient id="m" cx="0" cy="0" r="1" gradientUnits="userSpaceOnUse" gradientTransform="rotate(-113.713 13.353 -2.55) scale(4.04834 1.46113)"><stop stop-color="#3E2125"/><stop offset="1" stop-color="#3E2125" stop-opacity="0"/></radialGradient><radialGradient id="n" cx="0" cy="0" r="1" gradientUnits="userSpaceOnUse" gradientTransform="matrix(2.03125 0 0 1.9893 19.511 29.938)"><stop stop-color="#7B42DC"/><stop offset="1" stop-color="#7B42DC" stop-opacity="0"/></radialGradient><radialGradient id="o" cx="0" cy="0" r="1" gradientUnits="userSpaceOnUse" gradientTransform="matrix(-6.50378 0 0 -5.6875 21.761 19.162)"><stop stop-color="#BD9678"/><stop offset="1" stop-color="#A8806B"/></radialGradient><radialGradient id="p" cx="0" cy="0" r="1" gradientUnits="userSpaceOnUse" gradientTransform="rotate(-154.983 12.467 9.024) scale(2.5864 3.5607)"><stop stop-color="#826A56"/><stop offset="1" stop-color="#826A56" stop-opacity="0"/></radialGradient><radialGradient id="q" cx="0" cy="0" r="1" gradientUnits="userSpaceOnUse" gradientTransform="matrix(.6438 1.98845 -3.91086 1.2662 16.59 16.398)"><stop offset=".446" stop-color="#5D372F"/><stop offset="1" stop-color="#79513F" stop-opacity="0"/></radialGradient><radialGradient id="r" cx="0" cy="0" r="1" gradientUnits="userSpaceOnUse" gradientTransform="matrix(2.21876 -7 9.86052 3.12544 19.268 23.153)"><stop offset=".783" stop-color="#896A51" stop-opacity="0"/><stop offset="1" stop-color="#896A51"/></radialGradient><radialGradient id="t" cx="0" cy="0" r="1" gradientUnits="userSpaceOnUse" gradientTransform="rotate(36.198 -30.178 49.515) scale(3.46586 3.31477)"><stop offset=".91" stop-color="#7F5ACC"/><stop offset="1" stop-color="#7F5ACC" stop-opacity="0"/></radialGradient><radialGradient id="u" cx="0" cy="0" r="1" gradientUnits="userSpaceOnUse" gradientTransform="matrix(1.3125 1.3125 -2.12008 2.12008 22.011 27.818)"><stop stop-color="#603EB7"/><stop offset="1" stop-color="#603EB7" stop-opacity="0"/></radialGradient><radialGradient id="x" cx="0" cy="0" r="1" gradientUnits="userSpaceOnUse" gradientTransform="rotate(126.08 3.12 12.131) scale(4.98797 9.68383)"><stop offset=".028" stop-color="#6A428C"/><stop offset="1" stop-color="#885EBC" stop-opacity="0"/></radialGradient><radialGradient id="y" cx="0" cy="0" r="1" gradientUnits="userSpaceOnUse" gradientTransform="matrix(0 2.45313 -.6875 0 13.87 28.317)"><stop stop-color="#AC7FF8"/><stop offset="1" stop-color="#A476F3" stop-opacity="0"/></radialGradient><radialGradient id="z" cx="0" cy="0" r="1" gradientUnits="userSpaceOnUse" gradientTransform="rotate(-117.519 14.64 7.173) scale(1.35267 2.95016)"><stop offset=".079" stop-color="#7556B0"/><stop offset="1" stop-color="#9165D2" stop-opacity="0"/></radialGradient><radialGradient id="B" cx="0" cy="0" r="1" gradientUnits="userSpaceOnUse" gradientTransform="matrix(1.35937 -1.6057 .88152 .74629 11.761 25.739)"><stop stop-color="#44327F"/><stop offset="1" stop-color="#44327F" stop-opacity="0"/></radialGradient><radialGradient id="D" cx="0" cy="0" r="1" gradientUnits="userSpaceOnUse" gradientTransform="rotate(-162.16 15.544 12.068) scale(.71402 1.53504)"><stop offset=".287" stop-color="#A980F3"/><stop offset="1" stop-color="#A980F3" stop-opacity="0"/></radialGradient><radialGradient id="K" cx="0" cy="0" r="1" gradientUnits="userSpaceOnUse" gradientTransform="rotate(163.67 9.088 15.5) scale(5.1125 7.55864)"><stop stop-color="#248571"/><stop offset="1" stop-color="#248571" stop-opacity="0"/></radialGradient><radialGradient id="N" cx="0" cy="0" r="1" gradientUnits="userSpaceOnUse" gradientTransform="matrix(2.45313 -1.0625 .82137 1.8964 14.8 30.736)"><stop offset=".515" stop-color="#B28280"/><stop offset="1" stop-color="#B98C86" stop-opacity="0"/></radialGradient><radialGradient id="O" cx="0" cy="0" r="1" gradientUnits="userSpaceOnUse" gradientTransform="matrix(-.46094 .36719 -.26111 -.32778 16.792 26.346)"><stop stop-color="#B58E83"/><stop offset="1" stop-color="#B58E83" stop-opacity="0"/></radialGradient><radialGradient id="P" cx="0" cy="0" r="1" gradientUnits="userSpaceOnUse" gradientTransform="matrix(-1.45313 0 0 -.59662 16.175 28.216)"><stop stop-color="#BC9586"/><stop offset="1" stop-color="#B0837C" stop-opacity="0"/></radialGradient><radialGradient id="Q" cx="0" cy="0" r="1" gradientUnits="userSpaceOnUse" gradientTransform="rotate(154.496 10.792 13.812) scale(3.77401 4.40797)"><stop stop-color="#53FFA2"/><stop offset="1" stop-color="#34E38B"/></radialGradient><radialGradient id="R" cx="0" cy="0" r="1" gradientUnits="userSpaceOnUse" gradientTransform="rotate(42.983 -16.002 40.634) scale(5.22527)"><stop offset=".732" stop-color="#51E398" stop-opacity="0"/><stop offset=".995" stop-color="#51E398"/></radialGradient><radialGradient id="T" cx="0" cy="0" r="1" gradientUnits="userSpaceOnUse" gradientTransform="matrix(.39062 -3.01563 4.79304 .62086 19.418 24.41)"><stop stop-color="#309972"/><stop offset="1" stop-color="#309972" stop-opacity="0"/></radialGradient><radialGradient id="V" cx="0" cy="0" r="1" gradientUnits="userSpaceOnUse" gradientTransform="matrix(-4.43753 -3.96872 3.86667 -4.32342 24.355 27.817)"><stop stop-color="#B1817B"/><stop offset="1" stop-color="#9D766B"/></radialGradient><radialGradient id="X" cx="0" cy="0" r="1" gradientUnits="userSpaceOnUse" gradientTransform="matrix(-4.43753 -3.96872 3.86667 -4.32342 24.355 27.817)"><stop stop-color="#B1817B"/><stop offset="1" stop-color="#9D766B"/></radialGradient><radialGradient id="Y" cx="0" cy="0" r="1" gradientUnits="userSpaceOnUse" gradientTransform="matrix(2.49219 1.72656 -.24906 .3595 19.44 23.372)"><stop stop-color="#92626A"/><stop offset="1" stop-color="#92626A" stop-opacity="0"/></radialGradient><radialGradient id="Z" cx="0" cy="0" r="1" gradientUnits="userSpaceOnUse" gradientTransform="matrix(1.89062 2.04687 -.34125 .3152 20.784 22.544)"><stop stop-color="#92626A"/><stop offset="1" stop-color="#92626A" stop-opacity="0"/></radialGradient><radialGradient id="aa" cx="0" cy="0" r="1" gradientUnits="userSpaceOnUse" gradientTransform="matrix(1.90625 1.26562 -.211 .3178 19.721 25.184)"><stop stop-color="#92626A"/><stop offset="1" stop-color="#92626A" stop-opacity="0"/></radialGradient><radialGradient id="ab" cx="0" cy="0" r="1" gradientUnits="userSpaceOnUse" gradientTransform="matrix(.20312 2.11719 -.35298 .03386 23.69 22.38)"><stop stop-color="#8A6557"/><stop offset="1" stop-color="#8A6557" stop-opacity="0"/></radialGradient><radialGradient id="at" cx="0" cy="0" r="1" gradientUnits="userSpaceOnUse" gradientTransform="matrix(-.9279 -1.12668 1.27667 -1.05144 11.031 14.01)"><stop stop-color="#814E62"/><stop offset="1" stop-color="#814E62" stop-opacity="0"/></radialGradient><radialGradient id="av" cx="0" cy="0" r="1" gradientUnits="userSpaceOnUse" gradientTransform="rotate(-35.409 27.299 -26.384) scale(2.9139 3.55774)"><stop offset=".64" stop-color="#B28279"/><stop offset="1" stop-color="#CCA58B"/></radialGradient><radialGradient id="aw" cx="0" cy="0" r="1" gradientUnits="userSpaceOnUse" gradientTransform="matrix(1.2627 -.24463 .10533 .54366 20.848 8.509)"><stop stop-color="#906D53"/><stop offset="1" stop-color="#906D53" stop-opacity="0"/></radialGradient><radialGradient id="ay" cx="0" cy="0" r="1" gradientUnits="userSpaceOnUse" gradientTransform="rotate(-15.219 49.705 -71.98) scale(1.61362 1.2614)"><stop offset=".719" stop-color="#A26D62" stop-opacity="0"/><stop offset="1" stop-color="#A26D62"/></radialGradient><radialGradient id="aA" cx="0" cy="0" r="1" gradientUnits="userSpaceOnUse" gradientTransform="rotate(169.035 5.015 6.652) scale(1.12539)"><stop offset=".722" stop-color="#6C4640" stop-opacity="0"/><stop offset="1" stop-color="#6C4640"/></radialGradient><radialGradient id="aC" cx="0" cy="0" r="1" gradientUnits="userSpaceOnUse" gradientTransform="matrix(-6.19794 4.45695 -5.96558 -8.29587 18.902 10.153)"><stop stop-color="#C79980"/><stop offset="1" stop-color="#946568"/></radialGradient><radialGradient id="aD" cx="0" cy="0" r="1" gradientUnits="userSpaceOnUse" gradientTransform="matrix(-2.08712 1.44605 -1.007 -1.45343 18.146 11.227)"><stop stop-color="#C4967A"/><stop offset="1" stop-color="#C4967A" stop-opacity="0"/></radialGradient><radialGradient id="aE" cx="0" cy="0" r="1" gradientUnits="userSpaceOnUse" gradientTransform="rotate(-82.796 17.682 .502) scale(4.40715 5.59185)"><stop stop-color="#945A73"/><stop offset="1" stop-color="#945A73" stop-opacity="0"/></radialGradient><radialGradient id="aF" cx="0" cy="0" r="1" gradientUnits="userSpaceOnUse" gradientTransform="matrix(.15047 7.97644 -9.97045 .18808 16.896 10.09)"><stop offset=".637" stop-color="#8D5E67" stop-opacity="0"/><stop offset=".955" stop-color="#764C51"/></radialGradient><radialGradient id="aG" cx="0" cy="0" r="1" gradientUnits="userSpaceOnUse" gradientTransform="rotate(157.932 7.89 7.859) scale(7.5015 12.9153)"><stop offset=".795" stop-color="#9A7267" stop-opacity="0"/><stop offset="1" stop-color="#9A7267"/></radialGradient><radialGradient id="aH" cx="0" cy="0" r="1" gradientUnits="userSpaceOnUse" gradientTransform="rotate(94.127 4.87 11.613) scale(3.56242 2.85052)"><stop stop-color="#AB8179"/><stop offset="1" stop-color="#AB8179" stop-opacity="0"/></radialGradient><radialGradient id="aI" cx="0" cy="0" r="1" gradientUnits="userSpaceOnUse" gradientTransform="matrix(-1.34504 .2606 -1.30686 -6.74522 21.46 10.819)"><stop stop-color="#C0967A"/><stop offset="1" stop-color="#C0967A" stop-opacity="0"/></radialGradient><radialGradient id="aL" cx="0" cy="0" r="1" gradientUnits="userSpaceOnUse" gradientTransform="matrix(-.89095 -2.0463 .63065 -.27458 17.095 12.454)"><stop offset=".017" stop-color="#CDA38B"/><stop offset="1" stop-color="#CDA38B" stop-opacity="0"/></radialGradient><radialGradient id="aO" cx="0" cy="0" r="1" gradientUnits="userSpaceOnUse" gradientTransform="matrix(-.81548 .158 -.04417 -.22799 16.887 12.724)"><stop stop-color="#CA9F8C"/><stop offset="1" stop-color="#CA9F8C" stop-opacity="0"/></radialGradient><radialGradient id="aS" cx="0" cy="0" r="1" gradientUnits="userSpaceOnUse" gradientTransform="matrix(.76191 -3.13882 1.60574 .38978 9.547 9.599)"><stop stop-color="#5C4643"/><stop offset="1" stop-color="#5C4643" stop-opacity="0"/></radialGradient><radialGradient id="aT" cx="0" cy="0" r="1" gradientUnits="userSpaceOnUse" gradientTransform="matrix(.80235 -2.2997 1.23462 .43075 11.135 8.227)"><stop stop-color="#4B2839"/><stop offset="1" stop-color="#4B2839" stop-opacity="0"/></radialGradient><radialGradient id="aV" cx="0" cy="0" r="1" gradientUnits="userSpaceOnUse" gradientTransform="rotate(104.719 7.197 7.637) scale(5.19427 8.49232)"><stop offset=".639" stop-color="#442534" stop-opacity="0"/><stop offset="1" stop-color="#442534"/></radialGradient><radialGradient id="aW" cx="0" cy="0" r="1" gradientUnits="userSpaceOnUse" gradientTransform="matrix(.05708 1.4734 -3.16994 .1228 14.707 3.347)"><stop stop-color="#634945"/><stop offset="1" stop-color="#4C4749" stop-opacity="0"/><stop offset="1" stop-color="#634945" stop-opacity="0"/></radialGradient><radialGradient id="bi" cx="0" cy="0" r="1" gradientUnits="userSpaceOnUse" gradientTransform="matrix(-.12314 .21283 -.20557 -.11894 19.144 10.43)"><stop stop-color="#594543"/><stop offset="1" stop-color="#594543" stop-opacity="0"/></radialGradient><radialGradient id="bl" cx="0" cy="0" r="1" gradientUnits="userSpaceOnUse" gradientTransform="matrix(-.12314 .21283 -.20557 -.11894 14.677 11.182)"><stop stop-color="#594543"/><stop offset="1" stop-color="#594543" stop-opacity="0"/></radialGradient><filter id="a" x="8.093" y="1.557" width="16.762" height="17.464" filterUnits="userSpaceOnUse" color-interpolation-filters="sRGB"><feFlood flood-opacity="0" result="BackgroundImageFix"/><feBlend in="SourceGraphic" in2="BackgroundImageFix" result="shape"/><feColorMatrix in="SourceAlpha" values="0 0 0 0 0 0 0 0 0 0 0 0 0 0 0 0 0 0 127 0" result="hardAlpha"/><feOffset dx=".25" dy="-.75"/><feGaussianBlur stdDeviation=".75"/><feComposite in2="hardAlpha" operator="arithmetic" k2="-1" k3="1"/><feColorMatrix values="0 0 0 0 0.262745 0 0 0 0 0.133333 0 0 0 0 0.184314 0 0 0 1 0"/><feBlend in2="shape" result="effect1_innerShadow_4002_3507"/></filter><filter id="v" x="4.292" y="17.002" width="12.107" height="12.935" filterUnits="userSpaceOnUse" color-interpolation-filters="sRGB"><feFlood flood-opacity="0" result="BackgroundImageFix"/><feBlend in="SourceGraphic" in2="BackgroundImageFix" result="shape"/><feColorMatrix in="SourceAlpha" values="0 0 0 0 0 0 0 0 0 0 0 0 0 0 0 0 0 0 127 0" result="hardAlpha"/><feOffset dx=".2"/><feGaussianBlur stdDeviation=".75"/><feComposite in2="hardAlpha" operator="arithmetic" k2="-1" k3="1"/><feColorMatrix values="0 0 0 0 0.513726 0 0 0 0 0.392157 0 0 0 0 0.647059 0 0 0 1 0"/><feBlend in2="shape" result="effect1_innerShadow_4002_3507"/></filter><filter id="A" x="10.246" y="23.633" width="3.547" height="2.605" filterUnits="userSpaceOnUse" color-interpolation-filters="sRGB"><feFlood flood-opacity="0" result="BackgroundImageFix"/><feBlend in="SourceGraphic" in2="BackgroundImageFix" result="shape"/><feGaussianBlur stdDeviation=".25" result="effect1_foregroundBlur_4002_3507"/></filter><filter id="C" x="25.65" y="26.369" width="1.338" height="3.484" filterUnits="userSpaceOnUse" color-interpolation-filters="sRGB"><feFlood flood-opacity="0" result="BackgroundImageFix"/><feBlend in="SourceGraphic" in2="BackgroundImageFix" result="shape"/><feGaussianBlur stdDeviation=".05" result="effect1_foregroundBlur_4002_3507"/></filter><filter id="E" x="6.668" y="26.098" width="8.034" height="4.188" filterUnits="userSpaceOnUse" color-interpolation-filters="sRGB"><feFlood flood-opacity="0" result="BackgroundImageFix"/><feBlend in="SourceGraphic" in2="BackgroundImageFix" result="shape"/><feGaussianBlur stdDeviation=".5" result="effect1_foregroundBlur_4002_3507"/></filter><filter id="G" x="11.205" y="20.754" width="1.907" height="4.376" filterUnits="userSpaceOnUse" color-interpolation-filters="sRGB"><feFlood flood-opacity="0" result="BackgroundImageFix"/><feBlend in="SourceGraphic" in2="BackgroundImageFix" result="shape"/><feGaussianBlur stdDeviation=".125" result="effect1_foregroundBlur_4002_3507"/></filter><filter id="I" x="11.765" y="21.82" width="10.856" height="8.359" filterUnits="userSpaceOnUse" color-interpolation-filters="sRGB"><feFlood flood-opacity="0" result="BackgroundImageFix"/><feBlend in="SourceGraphic" in2="BackgroundImageFix" result="shape"/><feColorMatrix in="SourceAlpha" values="0 0 0 0 0 0 0 0 0 0 0 0 0 0 0 0 0 0 127 0" result="hardAlpha"/><feOffset dx=".25" dy=".25"/><feGaussianBlur stdDeviation=".5"/><feComposite in2="hardAlpha" operator="arithmetic" k2="-1" k3="1"/><feColorMatrix values="0 0 0 0 0.278431 0 0 0 0 0.682353 0 0 0 0 0.356863 0 0 0 1 0"/><feBlend in2="shape" result="effect1_innerShadow_4002_3507"/></filter><filter id="L" x="14.118" y="25.665" width="6.652" height="4.473" filterUnits="userSpaceOnUse" color-interpolation-filters="sRGB"><feFlood flood-opacity="0" result="BackgroundImageFix"/><feBlend in="SourceGraphic" in2="BackgroundImageFix" result="shape"/><feColorMatrix in="SourceAlpha" values="0 0 0 0 0 0 0 0 0 0 0 0 0 0 0 0 0 0 127 0" result="hardAlpha"/><feOffset dx="-.2" dy=".2"/><feGaussianBlur stdDeviation=".3"/><feComposite in2="hardAlpha" operator="arithmetic" k2="-1" k3="1"/><feColorMatrix values="0 0 0 0 0.490196 0 0 0 0 0.431373 0 0 0 0 0.32549 0 0 0 1 0"/><feBlend in2="shape" result="effect1_innerShadow_4002_3507"/></filter><filter id="U" x="19.111" y="21.459" width="6.654" height="7.23" filterUnits="userSpaceOnUse" color-interpolation-filters="sRGB"><feFlood flood-opacity="0" result="BackgroundImageFix"/><feBlend in="SourceGraphic" in2="BackgroundImageFix" result="shape"/><feColorMatrix in="SourceAlpha" values="0 0 0 0 0 0 0 0 0 0 0 0 0 0 0 0 0 0 127 0" result="hardAlpha"/><feOffset dy="-.4"/><feGaussianBlur stdDeviation=".4"/><feComposite in2="hardAlpha" operator="arithmetic" k2="-1" k3="1"/><feColorMatrix values="0 0 0 0 0.588235 0 0 0 0 0.337255 0 0 0 0 0.513726 0 0 0 1 0"/><feBlend in2="shape" result="effect1_innerShadow_4002_3507"/></filter><filter id="W" x="19.111" y="21.459" width="6.654" height="7.23" filterUnits="userSpaceOnUse" color-interpolation-filters="sRGB"><feFlood flood-opacity="0" result="BackgroundImageFix"/><feBlend in="SourceGraphic" in2="BackgroundImageFix" result="shape"/><feColorMatrix in="SourceAlpha" values="0 0 0 0 0 0 0 0 0 0 0 0 0 0 0 0 0 0 127 0" result="hardAlpha"/><feOffset dy="-.4"/><feGaussianBlur stdDeviation=".4"/><feComposite in2="hardAlpha" operator="arithmetic" k2="-1" k3="1"/><feColorMatrix values="0 0 0 0 0.588235 0 0 0 0 0.337255 0 0 0 0 0.513726 0 0 0 1 0"/><feBlend in2="shape" result="effect1_innerShadow_4002_3507"/></filter><filter id="ad" x="7.73" y="21.162" width="5.813" height="5.503" filterUnits="userSpaceOnUse" color-interpolation-filters="sRGB"><feFlood flood-opacity="0" result="BackgroundImageFix"/><feBlend in="SourceGraphic" in2="BackgroundImageFix" result="shape"/><feGaussianBlur stdDeviation=".5" result="effect1_foregroundBlur_4002_3507"/></filter><filter id="af" x="20.88" y="21.733" width="3.309" height="3.341" filterUnits="userSpaceOnUse" color-interpolation-filters="sRGB"><feFlood flood-opacity="0" result="BackgroundImageFix"/><feBlend in="SourceGraphic" in2="BackgroundImageFix" result="shape"/><feGaussianBlur stdDeviation=".2" result="effect1_foregroundBlur_4002_3507"/></filter><filter id="ah" x="23.891" y="22.163" width="2.013" height="4.911" filterUnits="userSpaceOnUse" color-interpolation-filters="sRGB"><feFlood flood-opacity="0" result="BackgroundImageFix"/><feBlend in="SourceGraphic" in2="BackgroundImageFix" result="shape"/><feGaussianBlur stdDeviation=".2" result="effect1_foregroundBlur_4002_3507"/></filter><filter id="aj" x="19.598" y="22.45" width="3.294" height="2.926" filterUnits="userSpaceOnUse" color-interpolation-filters="sRGB"><feFlood flood-opacity="0" result="BackgroundImageFix"/><feBlend in="SourceGraphic" in2="BackgroundImageFix" result="shape"/><feGaussianBlur stdDeviation=".2" result="effect1_foregroundBlur_4002_3507"/></filter><filter id="al" x="19.224" y="23.74" width="3.106" height="2.411" filterUnits="userSpaceOnUse" color-interpolation-filters="sRGB"><feFlood flood-opacity="0" result="BackgroundImageFix"/><feBlend in="SourceGraphic" in2="BackgroundImageFix" result="shape"/><feGaussianBlur stdDeviation=".2" result="effect1_foregroundBlur_4002_3507"/></filter><filter id="an" x="19.208" y="25.265" width="3.043" height="2.122" filterUnits="userSpaceOnUse" color-interpolation-filters="sRGB"><feFlood flood-opacity="0" result="BackgroundImageFix"/><feBlend in="SourceGraphic" in2="BackgroundImageFix" result="shape"/><feGaussianBlur stdDeviation=".2" result="effect1_foregroundBlur_4002_3507"/></filter><filter id="ap" x="14.85" y="28.59" width="5.798" height=".972" filterUnits="userSpaceOnUse" color-interpolation-filters="sRGB"><feFlood flood-opacity="0" result="BackgroundImageFix"/><feBlend in="SourceGraphic" in2="BackgroundImageFix" result="shape"/><feGaussianBlur stdDeviation=".15" result="effect1_foregroundBlur_4002_3507"/></filter><filter id="ar" x="9.401" y="10.531" width="3.58" height="3.431" filterUnits="userSpaceOnUse" color-interpolation-filters="sRGB"><feFlood flood-opacity="0" result="BackgroundImageFix"/><feBlend in="SourceGraphic" in2="BackgroundImageFix" result="shape"/><feColorMatrix in="SourceAlpha" values="0 0 0 0 0 0 0 0 0 0 0 0 0 0 0 0 0 0 127 0" result="hardAlpha"/><feOffset dx=".15"/><feGaussianBlur stdDeviation=".25"/><feComposite in2="hardAlpha" operator="arithmetic" k2="-1" k3="1"/><feColorMatrix values="0 0 0 0 0.607843 0 0 0 0 0.458824 0 0 0 0 0.403922 0 0 0 1 0"/><feBlend in2="shape" result="effect1_innerShadow_4002_3507"/></filter><filter id="au" x="19.356" y="8.353" width="3.43" height="3.681" filterUnits="userSpaceOnUse" color-interpolation-filters="sRGB"><feFlood flood-opacity="0" result="BackgroundImageFix"/><feBlend in="SourceGraphic" in2="BackgroundImageFix" result="shape"/><feColorMatrix in="SourceAlpha" values="0 0 0 0 0 0 0 0 0 0 0 0 0 0 0 0 0 0 127 0" result="hardAlpha"/><feOffset dy="-.25"/><feGaussianBlur stdDeviation=".25"/><feComposite in2="hardAlpha" operator="arithmetic" k2="-1" k3="1"/><feColorMatrix values="0 0 0 0 0.556863 0 0 0 0 0.34902 0 0 0 0 0.384314 0 0 0 1 0"/><feBlend in2="shape" result="effect1_innerShadow_4002_3507"/></filter><filter id="ax" x="19.426" y="8.673" width="3.29" height="3.29" filterUnits="userSpaceOnUse" color-interpolation-filters="sRGB"><feFlood flood-opacity="0" result="BackgroundImageFix"/><feBlend in="SourceGraphic" in2="BackgroundImageFix" result="shape"/><feGaussianBlur stdDeviation=".25" result="effect1_foregroundBlur_4002_3507"/></filter><filter id="az" x="9.641" y="10.748" width="2.99" height="2.99" filterUnits="userSpaceOnUse" color-interpolation-filters="sRGB"><feFlood flood-opacity="0" result="BackgroundImageFix"/><feBlend in="SourceGraphic" in2="BackgroundImageFix" result="shape"/><feGaussianBlur stdDeviation=".175" result="effect1_foregroundBlur_4002_3507"/></filter><filter id="aB" x="10.28" y="6.696" width="11.27" height="11.207" filterUnits="userSpaceOnUse" color-interpolation-filters="sRGB"><feFlood flood-opacity="0" result="BackgroundImageFix"/><feBlend in="SourceGraphic" in2="BackgroundImageFix" result="shape"/><feColorMatrix in="SourceAlpha" values="0 0 0 0 0 0 0 0 0 0 0 0 0 0 0 0 0 0 127 0" result="hardAlpha"/><feOffset dy=".25"/><feGaussianBlur stdDeviation=".15"/><feComposite in2="hardAlpha" operator="arithmetic" k2="-1" k3="1"/><feColorMatrix values="0 0 0 0 0.407843 0 0 0 0 0.223529 0 0 0 0 0.25098 0 0 0 1 0"/><feBlend in2="shape" result="effect1_innerShadow_4002_3507"/></filter><filter id="aJ" x="14.69" y="10.28" width="2.984" height="3.917" filterUnits="userSpaceOnUse" color-interpolation-filters="sRGB"><feFlood flood-opacity="0" result="BackgroundImageFix"/><feBlend in="SourceGraphic" in2="BackgroundImageFix" result="shape"/><feGaussianBlur stdDeviation=".25" result="effect1_foregroundBlur_4002_3507"/></filter><filter id="aK" x="15.081" y="10.364" width="2.484" height="3.405" filterUnits="userSpaceOnUse" color-interpolation-filters="sRGB"><feFlood flood-opacity="0" result="BackgroundImageFix"/><feBlend in="SourceGraphic" in2="BackgroundImageFix" result="shape"/><feGaussianBlur stdDeviation=".125" result="effect1_foregroundBlur_4002_3507"/></filter><filter id="aP" x="14.637" y="13.458" width="3.86" height="1.922" filterUnits="userSpaceOnUse" color-interpolation-filters="sRGB"><feFlood flood-opacity="0" result="BackgroundImageFix"/><feBlend in="SourceGraphic" in2="BackgroundImageFix" result="shape"/><feGaussianBlur stdDeviation=".05" result="effect1_foregroundBlur_4002_3507"/></filter><filter id="aR" x="8.568" y="4.691" width="4.234" height="5.344" filterUnits="userSpaceOnUse" color-interpolation-filters="sRGB"><feFlood flood-opacity="0" result="BackgroundImageFix"/><feBlend in="SourceGraphic" in2="BackgroundImageFix" result="shape"/><feColorMatrix in="SourceAlpha" values="0 0 0 0 0 0 0 0 0 0 0 0 0 0 0 0 0 0 127 0" result="hardAlpha"/><feOffset dx=".5" dy=".5"/><feGaussianBlur stdDeviation=".5"/><feComposite in2="hardAlpha" operator="arithmetic" k2="-1" k3="1"/><feColorMatrix values="0 0 0 0 0.345098 0 0 0 0 0.286275 0 0 0 0 0.27451 0 0 0 1 0"/><feBlend in2="shape" result="effect1_innerShadow_4002_3507"/><feGaussianBlur stdDeviation=".2" result="effect2_foregroundBlur_4002_3507"/></filter><filter id="aU" x="11.399" y="3.015" width="9.95" height="4.934" filterUnits="userSpaceOnUse" color-interpolation-filters="sRGB"><feFlood flood-opacity="0" result="BackgroundImageFix"/><feBlend in="SourceGraphic" in2="BackgroundImageFix" result="shape"/><feColorMatrix in="SourceAlpha" values="0 0 0 0 0 0 0 0 0 0 0 0 0 0 0 0 0 0 127 0" result="hardAlpha"/><feOffset dx="-.3" dy=".2"/><feGaussianBlur stdDeviation=".4"/><feComposite in2="hardAlpha" operator="arithmetic" k2="-1" k3="1"/><feColorMatrix values="0 0 0 0 0.415686 0 0 0 0 0.317647 0 0 0 0 0.305882 0 0 0 1 0"/><feBlend in2="shape" result="effect1_innerShadow_4002_3507"/><feGaussianBlur stdDeviation=".125" result="effect2_foregroundBlur_4002_3507"/></filter><filter id="aX" x="11.367" y="4.737" width="1.517" height="2.278" filterUnits="userSpaceOnUse" color-interpolation-filters="sRGB"><feFlood flood-opacity="0" result="BackgroundImageFix"/><feBlend in="SourceGraphic" in2="BackgroundImageFix" result="shape"/><feGaussianBlur stdDeviation=".1" result="effect1_foregroundBlur_4002_3507"/></filter><filter id="aZ" x="14.501" y="4.332" width="6.909" height="3.466" filterUnits="userSpaceOnUse" color-interpolation-filters="sRGB"><feFlood flood-opacity="0" result="BackgroundImageFix"/><feBlend in="SourceGraphic" in2="BackgroundImageFix" result="shape"/><feGaussianBlur stdDeviation=".375" result="effect1_foregroundBlur_4002_3507"/></filter><filter id="ba" x="11.525" y="9.066" width="3.872" height="3.001" filterUnits="userSpaceOnUse" color-interpolation-filters="sRGB"><feFlood flood-opacity="0" result="BackgroundImageFix"/><feBlend in="SourceGraphic" in2="BackgroundImageFix" result="shape"/><feGaussianBlur stdDeviation=".3" result="effect1_foregroundBlur_4002_3507"/></filter><filter id="bc" x="16.395" y="8.087" width="3.682" height="2.915" filterUnits="userSpaceOnUse" color-interpolation-filters="sRGB"><feFlood flood-opacity="0" result="BackgroundImageFix"/><feBlend in="SourceGraphic" in2="BackgroundImageFix" result="shape"/><feGaussianBlur stdDeviation=".3" result="effect1_foregroundBlur_4002_3507"/></filter><filter id="bg" x="16.902" y="10.12" width="2.582" height="1.236" filterUnits="userSpaceOnUse" color-interpolation-filters="sRGB"><feFlood flood-opacity="0" result="BackgroundImageFix"/><feBlend in="SourceGraphic" in2="BackgroundImageFix" result="shape"/><feGaussianBlur stdDeviation=".075" result="effect1_foregroundBlur_4002_3507"/></filter><filter id="bj" x="12.435" y="10.873" width="2.582" height="1.236" filterUnits="userSpaceOnUse" color-interpolation-filters="sRGB"><feFlood flood-opacity="0" result="BackgroundImageFix"/><feBlend in="SourceGraphic" in2="BackgroundImageFix" result="shape"/><feGaussianBlur stdDeviation=".075" result="effect1_foregroundBlur_4002_3507"/></filter><filter id="bm" x="16.932" y="7.976" width="2.633" height=".931" filterUnits="userSpaceOnUse" color-interpolation-filters="sRGB"><feFlood flood-opacity="0" result="BackgroundImageFix"/><feBlend in="SourceGraphic" in2="BackgroundImageFix" result="shape"/><feColorMatrix in="SourceAlpha" values="0 0 0 0 0 0 0 0 0 0 0 0 0 0 0 0 0 0 127 0" result="hardAlpha"/><feOffset dx=".2" dy="-.2"/><feGaussianBlur stdDeviation=".15"/><feComposite in2="hardAlpha" operator="arithmetic" k2="-1" k3="1"/><feColorMatrix values="0 0 0 0 0.211765 0 0 0 0 0.121569 0 0 0 0 0.12549 0 0 0 1 0"/><feBlend in2="shape" result="effect1_innerShadow_4002_3507"/></filter><filter id="bn" x="16.974" y="8.106" width="2.408" height=".779" filterUnits="userSpaceOnUse" color-interpolation-filters="sRGB"><feFlood flood-opacity="0" result="BackgroundImageFix"/><feBlend in="SourceGraphic" in2="BackgroundImageFix" result="shape"/><feGaussianBlur stdDeviation=".1" result="effect1_foregroundBlur_4002_3507"/></filter><filter id="bo" x="11.623" y="8.745" width="2.502" height="1.456" filterUnits="userSpaceOnUse" color-interpolation-filters="sRGB"><feFlood flood-opacity="0" result="BackgroundImageFix"/><feBlend in="SourceGraphic" in2="BackgroundImageFix" result="shape"/><feColorMatrix in="SourceAlpha" values="0 0 0 0 0 0 0 0 0 0 0 0 0 0 0 0 0 0 127 0" result="hardAlpha"/><feOffset dx=".2" dy="-.2"/><feGaussianBlur stdDeviation=".15"/><feComposite in2="hardAlpha" operator="arithmetic" k2="-1" k3="1"/><feColorMatrix values="0 0 0 0 0.211765 0 0 0 0 0.121569 0 0 0 0 0.12549 0 0 0 1 0"/><feBlend in2="shape" result="effect1_innerShadow_4002_3507"/></filter><filter id="bp" x="11.633" y="8.888" width="2.268" height="1.298" filterUnits="userSpaceOnUse" color-interpolation-filters="sRGB"><feFlood flood-opacity="0" result="BackgroundImageFix"/><feBlend in="SourceGraphic" in2="BackgroundImageFix" result="shape"/><feGaussianBlur stdDeviation=".1" result="effect1_foregroundBlur_4002_3507"/></filter><linearGradient id="b" x1="19.522" y1="3.069" x2="15.284" y2="15.574" gradientUnits="userSpaceOnUse"><stop stop-color="#6D524E"/><stop offset="1" stop-color="#2C1C24"/></linearGradient><linearGradient id="s" x1="26.793" y1="25.099" x2="24.491" y2="29.938" gradientUnits="userSpaceOnUse"><stop stop-color="#AB84EE"/><stop offset="1" stop-color="#9C69F1"/></linearGradient><linearGradient id="w" x1="15.261" y1="19.255" x2="6.793" y2="29.937" gradientUnits="userSpaceOnUse"><stop stop-color="#9165D0"/><stop offset="1" stop-color="#9565E9"/></linearGradient><linearGradient id="F" x1="13.48" y1="28.942" x2="7.928" y2="28.918" gradientUnits="userSpaceOnUse"><stop stop-color="#A673FF"/><stop offset="1" stop-color="#A673FF" stop-opacity="0"/></linearGradient><linearGradient id="H" x1="13.155" y1="24.331" x2="13.104" y2="21.381" gradientUnits="userSpaceOnUse"><stop stop-color="#A980F3"/><stop offset="1" stop-color="#A980F3" stop-opacity="0"/></linearGradient><linearGradient id="J" x1="21.355" y1="27.662" x2="14.293" y2="27.224" gradientUnits="userSpaceOnUse"><stop stop-color="#349373"/><stop offset="1" stop-color="#37BA71"/></linearGradient><linearGradient id="M" x1="18.565" y1="30.091" x2="18.55" y2="29.278" gradientUnits="userSpaceOnUse"><stop offset=".204" stop-color="#9D5E7C"/><stop offset="1" stop-color="#9D5E7C" stop-opacity="0"/></linearGradient><linearGradient id="S" x1="21.668" y1="18.658" x2="20.168" y2="23.255" gradientUnits="userSpaceOnUse"><stop stop-color="#3DB155"/><stop offset=".635" stop-color="#38AA6F"/></linearGradient><linearGradient id="ac" x1="25.558" y1="25.274" x2="24.87" y2="25.424" gradientUnits="userSpaceOnUse"><stop offset=".049" stop-color="#CAA28B"/><stop offset="1" stop-color="#B6877D" stop-opacity="0"/></linearGradient><linearGradient id="ae" x1="10.636" y1="25.665" x2="13.293" y2="22.418" gradientUnits="userSpaceOnUse"><stop stop-color="#A176DF"/><stop offset="1" stop-color="#A176DF" stop-opacity="0"/></linearGradient><linearGradient id="ag" x1="22.142" y1="22.832" x2="23.757" y2="24.211" gradientUnits="userSpaceOnUse"><stop offset=".076" stop-color="#B69381"/><stop offset="1" stop-color="#B69381" stop-opacity="0"/></linearGradient><linearGradient id="ai" x1="24.746" y1="23.628" x2="25.784" y2="23.825" gradientUnits="userSpaceOnUse"><stop offset=".076" stop-color="#B69381"/><stop offset="1" stop-color="#B69381" stop-opacity="0"/></linearGradient><linearGradient id="ak" x1="20.855" y1="23.453" x2="22.461" y2="25.186" gradientUnits="userSpaceOnUse"><stop offset=".076" stop-color="#B69381"/><stop offset="1" stop-color="#B69381" stop-opacity="0"/></linearGradient><linearGradient id="am" x1="20.422" y1="24.622" x2="21.715" y2="26.405" gradientUnits="userSpaceOnUse"><stop offset=".076" stop-color="#B69381"/><stop offset="1" stop-color="#B69381" stop-opacity="0"/></linearGradient><linearGradient id="ao" x1="20.386" y1="26.08" x2="21.186" y2="27.486" gradientUnits="userSpaceOnUse"><stop offset=".076" stop-color="#B69381"/><stop offset="1" stop-color="#B69381" stop-opacity="0"/></linearGradient><linearGradient id="aq" x1="19.922" y1="29.04" x2="15.689" y2="28.983" gradientUnits="userSpaceOnUse"><stop stop-color="#AD827E"/><stop offset="1" stop-color="#AD827E" stop-opacity="0"/></linearGradient><linearGradient id="as" x1="9.45" y1="12.664" x2="11.393" y2="12.287" gradientUnits="userSpaceOnUse"><stop stop-color="#8D645F"/><stop offset="1" stop-color="#604138"/></linearGradient><linearGradient id="aM" x1="15.307" y1="12.879" x2="16.29" y2="12.689" gradientUnits="userSpaceOnUse"><stop stop-color="#875F54"/><stop offset="1" stop-color="#875F54" stop-opacity="0"/></linearGradient><linearGradient id="aN" x1="16.433" y1="13.429" x2="16.306" y2="12.773" gradientUnits="userSpaceOnUse"><stop stop-color="#995C76"/><stop offset="1" stop-color="#995C76" stop-opacity="0"/></linearGradient><linearGradient id="aQ" x1="15.623" y1="15.217" x2="15.961" y2="14.378" gradientUnits="userSpaceOnUse"><stop stop-color="#A87D7B"/><stop offset=".663" stop-color="#A87D7B" stop-opacity="0"/></linearGradient><linearGradient id="aY" x1="11.356" y1="4.651" x2="12.125" y2="5.876" gradientUnits="userSpaceOnUse"><stop stop-color="#361F1F"/><stop offset="1" stop-color="#452531"/></linearGradient><linearGradient id="bb" x1="14.352" y1="10.586" x2="11.665" y2="10.294" gradientUnits="userSpaceOnUse"><stop stop-color="#8D5D63"/><stop offset="1" stop-color="#8D5D63" stop-opacity="0"/></linearGradient><linearGradient id="bd" x1="19.092" y1="10.055" x2="15.618" y2="8.901" gradientUnits="userSpaceOnUse"><stop offset=".394" stop-color="#B48474"/><stop offset="1" stop-color="#B48474" stop-opacity="0"/></linearGradient><linearGradient id="be" x1="19.035" y1="10.791" x2="17.472" y2="11.616" gradientUnits="userSpaceOnUse"><stop offset=".558" stop-color="#3A2522"/><stop offset="1" stop-color="#38221E"/></linearGradient><linearGradient id="bf" x1="14.536" y1="11.55" x2="12.969" y2="12.371" gradientUnits="userSpaceOnUse"><stop offset=".558" stop-color="#3A2522"/><stop offset="1" stop-color="#38221E"/></linearGradient><linearGradient id="bh" x1="17.004" y1="10.89" x2="19.332" y2="11.052" gradientUnits="userSpaceOnUse"><stop stop-color="#533F3D"/><stop offset="1" stop-color="#533F3D" stop-opacity="0"/></linearGradient><linearGradient id="bk" x1="12.536" y1="11.642" x2="14.865" y2="11.804" gradientUnits="userSpaceOnUse"><stop stop-color="#533F3D"/><stop offset="1" stop-color="#533F3D" stop-opacity="0"/></linearGradient></defs></svg>