<svg width="32" height="32" fill="none" xmlns="http://www.w3.org/2000/svg"><g filter="url(#a)"><circle cx="14.039" cy="17.961" r="12.039" fill="url(#b)"/><circle cx="14.039" cy="17.961" r="12.039" fill="url(#c)"/></g><circle cx="14.039" cy="17.961" r="8.805" fill="url(#d)"/><circle cx="14.039" cy="17.961" r="8.805" fill="url(#e)"/><circle cx="14.039" cy="17.961" r="8.805" fill="url(#f)"/><circle cx="14.039" cy="17.961" r="5.758" fill="url(#g)"/><circle cx="14.039" cy="17.961" r="5.758" fill="url(#h)"/><circle cx="14.039" cy="17.961" r="2.859" fill="#B7ABC8"/><circle cx="14.039" cy="17.961" r="2.859" fill="url(#i)"/><circle cx="14.039" cy="17.961" r="2.859" fill="url(#j)"/><g filter="url(#k)"><path d="M14.282 28.93c6.057 0 10.968-4.911 10.968-10.97 0-6.057-4.91-10.968-10.968-10.968S3.313 11.903 3.313 17.961s4.911 10.968 10.969 10.968Z" stroke="url(#l)" stroke-width=".65"/></g><path d="M14.134 17.875c-.338-.339-.463-.723-.125-1.062l1.715-1.723a.867.867 0 1 1 1.226 1.226l-1.715 1.723c-.338.339-.762.174-1.1-.164Z" fill="#7C7088"/><path d="M14.134 17.875c-.338-.339-.463-.723-.125-1.062l1.715-1.723a.867.867 0 1 1 1.226 1.226l-1.715 1.723c-.338.339-.762.174-1.1-.164Z" fill="url(#m)"/><path d="M14.134 17.875c-.338-.339-.463-.723-.125-1.062l1.715-1.723a.867.867 0 1 1 1.226 1.226l-1.715 1.723c-.338.339-.762.174-1.1-.164Z" fill="url(#n)"/><path d="m22.664 2.772 1.227 3.244-4.484 3.14c-1.335-3.531.298-5.617 1.814-6.826.497-.396 1.218-.153 1.443.442Z" fill="#2983DF"/><path d="m22.664 2.772 1.227 3.244-4.484 3.14c-1.335-3.531.298-5.617 1.814-6.826.497-.396 1.218-.153 1.443.442Z" fill="url(#o)"/><path d="m22.664 2.772 1.227 3.244-4.484 3.14c-1.335-3.531.298-5.617 1.814-6.826.497-.396 1.218-.153 1.443.442Z" fill="url(#p)"/><path d="m29.197 9.311-3.259-1.187-3.085 4.523c3.548 1.292 5.613-.367 6.803-1.897.39-.502.138-1.221-.46-1.439Z" fill="#2980EB"/><path d="m29.197 9.311-3.259-1.187-3.085 4.523c3.548 1.292 5.613-.367 6.803-1.897.39-.502.138-1.221-.46-1.439Z" fill="url(#q)"/><path d="m29.197 9.311-3.259-1.187-3.085 4.523c3.548 1.292 5.613-.367 6.803-1.897.39-.502.138-1.221-.46-1.439Z" fill="url(#r)"/><g filter="url(#s)"><rect x="21.323" y="2.624" width=".946" height="5.258" rx=".473" transform="rotate(-20.523 21.323 2.624)" fill="url(#t)"/></g><g filter="url(#u)"><rect x="29.642" y="9.72" width=".946" height="5.258" rx=".473" transform="rotate(110.612 29.642 9.72)" fill="url(#v)"/></g><g filter="url(#w)"><path d="m16.68 10.71 6.626-4.91c.88-.657 2.194-.486 2.857.197.737.791.824 1.956.192 2.816l-4.89 6.645a3.407 3.407 0 1 1-4.785-4.748Z" fill="#52BCF0"/></g><path d="m16.68 10.71 6.626-4.91c.88-.657 2.194-.486 2.857.197.737.791.824 1.956.192 2.816l-4.89 6.645a3.407 3.407 0 1 1-4.785-4.748Z" fill="url(#x)"/><path d="m16.68 10.71 6.626-4.91c.88-.657 2.194-.486 2.857.197.737.791.824 1.956.192 2.816l-4.89 6.645a3.407 3.407 0 1 1-4.785-4.748Z" fill="url(#y)"/><path d="m16.68 10.71 6.626-4.91c.88-.657 2.194-.486 2.857.197.737.791.824 1.956.192 2.816l-4.89 6.645a3.407 3.407 0 1 1-4.785-4.748Z" fill="url(#z)"/><g filter="url(#A)"><rect x="26.024" y="4.742" width="1.768" height="9.038" rx=".884" transform="rotate(45 26.024 4.742)" fill="#2984E4"/></g><rect x="26.024" y="4.742" width="1.768" height="9.038" rx=".884" transform="rotate(45 26.024 4.742)" fill="url(#B)"/><defs><radialGradient id="c" cx="0" cy="0" r="1" gradientUnits="userSpaceOnUse" gradientTransform="matrix(-3.04648 4.37923 -6.36862 -4.43043 19.972 10.33)"><stop offset=".219" stop-color="#B82974"/><stop offset="1" stop-color="#B82974" stop-opacity="0"/></radialGradient><radialGradient id="e" cx="0" cy="0" r="1" gradientUnits="userSpaceOnUse" gradientTransform="translate(11.214 17.96) scale(11.63)"><stop offset=".861" stop-color="#CBC4DF" stop-opacity="0"/><stop offset="1" stop-color="#CBC4DF"/></radialGradient><radialGradient id="f" cx="0" cy="0" r="1" gradientUnits="userSpaceOnUse" gradientTransform="matrix(-2.79254 5.20435 -2.84857 -1.52848 18.195 9.759)"><stop stop-color="#9DA8B4"/><stop offset="1" stop-color="#9DA8B4" stop-opacity="0"/></radialGradient><radialGradient id="h" cx="0" cy="0" r="1" gradientUnits="userSpaceOnUse" gradientTransform="rotate(131.253 5.263 10.981) scale(4.47426)"><stop stop-color="#962359"/><stop offset=".947" stop-color="#962359" stop-opacity="0"/></radialGradient><radialGradient id="i" cx="0" cy="0" r="1" gradientUnits="userSpaceOnUse" gradientTransform="rotate(67.204 -6.039 18.655) scale(4.75032)"><stop offset=".613" stop-color="#C9BED9" stop-opacity="0"/><stop offset="1" stop-color="#C9BED9"/></radialGradient><radialGradient id="j" cx="0" cy="0" r="1" gradientUnits="userSpaceOnUse" gradientTransform="rotate(103.843 1.754 13.56) scale(3.71373)"><stop stop-color="#857D97"/><stop offset="1" stop-color="#857D97" stop-opacity="0"/></radialGradient><radialGradient id="o" cx="0" cy="0" r="1" gradientUnits="userSpaceOnUse" gradientTransform="rotate(-157.278 11.408 .91) scale(2.71034 4.92096)"><stop offset=".75" stop-color="#6897C2" stop-opacity="0"/><stop offset="1" stop-color="#6897C2"/></radialGradient><radialGradient id="r" cx="0" cy="0" r="1" gradientUnits="userSpaceOnUse" gradientTransform="matrix(.75 4.07813 -5.25336 .96613 25.626 9.234)"><stop offset=".814" stop-color="#5066D2" stop-opacity="0"/><stop offset=".926" stop-color="#5066D2"/></radialGradient><radialGradient id="t" cx="0" cy="0" r="1" gradientUnits="userSpaceOnUse" gradientTransform="rotate(86.925 9.358 12.989) scale(4.99592 1.05482)"><stop stop-color="#61CEFF"/><stop offset="1" stop-color="#3CB8FF" stop-opacity="0"/></radialGradient><radialGradient id="v" cx="0" cy="0" r="1" gradientUnits="userSpaceOnUse" gradientTransform="rotate(86.925 9.774 20.926) scale(4.99592 1.05482)"><stop stop-color="#61CEFF"/><stop offset="1" stop-color="#3CB8FF" stop-opacity="0"/></radialGradient><radialGradient id="x" cx="0" cy="0" r="1" gradientUnits="userSpaceOnUse" gradientTransform="matrix(-2.93751 2.18748 -2.25408 -3.02695 27.157 5.875)"><stop offset=".423" stop-color="#6BFFFF"/><stop offset="1" stop-color="#6BFFFF" stop-opacity="0"/></radialGradient><radialGradient id="y" cx="0" cy="0" r="1" gradientUnits="userSpaceOnUse" gradientTransform="matrix(-8.02067 7.30234 -7.39753 -8.12522 24.007 8.546)"><stop offset=".838" stop-color="#5E9BDB" stop-opacity="0"/><stop offset="1" stop-color="#5E9BDB"/></radialGradient><radialGradient id="z" cx="0" cy="0" r="1" gradientUnits="userSpaceOnUse" gradientTransform="rotate(134.318 8.106 9.959) scale(1.97052 1.03686)"><stop offset=".361" stop-color="#49A0E1"/><stop offset="1" stop-color="#49A0E1" stop-opacity="0"/></radialGradient><radialGradient id="B" cx="0" cy="0" r="1" gradientUnits="userSpaceOnUse" gradientTransform="matrix(.0221 -2.93892 1.11949 .00842 26.831 5.626)"><stop stop-color="#60CAFF"/><stop offset="1" stop-color="#60CAFF" stop-opacity="0"/></radialGradient><linearGradient id="b" x1="19.534" y1="7.121" x2="9.433" y2="27.666" gradientUnits="userSpaceOnUse"><stop stop-color="#E6378B"/><stop offset="1" stop-color="#EF3A5C"/></linearGradient><linearGradient id="d" x1="20.353" y1="22.389" x2="7.279" y2="8.806" gradientUnits="userSpaceOnUse"><stop stop-color="#CEC3DF"/><stop offset="1" stop-color="#C5BCD3"/></linearGradient><linearGradient id="g" x1="17.878" y1="14.074" x2="11.087" y2="23.214" gradientUnits="userSpaceOnUse"><stop stop-color="#D2347A"/><stop offset="1" stop-color="#ED3963"/></linearGradient><linearGradient id="l" x1="23.42" y1="10.783" x2="16.829" y2="17.524" gradientUnits="userSpaceOnUse"><stop stop-color="#FF6AA2"/><stop offset="1" stop-color="#FF6AA2" stop-opacity="0"/></linearGradient><linearGradient id="m" x1="16.148" y1="17.281" x2="15.507" y2="16.622" gradientUnits="userSpaceOnUse"><stop stop-color="#7E5F8A"/><stop offset="1" stop-color="#7E5F8A" stop-opacity="0"/></linearGradient><linearGradient id="n" x1="14.901" y1="15.823" x2="15.139" y2="16.047" gradientUnits="userSpaceOnUse"><stop stop-color="#746D7C"/><stop offset="1" stop-color="#746D7C" stop-opacity="0"/></linearGradient><linearGradient id="p" x1="23.47" y1="4.313" x2="21.876" y2="4.875" gradientUnits="userSpaceOnUse"><stop stop-color="#58C3FF"/><stop offset="1" stop-color="#58C3FF" stop-opacity="0"/></linearGradient><linearGradient id="q" x1="28.126" y1="8.531" x2="27.532" y2="9.812" gradientUnits="userSpaceOnUse"><stop stop-color="#49B6FF"/><stop offset="1" stop-color="#49B6FF" stop-opacity="0"/></linearGradient><filter id="a" x="2" y="5.422" width="24.578" height="25.078" filterUnits="userSpaceOnUse" color-interpolation-filters="sRGB"><feFlood flood-opacity="0" result="BackgroundImageFix"/><feBlend in="SourceGraphic" in2="BackgroundImageFix" result="shape"/><feColorMatrix in="SourceAlpha" values="0 0 0 0 0 0 0 0 0 0 0 0 0 0 0 0 0 0 127 0" result="hardAlpha"/><feOffset dx=".5" dy="-.5"/><feGaussianBlur stdDeviation=".5"/><feComposite in2="hardAlpha" operator="arithmetic" k2="-1" k3="1"/><feColorMatrix values="0 0 0 0 0.737255 0 0 0 0 0.160784 0 0 0 0 0.329412 0 0 0 1 0"/><feBlend in2="shape" result="effect1_innerShadow_18_3225"/><feColorMatrix in="SourceAlpha" values="0 0 0 0 0 0 0 0 0 0 0 0 0 0 0 0 0 0 127 0" result="hardAlpha"/><feOffset dx=".5" dy=".5"/><feGaussianBlur stdDeviation=".5"/><feComposite in2="hardAlpha" operator="arithmetic" k2="-1" k3="1"/><feColorMatrix values="0 0 0 0 0.74902 0 0 0 0 0.341176 0 0 0 0 0.490196 0 0 0 1 0"/><feBlend in2="effect1_innerShadow_18_3225" result="effect2_innerShadow_18_3225"/></filter><filter id="k" x="2.338" y="6.017" width="23.887" height="23.887" filterUnits="userSpaceOnUse" color-interpolation-filters="sRGB"><feFlood flood-opacity="0" result="BackgroundImageFix"/><feBlend in="SourceGraphic" in2="BackgroundImageFix" result="shape"/><feGaussianBlur stdDeviation=".325" result="effect1_foregroundBlur_18_3225"/></filter><filter id="s" x="20.958" y="1.928" width="3.458" height="5.984" filterUnits="userSpaceOnUse" color-interpolation-filters="sRGB"><feFlood flood-opacity="0" result="BackgroundImageFix"/><feBlend in="SourceGraphic" in2="BackgroundImageFix" result="shape"/><feGaussianBlur stdDeviation=".25" result="effect1_foregroundBlur_18_3225"/></filter><filter id="u" x="24.024" y="7.506" width="5.982" height="3.464" filterUnits="userSpaceOnUse" color-interpolation-filters="sRGB"><feFlood flood-opacity="0" result="BackgroundImageFix"/><feBlend in="SourceGraphic" in2="BackgroundImageFix" result="shape"/><feGaussianBlur stdDeviation=".25" result="effect1_foregroundBlur_18_3225"/></filter><filter id="w" x="15.313" y="5.387" width="11.715" height="11.71" filterUnits="userSpaceOnUse" color-interpolation-filters="sRGB"><feFlood flood-opacity="0" result="BackgroundImageFix"/><feBlend in="SourceGraphic" in2="BackgroundImageFix" result="shape"/><feColorMatrix in="SourceAlpha" values="0 0 0 0 0 0 0 0 0 0 0 0 0 0 0 0 0 0 127 0" result="hardAlpha"/><feOffset dx=".25" dy=".25"/><feGaussianBlur stdDeviation=".5"/><feComposite in2="hardAlpha" operator="arithmetic" k2="-1" k3="1"/><feColorMatrix values="0 0 0 0 0.45098 0 0 0 0 0.65098 0 0 0 0 0.737255 0 0 0 1 0"/><feBlend in2="shape" result="effect1_innerShadow_18_3225"/></filter><filter id="A" x="19.85" y="4.958" width="7.208" height="7.208" filterUnits="userSpaceOnUse" color-interpolation-filters="sRGB"><feFlood flood-opacity="0" result="BackgroundImageFix"/><feBlend in="SourceGraphic" in2="BackgroundImageFix" result="shape"/><feColorMatrix in="SourceAlpha" values="0 0 0 0 0 0 0 0 0 0 0 0 0 0 0 0 0 0 127 0" result="hardAlpha"/><feOffset dx=".15" dy=".15"/><feGaussianBlur stdDeviation=".15"/><feComposite in2="hardAlpha" operator="arithmetic" k2="-1" k3="1"/><feColorMatrix values="0 0 0 0 0.160784 0 0 0 0 0.521569 0 0 0 0 0.764706 0 0 0 1 0"/><feBlend in2="shape" result="effect1_innerShadow_18_3225"/><feColorMatrix in="SourceAlpha" values="0 0 0 0 0 0 0 0 0 0 0 0 0 0 0 0 0 0 127 0" result="hardAlpha"/><feOffset dx="-.15" dy="-.15"/><feGaussianBlur stdDeviation=".225"/><feComposite in2="hardAlpha" operator="arithmetic" k2="-1" k3="1"/><feColorMatrix values="0 0 0 0 0.235294 0 0 0 0 0.435294 0 0 0 0 0.831373 0 0 0 1 0"/><feBlend in2="effect1_innerShadow_18_3225" result="effect2_innerShadow_18_3225"/></filter></defs></svg>