<svg width="32" height="32" fill="none" xmlns="http://www.w3.org/2000/svg"><g clip-path="url(#a)"><g filter="url(#b)"><path d="M22.32 18.012h-4.25a2.5 2.5 0 0 1 0-5h4.25c.93 0 1.68-.75 1.68-1.68v-2.82a2.5 2.5 0 0 1 5 0v2.82c0 3.68-3 6.68-6.68 6.68Z" fill="url(#c)"/><path d="M22.32 18.012h-4.25a2.5 2.5 0 0 1 0-5h4.25c.93 0 1.68-.75 1.68-1.68v-2.82a2.5 2.5 0 0 1 5 0v2.82c0 3.68-3 6.68-6.68 6.68Z" fill="url(#d)"/><path d="M22.32 18.012h-4.25a2.5 2.5 0 0 1 0-5h4.25c.93 0 1.68-.75 1.68-1.68v-2.82a2.5 2.5 0 0 1 5 0v2.82c0 3.68-3 6.68-6.68 6.68Z" fill="url(#e)"/><path d="M22.32 18.012h-4.25a2.5 2.5 0 0 1 0-5h4.25c.93 0 1.68-.75 1.68-1.68v-2.82a2.5 2.5 0 0 1 5 0v2.82c0 3.68-3 6.68-6.68 6.68Z" fill="url(#f)"/></g><g filter="url(#g)"><path d="M26.656 8.143a.906.906 0 0 1 1.813 0v3.306a1.813 1.813 0 0 1-1.813 1.813v-5.12Z" fill="url(#h)"/></g><g filter="url(#i)" stroke-width=".2"><path d="M21.125 14.92h-.111l.012.11.092.869.01.09h1.362a4.616 4.616 0 0 0 4.61-4.61V9.614a.582.582 0 0 0-1.164 0v1.763c0 1.901-1.638 3.541-3.539 3.541h-1.272Z" stroke="url(#j)"/><path d="M21.125 14.92h-.111l.012.11.092.869.01.09h1.362a4.616 4.616 0 0 0 4.61-4.61V9.614a.582.582 0 0 0-1.164 0v1.763c0 1.901-1.638 3.541-3.539 3.541h-1.272Z" stroke="url(#k)"/><path d="M21.125 14.92h-.111l.012.11.092.869.01.09h1.362a4.616 4.616 0 0 0 4.61-4.61V9.614a.582.582 0 0 0-1.164 0v1.763c0 1.901-1.638 3.541-3.539 3.541h-1.272Z" stroke="url(#l)"/><path d="M21.125 14.92h-.111l.012.11.092.869.01.09h1.362a4.616 4.616 0 0 0 4.61-4.61V9.614a.582.582 0 0 0-1.164 0v1.763c0 1.901-1.638 3.541-3.539 3.541h-1.272Z" stroke="url(#m)"/><path d="M21.125 14.92h-.111l.012.11.092.869.01.09h1.362a4.616 4.616 0 0 0 4.61-4.61V9.614a.582.582 0 0 0-1.164 0v1.763c0 1.901-1.638 3.541-3.539 3.541h-1.272Z" stroke="url(#n)"/></g><path d="M26.5 9.002a.5.5 0 0 0-.5.5v1.83c0 2.03-1.65 3.68-3.68 3.68H21v1h1.32c2.58 0 4.68-2.1 4.68-4.68v-1.83a.5.5 0 0 0-.5-.5Z" fill="url(#o)"/><path d="M26.5 9.002a.5.5 0 0 0-.5.5v1.83c0 2.03-1.65 3.68-3.68 3.68H21v1h1.32c2.58 0 4.68-2.1 4.68-4.68v-1.83a.5.5 0 0 0-.5-.5Z" fill="url(#p)"/><path d="M26.5 9.002a.5.5 0 0 0-.5.5v1.83c0 2.03-1.65 3.68-3.68 3.68H21v1h1.32c2.58 0 4.68-2.1 4.68-4.68v-1.83a.5.5 0 0 0-.5-.5Z" fill="url(#q)"/><g filter="url(#r)"><path d="M21.688 15.543h.562a4.25 4.25 0 0 0 4.25-4.25V9.887" stroke="url(#s)" stroke-width=".25"/></g><g filter="url(#t)"><path d="M16.01 2c-2.76 0-5 2.24-5 5v13H9.69c-.93 0-1.68-.75-1.68-1.68v-6.77c0-1.4-1.15-2.58-2.55-2.55a2.504 2.504 0 0 0-2.45 2.5v6.82A6.68 6.68 0 0 0 9.69 25h1.32v4.06c0 .52.42.94.94.94h8.12c.52 0 .94-.42.94-.94V7c0-2.76-2.24-5-5-5Z" fill="url(#u)"/><path d="M16.01 2c-2.76 0-5 2.24-5 5v13H9.69c-.93 0-1.68-.75-1.68-1.68v-6.77c0-1.4-1.15-2.58-2.55-2.55a2.504 2.504 0 0 0-2.45 2.5v6.82A6.68 6.68 0 0 0 9.69 25h1.32v4.06c0 .52.42.94.94.94h8.12c.52 0 .94-.42.94-.94V7c0-2.76-2.24-5-5-5Z" fill="url(#v)"/><path d="M16.01 2c-2.76 0-5 2.24-5 5v13H9.69c-.93 0-1.68-.75-1.68-1.68v-6.77c0-1.4-1.15-2.58-2.55-2.55a2.504 2.504 0 0 0-2.45 2.5v6.82A6.68 6.68 0 0 0 9.69 25h1.32v4.06c0 .52.42.94.94.94h8.12c.52 0 .94-.42.94-.94V7c0-2.76-2.24-5-5-5Z" fill="url(#w)"/><path d="M16.01 2c-2.76 0-5 2.24-5 5v13H9.69c-.93 0-1.68-.75-1.68-1.68v-6.77c0-1.4-1.15-2.58-2.55-2.55a2.504 2.504 0 0 0-2.45 2.5v6.82A6.68 6.68 0 0 0 9.69 25h1.32v4.06c0 .52.42.94.94.94h8.12c.52 0 .94-.42.94-.94V7c0-2.76-2.24-5-5-5Z" fill="url(#x)"/><path d="M16.01 2c-2.76 0-5 2.24-5 5v13H9.69c-.93 0-1.68-.75-1.68-1.68v-6.77c0-1.4-1.15-2.58-2.55-2.55a2.504 2.504 0 0 0-2.45 2.5v6.82A6.68 6.68 0 0 0 9.69 25h1.32v4.06c0 .52.42.94.94.94h8.12c.52 0 .94-.42.94-.94V7c0-2.76-2.24-5-5-5Z" fill="url(#y)"/><path d="M16.01 2c-2.76 0-5 2.24-5 5v13H9.69c-.93 0-1.68-.75-1.68-1.68v-6.77c0-1.4-1.15-2.58-2.55-2.55a2.504 2.504 0 0 0-2.45 2.5v6.82A6.68 6.68 0 0 0 9.69 25h1.32v4.06c0 .52.42.94.94.94h8.12c.52 0 .94-.42.94-.94V7c0-2.76-2.24-5-5-5Z" fill="url(#z)"/></g><g filter="url(#A)"><path fill="#5DB65A" d="M12.594 6.012H14.5V29.34h-1.906z"/></g><g filter="url(#B)"><rect x="17.69" y="6.458" width="1.614" height="22.882" rx=".807" fill="#7BD377"/></g><g filter="url(#C)"><ellipse cx="14.266" cy="6.002" rx="1.659" ry="2.148" transform="rotate(36.373 14.266 6.002)" fill="#5DB65A"/></g><g filter="url(#D)"><circle cx="17.616" cy="6.34" r="2.662" fill="url(#E)"/></g><path d="M18.5 6.862a.5.5 0 0 0-.5.5v21.93a.5.5 0 1 0 1 0V7.363a.5.5 0 0 0-.5-.5Z" fill="url(#F)"/><g filter="url(#G)"><path d="M18.39 7.515V29.55" stroke="url(#H)" stroke-width=".15"/></g><g filter="url(#I)" stroke-width=".2"><path d="M12.9 23.112v6.18a.6.6 0 1 0 1.2 0V7.363a.6.6 0 1 0-1.2 0v14.55H9.68a3.583 3.583 0 0 1-3.58-3.58v-6.77c0-.336-.265-.65-.6-.65h-.014a.606.606 0 0 0-.586.6v6.82a4.786 4.786 0 0 0 4.78 4.78h3.22Z" stroke="url(#J)"/><path d="M12.9 23.112v6.18a.6.6 0 1 0 1.2 0V7.363a.6.6 0 1 0-1.2 0v14.55H9.68a3.583 3.583 0 0 1-3.58-3.58v-6.77c0-.336-.265-.65-.6-.65h-.014a.606.606 0 0 0-.586.6v6.82a4.786 4.786 0 0 0 4.78 4.78h3.22Z" stroke="url(#K)"/><path d="M12.9 23.112v6.18a.6.6 0 1 0 1.2 0V7.363a.6.6 0 1 0-1.2 0v14.55H9.68a3.583 3.583 0 0 1-3.58-3.58v-6.77c0-.336-.265-.65-.6-.65h-.014a.606.606 0 0 0-.586.6v6.82a4.786 4.786 0 0 0 4.78 4.78h3.22Z" stroke="url(#L)"/><path d="M12.9 23.112v6.18a.6.6 0 1 0 1.2 0V7.363a.6.6 0 1 0-1.2 0v14.55H9.68a3.583 3.583 0 0 1-3.58-3.58v-6.77c0-.336-.265-.65-.6-.65h-.014a.606.606 0 0 0-.586.6v6.82a4.786 4.786 0 0 0 4.78 4.78h3.22Z" stroke="url(#M)"/></g><g filter="url(#N)"><path d="M13.5 6.862a.5.5 0 0 0-.5.5v14.65H9.68c-2.03 0-3.68-1.65-3.68-3.68v-6.77c0-.29-.23-.55-.5-.55h-.01c-.27.01-.49.23-.49.5v6.82c0 2.58 2.1 4.68 4.68 4.68H13v6.28a.5.5 0 1 0 1 0V7.363a.5.5 0 0 0-.5-.5Z" fill="url(#O)"/><path d="M13.5 6.862a.5.5 0 0 0-.5.5v14.65H9.68c-2.03 0-3.68-1.65-3.68-3.68v-6.77c0-.29-.23-.55-.5-.55h-.01c-.27.01-.49.23-.49.5v6.82c0 2.58 2.1 4.68 4.68 4.68H13v6.28a.5.5 0 1 0 1 0V7.363a.5.5 0 0 0-.5-.5Z" fill="url(#P)"/><path d="M13.5 6.862a.5.5 0 0 0-.5.5v14.65H9.68c-2.03 0-3.68-1.65-3.68-3.68v-6.77c0-.29-.23-.55-.5-.55h-.01c-.27.01-.49.23-.49.5v6.82c0 2.58 2.1 4.68 4.68 4.68H13v6.28a.5.5 0 1 0 1 0V7.363a.5.5 0 0 0-.5-.5Z" fill="url(#Q)"/><path d="M13.5 6.862a.5.5 0 0 0-.5.5v14.65H9.68c-2.03 0-3.68-1.65-3.68-3.68v-6.77c0-.29-.23-.55-.5-.55h-.01c-.27.01-.49.23-.49.5v6.82c0 2.58 2.1 4.68 4.68 4.68H13v6.28a.5.5 0 1 0 1 0V7.363a.5.5 0 0 0-.5-.5Z" fill="url(#R)"/><path d="M13.5 6.862a.5.5 0 0 0-.5.5v14.65H9.68c-2.03 0-3.68-1.65-3.68-3.68v-6.77c0-.29-.23-.55-.5-.55h-.01c-.27.01-.49.23-.49.5v6.82c0 2.58 2.1 4.68 4.68 4.68H13v6.28a.5.5 0 1 0 1 0V7.363a.5.5 0 0 0-.5-.5Z" fill="url(#S)"/></g><g filter="url(#T)"><path d="M13.39 8.074v21.477" stroke="url(#U)" stroke-width=".15"/></g><g filter="url(#V)"><ellipse cx="20.579" cy="24.61" rx=".342" ry=".531" fill="#3CAC34"/></g><g filter="url(#W)"><ellipse cx="11.553" cy="26.512" rx=".261" ry=".5" fill="#488F42"/></g><g filter="url(#X)"><ellipse cx="12.262" cy="4.299" rx=".329" ry=".586" transform="rotate(37.529 12.262 4.3)" fill="#58B651"/></g><g filter="url(#Y)"><ellipse cx="4.358" cy="10.373" rx=".329" ry=".586" transform="rotate(43.56 4.358 10.373)" fill="#58B651"/></g><g filter="url(#Z)"><ellipse cx="5.161" cy="22.894" rx=".274" ry=".586" transform="rotate(138.521 5.16 22.894)" fill="#4FA24F"/></g><g filter="url(#aa)"><ellipse cx="11.593" cy="9.512" rx=".266" ry=".51" fill="#58B651"/></g><path d="m27.15 15.452.71.71c.2.2.2.51 0 .71-.2.2-.51.2-.71 0l-.71-.71c-.2-.2-.14-.43.06-.63.19-.2.45-.28.65-.08Z" fill="url(#ab)"/><path d="m27.15 15.452.71.71c.2.2.2.51 0 .71-.2.2-.51.2-.71 0l-.71-.71c-.2-.2-.14-.43.06-.63.19-.2.45-.28.65-.08Z" fill="url(#ac)"/><path d="m27.15 15.452.71.71c.2.2.2.51 0 .71-.2.2-.51.2-.71 0l-.71-.71c-.2-.2-.14-.43.06-.63.19-.2.45-.28.65-.08Z" fill="url(#ad)"/><path d="m24.85 7.572-.71-.71c-.2-.2-.2-.51 0-.71.2-.2.51-.2.71 0l.71.71c.2.2.2.51 0 .71-.19.2-.51.2-.71 0Z" fill="url(#ae)"/><path d="m24.85 7.572-.71-.71c-.2-.2-.2-.51 0-.71.2-.2.51-.2.71 0l.71.71c.2.2.2.51 0 .71-.19.2-.51.2-.71 0Z" fill="url(#af)"/><g filter="url(#ag)"><path d="m3.85 10.572-.7-.71c-.2-.2-.2-.51 0-.71.2-.2.51-.2.71 0l.71.71c.2.2.114.41-.086.61s-.434.3-.634.1Z" fill="url(#ah)"/></g><path d="m7.801 14.488.349-.336c.2-.2.51-.2.71 0 .2.2.2.51 0 .71l-.71.71c-.2.2-.447.404-.556 0-.11-.404.007-.884.207-1.084Z" fill="url(#ai)"/><path d="m7.801 14.488.349-.336c.2-.2.51-.2.71 0 .2.2.2.51 0 .71l-.71.71c-.2.2-.447.404-.556 0-.11-.404.007-.884.207-1.084Z" fill="url(#aj)"/><g filter="url(#ak)"><path d="m5.355 23.367-.505.505c-.2.2-.51.2-.71 0-.2-.2-.2-.51 0-.71l.505-.505c.2-.2.393-.071.593.129.2.19.317.381.117.581Z" fill="url(#al)"/></g><path d="M11.418 27.012H10.5c-.28 0-.5-.22-.5-.5s.22-.5.5-.5h.918c.28 0 .293.22.293.5s-.013.5-.293.5Z" fill="url(#am)"/><path d="M20.727 24.012h.773c.28 0 .5.22.5.5s-.22.5-.5.5h-.773c-.28 0-.407-.22-.407-.5s.127-.5.407-.5Z" fill="url(#an)"/><path d="M20.727 24.012h.773c.28 0 .5.22.5.5s-.22.5-.5.5h-.773c-.28 0-.407-.22-.407-.5s.127-.5.407-.5Z" fill="url(#ao)"/><path d="M19.81 20.297 18 22.147v-1.44l1.1-1.12c.2-.2.51-.2.71 0 .2.2.2.52 0 .71Z" fill="url(#ap)"/><path d="M19.81 20.297 18 22.147v-1.44l1.1-1.12c.2-.2.51-.2.71 0 .2.2.2.52 0 .71Z" fill="url(#aq)"/><g filter="url(#ar)"><path d="m12.19 16.162 1.81 1.85v-1.44l-1.1-1.12c-.2-.2-.51-.2-.71 0-.2.2-.2.51 0 .71Z" fill="url(#as)"/><path d="m12.19 16.162 1.81 1.85v-1.44l-1.1-1.12c-.2-.2-.51-.2-.71 0-.2.2-.2.51 0 .71Z" fill="url(#at)"/></g><path d="M19.277 11.012H18.1a.1.1 0 0 0-.1.1v.8a.1.1 0 0 0 .1.1h1.177c.28 0 .5-.22.5-.5s-.22-.5-.5-.5Z" fill="url(#au)"/><path d="M19.277 11.012H18.1a.1.1 0 0 0-.1.1v.8a.1.1 0 0 0 .1.1h1.177c.28 0 .5-.22.5-.5s-.22-.5-.5-.5Z" fill="url(#av)"/><g filter="url(#aw)"><path d="M11.348 10.012H10.5c-.28 0-.5-.22-.5-.5s.22-.5.5-.5h.848c.28 0 .347.22.347.5s-.067.5-.347.5Z" fill="url(#ax)"/><path d="M11.348 10.012H10.5c-.28 0-.5-.22-.5-.5s.22-.5.5-.5h.848c.28 0 .347.22.347.5s-.067.5-.347.5Z" fill="url(#ay)"/></g><g filter="url(#az)"><path d="m12.445 3.734-.595-.572c-.2-.2-.51-.2-.71 0-.2.2-.2.51 0 .71l.67.67c.2.2.355.118.592-.198.223-.297.177-.476.043-.61Z" fill="url(#aA)"/><path d="m12.445 3.734-.595-.572c-.2-.2-.51-.2-.71 0-.2.2-.2.51 0 .71l.67.67c.2.2.355.118.592-.198.223-.297.177-.476.043-.61Z" fill="url(#aB)"/></g><g filter="url(#aC)"><path d="m26.846 15.624.904.896" stroke="url(#aD)" stroke-width=".25"/></g><g filter="url(#aE)"><path d="m25.438 7.238-.979-.964" stroke="url(#aF)" stroke-width=".25"/></g><g filter="url(#aG)"><ellipse cx="19.531" cy="4.457" rx=".376" ry=".528" transform="rotate(-45 19.531 4.457)" fill="#53C84C"/></g><path d="m19.44 3.862.71-.71c.2-.2.51-.2.71 0 .2.2.2.51 0 .71l-.71.71c-.2.2-.51.2-.71 0-.2-.19-.2-.51 0-.71Z" fill="url(#aH)"/><path d="m19.44 3.862.71-.71c.2-.2.51-.2.71 0 .2.2.2.51 0 .71l-.71.71c-.2.2-.51.2-.71 0-.2-.19-.2-.51 0-.71Z" fill="url(#aI)"/><path d="m19.44 3.862.71-.71c.2-.2.51-.2.71 0 .2.2.2.51 0 .71l-.71.71c-.2.2-.51.2-.71 0-.2-.19-.2-.51 0-.71Z" fill="url(#aJ)"/><g filter="url(#aK)"><path d="m12.594 15.7 1.265 1.28" stroke="#B4B987" stroke-width=".25"/></g><g filter="url(#aL)"><path d="M5.344 11.418v6.719a4.5 4.5 0 0 0 4.5 4.5h3.469" stroke="url(#aM)" stroke-width=".15"/></g><path d="M13.016 23.574c-.488 1.175-1.495 1.388-1.938 1.383-2.078 0-3.37-.898-3.484-1.383h5.422Z" fill="url(#aN)"/><g filter="url(#aO)"><path d="M6.844 10.855v7.375c0 1.64 1.329 2.97 2.968 2.97v0" stroke="url(#aP)" stroke-linecap="round"/></g><g filter="url(#aQ)"><path d="m11.613 3.36.688.675" stroke="#AAC28F" stroke-width=".2" stroke-linecap="round"/></g><g filter="url(#aR)"><path d="m3.586 9.332.783.78" stroke="#B5CB9A" stroke-width=".2" stroke-linecap="round"/></g></g><defs><linearGradient id="c" x1="20.75" y1="15.637" x2="27.313" y2="6.012" gradientUnits="userSpaceOnUse"><stop stop-color="#56BD50"/><stop offset="1" stop-color="#6DCE67"/></linearGradient><linearGradient id="h" x1="27.563" y1="6.355" x2="27.563" y2="14.855" gradientUnits="userSpaceOnUse"><stop stop-color="#91E38B"/><stop offset="1" stop-color="#91E38B" stop-opacity="0"/></linearGradient><linearGradient id="o" x1="23.375" y1="16.012" x2="27" y2="10.637" gradientUnits="userSpaceOnUse"><stop stop-color="#2B7839"/><stop offset="1" stop-color="#59AA5F"/></linearGradient><linearGradient id="p" x1="23.734" y1="16.105" x2="23.734" y2="15.809" gradientUnits="userSpaceOnUse"><stop stop-color="#30733E"/><stop offset="1" stop-color="#30733E" stop-opacity="0"/></linearGradient><linearGradient id="u" x1="12.01" y1="30" x2="12.01" y2="4.875" gradientUnits="userSpaceOnUse"><stop stop-color="#52AF55"/><stop offset="1" stop-color="#6CCC66"/></linearGradient><linearGradient id="v" x1="17.072" y1="30.5" x2="17.135" y2="28.75" gradientUnits="userSpaceOnUse"><stop stop-color="#518761"/><stop offset="1" stop-color="#518761" stop-opacity="0"/></linearGradient><linearGradient id="y" x1=".813" y1="20.824" x2="6" y2="20.824" gradientUnits="userSpaceOnUse"><stop stop-color="#469747"/><stop offset="1" stop-color="#469747" stop-opacity="0"/></linearGradient><linearGradient id="F" x1="17.625" y1="7.699" x2="17.625" y2="29.699" gradientUnits="userSpaceOnUse"><stop stop-color="#60B765"/><stop offset="1" stop-color="#37754B"/></linearGradient><linearGradient id="H" x1="18.391" y1="8.515" x2="20.195" y2="8.681" gradientUnits="userSpaceOnUse"><stop stop-color="#75C876"/><stop offset="1" stop-color="#668B74"/></linearGradient><linearGradient id="J" x1="6.115" y1="21.574" x2="9.112" y2="18.901" gradientUnits="userSpaceOnUse"><stop stop-color="#79B876"/><stop offset="1" stop-color="#79B876" stop-opacity="0"/></linearGradient><linearGradient id="O" x1="11.876" y1="14.465" x2="11.876" y2="29.793" gradientUnits="userSpaceOnUse"><stop stop-color="#46914C"/><stop offset="1" stop-color="#2E5D3F"/></linearGradient><linearGradient id="P" x1="14.141" y1="16.824" x2="13.844" y2="16.824" gradientUnits="userSpaceOnUse"><stop stop-color="#5A9B5B"/><stop offset="1" stop-color="#5A9B5B" stop-opacity="0"/></linearGradient><linearGradient id="U" x1="13.391" y1="8.515" x2="15.195" y2="8.681" gradientUnits="userSpaceOnUse"><stop stop-color="#58B159"/><stop offset="1" stop-color="#668B74"/></linearGradient><linearGradient id="ab" x1="26.317" y1="15.725" x2="27.613" y2="17.022" gradientUnits="userSpaceOnUse"><stop stop-color="#86B372"/><stop offset="1" stop-color="#A5A96D"/></linearGradient><linearGradient id="ad" x1="26.836" y1="16.652" x2="27.163" y2="16.308" gradientUnits="userSpaceOnUse"><stop stop-color="#93A880"/><stop offset="1" stop-color="#93A880" stop-opacity="0"/></linearGradient><linearGradient id="ae" x1="25.71" y1="7.59" x2="24.322" y2="6.127" gradientUnits="userSpaceOnUse"><stop stop-color="#92BB7C"/><stop offset="1" stop-color="#B3B75E"/></linearGradient><linearGradient id="af" x1="24.477" y1="7.371" x2="24.85" y2="7.066" gradientUnits="userSpaceOnUse"><stop stop-color="#A6BA82"/><stop offset="1" stop-color="#A6BA82" stop-opacity="0"/></linearGradient><linearGradient id="ah" x1="3.142" y1="9.153" x2="4.557" y2="10.568" gradientUnits="userSpaceOnUse"><stop stop-color="#B7B06A"/><stop offset="1" stop-color="#9AB883"/></linearGradient><linearGradient id="ai" x1="8.867" y1="14.149" x2="7.453" y2="15.563" gradientUnits="userSpaceOnUse"><stop stop-color="#ACB05E"/><stop offset="1" stop-color="#90B779"/></linearGradient><linearGradient id="al" x1="4.145" y1="23.877" x2="5.559" y2="22.463" gradientUnits="userSpaceOnUse"><stop stop-color="#9D9461"/><stop offset="1" stop-color="#89A27B"/></linearGradient><linearGradient id="am" x1="10" y1="26.355" x2="11.711" y2="26.355" gradientUnits="userSpaceOnUse"><stop stop-color="#989258"/><stop offset="1" stop-color="#A0C784"/><stop offset="1" stop-color="#7F9D72"/></linearGradient><linearGradient id="an" x1="22" y1="24.512" x2="20.32" y2="24.512" gradientUnits="userSpaceOnUse"><stop stop-color="#BEBD70"/><stop offset="1" stop-color="#A0C784"/></linearGradient><linearGradient id="ap" x1="18.516" y1="21.996" x2="19.96" y2="19.558" gradientUnits="userSpaceOnUse"><stop stop-color="#9AB584"/><stop offset="1" stop-color="#B2AC5E"/></linearGradient><linearGradient id="as" x1="14.141" y1="17.324" x2="12.359" y2="15.465" gradientUnits="userSpaceOnUse"><stop stop-color="#9AB584"/><stop offset="1" stop-color="#B2AC5E"/></linearGradient><linearGradient id="at" x1="12.04" y1="15.302" x2="12.766" y2="16.074" gradientUnits="userSpaceOnUse"><stop stop-color="#9F9652"/><stop offset="1" stop-color="#9F9652" stop-opacity="0"/></linearGradient><linearGradient id="au" x1="18" y1="11.512" x2="20" y2="11.512" gradientUnits="userSpaceOnUse"><stop stop-color="#9EBB83"/><stop offset="1" stop-color="#BEBC71"/></linearGradient><linearGradient id="ax" x1="10" y1="9.512" x2="12" y2="9.512" gradientUnits="userSpaceOnUse"><stop stop-color="#A8A75A"/><stop offset="1" stop-color="#87A972"/></linearGradient><linearGradient id="aA" x1="12.67" y1="4.235" x2="11.646" y2="2.82" gradientUnits="userSpaceOnUse"><stop stop-color="#9AB584"/><stop offset="1" stop-color="#B2AC5E"/></linearGradient><linearGradient id="aB" x1="10.99" y1="3.012" x2="11.405" y2="3.596" gradientUnits="userSpaceOnUse"><stop stop-color="#9F9652"/><stop offset="1" stop-color="#9F9652" stop-opacity="0"/></linearGradient><linearGradient id="aD" x1="27.68" y1="16.504" x2="26.719" y2="15.582" gradientUnits="userSpaceOnUse"><stop stop-color="#C5C58F"/><stop offset="1" stop-color="#C5C58F" stop-opacity="0"/></linearGradient><linearGradient id="aF" x1="25.391" y1="7.199" x2="24.459" y2="6.285" gradientUnits="userSpaceOnUse"><stop stop-color="#BAD39F"/><stop offset="1" stop-color="#C0C682" stop-opacity="0"/></linearGradient><linearGradient id="aH" x1="20.866" y1="3.152" x2="19.452" y2="4.566" gradientUnits="userSpaceOnUse"><stop stop-color="#BDBB6B"/><stop offset="1" stop-color="#96C47D"/></linearGradient><linearGradient id="aI" x1="19.742" y1="3.441" x2="20.023" y2="3.723" gradientUnits="userSpaceOnUse"><stop stop-color="#B8D18C"/><stop offset="1" stop-color="#AFC786" stop-opacity="0"/></linearGradient><linearGradient id="aM" x1="5.344" y1="11.927" x2="10.072" y2="18.724" gradientUnits="userSpaceOnUse"><stop stop-color="#75C876"/><stop offset="1" stop-color="#668B74"/></linearGradient><linearGradient id="aP" x1="7.813" y1="14.23" x2="11.875" y2="24.074" gradientUnits="userSpaceOnUse"><stop stop-color="#8ED989"/><stop offset="1" stop-color="#8ED989" stop-opacity="0"/></linearGradient><filter id="b" x="15.57" y="6.012" width="13.83" height="12" filterUnits="userSpaceOnUse" color-interpolation-filters="sRGB"><feFlood flood-opacity="0" result="BackgroundImageFix"/><feBlend in="SourceGraphic" in2="BackgroundImageFix" result="shape"/><feColorMatrix in="SourceAlpha" values="0 0 0 0 0 0 0 0 0 0 0 0 0 0 0 0 0 0 127 0" result="hardAlpha"/><feOffset dx=".4"/><feGaussianBlur stdDeviation=".2"/><feComposite in2="hardAlpha" operator="arithmetic" k2="-1" k3="1"/><feColorMatrix values="0 0 0 0 0.607843 0 0 0 0 0.831373 0 0 0 0 0.54902 0 0 0 1 0"/><feBlend in2="shape" result="effect1_innerShadow_28327_7697"/></filter><filter id="g" x="25.656" y="6.237" width="3.813" height="8.025" filterUnits="userSpaceOnUse" color-interpolation-filters="sRGB"><feFlood flood-opacity="0" result="BackgroundImageFix"/><feBlend in="SourceGraphic" in2="BackgroundImageFix" result="shape"/><feGaussianBlur stdDeviation=".5" result="effect1_foregroundBlur_28327_7697"/></filter><filter id="i" x="20.703" y="8.733" width="6.697" height="7.556" filterUnits="userSpaceOnUse" color-interpolation-filters="sRGB"><feFlood flood-opacity="0" result="BackgroundImageFix"/><feBlend in="SourceGraphic" in2="BackgroundImageFix" result="shape"/><feGaussianBlur stdDeviation=".1" result="effect1_foregroundBlur_28327_7697"/></filter><filter id="r" x="21.438" y="9.637" width="5.438" height="6.281" filterUnits="userSpaceOnUse" color-interpolation-filters="sRGB"><feFlood flood-opacity="0" result="BackgroundImageFix"/><feBlend in="SourceGraphic" in2="BackgroundImageFix" result="shape"/><feGaussianBlur stdDeviation=".125" result="effect1_foregroundBlur_28327_7697"/></filter><filter id="t" x="3.01" y="2" width="18.7" height="28" filterUnits="userSpaceOnUse" color-interpolation-filters="sRGB"><feFlood flood-opacity="0" result="BackgroundImageFix"/><feBlend in="SourceGraphic" in2="BackgroundImageFix" result="shape"/><feColorMatrix in="SourceAlpha" values="0 0 0 0 0 0 0 0 0 0 0 0 0 0 0 0 0 0 127 0" result="hardAlpha"/><feOffset dx=".7"/><feGaussianBlur stdDeviation=".5"/><feComposite in2="hardAlpha" operator="arithmetic" k2="-1" k3="1"/><feColorMatrix values="0 0 0 0 0.670588 0 0 0 0 0.858824 0 0 0 0 0.631373 0 0 0 1 0"/><feBlend in2="shape" result="effect1_innerShadow_28327_7697"/></filter><filter id="A" x="10.594" y="4.012" width="5.906" height="27.328" filterUnits="userSpaceOnUse" color-interpolation-filters="sRGB"><feFlood flood-opacity="0" result="BackgroundImageFix"/><feBlend in="SourceGraphic" in2="BackgroundImageFix" result="shape"/><feGaussianBlur stdDeviation="1" result="effect1_foregroundBlur_28327_7697"/></filter><filter id="B" x="15.69" y="4.458" width="5.614" height="26.882" filterUnits="userSpaceOnUse" color-interpolation-filters="sRGB"><feFlood flood-opacity="0" result="BackgroundImageFix"/><feBlend in="SourceGraphic" in2="BackgroundImageFix" result="shape"/><feGaussianBlur stdDeviation="1" result="effect1_foregroundBlur_28327_7697"/></filter><filter id="C" x="10.42" y="2.012" width="7.691" height="7.98" filterUnits="userSpaceOnUse" color-interpolation-filters="sRGB"><feFlood flood-opacity="0" result="BackgroundImageFix"/><feBlend in="SourceGraphic" in2="BackgroundImageFix" result="shape"/><feGaussianBlur stdDeviation="1" result="effect1_foregroundBlur_28327_7697"/></filter><filter id="D" x="12.954" y="1.678" width="9.324" height="9.324" filterUnits="userSpaceOnUse" color-interpolation-filters="sRGB"><feFlood flood-opacity="0" result="BackgroundImageFix"/><feBlend in="SourceGraphic" in2="BackgroundImageFix" result="shape"/><feGaussianBlur stdDeviation="1" result="effect1_foregroundBlur_28327_7697"/></filter><filter id="G" x="18.066" y="7.265" width=".65" height="22.536" filterUnits="userSpaceOnUse" color-interpolation-filters="sRGB"><feFlood flood-opacity="0" result="BackgroundImageFix"/><feBlend in="SourceGraphic" in2="BackgroundImageFix" result="shape"/><feGaussianBlur stdDeviation=".125" result="effect1_foregroundBlur_28327_7697"/></filter><filter id="I" x="4.6" y="6.462" width="9.8" height="23.731" filterUnits="userSpaceOnUse" color-interpolation-filters="sRGB"><feFlood flood-opacity="0" result="BackgroundImageFix"/><feBlend in="SourceGraphic" in2="BackgroundImageFix" result="shape"/><feGaussianBlur stdDeviation=".1" result="effect1_foregroundBlur_28327_7697"/></filter><filter id="N" x="1" y="6.862" width="17" height="30.931" filterUnits="userSpaceOnUse" color-interpolation-filters="sRGB"><feFlood flood-opacity="0" result="BackgroundImageFix"/><feColorMatrix in="SourceAlpha" values="0 0 0 0 0 0 0 0 0 0 0 0 0 0 0 0 0 0 127 0" result="hardAlpha"/><feOffset dy="4"/><feGaussianBlur stdDeviation="2"/><feComposite in2="hardAlpha" operator="out"/><feColorMatrix values="0 0 0 0 0 0 0 0 0 0 0 0 0 0 0 0 0 0 0.25 0"/><feBlend in2="BackgroundImageFix" result="effect1_dropShadow_28327_7697"/><feBlend in="SourceGraphic" in2="effect1_dropShadow_28327_7697" result="shape"/></filter><filter id="T" x="13.066" y="7.824" width=".65" height="21.977" filterUnits="userSpaceOnUse" color-interpolation-filters="sRGB"><feFlood flood-opacity="0" result="BackgroundImageFix"/><feBlend in="SourceGraphic" in2="BackgroundImageFix" result="shape"/><feGaussianBlur stdDeviation=".125" result="effect1_foregroundBlur_28327_7697"/></filter><filter id="V" x="19.937" y="23.779" width="1.285" height="1.661" filterUnits="userSpaceOnUse" color-interpolation-filters="sRGB"><feFlood flood-opacity="0" result="BackgroundImageFix"/><feBlend in="SourceGraphic" in2="BackgroundImageFix" result="shape"/><feGaussianBlur stdDeviation=".15" result="effect1_foregroundBlur_28327_7697"/></filter><filter id="W" x="10.992" y="25.712" width="1.122" height="1.6" filterUnits="userSpaceOnUse" color-interpolation-filters="sRGB"><feFlood flood-opacity="0" result="BackgroundImageFix"/><feBlend in="SourceGraphic" in2="BackgroundImageFix" result="shape"/><feGaussianBlur stdDeviation=".15" result="effect1_foregroundBlur_28327_7697"/></filter><filter id="X" x="11.52" y="3.493" width="1.484" height="1.613" filterUnits="userSpaceOnUse" color-interpolation-filters="sRGB"><feFlood flood-opacity="0" result="BackgroundImageFix"/><feBlend in="SourceGraphic" in2="BackgroundImageFix" result="shape"/><feGaussianBlur stdDeviation=".15" result="effect1_foregroundBlur_28327_7697"/></filter><filter id="Y" x="3.589" y="9.592" width="1.538" height="1.563" filterUnits="userSpaceOnUse" color-interpolation-filters="sRGB"><feFlood flood-opacity="0" result="BackgroundImageFix"/><feBlend in="SourceGraphic" in2="BackgroundImageFix" result="shape"/><feGaussianBlur stdDeviation=".15" result="effect1_foregroundBlur_28327_7697"/></filter><filter id="Z" x="4.421" y="22.119" width="1.479" height="1.551" filterUnits="userSpaceOnUse" color-interpolation-filters="sRGB"><feFlood flood-opacity="0" result="BackgroundImageFix"/><feBlend in="SourceGraphic" in2="BackgroundImageFix" result="shape"/><feGaussianBlur stdDeviation=".15" result="effect1_foregroundBlur_28327_7697"/></filter><filter id="aa" x="11.027" y="8.702" width="1.132" height="1.62" filterUnits="userSpaceOnUse" color-interpolation-filters="sRGB"><feFlood flood-opacity="0" result="BackgroundImageFix"/><feBlend in="SourceGraphic" in2="BackgroundImageFix" result="shape"/><feGaussianBlur stdDeviation=".15" result="effect1_foregroundBlur_28327_7697"/></filter><filter id="ag" x="3" y="9.002" width="1.784" height="1.779" filterUnits="userSpaceOnUse" color-interpolation-filters="sRGB"><feFlood flood-opacity="0" result="BackgroundImageFix"/><feBlend in="SourceGraphic" in2="BackgroundImageFix" result="shape"/><feColorMatrix in="SourceAlpha" values="0 0 0 0 0 0 0 0 0 0 0 0 0 0 0 0 0 0 127 0" result="hardAlpha"/><feOffset dx=".1" dy=".1"/><feGaussianBlur stdDeviation=".075"/><feComposite in2="hardAlpha" operator="arithmetic" k2="-1" k3="1"/><feColorMatrix values="0 0 0 0 0.734379 0 0 0 0 0.776471 0 0 0 0 0.603922 0 0 0 1 0"/><feBlend in2="shape" result="effect1_innerShadow_28327_7697"/></filter><filter id="ak" x="3.99" y="22.557" width="1.519" height="1.515" filterUnits="userSpaceOnUse" color-interpolation-filters="sRGB"><feFlood flood-opacity="0" result="BackgroundImageFix"/><feBlend in="SourceGraphic" in2="BackgroundImageFix" result="shape"/><feColorMatrix in="SourceAlpha" values="0 0 0 0 0 0 0 0 0 0 0 0 0 0 0 0 0 0 127 0" result="hardAlpha"/><feOffset dx=".05" dy=".05"/><feGaussianBlur stdDeviation=".1"/><feComposite in2="hardAlpha" operator="arithmetic" k2="-1" k3="1"/><feColorMatrix values="0 0 0 0 0.745098 0 0 0 0 0.72549 0 0 0 0 0.576471 0 0 0 1 0"/><feBlend in2="shape" result="effect1_innerShadow_28327_7697"/></filter><filter id="ar" x="12.04" y="15.202" width="2.06" height="2.81" filterUnits="userSpaceOnUse" color-interpolation-filters="sRGB"><feFlood flood-opacity="0" result="BackgroundImageFix"/><feBlend in="SourceGraphic" in2="BackgroundImageFix" result="shape"/><feColorMatrix in="SourceAlpha" values="0 0 0 0 0 0 0 0 0 0 0 0 0 0 0 0 0 0 127 0" result="hardAlpha"/><feOffset dx=".1" dy="-.1"/><feGaussianBlur stdDeviation=".125"/><feComposite in2="hardAlpha" operator="arithmetic" k2="-1" k3="1"/><feColorMatrix values="0 0 0 0 0.658297 0 0 0 0 0.716667 0 0 0 0 0.495694 0 0 0 1 0"/><feBlend in2="shape" result="effect1_innerShadow_28327_7697"/></filter><filter id="aw" x="10" y="9.012" width="1.795" height="1" filterUnits="userSpaceOnUse" color-interpolation-filters="sRGB"><feFlood flood-opacity="0" result="BackgroundImageFix"/><feBlend in="SourceGraphic" in2="BackgroundImageFix" result="shape"/><feColorMatrix in="SourceAlpha" values="0 0 0 0 0 0 0 0 0 0 0 0 0 0 0 0 0 0 127 0" result="hardAlpha"/><feOffset dx=".1"/><feGaussianBlur stdDeviation=".05"/><feComposite in2="hardAlpha" operator="arithmetic" k2="-1" k3="1"/><feColorMatrix values="0 0 0 0 0.772549 0 0 0 0 0.776471 0 0 0 0 0.572549 0 0 0 1 0"/><feBlend in2="shape" result="effect1_innerShadow_28327_7697"/></filter><filter id="az" x="10.99" y="2.912" width="1.667" height="1.739" filterUnits="userSpaceOnUse" color-interpolation-filters="sRGB"><feFlood flood-opacity="0" result="BackgroundImageFix"/><feBlend in="SourceGraphic" in2="BackgroundImageFix" result="shape"/><feColorMatrix in="SourceAlpha" values="0 0 0 0 0 0 0 0 0 0 0 0 0 0 0 0 0 0 127 0" result="hardAlpha"/><feOffset dx=".1" dy="-.1"/><feGaussianBlur stdDeviation=".125"/><feComposite in2="hardAlpha" operator="arithmetic" k2="-1" k3="1"/><feColorMatrix values="0 0 0 0 0.658297 0 0 0 0 0.716667 0 0 0 0 0.495694 0 0 0 1 0"/><feBlend in2="shape" result="effect1_innerShadow_28327_7697"/></filter><filter id="aC" x="26.508" y="15.285" width="1.58" height="1.573" filterUnits="userSpaceOnUse" color-interpolation-filters="sRGB"><feFlood flood-opacity="0" result="BackgroundImageFix"/><feBlend in="SourceGraphic" in2="BackgroundImageFix" result="shape"/><feGaussianBlur stdDeviation=".125" result="effect1_foregroundBlur_28327_7697"/></filter><filter id="aE" x="24.122" y="5.935" width="1.654" height="1.642" filterUnits="userSpaceOnUse" color-interpolation-filters="sRGB"><feFlood flood-opacity="0" result="BackgroundImageFix"/><feBlend in="SourceGraphic" in2="BackgroundImageFix" result="shape"/><feGaussianBlur stdDeviation=".125" result="effect1_foregroundBlur_28327_7697"/></filter><filter id="aG" x="18.773" y="3.699" width="1.516" height="1.516" filterUnits="userSpaceOnUse" color-interpolation-filters="sRGB"><feFlood flood-opacity="0" result="BackgroundImageFix"/><feBlend in="SourceGraphic" in2="BackgroundImageFix" result="shape"/><feGaussianBlur stdDeviation=".15" result="effect1_foregroundBlur_28327_7697"/></filter><filter id="aK" x="12.255" y="15.361" width="1.943" height="1.957" filterUnits="userSpaceOnUse" color-interpolation-filters="sRGB"><feFlood flood-opacity="0" result="BackgroundImageFix"/><feBlend in="SourceGraphic" in2="BackgroundImageFix" result="shape"/><feGaussianBlur stdDeviation=".125" result="effect1_foregroundBlur_28327_7697"/></filter><filter id="aL" x="5.019" y="11.168" width="8.544" height="11.794" filterUnits="userSpaceOnUse" color-interpolation-filters="sRGB"><feFlood flood-opacity="0" result="BackgroundImageFix"/><feBlend in="SourceGraphic" in2="BackgroundImageFix" result="shape"/><feGaussianBlur stdDeviation=".125" result="effect1_foregroundBlur_28327_7697"/></filter><filter id="aO" x="5.344" y="9.355" width="5.469" height="13.344" filterUnits="userSpaceOnUse" color-interpolation-filters="sRGB"><feFlood flood-opacity="0" result="BackgroundImageFix"/><feBlend in="SourceGraphic" in2="BackgroundImageFix" result="shape"/><feGaussianBlur stdDeviation=".5" result="effect1_foregroundBlur_28327_7697"/></filter><filter id="aQ" x="11.313" y="3.059" width="1.287" height="1.275" filterUnits="userSpaceOnUse" color-interpolation-filters="sRGB"><feFlood flood-opacity="0" result="BackgroundImageFix"/><feBlend in="SourceGraphic" in2="BackgroundImageFix" result="shape"/><feGaussianBlur stdDeviation=".1" result="effect1_foregroundBlur_28327_7697"/></filter><filter id="aR" x="3.286" y="9.032" width="1.383" height="1.38" filterUnits="userSpaceOnUse" color-interpolation-filters="sRGB"><feFlood flood-opacity="0" result="BackgroundImageFix"/><feBlend in="SourceGraphic" in2="BackgroundImageFix" result="shape"/><feGaussianBlur stdDeviation=".1" result="effect1_foregroundBlur_28327_7697"/></filter><radialGradient id="d" cx="0" cy="0" r="1" gradientUnits="userSpaceOnUse" gradientTransform="rotate(60.255 2.207 25.016) scale(7.42249 8.80489)"><stop offset=".728" stop-color="#5C9E61" stop-opacity="0"/><stop offset="1" stop-color="#5C9E61"/></radialGradient><radialGradient id="e" cx="0" cy="0" r="1" gradientUnits="userSpaceOnUse" gradientTransform="matrix(2.40625 0 0 2.46875 20.969 15.73)"><stop stop-color="#5ABA57"/><stop offset="1" stop-color="#5ABA57" stop-opacity="0"/></radialGradient><radialGradient id="f" cx="0" cy="0" r="1" gradientUnits="userSpaceOnUse" gradientTransform="matrix(-1.43818 1.2472 -2.99485 -3.45346 29 6.574)"><stop stop-color="#91DB89"/><stop offset="1" stop-color="#91DB89" stop-opacity="0"/></radialGradient><radialGradient id="j" cx="0" cy="0" r="1" gradientUnits="userSpaceOnUse" gradientTransform="matrix(.84325 2.22858 -8.04213 3.04298 24.109 12.907)"><stop stop-color="#7CCD79"/><stop offset="1" stop-color="#7CCD79" stop-opacity="0"/></radialGradient><radialGradient id="k" cx="0" cy="0" r="1" gradientUnits="userSpaceOnUse" gradientTransform="matrix(.89062 .17187 -.76257 3.95152 25.734 11.73)"><stop stop-color="#7CCD79"/><stop offset="1" stop-color="#7CCD79" stop-opacity="0"/></radialGradient><radialGradient id="l" cx="0" cy="0" r="1" gradientUnits="userSpaceOnUse" gradientTransform="matrix(-.70773 -.51197 6.63556 -9.17273 26.021 14.955)"><stop stop-color="#47AE4A"/><stop offset="1" stop-color="#47AE4A" stop-opacity="0"/></radialGradient><radialGradient id="m" cx="0" cy="0" r="1" gradientUnits="userSpaceOnUse" gradientTransform="rotate(-94.014 19.352 -2.883) scale(.86042 13.82967)"><stop stop-color="#47AE4A"/><stop offset="1" stop-color="#47AE4A" stop-opacity="0"/></radialGradient><radialGradient id="n" cx="0" cy="0" r="1" gradientUnits="userSpaceOnUse" gradientTransform="rotate(-176.775 14.064 5.482) scale(1.07081 3.10974)"><stop stop-color="#47AE4A"/><stop offset="1" stop-color="#47AE4A" stop-opacity="0"/></radialGradient><radialGradient id="q" cx="0" cy="0" r="1" gradientUnits="userSpaceOnUse" gradientTransform="matrix(.82813 3.15625 -1.04355 .2738 25.547 10.527)"><stop stop-color="#6CB26E"/><stop offset="1" stop-color="#6CB26E" stop-opacity="0"/></radialGradient><radialGradient id="s" cx="0" cy="0" r="1" gradientUnits="userSpaceOnUse" gradientTransform="rotate(-133.1 16.154 1.419) scale(2.33253 9.83474)"><stop stop-color="#5C9F65"/><stop offset="1" stop-color="#5C9F65" stop-opacity="0"/></radialGradient><radialGradient id="w" cx="0" cy="0" r="1" gradientUnits="userSpaceOnUse" gradientTransform="rotate(124.563 3.435 15.435) scale(1.03561 .55318)"><stop offset=".474" stop-color="#278620"/><stop offset="1" stop-color="#278620" stop-opacity="0"/></radialGradient><radialGradient id="x" cx="0" cy="0" r="1" gradientUnits="userSpaceOnUse" gradientTransform="rotate(-54.856 27.311 7.639) scale(5.80889 13.4548)"><stop stop-color="#469747"/><stop offset="1" stop-color="#469747" stop-opacity="0"/></radialGradient><radialGradient id="z" cx="0" cy="0" r="1" gradientUnits="userSpaceOnUse" gradientTransform="rotate(130.649 .03 11.365) scale(2.03881 2.33898)"><stop stop-color="#4BAD46"/><stop offset="1" stop-color="#4BAD46" stop-opacity="0"/></radialGradient><radialGradient id="E" cx="0" cy="0" r="1" gradientUnits="userSpaceOnUse" gradientTransform="rotate(143.49 8.383 5.89) scale(4.88593 3.7854)"><stop stop-color="#95E491"/><stop offset="1" stop-color="#95E491" stop-opacity="0"/></radialGradient><radialGradient id="K" cx="0" cy="0" r="1" gradientUnits="userSpaceOnUse" gradientTransform="matrix(2.09375 .59375 -.91364 3.22179 4.75 10.98)"><stop stop-color="#8BD485"/><stop offset="1" stop-color="#8BD485" stop-opacity="0"/></radialGradient><radialGradient id="L" cx="0" cy="0" r="1" gradientUnits="userSpaceOnUse" gradientTransform="rotate(39.106 -23.278 28.11) scale(3.44325 3.5708)"><stop stop-color="#85BB83"/><stop offset="1" stop-color="#85BB83" stop-opacity="0"/></radialGradient><radialGradient id="M" cx="0" cy="0" r="1" gradientUnits="userSpaceOnUse" gradientTransform="matrix(.875 0 0 6.90625 12.688 15.95)"><stop stop-color="#85BB83"/><stop offset="1" stop-color="#85BB83" stop-opacity="0"/></radialGradient><radialGradient id="Q" cx="0" cy="0" r="1" gradientUnits="userSpaceOnUse" gradientTransform="rotate(116.896 1.242 12.712) scale(1.20889 .94053)"><stop stop-color="#2B6B33"/><stop offset="1" stop-color="#2B6B33" stop-opacity="0"/></radialGradient><radialGradient id="R" cx="0" cy="0" r="1" gradientUnits="userSpaceOnUse" gradientTransform="matrix(0 7.28125 -2.85773 0 5.469 11.387)"><stop stop-color="#40A047"/><stop offset="1" stop-color="#40A047" stop-opacity="0"/></radialGradient><radialGradient id="S" cx="0" cy="0" r="1" gradientUnits="userSpaceOnUse" gradientTransform="rotate(96.623 3.866 9.595) scale(4.33518 4.37293)"><stop stop-color="#489E4F"/><stop offset="1" stop-color="#489E4F" stop-opacity="0"/></radialGradient><radialGradient id="ac" cx="0" cy="0" r="1" gradientUnits="userSpaceOnUse" gradientTransform="matrix(-.47343 -.4382 .4401 -.47549 28.01 16.972)"><stop stop-color="#A79C66"/><stop offset="1" stop-color="#A79C66" stop-opacity="0"/></radialGradient><radialGradient id="aj" cx="0" cy="0" r="1" gradientUnits="userSpaceOnUse" gradientTransform="rotate(135 1.409 9.084) scale(1.19324 .56446)"><stop stop-color="#BEC284"/><stop offset="1" stop-color="#BEC284" stop-opacity="0"/></radialGradient><radialGradient id="ao" cx="0" cy="0" r="1" gradientUnits="userSpaceOnUse" gradientTransform="matrix(-.39993 0 0 -.38817 21.823 24.346)"><stop stop-color="#D2D090"/><stop offset="1" stop-color="#CFCD8D" stop-opacity="0"/></radialGradient><radialGradient id="aq" cx="0" cy="0" r="1" gradientUnits="userSpaceOnUse" gradientTransform="rotate(138.365 6.042 13.704) scale(.36633 .3579)"><stop stop-color="#CFCD8D"/><stop offset="1" stop-color="#CFCD8D" stop-opacity="0"/></radialGradient><radialGradient id="av" cx="0" cy="0" r="1" gradientUnits="userSpaceOnUse" gradientTransform="matrix(-.37026 0 0 -.2974 19.592 11.383)"><stop stop-color="#CFCD8D"/><stop offset="1" stop-color="#CFCD8D" stop-opacity="0"/></radialGradient><radialGradient id="ay" cx="0" cy="0" r="1" gradientUnits="userSpaceOnUse" gradientTransform="matrix(-.94922 0 0 -.25 11.797 9.512)"><stop stop-color="#97B27F"/><stop offset="1" stop-color="#97B27F" stop-opacity="0"/></radialGradient><radialGradient id="aJ" cx="0" cy="0" r="1" gradientUnits="userSpaceOnUse" gradientTransform="matrix(-.36025 .17064 -.1361 -.2873 20.848 3.389)"><stop stop-color="#D2D18E"/><stop offset="1" stop-color="#D2D18E" stop-opacity="0"/></radialGradient><radialGradient id="aN" cx="0" cy="0" r="1" gradientUnits="userSpaceOnUse" gradientTransform="rotate(-55.592 29.805 2.91) scale(2.76505 1.14713)"><stop stop-color="#469747"/><stop offset="1" stop-color="#469747" stop-opacity="0"/></radialGradient><clipPath id="a"><path fill="#fff" d="M0 0h32v32H0z"/></clipPath></defs></svg>