<svg xmlns="http://www.w3.org/2000/svg" fill="none" viewBox="0 0 32 32"><g filter="url(#call-me-hand-dark_svg__a)"><path fill="url(#call-me-hand-dark_svg__b)" d="M17.962 10.42c3.188 1.826 5.35 5.346 5.35 9.273 0 1.603-.361 3.112-1.004 4.453h4.13c1.587 0 2.873 1.298 2.873 2.899s-1.286 2.898-2.872 2.898H14.084q-.33 0-.634-.008-.21.008-.419.008c-6.874 0-10.342-4.551-10.342-10.281 0-4.284 2.608-8.067 6.298-9.703l.035-.02c1.424-.605 4.223-2.804 6.61-6.504 1.192-1.547 2.997-1.764 4.257-.791 1.26.972 1.371 2.784.581 4.073-.54.883-1.911 2.85-2.508 3.703"/><path fill="url(#call-me-hand-dark_svg__c)" d="M17.962 10.42c3.188 1.826 5.35 5.346 5.35 9.273 0 1.603-.361 3.112-1.004 4.453h4.13c1.587 0 2.873 1.298 2.873 2.899s-1.286 2.898-2.872 2.898H14.084q-.33 0-.634-.008-.21.008-.419.008c-6.874 0-10.342-4.551-10.342-10.281 0-4.284 2.608-8.067 6.298-9.703l.035-.02c1.424-.605 4.223-2.804 6.61-6.504 1.192-1.547 2.997-1.764 4.257-.791 1.26.972 1.371 2.784.581 4.073-.54.883-1.911 2.85-2.508 3.703"/><path fill="url(#call-me-hand-dark_svg__d)" d="M17.962 10.42c3.188 1.826 5.35 5.346 5.35 9.273 0 1.603-.361 3.112-1.004 4.453h4.13c1.587 0 2.873 1.298 2.873 2.899s-1.286 2.898-2.872 2.898H14.084q-.33 0-.634-.008-.21.008-.419.008c-6.874 0-10.342-4.551-10.342-10.281 0-4.284 2.608-8.067 6.298-9.703l.035-.02c1.424-.605 4.223-2.804 6.61-6.504 1.192-1.547 2.997-1.764 4.257-.791 1.26.972 1.371 2.784.581 4.073-.54.883-1.911 2.85-2.508 3.703"/><path fill="url(#call-me-hand-dark_svg__e)" d="M17.962 10.42c3.188 1.826 5.35 5.346 5.35 9.273 0 1.603-.361 3.112-1.004 4.453h4.13c1.587 0 2.873 1.298 2.873 2.899s-1.286 2.898-2.872 2.898H14.084q-.33 0-.634-.008-.21.008-.419.008c-6.874 0-10.342-4.551-10.342-10.281 0-4.284 2.608-8.067 6.298-9.703l.035-.02c1.424-.605 4.223-2.804 6.61-6.504 1.192-1.547 2.997-1.764 4.257-.791 1.26.972 1.371 2.784.581 4.073-.54.883-1.911 2.85-2.508 3.703"/></g><g filter="url(#call-me-hand-dark_svg__f)"><path fill="url(#call-me-hand-dark_svg__g)" d="M14.537 14.715c0-1.439 1.07-2.606 2.388-2.606H20.4c1.319 0 2.388 1.167 2.388 2.606 0 .942-.457 1.767-1.143 2.224.683.43 1.143 1.235 1.143 2.157 0 .934-.471 1.747-1.168 2.173.699.449 1.168 1.28 1.168 2.229 0 .75-.145 1.874-1.338 2.15l-4.543.435c-1.308 0-2.369-1.157-2.369-2.585 0-.95.47-1.78 1.169-2.23-.697-.425-1.169-1.238-1.169-2.172 0-.922.46-1.727 1.143-2.157-.685-.457-1.143-1.282-1.143-2.224"/></g><rect width="15.25" height="5.797" x="14.06" y="24.146" fill="url(#call-me-hand-dark_svg__h)" fill-opacity=".5" rx="2.898"/><rect width="15.25" height="5.797" x="14.06" y="24.146" fill="url(#call-me-hand-dark_svg__i)" rx="2.898"/><path fill="url(#call-me-hand-dark_svg__j)" d="m17.97 10.425-.008-.005c.597-.853 1.968-2.82 2.508-3.703.79-1.29.679-3.1-.581-4.073a2.76 2.76 0 0 0-1.69-.587 3 3 0 0 0-1.566.46c-.36.222-.7.528-1 .918-2.388 3.7-5.187 5.899-6.611 6.504l-.035.02q-.196.087-.389.182c-.155.108-.203.22-.236.559-.133 1.348 1.235 3.249 2.294 4.058 1.271.972 3.09.73 4.063-.542l2.967-3.39z"/><path fill="url(#call-me-hand-dark_svg__k)" d="m17.97 10.425-.008-.005c.597-.853 1.968-2.82 2.508-3.703.79-1.29.679-3.1-.581-4.073a2.76 2.76 0 0 0-1.69-.587 3 3 0 0 0-1.566.46c-.36.222-.7.528-1 .918-2.388 3.7-5.187 5.899-6.611 6.504l-.035.02q-.196.087-.389.182c-.155.108-.203.22-.236.559-.133 1.348 1.235 3.249 2.294 4.058 1.271.972 3.09.73 4.063-.542l2.967-3.39z"/><path fill="url(#call-me-hand-dark_svg__l)" d="m17.97 10.425-.008-.005c.597-.853 1.968-2.82 2.508-3.703.79-1.29.679-3.1-.581-4.073a2.76 2.76 0 0 0-1.69-.587 3 3 0 0 0-1.566.46c-.36.222-.7.528-1 .918-2.388 3.7-5.187 5.899-6.611 6.504l-.035.02q-.196.087-.389.182c-.155.108-.203.22-.236.559-.133 1.348 1.235 3.249 2.294 4.058 1.271.972 3.09.73 4.063-.542l2.967-3.39z"/><path fill="url(#call-me-hand-dark_svg__m)" d="m17.97 10.425-.008-.005c.597-.853 1.968-2.82 2.508-3.703.79-1.29.679-3.1-.581-4.073a2.76 2.76 0 0 0-1.69-.587 3 3 0 0 0-1.566.46c-.36.222-.7.528-1 .918-2.388 3.7-5.187 5.899-6.611 6.504l-.035.02q-.196.087-.389.182c-.155.108-.203.22-.236.559-.133 1.348 1.235 3.249 2.294 4.058 1.271.972 3.09.73 4.063-.542l2.967-3.39z"/><rect width="10.088" height="5.828" x="15.376" y="9.568" fill="url(#call-me-hand-dark_svg__n)" rx="2.914"/><rect width="10.088" height="5.828" x="15.376" y="9.568" fill="url(#call-me-hand-dark_svg__o)" rx="2.914"/><rect width="10.088" height="5.781" x="15.376" y="19.412" fill="url(#call-me-hand-dark_svg__p)" rx="2.891"/><rect width="10.088" height="5.781" x="15.376" y="19.412" fill="url(#call-me-hand-dark_svg__q)" rx="2.891"/><rect width="10.088" height="5.781" x="15.376" y="19.412" fill="url(#call-me-hand-dark_svg__r)" rx="2.891"/><g filter="url(#call-me-hand-dark_svg__s)"><rect width="6.815" height=".688" x="17.058" y="14.256" fill="#2D1C1A" rx=".344"/></g><g filter="url(#call-me-hand-dark_svg__t)"><rect width="6.815" height=".688" x="17.058" y="19.818" fill="#2D1C1A" rx=".344"/></g><rect width="10.088" height="5.563" x="15.376" y="14.599" fill="url(#call-me-hand-dark_svg__u)" rx="2.781"/><rect width="10.088" height="5.563" x="15.376" y="14.599" fill="url(#call-me-hand-dark_svg__v)" rx="2.781"/><rect width="10.088" height="5.563" x="15.376" y="14.599" fill="url(#call-me-hand-dark_svg__w)" rx="2.781"/><defs><radialGradient id="call-me-hand-dark_svg__c" cx="0" cy="0" r="1" gradientTransform="matrix(8.56555 0 0 4.57895 7.71 11.043)" gradientUnits="userSpaceOnUse"><stop stop-color="#49302E"/><stop offset="1" stop-color="#49302E" stop-opacity="0"/></radialGradient><radialGradient id="call-me-hand-dark_svg__e" cx="0" cy="0" r="1" gradientTransform="matrix(-6.63519 0 0 -10.3302 16.544 19.184)" gradientUnits="userSpaceOnUse"><stop stop-color="#402F30"/><stop offset="1" stop-color="#402F30" stop-opacity="0"/></radialGradient><radialGradient id="call-me-hand-dark_svg__g" cx="0" cy="0" r="1" gradientTransform="rotate(-56.922 30.473 -2.066)scale(8.5892 7.14806)" gradientUnits="userSpaceOnUse"><stop stop-color="#2F1A24"/><stop offset="1" stop-color="#190C0C"/></radialGradient><radialGradient id="call-me-hand-dark_svg__h" cx="0" cy="0" r="1" gradientTransform="matrix(-10.14807 -.05048 .00666 -1.33965 28.08 26.41)" gradientUnits="userSpaceOnUse"><stop stop-color="#665150"/><stop offset="1" stop-color="#665150" stop-opacity="0"/></radialGradient><radialGradient id="call-me-hand-dark_svg__i" cx="0" cy="0" r="1" gradientTransform="rotate(-42.93 47.206 -22.411)scale(2.54081 2.06084)" gradientUnits="userSpaceOnUse"><stop stop-color="#665150"/><stop offset="1" stop-color="#665150" stop-opacity="0"/></radialGradient><radialGradient id="call-me-hand-dark_svg__j" cx="0" cy="0" r="1" gradientTransform="matrix(1.875 1.8125 -5.24074 5.42145 12.967 6.38)" gradientUnits="userSpaceOnUse"><stop stop-color="#463938"/><stop offset=".858" stop-color="#463938" stop-opacity="0"/></radialGradient><radialGradient id="call-me-hand-dark_svg__k" cx="0" cy="0" r="1" gradientTransform="rotate(129.92 8.932 6.449)scale(2.98951 1.97665)" gradientUnits="userSpaceOnUse"><stop stop-color="#65514F"/><stop offset="1" stop-color="#65514F" stop-opacity="0"/></radialGradient><radialGradient id="call-me-hand-dark_svg__l" cx="0" cy="0" r="1" gradientTransform="rotate(142.344 8.33 7.288)scale(5.01297 1.89469)" gradientUnits="userSpaceOnUse"><stop stop-color="#3C201B"/><stop offset="1" stop-color="#3C201B" stop-opacity="0"/></radialGradient><radialGradient id="call-me-hand-dark_svg__m" cx="0" cy="0" r="1" gradientTransform="matrix(-3.53125 0 0 -1.78125 17.752 10.813)" gradientUnits="userSpaceOnUse"><stop stop-color="#594744"/><stop offset="1" stop-color="#594744" stop-opacity="0"/></radialGradient><radialGradient id="call-me-hand-dark_svg__n" cx="0" cy="0" r="1" gradientTransform="matrix(-5.875 0 0 -2.84274 23.662 11.85)" gradientUnits="userSpaceOnUse"><stop stop-color="#675250"/><stop offset="1" stop-color="#3F2B29"/></radialGradient><radialGradient id="call-me-hand-dark_svg__p" cx="0" cy="0" r="1" gradientTransform="matrix(-4.65625 0 0 -2.20272 22.19 21.615)" gradientUnits="userSpaceOnUse"><stop stop-color="#675250"/><stop offset="1" stop-color="#3F2B29"/></radialGradient><radialGradient id="call-me-hand-dark_svg__r" cx="0" cy="0" r="1" gradientTransform="matrix(5.90625 0 0 2.63668 17.033 23.875)" gradientUnits="userSpaceOnUse"><stop stop-color="#3D222E"/><stop offset="1" stop-color="#3D222E" stop-opacity="0"/></radialGradient><radialGradient id="call-me-hand-dark_svg__u" cx="0" cy="0" r="1" gradientTransform="matrix(-4.65625 0 0 -2.11937 22.19 16.719)" gradientUnits="userSpaceOnUse"><stop stop-color="#675250"/><stop offset="1" stop-color="#3F2B29"/></radialGradient><radialGradient id="call-me-hand-dark_svg__w" cx="0" cy="0" r="1" gradientTransform="matrix(5.65625 0 0 2.42953 16.564 19.313)" gradientUnits="userSpaceOnUse"><stop stop-color="#3D222E"/><stop offset="1" stop-color="#3D222E" stop-opacity="0"/></radialGradient><linearGradient id="call-me-hand-dark_svg__b" x1="14.36" x2="30.649" y1="31.333" y2="11.98" gradientUnits="userSpaceOnUse"><stop stop-color="#442C2D"/><stop offset="1" stop-color="#4F3633"/></linearGradient><linearGradient id="call-me-hand-dark_svg__d" x1="18.212" x2="18.212" y1="30.189" y2="26.494" gradientUnits="userSpaceOnUse"><stop stop-color="#402332"/><stop offset="1" stop-color="#402332" stop-opacity="0"/></linearGradient><linearGradient id="call-me-hand-dark_svg__o" x1="14.772" x2="19.102" y1="13.293" y2="13.293" gradientUnits="userSpaceOnUse"><stop stop-color="#3F2A29"/><stop offset="1" stop-color="#3F2A29" stop-opacity="0"/></linearGradient><linearGradient id="call-me-hand-dark_svg__q" x1="14.772" x2="19.102" y1="23.107" y2="23.107" gradientUnits="userSpaceOnUse"><stop stop-color="#3F2A29"/><stop offset="1" stop-color="#3F2A29" stop-opacity="0"/></linearGradient><linearGradient id="call-me-hand-dark_svg__v" x1="14.772" x2="19.102" y1="18.155" y2="18.155" gradientUnits="userSpaceOnUse"><stop stop-color="#3F2A29"/><stop offset="1" stop-color="#3F2A29" stop-opacity="0"/></linearGradient><filter id="call-me-hand-dark_svg__a" width="27.371" height="28.636" x="2.689" y="1.307" color-interpolation-filters="sRGB" filterUnits="userSpaceOnUse"><feFlood flood-opacity="0" result="BackgroundImageFix"/><feBlend in="SourceGraphic" in2="BackgroundImageFix" result="shape"/><feColorMatrix in="SourceAlpha" result="hardAlpha" values="0 0 0 0 0 0 0 0 0 0 0 0 0 0 0 0 0 0 127 0"/><feOffset dx=".75" dy="-.75"/><feGaussianBlur stdDeviation="1"/><feComposite in2="hardAlpha" k2="-1" k3="1" operator="arithmetic"/><feColorMatrix values="0 0 0 0 0.243137 0 0 0 0 0.129412 0 0 0 0 0.215686 0 0 0 1 0"/><feBlend in2="shape" result="effect1_innerShadow_20020_2625"/><feColorMatrix in="SourceAlpha" result="hardAlpha" values="0 0 0 0 0 0 0 0 0 0 0 0 0 0 0 0 0 0 127 0"/><feOffset dx=".5"/><feGaussianBlur stdDeviation=".5"/><feComposite in2="hardAlpha" k2="-1" k3="1" operator="arithmetic"/><feColorMatrix values="0 0 0 0 0.333333 0 0 0 0 0.266667 0 0 0 0 0.25098 0 0 0 1 0"/><feBlend in2="effect1_innerShadow_20020_2625" result="effect2_innerShadow_20020_2625"/></filter><filter id="call-me-hand-dark_svg__f" width="11.25" height="16.974" x="13.037" y="10.609" color-interpolation-filters="sRGB" filterUnits="userSpaceOnUse"><feFlood flood-opacity="0" result="BackgroundImageFix"/><feBlend in="SourceGraphic" in2="BackgroundImageFix" result="shape"/><feGaussianBlur result="effect1_foregroundBlur_20020_2625" stdDeviation=".75"/></filter><filter id="call-me-hand-dark_svg__s" width="8.315" height="2.188" x="16.308" y="13.506" color-interpolation-filters="sRGB" filterUnits="userSpaceOnUse"><feFlood flood-opacity="0" result="BackgroundImageFix"/><feBlend in="SourceGraphic" in2="BackgroundImageFix" result="shape"/><feGaussianBlur result="effect1_foregroundBlur_20020_2625" stdDeviation=".375"/></filter><filter id="call-me-hand-dark_svg__t" width="8.315" height="2.188" x="16.308" y="19.068" color-interpolation-filters="sRGB" filterUnits="userSpaceOnUse"><feFlood flood-opacity="0" result="BackgroundImageFix"/><feBlend in="SourceGraphic" in2="BackgroundImageFix" result="shape"/><feGaussianBlur result="effect1_foregroundBlur_20020_2625" stdDeviation=".375"/></filter></defs></svg>