<svg width="32" height="32" fill="none" xmlns="http://www.w3.org/2000/svg"><path d="M24.82 27.04H6.52c-.84 0-1.52.69-1.52 1.53 0 .84.68 1.52 1.52 1.52h18.3c.84 0 1.52-.68 1.52-1.52s-.68-1.53-1.52-1.53Z" fill="url(#a)"/><path d="M24.82 27.04H6.52c-.84 0-1.52.69-1.52 1.53 0 .84.68 1.52 1.52 1.52h18.3c.84 0 1.52-.68 1.52-1.52s-.68-1.53-1.52-1.53Z" fill="url(#b)"/><path d="M24.82 27.04H6.52c-.84 0-1.52.69-1.52 1.53 0 .84.68 1.52 1.52 1.52h18.3c.84 0 1.52-.68 1.52-1.52s-.68-1.53-1.52-1.53Z" fill="url(#c)"/><path d="M24.82 27.04H6.52c-.84 0-1.52.69-1.52 1.53 0 .84.68 1.52 1.52 1.52h18.3c.84 0 1.52-.68 1.52-1.52s-.68-1.53-1.52-1.53Z" fill="url(#d)"/><path d="M24.74 5.1H6.75v5.68h17.99V5.1Z" fill="url(#e)"/><path d="M24.74 20.06H6.75v6.98h17.99v-6.98Z" fill="url(#f)"/><path fill-rule="evenodd" clip-rule="evenodd" d="M21.596 21.06a7.978 7.978 0 0 1-5.856 2.55 7.978 7.978 0 0 1-5.856-2.55H6.75V10.07h3.219a7.977 7.977 0 0 1 5.771-2.46c2.268 0 4.316.944 5.771 2.46h3.229v10.99h-3.144Z" fill="url(#g)"/><path d="M17.31 12.72h-3.14c-2.18 0-3.95 1.77-3.95 3.95s1.77 3.95 3.95 3.95h3.14c2.18 0 3.95-1.77 3.95-3.95s-1.76-3.95-3.95-3.95Z" fill="url(#h)"/><path fill-rule="evenodd" clip-rule="evenodd" d="M19.79 10.62h-2.28c-.72 0-1.36.338-1.768.862a2.227 2.227 0 0 0-1.752-.852H11.7c0 1.23 1 2.23 2.24 2.23h2.28v-.01h1.34c1.23 0 2.23-1 2.23-2.23Z" fill="url(#i)"/><path d="M24.82 2H6.52C5.68 2 5 2.693 5 3.55c0 .857.68 1.55 1.52 1.55h18.3c.84 0 1.52-.693 1.52-1.55 0-.857-.68-1.55-1.52-1.55Z" fill="url(#j)"/><path d="M24.82 2H6.52C5.68 2 5 2.693 5 3.55c0 .857.68 1.55 1.52 1.55h18.3c.84 0 1.52-.693 1.52-1.55 0-.857-.68-1.55-1.52-1.55Z" fill="url(#k)"/><path d="M24.82 2H6.52C5.68 2 5 2.693 5 3.55c0 .857.68 1.55 1.52 1.55h18.3c.84 0 1.52-.693 1.52-1.55 0-.857-.68-1.55-1.52-1.55Z" fill="url(#l)"/><path d="M24.82 2H6.52C5.68 2 5 2.693 5 3.55c0 .857.68 1.55 1.52 1.55h18.3c.84 0 1.52-.693 1.52-1.55 0-.857-.68-1.55-1.52-1.55Z" fill="url(#m)"/><defs><linearGradient id="a" x1="5" y1="30.09" x2="26.34" y2="30.09" gradientUnits="userSpaceOnUse"><stop stop-color="#9C9BA0"/><stop offset="1" stop-color="#CACACD"/></linearGradient><linearGradient id="b" x1="15.67" y1="27.04" x2="15.67" y2="30.09" gradientUnits="userSpaceOnUse"><stop offset=".202" stop-color="#C595F4" stop-opacity="0"/><stop offset="1" stop-color="#C495F3"/></linearGradient><linearGradient id="e" x1="6.75" y1="10.78" x2="24.74" y2="10.78" gradientUnits="userSpaceOnUse"><stop stop-color="#A84348"/><stop offset=".431" stop-color="#D83165"/><stop offset=".716" stop-color="#F25488"/><stop offset="1" stop-color="#EE5295"/></linearGradient><linearGradient id="f" x1="6.75" y1="27.04" x2="24.74" y2="27.04" gradientUnits="userSpaceOnUse"><stop stop-color="#A84348"/><stop offset=".396" stop-color="#D83165"/><stop offset=".743" stop-color="#FF558E"/><stop offset="1" stop-color="#EE5295"/></linearGradient><linearGradient id="g" x1="6.75" y1="16.875" x2="24.74" y2="16.875" gradientUnits="userSpaceOnUse"><stop stop-color="#9B96A5"/><stop offset=".459" stop-color="#C8BBDC"/><stop offset=".737" stop-color="#E8E0F7"/><stop offset=".962" stop-color="#E1DBED"/><stop offset="1" stop-color="#D7D4DF"/></linearGradient><linearGradient id="h" x1="10.22" y1="16.67" x2="21.26" y2="16.67" gradientUnits="userSpaceOnUse"><stop stop-color="#BC2E36"/><stop offset="1" stop-color="#FF51A6"/></linearGradient><linearGradient id="i" x1="15.745" y1="10.62" x2="15.745" y2="12.86" gradientUnits="userSpaceOnUse"><stop stop-color="#2FB671"/><stop offset="1" stop-color="#56D69B"/></linearGradient><linearGradient id="j" x1="5" y1="5.1" x2="26.34" y2="5.1" gradientUnits="userSpaceOnUse"><stop stop-color="#9C9BA0"/><stop offset="1" stop-color="#CACACD"/></linearGradient><linearGradient id="k" x1="15.67" y1="2" x2="15.67" y2="5.1" gradientUnits="userSpaceOnUse"><stop offset=".202" stop-color="#BCA2D8" stop-opacity="0"/><stop offset="1" stop-color="#B196CC"/></linearGradient><radialGradient id="c" cx="0" cy="0" r="1" gradientUnits="userSpaceOnUse" gradientTransform="matrix(.0625 2.43508 -12.00155 .30805 22.688 27.655)"><stop stop-color="#DFDCE8"/><stop offset="1" stop-color="#D4D1DD" stop-opacity="0"/></radialGradient><radialGradient id="d" cx="0" cy="0" r="1" gradientUnits="userSpaceOnUse" gradientTransform="matrix(0 1.04537 -8.5 0 22.188 28.147)"><stop stop-color="#EEEAF7"/><stop offset="1" stop-color="#EEEBF7" stop-opacity="0"/></radialGradient><radialGradient id="l" cx="0" cy="0" r="1" gradientUnits="userSpaceOnUse" gradientTransform="matrix(.0625 2.47497 -12.00177 .30308 22.688 2.625)"><stop stop-color="#DFDCE8"/><stop offset="1" stop-color="#D4D1DD" stop-opacity="0"/></radialGradient><radialGradient id="m" cx="0" cy="0" r="1" gradientUnits="userSpaceOnUse" gradientTransform="matrix(0 1.0625 -8.5 0 22.188 3.125)"><stop stop-color="#EEEAF7"/><stop offset="1" stop-color="#EEEBF7" stop-opacity="0"/></radialGradient></defs></svg>