<svg width="32" height="32" fill="none" xmlns="http://www.w3.org/2000/svg"><g filter="url(#a)"><path d="M3.962 10.972a1.9 1.9 0 0 0-1.9 1.9v3.467a2 2 0 0 0 1.558 1.95c.211.049.385.222.385.438v8.07a3.2 3.2 0 0 0 3.2 3.2h17.59a3.2 3.2 0 0 0 3.2-3.2v-8.07c0-.216.174-.39.385-.437a2 2 0 0 0 1.558-1.951v-3.467a1.9 1.9 0 0 0-1.9-1.9H3.962Z" fill="url(#b)"/></g><g filter="url(#c)"><path d="M6.389 11.4h17.703v1.247a2 2 0 0 1-2 2H8.389a2 2 0 0 1-2-2V11.4Z" fill="#3F3170"/></g><g filter="url(#d)"><path d="M6.389 25.404a2 2 0 0 0 2 2h13.703a2 2 0 0 0 2-2v-8.757a2 2 0 0 0-2-2H8.389a2 2 0 0 0-2 2v8.757Z" fill="url(#e)"/></g><g filter="url(#f)"><path d="M6.873 16.726c0-.911.739-1.65 1.65-1.65h14.794c.911 0 1.65.739 1.65 1.65v8.669a1.65 1.65 0 0 1-1.65 1.65H8.523a1.65 1.65 0 0 1-1.65-1.65v-8.67Z" fill="#DFD5E9"/><path d="M6.873 16.726c0-.911.739-1.65 1.65-1.65h14.794c.911 0 1.65.739 1.65 1.65v8.669a1.65 1.65 0 0 1-1.65 1.65H8.523a1.65 1.65 0 0 1-1.65-1.65v-8.67Z" fill="url(#g)"/><path d="M6.873 16.726c0-.911.739-1.65 1.65-1.65h14.794c.911 0 1.65.739 1.65 1.65v8.669a1.65 1.65 0 0 1-1.65 1.65H8.523a1.65 1.65 0 0 1-1.65-1.65v-8.67Z" fill="url(#h)"/></g><g filter="url(#i)"><path d="M6.951 3.71c0-.911.74-1.65 1.65-1.65h14.794c.911 0 1.65.739 1.65 1.65v8.669a1.65 1.65 0 0 1-1.65 1.65H8.601a1.65 1.65 0 0 1-1.65-1.65v-8.67Z" fill="#DFD5E9"/><path d="M6.951 3.71c0-.911.74-1.65 1.65-1.65h14.794c.911 0 1.65.739 1.65 1.65v8.669a1.65 1.65 0 0 1-1.65 1.65H8.601a1.65 1.65 0 0 1-1.65-1.65v-8.67Z" fill="url(#j)"/><path d="M6.951 3.71c0-.911.74-1.65 1.65-1.65h14.794c.911 0 1.65.739 1.65 1.65v8.669a1.65 1.65 0 0 1-1.65 1.65H8.601a1.65 1.65 0 0 1-1.65-1.65v-8.67Z" fill="url(#k)"/></g><g filter="url(#l)"><path d="M9.045 4.763a.75.75 0 0 1 .75-.75h4.43a.75.75 0 0 1 .75.75v5.46a.75.75 0 0 1-.75.75h-4.43a.75.75 0 0 1-.75-.75v-5.46Z" fill="url(#m)"/></g><g filter="url(#n)"><path d="M16.951 4.517c0-.278.226-.504.504-.504h5.032a.504.504 0 0 1 0 1.008h-5.032a.504.504 0 0 1-.504-.504Z" fill="url(#o)"/></g><g filter="url(#p)"><path d="M16.951 6.509c0-.278.226-.504.504-.504h5.032a.504.504 0 1 1 0 1.008h-5.032a.504.504 0 0 1-.504-.504Z" fill="url(#q)"/></g><g filter="url(#r)"><path d="M16.951 8.454c0-.278.226-.504.504-.504h5.032a.504.504 0 0 1 0 1.008h-5.032a.504.504 0 0 1-.504-.504Z" fill="url(#s)"/></g><g filter="url(#t)"><path d="M16.951 10.468c0-.278.226-.504.504-.504h5.032a.504.504 0 0 1 0 1.008h-5.032a.504.504 0 0 1-.504-.504Z" fill="url(#u)"/></g><g filter="url(#v)"><circle cx="10.287" cy="16.693" r=".539" fill="#9D8BAE"/></g><g filter="url(#w)"><circle cx="21.241" cy="16.693" r=".539" fill="#9D8BAE"/></g><path d="M10.069 12.45a.5.5 0 0 1 1 0v4.086a.5.5 0 0 1-1 0V12.45Z" fill="url(#x)"/><path d="M20.975 12.45a.5.5 0 1 1 1 0v4.086a.5.5 0 0 1-1 0V12.45Z" fill="url(#y)"/><defs><filter id="a" x="1.862" y="10.722" width="28.325" height="19.474" filterUnits="userSpaceOnUse" color-interpolation-filters="sRGB"><feFlood flood-opacity="0" result="BackgroundImageFix"/><feBlend in="SourceGraphic" in2="BackgroundImageFix" result="shape"/><feColorMatrix in="SourceAlpha" values="0 0 0 0 0 0 0 0 0 0 0 0 0 0 0 0 0 0 127 0" result="hardAlpha"/><feOffset dx=".25" dy="-.25"/><feGaussianBlur stdDeviation=".25"/><feComposite in2="hardAlpha" operator="arithmetic" k2="-1" k3="1"/><feColorMatrix values="0 0 0 0 0.270588 0 0 0 0 0.188235 0 0 0 0 0.376471 0 0 0 1 0"/><feBlend in2="shape" result="effect1_innerShadow_18_22880"/><feColorMatrix in="SourceAlpha" values="0 0 0 0 0 0 0 0 0 0 0 0 0 0 0 0 0 0 127 0" result="hardAlpha"/><feOffset dx="-.2" dy=".2"/><feGaussianBlur stdDeviation=".2"/><feComposite in2="hardAlpha" operator="arithmetic" k2="-1" k3="1"/><feColorMatrix values="0 0 0 0 0.47451 0 0 0 0 0.439216 0 0 0 0 0.713726 0 0 0 1 0"/><feBlend in2="effect1_innerShadow_18_22880" result="effect2_innerShadow_18_22880"/></filter><filter id="c" x="5.639" y="10.651" width="19.203" height="4.746" filterUnits="userSpaceOnUse" color-interpolation-filters="sRGB"><feFlood flood-opacity="0" result="BackgroundImageFix"/><feBlend in="SourceGraphic" in2="BackgroundImageFix" result="shape"/><feGaussianBlur stdDeviation=".375" result="effect1_foregroundBlur_18_22880"/></filter><filter id="d" x="5.639" y="13.897" width="19.203" height="14.257" filterUnits="userSpaceOnUse" color-interpolation-filters="sRGB"><feFlood flood-opacity="0" result="BackgroundImageFix"/><feBlend in="SourceGraphic" in2="BackgroundImageFix" result="shape"/><feGaussianBlur stdDeviation=".375" result="effect1_foregroundBlur_18_22880"/></filter><filter id="f" x="6.773" y="14.976" width="18.294" height="12.169" filterUnits="userSpaceOnUse" color-interpolation-filters="sRGB"><feFlood flood-opacity="0" result="BackgroundImageFix"/><feBlend in="SourceGraphic" in2="BackgroundImageFix" result="shape"/><feColorMatrix in="SourceAlpha" values="0 0 0 0 0 0 0 0 0 0 0 0 0 0 0 0 0 0 127 0" result="hardAlpha"/><feOffset dx=".1" dy="-.1"/><feGaussianBlur stdDeviation=".125"/><feComposite in2="hardAlpha" operator="arithmetic" k2="-1" k3="1"/><feColorMatrix values="0 0 0 0 0.607843 0 0 0 0 0.568627 0 0 0 0 0.666667 0 0 0 1 0"/><feBlend in2="shape" result="effect1_innerShadow_18_22880"/><feColorMatrix in="SourceAlpha" values="0 0 0 0 0 0 0 0 0 0 0 0 0 0 0 0 0 0 127 0" result="hardAlpha"/><feOffset dx="-.1" dy=".1"/><feGaussianBlur stdDeviation=".075"/><feComposite in2="hardAlpha" operator="arithmetic" k2="-1" k3="1"/><feColorMatrix values="0 0 0 0 1 0 0 0 0 1 0 0 0 0 1 0 0 0 1 0"/><feBlend in2="effect1_innerShadow_18_22880" result="effect2_innerShadow_18_22880"/></filter><filter id="i" x="6.851" y="1.96" width="18.294" height="12.169" filterUnits="userSpaceOnUse" color-interpolation-filters="sRGB"><feFlood flood-opacity="0" result="BackgroundImageFix"/><feBlend in="SourceGraphic" in2="BackgroundImageFix" result="shape"/><feColorMatrix in="SourceAlpha" values="0 0 0 0 0 0 0 0 0 0 0 0 0 0 0 0 0 0 127 0" result="hardAlpha"/><feOffset dx=".1" dy="-.1"/><feGaussianBlur stdDeviation=".125"/><feComposite in2="hardAlpha" operator="arithmetic" k2="-1" k3="1"/><feColorMatrix values="0 0 0 0 0.607843 0 0 0 0 0.568627 0 0 0 0 0.666667 0 0 0 1 0"/><feBlend in2="shape" result="effect1_innerShadow_18_22880"/><feColorMatrix in="SourceAlpha" values="0 0 0 0 0 0 0 0 0 0 0 0 0 0 0 0 0 0 127 0" result="hardAlpha"/><feOffset dx="-.1" dy=".1"/><feGaussianBlur stdDeviation=".075"/><feComposite in2="hardAlpha" operator="arithmetic" k2="-1" k3="1"/><feColorMatrix values="0 0 0 0 1 0 0 0 0 1 0 0 0 0 1 0 0 0 1 0"/><feBlend in2="effect1_innerShadow_18_22880" result="effect2_innerShadow_18_22880"/></filter><filter id="l" x="9.045" y="3.963" width="5.98" height="7.009" filterUnits="userSpaceOnUse" color-interpolation-filters="sRGB"><feFlood flood-opacity="0" result="BackgroundImageFix"/><feBlend in="SourceGraphic" in2="BackgroundImageFix" result="shape"/><feColorMatrix in="SourceAlpha" values="0 0 0 0 0 0 0 0 0 0 0 0 0 0 0 0 0 0 127 0" result="hardAlpha"/><feOffset dx=".05" dy="-.05"/><feGaussianBlur stdDeviation=".025"/><feComposite in2="hardAlpha" operator="arithmetic" k2="-1" k3="1"/><feColorMatrix values="0 0 0 0 0.478431 0 0 0 0 0.505882 0 0 0 0 0.717647 0 0 0 1 0"/><feBlend in2="shape" result="effect1_innerShadow_18_22880"/></filter><filter id="n" x="16.951" y="3.963" width="6.089" height="1.058" filterUnits="userSpaceOnUse" color-interpolation-filters="sRGB"><feFlood flood-opacity="0" result="BackgroundImageFix"/><feBlend in="SourceGraphic" in2="BackgroundImageFix" result="shape"/><feColorMatrix in="SourceAlpha" values="0 0 0 0 0 0 0 0 0 0 0 0 0 0 0 0 0 0 127 0" result="hardAlpha"/><feOffset dx=".05" dy="-.05"/><feGaussianBlur stdDeviation=".05"/><feComposite in2="hardAlpha" operator="arithmetic" k2="-1" k3="1"/><feColorMatrix values="0 0 0 0 0.592157 0 0 0 0 0.545098 0 0 0 0 0.639216 0 0 0 1 0"/><feBlend in2="shape" result="effect1_innerShadow_18_22880"/></filter><filter id="p" x="16.951" y="5.955" width="6.089" height="1.058" filterUnits="userSpaceOnUse" color-interpolation-filters="sRGB"><feFlood flood-opacity="0" result="BackgroundImageFix"/><feBlend in="SourceGraphic" in2="BackgroundImageFix" result="shape"/><feColorMatrix in="SourceAlpha" values="0 0 0 0 0 0 0 0 0 0 0 0 0 0 0 0 0 0 127 0" result="hardAlpha"/><feOffset dx=".05" dy="-.05"/><feGaussianBlur stdDeviation=".05"/><feComposite in2="hardAlpha" operator="arithmetic" k2="-1" k3="1"/><feColorMatrix values="0 0 0 0 0.592157 0 0 0 0 0.545098 0 0 0 0 0.639216 0 0 0 1 0"/><feBlend in2="shape" result="effect1_innerShadow_18_22880"/></filter><filter id="r" x="16.951" y="7.9" width="6.089" height="1.058" filterUnits="userSpaceOnUse" color-interpolation-filters="sRGB"><feFlood flood-opacity="0" result="BackgroundImageFix"/><feBlend in="SourceGraphic" in2="BackgroundImageFix" result="shape"/><feColorMatrix in="SourceAlpha" values="0 0 0 0 0 0 0 0 0 0 0 0 0 0 0 0 0 0 127 0" result="hardAlpha"/><feOffset dx=".05" dy="-.05"/><feGaussianBlur stdDeviation=".05"/><feComposite in2="hardAlpha" operator="arithmetic" k2="-1" k3="1"/><feColorMatrix values="0 0 0 0 0.592157 0 0 0 0 0.545098 0 0 0 0 0.639216 0 0 0 1 0"/><feBlend in2="shape" result="effect1_innerShadow_18_22880"/></filter><filter id="t" x="16.951" y="9.914" width="6.089" height="1.058" filterUnits="userSpaceOnUse" color-interpolation-filters="sRGB"><feFlood flood-opacity="0" result="BackgroundImageFix"/><feBlend in="SourceGraphic" in2="BackgroundImageFix" result="shape"/><feColorMatrix in="SourceAlpha" values="0 0 0 0 0 0 0 0 0 0 0 0 0 0 0 0 0 0 127 0" result="hardAlpha"/><feOffset dx=".05" dy="-.05"/><feGaussianBlur stdDeviation=".05"/><feComposite in2="hardAlpha" operator="arithmetic" k2="-1" k3="1"/><feColorMatrix values="0 0 0 0 0.592157 0 0 0 0 0.545098 0 0 0 0 0.639216 0 0 0 1 0"/><feBlend in2="shape" result="effect1_innerShadow_18_22880"/></filter><filter id="v" x="9.348" y="15.754" width="1.878" height="1.878" filterUnits="userSpaceOnUse" color-interpolation-filters="sRGB"><feFlood flood-opacity="0" result="BackgroundImageFix"/><feBlend in="SourceGraphic" in2="BackgroundImageFix" result="shape"/><feGaussianBlur stdDeviation=".2" result="effect1_foregroundBlur_18_22880"/></filter><filter id="w" x="20.301" y="15.754" width="1.878" height="1.878" filterUnits="userSpaceOnUse" color-interpolation-filters="sRGB"><feFlood flood-opacity="0" result="BackgroundImageFix"/><feBlend in="SourceGraphic" in2="BackgroundImageFix" result="shape"/><feGaussianBlur stdDeviation=".2" result="effect1_foregroundBlur_18_22880"/></filter><linearGradient id="b" x1="16" y1="10.972" x2="16" y2="29.372" gradientUnits="userSpaceOnUse"><stop stop-color="#5A4D99"/><stop offset="1" stop-color="#583F79"/></linearGradient><linearGradient id="e" x1="15.241" y1="14.647" x2="15.241" y2="27.404" gradientUnits="userSpaceOnUse"><stop stop-color="#402A5D"/><stop offset="1" stop-color="#3F2E62"/></linearGradient><linearGradient id="m" x1="12.01" y1="4.013" x2="12.01" y2="10.972" gradientUnits="userSpaceOnUse"><stop stop-color="#3EADFF"/><stop offset="1" stop-color="#3E82D6"/></linearGradient><linearGradient id="o" x1="19.971" y1="4.013" x2="19.971" y2="5.021" gradientUnits="userSpaceOnUse"><stop stop-color="#A69EAE"/><stop offset="1" stop-color="#A69EAE"/></linearGradient><linearGradient id="q" x1="19.971" y1="6.005" x2="19.971" y2="7.013" gradientUnits="userSpaceOnUse"><stop stop-color="#A69EAE"/><stop offset="1" stop-color="#A69EAE"/></linearGradient><linearGradient id="s" x1="19.971" y1="7.95" x2="19.971" y2="8.958" gradientUnits="userSpaceOnUse"><stop stop-color="#A69EAE"/><stop offset="1" stop-color="#A69EAE"/></linearGradient><linearGradient id="u" x1="19.971" y1="9.964" x2="19.971" y2="10.972" gradientUnits="userSpaceOnUse"><stop stop-color="#A69EAE"/><stop offset="1" stop-color="#A69EAE"/></linearGradient><radialGradient id="g" cx="0" cy="0" r="1" gradientUnits="userSpaceOnUse" gradientTransform="rotate(-116.569 9.858 4.983) scale(2.55015 .82411)"><stop stop-color="#C0B2CF"/><stop offset="1" stop-color="#E0D6EA" stop-opacity="0"/></radialGradient><radialGradient id="h" cx="0" cy="0" r="1" gradientUnits="userSpaceOnUse" gradientTransform="matrix(-.6875 -1.59375 .51504 -.22217 20.858 16.122)"><stop offset=".137" stop-color="#C0B2CF"/><stop offset="1" stop-color="#E0D6EA" stop-opacity="0"/></radialGradient><radialGradient id="j" cx="0" cy="0" r="1" gradientUnits="userSpaceOnUse" gradientTransform="rotate(113.015 6.223 13.495) scale(1.91832 .93108)"><stop offset=".134" stop-color="#998BA6"/><stop offset="1" stop-color="#E0D6E9" stop-opacity="0"/></radialGradient><radialGradient id="k" cx="0" cy="0" r="1" gradientUnits="userSpaceOnUse" gradientTransform="rotate(117.588 1.136 9.582) scale(1.95687 .94979)"><stop offset=".174" stop-color="#998BA6"/><stop offset="1" stop-color="#E0D6E9" stop-opacity="0"/></radialGradient><radialGradient id="x" cx="0" cy="0" r="1" gradientUnits="userSpaceOnUse" gradientTransform="matrix(0 3.125 -.80618 0 11.069 13.685)"><stop offset=".202" stop-color="#433E58"/><stop offset="1" stop-color="#2C2242"/></radialGradient><radialGradient id="y" cx="0" cy="0" r="1" gradientUnits="userSpaceOnUse" gradientTransform="matrix(0 3.125 -.80618 0 21.975 13.685)"><stop offset=".202" stop-color="#433E58"/><stop offset="1" stop-color="#2C2242"/></radialGradient></defs></svg>