<svg width="32" height="32" fill="none" xmlns="http://www.w3.org/2000/svg"><g filter="url(#a)"><path d="M15.594 2.387c-1.15 2.574-2.928 6.21-3.092 6.566h6.995l-3.083-6.566c-.174-.389-.646-.389-.82 0Z" fill="#E0215D"/><path d="M15.594 2.387c-1.15 2.574-2.928 6.21-3.092 6.566h6.995l-3.083-6.566c-.174-.389-.646-.389-.82 0Z" fill="url(#b)"/><path d="M15.594 2.387c-1.15 2.574-2.928 6.21-3.092 6.566h6.995l-3.083-6.566c-.174-.389-.646-.389-.82 0Z" fill="url(#c)"/></g><g filter="url(#d)"><path d="M12.53 7.016a.5.5 0 0 0-.5.5v3.71a.9.9 0 0 0 .9.9h6.144a.9.9 0 0 0 .9-.9v-3.71a.5.5 0 0 0-.5-.5h-.593a.5.5 0 0 0-.5.5v.147a.5.5 0 0 1-.5.5h-.583a.5.5 0 0 1-.5-.5v-.147a.5.5 0 0 0-.5-.5h-.593a.5.5 0 0 0-.5.5v.147a.5.5 0 0 1-.5.5h-.582a.5.5 0 0 1-.5-.5v-.147a.5.5 0 0 0-.5-.5h-.593Z" fill="url(#e)"/></g><g filter="url(#f)"><path d="M12.095 13.326a1.2 1.2 0 0 1 1.2-1.2h5.414a1.2 1.2 0 0 1 1.2 1.2v9.647h-7.814v-9.646Z" fill="url(#g)"/><path d="M12.095 13.326a1.2 1.2 0 0 1 1.2-1.2h5.414a1.2 1.2 0 0 1 1.2 1.2v9.647h-7.814v-9.646Z" fill="url(#h)"/></g><path d="M16.765 14h-1.536v-.906c0-.421.342-.773.773-.773.42 0 .773.342.773.773V14h-.01Z" fill="url(#i)"/><g filter="url(#j)"><path d="M23.288 10.183a3064.425 3064.425 0 0 1-3.702 9.074l8.647.132-3.74-9.205a.65.65 0 0 0-1.205-.001Z" fill="#E0215D"/><path d="M23.288 10.183a3064.425 3064.425 0 0 1-3.702 9.074l8.647.132-3.74-9.205a.65.65 0 0 0-1.205-.001Z" fill="url(#k)"/></g><g filter="url(#l)"><path d="M7.473 10.183a3078.06 3078.06 0 0 1-3.702 9.074l8.647.132-3.74-9.205a.65.65 0 0 0-1.205-.001Z" fill="#E0215D"/><path d="M7.473 10.183a3078.06 3078.06 0 0 1-3.702 9.074l8.647.132-3.74-9.205a.65.65 0 0 0-1.205-.001Z" fill="url(#m)"/><path d="M7.473 10.183a3078.06 3078.06 0 0 1-3.702 9.074l8.647.132-3.74-9.205a.65.65 0 0 0-1.205-.001Z" fill="url(#n)"/><path d="M7.473 10.183a3078.06 3078.06 0 0 1-3.702 9.074l8.647.132-3.74-9.205a.65.65 0 0 0-1.205-.001Z" fill="url(#o)"/><path d="M7.473 10.183a3078.06 3078.06 0 0 1-3.702 9.074l8.647.132-3.74-9.205a.65.65 0 0 0-1.205-.001Z" fill="url(#p)"/></g><g filter="url(#q)"><path d="m8.156 10.503.444 8.668h1.908l-2.352-8.668Z" fill="#E8406D"/></g><path d="M7.576 7.268v2.198c0 .107.108.18.206.14l2.633-1.077a.15.15 0 0 0 .002-.277L7.784 7.13a.15.15 0 0 0-.208.138Z" fill="url(#r)"/><path d="M7.576 7.268v2.198c0 .107.108.18.206.14l2.633-1.077a.15.15 0 0 0 .002-.277L7.784 7.13a.15.15 0 0 0-.208.138Z" fill="url(#s)"/><path d="M23.482 7.223v2.198c0 .107.108.18.207.139l2.632-1.076a.15.15 0 0 0 .002-.277L23.69 7.085a.15.15 0 0 0-.208.138Z" fill="url(#t)"/><path d="M23.482 7.223v2.198c0 .107.108.18.207.139l2.632-1.076a.15.15 0 0 0 .002-.277L23.69 7.085a.15.15 0 0 0-.208.138Z" fill="url(#u)"/><g filter="url(#v)"><path d="M3.357 18.094a.5.5 0 0 0-.5.5v11.351h26.29V18.594a.5.5 0 0 0-.5-.5h-.579a.5.5 0 0 0-.5.5v.125a.5.5 0 0 1-.5.5h-.51a.5.5 0 0 1-.5-.5v-.125a.5.5 0 0 0-.5-.5h-.579a.5.5 0 0 0-.5.5v.125a.5.5 0 0 1-.5.5h-.51a.5.5 0 0 1-.5-.5v-.125a.5.5 0 0 0-.5-.5h-.579a.5.5 0 0 0-.5.5v.125a.5.5 0 0 1-.5.5h-.51a.5.5 0 0 1-.5-.5v-.125a.5.5 0 0 0-.5-.5h-.578a.5.5 0 0 0-.5.5v.125a.5.5 0 0 1-.5.5h-.511a.5.5 0 0 1-.5-.5v-.125a.5.5 0 0 0-.5-.5h-.578a.5.5 0 0 0-.5.5v.125a.5.5 0 0 1-.5.5h-.511a.5.5 0 0 1-.5-.5v-.125a.5.5 0 0 0-.5-.5h-.578a.5.5 0 0 0-.5.5v.125a.5.5 0 0 1-.5.5h-.511a.5.5 0 0 1-.5-.5v-.125a.5.5 0 0 0-.5-.5h-.578a.5.5 0 0 0-.5.5v.125a.5.5 0 0 1-.5.5h-.51a.5.5 0 0 1-.5-.5v-.125a.5.5 0 0 0-.5-.5h-.579a.5.5 0 0 0-.5.5v.125a.5.5 0 0 1-.5.5h-.51a.5.5 0 0 1-.5-.5v-.125a.5.5 0 0 0-.5-.5h-.579Z" fill="url(#w)"/></g><g filter="url(#x)"><path d="M12.686 26.72a3.314 3.314 0 0 1 6.628 0v2.936h-6.628V26.72Z" fill="#C2ADD6"/></g><path d="M12.938 26.781a3.062 3.062 0 0 1 6.125 0v3.172h-6.125v-3.172Z" fill="url(#y)"/><g filter="url(#z)"><path d="M7.849 8.367h2.578L7.849 7.75v.617Z" fill="url(#A)"/></g><g filter="url(#B)"><path d="M23.719 8.367h2.578L23.72 7.75v.617Z" fill="url(#C)"/></g><defs><linearGradient id="b" x1="18.44" y1="7.451" x2="15.476" y2="7.625" gradientUnits="userSpaceOnUse"><stop stop-color="#FF548E"/><stop offset="1" stop-color="#FF548E" stop-opacity="0"/></linearGradient><linearGradient id="c" x1="16.32" y1="8.37" x2="16.32" y2="7.153" gradientUnits="userSpaceOnUse"><stop stop-color="#D6214D"/><stop offset="1" stop-color="#D6214D" stop-opacity="0"/></linearGradient><linearGradient id="e" x1="12.859" y1="10.52" x2="19.974" y2="10.52" gradientUnits="userSpaceOnUse"><stop stop-color="#CCBAC2"/><stop offset="1" stop-color="#D6C3CC"/></linearGradient><linearGradient id="g" x1="12.91" y1="19.563" x2="19.909" y2="19.563" gradientUnits="userSpaceOnUse"><stop stop-color="#CAB7BD"/><stop offset="1" stop-color="#D2C1C5"/></linearGradient><linearGradient id="h" x1="14.357" y1="19.844" x2="14.357" y2="17.094" gradientUnits="userSpaceOnUse"><stop stop-color="#9E9598"/><stop offset="1" stop-color="#9E9598" stop-opacity="0"/></linearGradient><linearGradient id="k" x1="26.926" y1="17.285" x2="23.259" y2="17.474" gradientUnits="userSpaceOnUse"><stop stop-color="#FF548E"/><stop offset="1" stop-color="#FF548E" stop-opacity="0"/></linearGradient><linearGradient id="m" x1="9.192" y1="20.717" x2="9.192" y2="18.085" gradientUnits="userSpaceOnUse"><stop stop-color="#B51A44"/><stop offset="1" stop-color="#B51A44" stop-opacity="0"/></linearGradient><linearGradient id="n" x1="11.824" y1="17.132" x2="8.929" y2="17.691" gradientUnits="userSpaceOnUse"><stop stop-color="#B51A44"/><stop offset="1" stop-color="#B51A44" stop-opacity="0"/></linearGradient><linearGradient id="o" x1="11.686" y1="16.968" x2="10.78" y2="17.318" gradientUnits="userSpaceOnUse"><stop stop-color="#C75A6C"/><stop offset="1" stop-color="#C75A6C" stop-opacity="0"/></linearGradient><linearGradient id="p" x1="8.094" y1="9.778" x2="8.094" y2="12.996" gradientUnits="userSpaceOnUse"><stop stop-color="#C31C31"/><stop offset="1" stop-color="#C31C31" stop-opacity="0"/></linearGradient><linearGradient id="r" x1="7.919" y1="8.987" x2="10.78" y2="8.987" gradientUnits="userSpaceOnUse"><stop stop-color="#36BAE4"/><stop offset="1" stop-color="#2272B6"/></linearGradient><linearGradient id="s" x1="7.576" y1="8.47" x2="7.865" y2="8.47" gradientUnits="userSpaceOnUse"><stop stop-color="#2CA5CA"/><stop offset=".806" stop-color="#2CA2C8" stop-opacity="0"/></linearGradient><linearGradient id="t" x1="23.825" y1="8.941" x2="26.686" y2="8.941" gradientUnits="userSpaceOnUse"><stop stop-color="#38BEE9"/><stop offset="1" stop-color="#2272B6"/></linearGradient><linearGradient id="u" x1="23.482" y1="8.425" x2="23.771" y2="8.425" gradientUnits="userSpaceOnUse"><stop stop-color="#2CA5CA"/><stop offset=".806" stop-color="#2CA2C8" stop-opacity="0"/></linearGradient><linearGradient id="w" x1="16.002" y1="18.094" x2="16.002" y2="29.945" gradientUnits="userSpaceOnUse"><stop stop-color="#CEBBC6"/><stop offset="1" stop-color="#D7C2DD"/></linearGradient><linearGradient id="A" x1="10.279" y1="8.445" x2="6.068" y2="8.445" gradientUnits="userSpaceOnUse"><stop offset=".49" stop-color="#57C1E3"/><stop offset="1" stop-color="#57C1E3" stop-opacity="0"/></linearGradient><linearGradient id="C" x1="26.149" y1="8.445" x2="21.938" y2="8.445" gradientUnits="userSpaceOnUse"><stop offset=".49" stop-color="#57C1E3"/><stop offset="1" stop-color="#57C1E3" stop-opacity="0"/></linearGradient><filter id="a" x="12.502" y="2.095" width="7.495" height="6.858" filterUnits="userSpaceOnUse" color-interpolation-filters="sRGB"><feFlood flood-opacity="0" result="BackgroundImageFix"/><feBlend in="SourceGraphic" in2="BackgroundImageFix" result="shape"/><feColorMatrix in="SourceAlpha" values="0 0 0 0 0 0 0 0 0 0 0 0 0 0 0 0 0 0 127 0" result="hardAlpha"/><feOffset dx=".5"/><feGaussianBlur stdDeviation=".5"/><feComposite in2="hardAlpha" operator="arithmetic" k2="-1" k3="1"/><feColorMatrix values="0 0 0 0 0.831373 0 0 0 0 0.160784 0 0 0 0 0.239216 0 0 0 1 0"/><feBlend in2="shape" result="effect1_innerShadow_18_6868"/></filter><filter id="d" x="11.78" y="7.016" width="8.443" height="5.11" filterUnits="userSpaceOnUse" color-interpolation-filters="sRGB"><feFlood flood-opacity="0" result="BackgroundImageFix"/><feBlend in="SourceGraphic" in2="BackgroundImageFix" result="shape"/><feColorMatrix in="SourceAlpha" values="0 0 0 0 0 0 0 0 0 0 0 0 0 0 0 0 0 0 127 0" result="hardAlpha"/><feOffset dx="-.25"/><feGaussianBlur stdDeviation=".125"/><feComposite in2="hardAlpha" operator="arithmetic" k2="-1" k3="1"/><feColorMatrix values="0 0 0 0 0.862745 0 0 0 0 0.827451 0 0 0 0 0.843137 0 0 0 1 0"/><feBlend in2="shape" result="effect1_innerShadow_18_6868"/><feColorMatrix in="SourceAlpha" values="0 0 0 0 0 0 0 0 0 0 0 0 0 0 0 0 0 0 127 0" result="hardAlpha"/><feOffset dx=".25"/><feGaussianBlur stdDeviation=".3"/><feComposite in2="hardAlpha" operator="arithmetic" k2="-1" k3="1"/><feColorMatrix values="0 0 0 0 0.678431 0 0 0 0 0.588235 0 0 0 0 0.619608 0 0 0 1 0"/><feBlend in2="effect1_innerShadow_18_6868" result="effect2_innerShadow_18_6868"/></filter><filter id="f" x="11.595" y="12.127" width="8.815" height="10.847" filterUnits="userSpaceOnUse" color-interpolation-filters="sRGB"><feFlood flood-opacity="0" result="BackgroundImageFix"/><feBlend in="SourceGraphic" in2="BackgroundImageFix" result="shape"/><feColorMatrix in="SourceAlpha" values="0 0 0 0 0 0 0 0 0 0 0 0 0 0 0 0 0 0 127 0" result="hardAlpha"/><feOffset dx="-.5"/><feGaussianBlur stdDeviation=".375"/><feComposite in2="hardAlpha" operator="arithmetic" k2="-1" k3="1"/><feColorMatrix values="0 0 0 0 0.862745 0 0 0 0 0.827451 0 0 0 0 0.843137 0 0 0 1 0"/><feBlend in2="shape" result="effect1_innerShadow_18_6868"/><feColorMatrix in="SourceAlpha" values="0 0 0 0 0 0 0 0 0 0 0 0 0 0 0 0 0 0 127 0" result="hardAlpha"/><feOffset dx=".5"/><feGaussianBlur stdDeviation=".5"/><feComposite in2="hardAlpha" operator="arithmetic" k2="-1" k3="1"/><feColorMatrix values="0 0 0 0 0.607843 0 0 0 0 0.505882 0 0 0 0 0.537255 0 0 0 1 0"/><feBlend in2="effect1_innerShadow_18_6868" result="effect2_innerShadow_18_6868"/></filter><filter id="j" x="19.586" y="9.778" width="9.147" height="9.612" filterUnits="userSpaceOnUse" color-interpolation-filters="sRGB"><feFlood flood-opacity="0" result="BackgroundImageFix"/><feBlend in="SourceGraphic" in2="BackgroundImageFix" result="shape"/><feColorMatrix in="SourceAlpha" values="0 0 0 0 0 0 0 0 0 0 0 0 0 0 0 0 0 0 127 0" result="hardAlpha"/><feOffset dx=".5"/><feGaussianBlur stdDeviation=".5"/><feComposite in2="hardAlpha" operator="arithmetic" k2="-1" k3="1"/><feColorMatrix values="0 0 0 0 0.831373 0 0 0 0 0.160784 0 0 0 0 0.239216 0 0 0 1 0"/><feBlend in2="shape" result="effect1_innerShadow_18_6868"/></filter><filter id="l" x="3.771" y="9.778" width="9.147" height="9.612" filterUnits="userSpaceOnUse" color-interpolation-filters="sRGB"><feFlood flood-opacity="0" result="BackgroundImageFix"/><feBlend in="SourceGraphic" in2="BackgroundImageFix" result="shape"/><feColorMatrix in="SourceAlpha" values="0 0 0 0 0 0 0 0 0 0 0 0 0 0 0 0 0 0 127 0" result="hardAlpha"/><feOffset dx=".5"/><feGaussianBlur stdDeviation=".5"/><feComposite in2="hardAlpha" operator="arithmetic" k2="-1" k3="1"/><feColorMatrix values="0 0 0 0 0.713726 0 0 0 0 0.270588 0 0 0 0 0.376471 0 0 0 1 0"/><feBlend in2="shape" result="effect1_innerShadow_18_6868"/></filter><filter id="q" x="7.656" y="10.003" width="3.352" height="9.668" filterUnits="userSpaceOnUse" color-interpolation-filters="sRGB"><feFlood flood-opacity="0" result="BackgroundImageFix"/><feBlend in="SourceGraphic" in2="BackgroundImageFix" result="shape"/><feGaussianBlur stdDeviation=".25" result="effect1_foregroundBlur_18_6868"/></filter><filter id="v" x="2.707" y="18.094" width="26.689" height="11.852" filterUnits="userSpaceOnUse" color-interpolation-filters="sRGB"><feFlood flood-opacity="0" result="BackgroundImageFix"/><feBlend in="SourceGraphic" in2="BackgroundImageFix" result="shape"/><feColorMatrix in="SourceAlpha" values="0 0 0 0 0 0 0 0 0 0 0 0 0 0 0 0 0 0 127 0" result="hardAlpha"/><feOffset dx=".25"/><feGaussianBlur stdDeviation=".25"/><feComposite in2="hardAlpha" operator="arithmetic" k2="-1" k3="1"/><feColorMatrix values="0 0 0 0 0.678431 0 0 0 0 0.631373 0 0 0 0 0.678431 0 0 0 1 0"/><feBlend in2="shape" result="effect1_innerShadow_18_6868"/><feColorMatrix in="SourceAlpha" values="0 0 0 0 0 0 0 0 0 0 0 0 0 0 0 0 0 0 127 0" result="hardAlpha"/><feOffset dx="-.15"/><feGaussianBlur stdDeviation=".15"/><feComposite in2="hardAlpha" operator="arithmetic" k2="-1" k3="1"/><feColorMatrix values="0 0 0 0 0.854902 0 0 0 0 0.831373 0 0 0 0 0.917647 0 0 0 1 0"/><feBlend in2="effect1_innerShadow_18_6868" result="effect2_innerShadow_18_6868"/></filter><filter id="x" x="12.186" y="22.906" width="7.628" height="7.25" filterUnits="userSpaceOnUse" color-interpolation-filters="sRGB"><feFlood flood-opacity="0" result="BackgroundImageFix"/><feBlend in="SourceGraphic" in2="BackgroundImageFix" result="shape"/><feGaussianBlur stdDeviation=".25" result="effect1_foregroundBlur_18_6868"/></filter><filter id="z" x="7.599" y="7.5" width="3.078" height="1.117" filterUnits="userSpaceOnUse" color-interpolation-filters="sRGB"><feFlood flood-opacity="0" result="BackgroundImageFix"/><feBlend in="SourceGraphic" in2="BackgroundImageFix" result="shape"/><feGaussianBlur stdDeviation=".125" result="effect1_foregroundBlur_18_6868"/></filter><filter id="B" x="23.469" y="7.5" width="3.078" height="1.117" filterUnits="userSpaceOnUse" color-interpolation-filters="sRGB"><feFlood flood-opacity="0" result="BackgroundImageFix"/><feBlend in="SourceGraphic" in2="BackgroundImageFix" result="shape"/><feGaussianBlur stdDeviation=".125" result="effect1_foregroundBlur_18_6868"/></filter><radialGradient id="i" cx="0" cy="0" r="1" gradientUnits="userSpaceOnUse" gradientTransform="matrix(0 -1.37634 1.8878 0 16.002 14)"><stop stop-color="#6A20F4"/><stop offset="1" stop-color="#4200BB"/></radialGradient><radialGradient id="y" cx="0" cy="0" r="1" gradientUnits="userSpaceOnUse" gradientTransform="matrix(0 -5.10938 7.48173 0 16 29.953)"><stop stop-color="#6A20F4"/><stop offset="1" stop-color="#4200BB"/></radialGradient></defs></svg>