<svg xmlns="http://www.w3.org/2000/svg" fill="none" viewBox="0 0 32 32"><g filter="url(#chequered-flag_svg__a)"><rect width="28" height="20" x="2.19" y="6" fill="url(#chequered-flag_svg__b)" rx="2"/></g><path fill="url(#chequered-flag_svg__c)" d="M18.19 14v4h4v-4z"/><path fill="url(#chequered-flag_svg__d)" d="M6.19 6h-3a1 1 0 0 0-1 1v3h4v4h-4v4h4v4h-4v3a1 1 0 0 0 1 1h3v-4h4v4h4v-4h4v4h4v-4h4v4h3a1 1 0 0 0 1-1v-3h-4v-4h4v-4h-4v-4h4V7a1 1 0 0 0-1-1h-3v4h-4V6h-4v4h-4V6h-4v4h-4zm4 8v-4h4v4zm0 4h4v-4h4v-4h4v4h4v4h-4v4h-4v-4h-4v4h-4zm0 0h-4v-4h4z"/><path fill="url(#chequered-flag_svg__e)" d="M3.19 6h3v4h4V6h4v4h4V6h4v4h4V6h3a1 1 0 0 1 1 1v3h-28V7a1 1 0 0 1 1-1"/><path fill="url(#chequered-flag_svg__f)" d="M26.19 26V6h3a1 1 0 0 1 1 1v3h-4v4h4v4h-4v4h4v3a1 1 0 0 1-1 1z"/><defs><linearGradient id="chequered-flag_svg__b" x1="16.19" x2="16.19" y1="6" y2="26" gradientUnits="userSpaceOnUse"><stop stop-color="#F5EEFE"/><stop offset="1" stop-color="#F2E4FF"/></linearGradient><linearGradient id="chequered-flag_svg__c" x1="16.19" x2="16.19" y1="6" y2="26" gradientUnits="userSpaceOnUse"><stop stop-color="#353138"/><stop offset="1" stop-color="#36323C"/></linearGradient><linearGradient id="chequered-flag_svg__d" x1="16.19" x2="16.19" y1="6" y2="26" gradientUnits="userSpaceOnUse"><stop stop-color="#353138"/><stop offset="1" stop-color="#36323C"/></linearGradient><linearGradient id="chequered-flag_svg__e" x1="16.19" x2="16.19" y1="6" y2="7.557" gradientUnits="userSpaceOnUse"><stop stop-color="#39383A"/><stop offset="1" stop-color="#39383A" stop-opacity="0"/></linearGradient><linearGradient id="chequered-flag_svg__f" x1="30.435" x2="29.107" y1="25.154" y2="25.154" gradientUnits="userSpaceOnUse"><stop offset=".476" stop-color="#4A494C"/><stop offset="1" stop-color="#4A494C" stop-opacity="0"/></linearGradient><filter id="chequered-flag_svg__a" width="29" height="21" x="1.69" y="5.5" color-interpolation-filters="sRGB" filterUnits="userSpaceOnUse"><feFlood flood-opacity="0" result="BackgroundImageFix"/><feBlend in="SourceGraphic" in2="BackgroundImageFix" result="shape"/><feColorMatrix in="SourceAlpha" result="hardAlpha" values="0 0 0 0 0 0 0 0 0 0 0 0 0 0 0 0 0 0 127 0"/><feOffset dx=".5" dy="-.5"/><feGaussianBlur stdDeviation=".5"/><feComposite in2="hardAlpha" k2="-1" k3="1" operator="arithmetic"/><feColorMatrix values="0 0 0 0 0.894118 0 0 0 0 0.819608 0 0 0 0 0.976471 0 0 0 1 0"/><feBlend in2="shape" result="effect1_innerShadow_4_7833"/><feColorMatrix in="SourceAlpha" result="hardAlpha" values="0 0 0 0 0 0 0 0 0 0 0 0 0 0 0 0 0 0 127 0"/><feOffset dx="-.5" dy=".5"/><feGaussianBlur stdDeviation=".5"/><feComposite in2="hardAlpha" k2="-1" k3="1" operator="arithmetic"/><feColorMatrix values="0 0 0 0 1 0 0 0 0 1 0 0 0 0 1 0 0 0 1 0"/><feBlend in2="effect1_innerShadow_4_7833" result="effect2_innerShadow_4_7833"/></filter></defs></svg>