<svg width="32" height="32" fill="none" xmlns="http://www.w3.org/2000/svg"><path d="m9.716 17.046-.78-.39a.49.49 0 0 1-.27-.43v-.99c0-.45-.39-.79-.84-.73-2.16.3-4.02 1.73-4.85 3.79l-.29.72c-.15.38-.02.79.27 1.09.98.97 2.86 1.89 4.5 1.89h3.29v-3.28c0-.71-.4-1.36-1.03-1.67Z" fill="url(#a)"/><path d="M2.976 20.106c.96.97 2.84 1.89 4.48 1.89h3.29v-1.26l-.51-1.1h-7.55c.05.17.15.33.29.47Z" fill="url(#b)"/><path d="M2.976 20.106c.96.97 2.84 1.89 4.48 1.89h3.29v-1.26l-.51-1.1h-7.55c.05.17.15.33.29.47Z" fill="url(#c)"/><path d="M20.356 11.416v.44l3.11-3.11c2.44-2.44.81-6.67-2.64-6.75h-.14a4.72 4.72 0 0 0-3 1.1c-.64.54-1.54.67-2.3.33-.48-.21-1.01-.33-1.57-.33-2.14 0-3.87 1.73-3.87 3.87v.01c0 .34-.22.64-.55.74a3.878 3.878 0 0 0-2.76 3.89c.09 1.98 1.7 3.6 3.68 3.69a3.872 3.872 0 0 0 4-4.49c1.01-.13 1.9-.66 2.51-1.41.8 1.13 2.07 1.91 3.53 2.02Z" fill="url(#d)"/><path d="M20.356 11.416v.44l3.11-3.11c2.44-2.44.81-6.67-2.64-6.75h-.14a4.72 4.72 0 0 0-3 1.1c-.64.54-1.54.67-2.3.33-.48-.21-1.01-.33-1.57-.33-2.14 0-3.87 1.73-3.87 3.87v.01c0 .34-.22.64-.55.74a3.878 3.878 0 0 0-2.76 3.89c.09 1.98 1.7 3.6 3.68 3.69a3.872 3.872 0 0 0 4-4.49c1.01-.13 1.9-.66 2.51-1.41.8 1.13 2.07 1.91 3.53 2.02Z" fill="url(#e)"/><g filter="url(#f)"><circle cx="13.953" cy="7.019" r="3.311" fill="url(#g)"/></g><path d="M7.626 25.396v-3.4h-.9c-.62 0-1.17.37-1.41.94l-.77 1.84c-.43 1.06.34 2.22 1.48 2.22.89 0 1.6-.72 1.6-1.6Z" fill="url(#h)"/><g filter="url(#i)"><path d="m29.016 26.666-2.65-11.88c-.85-4.46-4.85-7.79-9.6-7.58-5.13.22-9.14 4.52-9.14 9.65v10.34c0 1.52 1.21 2.79 2.73 2.8.94.01 1.77-.46 2.28-1.18.2-.28.61-.28.8 0 .5.71 1.32 1.18 2.26 1.18.93 0 1.76-.47 2.26-1.18.2-.28.61-.28.8 0 .5.71 1.32 1.18 2.26 1.18.93 0 1.76-.47 2.26-1.18.2-.28.61-.28.8 0 .5.71 1.32 1.18 2.26 1.18 1.52 0 2.75-1.23 2.75-2.75-.01-.2-.03-.4-.07-.58Z" fill="#DDD2E8"/><path d="m29.016 26.666-2.65-11.88c-.85-4.46-4.85-7.79-9.6-7.58-5.13.22-9.14 4.52-9.14 9.65v10.34c0 1.52 1.21 2.79 2.73 2.8.94.01 1.77-.46 2.28-1.18.2-.28.61-.28.8 0 .5.71 1.32 1.18 2.26 1.18.93 0 1.76-.47 2.26-1.18.2-.28.61-.28.8 0 .5.71 1.32 1.18 2.26 1.18.93 0 1.76-.47 2.26-1.18.2-.28.61-.28.8 0 .5.71 1.32 1.18 2.26 1.18 1.52 0 2.75-1.23 2.75-2.75-.01-.2-.03-.4-.07-.58Z" fill="url(#j)"/><path d="m29.016 26.666-2.65-11.88c-.85-4.46-4.85-7.79-9.6-7.58-5.13.22-9.14 4.52-9.14 9.65v10.34c0 1.52 1.21 2.79 2.73 2.8.94.01 1.77-.46 2.28-1.18.2-.28.61-.28.8 0 .5.71 1.32 1.18 2.26 1.18.93 0 1.76-.47 2.26-1.18.2-.28.61-.28.8 0 .5.71 1.32 1.18 2.26 1.18.93 0 1.76-.47 2.26-1.18.2-.28.61-.28.8 0 .5.71 1.32 1.18 2.26 1.18 1.52 0 2.75-1.23 2.75-2.75-.01-.2-.03-.4-.07-.58Z" fill="url(#k)"/><path d="m29.016 26.666-2.65-11.88c-.85-4.46-4.85-7.79-9.6-7.58-5.13.22-9.14 4.52-9.14 9.65v10.34c0 1.52 1.21 2.79 2.73 2.8.94.01 1.77-.46 2.28-1.18.2-.28.61-.28.8 0 .5.71 1.32 1.18 2.26 1.18.93 0 1.76-.47 2.26-1.18.2-.28.61-.28.8 0 .5.71 1.32 1.18 2.26 1.18.93 0 1.76-.47 2.26-1.18.2-.28.61-.28.8 0 .5.71 1.32 1.18 2.26 1.18 1.52 0 2.75-1.23 2.75-2.75-.01-.2-.03-.4-.07-.58Z" fill="url(#l)"/><path d="m29.016 26.666-2.65-11.88c-.85-4.46-4.85-7.79-9.6-7.58-5.13.22-9.14 4.52-9.14 9.65v10.34c0 1.52 1.21 2.79 2.73 2.8.94.01 1.77-.46 2.28-1.18.2-.28.61-.28.8 0 .5.71 1.32 1.18 2.26 1.18.93 0 1.76-.47 2.26-1.18.2-.28.61-.28.8 0 .5.71 1.32 1.18 2.26 1.18.93 0 1.76-.47 2.26-1.18.2-.28.61-.28.8 0 .5.71 1.32 1.18 2.26 1.18 1.52 0 2.75-1.23 2.75-2.75-.01-.2-.03-.4-.07-.58Z" fill="url(#m)"/></g><path d="m29.016 26.666-2.65-11.88c-.85-4.46-4.85-7.79-9.6-7.58-5.13.22-9.14 4.52-9.14 9.65v10.34c0 1.52 1.21 2.79 2.73 2.8.94.01 1.77-.46 2.28-1.18.2-.28.61-.28.8 0 .5.71 1.32 1.18 2.26 1.18.93 0 1.76-.47 2.26-1.18.2-.28.61-.28.8 0 .5.71 1.32 1.18 2.26 1.18.93 0 1.76-.47 2.26-1.18.2-.28.61-.28.8 0 .5.71 1.32 1.18 2.26 1.18 1.52 0 2.75-1.23 2.75-2.75-.01-.2-.03-.4-.07-.58Z" fill="url(#n)"/><g filter="url(#o)"><path d="M22.174 25.451 19.105 8.293c3.298.635 5.165 3.052 5.632 5.088.963 4.204 2.687 11.19 2.948 12.07.326 1.1.033 2.54-1.402 2.731-1.435.19-1.952-1.094-2.442-1.845-.489-.751-1.314-.936-1.667-.886Z" fill="url(#p)"/></g><path d="M13.056 17a1 1 0 1 0 0-2 1 1 0 0 0 0 2Z" fill="url(#q)"/><path d="M13.056 17a1 1 0 1 0 0-2 1 1 0 0 0 0 2Z" fill="url(#r)"/><path d="M13.056 17a1 1 0 1 0 0-2 1 1 0 0 0 0 2Z" fill="url(#s)"/><g filter="url(#t)"><ellipse cx="22.061" cy="5.302" rx="1.874" ry="2.548" transform="rotate(-30 22.061 5.302)" fill="url(#u)"/></g><g filter="url(#v)"><path d="m6.314 22.755-.997 2.236c-.092.224-.148.748.36 1.055" stroke="#D74C6D" stroke-width=".4" stroke-linecap="round"/></g><defs><radialGradient id="a" cx="0" cy="0" r="1" gradientUnits="userSpaceOnUse" gradientTransform="matrix(2.625 2.2085 -4.17933 4.96751 5.042 17.346)"><stop stop-color="#FDDD4D"/><stop offset=".88" stop-color="#F7BE1E"/></radialGradient><radialGradient id="b" cx="0" cy="0" r="1" gradientUnits="userSpaceOnUse" gradientTransform="rotate(117.39 -2.45 11.959) scale(4.91736 9.11714)"><stop stop-color="#E2B047"/><stop offset=".653" stop-color="#C19C4B"/></radialGradient><radialGradient id="e" cx="0" cy="0" r="1" gradientUnits="userSpaceOnUse" gradientTransform="matrix(4.80567 -1.96631 2.66046 6.50215 7.119 13.276)"><stop stop-color="#E64461"/><stop offset="1" stop-color="#E64461" stop-opacity="0"/></radialGradient><radialGradient id="g" cx="0" cy="0" r="1" gradientUnits="userSpaceOnUse" gradientTransform="rotate(-26.553 23.522 -21.949) scale(5.27665)"><stop offset=".073" stop-color="#E44D7D" stop-opacity="0"/><stop offset="1" stop-color="#F86392"/></radialGradient><radialGradient id="j" cx="0" cy="0" r="1" gradientUnits="userSpaceOnUse" gradientTransform="matrix(-9.3426 11.04921 -10.40006 -8.79372 27.288 3.896)"><stop stop-color="#F2EFF4"/><stop offset="1" stop-color="#F2EFF4" stop-opacity="0"/></radialGradient><radialGradient id="l" cx="0" cy="0" r="1" gradientUnits="userSpaceOnUse" gradientTransform="rotate(-97.628 21.824 5.509) scale(21.1875 14.505)"><stop offset=".897" stop-color="#CFCAD0" stop-opacity="0"/><stop offset="1" stop-color="#CFCAD0"/></radialGradient><radialGradient id="m" cx="0" cy="0" r="1" gradientUnits="userSpaceOnUse" gradientTransform="matrix(.01636 -9.99292 21.50967 .03521 17.03 33.34)"><stop stop-color="#CDBCDF"/><stop offset="1" stop-color="#CDBCDF" stop-opacity="0"/></radialGradient><radialGradient id="q" cx="0" cy="0" r="1" gradientUnits="userSpaceOnUse" gradientTransform="rotate(125.838 2.668 11.253) scale(1.38773 1.23721)"><stop offset=".006" stop-color="#433437"/><stop offset="1" stop-color="#3B2838"/></radialGradient><radialGradient id="r" cx="0" cy="0" r="1" gradientUnits="userSpaceOnUse" gradientTransform="matrix(-.53125 .48437 -.42613 -.46737 13.43 15.75)"><stop stop-color="#5C5051"/><stop offset="1" stop-color="#5C5051" stop-opacity="0"/></radialGradient><radialGradient id="u" cx="0" cy="0" r="1" gradientUnits="userSpaceOnUse" gradientTransform="rotate(-169.993 12.137 1.262) scale(5.50433 6.39815)"><stop stop-color="#F86392"/><stop offset="1" stop-color="#E44D7D" stop-opacity="0"/></radialGradient><linearGradient id="c" x1="6.716" y1="19.102" x2="6.716" y2="21.996" gradientUnits="userSpaceOnUse"><stop stop-color="#EBB64B"/><stop offset=".496" stop-color="#E4B14A" stop-opacity="0"/></linearGradient><linearGradient id="d" x1="15.631" y1="19.531" x2="15.631" y2="1.129" gradientUnits="userSpaceOnUse"><stop stop-color="#ED1C26"/><stop offset=".456" stop-color="#ED1452"/><stop offset="1" stop-color="#EC098C"/></linearGradient><linearGradient id="h" x1="5.858" y1="28.668" x2="6.828" y2="21.996" gradientUnits="userSpaceOnUse"><stop stop-color="#BF2241"/><stop offset="1" stop-color="#CA2864"/></linearGradient><linearGradient id="k" x1="7.169" y1="18.596" x2="10.373" y2="18.596" gradientUnits="userSpaceOnUse"><stop stop-color="#CFCAD0"/><stop offset="1" stop-color="#CFCAD0" stop-opacity="0"/></linearGradient><linearGradient id="n" x1="33.606" y1="19.684" x2="20.18" y2="21.826" gradientUnits="userSpaceOnUse"><stop stop-color="#F2EFF4"/><stop offset="1" stop-color="#F2EFF4" stop-opacity="0"/></linearGradient><linearGradient id="p" x1="29.041" y1="18.247" x2="21.084" y2="20.094" gradientUnits="userSpaceOnUse"><stop stop-color="#F2EFF4"/><stop offset="1" stop-color="#F2EFF4" stop-opacity="0"/></linearGradient><linearGradient id="s" x1="12.86" y1="15.215" x2="12.172" y2="14.777" gradientUnits="userSpaceOnUse"><stop stop-color="#5C5051" stop-opacity="0"/><stop offset="1" stop-color="#5C5051"/></linearGradient><filter id="f" x="9.642" y="2.708" width="8.622" height="8.622" filterUnits="userSpaceOnUse" color-interpolation-filters="sRGB"><feFlood flood-opacity="0" result="BackgroundImageFix"/><feBlend in="SourceGraphic" in2="BackgroundImageFix" result="shape"/><feGaussianBlur stdDeviation=".5" result="effect1_foregroundBlur_28327_4658"/></filter><filter id="i" x="7.626" y="6.946" width="21.46" height="23.05" filterUnits="userSpaceOnUse" color-interpolation-filters="sRGB"><feFlood flood-opacity="0" result="BackgroundImageFix"/><feBlend in="SourceGraphic" in2="BackgroundImageFix" result="shape"/><feColorMatrix in="SourceAlpha" values="0 0 0 0 0 0 0 0 0 0 0 0 0 0 0 0 0 0 127 0" result="hardAlpha"/><feOffset dy="-.25"/><feGaussianBlur stdDeviation=".75"/><feComposite in2="hardAlpha" operator="arithmetic" k2="-1" k3="1"/><feColorMatrix values="0 0 0 0 0.701961 0 0 0 0 0.623529 0 0 0 0 0.780392 0 0 0 1 0"/><feBlend in2="shape" result="effect1_innerShadow_28327_4658"/></filter><filter id="o" x="16.605" y="5.793" width="13.701" height="24.908" filterUnits="userSpaceOnUse" color-interpolation-filters="sRGB"><feFlood flood-opacity="0" result="BackgroundImageFix"/><feBlend in="SourceGraphic" in2="BackgroundImageFix" result="shape"/><feGaussianBlur stdDeviation="1.25" result="effect1_foregroundBlur_28327_4658"/></filter><filter id="t" x="18.998" y="1.904" width="6.127" height="6.796" filterUnits="userSpaceOnUse" color-interpolation-filters="sRGB"><feFlood flood-opacity="0" result="BackgroundImageFix"/><feBlend in="SourceGraphic" in2="BackgroundImageFix" result="shape"/><feGaussianBlur stdDeviation=".5" result="effect1_foregroundBlur_28327_4658"/></filter><filter id="v" x="4.306" y="21.805" width="2.957" height="5.191" filterUnits="userSpaceOnUse" color-interpolation-filters="sRGB"><feFlood flood-opacity="0" result="BackgroundImageFix"/><feBlend in="SourceGraphic" in2="BackgroundImageFix" result="shape"/><feGaussianBlur stdDeviation=".375" result="effect1_foregroundBlur_28327_4658"/></filter></defs></svg>