<svg width="32" height="32" fill="none" xmlns="http://www.w3.org/2000/svg"><g filter="url(#a)"><path d="M10.31 28.015H9.26c-2.35 0-4.26-1.91-4.26-4.26v-3.49h5.3v7.75h.01Z" fill="url(#b)"/><path d="M10.31 28.015H9.26c-2.35 0-4.26-1.91-4.26-4.26v-3.49h5.3v7.75h.01Z" fill="url(#c)"/><path d="M10.31 28.015H9.26c-2.35 0-4.26-1.91-4.26-4.26v-3.49h5.3v7.75h.01Z" fill="url(#d)"/></g><g filter="url(#e)"><path d="M21.71 28.015h1.05c2.35 0 4.26-1.91 4.26-4.26v-3.49h-5.3v7.75h-.01Z" fill="url(#f)"/><path d="M21.71 28.015h1.05c2.35 0 4.26-1.91 4.26-4.26v-3.49h-5.3v7.75h-.01Z" fill="url(#g)"/></g><path d="M6.5 20.995a3.25 3.25 0 1 0 0-6.5 3.25 3.25 0 0 0 0 6.5Z" fill="url(#h)"/><g filter="url(#i)"><path d="M6.5 19.808a2.062 2.062 0 1 0 0-4.125 2.062 2.062 0 0 0 0 4.125Z" fill="url(#j)"/></g><path d="M25.5 20.995a3.25 3.25 0 1 0 0-6.5 3.25 3.25 0 0 0 0 6.5Z" fill="url(#k)"/><path d="M25.5 20.995a3.25 3.25 0 1 0 0-6.5 3.25 3.25 0 0 0 0 6.5Z" fill="url(#l)"/><path d="M25.5 20.995a3.25 3.25 0 1 0 0-6.5 3.25 3.25 0 0 0 0 6.5Z" fill="url(#m)"/><path d="M25.5 20.995a3.25 3.25 0 1 0 0-6.5 3.25 3.25 0 0 0 0 6.5Z" fill="url(#n)"/><g filter="url(#o)"><path d="M25.5 19.745a2 2 0 1 0 0-4 2 2 0 0 0 0 4Z" fill="#FFBC35"/><path d="M25.5 19.745a2 2 0 1 0 0-4 2 2 0 0 0 0 4Z" fill="url(#p)"/></g><g filter="url(#q)"><path d="M13.4 4.005c-4.345 0-7.86 3.617-7.681 7.978l.307 8.238c.239 5.852 4.633 9.784 9.974 9.784 5.34 0 9.735-3.931 9.974-9.784l.37-8.21c.18-4.362-3.399-8.006-7.743-8.006h-5.202Z" fill="url(#r)"/><path d="M13.4 4.005c-4.345 0-7.86 3.617-7.681 7.978l.307 8.238c.239 5.852 4.633 9.784 9.974 9.784 5.34 0 9.735-3.931 9.974-9.784l.37-8.21c.18-4.362-3.399-8.006-7.743-8.006h-5.202Z" fill="url(#s)"/><path d="M13.4 4.005c-4.345 0-7.86 3.617-7.681 7.978l.307 8.238c.239 5.852 4.633 9.784 9.974 9.784 5.34 0 9.735-3.931 9.974-9.784l.37-8.21c.18-4.362-3.399-8.006-7.743-8.006h-5.202Z" fill="url(#t)"/><path d="M13.4 4.005c-4.345 0-7.86 3.617-7.681 7.978l.307 8.238c.239 5.852 4.633 9.784 9.974 9.784 5.34 0 9.735-3.931 9.974-9.784l.37-8.21c.18-4.362-3.399-8.006-7.743-8.006h-5.202Z" fill="url(#u)"/><path d="M13.4 4.005c-4.345 0-7.86 3.617-7.681 7.978l.307 8.238c.239 5.852 4.633 9.784 9.974 9.784 5.34 0 9.735-3.931 9.974-9.784l.37-8.21c.18-4.362-3.399-8.006-7.743-8.006h-5.202Z" fill="url(#v)"/><path d="M13.4 4.005c-4.345 0-7.86 3.617-7.681 7.978l.307 8.238c.239 5.852 4.633 9.784 9.974 9.784 5.34 0 9.735-3.931 9.974-9.784l.37-8.21c.18-4.362-3.399-8.006-7.743-8.006h-5.202Z" fill="url(#w)"/></g><g filter="url(#x)"><path d="M9.72 14.085c.59-.21 1.41-.36 2.47-.26" stroke="#C04B25" stroke-miterlimit="10" stroke-linecap="round" stroke-linejoin="round"/></g><g filter="url(#y)"><path d="M9.75 13.991c.59-.21 1.41-.36 2.47-.26" stroke="#CE5C4B" stroke-width=".25" stroke-miterlimit="10" stroke-linecap="round" stroke-linejoin="round"/></g><g filter="url(#z)"><path d="M22.3 14.085c-.59-.21-1.41-.36-2.47-.26" stroke="#C04B25" stroke-miterlimit="10" stroke-linecap="round" stroke-linejoin="round"/></g><g filter="url(#A)"><path d="M22.3 13.94c-.59-.21-1.41-.36-2.47-.26" stroke="#CE5C4B" stroke-width=".25" stroke-miterlimit="10" stroke-linecap="round" stroke-linejoin="round"/></g><g filter="url(#B)"><path d="M19.51 22.948c.222-.346-.16-.763-.526-.579l-.002.001a6.279 6.279 0 0 1-2.98.724 6.397 6.397 0 0 1-2.98-.724c-.368-.197-.76.222-.528.579l.063-.041-.063.04a4.176 4.176 0 0 0 3.508 1.922 4.176 4.176 0 0 0 3.508-1.922Z" stroke="url(#C)" stroke-width=".15"/></g><path d="M16.002 23.169a6.473 6.473 0 0 1-3.016-.733c-.3-.16-.619.18-.429.472a4.1 4.1 0 0 0 3.445 1.887 4.1 4.1 0 0 0 3.445-1.887c.18-.281-.13-.622-.43-.472a6.354 6.354 0 0 1-3.015.733Z" fill="#8A014F"/><g filter="url(#D)"><path d="M27.02 4.778A.93.93 0 0 1 26.14 6h-.463c-.105 0-.14.141-.047.19A6.363 6.363 0 0 1 29 11.847v1.873c0 .71-.58 1.291-1.29 1.291h-.29a.25.25 0 0 0-.25.24l-.01.28-.06 1.483c-.02.55-.47.981-1.02.981l.12-3.675a2.233 2.233 0 0 0-2.23-2.313H18.8a6.794 6.794 0 0 1-5.627-2.99c-.05-.074-.169-.054-.193.032a4.097 4.097 0 0 1-3.93 2.959H7.81A2.01 2.01 0 0 0 5.8 14.07c.036 1.309.096 2.613.141 3.921-.55 0-1.021-.427-1.041-.977l-.061-1.678a.25.25 0 0 0-.25-.241H4.25c-.845 0-1.25-.7-1.25-1.546v-2.903a6.525 6.525 0 0 1 6.52-6.528c.292 0 .53-.222.623-.498a2.365 2.365 0 0 1 2.237-1.625h10.83c1.78 0 3.3 1.171 3.81 2.783Z" fill="url(#E)"/><path d="M27.02 4.778A.93.93 0 0 1 26.14 6h-.463c-.105 0-.14.141-.047.19A6.363 6.363 0 0 1 29 11.847v1.873c0 .71-.58 1.291-1.29 1.291h-.29a.25.25 0 0 0-.25.24l-.01.28-.06 1.483c-.02.55-.47.981-1.02.981l.12-3.675a2.233 2.233 0 0 0-2.23-2.313H18.8a6.794 6.794 0 0 1-5.627-2.99c-.05-.074-.169-.054-.193.032a4.097 4.097 0 0 1-3.93 2.959H7.81A2.01 2.01 0 0 0 5.8 14.07c.036 1.309.096 2.613.141 3.921-.55 0-1.021-.427-1.041-.977l-.061-1.678a.25.25 0 0 0-.25-.241H4.25c-.845 0-1.25-.7-1.25-1.546v-2.903a6.525 6.525 0 0 1 6.52-6.528c.292 0 .53-.222.623-.498a2.365 2.365 0 0 1 2.237-1.625h10.83c1.78 0 3.3 1.171 3.81 2.783Z" fill="url(#F)"/><path d="M27.02 4.778A.93.93 0 0 1 26.14 6h-.463c-.105 0-.14.141-.047.19A6.363 6.363 0 0 1 29 11.847v1.873c0 .71-.58 1.291-1.29 1.291h-.29a.25.25 0 0 0-.25.24l-.01.28-.06 1.483c-.02.55-.47.981-1.02.981l.12-3.675a2.233 2.233 0 0 0-2.23-2.313H18.8a6.794 6.794 0 0 1-5.627-2.99c-.05-.074-.169-.054-.193.032a4.097 4.097 0 0 1-3.93 2.959H7.81A2.01 2.01 0 0 0 5.8 14.07c.036 1.309.096 2.613.141 3.921-.55 0-1.021-.427-1.041-.977l-.061-1.678a.25.25 0 0 0-.25-.241H4.25c-.845 0-1.25-.7-1.25-1.546v-2.903a6.525 6.525 0 0 1 6.52-6.528c.292 0 .53-.222.623-.498a2.365 2.365 0 0 1 2.237-1.625h10.83c1.78 0 3.3 1.171 3.81 2.783Z" fill="url(#G)"/></g><path d="M27.02 4.778A.93.93 0 0 1 26.14 6h-.463c-.105 0-.14.141-.047.19A6.363 6.363 0 0 1 29 11.847v1.873c0 .71-.58 1.291-1.29 1.291h-.29a.25.25 0 0 0-.25.24l-.01.28-.06 1.483c-.02.55-.47.981-1.02.981l.12-3.675a2.233 2.233 0 0 0-2.23-2.313H18.8a6.794 6.794 0 0 1-5.627-2.99c-.05-.074-.169-.054-.193.032a4.097 4.097 0 0 1-3.93 2.959H7.81A2.01 2.01 0 0 0 5.8 14.07c.036 1.309.096 2.613.141 3.921-.55 0-1.021-.427-1.041-.977l-.061-1.678a.25.25 0 0 0-.25-.241H4.25c-.845 0-1.25-.7-1.25-1.546v-2.903a6.525 6.525 0 0 1 6.52-6.528c.292 0 .53-.222.623-.498a2.365 2.365 0 0 1 2.237-1.625h10.83c1.78 0 3.3 1.171 3.81 2.783Z" fill="url(#H)"/><path d="M27.02 4.778A.93.93 0 0 1 26.14 6h-.463c-.105 0-.14.141-.047.19A6.363 6.363 0 0 1 29 11.847v1.873c0 .71-.58 1.291-1.29 1.291h-.29a.25.25 0 0 0-.25.24l-.01.28-.06 1.483c-.02.55-.47.981-1.02.981l.12-3.675a2.233 2.233 0 0 0-2.23-2.313H18.8a6.794 6.794 0 0 1-5.627-2.99c-.05-.074-.169-.054-.193.032a4.097 4.097 0 0 1-3.93 2.959H7.81A2.01 2.01 0 0 0 5.8 14.07c.036 1.309.096 2.613.141 3.921-.55 0-1.021-.427-1.041-.977l-.061-1.678a.25.25 0 0 0-.25-.241H4.25c-.845 0-1.25-.7-1.25-1.546v-2.903a6.525 6.525 0 0 1 6.52-6.528c.292 0 .53-.222.623-.498a2.365 2.365 0 0 1 2.237-1.625h10.83c1.78 0 3.3 1.171 3.81 2.783Z" fill="url(#I)"/><path d="M27.02 4.778A.93.93 0 0 1 26.14 6h-.463c-.105 0-.14.141-.047.19A6.363 6.363 0 0 1 29 11.847v1.873c0 .71-.58 1.291-1.29 1.291h-.29a.25.25 0 0 0-.25.24l-.01.28-.06 1.483c-.02.55-.47.981-1.02.981l.12-3.675a2.233 2.233 0 0 0-2.23-2.313H18.8a6.794 6.794 0 0 1-5.627-2.99c-.05-.074-.169-.054-.193.032a4.097 4.097 0 0 1-3.93 2.959H7.81A2.01 2.01 0 0 0 5.8 14.07c.036 1.309.096 2.613.141 3.921-.55 0-1.021-.427-1.041-.977l-.061-1.678a.25.25 0 0 0-.25-.241H4.25c-.845 0-1.25-.7-1.25-1.546v-2.903a6.525 6.525 0 0 1 6.52-6.528c.292 0 .53-.222.623-.498a2.365 2.365 0 0 1 2.237-1.625h10.83c1.78 0 3.3 1.171 3.81 2.783Z" fill="url(#J)"/><path d="M20.811 15.497a3.112 3.112 0 0 1 3.02 2.359.61.61 0 0 1-.597.759h-4.971a.513.513 0 0 1-.507-.606 3.114 3.114 0 0 1 3.055-2.512Z" fill="#fff"/><path d="M20.35 16.102a1.988 1.988 0 0 1 1.916 2.513h-3.84a2.037 2.037 0 0 1-.073-.524c0-1.094.895-1.989 1.997-1.989Z" fill="url(#K)"/><path d="M19.212 18.09c0-.632.506-1.138 1.138-1.138.633 0 1.14.506 1.14 1.139 0 .19-.046.37-.127.524h-2.016a1.03 1.03 0 0 1-.135-.524Z" fill="#000"/><g filter="url(#L)"><path d="M20.204 16.523c.142.19-.154.42-.491.672-.337.252-.586.429-.728.24-.142-.19.016-.548.353-.8.337-.251.724-.302.866-.112Z" fill="#C7A7A3"/><path d="M20.204 16.523c.142.19-.154.42-.491.672-.337.252-.586.429-.728.24-.142-.19.016-.548.353-.8.337-.251.724-.302.866-.112Z" fill="url(#M)"/></g><g filter="url(#N)"><path d="M22.122 17.829a1.872 1.872 0 0 0-.516-1.031l-.579.636.261.508.834-.113Z" fill="url(#O)"/></g><path d="M11.197 15.509a3.1 3.1 0 0 0-3.007 2.35.608.608 0 0 0 .594.756h4.952a.51.51 0 0 0 .504-.603 3.11 3.11 0 0 0-3.043-2.503Z" fill="#fff"/><path d="M11.656 16.112a1.98 1.98 0 0 0-1.909 2.503h3.827c.045-.171.072-.342.072-.522a1.994 1.994 0 0 0-1.99-1.981Z" fill="url(#P)"/><path d="M12.79 18.093a1.13 1.13 0 0 0-1.134-1.135 1.13 1.13 0 0 0-1.134 1.135c0 .189.045.369.126.522h2.008c.08-.153.135-.333.135-.522Z" fill="#000"/><g filter="url(#Q)"><path d="M13.466 17.86c0-.64-.52-1.067-.661-1.196l-.64.62.394.801.907-.225Z" fill="url(#R)"/></g><g filter="url(#S)" transform="rotate(-27.914 11.059 16.958)"><ellipse cx="11.059" cy="16.958" rx=".865" ry=".438" fill="#C7A7A3" fill-opacity=".9"/><ellipse cx="11.059" cy="16.958" rx=".865" ry=".438" fill="url(#T)"/></g><g filter="url(#U)"><path d="M17.645 20.349a.722.722 0 0 1-.022.773 1.946 1.946 0 0 1-3.25 0 .722.722 0 0 1-.021-.773l1.068-2.474a.63.63 0 0 1 1.156 0l1.069 2.474Z" fill="url(#V)"/><path d="M17.645 20.349a.722.722 0 0 1-.022.773 1.946 1.946 0 0 1-3.25 0 .722.722 0 0 1-.021-.773l1.068-2.474a.63.63 0 0 1 1.156 0l1.069 2.474Z" fill="url(#W)"/><path d="M17.645 20.349a.722.722 0 0 1-.022.773 1.946 1.946 0 0 1-3.25 0 .722.722 0 0 1-.021-.773l1.068-2.474a.63.63 0 0 1 1.156 0l1.069 2.474Z" fill="url(#X)"/></g><g filter="url(#Y)"><path d="M19.625 10.745c-5.031 0-7.052-4.083-7.344-5.75h7.875c4.75.156 7.657 3.25 8.219 5.75h-8.75Z" fill="url(#Z)"/></g><g filter="url(#aa)"><path d="M14.563 5.526h10.664c.585 0 1.062-.515.82-1.047-.53-1.169-1.701-1.694-2.453-1.703H12.75l1.813 2.75Z" fill="url(#ab)"/></g><g filter="url(#ac)"><path d="M24.313 5.995c-.844-.333-3.244-1.063-6.094-1.313" stroke="#FFC632" stroke-width=".25" stroke-linecap="round"/></g><g filter="url(#ad)"><path d="M11.969 5.901c.198.792.987 2.719 2.562 4.094" stroke="#E08520" stroke-width=".25" stroke-linecap="round"/></g><defs><radialGradient id="d" cx="0" cy="0" r="1" gradientUnits="userSpaceOnUse" gradientTransform="matrix(-1.65752 2.48873 -2.87102 -1.91213 9.313 25.526)"><stop stop-color="#D76523"/><stop offset="1" stop-color="#D76523" stop-opacity="0"/></radialGradient><radialGradient id="g" cx="0" cy="0" r="1" gradientUnits="userSpaceOnUse" gradientTransform="matrix(0 5.5 -1.36374 0 27.02 21.151)"><stop stop-color="#FFC735"/><stop offset="1" stop-color="#FFC735" stop-opacity="0"/></radialGradient><radialGradient id="j" cx="0" cy="0" r="1" gradientUnits="userSpaceOnUse" gradientTransform="rotate(149.647 .843 9.754) scale(2.00986)"><stop stop-color="#C1691D"/><stop offset="1" stop-color="#DC7C1F"/></radialGradient><radialGradient id="k" cx="0" cy="0" r="1" gradientUnits="userSpaceOnUse" gradientTransform="rotate(-43.409 36.776 -22.15) scale(4.77481 4.46833)"><stop offset=".452" stop-color="#FFC534"/><stop offset="1" stop-color="#FFE449"/></radialGradient><radialGradient id="l" cx="0" cy="0" r="1" gradientUnits="userSpaceOnUse" gradientTransform="rotate(90 4.268 21.232) scale(4.03125)"><stop offset=".841" stop-color="#E89726" stop-opacity="0"/><stop offset="1" stop-color="#E89726"/></radialGradient><radialGradient id="m" cx="0" cy="0" r="1" gradientUnits="userSpaceOnUse" gradientTransform="rotate(97.412 5.688 20.09) scale(1.93807 1.85115)"><stop offset=".331" stop-color="#FFBB2A"/><stop offset="1" stop-color="#FFBB2A" stop-opacity="0"/></radialGradient><radialGradient id="n" cx="0" cy="0" r="1" gradientUnits="userSpaceOnUse" gradientTransform="rotate(107.435 8.373 17.468) scale(.99083 3.04283)"><stop stop-color="#CA8202"/><stop offset="1" stop-color="#CA8202" stop-opacity="0"/></radialGradient><radialGradient id="p" cx="0" cy="0" r="1" gradientUnits="userSpaceOnUse" gradientTransform="rotate(91.254 4.893 21.005) scale(2.14114 1.84922)"><stop offset=".564" stop-color="#E89D22"/><stop offset="1" stop-color="#E89D22" stop-opacity="0"/></radialGradient><radialGradient id="r" cx="0" cy="0" r="1" gradientUnits="userSpaceOnUse" gradientTransform="matrix(-13.25 0 0 -14.629 22.875 17.683)"><stop stop-color="#FFE535"/><stop offset="1" stop-color="#F7A02B"/></radialGradient><radialGradient id="s" cx="0" cy="0" r="1" gradientUnits="userSpaceOnUse" gradientTransform="matrix(0 15.375 -14.6809 0 16.031 15.245)"><stop offset=".852" stop-color="#D77972" stop-opacity="0"/><stop offset="1" stop-color="#D77972"/></radialGradient><radialGradient id="t" cx="0" cy="0" r="1" gradientUnits="userSpaceOnUse" gradientTransform="matrix(6.375 -5.3125 9.34939 11.21925 10.75 28.37)"><stop stop-color="#EB8F3A"/><stop offset="1" stop-color="#EB8F3A" stop-opacity="0"/></radialGradient><radialGradient id="u" cx="0" cy="0" r="1" gradientUnits="userSpaceOnUse" gradientTransform="matrix(5.25 2.625 -1.66183 3.32368 17.25 8.62)"><stop offset=".437" stop-color="#DF6B0D"/><stop offset="1" stop-color="#DF6B0D" stop-opacity="0"/></radialGradient><radialGradient id="v" cx="0" cy="0" r="1" gradientUnits="userSpaceOnUse" gradientTransform="matrix(0 -3.10376 3.78125 0 20.688 17.005)"><stop offset=".295" stop-color="#FFBC29"/><stop offset="1" stop-color="#FFC128" stop-opacity="0"/></radialGradient><radialGradient id="w" cx="0" cy="0" r="1" gradientUnits="userSpaceOnUse" gradientTransform="matrix(0 -3.07251 2.875 0 11.719 17.005)"><stop stop-color="#ED9227"/><stop offset="1" stop-color="#ED9227" stop-opacity="0"/></radialGradient><radialGradient id="F" cx="0" cy="0" r="1" gradientUnits="userSpaceOnUse" gradientTransform="matrix(0 -5.1875 1.97944 0 11.375 11.807)"><stop stop-color="#FFBA2C"/><stop offset="1" stop-color="#FFBA2C" stop-opacity="0"/></radialGradient><radialGradient id="G" cx="0" cy="0" r="1" gradientUnits="userSpaceOnUse" gradientTransform="matrix(0 2.125 -3.40611 0 10.219 4.558)"><stop stop-color="#E7B22D"/><stop offset="1" stop-color="#E7B22D" stop-opacity="0"/></radialGradient><radialGradient id="H" cx="0" cy="0" r="1" gradientUnits="userSpaceOnUse" gradientTransform="matrix(-2.625 1.3125 -3.7625 -7.525 27.594 3.683)"><stop stop-color="#FFEB3B"/><stop offset="1" stop-color="#FFEB3B" stop-opacity="0"/></radialGradient><radialGradient id="I" cx="0" cy="0" r="1" gradientUnits="userSpaceOnUse" gradientTransform="matrix(-3.62501 -.74998 2.47313 -11.95385 30.125 13.182)"><stop stop-color="#FFC828"/><stop offset="1" stop-color="#FFC828" stop-opacity="0"/></radialGradient><radialGradient id="J" cx="0" cy="0" r="1" gradientUnits="userSpaceOnUse" gradientTransform="matrix(.1875 -2.92188 .78306 .05025 27.11 16.558)"><stop stop-color="#FFC92E"/><stop offset="1" stop-color="#FFC92E" stop-opacity="0"/></radialGradient><radialGradient id="K" cx="0" cy="0" r="1" gradientUnits="userSpaceOnUse" gradientTransform="matrix(0 1.80763 -2.87524 0 20.346 17.165)"><stop offset=".802" stop-color="#915C51"/><stop offset="1" stop-color="#694B43"/><stop offset="1" stop-color="#804D49"/></radialGradient><radialGradient id="M" cx="0" cy="0" r="1" gradientUnits="userSpaceOnUse" gradientTransform="matrix(-.51672 -.66586 .91673 -.7114 19.837 17.353)"><stop offset=".766" stop-color="#FFE6E2" stop-opacity="0"/><stop offset=".966" stop-color="#FFE6E2"/></radialGradient><radialGradient id="P" cx="0" cy="0" r="1" gradientUnits="userSpaceOnUse" gradientTransform="matrix(0 1.80073 -2.86427 0 11.66 17.17)"><stop offset=".802" stop-color="#915C51"/><stop offset="1" stop-color="#694B43"/><stop offset="1" stop-color="#804D49"/></radialGradient><radialGradient id="T" cx="0" cy="0" r="1" gradientUnits="userSpaceOnUse" gradientTransform="matrix(-.01717 -1.09657 1.31812 -.02064 11.025 17.657)"><stop offset=".766" stop-color="#FFE6E2" stop-opacity="0"/><stop offset=".966" stop-color="#FFE6E2"/></radialGradient><radialGradient id="V" cx="0" cy="0" r="1" gradientUnits="userSpaceOnUse" gradientTransform="matrix(-1.6875 .25 -.41156 -2.778 17.156 19.245)"><stop stop-color="#FFE73F"/><stop offset="1" stop-color="#FFE73F" stop-opacity="0"/></radialGradient><radialGradient id="X" cx="0" cy="0" r="1" gradientUnits="userSpaceOnUse" gradientTransform="matrix(0 3.9375 -6.53827 0 16.156 18.308)"><stop offset=".638" stop-color="#E28339" stop-opacity="0"/><stop offset=".929" stop-color="#E28339"/></radialGradient><radialGradient id="Z" cx="0" cy="0" r="1" gradientUnits="userSpaceOnUse" gradientTransform="matrix(-9.37502 8.78128 -17.46896 -18.65012 23 4.995)"><stop offset=".141" stop-color="#FFE939"/><stop offset="1" stop-color="#FFE939" stop-opacity="0"/></radialGradient><radialGradient id="ab" cx="0" cy="0" r="1" gradientUnits="userSpaceOnUse" gradientTransform="rotate(-172.533 12.477 .752) scale(12.9851 8.33037)"><stop stop-color="#FFE939"/><stop offset="1" stop-color="#FFE939" stop-opacity="0"/></radialGradient><filter id="a" x="5" y="20.015" width="5.31" height="8" filterUnits="userSpaceOnUse" color-interpolation-filters="sRGB"><feFlood flood-opacity="0" result="BackgroundImageFix"/><feBlend in="SourceGraphic" in2="BackgroundImageFix" result="shape"/><feColorMatrix in="SourceAlpha" values="0 0 0 0 0 0 0 0 0 0 0 0 0 0 0 0 0 0 127 0" result="hardAlpha"/><feOffset dy="-.25"/><feGaussianBlur stdDeviation=".25"/><feComposite in2="hardAlpha" operator="arithmetic" k2="-1" k3="1"/><feColorMatrix values="0 0 0 0 0.831373 0 0 0 0 0.388235 0 0 0 0 0.294118 0 0 0 1 0"/><feBlend in2="shape" result="effect1_innerShadow_4002_3602"/></filter><filter id="e" x="21.71" y="19.765" width="5.56" height="8.25" filterUnits="userSpaceOnUse" color-interpolation-filters="sRGB"><feFlood flood-opacity="0" result="BackgroundImageFix"/><feBlend in="SourceGraphic" in2="BackgroundImageFix" result="shape"/><feColorMatrix in="SourceAlpha" values="0 0 0 0 0 0 0 0 0 0 0 0 0 0 0 0 0 0 127 0" result="hardAlpha"/><feOffset dx=".25" dy="-.5"/><feGaussianBlur stdDeviation=".375"/><feComposite in2="hardAlpha" operator="arithmetic" k2="-1" k3="1"/><feColorMatrix values="0 0 0 0 0.854902 0 0 0 0 0.396078 0 0 0 0 0.235294 0 0 0 1 0"/><feBlend in2="shape" result="effect1_innerShadow_4002_3602"/></filter><filter id="i" x="3.938" y="15.182" width="5.125" height="5.125" filterUnits="userSpaceOnUse" color-interpolation-filters="sRGB"><feFlood flood-opacity="0" result="BackgroundImageFix"/><feBlend in="SourceGraphic" in2="BackgroundImageFix" result="shape"/><feGaussianBlur stdDeviation=".25" result="effect1_foregroundBlur_4002_3602"/></filter><filter id="o" x="23" y="15.245" width="5" height="5" filterUnits="userSpaceOnUse" color-interpolation-filters="sRGB"><feFlood flood-opacity="0" result="BackgroundImageFix"/><feBlend in="SourceGraphic" in2="BackgroundImageFix" result="shape"/><feGaussianBlur stdDeviation=".25" result="effect1_foregroundBlur_4002_3602"/></filter><filter id="q" x="5.712" y="4.005" width="21.138" height="26" filterUnits="userSpaceOnUse" color-interpolation-filters="sRGB"><feFlood flood-opacity="0" result="BackgroundImageFix"/><feBlend in="SourceGraphic" in2="BackgroundImageFix" result="shape"/><feColorMatrix in="SourceAlpha" values="0 0 0 0 0 0 0 0 0 0 0 0 0 0 0 0 0 0 127 0" result="hardAlpha"/><feOffset dx=".5"/><feGaussianBlur stdDeviation="1"/><feComposite in2="hardAlpha" operator="arithmetic" k2="-1" k3="1"/><feColorMatrix values="0 0 0 0 0.811765 0 0 0 0 0.623529 0 0 0 0 0.341176 0 0 0 1 0"/><feBlend in2="shape" result="effect1_innerShadow_4002_3602"/></filter><filter id="x" x="9.22" y="12.993" width="3.72" height="1.592" filterUnits="userSpaceOnUse" color-interpolation-filters="sRGB"><feFlood flood-opacity="0" result="BackgroundImageFix"/><feBlend in="SourceGraphic" in2="BackgroundImageFix" result="shape"/><feColorMatrix in="SourceAlpha" values="0 0 0 0 0 0 0 0 0 0 0 0 0 0 0 0 0 0 127 0" result="hardAlpha"/><feOffset dx=".25" dy="-.3"/><feGaussianBlur stdDeviation=".15"/><feComposite in2="hardAlpha" operator="arithmetic" k2="-1" k3="1"/><feColorMatrix values="0 0 0 0 0.686275 0 0 0 0 0.219608 0 0 0 0 0.278431 0 0 0 1 0"/><feBlend in2="shape" result="effect1_innerShadow_4002_3602"/></filter><filter id="y" x="9.375" y="13.325" width="3.22" height="1.042" filterUnits="userSpaceOnUse" color-interpolation-filters="sRGB"><feFlood flood-opacity="0" result="BackgroundImageFix"/><feBlend in="SourceGraphic" in2="BackgroundImageFix" result="shape"/><feGaussianBlur stdDeviation=".125" result="effect1_foregroundBlur_4002_3602"/></filter><filter id="z" x="19.33" y="12.993" width="3.72" height="1.592" filterUnits="userSpaceOnUse" color-interpolation-filters="sRGB"><feFlood flood-opacity="0" result="BackgroundImageFix"/><feBlend in="SourceGraphic" in2="BackgroundImageFix" result="shape"/><feColorMatrix in="SourceAlpha" values="0 0 0 0 0 0 0 0 0 0 0 0 0 0 0 0 0 0 127 0" result="hardAlpha"/><feOffset dx=".25" dy="-.3"/><feGaussianBlur stdDeviation=".15"/><feComposite in2="hardAlpha" operator="arithmetic" k2="-1" k3="1"/><feColorMatrix values="0 0 0 0 0.686275 0 0 0 0 0.219608 0 0 0 0 0.278431 0 0 0 1 0"/><feBlend in2="shape" result="effect1_innerShadow_4002_3602"/></filter><filter id="A" x="19.455" y="13.272" width="3.22" height="1.042" filterUnits="userSpaceOnUse" color-interpolation-filters="sRGB"><feFlood flood-opacity="0" result="BackgroundImageFix"/><feBlend in="SourceGraphic" in2="BackgroundImageFix" result="shape"/><feGaussianBlur stdDeviation=".125" result="effect1_foregroundBlur_4002_3602"/></filter><filter id="B" x="12.249" y="22.144" width="7.502" height="2.901" filterUnits="userSpaceOnUse" color-interpolation-filters="sRGB"><feFlood flood-opacity="0" result="BackgroundImageFix"/><feBlend in="SourceGraphic" in2="BackgroundImageFix" result="shape"/><feGaussianBlur stdDeviation=".05" result="effect1_foregroundBlur_4002_3602"/></filter><filter id="D" x="3" y="1.245" width="26" height="16.75" filterUnits="userSpaceOnUse" color-interpolation-filters="sRGB"><feFlood flood-opacity="0" result="BackgroundImageFix"/><feBlend in="SourceGraphic" in2="BackgroundImageFix" result="shape"/><feColorMatrix in="SourceAlpha" values="0 0 0 0 0 0 0 0 0 0 0 0 0 0 0 0 0 0 127 0" result="hardAlpha"/><feOffset dy="-.75"/><feGaussianBlur stdDeviation=".625"/><feComposite in2="hardAlpha" operator="arithmetic" k2="-1" k3="1"/><feColorMatrix values="0 0 0 0 0.905882 0 0 0 0 0.482353 0 0 0 0 0.117647 0 0 0 1 0"/><feBlend in2="shape" result="effect1_innerShadow_4002_3602"/><feColorMatrix in="SourceAlpha" values="0 0 0 0 0 0 0 0 0 0 0 0 0 0 0 0 0 0 127 0" result="hardAlpha"/><feOffset dy="-.35"/><feGaussianBlur stdDeviation=".5"/><feComposite in2="hardAlpha" operator="arithmetic" k2="-1" k3="1"/><feColorMatrix values="0 0 0 0 0.858824 0 0 0 0 0.52549 0 0 0 0 0.121569 0 0 0 1 0"/><feBlend in2="effect1_innerShadow_4002_3602" result="effect2_innerShadow_4002_3602"/></filter><filter id="L" x="18.833" y="16.308" width="1.507" height="1.306" filterUnits="userSpaceOnUse" color-interpolation-filters="sRGB"><feFlood flood-opacity="0" result="BackgroundImageFix"/><feBlend in="SourceGraphic" in2="BackgroundImageFix" result="shape"/><feGaussianBlur stdDeviation=".05" result="effect1_foregroundBlur_4002_3602"/></filter><filter id="N" x="20.827" y="16.598" width="1.494" height="1.544" filterUnits="userSpaceOnUse" color-interpolation-filters="sRGB"><feFlood flood-opacity="0" result="BackgroundImageFix"/><feBlend in="SourceGraphic" in2="BackgroundImageFix" result="shape"/><feGaussianBlur stdDeviation=".1" result="effect1_foregroundBlur_4002_3602"/></filter><filter id="Q" x="11.965" y="16.464" width="1.701" height="1.821" filterUnits="userSpaceOnUse" color-interpolation-filters="sRGB"><feFlood flood-opacity="0" result="BackgroundImageFix"/><feBlend in="SourceGraphic" in2="BackgroundImageFix" result="shape"/><feGaussianBlur stdDeviation=".1" result="effect1_foregroundBlur_4002_3602"/></filter><filter id="S" x="10.167" y="16.299" width="1.783" height="1.32" filterUnits="userSpaceOnUse" color-interpolation-filters="sRGB"><feFlood flood-opacity="0" result="BackgroundImageFix"/><feBlend in="SourceGraphic" in2="BackgroundImageFix" result="shape"/><feGaussianBlur stdDeviation=".05" result="effect1_foregroundBlur_4002_3602"/></filter><filter id="U" x="14.05" y="17.295" width="3.897" height="4.9" filterUnits="userSpaceOnUse" color-interpolation-filters="sRGB"><feFlood flood-opacity="0" result="BackgroundImageFix"/><feBlend in="SourceGraphic" in2="BackgroundImageFix" result="shape"/><feGaussianBlur stdDeviation=".1" result="effect1_foregroundBlur_4002_3602"/></filter><filter id="Y" x="10.781" y="3.495" width="19.094" height="8.75" filterUnits="userSpaceOnUse" color-interpolation-filters="sRGB"><feFlood flood-opacity="0" result="BackgroundImageFix"/><feBlend in="SourceGraphic" in2="BackgroundImageFix" result="shape"/><feGaussianBlur stdDeviation=".75" result="effect1_foregroundBlur_4002_3602"/></filter><filter id="aa" x="11.25" y="1.276" width="16.361" height="5.75" filterUnits="userSpaceOnUse" color-interpolation-filters="sRGB"><feFlood flood-opacity="0" result="BackgroundImageFix"/><feBlend in="SourceGraphic" in2="BackgroundImageFix" result="shape"/><feGaussianBlur stdDeviation=".75" result="effect1_foregroundBlur_4002_3602"/></filter><filter id="ac" x="17.494" y="3.958" width="7.544" height="2.763" filterUnits="userSpaceOnUse" color-interpolation-filters="sRGB"><feFlood flood-opacity="0" result="BackgroundImageFix"/><feBlend in="SourceGraphic" in2="BackgroundImageFix" result="shape"/><feGaussianBlur stdDeviation=".3" result="effect1_foregroundBlur_4002_3602"/></filter><filter id="ad" x="11.344" y="5.276" width="3.813" height="5.344" filterUnits="userSpaceOnUse" color-interpolation-filters="sRGB"><feFlood flood-opacity="0" result="BackgroundImageFix"/><feBlend in="SourceGraphic" in2="BackgroundImageFix" result="shape"/><feGaussianBlur stdDeviation=".25" result="effect1_foregroundBlur_4002_3602"/></filter><linearGradient id="b" x1="7.655" y1="20.265" x2="7.655" y2="28.015" gradientUnits="userSpaceOnUse"><stop stop-color="#DC761E"/><stop offset="1" stop-color="#E0682D"/></linearGradient><linearGradient id="c" x1="5" y1="22.433" x2="6.25" y2="22.433" gradientUnits="userSpaceOnUse"><stop stop-color="#DA8936"/><stop offset="1" stop-color="#DA8936" stop-opacity="0"/></linearGradient><linearGradient id="f" x1="24.365" y1="19.87" x2="24.365" y2="28.015" gradientUnits="userSpaceOnUse"><stop stop-color="#FFB730"/><stop offset="1" stop-color="#FF9430"/></linearGradient><linearGradient id="h" x1="3.25" y1="17.745" x2="7.188" y2="20.214" gradientUnits="userSpaceOnUse"><stop stop-color="#E09829"/><stop offset="1" stop-color="#D47F31"/></linearGradient><linearGradient id="C" x1="14.203" y1="24.573" x2="15.609" y2="22.636" gradientUnits="userSpaceOnUse"><stop stop-color="#FFAF35"/><stop offset="1" stop-color="#FFAF35" stop-opacity="0"/></linearGradient><linearGradient id="E" x1="11.125" y1="14.62" x2="27.5" y2="6.495" gradientUnits="userSpaceOnUse"><stop stop-color="#E7A028"/><stop offset="1" stop-color="#FAB627"/></linearGradient><linearGradient id="O" x1="22.079" y1="17.285" x2="21.38" y2="17.716" gradientUnits="userSpaceOnUse"><stop stop-color="#B4948D"/><stop offset="1" stop-color="#B4948D" stop-opacity="0"/></linearGradient><linearGradient id="R" x1="13.312" y1="17.29" x2="12.615" y2="17.719" gradientUnits="userSpaceOnUse"><stop stop-color="#B4948D"/><stop offset="1" stop-color="#B4948D" stop-opacity="0"/></linearGradient><linearGradient id="W" x1="14.25" y1="20.183" x2="15.719" y2="20.464" gradientUnits="userSpaceOnUse"><stop stop-color="#FDA71E"/><stop offset="1" stop-color="#FDA71E" stop-opacity="0"/></linearGradient></defs></svg>