<svg xmlns="http://www.w3.org/2000/svg" fill="none" viewBox="0 0 32 32"><path fill="url(#closed-book_svg__a)" d="M8 2h17a2 2 0 0 1 2 2v22H8z"/><path fill="url(#closed-book_svg__b)" d="M8 2h17a2 2 0 0 1 2 2v22H8z"/><path fill="url(#closed-book_svg__c)" d="M5.5 26.5H27V29h-.5l-.5.5H5.5z"/><path fill="url(#closed-book_svg__d)" d="M5.5 26.5H27V29h-.5l-.5.5H5.5z"/><path fill="url(#closed-book_svg__e)" d="M6.5 2A1.5 1.5 0 0 0 5 3.5V28h1a1 1 0 0 1 1-1h1V2z"/><path fill="url(#closed-book_svg__f)" d="M6.5 2A1.5 1.5 0 0 0 5 3.5V28h1a1 1 0 0 1 1-1h1V2z"/><g filter="url(#closed-book_svg__g)"><path fill="url(#closed-book_svg__h)" d="M6.5 26A1.5 1.5 0 0 0 5 27.5v1A1.5 1.5 0 0 0 6.5 30h19.408C26.56 30 27 29.666 27 29H7a1 1 0 1 1 0-2h20v-1z"/></g><defs><linearGradient id="closed-book_svg__a" x1="17.5" x2="17.5" y1="2" y2="26" gradientUnits="userSpaceOnUse"><stop stop-color="#E13074"/><stop offset="1" stop-color="#E0334C"/></linearGradient><linearGradient id="closed-book_svg__b" x1="28.69" x2="25.98" y1="5.382" y2="5.479" gradientUnits="userSpaceOnUse"><stop offset=".409" stop-color="#F76594"/><stop offset="1" stop-color="#FA6295" stop-opacity="0"/></linearGradient><linearGradient id="closed-book_svg__c" x1="6.721" x2="26.819" y1="28.416" y2="28.416" gradientUnits="userSpaceOnUse"><stop stop-color="#D5BCEB"/><stop offset="1" stop-color="#DCCCED"/><stop offset="1" stop-color="#E3D3F2"/></linearGradient><linearGradient id="closed-book_svg__d" x1="16.25" x2="16.25" y1="26.738" y2="28.157" gradientUnits="userSpaceOnUse"><stop stop-color="#9F84AE"/><stop offset="1" stop-color="#C5B1D6" stop-opacity="0"/></linearGradient><linearGradient id="closed-book_svg__e" x1="5.205" x2="8" y1="16.738" y2="16.738" gradientUnits="userSpaceOnUse"><stop stop-color="#9A3E4F"/><stop offset="1" stop-color="#AA2C4D"/></linearGradient><linearGradient id="closed-book_svg__h" x1="6.431" x2="27" y1="28.964" y2="28.932" gradientUnits="userSpaceOnUse"><stop stop-color="#AB1F5C"/><stop offset="1" stop-color="#A51E5A"/></linearGradient><radialGradient id="closed-book_svg__f" cx="0" cy="0" r="1" gradientTransform="matrix(0 -6.6454 1.17096 0 5.399 26.674)" gradientUnits="userSpaceOnUse"><stop stop-color="#9B3F51"/><stop offset="1" stop-color="#9B3F51" stop-opacity="0"/></radialGradient><filter id="closed-book_svg__g" width="22" height="4.1" x="5" y="26" color-interpolation-filters="sRGB" filterUnits="userSpaceOnUse"><feFlood flood-opacity="0" result="BackgroundImageFix"/><feBlend in="SourceGraphic" in2="BackgroundImageFix" result="shape"/><feColorMatrix in="SourceAlpha" result="hardAlpha" values="0 0 0 0 0 0 0 0 0 0 0 0 0 0 0 0 0 0 127 0"/><feOffset dy=".1"/><feGaussianBlur stdDeviation=".15"/><feComposite in2="hardAlpha" k2="-1" k3="1" operator="arithmetic"/><feColorMatrix values="0 0 0 0 0.694118 0 0 0 0 0.192157 0 0 0 0 0.360784 0 0 0 1 0"/><feBlend in2="shape" result="effect1_innerShadow_18_20721"/></filter></defs></svg>