<svg width="32" height="32" fill="none" xmlns="http://www.w3.org/2000/svg"><path d="M12.367 12.303a4.034 4.034 0 1 0 0-8.068 4.034 4.034 0 0 0 0 8.068Z" fill="url(#a)"/><path d="M12.367 12.303a4.034 4.034 0 1 0 0-8.068 4.034 4.034 0 0 0 0 8.068Z" fill="url(#b)"/><g filter="url(#c)"><path d="m8.789 22.994-2.39 3.27a1.805 1.805 0 0 1-2.526.393 1.805 1.805 0 0 1-.393-2.524l2.39-3.27a1.805 1.805 0 0 1 2.526-.394c.807.58.983 1.718.393 2.525Z" fill="#3239FF"/><path d="m8.789 22.994-2.39 3.27a1.805 1.805 0 0 1-2.526.393 1.805 1.805 0 0 1-.393-2.524l2.39-3.27a1.805 1.805 0 0 1 2.526-.394c.807.58.983 1.718.393 2.525Z" fill="url(#d)"/></g><g filter="url(#e)"><path d="m15.335 22.994-2.39 3.27a1.805 1.805 0 0 1-2.525.393 1.805 1.805 0 0 1-.393-2.524l2.39-3.27a1.805 1.805 0 0 1 2.525-.394c.807.58.983 1.718.393 2.525Z" fill="#3239FF"/><path d="m15.335 22.994-2.39 3.27a1.805 1.805 0 0 1-2.525.393 1.805 1.805 0 0 1-.393-2.524l2.39-3.27a1.805 1.805 0 0 1 2.525-.394c.807.58.983 1.718.393 2.525Z" fill="url(#f)"/></g><g filter="url(#g)"><path d="m21.881 22.994-2.39 3.27a1.805 1.805 0 0 1-2.525.393 1.805 1.805 0 0 1-.393-2.524l2.39-3.27a1.805 1.805 0 0 1 2.525-.394c.807.58.983 1.718.393 2.525Z" fill="url(#h)"/><path d="m21.881 22.994-2.39 3.27a1.805 1.805 0 0 1-2.525.393 1.805 1.805 0 0 1-.393-2.524l2.39-3.27a1.805 1.805 0 0 1 2.525-.394c.807.58.983 1.718.393 2.525Z" fill="url(#i)"/></g><g filter="url(#j)"><path d="M27.202 4.55c-3.544-3.454-9.216-3.394-12.67.15a8.935 8.935 0 0 0-2.014 3.196.268.268 0 0 1-.398.13 6.07 6.07 0 0 0-.984-.53A6.447 6.447 0 0 0 2 13.357a6.46 6.46 0 0 0 1.408 4.024 6.47 6.47 0 0 0 5.162 2.556h12.671a8.359 8.359 0 0 0 6.82-3.514c2.716-3.555 2.416-8.667-.859-11.872Z" fill="#E0D3FF"/></g><g filter="url(#k)"><path d="M27.202 4.55c-3.544-3.454-9.216-3.394-12.67.15a8.935 8.935 0 0 0-2.014 3.196.268.268 0 0 1-.398.13 6.07 6.07 0 0 0-.984-.53A6.447 6.447 0 0 0 2 13.357a6.46 6.46 0 0 0 1.408 4.024 6.47 6.47 0 0 0 5.162 2.556h12.671a8.359 8.359 0 0 0 6.82-3.514c2.716-3.555 2.416-8.667-.859-11.872Z" fill="#E0D3FF"/><path d="M27.202 4.55c-3.544-3.454-9.216-3.394-12.67.15a8.935 8.935 0 0 0-2.014 3.196.268.268 0 0 1-.398.13 6.07 6.07 0 0 0-.984-.53A6.447 6.447 0 0 0 2 13.357a6.46 6.46 0 0 0 1.408 4.024 6.47 6.47 0 0 0 5.162 2.556h12.671a8.359 8.359 0 0 0 6.82-3.514c2.716-3.555 2.416-8.667-.859-11.872Z" fill="url(#l)"/><path d="M27.202 4.55c-3.544-3.454-9.216-3.394-12.67.15a8.935 8.935 0 0 0-2.014 3.196.268.268 0 0 1-.398.13 6.07 6.07 0 0 0-.984-.53A6.447 6.447 0 0 0 2 13.357a6.46 6.46 0 0 0 1.408 4.024 6.47 6.47 0 0 0 5.162 2.556h12.671a8.359 8.359 0 0 0 6.82-3.514c2.716-3.555 2.416-8.667-.859-11.872Z" fill="url(#m)"/><path d="M27.202 4.55c-3.544-3.454-9.216-3.394-12.67.15a8.935 8.935 0 0 0-2.014 3.196.268.268 0 0 1-.398.13 6.07 6.07 0 0 0-.984-.53A6.447 6.447 0 0 0 2 13.357a6.46 6.46 0 0 0 1.408 4.024 6.47 6.47 0 0 0 5.162 2.556h12.671a8.359 8.359 0 0 0 6.82-3.514c2.716-3.555 2.416-8.667-.859-11.872Z" fill="url(#n)"/><path d="M27.202 4.55c-3.544-3.454-9.216-3.394-12.67.15a8.935 8.935 0 0 0-2.014 3.196.268.268 0 0 1-.398.13 6.07 6.07 0 0 0-.984-.53A6.447 6.447 0 0 0 2 13.357a6.46 6.46 0 0 0 1.408 4.024 6.47 6.47 0 0 0 5.162 2.556h12.671a8.359 8.359 0 0 0 6.82-3.514c2.716-3.555 2.416-8.667-.859-11.872Z" fill="url(#o)"/></g><defs><radialGradient id="a" cx="0" cy="0" r="1" gradientUnits="userSpaceOnUse" gradientTransform="rotate(-110.468 8.676 -.406) scale(3.57025 3.46764)"><stop offset=".307" stop-color="#CECDFF"/><stop offset="1" stop-color="#B7B6FA"/></radialGradient><radialGradient id="b" cx="0" cy="0" r="1" gradientUnits="userSpaceOnUse" gradientTransform="matrix(-1.23828 -.7496 2.49269 -4.1177 13.605 6.683)"><stop offset=".401" stop-color="#B8B7FF"/><stop offset="1" stop-color="#B8B7FF" stop-opacity="0"/></radialGradient><radialGradient id="d" cx="0" cy="0" r="1" gradientUnits="userSpaceOnUse" gradientTransform="rotate(142.938 1.301 11.974) scale(3.03715 2.64919)"><stop stop-color="#627AFE"/><stop offset="1" stop-color="#627AFE" stop-opacity="0"/></radialGradient><radialGradient id="f" cx="0" cy="0" r="1" gradientUnits="userSpaceOnUse" gradientTransform="rotate(142.938 4.574 13.07) scale(3.03715 2.64919)"><stop stop-color="#627AFE"/><stop offset="1" stop-color="#627AFE" stop-opacity="0"/></radialGradient><radialGradient id="i" cx="0" cy="0" r="1" gradientUnits="userSpaceOnUse" gradientTransform="rotate(142.938 7.847 14.168) scale(3.03715 2.64919)"><stop stop-color="#627AFE"/><stop offset="1" stop-color="#627AFE" stop-opacity="0"/></radialGradient><radialGradient id="l" cx="0" cy="0" r="1" gradientUnits="userSpaceOnUse" gradientTransform="matrix(-3.78308 -12.40873 6.9718 -2.1255 16.395 13.277)"><stop stop-color="#D6CCFF"/><stop offset="1" stop-color="#D6CCFF" stop-opacity="0"/></radialGradient><radialGradient id="m" cx="0" cy="0" r="1" gradientUnits="userSpaceOnUse" gradientTransform="rotate(147.006 13.079 7.761) scale(12.0883 13.5028)"><stop offset=".19" stop-color="#F2F0FF"/><stop offset="1" stop-color="#F2F0FF" stop-opacity="0"/></radialGradient><radialGradient id="n" cx="0" cy="0" r="1" gradientUnits="userSpaceOnUse" gradientTransform="rotate(147.319 3.003 6.529) scale(9.52873 11.6115)"><stop stop-color="#F2F0FF"/><stop offset=".696" stop-color="#F2F0FF" stop-opacity="0"/></radialGradient><radialGradient id="o" cx="0" cy="0" r="1" gradientUnits="userSpaceOnUse" gradientTransform="matrix(2.49688 7.64197 -2.84897 .93085 11.25 6.392)"><stop stop-color="#F2F0FF"/><stop offset="1" stop-color="#F2F0FF" stop-opacity="0"/></radialGradient><filter id="c" x="3.131" y="20.02" width="6.606" height="7.086" filterUnits="userSpaceOnUse" color-interpolation-filters="sRGB"><feFlood flood-opacity="0" result="BackgroundImageFix"/><feBlend in="SourceGraphic" in2="BackgroundImageFix" result="shape"/><feColorMatrix in="SourceAlpha" values="0 0 0 0 0 0 0 0 0 0 0 0 0 0 0 0 0 0 127 0" result="hardAlpha"/><feOffset dx=".6" dy="-.1"/><feGaussianBlur stdDeviation=".75"/><feComposite in2="hardAlpha" operator="arithmetic" k2="-1" k3="1"/><feColorMatrix values="0 0 0 0 0.196078 0 0 0 0 0.152941 0 0 0 0 0.972549 0 0 0 1 0"/><feBlend in2="shape" result="effect1_innerShadow_18_15159"/><feColorMatrix in="SourceAlpha" values="0 0 0 0 0 0 0 0 0 0 0 0 0 0 0 0 0 0 127 0" result="hardAlpha"/><feOffset dx=".1" dy=".1"/><feGaussianBlur stdDeviation=".25"/><feComposite in2="hardAlpha" operator="arithmetic" k2="-1" k3="1"/><feColorMatrix values="0 0 0 0 0.65098 0 0 0 0 0.529412 0 0 0 0 0.87451 0 0 0 1 0"/><feBlend in2="effect1_innerShadow_18_15159" result="effect2_innerShadow_18_15159"/></filter><filter id="e" x="9.678" y="20.02" width="6.606" height="7.086" filterUnits="userSpaceOnUse" color-interpolation-filters="sRGB"><feFlood flood-opacity="0" result="BackgroundImageFix"/><feBlend in="SourceGraphic" in2="BackgroundImageFix" result="shape"/><feColorMatrix in="SourceAlpha" values="0 0 0 0 0 0 0 0 0 0 0 0 0 0 0 0 0 0 127 0" result="hardAlpha"/><feOffset dx=".6" dy="-.1"/><feGaussianBlur stdDeviation=".75"/><feComposite in2="hardAlpha" operator="arithmetic" k2="-1" k3="1"/><feColorMatrix values="0 0 0 0 0.196078 0 0 0 0 0.152941 0 0 0 0 0.972549 0 0 0 1 0"/><feBlend in2="shape" result="effect1_innerShadow_18_15159"/><feColorMatrix in="SourceAlpha" values="0 0 0 0 0 0 0 0 0 0 0 0 0 0 0 0 0 0 127 0" result="hardAlpha"/><feOffset dx=".1" dy=".1"/><feGaussianBlur stdDeviation=".25"/><feComposite in2="hardAlpha" operator="arithmetic" k2="-1" k3="1"/><feColorMatrix values="0 0 0 0 0.65098 0 0 0 0 0.529412 0 0 0 0 0.87451 0 0 0 1 0"/><feBlend in2="effect1_innerShadow_18_15159" result="effect2_innerShadow_18_15159"/></filter><filter id="g" x="16.224" y="20.02" width="6.606" height="7.086" filterUnits="userSpaceOnUse" color-interpolation-filters="sRGB"><feFlood flood-opacity="0" result="BackgroundImageFix"/><feBlend in="SourceGraphic" in2="BackgroundImageFix" result="shape"/><feColorMatrix in="SourceAlpha" values="0 0 0 0 0 0 0 0 0 0 0 0 0 0 0 0 0 0 127 0" result="hardAlpha"/><feOffset dx=".6" dy="-.1"/><feGaussianBlur stdDeviation=".75"/><feComposite in2="hardAlpha" operator="arithmetic" k2="-1" k3="1"/><feColorMatrix values="0 0 0 0 0.196078 0 0 0 0 0.152941 0 0 0 0 0.972549 0 0 0 1 0"/><feBlend in2="shape" result="effect1_innerShadow_18_15159"/><feColorMatrix in="SourceAlpha" values="0 0 0 0 0 0 0 0 0 0 0 0 0 0 0 0 0 0 127 0" result="hardAlpha"/><feOffset dx=".1" dy=".1"/><feGaussianBlur stdDeviation=".25"/><feComposite in2="hardAlpha" operator="arithmetic" k2="-1" k3="1"/><feColorMatrix values="0 0 0 0 0.65098 0 0 0 0 0.529412 0 0 0 0 0.87451 0 0 0 1 0"/><feBlend in2="effect1_innerShadow_18_15159" result="effect2_innerShadow_18_15159"/></filter><filter id="j" x="2" y="2" width="27.899" height="17.938" filterUnits="userSpaceOnUse" color-interpolation-filters="sRGB"><feFlood flood-opacity="0" result="BackgroundImageFix"/><feBlend in="SourceGraphic" in2="BackgroundImageFix" result="shape"/><feColorMatrix in="SourceAlpha" values="0 0 0 0 0 0 0 0 0 0 0 0 0 0 0 0 0 0 127 0" result="hardAlpha"/><feOffset/><feGaussianBlur stdDeviation="2"/><feComposite in2="hardAlpha" operator="arithmetic" k2="-1" k3="1"/><feColorMatrix values="0 0 0 0 0.701961 0 0 0 0 0.698039 0 0 0 0 0.992157 0 0 0 1 0"/><feBlend in2="shape" result="effect1_innerShadow_18_15159"/></filter><filter id="k" x="2" y="2" width="27.899" height="17.938" filterUnits="userSpaceOnUse" color-interpolation-filters="sRGB"><feFlood flood-opacity="0" result="BackgroundImageFix"/><feBlend in="SourceGraphic" in2="BackgroundImageFix" result="shape"/><feColorMatrix in="SourceAlpha" values="0 0 0 0 0 0 0 0 0 0 0 0 0 0 0 0 0 0 127 0" result="hardAlpha"/><feOffset/><feGaussianBlur stdDeviation="3.5"/><feComposite in2="hardAlpha" operator="arithmetic" k2="-1" k3="1"/><feColorMatrix values="0 0 0 0 0.701961 0 0 0 0 0.698039 0 0 0 0 0.992157 0 0 0 1 0"/><feBlend in2="shape" result="effect1_innerShadow_18_15159"/><feColorMatrix in="SourceAlpha" values="0 0 0 0 0 0 0 0 0 0 0 0 0 0 0 0 0 0 127 0" result="hardAlpha"/><feOffset/><feGaussianBlur stdDeviation="1.25"/><feComposite in2="hardAlpha" operator="arithmetic" k2="-1" k3="1"/><feColorMatrix values="0 0 0 0 0.701961 0 0 0 0 0.698039 0 0 0 0 0.992157 0 0 0 1 0"/><feBlend in2="effect1_innerShadow_18_15159" result="effect2_innerShadow_18_15159"/></filter><linearGradient id="h" x1="22.23" y1="20.873" x2="17.066" y2="27.748" gradientUnits="userSpaceOnUse"><stop stop-color="#3364FE"/><stop offset="1" stop-color="#3749FF"/></linearGradient></defs></svg>