<svg width="32" height="32" fill="none" xmlns="http://www.w3.org/2000/svg"><path d="M12.26 17.644a4.04 4.04 0 1 0 0-8.08 4.04 4.04 0 0 0 0 8.08Z" fill="url(#a)"/><path d="M12.26 17.644a4.04 4.04 0 1 0 0-8.08 4.04 4.04 0 0 0 0 8.08Z" fill="url(#b)"/><g filter="url(#c)"><path d="M27.29 9.56c-3.557-3.467-9.248-3.407-12.715.15a8.966 8.966 0 0 0-2.02 3.208.268.268 0 0 1-.399.129 6.086 6.086 0 0 0-.988-.532A6.47 6.47 0 0 0 2 18.397c0 1.523.531 2.926 1.413 4.038A6.492 6.492 0 0 0 8.593 25h12.715a8.388 8.388 0 0 0 6.844-3.527c2.725-3.567 2.435-8.697-.862-11.914Z" fill="#D5D4DA"/><path d="M27.29 9.56c-3.557-3.467-9.248-3.407-12.715.15a8.966 8.966 0 0 0-2.02 3.208.268.268 0 0 1-.399.129 6.086 6.086 0 0 0-.988-.532A6.47 6.47 0 0 0 2 18.397c0 1.523.531 2.926 1.413 4.038A6.492 6.492 0 0 0 8.593 25h12.715a8.388 8.388 0 0 0 6.844-3.527c2.725-3.567 2.435-8.697-.862-11.914Z" fill="url(#d)"/></g><path d="M27.29 9.56c-3.557-3.467-9.248-3.407-12.715.15a8.966 8.966 0 0 0-2.02 3.208.268.268 0 0 1-.399.129 6.086 6.086 0 0 0-.988-.532A6.47 6.47 0 0 0 2 18.397c0 1.523.531 2.926 1.413 4.038A6.492 6.492 0 0 0 8.593 25h12.715a8.388 8.388 0 0 0 6.844-3.527c2.725-3.567 2.435-8.697-.862-11.914Z" fill="url(#e)"/><path d="M27.29 9.56c-3.557-3.467-9.248-3.407-12.715.15a8.966 8.966 0 0 0-2.02 3.208.268.268 0 0 1-.399.129 6.086 6.086 0 0 0-.988-.532A6.47 6.47 0 0 0 2 18.397c0 1.523.531 2.926 1.413 4.038A6.492 6.492 0 0 0 8.593 25h12.715a8.388 8.388 0 0 0 6.844-3.527c2.725-3.567 2.435-8.697-.862-11.914Z" fill="url(#f)"/><path d="M27.29 9.56c-3.557-3.467-9.248-3.407-12.715.15a8.966 8.966 0 0 0-2.02 3.208.268.268 0 0 1-.399.129 6.086 6.086 0 0 0-.988-.532A6.47 6.47 0 0 0 2 18.397c0 1.523.531 2.926 1.413 4.038A6.492 6.492 0 0 0 8.593 25h12.715a8.388 8.388 0 0 0 6.844-3.527c2.725-3.567 2.435-8.697-.862-11.914Z" fill="url(#g)"/><path d="M27.29 9.56c-3.557-3.467-9.248-3.407-12.715.15a8.966 8.966 0 0 0-2.02 3.208.268.268 0 0 1-.399.129 6.086 6.086 0 0 0-.988-.532A6.47 6.47 0 0 0 2 18.397c0 1.523.531 2.926 1.413 4.038A6.492 6.492 0 0 0 8.593 25h12.715a8.388 8.388 0 0 0 6.844-3.527c2.725-3.567 2.435-8.697-.862-11.914Z" fill="url(#h)"/><defs><radialGradient id="a" cx="0" cy="0" r="1" gradientUnits="userSpaceOnUse" gradientTransform="rotate(-172.463 7.257 5.601) scale(5.54446)"><stop offset=".309" stop-color="#E8E8E9"/><stop offset="1" stop-color="#D2D2D2"/></radialGradient><radialGradient id="b" cx="0" cy="0" r="1" gradientUnits="userSpaceOnUse" gradientTransform="matrix(-2.34711 -1.8843 1.72645 -2.1505 12.692 13.262)"><stop stop-color="#CDCDCE"/><stop offset="1" stop-color="#CDCDCE" stop-opacity="0"/></radialGradient><radialGradient id="e" cx="0" cy="0" r="1" gradientUnits="userSpaceOnUse" gradientTransform="rotate(136.5 10.583 11.787) scale(11.1541 11.965)"><stop offset=".179" stop-color="#FCFBFE"/><stop offset="1" stop-color="#FCFBFE" stop-opacity="0"/></radialGradient><radialGradient id="f" cx="0" cy="0" r="1" gradientUnits="userSpaceOnUse" gradientTransform="rotate(144.444 1.551 10.052) scale(6.84295 7.17037)"><stop stop-color="#FCFBFE"/><stop offset="1" stop-color="#FCFBFE" stop-opacity="0"/></radialGradient><radialGradient id="g" cx="0" cy="0" r="1" gradientUnits="userSpaceOnUse" gradientTransform="matrix(-23.2134 5.5071 -4.33701 -18.28129 25.213 15.466)"><stop offset=".815" stop-color="#CECCD7" stop-opacity="0"/><stop offset="1" stop-color="#CECCD7"/></radialGradient><radialGradient id="h" cx="0" cy="0" r="1" gradientUnits="userSpaceOnUse" gradientTransform="rotate(-46.79 32.892 6.486) scale(6.46347 8.91976)"><stop stop-color="#D0C9EE"/><stop offset="1" stop-color="#D0C9EE" stop-opacity="0"/></radialGradient><linearGradient id="d" x1="18.86" y1="24.032" x2="18.86" y2="16.519" gradientUnits="userSpaceOnUse"><stop stop-color="#DED7FA"/><stop offset="1" stop-color="#DED7FA" stop-opacity="0"/></linearGradient><filter id="c" x="2" y="6" width="28" height="19" filterUnits="userSpaceOnUse" color-interpolation-filters="sRGB"><feFlood flood-opacity="0" result="BackgroundImageFix"/><feBlend in="SourceGraphic" in2="BackgroundImageFix" result="shape"/><feColorMatrix in="SourceAlpha" values="0 0 0 0 0 0 0 0 0 0 0 0 0 0 0 0 0 0 127 0" result="hardAlpha"/><feOffset dy="-1"/><feGaussianBlur stdDeviation="1"/><feComposite in2="hardAlpha" operator="arithmetic" k2="-1" k3="1"/><feColorMatrix values="0 0 0 0 0.815686 0 0 0 0 0.784314 0 0 0 0 0.956863 0 0 0 1 0"/><feBlend in2="shape" result="effect1_innerShadow_18_14985"/></filter></defs></svg>