<svg width="32" height="32" fill="none" xmlns="http://www.w3.org/2000/svg"><g filter="url(#a)"><path d="M7.07 6.763a4.7 4.7 0 0 1 4.7-4.7h8.452a4.7 4.7 0 0 1 4.7 4.7v18.675a4.5 4.5 0 0 1-4.5 4.5H11.57a4.5 4.5 0 0 1-4.5-4.5V6.762Z" fill="url(#b)"/><path d="M7.07 6.763a4.7 4.7 0 0 1 4.7-4.7h8.452a4.7 4.7 0 0 1 4.7 4.7v18.675a4.5 4.5 0 0 1-4.5 4.5H11.57a4.5 4.5 0 0 1-4.5-4.5V6.762Z" fill="url(#c)"/></g><path d="M7.07 6.763a4.7 4.7 0 0 1 4.7-4.7h8.452a4.7 4.7 0 0 1 4.7 4.7v18.675a4.5 4.5 0 0 1-4.5 4.5H11.57a4.5 4.5 0 0 1-4.5-4.5V6.762Z" fill="url(#d)"/><g filter="url(#e)"><path d="M13.885 6.164a.25.25 0 0 1 .25-.25h2.586a.25.25 0 0 1 .25.25v5.57a.25.25 0 0 1-.25.25h-2.586a.25.25 0 0 1-.25-.25v-5.57Z" fill="#C3C1C5"/></g><g filter="url(#f)"><path d="M16.564 2.063v12.384a.568.568 0 0 1-1.136 0V2.063h1.136Z" fill="url(#g)"/></g><path d="M14.457 6.164a.25.25 0 0 1 .25-.25h2.586a.25.25 0 0 1 .25.25v5.57a.25.25 0 0 1-.25.25h-2.586a.25.25 0 0 1-.25-.25v-5.57Z" fill="url(#h)"/><path d="M14.457 6.164a.25.25 0 0 1 .25-.25h2.586a.25.25 0 0 1 .25.25v5.57a.25.25 0 0 1-.25.25h-2.586a.25.25 0 0 1-.25-.25v-5.57Z" fill="url(#i)"/><path d="M14.457 6.164a.25.25 0 0 1 .25-.25h2.586a.25.25 0 0 1 .25.25v5.57a.25.25 0 0 1-.25.25h-2.586a.25.25 0 0 1-.25-.25v-5.57Z" fill="url(#j)"/><defs><radialGradient id="b" cx="0" cy="0" r="1" gradientUnits="userSpaceOnUse" gradientTransform="matrix(0 19.375 -13.1875 0 23.125 9.75)"><stop offset=".272" stop-color="#E9E8EB"/><stop offset="1" stop-color="#D0CED2"/><stop offset="1" stop-color="#D0CED2"/></radialGradient><radialGradient id="c" cx="0" cy="0" r="1" gradientUnits="userSpaceOnUse" gradientTransform="matrix(0 -13.0625 27.1605 0 15.996 29.938)"><stop stop-color="#AFA0BF"/><stop offset="1" stop-color="#C9C4CE" stop-opacity="0"/></radialGradient><radialGradient id="g" cx="0" cy="0" r="1" gradientUnits="userSpaceOnUse" gradientTransform="matrix(0 10 -1.45792 0 16.564 7.219)"><stop offset=".204" stop-color="#8E8D8F"/><stop offset="1" stop-color="#A1A0A1"/></radialGradient><radialGradient id="i" cx="0" cy="0" r="1" gradientUnits="userSpaceOnUse" gradientTransform="matrix(0 3.10938 -2.25 0 17.828 8.688)"><stop stop-color="#A7A5A8"/><stop offset="1" stop-color="#A7A5A8" stop-opacity="0"/></radialGradient><radialGradient id="j" cx="0" cy="0" r="1" gradientUnits="userSpaceOnUse" gradientTransform="matrix(0 3.17188 -.4375 0 17.438 8.61)"><stop offset=".34" stop-color="#B2B1B4"/><stop offset="1" stop-color="#A9A7AA" stop-opacity="0"/></radialGradient><filter id="a" x="6.87" y="1.863" width="18.252" height="28.275" filterUnits="userSpaceOnUse" color-interpolation-filters="sRGB"><feFlood flood-opacity="0" result="BackgroundImageFix"/><feBlend in="SourceGraphic" in2="BackgroundImageFix" result="shape"/><feColorMatrix in="SourceAlpha" values="0 0 0 0 0 0 0 0 0 0 0 0 0 0 0 0 0 0 127 0" result="hardAlpha"/><feOffset dx=".2"/><feGaussianBlur stdDeviation=".3"/><feComposite in2="hardAlpha" operator="arithmetic" k2="-1" k3="1"/><feColorMatrix values="0 0 0 0 0.670588 0 0 0 0 0.635294 0 0 0 0 0.705882 0 0 0 1 0"/><feBlend in2="shape" result="effect1_innerShadow_18_19739"/><feColorMatrix in="SourceAlpha" values="0 0 0 0 0 0 0 0 0 0 0 0 0 0 0 0 0 0 127 0" result="hardAlpha"/><feOffset dx="-.2" dy=".2"/><feGaussianBlur stdDeviation=".2"/><feComposite in2="hardAlpha" operator="arithmetic" k2="-1" k3="1"/><feColorMatrix values="0 0 0 0 0.952941 0 0 0 0 0.952941 0 0 0 0 0.956863 0 0 0 1 0"/><feBlend in2="effect1_innerShadow_18_19739" result="effect2_innerShadow_18_19739"/><feColorMatrix in="SourceAlpha" values="0 0 0 0 0 0 0 0 0 0 0 0 0 0 0 0 0 0 127 0" result="hardAlpha"/><feOffset dy="-.2"/><feGaussianBlur stdDeviation=".2"/><feComposite in2="hardAlpha" operator="arithmetic" k2="-1" k3="1"/><feColorMatrix values="0 0 0 0 0.647059 0 0 0 0 0.568627 0 0 0 0 0.729412 0 0 0 1 0"/><feBlend in2="effect2_innerShadow_18_19739" result="effect3_innerShadow_18_19739"/></filter><filter id="e" x="12.885" y="4.914" width="5.086" height="8.07" filterUnits="userSpaceOnUse" color-interpolation-filters="sRGB"><feFlood flood-opacity="0" result="BackgroundImageFix"/><feBlend in="SourceGraphic" in2="BackgroundImageFix" result="shape"/><feGaussianBlur stdDeviation=".5" result="effect1_foregroundBlur_18_19739"/></filter><filter id="f" x="15.428" y="2.063" width="1.187" height="12.953" filterUnits="userSpaceOnUse" color-interpolation-filters="sRGB"><feFlood flood-opacity="0" result="BackgroundImageFix"/><feBlend in="SourceGraphic" in2="BackgroundImageFix" result="shape"/><feColorMatrix in="SourceAlpha" values="0 0 0 0 0 0 0 0 0 0 0 0 0 0 0 0 0 0 127 0" result="hardAlpha"/><feOffset dx=".05"/><feGaussianBlur stdDeviation=".1"/><feComposite in2="hardAlpha" operator="arithmetic" k2="-1" k3="1"/><feColorMatrix values="0 0 0 0 0.6 0 0 0 0 0.596078 0 0 0 0 0.607843 0 0 0 1 0"/><feBlend in2="shape" result="effect1_innerShadow_18_19739"/></filter><linearGradient id="d" x1="25.094" y1="16" x2="24.672" y2="16" gradientUnits="userSpaceOnUse"><stop offset=".407" stop-color="#E0DFE1"/><stop offset="1" stop-color="#E0DFE1" stop-opacity="0"/></linearGradient><linearGradient id="h" x1="16" y1="5.914" x2="16" y2="12.281" gradientUnits="userSpaceOnUse"><stop stop-color="#A3A3A4"/><stop offset="1" stop-color="#928D98"/></linearGradient></defs></svg>