<svg width="32" height="32" fill="none" xmlns="http://www.w3.org/2000/svg"><path fill="url(#a)" d="M9.605 11.855h.953v1.082h-.953z"/><path fill="url(#b)" d="M21.33 11.855h.836v1.082h-.836z"/><path d="M16.021 19.32c-.78 0-1.55.08-2.3.23v10.38h4.58V19.55c-.74-.15-1.5-.23-2.28-.23Z" fill="url(#c)"/><path d="M16.021 19.32c-.78 0-1.55.08-2.3.23v10.38h4.58V19.55c-.74-.15-1.5-.23-2.28-.23Z" fill="url(#d)"/><path d="M13.721 19.198c-.608.134-1.196.31-1.763.537V29.93h1.763V19.198Z" fill="url(#e)"/><path d="M13.721 19.198c-.608.134-1.196.31-1.763.537V29.93h1.763V19.198Z" fill="url(#f)"/><path d="M13.721 19.198c-.608.134-1.196.31-1.763.537V29.93h1.763V19.198Z" fill="url(#g)"/><path d="M18.279 19.198c.608.134 1.195.31 1.763.537V29.93H18.28V19.198Z" fill="url(#h)"/><path d="M18.279 19.198c.608.134 1.195.31 1.763.537V29.93H18.28V19.198Z" fill="url(#i)"/><path d="M8.389 22.017a.149.149 0 0 0-.048.11v7.802h1.634v-9.16c-.56.37-1.092.79-1.586 1.248Z" fill="url(#j)"/><path d="M8.389 22.017a.149.149 0 0 0-.048.11v7.802h1.634v-9.16c-.56.37-1.092.79-1.586 1.248Z" fill="url(#k)"/><path d="M8.389 22.017a.149.149 0 0 0-.048.11v7.802h1.634v-9.16c-.56.37-1.092.79-1.586 1.248Z" fill="url(#l)"/><path d="M23.659 22.061v7.868h-1.634v-9.16c.578.383 1.126.817 1.634 1.292Z" fill="url(#m)"/><path d="M23.659 22.061v7.868h-1.634v-9.16c.578.383 1.126.817 1.634 1.292Z" fill="url(#n)"/><path d="M9.975 20.77v9.16h1.983V19.735c-.698.28-1.355.62-1.983 1.034Z" fill="#FFCA44"/><path d="M9.975 20.77v9.16h1.983V19.735c-.698.28-1.355.62-1.983 1.034Z" fill="url(#o)"/><path d="M22.025 20.77v9.16h-1.983V19.735c.698.28 1.355.62 1.983 1.034Z" fill="url(#p)"/><path d="M22.025 20.77v9.16h-1.983V19.735c.698.28 1.355.62 1.983 1.034Z" fill="url(#q)"/><path d="M4.601 29.93c.14-.947.34-1.882.62-2.787a11.56 11.56 0 0 1 3.12-5.018v7.804h-3.74Z" fill="url(#r)"/><path d="M4.601 29.93c.14-.947.34-1.882.62-2.787a11.56 11.56 0 0 1 3.12-5.018v7.804h-3.74Z" fill="url(#s)"/><path d="M27.399 29.93c-.14-.947-.34-1.882-.62-2.787a11.56 11.56 0 0 0-3.12-5.018v7.804h3.74Z" fill="url(#t)"/><path d="M27.399 29.93c-.14-.947-.34-1.882-.62-2.787a11.56 11.56 0 0 0-3.12-5.018v7.804h3.74Z" fill="url(#u)"/><path d="M13.81 20.406c.06.76.585 2.282 2.211 2.282s2.151-1.521 2.211-2.282H13.81Z" fill="url(#v)"/><path d="M13.81 20.406c.06.76.585 2.282 2.211 2.282s2.151-1.521 2.211-2.282H13.81Z" fill="url(#w)"/><path d="M13.81 20.406c.06.76.585 2.282 2.211 2.282s2.151-1.521 2.211-2.282H13.81Z" fill="url(#x)"/><g filter="url(#y)"><ellipse cx="19.299" cy="10.856" rx="3.435" ry=".358" fill="#FFF060"/></g><g filter="url(#z)"><ellipse cx="19.329" cy="10.856" rx="2.827" ry=".264" fill="#FFF060"/></g><path d="M21.228 15.516c.363-.012.702-.135.978-.334v1.007a2.35 2.35 0 0 1-1.45 2.184c.184-.392.31-.82.374-1.276l.098-1.581Z" fill="url(#A)"/><path d="M10.71 15.516a1.774 1.774 0 0 1-.978-.334v1.007a2.35 2.35 0 0 0 1.45 2.184 4.42 4.42 0 0 1-.373-1.276l-.098-1.581Z" fill="url(#B)"/><g filter="url(#C)"><path d="M10.75 17.155a4.236 4.236 0 0 0 4.203 3.684h2.041a4.236 4.236 0 0 0 4.204-3.684c.127-2.038.255-4.067.35-6.104a1.568 1.568 0 0 0-1.492-1.549h-1.514a2.62 2.62 0 0 1-2.393-1.56.718.718 0 0 0-.665-.453h-1.377c-1.997 0-3.615 1.636-3.615 3.655 0 2.013.126 3.993.258 6.011Z" fill="url(#D)"/></g><path d="M10.75 17.155a4.236 4.236 0 0 0 4.203 3.684h2.041a4.236 4.236 0 0 0 4.204-3.684c.127-2.038.255-4.067.35-6.104a1.568 1.568 0 0 0-1.492-1.549h-1.514a2.62 2.62 0 0 1-2.393-1.56.718.718 0 0 0-.665-.453h-1.377c-1.997 0-3.615 1.636-3.615 3.655 0 2.013.126 3.993.258 6.011Z" fill="url(#E)"/><path d="M10.75 17.155a4.236 4.236 0 0 0 4.203 3.684h2.041a4.236 4.236 0 0 0 4.204-3.684c.127-2.038.255-4.067.35-6.104a1.568 1.568 0 0 0-1.492-1.549h-1.514a2.62 2.62 0 0 1-2.393-1.56.718.718 0 0 0-.665-.453h-1.377c-1.997 0-3.615 1.636-3.615 3.655 0 2.013.126 3.993.258 6.011Z" fill="url(#F)"/><path d="M10.75 17.155a4.236 4.236 0 0 0 4.203 3.684h2.041a4.236 4.236 0 0 0 4.204-3.684c.127-2.038.255-4.067.35-6.104a1.568 1.568 0 0 0-1.492-1.549h-1.514a2.62 2.62 0 0 1-2.393-1.56.718.718 0 0 0-.665-.453h-1.377c-1.997 0-3.615 1.636-3.615 3.655 0 2.013.126 3.993.258 6.011Z" fill="url(#G)"/><path d="M10.75 17.155a4.236 4.236 0 0 0 4.203 3.684h2.041a4.236 4.236 0 0 0 4.204-3.684c.127-2.038.255-4.067.35-6.104a1.568 1.568 0 0 0-1.492-1.549h-1.514a2.62 2.62 0 0 1-2.393-1.56.718.718 0 0 0-.665-.453h-1.377c-1.997 0-3.615 1.636-3.615 3.655 0 2.013.126 3.993.258 6.011Z" fill="url(#H)"/><path d="M10.75 17.155a4.236 4.236 0 0 0 4.203 3.684h2.041a4.236 4.236 0 0 0 4.204-3.684c.127-2.038.255-4.067.35-6.104a1.568 1.568 0 0 0-1.492-1.549h-1.514a2.62 2.62 0 0 1-2.393-1.56.718.718 0 0 0-.665-.453h-1.377c-1.997 0-3.615 1.636-3.615 3.655 0 2.013.126 3.993.258 6.011Z" fill="url(#I)"/><path d="M10.75 17.155a4.236 4.236 0 0 0 4.203 3.684h2.041a4.236 4.236 0 0 0 4.204-3.684c.127-2.038.255-4.067.35-6.104a1.568 1.568 0 0 0-1.492-1.549h-1.514a2.62 2.62 0 0 1-2.393-1.56.718.718 0 0 0-.665-.453h-1.377c-1.997 0-3.615 1.636-3.615 3.655 0 2.013.126 3.993.258 6.011Z" fill="url(#J)"/><path d="M10.75 17.155a4.236 4.236 0 0 0 4.203 3.684h2.041a4.236 4.236 0 0 0 4.204-3.684c.127-2.038.255-4.067.35-6.104a1.568 1.568 0 0 0-1.492-1.549h-1.514a2.62 2.62 0 0 1-2.393-1.56.718.718 0 0 0-.665-.453h-1.377c-1.997 0-3.615 1.636-3.615 3.655 0 2.013.126 3.993.258 6.011Z" fill="url(#K)"/><path d="M10.75 17.155a4.236 4.236 0 0 0 4.203 3.684h2.041a4.236 4.236 0 0 0 4.204-3.684c.127-2.038.255-4.067.35-6.104a1.568 1.568 0 0 0-1.492-1.549h-1.514a2.62 2.62 0 0 1-2.393-1.56.718.718 0 0 0-.665-.453h-1.377c-1.997 0-3.615 1.636-3.615 3.655 0 2.013.126 3.993.258 6.011Z" fill="url(#L)"/><path d="M10.75 17.155a4.236 4.236 0 0 0 4.203 3.684h2.041a4.236 4.236 0 0 0 4.204-3.684c.127-2.038.255-4.067.35-6.104a1.568 1.568 0 0 0-1.492-1.549h-1.514a2.62 2.62 0 0 1-2.393-1.56.718.718 0 0 0-.665-.453h-1.377c-1.997 0-3.615 1.636-3.615 3.655 0 2.013.126 3.993.258 6.011Z" fill="url(#M)"/><path d="M10.75 17.155a4.236 4.236 0 0 0 4.203 3.684h2.041a4.236 4.236 0 0 0 4.204-3.684c.127-2.038.255-4.067.35-6.104a1.568 1.568 0 0 0-1.492-1.549h-1.514a2.62 2.62 0 0 1-2.393-1.56.718.718 0 0 0-.665-.453h-1.377c-1.997 0-3.615 1.636-3.615 3.655 0 2.013.126 3.993.258 6.011Z" fill="url(#N)"/><g filter="url(#O)"><path d="m15.535 13.603-.639 1.989c-.11.409.153.818.524.818h.792c.37 0 .633-.416.524-.819l-.535-1.988c-.115-.44-.546-.44-.666 0Z" fill="#331E24"/></g><g filter="url(#P)"><path d="m15.556 13.39-.575 1.99c-.117.409.164.818.563.818h.85c.4 0 .681-.416.564-.818l-.575-1.99c-.123-.44-.698-.44-.827 0Z" fill="#402929"/><path d="m15.556 13.39-.575 1.99c-.117.409.164.818.563.818h.85c.4 0 .681-.416.564-.818l-.575-1.99c-.123-.44-.698-.44-.827 0Z" fill="url(#Q)"/><path d="m15.556 13.39-.575 1.99c-.117.409.164.818.563.818h.85c.4 0 .681-.416.564-.818l-.575-1.99c-.123-.44-.698-.44-.827 0Z" fill="url(#R)"/><path d="m15.556 13.39-.575 1.99c-.117.409.164.818.563.818h.85c.4 0 .681-.416.564-.818l-.575-1.99c-.123-.44-.698-.44-.827 0Z" fill="url(#S)"/><path d="m15.556 13.39-.575 1.99c-.117.409.164.818.563.818h.85c.4 0 .681-.416.564-.818l-.575-1.99c-.123-.44-.698-.44-.827 0Z" fill="url(#T)"/><path d="m15.556 13.39-.575 1.99c-.117.409.164.818.563.818h.85c.4 0 .681-.416.564-.818l-.575-1.99c-.123-.44-.698-.44-.827 0Z" fill="url(#U)"/></g><g filter="url(#V)"><path d="M14.505 16.875c.423.22.927.347 1.464.347.543 0 1.042-.126 1.464-.347h.001a.24.24 0 0 1 .286.047c.068.071.093.185.025.288m-3.24-.335 3.177.293m-3.177-.293a.24.24 0 0 0-.286.05.223.223 0 0 0-.025.285m.311-.335-.248.293m3.488.042-.063-.042m.063.042-.063-.042m.063.042c-.376.569-1.03.948-1.776.948-.744 0-1.399-.379-1.775-.948m3.488-.042c-.362.55-.993.915-1.713.915-.719 0-1.35-.366-1.712-.915m-.063.042.063-.042m-.063.042.063-.042" stroke="url(#W)" stroke-width=".15"/></g><path d="M15.97 17.297a3.25 3.25 0 0 1-1.5-.355c-.148-.075-.307.092-.213.226.362.55.993.915 1.712.915.72 0 1.35-.366 1.713-.915.094-.14-.066-.301-.214-.226a3.234 3.234 0 0 1-1.499.355Z" fill="url(#X)"/><path d="M18.556 12.363c.706 0 1.303.487 1.465 1.145a.297.297 0 0 1-.29.369h-2.413a.249.249 0 0 1-.245-.294 1.512 1.512 0 0 1 1.483-1.22Z" fill="#fff"/><path d="M18.332 12.657a.966.966 0 0 1 .93 1.22h-1.865a.97.97 0 0 1 .935-1.22Z" fill="url(#Y)"/><path d="M17.779 13.622a.55.55 0 0 1 .553-.553.55.55 0 0 1 .491.808h-.978a.5.5 0 0 1-.066-.255Z" fill="#000"/><g filter="url(#Z)"><path d="M18.26 12.861c.07.092-.074.204-.238.326-.163.123-.284.209-.353.117-.069-.092.008-.266.171-.388.164-.122.352-.147.42-.055Z" fill="#C7A7A3"/><path d="M18.26 12.861c.07.092-.074.204-.238.326-.163.123-.284.209-.353.117-.069-.092.008-.266.171-.388.164-.122.352-.147.42-.055Z" fill="url(#aa)"/></g><g filter="url(#ab)"><path d="M19.192 13.495a.91.91 0 0 0-.25-.5l-.281.308.126.247.405-.055Z" fill="url(#ac)"/></g><path d="M13.383 12.363c-.707 0-1.304.487-1.466 1.145a.297.297 0 0 0 .29.369h2.413c.154 0 .277-.14.246-.294a1.516 1.516 0 0 0-1.483-1.22Z" fill="#fff"/><path d="M13.607 12.657a.965.965 0 0 0-.93 1.22h1.864a.99.99 0 0 0 .035-.255.972.972 0 0 0-.97-.965Z" fill="url(#ad)"/><path d="M14.16 13.622a.55.55 0 0 0-.553-.553.55.55 0 0 0-.492.808h.979a.548.548 0 0 0 .066-.255Z" fill="#000"/><g filter="url(#ae)"><path d="M14.489 13.51c0-.313-.254-.52-.323-.584l-.312.302.192.39.443-.109Z" fill="url(#af)"/></g><g filter="url(#ag)" transform="rotate(-27.914 13.315 13.07)"><ellipse cx="13.315" cy="13.069" rx=".421" ry=".213" fill="#C7A7A3" fill-opacity=".9"/><ellipse cx="13.315" cy="13.069" rx=".421" ry=".213" fill="url(#ah)"/></g><path d="M21.294 15.614c.07-1.15.14-2.3.2-3.452a1.741 1.741 0 0 1-.2 3.452Z" fill="url(#ai)"/><path d="M21.294 15.614c.07-1.15.14-2.3.2-3.452a1.741 1.741 0 0 1-.2 3.452Z" fill="url(#aj)"/><path d="M21.294 15.614c.07-1.15.14-2.3.2-3.452a1.741 1.741 0 0 1-.2 3.452Z" fill="url(#ak)"/><path d="M21.294 15.614c.07-1.15.14-2.3.2-3.452a1.741 1.741 0 0 1-.2 3.452Z" fill="url(#al)"/><path d="M10.502 12.153a1.741 1.741 0 0 0 .15 3.462 84.481 84.481 0 0 1-.15-3.462Z" fill="url(#am)"/><path d="M10.502 12.153a1.741 1.741 0 0 0 .15 3.462 84.481 84.481 0 0 1-.15-3.462Z" fill="url(#an)"/><g filter="url(#ao)"><path d="M10.468 12.868a1.034 1.034 0 0 0 .09 2.033 84.234 84.234 0 0 1-.09-2.033Z" fill="url(#ap)"/></g><g filter="url(#aq)"><path d="M21.316 14.906c.042-.686.082-1.372.12-2.059a1.034 1.034 0 0 1-.12 2.06Z" fill="url(#ar)"/></g><path d="M9.771 7.178a4.1 4.1 0 0 1 4.1-4.1h3.988a4.1 4.1 0 0 1 4.1 4.1V9.86H9.77V7.18Z" fill="url(#as)"/><path d="M9.771 7.178a4.1 4.1 0 0 1 4.1-4.1h3.988a4.1 4.1 0 0 1 4.1 4.1V9.86H9.77V7.18Z" fill="url(#at)"/><path d="M9.771 7.178a4.1 4.1 0 0 1 4.1-4.1h3.988a4.1 4.1 0 0 1 4.1 4.1V9.86H9.77V7.18Z" fill="url(#au)"/><path d="M9.771 7.178a4.1 4.1 0 0 1 4.1-4.1h3.988a4.1 4.1 0 0 1 4.1 4.1V9.86H9.77V7.18Z" fill="url(#av)"/><path d="M9.771 7.178a4.1 4.1 0 0 1 4.1-4.1h3.988a4.1 4.1 0 0 1 4.1 4.1V9.86H9.77V7.18Z" fill="url(#aw)"/><path d="M9.771 7.178a4.1 4.1 0 0 1 4.1-4.1h3.988a4.1 4.1 0 0 1 4.1 4.1V9.86H9.77V7.18Z" fill="url(#ax)"/><path d="M9.771 7.178a4.1 4.1 0 0 1 4.1-4.1h3.988a4.1 4.1 0 0 1 4.1 4.1V9.86H9.77V7.18Z" fill="url(#ay)"/><path d="M9.771 7.178a4.1 4.1 0 0 1 4.1-4.1h3.988a4.1 4.1 0 0 1 4.1 4.1V9.86H9.77V7.18Z" fill="url(#az)"/><g filter="url(#aA)"><path d="M14.615 2.07h2.39c.829 0 1.5.603 1.5 1.633v6.795h-5.39V3.703c0-1.03.671-1.633 1.5-1.633Z" fill="url(#aB)"/><path d="M14.615 2.07h2.39c.829 0 1.5.603 1.5 1.633v6.795h-5.39V3.703c0-1.03.671-1.633 1.5-1.633Z" fill="url(#aC)"/><path d="M14.615 2.07h2.39c.829 0 1.5.603 1.5 1.633v6.795h-5.39V3.703c0-1.03.671-1.633 1.5-1.633Z" fill="url(#aD)"/><path d="M14.615 2.07h2.39c.829 0 1.5.603 1.5 1.633v6.795h-5.39V3.703c0-1.03.671-1.633 1.5-1.633Z" fill="url(#aE)"/></g><path d="M22.266 9.842H9.672a1.153 1.153 0 1 0 0 2.306h12.594c.642 0 1.153-.52 1.153-1.153a1.147 1.147 0 0 0-1.153-1.153Z" fill="url(#aF)"/><path d="M22.266 9.842H9.672a1.153 1.153 0 1 0 0 2.306h12.594c.642 0 1.153-.52 1.153-1.153a1.147 1.147 0 0 0-1.153-1.153Z" fill="url(#aG)"/><path d="M22.266 9.842H9.672a1.153 1.153 0 1 0 0 2.306h12.594c.642 0 1.153-.52 1.153-1.153a1.147 1.147 0 0 0-1.153-1.153Z" fill="url(#aH)"/><path d="M22.266 9.842H9.672a1.153 1.153 0 1 0 0 2.306h12.594c.642 0 1.153-.52 1.153-1.153a1.147 1.147 0 0 0-1.153-1.153Z" fill="url(#aI)"/><defs><radialGradient id="c" cx="0" cy="0" r="1" gradientUnits="userSpaceOnUse" gradientTransform="matrix(0 -9.625 6.57257 0 16.011 29.734)"><stop stop-color="#FF804B"/><stop offset="1" stop-color="#FF8B3C"/></radialGradient><radialGradient id="d" cx="0" cy="0" r="1" gradientUnits="userSpaceOnUse" gradientTransform="matrix(-1.28125 0 0 -12.5036 18.677 26.172)"><stop stop-color="#FF8E3D"/><stop offset="1" stop-color="#FF8E3D" stop-opacity="0"/></radialGradient><radialGradient id="e" cx="0" cy="0" r="1" gradientUnits="userSpaceOnUse" gradientTransform="matrix(0 5.91396 -1.61702 0 13.721 24.564)"><stop stop-color="#FF7446"/><stop offset="1" stop-color="#FF6F4E"/></radialGradient><radialGradient id="f" cx="0" cy="0" r="1" gradientUnits="userSpaceOnUse" gradientTransform="matrix(0 4.55816 -.70149 0 13.721 26.231)"><stop offset=".35" stop-color="#FF7E58"/><stop offset="1" stop-color="#FF7E58" stop-opacity="0"/></radialGradient><radialGradient id="g" cx="0" cy="0" r="1" gradientUnits="userSpaceOnUse" gradientTransform="rotate(116.713 .93 14.396) scale(3.38004 5.52184)"><stop offset=".343" stop-color="#DA4708"/><stop offset="1" stop-color="#DC5314" stop-opacity="0"/></radialGradient><radialGradient id="h" cx="0" cy="0" r="1" gradientUnits="userSpaceOnUse" gradientTransform="matrix(0 9.4375 -2.83386 0 20.042 20.266)"><stop stop-color="#FF7523"/><stop offset="1" stop-color="#FB684A"/></radialGradient><radialGradient id="i" cx="0" cy="0" r="1" gradientUnits="userSpaceOnUse" gradientTransform="matrix(.88171 0 0 11.0473 18.279 27.384)"><stop offset=".214" stop-color="#F25937"/><stop offset="1" stop-color="#F25937" stop-opacity="0"/></radialGradient><radialGradient id="k" cx="0" cy="0" r="1" gradientUnits="userSpaceOnUse" gradientTransform="matrix(-3.52726 -8.45621 9.64626 -4.02365 12.416 28.884)"><stop offset=".684" stop-color="#E07241" stop-opacity="0"/><stop offset=".951" stop-color="#CC6E42"/></radialGradient><radialGradient id="l" cx="0" cy="0" r="1" gradientUnits="userSpaceOnUse" gradientTransform="matrix(.13057 0 0 9.00654 8.341 29.93)"><stop offset=".245" stop-color="#DE521D"/><stop offset="1" stop-color="#DE521D" stop-opacity="0"/></radialGradient><radialGradient id="m" cx="0" cy="0" r="1" gradientUnits="userSpaceOnUse" gradientTransform="matrix(0 8.78322 -2.01004 0 23.659 22.543)"><stop offset=".309" stop-color="#FF905A"/><stop offset="1" stop-color="#FF7955"/></radialGradient><radialGradient id="n" cx="0" cy="0" r="1" gradientUnits="userSpaceOnUse" gradientTransform="matrix(0 4.375 -.27856 0 23.659 27.937)"><stop offset=".325" stop-color="#FE713A"/><stop offset="1" stop-color="#FE713A" stop-opacity="0"/></radialGradient><radialGradient id="o" cx="0" cy="0" r="1" gradientUnits="userSpaceOnUse" gradientTransform="rotate(-108.091 18.473 10.12) scale(11.6646 18.6686)"><stop offset=".566" stop-color="#FDBF28" stop-opacity="0"/><stop offset=".971" stop-color="#CD963A"/></radialGradient><radialGradient id="q" cx="0" cy="0" r="1" gradientUnits="userSpaceOnUse" gradientTransform="matrix(1.79395 -5.21875 8.06034 2.77074 19.24 25.36)"><stop offset=".834" stop-color="#FFCE64" stop-opacity="0"/><stop offset=".998" stop-color="#FFCE64"/></radialGradient><radialGradient id="r" cx="0" cy="0" r="1" gradientUnits="userSpaceOnUse" gradientTransform="matrix(1.87 -7.3125 2.94555 .75325 6.471 28.89)"><stop stop-color="#F37D42"/><stop offset="1" stop-color="#CE763C"/></radialGradient><radialGradient id="t" cx="0" cy="0" r="1" gradientUnits="userSpaceOnUse" gradientTransform="matrix(-1.40625 -8.13268 2.48004 -.42883 25.677 29.93)"><stop stop-color="#FF9C5E"/><stop offset="1" stop-color="#FF9457"/></radialGradient><radialGradient id="u" cx="0" cy="0" r="1" gradientUnits="userSpaceOnUse" gradientTransform="matrix(0 -8.32422 .62514 0 23.659 29.93)"><stop offset=".353" stop-color="#EE6A13"/><stop offset="1" stop-color="#EE6A13" stop-opacity="0"/></radialGradient><radialGradient id="v" cx="0" cy="0" r="1" gradientUnits="userSpaceOnUse" gradientTransform="matrix(0 2 -3.968 0 16.021 20.688)"><stop offset=".133" stop-color="#381A27"/><stop offset=".88" stop-color="#44242E"/></radialGradient><radialGradient id="w" cx="0" cy="0" r="1" gradientUnits="userSpaceOnUse" gradientTransform="rotate(125.503 3.823 15.175) scale(3.01336 1.49475)"><stop offset=".239" stop-color="#472928"/><stop offset="1" stop-color="#472928" stop-opacity="0"/></radialGradient><radialGradient id="x" cx="0" cy="0" r="1" gradientUnits="userSpaceOnUse" gradientTransform="matrix(-2.64062 1.4375 -2.5012 -4.5946 16.693 20.406)"><stop offset=".694" stop-color="#381B17" stop-opacity="0"/><stop offset="1" stop-color="#381B17"/></radialGradient><radialGradient id="A" cx="0" cy="0" r="1" gradientUnits="userSpaceOnUse" gradientTransform="matrix(.81 2.18465 -2.5952 .96221 21.111 15.182)"><stop offset=".215" stop-color="#3C3B3C"/><stop offset="1" stop-color="#221C27"/></radialGradient><radialGradient id="B" cx="0" cy="0" r="1" gradientUnits="userSpaceOnUse" gradientTransform="matrix(1.59718 .50197 -1.54861 4.9274 9.418 15.713)"><stop stop-color="#463C39"/><stop offset=".746" stop-color="#1B141E"/></radialGradient><radialGradient id="D" cx="0" cy="0" r="1" gradientUnits="userSpaceOnUse" gradientTransform="matrix(-5.65527 0 0 -10.0041 19.007 14.164)"><stop stop-color="#563B38"/><stop offset="1" stop-color="#3C2828"/></radialGradient><radialGradient id="F" cx="0" cy="0" r="1" gradientUnits="userSpaceOnUse" gradientTransform="rotate(94.704 5.263 12.026) scale(13.4847 11.1669)"><stop offset=".767" stop-color="#432742" stop-opacity="0"/><stop offset=".997" stop-color="#432742"/></radialGradient><radialGradient id="G" cx="0" cy="0" r="1" gradientUnits="userSpaceOnUse" gradientTransform="matrix(0 -1.24224 1.53727 0 18.616 12.744)"><stop offset=".325" stop-color="#432728"/><stop offset="1" stop-color="#432728" stop-opacity="0"/></radialGradient><radialGradient id="H" cx="0" cy="0" r="1" gradientUnits="userSpaceOnUse" gradientTransform="matrix(.00425 -1.18374 1.2882 .00463 13.481 12.794)"><stop offset=".378" stop-color="#361E27"/><stop offset="1" stop-color="#361E27" stop-opacity="0"/></radialGradient><radialGradient id="I" cx="0" cy="0" r="1" gradientUnits="userSpaceOnUse" gradientTransform="rotate(176.388 9.601 7.927) scale(9.2089 23.5241)"><stop offset=".836" stop-color="#564440" stop-opacity="0"/><stop offset="1" stop-color="#564440"/></radialGradient><radialGradient id="J" cx="0" cy="0" r="1" gradientUnits="userSpaceOnUse" gradientTransform="matrix(4.406 -2.86481 1.04872 1.6129 10.055 9.485)"><stop offset=".38" stop-color="#231112"/><stop offset="1" stop-color="#231112" stop-opacity="0"/></radialGradient><radialGradient id="K" cx="0" cy="0" r="1" gradientUnits="userSpaceOnUse" gradientTransform="matrix(-.25384 2.70162 -1.07995 -.10147 21.967 11.008)"><stop offset=".245" stop-color="#6B5B59"/><stop offset="1" stop-color="#6B5B59" stop-opacity="0"/></radialGradient><radialGradient id="L" cx="0" cy="0" r="1" gradientUnits="userSpaceOnUse" gradientTransform="rotate(121.159 6.822 9.632) scale(3.64443 3.00877)"><stop offset=".078" stop-color="#534445"/><stop offset="1" stop-color="#534445" stop-opacity="0"/></radialGradient><radialGradient id="N" cx="0" cy="0" r="1" gradientUnits="userSpaceOnUse" gradientTransform="matrix(0 2.34325 -3.86516 0 16.02 11.82)"><stop offset=".133" stop-color="#3D2427"/><stop offset="1" stop-color="#3D2427" stop-opacity="0"/></radialGradient><radialGradient id="R" cx="0" cy="0" r="1" gradientUnits="userSpaceOnUse" gradientTransform="matrix(0 .26406 -.8299 0 16.474 15.636)"><stop stop-color="#685554"/><stop offset="1" stop-color="#685554" stop-opacity="0"/></radialGradient><radialGradient id="T" cx="0" cy="0" r="1" gradientUnits="userSpaceOnUse" gradientTransform="matrix(-1.6455 .75445 -1.21247 -2.64448 16.6 15.02)"><stop offset=".714" stop-color="#3E2B29" stop-opacity="0"/><stop offset="1" stop-color="#3F2C2A"/></radialGradient><radialGradient id="X" cx="0" cy="0" r="1" gradientUnits="userSpaceOnUse" gradientTransform="matrix(0 -.77966 3.13678 0 15.97 17.993)"><stop stop-color="#290018"/><stop offset="1" stop-color="#290017"/></radialGradient><radialGradient id="Y" cx="0" cy="0" r="1" gradientUnits="userSpaceOnUse" gradientTransform="matrix(0 .87765 -1.396 0 18.33 13.173)"><stop offset=".802" stop-color="#7D574A"/><stop offset="1" stop-color="#694B43"/><stop offset="1" stop-color="#804D49"/><stop offset="1" stop-color="#664842"/></radialGradient><radialGradient id="aa" cx="0" cy="0" r="1" gradientUnits="userSpaceOnUse" gradientTransform="rotate(-127.812 12.29 2.204) scale(.40922 .56339)"><stop offset=".766" stop-color="#FFE6E2" stop-opacity="0"/><stop offset=".966" stop-color="#FFE6E2"/></radialGradient><radialGradient id="ad" cx="0" cy="0" r="1" gradientUnits="userSpaceOnUse" gradientTransform="matrix(0 .8777 -1.39608 0 13.609 13.173)"><stop offset=".802" stop-color="#7D574A"/><stop offset="1" stop-color="#694B43"/><stop offset="1" stop-color="#804D49"/><stop offset="1" stop-color="#664842"/></radialGradient><radialGradient id="ah" cx="0" cy="0" r="1" gradientUnits="userSpaceOnUse" gradientTransform="rotate(-90.897 13.25 .159) scale(.53455 .64254)"><stop offset=".766" stop-color="#FFE6E2" stop-opacity="0"/><stop offset=".966" stop-color="#FFE6E2"/></radialGradient><radialGradient id="aj" cx="0" cy="0" r="1" gradientUnits="userSpaceOnUse" gradientTransform="matrix(.67994 2.42668 -2.31524 .64872 20.965 13.188)"><stop offset=".856" stop-color="#301924" stop-opacity="0"/><stop offset="1" stop-color="#301924"/></radialGradient><radialGradient id="ak" cx="0" cy="0" r="1" gradientUnits="userSpaceOnUse" gradientTransform="matrix(.8522 -1.1695 .98027 .7143 21.354 13.777)"><stop offset=".664" stop-color="#351B1E"/><stop offset="1" stop-color="#351B1E" stop-opacity="0"/></radialGradient><radialGradient id="al" cx="0" cy="0" r="1" gradientUnits="userSpaceOnUse" gradientTransform="rotate(-69.263 20.848 -8.567) scale(1.79336 2.39618)"><stop offset=".803" stop-color="#361C1E" stop-opacity="0"/><stop offset=".966" stop-color="#361C1E"/></radialGradient><radialGradient id="an" cx="0" cy="0" r="1" gradientUnits="userSpaceOnUse" gradientTransform="matrix(-.44663 2.24576 -2.20778 -.43908 10.276 13.37)"><stop offset=".775" stop-color="#301929" stop-opacity="0"/><stop offset="1" stop-color="#301929"/></radialGradient><radialGradient id="ap" cx="0" cy="0" r="1" gradientUnits="userSpaceOnUse" gradientTransform="matrix(-.99141 .17018 -.07506 -.43727 10.653 13.884)"><stop stop-color="#2C1D22"/><stop offset="1" stop-color="#271416"/></radialGradient><radialGradient id="as" cx="0" cy="0" r="1" gradientUnits="userSpaceOnUse" gradientTransform="matrix(0 4.5625 -2.88065 0 19.584 6.797)"><stop stop-color="#FFEE61"/><stop offset="1" stop-color="#FD4"/></radialGradient><radialGradient id="at" cx="0" cy="0" r="1" gradientUnits="userSpaceOnUse" gradientTransform="matrix(0 -16 5.79775 0 11.834 9.86)"><stop offset=".301" stop-color="#E9B840"/><stop offset="1" stop-color="#E9B840" stop-opacity="0"/></radialGradient><radialGradient id="au" cx="0" cy="0" r="1" gradientUnits="userSpaceOnUse" gradientTransform="matrix(1.28125 -8 15.26892 2.44541 17.24 10.297)"><stop offset=".814" stop-color="#EECD67" stop-opacity="0"/><stop offset=".946" stop-color="#EECD67"/></radialGradient><radialGradient id="av" cx="0" cy="0" r="1" gradientUnits="userSpaceOnUse" gradientTransform="matrix(0 6.875 -.59037 0 13.177 6.469)"><stop offset=".305" stop-color="#D7A439"/><stop offset="1" stop-color="#E1B037" stop-opacity="0"/></radialGradient><radialGradient id="aw" cx="0" cy="0" r="1" gradientUnits="userSpaceOnUse" gradientTransform="rotate(84.92 5.174 8.62) scale(4.23538 1.69194)"><stop offset=".103" stop-color="#B59741"/><stop offset="1" stop-color="#CBA731" stop-opacity="0"/></radialGradient><radialGradient id="ax" cx="0" cy="0" r="1" gradientUnits="userSpaceOnUse" gradientTransform="matrix(-5.24995 -6.37504 7.8363 -6.45332 16.74 9.703)"><stop offset=".781" stop-color="#C3A852" stop-opacity="0"/><stop offset="1" stop-color="#C3A852"/></radialGradient><radialGradient id="az" cx="0" cy="0" r="1" gradientUnits="userSpaceOnUse" gradientTransform="matrix(0 -.59375 5.79687 0 10.959 10.094)"><stop offset=".263" stop-color="#C8A03F"/><stop offset="1" stop-color="#C8A03F" stop-opacity="0"/></radialGradient><radialGradient id="aD" cx="0" cy="0" r="1" gradientUnits="userSpaceOnUse" gradientTransform="matrix(0 -9.0625 1 0 13.459 9.86)"><stop stop-color="#E3B438"/><stop offset="1" stop-color="#E3B438" stop-opacity="0"/></radialGradient><radialGradient id="aE" cx="0" cy="0" r="1" gradientUnits="userSpaceOnUse" gradientTransform="matrix(0 -8.78125 1.6875 0 18.334 9.922)"><stop stop-color="#FFE550"/><stop offset="1" stop-color="#FFE550" stop-opacity="0"/></radialGradient><radialGradient id="aI" cx="0" cy="0" r="1" gradientUnits="userSpaceOnUse" gradientTransform="rotate(75.753 .105 11.987) scale(2.12564 12.7111)"><stop offset=".173" stop-color="#C4A966"/><stop offset="1" stop-color="#DFB83E" stop-opacity="0"/></radialGradient><linearGradient id="a" x1="10.558" y1="12.164" x2="9.521" y2="12.164" gradientUnits="userSpaceOnUse"><stop stop-color="#3A2D2B"/><stop offset="1" stop-color="#4A4545"/></linearGradient><linearGradient id="b" x1="21.396" y1="12.203" x2="22.084" y2="12.203" gradientUnits="userSpaceOnUse"><stop stop-color="#2D2425"/><stop offset="1" stop-color="#4F4C4D"/></linearGradient><linearGradient id="j" x1="9.158" y1="21.199" x2="9.158" y2="29.929" gradientUnits="userSpaceOnUse"><stop stop-color="#E6743E"/><stop offset="1" stop-color="#F46D40"/></linearGradient><linearGradient id="p" x1="21.034" y1="19.735" x2="21.034" y2="29.93" gradientUnits="userSpaceOnUse"><stop stop-color="#FFDA42"/><stop offset="1" stop-color="#FFCF4C"/></linearGradient><linearGradient id="s" x1="8.468" y1="29.929" x2="7.09" y2="29.772" gradientUnits="userSpaceOnUse"><stop offset=".333" stop-color="#D15D2A"/><stop offset="1" stop-color="#D15D2A" stop-opacity="0"/></linearGradient><linearGradient id="E" x1="21.548" y1="15.987" x2="16.84" y2="15.987" gradientUnits="userSpaceOnUse"><stop stop-color="#563B38"/><stop offset="1" stop-color="#563B38" stop-opacity="0"/></linearGradient><linearGradient id="M" x1="16.02" y1="20.927" x2="16.02" y2="20.235" gradientUnits="userSpaceOnUse"><stop stop-color="#49201F"/><stop offset="1" stop-color="#49201F" stop-opacity="0"/></linearGradient><linearGradient id="Q" x1="16.876" y1="14.894" x2="15.969" y2="14.932" gradientUnits="userSpaceOnUse"><stop offset=".36" stop-color="#66514E"/><stop offset="1" stop-color="#66514E" stop-opacity="0"/></linearGradient><linearGradient id="S" x1="15.969" y1="16.126" x2="15.969" y2="15.623" gradientUnits="userSpaceOnUse"><stop stop-color="#3E2230"/><stop offset="1" stop-color="#3E2230" stop-opacity="0"/></linearGradient><linearGradient id="U" x1="15.969" y1="12.93" x2="15.969" y2="13.791" gradientUnits="userSpaceOnUse"><stop stop-color="#4B302A"/><stop offset="1" stop-color="#4B302A" stop-opacity="0"/></linearGradient><linearGradient id="W" x1="14.669" y1="17.826" x2="15.014" y2="16.923" gradientUnits="userSpaceOnUse"><stop stop-color="#584A4A"/><stop offset="1" stop-color="#40222D" stop-opacity="0"/></linearGradient><linearGradient id="ac" x1="19.171" y1="13.231" x2="18.832" y2="13.44" gradientUnits="userSpaceOnUse"><stop stop-color="#B4948D"/><stop offset="1" stop-color="#B4948D" stop-opacity="0"/></linearGradient><linearGradient id="af" x1="14.414" y1="13.231" x2="14.074" y2="13.441" gradientUnits="userSpaceOnUse"><stop stop-color="#B4948D"/><stop offset="1" stop-color="#B4948D" stop-opacity="0"/></linearGradient><linearGradient id="ai" x1="22.932" y1="13.26" x2="21.626" y2="15.614" gradientUnits="userSpaceOnUse"><stop stop-color="#62504F"/><stop offset="1" stop-color="#492F32"/></linearGradient><linearGradient id="am" x1="9.641" y1="14.022" x2="11.219" y2="13.884" gradientUnits="userSpaceOnUse"><stop stop-color="#372425"/><stop offset="1" stop-color="#281919"/></linearGradient><linearGradient id="ar" x1="21.828" y1="12.847" x2="21.828" y2="14.906" gradientUnits="userSpaceOnUse"><stop stop-color="#4C3838"/><stop offset="1" stop-color="#3E2724"/></linearGradient><linearGradient id="ay" x1="9.771" y1="9.234" x2="10.584" y2="9.234" gradientUnits="userSpaceOnUse"><stop stop-color="#CDAC54"/><stop offset="1" stop-color="#CDAC54" stop-opacity="0"/></linearGradient><linearGradient id="aB" x1="15.81" y1="2.07" x2="15.81" y2="10.498" gradientUnits="userSpaceOnUse"><stop stop-color="#F9CD2E"/><stop offset="1" stop-color="#FFCA3D"/></linearGradient><linearGradient id="aC" x1="15.81" y1="2.07" x2="15.81" y2="4.672" gradientUnits="userSpaceOnUse"><stop stop-color="#E7C44C"/><stop offset="1" stop-color="#E7C44C" stop-opacity="0"/></linearGradient><linearGradient id="aF" x1="21.786" y1="11.243" x2="5.158" y2="11.243" gradientUnits="userSpaceOnUse"><stop stop-color="#FFE24A"/><stop offset="1" stop-color="#F0BC33"/></linearGradient><linearGradient id="aG" x1="15.587" y1="9.842" x2="15.587" y2="10.155" gradientUnits="userSpaceOnUse"><stop offset=".027" stop-color="#FFD131"/><stop offset="1" stop-color="#FFD131" stop-opacity="0"/></linearGradient><linearGradient id="aH" x1="16.505" y1="12.148" x2="16.505" y2="10.895" gradientUnits="userSpaceOnUse"><stop stop-color="#E1926F"/><stop offset="1" stop-color="#F9B14D" stop-opacity="0"/></linearGradient><filter id="y" x="15.115" y="9.748" width="8.369" height="2.215" filterUnits="userSpaceOnUse" color-interpolation-filters="sRGB"><feFlood flood-opacity="0" result="BackgroundImageFix"/><feBlend in="SourceGraphic" in2="BackgroundImageFix" result="shape"/><feGaussianBlur stdDeviation=".375" result="effect1_foregroundBlur_4002_2948"/></filter><filter id="z" x="15.502" y="9.592" width="7.654" height="2.528" filterUnits="userSpaceOnUse" color-interpolation-filters="sRGB"><feFlood flood-opacity="0" result="BackgroundImageFix"/><feBlend in="SourceGraphic" in2="BackgroundImageFix" result="shape"/><feGaussianBlur stdDeviation=".5" result="effect1_foregroundBlur_4002_2948"/></filter><filter id="C" x="10.492" y="7.489" width="12.056" height="13.551" filterUnits="userSpaceOnUse" color-interpolation-filters="sRGB"><feFlood flood-opacity="0" result="BackgroundImageFix"/><feBlend in="SourceGraphic" in2="BackgroundImageFix" result="shape"/><feColorMatrix in="SourceAlpha" values="0 0 0 0 0 0 0 0 0 0 0 0 0 0 0 0 0 0 127 0" result="hardAlpha"/><feOffset dx="1"/><feGaussianBlur stdDeviation=".5"/><feComposite in2="hardAlpha" operator="arithmetic" k2="-1" k3="1"/><feColorMatrix values="0 0 0 0 0.333333 0 0 0 0 0.270588 0 0 0 0 0.258824 0 0 0 1 0"/><feBlend in2="shape" result="effect1_innerShadow_4002_2948"/><feColorMatrix in="SourceAlpha" values="0 0 0 0 0 0 0 0 0 0 0 0 0 0 0 0 0 0 127 0" result="hardAlpha"/><feOffset dy=".2"/><feGaussianBlur stdDeviation=".375"/><feComposite in2="hardAlpha" operator="arithmetic" k2="-1" k3="1"/><feColorMatrix values="0 0 0 0 0.145098 0 0 0 0 0.0705882 0 0 0 0 0.0745098 0 0 0 1 0"/><feBlend in2="effect1_innerShadow_4002_2948" result="effect2_innerShadow_4002_2948"/></filter><filter id="O" x="13.871" y="12.273" width="3.89" height="5.137" filterUnits="userSpaceOnUse" color-interpolation-filters="sRGB"><feFlood flood-opacity="0" result="BackgroundImageFix"/><feBlend in="SourceGraphic" in2="BackgroundImageFix" result="shape"/><feGaussianBlur stdDeviation=".5" result="effect1_foregroundBlur_4002_2948"/></filter><filter id="P" x="14.754" y="12.861" width="2.431" height="3.537" filterUnits="userSpaceOnUse" color-interpolation-filters="sRGB"><feFlood flood-opacity="0" result="BackgroundImageFix"/><feBlend in="SourceGraphic" in2="BackgroundImageFix" result="shape"/><feGaussianBlur stdDeviation=".1" result="effect1_foregroundBlur_4002_2948"/></filter><filter id="V" x="13.979" y="16.673" width="3.982" height="1.661" filterUnits="userSpaceOnUse" color-interpolation-filters="sRGB"><feFlood flood-opacity="0" result="BackgroundImageFix"/><feBlend in="SourceGraphic" in2="BackgroundImageFix" result="shape"/><feGaussianBlur stdDeviation=".05" result="effect1_foregroundBlur_4002_2948"/></filter><filter id="Z" x="17.544" y="12.705" width=".835" height=".737" filterUnits="userSpaceOnUse" color-interpolation-filters="sRGB"><feFlood flood-opacity="0" result="BackgroundImageFix"/><feBlend in="SourceGraphic" in2="BackgroundImageFix" result="shape"/><feGaussianBlur stdDeviation=".05" result="effect1_foregroundBlur_4002_2948"/></filter><filter id="ab" x="18.461" y="12.795" width=".931" height=".955" filterUnits="userSpaceOnUse" color-interpolation-filters="sRGB"><feFlood flood-opacity="0" result="BackgroundImageFix"/><feBlend in="SourceGraphic" in2="BackgroundImageFix" result="shape"/><feGaussianBlur stdDeviation=".1" result="effect1_foregroundBlur_4002_2948"/></filter><filter id="ae" x="13.654" y="12.726" width="1.034" height="1.093" filterUnits="userSpaceOnUse" color-interpolation-filters="sRGB"><feFlood flood-opacity="0" result="BackgroundImageFix"/><feBlend in="SourceGraphic" in2="BackgroundImageFix" result="shape"/><feGaussianBlur stdDeviation=".1" result="effect1_foregroundBlur_4002_2948"/></filter><filter id="ag" x="12.83" y="12.696" width=".971" height=".746" filterUnits="userSpaceOnUse" color-interpolation-filters="sRGB"><feFlood flood-opacity="0" result="BackgroundImageFix"/><feBlend in="SourceGraphic" in2="BackgroundImageFix" result="shape"/><feGaussianBlur stdDeviation=".05" result="effect1_foregroundBlur_4002_2948"/></filter><filter id="ao" x="9.412" y="12.618" width="1.397" height="2.533" filterUnits="userSpaceOnUse" color-interpolation-filters="sRGB"><feFlood flood-opacity="0" result="BackgroundImageFix"/><feBlend in="SourceGraphic" in2="BackgroundImageFix" result="shape"/><feGaussianBlur stdDeviation=".125" result="effect1_foregroundBlur_4002_2948"/></filter><filter id="aq" x="20.816" y="12.347" width="2.024" height="3.059" filterUnits="userSpaceOnUse" color-interpolation-filters="sRGB"><feFlood flood-opacity="0" result="BackgroundImageFix"/><feBlend in="SourceGraphic" in2="BackgroundImageFix" result="shape"/><feGaussianBlur stdDeviation=".25" result="effect1_foregroundBlur_4002_2948"/></filter><filter id="aA" x="12.915" y="2.07" width="5.791" height="8.428" filterUnits="userSpaceOnUse" color-interpolation-filters="sRGB"><feFlood flood-opacity="0" result="BackgroundImageFix"/><feBlend in="SourceGraphic" in2="BackgroundImageFix" result="shape"/><feColorMatrix in="SourceAlpha" values="0 0 0 0 0 0 0 0 0 0 0 0 0 0 0 0 0 0 127 0" result="hardAlpha"/><feOffset dx=".2"/><feGaussianBlur stdDeviation=".3"/><feComposite in2="hardAlpha" operator="arithmetic" k2="-1" k3="1"/><feColorMatrix values="0 0 0 0 0.768627 0 0 0 0 0.658824 0 0 0 0 0.321569 0 0 0 1 0"/><feBlend in2="shape" result="effect1_innerShadow_4002_2948"/><feColorMatrix in="SourceAlpha" values="0 0 0 0 0 0 0 0 0 0 0 0 0 0 0 0 0 0 127 0" result="hardAlpha"/><feOffset dx="-.2"/><feGaussianBlur stdDeviation=".3"/><feComposite in2="hardAlpha" operator="arithmetic" k2="-1" k3="1"/><feColorMatrix values="0 0 0 0 1 0 0 0 0 0.92549 0 0 0 0 0.372549 0 0 0 1 0"/><feBlend in2="effect1_innerShadow_4002_2948" result="effect2_innerShadow_4002_2948"/></filter></defs></svg>