<svg width="32" height="32" fill="none" xmlns="http://www.w3.org/2000/svg"><g filter="url(#a)"><path d="M3 9a1 1 0 0 1 1-1h24a1 1 0 0 1 1 1v11a1 1 0 0 1-1 1H4a1 1 0 0 1-1-1V9Z" fill="url(#b)"/></g><path d="M3 9a1 1 0 0 1 1-1h24a1 1 0 0 1 1 1v11a1 1 0 0 1-1 1H4a1 1 0 0 1-1-1V9Z" fill="url(#c)"/><path d="M3 9a1 1 0 0 1 1-1h24a1 1 0 0 1 1 1v11a1 1 0 0 1-1 1H4a1 1 0 0 1-1-1V9Z" fill="url(#d)"/><path fill-rule="evenodd" clip-rule="evenodd" d="M24.475 21h-4.95L29 11.525v4.95L24.475 21Z" fill="url(#e)"/><path fill-rule="evenodd" clip-rule="evenodd" d="M24.475 21h-4.95L29 11.525v4.95L24.475 21Z" fill="url(#f)"/><path fill-rule="evenodd" clip-rule="evenodd" d="M24.475 21h-4.95L29 11.525v4.95L24.475 21Z" fill="url(#g)"/><path fill-rule="evenodd" clip-rule="evenodd" d="M14.475 21h-4.95l13-13h4.95l-13 13Z" fill="url(#h)"/><path fill-rule="evenodd" clip-rule="evenodd" d="M14.475 21h-4.95l13-13h4.95l-13 13Z" fill="url(#i)"/><path fill-rule="evenodd" clip-rule="evenodd" d="M14.475 21h-4.95l13-13h4.95l-13 13Z" fill="url(#j)"/><path fill-rule="evenodd" clip-rule="evenodd" d="M4.475 21H4a1 1 0 0 1-1-1v-2.475L12.525 8h4.95l-13 13Z" fill="url(#k)"/><path fill-rule="evenodd" clip-rule="evenodd" d="M4.475 21H4a1 1 0 0 1-1-1v-2.475L12.525 8h4.95l-13 13Z" fill="url(#l)"/><path fill-rule="evenodd" clip-rule="evenodd" d="M4.475 21H4a1 1 0 0 1-1-1v-2.475L12.525 8h4.95l-13 13Z" fill="url(#m)"/><path fill-rule="evenodd" clip-rule="evenodd" d="M4.475 21H4a1 1 0 0 1-1-1v-2.475L12.525 8h4.95l-13 13Z" fill="url(#n)"/><path fill-rule="evenodd" clip-rule="evenodd" d="M7.475 8H4a1 1 0 0 0-1 1v3.475L7.475 8Z" fill="url(#o)"/><path fill-rule="evenodd" clip-rule="evenodd" d="M7.475 8H4a1 1 0 0 0-1 1v3.475L7.475 8Z" fill="url(#p)"/><path fill-rule="evenodd" clip-rule="evenodd" d="M7.475 8H4a1 1 0 0 0-1 1v3.475L7.475 8Z" fill="url(#q)"/><path fill-rule="evenodd" clip-rule="evenodd" d="M26 21h-2v9h2v-9Z" fill="url(#r)"/><path fill-rule="evenodd" clip-rule="evenodd" d="M26 21h-2v9h2v-9Z" fill="url(#s)"/><path fill-rule="evenodd" clip-rule="evenodd" d="M8 21H6v9h2v-9Z" fill="url(#t)"/><path fill-rule="evenodd" clip-rule="evenodd" d="M8 21H6v9h2v-9Z" fill="url(#u)"/><path d="M6 7.5a1.5 1.5 0 1 1 3 0V8H6v-.5Z" fill="url(#v)"/><path d="M23 7.5a1.5 1.5 0 0 1 3 0V8h-3v-.5Z" fill="url(#w)"/><g filter="url(#x)"><rect x="7.109" y="21.5" width=".475" height="8" rx=".237" fill="#DFD0E9"/></g><g filter="url(#y)"><rect x="25" y="21.5" width=".475" height="8" rx=".237" fill="#DFD0E9"/></g><defs><linearGradient id="b" x1="25.846" y1="9.985" x2="8.5" y2="18.625" gradientUnits="userSpaceOnUse"><stop stop-color="#F7D142"/><stop offset="1" stop-color="#FCB545"/></linearGradient><linearGradient id="c" x1="3" y1="14.011" x2="3.79" y2="14.011" gradientUnits="userSpaceOnUse"><stop stop-color="#A57C4B"/><stop offset="1" stop-color="#A57C4B" stop-opacity="0"/></linearGradient><linearGradient id="e" x1="27.607" y1="11.525" x2="18.41" y2="17.982" gradientUnits="userSpaceOnUse"><stop stop-color="#353138"/><stop offset="1" stop-color="#503B62"/></linearGradient><linearGradient id="f" x1="22.078" y1="21" x2="22.078" y2="20.312" gradientUnits="userSpaceOnUse"><stop stop-color="#4B2867"/><stop offset="1" stop-color="#4B2867" stop-opacity="0"/></linearGradient><linearGradient id="g" x1="29" y1="14.491" x2="25.743" y2="14.491" gradientUnits="userSpaceOnUse"><stop stop-color="#353139"/><stop offset=".166" stop-color="#413D46"/><stop offset=".456" stop-color="#413D46" stop-opacity="0"/></linearGradient><linearGradient id="h" x1="24.836" y1="8" x2="11.426" y2="21" gradientUnits="userSpaceOnUse"><stop stop-color="#353138"/><stop offset="1" stop-color="#503B62"/></linearGradient><linearGradient id="i" x1="14.362" y1="21" x2="14.362" y2="20.056" gradientUnits="userSpaceOnUse"><stop stop-color="#4B2867"/><stop offset="1" stop-color="#4B2867" stop-opacity="0"/></linearGradient><linearGradient id="j" x1="23.343" y1="8" x2="23.343" y2="12.069" gradientUnits="userSpaceOnUse"><stop stop-color="#353139"/><stop offset=".166" stop-color="#413D46"/><stop offset=".422" stop-color="#413D46" stop-opacity="0"/></linearGradient><linearGradient id="k" x1="15.347" y1="8" x2="2.327" y2="18.178" gradientUnits="userSpaceOnUse"><stop stop-color="#353138"/><stop offset="1" stop-color="#503B62"/></linearGradient><linearGradient id="l" x1="6.9" y1="21" x2="6.9" y2="20.056" gradientUnits="userSpaceOnUse"><stop stop-color="#4B2867"/><stop offset="1" stop-color="#4B2867" stop-opacity="0"/></linearGradient><linearGradient id="m" x1="14.143" y1="8" x2="14.143" y2="12.069" gradientUnits="userSpaceOnUse"><stop stop-color="#353139"/><stop offset=".166" stop-color="#413D46"/><stop offset=".422" stop-color="#413D46" stop-opacity="0"/></linearGradient><linearGradient id="n" x1="3" y1="15.114" x2="3.75" y2="15.114" gradientUnits="userSpaceOnUse"><stop stop-color="#2F2C32"/><stop offset="1" stop-color="#2F2C32" stop-opacity="0"/></linearGradient><linearGradient id="o" x1="6.817" y1="8" x2="2.473" y2="11.05" gradientUnits="userSpaceOnUse"><stop stop-color="#353138"/><stop offset="1" stop-color="#503B62"/></linearGradient><linearGradient id="p" x1="6.445" y1="8" x2="6.445" y2="9.401" gradientUnits="userSpaceOnUse"><stop stop-color="#353139"/><stop offset=".166" stop-color="#413D46"/><stop offset=".422" stop-color="#413D46" stop-opacity="0"/></linearGradient><linearGradient id="q" x1="3" y1="10.449" x2="4" y2="10.449" gradientUnits="userSpaceOnUse"><stop stop-color="#2F2C32"/><stop offset="1" stop-color="#2F2C32" stop-opacity="0"/></linearGradient><linearGradient id="r" x1="24" y1="23.938" x2="25" y2="23.938" gradientUnits="userSpaceOnUse"><stop stop-color="#857C8C"/><stop offset="1" stop-color="#B9A7C4"/></linearGradient><linearGradient id="t" x1="6" y1="23.938" x2="7" y2="23.938" gradientUnits="userSpaceOnUse"><stop stop-color="#857C8C"/><stop offset="1" stop-color="#B9A7C4"/></linearGradient><linearGradient id="v" x1="7.5" y1="6" x2="7.5" y2="8" gradientUnits="userSpaceOnUse"><stop offset=".563" stop-color="#CB1E72"/><stop offset="1" stop-color="#E61C31"/></linearGradient><linearGradient id="w" x1="24.5" y1="6" x2="24.5" y2="8" gradientUnits="userSpaceOnUse"><stop offset=".563" stop-color="#CB1E72"/><stop offset="1" stop-color="#E61C31"/></linearGradient><radialGradient id="d" cx="0" cy="0" r="1" gradientUnits="userSpaceOnUse" gradientTransform="matrix(12.0629 0 0 1.90436 4.688 8)"><stop offset=".136" stop-color="#FBBC43"/><stop offset="1" stop-color="#FBBC43" stop-opacity="0"/></radialGradient><radialGradient id="s" cx="0" cy="0" r="1" gradientUnits="userSpaceOnUse" gradientTransform="matrix(0 -8.79687 5.25369 0 25 29.594)"><stop offset=".913" stop-color="#7E5E91" stop-opacity="0"/><stop offset=".993" stop-color="#7E5E91"/></radialGradient><radialGradient id="u" cx="0" cy="0" r="1" gradientUnits="userSpaceOnUse" gradientTransform="matrix(0 -8.79687 5.25369 0 7 29.594)"><stop offset=".913" stop-color="#7E5E91" stop-opacity="0"/><stop offset=".993" stop-color="#7E5E91"/></radialGradient><filter id="a" x="2.5" y="7.5" width="27" height="14" filterUnits="userSpaceOnUse" color-interpolation-filters="sRGB"><feFlood flood-opacity="0" result="BackgroundImageFix"/><feBlend in="SourceGraphic" in2="BackgroundImageFix" result="shape"/><feColorMatrix in="SourceAlpha" values="0 0 0 0 0 0 0 0 0 0 0 0 0 0 0 0 0 0 127 0" result="hardAlpha"/><feOffset dx=".5" dy="-.5"/><feGaussianBlur stdDeviation=".375"/><feComposite in2="hardAlpha" operator="arithmetic" k2="-1" k3="1"/><feColorMatrix values="0 0 0 0 0.831373 0 0 0 0 0.494118 0 0 0 0 0.282353 0 0 0 1 0"/><feBlend in2="shape" result="effect1_innerShadow_18_12057"/><feColorMatrix in="SourceAlpha" values="0 0 0 0 0 0 0 0 0 0 0 0 0 0 0 0 0 0 127 0" result="hardAlpha"/><feOffset dx="-.5" dy=".5"/><feGaussianBlur stdDeviation=".375"/><feComposite in2="hardAlpha" operator="arithmetic" k2="-1" k3="1"/><feColorMatrix values="0 0 0 0 1 0 0 0 0 1 0 0 0 0 0.415686 0 0 0 1 0"/><feBlend in2="effect1_innerShadow_18_12057" result="effect2_innerShadow_18_12057"/></filter><filter id="x" x="6.459" y="20.85" width="1.775" height="9.3" filterUnits="userSpaceOnUse" color-interpolation-filters="sRGB"><feFlood flood-opacity="0" result="BackgroundImageFix"/><feBlend in="SourceGraphic" in2="BackgroundImageFix" result="shape"/><feGaussianBlur stdDeviation=".325" result="effect1_foregroundBlur_18_12057"/></filter><filter id="y" x="24.35" y="20.85" width="1.775" height="9.3" filterUnits="userSpaceOnUse" color-interpolation-filters="sRGB"><feFlood flood-opacity="0" result="BackgroundImageFix"/><feBlend in="SourceGraphic" in2="BackgroundImageFix" result="shape"/><feGaussianBlur stdDeviation=".325" result="effect1_foregroundBlur_18_12057"/></filter></defs></svg>