<svg width="32" height="32" fill="none" xmlns="http://www.w3.org/2000/svg"><g filter="url(#a)"><path d="M15.962 30.933c8.002 0 12-5.372 12-12 0-6.627-3.998-12-12-12-8.002 0-12 5.373-12 12 0 6.628 3.998 12 12 12Z" fill="url(#b)"/></g><path d="M15.962 30.933c8.002 0 12-5.372 12-12 0-6.627-3.998-12-12-12-8.002 0-12 5.373-12 12 0 6.628 3.998 12 12 12Z" fill="url(#c)" style="mix-blend-mode:multiply"/><path d="M15.962 30.933c8.002 0 12-5.372 12-12 0-6.627-3.998-12-12-12-8.002 0-12 5.373-12 12 0 6.628 3.998 12 12 12Z" fill="url(#d)"/><path d="M18.856 2a3.1 3.1 0 0 0-1.839.602 1.524 1.524 0 0 1-2.12 0A3.1 3.1 0 0 0 13.057 2C11.35 2 9.962 3.362 9.962 5.04v4.967h11.99V5.04C21.952 3.362 20.565 2 18.856 2Z" fill="url(#e)"/><g filter="url(#f)"><circle cx="13.35" cy="4.412" r="2.412" fill="url(#g)" fill-opacity=".75"/></g><g filter="url(#h)"><ellipse cx="19.575" cy="4.63" rx="2.215" ry="2.194" fill="url(#i)" fill-opacity=".75"/></g><path d="M21.96 4.94H9.875a.1.1 0 0 0-.1.1v.9H22.06v-.9a.1.1 0 0 0-.1-.1Z" fill="url(#j)"/><path d="M21.96 4.94H9.875a.1.1 0 0 0-.1.1v.9H22.06v-.9a.1.1 0 0 0-.1-.1Z" fill="url(#k)"/><g opacity=".8" filter="url(#l)"><path d="M10.638 18.377a3.517 3.517 0 1 0 0-7.034 3.517 3.517 0 0 0 0 7.034Z" fill="#D3751F"/></g><g filter="url(#m)"><path d="M19.952 18.257a3.517 3.517 0 1 0 0-7.033 3.517 3.517 0 0 0 0 7.033Z" fill="#FF9B40"/></g><path d="M11.482 17.973a3.64 3.64 0 1 0 0-7.28 3.64 3.64 0 0 0 0 7.28ZM20.422 17.973a3.64 3.64 0 1 0 0-7.28 3.64 3.64 0 0 0 0 7.28Z" fill="#fff"/><path d="M9.502 14.983c0-1.35 1.1-2.45 2.45-2.45s2.45 1.1 2.45 2.45-1.1 2.45-2.45 2.45-2.45-1.1-2.45-2.45ZM17.502 14.983c0-1.35 1.1-2.45 2.45-2.45s2.45 1.1 2.45 2.45-1.1 2.45-2.45 2.45-2.45-1.1-2.45-2.45Z" fill="#3F2931"/><path d="M26.487 8.106h3.447c0-2.61-1.367-4.72-3.977-4.72-1.82 0-.54 1.04-1.32 2.56l-17.54-.01c0-1.05.13-2.55-1.7-2.55-2.61 0-3.81 2.11-3.81 4.72h1.11l2.7-.155c2.93 2.47 5.455 4.14 10.58 4.14 4.14 0 7.58-1.505 10.51-3.985Z" fill="url(#n)"/><path d="M26.487 8.106h3.447c0-2.61-1.367-4.72-3.977-4.72-1.82 0-.54 1.04-1.32 2.56l-17.54-.01c0-1.05.13-2.55-1.7-2.55-2.61 0-3.81 2.11-3.81 4.72h1.11l2.7-.155c2.93 2.47 5.455 4.14 10.58 4.14 4.14 0 7.58-1.505 10.51-3.985Z" fill="url(#o)"/><path d="M26.487 8.106h3.447c0-2.61-1.367-4.72-3.977-4.72-1.82 0-.54 1.04-1.32 2.56l-17.54-.01c0-1.05.13-2.55-1.7-2.55-2.61 0-3.81 2.11-3.81 4.72h1.11l2.7-.155c2.93 2.47 5.455 4.14 10.58 4.14 4.14 0 7.58-1.505 10.51-3.985Z" fill="url(#p)"/><path d="M8.057 5.873s-.02.71.01 1.31c.12 2.17 1.86 3.8 1.86 3.8s-.91-.392-1.669-.755c-.387-.186-.857-.13-1.155.179-1.092 1.134-1.622 2.118-1.622 2.118s-1.527 0-3.004-1.192c-1.26-1.1-1.43-2.76-1.43-2.76s-.68-3.95 3.14-5.29c3.07-1.07 3.86.55 3.86 1.69 0 .22.01.9.01.9Z" fill="url(#q)"/><path d="M8.057 5.873s-.02.71.01 1.31c.12 2.17 1.86 3.8 1.86 3.8s-.91-.392-1.669-.755c-.387-.186-.857-.13-1.155.179-1.092 1.134-1.622 2.118-1.622 2.118s-1.527 0-3.004-1.192c-1.26-1.1-1.43-2.76-1.43-2.76s-.68-3.95 3.14-5.29c3.07-1.07 3.86.55 3.86 1.69 0 .22.01.9.01.9Z" fill="url(#r)"/><g filter="url(#s)"><path d="M1.282 8.249c.74-2.6 4.365-.801 6.111 1.263.293.347.593.586.913.736l-.006.016a18.492 18.492 0 0 1-.076-.036c-.388-.186-.858-.131-1.154.18-1.046.715-1.764 1.684-1.764 1.684s-1.297 0-2.75-1.219A3.627 3.627 0 0 1 1.31 8.67c-.041-.258-.1-.17-.029-.421Z" fill="url(#t)"/></g><path d="M23.87 5.876s.02.71-.01 1.31c-.12 2.17-1.867 3.738-1.867 3.738s.913-.356 1.672-.702c.391-.178.862-.123 1.157.189 1.072 1.133 1.529 2.114 1.529 2.114s1.55.17 3.1-1.19c1.26-1.1 1.43-2.76 1.43-2.76s.68-3.95-3.14-5.29c-3.07-1.07-3.86.55-3.86 1.69 0 .22-.01.9-.01.9Z" fill="url(#u)"/><path d="M23.87 5.876s.02.71-.01 1.31c-.12 2.17-1.867 3.738-1.867 3.738s.913-.356 1.672-.702c.391-.178.862-.123 1.157.189 1.072 1.133 1.529 2.114 1.529 2.114s1.55.17 3.1-1.19c1.26-1.1 1.43-2.76 1.43-2.76s.68-3.95-3.14-5.29c-3.07-1.07-3.86.55-3.86 1.69 0 .22-.01.9-.01.9Z" fill="url(#v)"/><g filter="url(#w)"><path d="M30.805 8.423c-1.08-2.404-4.619-1.066-6.26.995-.32.4-.645.668-.993.832l.006.017.076-.037c.387-.186.97-.276 1.265.037 1.072 1.133 1.532 2.09 1.532 2.09s1.293.298 2.843-1.062c.684-.578 1.087-1.287 1.317-1.835.235-.56.462-.484.213-1.037Z" fill="url(#x)"/></g><g opacity=".25" filter="url(#y)"><path d="M25.187 9.888a19.488 19.488 0 0 0 1.922-2.297" stroke="#fff" stroke-width=".5" stroke-linecap="round"/></g><path d="M15.983 27.898c-7.904 0-7.904-7.905-7.904-7.905h15.81s0 7.905-7.905 7.905Z" fill="url(#z)"/><path d="M8.957 20.31v-.317H23.01v.318a1 1 0 0 1-1 1H9.957a1 1 0 0 1-1-1Z" fill="url(#A)"/><defs><radialGradient id="b" cx="0" cy="0" r="1" gradientUnits="userSpaceOnUse" gradientTransform="rotate(132.839 9.23 11.728) scale(32.1483)"><stop stop-color="#FFF478"/><stop offset=".475" stop-color="#FFB02E"/><stop offset="1" stop-color="#F70A8D"/></radialGradient><radialGradient id="c" cx="0" cy="0" r="1" gradientUnits="userSpaceOnUse" gradientTransform="rotate(90.458 11.34 3.412) scale(29.9527 50.053)"><stop offset=".546" stop-color="#C47F18"/><stop offset=".807" stop-color="#C47F18" stop-opacity="0"/></radialGradient><radialGradient id="d" cx="0" cy="0" r="1" gradientUnits="userSpaceOnUse" gradientTransform="rotate(90 .014 15.949) scale(15.3315)"><stop offset=".824" stop-color="#F59639" stop-opacity="0"/><stop offset="1" stop-color="#FF63C4"/></radialGradient><radialGradient id="g" cx="0" cy="0" r="1" gradientUnits="userSpaceOnUse" gradientTransform="matrix(1.28646 -1.44727 1.66238 1.47767 13.788 4.412)"><stop stop-color="#BA7D72"/><stop offset=".866" stop-color="#BA7D72" stop-opacity="0"/></radialGradient><radialGradient id="i" cx="0" cy="0" r="1" gradientUnits="userSpaceOnUse" gradientTransform="matrix(1.18134 -1.3166 1.5139 1.35835 19.977 4.63)"><stop stop-color="#BA7D72"/><stop offset=".866" stop-color="#BA7D72" stop-opacity="0"/></radialGradient><radialGradient id="o" cx="0" cy="0" r="1" gradientUnits="userSpaceOnUse" gradientTransform="rotate(89.354 5.611 10.477) scale(8.31303 13.5711)"><stop offset=".807" stop-color="#BA7D72" stop-opacity="0"/><stop offset="1" stop-color="#BA7D72"/></radialGradient><radialGradient id="p" cx="0" cy="0" r="1" gradientUnits="userSpaceOnUse" gradientTransform="rotate(90.256 6.219 9.562) scale(10.8311 16.1714)"><stop offset=".698" stop-color="#A30599" stop-opacity="0"/><stop offset="1" stop-color="#BF0AB4"/></radialGradient><radialGradient id="r" cx="0" cy="0" r="1" gradientUnits="userSpaceOnUse" gradientTransform="matrix(-2.71125 .5 -1.35914 -7.36988 9.927 8.748)"><stop stop-color="#BA7D72"/><stop offset="1" stop-color="#BA7D72" stop-opacity="0"/></radialGradient><radialGradient id="t" cx="0" cy="0" r="1" gradientUnits="userSpaceOnUse" gradientTransform="matrix(-4.24998 -6.34376 5.06812 -3.39537 7.274 14.623)"><stop stop-color="#BF0AB4"/><stop offset="1" stop-color="#A30599" stop-opacity="0"/></radialGradient><radialGradient id="v" cx="0" cy="0" r="1" gradientUnits="userSpaceOnUse" gradientTransform="matrix(2.71125 .5 -1.35913 7.36988 22 8.75)"><stop stop-color="#BA7D72"/><stop offset="1" stop-color="#BA7D72" stop-opacity="0"/></radialGradient><radialGradient id="x" cx="0" cy="0" r="1" gradientUnits="userSpaceOnUse" gradientTransform="matrix(4.25 -6.34376 5.06811 3.39538 24.583 14.625)"><stop stop-color="#BF0AB4"/><stop offset="1" stop-color="#A30599" stop-opacity="0"/></radialGradient><radialGradient id="z" cx="0" cy="0" r="1" gradientUnits="userSpaceOnUse" gradientTransform="matrix(0 -9.6614 19.3228 0 15.983 29.655)"><stop stop-color="#F70A8D"/><stop offset="1" stop-color="#89029C"/></radialGradient><filter id="a" x="3.962" y="4.933" width="26" height="26" filterUnits="userSpaceOnUse" color-interpolation-filters="sRGB"><feFlood flood-opacity="0" result="BackgroundImageFix"/><feBlend in="SourceGraphic" in2="BackgroundImageFix" result="shape"/><feColorMatrix in="SourceAlpha" values="0 0 0 0 0 0 0 0 0 0 0 0 0 0 0 0 0 0 127 0" result="hardAlpha"/><feOffset dx="2" dy="-2"/><feGaussianBlur stdDeviation="2"/><feComposite in2="hardAlpha" operator="arithmetic" k2="-1" k3="1"/><feColorMatrix values="0 0 0 0 0 0 0 0 0 0 0 0 0 0 0 0 0 0 0.08 0"/><feBlend in2="shape" result="effect1_innerShadow_6808_5273"/></filter><filter id="f" x="9.938" y="1" width="6.824" height="6.824" filterUnits="userSpaceOnUse" color-interpolation-filters="sRGB"><feFlood flood-opacity="0" result="BackgroundImageFix"/><feBlend in="SourceGraphic" in2="BackgroundImageFix" result="shape"/><feGaussianBlur stdDeviation=".5" result="effect1_foregroundBlur_6808_5273"/></filter><filter id="h" x="16.36" y="1.436" width="6.43" height="6.389" filterUnits="userSpaceOnUse" color-interpolation-filters="sRGB"><feFlood flood-opacity="0" result="BackgroundImageFix"/><feBlend in="SourceGraphic" in2="BackgroundImageFix" result="shape"/><feGaussianBlur stdDeviation=".5" result="effect1_foregroundBlur_6808_5273"/></filter><filter id="l" x="6.122" y="10.343" width="9.033" height="9.033" filterUnits="userSpaceOnUse" color-interpolation-filters="sRGB"><feFlood flood-opacity="0" result="BackgroundImageFix"/><feBlend in="SourceGraphic" in2="BackgroundImageFix" result="shape"/><feGaussianBlur stdDeviation=".5" result="effect1_foregroundBlur_6808_5273"/></filter><filter id="m" x="15.435" y="10.223" width="9.033" height="9.033" filterUnits="userSpaceOnUse" color-interpolation-filters="sRGB"><feFlood flood-opacity="0" result="BackgroundImageFix"/><feBlend in="SourceGraphic" in2="BackgroundImageFix" result="shape"/><feGaussianBlur stdDeviation=".5" result="effect1_foregroundBlur_6808_5273"/></filter><filter id="s" x=".249" y="5.958" width="9.057" height="7.134" filterUnits="userSpaceOnUse" color-interpolation-filters="sRGB"><feFlood flood-opacity="0" result="BackgroundImageFix"/><feBlend in="SourceGraphic" in2="BackgroundImageFix" result="shape"/><feGaussianBlur stdDeviation=".5" result="effect1_foregroundBlur_6808_5273"/></filter><filter id="w" x="22.552" y="6.138" width="9.36" height="7.247" filterUnits="userSpaceOnUse" color-interpolation-filters="sRGB"><feFlood flood-opacity="0" result="BackgroundImageFix"/><feBlend in="SourceGraphic" in2="BackgroundImageFix" result="shape"/><feGaussianBlur stdDeviation=".5" result="effect1_foregroundBlur_6808_5273"/></filter><filter id="y" x="23.937" y="6.341" width="4.422" height="4.797" filterUnits="userSpaceOnUse" color-interpolation-filters="sRGB"><feFlood flood-opacity="0" result="BackgroundImageFix"/><feBlend in="SourceGraphic" in2="BackgroundImageFix" result="shape"/><feGaussianBlur stdDeviation=".5" result="effect1_foregroundBlur_6808_5273"/></filter><linearGradient id="e" x1="15.959" y1="-.086" x2="15.959" y2="9.199" gradientUnits="userSpaceOnUse"><stop stop-color="#9C634D"/><stop offset="1" stop-color="#63332A"/></linearGradient><linearGradient id="j" x1="19.181" y1="4.123" x2="7.399" y2="9.154" gradientUnits="userSpaceOnUse"><stop stop-color="#A97C50"/><stop offset="1" stop-color="#875236"/></linearGradient><linearGradient id="k" x1="15.918" y1="4.6" x2="15.918" y2="5.209" gradientUnits="userSpaceOnUse"><stop stop-color="#C59779"/><stop offset="1" stop-color="#C59779" stop-opacity="0"/></linearGradient><linearGradient id="n" x1="3.746" y1="7.186" x2="26.621" y2="7.186" gradientUnits="userSpaceOnUse"><stop stop-color="#63332A"/><stop offset=".422" stop-color="#9C634D"/><stop offset=".896" stop-color="#63332A"/></linearGradient><linearGradient id="q" x1="5.997" y1="4.279" x2="5.216" y2="13.029" gradientUnits="userSpaceOnUse"><stop stop-color="#9C634D"/><stop offset="1" stop-color="#63332A"/></linearGradient><linearGradient id="u" x1="25.931" y1="4.282" x2="26.712" y2="13.031" gradientUnits="userSpaceOnUse"><stop stop-color="#9C634D"/><stop offset="1" stop-color="#63332A"/></linearGradient><linearGradient id="A" x1="15.983" y1="19.993" x2="15.983" y2="21.311" gradientUnits="userSpaceOnUse"><stop stop-color="#ECCDFF"/><stop offset="1" stop-color="#fff"/></linearGradient></defs></svg>