<svg xmlns="http://www.w3.org/2000/svg" fill="none" viewBox="0 0 32 32"><path fill="url(#crossed-swords_svg__a)" d="M21.448 23.87h2.677v6.441h-2.677z" transform="rotate(-45 21.448 23.87)"/><g filter="url(#crossed-swords_svg__b)"><path fill="url(#crossed-swords_svg__c)" d="M22.436 22.883h.707v6.441h-.707z" transform="rotate(-45 22.436 22.883)"/></g><g filter="url(#crossed-swords_svg__d)"><path fill="url(#crossed-swords_svg__e)" d="M2.202 6.618a2 2 0 0 1-.586-1.415l.001-2.496a.6.6 0 0 1 .6-.6h2.496a2 2 0 0 1 1.415.585L24.29 20.855l-3.925 3.926z"/><path fill="url(#crossed-swords_svg__f)" d="M2.202 6.618a2 2 0 0 1-.586-1.415l.001-2.496a.6.6 0 0 1 .6-.6h2.496a2 2 0 0 1 1.415.585L24.29 20.855l-3.925 3.926z"/><path fill="url(#crossed-swords_svg__g)" d="M2.202 6.618a2 2 0 0 1-.586-1.415l.001-2.496a.6.6 0 0 1 .6-.6h2.496a2 2 0 0 1 1.415.585L24.29 20.855l-3.925 3.926z"/></g><g filter="url(#crossed-swords_svg__h)"><path fill="url(#crossed-swords_svg__i)" d="M25.262 29.56a1.334 1.334 0 0 1 0-1.886l1.883-1.883a1.334 1.334 0 1 1 1.887 1.887l-1.883 1.883a1.334 1.334 0 0 1-1.887 0"/><path fill="url(#crossed-swords_svg__j)" d="M25.262 29.56a1.334 1.334 0 0 1 0-1.886l1.883-1.883a1.334 1.334 0 1 1 1.887 1.887l-1.883 1.883a1.334 1.334 0 0 1-1.887 0"/></g><path fill="url(#crossed-swords_svg__k)" d="M25.262 29.56a1.334 1.334 0 0 1 0-1.886l1.883-1.883a1.334 1.334 0 1 1 1.887 1.887l-1.883 1.883a1.334 1.334 0 0 1-1.887 0"/><g filter="url(#crossed-swords_svg__l)"><path fill="url(#crossed-swords_svg__m)" d="M1.783 2.293a.6.6 0 0 1 .434-.186h2.496a2 2 0 0 1 1.415.585L24.29 20.855l-1.972 1.973z"/><path fill="url(#crossed-swords_svg__n)" d="M1.783 2.293a.6.6 0 0 1 .434-.186h2.496a2 2 0 0 1 1.415.585L24.29 20.855l-1.972 1.973z"/><path fill="url(#crossed-swords_svg__o)" d="M1.783 2.293a.6.6 0 0 1 .434-.186h2.496a2 2 0 0 1 1.415.585L24.29 20.855l-1.972 1.973z"/><path fill="url(#crossed-swords_svg__p)" d="M1.783 2.293a.6.6 0 0 1 .434-.186h2.496a2 2 0 0 1 1.415.585L24.29 20.855l-1.972 1.973z"/></g><path fill="#614B76" d="M16.694 25.452c0 .142.099.265.238.29q.611.108 1.254.109a7.155 7.155 0 0 0 7.059-8.328.29.29 0 0 0-.29-.242h-2.127c-.205 0-.35.202-.303.401q.115.49.116 1.014a4.455 4.455 0 0 1-5.54 4.322c-.202-.05-.407.095-.407.302z"/><path fill="url(#crossed-swords_svg__q)" d="M16.694 25.452c0 .142.099.265.238.29q.611.108 1.254.109a7.155 7.155 0 0 0 7.059-8.328.29.29 0 0 0-.29-.242h-2.127c-.205 0-.35.202-.303.401q.115.49.116 1.014a4.455 4.455 0 0 1-5.54 4.322c-.202-.05-.407.095-.407.302z"/><path fill="url(#crossed-swords_svg__r)" d="M16.694 25.452c0 .142.099.265.238.29q.611.108 1.254.109a7.155 7.155 0 0 0 7.059-8.328.29.29 0 0 0-.29-.242h-2.127c-.205 0-.35.202-.303.401q.115.49.116 1.014a4.455 4.455 0 0 1-5.54 4.322c-.202-.05-.407.095-.407.302z"/><path fill="url(#crossed-swords_svg__s)" d="M16.694 25.452c0 .142.099.265.238.29q.611.108 1.254.109a7.155 7.155 0 0 0 7.059-8.328.29.29 0 0 0-.29-.242h-2.127c-.205 0-.35.202-.303.401q.115.49.116 1.014a4.455 4.455 0 0 1-5.54 4.322c-.202-.05-.407.095-.407.302z"/><path fill="url(#crossed-swords_svg__t)" d="M16.694 25.452c0 .142.099.265.238.29q.611.108 1.254.109a7.155 7.155 0 0 0 7.059-8.328.29.29 0 0 0-.29-.242h-2.127c-.205 0-.35.202-.303.401q.115.49.116 1.014a4.455 4.455 0 0 1-5.54 4.322c-.202-.05-.407.095-.407.302z"/><g filter="url(#crossed-swords_svg__u)"><path fill="url(#crossed-swords_svg__v)" d="M18.186 25.25q-.454 0-.892-.06v-1.518q.435.079.892.079a5.055 5.055 0 0 0 4.99-5.87h1.515q.05.4.05.815a6.555 6.555 0 0 1-6.555 6.555"/></g><path fill="url(#crossed-swords_svg__w)" d="M0 0h2.677v6.441H0z" transform="scale(-1 1)rotate(-45 24.019 23.511)"/><g filter="url(#crossed-swords_svg__x)"><path fill="url(#crossed-swords_svg__y)" d="M0 0h.707v6.441H0z" transform="scale(-1 1)rotate(-45 23.32 21.826)"/></g><g filter="url(#crossed-swords_svg__z)"><path fill="url(#crossed-swords_svg__A)" d="M28.837 6.618a2 2 0 0 0 .585-1.415V2.707a.6.6 0 0 0-.6-.6h-2.496a2 2 0 0 0-1.415.585L6.747 20.855l3.926 3.926z"/><path fill="url(#crossed-swords_svg__B)" d="M28.837 6.618a2 2 0 0 0 .585-1.415V2.707a.6.6 0 0 0-.6-.6h-2.496a2 2 0 0 0-1.415.585L6.747 20.855l3.926 3.926z"/></g><g filter="url(#crossed-swords_svg__C)"><path fill="url(#crossed-swords_svg__D)" d="M5.777 29.56a1.334 1.334 0 0 0 0-1.886L3.894 25.79a1.334 1.334 0 0 0-1.887 1.887L3.89 29.56a1.334 1.334 0 0 0 1.887 0"/><path fill="url(#crossed-swords_svg__E)" d="M5.777 29.56a1.334 1.334 0 0 0 0-1.886L3.894 25.79a1.334 1.334 0 0 0-1.887 1.887L3.89 29.56a1.334 1.334 0 0 0 1.887 0"/></g><path fill="url(#crossed-swords_svg__F)" d="M5.777 29.56a1.334 1.334 0 0 0 0-1.886L3.894 25.79a1.334 1.334 0 0 0-1.887 1.887L3.89 29.56a1.334 1.334 0 0 0 1.887 0"/><g filter="url(#crossed-swords_svg__G)"><path fill="url(#crossed-swords_svg__H)" d="M29.255 2.293a.6.6 0 0 0-.433-.186h-2.496a2 2 0 0 0-1.415.585L6.747 20.855l1.973 1.973z"/><path fill="url(#crossed-swords_svg__I)" d="M29.255 2.293a.6.6 0 0 0-.433-.186h-2.496a2 2 0 0 0-1.415.585L6.747 20.855l1.973 1.973z"/></g><path fill="#614B76" d="M14.345 25.452a.29.29 0 0 1-.239.29q-.611.108-1.253.109a7.155 7.155 0 0 1-7.06-8.328.29.29 0 0 1 .29-.242h2.128c.204 0 .35.202.303.401a4.455 4.455 0 0 0 5.424 5.336c.201-.05.407.095.407.302z"/><path fill="url(#crossed-swords_svg__J)" d="M14.345 25.452a.29.29 0 0 1-.239.29q-.611.108-1.253.109a7.155 7.155 0 0 1-7.06-8.328.29.29 0 0 1 .29-.242h2.128c.204 0 .35.202.303.401a4.455 4.455 0 0 0 5.424 5.336c.201-.05.407.095.407.302z"/><path fill="url(#crossed-swords_svg__K)" d="M14.345 25.452a.29.29 0 0 1-.239.29q-.611.108-1.253.109a7.155 7.155 0 0 1-7.06-8.328.29.29 0 0 1 .29-.242h2.128c.204 0 .35.202.303.401a4.455 4.455 0 0 0 5.424 5.336c.201-.05.407.095.407.302z"/><path fill="url(#crossed-swords_svg__L)" d="M14.345 25.452a.29.29 0 0 1-.239.29q-.611.108-1.253.109a7.155 7.155 0 0 1-7.06-8.328.29.29 0 0 1 .29-.242h2.128c.204 0 .35.202.303.401a4.455 4.455 0 0 0 5.424 5.336c.201-.05.407.095.407.302z"/><path fill="url(#crossed-swords_svg__M)" d="M14.345 25.452a.29.29 0 0 1-.239.29q-.611.108-1.253.109a7.155 7.155 0 0 1-7.06-8.328.29.29 0 0 1 .29-.242h2.128c.204 0 .35.202.303.401a4.455 4.455 0 0 0 5.424 5.336c.201-.05.407.095.407.302z"/><g filter="url(#crossed-swords_svg__N)"><path fill="url(#crossed-swords_svg__O)" d="M12.853 25.25q.454 0 .892-.06v-1.518a5.055 5.055 0 0 1-5.881-5.791H6.347q-.05.4-.05.815a6.555 6.555 0 0 0 6.555 6.555"/></g><defs><linearGradient id="crossed-swords_svg__a" x1="22.787" x2="22.668" y1="23.87" y2="29.384" gradientUnits="userSpaceOnUse"><stop stop-color="#2B1E38"/><stop offset="1" stop-color="#502E76"/></linearGradient><linearGradient id="crossed-swords_svg__c" x1="22.79" x2="22.79" y1="22.883" y2="29.324" gradientUnits="userSpaceOnUse"><stop stop-color="#454249"/><stop offset="1" stop-color="#674D82"/></linearGradient><linearGradient id="crossed-swords_svg__e" x1="7.147" x2="20.959" y1="9.437" y2="23.719" gradientUnits="userSpaceOnUse"><stop stop-color="#9F94AC"/><stop offset="1" stop-color="#8F76A7"/></linearGradient><linearGradient id="crossed-swords_svg__f" x1="15.834" x2="13.366" y1="12.625" y2="15.031" gradientUnits="userSpaceOnUse"><stop offset=".478" stop-color="#ACA0B9"/><stop offset="1" stop-color="#ACA0B9" stop-opacity="0"/></linearGradient><linearGradient id="crossed-swords_svg__i" x1="27.147" x2="27.147" y1="25.656" y2="29.951" gradientUnits="userSpaceOnUse"><stop stop-color="#6563A7"/><stop offset="1" stop-color="#6345A1"/></linearGradient><linearGradient id="crossed-swords_svg__m" x1="3.616" x2="22.366" y1="2.719" y2="20.875" gradientUnits="userSpaceOnUse"><stop stop-color="#DBD7E0"/><stop offset="1" stop-color="#D7D1DE"/></linearGradient><linearGradient id="crossed-swords_svg__n" x1="13.772" x2="14.155" y1="14.516" y2="14.109" gradientUnits="userSpaceOnUse"><stop stop-color="#C8BFD2"/><stop offset="1" stop-color="#C8BFD2" stop-opacity="0"/></linearGradient><linearGradient id="crossed-swords_svg__q" x1="16.694" x2="18.959" y1="24.688" y2="24.844" gradientUnits="userSpaceOnUse"><stop offset=".255" stop-color="#403848"/><stop offset="1" stop-color="#403848" stop-opacity="0"/></linearGradient><linearGradient id="crossed-swords_svg__v" x1="23.897" x2="17.428" y1="18.594" y2="25.063" gradientUnits="userSpaceOnUse"><stop stop-color="#654E7E"/><stop offset="1" stop-color="#52475F"/></linearGradient><linearGradient id="crossed-swords_svg__w" x1="1.338" x2="1.22" y1="0" y2="5.513" gradientUnits="userSpaceOnUse"><stop stop-color="#2B1E38"/><stop offset="1" stop-color="#502E76"/></linearGradient><linearGradient id="crossed-swords_svg__y" x1=".354" x2=".354" y1="0" y2="6.441" gradientUnits="userSpaceOnUse"><stop stop-color="#454249"/><stop offset="1" stop-color="#674D82"/></linearGradient><linearGradient id="crossed-swords_svg__A" x1="23.892" x2="10.079" y1="9.437" y2="23.719" gradientUnits="userSpaceOnUse"><stop stop-color="#9F94AC"/><stop offset="1" stop-color="#8F76A7"/></linearGradient><linearGradient id="crossed-swords_svg__B" x1="15.204" x2="17.673" y1="12.625" y2="15.031" gradientUnits="userSpaceOnUse"><stop offset=".478" stop-color="#ACA0B9"/><stop offset="1" stop-color="#ACA0B9" stop-opacity="0"/></linearGradient><linearGradient id="crossed-swords_svg__D" x1="3.892" x2="3.892" y1="25.656" y2="29.951" gradientUnits="userSpaceOnUse"><stop stop-color="#6563A7"/><stop offset="1" stop-color="#6345A1"/></linearGradient><linearGradient id="crossed-swords_svg__H" x1="27.423" x2="8.673" y1="2.719" y2="20.875" gradientUnits="userSpaceOnUse"><stop stop-color="#DBD7E0"/><stop offset="1" stop-color="#D7D1DE"/></linearGradient><linearGradient id="crossed-swords_svg__I" x1="17.267" x2="16.884" y1="14.516" y2="14.109" gradientUnits="userSpaceOnUse"><stop stop-color="#C8BFD2"/><stop offset="1" stop-color="#C8BFD2" stop-opacity="0"/></linearGradient><linearGradient id="crossed-swords_svg__J" x1="14.345" x2="12.079" y1="24.688" y2="24.844" gradientUnits="userSpaceOnUse"><stop offset=".255" stop-color="#403848"/><stop offset="1" stop-color="#403848" stop-opacity="0"/></linearGradient><linearGradient id="crossed-swords_svg__O" x1="7.142" x2="13.611" y1="18.594" y2="25.063" gradientUnits="userSpaceOnUse"><stop stop-color="#654E7E"/><stop offset="1" stop-color="#52475F"/></linearGradient><radialGradient id="crossed-swords_svg__g" cx="0" cy="0" r="1" gradientTransform="matrix(1.5 1.46875 -5.46005 5.57623 15.7 18.125)" gradientUnits="userSpaceOnUse"><stop offset=".348" stop-color="#8D72A7"/><stop offset="1" stop-color="#8D72A7" stop-opacity="0"/></radialGradient><radialGradient id="crossed-swords_svg__j" cx="0" cy="0" r="1" gradientTransform="rotate(135 8.964 19.181)scale(3.0494 .66291)" gradientUnits="userSpaceOnUse"><stop stop-color="#736DB2"/><stop offset="1" stop-color="#736DB2" stop-opacity="0"/></radialGradient><radialGradient id="crossed-swords_svg__k" cx="0" cy="0" r="1" gradientTransform="rotate(178.44 14.075 14.436)scale(4.01711 4.32354)" gradientUnits="userSpaceOnUse"><stop offset=".695" stop-color="#6B669F" stop-opacity="0"/><stop offset=".92" stop-color="#6B669F"/></radialGradient><radialGradient id="crossed-swords_svg__o" cx="0" cy="0" r="1" gradientTransform="matrix(2.875 -6.125 2.47822 1.16325 15.2 14.063)" gradientUnits="userSpaceOnUse"><stop offset=".378" stop-color="#BDB8C2"/><stop offset="1" stop-color="#BDB8C2" stop-opacity="0"/></radialGradient><radialGradient id="crossed-swords_svg__p" cx="0" cy="0" r="1" gradientTransform="matrix(-3.18751 -3.06249 3.78735 -3.94196 23.168 20)" gradientUnits="userSpaceOnUse"><stop offset=".126" stop-color="#8A8094"/><stop offset="1" stop-color="#D1CBD8" stop-opacity="0"/></radialGradient><radialGradient id="crossed-swords_svg__r" cx="0" cy="0" r="1" gradientTransform="rotate(45.83 -14.54 34.452)scale(3.04972 11.7745)" gradientUnits="userSpaceOnUse"><stop offset=".508" stop-color="#493A5A"/><stop offset=".819" stop-color="#493A5A" stop-opacity="0"/></radialGradient><radialGradient id="crossed-swords_svg__s" cx="0" cy="0" r="1" gradientTransform="matrix(2.46875 3.5 -6.0614 4.27545 20.772 20.563)" gradientUnits="userSpaceOnUse"><stop offset=".696" stop-color="#492E62" stop-opacity="0"/><stop offset=".918" stop-color="#492E62"/></radialGradient><radialGradient id="crossed-swords_svg__t" cx="0" cy="0" r="1" gradientTransform="matrix(-1 5.875 -1.17474 -.19996 25.584 17.281)" gradientUnits="userSpaceOnUse"><stop offset=".095" stop-color="#7A678F"/><stop offset="1" stop-color="#7A678F" stop-opacity="0"/></radialGradient><radialGradient id="crossed-swords_svg__E" cx="0" cy="0" r="1" gradientTransform="rotate(45 -30.789 15.826)scale(3.0494 .66291)" gradientUnits="userSpaceOnUse"><stop stop-color="#736DB2"/><stop offset="1" stop-color="#736DB2" stop-opacity="0"/></radialGradient><radialGradient id="crossed-swords_svg__F" cx="0" cy="0" r="1" gradientTransform="matrix(4.01562 .10937 -.11772 4.32194 2.501 28.484)" gradientUnits="userSpaceOnUse"><stop offset=".695" stop-color="#6B669F" stop-opacity="0"/><stop offset=".92" stop-color="#6B669F"/></radialGradient><radialGradient id="crossed-swords_svg__K" cx="0" cy="0" r="1" gradientTransform="matrix(-2.12501 2.18749 -8.44556 -8.20435 10.736 20.875)" gradientUnits="userSpaceOnUse"><stop offset=".508" stop-color="#493A5A"/><stop offset=".819" stop-color="#493A5A" stop-opacity="0"/></radialGradient><radialGradient id="crossed-swords_svg__L" cx="0" cy="0" r="1" gradientTransform="matrix(-2.46878 3.49997 -6.06135 -4.2755 10.267 20.563)" gradientUnits="userSpaceOnUse"><stop offset=".696" stop-color="#492E62" stop-opacity="0"/><stop offset=".918" stop-color="#492E62"/></radialGradient><radialGradient id="crossed-swords_svg__M" cx="0" cy="0" r="1" gradientTransform="matrix(1 5.875 -1.17474 .19996 5.454 17.281)" gradientUnits="userSpaceOnUse"><stop offset=".095" stop-color="#7A678F"/><stop offset="1" stop-color="#7A678F" stop-opacity="0"/></radialGradient><filter id="crossed-swords_svg__b" width="6.355" height="6.355" x="21.786" y="21.733" color-interpolation-filters="sRGB" filterUnits="userSpaceOnUse"><feFlood flood-opacity="0" result="BackgroundImageFix"/><feBlend in="SourceGraphic" in2="BackgroundImageFix" result="shape"/><feGaussianBlur result="effect1_foregroundBlur_18_24030" stdDeviation=".325"/></filter><filter id="crossed-swords_svg__d" width="22.875" height="22.875" x="1.616" y="2.106" color-interpolation-filters="sRGB" filterUnits="userSpaceOnUse"><feFlood flood-opacity="0" result="BackgroundImageFix"/><feBlend in="SourceGraphic" in2="BackgroundImageFix" result="shape"/><feColorMatrix in="SourceAlpha" result="hardAlpha" values="0 0 0 0 0 0 0 0 0 0 0 0 0 0 0 0 0 0 127 0"/><feOffset dx=".2" dy=".2"/><feGaussianBlur stdDeviation=".2"/><feComposite in2="hardAlpha" k2="-1" k3="1" operator="arithmetic"/><feColorMatrix values="0 0 0 0 0.662745 0 0 0 0 0.643137 0 0 0 0 0.686275 0 0 0 1 0"/><feBlend in2="shape" result="effect1_innerShadow_18_24030"/></filter><filter id="crossed-swords_svg__h" width="4.551" height="4.551" x="24.871" y="25.4" color-interpolation-filters="sRGB" filterUnits="userSpaceOnUse"><feFlood flood-opacity="0" result="BackgroundImageFix"/><feBlend in="SourceGraphic" in2="BackgroundImageFix" result="shape"/><feColorMatrix in="SourceAlpha" result="hardAlpha" values="0 0 0 0 0 0 0 0 0 0 0 0 0 0 0 0 0 0 127 0"/><feOffset/><feGaussianBlur stdDeviation=".25"/><feComposite in2="hardAlpha" k2="-1" k3="1" operator="arithmetic"/><feColorMatrix values="0 0 0 0 0.27451 0 0 0 0 0.258824 0 0 0 0 0.552941 0 0 0 1 0"/><feBlend in2="shape" result="effect1_innerShadow_18_24030"/></filter><filter id="crossed-swords_svg__l" width="22.508" height="20.922" x="1.783" y="2.106" color-interpolation-filters="sRGB" filterUnits="userSpaceOnUse"><feFlood flood-opacity="0" result="BackgroundImageFix"/><feBlend in="SourceGraphic" in2="BackgroundImageFix" result="shape"/><feColorMatrix in="SourceAlpha" result="hardAlpha" values="0 0 0 0 0 0 0 0 0 0 0 0 0 0 0 0 0 0 127 0"/><feOffset dy=".2"/><feGaussianBlur stdDeviation=".25"/><feComposite in2="hardAlpha" k2="-1" k3="1" operator="arithmetic"/><feColorMatrix values="0 0 0 0 0.772549 0 0 0 0 0.772549 0 0 0 0 0.776471 0 0 0 1 0"/><feBlend in2="shape" result="effect1_innerShadow_18_24030"/></filter><filter id="crossed-swords_svg__u" width="8.647" height="8.57" x="16.694" y="17.281" color-interpolation-filters="sRGB" filterUnits="userSpaceOnUse"><feFlood flood-opacity="0" result="BackgroundImageFix"/><feBlend in="SourceGraphic" in2="BackgroundImageFix" result="shape"/><feGaussianBlur result="effect1_foregroundBlur_18_24030" stdDeviation=".3"/></filter><filter id="crossed-swords_svg__x" width="6.355" height="6.355" x="2.898" y="21.733" color-interpolation-filters="sRGB" filterUnits="userSpaceOnUse"><feFlood flood-opacity="0" result="BackgroundImageFix"/><feBlend in="SourceGraphic" in2="BackgroundImageFix" result="shape"/><feGaussianBlur result="effect1_foregroundBlur_18_24030" stdDeviation=".325"/></filter><filter id="crossed-swords_svg__z" width="22.875" height="22.875" x="6.747" y="2.106" color-interpolation-filters="sRGB" filterUnits="userSpaceOnUse"><feFlood flood-opacity="0" result="BackgroundImageFix"/><feBlend in="SourceGraphic" in2="BackgroundImageFix" result="shape"/><feColorMatrix in="SourceAlpha" result="hardAlpha" values="0 0 0 0 0 0 0 0 0 0 0 0 0 0 0 0 0 0 127 0"/><feOffset dx=".2" dy=".2"/><feGaussianBlur stdDeviation=".2"/><feComposite in2="hardAlpha" k2="-1" k3="1" operator="arithmetic"/><feColorMatrix values="0 0 0 0 0.662745 0 0 0 0 0.643137 0 0 0 0 0.686275 0 0 0 1 0"/><feBlend in2="shape" result="effect1_innerShadow_18_24030"/></filter><filter id="crossed-swords_svg__C" width="4.551" height="4.551" x="1.616" y="25.4" color-interpolation-filters="sRGB" filterUnits="userSpaceOnUse"><feFlood flood-opacity="0" result="BackgroundImageFix"/><feBlend in="SourceGraphic" in2="BackgroundImageFix" result="shape"/><feColorMatrix in="SourceAlpha" result="hardAlpha" values="0 0 0 0 0 0 0 0 0 0 0 0 0 0 0 0 0 0 127 0"/><feOffset/><feGaussianBlur stdDeviation=".25"/><feComposite in2="hardAlpha" k2="-1" k3="1" operator="arithmetic"/><feColorMatrix values="0 0 0 0 0.27451 0 0 0 0 0.258824 0 0 0 0 0.552941 0 0 0 1 0"/><feBlend in2="shape" result="effect1_innerShadow_18_24030"/></filter><filter id="crossed-swords_svg__G" width="22.508" height="20.922" x="6.747" y="2.106" color-interpolation-filters="sRGB" filterUnits="userSpaceOnUse"><feFlood flood-opacity="0" result="BackgroundImageFix"/><feBlend in="SourceGraphic" in2="BackgroundImageFix" result="shape"/><feColorMatrix in="SourceAlpha" result="hardAlpha" values="0 0 0 0 0 0 0 0 0 0 0 0 0 0 0 0 0 0 127 0"/><feOffset dy=".2"/><feGaussianBlur stdDeviation=".25"/><feComposite in2="hardAlpha" k2="-1" k3="1" operator="arithmetic"/><feColorMatrix values="0 0 0 0 0.772549 0 0 0 0 0.772549 0 0 0 0 0.776471 0 0 0 1 0"/><feBlend in2="shape" result="effect1_innerShadow_18_24030"/></filter><filter id="crossed-swords_svg__N" width="8.647" height="8.57" x="5.698" y="17.281" color-interpolation-filters="sRGB" filterUnits="userSpaceOnUse"><feFlood flood-opacity="0" result="BackgroundImageFix"/><feBlend in="SourceGraphic" in2="BackgroundImageFix" result="shape"/><feGaussianBlur result="effect1_foregroundBlur_18_24030" stdDeviation=".3"/></filter></defs></svg>