<svg xmlns="http://www.w3.org/2000/svg" fill="none" viewBox="0 0 32 32"><path fill="url(#dashing-away_svg__a)" d="M21.852 8.387c.103.315.375.551.703.6a7.224 7.224 0 0 1 .012 14.284.88.88 0 0 0-.703.605 5.885 5.885 0 0 1-11.261-.162l-.001.002c-.602-2.13-1.557-4.085-4.68-5.356-.342-.153-.27-.568.1-.515 1.289.182 2.886.697 4.551 1.526.17.085.363.041.482-.081.033-.063.057-.056.092-.118l.008-.045.003-.023a.52.52 0 0 0-.226-.508c-1.256-.774-4.02-1.485-7.83-1.577-.938 0-1.33-.375-1.352-.838.022-.464.273-.838 1.352-.838 3.81-.092 6.574-.804 7.83-1.577a.52.52 0 0 0 .226-.508l-.003-.023a.41.41 0 0 0-.592-.314c-1.665.83-3.297 1.317-4.585 1.499-.371.052-.443-.362-.101-.516 3.522-1.581 4.177-3.608 4.555-4.78q.066-.206.126-.374a5.885 5.885 0 0 1 11.294-.363"/><path fill="url(#dashing-away_svg__b)" d="M21.852 8.387c.103.315.375.551.703.6a7.224 7.224 0 0 1 .012 14.284.88.88 0 0 0-.703.605 5.885 5.885 0 0 1-11.261-.162l-.001.002c-.602-2.13-1.557-4.085-4.68-5.356-.342-.153-.27-.568.1-.515 1.289.182 2.886.697 4.551 1.526.17.085.363.041.482-.081.033-.063.057-.056.092-.118l.008-.045.003-.023a.52.52 0 0 0-.226-.508c-1.256-.774-4.02-1.485-7.83-1.577-.938 0-1.33-.375-1.352-.838.022-.464.273-.838 1.352-.838 3.81-.092 6.574-.804 7.83-1.577a.52.52 0 0 0 .226-.508l-.003-.023a.41.41 0 0 0-.592-.314c-1.665.83-3.297 1.317-4.585 1.499-.371.052-.443-.362-.101-.516 3.522-1.581 4.177-3.608 4.555-4.78q.066-.206.126-.374a5.885 5.885 0 0 1 11.294-.363"/><path fill="url(#dashing-away_svg__c)" d="M21.852 8.387c.103.315.375.551.703.6a7.224 7.224 0 0 1 .012 14.284.88.88 0 0 0-.703.605 5.885 5.885 0 0 1-11.261-.162l-.001.002c-.602-2.13-1.557-4.085-4.68-5.356-.342-.153-.27-.568.1-.515 1.289.182 2.886.697 4.551 1.526.17.085.363.041.482-.081.033-.063.057-.056.092-.118l.008-.045.003-.023a.52.52 0 0 0-.226-.508c-1.256-.774-4.02-1.485-7.83-1.577-.938 0-1.33-.375-1.352-.838.022-.464.273-.838 1.352-.838 3.81-.092 6.574-.804 7.83-1.577a.52.52 0 0 0 .226-.508l-.003-.023a.41.41 0 0 0-.592-.314c-1.665.83-3.297 1.317-4.585 1.499-.371.052-.443-.362-.101-.516 3.522-1.581 4.177-3.608 4.555-4.78q.066-.206.126-.374a5.885 5.885 0 0 1 11.294-.363"/><path fill="url(#dashing-away_svg__d)" d="M21.852 8.387c.103.315.375.551.703.6a7.224 7.224 0 0 1 .012 14.284.88.88 0 0 0-.703.605 5.885 5.885 0 0 1-11.261-.162l-.001.002c-.602-2.13-1.557-4.085-4.68-5.356-.342-.153-.27-.568.1-.515 1.289.182 2.886.697 4.551 1.526.17.085.363.041.482-.081.033-.063.057-.056.092-.118l.008-.045.003-.023a.52.52 0 0 0-.226-.508c-1.256-.774-4.02-1.485-7.83-1.577-.938 0-1.33-.375-1.352-.838.022-.464.273-.838 1.352-.838 3.81-.092 6.574-.804 7.83-1.577a.52.52 0 0 0 .226-.508l-.003-.023a.41.41 0 0 0-.592-.314c-1.665.83-3.297 1.317-4.585 1.499-.371.052-.443-.362-.101-.516 3.522-1.581 4.177-3.608 4.555-4.78q.066-.206.126-.374a5.885 5.885 0 0 1 11.294-.363"/><path fill="url(#dashing-away_svg__e)" d="M21.852 8.387c.103.315.375.551.703.6a7.224 7.224 0 0 1 .012 14.284.88.88 0 0 0-.703.605 5.885 5.885 0 0 1-11.261-.162l-.001.002c-.602-2.13-1.557-4.085-4.68-5.356-.342-.153-.27-.568.1-.515 1.289.182 2.886.697 4.551 1.526.17.085.363.041.482-.081.033-.063.057-.056.092-.118l.008-.045.003-.023a.52.52 0 0 0-.226-.508c-1.256-.774-4.02-1.485-7.83-1.577-.938 0-1.33-.375-1.352-.838.022-.464.273-.838 1.352-.838 3.81-.092 6.574-.804 7.83-1.577a.52.52 0 0 0 .226-.508l-.003-.023a.41.41 0 0 0-.592-.314c-1.665.83-3.297 1.317-4.585 1.499-.371.052-.443-.362-.101-.516 3.522-1.581 4.177-3.608 4.555-4.78q.066-.206.126-.374a5.885 5.885 0 0 1 11.294-.363"/><path fill="url(#dashing-away_svg__f)" d="M21.852 8.387c.103.315.375.551.703.6a7.224 7.224 0 0 1 .012 14.284.88.88 0 0 0-.703.605 5.885 5.885 0 0 1-11.261-.162l-.001.002c-.602-2.13-1.557-4.085-4.68-5.356-.342-.153-.27-.568.1-.515 1.289.182 2.886.697 4.551 1.526.17.085.363.041.482-.081.033-.063.057-.056.092-.118l.008-.045.003-.023a.52.52 0 0 0-.226-.508c-1.256-.774-4.02-1.485-7.83-1.577-.938 0-1.33-.375-1.352-.838.022-.464.273-.838 1.352-.838 3.81-.092 6.574-.804 7.83-1.577a.52.52 0 0 0 .226-.508l-.003-.023a.41.41 0 0 0-.592-.314c-1.665.83-3.297 1.317-4.585 1.499-.371.052-.443-.362-.101-.516 3.522-1.581 4.177-3.608 4.555-4.78q.066-.206.126-.374a5.885 5.885 0 0 1 11.294-.363"/><path fill="url(#dashing-away_svg__g)" d="M21.852 8.387c.103.315.375.551.703.6a7.224 7.224 0 0 1 .012 14.284.88.88 0 0 0-.703.605 5.885 5.885 0 0 1-11.261-.162l-.001.002c-.602-2.13-1.557-4.085-4.68-5.356-.342-.153-.27-.568.1-.515 1.289.182 2.886.697 4.551 1.526.17.085.363.041.482-.081.033-.063.057-.056.092-.118l.008-.045.003-.023a.52.52 0 0 0-.226-.508c-1.256-.774-4.02-1.485-7.83-1.577-.938 0-1.33-.375-1.352-.838.022-.464.273-.838 1.352-.838 3.81-.092 6.574-.804 7.83-1.577a.52.52 0 0 0 .226-.508l-.003-.023a.41.41 0 0 0-.592-.314c-1.665.83-3.297 1.317-4.585 1.499-.371.052-.443-.362-.101-.516 3.522-1.581 4.177-3.608 4.555-4.78q.066-.206.126-.374a5.885 5.885 0 0 1 11.294-.363"/><path fill="url(#dashing-away_svg__h)" d="M11.133 18.853a2.185 2.185 0 0 0-1.12-3.492l-2.037-.551c-1.324.286-2.968.487-4.874.533-1.079 0-1.33.374-1.352.838.022.463.414.838 1.352.838 3.81.092 6.574.803 7.83 1.577.099.06.166.152.201.257"/><path fill="url(#dashing-away_svg__i)" d="M25.335 22.237a7.2 7.2 0 0 1-2.768 1.034.88.88 0 0 0-.703.605 5.9 5.9 0 0 1-.918 1.766c-1.35-1.2-3.019-2.983-4.555-5.149.837.517 5.109 1.95 8.944 1.744"/><circle cx="26.656" cy="6.946" r="2.297" fill="url(#dashing-away_svg__j)"/><circle cx="26.656" cy="6.946" r="2.297" fill="url(#dashing-away_svg__k)"/><circle cx="26.656" cy="6.946" r="2.297" fill="url(#dashing-away_svg__l)" style="mix-blend-mode:multiply"/><circle cx="21.93" cy="4.704" r="1.305" fill="url(#dashing-away_svg__m)"/><circle cx="21.93" cy="4.704" r="1.305" fill="url(#dashing-away_svg__n)"/><circle cx="21.93" cy="4.704" r="1.305" fill="url(#dashing-away_svg__o)" style="mix-blend-mode:multiply"/><circle cx="22.57" cy="27.657" r="1.289" fill="url(#dashing-away_svg__p)"/><circle cx="22.57" cy="27.657" r="1.289" fill="url(#dashing-away_svg__q)" style="mix-blend-mode:multiply"/><g filter="url(#dashing-away_svg__r)"><circle cx="16" cy="10.259" r="4.796" fill="url(#dashing-away_svg__s)"/><circle cx="16" cy="10.259" r="4.796" fill="url(#dashing-away_svg__t)"/><circle cx="16" cy="10.259" r="4.796" fill="url(#dashing-away_svg__u)"/></g><g filter="url(#dashing-away_svg__v)"><circle cx="15.861" cy="21.936" r="5.002" fill="url(#dashing-away_svg__w)"/></g><g filter="url(#dashing-away_svg__x)"><circle cx="15.861" cy="21.936" r="5.002" fill="url(#dashing-away_svg__y)"/></g><g filter="url(#dashing-away_svg__z)"><path fill="url(#dashing-away_svg__A)" d="M27.813 15.939c.421 2.867-1.9 6.477-5.883 6.742-5.164.343-8.696-3.047-8.696-6.742 0-3.696 4.25-7.196 8.696-6.57 3.249 0 5.883 3.32 5.883 6.57"/><path fill="url(#dashing-away_svg__B)" d="M27.813 15.939c.421 2.867-1.9 6.477-5.883 6.742-5.164.343-8.696-3.047-8.696-6.742 0-3.696 4.25-7.196 8.696-6.57 3.249 0 5.883 3.32 5.883 6.57"/><path fill="url(#dashing-away_svg__C)" d="M27.813 15.939c.421 2.867-1.9 6.477-5.883 6.742-5.164.343-8.696-3.047-8.696-6.742 0-3.696 4.25-7.196 8.696-6.57 3.249 0 5.883 3.32 5.883 6.57"/><path fill="url(#dashing-away_svg__D)" d="M27.813 15.939c.421 2.867-1.9 6.477-5.883 6.742-5.164.343-8.696-3.047-8.696-6.742 0-3.696 4.25-7.196 8.696-6.57 3.249 0 5.883 3.32 5.883 6.57"/></g><g filter="url(#dashing-away_svg__E)"><path stroke="url(#dashing-away_svg__F)" stroke-linecap="round" d="M15.172 18.556c.854.937 2.844 3.375 6.531 4.28"/></g><g filter="url(#dashing-away_svg__G)"><path stroke="#EEE2E3" stroke-linecap="round" stroke-width=".25" d="M2.89 16.056c.949-.021 3.294-.132 5.094-.407"/></g><defs><radialGradient id="dashing-away_svg__a" cx="0" cy="0" r="1" gradientTransform="rotate(137.364 9.222 8.456)scale(19.2851 18.0913)" gradientUnits="userSpaceOnUse"><stop stop-color="#fff"/><stop offset="1" stop-color="#DCC4E7"/></radialGradient><radialGradient id="dashing-away_svg__c" cx="0" cy="0" r="1" gradientTransform="rotate(-52.485 36.14 5.15)scale(12.2133 19.289)" gradientUnits="userSpaceOnUse"><stop stop-color="#9B91F1"/><stop offset="1" stop-color="#9B91F1" stop-opacity="0"/></radialGradient><radialGradient id="dashing-away_svg__d" cx="0" cy="0" r="1" gradientTransform="matrix(6.9375 5.625 -5.88867 7.2627 7.61 7.18)" gradientUnits="userSpaceOnUse"><stop stop-color="#B3A8A8"/><stop offset="1" stop-color="#B3A8A8" stop-opacity="0"/></radialGradient><radialGradient id="dashing-away_svg__f" cx="0" cy="0" r="1" gradientTransform="rotate(-49.135 25.773 2.629)scale(1.83884 5.5865)" gradientUnits="userSpaceOnUse"><stop stop-color="#B6A8F2"/><stop offset="1" stop-color="#A998F0" stop-opacity="0"/></radialGradient><radialGradient id="dashing-away_svg__h" cx="0" cy="0" r="1" gradientTransform="matrix(.40625 -1.5995 8.05286 2.04532 7.797 18.43)" gradientUnits="userSpaceOnUse"><stop offset=".103" stop-color="#B6A8F2"/><stop offset="1" stop-color="#B6A8F2" stop-opacity="0"/></radialGradient><radialGradient id="dashing-away_svg__i" cx="0" cy="0" r="1" gradientTransform="matrix(-6.1158 -2.1416 .40653 -1.16093 23.944 24.357)" gradientUnits="userSpaceOnUse"><stop stop-color="#ADA0F1"/><stop offset="1" stop-color="#ADA0F1" stop-opacity="0"/></radialGradient><radialGradient id="dashing-away_svg__j" cx="0" cy="0" r="1" gradientTransform="rotate(129.611 12.409 9.097)scale(3.52904 3.95)" gradientUnits="userSpaceOnUse"><stop stop-color="#fff"/><stop offset="1" stop-color="#DED0E4"/></radialGradient><radialGradient id="dashing-away_svg__k" cx="0" cy="0" r="1" gradientTransform="rotate(-45.173 24.764 -23.648)scale(3.65708 3.37577)" gradientUnits="userSpaceOnUse"><stop stop-color="#FFF3C7"/><stop offset="1" stop-color="#FFF3C7" stop-opacity="0"/></radialGradient><radialGradient id="dashing-away_svg__l" cx="0" cy="0" r="1" gradientTransform="rotate(33.764 5.01 38.148)scale(6.69108 5.12211)" gradientUnits="userSpaceOnUse"><stop offset=".042" stop-color="#AFADA8"/><stop offset=".885" stop-color="#AFADA8" stop-opacity="0"/></radialGradient><radialGradient id="dashing-away_svg__m" cx="0" cy="0" r="1" gradientTransform="matrix(-1.68634 2.21885 -2.48353 -1.8875 22.311 3.79)" gradientUnits="userSpaceOnUse"><stop stop-color="#fff"/><stop offset="1" stop-color="#DED0E4"/></radialGradient><radialGradient id="dashing-away_svg__n" cx="0" cy="0" r="1" gradientTransform="matrix(1.46444 -1.47332 1.35999 1.3518 20.465 6.772)" gradientUnits="userSpaceOnUse"><stop stop-color="#FFF3C7"/><stop offset="1" stop-color="#FFF3C7" stop-opacity="0"/></radialGradient><radialGradient id="dashing-away_svg__o" cx="0" cy="0" r="1" gradientTransform="matrix(3.51669 2.03677 -1.3194 2.27806 19.311 2.831)" gradientUnits="userSpaceOnUse"><stop offset=".042" stop-color="#AFADA8"/><stop offset=".885" stop-color="#AFADA8" stop-opacity="0"/></radialGradient><radialGradient id="dashing-away_svg__p" cx="0" cy="0" r="1" gradientTransform="rotate(124.086 4.596 19.658)scale(2.50921 3.81653)" gradientUnits="userSpaceOnUse"><stop stop-color="#fff"/><stop offset="1" stop-color="#ADA0F1"/></radialGradient><radialGradient id="dashing-away_svg__q" cx="0" cy="0" r="1" gradientTransform="matrix(1.60937 1.21875 -.93297 1.232 21.281 26.68)" gradientUnits="userSpaceOnUse"><stop offset=".042" stop-color="#E5CCEF"/><stop offset=".885" stop-color="#E5CCEF" stop-opacity="0"/></radialGradient><radialGradient id="dashing-away_svg__s" cx="0" cy="0" r="1" gradientTransform="rotate(-37.826 25.678 -10.133)scale(12.7393 9.72104)" gradientUnits="userSpaceOnUse"><stop offset=".057" stop-color="#CDC7C7"/><stop offset="1" stop-color="#CDC7C7" stop-opacity="0"/></radialGradient><radialGradient id="dashing-away_svg__t" cx="0" cy="0" r="1" gradientTransform="rotate(-48.819 21.088 -5.316)scale(8.96845 7.1663)" gradientUnits="userSpaceOnUse"><stop stop-color="#BEB4E8"/><stop offset="1" stop-color="#BEB4E8" stop-opacity="0"/></radialGradient><radialGradient id="dashing-away_svg__u" cx="0" cy="0" r="1" gradientTransform="matrix(3.03014 -4.0625 3.64702 2.72023 11.204 12.993)" gradientUnits="userSpaceOnUse"><stop stop-color="#A99DCA"/><stop offset="1" stop-color="#BEB4E8" stop-opacity="0"/></radialGradient><radialGradient id="dashing-away_svg__w" cx="0" cy="0" r="1" gradientTransform="rotate(26.102 -40.176 32.22)scale(5.18505 15.5328)" gradientUnits="userSpaceOnUse"><stop offset=".054" stop-color="#AEA1BC"/><stop offset="1" stop-color="#AEA1BC" stop-opacity="0"/></radialGradient><radialGradient id="dashing-away_svg__y" cx="0" cy="0" r="1" gradientTransform="matrix(6.78643 3.62537 -7.90217 14.7923 7.948 19.618)" gradientUnits="userSpaceOnUse"><stop offset=".054" stop-color="#AEA1BC"/><stop offset="1" stop-color="#AEA1BC" stop-opacity="0"/></radialGradient><radialGradient id="dashing-away_svg__B" cx="0" cy="0" r="1" gradientTransform="matrix(8.75 3.5 -6.6245 16.56124 14.922 13.556)" gradientUnits="userSpaceOnUse"><stop stop-color="#CDC7C7"/><stop offset="1" stop-color="#CDC7C7" stop-opacity="0"/></radialGradient><radialGradient id="dashing-away_svg__C" cx="0" cy="0" r="1" gradientTransform="matrix(8.375 0 0 23 9.86 17.056)" gradientUnits="userSpaceOnUse"><stop stop-color="#AEA1BC"/><stop offset="1" stop-color="#AEA1BC" stop-opacity="0"/></radialGradient><radialGradient id="dashing-away_svg__D" cx="0" cy="0" r="1" gradientTransform="rotate(151.579 12.872 9.807)scale(6.04055 13.7133)" gradientUnits="userSpaceOnUse"><stop stop-color="#fff"/><stop offset="1" stop-color="#fff" stop-opacity="0"/></radialGradient><filter id="dashing-away_svg__r" width="12.091" height="12.092" x="9.954" y="4.213" color-interpolation-filters="sRGB" filterUnits="userSpaceOnUse"><feFlood flood-opacity="0" result="BackgroundImageFix"/><feBlend in="SourceGraphic" in2="BackgroundImageFix" result="shape"/><feGaussianBlur result="effect1_foregroundBlur_7145_6142" stdDeviation=".625"/></filter><filter id="dashing-away_svg__v" width="12.503" height="12.503" x="9.609" y="15.685" color-interpolation-filters="sRGB" filterUnits="userSpaceOnUse"><feFlood flood-opacity="0" result="BackgroundImageFix"/><feBlend in="SourceGraphic" in2="BackgroundImageFix" result="shape"/><feGaussianBlur result="effect1_foregroundBlur_7145_6142" stdDeviation=".625"/></filter><filter id="dashing-away_svg__x" width="12.503" height="12.503" x="9.609" y="15.685" color-interpolation-filters="sRGB" filterUnits="userSpaceOnUse"><feFlood flood-opacity="0" result="BackgroundImageFix"/><feBlend in="SourceGraphic" in2="BackgroundImageFix" result="shape"/><feGaussianBlur result="effect1_foregroundBlur_7145_6142" stdDeviation=".625"/></filter><filter id="dashing-away_svg__z" width="17.127" height="15.909" x="11.984" y="8.045" color-interpolation-filters="sRGB" filterUnits="userSpaceOnUse"><feFlood flood-opacity="0" result="BackgroundImageFix"/><feBlend in="SourceGraphic" in2="BackgroundImageFix" result="shape"/><feGaussianBlur result="effect1_foregroundBlur_7145_6142" stdDeviation=".625"/></filter><filter id="dashing-away_svg__E" width="11.531" height="9.281" x="12.672" y="16.056" color-interpolation-filters="sRGB" filterUnits="userSpaceOnUse"><feFlood flood-opacity="0" result="BackgroundImageFix"/><feBlend in="SourceGraphic" in2="BackgroundImageFix" result="shape"/><feGaussianBlur result="effect1_foregroundBlur_7145_6142" stdDeviation="1"/></filter><filter id="dashing-away_svg__G" width="7.344" height="2.656" x="1.766" y="14.524" color-interpolation-filters="sRGB" filterUnits="userSpaceOnUse"><feFlood flood-opacity="0" result="BackgroundImageFix"/><feBlend in="SourceGraphic" in2="BackgroundImageFix" result="shape"/><feGaussianBlur result="effect1_foregroundBlur_7145_6142" stdDeviation=".5"/></filter><linearGradient id="dashing-away_svg__b" x1="4.859" x2="16.609" y1="19.493" y2="19.493" gradientUnits="userSpaceOnUse"><stop stop-color="#C4B5BE"/><stop offset="1" stop-color="#C4B5BE" stop-opacity="0"/></linearGradient><linearGradient id="dashing-away_svg__e" x1="30.297" x2="24.261" y1="28.993" y2="20.244" gradientUnits="userSpaceOnUse"><stop offset=".103" stop-color="#B6A8F2"/><stop offset="1" stop-color="#B6A8F2" stop-opacity="0"/></linearGradient><linearGradient id="dashing-away_svg__g" x1="8.797" x2="10.672" y1="7.681" y2="9.368" gradientUnits="userSpaceOnUse"><stop stop-color="#AEA3A5"/><stop offset="1" stop-color="#AEA3A5" stop-opacity="0"/></linearGradient><linearGradient id="dashing-away_svg__A" x1="19.672" x2="23.172" y1="26.806" y2="16.931" gradientUnits="userSpaceOnUse"><stop offset=".103" stop-color="#B6A8F2"/><stop offset="1" stop-color="#B6A8F2" stop-opacity="0"/></linearGradient><linearGradient id="dashing-away_svg__F" x1="19.797" x2="14.641" y1="22.837" y2="19.087" gradientUnits="userSpaceOnUse"><stop stop-color="#AEA3E4"/><stop offset="1" stop-color="#AEA3E4" stop-opacity="0"/></linearGradient></defs></svg>