<svg xmlns="http://www.w3.org/2000/svg" fill="none" viewBox="0 0 32 32"><g filter="url(#diya-lamp_svg__a)"><path fill="#692F59" d="M5.298 26.397c-2.702-2.383-3.3-6.763-3.26-8.655v-2.299c.766 2.04 3.217 6.44 6.895 7.717s6.583.39 7.576-.211l12.079-7.271.797.891c-2.29 2.314-7.371 7.442-10.355 10.238-4.421 3.647-10.625 2.51-13.732-.41"/><path fill="url(#diya-lamp_svg__b)" d="M5.298 26.397c-2.702-2.383-3.3-6.763-3.26-8.655v-2.299c.766 2.04 3.217 6.44 6.895 7.717s6.583.39 7.576-.211l12.079-7.271.797.891c-2.29 2.314-7.371 7.442-10.355 10.238-4.421 3.647-10.625 2.51-13.732-.41"/><path fill="url(#diya-lamp_svg__c)" d="M5.298 26.397c-2.702-2.383-3.3-6.763-3.26-8.655v-2.299c.766 2.04 3.217 6.44 6.895 7.717s6.583.39 7.576-.211l12.079-7.271.797.891c-2.29 2.314-7.371 7.442-10.355 10.238-4.421 3.647-10.625 2.51-13.732-.41"/></g><g filter="url(#diya-lamp_svg__d)"><path fill="url(#diya-lamp_svg__e)" fill-rule="evenodd" d="M29.046 16.842a1.872 1.872 0 0 0-.016-3.24L18.258 7.434c-1.92-1.244-4.201-1.982-6.419-1.982-5.418 0-9.81 4.404-9.81 9.837s4.392 9.837 9.81 9.837c1.063 0 2.141-.17 3.186-.483a12.6 12.6 0 0 0 2.53-1.074l.005-.003v.003zm-12.601 4.483 10.029-5.874a.25.25 0 0 0-.002-.433L16.956 9.57l-.058-.037c-1.562-1.012-3.376-1.58-5.059-1.58-4.031 0-7.31 3.279-7.31 7.337 0 4.059 3.279 7.337 7.31 7.337 1.48 0 3.066-.439 4.499-1.241z" clip-rule="evenodd"/></g><path fill="url(#diya-lamp_svg__f)" fill-rule="evenodd" d="M29.046 16.842a1.872 1.872 0 0 0-.016-3.24L18.258 7.434c-1.92-1.244-4.201-1.982-6.419-1.982-5.418 0-9.81 4.404-9.81 9.837s4.392 9.837 9.81 9.837c1.063 0 2.141-.17 3.186-.483a12.6 12.6 0 0 0 2.53-1.074l.005-.003v.003zm-12.601 4.483 10.029-5.874a.25.25 0 0 0-.002-.433L16.956 9.57l-.058-.037c-1.562-1.012-3.376-1.58-5.059-1.58-4.031 0-7.31 3.279-7.31 7.337 0 4.059 3.279 7.337 7.31 7.337 1.48 0 3.066-.439 4.499-1.241z" clip-rule="evenodd"/><g filter="url(#diya-lamp_svg__g)"><path fill="#FF914D" d="m26.474 15.45-10.03 5.875-.106.06c-1.433.802-3.02 1.241-4.499 1.241-4.031 0-7.31-3.278-7.31-7.337s3.279-7.337 7.31-7.337c1.683 0 3.497.568 5.06 1.58l.057.037 9.516 5.45a.25.25 0 0 1 .002.432"/><path fill="url(#diya-lamp_svg__h)" d="m26.474 15.45-10.03 5.875-.106.06c-1.433.802-3.02 1.241-4.499 1.241-4.031 0-7.31-3.278-7.31-7.337s3.279-7.337 7.31-7.337c1.683 0 3.497.568 5.06 1.58l.057.037 9.516 5.45a.25.25 0 0 1 .002.432"/><path fill="url(#diya-lamp_svg__i)" d="m26.474 15.45-10.03 5.875-.106.06c-1.433.802-3.02 1.241-4.499 1.241-4.031 0-7.31-3.278-7.31-7.337s3.279-7.337 7.31-7.337c1.683 0 3.497.568 5.06 1.58l.057.037 9.516 5.45a.25.25 0 0 1 .002.432"/></g><circle cx="11.595" cy="15.289" r="4.997" fill="url(#diya-lamp_svg__j)"/><g filter="url(#diya-lamp_svg__k)"><path fill="url(#diya-lamp_svg__l)" d="m24.703 16.413 1.77-1.037a.25.25 0 0 0-.001-.433l-.75-.429c-.338.38-.831.62-1.38.62H21.98a.65.65 0 1 0 0 1.3h2.36q.184 0 .362-.02"/></g><circle cx="10.313" cy="6.545" r=".506" fill="#FFD24D"/><circle cx="13.344" cy="6.545" r=".506" fill="#3DD181"/><circle cx="16.572" cy="7.772" r=".506" fill="#FFD24E"/><circle cx="19.439" cy="9.421" r=".506" fill="#3AC07B"/><circle cx="22.306" cy="11.069" r=".506" fill="#DF9742"/><circle cx="25.131" cy="12.713" r=".506" fill="#2C855A"/><circle cx="27.791" cy="14.514" r=".506" fill="#FFC84B"/><circle cx="26.447" cy="17.014" r=".506" fill="#3FCD83"/><circle cx="23.572" cy="18.647" r=".506" fill="#FFD150"/><circle cx="20.697" cy="20.28" r=".506" fill="#3FD085"/><circle cx="17.9" cy="21.928" r=".506" fill="#FFD24E"/><circle cx="15.01" cy="23.46" r=".506" fill="#40D187"/><circle cx="11.838" cy="24.053" r=".506" fill="#FFCF52"/><circle cx="8.666" cy="23.46" r=".506" fill="#3BCA85"/><circle cx="5.869" cy="21.73" r=".506" fill="#FFCE4E"/><circle cx="3.931" cy="19.141" r=".506" fill="#34C77E"/><circle cx="3.064" cy="16" r=".506" fill="#FFD04B"/><circle cx="3.361" cy="12.75" r=".506" fill="#36CC7C"/><circle cx="4.845" cy="9.852" r=".506" fill="#FFCF44"/><circle cx="7.283" cy="7.68" r=".506" fill="#3BD27E"/><g stroke-linecap="round" stroke-width="1.3" filter="url(#diya-lamp_svg__m)"><path stroke="#5E2F64" d="M21.962 15.244h1.933a2.5 2.5 0 0 0 2.5-2.5v-1.17"/><path stroke="url(#diya-lamp_svg__n)" d="M21.962 15.244h1.933a2.5 2.5 0 0 0 2.5-2.5v-1.17"/></g><g filter="url(#diya-lamp_svg__o)"><path fill="url(#diya-lamp_svg__p)" d="m23.838 8.298 1.834-3.35c.45-.844 1.527-.847 1.972 0l1.822 3.297q.038.064.071.13l.007.012a3.237 3.237 0 1 1-5.706-.09"/><path fill="url(#diya-lamp_svg__q)" d="m23.838 8.298 1.834-3.35c.45-.844 1.527-.847 1.972 0l1.822 3.297q.038.064.071.13l.007.012a3.237 3.237 0 1 1-5.706-.09"/></g><circle cx="26.667" cy="9.996" r="1.753" fill="url(#diya-lamp_svg__r)"/><defs><linearGradient id="diya-lamp_svg__b" x1="27.681" x2="15.71" y1="17.262" y2="28.124" gradientUnits="userSpaceOnUse"><stop offset=".344" stop-color="#89515A"/><stop offset="1" stop-color="#89515A" stop-opacity="0"/></linearGradient><linearGradient id="diya-lamp_svg__c" x1="1.235" x2="9.533" y1="21.108" y2="21.108" gradientUnits="userSpaceOnUse"><stop stop-color="#79625B"/><stop offset="1" stop-color="#79625B" stop-opacity="0"/></linearGradient><linearGradient id="diya-lamp_svg__e" x1="10.512" x2="29.972" y1="14.53" y2="14.53" gradientUnits="userSpaceOnUse"><stop stop-color="#FF7D48"/><stop offset=".778" stop-color="#FF625F"/></linearGradient><linearGradient id="diya-lamp_svg__i" x1="26.805" x2="18.102" y1="15.289" y2="15.289" gradientUnits="userSpaceOnUse"><stop stop-color="#E16A1B"/><stop offset="1" stop-color="#E16A1B" stop-opacity="0"/></linearGradient><linearGradient id="diya-lamp_svg__l" x1="21.559" x2="24.325" y1="16.04" y2="16.04" gradientUnits="userSpaceOnUse"><stop stop-color="#E37048"/><stop offset="1" stop-color="#E37048" stop-opacity="0"/></linearGradient><linearGradient id="diya-lamp_svg__n" x1="26.737" x2="26.062" y1="12.978" y2="14.563" gradientUnits="userSpaceOnUse"><stop stop-color="#423332"/><stop offset="1" stop-color="#423332" stop-opacity="0"/></linearGradient><linearGradient id="diya-lamp_svg__p" x1="26.667" x2="26.667" y1="6.227" y2="13.11" gradientUnits="userSpaceOnUse"><stop stop-color="#FF7732"/><stop offset="1" stop-color="#FC4275"/></linearGradient><filter id="diya-lamp_svg__a" width="27.35" height="14.055" x="2.036" y="15.043" color-interpolation-filters="sRGB" filterUnits="userSpaceOnUse"><feFlood flood-opacity="0" result="BackgroundImageFix"/><feBlend in="SourceGraphic" in2="BackgroundImageFix" result="shape"/><feColorMatrix in="SourceAlpha" result="hardAlpha" values="0 0 0 0 0 0 0 0 0 0 0 0 0 0 0 0 0 0 127 0"/><feOffset dy="-.4"/><feGaussianBlur stdDeviation=".5"/><feComposite in2="hardAlpha" k2="-1" k3="1" operator="arithmetic"/><feColorMatrix values="0 0 0 0 0.509804 0 0 0 0 0.313726 0 0 0 0 0.52549 0 0 0 1 0"/><feBlend in2="shape" result="effect1_innerShadow_18_20590"/></filter><filter id="diya-lamp_svg__d" width="28.444" height="20.174" x="1.778" y="5.202" color-interpolation-filters="sRGB" filterUnits="userSpaceOnUse"><feFlood flood-opacity="0" result="BackgroundImageFix"/><feBlend in="SourceGraphic" in2="BackgroundImageFix" result="shape"/><feColorMatrix in="SourceAlpha" result="hardAlpha" values="0 0 0 0 0 0 0 0 0 0 0 0 0 0 0 0 0 0 127 0"/><feOffset dx=".25" dy="-.25"/><feGaussianBlur stdDeviation=".3"/><feComposite in2="hardAlpha" k2="-1" k3="1" operator="arithmetic"/><feColorMatrix values="0 0 0 0 0.882353 0 0 0 0 0.27451 0 0 0 0 0.184314 0 0 0 1 0"/><feBlend in2="shape" result="effect1_innerShadow_18_20590"/><feColorMatrix in="SourceAlpha" result="hardAlpha" values="0 0 0 0 0 0 0 0 0 0 0 0 0 0 0 0 0 0 127 0"/><feOffset dx="-.25" dy=".25"/><feGaussianBlur stdDeviation=".3"/><feComposite in2="hardAlpha" k2="-1" k3="1" operator="arithmetic"/><feColorMatrix values="0 0 0 0 1 0 0 0 0 0.596078 0 0 0 0 0.388235 0 0 0 1 0"/><feBlend in2="effect1_innerShadow_18_20590" result="effect2_innerShadow_18_20590"/></filter><filter id="diya-lamp_svg__g" width="23.319" height="15.924" x="4.028" y="7.202" color-interpolation-filters="sRGB" filterUnits="userSpaceOnUse"><feFlood flood-opacity="0" result="BackgroundImageFix"/><feBlend in="SourceGraphic" in2="BackgroundImageFix" result="shape"/><feColorMatrix in="SourceAlpha" result="hardAlpha" values="0 0 0 0 0 0 0 0 0 0 0 0 0 0 0 0 0 0 127 0"/><feOffset dx=".75" dy="-.75"/><feGaussianBlur stdDeviation=".5"/><feComposite in2="hardAlpha" k2="-1" k3="1" operator="arithmetic"/><feColorMatrix values="0 0 0 0 1 0 0 0 0 0.435294 0 0 0 0 0.0784314 0 0 0 1 0"/><feBlend in2="shape" result="effect1_innerShadow_18_20590"/><feColorMatrix in="SourceAlpha" result="hardAlpha" values="0 0 0 0 0 0 0 0 0 0 0 0 0 0 0 0 0 0 127 0"/><feOffset dx="-.5" dy=".5"/><feGaussianBlur stdDeviation=".5"/><feComposite in2="hardAlpha" k2="-1" k3="1" operator="arithmetic"/><feColorMatrix values="0 0 0 0 0.882353 0 0 0 0 0.321569 0 0 0 0 0.0745098 0 0 0 1 0"/><feBlend in2="effect1_innerShadow_18_20590" result="effect2_innerShadow_18_20590"/></filter><filter id="diya-lamp_svg__k" width="6.267" height="2.919" x="20.831" y="14.014" color-interpolation-filters="sRGB" filterUnits="userSpaceOnUse"><feFlood flood-opacity="0" result="BackgroundImageFix"/><feBlend in="SourceGraphic" in2="BackgroundImageFix" result="shape"/><feGaussianBlur result="effect1_foregroundBlur_18_20590" stdDeviation=".25"/></filter><filter id="diya-lamp_svg__m" width="6.383" height="5.221" x="20.662" y="10.923" color-interpolation-filters="sRGB" filterUnits="userSpaceOnUse"><feFlood flood-opacity="0" result="BackgroundImageFix"/><feBlend in="SourceGraphic" in2="BackgroundImageFix" result="shape"/><feColorMatrix in="SourceAlpha" result="hardAlpha" values="0 0 0 0 0 0 0 0 0 0 0 0 0 0 0 0 0 0 127 0"/><feOffset dx="-.65" dy=".25"/><feGaussianBlur stdDeviation=".6"/><feComposite in2="hardAlpha" k2="-1" k3="1" operator="arithmetic"/><feColorMatrix values="0 0 0 0 0.215686 0 0 0 0 0.196078 0 0 0 0 0.223529 0 0 0 1 0"/><feBlend in2="shape" result="effect1_innerShadow_18_20590"/></filter><filter id="diya-lamp_svg__o" width="6.624" height="8.946" x="23.43" y="4.314" color-interpolation-filters="sRGB" filterUnits="userSpaceOnUse"><feFlood flood-opacity="0" result="BackgroundImageFix"/><feBlend in="SourceGraphic" in2="BackgroundImageFix" result="shape"/><feColorMatrix in="SourceAlpha" result="hardAlpha" values="0 0 0 0 0 0 0 0 0 0 0 0 0 0 0 0 0 0 127 0"/><feOffset dx=".15" dy=".15"/><feGaussianBlur stdDeviation=".25"/><feComposite in2="hardAlpha" k2="-1" k3="1" operator="arithmetic"/><feColorMatrix values="0 0 0 0 0.917647 0 0 0 0 0.470588 0 0 0 0 0.329412 0 0 0 1 0"/><feBlend in2="shape" result="effect1_innerShadow_18_20590"/></filter><radialGradient id="diya-lamp_svg__f" cx="0" cy="0" r="1" gradientTransform="rotate(171.425 12.188 6.795)scale(4.29836 7.9749)" gradientUnits="userSpaceOnUse"><stop offset=".193" stop-color="#D74344"/><stop offset="1" stop-color="#D74344" stop-opacity="0"/></radialGradient><radialGradient id="diya-lamp_svg__h" cx="0" cy="0" r="1" gradientTransform="rotate(118.768 5.439 10.613)scale(3.73277 10.3847)" gradientUnits="userSpaceOnUse"><stop stop-color="#FF9F5E"/><stop offset="1" stop-color="#FF9F5E" stop-opacity="0"/></radialGradient><radialGradient id="diya-lamp_svg__j" cx="0" cy="0" r="1" gradientTransform="rotate(130.544 4.827 9.292)scale(10.2398)" gradientUnits="userSpaceOnUse"><stop stop-color="#FFCE4F"/><stop offset="1" stop-color="#FFCB4B"/></radialGradient><radialGradient id="diya-lamp_svg__q" cx="0" cy="0" r="1" gradientTransform="rotate(74.732 10.314 20.876)scale(7.38051 2.21278)" gradientUnits="userSpaceOnUse"><stop stop-color="#FF9E60"/><stop offset="1" stop-color="#FF9E60" stop-opacity="0"/></radialGradient><radialGradient id="diya-lamp_svg__r" cx="0" cy="0" r="1" gradientTransform="rotate(115.908 11.106 13.069)scale(3.29006)" gradientUnits="userSpaceOnUse"><stop offset=".209" stop-color="#FF8"/><stop offset="1" stop-color="#FF9D4F"/></radialGradient></defs></svg>