<svg width="32" height="32" fill="none" xmlns="http://www.w3.org/2000/svg"><path d="M19.983 2.745a1.104 1.104 0 0 1-.787.003 11.177 11.177 0 0 0-3.416-.717l-3.02-.01c-2.547 0-4.952 2.408-4.952 4.751.024.547-.36.574-.802.605-.072.005-.145.01-.218.017-2.439.247-2.297 3.997.327 3.997.417 0 .832-.002 1.242-.003 3.606-.012 6.858-.022 8.242.893 3.977 3.454-1.059 9.311-4.066 9.22-.232-.008-.393-.215-.393-.448v-1.592c0-1.913-1.366-3.721-3.213-4.031-.265-.094-.797-.133-.797.46v3.453c.156 1.631 1.01 2.417 1.557 2.92.276.254.475.437.467.62-.009.193-.223.392-.51.659-.524.487-1.523 1.14-1.523 2.555v3.397c-.004.279.222.509.499.48 1.916-.2 3.52-1.522 3.52-3.473v-.854c0-.332.319-.573.646-.516.78.134 1.586.135 2.422.135 6.27.02 11.735-4.328 11.829-11.545-.008-2.228-.71-4.352-1.892-6.164a.752.752 0 0 1-.06-.736c.5-1.037 1.13-2.003 1.885-2.863.51-.577.22-1.529-.52-1.678l-.37-.075a11.03 11.03 0 0 0-6.096.54Z" fill="url(#a)"/><path d="M19.983 2.745a1.104 1.104 0 0 1-.787.003 11.177 11.177 0 0 0-3.416-.717l-3.02-.01c-2.547 0-4.952 2.408-4.952 4.751.024.547-.36.574-.802.605-.072.005-.145.01-.218.017-2.439.247-2.297 3.997.327 3.997.417 0 .832-.002 1.242-.003 3.606-.012 6.858-.022 8.242.893 3.977 3.454-1.059 9.311-4.066 9.22-.232-.008-.393-.215-.393-.448v-1.592c0-1.913-1.366-3.721-3.213-4.031-.265-.094-.797-.133-.797.46v3.453c.156 1.631 1.01 2.417 1.557 2.92.276.254.475.437.467.62-.009.193-.223.392-.51.659-.524.487-1.523 1.14-1.523 2.555v3.397c-.004.279.222.509.499.48 1.916-.2 3.52-1.522 3.52-3.473v-.854c0-.332.319-.573.646-.516.78.134 1.586.135 2.422.135 6.27.02 11.735-4.328 11.829-11.545-.008-2.228-.71-4.352-1.892-6.164a.752.752 0 0 1-.06-.736c.5-1.037 1.13-2.003 1.885-2.863.51-.577.22-1.529-.52-1.678l-.37-.075a11.03 11.03 0 0 0-6.096.54Z" fill="url(#b)"/><path d="M19.983 2.745a1.104 1.104 0 0 1-.787.003 11.177 11.177 0 0 0-3.416-.717l-3.02-.01c-2.547 0-4.952 2.408-4.952 4.751.024.547-.36.574-.802.605-.072.005-.145.01-.218.017-2.439.247-2.297 3.997.327 3.997.417 0 .832-.002 1.242-.003 3.606-.012 6.858-.022 8.242.893 3.977 3.454-1.059 9.311-4.066 9.22-.232-.008-.393-.215-.393-.448v-1.592c0-1.913-1.366-3.721-3.213-4.031-.265-.094-.797-.133-.797.46v3.453c.156 1.631 1.01 2.417 1.557 2.92.276.254.475.437.467.62-.009.193-.223.392-.51.659-.524.487-1.523 1.14-1.523 2.555v3.397c-.004.279.222.509.499.48 1.916-.2 3.52-1.522 3.52-3.473v-.854c0-.332.319-.573.646-.516.78.134 1.586.135 2.422.135 6.27.02 11.735-4.328 11.829-11.545-.008-2.228-.71-4.352-1.892-6.164a.752.752 0 0 1-.06-.736c.5-1.037 1.13-2.003 1.885-2.863.51-.577.22-1.529-.52-1.678l-.37-.075a11.03 11.03 0 0 0-6.096.54Z" fill="url(#c)"/><path d="M19.983 2.745a1.104 1.104 0 0 1-.787.003 11.177 11.177 0 0 0-3.416-.717l-3.02-.01c-2.547 0-4.952 2.408-4.952 4.751.024.547-.36.574-.802.605-.072.005-.145.01-.218.017-2.439.247-2.297 3.997.327 3.997.417 0 .832-.002 1.242-.003 3.606-.012 6.858-.022 8.242.893 3.977 3.454-1.059 9.311-4.066 9.22-.232-.008-.393-.215-.393-.448v-1.592c0-1.913-1.366-3.721-3.213-4.031-.265-.094-.797-.133-.797.46v3.453c.156 1.631 1.01 2.417 1.557 2.92.276.254.475.437.467.62-.009.193-.223.392-.51.659-.524.487-1.523 1.14-1.523 2.555v3.397c-.004.279.222.509.499.48 1.916-.2 3.52-1.522 3.52-3.473v-.854c0-.332.319-.573.646-.516.78.134 1.586.135 2.422.135 6.27.02 11.735-4.328 11.829-11.545-.008-2.228-.71-4.352-1.892-6.164a.752.752 0 0 1-.06-.736c.5-1.037 1.13-2.003 1.885-2.863.51-.577.22-1.529-.52-1.678l-.37-.075a11.03 11.03 0 0 0-6.096.54Z" fill="url(#d)"/><path d="M19.983 2.745a1.104 1.104 0 0 1-.787.003 11.177 11.177 0 0 0-3.416-.717l-3.02-.01c-2.547 0-4.952 2.408-4.952 4.751.024.547-.36.574-.802.605-.072.005-.145.01-.218.017-2.439.247-2.297 3.997.327 3.997.417 0 .832-.002 1.242-.003 3.606-.012 6.858-.022 8.242.893 3.977 3.454-1.059 9.311-4.066 9.22-.232-.008-.393-.215-.393-.448v-1.592c0-1.913-1.366-3.721-3.213-4.031-.265-.094-.797-.133-.797.46v3.453c.156 1.631 1.01 2.417 1.557 2.92.276.254.475.437.467.62-.009.193-.223.392-.51.659-.524.487-1.523 1.14-1.523 2.555v3.397c-.004.279.222.509.499.48 1.916-.2 3.52-1.522 3.52-3.473v-.854c0-.332.319-.573.646-.516.78.134 1.586.135 2.422.135 6.27.02 11.735-4.328 11.829-11.545-.008-2.228-.71-4.352-1.892-6.164a.752.752 0 0 1-.06-.736c.5-1.037 1.13-2.003 1.885-2.863.51-.577.22-1.529-.52-1.678l-.37-.075a11.03 11.03 0 0 0-6.096.54Z" fill="url(#e)"/><path d="M11.54 11.404 7.808 6.771v.001c.024.547-.36.574-.802.605-.072.005-.145.01-.218.017-2.439.247-2.297 3.997.327 3.997.417 0 .832-.002 1.242-.003 1.109-.004 2.184-.007 3.183.016Z" fill="url(#f)"/><path d="M11.54 11.404 7.808 6.771v.001c.024.547-.36.574-.802.605-.072.005-.145.01-.218.017-2.439.247-2.297 3.997.327 3.997.417 0 .832-.002 1.242-.003 1.109-.004 2.184-.007 3.183.016Z" fill="url(#g)"/><path d="M11.54 11.404 7.808 6.771v.001c.024.547-.36.574-.802.605-.072.005-.145.01-.218.017-2.439.247-2.297 3.997.327 3.997.417 0 .832-.002 1.242-.003 1.109-.004 2.184-.007 3.183.016Z" fill="url(#h)"/><path d="M24.94 7.13c.521-1.154 1.2-2.227 2.03-3.172.51-.577.22-1.529-.52-1.678l-.37-.075a11.041 11.041 0 0 0-6.411.667c1.497.555 3.768 1.87 5.272 4.259Z" fill="url(#i)"/><path d="M24.94 7.13c.521-1.154 1.2-2.227 2.03-3.172.51-.577.22-1.529-.52-1.678l-.37-.075a11.041 11.041 0 0 0-6.411.667c1.497.555 3.768 1.87 5.272 4.259Z" fill="url(#j)"/><path d="M24.94 7.13c.521-1.154 1.2-2.227 2.03-3.172.51-.577.22-1.529-.52-1.678l-.37-.075a11.041 11.041 0 0 0-6.411.667c1.497.555 3.768 1.87 5.272 4.259Z" fill="url(#k)" fill-opacity=".5"/><path d="M24.94 7.13c.521-1.154 1.2-2.227 2.03-3.172.51-.577.22-1.529-.52-1.678l-.37-.075a11.041 11.041 0 0 0-6.411.667c1.497.555 3.768 1.87 5.272 4.259Z" fill="url(#l)"/><path d="M12.337 7.138a.5.5 0 1 0 0-1 .5.5 0 0 0 0 1Z" fill="url(#m)"/><path d="M12.337 7.138a.5.5 0 1 0 0-1 .5.5 0 0 0 0 1Z" fill="url(#n)"/><path d="M12.337 7.138a.5.5 0 1 0 0-1 .5.5 0 0 0 0 1Z" fill="url(#o)"/><path d="M16.204 19.522c1.852-1.998 2.878-5.087.398-7.24-1.385-.916-4.636-.906-8.243-.894-.41.001-.825.003-1.242.003-1.097 0-1.76-.656-1.982-1.438h8.545c2.37 0 4.69.178 5.718 2.297 1.021 2.104.138 4.62-3.194 7.272Z" fill="#58CBFF"/><path d="M16.204 19.522c1.852-1.998 2.878-5.087.398-7.24-1.385-.916-4.636-.906-8.243-.894-.41.001-.825.003-1.242.003-1.097 0-1.76-.656-1.982-1.438h8.545c2.37 0 4.69.178 5.718 2.297 1.021 2.104.138 4.62-3.194 7.272Z" fill="url(#p)"/><path d="M16.204 19.522c1.852-1.998 2.878-5.087.398-7.24-1.385-.916-4.636-.906-8.243-.894-.41.001-.825.003-1.242.003-1.097 0-1.76-.656-1.982-1.438h8.545c2.37 0 4.69.178 5.718 2.297 1.021 2.104.138 4.62-3.194 7.272Z" fill="url(#q)"/><path d="M16.204 19.522c1.852-1.998 2.878-5.087.398-7.24-1.385-.916-4.636-.906-8.243-.894-.41.001-.825.003-1.242.003-1.097 0-1.76-.656-1.982-1.438h8.545c2.37 0 4.69.178 5.718 2.297 1.021 2.104.138 4.62-3.194 7.272Z" fill="url(#r)"/><path d="M15.938 16.172c-1.876-1.575-2.126-3.578-1.813-6.969.04-.437.724-1.049 1.563-1.078.902-.031 1.952.56 1.624 1.219-1.25 2.515-.89 4.937-.453 6.156.37 1.028-.548.986-.922.672Z" fill="#3AB9FF"/><path d="M15.938 16.172c-1.876-1.575-2.126-3.578-1.813-6.969.04-.437.724-1.049 1.563-1.078.902-.031 1.952.56 1.624 1.219-1.25 2.515-.89 4.937-.453 6.156.37 1.028-.548.986-.922.672Z" fill="url(#s)"/><path d="M15.938 16.172c-1.876-1.575-2.126-3.578-1.813-6.969.04-.437.724-1.049 1.563-1.078.902-.031 1.952.56 1.624 1.219-1.25 2.515-.89 4.937-.453 6.156.37 1.028-.548.986-.922.672Z" fill="url(#t)"/><g filter="url(#u)"><path d="M12.837 4.25h2.515c4.235 0 10.047 3.738 9.321 10.488" stroke="#43DFFF" stroke-width="2" stroke-linecap="round"/></g><path d="M26.578 17.03c-3.973 6.176-12.044 6.554-15.49 5.888l1.175 2.4a.566.566 0 0 1 .523-.187c.78.134 1.586.135 2.423.135 5.242.017 9.922-3.02 11.37-8.235Z" fill="url(#v)"/><path d="M26.578 17.03c-3.973 6.176-12.044 6.554-15.49 5.888l1.175 2.4a.566.566 0 0 1 .523-.187c.78.134 1.586.135 2.423.135 5.242.017 9.922-3.02 11.37-8.235Z" fill="url(#w)"/><path d="M26.578 17.03c-3.973 6.176-12.044 6.554-15.49 5.888l1.175 2.4a.566.566 0 0 1 .523-.187c.78.134 1.586.135 2.423.135 5.242.017 9.922-3.02 11.37-8.235Z" fill="url(#x)"/><g filter="url(#y)"><path d="m11.403 23.721.42.612-.298 2.725c-.07 1.383-1.251 1.706-1.834 1.834v-3.18l1.712-1.99Z" fill="url(#z)"/></g><g filter="url(#A)"><path d="M11.508 19.389c0-2.488-1.7-3.389-2.55-3.529v4.367l1.746 2.481.804-.524v-2.795Z" fill="url(#B)"/><path d="M11.508 19.389c0-2.488-1.7-3.389-2.55-3.529v4.367l1.746 2.481.804-.524v-2.795Z" fill="url(#C)"/></g><g filter="url(#D)"><path d="M16.801 16.052c-1.337-3.208-.192-5.848.42-6.96l-.83-.457c-.1.161-.647 1.12-.9 2.879-.294 2.04.67 3.91 1.31 4.538Z" fill="#6ECCFF"/></g><defs><radialGradient id="a" cx="0" cy="0" r="1" gradientUnits="userSpaceOnUse" gradientTransform="rotate(124.807 9.768 9.045) scale(14.2342 20.4941)"><stop stop-color="#50E1FF"/><stop offset="1" stop-color="#36ABFF"/></radialGradient><radialGradient id="b" cx="0" cy="0" r="1" gradientUnits="userSpaceOnUse" gradientTransform="matrix(5 -3.25 3.4347 5.28414 17.02 13.938)"><stop stop-color="#4D98FF"/><stop offset="1" stop-color="#4D98FF" stop-opacity="0"/></radialGradient><radialGradient id="c" cx="0" cy="0" r="1" gradientUnits="userSpaceOnUse" gradientTransform="rotate(-170.049 7.946 5.07) scale(7.23382 3.98285)"><stop stop-color="#4D98FF"/><stop offset="1" stop-color="#4D98FF" stop-opacity="0"/></radialGradient><radialGradient id="d" cx="0" cy="0" r="1" gradientUnits="userSpaceOnUse" gradientTransform="rotate(-133.702 8.92 3.154) scale(6.82975 3.65397)"><stop stop-color="#4292FF"/><stop offset="1" stop-color="#4292FF" stop-opacity="0"/></radialGradient><radialGradient id="e" cx="0" cy="0" r="1" gradientUnits="userSpaceOnUse" gradientTransform="rotate(-65.308 28.213 7.876) scale(3.34537 4.24693)"><stop stop-color="#6B9BFF"/><stop offset="1" stop-color="#6B9BFF" stop-opacity="0"/></radialGradient><radialGradient id="f" cx="0" cy="0" r="1" gradientUnits="userSpaceOnUse" gradientTransform="rotate(57.714 -2.78 10.015) scale(3.71501 2.67598)"><stop stop-color="#57C6FF"/><stop offset="1" stop-color="#57C6FF" stop-opacity="0"/></radialGradient><radialGradient id="i" cx="0" cy="0" r="1" gradientUnits="userSpaceOnUse" gradientTransform="rotate(38.191 8.138 32.85) scale(5.96409 21.6274)"><stop offset=".603" stop-color="#42BDFF" stop-opacity="0"/><stop offset=".914" stop-color="#42BDFF"/></radialGradient><radialGradient id="j" cx="0" cy="0" r="1" gradientUnits="userSpaceOnUse" gradientTransform="matrix(-4.34375 1.21876 -.27379 -.97579 28.615 2.594)"><stop offset=".27" stop-color="#70E0FF"/><stop offset=".74" stop-color="#70E0FF" stop-opacity="0"/></radialGradient><radialGradient id="k" cx="0" cy="0" r="1" gradientUnits="userSpaceOnUse" gradientTransform="matrix(-8.40622 -7.43746 4.42693 -5.00356 28.552 10.5)"><stop offset=".893" stop-color="#52DBFF" stop-opacity="0"/><stop offset="1" stop-color="#92E8FF"/></radialGradient><radialGradient id="l" cx="0" cy="0" r="1" gradientUnits="userSpaceOnUse" gradientTransform="matrix(3.51829 -3 14.10151 16.53774 23.708 5.656)"><stop stop-color="#92E8FF"/><stop offset=".17" stop-color="#52DBFF" stop-opacity="0"/></radialGradient><radialGradient id="m" cx="0" cy="0" r="1" gradientUnits="userSpaceOnUse" gradientTransform="matrix(-.40625 .5625 -.50149 -.3622 12.485 6.477)"><stop offset=".006" stop-color="#433437"/><stop offset="1" stop-color="#3B2838"/></radialGradient><radialGradient id="n" cx="0" cy="0" r="1" gradientUnits="userSpaceOnUse" gradientTransform="rotate(137.642 5 5.682) scale(.35946 .31624)"><stop stop-color="#5C5051"/><stop offset="1" stop-color="#5C5051" stop-opacity="0"/></radialGradient><radialGradient id="p" cx="0" cy="0" r="1" gradientUnits="userSpaceOnUse" gradientTransform="matrix(1.375 -2.3125 3.8369 2.2814 15.71 13.563)"><stop stop-color="#73A9FF"/><stop offset="1" stop-color="#73A9FF" stop-opacity="0"/></radialGradient><radialGradient id="q" cx="0" cy="0" r="1" gradientUnits="userSpaceOnUse" gradientTransform="matrix(.2129 -2.45313 6.63568 .57589 12.467 12.406)"><stop stop-color="#73A9FF"/><stop offset=".951" stop-color="#73A9FF" stop-opacity="0"/></radialGradient><radialGradient id="r" cx="0" cy="0" r="1" gradientUnits="userSpaceOnUse" gradientTransform="matrix(0 1.07812 -2.21612 0 7.96 9.953)"><stop stop-color="#71CBFF"/><stop offset="1" stop-color="#71CBFF" stop-opacity="0"/></radialGradient><radialGradient id="t" cx="0" cy="0" r="1" gradientUnits="userSpaceOnUse" gradientTransform="matrix(-3.8081 1.99142 -3.56152 -6.81054 18.286 12.541)"><stop offset=".706" stop-color="#51A7FF" stop-opacity="0"/><stop offset=".962" stop-color="#439BF4"/></radialGradient><radialGradient id="v" cx="0" cy="0" r="1" gradientUnits="userSpaceOnUse" gradientTransform="rotate(74.102 -3.849 21.846) scale(5.73953 10.6177)"><stop offset=".7" stop-color="#4D98FF" stop-opacity="0"/><stop offset="1" stop-color="#4D98FF"/></radialGradient><radialGradient id="w" cx="0" cy="0" r="1" gradientUnits="userSpaceOnUse" gradientTransform="matrix(1.18785 4.42574 -17.81528 4.78156 18.076 20.891)"><stop offset=".481" stop-color="#8594FF" stop-opacity="0"/><stop offset=".894" stop-color="#8594FF"/></radialGradient><radialGradient id="z" cx="0" cy="0" r="1" gradientUnits="userSpaceOnUse" gradientTransform="rotate(104.138 -3.977 16.737) scale(7.15158 2.16957)"><stop stop-color="#59B8FF"/><stop offset="1" stop-color="#59B8FF" stop-opacity="0"/></radialGradient><radialGradient id="B" cx="0" cy="0" r="1" gradientUnits="userSpaceOnUse" gradientTransform="rotate(-120.493 12.327 7.114) scale(7.29803 4.43944)"><stop stop-color="#59B8FF"/><stop offset="1" stop-color="#59B8FF" stop-opacity="0"/></radialGradient><radialGradient id="C" cx="0" cy="0" r="1" gradientUnits="userSpaceOnUse" gradientTransform="rotate(-111.871 13.276 7.084) scale(2.67289 .97963)"><stop stop-color="#63C6FF"/><stop offset="1" stop-color="#63C6FF" stop-opacity="0"/></radialGradient><linearGradient id="g" x1="9.063" y1="7.797" x2="8.5" y2="8.484" gradientUnits="userSpaceOnUse"><stop stop-color="#3DA9FF"/><stop offset="1" stop-color="#3DA9FF" stop-opacity="0"/></linearGradient><linearGradient id="h" x1="6.125" y1="10.188" x2="6.453" y2="9.656" gradientUnits="userSpaceOnUse"><stop stop-color="#36A3FF"/><stop offset="1" stop-color="#36A3FF" stop-opacity="0"/></linearGradient><linearGradient id="o" x1="12.238" y1="6.245" x2="11.895" y2="6.026" gradientUnits="userSpaceOnUse"><stop stop-color="#5C5051" stop-opacity="0"/><stop offset="1" stop-color="#5C5051"/></linearGradient><linearGradient id="s" x1="16.294" y1="8.733" x2="14.722" y2="14.568" gradientUnits="userSpaceOnUse"><stop stop-color="#49BBFF"/><stop offset="1" stop-color="#49BBFF" stop-opacity="0"/></linearGradient><linearGradient id="x" x1="12.085" y1="25.031" x2="12.731" y2="24.752" gradientUnits="userSpaceOnUse"><stop stop-color="#37ABFF"/><stop offset="1" stop-color="#37ABFF" stop-opacity="0"/></linearGradient><filter id="u" x="9.337" y=".75" width="18.899" height="17.488" filterUnits="userSpaceOnUse" color-interpolation-filters="sRGB"><feFlood flood-opacity="0" result="BackgroundImageFix"/><feBlend in="SourceGraphic" in2="BackgroundImageFix" result="shape"/><feGaussianBlur stdDeviation="1.25" result="effect1_foregroundBlur_28327_5877"/></filter><filter id="y" x="9.191" y="23.221" width="3.131" height="6.171" filterUnits="userSpaceOnUse" color-interpolation-filters="sRGB"><feFlood flood-opacity="0" result="BackgroundImageFix"/><feBlend in="SourceGraphic" in2="BackgroundImageFix" result="shape"/><feGaussianBlur stdDeviation=".25" result="effect1_foregroundBlur_28327_5877"/></filter><filter id="A" x="8.458" y="15.36" width="3.55" height="7.848" filterUnits="userSpaceOnUse" color-interpolation-filters="sRGB"><feFlood flood-opacity="0" result="BackgroundImageFix"/><feBlend in="SourceGraphic" in2="BackgroundImageFix" result="shape"/><feGaussianBlur stdDeviation=".25" result="effect1_foregroundBlur_28327_5877"/></filter><filter id="D" x="14.936" y="8.135" width="2.784" height="8.418" filterUnits="userSpaceOnUse" color-interpolation-filters="sRGB"><feFlood flood-opacity="0" result="BackgroundImageFix"/><feBlend in="SourceGraphic" in2="BackgroundImageFix" result="shape"/><feGaussianBlur stdDeviation=".25" result="effect1_foregroundBlur_28327_5877"/></filter></defs></svg>