<svg width="32" height="32" fill="none" xmlns="http://www.w3.org/2000/svg"><path d="M27.32 14C25.67 9.34 21.22 6 16 6c-5.22 0-9.67 3.34-11.32 8H4v4c0 6.63 5.37 12 12 12s12-5.37 12-12v-4h-.68Zm-6.82 3.64c0 2.21-1.79 4-4 4h-1c-2.21 0-4-1.79-4-4s1.79-3.64 4-3.64h1c2.21 0 4 1.43 4 3.64Z" fill="url(#a)"/><path d="M27.32 14C25.67 9.34 21.22 6 16 6c-5.22 0-9.67 3.34-11.32 8H4v4c0 6.63 5.37 12 12 12s12-5.37 12-12v-4h-.68Zm-6.82 3.64c0 2.21-1.79 4-4 4h-1c-2.21 0-4-1.79-4-4s1.79-3.64 4-3.64h1c2.21 0 4 1.43 4 3.64Z" fill="url(#b)"/><path d="M27.32 14C25.67 9.34 21.22 6 16 6c-5.22 0-9.67 3.34-11.32 8H4v4c0 6.63 5.37 12 12 12s12-5.37 12-12v-4h-.68Zm-6.82 3.64c0 2.21-1.79 4-4 4h-1c-2.21 0-4-1.79-4-4s1.79-3.64 4-3.64h1c2.21 0 4 1.43 4 3.64Z" fill="url(#c)"/><path d="M16 2C9.37 2 3.812 7.37 3.812 14S8.97 26.344 16 26.344c7.031 0 12.25-5.714 12.25-12.344 0-6.63-5.62-12-12.25-12Zm4.5 12c0 2.21-1.79 4-4 4h-1c-2.21 0-4-1.79-4-4 0-2 1.79-3.719 4-3.719h1c2.21 0 4 1.688 4 3.719Z" fill="url(#d)"/><path d="M16 2C9.37 2 3.812 7.37 3.812 14S8.97 26.344 16 26.344c7.031 0 12.25-5.714 12.25-12.344 0-6.63-5.62-12-12.25-12Zm4.5 12c0 2.21-1.79 4-4 4h-1c-2.21 0-4-1.79-4-4 0-2 1.79-3.719 4-3.719h1c2.21 0 4 1.688 4 3.719Z" fill="url(#e)"/><path d="M16 2C9.37 2 3.812 7.37 3.812 14S8.97 26.344 16 26.344c7.031 0 12.25-5.714 12.25-12.344 0-6.63-5.62-12-12.25-12Zm4.5 12c0 2.21-1.79 4-4 4h-1c-2.21 0-4-1.79-4-4 0-2 1.79-3.719 4-3.719h1c2.21 0 4 1.688 4 3.719Z" fill="url(#f)"/><g filter="url(#g)"><path d="M24.483 11.37c.2-.2.2-.54 0-.74l-.78-.78c-.2-.2-.54-.2-.74 0-.2.2-.2.54 0 .74l.78.78c.2.21.54.21.74 0Z" fill="#783C43"/></g><g filter="url(#h)"><path d="M23.056 16.19c-.2-.2-.2-.54 0-.74l.78-.78c.2-.2.54-.2.74 0 .2.2.2.54 0 .74l-.78.78c-.2.21-.54.21-.74 0Z" fill="#733D42"/></g><g filter="url(#i)"><path d="M21.702 20.335c.2-.2.2-.54 0-.74l-.78-.78c-.2-.2-.54-.2-.74 0-.2.2-.2.54 0 .74l.78.78c.2.21.54.21.74 0Z" fill="#7E3B46"/></g><g filter="url(#j)"><path d="M14.033 23.288c-.2-.2-.2-.54 0-.74l.78-.78c.2-.2.54-.2.74 0 .2.2.2.54 0 .74l-.78.78c-.2.21-.54.21-.74 0Z" fill="#823C46"/></g><path d="M24.753 11.291c-.2.2-.54.2-.74 0l-.78-.78c-.2-.2-.2-.54 0-.74.2-.2.54-.2.74 0l.78.78c.21.2.21.54 0 .74Z" fill="url(#k)"/><path d="M24.753 11.291c-.2.2-.54.2-.74 0l-.78-.78c-.2-.2-.2-.54 0-.74.2-.2.54-.2.74 0l.78.78c.21.2.21.54 0 .74Z" fill="url(#l)"/><g filter="url(#m)"><path d="M15.916 6.402c-.2-.2-.2-.54 0-.74l.78-.78c.2-.2.54-.2.74 0 .2.2.2.54 0 .74l-.78.78c-.2.21-.54.21-.74 0Z" fill="#67383D"/></g><g filter="url(#n)"><path d="M20.978 8.42c-.2-.2-.2-.54 0-.74l.78-.78c.2-.2.54-.2.74 0 .2.2.2.54 0 .74l-.78.78c-.2.21-.54.21-.74 0Z" fill="#6B3C40"/></g><path d="M16.15 6.28c-.2-.2-.2-.54 0-.74l.78-.78c.2-.2.54-.2.74 0 .2.2.2.54 0 .74l-.78.78c-.2.21-.54.21-.74 0Z" fill="url(#o)"/><path d="M16.15 6.28c-.2-.2-.2-.54 0-.74l.78-.78c.2-.2.54-.2.74 0 .2.2.2.54 0 .74l-.78.78c-.2.21-.54.21-.74 0Z" fill="url(#p)"/><g filter="url(#q)"><path d="M8.06 9.366c-.2-.2-.2-.54 0-.74l.78-.78c.2-.2.54-.2.74 0 .2.2.2.54 0 .74l-.78.78c-.2.2-.54.2-.74 0Z" fill="#62393D"/></g><path d="M8.334 9.256c-.2-.2-.2-.54 0-.74l.78-.78c.2-.2.54-.2.74 0 .2.2.2.54 0 .74l-.78.78c-.2.2-.54.2-.74 0Z" fill="url(#r)"/><path d="M8.334 9.256c-.2-.2-.2-.54 0-.74l.78-.78c.2-.2.54-.2.74 0 .2.2.2.54 0 .74l-.78.78c-.2.2-.54.2-.74 0Z" fill="url(#s)"/><path d="M14.33 23.198c-.2-.2-.2-.54 0-.74l.78-.78c.2-.2.54-.2.74 0 .2.2.2.54 0 .74l-.78.78c-.2.21-.54.21-.74 0Z" fill="url(#t)"/><path d="M14.33 23.198c-.2-.2-.2-.54 0-.74l.78-.78c.2-.2.54-.2.74 0 .2.2.2.54 0 .74l-.78.78c-.2.21-.54.21-.74 0Z" fill="url(#u)"/><path d="M21.843 20.162c-.2.2-.54.2-.74 0l-.78-.78c-.2-.2-.2-.54 0-.74.2-.2.54-.2.74 0l.78.78c.21.2.21.54 0 .74Z" fill="url(#v)"/><path d="M21.843 20.162c-.2.2-.54.2-.74 0l-.78-.78c-.2-.2-.2-.54 0-.74.2-.2.54-.2.74 0l.78.78c.21.2.21.54 0 .74Z" fill="url(#w)"/><path d="M23.24 16.104c-.2-.2-.2-.54 0-.74l.78-.78c.2-.2.54-.2.74 0 .2.2.2.54 0 .74l-.78.78c-.2.21-.54.21-.74 0Z" fill="url(#x)"/><path d="M23.24 16.104c-.2-.2-.2-.54 0-.74l.78-.78c.2-.2.54-.2.74 0 .2.2.2.54 0 .74l-.78.78c-.2.21-.54.21-.74 0Z" fill="url(#y)"/><g filter="url(#z)"><path d="M11.618 21.253c-.2.2-.54.2-.74 0l-.78-.78c-.2-.2-.2-.54 0-.74.2-.2.54-.2.74 0l.78.78c.21.2.21.54 0 .74Z" fill="#693D49"/></g><path d="M11.838 21.073c-.2.2-.54.2-.74 0l-.78-.78c-.2-.2-.2-.54 0-.74.2-.2.54-.2.74 0l.78.78c.21.2.21.54 0 .74Z" fill="url(#A)"/><path d="M11.838 21.073c-.2.2-.54.2-.74 0l-.78-.78c-.2-.2-.2-.54 0-.74.2-.2.54-.2.74 0l.78.78c.21.2.21.54 0 .74Z" fill="url(#B)"/><g filter="url(#C)"><path d="M6.055 14.166c-.2-.2-.2-.54 0-.74l.78-.78c.2-.2.54-.2.74 0 .2.2.2.54 0 .74l-.78.78c-.2.21-.54.21-.74 0Z" fill="#5A3840"/></g><g filter="url(#D)"><path d="M12.585 7.32c-.2.2-.54.2-.74 0l-.79-.78c-.2-.2-.2-.54 0-.74.2-.2.54-.2.74 0l.78.78c.21.2.21.54.01.74Z" fill="#5A3840"/></g><path d="M12.761 7.197c-.2.2-.54.2-.74 0l-.79-.78c-.2-.2-.2-.54 0-.74.2-.2.54-.2.74 0l.78.78c.21.2.21.54.01.74Z" fill="url(#E)"/><path d="M12.761 7.197c-.2.2-.54.2-.74 0l-.79-.78c-.2-.2-.2-.54 0-.74.2-.2.54-.2.74 0l.78.78c.21.2.21.54.01.74Z" fill="url(#F)"/><path d="M6.334 14.072c-.2-.2-.2-.54 0-.74l.78-.78c.2-.2.54-.2.74 0 .2.2.2.54 0 .74l-.78.78c-.2.21-.54.21-.74 0Z" fill="url(#G)"/><path d="M6.334 14.072c-.2-.2-.2-.54 0-.74l.78-.78c.2-.2.54-.2.74 0 .2.2.2.54 0 .74l-.78.78c-.2.21-.54.21-.74 0Z" fill="url(#H)"/><path d="M21.236 8.339c-.2-.2-.2-.54 0-.74l.78-.78c.2-.2.54-.2.74 0 .2.2.2.54 0 .74l-.78.78c-.2.21-.54.21-.74 0Z" fill="url(#I)"/><path d="M21.236 8.339c-.2-.2-.2-.54 0-.74l.78-.78c.2-.2.54-.2.74 0 .2.2.2.54 0 .74l-.78.78c-.2.21-.54.21-.74 0Z" fill="url(#J)"/><g filter="url(#K)"><path d="M10.502 17.483c-.2.2-.54.2-.74 0l-.78-.78c-.2-.2-.2-.54 0-.74.2-.2.54-.2.74 0l.78.78c.21.2.21.53 0 .74Z" fill="#6F3A43"/></g><path d="M10.76 17.264c-.2.2-.54.2-.74 0l-.78-.78c-.2-.2-.2-.54 0-.74.2-.2.54-.2.74 0l.78.78c.21.2.21.53 0 .74Z" fill="url(#L)"/><path d="M10.76 17.264c-.2.2-.54.2-.74 0l-.78-.78c-.2-.2-.2-.54 0-.74.2-.2.54-.2.74 0l.78.78c.21.2.21.53 0 .74Z" fill="url(#M)"/><g filter="url(#N)"><path d="M10.578 10.484c-1.646 2.624.453 5.11.453 5.11-.501-1.231-.346-3 .172-4.078.902-1.88 2.219-3.063 5.11-3.266-2.735-.39-4.554.352-5.735 2.234Z" fill="url(#O)"/></g><g filter="url(#P)"><path d="M25.375 20.188c-4.75 5.562-12.688 3.5-12.688 3.5 6.608 0 9.542-1.08 12.063-4.563 2.521-3.483 2.188-9.438-.625-13.469 3.25 3.344 4.565 10.65 1.25 14.532Z" fill="url(#Q)"/></g><defs><radialGradient id="b" cx="0" cy="0" r="1" gradientUnits="userSpaceOnUse" gradientTransform="rotate(97.571 3.257 13.18) scale(9.96184 9.16466)"><stop offset=".405" stop-color="#F48F75"/><stop offset=".599" stop-color="#FFA85B"/><stop offset=".955" stop-color="#FFA85B" stop-opacity="0"/></radialGradient><radialGradient id="c" cx="0" cy="0" r="1" gradientUnits="userSpaceOnUse" gradientTransform="matrix(0 5.1875 -5.88997 0 15.688 16.688)"><stop offset=".53" stop-color="#CD777A"/><stop offset="1" stop-color="#D47A70" stop-opacity="0"/></radialGradient><radialGradient id="d" cx="0" cy="0" r="1" gradientUnits="userSpaceOnUse" gradientTransform="rotate(-135.234 16.081 5.146) scale(21.6553 18.6519)"><stop offset=".393" stop-color="#AB6B59"/><stop offset=".912" stop-color="#7E4C42"/><stop offset="1" stop-color="#664946"/></radialGradient><radialGradient id="e" cx="0" cy="0" r="1" gradientUnits="userSpaceOnUse" gradientTransform="matrix(.125 5.5 -5.67368 .12895 16.875 13)"><stop offset=".686" stop-color="#854D42"/><stop offset="1" stop-color="#844C43" stop-opacity="0"/></radialGradient><radialGradient id="f" cx="0" cy="0" r="1" gradientUnits="userSpaceOnUse" gradientTransform="matrix(0 17.9375 -19.5 0 16.313 9.75)"><stop offset=".791" stop-color="#A15B79" stop-opacity="0"/><stop offset=".914" stop-color="#A15B75"/></radialGradient><radialGradient id="l" cx="0" cy="0" r="1" gradientUnits="userSpaceOnUse" gradientTransform="matrix(-.30447 .26563 -.17018 -.19507 24.711 10.805)"><stop stop-color="#FF94FF"/><stop offset="1" stop-color="#FF94FF" stop-opacity="0"/></radialGradient><radialGradient id="p" cx="0" cy="0" r="1" gradientUnits="userSpaceOnUse" gradientTransform="matrix(-1.0625 1.0625 -.60808 -.60808 17.328 5.031)"><stop offset=".637" stop-color="#E55DC8" stop-opacity="0"/><stop offset="1" stop-color="#DB5BC1"/></radialGradient><radialGradient id="s" cx="0" cy="0" r="1" gradientUnits="userSpaceOnUse" gradientTransform="rotate(135.118 3.103 5.967) scale(1.49952 .85818)"><stop offset=".637" stop-color="#E55DC8" stop-opacity="0"/><stop offset="1" stop-color="#DB5BC1"/></radialGradient><radialGradient id="u" cx="0" cy="0" r="1" gradientUnits="userSpaceOnUse" gradientTransform="matrix(-1.0625 1.0625 -.60808 -.60808 15.508 21.949)"><stop offset=".637" stop-color="#E55DC8" stop-opacity="0"/><stop offset="1" stop-color="#DB5BC1"/></radialGradient><radialGradient id="w" cx="0" cy="0" r="1" gradientUnits="userSpaceOnUse" gradientTransform="matrix(-.30447 .26563 -.17018 -.19507 21.801 19.676)"><stop stop-color="#FF94FF"/><stop offset="1" stop-color="#FF94FF" stop-opacity="0"/></radialGradient><radialGradient id="y" cx="0" cy="0" r="1" gradientUnits="userSpaceOnUse" gradientTransform="rotate(133.986 9.055 12.612) scale(1.69913 1.74052)"><stop offset=".659" stop-color="#2A77DD" stop-opacity="0"/><stop offset="1" stop-color="#2B73DA"/></radialGradient><radialGradient id="B" cx="0" cy="0" r="1" gradientUnits="userSpaceOnUse" gradientTransform="matrix(-.30447 .26563 -.17018 -.19507 11.796 20.586)"><stop stop-color="#4FC9FF"/><stop offset="1" stop-color="#50CBFF" stop-opacity="0"/></radialGradient><radialGradient id="F" cx="0" cy="0" r="1" gradientUnits="userSpaceOnUse" gradientTransform="rotate(138.918 5.098 5.737) scale(.40422 .25895)"><stop stop-color="#4FC9FF"/><stop offset="1" stop-color="#50CBFF" stop-opacity="0"/></radialGradient><radialGradient id="H" cx="0" cy="0" r="1" gradientUnits="userSpaceOnUse" gradientTransform="rotate(133.986 1.033 8.007) scale(1.69913 1.74052)"><stop offset=".659" stop-color="#2A77DD" stop-opacity="0"/><stop offset="1" stop-color="#2B73DA"/></radialGradient><radialGradient id="J" cx="0" cy="0" r="1" gradientUnits="userSpaceOnUse" gradientTransform="rotate(133.986 9.702 8.304) scale(1.69913 1.74052)"><stop offset=".659" stop-color="#2A77DD" stop-opacity="0"/><stop offset="1" stop-color="#2B73DA"/></radialGradient><radialGradient id="M" cx="0" cy="0" r="1" gradientUnits="userSpaceOnUse" gradientTransform="matrix(-.30447 .26563 -.17018 -.19507 10.719 16.777)"><stop stop-color="#FF94FF"/><stop offset="1" stop-color="#FF94FF" stop-opacity="0"/></radialGradient><radialGradient id="O" cx="0" cy="0" r="1" gradientUnits="userSpaceOnUse" gradientTransform="rotate(47.09 -5.883 19.203) scale(6.05863 29.5218)"><stop stop-color="#C79A91"/><stop offset="1" stop-color="#C79A91" stop-opacity="0"/></radialGradient><radialGradient id="Q" cx="0" cy="0" r="1" gradientUnits="userSpaceOnUse" gradientTransform="matrix(-13.9378 -5.76496 27.27645 -65.94555 25.25 19.063)"><stop stop-color="#CF9689"/><stop offset="1" stop-color="#D1988A" stop-opacity="0"/></radialGradient><filter id="g" x="22.563" y="9.449" width="2.32" height="2.328" filterUnits="userSpaceOnUse" color-interpolation-filters="sRGB"><feFlood flood-opacity="0" result="BackgroundImageFix"/><feBlend in="SourceGraphic" in2="BackgroundImageFix" result="shape"/><feGaussianBlur stdDeviation=".125" result="effect1_foregroundBlur_18_31224"/></filter><filter id="h" x="22.656" y="14.27" width="2.32" height="2.328" filterUnits="userSpaceOnUse" color-interpolation-filters="sRGB"><feFlood flood-opacity="0" result="BackgroundImageFix"/><feBlend in="SourceGraphic" in2="BackgroundImageFix" result="shape"/><feGaussianBlur stdDeviation=".125" result="effect1_foregroundBlur_18_31224"/></filter><filter id="i" x="19.782" y="18.415" width="2.32" height="2.328" filterUnits="userSpaceOnUse" color-interpolation-filters="sRGB"><feFlood flood-opacity="0" result="BackgroundImageFix"/><feBlend in="SourceGraphic" in2="BackgroundImageFix" result="shape"/><feGaussianBlur stdDeviation=".125" result="effect1_foregroundBlur_18_31224"/></filter><filter id="j" x="13.633" y="21.368" width="2.32" height="2.328" filterUnits="userSpaceOnUse" color-interpolation-filters="sRGB"><feFlood flood-opacity="0" result="BackgroundImageFix"/><feBlend in="SourceGraphic" in2="BackgroundImageFix" result="shape"/><feGaussianBlur stdDeviation=".125" result="effect1_foregroundBlur_18_31224"/></filter><filter id="m" x="15.516" y="4.482" width="2.32" height="2.328" filterUnits="userSpaceOnUse" color-interpolation-filters="sRGB"><feFlood flood-opacity="0" result="BackgroundImageFix"/><feBlend in="SourceGraphic" in2="BackgroundImageFix" result="shape"/><feGaussianBlur stdDeviation=".125" result="effect1_foregroundBlur_18_31224"/></filter><filter id="n" x="20.578" y="6.501" width="2.32" height="2.328" filterUnits="userSpaceOnUse" color-interpolation-filters="sRGB"><feFlood flood-opacity="0" result="BackgroundImageFix"/><feBlend in="SourceGraphic" in2="BackgroundImageFix" result="shape"/><feGaussianBlur stdDeviation=".125" result="effect1_foregroundBlur_18_31224"/></filter><filter id="q" x="7.66" y="7.446" width="2.32" height="2.32" filterUnits="userSpaceOnUse" color-interpolation-filters="sRGB"><feFlood flood-opacity="0" result="BackgroundImageFix"/><feBlend in="SourceGraphic" in2="BackgroundImageFix" result="shape"/><feGaussianBlur stdDeviation=".125" result="effect1_foregroundBlur_18_31224"/></filter><filter id="z" x="9.698" y="19.332" width="2.328" height="2.32" filterUnits="userSpaceOnUse" color-interpolation-filters="sRGB"><feFlood flood-opacity="0" result="BackgroundImageFix"/><feBlend in="SourceGraphic" in2="BackgroundImageFix" result="shape"/><feGaussianBlur stdDeviation=".125" result="effect1_foregroundBlur_18_31224"/></filter><filter id="C" x="5.655" y="12.246" width="2.32" height="2.328" filterUnits="userSpaceOnUse" color-interpolation-filters="sRGB"><feFlood flood-opacity="0" result="BackgroundImageFix"/><feBlend in="SourceGraphic" in2="BackgroundImageFix" result="shape"/><feGaussianBlur stdDeviation=".125" result="effect1_foregroundBlur_18_31224"/></filter><filter id="D" x="10.655" y="5.399" width="2.329" height="2.32" filterUnits="userSpaceOnUse" color-interpolation-filters="sRGB"><feFlood flood-opacity="0" result="BackgroundImageFix"/><feBlend in="SourceGraphic" in2="BackgroundImageFix" result="shape"/><feGaussianBlur stdDeviation=".125" result="effect1_foregroundBlur_18_31224"/></filter><filter id="K" x="8.582" y="15.563" width="2.328" height="2.32" filterUnits="userSpaceOnUse" color-interpolation-filters="sRGB"><feFlood flood-opacity="0" result="BackgroundImageFix"/><feBlend in="SourceGraphic" in2="BackgroundImageFix" result="shape"/><feGaussianBlur stdDeviation=".125" result="effect1_foregroundBlur_18_31224"/></filter><filter id="N" x="8.948" y="7.149" width="8.364" height="9.445" filterUnits="userSpaceOnUse" color-interpolation-filters="sRGB"><feFlood flood-opacity="0" result="BackgroundImageFix"/><feBlend in="SourceGraphic" in2="BackgroundImageFix" result="shape"/><feGaussianBlur stdDeviation=".5" result="effect1_foregroundBlur_18_31224"/></filter><filter id="P" x="11.688" y="4.656" width="16.616" height="20.405" filterUnits="userSpaceOnUse" color-interpolation-filters="sRGB"><feFlood flood-opacity="0" result="BackgroundImageFix"/><feBlend in="SourceGraphic" in2="BackgroundImageFix" result="shape"/><feGaussianBlur stdDeviation=".5" result="effect1_foregroundBlur_18_31224"/></filter><linearGradient id="a" x1="3.563" y1="20.563" x2="28.375" y2="20.563" gradientUnits="userSpaceOnUse"><stop stop-color="#BE8A63"/><stop offset=".184" stop-color="#DF8777"/><stop offset=".463" stop-color="#F28886"/><stop offset=".804" stop-color="#F0AE9C"/><stop offset="1" stop-color="#EAC891"/></linearGradient><linearGradient id="k" x1="23.563" y1="10.938" x2="24.345" y2="10.157" gradientUnits="userSpaceOnUse"><stop stop-color="#D256BC"/><stop offset=".501" stop-color="#FF73E1"/><stop offset="1" stop-color="#FF82E8"/></linearGradient><linearGradient id="o" x1="16.594" y1="5.125" x2="17.281" y2="5.906" gradientUnits="userSpaceOnUse"><stop stop-color="#F66EC9"/><stop offset=".499" stop-color="#FF8AF5"/><stop offset="1" stop-color="#FF72DB"/></linearGradient><linearGradient id="r" x1="8.778" y1="8.099" x2="9.462" y2="8.88" gradientUnits="userSpaceOnUse"><stop stop-color="#F66EC9"/><stop offset=".499" stop-color="#FF8AF5"/><stop offset="1" stop-color="#FF72DB"/></linearGradient><linearGradient id="t" x1="14.774" y1="22.043" x2="15.461" y2="22.824" gradientUnits="userSpaceOnUse"><stop stop-color="#F66EC9"/><stop offset=".499" stop-color="#FF8AF5"/><stop offset="1" stop-color="#FF72DB"/></linearGradient><linearGradient id="v" x1="20.653" y1="19.809" x2="21.435" y2="19.028" gradientUnits="userSpaceOnUse"><stop stop-color="#D256BC"/><stop offset=".501" stop-color="#FF73E1"/><stop offset="1" stop-color="#FF82E8"/></linearGradient><linearGradient id="x" x1="23.684" y1="14.949" x2="24.371" y2="15.73" gradientUnits="userSpaceOnUse"><stop stop-color="#22A4FA"/><stop offset=".499" stop-color="#49C0FF"/><stop offset="1" stop-color="#2AB1FF"/></linearGradient><linearGradient id="A" x1="10.648" y1="20.719" x2="11.43" y2="19.938" gradientUnits="userSpaceOnUse"><stop stop-color="#2A61B8"/><stop offset=".501" stop-color="#25A1FF"/><stop offset="1" stop-color="#2DBFFF"/></linearGradient><linearGradient id="E" x1="11.563" y1="6.844" x2="12.344" y2="6.063" gradientUnits="userSpaceOnUse"><stop stop-color="#2A61B8"/><stop offset=".501" stop-color="#25A1FF"/><stop offset="1" stop-color="#2DBFFF"/></linearGradient><linearGradient id="G" x1="6.778" y1="12.918" x2="7.465" y2="13.699" gradientUnits="userSpaceOnUse"><stop stop-color="#22A4FA"/><stop offset=".499" stop-color="#49C0FF"/><stop offset="1" stop-color="#2AB1FF"/></linearGradient><linearGradient id="I" x1="21.68" y1="7.184" x2="22.367" y2="7.965" gradientUnits="userSpaceOnUse"><stop stop-color="#22A4FA"/><stop offset=".499" stop-color="#49C0FF"/><stop offset="1" stop-color="#2AB1FF"/></linearGradient><linearGradient id="L" x1="9.571" y1="16.91" x2="10.352" y2="16.129" gradientUnits="userSpaceOnUse"><stop stop-color="#D256BC"/><stop offset=".501" stop-color="#FF73E1"/><stop offset="1" stop-color="#FF82E8"/></linearGradient></defs></svg>