<svg width="32" height="32" fill="none" xmlns="http://www.w3.org/2000/svg"><g filter="url(#a)"><path d="m11.542 6.08-5.1 10.35 13.55 2.44.01-15.78c0-.51-.37-.95-.88-1.02a7.321 7.321 0 0 0-7.58 4.01Z" fill="url(#b)"/><path d="m11.542 6.08-5.1 10.35 13.55 2.44.01-15.78c0-.51-.37-.95-.88-1.02a7.321 7.321 0 0 0-7.58 4.01Z" fill="url(#c)"/></g><g filter="url(#d)"><path d="M24.582 18h4.41c.55 0 1 .45 1 1v1c0 6-5.13 10-9.99 10-.56 0-1.01-.45-1.01-1v-1.89c0-.61-.5-1.11-1.11-1.11h-4.13c-5.39 0-9.76-4.37-9.76-9.76V10.5a4.5 4.5 0 0 1 8.424-2.204l.946 1.444c.37.55 1.15.64 1.62.17l5.99-5.92A6.866 6.866 0 0 1 25.812 2h1.94c.68 0 1.24.55 1.24 1.24v3.78c0 4.13-1.61 8.05-4.41 10.98Z" fill="url(#e)"/><path d="M24.582 18h4.41c.55 0 1 .45 1 1v1c0 6-5.13 10-9.99 10-.56 0-1.01-.45-1.01-1v-1.89c0-.61-.5-1.11-1.11-1.11h-4.13c-5.39 0-9.76-4.37-9.76-9.76V10.5a4.5 4.5 0 0 1 8.424-2.204l.946 1.444c.37.55 1.15.64 1.62.17l5.99-5.92A6.866 6.866 0 0 1 25.812 2h1.94c.68 0 1.24.55 1.24 1.24v3.78c0 4.13-1.61 8.05-4.41 10.98Z" fill="url(#f)"/><path d="M24.582 18h4.41c.55 0 1 .45 1 1v1c0 6-5.13 10-9.99 10-.56 0-1.01-.45-1.01-1v-1.89c0-.61-.5-1.11-1.11-1.11h-4.13c-5.39 0-9.76-4.37-9.76-9.76V10.5a4.5 4.5 0 0 1 8.424-2.204l.946 1.444c.37.55 1.15.64 1.62.17l5.99-5.92A6.866 6.866 0 0 1 25.812 2h1.94c.68 0 1.24.55 1.24 1.24v3.78c0 4.13-1.61 8.05-4.41 10.98Z" fill="url(#g)"/><path d="M24.582 18h4.41c.55 0 1 .45 1 1v1c0 6-5.13 10-9.99 10-.56 0-1.01-.45-1.01-1v-1.89c0-.61-.5-1.11-1.11-1.11h-4.13c-5.39 0-9.76-4.37-9.76-9.76V10.5a4.5 4.5 0 0 1 8.424-2.204l.946 1.444c.37.55 1.15.64 1.62.17l5.99-5.92A6.866 6.866 0 0 1 25.812 2h1.94c.68 0 1.24.55 1.24 1.24v3.78c0 4.13-1.61 8.05-4.41 10.98Z" fill="url(#h)"/><path d="M24.582 18h4.41c.55 0 1 .45 1 1v1c0 6-5.13 10-9.99 10-.56 0-1.01-.45-1.01-1v-1.89c0-.61-.5-1.11-1.11-1.11h-4.13c-5.39 0-9.76-4.37-9.76-9.76V10.5a4.5 4.5 0 0 1 8.424-2.204l.946 1.444c.37.55 1.15.64 1.62.17l5.99-5.92A6.866 6.866 0 0 1 25.812 2h1.94c.68 0 1.24.55 1.24 1.24v3.78c0 4.13-1.61 8.05-4.41 10.98Z" fill="url(#i)"/><path d="M24.582 18h4.41c.55 0 1 .45 1 1v1c0 6-5.13 10-9.99 10-.56 0-1.01-.45-1.01-1v-1.89c0-.61-.5-1.11-1.11-1.11h-4.13c-5.39 0-9.76-4.37-9.76-9.76V10.5a4.5 4.5 0 0 1 8.424-2.204l.946 1.444c.37.55 1.15.64 1.62.17l5.99-5.92A6.866 6.866 0 0 1 25.812 2h1.94c.68 0 1.24.55 1.24 1.24v3.78c0 4.13-1.61 8.05-4.41 10.98Z" fill="url(#j)"/><path d="M24.582 18h4.41c.55 0 1 .45 1 1v1c0 6-5.13 10-9.99 10-.56 0-1.01-.45-1.01-1v-1.89c0-.61-.5-1.11-1.11-1.11h-4.13c-5.39 0-9.76-4.37-9.76-9.76V10.5a4.5 4.5 0 0 1 8.424-2.204l.946 1.444c.37.55 1.15.64 1.62.17l5.99-5.92A6.866 6.866 0 0 1 25.812 2h1.94c.68 0 1.24.55 1.24 1.24v3.78c0 4.13-1.61 8.05-4.41 10.98Z" fill="url(#k)"/><path d="M24.582 18h4.41c.55 0 1 .45 1 1v1c0 6-5.13 10-9.99 10-.56 0-1.01-.45-1.01-1v-1.89c0-.61-.5-1.11-1.11-1.11h-4.13c-5.39 0-9.76-4.37-9.76-9.76V10.5a4.5 4.5 0 0 1 8.424-2.204l.946 1.444c.37.55 1.15.64 1.62.17l5.99-5.92A6.866 6.866 0 0 1 25.812 2h1.94c.68 0 1.24.55 1.24 1.24v3.78c0 4.13-1.61 8.05-4.41 10.98Z" fill="url(#l)"/><path d="M24.582 18h4.41c.55 0 1 .45 1 1v1c0 6-5.13 10-9.99 10-.56 0-1.01-.45-1.01-1v-1.89c0-.61-.5-1.11-1.11-1.11h-4.13c-5.39 0-9.76-4.37-9.76-9.76V10.5a4.5 4.5 0 0 1 8.424-2.204l.946 1.444c.37.55 1.15.64 1.62.17l5.99-5.92A6.866 6.866 0 0 1 25.812 2h1.94c.68 0 1.24.55 1.24 1.24v3.78c0 4.13-1.61 8.05-4.41 10.98Z" fill="url(#m)"/><path d="M24.582 18h4.41c.55 0 1 .45 1 1v1c0 6-5.13 10-9.99 10-.56 0-1.01-.45-1.01-1v-1.89c0-.61-.5-1.11-1.11-1.11h-4.13c-5.39 0-9.76-4.37-9.76-9.76V10.5a4.5 4.5 0 0 1 8.424-2.204l.946 1.444c.37.55 1.15.64 1.62.17l5.99-5.92A6.866 6.866 0 0 1 25.812 2h1.94c.68 0 1.24.55 1.24 1.24v3.78c0 4.13-1.61 8.05-4.41 10.98Z" fill="url(#n)"/></g><g filter="url(#o)"><path d="M2.502 8c-.28 0-.5.22-.5.5l-.01 6.72c0 1.11.59 2.15 1.55 2.71l5.74 3.32.51-.86-5.74-3.32a2.154 2.154 0 0 1-1.06-1.85l.01-6.72c0-.28-.23-.5-.5-.5Z" fill="#608C46"/><path d="M2.502 8c-.28 0-.5.22-.5.5l-.01 6.72c0 1.11.59 2.15 1.55 2.71l5.74 3.32.51-.86-5.74-3.32a2.154 2.154 0 0 1-1.06-1.85l.01-6.72c0-.28-.23-.5-.5-.5Z" fill="url(#p)"/><path d="M2.502 8c-.28 0-.5.22-.5.5l-.01 6.72c0 1.11.59 2.15 1.55 2.71l5.74 3.32.51-.86-5.74-3.32a2.154 2.154 0 0 1-1.06-1.85l.01-6.72c0-.28-.23-.5-.5-.5Z" fill="url(#q)"/></g><g filter="url(#r)"><path d="M2.586 8.438v2.874" stroke="url(#s)" stroke-width=".15" stroke-linecap="round"/></g><g filter="url(#t)"><path d="m3.482 17.125 5.026 2.922" stroke="url(#u)" stroke-width=".15" stroke-linecap="round"/></g><path d="M7.398 10.65a.5.5 0 1 0 0-1 .5.5 0 0 0 0 1Z" fill="url(#v)"/><path d="M7.398 10.65a.5.5 0 1 0 0-1 .5.5 0 0 0 0 1Z" fill="url(#w)"/><path d="M7.398 10.65a.5.5 0 1 0 0-1 .5.5 0 0 0 0 1Z" fill="url(#x)"/><path d="M4.024 9.984 2.171 11.11c-.23.14-.23.47 0 .61l1.82 1.09v-2.337c0-.188.032-.489.032-.489Z" fill="url(#y)"/><path d="M4.024 9.984 2.171 11.11c-.23.14-.23.47 0 .61l1.82 1.09v-2.337c0-.188.032-.489.032-.489Z" fill="url(#z)"/><path d="m3.194 15.593-.315.826a.2.2 0 0 0 .185.271l2.514.028a3 3 0 0 0 2.88-2.056l.138-.415a.2.2 0 0 0-.19-.263H5.53a2.5 2.5 0 0 0-2.336 1.609Z" fill="url(#A)"/><path d="m3.194 15.593-.315.826a.2.2 0 0 0 .185.271l2.514.028a3 3 0 0 0 2.88-2.056l.138-.415a.2.2 0 0 0-.19-.263H5.53a2.5 2.5 0 0 0-2.336 1.609Z" fill="url(#B)"/><path d="m5.098 18.855.477-.13a.2.2 0 0 1 .252.193v2.625a2.778 2.778 0 0 1-2.558 2.77.185.185 0 0 1-.2-.185v-2.62a2.75 2.75 0 0 1 2.029-2.653Z" fill="url(#C)"/><path d="m5.098 18.855.477-.13a.2.2 0 0 1 .252.193v2.625a2.778 2.778 0 0 1-2.558 2.77.185.185 0 0 1-.2-.185v-2.62a2.75 2.75 0 0 1 2.029-2.653Z" fill="url(#D)"/><path d="M9.641 22.886a1.945 1.945 0 1 1 1.67-3.133c.672.828.809 1.888.808 2.44 0 .07-.04.133-.1.165-1.017.544-1.898.575-2.378.528Z" fill="#528128"/><path d="M9.641 22.886a1.945 1.945 0 1 1 1.67-3.133c.672.828.809 1.888.808 2.44 0 .07-.04.133-.1.165-1.017.544-1.898.575-2.378.528Z" fill="url(#E)"/><path d="M9.641 22.886a1.945 1.945 0 1 1 1.67-3.133c.672.828.809 1.888.808 2.44 0 .07-.04.133-.1.165-1.017.544-1.898.575-2.378.528Z" fill="url(#F)"/><path d="M9.641 22.886a1.945 1.945 0 1 1 1.67-3.133c.672.828.809 1.888.808 2.44 0 .07-.04.133-.1.165-1.017.544-1.898.575-2.378.528Z" fill="url(#G)"/><path d="M9.641 22.886a1.945 1.945 0 1 1 1.67-3.133c.672.828.809 1.888.808 2.44 0 .07-.04.133-.1.165-1.017.544-1.898.575-2.378.528Z" fill="url(#H)"/><g filter="url(#I)"><path d="M11.722 21.975a.075.075 0 1 0 .15.003l-.15-.003Zm-.476-1.49a.075.075 0 0 0-.117.093l.117-.094Zm.626 1.493c0-.043-.012-.125-.036-.225a3.57 3.57 0 0 0-.111-.375c-.1-.282-.257-.62-.48-.894l-.116.094c.208.257.357.577.455.85a3.4 3.4 0 0 1 .106.359c.024.1.032.166.032.188l.15.003Z" fill="url(#J)"/></g><g filter="url(#K)"><path d="M8.305 14.313c-.188.354-.85 1.143-2 1.468" stroke="url(#L)" stroke-width=".15" stroke-linecap="round"/></g><g filter="url(#M)"><path d="M22.492 19.75c-8.65-.65-13.979-8.708-14.875-12.437 1.656-.5 3.219.53 4.531 2.625 2.703 4.31 8.22 9.145 10.344 9.812Z" fill="url(#N)"/></g><g filter="url(#O)"><path d="m21.907 4.94-7.727 7.622 7.125 6.063c5.621-2.93 6.691-10.713 6.526-14.663a.486.486 0 0 0-.492-.462h-1.92a5 5 0 0 0-3.512 1.44Z" fill="url(#P)"/></g><g filter="url(#Q)"><path d="M22.836 19.75c.354-.167 1.406-.977 1.656-1.445" stroke="url(#R)" stroke-width=".2" stroke-linecap="round"/></g><defs><radialGradient id="b" cx="0" cy="0" r="1" gradientUnits="userSpaceOnUse" gradientTransform="matrix(-5.33245 9.06246 -5.3325 -3.1377 18.555 2)"><stop stop-color="#E2E0E3"/><stop offset="1" stop-color="#C4C2C4"/></radialGradient><radialGradient id="c" cx="0" cy="0" r="1" gradientUnits="userSpaceOnUse" gradientTransform="matrix(-4.58246 5.56252 -3.28385 -2.70527 17.805 4.5)"><stop stop-color="#E6E5E7"/><stop offset="1" stop-color="#E6E5E7" stop-opacity="0"/></radialGradient><radialGradient id="f" cx="0" cy="0" r="1" gradientUnits="userSpaceOnUse" gradientTransform="matrix(7.8125 -17.06247 13.3623 6.11827 6.93 36.688)"><stop stop-color="#9371B5"/><stop offset="1" stop-color="#9371B5" stop-opacity="0"/></radialGradient><radialGradient id="g" cx="0" cy="0" r="1" gradientUnits="userSpaceOnUse" gradientTransform="matrix(11.5625 -10.8125 3.50158 3.74447 8.617 35.375)"><stop stop-color="#9371B5"/><stop offset="1" stop-color="#9371B5" stop-opacity="0"/></radialGradient><radialGradient id="h" cx="0" cy="0" r="1" gradientUnits="userSpaceOnUse" gradientTransform="matrix(4.875 32.93749 -30.77435 4.55484 15.742 3.25)"><stop offset=".754" stop-color="#9371B5" stop-opacity="0"/><stop offset="1" stop-color="#9371B5"/></radialGradient><radialGradient id="i" cx="0" cy="0" r="1" gradientUnits="userSpaceOnUse" gradientTransform="matrix(2.625 7.1875 -7.56392 2.76248 10.367 6.813)"><stop stop-color="#EFECF1"/><stop offset="1" stop-color="#EFECF1" stop-opacity="0"/></radialGradient><radialGradient id="j" cx="0" cy="0" r="1" gradientUnits="userSpaceOnUse" gradientTransform="matrix(0 2.0625 -1.19052 0 28.492 2.813)"><stop stop-color="#E8E4EA"/><stop offset="1" stop-color="#E8E4EA" stop-opacity="0"/></radialGradient><radialGradient id="k" cx="0" cy="0" r="1" gradientUnits="userSpaceOnUse" gradientTransform="matrix(-4.24994 8.00004 -2.75613 -1.46416 31.93 14.688)"><stop stop-color="#E8E4EA"/><stop offset="1" stop-color="#E8E4EA" stop-opacity="0"/></radialGradient><radialGradient id="l" cx="0" cy="0" r="1" gradientUnits="userSpaceOnUse" gradientTransform="rotate(114.692 9.319 18.47) scale(2.99234 1.69771)"><stop stop-color="#E8E4EA"/><stop offset="1" stop-color="#E8E4EA" stop-opacity="0"/></radialGradient><radialGradient id="m" cx="0" cy="0" r="1" gradientUnits="userSpaceOnUse" gradientTransform="matrix(5.1875 -3.3125 3.11097 4.8719 2.867 15)"><stop stop-color="#BCBCBC"/><stop offset="1" stop-color="#BCBCBC" stop-opacity="0"/></radialGradient><radialGradient id="n" cx="0" cy="0" r="1" gradientUnits="userSpaceOnUse" gradientTransform="matrix(.625 2.1875 -4.2794 1.22269 5.305 16)"><stop stop-color="#BCBCBC"/><stop offset="1" stop-color="#BCBCBC" stop-opacity="0"/></radialGradient><radialGradient id="p" cx="0" cy="0" r="1" gradientUnits="userSpaceOnUse" gradientTransform="rotate(-23.523 40.282 3.396) scale(1.4485 4.82788)"><stop stop-color="#799C60"/><stop offset="1" stop-color="#678651" stop-opacity="0"/></radialGradient><radialGradient id="v" cx="0" cy="0" r="1" gradientUnits="userSpaceOnUse" gradientTransform="rotate(125.838 1.22 6.924) scale(.69386 .61861)"><stop offset=".006" stop-color="#433437"/><stop offset="1" stop-color="#3B2838"/></radialGradient><radialGradient id="w" cx="0" cy="0" r="1" gradientUnits="userSpaceOnUse" gradientTransform="rotate(137.643 1.85 6.482) scale(.35946 .31624)"><stop stop-color="#5C5051"/><stop offset="1" stop-color="#5C5051" stop-opacity="0"/></radialGradient><radialGradient id="y" cx="0" cy="0" r="1" gradientUnits="userSpaceOnUse" gradientTransform="matrix(2.58819 0 0 1.50409 2.404 11.257)"><stop stop-color="#EDB134"/><stop offset="1" stop-color="#EAB030"/></radialGradient><radialGradient id="z" cx="0" cy="0" r="1" gradientUnits="userSpaceOnUse" gradientTransform="matrix(1.82813 -.23438 .11993 .93543 2.555 11.313)"><stop stop-color="#FFD150"/><stop offset="1" stop-color="#FFD150" stop-opacity="0"/></radialGradient><radialGradient id="B" cx="0" cy="0" r="1" gradientUnits="userSpaceOnUse" gradientTransform="rotate(57.918 -10.413 11.175) scale(2.47112 3.58939)"><stop stop-color="#698E4E"/><stop offset=".738" stop-color="#698E4E" stop-opacity="0"/></radialGradient><radialGradient id="D" cx="0" cy="0" r="1" gradientUnits="userSpaceOnUse" gradientTransform="rotate(110.854 -4.252 11.779) scale(3.33572 1.19036)"><stop stop-color="#7EA260"/><stop offset="1" stop-color="#7EA160" stop-opacity="0"/></radialGradient><radialGradient id="E" cx="0" cy="0" r="1" gradientUnits="userSpaceOnUse" gradientTransform="matrix(0 4.96875 -5.41839 0 9.973 18.281)"><stop offset=".755" stop-color="#45613C" stop-opacity="0"/><stop offset=".962" stop-color="#45613C"/></radialGradient><radialGradient id="F" cx="0" cy="0" r="1" gradientUnits="userSpaceOnUse" gradientTransform="rotate(-66.207 22.02 4.615) scale(4.72507 3.68237)"><stop offset=".783" stop-color="#45613C" stop-opacity="0"/><stop offset="1" stop-color="#45613C"/></radialGradient><radialGradient id="G" cx="0" cy="0" r="1" gradientUnits="userSpaceOnUse" gradientTransform="rotate(62.688 -11.48 19.205) scale(2.14541 2.42029)"><stop stop-color="#759C59"/><stop offset="1" stop-color="#759C59" stop-opacity="0"/></radialGradient><radialGradient id="H" cx="0" cy="0" r="1" gradientUnits="userSpaceOnUse" gradientTransform="matrix(1.07031 .625 -.93125 1.59477 7.547 19.781)"><stop stop-color="#759C59"/><stop offset="1" stop-color="#759C59" stop-opacity="0"/></radialGradient><linearGradient id="e" x1="10.93" y1="8.75" x2="27.805" y2="35.875" gradientUnits="userSpaceOnUse"><stop stop-color="#D6D1DB"/><stop offset="1" stop-color="#CCBEDA"/></linearGradient><linearGradient id="q" x1="7.367" y1="21.25" x2="6.18" y2="19.125" gradientUnits="userSpaceOnUse"><stop stop-color="#3E6B24"/><stop offset="1" stop-color="#3E6B24" stop-opacity="0"/></linearGradient><linearGradient id="s" x1="3.039" y1="8.984" x2="3.401" y2="10.884" gradientUnits="userSpaceOnUse"><stop stop-color="#759C59"/><stop offset="1" stop-color="#759C59" stop-opacity="0"/></linearGradient><linearGradient id="u" x1="4.182" y1="17.006" x2="10.262" y2="18.997" gradientUnits="userSpaceOnUse"><stop stop-color="#759C59"/><stop offset="1" stop-color="#759C59" stop-opacity="0"/></linearGradient><linearGradient id="x" x1="7.3" y1="9.757" x2="6.956" y2="9.538" gradientUnits="userSpaceOnUse"><stop stop-color="#5C5051" stop-opacity="0"/><stop offset="1" stop-color="#5C5051"/></linearGradient><linearGradient id="A" x1="4.399" y1="14.391" x2="7.414" y2="16.531" gradientUnits="userSpaceOnUse"><stop stop-color="#62854B"/><stop offset="1" stop-color="#3F6B21"/></linearGradient><linearGradient id="C" x1="3.806" y1="19.55" x2="5.926" y2="19.904" gradientUnits="userSpaceOnUse"><stop stop-color="#62854B"/><stop offset="1" stop-color="#3F6B21"/></linearGradient><linearGradient id="J" x1="12.82" y1="22.234" x2="11.391" y2="20.531" gradientUnits="userSpaceOnUse"><stop stop-color="#759C59"/><stop offset="1" stop-color="#759C59" stop-opacity="0"/></linearGradient><linearGradient id="L" x1="7.992" y1="14.594" x2="6.729" y2="15.937" gradientUnits="userSpaceOnUse"><stop stop-color="#759C59"/><stop offset="1" stop-color="#759C59" stop-opacity="0"/></linearGradient><linearGradient id="N" x1="7.445" y1="5.125" x2="24.055" y2="18.563" gradientUnits="userSpaceOnUse"><stop stop-color="#F0EDF1"/><stop offset="1" stop-color="#F0EDF1" stop-opacity="0"/></linearGradient><linearGradient id="P" x1="27.367" y1="3.5" x2="17.617" y2="16.625" gradientUnits="userSpaceOnUse"><stop stop-color="#C9C2D0"/><stop offset="0" stop-color="#C2B8CC"/><stop offset="1" stop-color="#C2B8CC" stop-opacity="0"/></linearGradient><linearGradient id="R" x1="24.383" y1="18.633" x2="23.227" y2="20.352" gradientUnits="userSpaceOnUse"><stop stop-color="#E3DEE9"/><stop offset="1" stop-color="#DDD9E2" stop-opacity="0"/></linearGradient><filter id="a" x="6.442" y="2" width="13.66" height="17.07" filterUnits="userSpaceOnUse" color-interpolation-filters="sRGB"><feFlood flood-opacity="0" result="BackgroundImageFix"/><feBlend in="SourceGraphic" in2="BackgroundImageFix" result="shape"/><feColorMatrix in="SourceAlpha" values="0 0 0 0 0 0 0 0 0 0 0 0 0 0 0 0 0 0 127 0" result="hardAlpha"/><feOffset dx=".1" dy=".2"/><feGaussianBlur stdDeviation=".125"/><feComposite in2="hardAlpha" operator="arithmetic" k2="-1" k3="1"/><feColorMatrix values="0 0 0 0 0.807843 0 0 0 0 0.803922 0 0 0 0 0.807843 0 0 0 1 0"/><feBlend in2="shape" result="effect1_innerShadow_28327_4916"/></filter><filter id="d" x="3.992" y="1.8" width="26" height="28.4" filterUnits="userSpaceOnUse" color-interpolation-filters="sRGB"><feFlood flood-opacity="0" result="BackgroundImageFix"/><feBlend in="SourceGraphic" in2="BackgroundImageFix" result="shape"/><feColorMatrix in="SourceAlpha" values="0 0 0 0 0 0 0 0 0 0 0 0 0 0 0 0 0 0 127 0" result="hardAlpha"/><feOffset dy=".2"/><feGaussianBlur stdDeviation=".2"/><feComposite in2="hardAlpha" operator="arithmetic" k2="-1" k3="1"/><feColorMatrix values="0 0 0 0 0.807843 0 0 0 0 0.803922 0 0 0 0 0.807843 0 0 0 1 0"/><feBlend in2="shape" result="effect1_innerShadow_28327_4916"/><feColorMatrix in="SourceAlpha" values="0 0 0 0 0 0 0 0 0 0 0 0 0 0 0 0 0 0 127 0" result="hardAlpha"/><feOffset dy="-.2"/><feGaussianBlur stdDeviation=".375"/><feComposite in2="hardAlpha" operator="arithmetic" k2="-1" k3="1"/><feColorMatrix values="0 0 0 0 0.611765 0 0 0 0 0.529412 0 0 0 0 0.690196 0 0 0 1 0"/><feBlend in2="effect1_innerShadow_28327_4916" result="effect2_innerShadow_28327_4916"/></filter><filter id="o" x="1.842" y="8" width="7.95" height="13.35" filterUnits="userSpaceOnUse" color-interpolation-filters="sRGB"><feFlood flood-opacity="0" result="BackgroundImageFix"/><feBlend in="SourceGraphic" in2="BackgroundImageFix" result="shape"/><feColorMatrix in="SourceAlpha" values="0 0 0 0 0 0 0 0 0 0 0 0 0 0 0 0 0 0 127 0" result="hardAlpha"/><feOffset dx="-.15" dy=".1"/><feGaussianBlur stdDeviation=".35"/><feComposite in2="hardAlpha" operator="arithmetic" k2="-1" k3="1"/><feColorMatrix values="0 0 0 0 0.278431 0 0 0 0 0.443137 0 0 0 0 0.137255 0 0 0 1 0"/><feBlend in2="shape" result="effect1_innerShadow_28327_4916"/></filter><filter id="r" x="2.261" y="8.113" width=".65" height="3.525" filterUnits="userSpaceOnUse" color-interpolation-filters="sRGB"><feFlood flood-opacity="0" result="BackgroundImageFix"/><feBlend in="SourceGraphic" in2="BackgroundImageFix" result="shape"/><feGaussianBlur stdDeviation=".125" result="effect1_foregroundBlur_28327_4916"/></filter><filter id="t" x="3.157" y="16.8" width="5.676" height="3.572" filterUnits="userSpaceOnUse" color-interpolation-filters="sRGB"><feFlood flood-opacity="0" result="BackgroundImageFix"/><feBlend in="SourceGraphic" in2="BackgroundImageFix" result="shape"/><feGaussianBlur stdDeviation=".125" result="effect1_foregroundBlur_28327_4916"/></filter><filter id="I" x="10.863" y="20.206" width="1.259" height="2.095" filterUnits="userSpaceOnUse" color-interpolation-filters="sRGB"><feFlood flood-opacity="0" result="BackgroundImageFix"/><feBlend in="SourceGraphic" in2="BackgroundImageFix" result="shape"/><feGaussianBlur stdDeviation=".125" result="effect1_foregroundBlur_28327_4916"/></filter><filter id="K" x="5.88" y="13.887" width="2.85" height="2.319" filterUnits="userSpaceOnUse" color-interpolation-filters="sRGB"><feFlood flood-opacity="0" result="BackgroundImageFix"/><feBlend in="SourceGraphic" in2="BackgroundImageFix" result="shape"/><feGaussianBlur stdDeviation=".175" result="effect1_foregroundBlur_28327_4916"/></filter><filter id="M" x="5.117" y="4.688" width="19.875" height="17.562" filterUnits="userSpaceOnUse" color-interpolation-filters="sRGB"><feFlood flood-opacity="0" result="BackgroundImageFix"/><feBlend in="SourceGraphic" in2="BackgroundImageFix" result="shape"/><feGaussianBlur stdDeviation="1.25" result="effect1_foregroundBlur_28327_4916"/></filter><filter id="O" x="12.68" y="2" width="16.667" height="18.125" filterUnits="userSpaceOnUse" color-interpolation-filters="sRGB"><feFlood flood-opacity="0" result="BackgroundImageFix"/><feBlend in="SourceGraphic" in2="BackgroundImageFix" result="shape"/><feGaussianBlur stdDeviation=".75" result="effect1_foregroundBlur_28327_4916"/></filter><filter id="Q" x="22.436" y="17.905" width="2.456" height="2.246" filterUnits="userSpaceOnUse" color-interpolation-filters="sRGB"><feFlood flood-opacity="0" result="BackgroundImageFix"/><feBlend in="SourceGraphic" in2="BackgroundImageFix" result="shape"/><feGaussianBlur stdDeviation=".15" result="effect1_foregroundBlur_28327_4916"/></filter></defs></svg>