<svg xmlns="http://www.w3.org/2000/svg" fill="none" viewBox="0 0 32 32"><path fill="url(#dvd_svg__a)" fill-rule="evenodd" d="M16.188 30.017c7.741 0 14.017-6.276 14.017-14.017S23.929 1.983 16.188 1.983 2.172 8.26 2.172 16s6.275 14.017 14.016 14.017m0-10.705a3.312 3.312 0 1 0 0-6.624 3.312 3.312 0 0 0 0 6.624" clip-rule="evenodd"/><path fill="url(#dvd_svg__b)" fill-rule="evenodd" d="M16.188 30.017c7.741 0 14.017-6.276 14.017-14.017S23.929 1.983 16.188 1.983 2.172 8.26 2.172 16s6.275 14.017 14.016 14.017m0-10.705a3.312 3.312 0 1 0 0-6.624 3.312 3.312 0 0 0 0 6.624" clip-rule="evenodd"/><path fill="url(#dvd_svg__c)" fill-rule="evenodd" d="M16.188 30.017c7.741 0 14.017-6.276 14.017-14.017S23.929 1.983 16.188 1.983 2.172 8.26 2.172 16s6.275 14.017 14.016 14.017m0-10.705a3.312 3.312 0 1 0 0-6.624 3.312 3.312 0 0 0 0 6.624" clip-rule="evenodd"/><path fill="url(#dvd_svg__d)" fill-rule="evenodd" d="M16.188 30.017c7.741 0 14.017-6.276 14.017-14.017S23.929 1.983 16.188 1.983 2.172 8.26 2.172 16s6.275 14.017 14.016 14.017m0-10.705a3.312 3.312 0 1 0 0-6.624 3.312 3.312 0 0 0 0 6.624" clip-rule="evenodd"/><g filter="url(#dvd_svg__e)"><path fill="url(#dvd_svg__f)" fill-rule="evenodd" d="M16.188 29.116c7.244 0 13.116-5.872 13.116-13.116S23.432 2.884 16.188 2.884 3.072 8.756 3.072 16s5.872 13.116 13.116 13.116M19.96 16c0 1.83-1.943 3.903-3.772 3.903S12.191 17.829 12.191 16s2.168-4.015 3.997-4.015c1.83 0 3.772 2.186 3.772 4.015" clip-rule="evenodd"/></g><path fill="url(#dvd_svg__g)" fill-rule="evenodd" d="M16.188 20.34a4.34 4.34 0 1 0 0-8.68 4.34 4.34 0 0 0 0 8.68M19.5 16a3.312 3.312 0 1 1-6.624 0 3.312 3.312 0 0 1 6.624 0" clip-rule="evenodd"/><g filter="url(#dvd_svg__h)"><path fill="url(#dvd_svg__i)" d="M12.894 13.175a4.33 4.33 0 0 1 3.294-1.514c1.213 0 2.309.497 3.096 1.299l5.783-5.783a.58.58 0 0 0-.008-.838 13.07 13.07 0 0 0-8.87-3.455 13.08 13.08 0 0 0-9.507 4.08z"/></g><g filter="url(#dvd_svg__j)"><path fill="url(#dvd_svg__k)" d="M19.013 19.294a4.32 4.32 0 0 1-2.825 1.045 4.33 4.33 0 0 1-3.04-1.243l-5.78 5.78a.58.58 0 0 0 .01.841 13.07 13.07 0 0 0 8.81 3.399 13.06 13.06 0 0 0 9.037-3.61z"/></g><g filter="url(#dvd_svg__l)"><path stroke="#EFA141" stroke-width=".05" d="M16.188 20.364a4.364 4.364 0 1 0 0-8.728 4.364 4.364 0 0 0 0 8.728Z"/></g><defs><radialGradient id="dvd_svg__b" cx="0" cy="0" r="1" gradientTransform="matrix(-7.95577 18.6701 -16.34619 -6.9655 17.408 11.347)" gradientUnits="userSpaceOnUse"><stop offset=".868" stop-color="#FF684C" stop-opacity="0"/><stop offset=".987" stop-color="#FF684C"/></radialGradient><radialGradient id="dvd_svg__c" cx="0" cy="0" r="1" gradientTransform="rotate(-148.057 14.128 6.887)scale(22.9355 17.9161)" gradientUnits="userSpaceOnUse"><stop offset=".887" stop-color="#B99C5E" stop-opacity="0"/><stop offset=".979" stop-color="#B99C5E"/></radialGradient><radialGradient id="dvd_svg__d" cx="0" cy="0" r="1" gradientTransform="rotate(-37.405 33.362 -9.487)scale(18.5493)" gradientUnits="userSpaceOnUse"><stop offset=".894" stop-color="#FFE86D" stop-opacity="0"/><stop offset=".991" stop-color="#FFE86D"/></radialGradient><radialGradient id="dvd_svg__g" cx="0" cy="0" r="1" gradientTransform="translate(12.754 16)scale(9.23183)" gradientUnits="userSpaceOnUse"><stop offset=".62" stop-color="#F8AE59"/><stop offset="1" stop-color="#D48B52"/></radialGradient><linearGradient id="dvd_svg__a" x1="16.188" x2="16.188" y1="1.983" y2="30.017" gradientUnits="userSpaceOnUse"><stop stop-color="#E9CE53"/><stop offset="1" stop-color="#FF974E"/></linearGradient><linearGradient id="dvd_svg__f" x1="16.188" x2="16.188" y1="8.419" y2="29.116" gradientUnits="userSpaceOnUse"><stop stop-color="#F4BD5B"/><stop offset="1" stop-color="#FF9E54"/></linearGradient><linearGradient id="dvd_svg__i" x1="25.242" x2="11.929" y1="6.918" y2="6.918" gradientUnits="userSpaceOnUse"><stop stop-color="#FFF25C"/><stop offset="1" stop-color="#FFF25C" stop-opacity="0"/></linearGradient><linearGradient id="dvd_svg__k" x1="11.366" x2="18.796" y1="19.941" y2="22.192" gradientUnits="userSpaceOnUse"><stop stop-color="#FFD05A"/><stop offset="1" stop-color="#FFD05A" stop-opacity="0"/></linearGradient><filter id="dvd_svg__e" width="26.732" height="26.732" x="2.822" y="2.634" color-interpolation-filters="sRGB" filterUnits="userSpaceOnUse"><feFlood flood-opacity="0" result="BackgroundImageFix"/><feBlend in="SourceGraphic" in2="BackgroundImageFix" result="shape"/><feGaussianBlur result="effect1_foregroundBlur_18_19871" stdDeviation=".125"/></filter><filter id="dvd_svg__h" width="19.06" height="10.791" x="6.432" y="2.634" color-interpolation-filters="sRGB" filterUnits="userSpaceOnUse"><feFlood flood-opacity="0" result="BackgroundImageFix"/><feBlend in="SourceGraphic" in2="BackgroundImageFix" result="shape"/><feGaussianBlur result="effect1_foregroundBlur_18_19871" stdDeviation=".125"/></filter><filter id="dvd_svg__j" width="18.532" height="10.52" x="6.943" y="18.846" color-interpolation-filters="sRGB" filterUnits="userSpaceOnUse"><feFlood flood-opacity="0" result="BackgroundImageFix"/><feBlend in="SourceGraphic" in2="BackgroundImageFix" result="shape"/><feGaussianBlur result="effect1_foregroundBlur_18_19871" stdDeviation=".125"/></filter><filter id="dvd_svg__l" width="8.978" height="8.978" x="11.699" y="11.511" color-interpolation-filters="sRGB" filterUnits="userSpaceOnUse"><feFlood flood-opacity="0" result="BackgroundImageFix"/><feBlend in="SourceGraphic" in2="BackgroundImageFix" result="shape"/><feGaussianBlur result="effect1_foregroundBlur_18_19871" stdDeviation=".05"/></filter></defs></svg>