<svg xmlns="http://www.w3.org/2000/svg" fill="none" viewBox="0 0 32 32"><g filter="url(#eagle_svg__a)"><path fill="#B5B1BB" d="M9.154 16.006h-7.16c0-2.768 2.18-5 4.86-5h3.577v5z"/><path fill="url(#eagle_svg__b)" d="M9.154 16.006h-7.16c0-2.768 2.18-5 4.86-5h3.577v5z"/><path fill="url(#eagle_svg__c)" d="M9.154 16.006h-7.16c0-2.768 2.18-5 4.86-5h3.577v5z"/><path fill="url(#eagle_svg__d)" d="M9.154 16.006h-7.16c0-2.768 2.18-5 4.86-5h3.577v5z"/><path fill="url(#eagle_svg__e)" d="M9.154 16.006h-7.16c0-2.768 2.18-5 4.86-5h3.577v5z"/></g><g filter="url(#eagle_svg__f)"><path fill="#D0CBD5" d="M25.9 24.49c.453.625-.208 1.484-1.078 1.484h-2.735c-2.906 0-4.093-2.359-3.703-4.292l5.266-.114z"/><path fill="url(#eagle_svg__g)" d="M25.9 24.49c.453.625-.208 1.484-1.078 1.484h-2.735c-2.906 0-4.093-2.359-3.703-4.292l5.266-.114z"/><path fill="url(#eagle_svg__h)" d="M25.9 24.49c.453.625-.208 1.484-1.078 1.484h-2.735c-2.906 0-4.093-2.359-3.703-4.292l5.266-.114z"/><path fill="url(#eagle_svg__i)" d="M25.9 24.49c.453.625-.208 1.484-1.078 1.484h-2.735c-2.906 0-4.093-2.359-3.703-4.292l5.266-.114z"/><path fill="url(#eagle_svg__j)" d="M25.9 24.49c.453.625-.208 1.484-1.078 1.484h-2.735c-2.906 0-4.093-2.359-3.703-4.292l5.266-.114z"/></g><path fill="url(#eagle_svg__k)" d="M4.002 16.006s-.796.567-1.298.851c-.501.285-.71.288-.71-.851 0-2.391 1.471-3.666 1.998-4.047z"/><path fill="url(#eagle_svg__l)" d="M4.002 16.006s-.796.567-1.298.851c-.501.285-.71.288-.71-.851 0-2.391 1.471-3.666 1.998-4.047z"/><path fill="url(#eagle_svg__m)" d="M4.002 16.006s-.796.567-1.298.851c-.501.285-.71.288-.71-.851 0-2.391 1.471-3.666 1.998-4.047z"/><path fill="url(#eagle_svg__n)" d="M4.002 16.006s-.796.567-1.298.851c-.501.285-.71.288-.71-.851 0-2.391 1.471-3.666 1.998-4.047z"/><path fill="url(#eagle_svg__o)" d="M22.344 15.6h-5.12c-.79 0-1.25-.784-.78-1.424l.88-1.623h7.77c0 1.906-1.679 3.046-2.75 3.046"/><path fill="url(#eagle_svg__p)" d="M22.344 15.6h-5.12c-.79 0-1.25-.784-.78-1.424l.88-1.623h7.77c0 1.906-1.679 3.046-2.75 3.046"/><path fill="url(#eagle_svg__q)" d="M22.344 15.6h-5.12c-.79 0-1.25-.784-.78-1.424l.88-1.623h7.77c0 1.906-1.679 3.046-2.75 3.046"/><path fill="url(#eagle_svg__r)" d="M24.444 13.106h-7.27c-.79 0-1.29-.86-.9-1.55l1.13-1.99h10.57c0 1.96-1.58 3.54-3.53 3.54"/><path fill="url(#eagle_svg__s)" d="M24.444 13.106h-7.27c-.79 0-1.29-.86-.9-1.55l1.13-1.99h10.57c0 1.96-1.58 3.54-3.53 3.54"/><path fill="url(#eagle_svg__t)" d="M24.444 13.106h-7.27c-.79 0-1.29-.86-.9-1.55l1.13-1.99h10.57c0 1.96-1.58 3.54-3.53 3.54"/><path fill="url(#eagle_svg__u)" d="M24.444 13.106h-7.27c-.79 0-1.29-.86-.9-1.55l1.13-1.99h10.57c0 1.96-1.58 3.54-3.53 3.54"/><path fill="url(#eagle_svg__v)" d="M26.064 10.196h-9.04c-.75 0-1.25-.79-.92-1.47l1.3-2.7h12.83c.01 2.3-1.86 4.17-4.17 4.17"/><path fill="url(#eagle_svg__w)" d="M26.064 10.196h-9.04c-.75 0-1.25-.79-.92-1.47l1.3-2.7h12.83c.01 2.3-1.86 4.17-4.17 4.17"/><path fill="url(#eagle_svg__x)" d="M26.064 10.196h-9.04c-.75 0-1.25-.79-.92-1.47l1.3-2.7h12.83c.01 2.3-1.86 4.17-4.17 4.17"/><path fill="url(#eagle_svg__y)" d="M26.064 10.196h-9.04c-.75 0-1.25-.79-.92-1.47l1.3-2.7h12.83c.01 2.3-1.86 4.17-4.17 4.17"/><path fill="#85564A" d="m8.962 22.006 3.031-5 8.25 5z"/><path fill="url(#eagle_svg__z)" d="m8.962 22.006 3.031-5 8.25 5z"/><path fill="url(#eagle_svg__A)" d="m8.962 22.006 3.031-5 8.25 5z"/><path fill="url(#eagle_svg__B)" d="M8.634 22.584c.625-.367 1.484-.303 1.953.297.176.225.426.04.405-.14a2 2 0 0 0-.125-.451c-.314-.747-1.026-1.273-1.832-1.284a2.01 2.01 0 0 0-2.041 2.02c0 .526.198.95.523 1.308.126.137.401-.017.36-.196-.118-.5.152-1.199.757-1.554"/><path fill="url(#eagle_svg__C)" d="M8.634 22.584c.625-.367 1.484-.303 1.953.297.176.225.426.04.405-.14a2 2 0 0 0-.125-.451c-.314-.747-1.026-1.273-1.832-1.284a2.01 2.01 0 0 0-2.041 2.02c0 .526.198.95.523 1.308.126.137.401-.017.36-.196-.118-.5.152-1.199.757-1.554"/><path fill="url(#eagle_svg__D)" d="M8.634 22.584c.625-.367 1.484-.303 1.953.297.176.225.426.04.405-.14a2 2 0 0 0-.125-.451c-.314-.747-1.026-1.273-1.832-1.284a2.01 2.01 0 0 0-2.041 2.02c0 .526.198.95.523 1.308.126.137.401-.017.36-.196-.118-.5.152-1.199.757-1.554"/><path fill="#BE7C6E" d="m19.305 15.615 4.742 5.985a.25.25 0 0 1-.194.406h-6.364c-5.052 0-8.489-3.578-8.489-7.99s3.43-7.99 8.489-7.99h1.816z"/><path fill="url(#eagle_svg__E)" d="m19.305 15.615 4.742 5.985a.25.25 0 0 1-.194.406h-6.364c-5.052 0-8.489-3.578-8.489-7.99s3.43-7.99 8.489-7.99h1.816z"/><path fill="url(#eagle_svg__F)" d="m19.305 15.615 4.742 5.985a.25.25 0 0 1-.194.406h-6.364c-5.052 0-8.489-3.578-8.489-7.99s3.43-7.99 8.489-7.99h1.816z"/><path fill="url(#eagle_svg__G)" d="m19.305 15.615 4.742 5.985a.25.25 0 0 1-.194.406h-6.364c-5.052 0-8.489-3.578-8.489-7.99s3.43-7.99 8.489-7.99h1.816z"/><path fill="url(#eagle_svg__H)" d="m19.305 15.615 4.742 5.985a.25.25 0 0 1-.194.406h-6.364c-5.052 0-8.489-3.578-8.489-7.99s3.43-7.99 8.489-7.99h1.816z"/><path fill="url(#eagle_svg__I)" d="m19.305 15.615 4.742 5.985a.25.25 0 0 1-.194.406h-6.364c-5.052 0-8.489-3.578-8.489-7.99s3.43-7.99 8.489-7.99h1.816z"/><circle cx="5.494" cy="13.521" r=".5" fill="url(#eagle_svg__J)"/><circle cx="5.494" cy="13.521" r=".5" fill="url(#eagle_svg__K)"/><circle cx="5.494" cy="13.521" r=".5" fill="url(#eagle_svg__L)"/><g filter="url(#eagle_svg__M)"><path stroke="url(#eagle_svg__N)" stroke-linecap="round" stroke-width=".2" d="M18.837 6.412v8.828"/></g><g filter="url(#eagle_svg__O)"><path stroke="url(#eagle_svg__P)" stroke-linecap="round" stroke-width=".15" d="M8.533 22.326c.208-.151.867-.43 1.585-.117"/></g><defs><linearGradient id="eagle_svg__c" x1="6.212" x2="6.212" y1="18.006" y2="15.287" gradientUnits="userSpaceOnUse"><stop stop-color="#65586E"/><stop offset="1" stop-color="#65586E" stop-opacity="0"/></linearGradient><linearGradient id="eagle_svg__e" x1="2.775" x2="4.275" y1="13.943" y2="13.943" gradientUnits="userSpaceOnUse"><stop stop-color="#65586E"/><stop offset="1" stop-color="#65586E" stop-opacity="0"/></linearGradient><linearGradient id="eagle_svg__g" x1="25.275" x2="24.931" y1="23.506" y2="23.771" gradientUnits="userSpaceOnUse"><stop stop-color="#FCFBFF"/><stop offset="1" stop-color="#FCFBFF" stop-opacity="0"/></linearGradient><linearGradient id="eagle_svg__h" x1="26.337" x2="24.712" y1="22.943" y2="24.131" gradientUnits="userSpaceOnUse"><stop stop-color="#FCFBFF"/><stop offset="1" stop-color="#FCFBFF" stop-opacity="0"/></linearGradient><linearGradient id="eagle_svg__k" x1="4.002" x2="2.998" y1="11.193" y2="18.381" gradientUnits="userSpaceOnUse"><stop stop-color="#F8EC1D"/><stop offset="1" stop-color="#F5891F"/></linearGradient><linearGradient id="eagle_svg__l" x1="3.275" x2=".104" y1="14.881" y2="16.397" gradientUnits="userSpaceOnUse"><stop stop-color="#BC7824" stop-opacity="0"/><stop offset="1" stop-color="#B17A36"/></linearGradient><linearGradient id="eagle_svg__m" x1="3.447" x2="3.775" y1="15.74" y2="16.256" gradientUnits="userSpaceOnUse"><stop offset=".262" stop-color="#A86717" stop-opacity="0"/><stop offset="1" stop-color="#A86717"/></linearGradient><linearGradient id="eagle_svg__o" x1="20.676" x2="20.676" y1="9.881" y2="14.076" gradientUnits="userSpaceOnUse"><stop stop-color="#C39184"/><stop offset="0" stop-color="#C08E82"/><stop offset="1" stop-color="#A16C6B"/></linearGradient><linearGradient id="eagle_svg__p" x1="20.674" x2="20.674" y1="13.068" y2="14.076" gradientUnits="userSpaceOnUse"><stop stop-color="#83443E"/><stop offset="1" stop-color="#83443E" stop-opacity="0"/></linearGradient><linearGradient id="eagle_svg__q" x1="20.674" x2="20.674" y1="15.986" y2="14.89" gradientUnits="userSpaceOnUse"><stop stop-color="#83443E"/><stop offset=".857" stop-color="#83443E" stop-opacity="0"/></linearGradient><linearGradient id="eagle_svg__r" x1="22.056" x2="22.059" y1="6.381" y2="12.006" gradientUnits="userSpaceOnUse"><stop stop-color="#C39184"/><stop offset="0" stop-color="#C08E82"/><stop offset="1" stop-color="#A16C6B"/></linearGradient><linearGradient id="eagle_svg__s" x1="22.056" x2="22.056" y1="10.474" y2="12.334" gradientUnits="userSpaceOnUse"><stop stop-color="#9E716F"/><stop offset="1" stop-color="#9E716F" stop-opacity="0"/></linearGradient><linearGradient id="eagle_svg__t" x1="22.056" x2="22.056" y1="10.053" y2="11.336" gradientUnits="userSpaceOnUse"><stop stop-color="#83443E"/><stop offset="1" stop-color="#83443E" stop-opacity="0"/></linearGradient><linearGradient id="eagle_svg__u" x1="22.056" x2="22.056" y1="13.555" y2="12.281" gradientUnits="userSpaceOnUse"><stop stop-color="#83443E"/><stop offset=".857" stop-color="#83443E" stop-opacity="0"/></linearGradient><linearGradient id="eagle_svg__v" x1="23.12" x2="23.12" y1="5.738" y2="10.196" gradientUnits="userSpaceOnUse"><stop stop-color="#C39184"/><stop offset="0" stop-color="#C08E82"/><stop offset="1" stop-color="#A16C6B"/></linearGradient><linearGradient id="eagle_svg__w" x1="23.117" x2="23.117" y1="5.037" y2="7.287" gradientUnits="userSpaceOnUse"><stop stop-color="#CB9C8B"/><stop offset="1" stop-color="#CB9C8B" stop-opacity="0"/></linearGradient><linearGradient id="eagle_svg__x" x1="23.117" x2="23.117" y1="5.951" y2="6.685" gradientUnits="userSpaceOnUse"><stop stop-color="#C39184"/><stop offset="0" stop-color="#C08E82"/><stop offset="1" stop-color="#C39184" stop-opacity="0"/></linearGradient><linearGradient id="eagle_svg__y" x1="23.117" x2="23.117" y1="10.724" y2="9.224" gradientUnits="userSpaceOnUse"><stop stop-color="#83443E"/><stop offset=".857" stop-color="#83443E" stop-opacity="0"/></linearGradient><linearGradient id="eagle_svg__z" x1="15.947" x2="10.681" y1="22.006" y2="22.006" gradientUnits="userSpaceOnUse"><stop stop-color="#7C3D3D"/><stop offset=".89" stop-color="#7C3D3D" stop-opacity="0"/></linearGradient><linearGradient id="eagle_svg__A" x1="9.337" x2="11.759" y1="18.99" y2="20.459" gradientUnits="userSpaceOnUse"><stop stop-color="#93756D"/><stop offset="1" stop-color="#93756D" stop-opacity="0"/></linearGradient><linearGradient id="eagle_svg__B" x1="4.494" x2="11.618" y1="27.881" y2="22.006" gradientUnits="userSpaceOnUse"><stop stop-color="#F8EC1D"/><stop offset=".833" stop-color="#F89C20"/></linearGradient><linearGradient id="eagle_svg__L" x1="5.395" x2="5.051" y1="13.129" y2="12.91" gradientUnits="userSpaceOnUse"><stop stop-color="#5C5051" stop-opacity="0"/><stop offset="1" stop-color="#5C5051"/></linearGradient><linearGradient id="eagle_svg__N" x1="19.771" x2="17.588" y1="8.221" y2="8.576" gradientUnits="userSpaceOnUse"><stop stop-color="#DDAA9A"/><stop offset="1" stop-color="#DDAA9A" stop-opacity="0"/></linearGradient><linearGradient id="eagle_svg__P" x1="9.466" x2="8.408" y1="21.935" y2="22.326" gradientUnits="userSpaceOnUse"><stop stop-color="#EAAE5E"/><stop offset="1" stop-color="#EAAE5E" stop-opacity="0"/></linearGradient><radialGradient id="eagle_svg__b" cx="0" cy="0" r="1" gradientTransform="rotate(2.241 -326.695 180.455)scale(7.193 2.86392)" gradientUnits="userSpaceOnUse"><stop stop-color="#F7F6FA"/><stop offset="1" stop-color="#F7F6FA" stop-opacity="0"/></radialGradient><radialGradient id="eagle_svg__d" cx="0" cy="0" r="1" gradientTransform="rotate(-170.44 6.523 6.727)scale(3.01056 4.84979)" gradientUnits="userSpaceOnUse"><stop offset=".199" stop-color="#65586E"/><stop offset="1" stop-color="#65586E" stop-opacity="0"/></radialGradient><radialGradient id="eagle_svg__i" cx="0" cy="0" r="1" gradientTransform="matrix(-4.5 3.14064 -1.78775 -2.56154 21.306 20.63)" gradientUnits="userSpaceOnUse"><stop stop-color="#9B8AA5"/><stop offset="1" stop-color="#9B8AA5" stop-opacity="0"/></radialGradient><radialGradient id="eagle_svg__j" cx="0" cy="0" r="1" gradientTransform="matrix(-4.28125 1.28126 -.54203 -1.81114 21.837 20.756)" gradientUnits="userSpaceOnUse"><stop stop-color="#9B8AA5"/><stop offset="1" stop-color="#9B8AA5" stop-opacity="0"/></radialGradient><radialGradient id="eagle_svg__n" cx="0" cy="0" r="1" gradientTransform="matrix(-1.43749 3 -1.14466 -.54848 4.681 11.068)" gradientUnits="userSpaceOnUse"><stop stop-color="#FFE768"/><stop offset="1" stop-color="#FFE768" stop-opacity="0"/></radialGradient><radialGradient id="eagle_svg__C" cx="0" cy="0" r="1" gradientTransform="matrix(-.78907 -1.27344 2.10672 -1.3054 9.15 23.17)" gradientUnits="userSpaceOnUse"><stop offset=".199" stop-color="#F89C20"/><stop offset=".789" stop-color="#F89C20" stop-opacity="0"/></radialGradient><radialGradient id="eagle_svg__D" cx="0" cy="0" r="1" gradientTransform="rotate(-54.702 28.817 5.15)scale(5.24562 5.93331)" gradientUnits="userSpaceOnUse"><stop offset=".657" stop-color="#BC7824" stop-opacity="0"/><stop offset="1" stop-color="#B17A36"/></radialGradient><radialGradient id="eagle_svg__E" cx="0" cy="0" r="1" gradientTransform="matrix(0 -10.3125 10.9376 0 16.868 22.88)" gradientUnits="userSpaceOnUse"><stop stop-color="#935166"/><stop offset="1" stop-color="#935166" stop-opacity="0"/></radialGradient><radialGradient id="eagle_svg__F" cx="0" cy="0" r="1" gradientTransform="matrix(-7 0 0 -6.57075 20.744 11.193)" gradientUnits="userSpaceOnUse"><stop stop-color="#DAA18F"/><stop offset=".954" stop-color="#DAA18F" stop-opacity="0"/></radialGradient><radialGradient id="eagle_svg__G" cx="0" cy="0" r="1" gradientTransform="rotate(-147.861 14.726 6.49)scale(19.8551 13.9821)" gradientUnits="userSpaceOnUse"><stop offset=".653" stop-color="#CF917C" stop-opacity="0"/><stop offset="1" stop-color="#CF917C"/></radialGradient><radialGradient id="eagle_svg__H" cx="0" cy="0" r="1" gradientTransform="matrix(-3.75 0 0 -3.52004 25.306 23.13)" gradientUnits="userSpaceOnUse"><stop stop-color="#A1675E"/><stop offset="1" stop-color="#A1675E" stop-opacity="0"/></radialGradient><radialGradient id="eagle_svg__I" cx="0" cy="0" r="1" gradientTransform="matrix(1.46875 -1.09375 2.92293 3.92508 9.868 18.38)" gradientUnits="userSpaceOnUse"><stop stop-color="#AB8C8B"/><stop offset=".784" stop-color="#AB8C8B" stop-opacity="0"/></radialGradient><radialGradient id="eagle_svg__J" cx="0" cy="0" r="1" gradientTransform="rotate(125.838 -.595 8.123)scale(.69386 .61861)" gradientUnits="userSpaceOnUse"><stop offset=".006" stop-color="#433437"/><stop offset="1" stop-color="#3B2838"/></radialGradient><radialGradient id="eagle_svg__K" cx="0" cy="0" r="1" gradientTransform="rotate(137.643 .245 7.799)scale(.35946 .31624)" gradientUnits="userSpaceOnUse"><stop stop-color="#5C5051"/><stop offset="1" stop-color="#5C5051" stop-opacity="0"/></radialGradient><filter id="eagle_svg__a" width="8.438" height="5.15" x="1.994" y="11.006" color-interpolation-filters="sRGB" filterUnits="userSpaceOnUse"><feFlood flood-opacity="0" result="BackgroundImageFix"/><feBlend in="SourceGraphic" in2="BackgroundImageFix" result="shape"/><feColorMatrix in="SourceAlpha" result="hardAlpha" values="0 0 0 0 0 0 0 0 0 0 0 0 0 0 0 0 0 0 127 0"/><feOffset dy=".15"/><feGaussianBlur stdDeviation=".25"/><feComposite in2="hardAlpha" k2="-1" k3="1" operator="arithmetic"/><feColorMatrix values="0 0 0 0 0.396078 0 0 0 0 0.345098 0 0 0 0 0.431373 0 0 0 0.25 0"/><feBlend in2="shape" result="effect1_innerShadow_28327_4951"/></filter><filter id="eagle_svg__f" width="7.735" height="4.506" x="18.312" y="21.468" color-interpolation-filters="sRGB" filterUnits="userSpaceOnUse"><feFlood flood-opacity="0" result="BackgroundImageFix"/><feBlend in="SourceGraphic" in2="BackgroundImageFix" result="shape"/><feColorMatrix in="SourceAlpha" result="hardAlpha" values="0 0 0 0 0 0 0 0 0 0 0 0 0 0 0 0 0 0 127 0"/><feOffset dy="-.1"/><feGaussianBlur stdDeviation=".175"/><feComposite in2="hardAlpha" k2="-1" k3="1" operator="arithmetic"/><feColorMatrix values="0 0 0 0 0.658824 0 0 0 0 0.627451 0 0 0 0 0.701961 0 0 0 1 0"/><feBlend in2="shape" result="effect1_innerShadow_28327_4951"/></filter><filter id="eagle_svg__M" width=".8" height="9.628" x="18.437" y="6.012" color-interpolation-filters="sRGB" filterUnits="userSpaceOnUse"><feFlood flood-opacity="0" result="BackgroundImageFix"/><feBlend in="SourceGraphic" in2="BackgroundImageFix" result="shape"/><feGaussianBlur result="effect1_foregroundBlur_28327_4951" stdDeviation=".15"/></filter><filter id="eagle_svg__O" width="1.936" height=".609" x="8.358" y="21.892" color-interpolation-filters="sRGB" filterUnits="userSpaceOnUse"><feFlood flood-opacity="0" result="BackgroundImageFix"/><feBlend in="SourceGraphic" in2="BackgroundImageFix" result="shape"/><feGaussianBlur result="effect1_foregroundBlur_28327_4951" stdDeviation=".05"/></filter></defs></svg>