<svg width="32" height="32" fill="none" xmlns="http://www.w3.org/2000/svg"><path d="M6.708 23.43c0 3.242 2.581 6.18 5.868 6.431 2.37 0 4.459-1.374 5.447-3.22l5.756-10.19a9.292 9.292 0 1 0-17.072-5.084v12.064Z" fill="#FFC94C"/><g filter="url(#a)"><ellipse cx="17.338" cy="9.081" rx="7.28" ry="4.652" transform="rotate(26.087 17.338 9.08)" fill="url(#b)"/></g><g filter="url(#c)"><path d="M12.576 28.735c-3.287-.25-4.545-2.063-4.545-5.304V12.173l2.344-.156 9.188 9.156-2.938 4.969c-.989 1.845-1.68 2.593-4.049 2.593Z" fill="url(#d)"/><path d="M12.576 28.735c-3.287-.25-4.545-2.063-4.545-5.304V12.173l2.344-.156 9.188 9.156-2.938 4.969c-.989 1.845-1.68 2.593-4.049 2.593Z" fill="url(#e)"/></g><g filter="url(#f)"><circle cx="12.284" cy="22.218" r="2.924" fill="url(#g)"/></g><path d="M17.5 3.298c1.927.27 5.975 1.95 6.75 6.5" stroke="#000"/><circle cx="11.755" cy="22.142" r="3" fill="url(#h)"/><circle cx="11.755" cy="22.142" r="3" fill="url(#i)"/><g filter="url(#j)"><circle cx="11.774" cy="22.313" r="2.617" fill="#FFC947"/></g><g filter="url(#k)"><path d="M18.167 22.696a1.8 1.8 0 0 0-2.439.69l-.859 1.52-.018.035c-.366.682-1.156 1.316-2.135 1.316-1.255 0-2.408-1.428-2.408-2.826V11.367a5.692 5.692 0 1 1 11.315.891c-.147.94.126 1.974.943 2.46.9.537 2.084.21 2.37-.797a9.292 9.292 0 1 0-18.23-2.554v12.064c.002 3.24 2.583 6.18 5.87 6.43 2.37 0 4.459-1.374 5.447-3.22l.84-1.485a1.8 1.8 0 0 0-.696-2.46Z" fill="url(#l)"/><path d="M18.167 22.696a1.8 1.8 0 0 0-2.439.69l-.859 1.52-.018.035c-.366.682-1.156 1.316-2.135 1.316-1.255 0-2.408-1.428-2.408-2.826V11.367a5.692 5.692 0 1 1 11.315.891c-.147.94.126 1.974.943 2.46.9.537 2.084.21 2.37-.797a9.292 9.292 0 1 0-18.23-2.554v12.064c.002 3.24 2.583 6.18 5.87 6.43 2.37 0 4.459-1.374 5.447-3.22l.84-1.485a1.8 1.8 0 0 0-.696-2.46Z" fill="url(#m)"/></g><path d="M18.167 22.696a1.8 1.8 0 0 0-2.439.69l-.859 1.52-.018.035c-.366.682-1.156 1.316-2.135 1.316-1.255 0-2.408-1.428-2.408-2.826V11.367a5.692 5.692 0 1 1 11.315.891c-.147.94.126 1.974.943 2.46.9.537 2.084.21 2.37-.797a9.292 9.292 0 1 0-18.23-2.554v12.064c.002 3.24 2.583 6.18 5.87 6.43 2.37 0 4.459-1.374 5.447-3.22l.84-1.485a1.8 1.8 0 0 0-.696-2.46Z" fill="url(#n)"/><path d="M18.167 22.696a1.8 1.8 0 0 0-2.439.69l-.859 1.52-.018.035c-.366.682-1.156 1.316-2.135 1.316-1.255 0-2.408-1.428-2.408-2.826V11.367a5.692 5.692 0 1 1 11.315.891c-.147.94.126 1.974.943 2.46.9.537 2.084.21 2.37-.797a9.292 9.292 0 1 0-18.23-2.554v12.064c.002 3.24 2.583 6.18 5.87 6.43 2.37 0 4.459-1.374 5.447-3.22l.84-1.485a1.8 1.8 0 0 0-.696-2.46Z" fill="url(#o)"/><path d="M18.167 22.696a1.8 1.8 0 0 0-2.439.69l-.859 1.52-.018.035c-.366.682-1.156 1.316-2.135 1.316-1.255 0-2.408-1.428-2.408-2.826V11.367a5.692 5.692 0 1 1 11.315.891c-.147.94.126 1.974.943 2.46.9.537 2.084.21 2.37-.797a9.292 9.292 0 1 0-18.23-2.554v12.064c.002 3.24 2.583 6.18 5.87 6.43 2.37 0 4.459-1.374 5.447-3.22l.84-1.485a1.8 1.8 0 0 0-.696-2.46Z" fill="url(#p)"/><path d="M18.167 22.696a1.8 1.8 0 0 0-2.439.69l-.859 1.52-.018.035c-.366.682-1.156 1.316-2.135 1.316-1.255 0-2.408-1.428-2.408-2.826V11.367a5.692 5.692 0 1 1 11.315.891c-.147.94.126 1.974.943 2.46.9.537 2.084.21 2.37-.797a9.292 9.292 0 1 0-18.23-2.554v12.064c.002 3.24 2.583 6.18 5.87 6.43 2.37 0 4.459-1.374 5.447-3.22l.84-1.485a1.8 1.8 0 0 0-.696-2.46Z" fill="url(#q)"/><path d="M18.167 22.696a1.8 1.8 0 0 0-2.439.69l-.859 1.52-.018.035c-.366.682-1.156 1.316-2.135 1.316-1.255 0-2.408-1.428-2.408-2.826V11.367a5.692 5.692 0 1 1 11.315.891c-.147.94.126 1.974.943 2.46.9.537 2.084.21 2.37-.797a9.292 9.292 0 1 0-18.23-2.554v12.064c.002 3.24 2.583 6.18 5.87 6.43 2.37 0 4.459-1.374 5.447-3.22l.84-1.485a1.8 1.8 0 0 0-.696-2.46Z" fill="url(#r)"/><g filter="url(#s)"><path d="M16.94 3.58c2.291.374 6.919 2.43 7.094 7.655" stroke="url(#t)" stroke-width="2" stroke-linecap="round"/></g><g filter="url(#u)"><path d="M9.063 10.235v13.657c.021.895.333 3.408 3.062 4.03 2.297.525 3.625-.687 4.275-1.905l1.225-2.125" stroke="url(#v)" stroke-width="1.5" stroke-linecap="round"/></g><defs><radialGradient id="b" cx="0" cy="0" r="1" gradientUnits="userSpaceOnUse" gradientTransform="rotate(-90.156 15.517 -1.78) scale(8.19144 14.286)"><stop offset=".415" stop-color="#EE8820" stop-opacity="0"/><stop offset=".848" stop-color="#EE8820"/></radialGradient><radialGradient id="i" cx="0" cy="0" r="1" gradientUnits="userSpaceOnUse" gradientTransform="rotate(146.004 4.37 12.612) scale(3.24158 3.7019)"><stop stop-color="#FFE663"/><stop offset="1" stop-color="#FFE663" stop-opacity="0"/></radialGradient><radialGradient id="m" cx="0" cy="0" r="1" gradientUnits="userSpaceOnUse" gradientTransform="matrix(3.875 -5.5625 6.22805 4.33864 17.5 10.83)"><stop offset=".478" stop-color="#F49419"/><stop offset="1" stop-color="#F49419" stop-opacity="0"/></radialGradient><radialGradient id="n" cx="0" cy="0" r="1" gradientUnits="userSpaceOnUse" gradientTransform="matrix(.14338 -4.62474 6.13434 .19019 23.232 15.266)"><stop offset=".174" stop-color="#FFCC4C"/><stop offset="1" stop-color="#FFCC4C" stop-opacity="0"/></radialGradient><radialGradient id="o" cx="0" cy="0" r="1" gradientUnits="userSpaceOnUse" gradientTransform="rotate(115.159 1.796 17.183) scale(4.97005 4.84669)"><stop offset=".242" stop-color="#FFCA4D"/><stop offset="1" stop-color="#FFCA4D" stop-opacity="0"/></radialGradient><radialGradient id="p" cx="0" cy="0" r="1" gradientUnits="userSpaceOnUse" gradientTransform="rotate(-115.896 19.594 6.144) scale(26.3315 19.1931)"><stop offset=".953" stop-color="#CEA561" stop-opacity="0"/><stop offset="1" stop-color="#CEA561"/></radialGradient><radialGradient id="q" cx="0" cy="0" r="1" gradientUnits="userSpaceOnUse" gradientTransform="matrix(-3.14 21.87883 -17.0804 -2.45134 14.584 7.982)"><stop offset=".912" stop-color="#D98286" stop-opacity="0"/><stop offset="1" stop-color="#D98286"/></radialGradient><radialGradient id="r" cx="0" cy="0" r="1" gradientUnits="userSpaceOnUse" gradientTransform="matrix(2.09375 0 0 3.71875 10.344 22.142)"><stop stop-color="#FFCD49"/><stop offset=".975" stop-color="#FFCD49" stop-opacity="0"/></radialGradient><linearGradient id="d" x1="12.875" y1="12.579" x2="10.121" y2="18.173" gradientUnits="userSpaceOnUse"><stop stop-color="#E58403"/><stop offset="1" stop-color="#E58403" stop-opacity="0"/></linearGradient><linearGradient id="e" x1="13.563" y1="27.517" x2="15.563" y2="21.923" gradientUnits="userSpaceOnUse"><stop offset=".218" stop-color="#E2992F"/><stop offset="1" stop-color="#E2992F" stop-opacity="0"/></linearGradient><linearGradient id="g" x1="14.641" y1="20.53" x2="12.533" y2="24.242" gradientUnits="userSpaceOnUse"><stop offset=".34" stop-color="#FFE15B"/><stop offset="1" stop-color="#C97A03"/></linearGradient><linearGradient id="h" x1="11.755" y1="19.142" x2="11.755" y2="25.142" gradientUnits="userSpaceOnUse"><stop stop-color="#FFC609"/><stop offset="1" stop-color="#FEA70C"/></linearGradient><linearGradient id="l" x1="11.563" y1="31.517" x2="20" y2="-.858" gradientUnits="userSpaceOnUse"><stop stop-color="#F0A130"/><stop offset="1" stop-color="#FFD135"/></linearGradient><linearGradient id="t" x1="24.971" y1="11.235" x2="17.565" y2="3.423" gradientUnits="userSpaceOnUse"><stop stop-color="#FFED65" stop-opacity="0"/><stop offset=".51" stop-color="#FFED65"/><stop offset="1" stop-color="#FFED65" stop-opacity="0"/></linearGradient><linearGradient id="v" x1="8.313" y1="2.017" x2="21.251" y2="24.121" gradientUnits="userSpaceOnUse"><stop stop-color="#FFED65" stop-opacity="0"/><stop offset=".698" stop-color="#FFED65"/></linearGradient><filter id="a" x="9.486" y="2.817" width="15.705" height="12.527" filterUnits="userSpaceOnUse" color-interpolation-filters="sRGB"><feFlood flood-opacity="0" result="BackgroundImageFix"/><feBlend in="SourceGraphic" in2="BackgroundImageFix" result="shape"/><feGaussianBlur stdDeviation=".5" result="effect1_foregroundBlur_20020_4615"/></filter><filter id="c" x="7.531" y="11.517" width="12.531" height="17.719" filterUnits="userSpaceOnUse" color-interpolation-filters="sRGB"><feFlood flood-opacity="0" result="BackgroundImageFix"/><feBlend in="SourceGraphic" in2="BackgroundImageFix" result="shape"/><feGaussianBlur stdDeviation=".25" result="effect1_foregroundBlur_20020_4615"/></filter><filter id="f" x="8.61" y="18.543" width="7.349" height="7.349" filterUnits="userSpaceOnUse" color-interpolation-filters="sRGB"><feFlood flood-opacity="0" result="BackgroundImageFix"/><feBlend in="SourceGraphic" in2="BackgroundImageFix" result="shape"/><feGaussianBlur stdDeviation=".375" result="effect1_foregroundBlur_20020_4615"/></filter><filter id="j" x="8.656" y="19.196" width="6.234" height="6.234" filterUnits="userSpaceOnUse" color-interpolation-filters="sRGB"><feFlood flood-opacity="0" result="BackgroundImageFix"/><feBlend in="SourceGraphic" in2="BackgroundImageFix" result="shape"/><feGaussianBlur stdDeviation=".25" result="effect1_foregroundBlur_20020_4615"/></filter><filter id="k" x="6.708" y="2.075" width="19.085" height="27.786" filterUnits="userSpaceOnUse" color-interpolation-filters="sRGB"><feFlood flood-opacity="0" result="BackgroundImageFix"/><feBlend in="SourceGraphic" in2="BackgroundImageFix" result="shape"/><feColorMatrix in="SourceAlpha" values="0 0 0 0 0 0 0 0 0 0 0 0 0 0 0 0 0 0 127 0" result="hardAlpha"/><feOffset dx=".5"/><feGaussianBlur stdDeviation="1"/><feComposite in2="hardAlpha" operator="arithmetic" k2="-1" k3="1"/><feColorMatrix values="0 0 0 0 0.917647 0 0 0 0 0.6 0 0 0 0 0.231373 0 0 0 1 0"/><feBlend in2="shape" result="effect1_innerShadow_20020_4615"/></filter><filter id="s" x="14.44" y="1.079" width="12.094" height="12.656" filterUnits="userSpaceOnUse" color-interpolation-filters="sRGB"><feFlood flood-opacity="0" result="BackgroundImageFix"/><feBlend in="SourceGraphic" in2="BackgroundImageFix" result="shape"/><feGaussianBlur stdDeviation=".75" result="effect1_foregroundBlur_20020_4615"/></filter><filter id="u" x="6.813" y="7.985" width="13.063" height="22.313" filterUnits="userSpaceOnUse" color-interpolation-filters="sRGB"><feFlood flood-opacity="0" result="BackgroundImageFix"/><feBlend in="SourceGraphic" in2="BackgroundImageFix" result="shape"/><feGaussianBlur stdDeviation=".75" result="effect1_foregroundBlur_20020_4615"/></filter></defs></svg>