<svg xmlns="http://www.w3.org/2000/svg" fill="none" viewBox="0 0 32 32"><rect width="27.844" height="18.281" x="2.078" y="11.625" fill="url(#euro-banknote_svg__a)" rx="2.2"/><rect width="27.844" height="18.281" x="2.078" y="11.625" fill="url(#euro-banknote_svg__b)" rx="2.2"/><rect width="27.844" height="18.281" x="2.078" y="11.625" fill="url(#euro-banknote_svg__c)" rx="2.2"/><rect width="27.844" height="18.281" x="2.078" y="8.031" fill="url(#euro-banknote_svg__d)" rx="2.2"/><g filter="url(#euro-banknote_svg__e)"><path fill="url(#euro-banknote_svg__f)" fill-rule="evenodd" d="M27.063 10.156H4.938a.75.75 0 0 0-.75.75v12.532c0 .414.335.75.75.75h22.125a.75.75 0 0 0 .75-.75V10.906a.75.75 0 0 0-.75-.75m-22.125-.75a1.5 1.5 0 0 0-1.5 1.5v12.532a1.5 1.5 0 0 0 1.5 1.5h22.125a1.5 1.5 0 0 0 1.5-1.5V10.906a1.5 1.5 0 0 0-1.5-1.5z" clip-rule="evenodd"/></g><ellipse cx="20.844" cy="17.172" fill="#2E70A8" rx="4.625" ry="4.266"/><ellipse cx="20.844" cy="17.172" fill="url(#euro-banknote_svg__g)" rx="4.625" ry="4.266"/><ellipse cx="20.844" cy="17.172" fill="url(#euro-banknote_svg__h)" rx="4.625" ry="4.266"/><g filter="url(#euro-banknote_svg__i)"><path fill="#1C6E85" d="M14.969 8.313h4.156v18h-4.312z"/></g><g filter="url(#euro-banknote_svg__j)"><path fill="#164A75" d="M14.984 29.719h4.141v-3.407h-4.312z"/></g><path fill="url(#euro-banknote_svg__k)" d="M15.063 8.031h4.375v21.875h-4.375z"/><path fill="url(#euro-banknote_svg__l)" d="M15.063 8.031h4.375v21.875h-4.375z"/><g filter="url(#euro-banknote_svg__m)"><path fill="url(#euro-banknote_svg__n)" d="M6.362 16.788h1.93v.753h-1.93a.6.6 0 0 0 0 1.2h1.966a3.6 3.6 0 0 0 3.565 3.093h1.172a.6.6 0 0 0 0-1.2h-1.172a2.4 2.4 0 0 1-2.347-1.893h2.566a.6.6 0 1 0 0-1.2h-2.62v-.753h2.62a.6.6 0 1 0 0-1.2H9.537a2.4 2.4 0 0 1 2.356-1.941h1.172a.6.6 0 0 0 0-1.2h-1.172a3.6 3.6 0 0 0-3.571 3.14h-1.96a.6.6 0 0 0 0 1.2"/></g><defs><linearGradient id="euro-banknote_svg__a" x1="28.109" x2="3.047" y1="28.688" y2="28.688" gradientUnits="userSpaceOnUse"><stop stop-color="#18739D"/><stop offset="1" stop-color="#1B5186"/></linearGradient><linearGradient id="euro-banknote_svg__b" x1="29.922" x2="27.266" y1="27.813" y2="27.813" gradientUnits="userSpaceOnUse"><stop stop-color="#2091C5"/><stop offset="1" stop-color="#2091C5" stop-opacity="0"/></linearGradient><linearGradient id="euro-banknote_svg__c" x1="2.078" x2="4.828" y1="27.688" y2="27.688" gradientUnits="userSpaceOnUse"><stop offset=".557" stop-color="#1E4472"/><stop offset="1" stop-color="#1E4472" stop-opacity="0"/></linearGradient><linearGradient id="euro-banknote_svg__f" x1="25.625" x2="7.875" y1="9.75" y2="24.438" gradientUnits="userSpaceOnUse"><stop stop-color="#2D6FAB"/><stop offset="1" stop-color="#2D70AC"/></linearGradient><linearGradient id="euro-banknote_svg__g" x1="19.313" x2="21.094" y1="17.688" y2="17.688" gradientUnits="userSpaceOnUse"><stop offset=".228" stop-color="#2B6A9C"/><stop offset="1" stop-color="#2B6A9C" stop-opacity="0"/></linearGradient><linearGradient id="euro-banknote_svg__k" x1="17.25" x2="17.25" y1="9.688" y2="27" gradientUnits="userSpaceOnUse"><stop stop-color="#FFD425"/><stop offset="1" stop-color="#FFAD24"/></linearGradient><linearGradient id="euro-banknote_svg__l" x1="18.313" x2="18.313" y1="29.906" y2="26.063" gradientUnits="userSpaceOnUse"><stop offset=".894" stop-color="#CC8139"/><stop offset="1" stop-color="#CC8139" stop-opacity="0"/></linearGradient><linearGradient id="euro-banknote_svg__n" x1="9.713" x2="9.713" y1="12.447" y2="21.834" gradientUnits="userSpaceOnUse"><stop stop-color="#EFEAEA"/><stop offset="1" stop-color="#EAE3E3"/></linearGradient><filter id="euro-banknote_svg__e" width="25.525" height="15.731" x="3.237" y="9.406" color-interpolation-filters="sRGB" filterUnits="userSpaceOnUse"><feFlood flood-opacity="0" result="BackgroundImageFix"/><feBlend in="SourceGraphic" in2="BackgroundImageFix" result="shape"/><feColorMatrix in="SourceAlpha" result="hardAlpha" values="0 0 0 0 0 0 0 0 0 0 0 0 0 0 0 0 0 0 127 0"/><feOffset dy=".2"/><feGaussianBlur stdDeviation=".125"/><feComposite in2="hardAlpha" k2="-1" k3="1" operator="arithmetic"/><feColorMatrix values="0 0 0 0 0.133333 0 0 0 0 0.376471 0 0 0 0 0.603922 0 0 0 1 0"/><feBlend in2="shape" result="effect1_innerShadow_18_21465"/><feColorMatrix in="SourceAlpha" result="hardAlpha" values="0 0 0 0 0 0 0 0 0 0 0 0 0 0 0 0 0 0 127 0"/><feOffset dx="-.2"/><feGaussianBlur stdDeviation=".125"/><feComposite in2="hardAlpha" k2="-1" k3="1" operator="arithmetic"/><feColorMatrix values="0 0 0 0 0.121569 0 0 0 0 0.341176 0 0 0 0 0.560784 0 0 0 1 0"/><feBlend in2="effect1_innerShadow_18_21465" result="effect2_innerShadow_18_21465"/><feColorMatrix in="SourceAlpha" result="hardAlpha" values="0 0 0 0 0 0 0 0 0 0 0 0 0 0 0 0 0 0 127 0"/><feOffset dx=".2"/><feGaussianBlur stdDeviation=".125"/><feComposite in2="hardAlpha" k2="-1" k3="1" operator="arithmetic"/><feColorMatrix values="0 0 0 0 0.207843 0 0 0 0 0.533333 0 0 0 0 0.780392 0 0 0 1 0"/><feBlend in2="effect2_innerShadow_18_21465" result="effect3_innerShadow_18_21465"/></filter><filter id="euro-banknote_svg__i" width="5.112" height="18.8" x="14.412" y="7.912" color-interpolation-filters="sRGB" filterUnits="userSpaceOnUse"><feFlood flood-opacity="0" result="BackgroundImageFix"/><feBlend in="SourceGraphic" in2="BackgroundImageFix" result="shape"/><feGaussianBlur result="effect1_foregroundBlur_18_21465" stdDeviation=".2"/></filter><filter id="euro-banknote_svg__j" width="4.813" height="3.906" x="14.563" y="26.063" color-interpolation-filters="sRGB" filterUnits="userSpaceOnUse"><feFlood flood-opacity="0" result="BackgroundImageFix"/><feBlend in="SourceGraphic" in2="BackgroundImageFix" result="shape"/><feGaussianBlur result="effect1_foregroundBlur_18_21465" stdDeviation=".125"/></filter><filter id="euro-banknote_svg__m" width="8.403" height="9.887" x="5.412" y="12.347" color-interpolation-filters="sRGB" filterUnits="userSpaceOnUse"><feFlood flood-opacity="0" result="BackgroundImageFix"/><feColorMatrix in="SourceAlpha" result="hardAlpha" values="0 0 0 0 0 0 0 0 0 0 0 0 0 0 0 0 0 0 127 0"/><feOffset dx="-.1" dy=".15"/><feGaussianBlur stdDeviation=".125"/><feComposite in2="hardAlpha" operator="out"/><feColorMatrix values="0 0 0 0 0.188235 0 0 0 0 0.509804 0 0 0 0 0.639216 0 0 0 1 0"/><feBlend in2="BackgroundImageFix" result="effect1_dropShadow_18_21465"/><feBlend in="SourceGraphic" in2="effect1_dropShadow_18_21465" result="shape"/><feColorMatrix in="SourceAlpha" result="hardAlpha" values="0 0 0 0 0 0 0 0 0 0 0 0 0 0 0 0 0 0 127 0"/><feOffset dx=".1" dy="-.1"/><feGaussianBlur stdDeviation=".05"/><feComposite in2="hardAlpha" k2="-1" k3="1" operator="arithmetic"/><feColorMatrix values="0 0 0 0 0.784314 0 0 0 0 0.760784 0 0 0 0 0.752941 0 0 0 1 0"/><feBlend in2="shape" result="effect2_innerShadow_18_21465"/><feColorMatrix in="SourceAlpha" result="hardAlpha" values="0 0 0 0 0 0 0 0 0 0 0 0 0 0 0 0 0 0 127 0"/><feOffset dx="-.1" dy=".1"/><feGaussianBlur stdDeviation=".05"/><feComposite in2="hardAlpha" k2="-1" k3="1" operator="arithmetic"/><feColorMatrix values="0 0 0 0 1 0 0 0 0 0.996078 0 0 0 0 0.992157 0 0 0 1 0"/><feBlend in2="effect2_innerShadow_18_21465" result="effect3_innerShadow_18_21465"/></filter><radialGradient id="euro-banknote_svg__d" cx="0" cy="0" r="1" gradientTransform="matrix(12.93753 14.5 -19.01468 16.96571 2.688 8.75)" gradientUnits="userSpaceOnUse"><stop stop-color="#49D9F8"/><stop offset="1" stop-color="#37C8F5"/></radialGradient><radialGradient id="euro-banknote_svg__h" cx="0" cy="0" r="1" gradientTransform="rotate(-40.802 34.41 -19.1)scale(4.83012 4.74756)" gradientUnits="userSpaceOnUse"><stop offset=".587" stop-color="#28669C" stop-opacity="0"/><stop offset=".987" stop-color="#1D5083"/></radialGradient></defs></svg>