<svg width="32" height="32" fill="none" xmlns="http://www.w3.org/2000/svg"><path d="M5 20.872c0 .08.01.12.03.12h2.94c.02 0 .03-.04.03-.12V4.992H5v15.88Z" fill="url(#a)"/><path d="M5 20.872c0 .08.01.12.03.12h2.94c.02 0 .03-.04.03-.12V4.992H5v15.88Z" fill="url(#b)"/><path d="M5 20.872c0 .08.01.12.03.12h2.94c.02 0 .03-.04.03-.12V4.992H5v15.88Z" fill="url(#c)"/><path d="M12 20.872c0 .08.01.12.03.12h2.94c.02 0 .03-.04.03-.12V4.992h-3v15.88Z" fill="url(#d)"/><path d="M12 20.872c0 .08.01.12.03.12h2.94c.02 0 .03-.04.03-.12V4.992h-3v15.88Z" fill="url(#e)"/><path d="M8 13.992H5v3h3v-3Z" fill="url(#f)"/><path d="M8 7.992H5v3h3v-3Z" fill="url(#g)"/><path d="M8 2.502c0-.28-.23-.51-.51-.51H5.51c-.28 0-.51.23-.51.51v2.49h3v-2.49Z" fill="url(#h)"/><path d="M15 13.992h-3v3h3v-3Z" fill="url(#i)"/><path d="M15 7.992h-3v3h3v-3Z" fill="url(#j)"/><path d="M15 2.502c0-.28-.23-.51-.51-.51h-1.98c-.28 0-.51.23-.51.51v2.49h3v-2.49Z" fill="url(#k)"/><g opacity=".68"><path d="M30 29.992H18v-16.87c0-.62.501-1.13 1.133-1.13h9.734c.622 0 1.133.5 1.133 1.13v16.87Z" fill="url(#l)"/><path d="M30 29.992H18v-16.87c0-.62.501-1.13 1.133-1.13h9.734c.622 0 1.133.5 1.133 1.13v16.87Z" fill="url(#m)"/><path d="M30 29.992H18v-16.87c0-.62.501-1.13 1.133-1.13h9.734c.622 0 1.133.5 1.133 1.13v16.87Z" fill="url(#n)"/><path d="M30 29.992H18v-16.87c0-.62.501-1.13 1.133-1.13h9.734c.622 0 1.133.5 1.133 1.13v16.87Z" fill="url(#o)"/><path d="M30 29.992H18v-16.87c0-.62.501-1.13 1.133-1.13h9.734c.622 0 1.133.5 1.133 1.13v16.87Z" fill="url(#p)"/><path d="M30 29.992H18v-16.87c0-.62.501-1.13 1.133-1.13h9.734c.622 0 1.133.5 1.133 1.13v16.87Z" fill="url(#q)"/></g><g filter="url(#r)"><path d="m2.21 20.902 7.245-3.63c.25-.12.54.06.54.33v2.79c0 .28.29.46.54.33L18 16.992v13H2v-8.77c0-.13.08-.26.21-.32Z" fill="url(#s)"/><path d="m2.21 20.902 7.245-3.63c.25-.12.54.06.54.33v2.79c0 .28.29.46.54.33L18 16.992v13H2v-8.77c0-.13.08-.26.21-.32Z" fill="url(#t)"/><path d="m2.21 20.902 7.245-3.63c.25-.12.54.06.54.33v2.79c0 .28.29.46.54.33L18 16.992v13H2v-8.77c0-.13.08-.26.21-.32Z" fill="url(#u)"/></g><path d="m2.21 20.902 7.245-3.63c.25-.12.54.06.54.33v2.79c0 .28.29.46.54.33L18 16.992v13H2v-8.77c0-.13.08-.26.21-.32Z" fill="url(#v)"/><path d="m2.21 20.902 7.245-3.63c.25-.12.54.06.54.33v2.79c0 .28.29.46.54.33L18 16.992v13H2v-8.77c0-.13.08-.26.21-.32Z" fill="url(#w)"/><g filter="url(#x)"><path d="M9 29.992H4v-2.62c0-.21.17-.38.38-.38h4.24c.21 0 .38.17.38.38v2.62Z" fill="url(#y)"/></g><g filter="url(#z)"><path d="M16 29.992h-5v-2.62c0-.21.17-.38.38-.38h4.24c.21 0 .38.17.38.38v2.62Z" fill="url(#A)"/></g><g filter="url(#B)"><path d="M27 29.992h-6v-3.637c0-.2.17-.363.381-.363h5.238c.21 0 .381.162.381.363v3.637Z" fill="url(#C)"/></g><g filter="url(#D)"><rect x="20.02" y="14.008" width="1.992" height="1.992" rx=".5" fill="url(#E)"/></g><g filter="url(#F)"><rect x="23.004" y="14.008" width="1.992" height="1.992" rx=".5" fill="url(#G)"/></g><g filter="url(#H)"><rect x="25.988" y="14.008" width="1.992" height="1.992" rx=".5" fill="url(#I)"/></g><g filter="url(#J)"><rect x="20.02" y="17.008" width="1.992" height="1.992" rx=".5" fill="url(#K)"/></g><g filter="url(#L)"><rect x="23.004" y="17.008" width="1.992" height="1.992" rx=".5" fill="url(#M)"/></g><g filter="url(#N)"><rect x="25.988" y="17.008" width="1.992" height="1.992" rx=".5" fill="url(#O)"/></g><g filter="url(#P)"><rect x="20.02" y="20.008" width="1.992" height="1.992" rx=".5" fill="url(#Q)"/></g><g filter="url(#R)"><rect x="23.004" y="20.008" width="1.992" height="1.992" rx=".5" fill="url(#S)"/></g><g filter="url(#T)"><rect x="25.988" y="20.008" width="1.992" height="1.992" rx=".5" fill="url(#U)"/></g><defs><linearGradient id="a" x1="6.75" y1="13.004" x2="4.998" y2="13.004" gradientUnits="userSpaceOnUse"><stop stop-color="#BEB7C0"/><stop offset="1" stop-color="#79727D"/></linearGradient><linearGradient id="b" x1="8" y1="11.161" x2="7.594" y2="11.161" gradientUnits="userSpaceOnUse"><stop stop-color="#B1ABB1"/><stop offset="1" stop-color="#B1ABB1" stop-opacity="0"/></linearGradient><linearGradient id="c" x1="5.78" y1="19.623" x2="5.344" y2="18.771" gradientUnits="userSpaceOnUse"><stop stop-color="#6C6A6E"/><stop offset="1" stop-color="#6C6A6E" stop-opacity="0"/></linearGradient><linearGradient id="d" x1="12" y1="10.936" x2="15" y2="10.936" gradientUnits="userSpaceOnUse"><stop stop-color="#84747F"/><stop offset="1" stop-color="#DBD7DF"/></linearGradient><linearGradient id="e" x1="13.785" y1="22.329" x2="13.785" y2="14.948" gradientUnits="userSpaceOnUse"><stop stop-color="#746E74"/><stop offset="1" stop-color="#746E74" stop-opacity="0"/></linearGradient><linearGradient id="f" x1="5" y1="16.992" x2="7.133" y2="16.992" gradientUnits="userSpaceOnUse"><stop offset=".065" stop-color="#A43953"/><stop offset="1" stop-color="#FF549C"/></linearGradient><linearGradient id="g" x1="5" y1="10.992" x2="7.133" y2="10.992" gradientUnits="userSpaceOnUse"><stop offset=".065" stop-color="#A43953"/><stop offset="1" stop-color="#FF549C"/></linearGradient><linearGradient id="h" x1="5" y1="4.992" x2="7.133" y2="4.992" gradientUnits="userSpaceOnUse"><stop offset=".065" stop-color="#A43953"/><stop offset="1" stop-color="#FF549C"/></linearGradient><linearGradient id="i" x1="12.005" y1="27.495" x2="15.005" y2="27.495" gradientUnits="userSpaceOnUse"><stop stop-color="#A93751"/><stop offset="1" stop-color="#FF5399"/></linearGradient><linearGradient id="j" x1="12.005" y1="21.495" x2="15.005" y2="21.495" gradientUnits="userSpaceOnUse"><stop stop-color="#A93751"/><stop offset="1" stop-color="#FF5399"/></linearGradient><linearGradient id="k" x1="12.005" y1="15.495" x2="15.005" y2="15.495" gradientUnits="userSpaceOnUse"><stop stop-color="#A93751"/><stop offset="1" stop-color="#FF5399"/></linearGradient><linearGradient id="l" x1="24" y1="24.258" x2="29.592" y2="29.233" gradientUnits="userSpaceOnUse"><stop stop-color="#AAA2AF"/><stop offset="1" stop-color="#BCB3C3"/></linearGradient><linearGradient id="m" x1="24" y1="11.992" x2="24" y2="12.754" gradientUnits="userSpaceOnUse"><stop stop-color="#B1B0B1"/><stop stop-color="#B1B0B1" stop-opacity=".94"/><stop offset="1" stop-color="#B1B0B1" stop-opacity="0"/></linearGradient><linearGradient id="n" x1="18" y1="23.626" x2="18.81" y2="23.626" gradientUnits="userSpaceOnUse"><stop stop-color="#6D6573"/><stop offset="1" stop-color="#6E6575" stop-opacity="0"/></linearGradient><linearGradient id="o" x1="30" y1="22.609" x2="29.013" y2="22.609" gradientUnits="userSpaceOnUse"><stop stop-color="#D9D5DB"/><stop offset="1" stop-color="#D9D5DB" stop-opacity="0"/></linearGradient><linearGradient id="q" x1="30" y1="20.124" x2="29.741" y2="20.124" gradientUnits="userSpaceOnUse"><stop stop-color="#CAC6CD"/><stop offset="1" stop-color="#CAC6CD" stop-opacity="0"/></linearGradient><linearGradient id="s" x1="3.405" y1="26.632" x2="18.518" y2="26.632" gradientUnits="userSpaceOnUse"><stop stop-color="#A19BA6"/><stop offset="1" stop-color="#B3A8BA"/></linearGradient><linearGradient id="t" x1="18.398" y1="25.379" x2="17.066" y2="25.379" gradientUnits="userSpaceOnUse"><stop stop-color="#6F6574"/><stop offset="1" stop-color="#6F6574" stop-opacity="0"/></linearGradient><linearGradient id="u" x1="2" y1="26.591" x2="2.896" y2="26.591" gradientUnits="userSpaceOnUse"><stop stop-color="#726D76"/><stop offset="1" stop-color="#726D76" stop-opacity="0"/></linearGradient><linearGradient id="w" x1="18.398" y1="25.379" x2="17.066" y2="25.379" gradientUnits="userSpaceOnUse"><stop stop-color="#6F6574"/><stop offset="1" stop-color="#6F6574" stop-opacity="0"/></linearGradient><linearGradient id="y" x1="4" y1="28.886" x2="8.509" y2="28.886" gradientUnits="userSpaceOnUse"><stop stop-color="#544266"/><stop offset="1" stop-color="#42394B"/></linearGradient><linearGradient id="A" x1="11" y1="28.886" x2="15.509" y2="28.886" gradientUnits="userSpaceOnUse"><stop stop-color="#544266"/><stop offset="1" stop-color="#42394B"/></linearGradient><linearGradient id="C" x1="21" y1="28.517" x2="26.411" y2="28.517" gradientUnits="userSpaceOnUse"><stop stop-color="#544266"/><stop offset="1" stop-color="#42394B"/></linearGradient><linearGradient id="E" x1="20.124" y1="16" x2="21.3" y2="13.31" gradientUnits="userSpaceOnUse"><stop stop-color="#54E6FF"/><stop offset="1" stop-color="#42A9FF"/></linearGradient><linearGradient id="G" x1="23.108" y1="16" x2="24.285" y2="13.31" gradientUnits="userSpaceOnUse"><stop stop-color="#54E6FF"/><stop offset="1" stop-color="#42A9FF"/></linearGradient><linearGradient id="I" x1="26.093" y1="16" x2="27.269" y2="13.31" gradientUnits="userSpaceOnUse"><stop stop-color="#54E6FF"/><stop offset="1" stop-color="#42A9FF"/></linearGradient><linearGradient id="K" x1="20.124" y1="19" x2="21.3" y2="16.31" gradientUnits="userSpaceOnUse"><stop stop-color="#54E6FF"/><stop offset="1" stop-color="#42A9FF"/></linearGradient><linearGradient id="M" x1="23.108" y1="19" x2="24.285" y2="16.31" gradientUnits="userSpaceOnUse"><stop stop-color="#54E6FF"/><stop offset="1" stop-color="#42A9FF"/></linearGradient><linearGradient id="O" x1="26.093" y1="19" x2="27.269" y2="16.31" gradientUnits="userSpaceOnUse"><stop stop-color="#54E6FF"/><stop offset="1" stop-color="#42A9FF"/></linearGradient><linearGradient id="Q" x1="20.124" y1="22" x2="21.3" y2="19.31" gradientUnits="userSpaceOnUse"><stop stop-color="#54E6FF"/><stop offset="1" stop-color="#42A9FF"/></linearGradient><linearGradient id="S" x1="23.108" y1="22" x2="24.285" y2="19.31" gradientUnits="userSpaceOnUse"><stop stop-color="#54E6FF"/><stop offset="1" stop-color="#42A9FF"/></linearGradient><linearGradient id="U" x1="26.093" y1="22" x2="27.269" y2="19.31" gradientUnits="userSpaceOnUse"><stop stop-color="#54E6FF"/><stop offset="1" stop-color="#42A9FF"/></linearGradient><filter id="r" x="1.75" y="16.992" width="16.25" height="13.25" filterUnits="userSpaceOnUse" color-interpolation-filters="sRGB"><feFlood flood-opacity="0" result="BackgroundImageFix"/><feBlend in="SourceGraphic" in2="BackgroundImageFix" result="shape"/><feColorMatrix in="SourceAlpha" values="0 0 0 0 0 0 0 0 0 0 0 0 0 0 0 0 0 0 127 0" result="hardAlpha"/><feOffset dy=".25"/><feGaussianBlur stdDeviation=".25"/><feComposite in2="hardAlpha" operator="arithmetic" k2="-1" k3="1"/><feColorMatrix values="0 0 0 0 0.54902 0 0 0 0 0.505882 0 0 0 0 0.521569 0 0 0 1 0"/><feBlend in2="shape" result="effect1_innerShadow_18_6750"/><feColorMatrix in="SourceAlpha" values="0 0 0 0 0 0 0 0 0 0 0 0 0 0 0 0 0 0 127 0" result="hardAlpha"/><feOffset dx="-.25"/><feGaussianBlur stdDeviation=".125"/><feComposite in2="hardAlpha" operator="arithmetic" k2="-1" k3="1"/><feColorMatrix values="0 0 0 0 0.788235 0 0 0 0 0.772549 0 0 0 0 0.796078 0 0 0 1 0"/><feBlend in2="effect1_innerShadow_18_6750" result="effect2_innerShadow_18_6750"/></filter><filter id="x" x="3.75" y="26.992" width="5.4" height="3.15" filterUnits="userSpaceOnUse" color-interpolation-filters="sRGB"><feFlood flood-opacity="0" result="BackgroundImageFix"/><feBlend in="SourceGraphic" in2="BackgroundImageFix" result="shape"/><feColorMatrix in="SourceAlpha" values="0 0 0 0 0 0 0 0 0 0 0 0 0 0 0 0 0 0 127 0" result="hardAlpha"/><feOffset dx=".2"/><feGaussianBlur stdDeviation=".075"/><feComposite in2="hardAlpha" operator="arithmetic" k2="-1" k3="1"/><feColorMatrix values="0 0 0 0 0.396078 0 0 0 0 0.313726 0 0 0 0 0.482353 0 0 0 1 0"/><feBlend in2="shape" result="effect1_innerShadow_18_6750"/><feColorMatrix in="SourceAlpha" values="0 0 0 0 0 0 0 0 0 0 0 0 0 0 0 0 0 0 127 0" result="hardAlpha"/><feOffset dx="-.25" dy=".15"/><feGaussianBlur stdDeviation=".15"/><feComposite in2="hardAlpha" operator="arithmetic" k2="-1" k3="1"/><feColorMatrix values="0 0 0 0 0.137255 0 0 0 0 0.0862745 0 0 0 0 0.176471 0 0 0 1 0"/><feBlend in2="effect1_innerShadow_18_6750" result="effect2_innerShadow_18_6750"/></filter><filter id="z" x="10.75" y="26.992" width="5.4" height="3.15" filterUnits="userSpaceOnUse" color-interpolation-filters="sRGB"><feFlood flood-opacity="0" result="BackgroundImageFix"/><feBlend in="SourceGraphic" in2="BackgroundImageFix" result="shape"/><feColorMatrix in="SourceAlpha" values="0 0 0 0 0 0 0 0 0 0 0 0 0 0 0 0 0 0 127 0" result="hardAlpha"/><feOffset dx=".2"/><feGaussianBlur stdDeviation=".075"/><feComposite in2="hardAlpha" operator="arithmetic" k2="-1" k3="1"/><feColorMatrix values="0 0 0 0 0.396078 0 0 0 0 0.313726 0 0 0 0 0.482353 0 0 0 1 0"/><feBlend in2="shape" result="effect1_innerShadow_18_6750"/><feColorMatrix in="SourceAlpha" values="0 0 0 0 0 0 0 0 0 0 0 0 0 0 0 0 0 0 127 0" result="hardAlpha"/><feOffset dx="-.25" dy=".15"/><feGaussianBlur stdDeviation=".15"/><feComposite in2="hardAlpha" operator="arithmetic" k2="-1" k3="1"/><feColorMatrix values="0 0 0 0 0.137255 0 0 0 0 0.0862745 0 0 0 0 0.176471 0 0 0 1 0"/><feBlend in2="effect1_innerShadow_18_6750" result="effect2_innerShadow_18_6750"/></filter><filter id="B" x="20.75" y="25.992" width="6.4" height="4.15" filterUnits="userSpaceOnUse" color-interpolation-filters="sRGB"><feFlood flood-opacity="0" result="BackgroundImageFix"/><feBlend in="SourceGraphic" in2="BackgroundImageFix" result="shape"/><feColorMatrix in="SourceAlpha" values="0 0 0 0 0 0 0 0 0 0 0 0 0 0 0 0 0 0 127 0" result="hardAlpha"/><feOffset dx=".2"/><feGaussianBlur stdDeviation=".075"/><feComposite in2="hardAlpha" operator="arithmetic" k2="-1" k3="1"/><feColorMatrix values="0 0 0 0 0.396078 0 0 0 0 0.313726 0 0 0 0 0.482353 0 0 0 1 0"/><feBlend in2="shape" result="effect1_innerShadow_18_6750"/><feColorMatrix in="SourceAlpha" values="0 0 0 0 0 0 0 0 0 0 0 0 0 0 0 0 0 0 127 0" result="hardAlpha"/><feOffset dx="-.25" dy=".15"/><feGaussianBlur stdDeviation=".15"/><feComposite in2="hardAlpha" operator="arithmetic" k2="-1" k3="1"/><feColorMatrix values="0 0 0 0 0.137255 0 0 0 0 0.0862745 0 0 0 0 0.176471 0 0 0 1 0"/><feBlend in2="effect1_innerShadow_18_6750" result="effect2_innerShadow_18_6750"/></filter><filter id="D" x="19.77" y="14.008" width="2.442" height="2.242" filterUnits="userSpaceOnUse" color-interpolation-filters="sRGB"><feFlood flood-opacity="0" result="BackgroundImageFix"/><feBlend in="SourceGraphic" in2="BackgroundImageFix" result="shape"/><feColorMatrix in="SourceAlpha" values="0 0 0 0 0 0 0 0 0 0 0 0 0 0 0 0 0 0 127 0" result="hardAlpha"/><feOffset dx=".2"/><feGaussianBlur stdDeviation=".2"/><feComposite in2="hardAlpha" operator="arithmetic" k2="-1" k3="1"/><feColorMatrix values="0 0 0 0 0.380392 0 0 0 0 1 0 0 0 0 1 0 0 0 1 0"/><feBlend in2="shape" result="effect1_innerShadow_18_6750"/><feColorMatrix in="SourceAlpha" values="0 0 0 0 0 0 0 0 0 0 0 0 0 0 0 0 0 0 127 0" result="hardAlpha"/><feOffset dx="-.25" dy=".25"/><feGaussianBlur stdDeviation=".2"/><feComposite in2="hardAlpha" operator="arithmetic" k2="-1" k3="1"/><feColorMatrix values="0 0 0 0 0.0862745 0 0 0 0 0.52549 0 0 0 0 0.933333 0 0 0 1 0"/><feBlend in2="effect1_innerShadow_18_6750" result="effect2_innerShadow_18_6750"/></filter><filter id="F" x="22.754" y="14.008" width="2.442" height="2.242" filterUnits="userSpaceOnUse" color-interpolation-filters="sRGB"><feFlood flood-opacity="0" result="BackgroundImageFix"/><feBlend in="SourceGraphic" in2="BackgroundImageFix" result="shape"/><feColorMatrix in="SourceAlpha" values="0 0 0 0 0 0 0 0 0 0 0 0 0 0 0 0 0 0 127 0" result="hardAlpha"/><feOffset dx=".2"/><feGaussianBlur stdDeviation=".2"/><feComposite in2="hardAlpha" operator="arithmetic" k2="-1" k3="1"/><feColorMatrix values="0 0 0 0 0.380392 0 0 0 0 1 0 0 0 0 1 0 0 0 1 0"/><feBlend in2="shape" result="effect1_innerShadow_18_6750"/><feColorMatrix in="SourceAlpha" values="0 0 0 0 0 0 0 0 0 0 0 0 0 0 0 0 0 0 127 0" result="hardAlpha"/><feOffset dx="-.25" dy=".25"/><feGaussianBlur stdDeviation=".2"/><feComposite in2="hardAlpha" operator="arithmetic" k2="-1" k3="1"/><feColorMatrix values="0 0 0 0 0.0862745 0 0 0 0 0.52549 0 0 0 0 0.933333 0 0 0 1 0"/><feBlend in2="effect1_innerShadow_18_6750" result="effect2_innerShadow_18_6750"/></filter><filter id="H" x="25.738" y="14.008" width="2.442" height="2.242" filterUnits="userSpaceOnUse" color-interpolation-filters="sRGB"><feFlood flood-opacity="0" result="BackgroundImageFix"/><feBlend in="SourceGraphic" in2="BackgroundImageFix" result="shape"/><feColorMatrix in="SourceAlpha" values="0 0 0 0 0 0 0 0 0 0 0 0 0 0 0 0 0 0 127 0" result="hardAlpha"/><feOffset dx=".2"/><feGaussianBlur stdDeviation=".2"/><feComposite in2="hardAlpha" operator="arithmetic" k2="-1" k3="1"/><feColorMatrix values="0 0 0 0 0.380392 0 0 0 0 1 0 0 0 0 1 0 0 0 1 0"/><feBlend in2="shape" result="effect1_innerShadow_18_6750"/><feColorMatrix in="SourceAlpha" values="0 0 0 0 0 0 0 0 0 0 0 0 0 0 0 0 0 0 127 0" result="hardAlpha"/><feOffset dx="-.25" dy=".25"/><feGaussianBlur stdDeviation=".2"/><feComposite in2="hardAlpha" operator="arithmetic" k2="-1" k3="1"/><feColorMatrix values="0 0 0 0 0.0862745 0 0 0 0 0.52549 0 0 0 0 0.933333 0 0 0 1 0"/><feBlend in2="effect1_innerShadow_18_6750" result="effect2_innerShadow_18_6750"/></filter><filter id="J" x="19.77" y="17.008" width="2.442" height="2.242" filterUnits="userSpaceOnUse" color-interpolation-filters="sRGB"><feFlood flood-opacity="0" result="BackgroundImageFix"/><feBlend in="SourceGraphic" in2="BackgroundImageFix" result="shape"/><feColorMatrix in="SourceAlpha" values="0 0 0 0 0 0 0 0 0 0 0 0 0 0 0 0 0 0 127 0" result="hardAlpha"/><feOffset dx=".2"/><feGaussianBlur stdDeviation=".2"/><feComposite in2="hardAlpha" operator="arithmetic" k2="-1" k3="1"/><feColorMatrix values="0 0 0 0 0.380392 0 0 0 0 1 0 0 0 0 1 0 0 0 1 0"/><feBlend in2="shape" result="effect1_innerShadow_18_6750"/><feColorMatrix in="SourceAlpha" values="0 0 0 0 0 0 0 0 0 0 0 0 0 0 0 0 0 0 127 0" result="hardAlpha"/><feOffset dx="-.25" dy=".25"/><feGaussianBlur stdDeviation=".2"/><feComposite in2="hardAlpha" operator="arithmetic" k2="-1" k3="1"/><feColorMatrix values="0 0 0 0 0.0862745 0 0 0 0 0.52549 0 0 0 0 0.933333 0 0 0 1 0"/><feBlend in2="effect1_innerShadow_18_6750" result="effect2_innerShadow_18_6750"/></filter><filter id="L" x="22.754" y="17.008" width="2.442" height="2.242" filterUnits="userSpaceOnUse" color-interpolation-filters="sRGB"><feFlood flood-opacity="0" result="BackgroundImageFix"/><feBlend in="SourceGraphic" in2="BackgroundImageFix" result="shape"/><feColorMatrix in="SourceAlpha" values="0 0 0 0 0 0 0 0 0 0 0 0 0 0 0 0 0 0 127 0" result="hardAlpha"/><feOffset dx=".2"/><feGaussianBlur stdDeviation=".2"/><feComposite in2="hardAlpha" operator="arithmetic" k2="-1" k3="1"/><feColorMatrix values="0 0 0 0 0.380392 0 0 0 0 1 0 0 0 0 1 0 0 0 1 0"/><feBlend in2="shape" result="effect1_innerShadow_18_6750"/><feColorMatrix in="SourceAlpha" values="0 0 0 0 0 0 0 0 0 0 0 0 0 0 0 0 0 0 127 0" result="hardAlpha"/><feOffset dx="-.25" dy=".25"/><feGaussianBlur stdDeviation=".2"/><feComposite in2="hardAlpha" operator="arithmetic" k2="-1" k3="1"/><feColorMatrix values="0 0 0 0 0.0862745 0 0 0 0 0.52549 0 0 0 0 0.933333 0 0 0 1 0"/><feBlend in2="effect1_innerShadow_18_6750" result="effect2_innerShadow_18_6750"/></filter><filter id="N" x="25.738" y="17.008" width="2.442" height="2.242" filterUnits="userSpaceOnUse" color-interpolation-filters="sRGB"><feFlood flood-opacity="0" result="BackgroundImageFix"/><feBlend in="SourceGraphic" in2="BackgroundImageFix" result="shape"/><feColorMatrix in="SourceAlpha" values="0 0 0 0 0 0 0 0 0 0 0 0 0 0 0 0 0 0 127 0" result="hardAlpha"/><feOffset dx=".2"/><feGaussianBlur stdDeviation=".2"/><feComposite in2="hardAlpha" operator="arithmetic" k2="-1" k3="1"/><feColorMatrix values="0 0 0 0 0.380392 0 0 0 0 1 0 0 0 0 1 0 0 0 1 0"/><feBlend in2="shape" result="effect1_innerShadow_18_6750"/><feColorMatrix in="SourceAlpha" values="0 0 0 0 0 0 0 0 0 0 0 0 0 0 0 0 0 0 127 0" result="hardAlpha"/><feOffset dx="-.25" dy=".25"/><feGaussianBlur stdDeviation=".2"/><feComposite in2="hardAlpha" operator="arithmetic" k2="-1" k3="1"/><feColorMatrix values="0 0 0 0 0.0862745 0 0 0 0 0.52549 0 0 0 0 0.933333 0 0 0 1 0"/><feBlend in2="effect1_innerShadow_18_6750" result="effect2_innerShadow_18_6750"/></filter><filter id="P" x="19.77" y="20.008" width="2.442" height="2.242" filterUnits="userSpaceOnUse" color-interpolation-filters="sRGB"><feFlood flood-opacity="0" result="BackgroundImageFix"/><feBlend in="SourceGraphic" in2="BackgroundImageFix" result="shape"/><feColorMatrix in="SourceAlpha" values="0 0 0 0 0 0 0 0 0 0 0 0 0 0 0 0 0 0 127 0" result="hardAlpha"/><feOffset dx=".2"/><feGaussianBlur stdDeviation=".2"/><feComposite in2="hardAlpha" operator="arithmetic" k2="-1" k3="1"/><feColorMatrix values="0 0 0 0 0.380392 0 0 0 0 1 0 0 0 0 1 0 0 0 1 0"/><feBlend in2="shape" result="effect1_innerShadow_18_6750"/><feColorMatrix in="SourceAlpha" values="0 0 0 0 0 0 0 0 0 0 0 0 0 0 0 0 0 0 127 0" result="hardAlpha"/><feOffset dx="-.25" dy=".25"/><feGaussianBlur stdDeviation=".2"/><feComposite in2="hardAlpha" operator="arithmetic" k2="-1" k3="1"/><feColorMatrix values="0 0 0 0 0.0862745 0 0 0 0 0.52549 0 0 0 0 0.933333 0 0 0 1 0"/><feBlend in2="effect1_innerShadow_18_6750" result="effect2_innerShadow_18_6750"/></filter><filter id="R" x="22.754" y="20.008" width="2.442" height="2.242" filterUnits="userSpaceOnUse" color-interpolation-filters="sRGB"><feFlood flood-opacity="0" result="BackgroundImageFix"/><feBlend in="SourceGraphic" in2="BackgroundImageFix" result="shape"/><feColorMatrix in="SourceAlpha" values="0 0 0 0 0 0 0 0 0 0 0 0 0 0 0 0 0 0 127 0" result="hardAlpha"/><feOffset dx=".2"/><feGaussianBlur stdDeviation=".2"/><feComposite in2="hardAlpha" operator="arithmetic" k2="-1" k3="1"/><feColorMatrix values="0 0 0 0 0.380392 0 0 0 0 1 0 0 0 0 1 0 0 0 1 0"/><feBlend in2="shape" result="effect1_innerShadow_18_6750"/><feColorMatrix in="SourceAlpha" values="0 0 0 0 0 0 0 0 0 0 0 0 0 0 0 0 0 0 127 0" result="hardAlpha"/><feOffset dx="-.25" dy=".25"/><feGaussianBlur stdDeviation=".2"/><feComposite in2="hardAlpha" operator="arithmetic" k2="-1" k3="1"/><feColorMatrix values="0 0 0 0 0.0862745 0 0 0 0 0.52549 0 0 0 0 0.933333 0 0 0 1 0"/><feBlend in2="effect1_innerShadow_18_6750" result="effect2_innerShadow_18_6750"/></filter><filter id="T" x="25.738" y="20.008" width="2.442" height="2.242" filterUnits="userSpaceOnUse" color-interpolation-filters="sRGB"><feFlood flood-opacity="0" result="BackgroundImageFix"/><feBlend in="SourceGraphic" in2="BackgroundImageFix" result="shape"/><feColorMatrix in="SourceAlpha" values="0 0 0 0 0 0 0 0 0 0 0 0 0 0 0 0 0 0 127 0" result="hardAlpha"/><feOffset dx=".2"/><feGaussianBlur stdDeviation=".2"/><feComposite in2="hardAlpha" operator="arithmetic" k2="-1" k3="1"/><feColorMatrix values="0 0 0 0 0.380392 0 0 0 0 1 0 0 0 0 1 0 0 0 1 0"/><feBlend in2="shape" result="effect1_innerShadow_18_6750"/><feColorMatrix in="SourceAlpha" values="0 0 0 0 0 0 0 0 0 0 0 0 0 0 0 0 0 0 127 0" result="hardAlpha"/><feOffset dx="-.25" dy=".25"/><feGaussianBlur stdDeviation=".2"/><feComposite in2="hardAlpha" operator="arithmetic" k2="-1" k3="1"/><feColorMatrix values="0 0 0 0 0.0862745 0 0 0 0 0.52549 0 0 0 0 0.933333 0 0 0 1 0"/><feBlend in2="effect1_innerShadow_18_6750" result="effect2_innerShadow_18_6750"/></filter><radialGradient id="p" cx="0" cy="0" r="1" gradientUnits="userSpaceOnUse" gradientTransform="matrix(-.66852 .6514 -1.08106 -1.10947 30 12.345)"><stop stop-color="#D9D5DB"/><stop offset="1" stop-color="#D9D5DB" stop-opacity="0"/></radialGradient><radialGradient id="v" cx="0" cy="0" r="1" gradientUnits="userSpaceOnUse" gradientTransform="rotate(-160.973 6.848 9.385) scale(.57379 .74796)"><stop offset=".226" stop-color="#CECBD0"/><stop offset="1" stop-color="#CECBD0" stop-opacity="0"/></radialGradient></defs></svg>