<svg xmlns="http://www.w3.org/2000/svg" fill="none" viewBox="0 0 32 32"><g filter="url(#ferry_svg__a)"><path fill="url(#ferry_svg__b)" d="m12.1 14.869-5.1 5.1h23v-6H12.5c0 .3-.1.6-.4.9"/><path fill="url(#ferry_svg__c)" d="m12.1 14.869-5.1 5.1h23v-6H12.5c0 .3-.1.6-.4.9"/><path fill="url(#ferry_svg__d)" d="m12.1 14.869-5.1 5.1h23v-6H12.5c0 .3-.1.6-.4.9"/></g><path fill="#DED5DD" d="m9 7.969 3.3 4.9c.2.3.3.7.2 1.1H30v-6z"/><path fill="url(#ferry_svg__e)" d="m9 7.969 3.3 4.9c.2.3.3.7.2 1.1H30v-6z"/><path fill="url(#ferry_svg__f)" d="m9 7.969 3.3 4.9c.2.3.3.7.2 1.1H30v-6z"/><path fill="url(#ferry_svg__g)" d="m9 7.969 3.3 4.9c.2.3.3.7.2 1.1H30v-6z"/><g filter="url(#ferry_svg__h)"><path fill="url(#ferry_svg__i)" d="M20 7.969H8.6c-.3 0-.5-.2-.5-.5s.2-.5.5-.5H20z"/><path fill="url(#ferry_svg__j)" d="M20 7.969H8.6c-.3 0-.5-.2-.5-.5s.2-.5.5-.5H20z"/></g><g filter="url(#ferry_svg__k)"><path fill="#EBE3F0" d="M30 11.969H20v-5c0-.6.4-1 1-1h9z"/></g><path fill="url(#ferry_svg__l)" d="M30 11.969H20v-5c0-.6.4-1 1-1h9z"/><path fill="#49E8FF" d="M21.6 10.969H30v-3h-8.4c-.3 0-.6.3-.6.6v1.7c0 .4.3.7.6.7"/><path fill="url(#ferry_svg__m)" d="M21.6 10.969H30v-3h-8.4c-.3 0-.6.3-.6.6v1.7c0 .4.3.7.6.7"/><path fill="url(#ferry_svg__n)" d="M21.6 10.969H30v-3h-8.4c-.3 0-.6.3-.6.6v1.7c0 .4.3.7.6.7"/><path fill="url(#ferry_svg__o)" d="M15 10.369v-.8c0-.3-.3-.6-.6-.6H9.7l1.3 2h3.4c.3 0 .6-.3.6-.6" opacity=".48"/><g filter="url(#ferry_svg__p)"><path fill="#56F5FF" d="M15 10.369v-.8c0-.3-.3-.6-.6-.6H9.672l1.344 2H14.4c.3 0 .6-.3.6-.6"/></g><path fill="url(#ferry_svg__q)" d="M14 16.269v-.6c0-.4-.3-.7-.7-.7H12l-2 2h3.3c.4 0 .7-.3.7-.7"/><g filter="url(#ferry_svg__r)"><path fill="#52FBFF" d="M14 16.269v-.6c0-.4-.3-.7-.7-.7H12l-2 2h3.3c.4 0 .7-.3.7-.7"/></g><g filter="url(#ferry_svg__s)"><path fill="#52FBFF" d="M16 16.969c-.6 0-1-.4-1-1s.4-1 1-1 1 .4 1 1c0 .5-.4 1-1 1"/></g><g filter="url(#ferry_svg__t)"><path fill="#52FBFF" d="M19 16.969c-.6 0-1-.4-1-1s.4-1 1-1 1 .4 1 1c0 .5-.4 1-1 1"/></g><g filter="url(#ferry_svg__u)"><path fill="#52FBFF" d="M22 16.969c-.6 0-1-.4-1-1s.4-1 1-1 1 .4 1 1c0 .5-.4 1-1 1"/></g><g filter="url(#ferry_svg__v)"><path fill="#52FBFF" d="M25 16.969c-.6 0-1-.4-1-1s.4-1 1-1 1 .4 1 1c0 .5-.4 1-1 1"/></g><g filter="url(#ferry_svg__w)"><path fill="#52FBFF" d="M28 16.969c-.6 0-1-.4-1-1s.4-1 1-1 1 .4 1 1c0 .5-.4 1-1 1"/></g><g filter="url(#ferry_svg__x)"><path fill="url(#ferry_svg__y)" d="M19.8 3.969h-2.503c-.1 0-.188 0-.297.1l-3 2.9h4.2l1.7-2.7c.108-.136.1-.3-.1-.3"/><path fill="url(#ferry_svg__z)" d="M19.8 3.969h-2.503c-.1 0-.188 0-.297.1l-3 2.9h4.2l1.7-2.7c.108-.136.1-.3-.1-.3"/></g><g filter="url(#ferry_svg__A)"><path fill="url(#ferry_svg__B)" d="M3 19.969c-.5 0-1 .4-1 1v1c0 1.4.9 2.5 2.2 2.9.5.1.8.5.8 1v.1c0 1.7 1.3 3 3 3h22v-9z"/></g><path fill="url(#ferry_svg__C)" d="M30 24.969H8.5c-.3 0-.5-.2-.5-.5s.2-.5.5-.5H30z"/><g filter="url(#ferry_svg__D)"><path fill="#4F95F5" d="M30.04 27.023c-.923 0-1.83 1.008-3.243 1.008-1.414 0-1.88-1.07-3.578-1.07-1.798 0-1.98 1.089-3.696 1.089-1.316 0-2.085-1.066-3.476-1.066-1.798 0-2.445 1.066-3.727 1.066-1.422 0-1.952-1.1-3.75-1.1-1.203 0-2.172 1.1-3.468 1.1-1.063 0-1.657-.534-3.032-1.1V30h27.97z"/></g><g filter="url(#ferry_svg__E)"><path fill="url(#ferry_svg__F)" d="M30 13.969H11.5c-.3 0-.5-.2-.5-.5s.2-.5.5-.5H30z"/></g><path fill="url(#ferry_svg__G)" d="M30 19.969H5v-.4c0-.4.3-.6.6-.6H30z"/><path fill="url(#ferry_svg__H)" d="M30 19.969H5v-.4c0-.4.3-.6.6-.6H30z"/><path fill="url(#ferry_svg__I)" d="M30 19.969H5v-.4c0-.4.3-.6.6-.6H30z"/><path fill="url(#ferry_svg__J)" d="M30 12.969H15v-.4c0-.4.3-.6.6-.6H30z"/><path fill="url(#ferry_svg__K)" d="M30 12.969H15v-.4c0-.4.3-.6.6-.6H30z"/><g filter="url(#ferry_svg__L)"><path fill="url(#ferry_svg__M)" d="M30 24.969v-5H3c-.5 0-1 .4-1 1v1c0 1.4.9 2.5 2.2 2.9q.157.031.286.1z"/></g><path fill="url(#ferry_svg__N)" d="M30 24.969v-5H3c-.5 0-1 .4-1 1v1c0 1.4.9 2.5 2.2 2.9q.157.031.286.1z"/><defs><linearGradient id="ferry_svg__b" x1="30" x2="7.006" y1="16.969" y2="16.957" gradientUnits="userSpaceOnUse"><stop offset=".602" stop-color="#E7E4F3"/><stop offset="1" stop-color="#E3DCE6"/></linearGradient><linearGradient id="ferry_svg__c" x1="18.5" x2="18.5" y1="13.614" y2="16.077" gradientUnits="userSpaceOnUse"><stop stop-color="#807C9A"/><stop offset="1" stop-color="#807C9A" stop-opacity="0"/></linearGradient><linearGradient id="ferry_svg__e" x1="11.214" x2="11.655" y1="11.223" y2="10.929" gradientUnits="userSpaceOnUse"><stop stop-color="#A39EA8"/><stop offset="1" stop-color="#A39EA8" stop-opacity="0"/></linearGradient><linearGradient id="ferry_svg__f" x1="20.125" x2="17.313" y1="10.969" y2="10.969" gradientUnits="userSpaceOnUse"><stop stop-color="#A3969D"/><stop offset="1" stop-color="#A3969D" stop-opacity="0"/></linearGradient><linearGradient id="ferry_svg__j" x1="20.183" x2="19.176" y1="7.969" y2="7.969" gradientUnits="userSpaceOnUse"><stop stop-color="#2F78BA"/><stop offset="1" stop-color="#2F78BA" stop-opacity="0"/></linearGradient><linearGradient id="ferry_svg__l" x1="25" x2="25" y1="5.969" y2="6.85" gradientUnits="userSpaceOnUse"><stop stop-color="#F5F0F6"/><stop offset="1" stop-color="#F5F0F6" stop-opacity="0"/></linearGradient><linearGradient id="ferry_svg__m" x1="25.5" x2="25.5" y1="7.969" y2="10.969" gradientUnits="userSpaceOnUse"><stop stop-color="#2094F4"/><stop offset="1" stop-color="#2094F4" stop-opacity="0"/></linearGradient><linearGradient id="ferry_svg__o" x1="9.67" x2="15.006" y1="9.957" y2="9.957" gradientUnits="userSpaceOnUse"><stop stop-color="#C0FFFE"/><stop offset="1" stop-color="#4CF0F8"/></linearGradient><linearGradient id="ferry_svg__q" x1="15.061" x2="10.704" y1="5.242" y2="21.501" gradientUnits="userSpaceOnUse"><stop stop-color="#C0FFFE"/><stop offset="1" stop-color="#4CF0F8"/></linearGradient><linearGradient id="ferry_svg__y" x1="19.125" x2="15.625" y1="6.156" y2="5" gradientUnits="userSpaceOnUse"><stop offset=".02" stop-color="#D0CAD5"/><stop offset="1" stop-color="#D5CDD9"/></linearGradient><linearGradient id="ferry_svg__z" x1="16.985" x2="16.985" y1="3.969" y2="4.203" gradientUnits="userSpaceOnUse"><stop stop-color="#EDEBEE"/><stop offset="1" stop-color="#EDEBEE" stop-opacity="0"/></linearGradient><linearGradient id="ferry_svg__B" x1="4.595" x2="30.006" y1="24.457" y2="24.457" gradientUnits="userSpaceOnUse"><stop stop-color="#D1CEDC"/><stop offset="1" stop-color="#DBDCED"/></linearGradient><linearGradient id="ferry_svg__C" x1="19.001" x2="19.001" y1="23.933" y2="24.982" gradientUnits="userSpaceOnUse"><stop stop-color="#fff"/><stop offset=".849" stop-color="#fff" stop-opacity=".1"/></linearGradient><linearGradient id="ferry_svg__G" x1="30.02" x2="5.02" y1="19.456" y2="19.456" gradientUnits="userSpaceOnUse"><stop stop-color="#685486"/><stop offset="1" stop-color="#504A54"/></linearGradient><linearGradient id="ferry_svg__H" x1="17.5" x2="17.5" y1="18.969" y2="19.469" gradientUnits="userSpaceOnUse"><stop stop-color="#544A60"/><stop offset="1" stop-color="#544A60" stop-opacity="0"/></linearGradient><linearGradient id="ferry_svg__I" x1="5.254" x2="5.984" y1="19.969" y2="19.969" gradientUnits="userSpaceOnUse"><stop stop-color="#3E3E49"/><stop offset="1" stop-color="#3E3E49" stop-opacity="0"/></linearGradient><linearGradient id="ferry_svg__J" x1="30.012" x2="15.012" y1="12.456" y2="12.456" gradientUnits="userSpaceOnUse"><stop stop-color="#584E64"/><stop offset="1" stop-color="#6B5587"/></linearGradient><linearGradient id="ferry_svg__K" x1="22.5" x2="22.5" y1="11.969" y2="12.469" gradientUnits="userSpaceOnUse"><stop stop-color="#544A60"/><stop offset="1" stop-color="#544A60" stop-opacity="0"/></linearGradient><linearGradient id="ferry_svg__M" x1="30" x2="2" y1="24.969" y2="24.969" gradientUnits="userSpaceOnUse"><stop offset=".419" stop-color="#3FB6FF"/><stop offset="1" stop-color="#1876C4"/><stop offset="1" stop-color="#488FEA"/></linearGradient><linearGradient id="ferry_svg__N" x1="16" x2="16" y1="19.619" y2="21.032" gradientUnits="userSpaceOnUse"><stop stop-color="#35B8FF"/><stop offset="1" stop-color="#35B8FF" stop-opacity="0"/></linearGradient><filter id="ferry_svg__a" width="23.25" height="6" x="7" y="13.969" color-interpolation-filters="sRGB" filterUnits="userSpaceOnUse"><feFlood flood-opacity="0" result="BackgroundImageFix"/><feBlend in="SourceGraphic" in2="BackgroundImageFix" result="shape"/><feColorMatrix in="SourceAlpha" result="hardAlpha" values="0 0 0 0 0 0 0 0 0 0 0 0 0 0 0 0 0 0 127 0"/><feOffset dx=".25"/><feGaussianBlur stdDeviation=".25"/><feComposite in2="hardAlpha" k2="-1" k3="1" operator="arithmetic"/><feColorMatrix values="0 0 0 0 0.596078 0 0 0 0 0.596078 0 0 0 0 0.654902 0 0 0 1 0"/><feBlend in2="shape" result="effect1_innerShadow_18_12336"/></filter><filter id="ferry_svg__h" width="12.15" height="1.1" x="8.1" y="6.869" color-interpolation-filters="sRGB" filterUnits="userSpaceOnUse"><feFlood flood-opacity="0" result="BackgroundImageFix"/><feBlend in="SourceGraphic" in2="BackgroundImageFix" result="shape"/><feColorMatrix in="SourceAlpha" result="hardAlpha" values="0 0 0 0 0 0 0 0 0 0 0 0 0 0 0 0 0 0 127 0"/><feOffset dx=".25" dy="-.1"/><feGaussianBlur stdDeviation=".2"/><feComposite in2="hardAlpha" k2="-1" k3="1" operator="arithmetic"/><feColorMatrix values="0 0 0 0 0.278431 0 0 0 0 0.388235 0 0 0 0 0.694118 0 0 0 1 0"/><feBlend in2="shape" result="effect1_innerShadow_18_12336"/></filter><filter id="ferry_svg__k" width="10.25" height="6" x="20" y="5.969" color-interpolation-filters="sRGB" filterUnits="userSpaceOnUse"><feFlood flood-opacity="0" result="BackgroundImageFix"/><feBlend in="SourceGraphic" in2="BackgroundImageFix" result="shape"/><feColorMatrix in="SourceAlpha" result="hardAlpha" values="0 0 0 0 0 0 0 0 0 0 0 0 0 0 0 0 0 0 127 0"/><feOffset dx=".25"/><feGaussianBlur stdDeviation=".375"/><feComposite in2="hardAlpha" k2="-1" k3="1" operator="arithmetic"/><feColorMatrix values="0 0 0 0 0.737255 0 0 0 0 0.713726 0 0 0 0 0.729412 0 0 0 1 0"/><feBlend in2="shape" result="effect1_innerShadow_18_12336"/></filter><filter id="ferry_svg__p" width="5.928" height="2.4" x="9.072" y="8.969" color-interpolation-filters="sRGB" filterUnits="userSpaceOnUse"><feFlood flood-opacity="0" result="BackgroundImageFix"/><feBlend in="SourceGraphic" in2="BackgroundImageFix" result="shape"/><feColorMatrix in="SourceAlpha" result="hardAlpha" values="0 0 0 0 0 0 0 0 0 0 0 0 0 0 0 0 0 0 127 0"/><feOffset dx="-.6" dy=".4"/><feGaussianBlur stdDeviation=".375"/><feComposite in2="hardAlpha" k2="-1" k3="1" operator="arithmetic"/><feColorMatrix values="0 0 0 0 0.180392 0 0 0 0 0.74902 0 0 0 0 0.996078 0 0 0 1 0"/><feBlend in2="shape" result="effect1_innerShadow_18_12336"/></filter><filter id="ferry_svg__r" width="5.25" height="3.25" x="8.75" y="14.969" color-interpolation-filters="sRGB" filterUnits="userSpaceOnUse"><feFlood flood-opacity="0" result="BackgroundImageFix"/><feBlend in="SourceGraphic" in2="BackgroundImageFix" result="shape"/><feColorMatrix in="SourceAlpha" result="hardAlpha" values="0 0 0 0 0 0 0 0 0 0 0 0 0 0 0 0 0 0 127 0"/><feOffset dx="-1.25" dy="1.25"/><feGaussianBlur stdDeviation="1"/><feComposite in2="hardAlpha" k2="-1" k3="1" operator="arithmetic"/><feColorMatrix values="0 0 0 0 0.184314 0 0 0 0 0.745098 0 0 0 0 1 0 0 0 1 0"/><feBlend in2="shape" result="effect1_innerShadow_18_12336"/></filter><filter id="ferry_svg__s" width="2.5" height="2.5" x="14.5" y="14.969" color-interpolation-filters="sRGB" filterUnits="userSpaceOnUse"><feFlood flood-opacity="0" result="BackgroundImageFix"/><feBlend in="SourceGraphic" in2="BackgroundImageFix" result="shape"/><feColorMatrix in="SourceAlpha" result="hardAlpha" values="0 0 0 0 0 0 0 0 0 0 0 0 0 0 0 0 0 0 127 0"/><feOffset dx="-.5" dy=".5"/><feGaussianBlur stdDeviation=".5"/><feComposite in2="hardAlpha" k2="-1" k3="1" operator="arithmetic"/><feColorMatrix values="0 0 0 0 0.184314 0 0 0 0 0.745098 0 0 0 0 1 0 0 0 1 0"/><feBlend in2="shape" result="effect1_innerShadow_18_12336"/></filter><filter id="ferry_svg__t" width="2.5" height="2.5" x="17.5" y="14.969" color-interpolation-filters="sRGB" filterUnits="userSpaceOnUse"><feFlood flood-opacity="0" result="BackgroundImageFix"/><feBlend in="SourceGraphic" in2="BackgroundImageFix" result="shape"/><feColorMatrix in="SourceAlpha" result="hardAlpha" values="0 0 0 0 0 0 0 0 0 0 0 0 0 0 0 0 0 0 127 0"/><feOffset dx="-.5" dy=".5"/><feGaussianBlur stdDeviation=".5"/><feComposite in2="hardAlpha" k2="-1" k3="1" operator="arithmetic"/><feColorMatrix values="0 0 0 0 0.184314 0 0 0 0 0.745098 0 0 0 0 1 0 0 0 1 0"/><feBlend in2="shape" result="effect1_innerShadow_18_12336"/></filter><filter id="ferry_svg__u" width="2.5" height="2.5" x="20.5" y="14.969" color-interpolation-filters="sRGB" filterUnits="userSpaceOnUse"><feFlood flood-opacity="0" result="BackgroundImageFix"/><feBlend in="SourceGraphic" in2="BackgroundImageFix" result="shape"/><feColorMatrix in="SourceAlpha" result="hardAlpha" values="0 0 0 0 0 0 0 0 0 0 0 0 0 0 0 0 0 0 127 0"/><feOffset dx="-.5" dy=".5"/><feGaussianBlur stdDeviation=".5"/><feComposite in2="hardAlpha" k2="-1" k3="1" operator="arithmetic"/><feColorMatrix values="0 0 0 0 0.184314 0 0 0 0 0.745098 0 0 0 0 1 0 0 0 1 0"/><feBlend in2="shape" result="effect1_innerShadow_18_12336"/></filter><filter id="ferry_svg__v" width="2.5" height="2.5" x="23.5" y="14.969" color-interpolation-filters="sRGB" filterUnits="userSpaceOnUse"><feFlood flood-opacity="0" result="BackgroundImageFix"/><feBlend in="SourceGraphic" in2="BackgroundImageFix" result="shape"/><feColorMatrix in="SourceAlpha" result="hardAlpha" values="0 0 0 0 0 0 0 0 0 0 0 0 0 0 0 0 0 0 127 0"/><feOffset dx="-.5" dy=".5"/><feGaussianBlur stdDeviation=".5"/><feComposite in2="hardAlpha" k2="-1" k3="1" operator="arithmetic"/><feColorMatrix values="0 0 0 0 0.184314 0 0 0 0 0.745098 0 0 0 0 1 0 0 0 1 0"/><feBlend in2="shape" result="effect1_innerShadow_18_12336"/></filter><filter id="ferry_svg__w" width="2.5" height="2.5" x="26.5" y="14.969" color-interpolation-filters="sRGB" filterUnits="userSpaceOnUse"><feFlood flood-opacity="0" result="BackgroundImageFix"/><feBlend in="SourceGraphic" in2="BackgroundImageFix" result="shape"/><feColorMatrix in="SourceAlpha" result="hardAlpha" values="0 0 0 0 0 0 0 0 0 0 0 0 0 0 0 0 0 0 127 0"/><feOffset dx="-.5" dy=".5"/><feGaussianBlur stdDeviation=".5"/><feComposite in2="hardAlpha" k2="-1" k3="1" operator="arithmetic"/><feColorMatrix values="0 0 0 0 0.184314 0 0 0 0 0.745098 0 0 0 0 1 0 0 0 1 0"/><feBlend in2="shape" result="effect1_innerShadow_18_12336"/></filter><filter id="ferry_svg__x" width="6.069" height="3" x="14" y="3.969" color-interpolation-filters="sRGB" filterUnits="userSpaceOnUse"><feFlood flood-opacity="0" result="BackgroundImageFix"/><feBlend in="SourceGraphic" in2="BackgroundImageFix" result="shape"/><feColorMatrix in="SourceAlpha" result="hardAlpha" values="0 0 0 0 0 0 0 0 0 0 0 0 0 0 0 0 0 0 127 0"/><feOffset dx=".1"/><feGaussianBlur stdDeviation=".1"/><feComposite in2="hardAlpha" k2="-1" k3="1" operator="arithmetic"/><feColorMatrix values="0 0 0 0 0.713726 0 0 0 0 0.686275 0 0 0 0 0.694118 0 0 0 1 0"/><feBlend in2="shape" result="effect1_innerShadow_18_12336"/></filter><filter id="ferry_svg__A" width="28.5" height="9" x="2" y="19.969" color-interpolation-filters="sRGB" filterUnits="userSpaceOnUse"><feFlood flood-opacity="0" result="BackgroundImageFix"/><feBlend in="SourceGraphic" in2="BackgroundImageFix" result="shape"/><feColorMatrix in="SourceAlpha" result="hardAlpha" values="0 0 0 0 0 0 0 0 0 0 0 0 0 0 0 0 0 0 127 0"/><feOffset dx=".75"/><feGaussianBlur stdDeviation=".25"/><feComposite in2="hardAlpha" k2="-1" k3="1" operator="arithmetic"/><feColorMatrix values="0 0 0 0 0.615686 0 0 0 0 0.584314 0 0 0 0 0.639216 0 0 0 1 0"/><feBlend in2="shape" result="effect1_innerShadow_18_12336"/></filter><filter id="ferry_svg__D" width="28.569" height="3.65" x="1.47" y="26.95" color-interpolation-filters="sRGB" filterUnits="userSpaceOnUse"><feFlood flood-opacity="0" result="BackgroundImageFix"/><feBlend in="SourceGraphic" in2="BackgroundImageFix" result="shape"/><feColorMatrix in="SourceAlpha" result="hardAlpha" values="0 0 0 0 0 0 0 0 0 0 0 0 0 0 0 0 0 0 127 0"/><feOffset dx="-.6" dy=".6"/><feGaussianBlur stdDeviation=".3"/><feComposite in2="hardAlpha" k2="-1" k3="1" operator="arithmetic"/><feColorMatrix values="0 0 0 0 0.384314 0 0 0 0 0.67451 0 0 0 0 0.996078 0 0 0 1 0"/><feBlend in2="shape" result="effect1_innerShadow_18_12336"/><feColorMatrix in="SourceAlpha" result="hardAlpha" values="0 0 0 0 0 0 0 0 0 0 0 0 0 0 0 0 0 0 127 0"/><feOffset dy=".4"/><feGaussianBlur stdDeviation=".2"/><feComposite in2="hardAlpha" k2="-1" k3="1" operator="arithmetic"/><feColorMatrix values="0 0 0 0 0.247059 0 0 0 0 0.537255 0 0 0 0 0.894118 0 0 0 1 0"/><feBlend in2="effect1_innerShadow_18_12336" result="effect2_innerShadow_18_12336"/></filter><filter id="ferry_svg__E" width="19.25" height="1.1" x="11" y="12.869" color-interpolation-filters="sRGB" filterUnits="userSpaceOnUse"><feFlood flood-opacity="0" result="BackgroundImageFix"/><feBlend in="SourceGraphic" in2="BackgroundImageFix" result="shape"/><feColorMatrix in="SourceAlpha" result="hardAlpha" values="0 0 0 0 0 0 0 0 0 0 0 0 0 0 0 0 0 0 127 0"/><feOffset dx=".25" dy="-.1"/><feGaussianBlur stdDeviation=".2"/><feComposite in2="hardAlpha" k2="-1" k3="1" operator="arithmetic"/><feColorMatrix values="0 0 0 0 0.137255 0 0 0 0 0.423529 0 0 0 0 0.733333 0 0 0 1 0"/><feBlend in2="shape" result="effect1_innerShadow_18_12336"/></filter><filter id="ferry_svg__L" width="28.5" height="5.25" x="2" y="19.969" color-interpolation-filters="sRGB" filterUnits="userSpaceOnUse"><feFlood flood-opacity="0" result="BackgroundImageFix"/><feBlend in="SourceGraphic" in2="BackgroundImageFix" result="shape"/><feColorMatrix in="SourceAlpha" result="hardAlpha" values="0 0 0 0 0 0 0 0 0 0 0 0 0 0 0 0 0 0 127 0"/><feOffset dx="1" dy=".25"/><feGaussianBlur stdDeviation=".25"/><feComposite in2="hardAlpha" k2="-1" k3="1" operator="arithmetic"/><feColorMatrix values="0 0 0 0 0.270588 0 0 0 0 0.34902 0 0 0 0 0.639216 0 0 0 1 0"/><feBlend in2="shape" result="effect1_innerShadow_18_12336"/></filter><radialGradient id="ferry_svg__d" cx="0" cy="0" r="1" gradientTransform="rotate(134.361 12.427 13.59)scale(4.03908 1.08434)" gradientUnits="userSpaceOnUse"><stop offset=".419" stop-color="#DEDBF2"/><stop offset="1" stop-color="#DEDBF2" stop-opacity="0"/></radialGradient><radialGradient id="ferry_svg__g" cx="0" cy="0" r="1" gradientTransform="matrix(-1.12693 1.10011 -.84655 -.8672 15.168 13.152)" gradientUnits="userSpaceOnUse"><stop stop-color="#86848F"/><stop offset="1" stop-color="#86848F" stop-opacity="0"/></radialGradient><radialGradient id="ferry_svg__i" cx="0" cy="0" r="1" gradientTransform="matrix(10.8968 0 0 .5 13.71 7.469)" gradientUnits="userSpaceOnUse"><stop stop-color="#47AFFF"/><stop offset="1" stop-color="#2B87DC"/></radialGradient><radialGradient id="ferry_svg__n" cx="0" cy="0" r="1" gradientTransform="matrix(-4.4062 5.18754 -1.16987 -.99367 31.719 7.75)" gradientUnits="userSpaceOnUse"><stop offset=".455" stop-color="#48E6FF"/><stop offset="1" stop-color="#48E6FF" stop-opacity="0"/></radialGradient><radialGradient id="ferry_svg__F" cx="0" cy="0" r="1" gradientTransform="matrix(17.3602 0 0 .4989 19.945 13.152)" gradientUnits="userSpaceOnUse"><stop stop-color="#3EBBFF"/><stop offset="1" stop-color="#4FA8FF"/></radialGradient></defs></svg>