<svg width="32" height="32" fill="none" xmlns="http://www.w3.org/2000/svg"><g filter="url(#a)"><rect x="2.094" y="4.969" width="27.875" height="22.031" rx=".8" fill="#5E4F86"/></g><g filter="url(#b)" stroke-width=".65"><path d="M2.58 21.984V10.016h3.388c.958 0 1.735.85 1.735 1.9v8.168c0 1.05-.777 1.9-1.735 1.9H2.579Z" stroke="#463875"/><path d="M2.58 21.984V10.016h3.388c.958 0 1.735.85 1.735 1.9v8.168c0 1.05-.777 1.9-1.735 1.9H2.579Z" stroke="url(#c)"/></g><g filter="url(#d)" stroke-width=".65"><path d="M29.498 10.016v11.968H26.1c-.961 0-1.74-.85-1.74-1.9v-8.168c0-1.05.779-1.9 1.74-1.9h3.398Z" stroke="#463875"/><path d="M29.498 10.016v11.968H26.1c-.961 0-1.74-.85-1.74-1.9v-8.168c0-1.05.779-1.9 1.74-1.9h3.398Z" stroke="url(#e)"/></g><g filter="url(#f)" stroke-width=".65"><path d="M9.945 11.916c0-1.05.851-1.9 1.9-1.9h8.31c1.049 0 1.9.85 1.9 1.9v8.168a1.9 1.9 0 0 1-1.9 1.9h-8.31a1.9 1.9 0 0 1-1.9-1.9v-8.168Z" stroke="#463875"/><path d="M9.945 11.916c0-1.05.851-1.9 1.9-1.9h8.31c1.049 0 1.9.85 1.9 1.9v8.168a1.9 1.9 0 0 1-1.9 1.9h-8.31a1.9 1.9 0 0 1-1.9-1.9v-8.168Z" stroke="url(#g)"/></g><g filter="url(#h)"><path d="M29.969 10.016v11.968h-3.71a1.9 1.9 0 0 1-1.9-1.9v-8.168c0-1.05.851-1.9 1.9-1.9h3.71Z" fill="#7BBEE4"/></g><path d="M29.969 10.016v11.968h-3.71a1.9 1.9 0 0 1-1.9-1.9v-8.168c0-1.05.851-1.9 1.9-1.9h3.71Z" fill="url(#i)"/><g filter="url(#j)"><path d="M9.945 11.916c0-1.05.851-1.9 1.9-1.9h8.31c1.049 0 1.9.85 1.9 1.9v8.168a1.9 1.9 0 0 1-1.9 1.9h-8.31a1.9 1.9 0 0 1-1.9-1.9v-8.168Z" fill="#7BBEE4"/></g><g filter="url(#k)"><path d="M2.094 21.984V10.016h3.71c1.048 0 1.9.85 1.9 1.9v8.168a1.9 1.9 0 0 1-1.9 1.9h-3.71Z" fill="#7BBEE4"/></g><g filter="url(#l)" stroke-width=".6"><path d="M4.063 6.758a.25.25 0 0 1 .25-.25h1.546a.25.25 0 0 1 .25.25v1.547a.25.25 0 0 1-.25.25H4.313a.25.25 0 0 1-.25-.25V6.758Z" stroke="#43346D"/><path d="M4.063 6.758a.25.25 0 0 1 .25-.25h1.546a.25.25 0 0 1 .25.25v1.547a.25.25 0 0 1-.25.25H4.313a.25.25 0 0 1-.25-.25V6.758Z" stroke="url(#m)"/></g><g filter="url(#n)"><path d="M4.063 6.758a.25.25 0 0 1 .25-.25h1.546a.25.25 0 0 1 .25.25v1.547a.25.25 0 0 1-.25.25H4.313a.25.25 0 0 1-.25-.25V6.758Z" stroke="#422E6F" stroke-width=".1"/></g><g filter="url(#o)" stroke-width=".6"><path d="M9.531 6.758a.25.25 0 0 1 .25-.25h1.547a.25.25 0 0 1 .25.25v1.547a.25.25 0 0 1-.25.25H9.781a.25.25 0 0 1-.25-.25V6.758Z" stroke="#43346D"/><path d="M9.531 6.758a.25.25 0 0 1 .25-.25h1.547a.25.25 0 0 1 .25.25v1.547a.25.25 0 0 1-.25.25H9.781a.25.25 0 0 1-.25-.25V6.758Z" stroke="url(#p)"/></g><g filter="url(#q)"><path d="M9.531 6.758a.25.25 0 0 1 .25-.25h1.547a.25.25 0 0 1 .25.25v1.547a.25.25 0 0 1-.25.25H9.781a.25.25 0 0 1-.25-.25V6.758Z" stroke="#422E6F" stroke-width=".1"/></g><g filter="url(#r)" stroke-width=".6"><path d="M15.008 6.758a.25.25 0 0 1 .25-.25h1.547a.25.25 0 0 1 .25.25v1.547a.25.25 0 0 1-.25.25h-1.547a.25.25 0 0 1-.25-.25V6.758Z" stroke="#43346D"/><path d="M15.008 6.758a.25.25 0 0 1 .25-.25h1.547a.25.25 0 0 1 .25.25v1.547a.25.25 0 0 1-.25.25h-1.547a.25.25 0 0 1-.25-.25V6.758Z" stroke="url(#s)"/></g><g filter="url(#t)"><path d="M15.008 6.758a.25.25 0 0 1 .25-.25h1.547a.25.25 0 0 1 .25.25v1.547a.25.25 0 0 1-.25.25h-1.547a.25.25 0 0 1-.25-.25V6.758Z" stroke="#422E6F" stroke-width=".1"/></g><g filter="url(#u)" stroke-width=".6"><path d="M20.469 6.758a.25.25 0 0 1 .25-.25h1.547a.25.25 0 0 1 .25.25v1.547a.25.25 0 0 1-.25.25h-1.547a.25.25 0 0 1-.25-.25V6.758Z" stroke="#43346D"/><path d="M20.469 6.758a.25.25 0 0 1 .25-.25h1.547a.25.25 0 0 1 .25.25v1.547a.25.25 0 0 1-.25.25h-1.547a.25.25 0 0 1-.25-.25V6.758Z" stroke="url(#v)"/></g><g filter="url(#w)"><path d="M20.469 6.758a.25.25 0 0 1 .25-.25h1.547a.25.25 0 0 1 .25.25v1.547a.25.25 0 0 1-.25.25h-1.547a.25.25 0 0 1-.25-.25V6.758Z" stroke="#422E6F" stroke-width=".1"/></g><g filter="url(#x)" stroke-width=".6"><path d="M25.938 6.758a.25.25 0 0 1 .25-.25h1.546a.25.25 0 0 1 .25.25v1.547a.25.25 0 0 1-.25.25h-1.547a.25.25 0 0 1-.25-.25V6.758Z" stroke="#43346D"/><path d="M25.938 6.758a.25.25 0 0 1 .25-.25h1.546a.25.25 0 0 1 .25.25v1.547a.25.25 0 0 1-.25.25h-1.547a.25.25 0 0 1-.25-.25V6.758Z" stroke="url(#y)"/></g><g filter="url(#z)"><path d="M25.938 6.758a.25.25 0 0 1 .25-.25h1.546a.25.25 0 0 1 .25.25v1.547a.25.25 0 0 1-.25.25h-1.547a.25.25 0 0 1-.25-.25V6.758Z" stroke="#422E6F" stroke-width=".1"/></g><g filter="url(#A)" stroke-width=".6"><path d="M4.063 23.695a.25.25 0 0 1 .25-.25h1.546a.25.25 0 0 1 .25.25v1.547a.25.25 0 0 1-.25.25H4.313a.25.25 0 0 1-.25-.25v-1.547Z" stroke="#43346D"/><path d="M4.063 23.695a.25.25 0 0 1 .25-.25h1.546a.25.25 0 0 1 .25.25v1.547a.25.25 0 0 1-.25.25H4.313a.25.25 0 0 1-.25-.25v-1.547Z" stroke="url(#B)"/></g><g filter="url(#C)" stroke-width=".6"><path d="M9.531 23.695a.25.25 0 0 1 .25-.25h1.547a.25.25 0 0 1 .25.25v1.547a.25.25 0 0 1-.25.25H9.781a.25.25 0 0 1-.25-.25v-1.547Z" stroke="#43346D"/><path d="M9.531 23.695a.25.25 0 0 1 .25-.25h1.547a.25.25 0 0 1 .25.25v1.547a.25.25 0 0 1-.25.25H9.781a.25.25 0 0 1-.25-.25v-1.547Z" stroke="url(#D)"/></g><g filter="url(#E)" stroke-width=".6"><path d="M15 23.695a.25.25 0 0 1 .25-.25h1.547a.25.25 0 0 1 .25.25v1.547a.25.25 0 0 1-.25.25H15.25a.25.25 0 0 1-.25-.25v-1.547Z" stroke="#43346D"/><path d="M15 23.695a.25.25 0 0 1 .25-.25h1.547a.25.25 0 0 1 .25.25v1.547a.25.25 0 0 1-.25.25H15.25a.25.25 0 0 1-.25-.25v-1.547Z" stroke="url(#F)"/></g><g filter="url(#G)" stroke-width=".6"><path d="M20.469 23.695a.25.25 0 0 1 .25-.25h1.547a.25.25 0 0 1 .25.25v1.547a.25.25 0 0 1-.25.25h-1.547a.25.25 0 0 1-.25-.25v-1.547Z" stroke="#43346D"/><path d="M20.469 23.695a.25.25 0 0 1 .25-.25h1.547a.25.25 0 0 1 .25.25v1.547a.25.25 0 0 1-.25.25h-1.547a.25.25 0 0 1-.25-.25v-1.547Z" stroke="url(#H)"/></g><g filter="url(#I)" stroke-width=".6"><path d="M25.938 23.695a.25.25 0 0 1 .25-.25h1.546a.25.25 0 0 1 .25.25v1.547a.25.25 0 0 1-.25.25h-1.547a.25.25 0 0 1-.25-.25v-1.547Z" stroke="#43346D"/><path d="M25.938 23.695a.25.25 0 0 1 .25-.25h1.546a.25.25 0 0 1 .25.25v1.547a.25.25 0 0 1-.25.25h-1.547a.25.25 0 0 1-.25-.25v-1.547Z" stroke="url(#J)"/></g><path d="M4.063 6.758a.25.25 0 0 1 .25-.25h1.546a.25.25 0 0 1 .25.25v1.547a.25.25 0 0 1-.25.25H4.313a.25.25 0 0 1-.25-.25V6.758ZM9.531 6.758a.25.25 0 0 1 .25-.25h1.547a.25.25 0 0 1 .25.25v1.547a.25.25 0 0 1-.25.25H9.781a.25.25 0 0 1-.25-.25V6.758ZM15 6.758a.25.25 0 0 1 .25-.25h1.547a.25.25 0 0 1 .25.25v1.547a.25.25 0 0 1-.25.25H15.25a.25.25 0 0 1-.25-.25V6.758ZM20.469 6.758a.25.25 0 0 1 .25-.25h1.547a.25.25 0 0 1 .25.25v1.547a.25.25 0 0 1-.25.25h-1.547a.25.25 0 0 1-.25-.25V6.758ZM25.938 6.758a.25.25 0 0 1 .25-.25h1.546a.25.25 0 0 1 .25.25v1.547a.25.25 0 0 1-.25.25h-1.547a.25.25 0 0 1-.25-.25V6.758Z" fill="#E5E5E5"/><g filter="url(#K)"><path d="M4.063 23.695a.25.25 0 0 1 .25-.25h1.546a.25.25 0 0 1 .25.25v1.547a.25.25 0 0 1-.25.25H4.313a.25.25 0 0 1-.25-.25v-1.547Z" stroke="#422E6F" stroke-width=".1"/></g><g filter="url(#L)"><path d="M9.531 23.695a.25.25 0 0 1 .25-.25h1.547a.25.25 0 0 1 .25.25v1.547a.25.25 0 0 1-.25.25H9.781a.25.25 0 0 1-.25-.25v-1.547Z" stroke="#422E6F" stroke-width=".1"/></g><g filter="url(#M)"><path d="M15.008 23.695a.25.25 0 0 1 .25-.25h1.547a.25.25 0 0 1 .25.25v1.547a.25.25 0 0 1-.25.25h-1.547a.25.25 0 0 1-.25-.25v-1.547Z" stroke="#422E6F" stroke-width=".1"/></g><g filter="url(#N)"><path d="M20.469 23.695a.25.25 0 0 1 .25-.25h1.547a.25.25 0 0 1 .25.25v1.547a.25.25 0 0 1-.25.25h-1.547a.25.25 0 0 1-.25-.25v-1.547Z" stroke="#422E6F" stroke-width=".1"/></g><g filter="url(#O)"><path d="M25.938 23.695a.25.25 0 0 1 .25-.25h1.546a.25.25 0 0 1 .25.25v1.547a.25.25 0 0 1-.25.25h-1.547a.25.25 0 0 1-.25-.25v-1.547Z" stroke="#422E6F" stroke-width=".1"/></g><path d="M4.063 23.695a.25.25 0 0 1 .25-.25h1.546a.25.25 0 0 1 .25.25v1.547a.25.25 0 0 1-.25.25H4.313a.25.25 0 0 1-.25-.25v-1.547ZM9.531 23.695a.25.25 0 0 1 .25-.25h1.547a.25.25 0 0 1 .25.25v1.547a.25.25 0 0 1-.25.25H9.781a.25.25 0 0 1-.25-.25v-1.547ZM15 23.695a.25.25 0 0 1 .25-.25h1.547a.25.25 0 0 1 .25.25v1.547a.25.25 0 0 1-.25.25H15.25a.25.25 0 0 1-.25-.25v-1.547ZM20.469 23.695a.25.25 0 0 1 .25-.25h1.547a.25.25 0 0 1 .25.25v1.547a.25.25 0 0 1-.25.25h-1.547a.25.25 0 0 1-.25-.25v-1.547ZM25.938 23.695a.25.25 0 0 1 .25-.25h1.546a.25.25 0 0 1 .25.25v1.547a.25.25 0 0 1-.25.25h-1.547a.25.25 0 0 1-.25-.25v-1.547Z" fill="#E5E5E5"/><defs><filter id="a" x="1.794" y="4.669" width="28.575" height="22.631" filterUnits="userSpaceOnUse" color-interpolation-filters="sRGB"><feFlood flood-opacity="0" result="BackgroundImageFix"/><feBlend in="SourceGraphic" in2="BackgroundImageFix" result="shape"/><feColorMatrix in="SourceAlpha" values="0 0 0 0 0 0 0 0 0 0 0 0 0 0 0 0 0 0 127 0" result="hardAlpha"/><feOffset dy=".4"/><feGaussianBlur stdDeviation=".15"/><feComposite in2="hardAlpha" operator="arithmetic" k2="-1" k3="1"/><feColorMatrix values="0 0 0 0 0.356863 0 0 0 0 0.317647 0 0 0 0 0.501961 0 0 0 1 0"/><feBlend in2="shape" result="effect1_innerShadow_18_20100"/><feColorMatrix in="SourceAlpha" values="0 0 0 0 0 0 0 0 0 0 0 0 0 0 0 0 0 0 127 0" result="hardAlpha"/><feOffset dx="-.4"/><feGaussianBlur stdDeviation=".15"/><feComposite in2="hardAlpha" operator="arithmetic" k2="-1" k3="1"/><feColorMatrix values="0 0 0 0 0.447059 0 0 0 0 0.407843 0 0 0 0 0.572549 0 0 0 1 0"/><feBlend in2="effect1_innerShadow_18_20100" result="effect2_innerShadow_18_20100"/><feColorMatrix in="SourceAlpha" values="0 0 0 0 0 0 0 0 0 0 0 0 0 0 0 0 0 0 127 0" result="hardAlpha"/><feOffset dy="-.4"/><feGaussianBlur stdDeviation=".15"/><feComposite in2="hardAlpha" operator="arithmetic" k2="-1" k3="1"/><feColorMatrix values="0 0 0 0 0.376471 0 0 0 0 0.231373 0 0 0 0 0.584314 0 0 0 1 0"/><feBlend in2="effect2_innerShadow_18_20100" result="effect3_innerShadow_18_20100"/><feColorMatrix in="SourceAlpha" values="0 0 0 0 0 0 0 0 0 0 0 0 0 0 0 0 0 0 127 0" result="hardAlpha"/><feOffset dx=".4"/><feGaussianBlur stdDeviation=".2"/><feComposite in2="hardAlpha" operator="arithmetic" k2="-1" k3="1"/><feColorMatrix values="0 0 0 0 0.313726 0 0 0 0 0.262745 0 0 0 0 0.466667 0 0 0 1 0"/><feBlend in2="effect3_innerShadow_18_20100" result="effect4_innerShadow_18_20100"/></filter><filter id="b" x="1.954" y="9.391" width="6.374" height="13.219" filterUnits="userSpaceOnUse" color-interpolation-filters="sRGB"><feFlood flood-opacity="0" result="BackgroundImageFix"/><feBlend in="SourceGraphic" in2="BackgroundImageFix" result="shape"/><feGaussianBlur stdDeviation=".15" result="effect1_foregroundBlur_18_20100"/></filter><filter id="d" x="23.734" y="9.391" width="6.389" height="13.219" filterUnits="userSpaceOnUse" color-interpolation-filters="sRGB"><feFlood flood-opacity="0" result="BackgroundImageFix"/><feBlend in="SourceGraphic" in2="BackgroundImageFix" result="shape"/><feGaussianBlur stdDeviation=".15" result="effect1_foregroundBlur_18_20100"/></filter><filter id="f" x="9.32" y="9.391" width="13.359" height="13.219" filterUnits="userSpaceOnUse" color-interpolation-filters="sRGB"><feFlood flood-opacity="0" result="BackgroundImageFix"/><feBlend in="SourceGraphic" in2="BackgroundImageFix" result="shape"/><feGaussianBlur stdDeviation=".15" result="effect1_foregroundBlur_18_20100"/></filter><filter id="h" x="24.359" y="10.016" width="6.609" height="11.969" filterUnits="userSpaceOnUse" color-interpolation-filters="sRGB"><feFlood flood-opacity="0" result="BackgroundImageFix"/><feBlend in="SourceGraphic" in2="BackgroundImageFix" result="shape"/><feColorMatrix in="SourceAlpha" values="0 0 0 0 0 0 0 0 0 0 0 0 0 0 0 0 0 0 127 0" result="hardAlpha"/><feOffset dx="1"/><feGaussianBlur stdDeviation="1.5"/><feComposite in2="hardAlpha" operator="arithmetic" k2="-1" k3="1"/><feColorMatrix values="0 0 0 0 0.321569 0 0 0 0 0.615686 0 0 0 0 0.764706 0 0 0 1 0"/><feBlend in2="shape" result="effect1_innerShadow_18_20100"/></filter><filter id="j" x="9.945" y="10.016" width="12.109" height="11.969" filterUnits="userSpaceOnUse" color-interpolation-filters="sRGB"><feFlood flood-opacity="0" result="BackgroundImageFix"/><feBlend in="SourceGraphic" in2="BackgroundImageFix" result="shape"/><feColorMatrix in="SourceAlpha" values="0 0 0 0 0 0 0 0 0 0 0 0 0 0 0 0 0 0 127 0" result="hardAlpha"/><feOffset/><feGaussianBlur stdDeviation="2"/><feComposite in2="hardAlpha" operator="arithmetic" k2="-1" k3="1"/><feColorMatrix values="0 0 0 0 0.321569 0 0 0 0 0.615686 0 0 0 0 0.764706 0 0 0 1 0"/><feBlend in2="shape" result="effect1_innerShadow_18_20100"/></filter><filter id="k" x="1.094" y="10.016" width="6.609" height="11.969" filterUnits="userSpaceOnUse" color-interpolation-filters="sRGB"><feFlood flood-opacity="0" result="BackgroundImageFix"/><feBlend in="SourceGraphic" in2="BackgroundImageFix" result="shape"/><feColorMatrix in="SourceAlpha" values="0 0 0 0 0 0 0 0 0 0 0 0 0 0 0 0 0 0 127 0" result="hardAlpha"/><feOffset dx="-1"/><feGaussianBlur stdDeviation="1.5"/><feComposite in2="hardAlpha" operator="arithmetic" k2="-1" k3="1"/><feColorMatrix values="0 0 0 0 0.321569 0 0 0 0 0.615686 0 0 0 0 0.764706 0 0 0 1 0"/><feBlend in2="shape" result="effect1_innerShadow_18_20100"/></filter><filter id="l" x="3.512" y="5.958" width="3.147" height="3.147" filterUnits="userSpaceOnUse" color-interpolation-filters="sRGB"><feFlood flood-opacity="0" result="BackgroundImageFix"/><feBlend in="SourceGraphic" in2="BackgroundImageFix" result="shape"/><feGaussianBlur stdDeviation=".125" result="effect1_foregroundBlur_18_20100"/></filter><filter id="n" x="3.862" y="6.308" width="2.447" height="2.447" filterUnits="userSpaceOnUse" color-interpolation-filters="sRGB"><feFlood flood-opacity="0" result="BackgroundImageFix"/><feBlend in="SourceGraphic" in2="BackgroundImageFix" result="shape"/><feGaussianBlur stdDeviation=".075" result="effect1_foregroundBlur_18_20100"/></filter><filter id="o" x="8.981" y="5.958" width="3.147" height="3.147" filterUnits="userSpaceOnUse" color-interpolation-filters="sRGB"><feFlood flood-opacity="0" result="BackgroundImageFix"/><feBlend in="SourceGraphic" in2="BackgroundImageFix" result="shape"/><feGaussianBlur stdDeviation=".125" result="effect1_foregroundBlur_18_20100"/></filter><filter id="q" x="9.331" y="6.308" width="2.447" height="2.447" filterUnits="userSpaceOnUse" color-interpolation-filters="sRGB"><feFlood flood-opacity="0" result="BackgroundImageFix"/><feBlend in="SourceGraphic" in2="BackgroundImageFix" result="shape"/><feGaussianBlur stdDeviation=".075" result="effect1_foregroundBlur_18_20100"/></filter><filter id="r" x="14.458" y="5.958" width="3.147" height="3.147" filterUnits="userSpaceOnUse" color-interpolation-filters="sRGB"><feFlood flood-opacity="0" result="BackgroundImageFix"/><feBlend in="SourceGraphic" in2="BackgroundImageFix" result="shape"/><feGaussianBlur stdDeviation=".125" result="effect1_foregroundBlur_18_20100"/></filter><filter id="t" x="14.808" y="6.308" width="2.447" height="2.447" filterUnits="userSpaceOnUse" color-interpolation-filters="sRGB"><feFlood flood-opacity="0" result="BackgroundImageFix"/><feBlend in="SourceGraphic" in2="BackgroundImageFix" result="shape"/><feGaussianBlur stdDeviation=".075" result="effect1_foregroundBlur_18_20100"/></filter><filter id="u" x="19.919" y="5.958" width="3.147" height="3.147" filterUnits="userSpaceOnUse" color-interpolation-filters="sRGB"><feFlood flood-opacity="0" result="BackgroundImageFix"/><feBlend in="SourceGraphic" in2="BackgroundImageFix" result="shape"/><feGaussianBlur stdDeviation=".125" result="effect1_foregroundBlur_18_20100"/></filter><filter id="w" x="20.269" y="6.308" width="2.447" height="2.447" filterUnits="userSpaceOnUse" color-interpolation-filters="sRGB"><feFlood flood-opacity="0" result="BackgroundImageFix"/><feBlend in="SourceGraphic" in2="BackgroundImageFix" result="shape"/><feGaussianBlur stdDeviation=".075" result="effect1_foregroundBlur_18_20100"/></filter><filter id="x" x="25.387" y="5.958" width="3.147" height="3.147" filterUnits="userSpaceOnUse" color-interpolation-filters="sRGB"><feFlood flood-opacity="0" result="BackgroundImageFix"/><feBlend in="SourceGraphic" in2="BackgroundImageFix" result="shape"/><feGaussianBlur stdDeviation=".125" result="effect1_foregroundBlur_18_20100"/></filter><filter id="z" x="25.738" y="6.308" width="2.447" height="2.447" filterUnits="userSpaceOnUse" color-interpolation-filters="sRGB"><feFlood flood-opacity="0" result="BackgroundImageFix"/><feBlend in="SourceGraphic" in2="BackgroundImageFix" result="shape"/><feGaussianBlur stdDeviation=".075" result="effect1_foregroundBlur_18_20100"/></filter><filter id="A" x="3.512" y="22.895" width="3.147" height="3.147" filterUnits="userSpaceOnUse" color-interpolation-filters="sRGB"><feFlood flood-opacity="0" result="BackgroundImageFix"/><feBlend in="SourceGraphic" in2="BackgroundImageFix" result="shape"/><feGaussianBlur stdDeviation=".125" result="effect1_foregroundBlur_18_20100"/></filter><filter id="C" x="8.981" y="22.895" width="3.147" height="3.147" filterUnits="userSpaceOnUse" color-interpolation-filters="sRGB"><feFlood flood-opacity="0" result="BackgroundImageFix"/><feBlend in="SourceGraphic" in2="BackgroundImageFix" result="shape"/><feGaussianBlur stdDeviation=".125" result="effect1_foregroundBlur_18_20100"/></filter><filter id="E" x="14.45" y="22.895" width="3.147" height="3.147" filterUnits="userSpaceOnUse" color-interpolation-filters="sRGB"><feFlood flood-opacity="0" result="BackgroundImageFix"/><feBlend in="SourceGraphic" in2="BackgroundImageFix" result="shape"/><feGaussianBlur stdDeviation=".125" result="effect1_foregroundBlur_18_20100"/></filter><filter id="G" x="19.919" y="22.895" width="3.147" height="3.147" filterUnits="userSpaceOnUse" color-interpolation-filters="sRGB"><feFlood flood-opacity="0" result="BackgroundImageFix"/><feBlend in="SourceGraphic" in2="BackgroundImageFix" result="shape"/><feGaussianBlur stdDeviation=".125" result="effect1_foregroundBlur_18_20100"/></filter><filter id="I" x="25.387" y="22.895" width="3.147" height="3.147" filterUnits="userSpaceOnUse" color-interpolation-filters="sRGB"><feFlood flood-opacity="0" result="BackgroundImageFix"/><feBlend in="SourceGraphic" in2="BackgroundImageFix" result="shape"/><feGaussianBlur stdDeviation=".125" result="effect1_foregroundBlur_18_20100"/></filter><filter id="K" x="3.862" y="23.245" width="2.447" height="2.447" filterUnits="userSpaceOnUse" color-interpolation-filters="sRGB"><feFlood flood-opacity="0" result="BackgroundImageFix"/><feBlend in="SourceGraphic" in2="BackgroundImageFix" result="shape"/><feGaussianBlur stdDeviation=".075" result="effect1_foregroundBlur_18_20100"/></filter><filter id="L" x="9.331" y="23.245" width="2.447" height="2.447" filterUnits="userSpaceOnUse" color-interpolation-filters="sRGB"><feFlood flood-opacity="0" result="BackgroundImageFix"/><feBlend in="SourceGraphic" in2="BackgroundImageFix" result="shape"/><feGaussianBlur stdDeviation=".075" result="effect1_foregroundBlur_18_20100"/></filter><filter id="M" x="14.808" y="23.245" width="2.447" height="2.447" filterUnits="userSpaceOnUse" color-interpolation-filters="sRGB"><feFlood flood-opacity="0" result="BackgroundImageFix"/><feBlend in="SourceGraphic" in2="BackgroundImageFix" result="shape"/><feGaussianBlur stdDeviation=".075" result="effect1_foregroundBlur_18_20100"/></filter><filter id="N" x="20.269" y="23.245" width="2.447" height="2.447" filterUnits="userSpaceOnUse" color-interpolation-filters="sRGB"><feFlood flood-opacity="0" result="BackgroundImageFix"/><feBlend in="SourceGraphic" in2="BackgroundImageFix" result="shape"/><feGaussianBlur stdDeviation=".075" result="effect1_foregroundBlur_18_20100"/></filter><filter id="O" x="25.738" y="23.245" width="2.447" height="2.447" filterUnits="userSpaceOnUse" color-interpolation-filters="sRGB"><feFlood flood-opacity="0" result="BackgroundImageFix"/><feBlend in="SourceGraphic" in2="BackgroundImageFix" result="shape"/><feGaussianBlur stdDeviation=".075" result="effect1_foregroundBlur_18_20100"/></filter><linearGradient id="c" x1="2.769" y1="21.432" x2="6.134" y2="21.199" gradientUnits="userSpaceOnUse"><stop stop-color="#564D7C"/><stop offset="1" stop-color="#564D7C" stop-opacity="0"/></linearGradient><linearGradient id="e" x1="24.55" y1="21.432" x2="25.8" y2="21.331" gradientUnits="userSpaceOnUse"><stop stop-color="#7D769C"/><stop offset="1" stop-color="#7D769C" stop-opacity="0"/></linearGradient><linearGradient id="g" x1="10.395" y1="21.432" x2="13.255" y2="20.887" gradientUnits="userSpaceOnUse"><stop stop-color="#7D769C"/><stop offset="1" stop-color="#7D769C" stop-opacity="0"/></linearGradient><linearGradient id="i" x1="30.813" y1="21.984" x2="26.688" y2="21.984" gradientUnits="userSpaceOnUse"><stop stop-color="#87CDED"/><stop offset="1" stop-color="#87CDED" stop-opacity="0"/></linearGradient><linearGradient id="m" x1="3.906" y1="8.555" x2="4.813" y2="8.453" gradientUnits="userSpaceOnUse"><stop stop-color="#7A7294"/><stop offset="1" stop-color="#7A7294" stop-opacity="0"/></linearGradient><linearGradient id="p" x1="9.375" y1="8.555" x2="10.281" y2="8.453" gradientUnits="userSpaceOnUse"><stop stop-color="#7A7294"/><stop offset="1" stop-color="#7A7294" stop-opacity="0"/></linearGradient><linearGradient id="s" x1="14.852" y1="8.555" x2="15.758" y2="8.453" gradientUnits="userSpaceOnUse"><stop stop-color="#7A7294"/><stop offset="1" stop-color="#7A7294" stop-opacity="0"/></linearGradient><linearGradient id="v" x1="20.313" y1="8.555" x2="21.219" y2="8.453" gradientUnits="userSpaceOnUse"><stop stop-color="#7A7294"/><stop offset="1" stop-color="#7A7294" stop-opacity="0"/></linearGradient><linearGradient id="y" x1="25.781" y1="8.555" x2="26.688" y2="8.453" gradientUnits="userSpaceOnUse"><stop stop-color="#7A7294"/><stop offset="1" stop-color="#7A7294" stop-opacity="0"/></linearGradient><linearGradient id="B" x1="3.906" y1="25.492" x2="4.813" y2="25.391" gradientUnits="userSpaceOnUse"><stop stop-color="#7A7294"/><stop offset="1" stop-color="#7A7294" stop-opacity="0"/></linearGradient><linearGradient id="D" x1="9.375" y1="25.492" x2="10.281" y2="25.391" gradientUnits="userSpaceOnUse"><stop stop-color="#7A7294"/><stop offset="1" stop-color="#7A7294" stop-opacity="0"/></linearGradient><linearGradient id="F" x1="14.844" y1="25.492" x2="15.75" y2="25.391" gradientUnits="userSpaceOnUse"><stop stop-color="#7A7294"/><stop offset="1" stop-color="#7A7294" stop-opacity="0"/></linearGradient><linearGradient id="H" x1="20.313" y1="25.492" x2="21.219" y2="25.391" gradientUnits="userSpaceOnUse"><stop stop-color="#7A7294"/><stop offset="1" stop-color="#7A7294" stop-opacity="0"/></linearGradient><linearGradient id="J" x1="25.781" y1="25.492" x2="26.688" y2="25.391" gradientUnits="userSpaceOnUse"><stop stop-color="#7A7294"/><stop offset="1" stop-color="#7A7294" stop-opacity="0"/></linearGradient></defs></svg>