<svg xmlns="http://www.w3.org/2000/svg" fill="none" viewBox="0 0 32 32"><path fill="#D1344C" d="M13.88 29.84v-8.19c-1.56.6-3.65-.16-3.76-2.36-.01-.1-.01-.2-.01-.31V6.2c0-.138-.112-.252-.25-.236-1.123.124-2 1.08-2 2.236v4.44c0 .17-.14.31-.31.31s-.31-.14-.31-.31V8.2a2.24 2.24 0 0 0-1.99-2.236C5.112 5.948 5 6.062 5 6.2v12.68c0 7.21 3.99 10.43 9.23 11-.11-.01-.23-.02-.35-.04"/><path fill="url(#fried-shrimp_svg__a)" d="M13.88 29.84v-8.19c-1.56.6-3.65-.16-3.76-2.36-.01-.1-.01-.2-.01-.31V6.2c0-.138-.112-.252-.25-.236-1.123.124-2 1.08-2 2.236v4.44c0 .17-.14.31-.31.31s-.31-.14-.31-.31V8.2a2.24 2.24 0 0 0-1.99-2.236C5.112 5.948 5 6.062 5 6.2v12.68c0 7.21 3.99 10.43 9.23 11-.11-.01-.23-.02-.35-.04"/><path fill="url(#fried-shrimp_svg__b)" d="m14.29 29.89.35.03c-.11 0-.23-.01-.35-.03"/><path fill="url(#fried-shrimp_svg__c)" d="M14.23 29.89c.02 0 .04 0 .06.01-.02-.01-.04-.01-.06-.01"/><path fill="#F89331" d="M18.59 2.95a7.08 7.08 0 0 0-7.08 7.08v1.1a5.97 5.97 0 0 0 2.81 5.07c.79.49 1.25 1.37 1.25 2.3v.63c0 1.32-.74 2.17-1.68 2.53v8.2c.67.09 1.37.13 2.08.14 6.07.02 11.02-4.92 11.02-10.99v-7.66c-.01-4.64-3.77-8.4-8.4-8.4"/><path fill="url(#fried-shrimp_svg__d)" d="M18.59 2.95a7.08 7.08 0 0 0-7.08 7.08v1.1a5.97 5.97 0 0 0 2.81 5.07c.79.49 1.25 1.37 1.25 2.3v.63c0 1.32-.74 2.17-1.68 2.53v8.2c.67.09 1.37.13 2.08.14 6.07.02 11.02-4.92 11.02-10.99v-7.66c-.01-4.64-3.77-8.4-8.4-8.4"/><path fill="url(#fried-shrimp_svg__e)" d="M18.59 2.95a7.08 7.08 0 0 0-7.08 7.08v1.1a5.97 5.97 0 0 0 2.81 5.07c.79.49 1.25 1.37 1.25 2.3v.63c0 1.32-.74 2.17-1.68 2.53v8.2c.67.09 1.37.13 2.08.14 6.07.02 11.02-4.92 11.02-10.99v-7.66c-.01-4.64-3.77-8.4-8.4-8.4"/><path fill="url(#fried-shrimp_svg__f)" d="M18.59 2.95a7.08 7.08 0 0 0-7.08 7.08v1.1a5.97 5.97 0 0 0 2.81 5.07c.79.49 1.25 1.37 1.25 2.3v.63c0 1.32-.74 2.17-1.68 2.53v8.2c.67.09 1.37.13 2.08.14 6.07.02 11.02-4.92 11.02-10.99v-7.66c-.01-4.64-3.77-8.4-8.4-8.4"/><path fill="url(#fried-shrimp_svg__g)" d="M18.59 2.95a7.08 7.08 0 0 0-7.08 7.08v1.1a5.97 5.97 0 0 0 2.81 5.07c.79.49 1.25 1.37 1.25 2.3v.63c0 1.32-.74 2.17-1.68 2.53v8.2c.67.09 1.37.13 2.08.14 6.07.02 11.02-4.92 11.02-10.99v-7.66c-.01-4.64-3.77-8.4-8.4-8.4"/><path fill="url(#fried-shrimp_svg__h)" d="M18.59 2.95a7.08 7.08 0 0 0-7.08 7.08v1.1a5.97 5.97 0 0 0 2.81 5.07c.79.49 1.25 1.37 1.25 2.3v.63c0 1.32-.74 2.17-1.68 2.53v8.2c.67.09 1.37.13 2.08.14 6.07.02 11.02-4.92 11.02-10.99v-7.66c-.01-4.64-3.77-8.4-8.4-8.4"/><path fill="url(#fried-shrimp_svg__i)" d="M18.59 2.95a7.08 7.08 0 0 0-7.08 7.08v1.1a5.97 5.97 0 0 0 2.81 5.07c.79.49 1.25 1.37 1.25 2.3v.63c0 1.32-.74 2.17-1.68 2.53v8.2c.67.09 1.37.13 2.08.14 6.07.02 11.02-4.92 11.02-10.99v-7.66c-.01-4.64-3.77-8.4-8.4-8.4"/><path fill="url(#fried-shrimp_svg__j)" d="M14.1 12.78a.88.88 0 1 0 0-1.76.88.88 0 0 0 0 1.76"/><path fill="url(#fried-shrimp_svg__k)" d="M17.79 13.26a1.12 1.12 0 1 0 0-2.24 1.12 1.12 0 0 0 0 2.24"/><path fill="url(#fried-shrimp_svg__l)" d="M15.81 10.02a1.71 1.71 0 1 0 0-3.42 1.71 1.71 0 0 0 0 3.42"/><g filter="url(#fried-shrimp_svg__m)"><path fill="#FF876D" d="M8.813 14.25a1 1 0 1 0-2 0zm3.59 10.71.993.128.254-1.984-.991-.127zm-4.278-5.21-.985.17zm-1.312-5.5c0 1.544-.003 3.758.327 5.67l1.97-.34c-.295-1.713-.297-3.75-.297-5.33zm.327 5.67c.228 1.327.508 2.56 1.353 3.467.866.93 2.151 1.348 3.91 1.574l.256-1.984c-1.647-.212-2.332-.556-2.702-.954-.391-.42-.611-1.077-.847-2.443z"/></g><g filter="url(#fried-shrimp_svg__n)"><path fill="url(#fried-shrimp_svg__o)" d="M8.016 7.953c0-1.125 1.395-1.729 1.937-1.906v7.11L8.188 15.28h-1.22L5.173 13.25V6.11c1.225 0 1.927 1.197 1.937 1.843v4.633c0 .125-.021.57.454.57.474 0 .388-.445.398-.57 0-1.115.055-3.508.055-4.633"/></g><g filter="url(#fried-shrimp_svg__p)"><path stroke="url(#fried-shrimp_svg__q)" stroke-width=".3" d="m6.969 12.89-1.64.376"/></g><g filter="url(#fried-shrimp_svg__r)"><path stroke="url(#fried-shrimp_svg__s)" stroke-width=".3" d="m6.969 12.89-1.633.172"/></g><g filter="url(#fried-shrimp_svg__t)"><path stroke="url(#fried-shrimp_svg__u)" stroke-width=".3" d="m8.063 12.89 1.546.344"/></g><g filter="url(#fried-shrimp_svg__v)"><path stroke="url(#fried-shrimp_svg__w)" stroke-width=".25" d="M5.281 6.188c.354.046 1.163.35 1.563 1.187"/></g><g filter="url(#fried-shrimp_svg__x)"><path stroke="url(#fried-shrimp_svg__y)" stroke-width=".25" d="M9.953 6.188c-.354.046-1.162.35-1.562 1.187"/></g><defs><radialGradient id="fried-shrimp_svg__a" cx="0" cy="0" r="1" gradientTransform="rotate(90.924 .229 13.019)scale(15.502 9.3758)" gradientUnits="userSpaceOnUse"><stop offset=".586" stop-color="#FF5C1E"/><stop offset=".86" stop-color="#FF4A3B"/><stop offset="1" stop-color="#D8314E"/></radialGradient><radialGradient id="fried-shrimp_svg__d" cx="0" cy="0" r="1" gradientTransform="matrix(.375 12.24996 -12.27945 .3759 17.25 8.2)" gradientUnits="userSpaceOnUse"><stop offset=".211" stop-color="#FFD437"/><stop offset=".597" stop-color="#FFA53A"/><stop offset="1" stop-color="#D67D35" stop-opacity="0"/></radialGradient><radialGradient id="fried-shrimp_svg__e" cx="0" cy="0" r="1" gradientTransform="matrix(17.625 10.8125 -7.11731 11.60163 26.625 15.063)" gradientUnits="userSpaceOnUse"><stop offset=".741" stop-color="#B79C31" stop-opacity="0"/><stop offset=".849" stop-color="#BAA332"/></radialGradient><radialGradient id="fried-shrimp_svg__f" cx="0" cy="0" r="1" gradientTransform="rotate(-8.022 179.004 -79.71)scale(12.1817 6.97125)" gradientUnits="userSpaceOnUse"><stop offset=".149" stop-color="#FFE24F"/><stop offset=".559" stop-color="#FFB535"/><stop offset=".787" stop-color="#F8953F"/><stop offset="1" stop-color="#F38D2B" stop-opacity="0"/></radialGradient><radialGradient id="fried-shrimp_svg__g" cx="0" cy="0" r="1" gradientTransform="rotate(82.51 2.21 13.947)scale(31.645 21.0895)" gradientUnits="userSpaceOnUse"><stop offset=".528" stop-color="#F79E52" stop-opacity="0"/><stop offset=".606" stop-color="#D27040"/><stop offset=".633" stop-color="#C76057"/></radialGradient><radialGradient id="fried-shrimp_svg__h" cx="0" cy="0" r="1" gradientTransform="matrix(.56252 44.31253 -11.85824 .15053 18.688 11.75)" gradientUnits="userSpaceOnUse"><stop offset=".568" stop-color="#C07A47" stop-opacity="0"/><stop offset=".739" stop-color="#D37D35"/></radialGradient><radialGradient id="fried-shrimp_svg__i" cx="0" cy="0" r="1" gradientTransform="matrix(.125 3.8125 -7.1105 .23313 12.375 17.375)" gradientUnits="userSpaceOnUse"><stop stop-color="#C26B57"/><stop offset="1" stop-color="#C16959" stop-opacity="0"/></radialGradient><radialGradient id="fried-shrimp_svg__j" cx="0" cy="0" r="1" gradientTransform="rotate(130.266 4.649 9.178)scale(1.59552)" gradientUnits="userSpaceOnUse"><stop offset=".153" stop-color="#EC7931"/><stop offset="1" stop-color="#E16A28"/></radialGradient><radialGradient id="fried-shrimp_svg__k" cx="0" cy="0" r="1" gradientTransform="rotate(129.009 6.462 10.177)scale(2.18449)" gradientUnits="userSpaceOnUse"><stop stop-color="#FF8B44"/><stop offset="1" stop-color="#FD7535"/></radialGradient><radialGradient id="fried-shrimp_svg__l" cx="0" cy="0" r="1" gradientTransform="rotate(136.736 6.988 7.183)scale(2.91815)" gradientUnits="userSpaceOnUse"><stop offset=".203" stop-color="#FF9742"/><stop offset="1" stop-color="#FF8028"/></radialGradient><radialGradient id="fried-shrimp_svg__w" cx="0" cy="0" r="1" gradientTransform="rotate(50.755 -4.12 9.177)scale(1.43248 1.88484)" gradientUnits="userSpaceOnUse"><stop stop-color="#FFA36A"/><stop offset="1" stop-color="#FFA972" stop-opacity="0"/></radialGradient><radialGradient id="fried-shrimp_svg__y" cx="0" cy="0" r="1" gradientTransform="rotate(129.245 3.264 5.568)scale(1.43248 1.88484)" gradientUnits="userSpaceOnUse"><stop stop-color="#FFB374"/><stop offset="1" stop-color="#FFA972" stop-opacity="0"/></radialGradient><filter id="fried-shrimp_svg__m" width="9.838" height="14.838" x="5.313" y="11.75" color-interpolation-filters="sRGB" filterUnits="userSpaceOnUse"><feFlood flood-opacity="0" result="BackgroundImageFix"/><feBlend in="SourceGraphic" in2="BackgroundImageFix" result="shape"/><feGaussianBlur result="effect1_foregroundBlur_18_30826" stdDeviation=".75"/></filter><filter id="fried-shrimp_svg__n" width="5.381" height="9.834" x="4.872" y="5.747" color-interpolation-filters="sRGB" filterUnits="userSpaceOnUse"><feFlood flood-opacity="0" result="BackgroundImageFix"/><feBlend in="SourceGraphic" in2="BackgroundImageFix" result="shape"/><feGaussianBlur result="effect1_foregroundBlur_18_30826" stdDeviation=".15"/></filter><filter id="fried-shrimp_svg__p" width="2.708" height="1.667" x="4.795" y="12.244" color-interpolation-filters="sRGB" filterUnits="userSpaceOnUse"><feFlood flood-opacity="0" result="BackgroundImageFix"/><feBlend in="SourceGraphic" in2="BackgroundImageFix" result="shape"/><feGaussianBlur result="effect1_foregroundBlur_18_30826" stdDeviation=".25"/></filter><filter id="fried-shrimp_svg__r" width="2.664" height="1.47" x="4.82" y="12.242" color-interpolation-filters="sRGB" filterUnits="userSpaceOnUse"><feFlood flood-opacity="0" result="BackgroundImageFix"/><feBlend in="SourceGraphic" in2="BackgroundImageFix" result="shape"/><feGaussianBlur result="effect1_foregroundBlur_18_30826" stdDeviation=".25"/></filter><filter id="fried-shrimp_svg__t" width="2.612" height="1.637" x="7.53" y="12.244" color-interpolation-filters="sRGB" filterUnits="userSpaceOnUse"><feFlood flood-opacity="0" result="BackgroundImageFix"/><feBlend in="SourceGraphic" in2="BackgroundImageFix" result="shape"/><feGaussianBlur result="effect1_foregroundBlur_18_30826" stdDeviation=".25"/></filter><filter id="fried-shrimp_svg__v" width="2.192" height="1.865" x="5.015" y="5.814" color-interpolation-filters="sRGB" filterUnits="userSpaceOnUse"><feFlood flood-opacity="0" result="BackgroundImageFix"/><feBlend in="SourceGraphic" in2="BackgroundImageFix" result="shape"/><feGaussianBlur result="effect1_foregroundBlur_18_30826" stdDeviation=".125"/></filter><filter id="fried-shrimp_svg__x" width="2.192" height="1.865" x="8.028" y="5.814" color-interpolation-filters="sRGB" filterUnits="userSpaceOnUse"><feFlood flood-opacity="0" result="BackgroundImageFix"/><feBlend in="SourceGraphic" in2="BackgroundImageFix" result="shape"/><feGaussianBlur result="effect1_foregroundBlur_18_30826" stdDeviation=".125"/></filter><linearGradient id="fried-shrimp_svg__b" x1="14.432" x2="14.506" y1="29.974" y2="29.846" gradientUnits="userSpaceOnUse"><stop stop-color="#FF2C00"/><stop offset="1" stop-color="#FF8C00"/></linearGradient><linearGradient id="fried-shrimp_svg__c" x1="14.257" x2="14.269" y1="29.901" y2="29.88" gradientUnits="userSpaceOnUse"><stop stop-color="#FF2C00"/><stop offset="1" stop-color="#FF8C00"/></linearGradient><linearGradient id="fried-shrimp_svg__o" x1="10.375" x2="7.531" y1="7.25" y2="15.281" gradientUnits="userSpaceOnUse"><stop offset=".705" stop-color="#FF8B52"/><stop offset="1" stop-color="#FF8B52" stop-opacity="0"/></linearGradient><linearGradient id="fried-shrimp_svg__q" x1="6.969" x2="4.734" y1="12.891" y2="13.266" gradientUnits="userSpaceOnUse"><stop offset=".217" stop-color="#FF9B6F"/><stop offset="1" stop-color="#FF986D" stop-opacity="0"/></linearGradient><linearGradient id="fried-shrimp_svg__s" x1="6.969" x2="4.734" y1="12.891" y2="13.266" gradientUnits="userSpaceOnUse"><stop offset=".217" stop-color="#FF9B6F"/><stop offset="1" stop-color="#FF986D" stop-opacity="0"/></linearGradient><linearGradient id="fried-shrimp_svg__u" x1="8.063" x2="10.297" y1="12.891" y2="13.266" gradientUnits="userSpaceOnUse"><stop offset=".217" stop-color="#FF9B6F"/><stop offset="1" stop-color="#FF986D" stop-opacity="0"/></linearGradient></defs></svg>