<svg width="32" height="32" fill="none" xmlns="http://www.w3.org/2000/svg"><path d="M16.169 7.505V4.422h-3.047a1.05 1.05 0 0 0-1.044 1.064V6.85c0 2.31-.738 4.494-2.487 5.958l-3.776 3.174c-4.578 3.857-1.9 11.424 4.035 11.424h5.426s.893-14.042.893-19.9Z" fill="#B8897D"/><path d="M16.169 7.505V4.422h-3.047a1.05 1.05 0 0 0-1.044 1.064V6.85c0 2.31-.738 4.494-2.487 5.958l-3.776 3.174c-4.578 3.857-1.9 11.424 4.035 11.424h5.426s.893-14.042.893-19.9Z" fill="url(#a)"/><path d="M16.169 7.505V4.422h-3.047a1.05 1.05 0 0 0-1.044 1.064V6.85c0 2.31-.738 4.494-2.487 5.958l-3.776 3.174c-4.578 3.857-1.9 11.424 4.035 11.424h5.426s.893-14.042.893-19.9Z" fill="url(#b)"/><path d="M16.169 7.505V4.422h-3.047a1.05 1.05 0 0 0-1.044 1.064V6.85c0 2.31-.738 4.494-2.487 5.958l-3.776 3.174c-4.578 3.857-1.9 11.424 4.035 11.424h5.426s.893-14.042.893-19.9Z" fill="url(#c)"/><path d="M16.169 7.505V4.422h-3.047a1.05 1.05 0 0 0-1.044 1.064V6.85c0 2.31-.738 4.494-2.487 5.958l-3.776 3.174c-4.578 3.857-1.9 11.424 4.035 11.424h5.426s.893-14.042.893-19.9Z" fill="url(#d)"/><g filter="url(#e)"><path d="M14.9 5.778c.004-.277-.232-.5-.478-.372-.21.111-.39.303-.39.605 0 2.151.312 5.514-.688 7.489-1.145 2.26-3.069 2.384-4.157 4.906-1.468 3.407 0 8.469 3.782 8.469C14.58 23.145 14.86 8.653 14.9 5.778Z" fill="url(#f)"/></g><path d="M15.803 4.422h3.059c.58 0 1.044.473 1.044 1.064V6.85c0 2.31.726 4.494 2.475 5.958l3.775 3.174c4.579 3.857 1.901 11.424-4.034 11.424h-5.427s-.892-15.244-.892-22.984Z" fill="#FFC6AD"/><path d="M15.803 4.422h3.059c.58 0 1.044.473 1.044 1.064V6.85c0 2.31.726 4.494 2.475 5.958l3.775 3.174c4.579 3.857 1.901 11.424-4.034 11.424h-5.427s-.892-15.244-.892-22.984Z" fill="url(#g)"/><path d="M15.803 4.422h3.059c.58 0 1.044.473 1.044 1.064V6.85c0 2.31.726 4.494 2.475 5.958l3.775 3.174c4.579 3.857 1.901 11.424-4.034 11.424h-5.427s-.892-15.244-.892-22.984Z" fill="url(#h)"/><path d="M15.803 4.422h3.059c.58 0 1.044.473 1.044 1.064V6.85c0 2.31.726 4.494 2.475 5.958l3.775 3.174c4.579 3.857 1.901 11.424-4.034 11.424h-5.427s-.892-15.244-.892-22.984Z" fill="url(#i)"/><path d="M15.803 4.422h3.059c.58 0 1.044.473 1.044 1.064V6.85c0 2.31.726 4.494 2.475 5.958l3.775 3.174c4.579 3.857 1.901 11.424-4.034 11.424h-5.427s-.892-15.244-.892-22.984Z" fill="url(#j)"/><g filter="url(#k)"><path d="M18.332 6.156c.013-.45-.32-.789-.645-.98-.25-.147-.483.069-.464.357l1.412 21.342c4.04 0 7.17-4.578 4.494-9.688-1.063-2.03-2.612-3.256-4.035-5.656-1.048-1.766-.817-3.433-.762-5.375Z" fill="url(#l)"/></g><path d="m17.625 7.572.046-2.641a.5.5 0 0 0-.5-.51h-2.384a.5.5 0 0 0-.499.53l.15 2.62c.025.722-.062 2.785-.735 4.117-1.145 2.265-2.413 3.138-3.828 5.5-2.031 3.39-.531 10.218 3.703 10.218h4.735c3.75 0 6.375-5.11 3.89-10.218-.987-2.03-2.538-3.1-3.86-5.5-.718-1.305-.757-3.178-.718-4.116Z" fill="url(#m)"/><path d="m17.625 7.572.046-2.641a.5.5 0 0 0-.5-.51h-2.384a.5.5 0 0 0-.499.53l.15 2.62c.025.722-.062 2.785-.735 4.117-1.145 2.265-2.413 3.138-3.828 5.5-2.031 3.39-.531 10.218 3.703 10.218h4.735c3.75 0 6.375-5.11 3.89-10.218-.987-2.03-2.538-3.1-3.86-5.5-.718-1.305-.757-3.178-.718-4.116Z" fill="url(#n)"/><path d="m17.625 7.572.046-2.641a.5.5 0 0 0-.5-.51h-2.384a.5.5 0 0 0-.499.53l.15 2.62c.025.722-.062 2.785-.735 4.117-1.145 2.265-2.413 3.138-3.828 5.5-2.031 3.39-.531 10.218 3.703 10.218h4.735c3.75 0 6.375-5.11 3.89-10.218-.987-2.03-2.538-3.1-3.86-5.5-.718-1.305-.757-3.178-.718-4.116Z" fill="url(#o)"/><path d="m17.625 7.572.046-2.641a.5.5 0 0 0-.5-.51h-2.384a.5.5 0 0 0-.499.53l.15 2.62c.025.722-.062 2.785-.735 4.117-1.145 2.265-2.413 3.138-3.828 5.5-2.031 3.39-.531 10.218 3.703 10.218h4.735c3.75 0 6.375-5.11 3.89-10.218-.987-2.03-2.538-3.1-3.86-5.5-.718-1.305-.757-3.178-.718-4.116Z" fill="url(#p)"/><path d="m17.625 7.572.046-2.641a.5.5 0 0 0-.5-.51h-2.384a.5.5 0 0 0-.499.53l.15 2.62c.025.722-.062 2.785-.735 4.117-1.145 2.265-2.413 3.138-3.828 5.5-2.031 3.39-.531 10.218 3.703 10.218h4.735c3.75 0 6.375-5.11 3.89-10.218-.987-2.03-2.538-3.1-3.86-5.5-.718-1.305-.757-3.178-.718-4.116Z" fill="url(#q)"/><path d="m17.625 7.572.046-2.641a.5.5 0 0 0-.5-.51h-2.384a.5.5 0 0 0-.499.53l.15 2.62c.025.722-.062 2.785-.735 4.117-1.145 2.265-2.413 3.138-3.828 5.5-2.031 3.39-.531 10.218 3.703 10.218h4.735c3.75 0 6.375-5.11 3.89-10.218-.987-2.03-2.538-3.1-3.86-5.5-.718-1.305-.757-3.178-.718-4.116Z" fill="url(#r)"/><path d="m17.625 7.572.046-2.641a.5.5 0 0 0-.5-.51h-2.384a.5.5 0 0 0-.499.53l.15 2.62c.025.722-.062 2.785-.735 4.117-1.145 2.265-2.413 3.138-3.828 5.5-2.031 3.39-.531 10.218 3.703 10.218h4.735c3.75 0 6.375-5.11 3.89-10.218-.987-2.03-2.538-3.1-3.86-5.5-.718-1.305-.757-3.178-.718-4.116Z" fill="url(#s)"/><path d="m17.625 7.572.046-2.641a.5.5 0 0 0-.5-.51h-2.384a.5.5 0 0 0-.499.53l.15 2.62c.025.722-.062 2.785-.735 4.117-1.145 2.265-2.413 3.138-3.828 5.5-2.031 3.39-.531 10.218 3.703 10.218h4.735c3.75 0 6.375-5.11 3.89-10.218-.987-2.03-2.538-3.1-3.86-5.5-.718-1.305-.757-3.178-.718-4.116Z" fill="url(#t)"/><g filter="url(#u)"><path d="M14.813 5.156c-.126-.2-.282-.208-.344-.187.25 3.406 0 4.656-.313 6.5.813-1.469.813-6.063.656-6.313Z" fill="url(#v)"/></g><g filter="url(#w)"><path fill="url(#x)" d="M15.469 5.047h1.281v5.609h-1.281z"/></g><defs><radialGradient id="b" cx="0" cy="0" r="1" gradientUnits="userSpaceOnUse" gradientTransform="matrix(-5.25 7.5 -4.75672 -3.3297 5.625 11.938)"><stop stop-color="#977666"/><stop offset=".649" stop-color="#765A4D" stop-opacity=".262"/><stop offset="1" stop-color="#6B5045" stop-opacity="0"/></radialGradient><radialGradient id="c" cx="0" cy="0" r="1" gradientUnits="userSpaceOnUse" gradientTransform="matrix(1.0625 4.75 -4.41573 .98773 9.125 21.938)"><stop stop-color="#B35889"/><stop offset=".903" stop-color="#B16B84" stop-opacity="0"/></radialGradient><radialGradient id="g" cx="0" cy="0" r="1" gradientUnits="userSpaceOnUse" gradientTransform="matrix(0 8.34374 -5.8125 0 26.5 19.063)"><stop stop-color="#FFEAD4"/><stop offset=".594" stop-color="#FFCAB0"/><stop offset="1" stop-color="#FFC7AE"/></radialGradient><radialGradient id="h" cx="0" cy="0" r="1" gradientUnits="userSpaceOnUse" gradientTransform="matrix(2.8125 8.875 -8.60337 2.72642 21.938 26.313)"><stop stop-color="#AF478A"/><stop offset=".265" stop-color="#BA558B"/><stop offset=".951" stop-color="#D17295" stop-opacity="0"/></radialGradient><radialGradient id="i" cx="0" cy="0" r="1" gradientUnits="userSpaceOnUse" gradientTransform="matrix(.8125 8.375 -6.27583 .60885 22.75 6.813)"><stop offset=".512" stop-color="#FFEED5"/><stop offset=".693" stop-color="#FFEBD4" stop-opacity="0"/></radialGradient><radialGradient id="m" cx="0" cy="0" r="1" gradientUnits="userSpaceOnUse" gradientTransform="rotate(167.546 10.252 10.668) scale(13.9111 18.2687)"><stop stop-color="#FFFEDC"/><stop offset=".39" stop-color="#EDC3B2"/><stop offset=".792" stop-color="#B6A18C"/><stop offset="1" stop-color="#B08886"/></radialGradient><radialGradient id="n" cx="0" cy="0" r="1" gradientUnits="userSpaceOnUse" gradientTransform="matrix(3.75001 11.375 -9.86913 3.25357 14.188 26.75)"><stop offset=".075" stop-color="#B46490"/><stop offset=".501" stop-color="#B46391" stop-opacity=".342"/><stop offset=".83" stop-color="#B46292" stop-opacity="0"/></radialGradient><radialGradient id="o" cx="0" cy="0" r="1" gradientUnits="userSpaceOnUse" gradientTransform="rotate(88.161 5.34 12.65) scale(6.81601 2.04923)"><stop offset=".309" stop-color="#FFF8DE"/><stop offset=".692" stop-color="#DEC1B8"/><stop offset="1" stop-color="#D6BAB1" stop-opacity="0"/></radialGradient><radialGradient id="p" cx="0" cy="0" r="1" gradientUnits="userSpaceOnUse" gradientTransform="rotate(110.556 1.855 8.872) scale(8.01 4.94789)"><stop stop-color="#A08E79"/><stop offset="1" stop-color="#9F8C79" stop-opacity="0"/></radialGradient><radialGradient id="q" cx="0" cy="0" r="1" gradientUnits="userSpaceOnUse" gradientTransform="matrix(1.5 3.25 -2.97653 1.37378 22 19.188)"><stop stop-color="#FFD"/><stop offset="1" stop-color="#FFDDC5" stop-opacity="0"/></radialGradient><radialGradient id="r" cx="0" cy="0" r="1" gradientUnits="userSpaceOnUse" gradientTransform="matrix(.625 9.9375 -6.00014 .37737 7.313 20.688)"><stop stop-color="#C39492"/><stop offset="1" stop-color="#B28683" stop-opacity="0"/></radialGradient><radialGradient id="s" cx="0" cy="0" r="1" gradientUnits="userSpaceOnUse" gradientTransform="matrix(0 1.5 -2.0599 0 16.078 3.844)"><stop stop-color="#C1B197"/><stop offset="1" stop-color="#DAC9AD" stop-opacity="0"/></radialGradient><radialGradient id="t" cx="0" cy="0" r="1" gradientUnits="userSpaceOnUse" gradientTransform="rotate(59.556 .428 25.2) scale(8.26443 5.10505)"><stop offset=".411" stop-color="#FCE4C1"/><stop offset="1" stop-color="#FFE6C3" stop-opacity="0"/></radialGradient><linearGradient id="a" x1="9.836" y1="4.422" x2="9.836" y2="27.406" gradientUnits="userSpaceOnUse"><stop stop-color="#B38780"/><stop offset=".433" stop-color="#B98C7D"/><stop offset=".77" stop-color="#C2888B"/><stop offset="1" stop-color="#B14C8B"/></linearGradient><linearGradient id="d" x1="11.188" y1="5.313" x2="12.094" y2="6.969" gradientUnits="userSpaceOnUse"><stop stop-color="#967666"/><stop offset=".387" stop-color="#957665" stop-opacity="0"/></linearGradient><linearGradient id="f" x1="11.591" y1="4.422" x2="11.591" y2="26.969" gradientUnits="userSpaceOnUse"><stop stop-color="#94676F"/><stop offset="1" stop-color="#A85284"/></linearGradient><linearGradient id="j" x1="22.136" y1="4.422" x2="22.136" y2="27.406" gradientUnits="userSpaceOnUse"><stop stop-color="#D1A690"/><stop offset=".02" stop-color="#CFA58F" stop-opacity="0"/></linearGradient><linearGradient id="l" x1="20.656" y1="5" x2="20.656" y2="26.875" gradientUnits="userSpaceOnUse"><stop stop-color="#D29C97"/><stop offset=".389" stop-color="#DCA996"/><stop offset=".694" stop-color="#DF999F"/><stop offset=".871" stop-color="#BB578C"/><stop offset="1" stop-color="#B9538A"/></linearGradient><linearGradient id="v" x1="14.525" y1="4.961" x2="14.525" y2="10.969" gradientUnits="userSpaceOnUse"><stop stop-color="#C2A9A3"/><stop offset=".758" stop-color="#C2ACA8"/><stop offset="1" stop-color="#C4C4C4" stop-opacity="0"/></linearGradient><linearGradient id="x" x1="16.109" y1="5.047" x2="16.109" y2="10.656" gradientUnits="userSpaceOnUse"><stop stop-color="#CDB0AB"/><stop offset="1" stop-color="#D6BEAF" stop-opacity="0"/></linearGradient><filter id="e" x="7.626" y="4.369" width="8.274" height="23.506" filterUnits="userSpaceOnUse" color-interpolation-filters="sRGB"><feFlood flood-opacity="0" result="BackgroundImageFix"/><feBlend in="SourceGraphic" in2="BackgroundImageFix" result="shape"/><feGaussianBlur stdDeviation=".5" result="effect1_foregroundBlur_18_30809"/></filter><filter id="k" x="16.222" y="4.129" width="8.903" height="23.746" filterUnits="userSpaceOnUse" color-interpolation-filters="sRGB"><feFlood flood-opacity="0" result="BackgroundImageFix"/><feBlend in="SourceGraphic" in2="BackgroundImageFix" result="shape"/><feGaussianBlur stdDeviation=".5" result="effect1_foregroundBlur_18_30809"/></filter><filter id="u" x="13.656" y="4.461" width="1.737" height="7.508" filterUnits="userSpaceOnUse" color-interpolation-filters="sRGB"><feFlood flood-opacity="0" result="BackgroundImageFix"/><feBlend in="SourceGraphic" in2="BackgroundImageFix" result="shape"/><feGaussianBlur stdDeviation=".25" result="effect1_foregroundBlur_18_30809"/></filter><filter id="w" x="14.969" y="4.547" width="2.281" height="6.609" filterUnits="userSpaceOnUse" color-interpolation-filters="sRGB"><feFlood flood-opacity="0" result="BackgroundImageFix"/><feBlend in="SourceGraphic" in2="BackgroundImageFix" result="shape"/><feGaussianBlur stdDeviation=".25" result="effect1_foregroundBlur_18_30809"/></filter></defs></svg>