<svg width="32" height="32" fill="none" xmlns="http://www.w3.org/2000/svg"><path d="M5.428 29.911h21.144c-.19-5.356-4.591-9.64-9.994-9.64h-1.156c-5.403 0-9.805 4.284-9.994 9.64Z" fill="url(#a)"/><path d="M5.428 29.911h21.144c-.19-5.356-4.591-9.64-9.994-9.64h-1.156c-5.403 0-9.805 4.284-9.994 9.64Z" fill="url(#b)"/><path d="M5.428 29.911h21.144c-.19-5.356-4.591-9.64-9.994-9.64h-1.156c-5.403 0-9.805 4.284-9.994 9.64Z" fill="url(#c)"/><path d="M5.428 29.911h21.144c-.19-5.356-4.591-9.64-9.994-9.64h-1.156c-5.403 0-9.805 4.284-9.994 9.64Z" fill="url(#d)"/><path d="M9.058 29.911h-3.63a9.98 9.98 0 0 1 3.63-7.355v7.355Z" fill="url(#e)"/><path d="M9.058 29.911h-3.63a9.98 9.98 0 0 1 3.63-7.355v7.355Z" fill="url(#f)"/><path d="M22.942 29.911h3.63a9.98 9.98 0 0 0-3.63-7.355v7.355Z" fill="url(#g)"/><path d="M22.942 29.911h3.63a9.98 9.98 0 0 0-3.63-7.355v7.355Z" fill="url(#h)"/><g filter="url(#i)"><path d="M11.926 20.161c-1.364.418-2.538 1.308-3.179 1.936a.462.462 0 0 0 .011.659l.65.649a.523.523 0 0 0 .704.02 12.252 12.252 0 0 1 3.107-1.857l-1.293-1.407Z" fill="url(#j)"/><path d="M11.926 20.161c-1.364.418-2.538 1.308-3.179 1.936a.462.462 0 0 0 .011.659l.65.649a.523.523 0 0 0 .704.02 12.252 12.252 0 0 1 3.107-1.857l-1.293-1.407Z" fill="url(#k)"/></g><g filter="url(#l)"><path d="M20.046 20.161c1.364.418 2.538 1.308 3.179 1.936a.461.461 0 0 1-.011.659l-.65.649a.523.523 0 0 1-.704.02 12.252 12.252 0 0 0-3.107-1.857l1.293-1.407Z" fill="#554B59"/><path d="M20.046 20.161c1.364.418 2.538 1.308 3.179 1.936a.461.461 0 0 1-.011.659l-.65.649a.523.523 0 0 1-.704.02 12.252 12.252 0 0 0-3.107-1.857l1.293-1.407Z" fill="url(#m)"/><path d="M20.046 20.161c1.364.418 2.538 1.308 3.179 1.936a.461.461 0 0 1-.011.659l-.65.649a.523.523 0 0 1-.704.02 12.252 12.252 0 0 0-3.107-1.857l1.293-1.407Z" fill="url(#n)"/></g><g filter="url(#o)"><path fill="#321F22" d="M9.45 22.66a.64.524-40.534 1 0 .974-.833.64.524-40.534 1 0-.974.833"/></g><path transform="rotate(-40.534 9.886 22.154)" fill="url(#p)" d="M9.245 22.154a.64.524 0 1 0 1.282 0 .64.524 0 1 0-1.282 0"/><g filter="url(#q)"><path fill="#3E3138" d="M22.48 22.562a.494.64-54.657 1 1-1.046-.741.494.64-54.657 1 1 1.046.741"/></g><path transform="scale(-1 1) rotate(-40.534 18.954 40.982)" fill="url(#r)" d="M-.64 0A.64.524 0 1 0 .64 0 .64.524 0 1 0-.64 0"/><g filter="url(#s)"><path fill="url(#t)" d="M15.969 14.927s3.797 0 3.797 3.797v2s0 3.797-3.797 3.797-3.797 0-3.797-3.797v-2s0-3.797 3.797-3.797"/><path fill="url(#u)" d="M15.969 14.927s3.797 0 3.797 3.797v2s0 3.797-3.797 3.797-3.797 0-3.797-3.797v-2s0-3.797 3.797-3.797"/><path fill="url(#v)" d="M15.969 14.927s3.797 0 3.797 3.797v2s0 3.797-3.797 3.797-3.797 0-3.797-3.797v-2s0-3.797 3.797-3.797"/></g><path fill="url(#w)" d="M15.867 18.099h.203s1.97 0 1.97 1.969v1.203s0 1.969-1.97 1.969h-.203s-1.968 0-1.968-1.97v-1.202s0-1.969 1.968-1.969"/><path d="M15.49 23.203v6.708h.989v-6.714a1.974 1.974 0 0 1-.409.042h-.203c-.129 0-.255-.012-.377-.036Z" fill="url(#x)"/><path d="M15.49 23.203v6.708h.989v-6.714a1.974 1.974 0 0 1-.409.042h-.203c-.129 0-.255-.012-.377-.036Z" fill="url(#y)"/><g filter="url(#z)"><path fill="#F6265E" d="M16.895 28.445a.545.545 0 1 0 1.09 0 .545.545 0 1 0-1.09 0"/></g><g filter="url(#A)"><path fill="#F6265E" d="M16.895 25.445a.545.545 0 1 0 1.09 0 .545.545 0 1 0-1.09 0"/></g><path fill="url(#B)" d="M16.95 28.374a.545.545 0 1 0 1.089 0 .545.545 0 1 0-1.09 0"/><path fill="url(#C)" d="M16.95 25.374a.545.545 0 1 0 1.089 0 .545.545 0 1 0-1.09 0"/><path d="M20.861 16.672c.335-.011.65-.125.905-.309v.931c0 .893-.532 1.689-1.341 2.019.17-.363.287-.758.346-1.18l.09-1.461Z" fill="url(#D)"/><path d="M11.139 16.672a1.64 1.64 0 0 1-.905-.309v.931c0 .893.532 1.689 1.34 2.019a4.088 4.088 0 0 1-.345-1.18l-.09-1.461Z" fill="url(#E)"/><g filter="url(#F)"><path d="M11.175 18.186a3.916 3.916 0 0 0 3.886 3.406h1.886a3.916 3.916 0 0 0 3.886-3.405c.118-1.884.237-3.76.324-5.643a1.45 1.45 0 0 0-1.379-1.432h-1.4c-.955 0-1.82-.563-2.212-1.443a.664.664 0 0 0-.615-.418h-1.273c-1.846 0-3.341 1.512-3.341 3.379 0 1.86.116 3.691.238 5.556Z" fill="url(#G)"/><path d="M11.175 18.186a3.916 3.916 0 0 0 3.886 3.406h1.886a3.916 3.916 0 0 0 3.886-3.405c.118-1.884.237-3.76.324-5.643a1.45 1.45 0 0 0-1.379-1.432h-1.4c-.955 0-1.82-.563-2.212-1.443a.664.664 0 0 0-.615-.418h-1.273c-1.846 0-3.341 1.512-3.341 3.379 0 1.86.116 3.691.238 5.556Z" fill="url(#H)"/></g><path d="M11.175 18.186a3.916 3.916 0 0 0 3.886 3.406h1.886a3.916 3.916 0 0 0 3.886-3.405c.118-1.884.237-3.76.324-5.643a1.45 1.45 0 0 0-1.379-1.432h-1.4c-.955 0-1.82-.563-2.212-1.443a.664.664 0 0 0-.615-.418h-1.273c-1.846 0-3.341 1.512-3.341 3.379 0 1.86.116 3.691.238 5.556Z" fill="url(#I)"/><path d="M11.175 18.186a3.916 3.916 0 0 0 3.886 3.406h1.886a3.916 3.916 0 0 0 3.886-3.405c.118-1.884.237-3.76.324-5.643a1.45 1.45 0 0 0-1.379-1.432h-1.4c-.955 0-1.82-.563-2.212-1.443a.664.664 0 0 0-.615-.418h-1.273c-1.846 0-3.341 1.512-3.341 3.379 0 1.86.116 3.691.238 5.556Z" fill="url(#J)"/><path d="M11.175 18.186a3.916 3.916 0 0 0 3.886 3.406h1.886a3.916 3.916 0 0 0 3.886-3.405c.118-1.884.237-3.76.324-5.643a1.45 1.45 0 0 0-1.379-1.432h-1.4c-.955 0-1.82-.563-2.212-1.443a.664.664 0 0 0-.615-.418h-1.273c-1.846 0-3.341 1.512-3.341 3.379 0 1.86.116 3.691.238 5.556Z" fill="url(#K)"/><path d="M11.175 18.186a3.916 3.916 0 0 0 3.886 3.406h1.886a3.916 3.916 0 0 0 3.886-3.405c.118-1.884.237-3.76.324-5.643a1.45 1.45 0 0 0-1.379-1.432h-1.4c-.955 0-1.82-.563-2.212-1.443a.664.664 0 0 0-.615-.418h-1.273c-1.846 0-3.341 1.512-3.341 3.379 0 1.86.116 3.691.238 5.556Z" fill="url(#L)"/><path d="M11.175 18.186a3.916 3.916 0 0 0 3.886 3.406h1.886a3.916 3.916 0 0 0 3.886-3.405c.118-1.884.237-3.76.324-5.643a1.45 1.45 0 0 0-1.379-1.432h-1.4c-.955 0-1.82-.563-2.212-1.443a.664.664 0 0 0-.615-.418h-1.273c-1.846 0-3.341 1.512-3.341 3.379 0 1.86.116 3.691.238 5.556Z" fill="url(#M)"/><path d="M11.175 18.186a3.916 3.916 0 0 0 3.886 3.406h1.886a3.916 3.916 0 0 0 3.886-3.405c.118-1.884.237-3.76.324-5.643a1.45 1.45 0 0 0-1.379-1.432h-1.4c-.955 0-1.82-.563-2.212-1.443a.664.664 0 0 0-.615-.418h-1.273c-1.846 0-3.341 1.512-3.341 3.379 0 1.86.116 3.691.238 5.556Z" fill="url(#N)"/><path d="M11.175 18.186a3.916 3.916 0 0 0 3.886 3.406h1.886a3.916 3.916 0 0 0 3.886-3.405c.118-1.884.237-3.76.324-5.643a1.45 1.45 0 0 0-1.379-1.432h-1.4c-.955 0-1.82-.563-2.212-1.443a.664.664 0 0 0-.615-.418h-1.273c-1.846 0-3.341 1.512-3.341 3.379 0 1.86.116 3.691.238 5.556Z" fill="url(#O)"/><path d="M11.175 18.186a3.916 3.916 0 0 0 3.886 3.406h1.886a3.916 3.916 0 0 0 3.886-3.405c.118-1.884.237-3.76.324-5.643a1.45 1.45 0 0 0-1.379-1.432h-1.4c-.955 0-1.82-.563-2.212-1.443a.664.664 0 0 0-.615-.418h-1.273c-1.846 0-3.341 1.512-3.341 3.379 0 1.86.116 3.691.238 5.556Z" fill="url(#P)"/><path d="M11.175 18.186a3.916 3.916 0 0 0 3.886 3.406h1.886a3.916 3.916 0 0 0 3.886-3.405c.118-1.884.237-3.76.324-5.643a1.45 1.45 0 0 0-1.379-1.432h-1.4c-.955 0-1.82-.563-2.212-1.443a.664.664 0 0 0-.615-.418h-1.273c-1.846 0-3.341 1.512-3.341 3.379 0 1.86.116 3.691.238 5.556Z" fill="url(#Q)"/><g filter="url(#R)"><path d="m15.598 14.903-.59 1.838c-.101.378.141.756.484.756h.732c.343 0 .585-.384.484-.756l-.494-1.838c-.106-.407-.504-.407-.615 0Z" fill="#6F3F46"/></g><g filter="url(#S)"><path d="m15.618 14.707-.532 1.838c-.108.378.152.757.52.757h.787c.369 0 .63-.384.52-.757l-.53-1.838c-.115-.407-.646-.407-.765 0Z" fill="#946763"/><path d="m15.618 14.707-.532 1.838c-.108.378.152.757.52.757h.787c.369 0 .63-.384.52-.757l-.53-1.838c-.115-.407-.646-.407-.765 0Z" fill="url(#T)"/><path d="m15.618 14.707-.532 1.838c-.108.378.152.757.52.757h.787c.369 0 .63-.384.52-.757l-.53-1.838c-.115-.407-.646-.407-.765 0Z" fill="url(#U)"/><path d="m15.618 14.707-.532 1.838c-.108.378.152.757.52.757h.787c.369 0 .63-.384.52-.757l-.53-1.838c-.115-.407-.646-.407-.765 0Z" fill="url(#V)"/><path d="m15.618 14.707-.532 1.838c-.108.378.152.757.52.757h.787c.369 0 .63-.384.52-.757l-.53-1.838c-.115-.407-.646-.407-.765 0Z" fill="url(#W)"/></g><g filter="url(#X)"><path d="m15.618 14.582-.532 1.839c-.108.378.152.756.52.756h.787c.369 0 .63-.384.52-.756l-.53-1.838c-.115-.408-.646-.408-.765 0Z" fill="url(#Y)"/></g><g filter="url(#Z)"><path d="M14.65 17.923h-.002a.228.228 0 0 0-.27.047.212.212 0 0 0-.024.27c.349.528.956.88 1.646.88s1.297-.352 1.646-.88a.214.214 0 0 0-.024-.272.228.228 0 0 0-.27-.045h-.001c-.39.203-.85.32-1.351.32a2.93 2.93 0 0 1-1.35-.32Z" stroke="url(#aa)" stroke-width=".15"/></g><path d="M16 18.318c-.508 0-.985-.12-1.386-.328-.137-.07-.284.084-.197.209.335.507.918.846 1.583.846.665 0 1.248-.339 1.583-.846.087-.13-.06-.279-.198-.21a2.99 2.99 0 0 1-1.385.33Z" fill="url(#ab)"/><path d="M18.39 13.757c.654 0 1.206.45 1.356 1.058a.274.274 0 0 1-.268.341h-2.231a.23.23 0 0 1-.227-.272c.125-.64.69-1.127 1.37-1.127Z" fill="#fff"/><path d="M18.184 14.029a.892.892 0 0 1 .86 1.127H17.32a.896.896 0 0 1 .864-1.128Z" fill="url(#ac)"/><path d="M17.673 14.921c0-.284.227-.511.511-.511a.509.509 0 0 1 .454.746h-.904a.462.462 0 0 1-.061-.235Z" fill="#000"/><g filter="url(#ad)"><path d="M18.118 14.217c.064.085-.069.189-.22.302-.151.113-.263.192-.327.107-.063-.085.008-.245.159-.358.15-.113.325-.136.388-.05Z" fill="#C7A7A3"/><path d="M18.118 14.217c.064.085-.069.189-.22.302-.151.113-.263.192-.327.107-.063-.085.008-.245.159-.358.15-.113.325-.136.388-.05Z" fill="url(#ae)"/></g><g filter="url(#af)"><path d="M18.979 14.803a.84.84 0 0 0-.232-.462l-.26.285.118.228.374-.05Z" fill="url(#ag)"/></g><path d="M13.61 13.757c-.654 0-1.206.45-1.356 1.058-.044.175.09.341.268.341h2.231a.23.23 0 0 0 .227-.272 1.401 1.401 0 0 0-1.37-1.127Z" fill="#fff"/><path d="M13.816 14.029a.892.892 0 0 0-.86 1.127h1.724a.919.919 0 0 0 .033-.235.899.899 0 0 0-.897-.892Z" fill="url(#ah)"/><path d="M14.327 14.921a.51.51 0 0 0-.511-.511.51.51 0 0 0-.454.746h.904a.507.507 0 0 0 .061-.235Z" fill="#000"/><g filter="url(#ai)"><path d="M14.631 14.816c0-.289-.234-.48-.298-.539l-.288.279.177.361.41-.101Z" fill="url(#aj)"/></g><g filter="url(#ak)"><path fill="#C7A7A3" fill-opacity=".9" d="M13.202 14.592a.39.197-27.914 1 0 .689-.365.39.197-27.914 1 0-.689.365"/><path transform="rotate(-27.914 13.547 14.41)" fill="url(#al)" d="M13.157 14.41a.39.197 0 1 0 .78 0 .39.197 0 1 0-.78 0"/></g><path d="M20.922 16.762c.066-1.064.13-2.127.184-3.191a1.61 1.61 0 0 1-.184 3.191Z" fill="url(#am)"/><path d="M20.922 16.762c.066-1.064.13-2.127.184-3.191a1.61 1.61 0 0 1-.184 3.191Z" fill="url(#an)"/><path d="M20.922 16.762c.066-1.064.13-2.127.184-3.191a1.61 1.61 0 0 1-.184 3.191Z" fill="url(#ao)"/><path d="M20.922 16.762c.066-1.064.13-2.127.184-3.191a1.61 1.61 0 0 1-.184 3.191Z" fill="url(#ap)"/><path d="M10.956 13.558a1.623 1.623 0 0 0-1.392 1.598c0 .86.673 1.561 1.52 1.607a78.155 78.155 0 0 1-.128-3.205Z" fill="url(#aq)"/><path d="M10.956 13.558a1.623 1.623 0 0 0-1.392 1.598c0 .86.673 1.561 1.52 1.607a78.155 78.155 0 0 1-.128-3.205Z" fill="url(#ar)"/><g filter="url(#as)"><path d="M10.915 14.223a.956.956 0 0 0 .083 1.88 78.175 78.175 0 0 1-.083-1.88Z" fill="url(#at)"/></g><g filter="url(#au)"><path d="M21.05 16.035c.033-.586.065-1.172.095-1.758.4.054.711.426.711.876 0 .484-.36.878-.806.882Z" fill="url(#av)"/></g><g filter="url(#aw)"><path d="M10.31 14.155c-.278-.016-.842-.08-1.054-.728-.11-.37.082-.779.143-.91a1.317 1.317 0 0 1 .024-.05c.061-.12.152-.296-.02-.576-.193-.313-.375-.615-.045-1.257.207-.405.093-.652-.032-.875-.183-.327-.166-.604 0-.938.07-.143.173-.275.173-.472 0-.198-.07-.335-.141-.474-.074-.143-.148-.289-.148-.504 0-.23.084-.398.161-.554.066-.133.128-.257.128-.402 0-.129-.06-.24-.125-.364-.094-.178-.201-.38-.164-.69.071-.59.537-.787.756-.879l.02-.008c.21-.089.364-.163.452-.58.046-.215.132-.502.293-.663a1.06 1.06 0 0 1 .791-.3c.257.007.535-.03.752-.254.217-.225.458-.413.699-.453.24-.04.471.014.725.144.281.145.567.07.705-.035.34-.262.718-.32 1.158-.141.18.072.295.112.394.112.098 0 .214-.04.393-.112.44-.18.819-.12 1.159.141.137.106.423.18.704.035.254-.13.484-.184.725-.144.241.04.483.228.7.453.216.225.494.261.75.253a1.06 1.06 0 0 1 .793.301c.16.161.246.448.292.663.088.417.243.491.452.58l.02.008c.219.092.685.288.756.878.038.31-.07.513-.164.69-.065.124-.125.236-.125.365 0 .145.062.269.128.402.078.156.161.324.161.554 0 .215-.074.36-.147.504a.935.935 0 0 0-.105.466c0 .528.496.742.176 1.422-.125.223-.324.455-.117.86.33.641.193.955 0 1.268-.171.28-.081.457-.02.577l.02.041.005.009c.06.13.252.54.142.909-.212.649-.775.712-1.054.728H10.31Z" fill="url(#ax)"/><path d="M10.31 14.155c-.278-.016-.842-.08-1.054-.728-.11-.37.082-.779.143-.91a1.317 1.317 0 0 1 .024-.05c.061-.12.152-.296-.02-.576-.193-.313-.375-.615-.045-1.257.207-.405.093-.652-.032-.875-.183-.327-.166-.604 0-.938.07-.143.173-.275.173-.472 0-.198-.07-.335-.141-.474-.074-.143-.148-.289-.148-.504 0-.23.084-.398.161-.554.066-.133.128-.257.128-.402 0-.129-.06-.24-.125-.364-.094-.178-.201-.38-.164-.69.071-.59.537-.787.756-.879l.02-.008c.21-.089.364-.163.452-.58.046-.215.132-.502.293-.663a1.06 1.06 0 0 1 .791-.3c.257.007.535-.03.752-.254.217-.225.458-.413.699-.453.24-.04.471.014.725.144.281.145.567.07.705-.035.34-.262.718-.32 1.158-.141.18.072.295.112.394.112.098 0 .214-.04.393-.112.44-.18.819-.12 1.159.141.137.106.423.18.704.035.254-.13.484-.184.725-.144.241.04.483.228.7.453.216.225.494.261.75.253a1.06 1.06 0 0 1 .793.301c.16.161.246.448.292.663.088.417.243.491.452.58l.02.008c.219.092.685.288.756.878.038.31-.07.513-.164.69-.065.124-.125.236-.125.365 0 .145.062.269.128.402.078.156.161.324.161.554 0 .215-.074.36-.147.504a.935.935 0 0 0-.105.466c0 .528.496.742.176 1.422-.125.223-.324.455-.117.86.33.641.193.955 0 1.268-.171.28-.081.457-.02.577l.02.041.005.009c.06.13.252.54.142.909-.212.649-.775.712-1.054.728H10.31Z" fill="url(#ay)"/></g><path d="M10.31 14.155c-.278-.016-.842-.08-1.054-.728-.11-.37.082-.779.143-.91a1.317 1.317 0 0 1 .024-.05c.061-.12.152-.296-.02-.576-.193-.313-.375-.615-.045-1.257.207-.405.093-.652-.032-.875-.183-.327-.166-.604 0-.938.07-.143.173-.275.173-.472 0-.198-.07-.335-.141-.474-.074-.143-.148-.289-.148-.504 0-.23.084-.398.161-.554.066-.133.128-.257.128-.402 0-.129-.06-.24-.125-.364-.094-.178-.201-.38-.164-.69.071-.59.537-.787.756-.879l.02-.008c.21-.089.364-.163.452-.58.046-.215.132-.502.293-.663a1.06 1.06 0 0 1 .791-.3c.257.007.535-.03.752-.254.217-.225.458-.413.699-.453.24-.04.471.014.725.144.281.145.567.07.705-.035.34-.262.718-.32 1.158-.141.18.072.295.112.394.112.098 0 .214-.04.393-.112.44-.18.819-.12 1.159.141.137.106.423.18.704.035.254-.13.484-.184.725-.144.241.04.483.228.7.453.216.225.494.261.75.253a1.06 1.06 0 0 1 .793.301c.16.161.246.448.292.663.088.417.243.491.452.58l.02.008c.219.092.685.288.756.878.038.31-.07.513-.164.69-.065.124-.125.236-.125.365 0 .145.062.269.128.402.078.156.161.324.161.554 0 .215-.074.36-.147.504a.935.935 0 0 0-.105.466c0 .528.496.742.176 1.422-.125.223-.324.455-.117.86.33.641.193.955 0 1.268-.171.28-.081.457-.02.577l.02.041.005.009c.06.13.252.54.142.909-.212.649-.775.712-1.054.728H10.31Z" fill="url(#az)"/><path d="M10.31 14.155c-.278-.016-.842-.08-1.054-.728-.11-.37.082-.779.143-.91a1.317 1.317 0 0 1 .024-.05c.061-.12.152-.296-.02-.576-.193-.313-.375-.615-.045-1.257.207-.405.093-.652-.032-.875-.183-.327-.166-.604 0-.938.07-.143.173-.275.173-.472 0-.198-.07-.335-.141-.474-.074-.143-.148-.289-.148-.504 0-.23.084-.398.161-.554.066-.133.128-.257.128-.402 0-.129-.06-.24-.125-.364-.094-.178-.201-.38-.164-.69.071-.59.537-.787.756-.879l.02-.008c.21-.089.364-.163.452-.58.046-.215.132-.502.293-.663a1.06 1.06 0 0 1 .791-.3c.257.007.535-.03.752-.254.217-.225.458-.413.699-.453.24-.04.471.014.725.144.281.145.567.07.705-.035.34-.262.718-.32 1.158-.141.18.072.295.112.394.112.098 0 .214-.04.393-.112.44-.18.819-.12 1.159.141.137.106.423.18.704.035.254-.13.484-.184.725-.144.241.04.483.228.7.453.216.225.494.261.75.253a1.06 1.06 0 0 1 .793.301c.16.161.246.448.292.663.088.417.243.491.452.58l.02.008c.219.092.685.288.756.878.038.31-.07.513-.164.69-.065.124-.125.236-.125.365 0 .145.062.269.128.402.078.156.161.324.161.554 0 .215-.074.36-.147.504a.935.935 0 0 0-.105.466c0 .528.496.742.176 1.422-.125.223-.324.455-.117.86.33.641.193.955 0 1.268-.171.28-.081.457-.02.577l.02.041.005.009c.06.13.252.54.142.909-.212.649-.775.712-1.054.728H10.31Z" fill="url(#aA)"/><path d="M10.31 14.155c-.278-.016-.842-.08-1.054-.728-.11-.37.082-.779.143-.91a1.317 1.317 0 0 1 .024-.05c.061-.12.152-.296-.02-.576-.193-.313-.375-.615-.045-1.257.207-.405.093-.652-.032-.875-.183-.327-.166-.604 0-.938.07-.143.173-.275.173-.472 0-.198-.07-.335-.141-.474-.074-.143-.148-.289-.148-.504 0-.23.084-.398.161-.554.066-.133.128-.257.128-.402 0-.129-.06-.24-.125-.364-.094-.178-.201-.38-.164-.69.071-.59.537-.787.756-.879l.02-.008c.21-.089.364-.163.452-.58.046-.215.132-.502.293-.663a1.06 1.06 0 0 1 .791-.3c.257.007.535-.03.752-.254.217-.225.458-.413.699-.453.24-.04.471.014.725.144.281.145.567.07.705-.035.34-.262.718-.32 1.158-.141.18.072.295.112.394.112.098 0 .214-.04.393-.112.44-.18.819-.12 1.159.141.137.106.423.18.704.035.254-.13.484-.184.725-.144.241.04.483.228.7.453.216.225.494.261.75.253a1.06 1.06 0 0 1 .793.301c.16.161.246.448.292.663.088.417.243.491.452.58l.02.008c.219.092.685.288.756.878.038.31-.07.513-.164.69-.065.124-.125.236-.125.365 0 .145.062.269.128.402.078.156.161.324.161.554 0 .215-.074.36-.147.504a.935.935 0 0 0-.105.466c0 .528.496.742.176 1.422-.125.223-.324.455-.117.86.33.641.193.955 0 1.268-.171.28-.081.457-.02.577l.02.041.005.009c.06.13.252.54.142.909-.212.649-.775.712-1.054.728H10.31Z" fill="url(#aB)"/><g filter="url(#aC)"><path d="m10.5 14.155.12 3.519c.082 2.424 2.07 4.378 4.497 4.378h1.677c2.44 0 4.435-1.976 4.498-4.416l.09-3.48h-.909l-.12 3.48c-.049 1.898-1.662 3.486-3.56 3.486h-1.676c-1.887 0-3.489-1.597-3.553-3.482l-.09-3.485H10.5Z" fill="url(#aD)"/><path d="m10.5 14.155.12 3.519c.082 2.424 2.07 4.378 4.497 4.378h1.677c2.44 0 4.435-1.976 4.498-4.416l.09-3.48h-.909l-.12 3.48c-.049 1.898-1.662 3.486-3.56 3.486h-1.676c-1.887 0-3.489-1.597-3.553-3.482l-.09-3.485H10.5Z" fill="url(#aE)"/><path d="m10.5 14.155.12 3.519c.082 2.424 2.07 4.378 4.497 4.378h1.677c2.44 0 4.435-1.976 4.498-4.416l.09-3.48h-.909l-.12 3.48c-.049 1.898-1.662 3.486-3.56 3.486h-1.676c-1.887 0-3.489-1.597-3.553-3.482l-.09-3.485H10.5Z" fill="url(#aF)"/></g><defs><radialGradient id="a" cx="0" cy="0" r="1" gradientUnits="userSpaceOnUse" gradientTransform="matrix(0 7.71875 -19.3424 0 16 26.99)"><stop offset=".315" stop-color="#F73C71"/><stop offset="1" stop-color="#D6274F"/></radialGradient><radialGradient id="b" cx="0" cy="0" r="1" gradientUnits="userSpaceOnUse" gradientTransform="matrix(-2.6875 0 0 -8.81836 22.928 27.146)"><stop offset=".24" stop-color="#FF6085"/><stop offset="1" stop-color="#FF6085" stop-opacity="0"/></radialGradient><radialGradient id="e" cx="0" cy="0" r="1" gradientUnits="userSpaceOnUse" gradientTransform="matrix(1.96876 -8.07812 2.82155 .68765 6.74 29.911)"><stop offset=".232" stop-color="#E43669"/><stop offset="1" stop-color="#B13B50"/></radialGradient><radialGradient id="g" cx="0" cy="0" r="1" gradientUnits="userSpaceOnUse" gradientTransform="rotate(-101.449 24.978 4.727) scale(7.55662 1.96679)"><stop stop-color="#FF5C85"/><stop offset="1" stop-color="#E34C67"/></radialGradient><radialGradient id="h" cx="0" cy="0" r="1" gradientUnits="userSpaceOnUse" gradientTransform="matrix(0 -11.366 .65507 0 22.942 29.911)"><stop offset=".443" stop-color="#E11C59"/><stop offset="1" stop-color="#EE5076" stop-opacity="0"/></radialGradient><radialGradient id="j" cx="0" cy="0" r="1" gradientUnits="userSpaceOnUse" gradientTransform="matrix(1.35937 1.64062 -3.29137 2.72714 9.71 21.208)"><stop stop-color="#454048"/><stop offset="1" stop-color="#382834"/></radialGradient><radialGradient id="k" cx="0" cy="0" r="1" gradientUnits="userSpaceOnUse" gradientTransform="matrix(1.78125 1.85937 -.47826 .45816 8.381 22.458)"><stop offset=".435" stop-color="#4B4551"/><stop offset="1" stop-color="#4B4551" stop-opacity="0"/></radialGradient><radialGradient id="m" cx="0" cy="0" r="1" gradientUnits="userSpaceOnUse" gradientTransform="matrix(1.3125 .25 -.73637 3.86594 19.569 21.146)"><stop offset=".032" stop-color="#513F4E"/><stop offset="1" stop-color="#513F4E" stop-opacity="0"/></radialGradient><radialGradient id="n" cx="0" cy="0" r="1" gradientUnits="userSpaceOnUse" gradientTransform="rotate(138.094 7.499 15.6) scale(1.63757 .24529)"><stop stop-color="#5E5864"/><stop offset="1" stop-color="#5E5864" stop-opacity="0"/></radialGradient><radialGradient id="p" cx="0" cy="0" r="1" gradientUnits="userSpaceOnUse" gradientTransform="rotate(-169.136 6.388 10.772) scale(1.64141 .91814)"><stop offset=".525" stop-color="#CC981A"/><stop offset="1" stop-color="#DCB144"/></radialGradient><radialGradient id="r" cx="0" cy="0" r="1" gradientUnits="userSpaceOnUse" gradientTransform="matrix(.678 .80592 -1.4278 1.20118 .1 .257)"><stop stop-color="#FFFF50"/><stop offset="1" stop-color="#F6CF1C"/></radialGradient><radialGradient id="t" cx="0" cy="0" r="1" gradientUnits="userSpaceOnUse" gradientTransform="matrix(-2.68749 -3.76563 4.9287 -3.51755 18.1 23.911)"><stop stop-color="#5D4364"/><stop offset="1" stop-color="#482949"/></radialGradient><radialGradient id="u" cx="0" cy="0" r="1" gradientUnits="userSpaceOnUse" gradientTransform="matrix(-.39844 0 0 -.91123 15.538 23.763)"><stop offset=".244" stop-color="#4A2E4F"/><stop offset="1" stop-color="#4A2E4F" stop-opacity="0"/></radialGradient><radialGradient id="v" cx="0" cy="0" r="1" gradientUnits="userSpaceOnUse" gradientTransform="rotate(112.38 -.17 15.586) scale(1.14905 2.6882)"><stop stop-color="#452139"/><stop offset="1" stop-color="#452139" stop-opacity="0"/></radialGradient><radialGradient id="w" cx="0" cy="0" r="1" gradientUnits="userSpaceOnUse" gradientTransform="matrix(1.0625 1.35937 -2.23489 1.7468 15.678 22.02)"><stop stop-color="#955268"/><stop offset="1" stop-color="#AC7879"/></radialGradient><radialGradient id="B" cx="0" cy="0" r="1" gradientUnits="userSpaceOnUse" gradientTransform="matrix(-.71875 .59375 -.75915 -.91896 17.85 28.161)"><stop stop-color="#FFF153"/><stop offset="1" stop-color="#FCA239"/></radialGradient><radialGradient id="C" cx="0" cy="0" r="1" gradientUnits="userSpaceOnUse" gradientTransform="matrix(-.71875 .59375 -.75915 -.91896 17.85 25.161)"><stop stop-color="#FFF153"/><stop offset="1" stop-color="#FCA239"/></radialGradient><radialGradient id="D" cx="0" cy="0" r="1" gradientUnits="userSpaceOnUse" gradientTransform="rotate(69.657 -1.383 23.096) scale(2.15388 2.55864)"><stop offset=".215" stop-color="#493B3B"/><stop offset="1" stop-color="#311F2C"/></radialGradient><radialGradient id="E" cx="0" cy="0" r="1" gradientUnits="userSpaceOnUse" gradientTransform="rotate(17.447 -49.946 40.828) scale(1.54766 4.77465)"><stop stop-color="#4C3C39"/><stop offset=".746" stop-color="#2E1C2E"/></radialGradient><radialGradient id="G" cx="0" cy="0" r="1" gradientUnits="userSpaceOnUse" gradientTransform="matrix(-4.70503 0 0 -8.32316 18.808 15.422)"><stop stop-color="#C89980"/><stop offset="1" stop-color="#926763"/></radialGradient><radialGradient id="H" cx="0" cy="0" r="1" gradientUnits="userSpaceOnUse" gradientTransform="rotate(121.159 6.269 10.417) scale(3.36898 2.78137)"><stop offset=".078" stop-color="#AF887B"/><stop offset="1" stop-color="#AF887B" stop-opacity="0"/></radialGradient><radialGradient id="J" cx="0" cy="0" r="1" gradientUnits="userSpaceOnUse" gradientTransform="matrix(-1.02223 12.42352 -10.28813 -.84653 17.581 9.508)"><stop offset=".767" stop-color="#985682" stop-opacity="0"/><stop offset="1" stop-color="#985682"/></radialGradient><radialGradient id="K" cx="0" cy="0" r="1" gradientUnits="userSpaceOnUse" gradientTransform="matrix(0 -1.14835 1.42108 0 18.447 14.109)"><stop offset=".325" stop-color="#AB7872"/><stop offset="1" stop-color="#AB7872" stop-opacity="0"/></radialGradient><radialGradient id="L" cx="0" cy="0" r="1" gradientUnits="userSpaceOnUse" gradientTransform="rotate(-89.794 13.953 .203) scale(1.09429 1.19084)"><stop offset=".378" stop-color="#8F5D66"/><stop offset="1" stop-color="#8F5D66" stop-opacity="0"/></radialGradient><radialGradient id="M" cx="0" cy="0" r="1" gradientUnits="userSpaceOnUse" gradientTransform="matrix(-8.49598 .5363 -1.37 -21.703 19.433 16.41)"><stop offset=".836" stop-color="#987064" stop-opacity="0"/><stop offset="1" stop-color="#987064"/></radialGradient><radialGradient id="N" cx="0" cy="0" r="1" gradientUnits="userSpaceOnUse" gradientTransform="matrix(3.38579 -2.91647 .86148 1.0001 9.208 12.689)"><stop offset=".539" stop-color="#63413D"/><stop offset="1" stop-color="#63413D" stop-opacity="0"/></radialGradient><radialGradient id="O" cx="0" cy="0" r="1" gradientUnits="userSpaceOnUse" gradientTransform="rotate(95.368 5.08 16.06) scale(2.50844 1.00273)"><stop offset=".245" stop-color="#BF9980"/><stop offset="1" stop-color="#BF9980" stop-opacity="0"/></radialGradient><radialGradient id="P" cx="0" cy="0" r="1" gradientUnits="userSpaceOnUse" gradientTransform="matrix(0 .87159 -1.6732 0 13.784 14.926)"><stop stop-color="#9E7765"/><stop offset="1" stop-color="#9E7765" stop-opacity="0"/></radialGradient><radialGradient id="U" cx="0" cy="0" r="1" gradientUnits="userSpaceOnUse" gradientTransform="matrix(0 .2441 -.76718 0 16.466 16.782)"><stop stop-color="#BD957F"/><stop offset="1" stop-color="#BD957F" stop-opacity="0"/></radialGradient><radialGradient id="W" cx="0" cy="0" r="1" gradientUnits="userSpaceOnUse" gradientTransform="matrix(-1.69206 .7501 -1.20547 -2.71927 16.582 16.213)"><stop offset=".702" stop-color="#8A5F5C" stop-opacity="0"/><stop offset="1" stop-color="#744A4A"/><stop offset="1" stop-color="#8A5F5C"/></radialGradient><radialGradient id="ab" cx="0" cy="0" r="1" gradientUnits="userSpaceOnUse" gradientTransform="matrix(2.18198 -1.07272 4.31585 8.77866 15.509 19.045)"><stop offset=".562" stop-color="#87014E"/><stop offset="1" stop-color="#87004D"/></radialGradient><radialGradient id="ac" cx="0" cy="0" r="1" gradientUnits="userSpaceOnUse" gradientTransform="matrix(0 -1.17408 1.6093 0 18.182 15.156)"><stop offset=".548" stop-color="#734B48"/><stop offset=".887" stop-color="#4A2D33"/></radialGradient><radialGradient id="ae" cx="0" cy="0" r="1" gradientUnits="userSpaceOnUse" gradientTransform="rotate(-127.812 12.55 2.898) scale(.37829 .52081)"><stop offset=".766" stop-color="#FFE6E2" stop-opacity="0"/><stop offset=".966" stop-color="#FFE6E2"/></radialGradient><radialGradient id="ah" cx="0" cy="0" r="1" gradientUnits="userSpaceOnUse" gradientTransform="matrix(0 -1.17414 1.60939 0 13.818 15.156)"><stop offset=".548" stop-color="#734B48"/><stop offset=".887" stop-color="#4A2D33"/></radialGradient><radialGradient id="al" cx="0" cy="0" r="1" gradientUnits="userSpaceOnUse" gradientTransform="rotate(-90.897 14.014 .702) scale(.49414 .59399)"><stop offset=".766" stop-color="#FFE6E2" stop-opacity="0"/><stop offset=".966" stop-color="#FFE6E2"/></radialGradient><radialGradient id="an" cx="0" cy="0" r="1" gradientUnits="userSpaceOnUse" gradientTransform="matrix(.62855 2.24328 -2.14025 .59968 20.618 14.52)"><stop offset=".856" stop-color="#9A676A" stop-opacity="0"/><stop offset="1" stop-color="#9A676A"/></radialGradient><radialGradient id="ao" cx="0" cy="0" r="1" gradientUnits="userSpaceOnUse" gradientTransform="matrix(.78778 -1.0811 .90618 .66032 20.978 15.064)"><stop offset=".664" stop-color="#9E6A5C"/><stop offset="1" stop-color="#9E6A5C" stop-opacity="0"/></radialGradient><radialGradient id="ap" cx="0" cy="0" r="1" gradientUnits="userSpaceOnUse" gradientTransform="matrix(.587 -1.55042 2.07158 .7843 21.092 15.236)"><stop offset=".803" stop-color="#A47F62" stop-opacity="0"/><stop offset="1" stop-color="#A47F62"/></radialGradient><radialGradient id="ar" cx="0" cy="0" r="1" gradientUnits="userSpaceOnUse" gradientTransform="matrix(-1.65825 0 0 -1.85168 11.085 15.16)"><stop offset=".778" stop-color="#9D7667" stop-opacity="0"/><stop offset="1" stop-color="#9D7667"/></radialGradient><radialGradient id="at" cx="0" cy="0" r="1" gradientUnits="userSpaceOnUse" gradientTransform="rotate(170.261 4.897 8.054) scale(.92988 .95342)"><stop stop-color="#714B4D"/><stop offset="1" stop-color="#784E52"/></radialGradient><radialGradient id="az" cx="0" cy="0" r="1" gradientUnits="userSpaceOnUse" gradientTransform="matrix(0 -12.3535 18.2706 0 15.953 14.155)"><stop offset=".775" stop-color="#403947" stop-opacity="0"/><stop offset="1" stop-color="#403947"/></radialGradient><radialGradient id="aA" cx="0" cy="0" r="1" gradientUnits="userSpaceOnUse" gradientTransform="rotate(-179.736 10.798 2.33) scale(6.78132 1.9151)"><stop stop-color="#686070"/><stop offset="1" stop-color="#686070" stop-opacity="0"/></radialGradient><radialGradient id="aF" cx="0" cy="0" r="1" gradientUnits="userSpaceOnUse" gradientTransform="matrix(0 1.46875 -.51569 0 21.381 16.27)"><stop stop-color="#F6DCF7"/><stop offset="1" stop-color="#F6DCF7" stop-opacity="0"/></radialGradient><linearGradient id="c" x1="9.026" y1="29.911" x2="9.233" y2="29.911" gradientUnits="userSpaceOnUse"><stop stop-color="#C2254A"/><stop offset="1" stop-color="#C2254A" stop-opacity="0"/></linearGradient><linearGradient id="d" x1="22.975" y1="29.911" x2="22.827" y2="29.911" gradientUnits="userSpaceOnUse"><stop offset=".118" stop-color="#FC356B"/><stop offset="1" stop-color="#FC356B" stop-opacity="0"/></linearGradient><linearGradient id="f" x1="9.397" y1="29.739" x2="8.084" y2="29.739" gradientUnits="userSpaceOnUse"><stop stop-color="#AC394E"/><stop offset="1" stop-color="#C9345B" stop-opacity="0"/></linearGradient><linearGradient id="x" x1="15.984" y1="23.197" x2="15.984" y2="29.911" gradientUnits="userSpaceOnUse"><stop stop-color="#DBB8DD"/><stop offset="1" stop-color="#D8BBEB"/></linearGradient><linearGradient id="y" x1="16.479" y1="27.271" x2="16.147" y2="27.271" gradientUnits="userSpaceOnUse"><stop stop-color="#EACCEB"/><stop offset="1" stop-color="#EACCEB" stop-opacity="0"/></linearGradient><linearGradient id="I" x1="21.157" y1="17.107" x2="18.628" y2="17.107" gradientUnits="userSpaceOnUse"><stop stop-color="#C2987E"/><stop offset="1" stop-color="#C2987E" stop-opacity="0"/></linearGradient><linearGradient id="Q" x1="16.047" y1="14.091" x2="16.047" y2="15.216" gradientUnits="userSpaceOnUse"><stop stop-color="#814D56"/><stop offset="1" stop-color="#956A63" stop-opacity="0"/></linearGradient><linearGradient id="T" x1="16.838" y1="16.096" x2="16" y2="16.169" gradientUnits="userSpaceOnUse"><stop stop-color="#BD957F"/><stop offset="1" stop-color="#BD957F" stop-opacity="0"/></linearGradient><linearGradient id="V" x1="16" y1="17.236" x2="16" y2="16.771" gradientUnits="userSpaceOnUse"><stop stop-color="#9C6376"/><stop offset="1" stop-color="#9C6376" stop-opacity="0"/></linearGradient><linearGradient id="Y" x1="16" y1="14.277" x2="16.279" y2="15.888" gradientUnits="userSpaceOnUse"><stop stop-color="#87545A"/><stop offset="1" stop-color="#87545A" stop-opacity="0"/></linearGradient><linearGradient id="aa" x1="14.798" y1="18.806" x2="15.117" y2="17.972" gradientUnits="userSpaceOnUse"><stop stop-color="#AB817B"/><stop offset="1" stop-color="#AB817B" stop-opacity="0"/></linearGradient><linearGradient id="ag" x1="18.96" y1="14.559" x2="18.646" y2="14.753" gradientUnits="userSpaceOnUse"><stop stop-color="#B4948D"/><stop offset="1" stop-color="#B4948D" stop-opacity="0"/></linearGradient><linearGradient id="aj" x1="14.562" y1="14.559" x2="14.248" y2="14.752" gradientUnits="userSpaceOnUse"><stop stop-color="#B4948D"/><stop offset="1" stop-color="#B4948D" stop-opacity="0"/></linearGradient><linearGradient id="am" x1="22.436" y1="14.586" x2="21.23" y2="16.762" gradientUnits="userSpaceOnUse"><stop stop-color="#C9A188"/><stop offset="1" stop-color="#B08175"/></linearGradient><linearGradient id="aq" x1="10.15" y1="15.29" x2="11.608" y2="15.163" gradientUnits="userSpaceOnUse"><stop stop-color="#855D5A"/><stop offset="1" stop-color="#7D4D5B"/></linearGradient><linearGradient id="av" x1="21.453" y1="14.277" x2="21.453" y2="16.035" gradientUnits="userSpaceOnUse"><stop stop-color="#AC7F6F"/><stop offset="1" stop-color="#AD806F"/></linearGradient><linearGradient id="ax" x1="19.866" y1="11.708" x2="12.584" y2="11.708" gradientUnits="userSpaceOnUse"><stop stop-color="#5D536A"/><stop offset=".554" stop-color="#4B3C5B"/><stop offset="1" stop-color="#393341"/></linearGradient><linearGradient id="ay" x1="9.709" y1="11.989" x2="12.428" y2="11.989" gradientUnits="userSpaceOnUse"><stop stop-color="#4D4C50"/><stop offset="1" stop-color="#393341" stop-opacity="0"/></linearGradient><linearGradient id="aB" x1="16.538" y1="14.155" x2="16.538" y2="13.88" gradientUnits="userSpaceOnUse"><stop stop-color="#462659"/><stop offset="1" stop-color="#462659" stop-opacity="0"/></linearGradient><linearGradient id="aD" x1="21.116" y1="18.489" x2="15.022" y2="18.489" gradientUnits="userSpaceOnUse"><stop stop-color="#DFC6ED"/><stop offset="1" stop-color="#C9B0D8"/></linearGradient><linearGradient id="aE" x1="15.94" y1="13.927" x2="15.94" y2="16.029" gradientUnits="userSpaceOnUse"><stop stop-color="#B593CF"/><stop offset="1" stop-color="#C7AED9" stop-opacity="0"/></linearGradient><filter id="i" x="8.464" y="20.061" width="4.755" height="3.491" filterUnits="userSpaceOnUse" color-interpolation-filters="sRGB"><feFlood flood-opacity="0" result="BackgroundImageFix"/><feBlend in="SourceGraphic" in2="BackgroundImageFix" result="shape"/><feColorMatrix in="SourceAlpha" values="0 0 0 0 0 0 0 0 0 0 0 0 0 0 0 0 0 0 127 0" result="hardAlpha"/><feOffset dx="-.25" dy="-.1"/><feGaussianBlur stdDeviation=".075"/><feComposite in2="hardAlpha" operator="arithmetic" k2="-1" k3="1"/><feColorMatrix values="0 0 0 0 0.262745 0 0 0 0 0.172549 0 0 0 0 0.309804 0 0 0 1 0"/><feBlend in2="shape" result="effect1_innerShadow_4002_2843"/></filter><filter id="l" x="18.753" y="19.961" width="4.705" height="3.591" filterUnits="userSpaceOnUse" color-interpolation-filters="sRGB"><feFlood flood-opacity="0" result="BackgroundImageFix"/><feBlend in="SourceGraphic" in2="BackgroundImageFix" result="shape"/><feColorMatrix in="SourceAlpha" values="0 0 0 0 0 0 0 0 0 0 0 0 0 0 0 0 0 0 127 0" result="hardAlpha"/><feOffset dx=".1" dy="-.2"/><feGaussianBlur stdDeviation=".15"/><feComposite in2="hardAlpha" operator="arithmetic" k2="-1" k3="1"/><feColorMatrix values="0 0 0 0 0.270588 0 0 0 0 0.172549 0 0 0 0 0.309804 0 0 0 1 0"/><feBlend in2="shape" result="effect1_innerShadow_4002_2843"/><feColorMatrix in="SourceAlpha" values="0 0 0 0 0 0 0 0 0 0 0 0 0 0 0 0 0 0 127 0" result="hardAlpha"/><feOffset dx=".1" dy="-.05"/><feGaussianBlur stdDeviation=".05"/><feComposite in2="hardAlpha" operator="arithmetic" k2="-1" k3="1"/><feColorMatrix values="0 0 0 0 0.266667 0 0 0 0 0.0666667 0 0 0 0 0.219608 0 0 0 1 0"/><feBlend in2="effect1_innerShadow_4002_2843" result="effect2_innerShadow_4002_2843"/></filter><filter id="o" x="8.842" y="21.167" width="2.189" height="2.153" filterUnits="userSpaceOnUse" color-interpolation-filters="sRGB"><feFlood flood-opacity="0" result="BackgroundImageFix"/><feBlend in="SourceGraphic" in2="BackgroundImageFix" result="shape"/><feGaussianBlur stdDeviation=".25" result="effect1_foregroundBlur_4002_2843"/></filter><filter id="q" x="21.111" y="21.394" width="1.692" height="1.595" filterUnits="userSpaceOnUse" color-interpolation-filters="sRGB"><feFlood flood-opacity="0" result="BackgroundImageFix"/><feBlend in="SourceGraphic" in2="BackgroundImageFix" result="shape"/><feGaussianBlur stdDeviation=".125" result="effect1_foregroundBlur_4002_2843"/></filter><filter id="s" x="12.072" y="14.827" width="7.744" height="9.694" filterUnits="userSpaceOnUse" color-interpolation-filters="sRGB"><feFlood flood-opacity="0" result="BackgroundImageFix"/><feBlend in="SourceGraphic" in2="BackgroundImageFix" result="shape"/><feColorMatrix in="SourceAlpha" values="0 0 0 0 0 0 0 0 0 0 0 0 0 0 0 0 0 0 127 0" result="hardAlpha"/><feOffset dx="-.1" dy="-.1"/><feGaussianBlur stdDeviation=".075"/><feComposite in2="hardAlpha" operator="arithmetic" k2="-1" k3="1"/><feColorMatrix values="0 0 0 0 0.439216 0 0 0 0 0.384314 0 0 0 0 0.47451 0 0 0 1 0"/><feBlend in2="shape" result="effect1_innerShadow_4002_2843"/><feColorMatrix in="SourceAlpha" values="0 0 0 0 0 0 0 0 0 0 0 0 0 0 0 0 0 0 127 0" result="hardAlpha"/><feOffset dx=".05" dy="-.1"/><feGaussianBlur stdDeviation=".075"/><feComposite in2="hardAlpha" operator="arithmetic" k2="-1" k3="1"/><feColorMatrix values="0 0 0 0 0.439216 0 0 0 0 0.384314 0 0 0 0 0.47451 0 0 0 1 0"/><feBlend in2="effect1_innerShadow_4002_2843" result="effect2_innerShadow_4002_2843"/><feColorMatrix in="SourceAlpha" values="0 0 0 0 0 0 0 0 0 0 0 0 0 0 0 0 0 0 127 0" result="hardAlpha"/><feOffset dy="-.1"/><feGaussianBlur stdDeviation=".05"/><feComposite in2="hardAlpha" operator="arithmetic" k2="-1" k3="1"/><feColorMatrix values="0 0 0 0 0.329412 0 0 0 0 0.172549 0 0 0 0 0.372549 0 0 0 1 0"/><feBlend in2="effect2_innerShadow_4002_2843" result="effect3_innerShadow_4002_2843"/></filter><filter id="z" x="16.395" y="27.4" width="2.09" height="2.09" filterUnits="userSpaceOnUse" color-interpolation-filters="sRGB"><feFlood flood-opacity="0" result="BackgroundImageFix"/><feBlend in="SourceGraphic" in2="BackgroundImageFix" result="shape"/><feGaussianBlur stdDeviation=".25" result="effect1_foregroundBlur_4002_2843"/></filter><filter id="A" x="16.395" y="24.4" width="2.09" height="2.09" filterUnits="userSpaceOnUse" color-interpolation-filters="sRGB"><feFlood flood-opacity="0" result="BackgroundImageFix"/><feBlend in="SourceGraphic" in2="BackgroundImageFix" result="shape"/><feGaussianBlur stdDeviation=".25" result="effect1_foregroundBlur_4002_2843"/></filter><filter id="F" x="10.537" y="8.851" width="11.62" height="12.842" filterUnits="userSpaceOnUse" color-interpolation-filters="sRGB"><feFlood flood-opacity="0" result="BackgroundImageFix"/><feBlend in="SourceGraphic" in2="BackgroundImageFix" result="shape"/><feColorMatrix in="SourceAlpha" values="0 0 0 0 0 0 0 0 0 0 0 0 0 0 0 0 0 0 127 0" result="hardAlpha"/><feOffset dx="1"/><feGaussianBlur stdDeviation=".7"/><feComposite in2="hardAlpha" operator="arithmetic" k2="-1" k3="1"/><feColorMatrix values="0 0 0 0 0.584314 0 0 0 0 0.427451 0 0 0 0 0.376471 0 0 0 1 0"/><feBlend in2="shape" result="effect1_innerShadow_4002_2843"/><feColorMatrix in="SourceAlpha" values="0 0 0 0 0 0 0 0 0 0 0 0 0 0 0 0 0 0 127 0" result="hardAlpha"/><feOffset dy=".1"/><feGaussianBlur stdDeviation=".2"/><feComposite in2="hardAlpha" operator="arithmetic" k2="-1" k3="1"/><feColorMatrix values="0 0 0 0 0.419608 0 0 0 0 0.25098 0 0 0 0 0.262745 0 0 0 1 0"/><feBlend in2="effect1_innerShadow_4002_2843" result="effect2_innerShadow_4002_2843"/><feColorMatrix in="SourceAlpha" values="0 0 0 0 0 0 0 0 0 0 0 0 0 0 0 0 0 0 127 0" result="hardAlpha"/><feOffset dx="-.6" dy="-.5"/><feGaussianBlur stdDeviation=".2"/><feComposite in2="hardAlpha" operator="arithmetic" k2="-1" k3="1"/><feColorMatrix values="0 0 0 0 0.47451 0 0 0 0 0.278431 0 0 0 0 0.301961 0 0 0 1 0"/><feBlend in2="effect2_innerShadow_4002_2843" result="effect3_innerShadow_4002_2843"/></filter><filter id="R" x="13.985" y="13.597" width="3.747" height="4.9" filterUnits="userSpaceOnUse" color-interpolation-filters="sRGB"><feFlood flood-opacity="0" result="BackgroundImageFix"/><feBlend in="SourceGraphic" in2="BackgroundImageFix" result="shape"/><feGaussianBlur stdDeviation=".5" result="effect1_foregroundBlur_4002_2843"/></filter><filter id="S" x="14.861" y="14.202" width="2.277" height="3.3" filterUnits="userSpaceOnUse" color-interpolation-filters="sRGB"><feFlood flood-opacity="0" result="BackgroundImageFix"/><feBlend in="SourceGraphic" in2="BackgroundImageFix" result="shape"/><feGaussianBlur stdDeviation=".1" result="effect1_foregroundBlur_4002_2843"/></filter><filter id="X" x="14.861" y="14.077" width="2.277" height="3.3" filterUnits="userSpaceOnUse" color-interpolation-filters="sRGB"><feFlood flood-opacity="0" result="BackgroundImageFix"/><feBlend in="SourceGraphic" in2="BackgroundImageFix" result="shape"/><feGaussianBlur stdDeviation=".1" result="effect1_foregroundBlur_4002_2843"/></filter><filter id="Z" x="14.141" y="17.722" width="3.718" height="1.573" filterUnits="userSpaceOnUse" color-interpolation-filters="sRGB"><feFlood flood-opacity="0" result="BackgroundImageFix"/><feBlend in="SourceGraphic" in2="BackgroundImageFix" result="shape"/><feGaussianBlur stdDeviation=".05" result="effect1_foregroundBlur_4002_2843"/></filter><filter id="ad" x="17.448" y="14.066" width=".787" height=".696" filterUnits="userSpaceOnUse" color-interpolation-filters="sRGB"><feFlood flood-opacity="0" result="BackgroundImageFix"/><feBlend in="SourceGraphic" in2="BackgroundImageFix" result="shape"/><feGaussianBlur stdDeviation=".05" result="effect1_foregroundBlur_4002_2843"/></filter><filter id="af" x="18.288" y="14.141" width=".891" height=".913" filterUnits="userSpaceOnUse" color-interpolation-filters="sRGB"><feFlood flood-opacity="0" result="BackgroundImageFix"/><feBlend in="SourceGraphic" in2="BackgroundImageFix" result="shape"/><feGaussianBlur stdDeviation=".1" result="effect1_foregroundBlur_4002_2843"/></filter><filter id="ai" x="13.845" y="14.077" width=".986" height="1.04" filterUnits="userSpaceOnUse" color-interpolation-filters="sRGB"><feFlood flood-opacity="0" result="BackgroundImageFix"/><feBlend in="SourceGraphic" in2="BackgroundImageFix" result="shape"/><feGaussianBlur stdDeviation=".1" result="effect1_foregroundBlur_4002_2843"/></filter><filter id="ak" x="13.09" y="14.057" width=".913" height=".705" filterUnits="userSpaceOnUse" color-interpolation-filters="sRGB"><feFlood flood-opacity="0" result="BackgroundImageFix"/><feBlend in="SourceGraphic" in2="BackgroundImageFix" result="shape"/><feGaussianBlur stdDeviation=".05" result="effect1_foregroundBlur_4002_2843"/></filter><filter id="as" x="9.919" y="13.973" width="1.329" height="2.379" filterUnits="userSpaceOnUse" color-interpolation-filters="sRGB"><feFlood flood-opacity="0" result="BackgroundImageFix"/><feBlend in="SourceGraphic" in2="BackgroundImageFix" result="shape"/><feGaussianBlur stdDeviation=".125" result="effect1_foregroundBlur_4002_2843"/></filter><filter id="au" x="20.55" y="13.777" width="1.806" height="2.758" filterUnits="userSpaceOnUse" color-interpolation-filters="sRGB"><feFlood flood-opacity="0" result="BackgroundImageFix"/><feBlend in="SourceGraphic" in2="BackgroundImageFix" result="shape"/><feGaussianBlur stdDeviation=".25" result="effect1_foregroundBlur_4002_2843"/></filter><filter id="aw" x="9.076" y="1.839" width="13.655" height="12.317" filterUnits="userSpaceOnUse" color-interpolation-filters="sRGB"><feFlood flood-opacity="0" result="BackgroundImageFix"/><feBlend in="SourceGraphic" in2="BackgroundImageFix" result="shape"/><feColorMatrix in="SourceAlpha" values="0 0 0 0 0 0 0 0 0 0 0 0 0 0 0 0 0 0 127 0" result="hardAlpha"/><feOffset dx="-.1" dy="-.25"/><feGaussianBlur stdDeviation=".25"/><feComposite in2="hardAlpha" operator="arithmetic" k2="-1" k3="1"/><feColorMatrix values="0 0 0 0 0.282353 0 0 0 0 0.203922 0 0 0 0 0.364706 0 0 0 1 0"/><feBlend in2="shape" result="effect1_innerShadow_4002_2843"/></filter><filter id="aC" x="10.499" y="14.056" width="10.882" height="7.996" filterUnits="userSpaceOnUse" color-interpolation-filters="sRGB"><feFlood flood-opacity="0" result="BackgroundImageFix"/><feBlend in="SourceGraphic" in2="BackgroundImageFix" result="shape"/><feColorMatrix in="SourceAlpha" values="0 0 0 0 0 0 0 0 0 0 0 0 0 0 0 0 0 0 127 0" result="hardAlpha"/><feOffset dy="-.1"/><feGaussianBlur stdDeviation=".1"/><feComposite in2="hardAlpha" operator="arithmetic" k2="-1" k3="1"/><feColorMatrix values="0 0 0 0 0.803922 0 0 0 0 0.635294 0 0 0 0 0.886275 0 0 0 1 0"/><feBlend in2="shape" result="effect1_innerShadow_4002_2843"/></filter></defs></svg>