<svg width="32" height="32" fill="none" xmlns="http://www.w3.org/2000/svg"><path d="M5.428 29.911h21.144c-.19-5.356-4.591-9.64-9.994-9.64h-1.156c-5.403 0-9.805 4.284-9.994 9.64Z" fill="url(#a)"/><path d="M5.428 29.911h21.144c-.19-5.356-4.591-9.64-9.994-9.64h-1.156c-5.403 0-9.805 4.284-9.994 9.64Z" fill="url(#b)"/><path d="M5.428 29.911h21.144c-.19-5.356-4.591-9.64-9.994-9.64h-1.156c-5.403 0-9.805 4.284-9.994 9.64Z" fill="url(#c)"/><path d="M5.428 29.911h21.144c-.19-5.356-4.591-9.64-9.994-9.64h-1.156c-5.403 0-9.805 4.284-9.994 9.64Z" fill="url(#d)"/><path d="M9.058 29.911h-3.63a9.98 9.98 0 0 1 3.63-7.355v7.355Z" fill="url(#e)"/><path d="M9.058 29.911h-3.63a9.98 9.98 0 0 1 3.63-7.355v7.355Z" fill="url(#f)"/><path d="M22.942 29.911h3.63a9.98 9.98 0 0 0-3.63-7.355v7.355Z" fill="url(#g)"/><path d="M22.942 29.911h3.63a9.98 9.98 0 0 0-3.63-7.355v7.355Z" fill="url(#h)"/><g filter="url(#i)"><path d="M11.926 20.161c-1.364.418-2.538 1.308-3.179 1.936a.462.462 0 0 0 .011.659l.65.649a.523.523 0 0 0 .704.02 12.252 12.252 0 0 1 3.107-1.857l-1.293-1.407Z" fill="url(#j)"/><path d="M11.926 20.161c-1.364.418-2.538 1.308-3.179 1.936a.462.462 0 0 0 .011.659l.65.649a.523.523 0 0 0 .704.02 12.252 12.252 0 0 1 3.107-1.857l-1.293-1.407Z" fill="url(#k)"/></g><g filter="url(#l)"><path d="M20.046 20.161c1.364.418 2.538 1.308 3.179 1.936a.461.461 0 0 1-.011.659l-.65.649a.523.523 0 0 1-.704.02 12.252 12.252 0 0 0-3.107-1.857l1.293-1.407Z" fill="#554B59"/><path d="M20.046 20.161c1.364.418 2.538 1.308 3.179 1.936a.461.461 0 0 1-.011.659l-.65.649a.523.523 0 0 1-.704.02 12.252 12.252 0 0 0-3.107-1.857l1.293-1.407Z" fill="url(#m)"/><path d="M20.046 20.161c1.364.418 2.538 1.308 3.179 1.936a.461.461 0 0 1-.011.659l-.65.649a.523.523 0 0 1-.704.02 12.252 12.252 0 0 0-3.107-1.857l1.293-1.407Z" fill="url(#n)"/></g><g filter="url(#o)"><path fill="#321F22" d="M9.45 22.66a.64.524-40.534 1 0 .974-.833.64.524-40.534 1 0-.974.833"/></g><path transform="rotate(-40.534 9.886 22.154)" fill="url(#p)" d="M9.245 22.154a.64.524 0 1 0 1.282 0 .64.524 0 1 0-1.282 0"/><g filter="url(#q)"><path fill="#3E3138" d="M22.48 22.562a.494.64-54.657 1 1-1.046-.741.494.64-54.657 1 1 1.046.741"/></g><path transform="scale(-1 1) rotate(-40.534 18.955 40.983)" fill="url(#r)" d="M-.64 0A.64.524 0 1 0 .64 0 .64.524 0 1 0-.64 0"/><g filter="url(#s)"><path fill="url(#t)" d="M15.969 14.927s3.797 0 3.797 3.797v2s0 3.797-3.797 3.797-3.797 0-3.797-3.797v-2s0-3.797 3.797-3.797"/><path fill="url(#u)" d="M15.969 14.927s3.797 0 3.797 3.797v2s0 3.797-3.797 3.797-3.797 0-3.797-3.797v-2s0-3.797 3.797-3.797"/><path fill="url(#v)" d="M15.969 14.927s3.797 0 3.797 3.797v2s0 3.797-3.797 3.797-3.797 0-3.797-3.797v-2s0-3.797 3.797-3.797"/></g><path fill="url(#w)" d="M15.867 18.099h.203s1.97 0 1.97 1.969v1.203s0 1.969-1.97 1.969h-.203s-1.968 0-1.968-1.97v-1.202s0-1.969 1.968-1.969"/><path d="M15.49 23.203v6.708h.989v-6.714a1.974 1.974 0 0 1-.409.042h-.203c-.129 0-.255-.012-.377-.036Z" fill="url(#x)"/><path d="M15.49 23.203v6.708h.989v-6.714a1.974 1.974 0 0 1-.409.042h-.203c-.129 0-.255-.012-.377-.036Z" fill="url(#y)"/><g filter="url(#z)"><path fill="#F6265E" d="M16.895 28.445a.545.545 0 1 0 1.09 0 .545.545 0 1 0-1.09 0"/></g><g filter="url(#A)"><path fill="#F6265E" d="M16.895 25.445a.545.545 0 1 0 1.09 0 .545.545 0 1 0-1.09 0"/></g><path fill="url(#B)" d="M16.95 28.374a.545.545 0 1 0 1.089 0 .545.545 0 1 0-1.09 0"/><path fill="url(#C)" d="M16.95 25.374a.545.545 0 1 0 1.089 0 .545.545 0 1 0-1.09 0"/><path d="M20.802 16.672c.335-.011.649-.125.904-.309v.931c0 .893-.532 1.689-1.34 2.019.17-.363.287-.758.345-1.18l.09-1.461Z" fill="url(#D)"/><path d="M11.08 16.672a1.64 1.64 0 0 1-.905-.309v.931c0 .893.532 1.689 1.34 2.019a4.085 4.085 0 0 1-.345-1.18l-.09-1.461Z" fill="url(#E)"/><path d="M11.08 16.672a1.64 1.64 0 0 1-.905-.309v.931c0 .893.532 1.689 1.34 2.019a4.085 4.085 0 0 1-.345-1.18l-.09-1.461Z" fill="url(#F)"/><path d="M11.08 16.672a1.64 1.64 0 0 1-.905-.309v.931c0 .893.532 1.689 1.34 2.019a4.085 4.085 0 0 1-.345-1.18l-.09-1.461Z" fill="url(#G)"/><path d="M11.08 16.672a1.64 1.64 0 0 1-.905-.309v.931c0 .893.532 1.689 1.34 2.019a4.085 4.085 0 0 1-.345-1.18l-.09-1.461Z" fill="url(#H)"/><g filter="url(#I)"><path d="M11.116 18.186A3.916 3.916 0 0 0 15 21.592h1.887a3.916 3.916 0 0 0 3.886-3.405c.118-1.884.236-3.76.324-5.643a1.45 1.45 0 0 0-1.38-1.432h-1.4c-.954 0-1.819-.563-2.211-1.443a.664.664 0 0 0-.615-.418h-1.273c-1.846 0-3.342 1.512-3.342 3.379 0 1.86.116 3.691.239 5.556Z" fill="url(#J)"/></g><path d="M11.116 18.186A3.916 3.916 0 0 0 15 21.592h1.887a3.916 3.916 0 0 0 3.886-3.405c.118-1.884.236-3.76.324-5.643a1.45 1.45 0 0 0-1.38-1.432h-1.4c-.954 0-1.819-.563-2.211-1.443a.664.664 0 0 0-.615-.418h-1.273c-1.846 0-3.342 1.512-3.342 3.379 0 1.86.116 3.691.239 5.556Z" fill="url(#K)"/><path d="M11.116 18.186A3.916 3.916 0 0 0 15 21.592h1.887a3.916 3.916 0 0 0 3.886-3.405c.118-1.884.236-3.76.324-5.643a1.45 1.45 0 0 0-1.38-1.432h-1.4c-.954 0-1.819-.563-2.211-1.443a.664.664 0 0 0-.615-.418h-1.273c-1.846 0-3.342 1.512-3.342 3.379 0 1.86.116 3.691.239 5.556Z" fill="url(#L)"/><path d="M11.116 18.186A3.916 3.916 0 0 0 15 21.592h1.887a3.916 3.916 0 0 0 3.886-3.405c.118-1.884.236-3.76.324-5.643a1.45 1.45 0 0 0-1.38-1.432h-1.4c-.954 0-1.819-.563-2.211-1.443a.664.664 0 0 0-.615-.418h-1.273c-1.846 0-3.342 1.512-3.342 3.379 0 1.86.116 3.691.239 5.556Z" fill="url(#M)"/><path d="M11.116 18.186A3.916 3.916 0 0 0 15 21.592h1.887a3.916 3.916 0 0 0 3.886-3.405c.118-1.884.236-3.76.324-5.643a1.45 1.45 0 0 0-1.38-1.432h-1.4c-.954 0-1.819-.563-2.211-1.443a.664.664 0 0 0-.615-.418h-1.273c-1.846 0-3.342 1.512-3.342 3.379 0 1.86.116 3.691.239 5.556Z" fill="url(#N)"/><path d="M11.116 18.186A3.916 3.916 0 0 0 15 21.592h1.887a3.916 3.916 0 0 0 3.886-3.405c.118-1.884.236-3.76.324-5.643a1.45 1.45 0 0 0-1.38-1.432h-1.4c-.954 0-1.819-.563-2.211-1.443a.664.664 0 0 0-.615-.418h-1.273c-1.846 0-3.342 1.512-3.342 3.379 0 1.86.116 3.691.239 5.556Z" fill="url(#O)"/><path d="M11.116 18.186A3.916 3.916 0 0 0 15 21.592h1.887a3.916 3.916 0 0 0 3.886-3.405c.118-1.884.236-3.76.324-5.643a1.45 1.45 0 0 0-1.38-1.432h-1.4c-.954 0-1.819-.563-2.211-1.443a.664.664 0 0 0-.615-.418h-1.273c-1.846 0-3.342 1.512-3.342 3.379 0 1.86.116 3.691.239 5.556Z" fill="url(#P)"/><path d="M11.116 18.186A3.916 3.916 0 0 0 15 21.592h1.887a3.916 3.916 0 0 0 3.886-3.405c.118-1.884.236-3.76.324-5.643a1.45 1.45 0 0 0-1.38-1.432h-1.4c-.954 0-1.819-.563-2.211-1.443a.664.664 0 0 0-.615-.418h-1.273c-1.846 0-3.342 1.512-3.342 3.379 0 1.86.116 3.691.239 5.556Z" fill="url(#Q)"/><path d="M11.116 18.186A3.916 3.916 0 0 0 15 21.592h1.887a3.916 3.916 0 0 0 3.886-3.405c.118-1.884.236-3.76.324-5.643a1.45 1.45 0 0 0-1.38-1.432h-1.4c-.954 0-1.819-.563-2.211-1.443a.664.664 0 0 0-.615-.418h-1.273c-1.846 0-3.342 1.512-3.342 3.379 0 1.86.116 3.691.239 5.556Z" fill="url(#R)"/><g filter="url(#S)"><path d="m15.51 15.086-.692 1.655c-.102.378.142.757.486.757h.735c.345 0 .588-.384.487-.757l-.497-1.838c-.106-.407-.408-.225-.52.183Z" fill="#C48377"/></g><g filter="url(#T)"><path d="m15.558 14.707-.531 1.838c-.109.378.152.757.52.757h.787c.368 0 .629-.384.52-.757l-.531-1.838c-.114-.407-.646-.407-.765 0Z" fill="url(#U)"/><path d="m15.558 14.707-.531 1.838c-.109.378.152.757.52.757h.787c.368 0 .629-.384.52-.757l-.531-1.838c-.114-.407-.646-.407-.765 0Z" fill="url(#V)"/><path d="m15.558 14.707-.531 1.838c-.109.378.152.757.52.757h.787c.368 0 .629-.384.52-.757l-.531-1.838c-.114-.407-.646-.407-.765 0Z" fill="url(#W)"/><path d="m15.558 14.707-.531 1.838c-.109.378.152.757.52.757h.787c.368 0 .629-.384.52-.757l-.531-1.838c-.114-.407-.646-.407-.765 0Z" fill="url(#X)"/></g><g filter="url(#Y)"><path d="m15.543 14.582-.531 1.839c-.109.378.152.756.52.756h.787c.369 0 .629-.384.52-.756l-.531-1.838c-.114-.408-.645-.408-.765 0Z" fill="url(#Z)"/></g><g filter="url(#aa)"><path d="M14.59 17.923a.228.228 0 0 0-.272.047.212.212 0 0 0-.023.27c.348.528.955.88 1.646.88.69 0 1.297-.352 1.645-.88a.214.214 0 0 0-.023-.272.228.228 0 0 0-.271-.045c-.39.203-.85.32-1.352.32a2.93 2.93 0 0 1-1.35-.32Z" stroke="url(#ab)" stroke-width=".15"/></g><path d="M15.94 18.318c-.507 0-.984-.12-1.385-.328-.137-.07-.284.084-.198.209.335.507.919.846 1.584.846.664 0 1.248-.339 1.583-.846.086-.13-.061-.279-.198-.21a2.99 2.99 0 0 1-1.386.33Z" fill="url(#ac)"/><path d="M18.331 13.757c.654 0 1.205.45 1.355 1.058a.274.274 0 0 1-.267.341h-2.232a.23.23 0 0 1-.227-.272c.126-.64.69-1.127 1.371-1.127Z" fill="#fff"/><path d="M18.125 14.029a.892.892 0 0 1 .86 1.127H17.26a.896.896 0 0 1 .864-1.128Z" fill="url(#ad)"/><path d="M17.613 14.921c0-.284.228-.511.512-.511a.51.51 0 0 1 .454.746h-.905a.462.462 0 0 1-.06-.235Z" fill="#000"/><g filter="url(#ae)"><path d="M18.059 14.217c.064.085-.07.189-.22.302-.152.113-.264.192-.327.107-.064-.085.007-.245.158-.358.151-.113.325-.136.389-.05Z" fill="#C7A7A3"/><path d="M18.059 14.217c.064.085-.07.189-.22.302-.152.113-.264.192-.327.107-.064-.085.007-.245.158-.358.151-.113.325-.136.389-.05Z" fill="url(#af)"/></g><g filter="url(#ag)"><path d="M18.92 14.803a.84.84 0 0 0-.232-.462l-.26.285.117.228.374-.05Z" fill="url(#ah)"/></g><path d="M13.55 13.757c-.654 0-1.205.45-1.355 1.058-.045.175.089.341.267.341h2.232a.23.23 0 0 0 .227-.272 1.401 1.401 0 0 0-1.371-1.127Z" fill="#fff"/><path d="M13.756 14.029a.893.893 0 0 0-.86 1.127h1.724a.914.914 0 0 0 .033-.235.899.899 0 0 0-.897-.892Z" fill="url(#ai)"/><path d="M14.268 14.921a.51.51 0 0 0-.512-.511.51.51 0 0 0-.454.746h.905a.507.507 0 0 0 .06-.235Z" fill="#000"/><g filter="url(#aj)"><path d="M14.572 14.816c0-.289-.235-.48-.298-.539l-.288.279.177.361.409-.101Z" fill="url(#ak)"/></g><g filter="url(#al)"><path fill="#C7A7A3" fill-opacity=".9" d="M13.143 14.592a.39.197-27.914 1 0 .688-.365.39.197-27.914 1 0-.688.365"/><path transform="rotate(-27.914 13.487 14.41)" fill="url(#am)" d="M13.098 14.41a.39.197 0 1 0 .779 0 .39.197 0 1 0-.78 0"/></g><path d="M20.862 16.763c.066-1.064.13-2.127.185-3.192a1.61 1.61 0 0 1-.185 3.192Z" fill="url(#an)"/><path d="M20.862 16.763c.066-1.064.13-2.127.185-3.192a1.61 1.61 0 0 1-.185 3.192Z" fill="url(#ao)"/><path d="M20.862 16.763c.066-1.064.13-2.127.185-3.192a1.61 1.61 0 0 1-.185 3.192Z" fill="url(#ap)"/><path d="M10.886 13.563a1.61 1.61 0 0 0 .139 3.2 77.956 77.956 0 0 1-.139-3.2Z" fill="url(#aq)"/><path d="M10.886 13.563a1.61 1.61 0 0 0 .139 3.2 77.956 77.956 0 0 1-.139-3.2Z" fill="url(#ar)"/><g filter="url(#as)"><path d="M10.903 14.224a.956.956 0 0 0 .084 1.88 78.174 78.174 0 0 1-.084-1.88Z" fill="#B57562"/></g><g filter="url(#at)"><path d="M20.902 16.112c.039-.635.076-1.27.111-1.904a.956.956 0 0 1-.11 1.904Z" fill="#E6AA8B"/></g><g filter="url(#au)"><path d="M10.31 14.155c-.278-.016-.842-.08-1.054-.728-.11-.37.082-.779.143-.91a1.317 1.317 0 0 1 .024-.05c.061-.12.152-.296-.02-.576-.193-.313-.375-.615-.045-1.257.207-.405.093-.652-.032-.875-.183-.327-.166-.604 0-.938.07-.143.173-.275.173-.472 0-.198-.07-.335-.141-.474-.074-.143-.148-.289-.148-.504 0-.23.084-.398.161-.554.066-.133.128-.257.128-.402 0-.129-.06-.24-.125-.364-.094-.178-.201-.38-.164-.69.071-.59.537-.787.756-.879l.02-.008c.21-.089.364-.163.452-.58.046-.215.132-.502.293-.663a1.06 1.06 0 0 1 .791-.3c.257.007.535-.03.752-.254.217-.225.458-.413.699-.453.24-.04.471.014.725.144.281.145.567.07.705-.035.34-.262.718-.32 1.158-.141.18.072.295.112.394.112.098 0 .214-.04.393-.112.44-.18.819-.12 1.159.141.137.106.423.18.704.035.254-.13.484-.184.725-.144.241.04.483.228.7.453.216.225.494.261.75.253a1.06 1.06 0 0 1 .793.301c.16.161.246.448.292.663.088.417.243.491.452.58l.02.008c.219.092.685.288.756.878.038.31-.07.513-.164.69-.065.124-.125.236-.125.365 0 .145.062.269.128.402.078.156.161.324.161.554 0 .215-.074.36-.147.504a.935.935 0 0 0-.105.466c0 .528.496.742.176 1.422-.125.223-.324.455-.117.86.33.641.193.955 0 1.268-.171.28-.081.457-.02.577l.02.041.005.009c.06.13.252.54.142.909-.212.649-.775.712-1.054.728H10.31Z" fill="url(#av)"/><path d="M10.31 14.155c-.278-.016-.842-.08-1.054-.728-.11-.37.082-.779.143-.91a1.317 1.317 0 0 1 .024-.05c.061-.12.152-.296-.02-.576-.193-.313-.375-.615-.045-1.257.207-.405.093-.652-.032-.875-.183-.327-.166-.604 0-.938.07-.143.173-.275.173-.472 0-.198-.07-.335-.141-.474-.074-.143-.148-.289-.148-.504 0-.23.084-.398.161-.554.066-.133.128-.257.128-.402 0-.129-.06-.24-.125-.364-.094-.178-.201-.38-.164-.69.071-.59.537-.787.756-.879l.02-.008c.21-.089.364-.163.452-.58.046-.215.132-.502.293-.663a1.06 1.06 0 0 1 .791-.3c.257.007.535-.03.752-.254.217-.225.458-.413.699-.453.24-.04.471.014.725.144.281.145.567.07.705-.035.34-.262.718-.32 1.158-.141.18.072.295.112.394.112.098 0 .214-.04.393-.112.44-.18.819-.12 1.159.141.137.106.423.18.704.035.254-.13.484-.184.725-.144.241.04.483.228.7.453.216.225.494.261.75.253a1.06 1.06 0 0 1 .793.301c.16.161.246.448.292.663.088.417.243.491.452.58l.02.008c.219.092.685.288.756.878.038.31-.07.513-.164.69-.065.124-.125.236-.125.365 0 .145.062.269.128.402.078.156.161.324.161.554 0 .215-.074.36-.147.504a.935.935 0 0 0-.105.466c0 .528.496.742.176 1.422-.125.223-.324.455-.117.86.33.641.193.955 0 1.268-.171.28-.081.457-.02.577l.02.041.005.009c.06.13.252.54.142.909-.212.649-.775.712-1.054.728H10.31Z" fill="url(#aw)"/></g><path d="M10.31 14.155c-.278-.016-.842-.08-1.054-.728-.11-.37.082-.779.143-.91a1.317 1.317 0 0 1 .024-.05c.061-.12.152-.296-.02-.576-.193-.313-.375-.615-.045-1.257.207-.405.093-.652-.032-.875-.183-.327-.166-.604 0-.938.07-.143.173-.275.173-.472 0-.198-.07-.335-.141-.474-.074-.143-.148-.289-.148-.504 0-.23.084-.398.161-.554.066-.133.128-.257.128-.402 0-.129-.06-.24-.125-.364-.094-.178-.201-.38-.164-.69.071-.59.537-.787.756-.879l.02-.008c.21-.089.364-.163.452-.58.046-.215.132-.502.293-.663a1.06 1.06 0 0 1 .791-.3c.257.007.535-.03.752-.254.217-.225.458-.413.699-.453.24-.04.471.014.725.144.281.145.567.07.705-.035.34-.262.718-.32 1.158-.141.18.072.295.112.394.112.098 0 .214-.04.393-.112.44-.18.819-.12 1.159.141.137.106.423.18.704.035.254-.13.484-.184.725-.144.241.04.483.228.7.453.216.225.494.261.75.253a1.06 1.06 0 0 1 .793.301c.16.161.246.448.292.663.088.417.243.491.452.58l.02.008c.219.092.685.288.756.878.038.31-.07.513-.164.69-.065.124-.125.236-.125.365 0 .145.062.269.128.402.078.156.161.324.161.554 0 .215-.074.36-.147.504a.935.935 0 0 0-.105.466c0 .528.496.742.176 1.422-.125.223-.324.455-.117.86.33.641.193.955 0 1.268-.171.28-.081.457-.02.577l.02.041.005.009c.06.13.252.54.142.909-.212.649-.775.712-1.054.728H10.31Z" fill="url(#ax)"/><path d="M10.31 14.155c-.278-.016-.842-.08-1.054-.728-.11-.37.082-.779.143-.91a1.317 1.317 0 0 1 .024-.05c.061-.12.152-.296-.02-.576-.193-.313-.375-.615-.045-1.257.207-.405.093-.652-.032-.875-.183-.327-.166-.604 0-.938.07-.143.173-.275.173-.472 0-.198-.07-.335-.141-.474-.074-.143-.148-.289-.148-.504 0-.23.084-.398.161-.554.066-.133.128-.257.128-.402 0-.129-.06-.24-.125-.364-.094-.178-.201-.38-.164-.69.071-.59.537-.787.756-.879l.02-.008c.21-.089.364-.163.452-.58.046-.215.132-.502.293-.663a1.06 1.06 0 0 1 .791-.3c.257.007.535-.03.752-.254.217-.225.458-.413.699-.453.24-.04.471.014.725.144.281.145.567.07.705-.035.34-.262.718-.32 1.158-.141.18.072.295.112.394.112.098 0 .214-.04.393-.112.44-.18.819-.12 1.159.141.137.106.423.18.704.035.254-.13.484-.184.725-.144.241.04.483.228.7.453.216.225.494.261.75.253a1.06 1.06 0 0 1 .793.301c.16.161.246.448.292.663.088.417.243.491.452.58l.02.008c.219.092.685.288.756.878.038.31-.07.513-.164.69-.065.124-.125.236-.125.365 0 .145.062.269.128.402.078.156.161.324.161.554 0 .215-.074.36-.147.504a.935.935 0 0 0-.105.466c0 .528.496.742.176 1.422-.125.223-.324.455-.117.86.33.641.193.955 0 1.268-.171.28-.081.457-.02.577l.02.041.005.009c.06.13.252.54.142.909-.212.649-.775.712-1.054.728H10.31Z" fill="url(#ay)"/><path d="M10.31 14.155c-.278-.016-.842-.08-1.054-.728-.11-.37.082-.779.143-.91a1.317 1.317 0 0 1 .024-.05c.061-.12.152-.296-.02-.576-.193-.313-.375-.615-.045-1.257.207-.405.093-.652-.032-.875-.183-.327-.166-.604 0-.938.07-.143.173-.275.173-.472 0-.198-.07-.335-.141-.474-.074-.143-.148-.289-.148-.504 0-.23.084-.398.161-.554.066-.133.128-.257.128-.402 0-.129-.06-.24-.125-.364-.094-.178-.201-.38-.164-.69.071-.59.537-.787.756-.879l.02-.008c.21-.089.364-.163.452-.58.046-.215.132-.502.293-.663a1.06 1.06 0 0 1 .791-.3c.257.007.535-.03.752-.254.217-.225.458-.413.699-.453.24-.04.471.014.725.144.281.145.567.07.705-.035.34-.262.718-.32 1.158-.141.18.072.295.112.394.112.098 0 .214-.04.393-.112.44-.18.819-.12 1.159.141.137.106.423.18.704.035.254-.13.484-.184.725-.144.241.04.483.228.7.453.216.225.494.261.75.253a1.06 1.06 0 0 1 .793.301c.16.161.246.448.292.663.088.417.243.491.452.58l.02.008c.219.092.685.288.756.878.038.31-.07.513-.164.69-.065.124-.125.236-.125.365 0 .145.062.269.128.402.078.156.161.324.161.554 0 .215-.074.36-.147.504a.935.935 0 0 0-.105.466c0 .528.496.742.176 1.422-.125.223-.324.455-.117.86.33.641.193.955 0 1.268-.171.28-.081.457-.02.577l.02.041.005.009c.06.13.252.54.142.909-.212.649-.775.712-1.054.728H10.31Z" fill="url(#az)"/><g filter="url(#aA)"><path d="m10.5 14.155.12 3.519c.082 2.424 2.07 4.378 4.497 4.378h1.677c2.44 0 4.435-1.976 4.498-4.416l.09-3.48h-.909l-.12 3.48c-.049 1.898-1.662 3.486-3.56 3.486h-1.676c-1.887 0-3.489-1.597-3.553-3.482l-.09-3.485H10.5Z" fill="url(#aB)"/><path d="m10.5 14.155.12 3.519c.082 2.424 2.07 4.378 4.497 4.378h1.677c2.44 0 4.435-1.976 4.498-4.416l.09-3.48h-.909l-.12 3.48c-.049 1.898-1.662 3.486-3.56 3.486h-1.676c-1.887 0-3.489-1.597-3.553-3.482l-.09-3.485H10.5Z" fill="url(#aC)"/><path d="m10.5 14.155.12 3.519c.082 2.424 2.07 4.378 4.497 4.378h1.677c2.44 0 4.435-1.976 4.498-4.416l.09-3.48h-.909l-.12 3.48c-.049 1.898-1.662 3.486-3.56 3.486h-1.676c-1.887 0-3.489-1.597-3.553-3.482l-.09-3.485H10.5Z" fill="url(#aD)"/></g><defs><radialGradient id="a" cx="0" cy="0" r="1" gradientUnits="userSpaceOnUse" gradientTransform="matrix(0 7.71875 -19.3424 0 16 26.99)"><stop offset=".315" stop-color="#F73C71"/><stop offset="1" stop-color="#D6274F"/></radialGradient><radialGradient id="b" cx="0" cy="0" r="1" gradientUnits="userSpaceOnUse" gradientTransform="matrix(-2.6875 0 0 -8.81836 22.928 27.146)"><stop offset=".24" stop-color="#FF6085"/><stop offset="1" stop-color="#FF6085" stop-opacity="0"/></radialGradient><radialGradient id="e" cx="0" cy="0" r="1" gradientUnits="userSpaceOnUse" gradientTransform="matrix(1.96876 -8.07812 2.82155 .68765 6.74 29.911)"><stop offset=".232" stop-color="#E43669"/><stop offset="1" stop-color="#B13B50"/></radialGradient><radialGradient id="g" cx="0" cy="0" r="1" gradientUnits="userSpaceOnUse" gradientTransform="rotate(-101.449 24.978 4.727) scale(7.55662 1.96679)"><stop stop-color="#FF5C85"/><stop offset="1" stop-color="#E34C67"/></radialGradient><radialGradient id="h" cx="0" cy="0" r="1" gradientUnits="userSpaceOnUse" gradientTransform="matrix(0 -11.366 .65507 0 22.942 29.911)"><stop offset=".443" stop-color="#E11C59"/><stop offset="1" stop-color="#EE5076" stop-opacity="0"/></radialGradient><radialGradient id="j" cx="0" cy="0" r="1" gradientUnits="userSpaceOnUse" gradientTransform="matrix(1.35937 1.64062 -3.29137 2.72714 9.71 21.208)"><stop stop-color="#454048"/><stop offset="1" stop-color="#382834"/></radialGradient><radialGradient id="k" cx="0" cy="0" r="1" gradientUnits="userSpaceOnUse" gradientTransform="matrix(1.78125 1.85937 -.47826 .45816 8.381 22.458)"><stop offset=".435" stop-color="#4B4551"/><stop offset="1" stop-color="#4B4551" stop-opacity="0"/></radialGradient><radialGradient id="m" cx="0" cy="0" r="1" gradientUnits="userSpaceOnUse" gradientTransform="matrix(1.3125 .25 -.73637 3.86594 19.569 21.146)"><stop offset=".032" stop-color="#513F4E"/><stop offset="1" stop-color="#513F4E" stop-opacity="0"/></radialGradient><radialGradient id="n" cx="0" cy="0" r="1" gradientUnits="userSpaceOnUse" gradientTransform="rotate(138.094 7.499 15.6) scale(1.63757 .24529)"><stop stop-color="#5E5864"/><stop offset="1" stop-color="#5E5864" stop-opacity="0"/></radialGradient><radialGradient id="p" cx="0" cy="0" r="1" gradientUnits="userSpaceOnUse" gradientTransform="rotate(-169.136 6.388 10.772) scale(1.64141 .91814)"><stop offset=".525" stop-color="#CC981A"/><stop offset="1" stop-color="#DCB144"/></radialGradient><radialGradient id="r" cx="0" cy="0" r="1" gradientUnits="userSpaceOnUse" gradientTransform="matrix(.678 .80592 -1.4278 1.20118 .1 .257)"><stop stop-color="#FFFF50"/><stop offset="1" stop-color="#F6CF1C"/></radialGradient><radialGradient id="t" cx="0" cy="0" r="1" gradientUnits="userSpaceOnUse" gradientTransform="matrix(-2.68749 -3.76563 4.9287 -3.51755 18.1 23.911)"><stop stop-color="#5D4364"/><stop offset="1" stop-color="#482949"/></radialGradient><radialGradient id="u" cx="0" cy="0" r="1" gradientUnits="userSpaceOnUse" gradientTransform="matrix(-.39844 0 0 -.91123 15.538 23.763)"><stop offset=".244" stop-color="#4A2E4F"/><stop offset="1" stop-color="#4A2E4F" stop-opacity="0"/></radialGradient><radialGradient id="v" cx="0" cy="0" r="1" gradientUnits="userSpaceOnUse" gradientTransform="rotate(112.38 -.17 15.586) scale(1.14905 2.6882)"><stop stop-color="#452139"/><stop offset="1" stop-color="#452139" stop-opacity="0"/></radialGradient><radialGradient id="w" cx="0" cy="0" r="1" gradientUnits="userSpaceOnUse" gradientTransform="matrix(1.0625 1.35937 -2.23489 1.7468 15.678 22.02)"><stop stop-color="#C47480"/><stop offset="1" stop-color="#D4968B"/></radialGradient><radialGradient id="B" cx="0" cy="0" r="1" gradientUnits="userSpaceOnUse" gradientTransform="matrix(-.71875 .59375 -.75915 -.91896 17.85 28.161)"><stop stop-color="#FFF153"/><stop offset="1" stop-color="#FCA239"/></radialGradient><radialGradient id="C" cx="0" cy="0" r="1" gradientUnits="userSpaceOnUse" gradientTransform="matrix(-.71875 .59375 -.75915 -.91896 17.85 25.161)"><stop stop-color="#FFF153"/><stop offset="1" stop-color="#FCA239"/></radialGradient><radialGradient id="D" cx="0" cy="0" r="1" gradientUnits="userSpaceOnUse" gradientTransform="rotate(99.782 3.878 17.112) scale(3.58661 4.26061)"><stop offset=".28" stop-color="#F7BF94"/><stop offset="1" stop-color="#DA8F78"/></radialGradient><radialGradient id="E" cx="0" cy="0" r="1" gradientUnits="userSpaceOnUse" gradientTransform="rotate(64.592 -7.84 16.461) scale(2.96898 1.34954)"><stop stop-color="#F8BF95"/><stop offset="1" stop-color="#DC998E"/></radialGradient><radialGradient id="F" cx="0" cy="0" r="1" gradientUnits="userSpaceOnUse" gradientTransform="rotate(81.457 -3.855 14.638) scale(1.20702 1.05881)"><stop offset=".263" stop-color="#D79B77"/><stop offset="1" stop-color="#D79B77" stop-opacity="0"/></radialGradient><radialGradient id="G" cx="0" cy="0" r="1" gradientUnits="userSpaceOnUse" gradientTransform="rotate(64.592 -7.84 16.461) scale(2.96898 1.34954)"><stop stop-color="#F8BF95"/><stop offset="1" stop-color="#DC998E"/></radialGradient><radialGradient id="H" cx="0" cy="0" r="1" gradientUnits="userSpaceOnUse" gradientTransform="rotate(81.457 -3.855 14.638) scale(1.20702 1.05881)"><stop offset=".263" stop-color="#D79B77"/><stop offset="1" stop-color="#D79B77" stop-opacity="0"/></radialGradient><radialGradient id="J" cx="0" cy="0" r="1" gradientUnits="userSpaceOnUse" gradientTransform="rotate(-174.554 10.188 7.535) scale(6.12174 10.8293)"><stop stop-color="#FFC59F"/><stop offset="1" stop-color="#C68981"/></radialGradient><radialGradient id="K" cx="0" cy="0" r="1" gradientUnits="userSpaceOnUse" gradientTransform="matrix(-1.14299 12.963 -10.73495 -.94653 17.522 9.508)"><stop offset=".778" stop-color="#C9937F" stop-opacity="0"/><stop offset="1" stop-color="#B36E91"/></radialGradient><radialGradient id="L" cx="0" cy="0" r="1" gradientUnits="userSpaceOnUse" gradientTransform="matrix(0 -1.34091 1.65937 0 18.388 14.301)"><stop offset=".325" stop-color="#E4A38D"/><stop offset="1" stop-color="#E4A38D" stop-opacity="0"/></radialGradient><radialGradient id="M" cx="0" cy="0" r="1" gradientUnits="userSpaceOnUse" gradientTransform="rotate(-93.012 13.57 .582) scale(1.10493 1.20242)"><stop offset=".378" stop-color="#C2847C"/><stop offset="1" stop-color="#C2847C" stop-opacity="0"/></radialGradient><radialGradient id="N" cx="0" cy="0" r="1" gradientUnits="userSpaceOnUse" gradientTransform="matrix(1.20682 0 0 6.13397 11.06 15.806)"><stop stop-color="#DBA085"/><stop offset="1" stop-color="#DBA085" stop-opacity="0"/></radialGradient><radialGradient id="O" cx="0" cy="0" r="1" gradientUnits="userSpaceOnUse" gradientTransform="matrix(2.61477 -3.65397 .82763 .59225 10.088 12.42)"><stop offset=".451" stop-color="#B67459"/><stop offset="1" stop-color="#B67459" stop-opacity="0"/></radialGradient><radialGradient id="P" cx="0" cy="0" r="1" gradientUnits="userSpaceOnUse" gradientTransform="matrix(-2.4136 -10.24298 11.2829 -2.65864 15.786 19.494)"><stop offset=".924" stop-color="#C17F5F" stop-opacity="0"/><stop offset="1" stop-color="#C17F5F"/></radialGradient><radialGradient id="Q" cx="0" cy="0" r="1" gradientUnits="userSpaceOnUse" gradientTransform="matrix(2.04488 .72074 -.43236 1.2267 17.898 10.04)"><stop offset=".258" stop-color="#C17F5F"/><stop offset="1" stop-color="#C17F5F" stop-opacity="0"/></radialGradient><radialGradient id="ab" cx="0" cy="0" r="1" gradientUnits="userSpaceOnUse" gradientTransform="rotate(-60.732 23.374 -3.286) scale(.7101 2.06639)"><stop stop-color="#E1A99D"/><stop offset="1" stop-color="#E1A99D" stop-opacity="0"/></radialGradient><radialGradient id="ac" cx="0" cy="0" r="1" gradientUnits="userSpaceOnUse" gradientTransform="matrix(0 -.72074 2.89971 0 15.94 18.96)"><stop stop-color="#89024E"/><stop offset="1" stop-color="#87004D"/></radialGradient><radialGradient id="ad" cx="0" cy="0" r="1" gradientUnits="userSpaceOnUse" gradientTransform="matrix(0 -1.17408 1.6093 0 18.122 15.156)"><stop offset=".548" stop-color="#734B48"/><stop offset=".887" stop-color="#4A2D33"/></radialGradient><radialGradient id="af" cx="0" cy="0" r="1" gradientUnits="userSpaceOnUse" gradientTransform="matrix(-.23192 -.29886 .41146 -.3193 17.894 14.59)"><stop offset=".766" stop-color="#FFE6E2" stop-opacity="0"/><stop offset=".966" stop-color="#FFE6E2"/></radialGradient><radialGradient id="ai" cx="0" cy="0" r="1" gradientUnits="userSpaceOnUse" gradientTransform="matrix(0 -1.17414 1.60939 0 13.758 15.156)"><stop offset=".548" stop-color="#734B48"/><stop offset=".887" stop-color="#4A2D33"/></radialGradient><radialGradient id="am" cx="0" cy="0" r="1" gradientUnits="userSpaceOnUse" gradientTransform="rotate(-90.897 13.984 .731) scale(.49415 .59398)"><stop offset=".766" stop-color="#FFE6E2" stop-opacity="0"/><stop offset=".966" stop-color="#FFE6E2"/></radialGradient><radialGradient id="ao" cx="0" cy="0" r="1" gradientUnits="userSpaceOnUse" gradientTransform="rotate(74.347 .706 20.815) scale(2.32967 2.22269)"><stop offset=".856" stop-color="#CE8D79" stop-opacity="0"/><stop offset="1" stop-color="#CE8D79"/></radialGradient><radialGradient id="ap" cx="0" cy="0" r="1" gradientUnits="userSpaceOnUse" gradientTransform="matrix(.78778 -1.0811 .90618 .66032 20.919 15.064)"><stop offset=".664" stop-color="#E3A17B"/><stop offset="1" stop-color="#E3A17B" stop-opacity="0"/></radialGradient><radialGradient id="ar" cx="0" cy="0" r="1" gradientUnits="userSpaceOnUse" gradientTransform="rotate(-171.68 6.064 7.18) scale(1.69283 1.66421)"><stop offset=".775" stop-color="#DCA187" stop-opacity="0"/><stop offset="1" stop-color="#C77937"/><stop offset="1" stop-color="#DCA187"/></radialGradient><radialGradient id="ax" cx="0" cy="0" r="1" gradientUnits="userSpaceOnUse" gradientTransform="matrix(0 -12.3535 18.2706 0 15.953 14.155)"><stop offset=".775" stop-color="#403947" stop-opacity="0"/><stop offset="1" stop-color="#403947"/></radialGradient><radialGradient id="ay" cx="0" cy="0" r="1" gradientUnits="userSpaceOnUse" gradientTransform="rotate(-179.736 10.798 2.33) scale(6.78132 1.9151)"><stop stop-color="#686070"/><stop offset="1" stop-color="#686070" stop-opacity="0"/></radialGradient><radialGradient id="aD" cx="0" cy="0" r="1" gradientUnits="userSpaceOnUse" gradientTransform="matrix(0 1.46875 -.51569 0 21.381 16.27)"><stop stop-color="#F6DCF7"/><stop offset="1" stop-color="#F6DCF7" stop-opacity="0"/></radialGradient><linearGradient id="c" x1="9.026" y1="29.911" x2="9.233" y2="29.911" gradientUnits="userSpaceOnUse"><stop stop-color="#C2254A"/><stop offset="1" stop-color="#C2254A" stop-opacity="0"/></linearGradient><linearGradient id="d" x1="22.975" y1="29.911" x2="22.827" y2="29.911" gradientUnits="userSpaceOnUse"><stop offset=".118" stop-color="#FC356B"/><stop offset="1" stop-color="#FC356B" stop-opacity="0"/></linearGradient><linearGradient id="f" x1="9.397" y1="29.739" x2="8.084" y2="29.739" gradientUnits="userSpaceOnUse"><stop stop-color="#AC394E"/><stop offset="1" stop-color="#C9345B" stop-opacity="0"/></linearGradient><linearGradient id="x" x1="15.984" y1="23.197" x2="15.984" y2="29.911" gradientUnits="userSpaceOnUse"><stop stop-color="#DBB8DD"/><stop offset="1" stop-color="#D8BBEB"/></linearGradient><linearGradient id="y" x1="16.479" y1="27.271" x2="16.147" y2="27.271" gradientUnits="userSpaceOnUse"><stop stop-color="#EACCEB"/><stop offset="1" stop-color="#EACCEB" stop-opacity="0"/></linearGradient><linearGradient id="R" x1="15.988" y1="14.002" x2="15.988" y2="14.877" gradientUnits="userSpaceOnUse"><stop offset=".035" stop-color="#BF7872"/><stop offset="1" stop-color="#BF7872" stop-opacity="0"/></linearGradient><linearGradient id="U" x1="15.941" y1="16.25" x2="16.795" y2="16.25" gradientUnits="userSpaceOnUse"><stop stop-color="#E1AA8C"/><stop offset="1" stop-color="#FECAA8"/></linearGradient><linearGradient id="V" x1="14.868" y1="16.095" x2="15.942" y2="16.154" gradientUnits="userSpaceOnUse"><stop stop-color="#D29879" stop-opacity=".915"/><stop offset=".203" stop-color="#D29879"/><stop offset="1" stop-color="#D29879" stop-opacity="0"/></linearGradient><linearGradient id="W" x1="15.941" y1="16.649" x2="15.941" y2="17.501" gradientUnits="userSpaceOnUse"><stop stop-color="#CB8685" stop-opacity="0"/><stop offset=".845" stop-color="#CB8685"/></linearGradient><linearGradient id="X" x1="15.941" y1="14.402" x2="15.941" y2="14.821" gradientUnits="userSpaceOnUse"><stop stop-color="#E0A78C"/><stop offset="1" stop-color="#E0A78C" stop-opacity="0"/></linearGradient><linearGradient id="Z" x1="15.926" y1="14.277" x2="15.99" y2="15.464" gradientUnits="userSpaceOnUse"><stop stop-color="#C8847A"/><stop offset="1" stop-color="#C8847A" stop-opacity="0"/></linearGradient><linearGradient id="ah" x1="18.9" y1="14.559" x2="18.587" y2="14.753" gradientUnits="userSpaceOnUse"><stop stop-color="#B4948D"/><stop offset="1" stop-color="#B4948D" stop-opacity="0"/></linearGradient><linearGradient id="ak" x1="14.502" y1="14.559" x2="14.188" y2="14.752" gradientUnits="userSpaceOnUse"><stop stop-color="#B4948D"/><stop offset="1" stop-color="#B4948D" stop-opacity="0"/></linearGradient><linearGradient id="an" x1="22.377" y1="14.587" x2="21.17" y2="16.763" gradientUnits="userSpaceOnUse"><stop stop-color="#F8C5A2"/><stop offset="1" stop-color="#E0A48C"/></linearGradient><linearGradient id="aq" x1="10.091" y1="15.291" x2="11.549" y2="15.163" gradientUnits="userSpaceOnUse"><stop stop-color="#C48874"/><stop offset="1" stop-color="#BD776C"/></linearGradient><linearGradient id="av" x1="19.866" y1="11.708" x2="12.584" y2="11.708" gradientUnits="userSpaceOnUse"><stop stop-color="#5D536A"/><stop offset=".554" stop-color="#4B3C5B"/><stop offset="1" stop-color="#393341"/></linearGradient><linearGradient id="aw" x1="9.709" y1="11.989" x2="12.428" y2="11.989" gradientUnits="userSpaceOnUse"><stop stop-color="#4D4C50"/><stop offset="1" stop-color="#393341" stop-opacity="0"/></linearGradient><linearGradient id="az" x1="16.538" y1="14.155" x2="16.538" y2="13.88" gradientUnits="userSpaceOnUse"><stop stop-color="#462659"/><stop offset="1" stop-color="#462659" stop-opacity="0"/></linearGradient><linearGradient id="aB" x1="21.116" y1="18.489" x2="15.022" y2="18.489" gradientUnits="userSpaceOnUse"><stop stop-color="#DFC6ED"/><stop offset="1" stop-color="#C9B0D8"/></linearGradient><linearGradient id="aC" x1="15.94" y1="13.927" x2="15.94" y2="16.029" gradientUnits="userSpaceOnUse"><stop stop-color="#B593CF"/><stop offset="1" stop-color="#C7AED9" stop-opacity="0"/></linearGradient><filter id="i" x="8.464" y="20.061" width="4.755" height="3.491" filterUnits="userSpaceOnUse" color-interpolation-filters="sRGB"><feFlood flood-opacity="0" result="BackgroundImageFix"/><feBlend in="SourceGraphic" in2="BackgroundImageFix" result="shape"/><feColorMatrix in="SourceAlpha" values="0 0 0 0 0 0 0 0 0 0 0 0 0 0 0 0 0 0 127 0" result="hardAlpha"/><feOffset dx="-.25" dy="-.1"/><feGaussianBlur stdDeviation=".075"/><feComposite in2="hardAlpha" operator="arithmetic" k2="-1" k3="1"/><feColorMatrix values="0 0 0 0 0.262745 0 0 0 0 0.172549 0 0 0 0 0.309804 0 0 0 1 0"/><feBlend in2="shape" result="effect1_innerShadow_4002_2846"/></filter><filter id="l" x="18.753" y="19.961" width="4.705" height="3.591" filterUnits="userSpaceOnUse" color-interpolation-filters="sRGB"><feFlood flood-opacity="0" result="BackgroundImageFix"/><feBlend in="SourceGraphic" in2="BackgroundImageFix" result="shape"/><feColorMatrix in="SourceAlpha" values="0 0 0 0 0 0 0 0 0 0 0 0 0 0 0 0 0 0 127 0" result="hardAlpha"/><feOffset dx=".1" dy="-.2"/><feGaussianBlur stdDeviation=".15"/><feComposite in2="hardAlpha" operator="arithmetic" k2="-1" k3="1"/><feColorMatrix values="0 0 0 0 0.270588 0 0 0 0 0.172549 0 0 0 0 0.309804 0 0 0 1 0"/><feBlend in2="shape" result="effect1_innerShadow_4002_2846"/><feColorMatrix in="SourceAlpha" values="0 0 0 0 0 0 0 0 0 0 0 0 0 0 0 0 0 0 127 0" result="hardAlpha"/><feOffset dx=".1" dy="-.05"/><feGaussianBlur stdDeviation=".05"/><feComposite in2="hardAlpha" operator="arithmetic" k2="-1" k3="1"/><feColorMatrix values="0 0 0 0 0.266667 0 0 0 0 0.0666667 0 0 0 0 0.219608 0 0 0 1 0"/><feBlend in2="effect1_innerShadow_4002_2846" result="effect2_innerShadow_4002_2846"/></filter><filter id="o" x="8.842" y="21.168" width="2.189" height="2.153" filterUnits="userSpaceOnUse" color-interpolation-filters="sRGB"><feFlood flood-opacity="0" result="BackgroundImageFix"/><feBlend in="SourceGraphic" in2="BackgroundImageFix" result="shape"/><feGaussianBlur stdDeviation=".25" result="effect1_foregroundBlur_4002_2846"/></filter><filter id="q" x="21.111" y="21.394" width="1.692" height="1.595" filterUnits="userSpaceOnUse" color-interpolation-filters="sRGB"><feFlood flood-opacity="0" result="BackgroundImageFix"/><feBlend in="SourceGraphic" in2="BackgroundImageFix" result="shape"/><feGaussianBlur stdDeviation=".125" result="effect1_foregroundBlur_4002_2846"/></filter><filter id="s" x="12.072" y="14.827" width="7.744" height="9.694" filterUnits="userSpaceOnUse" color-interpolation-filters="sRGB"><feFlood flood-opacity="0" result="BackgroundImageFix"/><feBlend in="SourceGraphic" in2="BackgroundImageFix" result="shape"/><feColorMatrix in="SourceAlpha" values="0 0 0 0 0 0 0 0 0 0 0 0 0 0 0 0 0 0 127 0" result="hardAlpha"/><feOffset dx="-.1" dy="-.1"/><feGaussianBlur stdDeviation=".075"/><feComposite in2="hardAlpha" operator="arithmetic" k2="-1" k3="1"/><feColorMatrix values="0 0 0 0 0.439216 0 0 0 0 0.384314 0 0 0 0 0.47451 0 0 0 1 0"/><feBlend in2="shape" result="effect1_innerShadow_4002_2846"/><feColorMatrix in="SourceAlpha" values="0 0 0 0 0 0 0 0 0 0 0 0 0 0 0 0 0 0 127 0" result="hardAlpha"/><feOffset dx=".05" dy="-.1"/><feGaussianBlur stdDeviation=".075"/><feComposite in2="hardAlpha" operator="arithmetic" k2="-1" k3="1"/><feColorMatrix values="0 0 0 0 0.439216 0 0 0 0 0.384314 0 0 0 0 0.47451 0 0 0 1 0"/><feBlend in2="effect1_innerShadow_4002_2846" result="effect2_innerShadow_4002_2846"/><feColorMatrix in="SourceAlpha" values="0 0 0 0 0 0 0 0 0 0 0 0 0 0 0 0 0 0 127 0" result="hardAlpha"/><feOffset dy="-.1"/><feGaussianBlur stdDeviation=".05"/><feComposite in2="hardAlpha" operator="arithmetic" k2="-1" k3="1"/><feColorMatrix values="0 0 0 0 0.329412 0 0 0 0 0.172549 0 0 0 0 0.372549 0 0 0 1 0"/><feBlend in2="effect2_innerShadow_4002_2846" result="effect3_innerShadow_4002_2846"/></filter><filter id="z" x="16.395" y="27.4" width="2.09" height="2.09" filterUnits="userSpaceOnUse" color-interpolation-filters="sRGB"><feFlood flood-opacity="0" result="BackgroundImageFix"/><feBlend in="SourceGraphic" in2="BackgroundImageFix" result="shape"/><feGaussianBlur stdDeviation=".25" result="effect1_foregroundBlur_4002_2846"/></filter><filter id="A" x="16.395" y="24.4" width="2.09" height="2.09" filterUnits="userSpaceOnUse" color-interpolation-filters="sRGB"><feFlood flood-opacity="0" result="BackgroundImageFix"/><feBlend in="SourceGraphic" in2="BackgroundImageFix" result="shape"/><feGaussianBlur stdDeviation=".25" result="effect1_foregroundBlur_4002_2846"/></filter><filter id="I" x="10.377" y="9.001" width="11.47" height="12.792" filterUnits="userSpaceOnUse" color-interpolation-filters="sRGB"><feFlood flood-opacity="0" result="BackgroundImageFix"/><feBlend in="SourceGraphic" in2="BackgroundImageFix" result="shape"/><feColorMatrix in="SourceAlpha" values="0 0 0 0 0 0 0 0 0 0 0 0 0 0 0 0 0 0 127 0" result="hardAlpha"/><feOffset dx=".75"/><feGaussianBlur stdDeviation=".6"/><feComposite in2="hardAlpha" operator="arithmetic" k2="-1" k3="1"/><feColorMatrix values="0 0 0 0 0.843137 0 0 0 0 0.611765 0 0 0 0 0.498039 0 0 0 1 0"/><feBlend in2="shape" result="effect1_innerShadow_4002_2846"/><feColorMatrix in="SourceAlpha" values="0 0 0 0 0 0 0 0 0 0 0 0 0 0 0 0 0 0 127 0" result="hardAlpha"/><feOffset dy=".2"/><feGaussianBlur stdDeviation=".375"/><feComposite in2="hardAlpha" operator="arithmetic" k2="-1" k3="1"/><feColorMatrix values="0 0 0 0 0.776471 0 0 0 0 0.54902 0 0 0 0 0.423529 0 0 0 1 0"/><feBlend in2="effect1_innerShadow_4002_2846" result="effect2_innerShadow_4002_2846"/><feColorMatrix in="SourceAlpha" values="0 0 0 0 0 0 0 0 0 0 0 0 0 0 0 0 0 0 127 0" result="hardAlpha"/><feOffset dx="-.5" dy="-.25"/><feGaussianBlur stdDeviation=".25"/><feComposite in2="hardAlpha" operator="arithmetic" k2="-1" k3="1"/><feColorMatrix values="0 0 0 0 0.733333 0 0 0 0 0.454902 0 0 0 0 0.407843 0 0 0 1 0"/><feBlend in2="effect2_innerShadow_4002_2846" result="effect3_innerShadow_4002_2846"/></filter><filter id="S" x="13.795" y="13.674" width="3.754" height="4.824" filterUnits="userSpaceOnUse" color-interpolation-filters="sRGB"><feFlood flood-opacity="0" result="BackgroundImageFix"/><feBlend in="SourceGraphic" in2="BackgroundImageFix" result="shape"/><feGaussianBlur stdDeviation=".5" result="effect1_foregroundBlur_4002_2846"/></filter><filter id="T" x="14.902" y="14.302" width="2.077" height="3.1" filterUnits="userSpaceOnUse" color-interpolation-filters="sRGB"><feFlood flood-opacity="0" result="BackgroundImageFix"/><feBlend in="SourceGraphic" in2="BackgroundImageFix" result="shape"/><feGaussianBlur stdDeviation=".05" result="effect1_foregroundBlur_4002_2846"/></filter><filter id="Y" x="14.887" y="14.177" width="2.077" height="3.1" filterUnits="userSpaceOnUse" color-interpolation-filters="sRGB"><feFlood flood-opacity="0" result="BackgroundImageFix"/><feBlend in="SourceGraphic" in2="BackgroundImageFix" result="shape"/><feGaussianBlur stdDeviation=".05" result="effect1_foregroundBlur_4002_2846"/></filter><filter id="aa" x="14.081" y="17.722" width="3.718" height="1.573" filterUnits="userSpaceOnUse" color-interpolation-filters="sRGB"><feFlood flood-opacity="0" result="BackgroundImageFix"/><feBlend in="SourceGraphic" in2="BackgroundImageFix" result="shape"/><feGaussianBlur stdDeviation=".05" result="effect1_foregroundBlur_4002_2846"/></filter><filter id="ae" x="17.388" y="14.066" width=".787" height=".696" filterUnits="userSpaceOnUse" color-interpolation-filters="sRGB"><feFlood flood-opacity="0" result="BackgroundImageFix"/><feBlend in="SourceGraphic" in2="BackgroundImageFix" result="shape"/><feGaussianBlur stdDeviation=".05" result="effect1_foregroundBlur_4002_2846"/></filter><filter id="ag" x="18.228" y="14.141" width=".891" height=".913" filterUnits="userSpaceOnUse" color-interpolation-filters="sRGB"><feFlood flood-opacity="0" result="BackgroundImageFix"/><feBlend in="SourceGraphic" in2="BackgroundImageFix" result="shape"/><feGaussianBlur stdDeviation=".1" result="effect1_foregroundBlur_4002_2846"/></filter><filter id="aj" x="13.786" y="14.077" width=".986" height="1.04" filterUnits="userSpaceOnUse" color-interpolation-filters="sRGB"><feFlood flood-opacity="0" result="BackgroundImageFix"/><feBlend in="SourceGraphic" in2="BackgroundImageFix" result="shape"/><feGaussianBlur stdDeviation=".1" result="effect1_foregroundBlur_4002_2846"/></filter><filter id="al" x="13.031" y="14.057" width=".913" height=".705" filterUnits="userSpaceOnUse" color-interpolation-filters="sRGB"><feFlood flood-opacity="0" result="BackgroundImageFix"/><feBlend in="SourceGraphic" in2="BackgroundImageFix" result="shape"/><feGaussianBlur stdDeviation=".05" result="effect1_foregroundBlur_4002_2846"/></filter><filter id="as" x="9.908" y="13.974" width="1.329" height="2.379" filterUnits="userSpaceOnUse" color-interpolation-filters="sRGB"><feFlood flood-opacity="0" result="BackgroundImageFix"/><feBlend in="SourceGraphic" in2="BackgroundImageFix" result="shape"/><feGaussianBlur stdDeviation=".125" result="effect1_foregroundBlur_4002_2846"/></filter><filter id="at" x="20.652" y="13.958" width="1.447" height="2.403" filterUnits="userSpaceOnUse" color-interpolation-filters="sRGB"><feFlood flood-opacity="0" result="BackgroundImageFix"/><feBlend in="SourceGraphic" in2="BackgroundImageFix" result="shape"/><feGaussianBlur stdDeviation=".125" result="effect1_foregroundBlur_4002_2846"/></filter><filter id="au" x="9.076" y="1.839" width="13.655" height="12.317" filterUnits="userSpaceOnUse" color-interpolation-filters="sRGB"><feFlood flood-opacity="0" result="BackgroundImageFix"/><feBlend in="SourceGraphic" in2="BackgroundImageFix" result="shape"/><feColorMatrix in="SourceAlpha" values="0 0 0 0 0 0 0 0 0 0 0 0 0 0 0 0 0 0 127 0" result="hardAlpha"/><feOffset dx="-.1" dy="-.25"/><feGaussianBlur stdDeviation=".25"/><feComposite in2="hardAlpha" operator="arithmetic" k2="-1" k3="1"/><feColorMatrix values="0 0 0 0 0.282353 0 0 0 0 0.203922 0 0 0 0 0.364706 0 0 0 1 0"/><feBlend in2="shape" result="effect1_innerShadow_4002_2846"/></filter><filter id="aA" x="10.499" y="14.056" width="10.882" height="7.996" filterUnits="userSpaceOnUse" color-interpolation-filters="sRGB"><feFlood flood-opacity="0" result="BackgroundImageFix"/><feBlend in="SourceGraphic" in2="BackgroundImageFix" result="shape"/><feColorMatrix in="SourceAlpha" values="0 0 0 0 0 0 0 0 0 0 0 0 0 0 0 0 0 0 127 0" result="hardAlpha"/><feOffset dy="-.1"/><feGaussianBlur stdDeviation=".1"/><feComposite in2="hardAlpha" operator="arithmetic" k2="-1" k3="1"/><feColorMatrix values="0 0 0 0 0.803922 0 0 0 0 0.635294 0 0 0 0 0.886275 0 0 0 1 0"/><feBlend in2="shape" result="effect1_innerShadow_4002_2846"/></filter></defs></svg>