<svg width="32" height="32" fill="none" xmlns="http://www.w3.org/2000/svg"><g filter="url(#a)"><path d="M9.586 7.46c.4 1.075.75 2.531.797 3.094l3.82-5.578c-.875-1.922-2.085-2.746-3.164-2.867-1.25-.141-2.398.421-2.797 1.765-.258 1.383.844 2.242 1.344 3.586Z" fill="url(#b)"/><path d="M9.586 7.46c.4 1.075.75 2.531.797 3.094l3.82-5.578c-.875-1.922-2.085-2.746-3.164-2.867-1.25-.141-2.398.421-2.797 1.765-.258 1.383.844 2.242 1.344 3.586Z" fill="url(#c)"/><path d="M9.586 7.46c.4 1.075.75 2.531.797 3.094l3.82-5.578c-.875-1.922-2.085-2.746-3.164-2.867-1.25-.141-2.398.421-2.797 1.765-.258 1.383.844 2.242 1.344 3.586Z" fill="url(#d)"/></g><g filter="url(#e)"><path d="M14.422 3.46c.783-1.29 2.514-1.844 3.803-1.061 1.29.783 1.7 2.463.918 3.752L16.89 9.86a2.788 2.788 0 0 1 3.69 3.197 2.842 2.842 0 0 1 3.234 3.46 2.811 2.811 0 0 1 1.642.521c1.313.813 1.75 2.89.874 4.46l-2.963 4.33-.024.036c-4.379 6.767-11.875 4.263-16.309-.982-3-3.975-1.656-7.219-.484-9.04l4.41-6.741 3.46-5.64Z" fill="url(#f)"/></g><g filter="url(#g)" transform="rotate(30 16.28 2.297)"><rect x="16.28" y="2.297" width="3.597" height="16.515" rx="1.799" fill="url(#h)"/><rect x="16.28" y="2.297" width="3.597" height="16.515" rx="1.799" fill="url(#i)"/></g><g filter="url(#j)" transform="rotate(32.721 17.43 9.9)"><rect x="17.429" y="9.9" width="3.917" height="10.119" rx="1.958" fill="url(#k)"/><rect x="17.429" y="9.9" width="3.917" height="10.119" rx="1.958" fill="url(#l)"/></g><g filter="url(#m)" transform="rotate(32.721 20.905 13.26)"><rect x="20.905" y="13.26" width="3.917" height="10.452" rx="1.958" fill="url(#n)"/><rect x="20.905" y="13.26" width="3.917" height="10.452" rx="1.958" fill="url(#o)"/></g><g filter="url(#p)" transform="rotate(34.472 23.665 16.867)"><rect x="23.665" y="16.867" width="3.917" height="10.15" rx="1.958" fill="url(#q)"/><rect x="23.665" y="16.867" width="3.917" height="10.15" rx="1.958" fill="url(#r)"/></g><g filter="url(#s)"><ellipse cx="14.863" cy="12.779" rx=".178" ry="2.721" transform="rotate(36.17 14.863 12.78)" fill="#CE8767"/><path d="M13.14 15.137c.092.068.19.033.212.025a.373.373 0 0 0 .085-.048c.043-.032.093-.077.144-.129a7.36 7.36 0 0 0 .402-.45c.32-.383.74-.924 1.185-1.533a31.25 31.25 0 0 0 1.101-1.594c.133-.21.24-.388.307-.52.034-.064.062-.125.079-.176a.375.375 0 0 0 .02-.095.223.223 0 0 0-.088-.196.223.223 0 0 0-.213-.024.376.376 0 0 0-.085.048 1.304 1.304 0 0 0-.144.128 7.33 7.33 0 0 0-.402.45c-.32.383-.74.924-1.186 1.533a31.405 31.405 0 0 0-1.1 1.595c-.133.21-.24.388-.307.52a1.297 1.297 0 0 0-.079.176.375.375 0 0 0-.02.095.223.223 0 0 0 .088.195Z" stroke="#DD9D7E" stroke-width=".4"/></g><g filter="url(#t)"><ellipse cx="18.816" cy="15.94" rx=".178" ry="2.145" transform="rotate(36.17 18.816 15.94)" fill="#DC9370"/><path d="M17.433 17.833a.224.224 0 0 0 .189.034.326.326 0 0 0 .088-.04.91.91 0 0 0 .132-.104c.09-.082.203-.204.332-.353.26-.3.596-.725.948-1.207.351-.48.655-.93.862-1.268.102-.169.184-.314.236-.424a.913.913 0 0 0 .06-.157.327.327 0 0 0 .01-.096.224.224 0 0 0-.09-.17.224.224 0 0 0-.19-.034.325.325 0 0 0-.088.039.91.91 0 0 0-.131.104c-.09.083-.204.205-.333.354-.26.3-.595.725-.947 1.206s-.656.93-.862 1.269a4.676 4.676 0 0 0-.236.424.913.913 0 0 0-.06.157.323.323 0 0 0-.01.096.224.224 0 0 0 .09.17Z" stroke="#E5A27F" stroke-width=".4"/></g><g filter="url(#u)"><ellipse cx="21.83" cy="18.926" rx=".178" ry="1.727" transform="rotate(36.17 21.83 18.926)" fill="#DC9370"/><path d="M20.693 20.482a.226.226 0 0 0 .167.04.298.298 0 0 0 .091-.03.682.682 0 0 0 .125-.087c.079-.067.176-.165.284-.284.216-.24.491-.583.775-.971.285-.389.527-.755.69-1.034.081-.139.145-.261.185-.357a.687.687 0 0 0 .045-.145.297.297 0 0 0 .001-.096.226.226 0 0 0-.089-.147.226.226 0 0 0-.167-.04.297.297 0 0 0-.091.03.682.682 0 0 0-.125.087 3.12 3.12 0 0 0-.284.284c-.216.24-.491.582-.775.971-.285.389-.527.755-.69 1.034-.081.138-.146.26-.185.357a.688.688 0 0 0-.045.144.298.298 0 0 0-.001.097c.006.04.027.102.089.147Z" stroke="#E5A27F" stroke-width=".4"/></g><defs><filter id="a" x="8.204" y="1.938" width="6.149" height="8.616" filterUnits="userSpaceOnUse" color-interpolation-filters="sRGB"><feFlood flood-opacity="0" result="BackgroundImageFix"/><feBlend in="SourceGraphic" in2="BackgroundImageFix" result="shape"/><feColorMatrix in="SourceAlpha" values="0 0 0 0 0 0 0 0 0 0 0 0 0 0 0 0 0 0 127 0" result="hardAlpha"/><feOffset dx=".15" dy="-.15"/><feGaussianBlur stdDeviation=".25"/><feComposite in2="hardAlpha" operator="arithmetic" k2="-1" k3="1"/><feColorMatrix values="0 0 0 0 0.941176 0 0 0 0 0.705882 0 0 0 0 0.580392 0 0 0 1 0"/><feBlend in2="shape" result="effect1_innerShadow_20020_2435"/></filter><filter id="e" x="4.713" y="1.539" width="22.325" height="28.931" filterUnits="userSpaceOnUse" color-interpolation-filters="sRGB"><feFlood flood-opacity="0" result="BackgroundImageFix"/><feBlend in="SourceGraphic" in2="BackgroundImageFix" result="shape"/><feColorMatrix in="SourceAlpha" values="0 0 0 0 0 0 0 0 0 0 0 0 0 0 0 0 0 0 127 0" result="hardAlpha"/><feOffset dx=".25"/><feGaussianBlur stdDeviation=".5"/><feComposite in2="hardAlpha" operator="arithmetic" k2="-1" k3="1"/><feColorMatrix values="0 0 0 0 0.952941 0 0 0 0 0.72549 0 0 0 0 0.592157 0 0 0 1 0"/><feBlend in2="shape" result="effect1_innerShadow_20020_2435"/><feColorMatrix in="SourceAlpha" values="0 0 0 0 0 0 0 0 0 0 0 0 0 0 0 0 0 0 127 0" result="hardAlpha"/><feOffset dy="-.5"/><feGaussianBlur stdDeviation=".5"/><feComposite in2="hardAlpha" operator="arithmetic" k2="-1" k3="1"/><feColorMatrix values="0 0 0 0 0.760784 0 0 0 0 0.494118 0 0 0 0 0.588235 0 0 0 1 0"/><feBlend in2="effect1_innerShadow_20020_2435" result="effect2_innerShadow_20020_2435"/><feColorMatrix in="SourceAlpha" values="0 0 0 0 0 0 0 0 0 0 0 0 0 0 0 0 0 0 127 0" result="hardAlpha"/><feOffset dx="-.5" dy=".5"/><feGaussianBlur stdDeviation=".5"/><feComposite in2="hardAlpha" operator="arithmetic" k2="-1" k3="1"/><feColorMatrix values="0 0 0 0 0.964706 0 0 0 0 0.768627 0 0 0 0 0.603922 0 0 0 1 0"/><feBlend in2="effect2_innerShadow_20020_2435" result="effect3_innerShadow_20020_2435"/></filter><filter id="g" x="7.181" y="1.455" width="13.056" height="17.785" filterUnits="userSpaceOnUse" color-interpolation-filters="sRGB"><feFlood flood-opacity="0" result="BackgroundImageFix"/><feBlend in="SourceGraphic" in2="BackgroundImageFix" result="shape"/><feGaussianBlur stdDeviation=".75" result="effect1_foregroundBlur_20020_2435"/></filter><filter id="j" x="11.207" y="9.147" width="10.27" height="12.135" filterUnits="userSpaceOnUse" color-interpolation-filters="sRGB"><feFlood flood-opacity="0" result="BackgroundImageFix"/><feBlend in="SourceGraphic" in2="BackgroundImageFix" result="shape"/><feGaussianBlur stdDeviation=".75" result="effect1_foregroundBlur_20020_2435"/></filter><filter id="m" x="14.503" y="12.508" width="10.45" height="12.415" filterUnits="userSpaceOnUse" color-interpolation-filters="sRGB"><feFlood flood-opacity="0" result="BackgroundImageFix"/><feBlend in="SourceGraphic" in2="BackgroundImageFix" result="shape"/><feGaussianBlur stdDeviation=".75" result="effect1_foregroundBlur_20020_2435"/></filter><filter id="p" x="17.185" y="16.131" width="10.445" height="12.056" filterUnits="userSpaceOnUse" color-interpolation-filters="sRGB"><feFlood flood-opacity="0" result="BackgroundImageFix"/><feBlend in="SourceGraphic" in2="BackgroundImageFix" result="shape"/><feGaussianBlur stdDeviation=".75" result="effect1_foregroundBlur_20020_2435"/></filter><filter id="s" x="12.451" y="9.78" width="4.824" height="5.998" filterUnits="userSpaceOnUse" color-interpolation-filters="sRGB"><feFlood flood-opacity="0" result="BackgroundImageFix"/><feBlend in="SourceGraphic" in2="BackgroundImageFix" result="shape"/><feGaussianBlur stdDeviation=".2" result="effect1_foregroundBlur_20020_2435"/></filter><filter id="t" x="16.742" y="13.406" width="4.148" height="5.069" filterUnits="userSpaceOnUse" color-interpolation-filters="sRGB"><feFlood flood-opacity="0" result="BackgroundImageFix"/><feBlend in="SourceGraphic" in2="BackgroundImageFix" result="shape"/><feGaussianBlur stdDeviation=".2" result="effect1_foregroundBlur_20020_2435"/></filter><filter id="u" x="20.001" y="16.728" width="3.659" height="4.396" filterUnits="userSpaceOnUse" color-interpolation-filters="sRGB"><feFlood flood-opacity="0" result="BackgroundImageFix"/><feBlend in="SourceGraphic" in2="BackgroundImageFix" result="shape"/><feGaussianBlur stdDeviation=".2" result="effect1_foregroundBlur_20020_2435"/></filter><radialGradient id="b" cx="0" cy="0" r="1" gradientUnits="userSpaceOnUse" gradientTransform="matrix(-.94364 4.44518 -4.2145 -.89467 12.147 3.223)"><stop stop-color="#F5C49A"/><stop offset="1" stop-color="#E0A687"/></radialGradient><radialGradient id="c" cx="0" cy="0" r="1" gradientUnits="userSpaceOnUse" gradientTransform="rotate(-104.25 9.197 -1.52) scale(3.00976 1.77464)"><stop offset=".209" stop-color="#CA926C"/><stop offset="1" stop-color="#E5B08E" stop-opacity="0"/></radialGradient><radialGradient id="d" cx="0" cy="0" r="1" gradientUnits="userSpaceOnUse" gradientTransform="matrix(.59053 2.00963 -2.74222 .8058 9.18 2.088)"><stop stop-color="#CC9C7A"/><stop offset="1" stop-color="#E2AF88" stop-opacity="0"/></radialGradient><radialGradient id="f" cx="0" cy="0" r="1" gradientUnits="userSpaceOnUse" gradientTransform="rotate(90.82 5.75 10.808) scale(22.645 22.0007)"><stop stop-color="#F2BB97"/><stop offset="1" stop-color="#DB9997"/></radialGradient><radialGradient id="i" cx="0" cy="0" r="1" gradientUnits="userSpaceOnUse" gradientTransform="matrix(1.44964 -2.10905 1.82442 1.254 18.869 3.382)"><stop offset=".224" stop-color="#FFD0AC"/><stop offset="1" stop-color="#FFD0AC" stop-opacity="0"/></radialGradient><radialGradient id="l" cx="0" cy="0" r="1" gradientUnits="userSpaceOnUse" gradientTransform="matrix(-.31566 4.67938 -2.19689 -.1482 20.415 10.528)"><stop offset=".224" stop-color="#FFD1AC"/><stop offset="1" stop-color="#FFD1AC" stop-opacity="0"/></radialGradient><radialGradient id="o" cx="0" cy="0" r="1" gradientUnits="userSpaceOnUse" gradientTransform="matrix(-.31566 4.83338 -2.1975 -.14352 23.89 13.909)"><stop offset=".224" stop-color="#FFD1AC"/><stop offset="1" stop-color="#FFD1AC" stop-opacity="0"/></radialGradient><radialGradient id="r" cx="0" cy="0" r="1" gradientUnits="userSpaceOnUse" gradientTransform="matrix(-.31567 4.69397 -2.19695 -.14774 26.65 17.497)"><stop offset=".224" stop-color="#FFD1AC"/><stop offset="1" stop-color="#FFD1AC" stop-opacity="0"/></radialGradient><linearGradient id="h" x1="18.249" y1="6.934" x2="17.562" y2="17.766" gradientUnits="userSpaceOnUse"><stop stop-color="#E9AA9C"/><stop offset="1" stop-color="#E9AA9C" stop-opacity="0"/></linearGradient><linearGradient id="k" x1="19.573" y1="12.741" x2="19.336" y2="19.396" gradientUnits="userSpaceOnUse"><stop stop-color="#E3A49B"/><stop offset="1" stop-color="#E3A49B" stop-opacity="0"/></linearGradient><linearGradient id="n" x1="23.048" y1="16.195" x2="22.795" y2="23.068" gradientUnits="userSpaceOnUse"><stop stop-color="#E3A49B"/><stop offset="1" stop-color="#E3A49B" stop-opacity="0"/></linearGradient><linearGradient id="q" x1="25.809" y1="19.717" x2="25.57" y2="26.392" gradientUnits="userSpaceOnUse"><stop stop-color="#E3A49B"/><stop offset="1" stop-color="#E3A49B" stop-opacity="0"/></linearGradient></defs></svg>