<svg width="32" height="32" fill="none" xmlns="http://www.w3.org/2000/svg"><g filter="url(#a)" fill-rule="evenodd" clip-rule="evenodd"><path d="M10.537 14.519c.749-.46 1.716-.382 2.348-.065a2.1 2.1 0 0 0 1.879-3.757c-1.62-.81-4.17-1.141-6.424.242-3.087 1.895-3.357 4.894-3.357 6.859a2.1 2.1 0 1 0 4.2 0c0-1.637.24-2.596 1.354-3.28Z" fill="url(#b)"/><path d="M10.537 14.519c.749-.46 1.716-.382 2.348-.065a2.1 2.1 0 0 0 1.879-3.757c-1.62-.81-4.17-1.141-6.424.242-3.087 1.895-3.357 4.894-3.357 6.859a2.1 2.1 0 1 0 4.2 0c0-1.637.24-2.596 1.354-3.28Z" fill="url(#c)"/></g><g filter="url(#d)"><path d="m14.151 15.998-.014-.015a1.7 1.7 0 0 0-.202-.165 2.278 2.278 0 0 0-.49-.26 1.89 1.89 0 0 0-1.249-.05c-.975.294-1.535 1.073-1.895 2.207-.16.897-.145 2.622.676 3.433.24.27.764.61 1.435 1.046 1.412.918 3.475 2.26 4.936 4.251 1.044 1.331.095 2.741-.423 3.024-.72.392-1.528.54-2.367-.125-.838-.666-2.18-1.623-3.636-1.367-1.455.256-2.03.351-2.88.351H3.697a1.8 1.8 0 0 1-1.8-1.8v-4.512c0-1.957 1.231-4.44 3.197-5.123.638-.221 1.243-.634 1.5-1.258.682-1.648 1.943-3.41 4.389-4.148 2.983-.901 5.437.691 6.373 1.796a2.1 2.1 0 0 1-3.204 2.715Z" fill="#FFC34C"/><path d="m14.151 15.998-.014-.015a1.7 1.7 0 0 0-.202-.165 2.278 2.278 0 0 0-.49-.26 1.89 1.89 0 0 0-1.249-.05c-.975.294-1.535 1.073-1.895 2.207-.16.897-.145 2.622.676 3.433.24.27.764.61 1.435 1.046 1.412.918 3.475 2.26 4.936 4.251 1.044 1.331.095 2.741-.423 3.024-.72.392-1.528.54-2.367-.125-.838-.666-2.18-1.623-3.636-1.367-1.455.256-2.03.351-2.88.351H3.697a1.8 1.8 0 0 1-1.8-1.8v-4.512c0-1.957 1.231-4.44 3.197-5.123.638-.221 1.243-.634 1.5-1.258.682-1.648 1.943-3.41 4.389-4.148 2.983-.901 5.437.691 6.373 1.796a2.1 2.1 0 0 1-3.204 2.715Z" fill="url(#e)"/><path d="m14.151 15.998-.014-.015a1.7 1.7 0 0 0-.202-.165 2.278 2.278 0 0 0-.49-.26 1.89 1.89 0 0 0-1.249-.05c-.975.294-1.535 1.073-1.895 2.207-.16.897-.145 2.622.676 3.433.24.27.764.61 1.435 1.046 1.412.918 3.475 2.26 4.936 4.251 1.044 1.331.095 2.741-.423 3.024-.72.392-1.528.54-2.367-.125-.838-.666-2.18-1.623-3.636-1.367-1.455.256-2.03.351-2.88.351H3.697a1.8 1.8 0 0 1-1.8-1.8v-4.512c0-1.957 1.231-4.44 3.197-5.123.638-.221 1.243-.634 1.5-1.258.682-1.648 1.943-3.41 4.389-4.148 2.983-.901 5.437.691 6.373 1.796a2.1 2.1 0 0 1-3.204 2.715Z" fill="url(#f)"/><path d="m14.151 15.998-.014-.015a1.7 1.7 0 0 0-.202-.165 2.278 2.278 0 0 0-.49-.26 1.89 1.89 0 0 0-1.249-.05c-.975.294-1.535 1.073-1.895 2.207-.16.897-.145 2.622.676 3.433.24.27.764.61 1.435 1.046 1.412.918 3.475 2.26 4.936 4.251 1.044 1.331.095 2.741-.423 3.024-.72.392-1.528.54-2.367-.125-.838-.666-2.18-1.623-3.636-1.367-1.455.256-2.03.351-2.88.351H3.697a1.8 1.8 0 0 1-1.8-1.8v-4.512c0-1.957 1.231-4.44 3.197-5.123.638-.221 1.243-.634 1.5-1.258.682-1.648 1.943-3.41 4.389-4.148 2.983-.901 5.437.691 6.373 1.796a2.1 2.1 0 0 1-3.204 2.715Z" fill="url(#g)"/></g><path fill-rule="evenodd" clip-rule="evenodd" d="M21.141 14.519c-.749-.46-1.716-.382-2.349-.065a2.1 2.1 0 0 1-1.878-3.757c1.62-.81 4.17-1.141 6.424.242 3.087 1.895 3.357 4.894 3.357 6.859a2.1 2.1 0 1 1-4.2 0c0-1.637-.24-2.596-1.354-3.28Z" fill="#E8B12D"/><path fill-rule="evenodd" clip-rule="evenodd" d="M21.141 14.519c-.749-.46-1.716-.382-2.349-.065a2.1 2.1 0 0 1-1.878-3.757c1.62-.81 4.17-1.141 6.424.242 3.087 1.895 3.357 4.894 3.357 6.859a2.1 2.1 0 1 1-4.2 0c0-1.637-.24-2.596-1.354-3.28Z" fill="url(#h)"/><path fill-rule="evenodd" clip-rule="evenodd" d="M21.141 14.519c-.749-.46-1.716-.382-2.349-.065a2.1 2.1 0 0 1-1.878-3.757c1.62-.81 4.17-1.141 6.424.242 3.087 1.895 3.357 4.894 3.357 6.859a2.1 2.1 0 1 1-4.2 0c0-1.637-.24-2.596-1.354-3.28Z" fill="url(#i)"/><g filter="url(#j)"><path d="m17.527 15.998.014-.015a1.711 1.711 0 0 1 .202-.165c.134-.094.3-.187.49-.26.37-.14.79-.19 1.249-.05.975.294 1.535 1.073 1.895 2.207.16.897.145 2.622-.676 3.433-.24.27-.765.61-1.436 1.046-1.41.918-3.475 2.26-4.935 4.251-1.044 1.331-.095 2.741.423 3.024.719.392 1.528.54 2.366-.125.84-.666 2.181-1.623 3.637-1.367 1.455.256 2.03.351 2.88.351h4.345a1.8 1.8 0 0 0 1.8-1.8v-4.512c0-1.957-1.23-4.44-3.197-5.123-.637-.221-1.242-.634-1.5-1.258-.681-1.648-1.942-3.41-4.388-4.148-2.983-.901-5.437.691-6.373 1.796a2.1 2.1 0 1 0 3.204 2.715Z" fill="#FFC34C"/></g><g filter="url(#k)"><path d="M19.031 12.438c1.375-.042 4.275.843 5.25 4.718" stroke="url(#l)" stroke-width="2" stroke-linecap="round"/></g><g filter="url(#m)"><path d="M25.781 18.125c.802.375 2.407 1.637 2.407 3.688v4.218" stroke="url(#n)" stroke-width="2" stroke-linecap="round"/></g><g filter="url(#o)"><path d="M15.469 27.781c.52-.854 2.493-2.668 4.094-3.843" stroke="url(#p)" stroke-width="2" stroke-linecap="round"/></g><g filter="url(#q)"><path d="M8.45 19.031c-.105.802.093 2.607 1.718 3.407 1.676 1.062 3.115 2.125 3.657 2.687" stroke="url(#r)" stroke-width="2" stroke-linecap="round"/></g><defs><radialGradient id="b" cx="0" cy="0" r="1" gradientUnits="userSpaceOnUse" gradientTransform="matrix(-8.34381 6.31243 -6.97483 -9.21937 14.969 11.406)"><stop stop-color="#FCD038"/><stop offset="1" stop-color="#FDB046"/></radialGradient><radialGradient id="c" cx="0" cy="0" r="1" gradientUnits="userSpaceOnUse" gradientTransform="rotate(123.476 .716 10.133) scale(4.64565 3.41798)"><stop offset=".497" stop-color="#EFA128"/><stop offset="1" stop-color="#EFA128" stop-opacity="0"/></radialGradient><radialGradient id="e" cx="0" cy="0" r="1" gradientUnits="userSpaceOnUse" gradientTransform="matrix(-7.375 -2.42806 1.75385 -5.32716 14.75 29.803)"><stop offset=".183" stop-color="#FD985B"/><stop offset="1" stop-color="#FD985B" stop-opacity="0"/></radialGradient><radialGradient id="f" cx="0" cy="0" r="1" gradientUnits="userSpaceOnUse" gradientTransform="rotate(-128.919 14.291 8.66) scale(6.46664 2.55443)"><stop stop-color="#D49637"/><stop offset="1" stop-color="#D49637" stop-opacity="0"/></radialGradient><radialGradient id="g" cx="0" cy="0" r="1" gradientUnits="userSpaceOnUse" gradientTransform="rotate(132.013 3.793 11.161) scale(5.08924 3.88381)"><stop offset=".365" stop-color="#ED8C50"/><stop offset="1" stop-color="#ED8C50" stop-opacity="0"/></radialGradient><radialGradient id="h" cx="0" cy="0" r="1" gradientUnits="userSpaceOnUse" gradientTransform="matrix(-10.37497 -9.90623 3.07089 -3.2162 26.938 16.656)"><stop offset=".143" stop-color="#FFEB63"/><stop offset="1" stop-color="#FFEB63" stop-opacity="0"/></radialGradient><radialGradient id="i" cx="0" cy="0" r="1" gradientUnits="userSpaceOnUse" gradientTransform="matrix(2.75 3.5 -1.5575 1.22374 22.781 14.094)"><stop offset=".346" stop-color="#FEC731"/><stop offset="1" stop-color="#FEC731" stop-opacity="0"/></radialGradient><radialGradient id="n" cx="0" cy="0" r="1" gradientUnits="userSpaceOnUse" gradientTransform="matrix(-6.37496 4.62505 -3.3986 -4.68448 30.844 19.438)"><stop offset=".325" stop-color="#FFE660"/><stop offset="1" stop-color="#FFE660" stop-opacity="0"/></radialGradient><filter id="a" x="4.983" y="9.995" width="11.192" height="9.903" filterUnits="userSpaceOnUse" color-interpolation-filters="sRGB"><feFlood flood-opacity="0" result="BackgroundImageFix"/><feBlend in="SourceGraphic" in2="BackgroundImageFix" result="shape"/><feColorMatrix in="SourceAlpha" values="0 0 0 0 0 0 0 0 0 0 0 0 0 0 0 0 0 0 127 0" result="hardAlpha"/><feOffset dx=".25"/><feGaussianBlur stdDeviation=".25"/><feComposite in2="hardAlpha" operator="arithmetic" k2="-1" k3="1"/><feColorMatrix values="0 0 0 0 0.882353 0 0 0 0 0.662745 0 0 0 0 0.345098 0 0 0 1 0"/><feBlend in2="shape" result="effect1_innerShadow_20020_7181"/></filter><filter id="d" x="1.897" y="10.221" width="16.457" height="19.582" filterUnits="userSpaceOnUse" color-interpolation-filters="sRGB"><feFlood flood-opacity="0" result="BackgroundImageFix"/><feBlend in="SourceGraphic" in2="BackgroundImageFix" result="shape"/><feColorMatrix in="SourceAlpha" values="0 0 0 0 0 0 0 0 0 0 0 0 0 0 0 0 0 0 127 0" result="hardAlpha"/><feOffset dy="-1"/><feGaussianBlur stdDeviation="1"/><feComposite in2="hardAlpha" operator="arithmetic" k2="-1" k3="1"/><feColorMatrix values="0 0 0 0 0.980392 0 0 0 0 0.639216 0 0 0 0 0.34902 0 0 0 1 0"/><feBlend in2="shape" result="effect1_innerShadow_20020_7181"/><feColorMatrix in="SourceAlpha" values="0 0 0 0 0 0 0 0 0 0 0 0 0 0 0 0 0 0 127 0" result="hardAlpha"/><feOffset dx=".5"/><feGaussianBlur stdDeviation=".75"/><feComposite in2="hardAlpha" operator="arithmetic" k2="-1" k3="1"/><feColorMatrix values="0 0 0 0 0.878431 0 0 0 0 0.619608 0 0 0 0 0.2 0 0 0 1 0"/><feBlend in2="effect1_innerShadow_20020_7181" result="effect2_innerShadow_20020_7181"/><feColorMatrix in="SourceAlpha" values="0 0 0 0 0 0 0 0 0 0 0 0 0 0 0 0 0 0 127 0" result="hardAlpha"/><feOffset dy="-.25"/><feGaussianBlur stdDeviation=".375"/><feComposite in2="hardAlpha" operator="arithmetic" k2="-1" k3="1"/><feColorMatrix values="0 0 0 0 0.976471 0 0 0 0 0.521569 0 0 0 0 0.705882 0 0 0 1 0"/><feBlend in2="effect2_innerShadow_20020_7181" result="effect3_innerShadow_20020_7181"/></filter><filter id="j" x="13.825" y="10.221" width="16.457" height="19.582" filterUnits="userSpaceOnUse" color-interpolation-filters="sRGB"><feFlood flood-opacity="0" result="BackgroundImageFix"/><feBlend in="SourceGraphic" in2="BackgroundImageFix" result="shape"/><feColorMatrix in="SourceAlpha" values="0 0 0 0 0 0 0 0 0 0 0 0 0 0 0 0 0 0 127 0" result="hardAlpha"/><feOffset dy="-1"/><feGaussianBlur stdDeviation="1"/><feComposite in2="hardAlpha" operator="arithmetic" k2="-1" k3="1"/><feColorMatrix values="0 0 0 0 0.980392 0 0 0 0 0.639216 0 0 0 0 0.34902 0 0 0 1 0"/><feBlend in2="shape" result="effect1_innerShadow_20020_7181"/><feColorMatrix in="SourceAlpha" values="0 0 0 0 0 0 0 0 0 0 0 0 0 0 0 0 0 0 127 0" result="hardAlpha"/><feOffset dx=".5"/><feGaussianBlur stdDeviation=".75"/><feComposite in2="hardAlpha" operator="arithmetic" k2="-1" k3="1"/><feColorMatrix values="0 0 0 0 0.878431 0 0 0 0 0.619608 0 0 0 0 0.2 0 0 0 1 0"/><feBlend in2="effect1_innerShadow_20020_7181" result="effect2_innerShadow_20020_7181"/><feColorMatrix in="SourceAlpha" values="0 0 0 0 0 0 0 0 0 0 0 0 0 0 0 0 0 0 127 0" result="hardAlpha"/><feOffset dy="-.25"/><feGaussianBlur stdDeviation=".375"/><feComposite in2="hardAlpha" operator="arithmetic" k2="-1" k3="1"/><feColorMatrix values="0 0 0 0 0.976471 0 0 0 0 0.521569 0 0 0 0 0.705882 0 0 0 1 0"/><feBlend in2="effect2_innerShadow_20020_7181" result="effect3_innerShadow_20020_7181"/></filter><filter id="k" x="17.031" y="10.436" width="9.25" height="8.72" filterUnits="userSpaceOnUse" color-interpolation-filters="sRGB"><feFlood flood-opacity="0" result="BackgroundImageFix"/><feBlend in="SourceGraphic" in2="BackgroundImageFix" result="shape"/><feGaussianBlur stdDeviation=".5" result="effect1_foregroundBlur_20020_7181"/></filter><filter id="m" x="23.781" y="16.125" width="6.406" height="11.906" filterUnits="userSpaceOnUse" color-interpolation-filters="sRGB"><feFlood flood-opacity="0" result="BackgroundImageFix"/><feBlend in="SourceGraphic" in2="BackgroundImageFix" result="shape"/><feGaussianBlur stdDeviation=".5" result="effect1_foregroundBlur_20020_7181"/></filter><filter id="o" x="13.469" y="21.937" width="8.094" height="7.844" filterUnits="userSpaceOnUse" color-interpolation-filters="sRGB"><feFlood flood-opacity="0" result="BackgroundImageFix"/><feBlend in="SourceGraphic" in2="BackgroundImageFix" result="shape"/><feGaussianBlur stdDeviation=".5" result="effect1_foregroundBlur_20020_7181"/></filter><filter id="q" x="6.427" y="17.031" width="9.398" height="10.094" filterUnits="userSpaceOnUse" color-interpolation-filters="sRGB"><feFlood flood-opacity="0" result="BackgroundImageFix"/><feBlend in="SourceGraphic" in2="BackgroundImageFix" result="shape"/><feGaussianBlur stdDeviation=".5" result="effect1_foregroundBlur_20020_7181"/></filter><linearGradient id="l" x1="24.281" y1="17.156" x2="15.375" y2="11.219" gradientUnits="userSpaceOnUse"><stop stop-color="#FFE660"/><stop offset="1" stop-color="#FFE660" stop-opacity="0"/></linearGradient><linearGradient id="p" x1="15.906" y1="28.094" x2="19.499" y2="22.981" gradientUnits="userSpaceOnUse"><stop stop-color="#FFC452"/><stop offset="1" stop-color="#FFC452" stop-opacity="0"/></linearGradient><linearGradient id="r" x1="11.688" y1="19.688" x2="9.817" y2="24.428" gradientUnits="userSpaceOnUse"><stop stop-color="#FFD454"/><stop offset="1" stop-color="#FFE660" stop-opacity="0"/></linearGradient></defs></svg>