<svg width="32" height="32" fill="none" xmlns="http://www.w3.org/2000/svg"><g filter="url(#a)" fill-rule="evenodd" clip-rule="evenodd"><path d="M10.537 14.586c.749-.46 1.716-.381 2.348-.065a2.1 2.1 0 1 0 1.879-3.756c-1.62-.81-4.17-1.142-6.424.242C5.253 12.9 4.983 15.9 4.983 17.865a2.1 2.1 0 1 0 4.2 0c0-1.636.24-2.595 1.354-3.279Z" fill="url(#b)"/><path d="M10.537 14.586c.749-.46 1.716-.381 2.348-.065a2.1 2.1 0 1 0 1.879-3.756c-1.62-.81-4.17-1.142-6.424.242C5.253 12.9 4.983 15.9 4.983 17.865a2.1 2.1 0 1 0 4.2 0c0-1.636.24-2.595 1.354-3.279Z" fill="url(#c)"/></g><g filter="url(#d)"><path d="m13.995 16.066-.015-.016a1.71 1.71 0 0 0-.202-.166 2.283 2.283 0 0 0-.49-.258 1.89 1.89 0 0 0-1.248-.051c-.975.294-1.536 1.073-1.895 2.207-.16.897-.145 2.623.676 3.434.24.269.764.61 1.435 1.046 1.412.918 3.475 2.26 4.936 4.25 1.044 1.332-.01 2.617-.528 2.9-.719.392-1.423.665-2.262 0-.839-.666-2.18-1.624-3.636-1.368-1.455.256-2.03.352-2.88.352H3.54a1.8 1.8 0 0 1-1.8-1.8v-4.513c0-1.957 1.231-4.44 3.197-5.122.638-.221 1.243-.634 1.5-1.258.682-1.649 1.943-3.41 4.388-4.149 2.984-.9 5.438.692 6.374 1.796a2.1 2.1 0 0 1-3.204 2.716Z" fill="url(#e)"/><path d="m13.995 16.066-.015-.016a1.71 1.71 0 0 0-.202-.166 2.283 2.283 0 0 0-.49-.258 1.89 1.89 0 0 0-1.248-.051c-.975.294-1.536 1.073-1.895 2.207-.16.897-.145 2.623.676 3.434.24.269.764.61 1.435 1.046 1.412.918 3.475 2.26 4.936 4.25 1.044 1.332-.01 2.617-.528 2.9-.719.392-1.423.665-2.262 0-.839-.666-2.18-1.624-3.636-1.368-1.455.256-2.03.352-2.88.352H3.54a1.8 1.8 0 0 1-1.8-1.8v-4.513c0-1.957 1.231-4.44 3.197-5.122.638-.221 1.243-.634 1.5-1.258.682-1.649 1.943-3.41 4.388-4.149 2.984-.9 5.438.692 6.374 1.796a2.1 2.1 0 0 1-3.204 2.716Z" fill="url(#f)"/><path d="m13.995 16.066-.015-.016a1.71 1.71 0 0 0-.202-.166 2.283 2.283 0 0 0-.49-.258 1.89 1.89 0 0 0-1.248-.051c-.975.294-1.536 1.073-1.895 2.207-.16.897-.145 2.623.676 3.434.24.269.764.61 1.435 1.046 1.412.918 3.475 2.26 4.936 4.25 1.044 1.332-.01 2.617-.528 2.9-.719.392-1.423.665-2.262 0-.839-.666-2.18-1.624-3.636-1.368-1.455.256-2.03.352-2.88.352H3.54a1.8 1.8 0 0 1-1.8-1.8v-4.513c0-1.957 1.231-4.44 3.197-5.122.638-.221 1.243-.634 1.5-1.258.682-1.649 1.943-3.41 4.388-4.149 2.984-.9 5.438.692 6.374 1.796a2.1 2.1 0 0 1-3.204 2.716Z" fill="url(#g)"/></g><path d="m13.995 16.066-.015-.016a1.71 1.71 0 0 0-.202-.166 2.283 2.283 0 0 0-.49-.258 1.89 1.89 0 0 0-1.248-.051c-.975.294-1.536 1.073-1.895 2.207-.16.897-.145 2.623.676 3.434.24.269.764.61 1.435 1.046 1.412.918 3.475 2.26 4.936 4.25 1.044 1.332-.01 2.617-.528 2.9-.719.392-1.423.665-2.262 0-.839-.666-2.18-1.624-3.636-1.368-1.455.256-2.03.352-2.88.352H3.54a1.8 1.8 0 0 1-1.8-1.8v-4.513c0-1.957 1.231-4.44 3.197-5.122.638-.221 1.243-.634 1.5-1.258.682-1.649 1.943-3.41 4.388-4.149 2.984-.9 5.438.692 6.374 1.796a2.1 2.1 0 0 1-3.204 2.716Z" fill="url(#h)"/><path fill-rule="evenodd" clip-rule="evenodd" d="M21.141 14.586c-.749-.46-1.716-.381-2.349-.065a2.1 2.1 0 1 1-1.878-3.756c1.62-.81 4.17-1.142 6.424.242 3.087 1.894 3.357 4.894 3.357 6.858a2.1 2.1 0 1 1-4.2 0c0-1.636-.24-2.595-1.354-3.279Z" fill="#E2B498"/><path fill-rule="evenodd" clip-rule="evenodd" d="M21.141 14.586c-.749-.46-1.716-.381-2.349-.065a2.1 2.1 0 1 1-1.878-3.756c1.62-.81 4.17-1.142 6.424.242 3.087 1.894 3.357 4.894 3.357 6.858a2.1 2.1 0 1 1-4.2 0c0-1.636-.24-2.595-1.354-3.279Z" fill="url(#i)"/><path fill-rule="evenodd" clip-rule="evenodd" d="M21.141 14.586c-.749-.46-1.716-.381-2.349-.065a2.1 2.1 0 1 1-1.878-3.756c1.62-.81 4.17-1.142 6.424.242 3.087 1.894 3.357 4.894 3.357 6.858a2.1 2.1 0 1 1-4.2 0c0-1.636-.24-2.595-1.354-3.279Z" fill="url(#j)"/><g filter="url(#k)"><path d="m17.38 16.066.015-.016a1.71 1.71 0 0 1 .202-.166c.133-.092.3-.186.49-.258.37-.14.789-.19 1.248-.051.975.294 1.536 1.073 1.895 2.207.16.897.145 2.623-.676 3.434-.24.269-.764.61-1.435 1.046-1.412.918-3.475 2.26-4.936 4.25-1.044 1.332-.095 2.742.423 3.024.72.393 1.528.54 2.367-.125s2.18-1.623 3.636-1.367c1.455.256 2.03.352 2.88.352h4.346a1.8 1.8 0 0 0 1.8-1.8v-4.513c0-1.957-1.231-4.44-3.197-5.122-.638-.221-1.243-.634-1.5-1.258-.682-1.649-1.943-3.41-4.389-4.149-2.982-.9-5.437.692-6.373 1.796a2.1 2.1 0 0 0 3.204 2.716Z" fill="#F4BEAE"/></g><g filter="url(#l)"><path d="M19.031 12.505c1.375-.042 4.275.844 5.25 4.719" stroke="url(#m)" stroke-width="2" stroke-linecap="round"/></g><g filter="url(#n)"><path d="M25.781 18.193c.802.375 2.407 1.637 2.407 3.687V26.1" stroke="url(#o)" stroke-width="2" stroke-linecap="round"/></g><g filter="url(#p)"><path d="M15.469 27.849c.52-.854 2.493-2.669 4.094-3.844" stroke="url(#q)" stroke-width="2" stroke-linecap="round"/></g><g filter="url(#r)"><path d="M8.45 19.099c-.105.802.093 2.606 1.718 3.406 1.676 1.063 3.115 2.125 3.657 2.688" stroke="url(#s)" stroke-width="2" stroke-linecap="round"/></g><defs><radialGradient id="b" cx="0" cy="0" r="1" gradientUnits="userSpaceOnUse" gradientTransform="matrix(-8.34381 6.31243 -6.97483 -9.21937 14.969 11.474)"><stop stop-color="#FCD0B3"/><stop offset="1" stop-color="#EAB195"/></radialGradient><radialGradient id="c" cx="0" cy="0" r="1" gradientUnits="userSpaceOnUse" gradientTransform="matrix(-2.78128 3.62228 -2.66505 -2.0463 9.781 15.445)"><stop offset=".532" stop-color="#DBA486"/><stop offset="1" stop-color="#DBA486" stop-opacity="0"/></radialGradient><radialGradient id="e" cx="0" cy="0" r="1" gradientUnits="userSpaceOnUse" gradientTransform="matrix(-9.5 5.0001 -4.29369 -8.15785 12.094 20.008)"><stop offset=".188" stop-color="#FBC4B3"/><stop offset="1" stop-color="#D89E89"/></radialGradient><radialGradient id="f" cx="0" cy="0" r="1" gradientUnits="userSpaceOnUse" gradientTransform="rotate(-161.777 9.692 13.765) scale(7.76442 5.36053)"><stop offset=".064" stop-color="#CC8E92"/><stop offset="1" stop-color="#CC8E92" stop-opacity="0"/></radialGradient><radialGradient id="g" cx="0" cy="0" r="1" gradientUnits="userSpaceOnUse" gradientTransform="rotate(-128.919 14.229 8.73) scale(6.46664 2.55443)"><stop stop-color="#CE967D"/><stop offset="1" stop-color="#CE967D" stop-opacity="0"/></radialGradient><radialGradient id="h" cx="0" cy="0" r="1" gradientUnits="userSpaceOnUse" gradientTransform="matrix(-3.40628 3.7698 -2.87778 -2.60028 14.469 15.866)"><stop offset=".365" stop-color="#C5837E"/><stop offset="1" stop-color="#D0908A" stop-opacity="0"/></radialGradient><radialGradient id="i" cx="0" cy="0" r="1" gradientUnits="userSpaceOnUse" gradientTransform="matrix(-10.37497 -9.90623 3.07089 -3.2162 26.938 16.724)"><stop offset=".381" stop-color="#FFE3C2"/><stop offset="1" stop-color="#FFE3C2" stop-opacity="0"/></radialGradient><radialGradient id="j" cx="0" cy="0" r="1" gradientUnits="userSpaceOnUse" gradientTransform="rotate(40.49 -8.112 37.933) scale(4.35557 2.55906)"><stop offset=".467" stop-color="#FFC4A1"/><stop offset="1" stop-color="#FFC4A1" stop-opacity="0"/></radialGradient><radialGradient id="o" cx="0" cy="0" r="1" gradientUnits="userSpaceOnUse" gradientTransform="matrix(-6.37496 4.62505 -3.3986 -4.68448 30.844 19.505)"><stop offset=".325" stop-color="#FFE4C7"/><stop offset="1" stop-color="#FFE4C7" stop-opacity="0"/></radialGradient><filter id="a" x="4.983" y="10.063" width="11.192" height="9.903" filterUnits="userSpaceOnUse" color-interpolation-filters="sRGB"><feFlood flood-opacity="0" result="BackgroundImageFix"/><feBlend in="SourceGraphic" in2="BackgroundImageFix" result="shape"/><feColorMatrix in="SourceAlpha" values="0 0 0 0 0 0 0 0 0 0 0 0 0 0 0 0 0 0 127 0" result="hardAlpha"/><feOffset dx=".25"/><feGaussianBlur stdDeviation=".25"/><feComposite in2="hardAlpha" operator="arithmetic" k2="-1" k3="1"/><feColorMatrix values="0 0 0 0 0.882353 0 0 0 0 0.698039 0 0 0 0 0.588235 0 0 0 1 0"/><feBlend in2="shape" result="effect1_innerShadow_20020_7191"/></filter><filter id="d" x="1.74" y="10.289" width="16.207" height="19.776" filterUnits="userSpaceOnUse" color-interpolation-filters="sRGB"><feFlood flood-opacity="0" result="BackgroundImageFix"/><feBlend in="SourceGraphic" in2="BackgroundImageFix" result="shape"/><feColorMatrix in="SourceAlpha" values="0 0 0 0 0 0 0 0 0 0 0 0 0 0 0 0 0 0 127 0" result="hardAlpha"/><feOffset dy="-1"/><feGaussianBlur stdDeviation="1"/><feComposite in2="hardAlpha" operator="arithmetic" k2="-1" k3="1"/><feColorMatrix values="0 0 0 0 0.839216 0 0 0 0 0.615686 0 0 0 0 0.627451 0 0 0 1 0"/><feBlend in2="shape" result="effect1_innerShadow_20020_7191"/><feColorMatrix in="SourceAlpha" values="0 0 0 0 0 0 0 0 0 0 0 0 0 0 0 0 0 0 127 0" result="hardAlpha"/><feOffset dy="-.5"/><feGaussianBlur stdDeviation=".75"/><feComposite in2="hardAlpha" operator="arithmetic" k2="-1" k3="1"/><feColorMatrix values="0 0 0 0 0.721569 0 0 0 0 0.501961 0 0 0 0 0.619608 0 0 0 1 0"/><feBlend in2="effect1_innerShadow_20020_7191" result="effect2_innerShadow_20020_7191"/><feColorMatrix in="SourceAlpha" values="0 0 0 0 0 0 0 0 0 0 0 0 0 0 0 0 0 0 127 0" result="hardAlpha"/><feOffset dx=".25" dy=".25"/><feGaussianBlur stdDeviation=".375"/><feComposite in2="hardAlpha" operator="arithmetic" k2="-1" k3="1"/><feColorMatrix values="0 0 0 0 0.968627 0 0 0 0 0.741176 0 0 0 0 0.647059 0 0 0 1 0"/><feBlend in2="effect2_innerShadow_20020_7191" result="effect3_innerShadow_20020_7191"/></filter><filter id="k" x="13.178" y="10.289" width="16.957" height="19.832" filterUnits="userSpaceOnUse" color-interpolation-filters="sRGB"><feFlood flood-opacity="0" result="BackgroundImageFix"/><feBlend in="SourceGraphic" in2="BackgroundImageFix" result="shape"/><feColorMatrix in="SourceAlpha" values="0 0 0 0 0 0 0 0 0 0 0 0 0 0 0 0 0 0 127 0" result="hardAlpha"/><feOffset dy="-1"/><feGaussianBlur stdDeviation="1"/><feComposite in2="hardAlpha" operator="arithmetic" k2="-1" k3="1"/><feColorMatrix values="0 0 0 0 0.85098 0 0 0 0 0.627451 0 0 0 0 0.635294 0 0 0 1 0"/><feBlend in2="shape" result="effect1_innerShadow_20020_7191"/><feColorMatrix in="SourceAlpha" values="0 0 0 0 0 0 0 0 0 0 0 0 0 0 0 0 0 0 127 0" result="hardAlpha"/><feOffset dx=".5"/><feGaussianBlur stdDeviation=".75"/><feComposite in2="hardAlpha" operator="arithmetic" k2="-1" k3="1"/><feColorMatrix values="0 0 0 0 0.788235 0 0 0 0 0.588235 0 0 0 0 0.501961 0 0 0 1 0"/><feBlend in2="effect1_innerShadow_20020_7191" result="effect2_innerShadow_20020_7191"/><feColorMatrix in="SourceAlpha" values="0 0 0 0 0 0 0 0 0 0 0 0 0 0 0 0 0 0 127 0" result="hardAlpha"/><feOffset dy="-.25"/><feGaussianBlur stdDeviation=".375"/><feComposite in2="hardAlpha" operator="arithmetic" k2="-1" k3="1"/><feColorMatrix values="0 0 0 0 0.713726 0 0 0 0 0.501961 0 0 0 0 0.623529 0 0 0 1 0"/><feBlend in2="effect2_innerShadow_20020_7191" result="effect3_innerShadow_20020_7191"/><feColorMatrix in="SourceAlpha" values="0 0 0 0 0 0 0 0 0 0 0 0 0 0 0 0 0 0 127 0" result="hardAlpha"/><feOffset dx="-.5" dy=".25"/><feGaussianBlur stdDeviation=".5"/><feComposite in2="hardAlpha" operator="arithmetic" k2="-1" k3="1"/><feColorMatrix values="0 0 0 0 1 0 0 0 0 0.839216 0 0 0 0 0.737255 0 0 0 1 0"/><feBlend in2="effect3_innerShadow_20020_7191" result="effect4_innerShadow_20020_7191"/></filter><filter id="l" x="17.031" y="10.504" width="9.25" height="8.72" filterUnits="userSpaceOnUse" color-interpolation-filters="sRGB"><feFlood flood-opacity="0" result="BackgroundImageFix"/><feBlend in="SourceGraphic" in2="BackgroundImageFix" result="shape"/><feGaussianBlur stdDeviation=".5" result="effect1_foregroundBlur_20020_7191"/></filter><filter id="n" x="23.781" y="16.192" width="6.406" height="11.906" filterUnits="userSpaceOnUse" color-interpolation-filters="sRGB"><feFlood flood-opacity="0" result="BackgroundImageFix"/><feBlend in="SourceGraphic" in2="BackgroundImageFix" result="shape"/><feGaussianBlur stdDeviation=".5" result="effect1_foregroundBlur_20020_7191"/></filter><filter id="p" x="13.469" y="22.005" width="8.094" height="7.844" filterUnits="userSpaceOnUse" color-interpolation-filters="sRGB"><feFlood flood-opacity="0" result="BackgroundImageFix"/><feBlend in="SourceGraphic" in2="BackgroundImageFix" result="shape"/><feGaussianBlur stdDeviation=".5" result="effect1_foregroundBlur_20020_7191"/></filter><filter id="r" x="6.427" y="17.099" width="9.398" height="10.094" filterUnits="userSpaceOnUse" color-interpolation-filters="sRGB"><feFlood flood-opacity="0" result="BackgroundImageFix"/><feBlend in="SourceGraphic" in2="BackgroundImageFix" result="shape"/><feGaussianBlur stdDeviation=".5" result="effect1_foregroundBlur_20020_7191"/></filter><linearGradient id="m" x1="24.281" y1="17.224" x2="15.375" y2="11.286" gradientUnits="userSpaceOnUse"><stop stop-color="#FFE4C9"/><stop offset="1" stop-color="#FFE4C9" stop-opacity="0"/></linearGradient><linearGradient id="q" x1="15.906" y1="28.161" x2="19.499" y2="23.048" gradientUnits="userSpaceOnUse"><stop stop-color="#EFBCB1"/><stop offset="1" stop-color="#EFBCB1" stop-opacity="0"/></linearGradient><linearGradient id="s" x1="11.813" y1="20.82" x2="9.606" y2="24.566" gradientUnits="userSpaceOnUse"><stop stop-color="#FFD3BC"/><stop offset="1" stop-color="#FFD3BC" stop-opacity="0"/></linearGradient></defs></svg>