<svg width="32" height="32" fill="none" xmlns="http://www.w3.org/2000/svg"><g filter="url(#a)"><path d="M2 29c0-.55.45-1 1-1h20c.55 0 1 .45 1 1s-.45 1-1 1H3c-.55 0-1-.44-1-1Z" fill="url(#b)"/></g><path d="M7 23.66h1v4.343c-.398.327-.836.136-.994 0H7V23.66Z" fill="url(#c)"/><path d="M7 23.66h1v4.343c-.398.327-.836.136-.994 0H7V23.66Z" fill="url(#d)"/><g filter="url(#e)"><path d="M3.514 28.86h19.443" stroke="url(#f)" stroke-width=".25" stroke-linecap="round"/></g><path d="m14 23.7.71-.71 4.923 5.008c-.219.265-1.063.215-1.334.008h-.002l-.008-.008L14 23.7Z" fill="url(#g)"/><path d="M13 5.49c0-.28-.22-.5-.5-.5s-.5.22-.5.5v.5h1v-.5Z" fill="url(#h)"/><path d="M12 8.99H4c-.55 0-1-.45-1-1s.45-1 1-1h8v2Z" fill="#D7C8D3"/><path d="M12 8.99H4c-.55 0-1-.45-1-1s.45-1 1-1h8v2Z" fill="url(#i)"/><path d="M12 8.99H4c-.55 0-1-.45-1-1s.45-1 1-1h8v2Z" fill="url(#j)"/><path d="M12 8.99H4c-.55 0-1-.45-1-1s.45-1 1-1h8v2Z" fill="url(#k)"/><path d="M13 6.99h9c.55 0 1 .45 1 1s-.45 1-1 1h-9v-2Z" fill="#D7C8D3"/><path d="M13 6.99h9c.55 0 1 .45 1 1s-.45 1-1 1h-9v-2Z" fill="url(#l)"/><g filter="url(#m)"><path fill-rule="evenodd" clip-rule="evenodd" d="M27.39 7.27c.18-.18.42-.28.67-.28.52 0 .94.43.94.94V12.49c0 .83-.67 1.5-1.5 1.5H23l-5 5v-5h-7.5c-.83 0-1.5-.67-1.5-1.5s.67-1.5 1.5-1.5h13.17l3.72-3.72Zm.61 4.72a1 1 0 1 1-2 0 1 1 0 0 1 2 0Z" fill="url(#n)"/></g><path d="M12.973 10.99H8.957c-.703 0-1.325.1-1.957.29l-5 7.71c.492 3.39 3.413 6 6.957 6h4.016c3.885 0 7.027-3.13 7.027-7 0-3.86-3.152-7-7.027-7Z" fill="url(#o)"/><path d="M12.973 10.99H8.957c-.703 0-1.325.1-1.957.29l-5 7.71c.492 3.39 3.413 6 6.957 6h4.016c3.885 0 7.027-3.13 7.027-7 0-3.86-3.152-7-7.027-7Z" fill="url(#p)"/><path d="M12.973 10.99H8.957c-.703 0-1.325.1-1.957.29l-5 7.71c.492 3.39 3.413 6 6.957 6h4.016c3.885 0 7.027-3.13 7.027-7 0-3.86-3.152-7-7.027-7Z" fill="url(#q)"/><path d="M13 5.99h-1v4h1v-4Z" fill="url(#r)"/><path d="M1.93 17.99c0 .34.02.67.07 1h8.46c.66 0 1.06-.73.7-1.29L7 11.28c-2.89.86-5.07 3.54-5.07 6.71Z" fill="#4ECAEF"/><path d="M1.93 17.99c0 .34.02.67.07 1h8.46c.66 0 1.06-.73.7-1.29L7 11.28c-2.89.86-5.07 3.54-5.07 6.71Z" fill="url(#s)"/><path d="M1.93 17.99c0 .34.02.67.07 1h8.46c.66 0 1.06-.73.7-1.29L7 11.28c-2.89.86-5.07 3.54-5.07 6.71Z" fill="url(#t)"/><g filter="url(#u)"><path d="m10.29 13.28 2.18 3.35c.45.7 1.53.38 1.53-.45v-3.35c0-.46-.37-.83-.83-.83h-2.18c-.66-.01-1.06.73-.7 1.28Z" fill="#51CEFF"/></g><path d="M2.607 20.99c.36.75.845 1.43 1.425 2H17.89a6.8 6.8 0 0 0 1.438-2H2.607Z" fill="url(#v)"/><path d="M11 10.443a.5.5 0 0 1 .5-.5h2.031a.5.5 0 0 1 .5.5v.547H11v-.547Z" fill="url(#w)"/><path d="M11 10.443a.5.5 0 0 1 .5-.5h2.031a.5.5 0 0 1 .5.5v.547H11v-.547Z" fill="url(#x)"/><defs><linearGradient id="b" x1="2.625" y1="30" x2="24" y2="30" gradientUnits="userSpaceOnUse"><stop stop-color="#EE488D"/><stop offset="1" stop-color="#FE7E4C"/></linearGradient><linearGradient id="c" x1="7" y1="25.777" x2="8" y2="25.777" gradientUnits="userSpaceOnUse"><stop stop-color="#A1899D"/><stop offset="1" stop-color="#E3CEE2"/></linearGradient><linearGradient id="d" x1="7.894" y1="24.829" x2="7.538" y2="25.702" gradientUnits="userSpaceOnUse"><stop stop-color="#AC75A0"/><stop offset="1" stop-color="#AC75A0" stop-opacity="0"/></linearGradient><linearGradient id="f" x1="23.328" y1="28.86" x2="1.533" y2="28.86" gradientUnits="userSpaceOnUse"><stop stop-color="#FF9E5B"/><stop offset="1" stop-color="#F65487"/></linearGradient><linearGradient id="g" x1="16.347" y1="26.144" x2="16.914" y2="25.565" gradientUnits="userSpaceOnUse"><stop stop-color="#B686A7"/><stop offset="1" stop-color="#F7EBF3"/></linearGradient><linearGradient id="h" x1="11.998" y1="5.493" x2="12.998" y2="5.493" gradientUnits="userSpaceOnUse"><stop stop-color="#BA6F5D"/><stop offset="1" stop-color="#FF9367"/></linearGradient><linearGradient id="i" x1="12.201" y1="7.99" x2="11.755" y2="7.99" gradientUnits="userSpaceOnUse"><stop stop-color="#A2919D"/><stop offset="1" stop-color="#A2919D" stop-opacity="0"/></linearGradient><linearGradient id="j" x1="8.469" y1="8.99" x2="8.469" y2="8.646" gradientUnits="userSpaceOnUse"><stop stop-color="#CDBEBE"/><stop offset="1" stop-color="#CDBEBE" stop-opacity="0"/></linearGradient><linearGradient id="l" x1="19.076" y1="8.99" x2="19.076" y2="8.646" gradientUnits="userSpaceOnUse"><stop stop-color="#CDBEBE"/><stop offset="1" stop-color="#CDBEBE" stop-opacity="0"/></linearGradient><linearGradient id="n" x1="28.373" y1="12.993" x2="16.063" y2="12.993" gradientUnits="userSpaceOnUse"><stop stop-color="#FE834B"/><stop offset="1" stop-color="#FF8346"/></linearGradient><linearGradient id="r" x1="11.859" y1="7.99" x2="12.781" y2="7.99" gradientUnits="userSpaceOnUse"><stop stop-color="#A2919D"/><stop offset="1" stop-color="#F5EBF2"/></linearGradient><linearGradient id="s" x1="10.875" y1="16.552" x2="6" y2="20.052" gradientUnits="userSpaceOnUse"><stop offset=".48" stop-color="#32A2CE"/><stop offset="1" stop-color="#32A2CE" stop-opacity="0"/></linearGradient><linearGradient id="w" x1="11" y1="10.646" x2="14.031" y2="10.646" gradientUnits="userSpaceOnUse"><stop stop-color="#C98C34"/><stop offset=".17" stop-color="#FFC748"/><stop offset=".827" stop-color="#FFC748"/><stop offset="1" stop-color="#FEE45D"/></linearGradient><linearGradient id="x" x1="12.516" y1="9.943" x2="12.516" y2="10.287" gradientUnits="userSpaceOnUse"><stop stop-color="#FDD244"/><stop offset="1" stop-color="#FDD244" stop-opacity="0"/></linearGradient><radialGradient id="k" cx="0" cy="0" r="1" gradientUnits="userSpaceOnUse" gradientTransform="matrix(-8.5625 0 0 -3.625 11.375 7.99)"><stop offset=".938" stop-color="#B8AFC0" stop-opacity="0"/><stop offset="1" stop-color="#B8AFC0"/></radialGradient><radialGradient id="o" cx="0" cy="0" r="1" gradientUnits="userSpaceOnUse" gradientTransform="rotate(147.362 5.771 10.302) scale(13.211 16.9856)"><stop stop-color="#FF8E53"/><stop offset="1" stop-color="#DA4B77"/></radialGradient><radialGradient id="p" cx="0" cy="0" r="1" gradientUnits="userSpaceOnUse" gradientTransform="matrix(14.12495 -10.31248 13.25895 18.16071 4.625 24.552)"><stop offset=".633" stop-color="#FFA260" stop-opacity="0"/><stop offset="1" stop-color="#FFA260"/></radialGradient><radialGradient id="q" cx="0" cy="0" r="1" gradientUnits="userSpaceOnUse" gradientTransform="matrix(-12.99996 6.18758 -7.95544 -16.7142 15.688 16.177)"><stop offset=".777" stop-color="#A63C67" stop-opacity="0"/><stop offset=".971" stop-color="#A63C67"/></radialGradient><radialGradient id="t" cx="0" cy="0" r="1" gradientUnits="userSpaceOnUse" gradientTransform="matrix(-4.81248 6.37502 -1.13692 -.85826 6.125 10.303)"><stop stop-color="#51CAF2"/><stop offset="1" stop-color="#51CAF2" stop-opacity="0"/></radialGradient><radialGradient id="v" cx="0" cy="0" r="1" gradientUnits="userSpaceOnUse" gradientTransform="matrix(-14.6094 0 0 -29.0865 17.813 21.302)"><stop stop-color="#FFBD4D"/><stop offset=".802" stop-color="#EE9C48"/><stop offset=".962" stop-color="#B8753B"/></radialGradient><filter id="a" x="2" y="27.75" width="22.5" height="2.25" filterUnits="userSpaceOnUse" color-interpolation-filters="sRGB"><feFlood flood-opacity="0" result="BackgroundImageFix"/><feBlend in="SourceGraphic" in2="BackgroundImageFix" result="shape"/><feColorMatrix in="SourceAlpha" values="0 0 0 0 0 0 0 0 0 0 0 0 0 0 0 0 0 0 127 0" result="hardAlpha"/><feOffset dx=".5" dy="-.25"/><feGaussianBlur stdDeviation=".375"/><feComposite in2="hardAlpha" operator="arithmetic" k2="-1" k3="1"/><feColorMatrix values="0 0 0 0 0.666667 0 0 0 0 0.235294 0 0 0 0 0.454902 0 0 0 1 0"/><feBlend in2="shape" result="effect1_innerShadow_18_12833"/></filter><filter id="e" x="2.989" y="28.335" width="20.493" height="1.05" filterUnits="userSpaceOnUse" color-interpolation-filters="sRGB"><feFlood flood-opacity="0" result="BackgroundImageFix"/><feBlend in="SourceGraphic" in2="BackgroundImageFix" result="shape"/><feGaussianBlur stdDeviation=".2" result="effect1_foregroundBlur_18_12833"/></filter><filter id="m" x="8.7" y="6.79" width="20.6" height="12.2" filterUnits="userSpaceOnUse" color-interpolation-filters="sRGB"><feFlood flood-opacity="0" result="BackgroundImageFix"/><feBlend in="SourceGraphic" in2="BackgroundImageFix" result="shape"/><feColorMatrix in="SourceAlpha" values="0 0 0 0 0 0 0 0 0 0 0 0 0 0 0 0 0 0 127 0" result="hardAlpha"/><feOffset dx=".2" dy="-.3"/><feGaussianBlur stdDeviation=".1"/><feComposite in2="hardAlpha" operator="arithmetic" k2="-1" k3="1"/><feColorMatrix values="0 0 0 0 0.776471 0 0 0 0 0.356863 0 0 0 0 0.34902 0 0 0 1 0"/><feBlend in2="shape" result="effect1_innerShadow_18_12833"/><feColorMatrix in="SourceAlpha" values="0 0 0 0 0 0 0 0 0 0 0 0 0 0 0 0 0 0 127 0" result="hardAlpha"/><feOffset dx=".3"/><feGaussianBlur stdDeviation=".2"/><feComposite in2="hardAlpha" operator="arithmetic" k2="-1" k3="1"/><feColorMatrix values="0 0 0 0 0.776471 0 0 0 0 0.356863 0 0 0 0 0.34902 0 0 0 1 0"/><feBlend in2="effect1_innerShadow_18_12833" result="effect2_innerShadow_18_12833"/><feColorMatrix in="SourceAlpha" values="0 0 0 0 0 0 0 0 0 0 0 0 0 0 0 0 0 0 127 0" result="hardAlpha"/><feOffset dx="-.3"/><feGaussianBlur stdDeviation=".15"/><feComposite in2="hardAlpha" operator="arithmetic" k2="-1" k3="1"/><feColorMatrix values="0 0 0 0 1 0 0 0 0 0.631373 0 0 0 0 0.368627 0 0 0 1 0"/><feBlend in2="effect2_innerShadow_18_12833" result="effect3_innerShadow_18_12833"/></filter><filter id="u" x="9.155" y="12" width="4.845" height="5.514" filterUnits="userSpaceOnUse" color-interpolation-filters="sRGB"><feFlood flood-opacity="0" result="BackgroundImageFix"/><feBlend in="SourceGraphic" in2="BackgroundImageFix" result="shape"/><feColorMatrix in="SourceAlpha" values="0 0 0 0 0 0 0 0 0 0 0 0 0 0 0 0 0 0 127 0" result="hardAlpha"/><feOffset dx="-1.5" dy=".5"/><feGaussianBlur stdDeviation=".5"/><feComposite in2="hardAlpha" operator="arithmetic" k2="-1" k3="1"/><feColorMatrix values="0 0 0 0 0.196078 0 0 0 0 0.647059 0 0 0 0 0.878431 0 0 0 1 0"/><feBlend in2="shape" result="effect1_innerShadow_18_12833"/></filter></defs></svg>