<svg width="32" height="32" fill="none" xmlns="http://www.w3.org/2000/svg"><g filter="url(#a)"><path d="M9.386 29.528a.603.603 0 0 1-1.14-.394l1.123-3.247a.15.15 0 0 0-.007-.114l-1.803-3.707a.605.605 0 1 1 1.09-.53l1.159 2.383a.153.153 0 0 0 .278-.01c1.057-2.517 2.686-4.544 4.959-6.083l.1-.098.008-.007a.184.184 0 0 0 .036-.206l-1.75-3.6a.605.605 0 1 1 1.09-.53l1.62 3.333a.148.148 0 0 0 .23.049 13.205 13.205 0 0 0 3.9-5.702l.38-1.09c.11-.32.45-.48.77-.37.32.11.48.45.37.77l-.38 1.09a14.37 14.37 0 0 1-3.774 5.803.153.153 0 0 0 .087.264l2.567.273c.33.03.57.33.54.66-.03.33-.33.57-.66.54l-4.087-.434a.145.145 0 0 0-.1.026l-.083.06c-.071.051-.148.107-.17.121-2.22 1.507-3.788 3.574-4.726 6.068a.149.149 0 0 0 .124.2l3.542.37c.33.03.57.33.54.66-.03.33-.33.57-.66.54l-3.901-.407a.15.15 0 0 0-.158.1l-1.114 3.22Z" fill="#4E7C2F"/></g><g filter="url(#b)"><path d="m8.906 29.144 1.844-5a11.591 11.591 0 0 1 2.734-4.172c2.047-1.984 4.032-2.86 5.375-4.797 1.344-1.937 1.953-3.25 2.485-5.094" stroke="#77975C" stroke-width=".25"/></g><g filter="url(#c)"><path d="m8.422 22.082 1.594 3.422" stroke="#83A763" stroke-width=".25"/></g><g filter="url(#d)"><path d="m13.953 25.816-3.807-.418" stroke="#77975C" stroke-width=".25"/></g><g filter="url(#e)"><path d="m19.976 18.285-3.807-.418" stroke="#77975C" stroke-width=".25"/></g><g filter="url(#f)"><path d="m16.078 17.77-1.801-3.602" stroke="#83A763" stroke-width=".25"/></g><g filter="url(#g)"><path d="m10.358 15.506-2.21-4.535a.241.241 0 0 0-.332-.11c-2.519 1.377-3.541 4.5-2.268 7.105l2.21 4.535c.061.125.211.177.332.11a5.409 5.409 0 0 0 2.268-7.105Z" fill="url(#h)"/><path d="m10.358 15.506-2.21-4.535a.241.241 0 0 0-.332-.11c-2.519 1.377-3.541 4.5-2.268 7.105l2.21 4.535c.061.125.211.177.332.11a5.409 5.409 0 0 0 2.268-7.105Z" fill="url(#i)"/><path d="m10.358 15.506-2.21-4.535a.241.241 0 0 0-.332-.11c-2.519 1.377-3.541 4.5-2.268 7.105l2.21 4.535c.061.125.211.177.332.11a5.409 5.409 0 0 0 2.268-7.105Z" fill="url(#j)"/></g><g filter="url(#k)"><path d="m10.338 16.28-2.384-4.677c-1.033.67-.46 2.316-.118 2.906l2.47 4.76c.624-1.083.281-2.444.032-2.99Z" fill="url(#l)"/></g><g filter="url(#m)"><path d="m15.788 9.116-1.7-3.495a.24.24 0 0 0-.331-.109 4.227 4.227 0 0 0-1.729 5.535l1.7 3.494a.24.24 0 0 0 .332.108 4.228 4.228 0 0 0 1.728-5.533Z" fill="url(#n)"/><path d="m15.788 9.116-1.7-3.495a.24.24 0 0 0-.331-.109 4.227 4.227 0 0 0-1.729 5.535l1.7 3.494a.24.24 0 0 0 .332.108 4.228 4.228 0 0 0 1.728-5.533Z" fill="url(#o)"/><path d="m15.788 9.116-1.7-3.495a.24.24 0 0 0-.331-.109 4.227 4.227 0 0 0-1.729 5.535l1.7 3.494a.24.24 0 0 0 .332.108 4.228 4.228 0 0 0 1.728-5.533Z" fill="url(#p)"/></g><g filter="url(#q)"><path d="m15.588 9.728-1.77-3.453c-.762.497-.335 1.712-.082 2.148l1.834 3.515c.459-.802.203-1.807.018-2.21Z" fill="url(#r)"/></g><path d="M24.084 2.293a.237.237 0 0 0-.329-.113c-3.105 1.659-4.42 5.442-2.992 8.66a.237.237 0 0 0 .328.113 6.727 6.727 0 0 0 2.993-8.66Z" fill="#B2DC52"/><path d="M24.084 2.293a.237.237 0 0 0-.329-.113c-3.105 1.659-4.42 5.442-2.992 8.66a.237.237 0 0 0 .328.113 6.727 6.727 0 0 0 2.993-8.66Z" fill="url(#s)"/><path d="M24.084 2.293a.237.237 0 0 0-.329-.113c-3.105 1.659-4.42 5.442-2.992 8.66a.237.237 0 0 0 .328.113 6.727 6.727 0 0 0 2.993-8.66Z" fill="url(#t)"/><path d="M24.084 2.293a.237.237 0 0 0-.329-.113c-3.105 1.659-4.42 5.442-2.992 8.66a.237.237 0 0 0 .328.113 6.727 6.727 0 0 0 2.993-8.66Z" fill="url(#u)"/><path d="M24.084 2.293a.237.237 0 0 0-.329-.113c-3.105 1.659-4.42 5.442-2.992 8.66a.237.237 0 0 0 .328.113 6.727 6.727 0 0 0 2.993-8.66Z" fill="url(#v)"/><path d="M24.084 2.293a.237.237 0 0 0-.329-.113c-3.105 1.659-4.42 5.442-2.992 8.66a.237.237 0 0 0 .328.113 6.727 6.727 0 0 0 2.993-8.66Z" fill="url(#w)"/><g filter="url(#x)"><path d="m23.806 15.138 3.871.404a.24.24 0 0 1 .216.274 4.224 4.224 0 0 1-4.607 3.512l-3.87-.404a.24.24 0 0 1-.216-.275c.366-2.19 2.37-3.752 4.606-3.511Z" fill="url(#y)"/><path d="m23.806 15.138 3.871.404a.24.24 0 0 1 .216.274 4.224 4.224 0 0 1-4.607 3.512l-3.87-.404a.24.24 0 0 1-.216-.275c.366-2.19 2.37-3.752 4.606-3.511Z" fill="url(#z)"/><path d="m23.806 15.138 3.871.404a.24.24 0 0 1 .216.274 4.224 4.224 0 0 1-4.607 3.512l-3.87-.404a.24.24 0 0 1-.216-.275c.366-2.19 2.37-3.752 4.606-3.511Z" fill="url(#A)"/></g><g filter="url(#B)"><path d="m23.61 15.544 3.866.34c-.174.894-1.46.956-1.96.885l-3.946-.375c.57-.727 1.598-.87 2.04-.85Z" fill="url(#C)"/></g><g filter="url(#D)"><path d="m19.348 21.682 5.021.524a.242.242 0 0 1 .218.274 5.404 5.404 0 0 1-5.909 4.562l-5.021-.524a.241.241 0 0 1-.217-.274 5.404 5.404 0 0 1 5.908-4.562Z" fill="url(#E)"/><path d="m19.348 21.682 5.021.524a.242.242 0 0 1 .218.274 5.404 5.404 0 0 1-5.909 4.562l-5.021-.524a.241.241 0 0 1-.217-.274 5.404 5.404 0 0 1 5.908-4.562Z" fill="url(#F)"/><path d="m19.348 21.682 5.021.524a.242.242 0 0 1 .218.274 5.404 5.404 0 0 1-5.909 4.562l-5.021-.524a.241.241 0 0 1-.217-.274 5.404 5.404 0 0 1 5.908-4.562Z" fill="url(#G)"/><path d="m19.348 21.682 5.021.524a.242.242 0 0 1 .218.274 5.404 5.404 0 0 1-5.909 4.562l-5.021-.524a.241.241 0 0 1-.217-.274 5.404 5.404 0 0 1 5.908-4.562Z" fill="url(#H)"/></g><g filter="url(#I)"><path d="m18.715 22.415 5.153.453c-.231 1.19-1.946 1.274-2.612 1.18l-5.261-.501c.76-.97 2.13-1.159 2.72-1.132Z" fill="url(#J)"/></g><defs><radialGradient id="h" cx="0" cy="0" r="1" gradientUnits="userSpaceOnUse" gradientTransform="matrix(.22601 14.46443 -6.8134 .10646 8.68 15.313)"><stop stop-color="#B5E64B"/><stop offset="1" stop-color="#8EC347"/></radialGradient><radialGradient id="i" cx="0" cy="0" r="1" gradientUnits="userSpaceOnUse" gradientTransform="matrix(.33037 -5.8125 3.38424 .19235 7.95 23.098)"><stop stop-color="#B2C770"/><stop offset="1" stop-color="#B2C770" stop-opacity="0"/></radialGradient><radialGradient id="j" cx="0" cy="0" r="1" gradientUnits="userSpaceOnUse" gradientTransform="matrix(-.78124 3.625 -.7357 -.15855 8.406 10.035)"><stop stop-color="#B1EB4B"/><stop offset="1" stop-color="#B1EB4B" stop-opacity="0"/></radialGradient><radialGradient id="n" cx="0" cy="0" r="1" gradientUnits="userSpaceOnUse" gradientTransform="rotate(89.105 2.684 11.837) scale(11.3145 5.32699)"><stop stop-color="#B5E64B"/><stop offset="1" stop-color="#8EC347"/></radialGradient><radialGradient id="o" cx="0" cy="0" r="1" gradientUnits="userSpaceOnUse" gradientTransform="rotate(-86.749 14.922 .168) scale(4.55349 2.64988)"><stop stop-color="#B2C770"/><stop offset="1" stop-color="#B2C770" stop-opacity="0"/></radialGradient><radialGradient id="p" cx="0" cy="0" r="1" gradientUnits="userSpaceOnUse" gradientTransform="matrix(-.61072 2.83525 -.57516 -.1239 14.264 4.84)"><stop stop-color="#B1EB4B"/><stop offset="1" stop-color="#B1EB4B" stop-opacity="0"/></radialGradient><radialGradient id="s" cx="0" cy="0" r="1" gradientUnits="userSpaceOnUse" gradientTransform="rotate(-162.658 13.396 1.86) scale(5.30757 7.17012)"><stop offset=".808" stop-color="#96C860" stop-opacity="0"/><stop offset="1" stop-color="#96C860"/></radialGradient><radialGradient id="t" cx="0" cy="0" r="1" gradientUnits="userSpaceOnUse" gradientTransform="rotate(25.145 -2.082 44.737) scale(6.1168 8.26332)"><stop offset=".91" stop-color="#96C860" stop-opacity="0"/><stop offset="1" stop-color="#96C860"/></radialGradient><radialGradient id="u" cx="0" cy="0" r="1" gradientUnits="userSpaceOnUse" gradientTransform="rotate(105.482 11.359 10.368) scale(4.8457 .59986)"><stop stop-color="#C8FF74"/><stop offset="1" stop-color="#C8FF74" stop-opacity="0"/></radialGradient><radialGradient id="v" cx="0" cy="0" r="1" gradientUnits="userSpaceOnUse" gradientTransform="rotate(115.337 12.26 9.208) scale(6.66023 3.31004)"><stop stop-color="#C7FD61"/><stop offset="1" stop-color="#C7FD61" stop-opacity="0"/></radialGradient><radialGradient id="w" cx="0" cy="0" r="1" gradientUnits="userSpaceOnUse" gradientTransform="matrix(-.39206 -.16508 .91852 -2.18144 20.877 10.815)"><stop stop-color="#AFCE6D"/><stop offset="1" stop-color="#AFCE6D" stop-opacity="0"/></radialGradient><radialGradient id="y" cx="0" cy="0" r="1" gradientUnits="userSpaceOnUse" gradientTransform="matrix(.33546 5.11608 -10.07227 .66044 24.627 16.729)"><stop stop-color="#B5E64B"/><stop offset="1" stop-color="#8EC347"/></radialGradient><radialGradient id="z" cx="0" cy="0" r="1" gradientUnits="userSpaceOnUse" gradientTransform="matrix(.49037 -2.05589 4.76818 1.1373 23.546 19.482)"><stop stop-color="#B2C770"/><stop offset="1" stop-color="#B2C770" stop-opacity="0"/></radialGradient><radialGradient id="A" cx="0" cy="0" r="1" gradientUnits="userSpaceOnUse" gradientTransform="matrix(-2.2789 1.4502 -.42352 -.66553 28.35 15.307)"><stop stop-color="#B1EB4B"/><stop offset="1" stop-color="#B1EB4B" stop-opacity="0"/></radialGradient><radialGradient id="E" cx="0" cy="0" r="1" gradientUnits="userSpaceOnUse" gradientTransform="rotate(86.246 -2.465 22.748) scale(6.55737 12.917)"><stop stop-color="#B5E64B"/><stop offset="1" stop-color="#8EC347"/></radialGradient><radialGradient id="F" cx="0" cy="0" r="1" gradientUnits="userSpaceOnUse" gradientTransform="rotate(-76.577 26.76 1.578) scale(2.70326 6.27273)"><stop stop-color="#B2C770"/><stop offset="1" stop-color="#B2C770" stop-opacity="0"/></radialGradient><radialGradient id="G" cx="0" cy="0" r="1" gradientUnits="userSpaceOnUse" gradientTransform="matrix(-2.49165 1.58204 -.52795 -.8315 24.618 22.109)"><stop stop-color="#B1EB4B"/><stop offset="1" stop-color="#B1EB4B" stop-opacity="0"/></radialGradient><radialGradient id="H" cx="0" cy="0" r="1" gradientUnits="userSpaceOnUse" gradientTransform="matrix(.5 -2.75 9.207 1.674 18.188 28)"><stop stop-color="#C0BA90"/><stop offset="1" stop-color="#C0BA90" stop-opacity="0"/></radialGradient><filter id="a" x="7.397" y="9.471" width="14.437" height="20.463" filterUnits="userSpaceOnUse" color-interpolation-filters="sRGB"><feFlood flood-opacity="0" result="BackgroundImageFix"/><feBlend in="SourceGraphic" in2="BackgroundImageFix" result="shape"/><feColorMatrix in="SourceAlpha" values="0 0 0 0 0 0 0 0 0 0 0 0 0 0 0 0 0 0 127 0" result="hardAlpha"/><feOffset dx="-.1" dy="-.1"/><feGaussianBlur stdDeviation=".5"/><feComposite in2="hardAlpha" operator="arithmetic" k2="-1" k3="1"/><feColorMatrix values="0 0 0 0 0.580392 0 0 0 0 0.462745 0 0 0 0 0.658824 0 0 0 1 0"/><feBlend in2="shape" result="effect1_innerShadow_28327_7824"/></filter><filter id="b" x="8.389" y="9.647" width="13.475" height="19.94" filterUnits="userSpaceOnUse" color-interpolation-filters="sRGB"><feFlood flood-opacity="0" result="BackgroundImageFix"/><feBlend in="SourceGraphic" in2="BackgroundImageFix" result="shape"/><feGaussianBlur stdDeviation=".2" result="effect1_foregroundBlur_28327_7824"/></filter><filter id="c" x="7.909" y="21.629" width="2.62" height="4.327" filterUnits="userSpaceOnUse" color-interpolation-filters="sRGB"><feFlood flood-opacity="0" result="BackgroundImageFix"/><feBlend in="SourceGraphic" in2="BackgroundImageFix" result="shape"/><feGaussianBlur stdDeviation=".2" result="effect1_foregroundBlur_28327_7824"/></filter><filter id="d" x="9.732" y="24.874" width="4.635" height="1.467" filterUnits="userSpaceOnUse" color-interpolation-filters="sRGB"><feFlood flood-opacity="0" result="BackgroundImageFix"/><feBlend in="SourceGraphic" in2="BackgroundImageFix" result="shape"/><feGaussianBlur stdDeviation=".2" result="effect1_foregroundBlur_28327_7824"/></filter><filter id="e" x="15.755" y="17.342" width="4.635" height="1.467" filterUnits="userSpaceOnUse" color-interpolation-filters="sRGB"><feFlood flood-opacity="0" result="BackgroundImageFix"/><feBlend in="SourceGraphic" in2="BackgroundImageFix" result="shape"/><feGaussianBlur stdDeviation=".2" result="effect1_foregroundBlur_28327_7824"/></filter><filter id="f" x="13.765" y="13.712" width="2.825" height="4.514" filterUnits="userSpaceOnUse" color-interpolation-filters="sRGB"><feFlood flood-opacity="0" result="BackgroundImageFix"/><feBlend in="SourceGraphic" in2="BackgroundImageFix" result="shape"/><feGaussianBlur stdDeviation=".2" result="effect1_foregroundBlur_28327_7824"/></filter><filter id="g" x="5" y="10.832" width="6.102" height="12.008" filterUnits="userSpaceOnUse" color-interpolation-filters="sRGB"><feFlood flood-opacity="0" result="BackgroundImageFix"/><feBlend in="SourceGraphic" in2="BackgroundImageFix" result="shape"/><feColorMatrix in="SourceAlpha" values="0 0 0 0 0 0 0 0 0 0 0 0 0 0 0 0 0 0 127 0" result="hardAlpha"/><feOffset dx=".2" dy=".2"/><feGaussianBlur stdDeviation=".375"/><feComposite in2="hardAlpha" operator="arithmetic" k2="-1" k3="1"/><feColorMatrix values="0 0 0 0 0.564706 0 0 0 0 0.760784 0 0 0 0 0.329412 0 0 0 1 0"/><feBlend in2="shape" result="effect1_innerShadow_28327_7824"/></filter><filter id="k" x="6.366" y="10.604" width="5.293" height="9.666" filterUnits="userSpaceOnUse" color-interpolation-filters="sRGB"><feFlood flood-opacity="0" result="BackgroundImageFix"/><feBlend in="SourceGraphic" in2="BackgroundImageFix" result="shape"/><feGaussianBlur stdDeviation=".5" result="effect1_foregroundBlur_28327_7824"/></filter><filter id="m" x="11.601" y="5.482" width="4.814" height="9.397" filterUnits="userSpaceOnUse" color-interpolation-filters="sRGB"><feFlood flood-opacity="0" result="BackgroundImageFix"/><feBlend in="SourceGraphic" in2="BackgroundImageFix" result="shape"/><feColorMatrix in="SourceAlpha" values="0 0 0 0 0 0 0 0 0 0 0 0 0 0 0 0 0 0 127 0" result="hardAlpha"/><feOffset dx=".2" dy=".2"/><feGaussianBlur stdDeviation=".375"/><feComposite in2="hardAlpha" operator="arithmetic" k2="-1" k3="1"/><feColorMatrix values="0 0 0 0 0.592157 0 0 0 0 0.784314 0 0 0 0 0.368627 0 0 0 1 0"/><feBlend in2="shape" result="effect1_innerShadow_28327_7824"/></filter><filter id="q" x="12.386" y="5.275" width="4.442" height="7.664" filterUnits="userSpaceOnUse" color-interpolation-filters="sRGB"><feFlood flood-opacity="0" result="BackgroundImageFix"/><feBlend in="SourceGraphic" in2="BackgroundImageFix" result="shape"/><feGaussianBlur stdDeviation=".5" result="effect1_foregroundBlur_28327_7824"/></filter><filter id="x" x="19.197" y="15.113" width="8.899" height="4.437" filterUnits="userSpaceOnUse" color-interpolation-filters="sRGB"><feFlood flood-opacity="0" result="BackgroundImageFix"/><feBlend in="SourceGraphic" in2="BackgroundImageFix" result="shape"/><feColorMatrix in="SourceAlpha" values="0 0 0 0 0 0 0 0 0 0 0 0 0 0 0 0 0 0 127 0" result="hardAlpha"/><feOffset dx=".2" dy=".2"/><feGaussianBlur stdDeviation=".375"/><feComposite in2="hardAlpha" operator="arithmetic" k2="-1" k3="1"/><feColorMatrix values="0 0 0 0 0.564706 0 0 0 0 0.760784 0 0 0 0 0.329412 0 0 0 1 0"/><feBlend in2="shape" result="effect1_innerShadow_28327_7824"/></filter><filter id="B" x="20.57" y="14.543" width="7.906" height="3.248" filterUnits="userSpaceOnUse" color-interpolation-filters="sRGB"><feFlood flood-opacity="0" result="BackgroundImageFix"/><feBlend in="SourceGraphic" in2="BackgroundImageFix" result="shape"/><feGaussianBlur stdDeviation=".5" result="effect1_foregroundBlur_28327_7824"/></filter><filter id="D" x="13.437" y="21.652" width="11.352" height="5.619" filterUnits="userSpaceOnUse" color-interpolation-filters="sRGB"><feFlood flood-opacity="0" result="BackgroundImageFix"/><feBlend in="SourceGraphic" in2="BackgroundImageFix" result="shape"/><feColorMatrix in="SourceAlpha" values="0 0 0 0 0 0 0 0 0 0 0 0 0 0 0 0 0 0 127 0" result="hardAlpha"/><feOffset dx=".2" dy=".2"/><feGaussianBlur stdDeviation=".375"/><feComposite in2="hardAlpha" operator="arithmetic" k2="-1" k3="1"/><feColorMatrix values="0 0 0 0 0.564706 0 0 0 0 0.760784 0 0 0 0 0.329412 0 0 0 1 0"/><feBlend in2="shape" result="effect1_innerShadow_28327_7824"/></filter><filter id="I" x="14.995" y="21.412" width="9.873" height="3.663" filterUnits="userSpaceOnUse" color-interpolation-filters="sRGB"><feFlood flood-opacity="0" result="BackgroundImageFix"/><feBlend in="SourceGraphic" in2="BackgroundImageFix" result="shape"/><feGaussianBlur stdDeviation=".5" result="effect1_foregroundBlur_28327_7824"/></filter><linearGradient id="l" x1="9.906" y1="15.039" x2="8.62" y2="15.743" gradientUnits="userSpaceOnUse"><stop stop-color="#CFFF73"/><stop offset="1" stop-color="#CFFF73" stop-opacity="0"/></linearGradient><linearGradient id="r" x1="15.267" y1="8.811" x2="14.318" y2="9.334" gradientUnits="userSpaceOnUse"><stop stop-color="#CFFF73"/><stop offset="1" stop-color="#CFFF73" stop-opacity="0"/></linearGradient><linearGradient id="C" x1="24.581" y1="15.497" x2="24.454" y2="16.573" gradientUnits="userSpaceOnUse"><stop stop-color="#CFFF73"/><stop offset="1" stop-color="#CFFF73" stop-opacity="0"/></linearGradient><linearGradient id="J" x1="20.009" y1="22.352" x2="19.839" y2="23.787" gradientUnits="userSpaceOnUse"><stop stop-color="#CFFF73"/><stop offset="1" stop-color="#CFFF73" stop-opacity="0"/></linearGradient></defs></svg>