<svg width="32" height="32" fill="none" xmlns="http://www.w3.org/2000/svg"><path fill="#402D54" d="M2.104 17.109h2.219v12.844H2.104z"/><path fill="url(#a)" d="M2.104 17.109h2.219v12.844H2.104z"/><path fill="url(#b)" d="M2.104 17.109h2.219v12.844H2.104z"/><path fill="url(#c)" d="M2.104 17.109h2.219v12.844H2.104z"/><g filter="url(#d)"><path d="M2.072 11.75v5.375h2.954c3.75.125 4.53 2.578 4.53 5.063l-.045 4.655a3.25 3.25 0 0 0 3.25 3.282h16.187c.69 0 1.03-.46.992-1.242-.133-1.04-.776-1.753-1.102-2.102C23.713 20.958 13.16 8.878 11.385 6.703c-.963-1.18-1.82-2.105-2.797-2.531-1.234-.469-2.69-.306-4.14.906-2.188 2.14-2.47 4.974-2.376 6.672Z" fill="#EF1B64"/><path d="M2.072 11.75v5.375h2.954c3.75.125 4.53 2.578 4.53 5.063l-.045 4.655a3.25 3.25 0 0 0 3.25 3.282h16.187c.69 0 1.03-.46.992-1.242-.133-1.04-.776-1.753-1.102-2.102C23.713 20.958 13.16 8.878 11.385 6.703c-.963-1.18-1.82-2.105-2.797-2.531-1.234-.469-2.69-.306-4.14.906-2.188 2.14-2.47 4.974-2.376 6.672Z" fill="url(#e)"/></g><g filter="url(#f)"><path d="M8.962 4.362a2.294 2.294 0 0 0 .275 2.567l12.521 14.737a2.294 2.294 0 0 0 2.984.447c-5.312-6.065-11.98-13.722-13.357-15.41-.838-1.027-1.596-1.861-2.423-2.341Z" fill="#7E7985"/><path d="M8.962 4.362a2.294 2.294 0 0 0 .275 2.567l12.521 14.737a2.294 2.294 0 0 0 2.984.447c-5.312-6.065-11.98-13.722-13.357-15.41-.838-1.027-1.596-1.861-2.423-2.341Z" fill="url(#g)"/><path d="M8.962 4.362a2.294 2.294 0 0 0 .275 2.567l12.521 14.737a2.294 2.294 0 0 0 2.984.447c-5.312-6.065-11.98-13.722-13.357-15.41-.838-1.027-1.596-1.861-2.423-2.341Z" fill="url(#h)"/></g><defs><linearGradient id="a" x1="4.323" y1="29.953" x2="3.541" y2="29.953" gradientUnits="userSpaceOnUse"><stop stop-color="#442145"/><stop offset="1" stop-color="#442145" stop-opacity="0"/></linearGradient><linearGradient id="b" x1="2.323" y1="29.953" x2="3.479" y2="29.953" gradientUnits="userSpaceOnUse"><stop offset=".297" stop-color="#544D5E"/><stop offset="1" stop-color="#544D5E" stop-opacity="0"/></linearGradient><linearGradient id="c" x1="2.151" y1="29.953" x2="2.377" y2="29.953" gradientUnits="userSpaceOnUse"><stop stop-color="#3D3646"/><stop offset="1" stop-color="#3D3646" stop-opacity="0"/></linearGradient><linearGradient id="h" x1="13.737" y1="18.264" x2="17.213" y2="15.629" gradientUnits="userSpaceOnUse"><stop offset=".455" stop-color="#3A2C48"/><stop offset="1" stop-color="#3A2C48" stop-opacity="0"/></linearGradient><radialGradient id="e" cx="0" cy="0" r="1" gradientUnits="userSpaceOnUse" gradientTransform="rotate(49.986 -11.742 36.782) scale(9.91492 1.7401)"><stop stop-color="#FF6B8B"/><stop offset="1" stop-color="#FF6B8B" stop-opacity="0"/></radialGradient><radialGradient id="g" cx="0" cy="0" r="1" gradientUnits="userSpaceOnUse" gradientTransform="rotate(143.213 7.109 8.958) scale(8.66251 13.5746)"><stop offset=".786" stop-color="#342743" stop-opacity="0"/><stop offset=".952" stop-color="#342743"/></radialGradient><filter id="d" x="1.557" y="3.929" width="28.886" height="26.446" filterUnits="userSpaceOnUse" color-interpolation-filters="sRGB"><feFlood flood-opacity="0" result="BackgroundImageFix"/><feBlend in="SourceGraphic" in2="BackgroundImageFix" result="shape"/><feColorMatrix in="SourceAlpha" values="0 0 0 0 0 0 0 0 0 0 0 0 0 0 0 0 0 0 127 0" result="hardAlpha"/><feOffset dx=".75"/><feGaussianBlur stdDeviation=".25"/><feComposite in2="hardAlpha" operator="arithmetic" k2="-1" k3="1"/><feColorMatrix values="0 0 0 0 1 0 0 0 0 0.333333 0 0 0 0 0.478431 0 0 0 1 0"/><feBlend in2="shape" result="effect1_innerShadow_18_17275"/><feColorMatrix in="SourceAlpha" values="0 0 0 0 0 0 0 0 0 0 0 0 0 0 0 0 0 0 127 0" result="hardAlpha"/><feOffset dx=".5"/><feGaussianBlur stdDeviation=".5"/><feComposite in2="hardAlpha" operator="arithmetic" k2="-1" k3="1"/><feColorMatrix values="0 0 0 0 0.74902 0 0 0 0 0.184314 0 0 0 0 0.219608 0 0 0 1 0"/><feBlend in2="effect1_innerShadow_18_17275" result="effect2_innerShadow_18_17275"/><feColorMatrix in="SourceAlpha" values="0 0 0 0 0 0 0 0 0 0 0 0 0 0 0 0 0 0 127 0" result="hardAlpha"/><feOffset dx="-.5" dy=".25"/><feGaussianBlur stdDeviation=".5"/><feComposite in2="hardAlpha" operator="arithmetic" k2="-1" k3="1"/><feColorMatrix values="0 0 0 0 1 0 0 0 0 0.121569 0 0 0 0 0.309804 0 0 0 1 0"/><feBlend in2="effect2_innerShadow_18_17275" result="effect3_innerShadow_18_17275"/></filter><filter id="f" x="8.291" y="4.362" width="16.45" height="18.513" filterUnits="userSpaceOnUse" color-interpolation-filters="sRGB"><feFlood flood-opacity="0" result="BackgroundImageFix"/><feBlend in="SourceGraphic" in2="BackgroundImageFix" result="shape"/><feColorMatrix in="SourceAlpha" values="0 0 0 0 0 0 0 0 0 0 0 0 0 0 0 0 0 0 127 0" result="hardAlpha"/><feOffset dx="-.4" dy=".4"/><feGaussianBlur stdDeviation=".5"/><feComposite in2="hardAlpha" operator="arithmetic" k2="-1" k3="1"/><feColorMatrix values="0 0 0 0 0.192157 0 0 0 0 0.137255 0 0 0 0 0.25098 0 0 0 1 0"/><feBlend in2="shape" result="effect1_innerShadow_18_17275"/></filter></defs></svg>