<svg width="32" height="32" fill="none" xmlns="http://www.w3.org/2000/svg"><path d="M30 7.72a.25.25 0 0 0-.158-.232L16 2.04v27.92l13.841-5.438A.25.25 0 0 0 30 24.29V7.72Z" fill="url(#a)"/><path d="M30 7.72a.25.25 0 0 0-.158-.232L16 2.04v27.92l13.841-5.438A.25.25 0 0 0 30 24.29V7.72Z" fill="url(#b)"/><path d="M2 7.72a.25.25 0 0 1 .158-.232L16 2.04v27.92L2.159 24.522A.25.25 0 0 1 2 24.29V7.72Z" fill="url(#c)"/><path fill-rule="evenodd" clip-rule="evenodd" d="m2 14.45 14-.12h.21L30 14.04v-2l-12.72-1.59c-.42-.05-.85-.08-1.28-.08-.43 0-.86.03-1.28.08L2 12.04v2.41Z" fill="url(#d)"/><path fill-rule="evenodd" clip-rule="evenodd" d="m2 14.45 14-.12h.21L30 14.04v-2l-12.72-1.59c-.42-.05-.85-.08-1.28-.08-.43 0-.86.03-1.28.08L2 12.04v2.41Z" fill="url(#e)"/><path fill-rule="evenodd" clip-rule="evenodd" d="m2 14.45 14-.12h.21L30 14.04v-2l-12.72-1.59c-.42-.05-.85-.08-1.28-.08-.43 0-.86.03-1.28.08L2 12.04v2.41Z" fill="url(#f)"/><path fill-rule="evenodd" clip-rule="evenodd" d="m2 14.45 14-.12h.21L30 14.04v-2l-12.72-1.59c-.42-.05-.85-.08-1.28-.08-.43 0-.86.03-1.28.08L2 12.04v2.41Z" fill="url(#g)"/><g filter="url(#h)"><path d="m28.45 18.04.49-.78c.08-.13.08-.31 0-.42l-.49-.66c-.08-.11-.22-.1-.3.03l-.52.78c-.09.13-.09.33 0 .44l.52.66c.08.1.22.08.3-.05Z" fill="#FFCD56"/><path d="m28.45 18.04.49-.78c.08-.13.08-.31 0-.42l-.49-.66c-.08-.11-.22-.1-.3.03l-.52.78c-.09.13-.09.33 0 .44l.52.66c.08.1.22.08.3-.05Z" fill="url(#i)"/></g><g filter="url(#j)"><path d="M26.8 17.76v-.9c0-.35-.21-.61-.47-.59l-2.51.2c-.31.03-.57.36-.57.75v1.01c0 .39.26.67.57.62l2.51-.38c.26-.05.47-.36.47-.71Z" fill="url(#k)"/></g><g filter="url(#l)"><path d="m20.9 19.18-.82-.81c-.14-.14-.14-.39 0-.56l.82-1c.13-.16.34-.18.47-.04l.76.81c.12.13.12.37 0 .53l-.76.99c-.13.18-.34.21-.47.08Z" fill="#FFCF60"/></g><g filter="url(#m)"><path d="m3.85 18.08.52-.66c.09-.11.09-.31 0-.44l-.52-.78c-.08-.13-.22-.14-.3-.03l-.49.67c-.08.11-.08.3 0 .42l.49.78c.08.13.22.15.3.04Z" fill="url(#n)"/></g><g filter="url(#o)"><path d="m5.68 18.46 2.51.38c.31.05.57-.23.57-.62v-1.01c0-.39-.26-.73-.57-.75l-2.51-.2c-.26-.02-.47.24-.47.59v.9c-.01.36.2.67.47.71Z" fill="url(#p)"/></g><g filter="url(#q)"><path d="m16 20.04-1.98-.32c-.42-.07-.76-.48-.76-.92v-1.14c0-.44.34-.77.76-.74l1.98.18 1.98-.18c.42-.03.76.3.76.74v1.14c0 .44-.34.85-.76.92l-1.98.32Z" fill="url(#r)"/></g><g filter="url(#s)"><path d="m10.63 19.11-.76-.99c-.12-.16-.12-.39 0-.53l.76-.81c.13-.14.34-.12.47.04l.82 1c.14.17.14.42 0 .56l-.82.8c-.13.13-.34.1-.47-.07Z" fill="url(#t)"/></g><defs><linearGradient id="a" x1="16" y1="16.002" x2="30" y2="16.002" gradientUnits="userSpaceOnUse"><stop stop-color="#525054"/><stop offset="1" stop-color="#655B6F"/></linearGradient><linearGradient id="b" x1="25.281" y1="26.477" x2="25.176" y2="26.2" gradientUnits="userSpaceOnUse"><stop offset=".201" stop-color="#382C43"/><stop offset="1" stop-color="#382C43" stop-opacity="0"/></linearGradient><linearGradient id="c" x1="14.71" y1="14.358" x2="4.531" y2="17.315" gradientUnits="userSpaceOnUse"><stop stop-color="#2D292F"/><stop offset="1" stop-color="#34293B"/></linearGradient><linearGradient id="d" x1="2" y1="12.413" x2="30" y2="12.413" gradientUnits="userSpaceOnUse"><stop offset=".097" stop-color="#BD7A28"/><stop offset=".494" stop-color="#DC9F36"/><stop offset=".513" stop-color="#FFD060"/><stop offset=".997" stop-color="#FFEB61"/></linearGradient><linearGradient id="e" x1="16" y1="10.101" x2="16" y2="11.441" gradientUnits="userSpaceOnUse"><stop stop-color="#AD672D"/><stop offset="1" stop-color="#AD672D" stop-opacity="0"/></linearGradient><linearGradient id="f" x1="18.703" y1="10.101" x2="18.582" y2="11.359" gradientUnits="userSpaceOnUse"><stop stop-color="#AD672D"/><stop offset="1" stop-color="#AD672D" stop-opacity="0"/></linearGradient><linearGradient id="g" x1="13.226" y1="10.37" x2="13.307" y2="11.197" gradientUnits="userSpaceOnUse"><stop stop-color="#AD672D"/><stop offset="1" stop-color="#AD672D" stop-opacity="0"/></linearGradient><linearGradient id="i" x1="27.938" y1="17.962" x2="28.281" y2="17.602" gradientUnits="userSpaceOnUse"><stop stop-color="#FFED64"/><stop offset="1" stop-color="#FFED64" stop-opacity="0"/></linearGradient><linearGradient id="k" x1="23.594" y1="18.856" x2="27.469" y2="17.759" gradientUnits="userSpaceOnUse"><stop stop-color="#FFE964"/><stop offset="1" stop-color="#FFCE5B"/></linearGradient><linearGradient id="n" x1="4.438" y1="16.585" x2="3.349" y2="17.735" gradientUnits="userSpaceOnUse"><stop stop-color="#79350B"/><stop offset="1" stop-color="#A76226"/></linearGradient><linearGradient id="p" x1="5.21" y1="17.552" x2="9.507" y2="17.908" gradientUnits="userSpaceOnUse"><stop stop-color="#C87D26"/><stop offset="1" stop-color="#A66826"/></linearGradient><linearGradient id="r" x1="13.26" y1="18.066" x2="18.74" y2="18.066" gradientUnits="userSpaceOnUse"><stop stop-color="#FFC463"/><stop offset=".134" stop-color="#D59430"/><stop offset=".471" stop-color="#DA9C32"/><stop offset=".542" stop-color="#FFD465"/><stop offset=".875" stop-color="#FFC15E"/><stop offset="1" stop-color="#E5A645"/></linearGradient><linearGradient id="t" x1="10.469" y1="18.54" x2="12.025" y2="17.227" gradientUnits="userSpaceOnUse"><stop stop-color="#BF7B2A"/><stop offset="1" stop-color="#A35F28"/></linearGradient><filter id="h" x="27.163" y="16.104" width="1.837" height="2.049" filterUnits="userSpaceOnUse" color-interpolation-filters="sRGB"><feFlood flood-opacity="0" result="BackgroundImageFix"/><feBlend in="SourceGraphic" in2="BackgroundImageFix" result="shape"/><feColorMatrix in="SourceAlpha" values="0 0 0 0 0 0 0 0 0 0 0 0 0 0 0 0 0 0 127 0" result="hardAlpha"/><feOffset dx="-.4"/><feGaussianBlur stdDeviation=".2"/><feComposite in2="hardAlpha" operator="arithmetic" k2="-1" k3="1"/><feColorMatrix values="0 0 0 0 0.780392 0 0 0 0 0.482353 0 0 0 0 0.117647 0 0 0 1 0"/><feBlend in2="shape" result="effect1_innerShadow_18_7454"/></filter><filter id="j" x="22.85" y="15.869" width="4.1" height="3.287" filterUnits="userSpaceOnUse" color-interpolation-filters="sRGB"><feFlood flood-opacity="0" result="BackgroundImageFix"/><feBlend in="SourceGraphic" in2="BackgroundImageFix" result="shape"/><feColorMatrix in="SourceAlpha" values="0 0 0 0 0 0 0 0 0 0 0 0 0 0 0 0 0 0 127 0" result="hardAlpha"/><feOffset dx=".15" dy="-.4"/><feGaussianBlur stdDeviation=".25"/><feComposite in2="hardAlpha" operator="arithmetic" k2="-1" k3="1"/><feColorMatrix values="0 0 0 0 1 0 0 0 0 0.87451 0 0 0 0 0.164706 0 0 0 1 0"/><feBlend in2="shape" result="effect1_innerShadow_18_7454"/><feColorMatrix in="SourceAlpha" values="0 0 0 0 0 0 0 0 0 0 0 0 0 0 0 0 0 0 127 0" result="hardAlpha"/><feOffset dx="-.4" dy=".3"/><feGaussianBlur stdDeviation=".25"/><feComposite in2="hardAlpha" operator="arithmetic" k2="-1" k3="1"/><feColorMatrix values="0 0 0 0 0.780392 0 0 0 0 0.482353 0 0 0 0 0.117647 0 0 0 1 0"/><feBlend in2="effect1_innerShadow_18_7454" result="effect2_innerShadow_18_7454"/></filter><filter id="l" x="19.575" y="16.526" width="2.795" height="2.733" filterUnits="userSpaceOnUse" color-interpolation-filters="sRGB"><feFlood flood-opacity="0" result="BackgroundImageFix"/><feBlend in="SourceGraphic" in2="BackgroundImageFix" result="shape"/><feColorMatrix in="SourceAlpha" values="0 0 0 0 0 0 0 0 0 0 0 0 0 0 0 0 0 0 127 0" result="hardAlpha"/><feOffset dx=".15" dy="-.15"/><feGaussianBlur stdDeviation=".125"/><feComposite in2="hardAlpha" operator="arithmetic" k2="-1" k3="1"/><feColorMatrix values="0 0 0 0 1 0 0 0 0 0.921569 0 0 0 0 0.435294 0 0 0 1 0"/><feBlend in2="shape" result="effect1_innerShadow_18_7454"/><feColorMatrix in="SourceAlpha" values="0 0 0 0 0 0 0 0 0 0 0 0 0 0 0 0 0 0 127 0" result="hardAlpha"/><feOffset dx="-.4"/><feGaussianBlur stdDeviation=".2"/><feComposite in2="hardAlpha" operator="arithmetic" k2="-1" k3="1"/><feColorMatrix values="0 0 0 0 0.780392 0 0 0 0 0.482353 0 0 0 0 0.117647 0 0 0 1 0"/><feBlend in2="effect1_innerShadow_18_7454" result="effect2_innerShadow_18_7454"/></filter><filter id="m" x="3" y="16.094" width="1.688" height="2.057" filterUnits="userSpaceOnUse" color-interpolation-filters="sRGB"><feFlood flood-opacity="0" result="BackgroundImageFix"/><feBlend in="SourceGraphic" in2="BackgroundImageFix" result="shape"/><feColorMatrix in="SourceAlpha" values="0 0 0 0 0 0 0 0 0 0 0 0 0 0 0 0 0 0 127 0" result="hardAlpha"/><feOffset dx=".4"/><feGaussianBlur stdDeviation=".125"/><feComposite in2="hardAlpha" operator="arithmetic" k2="-1" k3="1"/><feColorMatrix values="0 0 0 0 0.745098 0 0 0 0 0.439216 0 0 0 0 0.0901961 0 0 0 1 0"/><feBlend in2="shape" result="effect1_innerShadow_18_7454"/></filter><filter id="o" x="4.96" y="16.109" width="4.05" height="2.887" filterUnits="userSpaceOnUse" color-interpolation-filters="sRGB"><feFlood flood-opacity="0" result="BackgroundImageFix"/><feBlend in="SourceGraphic" in2="BackgroundImageFix" result="shape"/><feColorMatrix in="SourceAlpha" values="0 0 0 0 0 0 0 0 0 0 0 0 0 0 0 0 0 0 127 0" result="hardAlpha"/><feOffset dx="-.25" dy=".15"/><feGaussianBlur stdDeviation=".275"/><feComposite in2="hardAlpha" operator="arithmetic" k2="-1" k3="1"/><feColorMatrix values="0 0 0 0 0.54902 0 0 0 0 0.317647 0 0 0 0 0.117647 0 0 0 1 0"/><feBlend in2="shape" result="effect1_innerShadow_18_7454"/><feColorMatrix in="SourceAlpha" values="0 0 0 0 0 0 0 0 0 0 0 0 0 0 0 0 0 0 127 0" result="hardAlpha"/><feOffset dx=".25" dy="-.15"/><feGaussianBlur stdDeviation=".25"/><feComposite in2="hardAlpha" operator="arithmetic" k2="-1" k3="1"/><feColorMatrix values="0 0 0 0 0.921569 0 0 0 0 0.607843 0 0 0 0 0.164706 0 0 0 1 0"/><feBlend in2="effect1_innerShadow_18_7454" result="effect2_innerShadow_18_7454"/></filter><filter id="q" x="13.01" y="16.668" width="5.98" height="3.622" filterUnits="userSpaceOnUse" color-interpolation-filters="sRGB"><feFlood flood-opacity="0" result="BackgroundImageFix"/><feBlend in="SourceGraphic" in2="BackgroundImageFix" result="shape"/><feColorMatrix in="SourceAlpha" values="0 0 0 0 0 0 0 0 0 0 0 0 0 0 0 0 0 0 127 0" result="hardAlpha"/><feOffset dx=".25" dy="-.25"/><feGaussianBlur stdDeviation=".25"/><feComposite in2="hardAlpha" operator="arithmetic" k2="-1" k3="1"/><feColorMatrix values="0 0 0 0 0.960784 0 0 0 0 0.709804 0 0 0 0 0.141176 0 0 0 1 0"/><feBlend in2="shape" result="effect1_innerShadow_18_7454"/><feColorMatrix in="SourceAlpha" values="0 0 0 0 0 0 0 0 0 0 0 0 0 0 0 0 0 0 127 0" result="hardAlpha"/><feOffset dx="-.25" dy=".25"/><feGaussianBlur stdDeviation=".25"/><feComposite in2="hardAlpha" operator="arithmetic" k2="-1" k3="1"/><feColorMatrix values="0 0 0 0 0.780392 0 0 0 0 0.482353 0 0 0 0 0.117647 0 0 0 1 0"/><feBlend in2="effect1_innerShadow_18_7454" result="effect2_innerShadow_18_7454"/></filter><filter id="s" x="9.78" y="16.686" width="2.545" height="2.574" filterUnits="userSpaceOnUse" color-interpolation-filters="sRGB"><feFlood flood-opacity="0" result="BackgroundImageFix"/><feBlend in="SourceGraphic" in2="BackgroundImageFix" result="shape"/><feColorMatrix in="SourceAlpha" values="0 0 0 0 0 0 0 0 0 0 0 0 0 0 0 0 0 0 127 0" result="hardAlpha"/><feOffset dx=".3"/><feGaussianBlur stdDeviation=".3"/><feComposite in2="hardAlpha" operator="arithmetic" k2="-1" k3="1"/><feColorMatrix values="0 0 0 0 0.960784 0 0 0 0 0.647059 0 0 0 0 0.145098 0 0 0 1 0"/><feBlend in2="shape" result="effect1_innerShadow_18_7454"/></filter></defs></svg>