<svg width="32" height="32" fill="none" xmlns="http://www.w3.org/2000/svg"><path d="M12.82 16.01h-1.95l3.64-5.94c.24-.38.51-.74.82-1.06h2.19c1.14 0 1.82 1.26 1.22 2.21-.01.02-.03.04-.04.06-.93 1.35-1.64 2.36-1.64 2.36a4.988 4.988 0 0 1-4.24 2.37Z" fill="url(#a)"/><g filter="url(#b)"><path d="M29.97 7.885V28.01H8.14a7.88 7.88 0 0 1-.85-5c.16-1.01.51-1.99 1.06-2.88l1.3-2.12c8.119 0 5.277-10.125 20.32-10.125Z" fill="url(#c)"/></g><path d="M29.97 23.01v5H8.14a7.88 7.88 0 0 1-.85-5h22.68Z" fill="url(#d)"/><path d="M29.97 23.01v5H8.14a7.88 7.88 0 0 1-.85-5h22.68Z" fill="url(#e)"/><path d="M18.74 11.22c-.01.02-.03.04-.04.06-.93 1.35-1.64 2.36-1.64 2.36a4.988 4.988 0 0 1-4.24 2.37h-1.95l3.64-5.94c.24-.38.51-.74.82-1.06h2.19c1.14 0 1.82 1.26 1.22 2.21Z" fill="url(#f)"/><g filter="url(#g)"><path d="M29.97 7.01v2h-4.65c-1.28 0-2.47.65-3.15 1.73l-3.11 4.9a4.988 4.988 0 0 1-4.24 2.37H9.65l1.22-2c2.748-3.273 3.306-4.294 4.46-7a6.44 6.44 0 0 1 4.24-1.99c.13-.01.27-.01.41-.01h9.99Z" fill="url(#h)"/></g><path d="M19.98 7.01c-.14 0-.28 0-.41.01.05-.01.11-.01.16-.01h.25Z" fill="url(#i)"/><g filter="url(#j)"><path d="M12.97 22.01h-2c-.55 0-1-.45-1-1s.45-1 1-1h2c.55 0 1 .45 1 1s-.44 1-1 1Z" fill="url(#k)"/></g><path d="M29.97 22.01h-8c-.55 0-1-.45-1-1s.45-1 1-1h8v2Z" fill="url(#l)"/><path d="M23.22 18.01h-.48c-1.24 0-2-1.36-1.35-2.42l1.71-2.77a3.83 3.83 0 0 1 3.25-1.81h3.63v7" fill="url(#m)"/><path d="M23.22 18.01h-.48c-1.24 0-2-1.36-1.35-2.42l1.71-2.77a3.83 3.83 0 0 1 3.25-1.81h3.63v7" fill="url(#n)"/><path d="M23.22 18.01h-.48c-1.24 0-2-1.36-1.35-2.42l1.71-2.77a3.83 3.83 0 0 1 3.25-1.81h3.63v7" fill="url(#o)"/><path d="M23.22 18.01h-.48c-1.24 0-2-1.36-1.35-2.42l1.71-2.77a3.83 3.83 0 0 1 3.25-1.81h3.63v7" fill="url(#p)"/><path d="M29.97 27.01H1.99v3h27.98v-3Z" fill="url(#q)"/><g filter="url(#r)"><path fill="url(#s)" d="M2.611 27.659h26.815v.851H2.611z"/></g><path d="M18.74 11.22c-.01.02-.03.04-.04.06-.93 1.35-1.64 2.36-1.64 2.36a4.988 4.988 0 0 1-4.24 2.37h-1.95l3.64-5.94c.24-.38.51-.74.82-1.06h2.19c1.14 0 1.82 1.26 1.22 2.21Z" fill="url(#t)"/><defs><linearGradient id="a" x1="10.874" y1="12.51" x2="18.967" y2="12.51" gradientUnits="userSpaceOnUse"><stop stop-color="#D3D3D3"/><stop offset=".998" stop-color="#F4F4F4"/></linearGradient><linearGradient id="c" x1="15.252" y1="18.51" x2="29.974" y2="18.51" gradientUnits="userSpaceOnUse"><stop stop-color="#DCD0E1"/><stop offset="1" stop-color="#EBE0EF"/></linearGradient><linearGradient id="d" x1="7.484" y1="25.51" x2="25.498" y2="25.51" gradientUnits="userSpaceOnUse"><stop stop-color="#E1B64A"/><stop offset=".156" stop-color="#FFD25B"/><stop offset="1" stop-color="#FF9A4B"/></linearGradient><linearGradient id="f" x1="10.874" y1="12.51" x2="18.967" y2="12.51" gradientUnits="userSpaceOnUse"><stop stop-color="#06A5E9"/><stop offset="1" stop-color="#1876C4"/></linearGradient><linearGradient id="i" x1="19.574" y1="7.015" x2="19.984" y2="7.015" gradientUnits="userSpaceOnUse"><stop stop-color="#06A5E9"/><stop offset="1" stop-color="#1876C4"/></linearGradient><linearGradient id="l" x1="23.177" y1="21.01" x2="31.177" y2="21.01" gradientUnits="userSpaceOnUse"><stop stop-color="#D5C9DA"/><stop offset="1" stop-color="#B3A9B7"/></linearGradient><linearGradient id="n" x1="27.225" y1="10.23" x2="27.225" y2="12.18" gradientUnits="userSpaceOnUse"><stop stop-color="#0482F9"/><stop offset="1" stop-color="#0482F9" stop-opacity="0"/></linearGradient><linearGradient id="o" x1="22.079" y1="11.676" x2="23.728" y2="12.694" gradientUnits="userSpaceOnUse"><stop stop-color="#0482F9"/><stop offset="1" stop-color="#0482F9" stop-opacity="0"/></linearGradient><linearGradient id="p" x1="25.566" y1="18.272" x2="25.566" y2="17.254" gradientUnits="userSpaceOnUse"><stop stop-color="#4BDFFF"/><stop offset="1" stop-color="#4BDFFF" stop-opacity="0"/></linearGradient><linearGradient id="q" x1="8.83" y1="30.01" x2="29.97" y2="30.01" gradientUnits="userSpaceOnUse"><stop stop-color="#291B3A"/><stop offset="1" stop-color="#754089"/></linearGradient><linearGradient id="s" x1="2.611" y1="28.51" x2="29.808" y2="28.51" gradientUnits="userSpaceOnUse"><stop stop-color="#3B304B"/><stop offset="1" stop-color="#6E479D"/></linearGradient><radialGradient id="e" cx="0" cy="0" r="1" gradientUnits="userSpaceOnUse" gradientTransform="rotate(146.955 9.126 12.199) scale(19.3701 13.9413)"><stop offset=".884" stop-color="#8D742E" stop-opacity="0"/><stop offset="1" stop-color="#8D742E"/></radialGradient><radialGradient id="h" cx="0" cy="0" r="1" gradientUnits="userSpaceOnUse" gradientTransform="matrix(5.875 -7.31252 5.86668 4.7134 16.74 18.01)"><stop stop-color="#49ADFF"/><stop offset="1" stop-color="#4193E9"/></radialGradient><radialGradient id="k" cx="0" cy="0" r="1" gradientUnits="userSpaceOnUse" gradientTransform="matrix(3.75568 0 0 1.64929 10.493 21.013)"><stop stop-color="#FF7853"/><stop offset="1" stop-color="#F43A21"/></radialGradient><radialGradient id="m" cx="0" cy="0" r="1" gradientUnits="userSpaceOnUse" gradientTransform="matrix(1.14832 5.52632 -7.00027 1.4546 25.566 10.694)"><stop stop-color="#0585FD"/><stop offset="1" stop-color="#4EF7FF"/></radialGradient><radialGradient id="t" cx="0" cy="0" r="1" gradientUnits="userSpaceOnUse" gradientTransform="matrix(6.6875 -4.875 3.01482 4.1357 11.709 14.76)"><stop stop-color="#51E9FF"/><stop offset="1" stop-color="#057EE5"/></radialGradient><filter id="b" x="7.191" y="7.885" width="23.529" height="20.125" filterUnits="userSpaceOnUse" color-interpolation-filters="sRGB"><feFlood flood-opacity="0" result="BackgroundImageFix"/><feBlend in="SourceGraphic" in2="BackgroundImageFix" result="shape"/><feColorMatrix in="SourceAlpha" values="0 0 0 0 0 0 0 0 0 0 0 0 0 0 0 0 0 0 127 0" result="hardAlpha"/><feOffset dx=".75"/><feGaussianBlur stdDeviation=".625"/><feComposite in2="hardAlpha" operator="arithmetic" k2="-1" k3="1"/><feColorMatrix values="0 0 0 0 0.713726 0 0 0 0 0.694118 0 0 0 0 0.694118 0 0 0 1 0"/><feBlend in2="shape" result="effect1_innerShadow_18_9413"/></filter><filter id="g" x="9.65" y="7.01" width="20.92" height="11.1" filterUnits="userSpaceOnUse" color-interpolation-filters="sRGB"><feFlood flood-opacity="0" result="BackgroundImageFix"/><feBlend in="SourceGraphic" in2="BackgroundImageFix" result="shape"/><feColorMatrix in="SourceAlpha" values="0 0 0 0 0 0 0 0 0 0 0 0 0 0 0 0 0 0 127 0" result="hardAlpha"/><feOffset dx=".6" dy=".1"/><feGaussianBlur stdDeviation=".3"/><feComposite in2="hardAlpha" operator="arithmetic" k2="-1" k3="1"/><feColorMatrix values="0 0 0 0 0.372549 0 0 0 0 0.556863 0 0 0 0 0.780392 0 0 0 1 0"/><feBlend in2="shape" result="effect1_innerShadow_18_9413"/></filter><filter id="j" x="9.97" y="20.01" width="4" height="2" filterUnits="userSpaceOnUse" color-interpolation-filters="sRGB"><feFlood flood-opacity="0" result="BackgroundImageFix"/><feBlend in="SourceGraphic" in2="BackgroundImageFix" result="shape"/><feColorMatrix in="SourceAlpha" values="0 0 0 0 0 0 0 0 0 0 0 0 0 0 0 0 0 0 127 0" result="hardAlpha"/><feOffset/><feGaussianBlur stdDeviation=".2"/><feComposite in2="hardAlpha" operator="arithmetic" k2="-1" k3="1"/><feColorMatrix values="0 0 0 0 0.909804 0 0 0 0 0.180392 0 0 0 0 0.0666667 0 0 0 1 0"/><feBlend in2="shape" result="effect1_innerShadow_18_9413"/></filter><filter id="r" x="1.611" y="26.659" width="28.815" height="2.851" filterUnits="userSpaceOnUse" color-interpolation-filters="sRGB"><feFlood flood-opacity="0" result="BackgroundImageFix"/><feBlend in="SourceGraphic" in2="BackgroundImageFix" result="shape"/><feGaussianBlur stdDeviation=".5" result="effect1_foregroundBlur_18_9413"/></filter></defs></svg>