<svg width="32" height="32" fill="none" xmlns="http://www.w3.org/2000/svg"><g filter="url(#a)"><path d="M10.953 14.14V8.579a5.016 5.016 0 0 1 10.031 0v5.563" stroke="#C2C2C6" stroke-width="2.75"/></g><path d="M10.953 14.14V8.579a5.016 5.016 0 0 1 10.031 0v5.563" stroke="url(#b)" stroke-width="2.75"/><g filter="url(#c)"><path d="M11.344 14.14V8.38c0-2.867 2.294-5.193 5.125-5.193 2.83 0 5.125 2.326 5.125 5.194v5.76" stroke="url(#d)"/><path d="M11.344 14.14V8.38c0-2.867 2.294-5.193 5.125-5.193 2.83 0 5.125 2.326 5.125 5.194v5.76" stroke="url(#e)"/></g><g filter="url(#f)"><rect x="5.031" y="11.125" width="21.938" height="18.844" rx="3" fill="url(#g)"/></g><rect x="5.031" y="11.125" width="21.938" height="18.844" rx="3" fill="url(#h)"/><rect x="5.031" y="11.125" width="21.938" height="18.844" rx="3" fill="url(#i)"/><rect x="5.031" y="11.125" width="21.938" height="18.844" rx="3" fill="url(#j)"/><g filter="url(#k)" stroke-width="1.75"><path d="M17.398 20.462a2.607 2.607 0 1 0-2.797.017v3.294a1.398 1.398 0 0 0 2.797 0v-3.311Z" stroke="url(#l)"/><path d="M17.398 20.462a2.607 2.607 0 1 0-2.797.017v3.294a1.398 1.398 0 0 0 2.797 0v-3.311Z" stroke="url(#m)"/></g><path d="M17.398 20.462a2.607 2.607 0 1 0-2.797.017v3.294a1.398 1.398 0 0 0 2.797 0v-3.311Z" fill="url(#n)"/><defs><radialGradient id="b" cx="0" cy="0" r="1" gradientUnits="userSpaceOnUse" gradientTransform="matrix(0 -4.84375 5.28858 0 15.969 7.656)"><stop offset=".531" stop-color="#AB83C0"/><stop offset="1" stop-color="#CBBBDC" stop-opacity="0"/></radialGradient><radialGradient id="d" cx="0" cy="0" r="1" gradientUnits="userSpaceOnUse" gradientTransform="matrix(-3.81893 3.59375 -4.9365 -5.24582 21.9 4.594)"><stop offset=".216" stop-color="#EDECF3"/><stop offset="1" stop-color="#EDECF3" stop-opacity="0"/></radialGradient><radialGradient id="e" cx="0" cy="0" r="1" gradientUnits="userSpaceOnUse" gradientTransform="matrix(0 -7.125 5.16319 0 12.55 12.656)"><stop stop-color="#EDECF3"/><stop offset="1" stop-color="#EDECF3" stop-opacity="0"/></radialGradient><radialGradient id="h" cx="0" cy="0" r="1" gradientUnits="userSpaceOnUse" gradientTransform="matrix(-2.18751 -2.40624 5.60574 -5.09619 26.406 29.969)"><stop stop-color="#FF8650"/><stop offset="1" stop-color="#FF8650" stop-opacity="0"/></radialGradient><radialGradient id="j" cx="0" cy="0" r="1" gradientUnits="userSpaceOnUse" gradientTransform="matrix(-1.375 1.875 -4.235 -3.10568 26.656 11.125)"><stop stop-color="#FFF760"/><stop offset="1" stop-color="#FFF760" stop-opacity="0"/></radialGradient><radialGradient id="n" cx="0" cy="0" r="1" gradientUnits="userSpaceOnUse" gradientTransform="rotate(34.061 -23.815 31.182) scale(5.69121 7.82719)"><stop offset=".217" stop-color="#564F80"/><stop offset="1" stop-color="#473154"/></radialGradient><linearGradient id="g" x1="10.156" y1="14.188" x2="17.094" y2="29.969" gradientUnits="userSpaceOnUse"><stop stop-color="#FFC74E"/><stop offset="1" stop-color="#F7864E"/></linearGradient><linearGradient id="i" x1="16" y1="10.813" x2="16" y2="12.313" gradientUnits="userSpaceOnUse"><stop stop-color="#F3D04E"/><stop offset="1" stop-color="#F3D04E" stop-opacity="0"/></linearGradient><linearGradient id="l" x1="19.125" y1="21.75" x2="15.25" y2="21.75" gradientUnits="userSpaceOnUse"><stop offset=".331" stop-color="#D98A40"/><stop offset="1" stop-color="#D98A40" stop-opacity="0"/></linearGradient><linearGradient id="m" x1="12.875" y1="20.813" x2="15.594" y2="20.813" gradientUnits="userSpaceOnUse"><stop stop-color="#FFCD63"/><stop offset="1" stop-color="#FFCD63" stop-opacity="0"/></linearGradient><filter id="a" x="9.578" y="2.188" width="13.781" height="11.953" filterUnits="userSpaceOnUse" color-interpolation-filters="sRGB"><feFlood flood-opacity="0" result="BackgroundImageFix"/><feBlend in="SourceGraphic" in2="BackgroundImageFix" result="shape"/><feColorMatrix in="SourceAlpha" values="0 0 0 0 0 0 0 0 0 0 0 0 0 0 0 0 0 0 127 0" result="hardAlpha"/><feOffset dx="1"/><feGaussianBlur stdDeviation=".5"/><feComposite in2="hardAlpha" operator="arithmetic" k2="-1" k3="1"/><feColorMatrix values="0 0 0 0 0.560784 0 0 0 0 0.556863 0 0 0 0 0.576471 0 0 0 1 0"/><feBlend in2="shape" result="effect1_innerShadow_18_23511"/></filter><filter id="c" x="10.094" y="1.938" width="12.75" height="12.953" filterUnits="userSpaceOnUse" color-interpolation-filters="sRGB"><feFlood flood-opacity="0" result="BackgroundImageFix"/><feBlend in="SourceGraphic" in2="BackgroundImageFix" result="shape"/><feGaussianBlur stdDeviation=".375" result="effect1_foregroundBlur_18_23511"/></filter><filter id="f" x="4.281" y="10.375" width="23.438" height="20.344" filterUnits="userSpaceOnUse" color-interpolation-filters="sRGB"><feFlood flood-opacity="0" result="BackgroundImageFix"/><feBlend in="SourceGraphic" in2="BackgroundImageFix" result="shape"/><feColorMatrix in="SourceAlpha" values="0 0 0 0 0 0 0 0 0 0 0 0 0 0 0 0 0 0 127 0" result="hardAlpha"/><feOffset dy="-.75"/><feGaussianBlur stdDeviation=".375"/><feComposite in2="hardAlpha" operator="arithmetic" k2="-1" k3="1"/><feColorMatrix values="0 0 0 0 0.898039 0 0 0 0 0.364706 0 0 0 0 0.423529 0 0 0 1 0"/><feBlend in2="shape" result="effect1_innerShadow_18_23511"/><feColorMatrix in="SourceAlpha" values="0 0 0 0 0 0 0 0 0 0 0 0 0 0 0 0 0 0 127 0" result="hardAlpha"/><feOffset dx="-1"/><feGaussianBlur stdDeviation=".375"/><feComposite in2="hardAlpha" operator="arithmetic" k2="-1" k3="1"/><feColorMatrix values="0 0 0 0 1 0 0 0 0 0.772549 0 0 0 0 0.364706 0 0 0 1 0"/><feBlend in2="effect1_innerShadow_18_23511" result="effect2_innerShadow_18_23511"/><feColorMatrix in="SourceAlpha" values="0 0 0 0 0 0 0 0 0 0 0 0 0 0 0 0 0 0 127 0" result="hardAlpha"/><feOffset dy="1"/><feGaussianBlur stdDeviation=".375"/><feComposite in2="hardAlpha" operator="arithmetic" k2="-1" k3="1"/><feColorMatrix values="0 0 0 0 1 0 0 0 0 0.843137 0 0 0 0 0.266667 0 0 0 1 0"/><feBlend in2="effect2_innerShadow_18_23511" result="effect3_innerShadow_18_23511"/><feColorMatrix in="SourceAlpha" values="0 0 0 0 0 0 0 0 0 0 0 0 0 0 0 0 0 0 127 0" result="hardAlpha"/><feOffset dx=".75"/><feGaussianBlur stdDeviation=".375"/><feComposite in2="hardAlpha" operator="arithmetic" k2="-1" k3="1"/><feColorMatrix values="0 0 0 0 0.729412 0 0 0 0 0.478431 0 0 0 0 0.207843 0 0 0 1 0"/><feBlend in2="effect3_innerShadow_18_23511" result="effect4_innerShadow_18_23511"/></filter><filter id="k" x="12.004" y="14.287" width="7.965" height="12.26" filterUnits="userSpaceOnUse" color-interpolation-filters="sRGB"><feFlood flood-opacity="0" result="BackgroundImageFix"/><feBlend in="SourceGraphic" in2="BackgroundImageFix" result="shape"/><feGaussianBlur stdDeviation=".25" result="effect1_foregroundBlur_18_23511"/></filter></defs></svg>