<svg width="32" height="32" fill="none" xmlns="http://www.w3.org/2000/svg"><path d="M15.405 9.83H2.883v19.91h12.522V9.83Z" fill="#F8A18D"/><path d="M15.405 9.83H2.883v19.91h12.522V9.83Z" fill="url(#a)"/><path d="M15.405 9.83H2.883v19.91h12.522V9.83Z" fill="url(#b)"/><path d="M15.405 9.83H2.883v19.91h12.522V9.83Z" fill="url(#c)"/><path d="M28.883 9.83H16v19.91h12.883V9.83Z" fill="url(#d)"/><path d="M28.883 9.83H16v19.91h12.883V9.83Z" fill="url(#e)"/><path d="M28.883 9.83H16v19.91h12.883V9.83Z" fill="url(#f)"/><path d="M28.883 9.83H16v19.91h12.883V9.83Z" fill="url(#g)"/><path d="M28.883 9.83H16v19.91h12.883V9.83Z" fill="url(#h)"/><path d="M21.404 29.74H10.272V8.37c0-3.11 2.488-5.63 5.561-5.63s5.561 2.52 5.561 5.63v21.37h.01Z" fill="url(#i)"/><path d="M21.404 29.74H10.272V8.37c0-3.11 2.488-5.63 5.561-5.63s5.561 2.52 5.561 5.63v21.37h.01Z" fill="url(#j)"/><path d="M21.404 29.74H10.272V8.37c0-3.11 2.488-5.63 5.561-5.63s5.561 2.52 5.561 5.63v21.37h.01Z" fill="url(#k)"/><g filter="url(#l)"><path d="M7.304 17.75h-1.78c-.34 0-.61-.27-.61-.61v-1.89c0-.83.67-1.5 1.5-1.5s1.5.67 1.5 1.5v1.89c0 .33-.27.61-.61.61Z" fill="url(#m)"/><path d="M7.304 17.75h-1.78c-.34 0-.61-.27-.61-.61v-1.89c0-.83.67-1.5 1.5-1.5s1.5.67 1.5 1.5v1.89c0 .33-.27.61-.61.61Z" fill="url(#n)"/></g><g filter="url(#o)"><path d="M7.304 24.75h-1.78c-.34 0-.61-.27-.61-.61v-1.89c0-.83.67-1.5 1.5-1.5s1.5.67 1.5 1.5v1.89c0 .33-.27.61-.61.61Z" fill="url(#p)"/><path d="M7.304 24.75h-1.78c-.34 0-.61-.27-.61-.61v-1.89c0-.83.67-1.5 1.5-1.5s1.5.67 1.5 1.5v1.89c0 .33-.27.61-.61.61Z" fill="url(#q)"/></g><g filter="url(#r)"><path d="M26.304 17.75h-1.78c-.34 0-.61-.27-.61-.61v-1.89c0-.83.67-1.5 1.5-1.5s1.5.67 1.5 1.5v1.89c0 .33-.27.61-.61.61Z" fill="url(#s)"/><path d="M26.304 17.75h-1.78c-.34 0-.61-.27-.61-.61v-1.89c0-.83.67-1.5 1.5-1.5s1.5.67 1.5 1.5v1.89c0 .33-.27.61-.61.61Z" fill="url(#t)"/></g><g filter="url(#u)"><path d="M26.304 24.75h-1.78c-.34 0-.61-.27-.61-.61v-1.89c0-.83.67-1.5 1.5-1.5s1.5.67 1.5 1.5v1.89c0 .33-.27.61-.61.61Z" fill="url(#v)"/><path d="M26.304 24.75h-1.78c-.34 0-.61-.27-.61-.61v-1.89c0-.83.67-1.5 1.5-1.5s1.5.67 1.5 1.5v1.89c0 .33-.27.61-.61.61Z" fill="url(#w)"/></g><g filter="url(#x)"><path d="M17.187 11.916h-.02a.486.486 0 0 0-.49.48v1.482h-2.004v-1.481c0-.265-.22-.48-.489-.48h-.02a.485.485 0 0 0-.488.48v3.943c0 .264.22.48.488.48h.02c.27 0 .49-.216.49-.48v-1.472h2.004v1.472c0 .264.22.48.489.48h.02c.269 0 .488-.216.488-.48v-3.943a.473.473 0 0 0-.488-.48Z" fill="#B14E46"/></g><g filter="url(#y)"><path d="M17.425 11.75h-.02a.49.49 0 0 0-.489.49v1.51h-2.005v-1.51a.49.49 0 0 0-.488-.49h-.02a.49.49 0 0 0-.489.49v4.02c0 .27.22.49.489.49h.02a.49.49 0 0 0 .489-.49v-1.5h2.004v1.5c0 .27.22.49.49.49h.019a.49.49 0 0 0 .489-.49v-4.02a.478.478 0 0 0-.489-.49Z" fill="url(#z)"/></g><path fill="url(#A)" d="M11.461 20.344h8.906v9.396h-8.906z"/><path fill="url(#B)" d="M11.461 20.344h8.906v9.396h-8.906z"/><path fill="url(#C)" d="M11.461 20.344h8.906v9.396h-8.906z"/><path fill="url(#D)" d="M11.461 20.344h8.906v9.396h-8.906z"/><path fill="url(#E)" d="M11.461 20.344h8.906v9.396h-8.906z"/><g filter="url(#F)"><path d="M20.158 22.065v-1.78l-.024-.025h-8.436l-.028.028v1.77a.175.175 0 0 1 .041-.004c.06 0 .114.031.155.075a.502.502 0 0 0 .74 0 .216.216 0 0 1 .154-.075c.06 0 .113.031.154.075a.502.502 0 0 0 .74 0 .216.216 0 0 1 .154-.075c.06 0 .114.031.154.075a.502.502 0 0 0 .74 0 .216.216 0 0 1 .154-.075c.06 0 .114.031.155.075a.502.502 0 0 0 .74 0 .216.216 0 0 1 .154-.075c.06 0 .113.031.154.075a.502.502 0 0 0 .74 0 .216.216 0 0 1 .154-.075c.06 0 .114.031.154.075a.502.502 0 0 0 .74 0 .216.216 0 0 1 .154-.075c.06 0 .114.031.154.075a.502.502 0 0 0 .74 0 .216.216 0 0 1 .154-.075c.06 0 .114.031.155.075a.502.502 0 0 0 .74 0 .216.216 0 0 1 .154-.075c.02 0 .04.004.06.01Z" fill="url(#G)"/></g><g filter="url(#H)"><rect x="12.419" y="19.75" width="2.986" height="8.589" rx=".4" fill="url(#I)"/></g><g filter="url(#J)"><rect x="16.421" y="19.75" width="2.986" height="8.589" rx=".4" fill="url(#K)"/></g><g filter="url(#L)"><path d="M16.546 22.043V20.18h2.736v1.836a.473.473 0 0 1-.186-.124.198.198 0 0 0-.142-.068.198.198 0 0 0-.141.068.46.46 0 0 1-.678 0 .198.198 0 0 0-.141-.068.198.198 0 0 0-.142.068.46.46 0 0 1-.677 0 .198.198 0 0 0-.142-.068.198.198 0 0 0-.14.068.46.46 0 0 1-.34.15h-.007Z" fill="#275FB2"/></g><g filter="url(#M)"><path d="M12.544 22.043V20.18h2.735v1.836a.473.473 0 0 1-.186-.124.198.198 0 0 0-.141-.068.198.198 0 0 0-.142.068.46.46 0 0 1-.677 0 .198.198 0 0 0-.141-.068.198.198 0 0 0-.142.068.46.46 0 0 1-.677 0 .198.198 0 0 0-.142-.068.198.198 0 0 0-.141.068.46.46 0 0 1-.339.15h-.007Z" fill="#275FB2"/></g><g filter="url(#N)"><path d="M21.354 20.94c-.01-.02 0-.03-.01-.05a6.29 6.29 0 0 0-5.43-3.12c-2.32 0-4.33 1.26-5.43 3.12 0 .01 0 .02-.01.03a.56.56 0 0 0-.07.26c0 .3.25.55.55.55.155 0 .29-.066.388-.172a.227.227 0 0 1 .162-.078c.063 0 .12.033.162.078a.527.527 0 0 0 .776 0 .227.227 0 0 1 .162-.078c.063 0 .12.033.162.078a.527.527 0 0 0 .776 0 .227.227 0 0 1 .162-.078c.063 0 .12.033.162.078a.527.527 0 0 0 .776 0 .227.227 0 0 1 .162-.078c.063 0 .12.033.162.078a.527.527 0 0 0 .776 0 .227.227 0 0 1 .162-.078c.063 0 .12.033.162.078a.527.527 0 0 0 .776 0 .227.227 0 0 1 .162-.078c.063 0 .12.033.162.078a.527.527 0 0 0 .776 0 .227.227 0 0 1 .162-.078c.063 0 .12.033.162.078a.527.527 0 0 0 .776 0 .227.227 0 0 1 .162-.078c.063 0 .12.033.162.078a.527.527 0 0 0 .776 0 .227.227 0 0 1 .162-.078c.063 0 .12.033.162.078a.527.527 0 0 0 .388.172.555.555 0 0 0 .5-.79Z" fill="url(#O)"/></g><g filter="url(#P)"><path d="M18.914 7.243v.03c0 .471-.141.912-.394 1.273a8.407 8.407 0 0 1-2.293 2.124.562.562 0 0 1-.313.08.66.66 0 0 1-.313-.08 8.88 8.88 0 0 1-2.293-2.124 2.211 2.211 0 0 1-.394-1.273v-.03c.01-.832.697-1.493 1.546-1.493.12 0 .252.02.363.05.424.08.788.35.99.712.03.04.06.06.101.06.04 0 .08-.02.101-.06.202-.361.566-.632.99-.712.111-.03.242-.05.364-.05.858 0 1.545.661 1.545 1.493Z" fill="url(#Q)"/><path d="M18.914 7.243v.03c0 .471-.141.912-.394 1.273a8.407 8.407 0 0 1-2.293 2.124.562.562 0 0 1-.313.08.66.66 0 0 1-.313-.08 8.88 8.88 0 0 1-2.293-2.124 2.211 2.211 0 0 1-.394-1.273v-.03c.01-.832.697-1.493 1.546-1.493.12 0 .252.02.363.05.424.08.788.35.99.712.03.04.06.06.101.06.04 0 .08-.02.101-.06.202-.361.566-.632.99-.712.111-.03.242-.05.364-.05.858 0 1.545.661 1.545 1.493Z" fill="url(#R)"/><path d="M18.914 7.243v.03c0 .471-.141.912-.394 1.273a8.407 8.407 0 0 1-2.293 2.124.562.562 0 0 1-.313.08.66.66 0 0 1-.313-.08 8.88 8.88 0 0 1-2.293-2.124 2.211 2.211 0 0 1-.394-1.273v-.03c.01-.832.697-1.493 1.546-1.493.12 0 .252.02.363.05.424.08.788.35.99.712.03.04.06.06.101.06.04 0 .08-.02.101-.06.202-.361.566-.632.99-.712.111-.03.242-.05.364-.05.858 0 1.545.661 1.545 1.493Z" fill="url(#S)"/><path d="M18.914 7.243v.03c0 .471-.141.912-.394 1.273a8.407 8.407 0 0 1-2.293 2.124.562.562 0 0 1-.313.08.66.66 0 0 1-.313-.08 8.88 8.88 0 0 1-2.293-2.124 2.211 2.211 0 0 1-.394-1.273v-.03c.01-.832.697-1.493 1.546-1.493.12 0 .252.02.363.05.424.08.788.35.99.712.03.04.06.06.101.06.04 0 .08-.02.101-.06.202-.361.566-.632.99-.712.111-.03.242-.05.364-.05.858 0 1.545.661 1.545 1.493Z" fill="url(#T)"/></g><g filter="url(#U)"><path d="M15.758 4.257h.16c2.824 0 5.114 2.152 5.114 4.807v1.4c0 .354.202.663.505.831V8.17c0-3-2.552-5.43-5.704-5.43-3.152 0-5.703 2.43-5.703 5.43v3.13a.955.955 0 0 0 .515-.836v-1.4c0-2.655 2.289-4.807 5.113-4.807Z" fill="#B24340"/></g><g filter="url(#V)"><path d="M15.755 3.673h.167c2.93 0 5.306 2.232 5.306 4.985v1.452c0 .367.21.688.524.862V8.054c0-3.112-2.648-5.63-5.919-5.63-3.27 0-5.919 2.518-5.919 5.63v2.923a.99.99 0 0 0 .535-.867V8.658c0-2.753 2.376-4.985 5.306-4.985Z" fill="#741019"/></g><g filter="url(#W)"><path d="M15.924 3.597h-.172a5.466 5.466 0 0 0-5.465 5.466v1.687a1 1 0 0 1-1 1H2.446a.6.6 0 0 1-.6-.6v-.133a3.25 3.25 0 0 1 3.25-3.25h3.297a.256.256 0 0 0 .249-.205 7.268 7.268 0 0 1 7.11-5.765h.172a7.268 7.268 0 0 1 7.11 5.765.256.256 0 0 0 .25.206h3.296a3.25 3.25 0 0 1 3.25 3.25v.132a.6.6 0 0 1-.6.6h-6.84a1 1 0 0 1-1-1V9.062a5.466 5.466 0 0 0-5.466-5.465Z" fill="url(#X)"/><path d="M15.924 3.597h-.172a5.466 5.466 0 0 0-5.465 5.466v1.687a1 1 0 0 1-1 1H2.446a.6.6 0 0 1-.6-.6v-.133a3.25 3.25 0 0 1 3.25-3.25h3.297a.256.256 0 0 0 .249-.205 7.268 7.268 0 0 1 7.11-5.765h.172a7.268 7.268 0 0 1 7.11 5.765.256.256 0 0 0 .25.206h3.296a3.25 3.25 0 0 1 3.25 3.25v.132a.6.6 0 0 1-.6.6h-6.84a1 1 0 0 1-1-1V9.062a5.466 5.466 0 0 0-5.466-5.465Z" fill="url(#Y)"/></g><g filter="url(#Z)"><path d="M17.461 12.516V16" stroke="#EC4287" stroke-width=".25" stroke-linecap="round"/></g><g filter="url(#aa)"><path d="M14.493 12.516V16" stroke="#F83B5D" stroke-width=".25" stroke-linecap="round"/></g><g filter="url(#ab)"><path d="M14.477 14.156h2.813" stroke="url(#ac)" stroke-width=".25" stroke-linecap="round"/></g><g filter="url(#ad)"><path d="M16.836 18.328c.97.11 2.97.822 4.032 2.735" stroke="url(#ae)" stroke-width=".25" stroke-linecap="round"/></g><g filter="url(#af)"><path d="M12.67 3.469c.736-.47 2.758-1.185 5.008-.464 2.89.927 4.479 3.067 4.611 5.715" stroke="url(#ag)" stroke-width=".8" stroke-linecap="round"/></g><defs><linearGradient id="a" x1="11.522" y1="21.235" x2="7.122" y2="21.235" gradientUnits="userSpaceOnUse"><stop stop-color="#C15953"/><stop offset="1" stop-color="#C15953" stop-opacity="0"/></linearGradient><linearGradient id="b" x1="7.122" y1="11.334" x2="7.122" y2="13.873" gradientUnits="userSpaceOnUse"><stop stop-color="#C15953"/><stop offset="1" stop-color="#C15953" stop-opacity="0"/></linearGradient><linearGradient id="c" x1="2.883" y1="20.996" x2="4.013" y2="20.996" gradientUnits="userSpaceOnUse"><stop stop-color="#BE8A79"/><stop offset="1" stop-color="#BE8A79" stop-opacity="0"/></linearGradient><linearGradient id="d" x1="22.442" y1="9.83" x2="22.442" y2="22.394" gradientUnits="userSpaceOnUse"><stop stop-color="#FD937F"/><stop offset="1" stop-color="#FFB39C"/></linearGradient><linearGradient id="e" x1="28.883" y1="19.785" x2="26.599" y2="19.785" gradientUnits="userSpaceOnUse"><stop stop-color="#FFD2AD"/><stop offset="1" stop-color="#FFD2AD" stop-opacity="0"/></linearGradient><linearGradient id="f" x1="29.255" y1="20.311" x2="28.559" y2="20.311" gradientUnits="userSpaceOnUse"><stop stop-color="#FFAE98"/><stop offset="1" stop-color="#FFAE98" stop-opacity="0"/></linearGradient><linearGradient id="i" x1="15.838" y1="11.247" x2="15.838" y2="29.74" gradientUnits="userSpaceOnUse"><stop stop-color="#FFB193"/><stop offset="1" stop-color="#FFD2AE"/></linearGradient><linearGradient id="j" x1="10.272" y1="24.896" x2="13.534" y2="24.896" gradientUnits="userSpaceOnUse"><stop stop-color="#CD897B"/><stop offset="1" stop-color="#CD897B" stop-opacity="0"/></linearGradient><linearGradient id="k" x1="21.741" y1="18.337" x2="19.13" y2="18.337" gradientUnits="userSpaceOnUse"><stop stop-color="#FFCFAA"/><stop offset="1" stop-color="#FFCFAA" stop-opacity="0"/></linearGradient><linearGradient id="m" x1="5.072" y1="17.75" x2="7.57" y2="13.744" gradientUnits="userSpaceOnUse"><stop stop-color="#47CAFF"/><stop offset="1" stop-color="#3892E6"/></linearGradient><linearGradient id="n" x1="4.914" y1="15.75" x2="5.731" y2="15.75" gradientUnits="userSpaceOnUse"><stop stop-color="#5ADFFF"/><stop offset=".909" stop-color="#5ADFFF" stop-opacity="0"/></linearGradient><linearGradient id="p" x1="5.072" y1="24.75" x2="7.57" y2="20.744" gradientUnits="userSpaceOnUse"><stop stop-color="#47CAFF"/><stop offset="1" stop-color="#3892E6"/></linearGradient><linearGradient id="q" x1="4.914" y1="22.75" x2="5.731" y2="22.75" gradientUnits="userSpaceOnUse"><stop stop-color="#5ADFFF"/><stop offset=".909" stop-color="#5ADFFF" stop-opacity="0"/></linearGradient><linearGradient id="s" x1="24.072" y1="17.75" x2="26.57" y2="13.744" gradientUnits="userSpaceOnUse"><stop stop-color="#47CAFF"/><stop offset="1" stop-color="#3892E6"/></linearGradient><linearGradient id="t" x1="23.914" y1="15.75" x2="24.731" y2="15.75" gradientUnits="userSpaceOnUse"><stop stop-color="#5ADFFF"/><stop offset=".909" stop-color="#5ADFFF" stop-opacity="0"/></linearGradient><linearGradient id="v" x1="24.072" y1="24.75" x2="26.57" y2="20.744" gradientUnits="userSpaceOnUse"><stop stop-color="#47CAFF"/><stop offset="1" stop-color="#3892E6"/></linearGradient><linearGradient id="w" x1="23.914" y1="22.75" x2="24.731" y2="22.75" gradientUnits="userSpaceOnUse"><stop stop-color="#5ADFFF"/><stop offset=".909" stop-color="#5ADFFF" stop-opacity="0"/></linearGradient><linearGradient id="z" x1="14.422" y1="14.25" x2="17.555" y2="14.25" gradientUnits="userSpaceOnUse"><stop stop-color="#E22A4D"/><stop offset="1" stop-color="#DA3178"/></linearGradient><linearGradient id="A" x1="15.914" y1="21.527" x2="15.914" y2="30.161" gradientUnits="userSpaceOnUse"><stop stop-color="#DB946D"/><stop offset="1" stop-color="#FFCCAD"/></linearGradient><linearGradient id="B" x1="11.461" y1="26.068" x2="12.126" y2="26.068" gradientUnits="userSpaceOnUse"><stop stop-color="#A57364"/><stop offset="1" stop-color="#A57364" stop-opacity="0"/></linearGradient><linearGradient id="G" x1="15.914" y1="21.543" x2="15.914" y2="22.589" gradientUnits="userSpaceOnUse"><stop stop-color="#A43D3B"/><stop offset="1" stop-color="#A43D3B" stop-opacity="0"/></linearGradient><linearGradient id="I" x1="13.912" y1="20.875" x2="13.912" y2="28.339" gradientUnits="userSpaceOnUse"><stop stop-color="#348FE8"/><stop offset="1" stop-color="#36A1FE"/></linearGradient><linearGradient id="K" x1="17.914" y1="20.875" x2="17.914" y2="28.339" gradientUnits="userSpaceOnUse"><stop stop-color="#348FE8"/><stop offset="1" stop-color="#36A1FE"/></linearGradient><linearGradient id="O" x1="15.904" y1="17.77" x2="15.904" y2="21.73" gradientUnits="userSpaceOnUse"><stop stop-color="#E33981"/><stop offset="1" stop-color="#EA2653"/></linearGradient><linearGradient id="Q" x1="15.914" y1="5.75" x2="15.914" y2="10.47" gradientUnits="userSpaceOnUse"><stop stop-color="#E93178"/><stop offset="1" stop-color="#E41D4A"/></linearGradient><linearGradient id="ac" x1="14.852" y1="14.156" x2="16.852" y2="14.156" gradientUnits="userSpaceOnUse"><stop stop-color="#F83B5D"/><stop offset="1" stop-color="#F83B5D" stop-opacity="0"/></linearGradient><filter id="l" x="4.664" y="13.75" width="3.25" height="4.25" filterUnits="userSpaceOnUse" color-interpolation-filters="sRGB"><feFlood flood-opacity="0" result="BackgroundImageFix"/><feBlend in="SourceGraphic" in2="BackgroundImageFix" result="shape"/><feColorMatrix in="SourceAlpha" values="0 0 0 0 0 0 0 0 0 0 0 0 0 0 0 0 0 0 127 0" result="hardAlpha"/><feOffset dx="-.25" dy=".25"/><feGaussianBlur stdDeviation=".375"/><feComposite in2="hardAlpha" operator="arithmetic" k2="-1" k3="1"/><feColorMatrix values="0 0 0 0 0.0705882 0 0 0 0 0.466667 0 0 0 0 0.815686 0 0 0 1 0"/><feBlend in2="shape" result="effect1_innerShadow_18_6492"/></filter><filter id="o" x="4.664" y="20.75" width="3.25" height="4.25" filterUnits="userSpaceOnUse" color-interpolation-filters="sRGB"><feFlood flood-opacity="0" result="BackgroundImageFix"/><feBlend in="SourceGraphic" in2="BackgroundImageFix" result="shape"/><feColorMatrix in="SourceAlpha" values="0 0 0 0 0 0 0 0 0 0 0 0 0 0 0 0 0 0 127 0" result="hardAlpha"/><feOffset dx="-.25" dy=".25"/><feGaussianBlur stdDeviation=".375"/><feComposite in2="hardAlpha" operator="arithmetic" k2="-1" k3="1"/><feColorMatrix values="0 0 0 0 0.0705882 0 0 0 0 0.466667 0 0 0 0 0.815686 0 0 0 1 0"/><feBlend in2="shape" result="effect1_innerShadow_18_6492"/></filter><filter id="r" x="23.664" y="13.75" width="3.25" height="4.25" filterUnits="userSpaceOnUse" color-interpolation-filters="sRGB"><feFlood flood-opacity="0" result="BackgroundImageFix"/><feBlend in="SourceGraphic" in2="BackgroundImageFix" result="shape"/><feColorMatrix in="SourceAlpha" values="0 0 0 0 0 0 0 0 0 0 0 0 0 0 0 0 0 0 127 0" result="hardAlpha"/><feOffset dx="-.25" dy=".25"/><feGaussianBlur stdDeviation=".375"/><feComposite in2="hardAlpha" operator="arithmetic" k2="-1" k3="1"/><feColorMatrix values="0 0 0 0 0.0705882 0 0 0 0 0.466667 0 0 0 0 0.815686 0 0 0 1 0"/><feBlend in2="shape" result="effect1_innerShadow_18_6492"/></filter><filter id="u" x="23.664" y="20.75" width="3.25" height="4.25" filterUnits="userSpaceOnUse" color-interpolation-filters="sRGB"><feFlood flood-opacity="0" result="BackgroundImageFix"/><feBlend in="SourceGraphic" in2="BackgroundImageFix" result="shape"/><feColorMatrix in="SourceAlpha" values="0 0 0 0 0 0 0 0 0 0 0 0 0 0 0 0 0 0 127 0" result="hardAlpha"/><feOffset dx="-.25" dy=".25"/><feGaussianBlur stdDeviation=".375"/><feComposite in2="hardAlpha" operator="arithmetic" k2="-1" k3="1"/><feColorMatrix values="0 0 0 0 0.0705882 0 0 0 0 0.466667 0 0 0 0 0.815686 0 0 0 1 0"/><feBlend in2="shape" result="effect1_innerShadow_18_6492"/></filter><filter id="x" x="13.176" y="11.416" width="5" height="5.904" filterUnits="userSpaceOnUse" color-interpolation-filters="sRGB"><feFlood flood-opacity="0" result="BackgroundImageFix"/><feBlend in="SourceGraphic" in2="BackgroundImageFix" result="shape"/><feGaussianBlur stdDeviation=".25" result="effect1_foregroundBlur_18_6492"/></filter><filter id="y" x="13.914" y="11.5" width="4.25" height="5.25" filterUnits="userSpaceOnUse" color-interpolation-filters="sRGB"><feFlood flood-opacity="0" result="BackgroundImageFix"/><feBlend in="SourceGraphic" in2="BackgroundImageFix" result="shape"/><feColorMatrix in="SourceAlpha" values="0 0 0 0 0 0 0 0 0 0 0 0 0 0 0 0 0 0 127 0" result="hardAlpha"/><feOffset dx=".25"/><feGaussianBlur stdDeviation=".2"/><feComposite in2="hardAlpha" operator="arithmetic" k2="-1" k3="1"/><feColorMatrix values="0 0 0 0 0.788235 0 0 0 0 0.0784314 0 0 0 0 0.317647 0 0 0 1 0"/><feBlend in2="shape" result="effect1_innerShadow_18_6492"/><feColorMatrix in="SourceAlpha" values="0 0 0 0 0 0 0 0 0 0 0 0 0 0 0 0 0 0 127 0" result="hardAlpha"/><feOffset dy="-.25"/><feGaussianBlur stdDeviation=".125"/><feComposite in2="hardAlpha" operator="arithmetic" k2="-1" k3="1"/><feColorMatrix values="0 0 0 0 0.788235 0 0 0 0 0.0745098 0 0 0 0 0.313726 0 0 0 1 0"/><feBlend in2="effect1_innerShadow_18_6492" result="effect2_innerShadow_18_6492"/></filter><filter id="F" x="11.17" y="19.76" width="9.488" height="3.032" filterUnits="userSpaceOnUse" color-interpolation-filters="sRGB"><feFlood flood-opacity="0" result="BackgroundImageFix"/><feBlend in="SourceGraphic" in2="BackgroundImageFix" result="shape"/><feGaussianBlur stdDeviation=".25" result="effect1_foregroundBlur_18_6492"/></filter><filter id="H" x="12.119" y="19.75" width="3.486" height="8.589" filterUnits="userSpaceOnUse" color-interpolation-filters="sRGB"><feFlood flood-opacity="0" result="BackgroundImageFix"/><feBlend in="SourceGraphic" in2="BackgroundImageFix" result="shape"/><feColorMatrix in="SourceAlpha" values="0 0 0 0 0 0 0 0 0 0 0 0 0 0 0 0 0 0 127 0" result="hardAlpha"/><feOffset dx="-.3"/><feGaussianBlur stdDeviation=".15"/><feComposite in2="hardAlpha" operator="arithmetic" k2="-1" k3="1"/><feColorMatrix values="0 0 0 0 0.0745098 0 0 0 0 0.466667 0 0 0 0 0.827451 0 0 0 1 0"/><feBlend in2="shape" result="effect1_innerShadow_18_6492"/><feColorMatrix in="SourceAlpha" values="0 0 0 0 0 0 0 0 0 0 0 0 0 0 0 0 0 0 127 0" result="hardAlpha"/><feOffset dx=".2"/><feGaussianBlur stdDeviation=".1"/><feComposite in2="hardAlpha" operator="arithmetic" k2="-1" k3="1"/><feColorMatrix values="0 0 0 0 0.270588 0 0 0 0 0.682353 0 0 0 0 1 0 0 0 1 0"/><feBlend in2="effect1_innerShadow_18_6492" result="effect2_innerShadow_18_6492"/></filter><filter id="J" x="16.121" y="19.75" width="3.486" height="8.589" filterUnits="userSpaceOnUse" color-interpolation-filters="sRGB"><feFlood flood-opacity="0" result="BackgroundImageFix"/><feBlend in="SourceGraphic" in2="BackgroundImageFix" result="shape"/><feColorMatrix in="SourceAlpha" values="0 0 0 0 0 0 0 0 0 0 0 0 0 0 0 0 0 0 127 0" result="hardAlpha"/><feOffset dx="-.3"/><feGaussianBlur stdDeviation=".15"/><feComposite in2="hardAlpha" operator="arithmetic" k2="-1" k3="1"/><feColorMatrix values="0 0 0 0 0.0745098 0 0 0 0 0.466667 0 0 0 0 0.827451 0 0 0 1 0"/><feBlend in2="shape" result="effect1_innerShadow_18_6492"/><feColorMatrix in="SourceAlpha" values="0 0 0 0 0 0 0 0 0 0 0 0 0 0 0 0 0 0 127 0" result="hardAlpha"/><feOffset dx=".2"/><feGaussianBlur stdDeviation=".1"/><feComposite in2="hardAlpha" operator="arithmetic" k2="-1" k3="1"/><feColorMatrix values="0 0 0 0 0.270588 0 0 0 0 0.682353 0 0 0 0 1 0 0 0 1 0"/><feBlend in2="effect1_innerShadow_18_6492" result="effect2_innerShadow_18_6492"/></filter><filter id="L" x="16.046" y="19.681" width="3.735" height="2.861" filterUnits="userSpaceOnUse" color-interpolation-filters="sRGB"><feFlood flood-opacity="0" result="BackgroundImageFix"/><feBlend in="SourceGraphic" in2="BackgroundImageFix" result="shape"/><feGaussianBlur stdDeviation=".25" result="effect1_foregroundBlur_18_6492"/></filter><filter id="M" x="12.044" y="19.681" width="3.735" height="2.861" filterUnits="userSpaceOnUse" color-interpolation-filters="sRGB"><feFlood flood-opacity="0" result="BackgroundImageFix"/><feBlend in="SourceGraphic" in2="BackgroundImageFix" result="shape"/><feGaussianBlur stdDeviation=".25" result="effect1_foregroundBlur_18_6492"/></filter><filter id="N" x="10.404" y="17.62" width="11.25" height="4.31" filterUnits="userSpaceOnUse" color-interpolation-filters="sRGB"><feFlood flood-opacity="0" result="BackgroundImageFix"/><feBlend in="SourceGraphic" in2="BackgroundImageFix" result="shape"/><feColorMatrix in="SourceAlpha" values="0 0 0 0 0 0 0 0 0 0 0 0 0 0 0 0 0 0 127 0" result="hardAlpha"/><feOffset dx=".25" dy="-.15"/><feGaussianBlur stdDeviation=".2"/><feComposite in2="hardAlpha" operator="arithmetic" k2="-1" k3="1"/><feColorMatrix values="0 0 0 0 0.737255 0 0 0 0 0.172549 0 0 0 0 0.254902 0 0 0 1 0"/><feBlend in2="shape" result="effect1_innerShadow_18_6492"/><feColorMatrix in="SourceAlpha" values="0 0 0 0 0 0 0 0 0 0 0 0 0 0 0 0 0 0 127 0" result="hardAlpha"/><feOffset dx=".25" dy=".2"/><feGaussianBlur stdDeviation=".25"/><feComposite in2="hardAlpha" operator="arithmetic" k2="-1" k3="1"/><feColorMatrix values="0 0 0 0 0.737255 0 0 0 0 0.172549 0 0 0 0 0.254902 0 0 0 1 0"/><feBlend in2="effect1_innerShadow_18_6492" result="effect2_innerShadow_18_6492"/></filter><filter id="P" x="12.114" y="5.55" width="7.55" height="6" filterUnits="userSpaceOnUse" color-interpolation-filters="sRGB"><feFlood flood-opacity="0" result="BackgroundImageFix"/><feColorMatrix in="SourceAlpha" values="0 0 0 0 0 0 0 0 0 0 0 0 0 0 0 0 0 0 127 0" result="hardAlpha"/><feOffset dx="-.3" dy=".3"/><feGaussianBlur stdDeviation=".25"/><feComposite in2="hardAlpha" operator="out"/><feColorMatrix values="0 0 0 0 0.772549 0 0 0 0 0.376471 0 0 0 0 0.396078 0 0 0 1 0"/><feBlend in2="BackgroundImageFix" result="effect1_dropShadow_18_6492"/><feBlend in="SourceGraphic" in2="effect1_dropShadow_18_6492" result="shape"/><feColorMatrix in="SourceAlpha" values="0 0 0 0 0 0 0 0 0 0 0 0 0 0 0 0 0 0 127 0" result="hardAlpha"/><feOffset dx=".8" dy="-.1"/><feGaussianBlur stdDeviation=".375"/><feComposite in2="hardAlpha" operator="arithmetic" k2="-1" k3="1"/><feColorMatrix values="0 0 0 0 0.74902 0 0 0 0 0.137255 0 0 0 0 0.254902 0 0 0 1 0"/><feBlend in2="shape" result="effect2_innerShadow_18_6492"/></filter><filter id="U" x="9.13" y="1.74" width="13.407" height="10.561" filterUnits="userSpaceOnUse" color-interpolation-filters="sRGB"><feFlood flood-opacity="0" result="BackgroundImageFix"/><feBlend in="SourceGraphic" in2="BackgroundImageFix" result="shape"/><feGaussianBlur stdDeviation=".5" result="effect1_foregroundBlur_18_6492"/></filter><filter id="V" x="9.314" y="1.823" width="13.038" height="9.754" filterUnits="userSpaceOnUse" color-interpolation-filters="sRGB"><feFlood flood-opacity="0" result="BackgroundImageFix"/><feBlend in="SourceGraphic" in2="BackgroundImageFix" result="shape"/><feGaussianBlur stdDeviation=".3" result="effect1_foregroundBlur_18_6492"/></filter><filter id="W" x="1.846" y="1.297" width="28.484" height="10.853" filterUnits="userSpaceOnUse" color-interpolation-filters="sRGB"><feFlood flood-opacity="0" result="BackgroundImageFix"/><feBlend in="SourceGraphic" in2="BackgroundImageFix" result="shape"/><feColorMatrix in="SourceAlpha" values="0 0 0 0 0 0 0 0 0 0 0 0 0 0 0 0 0 0 127 0" result="hardAlpha"/><feOffset dx=".5" dy="-.5"/><feGaussianBlur stdDeviation=".25"/><feComposite in2="hardAlpha" operator="arithmetic" k2="-1" k3="1"/><feColorMatrix values="0 0 0 0 0.772549 0 0 0 0 0.141176 0 0 0 0 0.243137 0 0 0 1 0"/><feBlend in2="shape" result="effect1_innerShadow_18_6492"/><feColorMatrix in="SourceAlpha" values="0 0 0 0 0 0 0 0 0 0 0 0 0 0 0 0 0 0 127 0" result="hardAlpha"/><feOffset dx=".5" dy=".4"/><feGaussianBlur stdDeviation=".375"/><feComposite in2="hardAlpha" operator="arithmetic" k2="-1" k3="1"/><feColorMatrix values="0 0 0 0 0.65098 0 0 0 0 0.2 0 0 0 0 0.294118 0 0 0 1 0"/><feBlend in2="effect1_innerShadow_18_6492" result="effect2_innerShadow_18_6492"/></filter><filter id="Z" x="16.986" y="12.041" width=".95" height="4.434" filterUnits="userSpaceOnUse" color-interpolation-filters="sRGB"><feFlood flood-opacity="0" result="BackgroundImageFix"/><feBlend in="SourceGraphic" in2="BackgroundImageFix" result="shape"/><feGaussianBlur stdDeviation=".175" result="effect1_foregroundBlur_18_6492"/></filter><filter id="aa" x="14.018" y="12.041" width=".95" height="4.434" filterUnits="userSpaceOnUse" color-interpolation-filters="sRGB"><feFlood flood-opacity="0" result="BackgroundImageFix"/><feBlend in="SourceGraphic" in2="BackgroundImageFix" result="shape"/><feGaussianBlur stdDeviation=".175" result="effect1_foregroundBlur_18_6492"/></filter><filter id="ab" x="14.002" y="13.681" width="3.763" height=".95" filterUnits="userSpaceOnUse" color-interpolation-filters="sRGB"><feFlood flood-opacity="0" result="BackgroundImageFix"/><feBlend in="SourceGraphic" in2="BackgroundImageFix" result="shape"/><feGaussianBlur stdDeviation=".175" result="effect1_foregroundBlur_18_6492"/></filter><filter id="ad" x="16.461" y="17.953" width="4.781" height="3.484" filterUnits="userSpaceOnUse" color-interpolation-filters="sRGB"><feFlood flood-opacity="0" result="BackgroundImageFix"/><feBlend in="SourceGraphic" in2="BackgroundImageFix" result="shape"/><feGaussianBlur stdDeviation=".125" result="effect1_foregroundBlur_18_6492"/></filter><filter id="af" x="11.47" y="1.498" width="12.019" height="8.421" filterUnits="userSpaceOnUse" color-interpolation-filters="sRGB"><feFlood flood-opacity="0" result="BackgroundImageFix"/><feBlend in="SourceGraphic" in2="BackgroundImageFix" result="shape"/><feGaussianBlur stdDeviation=".4" result="effect1_foregroundBlur_18_6492"/></filter><radialGradient id="g" cx="0" cy="0" r="1" gradientUnits="userSpaceOnUse" gradientTransform="rotate(147.475 10.31 8.519) scale(10.5778 5.06583)"><stop offset=".1" stop-color="#C25251"/><stop offset="1" stop-color="#C25251" stop-opacity="0"/></radialGradient><radialGradient id="h" cx="0" cy="0" r="1" gradientUnits="userSpaceOnUse" gradientTransform="matrix(-2.6875 1.06248 -.35963 -.90967 28.883 11.14)"><stop offset=".178" stop-color="#B56057"/><stop offset=".988" stop-color="#B56057" stop-opacity="0"/></radialGradient><radialGradient id="C" cx="0" cy="0" r="1" gradientUnits="userSpaceOnUse" gradientTransform="matrix(1.08613 2.31453 -2.13575 1.00223 11.46 21.078)"><stop stop-color="#A85540"/><stop offset="1" stop-color="#A85540" stop-opacity="0"/></radialGradient><radialGradient id="D" cx="0" cy="0" r="1" gradientUnits="userSpaceOnUse" gradientTransform="matrix(.3355 .55609 -1.01992 .61533 20.032 21.334)"><stop stop-color="#A85540"/><stop offset="1" stop-color="#A85540" stop-opacity="0"/></radialGradient><radialGradient id="E" cx="0" cy="0" r="1" gradientUnits="userSpaceOnUse" gradientTransform="matrix(0 -7.42451 .81983 0 20.367 30.517)"><stop stop-color="#FFF1C0"/><stop offset="1" stop-color="#FFF1C0" stop-opacity="0"/></radialGradient><radialGradient id="R" cx="0" cy="0" r="1" gradientUnits="userSpaceOnUse" gradientTransform="matrix(.65625 -1.15625 .69496 .39444 16.352 6.031)"><stop stop-color="#BC2E4F"/><stop offset="1" stop-color="#BC2E4F" stop-opacity="0"/></radialGradient><radialGradient id="S" cx="0" cy="0" r="1" gradientUnits="userSpaceOnUse" gradientTransform="rotate(138.957 8.229 6.821) scale(2.2368 3.01638)"><stop stop-color="#FF4D84"/><stop offset="1" stop-color="#FF4D84" stop-opacity="0"/></radialGradient><radialGradient id="T" cx="0" cy="0" r="1" gradientUnits="userSpaceOnUse" gradientTransform="rotate(142.765 6.317 5.973) scale(.98127 1.32327)"><stop stop-color="#FF4D84"/><stop offset="1" stop-color="#FF4D84" stop-opacity="0"/></radialGradient><radialGradient id="X" cx="0" cy="0" r="1" gradientUnits="userSpaceOnUse" gradientTransform="rotate(105.556 8.327 8.19) scale(9.74117 27.3883)"><stop stop-color="#DB377F"/><stop offset="1" stop-color="#EE3455"/></radialGradient><radialGradient id="Y" cx="0" cy="0" r="1" gradientUnits="userSpaceOnUse" gradientTransform="matrix(-2.51088 1.23545 -3.08266 -6.26506 29.83 9.072)"><stop stop-color="#FF5371"/><stop offset="1" stop-color="#FF5371" stop-opacity="0"/></radialGradient><radialGradient id="ae" cx="0" cy="0" r="1" gradientUnits="userSpaceOnUse" gradientTransform="rotate(117.613 3.874 15.318) scale(1.14618 2.86949)"><stop stop-color="#F33C7F"/><stop offset="1" stop-color="#F33C7F" stop-opacity="0"/></radialGradient><radialGradient id="ag" cx="0" cy="0" r="1" gradientUnits="userSpaceOnUse" gradientTransform="matrix(-3.08865 2.73568 -4.42002 -4.9903 20.657 3.38)"><stop stop-color="#ED4383"/><stop offset="1" stop-color="#FF4C76" stop-opacity="0"/></radialGradient></defs></svg>