<svg xmlns="http://www.w3.org/2000/svg" fill="none" viewBox="0 0 32 32"><path fill="url(#man-office-worker-light_svg__a)" d="M16 15.408c-6.08 0-11 4.92-11 11v3.5h22v-3.5c0-6.07-4.93-11-11-11"/><path fill="url(#man-office-worker-light_svg__b)" d="M16 15.408c-6.08 0-11 4.92-11 11v3.5h22v-3.5c0-6.07-4.93-11-11-11"/><g filter="url(#man-office-worker-light_svg__c)"><path fill="#46375F" d="M13.419 16.756c-.513 0-1.296-.029-1.77.166l-1.38 2.724c-.09.19.06.41.27.41h1.55c.24 0 .35.29.19.45l-1.78 1.343c-.26.26-.36.65-.23 1l2.912 6.5 1.587-1.116-1.34-11.477z"/></g><g filter="url(#man-office-worker-light_svg__d)"><path fill="#493E6A" d="m20.905 21.089-1.19-.828a.23.23 0 0 1 .166-.394h.919a.252.252 0 0 0 .227-.358l-1.076-2.29a8 8 0 0 0-.646-.237h-.595v11.862l2.404-6.872a.85.85 0 0 0-.21-.883"/></g><path fill="url(#man-office-worker-light_svg__e)" d="M18.71 16.027h-5.42v13.89h5.42z"/><path fill="url(#man-office-worker-light_svg__f)" d="M18.71 16.027h-5.42v13.89h5.42z"/><path fill="url(#man-office-worker-light_svg__g)" d="M18.71 16.027h-5.42v13.89h5.42z"/><path fill="url(#man-office-worker-light_svg__h)" d="M23 17.925v11.982h4v-3.5a10.98 10.98 0 0 0-4-8.482"/><path fill="url(#man-office-worker-light_svg__i)" d="M23 17.925v11.982h4v-3.5a10.98 10.98 0 0 0-4-8.482"/><g filter="url(#man-office-worker-light_svg__j)"><path fill="url(#man-office-worker-light_svg__k)" d="M13.29 15.997h-.85c-.18.06-.36.13-.53.2l-1.27 2.69c-.09.19.06.41.27.41h1.05c.24 0 .35.29.19.45l-1.36 1.33c-.26.26-.36.65-.23 1l2.73 7.82h.01v-13.9z"/><path fill="url(#man-office-worker-light_svg__l)" d="M13.29 15.997h-.85c-.18.06-.36.13-.53.2l-1.27 2.69c-.09.19.06.41.27.41h1.05c.24 0 .35.29.19.45l-1.36 1.33c-.26.26-.36.65-.23 1l2.73 7.82h.01v-13.9z"/><path fill="url(#man-office-worker-light_svg__m)" d="M13.29 15.997h-.85c-.18.06-.36.13-.53.2l-1.27 2.69c-.09.19.06.41.27.41h1.05c.24 0 .35.29.19.45l-1.36 1.33c-.26.26-.36.65-.23 1l2.73 7.82h.01v-13.9z"/></g><path fill="url(#man-office-worker-light_svg__n)" d="M13.29 15.997h-.85c-.18.06-.36.13-.53.2l-1.27 2.69c-.09.19.06.41.27.41h1.05c.24 0 .35.29.19.45l-1.36 1.33c-.26.26-.36.65-.23 1l2.73 7.82h.01v-13.9z"/><path fill="url(#man-office-worker-light_svg__o)" d="M13.29 15.997h-.85c-.18.06-.36.13-.53.2l-1.27 2.69c-.09.19.06.41.27.41h1.05c.24 0 .35.29.19.45l-1.36 1.33c-.26.26-.36.65-.23 1l2.73 7.82h.01v-13.9z"/><path fill="url(#man-office-worker-light_svg__p)" d="M13.29 15.997h-.85c-.18.06-.36.13-.53.2l-1.27 2.69c-.09.19.06.41.27.41h1.05c.24 0 .35.29.19.45l-1.36 1.33c-.26.26-.36.65-.23 1l2.73 7.82h.01v-13.9z"/><g filter="url(#man-office-worker-light_svg__q)"><path fill="url(#man-office-worker-light_svg__r)" d="m16.013 18.235-1.357 1.275a.15.15 0 0 0-.031.176l.596 1.193a.25.25 0 0 0 .224.138h1.09a.25.25 0 0 0 .224-.139l.6-1.212a.15.15 0 0 0-.032-.175z"/></g><g filter="url(#man-office-worker-light_svg__s)"><path fill="#615990" d="m21.22 21.028-1.36-1.33a.262.262 0 0 1 .19-.45h1.05c.21 0 .35-.22.26-.41l-1.23-2.62c-.24-.1-.49-.19-.74-.27h-.68v13.95l2.75-7.86c.12-.36.03-.75-.24-1.01"/><path fill="url(#man-office-worker-light_svg__t)" d="m21.22 21.028-1.36-1.33a.262.262 0 0 1 .19-.45h1.05c.21 0 .35-.22.26-.41l-1.23-2.62c-.24-.1-.49-.19-.74-.27h-.68v13.95l2.75-7.86c.12-.36.03-.75-.24-1.01"/></g><path fill="url(#man-office-worker-light_svg__u)" d="M16 14.964h-2.71v4.74c0 .31.36.49.61.29l2.1-1.392 2.1 1.392c.25.2.61.02.61-.29v-4.74z"/><path fill="url(#man-office-worker-light_svg__v)" d="M16 14.964h-2.71v4.74c0 .31.36.49.61.29l2.1-1.392 2.1 1.392c.25.2.61.02.61-.29v-4.74z"/><path fill="url(#man-office-worker-light_svg__w)" d="M7.032 29.908H8.97V17.943a11 11 0 0 0-3.656 5.843 11 11 0 0 0-.304 2.631l.02 3.49z"/><path fill="url(#man-office-worker-light_svg__x)" d="M15.505 21.017a.25.25 0 0 0-.248.213l-1.327 8.667h4.11l-1.318-8.667a.25.25 0 0 0-.247-.213z"/><path fill="url(#man-office-worker-light_svg__y)" d="M15.505 21.017a.25.25 0 0 0-.248.213l-1.327 8.667h4.11l-1.318-8.667a.25.25 0 0 0-.247-.213z"/><path fill="url(#man-office-worker-light_svg__z)" d="M15.505 21.017a.25.25 0 0 0-.248.213l-1.327 8.667h4.11l-1.318-8.667a.25.25 0 0 0-.247-.213z"/><path fill="url(#man-office-worker-light_svg__A)" d="M14.045 16.797c.02.214.205.691.746 1.055.213.143 1.213.628 1.193.619.156-.079.807-.299 1.284-.62.54-.363.725-.84.746-1.054l-1.985-.953z"/><g filter="url(#man-office-worker-light_svg__B)"><circle cx="11.229" cy="10.683" r="1.669" fill="url(#man-office-worker-light_svg__C)"/></g><g filter="url(#man-office-worker-light_svg__D)"><circle cx="11.229" cy="10.683" r=".995" fill="url(#man-office-worker-light_svg__E)"/></g><g filter="url(#man-office-worker-light_svg__F)"><circle cx="20.741" cy="10.683" r="1.669" fill="url(#man-office-worker-light_svg__G)"/><circle cx="20.741" cy="10.683" r="1.669" fill="url(#man-office-worker-light_svg__H)"/></g><g filter="url(#man-office-worker-light_svg__I)"><circle cx="20.741" cy="10.683" r=".995" fill="#E4AF9A"/><circle cx="20.741" cy="10.683" r=".995" fill="url(#man-office-worker-light_svg__J)"/><circle cx="20.741" cy="10.683" r=".995" fill="url(#man-office-worker-light_svg__K)"/></g><g filter="url(#man-office-worker-light_svg__L)"><path fill="url(#man-office-worker-light_svg__M)" d="M10.819 8.632c0-.266.107-.586.321-.746l.161-.16c.268-.214.376-.533.376-.853v-.854c0-.266.16-.48.429-.533.643-.16 1.984-.427 3.915-.427s3.272.267 3.915.427c.215.053.43.267.43.533v.854c0 .32.16.64.375.853.502.352.47.545.43.96a46 46 0 0 0-.108 1.44h.018l-.266 3.958c-.16 1.769-1.551 3.002-3.21 3.002h-3.21c-1.712 0-3.05-1.233-3.21-3.002-.14-1.817-.2-3.638-.366-5.452"/><path fill="url(#man-office-worker-light_svg__N)" d="M10.819 8.632c0-.266.107-.586.321-.746l.161-.16c.268-.214.376-.533.376-.853v-.854c0-.266.16-.48.429-.533.643-.16 1.984-.427 3.915-.427s3.272.267 3.915.427c.215.053.43.267.43.533v.854c0 .32.16.64.375.853.502.352.47.545.43.96a46 46 0 0 0-.108 1.44h.018l-.266 3.958c-.16 1.769-1.551 3.002-3.21 3.002h-3.21c-1.712 0-3.05-1.233-3.21-3.002-.14-1.817-.2-3.638-.366-5.452"/><path fill="url(#man-office-worker-light_svg__O)" d="M10.819 8.632c0-.266.107-.586.321-.746l.161-.16c.268-.214.376-.533.376-.853v-.854c0-.266.16-.48.429-.533.643-.16 1.984-.427 3.915-.427s3.272.267 3.915.427c.215.053.43.267.43.533v.854c0 .32.16.64.375.853.502.352.47.545.43.96a46 46 0 0 0-.108 1.44h.018l-.266 3.958c-.16 1.769-1.551 3.002-3.21 3.002h-3.21c-1.712 0-3.05-1.233-3.21-3.002-.14-1.817-.2-3.638-.366-5.452"/><path fill="url(#man-office-worker-light_svg__P)" d="M10.819 8.632c0-.266.107-.586.321-.746l.161-.16c.268-.214.376-.533.376-.853v-.854c0-.266.16-.48.429-.533.643-.16 1.984-.427 3.915-.427s3.272.267 3.915.427c.215.053.43.267.43.533v.854c0 .32.16.64.375.853.502.352.47.545.43.96a46 46 0 0 0-.108 1.44h.018l-.266 3.958c-.16 1.769-1.551 3.002-3.21 3.002h-3.21c-1.712 0-3.05-1.233-3.21-3.002-.14-1.817-.2-3.638-.366-5.452"/><path fill="url(#man-office-worker-light_svg__Q)" d="M10.819 8.632c0-.266.107-.586.321-.746l.161-.16c.268-.214.376-.533.376-.853v-.854c0-.266.16-.48.429-.533.643-.16 1.984-.427 3.915-.427s3.272.267 3.915.427c.215.053.43.267.43.533v.854c0 .32.16.64.375.853.502.352.47.545.43.96a46 46 0 0 0-.108 1.44h.018l-.266 3.958c-.16 1.769-1.551 3.002-3.21 3.002h-3.21c-1.712 0-3.05-1.233-3.21-3.002-.14-1.817-.2-3.638-.366-5.452"/><path fill="url(#man-office-worker-light_svg__R)" d="M10.819 8.632c0-.266.107-.586.321-.746l.161-.16c.268-.214.376-.533.376-.853v-.854c0-.266.16-.48.429-.533.643-.16 1.984-.427 3.915-.427s3.272.267 3.915.427c.215.053.43.267.43.533v.854c0 .32.16.64.375.853.502.352.47.545.43.96a46 46 0 0 0-.108 1.44h.018l-.266 3.958c-.16 1.769-1.551 3.002-3.21 3.002h-3.21c-1.712 0-3.05-1.233-3.21-3.002-.14-1.817-.2-3.638-.366-5.452"/></g><g filter="url(#man-office-worker-light_svg__S)"><path fill="url(#man-office-worker-light_svg__T)" d="m19.94 5.06-3.078 1.025a1.047 1.047 0 0 0 .47 2.031l3.06-.41z"/></g><g filter="url(#man-office-worker-light_svg__U)"><path fill="#242324" d="m20.795 4.206.429.213c.75.374 1.18 1.227 1.019 2.134l-.59 3.04c-.053.313-.26.525-.572.532h-.018s.054-.906.107-1.44c.044-.432-.032-.564-.429-.96-.214-.213-.375-.532-.375-.852v-.854c0-.266-.215-.48-.43-.533-.643-.16-1.984-.427-3.915-.427-1.93 0-3.272.267-3.915.427a.52.52 0 0 0-.43.533v.854c0 .32-.106.64-.375.853l-.16.16c-.215.16-.322.48-.322.746.053.587.107 1.44.107 1.44l-.05-.001a.63.63 0 0 1-.594-.532l-.59-3.04c-.107-.853.322-1.706 1.073-2.08l.43-.213c.267-.16.535-.373.804-.587l.965-1.013c.59-.533 1.448-.693 2.2-.32a2.94 2.94 0 0 0 1.662 0c.804-.266 1.716-.053 2.36.534l.804.8c.215.266.483.426.805.586"/><path fill="url(#man-office-worker-light_svg__V)" d="m20.795 4.206.429.213c.75.374 1.18 1.227 1.019 2.134l-.59 3.04c-.053.313-.26.525-.572.532h-.018s.054-.906.107-1.44c.044-.432-.032-.564-.429-.96-.214-.213-.375-.532-.375-.852v-.854c0-.266-.215-.48-.43-.533-.643-.16-1.984-.427-3.915-.427-1.93 0-3.272.267-3.915.427a.52.52 0 0 0-.43.533v.854c0 .32-.106.64-.375.853l-.16.16c-.215.16-.322.48-.322.746.053.587.107 1.44.107 1.44l-.05-.001a.63.63 0 0 1-.594-.532l-.59-3.04c-.107-.853.322-1.706 1.073-2.08l.43-.213c.267-.16.535-.373.804-.587l.965-1.013c.59-.533 1.448-.693 2.2-.32a2.94 2.94 0 0 0 1.662 0c.804-.266 1.716-.053 2.36.534l.804.8c.215.266.483.426.805.586"/><path fill="url(#man-office-worker-light_svg__W)" d="m20.795 4.206.429.213c.75.374 1.18 1.227 1.019 2.134l-.59 3.04c-.053.313-.26.525-.572.532h-.018s.054-.906.107-1.44c.044-.432-.032-.564-.429-.96-.214-.213-.375-.532-.375-.852v-.854c0-.266-.215-.48-.43-.533-.643-.16-1.984-.427-3.915-.427-1.93 0-3.272.267-3.915.427a.52.52 0 0 0-.43.533v.854c0 .32-.106.64-.375.853l-.16.16c-.215.16-.322.48-.322.746.053.587.107 1.44.107 1.44l-.05-.001a.63.63 0 0 1-.594-.532l-.59-3.04c-.107-.853.322-1.706 1.073-2.08l.43-.213c.267-.16.535-.373.804-.587l.965-1.013c.59-.533 1.448-.693 2.2-.32a2.94 2.94 0 0 0 1.662 0c.804-.266 1.716-.053 2.36.534l.804.8c.215.266.483.426.805.586"/><path fill="url(#man-office-worker-light_svg__X)" d="m20.795 4.206.429.213c.75.374 1.18 1.227 1.019 2.134l-.59 3.04c-.053.313-.26.525-.572.532h-.018s.054-.906.107-1.44c.044-.432-.032-.564-.429-.96-.214-.213-.375-.532-.375-.852v-.854c0-.266-.215-.48-.43-.533-.643-.16-1.984-.427-3.915-.427-1.93 0-3.272.267-3.915.427a.52.52 0 0 0-.43.533v.854c0 .32-.106.64-.375.853l-.16.16c-.215.16-.322.48-.322.746.053.587.107 1.44.107 1.44l-.05-.001a.63.63 0 0 1-.594-.532l-.59-3.04c-.107-.853.322-1.706 1.073-2.08l.43-.213c.267-.16.535-.373.804-.587l.965-1.013c.59-.533 1.448-.693 2.2-.32a2.94 2.94 0 0 0 1.662 0c.804-.266 1.716-.053 2.36.534l.804.8c.215.266.483.426.805.586"/><path fill="url(#man-office-worker-light_svg__Y)" d="m20.795 4.206.429.213c.75.374 1.18 1.227 1.019 2.134l-.59 3.04c-.053.313-.26.525-.572.532h-.018s.054-.906.107-1.44c.044-.432-.032-.564-.429-.96-.214-.213-.375-.532-.375-.852v-.854c0-.266-.215-.48-.43-.533-.643-.16-1.984-.427-3.915-.427-1.93 0-3.272.267-3.915.427a.52.52 0 0 0-.43.533v.854c0 .32-.106.64-.375.853l-.16.16c-.215.16-.322.48-.322.746.053.587.107 1.44.107 1.44l-.05-.001a.63.63 0 0 1-.594-.532l-.59-3.04c-.107-.853.322-1.706 1.073-2.08l.43-.213c.267-.16.535-.373.804-.587l.965-1.013c.59-.533 1.448-.693 2.2-.32a2.94 2.94 0 0 0 1.662 0c.804-.266 1.716-.053 2.36.534l.804.8c.215.266.483.426.805.586"/></g><g filter="url(#man-office-worker-light_svg__Z)"><path fill="#D89992" d="m15.701 10.56-.82 1.7c-.102.35.142.7.488.7h.737c.346 0 .59-.355.488-.7l-.498-1.7c-.107-.376-.283-.376-.395 0"/></g><g filter="url(#man-office-worker-light_svg__aa)"><path fill="#FBC4B1" d="m15.594 10.398-.531 1.7c-.109.349.151.698.52.698h.786a.54.54 0 0 0 .52-.699l-.53-1.7c-.115-.376-.646-.376-.765 0"/><path fill="url(#man-office-worker-light_svg__ab)" d="m15.594 10.398-.531 1.7c-.109.349.151.698.52.698h.786a.54.54 0 0 0 .52-.699l-.53-1.7c-.115-.376-.646-.376-.765 0"/><path fill="url(#man-office-worker-light_svg__ac)" d="m15.594 10.398-.531 1.7c-.109.349.151.698.52.698h.786a.54.54 0 0 0 .52-.699l-.53-1.7c-.115-.376-.646-.376-.765 0"/><path fill="url(#man-office-worker-light_svg__ad)" d="m15.594 10.398-.531 1.7c-.109.349.151.698.52.698h.786a.54.54 0 0 0 .52-.699l-.53-1.7c-.115-.376-.646-.376-.765 0"/><path fill="url(#man-office-worker-light_svg__ae)" d="m15.594 10.398-.531 1.7c-.109.349.151.698.52.698h.786a.54.54 0 0 0 .52-.699l-.53-1.7c-.115-.376-.646-.376-.765 0"/></g><path fill="url(#man-office-worker-light_svg__af)" d="m15.594 10.398-.531 1.7c-.109.349.151.698.52.698h.786a.54.54 0 0 0 .52-.699l-.53-1.7c-.115-.376-.646-.376-.765 0"/><path fill="#88024E" stroke="url(#man-office-worker-light_svg__ag)" stroke-width=".1" d="M14.614 13.44c.394.205.863.323 1.362.323.505 0 .969-.118 1.362-.323a.2.2 0 0 1 .242.04c.057.06.078.155.02.241m-2.986-.28 2.945.252m-2.945-.253a.2.2 0 0 0-.242.042.19.19 0 0 0-.02.24m.262-.282-.22.254m3.207.027-.042-.027m.042.027-.042-.027m.042.027a1.94 1.94 0 0 1-1.625.868c-.681 0-1.28-.347-1.624-.867m3.207-.028a1.9 1.9 0 0 1-1.583.845 1.9 1.9 0 0 1-1.583-.845m-.041.027v.001l.041-.028m-.041.027.041-.027"/><g filter="url(#man-office-worker-light_svg__ah)"><path fill="#1E1E1E" d="M19.696 7.963h-.002l-.002-.002-.004-.004-.012-.01a1.4 1.4 0 0 0-.155-.107c-.1-.062-.24-.14-.42-.21a2.83 2.83 0 0 0-1.492-.159.534.534 0 0 0 .166 1.054c.398-.062.716.011.934.097a1.5 1.5 0 0 1 .308.165.534.534 0 0 0 .678-.824"/></g><g filter="url(#man-office-worker-light_svg__ai)"><path fill="#1E1E1E" d="m12.203 7.964.002-.002.002-.001.004-.004.012-.01a1.4 1.4 0 0 1 .155-.107c.1-.062.24-.14.42-.21a2.83 2.83 0 0 1 1.492-.159.534.534 0 0 1-.166 1.054 1.77 1.77 0 0 0-.934.097 1.5 1.5 0 0 0-.308.165.534.534 0 0 1-.679-.823"/></g><path fill="#fff" d="M18.364 9.253c.653 0 1.204.45 1.354 1.058a.274.274 0 0 1-.267.34h-2.23a.23.23 0 0 1-.228-.27c.126-.642.69-1.128 1.37-1.128"/><path fill="url(#man-office-worker-light_svg__aj)" d="M18.157 9.524a.892.892 0 0 1 .86 1.128h-1.724a.896.896 0 0 1 .864-1.127"/><path fill="#000" d="M17.646 10.417c0-.284.227-.511.511-.511a.51.51 0 0 1 .454.746h-.904a.46.46 0 0 1-.061-.236"/><g filter="url(#man-office-worker-light_svg__ak)"><path fill="#C7A7A3" d="M18.091 9.713c.064.085-.069.189-.22.302s-.263.192-.327.107c-.063-.085.008-.246.159-.358.15-.113.325-.136.388-.051"/><path fill="url(#man-office-worker-light_svg__al)" d="M18.091 9.713c.064.085-.069.189-.22.302s-.263.192-.327.107c-.063-.085.008-.246.159-.358.15-.113.325-.136.388-.051"/></g><g filter="url(#man-office-worker-light_svg__am)"><path fill="url(#man-office-worker-light_svg__an)" d="M18.952 10.299a.84.84 0 0 0-.232-.463l-.26.286.118.228z"/></g><path fill="#fff" d="M13.583 9.253c-.652 0-1.204.45-1.354 1.058-.045.175.09.34.268.34h2.23a.23.23 0 0 0 .227-.27 1.4 1.4 0 0 0-1.37-1.128"/><path fill="url(#man-office-worker-light_svg__ao)" d="M13.79 9.524a.892.892 0 0 0-.86 1.128h1.724a1 1 0 0 0 .033-.235.9.9 0 0 0-.897-.893"/><path fill="#000" d="M14.301 10.417a.51.51 0 0 0-.51-.511.51.51 0 0 0-.455.746h.905a.5.5 0 0 0 .06-.236"/><g filter="url(#man-office-worker-light_svg__ap)"><path fill="url(#man-office-worker-light_svg__aq)" d="M14.605 10.312c0-.288-.234-.48-.297-.539l-.289.279.178.361z"/></g><g filter="url(#man-office-worker-light_svg__ar)" transform="rotate(-27.914 13.521 9.906)"><ellipse cx="13.521" cy="9.906" fill="#C7A7A3" fill-opacity=".9" rx=".389" ry=".197"/><ellipse cx="13.521" cy="9.906" fill="url(#man-office-worker-light_svg__as)" rx=".389" ry=".197"/></g><g filter="url(#man-office-worker-light_svg__at)"><path stroke="url(#man-office-worker-light_svg__au)" stroke-linecap="round" stroke-width=".25" d="M17.637 7.819c.43-.075 1.268-.054 1.849.398"/></g><g filter="url(#man-office-worker-light_svg__av)"><path stroke="url(#man-office-worker-light_svg__aw)" stroke-linecap="round" stroke-width=".25" d="M12.418 8.337c.327-.289 1.041-.593 1.927-.452"/></g><g filter="url(#man-office-worker-light_svg__ax)"><path stroke="url(#man-office-worker-light_svg__ay)" stroke-linecap="round" stroke-width=".25" d="M11.444 5.872v.898c-.008.148-.07.48-.258.622"/></g><defs><linearGradient id="man-office-worker-light_svg__a" x1="16" x2="16" y1="16.219" y2="31.157" gradientUnits="userSpaceOnUse"><stop stop-color="#594E72"/><stop offset="1" stop-color="#594984"/></linearGradient><linearGradient id="man-office-worker-light_svg__f" x1="18.903" x2="17.059" y1="25.219" y2="25.219" gradientUnits="userSpaceOnUse"><stop stop-color="#7A6C85"/><stop offset="1" stop-color="#C7BCD2" stop-opacity="0"/></linearGradient><linearGradient id="man-office-worker-light_svg__g" x1="15.591" x2="15.669" y1="17.766" y2="21.656" gradientUnits="userSpaceOnUse"><stop stop-color="#877F93"/><stop offset="1" stop-color="#877F93" stop-opacity="0"/></linearGradient><linearGradient id="man-office-worker-light_svg__i" x1="23" x2="23.744" y1="29.394" y2="29.37" gradientUnits="userSpaceOnUse"><stop offset=".276" stop-color="#504176"/><stop offset="1" stop-color="#504176" stop-opacity="0"/></linearGradient><linearGradient id="man-office-worker-light_svg__k" x1="11.902" x2="11.902" y1="15.997" y2="29.897" gradientUnits="userSpaceOnUse"><stop stop-color="#594B78"/><stop offset=".524" stop-color="#5D5087"/></linearGradient><linearGradient id="man-office-worker-light_svg__l" x1="13.671" x2="13.05" y1="22.457" y2="22.457" gradientUnits="userSpaceOnUse"><stop stop-color="#553A63"/><stop offset="1" stop-color="#553A63" stop-opacity="0"/></linearGradient><linearGradient id="man-office-worker-light_svg__n" x1="11.902" x2="12.839" y1="25.873" y2="25.472" gradientUnits="userSpaceOnUse"><stop offset=".196" stop-color="#594C7D"/><stop offset="1" stop-color="#594C7D" stop-opacity="0"/></linearGradient><linearGradient id="man-office-worker-light_svg__p" x1="12.223" x2="12.434" y1="15.997" y2="16.399" gradientUnits="userSpaceOnUse"><stop stop-color="#584360"/><stop offset="1" stop-color="#584360" stop-opacity="0"/></linearGradient><linearGradient id="man-office-worker-light_svg__r" x1="15.988" x2="15.988" y1="18.891" y2="20.875" gradientUnits="userSpaceOnUse"><stop offset=".006" stop-color="#5A3859"/><stop offset="1" stop-color="#463952"/></linearGradient><linearGradient id="man-office-worker-light_svg__t" x1="18.71" x2="20.111" y1="21.504" y2="21.504" gradientUnits="userSpaceOnUse"><stop offset=".093" stop-color="#5A4C74"/><stop offset="1" stop-color="#625A91" stop-opacity="0"/></linearGradient><linearGradient id="man-office-worker-light_svg__w" x1="9.452" x2="7.02" y1="23.915" y2="23.915" gradientUnits="userSpaceOnUse"><stop stop-color="#43395F"/><stop offset="1" stop-color="#43395F" stop-opacity="0"/></linearGradient><linearGradient id="man-office-worker-light_svg__y" x1="14.606" x2="14.899" y1="24.777" y2="24.817" gradientUnits="userSpaceOnUse"><stop stop-color="#2B1B3A"/><stop offset="1" stop-color="#2B1B3A" stop-opacity="0"/></linearGradient><linearGradient id="man-office-worker-light_svg__z" x1="17.411" x2="17.012" y1="24.594" y2="24.641" gradientUnits="userSpaceOnUse"><stop stop-color="#2B1B3A"/><stop offset="1" stop-color="#2B1B3A" stop-opacity="0"/></linearGradient><linearGradient id="man-office-worker-light_svg__E" x1="11.229" x2="10.588" y1="10.962" y2="10.962" gradientUnits="userSpaceOnUse"><stop stop-color="#BA7C6B"/><stop offset="1" stop-color="#BE8474"/></linearGradient><linearGradient id="man-office-worker-light_svg__G" x1="21.828" x2="21.009" y1="9.592" y2="12.128" gradientUnits="userSpaceOnUse"><stop stop-color="#FBD3BD"/><stop offset="1" stop-color="#F0B8A4"/></linearGradient><linearGradient id="man-office-worker-light_svg__M" x1="20.012" x2="12.376" y1="11.073" y2="12.211" gradientUnits="userSpaceOnUse"><stop stop-color="#FFDABF"/><stop offset="1" stop-color="#EAAB97"/></linearGradient><linearGradient id="man-office-worker-light_svg__O" x1="10.334" x2="13.692" y1="12.6" y2="12.714" gradientUnits="userSpaceOnUse"><stop stop-color="#A58787"/><stop offset="1" stop-color="#DEAD9D" stop-opacity="0"/></linearGradient><linearGradient id="man-office-worker-light_svg__P" x1="10.581" x2="12.462" y1="13.768" y2="13.701" gradientUnits="userSpaceOnUse"><stop stop-color="#E8AD97"/><stop offset="1" stop-color="#E8AD97" stop-opacity="0"/></linearGradient><linearGradient id="man-office-worker-light_svg__T" x1="15.445" x2="23.588" y1="8.088" y2="5.173" gradientUnits="userSpaceOnUse"><stop stop-color="#FFDEC4"/><stop offset="1" stop-color="#FFDEC4" stop-opacity="0"/></linearGradient><linearGradient id="man-office-worker-light_svg__ab" x1="15.112" x2="16.05" y1="11.732" y2="11.732" gradientUnits="userSpaceOnUse"><stop stop-color="#DFA790"/><stop offset="1" stop-color="#DFA790" stop-opacity="0"/></linearGradient><linearGradient id="man-office-worker-light_svg__ac" x1="16.915" x2="15.889" y1="12.054" y2="12.04" gradientUnits="userSpaceOnUse"><stop stop-color="#FFDFC4"/><stop offset="1" stop-color="#FFDFC4" stop-opacity="0"/></linearGradient><linearGradient id="man-office-worker-light_svg__ad" x1="16.171" x2="16.171" y1="12.796" y2="12.223" gradientUnits="userSpaceOnUse"><stop stop-color="#DC9C96"/><stop offset="1" stop-color="#DC9C96" stop-opacity="0"/></linearGradient><linearGradient id="man-office-worker-light_svg__af" x1="16.102" x2="16.102" y1="12.838" y2="12.671" gradientUnits="userSpaceOnUse"><stop stop-color="#D6938E"/><stop offset="1" stop-color="#D6938E" stop-opacity="0"/></linearGradient><linearGradient id="man-office-worker-light_svg__ag" x1="14.939" x2="15.374" y1="14.412" y2="13.724" gradientUnits="userSpaceOnUse"><stop stop-color="#E6B4A6"/><stop offset=".663" stop-color="#E6B4A6" stop-opacity="0"/></linearGradient><linearGradient id="man-office-worker-light_svg__an" x1="18.933" x2="18.619" y1="10.055" y2="10.248" gradientUnits="userSpaceOnUse"><stop stop-color="#B4948D"/><stop offset="1" stop-color="#B4948D" stop-opacity="0"/></linearGradient><linearGradient id="man-office-worker-light_svg__aq" x1="14.536" x2="14.222" y1="10.055" y2="10.248" gradientUnits="userSpaceOnUse"><stop stop-color="#B4948D"/><stop offset="1" stop-color="#B4948D" stop-opacity="0"/></linearGradient><linearGradient id="man-office-worker-light_svg__au" x1="18.948" x2="18.528" y1="7.916" y2="7.057" gradientUnits="userSpaceOnUse"><stop stop-color="#353435"/><stop offset="1" stop-color="#353435" stop-opacity="0"/></linearGradient><linearGradient id="man-office-worker-light_svg__aw" x1="13.644" x2="12.455" y1="7.788" y2="7.289" gradientUnits="userSpaceOnUse"><stop stop-color="#353435"/><stop offset="1" stop-color="#353435" stop-opacity="0"/></linearGradient><linearGradient id="man-office-worker-light_svg__ay" x1="11.315" x2="11.315" y1="5.774" y2="7.93" gradientUnits="userSpaceOnUse"><stop stop-color="#3C393A"/><stop offset="1" stop-color="#3C393A" stop-opacity="0"/></linearGradient><radialGradient id="man-office-worker-light_svg__b" cx="0" cy="0" r="1" gradientTransform="matrix(0 -16.4313 6.37009 0 22.995 25.4)" gradientUnits="userSpaceOnUse"><stop offset=".156" stop-color="#7B74A6"/><stop offset="1" stop-color="#5F5490" stop-opacity="0"/></radialGradient><radialGradient id="man-office-worker-light_svg__e" cx="0" cy="0" r="1" gradientTransform="matrix(0 10.1215 -4.59696 0 16 22.972)" gradientUnits="userSpaceOnUse"><stop offset=".397" stop-color="#C6BBD1"/><stop offset="1" stop-color="#A89CB3"/></radialGradient><radialGradient id="man-office-worker-light_svg__h" cx="0" cy="0" r="1" gradientTransform="matrix(0 -10.3135 1.68433 0 25 29.907)" gradientUnits="userSpaceOnUse"><stop stop-color="#776D9F"/><stop offset="1" stop-color="#6D6193"/></radialGradient><radialGradient id="man-office-worker-light_svg__m" cx="0" cy="0" r="1" gradientTransform="rotate(126.18 2.726 11.621)scale(2.59394 3.59462)" gradientUnits="userSpaceOnUse"><stop stop-color="#4E3360"/><stop offset="1" stop-color="#4E3360" stop-opacity="0"/></radialGradient><radialGradient id="man-office-worker-light_svg__o" cx="0" cy="0" r="1" gradientTransform="rotate(-15.945 75.9 -30.85)scale(1.13752 .55902)" gradientUnits="userSpaceOnUse"><stop offset=".241" stop-color="#4B3B6D"/><stop offset="1" stop-color="#4B3B6D" stop-opacity="0"/></radialGradient><radialGradient id="man-office-worker-light_svg__u" cx="0" cy="0" r="1" gradientTransform="matrix(0 3.75 -4.3769 0 16 18.422)" gradientUnits="userSpaceOnUse"><stop offset=".362" stop-color="#CDBED0"/><stop offset="1" stop-color="#A093A3"/></radialGradient><radialGradient id="man-office-worker-light_svg__v" cx="0" cy="0" r="1" gradientTransform="matrix(0 -5.1875 6.81546 0 16 20.92)" gradientUnits="userSpaceOnUse"><stop offset=".533" stop-color="#9D8392" stop-opacity="0"/><stop offset=".876" stop-color="#815A72"/></radialGradient><radialGradient id="man-office-worker-light_svg__x" cx="0" cy="0" r="1" gradientTransform="matrix(0 8.8125 -3.45478 0 15.983 21.313)" gradientUnits="userSpaceOnUse"><stop offset=".006" stop-color="#59416D"/><stop offset=".94" stop-color="#3D3247"/></radialGradient><radialGradient id="man-office-worker-light_svg__A" cx="0" cy="0" r="1" gradientTransform="rotate(61.477 -6.152 21.264)scale(3.23955 4.91553)" gradientUnits="userSpaceOnUse"><stop offset=".414" stop-color="#BC7B7B"/><stop offset="1" stop-color="#A9707A"/></radialGradient><radialGradient id="man-office-worker-light_svg__C" cx="0" cy="0" r="1" gradientTransform="matrix(1.75471 0 0 3.07077 9.56 10.683)" gradientUnits="userSpaceOnUse"><stop offset=".351" stop-color="#CF9888"/><stop offset="1" stop-color="#BE8C77"/></radialGradient><radialGradient id="man-office-worker-light_svg__H" cx="0" cy="0" r="1" gradientTransform="matrix(.82663 -.60192 .68701 .9435 21.113 10.418)" gradientUnits="userSpaceOnUse"><stop offset=".543" stop-color="#D9AA94"/><stop offset="1" stop-color="#D9AA94" stop-opacity="0"/></radialGradient><radialGradient id="man-office-worker-light_svg__J" cx="0" cy="0" r="1" gradientTransform="matrix(.8212 -1.5104 .88405 .48065 20.7 11.504)" gradientUnits="userSpaceOnUse"><stop offset=".755" stop-color="#D6A38D" stop-opacity="0"/><stop offset=".916" stop-color="#D6A38D"/></radialGradient><radialGradient id="man-office-worker-light_svg__K" cx="0" cy="0" r="1" gradientTransform="rotate(44.707 -2.619 30.56)scale(.3648 .47028)" gradientUnits="userSpaceOnUse"><stop stop-color="#D5A58E"/><stop offset="1" stop-color="#D5A58E" stop-opacity="0"/></radialGradient><radialGradient id="man-office-worker-light_svg__N" cx="0" cy="0" r="1" gradientTransform="matrix(0 8.51658 -12.5003 0 16.005 8.758)" gradientUnits="userSpaceOnUse"><stop offset=".653" stop-color="#CA8F9A" stop-opacity="0"/><stop offset="1" stop-color="#AE6D8F"/></radialGradient><radialGradient id="man-office-worker-light_svg__Q" cx="0" cy="0" r="1" gradientTransform="matrix(0 -1.30697 1.60858 0 18.322 9.412)" gradientUnits="userSpaceOnUse"><stop stop-color="#F5B7A7"/><stop offset="1" stop-color="#F5B7A7" stop-opacity="0"/></radialGradient><radialGradient id="man-office-worker-light_svg__R" cx="0" cy="0" r="1" gradientTransform="matrix(0 -1.39075 1.72952 0 13.764 9.378)" gradientUnits="userSpaceOnUse"><stop stop-color="#D0958D"/><stop offset="1" stop-color="#D0958D" stop-opacity="0"/></radialGradient><radialGradient id="man-office-worker-light_svg__V" cx="0" cy="0" r="1" gradientTransform="rotate(-74.899 14.454 -9.977)scale(3.06211 1.13553)" gradientUnits="userSpaceOnUse"><stop stop-color="#464344"/><stop offset="1" stop-color="#464344" stop-opacity="0"/></radialGradient><radialGradient id="man-office-worker-light_svg__W" cx="0" cy="0" r="1" gradientTransform="rotate(5.258 -43.123 205.812)scale(3.84067 2.0651)" gradientUnits="userSpaceOnUse"><stop offset=".335" stop-color="#4A4648"/><stop offset="1" stop-color="#4A4648" stop-opacity="0"/></radialGradient><radialGradient id="man-office-worker-light_svg__X" cx="0" cy="0" r="1" gradientTransform="matrix(0 1.67903 -2.60035 0 15.976 2.083)" gradientUnits="userSpaceOnUse"><stop stop-color="#423D3F"/><stop offset="1" stop-color="#423D3F" stop-opacity="0"/></radialGradient><radialGradient id="man-office-worker-light_svg__Y" cx="0" cy="0" r="1" gradientTransform="matrix(3.07369 -2.25248 3.52889 4.81545 9.528 8.9)" gradientUnits="userSpaceOnUse"><stop stop-color="#463C39"/><stop offset="1" stop-color="#463C39" stop-opacity="0"/></radialGradient><radialGradient id="man-office-worker-light_svg__ae" cx="0" cy="0" r="1" gradientTransform="matrix(0 .19688 -.63254 0 16.303 12.29)" gradientUnits="userSpaceOnUse"><stop stop-color="#FFD7C1"/><stop offset="1" stop-color="#FFD7C1" stop-opacity="0"/></radialGradient><radialGradient id="man-office-worker-light_svg__aj" cx="0" cy="0" r="1" gradientTransform="matrix(0 .81106 -1.29009 0 18.155 10.001)" gradientUnits="userSpaceOnUse"><stop offset=".802" stop-color="#7D574A"/><stop offset="1" stop-color="#694B43"/><stop offset="1" stop-color="#804D49"/><stop offset="1" stop-color="#664944"/></radialGradient><radialGradient id="man-office-worker-light_svg__al" cx="0" cy="0" r="1" gradientTransform="matrix(-.23184 -.29876 .41132 -.3192 17.927 10.085)" gradientUnits="userSpaceOnUse"><stop offset=".766" stop-color="#FFE6E2" stop-opacity="0"/><stop offset=".966" stop-color="#FFE6E2"/></radialGradient><radialGradient id="man-office-worker-light_svg__ao" cx="0" cy="0" r="1" gradientTransform="matrix(0 .8111 -1.29015 0 13.792 10.001)" gradientUnits="userSpaceOnUse"><stop offset=".802" stop-color="#7D574A"/><stop offset="1" stop-color="#694B43"/><stop offset="1" stop-color="#804D49"/><stop offset="1" stop-color="#664944"/></radialGradient><radialGradient id="man-office-worker-light_svg__as" cx="0" cy="0" r="1" gradientTransform="rotate(-90.897 11.784 -1.538)scale(.49399 .59379)" gradientUnits="userSpaceOnUse"><stop offset=".766" stop-color="#FFE6E2" stop-opacity="0"/><stop offset=".966" stop-color="#FFE6E2"/></radialGradient><filter id="man-office-worker-light_svg__c" width="6.556" height="14.595" x="9.212" y="15.755" color-interpolation-filters="sRGB" filterUnits="userSpaceOnUse"><feFlood flood-opacity="0" result="BackgroundImageFix"/><feBlend in="SourceGraphic" in2="BackgroundImageFix" result="shape"/><feGaussianBlur result="effect1_foregroundBlur_4002_2107" stdDeviation=".5"/></filter><filter id="man-office-worker-light_svg__d" width="3.95" height="13.362" x="17.96" y="16.232" color-interpolation-filters="sRGB" filterUnits="userSpaceOnUse"><feFlood flood-opacity="0" result="BackgroundImageFix"/><feBlend in="SourceGraphic" in2="BackgroundImageFix" result="shape"/><feGaussianBlur result="effect1_foregroundBlur_4002_2107" stdDeviation=".375"/></filter><filter id="man-office-worker-light_svg__j" width="2.897" height="14" x="10.503" y="15.997" color-interpolation-filters="sRGB" filterUnits="userSpaceOnUse"><feFlood flood-opacity="0" result="BackgroundImageFix"/><feBlend in="SourceGraphic" in2="BackgroundImageFix" result="shape"/><feColorMatrix in="SourceAlpha" result="hardAlpha" values="0 0 0 0 0 0 0 0 0 0 0 0 0 0 0 0 0 0 127 0"/><feOffset dx=".1" dy=".1"/><feGaussianBlur stdDeviation=".1"/><feComposite in2="hardAlpha" k2="-1" k3="1" operator="arithmetic"/><feColorMatrix values="0 0 0 0 0.403922 0 0 0 0 0.368627 0 0 0 0 0.494118 0 0 0 1 0"/><feBlend in2="shape" result="effect1_innerShadow_4002_2107"/></filter><filter id="man-office-worker-light_svg__q" width="2.965" height="2.883" x="14.509" y="18.135" color-interpolation-filters="sRGB" filterUnits="userSpaceOnUse"><feFlood flood-opacity="0" result="BackgroundImageFix"/><feBlend in="SourceGraphic" in2="BackgroundImageFix" result="shape"/><feColorMatrix in="SourceAlpha" result="hardAlpha" values="0 0 0 0 0 0 0 0 0 0 0 0 0 0 0 0 0 0 127 0"/><feOffset dx=".1" dy="-.1"/><feGaussianBlur stdDeviation=".25"/><feComposite in2="hardAlpha" k2="-1" k3="1" operator="arithmetic"/><feColorMatrix values="0 0 0 0 0.156863 0 0 0 0 0.0980392 0 0 0 0 0.215686 0 0 0 1 0"/><feBlend in2="shape" result="effect1_innerShadow_4002_2107"/><feColorMatrix in="SourceAlpha" result="hardAlpha" values="0 0 0 0 0 0 0 0 0 0 0 0 0 0 0 0 0 0 127 0"/><feOffset dx="-.1" dy="-.1"/><feGaussianBlur stdDeviation=".25"/><feComposite in2="hardAlpha" k2="-1" k3="1" operator="arithmetic"/><feColorMatrix values="0 0 0 0 0.156863 0 0 0 0 0.0980392 0 0 0 0 0.215686 0 0 0 1 0"/><feBlend in2="effect1_innerShadow_4002_2107" result="effect2_innerShadow_4002_2107"/></filter><filter id="man-office-worker-light_svg__s" width="2.902" height="14.05" x="18.61" y="15.947" color-interpolation-filters="sRGB" filterUnits="userSpaceOnUse"><feFlood flood-opacity="0" result="BackgroundImageFix"/><feBlend in="SourceGraphic" in2="BackgroundImageFix" result="shape"/><feColorMatrix in="SourceAlpha" result="hardAlpha" values="0 0 0 0 0 0 0 0 0 0 0 0 0 0 0 0 0 0 127 0"/><feOffset dx="-.1" dy=".1"/><feGaussianBlur stdDeviation=".1"/><feComposite in2="hardAlpha" k2="-1" k3="1" operator="arithmetic"/><feColorMatrix values="0 0 0 0 0.439216 0 0 0 0 0.415686 0 0 0 0 0.584314 0 0 0 1 0"/><feBlend in2="shape" result="effect1_innerShadow_4002_2107"/></filter><filter id="man-office-worker-light_svg__B" width="3.539" height="3.339" x="9.559" y="9.014" color-interpolation-filters="sRGB" filterUnits="userSpaceOnUse"><feFlood flood-opacity="0" result="BackgroundImageFix"/><feBlend in="SourceGraphic" in2="BackgroundImageFix" result="shape"/><feColorMatrix in="SourceAlpha" result="hardAlpha" values="0 0 0 0 0 0 0 0 0 0 0 0 0 0 0 0 0 0 127 0"/><feOffset dx=".2"/><feGaussianBlur stdDeviation=".15"/><feComposite in2="hardAlpha" k2="-1" k3="1" operator="arithmetic"/><feColorMatrix values="0 0 0 0 0.917647 0 0 0 0 0.694118 0 0 0 0 0.607843 0 0 0 1 0"/><feBlend in2="shape" result="effect1_innerShadow_4002_2107"/></filter><filter id="man-office-worker-light_svg__D" width="2.99" height="2.99" x="9.734" y="9.188" color-interpolation-filters="sRGB" filterUnits="userSpaceOnUse"><feFlood flood-opacity="0" result="BackgroundImageFix"/><feBlend in="SourceGraphic" in2="BackgroundImageFix" result="shape"/><feGaussianBlur result="effect1_foregroundBlur_4002_2107" stdDeviation=".25"/></filter><filter id="man-office-worker-light_svg__F" width="3.589" height="3.589" x="19.072" y="8.764" color-interpolation-filters="sRGB" filterUnits="userSpaceOnUse"><feFlood flood-opacity="0" result="BackgroundImageFix"/><feBlend in="SourceGraphic" in2="BackgroundImageFix" result="shape"/><feColorMatrix in="SourceAlpha" result="hardAlpha" values="0 0 0 0 0 0 0 0 0 0 0 0 0 0 0 0 0 0 127 0"/><feOffset dx=".25" dy="-.25"/><feGaussianBlur stdDeviation=".25"/><feComposite in2="hardAlpha" k2="-1" k3="1" operator="arithmetic"/><feColorMatrix values="0 0 0 0 0.843137 0 0 0 0 0.623529 0 0 0 0 0.580392 0 0 0 1 0"/><feBlend in2="shape" result="effect1_innerShadow_4002_2107"/></filter><filter id="man-office-worker-light_svg__I" width="2.99" height="2.99" x="19.246" y="9.188" color-interpolation-filters="sRGB" filterUnits="userSpaceOnUse"><feFlood flood-opacity="0" result="BackgroundImageFix"/><feBlend in="SourceGraphic" in2="BackgroundImageFix" result="shape"/><feGaussianBlur result="effect1_foregroundBlur_4002_2107" stdDeviation=".25"/></filter><filter id="man-office-worker-light_svg__L" width="10.373" height="12.277" x="10.819" y="5.059" color-interpolation-filters="sRGB" filterUnits="userSpaceOnUse"><feFlood flood-opacity="0" result="BackgroundImageFix"/><feBlend in="SourceGraphic" in2="BackgroundImageFix" result="shape"/><feColorMatrix in="SourceAlpha" result="hardAlpha" values="0 0 0 0 0 0 0 0 0 0 0 0 0 0 0 0 0 0 127 0"/><feOffset dy=".25"/><feGaussianBlur stdDeviation=".375"/><feComposite in2="hardAlpha" k2="-1" k3="1" operator="arithmetic"/><feColorMatrix values="0 0 0 0 0.819608 0 0 0 0 0.615686 0 0 0 0 0.509804 0 0 0 1 0"/><feBlend in2="shape" result="effect1_innerShadow_4002_2107"/></filter><filter id="man-office-worker-light_svg__S" width="8.246" height="7.066" x="14.146" y="3.059" color-interpolation-filters="sRGB" filterUnits="userSpaceOnUse"><feFlood flood-opacity="0" result="BackgroundImageFix"/><feBlend in="SourceGraphic" in2="BackgroundImageFix" result="shape"/><feGaussianBlur result="effect1_foregroundBlur_4002_2107" stdDeviation="1"/></filter><filter id="man-office-worker-light_svg__U" width="12.601" height="8.543" x="9.676" y="1.583" color-interpolation-filters="sRGB" filterUnits="userSpaceOnUse"><feFlood flood-opacity="0" result="BackgroundImageFix"/><feBlend in="SourceGraphic" in2="BackgroundImageFix" result="shape"/><feColorMatrix in="SourceAlpha" result="hardAlpha" values="0 0 0 0 0 0 0 0 0 0 0 0 0 0 0 0 0 0 127 0"/><feOffset dy="-.5"/><feGaussianBlur stdDeviation=".375"/><feComposite in2="hardAlpha" k2="-1" k3="1" operator="arithmetic"/><feColorMatrix values="0 0 0 0 0.0392157 0 0 0 0 0.00784314 0 0 0 0 0.0196078 0 0 0 1 0"/><feBlend in2="shape" result="effect1_innerShadow_4002_2107"/></filter><filter id="man-office-worker-light_svg__Z" width="3.26" height="4.181" x="14.107" y="9.529" color-interpolation-filters="sRGB" filterUnits="userSpaceOnUse"><feFlood flood-opacity="0" result="BackgroundImageFix"/><feBlend in="SourceGraphic" in2="BackgroundImageFix" result="shape"/><feGaussianBlur result="effect1_foregroundBlur_4002_2107" stdDeviation=".375"/></filter><filter id="man-office-worker-light_svg__aa" width="2.377" height="3.181" x="14.788" y="9.865" color-interpolation-filters="sRGB" filterUnits="userSpaceOnUse"><feFlood flood-opacity="0" result="BackgroundImageFix"/><feBlend in="SourceGraphic" in2="BackgroundImageFix" result="shape"/><feGaussianBlur result="effect1_foregroundBlur_4002_2107" stdDeviation=".125"/></filter><filter id="man-office-worker-light_svg__ah" width="2.979" height="1.873" x="17.158" y="7.035" color-interpolation-filters="sRGB" filterUnits="userSpaceOnUse"><feFlood flood-opacity="0" result="BackgroundImageFix"/><feBlend in="SourceGraphic" in2="BackgroundImageFix" result="shape"/><feColorMatrix in="SourceAlpha" result="hardAlpha" values="0 0 0 0 0 0 0 0 0 0 0 0 0 0 0 0 0 0 127 0"/><feOffset dx=".25" dy="-.4"/><feGaussianBlur stdDeviation=".3"/><feComposite in2="hardAlpha" k2="-1" k3="1" operator="arithmetic"/><feColorMatrix values="0 0 0 0 0.0431373 0 0 0 0 0.0196078 0 0 0 0 0.027451 0 0 0 1 0"/><feBlend in2="shape" result="effect1_innerShadow_4002_2107"/></filter><filter id="man-office-worker-light_svg__ai" width="2.98" height="1.873" x="12.011" y="7.035" color-interpolation-filters="sRGB" filterUnits="userSpaceOnUse"><feFlood flood-opacity="0" result="BackgroundImageFix"/><feBlend in="SourceGraphic" in2="BackgroundImageFix" result="shape"/><feColorMatrix in="SourceAlpha" result="hardAlpha" values="0 0 0 0 0 0 0 0 0 0 0 0 0 0 0 0 0 0 127 0"/><feOffset dx=".25" dy="-.4"/><feGaussianBlur stdDeviation=".3"/><feComposite in2="hardAlpha" k2="-1" k3="1" operator="arithmetic"/><feColorMatrix values="0 0 0 0 0.0431373 0 0 0 0 0.0196078 0 0 0 0 0.027451 0 0 0 1 0"/><feBlend in2="shape" result="effect1_innerShadow_4002_2107"/></filter><filter id="man-office-worker-light_svg__ak" width=".787" height=".696" x="17.421" y="9.562" color-interpolation-filters="sRGB" filterUnits="userSpaceOnUse"><feFlood flood-opacity="0" result="BackgroundImageFix"/><feBlend in="SourceGraphic" in2="BackgroundImageFix" result="shape"/><feGaussianBlur result="effect1_foregroundBlur_4002_2107" stdDeviation=".05"/></filter><filter id="man-office-worker-light_svg__am" width=".891" height=".913" x="18.261" y="9.636" color-interpolation-filters="sRGB" filterUnits="userSpaceOnUse"><feFlood flood-opacity="0" result="BackgroundImageFix"/><feBlend in="SourceGraphic" in2="BackgroundImageFix" result="shape"/><feGaussianBlur result="effect1_foregroundBlur_4002_2107" stdDeviation=".1"/></filter><filter id="man-office-worker-light_svg__ap" width=".986" height="1.04" x="13.819" y="9.573" color-interpolation-filters="sRGB" filterUnits="userSpaceOnUse"><feFlood flood-opacity="0" result="BackgroundImageFix"/><feBlend in="SourceGraphic" in2="BackgroundImageFix" result="shape"/><feGaussianBlur result="effect1_foregroundBlur_4002_2107" stdDeviation=".1"/></filter><filter id="man-office-worker-light_svg__ar" width=".913" height=".704" x="13.065" y="9.553" color-interpolation-filters="sRGB" filterUnits="userSpaceOnUse"><feFlood flood-opacity="0" result="BackgroundImageFix"/><feBlend in="SourceGraphic" in2="BackgroundImageFix" result="shape"/><feGaussianBlur result="effect1_foregroundBlur_4002_2107" stdDeviation=".05"/></filter><filter id="man-office-worker-light_svg__at" width="3.099" height="1.681" x="17.012" y="7.161" color-interpolation-filters="sRGB" filterUnits="userSpaceOnUse"><feFlood flood-opacity="0" result="BackgroundImageFix"/><feBlend in="SourceGraphic" in2="BackgroundImageFix" result="shape"/><feGaussianBlur result="effect1_foregroundBlur_4002_2107" stdDeviation=".25"/></filter><filter id="man-office-worker-light_svg__av" width="3.177" height="1.738" x="11.793" y="7.224" color-interpolation-filters="sRGB" filterUnits="userSpaceOnUse"><feFlood flood-opacity="0" result="BackgroundImageFix"/><feBlend in="SourceGraphic" in2="BackgroundImageFix" result="shape"/><feGaussianBlur result="effect1_foregroundBlur_4002_2107" stdDeviation=".25"/></filter><filter id="man-office-worker-light_svg__ax" width="1.008" height="2.269" x="10.811" y="5.497" color-interpolation-filters="sRGB" filterUnits="userSpaceOnUse"><feFlood flood-opacity="0" result="BackgroundImageFix"/><feBlend in="SourceGraphic" in2="BackgroundImageFix" result="shape"/><feGaussianBlur result="effect1_foregroundBlur_4002_2107" stdDeviation=".125"/></filter></defs></svg>