<svg width="32" height="32" fill="none" xmlns="http://www.w3.org/2000/svg"><path d="M21.6 18.47H10.39c-3.23 1.92-5.4 5.44-5.4 9.47v2.05h22.02v-2.05c0-4.03-2.17-7.55-5.41-9.47Z" fill="url(#a)"/><path d="M21.6 18.47H10.39c-3.23 1.92-5.4 5.44-5.4 9.47v2.05h22.02v-2.05c0-4.03-2.17-7.55-5.41-9.47Z" fill="url(#b)"/><path d="M21.6 18.47H10.39c-3.23 1.92-5.4 5.44-5.4 9.47v2.05h22.02v-2.05c0-4.03-2.17-7.55-5.41-9.47Z" fill="url(#c)"/><path d="M21.6 18.47H10.39c-3.23 1.92-5.4 5.44-5.4 9.47v2.05h22.02v-2.05c0-4.03-2.17-7.55-5.41-9.47Z" fill="url(#d)"/><path d="M21.6 18.47H10.39c-3.23 1.92-5.4 5.44-5.4 9.47v2.05h22.02v-2.05c0-4.03-2.17-7.55-5.41-9.47Z" fill="url(#e)"/><path d="M23 19.45v10.54h4v-2.37c-.09-3.29-1.63-6.21-4-8.17Z" fill="#EBDEF9"/><path d="M23 19.45v10.54h4v-2.37c-.09-3.29-1.63-6.21-4-8.17Z" fill="url(#f)"/><path d="M23 19.45v10.54h4v-2.37c-.09-3.29-1.63-6.21-4-8.17Z" fill="url(#g)"/><path d="M23 19.45v10.54h4v-2.37c-.09-3.29-1.63-6.21-4-8.17Z" fill="url(#h)"/><path d="M23 19.45v10.54h4v-2.37c-.09-3.29-1.63-6.21-4-8.17Z" fill="url(#i)"/><path d="m9.003 29.99.017-.01V19.431a10.983 10.983 0 0 0-4.03 8.51v2.05h4.013Z" fill="#D9CDE8"/><path d="m9.003 29.99.017-.01V19.431a10.983 10.983 0 0 0-4.03 8.51v2.05h4.013Z" fill="url(#j)"/><path d="m9.003 29.99.017-.01V19.431a10.983 10.983 0 0 0-4.03 8.51v2.05h4.013Z" fill="url(#k)"/><path d="m9.003 29.99.017-.01V19.431a10.983 10.983 0 0 0-4.03 8.51v2.05h4.013Z" fill="url(#l)"/><g filter="url(#m)"><path d="M19.68 25.98h-7.37c-.45 0-.82.37-.82.82V30h9.01v-3.2c0-.46-.36-.82-.82-.82Z" fill="url(#n)"/></g><g filter="url(#o)"><path d="M13.815 25.235a1.06 1.06 0 1 0 0-2.12 1.06 1.06 0 0 0 0 2.12Z" fill="#D6BCDB"/></g><g filter="url(#p)"><path d="M17.885 25.235a1.06 1.06 0 1 0 0-2.12 1.06 1.06 0 0 0 0 2.12Z" fill="#D1B8D6"/></g><g filter="url(#q)"><path d="M14 25.05a1.06 1.06 0 1 0 0-2.12 1.06 1.06 0 0 0 0 2.12Z" fill="url(#r)"/></g><g filter="url(#s)"><path d="M18 25.05a1.06 1.06 0 1 0 0-2.12 1.06 1.06 0 0 0 0 2.12Z" fill="url(#t)"/></g><g filter="url(#u)"><path d="M18 24.865a.875.875 0 1 0 0-1.75.875.875 0 0 0 0 1.75Z" stroke="url(#v)" stroke-width=".1"/></g><g filter="url(#w)"><path d="M14 24.865a.875.875 0 1 0 0-1.75.875.875 0 0 0 0 1.75Z" stroke="url(#x)" stroke-width=".1"/></g><path d="M7.36 28.66v-1.62c0-.19-.15-.34-.34-.34H5.06c-.03.26-.05.53-.06.8l.01 1.5h2.02c.18 0 .33-.15.33-.34Z" fill="url(#y)"/><g filter="url(#z)"><path d="M23.18 18.396c0 1.463-2.782 3.516-7.18 3.516-4.469-.047-7.18-2.053-7.18-3.515 0-1.463 3.215-2.649 7.18-2.649s7.18 1.186 7.18 2.649Z" fill="url(#A)"/><path d="M23.18 18.396c0 1.463-2.782 3.516-7.18 3.516-4.469-.047-7.18-2.053-7.18-3.515 0-1.463 3.215-2.649 7.18-2.649s7.18 1.186 7.18 2.649Z" fill="url(#B)"/><path d="M23.18 18.396c0 1.463-2.782 3.516-7.18 3.516-4.469-.047-7.18-2.053-7.18-3.515 0-1.463 3.215-2.649 7.18-2.649s7.18 1.186 7.18 2.649Z" fill="url(#C)"/></g><path d="M23.18 18.396c0 1.463-2.782 3.516-7.18 3.516-4.469-.047-7.18-2.053-7.18-3.515 0-1.463 3.215-2.649 7.18-2.649s7.18 1.186 7.18 2.649Z" fill="url(#D)"/><path d="M23.18 18.396c0 1.463-2.782 3.516-7.18 3.516-4.469-.047-7.18-2.053-7.18-3.515 0-1.463 3.215-2.649 7.18-2.649s7.18 1.186 7.18 2.649Z" fill="url(#E)"/><rect x="6.093" y="8.928" width="4.406" height="4.984" rx=".75" fill="url(#F)"/><rect x="6.093" y="8.928" width="4.406" height="4.984" rx=".75" fill="url(#G)"/><rect x="6.093" y="8.928" width="4.406" height="4.984" rx=".75" fill="url(#H)"/><rect x="21.5" y="8.928" width="4.406" height="4.984" rx=".75" fill="url(#I)"/><rect x="21.5" y="8.928" width="4.406" height="4.984" rx=".75" fill="url(#J)"/><rect x="21.5" y="8.928" width="4.406" height="4.984" rx=".75" fill="url(#K)"/><path d="M15.947 2c-4.98 0-9.01 4.03-9.01 9.01 0 4.98 4.03 9.01 9.01 9.01 4.98 0 9.01-4.03 9.01-9.01 0-4.98-4.04-9.01-9.01-9.01Z" fill="url(#L)"/><path d="M15.947 2c-4.98 0-9.01 4.03-9.01 9.01 0 4.98 4.03 9.01 9.01 9.01 4.98 0 9.01-4.03 9.01-9.01 0-4.98-4.04-9.01-9.01-9.01Z" fill="url(#M)"/><path d="M15.947 2c-4.98 0-9.01 4.03-9.01 9.01 0 4.98 4.03 9.01 9.01 9.01 4.98 0 9.01-4.03 9.01-9.01 0-4.98-4.04-9.01-9.01-9.01Z" fill="url(#N)"/><g filter="url(#O)"><path d="M15.947 2.239a8.767 8.767 0 0 0-8.771 8.771 8.767 8.767 0 0 0 8.771 8.772 8.767 8.767 0 0 0 8.772-8.772c0-4.848-3.933-8.771-8.772-8.771Z" fill="url(#P)"/></g><g filter="url(#Q)"><path d="M15.947 3.232A7.773 7.773 0 0 0 8.17 11.01a7.773 7.773 0 0 0 7.778 7.778 7.779 7.779 0 0 0 0-15.555Z" fill="url(#R)"/></g><path d="M16 18.526a7.516 7.516 0 1 0 0-15.031 7.516 7.516 0 0 0 0 15.03Z" fill="url(#S)"/><path d="M16 18.526a7.516 7.516 0 1 0 0-15.031 7.516 7.516 0 0 0 0 15.03Z" fill="url(#T)"/><g filter="url(#U)"><path d="M10.843 14.054c.292 2.117 2.175 3.694 4.404 3.694h2.138c2.23 0 4.112-1.577 4.404-3.694.134-2.043.268-4.078.367-6.12-.012-.831-.697-1.518-1.563-1.552h-1.586c-1.082 0-2.062-.611-2.507-1.565a.753.753 0 0 0-.697-.454H14.36c-2.092 0-3.787 1.64-3.787 3.665 0 2.018.132 4.003.27 6.026Z" fill="#1F1428"/></g><g filter="url(#V)"><path d="M10.86 10.17a29.916 29.916 0 0 1-.059-1.439c-.084-3.118 1.747-3.577 5.215-3.577 1.688 0 5.527 0 5.161 3.63-.013.129-.053 1.196-.09 1.442l-.266 3.962c-.16 1.771-1.555 3.006-3.217 3.006h-3.218c-1.716 0-3.057-1.235-3.218-3.006l-.308-4.017Z" fill="url(#W)"/><path d="M10.86 10.17a29.916 29.916 0 0 1-.059-1.439c-.084-3.118 1.747-3.577 5.215-3.577 1.688 0 5.527 0 5.161 3.63-.013.129-.053 1.196-.09 1.442l-.266 3.962c-.16 1.771-1.555 3.006-3.217 3.006h-3.218c-1.716 0-3.057-1.235-3.218-3.006l-.308-4.017Z" fill="url(#X)"/><path d="M10.86 10.17a29.916 29.916 0 0 1-.059-1.439c-.084-3.118 1.747-3.577 5.215-3.577 1.688 0 5.527 0 5.161 3.63-.013.129-.053 1.196-.09 1.442l-.266 3.962c-.16 1.771-1.555 3.006-3.217 3.006h-3.218c-1.716 0-3.057-1.235-3.218-3.006l-.308-4.017Z" fill="url(#Y)"/><path d="M10.86 10.17a29.916 29.916 0 0 1-.059-1.439c-.084-3.118 1.747-3.577 5.215-3.577 1.688 0 5.527 0 5.161 3.63-.013.129-.053 1.196-.09 1.442l-.266 3.962c-.16 1.771-1.555 3.006-3.217 3.006h-3.218c-1.716 0-3.057-1.235-3.218-3.006l-.308-4.017Z" fill="url(#Z)"/><path d="M10.86 10.17a29.916 29.916 0 0 1-.059-1.439c-.084-3.118 1.747-3.577 5.215-3.577 1.688 0 5.527 0 5.161 3.63-.013.129-.053 1.196-.09 1.442l-.266 3.962c-.16 1.771-1.555 3.006-3.217 3.006h-3.218c-1.716 0-3.057-1.235-3.218-3.006l-.308-4.017Z" fill="url(#aa)"/><path d="M10.86 10.17a29.916 29.916 0 0 1-.059-1.439c-.084-3.118 1.747-3.577 5.215-3.577 1.688 0 5.527 0 5.161 3.63-.013.129-.053 1.196-.09 1.442l-.266 3.962c-.16 1.771-1.555 3.006-3.217 3.006h-3.218c-1.716 0-3.057-1.235-3.218-3.006l-.308-4.017Z" fill="url(#ab)"/><path d="M10.86 10.17a29.916 29.916 0 0 1-.059-1.439c-.084-3.118 1.747-3.577 5.215-3.577 1.688 0 5.527 0 5.161 3.63-.013.129-.053 1.196-.09 1.442l-.266 3.962c-.16 1.771-1.555 3.006-3.217 3.006h-3.218c-1.716 0-3.057-1.235-3.218-3.006l-.308-4.017Z" fill="url(#ac)"/><path d="M10.86 10.17a29.916 29.916 0 0 1-.059-1.439c-.084-3.118 1.747-3.577 5.215-3.577 1.688 0 5.527 0 5.161 3.63-.013.129-.053 1.196-.09 1.442l-.266 3.962c-.16 1.771-1.555 3.006-3.217 3.006h-3.218c-1.716 0-3.057-1.235-3.218-3.006l-.308-4.017Z" fill="url(#ad)"/></g><path d="M10.86 10.17a29.916 29.916 0 0 1-.059-1.439c-.084-3.118 1.747-3.577 5.215-3.577 1.688 0 5.527 0 5.161 3.63-.013.129-.053 1.196-.09 1.442l-.266 3.962c-.16 1.771-1.555 3.006-3.217 3.006h-3.218c-1.716 0-3.057-1.235-3.218-3.006l-.308-4.017Z" fill="url(#ae)"/><path d="M10.86 10.17a29.916 29.916 0 0 1-.059-1.439c-.084-3.118 1.747-3.577 5.215-3.577 1.688 0 5.527 0 5.161 3.63-.013.129-.053 1.196-.09 1.442l-.266 3.962c-.16 1.771-1.555 3.006-3.217 3.006h-3.218c-1.716 0-3.057-1.235-3.218-3.006l-.308-4.017Z" fill="url(#af)"/><g filter="url(#ag)"><path d="m15.913 10.746-.82 1.701c-.102.35.142.7.488.7h.738c.346 0 .59-.356.488-.7l-.498-1.701c-.107-.377-.284-.377-.396 0Z" fill="#D9A398"/></g><g filter="url(#ah)"><path d="m15.856 10.602-.502 1.701c-.102.35.144.7.492.7h.744c.348 0 .594-.355.492-.7l-.503-1.701a.372.372 0 0 0-.723 0Z" fill="url(#ai)"/><path d="m15.856 10.602-.502 1.701c-.102.35.144.7.492.7h.744c.348 0 .594-.355.492-.7l-.503-1.701a.372.372 0 0 0-.723 0Z" fill="url(#aj)"/><path d="m15.856 10.602-.502 1.701c-.102.35.144.7.492.7h.744c.348 0 .594-.355.492-.7l-.503-1.701a.372.372 0 0 0-.723 0Z" fill="url(#ak)"/><path d="m15.856 10.602-.502 1.701c-.102.35.144.7.492.7h.744c.348 0 .594-.355.492-.7l-.503-1.701a.372.372 0 0 0-.723 0Z" fill="url(#al)"/></g><g filter="url(#am)"><path d="m15.856 10.602-.502 1.701c-.102.35.144.7.492.7h.744c.348 0 .594-.355.492-.7l-.503-1.701a.372.372 0 0 0-.723 0Z" fill="url(#an)"/></g><g filter="url(#ao)"><path d="M16.189 14.001c-.508 0-.985-.12-1.386-.329-.138-.07-.285.085-.199.21.336.507.92.846 1.585.846.665 0 1.25-.339 1.584-.847.087-.129-.06-.278-.198-.209-.4.21-.873.329-1.386.329Z" stroke="url(#ap)" stroke-width=".2"/></g><path d="M16.189 14.001c-.508 0-.985-.12-1.386-.329-.138-.07-.285.085-.199.21.336.507.92.846 1.585.846.665 0 1.25-.339 1.584-.847.087-.129-.06-.278-.198-.209-.4.21-.873.329-1.386.329Z" fill="#89024E"/><path d="M18.58 9.436c.653 0 1.205.45 1.355 1.06a.274.274 0 0 1-.268.34h-2.233a.23.23 0 0 1-.227-.271 1.399 1.399 0 0 1 1.372-1.129Z" fill="#fff"/><path d="M18.372 9.708a.893.893 0 0 1 .86 1.128h-1.725a.897.897 0 0 1 .865-1.128Z" fill="url(#aq)"/><path d="M17.86 10.601a.51.51 0 0 1 .512-.511.51.51 0 0 1 .455.746h-.905a.462.462 0 0 1-.061-.235Z" fill="#000"/><g filter="url(#ar)"><path d="M18.306 9.897c.064.085-.069.189-.22.302-.151.113-.264.192-.327.107-.064-.085.007-.246.158-.359.152-.113.326-.135.39-.05Z" fill="#C7A7A3"/><path d="M18.306 9.897c.064.085-.069.189-.22.302-.151.113-.264.192-.327.107-.064-.085.007-.246.158-.359.152-.113.326-.135.39-.05Z" fill="url(#as)"/></g><g filter="url(#at)"><path d="M19.168 10.483a.841.841 0 0 0-.232-.463l-.26.286.117.228.375-.05Z" fill="url(#au)"/></g><path d="M13.794 9.436c-.654 0-1.206.45-1.356 1.06a.274.274 0 0 0 .268.34h2.233a.23.23 0 0 0 .227-.271 1.402 1.402 0 0 0-1.372-1.129Z" fill="#fff"/><path d="M14 9.708a.893.893 0 0 0-.86 1.129h1.726a.915.915 0 0 0 .032-.236.9.9 0 0 0-.897-.893Z" fill="url(#av)"/><path d="M14.512 10.601a.51.51 0 0 0-.511-.511.51.51 0 0 0-.455.747h.905a.508.508 0 0 0 .061-.236Z" fill="#000"/><g filter="url(#aw)"><path d="M14.817 10.496c0-.288-.235-.48-.298-.539l-.289.28.178.36.409-.1Z" fill="url(#ax)"/></g><g filter="url(#ay)" transform="rotate(-27.914 13.731 10.09)"><ellipse cx="13.731" cy="10.089" rx=".39" ry=".197" fill="#C7A7A3" fill-opacity=".9"/><ellipse cx="13.731" cy="10.089" rx=".39" ry=".197" fill="url(#az)"/></g><g filter="url(#aA)"><path fill-rule="evenodd" clip-rule="evenodd" d="M17.97 8.526c.72-.067 1.183.214 1.295.317a.473.473 0 1 0 .64-.695c-.306-.283-1.032-.656-2.023-.564a.473.473 0 1 0 .088.942Z" fill="#2A1829"/></g><g filter="url(#aB)"><path fill-rule="evenodd" clip-rule="evenodd" d="M14.408 8.526c-.72-.067-1.183.214-1.295.317a.473.473 0 0 1-.64-.695c.306-.283 1.032-.656 2.023-.564a.473.473 0 1 1-.088.942Z" fill="#2A1829"/></g><g filter="url(#aC)"><path d="M16 6.8a12 12 0 0 1 7.3 2.46c-.79-3.3-3.76-5.76-7.3-5.76S9.49 5.96 8.7 9.26A12 12 0 0 1 16 6.8Z" fill="url(#aD)"/><path d="M16 6.8a12 12 0 0 1 7.3 2.46c-.79-3.3-3.76-5.76-7.3-5.76S9.49 5.96 8.7 9.26A12 12 0 0 1 16 6.8Z" fill="url(#aE)"/><path d="M16 6.8a12 12 0 0 1 7.3 2.46c-.79-3.3-3.76-5.76-7.3-5.76S9.49 5.96 8.7 9.26A12 12 0 0 1 16 6.8Z" fill="url(#aF)"/><path d="M16 6.8a12 12 0 0 1 7.3 2.46c-.79-3.3-3.76-5.76-7.3-5.76S9.49 5.96 8.7 9.26A12 12 0 0 1 16 6.8Z" fill="url(#aG)"/></g><path d="M18.02 15.66h2.97c.28 0 .5-.22.5-.5s-.22-.5-.5-.5h-2.97c-.28 0-.5.22-.5.5s.23.5.5.5Z" fill="url(#aH)"/><path d="M18.02 15.66h2.97c.28 0 .5-.22.5-.5s-.22-.5-.5-.5h-2.97c-.28 0-.5.22-.5.5s.23.5.5.5Z" fill="url(#aI)"/><path d="M18.02 15.66h2.97c.28 0 .5-.22.5-.5s-.22-.5-.5-.5h-2.97c-.28 0-.5.22-.5.5s.23.5.5.5Z" fill="url(#aJ)"/><g filter="url(#aK)"><rect x="18.047" y="14.943" width="2.844" height=".281" rx=".141" fill="url(#aL)"/></g><g filter="url(#aM)"><path d="M23.016 13.71h-.956c-.4-.01-.78.19-1 .53a6.041 6.041 0 0 1-3.92 2.67c-.44.08-.76.46-.76.91v.696a7.52 7.52 0 0 0 6.636-4.806Z" fill="#B9B2BF"/></g><defs><radialGradient id="c" cx="0" cy="0" r="1" gradientUnits="userSpaceOnUse" gradientTransform="matrix(0 5.67857 -3.21429 0 22.929 24.694)"><stop stop-color="#F7EFFF"/><stop offset="1" stop-color="#F7EFFF" stop-opacity="0"/></radialGradient><radialGradient id="d" cx="0" cy="0" r="1" gradientUnits="userSpaceOnUse" gradientTransform="matrix(-7.90626 2.7154 -1.39838 -4.07159 16.688 18.47)"><stop offset=".655" stop-color="#B096CB"/><stop offset="1" stop-color="#C2B2D7" stop-opacity="0"/></radialGradient><radialGradient id="f" cx="0" cy="0" r="1" gradientUnits="userSpaceOnUse" gradientTransform="matrix(4.375 0 0 11.8756 21.844 29.467)"><stop offset=".336" stop-color="#F6EDFF" stop-opacity="0"/><stop offset="1" stop-color="#FDFAFF"/></radialGradient><radialGradient id="i" cx="0" cy="0" r="1" gradientUnits="userSpaceOnUse" gradientTransform="matrix(0 8.53821 -7.17442 0 25 21.806)"><stop offset=".798" stop-color="#DED6EB" stop-opacity="0"/><stop offset="1" stop-color="#D8C5EC"/></radialGradient><radialGradient id="j" cx="0" cy="0" r="1" gradientUnits="userSpaceOnUse" gradientTransform="matrix(-4.26999 0 0 -10.4063 9.02 28.998)"><stop offset=".502" stop-color="#C4C1C5" stop-opacity="0"/><stop offset="1" stop-color="#C4C1C5"/></radialGradient><radialGradient id="l" cx="0" cy="0" r="1" gradientUnits="userSpaceOnUse" gradientTransform="matrix(0 -1.15625 3.70797 0 7.625 30.342)"><stop stop-color="#C9B5DE"/><stop offset="1" stop-color="#C9B5DE" stop-opacity="0"/></radialGradient><radialGradient id="r" cx="0" cy="0" r="1" gradientUnits="userSpaceOnUse" gradientTransform="rotate(53.881 -16.076 24.92) scale(2.14706)"><stop offset=".403" stop-color="#3D8EE2"/><stop offset="1" stop-color="#3E7CD9"/></radialGradient><radialGradient id="y" cx="0" cy="0" r="1" gradientUnits="userSpaceOnUse" gradientTransform="matrix(-1.9375 0 0 -4.97705 7.188 27.85)"><stop offset=".274" stop-color="#3776C0"/><stop offset="1" stop-color="#648CBC"/></radialGradient><radialGradient id="B" cx="0" cy="0" r="1" gradientUnits="userSpaceOnUse" gradientTransform="rotate(-169.849 7.12 8.488) scale(4.49245 1.66714)"><stop offset=".5" stop-color="#A59EAC"/><stop offset="1" stop-color="#B3B2B5" stop-opacity="0"/></radialGradient><radialGradient id="C" cx="0" cy="0" r="1" gradientUnits="userSpaceOnUse" gradientTransform="matrix(-5.61229 2.22988 -.54256 -1.36555 22.928 18.83)"><stop stop-color="#FFFEFF"/><stop offset="1" stop-color="#FFFEFF" stop-opacity="0"/></radialGradient><radialGradient id="D" cx="0" cy="0" r="1" gradientUnits="userSpaceOnUse" gradientTransform="matrix(0 4.09385 -11.9992 0 16 18.136)"><stop offset=".613" stop-color="#C9A7EF" stop-opacity="0"/><stop offset=".943" stop-color="#C9A7EF"/></radialGradient><radialGradient id="E" cx="0" cy="0" r="1" gradientUnits="userSpaceOnUse" gradientTransform="matrix(0 1.01366 -3.3941 0 16 19.276)"><stop stop-color="#D7D2DD"/><stop offset="1" stop-color="#D7D2DD" stop-opacity="0"/></radialGradient><radialGradient id="H" cx="0" cy="0" r="1" gradientUnits="userSpaceOnUse" gradientTransform="matrix(.61774 0 0 2.761 6.093 11.904)"><stop stop-color="#ADA9B1"/><stop offset="1" stop-color="#ADA9B1" stop-opacity="0"/></radialGradient><radialGradient id="J" cx="0" cy="0" r="1" gradientUnits="userSpaceOnUse" gradientTransform="matrix(.98754 0 0 2.55399 24.584 10.638)"><stop stop-color="#CDCAD1"/><stop offset="1" stop-color="#CDCAD1" stop-opacity="0"/></radialGradient><radialGradient id="K" cx="0" cy="0" r="1" gradientUnits="userSpaceOnUse" gradientTransform="matrix(0 2.9456 -.49377 0 25.622 10.247)"><stop stop-color="#DCDADE"/><stop offset="1" stop-color="#DCDADE" stop-opacity="0"/></radialGradient><radialGradient id="M" cx="0" cy="0" r="1" gradientUnits="userSpaceOnUse" gradientTransform="rotate(72.208 .425 16.438) scale(9.27527 14.5186)"><stop offset=".922" stop-color="#9F98A6" stop-opacity="0"/><stop offset="1" stop-color="#9F98A6"/></radialGradient><radialGradient id="N" cx="0" cy="0" r="1" gradientUnits="userSpaceOnUse" gradientTransform="matrix(-3.875 -3.5625 1.57331 -1.71133 11.844 19.092)"><stop stop-color="#A29CA9"/><stop offset="1" stop-color="#A29CA9" stop-opacity="0"/></radialGradient><radialGradient id="R" cx="0" cy="0" r="1" gradientUnits="userSpaceOnUse" gradientTransform="rotate(123.891 7.389 7.971) scale(12.2137)"><stop offset=".307" stop-color="#877F8D"/><stop offset="1" stop-color="#C8BEBF"/></radialGradient><radialGradient id="T" cx="0" cy="0" r="1" gradientUnits="userSpaceOnUse" gradientTransform="rotate(6.45 -87.936 138.738) scale(8.5401)"><stop offset=".902" stop-color="#362B3D" stop-opacity="0"/><stop offset="1" stop-color="#362B3D"/></radialGradient><radialGradient id="W" cx="0" cy="0" r="1" gradientUnits="userSpaceOnUse" gradientTransform="matrix(0 5.22753 -6.47036 0 17.607 11.966)"><stop offset=".454" stop-color="#F3C3B1"/><stop offset="1" stop-color="#C2948B"/></radialGradient><radialGradient id="X" cx="0" cy="0" r="1" gradientUnits="userSpaceOnUse" gradientTransform="matrix(-.95706 2.55148 -2.94064 -1.10303 15.434 14.642)"><stop stop-color="#DBA9A0"/><stop offset="1" stop-color="#C89485" stop-opacity="0"/><stop offset="1" stop-color="#DBA9A0" stop-opacity="0"/></radialGradient><radialGradient id="Y" cx="0" cy="0" r="1" gradientUnits="userSpaceOnUse" gradientTransform="matrix(8.17162 0 0 15.9531 13.65 11.688)"><stop offset=".826" stop-color="#BC9684" stop-opacity="0"/><stop offset=".966" stop-color="#7E584B"/></radialGradient><radialGradient id="Z" cx="0" cy="0" r="1" gradientUnits="userSpaceOnUse" gradientTransform="matrix(0 -9.69576 11.8174 0 16 16.806)"><stop offset=".662" stop-color="#9F706B" stop-opacity="0"/><stop offset="1" stop-color="#9F706B"/></radialGradient><radialGradient id="aa" cx="0" cy="0" r="1" gradientUnits="userSpaceOnUse" gradientTransform="matrix(0 -8.98231 7.85061 0 16 15.636)"><stop offset=".862" stop-color="#92625A" stop-opacity="0"/><stop offset="1" stop-color="#7D4F43"/></radialGradient><radialGradient id="ab" cx="0" cy="0" r="1" gradientUnits="userSpaceOnUse" gradientTransform="matrix(0 .94791 -1.48056 0 13.578 11.08)"><stop offset=".223" stop-color="#D4A693"/><stop offset="1" stop-color="#D4A693" stop-opacity="0"/></radialGradient><radialGradient id="ac" cx="0" cy="0" r="1" gradientUnits="userSpaceOnUse" gradientTransform="matrix(0 1.49191 -1.73964 0 18.623 10.252)"><stop offset=".06" stop-color="#D4A693"/><stop offset=".863" stop-color="#C5957A" stop-opacity="0"/></radialGradient><radialGradient id="ad" cx="0" cy="0" r="1" gradientUnits="userSpaceOnUse" gradientTransform="matrix(2.05736 0 0 .84423 19.464 15.465)"><stop stop-color="#A27D69"/><stop offset="1" stop-color="#A27D69" stop-opacity="0"/></radialGradient><radialGradient id="ae" cx="0" cy="0" r="1" gradientUnits="userSpaceOnUse" gradientTransform="matrix(0 9.18388 -13.0257 0 16 8.958)"><stop offset=".736" stop-color="#D4A397" stop-opacity="0"/><stop offset=".917" stop-color="#694536"/></radialGradient><radialGradient id="af" cx="0" cy="0" r="1" gradientUnits="userSpaceOnUse" gradientTransform="matrix(-2.29689 0 0 -.99616 19.536 16.218)"><stop offset=".153" stop-color="#6B4433"/><stop offset="1" stop-color="#8F6454" stop-opacity="0"/></radialGradient><radialGradient id="aj" cx="0" cy="0" r="1" gradientUnits="userSpaceOnUse" gradientTransform="matrix(-.73852 0 0 -.32192 16.663 12.387)"><stop offset=".153" stop-color="#F6C8B6"/><stop offset="1" stop-color="#F6C8B6" stop-opacity="0"/></radialGradient><radialGradient id="ak" cx="0" cy="0" r="1" gradientUnits="userSpaceOnUse" gradientTransform="rotate(81.909 2.119 14.746) scale(2.36111 .25765)"><stop offset=".153" stop-color="#F6C8B6"/><stop offset="1" stop-color="#F6C8B6" stop-opacity="0"/></radialGradient><radialGradient id="aq" cx="0" cy="0" r="1" gradientUnits="userSpaceOnUse" gradientTransform="matrix(0 .90401 -1.06968 0 18.37 10.52)"><stop offset=".75" stop-color="#6D4942"/><stop offset="1" stop-color="#634239"/></radialGradient><radialGradient id="as" cx="0" cy="0" r="1" gradientUnits="userSpaceOnUse" gradientTransform="rotate(-127.812 11.586 .692) scale(.37856 .52118)"><stop offset=".766" stop-color="#FFE6E2" stop-opacity="0"/><stop offset=".966" stop-color="#FFE6E2"/></radialGradient><radialGradient id="av" cx="0" cy="0" r="1" gradientUnits="userSpaceOnUse" gradientTransform="matrix(0 .90406 -1.06973 0 14.003 10.52)"><stop offset=".75" stop-color="#6D4942"/><stop offset="1" stop-color="#634239"/></radialGradient><radialGradient id="az" cx="0" cy="0" r="1" gradientUnits="userSpaceOnUse" gradientTransform="rotate(-90.897 11.98 -1.55) scale(.4945 .5944)"><stop offset=".766" stop-color="#FFE6E2" stop-opacity="0"/><stop offset=".966" stop-color="#FFE6E2"/></radialGradient><radialGradient id="aD" cx="0" cy="0" r="1" gradientUnits="userSpaceOnUse" gradientTransform="matrix(0 4.50166 -9.15821 0 16 3.5)"><stop offset=".09" stop-color="#848286"/><stop offset="1" stop-color="#655D6D"/></radialGradient><radialGradient id="aE" cx="0" cy="0" r="1" gradientUnits="userSpaceOnUse" gradientTransform="matrix(1.03125 -2.42187 2.377 1.01214 9.328 9.045)"><stop stop-color="#6C6176"/><stop offset="1" stop-color="#6C6176" stop-opacity="0"/></radialGradient><radialGradient id="aF" cx="0" cy="0" r="1" gradientUnits="userSpaceOnUse" gradientTransform="rotate(-147.95 12.02 3.515) scale(12.72 10.6468)"><stop offset=".911" stop-color="#493B54" stop-opacity="0"/><stop offset="1" stop-color="#493B54"/></radialGradient><radialGradient id="aH" cx="0" cy="0" r="1" gradientUnits="userSpaceOnUse" gradientTransform="matrix(3.07812 0 0 1.2594 18.172 15.16)"><stop stop-color="#736A6C"/><stop offset=".78" stop-color="#463D38"/></radialGradient><linearGradient id="a" x1="10.179" y1="30.516" x2="21.429" y2="30.516" gradientUnits="userSpaceOnUse"><stop offset=".006" stop-color="#DBCFEA"/><stop offset="1" stop-color="#E7D8F7"/></linearGradient><linearGradient id="b" x1="8.688" y1="26.123" x2="10.844" y2="26.154" gradientUnits="userSpaceOnUse"><stop stop-color="#BAA7D0"/><stop offset=".231" stop-color="#D3CADE"/><stop offset="1" stop-color="#D3CADE" stop-opacity="0"/></linearGradient><linearGradient id="e" x1="16.594" y1="30.529" x2="16.594" y2="29.623" gradientUnits="userSpaceOnUse"><stop stop-color="#C9B4E0"/><stop offset="1" stop-color="#C9B4E0" stop-opacity="0"/></linearGradient><linearGradient id="g" x1="22.797" y1="26.607" x2="23.438" y2="26.592" gradientUnits="userSpaceOnUse"><stop offset=".127" stop-color="#C8B9DA"/><stop offset="1" stop-color="#C8B9DA" stop-opacity="0"/></linearGradient><linearGradient id="h" x1="27" y1="29.99" x2="26.281" y2="29.99" gradientUnits="userSpaceOnUse"><stop stop-color="#E8E4EF"/><stop offset="1" stop-color="#E8E4EF" stop-opacity="0"/></linearGradient><linearGradient id="k" x1="9.07" y1="29.99" x2="8.695" y2="29.99" gradientUnits="userSpaceOnUse"><stop stop-color="#BBB7C0"/><stop offset="1" stop-color="#C1B1D5" stop-opacity="0"/></linearGradient><linearGradient id="n" x1="20.5" y1="29.685" x2="11.49" y2="29.685" gradientUnits="userSpaceOnUse"><stop stop-color="#CDC0DA"/><stop offset="1" stop-color="#BEB1CC"/></linearGradient><linearGradient id="t" x1="17.344" y1="24.764" x2="18.766" y2="23.357" gradientUnits="userSpaceOnUse"><stop stop-color="#EE3880"/><stop offset="1" stop-color="#F13C6A"/></linearGradient><linearGradient id="v" x1="18.875" y1="23.271" x2="17.383" y2="24.693" gradientUnits="userSpaceOnUse"><stop stop-color="#FB4F70"/><stop offset=".531" stop-color="#F34B6C" stop-opacity="0"/></linearGradient><linearGradient id="x" x1="14.875" y1="23.271" x2="13.383" y2="24.693" gradientUnits="userSpaceOnUse"><stop stop-color="#4D90DF"/><stop offset=".531" stop-color="#4D90DF" stop-opacity="0"/></linearGradient><linearGradient id="A" x1="21.612" y1="19.604" x2="8.017" y2="19.604" gradientUnits="userSpaceOnUse"><stop stop-color="#F0E4FC"/><stop offset="1" stop-color="#D8D0E0"/></linearGradient><linearGradient id="F" x1="8.296" y1="8.928" x2="8.296" y2="12.498" gradientUnits="userSpaceOnUse"><stop stop-color="#919092"/><stop offset="1" stop-color="#938B9C"/></linearGradient><linearGradient id="G" x1="7.125" y1="13.912" x2="7.125" y2="13.185" gradientUnits="userSpaceOnUse"><stop stop-color="#88828E"/><stop offset="1" stop-color="#88828E" stop-opacity="0"/></linearGradient><linearGradient id="I" x1="25.191" y1="8.928" x2="25.191" y2="14.062" gradientUnits="userSpaceOnUse"><stop stop-color="#C0BFC0"/><stop offset=".743" stop-color="#AFA9B7"/><stop offset="1" stop-color="#8E8895"/></linearGradient><linearGradient id="L" x1="23.938" y1="6.435" x2="8.094" y2="15.717" gradientUnits="userSpaceOnUse"><stop stop-color="#D4D0D7"/><stop offset="1" stop-color="#A6A2AB"/></linearGradient><linearGradient id="P" x1="23.726" y1="6.557" x2="8.302" y2="15.592" gradientUnits="userSpaceOnUse"><stop stop-color="#BAB4C1"/><stop offset="1" stop-color="#BDB7C4"/></linearGradient><linearGradient id="S" x1="9.875" y1="12.154" x2="23.344" y2="12.154" gradientUnits="userSpaceOnUse"><stop stop-color="#4E4257"/><stop offset=".276" stop-color="#332640"/></linearGradient><linearGradient id="ai" x1="15.652" y1="12.383" x2="16.907" y2="12.383" gradientUnits="userSpaceOnUse"><stop stop-color="#E4B49F"/><stop offset="1" stop-color="#F1BFAD"/></linearGradient><linearGradient id="al" x1="16.516" y1="13.057" x2="16.516" y2="12.385" gradientUnits="userSpaceOnUse"><stop offset=".233" stop-color="#DFAA9D"/><stop offset="1" stop-color="#DFAA9D" stop-opacity="0"/></linearGradient><linearGradient id="an" x1="16.218" y1="10.319" x2="16.218" y2="11.337" gradientUnits="userSpaceOnUse"><stop offset=".217" stop-color="#F2C2B1"/><stop offset="1" stop-color="#F2C2B1" stop-opacity="0"/></linearGradient><linearGradient id="ap" x1="15.478" y1="14.664" x2="15.904" y2="13.825" gradientUnits="userSpaceOnUse"><stop stop-color="#D5A8A2"/><stop offset="1" stop-color="#D5A8A2" stop-opacity="0"/></linearGradient><linearGradient id="au" x1="19.149" y1="10.239" x2="18.835" y2="10.433" gradientUnits="userSpaceOnUse"><stop stop-color="#B4948D"/><stop offset="1" stop-color="#B4948D" stop-opacity="0"/></linearGradient><linearGradient id="ax" x1="14.747" y1="10.239" x2="14.433" y2="10.433" gradientUnits="userSpaceOnUse"><stop stop-color="#B4948D"/><stop offset="1" stop-color="#B4948D" stop-opacity="0"/></linearGradient><linearGradient id="aG" x1="23.3" y1="9.404" x2="21.625" y2="7.342" gradientUnits="userSpaceOnUse"><stop stop-color="#726080"/><stop offset="1" stop-color="#726080" stop-opacity="0"/></linearGradient><linearGradient id="aI" x1="17.586" y1="15.201" x2="17.961" y2="15.201" gradientUnits="userSpaceOnUse"><stop stop-color="#645F67"/><stop offset="1" stop-color="#645F67" stop-opacity="0"/></linearGradient><linearGradient id="aJ" x1="19.234" y1="15.764" x2="19.234" y2="15.568" gradientUnits="userSpaceOnUse"><stop stop-color="#3D3438"/><stop offset="1" stop-color="#3D3438" stop-opacity="0"/></linearGradient><linearGradient id="aL" x1="18.216" y1="15.225" x2="20.402" y2="15.225" gradientUnits="userSpaceOnUse"><stop stop-color="#797278"/><stop offset="1" stop-color="#5C595D"/></linearGradient><filter id="m" x="11.34" y="25.98" width="9.31" height="4.17" filterUnits="userSpaceOnUse" color-interpolation-filters="sRGB"><feFlood flood-opacity="0" result="BackgroundImageFix"/><feBlend in="SourceGraphic" in2="BackgroundImageFix" result="shape"/><feColorMatrix in="SourceAlpha" values="0 0 0 0 0 0 0 0 0 0 0 0 0 0 0 0 0 0 127 0" result="hardAlpha"/><feOffset dx="-.15" dy=".15"/><feGaussianBlur stdDeviation=".125"/><feComposite in2="hardAlpha" operator="arithmetic" k2="-1" k3="1"/><feColorMatrix values="0 0 0 0 0.843137 0 0 0 0 0.811765 0 0 0 0 0.87451 0 0 0 1 0"/><feBlend in2="shape" result="effect1_innerShadow_4002_2545"/><feColorMatrix in="SourceAlpha" values="0 0 0 0 0 0 0 0 0 0 0 0 0 0 0 0 0 0 127 0" result="hardAlpha"/><feOffset dx=".15" dy=".15"/><feGaussianBlur stdDeviation=".2"/><feComposite in2="hardAlpha" operator="arithmetic" k2="-1" k3="1"/><feColorMatrix values="0 0 0 0 0.686275 0 0 0 0 0.635294 0 0 0 0 0.733333 0 0 0 1 0"/><feBlend in2="effect1_innerShadow_4002_2545" result="effect2_innerShadow_4002_2545"/></filter><filter id="o" x="12.255" y="22.615" width="3.12" height="3.12" filterUnits="userSpaceOnUse" color-interpolation-filters="sRGB"><feFlood flood-opacity="0" result="BackgroundImageFix"/><feBlend in="SourceGraphic" in2="BackgroundImageFix" result="shape"/><feGaussianBlur stdDeviation=".25" result="effect1_foregroundBlur_4002_2545"/></filter><filter id="p" x="16.325" y="22.615" width="3.12" height="3.12" filterUnits="userSpaceOnUse" color-interpolation-filters="sRGB"><feFlood flood-opacity="0" result="BackgroundImageFix"/><feBlend in="SourceGraphic" in2="BackgroundImageFix" result="shape"/><feGaussianBlur stdDeviation=".25" result="effect1_foregroundBlur_4002_2545"/></filter><filter id="q" x="12.94" y="22.93" width="2.12" height="2.12" filterUnits="userSpaceOnUse" color-interpolation-filters="sRGB"><feFlood flood-opacity="0" result="BackgroundImageFix"/><feBlend in="SourceGraphic" in2="BackgroundImageFix" result="shape"/><feColorMatrix in="SourceAlpha" values="0 0 0 0 0 0 0 0 0 0 0 0 0 0 0 0 0 0 127 0" result="hardAlpha"/><feOffset/><feGaussianBlur stdDeviation=".125"/><feComposite in2="hardAlpha" operator="arithmetic" k2="-1" k3="1"/><feColorMatrix values="0 0 0 0 0.294118 0 0 0 0 0.498039 0 0 0 0 0.847059 0 0 0 1 0"/><feBlend in2="shape" result="effect1_innerShadow_4002_2545"/></filter><filter id="s" x="16.94" y="22.93" width="2.12" height="2.12" filterUnits="userSpaceOnUse" color-interpolation-filters="sRGB"><feFlood flood-opacity="0" result="BackgroundImageFix"/><feBlend in="SourceGraphic" in2="BackgroundImageFix" result="shape"/><feColorMatrix in="SourceAlpha" values="0 0 0 0 0 0 0 0 0 0 0 0 0 0 0 0 0 0 127 0" result="hardAlpha"/><feOffset/><feGaussianBlur stdDeviation=".125"/><feComposite in2="hardAlpha" operator="arithmetic" k2="-1" k3="1"/><feColorMatrix values="0 0 0 0 0.882353 0 0 0 0 0.180392 0 0 0 0 0.380392 0 0 0 1 0"/><feBlend in2="shape" result="effect1_innerShadow_4002_2545"/></filter><filter id="u" x="16.975" y="22.965" width="2.05" height="2.05" filterUnits="userSpaceOnUse" color-interpolation-filters="sRGB"><feFlood flood-opacity="0" result="BackgroundImageFix"/><feBlend in="SourceGraphic" in2="BackgroundImageFix" result="shape"/><feGaussianBlur stdDeviation=".05" result="effect1_foregroundBlur_4002_2545"/></filter><filter id="w" x="12.975" y="22.965" width="2.05" height="2.05" filterUnits="userSpaceOnUse" color-interpolation-filters="sRGB"><feFlood flood-opacity="0" result="BackgroundImageFix"/><feBlend in="SourceGraphic" in2="BackgroundImageFix" result="shape"/><feGaussianBlur stdDeviation=".05" result="effect1_foregroundBlur_4002_2545"/></filter><filter id="z" x="8.82" y="15.548" width="14.359" height="6.364" filterUnits="userSpaceOnUse" color-interpolation-filters="sRGB"><feFlood flood-opacity="0" result="BackgroundImageFix"/><feBlend in="SourceGraphic" in2="BackgroundImageFix" result="shape"/><feColorMatrix in="SourceAlpha" values="0 0 0 0 0 0 0 0 0 0 0 0 0 0 0 0 0 0 127 0" result="hardAlpha"/><feOffset dy="-.2"/><feGaussianBlur stdDeviation=".5"/><feComposite in2="hardAlpha" operator="arithmetic" k2="-1" k3="1"/><feColorMatrix values="0 0 0 0 0.933333 0 0 0 0 0.87451 0 0 0 0 0.996078 0 0 0 1 0"/><feBlend in2="shape" result="effect1_innerShadow_4002_2545"/></filter><filter id="O" x="6.926" y="1.989" width="18.043" height="18.043" filterUnits="userSpaceOnUse" color-interpolation-filters="sRGB"><feFlood flood-opacity="0" result="BackgroundImageFix"/><feBlend in="SourceGraphic" in2="BackgroundImageFix" result="shape"/><feGaussianBlur stdDeviation=".125" result="effect1_foregroundBlur_4002_2545"/></filter><filter id="Q" x="7.869" y="2.932" width="16.155" height="16.155" filterUnits="userSpaceOnUse" color-interpolation-filters="sRGB"><feFlood flood-opacity="0" result="BackgroundImageFix"/><feBlend in="SourceGraphic" in2="BackgroundImageFix" result="shape"/><feGaussianBlur stdDeviation=".15" result="effect1_foregroundBlur_4002_2545"/></filter><filter id="U" x="9.073" y="2.863" width="14.583" height="16.385" filterUnits="userSpaceOnUse" color-interpolation-filters="sRGB"><feFlood flood-opacity="0" result="BackgroundImageFix"/><feBlend in="SourceGraphic" in2="BackgroundImageFix" result="shape"/><feGaussianBlur stdDeviation=".75" result="effect1_foregroundBlur_4002_2545"/></filter><filter id="V" x="10.798" y="5.154" width="10.403" height="12.039" filterUnits="userSpaceOnUse" color-interpolation-filters="sRGB"><feFlood flood-opacity="0" result="BackgroundImageFix"/><feBlend in="SourceGraphic" in2="BackgroundImageFix" result="shape"/><feColorMatrix in="SourceAlpha" values="0 0 0 0 0 0 0 0 0 0 0 0 0 0 0 0 0 0 127 0" result="hardAlpha"/><feOffset/><feGaussianBlur stdDeviation="1"/><feComposite in2="hardAlpha" operator="arithmetic" k2="-1" k3="1"/><feColorMatrix values="0 0 0 0 0.486275 0 0 0 0 0.333333 0 0 0 0 0.27451 0 0 0 1 0"/><feBlend in2="shape" result="effect1_innerShadow_4002_2545"/></filter><filter id="ag" x="14.569" y="9.963" width="2.762" height="3.684" filterUnits="userSpaceOnUse" color-interpolation-filters="sRGB"><feFlood flood-opacity="0" result="BackgroundImageFix"/><feBlend in="SourceGraphic" in2="BackgroundImageFix" result="shape"/><feGaussianBlur stdDeviation=".25" result="effect1_foregroundBlur_4002_2545"/></filter><filter id="ah" x="15.081" y="10.069" width="2.275" height="3.184" filterUnits="userSpaceOnUse" color-interpolation-filters="sRGB"><feFlood flood-opacity="0" result="BackgroundImageFix"/><feBlend in="SourceGraphic" in2="BackgroundImageFix" result="shape"/><feColorMatrix in="SourceAlpha" values="0 0 0 0 0 0 0 0 0 0 0 0 0 0 0 0 0 0 127 0" result="hardAlpha"/><feOffset dx=".1" dy="-.1"/><feGaussianBlur stdDeviation=".125"/><feComposite in2="hardAlpha" operator="arithmetic" k2="-1" k3="1"/><feColorMatrix values="0 0 0 0 0.847059 0 0 0 0 0.643137 0 0 0 0 0.572549 0 0 0 1 0"/><feBlend in2="shape" result="effect1_innerShadow_4002_2545"/><feGaussianBlur stdDeviation=".125" result="effect2_foregroundBlur_4002_2545"/></filter><filter id="am" x="15.081" y="10.069" width="2.275" height="3.184" filterUnits="userSpaceOnUse" color-interpolation-filters="sRGB"><feFlood flood-opacity="0" result="BackgroundImageFix"/><feBlend in="SourceGraphic" in2="BackgroundImageFix" result="shape"/><feGaussianBlur stdDeviation=".125" result="effect1_foregroundBlur_4002_2545"/></filter><filter id="ao" x="14.379" y="13.454" width="3.621" height="1.474" filterUnits="userSpaceOnUse" color-interpolation-filters="sRGB"><feFlood flood-opacity="0" result="BackgroundImageFix"/><feBlend in="SourceGraphic" in2="BackgroundImageFix" result="shape"/><feGaussianBlur stdDeviation=".05" result="effect1_foregroundBlur_4002_2545"/></filter><filter id="ar" x="17.635" y="9.745" width=".787" height=".697" filterUnits="userSpaceOnUse" color-interpolation-filters="sRGB"><feFlood flood-opacity="0" result="BackgroundImageFix"/><feBlend in="SourceGraphic" in2="BackgroundImageFix" result="shape"/><feGaussianBlur stdDeviation=".05" result="effect1_foregroundBlur_4002_2545"/></filter><filter id="at" x="18.476" y="9.821" width=".892" height=".914" filterUnits="userSpaceOnUse" color-interpolation-filters="sRGB"><feFlood flood-opacity="0" result="BackgroundImageFix"/><feBlend in="SourceGraphic" in2="BackgroundImageFix" result="shape"/><feGaussianBlur stdDeviation=".1" result="effect1_foregroundBlur_4002_2545"/></filter><filter id="aw" x="14.03" y="9.757" width=".987" height="1.041" filterUnits="userSpaceOnUse" color-interpolation-filters="sRGB"><feFlood flood-opacity="0" result="BackgroundImageFix"/><feBlend in="SourceGraphic" in2="BackgroundImageFix" result="shape"/><feGaussianBlur stdDeviation=".1" result="effect1_foregroundBlur_4002_2545"/></filter><filter id="ay" x="13.275" y="9.737" width=".914" height=".705" filterUnits="userSpaceOnUse" color-interpolation-filters="sRGB"><feFlood flood-opacity="0" result="BackgroundImageFix"/><feBlend in="SourceGraphic" in2="BackgroundImageFix" result="shape"/><feGaussianBlur stdDeviation=".05" result="effect1_foregroundBlur_4002_2545"/></filter><filter id="aA" x="17.454" y="7.57" width="2.604" height="1.648" filterUnits="userSpaceOnUse" color-interpolation-filters="sRGB"><feFlood flood-opacity="0" result="BackgroundImageFix"/><feBlend in="SourceGraphic" in2="BackgroundImageFix" result="shape"/><feColorMatrix in="SourceAlpha" values="0 0 0 0 0 0 0 0 0 0 0 0 0 0 0 0 0 0 127 0" result="hardAlpha"/><feOffset dy=".25"/><feGaussianBlur stdDeviation=".125"/><feComposite in2="hardAlpha" operator="arithmetic" k2="-1" k3="1"/><feColorMatrix values="0 0 0 0 0.0627451 0 0 0 0 0.0313726 0 0 0 0 0.0392157 0 0 0 1 0"/><feBlend in2="shape" result="effect1_innerShadow_4002_2545"/></filter><filter id="aB" x="12.32" y="7.57" width="2.604" height="1.648" filterUnits="userSpaceOnUse" color-interpolation-filters="sRGB"><feFlood flood-opacity="0" result="BackgroundImageFix"/><feBlend in="SourceGraphic" in2="BackgroundImageFix" result="shape"/><feColorMatrix in="SourceAlpha" values="0 0 0 0 0 0 0 0 0 0 0 0 0 0 0 0 0 0 127 0" result="hardAlpha"/><feOffset dy=".25"/><feGaussianBlur stdDeviation=".125"/><feComposite in2="hardAlpha" operator="arithmetic" k2="-1" k3="1"/><feColorMatrix values="0 0 0 0 0.0627451 0 0 0 0 0.0313726 0 0 0 0 0.0392157 0 0 0 1 0"/><feBlend in2="shape" result="effect1_innerShadow_4002_2545"/></filter><filter id="aC" x="8.7" y="3.45" width="14.6" height="5.86" filterUnits="userSpaceOnUse" color-interpolation-filters="sRGB"><feFlood flood-opacity="0" result="BackgroundImageFix"/><feBlend in="SourceGraphic" in2="BackgroundImageFix" result="shape"/><feColorMatrix in="SourceAlpha" values="0 0 0 0 0 0 0 0 0 0 0 0 0 0 0 0 0 0 127 0" result="hardAlpha"/><feOffset dy="-.05"/><feGaussianBlur stdDeviation=".05"/><feComposite in2="hardAlpha" operator="arithmetic" k2="-1" k3="1"/><feColorMatrix values="0 0 0 0 0.286275 0 0 0 0 0.215686 0 0 0 0 0.329412 0 0 0 1 0"/><feBlend in2="shape" result="effect1_innerShadow_4002_2545"/><feColorMatrix in="SourceAlpha" values="0 0 0 0 0 0 0 0 0 0 0 0 0 0 0 0 0 0 127 0" result="hardAlpha"/><feOffset dy=".05"/><feGaussianBlur stdDeviation=".05"/><feComposite in2="hardAlpha" operator="arithmetic" k2="-1" k3="1"/><feColorMatrix values="0 0 0 0 0.247059 0 0 0 0 0.219608 0 0 0 0 0.27451 0 0 0 1 0"/><feBlend in2="effect1_innerShadow_4002_2545" result="effect2_innerShadow_4002_2545"/></filter><filter id="aK" x="17.797" y="14.693" width="3.344" height=".781" filterUnits="userSpaceOnUse" color-interpolation-filters="sRGB"><feFlood flood-opacity="0" result="BackgroundImageFix"/><feBlend in="SourceGraphic" in2="BackgroundImageFix" result="shape"/><feGaussianBlur stdDeviation=".125" result="effect1_foregroundBlur_4002_2545"/></filter><filter id="aM" x="16.38" y="13.71" width="6.686" height="4.857" filterUnits="userSpaceOnUse" color-interpolation-filters="sRGB"><feFlood flood-opacity="0" result="BackgroundImageFix"/><feBlend in="SourceGraphic" in2="BackgroundImageFix" result="shape"/><feColorMatrix in="SourceAlpha" values="0 0 0 0 0 0 0 0 0 0 0 0 0 0 0 0 0 0 127 0" result="hardAlpha"/><feOffset dx=".05" dy=".05"/><feGaussianBlur stdDeviation=".2"/><feComposite in2="hardAlpha" operator="arithmetic" k2="-1" k3="1"/><feColorMatrix values="0 0 0 0 0.533333 0 0 0 0 0.486275 0 0 0 0 0.498039 0 0 0 1 0"/><feBlend in2="shape" result="effect1_innerShadow_4002_2545"/></filter></defs></svg>