<svg width="32" height="32" fill="none" xmlns="http://www.w3.org/2000/svg"><g filter="url(#a)"><circle cx="7.092" cy="18.092" r="3.113" fill="url(#b)"/></g><g filter="url(#c)"><circle cx="7.092" cy="18.092" r="1.855" fill="url(#d)"/></g><g filter="url(#e)"><circle cx="24.833" cy="18.092" r="3.113" fill="url(#f)"/><circle cx="24.833" cy="18.092" r="3.113" fill="url(#g)"/></g><g filter="url(#h)"><circle cx="24.833" cy="18.092" r="1.855" fill="#E4AF9A"/><circle cx="24.833" cy="18.092" r="1.855" fill="url(#i)"/><circle cx="24.833" cy="18.092" r="1.855" fill="url(#j)"/></g><g filter="url(#k)"><path d="m6.436 16.95.091.002s-.1-1.591-.2-2.685c0-.497.2-1.094.6-1.393l.3-.298c.5-.398.7-.995.7-1.591V9.393c0-.497.301-.895.801-.994 1.2-.299 3.701-.796 7.302-.796 3.601 0 6.102.497 7.302.796.4.1.8.497.8.994v1.592c0 .596.3 1.193.7 1.591.937.656.879 1.017.801 1.79-.1.995-.2 2.686-.2 2.686h.034l-.496 7.381c-.3 3.3-2.894 5.6-5.987 5.6h-5.987c-3.193 0-5.687-2.3-5.987-5.6l-.574-7.484Z" fill="url(#l)"/><path d="m6.436 16.95.091.002s-.1-1.591-.2-2.685c0-.497.2-1.094.6-1.393l.3-.298c.5-.398.7-.995.7-1.591V9.393c0-.497.301-.895.801-.994 1.2-.299 3.701-.796 7.302-.796 3.601 0 6.102.497 7.302.796.4.1.8.497.8.994v1.592c0 .596.3 1.193.7 1.591.937.656.879 1.017.801 1.79-.1.995-.2 2.686-.2 2.686h.034l-.496 7.381c-.3 3.3-2.894 5.6-5.987 5.6h-5.987c-3.193 0-5.687-2.3-5.987-5.6l-.574-7.484Z" fill="url(#m)"/><path d="m6.436 16.95.091.002s-.1-1.591-.2-2.685c0-.497.2-1.094.6-1.393l.3-.298c.5-.398.7-.995.7-1.591V9.393c0-.497.301-.895.801-.994 1.2-.299 3.701-.796 7.302-.796 3.601 0 6.102.497 7.302.796.4.1.8.497.8.994v1.592c0 .596.3 1.193.7 1.591.937.656.879 1.017.801 1.79-.1.995-.2 2.686-.2 2.686h.034l-.496 7.381c-.3 3.3-2.894 5.6-5.987 5.6h-5.987c-3.193 0-5.687-2.3-5.987-5.6l-.574-7.484Z" fill="url(#n)"/><path d="m6.436 16.95.091.002s-.1-1.591-.2-2.685c0-.497.2-1.094.6-1.393l.3-.298c.5-.398.7-.995.7-1.591V9.393c0-.497.301-.895.801-.994 1.2-.299 3.701-.796 7.302-.796 3.601 0 6.102.497 7.302.796.4.1.8.497.8.994v1.592c0 .596.3 1.193.7 1.591.937.656.879 1.017.801 1.79-.1.995-.2 2.686-.2 2.686h.034l-.496 7.381c-.3 3.3-2.894 5.6-5.987 5.6h-5.987c-3.193 0-5.687-2.3-5.987-5.6l-.574-7.484Z" fill="url(#o)"/><path d="m6.436 16.95.091.002s-.1-1.591-.2-2.685c0-.497.2-1.094.6-1.393l.3-.298c.5-.398.7-.995.7-1.591V9.393c0-.497.301-.895.801-.994 1.2-.299 3.701-.796 7.302-.796 3.601 0 6.102.497 7.302.796.4.1.8.497.8.994v1.592c0 .596.3 1.193.7 1.591.937.656.879 1.017.801 1.79-.1.995-.2 2.686-.2 2.686h.034l-.496 7.381c-.3 3.3-2.894 5.6-5.987 5.6h-5.987c-3.193 0-5.687-2.3-5.987-5.6l-.574-7.484Z" fill="url(#p)"/><path d="m6.436 16.95.091.002s-.1-1.591-.2-2.685c0-.497.2-1.094.6-1.393l.3-.298c.5-.398.7-.995.7-1.591V9.393c0-.497.301-.895.801-.994 1.2-.299 3.701-.796 7.302-.796 3.601 0 6.102.497 7.302.796.4.1.8.497.8.994v1.592c0 .596.3 1.193.7 1.591.937.656.879 1.017.801 1.79-.1.995-.2 2.686-.2 2.686h.034l-.496 7.381c-.3 3.3-2.894 5.6-5.987 5.6h-5.987c-3.193 0-5.687-2.3-5.987-5.6l-.574-7.484Z" fill="url(#q)"/></g><g filter="url(#r)"><path d="m24.933 6.012.8.398c1.4.696 2.2 2.287 1.9 3.978l-1.1 5.67c-.098.585-.485.979-1.066.993h-.034s.1-1.69.2-2.685c.081-.807-.06-1.054-.8-1.79-.4-.398-.7-.995-.7-1.591V9.393c0-.497-.4-.895-.8-.994-1.201-.299-3.702-.796-7.303-.796-3.6 0-6.102.497-7.302.796-.5.1-.8.497-.8.994v1.592c0 .596-.2 1.193-.7 1.591l-.3.298c-.4.299-.6.896-.6 1.393.1 1.094.2 2.685.2 2.685a1.181 1.181 0 0 1-1.2-.995L4.226 10.29c-.2-1.592.6-3.183 2-3.88l.8-.397c.5-.299 1-.696 1.501-1.094l1.8-1.89c1.1-.995 2.701-1.293 4.102-.597 1 .299 2.1.299 3.1 0 1.501-.497 3.202-.1 4.402.995l1.5 1.492c.4.497.9.795 1.5 1.094Z" fill="#EBCC94"/><path d="m24.933 6.012.8.398c1.4.696 2.2 2.287 1.9 3.978l-1.1 5.67c-.098.585-.485.979-1.066.993h-.034s.1-1.69.2-2.685c.081-.807-.06-1.054-.8-1.79-.4-.398-.7-.995-.7-1.591V9.393c0-.497-.4-.895-.8-.994-1.201-.299-3.702-.796-7.303-.796-3.6 0-6.102.497-7.302.796-.5.1-.8.497-.8.994v1.592c0 .596-.2 1.193-.7 1.591l-.3.298c-.4.299-.6.896-.6 1.393.1 1.094.2 2.685.2 2.685a1.181 1.181 0 0 1-1.2-.995L4.226 10.29c-.2-1.592.6-3.183 2-3.88l.8-.397c.5-.299 1-.696 1.501-1.094l1.8-1.89c1.1-.995 2.701-1.293 4.102-.597 1 .299 2.1.299 3.1 0 1.501-.497 3.202-.1 4.402.995l1.5 1.492c.4.497.9.795 1.5 1.094Z" fill="url(#s)"/><path d="m24.933 6.012.8.398c1.4.696 2.2 2.287 1.9 3.978l-1.1 5.67c-.098.585-.485.979-1.066.993h-.034s.1-1.69.2-2.685c.081-.807-.06-1.054-.8-1.79-.4-.398-.7-.995-.7-1.591V9.393c0-.497-.4-.895-.8-.994-1.201-.299-3.702-.796-7.303-.796-3.6 0-6.102.497-7.302.796-.5.1-.8.497-.8.994v1.592c0 .596-.2 1.193-.7 1.591l-.3.298c-.4.299-.6.896-.6 1.393.1 1.094.2 2.685.2 2.685a1.181 1.181 0 0 1-1.2-.995L4.226 10.29c-.2-1.592.6-3.183 2-3.88l.8-.397c.5-.299 1-.696 1.501-1.094l1.8-1.89c1.1-.995 2.701-1.293 4.102-.597 1 .299 2.1.299 3.1 0 1.501-.497 3.202-.1 4.402.995l1.5 1.492c.4.497.9.795 1.5 1.094Z" fill="url(#t)"/><path d="m24.933 6.012.8.398c1.4.696 2.2 2.287 1.9 3.978l-1.1 5.67c-.098.585-.485.979-1.066.993h-.034s.1-1.69.2-2.685c.081-.807-.06-1.054-.8-1.79-.4-.398-.7-.995-.7-1.591V9.393c0-.497-.4-.895-.8-.994-1.201-.299-3.702-.796-7.303-.796-3.6 0-6.102.497-7.302.796-.5.1-.8.497-.8.994v1.592c0 .596-.2 1.193-.7 1.591l-.3.298c-.4.299-.6.896-.6 1.393.1 1.094.2 2.685.2 2.685a1.181 1.181 0 0 1-1.2-.995L4.226 10.29c-.2-1.592.6-3.183 2-3.88l.8-.397c.5-.299 1-.696 1.501-1.094l1.8-1.89c1.1-.995 2.701-1.293 4.102-.597 1 .299 2.1.299 3.1 0 1.501-.497 3.202-.1 4.402.995l1.5 1.492c.4.497.9.795 1.5 1.094Z" fill="url(#u)"/><path d="m24.933 6.012.8.398c1.4.696 2.2 2.287 1.9 3.978l-1.1 5.67c-.098.585-.485.979-1.066.993h-.034s.1-1.69.2-2.685c.081-.807-.06-1.054-.8-1.79-.4-.398-.7-.995-.7-1.591V9.393c0-.497-.4-.895-.8-.994-1.201-.299-3.702-.796-7.303-.796-3.6 0-6.102.497-7.302.796-.5.1-.8.497-.8.994v1.592c0 .596-.2 1.193-.7 1.591l-.3.298c-.4.299-.6.896-.6 1.393.1 1.094.2 2.685.2 2.685a1.181 1.181 0 0 1-1.2-.995L4.226 10.29c-.2-1.592.6-3.183 2-3.88l.8-.397c.5-.299 1-.696 1.501-1.094l1.8-1.89c1.1-.995 2.701-1.293 4.102-.597 1 .299 2.1.299 3.1 0 1.501-.497 3.202-.1 4.402.995l1.5 1.492c.4.497.9.795 1.5 1.094Z" fill="url(#v)"/><path d="m24.933 6.012.8.398c1.4.696 2.2 2.287 1.9 3.978l-1.1 5.67c-.098.585-.485.979-1.066.993h-.034s.1-1.69.2-2.685c.081-.807-.06-1.054-.8-1.79-.4-.398-.7-.995-.7-1.591V9.393c0-.497-.4-.895-.8-.994-1.201-.299-3.702-.796-7.303-.796-3.6 0-6.102.497-7.302.796-.5.1-.8.497-.8.994v1.592c0 .596-.2 1.193-.7 1.591l-.3.298c-.4.299-.6.896-.6 1.393.1 1.094.2 2.685.2 2.685a1.181 1.181 0 0 1-1.2-.995L4.226 10.29c-.2-1.592.6-3.183 2-3.88l.8-.397c.5-.299 1-.696 1.501-1.094l1.8-1.89c1.1-.995 2.701-1.293 4.102-.597 1 .299 2.1.299 3.1 0 1.501-.497 3.202-.1 4.402.995l1.5 1.492c.4.497.9.795 1.5 1.094Z" fill="url(#w)"/></g><path d="m24.933 6.012.8.398c1.4.696 2.2 2.287 1.9 3.978l-1.1 5.67c-.098.585-.485.979-1.066.993h-.034s.1-1.69.2-2.685c.081-.807-.06-1.054-.8-1.79-.4-.398-.7-.995-.7-1.591V9.393c0-.497-.4-.895-.8-.994-1.201-.299-3.702-.796-7.303-.796-3.6 0-6.102.497-7.302.796-.5.1-.8.497-.8.994v1.592c0 .596-.2 1.193-.7 1.591l-.3.298c-.4.299-.6.896-.6 1.393.1 1.094.2 2.685.2 2.685a1.181 1.181 0 0 1-1.2-.995L4.226 10.29c-.2-1.592.6-3.183 2-3.88l.8-.397c.5-.299 1-.696 1.501-1.094l1.8-1.89c1.1-.995 2.701-1.293 4.102-.597 1 .299 2.1.299 3.1 0 1.501-.497 3.202-.1 4.402.995l1.5 1.492c.4.497.9.795 1.5 1.094Z" fill="url(#x)"/><path d="m24.933 6.012.8.398c1.4.696 2.2 2.287 1.9 3.978l-1.1 5.67c-.098.585-.485.979-1.066.993h-.034s.1-1.69.2-2.685c.081-.807-.06-1.054-.8-1.79-.4-.398-.7-.995-.7-1.591V9.393c0-.497-.4-.895-.8-.994-1.201-.299-3.702-.796-7.303-.796-3.6 0-6.102.497-7.302.796-.5.1-.8.497-.8.994v1.592c0 .596-.2 1.193-.7 1.591l-.3.298c-.4.299-.6.896-.6 1.393.1 1.094.2 2.685.2 2.685a1.181 1.181 0 0 1-1.2-.995L4.226 10.29c-.2-1.592.6-3.183 2-3.88l.8-.397c.5-.299 1-.696 1.501-1.094l1.8-1.89c1.1-.995 2.701-1.293 4.102-.597 1 .299 2.1.299 3.1 0 1.501-.497 3.202-.1 4.402.995l1.5 1.492c.4.497.9.795 1.5 1.094Z" fill="url(#y)"/><g filter="url(#z)"><path d="m15.433 17.864-1.53 3.17c-.19.651.266 1.303.91 1.303h1.375c.645 0 1.1-.662.91-1.303l-.929-3.17c-.199-.702-.527-.702-.736 0Z" fill="#D89992"/></g><g filter="url(#A)"><path d="m15.233 17.56-.99 3.17a1.005 1.005 0 0 0 .97 1.303h1.466c.688 0 1.173-.662.971-1.304l-.99-3.17c-.213-.701-1.204-.701-1.427 0Z" fill="#FBC4B1"/><path d="m15.233 17.56-.99 3.17a1.005 1.005 0 0 0 .97 1.303h1.466c.688 0 1.173-.662.971-1.304l-.99-3.17c-.213-.701-1.204-.701-1.427 0Z" fill="url(#B)"/><path d="m15.233 17.56-.99 3.17a1.005 1.005 0 0 0 .97 1.303h1.466c.688 0 1.173-.662.971-1.304l-.99-3.17c-.213-.701-1.204-.701-1.427 0Z" fill="url(#C)"/><path d="m15.233 17.56-.99 3.17a1.005 1.005 0 0 0 .97 1.303h1.466c.688 0 1.173-.662.971-1.304l-.99-3.17c-.213-.701-1.204-.701-1.427 0Z" fill="url(#D)"/><path d="m15.233 17.56-.99 3.17a1.005 1.005 0 0 0 .97 1.303h1.466c.688 0 1.173-.662.971-1.304l-.99-3.17c-.213-.701-1.204-.701-1.427 0Z" fill="url(#E)"/></g><path d="m15.233 17.56-.99 3.17a1.005 1.005 0 0 0 .97 1.303h1.466c.688 0 1.173-.662.971-1.304l-.99-3.17c-.213-.701-1.204-.701-1.427 0Z" fill="url(#F)"/><path d="M13.386 23.272a.335.335 0 0 0-.4.069.305.305 0 0 0-.033.393 3.58 3.58 0 0 0 2.993 1.6 3.58 3.58 0 0 0 2.994-1.6.31.31 0 0 0-.034-.397.336.336 0 0 0-.4-.065 5.523 5.523 0 0 1-2.56.607c-.938 0-1.82-.221-2.56-.607Z" fill="#88024E" stroke="url(#G)" stroke-width=".1"/><g filter="url(#H)"><path d="m22.883 13.02-.002-.002-.004-.003-.008-.007-.023-.018a3.698 3.698 0 0 0-.289-.2 4.816 4.816 0 0 0-.782-.393 5.282 5.282 0 0 0-2.784-.295.995.995 0 1 0 .31 1.966 3.293 3.293 0 0 1 1.742.18 2.832 2.832 0 0 1 .56.297l.015.011a.995.995 0 0 0 1.265-1.536Z" fill="#9A6634"/></g><g filter="url(#I)"><path d="M8.91 13.02v-.001l.002-.001.004-.003.008-.007.022-.018.067-.05c.055-.04.13-.092.222-.15.186-.117.45-.262.783-.393a5.282 5.282 0 0 1 2.784-.295.995.995 0 1 1-.31 1.966 3.294 3.294 0 0 0-1.742.18 2.836 2.836 0 0 0-.56.297l-.015.011a.995.995 0 0 1-1.266-1.536Z" fill="#9A6634"/></g><path d="M20.4 15.424c1.217 0 2.245.84 2.525 1.974a.511.511 0 0 1-.499.635h-4.16a.43.43 0 0 1-.423-.507 2.606 2.606 0 0 1 2.556-2.102Z" fill="#fff"/><path d="M20.013 15.93a1.664 1.664 0 0 1 1.604 2.103h-3.215a1.706 1.706 0 0 1-.06-.439 1.67 1.67 0 0 1 1.671-1.664Z" fill="url(#J)"/><path d="M19.06 17.594c0-.529.424-.953.953-.953.53 0 .953.424.953.953a.94.94 0 0 1-.106.44h-1.686a.862.862 0 0 1-.113-.44Z" fill="#000"/><g filter="url(#K)"><path d="M19.891 16.282c.119.159-.13.352-.41.563-.283.21-.492.359-.61.2-.119-.158.014-.458.295-.668.282-.211.607-.253.725-.095Z" fill="#C7A7A3"/><path d="M19.891 16.282c.119.159-.13.352-.41.563-.283.21-.492.359-.61.2-.119-.158.014-.458.295-.668.282-.211.607-.253.725-.095Z" fill="url(#L)"/></g><g filter="url(#M)"><path d="M21.495 17.375a1.566 1.566 0 0 0-.43-.862l-.485.531.218.426.698-.095Z" fill="url(#N)"/></g><path d="M11.484 15.424c-1.218 0-2.247.84-2.526 1.974a.511.511 0 0 0 .499.635h4.16a.43.43 0 0 0 .423-.507 2.612 2.612 0 0 0-2.556-2.102Z" fill="#fff"/><path d="M11.87 15.93a1.664 1.664 0 0 0-1.604 2.103h3.214c.038-.144.061-.287.061-.439a1.675 1.675 0 0 0-1.671-1.664Z" fill="url(#O)"/><path d="M12.822 17.595a.949.949 0 0 0-.952-.953.949.949 0 0 0-.954.953c0 .158.038.31.106.438h1.687a.946.946 0 0 0 .114-.439Z" fill="#000"/><g filter="url(#P)"><path d="M13.39 17.399c0-.538-.438-.896-.556-1.005l-.537.52.33.674.763-.19Z" fill="url(#Q)"/></g><g filter="url(#R)" transform="rotate(-27.914 11.367 16.642)"><ellipse cx="11.367" cy="16.642" rx=".726" ry=".368" fill="#C7A7A3" fill-opacity=".9"/><ellipse cx="11.367" cy="16.642" rx=".726" ry=".368" fill="url(#S)"/></g><g filter="url(#T)"><path d="M19.043 12.75c.802-.14 2.366-.1 3.449.742" stroke="url(#U)" stroke-width=".5" stroke-linecap="round"/></g><g filter="url(#V)"><path d="M9.31 13.717c.61-.54 1.942-1.107 3.593-.844" stroke="url(#W)" stroke-width=".5" stroke-linecap="round"/></g><defs><radialGradient id="b" cx="0" cy="0" r="1" gradientUnits="userSpaceOnUse" gradientTransform="matrix(3.27255 0 0 5.72699 3.979 18.092)"><stop offset=".351" stop-color="#CF9888"/><stop offset="1" stop-color="#BE8C77"/></radialGradient><radialGradient id="g" cx="0" cy="0" r="1" gradientUnits="userSpaceOnUse" gradientTransform="rotate(-36.06 39.795 -30.413) scale(1.90707 2.17668)"><stop offset=".543" stop-color="#D9AA94"/><stop offset="1" stop-color="#D9AA94" stop-opacity="0"/></radialGradient><radialGradient id="i" cx="0" cy="0" r="1" gradientUnits="userSpaceOnUse" gradientTransform="matrix(1.53153 -2.8169 1.64874 .8964 24.756 19.623)"><stop offset=".755" stop-color="#D6A38D" stop-opacity="0"/><stop offset=".916" stop-color="#D6A38D"/></radialGradient><radialGradient id="j" cx="0" cy="0" r="1" gradientUnits="userSpaceOnUse" gradientTransform="rotate(44.708 -9.58 39.24) scale(.68036 .87707)"><stop stop-color="#D5A58E"/><stop offset="1" stop-color="#D5A58E" stop-opacity="0"/></radialGradient><radialGradient id="m" cx="0" cy="0" r="1" gradientUnits="userSpaceOnUse" gradientTransform="rotate(97.214 1.96 15.352) scale(15.9482 21.6489)"><stop offset=".701" stop-color="#B67A96" stop-opacity="0"/><stop offset="1" stop-color="#B67A96"/></radialGradient><radialGradient id="o" cx="0" cy="0" r="1" gradientUnits="userSpaceOnUse" gradientTransform="matrix(0 -2.4375 3 0 20.321 15.72)"><stop stop-color="#F6B8A7"/><stop offset="1" stop-color="#F6B8A7" stop-opacity="0"/></radialGradient><radialGradient id="p" cx="0" cy="0" r="1" gradientUnits="userSpaceOnUse" gradientTransform="matrix(0 -2.59375 3.22556 0 11.821 15.658)"><stop stop-color="#CF948D"/><stop offset="1" stop-color="#CF948D" stop-opacity="0"/></radialGradient><radialGradient id="q" cx="0" cy="0" r="1" gradientUnits="userSpaceOnUse" gradientTransform="rotate(138.793 10.655 9.132) scale(11.547 9.95893)"><stop stop-color="#FFE3C5"/><stop offset="1" stop-color="#FFE3C5" stop-opacity="0"/></radialGradient><radialGradient id="s" cx="0" cy="0" r="1" gradientUnits="userSpaceOnUse" gradientTransform="matrix(-6.4087 8.25997 -14.04691 -10.89865 22.832 3.708)"><stop stop-color="#FFFFC2"/><stop offset="1" stop-color="#FFFFC2" stop-opacity="0"/></radialGradient><radialGradient id="u" cx="0" cy="0" r="1" gradientUnits="userSpaceOnUse" gradientTransform="matrix(-.12461 -3.47136 1.70486 -.0612 8.127 11.648)"><stop offset=".227" stop-color="#EEC19C"/><stop offset="1" stop-color="#EEC19C" stop-opacity="0"/></radialGradient><radialGradient id="v" cx="0" cy="0" r="1" gradientUnits="userSpaceOnUse" gradientTransform="rotate(-66.4 23.263 -10.781) scale(4.0019 3.26385)"><stop offset=".479" stop-color="#E3AB85"/><stop offset="1" stop-color="#E3AB85" stop-opacity="0"/></radialGradient><radialGradient id="w" cx="0" cy="0" r="1" gradientUnits="userSpaceOnUse" gradientTransform="matrix(1.85139 2.29723 -2.0283 1.63465 14.5 2.052)"><stop stop-color="#FBECAF"/><stop offset="1" stop-color="#FBECAF" stop-opacity="0"/></radialGradient><radialGradient id="x" cx="0" cy="0" r="1" gradientUnits="userSpaceOnUse" gradientTransform="rotate(76.961 7.33 11.871) scale(1.4992 2.4647)"><stop offset=".208" stop-color="#E1D19F"/><stop offset="1" stop-color="#E1D19F" stop-opacity="0"/></radialGradient><radialGradient id="y" cx="0" cy="0" r="1" gradientUnits="userSpaceOnUse" gradientTransform="rotate(51.044 -1.603 10.85) scale(2.15189 4.82159)"><stop stop-color="#DCC291"/><stop offset="1" stop-color="#DCC291" stop-opacity="0"/></radialGradient><radialGradient id="E" cx="0" cy="0" r="1" gradientUnits="userSpaceOnUse" gradientTransform="matrix(0 .36719 -1.17969 0 16.556 21.088)"><stop stop-color="#FFD7C1"/><stop offset="1" stop-color="#FFD7C1" stop-opacity="0"/></radialGradient><radialGradient id="J" cx="0" cy="0" r="1" gradientUnits="userSpaceOnUse" gradientTransform="matrix(0 1.68424 -1.9929 0 20.01 17.442)"><stop offset=".75" stop-color="#925C51"/><stop offset="1" stop-color="#694B43"/><stop offset="1" stop-color="#804D49"/><stop offset="1" stop-color="#85534D"/></radialGradient><radialGradient id="L" cx="0" cy="0" r="1" gradientUnits="userSpaceOnUse" gradientTransform="rotate(-127.812 13.95 3.693) scale(.70528 .97101)"><stop offset=".766" stop-color="#FFE6E2" stop-opacity="0"/><stop offset=".966" stop-color="#FFE6E2"/></radialGradient><radialGradient id="O" cx="0" cy="0" r="1" gradientUnits="userSpaceOnUse" gradientTransform="matrix(0 1.68433 -1.993 0 11.873 17.442)"><stop offset=".75" stop-color="#925C51"/><stop offset="1" stop-color="#694B43"/><stop offset="1" stop-color="#804D49"/><stop offset="1" stop-color="#85534D"/></radialGradient><radialGradient id="S" cx="0" cy="0" r="1" gradientUnits="userSpaceOnUse" gradientTransform="rotate(-90.897 14.15 3.033) scale(.92129 1.10743)"><stop offset=".766" stop-color="#FFE6E2" stop-opacity="0"/><stop offset=".966" stop-color="#FFE6E2"/></radialGradient><filter id="a" x="3.979" y="14.979" width="6.427" height="6.227" filterUnits="userSpaceOnUse" color-interpolation-filters="sRGB"><feFlood flood-opacity="0" result="BackgroundImageFix"/><feBlend in="SourceGraphic" in2="BackgroundImageFix" result="shape"/><feColorMatrix in="SourceAlpha" values="0 0 0 0 0 0 0 0 0 0 0 0 0 0 0 0 0 0 127 0" result="hardAlpha"/><feOffset dx=".2"/><feGaussianBlur stdDeviation=".15"/><feComposite in2="hardAlpha" operator="arithmetic" k2="-1" k3="1"/><feColorMatrix values="0 0 0 0 0.917647 0 0 0 0 0.694118 0 0 0 0 0.607843 0 0 0 1 0"/><feBlend in2="shape" result="effect1_innerShadow_3987_19887"/></filter><filter id="c" x="4.737" y="15.736" width="4.711" height="4.711" filterUnits="userSpaceOnUse" color-interpolation-filters="sRGB"><feFlood flood-opacity="0" result="BackgroundImageFix"/><feBlend in="SourceGraphic" in2="BackgroundImageFix" result="shape"/><feGaussianBlur stdDeviation=".25" result="effect1_foregroundBlur_3987_19887"/></filter><filter id="e" x="21.72" y="14.729" width="6.477" height="6.477" filterUnits="userSpaceOnUse" color-interpolation-filters="sRGB"><feFlood flood-opacity="0" result="BackgroundImageFix"/><feBlend in="SourceGraphic" in2="BackgroundImageFix" result="shape"/><feColorMatrix in="SourceAlpha" values="0 0 0 0 0 0 0 0 0 0 0 0 0 0 0 0 0 0 127 0" result="hardAlpha"/><feOffset dx=".25" dy="-.25"/><feGaussianBlur stdDeviation=".25"/><feComposite in2="hardAlpha" operator="arithmetic" k2="-1" k3="1"/><feColorMatrix values="0 0 0 0 0.843137 0 0 0 0 0.623529 0 0 0 0 0.580392 0 0 0 1 0"/><feBlend in2="shape" result="effect1_innerShadow_3987_19887"/></filter><filter id="h" x="22.478" y="15.736" width="4.711" height="4.711" filterUnits="userSpaceOnUse" color-interpolation-filters="sRGB"><feFlood flood-opacity="0" result="BackgroundImageFix"/><feBlend in="SourceGraphic" in2="BackgroundImageFix" result="shape"/><feGaussianBlur stdDeviation=".25" result="effect1_foregroundBlur_3987_19887"/></filter><filter id="k" x="6.327" y="7.603" width="19.345" height="22.68" filterUnits="userSpaceOnUse" color-interpolation-filters="sRGB"><feFlood flood-opacity="0" result="BackgroundImageFix"/><feBlend in="SourceGraphic" in2="BackgroundImageFix" result="shape"/><feColorMatrix in="SourceAlpha" values="0 0 0 0 0 0 0 0 0 0 0 0 0 0 0 0 0 0 127 0" result="hardAlpha"/><feOffset dy=".25"/><feGaussianBlur stdDeviation=".25"/><feComposite in2="hardAlpha" operator="arithmetic" k2="-1" k3="1"/><feColorMatrix values="0 0 0 0 0.854902 0 0 0 0 0.607843 0 0 0 0 0.509804 0 0 0 1 0"/><feBlend in2="shape" result="effect1_innerShadow_3987_19887"/></filter><filter id="r" x="4.196" y="1.552" width="23.5" height="15.5" filterUnits="userSpaceOnUse" color-interpolation-filters="sRGB"><feFlood flood-opacity="0" result="BackgroundImageFix"/><feBlend in="SourceGraphic" in2="BackgroundImageFix" result="shape"/><feColorMatrix in="SourceAlpha" values="0 0 0 0 0 0 0 0 0 0 0 0 0 0 0 0 0 0 127 0" result="hardAlpha"/><feOffset dy="-.5"/><feGaussianBlur stdDeviation=".375"/><feComposite in2="hardAlpha" operator="arithmetic" k2="-1" k3="1"/><feColorMatrix values="0 0 0 0 0.858824 0 0 0 0 0.690196 0 0 0 0 0.533333 0 0 0 1 0"/><feBlend in2="shape" result="effect1_innerShadow_3987_19887"/></filter><filter id="z" x="13.11" y="16.587" width="4.782" height="6.5" filterUnits="userSpaceOnUse" color-interpolation-filters="sRGB"><feFlood flood-opacity="0" result="BackgroundImageFix"/><feBlend in="SourceGraphic" in2="BackgroundImageFix" result="shape"/><feGaussianBlur stdDeviation=".375" result="effect1_foregroundBlur_3987_19887"/></filter><filter id="A" x="13.946" y="16.783" width="4" height="5.5" filterUnits="userSpaceOnUse" color-interpolation-filters="sRGB"><feFlood flood-opacity="0" result="BackgroundImageFix"/><feBlend in="SourceGraphic" in2="BackgroundImageFix" result="shape"/><feGaussianBlur stdDeviation=".125" result="effect1_foregroundBlur_3987_19887"/></filter><filter id="H" x="18.151" y="11.633" width="5.34" height="3.147" filterUnits="userSpaceOnUse" color-interpolation-filters="sRGB"><feFlood flood-opacity="0" result="BackgroundImageFix"/><feBlend in="SourceGraphic" in2="BackgroundImageFix" result="shape"/><feColorMatrix in="SourceAlpha" values="0 0 0 0 0 0 0 0 0 0 0 0 0 0 0 0 0 0 127 0" result="hardAlpha"/><feOffset dx=".25" dy="-.4"/><feGaussianBlur stdDeviation=".3"/><feComposite in2="hardAlpha" operator="arithmetic" k2="-1" k3="1"/><feColorMatrix values="0 0 0 0 0.47451 0 0 0 0 0.262745 0 0 0 0 0.168627 0 0 0 1 0"/><feBlend in2="shape" result="effect1_innerShadow_3987_19887"/></filter><filter id="I" x="8.551" y="11.633" width="5.341" height="3.147" filterUnits="userSpaceOnUse" color-interpolation-filters="sRGB"><feFlood flood-opacity="0" result="BackgroundImageFix"/><feBlend in="SourceGraphic" in2="BackgroundImageFix" result="shape"/><feColorMatrix in="SourceAlpha" values="0 0 0 0 0 0 0 0 0 0 0 0 0 0 0 0 0 0 127 0" result="hardAlpha"/><feOffset dx=".25" dy="-.4"/><feGaussianBlur stdDeviation=".3"/><feComposite in2="hardAlpha" operator="arithmetic" k2="-1" k3="1"/><feColorMatrix values="0 0 0 0 0.47451 0 0 0 0 0.262745 0 0 0 0 0.168627 0 0 0 1 0"/><feBlend in2="shape" result="effect1_innerShadow_3987_19887"/></filter><filter id="K" x="18.727" y="16.086" width="1.294" height="1.125" filterUnits="userSpaceOnUse" color-interpolation-filters="sRGB"><feFlood flood-opacity="0" result="BackgroundImageFix"/><feBlend in="SourceGraphic" in2="BackgroundImageFix" result="shape"/><feGaussianBlur stdDeviation=".05" result="effect1_foregroundBlur_3987_19887"/></filter><filter id="M" x="20.38" y="16.313" width="1.316" height="1.357" filterUnits="userSpaceOnUse" color-interpolation-filters="sRGB"><feFlood flood-opacity="0" result="BackgroundImageFix"/><feBlend in="SourceGraphic" in2="BackgroundImageFix" result="shape"/><feGaussianBlur stdDeviation=".1" result="effect1_foregroundBlur_3987_19887"/></filter><filter id="P" x="12.097" y="16.194" width="1.493" height="1.594" filterUnits="userSpaceOnUse" color-interpolation-filters="sRGB"><feFlood flood-opacity="0" result="BackgroundImageFix"/><feBlend in="SourceGraphic" in2="BackgroundImageFix" result="shape"/><feGaussianBlur stdDeviation=".1" result="effect1_foregroundBlur_3987_19887"/></filter><filter id="R" x="10.603" y="16.071" width="1.529" height="1.141" filterUnits="userSpaceOnUse" color-interpolation-filters="sRGB"><feFlood flood-opacity="0" result="BackgroundImageFix"/><feBlend in="SourceGraphic" in2="BackgroundImageFix" result="shape"/><feGaussianBlur stdDeviation=".05" result="effect1_foregroundBlur_3987_19887"/></filter><filter id="T" x="18.293" y="11.938" width="4.949" height="2.304" filterUnits="userSpaceOnUse" color-interpolation-filters="sRGB"><feFlood flood-opacity="0" result="BackgroundImageFix"/><feBlend in="SourceGraphic" in2="BackgroundImageFix" result="shape"/><feGaussianBlur stdDeviation=".25" result="effect1_foregroundBlur_3987_19887"/></filter><filter id="V" x="8.56" y="12.057" width="5.094" height="2.41" filterUnits="userSpaceOnUse" color-interpolation-filters="sRGB"><feFlood flood-opacity="0" result="BackgroundImageFix"/><feBlend in="SourceGraphic" in2="BackgroundImageFix" result="shape"/><feGaussianBlur stdDeviation=".25" result="effect1_foregroundBlur_3987_19887"/></filter><linearGradient id="d" x1="7.092" y1="18.611" x2="5.898" y2="18.611" gradientUnits="userSpaceOnUse"><stop stop-color="#BA7C6B"/><stop offset="1" stop-color="#BE8474"/></linearGradient><linearGradient id="f" x1="26.859" y1="16.056" x2="25.332" y2="20.786" gradientUnits="userSpaceOnUse"><stop stop-color="#FBD3BD"/><stop offset="1" stop-color="#F0B8A4"/></linearGradient><linearGradient id="l" x1="25.081" y1="18.818" x2="9.231" y2="20.94" gradientUnits="userSpaceOnUse"><stop stop-color="#FFDBC0"/><stop offset="1" stop-color="#DAA495"/></linearGradient><linearGradient id="n" x1="6.327" y1="23.485" x2="10.196" y2="23.283" gradientUnits="userSpaceOnUse"><stop stop-color="#E8AD95"/><stop offset="1" stop-color="#E8AD95" stop-opacity="0"/></linearGradient><linearGradient id="t" x1="6.881" y1="17.594" x2="12.293" y2="7.981" gradientUnits="userSpaceOnUse"><stop stop-color="#E8AD8E"/><stop offset="1" stop-color="#E8AD8E" stop-opacity="0"/></linearGradient><linearGradient id="B" x1="14.335" y1="20.047" x2="16.084" y2="20.047" gradientUnits="userSpaceOnUse"><stop stop-color="#DFA790"/><stop offset="1" stop-color="#DFA790" stop-opacity="0"/></linearGradient><linearGradient id="C" x1="17.696" y1="20.649" x2="15.784" y2="20.622" gradientUnits="userSpaceOnUse"><stop stop-color="#FFDFC4"/><stop offset="1" stop-color="#FFDFC4" stop-opacity="0"/></linearGradient><linearGradient id="D" x1="16.309" y1="22.033" x2="16.309" y2="20.965" gradientUnits="userSpaceOnUse"><stop stop-color="#DC9C96"/><stop offset="1" stop-color="#DC9C96" stop-opacity="0"/></linearGradient><linearGradient id="F" x1="16.181" y1="22.111" x2="16.181" y2="21.799" gradientUnits="userSpaceOnUse"><stop stop-color="#D6938E"/><stop offset="1" stop-color="#D6938E" stop-opacity="0"/></linearGradient><linearGradient id="G" x1="14.012" y1="25.045" x2="14.824" y2="23.763" gradientUnits="userSpaceOnUse"><stop stop-color="#D9A4A4"/><stop offset=".663" stop-color="#D9A4A4" stop-opacity="0"/></linearGradient><linearGradient id="N" x1="21.46" y1="16.92" x2="20.875" y2="17.281" gradientUnits="userSpaceOnUse"><stop stop-color="#B4948D"/><stop offset="1" stop-color="#B4948D" stop-opacity="0"/></linearGradient><linearGradient id="Q" x1="13.26" y1="16.92" x2="12.675" y2="17.281" gradientUnits="userSpaceOnUse"><stop stop-color="#B4948D"/><stop offset="1" stop-color="#B4948D" stop-opacity="0"/></linearGradient><linearGradient id="U" x1="21.489" y1="12.93" x2="20.706" y2="11.329" gradientUnits="userSpaceOnUse"><stop stop-color="#A57146"/><stop offset="1" stop-color="#A57146" stop-opacity="0"/></linearGradient><linearGradient id="W" x1="11.597" y1="12.692" x2="9.379" y2="11.762" gradientUnits="userSpaceOnUse"><stop stop-color="#A57146"/><stop offset="1" stop-color="#A57146" stop-opacity="0"/></linearGradient></defs></svg>