<svg width="32" height="32" fill="none" xmlns="http://www.w3.org/2000/svg"><path fill="url(#a)" d="M6.588 16.165a4.086 4.086 0 1 0 8.172 0 4.086 4.086 0 1 0-8.172 0"/><path fill="url(#b)" d="M6.588 16.165a4.086 4.086 0 1 0 8.172 0 4.086 4.086 0 1 0-8.172 0"/><path fill="url(#c)" d="M1.97 23.368a6.305 6.305 0 1 0 12.61 0 6.305 6.305 0 1 0-12.61 0"/><path transform="matrix(-1 0 0 1 21.326 16.165)" fill="url(#d)" d="M-4.086 0a4.086 4.086 0 1 0 8.172 0 4.086 4.086 0 1 0-8.172 0"/><path transform="matrix(-1 0 0 1 21.326 16.165)" fill="url(#e)" d="M-4.086 0a4.086 4.086 0 1 0 8.172 0 4.086 4.086 0 1 0-8.172 0"/><path transform="matrix(-1 0 0 1 23.725 23.368)" fill="url(#f)" d="M-6.305 0a6.305 6.305 0 1 0 12.61 0 6.305 6.305 0 1 0-12.61 0"/><path d="M26.947 29.939c0-7.961-4.617-9.875-5.375-10.383l-5.047 10.383h10.422Z" fill="url(#g)"/><path d="M26.947 29.939c0-7.961-4.617-9.875-5.375-10.383l-5.047 10.383h10.422Z" fill="url(#h)"/><path d="M26.947 29.939c0-7.961-4.617-9.875-5.375-10.383l-5.047 10.383h10.422Z" fill="url(#i)"/><path d="M5.096 29.939c0-7.961 4.617-9.875 5.375-10.383l5.047 10.383H5.096Z" fill="url(#j)"/><path d="M5.096 29.939c0-7.961 4.617-9.875 5.375-10.383l5.047 10.383H5.096Z" fill="url(#k)"/><path d="M9.9 17.353c.64-1.313 1.82-1.75 2.594-1.75h2.609v2.875h-2.469c-.169.303-.002.85.102 1.086l4.316 10.39h-3.175c-1.068-2.583-3.293-7.817-3.68-8.742-.42-1.004-.89-2.476-.297-3.86Z" fill="#2681E0"/><path d="M9.9 17.353c.64-1.313 1.82-1.75 2.594-1.75h2.609v2.875h-2.469c-.169.303-.002.85.102 1.086l4.316 10.39h-3.175c-1.068-2.583-3.293-7.817-3.68-8.742-.42-1.004-.89-2.476-.297-3.86Z" fill="url(#l)"/><path d="M9.9 17.353c.64-1.313 1.82-1.75 2.594-1.75h2.609v2.875h-2.469c-.169.303-.002.85.102 1.086l4.316 10.39h-3.175c-1.068-2.583-3.293-7.817-3.68-8.742-.42-1.004-.89-2.476-.297-3.86Z" fill="url(#m)"/><path d="M9.9 17.353c.64-1.313 1.82-1.75 2.594-1.75h2.609v2.875h-2.469c-.169.303-.002.85.102 1.086l4.316 10.39h-3.175c-1.068-2.583-3.293-7.817-3.68-8.742-.42-1.004-.89-2.476-.297-3.86Z" fill="url(#n)"/><path d="M9.9 17.353c.64-1.313 1.82-1.75 2.594-1.75h2.609v2.875h-2.469c-.169.303-.002.85.102 1.086l4.316 10.39h-3.175c-1.068-2.583-3.293-7.817-3.68-8.742-.42-1.004-.89-2.476-.297-3.86Z" fill="url(#o)"/><path d="M9.9 17.353c.64-1.313 1.82-1.75 2.594-1.75h2.609v2.875h-2.469c-.169.303-.002.85.102 1.086l4.316 10.39h-3.175c-1.068-2.583-3.293-7.817-3.68-8.742-.42-1.004-.89-2.476-.297-3.86Z" fill="url(#p)"/><path d="M9.9 17.353c.64-1.313 1.82-1.75 2.594-1.75h2.609v2.875h-2.469c-.169.303-.002.85.102 1.086l4.316 10.39h-3.175c-1.068-2.583-3.293-7.817-3.68-8.742-.42-1.004-.89-2.476-.297-3.86Z" fill="url(#q)"/><path d="M21.819 17.353c-.64-1.313-1.82-1.75-2.594-1.75h-2.609v2.875h2.469c.169.303.002.85-.102 1.086l-3.938 10.39h3.176c1.067-2.583 2.995-7.817 3.382-8.742.42-1.004.81-2.476.216-3.86Z" fill="#2A87CE"/><path d="M21.819 17.353c-.64-1.313-1.82-1.75-2.594-1.75h-2.609v2.875h2.469c.169.303.002.85-.102 1.086l-3.938 10.39h3.176c1.067-2.583 2.995-7.817 3.382-8.742.42-1.004.81-2.476.216-3.86Z" fill="url(#r)"/><path d="M21.819 17.353c-.64-1.313-1.82-1.75-2.594-1.75h-2.609v2.875h2.469c.169.303.002.85-.102 1.086l-3.938 10.39h3.176c1.067-2.583 2.995-7.817 3.382-8.742.42-1.004.81-2.476.216-3.86Z" fill="url(#s)"/><path d="M21.819 17.353c-.64-1.313-1.82-1.75-2.594-1.75h-2.609v2.875h2.469c.169.303.002.85-.102 1.086l-3.938 10.39h3.176c1.067-2.583 2.995-7.817 3.382-8.742.42-1.004.81-2.476.216-3.86Z" fill="url(#t)"/><g filter="url(#u)"><path d="M14.01 16.517h4v.887c.01.175.045.374.152.53a.813.813 0 0 0 .445.333l.465.164c.076.068.22.478.04.984-.181.505-2.043 5.51-3.095 8.02v.02c0-.004-.002-.007-.004-.01 0 .003-.002.006-.004.01v-.02c-1.052-2.51-3.186-7.515-3.366-8.02-.182-.506-.076-.87 0-.937l.68-.192c.218-.062.373-.14.515-.347.113-.166.158-.39.172-.572v-.85Z" fill="url(#v)"/><path d="M14.01 16.517h4v.887c.01.175.045.374.152.53a.813.813 0 0 0 .445.333l.465.164c.076.068.22.478.04.984-.181.505-2.043 5.51-3.095 8.02v.02c0-.004-.002-.007-.004-.01 0 .003-.002.006-.004.01v-.02c-1.052-2.51-3.186-7.515-3.366-8.02-.182-.506-.076-.87 0-.937l.68-.192c.218-.062.373-.14.515-.347.113-.166.158-.39.172-.572v-.85Z" fill="url(#w)"/><path d="M14.01 16.517h4v.887c.01.175.045.374.152.53a.813.813 0 0 0 .445.333l.465.164c.076.068.22.478.04.984-.181.505-2.043 5.51-3.095 8.02v.02c0-.004-.002-.007-.004-.01 0 .003-.002.006-.004.01v-.02c-1.052-2.51-3.186-7.515-3.366-8.02-.182-.506-.076-.87 0-.937l.68-.192c.218-.062.373-.14.515-.347.113-.166.158-.39.172-.572v-.85Z" fill="url(#x)"/></g><path opacity=".5" d="M1.97 24.017h3.298a5.938 5.938 0 0 1 5.937 5.937H1.971v-5.937ZM30.03 24.017h-3.298a5.938 5.938 0 0 0-5.937 5.937h9.234v-5.937Z" fill="#E8D6FF"/><g filter="url(#y)"><path d="M16.151 18.338c.19.027.711.032 1.276-.163" stroke="#BE937F" stroke-width=".6" stroke-linecap="round"/></g><g filter="url(#z)"><path fill="url(#A)" d="M9.318 10.761a1.692 1.692 0 1 0 3.383 0 1.692 1.692 0 1 0-3.383 0"/></g><path fill="url(#B)" d="M9.318 10.761a1.692 1.692 0 1 0 3.383 0 1.692 1.692 0 1 0-3.383 0"/><g filter="url(#C)"><path fill="url(#D)" d="M10.001 10.761a1.008 1.008 0 1 0 2.017 0 1.008 1.008 0 1 0-2.017 0"/></g><g filter="url(#E)"><path fill="url(#F)" d="M18.957 10.761a1.692 1.692 0 1 0 3.384 0 1.692 1.692 0 1 0-3.384 0"/><path fill="url(#G)" d="M18.957 10.761a1.692 1.692 0 1 0 3.384 0 1.692 1.692 0 1 0-3.384 0"/></g><g filter="url(#H)"><path fill="#A57C70" d="M19.64 10.761a1.008 1.008 0 1 0 2.017 0 1.008 1.008 0 1 0-2.016 0"/><path fill="url(#I)" d="M19.64 10.761a1.008 1.008 0 1 0 2.017 0 1.008 1.008 0 1 0-2.016 0"/><path fill="url(#J)" d="M19.64 10.761a1.008 1.008 0 1 0 2.017 0 1.008 1.008 0 1 0-2.016 0"/></g><g filter="url(#K)"><path d="M10.653 10.14a.743.743 0 0 0 .05.002s-.055-.865-.109-1.46c0-.27.109-.594.326-.756l.163-.162c.272-.216.38-.54.38-.865v-.864c0-.27.164-.487.435-.54.653-.163 2.011-.433 3.968-.433 1.957 0 3.316.27 3.968.432.217.054.434.27.434.54V6.9c0 .325.164.649.381.865.509.357.477.553.435.973-.055.54-.109 1.459-.109 1.459h.018l-.269 4.01c-.163 1.794-1.572 3.044-3.253 3.044h-3.253c-1.735 0-3.09-1.25-3.253-3.043l-.312-4.067Z" fill="url(#L)"/><path d="M10.653 10.14a.743.743 0 0 0 .05.002s-.055-.865-.109-1.46c0-.27.109-.594.326-.756l.163-.162c.272-.216.38-.54.38-.865v-.864c0-.27.164-.487.435-.54.653-.163 2.011-.433 3.968-.433 1.957 0 3.316.27 3.968.432.217.054.434.27.434.54V6.9c0 .325.164.649.381.865.509.357.477.553.435.973-.055.54-.109 1.459-.109 1.459h.018l-.269 4.01c-.163 1.794-1.572 3.044-3.253 3.044h-3.253c-1.735 0-3.09-1.25-3.253-3.043l-.312-4.067Z" fill="url(#M)"/><path d="M10.653 10.14a.743.743 0 0 0 .05.002s-.055-.865-.109-1.46c0-.27.109-.594.326-.756l.163-.162c.272-.216.38-.54.38-.865v-.864c0-.27.164-.487.435-.54.653-.163 2.011-.433 3.968-.433 1.957 0 3.316.27 3.968.432.217.054.434.27.434.54V6.9c0 .325.164.649.381.865.509.357.477.553.435.973-.055.54-.109 1.459-.109 1.459h.018l-.269 4.01c-.163 1.794-1.572 3.044-3.253 3.044h-3.253c-1.735 0-3.09-1.25-3.253-3.043l-.312-4.067Z" fill="url(#N)"/></g><path d="M10.594 8.683c0-.27.109-.595.326-.757l.163-.162c.272-.216.38-.54.38-.865v-.864c0-.27.164-.487.435-.54.653-.163 2.011-.433 3.968-.433 1.957 0 3.316.27 3.968.432.217.054.434.27.434.54V6.9c0 .325.164.649.381.865.509.357.477.553.435.973-.055.54-.109 1.459-.109 1.459h.018l-.269 4.01c-.163 1.794-1.572 3.044-3.253 3.044h-3.253c-1.735 0-3.09-1.25-3.253-3.043-.141-1.84-.203-3.687-.371-5.524Z" fill="url(#O)"/><path d="M10.594 8.683c0-.27.109-.595.326-.757l.163-.162c.272-.216.38-.54.38-.865v-.864c0-.27.164-.487.435-.54.653-.163 2.011-.433 3.968-.433 1.957 0 3.316.27 3.968.432.217.054.434.27.434.54V6.9c0 .325.164.649.381.865.509.357.477.553.435.973-.055.54-.109 1.459-.109 1.459h.018l-.269 4.01c-.163 1.794-1.572 3.044-3.253 3.044h-3.253c-1.735 0-3.09-1.25-3.253-3.043-.141-1.84-.203-3.687-.371-5.524Z" fill="url(#P)"/><path d="M10.594 8.683c0-.27.109-.595.326-.757l.163-.162c.272-.216.38-.54.38-.865v-.864c0-.27.164-.487.435-.54.653-.163 2.011-.433 3.968-.433 1.957 0 3.316.27 3.968.432.217.054.434.27.434.54V6.9c0 .325.164.649.381.865.509.357.477.553.435.973-.055.54-.109 1.459-.109 1.459h.018l-.269 4.01c-.163 1.794-1.572 3.044-3.253 3.044h-3.253c-1.735 0-3.09-1.25-3.253-3.043-.141-1.84-.203-3.687-.371-5.524Z" fill="url(#Q)"/><g filter="url(#R)"><path d="m19.837 5.062-3.119 1.04a1.061 1.061 0 0 0 .477 2.058l3.1-.415-.458-2.683Z" fill="url(#S)"/></g><g filter="url(#T)"><path d="m20.703 4.197.435.216c.761.379 1.196 1.243 1.033 2.162l-.598 3.08c-.053.319-.264.533-.58.54h-.018s.054-.918.109-1.458c.044-.439-.033-.573-.435-.973-.217-.216-.38-.54-.38-.865v-.864c0-.27-.218-.487-.435-.54-.652-.163-2.011-.433-3.968-.433-1.957 0-3.315.27-3.968.432a.527.527 0 0 0-.434.54V6.9c0 .325-.11.649-.38.865l-.164.162c-.217.162-.326.487-.326.757.054.594.109 1.459.109 1.459-.017 0-.034 0-.05-.002a.642.642 0 0 1-.603-.538l-.597-3.08c-.11-.866.326-1.73 1.087-2.109l.434-.216c.272-.162.544-.378.816-.594l.978-1.027c.598-.54 1.467-.702 2.228-.324a2.98 2.98 0 0 0 1.685 0c.816-.27 1.74-.054 2.392.54l.815.81c.217.271.49.433.815.595Z" fill="#4F3332"/><path d="m20.703 4.197.435.216c.761.379 1.196 1.243 1.033 2.162l-.598 3.08c-.053.319-.264.533-.58.54h-.018s.054-.918.109-1.458c.044-.439-.033-.573-.435-.973-.217-.216-.38-.54-.38-.865v-.864c0-.27-.218-.487-.435-.54-.652-.163-2.011-.433-3.968-.433-1.957 0-3.315.27-3.968.432a.527.527 0 0 0-.434.54V6.9c0 .325-.11.649-.38.865l-.164.162c-.217.162-.326.487-.326.757.054.594.109 1.459.109 1.459-.017 0-.034 0-.05-.002a.642.642 0 0 1-.603-.538l-.597-3.08c-.11-.866.326-1.73 1.087-2.109l.434-.216c.272-.162.544-.378.816-.594l.978-1.027c.598-.54 1.467-.702 2.228-.324a2.98 2.98 0 0 0 1.685 0c.816-.27 1.74-.054 2.392.54l.815.81c.217.271.49.433.815.595Z" fill="url(#U)"/><path d="m20.703 4.197.435.216c.761.379 1.196 1.243 1.033 2.162l-.598 3.08c-.053.319-.264.533-.58.54h-.018s.054-.918.109-1.458c.044-.439-.033-.573-.435-.973-.217-.216-.38-.54-.38-.865v-.864c0-.27-.218-.487-.435-.54-.652-.163-2.011-.433-3.968-.433-1.957 0-3.315.27-3.968.432a.527.527 0 0 0-.434.54V6.9c0 .325-.11.649-.38.865l-.164.162c-.217.162-.326.487-.326.757.054.594.109 1.459.109 1.459-.017 0-.034 0-.05-.002a.642.642 0 0 1-.603-.538l-.597-3.08c-.11-.866.326-1.73 1.087-2.109l.434-.216c.272-.162.544-.378.816-.594l.978-1.027c.598-.54 1.467-.702 2.228-.324a2.98 2.98 0 0 0 1.685 0c.816-.27 1.74-.054 2.392.54l.815.81c.217.271.49.433.815.595Z" fill="url(#V)"/><path d="m20.703 4.197.435.216c.761.379 1.196 1.243 1.033 2.162l-.598 3.08c-.053.319-.264.533-.58.54h-.018s.054-.918.109-1.458c.044-.439-.033-.573-.435-.973-.217-.216-.38-.54-.38-.865v-.864c0-.27-.218-.487-.435-.54-.652-.163-2.011-.433-3.968-.433-1.957 0-3.315.27-3.968.432a.527.527 0 0 0-.434.54V6.9c0 .325-.11.649-.38.865l-.164.162c-.217.162-.326.487-.326.757.054.594.109 1.459.109 1.459-.017 0-.034 0-.05-.002a.642.642 0 0 1-.603-.538l-.597-3.08c-.11-.866.326-1.73 1.087-2.109l.434-.216c.272-.162.544-.378.816-.594l.978-1.027c.598-.54 1.467-.702 2.228-.324a2.98 2.98 0 0 0 1.685 0c.816-.27 1.74-.054 2.392.54l.815.81c.217.271.49.433.815.595Z" fill="url(#W)"/><path d="m20.703 4.197.435.216c.761.379 1.196 1.243 1.033 2.162l-.598 3.08c-.053.319-.264.533-.58.54h-.018s.054-.918.109-1.458c.044-.439-.033-.573-.435-.973-.217-.216-.38-.54-.38-.865v-.864c0-.27-.218-.487-.435-.54-.652-.163-2.011-.433-3.968-.433-1.957 0-3.315.27-3.968.432a.527.527 0 0 0-.434.54V6.9c0 .325-.11.649-.38.865l-.164.162c-.217.162-.326.487-.326.757.054.594.109 1.459.109 1.459-.017 0-.034 0-.05-.002a.642.642 0 0 1-.603-.538l-.597-3.08c-.11-.866.326-1.73 1.087-2.109l.434-.216c.272-.162.544-.378.816-.594l.978-1.027c.598-.54 1.467-.702 2.228-.324a2.98 2.98 0 0 0 1.685 0c.816-.27 1.74-.054 2.392.54l.815.81c.217.271.49.433.815.595Z" fill="url(#X)"/></g><g filter="url(#Y)"><path d="m15.541 10.637-.83 1.722c-.104.355.143.709.494.709h.747c.35 0 .597-.36.494-.709l-.505-1.722c-.108-.381-.286-.381-.4 0Z" fill="#87565C"/></g><g filter="url(#Z)"><path d="m15.433 10.472-.538 1.722a.546.546 0 0 0 .527.709h.797c.373 0 .637-.36.527-.709l-.538-1.722c-.116-.382-.654-.382-.775 0Z" fill="#B7877D"/><path d="m15.433 10.472-.538 1.722a.546.546 0 0 0 .527.709h.797c.373 0 .637-.36.527-.709l-.538-1.722c-.116-.382-.654-.382-.775 0Z" fill="url(#aa)"/><path d="m15.433 10.472-.538 1.722a.546.546 0 0 0 .527.709h.797c.373 0 .637-.36.527-.709l-.538-1.722c-.116-.382-.654-.382-.775 0Z" fill="url(#ab)"/><path d="m15.433 10.472-.538 1.722a.546.546 0 0 0 .527.709h.797c.373 0 .637-.36.527-.709l-.538-1.722c-.116-.382-.654-.382-.775 0Z" fill="url(#ac)"/><path d="m15.433 10.472-.538 1.722a.546.546 0 0 0 .527.709h.797c.373 0 .637-.36.527-.709l-.538-1.722c-.116-.382-.654-.382-.775 0Z" fill="url(#ad)"/></g><path d="m15.433 10.472-.538 1.722a.546.546 0 0 0 .527.709h.797c.373 0 .637-.36.527-.709l-.538-1.722c-.116-.382-.654-.382-.775 0Z" fill="url(#ae)"/><path d="M17.466 13.84a.19.19 0 0 0-.02-.245.205.205 0 0 0-.245-.04 2.979 2.979 0 0 1-1.38.328c-.507 0-.982-.12-1.38-.328h-.001a.205.205 0 0 0-.244.043.189.189 0 0 0-.02.241m3.29 0-.042-.027.042.027Zm0 0c-.348.528-.955.88-1.646.88-.69 0-1.297-.352-1.645-.88m0 0v.001l.041-.028m-.04.027h-.001l.041-.027m0 0c.34.514.931.857 1.604.857.674 0 1.265-.343 1.604-.857.088-.132-.061-.283-.2-.212a3.029 3.029 0 0 1-1.404.332c-.514 0-.997-.12-1.403-.332-.139-.07-.288.085-.2.212Z" fill="#88024E" stroke="url(#af)" stroke-width=".1"/><g filter="url(#ag)"><path d="m19.59 8.005-.002-.001-.002-.002L19.581 8l-.012-.01a1.508 1.508 0 0 0-.157-.109 2.618 2.618 0 0 0-.425-.214 2.87 2.87 0 0 0-1.512-.16.54.54 0 1 0 .168 1.068c.403-.063.726.011.946.098a1.535 1.535 0 0 1 .313.168.54.54 0 0 0 .687-.835Z" fill="#4C3230"/><path d="m19.59 8.005-.002-.001-.002-.002L19.581 8l-.012-.01a1.508 1.508 0 0 0-.157-.109 2.618 2.618 0 0 0-.425-.214 2.87 2.87 0 0 0-1.512-.16.54.54 0 1 0 .168 1.068c.403-.063.726.011.946.098a1.535 1.535 0 0 1 .313.168.54.54 0 0 0 .687-.835Z" fill="url(#ah)"/></g><g filter="url(#ai)"><path d="M11.997 8.005 12 8.004 12 8.002 12.005 8l.012-.01.037-.028c.03-.021.07-.05.12-.081.1-.063.244-.142.425-.214a2.87 2.87 0 0 1 1.513-.16.54.54 0 1 1-.169 1.068 1.79 1.79 0 0 0-.946.098 1.535 1.535 0 0 0-.312.168.54.54 0 0 1-.688-.835Z" fill="#4C3230"/><path d="M11.997 8.005 12 8.004 12 8.002 12.005 8l.012-.01.037-.028c.03-.021.07-.05.12-.081.1-.063.244-.142.425-.214a2.87 2.87 0 0 1 1.513-.16.54.54 0 1 1-.169 1.068 1.79 1.79 0 0 0-.946.098 1.535 1.535 0 0 0-.312.168.54.54 0 0 1-.688-.835Z" fill="url(#aj)"/></g><path d="M18.24 9.312c.662 0 1.22.456 1.372 1.072a.278.278 0 0 1-.27.345H17.08a.233.233 0 0 1-.23-.275 1.416 1.416 0 0 1 1.389-1.142Z" fill="#fff"/><path d="M18.03 9.587a.904.904 0 0 1 .871 1.142h-1.746a.908.908 0 0 1 .875-1.142Z" fill="url(#ak)"/><path d="M17.512 10.49c0-.287.23-.517.518-.517a.516.516 0 0 1 .46.756h-.916a.468.468 0 0 1-.062-.238Z" fill="#000"/><g filter="url(#al)"><path d="M17.964 9.778c.064.086-.07.191-.224.306-.153.114-.266.194-.33.108-.065-.086.007-.248.16-.363.153-.114.33-.137.394-.051Z" fill="#C7A7A3"/><path d="M17.964 9.778c.064.086-.07.191-.224.306-.153.114-.266.194-.33.108-.065-.086.007-.248.16-.363.153-.114.33-.137.394-.051Z" fill="url(#am)"/></g><g filter="url(#an)"><path d="M18.835 10.372a.851.851 0 0 0-.234-.469l-.263.289.119.231.378-.051Z" fill="url(#ao)"/></g><path d="M13.396 9.311c-.662 0-1.221.456-1.373 1.073a.278.278 0 0 0 .271.345h2.26a.233.233 0 0 0 .23-.275 1.42 1.42 0 0 0-1.388-1.143Z" fill="#fff"/><path d="M13.605 9.587a.904.904 0 0 0-.871 1.142h1.747a.929.929 0 0 0 .033-.238.91.91 0 0 0-.909-.904Z" fill="url(#ap)"/><path d="M14.123 10.49a.516.516 0 0 0-.518-.517.516.516 0 0 0-.46.756h.916a.513.513 0 0 0 .062-.238Z" fill="#000"/><g filter="url(#aq)"><path d="M14.431 10.385c0-.293-.237-.487-.301-.546l-.293.282.18.366.414-.102Z" fill="url(#ar)"/></g><g filter="url(#as)"><path fill="#C7A7A3" fill-opacity=".9" d="M12.984 10.158a.395.2-27.914 1 0 .697-.37.395.2-27.914 1 0-.697.37"/><path transform="rotate(-27.914 13.332 9.973)" fill="url(#at)" d="M12.938 9.973a.395.2 0 1 0 .79 0 .395.2 0 1 0-.79 0"/></g><g filter="url(#au)"><path d="M17.503 7.858c.436-.076 1.285-.054 1.874.404" stroke="url(#av)" stroke-width=".25" stroke-linecap="round"/></g><g filter="url(#aw)"><path d="M12.214 8.384c.332-.293 1.055-.602 1.953-.459" stroke="url(#ax)" stroke-width=".25" stroke-linecap="round"/></g><g filter="url(#ay)"><path d="M11.227 5.886v.91c-.008.15-.071.487-.261.63" stroke="url(#az)" stroke-width=".25" stroke-linecap="round"/></g><defs><radialGradient id="a" cx="0" cy="0" r="1" gradientUnits="userSpaceOnUse" gradientTransform="matrix(3.59375 -2.4375 2.72822 4.02238 6.877 17.33)"><stop stop-color="#E1DAE6"/><stop offset="1" stop-color="#E6DEE6"/></radialGradient><radialGradient id="b" cx="0" cy="0" r="1" gradientUnits="userSpaceOnUse" gradientTransform="matrix(-.01562 -1.76562 2.48224 -.02197 8.596 17.83)"><stop offset=".384" stop-color="#DAD4DE"/><stop offset="1" stop-color="#DAD4DE" stop-opacity="0"/></radialGradient><radialGradient id="c" cx="0" cy="0" r="1" gradientUnits="userSpaceOnUse" gradientTransform="matrix(-5.47138 9.4622 -7.02133 -4.05998 10.46 19.268)"><stop stop-color="#E0D6E3"/><stop offset="1" stop-color="#D5C4DF"/></radialGradient><radialGradient id="d" cx="0" cy="0" r="1" gradientUnits="userSpaceOnUse" gradientTransform="rotate(44.444 -1.585 1.225) scale(4.68833)"><stop stop-color="#FBF7FF"/><stop offset=".836" stop-color="#F2E8F1"/></radialGradient><radialGradient id="e" cx="0" cy="0" r="1" gradientUnits="userSpaceOnUse" gradientTransform="matrix(-.03125 -1.59375 5.11385 -.10027 2.316 5.313)"><stop offset=".201" stop-color="#E8DEE9"/><stop offset="1" stop-color="#E8DEE9" stop-opacity="0"/></radialGradient><radialGradient id="f" cx="0" cy="0" r="1" gradientUnits="userSpaceOnUse" gradientTransform="rotate(55.985 -.49 1.892) scale(8.85283 12.8565)"><stop offset=".192" stop-color="#F3EBFE"/><stop offset=".819" stop-color="#DAC9F0"/></radialGradient><radialGradient id="g" cx="0" cy="0" r="1" gradientUnits="userSpaceOnUse" gradientTransform="matrix(-1.35939 5.78125 -6.81223 -1.6018 23.096 22.58)"><stop stop-color="#469FF7"/><stop offset="1" stop-color="#3984F1"/></radialGradient><radialGradient id="j" cx="0" cy="0" r="1" gradientUnits="userSpaceOnUse" gradientTransform="rotate(49.58 -20.954 18.108) scale(10.6026 14.7076)"><stop stop-color="#4488CB"/><stop offset="1" stop-color="#2878EA"/></radialGradient><radialGradient id="l" cx="0" cy="0" r="1" gradientUnits="userSpaceOnUse" gradientTransform="rotate(136.439 3.601 10.943) scale(4.39871 9.16434)"><stop offset=".208" stop-color="#1D4C88"/><stop offset="1" stop-color="#296094" stop-opacity="0"/></radialGradient><radialGradient id="n" cx="0" cy="0" r="1" gradientUnits="userSpaceOnUse" gradientTransform="matrix(-4.82764 -11.66358 1.33169 -.5512 15.957 28.962)"><stop offset=".318" stop-color="#4690E8"/><stop offset="1" stop-color="#4690E8" stop-opacity="0"/></radialGradient><radialGradient id="p" cx="0" cy="0" r="1" gradientUnits="userSpaceOnUse" gradientTransform="matrix(-1.37282 -3.155 .92095 -.40073 16.346 27.58)"><stop stop-color="#214186"/><stop offset="1" stop-color="#1F78C3" stop-opacity="0"/></radialGradient><radialGradient id="q" cx="0" cy="0" r="1" gradientUnits="userSpaceOnUse" gradientTransform="matrix(-1.15863 -1.17796 1.62432 -1.59766 14.335 18.515)"><stop offset=".328" stop-color="#083169"/><stop offset="1" stop-color="#18467E" stop-opacity="0"/></radialGradient><radialGradient id="s" cx="0" cy="0" r="1" gradientUnits="userSpaceOnUse" gradientTransform="matrix(2.01563 -.67188 .83418 2.50254 17.502 18.33)"><stop offset=".374" stop-color="#114273"/><stop offset="1" stop-color="#245A89" stop-opacity="0"/></radialGradient><radialGradient id="t" cx="0" cy="0" r="1" gradientUnits="userSpaceOnUse" gradientTransform="rotate(110.875 2.49 18.294) scale(11.8396 2.00952)"><stop stop-color="#4A9CF7"/><stop offset="1" stop-color="#4695F7" stop-opacity="0"/></radialGradient><radialGradient id="w" cx="0" cy="0" r="1" gradientUnits="userSpaceOnUse" gradientTransform="matrix(1.8051 1.75 -2.19055 2.25952 13.183 17.204)"><stop offset=".047" stop-color="#72372A"/><stop offset="1" stop-color="#865144" stop-opacity="0"/></radialGradient><radialGradient id="x" cx="0" cy="0" r="1" gradientUnits="userSpaceOnUse" gradientTransform="matrix(0 3.01211 -.75995 0 16.65 16.221)"><stop stop-color="#A3776E"/><stop offset="1" stop-color="#B68A79" stop-opacity="0"/></radialGradient><radialGradient id="A" cx="0" cy="0" r="1" gradientUnits="userSpaceOnUse" gradientTransform="matrix(1.77815 0 0 3.11179 9.318 10.761)"><stop offset=".351" stop-color="#865D5F"/><stop offset="1" stop-color="#76594A"/></radialGradient><radialGradient id="B" cx="0" cy="0" r="1" gradientUnits="userSpaceOnUse" gradientTransform="rotate(-124.98 8.747 3.36) scale(1.67873)"><stop offset=".34" stop-color="#834E63"/><stop offset="1" stop-color="#834E63" stop-opacity="0"/></radialGradient><radialGradient id="G" cx="0" cy="0" r="1" gradientUnits="userSpaceOnUse" gradientTransform="matrix(.83768 -.60996 .69619 .9561 21.026 10.493)"><stop offset=".543" stop-color="#8F6459"/><stop offset="1" stop-color="#8F6459" stop-opacity="0"/></radialGradient><radialGradient id="I" cx="0" cy="0" r="1" gradientUnits="userSpaceOnUse" gradientTransform="matrix(.83216 -1.53058 .89585 .48707 20.607 11.593)"><stop offset=".755" stop-color="#8A5D55" stop-opacity="0"/><stop offset=".916" stop-color="#8A5D55"/></radialGradient><radialGradient id="J" cx="0" cy="0" r="1" gradientUnits="userSpaceOnUse" gradientTransform="matrix(.26273 .26006 -.33526 .3387 20.649 10.761)"><stop stop-color="#895F52"/><stop offset="1" stop-color="#895F52" stop-opacity="0"/></radialGradient><radialGradient id="M" cx="0" cy="0" r="1" gradientUnits="userSpaceOnUse" gradientTransform="matrix(0 -1.32443 1.63006 0 18.198 9.473)"><stop stop-color="#AB7773"/><stop offset="1" stop-color="#AB7773" stop-opacity="0"/></radialGradient><radialGradient id="N" cx="0" cy="0" r="1" gradientUnits="userSpaceOnUse" gradientTransform="matrix(0 -1.39235 1.73151 0 13.58 9.609)"><stop stop-color="#8F5D65"/><stop offset="1" stop-color="#8F5D65" stop-opacity="0"/></radialGradient><radialGradient id="Q" cx="0" cy="0" r="1" gradientUnits="userSpaceOnUse" gradientTransform="matrix(0 8.43898 -10.4596 0 15.69 9.207)"><stop offset=".608" stop-color="#9B7168" stop-opacity="0"/><stop offset=".884" stop-color="#8F5D78"/><stop offset="1" stop-color="#7C5267"/></radialGradient><radialGradient id="U" cx="0" cy="0" r="1" gradientUnits="userSpaceOnUse" gradientTransform="matrix(.8084 -2.99586 1.11095 .29978 20.223 6.6)"><stop stop-color="#554042"/><stop offset="1" stop-color="#554042" stop-opacity="0"/></radialGradient><radialGradient id="V" cx="0" cy="0" r="1" gradientUnits="userSpaceOnUse" gradientTransform="matrix(3.8756 .35665 -.19177 2.08388 18.559 4.817)"><stop offset=".392" stop-color="#644949"/><stop offset="1" stop-color="#644949" stop-opacity="0"/></radialGradient><radialGradient id="W" cx="0" cy="0" r="1" gradientUnits="userSpaceOnUse" gradientTransform="matrix(0 1.70146 -2.63508 0 15.82 2.046)"><stop stop-color="#624C49"/><stop offset="1" stop-color="#624C49" stop-opacity="0"/></radialGradient><radialGradient id="X" cx="0" cy="0" r="1" gradientUnits="userSpaceOnUse" gradientTransform="rotate(-36.235 18.327 -9.714) scale(3.86157 6.04981)"><stop stop-color="#4E3C3A"/><stop offset="1" stop-color="#4E3C3A" stop-opacity="0"/></radialGradient><radialGradient id="ad" cx="0" cy="0" r="1" gradientUnits="userSpaceOnUse" gradientTransform="matrix(0 .19951 -.64099 0 16.152 12.389)"><stop stop-color="#C39787"/><stop offset="1" stop-color="#C39787" stop-opacity="0"/></radialGradient><radialGradient id="ah" cx="0" cy="0" r="1" gradientUnits="userSpaceOnUse" gradientTransform="matrix(.10558 -.61127 1.8084 .31234 18.295 8.65)"><stop stop-color="#422235"/><stop offset="1" stop-color="#422235" stop-opacity="0"/></radialGradient><radialGradient id="aj" cx="0" cy="0" r="1" gradientUnits="userSpaceOnUse" gradientTransform="matrix(.10558 -.61127 1.8085 .31238 13.08 8.65)"><stop stop-color="#422235"/><stop offset="1" stop-color="#422235" stop-opacity="0"/></radialGradient><radialGradient id="ak" cx="0" cy="0" r="1" gradientUnits="userSpaceOnUse" gradientTransform="matrix(0 .8219 -1.30732 0 18.028 10.07)"><stop offset=".802" stop-color="#7D574A"/><stop offset="1" stop-color="#694B43"/><stop offset="1" stop-color="#804D49"/><stop offset="1" stop-color="#664944"/></radialGradient><radialGradient id="am" cx="0" cy="0" r="1" gradientUnits="userSpaceOnUse" gradientTransform="matrix(-.23494 -.30275 .41682 -.32346 17.797 10.155)"><stop offset=".766" stop-color="#FFE6E2" stop-opacity="0"/><stop offset=".966" stop-color="#FFE6E2"/></radialGradient><radialGradient id="ap" cx="0" cy="0" r="1" gradientUnits="userSpaceOnUse" gradientTransform="matrix(0 .82194 -1.30739 0 13.607 10.07)"><stop offset=".802" stop-color="#7D574A"/><stop offset="1" stop-color="#694B43"/><stop offset="1" stop-color="#804D49"/><stop offset="1" stop-color="#664944"/></radialGradient><radialGradient id="at" cx="0" cy="0" r="1" gradientUnits="userSpaceOnUse" gradientTransform="rotate(-90.897 11.725 -1.41) scale(.50059 .60172)"><stop offset=".766" stop-color="#FFE6E2" stop-opacity="0"/><stop offset=".966" stop-color="#FFE6E2"/></radialGradient><linearGradient id="h" x1="24.158" y1="30.329" x2="24.189" y2="26.673" gradientUnits="userSpaceOnUse"><stop offset=".078" stop-color="#286AF0"/><stop offset="1" stop-color="#3A87F2" stop-opacity="0"/></linearGradient><linearGradient id="i" x1="18.12" y1="27.765" x2="19.472" y2="28.151" gradientUnits="userSpaceOnUse"><stop stop-color="#2F6FEC"/><stop offset="1" stop-color="#2F6FEC" stop-opacity="0"/></linearGradient><linearGradient id="k" x1="13.928" y1="28.493" x2="11.678" y2="29.275" gradientUnits="userSpaceOnUse"><stop stop-color="#1D63C8"/><stop offset="1" stop-color="#2772E0" stop-opacity="0"/></linearGradient><linearGradient id="m" x1="12.314" y1="27.392" x2="13.689" y2="26.829" gradientUnits="userSpaceOnUse"><stop offset=".223" stop-color="#3A7CD9"/><stop offset="1" stop-color="#3A7CD9" stop-opacity="0"/></linearGradient><linearGradient id="o" x1="15.627" y1="30.173" x2="14.22" y2="29.486" gradientUnits="userSpaceOnUse"><stop offset=".208" stop-color="#236DD3"/><stop offset="1" stop-color="#236DD3" stop-opacity="0"/></linearGradient><linearGradient id="r" x1="16.002" y1="24.829" x2="18.033" y2="25.736" gradientUnits="userSpaceOnUse"><stop stop-color="#4B6B9A"/><stop offset="1" stop-color="#4B6B9A" stop-opacity="0"/></linearGradient><linearGradient id="v" x1="16.378" y1="25.145" x2="16.378" y2="15.619" gradientUnits="userSpaceOnUse"><stop stop-color="#B2806F"/><stop offset="1" stop-color="#A77C63"/></linearGradient><linearGradient id="D" x1="11.01" y1="11.043" x2="10.361" y2="11.043" gradientUnits="userSpaceOnUse"><stop stop-color="#694448"/><stop offset="1" stop-color="#6E464D"/></linearGradient><linearGradient id="F" x1="21.75" y1="9.655" x2="20.92" y2="12.225" gradientUnits="userSpaceOnUse"><stop stop-color="#CCA68C"/><stop offset="1" stop-color="#AE7F75"/></linearGradient><linearGradient id="L" x1="19.91" y1="11.156" x2="12.172" y2="12.309" gradientUnits="userSpaceOnUse"><stop stop-color="#C69980"/><stop offset="1" stop-color="#916762"/></linearGradient><linearGradient id="O" x1="10.353" y1="13.887" x2="12.259" y2="13.82" gradientUnits="userSpaceOnUse"><stop stop-color="#9B7569"/><stop offset="1" stop-color="#9B7569" stop-opacity="0"/></linearGradient><linearGradient id="P" x1="20.807" y1="13.035" x2="19.68" y2="12.937" gradientUnits="userSpaceOnUse"><stop stop-color="#C1987F"/><stop offset="1" stop-color="#C1987F" stop-opacity="0"/></linearGradient><linearGradient id="S" x1="15.282" y1="8.131" x2="23.534" y2="5.177" gradientUnits="userSpaceOnUse"><stop stop-color="#C89F8B"/><stop offset="1" stop-color="#C89F8B" stop-opacity="0"/></linearGradient><linearGradient id="aa" x1="14.945" y1="11.824" x2="15.896" y2="11.824" gradientUnits="userSpaceOnUse"><stop stop-color="#8B6455"/><stop offset="1" stop-color="#8B6455" stop-opacity="0"/></linearGradient><linearGradient id="ab" x1="16.771" y1="12.15" x2="15.732" y2="12.136" gradientUnits="userSpaceOnUse"><stop stop-color="#CDA186"/><stop offset="1" stop-color="#CDA186" stop-opacity="0"/></linearGradient><linearGradient id="ac" x1="16.018" y1="12.903" x2="16.018" y2="12.322" gradientUnits="userSpaceOnUse"><stop stop-color="#9C6073"/><stop offset="1" stop-color="#9C6073" stop-opacity="0"/></linearGradient><linearGradient id="ae" x1="15.948" y1="12.945" x2="15.948" y2="12.775" gradientUnits="userSpaceOnUse"><stop stop-color="#8E5263"/><stop offset="1" stop-color="#8E5263" stop-opacity="0"/></linearGradient><linearGradient id="af" x1="14.77" y1="14.539" x2="15.21" y2="13.842" gradientUnits="userSpaceOnUse"><stop stop-color="#A87D7B"/><stop offset=".663" stop-color="#A87D7B" stop-opacity="0"/></linearGradient><linearGradient id="ao" x1="18.816" y1="10.125" x2="18.498" y2="10.32" gradientUnits="userSpaceOnUse"><stop stop-color="#B4948D"/><stop offset="1" stop-color="#B4948D" stop-opacity="0"/></linearGradient><linearGradient id="ar" x1="14.361" y1="10.125" x2="14.043" y2="10.32" gradientUnits="userSpaceOnUse"><stop stop-color="#B4948D"/><stop offset="1" stop-color="#B4948D" stop-opacity="0"/></linearGradient><linearGradient id="av" x1="18.832" y1="7.956" x2="18.406" y2="7.086" gradientUnits="userSpaceOnUse"><stop stop-color="#5B4545"/><stop offset="1" stop-color="#5B4545" stop-opacity="0"/></linearGradient><linearGradient id="ax" x1="13.457" y1="7.827" x2="12.252" y2="7.322" gradientUnits="userSpaceOnUse"><stop stop-color="#5B4545"/><stop offset="1" stop-color="#5B4545" stop-opacity="0"/></linearGradient><linearGradient id="az" x1="11.097" y1="5.786" x2="11.097" y2="7.971" gradientUnits="userSpaceOnUse"><stop offset=".228" stop-color="#4A3236"/><stop offset="1" stop-color="#4A3236" stop-opacity="0"/></linearGradient><filter id="u" x="12.293" y="16.517" width="6.906" height="10.938" filterUnits="userSpaceOnUse" color-interpolation-filters="sRGB"><feFlood flood-opacity="0" result="BackgroundImageFix"/><feBlend in="SourceGraphic" in2="BackgroundImageFix" result="shape"/><feColorMatrix in="SourceAlpha" values="0 0 0 0 0 0 0 0 0 0 0 0 0 0 0 0 0 0 127 0" result="hardAlpha"/><feOffset dx="-.25"/><feGaussianBlur stdDeviation=".5"/><feComposite in2="hardAlpha" operator="arithmetic" k2="-1" k3="1"/><feColorMatrix values="0 0 0 0 0.513726 0 0 0 0 0.329412 0 0 0 0 0.266667 0 0 0 1 0"/><feBlend in2="shape" result="effect1_innerShadow_4002_787"/></filter><filter id="y" x="15.251" y="17.275" width="3.075" height="1.977" filterUnits="userSpaceOnUse" color-interpolation-filters="sRGB"><feFlood flood-opacity="0" result="BackgroundImageFix"/><feBlend in="SourceGraphic" in2="BackgroundImageFix" result="shape"/><feGaussianBlur stdDeviation=".3" result="effect1_foregroundBlur_4002_787"/></filter><filter id="z" x="9.318" y="9.069" width="3.583" height="3.383" filterUnits="userSpaceOnUse" color-interpolation-filters="sRGB"><feFlood flood-opacity="0" result="BackgroundImageFix"/><feBlend in="SourceGraphic" in2="BackgroundImageFix" result="shape"/><feColorMatrix in="SourceAlpha" values="0 0 0 0 0 0 0 0 0 0 0 0 0 0 0 0 0 0 127 0" result="hardAlpha"/><feOffset dx=".2"/><feGaussianBlur stdDeviation=".15"/><feComposite in2="hardAlpha" operator="arithmetic" k2="-1" k3="1"/><feColorMatrix values="0 0 0 0 0.619608 0 0 0 0 0.470588 0 0 0 0 0.407843 0 0 0 1 0"/><feBlend in2="shape" result="effect1_innerShadow_4002_787"/></filter><filter id="C" x="9.501" y="9.253" width="3.016" height="3.016" filterUnits="userSpaceOnUse" color-interpolation-filters="sRGB"><feFlood flood-opacity="0" result="BackgroundImageFix"/><feBlend in="SourceGraphic" in2="BackgroundImageFix" result="shape"/><feGaussianBlur stdDeviation=".25" result="effect1_foregroundBlur_4002_787"/></filter><filter id="E" x="18.957" y="8.819" width="3.633" height="3.633" filterUnits="userSpaceOnUse" color-interpolation-filters="sRGB"><feFlood flood-opacity="0" result="BackgroundImageFix"/><feBlend in="SourceGraphic" in2="BackgroundImageFix" result="shape"/><feColorMatrix in="SourceAlpha" values="0 0 0 0 0 0 0 0 0 0 0 0 0 0 0 0 0 0 127 0" result="hardAlpha"/><feOffset dx=".25" dy="-.25"/><feGaussianBlur stdDeviation=".25"/><feComposite in2="hardAlpha" operator="arithmetic" k2="-1" k3="1"/><feColorMatrix values="0 0 0 0 0.584314 0 0 0 0 0.368627 0 0 0 0 0.470588 0 0 0 1 0"/><feBlend in2="shape" result="effect1_innerShadow_4002_787"/></filter><filter id="H" x="19.141" y="9.253" width="3.016" height="3.016" filterUnits="userSpaceOnUse" color-interpolation-filters="sRGB"><feFlood flood-opacity="0" result="BackgroundImageFix"/><feBlend in="SourceGraphic" in2="BackgroundImageFix" result="shape"/><feGaussianBlur stdDeviation=".25" result="effect1_foregroundBlur_4002_787"/></filter><filter id="K" x="10.594" y="5.062" width="10.511" height="12.338" filterUnits="userSpaceOnUse" color-interpolation-filters="sRGB"><feFlood flood-opacity="0" result="BackgroundImageFix"/><feBlend in="SourceGraphic" in2="BackgroundImageFix" result="shape"/><feColorMatrix in="SourceAlpha" values="0 0 0 0 0 0 0 0 0 0 0 0 0 0 0 0 0 0 127 0" result="hardAlpha"/><feOffset dy=".15"/><feGaussianBlur stdDeviation=".125"/><feComposite in2="hardAlpha" operator="arithmetic" k2="-1" k3="1"/><feColorMatrix values="0 0 0 0 0.305882 0 0 0 0 0.2 0 0 0 0 0.172549 0 0 0 1 0"/><feBlend in2="shape" result="effect1_innerShadow_4002_787"/></filter><filter id="R" x="13.993" y="3.062" width="8.302" height="7.107" filterUnits="userSpaceOnUse" color-interpolation-filters="sRGB"><feFlood flood-opacity="0" result="BackgroundImageFix"/><feBlend in="SourceGraphic" in2="BackgroundImageFix" result="shape"/><feGaussianBlur stdDeviation="1" result="effect1_foregroundBlur_4002_787"/></filter><filter id="T" x="9.436" y="1.546" width="12.769" height="8.65" filterUnits="userSpaceOnUse" color-interpolation-filters="sRGB"><feFlood flood-opacity="0" result="BackgroundImageFix"/><feBlend in="SourceGraphic" in2="BackgroundImageFix" result="shape"/><feColorMatrix in="SourceAlpha" values="0 0 0 0 0 0 0 0 0 0 0 0 0 0 0 0 0 0 127 0" result="hardAlpha"/><feOffset dy="-.5"/><feGaussianBlur stdDeviation=".375"/><feComposite in2="hardAlpha" operator="arithmetic" k2="-1" k3="1"/><feColorMatrix values="0 0 0 0 0.207843 0 0 0 0 0.109804 0 0 0 0 0.109804 0 0 0 1 0"/><feBlend in2="shape" result="effect1_innerShadow_4002_787"/></filter><filter id="Y" x="13.937" y="9.601" width="3.283" height="4.217" filterUnits="userSpaceOnUse" color-interpolation-filters="sRGB"><feFlood flood-opacity="0" result="BackgroundImageFix"/><feBlend in="SourceGraphic" in2="BackgroundImageFix" result="shape"/><feGaussianBlur stdDeviation=".375" result="effect1_foregroundBlur_4002_787"/></filter><filter id="Z" x="14.62" y="9.936" width="2.402" height="3.217" filterUnits="userSpaceOnUse" color-interpolation-filters="sRGB"><feFlood flood-opacity="0" result="BackgroundImageFix"/><feBlend in="SourceGraphic" in2="BackgroundImageFix" result="shape"/><feGaussianBlur stdDeviation=".125" result="effect1_foregroundBlur_4002_787"/></filter><filter id="ag" x="17.018" y="7.069" width="3.016" height="1.892" filterUnits="userSpaceOnUse" color-interpolation-filters="sRGB"><feFlood flood-opacity="0" result="BackgroundImageFix"/><feBlend in="SourceGraphic" in2="BackgroundImageFix" result="shape"/><feColorMatrix in="SourceAlpha" values="0 0 0 0 0 0 0 0 0 0 0 0 0 0 0 0 0 0 127 0" result="hardAlpha"/><feOffset dx=".25" dy="-.4"/><feGaussianBlur stdDeviation=".3"/><feComposite in2="hardAlpha" operator="arithmetic" k2="-1" k3="1"/><feColorMatrix values="0 0 0 0 0.254902 0 0 0 0 0.156863 0 0 0 0 0.152941 0 0 0 1 0"/><feBlend in2="shape" result="effect1_innerShadow_4002_787"/></filter><filter id="ai" x="11.802" y="7.069" width="3.016" height="1.892" filterUnits="userSpaceOnUse" color-interpolation-filters="sRGB"><feFlood flood-opacity="0" result="BackgroundImageFix"/><feBlend in="SourceGraphic" in2="BackgroundImageFix" result="shape"/><feColorMatrix in="SourceAlpha" values="0 0 0 0 0 0 0 0 0 0 0 0 0 0 0 0 0 0 127 0" result="hardAlpha"/><feOffset dx=".25" dy="-.4"/><feGaussianBlur stdDeviation=".3"/><feComposite in2="hardAlpha" operator="arithmetic" k2="-1" k3="1"/><feColorMatrix values="0 0 0 0 0.254902 0 0 0 0 0.156863 0 0 0 0 0.152941 0 0 0 1 0"/><feBlend in2="shape" result="effect1_innerShadow_4002_787"/></filter><filter id="al" x="17.286" y="9.626" width=".794" height=".703" filterUnits="userSpaceOnUse" color-interpolation-filters="sRGB"><feFlood flood-opacity="0" result="BackgroundImageFix"/><feBlend in="SourceGraphic" in2="BackgroundImageFix" result="shape"/><feGaussianBlur stdDeviation=".05" result="effect1_foregroundBlur_4002_787"/></filter><filter id="an" x="18.138" y="9.703" width=".898" height=".92" filterUnits="userSpaceOnUse" color-interpolation-filters="sRGB"><feFlood flood-opacity="0" result="BackgroundImageFix"/><feBlend in="SourceGraphic" in2="BackgroundImageFix" result="shape"/><feGaussianBlur stdDeviation=".1" result="effect1_foregroundBlur_4002_787"/></filter><filter id="aq" x="13.637" y="9.639" width=".994" height="1.049" filterUnits="userSpaceOnUse" color-interpolation-filters="sRGB"><feFlood flood-opacity="0" result="BackgroundImageFix"/><feBlend in="SourceGraphic" in2="BackgroundImageFix" result="shape"/><feGaussianBlur stdDeviation=".1" result="effect1_foregroundBlur_4002_787"/></filter><filter id="as" x="12.871" y="9.617" width=".922" height=".711" filterUnits="userSpaceOnUse" color-interpolation-filters="sRGB"><feFlood flood-opacity="0" result="BackgroundImageFix"/><feBlend in="SourceGraphic" in2="BackgroundImageFix" result="shape"/><feGaussianBlur stdDeviation=".05" result="effect1_foregroundBlur_4002_787"/></filter><filter id="au" x="16.878" y="7.2" width="3.124" height="1.687" filterUnits="userSpaceOnUse" color-interpolation-filters="sRGB"><feFlood flood-opacity="0" result="BackgroundImageFix"/><feBlend in="SourceGraphic" in2="BackgroundImageFix" result="shape"/><feGaussianBlur stdDeviation=".25" result="effect1_foregroundBlur_4002_787"/></filter><filter id="aw" x="11.589" y="7.264" width="3.203" height="1.745" filterUnits="userSpaceOnUse" color-interpolation-filters="sRGB"><feFlood flood-opacity="0" result="BackgroundImageFix"/><feBlend in="SourceGraphic" in2="BackgroundImageFix" result="shape"/><feGaussianBlur stdDeviation=".25" result="effect1_foregroundBlur_4002_787"/></filter><filter id="ay" x="10.591" y="5.511" width="1.012" height="2.29" filterUnits="userSpaceOnUse" color-interpolation-filters="sRGB"><feFlood flood-opacity="0" result="BackgroundImageFix"/><feBlend in="SourceGraphic" in2="BackgroundImageFix" result="shape"/><feGaussianBlur stdDeviation=".125" result="effect1_foregroundBlur_4002_787"/></filter></defs></svg>