<svg xmlns="http://www.w3.org/2000/svg" fill="none" viewBox="0 0 32 32"><g filter="url(#man-biking-medium_svg__a)"><path fill="url(#man-biking-medium_svg__b)" fill-rule="evenodd" d="M7.027 21.731a3.969 3.969 0 1 0 0 7.938 3.969 3.969 0 0 0 0-7.938M2.06 25.7a4.969 4.969 0 1 1 9.937 0 4.969 4.969 0 0 1-9.937 0" clip-rule="evenodd"/></g><g filter="url(#man-biking-medium_svg__c)"><circle cx="7.027" cy="25.7" r="4.555" stroke="url(#man-biking-medium_svg__d)" stroke-width=".3"/></g><path fill="url(#man-biking-medium_svg__e)" d="m19.158 20.856-1.826-1.988-.424 2.059 1.001.705z"/><path fill="#413354" d="m17.853 21.59-.3 1.98c-.067.476-.04.887.364 1.167.102.07.237.03.307-.071l1.963-2.902a.2.2 0 0 0-.053-.278l-.952-.644z"/><path fill="url(#man-biking-medium_svg__f)" d="m17.853 21.59-.3 1.98c-.067.476-.04.887.364 1.167.102.07.237.03.307-.071l1.963-2.902a.2.2 0 0 0-.053-.278l-.952-.644z"/><path fill="url(#man-biking-medium_svg__g)" d="m17.853 21.59-.3 1.98c-.067.476-.04.887.364 1.167.102.07.237.03.307-.071l1.963-2.902a.2.2 0 0 0-.053-.278l-.952-.644z"/><path fill="url(#man-biking-medium_svg__h)" fill-rule="evenodd" d="M12.46 12.324a.5.5 0 0 1 .271.653l-2.54 6.247a.5.5 0 0 1-.924-.382l2.54-6.247a.5.5 0 0 1 .653-.271" clip-rule="evenodd"/><path fill="url(#man-biking-medium_svg__i)" fill-rule="evenodd" d="M12.46 12.324a.5.5 0 0 1 .271.653l-2.54 6.247a.5.5 0 0 1-.924-.382l2.54-6.247a.5.5 0 0 1 .653-.271" clip-rule="evenodd"/><path fill="url(#man-biking-medium_svg__j)" fill-rule="evenodd" d="M10.526 17.059a.55.55 0 0 1 .3.717l-3.29 8a.55.55 0 0 1-1.017-.418l3.289-8a.55.55 0 0 1 .718-.3" clip-rule="evenodd"/><path fill="url(#man-biking-medium_svg__k)" fill-rule="evenodd" d="M9.602 19.286c.101-.222.43-.466.672-.282l6.25 4.75a.55.55 0 1 1-.665.876l-6.081-4.61c-.242-.184-.305-.453-.176-.734" clip-rule="evenodd"/><path fill="url(#man-biking-medium_svg__l)" fill-rule="evenodd" d="M9.602 19.286c.101-.222.43-.466.672-.282l6.25 4.75a.55.55 0 1 1-.665.876l-6.081-4.61c-.242-.184-.305-.453-.176-.734" clip-rule="evenodd"/><g fill-rule="evenodd" clip-rule="evenodd" filter="url(#man-biking-medium_svg__m)"><path fill="url(#man-biking-medium_svg__n)" d="M24.973 21.731a3.969 3.969 0 1 0 0 7.938 3.969 3.969 0 0 0 0-7.938m-4.97 3.969a4.969 4.969 0 1 1 9.938 0 4.969 4.969 0 0 1-9.937 0"/><path fill="url(#man-biking-medium_svg__o)" d="M24.973 21.731a3.969 3.969 0 1 0 0 7.938 3.969 3.969 0 0 0 0-7.938m-4.97 3.969a4.969 4.969 0 1 1 9.938 0 4.969 4.969 0 0 1-9.937 0"/></g><path fill="url(#man-biking-medium_svg__p)" fill-rule="evenodd" d="M19.71 17.344a.55.55 0 0 0-.171.759l4.718 7.476a.55.55 0 0 0 .93-.587l-4.718-7.476a.55.55 0 0 0-.759-.172" clip-rule="evenodd"/><path fill="url(#man-biking-medium_svg__q)" fill-rule="evenodd" d="M20.014 17.265a.55.55 0 0 1 .417.656L18.853 25a.55.55 0 1 1-1.073-.239l1.578-7.078a.55.55 0 0 1 .656-.417" clip-rule="evenodd"/><path fill="url(#man-biking-medium_svg__r)" fill-rule="evenodd" d="M20.014 17.265a.55.55 0 0 1 .417.656L18.853 25a.55.55 0 1 1-1.073-.239l1.578-7.078a.55.55 0 0 1 .656-.417" clip-rule="evenodd"/><path fill="url(#man-biking-medium_svg__s)" fill-rule="evenodd" d="M20.014 17.265a.55.55 0 0 1 .417.656L18.853 25a.55.55 0 1 1-1.073-.239l1.578-7.078a.55.55 0 0 1 .656-.417" clip-rule="evenodd"/><path fill="url(#man-biking-medium_svg__t)" d="m13.97 16.169 1.34-.836 1.038 1.039-.765 3.531c-.513-.38-1.57-1.16-1.688-1.242-.148-.102-.66-.543-.653-1.238.008-.711.477-1.072.727-1.254"/><path fill="url(#man-biking-medium_svg__u)" d="m13.97 16.169 1.34-.836 1.038 1.039-.765 3.531c-.513-.38-1.57-1.16-1.688-1.242-.148-.102-.66-.543-.653-1.238.008-.711.477-1.072.727-1.254"/><path fill="url(#man-biking-medium_svg__v)" d="m13.97 16.169 1.34-.836 1.038 1.039-.765 3.531c-.513-.38-1.57-1.16-1.688-1.242-.148-.102-.66-.543-.653-1.238.008-.711.477-1.072.727-1.254"/><path fill="url(#man-biking-medium_svg__w)" d="m13.97 16.169 1.34-.836 1.038 1.039-.765 3.531c-.513-.38-1.57-1.16-1.688-1.242-.148-.102-.66-.543-.653-1.238.008-.711.477-1.072.727-1.254"/><path fill="url(#man-biking-medium_svg__x)" d="m15.25 15.368 2.64-1.61 1.208.63-2.727 2.476c-.269-.231-.84-1.05-1.121-1.496"/><path fill="url(#man-biking-medium_svg__y)" d="m15.25 15.368 2.64-1.61 1.208.63-2.727 2.476c-.269-.231-.84-1.05-1.121-1.496"/><g filter="url(#man-biking-medium_svg__z)"><path fill="url(#man-biking-medium_svg__A)" d="M18.884 27.524a1.863 1.863 0 1 1 .018-3.643l5.899.905a.927.927 0 0 1-.086 1.837z"/><path fill="url(#man-biking-medium_svg__B)" d="M18.884 27.524a1.863 1.863 0 1 1 .018-3.643l5.899.905a.927.927 0 0 1-.086 1.837z"/></g><circle cx="18.344" cy="25.7" r="1.027" fill="url(#man-biking-medium_svg__C)"/><circle cx="18.344" cy="25.7" r="1.027" fill="url(#man-biking-medium_svg__D)"/><g filter="url(#man-biking-medium_svg__E)"><path fill="#5B4E85" d="m16.07 23.95-1.809.86c-.431.212-.757.465-.762.957-.001.123.108.213.231.213h3.504a.2.2 0 0 0 .2-.2v-1.149z"/><path fill="url(#man-biking-medium_svg__F)" d="m16.07 23.95-1.809.86c-.431.212-.757.465-.762.957-.001.123.108.213.231.213h3.504a.2.2 0 0 0 .2-.2v-1.149z"/><path fill="url(#man-biking-medium_svg__G)" d="m16.07 23.95-1.809.86c-.431.212-.757.465-.762.957-.001.123.108.213.231.213h3.504a.2.2 0 0 0 .2-.2v-1.149z"/></g><path fill="url(#man-biking-medium_svg__H)" d="M13.509 8.636h2.154v2.668h-2.154z" transform="rotate(-55.397 13.51 8.636)"/><path fill="url(#man-biking-medium_svg__I)" d="M13.509 8.636h2.154v2.668h-2.154z" transform="rotate(-55.397 13.51 8.636)"/><g filter="url(#man-biking-medium_svg__J)"><path fill="url(#man-biking-medium_svg__K)" d="m16.051 16.724.553-.515 2.04 1.917c-.273.153-.887.463-1.03.582-.11.09-.11.234-.11.328l-.047 5.594-1.406-.672c-.138-.794-.42-2.708-.769-4.301-.395-1.8.376-2.592.77-2.933"/><path fill="url(#man-biking-medium_svg__L)" d="m16.051 16.724.553-.515 2.04 1.917c-.273.153-.887.463-1.03.582-.11.09-.11.234-.11.328l-.047 5.594-1.406-.672c-.138-.794-.42-2.708-.769-4.301-.395-1.8.376-2.592.77-2.933"/></g><g filter="url(#man-biking-medium_svg__M)"><path fill="url(#man-biking-medium_svg__N)" d="m18.335 14.5-.636-.698 4.031-2.477c1.422 1.867 1.5 3.21.836 4.273s-1.582 2.051-2.617 2.946c-.271.234-.802.361-1.36-.18-.706-.687-1.577-1.578-2.038-2.113l1.777-1.609a.1.1 0 0 0 .007-.141"/><path fill="url(#man-biking-medium_svg__O)" d="m18.335 14.5-.636-.698 4.031-2.477c1.422 1.867 1.5 3.21.836 4.273s-1.582 2.051-2.617 2.946c-.271.234-.802.361-1.36-.18-.706-.687-1.577-1.578-2.038-2.113l1.777-1.609a.1.1 0 0 0 .007-.141"/></g><g filter="url(#man-biking-medium_svg__P)"><path fill="url(#man-biking-medium_svg__Q)" d="M16.066 11.88c.665.625 1.364 1.586 1.672 1.968l4.243-2.18c-.586-.976-2.07-2.53-3.54-3.359-1.718-.812-2.672 0-3.305 1.07-.413.852.259 1.782.93 2.5"/></g><g filter="url(#man-biking-medium_svg__R)"><path fill="#C0B9BC" d="M12.91 12.333a.575.575 0 0 0-.575-.575h-3.05a2.13 2.13 0 0 0 0 4.26h.183a.575.575 0 1 0 0-1.15h-.183a.98.98 0 1 1 0-1.96h3.05a.575.575 0 0 0 .575-.575"/><path fill="url(#man-biking-medium_svg__S)" d="M12.91 12.333a.575.575 0 0 0-.575-.575h-3.05a2.13 2.13 0 0 0 0 4.26h.183a.575.575 0 1 0 0-1.15h-.183a.98.98 0 1 1 0-1.96h3.05a.575.575 0 0 0 .575-.575"/></g><g filter="url(#man-biking-medium_svg__T)"><path fill="#2B174F" fill-rule="evenodd" d="M8.305 13.946v-.021a.572.572 0 1 0-1.145 0v.021h-.004a2.13 2.13 0 0 0 2.13 2.071h.182a.575.575 0 1 0 0-1.15h-.183a.98.98 0 0 1-.978-.921z" clip-rule="evenodd"/></g><g fill-rule="evenodd" clip-rule="evenodd" filter="url(#man-biking-medium_svg__U)"><path fill="#9F7968" d="M17.097 8.997c.479.328.601.981.274 1.46-.783 1.144-3.152 4.303-7.933 4.788-.577.058-1.594-.32-1.653-.897s.864-1.134 1.441-1.193c3.844-.39 5.741-2.903 6.411-3.884a1.05 1.05 0 0 1 1.46-.274"/><path fill="url(#man-biking-medium_svg__V)" d="M17.097 8.997c.479.328.601.981.274 1.46-.783 1.144-3.152 4.303-7.933 4.788-.577.058-1.594-.32-1.653-.897s.864-1.134 1.441-1.193c3.844-.39 5.741-2.903 6.411-3.884a1.05 1.05 0 0 1 1.46-.274"/></g><path fill="url(#man-biking-medium_svg__W)" fill-rule="evenodd" d="M9.291 13.645a.35.35 0 0 1-.35.35c-.173 0-.435.043-.662.15-.226.106-.37.252-.415.439a.35.35 0 1 1-.68-.166c.113-.466.461-.748.796-.906.334-.158.7-.217.961-.217a.35.35 0 0 1 .35.35" clip-rule="evenodd"/><path fill="url(#man-biking-medium_svg__X)" fill-rule="evenodd" d="M9.291 13.645a.35.35 0 0 1-.35.35c-.173 0-.435.043-.662.15-.226.106-.37.252-.415.439a.35.35 0 1 1-.68-.166c.113-.466.461-.748.796-.906.334-.158.7-.217.961-.217a.35.35 0 0 1 .35.35" clip-rule="evenodd"/><g filter="url(#man-biking-medium_svg__Y)"><path fill="url(#man-biking-medium_svg__Z)" d="m20.96 13.619-.523-.864 1.125-.656c.97 1.312 1.344 2.297.735 2.875-.488.462-2.87 1.724-4 2.297l2.503-2.414a1 1 0 0 0 .16-1.238"/></g><path fill="url(#man-biking-medium_svg__aa)" fill-rule="evenodd" d="M8.781 14.18a.35.35 0 0 1-.227.44.6.6 0 0 0-.405.458.35.35 0 1 1-.684-.152c.05-.224.235-.768.876-.973a.35.35 0 0 1 .44.227" clip-rule="evenodd"/><path fill="url(#man-biking-medium_svg__ab)" fill-rule="evenodd" d="M8.781 14.18a.35.35 0 0 1-.227.44.6.6 0 0 0-.405.458.35.35 0 1 1-.684-.152c.05-.224.235-.768.876-.973a.35.35 0 0 1 .44.227" clip-rule="evenodd"/><path fill="url(#man-biking-medium_svg__ac)" fill-rule="evenodd" d="M8.929 14.24a.33.33 0 0 1 0 .402c-.152.126-.343.389-.373.593a.35.35 0 1 1-.692-.1 1.4 1.4 0 0 1 .154-.43c.08-.147.197-.312.354-.443.15-.123.434-.171.557-.023" clip-rule="evenodd"/><path fill="url(#man-biking-medium_svg__ad)" fill-rule="evenodd" d="M8.929 14.24a.33.33 0 0 1 0 .402c-.152.126-.343.389-.373.593a.35.35 0 1 1-.692-.1 1.4 1.4 0 0 1 .154-.43c.08-.147.197-.312.354-.443.15-.123.434-.171.557-.023" clip-rule="evenodd"/><g filter="url(#man-biking-medium_svg__ae)"><circle cx="9.195" cy="14.147" r=".885" fill="#A7826B"/></g><path fill="url(#man-biking-medium_svg__af)" d="M10.706 9.126c-.206-.15-.205-.315-.127-.68a.85.85 0 0 0-.05-.557l.814 1.05c-.118.227-.432.336-.637.187"/><g filter="url(#man-biking-medium_svg__ag)"><path fill="url(#man-biking-medium_svg__ah)" d="M11.906 9.942c-.787-.788-1.422-2.04-1.677-2.53l3.634-2.073 1.871 1.786a5.4 5.4 0 0 1-1.015 1.951c-.757.9-1.781 1.901-2.813.866"/><path fill="url(#man-biking-medium_svg__ai)" d="M11.906 9.942c-.787-.788-1.422-2.04-1.677-2.53l3.634-2.073 1.871 1.786a5.4 5.4 0 0 1-1.015 1.951c-.757.9-1.781 1.901-2.813.866"/><path fill="url(#man-biking-medium_svg__aj)" d="M11.906 9.942c-.787-.788-1.422-2.04-1.677-2.53l3.634-2.073 1.871 1.786a5.4 5.4 0 0 1-1.015 1.951c-.757.9-1.781 1.901-2.813.866"/><path fill="url(#man-biking-medium_svg__ak)" d="M11.906 9.942c-.787-.788-1.422-2.04-1.677-2.53l3.634-2.073 1.871 1.786a5.4 5.4 0 0 1-1.015 1.951c-.757.9-1.781 1.901-2.813.866"/></g><path fill="#86004D" fill-rule="evenodd" d="M11.807 9.391a.12.12 0 0 1 .047-.165c.107-.06.25-.212.335-.537a.121.121 0 1 1 .235.06c-.096.372-.272.588-.452.689a.12.12 0 0 1-.165-.047" clip-rule="evenodd"/><path fill="#fff" d="M10.942 7.399c-.08.234.055.475.128.596l.933-.52c-.529-.627-.955-.394-1.062-.076"/><path fill="#654B4B" d="m11.594 7.703-.03-.05c-.158-.263-.401-.406-.543-.32-.14.085-.127.367.032.63l.02.03z"/><path fill="url(#man-biking-medium_svg__al)" d="M11.392 7.815a.6.6 0 0 0-.046-.097c-.089-.146-.222-.226-.298-.18-.077.046-.067.202.02.347a1 1 0 0 0 .057.078z"/><circle cx="11.058" cy="7.515" r=".088" fill="#DFDFDF" transform="rotate(-62.506 11.058 7.515)"/><g filter="url(#man-biking-medium_svg__am)"><path fill="url(#man-biking-medium_svg__an)" d="m14.378 7.33-1.199-1.29 2.193-1.136c.194.351.653 1.428.612 1.723-.056.405-.234.952-.706 1.048-.378.077-.783-.203-.9-.344"/></g><circle cx="13.522" cy="6.492" r=".678" fill="url(#man-biking-medium_svg__ao)" transform="rotate(-62.506 13.522 6.492)"/><path fill="#4D3771" fill-rule="evenodd" d="M12.755 5.73a.303.303 0 0 1 .397.162l1.462 3.487a.303.303 0 0 1-.56.235l-1.462-3.487a.303.303 0 0 1 .163-.397" clip-rule="evenodd"/><path fill="url(#man-biking-medium_svg__ap)" fill-rule="evenodd" d="M12.755 5.73a.303.303 0 0 1 .397.162l1.462 3.487a.303.303 0 0 1-.56.235l-1.462-3.487a.303.303 0 0 1 .163-.397" clip-rule="evenodd"/><path fill="url(#man-biking-medium_svg__aq)" fill-rule="evenodd" d="M12.755 5.73a.303.303 0 0 1 .397.162l1.462 3.487a.303.303 0 0 1-.56.235l-1.462-3.487a.303.303 0 0 1 .163-.397" clip-rule="evenodd"/><path fill="url(#man-biking-medium_svg__ar)" fill-rule="evenodd" d="M12.755 5.73a.303.303 0 0 1 .397.162l1.462 3.487a.303.303 0 0 1-.56.235l-1.462-3.487a.303.303 0 0 1 .163-.397" clip-rule="evenodd"/><g filter="url(#man-biking-medium_svg__as)"><path fill="url(#man-biking-medium_svg__at)" d="M15.223 5.104 10.287 7.5a.27.27 0 0 1-.348-.088 5.8 5.8 0 0 1-.566-1.19c-.523-1.512.54-2.33.68-2.458.202-.183.759-.636 1.942-1.041 1.39-.475 2.25.155 2.665.734.26.365.542.909.705 1.275a.285.285 0 0 1-.142.372"/></g><g filter="url(#man-biking-medium_svg__au)"><path fill="url(#man-biking-medium_svg__av)" d="M11.284 5.789a.366.366 0 0 1 .178-.487l1.367-.635a.366.366 0 1 1 .309.665l-1.367.635a.366.366 0 0 1-.487-.178"/></g><defs><radialGradient id="man-biking-medium_svg__b" cx="0" cy="0" r="1" gradientTransform="rotate(126.943 -.303 13.456)scale(9.77501 9.43553)" gradientUnits="userSpaceOnUse"><stop stop-color="#32295B"/><stop offset="1" stop-color="#3C2150"/></radialGradient><radialGradient id="man-biking-medium_svg__g" cx="0" cy="0" r="1" gradientTransform="matrix(-1.53127 2.45312 -.44454 -.27749 20.3 21.677)" gradientUnits="userSpaceOnUse"><stop stop-color="#5D5C7E"/><stop offset="1" stop-color="#5D5C7E" stop-opacity="0"/></radialGradient><radialGradient id="man-biking-medium_svg__i" cx="0" cy="0" r="1" gradientTransform="rotate(-68.026 18.122 .818)scale(2.88119 .32513)" gradientUnits="userSpaceOnUse"><stop stop-color="#BAA3B9"/><stop offset="1" stop-color="#BAA3B9" stop-opacity="0"/></radialGradient><radialGradient id="man-biking-medium_svg__k" cx="0" cy="0" r="1" gradientTransform="matrix(6.71875 4.82813 -1.31599 1.83131 10.176 19.239)" gradientUnits="userSpaceOnUse"><stop stop-color="#CE3D5E"/><stop offset="1" stop-color="#932145"/></radialGradient><radialGradient id="man-biking-medium_svg__n" cx="0" cy="0" r="1" gradientTransform="rotate(134.451 9.86 17.43)scale(9.80603 9.46548)" gradientUnits="userSpaceOnUse"><stop offset=".427" stop-color="#373C67"/><stop offset="1" stop-color="#38144F"/></radialGradient><radialGradient id="man-biking-medium_svg__r" cx="0" cy="0" r="1" gradientTransform="rotate(103.707 2.93 16.971)scale(4.61583 .44083)" gradientUnits="userSpaceOnUse"><stop stop-color="#E44354"/><stop offset="1" stop-color="#E44354" stop-opacity="0"/></radialGradient><radialGradient id="man-biking-medium_svg__s" cx="0" cy="0" r="1" gradientTransform="matrix(-.03125 -1.0625 1.65481 -.04867 18.457 24.474)" gradientUnits="userSpaceOnUse"><stop stop-color="#AC2735"/><stop offset="1" stop-color="#AC2735" stop-opacity="0"/></radialGradient><radialGradient id="man-biking-medium_svg__t" cx="0" cy="0" r="1" gradientTransform="matrix(-.28125 3.99268 -5.05379 -.356 15.37 15.91)" gradientUnits="userSpaceOnUse"><stop offset=".321" stop-color="#7F584E"/><stop offset=".868" stop-color="#92576C"/></radialGradient><radialGradient id="man-biking-medium_svg__u" cx="0" cy="0" r="1" gradientTransform="matrix(1.21875 .45313 -.35 .94138 15.738 17.88)" gradientUnits="userSpaceOnUse"><stop offset=".346" stop-color="#774C50"/><stop offset="1" stop-color="#865959" stop-opacity="0"/></radialGradient><radialGradient id="man-biking-medium_svg__w" cx="0" cy="0" r="1" gradientTransform="rotate(-167.255 8.851 8.094)scale(2.69131 3.58612)" gradientUnits="userSpaceOnUse"><stop offset=".738" stop-color="#A57970" stop-opacity="0"/><stop offset="1" stop-color="#A57970"/></radialGradient><radialGradient id="man-biking-medium_svg__x" cx="0" cy="0" r="1" gradientTransform="rotate(143.881 6.854 10.293)scale(2.86275 1.23215)" gradientUnits="userSpaceOnUse"><stop offset=".255" stop-color="#4F414E"/><stop offset="1" stop-color="#564A5A"/></radialGradient><radialGradient id="man-biking-medium_svg__B" cx="0" cy="0" r="1" gradientTransform="matrix(-.86719 0 0 -.96875 25.574 25.536)" gradientUnits="userSpaceOnUse"><stop stop-color="#FFD359"/><stop offset="1" stop-color="#FFD359" stop-opacity="0"/></radialGradient><radialGradient id="man-biking-medium_svg__C" cx="0" cy="0" r="1" gradientTransform="matrix(1.5625 -.65625 .66797 1.5904 17.676 25.895)" gradientUnits="userSpaceOnUse"><stop offset=".47" stop-color="#D8CFE2"/><stop offset="1" stop-color="#C5BFCB"/></radialGradient><radialGradient id="man-biking-medium_svg__D" cx="0" cy="0" r="1" gradientTransform="rotate(151.189 6.174 15.138)scale(1.78324)" gradientUnits="userSpaceOnUse"><stop offset=".632" stop-color="#E2DFE5" stop-opacity="0"/><stop offset="1" stop-color="#E2DFE5"/></radialGradient><radialGradient id="man-biking-medium_svg__G" cx="0" cy="0" r="1" gradientTransform="matrix(-1.1094 -2 6.41983 -3.56106 16.254 26.239)" gradientUnits="userSpaceOnUse"><stop offset=".301" stop-color="#5C4F86" stop-opacity="0"/><stop offset=".943" stop-color="#493B63"/></radialGradient><radialGradient id="man-biking-medium_svg__I" cx="0" cy="0" r="1" gradientTransform="rotate(88.737 2.55 12.443)scale(1.42145 .52556)" gradientUnits="userSpaceOnUse"><stop offset=".18" stop-color="#B18873"/><stop offset="1" stop-color="#B18873" stop-opacity="0"/></radialGradient><radialGradient id="man-biking-medium_svg__K" cx="0" cy="0" r="1" gradientTransform="matrix(-.75 -8.78125 2.52881 -.21598 17.895 24.63)" gradientUnits="userSpaceOnUse"><stop offset=".122" stop-color="#BC8F7C"/><stop offset="1" stop-color="#9E716C"/></radialGradient><radialGradient id="man-biking-medium_svg__L" cx="0" cy="0" r="1" gradientTransform="matrix(-1.6875 .0625 -.11168 -3.01554 18.8 18.349)" gradientUnits="userSpaceOnUse"><stop offset=".284" stop-color="#8F506D"/><stop offset="1" stop-color="#A36F76" stop-opacity="0"/></radialGradient><radialGradient id="man-biking-medium_svg__N" cx="0" cy="0" r="1" gradientTransform="matrix(5.125 -4.9297 2.6132 2.71672 16.77 16.255)" gradientUnits="userSpaceOnUse"><stop offset=".148" stop-color="#726B71"/><stop offset="1" stop-color="#A3A1A2"/></radialGradient><radialGradient id="man-biking-medium_svg__O" cx="0" cy="0" r="1" gradientTransform="matrix(2.59375 -.09375 .01804 .49916 18.191 14.536)" gradientUnits="userSpaceOnUse"><stop offset=".22" stop-color="#736E75"/><stop offset="1" stop-color="#736E75" stop-opacity="0"/></radialGradient><radialGradient id="man-biking-medium_svg__Q" cx="0" cy="0" r="1" gradientTransform="matrix(-3.49999 -4.06251 1.70908 -1.47243 21.082 12.223)" gradientUnits="userSpaceOnUse"><stop stop-color="#54A7F5"/><stop offset="1" stop-color="#3B79D4"/></radialGradient><radialGradient id="man-biking-medium_svg__S" cx="0" cy="0" r="1" gradientTransform="matrix(3.25232 0 0 1.29925 10.033 13.66)" gradientUnits="userSpaceOnUse"><stop offset=".254" stop-color="#8C5EA8"/><stop offset="1" stop-color="#8C5EA8" stop-opacity="0"/></radialGradient><radialGradient id="man-biking-medium_svg__V" cx="0" cy="0" r="1" gradientTransform="rotate(158.559 7.88 6.398)scale(1.11134 1.23837)" gradientUnits="userSpaceOnUse"><stop stop-color="#BF9984"/><stop offset="1" stop-color="#BF9984" stop-opacity="0"/></radialGradient><radialGradient id="man-biking-medium_svg__W" cx="0" cy="0" r="1" gradientTransform="matrix(.94123 1.38898 -1.9051 1.29098 7.75 13.03)" gradientUnits="userSpaceOnUse"><stop offset=".668" stop-color="#976E65"/><stop offset="1" stop-color="#895864"/></radialGradient><radialGradient id="man-biking-medium_svg__X" cx="0" cy="0" r="1" gradientTransform="rotate(-169.577 4.864 6.918)scale(1.33255 2.06198)" gradientUnits="userSpaceOnUse"><stop offset=".68" stop-color="#9F776F" stop-opacity="0"/><stop offset="1" stop-color="#9F776F"/></radialGradient><radialGradient id="man-biking-medium_svg__Z" cx="0" cy="0" r="1" gradientTransform="matrix(5.5 -1.4375 2.00475 7.67032 17.332 15.411)" gradientUnits="userSpaceOnUse"><stop offset=".625" stop-color="#AFA6A9" stop-opacity="0"/><stop offset=".905" stop-color="#AFA6A9"/></radialGradient><radialGradient id="man-biking-medium_svg__aa" cx="0" cy="0" r="1" gradientTransform="matrix(.55375 1.17685 -1.45657 .68537 7.853 13.755)" gradientUnits="userSpaceOnUse"><stop offset=".668" stop-color="#976E65"/><stop offset="1" stop-color="#895864"/></radialGradient><radialGradient id="man-biking-medium_svg__ab" cx="0" cy="0" r="1" gradientTransform="rotate(-167.973 4.903 7.116)scale(.83427 1.78585)" gradientUnits="userSpaceOnUse"><stop offset=".68" stop-color="#9F776F" stop-opacity="0"/><stop offset="1" stop-color="#9F776F"/></radialGradient><radialGradient id="man-biking-medium_svg__ac" cx="0" cy="0" r="1" gradientTransform="matrix(1.01589 .59884 -.82449 1.39869 7.692 14.482)" gradientUnits="userSpaceOnUse"><stop offset=".686" stop-color="#976E65"/><stop offset="1" stop-color="#94597B"/></radialGradient><radialGradient id="man-biking-medium_svg__ad" cx="0" cy="0" r="1" gradientTransform="rotate(-174.052 4.673 7.405)scale(.75406 1.6728)" gradientUnits="userSpaceOnUse"><stop offset=".68" stop-color="#9F776F" stop-opacity="0"/><stop offset="1" stop-color="#9F776F"/></radialGradient><radialGradient id="man-biking-medium_svg__af" cx="0" cy="0" r="1" gradientTransform="matrix(.6707 .49565 -.38894 .5263 10.696 8.397)" gradientUnits="userSpaceOnUse"><stop offset=".391" stop-color="#967866"/><stop offset="1" stop-color="#996F64"/></radialGradient><radialGradient id="man-biking-medium_svg__ah" cx="0" cy="0" r="1" gradientTransform="matrix(3.25778 -1.0838 1.12407 3.37885 11.466 8.549)" gradientUnits="userSpaceOnUse"><stop offset=".164" stop-color="#967465"/><stop offset="1" stop-color="#9E7071"/></radialGradient><radialGradient id="man-biking-medium_svg__ai" cx="0" cy="0" r="1" gradientTransform="matrix(1.08434 1.65465 -1.33519 .875 13.123 5.734)" gradientUnits="userSpaceOnUse"><stop stop-color="#734C58"/><stop offset="1" stop-color="#734C58" stop-opacity="0"/></radialGradient><radialGradient id="man-biking-medium_svg__aj" cx="0" cy="0" r="1" gradientTransform="rotate(82.944 2.215 10.987)scale(3.18537 4.31709)" gradientUnits="userSpaceOnUse"><stop offset=".506" stop-color="#926367" stop-opacity="0"/><stop offset=".925" stop-color="#89526C"/></radialGradient><radialGradient id="man-biking-medium_svg__ak" cx="0" cy="0" r="1" gradientTransform="rotate(89.385 4.12 10.738)scale(2.90712 1.71433)" gradientUnits="userSpaceOnUse"><stop stop-color="#B18C7E"/><stop offset="1" stop-color="#B18C7E" stop-opacity="0"/></radialGradient><radialGradient id="man-biking-medium_svg__an" cx="0" cy="0" r="1" gradientTransform="matrix(.81244 1.68417 -1.1035 .53232 14.847 5.337)" gradientUnits="userSpaceOnUse"><stop stop-color="#52353D"/><stop offset="1" stop-color="#43243C"/></radialGradient><radialGradient id="man-biking-medium_svg__ao" cx="0" cy="0" r="1" gradientTransform="rotate(-137.019 8.393 .677)scale(.89071)" gradientUnits="userSpaceOnUse"><stop stop-color="#B69584"/><stop offset="1" stop-color="#966F69"/></radialGradient><radialGradient id="man-biking-medium_svg__ar" cx="0" cy="0" r="1" gradientTransform="matrix(.19857 -.08372 .49075 1.16392 13.444 7.13)" gradientUnits="userSpaceOnUse"><stop stop-color="#564975"/><stop offset="1" stop-color="#4D3A6E" stop-opacity="0"/></radialGradient><radialGradient id="man-biking-medium_svg__at" cx="0" cy="0" r="1" gradientTransform="matrix(.95559 2.27176 -2.67014 1.12316 11.992 3.799)" gradientUnits="userSpaceOnUse"><stop offset=".045" stop-color="#4FBDFF"/><stop offset=".919" stop-color="#52ABE4"/></radialGradient><radialGradient id="man-biking-medium_svg__av" cx="0" cy="0" r="1" gradientTransform="rotate(-113.487 8.072 -1.262)scale(.70787 1.81525)" gradientUnits="userSpaceOnUse"><stop offset=".218" stop-color="#4B89D0"/><stop offset="1" stop-color="#337BCD"/></radialGradient><linearGradient id="man-biking-medium_svg__d" x1="9.238" x2="3.207" y1="22.036" y2="29.067" gradientUnits="userSpaceOnUse"><stop stop-color="#302A5B"/><stop offset="1" stop-color="#302A5B" stop-opacity="0"/></linearGradient><linearGradient id="man-biking-medium_svg__e" x1="17.707" x2="18.676" y1="21.239" y2="20.233" gradientUnits="userSpaceOnUse"><stop offset=".573" stop-color="#8F5266"/><stop offset="1" stop-color="#9E7569"/></linearGradient><linearGradient id="man-biking-medium_svg__f" x1="22.223" x2="17.629" y1="22.807" y2="22.348" gradientUnits="userSpaceOnUse"><stop offset=".891" stop-color="#615F76" stop-opacity="0"/><stop offset="1" stop-color="#615F76"/></linearGradient><linearGradient id="man-biking-medium_svg__h" x1="11.504" x2="10.629" y1="15.63" y2="15.348" gradientUnits="userSpaceOnUse"><stop stop-color="#BFA8C7"/><stop offset="1" stop-color="#908590"/></linearGradient><linearGradient id="man-biking-medium_svg__j" x1="9.738" x2="8.457" y1="20.583" y2="20.099" gradientUnits="userSpaceOnUse"><stop offset=".146" stop-color="#D4385B"/><stop offset="1" stop-color="#973C50"/></linearGradient><linearGradient id="man-biking-medium_svg__l" x1="12.957" x2="13.348" y1="22.63" y2="22.13" gradientUnits="userSpaceOnUse"><stop stop-color="#96275E"/><stop offset="1" stop-color="#96275E" stop-opacity="0"/><stop offset="1" stop-color="#9C2649" stop-opacity="0"/></linearGradient><linearGradient id="man-biking-medium_svg__o" x1="20.004" x2="27.759" y1="28.141" y2="25.7" gradientUnits="userSpaceOnUse"><stop stop-color="#352542"/><stop offset="1" stop-color="#352542" stop-opacity="0"/></linearGradient><linearGradient id="man-biking-medium_svg__p" x1="23.785" x2="22.723" y1="22.567" y2="23.317" gradientUnits="userSpaceOnUse"><stop stop-color="#FD5A60"/><stop offset="1" stop-color="#AF253C"/></linearGradient><linearGradient id="man-biking-medium_svg__q" x1="19.582" x2="18.566" y1="21.341" y2="21.192" gradientUnits="userSpaceOnUse"><stop stop-color="#E5435F"/><stop offset="1" stop-color="#A62F2F"/></linearGradient><linearGradient id="man-biking-medium_svg__v" x1="14.52" x2="14.941" y1="15.598" y2="16.286" gradientUnits="userSpaceOnUse"><stop stop-color="#8C6756"/><stop offset="1" stop-color="#6C4D43" stop-opacity="0"/><stop offset="1" stop-color="#8C6756" stop-opacity="0"/></linearGradient><linearGradient id="man-biking-medium_svg__y" x1="16.59" x2="16.957" y1="14.466" y2="14.997" gradientUnits="userSpaceOnUse"><stop stop-color="#72696B"/><stop offset="1" stop-color="#72696B" stop-opacity="0"/></linearGradient><linearGradient id="man-biking-medium_svg__A" x1="25.301" x2="16.637" y1="25.7" y2="25.7" gradientUnits="userSpaceOnUse"><stop stop-color="#F7B14E"/><stop offset="1" stop-color="#E8774D"/></linearGradient><linearGradient id="man-biking-medium_svg__F" x1="17.434" x2="16.676" y1="25.567" y2="25.567" gradientUnits="userSpaceOnUse"><stop stop-color="#605C92"/><stop offset="1" stop-color="#605C92" stop-opacity="0"/></linearGradient><linearGradient id="man-biking-medium_svg__H" x1="15.52" x2="13.915" y1="10.099" y2="10.029" gradientUnits="userSpaceOnUse"><stop stop-color="#B39074"/><stop offset="1" stop-color="#804D5C"/></linearGradient><linearGradient id="man-biking-medium_svg__al" x1="11.063" x2="11.315" y1="7.881" y2="7.742" gradientUnits="userSpaceOnUse"><stop offset=".242" stop-color="#5F5451"/><stop offset=".667" stop-color="#383838"/></linearGradient><linearGradient id="man-biking-medium_svg__ap" x1="13.82" x2="13.377" y1="7.337" y2="7.545" gradientUnits="userSpaceOnUse"><stop stop-color="#37234C"/><stop offset="1" stop-color="#37234C" stop-opacity="0"/></linearGradient><linearGradient id="man-biking-medium_svg__aq" x1="13.601" x2="14.157" y1="9.211" y2="8.902" gradientUnits="userSpaceOnUse"><stop offset=".324" stop-color="#72687C"/><stop offset="1" stop-color="#72687C" stop-opacity="0"/></linearGradient><filter id="man-biking-medium_svg__a" width="9.938" height="9.938" x="2.059" y="20.731" color-interpolation-filters="sRGB" filterUnits="userSpaceOnUse"><feFlood flood-opacity="0" result="BackgroundImageFix"/><feBlend in="SourceGraphic" in2="BackgroundImageFix" result="shape"/><feColorMatrix in="SourceAlpha" result="hardAlpha" values="0 0 0 0 0 0 0 0 0 0 0 0 0 0 0 0 0 0 127 0"/><feOffset/><feGaussianBlur stdDeviation=".25"/><feComposite in2="hardAlpha" k2="-1" k3="1" operator="arithmetic"/><feColorMatrix values="0 0 0 0 0.227451 0 0 0 0 0.156863 0 0 0 0 0.27451 0 0 0 1 0"/><feBlend in2="shape" result="effect1_innerShadow_3987_23416"/></filter><filter id="man-biking-medium_svg__c" width="10.409" height="10.409" x="1.823" y="20.495" color-interpolation-filters="sRGB" filterUnits="userSpaceOnUse"><feFlood flood-opacity="0" result="BackgroundImageFix"/><feBlend in="SourceGraphic" in2="BackgroundImageFix" result="shape"/><feGaussianBlur result="effect1_foregroundBlur_3987_23416" stdDeviation=".25"/></filter><filter id="man-biking-medium_svg__m" width="10.037" height="10.037" x="20.004" y="20.631" color-interpolation-filters="sRGB" filterUnits="userSpaceOnUse"><feFlood flood-opacity="0" result="BackgroundImageFix"/><feBlend in="SourceGraphic" in2="BackgroundImageFix" result="shape"/><feColorMatrix in="SourceAlpha" result="hardAlpha" values="0 0 0 0 0 0 0 0 0 0 0 0 0 0 0 0 0 0 127 0"/><feOffset dx=".1" dy="-.1"/><feGaussianBlur stdDeviation=".2"/><feComposite in2="hardAlpha" k2="-1" k3="1" operator="arithmetic"/><feColorMatrix values="0 0 0 0 0.152941 0 0 0 0 0.0862745 0 0 0 0 0.164706 0 0 0 1 0"/><feBlend in2="shape" result="effect1_innerShadow_3987_23416"/></filter><filter id="man-biking-medium_svg__z" width="9.188" height="4.077" x="16.637" y="23.587" color-interpolation-filters="sRGB" filterUnits="userSpaceOnUse"><feFlood flood-opacity="0" result="BackgroundImageFix"/><feBlend in="SourceGraphic" in2="BackgroundImageFix" result="shape"/><feColorMatrix in="SourceAlpha" result="hardAlpha" values="0 0 0 0 0 0 0 0 0 0 0 0 0 0 0 0 0 0 127 0"/><feOffset dx=".25" dy="-.25"/><feGaussianBlur stdDeviation=".25"/><feComposite in2="hardAlpha" k2="-1" k3="1" operator="arithmetic"/><feColorMatrix values="0 0 0 0 0.701961 0 0 0 0 0.341176 0 0 0 0 0.254902 0 0 0 1 0"/><feBlend in2="shape" result="effect1_innerShadow_3987_23416"/><feColorMatrix in="SourceAlpha" result="hardAlpha" values="0 0 0 0 0 0 0 0 0 0 0 0 0 0 0 0 0 0 127 0"/><feOffset dx=".25" dy=".1"/><feGaussianBlur stdDeviation=".25"/><feComposite in2="hardAlpha" k2="-1" k3="1" operator="arithmetic"/><feColorMatrix values="0 0 0 0 0.894118 0 0 0 0 0.490196 0 0 0 0 0.196078 0 0 0 1 0"/><feBlend in2="effect1_innerShadow_3987_23416" result="effect2_innerShadow_3987_23416"/></filter><filter id="man-biking-medium_svg__E" width="4.034" height="2.181" x="13.499" y="23.799" color-interpolation-filters="sRGB" filterUnits="userSpaceOnUse"><feFlood flood-opacity="0" result="BackgroundImageFix"/><feBlend in="SourceGraphic" in2="BackgroundImageFix" result="shape"/><feColorMatrix in="SourceAlpha" result="hardAlpha" values="0 0 0 0 0 0 0 0 0 0 0 0 0 0 0 0 0 0 127 0"/><feOffset dx=".1" dy="-.15"/><feGaussianBlur stdDeviation=".125"/><feComposite in2="hardAlpha" k2="-1" k3="1" operator="arithmetic"/><feColorMatrix values="0 0 0 0 0.27451 0 0 0 0 0.188235 0 0 0 0 0.52549 0 0 0 1 0"/><feBlend in2="shape" result="effect1_innerShadow_3987_23416"/></filter><filter id="man-biking-medium_svg__J" width="3.572" height="8.62" x="15.172" y="16.209" color-interpolation-filters="sRGB" filterUnits="userSpaceOnUse"><feFlood flood-opacity="0" result="BackgroundImageFix"/><feBlend in="SourceGraphic" in2="BackgroundImageFix" result="shape"/><feColorMatrix in="SourceAlpha" result="hardAlpha" values="0 0 0 0 0 0 0 0 0 0 0 0 0 0 0 0 0 0 127 0"/><feOffset dx=".1" dy=".2"/><feGaussianBlur stdDeviation=".1"/><feComposite in2="hardAlpha" k2="-1" k3="1" operator="arithmetic"/><feColorMatrix values="0 0 0 0 0.647059 0 0 0 0 0.47451 0 0 0 0 0.423529 0 0 0 1 0"/><feBlend in2="shape" result="effect1_innerShadow_3987_23416"/></filter><filter id="man-biking-medium_svg__M" width="6.668" height="7.67" x="16.551" y="11.075" color-interpolation-filters="sRGB" filterUnits="userSpaceOnUse"><feFlood flood-opacity="0" result="BackgroundImageFix"/><feBlend in="SourceGraphic" in2="BackgroundImageFix" result="shape"/><feColorMatrix in="SourceAlpha" result="hardAlpha" values="0 0 0 0 0 0 0 0 0 0 0 0 0 0 0 0 0 0 127 0"/><feOffset dx=".25" dy="-.25"/><feGaussianBlur stdDeviation=".625"/><feComposite in2="hardAlpha" k2="-1" k3="1" operator="arithmetic"/><feColorMatrix values="0 0 0 0 0.482353 0 0 0 0 0.360784 0 0 0 0 0.556863 0 0 0 1 0"/><feBlend in2="shape" result="effect1_innerShadow_3987_23416"/></filter><filter id="man-biking-medium_svg__P" width="7.971" height="5.869" x="15.009" y="7.979" color-interpolation-filters="sRGB" filterUnits="userSpaceOnUse"><feFlood flood-opacity="0" result="BackgroundImageFix"/><feBlend in="SourceGraphic" in2="BackgroundImageFix" result="shape"/><feColorMatrix in="SourceAlpha" result="hardAlpha" values="0 0 0 0 0 0 0 0 0 0 0 0 0 0 0 0 0 0 127 0"/><feOffset dx="1"/><feGaussianBlur stdDeviation=".75"/><feComposite in2="hardAlpha" k2="-1" k3="1" operator="arithmetic"/><feColorMatrix values="0 0 0 0 0.282353 0 0 0 0 0.411765 0 0 0 0 0.717647 0 0 0 1 0"/><feBlend in2="shape" result="effect1_innerShadow_3987_23416"/></filter><filter id="man-biking-medium_svg__R" width="6.005" height="4.259" x="6.906" y="11.758" color-interpolation-filters="sRGB" filterUnits="userSpaceOnUse"><feFlood flood-opacity="0" result="BackgroundImageFix"/><feBlend in="SourceGraphic" in2="BackgroundImageFix" result="shape"/><feColorMatrix in="SourceAlpha" result="hardAlpha" values="0 0 0 0 0 0 0 0 0 0 0 0 0 0 0 0 0 0 127 0"/><feOffset dx="-.25"/><feGaussianBlur stdDeviation=".5"/><feComposite in2="hardAlpha" k2="-1" k3="1" operator="arithmetic"/><feColorMatrix values="0 0 0 0 0.576471 0 0 0 0 0.505882 0 0 0 0 0.529412 0 0 0 1 0"/><feBlend in2="shape" result="effect1_innerShadow_3987_23416"/></filter><filter id="man-biking-medium_svg__T" width="3.137" height="2.915" x="6.906" y="13.352" color-interpolation-filters="sRGB" filterUnits="userSpaceOnUse"><feFlood flood-opacity="0" result="BackgroundImageFix"/><feBlend in="SourceGraphic" in2="BackgroundImageFix" result="shape"/><feColorMatrix in="SourceAlpha" result="hardAlpha" values="0 0 0 0 0 0 0 0 0 0 0 0 0 0 0 0 0 0 127 0"/><feOffset dx="-.25" dy=".25"/><feGaussianBlur stdDeviation=".25"/><feComposite in2="hardAlpha" k2="-1" k3="1" operator="arithmetic"/><feColorMatrix values="0 0 0 0 0.164706 0 0 0 0 0.117647 0 0 0 0 0.231373 0 0 0 1 0"/><feBlend in2="shape" result="effect1_innerShadow_3987_23416"/></filter><filter id="man-biking-medium_svg__U" width="10.272" height="6.937" x="7.782" y="8.314" color-interpolation-filters="sRGB" filterUnits="userSpaceOnUse"><feFlood flood-opacity="0" result="BackgroundImageFix"/><feBlend in="SourceGraphic" in2="BackgroundImageFix" result="shape"/><feColorMatrix in="SourceAlpha" result="hardAlpha" values="0 0 0 0 0 0 0 0 0 0 0 0 0 0 0 0 0 0 127 0"/><feOffset dx=".5" dy="-.5"/><feGaussianBlur stdDeviation=".375"/><feComposite in2="hardAlpha" k2="-1" k3="1" operator="arithmetic"/><feColorMatrix values="0 0 0 0 0.592157 0 0 0 0 0.333333 0 0 0 0 0.478431 0 0 0 1 0"/><feBlend in2="shape" result="effect1_innerShadow_3987_23416"/></filter><filter id="man-biking-medium_svg__Y" width="5.496" height="6.372" x="17.697" y="11.499" color-interpolation-filters="sRGB" filterUnits="userSpaceOnUse"><feFlood flood-opacity="0" result="BackgroundImageFix"/><feBlend in="SourceGraphic" in2="BackgroundImageFix" result="shape"/><feGaussianBlur result="effect1_foregroundBlur_3987_23416" stdDeviation=".3"/></filter><filter id="man-biking-medium_svg__ae" width="2.969" height="2.969" x="7.711" y="12.663" color-interpolation-filters="sRGB" filterUnits="userSpaceOnUse"><feFlood flood-opacity="0" result="BackgroundImageFix"/><feBlend in="SourceGraphic" in2="BackgroundImageFix" result="shape"/><feGaussianBlur result="effect1_foregroundBlur_3987_23416" stdDeviation=".3"/></filter><filter id="man-biking-medium_svg__ag" width="5.755" height="5.193" x="10.229" y="5.339" color-interpolation-filters="sRGB" filterUnits="userSpaceOnUse"><feFlood flood-opacity="0" result="BackgroundImageFix"/><feBlend in="SourceGraphic" in2="BackgroundImageFix" result="shape"/><feColorMatrix in="SourceAlpha" result="hardAlpha" values="0 0 0 0 0 0 0 0 0 0 0 0 0 0 0 0 0 0 127 0"/><feOffset dx=".25" dy=".15"/><feGaussianBlur stdDeviation=".15"/><feComposite in2="hardAlpha" k2="-1" k3="1" operator="arithmetic"/><feColorMatrix values="0 0 0 0 0.627451 0 0 0 0 0.486275 0 0 0 0 0.411765 0 0 0 1 0"/><feBlend in2="shape" result="effect1_innerShadow_3987_23416"/></filter><filter id="man-biking-medium_svg__am" width="3.207" height="2.884" x="13.179" y="4.804" color-interpolation-filters="sRGB" filterUnits="userSpaceOnUse"><feFlood flood-opacity="0" result="BackgroundImageFix"/><feBlend in="SourceGraphic" in2="BackgroundImageFix" result="shape"/><feColorMatrix in="SourceAlpha" result="hardAlpha" values="0 0 0 0 0 0 0 0 0 0 0 0 0 0 0 0 0 0 127 0"/><feOffset dx=".4" dy="-.1"/><feGaussianBlur stdDeviation=".25"/><feComposite in2="hardAlpha" k2="-1" k3="1" operator="arithmetic"/><feColorMatrix values="0 0 0 0 0.192157 0 0 0 0 0.0980392 0 0 0 0 0.113725 0 0 0 1 0"/><feBlend in2="shape" result="effect1_innerShadow_3987_23416"/></filter><filter id="man-biking-medium_svg__as" width="6.159" height="5.124" x="9.229" y="2.406" color-interpolation-filters="sRGB" filterUnits="userSpaceOnUse"><feFlood flood-opacity="0" result="BackgroundImageFix"/><feBlend in="SourceGraphic" in2="BackgroundImageFix" result="shape"/><feColorMatrix in="SourceAlpha" result="hardAlpha" values="0 0 0 0 0 0 0 0 0 0 0 0 0 0 0 0 0 0 127 0"/><feOffset dy="-.15"/><feGaussianBlur stdDeviation=".3"/><feComposite in2="hardAlpha" k2="-1" k3="1" operator="arithmetic"/><feColorMatrix values="0 0 0 0 0.305882 0 0 0 0 0.556863 0 0 0 0 0.882353 0 0 0 1 0"/><feBlend in2="shape" result="effect1_innerShadow_3987_23416"/></filter><filter id="man-biking-medium_svg__au" width="2.1" height="1.368" x="11.25" y="4.633" color-interpolation-filters="sRGB" filterUnits="userSpaceOnUse"><feFlood flood-opacity="0" result="BackgroundImageFix"/><feBlend in="SourceGraphic" in2="BackgroundImageFix" result="shape"/><feColorMatrix in="SourceAlpha" result="hardAlpha" values="0 0 0 0 0 0 0 0 0 0 0 0 0 0 0 0 0 0 127 0"/><feOffset/><feGaussianBlur stdDeviation=".25"/><feComposite in2="hardAlpha" k2="-1" k3="1" operator="arithmetic"/><feColorMatrix values="0 0 0 0 0.137255 0 0 0 0 0.482353 0 0 0 0 0.796078 0 0 0 1 0"/><feBlend in2="shape" result="effect1_innerShadow_3987_23416"/></filter></defs></svg>