<svg xmlns="http://www.w3.org/2000/svg" fill="none" viewBox="0 0 32 32"><path fill="url(#man-climbing-light_svg__a)" d="M2.356 29.683V20.73l5.204-1.977 2.513 1.29c-.22-.383.6-.538 1.07.43.235.48-.113 1.812-.597 2.421l-1.32 1.48a.4.4 0 0 0 .023.556l5 4.753z"/><path fill="url(#man-climbing-light_svg__b)" d="M2.356 29.683V20.73l5.204-1.977 2.513 1.29c-.22-.383.6-.538 1.07.43.235.48-.113 1.812-.597 2.421l-1.32 1.48a.4.4 0 0 0 .023.556l5 4.753z"/><path fill="url(#man-climbing-light_svg__c)" d="M9.591 16.677a.93.93 0 0 1 .458-.698L2.356 18.63v2.661c.68-.275 2.227-.92 3.284-1.415.886-.414 1.715-.409 2.178-.289l3.341.924-1.32-2.768c-.248-.52-.303-.66-.248-1.066"/><path fill="url(#man-climbing-light_svg__d)" d="M9.591 16.677a.93.93 0 0 1 .458-.698L2.356 18.63v2.661c.68-.275 2.227-.92 3.284-1.415.886-.414 1.715-.409 2.178-.289l3.341.924-1.32-2.768c-.248-.52-.303-.66-.248-1.066"/><path fill="url(#man-climbing-light_svg__e)" d="M9.591 16.677a.93.93 0 0 1 .458-.698L2.356 18.63v2.661c.68-.275 2.227-.92 3.284-1.415.886-.414 1.715-.409 2.178-.289l3.341.924-1.32-2.768c-.248-.52-.303-.66-.248-1.066"/><path fill="url(#man-climbing-light_svg__f)" d="M9.591 16.677a.93.93 0 0 1 .458-.698L2.356 18.63v2.661c.68-.275 2.227-.92 3.284-1.415.886-.414 1.715-.409 2.178-.289l3.341.924-1.32-2.768c-.248-.52-.303-.66-.248-1.066"/><path fill="url(#man-climbing-light_svg__g)" d="M9.591 16.677a.93.93 0 0 1 .458-.698L2.356 18.63v2.661c.68-.275 2.227-.92 3.284-1.415.886-.414 1.715-.409 2.178-.289l3.341.924-1.32-2.768c-.248-.52-.303-.66-.248-1.066"/><g filter="url(#man-climbing-light_svg__h)"><path fill="#A29EA7" d="M2.356 22.738v6.945H10.7a169 169 0 0 1-2.973-1.578c-1.038-.575-1.31-1.146-1.485-1.524-.065-.14-.186-.45-.371-.924l-.285-.724c-.322-.816-.953-1.219-1.437-1.422z"/></g><path fill="url(#man-climbing-light_svg__i)" d="M14.803 14.418 2.356 18.78V1.738H18.3c-.4 2.851-1.233 8.86-1.49 10.68-.183 1.303-.801 1.523-2.007 2"/><path fill="url(#man-climbing-light_svg__j)" d="M14.803 14.418 2.356 18.78V1.738H18.3c-.4 2.851-1.233 8.86-1.49 10.68-.183 1.303-.801 1.523-2.007 2"/><path fill="url(#man-climbing-light_svg__k)" d="M14.803 14.418 2.356 18.78V1.738H18.3c-.4 2.851-1.233 8.86-1.49 10.68-.183 1.303-.801 1.523-2.007 2"/><g filter="url(#man-climbing-light_svg__l)"><path fill="url(#man-climbing-light_svg__m)" d="m16.87 11.993-.06.425c-.113.802-.39 1.194-.87 1.488l-.857-1.286-.946-1.329a.232.232 0 0 1 .324-.323l-.127-.178a.28.28 0 0 1 .292-.433l-.024-.033a.28.28 0 1 1 .455-.323l.107.147a.28.28 0 0 1 .5-.224l.499.819.026-.229a.293.293 0 0 1 .345-.254c.16.03.264.184.238.345-.031.201-.061.44-.06.6.001.39.072.613.158.788"/></g><g filter="url(#man-climbing-light_svg__n)"><path fill="url(#man-climbing-light_svg__o)" fill-rule="evenodd" d="M23.664 13.498c-3.618-1.712-4.891-4.456-5.481-6.545-.111-.427.035-.996.59-1.09l.693-.157a.41.41 0 0 1 .476.34c.33 2.086 1.175 4.092 4.47 5.87z" clip-rule="evenodd"/></g><path fill="url(#man-climbing-light_svg__p)" d="M10.22 1.738c.551 1.054 1.37 2.957 1.85 4.836.78 3.062-.25 5.281-3.75 6.312a881 881 0 0 1-5.964 1.725V1.738z"/><path fill="url(#man-climbing-light_svg__q)" d="M10.22 1.738c.551 1.054 1.37 2.957 1.85 4.836.78 3.062-.25 5.281-3.75 6.312a881 881 0 0 1-5.964 1.725V1.738z"/><path fill="url(#man-climbing-light_svg__r)" d="M10.22 1.738c.551 1.054 1.37 2.957 1.85 4.836.78 3.062-.25 5.281-3.75 6.312a881 881 0 0 1-5.964 1.725V1.738z"/><g filter="url(#man-climbing-light_svg__s)"><path fill="url(#man-climbing-light_svg__t)" d="M13.94 1.694c.393 1.553.85 4.693.134 7.329a.276.276 0 0 0 .165.331.23.23 0 0 0 .144.01c.378-.105.836-.512 1.153-1.287.567-1.385 1.18-3.75 1.637-5.515l.226-.868z"/></g><g filter="url(#man-climbing-light_svg__u)"><path stroke="url(#man-climbing-light_svg__v)" stroke-linecap="round" stroke-width=".5" d="M19.694 7.532c.07.492.482 1.784 1.58 3.02"/></g><g filter="url(#man-climbing-light_svg__w)"><path fill="url(#man-climbing-light_svg__x)" d="M19.286 1.738v9.588c0 .132.027.263.079.384l1.706 3.989.42.136c.05.115.166.979.28.93a.225.225 0 0 0 .119-.295l-2.112-4.937a.5.5 0 0 1-.042-.207V1.738z"/></g><path fill="url(#man-climbing-light_svg__y)" d="M22.452 7.972c.032-.207.153-.27.45-.351a.7.7 0 0 0 .387-.248l-.458.994c-.21 0-.41-.188-.379-.395"/><path fill="url(#man-climbing-light_svg__z)" d="m24.6 18.734 1.907.63v.73a.953.953 0 1 1-1.906 0z"/><path fill="url(#man-climbing-light_svg__A)" d="m24.6 18.734 1.907.63v.73a.953.953 0 1 1-1.906 0z"/><path fill="url(#man-climbing-light_svg__B)" d="m24.6 18.734 1.907.63v.73a.953.953 0 1 1-1.906 0z"/><path fill="url(#man-climbing-light_svg__C)" d="M23.732 10.439h1.905v1.844h-1.905z" transform="rotate(7.73 23.732 10.44)"/><g filter="url(#man-climbing-light_svg__D)"><path fill="url(#man-climbing-light_svg__E)" d="M22.312 9.16c.277-.875.95-1.815 1.21-2.188l2.9 1.867-.594 2.047a4.5 4.5 0 0 1-1.813 0c-.945-.21-2.067-.578-1.703-1.726"/><path fill="url(#man-climbing-light_svg__F)" d="M22.312 9.16c.277-.875.95-1.815 1.21-2.188l2.9 1.867-.594 2.047a4.5 4.5 0 0 1-1.813 0c-.945-.21-2.067-.578-1.703-1.726"/></g><path fill="url(#man-climbing-light_svg__G)" fill-rule="evenodd" d="M24.675 17.647c.11 0 .2.09.2.2v.883a.2.2 0 0 1-.4 0v-.883c0-.11.09-.2.2-.2" clip-rule="evenodd"/><path fill="url(#man-climbing-light_svg__H)" fill-rule="evenodd" d="M24.486 18.696a.2.2 0 0 1 .255-.124l1.742.606a.2.2 0 1 1-.131.378l-1.743-.606a.2.2 0 0 1-.123-.254" clip-rule="evenodd"/><path fill="url(#man-climbing-light_svg__I)" fill-rule="evenodd" d="M24.486 18.696a.2.2 0 0 1 .255-.124l1.742.606a.2.2 0 1 1-.131.378l-1.743-.606a.2.2 0 0 1-.123-.254" clip-rule="evenodd"/><path fill="#86004D" fill-rule="evenodd" d="M22.677 8.878a.1.1 0 0 1 .139-.028c.085.055.25.102.52.04a.1.1 0 1 1 .045.195c-.308.071-.533.025-.675-.068a.1.1 0 0 1-.029-.139" clip-rule="evenodd"/><path fill="#fff" d="M23.804 7.488c-.201.031-.326.221-.387.32l.735.485c.257-.625-.075-.848-.348-.805"/><g filter="url(#man-climbing-light_svg__J)"><path fill="#DDA49E" d="m19.195 20.683.39-.406 2.11 1.187-.493.5 1.836 3.922.8.576a.2.2 0 0 1 .047.277l-1.753 2.487c-.06.087-.171.128-.263.075-.178-.102-.37-.296-.37-.579-.037-.556.193-1.7.313-2.203-.662-.94-2.138-3.045-2.75-3.945s-.167-1.636.133-1.89"/><path fill="url(#man-climbing-light_svg__K)" d="m19.195 20.683.39-.406 2.11 1.187-.493.5 1.836 3.922.8.576a.2.2 0 0 1 .047.277l-1.753 2.487c-.06.087-.171.128-.263.075-.178-.102-.37-.296-.37-.579-.037-.556.193-1.7.313-2.203-.662-.94-2.138-3.045-2.75-3.945s-.167-1.636.133-1.89"/><path fill="url(#man-climbing-light_svg__L)" d="m19.195 20.683.39-.406 2.11 1.187-.493.5 1.836 3.922.8.576a.2.2 0 0 1 .047.277l-1.753 2.487c-.06.087-.171.128-.263.075-.178-.102-.37-.296-.37-.579-.037-.556.193-1.7.313-2.203-.662-.94-2.138-3.045-2.75-3.945s-.167-1.636.133-1.89"/></g><path fill="#544583" d="m23.04 25.887.799.575a.2.2 0 0 1 .046.278l-1.753 2.486c-.06.087-.171.128-.263.075-.178-.101-.37-.296-.37-.579-.037-.556.193-1.7.313-2.203l-.002-.002z"/><path fill="url(#man-climbing-light_svg__M)" d="m23.04 25.887.799.575a.2.2 0 0 1 .046.278l-1.753 2.486c-.06.087-.171.128-.263.075-.178-.101-.37-.296-.37-.579-.037-.556.193-1.7.313-2.203l-.002-.002z"/><path fill="url(#man-climbing-light_svg__N)" d="m23.04 25.887.799.575a.2.2 0 0 1 .046.278l-1.753 2.486c-.06.087-.171.128-.263.075-.178-.101-.37-.296-.37-.579-.037-.556.193-1.7.313-2.203l-.002-.002z"/><path fill="url(#man-climbing-light_svg__O)" d="m23.04 25.887.799.575a.2.2 0 0 1 .046.278l-1.753 2.486c-.06.087-.171.128-.263.075-.178-.101-.37-.296-.37-.579-.037-.556.193-1.7.313-2.203l-.002-.002z"/><path fill="url(#man-climbing-light_svg__P)" d="m23.04 25.887.799.575a.2.2 0 0 1 .046.278l-1.753 2.486c-.06.087-.171.128-.263.075-.178-.101-.37-.296-.37-.579-.037-.556.193-1.7.313-2.203l-.002-.002z"/><path fill="url(#man-climbing-light_svg__Q)" d="m23.83 8.08.026-.04c.131-.216.144-.448.027-.519-.116-.07-.317.047-.448.263l-.015.026z"/><path fill="#414141" d="M23.672 7.976a.5.5 0 0 0 .053-.07c.073-.12.081-.25.018-.288-.062-.038-.173.028-.246.148a1 1 0 0 0-.035.071z"/><circle cx="23.764" cy="7.616" r=".072" fill="#DFDFDF"/><path fill="url(#man-climbing-light_svg__R)" d="m22.624 12.636-1.25 2.82 3.39 2.258c.563-.726 1.267-2.851 1.243-4.242-.018-1.055-.436-1.404-1.102-1.765-.316-.172-1.025-.28-1.398-.16s-.73.663-.883 1.09"/><path fill="url(#man-climbing-light_svg__S)" d="m22.624 12.636-1.25 2.82 3.39 2.258c.563-.726 1.267-2.851 1.243-4.242-.018-1.055-.436-1.404-1.102-1.765-.316-.172-1.025-.28-1.398-.16s-.73.663-.883 1.09"/><path fill="url(#man-climbing-light_svg__T)" d="m22.624 12.636-1.25 2.82 3.39 2.258c.563-.726 1.267-2.851 1.243-4.242-.018-1.055-.436-1.404-1.102-1.765-.316-.172-1.025-.28-1.398-.16s-.73.663-.883 1.09"/><path fill="url(#man-climbing-light_svg__U)" d="m22.624 12.636-1.25 2.82 3.39 2.258c.563-.726 1.267-2.851 1.243-4.242-.018-1.055-.436-1.404-1.102-1.765-.316-.172-1.025-.28-1.398-.16s-.73.663-.883 1.09"/><path fill="url(#man-climbing-light_svg__V)" d="m22.624 12.636-1.25 2.82 3.39 2.258c.563-.726 1.267-2.851 1.243-4.242-.018-1.055-.436-1.404-1.102-1.765-.316-.172-1.025-.28-1.398-.16s-.73.663-.883 1.09"/><g filter="url(#man-climbing-light_svg__W)"><path fill="#67636C" d="m19.464 20.396.969-1.17 4.058-.988c-.765 1.394-2 3.052-2.187 3.277-.234.281-.555.34-.89.176-.813-.4-1.61-.947-1.95-1.295"/><path fill="url(#man-climbing-light_svg__X)" d="m19.464 20.396.969-1.17 4.058-.988c-.765 1.394-2 3.052-2.187 3.277-.234.281-.555.34-.89.176-.813-.4-1.61-.947-1.95-1.295"/><path fill="url(#man-climbing-light_svg__Y)" d="m19.464 20.396.969-1.17 4.058-.988c-.765 1.394-2 3.052-2.187 3.277-.234.281-.555.34-.89.176-.813-.4-1.61-.947-1.95-1.295"/><path fill="url(#man-climbing-light_svg__Z)" d="m19.464 20.396.969-1.17 4.058-.988c-.765 1.394-2 3.052-2.187 3.277-.234.281-.555.34-.89.176-.813-.4-1.61-.947-1.95-1.295"/></g><g filter="url(#man-climbing-light_svg__aa)"><path fill="#E9B4A4" d="m18.425 15.093.797.32-.836 2.25-.834-.519a.25.25 0 0 0-.245-.01l-6.036 3.047a.2.2 0 0 1-.27-.091L9.67 17.33c-.047-.095-.03-.215.06-.272.24-.153.505-.097.905.112.381.2 1.143.895 1.492 1.215 1.1-.765 3.307-2.392 4.05-2.945.837-.621 1.846-.517 2.247-.348"/><path fill="url(#man-climbing-light_svg__ab)" d="m18.425 15.093.797.32-.836 2.25-.834-.519a.25.25 0 0 0-.245-.01l-6.036 3.047a.2.2 0 0 1-.27-.091L9.67 17.33c-.047-.095-.03-.215.06-.272.24-.153.505-.097.905.112.381.2 1.143.895 1.492 1.215 1.1-.765 3.307-2.392 4.05-2.945.837-.621 1.846-.517 2.247-.348"/></g><g filter="url(#man-climbing-light_svg__ac)"><path fill="#A7959B" d="m21.093 16.113.195-.438 3.516 2.024c-.034.106-.239.498-.789 1.21-.86 1.079-1.848 1.024-2.953.766-1.106-.258-1.723-.492-2.063-.601-.34-.11-.724-.306-.836-.64-.09-.27.034-.78.102-.954l.782-2.137a.02.02 0 0 1 .026-.012z"/><path fill="url(#man-climbing-light_svg__ad)" d="m21.093 16.113.195-.438 3.516 2.024c-.034.106-.239.498-.789 1.21-.86 1.079-1.848 1.024-2.953.766-1.106-.258-1.723-.492-2.063-.601-.34-.11-.724-.306-.836-.64-.09-.27.034-.78.102-.954l.782-2.137a.02.02 0 0 1 .026-.012z"/><path fill="url(#man-climbing-light_svg__ae)" d="m21.093 16.113.195-.438 3.516 2.024c-.034.106-.239.498-.789 1.21-.86 1.079-1.848 1.024-2.953.766-1.106-.258-1.723-.492-2.063-.601-.34-.11-.724-.306-.836-.64-.09-.27.034-.78.102-.954l.782-2.137a.02.02 0 0 1 .026-.012z"/><path fill="url(#man-climbing-light_svg__af)" d="m21.093 16.113.195-.438 3.516 2.024c-.034.106-.239.498-.789 1.21-.86 1.079-1.848 1.024-2.953.766-1.106-.258-1.723-.492-2.063-.601-.34-.11-.724-.306-.836-.64-.09-.27.034-.78.102-.954l.782-2.137a.02.02 0 0 1 .026-.012z"/></g><g filter="url(#man-climbing-light_svg__ag)"><path fill="#9F97A9" d="m21.093 16.113.195-.438 3.516 2.024c-.034.106-.239.498-.789 1.21-.86 1.079-1.848 1.024-2.953.766-1.106-.258-1.723-.492-2.063-.601-.34-.11-.724-.306-.836-.64-.09-.27.034-.78.102-.954l.782-2.137a.02.02 0 0 1 .026-.012z"/><path fill="url(#man-climbing-light_svg__ah)" d="m21.093 16.113.195-.438 3.516 2.024c-.034.106-.239.498-.789 1.21-.86 1.079-1.848 1.024-2.953.766-1.106-.258-1.723-.492-2.063-.601-.34-.11-.724-.306-.836-.64-.09-.27.034-.78.102-.954l.782-2.137a.02.02 0 0 1 .026-.012z"/><path fill="url(#man-climbing-light_svg__ai)" d="m21.093 16.113.195-.438 3.516 2.024c-.034.106-.239.498-.789 1.21-.86 1.079-1.848 1.024-2.953.766-1.106-.258-1.723-.492-2.063-.601-.34-.11-.724-.306-.836-.64-.09-.27.034-.78.102-.954l.782-2.137a.02.02 0 0 1 .026-.012z"/><path fill="url(#man-climbing-light_svg__aj)" d="m21.093 16.113.195-.438 3.516 2.024c-.034.106-.239.498-.789 1.21-.86 1.079-1.848 1.024-2.953.766-1.106-.258-1.723-.492-2.063-.601-.34-.11-.724-.306-.836-.64-.09-.27.034-.78.102-.954l.782-2.137a.02.02 0 0 1 .026-.012z"/></g><g filter="url(#man-climbing-light_svg__ak)"><path fill="#5C5089" d="m12.14 19.742-.91.455a.2.2 0 0 1-.27-.092l-1.32-2.758c-.046-.096 0-.23.09-.288.241-.153.506-.097.906.112.381.2 1.143.895 1.492 1.215l.012-.008z"/><path fill="url(#man-climbing-light_svg__al)" d="m12.14 19.742-.91.455a.2.2 0 0 1-.27-.092l-1.32-2.758c-.046-.096 0-.23.09-.288.241-.153.506-.097.906.112.381.2 1.143.895 1.492 1.215l.012-.008z"/></g><path fill="url(#man-climbing-light_svg__am)" fill-rule="evenodd" d="M21.072 15.48a.25.25 0 0 1 .341-.092l3.629 2.09a.25.25 0 1 1-.25.433l-3.628-2.09a.25.25 0 0 1-.092-.34" clip-rule="evenodd"/><path fill="url(#man-climbing-light_svg__an)" fill-rule="evenodd" d="M21.072 15.48a.25.25 0 0 1 .341-.092l3.629 2.09a.25.25 0 1 1-.25.433l-3.628-2.09a.25.25 0 0 1-.092-.34" clip-rule="evenodd"/><path fill="url(#man-climbing-light_svg__ao)" fill-rule="evenodd" d="M21.072 15.48a.25.25 0 0 1 .341-.092l3.629 2.09a.25.25 0 1 1-.25.433l-3.628-2.09a.25.25 0 0 1-.092-.34" clip-rule="evenodd"/><path fill="#F2C2A9" d="M20.484 6.613c.003.394-.166.708-.25.816l-.282-.695-.27.07c-.316.078-.437-.094-.456-.191-.02-.098-.043-.387.37-.469.415-.082.884-.023.888.469"/><path fill="url(#man-climbing-light_svg__ap)" d="M20.484 6.613c.003.394-.166.708-.25.816l-.282-.695-.27.07c-.316.078-.437-.094-.456-.191-.02-.098-.043-.387.37-.469.415-.082.884-.023.888.469"/><path fill="url(#man-climbing-light_svg__aq)" d="M20.484 6.613c.003.394-.166.708-.25.816l-.282-.695-.27.07c-.316.078-.437-.094-.456-.191-.02-.098-.043-.387.37-.469.415-.082.884-.023.888.469"/><path fill="#4D3C3D" d="m16.78 9.7.079.643.34 1.149.69-.367c-.175-.184-.309-.336-.44-.875a4 4 0 0 1-.08-.598.3.3 0 0 0-.312-.28.293.293 0 0 0-.277.328"/><path fill="#F2BBA9" d="m16.78 9.7.079.643.34 1.149.69-.367c-.175-.184-.309-.336-.44-.875a4 4 0 0 1-.08-.598.3.3 0 0 0-.312-.28.293.293 0 0 0-.277.328"/><path fill="#F6BCA8" d="M14.965 10.932a.232.232 0 0 1 .305-.349l1.245 1.088-.305.35z"/><path fill="url(#man-climbing-light_svg__ar)" d="M14.965 10.932a.232.232 0 0 1 .305-.349l1.245 1.088-.305.35z"/><path fill="#F6BCA8" d="M15.04 10.4a.28.28 0 1 1 .368-.421l1.5 1.31-.368.42z"/><path fill="url(#man-climbing-light_svg__as)" d="M15.04 10.4a.28.28 0 1 1 .368-.421l1.5 1.31-.368.42z"/><path fill="#F6BCA8" d="M15.192 9.883a.28.28 0 1 1 .368-.42l1.754 1.506-.368.42z"/><path fill="url(#man-climbing-light_svg__at)" d="M15.192 9.883a.28.28 0 1 1 .368-.42l1.754 1.506-.368.42z"/><g filter="url(#man-climbing-light_svg__au)"><path fill="url(#man-climbing-light_svg__av)" d="m25.161 9.973.488-1.367 1.663 1.17c-.182.276-.795 1.021-1.025 1.104-.318.113-.785.19-1.035-.118-.2-.247-.15-.65-.091-.789"/></g><circle cx="25.448" cy="9.029" r=".559" fill="url(#man-climbing-light_svg__aw)"/><path fill="#4D3771" fill-rule="evenodd" d="M25.714 8.178a.25.25 0 0 1 .032.352l-1.992 2.395a.25.25 0 0 1-.384-.32l1.992-2.394a.25.25 0 0 1 .352-.033" clip-rule="evenodd"/><path fill="url(#man-climbing-light_svg__ax)" fill-rule="evenodd" d="M25.714 8.178a.25.25 0 0 1 .032.352l-1.992 2.395a.25.25 0 0 1-.384-.32l1.992-2.394a.25.25 0 0 1 .352-.033" clip-rule="evenodd"/><path fill="url(#man-climbing-light_svg__ay)" fill-rule="evenodd" d="M25.714 8.178a.25.25 0 0 1 .032.352l-1.992 2.395a.25.25 0 0 1-.384-.32l1.992-2.394a.25.25 0 0 1 .352-.033" clip-rule="evenodd"/><path fill="url(#man-climbing-light_svg__az)" fill-rule="evenodd" d="M25.714 8.178a.25.25 0 0 1 .032.352l-1.992 2.395a.25.25 0 0 1-.384-.32l1.992-2.394a.25.25 0 0 1 .352-.033" clip-rule="evenodd"/><g filter="url(#man-climbing-light_svg__aA)"><path fill="url(#man-climbing-light_svg__aB)" d="m27.11 9.744-3.628-2.696a.22.22 0 0 1-.069-.288 4.8 4.8 0 0 1 .655-.866c.906-.957 1.909-.492 2.055-.438.21.078.754.313 1.5 1.024.875.834.742 1.703.476 2.226-.167.33-.457.742-.663 1a.235.235 0 0 1-.326.038"/></g><g filter="url(#man-climbing-light_svg__aC)"><path fill="url(#man-climbing-light_svg__aD)" d="M25.111 7.126a.3.3 0 0 1 .423-.055l.984.757a.302.302 0 0 1-.368.479l-.984-.758a.3.3 0 0 1-.055-.423"/></g><path fill="#F6BCA8" d="M15.765 9.653a.28.28 0 0 1 .367-.42l1.41 1.419-.226.512z"/><path fill="url(#man-climbing-light_svg__aE)" d="M15.765 9.653a.28.28 0 0 1 .367-.42l1.41 1.419-.226.512z"/><g filter="url(#man-climbing-light_svg__aF)"><path fill="#F2BBA9" fill-rule="evenodd" d="m18.264 13.927-2.655-2.435 1.259-1.372 2.59 2.527a.63.63 0 0 0 .581.15l1.65-.423.433 1.696-1.65.422a2.38 2.38 0 0 1-2.208-.565" clip-rule="evenodd"/></g><path fill="url(#man-climbing-light_svg__aG)" d="M21.095 16.108c.654.302 1.479.99 2.021 2.231.195.446.143.899-.041 1.322-.619.264-1.291.183-2.013.014a18 18 0 0 1-1.85-.53q-.12-.042-.213-.071c-.34-.11-.724-.306-.836-.64-.09-.27.034-.78.102-.954l.782-2.137a.02.02 0 0 1 .026-.012l2.02.782z"/><path fill="url(#man-climbing-light_svg__aH)" d="M21.095 16.108c.654.302 1.479.99 2.021 2.231.195.446.143.899-.041 1.322-.619.264-1.291.183-2.013.014a18 18 0 0 1-1.85-.53q-.12-.042-.213-.071c-.34-.11-.724-.306-.836-.64-.09-.27.034-.78.102-.954l.782-2.137a.02.02 0 0 1 .026-.012l2.02.782z"/><path fill="url(#man-climbing-light_svg__aI)" d="M21.095 16.108c.654.302 1.479.99 2.021 2.231.195.446.143.899-.041 1.322-.619.264-1.291.183-2.013.014a18 18 0 0 1-1.85-.53q-.12-.042-.213-.071c-.34-.11-.724-.306-.836-.64-.09-.27.034-.78.102-.954l.782-2.137a.02.02 0 0 1 .026-.012l2.02.782z"/><path fill="url(#man-climbing-light_svg__aJ)" d="m21.52 14.722-.547-2.156c.64-.154 1.85-.479 2.09-.535.45-.106 1.266-.154 1.465.816.183.895-.518 1.18-.86 1.281z"/><path fill="url(#man-climbing-light_svg__aK)" d="m21.52 14.722-.547-2.156c.64-.154 1.85-.479 2.09-.535.45-.106 1.266-.154 1.465.816.183.895-.518 1.18-.86 1.281z"/><path fill="url(#man-climbing-light_svg__aL)" d="m21.52 14.722-.547-2.156c.64-.154 1.85-.479 2.09-.535.45-.106 1.266-.154 1.465.816.183.895-.518 1.18-.86 1.281z"/><g filter="url(#man-climbing-light_svg__aM)"><path stroke="#FFCEB7" stroke-linecap="round" stroke-width=".3" d="m16.87 10.774 2.563 2.437"/></g><defs><radialGradient id="man-climbing-light_svg__a" cx="0" cy="0" r="1" gradientTransform="rotate(-80.068 20.499 9.6)scale(8.15344 17.6752)" gradientUnits="userSpaceOnUse"><stop offset=".378" stop-color="#E2E0E4"/><stop offset="1" stop-color="#A297AD"/></radialGradient><radialGradient id="man-climbing-light_svg__e" cx="0" cy="0" r="1" gradientTransform="rotate(-83.29 16.99 5.001)scale(2.67447 5.21781)" gradientUnits="userSpaceOnUse"><stop offset=".356" stop-color="#BCB9BE"/><stop offset="1" stop-color="#BCB9BE" stop-opacity="0"/></radialGradient><radialGradient id="man-climbing-light_svg__f" cx="0" cy="0" r="1" gradientTransform="rotate(155.431 3.193 10.455)scale(1.5806 2.92056)" gradientUnits="userSpaceOnUse"><stop offset=".126" stop-color="#958E9B"/><stop offset=".695" stop-color="#958E9B" stop-opacity="0"/></radialGradient><radialGradient id="man-climbing-light_svg__g" cx="0" cy="0" r="1" gradientTransform="matrix(5.21875 -2.75 .52109 .98889 3.913 21.011)" gradientUnits="userSpaceOnUse"><stop offset=".457" stop-color="#9F9CA3"/><stop offset="1" stop-color="#9F9CA3" stop-opacity="0"/></radialGradient><radialGradient id="man-climbing-light_svg__k" cx="0" cy="0" r="1" gradientTransform="rotate(174.89 9.5 5.08)scale(3.85909 10.4756)" gradientUnits="userSpaceOnUse"><stop offset=".351" stop-color="#E3D5D2"/><stop offset="1" stop-color="#E3D5D2" stop-opacity="0"/></radialGradient><radialGradient id="man-climbing-light_svg__o" cx="0" cy="0" r="1" gradientTransform="rotate(66.687 4.974 18.853)scale(6.35158 4.4947)" gradientUnits="userSpaceOnUse"><stop offset=".28" stop-color="#E8AD9B"/><stop offset="1" stop-color="#CB7E70"/></radialGradient><radialGradient id="man-climbing-light_svg__q" cx="0" cy="0" r="1" gradientTransform="matrix(9.95983 -3.00679 4.88716 16.18849 2.356 8.174)" gradientUnits="userSpaceOnUse"><stop offset=".897" stop-color="#D1CFD2" stop-opacity="0"/><stop offset=".982" stop-color="#E5E3E5"/></radialGradient><radialGradient id="man-climbing-light_svg__t" cx="0" cy="0" r="1" gradientTransform="matrix(2.875 -.8125 1.05147 3.72059 13.163 7.011)" gradientUnits="userSpaceOnUse"><stop offset=".275" stop-color="#E2DFE2"/><stop offset="1" stop-color="#D6D4D7"/></radialGradient><radialGradient id="man-climbing-light_svg__y" cx="0" cy="0" r="1" gradientTransform="matrix(-.10714 .67871 -.5326 -.08407 22.982 7.688)" gradientUnits="userSpaceOnUse"><stop offset=".391" stop-color="#DFAF96"/><stop offset="1" stop-color="#E8AC93"/></radialGradient><radialGradient id="man-climbing-light_svg__A" cx="0" cy="0" r="1" gradientTransform="matrix(0 -1.17188 1.40443 0 25.554 21.214)" gradientUnits="userSpaceOnUse"><stop stop-color="#5A3C98"/><stop offset="1" stop-color="#5A3C98" stop-opacity="0"/></radialGradient><radialGradient id="man-climbing-light_svg__B" cx="0" cy="0" r="1" gradientTransform="matrix(.39063 .6836 -1.70288 .97308 24.476 18.734)" gradientUnits="userSpaceOnUse"><stop stop-color="#413B69"/><stop offset="1" stop-color="#413B69" stop-opacity="0"/></radialGradient><radialGradient id="man-climbing-light_svg__C" cx="0" cy="0" r="1" gradientTransform="rotate(-89.741 18.3 -6.823)scale(1.12419 .93573)" gradientUnits="userSpaceOnUse"><stop stop-color="#F0AD9F"/><stop offset="1" stop-color="#E19384"/></radialGradient><radialGradient id="man-climbing-light_svg__E" cx="0" cy="0" r="1" gradientTransform="rotate(44.105 1.327 32.744)scale(2.82877 2.93389)" gradientUnits="userSpaceOnUse"><stop offset=".164" stop-color="#DDAC9A"/><stop offset="1" stop-color="#D79F9B"/></radialGradient><radialGradient id="man-climbing-light_svg__F" cx="0" cy="0" r="1" gradientTransform="rotate(119.268 10.45 11.797)scale(1.62995 1.31525)" gradientUnits="userSpaceOnUse"><stop stop-color="#B27D80"/><stop offset="1" stop-color="#B27D80" stop-opacity="0"/></radialGradient><radialGradient id="man-climbing-light_svg__I" cx="0" cy="0" r="1" gradientTransform="matrix(-.05078 .15625 -1.00516 -.32667 26.011 19.105)" gradientUnits="userSpaceOnUse"><stop stop-color="#63608C"/><stop offset="1" stop-color="#63608C" stop-opacity="0"/></radialGradient><radialGradient id="man-climbing-light_svg__L" cx="0" cy="0" r="1" gradientTransform="matrix(-2.23438 -.90624 .39526 -.97452 21.646 21.584)" gradientUnits="userSpaceOnUse"><stop offset=".191" stop-color="#CF9297"/><stop offset="1" stop-color="#CF9297" stop-opacity="0"/></radialGradient><radialGradient id="man-climbing-light_svg__M" cx="0" cy="0" r="1" gradientTransform="rotate(-144.462 16.16 9.714)scale(.80647 2.46844)" gradientUnits="userSpaceOnUse"><stop stop-color="#5E598C"/><stop offset="1" stop-color="#5E598C" stop-opacity="0"/></radialGradient><radialGradient id="man-climbing-light_svg__N" cx="0" cy="0" r="1" gradientTransform="rotate(-171.191 12.829 13.053)scale(2.03585 4.1214)" gradientUnits="userSpaceOnUse"><stop offset=".54" stop-color="#4D407B" stop-opacity="0"/><stop offset="1" stop-color="#4D407B"/></radialGradient><radialGradient id="man-climbing-light_svg__P" cx="0" cy="0" r="1" gradientTransform="matrix(-1.85938 -.29686 .97701 -6.1195 23.1 27.824)" gradientUnits="userSpaceOnUse"><stop offset=".604" stop-color="#7A7996" stop-opacity="0"/><stop offset="1" stop-color="#7A7996"/></radialGradient><radialGradient id="man-climbing-light_svg__S" cx="0" cy="0" r="1" gradientTransform="rotate(136.273 10.228 11.548)scale(2.98384 2.4723)" gradientUnits="userSpaceOnUse"><stop stop-color="#53BFFF"/><stop offset="1" stop-color="#53BFFF" stop-opacity="0"/></radialGradient><radialGradient id="man-climbing-light_svg__T" cx="0" cy="0" r="1" gradientTransform="matrix(.28125 1.35937 -3.85802 .79821 23.85 11.308)" gradientUnits="userSpaceOnUse"><stop stop-color="#4788C0"/><stop offset="1" stop-color="#4788C0" stop-opacity="0"/></radialGradient><radialGradient id="man-climbing-light_svg__U" cx="0" cy="0" r="1" gradientTransform="matrix(-2.06251 1.12498 -.6497 -1.19113 22.929 13.683)" gradientUnits="userSpaceOnUse"><stop stop-color="#1B7EEC"/><stop offset="1" stop-color="#1B7EEC" stop-opacity="0"/></radialGradient><radialGradient id="man-climbing-light_svg__V" cx="0" cy="0" r="1" gradientTransform="matrix(.98437 .46875 -1.87887 3.94563 21.507 14.84)" gradientUnits="userSpaceOnUse"><stop offset=".206" stop-color="#67A3DB"/><stop offset="1" stop-color="#67A3DB" stop-opacity="0"/></radialGradient><radialGradient id="man-climbing-light_svg__X" cx="0" cy="0" r="1" gradientTransform="matrix(1.64062 -2.32812 1.8984 1.3378 20.695 21.355)" gradientUnits="userSpaceOnUse"><stop stop-color="#716170"/><stop offset="1" stop-color="#716170" stop-opacity="0"/></radialGradient><radialGradient id="man-climbing-light_svg__Y" cx="0" cy="0" r="1" gradientTransform="matrix(.65625 .48438 -1.05948 1.43542 20.241 19.23)" gradientUnits="userSpaceOnUse"><stop stop-color="#948F8F"/><stop offset="1" stop-color="#948F8F" stop-opacity="0"/></radialGradient><radialGradient id="man-climbing-light_svg__Z" cx="0" cy="0" r="1" gradientTransform="matrix(-1.875 1.75 -.85312 -.91406 22.116 19.152)" gradientUnits="userSpaceOnUse"><stop offset=".12" stop-color="#5E505B"/><stop offset="1" stop-color="#5E505B" stop-opacity="0"/></radialGradient><radialGradient id="man-climbing-light_svg__ad" cx="0" cy="0" r="1" gradientTransform="matrix(-3.25 -1.34374 .47918 -1.15897 22.6 17.418)" gradientUnits="userSpaceOnUse"><stop stop-color="#AEA0A5"/><stop offset="1" stop-color="#AEA0A5" stop-opacity="0"/></radialGradient><radialGradient id="man-climbing-light_svg__af" cx="0" cy="0" r="1" gradientTransform="matrix(-.29687 .53125 -3.08778 -1.7255 23.304 16.761)" gradientUnits="userSpaceOnUse"><stop stop-color="#816878"/><stop offset="1" stop-color="#816878" stop-opacity="0"/></radialGradient><radialGradient id="man-climbing-light_svg__ah" cx="0" cy="0" r="1" gradientTransform="matrix(-3.25 -1.34374 .47918 -1.15897 22.6 17.418)" gradientUnits="userSpaceOnUse"><stop stop-color="#AEA0A5"/><stop offset="1" stop-color="#AEA0A5" stop-opacity="0"/></radialGradient><radialGradient id="man-climbing-light_svg__aj" cx="0" cy="0" r="1" gradientTransform="matrix(-.29687 .53125 -3.08778 -1.7255 23.304 16.761)" gradientUnits="userSpaceOnUse"><stop stop-color="#816878"/><stop offset="1" stop-color="#816878" stop-opacity="0"/></radialGradient><radialGradient id="man-climbing-light_svg__al" cx="0" cy="0" r="1" gradientTransform="rotate(-54.265 23.728 -.824)scale(1.57843 2.91744)" gradientUnits="userSpaceOnUse"><stop offset=".68" stop-color="#4A4476" stop-opacity="0"/><stop offset=".964" stop-color="#4A4476"/></radialGradient><radialGradient id="man-climbing-light_svg__ao" cx="0" cy="0" r="1" gradientTransform="matrix(1.21875 .67969 -.21221 .38051 20.96 15.714)" gradientUnits="userSpaceOnUse"><stop stop-color="#A6CA7D"/><stop offset="1" stop-color="#A6CA7D" stop-opacity="0"/></radialGradient><radialGradient id="man-climbing-light_svg__ap" cx="0" cy="0" r="1" gradientTransform="matrix(.70312 -.09375 .03207 .24052 19.982 6.318)" gradientUnits="userSpaceOnUse"><stop stop-color="#FBCDB7"/><stop offset="1" stop-color="#FBCDB7" stop-opacity="0"/></radialGradient><radialGradient id="man-climbing-light_svg__aq" cx="0" cy="0" r="1" gradientTransform="matrix(.8086 -.23047 .16066 .56368 19.716 7.11)" gradientUnits="userSpaceOnUse"><stop offset=".105" stop-color="#D8937C"/><stop offset="1" stop-color="#D8937C" stop-opacity="0"/></radialGradient><radialGradient id="man-climbing-light_svg__av" cx="0" cy="0" r="1" gradientTransform="rotate(126.754 11.003 11.495)scale(1.54063 1.00944)" gradientUnits="userSpaceOnUse"><stop stop-color="#231820"/><stop offset="1" stop-color="#151A31"/></radialGradient><radialGradient id="man-climbing-light_svg__aw" cx="0" cy="0" r="1" gradientTransform="rotate(83.69 7.771 18.644)scale(.81745)" gradientUnits="userSpaceOnUse"><stop offset=".392" stop-color="#CF9F9D"/><stop offset="1" stop-color="#C58284"/></radialGradient><radialGradient id="man-climbing-light_svg__az" cx="0" cy="0" r="1" gradientTransform="matrix(.13672 .11328 -.664 .80138 24.952 9.214)" gradientUnits="userSpaceOnUse"><stop stop-color="#564975"/><stop offset="1" stop-color="#4D3A6E" stop-opacity="0"/></radialGradient><radialGradient id="man-climbing-light_svg__aB" cx="0" cy="0" r="1" gradientTransform="rotate(129.693 11.8 9.744)scale(2.03059 2.38667)" gradientUnits="userSpaceOnUse"><stop offset=".045" stop-color="#4FBDFF"/><stop offset=".919" stop-color="#52ABE4"/></radialGradient><radialGradient id="man-climbing-light_svg__aD" cx="0" cy="0" r="1" gradientTransform="matrix(.36719 -.45313 1.162 .94162 25.663 7.917)" gradientUnits="userSpaceOnUse"><stop offset=".218" stop-color="#4B89D0"/><stop offset="1" stop-color="#337BCD"/></radialGradient><radialGradient id="man-climbing-light_svg__aG" cx="0" cy="0" r="1" gradientTransform="rotate(-160.017 12.503 6.664)scale(3.29195 1.49462)" gradientUnits="userSpaceOnUse"><stop stop-color="#AEA0A4"/><stop offset="1" stop-color="#AEA0A4" stop-opacity="0"/></radialGradient><radialGradient id="man-climbing-light_svg__aH" cx="0" cy="0" r="1" gradientTransform="matrix(1.15625 -3.3125 9.2644 3.2338 19.741 19.168)" gradientUnits="userSpaceOnUse"><stop offset=".771" stop-color="#A49BA8" stop-opacity="0"/><stop offset="1" stop-color="#7E7776"/></radialGradient><radialGradient id="man-climbing-light_svg__aI" cx="0" cy="0" r="1" gradientTransform="rotate(78.869 -1.732 19.68)scale(2.50907 .7401)" gradientUnits="userSpaceOnUse"><stop stop-color="#ADA2A2"/><stop offset="1" stop-color="#ADA2A2" stop-opacity="0"/></radialGradient><radialGradient id="man-climbing-light_svg__aJ" cx="0" cy="0" r="1" gradientTransform="rotate(98.903 6.583 16.004)scale(2.42307 5.69158)" gradientUnits="userSpaceOnUse"><stop offset=".274" stop-color="#34AEF0"/><stop offset="1" stop-color="#3A9CF8"/></radialGradient><radialGradient id="man-climbing-light_svg__aL" cx="0" cy="0" r="1" gradientTransform="matrix(-.92187 .21875 -.25309 -1.06657 24.695 12.636)" gradientUnits="userSpaceOnUse"><stop stop-color="#56C0FF"/><stop offset="1" stop-color="#56C0FF" stop-opacity="0"/></radialGradient><linearGradient id="man-climbing-light_svg__b" x1="11.438" x2="11.438" y1="29.683" y2="28.388" gradientUnits="userSpaceOnUse"><stop stop-color="#D2CDD5"/><stop offset="1" stop-color="#E3E1E5" stop-opacity="0"/></linearGradient><linearGradient id="man-climbing-light_svg__c" x1="5.32" x2="6.476" y1="17.261" y2="20.543" gradientUnits="userSpaceOnUse"><stop offset=".373" stop-color="#A9A5AD"/><stop offset="1" stop-color="#A5A2A8"/></linearGradient><linearGradient id="man-climbing-light_svg__d" x1="5.82" x2="6.163" y1="17.261" y2="18.23" gradientUnits="userSpaceOnUse"><stop offset=".142" stop-color="#948B99"/><stop offset="1" stop-color="#AAA6AE" stop-opacity="0"/></linearGradient><linearGradient id="man-climbing-light_svg__i" x1="13.413" x2="11.57" y1="1.574" y2="14.699" gradientUnits="userSpaceOnUse"><stop offset=".518" stop-color="#E5E3E5"/><stop offset="1" stop-color="#AE9EA8"/></linearGradient><linearGradient id="man-climbing-light_svg__j" x1="2.601" x2="13.132" y1="17.449" y2="13.293" gradientUnits="userSpaceOnUse"><stop offset=".293" stop-color="#9C93A5"/><stop offset="1" stop-color="#9C93A5" stop-opacity="0"/></linearGradient><linearGradient id="man-climbing-light_svg__m" x1="14.269" x2="16.87" y1="10.4" y2="14.918" gradientUnits="userSpaceOnUse"><stop offset=".368" stop-color="#908790"/><stop offset="1" stop-color="#908790" stop-opacity="0"/></linearGradient><linearGradient id="man-climbing-light_svg__p" x1="4.507" x2="6.882" y1="4.98" y2="13.261" gradientUnits="userSpaceOnUse"><stop stop-color="#C7C5C9"/><stop offset="1" stop-color="#C2BFC5"/></linearGradient><linearGradient id="man-climbing-light_svg__r" x1="5.788" x2="5.507" y1="13.871" y2="12.871" gradientUnits="userSpaceOnUse"><stop stop-color="#9D94A6"/><stop offset="1" stop-color="#C3C0C6" stop-opacity="0"/></linearGradient><linearGradient id="man-climbing-light_svg__v" x1="19.609" x2="21.582" y1="7.429" y2="10.374" gradientUnits="userSpaceOnUse"><stop stop-color="#F4BDA7"/><stop offset="1" stop-color="#F4BDA7" stop-opacity="0"/></linearGradient><linearGradient id="man-climbing-light_svg__x" x1="19.576" x2="20.935" y1="10.682" y2="15.342" gradientUnits="userSpaceOnUse"><stop stop-color="#489778"/><stop offset="1" stop-color="#648431"/></linearGradient><linearGradient id="man-climbing-light_svg__z" x1="25.101" x2="26.507" y1="20.027" y2="20.027" gradientUnits="userSpaceOnUse"><stop stop-color="#554682"/><stop offset="1" stop-color="#66619B"/></linearGradient><linearGradient id="man-climbing-light_svg__G" x1="24.875" x2="24.601" y1="18.289" y2="18.289" gradientUnits="userSpaceOnUse"><stop offset=".269" stop-color="#535478"/><stop offset="1" stop-color="#333061"/></linearGradient><linearGradient id="man-climbing-light_svg__H" x1="26.491" x2="24.475" y1="19.567" y2="18.73" gradientUnits="userSpaceOnUse"><stop stop-color="#40347F"/><stop offset="1" stop-color="#292557"/></linearGradient><linearGradient id="man-climbing-light_svg__K" x1="22.739" x2="21.339" y1="25.11" y2="25.745" gradientUnits="userSpaceOnUse"><stop stop-color="#FFD4BD"/><stop offset="1" stop-color="#FFD4BD" stop-opacity="0"/></linearGradient><linearGradient id="man-climbing-light_svg__O" x1="23.261" x2="23.155" y1="27.648" y2="27.566" gradientUnits="userSpaceOnUse"><stop stop-color="#4B4386"/><stop offset="1" stop-color="#4B4386" stop-opacity="0"/></linearGradient><linearGradient id="man-climbing-light_svg__Q" x1="23.659" x2="23.905" y1="7.972" y2="7.535" gradientUnits="userSpaceOnUse"><stop stop-color="#6F443D"/><stop offset="1" stop-color="#5A332D"/></linearGradient><linearGradient id="man-climbing-light_svg__R" x1="24.882" x2="22.695" y1="15.542" y2="11.73" gradientUnits="userSpaceOnUse"><stop stop-color="#3AADFF"/><stop offset="1" stop-color="#4D94CD"/></linearGradient><linearGradient id="man-climbing-light_svg__ab" x1="14.177" x2="14.802" y1="16.584" y2="17.583" gradientUnits="userSpaceOnUse"><stop stop-color="#EEBBA3"/><stop offset="1" stop-color="#EEBBA3" stop-opacity="0"/></linearGradient><linearGradient id="man-climbing-light_svg__ae" x1="20.132" x2="21.101" y1="19.831" y2="16.855" gradientUnits="userSpaceOnUse"><stop stop-color="#8C7786"/><stop offset="1" stop-color="#8C7786" stop-opacity="0"/></linearGradient><linearGradient id="man-climbing-light_svg__ai" x1="20.132" x2="21.101" y1="19.831" y2="16.855" gradientUnits="userSpaceOnUse"><stop stop-color="#8C7786"/><stop offset="1" stop-color="#8C7786" stop-opacity="0"/></linearGradient><linearGradient id="man-climbing-light_svg__am" x1="23.103" x2="23.103" y1="16.418" y2="17.855" gradientUnits="userSpaceOnUse"><stop stop-color="#8BAD3A"/><stop offset="1" stop-color="#337267"/></linearGradient><linearGradient id="man-climbing-light_svg__an" x1="24.296" x2="24.527" y1="17.945" y2="17.5" gradientUnits="userSpaceOnUse"><stop offset=".457" stop-color="#3A5669"/><stop offset="1" stop-color="#417C62" stop-opacity="0"/></linearGradient><linearGradient id="man-climbing-light_svg__ar" x1="15.617" x2="15.756" y1="11.441" y2="11.273" gradientUnits="userSpaceOnUse"><stop offset=".002" stop-color="#ECAE9B"/><stop offset="1" stop-color="#ECAE9B" stop-opacity="0"/></linearGradient><linearGradient id="man-climbing-light_svg__as" x1="15.825" x2="15.993" y1="11.012" y2="10.81" gradientUnits="userSpaceOnUse"><stop offset=".002" stop-color="#ECAE9B"/><stop offset="1" stop-color="#ECAE9B" stop-opacity="0"/></linearGradient><linearGradient id="man-climbing-light_svg__at" x1="16.091" x2="16.277" y1="10.616" y2="10.389" gradientUnits="userSpaceOnUse"><stop offset=".002" stop-color="#ECAE9B"/><stop offset="1" stop-color="#ECAE9B" stop-opacity="0"/></linearGradient><linearGradient id="man-climbing-light_svg__ax" x1="24.945" x2="24.624" y1="9.568" y2="9.324" gradientUnits="userSpaceOnUse"><stop stop-color="#37234C"/><stop offset="1" stop-color="#37234C" stop-opacity="0"/></linearGradient><linearGradient id="man-climbing-light_svg__ay" x1="23.491" x2="23.929" y1="10.121" y2="10.41" gradientUnits="userSpaceOnUse"><stop offset=".324" stop-color="#72687C"/><stop offset="1" stop-color="#72687C" stop-opacity="0"/></linearGradient><linearGradient id="man-climbing-light_svg__aE" x1="16.509" x2="16.699" y1="10.388" y2="10.192" gradientUnits="userSpaceOnUse"><stop offset=".002" stop-color="#ECAE9B"/><stop offset="1" stop-color="#ECAE9B" stop-opacity="0"/></linearGradient><linearGradient id="man-climbing-light_svg__aK" x1="23.21" x2="23.085" y1="14.449" y2="13.527" gradientUnits="userSpaceOnUse"><stop stop-color="#2280E0"/><stop offset="1" stop-color="#2280E0" stop-opacity="0"/></linearGradient><filter id="man-climbing-light_svg__h" width="8.743" height="7.346" x="1.956" y="22.738" color-interpolation-filters="sRGB" filterUnits="userSpaceOnUse"><feFlood flood-opacity="0" result="BackgroundImageFix"/><feBlend in="SourceGraphic" in2="BackgroundImageFix" result="shape"/><feColorMatrix in="SourceAlpha" result="hardAlpha" values="0 0 0 0 0 0 0 0 0 0 0 0 0 0 0 0 0 0 127 0"/><feOffset dx="-.4" dy=".4"/><feGaussianBlur stdDeviation=".5"/><feComposite in2="hardAlpha" k2="-1" k3="1" operator="arithmetic"/><feColorMatrix values="0 0 0 0 0.635294 0 0 0 0 0.607843 0 0 0 0 0.670588 0 0 0 1 0"/><feBlend in2="shape" result="effect1_innerShadow_4002_866"/><feColorMatrix in="SourceAlpha" result="hardAlpha" values="0 0 0 0 0 0 0 0 0 0 0 0 0 0 0 0 0 0 127 0"/><feOffset dx="-.1" dy=".1"/><feGaussianBlur stdDeviation=".5"/><feComposite in2="hardAlpha" k2="-1" k3="1" operator="arithmetic"/><feColorMatrix values="0 0 0 0 0.847059 0 0 0 0 0.831373 0 0 0 0 0.862745 0 0 0 1 0"/><feBlend in2="effect1_innerShadow_4002_866" result="effect2_innerShadow_4002_866"/></filter><filter id="man-climbing-light_svg__l" width="4.276" height="5.599" x="13.345" y="9.057" color-interpolation-filters="sRGB" filterUnits="userSpaceOnUse"><feFlood flood-opacity="0" result="BackgroundImageFix"/><feBlend in="SourceGraphic" in2="BackgroundImageFix" result="shape"/><feGaussianBlur result="effect1_foregroundBlur_4002_866" stdDeviation=".375"/></filter><filter id="man-climbing-light_svg__n" width="6.514" height="7.799" x="18.148" y="5.699" color-interpolation-filters="sRGB" filterUnits="userSpaceOnUse"><feFlood flood-opacity="0" result="BackgroundImageFix"/><feBlend in="SourceGraphic" in2="BackgroundImageFix" result="shape"/><feColorMatrix in="SourceAlpha" result="hardAlpha" values="0 0 0 0 0 0 0 0 0 0 0 0 0 0 0 0 0 0 127 0"/><feOffset dx=".25"/><feGaussianBlur stdDeviation=".25"/><feComposite in2="hardAlpha" k2="-1" k3="1" operator="arithmetic"/><feColorMatrix values="0 0 0 0 1 0 0 0 0 0.784314 0 0 0 0 0.698039 0 0 0 1 0"/><feBlend in2="shape" result="effect1_innerShadow_4002_866"/></filter><filter id="man-climbing-light_svg__s" width="3.479" height="7.738" x="13.92" y="1.634" color-interpolation-filters="sRGB" filterUnits="userSpaceOnUse"><feFlood flood-opacity="0" result="BackgroundImageFix"/><feBlend in="SourceGraphic" in2="BackgroundImageFix" result="shape"/><feColorMatrix in="SourceAlpha" result="hardAlpha" values="0 0 0 0 0 0 0 0 0 0 0 0 0 0 0 0 0 0 127 0"/><feOffset dx="-.02" dy="-.06"/><feGaussianBlur stdDeviation=".05"/><feComposite in2="hardAlpha" k2="-1" k3="1" operator="arithmetic"/><feColorMatrix values="0 0 0 0 0.85098 0 0 0 0 0.792157 0 0 0 0 0.776471 0 0 0 1 0"/><feBlend in2="shape" result="effect1_innerShadow_4002_866"/></filter><filter id="man-climbing-light_svg__u" width="2.679" height="4.12" x="19.144" y="6.982" color-interpolation-filters="sRGB" filterUnits="userSpaceOnUse"><feFlood flood-opacity="0" result="BackgroundImageFix"/><feBlend in="SourceGraphic" in2="BackgroundImageFix" result="shape"/><feGaussianBlur result="effect1_foregroundBlur_4002_866" stdDeviation=".15"/></filter><filter id="man-climbing-light_svg__w" width="2.822" height="15.029" x="19.286" y="1.738" color-interpolation-filters="sRGB" filterUnits="userSpaceOnUse"><feFlood flood-opacity="0" result="BackgroundImageFix"/><feBlend in="SourceGraphic" in2="BackgroundImageFix" result="shape"/><feColorMatrix in="SourceAlpha" result="hardAlpha" values="0 0 0 0 0 0 0 0 0 0 0 0 0 0 0 0 0 0 127 0"/><feOffset dx=".2"/><feGaussianBlur stdDeviation=".125"/><feComposite in2="hardAlpha" k2="-1" k3="1" operator="arithmetic"/><feColorMatrix values="0 0 0 0 0.223529 0 0 0 0 0.47451 0 0 0 0 0.360784 0 0 0 1 0"/><feBlend in2="shape" result="effect1_innerShadow_4002_866"/></filter><filter id="man-climbing-light_svg__D" width="4.68" height="4.407" x="21.992" y="6.722" color-interpolation-filters="sRGB" filterUnits="userSpaceOnUse"><feFlood flood-opacity="0" result="BackgroundImageFix"/><feBlend in="SourceGraphic" in2="BackgroundImageFix" result="shape"/><feColorMatrix in="SourceAlpha" result="hardAlpha" values="0 0 0 0 0 0 0 0 0 0 0 0 0 0 0 0 0 0 127 0"/><feOffset dx="-.25" dy="-.25"/><feGaussianBlur stdDeviation=".25"/><feComposite in2="hardAlpha" k2="-1" k3="1" operator="arithmetic"/><feColorMatrix values="0 0 0 0 0.866667 0 0 0 0 0.486275 0 0 0 0 0.486275 0 0 0 1 0"/><feBlend in2="shape" result="effect1_innerShadow_4002_866"/><feColorMatrix in="SourceAlpha" result="hardAlpha" values="0 0 0 0 0 0 0 0 0 0 0 0 0 0 0 0 0 0 127 0"/><feOffset dx=".25" dy=".15"/><feGaussianBlur stdDeviation=".15"/><feComposite in2="hardAlpha" k2="-1" k3="1" operator="arithmetic"/><feColorMatrix values="0 0 0 0 1 0 0 0 0 0.745098 0 0 0 0 0.654902 0 0 0 1 0"/><feBlend in2="effect1_innerShadow_4002_866" result="effect2_innerShadow_4002_866"/></filter><filter id="man-climbing-light_svg__J" width="5.316" height="9.197" x="18.756" y="20.127" color-interpolation-filters="sRGB" filterUnits="userSpaceOnUse"><feFlood flood-opacity="0" result="BackgroundImageFix"/><feBlend in="SourceGraphic" in2="BackgroundImageFix" result="shape"/><feColorMatrix in="SourceAlpha" result="hardAlpha" values="0 0 0 0 0 0 0 0 0 0 0 0 0 0 0 0 0 0 127 0"/><feOffset dx=".15" dy="-.15"/><feGaussianBlur stdDeviation=".25"/><feComposite in2="hardAlpha" k2="-1" k3="1" operator="arithmetic"/><feColorMatrix values="0 0 0 0 1 0 0 0 0 0.784314 0 0 0 0 0.705882 0 0 0 1 0"/><feBlend in2="shape" result="effect1_innerShadow_4002_866"/></filter><filter id="man-climbing-light_svg__W" width="5.527" height="3.544" x="18.964" y="18.238" color-interpolation-filters="sRGB" filterUnits="userSpaceOnUse"><feFlood flood-opacity="0" result="BackgroundImageFix"/><feBlend in="SourceGraphic" in2="BackgroundImageFix" result="shape"/><feColorMatrix in="SourceAlpha" result="hardAlpha" values="0 0 0 0 0 0 0 0 0 0 0 0 0 0 0 0 0 0 127 0"/><feOffset dx="-.5"/><feGaussianBlur stdDeviation=".5"/><feComposite in2="hardAlpha" k2="-1" k3="1" operator="arithmetic"/><feColorMatrix values="0 0 0 0 0.407843 0 0 0 0 0.4 0 0 0 0 0.407843 0 0 0 1 0"/><feBlend in2="shape" result="effect1_innerShadow_4002_866"/></filter><filter id="man-climbing-light_svg__aa" width="9.577" height="5.489" x="9.645" y="14.713" color-interpolation-filters="sRGB" filterUnits="userSpaceOnUse"><feFlood flood-opacity="0" result="BackgroundImageFix"/><feBlend in="SourceGraphic" in2="BackgroundImageFix" result="shape"/><feColorMatrix in="SourceAlpha" result="hardAlpha" values="0 0 0 0 0 0 0 0 0 0 0 0 0 0 0 0 0 0 127 0"/><feOffset dy="-.25"/><feGaussianBlur stdDeviation=".375"/><feComposite in2="hardAlpha" k2="-1" k3="1" operator="arithmetic"/><feColorMatrix values="0 0 0 0 0.74902 0 0 0 0 0.505882 0 0 0 0 0.568627 0 0 0 1 0"/><feBlend in2="shape" result="effect1_innerShadow_4002_866"/></filter><filter id="man-climbing-light_svg__ac" width="6.672" height="5.002" x="18.132" y="14.83" color-interpolation-filters="sRGB" filterUnits="userSpaceOnUse"><feFlood flood-opacity="0" result="BackgroundImageFix"/><feBlend in="SourceGraphic" in2="BackgroundImageFix" result="shape"/><feColorMatrix in="SourceAlpha" result="hardAlpha" values="0 0 0 0 0 0 0 0 0 0 0 0 0 0 0 0 0 0 127 0"/><feOffset dy="-.5"/><feGaussianBlur stdDeviation=".375"/><feComposite in2="hardAlpha" k2="-1" k3="1" operator="arithmetic"/><feColorMatrix values="0 0 0 0 0.423529 0 0 0 0 0.372549 0 0 0 0 0.407843 0 0 0 1 0"/><feBlend in2="shape" result="effect1_innerShadow_4002_866"/></filter><filter id="man-climbing-light_svg__ag" width="6.922" height="5.002" x="18.132" y="14.83" color-interpolation-filters="sRGB" filterUnits="userSpaceOnUse"><feFlood flood-opacity="0" result="BackgroundImageFix"/><feBlend in="SourceGraphic" in2="BackgroundImageFix" result="shape"/><feColorMatrix in="SourceAlpha" result="hardAlpha" values="0 0 0 0 0 0 0 0 0 0 0 0 0 0 0 0 0 0 127 0"/><feOffset dx=".25" dy="-.5"/><feGaussianBlur stdDeviation=".375"/><feComposite in2="hardAlpha" k2="-1" k3="1" operator="arithmetic"/><feColorMatrix values="0 0 0 0 0.513726 0 0 0 0 0.364706 0 0 0 0 0.639216 0 0 0 1 0"/><feBlend in2="shape" result="effect1_innerShadow_4002_866"/></filter><filter id="man-climbing-light_svg__ak" width="2.568" height="3.646" x="9.622" y="16.572" color-interpolation-filters="sRGB" filterUnits="userSpaceOnUse"><feFlood flood-opacity="0" result="BackgroundImageFix"/><feBlend in="SourceGraphic" in2="BackgroundImageFix" result="shape"/><feColorMatrix in="SourceAlpha" result="hardAlpha" values="0 0 0 0 0 0 0 0 0 0 0 0 0 0 0 0 0 0 127 0"/><feOffset dx=".05" dy="-.4"/><feGaussianBlur stdDeviation=".2"/><feComposite in2="hardAlpha" k2="-1" k3="1" operator="arithmetic"/><feColorMatrix values="0 0 0 0 0.321569 0 0 0 0 0.247059 0 0 0 0 0.537255 0 0 0 1 0"/><feBlend in2="shape" result="effect1_innerShadow_4002_866"/></filter><filter id="man-climbing-light_svg__au" width="2.604" height="2.473" x="25.109" y="8.506" color-interpolation-filters="sRGB" filterUnits="userSpaceOnUse"><feFlood flood-opacity="0" result="BackgroundImageFix"/><feBlend in="SourceGraphic" in2="BackgroundImageFix" result="shape"/><feColorMatrix in="SourceAlpha" result="hardAlpha" values="0 0 0 0 0 0 0 0 0 0 0 0 0 0 0 0 0 0 127 0"/><feOffset dx=".4" dy="-.1"/><feGaussianBlur stdDeviation=".25"/><feComposite in2="hardAlpha" k2="-1" k3="1" operator="arithmetic"/><feColorMatrix values="0 0 0 0 0.0784314 0 0 0 0 0.0745098 0 0 0 0 0.12549 0 0 0 1 0"/><feBlend in2="shape" result="effect1_innerShadow_4002_866"/></filter><filter id="man-climbing-light_svg__aA" width="4.913" height="4.647" x="23.386" y="5.146" color-interpolation-filters="sRGB" filterUnits="userSpaceOnUse"><feFlood flood-opacity="0" result="BackgroundImageFix"/><feBlend in="SourceGraphic" in2="BackgroundImageFix" result="shape"/><feColorMatrix in="SourceAlpha" result="hardAlpha" values="0 0 0 0 0 0 0 0 0 0 0 0 0 0 0 0 0 0 127 0"/><feOffset dy="-.15"/><feGaussianBlur stdDeviation=".3"/><feComposite in2="hardAlpha" k2="-1" k3="1" operator="arithmetic"/><feColorMatrix values="0 0 0 0 0.305882 0 0 0 0 0.556863 0 0 0 0 0.882353 0 0 0 1 0"/><feBlend in2="shape" result="effect1_innerShadow_4002_866"/></filter><filter id="man-climbing-light_svg__aC" width="1.588" height="1.361" x="25.048" y="7.008" color-interpolation-filters="sRGB" filterUnits="userSpaceOnUse"><feFlood flood-opacity="0" result="BackgroundImageFix"/><feBlend in="SourceGraphic" in2="BackgroundImageFix" result="shape"/><feColorMatrix in="SourceAlpha" result="hardAlpha" values="0 0 0 0 0 0 0 0 0 0 0 0 0 0 0 0 0 0 127 0"/><feOffset/><feGaussianBlur stdDeviation=".25"/><feComposite in2="hardAlpha" k2="-1" k3="1" operator="arithmetic"/><feColorMatrix values="0 0 0 0 0.137255 0 0 0 0 0.482353 0 0 0 0 0.796078 0 0 0 1 0"/><feBlend in2="shape" result="effect1_innerShadow_4002_866"/></filter><filter id="man-climbing-light_svg__aF" width="6.514" height="4.796" x="15.609" y="9.77" color-interpolation-filters="sRGB" filterUnits="userSpaceOnUse"><feFlood flood-opacity="0" result="BackgroundImageFix"/><feBlend in="SourceGraphic" in2="BackgroundImageFix" result="shape"/><feColorMatrix in="SourceAlpha" result="hardAlpha" values="0 0 0 0 0 0 0 0 0 0 0 0 0 0 0 0 0 0 127 0"/><feOffset dy="-.35"/><feGaussianBlur stdDeviation=".325"/><feComposite in2="hardAlpha" k2="-1" k3="1" operator="arithmetic"/><feColorMatrix values="0 0 0 0 0.866667 0 0 0 0 0.619608 0 0 0 0 0.584314 0 0 0 1 0"/><feBlend in2="shape" result="effect1_innerShadow_4002_866"/></filter><filter id="man-climbing-light_svg__aM" width="3.862" height="3.738" x="16.22" y="10.124" color-interpolation-filters="sRGB" filterUnits="userSpaceOnUse"><feFlood flood-opacity="0" result="BackgroundImageFix"/><feBlend in="SourceGraphic" in2="BackgroundImageFix" result="shape"/><feGaussianBlur result="effect1_foregroundBlur_4002_866" stdDeviation=".25"/></filter></defs></svg>