<svg xmlns="http://www.w3.org/2000/svg" fill="none" viewBox="0 0 32 32"><path fill="url(#man-frowning-light_svg__a)" d="M16 19.631c-5.502 0-9.963 4.461-9.963 9.963v.21h19.926v-.21c0-5.502-4.46-9.963-9.963-9.963"/><path fill="url(#man-frowning-light_svg__b)" d="M16 19.631c-5.502 0-9.963 4.461-9.963 9.963v.21h19.926v-.21c0-5.502-4.46-9.963-9.963-9.963"/><path fill="url(#man-frowning-light_svg__c)" d="M16 19.631c-5.502 0-9.963 4.461-9.963 9.963v.21h19.926v-.21c0-5.502-4.46-9.963-9.963-9.963"/><path fill="url(#man-frowning-light_svg__d)" d="M16 19.631c-5.502 0-9.963 4.461-9.963 9.963v.21h19.926v-.21c0-5.502-4.46-9.963-9.963-9.963"/><path fill="url(#man-frowning-light_svg__e)" d="M16 19.631c-5.502 0-9.963 4.461-9.963 9.963v.21h19.926v-.21c0-5.502-4.46-9.963-9.963-9.963"/><rect width="5.188" height="6.789" x="13.451" y="17.141" fill="url(#man-frowning-light_svg__f)" rx="2.594"/><g filter="url(#man-frowning-light_svg__g)"><circle cx="9.895" cy="13.303" r="2.156" fill="url(#man-frowning-light_svg__h)"/></g><g filter="url(#man-frowning-light_svg__i)"><circle cx="9.895" cy="13.303" r="1.285" fill="url(#man-frowning-light_svg__j)"/></g><g filter="url(#man-frowning-light_svg__k)"><circle cx="22.18" cy="13.303" r="2.156" fill="url(#man-frowning-light_svg__l)"/><circle cx="22.18" cy="13.303" r="2.156" fill="url(#man-frowning-light_svg__m)"/></g><g filter="url(#man-frowning-light_svg__n)"><circle cx="22.18" cy="13.303" r="1.285" fill="#E4AF9A"/><circle cx="22.18" cy="13.303" r="1.285" fill="url(#man-frowning-light_svg__o)"/><circle cx="22.18" cy="13.303" r="1.285" fill="url(#man-frowning-light_svg__p)"/></g><g filter="url(#man-frowning-light_svg__q)"><path fill="url(#man-frowning-light_svg__r)" d="M9.366 10.655c0-.345.138-.758.415-.964l.208-.207c.346-.276.485-.689.485-1.102V7.28c0-.344.208-.62.554-.689.831-.206 2.563-.55 5.056-.55 2.494 0 4.225.344 5.056.55.277.07.555.345.555.69v1.101c0 .413.207.826.484 1.102.649.454.608.704.554 1.24-.069.688-.138 1.859-.138 1.859h.023l-.343 5.111c-.207 2.285-2.004 3.878-4.145 3.878h-4.146c-2.21 0-3.938-1.593-4.145-3.878-.18-2.345-.26-4.698-.473-7.04"/><path fill="url(#man-frowning-light_svg__s)" d="M9.366 10.655c0-.345.138-.758.415-.964l.208-.207c.346-.276.485-.689.485-1.102V7.28c0-.344.208-.62.554-.689.831-.206 2.563-.55 5.056-.55 2.494 0 4.225.344 5.056.55.277.07.555.345.555.69v1.101c0 .413.207.826.484 1.102.649.454.608.704.554 1.24-.069.688-.138 1.859-.138 1.859h.023l-.343 5.111c-.207 2.285-2.004 3.878-4.145 3.878h-4.146c-2.21 0-3.938-1.593-4.145-3.878-.18-2.345-.26-4.698-.473-7.04"/><path fill="url(#man-frowning-light_svg__t)" d="M9.366 10.655c0-.345.138-.758.415-.964l.208-.207c.346-.276.485-.689.485-1.102V7.28c0-.344.208-.62.554-.689.831-.206 2.563-.55 5.056-.55 2.494 0 4.225.344 5.056.55.277.07.555.345.555.69v1.101c0 .413.207.826.484 1.102.649.454.608.704.554 1.24-.069.688-.138 1.859-.138 1.859h.023l-.343 5.111c-.207 2.285-2.004 3.878-4.145 3.878h-4.146c-2.21 0-3.938-1.593-4.145-3.878-.18-2.345-.26-4.698-.473-7.04"/><path fill="url(#man-frowning-light_svg__u)" d="M9.366 10.655c0-.345.138-.758.415-.964l.208-.207c.346-.276.485-.689.485-1.102V7.28c0-.344.208-.62.554-.689.831-.206 2.563-.55 5.056-.55 2.494 0 4.225.344 5.056.55.277.07.555.345.555.69v1.101c0 .413.207.826.484 1.102.649.454.608.704.554 1.24-.069.688-.138 1.859-.138 1.859h.023l-.343 5.111c-.207 2.285-2.004 3.878-4.145 3.878h-4.146c-2.21 0-3.938-1.593-4.145-3.878-.18-2.345-.26-4.698-.473-7.04"/><path fill="url(#man-frowning-light_svg__v)" d="M9.366 10.655c0-.345.138-.758.415-.964l.208-.207c.346-.276.485-.689.485-1.102V7.28c0-.344.208-.62.554-.689.831-.206 2.563-.55 5.056-.55 2.494 0 4.225.344 5.056.55.277.07.555.345.555.69v1.101c0 .413.207.826.484 1.102.649.454.608.704.554 1.24-.069.688-.138 1.859-.138 1.859h.023l-.343 5.111c-.207 2.285-2.004 3.878-4.145 3.878h-4.146c-2.21 0-3.938-1.593-4.145-3.878-.18-2.345-.26-4.698-.473-7.04"/></g><g filter="url(#man-frowning-light_svg__w)"><path fill="url(#man-frowning-light_svg__x)" d="M21.144 6.04 17.17 7.366a1.352 1.352 0 0 0 .607 2.623l3.951-.529z"/></g><g filter="url(#man-frowning-light_svg__y)"><path fill="#242324" d="m22.249 4.939.554.275c.97.482 1.523 1.584 1.316 2.755l-.762 3.925c-.068.406-.336.679-.739.689h-.023s.07-1.17.138-1.86c.057-.559-.041-.73-.554-1.24-.277-.275-.484-.688-.484-1.101V7.28c0-.344-.278-.62-.555-.689-.83-.206-2.562-.55-5.056-.55-2.493 0-4.225.344-5.056.55-.346.07-.554.345-.554.69v1.101c0 .413-.139.826-.485 1.102l-.208.207c-.277.206-.415.62-.415.964.069.757.138 1.86.138 1.86l-.063-.003a.82.82 0 0 1-.768-.687L7.911 7.9c-.138-1.102.416-2.204 1.385-2.686l.555-.275c.346-.207.692-.482 1.038-.758l1.247-1.308c.762-.69 1.87-.896 2.84-.414a3.8 3.8 0 0 0 2.147 0c1.04-.344 2.217-.068 3.048.69L21.21 4.18c.277.344.623.551 1.039.758"/><path fill="url(#man-frowning-light_svg__z)" d="m22.249 4.939.554.275c.97.482 1.523 1.584 1.316 2.755l-.762 3.925c-.068.406-.336.679-.739.689h-.023s.07-1.17.138-1.86c.057-.559-.041-.73-.554-1.24-.277-.275-.484-.688-.484-1.101V7.28c0-.344-.278-.62-.555-.689-.83-.206-2.562-.55-5.056-.55-2.493 0-4.225.344-5.056.55-.346.07-.554.345-.554.69v1.101c0 .413-.139.826-.485 1.102l-.208.207c-.277.206-.415.62-.415.964.069.757.138 1.86.138 1.86l-.063-.003a.82.82 0 0 1-.768-.687L7.911 7.9c-.138-1.102.416-2.204 1.385-2.686l.555-.275c.346-.207.692-.482 1.038-.758l1.247-1.308c.762-.69 1.87-.896 2.84-.414a3.8 3.8 0 0 0 2.147 0c1.04-.344 2.217-.068 3.048.69L21.21 4.18c.277.344.623.551 1.039.758"/><path fill="url(#man-frowning-light_svg__A)" d="m22.249 4.939.554.275c.97.482 1.523 1.584 1.316 2.755l-.762 3.925c-.068.406-.336.679-.739.689h-.023s.07-1.17.138-1.86c.057-.559-.041-.73-.554-1.24-.277-.275-.484-.688-.484-1.101V7.28c0-.344-.278-.62-.555-.689-.83-.206-2.562-.55-5.056-.55-2.493 0-4.225.344-5.056.55-.346.07-.554.345-.554.69v1.101c0 .413-.139.826-.485 1.102l-.208.207c-.277.206-.415.62-.415.964.069.757.138 1.86.138 1.86l-.063-.003a.82.82 0 0 1-.768-.687L7.911 7.9c-.138-1.102.416-2.204 1.385-2.686l.555-.275c.346-.207.692-.482 1.038-.758l1.247-1.308c.762-.69 1.87-.896 2.84-.414a3.8 3.8 0 0 0 2.147 0c1.04-.344 2.217-.068 3.048.69L21.21 4.18c.277.344.623.551 1.039.758"/><path fill="url(#man-frowning-light_svg__B)" d="m22.249 4.939.554.275c.97.482 1.523 1.584 1.316 2.755l-.762 3.925c-.068.406-.336.679-.739.689h-.023s.07-1.17.138-1.86c.057-.559-.041-.73-.554-1.24-.277-.275-.484-.688-.484-1.101V7.28c0-.344-.278-.62-.555-.689-.83-.206-2.562-.55-5.056-.55-2.493 0-4.225.344-5.056.55-.346.07-.554.345-.554.69v1.101c0 .413-.139.826-.485 1.102l-.208.207c-.277.206-.415.62-.415.964.069.757.138 1.86.138 1.86l-.063-.003a.82.82 0 0 1-.768-.687L7.911 7.9c-.138-1.102.416-2.204 1.385-2.686l.555-.275c.346-.207.692-.482 1.038-.758l1.247-1.308c.762-.69 1.87-.896 2.84-.414a3.8 3.8 0 0 0 2.147 0c1.04-.344 2.217-.068 3.048.69L21.21 4.18c.277.344.623.551 1.039.758"/><path fill="url(#man-frowning-light_svg__C)" d="m22.249 4.939.554.275c.97.482 1.523 1.584 1.316 2.755l-.762 3.925c-.068.406-.336.679-.739.689h-.023s.07-1.17.138-1.86c.057-.559-.041-.73-.554-1.24-.277-.275-.484-.688-.484-1.101V7.28c0-.344-.278-.62-.555-.689-.83-.206-2.562-.55-5.056-.55-2.493 0-4.225.344-5.056.55-.346.07-.554.345-.554.69v1.101c0 .413-.139.826-.485 1.102l-.208.207c-.277.206-.415.62-.415.964.069.757.138 1.86.138 1.86l-.063-.003a.82.82 0 0 1-.768-.687L7.911 7.9c-.138-1.102.416-2.204 1.385-2.686l.555-.275c.346-.207.692-.482 1.038-.758l1.247-1.308c.762-.69 1.87-.896 2.84-.414a3.8 3.8 0 0 0 2.147 0c1.04-.344 2.217-.068 3.048.69L21.21 4.18c.277.344.623.551 1.039.758"/></g><g filter="url(#man-frowning-light_svg__D)"><path fill="#D89992" d="m15.67 13.145-1.059 2.195c-.131.451.184.903.63.903h.953c.446 0 .761-.458.63-.903l-.644-2.195c-.137-.486-.365-.486-.51 0"/></g><g filter="url(#man-frowning-light_svg__E)"><path fill="#FBC4B1" d="m15.533 12.935-.686 2.194a.696.696 0 0 0 .672.903h1.015a.698.698 0 0 0 .672-.903l-.686-2.194c-.147-.486-.833-.486-.987 0"/><path fill="url(#man-frowning-light_svg__F)" d="m15.533 12.935-.686 2.194a.696.696 0 0 0 .672.903h1.015a.698.698 0 0 0 .672-.903l-.686-2.194c-.147-.486-.833-.486-.987 0"/><path fill="url(#man-frowning-light_svg__G)" d="m15.533 12.935-.686 2.194a.696.696 0 0 0 .672.903h1.015a.698.698 0 0 0 .672-.903l-.686-2.194c-.147-.486-.833-.486-.987 0"/><path fill="url(#man-frowning-light_svg__H)" d="m15.533 12.935-.686 2.194a.696.696 0 0 0 .672.903h1.015a.698.698 0 0 0 .672-.903l-.686-2.194c-.147-.486-.833-.486-.987 0"/><path fill="url(#man-frowning-light_svg__I)" d="m15.533 12.935-.686 2.194a.696.696 0 0 0 .672.903h1.015a.698.698 0 0 0 .672-.903l-.686-2.194c-.147-.486-.833-.486-.987 0"/></g><path fill="url(#man-frowning-light_svg__J)" d="m15.533 12.935-.686 2.194a.696.696 0 0 0 .672.903h1.015a.698.698 0 0 0 .672-.903l-.686-2.194c-.147-.486-.833-.486-.987 0"/><path fill="#fff" d="M19.11 11.456c.843 0 1.555.581 1.749 1.367a.354.354 0 0 1-.346.44h-2.88a.297.297 0 0 1-.294-.351 1.804 1.804 0 0 1 1.77-1.456"/><path fill="url(#man-frowning-light_svg__K)" d="M18.842 11.807a1.152 1.152 0 0 1 1.11 1.456h-2.225a1.157 1.157 0 0 1 1.116-1.456"/><path fill="#000" d="M18.183 12.959c0-.367.293-.66.66-.66a.657.657 0 0 1 .586.964H18.26a.6.6 0 0 1-.078-.304"/><g filter="url(#man-frowning-light_svg__L)"><path fill="#C7A7A3" d="M18.758 12.05c.082.11-.09.244-.285.39s-.34.248-.422.139c-.082-.11.01-.318.205-.463s.42-.175.502-.066"/><path fill="url(#man-frowning-light_svg__M)" d="M18.758 12.05c.082.11-.09.244-.285.39s-.34.248-.422.139c-.082-.11.01-.318.205-.463s.42-.175.502-.066"/></g><g filter="url(#man-frowning-light_svg__N)"><path fill="url(#man-frowning-light_svg__O)" d="M19.869 12.807a1.1 1.1 0 0 0-.3-.597l-.335.368.152.295z"/></g><path fill="#fff" d="M12.936 11.456c-.843 0-1.555.581-1.75 1.367a.354.354 0 0 0 .347.44h2.88c.183 0 .33-.168.293-.351a1.81 1.81 0 0 0-1.77-1.456"/><path fill="url(#man-frowning-light_svg__P)" d="M13.203 11.807a1.152 1.152 0 0 0-1.11 1.456h2.226q.04-.149.042-.304a1.16 1.16 0 0 0-1.158-1.152"/><path fill="#000" d="M13.863 12.959a.657.657 0 0 0-.66-.66.657.657 0 0 0-.586.964h1.168a.66.66 0 0 0 .078-.304"/><g filter="url(#man-frowning-light_svg__Q)"><path fill="url(#man-frowning-light_svg__R)" d="M14.256 12.824c0-.373-.303-.621-.385-.696l-.372.36.229.466z"/></g><g filter="url(#man-frowning-light_svg__S)" transform="rotate(-27.914 12.856 12.299)"><ellipse cx="12.856" cy="12.299" fill="#C7A7A3" fill-opacity=".9" rx=".503" ry=".255"/><ellipse cx="12.856" cy="12.299" fill="url(#man-frowning-light_svg__T)" rx=".503" ry=".255"/></g><g filter="url(#man-frowning-light_svg__U)"><path stroke="url(#man-frowning-light_svg__V)" stroke-linecap="round" stroke-width=".25" d="M10.173 7.09v1.16c-.01.191-.09.62-.333.802"/></g><g filter="url(#man-frowning-light_svg__W)"><path fill="#1E1E1E" fill-rule="evenodd" d="M14.161 9.371c.239.25.23.645-.019.884a3.66 3.66 0 0 1-2.514 1.025.625.625 0 1 1 0-1.25c.512 0 1.137-.187 1.65-.678a.625.625 0 0 1 .883.02" clip-rule="evenodd"/></g><g filter="url(#man-frowning-light_svg__X)"><path fill="#1E1E1E" fill-rule="evenodd" d="M17.965 9.371a.625.625 0 0 0 .02.884 3.66 3.66 0 0 0 2.514 1.025.625.625 0 1 0 0-1.25 2.4 2.4 0 0 1-1.65-.678.625.625 0 0 0-.884.02" clip-rule="evenodd"/></g><g filter="url(#man-frowning-light_svg__Y)"><path stroke="url(#man-frowning-light_svg__Z)" stroke-linecap="round" stroke-width=".3" d="M11.628 10.499c.656 0 1.441-.239 2.082-.852"/></g><g filter="url(#man-frowning-light_svg__aa)"><path stroke="url(#man-frowning-light_svg__ab)" stroke-linecap="round" stroke-width=".3" d="M20.58 10.413a3.03 3.03 0 0 1-2.082-.852"/></g><g stroke-linecap="round" stroke-width=".3" clip-rule="evenodd" filter="url(#man-frowning-light_svg__ac)"><path stroke="url(#man-frowning-light_svg__ad)" d="M17.171 17.67c-.918-.627-1.93-.26-2.34.005a.275.275 0 1 1-.298-.462c.495-.319 1.765-.806 2.949.004a.275.275 0 1 1-.31.454Z"/><path stroke="url(#man-frowning-light_svg__ae)" d="M17.171 17.67c-.918-.627-1.93-.26-2.34.005a.275.275 0 1 1-.298-.462c.495-.319 1.765-.806 2.949.004a.275.275 0 1 1-.31.454Z"/></g><path fill="#87004D" fill-rule="evenodd" d="M17.171 17.67c-.918-.627-1.93-.26-2.34.005a.275.275 0 1 1-.298-.462c.495-.319 1.765-.806 2.949.004a.275.275 0 1 1-.31.454" clip-rule="evenodd"/><defs><radialGradient id="man-frowning-light_svg__a" cx="0" cy="0" r="1" gradientTransform="rotate(160.481 9.331 14.06)scale(12.5328 12.8728)" gradientUnits="userSpaceOnUse"><stop stop-color="#4AB3FF"/><stop offset=".578" stop-color="#2E96FF"/></radialGradient><radialGradient id="man-frowning-light_svg__b" cx="0" cy="0" r="1" gradientTransform="matrix(-20.8125 0 0 -13.0625 25.199 29.069)" gradientUnits="userSpaceOnUse"><stop offset=".766" stop-color="#3A8FC0" stop-opacity="0"/><stop offset="1" stop-color="#3A8FC0"/></radialGradient><radialGradient id="man-frowning-light_svg__d" cx="0" cy="0" r="1" gradientTransform="matrix(-5.25498 0 0 -2.00346 15.703 21.083)" gradientUnits="userSpaceOnUse"><stop offset=".206" stop-color="#176BB1"/><stop offset="1" stop-color="#176BB1" stop-opacity="0"/></radialGradient><radialGradient id="man-frowning-light_svg__e" cx="0" cy="0" r="1" gradientTransform="matrix(0 -5.77741 5.6184 0 12.446 30.118)" gradientUnits="userSpaceOnUse"><stop stop-color="#2888F9"/><stop offset="1" stop-color="#2888F9" stop-opacity="0"/></radialGradient><radialGradient id="man-frowning-light_svg__f" cx="0" cy="0" r="1" gradientTransform="rotate(45 -17.432 28.787)scale(4.26636 6.72801)" gradientUnits="userSpaceOnUse"><stop offset=".242" stop-color="#BC8384"/><stop offset=".963" stop-color="#F6C6B6"/></radialGradient><radialGradient id="man-frowning-light_svg__h" cx="0" cy="0" r="1" gradientTransform="matrix(2.26599 0 0 3.9655 7.74 13.303)" gradientUnits="userSpaceOnUse"><stop offset=".351" stop-color="#CF9888"/><stop offset="1" stop-color="#BE8C77"/></radialGradient><radialGradient id="man-frowning-light_svg__m" cx="0" cy="0" r="1" gradientTransform="rotate(-36.06 31.24 -28.327)scale(1.3205 1.50718)" gradientUnits="userSpaceOnUse"><stop offset=".543" stop-color="#D9AA94"/><stop offset="1" stop-color="#D9AA94" stop-opacity="0"/></radialGradient><radialGradient id="man-frowning-light_svg__o" cx="0" cy="0" r="1" gradientTransform="matrix(1.06047 -1.9505 1.14163 .6207 22.126 14.364)" gradientUnits="userSpaceOnUse"><stop offset=".755" stop-color="#D6A38D" stop-opacity="0"/><stop offset=".916" stop-color="#D6A38D"/></radialGradient><radialGradient id="man-frowning-light_svg__p" cx="0" cy="0" r="1" gradientTransform="matrix(.33481 .33141 -.42723 .43162 22.18 13.303)" gradientUnits="userSpaceOnUse"><stop stop-color="#D5A58E"/><stop offset="1" stop-color="#D5A58E" stop-opacity="0"/></radialGradient><radialGradient id="man-frowning-light_svg__s" cx="0" cy="0" r="1" gradientTransform="matrix(-.55053 10.67511 -14.49094 -.74732 16.063 10.897)" gradientUnits="userSpaceOnUse"><stop offset=".703" stop-color="#E3ACA7" stop-opacity="0"/><stop offset="1" stop-color="#B57995"/></radialGradient><radialGradient id="man-frowning-light_svg__u" cx="0" cy="0" r="1" gradientTransform="matrix(0 -1.68778 2.07727 0 19.055 11.661)" gradientUnits="userSpaceOnUse"><stop stop-color="#F5B7A7"/><stop offset="1" stop-color="#F5B7A7" stop-opacity="0"/></radialGradient><radialGradient id="man-frowning-light_svg__v" cx="0" cy="0" r="1" gradientTransform="matrix(0 -1.79597 2.23345 0 13.17 11.618)" gradientUnits="userSpaceOnUse"><stop stop-color="#D0958D"/><stop offset="1" stop-color="#D0958D" stop-opacity="0"/></radialGradient><radialGradient id="man-frowning-light_svg__z" cx="0" cy="0" r="1" gradientTransform="matrix(1.0302 -3.81777 1.41575 .38203 21.637 8)" gradientUnits="userSpaceOnUse"><stop stop-color="#464344"/><stop offset="1" stop-color="#464344" stop-opacity="0"/></radialGradient><radialGradient id="man-frowning-light_svg__A" cx="0" cy="0" r="1" gradientTransform="matrix(4.93886 .4545 -.24438 2.6556 19.516 5.728)" gradientUnits="userSpaceOnUse"><stop offset=".122" stop-color="#4A4648"/><stop offset="1" stop-color="#4A4648" stop-opacity="0"/></radialGradient><radialGradient id="man-frowning-light_svg__B" cx="0" cy="0" r="1" gradientTransform="matrix(0 2.16825 -3.35801 0 16.026 2.197)" gradientUnits="userSpaceOnUse"><stop stop-color="#423D3F"/><stop offset="1" stop-color="#423D3F" stop-opacity="0"/></radialGradient><radialGradient id="man-frowning-light_svg__C" cx="0" cy="0" r="1" gradientTransform="matrix(3.96927 -2.90878 4.5571 6.21854 7.699 11)" gradientUnits="userSpaceOnUse"><stop stop-color="#463C39"/><stop offset="1" stop-color="#463C39" stop-opacity="0"/></radialGradient><radialGradient id="man-frowning-light_svg__I" cx="0" cy="0" r="1" gradientTransform="matrix(0 .25425 -.81684 0 16.449 15.378)" gradientUnits="userSpaceOnUse"><stop stop-color="#FFD7C1"/><stop offset="1" stop-color="#FFD7C1" stop-opacity="0"/></radialGradient><radialGradient id="man-frowning-light_svg__K" cx="0" cy="0" r="1" gradientTransform="matrix(0 1.04738 -1.66598 0 18.84 12.423)" gradientUnits="userSpaceOnUse"><stop offset=".802" stop-color="#7D574A"/><stop offset="1" stop-color="#694B43"/><stop offset="1" stop-color="#804D49"/><stop offset="1" stop-color="#664944"/></radialGradient><radialGradient id="man-frowning-light_svg__M" cx="0" cy="0" r="1" gradientTransform="matrix(-.2994 -.38581 .53117 -.4122 18.545 12.531)" gradientUnits="userSpaceOnUse"><stop offset=".766" stop-color="#FFE6E2" stop-opacity="0"/><stop offset=".966" stop-color="#FFE6E2"/></radialGradient><radialGradient id="man-frowning-light_svg__P" cx="0" cy="0" r="1" gradientTransform="matrix(0 1.04744 -1.66607 0 13.206 12.422)" gradientUnits="userSpaceOnUse"><stop offset=".802" stop-color="#7D574A"/><stop offset="1" stop-color="#694B43"/><stop offset="1" stop-color="#804D49"/><stop offset="1" stop-color="#664944"/></radialGradient><radialGradient id="man-frowning-light_svg__T" cx="0" cy="0" r="1" gradientTransform="matrix(-.00999 -.63784 .76672 -.012 12.836 12.706)" gradientUnits="userSpaceOnUse"><stop offset=".766" stop-color="#FFE6E2" stop-opacity="0"/><stop offset=".966" stop-color="#FFE6E2"/></radialGradient><radialGradient id="man-frowning-light_svg__ad" cx="0" cy="0" r="1" gradientTransform="matrix(-.08594 .28125 -1.54727 -.47278 16.34 17.371)" gradientUnits="userSpaceOnUse"><stop stop-color="#F5C0B0"/><stop offset="1" stop-color="#F5C0B0" stop-opacity="0"/></radialGradient><radialGradient id="man-frowning-light_svg__ae" cx="0" cy="0" r="1" gradientTransform="matrix(.191 -.14453 .57285 .75707 14.407 17.688)" gradientUnits="userSpaceOnUse"><stop stop-color="#F5C0B0"/><stop offset="1" stop-color="#F5C0B0" stop-opacity="0"/></radialGradient><filter id="man-frowning-light_svg__g" width="4.511" height="4.311" x="7.74" y="11.148" color-interpolation-filters="sRGB" filterUnits="userSpaceOnUse"><feFlood flood-opacity="0" result="BackgroundImageFix"/><feBlend in="SourceGraphic" in2="BackgroundImageFix" result="shape"/><feColorMatrix in="SourceAlpha" result="hardAlpha" values="0 0 0 0 0 0 0 0 0 0 0 0 0 0 0 0 0 0 127 0"/><feOffset dx=".2"/><feGaussianBlur stdDeviation=".15"/><feComposite in2="hardAlpha" k2="-1" k3="1" operator="arithmetic"/><feColorMatrix values="0 0 0 0 0.917647 0 0 0 0 0.694118 0 0 0 0 0.607843 0 0 0 1 0"/><feBlend in2="shape" result="effect1_innerShadow_3987_21942"/></filter><filter id="man-frowning-light_svg__i" width="3.57" height="3.57" x="8.111" y="11.518" color-interpolation-filters="sRGB" filterUnits="userSpaceOnUse"><feFlood flood-opacity="0" result="BackgroundImageFix"/><feBlend in="SourceGraphic" in2="BackgroundImageFix" result="shape"/><feGaussianBlur result="effect1_foregroundBlur_3987_21942" stdDeviation=".25"/></filter><filter id="man-frowning-light_svg__k" width="4.561" height="4.561" x="20.024" y="10.898" color-interpolation-filters="sRGB" filterUnits="userSpaceOnUse"><feFlood flood-opacity="0" result="BackgroundImageFix"/><feBlend in="SourceGraphic" in2="BackgroundImageFix" result="shape"/><feColorMatrix in="SourceAlpha" result="hardAlpha" values="0 0 0 0 0 0 0 0 0 0 0 0 0 0 0 0 0 0 127 0"/><feOffset dx=".25" dy="-.25"/><feGaussianBlur stdDeviation=".25"/><feComposite in2="hardAlpha" k2="-1" k3="1" operator="arithmetic"/><feColorMatrix values="0 0 0 0 0.843137 0 0 0 0 0.623529 0 0 0 0 0.580392 0 0 0 1 0"/><feBlend in2="shape" result="effect1_innerShadow_3987_21942"/></filter><filter id="man-frowning-light_svg__n" width="3.57" height="3.57" x="20.395" y="11.518" color-interpolation-filters="sRGB" filterUnits="userSpaceOnUse"><feFlood flood-opacity="0" result="BackgroundImageFix"/><feBlend in="SourceGraphic" in2="BackgroundImageFix" result="shape"/><feGaussianBlur result="effect1_foregroundBlur_3987_21942" stdDeviation=".25"/></filter><filter id="man-frowning-light_svg__q" width="13.395" height="15.781" x="9.366" y="6.041" color-interpolation-filters="sRGB" filterUnits="userSpaceOnUse"><feFlood flood-opacity="0" result="BackgroundImageFix"/><feBlend in="SourceGraphic" in2="BackgroundImageFix" result="shape"/><feColorMatrix in="SourceAlpha" result="hardAlpha" values="0 0 0 0 0 0 0 0 0 0 0 0 0 0 0 0 0 0 127 0"/><feOffset dy=".25"/><feGaussianBlur stdDeviation=".375"/><feComposite in2="hardAlpha" k2="-1" k3="1" operator="arithmetic"/><feColorMatrix values="0 0 0 0 0.819608 0 0 0 0 0.615686 0 0 0 0 0.509804 0 0 0 1 0"/><feBlend in2="shape" result="effect1_innerShadow_3987_21942"/></filter><filter id="man-frowning-light_svg__w" width="9.483" height="7.96" x="14.246" y="4.041" color-interpolation-filters="sRGB" filterUnits="userSpaceOnUse"><feFlood flood-opacity="0" result="BackgroundImageFix"/><feBlend in="SourceGraphic" in2="BackgroundImageFix" result="shape"/><feGaussianBlur result="effect1_foregroundBlur_3987_21942" stdDeviation="1"/></filter><filter id="man-frowning-light_svg__y" width="16.272" height="10.886" x="7.89" y="1.697" color-interpolation-filters="sRGB" filterUnits="userSpaceOnUse"><feFlood flood-opacity="0" result="BackgroundImageFix"/><feBlend in="SourceGraphic" in2="BackgroundImageFix" result="shape"/><feColorMatrix in="SourceAlpha" result="hardAlpha" values="0 0 0 0 0 0 0 0 0 0 0 0 0 0 0 0 0 0 127 0"/><feOffset dy="-.5"/><feGaussianBlur stdDeviation=".375"/><feComposite in2="hardAlpha" k2="-1" k3="1" operator="arithmetic"/><feColorMatrix values="0 0 0 0 0.0392157 0 0 0 0 0.00784314 0 0 0 0 0.0196078 0 0 0 1 0"/><feBlend in2="shape" result="effect1_innerShadow_3987_21942"/></filter><filter id="man-frowning-light_svg__D" width="3.773" height="4.962" x="13.831" y="12.031" color-interpolation-filters="sRGB" filterUnits="userSpaceOnUse"><feFlood flood-opacity="0" result="BackgroundImageFix"/><feBlend in="SourceGraphic" in2="BackgroundImageFix" result="shape"/><feGaussianBlur result="effect1_foregroundBlur_3987_21942" stdDeviation=".375"/></filter><filter id="man-frowning-light_svg__E" width="2.923" height="3.962" x="14.565" y="12.32" color-interpolation-filters="sRGB" filterUnits="userSpaceOnUse"><feFlood flood-opacity="0" result="BackgroundImageFix"/><feBlend in="SourceGraphic" in2="BackgroundImageFix" result="shape"/><feGaussianBlur result="effect1_foregroundBlur_3987_21942" stdDeviation=".125"/></filter><filter id="man-frowning-light_svg__L" width=".958" height=".841" x="17.921" y="11.884" color-interpolation-filters="sRGB" filterUnits="userSpaceOnUse"><feFlood flood-opacity="0" result="BackgroundImageFix"/><feBlend in="SourceGraphic" in2="BackgroundImageFix" result="shape"/><feGaussianBlur result="effect1_foregroundBlur_3987_21942" stdDeviation=".05"/></filter><filter id="man-frowning-light_svg__N" width="1.034" height="1.063" x="19.034" y="12.01" color-interpolation-filters="sRGB" filterUnits="userSpaceOnUse"><feFlood flood-opacity="0" result="BackgroundImageFix"/><feBlend in="SourceGraphic" in2="BackgroundImageFix" result="shape"/><feGaussianBlur result="effect1_foregroundBlur_3987_21942" stdDeviation=".1"/></filter><filter id="man-frowning-light_svg__Q" width="1.157" height="1.227" x="13.299" y="11.928" color-interpolation-filters="sRGB" filterUnits="userSpaceOnUse"><feFlood flood-opacity="0" result="BackgroundImageFix"/><feBlend in="SourceGraphic" in2="BackgroundImageFix" result="shape"/><feGaussianBlur result="effect1_foregroundBlur_3987_21942" stdDeviation=".1"/></filter><filter id="man-frowning-light_svg__S" width="1.121" height=".851" x="12.295" y="11.873" color-interpolation-filters="sRGB" filterUnits="userSpaceOnUse"><feFlood flood-opacity="0" result="BackgroundImageFix"/><feBlend in="SourceGraphic" in2="BackgroundImageFix" result="shape"/><feGaussianBlur result="effect1_foregroundBlur_3987_21942" stdDeviation=".05"/></filter><filter id="man-frowning-light_svg__U" width="1.083" height="2.712" x="9.465" y="6.716" color-interpolation-filters="sRGB" filterUnits="userSpaceOnUse"><feFlood flood-opacity="0" result="BackgroundImageFix"/><feBlend in="SourceGraphic" in2="BackgroundImageFix" result="shape"/><feGaussianBlur result="effect1_foregroundBlur_3987_21942" stdDeviation=".125"/></filter><filter id="man-frowning-light_svg__W" width="3.582" height="2.502" x="11.003" y="8.778" color-interpolation-filters="sRGB" filterUnits="userSpaceOnUse"><feFlood flood-opacity="0" result="BackgroundImageFix"/><feBlend in="SourceGraphic" in2="BackgroundImageFix" result="shape"/><feColorMatrix in="SourceAlpha" result="hardAlpha" values="0 0 0 0 0 0 0 0 0 0 0 0 0 0 0 0 0 0 127 0"/><feOffset dx=".25" dy="-.4"/><feGaussianBlur stdDeviation=".3"/><feComposite in2="hardAlpha" k2="-1" k3="1" operator="arithmetic"/><feColorMatrix values="0 0 0 0 0.0431373 0 0 0 0 0.0196078 0 0 0 0 0.027451 0 0 0 1 0"/><feBlend in2="shape" result="effect1_innerShadow_3987_21942"/></filter><filter id="man-frowning-light_svg__X" width="3.582" height="2.502" x="17.792" y="8.778" color-interpolation-filters="sRGB" filterUnits="userSpaceOnUse"><feFlood flood-opacity="0" result="BackgroundImageFix"/><feBlend in="SourceGraphic" in2="BackgroundImageFix" result="shape"/><feColorMatrix in="SourceAlpha" result="hardAlpha" values="0 0 0 0 0 0 0 0 0 0 0 0 0 0 0 0 0 0 127 0"/><feOffset dx=".25" dy="-.4"/><feGaussianBlur stdDeviation=".3"/><feComposite in2="hardAlpha" k2="-1" k3="1" operator="arithmetic"/><feColorMatrix values="0 0 0 0 0.0431373 0 0 0 0 0.0196078 0 0 0 0 0.027451 0 0 0 1 0"/><feBlend in2="shape" result="effect1_innerShadow_3987_21942"/></filter><filter id="man-frowning-light_svg__Y" width="2.982" height="1.752" x="11.178" y="9.197" color-interpolation-filters="sRGB" filterUnits="userSpaceOnUse"><feFlood flood-opacity="0" result="BackgroundImageFix"/><feBlend in="SourceGraphic" in2="BackgroundImageFix" result="shape"/><feGaussianBlur result="effect1_foregroundBlur_3987_21942" stdDeviation=".15"/></filter><filter id="man-frowning-light_svg__aa" width="2.982" height="1.752" x="18.048" y="9.111" color-interpolation-filters="sRGB" filterUnits="userSpaceOnUse"><feFlood flood-opacity="0" result="BackgroundImageFix"/><feBlend in="SourceGraphic" in2="BackgroundImageFix" result="shape"/><feGaussianBlur result="effect1_foregroundBlur_3987_21942" stdDeviation=".15"/></filter><filter id="man-frowning-light_svg__ac" width="3.695" height="1.445" x="14.157" y="16.524" color-interpolation-filters="sRGB" filterUnits="userSpaceOnUse"><feFlood flood-opacity="0" result="BackgroundImageFix"/><feBlend in="SourceGraphic" in2="BackgroundImageFix" result="shape"/><feGaussianBlur result="effect1_foregroundBlur_3987_21942" stdDeviation=".05"/></filter><linearGradient id="man-frowning-light_svg__c" x1="16" x2="16" y1="29.889" y2="29.303" gradientUnits="userSpaceOnUse"><stop stop-color="#2771FC"/><stop offset="1" stop-color="#2771FC" stop-opacity="0"/></linearGradient><linearGradient id="man-frowning-light_svg__j" x1="9.895" x2="9.068" y1="13.663" y2="13.663" gradientUnits="userSpaceOnUse"><stop stop-color="#BA7C6B"/><stop offset="1" stop-color="#BE8474"/></linearGradient><linearGradient id="man-frowning-light_svg__l" x1="23.582" x2="22.525" y1="11.894" y2="15.169" gradientUnits="userSpaceOnUse"><stop stop-color="#FBD3BD"/><stop offset="1" stop-color="#F0B8A4"/></linearGradient><linearGradient id="man-frowning-light_svg__r" x1="21.238" x2="11.376" y1="13.806" y2="15.276" gradientUnits="userSpaceOnUse"><stop stop-color="#FFDAC0"/><stop offset="1" stop-color="#DAA594"/></linearGradient><linearGradient id="man-frowning-light_svg__t" x1="9.059" x2="11.488" y1="17.287" y2="17.201" gradientUnits="userSpaceOnUse"><stop stop-color="#E8AD97"/><stop offset="1" stop-color="#E8AD97" stop-opacity="0"/></linearGradient><linearGradient id="man-frowning-light_svg__x" x1="15.34" x2="25.856" y1="9.952" y2="6.187" gradientUnits="userSpaceOnUse"><stop stop-color="#FFDEC4"/><stop offset="1" stop-color="#FFDEC4" stop-opacity="0"/></linearGradient><linearGradient id="man-frowning-light_svg__F" x1="14.91" x2="16.122" y1="14.657" y2="14.657" gradientUnits="userSpaceOnUse"><stop stop-color="#DFA790"/><stop offset="1" stop-color="#DFA790" stop-opacity="0"/></linearGradient><linearGradient id="man-frowning-light_svg__G" x1="17.238" x2="15.914" y1="15.074" y2="15.055" gradientUnits="userSpaceOnUse"><stop stop-color="#FFDFC4"/><stop offset="1" stop-color="#FFDFC4" stop-opacity="0"/></linearGradient><linearGradient id="man-frowning-light_svg__H" x1="16.277" x2="16.277" y1="16.032" y2="15.292" gradientUnits="userSpaceOnUse"><stop stop-color="#DC9C96"/><stop offset="1" stop-color="#DC9C96" stop-opacity="0"/></linearGradient><linearGradient id="man-frowning-light_svg__J" x1="16.189" x2="16.189" y1="16.086" y2="15.87" gradientUnits="userSpaceOnUse"><stop stop-color="#D6938E"/><stop offset="1" stop-color="#D6938E" stop-opacity="0"/></linearGradient><linearGradient id="man-frowning-light_svg__O" x1="19.844" x2="19.439" y1="12.492" y2="12.742" gradientUnits="userSpaceOnUse"><stop stop-color="#B4948D"/><stop offset="1" stop-color="#B4948D" stop-opacity="0"/></linearGradient><linearGradient id="man-frowning-light_svg__R" x1="14.166" x2="13.761" y1="12.492" y2="12.742" gradientUnits="userSpaceOnUse"><stop stop-color="#B4948D"/><stop offset="1" stop-color="#B4948D" stop-opacity="0"/></linearGradient><linearGradient id="man-frowning-light_svg__V" x1="10.006" x2="10.006" y1="6.963" y2="9.748" gradientUnits="userSpaceOnUse"><stop stop-color="#3C393A"/><stop offset="1" stop-color="#3C393A" stop-opacity="0"/></linearGradient><linearGradient id="man-frowning-light_svg__Z" x1="13.105" x2="12.066" y1="9.904" y2="8.694" gradientUnits="userSpaceOnUse"><stop stop-color="#353435"/><stop offset="1" stop-color="#353435" stop-opacity="0"/></linearGradient><linearGradient id="man-frowning-light_svg__ab" x1="19.103" x2="20.142" y1="9.818" y2="8.608" gradientUnits="userSpaceOnUse"><stop stop-color="#353435"/><stop offset="1" stop-color="#353435" stop-opacity="0"/></linearGradient></defs></svg>