<svg width="32" height="32" fill="none" xmlns="http://www.w3.org/2000/svg"><g filter="url(#a)"><circle cx="10.777" cy="15.392" r="1.833" fill="url(#b)"/></g><g filter="url(#c)"><circle cx="10.777" cy="15.392" r="1.093" fill="url(#d)"/></g><g filter="url(#e)"><circle cx="21.223" cy="15.392" r="1.833" fill="url(#f)"/><circle cx="21.223" cy="15.392" r="1.833" fill="url(#g)"/></g><g filter="url(#h)"><circle cx="21.223" cy="15.392" r="1.093" fill="#E4AF9A"/><circle cx="21.223" cy="15.392" r="1.093" fill="url(#i)"/><circle cx="21.223" cy="15.392" r="1.093" fill="url(#j)"/></g><g filter="url(#k)"><path d="m21.282 8.28.471.234c.825.41 1.296 1.347 1.12 2.342l-.649 3.338c-.057.345-.285.577-.628.586h-.02s.06-.996.118-1.581c.048-.476-.035-.62-.471-1.054-.236-.235-.412-.586-.412-.938v-.937c0-.292-.236-.527-.471-.585-.707-.176-2.18-.469-4.3-.469-2.12 0-3.593.293-4.3.469a.571.571 0 0 0-.471.585v.938c0 .35-.118.702-.412.937l-.177.175c-.236.176-.354.527-.354.82.06.644.118 1.581.118 1.581l-.054-.001a.695.695 0 0 1-.653-.584l-.647-3.338c-.118-.937.353-1.874 1.178-2.284l.47-.235c.295-.175.59-.41.884-.644l1.06-1.113c.648-.585 1.59-.761 2.415-.351a3.228 3.228 0 0 0 1.826 0c.884-.293 1.885-.059 2.592.586l.883.878c.236.293.53.469.884.644Z" fill="#242324"/><path d="m21.282 8.28.471.234c.825.41 1.296 1.347 1.12 2.342l-.649 3.338c-.057.345-.285.577-.628.586h-.02s.06-.996.118-1.581c.048-.476-.035-.62-.471-1.054-.236-.235-.412-.586-.412-.938v-.937c0-.292-.236-.527-.471-.585-.707-.176-2.18-.469-4.3-.469-2.12 0-3.593.293-4.3.469a.571.571 0 0 0-.471.585v.938c0 .35-.118.702-.412.937l-.177.175c-.236.176-.354.527-.354.82.06.644.118 1.581.118 1.581l-.054-.001a.695.695 0 0 1-.653-.584l-.647-3.338c-.118-.937.353-1.874 1.178-2.284l.47-.235c.295-.175.59-.41.884-.644l1.06-1.113c.648-.585 1.59-.761 2.415-.351a3.228 3.228 0 0 0 1.826 0c.884-.293 1.885-.059 2.592.586l.883.878c.236.293.53.469.884.644Z" fill="url(#l)"/><path d="m21.282 8.28.471.234c.825.41 1.296 1.347 1.12 2.342l-.649 3.338c-.057.345-.285.577-.628.586h-.02s.06-.996.118-1.581c.048-.476-.035-.62-.471-1.054-.236-.235-.412-.586-.412-.938v-.937c0-.292-.236-.527-.471-.585-.707-.176-2.18-.469-4.3-.469-2.12 0-3.593.293-4.3.469a.571.571 0 0 0-.471.585v.938c0 .35-.118.702-.412.937l-.177.175c-.236.176-.354.527-.354.82.06.644.118 1.581.118 1.581l-.054-.001a.695.695 0 0 1-.653-.584l-.647-3.338c-.118-.937.353-1.874 1.178-2.284l.47-.235c.295-.175.59-.41.884-.644l1.06-1.113c.648-.585 1.59-.761 2.415-.351a3.228 3.228 0 0 0 1.826 0c.884-.293 1.885-.059 2.592.586l.883.878c.236.293.53.469.884.644Z" fill="url(#m)"/><path d="m21.282 8.28.471.234c.825.41 1.296 1.347 1.12 2.342l-.649 3.338c-.057.345-.285.577-.628.586h-.02s.06-.996.118-1.581c.048-.476-.035-.62-.471-1.054-.236-.235-.412-.586-.412-.938v-.937c0-.292-.236-.527-.471-.585-.707-.176-2.18-.469-4.3-.469-2.12 0-3.593.293-4.3.469a.571.571 0 0 0-.471.585v.938c0 .35-.118.702-.412.937l-.177.175c-.236.176-.354.527-.354.82.06.644.118 1.581.118 1.581l-.054-.001a.695.695 0 0 1-.653-.584l-.647-3.338c-.118-.937.353-1.874 1.178-2.284l.47-.235c.295-.175.59-.41.884-.644l1.06-1.113c.648-.585 1.59-.761 2.415-.351a3.228 3.228 0 0 0 1.826 0c.884-.293 1.885-.059 2.592.586l.883.878c.236.293.53.469.884.644Z" fill="url(#n)"/><path d="m21.282 8.28.471.234c.825.41 1.296 1.347 1.12 2.342l-.649 3.338c-.057.345-.285.577-.628.586h-.02s.06-.996.118-1.581c.048-.476-.035-.62-.471-1.054-.236-.235-.412-.586-.412-.938v-.937c0-.292-.236-.527-.471-.585-.707-.176-2.18-.469-4.3-.469-2.12 0-3.593.293-4.3.469a.571.571 0 0 0-.471.585v.938c0 .35-.118.702-.412.937l-.177.175c-.236.176-.354.527-.354.82.06.644.118 1.581.118 1.581l-.054-.001a.695.695 0 0 1-.653-.584l-.647-3.338c-.118-.937.353-1.874 1.178-2.284l.47-.235c.295-.175.59-.41.884-.644l1.06-1.113c.648-.585 1.59-.761 2.415-.351a3.228 3.228 0 0 0 1.826 0c.884-.293 1.885-.059 2.592.586l.883.878c.236.293.53.469.884.644Z" fill="url(#o)"/></g><g filter="url(#p)"><path d="M11.013 10.11v.985c-.009.163-.077.528-.284.683" stroke="url(#q)" stroke-width=".25" stroke-linecap="round"/></g><path d="M7.312 5.365c-.203-.057-.676-.154-.945-.086-.336.086-.594.329-.812.688-.175.287-1.47 2.48-2.094 3.539-.563.823-1.625 3.088-1.375 5.563.1 1.662.781 3.338 1.11 3.968l4.132 7.855c.173.33.187.719.08 1.076-.158.529-.322 1.28-.322 2.022h17.828c0-.743-.164-1.493-.322-2.022a1.432 1.432 0 0 1 .08-1.076l4.133-7.855c.328-.63 1.01-2.306 1.11-3.968.25-2.476-.813-4.74-1.376-5.563a914.521 914.521 0 0 0-2.094-3.54c-.218-.358-.476-.6-.812-.687-.269-.068-.742.03-.945.086L21.5 7.53c-.352.415-.19.967-.055 1.18l2.075 3.512a4.5 4.5 0 0 1 .11 4.382l-2.96 5.634a.37.37 0 0 1-.493.152 49.743 49.743 0 0 0-1.343-.59c-.295.137-.22.125-.551.175v.29a2.307 2.307 0 1 1-4.615 0v-.384c-.298-.05-.329.076-.593-.043-.418.155-1.092.472-1.252.552a.37.37 0 0 1-.493-.152l-2.96-5.634a4.5 4.5 0 0 1 .11-4.382l2.075-3.512c.135-.213.297-.765-.055-1.18L7.312 5.365Z" fill="url(#r)"/><path d="M7.312 5.365c-.203-.057-.676-.154-.945-.086-.336.086-.594.329-.812.688-.175.287-1.47 2.48-2.094 3.539-.563.823-1.625 3.088-1.375 5.563.1 1.662.781 3.338 1.11 3.968l4.132 7.855c.173.33.187.719.08 1.076-.158.529-.322 1.28-.322 2.022h17.828c0-.743-.164-1.493-.322-2.022a1.432 1.432 0 0 1 .08-1.076l4.133-7.855c.328-.63 1.01-2.306 1.11-3.968.25-2.476-.813-4.74-1.376-5.563a914.521 914.521 0 0 0-2.094-3.54c-.218-.358-.476-.6-.812-.687-.269-.068-.742.03-.945.086L21.5 7.53c-.352.415-.19.967-.055 1.18l2.075 3.512a4.5 4.5 0 0 1 .11 4.382l-2.96 5.634a.37.37 0 0 1-.493.152 49.743 49.743 0 0 0-1.343-.59c-.295.137-.22.125-.551.175v.29a2.307 2.307 0 1 1-4.615 0v-.384c-.298-.05-.329.076-.593-.043-.418.155-1.092.472-1.252.552a.37.37 0 0 1-.493-.152l-2.96-5.634a4.5 4.5 0 0 1 .11-4.382l2.075-3.512c.135-.213.297-.765-.055-1.18L7.312 5.365Z" fill="url(#s)"/><path d="M7.312 5.365c-.203-.057-.676-.154-.945-.086-.336.086-.594.329-.812.688-.175.287-1.47 2.48-2.094 3.539-.563.823-1.625 3.088-1.375 5.563.1 1.662.781 3.338 1.11 3.968l4.132 7.855c.173.33.187.719.08 1.076-.158.529-.322 1.28-.322 2.022h17.828c0-.743-.164-1.493-.322-2.022a1.432 1.432 0 0 1 .08-1.076l4.133-7.855c.328-.63 1.01-2.306 1.11-3.968.25-2.476-.813-4.74-1.376-5.563a914.521 914.521 0 0 0-2.094-3.54c-.218-.358-.476-.6-.812-.687-.269-.068-.742.03-.945.086L21.5 7.53c-.352.415-.19.967-.055 1.18l2.075 3.512a4.5 4.5 0 0 1 .11 4.382l-2.96 5.634a.37.37 0 0 1-.493.152 49.743 49.743 0 0 0-1.343-.59c-.295.137-.22.125-.551.175v.29a2.307 2.307 0 1 1-4.615 0v-.384c-.298-.05-.329.076-.593-.043-.418.155-1.092.472-1.252.552a.37.37 0 0 1-.493-.152l-2.96-5.634a4.5 4.5 0 0 1 .11-4.382l2.075-3.512c.135-.213.297-.765-.055-1.18L7.312 5.365Z" fill="url(#t)"/><path d="M7.312 5.365c-.203-.057-.676-.154-.945-.086-.336.086-.594.329-.812.688-.175.287-1.47 2.48-2.094 3.539-.563.823-1.625 3.088-1.375 5.563.1 1.662.781 3.338 1.11 3.968l4.132 7.855c.173.33.187.719.08 1.076-.158.529-.322 1.28-.322 2.022h17.828c0-.743-.164-1.493-.322-2.022a1.432 1.432 0 0 1 .08-1.076l4.133-7.855c.328-.63 1.01-2.306 1.11-3.968.25-2.476-.813-4.74-1.376-5.563a914.521 914.521 0 0 0-2.094-3.54c-.218-.358-.476-.6-.812-.687-.269-.068-.742.03-.945.086L21.5 7.53c-.352.415-.19.967-.055 1.18l2.075 3.512a4.5 4.5 0 0 1 .11 4.382l-2.96 5.634a.37.37 0 0 1-.493.152 49.743 49.743 0 0 0-1.343-.59c-.295.137-.22.125-.551.175v.29a2.307 2.307 0 1 1-4.615 0v-.384c-.298-.05-.329.076-.593-.043-.418.155-1.092.472-1.252.552a.37.37 0 0 1-.493-.152l-2.96-5.634a4.5 4.5 0 0 1 .11-4.382l2.075-3.512c.135-.213.297-.765-.055-1.18L7.312 5.365Z" fill="url(#u)"/><path d="M7.312 5.365c-.203-.057-.676-.154-.945-.086-.336.086-.594.329-.812.688-.175.287-1.47 2.48-2.094 3.539-.563.823-1.625 3.088-1.375 5.563.1 1.662.781 3.338 1.11 3.968l4.132 7.855c.173.33.187.719.08 1.076-.158.529-.322 1.28-.322 2.022h17.828c0-.743-.164-1.493-.322-2.022a1.432 1.432 0 0 1 .08-1.076l4.133-7.855c.328-.63 1.01-2.306 1.11-3.968.25-2.476-.813-4.74-1.376-5.563a914.521 914.521 0 0 0-2.094-3.54c-.218-.358-.476-.6-.812-.687-.269-.068-.742.03-.945.086L21.5 7.53c-.352.415-.19.967-.055 1.18l2.075 3.512a4.5 4.5 0 0 1 .11 4.382l-2.96 5.634a.37.37 0 0 1-.493.152 49.743 49.743 0 0 0-1.343-.59c-.295.137-.22.125-.551.175v.29a2.307 2.307 0 1 1-4.615 0v-.384c-.298-.05-.329.076-.593-.043-.418.155-1.092.472-1.252.552a.37.37 0 0 1-.493-.152l-2.96-5.634a4.5 4.5 0 0 1 .11-4.382l2.075-3.512c.135-.213.297-.765-.055-1.18L7.312 5.365Z" fill="url(#v)"/><path d="M7.312 5.365c-.203-.057-.676-.154-.945-.086-.336.086-.594.329-.812.688-.175.287-1.47 2.48-2.094 3.539-.563.823-1.625 3.088-1.375 5.563.1 1.662.781 3.338 1.11 3.968l4.132 7.855c.173.33.187.719.08 1.076-.158.529-.322 1.28-.322 2.022h17.828c0-.743-.164-1.493-.322-2.022a1.432 1.432 0 0 1 .08-1.076l4.133-7.855c.328-.63 1.01-2.306 1.11-3.968.25-2.476-.813-4.74-1.376-5.563a914.521 914.521 0 0 0-2.094-3.54c-.218-.358-.476-.6-.812-.687-.269-.068-.742.03-.945.086L21.5 7.53c-.352.415-.19.967-.055 1.18l2.075 3.512a4.5 4.5 0 0 1 .11 4.382l-2.96 5.634a.37.37 0 0 1-.493.152 49.743 49.743 0 0 0-1.343-.59c-.295.137-.22.125-.551.175v.29a2.307 2.307 0 1 1-4.615 0v-.384c-.298-.05-.329.076-.593-.043-.418.155-1.092.472-1.252.552a.37.37 0 0 1-.493-.152l-2.96-5.634a4.5 4.5 0 0 1 .11-4.382l2.075-3.512c.135-.213.297-.765-.055-1.18L7.312 5.365Z" fill="url(#w)"/><path d="M7.312 5.365c-.203-.057-.676-.154-.945-.086-.336.086-.594.329-.812.688-.175.287-1.47 2.48-2.094 3.539-.563.823-1.625 3.088-1.375 5.563.1 1.662.781 3.338 1.11 3.968l4.132 7.855c.173.33.187.719.08 1.076-.158.529-.322 1.28-.322 2.022h17.828c0-.743-.164-1.493-.322-2.022a1.432 1.432 0 0 1 .08-1.076l4.133-7.855c.328-.63 1.01-2.306 1.11-3.968.25-2.476-.813-4.74-1.376-5.563a914.521 914.521 0 0 0-2.094-3.54c-.218-.358-.476-.6-.812-.687-.269-.068-.742.03-.945.086L21.5 7.53c-.352.415-.19.967-.055 1.18l2.075 3.512a4.5 4.5 0 0 1 .11 4.382l-2.96 5.634a.37.37 0 0 1-.493.152 49.743 49.743 0 0 0-1.343-.59c-.295.137-.22.125-.551.175v.29a2.307 2.307 0 1 1-4.615 0v-.384c-.298-.05-.329.076-.593-.043-.418.155-1.092.472-1.252.552a.37.37 0 0 1-.493-.152l-2.96-5.634a4.5 4.5 0 0 1 .11-4.382l2.075-3.512c.135-.213.297-.765-.055-1.18L7.312 5.365Z" fill="url(#x)"/><path d="M7.312 5.365c-.203-.057-.676-.154-.945-.086-.336.086-.594.329-.812.688-.175.287-1.47 2.48-2.094 3.539-.563.823-1.625 3.088-1.375 5.563.1 1.662.781 3.338 1.11 3.968l4.132 7.855c.173.33.187.719.08 1.076-.158.529-.322 1.28-.322 2.022h17.828c0-.743-.164-1.493-.322-2.022a1.432 1.432 0 0 1 .08-1.076l4.133-7.855c.328-.63 1.01-2.306 1.11-3.968.25-2.476-.813-4.74-1.376-5.563a914.521 914.521 0 0 0-2.094-3.54c-.218-.358-.476-.6-.812-.687-.269-.068-.742.03-.945.086L21.5 7.53c-.352.415-.19.967-.055 1.18l2.075 3.512a4.5 4.5 0 0 1 .11 4.382l-2.96 5.634a.37.37 0 0 1-.493.152 49.743 49.743 0 0 0-1.343-.59c-.295.137-.22.125-.551.175v.29a2.307 2.307 0 1 1-4.615 0v-.384c-.298-.05-.329.076-.593-.043-.418.155-1.092.472-1.252.552a.37.37 0 0 1-.493-.152l-2.96-5.634a4.5 4.5 0 0 1 .11-4.382l2.075-3.512c.135-.213.297-.765-.055-1.18L7.312 5.365Z" fill="url(#y)"/><path d="M7.312 5.365c-.203-.057-.676-.154-.945-.086-.336.086-.594.329-.812.688-.175.287-1.47 2.48-2.094 3.539-.563.823-1.625 3.088-1.375 5.563.1 1.662.781 3.338 1.11 3.968l4.132 7.855c.173.33.187.719.08 1.076-.158.529-.322 1.28-.322 2.022h17.828c0-.743-.164-1.493-.322-2.022a1.432 1.432 0 0 1 .08-1.076l4.133-7.855c.328-.63 1.01-2.306 1.11-3.968.25-2.476-.813-4.74-1.376-5.563a914.521 914.521 0 0 0-2.094-3.54c-.218-.358-.476-.6-.812-.687-.269-.068-.742.03-.945.086L21.5 7.53c-.352.415-.19.967-.055 1.18l2.075 3.512a4.5 4.5 0 0 1 .11 4.382l-2.96 5.634a.37.37 0 0 1-.493.152 49.743 49.743 0 0 0-1.343-.59c-.295.137-.22.125-.551.175v.29a2.307 2.307 0 1 1-4.615 0v-.384c-.298-.05-.329.076-.593-.043-.418.155-1.092.472-1.252.552a.37.37 0 0 1-.493-.152l-2.96-5.634a4.5 4.5 0 0 1 .11-4.382l2.075-3.512c.135-.213.297-.765-.055-1.18L7.312 5.365Z" fill="url(#z)"/><g filter="url(#A)"><path d="M23.873 27.147c-1.95-1.2-3.036-3.417-3.36-4.157-5.174 0-9.28 1.97-10.406 6.657h14.188c0-.9-.156-1.938-.422-2.5Z" fill="url(#B)"/></g><rect x="13.668" y="17.985" width="4.615" height="6.587" rx="2.307" fill="url(#C)"/><path d="M7.397 4.635 6.97 5.3a.24.24 0 0 0 .01.278c.9 1.156 2.374 1.801 3.283 2.087a.244.244 0 0 0 .281-.107c.15-.248.354-.585.409-.69.069-.131-.029-.232-.086-.265L7.85 4.775l.125-.273c-.35-.106-.53.044-.578.133Z" fill="url(#D)"/><path d="M7.397 4.635 6.97 5.3a.24.24 0 0 0 .01.278c.9 1.156 2.374 1.801 3.283 2.087a.244.244 0 0 0 .281-.107c.15-.248.354-.585.409-.69.069-.131-.029-.232-.086-.265L7.85 4.775l.125-.273c-.35-.106-.53.044-.578.133Z" fill="url(#E)"/><path d="m24.76 4.635.428.666a.24.24 0 0 1-.01.278c-.899 1.156-2.373 1.801-3.283 2.087a.244.244 0 0 1-.28-.107c-.151-.248-.354-.585-.41-.69-.068-.131.03-.232.087-.265l3.015-1.829-.125-.273c.35-.106.531.044.578.133Z" fill="url(#F)"/><path d="m24.76 4.635.428.666a.24.24 0 0 1-.01.278c-.899 1.156-2.373 1.801-3.283 2.087a.244.244 0 0 1-.28-.107c-.151-.248-.354-.585-.41-.69-.068-.131.03-.232.087-.265l3.015-1.829-.125-.273c.35-.106.531.044.578.133Z" fill="url(#G)"/><path d="M9.515 3.084a60.682 60.682 0 0 0-1.79 1.611.08.08 0 0 0-.027.054c-.033.573 1.969 1.625 3.039 2.013.01.004.022.006.034.006.941-.005 1.104-.372 1.736-.664.726-.336 1.476-.309 1.867-.309.39 0 .602-.219.695-.414.064-.133.065-.316-.029-.523a.634.634 0 0 0 .442-.282.635.635 0 0 0 .056-.625c.156-.062.337-.304.313-.648-.038-.538-.563-.662-.782-.656h-.164c.013-.55-.585-.6-.814-.575l-1.717.098a.977.977 0 0 0-.766-.133c-.432.123-1.263.339-2.093 1.047Z" fill="url(#H)"/><path d="M9.515 3.084a60.682 60.682 0 0 0-1.79 1.611.08.08 0 0 0-.027.054c-.033.573 1.969 1.625 3.039 2.013.01.004.022.006.034.006.941-.005 1.104-.372 1.736-.664.726-.336 1.476-.309 1.867-.309.39 0 .602-.219.695-.414.064-.133.065-.316-.029-.523a.634.634 0 0 0 .442-.282.635.635 0 0 0 .056-.625c.156-.062.337-.304.313-.648-.038-.538-.563-.662-.782-.656h-.164c.013-.55-.585-.6-.814-.575l-1.717.098a.977.977 0 0 0-.766-.133c-.432.123-1.263.339-2.093 1.047Z" fill="url(#I)"/><path d="M22.643 3.084a60.796 60.796 0 0 1 1.79 1.611.08.08 0 0 1 .026.054c.033.573-1.968 1.625-3.038 2.013a.097.097 0 0 1-.034.006c-.941-.005-1.105-.372-1.736-.664-.727-.336-1.477-.309-1.867-.309-.391 0-.602-.219-.696-.414-.064-.133-.064-.316.03-.523a.634.634 0 0 1-.442-.282.635.635 0 0 1-.057-.625c-.156-.062-.336-.304-.312-.648.037-.538.562-.662.781-.656h.164c-.012-.55.585-.6.815-.575l1.716.098a.977.977 0 0 1 .766-.133c.432.123 1.263.339 2.094 1.047Z" fill="url(#J)"/><path d="M22.643 3.084a60.796 60.796 0 0 1 1.79 1.611.08.08 0 0 1 .026.054c.033.573-1.968 1.625-3.038 2.013a.097.097 0 0 1-.034.006c-.941-.005-1.105-.372-1.736-.664-.727-.336-1.477-.309-1.867-.309-.391 0-.602-.219-.696-.414-.064-.133-.064-.316.03-.523a.634.634 0 0 1-.442-.282.635.635 0 0 1-.057-.625c-.156-.062-.336-.304-.312-.648.037-.538.562-.662.781-.656h.164c-.012-.55.585-.6.815-.575l1.716.098a.977.977 0 0 1 .766-.133c.432.123 1.263.339 2.094 1.047Z" fill="url(#K)"/><path d="M11.082 3.186c.68-.344 2.469-.57 3.188-.524" stroke="url(#L)" stroke-width="1.3" stroke-linecap="round"/><path d="M11.082 3.186c.68-.344 2.469-.57 3.188-.524" stroke="url(#M)" stroke-width="1.3" stroke-linecap="round"/><path d="M11.082 3.186c.68-.344 2.469-.57 3.188-.524" stroke="url(#N)" stroke-width="1.3" stroke-linecap="round"/><g filter="url(#O)"><path d="M11.063 3.03c.68-.344 2.47-.57 3.188-.524" stroke="url(#P)" stroke-width=".25" stroke-linecap="round"/></g><path d="M21.076 3.186c-.68-.344-2.47-.57-3.188-.524" stroke="#F5C7AD" stroke-width="1.3" stroke-linecap="round"/><path d="M21.076 3.186c-.68-.344-2.47-.57-3.188-.524" stroke="url(#Q)" stroke-width="1.3" stroke-linecap="round"/><path d="M21.076 3.186c-.68-.344-2.47-.57-3.188-.524" stroke="url(#R)" stroke-width="1.3" stroke-linecap="round"/><path d="M12.62 3.49c.43-.109 1.65-.273 2.666-.148" stroke="url(#S)" stroke-width="1.3" stroke-linecap="round"/><path d="M12.62 3.49c.43-.109 1.65-.273 2.666-.148" stroke="url(#T)" stroke-width="1.3" stroke-linecap="round"/><path d="M12.62 3.49c.43-.109 1.65-.273 2.666-.148" stroke="url(#U)" stroke-width="1.3" stroke-linecap="round"/><g filter="url(#V)"><path d="M12.166 3.374c.43-.109 2.201-.358 3.217-.233" stroke="url(#W)" stroke-width=".25" stroke-linecap="round"/></g><path d="M20.126 3.608c-.43-.11-2.375-.477-3.255-.266" stroke="#F5C7AD" stroke-width="1.3" stroke-linecap="round"/><path d="M20.126 3.608c-.43-.11-2.375-.477-3.255-.266" stroke="url(#X)" stroke-width="1.3" stroke-linecap="round"/><path d="M20.126 3.608c-.43-.11-2.375-.477-3.255-.266" stroke="url(#Y)" stroke-width="1.3" stroke-linecap="round"/><path d="M12.66 4.303c.43-.11 1.28-.203 2.296-.078" stroke="url(#Z)" stroke-width="1.3" stroke-linecap="round"/><path d="M12.66 4.303c.43-.11 1.28-.203 2.296-.078" stroke="url(#aa)" stroke-width="1.3" stroke-linecap="round"/><path d="M12.66 4.303c.43-.11 1.28-.203 2.296-.078" stroke="url(#ab)" stroke-width="1.3" stroke-linecap="round"/><path d="M19.498 4.303c-.43-.11-1.281-.203-2.297-.078" stroke="#F5C7AD" stroke-width="1.3" stroke-linecap="round"/><path d="M19.498 4.303c-.43-.11-1.281-.203-2.297-.078" stroke="url(#ac)" stroke-width="1.3" stroke-linecap="round"/><path d="M19.498 4.303c-.43-.11-1.281-.203-2.297-.078" stroke="url(#ad)" stroke-width="1.3" stroke-linecap="round"/><path d="M12.3 5.381c.274-.102 1.102-.305 2.172-.242" stroke="url(#ae)" stroke-width="1.3" stroke-linecap="round"/><path d="M12.3 5.381c.274-.102 1.102-.305 2.172-.242" stroke="url(#af)" stroke-width="1.3" stroke-linecap="round"/><path d="M12.3 5.381c.274-.102 1.102-.305 2.172-.242" stroke="url(#ag)" stroke-width="1.3" stroke-linecap="round"/><g filter="url(#ah)"><path d="M12.3 5.381c.274-.102 1.102-.305 2.172-.242" stroke="url(#ai)" stroke-width=".25" stroke-linecap="round"/></g><g filter="url(#aj)"><path d="M11.823 4.234c.43-.11 2.2-.359 3.216-.234" stroke="url(#ak)" stroke-width=".25" stroke-linecap="round"/></g><path d="M19.857 5.381c-.273-.102-1.101-.305-2.171-.242" stroke="#F5C7AD" stroke-width="1.3" stroke-linecap="round"/><path d="M19.857 5.381c-.273-.102-1.101-.305-2.171-.242" stroke="url(#al)" stroke-width="1.3" stroke-linecap="round"/><path d="M19.857 5.381c-.273-.102-1.101-.305-2.171-.242" stroke="url(#am)" stroke-width="1.3" stroke-linecap="round"/><path d="M22.643 3.084a60.796 60.796 0 0 1 1.79 1.611.08.08 0 0 1 .026.054c.033.573-1.968 1.625-3.038 2.013a.097.097 0 0 1-.034.006c-.941-.005-1.105-.372-1.736-.664-.727-.336-1.477-.309-1.867-.309-.391 0-.602-.219-.696-.414-.064-.133-.064-.316.03-.523a.634.634 0 0 1-.442-.282.635.635 0 0 1-.057-.625c-.156-.062-.336-.304-.312-.648.037-.538.562-.662.781-.656h.164c-.012-.55.585-.6.815-.575l1.716.098a.977.977 0 0 1 .766-.133c.432.123 1.263.339 2.094 1.047Z" fill="url(#an)"/><path d="M9.515 3.084a60.682 60.682 0 0 0-1.79 1.611.08.08 0 0 0-.027.054c-.033.573 1.969 1.625 3.039 2.013.01.004.022.006.034.006.941-.005 1.104-.372 1.736-.664.726-.336 1.476-.309 1.867-.309.39 0 .602-.219.695-.414.064-.133.065-.316-.029-.523a.634.634 0 0 0 .442-.282.635.635 0 0 0 .056-.625c.156-.062.337-.304.313-.648-.038-.538-.563-.662-.782-.656h-.164c.013-.55-.585-.6-.814-.575l-1.717.098a.977.977 0 0 0-.766-.133c-.432.123-1.263.339-2.093 1.047Z" fill="url(#ao)"/><path d="M9.515 3.084a60.682 60.682 0 0 0-1.79 1.611.08.08 0 0 0-.027.054c-.033.573 1.969 1.625 3.039 2.013.01.004.022.006.034.006.941-.005 1.104-.372 1.736-.664.726-.336 1.476-.309 1.867-.309.39 0 .602-.219.695-.414.064-.133.065-.316-.029-.523a.634.634 0 0 0 .442-.282.635.635 0 0 0 .056-.625c.156-.062.337-.304.313-.648-.038-.538-.563-.662-.782-.656h-.164c.013-.55-.585-.6-.814-.575l-1.717.098a.977.977 0 0 0-.766-.133c-.432.123-1.263.339-2.093 1.047Z" fill="url(#ap)"/><g filter="url(#aq)"><path d="M7.788 26.79 2.344 16.695l4.594-.812 4.038 7.877c-1.35 2.025-2.688 2.865-3.188 3.032Z" fill="url(#ar)"/></g><g filter="url(#as)"><path d="M8.673 26.678c.48-.448 1.669-1.706 2.594-3.156" stroke="url(#at)" stroke-width=".5" stroke-linecap="round"/></g><g filter="url(#au)"><path d="M10.326 13.14c0-.293.118-.644.354-.82l.177-.175c.294-.235.412-.586.412-.938v-.937c0-.292.176-.527.471-.585.707-.176 2.18-.469 4.3-.469 2.12 0 3.593.293 4.3.469.235.058.47.293.47.585v.938c0 .35.177.702.413.937.551.386.517.598.471 1.054-.059.585-.118 1.581-.118 1.581a.66.66 0 0 0 .02 0l-.292 4.346c-.176 1.944-1.703 3.298-3.525 3.298h-3.525c-1.88 0-3.35-1.354-3.525-3.298-.153-1.994-.22-3.995-.403-5.986Z" fill="url(#av)"/><path d="M10.326 13.14c0-.293.118-.644.354-.82l.177-.175c.294-.235.412-.586.412-.938v-.937c0-.292.176-.527.471-.585.707-.176 2.18-.469 4.3-.469 2.12 0 3.593.293 4.3.469.235.058.47.293.47.585v.938c0 .35.177.702.413.937.551.386.517.598.471 1.054-.059.585-.118 1.581-.118 1.581a.66.66 0 0 0 .02 0l-.292 4.346c-.176 1.944-1.703 3.298-3.525 3.298h-3.525c-1.88 0-3.35-1.354-3.525-3.298-.153-1.994-.22-3.995-.403-5.986Z" fill="url(#aw)"/><path d="M10.326 13.14c0-.293.118-.644.354-.82l.177-.175c.294-.235.412-.586.412-.938v-.937c0-.292.176-.527.471-.585.707-.176 2.18-.469 4.3-.469 2.12 0 3.593.293 4.3.469.235.058.47.293.47.585v.938c0 .35.177.702.413.937.551.386.517.598.471 1.054-.059.585-.118 1.581-.118 1.581a.66.66 0 0 0 .02 0l-.292 4.346c-.176 1.944-1.703 3.298-3.525 3.298h-3.525c-1.88 0-3.35-1.354-3.525-3.298-.153-1.994-.22-3.995-.403-5.986Z" fill="url(#ax)"/><path d="M10.326 13.14c0-.293.118-.644.354-.82l.177-.175c.294-.235.412-.586.412-.938v-.937c0-.292.176-.527.471-.585.707-.176 2.18-.469 4.3-.469 2.12 0 3.593.293 4.3.469.235.058.47.293.47.585v.938c0 .35.177.702.413.937.551.386.517.598.471 1.054-.059.585-.118 1.581-.118 1.581a.66.66 0 0 0 .02 0l-.292 4.346c-.176 1.944-1.703 3.298-3.525 3.298h-3.525c-1.88 0-3.35-1.354-3.525-3.298-.153-1.994-.22-3.995-.403-5.986Z" fill="url(#ay)"/><path d="M10.326 13.14c0-.293.118-.644.354-.82l.177-.175c.294-.235.412-.586.412-.938v-.937c0-.292.176-.527.471-.585.707-.176 2.18-.469 4.3-.469 2.12 0 3.593.293 4.3.469.235.058.47.293.47.585v.938c0 .35.177.702.413.937.551.386.517.598.471 1.054-.059.585-.118 1.581-.118 1.581a.66.66 0 0 0 .02 0l-.292 4.346c-.176 1.944-1.703 3.298-3.525 3.298h-3.525c-1.88 0-3.35-1.354-3.525-3.298-.153-1.994-.22-3.995-.403-5.986Z" fill="url(#az)"/><path d="M10.326 13.14c0-.293.118-.644.354-.82l.177-.175c.294-.235.412-.586.412-.938v-.937c0-.292.176-.527.471-.585.707-.176 2.18-.469 4.3-.469 2.12 0 3.593.293 4.3.469.235.058.47.293.47.585v.938c0 .35.177.702.413.937.551.386.517.598.471 1.054-.059.585-.118 1.581-.118 1.581a.66.66 0 0 0 .02 0l-.292 4.346c-.176 1.944-1.703 3.298-3.525 3.298h-3.525c-1.88 0-3.35-1.354-3.525-3.298-.153-1.994-.22-3.995-.403-5.986Z" fill="url(#aA)"/></g><g filter="url(#aB)"><path d="m20.343 9.216-3.38 1.127a1.15 1.15 0 0 0 .517 2.23l3.36-.45-.497-2.907Z" fill="url(#aC)"/></g><g filter="url(#aD)"><path d="m15.688 15.258-.9 1.867c-.112.383.156.767.535.767h.81c.38 0 .647-.39.536-.767l-.547-1.867c-.118-.413-.311-.413-.434 0Z" fill="#D89992"/></g><g filter="url(#aE)"><path d="m15.57 15.08-.583 1.865a.592.592 0 0 0 .572.768h.863c.405 0 .69-.39.572-.768l-.584-1.866c-.125-.413-.708-.413-.84 0Z" fill="#FBC4B1"/><path d="m15.57 15.08-.583 1.865a.592.592 0 0 0 .572.768h.863c.405 0 .69-.39.572-.768l-.584-1.866c-.125-.413-.708-.413-.84 0Z" fill="url(#aF)"/><path d="m15.57 15.08-.583 1.865a.592.592 0 0 0 .572.768h.863c.405 0 .69-.39.572-.768l-.584-1.866c-.125-.413-.708-.413-.84 0Z" fill="url(#aG)"/><path d="m15.57 15.08-.583 1.865a.592.592 0 0 0 .572.768h.863c.405 0 .69-.39.572-.768l-.584-1.866c-.125-.413-.708-.413-.84 0Z" fill="url(#aH)"/><path d="m15.57 15.08-.583 1.865a.592.592 0 0 0 .572.768h.863c.405 0 .69-.39.572-.768l-.584-1.866c-.125-.413-.708-.413-.84 0Z" fill="url(#aI)"/></g><path d="m15.57 15.08-.583 1.865a.592.592 0 0 0 .572.768h.863c.405 0 .69-.39.572-.768l-.584-1.866c-.125-.413-.708-.413-.84 0Z" fill="url(#aJ)"/><path d="M14.492 18.424a.218.218 0 0 0-.26.045.2.2 0 0 0-.021.257c.376.57 1.032.95 1.78.95.746 0 1.403-.38 1.78-.95a.203.203 0 0 0-.023-.26.218.218 0 0 0-.26-.042 3.232 3.232 0 0 1-1.498.355 3.25 3.25 0 0 1-1.498-.355Z" fill="#88024E" stroke="url(#aK)" stroke-width=".1"/><g filter="url(#aL)"><path d="m20.075 12.406-.002-.001-.002-.002-.005-.004-.013-.01a1.683 1.683 0 0 0-.17-.119 2.838 2.838 0 0 0-.46-.231 3.111 3.111 0 0 0-1.64-.174.586.586 0 0 0 .183 1.158c.437-.07.787.011 1.025.106a1.668 1.668 0 0 1 .33.175l.009.006a.586.586 0 0 0 .745-.904Z" fill="#1E1E1E"/></g><g filter="url(#aM)"><path d="m11.847 12.406.001-.001.002-.002.005-.004.013-.01a1.719 1.719 0 0 1 .17-.119 2.83 2.83 0 0 1 .461-.231 3.111 3.111 0 0 1 1.64-.174.586.586 0 1 1-.183 1.158 1.939 1.939 0 0 0-1.026.106 1.663 1.663 0 0 0-.33.175l-.008.006a.586.586 0 0 1-.745-.904Z" fill="#1E1E1E"/></g><path d="M18.612 13.821c.717 0 1.323.495 1.488 1.163a.301.301 0 0 1-.294.374h-2.45a.253.253 0 0 1-.249-.299 1.535 1.535 0 0 1 1.505-1.238Z" fill="#fff"/><path d="M18.385 14.12a.98.98 0 0 1 .944 1.238h-1.892a.984.984 0 0 1 .949-1.238Z" fill="url(#aN)"/><path d="M17.824 15.1c0-.312.25-.561.561-.561a.559.559 0 0 1 .499.819h-.993a.508.508 0 0 1-.067-.258Z" fill="#000"/><g filter="url(#aO)"><path d="M18.313 14.327c.07.093-.076.207-.242.331-.166.124-.289.212-.359.118-.07-.093.008-.27.174-.393.166-.124.357-.15.427-.056Z" fill="#C7A7A3"/><path d="M18.313 14.327c.07.093-.076.207-.242.331-.166.124-.289.212-.359.118-.07-.093.008-.27.174-.393.166-.124.357-.15.427-.056Z" fill="url(#aP)"/></g><g filter="url(#aQ)"><path d="M19.258 14.97a.922.922 0 0 0-.254-.507l-.285.313.128.25.41-.055Z" fill="url(#aR)"/></g><path d="M13.363 13.821c-.717 0-1.323.495-1.488 1.163a.301.301 0 0 0 .294.374h2.45c.155 0 .28-.143.25-.299a1.538 1.538 0 0 0-1.506-1.238Z" fill="#fff"/><path d="M13.59 14.12a.98.98 0 0 0-.944 1.238h1.892c.023-.085.036-.17.036-.258a.986.986 0 0 0-.984-.98Z" fill="url(#aS)"/><path d="M14.151 15.1a.559.559 0 0 0-.561-.562.559.559 0 0 0-.499.82h.993a.556.556 0 0 0 .067-.258Z" fill="#000"/><g filter="url(#aT)"><path d="M14.485 14.985c0-.317-.258-.528-.327-.592l-.317.306.195.397.449-.111Z" fill="url(#aU)"/></g><g filter="url(#aV)" transform="rotate(-27.914 13.294 14.538)"><ellipse cx="13.294" cy="14.538" rx=".428" ry=".216" fill="#C7A7A3" fill-opacity=".9"/><ellipse cx="13.294" cy="14.538" rx=".428" ry=".216" fill="url(#aW)"/></g><g filter="url(#aX)"><path d="M17.814 12.247c.472-.083 1.393-.06 2.03.437" stroke="url(#aY)" stroke-width=".5" stroke-linecap="round"/></g><g filter="url(#aZ)"><path d="M12.082 12.816c.36-.317 1.144-.652 2.117-.497" stroke="url(#ba)" stroke-width=".5" stroke-linecap="round"/></g><defs><radialGradient id="b" cx="0" cy="0" r="1" gradientUnits="userSpaceOnUse" gradientTransform="matrix(1.92698 0 0 3.37223 8.944 15.392)"><stop offset=".351" stop-color="#CF9888"/><stop offset="1" stop-color="#BE8C77"/></radialGradient><radialGradient id="g" cx="0" cy="0" r="1" gradientUnits="userSpaceOnUse" gradientTransform="matrix(.90778 -.661 .75446 1.03612 21.632 15.102)"><stop offset=".543" stop-color="#D9AA94"/><stop offset="1" stop-color="#D9AA94" stop-opacity="0"/></radialGradient><radialGradient id="i" cx="0" cy="0" r="1" gradientUnits="userSpaceOnUse" gradientTransform="matrix(.9018 -1.65868 .97083 .52783 21.178 16.294)"><stop offset=".755" stop-color="#D6A38D" stop-opacity="0"/><stop offset=".916" stop-color="#D6A38D"/></radialGradient><radialGradient id="j" cx="0" cy="0" r="1" gradientUnits="userSpaceOnUse" gradientTransform="rotate(44.707 -8.104 33.5) scale(.40061 .51645)"><stop stop-color="#D5A58E"/><stop offset="1" stop-color="#D5A58E" stop-opacity="0"/></radialGradient><radialGradient id="l" cx="0" cy="0" r="1" gradientUnits="userSpaceOnUse" gradientTransform="matrix(.87607 -3.2466 1.20394 .32487 20.762 10.883)"><stop stop-color="#464344"/><stop offset="1" stop-color="#464344" stop-opacity="0"/></radialGradient><radialGradient id="m" cx="0" cy="0" r="1" gradientUnits="userSpaceOnUse" gradientTransform="matrix(4.19996 .3865 -.20782 2.2583 18.958 8.95)"><stop offset=".122" stop-color="#4A4648"/><stop offset="1" stop-color="#4A4648" stop-opacity="0"/></radialGradient><radialGradient id="n" cx="0" cy="0" r="1" gradientUnits="userSpaceOnUse" gradientTransform="matrix(0 1.84386 -2.85562 0 15.99 5.948)"><stop stop-color="#423D3F"/><stop offset="1" stop-color="#423D3F" stop-opacity="0"/></radialGradient><radialGradient id="o" cx="0" cy="0" r="1" gradientUnits="userSpaceOnUse" gradientTransform="matrix(3.37543 -2.4736 3.87532 5.2882 8.91 13.434)"><stop stop-color="#463C39"/><stop offset="1" stop-color="#463C39" stop-opacity="0"/></radialGradient><radialGradient id="s" cx="0" cy="0" r="1" gradientUnits="userSpaceOnUse" gradientTransform="matrix(8.8125 0 0 9.43494 11 29.99)"><stop stop-color="#2691FF"/><stop offset="1" stop-color="#2691FF" stop-opacity="0"/></radialGradient><radialGradient id="t" cx="0" cy="0" r="1" gradientUnits="userSpaceOnUse" gradientTransform="matrix(5.25 -8.62501 6.82131 4.1521 23.375 24.35)"><stop offset=".286" stop-color="#298DFF"/><stop offset="1" stop-color="#298DFF" stop-opacity="0"/></radialGradient><radialGradient id="u" cx="0" cy="0" r="1" gradientUnits="userSpaceOnUse" gradientTransform="matrix(3 0 0 4.4849 7.5 29.99)"><stop stop-color="#499EFA"/><stop offset="1" stop-color="#499EFA" stop-opacity="0"/></radialGradient><radialGradient id="v" cx="0" cy="0" r="1" gradientUnits="userSpaceOnUse" gradientTransform="rotate(80.96 -3.883 18.63) scale(5.56917 7.08982)"><stop offset=".539" stop-color="#1D5894"/><stop offset="1" stop-color="#1D5894" stop-opacity="0"/></radialGradient><radialGradient id="w" cx="0" cy="0" r="1" gradientUnits="userSpaceOnUse" gradientTransform="rotate(118.413 2.335 6.065) scale(1.08366 3.24985)"><stop offset=".272" stop-color="#43BBFF"/><stop offset="1" stop-color="#43BBFF" stop-opacity="0"/></radialGradient><radialGradient id="x" cx="0" cy="0" r="1" gradientUnits="userSpaceOnUse" gradientTransform="matrix(3.1875 0 0 28.1734 1.625 13.788)"><stop stop-color="#54ACF3"/><stop offset="1" stop-color="#54ACF3" stop-opacity="0"/></radialGradient><radialGradient id="y" cx="0" cy="0" r="1" gradientUnits="userSpaceOnUse" gradientTransform="matrix(7.00002 10.68753 -3.8615 2.52917 25.625 5.913)"><stop offset=".181" stop-color="#46C5FF"/><stop offset="1" stop-color="#46C5FF" stop-opacity="0"/></radialGradient><radialGradient id="z" cx="0" cy="0" r="1" gradientUnits="userSpaceOnUse" gradientTransform="rotate(57.051 5.871 25) scale(1.00548 2.92004)"><stop offset=".443" stop-color="#419AE2"/><stop offset="1" stop-color="#419AE2" stop-opacity="0"/></radialGradient><radialGradient id="B" cx="0" cy="0" r="1" gradientUnits="userSpaceOnUse" gradientTransform="rotate(145.941 7.18 16.593) scale(7.39327 7.04413)"><stop offset=".206" stop-color="#47B8FF"/><stop offset="1" stop-color="#47B8FF" stop-opacity="0"/></radialGradient><radialGradient id="C" cx="0" cy="0" r="1" gradientUnits="userSpaceOnUse" gradientTransform="rotate(-112.749 16.634 6.815) scale(3.15174 2.83444)"><stop offset=".144" stop-color="#F2C3B4"/><stop offset="1" stop-color="#BE8C8A"/></radialGradient><radialGradient id="D" cx="0" cy="0" r="1" gradientUnits="userSpaceOnUse" gradientTransform="rotate(120.064 2.835 5.694) scale(1.3617 3.4441)"><stop offset=".356" stop-color="#2D99FD"/><stop offset="1" stop-color="#1284D5"/></radialGradient><radialGradient id="E" cx="0" cy="0" r="1" gradientUnits="userSpaceOnUse" gradientTransform="rotate(118.264 2.99 5.89) scale(.51533 1.79723)"><stop offset=".341" stop-color="#49ABFF"/><stop offset="1" stop-color="#49ABFF" stop-opacity="0"/></radialGradient><radialGradient id="F" cx="0" cy="0" r="1" gradientUnits="userSpaceOnUse" gradientTransform="rotate(145.763 11.276 6.464) scale(2.64024 1.85707)"><stop offset=".061" stop-color="#4BB4FF"/><stop offset="1" stop-color="#347BC6"/></radialGradient><radialGradient id="G" cx="0" cy="0" r="1" gradientUnits="userSpaceOnUse" gradientTransform="matrix(1.96733 -1.03034 .40634 .77587 22.907 5.387)"><stop offset=".766" stop-color="#4298D4"/><stop offset="1" stop-color="#4298D4" stop-opacity="0"/></radialGradient><radialGradient id="H" cx="0" cy="0" r="1" gradientUnits="userSpaceOnUse" gradientTransform="rotate(-29.297 15.837 -14.733) scale(9.1756 2.52424)"><stop offset=".088" stop-color="#FCC4AC"/><stop offset="1" stop-color="#EDC1A6"/></radialGradient><radialGradient id="I" cx="0" cy="0" r="1" gradientUnits="userSpaceOnUse" gradientTransform="matrix(.74502 .76747 -3.62255 3.5166 8.584 3.413)"><stop stop-color="#D9AB8F"/><stop offset="1" stop-color="#D9AB8F" stop-opacity="0"/></radialGradient><radialGradient id="J" cx="0" cy="0" r="1" gradientUnits="userSpaceOnUse" gradientTransform="matrix(-2.57172 2.16536 -4.16467 -4.94623 24.46 5.257)"><stop stop-color="#FFDABD"/><stop offset=".759" stop-color="#F4C7AD"/></radialGradient><radialGradient id="K" cx="0" cy="0" r="1" gradientUnits="userSpaceOnUse" gradientTransform="matrix(.27173 1.15625 -2.42824 .57066 20.11 1.85)"><stop stop-color="#D3AA91"/><stop offset="1" stop-color="#D3AA91" stop-opacity="0"/></radialGradient><radialGradient id="M" cx="0" cy="0" r="1" gradientUnits="userSpaceOnUse" gradientTransform="rotate(-96.876 7.88 -4.11) scale(1.26067 6.32306)"><stop offset=".626" stop-color="#D29D82" stop-opacity="0"/><stop offset="1" stop-color="#D29D82"/></radialGradient><radialGradient id="N" cx="0" cy="0" r="1" gradientUnits="userSpaceOnUse" gradientTransform="matrix(2.38402 3.48638 -3.82066 2.6126 12.1 1.06)"><stop offset=".66" stop-color="#D09B80" stop-opacity="0"/><stop offset=".896" stop-color="#D09B80"/></radialGradient><radialGradient id="R" cx="0" cy="0" r="1" gradientUnits="userSpaceOnUse" gradientTransform="matrix(.16689 -1.62541 5.33705 .54798 19.604 3.398)"><stop offset=".651" stop-color="#BF876A" stop-opacity="0"/><stop offset=".915" stop-color="#BF876A"/></radialGradient><radialGradient id="T" cx="0" cy="0" r="1" gradientUnits="userSpaceOnUse" gradientTransform="rotate(-91.151 8.864 -5.072) scale(1.21254 6.13593)"><stop offset=".629" stop-color="#D29D82" stop-opacity="0"/><stop offset="1" stop-color="#D29D82"/></radialGradient><radialGradient id="U" cx="0" cy="0" r="1" gradientUnits="userSpaceOnUse" gradientTransform="rotate(59.119 5.191 12.964) scale(3.18172 3.50436)"><stop offset=".68" stop-color="#D09B80" stop-opacity="0"/><stop offset="1" stop-color="#D09B80"/></radialGradient><radialGradient id="Y" cx="0" cy="0" r="1" gradientUnits="userSpaceOnUse" gradientTransform="matrix(.09375 -2.125 7.91564 .34922 18.615 4.3)"><stop offset=".61" stop-color="#BF876A" stop-opacity="0"/><stop offset=".915" stop-color="#BF876A"/></radialGradient><radialGradient id="aa" cx="0" cy="0" r="1" gradientUnits="userSpaceOnUse" gradientTransform="matrix(.04203 -1.1037 3.99518 .15214 13.945 4.444)"><stop offset=".66" stop-color="#D29D82" stop-opacity="0"/><stop offset="1" stop-color="#D29D82"/></radialGradient><radialGradient id="ab" cx="0" cy="0" r="1" gradientUnits="userSpaceOnUse" gradientTransform="rotate(57.127 3.892 14.014) scale(2.59234 3.1316)"><stop offset=".727" stop-color="#D09B80" stop-opacity="0"/><stop offset="1" stop-color="#D09B80"/></radialGradient><radialGradient id="ad" cx="0" cy="0" r="1" gradientUnits="userSpaceOnUse" gradientTransform="matrix(.01562 -1.15625 4.63352 .06261 18.474 4.522)"><stop offset=".651" stop-color="#BF876A" stop-opacity="0"/><stop offset=".915" stop-color="#BF876A"/></radialGradient><radialGradient id="af" cx="0" cy="0" r="1" gradientUnits="userSpaceOnUse" gradientTransform="matrix(-.05908 -1.21917 3.8426 -.1862 13.516 5.64)"><stop offset=".754" stop-color="#D29D82" stop-opacity="0"/><stop offset="1" stop-color="#D29D82"/></radialGradient><radialGradient id="ag" cx="0" cy="0" r="1" gradientUnits="userSpaceOnUse" gradientTransform="rotate(85.073 5.274 8.862) scale(3.92006 3.10284)"><stop offset=".727" stop-color="#D09B80" stop-opacity="0"/><stop offset="1" stop-color="#D09B80"/></radialGradient><radialGradient id="am" cx="0" cy="0" r="1" gradientUnits="userSpaceOnUse" gradientTransform="matrix(.07604 -1.3001 4.12187 .24108 18.771 5.632)"><stop offset=".687" stop-color="#BF876A" stop-opacity="0"/><stop offset=".915" stop-color="#BF876A"/></radialGradient><radialGradient id="an" cx="0" cy="0" r="1" gradientUnits="userSpaceOnUse" gradientTransform="matrix(-1.07831 4.16712 -14.86837 -3.84744 20.85 2.6)"><stop offset=".598" stop-color="#CD978C" stop-opacity="0"/><stop offset="1" stop-color="#A97265"/></radialGradient><radialGradient id="ao" cx="0" cy="0" r="1" gradientUnits="userSpaceOnUse" gradientTransform="rotate(-107.186 9 -1.338) scale(1.58646 3.37754)"><stop offset=".448" stop-color="#CE9488"/><stop offset="1" stop-color="#CE9488" stop-opacity="0"/></radialGradient><radialGradient id="ap" cx="0" cy="0" r="1" gradientUnits="userSpaceOnUse" gradientTransform="matrix(2.884 -2.16158 .77433 1.03312 8.564 6.55)"><stop stop-color="#FFC3AA"/><stop offset="1" stop-color="#FFC3AA" stop-opacity="0"/></radialGradient><radialGradient id="ar" cx="0" cy="0" r="1" gradientUnits="userSpaceOnUse" gradientTransform="matrix(-4.53124 -8.125 5.12798 -2.85982 9.094 24.881)"><stop stop-color="#2882FF"/><stop offset="1" stop-color="#2882FF" stop-opacity="0"/></radialGradient><radialGradient id="aw" cx="0" cy="0" r="1" gradientUnits="userSpaceOnUse" gradientTransform="matrix(0 9.625 -13.0654 0 16.022 13.278)"><stop offset=".487" stop-color="#E0AD9B" stop-opacity="0"/><stop offset="1" stop-color="#A77D91"/></radialGradient><radialGradient id="az" cx="0" cy="0" r="1" gradientUnits="userSpaceOnUse" gradientTransform="matrix(0 -1.43528 1.76649 0 18.567 13.996)"><stop stop-color="#F5B7A7"/><stop offset="1" stop-color="#F5B7A7" stop-opacity="0"/></radialGradient><radialGradient id="aA" cx="0" cy="0" r="1" gradientUnits="userSpaceOnUse" gradientTransform="matrix(0 -1.52728 1.89931 0 13.561 13.96)"><stop stop-color="#D0958D"/><stop offset="1" stop-color="#D0958D" stop-opacity="0"/></radialGradient><radialGradient id="aI" cx="0" cy="0" r="1" gradientUnits="userSpaceOnUse" gradientTransform="matrix(0 .21621 -.69464 0 16.35 17.157)"><stop stop-color="#FFD7C1"/><stop offset="1" stop-color="#FFD7C1" stop-opacity="0"/></radialGradient><radialGradient id="aN" cx="0" cy="0" r="1" gradientUnits="userSpaceOnUse" gradientTransform="matrix(0 .89069 -1.41674 0 18.383 14.643)"><stop offset=".802" stop-color="#7D574A"/><stop offset="1" stop-color="#694B43"/><stop offset="1" stop-color="#804D49"/><stop offset="1" stop-color="#664944"/></radialGradient><radialGradient id="aP" cx="0" cy="0" r="1" gradientUnits="userSpaceOnUse" gradientTransform="matrix(-.2546 -.3281 .4517 -.35053 18.132 14.736)"><stop offset=".766" stop-color="#FFE6E2" stop-opacity="0"/><stop offset=".966" stop-color="#FFE6E2"/></radialGradient><radialGradient id="aS" cx="0" cy="0" r="1" gradientUnits="userSpaceOnUse" gradientTransform="matrix(0 .89073 -1.41681 0 13.592 14.643)"><stop offset=".802" stop-color="#7D574A"/><stop offset="1" stop-color="#694B43"/><stop offset="1" stop-color="#804D49"/><stop offset="1" stop-color="#664944"/></radialGradient><radialGradient id="aW" cx="0" cy="0" r="1" gradientUnits="userSpaceOnUse" gradientTransform="matrix(-.0085 -.54242 .652 -.0102 13.278 14.884)"><stop offset=".766" stop-color="#FFE6E2" stop-opacity="0"/><stop offset=".966" stop-color="#FFE6E2"/></radialGradient><linearGradient id="d" x1="10.777" y1="15.698" x2="10.073" y2="15.698" gradientUnits="userSpaceOnUse"><stop stop-color="#BA7C6B"/><stop offset="1" stop-color="#BE8474"/></linearGradient><linearGradient id="f" x1="22.416" y1="14.194" x2="21.517" y2="16.979" gradientUnits="userSpaceOnUse"><stop stop-color="#FBD3BD"/><stop offset="1" stop-color="#F0B8A4"/></linearGradient><linearGradient id="q" x1="10.871" y1="10.001" x2="10.871" y2="12.369" gradientUnits="userSpaceOnUse"><stop stop-color="#3C393A"/><stop offset="1" stop-color="#3C393A" stop-opacity="0"/></linearGradient><linearGradient id="r" x1="22.825" y1="30.777" x2=".452" y2="8.828" gradientUnits="userSpaceOnUse"><stop stop-color="#3CA8FF"/><stop offset="1" stop-color="#2A99FF"/></linearGradient><linearGradient id="L" x1="14.261" y1="2.588" x2="10.736" y2="4.348" gradientUnits="userSpaceOnUse"><stop offset=".565" stop-color="#F4C7B0"/><stop offset="1" stop-color="#F4C7B0" stop-opacity="0"/></linearGradient><linearGradient id="P" x1="14.299" y1="2.495" x2="11.472" y2="4.331" gradientUnits="userSpaceOnUse"><stop stop-color="#FFD9C8"/><stop offset="1" stop-color="#FFD9C8" stop-opacity="0"/></linearGradient><linearGradient id="Q" x1="16.576" y1="2.557" x2="20.718" y2="4.814" gradientUnits="userSpaceOnUse"><stop offset=".113" stop-color="#D3A28E"/><stop offset=".704" stop-color="#D3A28E" stop-opacity="0"/></linearGradient><linearGradient id="S" x1="15.286" y1="3.297" x2="12.235" y2="4.422" gradientUnits="userSpaceOnUse"><stop offset=".805" stop-color="#F4C7B0"/><stop offset="1" stop-color="#F4C7B0" stop-opacity="0"/></linearGradient><linearGradient id="W" x1="15.432" y1="3.185" x2="12.281" y2="4.567" gradientUnits="userSpaceOnUse"><stop stop-color="#FFD9C8"/><stop offset="1" stop-color="#FFD9C8" stop-opacity="0"/></linearGradient><linearGradient id="X" x1="15.545" y1="3.443" x2="20.274" y2="4.831" gradientUnits="userSpaceOnUse"><stop offset=".113" stop-color="#D3A28E"/><stop offset=".893" stop-color="#D3A28E" stop-opacity="0"/></linearGradient><linearGradient id="Z" x1="14.956" y1="4.165" x2="12.465" y2="5.276" gradientUnits="userSpaceOnUse"><stop offset=".805" stop-color="#F4C7B0"/><stop offset="1" stop-color="#F4C7B0" stop-opacity="0"/></linearGradient><linearGradient id="ac" x1="16.265" y1="4.234" x2="19.174" y2="5.677" gradientUnits="userSpaceOnUse"><stop offset=".113" stop-color="#D3A28E"/><stop offset=".893" stop-color="#D3A28E" stop-opacity="0"/></linearGradient><linearGradient id="ae" x1="14.472" y1="5.127" x2="11.788" y2="5.741" gradientUnits="userSpaceOnUse"><stop offset=".805" stop-color="#F4C7B0"/><stop offset="1" stop-color="#F4C7B0" stop-opacity="0"/></linearGradient><linearGradient id="ai" x1="14.505" y1="5.201" x2="12.194" y2="5.924" gradientUnits="userSpaceOnUse"><stop stop-color="#FFD9C8"/><stop offset="1" stop-color="#FFD9C8" stop-opacity="0"/></linearGradient><linearGradient id="ak" x1="15.088" y1="4.044" x2="11.938" y2="5.427" gradientUnits="userSpaceOnUse"><stop stop-color="#F7CBB0"/><stop offset="1" stop-color="#F7CBB0" stop-opacity="0"/></linearGradient><linearGradient id="al" x1="16.8" y1="5.254" x2="20.02" y2="6.073" gradientUnits="userSpaceOnUse"><stop offset=".113" stop-color="#D3A28E"/><stop offset=".893" stop-color="#D3A28E" stop-opacity="0"/></linearGradient><linearGradient id="at" x1="11.267" y1="23.522" x2="7.298" y2="27.647" gradientUnits="userSpaceOnUse"><stop stop-color="#3A95FA"/><stop offset="1" stop-color="#3B95F9" stop-opacity="0"/></linearGradient><linearGradient id="av" x1="20.422" y1="15.82" x2="12.036" y2="17.07" gradientUnits="userSpaceOnUse"><stop stop-color="#FFDAC0"/><stop offset="1" stop-color="#DAA594"/></linearGradient><linearGradient id="ax" x1="9.794" y1="17.497" x2="13.482" y2="17.622" gradientUnits="userSpaceOnUse"><stop stop-color="#A58787"/><stop offset="1" stop-color="#DEAD9D" stop-opacity="0"/></linearGradient><linearGradient id="ay" x1="10.065" y1="18.78" x2="12.131" y2="18.707" gradientUnits="userSpaceOnUse"><stop stop-color="#E8AD97"/><stop offset="1" stop-color="#E8AD97" stop-opacity="0"/></linearGradient><linearGradient id="aC" x1="15.407" y1="12.543" x2="24.349" y2="9.341" gradientUnits="userSpaceOnUse"><stop stop-color="#FFDEC4"/><stop offset="1" stop-color="#FFDEC4" stop-opacity="0"/></linearGradient><linearGradient id="aF" x1="15.041" y1="16.544" x2="16.072" y2="16.544" gradientUnits="userSpaceOnUse"><stop stop-color="#DFA790"/><stop offset="1" stop-color="#DFA790" stop-opacity="0"/></linearGradient><linearGradient id="aG" x1="17.021" y1="16.898" x2="15.895" y2="16.882" gradientUnits="userSpaceOnUse"><stop stop-color="#FFDFC4"/><stop offset="1" stop-color="#FFDFC4" stop-opacity="0"/></linearGradient><linearGradient id="aH" x1="16.204" y1="17.713" x2="16.204" y2="17.084" gradientUnits="userSpaceOnUse"><stop stop-color="#DC9C96"/><stop offset="1" stop-color="#DC9C96" stop-opacity="0"/></linearGradient><linearGradient id="aJ" x1="16.128" y1="17.759" x2="16.128" y2="17.575" gradientUnits="userSpaceOnUse"><stop stop-color="#D6938E"/><stop offset="1" stop-color="#D6938E" stop-opacity="0"/></linearGradient><linearGradient id="aK" x1="14.852" y1="19.487" x2="15.329" y2="18.732" gradientUnits="userSpaceOnUse"><stop stop-color="#D9A4A4"/><stop offset=".663" stop-color="#D9A4A4" stop-opacity="0"/></linearGradient><linearGradient id="aR" x1="19.237" y1="14.703" x2="18.893" y2="14.915" gradientUnits="userSpaceOnUse"><stop stop-color="#B4948D"/><stop offset="1" stop-color="#B4948D" stop-opacity="0"/></linearGradient><linearGradient id="aU" x1="14.409" y1="14.703" x2="14.064" y2="14.915" gradientUnits="userSpaceOnUse"><stop stop-color="#B4948D"/><stop offset="1" stop-color="#B4948D" stop-opacity="0"/></linearGradient><linearGradient id="aY" x1="19.254" y1="12.353" x2="18.793" y2="11.41" gradientUnits="userSpaceOnUse"><stop stop-color="#353435"/><stop offset="1" stop-color="#353435" stop-opacity="0"/></linearGradient><linearGradient id="ba" x1="13.429" y1="12.213" x2="12.123" y2="11.665" gradientUnits="userSpaceOnUse"><stop stop-color="#353435"/><stop offset="1" stop-color="#353435" stop-opacity="0"/></linearGradient><filter id="a" x="8.944" y="13.559" width="3.866" height="3.666" filterUnits="userSpaceOnUse" color-interpolation-filters="sRGB"><feFlood flood-opacity="0" result="BackgroundImageFix"/><feBlend in="SourceGraphic" in2="BackgroundImageFix" result="shape"/><feColorMatrix in="SourceAlpha" values="0 0 0 0 0 0 0 0 0 0 0 0 0 0 0 0 0 0 127 0" result="hardAlpha"/><feOffset dx=".2"/><feGaussianBlur stdDeviation=".15"/><feComposite in2="hardAlpha" operator="arithmetic" k2="-1" k3="1"/><feColorMatrix values="0 0 0 0 0.917647 0 0 0 0 0.694118 0 0 0 0 0.607843 0 0 0 1 0"/><feBlend in2="shape" result="effect1_innerShadow_4002_3730"/></filter><filter id="c" x="9.184" y="13.8" width="3.185" height="3.185" filterUnits="userSpaceOnUse" color-interpolation-filters="sRGB"><feFlood flood-opacity="0" result="BackgroundImageFix"/><feBlend in="SourceGraphic" in2="BackgroundImageFix" result="shape"/><feGaussianBlur stdDeviation=".25" result="effect1_foregroundBlur_4002_3730"/></filter><filter id="e" x="19.39" y="13.309" width="3.916" height="3.916" filterUnits="userSpaceOnUse" color-interpolation-filters="sRGB"><feFlood flood-opacity="0" result="BackgroundImageFix"/><feBlend in="SourceGraphic" in2="BackgroundImageFix" result="shape"/><feColorMatrix in="SourceAlpha" values="0 0 0 0 0 0 0 0 0 0 0 0 0 0 0 0 0 0 127 0" result="hardAlpha"/><feOffset dx=".25" dy="-.25"/><feGaussianBlur stdDeviation=".25"/><feComposite in2="hardAlpha" operator="arithmetic" k2="-1" k3="1"/><feColorMatrix values="0 0 0 0 0.843137 0 0 0 0 0.623529 0 0 0 0 0.580392 0 0 0 1 0"/><feBlend in2="shape" result="effect1_innerShadow_4002_3730"/></filter><filter id="h" x="19.631" y="13.8" width="3.185" height="3.185" filterUnits="userSpaceOnUse" color-interpolation-filters="sRGB"><feFlood flood-opacity="0" result="BackgroundImageFix"/><feBlend in="SourceGraphic" in2="BackgroundImageFix" result="shape"/><feGaussianBlur stdDeviation=".25" result="effect1_foregroundBlur_4002_3730"/></filter><filter id="k" x="9.072" y="5.448" width="13.838" height="9.332" filterUnits="userSpaceOnUse" color-interpolation-filters="sRGB"><feFlood flood-opacity="0" result="BackgroundImageFix"/><feBlend in="SourceGraphic" in2="BackgroundImageFix" result="shape"/><feColorMatrix in="SourceAlpha" values="0 0 0 0 0 0 0 0 0 0 0 0 0 0 0 0 0 0 127 0" result="hardAlpha"/><feOffset dy="-.5"/><feGaussianBlur stdDeviation=".375"/><feComposite in2="hardAlpha" operator="arithmetic" k2="-1" k3="1"/><feColorMatrix values="0 0 0 0 0.0392157 0 0 0 0 0.00784314 0 0 0 0 0.0196078 0 0 0 1 0"/><feBlend in2="shape" result="effect1_innerShadow_4002_3730"/></filter><filter id="p" x="10.354" y="9.734" width="1.033" height="2.418" filterUnits="userSpaceOnUse" color-interpolation-filters="sRGB"><feFlood flood-opacity="0" result="BackgroundImageFix"/><feBlend in="SourceGraphic" in2="BackgroundImageFix" result="shape"/><feGaussianBlur stdDeviation=".125" result="effect1_foregroundBlur_4002_3730"/></filter><filter id="A" x="9.357" y="22.24" width="15.688" height="8.156" filterUnits="userSpaceOnUse" color-interpolation-filters="sRGB"><feFlood flood-opacity="0" result="BackgroundImageFix"/><feBlend in="SourceGraphic" in2="BackgroundImageFix" result="shape"/><feGaussianBlur stdDeviation=".375" result="effect1_foregroundBlur_4002_3730"/></filter><filter id="O" x="10.688" y="2.125" width="3.938" height="1.28" filterUnits="userSpaceOnUse" color-interpolation-filters="sRGB"><feFlood flood-opacity="0" result="BackgroundImageFix"/><feBlend in="SourceGraphic" in2="BackgroundImageFix" result="shape"/><feGaussianBlur stdDeviation=".125" result="effect1_foregroundBlur_4002_3730"/></filter><filter id="V" x="11.791" y="2.731" width="3.966" height="1.018" filterUnits="userSpaceOnUse" color-interpolation-filters="sRGB"><feFlood flood-opacity="0" result="BackgroundImageFix"/><feBlend in="SourceGraphic" in2="BackgroundImageFix" result="shape"/><feGaussianBlur stdDeviation=".125" result="effect1_foregroundBlur_4002_3730"/></filter><filter id="ah" x="11.925" y="4.752" width="2.922" height="1.004" filterUnits="userSpaceOnUse" color-interpolation-filters="sRGB"><feFlood flood-opacity="0" result="BackgroundImageFix"/><feBlend in="SourceGraphic" in2="BackgroundImageFix" result="shape"/><feGaussianBlur stdDeviation=".125" result="effect1_foregroundBlur_4002_3730"/></filter><filter id="aj" x="11.448" y="3.591" width="3.966" height="1.018" filterUnits="userSpaceOnUse" color-interpolation-filters="sRGB"><feFlood flood-opacity="0" result="BackgroundImageFix"/><feBlend in="SourceGraphic" in2="BackgroundImageFix" result="shape"/><feGaussianBlur stdDeviation=".125" result="effect1_foregroundBlur_4002_3730"/></filter><filter id="aq" x="1.844" y="15.382" width="9.632" height="11.909" filterUnits="userSpaceOnUse" color-interpolation-filters="sRGB"><feFlood flood-opacity="0" result="BackgroundImageFix"/><feBlend in="SourceGraphic" in2="BackgroundImageFix" result="shape"/><feGaussianBlur stdDeviation=".25" result="effect1_foregroundBlur_4002_3730"/></filter><filter id="as" x="7.923" y="22.772" width="4.094" height="4.656" filterUnits="userSpaceOnUse" color-interpolation-filters="sRGB"><feFlood flood-opacity="0" result="BackgroundImageFix"/><feBlend in="SourceGraphic" in2="BackgroundImageFix" result="shape"/><feGaussianBlur stdDeviation=".25" result="effect1_foregroundBlur_4002_3730"/></filter><filter id="au" x="10.326" y="9.216" width="11.391" height="13.458" filterUnits="userSpaceOnUse" color-interpolation-filters="sRGB"><feFlood flood-opacity="0" result="BackgroundImageFix"/><feBlend in="SourceGraphic" in2="BackgroundImageFix" result="shape"/><feColorMatrix in="SourceAlpha" values="0 0 0 0 0 0 0 0 0 0 0 0 0 0 0 0 0 0 127 0" result="hardAlpha"/><feOffset dy=".25"/><feGaussianBlur stdDeviation=".375"/><feComposite in2="hardAlpha" operator="arithmetic" k2="-1" k3="1"/><feColorMatrix values="0 0 0 0 0.819608 0 0 0 0 0.615686 0 0 0 0 0.509804 0 0 0 1 0"/><feBlend in2="shape" result="effect1_innerShadow_4002_3730"/></filter><filter id="aB" x="14.177" y="7.216" width="8.663" height="7.367" filterUnits="userSpaceOnUse" color-interpolation-filters="sRGB"><feFlood flood-opacity="0" result="BackgroundImageFix"/><feBlend in="SourceGraphic" in2="BackgroundImageFix" result="shape"/><feGaussianBlur stdDeviation="1" result="effect1_foregroundBlur_4002_3730"/></filter><filter id="aD" x="14.012" y="14.198" width="3.433" height="4.444" filterUnits="userSpaceOnUse" color-interpolation-filters="sRGB"><feFlood flood-opacity="0" result="BackgroundImageFix"/><feBlend in="SourceGraphic" in2="BackgroundImageFix" result="shape"/><feGaussianBlur stdDeviation=".375" result="effect1_foregroundBlur_4002_3730"/></filter><filter id="aE" x="14.71" y="14.519" width="2.561" height="3.444" filterUnits="userSpaceOnUse" color-interpolation-filters="sRGB"><feFlood flood-opacity="0" result="BackgroundImageFix"/><feBlend in="SourceGraphic" in2="BackgroundImageFix" result="shape"/><feGaussianBlur stdDeviation=".125" result="effect1_foregroundBlur_4002_3730"/></filter><filter id="aL" x="17.289" y="11.425" width="3.247" height="2.017" filterUnits="userSpaceOnUse" color-interpolation-filters="sRGB"><feFlood flood-opacity="0" result="BackgroundImageFix"/><feBlend in="SourceGraphic" in2="BackgroundImageFix" result="shape"/><feColorMatrix in="SourceAlpha" values="0 0 0 0 0 0 0 0 0 0 0 0 0 0 0 0 0 0 127 0" result="hardAlpha"/><feOffset dx=".25" dy="-.4"/><feGaussianBlur stdDeviation=".3"/><feComposite in2="hardAlpha" operator="arithmetic" k2="-1" k3="1"/><feColorMatrix values="0 0 0 0 0.0431373 0 0 0 0 0.0196078 0 0 0 0 0.027451 0 0 0 1 0"/><feBlend in2="shape" result="effect1_innerShadow_4002_3730"/></filter><filter id="aM" x="11.636" y="11.425" width="3.248" height="2.017" filterUnits="userSpaceOnUse" color-interpolation-filters="sRGB"><feFlood flood-opacity="0" result="BackgroundImageFix"/><feBlend in="SourceGraphic" in2="BackgroundImageFix" result="shape"/><feColorMatrix in="SourceAlpha" values="0 0 0 0 0 0 0 0 0 0 0 0 0 0 0 0 0 0 127 0" result="hardAlpha"/><feOffset dx=".25" dy="-.4"/><feGaussianBlur stdDeviation=".3"/><feComposite in2="hardAlpha" operator="arithmetic" k2="-1" k3="1"/><feColorMatrix values="0 0 0 0 0.0431373 0 0 0 0 0.0196078 0 0 0 0 0.027451 0 0 0 1 0"/><feBlend in2="shape" result="effect1_innerShadow_4002_3730"/></filter><filter id="aO" x="17.587" y="14.17" width=".844" height=".745" filterUnits="userSpaceOnUse" color-interpolation-filters="sRGB"><feFlood flood-opacity="0" result="BackgroundImageFix"/><feBlend in="SourceGraphic" in2="BackgroundImageFix" result="shape"/><feGaussianBlur stdDeviation=".05" result="effect1_foregroundBlur_4002_3730"/></filter><filter id="aQ" x="18.519" y="14.263" width=".939" height=".964" filterUnits="userSpaceOnUse" color-interpolation-filters="sRGB"><feFlood flood-opacity="0" result="BackgroundImageFix"/><feBlend in="SourceGraphic" in2="BackgroundImageFix" result="shape"/><feGaussianBlur stdDeviation=".1" result="effect1_foregroundBlur_4002_3730"/></filter><filter id="aT" x="13.641" y="14.193" width="1.044" height="1.103" filterUnits="userSpaceOnUse" color-interpolation-filters="sRGB"><feFlood flood-opacity="0" result="BackgroundImageFix"/><feBlend in="SourceGraphic" in2="BackgroundImageFix" result="shape"/><feGaussianBlur stdDeviation=".1" result="effect1_foregroundBlur_4002_3730"/></filter><filter id="aV" x="12.803" y="14.162" width=".983" height=".754" filterUnits="userSpaceOnUse" color-interpolation-filters="sRGB"><feFlood flood-opacity="0" result="BackgroundImageFix"/><feBlend in="SourceGraphic" in2="BackgroundImageFix" result="shape"/><feGaussianBlur stdDeviation=".05" result="effect1_foregroundBlur_4002_3730"/></filter><filter id="aX" x="17.064" y="11.46" width="3.531" height="1.973" filterUnits="userSpaceOnUse" color-interpolation-filters="sRGB"><feFlood flood-opacity="0" result="BackgroundImageFix"/><feBlend in="SourceGraphic" in2="BackgroundImageFix" result="shape"/><feGaussianBlur stdDeviation=".25" result="effect1_foregroundBlur_4002_3730"/></filter><filter id="aZ" x="11.332" y="11.53" width="3.616" height="2.036" filterUnits="userSpaceOnUse" color-interpolation-filters="sRGB"><feFlood flood-opacity="0" result="BackgroundImageFix"/><feBlend in="SourceGraphic" in2="BackgroundImageFix" result="shape"/><feGaussianBlur stdDeviation=".25" result="effect1_foregroundBlur_4002_3730"/></filter></defs></svg>