<svg width="32" height="32" fill="none" xmlns="http://www.w3.org/2000/svg"><g filter="url(#a)"><path fill-rule="evenodd" clip-rule="evenodd" d="M7.027 21.579a3.969 3.969 0 1 0 0 7.937 3.969 3.969 0 0 0 0-7.937ZM2.06 25.548a4.969 4.969 0 1 1 9.937 0 4.969 4.969 0 0 1-9.937 0Z" fill="url(#b)"/></g><g filter="url(#c)"><circle cx="7.027" cy="25.548" r="4.555" stroke="url(#d)" stroke-width=".3"/></g><path d="m19.158 20.704-1.826-1.988-.424 2.058.924.672 1.326-.742Z" fill="url(#e)"/><path d="m17.853 21.437-.3 1.98c-.067.477-.04.888.364 1.168.102.07.237.03.307-.072l1.963-2.901a.2.2 0 0 0-.053-.278l-.952-.644-1.33.747Z" fill="#413354"/><path d="m17.853 21.437-.3 1.98c-.067.477-.04.888.364 1.168.102.07.237.03.307-.072l1.963-2.901a.2.2 0 0 0-.053-.278l-.952-.644-1.33.747Z" fill="url(#f)"/><path d="m17.853 21.437-.3 1.98c-.067.477-.04.888.364 1.168.102.07.237.03.307-.072l1.963-2.901a.2.2 0 0 0-.053-.278l-.952-.644-1.33.747Z" fill="url(#g)"/><path fill-rule="evenodd" clip-rule="evenodd" d="M12.46 12.171a.5.5 0 0 1 .271.653l-2.54 6.247a.5.5 0 1 1-.924-.381l2.54-6.247a.5.5 0 0 1 .653-.272Z" fill="url(#h)"/><path fill-rule="evenodd" clip-rule="evenodd" d="M12.46 12.171a.5.5 0 0 1 .271.653l-2.54 6.247a.5.5 0 1 1-.924-.381l2.54-6.247a.5.5 0 0 1 .653-.272Z" fill="url(#i)"/><path fill-rule="evenodd" clip-rule="evenodd" d="M10.526 16.906a.55.55 0 0 1 .3.718l-3.29 8a.55.55 0 0 1-1.017-.418l3.289-8a.55.55 0 0 1 .718-.3Z" fill="url(#j)"/><path fill-rule="evenodd" clip-rule="evenodd" d="M9.602 19.133c.101-.222.43-.465.672-.281l6.25 4.75a.55.55 0 1 1-.665.875l-6.081-4.61c-.242-.183-.305-.452-.176-.734Z" fill="url(#k)"/><path fill-rule="evenodd" clip-rule="evenodd" d="M9.602 19.133c.101-.222.43-.465.672-.281l6.25 4.75a.55.55 0 1 1-.665.875l-6.081-4.61c-.242-.183-.305-.452-.176-.734Z" fill="url(#l)"/><g filter="url(#m)" fill-rule="evenodd" clip-rule="evenodd"><path d="M24.973 21.579a3.969 3.969 0 1 0 0 7.937 3.969 3.969 0 0 0 0-7.937Zm-4.97 3.969a4.969 4.969 0 1 1 9.938 0 4.969 4.969 0 0 1-9.937 0Z" fill="url(#n)"/><path d="M24.973 21.579a3.969 3.969 0 1 0 0 7.937 3.969 3.969 0 0 0 0-7.937Zm-4.97 3.969a4.969 4.969 0 1 1 9.938 0 4.969 4.969 0 0 1-9.937 0Z" fill="url(#o)"/></g><path fill-rule="evenodd" clip-rule="evenodd" d="M19.71 17.192a.55.55 0 0 0-.171.758l4.718 7.477a.55.55 0 1 0 .93-.587l-4.718-7.477a.55.55 0 0 0-.759-.171Z" fill="url(#p)"/><path fill-rule="evenodd" clip-rule="evenodd" d="M20.014 17.112a.55.55 0 0 1 .417.657l-1.578 7.078a.55.55 0 1 1-1.073-.24l1.578-7.078a.55.55 0 0 1 .656-.417Z" fill="url(#q)"/><path fill-rule="evenodd" clip-rule="evenodd" d="M20.014 17.112a.55.55 0 0 1 .417.657l-1.578 7.078a.55.55 0 1 1-1.073-.24l1.578-7.078a.55.55 0 0 1 .656-.417Z" fill="url(#r)"/><path fill-rule="evenodd" clip-rule="evenodd" d="M20.014 17.112a.55.55 0 0 1 .417.657l-1.578 7.078a.55.55 0 1 1-1.073-.24l1.578-7.078a.55.55 0 0 1 .656-.417Z" fill="url(#s)"/><path d="m13.97 16.017 1.34-.836 1.038 1.039-.765 3.53a199.32 199.32 0 0 0-1.688-1.241c-.148-.102-.66-.543-.653-1.239.008-.71.477-1.071.727-1.253Z" fill="url(#t)"/><path d="m13.97 16.017 1.34-.836 1.038 1.039-.765 3.53a199.32 199.32 0 0 0-1.688-1.241c-.148-.102-.66-.543-.653-1.239.008-.71.477-1.071.727-1.253Z" fill="url(#u)"/><path d="m13.97 16.017 1.34-.836 1.038 1.039-.765 3.53a199.32 199.32 0 0 0-1.688-1.241c-.148-.102-.66-.543-.653-1.239.008-.71.477-1.071.727-1.253Z" fill="url(#v)"/><path d="m15.25 15.216 2.64-1.61 1.208.63-2.727 2.476c-.269-.232-.84-1.051-1.121-1.496Z" fill="url(#w)"/><path d="m15.25 15.216 2.64-1.61 1.208.63-2.727 2.476c-.269-.232-.84-1.051-1.121-1.496Z" fill="url(#x)"/><g filter="url(#y)"><path d="M18.884 27.371a1.863 1.863 0 1 1 .018-3.643l5.899.906a.927.927 0 0 1-.086 1.837l-5.83.9Z" fill="url(#z)"/><path d="M18.884 27.371a1.863 1.863 0 1 1 .018-3.643l5.899.906a.927.927 0 0 1-.086 1.837l-5.83.9Z" fill="url(#A)"/></g><circle cx="18.344" cy="25.548" r="1.027" fill="url(#B)"/><circle cx="18.344" cy="25.548" r="1.027" fill="url(#C)"/><g filter="url(#D)"><path d="m16.07 23.797-1.809.861c-.431.212-.757.465-.762.956-.001.124.108.214.231.214h3.504a.2.2 0 0 0 .2-.2v-1.15l-1.364-.681Z" fill="#5B4E85"/><path d="m16.07 23.797-1.809.861c-.431.212-.757.465-.762.956-.001.124.108.214.231.214h3.504a.2.2 0 0 0 .2-.2v-1.15l-1.364-.681Z" fill="url(#E)"/><path d="m16.07 23.797-1.809.861c-.431.212-.757.465-.762.956-.001.124.108.214.231.214h3.504a.2.2 0 0 0 .2-.2v-1.15l-1.364-.681Z" fill="url(#F)"/></g><path transform="rotate(-55.397 13.51 8.484)" fill="url(#G)" d="M13.509 8.484h2.154v2.668h-2.154z"/><g filter="url(#H)"><path d="m16.051 16.571.553-.514 2.04 1.917c-.273.153-.887.463-1.03.582-.11.09-.11.234-.11.328l-.047 5.593-1.406-.671c-.138-.795-.42-2.709-.769-4.301-.395-1.801.376-2.593.77-2.934Z" fill="url(#I)"/><path d="m16.051 16.571.553-.514 2.04 1.917c-.273.153-.887.463-1.03.582-.11.09-.11.234-.11.328l-.047 5.593-1.406-.671c-.138-.795-.42-2.709-.769-4.301-.395-1.801.376-2.593.77-2.934Z" fill="url(#J)"/></g><g filter="url(#K)"><path d="m18.335 14.349-.636-.7 4.031-2.476c1.422 1.867 1.5 3.21.836 4.273-.664 1.063-1.582 2.05-2.617 2.946-.271.234-.802.361-1.36-.18-.706-.688-1.577-1.578-2.038-2.113l1.777-1.609a.1.1 0 0 0 .007-.141Z" fill="url(#L)"/><path d="m18.335 14.349-.636-.7 4.031-2.476c1.422 1.867 1.5 3.21.836 4.273-.664 1.063-1.582 2.05-2.617 2.946-.271.234-.802.361-1.36-.18-.706-.688-1.577-1.578-2.038-2.113l1.777-1.609a.1.1 0 0 0 .007-.141Z" fill="url(#M)"/></g><g filter="url(#N)"><path d="M16.066 11.727c.665.625 1.364 1.586 1.672 1.969l4.243-2.18c-.586-.976-2.07-2.531-3.54-3.36-1.718-.812-2.672 0-3.305 1.071-.413.852.259 1.781.93 2.5Z" fill="url(#O)"/></g><g filter="url(#P)"><path d="M12.91 12.18a.575.575 0 0 0-.575-.575h-3.05a2.13 2.13 0 0 0 0 4.26h.183a.575.575 0 1 0 0-1.15h-.183a.98.98 0 1 1 0-1.96h3.05a.575.575 0 0 0 .575-.575Z" fill="#C0B9BC"/><path d="M12.91 12.18a.575.575 0 0 0-.575-.575h-3.05a2.13 2.13 0 0 0 0 4.26h.183a.575.575 0 1 0 0-1.15h-.183a.98.98 0 1 1 0-1.96h3.05a.575.575 0 0 0 .575-.575Z" fill="url(#Q)"/></g><g filter="url(#R)"><path fill-rule="evenodd" clip-rule="evenodd" d="M8.305 13.794v-.022a.572.572 0 1 0-1.145 0v.022h-.004a2.13 2.13 0 0 0 2.13 2.07h.182a.575.575 0 1 0 0-1.15h-.183a.98.98 0 0 1-.978-.92h-.002Z" fill="#2B174F"/></g><g filter="url(#S)" fill-rule="evenodd" clip-rule="evenodd"><path d="M17.097 8.845c.479.327.601.98.274 1.46-.783 1.144-3.152 4.302-7.933 4.787-.577.059-1.594-.32-1.653-.896-.058-.577.864-1.135 1.441-1.193 3.844-.39 5.741-2.904 6.411-3.884a1.05 1.05 0 0 1 1.46-.274Z" fill="#FFC435"/><path d="M17.097 8.845c.479.327.601.98.274 1.46-.783 1.144-3.152 4.302-7.933 4.787-.577.059-1.594-.32-1.653-.896-.058-.577.864-1.135 1.441-1.193 3.844-.39 5.741-2.904 6.411-3.884a1.05 1.05 0 0 1 1.46-.274Z" fill="url(#T)"/></g><path fill-rule="evenodd" clip-rule="evenodd" d="M9.291 13.493a.35.35 0 0 1-.35.35c-.173 0-.435.042-.662.15-.226.106-.37.252-.415.438a.35.35 0 1 1-.68-.166c.113-.466.461-.748.796-.906.334-.157.7-.216.961-.216a.35.35 0 0 1 .35.35Z" fill="url(#U)"/><g filter="url(#V)"><path d="m20.96 13.466-.523-.863 1.125-.656c.97 1.312 1.344 2.296.735 2.875-.488.462-2.87 1.724-4 2.297l2.503-2.415a1 1 0 0 0 .16-1.238Z" fill="url(#W)"/></g><path fill-rule="evenodd" clip-rule="evenodd" d="M8.806 14.02a.35.35 0 0 1-.227.44.596.596 0 0 0-.405.456.35.35 0 0 1-.684-.151c.05-.224.235-.768.876-.973a.35.35 0 0 1 .44.227Z" fill="url(#X)"/><path fill-rule="evenodd" clip-rule="evenodd" d="M9.043 14.278a.329.329 0 0 1 0 .403c-.152.125-.343.389-.372.593a.35.35 0 1 1-.693-.101 1.38 1.38 0 0 1 .155-.429c.08-.147.196-.312.353-.443.15-.123.434-.172.557-.023Z" fill="url(#Y)"/><g filter="url(#Z)"><circle cx="9.195" cy="13.995" r=".885" fill="url(#aa)"/></g><path d="M10.765 8.909c-.197-.14-.198-.298-.128-.647a.81.81 0 0 0-.054-.529l.787.99c-.11.218-.408.326-.605.186Z" fill="url(#ab)"/><path d="M11.917 9.673c-.758-.743-1.376-1.927-1.624-2.39l3.437-2.015 1.8 1.68a5.15 5.15 0 0 1-.944 1.869c-.711.865-1.675 1.83-2.67.856Z" fill="url(#ac)"/><path d="M11.917 9.673c-.758-.743-1.376-1.927-1.624-2.39l3.437-2.015 1.8 1.68a5.15 5.15 0 0 1-.944 1.869c-.711.865-1.675 1.83-2.67.856Z" fill="url(#ad)"/><path d="M11.917 9.673c-.758-.743-1.376-1.927-1.624-2.39l3.437-2.015 1.8 1.68a5.15 5.15 0 0 1-.944 1.869c-.711.865-1.675 1.83-2.67.856Z" fill="url(#ae)"/><path fill-rule="evenodd" clip-rule="evenodd" d="M11.817 9.15a.115.115 0 0 1 .042-.159c.102-.058.237-.204.314-.515a.116.116 0 1 1 .224.055c-.087.355-.253.563-.422.66a.116.116 0 0 1-.158-.042Z" fill="#87004D"/><path d="M10.97 7.262c-.072.224.06.451.13.566l.882-.505c-.51-.592-.913-.365-1.011-.061Z" fill="#fff"/><path d="M11.595 7.544a1.032 1.032 0 0 0-.028-.048c-.154-.248-.387-.381-.52-.298-.134.083-.118.35.036.599l.02.03.492-.283Z" fill="url(#af)"/><path d="M11.406 7.653a.532.532 0 0 0-.046-.092c-.085-.138-.214-.213-.286-.168-.072.045-.062.193.024.33a.537.537 0 0 0 .055.075l.253-.145Z" fill="#414141"/><circle cx="11.082" cy="7.371" r=".083" transform="rotate(-63.168 11.082 7.37)" fill="#DFDFDF"/><g filter="url(#ag)"><path d="m14.242 7.16-1.156-1.218 2.075-1.104c.19.332.638 1.352.602 1.633-.049.387-.212.91-.66 1.006-.36.078-.748-.185-.861-.318Z" fill="url(#ah)"/></g><circle cx="13.418" cy="6.37" r=".646" transform="rotate(-63.168 13.418 6.37)" fill="url(#ai)"/><path fill-rule="evenodd" clip-rule="evenodd" d="M12.68 5.653a.289.289 0 0 1 .379.15l1.43 3.303a.289.289 0 0 1-.53.23l-1.43-3.304a.289.289 0 0 1 .15-.38Z" fill="#4D3771"/><path fill-rule="evenodd" clip-rule="evenodd" d="M12.68 5.653a.289.289 0 0 1 .379.15l1.43 3.303a.289.289 0 0 1-.53.23l-1.43-3.304a.289.289 0 0 1 .15-.38Z" fill="url(#aj)"/><path fill-rule="evenodd" clip-rule="evenodd" d="M12.68 5.653a.289.289 0 0 1 .379.15l1.43 3.303a.289.289 0 0 1-.53.23l-1.43-3.304a.289.289 0 0 1 .15-.38Z" fill="url(#ak)"/><path fill-rule="evenodd" clip-rule="evenodd" d="M12.68 5.653a.289.289 0 0 1 .379.15l1.43 3.303a.289.289 0 0 1-.53.23l-1.43-3.304a.289.289 0 0 1 .15-.38Z" fill="url(#al)"/><g filter="url(#am)"><path d="M15.022 5.03 10.35 7.365a.257.257 0 0 1-.333-.08 5.536 5.536 0 0 1-.552-1.127c-.514-1.433.489-2.224.62-2.347.191-.176.716-.614 1.838-1.013 1.317-.467 2.144.123 2.545.67.252.344.526.86.685 1.206a.271.271 0 0 1-.131.356Z" fill="url(#an)"/></g><g filter="url(#ao)"><path d="M11.28 5.725a.349.349 0 0 1 .163-.465l1.295-.62a.349.349 0 1 1 .3.63l-1.294.62a.349.349 0 0 1-.465-.165Z" fill="url(#ap)"/></g><defs><radialGradient id="b" cx="0" cy="0" r="1" gradientUnits="userSpaceOnUse" gradientTransform="rotate(126.943 -.265 13.38) scale(9.77501 9.43553)"><stop stop-color="#32295B"/><stop offset="1" stop-color="#3C2150"/></radialGradient><radialGradient id="g" cx="0" cy="0" r="1" gradientUnits="userSpaceOnUse" gradientTransform="matrix(-1.53127 2.45312 -.44454 -.27749 20.3 21.524)"><stop stop-color="#5D5C7E"/><stop offset="1" stop-color="#5D5C7E" stop-opacity="0"/></radialGradient><radialGradient id="i" cx="0" cy="0" r="1" gradientUnits="userSpaceOnUse" gradientTransform="rotate(-68.025 18.009 .742) scale(2.88119 .32513)"><stop stop-color="#BAA3B9"/><stop offset="1" stop-color="#BAA3B9" stop-opacity="0"/></radialGradient><radialGradient id="k" cx="0" cy="0" r="1" gradientUnits="userSpaceOnUse" gradientTransform="matrix(6.71875 4.82813 -1.31599 1.83131 10.176 19.087)"><stop stop-color="#CE3D5E"/><stop offset="1" stop-color="#932145"/></radialGradient><radialGradient id="n" cx="0" cy="0" r="1" gradientUnits="userSpaceOnUse" gradientTransform="rotate(134.451 9.892 17.354) scale(9.80603 9.46548)"><stop offset=".427" stop-color="#373C67"/><stop offset="1" stop-color="#38144F"/></radialGradient><radialGradient id="r" cx="0" cy="0" r="1" gradientUnits="userSpaceOnUse" gradientTransform="rotate(103.707 2.99 16.895) scale(4.61583 .44083)"><stop stop-color="#E44354"/><stop offset="1" stop-color="#E44354" stop-opacity="0"/></radialGradient><radialGradient id="s" cx="0" cy="0" r="1" gradientUnits="userSpaceOnUse" gradientTransform="matrix(-.03125 -1.0625 1.65481 -.04867 18.457 24.321)"><stop stop-color="#AC2735"/><stop offset="1" stop-color="#AC2735" stop-opacity="0"/></radialGradient><radialGradient id="t" cx="0" cy="0" r="1" gradientUnits="userSpaceOnUse" gradientTransform="rotate(11.33 -80.69 75.41) scale(2.22699 2.81885)"><stop offset=".114" stop-color="#DF9E37"/><stop offset="1" stop-color="#D68B27"/></radialGradient><radialGradient id="u" cx="0" cy="0" r="1" gradientUnits="userSpaceOnUse" gradientTransform="matrix(1.21875 .45313 -.35 .94138 15.738 17.727)"><stop offset=".346" stop-color="#CA7E1E"/><stop offset="1" stop-color="#D88C28" stop-opacity="0"/></radialGradient><radialGradient id="w" cx="0" cy="0" r="1" gradientUnits="userSpaceOnUse" gradientTransform="rotate(143.881 6.878 10.217) scale(2.86275 1.23215)"><stop offset=".255" stop-color="#705050"/><stop offset="1" stop-color="#7B5C60"/></radialGradient><radialGradient id="A" cx="0" cy="0" r="1" gradientUnits="userSpaceOnUse" gradientTransform="matrix(-.86719 0 0 -.96875 25.574 25.384)"><stop stop-color="#FFD359"/><stop offset="1" stop-color="#FFD359" stop-opacity="0"/></radialGradient><radialGradient id="B" cx="0" cy="0" r="1" gradientUnits="userSpaceOnUse" gradientTransform="matrix(1.5625 -.65625 .66797 1.5904 17.676 25.743)"><stop offset=".47" stop-color="#D8CFE2"/><stop offset="1" stop-color="#C5BFCB"/></radialGradient><radialGradient id="C" cx="0" cy="0" r="1" gradientUnits="userSpaceOnUse" gradientTransform="rotate(151.189 6.193 15.062) scale(1.78324)"><stop offset=".632" stop-color="#E2DFE5" stop-opacity="0"/><stop offset="1" stop-color="#E2DFE5"/></radialGradient><radialGradient id="F" cx="0" cy="0" r="1" gradientUnits="userSpaceOnUse" gradientTransform="matrix(-1.1094 -2 6.41983 -3.56106 16.254 26.087)"><stop offset=".301" stop-color="#5C4F86" stop-opacity="0"/><stop offset=".943" stop-color="#493B63"/></radialGradient><radialGradient id="I" cx="0" cy="0" r="1" gradientUnits="userSpaceOnUse" gradientTransform="matrix(-.75 -8.78125 2.52881 -.21598 17.895 24.477)"><stop offset=".122" stop-color="#FFCE3C"/><stop offset="1" stop-color="#EDA82B"/></radialGradient><radialGradient id="J" cx="0" cy="0" r="1" gradientUnits="userSpaceOnUse" gradientTransform="matrix(-1.6875 .0625 -.11168 -3.01554 18.8 18.196)"><stop offset=".284" stop-color="#C57C28"/><stop offset="1" stop-color="#E59E31" stop-opacity="0"/></radialGradient><radialGradient id="L" cx="0" cy="0" r="1" gradientUnits="userSpaceOnUse" gradientTransform="matrix(5.125 -4.9297 2.6132 2.71672 16.77 16.102)"><stop offset=".148" stop-color="#927876"/><stop offset="1" stop-color="#A3A1A2"/></radialGradient><radialGradient id="M" cx="0" cy="0" r="1" gradientUnits="userSpaceOnUse" gradientTransform="matrix(2.59375 -.09375 .01804 .49916 18.191 14.384)"><stop offset=".22" stop-color="#8C7675"/><stop offset="1" stop-color="#9C8F8E" stop-opacity="0"/></radialGradient><radialGradient id="O" cx="0" cy="0" r="1" gradientUnits="userSpaceOnUse" gradientTransform="matrix(-3.49999 -4.06251 1.70908 -1.47243 21.082 12.071)"><stop stop-color="#54A7F5"/><stop offset="1" stop-color="#3B79D4"/></radialGradient><radialGradient id="Q" cx="0" cy="0" r="1" gradientUnits="userSpaceOnUse" gradientTransform="matrix(3.25232 0 0 1.29925 10.033 13.508)"><stop offset=".254" stop-color="#90757E"/><stop offset="1" stop-color="#B7A6A6" stop-opacity="0"/></radialGradient><radialGradient id="T" cx="0" cy="0" r="1" gradientUnits="userSpaceOnUse" gradientTransform="rotate(158.559 7.895 6.322) scale(1.11134 1.23837)"><stop stop-color="#FFDA43"/><stop offset="1" stop-color="#FFDA43" stop-opacity="0"/></radialGradient><radialGradient id="W" cx="0" cy="0" r="1" gradientUnits="userSpaceOnUse" gradientTransform="matrix(5.5 -1.4375 2.00475 7.67032 17.332 15.259)"><stop offset=".625" stop-color="#AFA6A9" stop-opacity="0"/><stop offset=".905" stop-color="#AFA6A9"/></radialGradient><radialGradient id="Y" cx="0" cy="0" r="1" gradientUnits="userSpaceOnUse" gradientTransform="rotate(-56.677 18.413 .24) scale(1.56434 1.28222)"><stop offset=".512" stop-color="#D48D33"/><stop offset="1" stop-color="#F2B135"/></radialGradient><radialGradient id="aa" cx="0" cy="0" r="1" gradientUnits="userSpaceOnUse" gradientTransform="rotate(48.659 -10.45 16.312) scale(1.90423)"><stop stop-color="#FFC435"/><stop offset="1" stop-color="#FFC435" stop-opacity="0"/></radialGradient><radialGradient id="ab" cx="0" cy="0" r="1" gradientUnits="userSpaceOnUse" gradientTransform="matrix(.6727 .3403 -.42808 .84621 10.72 8.339)"><stop offset=".515" stop-color="#EBAB2A"/><stop offset="1" stop-color="#EAA630"/></radialGradient><radialGradient id="ac" cx="0" cy="0" r="1" gradientUnits="userSpaceOnUse" gradientTransform="matrix(3.08974 -1.0677 1.10738 3.20456 11.483 8.35)"><stop offset=".164" stop-color="#F5B63D"/><stop offset="1" stop-color="#EAA131"/></radialGradient><radialGradient id="ad" cx="0" cy="0" r="1" gradientUnits="userSpaceOnUse" gradientTransform="matrix(1.05059 1.56342 -1.26157 .84775 13.03 5.652)"><stop stop-color="#CA7D27"/><stop offset="1" stop-color="#CA7D27" stop-opacity="0"/></radialGradient><radialGradient id="ae" cx="0" cy="0" r="1" gradientUnits="userSpaceOnUse" gradientTransform="rotate(77.13 1.662 11.376) scale(3.13692 4.07524)"><stop offset=".623" stop-color="#EDA029" stop-opacity="0"/><stop offset=".946" stop-color="#C27744"/></radialGradient><radialGradient id="ah" cx="0" cy="0" r="1" gradientUnits="userSpaceOnUse" gradientTransform="matrix(.79203 1.59452 -1.04475 .51895 14.667 5.256)"><stop stop-color="#FFB32B"/><stop offset="1" stop-color="#EA8E18"/></radialGradient><radialGradient id="ai" cx="0" cy="0" r="1" gradientUnits="userSpaceOnUse" gradientTransform="matrix(-.52485 -.43409 .4909 -.59355 13.893 6.704)"><stop offset=".272" stop-color="#FEC940"/><stop offset="1" stop-color="#ECA92D"/></radialGradient><radialGradient id="al" cx="0" cy="0" r="1" gradientUnits="userSpaceOnUse" gradientTransform="matrix(.18813 -.0819 .48004 1.10275 13.35 6.978)"><stop stop-color="#564975"/><stop offset="1" stop-color="#4D3A6E" stop-opacity="0"/></radialGradient><radialGradient id="an" cx="0" cy="0" r="1" gradientUnits="userSpaceOnUse" gradientTransform="rotate(66.525 3.052 11.006) scale(2.34661 2.75811)"><stop offset=".045" stop-color="#4FBDFF"/><stop offset=".919" stop-color="#52ABE4"/></radialGradient><radialGradient id="ap" cx="0" cy="0" r="1" gradientUnits="userSpaceOnUse" gradientTransform="matrix(-.27574 -.615 1.57712 -.7071 12.384 5.569)"><stop offset=".218" stop-color="#4B89D0"/><stop offset="1" stop-color="#337BCD"/></radialGradient><linearGradient id="d" x1="9.238" y1="21.884" x2="3.207" y2="28.915" gradientUnits="userSpaceOnUse"><stop stop-color="#302A5B"/><stop offset="1" stop-color="#302A5B" stop-opacity="0"/></linearGradient><linearGradient id="e" x1="17.707" y1="21.087" x2="18.676" y2="20.081" gradientUnits="userSpaceOnUse"><stop stop-color="#BF7A28"/><stop offset="1" stop-color="#D7AA3D"/></linearGradient><linearGradient id="f" x1="22.223" y1="22.655" x2="17.629" y2="22.196" gradientUnits="userSpaceOnUse"><stop offset=".891" stop-color="#615F76" stop-opacity="0"/><stop offset="1" stop-color="#615F76"/></linearGradient><linearGradient id="h" x1="11.504" y1="15.477" x2="10.629" y2="15.196" gradientUnits="userSpaceOnUse"><stop stop-color="#BFA8C7"/><stop offset="1" stop-color="#908590"/></linearGradient><linearGradient id="j" x1="9.738" y1="20.43" x2="8.457" y2="19.946" gradientUnits="userSpaceOnUse"><stop offset=".146" stop-color="#D4385B"/><stop offset="1" stop-color="#973C50"/></linearGradient><linearGradient id="l" x1="12.957" y1="22.477" x2="13.348" y2="21.977" gradientUnits="userSpaceOnUse"><stop stop-color="#96275E"/><stop offset="1" stop-color="#96275E" stop-opacity="0"/><stop offset="1" stop-color="#9C2649" stop-opacity="0"/></linearGradient><linearGradient id="o" x1="20.004" y1="27.988" x2="27.759" y2="25.548" gradientUnits="userSpaceOnUse"><stop stop-color="#352542"/><stop offset="1" stop-color="#352542" stop-opacity="0"/></linearGradient><linearGradient id="p" x1="23.785" y1="22.415" x2="22.723" y2="23.165" gradientUnits="userSpaceOnUse"><stop stop-color="#FD5A60"/><stop offset="1" stop-color="#AF253C"/></linearGradient><linearGradient id="q" x1="19.582" y1="21.188" x2="18.566" y2="21.04" gradientUnits="userSpaceOnUse"><stop stop-color="#E5435F"/><stop offset="1" stop-color="#A62F2F"/></linearGradient><linearGradient id="v" x1="14.52" y1="15.446" x2="14.941" y2="16.134" gradientUnits="userSpaceOnUse"><stop stop-color="#C79639"/><stop offset="1" stop-color="#C79639" stop-opacity="0"/></linearGradient><linearGradient id="x" x1="16.59" y1="14.313" x2="16.957" y2="14.845" gradientUnits="userSpaceOnUse"><stop stop-color="#796867"/><stop offset="1" stop-color="#7C5C60" stop-opacity="0"/></linearGradient><linearGradient id="z" x1="25.301" y1="25.548" x2="16.637" y2="25.548" gradientUnits="userSpaceOnUse"><stop stop-color="#F7B14E"/><stop offset="1" stop-color="#E8774D"/></linearGradient><linearGradient id="E" x1="17.434" y1="25.415" x2="16.676" y2="25.415" gradientUnits="userSpaceOnUse"><stop stop-color="#605C92"/><stop offset="1" stop-color="#605C92" stop-opacity="0"/></linearGradient><linearGradient id="G" x1="15.688" y1="9.841" x2="13.356" y2="9.57" gradientUnits="userSpaceOnUse"><stop stop-color="#FFD03C"/><stop offset="1" stop-color="#B3642E"/></linearGradient><linearGradient id="U" x1="7.834" y1="14.226" x2="8.765" y2="13.253" gradientUnits="userSpaceOnUse"><stop stop-color="#D38E33"/><stop offset="1" stop-color="#FFC435"/></linearGradient><linearGradient id="X" x1="7.895" y1="14.758" x2="8.98" y2="13.977" gradientUnits="userSpaceOnUse"><stop stop-color="#D38E33"/><stop offset="1" stop-color="#F7B935"/></linearGradient><linearGradient id="af" x1="11.395" y1="7.664" x2="11.072" y2="7.182" gradientUnits="userSpaceOnUse"><stop stop-color="#6F443D"/><stop offset="1" stop-color="#5A332D"/></linearGradient><linearGradient id="aj" x1="13.711" y1="7.171" x2="13.292" y2="7.374" gradientUnits="userSpaceOnUse"><stop stop-color="#37234C"/><stop offset="1" stop-color="#37234C" stop-opacity="0"/></linearGradient><linearGradient id="ak" x1="13.523" y1="8.957" x2="14.049" y2="8.657" gradientUnits="userSpaceOnUse"><stop offset=".324" stop-color="#72687C"/><stop offset="1" stop-color="#72687C" stop-opacity="0"/></linearGradient><filter id="a" x="2.059" y="20.579" width="9.938" height="9.938" filterUnits="userSpaceOnUse" color-interpolation-filters="sRGB"><feFlood flood-opacity="0" result="BackgroundImageFix"/><feBlend in="SourceGraphic" in2="BackgroundImageFix" result="shape"/><feColorMatrix in="SourceAlpha" values="0 0 0 0 0 0 0 0 0 0 0 0 0 0 0 0 0 0 127 0" result="hardAlpha"/><feOffset/><feGaussianBlur stdDeviation=".25"/><feComposite in2="hardAlpha" operator="arithmetic" k2="-1" k3="1"/><feColorMatrix values="0 0 0 0 0.227451 0 0 0 0 0.156863 0 0 0 0 0.27451 0 0 0 1 0"/><feBlend in2="shape" result="effect1_innerShadow_3987_23407"/></filter><filter id="c" x="1.823" y="20.343" width="10.409" height="10.409" filterUnits="userSpaceOnUse" color-interpolation-filters="sRGB"><feFlood flood-opacity="0" result="BackgroundImageFix"/><feBlend in="SourceGraphic" in2="BackgroundImageFix" result="shape"/><feGaussianBlur stdDeviation=".25" result="effect1_foregroundBlur_3987_23407"/></filter><filter id="m" x="20.004" y="20.479" width="10.037" height="10.037" filterUnits="userSpaceOnUse" color-interpolation-filters="sRGB"><feFlood flood-opacity="0" result="BackgroundImageFix"/><feBlend in="SourceGraphic" in2="BackgroundImageFix" result="shape"/><feColorMatrix in="SourceAlpha" values="0 0 0 0 0 0 0 0 0 0 0 0 0 0 0 0 0 0 127 0" result="hardAlpha"/><feOffset dx=".1" dy="-.1"/><feGaussianBlur stdDeviation=".2"/><feComposite in2="hardAlpha" operator="arithmetic" k2="-1" k3="1"/><feColorMatrix values="0 0 0 0 0.152941 0 0 0 0 0.0862745 0 0 0 0 0.164706 0 0 0 1 0"/><feBlend in2="shape" result="effect1_innerShadow_3987_23407"/></filter><filter id="y" x="16.637" y="23.434" width="9.188" height="4.077" filterUnits="userSpaceOnUse" color-interpolation-filters="sRGB"><feFlood flood-opacity="0" result="BackgroundImageFix"/><feBlend in="SourceGraphic" in2="BackgroundImageFix" result="shape"/><feColorMatrix in="SourceAlpha" values="0 0 0 0 0 0 0 0 0 0 0 0 0 0 0 0 0 0 127 0" result="hardAlpha"/><feOffset dx=".25" dy="-.25"/><feGaussianBlur stdDeviation=".25"/><feComposite in2="hardAlpha" operator="arithmetic" k2="-1" k3="1"/><feColorMatrix values="0 0 0 0 0.701961 0 0 0 0 0.341176 0 0 0 0 0.254902 0 0 0 1 0"/><feBlend in2="shape" result="effect1_innerShadow_3987_23407"/><feColorMatrix in="SourceAlpha" values="0 0 0 0 0 0 0 0 0 0 0 0 0 0 0 0 0 0 127 0" result="hardAlpha"/><feOffset dx=".25" dy=".1"/><feGaussianBlur stdDeviation=".25"/><feComposite in2="hardAlpha" operator="arithmetic" k2="-1" k3="1"/><feColorMatrix values="0 0 0 0 0.894118 0 0 0 0 0.490196 0 0 0 0 0.196078 0 0 0 1 0"/><feBlend in2="effect1_innerShadow_3987_23407" result="effect2_innerShadow_3987_23407"/></filter><filter id="D" x="13.499" y="23.647" width="4.034" height="2.181" filterUnits="userSpaceOnUse" color-interpolation-filters="sRGB"><feFlood flood-opacity="0" result="BackgroundImageFix"/><feBlend in="SourceGraphic" in2="BackgroundImageFix" result="shape"/><feColorMatrix in="SourceAlpha" values="0 0 0 0 0 0 0 0 0 0 0 0 0 0 0 0 0 0 127 0" result="hardAlpha"/><feOffset dx=".1" dy="-.15"/><feGaussianBlur stdDeviation=".125"/><feComposite in2="hardAlpha" operator="arithmetic" k2="-1" k3="1"/><feColorMatrix values="0 0 0 0 0.27451 0 0 0 0 0.188235 0 0 0 0 0.52549 0 0 0 1 0"/><feBlend in2="shape" result="effect1_innerShadow_3987_23407"/></filter><filter id="H" x="15.172" y="16.057" width="3.572" height="8.62" filterUnits="userSpaceOnUse" color-interpolation-filters="sRGB"><feFlood flood-opacity="0" result="BackgroundImageFix"/><feBlend in="SourceGraphic" in2="BackgroundImageFix" result="shape"/><feColorMatrix in="SourceAlpha" values="0 0 0 0 0 0 0 0 0 0 0 0 0 0 0 0 0 0 127 0" result="hardAlpha"/><feOffset dx=".1" dy=".2"/><feGaussianBlur stdDeviation=".2"/><feComposite in2="hardAlpha" operator="arithmetic" k2="-1" k3="1"/><feColorMatrix values="0 0 0 0 0.858824 0 0 0 0 0.611765 0 0 0 0 0.211765 0 0 0 1 0"/><feBlend in2="shape" result="effect1_innerShadow_3987_23407"/></filter><filter id="K" x="16.551" y="10.923" width="6.668" height="7.67" filterUnits="userSpaceOnUse" color-interpolation-filters="sRGB"><feFlood flood-opacity="0" result="BackgroundImageFix"/><feBlend in="SourceGraphic" in2="BackgroundImageFix" result="shape"/><feColorMatrix in="SourceAlpha" values="0 0 0 0 0 0 0 0 0 0 0 0 0 0 0 0 0 0 127 0" result="hardAlpha"/><feOffset dx=".25" dy="-.25"/><feGaussianBlur stdDeviation=".625"/><feComposite in2="hardAlpha" operator="arithmetic" k2="-1" k3="1"/><feColorMatrix values="0 0 0 0 0.521569 0 0 0 0 0.372549 0 0 0 0 0.533333 0 0 0 1 0"/><feBlend in2="shape" result="effect1_innerShadow_3987_23407"/></filter><filter id="N" x="15.009" y="7.827" width="7.971" height="5.869" filterUnits="userSpaceOnUse" color-interpolation-filters="sRGB"><feFlood flood-opacity="0" result="BackgroundImageFix"/><feBlend in="SourceGraphic" in2="BackgroundImageFix" result="shape"/><feColorMatrix in="SourceAlpha" values="0 0 0 0 0 0 0 0 0 0 0 0 0 0 0 0 0 0 127 0" result="hardAlpha"/><feOffset dx="1"/><feGaussianBlur stdDeviation=".75"/><feComposite in2="hardAlpha" operator="arithmetic" k2="-1" k3="1"/><feColorMatrix values="0 0 0 0 0.282353 0 0 0 0 0.411765 0 0 0 0 0.717647 0 0 0 1 0"/><feBlend in2="shape" result="effect1_innerShadow_3987_23407"/></filter><filter id="P" x="6.906" y="11.605" width="6.005" height="4.259" filterUnits="userSpaceOnUse" color-interpolation-filters="sRGB"><feFlood flood-opacity="0" result="BackgroundImageFix"/><feBlend in="SourceGraphic" in2="BackgroundImageFix" result="shape"/><feColorMatrix in="SourceAlpha" values="0 0 0 0 0 0 0 0 0 0 0 0 0 0 0 0 0 0 127 0" result="hardAlpha"/><feOffset dx="-.25"/><feGaussianBlur stdDeviation=".5"/><feComposite in2="hardAlpha" operator="arithmetic" k2="-1" k3="1"/><feColorMatrix values="0 0 0 0 0.631373 0 0 0 0 0.501961 0 0 0 0 0.466667 0 0 0 1 0"/><feBlend in2="shape" result="effect1_innerShadow_3987_23407"/></filter><filter id="R" x="6.906" y="13.2" width="3.137" height="2.915" filterUnits="userSpaceOnUse" color-interpolation-filters="sRGB"><feFlood flood-opacity="0" result="BackgroundImageFix"/><feBlend in="SourceGraphic" in2="BackgroundImageFix" result="shape"/><feColorMatrix in="SourceAlpha" values="0 0 0 0 0 0 0 0 0 0 0 0 0 0 0 0 0 0 127 0" result="hardAlpha"/><feOffset dx="-.25" dy=".25"/><feGaussianBlur stdDeviation=".25"/><feComposite in2="hardAlpha" operator="arithmetic" k2="-1" k3="1"/><feColorMatrix values="0 0 0 0 0.164706 0 0 0 0 0.117647 0 0 0 0 0.231373 0 0 0 1 0"/><feBlend in2="shape" result="effect1_innerShadow_3987_23407"/></filter><filter id="S" x="7.782" y="8.162" width="10.272" height="6.937" filterUnits="userSpaceOnUse" color-interpolation-filters="sRGB"><feFlood flood-opacity="0" result="BackgroundImageFix"/><feBlend in="SourceGraphic" in2="BackgroundImageFix" result="shape"/><feColorMatrix in="SourceAlpha" values="0 0 0 0 0 0 0 0 0 0 0 0 0 0 0 0 0 0 127 0" result="hardAlpha"/><feOffset dx=".5" dy="-.5"/><feGaussianBlur stdDeviation=".375"/><feComposite in2="hardAlpha" operator="arithmetic" k2="-1" k3="1"/><feColorMatrix values="0 0 0 0 0.823529 0 0 0 0 0.517647 0 0 0 0 0.211765 0 0 0 1 0"/><feBlend in2="shape" result="effect1_innerShadow_3987_23407"/></filter><filter id="V" x="17.697" y="11.347" width="5.496" height="6.372" filterUnits="userSpaceOnUse" color-interpolation-filters="sRGB"><feFlood flood-opacity="0" result="BackgroundImageFix"/><feBlend in="SourceGraphic" in2="BackgroundImageFix" result="shape"/><feGaussianBlur stdDeviation=".3" result="effect1_foregroundBlur_3987_23407"/></filter><filter id="Z" x="7.711" y="12.51" width="2.969" height="2.969" filterUnits="userSpaceOnUse" color-interpolation-filters="sRGB"><feFlood flood-opacity="0" result="BackgroundImageFix"/><feBlend in="SourceGraphic" in2="BackgroundImageFix" result="shape"/><feGaussianBlur stdDeviation=".3" result="effect1_foregroundBlur_3987_23407"/></filter><filter id="ag" x="13.086" y="4.738" width="3.079" height="2.753" filterUnits="userSpaceOnUse" color-interpolation-filters="sRGB"><feFlood flood-opacity="0" result="BackgroundImageFix"/><feBlend in="SourceGraphic" in2="BackgroundImageFix" result="shape"/><feColorMatrix in="SourceAlpha" values="0 0 0 0 0 0 0 0 0 0 0 0 0 0 0 0 0 0 127 0" result="hardAlpha"/><feOffset dx=".4" dy="-.1"/><feGaussianBlur stdDeviation=".25"/><feComposite in2="hardAlpha" operator="arithmetic" k2="-1" k3="1"/><feColorMatrix values="0 0 0 0 0.74902 0 0 0 0 0.388235 0 0 0 0 0.00784314 0 0 0 1 0"/><feBlend in2="shape" result="effect1_innerShadow_3987_23407"/></filter><filter id="am" x="9.319" y="2.479" width="5.858" height="4.917" filterUnits="userSpaceOnUse" color-interpolation-filters="sRGB"><feFlood flood-opacity="0" result="BackgroundImageFix"/><feBlend in="SourceGraphic" in2="BackgroundImageFix" result="shape"/><feColorMatrix in="SourceAlpha" values="0 0 0 0 0 0 0 0 0 0 0 0 0 0 0 0 0 0 127 0" result="hardAlpha"/><feOffset dy="-.15"/><feGaussianBlur stdDeviation=".3"/><feComposite in2="hardAlpha" operator="arithmetic" k2="-1" k3="1"/><feColorMatrix values="0 0 0 0 0.305882 0 0 0 0 0.556863 0 0 0 0 0.882353 0 0 0 1 0"/><feBlend in2="shape" result="effect1_innerShadow_3987_23407"/></filter><filter id="ao" x="11.245" y="4.606" width="1.992" height="1.318" filterUnits="userSpaceOnUse" color-interpolation-filters="sRGB"><feFlood flood-opacity="0" result="BackgroundImageFix"/><feBlend in="SourceGraphic" in2="BackgroundImageFix" result="shape"/><feColorMatrix in="SourceAlpha" values="0 0 0 0 0 0 0 0 0 0 0 0 0 0 0 0 0 0 127 0" result="hardAlpha"/><feOffset/><feGaussianBlur stdDeviation=".25"/><feComposite in2="hardAlpha" operator="arithmetic" k2="-1" k3="1"/><feColorMatrix values="0 0 0 0 0.137255 0 0 0 0 0.482353 0 0 0 0 0.796078 0 0 0 1 0"/><feBlend in2="shape" result="effect1_innerShadow_3987_23407"/></filter></defs></svg>