<svg xmlns="http://www.w3.org/2000/svg" fill="none" viewBox="0 0 32 32"><path fill="url(#man-frowning_svg__a)" d="M16 19.727c-5.502 0-9.963 4.46-9.963 9.962v.21h19.926v-.21c0-5.502-4.46-9.962-9.963-9.962"/><path fill="url(#man-frowning_svg__b)" d="M16 19.727c-5.502 0-9.963 4.46-9.963 9.962v.21h19.926v-.21c0-5.502-4.46-9.962-9.963-9.962"/><path fill="url(#man-frowning_svg__c)" d="M16 19.727c-5.502 0-9.963 4.46-9.963 9.962v.21h19.926v-.21c0-5.502-4.46-9.962-9.963-9.962"/><path fill="url(#man-frowning_svg__d)" d="M16 19.727c-5.502 0-9.963 4.46-9.963 9.962v.21h19.926v-.21c0-5.502-4.46-9.962-9.963-9.962"/><path fill="url(#man-frowning_svg__e)" d="M16 19.727c-5.502 0-9.963 4.46-9.963 9.962v.21h19.926v-.21c0-5.502-4.46-9.962-9.963-9.962"/><rect width="5.188" height="6.789" x="13.432" y="17.141" fill="url(#man-frowning_svg__f)" rx="2.594"/><circle cx="9.825" cy="13.289" r="2.171" fill="url(#man-frowning_svg__g)"/><g filter="url(#man-frowning_svg__h)"><circle cx="9.825" cy="13.289" r="1.294" fill="url(#man-frowning_svg__i)"/></g><g filter="url(#man-frowning_svg__j)"><circle cx="22.198" cy="13.289" r="2.171" fill="url(#man-frowning_svg__k)"/><circle cx="22.198" cy="13.289" r="2.171" fill="url(#man-frowning_svg__l)"/></g><g filter="url(#man-frowning_svg__m)"><circle cx="22.198" cy="13.289" r="1.294" fill="#FFBF34"/><circle cx="22.198" cy="13.289" r="1.294" fill="url(#man-frowning_svg__n)"/><circle cx="22.198" cy="13.289" r="1.294" fill="url(#man-frowning_svg__o)"/></g><path fill="url(#man-frowning_svg__p)" d="m9.367 12.492.064.002s-.07-1.11-.14-1.873c0-.347.14-.763.419-.971l.21-.208c.348-.278.488-.694.488-1.11v-1.11c0-.347.209-.624.558-.694.837-.208 2.58-.555 5.092-.555s4.256.347 5.093.555c.28.07.558.347.558.694v1.11c0 .416.21.832.489 1.11.653.457.612.709.558 1.248-.07.694-.14 1.873-.14 1.873h.024l-.346 5.148c-.209 2.302-2.018 3.906-4.175 3.906h-4.176c-2.227 0-3.967-1.604-4.175-3.906z"/><path fill="url(#man-frowning_svg__q)" d="m9.367 12.492.064.002s-.07-1.11-.14-1.873c0-.347.14-.763.419-.971l.21-.208c.348-.278.488-.694.488-1.11v-1.11c0-.347.209-.624.558-.694.837-.208 2.58-.555 5.092-.555s4.256.347 5.093.555c.28.07.558.347.558.694v1.11c0 .416.21.832.489 1.11.653.457.612.709.558 1.248-.07.694-.14 1.873-.14 1.873h.024l-.346 5.148c-.209 2.302-2.018 3.906-4.175 3.906h-4.176c-2.227 0-3.967-1.604-4.175-3.906z"/><path fill="url(#man-frowning_svg__r)" d="m9.367 12.492.064.002s-.07-1.11-.14-1.873c0-.347.14-.763.419-.971l.21-.208c.348-.278.488-.694.488-1.11v-1.11c0-.347.209-.624.558-.694.837-.208 2.58-.555 5.092-.555s4.256.347 5.093.555c.28.07.558.347.558.694v1.11c0 .416.21.832.489 1.11.653.457.612.709.558 1.248-.07.694-.14 1.873-.14 1.873h.024l-.346 5.148c-.209 2.302-2.018 3.906-4.175 3.906h-4.176c-2.227 0-3.967-1.604-4.175-3.906z"/><path fill="url(#man-frowning_svg__s)" d="m9.367 12.492.064.002s-.07-1.11-.14-1.873c0-.347.14-.763.419-.971l.21-.208c.348-.278.488-.694.488-1.11v-1.11c0-.347.209-.624.558-.694.837-.208 2.58-.555 5.092-.555s4.256.347 5.093.555c.28.07.558.347.558.694v1.11c0 .416.21.832.489 1.11.653.457.612.709.558 1.248-.07.694-.14 1.873-.14 1.873h.024l-.346 5.148c-.209 2.302-2.018 3.906-4.175 3.906h-4.176c-2.227 0-3.967-1.604-4.175-3.906z"/><path fill="url(#man-frowning_svg__t)" d="m9.367 12.492.064.002s-.07-1.11-.14-1.873c0-.347.14-.763.419-.971l.21-.208c.348-.278.488-.694.488-1.11v-1.11c0-.347.209-.624.558-.694.837-.208 2.58-.555 5.092-.555s4.256.347 5.093.555c.28.07.558.347.558.694v1.11c0 .416.21.832.489 1.11.653.457.612.709.558 1.248-.07.694-.14 1.873-.14 1.873h.024l-.346 5.148c-.209 2.302-2.018 3.906-4.175 3.906h-4.176c-2.227 0-3.967-1.604-4.175-3.906z"/><path fill="url(#man-frowning_svg__u)" d="m9.367 12.492.064.002s-.07-1.11-.14-1.873c0-.347.14-.763.419-.971l.21-.208c.348-.278.488-.694.488-1.11v-1.11c0-.347.209-.624.558-.694.837-.208 2.58-.555 5.092-.555s4.256.347 5.093.555c.28.07.558.347.558.694v1.11c0 .416.21.832.489 1.11.653.457.612.709.558 1.248-.07.694-.14 1.873-.14 1.873h.024l-.346 5.148c-.209 2.302-2.018 3.906-4.175 3.906h-4.176c-2.227 0-3.967-1.604-4.175-3.906z"/><g filter="url(#man-frowning_svg__v)"><path fill="#FFA91B" d="m22.268 4.863.558.278c.976.485 1.534 1.595 1.325 2.775l-.767 3.954c-.069.408-.339.683-.744.693h-.024s.07-1.179.14-1.873c.057-.563-.042-.735-.558-1.248-.28-.278-.489-.694-.489-1.11v-1.11c0-.347-.279-.624-.558-.694-.837-.208-2.581-.555-5.093-.555s-4.255.347-5.092.555c-.35.07-.558.347-.558.694v1.11c0 .416-.14.832-.489 1.11l-.21.208c-.278.208-.418.624-.418.971.07.763.14 1.873.14 1.873q-.033 0-.064-.002a.824.824 0 0 1-.773-.692l-.768-3.954c-.14-1.11.419-2.22 1.395-2.705l.559-.278c.348-.208.697-.485 1.046-.763l1.256-1.318c.767-.693 1.883-.901 2.86-.416a3.82 3.82 0 0 0 2.163 0c1.046-.347 2.232-.07 3.07.694L21.22 4.1c.28.347.628.555 1.047.763"/><path fill="url(#man-frowning_svg__w)" d="m22.268 4.863.558.278c.976.485 1.534 1.595 1.325 2.775l-.767 3.954c-.069.408-.339.683-.744.693h-.024s.07-1.179.14-1.873c.057-.563-.042-.735-.558-1.248-.28-.278-.489-.694-.489-1.11v-1.11c0-.347-.279-.624-.558-.694-.837-.208-2.581-.555-5.093-.555s-4.255.347-5.092.555c-.35.07-.558.347-.558.694v1.11c0 .416-.14.832-.489 1.11l-.21.208c-.278.208-.418.624-.418.971.07.763.14 1.873.14 1.873q-.033 0-.064-.002a.824.824 0 0 1-.773-.692l-.768-3.954c-.14-1.11.419-2.22 1.395-2.705l.559-.278c.348-.208.697-.485 1.046-.763l1.256-1.318c.767-.693 1.883-.901 2.86-.416a3.82 3.82 0 0 0 2.163 0c1.046-.347 2.232-.07 3.07.694L21.22 4.1c.28.347.628.555 1.047.763"/><path fill="url(#man-frowning_svg__x)" d="m22.268 4.863.558.278c.976.485 1.534 1.595 1.325 2.775l-.767 3.954c-.069.408-.339.683-.744.693h-.024s.07-1.179.14-1.873c.057-.563-.042-.735-.558-1.248-.28-.278-.489-.694-.489-1.11v-1.11c0-.347-.279-.624-.558-.694-.837-.208-2.581-.555-5.093-.555s-4.255.347-5.092.555c-.35.07-.558.347-.558.694v1.11c0 .416-.14.832-.489 1.11l-.21.208c-.278.208-.418.624-.418.971.07.763.14 1.873.14 1.873q-.033 0-.064-.002a.824.824 0 0 1-.773-.692l-.768-3.954c-.14-1.11.419-2.22 1.395-2.705l.559-.278c.348-.208.697-.485 1.046-.763l1.256-1.318c.767-.693 1.883-.901 2.86-.416a3.82 3.82 0 0 0 2.163 0c1.046-.347 2.232-.07 3.07.694L21.22 4.1c.28.347.628.555 1.047.763"/><path fill="url(#man-frowning_svg__y)" d="m22.268 4.863.558.278c.976.485 1.534 1.595 1.325 2.775l-.767 3.954c-.069.408-.339.683-.744.693h-.024s.07-1.179.14-1.873c.057-.563-.042-.735-.558-1.248-.28-.278-.489-.694-.489-1.11v-1.11c0-.347-.279-.624-.558-.694-.837-.208-2.581-.555-5.093-.555s-4.255.347-5.092.555c-.35.07-.558.347-.558.694v1.11c0 .416-.14.832-.489 1.11l-.21.208c-.278.208-.418.624-.418.971.07.763.14 1.873.14 1.873q-.033 0-.064-.002a.824.824 0 0 1-.773-.692l-.768-3.954c-.14-1.11.419-2.22 1.395-2.705l.559-.278c.348-.208.697-.485 1.046-.763l1.256-1.318c.767-.693 1.883-.901 2.86-.416a3.82 3.82 0 0 0 2.163 0c1.046-.347 2.232-.07 3.07.694L21.22 4.1c.28.347.628.555 1.047.763"/><path fill="url(#man-frowning_svg__z)" d="m22.268 4.863.558.278c.976.485 1.534 1.595 1.325 2.775l-.767 3.954c-.069.408-.339.683-.744.693h-.024s.07-1.179.14-1.873c.057-.563-.042-.735-.558-1.248-.28-.278-.489-.694-.489-1.11v-1.11c0-.347-.279-.624-.558-.694-.837-.208-2.581-.555-5.093-.555s-4.255.347-5.092.555c-.35.07-.558.347-.558.694v1.11c0 .416-.14.832-.489 1.11l-.21.208c-.278.208-.418.624-.418.971.07.763.14 1.873.14 1.873q-.033 0-.064-.002a.824.824 0 0 1-.773-.692l-.768-3.954c-.14-1.11.419-2.22 1.395-2.705l.559-.278c.348-.208.697-.485 1.046-.763l1.256-1.318c.767-.693 1.883-.901 2.86-.416a3.82 3.82 0 0 0 2.163 0c1.046-.347 2.232-.07 3.07.694L21.22 4.1c.28.347.628.555 1.047.763"/><path fill="url(#man-frowning_svg__A)" d="m22.268 4.863.558.278c.976.485 1.534 1.595 1.325 2.775l-.767 3.954c-.069.408-.339.683-.744.693h-.024s.07-1.179.14-1.873c.057-.563-.042-.735-.558-1.248-.28-.278-.489-.694-.489-1.11v-1.11c0-.347-.279-.624-.558-.694-.837-.208-2.581-.555-5.093-.555s-4.255.347-5.092.555c-.35.07-.558.347-.558.694v1.11c0 .416-.14.832-.489 1.11l-.21.208c-.278.208-.418.624-.418.971.07.763.14 1.873.14 1.873q-.033 0-.064-.002a.824.824 0 0 1-.773-.692l-.768-3.954c-.14-1.11.419-2.22 1.395-2.705l.559-.278c.348-.208.697-.485 1.046-.763l1.256-1.318c.767-.693 1.883-.901 2.86-.416a3.82 3.82 0 0 0 2.163 0c1.046-.347 2.232-.07 3.07.694L21.22 4.1c.28.347.628.555 1.047.763"/><path fill="url(#man-frowning_svg__B)" d="m22.268 4.863.558.278c.976.485 1.534 1.595 1.325 2.775l-.767 3.954c-.069.408-.339.683-.744.693h-.024s.07-1.179.14-1.873c.057-.563-.042-.735-.558-1.248-.28-.278-.489-.694-.489-1.11v-1.11c0-.347-.279-.624-.558-.694-.837-.208-2.581-.555-5.093-.555s-4.255.347-5.092.555c-.35.07-.558.347-.558.694v1.11c0 .416-.14.832-.489 1.11l-.21.208c-.278.208-.418.624-.418.971.07.763.14 1.873.14 1.873q-.033 0-.064-.002a.824.824 0 0 1-.773-.692l-.768-3.954c-.14-1.11.419-2.22 1.395-2.705l.559-.278c.348-.208.697-.485 1.046-.763l1.256-1.318c.767-.693 1.883-.901 2.86-.416a3.82 3.82 0 0 0 2.163 0c1.046-.347 2.232-.07 3.07.694L21.22 4.1c.28.347.628.555 1.047.763"/></g><path fill="url(#man-frowning_svg__C)" d="m22.268 4.863.558.278c.976.485 1.534 1.595 1.325 2.775l-.767 3.954c-.069.408-.339.683-.744.693h-.024s.07-1.179.14-1.873c.057-.563-.042-.735-.558-1.248-.28-.278-.489-.694-.489-1.11v-1.11c0-.347-.279-.624-.558-.694-.837-.208-2.581-.555-5.093-.555s-4.255.347-5.092.555c-.35.07-.558.347-.558.694v1.11c0 .416-.14.832-.489 1.11l-.21.208c-.278.208-.418.624-.418.971.07.763.14 1.873.14 1.873q-.033 0-.064-.002a.824.824 0 0 1-.773-.692l-.768-3.954c-.14-1.11.419-2.22 1.395-2.705l.559-.278c.348-.208.697-.485 1.046-.763l1.256-1.318c.767-.693 1.883-.901 2.86-.416a3.82 3.82 0 0 0 2.163 0c1.046-.347 2.232-.07 3.07.694L21.22 4.1c.28.347.628.555 1.047.763"/><path fill="url(#man-frowning_svg__D)" d="m22.268 4.863.558.278c.976.485 1.534 1.595 1.325 2.775l-.767 3.954c-.069.408-.339.683-.744.693h-.024s.07-1.179.14-1.873c.057-.563-.042-.735-.558-1.248-.28-.278-.489-.694-.489-1.11v-1.11c0-.347-.279-.624-.558-.694-.837-.208-2.581-.555-5.093-.555s-4.255.347-5.092.555c-.35.07-.558.347-.558.694v1.11c0 .416-.14.832-.489 1.11l-.21.208c-.278.208-.418.624-.418.971.07.763.14 1.873.14 1.873q-.033 0-.064-.002a.824.824 0 0 1-.773-.692l-.768-3.954c-.14-1.11.419-2.22 1.395-2.705l.559-.278c.348-.208.697-.485 1.046-.763l1.256-1.318c.767-.693 1.883-.901 2.86-.416a3.82 3.82 0 0 0 2.163 0c1.046-.347 2.232-.07 3.07.694L21.22 4.1c.28.347.628.555 1.047.763"/><g filter="url(#man-frowning_svg__E)"><path fill="#F1901C" d="m15.642 13.13-1.067 2.21c-.132.455.185.91.635.91h.959c.45 0 .767-.462.634-.91l-.648-2.21c-.139-.49-.368-.49-.513 0"/></g><g filter="url(#man-frowning_svg__F)"><path fill="#FFCC28" d="m15.503 12.918-.691 2.21a.7.7 0 0 0 .677.91h1.022c.48 0 .818-.462.677-.91l-.69-2.21c-.149-.49-.84-.49-.995 0"/><path fill="url(#man-frowning_svg__G)" d="m15.503 12.918-.691 2.21a.7.7 0 0 0 .677.91h1.022c.48 0 .818-.462.677-.91l-.69-2.21c-.149-.49-.84-.49-.995 0"/><path fill="url(#man-frowning_svg__H)" d="m15.503 12.918-.691 2.21a.7.7 0 0 0 .677.91h1.022c.48 0 .818-.462.677-.91l-.69-2.21c-.149-.49-.84-.49-.995 0"/><path fill="url(#man-frowning_svg__I)" d="m15.503 12.918-.691 2.21a.7.7 0 0 0 .677.91h1.022c.48 0 .818-.462.677-.91l-.69-2.21c-.149-.49-.84-.49-.995 0"/></g><path fill="url(#man-frowning_svg__J)" d="m15.503 12.918-.691 2.21a.7.7 0 0 0 .677.91h1.022c.48 0 .818-.462.677-.91l-.69-2.21c-.149-.49-.84-.49-.995 0"/><path fill="#fff" d="M19.106 11.428c.849 0 1.566.585 1.761 1.377a.357.357 0 0 1-.348.443h-2.9a.3.3 0 0 1-.296-.354 1.82 1.82 0 0 1 1.783-1.466"/><path fill="url(#man-frowning_svg__K)" d="M18.837 11.781a1.16 1.16 0 0 1 1.118 1.467h-2.242q-.04-.149-.042-.306c0-.638.522-1.16 1.166-1.16"/><path fill="#000" d="M18.172 12.942c0-.37.295-.665.665-.665a.662.662 0 0 1 .59.97h-1.176a.6.6 0 0 1-.079-.305"/><g filter="url(#man-frowning_svg__L)"><path fill="#C7A7A3" d="M18.75 12.027c.083.11-.09.245-.286.392s-.342.25-.424.14c-.083-.111.01-.32.205-.466.197-.147.423-.177.505-.066"/><path fill="url(#man-frowning_svg__M)" d="M18.75 12.027c.083.11-.09.245-.286.392s-.342.25-.424.14c-.083-.111.01-.32.205-.466.197-.147.423-.177.505-.066"/></g><g filter="url(#man-frowning_svg__N)"><path fill="url(#man-frowning_svg__O)" d="M19.87 12.789a1.1 1.1 0 0 0-.3-.602l-.339.371.153.297z"/></g><path fill="#fff" d="M12.888 11.428c-.85 0-1.567.585-1.762 1.377a.357.357 0 0 0 .348.443h2.901a.3.3 0 0 0 .296-.354 1.82 1.82 0 0 0-1.783-1.466"/><path fill="url(#man-frowning_svg__P)" d="M13.157 11.781a1.16 1.16 0 0 0-1.119 1.467h2.242q.042-.149.043-.306a1.17 1.17 0 0 0-1.166-1.16"/><path fill="#000" d="M13.821 12.942a.66.66 0 0 0-.664-.665.662.662 0 0 0-.591.97h1.176a.66.66 0 0 0 .08-.305"/><g filter="url(#man-frowning_svg__Q)"><path fill="url(#man-frowning_svg__R)" d="M14.216 12.805c0-.375-.304-.625-.387-.7l-.375.362.231.47z"/></g><g filter="url(#man-frowning_svg__S)" transform="rotate(-27.914 12.806 12.277)"><ellipse cx="12.806" cy="12.277" fill="#C7A7A3" fill-opacity=".9" rx=".506" ry=".256"/><ellipse cx="12.806" cy="12.277" fill="url(#man-frowning_svg__T)" rx=".506" ry=".256"/></g><path fill="#87014D" fill-rule="evenodd" d="M17.087 17.766c-.918-.628-1.93-.26-2.34.004a.275.275 0 0 1-.298-.462c.495-.319 1.765-.805 2.948.004a.275.275 0 1 1-.31.454" clip-rule="evenodd"/><g filter="url(#man-frowning_svg__U)"><path fill="#C85C2F" fill-rule="evenodd" d="M14.123 9.466c.239.25.23.645-.019.884a3.66 3.66 0 0 1-2.514 1.025.625.625 0 0 1 0-1.25 2.4 2.4 0 0 0 1.65-.678.625.625 0 0 1 .883.02" clip-rule="evenodd"/></g><g filter="url(#man-frowning_svg__V)"><path fill="#C85C2F" fill-rule="evenodd" d="M17.927 9.466a.625.625 0 0 0 .02.884 3.66 3.66 0 0 0 2.514 1.025.625.625 0 1 0 0-1.25 2.4 2.4 0 0 1-1.65-.678.625.625 0 0 0-.884.02" clip-rule="evenodd"/></g><g filter="url(#man-frowning_svg__W)"><path stroke="#D5715E" stroke-linecap="round" stroke-width=".3" d="M11.59 10.594c.656 0 1.441-.239 2.082-.852"/></g><g filter="url(#man-frowning_svg__X)"><path stroke="#D5715E" stroke-linecap="round" stroke-width=".3" d="M20.542 10.508a3.03 3.03 0 0 1-2.082-.852"/></g><defs><radialGradient id="man-frowning_svg__a" cx="0" cy="0" r="1" gradientTransform="rotate(160.481 9.323 14.107)scale(12.5328 12.8728)" gradientUnits="userSpaceOnUse"><stop stop-color="#4AB3FF"/><stop offset=".578" stop-color="#2E96FF"/></radialGradient><radialGradient id="man-frowning_svg__b" cx="0" cy="0" r="1" gradientTransform="matrix(-20.8125 0 0 -13.0625 25.199 29.164)" gradientUnits="userSpaceOnUse"><stop offset=".766" stop-color="#3A8FC0" stop-opacity="0"/><stop offset="1" stop-color="#3A8FC0"/></radialGradient><radialGradient id="man-frowning_svg__d" cx="0" cy="0" r="1" gradientTransform="matrix(-5.25498 0 0 -2.00346 15.703 21.178)" gradientUnits="userSpaceOnUse"><stop offset=".206" stop-color="#176BB1"/><stop offset="1" stop-color="#176BB1" stop-opacity="0"/></radialGradient><radialGradient id="man-frowning_svg__e" cx="0" cy="0" r="1" gradientTransform="matrix(0 -5.77741 5.6184 0 12.446 30.213)" gradientUnits="userSpaceOnUse"><stop stop-color="#2888F9"/><stop offset="1" stop-color="#2888F9" stop-opacity="0"/></radialGradient><radialGradient id="man-frowning_svg__f" cx="0" cy="0" r="1" gradientTransform="matrix(2.5625 2.96875 -4.68169 4.04104 15.23 20.758)" gradientUnits="userSpaceOnUse"><stop offset=".178" stop-color="#DA7E0B"/><stop offset=".963" stop-color="#FFD041"/></radialGradient><radialGradient id="man-frowning_svg__g" cx="0" cy="0" r="1" gradientTransform="matrix(2.28243 0 0 3.99428 7.653 13.289)" gradientUnits="userSpaceOnUse"><stop offset=".351" stop-color="#E6962B"/><stop offset="1" stop-color="#CA8F29"/></radialGradient><radialGradient id="man-frowning_svg__l" cx="0" cy="0" r="1" gradientTransform="matrix(1.07524 -.78294 .89362 1.22724 22.682 12.944)" gradientUnits="userSpaceOnUse"><stop offset=".543" stop-color="#FFC532"/><stop offset="1" stop-color="#FFC532" stop-opacity="0"/></radialGradient><radialGradient id="man-frowning_svg__n" cx="0" cy="0" r="1" gradientTransform="rotate(-61.467 23.146 -11.444)scale(2.23625 1.30888)" gradientUnits="userSpaceOnUse"><stop offset=".69" stop-color="#F4A51A" stop-opacity="0"/><stop offset="1" stop-color="#F4A51A"/></radialGradient><radialGradient id="man-frowning_svg__o" cx="0" cy="0" r="1" gradientTransform="rotate(44.707 -5.059 33.634)scale(.47451 .61172)" gradientUnits="userSpaceOnUse"><stop stop-color="#E59B1F"/><stop offset="1" stop-color="#E59B1F" stop-opacity="0"/></radialGradient><radialGradient id="man-frowning_svg__r" cx="0" cy="0" r="1" gradientTransform="matrix(0 11.2929 -15.3295 0 15.608 11.414)" gradientUnits="userSpaceOnUse"><stop offset=".631" stop-color="#F5943F" stop-opacity="0"/><stop offset="1" stop-color="#D87753"/></radialGradient><radialGradient id="man-frowning_svg__s" cx="0" cy="0" r="1" gradientTransform="matrix(0 -1.70003 2.09234 0 19.051 11.635)" gradientUnits="userSpaceOnUse"><stop stop-color="#FFBA0D"/><stop offset="1" stop-color="#FFBA0D" stop-opacity="0"/></radialGradient><radialGradient id="man-frowning_svg__t" cx="0" cy="0" r="1" gradientTransform="matrix(0 -1.80901 2.24966 0 13.123 11.591)" gradientUnits="userSpaceOnUse"><stop stop-color="#EE911A"/><stop offset="1" stop-color="#EE911A" stop-opacity="0"/></radialGradient><radialGradient id="man-frowning_svg__w" cx="0" cy="0" r="1" gradientTransform="rotate(127.807 9.603 6.723)scale(7.29158 12.4)" gradientUnits="userSpaceOnUse"><stop stop-color="#FFE336"/><stop offset="1" stop-color="#FFE336" stop-opacity="0"/></radialGradient><radialGradient id="man-frowning_svg__y" cx="0" cy="0" r="1" gradientTransform="rotate(-92.056 9.515 -.69)scale(2.42266 1.18982)" gradientUnits="userSpaceOnUse"><stop offset=".227" stop-color="#FFB42C"/><stop offset="1" stop-color="#FFB42C" stop-opacity="0"/></radialGradient><radialGradient id="man-frowning_svg__z" cx="0" cy="0" r="1" gradientTransform="rotate(-66.4 19.176 -10.911)scale(2.79112 2.27637)" gradientUnits="userSpaceOnUse"><stop offset=".479" stop-color="#E57D1C"/><stop offset="1" stop-color="#E57D1C" stop-opacity="0"/></radialGradient><radialGradient id="man-frowning_svg__A" cx="0" cy="0" r="1" gradientTransform="rotate(51.134 5.3 16.719)scale(2.05776 1.81686)" gradientUnits="userSpaceOnUse"><stop stop-color="#FFCE2C"/><stop offset="1" stop-color="#FFCE2C" stop-opacity="0"/></radialGradient><radialGradient id="man-frowning_svg__B" cx="0" cy="0" r="1" gradientTransform="matrix(1.88721 -3.94825 1.36417 .65206 21.448 7.801)" gradientUnits="userSpaceOnUse"><stop stop-color="#FFD93A"/><stop offset="1" stop-color="#FFD93A" stop-opacity="0"/></radialGradient><radialGradient id="man-frowning_svg__C" cx="0" cy="0" r="1" gradientTransform="matrix(.2359 1.01866 -1.67468 .38782 16.904 2.102)" gradientUnits="userSpaceOnUse"><stop offset=".208" stop-color="#DCB85C"/><stop offset="1" stop-color="#DCB85C" stop-opacity="0"/></radialGradient><radialGradient id="man-frowning_svg__D" cx="0" cy="0" r="1" gradientTransform="rotate(51.044 .62 13.011)scale(1.50083 3.36281)" gradientUnits="userSpaceOnUse"><stop stop-color="#C9993E"/><stop offset="1" stop-color="#C9993E" stop-opacity="0"/></radialGradient><radialGradient id="man-frowning_svg__K" cx="0" cy="0" r="1" gradientTransform="rotate(90 3 15.835)scale(1.17467 1.38994)" gradientUnits="userSpaceOnUse"><stop offset=".75" stop-color="#925C51"/><stop offset="1" stop-color="#694B43"/><stop offset="1" stop-color="#804D49"/><stop offset="1" stop-color="#85534D"/></radialGradient><radialGradient id="man-frowning_svg__M" cx="0" cy="0" r="1" gradientTransform="matrix(-.30133 -.3883 .5346 -.41486 18.537 12.51)" gradientUnits="userSpaceOnUse"><stop offset=".766" stop-color="#FFE6E2" stop-opacity="0"/><stop offset=".966" stop-color="#FFE6E2"/></radialGradient><radialGradient id="man-frowning_svg__P" cx="0" cy="0" r="1" gradientTransform="matrix(0 1.17473 -1.39001 0 13.16 12.835)" gradientUnits="userSpaceOnUse"><stop offset=".75" stop-color="#925C51"/><stop offset="1" stop-color="#694B43"/><stop offset="1" stop-color="#804D49"/><stop offset="1" stop-color="#85534D"/></radialGradient><radialGradient id="man-frowning_svg__T" cx="0" cy="0" r="1" gradientTransform="matrix(-.01005 -.64196 .77166 -.01208 12.786 12.686)" gradientUnits="userSpaceOnUse"><stop offset=".766" stop-color="#FFE6E2" stop-opacity="0"/><stop offset=".966" stop-color="#FFE6E2"/></radialGradient><filter id="man-frowning_svg__h" width="3.588" height="3.588" x="8.031" y="11.495" color-interpolation-filters="sRGB" filterUnits="userSpaceOnUse"><feFlood flood-opacity="0" result="BackgroundImageFix"/><feBlend in="SourceGraphic" in2="BackgroundImageFix" result="shape"/><feGaussianBlur result="effect1_foregroundBlur_3987_21950" stdDeviation=".25"/></filter><filter id="man-frowning_svg__j" width="4.593" height="4.593" x="20.027" y="10.867" color-interpolation-filters="sRGB" filterUnits="userSpaceOnUse"><feFlood flood-opacity="0" result="BackgroundImageFix"/><feBlend in="SourceGraphic" in2="BackgroundImageFix" result="shape"/><feColorMatrix in="SourceAlpha" result="hardAlpha" values="0 0 0 0 0 0 0 0 0 0 0 0 0 0 0 0 0 0 127 0"/><feOffset dx=".25" dy="-.25"/><feGaussianBlur stdDeviation=".25"/><feComposite in2="hardAlpha" k2="-1" k3="1" operator="arithmetic"/><feColorMatrix values="0 0 0 0 0.85098 0 0 0 0 0.560784 0 0 0 0 0.376471 0 0 0 1 0"/><feBlend in2="shape" result="effect1_innerShadow_3987_21950"/></filter><filter id="man-frowning_svg__m" width="3.588" height="3.588" x="20.404" y="11.495" color-interpolation-filters="sRGB" filterUnits="userSpaceOnUse"><feFlood flood-opacity="0" result="BackgroundImageFix"/><feBlend in="SourceGraphic" in2="BackgroundImageFix" result="shape"/><feGaussianBlur result="effect1_foregroundBlur_3987_21950" stdDeviation=".25"/></filter><filter id="man-frowning_svg__v" width="16.39" height="10.962" x="7.805" y="1.602" color-interpolation-filters="sRGB" filterUnits="userSpaceOnUse"><feFlood flood-opacity="0" result="BackgroundImageFix"/><feBlend in="SourceGraphic" in2="BackgroundImageFix" result="shape"/><feColorMatrix in="SourceAlpha" result="hardAlpha" values="0 0 0 0 0 0 0 0 0 0 0 0 0 0 0 0 0 0 127 0"/><feOffset dy="-.5"/><feGaussianBlur stdDeviation=".375"/><feComposite in2="hardAlpha" k2="-1" k3="1" operator="arithmetic"/><feColorMatrix values="0 0 0 0 0.984314 0 0 0 0 0.584314 0 0 0 0 0.129412 0 0 0 1 0"/><feBlend in2="shape" result="effect1_innerShadow_3987_21950"/><feColorMatrix in="SourceAlpha" result="hardAlpha" values="0 0 0 0 0 0 0 0 0 0 0 0 0 0 0 0 0 0 127 0"/><feOffset dy="-.25"/><feGaussianBlur stdDeviation=".125"/><feComposite in2="hardAlpha" k2="-1" k3="1" operator="arithmetic"/><feColorMatrix values="0 0 0 0 0.972549 0 0 0 0 0.572549 0 0 0 0 0.0156863 0 0 0 1 0"/><feBlend in2="effect1_innerShadow_3987_21950" result="effect2_innerShadow_3987_21950"/></filter><filter id="man-frowning_svg__E" width="3.789" height="4.987" x="13.795" y="12.012" color-interpolation-filters="sRGB" filterUnits="userSpaceOnUse"><feFlood flood-opacity="0" result="BackgroundImageFix"/><feBlend in="SourceGraphic" in2="BackgroundImageFix" result="shape"/><feGaussianBlur result="effect1_foregroundBlur_3987_21950" stdDeviation=".375"/></filter><filter id="man-frowning_svg__F" width="2.941" height="3.987" x="14.529" y="12.3" color-interpolation-filters="sRGB" filterUnits="userSpaceOnUse"><feFlood flood-opacity="0" result="BackgroundImageFix"/><feBlend in="SourceGraphic" in2="BackgroundImageFix" result="shape"/><feGaussianBlur result="effect1_foregroundBlur_3987_21950" stdDeviation=".125"/></filter><filter id="man-frowning_svg__L" width=".962" height=".845" x="17.909" y="11.86" color-interpolation-filters="sRGB" filterUnits="userSpaceOnUse"><feFlood flood-opacity="0" result="BackgroundImageFix"/><feBlend in="SourceGraphic" in2="BackgroundImageFix" result="shape"/><feGaussianBlur result="effect1_foregroundBlur_3987_21950" stdDeviation=".05"/></filter><filter id="man-frowning_svg__N" width="1.038" height="1.067" x="19.031" y="11.987" color-interpolation-filters="sRGB" filterUnits="userSpaceOnUse"><feFlood flood-opacity="0" result="BackgroundImageFix"/><feBlend in="SourceGraphic" in2="BackgroundImageFix" result="shape"/><feGaussianBlur result="effect1_foregroundBlur_3987_21950" stdDeviation=".1"/></filter><filter id="man-frowning_svg__Q" width="1.162" height="1.232" x="13.255" y="11.905" color-interpolation-filters="sRGB" filterUnits="userSpaceOnUse"><feFlood flood-opacity="0" result="BackgroundImageFix"/><feBlend in="SourceGraphic" in2="BackgroundImageFix" result="shape"/><feGaussianBlur result="effect1_foregroundBlur_3987_21950" stdDeviation=".1"/></filter><filter id="man-frowning_svg__S" width="1.127" height=".855" x="12.243" y="11.85" color-interpolation-filters="sRGB" filterUnits="userSpaceOnUse"><feFlood flood-opacity="0" result="BackgroundImageFix"/><feBlend in="SourceGraphic" in2="BackgroundImageFix" result="shape"/><feGaussianBlur result="effect1_foregroundBlur_3987_21950" stdDeviation=".05"/></filter><filter id="man-frowning_svg__U" width="3.582" height="2.502" x="10.965" y="8.873" color-interpolation-filters="sRGB" filterUnits="userSpaceOnUse"><feFlood flood-opacity="0" result="BackgroundImageFix"/><feBlend in="SourceGraphic" in2="BackgroundImageFix" result="shape"/><feColorMatrix in="SourceAlpha" result="hardAlpha" values="0 0 0 0 0 0 0 0 0 0 0 0 0 0 0 0 0 0 127 0"/><feOffset dx=".25" dy="-.4"/><feGaussianBlur stdDeviation=".3"/><feComposite in2="hardAlpha" k2="-1" k3="1" operator="arithmetic"/><feColorMatrix values="0 0 0 0 0.615686 0 0 0 0 0.243137 0 0 0 0 0.0901961 0 0 0 1 0"/><feBlend in2="shape" result="effect1_innerShadow_3987_21950"/></filter><filter id="man-frowning_svg__V" width="3.582" height="2.502" x="17.754" y="8.873" color-interpolation-filters="sRGB" filterUnits="userSpaceOnUse"><feFlood flood-opacity="0" result="BackgroundImageFix"/><feBlend in="SourceGraphic" in2="BackgroundImageFix" result="shape"/><feColorMatrix in="SourceAlpha" result="hardAlpha" values="0 0 0 0 0 0 0 0 0 0 0 0 0 0 0 0 0 0 127 0"/><feOffset dx=".25" dy="-.4"/><feGaussianBlur stdDeviation=".3"/><feComposite in2="hardAlpha" k2="-1" k3="1" operator="arithmetic"/><feColorMatrix values="0 0 0 0 0.615686 0 0 0 0 0.243137 0 0 0 0 0.0901961 0 0 0 1 0"/><feBlend in2="shape" result="effect1_innerShadow_3987_21950"/></filter><filter id="man-frowning_svg__W" width="2.982" height="1.752" x="11.14" y="9.292" color-interpolation-filters="sRGB" filterUnits="userSpaceOnUse"><feFlood flood-opacity="0" result="BackgroundImageFix"/><feBlend in="SourceGraphic" in2="BackgroundImageFix" result="shape"/><feGaussianBlur result="effect1_foregroundBlur_3987_21950" stdDeviation=".15"/></filter><filter id="man-frowning_svg__X" width="2.982" height="1.752" x="18.01" y="9.206" color-interpolation-filters="sRGB" filterUnits="userSpaceOnUse"><feFlood flood-opacity="0" result="BackgroundImageFix"/><feBlend in="SourceGraphic" in2="BackgroundImageFix" result="shape"/><feGaussianBlur result="effect1_foregroundBlur_3987_21950" stdDeviation=".15"/></filter><linearGradient id="man-frowning_svg__c" x1="16" x2="16" y1="29.984" y2="29.398" gradientUnits="userSpaceOnUse"><stop stop-color="#2771FC"/><stop offset="1" stop-color="#2771FC" stop-opacity="0"/></linearGradient><linearGradient id="man-frowning_svg__i" x1="9.825" x2="8.992" y1="13.651" y2="13.651" gradientUnits="userSpaceOnUse"><stop stop-color="#BD6A1E"/><stop offset="1" stop-color="#D77A1C"/></linearGradient><linearGradient id="man-frowning_svg__k" x1="23.611" x2="22.546" y1="11.869" y2="15.168" gradientUnits="userSpaceOnUse"><stop stop-color="#FFE446"/><stop offset="1" stop-color="#FFC339"/></linearGradient><linearGradient id="man-frowning_svg__p" x1="21.249" x2="11.316" y1="13.795" y2="15.275" gradientUnits="userSpaceOnUse"><stop stop-color="#FFE833"/><stop offset="1" stop-color="#FFAC1B"/></linearGradient><linearGradient id="man-frowning_svg__q" x1="8.982" x2="11.99" y1="17.302" y2="16.909" gradientUnits="userSpaceOnUse"><stop stop-color="#D19C3A"/><stop offset="1" stop-color="#D19C3A" stop-opacity="0"/></linearGradient><linearGradient id="man-frowning_svg__u" x1="16.037" x2="16.037" y1="21.695" y2="20.523" gradientUnits="userSpaceOnUse"><stop stop-color="#C97C37"/><stop offset="1" stop-color="#EB8C43" stop-opacity="0"/></linearGradient><linearGradient id="man-frowning_svg__x" x1="9.386" x2="13.452" y1="11.852" y2="6.237" gradientUnits="userSpaceOnUse"><stop offset=".035" stop-color="#E07027"/><stop offset="1" stop-color="#E07027" stop-opacity="0"/></linearGradient><linearGradient id="man-frowning_svg__G" x1="14.876" x2="16.096" y1="14.653" y2="14.653" gradientUnits="userSpaceOnUse"><stop stop-color="#FAA416"/><stop offset="1" stop-color="#FAA416" stop-opacity="0"/></linearGradient><linearGradient id="man-frowning_svg__H" x1="17.221" x2="15.886" y1="15.072" y2="15.053" gradientUnits="userSpaceOnUse"><stop stop-color="#FFE721"/><stop offset="1" stop-color="#FFE721" stop-opacity="0"/></linearGradient><linearGradient id="man-frowning_svg__I" x1="16.253" x2="16.253" y1="16.038" y2="15.292" gradientUnits="userSpaceOnUse"><stop stop-color="#EB8A1C"/><stop offset="1" stop-color="#EB8A1C" stop-opacity="0"/></linearGradient><linearGradient id="man-frowning_svg__J" x1="16.163" x2="16.163" y1="16.092" y2="15.874" gradientUnits="userSpaceOnUse"><stop stop-color="#E88613"/><stop offset="1" stop-color="#E88613" stop-opacity="0"/></linearGradient><linearGradient id="man-frowning_svg__O" x1="19.845" x2="19.437" y1="12.472" y2="12.723" gradientUnits="userSpaceOnUse"><stop stop-color="#B4948D"/><stop offset="1" stop-color="#B4948D" stop-opacity="0"/></linearGradient><linearGradient id="man-frowning_svg__R" x1="14.126" x2="13.718" y1="12.471" y2="12.723" gradientUnits="userSpaceOnUse"><stop stop-color="#B4948D"/><stop offset="1" stop-color="#B4948D" stop-opacity="0"/></linearGradient></defs></svg>