<svg width="32" height="32" fill="none" xmlns="http://www.w3.org/2000/svg"><path fill="url(#a)" d="M6.588 16.165a4.086 4.086 0 1 0 8.172 0 4.086 4.086 0 1 0-8.172 0"/><path fill="url(#b)" d="M6.588 16.165a4.086 4.086 0 1 0 8.172 0 4.086 4.086 0 1 0-8.172 0"/><path fill="url(#c)" d="M1.97 23.368a6.305 6.305 0 1 0 12.61 0 6.305 6.305 0 1 0-12.61 0"/><path transform="matrix(-1 0 0 1 21.326 16.165)" fill="url(#d)" d="M-4.086 0a4.086 4.086 0 1 0 8.172 0 4.086 4.086 0 1 0-8.172 0"/><path transform="matrix(-1 0 0 1 21.326 16.165)" fill="url(#e)" d="M-4.086 0a4.086 4.086 0 1 0 8.172 0 4.086 4.086 0 1 0-8.172 0"/><path transform="matrix(-1 0 0 1 23.725 23.368)" fill="url(#f)" d="M-6.305 0a6.305 6.305 0 1 0 12.61 0 6.305 6.305 0 1 0-12.61 0"/><path d="M26.947 29.939c0-7.961-4.617-9.875-5.375-10.383l-5.047 10.383h10.422Z" fill="url(#g)"/><path d="M26.947 29.939c0-7.961-4.617-9.875-5.375-10.383l-5.047 10.383h10.422Z" fill="url(#h)"/><path d="M26.947 29.939c0-7.961-4.617-9.875-5.375-10.383l-5.047 10.383h10.422Z" fill="url(#i)"/><path d="M5.096 29.939c0-7.961 4.617-9.875 5.375-10.383l5.047 10.383H5.096Z" fill="url(#j)"/><path d="M5.096 29.939c0-7.961 4.617-9.875 5.375-10.383l5.047 10.383H5.096Z" fill="url(#k)"/><path d="M9.9 17.353c.64-1.313 1.82-1.75 2.594-1.75h2.609v2.875h-2.469c-.169.303-.002.85.102 1.086l4.316 10.39h-3.175c-1.068-2.583-3.293-7.817-3.68-8.742-.42-1.004-.89-2.476-.297-3.86Z" fill="#2681E0"/><path d="M9.9 17.353c.64-1.313 1.82-1.75 2.594-1.75h2.609v2.875h-2.469c-.169.303-.002.85.102 1.086l4.316 10.39h-3.175c-1.068-2.583-3.293-7.817-3.68-8.742-.42-1.004-.89-2.476-.297-3.86Z" fill="url(#l)"/><path d="M9.9 17.353c.64-1.313 1.82-1.75 2.594-1.75h2.609v2.875h-2.469c-.169.303-.002.85.102 1.086l4.316 10.39h-3.175c-1.068-2.583-3.293-7.817-3.68-8.742-.42-1.004-.89-2.476-.297-3.86Z" fill="url(#m)"/><path d="M9.9 17.353c.64-1.313 1.82-1.75 2.594-1.75h2.609v2.875h-2.469c-.169.303-.002.85.102 1.086l4.316 10.39h-3.175c-1.068-2.583-3.293-7.817-3.68-8.742-.42-1.004-.89-2.476-.297-3.86Z" fill="url(#n)"/><path d="M9.9 17.353c.64-1.313 1.82-1.75 2.594-1.75h2.609v2.875h-2.469c-.169.303-.002.85.102 1.086l4.316 10.39h-3.175c-1.068-2.583-3.293-7.817-3.68-8.742-.42-1.004-.89-2.476-.297-3.86Z" fill="url(#o)"/><path d="M9.9 17.353c.64-1.313 1.82-1.75 2.594-1.75h2.609v2.875h-2.469c-.169.303-.002.85.102 1.086l4.316 10.39h-3.175c-1.068-2.583-3.293-7.817-3.68-8.742-.42-1.004-.89-2.476-.297-3.86Z" fill="url(#p)"/><path d="M9.9 17.353c.64-1.313 1.82-1.75 2.594-1.75h2.609v2.875h-2.469c-.169.303-.002.85.102 1.086l4.316 10.39h-3.175c-1.068-2.583-3.293-7.817-3.68-8.742-.42-1.004-.89-2.476-.297-3.86Z" fill="url(#q)"/><path d="M21.819 17.353c-.64-1.313-1.82-1.75-2.594-1.75h-2.609v2.875h2.469c.169.303.002.85-.102 1.086l-3.938 10.39h3.176c1.067-2.583 2.995-7.817 3.382-8.742.42-1.004.81-2.476.216-3.86Z" fill="#2A87CE"/><path d="M21.819 17.353c-.64-1.313-1.82-1.75-2.594-1.75h-2.609v2.875h2.469c.169.303.002.85-.102 1.086l-3.938 10.39h3.176c1.067-2.583 2.995-7.817 3.382-8.742.42-1.004.81-2.476.216-3.86Z" fill="url(#r)"/><path d="M21.819 17.353c-.64-1.313-1.82-1.75-2.594-1.75h-2.609v2.875h2.469c.169.303.002.85-.102 1.086l-3.938 10.39h3.176c1.067-2.583 2.995-7.817 3.382-8.742.42-1.004.81-2.476.216-3.86Z" fill="url(#s)"/><path d="M21.819 17.353c-.64-1.313-1.82-1.75-2.594-1.75h-2.609v2.875h2.469c.169.303.002.85-.102 1.086l-3.938 10.39h3.176c1.067-2.583 2.995-7.817 3.382-8.742.42-1.004.81-2.476.216-3.86Z" fill="url(#t)"/><g filter="url(#u)"><path d="M14.01 16.517h4v.887c.01.175.045.374.152.53a.813.813 0 0 0 .445.333l.465.164c.076.068.22.478.04.984-.181.505-2.043 5.51-3.095 8.02v.02c0-.004-.002-.007-.004-.01 0 .003-.002.006-.004.01v-.02c-1.052-2.51-3.186-7.515-3.366-8.02-.182-.506-.076-.87 0-.937l.68-.192c.218-.062.373-.14.515-.347.113-.166.158-.39.172-.572v-.85Z" fill="url(#v)"/><path d="M14.01 16.517h4v.887c.01.175.045.374.152.53a.813.813 0 0 0 .445.333l.465.164c.076.068.22.478.04.984-.181.505-2.043 5.51-3.095 8.02v.02c0-.004-.002-.007-.004-.01 0 .003-.002.006-.004.01v-.02c-1.052-2.51-3.186-7.515-3.366-8.02-.182-.506-.076-.87 0-.937l.68-.192c.218-.062.373-.14.515-.347.113-.166.158-.39.172-.572v-.85Z" fill="url(#w)"/><path d="M14.01 16.517h4v.887c.01.175.045.374.152.53a.813.813 0 0 0 .445.333l.465.164c.076.068.22.478.04.984-.181.505-2.043 5.51-3.095 8.02v.02c0-.004-.002-.007-.004-.01 0 .003-.002.006-.004.01v-.02c-1.052-2.51-3.186-7.515-3.366-8.02-.182-.506-.076-.87 0-.937l.68-.192c.218-.062.373-.14.515-.347.113-.166.158-.39.172-.572v-.85Z" fill="url(#x)"/></g><path opacity=".5" d="M1.97 24.017h3.298a5.938 5.938 0 0 1 5.937 5.937H1.971v-5.937ZM30.03 24.017h-3.298a5.938 5.938 0 0 0-5.937 5.937h9.234v-5.937Z" fill="#E8D6FF"/><g filter="url(#y)"><path d="M16.151 18.338c.19.027.711.032 1.276-.163" stroke="#907066" stroke-width=".6" stroke-linecap="round"/></g><g filter="url(#z)"><path fill="url(#A)" d="M9.377 10.755a1.69 1.69 0 1 0 3.38 0 1.69 1.69 0 1 0-3.38 0"/></g><g filter="url(#B)"><path fill="url(#C)" d="M10.06 10.755a1.008 1.008 0 1 0 2.015 0 1.008 1.008 0 1 0-2.015 0"/></g><g filter="url(#D)"><path fill="url(#E)" d="M19.01 10.755a1.69 1.69 0 1 0 3.381 0 1.69 1.69 0 1 0-3.38 0"/><path fill="url(#F)" d="M19.01 10.755a1.69 1.69 0 1 0 3.381 0 1.69 1.69 0 1 0-3.38 0"/></g><g filter="url(#G)"><path fill="#7A5654" d="M19.693 10.755a1.008 1.008 0 1 0 2.015 0 1.008 1.008 0 1 0-2.015 0"/><path fill="url(#H)" d="M19.693 10.755a1.008 1.008 0 1 0 2.015 0 1.008 1.008 0 1 0-2.015 0"/><path fill="url(#I)" d="M19.693 10.755a1.008 1.008 0 1 0 2.015 0 1.008 1.008 0 1 0-2.015 0"/></g><g filter="url(#J)"><path d="M10.711 10.135a.743.743 0 0 0 .05.001s-.054-.864-.109-1.458c0-.27.109-.594.326-.756l.163-.162c.272-.216.38-.54.38-.864v-.864c0-.27.163-.486.435-.54.652-.162 2.01-.432 3.965-.432s3.313.27 3.965.432c.217.054.434.27.434.54v.864c0 .324.163.648.38.864.51.356.477.552.435.972-.054.54-.108 1.458-.108 1.458h.018l-.27 4.008c-.162 1.792-1.57 3.041-3.25 3.041h-3.251c-1.734 0-3.088-1.249-3.25-3.04l-.313-4.064Z" fill="url(#K)"/><path d="M10.711 10.135a.743.743 0 0 0 .05.001s-.054-.864-.109-1.458c0-.27.109-.594.326-.756l.163-.162c.272-.216.38-.54.38-.864v-.864c0-.27.163-.486.435-.54.652-.162 2.01-.432 3.965-.432s3.313.27 3.965.432c.217.054.434.27.434.54v.864c0 .324.163.648.38.864.51.356.477.552.435.972-.054.54-.108 1.458-.108 1.458h.018l-.27 4.008c-.162 1.792-1.57 3.041-3.25 3.041h-3.251c-1.734 0-3.088-1.249-3.25-3.04l-.313-4.064Z" fill="url(#L)"/><path d="M10.711 10.135a.743.743 0 0 0 .05.001s-.054-.864-.109-1.458c0-.27.109-.594.326-.756l.163-.162c.272-.216.38-.54.38-.864v-.864c0-.27.163-.486.435-.54.652-.162 2.01-.432 3.965-.432s3.313.27 3.965.432c.217.054.434.27.434.54v.864c0 .324.163.648.38.864.51.356.477.552.435.972-.054.54-.108 1.458-.108 1.458h.018l-.27 4.008c-.162 1.792-1.57 3.041-3.25 3.041h-3.251c-1.734 0-3.088-1.249-3.25-3.04l-.313-4.064Z" fill="url(#M)"/></g><path d="M10.652 8.678c0-.27.109-.594.326-.756l.163-.162c.272-.216.38-.54.38-.864v-.864c0-.27.163-.486.435-.54.652-.162 2.01-.432 3.965-.432s3.313.27 3.965.432c.217.054.434.27.434.54v.864c0 .324.163.648.38.864.51.356.477.552.435.972-.054.54-.108 1.458-.108 1.458h.018l-.27 4.008c-.162 1.792-1.57 3.041-3.25 3.041h-3.251c-1.734 0-3.088-1.249-3.25-3.04-.142-1.84-.204-3.685-.372-5.52Z" fill="url(#N)"/><path d="M10.652 8.678c0-.27.109-.594.326-.756l.163-.162c.272-.216.38-.54.38-.864v-.864c0-.27.163-.486.435-.54.652-.162 2.01-.432 3.965-.432s3.313.27 3.965.432c.217.054.434.27.434.54v.864c0 .324.163.648.38.864.51.356.477.552.435.972-.054.54-.108 1.458-.108 1.458h.018l-.27 4.008c-.162 1.792-1.57 3.041-3.25 3.041h-3.251c-1.734 0-3.088-1.249-3.25-3.04-.142-1.84-.204-3.685-.372-5.52Z" fill="url(#O)"/><path d="M10.652 8.678c0-.27.109-.594.326-.756l.163-.162c.272-.216.38-.54.38-.864v-.864c0-.27.163-.486.435-.54.652-.162 2.01-.432 3.965-.432s3.313.27 3.965.432c.217.054.434.27.434.54v.864c0 .324.163.648.38.864.51.356.477.552.435.972-.054.54-.108 1.458-.108 1.458h.018l-.27 4.008c-.162 1.792-1.57 3.041-3.25 3.041h-3.251c-1.734 0-3.088-1.249-3.25-3.04-.142-1.84-.204-3.685-.372-5.52Z" fill="url(#P)"/><path d="M10.652 8.678c0-.27.109-.594.326-.756l.163-.162c.272-.216.38-.54.38-.864v-.864c0-.27.163-.486.435-.54.652-.162 2.01-.432 3.965-.432s3.313.27 3.965.432c.217.054.434.27.434.54v.864c0 .324.163.648.38.864.51.356.477.552.435.972-.054.54-.108 1.458-.108 1.458h.018l-.27 4.008c-.162 1.792-1.57 3.041-3.25 3.041h-3.251c-1.734 0-3.088-1.249-3.25-3.04-.142-1.84-.204-3.685-.372-5.52Z" fill="url(#Q)"/><path d="M10.652 8.678c0-.27.109-.594.326-.756l.163-.162c.272-.216.38-.54.38-.864v-.864c0-.27.163-.486.435-.54.652-.162 2.01-.432 3.965-.432s3.313.27 3.965.432c.217.054.434.27.434.54v.864c0 .324.163.648.38.864.51.356.477.552.435.972-.054.54-.108 1.458-.108 1.458h.018l-.27 4.008c-.162 1.792-1.57 3.041-3.25 3.041h-3.251c-1.734 0-3.088-1.249-3.25-3.04-.142-1.84-.204-3.685-.372-5.52Z" fill="url(#R)"/><g filter="url(#S)"><path d="m19.889 5.06-3.116 1.039a1.06 1.06 0 0 0 .476 2.057l3.098-.415-.458-2.681Z" fill="url(#T)"/></g><g filter="url(#U)"><path d="m20.755 4.196.434.216c.76.378 1.195 1.242 1.032 2.16l-.597 3.079c-.053.317-.264.531-.58.54h-.018s.055-.919.11-1.459c.043-.438-.033-.572-.435-.972-.218-.216-.38-.54-.38-.864v-.864c0-.27-.218-.486-.435-.54-.652-.162-2.01-.432-3.965-.432s-3.313.27-3.965.432a.527.527 0 0 0-.435.54v.864c0 .324-.108.648-.38.864l-.163.162c-.217.162-.326.486-.326.756.055.594.109 1.458.109 1.458l-.05-.001a.641.641 0 0 1-.602-.538l-.597-3.079c-.109-.864.326-1.728 1.086-2.106l.434-.216c.272-.162.544-.378.815-.594l.978-1.026c.597-.54 1.466-.702 2.227-.324.543.162 1.14.162 1.684 0 .814-.27 1.738-.054 2.39.54l.814.81c.217.27.489.432.815.594Z" fill="#27151C"/><path d="m20.755 4.196.434.216c.76.378 1.195 1.242 1.032 2.16l-.597 3.079c-.053.317-.264.531-.58.54h-.018s.055-.919.11-1.459c.043-.438-.033-.572-.435-.972-.218-.216-.38-.54-.38-.864v-.864c0-.27-.218-.486-.435-.54-.652-.162-2.01-.432-3.965-.432s-3.313.27-3.965.432a.527.527 0 0 0-.435.54v.864c0 .324-.108.648-.38.864l-.163.162c-.217.162-.326.486-.326.756.055.594.109 1.458.109 1.458l-.05-.001a.641.641 0 0 1-.602-.538l-.597-3.079c-.109-.864.326-1.728 1.086-2.106l.434-.216c.272-.162.544-.378.815-.594l.978-1.026c.597-.54 1.466-.702 2.227-.324.543.162 1.14.162 1.684 0 .814-.27 1.738-.054 2.39.54l.814.81c.217.27.489.432.815.594Z" fill="url(#V)"/><path d="m20.755 4.196.434.216c.76.378 1.195 1.242 1.032 2.16l-.597 3.079c-.053.317-.264.531-.58.54h-.018s.055-.919.11-1.459c.043-.438-.033-.572-.435-.972-.218-.216-.38-.54-.38-.864v-.864c0-.27-.218-.486-.435-.54-.652-.162-2.01-.432-3.965-.432s-3.313.27-3.965.432a.527.527 0 0 0-.435.54v.864c0 .324-.108.648-.38.864l-.163.162c-.217.162-.326.486-.326.756.055.594.109 1.458.109 1.458l-.05-.001a.641.641 0 0 1-.602-.538l-.597-3.079c-.109-.864.326-1.728 1.086-2.106l.434-.216c.272-.162.544-.378.815-.594l.978-1.026c.597-.54 1.466-.702 2.227-.324.543.162 1.14.162 1.684 0 .814-.27 1.738-.054 2.39.54l.814.81c.217.27.489.432.815.594Z" fill="url(#W)"/><path d="m20.755 4.196.434.216c.76.378 1.195 1.242 1.032 2.16l-.597 3.079c-.053.317-.264.531-.58.54h-.018s.055-.919.11-1.459c.043-.438-.033-.572-.435-.972-.218-.216-.38-.54-.38-.864v-.864c0-.27-.218-.486-.435-.54-.652-.162-2.01-.432-3.965-.432s-3.313.27-3.965.432a.527.527 0 0 0-.435.54v.864c0 .324-.108.648-.38.864l-.163.162c-.217.162-.326.486-.326.756.055.594.109 1.458.109 1.458l-.05-.001a.641.641 0 0 1-.602-.538l-.597-3.079c-.109-.864.326-1.728 1.086-2.106l.434-.216c.272-.162.544-.378.815-.594l.978-1.026c.597-.54 1.466-.702 2.227-.324.543.162 1.14.162 1.684 0 .814-.27 1.738-.054 2.39.54l.814.81c.217.27.489.432.815.594Z" fill="url(#X)"/><path d="m20.755 4.196.434.216c.76.378 1.195 1.242 1.032 2.16l-.597 3.079c-.053.317-.264.531-.58.54h-.018s.055-.919.11-1.459c.043-.438-.033-.572-.435-.972-.218-.216-.38-.54-.38-.864v-.864c0-.27-.218-.486-.435-.54-.652-.162-2.01-.432-3.965-.432s-3.313.27-3.965.432a.527.527 0 0 0-.435.54v.864c0 .324-.108.648-.38.864l-.163.162c-.217.162-.326.486-.326.756.055.594.109 1.458.109 1.458l-.05-.001a.641.641 0 0 1-.602-.538l-.597-3.079c-.109-.864.326-1.728 1.086-2.106l.434-.216c.272-.162.544-.378.815-.594l.978-1.026c.597-.54 1.466-.702 2.227-.324.543.162 1.14.162 1.684 0 .814-.27 1.738-.054 2.39.54l.814.81c.217.27.489.432.815.594Z" fill="url(#Y)"/></g><g filter="url(#Z)"><path d="m15.596 10.632-.83 1.72c-.103.355.144.709.494.709h.746c.35 0 .598-.36.495-.708l-.505-1.721c-.108-.382-.286-.382-.4 0Z" fill="#71404A"/></g><g filter="url(#aa)"><path d="m15.489 10.466-.539 1.721a.546.546 0 0 0 .527.708h.797c.373 0 .636-.36.527-.708l-.538-1.72c-.116-.382-.654-.382-.775 0Z" fill="#8C5F5E"/><path d="m15.489 10.466-.539 1.721a.546.546 0 0 0 .527.708h.797c.373 0 .636-.36.527-.708l-.538-1.72c-.116-.382-.654-.382-.775 0Z" fill="url(#ab)"/><path d="m15.489 10.466-.539 1.721a.546.546 0 0 0 .527.708h.797c.373 0 .636-.36.527-.708l-.538-1.72c-.116-.382-.654-.382-.775 0Z" fill="url(#ac)"/><path d="m15.489 10.466-.539 1.721a.546.546 0 0 0 .527.708h.797c.373 0 .636-.36.527-.708l-.538-1.72c-.116-.382-.654-.382-.775 0Z" fill="url(#ad)"/><path d="m15.489 10.466-.539 1.721a.546.546 0 0 0 .527.708h.797c.373 0 .636-.36.527-.708l-.538-1.72c-.116-.382-.654-.382-.775 0Z" fill="url(#ae)"/></g><path d="M17.52 13.831a.19.19 0 0 0-.02-.243.205.205 0 0 0-.244-.04h-.001a2.976 2.976 0 0 1-1.38.327c-.505 0-.98-.12-1.379-.327a.205.205 0 0 0-.244.042.189.189 0 0 0-.02.242m3.288 0-.041-.028.041.027Zm0 0a1.967 1.967 0 0 1-1.644.878c-.69 0-1.297-.351-1.645-.878m0 0 .042-.028m-.042.028.042-.028m0 0c.339.514.93.856 1.603.856.673 0 1.263-.342 1.603-.856.087-.131-.062-.282-.2-.212a3.026 3.026 0 0 1-1.403.333c-.514 0-.997-.121-1.403-.333-.139-.07-.288.086-.2.212Z" fill="#88014F" stroke="url(#af)" stroke-width=".1"/><g filter="url(#ag)"><path d="M19.642 8.001h-.002l-.002-.002-.004-.004-.012-.01a1.358 1.358 0 0 0-.157-.109 2.617 2.617 0 0 0-.425-.213 2.868 2.868 0 0 0-1.511-.16.54.54 0 0 0 .168 1.067c.403-.063.725.011.946.098a1.535 1.535 0 0 1 .304.162l.008.006A.54.54 0 0 0 19.642 8Z" fill="#352827"/><path d="M19.642 8.001h-.002l-.002-.002-.004-.004-.012-.01a1.358 1.358 0 0 0-.157-.109 2.617 2.617 0 0 0-.425-.213 2.868 2.868 0 0 0-1.511-.16.54.54 0 0 0 .168 1.067c.403-.063.725.011.946.098a1.535 1.535 0 0 1 .304.162l.008.006A.54.54 0 0 0 19.642 8Z" fill="url(#ah)"/></g><g filter="url(#ai)"><path d="M12.054 8.001h.002l.002-.002.004-.004.013-.01a1.542 1.542 0 0 1 .156-.109c.101-.063.244-.142.425-.213.364-.144.883-.26 1.512-.16a.54.54 0 0 1-.169 1.067 1.788 1.788 0 0 0-.945.098 1.535 1.535 0 0 0-.312.168.54.54 0 0 1-.688-.835Z" fill="#352827"/><path d="M12.054 8.001h.002l.002-.002.004-.004.013-.01a1.542 1.542 0 0 1 .156-.109c.101-.063.244-.142.425-.213.364-.144.883-.26 1.512-.16a.54.54 0 0 1-.169 1.067 1.788 1.788 0 0 0-.945.098 1.535 1.535 0 0 0-.312.168.54.54 0 0 1-.688-.835Z" fill="url(#aj)"/></g><path d="M18.293 9.307c.662 0 1.22.455 1.372 1.072a.278.278 0 0 1-.271.345h-2.259a.233.233 0 0 1-.23-.276 1.415 1.415 0 0 1 1.388-1.141Z" fill="#fff"/><path d="M18.084 9.582a.904.904 0 0 1 .87 1.141H17.21a.907.907 0 0 1 .875-1.142Z" fill="url(#ak)"/><path d="M17.566 10.485c0-.287.23-.517.518-.517a.515.515 0 0 1 .46.755h-.916a.468.468 0 0 1-.062-.238Z" fill="#000"/><g filter="url(#al)"><path d="M18.017 9.773c.065.086-.07.19-.223.305-.153.115-.266.195-.33.109-.065-.086.007-.249.16-.363.153-.114.329-.137.393-.051Z" fill="#C7A7A3"/><path d="M18.017 9.773c.065.086-.07.19-.223.305-.153.115-.266.195-.33.109-.065-.086.007-.249.16-.363.153-.114.329-.137.393-.051Z" fill="url(#am)"/></g><g filter="url(#an)"><path d="M18.888 10.366a.85.85 0 0 0-.234-.468l-.263.289.119.23.378-.05Z" fill="url(#ao)"/></g><path d="M13.452 9.306c-.661 0-1.22.456-1.371 1.072a.278.278 0 0 0 .27.345h2.26a.233.233 0 0 0 .23-.275 1.418 1.418 0 0 0-1.389-1.142Z" fill="#fff"/><path d="M13.662 9.582a.903.903 0 0 0-.871 1.141h1.745a.927.927 0 0 0 .033-.238.91.91 0 0 0-.907-.903Z" fill="url(#ap)"/><path d="M14.18 10.485a.515.515 0 0 0-.518-.517.515.515 0 0 0-.46.755h.916a.513.513 0 0 0 .061-.238Z" fill="#000"/><g filter="url(#aq)"><path d="M14.487 10.379c0-.292-.237-.487-.302-.545l-.291.282.18.366.413-.103Z" fill="url(#ar)"/></g><g filter="url(#as)"><path fill="#C7A7A3" fill-opacity=".9" d="M13.04 10.152a.394.2-27.914 1 0 .698-.369.394.2-27.914 1 0-.698.37"/><path transform="rotate(-27.914 13.389 9.968)" fill="url(#at)" d="M12.995 9.968a.394.2 0 1 0 .789 0 .394.2 0 1 0-.79 0"/></g><g filter="url(#au)"><path d="M17.557 7.855c.435-.077 1.285-.055 1.873.403" stroke="url(#av)" stroke-width=".25" stroke-linecap="round"/></g><g filter="url(#aw)"><path d="M12.272 8.38c.33-.293 1.054-.602 1.951-.459" stroke="url(#ax)" stroke-width=".25" stroke-linecap="round"/></g><g filter="url(#ay)"><path d="M11.285 5.883v.91c-.008.15-.071.486-.261.629" stroke="url(#az)" stroke-width=".25" stroke-linecap="round"/></g><defs><radialGradient id="a" cx="0" cy="0" r="1" gradientUnits="userSpaceOnUse" gradientTransform="matrix(3.59375 -2.4375 2.72822 4.02238 6.877 17.33)"><stop stop-color="#E1DAE6"/><stop offset="1" stop-color="#E6DEE6"/></radialGradient><radialGradient id="b" cx="0" cy="0" r="1" gradientUnits="userSpaceOnUse" gradientTransform="matrix(-.01562 -1.76562 2.48224 -.02197 8.596 17.83)"><stop offset=".384" stop-color="#DAD4DE"/><stop offset="1" stop-color="#DAD4DE" stop-opacity="0"/></radialGradient><radialGradient id="c" cx="0" cy="0" r="1" gradientUnits="userSpaceOnUse" gradientTransform="matrix(-5.47138 9.4622 -7.02133 -4.05998 10.46 19.268)"><stop stop-color="#E0D6E3"/><stop offset="1" stop-color="#D5C4DF"/></radialGradient><radialGradient id="d" cx="0" cy="0" r="1" gradientUnits="userSpaceOnUse" gradientTransform="rotate(44.444 -1.585 1.225) scale(4.68833)"><stop stop-color="#FBF7FF"/><stop offset=".836" stop-color="#F2E8F1"/></radialGradient><radialGradient id="e" cx="0" cy="0" r="1" gradientUnits="userSpaceOnUse" gradientTransform="matrix(-.03125 -1.59375 5.11385 -.10027 2.316 5.313)"><stop offset=".201" stop-color="#E8DEE9"/><stop offset="1" stop-color="#E8DEE9" stop-opacity="0"/></radialGradient><radialGradient id="f" cx="0" cy="0" r="1" gradientUnits="userSpaceOnUse" gradientTransform="rotate(55.985 -.49 1.892) scale(8.85283 12.8565)"><stop offset=".192" stop-color="#F3EBFE"/><stop offset=".819" stop-color="#DAC9F0"/></radialGradient><radialGradient id="g" cx="0" cy="0" r="1" gradientUnits="userSpaceOnUse" gradientTransform="matrix(-1.35939 5.78125 -6.81223 -1.6018 23.096 22.58)"><stop stop-color="#469FF7"/><stop offset="1" stop-color="#3984F1"/></radialGradient><radialGradient id="j" cx="0" cy="0" r="1" gradientUnits="userSpaceOnUse" gradientTransform="rotate(49.58 -20.954 18.108) scale(10.6026 14.7076)"><stop stop-color="#4488CB"/><stop offset="1" stop-color="#2878EA"/></radialGradient><radialGradient id="l" cx="0" cy="0" r="1" gradientUnits="userSpaceOnUse" gradientTransform="rotate(136.439 3.601 10.943) scale(4.39871 9.16434)"><stop offset=".208" stop-color="#1D4C88"/><stop offset="1" stop-color="#296094" stop-opacity="0"/></radialGradient><radialGradient id="n" cx="0" cy="0" r="1" gradientUnits="userSpaceOnUse" gradientTransform="matrix(-4.82764 -11.66358 1.33169 -.5512 15.957 28.962)"><stop offset=".318" stop-color="#4690E8"/><stop offset="1" stop-color="#4690E8" stop-opacity="0"/></radialGradient><radialGradient id="p" cx="0" cy="0" r="1" gradientUnits="userSpaceOnUse" gradientTransform="matrix(-1.37282 -3.155 .92095 -.40073 16.346 27.58)"><stop stop-color="#214186"/><stop offset="1" stop-color="#1F78C3" stop-opacity="0"/></radialGradient><radialGradient id="q" cx="0" cy="0" r="1" gradientUnits="userSpaceOnUse" gradientTransform="matrix(-1.15863 -1.17796 1.62432 -1.59766 14.335 18.515)"><stop offset=".328" stop-color="#083169"/><stop offset="1" stop-color="#18467E" stop-opacity="0"/></radialGradient><radialGradient id="s" cx="0" cy="0" r="1" gradientUnits="userSpaceOnUse" gradientTransform="matrix(2.01563 -.67188 .83418 2.50254 17.502 18.33)"><stop offset=".374" stop-color="#114273"/><stop offset="1" stop-color="#245A89" stop-opacity="0"/></radialGradient><radialGradient id="t" cx="0" cy="0" r="1" gradientUnits="userSpaceOnUse" gradientTransform="rotate(110.875 2.49 18.294) scale(11.8396 2.00952)"><stop stop-color="#4A9CF7"/><stop offset="1" stop-color="#4695F7" stop-opacity="0"/></radialGradient><radialGradient id="w" cx="0" cy="0" r="1" gradientUnits="userSpaceOnUse" gradientTransform="matrix(1.8125 1.75 -2.19025 2.26847 13.158 17.204)"><stop offset=".275" stop-color="#5D2921"/><stop offset="1" stop-color="#714A3D" stop-opacity="0"/></radialGradient><radialGradient id="x" cx="0" cy="0" r="1" gradientUnits="userSpaceOnUse" gradientTransform="matrix(0 3.01211 -.76307 0 16.64 16.221)"><stop stop-color="#7D5855"/><stop offset="1" stop-color="#7D5855" stop-opacity="0"/></radialGradient><radialGradient id="A" cx="0" cy="0" r="1" gradientUnits="userSpaceOnUse" gradientTransform="matrix(1.77697 0 0 3.10972 9.377 10.755)"><stop offset=".351" stop-color="#664249"/><stop offset="1" stop-color="#613641"/></radialGradient><radialGradient id="F" cx="0" cy="0" r="1" gradientUnits="userSpaceOnUse" gradientTransform="matrix(.83712 -.60955 .69572 .95546 21.078 10.487)"><stop offset=".543" stop-color="#7C524C"/><stop offset="1" stop-color="#7C524C" stop-opacity="0"/></radialGradient><radialGradient id="H" cx="0" cy="0" r="1" gradientUnits="userSpaceOnUse" gradientTransform="matrix(.83161 -1.52957 .89526 .48674 20.659 11.587)"><stop offset=".755" stop-color="#73443E" stop-opacity="0"/><stop offset=".916" stop-color="#73443E"/></radialGradient><radialGradient id="I" cx="0" cy="0" r="1" gradientUnits="userSpaceOnUse" gradientTransform="matrix(.26256 .25989 -.33503 .33847 20.7 10.755)"><stop stop-color="#6C443E"/><stop offset="1" stop-color="#6C443E" stop-opacity="0"/></radialGradient><radialGradient id="L" cx="0" cy="0" r="1" gradientUnits="userSpaceOnUse" gradientTransform="matrix(0 -1.32355 1.62898 0 18.251 9.468)"><stop stop-color="#855354"/><stop offset="1" stop-color="#855354" stop-opacity="0"/></radialGradient><radialGradient id="M" cx="0" cy="0" r="1" gradientUnits="userSpaceOnUse" gradientTransform="matrix(0 -1.39142 1.73036 0 13.636 9.603)"><stop stop-color="#6F414D"/><stop offset="1" stop-color="#6F414D" stop-opacity="0"/></radialGradient><radialGradient id="P" cx="0" cy="0" r="1" gradientUnits="userSpaceOnUse" gradientTransform="matrix(0 8.958 -12.16 0 15.57 8.959)"><stop offset=".619" stop-color="#714250" stop-opacity="0"/><stop offset="1" stop-color="#5F3E52"/></radialGradient><radialGradient id="Q" cx="0" cy="0" r="1" gradientUnits="userSpaceOnUse" gradientTransform="matrix(-1.73876 -1.16972 .66579 -.98967 20.192 16.747)"><stop stop-color="#8B6A6B"/><stop offset="1" stop-color="#8B6A6B" stop-opacity="0"/></radialGradient><radialGradient id="R" cx="0" cy="0" r="1" gradientUnits="userSpaceOnUse" gradientTransform="matrix(2.62395 -.55088 .34893 1.66202 12.194 17.79)"><stop stop-color="#8B6A6B"/><stop offset="1" stop-color="#8B6A6B" stop-opacity="0"/></radialGradient><radialGradient id="V" cx="0" cy="0" r="1" gradientUnits="userSpaceOnUse" gradientTransform="matrix(.80787 -2.99388 1.44155 .38899 20.275 6.597)"><stop offset=".372" stop-color="#3D3437"/><stop offset="1" stop-color="#3D3437" stop-opacity="0"/></radialGradient><radialGradient id="W" cx="0" cy="0" r="1" gradientUnits="userSpaceOnUse" gradientTransform="matrix(3.87303 .35641 -.19164 2.0825 18.612 4.815)"><stop offset=".32" stop-color="#46383D"/><stop offset="1" stop-color="#46383D" stop-opacity="0"/></radialGradient><radialGradient id="X" cx="0" cy="0" r="1" gradientUnits="userSpaceOnUse" gradientTransform="matrix(0 1.70033 -2.63333 0 15.875 2.046)"><stop stop-color="#3E3034"/><stop offset="1" stop-color="#3E3034" stop-opacity="0"/></radialGradient><radialGradient id="Y" cx="0" cy="0" r="1" gradientUnits="userSpaceOnUse" gradientTransform="matrix(3.11268 -2.28105 3.57365 4.87654 9.345 8.95)"><stop stop-color="#453938"/><stop offset="1" stop-color="#453938" stop-opacity="0"/></radialGradient><radialGradient id="ae" cx="0" cy="0" r="1" gradientUnits="userSpaceOnUse" gradientTransform="matrix(0 .19938 -.64056 0 16.207 12.382)"><stop stop-color="#976F6A"/><stop offset="1" stop-color="#976F6A" stop-opacity="0"/></radialGradient><radialGradient id="ah" cx="0" cy="0" r="1" gradientUnits="userSpaceOnUse" gradientTransform="matrix(.1055 -.61087 1.8072 .31213 18.349 8.645)"><stop stop-color="#301A2D"/><stop offset="1" stop-color="#301A2D" stop-opacity="0"/></radialGradient><radialGradient id="aj" cx="0" cy="0" r="1" gradientUnits="userSpaceOnUse" gradientTransform="matrix(.10551 -.61087 1.8073 .31217 13.136 8.645)"><stop stop-color="#301A2D"/><stop offset="1" stop-color="#301A2D" stop-opacity="0"/></radialGradient><radialGradient id="ak" cx="0" cy="0" r="1" gradientUnits="userSpaceOnUse" gradientTransform="matrix(0 .82135 -1.30645 0 18.082 10.065)"><stop offset=".802" stop-color="#7D574A"/><stop offset="1" stop-color="#694B43"/><stop offset="1" stop-color="#804D49"/><stop offset="1" stop-color="#664944"/></radialGradient><radialGradient id="am" cx="0" cy="0" r="1" gradientUnits="userSpaceOnUse" gradientTransform="matrix(-.23479 -.30255 .41654 -.32324 17.85 10.15)"><stop offset=".766" stop-color="#FFE6E2" stop-opacity="0"/><stop offset=".966" stop-color="#FFE6E2"/></radialGradient><radialGradient id="ap" cx="0" cy="0" r="1" gradientUnits="userSpaceOnUse" gradientTransform="matrix(0 .8214 -1.30652 0 13.664 10.065)"><stop offset=".802" stop-color="#7D574A"/><stop offset="1" stop-color="#694B43"/><stop offset="1" stop-color="#804D49"/><stop offset="1" stop-color="#664944"/></radialGradient><radialGradient id="at" cx="0" cy="0" r="1" gradientUnits="userSpaceOnUse" gradientTransform="matrix(-.00783 -.5002 .60125 -.00941 13.374 10.287)"><stop offset=".766" stop-color="#FFE6E2" stop-opacity="0"/><stop offset=".966" stop-color="#FFE6E2"/></radialGradient><linearGradient id="h" x1="24.158" y1="30.329" x2="24.189" y2="26.673" gradientUnits="userSpaceOnUse"><stop offset=".078" stop-color="#286AF0"/><stop offset="1" stop-color="#3A87F2" stop-opacity="0"/></linearGradient><linearGradient id="i" x1="18.12" y1="27.765" x2="19.472" y2="28.151" gradientUnits="userSpaceOnUse"><stop stop-color="#2F6FEC"/><stop offset="1" stop-color="#2F6FEC" stop-opacity="0"/></linearGradient><linearGradient id="k" x1="13.928" y1="28.493" x2="11.678" y2="29.275" gradientUnits="userSpaceOnUse"><stop stop-color="#1D63C8"/><stop offset="1" stop-color="#2772E0" stop-opacity="0"/></linearGradient><linearGradient id="m" x1="12.314" y1="27.392" x2="13.689" y2="26.829" gradientUnits="userSpaceOnUse"><stop offset=".223" stop-color="#3A7CD9"/><stop offset="1" stop-color="#3A7CD9" stop-opacity="0"/></linearGradient><linearGradient id="o" x1="15.627" y1="30.173" x2="14.22" y2="29.486" gradientUnits="userSpaceOnUse"><stop offset=".208" stop-color="#236DD3"/><stop offset="1" stop-color="#236DD3" stop-opacity="0"/></linearGradient><linearGradient id="r" x1="16.002" y1="24.829" x2="18.033" y2="25.736" gradientUnits="userSpaceOnUse"><stop stop-color="#4B6B9A"/><stop offset="1" stop-color="#4B6B9A" stop-opacity="0"/></linearGradient><linearGradient id="v" x1="16.366" y1="25.145" x2="16.366" y2="15.619" gradientUnits="userSpaceOnUse"><stop stop-color="#835953"/><stop offset="1" stop-color="#855C4E"/></linearGradient><linearGradient id="C" x1="11.068" y1="11.037" x2="10.419" y2="11.037" gradientUnits="userSpaceOnUse"><stop stop-color="#553038"/><stop offset="1" stop-color="#59323C"/></linearGradient><linearGradient id="E" x1="21.801" y1="9.65" x2="20.972" y2="12.218" gradientUnits="userSpaceOnUse"><stop stop-color="#96776B"/><stop offset="1" stop-color="#855A5B"/></linearGradient><linearGradient id="K" x1="19.962" y1="11.149" x2="12.229" y2="12.302" gradientUnits="userSpaceOnUse"><stop stop-color="#9B6C5E"/><stop offset="1" stop-color="#744D4A"/></linearGradient><linearGradient id="N" x1="10.412" y1="13.88" x2="12.317" y2="13.812" gradientUnits="userSpaceOnUse"><stop stop-color="#84615A"/><stop offset="1" stop-color="#84615A" stop-opacity="0"/></linearGradient><linearGradient id="O" x1="20.801" y1="13.031" x2="19.732" y2="12.929" gradientUnits="userSpaceOnUse"><stop stop-color="#966D5F"/><stop offset="1" stop-color="#966D5F" stop-opacity="0"/></linearGradient><linearGradient id="T" x1="15.337" y1="8.127" x2="23.584" y2="5.175" gradientUnits="userSpaceOnUse"><stop offset=".109" stop-color="#A47F73"/><stop offset="1" stop-color="#A27B71" stop-opacity="0"/></linearGradient><linearGradient id="ab" x1="15" y1="11.817" x2="15.95" y2="11.817" gradientUnits="userSpaceOnUse"><stop stop-color="#754E46"/><stop offset="1" stop-color="#754E46" stop-opacity="0"/></linearGradient><linearGradient id="ac" x1="16.826" y1="12.144" x2="15.787" y2="12.129" gradientUnits="userSpaceOnUse"><stop stop-color="#9D766B"/><stop offset="1" stop-color="#9D766B" stop-opacity="0"/></linearGradient><linearGradient id="ad" x1="16.073" y1="12.895" x2="16.073" y2="12.315" gradientUnits="userSpaceOnUse"><stop stop-color="#7C4559"/><stop offset="1" stop-color="#7C4559" stop-opacity="0"/></linearGradient><linearGradient id="af" x1="14.825" y1="14.531" x2="15.266" y2="13.835" gradientUnits="userSpaceOnUse"><stop stop-color="#865E63"/><stop offset=".663" stop-color="#865E63" stop-opacity="0"/></linearGradient><linearGradient id="ao" x1="18.869" y1="10.119" x2="18.552" y2="10.315" gradientUnits="userSpaceOnUse"><stop stop-color="#B4948D"/><stop offset="1" stop-color="#B4948D" stop-opacity="0"/></linearGradient><linearGradient id="ar" x1="14.417" y1="10.119" x2="14.099" y2="10.315" gradientUnits="userSpaceOnUse"><stop stop-color="#B4948D"/><stop offset="1" stop-color="#B4948D" stop-opacity="0"/></linearGradient><linearGradient id="av" x1="18.885" y1="7.953" x2="18.46" y2="7.083" gradientUnits="userSpaceOnUse"><stop stop-color="#483E3E"/><stop offset="1" stop-color="#483E3E" stop-opacity="0"/></linearGradient><linearGradient id="ax" x1="13.514" y1="7.823" x2="12.31" y2="7.318" gradientUnits="userSpaceOnUse"><stop stop-color="#483E3E"/><stop offset="1" stop-color="#483E3E" stop-opacity="0"/></linearGradient><linearGradient id="az" x1="11.155" y1="5.783" x2="11.155" y2="7.968" gradientUnits="userSpaceOnUse"><stop offset=".228" stop-color="#32272D"/><stop offset="1" stop-color="#32272D" stop-opacity="0"/></linearGradient><filter id="u" x="12.293" y="16.517" width="6.906" height="10.938" filterUnits="userSpaceOnUse" color-interpolation-filters="sRGB"><feFlood flood-opacity="0" result="BackgroundImageFix"/><feBlend in="SourceGraphic" in2="BackgroundImageFix" result="shape"/><feColorMatrix in="SourceAlpha" values="0 0 0 0 0 0 0 0 0 0 0 0 0 0 0 0 0 0 127 0" result="hardAlpha"/><feOffset dx="-.25"/><feGaussianBlur stdDeviation=".5"/><feComposite in2="hardAlpha" operator="arithmetic" k2="-1" k3="1"/><feColorMatrix values="0 0 0 0 0.364706 0 0 0 0 0.160784 0 0 0 0 0.113725 0 0 0 1 0"/><feBlend in2="shape" result="effect1_innerShadow_4002_784"/></filter><filter id="y" x="15.251" y="17.275" width="3.075" height="1.977" filterUnits="userSpaceOnUse" color-interpolation-filters="sRGB"><feFlood flood-opacity="0" result="BackgroundImageFix"/><feBlend in="SourceGraphic" in2="BackgroundImageFix" result="shape"/><feGaussianBlur stdDeviation=".3" result="effect1_foregroundBlur_4002_784"/></filter><filter id="z" x="9.377" y="9.065" width="3.581" height="3.381" filterUnits="userSpaceOnUse" color-interpolation-filters="sRGB"><feFlood flood-opacity="0" result="BackgroundImageFix"/><feBlend in="SourceGraphic" in2="BackgroundImageFix" result="shape"/><feColorMatrix in="SourceAlpha" values="0 0 0 0 0 0 0 0 0 0 0 0 0 0 0 0 0 0 127 0" result="hardAlpha"/><feOffset dx=".2"/><feGaussianBlur stdDeviation=".15"/><feComposite in2="hardAlpha" operator="arithmetic" k2="-1" k3="1"/><feColorMatrix values="0 0 0 0 0.517647 0 0 0 0 0.384314 0 0 0 0 0.34902 0 0 0 1 0"/><feBlend in2="shape" result="effect1_innerShadow_4002_784"/></filter><filter id="B" x="9.56" y="9.248" width="3.015" height="3.015" filterUnits="userSpaceOnUse" color-interpolation-filters="sRGB"><feFlood flood-opacity="0" result="BackgroundImageFix"/><feBlend in="SourceGraphic" in2="BackgroundImageFix" result="shape"/><feGaussianBlur stdDeviation=".25" result="effect1_foregroundBlur_4002_784"/></filter><filter id="D" x="19.01" y="8.815" width="3.631" height="3.631" filterUnits="userSpaceOnUse" color-interpolation-filters="sRGB"><feFlood flood-opacity="0" result="BackgroundImageFix"/><feBlend in="SourceGraphic" in2="BackgroundImageFix" result="shape"/><feColorMatrix in="SourceAlpha" values="0 0 0 0 0 0 0 0 0 0 0 0 0 0 0 0 0 0 127 0" result="hardAlpha"/><feOffset dx=".25" dy="-.25"/><feGaussianBlur stdDeviation=".25"/><feComposite in2="hardAlpha" operator="arithmetic" k2="-1" k3="1"/><feColorMatrix values="0 0 0 0 0.482353 0 0 0 0 0.278431 0 0 0 0 0.372549 0 0 0 1 0"/><feBlend in2="shape" result="effect1_innerShadow_4002_784"/></filter><filter id="G" x="19.193" y="9.248" width="3.015" height="3.015" filterUnits="userSpaceOnUse" color-interpolation-filters="sRGB"><feFlood flood-opacity="0" result="BackgroundImageFix"/><feBlend in="SourceGraphic" in2="BackgroundImageFix" result="shape"/><feGaussianBlur stdDeviation=".25" result="effect1_foregroundBlur_4002_784"/></filter><filter id="J" x="10.652" y="5.06" width="10.504" height="12.329" filterUnits="userSpaceOnUse" color-interpolation-filters="sRGB"><feFlood flood-opacity="0" result="BackgroundImageFix"/><feBlend in="SourceGraphic" in2="BackgroundImageFix" result="shape"/><feColorMatrix in="SourceAlpha" values="0 0 0 0 0 0 0 0 0 0 0 0 0 0 0 0 0 0 127 0" result="hardAlpha"/><feOffset dy=".15"/><feGaussianBlur stdDeviation=".125"/><feComposite in2="hardAlpha" operator="arithmetic" k2="-1" k3="1"/><feColorMatrix values="0 0 0 0 0.254902 0 0 0 0 0.137255 0 0 0 0 0.113725 0 0 0 1 0"/><feBlend in2="shape" result="effect1_innerShadow_4002_784"/></filter><filter id="S" x="14.047" y="3.06" width="8.3" height="7.105" filterUnits="userSpaceOnUse" color-interpolation-filters="sRGB"><feFlood flood-opacity="0" result="BackgroundImageFix"/><feBlend in="SourceGraphic" in2="BackgroundImageFix" result="shape"/><feGaussianBlur stdDeviation="1" result="effect1_foregroundBlur_4002_784"/></filter><filter id="U" x="9.495" y="1.546" width="12.76" height="8.645" filterUnits="userSpaceOnUse" color-interpolation-filters="sRGB"><feFlood flood-opacity="0" result="BackgroundImageFix"/><feBlend in="SourceGraphic" in2="BackgroundImageFix" result="shape"/><feColorMatrix in="SourceAlpha" values="0 0 0 0 0 0 0 0 0 0 0 0 0 0 0 0 0 0 127 0" result="hardAlpha"/><feOffset dy="-.5"/><feGaussianBlur stdDeviation=".375"/><feComposite in2="hardAlpha" operator="arithmetic" k2="-1" k3="1"/><feColorMatrix values="0 0 0 0 0.0392157 0 0 0 0 0.00784314 0 0 0 0 0.0196078 0 0 0 1 0"/><feBlend in2="shape" result="effect1_innerShadow_4002_784"/></filter><filter id="Z" x="13.992" y="9.596" width="3.282" height="4.215" filterUnits="userSpaceOnUse" color-interpolation-filters="sRGB"><feFlood flood-opacity="0" result="BackgroundImageFix"/><feBlend in="SourceGraphic" in2="BackgroundImageFix" result="shape"/><feGaussianBlur stdDeviation=".375" result="effect1_foregroundBlur_4002_784"/></filter><filter id="aa" x="14.675" y="9.93" width="2.4" height="3.215" filterUnits="userSpaceOnUse" color-interpolation-filters="sRGB"><feFlood flood-opacity="0" result="BackgroundImageFix"/><feBlend in="SourceGraphic" in2="BackgroundImageFix" result="shape"/><feGaussianBlur stdDeviation=".125" result="effect1_foregroundBlur_4002_784"/></filter><filter id="ag" x="17.072" y="7.066" width="3.014" height="1.891" filterUnits="userSpaceOnUse" color-interpolation-filters="sRGB"><feFlood flood-opacity="0" result="BackgroundImageFix"/><feBlend in="SourceGraphic" in2="BackgroundImageFix" result="shape"/><feColorMatrix in="SourceAlpha" values="0 0 0 0 0 0 0 0 0 0 0 0 0 0 0 0 0 0 127 0" result="hardAlpha"/><feOffset dx=".25" dy="-.4"/><feGaussianBlur stdDeviation=".3"/><feComposite in2="hardAlpha" operator="arithmetic" k2="-1" k3="1"/><feColorMatrix values="0 0 0 0 0.156863 0 0 0 0 0.0784314 0 0 0 0 0.109804 0 0 0 1 0"/><feBlend in2="shape" result="effect1_innerShadow_4002_784"/></filter><filter id="ai" x="11.86" y="7.066" width="3.014" height="1.891" filterUnits="userSpaceOnUse" color-interpolation-filters="sRGB"><feFlood flood-opacity="0" result="BackgroundImageFix"/><feBlend in="SourceGraphic" in2="BackgroundImageFix" result="shape"/><feColorMatrix in="SourceAlpha" values="0 0 0 0 0 0 0 0 0 0 0 0 0 0 0 0 0 0 127 0" result="hardAlpha"/><feOffset dx=".25" dy="-.4"/><feGaussianBlur stdDeviation=".3"/><feComposite in2="hardAlpha" operator="arithmetic" k2="-1" k3="1"/><feColorMatrix values="0 0 0 0 0.156863 0 0 0 0 0.0784314 0 0 0 0 0.109804 0 0 0 1 0"/><feBlend in2="shape" result="effect1_innerShadow_4002_784"/></filter><filter id="al" x="17.34" y="9.621" width=".794" height=".702" filterUnits="userSpaceOnUse" color-interpolation-filters="sRGB"><feFlood flood-opacity="0" result="BackgroundImageFix"/><feBlend in="SourceGraphic" in2="BackgroundImageFix" result="shape"/><feGaussianBlur stdDeviation=".05" result="effect1_foregroundBlur_4002_784"/></filter><filter id="an" x="18.191" y="9.698" width=".897" height=".92" filterUnits="userSpaceOnUse" color-interpolation-filters="sRGB"><feFlood flood-opacity="0" result="BackgroundImageFix"/><feBlend in="SourceGraphic" in2="BackgroundImageFix" result="shape"/><feGaussianBlur stdDeviation=".1" result="effect1_foregroundBlur_4002_784"/></filter><filter id="aq" x="13.694" y="9.633" width=".994" height="1.048" filterUnits="userSpaceOnUse" color-interpolation-filters="sRGB"><feFlood flood-opacity="0" result="BackgroundImageFix"/><feBlend in="SourceGraphic" in2="BackgroundImageFix" result="shape"/><feGaussianBlur stdDeviation=".1" result="effect1_foregroundBlur_4002_784"/></filter><filter id="as" x="12.928" y="9.612" width=".922" height=".711" filterUnits="userSpaceOnUse" color-interpolation-filters="sRGB"><feFlood flood-opacity="0" result="BackgroundImageFix"/><feBlend in="SourceGraphic" in2="BackgroundImageFix" result="shape"/><feGaussianBlur stdDeviation=".05" result="effect1_foregroundBlur_4002_784"/></filter><filter id="au" x="16.932" y="7.196" width="3.123" height="1.687" filterUnits="userSpaceOnUse" color-interpolation-filters="sRGB"><feFlood flood-opacity="0" result="BackgroundImageFix"/><feBlend in="SourceGraphic" in2="BackgroundImageFix" result="shape"/><feGaussianBlur stdDeviation=".25" result="effect1_foregroundBlur_4002_784"/></filter><filter id="aw" x="11.647" y="7.26" width="3.201" height="1.744" filterUnits="userSpaceOnUse" color-interpolation-filters="sRGB"><feFlood flood-opacity="0" result="BackgroundImageFix"/><feBlend in="SourceGraphic" in2="BackgroundImageFix" result="shape"/><feGaussianBlur stdDeviation=".25" result="effect1_foregroundBlur_4002_784"/></filter><filter id="ay" x="10.649" y="5.508" width="1.011" height="2.289" filterUnits="userSpaceOnUse" color-interpolation-filters="sRGB"><feFlood flood-opacity="0" result="BackgroundImageFix"/><feBlend in="SourceGraphic" in2="BackgroundImageFix" result="shape"/><feGaussianBlur stdDeviation=".125" result="effect1_foregroundBlur_4002_784"/></filter></defs></svg>