<svg width="32" height="32" fill="none" xmlns="http://www.w3.org/2000/svg"><path d="M16.485 15.525c-6.07 0-11 4.92-11 11v3.5h21.99v-3.5c0-6.08-4.92-11-10.99-11Z" fill="#56436B"/><path d="M16.485 15.525c-6.07 0-11 4.92-11 11v3.5h21.99v-3.5c0-6.08-4.92-11-10.99-11Z" fill="url(#a)"/><path d="M16.485 15.525c-6.07 0-11 4.92-11 11v3.5h21.99v-3.5c0-6.08-4.92-11-10.99-11Z" fill="url(#b)"/><path d="M23.5 18.125a.242.242 0 0 0-.058-.29c-1.856-1.603-4.346-2.487-6.954-2.487-2.608 0-5.113.894-6.97 2.487a.242.242 0 0 0-.06.29c1.276 2.6 3.756 4.614 7.03 4.614 3.274 0 5.73-2.015 7.013-4.614Z" fill="url(#c)"/><path d="M23.5 18.125a.242.242 0 0 0-.058-.29c-1.856-1.603-4.346-2.487-6.954-2.487-2.608 0-5.113.894-6.97 2.487a.242.242 0 0 0-.06.29c1.276 2.6 3.756 4.614 7.03 4.614 3.274 0 5.73-2.015 7.013-4.614Z" fill="url(#d)"/><path d="M23.5 18.125a.242.242 0 0 0-.058-.29c-1.856-1.603-4.346-2.487-6.954-2.487-2.608 0-5.113.894-6.97 2.487a.242.242 0 0 0-.06.29c1.276 2.6 3.756 4.614 7.03 4.614 3.274 0 5.73-2.015 7.013-4.614Z" fill="url(#e)"/><path d="M23.5 18.125a.242.242 0 0 0-.058-.29c-1.856-1.603-4.346-2.487-6.954-2.487-2.608 0-5.113.894-6.97 2.487a.242.242 0 0 0-.06.29c1.276 2.6 3.756 4.614 7.03 4.614 3.274 0 5.73-2.015 7.013-4.614Z" fill="url(#f)"/><path d="M23.5 18.125a.242.242 0 0 0-.058-.29c-1.856-1.603-4.346-2.487-6.954-2.487-2.608 0-5.113.894-6.97 2.487a.242.242 0 0 0-.06.29c1.276 2.6 3.756 4.614 7.03 4.614 3.274 0 5.73-2.015 7.013-4.614Z" fill="url(#g)"/><path d="M23.5 18.125a.242.242 0 0 0-.058-.29c-1.856-1.603-4.346-2.487-6.954-2.487-2.608 0-5.113.894-6.97 2.487a.242.242 0 0 0-.06.29c1.276 2.6 3.756 4.614 7.03 4.614 3.274 0 5.73-2.015 7.013-4.614Z" fill="url(#h)"/><g filter="url(#i)"><path d="M16.186 18.896c.063.043.17.08.28.084a.563.563 0 0 0 .28-.084c1.017-.696 1.78-1.39 1.78-2.587v-3.633c0-1.14-.92-2.06-2.06-2.06-1.14 0-2.06.92-2.06 2.06v3.633c0 1.197.763 1.89 1.78 2.587Z" stroke="#1F0F21" stroke-width=".4"/></g><path d="M16.186 18.896c.063.043.17.08.28.084a.563.563 0 0 0 .28-.084c1.017-.696 1.78-1.39 1.78-2.587v-3.633c0-1.14-.92-2.06-2.06-2.06-1.14 0-2.06.92-2.06 2.06v3.633c0 1.197.763 1.89 1.78 2.587Z" fill="url(#j)"/><path d="M16.186 18.896c.063.043.17.08.28.084a.563.563 0 0 0 .28-.084c1.017-.696 1.78-1.39 1.78-2.587v-3.633c0-1.14-.92-2.06-2.06-2.06-1.14 0-2.06.92-2.06 2.06v3.633c0 1.197.763 1.89 1.78 2.587Z" fill="url(#k)"/><path d="M16.186 18.896c.063.043.17.08.28.084a.563.563 0 0 0 .28-.084c1.017-.696 1.78-1.39 1.78-2.587v-3.633c0-1.14-.92-2.06-2.06-2.06-1.14 0-2.06.92-2.06 2.06v3.633c0 1.197.763 1.89 1.78 2.587Z" fill="url(#l)"/><path d="M25.213 11.698V2.835h-.8v8.863h.8Z" fill="url(#m)"/><path d="M25.213 11.698V2.835h-.8v8.863h.8Z" fill="url(#n)"/><path d="M24.413 11.675a.838.838 0 1 0 .8 0h-.8Z" fill="url(#o)"/><path d="M24.413 11.675a.838.838 0 1 0 .8 0h-.8Z" fill="url(#p)"/><g filter="url(#q)"><path d="M24.916 3.74v7.767" stroke="url(#r)" stroke-width=".15"/></g><path d="m23.96 13.636-.517 2.238a.45.45 0 0 0 .445.551h1.863a.45.45 0 0 0 .43-.557l-.542-2.239a.5.5 0 0 0-.485-.381h-.707a.5.5 0 0 0-.488.388Z" fill="url(#s)"/><path d="m23.96 13.636-.517 2.238a.45.45 0 0 0 .445.551h1.863a.45.45 0 0 0 .43-.557l-.542-2.239a.5.5 0 0 0-.485-.381h-.707a.5.5 0 0 0-.488.388Z" fill="url(#t)"/><path d="m23.96 13.636-.517 2.238a.45.45 0 0 0 .445.551h1.863a.45.45 0 0 0 .43-.557l-.542-2.239a.5.5 0 0 0-.485-.381h-.707a.5.5 0 0 0-.488.388Z" fill="url(#u)"/><path d="m23.96 13.636-.517 2.238a.45.45 0 0 0 .445.551h1.863a.45.45 0 0 0 .43-.557l-.542-2.239a.5.5 0 0 0-.485-.381h-.707a.5.5 0 0 0-.488.388Z" fill="url(#v)"/><path d="m23.96 13.636-.517 2.238a.45.45 0 0 0 .445.551h1.863a.45.45 0 0 0 .43-.557l-.542-2.239a.5.5 0 0 0-.485-.381h-.707a.5.5 0 0 0-.488.388Z" fill="url(#w)"/><path d="M9.25 30.026V18.239a10.972 10.972 0 0 0-3.765 8.287v3.5H9.25Z" fill="url(#x)"/><path d="M9.25 30.026V18.239a10.972 10.972 0 0 0-3.765 8.287v3.5H9.25Z" fill="url(#y)"/><path d="M9.25 30.026V18.239a10.972 10.972 0 0 0-3.765 8.287v3.5H9.25Z" fill="url(#z)"/><path d="M23.71 30.026V18.239a10.972 10.972 0 0 1 3.765 8.287v3.5H23.71Z" fill="url(#A)"/><path d="M23.71 30.026V18.239a10.972 10.972 0 0 1 3.765 8.287v3.5H23.71Z" fill="url(#B)"/><g filter="url(#C)"><path d="M12.148 23.802c0-.188.155-.34.346-.34.19 0 .345.152.345.34v6.093h-.691v-6.093Z" fill="url(#D)"/><path d="M16.134 23.802c0-.188.155-.34.346-.34.19 0 .346.152.346.34v6.093h-.692v-6.093Z" fill="url(#E)"/><path d="M20.12 23.802c0-.188.155-.34.346-.34.191 0 .346.152.346.34v6.093h-.691v-6.093Z" fill="url(#F)"/></g><g filter="url(#G)"><path d="M13.432 4.116c.024.255.246 1.214.572 1.794" stroke="url(#H)" stroke-width=".1" stroke-linecap="round"/></g><g filter="url(#I)"><circle cx="11.684" cy="10.698" r="1.683" fill="url(#J)"/></g><g filter="url(#K)"><circle cx="11.684" cy="10.698" r="1.003" fill="url(#L)"/></g><g filter="url(#M)"><circle cx="21.276" cy="10.698" r="1.683" fill="url(#N)"/><circle cx="21.276" cy="10.698" r="1.683" fill="url(#O)"/></g><g filter="url(#P)"><circle cx="21.276" cy="10.698" r="1.003" fill="#7A5654"/><circle cx="21.276" cy="10.698" r="1.003" fill="url(#Q)"/><circle cx="21.276" cy="10.698" r="1.003" fill="url(#R)"/></g><g filter="url(#S)"><path d="M11.33 10.08a.735.735 0 0 0 .049.002s-.054-.86-.108-1.452c0-.269.108-.591.324-.753l.162-.16c.27-.216.379-.539.379-.861v-.86c0-.27.162-.485.433-.538.648-.162 2-.43 3.947-.43 1.948 0 3.3.268 3.949.43.216.053.432.268.432.537v.86c0 .323.163.646.379.861.506.355.475.55.433.968-.055.538-.109 1.452-.109 1.452h.019l-.268 3.99c-.162 1.785-1.565 3.029-3.237 3.029h-3.237c-1.727 0-3.075-1.244-3.237-3.028l-.31-4.046Z" fill="url(#T)"/><path d="M11.33 10.08a.735.735 0 0 0 .049.002s-.054-.86-.108-1.452c0-.269.108-.591.324-.753l.162-.16c.27-.216.379-.539.379-.861v-.86c0-.27.162-.485.433-.538.648-.162 2-.43 3.947-.43 1.948 0 3.3.268 3.949.43.216.053.432.268.432.537v.86c0 .323.163.646.379.861.506.355.475.55.433.968-.055.538-.109 1.452-.109 1.452h.019l-.268 3.99c-.162 1.785-1.565 3.029-3.237 3.029h-3.237c-1.727 0-3.075-1.244-3.237-3.028l-.31-4.046Z" fill="url(#U)"/><path d="M11.33 10.08a.735.735 0 0 0 .049.002s-.054-.86-.108-1.452c0-.269.108-.591.324-.753l.162-.16c.27-.216.379-.539.379-.861v-.86c0-.27.162-.485.433-.538.648-.162 2-.43 3.947-.43 1.948 0 3.3.268 3.949.43.216.053.432.268.432.537v.86c0 .323.163.646.379.861.506.355.475.55.433.968-.055.538-.109 1.452-.109 1.452h.019l-.268 3.99c-.162 1.785-1.565 3.029-3.237 3.029h-3.237c-1.727 0-3.075-1.244-3.237-3.028l-.31-4.046Z" fill="url(#V)"/></g><path d="M11.27 8.63c0-.269.109-.591.325-.753l.162-.16c.27-.216.379-.539.379-.861v-.86c0-.27.162-.485.433-.538.648-.162 2-.43 3.947-.43 1.948 0 3.3.268 3.949.43.216.053.432.268.432.537v.86c0 .323.163.646.379.861.506.355.475.55.433.968-.055.538-.109 1.452-.109 1.452h.019l-.268 3.99c-.162 1.785-1.565 3.029-3.237 3.029h-3.237c-1.727 0-3.075-1.244-3.237-3.028-.14-1.832-.202-3.668-.37-5.497Z" fill="url(#W)"/><path d="M11.27 8.63c0-.269.109-.591.325-.753l.162-.16c.27-.216.379-.539.379-.861v-.86c0-.27.162-.485.433-.538.648-.162 2-.43 3.947-.43 1.948 0 3.3.268 3.949.43.216.053.432.268.432.537v.86c0 .323.163.646.379.861.506.355.475.55.433.968-.055.538-.109 1.452-.109 1.452h.019l-.268 3.99c-.162 1.785-1.565 3.029-3.237 3.029h-3.237c-1.727 0-3.075-1.244-3.237-3.028-.14-1.832-.202-3.668-.37-5.497Z" fill="url(#X)"/><path d="M11.27 8.63c0-.269.109-.591.325-.753l.162-.16c.27-.216.379-.539.379-.861v-.86c0-.27.162-.485.433-.538.648-.162 2-.43 3.947-.43 1.948 0 3.3.268 3.949.43.216.053.432.268.432.537v.86c0 .323.163.646.379.861.506.355.475.55.433.968-.055.538-.109 1.452-.109 1.452h.019l-.268 3.99c-.162 1.785-1.565 3.029-3.237 3.029h-3.237c-1.727 0-3.075-1.244-3.237-3.028-.14-1.832-.202-3.668-.37-5.497Z" fill="url(#Y)"/><path d="M11.27 8.63c0-.269.109-.591.325-.753l.162-.16c.27-.216.379-.539.379-.861v-.86c0-.27.162-.485.433-.538.648-.162 2-.43 3.947-.43 1.948 0 3.3.268 3.949.43.216.053.432.268.432.537v.86c0 .323.163.646.379.861.506.355.475.55.433.968-.055.538-.109 1.452-.109 1.452h.019l-.268 3.99c-.162 1.785-1.565 3.029-3.237 3.029h-3.237c-1.727 0-3.075-1.244-3.237-3.028-.14-1.832-.202-3.668-.37-5.497Z" fill="url(#Z)"/><g filter="url(#aa)"><path d="m20.461 5.662-3.103 1.034a1.056 1.056 0 0 0 .474 2.048l3.085-.413-.456-2.67Z" fill="url(#ab)"/></g><g filter="url(#ac)"><path d="m21.33 4.167.433.215c.757.376 1.19 1.237 1.027 2.151l-.595 3.065c-.053.317-.262.53-.576.538H21.6s.054-.914.108-1.452c.044-.437-.032-.57-.432-.968-.216-.215-.379-.538-.379-.86v-.86c0-.27-.216-.485-.432-.539-.65-.16-2.002-.43-3.948-.43-1.947 0-3.3.27-3.948.43a.524.524 0 0 0-.433.538v.86c0 .323-.108.646-.379.861l-.162.161c-.216.162-.325.484-.325.753.055.592.109 1.452.109 1.452-.017 0-.034 0-.05-.002a.639.639 0 0 1-.6-.536l-.594-3.065c-.108-.86.324-1.72 1.081-2.097l.433-.215c.27-.161.54-.376.811-.592l.974-1.021c.595-.538 1.46-.7 2.217-.323.541.161 1.136.161 1.677 0 .811-.269 1.73-.054 2.38.538l.81.806c.217.27.487.43.812.592Z" fill="#27151C"/><path d="m21.33 4.167.433.215c.757.376 1.19 1.237 1.027 2.151l-.595 3.065c-.053.317-.262.53-.576.538H21.6s.054-.914.108-1.452c.044-.437-.032-.57-.432-.968-.216-.215-.379-.538-.379-.86v-.86c0-.27-.216-.485-.432-.539-.65-.16-2.002-.43-3.948-.43-1.947 0-3.3.27-3.948.43a.524.524 0 0 0-.433.538v.86c0 .323-.108.646-.379.861l-.162.161c-.216.162-.325.484-.325.753.055.592.109 1.452.109 1.452-.017 0-.034 0-.05-.002a.639.639 0 0 1-.6-.536l-.594-3.065c-.108-.86.324-1.72 1.081-2.097l.433-.215c.27-.161.54-.376.811-.592l.974-1.021c.595-.538 1.46-.7 2.217-.323.541.161 1.136.161 1.677 0 .811-.269 1.73-.054 2.38.538l.81.806c.217.27.487.43.812.592Z" fill="url(#ad)"/><path d="m21.33 4.167.433.215c.757.376 1.19 1.237 1.027 2.151l-.595 3.065c-.053.317-.262.53-.576.538H21.6s.054-.914.108-1.452c.044-.437-.032-.57-.432-.968-.216-.215-.379-.538-.379-.86v-.86c0-.27-.216-.485-.432-.539-.65-.16-2.002-.43-3.948-.43-1.947 0-3.3.27-3.948.43a.524.524 0 0 0-.433.538v.86c0 .323-.108.646-.379.861l-.162.161c-.216.162-.325.484-.325.753.055.592.109 1.452.109 1.452-.017 0-.034 0-.05-.002a.639.639 0 0 1-.6-.536l-.594-3.065c-.108-.86.324-1.72 1.081-2.097l.433-.215c.27-.161.54-.376.811-.592l.974-1.021c.595-.538 1.46-.7 2.217-.323.541.161 1.136.161 1.677 0 .811-.269 1.73-.054 2.38.538l.81.806c.217.27.487.43.812.592Z" fill="url(#ae)"/><path d="m21.33 4.167.433.215c.757.376 1.19 1.237 1.027 2.151l-.595 3.065c-.053.317-.262.53-.576.538H21.6s.054-.914.108-1.452c.044-.437-.032-.57-.432-.968-.216-.215-.379-.538-.379-.86v-.86c0-.27-.216-.485-.432-.539-.65-.16-2.002-.43-3.948-.43-1.947 0-3.3.27-3.948.43a.524.524 0 0 0-.433.538v.86c0 .323-.108.646-.379.861l-.162.161c-.216.162-.325.484-.325.753.055.592.109 1.452.109 1.452-.017 0-.034 0-.05-.002a.639.639 0 0 1-.6-.536l-.594-3.065c-.108-.86.324-1.72 1.081-2.097l.433-.215c.27-.161.54-.376.811-.592l.974-1.021c.595-.538 1.46-.7 2.217-.323.541.161 1.136.161 1.677 0 .811-.269 1.73-.054 2.38.538l.81.806c.217.27.487.43.812.592Z" fill="url(#af)"/><path d="m21.33 4.167.433.215c.757.376 1.19 1.237 1.027 2.151l-.595 3.065c-.053.317-.262.53-.576.538H21.6s.054-.914.108-1.452c.044-.437-.032-.57-.432-.968-.216-.215-.379-.538-.379-.86v-.86c0-.27-.216-.485-.432-.539-.65-.16-2.002-.43-3.948-.43-1.947 0-3.3.27-3.948.43a.524.524 0 0 0-.433.538v.86c0 .323-.108.646-.379.861l-.162.161c-.216.162-.325.484-.325.753.055.592.109 1.452.109 1.452-.017 0-.034 0-.05-.002a.639.639 0 0 1-.6-.536l-.594-3.065c-.108-.86.324-1.72 1.081-2.097l.433-.215c.27-.161.54-.376.811-.592l.974-1.021c.595-.538 1.46-.7 2.217-.323.541.161 1.136.161 1.677 0 .811-.269 1.73-.054 2.38.538l.81.806c.217.27.487.43.812.592Z" fill="url(#ag)"/></g><g filter="url(#ah)"><path d="m16.194 10.575-.827 1.714c-.103.352.143.705.492.705h.743c.349 0 .595-.358.492-.705l-.502-1.714c-.108-.38-.286-.38-.398 0Z" fill="#71404A"/></g><g filter="url(#ai)"><path d="m16.086 10.41-.536 1.714a.544.544 0 0 0 .525.705h.793a.545.545 0 0 0 .524-.705l-.535-1.713c-.115-.38-.65-.38-.771 0Z" fill="#805550"/><path d="m16.086 10.41-.536 1.714a.544.544 0 0 0 .525.705h.793a.545.545 0 0 0 .524-.705l-.535-1.713c-.115-.38-.65-.38-.771 0Z" fill="url(#aj)"/><path d="m16.086 10.41-.536 1.714a.544.544 0 0 0 .525.705h.793a.545.545 0 0 0 .524-.705l-.535-1.713c-.115-.38-.65-.38-.771 0Z" fill="url(#ak)"/><path d="m16.086 10.41-.536 1.714a.544.544 0 0 0 .525.705h.793a.545.545 0 0 0 .524-.705l-.535-1.713c-.115-.38-.65-.38-.771 0Z" fill="url(#al)"/><path d="m16.086 10.41-.536 1.714a.544.544 0 0 0 .525.705h.793a.545.545 0 0 0 .524-.705l-.535-1.713c-.115-.38-.65-.38-.771 0Z" fill="url(#am)"/></g><path d="m16.086 10.41-.536 1.714a.544.544 0 0 0 .525.705h.793a.545.545 0 0 0 .524-.705l-.535-1.713c-.115-.38-.65-.38-.771 0Z" fill="url(#an)"/><path d="M18.109 13.761a.19.19 0 0 0-.021-.243.204.204 0 0 0-.243-.04 2.963 2.963 0 0 1-1.374.326c-.504 0-.976-.119-1.373-.326a.204.204 0 0 0-.244.042.188.188 0 0 0-.02.241m3.275 0-.042-.027.042.027Zm0 0c-.347.525-.95.875-1.638.875-.687 0-1.29-.35-1.637-.875m0 0 .041-.027m-.041.027.041-.027m0 0c.338.511.926.852 1.596.852s1.259-.34 1.596-.853c.087-.13-.061-.28-.2-.21-.403.21-.88.33-1.396.33-.511 0-.992-.12-1.396-.33-.138-.07-.287.085-.2.21Z" fill="#88014F" stroke="url(#ao)" stroke-width=".1"/><g filter="url(#ap)"><path d="m20.222 7.956-.002-.001-.002-.002-.004-.004-.012-.01a1.46 1.46 0 0 0-.156-.108 2.605 2.605 0 0 0-.424-.212 2.856 2.856 0 0 0-1.505-.16.538.538 0 1 0 .168 1.063c.401-.063.723.011.942.098a1.533 1.533 0 0 1 .31.166.538.538 0 0 0 .685-.83Z" fill="#352827"/><path d="m20.222 7.956-.002-.001-.002-.002-.004-.004-.012-.01a1.46 1.46 0 0 0-.156-.108 2.605 2.605 0 0 0-.424-.212 2.856 2.856 0 0 0-1.505-.16.538.538 0 1 0 .168 1.063c.401-.063.723.011.942.098a1.533 1.533 0 0 1 .31.166.538.538 0 0 0 .685-.83Z" fill="url(#aq)"/></g><g filter="url(#ar)"><path d="M12.666 7.956h.001l.001-.001.002-.002.004-.004.013-.01.036-.027c.03-.021.07-.05.12-.08.1-.064.243-.142.423-.213a2.856 2.856 0 0 1 1.505-.16.538.538 0 0 1-.168 1.063 1.78 1.78 0 0 0-.941.098 1.527 1.527 0 0 0-.311.166.538.538 0 0 1-.685-.83Z" fill="#352827"/><path d="M12.666 7.956h.001l.001-.001.002-.002.004-.004.013-.01.036-.027c.03-.021.07-.05.12-.08.1-.064.243-.142.423-.213a2.856 2.856 0 0 1 1.505-.16.538.538 0 0 1-.168 1.063 1.78 1.78 0 0 0-.941.098 1.527 1.527 0 0 0-.311.166.538.538 0 0 1-.685-.83Z" fill="url(#as)"/></g><path d="M18.879 9.256c.658 0 1.214.454 1.365 1.067a.276.276 0 0 1-.27.344h-2.248a.232.232 0 0 1-.23-.274 1.409 1.409 0 0 1 1.383-1.137Z" fill="#fff"/><path d="M18.67 9.53a.9.9 0 0 1 .867 1.137H17.8a.903.903 0 0 1 .871-1.137Z" fill="url(#at)"/><path d="M18.155 10.43c0-.287.229-.516.515-.516a.513.513 0 0 1 .458.752h-.912a.466.466 0 0 1-.061-.237Z" fill="#000"/><g filter="url(#au)"><path d="M18.605 9.72c.065.085-.07.19-.222.304-.153.114-.266.195-.33.109-.065-.086.007-.248.16-.363.152-.114.328-.137.392-.05Z" fill="#C7A7A3"/><path d="M18.605 9.72c.065.085-.07.19-.222.304-.153.114-.266.195-.33.109-.065-.086.007-.248.16-.363.152-.114.328-.137.392-.05Z" fill="url(#av)"/></g><g filter="url(#aw)"><path d="M19.473 10.312a.849.849 0 0 0-.234-.467l-.263.288.119.23.378-.05Z" fill="url(#ax)"/></g><path d="M14.059 9.256c-.659 0-1.215.454-1.366 1.067a.276.276 0 0 0 .27.344h2.249c.143 0 .257-.131.229-.274a1.412 1.412 0 0 0-1.383-1.137Z" fill="#fff"/><path d="M14.267 9.53a.9.9 0 0 0-.867 1.137h1.738a.92.92 0 0 0 .033-.237.906.906 0 0 0-.904-.9Z" fill="url(#ay)"/><path d="M14.782 10.43a.513.513 0 0 0-.515-.516.513.513 0 0 0-.458.752h.912a.51.51 0 0 0 .061-.237Z" fill="#000"/><g filter="url(#az)"><path d="M15.09 10.325c0-.291-.237-.486-.3-.544l-.292.282.18.365.412-.103Z" fill="url(#aA)"/></g><g filter="url(#aB)" transform="rotate(-27.914 13.996 9.914)"><ellipse cx="13.996" cy="9.914" rx=".394" ry=".199" fill="#C7A7A3" fill-opacity=".9"/><ellipse cx="13.996" cy="9.914" rx=".394" ry=".199" fill="url(#aC)"/></g><g filter="url(#aD)"><path d="M18.146 7.81c.433-.076 1.279-.054 1.864.401" stroke="url(#aE)" stroke-width=".2" stroke-linecap="round"/></g><g filter="url(#aF)"><path d="M12.883 8.333c.33-.292 1.05-.599 1.943-.457" stroke="url(#aG)" stroke-width=".2" stroke-linecap="round"/></g><g filter="url(#aH)"><path d="M11.9 5.847v.905c-.007.15-.07.485-.26.627" stroke="url(#aI)" stroke-width=".25" stroke-linecap="round"/></g><g filter="url(#aJ)"><path d="m10.315 5.239 1.186-1.953 9.844-.11 1.23 1.974c-4.663 1.61-10.17.823-12.26.089Z" fill="url(#aK)"/><path d="m10.315 5.239 1.186-1.953 9.844-.11 1.23 1.974c-4.663 1.61-10.17.823-12.26.089Z" fill="url(#aL)"/></g><path d="M24.423 3.636H8.453c-.44 0-.8-.36-.8-.8 0-.44.36-.8.8-.8h15.96c.44 0 .8.36.8.8.01.44-.35.8-.79.8Z" fill="url(#aM)"/><path d="M24.423 3.636H8.453c-.44 0-.8-.36-.8-.8 0-.44.36-.8.8-.8h15.96c.44 0 .8.36.8.8.01.44-.35.8-.79.8Z" fill="url(#aN)"/><path d="M24.423 3.636H8.453c-.44 0-.8-.36-.8-.8 0-.44.36-.8.8-.8h15.96c.44 0 .8.36.8.8.01.44-.35.8-.79.8Z" fill="url(#aO)"/><defs><radialGradient id="a" cx="0" cy="0" r="1" gradientUnits="userSpaceOnUse" gradientTransform="matrix(0 10.875 -3.65625 0 23.782 23.145)"><stop stop-color="#70647F"/><stop offset="1" stop-color="#70647F" stop-opacity="0"/></radialGradient><radialGradient id="b" cx="0" cy="0" r="1" gradientUnits="userSpaceOnUse" gradientTransform="matrix(1.3125 0 0 7.0625 9.188 21.488)"><stop stop-color="#5D516A"/><stop offset="1" stop-color="#5D516A" stop-opacity="0"/></radialGradient><radialGradient id="c" cx="0" cy="0" r="1" gradientUnits="userSpaceOnUse" gradientTransform="matrix(0 -4.71875 13.6527 0 16.488 21.38)"><stop stop-color="#47404D"/><stop offset="1" stop-color="#3B2D3A"/></radialGradient><radialGradient id="d" cx="0" cy="0" r="1" gradientUnits="userSpaceOnUse" gradientTransform="matrix(0 5.9375 -7.54205 0 16.48 16.926)"><stop offset=".932" stop-color="#342542" stop-opacity="0"/><stop offset=".995" stop-color="#342542"/></radialGradient><radialGradient id="e" cx="0" cy="0" r="1" gradientUnits="userSpaceOnUse" gradientTransform="matrix(-5.88284 4.0234 -5.54695 -8.11053 16.063 15.582)"><stop offset=".928" stop-color="#6A656F" stop-opacity="0"/><stop offset="1" stop-color="#6A656F"/></radialGradient><radialGradient id="f" cx="0" cy="0" r="1" gradientUnits="userSpaceOnUse" gradientTransform="rotate(34.266 -16.987 33.322) scale(8.18658 11.2866)"><stop offset=".933" stop-color="#6A656F" stop-opacity="0"/><stop offset="1" stop-color="#615B67"/></radialGradient><radialGradient id="g" cx="0" cy="0" r="1" gradientUnits="userSpaceOnUse" gradientTransform="matrix(0 -10.0625 10.6454 0 16.48 23.645)"><stop offset=".506" stop-color="#57525D" stop-opacity="0"/><stop offset="1" stop-color="#57525D"/></radialGradient><radialGradient id="h" cx="0" cy="0" r="1" gradientUnits="userSpaceOnUse" gradientTransform="rotate(85.281 -.137 16.025) scale(4.21461 7.75523)"><stop offset=".316" stop-color="#1C1026"/><stop offset="1" stop-color="#1C1026" stop-opacity="0"/></radialGradient><radialGradient id="j" cx="0" cy="0" r="1" gradientUnits="userSpaceOnUse" gradientTransform="matrix(-2.96875 -1.42188 1.19716 -2.49957 17.784 18.25)"><stop stop-color="#714A4B"/><stop offset="1" stop-color="#5A3126"/></radialGradient><radialGradient id="k" cx="0" cy="0" r="1" gradientUnits="userSpaceOnUse" gradientTransform="matrix(0 .9375 -2.06 0 16.466 17.016)"><stop stop-color="#643548"/><stop offset="1" stop-color="#643548" stop-opacity="0"/></radialGradient><radialGradient id="l" cx="0" cy="0" r="1" gradientUnits="userSpaceOnUse" gradientTransform="matrix(0 4.5407 -4.26182 0 16.466 14.574)"><stop offset=".81" stop-color="#582F25" stop-opacity="0"/><stop offset="1" stop-color="#582F25"/></radialGradient><radialGradient id="n" cx="0" cy="0" r="1" gradientUnits="userSpaceOnUse" gradientTransform="matrix(0 -2.33473 .18031 0 25.055 11.698)"><stop stop-color="#70635D"/><stop offset="1" stop-color="#70635D" stop-opacity="0"/></radialGradient><radialGradient id="o" cx="0" cy="0" r="1" gradientUnits="userSpaceOnUse" gradientTransform="matrix(-.81259 1.10067 -.98646 -.72826 25.313 12.07)"><stop stop-color="#686071"/><stop offset=".661" stop-color="#402A4C"/></radialGradient><radialGradient id="p" cx="0" cy="0" r="1" gradientUnits="userSpaceOnUse" gradientTransform="matrix(.79636 -.08984 .10538 .93405 23.976 12.461)"><stop offset=".087" stop-color="#685352"/><stop offset="1" stop-color="#685352" stop-opacity="0"/></radialGradient><radialGradient id="t" cx="0" cy="0" r="1" gradientUnits="userSpaceOnUse" gradientTransform="rotate(169.33 12.35 8.575) scale(1.11532 5.56401)"><stop offset=".286" stop-color="#FFD93A"/><stop offset="1" stop-color="#FFD93A" stop-opacity="0"/></radialGradient><radialGradient id="u" cx="0" cy="0" r="1" gradientUnits="userSpaceOnUse" gradientTransform="matrix(0 .39844 -1.38177 0 24.813 13.137)"><stop offset=".161" stop-color="#845D03"/><stop offset="1" stop-color="#EBA429" stop-opacity="0"/></radialGradient><radialGradient id="w" cx="0" cy="0" r="1" gradientUnits="userSpaceOnUse" gradientTransform="matrix(0 -1.3125 2.89043 0 24.813 16.926)"><stop offset=".422" stop-color="#A16739"/><stop offset="1" stop-color="#DB9820" stop-opacity="0"/></radialGradient><radialGradient id="x" cx="0" cy="0" r="1" gradientUnits="userSpaceOnUse" gradientTransform="matrix(0 -16.3734 4.36464 0 5.485 30.026)"><stop stop-color="#766C83"/><stop offset=".441" stop-color="#58496A"/><stop offset="1" stop-color="#4D4159"/></radialGradient><radialGradient id="y" cx="0" cy="0" r="1" gradientUnits="userSpaceOnUse" gradientTransform="matrix(0 -10.5202 .82413 0 9.25 30.026)"><stop offset=".286" stop-color="#4F445B"/><stop offset="1" stop-color="#4F445B" stop-opacity="0"/></radialGradient><radialGradient id="A" cx="0" cy="0" r="1" gradientUnits="userSpaceOnUse" gradientTransform="matrix(-1.88274 -10.19308 2.86286 -.5288 25.592 30.026)"><stop stop-color="#736782"/><stop offset="1" stop-color="#5F5070"/></radialGradient><radialGradient id="B" cx="0" cy="0" r="1" gradientUnits="userSpaceOnUse" gradientTransform="rotate(87.413 -.358 23.908) scale(12.0457 .70348)"><stop offset=".177" stop-color="#3F2A51"/><stop offset="1" stop-color="#3F2A51" stop-opacity="0"/></radialGradient><radialGradient id="J" cx="0" cy="0" r="1" gradientUnits="userSpaceOnUse" gradientTransform="matrix(1.76937 0 0 3.09641 10 10.698)"><stop offset=".351" stop-color="#664249"/><stop offset="1" stop-color="#613641"/></radialGradient><radialGradient id="O" cx="0" cy="0" r="1" gradientUnits="userSpaceOnUse" gradientTransform="rotate(-36.06 26.85 -28.042) scale(1.0311 1.17686)"><stop offset=".543" stop-color="#7C524C"/><stop offset="1" stop-color="#7C524C" stop-opacity="0"/></radialGradient><radialGradient id="Q" cx="0" cy="0" r="1" gradientUnits="userSpaceOnUse" gradientTransform="matrix(.82805 -1.52301 .89143 .48466 21.234 11.527)"><stop offset=".755" stop-color="#73443E" stop-opacity="0"/><stop offset=".916" stop-color="#73443E"/></radialGradient><radialGradient id="R" cx="0" cy="0" r="1" gradientUnits="userSpaceOnUse" gradientTransform="rotate(44.708 -2.37 31.218) scale(.36785 .47421)"><stop stop-color="#6C443E"/><stop offset="1" stop-color="#6C443E" stop-opacity="0"/></radialGradient><radialGradient id="U" cx="0" cy="0" r="1" gradientUnits="userSpaceOnUse" gradientTransform="matrix(0 -1.31788 1.62201 0 18.837 9.416)"><stop stop-color="#855354"/><stop offset="1" stop-color="#855354" stop-opacity="0"/></radialGradient><radialGradient id="V" cx="0" cy="0" r="1" gradientUnits="userSpaceOnUse" gradientTransform="matrix(0 -1.38547 1.72295 0 14.24 9.551)"><stop stop-color="#6F414D"/><stop offset="1" stop-color="#6F414D" stop-opacity="0"/></radialGradient><radialGradient id="Y" cx="0" cy="0" r="1" gradientUnits="userSpaceOnUse" gradientTransform="matrix(0 8.24522 -11.1924 0 16.167 8.91)"><stop offset=".617" stop-color="#7D4C5B" stop-opacity="0"/><stop offset="1" stop-color="#623241"/></radialGradient><radialGradient id="Z" cx="0" cy="0" r="1" gradientUnits="userSpaceOnUse" gradientTransform="rotate(86.463 5.645 11.068) scale(2.53608 7.20239)"><stop offset=".598" stop-color="#613533"/><stop offset="1" stop-color="#613533" stop-opacity="0"/></radialGradient><radialGradient id="ad" cx="0" cy="0" r="1" gradientUnits="userSpaceOnUse" gradientTransform="matrix(.80441 -2.98106 1.10547 .2983 20.852 6.558)"><stop stop-color="#3D3437"/><stop offset="1" stop-color="#3D3437" stop-opacity="0"/></radialGradient><radialGradient id="ae" cx="0" cy="0" r="1" gradientUnits="userSpaceOnUse" gradientTransform="matrix(3.85645 .35489 -.19082 2.07359 19.196 4.784)"><stop offset=".122" stop-color="#46383D"/><stop offset="1" stop-color="#46383D" stop-opacity="0"/></radialGradient><radialGradient id="af" cx="0" cy="0" r="1" gradientUnits="userSpaceOnUse" gradientTransform="matrix(0 1.69305 -2.62206 0 16.471 2.026)"><stop stop-color="#3E3034"/><stop offset="1" stop-color="#3E3034" stop-opacity="0"/></radialGradient><radialGradient id="ag" cx="0" cy="0" r="1" gradientUnits="userSpaceOnUse" gradientTransform="matrix(3.09935 -2.27128 3.55836 4.85567 9.969 8.9)"><stop stop-color="#453938"/><stop offset="1" stop-color="#453938" stop-opacity="0"/></radialGradient><radialGradient id="am" cx="0" cy="0" r="1" gradientUnits="userSpaceOnUse" gradientTransform="matrix(0 .19853 -.63782 0 16.801 12.318)"><stop stop-color="#976F6A"/><stop offset="1" stop-color="#976F6A" stop-opacity="0"/></radialGradient><radialGradient id="aq" cx="0" cy="0" r="1" gradientUnits="userSpaceOnUse" gradientTransform="matrix(.10506 -.60825 1.79947 .3108 18.934 8.597)"><stop stop-color="#301A2D"/><stop offset="1" stop-color="#301A2D" stop-opacity="0"/></radialGradient><radialGradient id="as" cx="0" cy="0" r="1" gradientUnits="userSpaceOnUse" gradientTransform="rotate(-80.2 11.976 -3.862) scale(.61726 1.82621)"><stop stop-color="#301A2D"/><stop offset="1" stop-color="#301A2D" stop-opacity="0"/></radialGradient><radialGradient id="at" cx="0" cy="0" r="1" gradientUnits="userSpaceOnUse" gradientTransform="matrix(0 .81784 -1.30086 0 18.668 10.01)"><stop offset=".802" stop-color="#7D574A"/><stop offset="1" stop-color="#694B43"/><stop offset="1" stop-color="#804D49"/><stop offset="1" stop-color="#664944"/></radialGradient><radialGradient id="av" cx="0" cy="0" r="1" gradientUnits="userSpaceOnUse" gradientTransform="matrix(-.23432 -.30195 .41571 -.3226 18.44 10.096)"><stop offset=".766" stop-color="#FFE6E2" stop-opacity="0"/><stop offset=".966" stop-color="#FFE6E2"/></radialGradient><radialGradient id="ay" cx="0" cy="0" r="1" gradientUnits="userSpaceOnUse" gradientTransform="matrix(0 .81788 -1.30093 0 14.269 10.01)"><stop offset=".802" stop-color="#7D574A"/><stop offset="1" stop-color="#694B43"/><stop offset="1" stop-color="#804D49"/><stop offset="1" stop-color="#664944"/></radialGradient><radialGradient id="aC" cx="0" cy="0" r="1" gradientUnits="userSpaceOnUse" gradientTransform="rotate(-90.897 12.027 -1.766) scale(.49926 .60012)"><stop offset=".766" stop-color="#FFE6E2" stop-opacity="0"/><stop offset=".966" stop-color="#FFE6E2"/></radialGradient><radialGradient id="aK" cx="0" cy="0" r="1" gradientUnits="userSpaceOnUse" gradientTransform="matrix(-.6666 -3.56716 3.98507 -.7447 19.009 5.91)"><stop offset=".11" stop-color="#595260"/><stop offset="1" stop-color="#372E41"/></radialGradient><radialGradient id="aL" cx="0" cy="0" r="1" gradientUnits="userSpaceOnUse" gradientTransform="matrix(0 1.97411 -7.12707 0 16.415 2.9)"><stop offset=".263" stop-color="#160C20"/><stop offset="1" stop-color="#160C20" stop-opacity="0"/></radialGradient><radialGradient id="aN" cx="0" cy="0" r="1" gradientUnits="userSpaceOnUse" gradientTransform="matrix(0 .9375 -12.6875 0 22.22 2.426)"><stop stop-color="#696070"/><stop offset=".867" stop-color="#696070" stop-opacity="0"/></radialGradient><radialGradient id="aO" cx="0" cy="0" r="1" gradientUnits="userSpaceOnUse" gradientTransform="matrix(7.75 0 0 .875 7.25 3.051)"><stop stop-color="#75707B"/><stop offset=".935" stop-color="#75707B" stop-opacity="0"/></radialGradient><linearGradient id="m" x1="24.17" y1="8.972" x2="25.356" y2="8.972" gradientUnits="userSpaceOnUse"><stop stop-color="#33203C"/><stop offset="1" stop-color="#61546D"/></linearGradient><linearGradient id="r" x1="25.416" y1="3.739" x2="25.416" y2="11.507" gradientUnits="userSpaceOnUse"><stop stop-color="#60546C"/><stop offset="1" stop-color="#504B55"/></linearGradient><linearGradient id="s" x1="25.965" y1="14.837" x2="23.645" y2="14.837" gradientUnits="userSpaceOnUse"><stop stop-color="#F9B72A"/><stop offset=".897" stop-color="#FAAC28"/></linearGradient><linearGradient id="v" x1="23.764" y1="14.516" x2="24.639" y2="14.696" gradientUnits="userSpaceOnUse"><stop stop-color="#C57E10"/><stop offset="1" stop-color="#DF8F14" stop-opacity="0"/></linearGradient><linearGradient id="z" x1="9.395" y1="28.094" x2="8.969" y2="28.094" gradientUnits="userSpaceOnUse"><stop offset=".444" stop-color="#433850"/><stop offset="1" stop-color="#433850" stop-opacity="0"/></linearGradient><linearGradient id="D" x1="16.48" y1="29.895" x2="16.48" y2="23.461" gradientUnits="userSpaceOnUse"><stop stop-color="#3F3748"/><stop offset="1" stop-color="#3F3748" stop-opacity="0"/></linearGradient><linearGradient id="E" x1="16.48" y1="29.895" x2="16.48" y2="23.461" gradientUnits="userSpaceOnUse"><stop stop-color="#3F3748"/><stop offset="1" stop-color="#3F3748" stop-opacity="0"/></linearGradient><linearGradient id="F" x1="16.48" y1="29.895" x2="16.48" y2="23.461" gradientUnits="userSpaceOnUse"><stop stop-color="#3F3748"/><stop offset="1" stop-color="#3F3748" stop-opacity="0"/></linearGradient><linearGradient id="H" x1="13.432" y1="4.477" x2="14.004" y2="5.814" gradientUnits="userSpaceOnUse"><stop stop-color="#FAA719"/><stop offset="1" stop-color="#DB6008"/></linearGradient><linearGradient id="L" x1="11.684" y1="10.979" x2="11.038" y2="10.979" gradientUnits="userSpaceOnUse"><stop stop-color="#553038"/><stop offset="1" stop-color="#59323C"/></linearGradient><linearGradient id="N" x1="22.371" y1="9.598" x2="21.546" y2="12.155" gradientUnits="userSpaceOnUse"><stop stop-color="#96776B"/><stop offset="1" stop-color="#855A5B"/></linearGradient><linearGradient id="T" x1="20.541" y1="11.091" x2="12.841" y2="12.238" gradientUnits="userSpaceOnUse"><stop stop-color="#9B6C5E"/><stop offset="1" stop-color="#744D4A"/></linearGradient><linearGradient id="W" x1="11.031" y1="13.809" x2="12.928" y2="13.742" gradientUnits="userSpaceOnUse"><stop stop-color="#84615A"/><stop offset="1" stop-color="#84615A" stop-opacity="0"/></linearGradient><linearGradient id="X" x1="21.376" y1="12.964" x2="20.311" y2="12.863" gradientUnits="userSpaceOnUse"><stop stop-color="#966D5F"/><stop offset="1" stop-color="#966D5F" stop-opacity="0"/></linearGradient><linearGradient id="ab" x1="15.929" y1="8.716" x2="24.14" y2="5.776" gradientUnits="userSpaceOnUse"><stop stop-color="#A27B71"/><stop offset="1" stop-color="#A27B71" stop-opacity="0"/></linearGradient><linearGradient id="aj" x1="15.6" y1="11.756" x2="16.546" y2="11.756" gradientUnits="userSpaceOnUse"><stop stop-color="#754E46"/><stop offset="1" stop-color="#754E46" stop-opacity="0"/></linearGradient><linearGradient id="ak" x1="17.417" y1="12.081" x2="16.383" y2="12.066" gradientUnits="userSpaceOnUse"><stop stop-color="#9D766B"/><stop offset="1" stop-color="#9D766B" stop-opacity="0"/></linearGradient><linearGradient id="al" x1="16.667" y1="12.829" x2="16.667" y2="12.252" gradientUnits="userSpaceOnUse"><stop stop-color="#7C4559"/><stop offset="1" stop-color="#7C4559" stop-opacity="0"/></linearGradient><linearGradient id="an" x1="16.598" y1="12.872" x2="16.598" y2="12.703" gradientUnits="userSpaceOnUse"><stop stop-color="#743B4A"/><stop offset="1" stop-color="#743B4A" stop-opacity="0"/></linearGradient><linearGradient id="ao" x1="15.426" y1="14.457" x2="15.864" y2="13.764" gradientUnits="userSpaceOnUse"><stop stop-color="#865E63"/><stop offset=".663" stop-color="#865E63" stop-opacity="0"/></linearGradient><linearGradient id="ax" x1="19.453" y1="10.066" x2="19.136" y2="10.261" gradientUnits="userSpaceOnUse"><stop stop-color="#B4948D"/><stop offset="1" stop-color="#B4948D" stop-opacity="0"/></linearGradient><linearGradient id="aA" x1="15.02" y1="10.066" x2="14.703" y2="10.261" gradientUnits="userSpaceOnUse"><stop stop-color="#B4948D"/><stop offset="1" stop-color="#B4948D" stop-opacity="0"/></linearGradient><linearGradient id="aE" x1="19.468" y1="7.907" x2="19.044" y2="7.042" gradientUnits="userSpaceOnUse"><stop stop-color="#483E3E"/><stop offset="1" stop-color="#483E3E" stop-opacity="0"/></linearGradient><linearGradient id="aG" x1="14.12" y1="7.779" x2="12.921" y2="7.276" gradientUnits="userSpaceOnUse"><stop stop-color="#483E3E"/><stop offset="1" stop-color="#483E3E" stop-opacity="0"/></linearGradient><linearGradient id="aI" x1="11.771" y1="5.748" x2="11.771" y2="7.922" gradientUnits="userSpaceOnUse"><stop offset=".228" stop-color="#32272D"/><stop offset="1" stop-color="#32272D" stop-opacity="0"/></linearGradient><linearGradient id="aM" x1="18.25" y1="3.989" x2="16.969" y2="-.386" gradientUnits="userSpaceOnUse"><stop stop-color="#3D294B"/><stop offset="1" stop-color="#433A4D"/></linearGradient><filter id="i" x="13.806" y="10.015" width="5.32" height="9.565" filterUnits="userSpaceOnUse" color-interpolation-filters="sRGB"><feFlood flood-opacity="0" result="BackgroundImageFix"/><feBlend in="SourceGraphic" in2="BackgroundImageFix" result="shape"/><feGaussianBlur stdDeviation=".2" result="effect1_foregroundBlur_4002_1587"/></filter><filter id="q" x="24.591" y="3.489" width=".65" height="8.268" filterUnits="userSpaceOnUse" color-interpolation-filters="sRGB"><feFlood flood-opacity="0" result="BackgroundImageFix"/><feBlend in="SourceGraphic" in2="BackgroundImageFix" result="shape"/><feGaussianBlur stdDeviation=".125" result="effect1_foregroundBlur_4002_1587"/></filter><filter id="C" x="11.998" y="23.311" width="8.964" height="6.734" filterUnits="userSpaceOnUse" color-interpolation-filters="sRGB"><feFlood flood-opacity="0" result="BackgroundImageFix"/><feBlend in="SourceGraphic" in2="BackgroundImageFix" result="shape"/><feGaussianBlur stdDeviation=".075" result="effect1_foregroundBlur_4002_1587"/></filter><filter id="G" x="13.132" y="3.816" width="1.172" height="2.394" filterUnits="userSpaceOnUse" color-interpolation-filters="sRGB"><feFlood flood-opacity="0" result="BackgroundImageFix"/><feBlend in="SourceGraphic" in2="BackgroundImageFix" result="shape"/><feGaussianBlur stdDeviation=".125" result="effect1_foregroundBlur_4002_1587"/></filter><filter id="I" x="10.001" y="9.015" width="3.567" height="3.367" filterUnits="userSpaceOnUse" color-interpolation-filters="sRGB"><feFlood flood-opacity="0" result="BackgroundImageFix"/><feBlend in="SourceGraphic" in2="BackgroundImageFix" result="shape"/><feColorMatrix in="SourceAlpha" values="0 0 0 0 0 0 0 0 0 0 0 0 0 0 0 0 0 0 127 0" result="hardAlpha"/><feOffset dx=".2"/><feGaussianBlur stdDeviation=".15"/><feComposite in2="hardAlpha" operator="arithmetic" k2="-1" k3="1"/><feColorMatrix values="0 0 0 0 0.517647 0 0 0 0 0.384314 0 0 0 0 0.34902 0 0 0 1 0"/><feBlend in2="shape" result="effect1_innerShadow_4002_1587"/></filter><filter id="K" x="10.181" y="9.195" width="3.006" height="3.006" filterUnits="userSpaceOnUse" color-interpolation-filters="sRGB"><feFlood flood-opacity="0" result="BackgroundImageFix"/><feBlend in="SourceGraphic" in2="BackgroundImageFix" result="shape"/><feGaussianBlur stdDeviation=".25" result="effect1_foregroundBlur_4002_1587"/></filter><filter id="M" x="19.593" y="8.765" width="3.617" height="3.617" filterUnits="userSpaceOnUse" color-interpolation-filters="sRGB"><feFlood flood-opacity="0" result="BackgroundImageFix"/><feBlend in="SourceGraphic" in2="BackgroundImageFix" result="shape"/><feColorMatrix in="SourceAlpha" values="0 0 0 0 0 0 0 0 0 0 0 0 0 0 0 0 0 0 127 0" result="hardAlpha"/><feOffset dx=".25" dy="-.25"/><feGaussianBlur stdDeviation=".25"/><feComposite in2="hardAlpha" operator="arithmetic" k2="-1" k3="1"/><feColorMatrix values="0 0 0 0 0.482353 0 0 0 0 0.278431 0 0 0 0 0.372549 0 0 0 1 0"/><feBlend in2="shape" result="effect1_innerShadow_4002_1587"/></filter><filter id="P" x="19.773" y="9.195" width="3.006" height="3.006" filterUnits="userSpaceOnUse" color-interpolation-filters="sRGB"><feFlood flood-opacity="0" result="BackgroundImageFix"/><feBlend in="SourceGraphic" in2="BackgroundImageFix" result="shape"/><feGaussianBlur stdDeviation=".25" result="effect1_foregroundBlur_4002_1587"/></filter><filter id="S" x="11.271" y="5.027" width="10.459" height="12.227" filterUnits="userSpaceOnUse" color-interpolation-filters="sRGB"><feFlood flood-opacity="0" result="BackgroundImageFix"/><feBlend in="SourceGraphic" in2="BackgroundImageFix" result="shape"/><feColorMatrix in="SourceAlpha" values="0 0 0 0 0 0 0 0 0 0 0 0 0 0 0 0 0 0 127 0" result="hardAlpha"/><feOffset dy=".1"/><feGaussianBlur stdDeviation=".1"/><feComposite in2="hardAlpha" operator="arithmetic" k2="-1" k3="1"/><feColorMatrix values="0 0 0 0 0.254902 0 0 0 0 0.137255 0 0 0 0 0.113725 0 0 0 1 0"/><feBlend in2="shape" result="effect1_innerShadow_4002_1587"/></filter><filter id="aa" x="14.636" y="3.662" width="8.281" height="7.092" filterUnits="userSpaceOnUse" color-interpolation-filters="sRGB"><feFlood flood-opacity="0" result="BackgroundImageFix"/><feBlend in="SourceGraphic" in2="BackgroundImageFix" result="shape"/><feGaussianBlur stdDeviation="1" result="effect1_foregroundBlur_4002_1587"/></filter><filter id="ac" x="10.118" y="1.526" width="12.706" height="8.61" filterUnits="userSpaceOnUse" color-interpolation-filters="sRGB"><feFlood flood-opacity="0" result="BackgroundImageFix"/><feBlend in="SourceGraphic" in2="BackgroundImageFix" result="shape"/><feColorMatrix in="SourceAlpha" values="0 0 0 0 0 0 0 0 0 0 0 0 0 0 0 0 0 0 127 0" result="hardAlpha"/><feOffset dy="-.5"/><feGaussianBlur stdDeviation=".375"/><feComposite in2="hardAlpha" operator="arithmetic" k2="-1" k3="1"/><feColorMatrix values="0 0 0 0 0.0392157 0 0 0 0 0.00784314 0 0 0 0 0.0196078 0 0 0 1 0"/><feBlend in2="shape" result="effect1_innerShadow_4002_1587"/></filter><filter id="ah" x="14.593" y="9.541" width="3.274" height="4.203" filterUnits="userSpaceOnUse" color-interpolation-filters="sRGB"><feFlood flood-opacity="0" result="BackgroundImageFix"/><feBlend in="SourceGraphic" in2="BackgroundImageFix" result="shape"/><feGaussianBlur stdDeviation=".375" result="effect1_foregroundBlur_4002_1587"/></filter><filter id="ai" x="15.275" y="9.876" width="2.392" height="3.203" filterUnits="userSpaceOnUse" color-interpolation-filters="sRGB"><feFlood flood-opacity="0" result="BackgroundImageFix"/><feBlend in="SourceGraphic" in2="BackgroundImageFix" result="shape"/><feGaussianBlur stdDeviation=".125" result="effect1_foregroundBlur_4002_1587"/></filter><filter id="ap" x="17.663" y="7.022" width="3.002" height="1.885" filterUnits="userSpaceOnUse" color-interpolation-filters="sRGB"><feFlood flood-opacity="0" result="BackgroundImageFix"/><feBlend in="SourceGraphic" in2="BackgroundImageFix" result="shape"/><feColorMatrix in="SourceAlpha" values="0 0 0 0 0 0 0 0 0 0 0 0 0 0 0 0 0 0 127 0" result="hardAlpha"/><feOffset dx=".25" dy="-.4"/><feGaussianBlur stdDeviation=".3"/><feComposite in2="hardAlpha" operator="arithmetic" k2="-1" k3="1"/><feColorMatrix values="0 0 0 0 0.156863 0 0 0 0 0.0784314 0 0 0 0 0.109804 0 0 0 1 0"/><feBlend in2="shape" result="effect1_innerShadow_4002_1587"/></filter><filter id="ar" x="12.473" y="7.022" width="3.002" height="1.885" filterUnits="userSpaceOnUse" color-interpolation-filters="sRGB"><feFlood flood-opacity="0" result="BackgroundImageFix"/><feBlend in="SourceGraphic" in2="BackgroundImageFix" result="shape"/><feColorMatrix in="SourceAlpha" values="0 0 0 0 0 0 0 0 0 0 0 0 0 0 0 0 0 0 127 0" result="hardAlpha"/><feOffset dx=".25" dy="-.4"/><feGaussianBlur stdDeviation=".3"/><feComposite in2="hardAlpha" operator="arithmetic" k2="-1" k3="1"/><feColorMatrix values="0 0 0 0 0.156863 0 0 0 0 0.0784314 0 0 0 0 0.109804 0 0 0 1 0"/><feBlend in2="shape" result="effect1_innerShadow_4002_1587"/></filter><filter id="au" x="17.929" y="9.567" width=".793" height=".701" filterUnits="userSpaceOnUse" color-interpolation-filters="sRGB"><feFlood flood-opacity="0" result="BackgroundImageFix"/><feBlend in="SourceGraphic" in2="BackgroundImageFix" result="shape"/><feGaussianBlur stdDeviation=".05" result="effect1_foregroundBlur_4002_1587"/></filter><filter id="aw" x="18.776" y="9.645" width=".896" height=".919" filterUnits="userSpaceOnUse" color-interpolation-filters="sRGB"><feFlood flood-opacity="0" result="BackgroundImageFix"/><feBlend in="SourceGraphic" in2="BackgroundImageFix" result="shape"/><feGaussianBlur stdDeviation=".1" result="effect1_foregroundBlur_4002_1587"/></filter><filter id="az" x="14.298" y="9.581" width=".992" height="1.047" filterUnits="userSpaceOnUse" color-interpolation-filters="sRGB"><feFlood flood-opacity="0" result="BackgroundImageFix"/><feBlend in="SourceGraphic" in2="BackgroundImageFix" result="shape"/><feGaussianBlur stdDeviation=".1" result="effect1_foregroundBlur_4002_1587"/></filter><filter id="aB" x="13.536" y="9.559" width=".92" height=".71" filterUnits="userSpaceOnUse" color-interpolation-filters="sRGB"><feFlood flood-opacity="0" result="BackgroundImageFix"/><feBlend in="SourceGraphic" in2="BackgroundImageFix" result="shape"/><feGaussianBlur stdDeviation=".05" result="effect1_foregroundBlur_4002_1587"/></filter><filter id="aD" x="17.546" y="7.176" width="3.065" height="1.635" filterUnits="userSpaceOnUse" color-interpolation-filters="sRGB"><feFlood flood-opacity="0" result="BackgroundImageFix"/><feBlend in="SourceGraphic" in2="BackgroundImageFix" result="shape"/><feGaussianBlur stdDeviation=".25" result="effect1_foregroundBlur_4002_1587"/></filter><filter id="aF" x="12.283" y="7.241" width="3.143" height="1.692" filterUnits="userSpaceOnUse" color-interpolation-filters="sRGB"><feFlood flood-opacity="0" result="BackgroundImageFix"/><feBlend in="SourceGraphic" in2="BackgroundImageFix" result="shape"/><feGaussianBlur stdDeviation=".25" result="effect1_foregroundBlur_4002_1587"/></filter><filter id="aH" x="11.266" y="5.472" width="1.01" height="2.282" filterUnits="userSpaceOnUse" color-interpolation-filters="sRGB"><feFlood flood-opacity="0" result="BackgroundImageFix"/><feBlend in="SourceGraphic" in2="BackgroundImageFix" result="shape"/><feGaussianBlur stdDeviation=".125" result="effect1_foregroundBlur_4002_1587"/></filter><filter id="aJ" x="10.315" y="3.126" width="12.261" height="2.966" filterUnits="userSpaceOnUse" color-interpolation-filters="sRGB"><feFlood flood-opacity="0" result="BackgroundImageFix"/><feBlend in="SourceGraphic" in2="BackgroundImageFix" result="shape"/><feColorMatrix in="SourceAlpha" values="0 0 0 0 0 0 0 0 0 0 0 0 0 0 0 0 0 0 127 0" result="hardAlpha"/><feOffset dy="-.05"/><feGaussianBlur stdDeviation=".025"/><feComposite in2="hardAlpha" operator="arithmetic" k2="-1" k3="1"/><feColorMatrix values="0 0 0 0 0.360784 0 0 0 0 0.337255 0 0 0 0 0.372549 0 0 0 1 0"/><feBlend in2="shape" result="effect1_innerShadow_4002_1587"/></filter></defs></svg>