<svg width="32" height="32" fill="none" xmlns="http://www.w3.org/2000/svg"><path fill="url(#a)" d="M6.588 16.165a4.086 4.086 0 1 0 8.172 0 4.086 4.086 0 1 0-8.172 0"/><path fill="url(#b)" d="M6.588 16.165a4.086 4.086 0 1 0 8.172 0 4.086 4.086 0 1 0-8.172 0"/><path fill="url(#c)" d="M1.97 23.368a6.305 6.305 0 1 0 12.61 0 6.305 6.305 0 1 0-12.61 0"/><path transform="matrix(-1 0 0 1 21.326 16.165)" fill="url(#d)" d="M-4.086 0a4.086 4.086 0 1 0 8.172 0 4.086 4.086 0 1 0-8.172 0"/><path transform="matrix(-1 0 0 1 21.326 16.165)" fill="url(#e)" d="M-4.086 0a4.086 4.086 0 1 0 8.172 0 4.086 4.086 0 1 0-8.172 0"/><path transform="matrix(-1 0 0 1 23.725 23.368)" fill="url(#f)" d="M-6.305 0a6.305 6.305 0 1 0 12.61 0 6.305 6.305 0 1 0-12.61 0"/><path d="M26.947 29.939c0-7.961-4.617-9.875-5.375-10.383l-5.047 10.383h10.422Z" fill="url(#g)"/><path d="M26.947 29.939c0-7.961-4.617-9.875-5.375-10.383l-5.047 10.383h10.422Z" fill="url(#h)"/><path d="M26.947 29.939c0-7.961-4.617-9.875-5.375-10.383l-5.047 10.383h10.422Z" fill="url(#i)"/><path d="M5.096 29.939c0-7.961 4.617-9.875 5.375-10.383l5.047 10.383H5.096Z" fill="url(#j)"/><path d="M5.096 29.939c0-7.961 4.617-9.875 5.375-10.383l5.047 10.383H5.096Z" fill="url(#k)"/><path d="M9.9 17.353c.64-1.313 1.82-1.75 2.594-1.75h2.609v2.875h-2.469c-.169.303-.002.85.102 1.086l4.316 10.39h-3.175c-1.068-2.583-3.293-7.817-3.68-8.742-.42-1.004-.89-2.476-.297-3.86Z" fill="#2681E0"/><path d="M9.9 17.353c.64-1.313 1.82-1.75 2.594-1.75h2.609v2.875h-2.469c-.169.303-.002.85.102 1.086l4.316 10.39h-3.175c-1.068-2.583-3.293-7.817-3.68-8.742-.42-1.004-.89-2.476-.297-3.86Z" fill="url(#l)"/><path d="M9.9 17.353c.64-1.313 1.82-1.75 2.594-1.75h2.609v2.875h-2.469c-.169.303-.002.85.102 1.086l4.316 10.39h-3.175c-1.068-2.583-3.293-7.817-3.68-8.742-.42-1.004-.89-2.476-.297-3.86Z" fill="url(#m)"/><path d="M9.9 17.353c.64-1.313 1.82-1.75 2.594-1.75h2.609v2.875h-2.469c-.169.303-.002.85.102 1.086l4.316 10.39h-3.175c-1.068-2.583-3.293-7.817-3.68-8.742-.42-1.004-.89-2.476-.297-3.86Z" fill="url(#n)"/><path d="M9.9 17.353c.64-1.313 1.82-1.75 2.594-1.75h2.609v2.875h-2.469c-.169.303-.002.85.102 1.086l4.316 10.39h-3.175c-1.068-2.583-3.293-7.817-3.68-8.742-.42-1.004-.89-2.476-.297-3.86Z" fill="url(#o)"/><path d="M9.9 17.353c.64-1.313 1.82-1.75 2.594-1.75h2.609v2.875h-2.469c-.169.303-.002.85.102 1.086l4.316 10.39h-3.175c-1.068-2.583-3.293-7.817-3.68-8.742-.42-1.004-.89-2.476-.297-3.86Z" fill="url(#p)"/><path d="M9.9 17.353c.64-1.313 1.82-1.75 2.594-1.75h2.609v2.875h-2.469c-.169.303-.002.85.102 1.086l4.316 10.39h-3.175c-1.068-2.583-3.293-7.817-3.68-8.742-.42-1.004-.89-2.476-.297-3.86Z" fill="url(#q)"/><path d="M21.819 17.353c-.64-1.313-1.82-1.75-2.594-1.75h-2.609v2.875h2.469c.169.303.002.85-.102 1.086l-3.938 10.39h3.176c1.067-2.583 2.995-7.817 3.382-8.742.42-1.004.81-2.476.216-3.86Z" fill="#2A87CE"/><path d="M21.819 17.353c-.64-1.313-1.82-1.75-2.594-1.75h-2.609v2.875h2.469c.169.303.002.85-.102 1.086l-3.938 10.39h3.176c1.067-2.583 2.995-7.817 3.382-8.742.42-1.004.81-2.476.216-3.86Z" fill="url(#r)"/><path d="M21.819 17.353c-.64-1.313-1.82-1.75-2.594-1.75h-2.609v2.875h2.469c.169.303.002.85-.102 1.086l-3.938 10.39h3.176c1.067-2.583 2.995-7.817 3.382-8.742.42-1.004.81-2.476.216-3.86Z" fill="url(#s)"/><path d="M21.819 17.353c-.64-1.313-1.82-1.75-2.594-1.75h-2.609v2.875h2.469c.169.303.002.85-.102 1.086l-3.938 10.39h3.176c1.067-2.583 2.995-7.817 3.382-8.742.42-1.004.81-2.476.216-3.86Z" fill="url(#t)"/><g filter="url(#u)"><path d="M14.01 16.517h4v.887c.01.175.045.374.152.53a.813.813 0 0 0 .445.333l.465.164c.076.068.22.478.04.984-.181.505-2.043 5.51-3.095 8.02v.02c0-.004-.002-.007-.004-.01 0 .003-.002.006-.004.01v-.02c-1.052-2.51-3.186-7.515-3.366-8.02-.182-.506-.076-.87 0-.937l.68-.192c.218-.062.373-.14.515-.347.113-.166.158-.39.172-.572v-.85Z" fill="url(#v)"/><path d="M14.01 16.517h4v.887c.01.175.045.374.152.53a.813.813 0 0 0 .445.333l.465.164c.076.068.22.478.04.984-.181.505-2.043 5.51-3.095 8.02v.02c0-.004-.002-.007-.004-.01 0 .003-.002.006-.004.01v-.02c-1.052-2.51-3.186-7.515-3.366-8.02-.182-.506-.076-.87 0-.937l.68-.192c.218-.062.373-.14.515-.347.113-.166.158-.39.172-.572v-.85Z" fill="url(#w)"/><path d="M14.01 16.517h4v.887c.01.175.045.374.152.53a.813.813 0 0 0 .445.333l.465.164c.076.068.22.478.04.984-.181.505-2.043 5.51-3.095 8.02v.02c0-.004-.002-.007-.004-.01 0 .003-.002.006-.004.01v-.02c-1.052-2.51-3.186-7.515-3.366-8.02-.182-.506-.076-.87 0-.937l.68-.192c.218-.062.373-.14.515-.347.113-.166.158-.39.172-.572v-.85Z" fill="url(#x)"/></g><path opacity=".5" d="M1.97 24.017h3.298a5.938 5.938 0 0 1 5.937 5.937H1.971v-5.937ZM30.03 24.017h-3.298a5.938 5.938 0 0 0-5.937 5.937h9.234v-5.937Z" fill="#E8D6FF"/><g filter="url(#y)"><path d="M16.151 18.338c.19.027.711.032 1.276-.163" stroke="#FCC4B2" stroke-width=".6" stroke-linecap="round"/></g><g filter="url(#z)"><path fill="url(#A)" d="M9.418 10.764a1.692 1.692 0 1 0 3.384 0 1.692 1.692 0 1 0-3.384 0"/></g><g filter="url(#B)"><path fill="url(#C)" d="M10.101 10.764a1.008 1.008 0 1 0 2.017 0 1.008 1.008 0 1 0-2.017 0"/></g><g filter="url(#D)"><path fill="url(#E)" d="M19.06 10.764a1.692 1.692 0 1 0 3.385 0 1.692 1.692 0 1 0-3.385 0"/><path fill="url(#F)" d="M19.06 10.764a1.692 1.692 0 1 0 3.385 0 1.692 1.692 0 1 0-3.385 0"/></g><g filter="url(#G)"><path fill="#E4AF9A" d="M19.744 10.764a1.008 1.008 0 1 0 2.017 0 1.008 1.008 0 1 0-2.017 0"/><path fill="url(#H)" d="M19.744 10.764a1.008 1.008 0 1 0 2.017 0 1.008 1.008 0 1 0-2.017 0"/><path fill="url(#I)" d="M19.744 10.764a1.008 1.008 0 1 0 2.017 0 1.008 1.008 0 1 0-2.017 0"/></g><g filter="url(#J)"><path d="M10.694 8.685c0-.27.109-.595.326-.757l.163-.162c.272-.216.38-.54.38-.865v-.865c0-.27.164-.486.436-.54.652-.163 2.011-.433 3.969-.433 1.957 0 3.316.27 3.969.432.217.055.435.27.435.541v.865c0 .324.163.649.38.865.51.357.478.553.435.973-.054.54-.109 1.46-.109 1.46h.019l-.27 4.012c-.162 1.793-1.573 3.044-3.254 3.044H14.32c-1.735 0-3.091-1.25-3.254-3.044-.141-1.841-.203-3.688-.371-5.526Z" fill="url(#K)"/><path d="M10.694 8.685c0-.27.109-.595.326-.757l.163-.162c.272-.216.38-.54.38-.865v-.865c0-.27.164-.486.436-.54.652-.163 2.011-.433 3.969-.433 1.957 0 3.316.27 3.969.432.217.055.435.27.435.541v.865c0 .324.163.649.38.865.51.357.478.553.435.973-.054.54-.109 1.46-.109 1.46h.019l-.27 4.012c-.162 1.793-1.573 3.044-3.254 3.044H14.32c-1.735 0-3.091-1.25-3.254-3.044-.141-1.841-.203-3.688-.371-5.526Z" fill="url(#L)"/><path d="M10.694 8.685c0-.27.109-.595.326-.757l.163-.162c.272-.216.38-.54.38-.865v-.865c0-.27.164-.486.436-.54.652-.163 2.011-.433 3.969-.433 1.957 0 3.316.27 3.969.432.217.055.435.27.435.541v.865c0 .324.163.649.38.865.51.357.478.553.435.973-.054.54-.109 1.46-.109 1.46h.019l-.27 4.012c-.162 1.793-1.573 3.044-3.254 3.044H14.32c-1.735 0-3.091-1.25-3.254-3.044-.141-1.841-.203-3.688-.371-5.526Z" fill="url(#M)"/><path d="M10.694 8.685c0-.27.109-.595.326-.757l.163-.162c.272-.216.38-.54.38-.865v-.865c0-.27.164-.486.436-.54.652-.163 2.011-.433 3.969-.433 1.957 0 3.316.27 3.969.432.217.055.435.27.435.541v.865c0 .324.163.649.38.865.51.357.478.553.435.973-.054.54-.109 1.46-.109 1.46h.019l-.27 4.012c-.162 1.793-1.573 3.044-3.254 3.044H14.32c-1.735 0-3.091-1.25-3.254-3.044-.141-1.841-.203-3.688-.371-5.526Z" fill="url(#N)"/><path d="M10.694 8.685c0-.27.109-.595.326-.757l.163-.162c.272-.216.38-.54.38-.865v-.865c0-.27.164-.486.436-.54.652-.163 2.011-.433 3.969-.433 1.957 0 3.316.27 3.969.432.217.055.435.27.435.541v.865c0 .324.163.649.38.865.51.357.478.553.435.973-.054.54-.109 1.46-.109 1.46h.019l-.27 4.012c-.162 1.793-1.573 3.044-3.254 3.044H14.32c-1.735 0-3.091-1.25-3.254-3.044-.141-1.841-.203-3.688-.371-5.526Z" fill="url(#O)"/><path d="M10.694 8.685c0-.27.109-.595.326-.757l.163-.162c.272-.216.38-.54.38-.865v-.865c0-.27.164-.486.436-.54.652-.163 2.011-.433 3.969-.433 1.957 0 3.316.27 3.969.432.217.055.435.27.435.541v.865c0 .324.163.649.38.865.51.357.478.553.435.973-.054.54-.109 1.46-.109 1.46h.019l-.27 4.012c-.162 1.793-1.573 3.044-3.254 3.044H14.32c-1.735 0-3.091-1.25-3.254-3.044-.141-1.841-.203-3.688-.371-5.526Z" fill="url(#P)"/></g><g filter="url(#Q)"><path d="m19.94 5.063-3.12 1.04a1.061 1.061 0 0 0 .477 2.059l3.101-.415-.458-2.684Z" fill="url(#R)"/></g><g filter="url(#S)"><path d="m20.807 4.198.435.216c.76.379 1.196 1.244 1.033 2.163l-.598 3.081c-.054.318-.264.533-.58.54h-.018s.054-.918.108-1.459c.044-.439-.032-.573-.435-.973-.217-.216-.38-.54-.38-.865v-.865c0-.27-.218-.486-.435-.54-.653-.163-2.012-.433-3.97-.433-1.957 0-3.316.27-3.968.432a.527.527 0 0 0-.435.541v.865c0 .324-.109.649-.38.865l-.164.162c-.217.162-.326.487-.326.757.054.595.109 1.46.109 1.46-.017 0-.034 0-.05-.002a.642.642 0 0 1-.603-.539l-.598-3.081c-.109-.865.326-1.73 1.088-2.109l.434-.216c.272-.162.544-.378.816-.595l.979-1.027c.598-.54 1.468-.703 2.229-.324a2.98 2.98 0 0 0 1.685 0c.816-.27 1.74-.054 2.393.54l.815.811c.218.27.49.433.816.595Z" fill="#242324"/><path d="m20.807 4.198.435.216c.76.379 1.196 1.244 1.033 2.163l-.598 3.081c-.054.318-.264.533-.58.54h-.018s.054-.918.108-1.459c.044-.439-.032-.573-.435-.973-.217-.216-.38-.54-.38-.865v-.865c0-.27-.218-.486-.435-.54-.653-.163-2.012-.433-3.97-.433-1.957 0-3.316.27-3.968.432a.527.527 0 0 0-.435.541v.865c0 .324-.109.649-.38.865l-.164.162c-.217.162-.326.487-.326.757.054.595.109 1.46.109 1.46-.017 0-.034 0-.05-.002a.642.642 0 0 1-.603-.539l-.598-3.081c-.109-.865.326-1.73 1.088-2.109l.434-.216c.272-.162.544-.378.816-.595l.979-1.027c.598-.54 1.468-.703 2.229-.324a2.98 2.98 0 0 0 1.685 0c.816-.27 1.74-.054 2.393.54l.815.811c.218.27.49.433.816.595Z" fill="url(#T)"/><path d="m20.807 4.198.435.216c.76.379 1.196 1.244 1.033 2.163l-.598 3.081c-.054.318-.264.533-.58.54h-.018s.054-.918.108-1.459c.044-.439-.032-.573-.435-.973-.217-.216-.38-.54-.38-.865v-.865c0-.27-.218-.486-.435-.54-.653-.163-2.012-.433-3.97-.433-1.957 0-3.316.27-3.968.432a.527.527 0 0 0-.435.541v.865c0 .324-.109.649-.38.865l-.164.162c-.217.162-.326.487-.326.757.054.595.109 1.46.109 1.46-.017 0-.034 0-.05-.002a.642.642 0 0 1-.603-.539l-.598-3.081c-.109-.865.326-1.73 1.088-2.109l.434-.216c.272-.162.544-.378.816-.595l.979-1.027c.598-.54 1.468-.703 2.229-.324a2.98 2.98 0 0 0 1.685 0c.816-.27 1.74-.054 2.393.54l.815.811c.218.27.49.433.816.595Z" fill="url(#U)"/><path d="m20.807 4.198.435.216c.76.379 1.196 1.244 1.033 2.163l-.598 3.081c-.054.318-.264.533-.58.54h-.018s.054-.918.108-1.459c.044-.439-.032-.573-.435-.973-.217-.216-.38-.54-.38-.865v-.865c0-.27-.218-.486-.435-.54-.653-.163-2.012-.433-3.97-.433-1.957 0-3.316.27-3.968.432a.527.527 0 0 0-.435.541v.865c0 .324-.109.649-.38.865l-.164.162c-.217.162-.326.487-.326.757.054.595.109 1.46.109 1.46-.017 0-.034 0-.05-.002a.642.642 0 0 1-.603-.539l-.598-3.081c-.109-.865.326-1.73 1.088-2.109l.434-.216c.272-.162.544-.378.816-.595l.979-1.027c.598-.54 1.468-.703 2.229-.324a2.98 2.98 0 0 0 1.685 0c.816-.27 1.74-.054 2.393.54l.815.811c.218.27.49.433.816.595Z" fill="url(#V)"/><path d="m20.807 4.198.435.216c.76.379 1.196 1.244 1.033 2.163l-.598 3.081c-.054.318-.264.533-.58.54h-.018s.054-.918.108-1.459c.044-.439-.032-.573-.435-.973-.217-.216-.38-.54-.38-.865v-.865c0-.27-.218-.486-.435-.54-.653-.163-2.012-.433-3.97-.433-1.957 0-3.316.27-3.968.432a.527.527 0 0 0-.435.541v.865c0 .324-.109.649-.38.865l-.164.162c-.217.162-.326.487-.326.757.054.595.109 1.46.109 1.46-.017 0-.034 0-.05-.002a.642.642 0 0 1-.603-.539l-.598-3.081c-.109-.865.326-1.73 1.088-2.109l.434-.216c.272-.162.544-.378.816-.595l.979-1.027c.598-.54 1.468-.703 2.229-.324a2.98 2.98 0 0 0 1.685 0c.816-.27 1.74-.054 2.393.54l.815.811c.218.27.49.433.816.595Z" fill="url(#W)"/></g><g filter="url(#X)"><path d="m15.643 10.64-.831 1.723c-.103.354.144.709.494.709h.748c.35 0 .598-.36.494-.709l-.505-1.723c-.108-.381-.286-.381-.4 0Z" fill="#D89992"/></g><g filter="url(#Y)"><path d="m15.535 10.475-.539 1.722a.546.546 0 0 0 .528.71h.797c.373 0 .637-.36.527-.71l-.538-1.722c-.116-.382-.654-.382-.775 0Z" fill="#FBC4B1"/><path d="m15.535 10.475-.539 1.722a.546.546 0 0 0 .528.71h.797c.373 0 .637-.36.527-.71l-.538-1.722c-.116-.382-.654-.382-.775 0Z" fill="url(#Z)"/><path d="m15.535 10.475-.539 1.722a.546.546 0 0 0 .528.71h.797c.373 0 .637-.36.527-.71l-.538-1.722c-.116-.382-.654-.382-.775 0Z" fill="url(#aa)"/><path d="m15.535 10.475-.539 1.722a.546.546 0 0 0 .528.71h.797c.373 0 .637-.36.527-.71l-.538-1.722c-.116-.382-.654-.382-.775 0Z" fill="url(#ab)"/><path d="m15.535 10.475-.539 1.722a.546.546 0 0 0 .528.71h.797c.373 0 .637-.36.527-.71l-.538-1.722c-.116-.382-.654-.382-.775 0Z" fill="url(#ac)"/></g><path d="M14.541 13.56c.4.207.875.326 1.381.326.512 0 .982-.119 1.381-.327a.205.205 0 0 1 .244.04.19.19 0 0 1 .021.244m-3.027-.284 2.986.257m-2.986-.257a.205.205 0 0 0-.244.042.189.189 0 0 0-.02.242m.264-.284-.223.257m3.25.027-.041-.027m.041.027-.041-.027m.041.027c-.348.528-.955.88-1.646.88-.69 0-1.297-.352-1.646-.88m3.25-.027a1.92 1.92 0 0 1-1.604.857 1.919 1.919 0 0 1-1.604-.857m-.042.027v.001l.042-.028m-.042.027.042-.027" fill="#88024E" stroke="url(#ad)" stroke-width=".1"/><g filter="url(#ae)"><path d="M19.692 8.007v-.001l-.003-.002-.004-.003-.012-.01a1.535 1.535 0 0 0-.157-.109 2.619 2.619 0 0 0-.426-.214 2.871 2.871 0 0 0-1.513-.16.541.541 0 0 0 .169 1.069c.403-.064.726.01.947.098a1.537 1.537 0 0 1 .304.161l.008.006a.541.541 0 0 0 .688-.835Z" fill="#1E1E1E"/></g><g filter="url(#af)"><path d="M12.097 8.007h.001v-.001l.003-.002.004-.003.012-.01a1.352 1.352 0 0 1 .157-.109 2.62 2.62 0 0 1 .426-.214c.364-.143.883-.26 1.513-.16a.541.541 0 0 1-.169 1.069 1.79 1.79 0 0 0-.946.098 1.533 1.533 0 0 0-.313.167.54.54 0 0 1-.688-.835Z" fill="#1E1E1E"/></g><path d="M18.343 9.314c.662 0 1.22.456 1.373 1.073a.278.278 0 0 1-.272.345h-2.26a.233.233 0 0 1-.23-.275 1.416 1.416 0 0 1 1.389-1.143Z" fill="#fff"/><path d="M18.133 9.59a.904.904 0 0 1 .871 1.142h-1.747a.908.908 0 0 1 .876-1.143Z" fill="url(#ag)"/><path d="M17.615 10.494c0-.288.23-.518.518-.518a.516.516 0 0 1 .46.756h-.917a.469.469 0 0 1-.061-.238Z" fill="#000"/><g filter="url(#ah)"><path d="M18.066 9.78c.065.087-.07.192-.223.306-.153.115-.267.195-.331.11-.065-.087.007-.25.16-.364.153-.115.33-.138.394-.052Z" fill="#C7A7A3"/><path d="M18.066 9.78c.065.087-.07.192-.223.306-.153.115-.267.195-.331.11-.065-.087.007-.25.16-.364.153-.115.33-.138.394-.052Z" fill="url(#ai)"/></g><g filter="url(#aj)"><path d="M18.939 10.375a.851.851 0 0 0-.235-.47l-.263.29.119.231.379-.051Z" fill="url(#ak)"/></g><path d="M13.497 9.314c-.662 0-1.221.456-1.373 1.073a.278.278 0 0 0 .27.345h2.262a.233.233 0 0 0 .23-.275 1.42 1.42 0 0 0-1.39-1.143Z" fill="#fff"/><path d="M13.706 9.59a.904.904 0 0 0-.871 1.142h1.747a.93.93 0 0 0 .033-.239.91.91 0 0 0-.909-.904Z" fill="url(#al)"/><path d="M14.224 10.494a.516.516 0 0 0-.518-.518.516.516 0 0 0-.46.756h.917a.513.513 0 0 0 .061-.238Z" fill="#000"/><g filter="url(#am)"><path d="M14.533 10.387c0-.292-.238-.487-.302-.546l-.293.283.18.366.415-.103Z" fill="url(#an)"/></g><g filter="url(#ao)"><path fill="#C7A7A3" fill-opacity=".9" d="M13.085 10.16a.395.2-27.914 1 0 .697-.37.395.2-27.914 1 0-.697.37"/><path transform="rotate(-27.914 13.433 9.976)" fill="url(#ap)" d="M13.039 9.976a.395.2 0 1 0 .79 0 .395.2 0 1 0-.79 0"/></g><g filter="url(#aq)"><path d="M17.605 7.86c.436-.076 1.287-.054 1.875.404" stroke="url(#ar)" stroke-width=".25" stroke-linecap="round"/></g><g filter="url(#as)"><path d="M12.315 8.386c.331-.293 1.055-.602 1.953-.459" stroke="url(#at)" stroke-width=".25" stroke-linecap="round"/></g><g filter="url(#au)"><path d="M11.328 5.887v.91c-.008.15-.072.488-.262.63" stroke="url(#av)" stroke-width=".25" stroke-linecap="round"/></g><defs><radialGradient id="a" cx="0" cy="0" r="1" gradientUnits="userSpaceOnUse" gradientTransform="matrix(3.59375 -2.4375 2.72822 4.02238 6.877 17.33)"><stop stop-color="#E1DAE6"/><stop offset="1" stop-color="#E6DEE6"/></radialGradient><radialGradient id="b" cx="0" cy="0" r="1" gradientUnits="userSpaceOnUse" gradientTransform="matrix(-.01562 -1.76562 2.48224 -.02197 8.596 17.83)"><stop offset=".384" stop-color="#DAD4DE"/><stop offset="1" stop-color="#DAD4DE" stop-opacity="0"/></radialGradient><radialGradient id="c" cx="0" cy="0" r="1" gradientUnits="userSpaceOnUse" gradientTransform="matrix(-5.47138 9.4622 -7.02133 -4.05998 10.46 19.268)"><stop stop-color="#E0D6E3"/><stop offset="1" stop-color="#D5C4DF"/></radialGradient><radialGradient id="d" cx="0" cy="0" r="1" gradientUnits="userSpaceOnUse" gradientTransform="rotate(44.444 -1.585 1.225) scale(4.68833)"><stop stop-color="#FBF7FF"/><stop offset=".836" stop-color="#F2E8F1"/></radialGradient><radialGradient id="e" cx="0" cy="0" r="1" gradientUnits="userSpaceOnUse" gradientTransform="matrix(-.03125 -1.59375 5.11385 -.10027 2.316 5.313)"><stop offset=".201" stop-color="#E8DEE9"/><stop offset="1" stop-color="#E8DEE9" stop-opacity="0"/></radialGradient><radialGradient id="f" cx="0" cy="0" r="1" gradientUnits="userSpaceOnUse" gradientTransform="rotate(55.985 -.49 1.892) scale(8.85283 12.8565)"><stop offset=".192" stop-color="#F3EBFE"/><stop offset=".819" stop-color="#DAC9F0"/></radialGradient><radialGradient id="g" cx="0" cy="0" r="1" gradientUnits="userSpaceOnUse" gradientTransform="matrix(-1.35939 5.78125 -6.81223 -1.6018 23.096 22.58)"><stop stop-color="#469FF7"/><stop offset="1" stop-color="#3984F1"/></radialGradient><radialGradient id="j" cx="0" cy="0" r="1" gradientUnits="userSpaceOnUse" gradientTransform="rotate(49.58 -20.954 18.108) scale(10.6026 14.7076)"><stop stop-color="#4488CB"/><stop offset="1" stop-color="#2878EA"/></radialGradient><radialGradient id="l" cx="0" cy="0" r="1" gradientUnits="userSpaceOnUse" gradientTransform="rotate(136.439 3.601 10.943) scale(4.39871 9.16434)"><stop offset=".208" stop-color="#1D4C88"/><stop offset="1" stop-color="#296094" stop-opacity="0"/></radialGradient><radialGradient id="n" cx="0" cy="0" r="1" gradientUnits="userSpaceOnUse" gradientTransform="matrix(-4.82764 -11.66358 1.33169 -.5512 15.957 28.962)"><stop offset=".318" stop-color="#4690E8"/><stop offset="1" stop-color="#4690E8" stop-opacity="0"/></radialGradient><radialGradient id="p" cx="0" cy="0" r="1" gradientUnits="userSpaceOnUse" gradientTransform="matrix(-1.37282 -3.155 .92095 -.40073 16.346 27.58)"><stop stop-color="#214186"/><stop offset="1" stop-color="#1F78C3" stop-opacity="0"/></radialGradient><radialGradient id="q" cx="0" cy="0" r="1" gradientUnits="userSpaceOnUse" gradientTransform="matrix(-1.15863 -1.17796 1.62432 -1.59766 14.335 18.515)"><stop offset=".328" stop-color="#083169"/><stop offset="1" stop-color="#18467E" stop-opacity="0"/></radialGradient><radialGradient id="s" cx="0" cy="0" r="1" gradientUnits="userSpaceOnUse" gradientTransform="matrix(2.01563 -.67188 .83418 2.50254 17.502 18.33)"><stop offset=".374" stop-color="#114273"/><stop offset="1" stop-color="#245A89" stop-opacity="0"/></radialGradient><radialGradient id="t" cx="0" cy="0" r="1" gradientUnits="userSpaceOnUse" gradientTransform="rotate(110.875 2.49 18.294) scale(11.8396 2.00952)"><stop stop-color="#4A9CF7"/><stop offset="1" stop-color="#4695F7" stop-opacity="0"/></radialGradient><radialGradient id="w" cx="0" cy="0" r="1" gradientUnits="userSpaceOnUse" gradientTransform="matrix(1.8125 1.75 -2.19025 2.26847 13.158 17.204)"><stop stop-color="#C3705C"/><stop offset="1" stop-color="#DF9981" stop-opacity="0"/></radialGradient><radialGradient id="x" cx="0" cy="0" r="1" gradientUnits="userSpaceOnUse" gradientTransform="rotate(92.228 .43 16.312) scale(2.71839 2.59628)"><stop stop-color="#F0AF9E"/><stop offset="1" stop-color="#E7A08D" stop-opacity="0"/></radialGradient><radialGradient id="A" cx="0" cy="0" r="1" gradientUnits="userSpaceOnUse" gradientTransform="matrix(1.77875 0 0 3.11283 9.417 10.764)"><stop offset=".351" stop-color="#CF9888"/><stop offset="1" stop-color="#BE8C77"/></radialGradient><radialGradient id="F" cx="0" cy="0" r="1" gradientUnits="userSpaceOnUse" gradientTransform="matrix(.83796 -.61016 .69642 .95642 21.13 10.495)"><stop offset=".543" stop-color="#D9AA94"/><stop offset="1" stop-color="#D9AA94" stop-opacity="0"/></radialGradient><radialGradient id="H" cx="0" cy="0" r="1" gradientUnits="userSpaceOnUse" gradientTransform="matrix(.83244 -1.5311 .89615 .48723 20.71 11.596)"><stop offset=".755" stop-color="#D6A38D" stop-opacity="0"/><stop offset=".916" stop-color="#D6A38D"/></radialGradient><radialGradient id="I" cx="0" cy="0" r="1" gradientUnits="userSpaceOnUse" gradientTransform="matrix(.26282 .26015 -.33537 .3388 20.752 10.764)"><stop stop-color="#D5A58E"/><stop offset="1" stop-color="#D5A58E" stop-opacity="0"/></radialGradient><radialGradient id="L" cx="0" cy="0" r="1" gradientUnits="userSpaceOnUse" gradientTransform="matrix(0 9.56372 -12.9822 0 15.951 8.813)"><stop offset=".557" stop-color="#D7A09D" stop-opacity="0"/><stop offset="1" stop-color="#B07F87"/></radialGradient><radialGradient id="O" cx="0" cy="0" r="1" gradientUnits="userSpaceOnUse" gradientTransform="matrix(0 -1.32487 1.63061 0 18.3 9.475)"><stop stop-color="#F5B7A7"/><stop offset="1" stop-color="#F5B7A7" stop-opacity="0"/></radialGradient><radialGradient id="P" cx="0" cy="0" r="1" gradientUnits="userSpaceOnUse" gradientTransform="matrix(0 -1.4098 1.75321 0 13.68 9.441)"><stop stop-color="#D0958D"/><stop offset="1" stop-color="#D0958D" stop-opacity="0"/></radialGradient><radialGradient id="T" cx="0" cy="0" r="1" gradientUnits="userSpaceOnUse" gradientTransform="matrix(.80868 -2.99687 1.11133 .29988 20.326 6.602)"><stop stop-color="#464344"/><stop offset="1" stop-color="#464344" stop-opacity="0"/></radialGradient><radialGradient id="U" cx="0" cy="0" r="1" gradientUnits="userSpaceOnUse" gradientTransform="matrix(3.8769 .35677 -.19183 2.08458 18.662 4.818)"><stop offset=".335" stop-color="#4A4648"/><stop offset="1" stop-color="#4A4648" stop-opacity="0"/></radialGradient><radialGradient id="V" cx="0" cy="0" r="1" gradientUnits="userSpaceOnUse" gradientTransform="matrix(0 1.70203 -2.63597 0 15.922 2.046)"><stop stop-color="#423D3F"/><stop offset="1" stop-color="#423D3F" stop-opacity="0"/></radialGradient><radialGradient id="W" cx="0" cy="0" r="1" gradientUnits="userSpaceOnUse" gradientTransform="rotate(-36.235 18.38 -9.865) scale(3.86286 6.05184)"><stop stop-color="#463C39"/><stop offset="1" stop-color="#463C39" stop-opacity="0"/></radialGradient><radialGradient id="ac" cx="0" cy="0" r="1" gradientUnits="userSpaceOnUse" gradientTransform="matrix(0 .19958 -.6412 0 16.254 12.392)"><stop stop-color="#FFD7C1"/><stop offset="1" stop-color="#FFD7C1" stop-opacity="0"/></radialGradient><radialGradient id="ag" cx="0" cy="0" r="1" gradientUnits="userSpaceOnUse" gradientTransform="matrix(0 .82217 -1.30776 0 18.13 10.073)"><stop offset=".802" stop-color="#7D574A"/><stop offset="1" stop-color="#694B43"/><stop offset="1" stop-color="#804D49"/><stop offset="1" stop-color="#664944"/></radialGradient><radialGradient id="ai" cx="0" cy="0" r="1" gradientUnits="userSpaceOnUse" gradientTransform="rotate(-127.812 11.437 .696) scale(.38335 .52778)"><stop offset=".766" stop-color="#FFE6E2" stop-opacity="0"/><stop offset=".966" stop-color="#FFE6E2"/></radialGradient><radialGradient id="al" cx="0" cy="0" r="1" gradientUnits="userSpaceOnUse" gradientTransform="matrix(0 .82222 -1.30782 0 13.708 10.072)"><stop offset=".802" stop-color="#7D574A"/><stop offset="1" stop-color="#694B43"/><stop offset="1" stop-color="#804D49"/><stop offset="1" stop-color="#664944"/></radialGradient><radialGradient id="ap" cx="0" cy="0" r="1" gradientUnits="userSpaceOnUse" gradientTransform="matrix(-.00784 -.5007 .60185 -.00942 13.418 10.295)"><stop offset=".766" stop-color="#FFE6E2" stop-opacity="0"/><stop offset=".966" stop-color="#FFE6E2"/></radialGradient><linearGradient id="h" x1="24.158" y1="30.329" x2="24.189" y2="26.673" gradientUnits="userSpaceOnUse"><stop offset=".078" stop-color="#286AF0"/><stop offset="1" stop-color="#3A87F2" stop-opacity="0"/></linearGradient><linearGradient id="i" x1="18.12" y1="27.765" x2="19.472" y2="28.151" gradientUnits="userSpaceOnUse"><stop stop-color="#2F6FEC"/><stop offset="1" stop-color="#2F6FEC" stop-opacity="0"/></linearGradient><linearGradient id="k" x1="13.928" y1="28.493" x2="11.678" y2="29.275" gradientUnits="userSpaceOnUse"><stop stop-color="#1D63C8"/><stop offset="1" stop-color="#2772E0" stop-opacity="0"/></linearGradient><linearGradient id="m" x1="12.314" y1="27.392" x2="13.689" y2="26.829" gradientUnits="userSpaceOnUse"><stop offset=".223" stop-color="#3A7CD9"/><stop offset="1" stop-color="#3A7CD9" stop-opacity="0"/></linearGradient><linearGradient id="o" x1="15.627" y1="30.173" x2="14.22" y2="29.486" gradientUnits="userSpaceOnUse"><stop offset=".208" stop-color="#236DD3"/><stop offset="1" stop-color="#236DD3" stop-opacity="0"/></linearGradient><linearGradient id="r" x1="16.002" y1="24.829" x2="18.033" y2="25.736" gradientUnits="userSpaceOnUse"><stop stop-color="#4B6B9A"/><stop offset="1" stop-color="#4B6B9A" stop-opacity="0"/></linearGradient><linearGradient id="v" x1="16.366" y1="25.145" x2="16.366" y2="15.619" gradientUnits="userSpaceOnUse"><stop stop-color="#F1B6A2"/><stop offset="1" stop-color="#FABFA6"/></linearGradient><linearGradient id="C" x1="11.11" y1="11.046" x2="10.46" y2="11.046" gradientUnits="userSpaceOnUse"><stop stop-color="#BA7C6B"/><stop offset="1" stop-color="#BE8474"/></linearGradient><linearGradient id="E" x1="21.854" y1="9.658" x2="21.024" y2="12.228" gradientUnits="userSpaceOnUse"><stop stop-color="#FBD3BD"/><stop offset="1" stop-color="#F0B8A4"/></linearGradient><linearGradient id="K" x1="20.013" y1="11.159" x2="12.272" y2="12.312" gradientUnits="userSpaceOnUse"><stop stop-color="#FFDABF"/><stop offset="1" stop-color="#EAAB97"/></linearGradient><linearGradient id="M" x1="10.203" y1="12.707" x2="13.607" y2="12.822" gradientUnits="userSpaceOnUse"><stop stop-color="#A58787"/><stop offset="1" stop-color="#DEAD9D" stop-opacity="0"/></linearGradient><linearGradient id="N" x1="10.453" y1="13.892" x2="12.36" y2="13.823" gradientUnits="userSpaceOnUse"><stop stop-color="#E8AD97"/><stop offset="1" stop-color="#E8AD97" stop-opacity="0"/></linearGradient><linearGradient id="R" x1="15.383" y1="8.133" x2="23.638" y2="5.178" gradientUnits="userSpaceOnUse"><stop stop-color="#FFDEC4"/><stop offset="1" stop-color="#FFDEC4" stop-opacity="0"/></linearGradient><linearGradient id="Z" x1="15.046" y1="11.827" x2="15.997" y2="11.827" gradientUnits="userSpaceOnUse"><stop stop-color="#DFA790"/><stop offset="1" stop-color="#DFA790" stop-opacity="0"/></linearGradient><linearGradient id="aa" x1="16.874" y1="12.154" x2="15.834" y2="12.139" gradientUnits="userSpaceOnUse"><stop stop-color="#FFDFC4"/><stop offset="1" stop-color="#FFDFC4" stop-opacity="0"/></linearGradient><linearGradient id="ab" x1="16.12" y1="12.906" x2="16.12" y2="12.325" gradientUnits="userSpaceOnUse"><stop stop-color="#DC9C96"/><stop offset="1" stop-color="#DC9C96" stop-opacity="0"/></linearGradient><linearGradient id="ad" x1="14.871" y1="14.543" x2="15.312" y2="13.846" gradientUnits="userSpaceOnUse"><stop stop-color="#D9A4A4"/><stop offset=".663" stop-color="#D9A4A4" stop-opacity="0"/></linearGradient><linearGradient id="ak" x1="18.919" y1="10.127" x2="18.601" y2="10.323" gradientUnits="userSpaceOnUse"><stop stop-color="#B4948D"/><stop offset="1" stop-color="#B4948D" stop-opacity="0"/></linearGradient><linearGradient id="an" x1="14.462" y1="10.127" x2="14.144" y2="10.323" gradientUnits="userSpaceOnUse"><stop stop-color="#B4948D"/><stop offset="1" stop-color="#B4948D" stop-opacity="0"/></linearGradient><linearGradient id="ar" x1="18.935" y1="7.958" x2="18.509" y2="7.088" gradientUnits="userSpaceOnUse"><stop stop-color="#353435"/><stop offset="1" stop-color="#353435" stop-opacity="0"/></linearGradient><linearGradient id="at" x1="13.558" y1="7.829" x2="12.353" y2="7.323" gradientUnits="userSpaceOnUse"><stop stop-color="#353435"/><stop offset="1" stop-color="#353435" stop-opacity="0"/></linearGradient><linearGradient id="av" x1="11.197" y1="5.787" x2="11.197" y2="7.974" gradientUnits="userSpaceOnUse"><stop stop-color="#3C393A"/><stop offset="1" stop-color="#3C393A" stop-opacity="0"/></linearGradient><filter id="u" x="12.293" y="16.517" width="6.906" height="10.938" filterUnits="userSpaceOnUse" color-interpolation-filters="sRGB"><feFlood flood-opacity="0" result="BackgroundImageFix"/><feBlend in="SourceGraphic" in2="BackgroundImageFix" result="shape"/><feColorMatrix in="SourceAlpha" values="0 0 0 0 0 0 0 0 0 0 0 0 0 0 0 0 0 0 127 0" result="hardAlpha"/><feOffset dx="-.25"/><feGaussianBlur stdDeviation=".5"/><feComposite in2="hardAlpha" operator="arithmetic" k2="-1" k3="1"/><feColorMatrix values="0 0 0 0 0.854902 0 0 0 0 0.568627 0 0 0 0 0.454902 0 0 0 1 0"/><feBlend in2="shape" result="effect1_innerShadow_4002_793"/></filter><filter id="y" x="15.251" y="17.275" width="3.075" height="1.977" filterUnits="userSpaceOnUse" color-interpolation-filters="sRGB"><feFlood flood-opacity="0" result="BackgroundImageFix"/><feBlend in="SourceGraphic" in2="BackgroundImageFix" result="shape"/><feGaussianBlur stdDeviation=".3" result="effect1_foregroundBlur_4002_793"/></filter><filter id="z" x="9.417" y="9.072" width="3.584" height="3.384" filterUnits="userSpaceOnUse" color-interpolation-filters="sRGB"><feFlood flood-opacity="0" result="BackgroundImageFix"/><feBlend in="SourceGraphic" in2="BackgroundImageFix" result="shape"/><feColorMatrix in="SourceAlpha" values="0 0 0 0 0 0 0 0 0 0 0 0 0 0 0 0 0 0 127 0" result="hardAlpha"/><feOffset dx=".2"/><feGaussianBlur stdDeviation=".15"/><feComposite in2="hardAlpha" operator="arithmetic" k2="-1" k3="1"/><feColorMatrix values="0 0 0 0 0.917647 0 0 0 0 0.694118 0 0 0 0 0.607843 0 0 0 1 0"/><feBlend in2="shape" result="effect1_innerShadow_4002_793"/></filter><filter id="B" x="9.601" y="9.255" width="3.017" height="3.017" filterUnits="userSpaceOnUse" color-interpolation-filters="sRGB"><feFlood flood-opacity="0" result="BackgroundImageFix"/><feBlend in="SourceGraphic" in2="BackgroundImageFix" result="shape"/><feGaussianBlur stdDeviation=".25" result="effect1_foregroundBlur_4002_793"/></filter><filter id="D" x="19.06" y="8.822" width="3.634" height="3.634" filterUnits="userSpaceOnUse" color-interpolation-filters="sRGB"><feFlood flood-opacity="0" result="BackgroundImageFix"/><feBlend in="SourceGraphic" in2="BackgroundImageFix" result="shape"/><feColorMatrix in="SourceAlpha" values="0 0 0 0 0 0 0 0 0 0 0 0 0 0 0 0 0 0 127 0" result="hardAlpha"/><feOffset dx=".25" dy="-.25"/><feGaussianBlur stdDeviation=".25"/><feComposite in2="hardAlpha" operator="arithmetic" k2="-1" k3="1"/><feColorMatrix values="0 0 0 0 0.843137 0 0 0 0 0.623529 0 0 0 0 0.580392 0 0 0 1 0"/><feBlend in2="shape" result="effect1_innerShadow_4002_793"/></filter><filter id="G" x="19.244" y="9.255" width="3.017" height="3.017" filterUnits="userSpaceOnUse" color-interpolation-filters="sRGB"><feFlood flood-opacity="0" result="BackgroundImageFix"/><feBlend in="SourceGraphic" in2="BackgroundImageFix" result="shape"/><feGaussianBlur stdDeviation=".25" result="effect1_foregroundBlur_4002_793"/></filter><filter id="J" x="10.694" y="5.063" width="10.515" height="12.442" filterUnits="userSpaceOnUse" color-interpolation-filters="sRGB"><feFlood flood-opacity="0" result="BackgroundImageFix"/><feBlend in="SourceGraphic" in2="BackgroundImageFix" result="shape"/><feColorMatrix in="SourceAlpha" values="0 0 0 0 0 0 0 0 0 0 0 0 0 0 0 0 0 0 127 0" result="hardAlpha"/><feOffset dy=".25"/><feGaussianBlur stdDeviation=".375"/><feComposite in2="hardAlpha" operator="arithmetic" k2="-1" k3="1"/><feColorMatrix values="0 0 0 0 0.819608 0 0 0 0 0.615686 0 0 0 0 0.509804 0 0 0 1 0"/><feBlend in2="shape" result="effect1_innerShadow_4002_793"/></filter><filter id="Q" x="14.095" y="3.063" width="8.304" height="7.108" filterUnits="userSpaceOnUse" color-interpolation-filters="sRGB"><feFlood flood-opacity="0" result="BackgroundImageFix"/><feBlend in="SourceGraphic" in2="BackgroundImageFix" result="shape"/><feGaussianBlur stdDeviation="1" result="effect1_foregroundBlur_4002_793"/></filter><filter id="S" x="9.536" y="1.546" width="12.773" height="8.653" filterUnits="userSpaceOnUse" color-interpolation-filters="sRGB"><feFlood flood-opacity="0" result="BackgroundImageFix"/><feBlend in="SourceGraphic" in2="BackgroundImageFix" result="shape"/><feColorMatrix in="SourceAlpha" values="0 0 0 0 0 0 0 0 0 0 0 0 0 0 0 0 0 0 127 0" result="hardAlpha"/><feOffset dy="-.5"/><feGaussianBlur stdDeviation=".375"/><feComposite in2="hardAlpha" operator="arithmetic" k2="-1" k3="1"/><feColorMatrix values="0 0 0 0 0.0392157 0 0 0 0 0.00784314 0 0 0 0 0.0196078 0 0 0 1 0"/><feBlend in2="shape" result="effect1_innerShadow_4002_793"/></filter><filter id="X" x="14.038" y="9.604" width="3.284" height="4.218" filterUnits="userSpaceOnUse" color-interpolation-filters="sRGB"><feFlood flood-opacity="0" result="BackgroundImageFix"/><feBlend in="SourceGraphic" in2="BackgroundImageFix" result="shape"/><feGaussianBlur stdDeviation=".375" result="effect1_foregroundBlur_4002_793"/></filter><filter id="Y" x="14.721" y="9.938" width="2.402" height="3.218" filterUnits="userSpaceOnUse" color-interpolation-filters="sRGB"><feFlood flood-opacity="0" result="BackgroundImageFix"/><feBlend in="SourceGraphic" in2="BackgroundImageFix" result="shape"/><feGaussianBlur stdDeviation=".125" result="effect1_foregroundBlur_4002_793"/></filter><filter id="ae" x="17.121" y="7.071" width="3.017" height="1.893" filterUnits="userSpaceOnUse" color-interpolation-filters="sRGB"><feFlood flood-opacity="0" result="BackgroundImageFix"/><feBlend in="SourceGraphic" in2="BackgroundImageFix" result="shape"/><feColorMatrix in="SourceAlpha" values="0 0 0 0 0 0 0 0 0 0 0 0 0 0 0 0 0 0 127 0" result="hardAlpha"/><feOffset dx=".25" dy="-.4"/><feGaussianBlur stdDeviation=".3"/><feComposite in2="hardAlpha" operator="arithmetic" k2="-1" k3="1"/><feColorMatrix values="0 0 0 0 0.0431373 0 0 0 0 0.0196078 0 0 0 0 0.027451 0 0 0 1 0"/><feBlend in2="shape" result="effect1_innerShadow_4002_793"/></filter><filter id="af" x="11.903" y="7.071" width="3.017" height="1.893" filterUnits="userSpaceOnUse" color-interpolation-filters="sRGB"><feFlood flood-opacity="0" result="BackgroundImageFix"/><feBlend in="SourceGraphic" in2="BackgroundImageFix" result="shape"/><feColorMatrix in="SourceAlpha" values="0 0 0 0 0 0 0 0 0 0 0 0 0 0 0 0 0 0 127 0" result="hardAlpha"/><feOffset dx=".25" dy="-.4"/><feGaussianBlur stdDeviation=".3"/><feComposite in2="hardAlpha" operator="arithmetic" k2="-1" k3="1"/><feColorMatrix values="0 0 0 0 0.0431373 0 0 0 0 0.0196078 0 0 0 0 0.027451 0 0 0 1 0"/><feBlend in2="shape" result="effect1_innerShadow_4002_793"/></filter><filter id="ah" x="17.388" y="9.628" width=".795" height=".703" filterUnits="userSpaceOnUse" color-interpolation-filters="sRGB"><feFlood flood-opacity="0" result="BackgroundImageFix"/><feBlend in="SourceGraphic" in2="BackgroundImageFix" result="shape"/><feGaussianBlur stdDeviation=".05" result="effect1_foregroundBlur_4002_793"/></filter><filter id="aj" x="18.241" y="9.706" width=".898" height=".92" filterUnits="userSpaceOnUse" color-interpolation-filters="sRGB"><feFlood flood-opacity="0" result="BackgroundImageFix"/><feBlend in="SourceGraphic" in2="BackgroundImageFix" result="shape"/><feGaussianBlur stdDeviation=".1" result="effect1_foregroundBlur_4002_793"/></filter><filter id="am" x="13.739" y="9.641" width=".994" height="1.049" filterUnits="userSpaceOnUse" color-interpolation-filters="sRGB"><feFlood flood-opacity="0" result="BackgroundImageFix"/><feBlend in="SourceGraphic" in2="BackgroundImageFix" result="shape"/><feGaussianBlur stdDeviation=".1" result="effect1_foregroundBlur_4002_793"/></filter><filter id="ao" x="12.972" y="9.62" width=".923" height=".711" filterUnits="userSpaceOnUse" color-interpolation-filters="sRGB"><feFlood flood-opacity="0" result="BackgroundImageFix"/><feBlend in="SourceGraphic" in2="BackgroundImageFix" result="shape"/><feGaussianBlur stdDeviation=".05" result="effect1_foregroundBlur_4002_793"/></filter><filter id="aq" x="16.98" y="7.202" width="3.125" height="1.687" filterUnits="userSpaceOnUse" color-interpolation-filters="sRGB"><feFlood flood-opacity="0" result="BackgroundImageFix"/><feBlend in="SourceGraphic" in2="BackgroundImageFix" result="shape"/><feGaussianBlur stdDeviation=".25" result="effect1_foregroundBlur_4002_793"/></filter><filter id="as" x="11.69" y="7.266" width="3.203" height="1.745" filterUnits="userSpaceOnUse" color-interpolation-filters="sRGB"><feFlood flood-opacity="0" result="BackgroundImageFix"/><feBlend in="SourceGraphic" in2="BackgroundImageFix" result="shape"/><feGaussianBlur stdDeviation=".25" result="effect1_foregroundBlur_4002_793"/></filter><filter id="au" x="10.691" y="5.512" width="1.012" height="2.29" filterUnits="userSpaceOnUse" color-interpolation-filters="sRGB"><feFlood flood-opacity="0" result="BackgroundImageFix"/><feBlend in="SourceGraphic" in2="BackgroundImageFix" result="shape"/><feGaussianBlur stdDeviation=".125" result="effect1_foregroundBlur_4002_793"/></filter></defs></svg>