<svg width="32" height="32" fill="none" xmlns="http://www.w3.org/2000/svg"><path d="M12.604 19.085a.216.216 0 0 1-.043-.238h-.438l.32.996c.262.078.54.05.59-.114a.318.318 0 0 0-.074-.3 8.835 8.835 0 0 1-.355-.344Z" fill="#BF8011"/><path d="M19.269 19.085a.216.216 0 0 0 .043-.238h.437l-.32.996c-.262.078-.54.05-.59-.114a.318.318 0 0 1 .074-.3c.084-.077.271-.253.356-.344Z" fill="#C78E18"/><path d="M12.237 20.366c-.938-1.982-.768-6.26-.487-7.824h1.672c-.072 2.425.04 5.243.178 6.511.011.103.083.214 0 .276a.29.29 0 0 1-.439-.115l-.117-.262a.184.184 0 0 0-.225-.1.176.176 0 0 0-.12.201c.061.3.172.678.264.973a.418.418 0 0 1-.238.513c-.186.076-.402.008-.488-.174Z" fill="#EAAE34"/><path d="M12.237 20.366c-.938-1.982-.768-6.26-.487-7.824h1.672c-.072 2.425.04 5.243.178 6.511.011.103.083.214 0 .276a.29.29 0 0 1-.439-.115l-.117-.262a.184.184 0 0 0-.225-.1.176.176 0 0 0-.12.201c.061.3.172.678.264.973a.418.418 0 0 1-.238.513c-.186.076-.402.008-.488-.174Z" fill="url(#a)"/><path d="M12.237 20.366c-.938-1.982-.768-6.26-.487-7.824h1.672c-.072 2.425.04 5.243.178 6.511.011.103.083.214 0 .276a.29.29 0 0 1-.439-.115l-.117-.262a.184.184 0 0 0-.225-.1.176.176 0 0 0-.12.201c.061.3.172.678.264.973a.418.418 0 0 1-.238.513c-.186.076-.402.008-.488-.174Z" fill="url(#b)"/><path d="M12.237 20.366c-.938-1.982-.768-6.26-.487-7.824h1.672c-.072 2.425.04 5.243.178 6.511.011.103.083.214 0 .276a.29.29 0 0 1-.439-.115l-.117-.262a.184.184 0 0 0-.225-.1.176.176 0 0 0-.12.201c.061.3.172.678.264.973a.418.418 0 0 1-.238.513c-.186.076-.402.008-.488-.174Z" fill="url(#c)"/><path d="M19.825 20.366c.938-1.982.768-6.26.487-7.824H18.64c.072 2.425-.155 5.254-.294 6.522a.29.29 0 0 0 .555.15l.117-.262a.184.184 0 0 1 .225-.1.176.176 0 0 1 .12.201c-.061.3-.172.678-.264.973a.418.418 0 0 0 .238.513c.186.076.402.008.488-.174Z" fill="#FFCC2D"/><path d="M19.825 20.366c.938-1.982.768-6.26.487-7.824H18.64c.072 2.425-.155 5.254-.294 6.522a.29.29 0 0 0 .555.15l.117-.262a.184.184 0 0 1 .225-.1.176.176 0 0 1 .12.201c-.061.3-.172.678-.264.973a.418.418 0 0 0 .238.513c.186.076.402.008.488-.174Z" fill="url(#d)"/><path d="M19.825 20.366c.938-1.982.768-6.26.487-7.824H18.64c.072 2.425-.155 5.254-.294 6.522a.29.29 0 0 0 .555.15l.117-.262a.184.184 0 0 1 .225-.1.176.176 0 0 1 .12.201c-.061.3-.172.678-.264.973a.418.418 0 0 0 .238.513c.186.076.402.008.488-.174Z" fill="url(#e)"/><path d="M19.825 20.366c.938-1.982.768-6.26.487-7.824H18.64c.072 2.425-.155 5.254-.294 6.522a.29.29 0 0 0 .555.15l.117-.262a.184.184 0 0 1 .225-.1.176.176 0 0 1 .12.201c-.061.3-.172.678-.264.973a.418.418 0 0 0 .238.513c.186.076.402.008.488-.174Z" fill="url(#f)"/><path d="M11.469 12.585c.486-2.253 1.628-3.333 3.03-3.828v3.949h-2.933a.1.1 0 0 1-.097-.12Z" fill="#3B97DB"/><path d="M11.469 12.585c.486-2.253 1.628-3.333 3.03-3.828v3.949h-2.933a.1.1 0 0 1-.097-.12Z" fill="url(#g)"/><path d="M11.469 12.585c.486-2.253 1.628-3.333 3.03-3.828v3.949h-2.933a.1.1 0 0 1-.097-.12Z" fill="url(#h)"/><path d="M11.469 12.585c.486-2.253 1.628-3.333 3.03-3.828v3.949h-2.933a.1.1 0 0 1-.097-.12Z" fill="url(#i)"/><path d="M11.469 12.585c.486-2.253 1.628-3.333 3.03-3.828v3.949h-2.933a.1.1 0 0 1-.097-.12Z" fill="url(#j)"/><path d="M20.404 12.585c-.486-2.253-1.629-3.333-3.03-3.828v3.949h2.933a.1.1 0 0 0 .097-.12Z" fill="#4FA0F0"/><path d="M20.404 12.585c-.486-2.253-1.629-3.333-3.03-3.828v3.949h2.933a.1.1 0 0 0 .097-.12Z" fill="url(#k)"/><path d="M20.404 12.585c-.486-2.253-1.629-3.333-3.03-3.828v3.949h2.933a.1.1 0 0 0 .097-.12Z" fill="url(#l)"/><g filter="url(#m)"><path d="m12.952 15.936.484 12.454h2l.238-9.524c0-.328.029-.86.262-.86.212 0 .263.555.262.86l.238 9.524h2l.485-12.454h-5.97Z" fill="#A2859A"/></g><path d="m12.952 15.936.484 12.454h2l.238-9.524c0-.328.029-.86.262-.86.212 0 .263.555.262.86l.238 9.524h2l.485-12.454h-5.97Z" fill="url(#n)"/><path d="m12.952 15.936.484 12.454h2l.238-9.524c0-.328.029-.86.262-.86.212 0 .263.555.262.86l.238 9.524h2l.485-12.454h-5.97Z" fill="url(#o)"/><path d="m12.952 15.936.484 12.454h2l.238-9.524c0-.328.029-.86.262-.86.212 0 .263.555.262.86l.238 9.524h2l.485-12.454h-5.97Z" fill="url(#p)"/><path d="m12.952 15.936.484 12.454h2l.238-9.524c0-.328.029-.86.262-.86.212 0 .263.555.262.86l.238 9.524h2l.485-12.454h-5.97Z" fill="url(#q)"/><path d="m12.952 15.936.484 12.454h2l.238-9.524c0-.328.029-.86.262-.86.212 0 .263.555.262.86l.238 9.524h2l.485-12.454h-5.97Z" fill="url(#r)"/><g filter="url(#s)"><path d="M12.878 11.452a3.059 3.059 0 1 1 6.117 0v4.441a.094.094 0 0 1-.094.094h-5.93a.094.094 0 0 1-.093-.094v-4.441Z" fill="url(#t)"/><path d="M12.878 11.452a3.059 3.059 0 1 1 6.117 0v4.441a.094.094 0 0 1-.094.094h-5.93a.094.094 0 0 1-.093-.094v-4.441Z" fill="url(#u)"/></g><path d="M12.878 11.452a3.059 3.059 0 1 1 6.117 0v4.441a.094.094 0 0 1-.094.094h-5.93a.094.094 0 0 1-.093-.094v-4.441Z" fill="url(#v)"/><path d="M12.878 11.452a3.059 3.059 0 1 1 6.117 0v4.441a.094.094 0 0 1-.094.094h-5.93a.094.094 0 0 1-.093-.094v-4.441Z" fill="url(#w)"/><path d="M12.878 11.452a3.059 3.059 0 1 1 6.117 0v4.441a.094.094 0 0 1-.094.094h-5.93a.094.094 0 0 1-.093-.094v-4.441Z" fill="url(#x)"/><path d="M15.065 7.3h1.742V8.65a.871.871 0 0 1-1.742 0V7.3Z" fill="url(#y)"/><g filter="url(#z)"><path d="M12.37 29.745v.242h3.066V28.39h-1.992c-.102.367-.574.753-.816.914a.539.539 0 0 0-.258.441Z" fill="#5D4480"/></g><path d="M19.503 29.745v.242h-3.067V28.39h1.992c.102.367.575.753.817.914.186.123.258.3.258.441Z" fill="url(#A)"/><path d="M19.503 29.745v.242h-3.067V28.39h1.992c.102.367.575.753.817.914.186.123.258.3.258.441Z" fill="url(#B)"/><g filter="url(#C)"><path d="m13.777 16.308.47 11.765h.812v-10.61h2.203v10.61h.672l.437-11.765h-4.593Z" fill="#AC99AA"/></g><circle cx="13.822" cy="5.836" r=".742" fill="url(#D)"/><g filter="url(#E)"><circle cx="13.822" cy="5.836" r=".442" fill="url(#F)"/></g><g filter="url(#G)"><circle cx="18.05" cy="5.836" r=".742" fill="url(#H)"/><circle cx="18.05" cy="5.836" r=".742" fill="url(#I)"/></g><g filter="url(#J)"><circle cx="18.05" cy="5.836" r=".442" fill="#FFBF34"/><circle cx="18.05" cy="5.836" r=".442" fill="url(#K)"/><circle cx="18.05" cy="5.836" r=".442" fill="url(#L)"/></g><path d="M13.665 5.564a13.37 13.37 0 0 1-.025-.64c0-.118.047-.26.143-.331l.071-.072a.47.47 0 0 0 .167-.379v-.38c0-.118.071-.213.19-.236.287-.071.883-.19 1.741-.19.859 0 1.455.119 1.74.19.096.023.192.118.192.237v.38c0 .141.071.284.166.378.224.157.21.243.191.427-.006.057-.024.531-.04.64l-.118 1.76c-.071.786-.69 1.334-1.427 1.334H15.23c-.76 0-1.355-.548-1.427-1.334l-.137-1.784Z" fill="url(#M)"/><path d="M13.665 5.564a13.37 13.37 0 0 1-.025-.64c0-.118.047-.26.143-.331l.071-.072a.47.47 0 0 0 .167-.379v-.38c0-.118.071-.213.19-.236.287-.071.883-.19 1.741-.19.859 0 1.455.119 1.74.19.096.023.192.118.192.237v.38c0 .141.071.284.166.378.224.157.21.243.191.427-.006.057-.024.531-.04.64l-.118 1.76c-.071.786-.69 1.334-1.427 1.334H15.23c-.76 0-1.355-.548-1.427-1.334l-.137-1.784Z" fill="url(#N)"/><path d="M13.665 5.564a13.37 13.37 0 0 1-.025-.64c0-.118.047-.26.143-.331l.071-.072a.47.47 0 0 0 .167-.379v-.38c0-.118.071-.213.19-.236.287-.071.883-.19 1.741-.19.859 0 1.455.119 1.74.19.096.023.192.118.192.237v.38c0 .141.071.284.166.378.224.157.21.243.191.427-.006.057-.024.531-.04.64l-.118 1.76c-.071.786-.69 1.334-1.427 1.334H15.23c-.76 0-1.355-.548-1.427-1.334l-.137-1.784Z" fill="url(#O)"/><path d="M13.665 5.564a13.37 13.37 0 0 1-.025-.64c0-.118.047-.26.143-.331l.071-.072a.47.47 0 0 0 .167-.379v-.38c0-.118.071-.213.19-.236.287-.071.883-.19 1.741-.19.859 0 1.455.119 1.74.19.096.023.192.118.192.237v.38c0 .141.071.284.166.378.224.157.21.243.191.427-.006.057-.024.531-.04.64l-.118 1.76c-.071.786-.69 1.334-1.427 1.334H15.23c-.76 0-1.355-.548-1.427-1.334l-.137-1.784Z" fill="url(#P)"/><path d="M13.665 5.564a13.37 13.37 0 0 1-.025-.64c0-.118.047-.26.143-.331l.071-.072a.47.47 0 0 0 .167-.379v-.38c0-.118.071-.213.19-.236.287-.071.883-.19 1.741-.19.859 0 1.455.119 1.74.19.096.023.192.118.192.237v.38c0 .141.071.284.166.378.224.157.21.243.191.427-.006.057-.024.531-.04.64l-.118 1.76c-.071.786-.69 1.334-1.427 1.334H15.23c-.76 0-1.355-.548-1.427-1.334l-.137-1.784Z" fill="url(#Q)"/><g filter="url(#R)"><path d="m18.074 2.957.191.095a.874.874 0 0 1 .453.948l-.262 1.351c-.023.14-.116.234-.254.237.015-.224.03-.585.036-.642.02-.192-.01-.25-.187-.425a.558.558 0 0 1-.167-.379v-.38a.256.256 0 0 0-.191-.236 7.283 7.283 0 0 0-1.74-.19c-.859 0-1.455.119-1.741.19a.231.231 0 0 0-.19.237v.38a.47.47 0 0 1-.168.378l-.071.071c-.096.072-.144.22-.144.339.007.069.016.467.027.633a.282.282 0 0 1-.265-.237l-.262-1.35a.908.908 0 0 1 .477-.925c.45-.198.615-.498.977-.807a.872.872 0 0 1 .978-.142c.238.071.5.071.74 0a1.072 1.072 0 0 1 1.048.237l.358.356c.095.118.214.19.357.26Z" fill="#FFA91B"/><path d="m18.074 2.957.191.095a.874.874 0 0 1 .453.948l-.262 1.351c-.023.14-.116.234-.254.237.015-.224.03-.585.036-.642.02-.192-.01-.25-.187-.425a.558.558 0 0 1-.167-.379v-.38a.256.256 0 0 0-.191-.236 7.283 7.283 0 0 0-1.74-.19c-.859 0-1.455.119-1.741.19a.231.231 0 0 0-.19.237v.38a.47.47 0 0 1-.168.378l-.071.071c-.096.072-.144.22-.144.339.007.069.016.467.027.633a.282.282 0 0 1-.265-.237l-.262-1.35a.908.908 0 0 1 .477-.925c.45-.198.615-.498.977-.807a.872.872 0 0 1 .978-.142c.238.071.5.071.74 0a1.072 1.072 0 0 1 1.048.237l.358.356c.095.118.214.19.357.26Z" fill="url(#S)"/><path d="m18.074 2.957.191.095a.874.874 0 0 1 .453.948l-.262 1.351c-.023.14-.116.234-.254.237.015-.224.03-.585.036-.642.02-.192-.01-.25-.187-.425a.558.558 0 0 1-.167-.379v-.38a.256.256 0 0 0-.191-.236 7.283 7.283 0 0 0-1.74-.19c-.859 0-1.455.119-1.741.19a.231.231 0 0 0-.19.237v.38a.47.47 0 0 1-.168.378l-.071.071c-.096.072-.144.22-.144.339.007.069.016.467.027.633a.282.282 0 0 1-.265-.237l-.262-1.35a.908.908 0 0 1 .477-.925c.45-.198.615-.498.977-.807a.872.872 0 0 1 .978-.142c.238.071.5.071.74 0a1.072 1.072 0 0 1 1.048.237l.358.356c.095.118.214.19.357.26Z" fill="url(#T)"/><path d="m18.074 2.957.191.095a.874.874 0 0 1 .453.948l-.262 1.351c-.023.14-.116.234-.254.237.015-.224.03-.585.036-.642.02-.192-.01-.25-.187-.425a.558.558 0 0 1-.167-.379v-.38a.256.256 0 0 0-.191-.236 7.283 7.283 0 0 0-1.74-.19c-.859 0-1.455.119-1.741.19a.231.231 0 0 0-.19.237v.38a.47.47 0 0 1-.168.378l-.071.071c-.096.072-.144.22-.144.339.007.069.016.467.027.633a.282.282 0 0 1-.265-.237l-.262-1.35a.908.908 0 0 1 .477-.925c.45-.198.615-.498.977-.807a.872.872 0 0 1 .978-.142c.238.071.5.071.74 0a1.072 1.072 0 0 1 1.048.237l.358.356c.095.118.214.19.357.26Z" fill="url(#U)"/><path d="m18.074 2.957.191.095a.874.874 0 0 1 .453.948l-.262 1.351c-.023.14-.116.234-.254.237.015-.224.03-.585.036-.642.02-.192-.01-.25-.187-.425a.558.558 0 0 1-.167-.379v-.38a.256.256 0 0 0-.191-.236 7.283 7.283 0 0 0-1.74-.19c-.859 0-1.455.119-1.741.19a.231.231 0 0 0-.19.237v.38a.47.47 0 0 1-.168.378l-.071.071c-.096.072-.144.22-.144.339.007.069.016.467.027.633a.282.282 0 0 1-.265-.237l-.262-1.35a.908.908 0 0 1 .477-.925c.45-.198.615-.498.977-.807a.872.872 0 0 1 .978-.142c.238.071.5.071.74 0a1.072 1.072 0 0 1 1.048.237l.358.356c.095.118.214.19.357.26Z" fill="url(#V)"/><path d="m18.074 2.957.191.095a.874.874 0 0 1 .453.948l-.262 1.351c-.023.14-.116.234-.254.237.015-.224.03-.585.036-.642.02-.192-.01-.25-.187-.425a.558.558 0 0 1-.167-.379v-.38a.256.256 0 0 0-.191-.236 7.283 7.283 0 0 0-1.74-.19c-.859 0-1.455.119-1.741.19a.231.231 0 0 0-.19.237v.38a.47.47 0 0 1-.168.378l-.071.071c-.096.072-.144.22-.144.339.007.069.016.467.027.633a.282.282 0 0 1-.265-.237l-.262-1.35a.908.908 0 0 1 .477-.925c.45-.198.615-.498.977-.807a.872.872 0 0 1 .978-.142c.238.071.5.071.74 0a1.072 1.072 0 0 1 1.048.237l.358.356c.095.118.214.19.357.26Z" fill="url(#W)"/><path d="m18.074 2.957.191.095a.874.874 0 0 1 .453.948l-.262 1.351c-.023.14-.116.234-.254.237.015-.224.03-.585.036-.642.02-.192-.01-.25-.187-.425a.558.558 0 0 1-.167-.379v-.38a.256.256 0 0 0-.191-.236 7.283 7.283 0 0 0-1.74-.19c-.859 0-1.455.119-1.741.19a.231.231 0 0 0-.19.237v.38a.47.47 0 0 1-.168.378l-.071.071c-.096.072-.144.22-.144.339.007.069.016.467.027.633a.282.282 0 0 1-.265-.237l-.262-1.35a.908.908 0 0 1 .477-.925c.45-.198.615-.498.977-.807a.872.872 0 0 1 .978-.142c.238.071.5.071.74 0a1.072 1.072 0 0 1 1.048.237l.358.356c.095.118.214.19.357.26Z" fill="url(#X)"/></g><path d="m18.074 2.957.191.095a.874.874 0 0 1 .453.948l-.262 1.351c-.023.14-.116.234-.254.237.015-.224.03-.585.036-.642.02-.192-.01-.25-.187-.425a.558.558 0 0 1-.167-.379v-.38a.256.256 0 0 0-.191-.236 7.283 7.283 0 0 0-1.74-.19c-.859 0-1.455.119-1.741.19a.231.231 0 0 0-.19.237v.38a.47.47 0 0 1-.168.378l-.071.071c-.096.072-.144.22-.144.339.007.069.016.467.027.633a.282.282 0 0 1-.265-.237l-.262-1.35a.908.908 0 0 1 .477-.925c.45-.198.615-.498.977-.807a.872.872 0 0 1 .978-.142c.238.071.5.071.74 0a1.072 1.072 0 0 1 1.048.237l.358.356c.095.118.214.19.357.26Z" fill="url(#Y)"/><path d="m18.074 2.957.191.095a.874.874 0 0 1 .453.948l-.262 1.351c-.023.14-.116.234-.254.237.015-.224.03-.585.036-.642.02-.192-.01-.25-.187-.425a.558.558 0 0 1-.167-.379v-.38a.256.256 0 0 0-.191-.236 7.283 7.283 0 0 0-1.74-.19c-.859 0-1.455.119-1.741.19a.231.231 0 0 0-.19.237v.38a.47.47 0 0 1-.168.378l-.071.071c-.096.072-.144.22-.144.339.007.069.016.467.027.633a.282.282 0 0 1-.265-.237l-.262-1.35a.908.908 0 0 1 .477-.925c.45-.198.615-.498.977-.807a.872.872 0 0 1 .978-.142c.238.071.5.071.74 0a1.072 1.072 0 0 1 1.048.237l.358.356c.095.118.214.19.357.26Z" fill="url(#Z)"/><path d="m18.074 2.957.191.095a.874.874 0 0 1 .453.948l-.262 1.351c-.023.14-.116.234-.254.237.015-.224.03-.585.036-.642.02-.192-.01-.25-.187-.425a.558.558 0 0 1-.167-.379v-.38a.256.256 0 0 0-.191-.236 7.283 7.283 0 0 0-1.74-.19c-.859 0-1.455.119-1.741.19a.231.231 0 0 0-.19.237v.38a.47.47 0 0 1-.168.378l-.071.071c-.096.072-.144.22-.144.339.007.069.016.467.027.633a.282.282 0 0 1-.265-.237l-.262-1.35a.908.908 0 0 1 .477-.925c.45-.198.615-.498.977-.807a.872.872 0 0 1 .978-.142c.238.071.5.071.74 0a1.072 1.072 0 0 1 1.048.237l.358.356c.095.118.214.19.357.26Z" fill="url(#aa)"/><g filter="url(#ab)"><path d="m15.81 5.782-.365.755c-.045.156.064.311.217.311h.328c.154 0 .262-.158.217-.31l-.222-.756c-.047-.168-.125-.168-.175 0Z" fill="#F1901C"/></g><g filter="url(#ac)"><path d="m15.762 5.71-.236.755a.24.24 0 0 0 .232.31h.35a.24.24 0 0 0 .23-.31l-.236-.756c-.05-.167-.287-.167-.34 0Z" fill="#FFCC28"/><path d="m15.762 5.71-.236.755a.24.24 0 0 0 .232.31h.35a.24.24 0 0 0 .23-.31l-.236-.756c-.05-.167-.287-.167-.34 0Z" fill="url(#ad)"/><path d="m15.762 5.71-.236.755a.24.24 0 0 0 .232.31h.35a.24.24 0 0 0 .23-.31l-.236-.756c-.05-.167-.287-.167-.34 0Z" fill="url(#ae)"/><path d="m15.762 5.71-.236.755a.24.24 0 0 0 .232.31h.35a.24.24 0 0 0 .23-.31l-.236-.756c-.05-.167-.287-.167-.34 0Z" fill="url(#af)"/></g><g filter="url(#ag)"><path d="M15.932 7.227c-.225 0-.437-.053-.615-.146-.061-.03-.127.038-.088.093a.842.842 0 0 0 .704.376c.295 0 .554-.15.703-.376.038-.057-.027-.124-.088-.093a1.329 1.329 0 0 1-.615.146Z" stroke="url(#ah)" stroke-width=".2"/></g><path d="M15.932 7.227c-.225 0-.437-.053-.615-.146-.061-.03-.127.038-.088.093a.842.842 0 0 0 .704.376c.295 0 .554-.15.703-.376.038-.057-.027-.124-.088-.093a1.329 1.329 0 0 1-.615.146Z" fill="#8A004F"/><path d="M16.994 5.2c.29 0 .535.2.602.47a.122.122 0 0 1-.12.152h-.99a.102.102 0 0 1-.102-.12.621.621 0 0 1 .61-.502Z" fill="#fff"/><path d="M16.902 5.321a.397.397 0 0 1 .382.501h-.766a.398.398 0 0 1 .384-.501Z" fill="url(#ai)"/><path d="M16.674 5.718c0-.127.101-.228.228-.228a.226.226 0 0 1 .201.332h-.402a.206.206 0 0 1-.027-.104Z" fill="#000"/><g filter="url(#aj)"><path d="M16.873 5.405c.028.038-.031.084-.098.134s-.117.085-.146.048c-.028-.038.004-.11.07-.16.068-.05.145-.06.174-.022Z" fill="#C7A7A3"/><path d="M16.873 5.405c.028.038-.031.084-.098.134s-.117.085-.146.048c-.028-.038.004-.11.07-.16.068-.05.145-.06.174-.022Z" fill="url(#ak)"/></g><g filter="url(#al)"><path d="M17.255 5.665a.373.373 0 0 0-.103-.205l-.115.126.052.102.166-.023Z" fill="url(#am)"/></g><path d="M14.869 5.2a.62.62 0 0 0-.602.47c-.02.078.04.152.119.152h.991a.102.102 0 0 0 .101-.12.623.623 0 0 0-.61-.502Z" fill="#fff"/><path d="M14.96 5.32a.397.397 0 0 0-.382.502h.767a.4.4 0 0 0-.384-.501Z" fill="url(#an)"/><path d="M15.188 5.718c0-.127-.101-.228-.227-.228a.226.226 0 0 0-.202.332h.402a.225.225 0 0 0 .027-.104Z" fill="#000"/><g filter="url(#ao)"><path d="M15.323 5.671c0-.128-.104-.214-.133-.24l-.128.124.08.161.18-.045Z" fill="url(#ap)"/></g><g filter="url(#aq)" transform="rotate(-27.914 14.84 5.49)"><ellipse cx="14.841" cy="5.49" rx=".173" ry=".088" fill="#C7A7A3" fill-opacity=".9"/><ellipse cx="14.841" cy="5.49" rx=".173" ry=".088" fill="url(#ar)"/></g><g filter="url(#as)"><path fill-rule="evenodd" clip-rule="evenodd" d="M16.723 4.856c.32-.03.526.095.575.14a.21.21 0 0 0 .285-.308c-.136-.126-.459-.291-.899-.25a.21.21 0 0 0 .04.418Z" fill="url(#at)"/></g><g filter="url(#au)"><path d="M17.44 4.793c-.092-.086-.356-.231-.736-.195" stroke="#D76D5B" stroke-width=".1" stroke-linecap="round"/></g><g filter="url(#av)"><path fill-rule="evenodd" clip-rule="evenodd" d="M15.141 4.856c-.32-.03-.525.095-.575.14a.21.21 0 1 1-.284-.308c.136-.126.458-.291.898-.25a.21.21 0 1 1-.039.418Z" fill="url(#aw)"/></g><g filter="url(#ax)"><path d="M14.424 4.793c.093-.086.357-.231.737-.195" stroke="#D76D5B" stroke-width=".1" stroke-linecap="round"/></g><defs><radialGradient id="a" cx="0" cy="0" r="1" gradientUnits="userSpaceOnUse" gradientTransform="matrix(-1.84375 0 0 -12.369 13.482 16.556)"><stop offset=".138" stop-color="#B87405"/><stop offset="1" stop-color="#B87405" stop-opacity="0"/></radialGradient><radialGradient id="b" cx="0" cy="0" r="1" gradientUnits="userSpaceOnUse" gradientTransform="matrix(.125 3.21875 -.73141 .0284 13.404 16.823)"><stop offset=".022" stop-color="#AD6605"/><stop offset="1" stop-color="#D58816" stop-opacity="0"/></radialGradient><radialGradient id="c" cx="0" cy="0" r="1" gradientUnits="userSpaceOnUse" gradientTransform="rotate(-104.351 14.46 5.11) scale(2.04829 1.02534)"><stop stop-color="#C2821C"/><stop offset="1" stop-color="#EDA82D" stop-opacity="0"/></radialGradient><radialGradient id="d" cx="0" cy="0" r="1" gradientUnits="userSpaceOnUse" gradientTransform="matrix(1.60938 0 0 15.4135 18.809 16.556)"><stop offset=".101" stop-color="#B58009"/><stop offset="1" stop-color="#DCA61C" stop-opacity="0"/></radialGradient><radialGradient id="e" cx="0" cy="0" r="1" gradientUnits="userSpaceOnUse" gradientTransform="matrix(.71875 0 0 4.57812 18.606 17.073)"><stop offset=".087" stop-color="#BC7A0B"/><stop offset="1" stop-color="#D0910C" stop-opacity="0"/></radialGradient><radialGradient id="f" cx="0" cy="0" r="1" gradientUnits="userSpaceOnUse" gradientTransform="rotate(-71.25 23.742 -2.998) scale(1.79857 .49047)"><stop stop-color="#CC952B"/><stop offset="1" stop-color="#CC952B" stop-opacity="0"/></radialGradient><radialGradient id="g" cx="0" cy="0" r="1" gradientUnits="userSpaceOnUse" gradientTransform="rotate(-168.523 7.497 5.762) scale(2.27735 4.86372)"><stop offset=".638" stop-color="#5BA1D3" stop-opacity="0"/><stop offset="1" stop-color="#5BA1D3"/></radialGradient><radialGradient id="h" cx="0" cy="0" r="1" gradientUnits="userSpaceOnUse" gradientTransform="matrix(-1.51587 1.2383 -.95063 -1.16372 14.498 8.757)"><stop stop-color="#3A87B0"/><stop offset="1" stop-color="#3A87B0" stop-opacity="0"/></radialGradient><radialGradient id="j" cx="0" cy="0" r="1" gradientUnits="userSpaceOnUse" gradientTransform="matrix(-.35938 2.17188 -.8973 -.14848 13.183 11.636)"><stop stop-color="#257AD3"/><stop offset="1" stop-color="#257AD3" stop-opacity="0"/></radialGradient><radialGradient id="k" cx="0" cy="0" r="1" gradientUnits="userSpaceOnUse" gradientTransform="matrix(.875 -.3125 1.2963 3.62963 18.73 11.901)"><stop offset=".251" stop-color="#2680E1"/><stop offset="1" stop-color="#2680E1" stop-opacity="0"/></radialGradient><radialGradient id="p" cx="0" cy="0" r="1" gradientUnits="userSpaceOnUse" gradientTransform="matrix(0 -.35938 1.91919 0 15.936 18.026)"><stop stop-color="#8560A3"/><stop offset="1" stop-color="#867081" stop-opacity="0"/></radialGradient><radialGradient id="q" cx="0" cy="0" r="1" gradientUnits="userSpaceOnUse" gradientTransform="matrix(0 -.26953 1.85938 0 18.012 28.39)"><stop stop-color="#AA9BA7"/><stop offset="1" stop-color="#AA9BA7" stop-opacity="0"/></radialGradient><radialGradient id="r" cx="0" cy="0" r="1" gradientUnits="userSpaceOnUse" gradientTransform="matrix(0 -.32813 1.20581 0 14.73 28.48)"><stop stop-color="#AA9BA7"/><stop offset="1" stop-color="#AA9BA7" stop-opacity="0"/></radialGradient><radialGradient id="u" cx="0" cy="0" r="1" gradientUnits="userSpaceOnUse" gradientTransform="rotate(140.013 7.408 8.178) scale(2.52874 3.92481)"><stop stop-color="#4DB7F8"/><stop offset="1" stop-color="#49A1F7" stop-opacity="0"/></radialGradient><radialGradient id="x" cx="0" cy="0" r="1" gradientUnits="userSpaceOnUse" gradientTransform="rotate(78.152 2.438 13.565) scale(1.14151 3.28028)"><stop offset=".167" stop-color="#39779B"/><stop offset="1" stop-color="#499DE8" stop-opacity="0"/></radialGradient><radialGradient id="y" cx="0" cy="0" r="1" gradientUnits="userSpaceOnUse" gradientTransform="matrix(0 1.11133 -1.40894 0 15.936 8.411)"><stop offset=".638" stop-color="#D89424"/><stop offset="1" stop-color="#F7B724"/></radialGradient><radialGradient id="B" cx="0" cy="0" r="1" gradientUnits="userSpaceOnUse" gradientTransform="rotate(-153.096 13.26 12.337) scale(1.86466 .72714)"><stop stop-color="#635185"/><stop offset="1" stop-color="#635185" stop-opacity="0"/></radialGradient><radialGradient id="D" cx="0" cy="0" r="1" gradientUnits="userSpaceOnUse" gradientTransform="matrix(.78004 0 0 1.36507 13.08 5.836)"><stop offset=".351" stop-color="#E6962B"/><stop offset="1" stop-color="#CA8F29"/></radialGradient><radialGradient id="I" cx="0" cy="0" r="1" gradientUnits="userSpaceOnUse" gradientTransform="matrix(.36747 -.26758 .3054 .41942 18.216 5.718)"><stop offset=".543" stop-color="#FFC532"/><stop offset="1" stop-color="#FFC532" stop-opacity="0"/></radialGradient><radialGradient id="K" cx="0" cy="0" r="1" gradientUnits="userSpaceOnUse" gradientTransform="matrix(.36505 -.67143 .393 .21367 18.032 6.201)"><stop offset=".69" stop-color="#F4A51A" stop-opacity="0"/><stop offset="1" stop-color="#F4A51A"/></radialGradient><radialGradient id="L" cx="0" cy="0" r="1" gradientUnits="userSpaceOnUse" gradientTransform="rotate(44.708 1.93 24.865) scale(.16217 .20906)"><stop stop-color="#E59B1F"/><stop offset="1" stop-color="#E59B1F" stop-opacity="0"/></radialGradient><radialGradient id="O" cx="0" cy="0" r="1" gradientUnits="userSpaceOnUse" gradientTransform="matrix(0 3.81632 -4.35754 0 16.15 5.129)"><stop offset=".56" stop-color="#F49A3E" stop-opacity="0"/><stop offset="1" stop-color="#D07F50"/></radialGradient><radialGradient id="P" cx="0" cy="0" r="1" gradientUnits="userSpaceOnUse" gradientTransform="matrix(0 -.581 .71507 0 16.975 5.271)"><stop stop-color="#FFBA0D"/><stop offset="1" stop-color="#FFBA0D" stop-opacity="0"/></radialGradient><radialGradient id="Q" cx="0" cy="0" r="1" gradientUnits="userSpaceOnUse" gradientTransform="matrix(0 -.61824 .76884 0 14.949 5.256)"><stop stop-color="#EE911A"/><stop offset="1" stop-color="#EE911A" stop-opacity="0"/></radialGradient><radialGradient id="S" cx="0" cy="0" r="1" gradientUnits="userSpaceOnUse" gradientTransform="matrix(-1.52757 1.96884 -3.3482 -2.59778 17.574 2.408)"><stop stop-color="#FFE336"/><stop offset="1" stop-color="#FFE336" stop-opacity="0"/></radialGradient><radialGradient id="U" cx="0" cy="0" r="1" gradientUnits="userSpaceOnUse" gradientTransform="rotate(-95.29 8.97 -4.315) scale(.88946 .43683)"><stop offset=".222" stop-color="#FFB42C"/><stop offset="1" stop-color="#FFB42C" stop-opacity="0"/></radialGradient><radialGradient id="V" cx="0" cy="0" r="1" gradientUnits="userSpaceOnUse" gradientTransform="matrix(.38189 -.8741 .7129 .31146 17.811 5.064)"><stop offset=".479" stop-color="#E57D1C"/><stop offset="1" stop-color="#E57D1C" stop-opacity="0"/></radialGradient><radialGradient id="W" cx="0" cy="0" r="1" gradientUnits="userSpaceOnUse" gradientTransform="rotate(51.134 5.69 17.298) scale(.70326 .62092)"><stop stop-color="#FFCE2C"/><stop offset="1" stop-color="#FFCE2C" stop-opacity="0"/></radialGradient><radialGradient id="X" cx="0" cy="0" r="1" gradientUnits="userSpaceOnUse" gradientTransform="matrix(.64497 -1.34935 .46622 .22285 17.794 3.96)"><stop stop-color="#FFD93A"/><stop offset="1" stop-color="#FFD93A" stop-opacity="0"/></radialGradient><radialGradient id="Y" cx="0" cy="0" r="1" gradientUnits="userSpaceOnUse" gradientTransform="matrix(.11609 .45113 -.74167 .19086 16.241 2.013)"><stop offset=".208" stop-color="#DDB13B"/><stop offset="1" stop-color="#FFC926" stop-opacity="0"/></radialGradient><radialGradient id="Z" cx="0" cy="0" r="1" gradientUnits="userSpaceOnUse" gradientTransform="rotate(55.305 4.537 14.632) scale(.86443 1.79885)"><stop offset=".288" stop-color="#C9993E"/><stop offset="1" stop-color="#F29322" stop-opacity="0"/></radialGradient><radialGradient id="aa" cx="0" cy="0" r="1" gradientUnits="userSpaceOnUse" gradientTransform="matrix(-3.20373 1.4433 -1.806 -4.00878 16.445 3.896)"><stop offset=".756" stop-color="#CF7D35" stop-opacity="0"/><stop offset=".959" stop-color="#CF7D35"/></radialGradient><radialGradient id="ah" cx="0" cy="0" r="1" gradientUnits="userSpaceOnUse" gradientTransform="matrix(.01093 -.27882 .83647 .0328 15.895 7.62)"><stop stop-color="#FFD069"/><stop offset="1" stop-color="#FFBE30" stop-opacity="0"/></radialGradient><radialGradient id="ai" cx="0" cy="0" r="1" gradientUnits="userSpaceOnUse" gradientTransform="matrix(0 .40145 -.47502 0 16.9 5.681)"><stop offset=".75" stop-color="#925C51"/><stop offset="1" stop-color="#694B43"/><stop offset="1" stop-color="#804D49"/><stop offset="1" stop-color="#85534D"/></radialGradient><radialGradient id="ak" cx="0" cy="0" r="1" gradientUnits="userSpaceOnUse" gradientTransform="matrix(-.10306 -.13281 .18285 -.1419 16.8 5.57)"><stop offset=".766" stop-color="#FFE6E2" stop-opacity="0"/><stop offset=".966" stop-color="#FFE6E2"/></radialGradient><radialGradient id="an" cx="0" cy="0" r="1" gradientUnits="userSpaceOnUse" gradientTransform="matrix(0 .40147 -.47505 0 14.962 5.681)"><stop offset=".75" stop-color="#925C51"/><stop offset="1" stop-color="#694B43"/><stop offset="1" stop-color="#804D49"/><stop offset="1" stop-color="#85534D"/></radialGradient><radialGradient id="ar" cx="0" cy="0" r="1" gradientUnits="userSpaceOnUse" gradientTransform="matrix(-.00344 -.21957 .26393 -.00413 14.834 5.63)"><stop offset=".766" stop-color="#FFE6E2" stop-opacity="0"/><stop offset=".966" stop-color="#FFE6E2"/></radialGradient><radialGradient id="at" cx="0" cy="0" r="1" gradientUnits="userSpaceOnUse" gradientTransform="matrix(.08747 -.36083 .7916 .1919 17.022 4.859)"><stop offset=".657" stop-color="#C64F38"/><stop offset="1" stop-color="#BB4F29"/></radialGradient><radialGradient id="aw" cx="0" cy="0" r="1" gradientUnits="userSpaceOnUse" gradientTransform="matrix(-.08747 -.36083 .7916 -.1919 14.843 4.859)"><stop offset=".657" stop-color="#C64F38"/><stop offset="1" stop-color="#BB4F29"/></radialGradient><filter id="m" x="12.952" y="15.936" width="6.169" height="12.453" filterUnits="userSpaceOnUse" color-interpolation-filters="sRGB"><feFlood flood-opacity="0" result="BackgroundImageFix"/><feBlend in="SourceGraphic" in2="BackgroundImageFix" result="shape"/><feColorMatrix in="SourceAlpha" values="0 0 0 0 0 0 0 0 0 0 0 0 0 0 0 0 0 0 127 0" result="hardAlpha"/><feOffset dx=".2"/><feGaussianBlur stdDeviation=".4"/><feComposite in2="hardAlpha" operator="arithmetic" k2="-1" k3="1"/><feColorMatrix values="0 0 0 0 0.419608 0 0 0 0 0.360784 0 0 0 0 0.411765 0 0 0 1 0"/><feBlend in2="shape" result="effect1_innerShadow_4002_169"/></filter><filter id="s" x="12.878" y="8.393" width="6.517" height="7.994" filterUnits="userSpaceOnUse" color-interpolation-filters="sRGB"><feFlood flood-opacity="0" result="BackgroundImageFix"/><feBlend in="SourceGraphic" in2="BackgroundImageFix" result="shape"/><feColorMatrix in="SourceAlpha" values="0 0 0 0 0 0 0 0 0 0 0 0 0 0 0 0 0 0 127 0" result="hardAlpha"/><feOffset dx=".4" dy=".4"/><feGaussianBlur stdDeviation=".4"/><feComposite in2="hardAlpha" operator="arithmetic" k2="-1" k3="1"/><feColorMatrix values="0 0 0 0 0.368627 0 0 0 0 0.560784 0 0 0 0 0.784314 0 0 0 1 0"/><feBlend in2="shape" result="effect1_innerShadow_4002_169"/></filter><filter id="z" x="12.37" y="28.39" width="3.316" height="1.848" filterUnits="userSpaceOnUse" color-interpolation-filters="sRGB"><feFlood flood-opacity="0" result="BackgroundImageFix"/><feBlend in="SourceGraphic" in2="BackgroundImageFix" result="shape"/><feColorMatrix in="SourceAlpha" values="0 0 0 0 0 0 0 0 0 0 0 0 0 0 0 0 0 0 127 0" result="hardAlpha"/><feOffset dx=".25" dy=".25"/><feGaussianBlur stdDeviation=".25"/><feComposite in2="hardAlpha" operator="arithmetic" k2="-1" k3="1"/><feColorMatrix values="0 0 0 0 0.313726 0 0 0 0 0.235294 0 0 0 0 0.431373 0 0 0 1 0"/><feBlend in2="shape" result="effect1_innerShadow_4002_169"/></filter><filter id="C" x="12.777" y="15.307" width="6.594" height="13.766" filterUnits="userSpaceOnUse" color-interpolation-filters="sRGB"><feFlood flood-opacity="0" result="BackgroundImageFix"/><feBlend in="SourceGraphic" in2="BackgroundImageFix" result="shape"/><feGaussianBlur stdDeviation=".5" result="effect1_foregroundBlur_4002_169"/></filter><filter id="E" x="13.18" y="5.194" width="1.285" height="1.285" filterUnits="userSpaceOnUse" color-interpolation-filters="sRGB"><feFlood flood-opacity="0" result="BackgroundImageFix"/><feBlend in="SourceGraphic" in2="BackgroundImageFix" result="shape"/><feGaussianBlur stdDeviation=".1" result="effect1_foregroundBlur_4002_169"/></filter><filter id="G" x="17.308" y="4.844" width="1.734" height="1.734" filterUnits="userSpaceOnUse" color-interpolation-filters="sRGB"><feFlood flood-opacity="0" result="BackgroundImageFix"/><feBlend in="SourceGraphic" in2="BackgroundImageFix" result="shape"/><feColorMatrix in="SourceAlpha" values="0 0 0 0 0 0 0 0 0 0 0 0 0 0 0 0 0 0 127 0" result="hardAlpha"/><feOffset dx=".25" dy="-.25"/><feGaussianBlur stdDeviation=".25"/><feComposite in2="hardAlpha" operator="arithmetic" k2="-1" k3="1"/><feColorMatrix values="0 0 0 0 0.85098 0 0 0 0 0.560784 0 0 0 0 0.376471 0 0 0 1 0"/><feBlend in2="shape" result="effect1_innerShadow_4002_169"/></filter><filter id="J" x="17.408" y="5.194" width="1.285" height="1.285" filterUnits="userSpaceOnUse" color-interpolation-filters="sRGB"><feFlood flood-opacity="0" result="BackgroundImageFix"/><feBlend in="SourceGraphic" in2="BackgroundImageFix" result="shape"/><feGaussianBlur stdDeviation=".1" result="effect1_foregroundBlur_4002_169"/></filter><filter id="R" x="13.132" y="1.913" width="5.601" height="3.675" filterUnits="userSpaceOnUse" color-interpolation-filters="sRGB"><feFlood flood-opacity="0" result="BackgroundImageFix"/><feBlend in="SourceGraphic" in2="BackgroundImageFix" result="shape"/><feColorMatrix in="SourceAlpha" values="0 0 0 0 0 0 0 0 0 0 0 0 0 0 0 0 0 0 127 0" result="hardAlpha"/><feOffset dy="-.1"/><feGaussianBlur stdDeviation=".075"/><feComposite in2="hardAlpha" operator="arithmetic" k2="-1" k3="1"/><feColorMatrix values="0 0 0 0 0.972549 0 0 0 0 0.572549 0 0 0 0 0.0156863 0 0 0 1 0"/><feBlend in2="shape" result="effect1_innerShadow_4002_169"/></filter><filter id="ab" x="14.685" y="4.906" width="2.282" height="2.692" filterUnits="userSpaceOnUse" color-interpolation-filters="sRGB"><feFlood flood-opacity="0" result="BackgroundImageFix"/><feBlend in="SourceGraphic" in2="BackgroundImageFix" result="shape"/><feGaussianBlur stdDeviation=".375" result="effect1_foregroundBlur_4002_169"/></filter><filter id="ac" x="15.415" y="5.484" width="1.034" height="1.392" filterUnits="userSpaceOnUse" color-interpolation-filters="sRGB"><feFlood flood-opacity="0" result="BackgroundImageFix"/><feBlend in="SourceGraphic" in2="BackgroundImageFix" result="shape"/><feGaussianBlur stdDeviation=".05" result="effect1_foregroundBlur_4002_169"/></filter><filter id="ag" x="15.017" y="6.873" width="1.83" height=".877" filterUnits="userSpaceOnUse" color-interpolation-filters="sRGB"><feFlood flood-opacity="0" result="BackgroundImageFix"/><feBlend in="SourceGraphic" in2="BackgroundImageFix" result="shape"/><feGaussianBlur stdDeviation=".05" result="effect1_foregroundBlur_4002_169"/></filter><filter id="aj" x="16.519" y="5.282" width=".461" height=".42" filterUnits="userSpaceOnUse" color-interpolation-filters="sRGB"><feFlood flood-opacity="0" result="BackgroundImageFix"/><feBlend in="SourceGraphic" in2="BackgroundImageFix" result="shape"/><feGaussianBlur stdDeviation=".05" result="effect1_foregroundBlur_4002_169"/></filter><filter id="al" x="16.837" y="5.26" width=".618" height=".628" filterUnits="userSpaceOnUse" color-interpolation-filters="sRGB"><feFlood flood-opacity="0" result="BackgroundImageFix"/><feBlend in="SourceGraphic" in2="BackgroundImageFix" result="shape"/><feGaussianBlur stdDeviation=".1" result="effect1_foregroundBlur_4002_169"/></filter><filter id="ao" x="14.862" y="5.232" width=".661" height=".685" filterUnits="userSpaceOnUse" color-interpolation-filters="sRGB"><feFlood flood-opacity="0" result="BackgroundImageFix"/><feBlend in="SourceGraphic" in2="BackgroundImageFix" result="shape"/><feGaussianBlur stdDeviation=".1" result="effect1_foregroundBlur_4002_169"/></filter><filter id="aq" x="14.582" y="5.278" width=".517" height=".424" filterUnits="userSpaceOnUse" color-interpolation-filters="sRGB"><feFlood flood-opacity="0" result="BackgroundImageFix"/><feBlend in="SourceGraphic" in2="BackgroundImageFix" result="shape"/><feGaussianBlur stdDeviation=".05" result="effect1_foregroundBlur_4002_169"/></filter><filter id="as" x="16.494" y="4.181" width="1.157" height=".871" filterUnits="userSpaceOnUse" color-interpolation-filters="sRGB"><feFlood flood-opacity="0" result="BackgroundImageFix"/><feBlend in="SourceGraphic" in2="BackgroundImageFix" result="shape"/><feColorMatrix in="SourceAlpha" values="0 0 0 0 0 0 0 0 0 0 0 0 0 0 0 0 0 0 127 0" result="hardAlpha"/><feOffset dy="-.25"/><feGaussianBlur stdDeviation=".2"/><feComposite in2="hardAlpha" operator="arithmetic" k2="-1" k3="1"/><feColorMatrix values="0 0 0 0 0.698039 0 0 0 0 0.25098 0 0 0 0 0.313726 0 0 0 1 0"/><feBlend in2="shape" result="effect1_innerShadow_4002_169"/></filter><filter id="au" x="16.554" y="4.442" width="1.037" height=".501" filterUnits="userSpaceOnUse" color-interpolation-filters="sRGB"><feFlood flood-opacity="0" result="BackgroundImageFix"/><feBlend in="SourceGraphic" in2="BackgroundImageFix" result="shape"/><feGaussianBlur stdDeviation=".05" result="effect1_foregroundBlur_4002_169"/></filter><filter id="av" x="14.214" y="4.181" width="1.157" height=".871" filterUnits="userSpaceOnUse" color-interpolation-filters="sRGB"><feFlood flood-opacity="0" result="BackgroundImageFix"/><feBlend in="SourceGraphic" in2="BackgroundImageFix" result="shape"/><feColorMatrix in="SourceAlpha" values="0 0 0 0 0 0 0 0 0 0 0 0 0 0 0 0 0 0 127 0" result="hardAlpha"/><feOffset dy="-.25"/><feGaussianBlur stdDeviation=".2"/><feComposite in2="hardAlpha" operator="arithmetic" k2="-1" k3="1"/><feColorMatrix values="0 0 0 0 0.698039 0 0 0 0 0.25098 0 0 0 0 0.313726 0 0 0 1 0"/><feBlend in2="shape" result="effect1_innerShadow_4002_169"/></filter><filter id="ax" x="14.274" y="4.442" width="1.037" height=".501" filterUnits="userSpaceOnUse" color-interpolation-filters="sRGB"><feFlood flood-opacity="0" result="BackgroundImageFix"/><feBlend in="SourceGraphic" in2="BackgroundImageFix" result="shape"/><feGaussianBlur stdDeviation=".05" result="effect1_foregroundBlur_4002_169"/></filter><linearGradient id="i" x1="12.402" y1="12.706" x2="12.402" y2="12.554" gradientUnits="userSpaceOnUse"><stop stop-color="#3270C8"/><stop offset="1" stop-color="#2C7CD5" stop-opacity="0"/></linearGradient><linearGradient id="l" x1="19.683" y1="12.792" x2="19.683" y2="12.089" gradientUnits="userSpaceOnUse"><stop stop-color="#4E73C8"/><stop offset="1" stop-color="#3686DF" stop-opacity="0"/></linearGradient><linearGradient id="n" x1="13.277" y1="24.151" x2="13.504" y2="24.143" gradientUnits="userSpaceOnUse"><stop stop-color="#A5949B"/><stop offset="1" stop-color="#A5949B" stop-opacity="0"/></linearGradient><linearGradient id="o" x1="15.936" y1="15.936" x2="15.936" y2="16.37" gradientUnits="userSpaceOnUse"><stop stop-color="#966D92"/><stop offset="1" stop-color="#966D92" stop-opacity="0"/></linearGradient><linearGradient id="t" x1="15.936" y1="9.026" x2="15.936" y2="15.987" gradientUnits="userSpaceOnUse"><stop stop-color="#46A3F0"/><stop offset="1" stop-color="#3B70D0"/></linearGradient><linearGradient id="v" x1="17.542" y1="15.987" x2="17.542" y2="13.87" gradientUnits="userSpaceOnUse"><stop stop-color="#3B70CF"/><stop offset="1" stop-color="#3B70CF" stop-opacity="0"/></linearGradient><linearGradient id="w" x1="17.167" y1="15.94" x2="17.167" y2="15.651" gradientUnits="userSpaceOnUse"><stop stop-color="#4656B3"/><stop offset="1" stop-color="#4475D1" stop-opacity="0"/></linearGradient><linearGradient id="A" x1="18.183" y1="29.651" x2="16.436" y2="29.448" gradientUnits="userSpaceOnUse"><stop stop-color="#5A3F7C"/><stop offset="1" stop-color="#462F5E"/></linearGradient><linearGradient id="F" x1="13.822" y1="5.96" x2="13.537" y2="5.96" gradientUnits="userSpaceOnUse"><stop stop-color="#BD6A1E"/><stop offset="1" stop-color="#D77A1C"/></linearGradient><linearGradient id="H" x1="18.534" y1="5.351" x2="18.17" y2="6.478" gradientUnits="userSpaceOnUse"><stop stop-color="#FFE446"/><stop offset="1" stop-color="#FFC339"/></linearGradient><linearGradient id="M" x1="17.726" y1="6.009" x2="14.332" y2="6.515" gradientUnits="userSpaceOnUse"><stop stop-color="#FFE833"/><stop offset=".916" stop-color="#F9A528"/></linearGradient><linearGradient id="N" x1="13.534" y1="7.208" x2="14.562" y2="7.074" gradientUnits="userSpaceOnUse"><stop stop-color="#D19C3A"/><stop offset="1" stop-color="#D19C3A" stop-opacity="0"/></linearGradient><linearGradient id="T" x1="13.772" y1="5.717" x2="15.062" y2="3.426" gradientUnits="userSpaceOnUse"><stop stop-color="#E07027"/><stop offset="1" stop-color="#E07027" stop-opacity="0"/></linearGradient><linearGradient id="ad" x1="15.548" y1="6.302" x2="15.965" y2="6.302" gradientUnits="userSpaceOnUse"><stop stop-color="#FAA416"/><stop offset="1" stop-color="#FAA416" stop-opacity="0"/></linearGradient><linearGradient id="ae" x1="16.349" y1="6.446" x2="15.894" y2="6.439" gradientUnits="userSpaceOnUse"><stop stop-color="#FFE721"/><stop offset="1" stop-color="#FFE721" stop-opacity="0"/></linearGradient><linearGradient id="af" x1="16.019" y1="6.776" x2="16.019" y2="6.521" gradientUnits="userSpaceOnUse"><stop stop-color="#EB8A1C"/><stop offset="1" stop-color="#EB8A1C" stop-opacity="0"/></linearGradient><linearGradient id="am" x1="17.247" y1="5.557" x2="17.107" y2="5.643" gradientUnits="userSpaceOnUse"><stop stop-color="#B4948D"/><stop offset="1" stop-color="#B4948D" stop-opacity="0"/></linearGradient><linearGradient id="ap" x1="15.292" y1="5.557" x2="15.153" y2="5.643" gradientUnits="userSpaceOnUse"><stop stop-color="#B4948D"/><stop offset="1" stop-color="#B4948D" stop-opacity="0"/></linearGradient></defs></svg>