<svg width="32" height="32" fill="none" xmlns="http://www.w3.org/2000/svg"><path d="M12.668 19.244a.216.216 0 0 1-.043-.239h-.438l.32.996c.262.078.54.051.59-.113a.318.318 0 0 0-.074-.3 8.834 8.834 0 0 1-.355-.345Z" fill="#5F323E"/><path d="M19.332 19.244a.216.216 0 0 0 .043-.239h.438l-.32.996c-.262.078-.54.051-.59-.113a.318.318 0 0 1 .074-.3c.083-.078.271-.254.355-.345Z" fill="#6C4047"/><g filter="url(#a)"><path d="M12.112 20.524c-.938-1.982-.769-6.258-.488-7.823h1.672c-.071 2.425.04 5.243.178 6.511.011.103.084.214 0 .276a.29.29 0 0 1-.438-.115l-.117-.263a.184.184 0 0 0-.226-.099.176.176 0 0 0-.12.201c.061.3.172.678.265.973a.418.418 0 0 1-.239.513c-.186.076-.401.008-.487-.174Z" fill="#774F4E"/><path d="M12.112 20.524c-.938-1.982-.769-6.258-.488-7.823h1.672c-.071 2.425.04 5.243.178 6.511.011.103.084.214 0 .276a.29.29 0 0 1-.438-.115l-.117-.263a.184.184 0 0 0-.226-.099.176.176 0 0 0-.12.201c.061.3.172.678.265.973a.418.418 0 0 1-.239.513c-.186.076-.401.008-.487-.174Z" fill="url(#b)"/></g><path d="M19.888 20.524c.938-1.982.769-6.258.487-7.823h-1.671c.071 2.425-.156 5.253-.294 6.522a.29.29 0 0 0 .555.15l.116-.263a.184.184 0 0 1 .226-.099.176.176 0 0 1 .12.201c-.061.3-.172.678-.265.973a.418.418 0 0 0 .239.513c.186.076.401.008.487-.174Z" fill="#89625B"/><path d="M19.888 20.524c.938-1.982.769-6.258.487-7.823h-1.671c.071 2.425-.156 5.253-.294 6.522a.29.29 0 0 0 .555.15l.116-.263a.184.184 0 0 1 .226-.099.176.176 0 0 1 .12.201c-.061.3-.172.678-.265.973a.418.418 0 0 0 .239.513c.186.076.401.008.487-.174Z" fill="url(#c)"/><path d="M19.888 20.524c.938-1.982.769-6.258.487-7.823h-1.671c.071 2.425-.156 5.253-.294 6.522a.29.29 0 0 0 .555.15l.116-.263a.184.184 0 0 1 .226-.099.176.176 0 0 1 .12.201c-.061.3-.172.678-.265.973a.418.418 0 0 0 .239.513c.186.076.401.008.487-.174Z" fill="url(#d)"/><path d="M11.533 12.744c.486-2.254 1.628-3.333 3.03-3.829v3.95H11.63a.1.1 0 0 1-.098-.12Z" fill="#3B97DB"/><path d="M11.533 12.744c.486-2.254 1.628-3.333 3.03-3.829v3.95H11.63a.1.1 0 0 1-.098-.12Z" fill="url(#e)"/><path d="M11.533 12.744c.486-2.254 1.628-3.333 3.03-3.829v3.95H11.63a.1.1 0 0 1-.098-.12Z" fill="url(#f)"/><path d="M11.533 12.744c.486-2.254 1.628-3.333 3.03-3.829v3.95H11.63a.1.1 0 0 1-.098-.12Z" fill="url(#g)"/><path d="M11.533 12.744c.486-2.254 1.628-3.333 3.03-3.829v3.95H11.63a.1.1 0 0 1-.098-.12Z" fill="url(#h)"/><g filter="url(#i)"><path d="M19.813 12.581c.125 1 .3 3.575 0 5.875" stroke="#976B64" stroke-width=".3"/></g><path d="M20.468 12.744c-.487-2.254-1.629-3.333-3.03-3.829v3.95h2.932a.1.1 0 0 0 .098-.12Z" fill="#4FA0F0"/><path d="M20.468 12.744c-.487-2.254-1.629-3.333-3.03-3.829v3.95h2.932a.1.1 0 0 0 .098-.12Z" fill="url(#j)"/><path d="M20.468 12.744c-.487-2.254-1.629-3.333-3.03-3.829v3.95h2.932a.1.1 0 0 0 .098-.12Z" fill="url(#k)"/><g filter="url(#l)"><path d="m13.016 16.095.484 12.453h2l.238-9.523c0-.328.029-.86.262-.86.212 0 .263.555.262.86l.238 9.523h2l.484-12.453h-5.968Z" fill="#827A8A"/></g><path d="m13.016 16.095.484 12.453h2l.238-9.523c0-.328.029-.86.262-.86.212 0 .263.555.262.86l.238 9.523h2l.484-12.453h-5.968Z" fill="url(#m)"/><path d="m13.016 16.095.484 12.453h2l.238-9.523c0-.328.029-.86.262-.86.212 0 .263.555.262.86l.238 9.523h2l.484-12.453h-5.968Z" fill="url(#n)"/><path d="m13.016 16.095.484 12.453h2l.238-9.523c0-.328.029-.86.262-.86.212 0 .263.555.262.86l.238 9.523h2l.484-12.453h-5.968Z" fill="url(#o)"/><path d="m13.016 16.095.484 12.453h2l.238-9.523c0-.328.029-.86.262-.86.212 0 .263.555.262.86l.238 9.523h2l.484-12.453h-5.968Z" fill="url(#p)"/><g filter="url(#q)"><path d="M12.941 11.61a3.059 3.059 0 0 1 6.118 0v4.442a.094.094 0 0 1-.094.094h-5.93a.094.094 0 0 1-.094-.094v-4.441Z" fill="url(#r)"/><path d="M12.941 11.61a3.059 3.059 0 0 1 6.118 0v4.442a.094.094 0 0 1-.094.094h-5.93a.094.094 0 0 1-.094-.094v-4.441Z" fill="url(#s)"/></g><path d="M12.941 11.61a3.059 3.059 0 0 1 6.118 0v4.442a.094.094 0 0 1-.094.094h-5.93a.094.094 0 0 1-.094-.094v-4.441Z" fill="url(#t)"/><path d="M12.941 11.61a3.059 3.059 0 0 1 6.118 0v4.442a.094.094 0 0 1-.094.094h-5.93a.094.094 0 0 1-.094-.094v-4.441Z" fill="url(#u)"/><path d="M12.941 11.61a3.059 3.059 0 0 1 6.118 0v4.442a.094.094 0 0 1-.094.094h-5.93a.094.094 0 0 1-.094-.094v-4.441Z" fill="url(#v)"/><path d="M15.129 7.458h1.742V8.81a.871.871 0 0 1-1.742 0V7.458Z" fill="url(#w)"/><g filter="url(#x)"><path d="M12.434 29.904v.242H15.5v-1.598h-1.992c-.102.367-.574.754-.817.914a.539.539 0 0 0-.257.442Z" fill="#5D4480"/></g><path d="M19.566 29.904v.242H16.5v-1.598h1.992c.102.367.574.754.817.914.186.124.257.301.257.442Z" fill="url(#y)"/><path d="M19.566 29.904v.242H16.5v-1.598h1.992c.102.367.574.754.817.914.186.124.257.301.257.442Z" fill="url(#z)"/><g filter="url(#A)"><path d="m13.841 16.466.469 11.766h.812v-10.61h2.203v10.61h.672l.438-11.766H13.84Z" fill="#9D98A2"/></g><g filter="url(#B)"><circle cx="13.835" cy="5.815" r=".769" fill="url(#C)"/></g><g filter="url(#D)"><circle cx="13.835" cy="5.815" r=".458" fill="url(#E)"/></g><g filter="url(#F)"><circle cx="18.216" cy="5.815" r=".769" fill="url(#G)"/><circle cx="18.216" cy="5.815" r=".769" fill="url(#H)"/></g><g filter="url(#I)"><circle cx="18.216" cy="5.815" r=".458" fill="#7A5654"/><circle cx="18.216" cy="5.815" r=".458" fill="url(#J)"/><circle cx="18.216" cy="5.815" r=".458" fill="url(#K)"/></g><g filter="url(#L)"><path d="m13.673 5.532.023.001s-.025-.393-.05-.663c0-.123.05-.27.148-.344l.074-.073a.487.487 0 0 0 .173-.393v-.393a.24.24 0 0 1 .198-.246c.296-.073.914-.196 1.803-.196.89 0 1.507.123 1.803.196a.265.265 0 0 1 .198.246v.393c0 .147.074.295.172.393.232.162.217.25.198.442-.025.245-.05.663-.05.663h.009L18.25 7.38c-.074.815-.715 1.383-1.479 1.383h-1.478c-.788 0-1.404-.568-1.478-1.383l-.142-1.848Z" fill="url(#M)"/><path d="m13.673 5.532.023.001s-.025-.393-.05-.663c0-.123.05-.27.148-.344l.074-.073a.487.487 0 0 0 .173-.393v-.393a.24.24 0 0 1 .198-.246c.296-.073.914-.196 1.803-.196.89 0 1.507.123 1.803.196a.265.265 0 0 1 .198.246v.393c0 .147.074.295.172.393.232.162.217.25.198.442-.025.245-.05.663-.05.663h.009L18.25 7.38c-.074.815-.715 1.383-1.479 1.383h-1.478c-.788 0-1.404-.568-1.478-1.383l-.142-1.848Z" fill="url(#N)"/><path d="m13.673 5.532.023.001s-.025-.393-.05-.663c0-.123.05-.27.148-.344l.074-.073a.487.487 0 0 0 .173-.393v-.393a.24.24 0 0 1 .198-.246c.296-.073.914-.196 1.803-.196.89 0 1.507.123 1.803.196a.265.265 0 0 1 .198.246v.393c0 .147.074.295.172.393.232.162.217.25.198.442-.025.245-.05.663-.05.663h.009L18.25 7.38c-.074.815-.715 1.383-1.479 1.383h-1.478c-.788 0-1.404-.568-1.478-1.383l-.142-1.848Z" fill="url(#O)"/></g><path d="M13.646 4.87c0-.123.05-.27.148-.344l.074-.073a.487.487 0 0 0 .173-.393v-.393a.24.24 0 0 1 .198-.246c.296-.073.914-.196 1.803-.196.89 0 1.507.123 1.803.196a.265.265 0 0 1 .198.246v.393c0 .147.074.295.172.393.232.162.217.25.198.442-.025.245-.05.663-.05.663h.009L18.25 7.38c-.074.815-.715 1.383-1.479 1.383h-1.478c-.788 0-1.404-.568-1.478-1.383-.064-.836-.092-1.675-.169-2.51Z" fill="url(#P)"/><path d="M13.646 4.87c0-.123.05-.27.148-.344l.074-.073a.487.487 0 0 0 .173-.393v-.393a.24.24 0 0 1 .198-.246c.296-.073.914-.196 1.803-.196.89 0 1.507.123 1.803.196a.265.265 0 0 1 .198.246v.393c0 .147.074.295.172.393.232.162.217.25.198.442-.025.245-.05.663-.05.663h.009L18.25 7.38c-.074.815-.715 1.383-1.479 1.383h-1.478c-.788 0-1.404-.568-1.478-1.383-.064-.836-.092-1.675-.169-2.51Z" fill="url(#Q)"/><path d="M13.646 4.87c0-.123.05-.27.148-.344l.074-.073a.487.487 0 0 0 .173-.393v-.393a.24.24 0 0 1 .198-.246c.296-.073.914-.196 1.803-.196.89 0 1.507.123 1.803.196a.265.265 0 0 1 .198.246v.393c0 .147.074.295.172.393.232.162.217.25.198.442-.025.245-.05.663-.05.663h.009L18.25 7.38c-.074.815-.715 1.383-1.479 1.383h-1.478c-.788 0-1.404-.568-1.478-1.383-.064-.836-.092-1.675-.169-2.51Z" fill="url(#R)"/><g filter="url(#S)"><path d="m17.846 3.225-1.417.472a.482.482 0 0 0 .217.936l1.409-.189-.209-1.22Z" fill="url(#T)"/></g><g filter="url(#U)"><path d="m18.24 2.832.198.098c.346.172.543.565.47.982l-.272 1.4c-.025.145-.12.242-.264.246h-.008s.025-.418.05-.663c.02-.2-.015-.26-.198-.442a.578.578 0 0 1-.173-.393v-.393a.265.265 0 0 0-.198-.246c-.296-.073-.914-.196-1.803-.196-.889 0-1.506.123-1.803.196a.24.24 0 0 0-.197.246v.393c0 .147-.05.294-.173.393l-.074.073c-.1.074-.149.221-.149.344.025.27.05.663.05.663h-.023a.292.292 0 0 1-.273-.245l-.272-1.4a.94.94 0 0 1 .494-.958l.197-.098c.124-.074.247-.172.37-.27l.445-.467a.903.903 0 0 1 1.013-.147c.247.073.519.073.766 0a1.11 1.11 0 0 1 1.087.245l.37.369c.099.123.222.196.37.27Z" fill="#27151C"/><path d="m18.24 2.832.198.098c.346.172.543.565.47.982l-.272 1.4c-.025.145-.12.242-.264.246h-.008s.025-.418.05-.663c.02-.2-.015-.26-.198-.442a.578.578 0 0 1-.173-.393v-.393a.265.265 0 0 0-.198-.246c-.296-.073-.914-.196-1.803-.196-.889 0-1.506.123-1.803.196a.24.24 0 0 0-.197.246v.393c0 .147-.05.294-.173.393l-.074.073c-.1.074-.149.221-.149.344.025.27.05.663.05.663h-.023a.292.292 0 0 1-.273-.245l-.272-1.4a.94.94 0 0 1 .494-.958l.197-.098c.124-.074.247-.172.37-.27l.445-.467a.903.903 0 0 1 1.013-.147c.247.073.519.073.766 0a1.11 1.11 0 0 1 1.087.245l.37.369c.099.123.222.196.37.27Z" fill="url(#V)"/><path d="m18.24 2.832.198.098c.346.172.543.565.47.982l-.272 1.4c-.025.145-.12.242-.264.246h-.008s.025-.418.05-.663c.02-.2-.015-.26-.198-.442a.578.578 0 0 1-.173-.393v-.393a.265.265 0 0 0-.198-.246c-.296-.073-.914-.196-1.803-.196-.889 0-1.506.123-1.803.196a.24.24 0 0 0-.197.246v.393c0 .147-.05.294-.173.393l-.074.073c-.1.074-.149.221-.149.344.025.27.05.663.05.663h-.023a.292.292 0 0 1-.273-.245l-.272-1.4a.94.94 0 0 1 .494-.958l.197-.098c.124-.074.247-.172.37-.27l.445-.467a.903.903 0 0 1 1.013-.147c.247.073.519.073.766 0a1.11 1.11 0 0 1 1.087.245l.37.369c.099.123.222.196.37.27Z" fill="url(#W)"/><path d="m18.24 2.832.198.098c.346.172.543.565.47.982l-.272 1.4c-.025.145-.12.242-.264.246h-.008s.025-.418.05-.663c.02-.2-.015-.26-.198-.442a.578.578 0 0 1-.173-.393v-.393a.265.265 0 0 0-.198-.246c-.296-.073-.914-.196-1.803-.196-.889 0-1.506.123-1.803.196a.24.24 0 0 0-.197.246v.393c0 .147-.05.294-.173.393l-.074.073c-.1.074-.149.221-.149.344.025.27.05.663.05.663h-.023a.292.292 0 0 1-.273-.245l-.272-1.4a.94.94 0 0 1 .494-.958l.197-.098c.124-.074.247-.172.37-.27l.445-.467a.903.903 0 0 1 1.013-.147c.247.073.519.073.766 0a1.11 1.11 0 0 1 1.087.245l.37.369c.099.123.222.196.37.27Z" fill="url(#X)"/><path d="m18.24 2.832.198.098c.346.172.543.565.47.982l-.272 1.4c-.025.145-.12.242-.264.246h-.008s.025-.418.05-.663c.02-.2-.015-.26-.198-.442a.578.578 0 0 1-.173-.393v-.393a.265.265 0 0 0-.198-.246c-.296-.073-.914-.196-1.803-.196-.889 0-1.506.123-1.803.196a.24.24 0 0 0-.197.246v.393c0 .147-.05.294-.173.393l-.074.073c-.1.074-.149.221-.149.344.025.27.05.663.05.663h-.023a.292.292 0 0 1-.273-.245l-.272-1.4a.94.94 0 0 1 .494-.958l.197-.098c.124-.074.247-.172.37-.27l.445-.467a.903.903 0 0 1 1.013-.147c.247.073.519.073.766 0a1.11 1.11 0 0 1 1.087.245l.37.369c.099.123.222.196.37.27Z" fill="url(#Y)"/></g><g filter="url(#Z)"><path d="m15.895 5.758-.378.783c-.047.16.065.322.225.322h.339c.16 0 .272-.164.225-.322l-.23-.783c-.049-.173-.13-.173-.181 0Z" fill="#71404A"/></g><g filter="url(#aa)"><path d="m15.845 5.683-.244.783c-.05.16.07.322.24.322h.361c.17 0 .29-.164.24-.322l-.244-.783c-.053-.173-.298-.173-.353 0Z" fill="#8C5F5E"/><path d="m15.845 5.683-.244.783c-.05.16.07.322.24.322h.361c.17 0 .29-.164.24-.322l-.244-.783c-.053-.173-.298-.173-.353 0Z" fill="url(#ab)"/><path d="m15.845 5.683-.244.783c-.05.16.07.322.24.322h.361c.17 0 .29-.164.24-.322l-.244-.783c-.053-.173-.298-.173-.353 0Z" fill="url(#ac)"/><path d="m15.845 5.683-.244.783c-.05.16.07.322.24.322h.361c.17 0 .29-.164.24-.322l-.244-.783c-.053-.173-.298-.173-.353 0Z" fill="url(#ad)"/><path d="m15.845 5.683-.244.783c-.05.16.07.322.24.322h.361c.17 0 .29-.164.24-.322l-.244-.783c-.053-.173-.298-.173-.353 0Z" fill="url(#ae)"/></g><path d="M16.792 7.228a.114.114 0 0 0-.013-.144.12.12 0 0 0-.142-.024 1.326 1.326 0 0 1-.616.146c-.225 0-.437-.053-.614-.146a.12.12 0 0 0-.144.025.113.113 0 0 0-.012.144m1.541 0L16.75 7.2l.042.027Zm0 0a.921.921 0 0 1-.77.411.922.922 0 0 1-.77-.411m0 0 .04-.028m-.04.028h-.001l.042-.028m0 0c.154.233.423.39.729.39a.872.872 0 0 0 .728-.39c.04-.06-.028-.128-.09-.096a1.376 1.376 0 0 1-.639.15c-.233 0-.453-.054-.637-.15-.063-.032-.131.039-.091.096Z" fill="#88014F" stroke="url(#af)" stroke-width=".1"/><g filter="url(#ag)"><path d="m17.734 4.562-.001-.001-.003-.002-.005-.004a.71.71 0 0 0-.071-.05 1.304 1.304 0 0 0-.88-.17.246.246 0 1 0 .076.486.813.813 0 0 1 .543.1.437.437 0 0 1 .029.02.246.246 0 0 0 .312-.379Z" fill="#352827"/><path d="m17.734 4.562-.001-.001-.003-.002-.005-.004a.71.71 0 0 0-.071-.05 1.304 1.304 0 0 0-.88-.17.246.246 0 1 0 .076.486.813.813 0 0 1 .543.1.437.437 0 0 1 .029.02.246.246 0 0 0 .312-.379Z" fill="url(#ah)"/></g><g filter="url(#ai)"><path d="m14.284 4.562.002-.001.002-.002.005-.004a.71.71 0 0 1 .072-.05 1.304 1.304 0 0 1 .88-.17.246.246 0 0 1-.077.486.813.813 0 0 0-.543.1.403.403 0 0 0-.025.018l-.003.003a.246.246 0 0 1-.313-.38Z" fill="#352827"/><path d="m14.284 4.562.002-.001.002-.002.005-.004a.71.71 0 0 1 .072-.05 1.304 1.304 0 0 1 .88-.17.246.246 0 0 1-.077.486.813.813 0 0 0-.543.1.403.403 0 0 0-.025.018l-.003.003a.246.246 0 0 1-.313-.38Z" fill="url(#aj)"/></g><path d="M17.12 5.156c.301 0 .555.207.624.487a.126.126 0 0 1-.123.157h-1.027a.106.106 0 0 1-.104-.125.643.643 0 0 1 .63-.52Z" fill="#fff"/><path d="M17.026 5.281a.41.41 0 0 1 .396.52h-.794a.412.412 0 0 1 .398-.52Z" fill="url(#ak)"/><path d="M16.79 5.692c0-.13.105-.235.236-.235a.234.234 0 0 1 .209.343h-.417a.213.213 0 0 1-.028-.108Z" fill="#000"/><g filter="url(#al)"><path d="M16.996 5.368c.029.039-.032.087-.102.139-.07.052-.121.088-.15.05-.03-.04.003-.114.073-.166.07-.052.15-.062.179-.023Z" fill="#C7A7A3"/><path d="M16.996 5.368c.029.039-.032.087-.102.139-.07.052-.121.088-.15.05-.03-.04.003-.114.073-.166.07-.052.15-.062.179-.023Z" fill="url(#am)"/></g><g filter="url(#an)"><path d="M17.392 5.638a.387.387 0 0 0-.107-.213l-.12.131.055.105.172-.023Z" fill="url(#ao)"/></g><path d="M14.92 5.156c-.301 0-.555.207-.624.487-.02.08.04.157.123.157h1.027c.066 0 .118-.06.105-.125a.645.645 0 0 0-.632-.52Z" fill="#fff"/><path d="M15.015 5.281a.41.41 0 0 0-.396.52h.793a.414.414 0 0 0-.398-.52Z" fill="url(#ap)"/><path d="M15.25 5.692a.234.234 0 0 0-.235-.235.234.234 0 0 0-.21.343h.417a.232.232 0 0 0 .028-.108Z" fill="#000"/><g filter="url(#aq)"><path d="M15.39 5.644c0-.133-.108-.222-.137-.248l-.133.128.082.166.188-.046Z" fill="url(#ar)"/></g><g filter="url(#as)" transform="rotate(-27.914 14.89 5.456)"><ellipse cx="14.891" cy="5.456" rx=".179" ry=".091" fill="#C7A7A3" fill-opacity=".9"/><ellipse cx="14.891" cy="5.456" rx=".179" ry=".091" fill="url(#at)"/></g><g filter="url(#au)"><path d="M16.786 4.496c.198-.035.584-.025.851.183" stroke="url(#av)" stroke-width=".25" stroke-linecap="round"/></g><g filter="url(#aw)"><path d="M14.383 4.734c.15-.133.48-.273.887-.208" stroke="url(#ax)" stroke-width=".25" stroke-linecap="round"/></g><g filter="url(#ay)"><path d="M13.934 3.6v.413c-.003.068-.032.221-.119.286" stroke="url(#az)" stroke-width=".25" stroke-linecap="round"/></g><defs><radialGradient id="b" cx="0" cy="0" r="1" gradientUnits="userSpaceOnUse" gradientTransform="matrix(-1.84375 0 0 -12.369 13.357 16.715)"><stop offset=".138" stop-color="#592631"/><stop offset="1" stop-color="#6F353A" stop-opacity="0"/></radialGradient><radialGradient id="c" cx="0" cy="0" r="1" gradientUnits="userSpaceOnUse" gradientTransform="matrix(1.60938 0 0 15.4135 18.872 16.715)"><stop offset=".101" stop-color="#6C3537"/><stop offset="1" stop-color="#874D4C" stop-opacity="0"/></radialGradient><radialGradient id="d" cx="0" cy="0" r="1" gradientUnits="userSpaceOnUse" gradientTransform="matrix(.1836 -.5625 .3991 .13026 19.319 19.109)"><stop stop-color="#713B4B"/><stop offset="1" stop-color="#713B4B" stop-opacity="0"/></radialGradient><radialGradient id="e" cx="0" cy="0" r="1" gradientUnits="userSpaceOnUse" gradientTransform="rotate(-168.523 7.537 5.838) scale(2.27735 4.86372)"><stop offset=".638" stop-color="#5BA1D3" stop-opacity="0"/><stop offset="1" stop-color="#5BA1D3"/></radialGradient><radialGradient id="f" cx="0" cy="0" r="1" gradientUnits="userSpaceOnUse" gradientTransform="matrix(-1.51587 1.2383 -.95063 -1.16372 14.562 8.915)"><stop stop-color="#3A87B0"/><stop offset="1" stop-color="#3A87B0" stop-opacity="0"/></radialGradient><radialGradient id="h" cx="0" cy="0" r="1" gradientUnits="userSpaceOnUse" gradientTransform="matrix(-.35938 2.17188 -.8973 -.14848 13.246 11.794)"><stop stop-color="#257AD3"/><stop offset="1" stop-color="#257AD3" stop-opacity="0"/></radialGradient><radialGradient id="j" cx="0" cy="0" r="1" gradientUnits="userSpaceOnUse" gradientTransform="matrix(.875 -.3125 1.2963 3.62963 18.794 12.06)"><stop offset=".251" stop-color="#2680E1"/><stop offset="1" stop-color="#2680E1" stop-opacity="0"/></radialGradient><radialGradient id="n" cx="0" cy="0" r="1" gradientUnits="userSpaceOnUse" gradientTransform="matrix(0 -.35938 1.91919 0 16 18.185)"><stop stop-color="#6A597B"/><stop offset="1" stop-color="#6A597B" stop-opacity="0"/></radialGradient><radialGradient id="o" cx="0" cy="0" r="1" gradientUnits="userSpaceOnUse" gradientTransform="matrix(0 -.26953 1.85938 0 18.075 28.548)"><stop stop-color="#AA9BA7"/><stop offset="1" stop-color="#AA9BA7" stop-opacity="0"/></radialGradient><radialGradient id="p" cx="0" cy="0" r="1" gradientUnits="userSpaceOnUse" gradientTransform="matrix(0 -.32813 1.20581 0 14.794 28.638)"><stop stop-color="#AA9BA7"/><stop offset="1" stop-color="#AA9BA7" stop-opacity="0"/></radialGradient><radialGradient id="s" cx="0" cy="0" r="1" gradientUnits="userSpaceOnUse" gradientTransform="rotate(140.013 7.411 8.269) scale(2.52874 3.92481)"><stop stop-color="#4DB7F8"/><stop offset="1" stop-color="#49A1F7" stop-opacity="0"/></radialGradient><radialGradient id="v" cx="0" cy="0" r="1" gradientUnits="userSpaceOnUse" gradientTransform="rotate(78.152 2.373 13.684) scale(1.14151 3.28028)"><stop offset=".167" stop-color="#39779B"/><stop offset="1" stop-color="#499DE8" stop-opacity="0"/></radialGradient><radialGradient id="w" cx="0" cy="0" r="1" gradientUnits="userSpaceOnUse" gradientTransform="matrix(1.42712 .66406 -.8419 1.8093 15.444 8.956)"><stop offset=".526" stop-color="#754751"/><stop offset="1" stop-color="#7E6064"/></radialGradient><radialGradient id="z" cx="0" cy="0" r="1" gradientUnits="userSpaceOnUse" gradientTransform="rotate(-153.096 13.311 12.409) scale(1.86466 .72714)"><stop stop-color="#635185"/><stop offset="1" stop-color="#635185" stop-opacity="0"/></radialGradient><radialGradient id="C" cx="0" cy="0" r="1" gradientUnits="userSpaceOnUse" gradientTransform="matrix(.80803 0 0 1.41405 13.067 5.815)"><stop offset=".351" stop-color="#664249"/><stop offset="1" stop-color="#613641"/></radialGradient><radialGradient id="H" cx="0" cy="0" r="1" gradientUnits="userSpaceOnUse" gradientTransform="matrix(.38066 -.27718 .31636 .43447 18.387 5.693)"><stop offset=".543" stop-color="#7C524C"/><stop offset="1" stop-color="#7C524C" stop-opacity="0"/></radialGradient><radialGradient id="J" cx="0" cy="0" r="1" gradientUnits="userSpaceOnUse" gradientTransform="matrix(.37815 -.69552 .4071 .22133 18.197 6.193)"><stop offset=".755" stop-color="#73443E" stop-opacity="0"/><stop offset=".916" stop-color="#73443E"/></radialGradient><radialGradient id="K" cx="0" cy="0" r="1" gradientUnits="userSpaceOnUse" gradientTransform="rotate(44.709 2.039 25.055) scale(.16799 .21656)"><stop stop-color="#6C443E"/><stop offset="1" stop-color="#6C443E" stop-opacity="0"/></radialGradient><radialGradient id="N" cx="0" cy="0" r="1" gradientUnits="userSpaceOnUse" gradientTransform="matrix(0 -.60184 .74073 0 17.102 5.23)"><stop stop-color="#855354"/><stop offset="1" stop-color="#855354" stop-opacity="0"/></radialGradient><radialGradient id="O" cx="0" cy="0" r="1" gradientUnits="userSpaceOnUse" gradientTransform="matrix(0 -.6327 .78683 0 15.003 5.29)"><stop stop-color="#6F414D"/><stop offset="1" stop-color="#6F414D" stop-opacity="0"/></radialGradient><radialGradient id="R" cx="0" cy="0" r="1" gradientUnits="userSpaceOnUse" gradientTransform="matrix(0 4.07339 -5.52941 0 15.882 4.998)"><stop offset=".619" stop-color="#714250" stop-opacity="0"/><stop offset="1" stop-color="#5F3E52"/></radialGradient><radialGradient id="V" cx="0" cy="0" r="1" gradientUnits="userSpaceOnUse" gradientTransform="matrix(.36736 -1.36138 .6555 .17688 18.022 3.924)"><stop offset=".372" stop-color="#3D3437"/><stop offset="1" stop-color="#3D3437" stop-opacity="0"/></radialGradient><radialGradient id="W" cx="0" cy="0" r="1" gradientUnits="userSpaceOnUse" gradientTransform="matrix(1.76115 .16207 -.08714 .94696 17.266 3.114)"><stop offset=".32" stop-color="#46383D"/><stop offset="1" stop-color="#46383D" stop-opacity="0"/></radialGradient><radialGradient id="X" cx="0" cy="0" r="1" gradientUnits="userSpaceOnUse" gradientTransform="matrix(0 .77318 -1.19743 0 16.022 1.854)"><stop stop-color="#3E3034"/><stop offset="1" stop-color="#3E3034" stop-opacity="0"/></radialGradient><radialGradient id="Y" cx="0" cy="0" r="1" gradientUnits="userSpaceOnUse" gradientTransform="rotate(-36.235 14.157 -17.45) scale(1.75477 2.74915)"><stop stop-color="#453938"/><stop offset="1" stop-color="#453938" stop-opacity="0"/></radialGradient><radialGradient id="ae" cx="0" cy="0" r="1" gradientUnits="userSpaceOnUse" gradientTransform="matrix(0 .09066 -.29128 0 16.172 6.554)"><stop stop-color="#976F6A"/><stop offset="1" stop-color="#976F6A" stop-opacity="0"/></radialGradient><radialGradient id="ah" cx="0" cy="0" r="1" gradientUnits="userSpaceOnUse" gradientTransform="matrix(.04798 -.27777 .82177 .14193 17.146 4.855)"><stop stop-color="#301A2D"/><stop offset="1" stop-color="#301A2D" stop-opacity="0"/></radialGradient><radialGradient id="aj" cx="0" cy="0" r="1" gradientUnits="userSpaceOnUse" gradientTransform="matrix(.04798 -.27777 .82182 .14195 14.776 4.855)"><stop stop-color="#301A2D"/><stop offset="1" stop-color="#301A2D" stop-opacity="0"/></radialGradient><radialGradient id="ak" cx="0" cy="0" r="1" gradientUnits="userSpaceOnUse" gradientTransform="matrix(0 .37349 -.59407 0 17.025 5.5)"><stop offset=".802" stop-color="#7D574A"/><stop offset="1" stop-color="#694B43"/><stop offset="1" stop-color="#804D49"/><stop offset="1" stop-color="#664944"/></radialGradient><radialGradient id="am" cx="0" cy="0" r="1" gradientUnits="userSpaceOnUse" gradientTransform="matrix(-.10676 -.13758 .18941 -.14699 16.92 5.54)"><stop offset=".766" stop-color="#FFE6E2" stop-opacity="0"/><stop offset=".966" stop-color="#FFE6E2"/></radialGradient><radialGradient id="ap" cx="0" cy="0" r="1" gradientUnits="userSpaceOnUse" gradientTransform="matrix(0 .3735 -.5941 0 15.015 5.5)"><stop offset=".802" stop-color="#7D574A"/><stop offset="1" stop-color="#694B43"/><stop offset="1" stop-color="#804D49"/><stop offset="1" stop-color="#664944"/></radialGradient><radialGradient id="at" cx="0" cy="0" r="1" gradientUnits="userSpaceOnUse" gradientTransform="rotate(-90.897 10.2 -4.525) scale(.22748 .27343)"><stop offset=".766" stop-color="#FFE6E2" stop-opacity="0"/><stop offset=".966" stop-color="#FFE6E2"/></radialGradient><filter id="a" x="11.403" y="12.701" width="2.311" height="8.028" filterUnits="userSpaceOnUse" color-interpolation-filters="sRGB"><feFlood flood-opacity="0" result="BackgroundImageFix"/><feBlend in="SourceGraphic" in2="BackgroundImageFix" result="shape"/><feColorMatrix in="SourceAlpha" values="0 0 0 0 0 0 0 0 0 0 0 0 0 0 0 0 0 0 127 0" result="hardAlpha"/><feOffset dx=".2"/><feGaussianBlur stdDeviation=".1"/><feComposite in2="hardAlpha" operator="arithmetic" k2="-1" k3="1"/><feColorMatrix values="0 0 0 0 0.556863 0 0 0 0 0.407843 0 0 0 0 0.376471 0 0 0 1 0"/><feBlend in2="shape" result="effect1_innerShadow_4002_175"/></filter><filter id="i" x="19.164" y="12.063" width="1.464" height="6.913" filterUnits="userSpaceOnUse" color-interpolation-filters="sRGB"><feFlood flood-opacity="0" result="BackgroundImageFix"/><feBlend in="SourceGraphic" in2="BackgroundImageFix" result="shape"/><feGaussianBlur stdDeviation=".25" result="effect1_foregroundBlur_4002_175"/></filter><filter id="l" x="13.016" y="16.095" width="6.169" height="12.453" filterUnits="userSpaceOnUse" color-interpolation-filters="sRGB"><feFlood flood-opacity="0" result="BackgroundImageFix"/><feBlend in="SourceGraphic" in2="BackgroundImageFix" result="shape"/><feColorMatrix in="SourceAlpha" values="0 0 0 0 0 0 0 0 0 0 0 0 0 0 0 0 0 0 127 0" result="hardAlpha"/><feOffset dx=".2"/><feGaussianBlur stdDeviation=".4"/><feComposite in2="hardAlpha" operator="arithmetic" k2="-1" k3="1"/><feColorMatrix values="0 0 0 0 0.486275 0 0 0 0 0.462745 0 0 0 0 0.505882 0 0 0 1 0"/><feBlend in2="shape" result="effect1_innerShadow_4002_175"/></filter><filter id="q" x="12.941" y="8.552" width="6.517" height="7.994" filterUnits="userSpaceOnUse" color-interpolation-filters="sRGB"><feFlood flood-opacity="0" result="BackgroundImageFix"/><feBlend in="SourceGraphic" in2="BackgroundImageFix" result="shape"/><feColorMatrix in="SourceAlpha" values="0 0 0 0 0 0 0 0 0 0 0 0 0 0 0 0 0 0 127 0" result="hardAlpha"/><feOffset dx=".4" dy=".4"/><feGaussianBlur stdDeviation=".4"/><feComposite in2="hardAlpha" operator="arithmetic" k2="-1" k3="1"/><feColorMatrix values="0 0 0 0 0.368627 0 0 0 0 0.560784 0 0 0 0 0.784314 0 0 0 1 0"/><feBlend in2="shape" result="effect1_innerShadow_4002_175"/></filter><filter id="x" x="12.434" y="28.548" width="3.316" height="1.848" filterUnits="userSpaceOnUse" color-interpolation-filters="sRGB"><feFlood flood-opacity="0" result="BackgroundImageFix"/><feBlend in="SourceGraphic" in2="BackgroundImageFix" result="shape"/><feColorMatrix in="SourceAlpha" values="0 0 0 0 0 0 0 0 0 0 0 0 0 0 0 0 0 0 127 0" result="hardAlpha"/><feOffset dx=".25" dy=".25"/><feGaussianBlur stdDeviation=".25"/><feComposite in2="hardAlpha" operator="arithmetic" k2="-1" k3="1"/><feColorMatrix values="0 0 0 0 0.313726 0 0 0 0 0.235294 0 0 0 0 0.431373 0 0 0 1 0"/><feBlend in2="shape" result="effect1_innerShadow_4002_175"/></filter><filter id="A" x="12.841" y="15.466" width="6.594" height="13.766" filterUnits="userSpaceOnUse" color-interpolation-filters="sRGB"><feFlood flood-opacity="0" result="BackgroundImageFix"/><feBlend in="SourceGraphic" in2="BackgroundImageFix" result="shape"/><feGaussianBlur stdDeviation=".5" result="effect1_foregroundBlur_4002_175"/></filter><filter id="B" x="13.067" y="5.046" width="1.737" height="1.537" filterUnits="userSpaceOnUse" color-interpolation-filters="sRGB"><feFlood flood-opacity="0" result="BackgroundImageFix"/><feBlend in="SourceGraphic" in2="BackgroundImageFix" result="shape"/><feColorMatrix in="SourceAlpha" values="0 0 0 0 0 0 0 0 0 0 0 0 0 0 0 0 0 0 127 0" result="hardAlpha"/><feOffset dx=".2"/><feGaussianBlur stdDeviation=".15"/><feComposite in2="hardAlpha" operator="arithmetic" k2="-1" k3="1"/><feColorMatrix values="0 0 0 0 0.517647 0 0 0 0 0.384314 0 0 0 0 0.34902 0 0 0 1 0"/><feBlend in2="shape" result="effect1_innerShadow_4002_175"/></filter><filter id="D" x="12.877" y="4.856" width="1.916" height="1.916" filterUnits="userSpaceOnUse" color-interpolation-filters="sRGB"><feFlood flood-opacity="0" result="BackgroundImageFix"/><feBlend in="SourceGraphic" in2="BackgroundImageFix" result="shape"/><feGaussianBlur stdDeviation=".25" result="effect1_foregroundBlur_4002_175"/></filter><filter id="F" x="17.447" y="4.796" width="1.787" height="1.787" filterUnits="userSpaceOnUse" color-interpolation-filters="sRGB"><feFlood flood-opacity="0" result="BackgroundImageFix"/><feBlend in="SourceGraphic" in2="BackgroundImageFix" result="shape"/><feColorMatrix in="SourceAlpha" values="0 0 0 0 0 0 0 0 0 0 0 0 0 0 0 0 0 0 127 0" result="hardAlpha"/><feOffset dx=".25" dy="-.25"/><feGaussianBlur stdDeviation=".25"/><feComposite in2="hardAlpha" operator="arithmetic" k2="-1" k3="1"/><feColorMatrix values="0 0 0 0 0.482353 0 0 0 0 0.278431 0 0 0 0 0.372549 0 0 0 1 0"/><feBlend in2="shape" result="effect1_innerShadow_4002_175"/></filter><filter id="I" x="17.258" y="4.856" width="1.916" height="1.916" filterUnits="userSpaceOnUse" color-interpolation-filters="sRGB"><feFlood flood-opacity="0" result="BackgroundImageFix"/><feBlend in="SourceGraphic" in2="BackgroundImageFix" result="shape"/><feGaussianBlur stdDeviation=".25" result="effect1_foregroundBlur_4002_175"/></filter><filter id="L" x="13.646" y="3.225" width="4.777" height="5.638" filterUnits="userSpaceOnUse" color-interpolation-filters="sRGB"><feFlood flood-opacity="0" result="BackgroundImageFix"/><feBlend in="SourceGraphic" in2="BackgroundImageFix" result="shape"/><feColorMatrix in="SourceAlpha" values="0 0 0 0 0 0 0 0 0 0 0 0 0 0 0 0 0 0 127 0" result="hardAlpha"/><feOffset dy=".1"/><feGaussianBlur stdDeviation=".075"/><feComposite in2="hardAlpha" operator="arithmetic" k2="-1" k3="1"/><feColorMatrix values="0 0 0 0 0.254902 0 0 0 0 0.137255 0 0 0 0 0.113725 0 0 0 1 0"/><feBlend in2="shape" result="effect1_innerShadow_4002_175"/></filter><filter id="S" x="15.6" y="2.725" width="2.955" height="2.412" filterUnits="userSpaceOnUse" color-interpolation-filters="sRGB"><feFlood flood-opacity="0" result="BackgroundImageFix"/><feBlend in="SourceGraphic" in2="BackgroundImageFix" result="shape"/><feGaussianBlur stdDeviation=".25" result="effect1_foregroundBlur_4002_175"/></filter><filter id="U" x="13.12" y="1.654" width="5.802" height="3.904" filterUnits="userSpaceOnUse" color-interpolation-filters="sRGB"><feFlood flood-opacity="0" result="BackgroundImageFix"/><feBlend in="SourceGraphic" in2="BackgroundImageFix" result="shape"/><feColorMatrix in="SourceAlpha" values="0 0 0 0 0 0 0 0 0 0 0 0 0 0 0 0 0 0 127 0" result="hardAlpha"/><feOffset dy="-.2"/><feGaussianBlur stdDeviation=".125"/><feComposite in2="hardAlpha" operator="arithmetic" k2="-1" k3="1"/><feColorMatrix values="0 0 0 0 0.0392157 0 0 0 0 0.00784314 0 0 0 0 0.0196078 0 0 0 1 0"/><feBlend in2="shape" result="effect1_innerShadow_4002_175"/></filter><filter id="Z" x="14.756" y="4.878" width="2.31" height="2.735" filterUnits="userSpaceOnUse" color-interpolation-filters="sRGB"><feFlood flood-opacity="0" result="BackgroundImageFix"/><feBlend in="SourceGraphic" in2="BackgroundImageFix" result="shape"/><feGaussianBlur stdDeviation=".375" result="effect1_foregroundBlur_4002_175"/></filter><filter id="aa" x="15.489" y="5.453" width="1.064" height="1.435" filterUnits="userSpaceOnUse" color-interpolation-filters="sRGB"><feFlood flood-opacity="0" result="BackgroundImageFix"/><feBlend in="SourceGraphic" in2="BackgroundImageFix" result="shape"/><feGaussianBlur stdDeviation=".05" result="effect1_foregroundBlur_4002_175"/></filter><filter id="ag" x="16.566" y="3.919" width="1.507" height="1.078" filterUnits="userSpaceOnUse" color-interpolation-filters="sRGB"><feFlood flood-opacity="0" result="BackgroundImageFix"/><feBlend in="SourceGraphic" in2="BackgroundImageFix" result="shape"/><feColorMatrix in="SourceAlpha" values="0 0 0 0 0 0 0 0 0 0 0 0 0 0 0 0 0 0 127 0" result="hardAlpha"/><feOffset dx=".25" dy="-.4"/><feGaussianBlur stdDeviation=".3"/><feComposite in2="hardAlpha" operator="arithmetic" k2="-1" k3="1"/><feColorMatrix values="0 0 0 0 0.156863 0 0 0 0 0.0784314 0 0 0 0 0.109804 0 0 0 1 0"/><feBlend in2="shape" result="effect1_innerShadow_4002_175"/></filter><filter id="ai" x="14.196" y="3.919" width="1.507" height="1.078" filterUnits="userSpaceOnUse" color-interpolation-filters="sRGB"><feFlood flood-opacity="0" result="BackgroundImageFix"/><feBlend in="SourceGraphic" in2="BackgroundImageFix" result="shape"/><feColorMatrix in="SourceAlpha" values="0 0 0 0 0 0 0 0 0 0 0 0 0 0 0 0 0 0 127 0" result="hardAlpha"/><feOffset dx=".25" dy="-.4"/><feGaussianBlur stdDeviation=".3"/><feComposite in2="hardAlpha" operator="arithmetic" k2="-1" k3="1"/><feColorMatrix values="0 0 0 0 0.156863 0 0 0 0 0.0784314 0 0 0 0 0.109804 0 0 0 1 0"/><feBlend in2="shape" result="effect1_innerShadow_4002_175"/></filter><filter id="al" x="16.633" y="5.244" width=".47" height=".428" filterUnits="userSpaceOnUse" color-interpolation-filters="sRGB"><feFlood flood-opacity="0" result="BackgroundImageFix"/><feBlend in="SourceGraphic" in2="BackgroundImageFix" result="shape"/><feGaussianBlur stdDeviation=".05" result="effect1_foregroundBlur_4002_175"/></filter><filter id="an" x="16.965" y="5.225" width=".626" height=".636" filterUnits="userSpaceOnUse" color-interpolation-filters="sRGB"><feFlood flood-opacity="0" result="BackgroundImageFix"/><feBlend in="SourceGraphic" in2="BackgroundImageFix" result="shape"/><feGaussianBlur stdDeviation=".1" result="effect1_foregroundBlur_4002_175"/></filter><filter id="aq" x="14.92" y="5.196" width=".67" height=".695" filterUnits="userSpaceOnUse" color-interpolation-filters="sRGB"><feFlood flood-opacity="0" result="BackgroundImageFix"/><feBlend in="SourceGraphic" in2="BackgroundImageFix" result="shape"/><feGaussianBlur stdDeviation=".1" result="effect1_foregroundBlur_4002_175"/></filter><filter id="as" x="14.627" y="5.24" width=".528" height=".432" filterUnits="userSpaceOnUse" color-interpolation-filters="sRGB"><feFlood flood-opacity="0" result="BackgroundImageFix"/><feBlend in="SourceGraphic" in2="BackgroundImageFix" result="shape"/><feGaussianBlur stdDeviation=".05" result="effect1_foregroundBlur_4002_175"/></filter><filter id="au" x="16.161" y="3.855" width="2.102" height="1.448" filterUnits="userSpaceOnUse" color-interpolation-filters="sRGB"><feFlood flood-opacity="0" result="BackgroundImageFix"/><feBlend in="SourceGraphic" in2="BackgroundImageFix" result="shape"/><feGaussianBlur stdDeviation=".25" result="effect1_foregroundBlur_4002_175"/></filter><filter id="aw" x="13.758" y="3.885" width="2.137" height="1.475" filterUnits="userSpaceOnUse" color-interpolation-filters="sRGB"><feFlood flood-opacity="0" result="BackgroundImageFix"/><feBlend in="SourceGraphic" in2="BackgroundImageFix" result="shape"/><feGaussianBlur stdDeviation=".25" result="effect1_foregroundBlur_4002_175"/></filter><filter id="ay" x="13.44" y="3.224" width=".869" height="1.45" filterUnits="userSpaceOnUse" color-interpolation-filters="sRGB"><feFlood flood-opacity="0" result="BackgroundImageFix"/><feBlend in="SourceGraphic" in2="BackgroundImageFix" result="shape"/><feGaussianBlur stdDeviation=".125" result="effect1_foregroundBlur_4002_175"/></filter><linearGradient id="g" x1="12.466" y1="12.865" x2="12.466" y2="12.712" gradientUnits="userSpaceOnUse"><stop stop-color="#3270C8"/><stop offset="1" stop-color="#2C7CD5" stop-opacity="0"/></linearGradient><linearGradient id="k" x1="19.747" y1="12.951" x2="19.747" y2="12.247" gradientUnits="userSpaceOnUse"><stop stop-color="#4E73C8"/><stop offset="1" stop-color="#3686DF" stop-opacity="0"/></linearGradient><linearGradient id="m" x1="16" y1="16.095" x2="16" y2="16.529" gradientUnits="userSpaceOnUse"><stop stop-color="#856988"/><stop offset="1" stop-color="#856988" stop-opacity="0"/></linearGradient><linearGradient id="r" x1="16" y1="9.185" x2="16" y2="16.146" gradientUnits="userSpaceOnUse"><stop stop-color="#46A3F0"/><stop offset="1" stop-color="#3B70D0"/></linearGradient><linearGradient id="t" x1="17.606" y1="16.146" x2="17.606" y2="14.029" gradientUnits="userSpaceOnUse"><stop stop-color="#3B70CF"/><stop offset="1" stop-color="#3B70CF" stop-opacity="0"/></linearGradient><linearGradient id="u" x1="17.231" y1="16.099" x2="17.231" y2="15.81" gradientUnits="userSpaceOnUse"><stop stop-color="#4656B3"/><stop offset="1" stop-color="#4475D1" stop-opacity="0"/></linearGradient><linearGradient id="y" x1="18.247" y1="29.81" x2="16.5" y2="29.607" gradientUnits="userSpaceOnUse"><stop stop-color="#5A3F7C"/><stop offset="1" stop-color="#462F5E"/></linearGradient><linearGradient id="E" x1="13.835" y1="5.943" x2="13.54" y2="5.943" gradientUnits="userSpaceOnUse"><stop stop-color="#553038"/><stop offset="1" stop-color="#59323C"/></linearGradient><linearGradient id="G" x1="18.716" y1="5.312" x2="18.339" y2="6.48" gradientUnits="userSpaceOnUse"><stop stop-color="#96776B"/><stop offset="1" stop-color="#855A5B"/></linearGradient><linearGradient id="M" x1="17.88" y1="5.994" x2="14.363" y2="6.518" gradientUnits="userSpaceOnUse"><stop stop-color="#9B6C5E"/><stop offset="1" stop-color="#744D4A"/></linearGradient><linearGradient id="P" x1="13.537" y1="7.235" x2="14.403" y2="7.204" gradientUnits="userSpaceOnUse"><stop stop-color="#84615A"/><stop offset="1" stop-color="#84615A" stop-opacity="0"/></linearGradient><linearGradient id="Q" x1="18.261" y1="6.85" x2="17.775" y2="6.803" gradientUnits="userSpaceOnUse"><stop stop-color="#966D5F"/><stop offset="1" stop-color="#966D5F" stop-opacity="0"/></linearGradient><linearGradient id="T" x1="15.777" y1="4.62" x2="19.526" y2="3.277" gradientUnits="userSpaceOnUse"><stop offset=".109" stop-color="#A47F73"/><stop offset="1" stop-color="#A27B71" stop-opacity="0"/></linearGradient><linearGradient id="ab" x1="15.623" y1="6.297" x2="16.055" y2="6.297" gradientUnits="userSpaceOnUse"><stop stop-color="#754E46"/><stop offset="1" stop-color="#754E46" stop-opacity="0"/></linearGradient><linearGradient id="ac" x1="16.453" y1="6.446" x2="15.981" y2="6.439" gradientUnits="userSpaceOnUse"><stop stop-color="#9D766B"/><stop offset="1" stop-color="#9D766B" stop-opacity="0"/></linearGradient><linearGradient id="ad" x1="16.111" y1="6.788" x2="16.111" y2="6.524" gradientUnits="userSpaceOnUse"><stop stop-color="#7C4559"/><stop offset="1" stop-color="#7C4559" stop-opacity="0"/></linearGradient><linearGradient id="af" x1="15.544" y1="7.531" x2="15.744" y2="7.215" gradientUnits="userSpaceOnUse"><stop stop-color="#865E63"/><stop offset=".663" stop-color="#865E63" stop-opacity="0"/></linearGradient><linearGradient id="ao" x1="17.383" y1="5.525" x2="17.238" y2="5.614" gradientUnits="userSpaceOnUse"><stop stop-color="#B4948D"/><stop offset="1" stop-color="#B4948D" stop-opacity="0"/></linearGradient><linearGradient id="ar" x1="15.358" y1="5.525" x2="15.214" y2="5.614" gradientUnits="userSpaceOnUse"><stop stop-color="#B4948D"/><stop offset="1" stop-color="#B4948D" stop-opacity="0"/></linearGradient><linearGradient id="av" x1="17.39" y1="4.54" x2="17.196" y2="4.145" gradientUnits="userSpaceOnUse"><stop stop-color="#483E3E"/><stop offset="1" stop-color="#483E3E" stop-opacity="0"/></linearGradient><linearGradient id="ax" x1="14.947" y1="4.481" x2="14.4" y2="4.252" gradientUnits="userSpaceOnUse"><stop stop-color="#483E3E"/><stop offset="1" stop-color="#483E3E" stop-opacity="0"/></linearGradient><linearGradient id="az" x1="13.875" y1="3.554" x2="13.875" y2="4.547" gradientUnits="userSpaceOnUse"><stop offset=".228" stop-color="#32272D"/><stop offset="1" stop-color="#32272D" stop-opacity="0"/></linearGradient></defs></svg>