<svg width="32" height="32" fill="none" xmlns="http://www.w3.org/2000/svg"><path d="M12.382 20.036c-5.523 0-10 4.477-10 10v.05h20v-.05c0-5.523-4.477-10-10-10Z" fill="url(#a)"/><path d="M12.382 20.036c-5.523 0-10 4.477-10 10v.05h20v-.05c0-5.523-4.477-10-10-10Z" fill="url(#b)"/><path d="M12.382 20.036c-5.523 0-10 4.477-10 10v.05h20v-.05c0-5.523-4.477-10-10-10Z" fill="url(#c)"/><path d="M12.382 20.036c-5.523 0-10 4.477-10 10v.05h20v-.05c0-5.523-4.477-10-10-10Z" fill="url(#d)"/><rect x="9.944" y="17.009" width="4.898" height="6.68" rx="2.449" fill="url(#e)"/><rect x="9.944" y="17.009" width="4.898" height="6.68" rx="2.449" fill="url(#f)"/><g filter="url(#g)"><path fill="#BD9679" d="M21.258 15.789h4.015v2.016h-4.015z"/><path fill="url(#h)" d="M21.258 15.789h4.015v2.016h-4.015z"/><path fill="url(#i)" d="M21.258 15.789h4.015v2.016h-4.015z"/><path fill="#A36A70" d="M21.258 15.789h4.015v2.016h-4.015z"/></g><g filter="url(#j)"><path d="M22.03 13.876c-.554.648-.74 1.417-.761 1.758l1.847-.102.887-1.183c.29-.383.54-1.02-.035-1.442-.466-.342-.945-.066-1.102.106a27.62 27.62 0 0 0-.836.863Z" fill="url(#k)"/><path d="M22.03 13.876c-.554.648-.74 1.417-.761 1.758l1.847-.102.887-1.183c.29-.383.54-1.02-.035-1.442-.466-.342-.945-.066-1.102.106a27.62 27.62 0 0 0-.836.863Z" fill="url(#l)"/><path d="M22.03 13.876c-.554.648-.74 1.417-.761 1.758l1.847-.102.887-1.183c.29-.383.54-1.02-.035-1.442-.466-.342-.945-.066-1.102.106a27.62 27.62 0 0 0-.836.863Z" fill="url(#m)"/></g><g filter="url(#n)" fill-rule="evenodd" clip-rule="evenodd"><path d="M29.625 14.181a.85.85 0 0 1-.69.985 21.07 21.07 0 0 0-.562.113c-.653.136-1.594.332-2.606.428a.85.85 0 0 1-.16-1.693c.909-.086 1.678-.246 2.318-.38.26-.054.498-.104.715-.142a.85.85 0 0 1 .985.69Z" fill="#BD9679"/><path d="M29.625 14.181a.85.85 0 0 1-.69.985 21.07 21.07 0 0 0-.562.113c-.653.136-1.594.332-2.606.428a.85.85 0 0 1-.16-1.693c.909-.086 1.678-.246 2.318-.38.26-.054.498-.104.715-.142a.85.85 0 0 1 .985.69Z" fill="url(#o)"/><path d="M29.625 14.181a.85.85 0 0 1-.69.985 21.07 21.07 0 0 0-.562.113c-.653.136-1.594.332-2.606.428a.85.85 0 0 1-.16-1.693c.909-.086 1.678-.246 2.318-.38.26-.054.498-.104.715-.142a.85.85 0 0 1 .985.69Z" fill="url(#p)"/><path d="M29.625 14.181a.85.85 0 0 1-.69.985 21.07 21.07 0 0 0-.562.113c-.653.136-1.594.332-2.606.428a.85.85 0 0 1-.16-1.693c.909-.086 1.678-.246 2.318-.38.26-.054.498-.104.715-.142a.85.85 0 0 1 .985.69Z" fill="url(#q)"/></g><g filter="url(#r)" fill-rule="evenodd" clip-rule="evenodd"><path d="M30.203 14.51a.85.85 0 0 1-.689.984c-.12.021-.258.047-.413.076-.662.124-1.627.305-2.733.41a.85.85 0 1 1-.16-1.693c1.02-.096 1.89-.259 2.552-.383.166-.03.32-.06.459-.084a.85.85 0 0 1 .984.69Z" fill="#BD9679"/><path d="M30.203 14.51a.85.85 0 0 1-.689.984c-.12.021-.258.047-.413.076-.662.124-1.627.305-2.733.41a.85.85 0 1 1-.16-1.693c1.02-.096 1.89-.259 2.552-.383.166-.03.32-.06.459-.084a.85.85 0 0 1 .984.69Z" fill="url(#s)"/><path d="M30.203 14.51a.85.85 0 0 1-.689.984c-.12.021-.258.047-.413.076-.662.124-1.627.305-2.733.41a.85.85 0 1 1-.16-1.693c1.02-.096 1.89-.259 2.552-.383.166-.03.32-.06.459-.084a.85.85 0 0 1 .984.69Z" fill="url(#t)"/><path d="M30.203 14.51a.85.85 0 0 1-.689.984c-.12.021-.258.047-.413.076-.662.124-1.627.305-2.733.41a.85.85 0 1 1-.16-1.693c1.02-.096 1.89-.259 2.552-.383.166-.03.32-.06.459-.084a.85.85 0 0 1 .984.69Z" fill="url(#u)"/></g><g filter="url(#v)" fill-rule="evenodd" clip-rule="evenodd"><path d="M29.932 15.067a.85.85 0 0 1-.772.921c-.322.029-.74.088-1.26.162l-.03.004c-.526.075-1.134.16-1.788.231a.85.85 0 1 1-.182-1.69c.622-.067 1.205-.15 1.73-.224l.064-.009c.491-.07.949-.135 1.317-.167a.85.85 0 0 1 .92.772Z" fill="#BD9679"/><path d="M29.932 15.067a.85.85 0 0 1-.772.921c-.322.029-.74.088-1.26.162l-.03.004c-.526.075-1.134.16-1.788.231a.85.85 0 1 1-.182-1.69c.622-.067 1.205-.15 1.73-.224l.064-.009c.491-.07.949-.135 1.317-.167a.85.85 0 0 1 .92.772Z" fill="url(#w)"/><path d="M29.932 15.067a.85.85 0 0 1-.772.921c-.322.029-.74.088-1.26.162l-.03.004c-.526.075-1.134.16-1.788.231a.85.85 0 1 1-.182-1.69c.622-.067 1.205-.15 1.73-.224l.064-.009c.491-.07.949-.135 1.317-.167a.85.85 0 0 1 .92.772Z" fill="url(#x)"/><path d="M29.932 15.067a.85.85 0 0 1-.772.921c-.322.029-.74.088-1.26.162l-.03.004c-.526.075-1.134.16-1.788.231a.85.85 0 1 1-.182-1.69c.622-.067 1.205-.15 1.73-.224l.064-.009c.491-.07.949-.135 1.317-.167a.85.85 0 0 1 .92.772Z" fill="url(#y)"/></g><g filter="url(#z)" fill-rule="evenodd" clip-rule="evenodd"><path d="M25.57 14.017c-.33.036-.77.085-1.598.155l-.229.018c-1.06.083-2.273.177-2.466 1.345-.2 1.203 1.183 2.142 2.831 1.954.594-.067.867-.153 1.175-.25.243-.077.508-.16.967-.248.917-.102 1.759-.206 2.235-.308a.825.825 0 0 0-.346-1.614c-.37.08-1.053.167-1.874.26l-.203-1.363c-.161.014-.31.03-.492.05Z" fill="#FFCA37"/><path d="M25.57 14.017c-.33.036-.77.085-1.598.155l-.229.018c-1.06.083-2.273.177-2.466 1.345-.2 1.203 1.183 2.142 2.831 1.954.594-.067.867-.153 1.175-.25.243-.077.508-.16.967-.248.917-.102 1.759-.206 2.235-.308a.825.825 0 0 0-.346-1.614c-.37.08-1.053.167-1.874.26l-.203-1.363c-.161.014-.31.03-.492.05Z" fill="url(#A)"/><path d="M25.57 14.017c-.33.036-.77.085-1.598.155l-.229.018c-1.06.083-2.273.177-2.466 1.345-.2 1.203 1.183 2.142 2.831 1.954.594-.067.867-.153 1.175-.25.243-.077.508-.16.967-.248.917-.102 1.759-.206 2.235-.308a.825.825 0 0 0-.346-1.614c-.37.08-1.053.167-1.874.26l-.203-1.363c-.161.014-.31.03-.492.05Z" fill="url(#B)"/><path d="M25.57 14.017c-.33.036-.77.085-1.598.155l-.229.018c-1.06.083-2.273.177-2.466 1.345-.2 1.203 1.183 2.142 2.831 1.954.594-.067.867-.153 1.175-.25.243-.077.508-.16.967-.248.917-.102 1.759-.206 2.235-.308a.825.825 0 0 0-.346-1.614c-.37.08-1.053.167-1.874.26l-.203-1.363c-.161.014-.31.03-.492.05Z" fill="url(#C)"/></g><g filter="url(#D)"><path d="M25.57 14.017c-.33.036-.77.085-1.598.155l-.229.018c-1.06.083-2.273.177-2.466 1.345-.2 1.203 1.183 2.142 2.831 1.954.594-.067.874-.095 1.183-.192.242-.077.5-.219.96-.306.916-.102 1.758-.206 2.233-.308a.825.825 0 0 0-.345-1.614c-.37.08-1.053.167-1.874.26l-.203-1.363c-.161.014-.31.03-.492.05Z" fill="#BD9679"/><path d="M25.57 14.017c-.33.036-.77.085-1.598.155l-.229.018c-1.06.083-2.273.177-2.466 1.345-.2 1.203 1.183 2.142 2.831 1.954.594-.067.874-.095 1.183-.192.242-.077.5-.219.96-.306.916-.102 1.758-.206 2.233-.308a.825.825 0 0 0-.345-1.614c-.37.08-1.053.167-1.874.26l-.203-1.363c-.161.014-.31.03-.492.05Z" fill="url(#E)"/><path d="M25.57 14.017c-.33.036-.77.085-1.598.155l-.229.018c-1.06.083-2.273.177-2.466 1.345-.2 1.203 1.183 2.142 2.831 1.954.594-.067.874-.095 1.183-.192.242-.077.5-.219.96-.306.916-.102 1.758-.206 2.233-.308a.825.825 0 0 0-.345-1.614c-.37.08-1.053.167-1.874.26l-.203-1.363c-.161.014-.31.03-.492.05Z" fill="url(#F)"/><path d="M25.57 14.017c-.33.036-.77.085-1.598.155l-.229.018c-1.06.083-2.273.177-2.466 1.345-.2 1.203 1.183 2.142 2.831 1.954.594-.067.874-.095 1.183-.192.242-.077.5-.219.96-.306.916-.102 1.758-.206 2.233-.308a.825.825 0 0 0-.345-1.614c-.37.08-1.053.167-1.874.26l-.203-1.363c-.161.014-.31.03-.492.05Z" fill="url(#G)"/></g><path d="M21.015 17.548a.25.25 0 0 1 .25-.25h4.093a.25.25 0 0 1 .25.25v1.64h-4.593v-1.64Z" fill="url(#H)"/><path d="M21.015 17.548a.25.25 0 0 1 .25-.25h4.093a.25.25 0 0 1 .25.25v1.64h-4.593v-1.64Z" fill="url(#I)"/><g filter="url(#J)"><path d="M20.116 19.043a.8.8 0 0 1 .8-.8h4.791a.8.8 0 0 1 .8.8v11.044h-6.39V19.043Z" fill="url(#K)"/><path d="M20.116 19.043a.8.8 0 0 1 .8-.8h4.791a.8.8 0 0 1 .8.8v11.044h-6.39V19.043Z" fill="url(#L)"/><path d="M20.116 19.043a.8.8 0 0 1 .8-.8h4.791a.8.8 0 0 1 .8.8v11.044h-6.39V19.043Z" fill="url(#M)"/><path d="M20.116 19.043a.8.8 0 0 1 .8-.8h4.791a.8.8 0 0 1 .8.8v11.044h-6.39V19.043Z" fill="url(#N)"/></g><g filter="url(#O)"><path d="M23.375 16.42c.984-.047 3.363-.228 5-.578" stroke="url(#P)" stroke-width=".25" stroke-linecap="round"/></g><g filter="url(#Q)"><circle cx="6.351" cy="12.895" r="2.121" fill="url(#R)"/></g><circle cx="6.351" cy="12.895" r="2.121" fill="url(#S)"/><g filter="url(#T)"><circle cx="6.351" cy="12.895" r="1.264" fill="url(#U)"/></g><g filter="url(#V)"><circle cx="18.436" cy="12.895" r="2.121" fill="url(#W)"/><circle cx="18.436" cy="12.895" r="2.121" fill="url(#X)"/></g><g filter="url(#Y)"><circle cx="18.436" cy="12.895" r="1.264" fill="#A57C70"/><circle cx="18.436" cy="12.895" r="1.264" fill="url(#Z)"/><circle cx="18.436" cy="12.895" r="1.264" fill="url(#aa)"/></g><g filter="url(#ab)"><path d="m5.904 12.117.062.002s-.068-1.084-.136-1.83c0-.338.136-.745.409-.948l.204-.203c.34-.271.477-.678.477-1.084V6.97c0-.339.205-.61.545-.678.818-.203 2.522-.542 4.975-.542s4.156.339 4.974.542c.273.068.545.339.545.678v1.084c0 .406.205.813.477 1.084.638.447.598.693.545 1.22-.068.677-.136 1.829-.136 1.829h.023l-.338 5.028c-.204 2.248-1.97 3.815-4.078 3.815h-4.079c-2.175 0-3.874-1.567-4.078-3.815l-.391-5.098Z" fill="url(#ac)"/><path d="m5.904 12.117.062.002s-.068-1.084-.136-1.83c0-.338.136-.745.409-.948l.204-.203c.34-.271.477-.678.477-1.084V6.97c0-.339.205-.61.545-.678.818-.203 2.522-.542 4.975-.542s4.156.339 4.974.542c.273.068.545.339.545.678v1.084c0 .406.205.813.477 1.084.638.447.598.693.545 1.22-.068.677-.136 1.829-.136 1.829h.023l-.338 5.028c-.204 2.248-1.97 3.815-4.078 3.815h-4.079c-2.175 0-3.874-1.567-4.078-3.815l-.391-5.098Z" fill="url(#ad)"/><path d="m5.904 12.117.062.002s-.068-1.084-.136-1.83c0-.338.136-.745.409-.948l.204-.203c.34-.271.477-.678.477-1.084V6.97c0-.339.205-.61.545-.678.818-.203 2.522-.542 4.975-.542s4.156.339 4.974.542c.273.068.545.339.545.678v1.084c0 .406.205.813.477 1.084.638.447.598.693.545 1.22-.068.677-.136 1.829-.136 1.829h.023l-.338 5.028c-.204 2.248-1.97 3.815-4.078 3.815h-4.079c-2.175 0-3.874-1.567-4.078-3.815l-.391-5.098Z" fill="url(#ae)"/></g><path d="M5.83 10.29c0-.339.136-.746.409-.949l.204-.203c.34-.271.477-.678.477-1.084V6.97c0-.339.205-.61.545-.678.818-.203 2.522-.542 4.975-.542s4.156.339 4.974.542c.273.068.545.339.545.678v1.084c0 .406.205.813.477 1.084.638.447.598.693.545 1.22-.068.677-.136 1.829-.136 1.829h.023l-.338 5.028c-.204 2.248-1.97 3.815-4.078 3.815h-4.079c-2.175 0-3.874-1.567-4.078-3.815-.177-2.307-.255-4.622-.465-6.925Z" fill="url(#af)"/><path d="M5.83 10.29c0-.339.136-.746.409-.949l.204-.203c.34-.271.477-.678.477-1.084V6.97c0-.339.205-.61.545-.678.818-.203 2.522-.542 4.975-.542s4.156.339 4.974.542c.273.068.545.339.545.678v1.084c0 .406.205.813.477 1.084.638.447.598.693.545 1.22-.068.677-.136 1.829-.136 1.829h.023l-.338 5.028c-.204 2.248-1.97 3.815-4.078 3.815h-4.079c-2.175 0-3.874-1.567-4.078-3.815-.177-2.307-.255-4.622-.465-6.925Z" fill="url(#ag)"/><path d="M5.83 10.29c0-.339.136-.746.409-.949l.204-.203c.34-.271.477-.678.477-1.084V6.97c0-.339.205-.61.545-.678.818-.203 2.522-.542 4.975-.542s4.156.339 4.974.542c.273.068.545.339.545.678v1.084c0 .406.205.813.477 1.084.638.447.598.693.545 1.22-.068.677-.136 1.829-.136 1.829h.023l-.338 5.028c-.204 2.248-1.97 3.815-4.078 3.815h-4.079c-2.175 0-3.874-1.567-4.078-3.815-.177-2.307-.255-4.622-.465-6.925Z" fill="url(#ah)"/><g filter="url(#ai)"><path d="m17.418 5.75-3.91 1.304a1.33 1.33 0 0 0 .598 2.58l3.887-.52-.575-3.364Z" fill="url(#aj)"/></g><g filter="url(#ak)"><path d="m18.505 4.666.545.271c.954.474 1.499 1.559 1.294 2.71l-.75 3.862c-.066.4-.33.668-.726.678h-.023s.068-1.152.137-1.83c.055-.55-.041-.718-.546-1.22-.272-.27-.477-.677-.477-1.083V6.97c0-.339-.272-.61-.545-.678-.818-.203-2.521-.542-4.974-.542-2.453 0-4.157.339-4.975.542-.34.068-.545.339-.545.678v1.084c0 .406-.136.813-.477 1.084l-.204.203c-.273.203-.41.61-.41.949.069.745.137 1.83.137 1.83l-.062-.003a.805.805 0 0 1-.756-.675l-.75-3.862c-.135-1.084.41-2.169 1.364-2.643l.545-.27c.34-.204.681-.475 1.022-.746l1.227-1.287c.75-.678 1.84-.881 2.794-.407a3.735 3.735 0 0 0 2.112 0c1.022-.339 2.18-.068 2.998.678l1.022 1.016c.273.339.614.542 1.023.745Z" fill="#4F3332"/><path d="m18.505 4.666.545.271c.954.474 1.499 1.559 1.294 2.71l-.75 3.862c-.066.4-.33.668-.726.678h-.023s.068-1.152.137-1.83c.055-.55-.041-.718-.546-1.22-.272-.27-.477-.677-.477-1.083V6.97c0-.339-.272-.61-.545-.678-.818-.203-2.521-.542-4.974-.542-2.453 0-4.157.339-4.975.542-.34.068-.545.339-.545.678v1.084c0 .406-.136.813-.477 1.084l-.204.203c-.273.203-.41.61-.41.949.069.745.137 1.83.137 1.83l-.062-.003a.805.805 0 0 1-.756-.675l-.75-3.862c-.135-1.084.41-2.169 1.364-2.643l.545-.27c.34-.204.681-.475 1.022-.746l1.227-1.287c.75-.678 1.84-.881 2.794-.407a3.735 3.735 0 0 0 2.112 0c1.022-.339 2.18-.068 2.998.678l1.022 1.016c.273.339.614.542 1.023.745Z" fill="url(#al)"/><path d="m18.505 4.666.545.271c.954.474 1.499 1.559 1.294 2.71l-.75 3.862c-.066.4-.33.668-.726.678h-.023s.068-1.152.137-1.83c.055-.55-.041-.718-.546-1.22-.272-.27-.477-.677-.477-1.083V6.97c0-.339-.272-.61-.545-.678-.818-.203-2.521-.542-4.974-.542-2.453 0-4.157.339-4.975.542-.34.068-.545.339-.545.678v1.084c0 .406-.136.813-.477 1.084l-.204.203c-.273.203-.41.61-.41.949.069.745.137 1.83.137 1.83l-.062-.003a.805.805 0 0 1-.756-.675l-.75-3.862c-.135-1.084.41-2.169 1.364-2.643l.545-.27c.34-.204.681-.475 1.022-.746l1.227-1.287c.75-.678 1.84-.881 2.794-.407a3.735 3.735 0 0 0 2.112 0c1.022-.339 2.18-.068 2.998.678l1.022 1.016c.273.339.614.542 1.023.745Z" fill="url(#am)"/><path d="m18.505 4.666.545.271c.954.474 1.499 1.559 1.294 2.71l-.75 3.862c-.066.4-.33.668-.726.678h-.023s.068-1.152.137-1.83c.055-.55-.041-.718-.546-1.22-.272-.27-.477-.677-.477-1.083V6.97c0-.339-.272-.61-.545-.678-.818-.203-2.521-.542-4.974-.542-2.453 0-4.157.339-4.975.542-.34.068-.545.339-.545.678v1.084c0 .406-.136.813-.477 1.084l-.204.203c-.273.203-.41.61-.41.949.069.745.137 1.83.137 1.83l-.062-.003a.805.805 0 0 1-.756-.675l-.75-3.862c-.135-1.084.41-2.169 1.364-2.643l.545-.27c.34-.204.681-.475 1.022-.746l1.227-1.287c.75-.678 1.84-.881 2.794-.407a3.735 3.735 0 0 0 2.112 0c1.022-.339 2.18-.068 2.998.678l1.022 1.016c.273.339.614.542 1.023.745Z" fill="url(#an)"/><path d="m18.505 4.666.545.271c.954.474 1.499 1.559 1.294 2.71l-.75 3.862c-.066.4-.33.668-.726.678h-.023s.068-1.152.137-1.83c.055-.55-.041-.718-.546-1.22-.272-.27-.477-.677-.477-1.083V6.97c0-.339-.272-.61-.545-.678-.818-.203-2.521-.542-4.974-.542-2.453 0-4.157.339-4.975.542-.34.068-.545.339-.545.678v1.084c0 .406-.136.813-.477 1.084l-.204.203c-.273.203-.41.61-.41.949.069.745.137 1.83.137 1.83l-.062-.003a.805.805 0 0 1-.756-.675l-.75-3.862c-.135-1.084.41-2.169 1.364-2.643l.545-.27c.34-.204.681-.475 1.022-.746l1.227-1.287c.75-.678 1.84-.881 2.794-.407a3.735 3.735 0 0 0 2.112 0c1.022-.339 2.18-.068 2.998.678l1.022 1.016c.273.339.614.542 1.023.745Z" fill="url(#ao)"/></g><g filter="url(#ap)"><path d="M12.033 12.74 10.99 14.9c-.13.444.18.888.62.888h.936c.44 0 .75-.451.62-.889l-.633-2.159c-.135-.478-.36-.478-.501 0Z" fill="#87565C"/></g><g filter="url(#aq)"><path d="m11.897 12.533-.675 2.16a.685.685 0 0 0 .661.887h.999a.687.687 0 0 0 .661-.888l-.675-2.159c-.145-.478-.82-.478-.971 0Z" fill="#B7877D"/><path d="m11.897 12.533-.675 2.16a.685.685 0 0 0 .661.887h.999a.687.687 0 0 0 .661-.888l-.675-2.159c-.145-.478-.82-.478-.971 0Z" fill="url(#ar)"/><path d="m11.897 12.533-.675 2.16a.685.685 0 0 0 .661.887h.999a.687.687 0 0 0 .661-.888l-.675-2.159c-.145-.478-.82-.478-.971 0Z" fill="url(#as)"/><path d="m11.897 12.533-.675 2.16a.685.685 0 0 0 .661.887h.999a.687.687 0 0 0 .661-.888l-.675-2.159c-.145-.478-.82-.478-.971 0Z" fill="url(#at)"/><path d="m11.897 12.533-.675 2.16a.685.685 0 0 0 .661.887h.999a.687.687 0 0 0 .661-.888l-.675-2.159c-.145-.478-.82-.478-.971 0Z" fill="url(#au)"/></g><path d="m11.897 12.533-.675 2.16a.685.685 0 0 0 .661.887h.999a.687.687 0 0 0 .661-.888l-.675-2.159c-.145-.478-.82-.478-.971 0Z" fill="url(#av)"/><path d="M10.646 16.41a.244.244 0 0 0-.291.05.224.224 0 0 0-.025.288 2.455 2.455 0 0 0 2.053 1.096c.861 0 1.618-.438 2.052-1.096a.227.227 0 0 0-.025-.29.245.245 0 0 0-.29-.048 3.746 3.746 0 0 1-1.737.412c-.637 0-1.235-.15-1.737-.412Z" fill="#88024E" stroke="url(#aw)" stroke-width=".1"/><g filter="url(#ax)"><path d="m17.108 9.44-.002-.001-.002-.002-.006-.005-.015-.012a1.848 1.848 0 0 0-.197-.137 3.276 3.276 0 0 0-.533-.267 3.599 3.599 0 0 0-1.896-.201.678.678 0 0 0 .211 1.34c.506-.08.91.013 1.187.122a1.93 1.93 0 0 1 .381.202l.01.008a.678.678 0 0 0 .862-1.047Z" fill="#4C3230"/><path d="m17.108 9.44-.002-.001-.002-.002-.006-.005-.015-.012a1.848 1.848 0 0 0-.197-.137 3.276 3.276 0 0 0-.533-.267 3.599 3.599 0 0 0-1.896-.201.678.678 0 0 0 .211 1.34c.506-.08.91.013 1.187.122a1.93 1.93 0 0 1 .381.202l.01.008a.678.678 0 0 0 .862-1.047Z" fill="url(#ay)"/></g><g filter="url(#az)"><path d="m7.589 9.44.002-.001.002-.002.006-.005.015-.012a1.799 1.799 0 0 1 .197-.137c.126-.079.306-.178.533-.267a3.599 3.599 0 0 1 1.896-.201.678.678 0 0 1-.211 1.34c-.506-.08-.91.013-1.186.122a1.932 1.932 0 0 0-.392.21.678.678 0 0 1-.862-1.047Z" fill="#4C3230"/><path d="m7.589 9.44.002-.001.002-.002.006-.005.015-.012a1.799 1.799 0 0 1 .197-.137c.126-.079.306-.178.533-.267a3.599 3.599 0 0 1 1.896-.201.678.678 0 0 1-.211 1.34c-.506-.08-.91.013-1.186.122a1.932 1.932 0 0 0-.392.21.678.678 0 0 1-.862-1.047Z" fill="url(#aA)"/></g><path d="M15.416 11.078c.83 0 1.53.572 1.72 1.345a.348.348 0 0 1-.34.432h-2.833a.292.292 0 0 1-.288-.345 1.775 1.775 0 0 1 1.741-1.432Z" fill="#fff"/><path d="M15.153 11.423a1.134 1.134 0 0 1 1.092 1.432h-2.19a1.138 1.138 0 0 1 1.098-1.432Z" fill="url(#aB)"/><path d="M14.504 12.557c0-.361.289-.65.65-.65a.646.646 0 0 1 .576.948h-1.149a.587.587 0 0 1-.077-.298Z" fill="#000"/><g filter="url(#aC)"><path d="M15.07 11.663c.08.108-.088.24-.28.383-.192.144-.334.245-.415.136-.081-.108.01-.312.201-.455.192-.143.413-.172.494-.064Z" fill="#C7A7A3"/><path d="M15.07 11.663c.08.108-.088.24-.28.383-.192.144-.334.245-.415.136-.081-.108.01-.312.201-.455.192-.143.413-.172.494-.064Z" fill="url(#aD)"/></g><g filter="url(#aE)"><path d="M16.163 12.407a1.066 1.066 0 0 0-.294-.587l-.33.362.149.29.475-.065Z" fill="url(#aF)"/></g><path d="M9.343 11.078c-.83 0-1.53.572-1.721 1.345a.348.348 0 0 0 .34.432h2.834c.18 0 .324-.164.288-.345a1.78 1.78 0 0 0-1.741-1.432Z" fill="#fff"/><path d="M9.605 11.423a1.134 1.134 0 0 0-1.092 1.432h2.19a1.16 1.16 0 0 0 .04-.298 1.141 1.141 0 0 0-1.138-1.134Z" fill="url(#aG)"/><path d="M10.255 12.557c0-.361-.29-.65-.65-.65a.647.647 0 0 0-.577.948h1.15a.644.644 0 0 0 .076-.298Z" fill="#000"/><g filter="url(#aH)"><path d="M10.64 12.424c0-.367-.297-.611-.377-.685l-.367.354.226.46.519-.13Z" fill="url(#aI)"/></g><g filter="url(#aJ)" transform="rotate(-27.914 9.263 11.907)"><ellipse cx="9.263" cy="11.907" rx=".495" ry=".25" fill="#C7A7A3" fill-opacity=".9"/><ellipse cx="9.263" cy="11.907" rx=".495" ry=".25" fill="url(#aK)"/></g><g filter="url(#aL)"><path d="M14.492 9.256c.547-.095 1.612-.068 2.35.506" stroke="url(#aM)" stroke-width=".5" stroke-linecap="round"/></g><g filter="url(#aN)"><path d="M7.861 9.915c.416-.367 1.324-.754 2.449-.575" stroke="url(#aO)" stroke-width=".5" stroke-linecap="round"/></g><g filter="url(#aP)"><path d="M6.624 6.783v1.14c-.01.19-.09.612-.328.79" stroke="url(#aQ)" stroke-width=".25" stroke-linecap="round"/></g><defs><radialGradient id="b" cx="0" cy="0" r="1" gradientUnits="userSpaceOnUse" gradientTransform="rotate(-128.9 17.743 9.605) scale(14.3752 17.7454)"><stop offset=".195" stop-color="#3DA2EF"/><stop offset="1" stop-color="#3DA2EF" stop-opacity="0"/></radialGradient><radialGradient id="c" cx="0" cy="0" r="1" gradientUnits="userSpaceOnUse" gradientTransform="rotate(80.311 -5.866 15.826) scale(6.49895 15.3845)"><stop offset=".302" stop-color="#13669B"/><stop offset="1" stop-color="#2094E3" stop-opacity="0"/><stop offset="1" stop-color="#13669B" stop-opacity="0"/></radialGradient><radialGradient id="d" cx="0" cy="0" r="1" gradientUnits="userSpaceOnUse" gradientTransform="rotate(-120.904 18.925 8.746) scale(9.57741 4.6091)"><stop offset=".27" stop-color="#0355AD"/><stop offset="1" stop-color="#2770BB" stop-opacity="0"/></radialGradient><radialGradient id="e" cx="0" cy="0" r="1" gradientUnits="userSpaceOnUse" gradientTransform="matrix(0 3.21875 -4.41943 0 12.394 20.633)"><stop offset=".32" stop-color="#855169"/><stop offset="1" stop-color="#7B585C"/></radialGradient><radialGradient id="f" cx="0" cy="0" r="1" gradientUnits="userSpaceOnUse" gradientTransform="matrix(2.03125 4.378 -5.06565 2.3503 11.38 20.349)"><stop offset=".527" stop-color="#907374" stop-opacity="0"/><stop offset=".914" stop-color="#907374"/></radialGradient><radialGradient id="h" cx="0" cy="0" r="1" gradientUnits="userSpaceOnUse" gradientTransform="rotate(173.116 12.151 9.16) scale(.49483 .58088)"><stop stop-color="#CBA68F"/><stop offset="1" stop-color="#CBA68F" stop-opacity="0"/></radialGradient><radialGradient id="i" cx="0" cy="0" r="1" gradientUnits="userSpaceOnUse" gradientTransform="matrix(.00796 .06217 -.74977 .09602 24.356 16.492)"><stop stop-color="#AB876C"/><stop offset="1" stop-color="#886658" stop-opacity="0"/><stop offset="1" stop-color="#AB876C" stop-opacity="0"/></radialGradient><radialGradient id="k" cx="0" cy="0" r="1" gradientUnits="userSpaceOnUse" gradientTransform="matrix(-1.42187 1.4375 -.43294 -.42823 24.034 13.063)"><stop stop-color="#C29E83"/><stop offset="1" stop-color="#AB866A"/></radialGradient><radialGradient id="l" cx="0" cy="0" r="1" gradientUnits="userSpaceOnUse" gradientTransform="matrix(-.37263 .08503 -.18186 -.797 24.345 14.189)"><stop stop-color="#CBA68F"/><stop offset="1" stop-color="#CBA68F" stop-opacity="0"/></radialGradient><radialGradient id="m" cx="0" cy="0" r="1" gradientUnits="userSpaceOnUse" gradientTransform="matrix(1.12934 .73823 -1.10747 1.6942 21.148 13.79)"><stop stop-color="#956F58"/><stop offset="1" stop-color="#956F58" stop-opacity="0"/></radialGradient><radialGradient id="o" cx="0" cy="0" r="1" gradientUnits="userSpaceOnUse" gradientTransform="matrix(-.58754 .06566 -.07147 -.63952 29.686 14.595)"><stop stop-color="#CBA68F"/><stop offset="1" stop-color="#CBA68F" stop-opacity="0"/></radialGradient><radialGradient id="p" cx="0" cy="0" r="1" gradientUnits="userSpaceOnUse" gradientTransform="matrix(.07825 .46522 -6.05348 1.01824 28.297 13.318)"><stop stop-color="#AB876C"/><stop offset="1" stop-color="#886658" stop-opacity="0"/><stop offset="1" stop-color="#AB876C" stop-opacity="0"/></radialGradient><radialGradient id="q" cx="0" cy="0" r="1" gradientUnits="userSpaceOnUse" gradientTransform="matrix(1.78068 .57009 -.54226 1.69375 24.647 14.287)"><stop stop-color="#956F58"/><stop offset="1" stop-color="#956F58" stop-opacity="0"/></radialGradient><radialGradient id="s" cx="0" cy="0" r="1" gradientUnits="userSpaceOnUse" gradientTransform="matrix(-.58467 .06405 -.06838 -.62413 30.264 14.895)"><stop stop-color="#CBA68F"/><stop offset="1" stop-color="#CBA68F" stop-opacity="0"/></radialGradient><radialGradient id="t" cx="0" cy="0" r="1" gradientUnits="userSpaceOnUse" gradientTransform="matrix(.07787 .4538 -6.0172 1.03254 28.882 13.65)"><stop stop-color="#AB876C"/><stop offset="1" stop-color="#886658" stop-opacity="0"/><stop offset="1" stop-color="#AB876C" stop-opacity="0"/></radialGradient><radialGradient id="u" cx="0" cy="0" r="1" gradientUnits="userSpaceOnUse" gradientTransform="matrix(1.77198 .5561 -.5204 1.65823 25.25 14.595)"><stop stop-color="#956F58"/><stop offset="1" stop-color="#956F58" stop-opacity="0"/></radialGradient><radialGradient id="w" cx="0" cy="0" r="1" gradientUnits="userSpaceOnUse" gradientTransform="matrix(-.58658 .06175 -.0634 -.60226 29.983 15.34)"><stop stop-color="#CBA68F"/><stop offset="1" stop-color="#CBA68F" stop-opacity="0"/></radialGradient><radialGradient id="x" cx="0" cy="0" r="1" gradientUnits="userSpaceOnUse" gradientTransform="matrix(.07813 .4375 -6.0225 1.07545 28.596 14.14)"><stop stop-color="#AB876C"/><stop offset="1" stop-color="#886658" stop-opacity="0"/><stop offset="1" stop-color="#AB876C" stop-opacity="0"/></radialGradient><radialGradient id="y" cx="0" cy="0" r="1" gradientUnits="userSpaceOnUse" gradientTransform="matrix(1.77775 .53612 -.48544 1.6097 24.952 15.051)"><stop stop-color="#956F58"/><stop offset="1" stop-color="#956F58" stop-opacity="0"/></radialGradient><radialGradient id="A" cx="0" cy="0" r="1" gradientUnits="userSpaceOnUse" gradientTransform="rotate(169.423 13.843 9.188) scale(.90027 1.06791)"><stop stop-color="#FFDC47"/><stop offset="1" stop-color="#FFDC47" stop-opacity="0"/></radialGradient><radialGradient id="B" cx="0" cy="0" r="1" gradientUnits="userSpaceOnUse" gradientTransform="rotate(81.573 4.84 23.437) scale(.21324 1.76543)"><stop offset=".382" stop-color="#E4B833"/><stop offset="1" stop-color="#E4B833" stop-opacity="0"/></radialGradient><radialGradient id="E" cx="0" cy="0" r="1" gradientUnits="userSpaceOnUse" gradientTransform="matrix(-.96409 .10438 -.11015 -1.0174 29.216 15.74)"><stop stop-color="#CBA68F"/><stop offset="1" stop-color="#CBA68F" stop-opacity="0"/></radialGradient><radialGradient id="F" cx="0" cy="0" r="1" gradientUnits="userSpaceOnUse" gradientTransform="matrix(.01563 .10937 -1.46562 .20938 27.337 15.203)"><stop stop-color="#AB876C"/><stop offset="1" stop-color="#886658" stop-opacity="0"/><stop offset="1" stop-color="#AB876C" stop-opacity="0"/></radialGradient><radialGradient id="G" cx="0" cy="0" r="1" gradientUnits="userSpaceOnUse" gradientTransform="matrix(2.92188 .90625 -.8399 2.70799 20.947 15.25)"><stop stop-color="#956F58"/><stop offset="1" stop-color="#956F58" stop-opacity="0"/></radialGradient><radialGradient id="H" cx="0" cy="0" r="1" gradientUnits="userSpaceOnUse" gradientTransform="matrix(0 1.05458 -2.63643 0 24.104 17.387)"><stop offset=".09" stop-color="#4A9FE0"/><stop offset="1" stop-color="#4084B3"/></radialGradient><radialGradient id="M" cx="0" cy="0" r="1" gradientUnits="userSpaceOnUse" gradientTransform="matrix(-2.1875 0 0 -.57813 24.721 19.227)"><stop stop-color="#4BB5FD"/><stop offset="1" stop-color="#4BB5FD" stop-opacity="0"/></radialGradient><radialGradient id="R" cx="0" cy="0" r="1" gradientUnits="userSpaceOnUse" gradientTransform="matrix(2.22935 0 0 3.90139 4.23 12.895)"><stop offset=".351" stop-color="#865D5F"/><stop offset="1" stop-color="#76594A"/></radialGradient><radialGradient id="S" cx="0" cy="0" r="1" gradientUnits="userSpaceOnUse" gradientTransform="rotate(-124.98 7.086 5.854) scale(2.1047)"><stop offset=".34" stop-color="#834E63"/><stop offset="1" stop-color="#834E63" stop-opacity="0"/></radialGradient><radialGradient id="X" cx="0" cy="0" r="1" gradientUnits="userSpaceOnUse" gradientTransform="matrix(1.05023 -.76473 .87284 1.1987 18.91 12.559)"><stop offset=".543" stop-color="#8F6459"/><stop offset="1" stop-color="#8F6459" stop-opacity="0"/></radialGradient><radialGradient id="Z" cx="0" cy="0" r="1" gradientUnits="userSpaceOnUse" gradientTransform="rotate(-61.467 20.914 -8.491) scale(2.18424 1.27844)"><stop offset=".755" stop-color="#8A5D55" stop-opacity="0"/><stop offset=".916" stop-color="#8A5D55"/></radialGradient><radialGradient id="aa" cx="0" cy="0" r="1" gradientUnits="userSpaceOnUse" gradientTransform="rotate(44.708 -6.46 28.864) scale(.46348 .59749)"><stop stop-color="#895F52"/><stop offset="1" stop-color="#895F52" stop-opacity="0"/></radialGradient><radialGradient id="ad" cx="0" cy="0" r="1" gradientUnits="userSpaceOnUse" gradientTransform="matrix(0 -1.6605 2.04368 0 15.363 11.28)"><stop stop-color="#AB7773"/><stop offset="1" stop-color="#AB7773" stop-opacity="0"/></radialGradient><radialGradient id="ae" cx="0" cy="0" r="1" gradientUnits="userSpaceOnUse" gradientTransform="matrix(0 -1.74565 2.17087 0 9.572 11.45)"><stop stop-color="#8F5D65"/><stop offset="1" stop-color="#8F5D65" stop-opacity="0"/></radialGradient><radialGradient id="ah" cx="0" cy="0" r="1" gradientUnits="userSpaceOnUse" gradientTransform="matrix(0 10.5803 -13.1136 0 12.22 10.947)"><stop offset=".608" stop-color="#9B7168" stop-opacity="0"/><stop offset=".884" stop-color="#8F5D78"/><stop offset="1" stop-color="#7C5267"/></radialGradient><radialGradient id="al" cx="0" cy="0" r="1" gradientUnits="userSpaceOnUse" gradientTransform="matrix(1.01354 -3.75605 1.39286 .37585 17.903 7.679)"><stop stop-color="#554042"/><stop offset="1" stop-color="#554042" stop-opacity="0"/></radialGradient><radialGradient id="am" cx="0" cy="0" r="1" gradientUnits="userSpaceOnUse" gradientTransform="matrix(4.859 .44715 -.24043 2.61266 15.816 5.443)"><stop offset=".122" stop-color="#644949"/><stop offset="1" stop-color="#644949" stop-opacity="0"/></radialGradient><radialGradient id="an" cx="0" cy="0" r="1" gradientUnits="userSpaceOnUse" gradientTransform="matrix(0 2.1332 -3.30372 0 12.383 1.969)"><stop stop-color="#624C49"/><stop offset="1" stop-color="#624C49" stop-opacity="0"/></radialGradient><radialGradient id="ao" cx="0" cy="0" r="1" gradientUnits="userSpaceOnUse" gradientTransform="matrix(3.9051 -2.86175 4.48342 6.118 4.19 10.63)"><stop stop-color="#4E3C3A"/><stop offset="1" stop-color="#4E3C3A" stop-opacity="0"/></radialGradient><radialGradient id="au" cx="0" cy="0" r="1" gradientUnits="userSpaceOnUse" gradientTransform="matrix(0 .25014 -.80364 0 12.798 14.936)"><stop stop-color="#C39787"/><stop offset="1" stop-color="#C39787" stop-opacity="0"/></radialGradient><radialGradient id="ay" cx="0" cy="0" r="1" gradientUnits="userSpaceOnUse" gradientTransform="matrix(.13237 -.76638 2.26728 .3916 15.486 10.248)"><stop stop-color="#422235"/><stop offset="1" stop-color="#422235" stop-opacity="0"/></radialGradient><radialGradient id="aA" cx="0" cy="0" r="1" gradientUnits="userSpaceOnUse" gradientTransform="rotate(-80.2 10.558 -.188) scale(.77773 2.30097)"><stop stop-color="#422235"/><stop offset="1" stop-color="#422235" stop-opacity="0"/></radialGradient><radialGradient id="aB" cx="0" cy="0" r="1" gradientUnits="userSpaceOnUse" gradientTransform="matrix(0 1.03045 -1.63905 0 15.15 12.029)"><stop offset=".802" stop-color="#7D574A"/><stop offset="1" stop-color="#694B43"/><stop offset="1" stop-color="#804D49"/><stop offset="1" stop-color="#664944"/></radialGradient><radialGradient id="aD" cx="0" cy="0" r="1" gradientUnits="userSpaceOnUse" gradientTransform="rotate(-127.812 10.402 2.429) scale(.48046 .66148)"><stop offset=".766" stop-color="#FFE6E2" stop-opacity="0"/><stop offset=".966" stop-color="#FFE6E2"/></radialGradient><radialGradient id="aG" cx="0" cy="0" r="1" gradientUnits="userSpaceOnUse" gradientTransform="matrix(0 1.0305 -1.63913 0 9.608 12.029)"><stop offset=".802" stop-color="#7D574A"/><stop offset="1" stop-color="#694B43"/><stop offset="1" stop-color="#804D49"/><stop offset="1" stop-color="#664944"/></radialGradient><radialGradient id="aK" cx="0" cy="0" r="1" gradientUnits="userSpaceOnUse" gradientTransform="matrix(-.00983 -.62753 .75432 -.01181 9.244 12.307)"><stop offset=".766" stop-color="#FFE6E2" stop-opacity="0"/><stop offset=".966" stop-color="#FFE6E2"/></radialGradient><filter id="g" x="21.258" y="15.489" width="4.015" height="2.316" filterUnits="userSpaceOnUse" color-interpolation-filters="sRGB"><feFlood flood-opacity="0" result="BackgroundImageFix"/><feBlend in="SourceGraphic" in2="BackgroundImageFix" result="shape"/><feColorMatrix in="SourceAlpha" values="0 0 0 0 0 0 0 0 0 0 0 0 0 0 0 0 0 0 127 0" result="hardAlpha"/><feOffset dy="-.3"/><feGaussianBlur stdDeviation=".3"/><feComposite in2="hardAlpha" operator="arithmetic" k2="-1" k3="1"/><feColorMatrix values="0 0 0 0 0.623529 0 0 0 0 0.376471 0 0 0 0 0.439216 0 0 0 1 0"/><feBlend in2="shape" result="effect1_innerShadow_4002_3797"/></filter><filter id="j" x="21.269" y="12.444" width="3.045" height="3.19" filterUnits="userSpaceOnUse" color-interpolation-filters="sRGB"><feFlood flood-opacity="0" result="BackgroundImageFix"/><feBlend in="SourceGraphic" in2="BackgroundImageFix" result="shape"/><feColorMatrix in="SourceAlpha" values="0 0 0 0 0 0 0 0 0 0 0 0 0 0 0 0 0 0 127 0" result="hardAlpha"/><feOffset dy="-.3"/><feGaussianBlur stdDeviation=".3"/><feComposite in2="hardAlpha" operator="arithmetic" k2="-1" k3="1"/><feColorMatrix values="0 0 0 0 0.623529 0 0 0 0 0.376471 0 0 0 0 0.439216 0 0 0 1 0"/><feBlend in2="shape" result="effect1_innerShadow_4002_3797"/></filter><filter id="n" x="24.837" y="13.179" width="4.802" height="2.532" filterUnits="userSpaceOnUse" color-interpolation-filters="sRGB"><feFlood flood-opacity="0" result="BackgroundImageFix"/><feBlend in="SourceGraphic" in2="BackgroundImageFix" result="shape"/><feColorMatrix in="SourceAlpha" values="0 0 0 0 0 0 0 0 0 0 0 0 0 0 0 0 0 0 127 0" result="hardAlpha"/><feOffset dy="-.3"/><feGaussianBlur stdDeviation=".3"/><feComposite in2="hardAlpha" operator="arithmetic" k2="-1" k3="1"/><feColorMatrix values="0 0 0 0 0.623529 0 0 0 0 0.376471 0 0 0 0 0.439216 0 0 0 1 0"/><feBlend in2="shape" result="effect1_innerShadow_4002_3797"/></filter><filter id="r" x="25.438" y="13.507" width="4.778" height="2.477" filterUnits="userSpaceOnUse" color-interpolation-filters="sRGB"><feFlood flood-opacity="0" result="BackgroundImageFix"/><feBlend in="SourceGraphic" in2="BackgroundImageFix" result="shape"/><feColorMatrix in="SourceAlpha" values="0 0 0 0 0 0 0 0 0 0 0 0 0 0 0 0 0 0 127 0" result="hardAlpha"/><feOffset dy="-.3"/><feGaussianBlur stdDeviation=".3"/><feComposite in2="hardAlpha" operator="arithmetic" k2="-1" k3="1"/><feColorMatrix values="0 0 0 0 0.623529 0 0 0 0 0.376471 0 0 0 0 0.439216 0 0 0 1 0"/><feBlend in2="shape" result="effect1_innerShadow_4002_3797"/></filter><filter id="v" x="25.141" y="13.992" width="4.794" height="2.399" filterUnits="userSpaceOnUse" color-interpolation-filters="sRGB"><feFlood flood-opacity="0" result="BackgroundImageFix"/><feBlend in="SourceGraphic" in2="BackgroundImageFix" result="shape"/><feColorMatrix in="SourceAlpha" values="0 0 0 0 0 0 0 0 0 0 0 0 0 0 0 0 0 0 127 0" result="hardAlpha"/><feOffset dy="-.3"/><feGaussianBlur stdDeviation=".3"/><feComposite in2="hardAlpha" operator="arithmetic" k2="-1" k3="1"/><feColorMatrix values="0 0 0 0 0.623529 0 0 0 0 0.376471 0 0 0 0 0.439216 0 0 0 1 0"/><feBlend in2="shape" result="effect1_innerShadow_4002_3797"/></filter><filter id="z" x="21.258" y="13.666" width="7.879" height="3.847" filterUnits="userSpaceOnUse" color-interpolation-filters="sRGB"><feFlood flood-opacity="0" result="BackgroundImageFix"/><feBlend in="SourceGraphic" in2="BackgroundImageFix" result="shape"/><feColorMatrix in="SourceAlpha" values="0 0 0 0 0 0 0 0 0 0 0 0 0 0 0 0 0 0 127 0" result="hardAlpha"/><feOffset dy="-.3"/><feGaussianBlur stdDeviation=".3"/><feComposite in2="hardAlpha" operator="arithmetic" k2="-1" k3="1"/><feColorMatrix values="0 0 0 0 0.933333 0 0 0 0 0.603922 0 0 0 0 0.0941176 0 0 0 1 0"/><feBlend in2="shape" result="effect1_innerShadow_4002_3797"/></filter><filter id="D" x="21.258" y="13.666" width="7.879" height="3.847" filterUnits="userSpaceOnUse" color-interpolation-filters="sRGB"><feFlood flood-opacity="0" result="BackgroundImageFix"/><feBlend in="SourceGraphic" in2="BackgroundImageFix" result="shape"/><feColorMatrix in="SourceAlpha" values="0 0 0 0 0 0 0 0 0 0 0 0 0 0 0 0 0 0 127 0" result="hardAlpha"/><feOffset dy="-.3"/><feGaussianBlur stdDeviation=".3"/><feComposite in2="hardAlpha" operator="arithmetic" k2="-1" k3="1"/><feColorMatrix values="0 0 0 0 0.623529 0 0 0 0 0.376471 0 0 0 0 0.439216 0 0 0 1 0"/><feBlend in2="shape" result="effect1_innerShadow_4002_3797"/></filter><filter id="J" x="20.116" y="18.243" width="6.491" height="11.844" filterUnits="userSpaceOnUse" color-interpolation-filters="sRGB"><feFlood flood-opacity="0" result="BackgroundImageFix"/><feBlend in="SourceGraphic" in2="BackgroundImageFix" result="shape"/><feColorMatrix in="SourceAlpha" values="0 0 0 0 0 0 0 0 0 0 0 0 0 0 0 0 0 0 127 0" result="hardAlpha"/><feOffset dx=".1"/><feGaussianBlur stdDeviation=".25"/><feComposite in2="hardAlpha" operator="arithmetic" k2="-1" k3="1"/><feColorMatrix values="0 0 0 0 0.211765 0 0 0 0 0.482353 0 0 0 0 0.713726 0 0 0 1 0"/><feBlend in2="shape" result="effect1_innerShadow_4002_3797"/></filter><filter id="O" x="23" y="15.467" width="5.75" height="1.328" filterUnits="userSpaceOnUse" color-interpolation-filters="sRGB"><feFlood flood-opacity="0" result="BackgroundImageFix"/><feBlend in="SourceGraphic" in2="BackgroundImageFix" result="shape"/><feGaussianBlur stdDeviation=".125" result="effect1_foregroundBlur_4002_3797"/></filter><filter id="Q" x="4.23" y="10.774" width="4.442" height="4.242" filterUnits="userSpaceOnUse" color-interpolation-filters="sRGB"><feFlood flood-opacity="0" result="BackgroundImageFix"/><feBlend in="SourceGraphic" in2="BackgroundImageFix" result="shape"/><feColorMatrix in="SourceAlpha" values="0 0 0 0 0 0 0 0 0 0 0 0 0 0 0 0 0 0 127 0" result="hardAlpha"/><feOffset dx=".2"/><feGaussianBlur stdDeviation=".15"/><feComposite in2="hardAlpha" operator="arithmetic" k2="-1" k3="1"/><feColorMatrix values="0 0 0 0 0.619608 0 0 0 0 0.470588 0 0 0 0 0.407843 0 0 0 1 0"/><feBlend in2="shape" result="effect1_innerShadow_4002_3797"/></filter><filter id="T" x="4.587" y="11.131" width="3.528" height="3.528" filterUnits="userSpaceOnUse" color-interpolation-filters="sRGB"><feFlood flood-opacity="0" result="BackgroundImageFix"/><feBlend in="SourceGraphic" in2="BackgroundImageFix" result="shape"/><feGaussianBlur stdDeviation=".25" result="effect1_foregroundBlur_4002_3797"/></filter><filter id="V" x="16.316" y="10.524" width="4.492" height="4.492" filterUnits="userSpaceOnUse" color-interpolation-filters="sRGB"><feFlood flood-opacity="0" result="BackgroundImageFix"/><feBlend in="SourceGraphic" in2="BackgroundImageFix" result="shape"/><feColorMatrix in="SourceAlpha" values="0 0 0 0 0 0 0 0 0 0 0 0 0 0 0 0 0 0 127 0" result="hardAlpha"/><feOffset dx=".25" dy="-.25"/><feGaussianBlur stdDeviation=".25"/><feComposite in2="hardAlpha" operator="arithmetic" k2="-1" k3="1"/><feColorMatrix values="0 0 0 0 0.584314 0 0 0 0 0.368627 0 0 0 0 0.470588 0 0 0 1 0"/><feBlend in2="shape" result="effect1_innerShadow_4002_3797"/></filter><filter id="Y" x="16.672" y="11.131" width="3.528" height="3.528" filterUnits="userSpaceOnUse" color-interpolation-filters="sRGB"><feFlood flood-opacity="0" result="BackgroundImageFix"/><feBlend in="SourceGraphic" in2="BackgroundImageFix" result="shape"/><feGaussianBlur stdDeviation=".25" result="effect1_foregroundBlur_4002_3797"/></filter><filter id="ab" x="5.83" y="5.75" width="13.179" height="15.53" filterUnits="userSpaceOnUse" color-interpolation-filters="sRGB"><feFlood flood-opacity="0" result="BackgroundImageFix"/><feBlend in="SourceGraphic" in2="BackgroundImageFix" result="shape"/><feColorMatrix in="SourceAlpha" values="0 0 0 0 0 0 0 0 0 0 0 0 0 0 0 0 0 0 127 0" result="hardAlpha"/><feOffset dy=".25"/><feGaussianBlur stdDeviation=".375"/><feComposite in2="hardAlpha" operator="arithmetic" k2="-1" k3="1"/><feColorMatrix values="0 0 0 0 0.305882 0 0 0 0 0.2 0 0 0 0 0.172549 0 0 0 1 0"/><feBlend in2="shape" result="effect1_innerShadow_4002_3797"/></filter><filter id="ai" x="10.598" y="3.75" width="9.394" height="7.896" filterUnits="userSpaceOnUse" color-interpolation-filters="sRGB"><feFlood flood-opacity="0" result="BackgroundImageFix"/><feBlend in="SourceGraphic" in2="BackgroundImageFix" result="shape"/><feGaussianBlur stdDeviation="1" result="effect1_foregroundBlur_4002_3797"/></filter><filter id="ak" x="4.378" y="1.469" width="16.009" height="10.718" filterUnits="userSpaceOnUse" color-interpolation-filters="sRGB"><feFlood flood-opacity="0" result="BackgroundImageFix"/><feBlend in="SourceGraphic" in2="BackgroundImageFix" result="shape"/><feColorMatrix in="SourceAlpha" values="0 0 0 0 0 0 0 0 0 0 0 0 0 0 0 0 0 0 127 0" result="hardAlpha"/><feOffset dy="-.5"/><feGaussianBlur stdDeviation=".375"/><feComposite in2="hardAlpha" operator="arithmetic" k2="-1" k3="1"/><feColorMatrix values="0 0 0 0 0.207843 0 0 0 0 0.109804 0 0 0 0 0.109804 0 0 0 1 0"/><feBlend in2="shape" result="effect1_innerShadow_4002_3797"/></filter><filter id="ap" x="10.211" y="11.632" width="3.736" height="4.906" filterUnits="userSpaceOnUse" color-interpolation-filters="sRGB"><feFlood flood-opacity="0" result="BackgroundImageFix"/><feBlend in="SourceGraphic" in2="BackgroundImageFix" result="shape"/><feGaussianBlur stdDeviation=".375" result="effect1_foregroundBlur_4002_3797"/></filter><filter id="aq" x="10.94" y="11.924" width="2.884" height="3.906" filterUnits="userSpaceOnUse" color-interpolation-filters="sRGB"><feFlood flood-opacity="0" result="BackgroundImageFix"/><feBlend in="SourceGraphic" in2="BackgroundImageFix" result="shape"/><feGaussianBlur stdDeviation=".125" result="effect1_foregroundBlur_4002_3797"/></filter><filter id="ax" x="13.884" y="8.368" width="3.718" height="2.271" filterUnits="userSpaceOnUse" color-interpolation-filters="sRGB"><feFlood flood-opacity="0" result="BackgroundImageFix"/><feBlend in="SourceGraphic" in2="BackgroundImageFix" result="shape"/><feColorMatrix in="SourceAlpha" values="0 0 0 0 0 0 0 0 0 0 0 0 0 0 0 0 0 0 127 0" result="hardAlpha"/><feOffset dx=".25" dy="-.4"/><feGaussianBlur stdDeviation=".3"/><feComposite in2="hardAlpha" operator="arithmetic" k2="-1" k3="1"/><feColorMatrix values="0 0 0 0 0.254902 0 0 0 0 0.156863 0 0 0 0 0.152941 0 0 0 1 0"/><feBlend in2="shape" result="effect1_innerShadow_4002_3797"/></filter><filter id="az" x="7.345" y="8.368" width="3.718" height="2.271" filterUnits="userSpaceOnUse" color-interpolation-filters="sRGB"><feFlood flood-opacity="0" result="BackgroundImageFix"/><feBlend in="SourceGraphic" in2="BackgroundImageFix" result="shape"/><feColorMatrix in="SourceAlpha" values="0 0 0 0 0 0 0 0 0 0 0 0 0 0 0 0 0 0 127 0" result="hardAlpha"/><feOffset dx=".25" dy="-.4"/><feGaussianBlur stdDeviation=".3"/><feComposite in2="hardAlpha" operator="arithmetic" k2="-1" k3="1"/><feColorMatrix values="0 0 0 0 0.254902 0 0 0 0 0.156863 0 0 0 0 0.152941 0 0 0 1 0"/><feBlend in2="shape" result="effect1_innerShadow_4002_3797"/></filter><filter id="aC" x="14.245" y="11.497" width=".945" height=".83" filterUnits="userSpaceOnUse" color-interpolation-filters="sRGB"><feFlood flood-opacity="0" result="BackgroundImageFix"/><feBlend in="SourceGraphic" in2="BackgroundImageFix" result="shape"/><feGaussianBlur stdDeviation=".05" result="effect1_foregroundBlur_4002_3797"/></filter><filter id="aE" x="15.339" y="11.62" width="1.024" height="1.052" filterUnits="userSpaceOnUse" color-interpolation-filters="sRGB"><feFlood flood-opacity="0" result="BackgroundImageFix"/><feBlend in="SourceGraphic" in2="BackgroundImageFix" result="shape"/><feGaussianBlur stdDeviation=".1" result="effect1_foregroundBlur_4002_3797"/></filter><filter id="aH" x="9.696" y="11.539" width="1.145" height="1.213" filterUnits="userSpaceOnUse" color-interpolation-filters="sRGB"><feFlood flood-opacity="0" result="BackgroundImageFix"/><feBlend in="SourceGraphic" in2="BackgroundImageFix" result="shape"/><feGaussianBlur stdDeviation=".1" result="effect1_foregroundBlur_4002_3797"/></filter><filter id="aJ" x="8.71" y="11.487" width="1.106" height=".841" filterUnits="userSpaceOnUse" color-interpolation-filters="sRGB"><feFlood flood-opacity="0" result="BackgroundImageFix"/><feBlend in="SourceGraphic" in2="BackgroundImageFix" result="shape"/><feGaussianBlur stdDeviation=".05" result="effect1_foregroundBlur_4002_3797"/></filter><filter id="aL" x="13.742" y="8.464" width="3.849" height="2.048" filterUnits="userSpaceOnUse" color-interpolation-filters="sRGB"><feFlood flood-opacity="0" result="BackgroundImageFix"/><feBlend in="SourceGraphic" in2="BackgroundImageFix" result="shape"/><feGaussianBlur stdDeviation=".25" result="effect1_foregroundBlur_4002_3797"/></filter><filter id="aN" x="7.111" y="8.545" width="3.948" height="2.12" filterUnits="userSpaceOnUse" color-interpolation-filters="sRGB"><feFlood flood-opacity="0" result="BackgroundImageFix"/><feBlend in="SourceGraphic" in2="BackgroundImageFix" result="shape"/><feGaussianBlur stdDeviation=".25" result="effect1_foregroundBlur_4002_3797"/></filter><filter id="aP" x="5.921" y="6.408" width="1.078" height="2.68" filterUnits="userSpaceOnUse" color-interpolation-filters="sRGB"><feFlood flood-opacity="0" result="BackgroundImageFix"/><feBlend in="SourceGraphic" in2="BackgroundImageFix" result="shape"/><feGaussianBlur stdDeviation=".125" result="effect1_foregroundBlur_4002_3797"/></filter><linearGradient id="a" x1="12.382" y1="30.602" x2="12.382" y2="25.695" gradientUnits="userSpaceOnUse"><stop stop-color="#2499EA"/><stop offset="1" stop-color="#1388C7"/></linearGradient><linearGradient id="C" x1="24.588" y1="16.84" x2="26.182" y2="16.527" gradientUnits="userSpaceOnUse"><stop offset=".585" stop-color="#FFCA38"/><stop offset="1" stop-color="#FFCA38" stop-opacity="0"/></linearGradient><linearGradient id="I" x1="23.483" y1="18.338" x2="23.483" y2="18.164" gradientUnits="userSpaceOnUse"><stop offset=".316" stop-color="#327AA5"/><stop offset="1" stop-color="#327AA5" stop-opacity="0"/></linearGradient><linearGradient id="K" x1="24.354" y1="19.402" x2="24.354" y2="38.715" gradientUnits="userSpaceOnUse"><stop stop-color="#2E9FED"/><stop offset=".621" stop-color="#1F98E9"/></linearGradient><linearGradient id="L" x1="27.768" y1="28.93" x2="22.341" y2="28.93" gradientUnits="userSpaceOnUse"><stop stop-color="#4AB6FE" stop-opacity="0"/><stop offset=".458" stop-color="#4AB6FE"/><stop offset="1" stop-color="#4AB6FE" stop-opacity="0"/></linearGradient><linearGradient id="N" x1="23.312" y1="18.243" x2="23.312" y2="19.277" gradientUnits="userSpaceOnUse"><stop offset=".366" stop-color="#20A5E9"/><stop offset="1" stop-color="#20A5E9" stop-opacity="0"/></linearGradient><linearGradient id="P" x1="28.027" y1="15.842" x2="23.189" y2="16.394" gradientUnits="userSpaceOnUse"><stop stop-color="#C9A38D"/><stop offset="1" stop-color="#C9A38D" stop-opacity="0"/></linearGradient><linearGradient id="U" x1="6.351" y1="13.249" x2="5.537" y2="13.249" gradientUnits="userSpaceOnUse"><stop stop-color="#694448"/><stop offset="1" stop-color="#6E464D"/></linearGradient><linearGradient id="W" x1="19.817" y1="11.509" x2="18.777" y2="14.731" gradientUnits="userSpaceOnUse"><stop stop-color="#CCA68C"/><stop offset="1" stop-color="#AE7F75"/></linearGradient><linearGradient id="ac" x1="17.51" y1="13.39" x2="7.808" y2="14.836" gradientUnits="userSpaceOnUse"><stop stop-color="#C69980"/><stop offset="1" stop-color="#916762"/></linearGradient><linearGradient id="af" x1="5.528" y1="16.815" x2="7.918" y2="16.73" gradientUnits="userSpaceOnUse"><stop stop-color="#9B7569"/><stop offset="1" stop-color="#9B7569" stop-opacity="0"/></linearGradient><linearGradient id="ag" x1="18.634" y1="15.746" x2="17.221" y2="15.623" gradientUnits="userSpaceOnUse"><stop stop-color="#C1987F"/><stop offset="1" stop-color="#C1987F" stop-opacity="0"/></linearGradient><linearGradient id="aj" x1="11.707" y1="9.598" x2="22.053" y2="5.894" gradientUnits="userSpaceOnUse"><stop stop-color="#C89F8B"/><stop offset="1" stop-color="#C89F8B" stop-opacity="0"/></linearGradient><linearGradient id="ar" x1="11.285" y1="14.228" x2="12.477" y2="14.228" gradientUnits="userSpaceOnUse"><stop stop-color="#8B6455"/><stop offset="1" stop-color="#8B6455" stop-opacity="0"/></linearGradient><linearGradient id="as" x1="13.575" y1="14.637" x2="12.272" y2="14.619" gradientUnits="userSpaceOnUse"><stop stop-color="#CDA186"/><stop offset="1" stop-color="#CDA186" stop-opacity="0"/></linearGradient><linearGradient id="at" x1="12.63" y1="15.58" x2="12.63" y2="14.852" gradientUnits="userSpaceOnUse"><stop stop-color="#9C6073"/><stop offset="1" stop-color="#9C6073" stop-opacity="0"/></linearGradient><linearGradient id="av" x1="12.542" y1="15.634" x2="12.542" y2="15.421" gradientUnits="userSpaceOnUse"><stop stop-color="#8E5263"/><stop offset="1" stop-color="#8E5263" stop-opacity="0"/></linearGradient><linearGradient id="aw" x1="11.065" y1="17.632" x2="11.618" y2="16.759" gradientUnits="userSpaceOnUse"><stop stop-color="#A87D7B"/><stop offset=".663" stop-color="#A87D7B" stop-opacity="0"/></linearGradient><linearGradient id="aF" x1="16.139" y1="12.097" x2="15.74" y2="12.343" gradientUnits="userSpaceOnUse"><stop stop-color="#B4948D"/><stop offset="1" stop-color="#B4948D" stop-opacity="0"/></linearGradient><linearGradient id="aI" x1="10.553" y1="12.097" x2="10.154" y2="12.343" gradientUnits="userSpaceOnUse"><stop stop-color="#B4948D"/><stop offset="1" stop-color="#B4948D" stop-opacity="0"/></linearGradient><linearGradient id="aM" x1="16.159" y1="9.379" x2="15.625" y2="8.288" gradientUnits="userSpaceOnUse"><stop stop-color="#5B4545"/><stop offset="1" stop-color="#5B4545" stop-opacity="0"/></linearGradient><linearGradient id="aO" x1="9.42" y1="9.217" x2="7.909" y2="8.583" gradientUnits="userSpaceOnUse"><stop stop-color="#5B4545"/><stop offset="1" stop-color="#5B4545" stop-opacity="0"/></linearGradient><linearGradient id="aQ" x1="6.46" y1="6.658" x2="6.46" y2="9.398" gradientUnits="userSpaceOnUse"><stop offset=".228" stop-color="#4A3236"/><stop offset="1" stop-color="#4A3236" stop-opacity="0"/></linearGradient></defs></svg>