<svg xmlns="http://www.w3.org/2000/svg" fill="none" viewBox="0 0 32 32"><g filter="url(#man-dark_svg__a)"><circle cx="7.262" cy="18.059" r="3.113" fill="url(#man-dark_svg__b)"/></g><g filter="url(#man-dark_svg__c)"><circle cx="7.262" cy="18.059" r="1.855" fill="url(#man-dark_svg__d)"/></g><g filter="url(#man-dark_svg__e)"><circle cx="25.003" cy="18.059" r="3.113" fill="url(#man-dark_svg__f)"/><circle cx="25.003" cy="18.059" r="3.113" fill="url(#man-dark_svg__g)"/></g><g filter="url(#man-dark_svg__h)"><circle cx="25.003" cy="18.059" r="1.855" fill="#463133"/><circle cx="25.003" cy="18.059" r="1.855" fill="url(#man-dark_svg__i)"/><circle cx="25.003" cy="18.059" r="1.855" fill="url(#man-dark_svg__j)"/></g><g filter="url(#man-dark_svg__k)"><path fill="url(#man-dark_svg__l)" d="M6.606 16.916q.045.003.091.003s-.1-1.591-.2-2.685c0-.498.2-1.094.6-1.393l.3-.298c.5-.398.7-.995.7-1.591V9.36c0-.497.301-.895.801-.994 1.2-.299 3.701-.796 7.302-.796s6.102.497 7.302.796c.4.099.8.497.8.994v1.592c0 .596.3 1.193.7 1.59.937.657.879 1.018.801 1.791-.1.995-.2 2.685-.2 2.685h.034L25.14 24.4c-.3 3.3-2.894 5.6-5.987 5.6h-5.987c-3.193 0-5.687-2.3-5.987-5.6z"/><path fill="url(#man-dark_svg__m)" d="M6.606 16.916q.045.003.091.003s-.1-1.591-.2-2.685c0-.498.2-1.094.6-1.393l.3-.298c.5-.398.7-.995.7-1.591V9.36c0-.497.301-.895.801-.994 1.2-.299 3.701-.796 7.302-.796s6.102.497 7.302.796c.4.099.8.497.8.994v1.592c0 .596.3 1.193.7 1.59.937.657.879 1.018.801 1.791-.1.995-.2 2.685-.2 2.685h.034L25.14 24.4c-.3 3.3-2.894 5.6-5.987 5.6h-5.987c-3.193 0-5.687-2.3-5.987-5.6z"/><path fill="url(#man-dark_svg__n)" d="M6.606 16.916q.045.003.091.003s-.1-1.591-.2-2.685c0-.498.2-1.094.6-1.393l.3-.298c.5-.398.7-.995.7-1.591V9.36c0-.497.301-.895.801-.994 1.2-.299 3.701-.796 7.302-.796s6.102.497 7.302.796c.4.099.8.497.8.994v1.592c0 .596.3 1.193.7 1.59.937.657.879 1.018.801 1.791-.1.995-.2 2.685-.2 2.685h.034L25.14 24.4c-.3 3.3-2.894 5.6-5.987 5.6h-5.987c-3.193 0-5.687-2.3-5.987-5.6z"/><path fill="url(#man-dark_svg__o)" d="M6.606 16.916q.045.003.091.003s-.1-1.591-.2-2.685c0-.498.2-1.094.6-1.393l.3-.298c.5-.398.7-.995.7-1.591V9.36c0-.497.301-.895.801-.994 1.2-.299 3.701-.796 7.302-.796s6.102.497 7.302.796c.4.099.8.497.8.994v1.592c0 .596.3 1.193.7 1.59.937.657.879 1.018.801 1.791-.1.995-.2 2.685-.2 2.685h.034L25.14 24.4c-.3 3.3-2.894 5.6-5.987 5.6h-5.987c-3.193 0-5.687-2.3-5.987-5.6z"/><path fill="url(#man-dark_svg__p)" d="M6.606 16.916q.045.003.091.003s-.1-1.591-.2-2.685c0-.498.2-1.094.6-1.393l.3-.298c.5-.398.7-.995.7-1.591V9.36c0-.497.301-.895.801-.994 1.2-.299 3.701-.796 7.302-.796s6.102.497 7.302.796c.4.099.8.497.8.994v1.592c0 .596.3 1.193.7 1.59.937.657.879 1.018.801 1.791-.1.995-.2 2.685-.2 2.685h.034L25.14 24.4c-.3 3.3-2.894 5.6-5.987 5.6h-5.987c-3.193 0-5.687-2.3-5.987-5.6z"/><path fill="url(#man-dark_svg__q)" d="M6.606 16.916q.045.003.091.003s-.1-1.591-.2-2.685c0-.498.2-1.094.6-1.393l.3-.298c.5-.398.7-.995.7-1.591V9.36c0-.497.301-.895.801-.994 1.2-.299 3.701-.796 7.302-.796s6.102.497 7.302.796c.4.099.8.497.8.994v1.592c0 .596.3 1.193.7 1.59.937.657.879 1.018.801 1.791-.1.995-.2 2.685-.2 2.685h.034L25.14 24.4c-.3 3.3-2.894 5.6-5.987 5.6h-5.987c-3.193 0-5.687-2.3-5.987-5.6z"/></g><g filter="url(#man-dark_svg__r)"><path fill="url(#man-dark_svg__s)" d="m23.508 7.57-5.74 1.913a1.953 1.953 0 0 0 .878 3.788l5.706-.764z"/></g><g filter="url(#man-dark_svg__t)"><path fill="#21181B" d="m25.103 5.979.8.397c1.4.697 2.2 2.288 1.9 3.979l-1.1 5.669c-.098.585-.485.98-1.066.994h-.034s.1-1.69.2-2.685c.081-.808-.06-1.054-.8-1.79-.4-.398-.7-.995-.7-1.591V9.36c0-.497-.4-.895-.8-.994-1.2-.299-3.702-.796-7.303-.796s-6.101.497-7.302.796c-.5.099-.8.497-.8.994v1.592c0 .596-.2 1.193-.7 1.59l-.3.3c-.4.298-.6.894-.6 1.392.1 1.094.2 2.685.2 2.685q-.047 0-.092-.003a1.18 1.18 0 0 1-1.109-.992l-1.1-5.669c-.2-1.591.6-3.182 2-3.879l.8-.397c.5-.299 1-.697 1.501-1.095l1.8-1.89C11.599 2 13.2 1.703 14.6 2.399c1 .298 2.1.298 3.1 0 1.501-.497 3.202-.1 4.402.995l1.5 1.491c.4.498.9.796 1.5 1.095"/><path fill="url(#man-dark_svg__u)" d="m25.103 5.979.8.397c1.4.697 2.2 2.288 1.9 3.979l-1.1 5.669c-.098.585-.485.98-1.066.994h-.034s.1-1.69.2-2.685c.081-.808-.06-1.054-.8-1.79-.4-.398-.7-.995-.7-1.591V9.36c0-.497-.4-.895-.8-.994-1.2-.299-3.702-.796-7.303-.796s-6.101.497-7.302.796c-.5.099-.8.497-.8.994v1.592c0 .596-.2 1.193-.7 1.59l-.3.3c-.4.298-.6.894-.6 1.392.1 1.094.2 2.685.2 2.685q-.047 0-.092-.003a1.18 1.18 0 0 1-1.109-.992l-1.1-5.669c-.2-1.591.6-3.182 2-3.879l.8-.397c.5-.299 1-.697 1.501-1.095l1.8-1.89C11.599 2 13.2 1.703 14.6 2.399c1 .298 2.1.298 3.1 0 1.501-.497 3.202-.1 4.402.995l1.5 1.491c.4.498.9.796 1.5 1.095"/><path fill="url(#man-dark_svg__v)" d="m25.103 5.979.8.397c1.4.697 2.2 2.288 1.9 3.979l-1.1 5.669c-.098.585-.485.98-1.066.994h-.034s.1-1.69.2-2.685c.081-.808-.06-1.054-.8-1.79-.4-.398-.7-.995-.7-1.591V9.36c0-.497-.4-.895-.8-.994-1.2-.299-3.702-.796-7.303-.796s-6.101.497-7.302.796c-.5.099-.8.497-.8.994v1.592c0 .596-.2 1.193-.7 1.59l-.3.3c-.4.298-.6.894-.6 1.392.1 1.094.2 2.685.2 2.685q-.047 0-.092-.003a1.18 1.18 0 0 1-1.109-.992l-1.1-5.669c-.2-1.591.6-3.182 2-3.879l.8-.397c.5-.299 1-.697 1.501-1.095l1.8-1.89C11.599 2 13.2 1.703 14.6 2.399c1 .298 2.1.298 3.1 0 1.501-.497 3.202-.1 4.402.995l1.5 1.491c.4.498.9.796 1.5 1.095"/><path fill="url(#man-dark_svg__w)" d="m25.103 5.979.8.397c1.4.697 2.2 2.288 1.9 3.979l-1.1 5.669c-.098.585-.485.98-1.066.994h-.034s.1-1.69.2-2.685c.081-.808-.06-1.054-.8-1.79-.4-.398-.7-.995-.7-1.591V9.36c0-.497-.4-.895-.8-.994-1.2-.299-3.702-.796-7.303-.796s-6.101.497-7.302.796c-.5.099-.8.497-.8.994v1.592c0 .596-.2 1.193-.7 1.59l-.3.3c-.4.298-.6.894-.6 1.392.1 1.094.2 2.685.2 2.685q-.047 0-.092-.003a1.18 1.18 0 0 1-1.109-.992l-1.1-5.669c-.2-1.591.6-3.182 2-3.879l.8-.397c.5-.299 1-.697 1.501-1.095l1.8-1.89C11.599 2 13.2 1.703 14.6 2.399c1 .298 2.1.298 3.1 0 1.501-.497 3.202-.1 4.402.995l1.5 1.491c.4.498.9.796 1.5 1.095"/><path fill="url(#man-dark_svg__x)" d="m25.103 5.979.8.397c1.4.697 2.2 2.288 1.9 3.979l-1.1 5.669c-.098.585-.485.98-1.066.994h-.034s.1-1.69.2-2.685c.081-.808-.06-1.054-.8-1.79-.4-.398-.7-.995-.7-1.591V9.36c0-.497-.4-.895-.8-.994-1.2-.299-3.702-.796-7.303-.796s-6.101.497-7.302.796c-.5.099-.8.497-.8.994v1.592c0 .596-.2 1.193-.7 1.59l-.3.3c-.4.298-.6.894-.6 1.392.1 1.094.2 2.685.2 2.685q-.047 0-.092-.003a1.18 1.18 0 0 1-1.109-.992l-1.1-5.669c-.2-1.591.6-3.182 2-3.879l.8-.397c.5-.299 1-.697 1.501-1.095l1.8-1.89C11.599 2 13.2 1.703 14.6 2.399c1 .298 2.1.298 3.1 0 1.501-.497 3.202-.1 4.402.995l1.5 1.491c.4.498.9.796 1.5 1.095"/></g><g filter="url(#man-dark_svg__y)"><path fill="#332024" d="M15.603 17.83 14.073 21c-.19.652.266 1.304.91 1.304h1.375c.645 0 1.1-.662.91-1.304l-.929-3.17c-.199-.701-.527-.701-.736 0"/></g><g filter="url(#man-dark_svg__z)"><path fill="#4B3034" d="m15.404 17.527-.991 3.17a1.005 1.005 0 0 0 .97 1.303h1.466c.688 0 1.173-.662.971-1.304l-.99-3.17c-.213-.701-1.204-.701-1.426 0"/><path fill="url(#man-dark_svg__A)" d="m15.404 17.527-.991 3.17a1.005 1.005 0 0 0 .97 1.303h1.466c.688 0 1.173-.662.971-1.304l-.99-3.17c-.213-.701-1.204-.701-1.426 0"/><path fill="url(#man-dark_svg__B)" d="m15.404 17.527-.991 3.17a1.005 1.005 0 0 0 .97 1.303h1.466c.688 0 1.173-.662.971-1.304l-.99-3.17c-.213-.701-1.204-.701-1.426 0"/><path fill="url(#man-dark_svg__C)" d="m15.404 17.527-.991 3.17a1.005 1.005 0 0 0 .97 1.303h1.466c.688 0 1.173-.662.971-1.304l-.99-3.17c-.213-.701-1.204-.701-1.426 0"/><path fill="url(#man-dark_svg__D)" d="m15.404 17.527-.991 3.17a1.005 1.005 0 0 0 .97 1.303h1.466c.688 0 1.173-.662.971-1.304l-.99-3.17c-.213-.701-1.204-.701-1.426 0"/></g><path fill="url(#man-dark_svg__E)" d="m15.404 17.527-.991 3.17a1.005 1.005 0 0 0 .97 1.303h1.466c.688 0 1.173-.662.971-1.304l-.99-3.17c-.213-.701-1.204-.701-1.426 0"/><path fill="#2A0219" stroke="url(#man-dark_svg__F)" stroke-width=".1" d="M13.557 23.239h-.001a.335.335 0 0 0-.4.069.305.305 0 0 0-.033.393 3.58 3.58 0 0 0 2.993 1.599 3.58 3.58 0 0 0 2.994-1.6.31.31 0 0 0-.034-.396.34.34 0 0 0-.4-.066 5.5 5.5 0 0 1-2.56.607c-.938 0-1.82-.22-2.56-.606Z"/><g filter="url(#man-dark_svg__G)"><path fill="#1E1E1E" d="m23.053 12.986-.003-.002-.003-.002-.008-.007-.023-.018a3 3 0 0 0-.288-.2 5 5 0 0 0-.783-.394 5.3 5.3 0 0 0-2.784-.295.995.995 0 1 0 .31 1.967 3.3 3.3 0 0 1 1.742.18 3 3 0 0 1 .56.297l.015.011a.995.995 0 0 0 1.265-1.537"/></g><g filter="url(#man-dark_svg__H)"><path fill="#1E1E1E" d="M9.08 12.987v-.001l.002-.002.004-.002.008-.007.022-.018.067-.05a4 4 0 0 1 .222-.15c.186-.117.45-.262.783-.394a5.3 5.3 0 0 1 2.784-.295.995.995 0 1 1-.31 1.967 3.3 3.3 0 0 0-1.742.18 3 3 0 0 0-.56.297l-.015.011a.995.995 0 0 1-1.266-1.536"/></g><path fill="#fff" d="M20.57 15.39c1.217 0 2.246.84 2.525 1.975a.51.51 0 0 1-.499.635h-4.16a.43.43 0 0 1-.423-.507 2.606 2.606 0 0 1 2.556-2.102"/><path fill="url(#man-dark_svg__I)" d="M20.184 15.897A1.664 1.664 0 0 1 21.787 18h-3.214a1.7 1.7 0 0 1-.061-.439 1.67 1.67 0 0 1 1.671-1.664"/><path fill="#000" d="M19.23 17.561c0-.53.424-.953.953-.953.53 0 .953.424.953.953a.94.94 0 0 1-.105.439h-1.687a.86.86 0 0 1-.114-.439"/><g filter="url(#man-dark_svg__J)"><path fill="#C7A7A3" d="M20.061 16.25c.119.158-.13.351-.41.562-.283.21-.492.358-.61.2-.119-.159.014-.458.295-.669.282-.21.607-.252.725-.094"/><path fill="url(#man-dark_svg__K)" d="M20.061 16.25c.119.158-.13.351-.41.562-.283.21-.492.358-.61.2-.119-.159.014-.458.295-.669.282-.21.607-.252.725-.094"/></g><g filter="url(#man-dark_svg__L)"><path fill="url(#man-dark_svg__M)" d="M21.666 17.342a1.57 1.57 0 0 0-.432-.862l-.484.531.218.426z"/></g><path fill="#fff" d="M11.654 15.39c-1.218 0-2.247.84-2.526 1.975a.51.51 0 0 0 .499.635h4.16a.43.43 0 0 0 .423-.507 2.61 2.61 0 0 0-2.556-2.102"/><path fill="url(#man-dark_svg__N)" d="M12.04 15.897A1.664 1.664 0 0 0 10.436 18h3.215c.037-.144.06-.287.06-.439a1.675 1.675 0 0 0-1.671-1.664"/><path fill="#000" d="M12.993 17.561a.95.95 0 0 0-.953-.953.95.95 0 0 0-.953.953c0 .16.037.31.105.439h1.687a.95.95 0 0 0 .114-.439"/><g filter="url(#man-dark_svg__O)"><path fill="url(#man-dark_svg__P)" d="M13.56 17.366c0-.538-.437-.896-.556-1.005l-.537.52.33.674z"/></g><g filter="url(#man-dark_svg__Q)" transform="rotate(-27.914 11.537 16.608)"><ellipse cx="11.537" cy="16.608" fill="#C7A7A3" fill-opacity=".9" rx=".726" ry=".368"/><ellipse cx="11.537" cy="16.608" fill="url(#man-dark_svg__R)" rx=".726" ry=".368"/></g><g filter="url(#man-dark_svg__S)"><path stroke="url(#man-dark_svg__T)" stroke-linecap="round" stroke-width=".5" d="M19.213 12.717c.802-.14 2.366-.1 3.449.742"/></g><g filter="url(#man-dark_svg__U)"><path stroke="url(#man-dark_svg__V)" stroke-linecap="round" stroke-width=".5" d="M9.48 13.684c.61-.54 1.942-1.107 3.593-.844"/></g><g filter="url(#man-dark_svg__W)"><path stroke="url(#man-dark_svg__X)" stroke-linecap="round" stroke-width=".25" d="M7.663 9.086v1.674c-.014.277-.131.897-.481 1.16"/></g><defs><filter id="man-dark_svg__a" width="6.427" height="6.227" x="4.149" y="14.945" color-interpolation-filters="sRGB" filterUnits="userSpaceOnUse"><feFlood flood-opacity="0" result="BackgroundImageFix"/><feBlend in="SourceGraphic" in2="BackgroundImageFix" result="shape"/><feColorMatrix in="SourceAlpha" result="hardAlpha" values="0 0 0 0 0 0 0 0 0 0 0 0 0 0 0 0 0 0 127 0"/><feOffset dx=".2"/><feGaussianBlur stdDeviation=".15"/><feComposite in2="hardAlpha" k2="-1" k3="1" operator="arithmetic"/><feColorMatrix values="0 0 0 0 0.341176 0 0 0 0 0.270588 0 0 0 0 0.254902 0 0 0 1 0"/><feBlend in2="shape" result="effect1_innerShadow_3987_19702"/></filter><filter id="man-dark_svg__c" width="4.711" height="4.711" x="4.907" y="15.703" color-interpolation-filters="sRGB" filterUnits="userSpaceOnUse"><feFlood flood-opacity="0" result="BackgroundImageFix"/><feBlend in="SourceGraphic" in2="BackgroundImageFix" result="shape"/><feGaussianBlur result="effect1_foregroundBlur_3987_19702" stdDeviation=".25"/></filter><filter id="man-dark_svg__e" width="6.477" height="6.477" x="21.89" y="14.695" color-interpolation-filters="sRGB" filterUnits="userSpaceOnUse"><feFlood flood-opacity="0" result="BackgroundImageFix"/><feBlend in="SourceGraphic" in2="BackgroundImageFix" result="shape"/><feColorMatrix in="SourceAlpha" result="hardAlpha" values="0 0 0 0 0 0 0 0 0 0 0 0 0 0 0 0 0 0 127 0"/><feOffset dx=".25" dy="-.25"/><feGaussianBlur stdDeviation=".25"/><feComposite in2="hardAlpha" k2="-1" k3="1" operator="arithmetic"/><feColorMatrix values="0 0 0 0 0.243137 0 0 0 0 0.141176 0 0 0 0 0.223529 0 0 0 1 0"/><feBlend in2="shape" result="effect1_innerShadow_3987_19702"/></filter><filter id="man-dark_svg__h" width="4.711" height="4.711" x="22.648" y="15.703" color-interpolation-filters="sRGB" filterUnits="userSpaceOnUse"><feFlood flood-opacity="0" result="BackgroundImageFix"/><feBlend in="SourceGraphic" in2="BackgroundImageFix" result="shape"/><feGaussianBlur result="effect1_foregroundBlur_3987_19702" stdDeviation=".25"/></filter><filter id="man-dark_svg__k" width="19.345" height="22.68" x="6.497" y="7.57" color-interpolation-filters="sRGB" filterUnits="userSpaceOnUse"><feFlood flood-opacity="0" result="BackgroundImageFix"/><feBlend in="SourceGraphic" in2="BackgroundImageFix" result="shape"/><feColorMatrix in="SourceAlpha" result="hardAlpha" values="0 0 0 0 0 0 0 0 0 0 0 0 0 0 0 0 0 0 127 0"/><feOffset dy=".25"/><feGaussianBlur stdDeviation=".375"/><feComposite in2="hardAlpha" k2="-1" k3="1" operator="arithmetic"/><feColorMatrix values="0 0 0 0 0.109804 0 0 0 0 0.0509804 0 0 0 0 0.0509804 0 0 0 1 0"/><feBlend in2="shape" result="effect1_innerShadow_3987_19702"/></filter><filter id="man-dark_svg__r" width="11.918" height="9.719" x="14.433" y="5.57" color-interpolation-filters="sRGB" filterUnits="userSpaceOnUse"><feFlood flood-opacity="0" result="BackgroundImageFix"/><feBlend in="SourceGraphic" in2="BackgroundImageFix" result="shape"/><feGaussianBlur result="effect1_foregroundBlur_3987_19702" stdDeviation="1"/></filter><filter id="man-dark_svg__t" width="23.5" height="15.5" x="4.366" y="1.519" color-interpolation-filters="sRGB" filterUnits="userSpaceOnUse"><feFlood flood-opacity="0" result="BackgroundImageFix"/><feBlend in="SourceGraphic" in2="BackgroundImageFix" result="shape"/><feColorMatrix in="SourceAlpha" result="hardAlpha" values="0 0 0 0 0 0 0 0 0 0 0 0 0 0 0 0 0 0 127 0"/><feOffset dy="-.5"/><feGaussianBlur stdDeviation=".375"/><feComposite in2="hardAlpha" k2="-1" k3="1" operator="arithmetic"/><feColorMatrix values="0 0 0 0 0.0392157 0 0 0 0 0.00784314 0 0 0 0 0.0196078 0 0 0 1 0"/><feBlend in2="shape" result="effect1_innerShadow_3987_19702"/></filter><filter id="man-dark_svg__y" width="4.782" height="6.5" x="13.28" y="16.554" color-interpolation-filters="sRGB" filterUnits="userSpaceOnUse"><feFlood flood-opacity="0" result="BackgroundImageFix"/><feBlend in="SourceGraphic" in2="BackgroundImageFix" result="shape"/><feGaussianBlur result="effect1_foregroundBlur_3987_19702" stdDeviation=".375"/></filter><filter id="man-dark_svg__z" width="4" height="5.5" x="14.116" y="16.75" color-interpolation-filters="sRGB" filterUnits="userSpaceOnUse"><feFlood flood-opacity="0" result="BackgroundImageFix"/><feBlend in="SourceGraphic" in2="BackgroundImageFix" result="shape"/><feGaussianBlur result="effect1_foregroundBlur_3987_19702" stdDeviation=".125"/></filter><filter id="man-dark_svg__G" width="5.34" height="3.147" x="18.321" y="11.6" color-interpolation-filters="sRGB" filterUnits="userSpaceOnUse"><feFlood flood-opacity="0" result="BackgroundImageFix"/><feBlend in="SourceGraphic" in2="BackgroundImageFix" result="shape"/><feColorMatrix in="SourceAlpha" result="hardAlpha" values="0 0 0 0 0 0 0 0 0 0 0 0 0 0 0 0 0 0 127 0"/><feOffset dx=".25" dy="-.4"/><feGaussianBlur stdDeviation=".3"/><feComposite in2="hardAlpha" k2="-1" k3="1" operator="arithmetic"/><feColorMatrix values="0 0 0 0 0.0431373 0 0 0 0 0.0196078 0 0 0 0 0.027451 0 0 0 1 0"/><feBlend in2="shape" result="effect1_innerShadow_3987_19702"/></filter><filter id="man-dark_svg__H" width="5.341" height="3.147" x="8.721" y="11.6" color-interpolation-filters="sRGB" filterUnits="userSpaceOnUse"><feFlood flood-opacity="0" result="BackgroundImageFix"/><feBlend in="SourceGraphic" in2="BackgroundImageFix" result="shape"/><feColorMatrix in="SourceAlpha" result="hardAlpha" values="0 0 0 0 0 0 0 0 0 0 0 0 0 0 0 0 0 0 127 0"/><feOffset dx=".25" dy="-.4"/><feGaussianBlur stdDeviation=".3"/><feComposite in2="hardAlpha" k2="-1" k3="1" operator="arithmetic"/><feColorMatrix values="0 0 0 0 0.0431373 0 0 0 0 0.0196078 0 0 0 0 0.027451 0 0 0 1 0"/><feBlend in2="shape" result="effect1_innerShadow_3987_19702"/></filter><filter id="man-dark_svg__J" width="1.294" height="1.125" x="18.897" y="16.053" color-interpolation-filters="sRGB" filterUnits="userSpaceOnUse"><feFlood flood-opacity="0" result="BackgroundImageFix"/><feBlend in="SourceGraphic" in2="BackgroundImageFix" result="shape"/><feGaussianBlur result="effect1_foregroundBlur_3987_19702" stdDeviation=".05"/></filter><filter id="man-dark_svg__L" width="1.316" height="1.357" x="20.55" y="16.279" color-interpolation-filters="sRGB" filterUnits="userSpaceOnUse"><feFlood flood-opacity="0" result="BackgroundImageFix"/><feBlend in="SourceGraphic" in2="BackgroundImageFix" result="shape"/><feGaussianBlur result="effect1_foregroundBlur_3987_19702" stdDeviation=".1"/></filter><filter id="man-dark_svg__O" width="1.493" height="1.594" x="12.267" y="16.161" color-interpolation-filters="sRGB" filterUnits="userSpaceOnUse"><feFlood flood-opacity="0" result="BackgroundImageFix"/><feBlend in="SourceGraphic" in2="BackgroundImageFix" result="shape"/><feGaussianBlur result="effect1_foregroundBlur_3987_19702" stdDeviation=".1"/></filter><filter id="man-dark_svg__Q" width="1.529" height="1.141" x="10.773" y="16.038" color-interpolation-filters="sRGB" filterUnits="userSpaceOnUse"><feFlood flood-opacity="0" result="BackgroundImageFix"/><feBlend in="SourceGraphic" in2="BackgroundImageFix" result="shape"/><feGaussianBlur result="effect1_foregroundBlur_3987_19702" stdDeviation=".05"/></filter><filter id="man-dark_svg__S" width="4.949" height="2.304" x="18.463" y="11.905" color-interpolation-filters="sRGB" filterUnits="userSpaceOnUse"><feFlood flood-opacity="0" result="BackgroundImageFix"/><feBlend in="SourceGraphic" in2="BackgroundImageFix" result="shape"/><feGaussianBlur result="effect1_foregroundBlur_3987_19702" stdDeviation=".25"/></filter><filter id="man-dark_svg__U" width="5.094" height="2.41" x="8.73" y="12.023" color-interpolation-filters="sRGB" filterUnits="userSpaceOnUse"><feFlood flood-opacity="0" result="BackgroundImageFix"/><feBlend in="SourceGraphic" in2="BackgroundImageFix" result="shape"/><feGaussianBlur result="effect1_foregroundBlur_3987_19702" stdDeviation=".25"/></filter><filter id="man-dark_svg__W" width="1.231" height="3.583" x="6.807" y="8.711" color-interpolation-filters="sRGB" filterUnits="userSpaceOnUse"><feFlood flood-opacity="0" result="BackgroundImageFix"/><feBlend in="SourceGraphic" in2="BackgroundImageFix" result="shape"/><feGaussianBlur result="effect1_foregroundBlur_3987_19702" stdDeviation=".125"/></filter><radialGradient id="man-dark_svg__b" cx="0" cy="0" r="1" gradientTransform="matrix(3.27255 0 0 5.72699 4.149 18.059)" gradientUnits="userSpaceOnUse"><stop offset=".351" stop-color="#362324"/><stop offset="1" stop-color="#332423"/></radialGradient><radialGradient id="man-dark_svg__g" cx="0" cy="0" r="1" gradientTransform="rotate(-36.06 39.83 -30.69)scale(1.90707 2.17668)" gradientUnits="userSpaceOnUse"><stop offset=".543" stop-color="#40272A"/><stop offset="1" stop-color="#40272A" stop-opacity="0"/></radialGradient><radialGradient id="man-dark_svg__i" cx="0" cy="0" r="1" gradientTransform="matrix(1.53153 -2.8169 1.64874 .8964 24.926 19.59)" gradientUnits="userSpaceOnUse"><stop offset=".755" stop-color="#31191A" stop-opacity="0"/><stop offset=".916" stop-color="#31191A"/></radialGradient><radialGradient id="man-dark_svg__j" cx="0" cy="0" r="1" gradientTransform="rotate(44.708 -9.455 39.43)scale(.68036 .87707)" gradientUnits="userSpaceOnUse"><stop stop-color="#352123"/><stop offset="1" stop-color="#352123" stop-opacity="0"/></radialGradient><radialGradient id="man-dark_svg__n" cx="0" cy="0" r="1" gradientTransform="matrix(0 13.25 -17.9862 0 15.554 17.688)" gradientUnits="userSpaceOnUse"><stop offset=".561" stop-color="#3D2138" stop-opacity="0"/><stop offset="1" stop-color="#3D2138"/></radialGradient><radialGradient id="man-dark_svg__o" cx="0" cy="0" r="1" gradientTransform="matrix(0 -2.4375 3 0 20.491 15.688)" gradientUnits="userSpaceOnUse"><stop stop-color="#412628"/><stop offset="1" stop-color="#412628" stop-opacity="0"/></radialGradient><radialGradient id="man-dark_svg__p" cx="0" cy="0" r="1" gradientTransform="matrix(0 -2.59375 3.22556 0 11.991 15.625)" gradientUnits="userSpaceOnUse"><stop stop-color="#351D26"/><stop offset="1" stop-color="#351D26" stop-opacity="0"/></radialGradient><radialGradient id="man-dark_svg__u" cx="0" cy="0" r="1" gradientTransform="rotate(-74.899 18.9 -10.61)scale(5.71084 2.11776)" gradientUnits="userSpaceOnUse"><stop stop-color="#464344"/><stop offset="1" stop-color="#464344" stop-opacity="0"/></radialGradient><radialGradient id="man-dark_svg__v" cx="0" cy="0" r="1" gradientTransform="matrix(7.13272 .65639 -.35293 3.83521 21.156 7.12)" gradientUnits="userSpaceOnUse"><stop offset=".122" stop-color="#4A4648"/><stop offset="1" stop-color="#4A4648" stop-opacity="0"/></radialGradient><radialGradient id="man-dark_svg__w" cx="0" cy="0" r="1" gradientTransform="matrix(0 3.1314 -4.84965 0 16.116 2.019)" gradientUnits="userSpaceOnUse"><stop stop-color="#423D3F"/><stop offset="1" stop-color="#423D3F" stop-opacity="0"/></radialGradient><radialGradient id="man-dark_svg__x" cx="0" cy="0" r="1" gradientTransform="rotate(-36.235 24.56 1.116)scale(7.1069 11.1342)" gradientUnits="userSpaceOnUse"><stop stop-color="#463C39"/><stop offset="1" stop-color="#463C39" stop-opacity="0"/></radialGradient><radialGradient id="man-dark_svg__D" cx="0" cy="0" r="1" gradientTransform="matrix(0 .36719 -1.17969 0 16.727 21.055)" gradientUnits="userSpaceOnUse"><stop stop-color="#624E4D"/><stop offset="1" stop-color="#624E4D" stop-opacity="0"/></radialGradient><radialGradient id="man-dark_svg__I" cx="0" cy="0" r="1" gradientTransform="matrix(0 1.51263 -2.40601 0 20.18 16.787)" gradientUnits="userSpaceOnUse"><stop offset=".802" stop-color="#7D574A"/><stop offset="1" stop-color="#694B43"/><stop offset="1" stop-color="#804D49"/><stop offset="1" stop-color="#664944"/></radialGradient><radialGradient id="man-dark_svg__K" cx="0" cy="0" r="1" gradientTransform="rotate(-127.812 14.026 3.634)scale(.70528 .97101)" gradientUnits="userSpaceOnUse"><stop offset=".766" stop-color="#FFE6E2" stop-opacity="0"/><stop offset=".966" stop-color="#FFE6E2"/></radialGradient><radialGradient id="man-dark_svg__N" cx="0" cy="0" r="1" gradientTransform="matrix(0 1.51271 -2.40614 0 12.043 16.787)" gradientUnits="userSpaceOnUse"><stop offset=".802" stop-color="#7D574A"/><stop offset="1" stop-color="#694B43"/><stop offset="1" stop-color="#804D49"/><stop offset="1" stop-color="#664944"/></radialGradient><radialGradient id="man-dark_svg__R" cx="0" cy="0" r="1" gradientTransform="rotate(-90.897 14.219 2.932)scale(.92129 1.10743)" gradientUnits="userSpaceOnUse"><stop offset=".766" stop-color="#FFE6E2" stop-opacity="0"/><stop offset=".966" stop-color="#FFE6E2"/></radialGradient><linearGradient id="man-dark_svg__d" x1="7.262" x2="6.068" y1="18.578" y2="18.578" gradientUnits="userSpaceOnUse"><stop stop-color="#281920"/><stop offset="1" stop-color="#27161D"/></linearGradient><linearGradient id="man-dark_svg__f" x1="27.029" x2="25.502" y1="16.023" y2="20.753" gradientUnits="userSpaceOnUse"><stop stop-color="#635251"/><stop offset="1" stop-color="#452A31"/></linearGradient><linearGradient id="man-dark_svg__l" x1="23.643" x2="9.401" y1="18.785" y2="20.907" gradientUnits="userSpaceOnUse"><stop stop-color="#533531"/><stop offset="1" stop-color="#3C2828"/></linearGradient><linearGradient id="man-dark_svg__m" x1="6.054" x2="9.563" y1="23.813" y2="23.688" gradientUnits="userSpaceOnUse"><stop stop-color="#564440"/><stop offset="1" stop-color="#564440" stop-opacity="0"/></linearGradient><linearGradient id="man-dark_svg__q" x1="16.17" x2="16.17" y1="-11.563" y2="30.375" gradientUnits="userSpaceOnUse"><stop offset=".979" stop-color="#624D68" stop-opacity="0"/><stop offset="1" stop-color="#624D68"/></linearGradient><linearGradient id="man-dark_svg__s" x1="15.125" x2="30.313" y1="13.219" y2="7.781" gradientUnits="userSpaceOnUse"><stop stop-color="#685654"/><stop offset="1" stop-color="#685654" stop-opacity="0"/></linearGradient><linearGradient id="man-dark_svg__A" x1="14.505" x2="16.254" y1="20.014" y2="20.014" gradientUnits="userSpaceOnUse"><stop stop-color="#3D2928"/><stop offset="1" stop-color="#3D2928" stop-opacity="0"/></linearGradient><linearGradient id="man-dark_svg__B" x1="17.866" x2="15.954" y1="20.616" y2="20.588" gradientUnits="userSpaceOnUse"><stop stop-color="#624D4B"/><stop offset="1" stop-color="#624D4B" stop-opacity="0"/></linearGradient><linearGradient id="man-dark_svg__C" x1="16.479" x2="16.479" y1="22" y2="20.931" gradientUnits="userSpaceOnUse"><stop stop-color="#3F222F"/><stop offset="1" stop-color="#3F222F" stop-opacity="0"/></linearGradient><linearGradient id="man-dark_svg__E" x1="16.351" x2="16.351" y1="22.078" y2="21.766" gradientUnits="userSpaceOnUse"><stop stop-color="#31171F"/><stop offset="1" stop-color="#31171F" stop-opacity="0"/></linearGradient><linearGradient id="man-dark_svg__F" x1="14.182" x2="14.994" y1="25.012" y2="23.73" gradientUnits="userSpaceOnUse"><stop stop-color="#564848"/><stop offset=".663" stop-color="#564848" stop-opacity="0"/></linearGradient><linearGradient id="man-dark_svg__M" x1="21.63" x2="21.045" y1="16.887" y2="17.248" gradientUnits="userSpaceOnUse"><stop stop-color="#B4948D"/><stop offset="1" stop-color="#B4948D" stop-opacity="0"/></linearGradient><linearGradient id="man-dark_svg__P" x1="13.43" x2="12.845" y1="16.887" y2="17.248" gradientUnits="userSpaceOnUse"><stop stop-color="#B4948D"/><stop offset="1" stop-color="#B4948D" stop-opacity="0"/></linearGradient><linearGradient id="man-dark_svg__T" x1="21.66" x2="20.876" y1="12.897" y2="11.296" gradientUnits="userSpaceOnUse"><stop stop-color="#353435"/><stop offset="1" stop-color="#353435" stop-opacity="0"/></linearGradient><linearGradient id="man-dark_svg__V" x1="11.767" x2="9.549" y1="12.659" y2="11.729" gradientUnits="userSpaceOnUse"><stop stop-color="#353435"/><stop offset="1" stop-color="#353435" stop-opacity="0"/></linearGradient><linearGradient id="man-dark_svg__X" x1="7.423" x2="7.423" y1="8.902" y2="12.925" gradientUnits="userSpaceOnUse"><stop stop-color="#3C393A"/><stop offset="1" stop-color="#3C393A" stop-opacity="0"/></linearGradient></defs></svg>