<svg width="32" height="32" fill="none" xmlns="http://www.w3.org/2000/svg"><path d="M5.428 29.91h21.144c-.19-5.355-4.591-9.64-9.994-9.64h-1.156c-5.403 0-9.805 4.285-9.994 9.64Z" fill="url(#a)"/><path d="M5.428 29.91h21.144c-.19-5.355-4.591-9.64-9.994-9.64h-1.156c-5.403 0-9.805 4.285-9.994 9.64Z" fill="url(#b)"/><path d="M5.428 29.91h21.144c-.19-5.355-4.591-9.64-9.994-9.64h-1.156c-5.403 0-9.805 4.285-9.994 9.64Z" fill="url(#c)"/><path d="M5.428 29.91h21.144c-.19-5.355-4.591-9.64-9.994-9.64h-1.156c-5.403 0-9.805 4.285-9.994 9.64Z" fill="url(#d)"/><path d="M9.058 29.91h-3.63a9.98 9.98 0 0 1 3.63-7.354v7.355Z" fill="url(#e)"/><path d="M9.058 29.91h-3.63a9.98 9.98 0 0 1 3.63-7.354v7.355Z" fill="url(#f)"/><path d="M22.942 29.91h3.63a9.98 9.98 0 0 0-3.63-7.354v7.355Z" fill="url(#g)"/><path d="M22.942 29.91h3.63a9.98 9.98 0 0 0-3.63-7.354v7.355Z" fill="url(#h)"/><g filter="url(#i)"><path d="M11.926 20.16c-1.363.419-2.538 1.308-3.179 1.936a.462.462 0 0 0 .011.659l.65.65a.523.523 0 0 0 .705.02 12.252 12.252 0 0 1 3.106-1.858l-1.293-1.406Z" fill="url(#j)"/><path d="M11.926 20.16c-1.363.419-2.538 1.308-3.179 1.936a.462.462 0 0 0 .011.659l.65.65a.523.523 0 0 0 .705.02 12.252 12.252 0 0 1 3.106-1.858l-1.293-1.406Z" fill="url(#k)"/></g><g filter="url(#l)"><path d="M20.046 20.16c1.364.419 2.538 1.308 3.179 1.936a.461.461 0 0 1-.011.659l-.65.65a.523.523 0 0 1-.704.02 12.252 12.252 0 0 0-3.107-1.858l1.293-1.406Z" fill="#554B59"/><path d="M20.046 20.16c1.364.419 2.538 1.308 3.179 1.936a.461.461 0 0 1-.011.659l-.65.65a.523.523 0 0 1-.704.02 12.252 12.252 0 0 0-3.107-1.858l1.293-1.406Z" fill="url(#m)"/><path d="M20.046 20.16c1.364.419 2.538 1.308 3.179 1.936a.461.461 0 0 1-.011.659l-.65.65a.523.523 0 0 1-.704.02 12.252 12.252 0 0 0-3.107-1.858l1.293-1.406Z" fill="url(#n)"/></g><g filter="url(#o)"><path fill="#321F22" d="M9.45 22.66a.64.524-40.534 1 0 .974-.833.64.524-40.534 1 0-.974.833"/></g><path transform="rotate(-40.534 9.886 22.154)" fill="url(#p)" d="M9.245 22.154a.64.524 0 1 0 1.282 0 .64.524 0 1 0-1.282 0"/><g filter="url(#q)"><path fill="#3E3138" d="M22.48 22.562a.494.64-54.657 1 1-1.046-.742.494.64-54.657 1 1 1.046.742"/></g><path transform="scale(-1 1) rotate(-40.534 18.954 40.982)" fill="url(#r)" d="M-.64 0A.64.524 0 1 0 .64 0 .64.524 0 1 0-.64 0"/><g filter="url(#s)"><path fill="url(#t)" d="M15.969 14.927s3.797 0 3.797 3.796v2s0 3.797-3.797 3.797-3.797 0-3.797-3.797v-2s0-3.796 3.797-3.796"/><path fill="url(#u)" d="M15.969 14.927s3.797 0 3.797 3.796v2s0 3.797-3.797 3.797-3.797 0-3.797-3.797v-2s0-3.796 3.797-3.796"/><path fill="url(#v)" d="M15.969 14.927s3.797 0 3.797 3.796v2s0 3.797-3.797 3.797-3.797 0-3.797-3.797v-2s0-3.796 3.797-3.796"/></g><path fill="url(#w)" d="M15.867 18.098h.203s1.97 0 1.97 1.97v1.202s0 1.97-1.97 1.97h-.203s-1.968 0-1.968-1.97v-1.203s0-1.968 1.968-1.968"/><path d="M15.49 23.203v6.708h.989v-6.714a1.974 1.974 0 0 1-.409.042h-.203c-.129 0-.255-.012-.377-.036Z" fill="url(#x)"/><path d="M15.49 23.203v6.708h.989v-6.714a1.974 1.974 0 0 1-.409.042h-.203c-.129 0-.255-.012-.377-.036Z" fill="url(#y)"/><g filter="url(#z)"><path fill="#F6265E" d="M16.895 25.444a.545.545 0 1 0 1.09 0 .545.545 0 1 0-1.09 0"/></g><g filter="url(#A)"><path fill="#F6265E" d="M16.895 28.444a.545.545 0 1 0 1.09 0 .545.545 0 1 0-1.09 0"/></g><path fill="url(#B)" d="M16.95 25.374a.545.545 0 1 0 1.089 0 .545.545 0 1 0-1.09 0"/><path fill="url(#C)" d="M16.95 28.374a.545.545 0 1 0 1.089 0 .545.545 0 1 0-1.09 0"/><g filter="url(#D)"><path fill="url(#E)" d="M9.508 15.255a1.671 1.671 0 1 0 3.342 0 1.671 1.671 0 1 0-3.342 0"/></g><g filter="url(#F)"><path fill="url(#G)" d="M10.183 15.255a.996.996 0 1 0 1.992 0 .996.996 0 1 0-1.992 0"/></g><g filter="url(#H)"><path fill="url(#I)" d="M19.03 15.255a1.671 1.671 0 1 0 3.343 0 1.671 1.671 0 1 0-3.342 0"/><path fill="url(#J)" d="M19.03 15.255a1.671 1.671 0 1 0 3.343 0 1.671 1.671 0 1 0-3.342 0"/></g><g filter="url(#K)"><path fill="#463133" d="M19.706 15.255a.996.996 0 1 0 1.992 0 .996.996 0 1 0-1.992 0"/><path fill="url(#L)" d="M19.706 15.255a.996.996 0 1 0 1.992 0 .996.996 0 1 0-1.992 0"/><path fill="url(#M)" d="M19.706 15.255a.996.996 0 1 0 1.992 0 .996.996 0 1 0-1.992 0"/></g><g filter="url(#N)"><path d="M10.827 14.642a.725.725 0 0 0 .05.001s-.055-.854-.108-1.441c0-.267.107-.587.322-.747l.161-.16c.268-.214.376-.534.376-.855v-.854a.52.52 0 0 1 .43-.534c.644-.16 1.986-.427 3.919-.427s3.275.267 3.92.427c.214.054.429.267.429.534v.854c0 .32.16.64.375.854.503.353.472.546.43.961a46.264 46.264 0 0 0-.107 1.442h.018l-.266 3.962c-.161 1.771-1.553 3.006-3.214 3.006H14.35c-1.714 0-3.053-1.235-3.214-3.006l-.308-4.017Z" fill="url(#O)"/><path d="M10.827 14.642a.725.725 0 0 0 .05.001s-.055-.854-.108-1.441c0-.267.107-.587.322-.747l.161-.16c.268-.214.376-.534.376-.855v-.854a.52.52 0 0 1 .43-.534c.644-.16 1.986-.427 3.919-.427s3.275.267 3.92.427c.214.054.429.267.429.534v.854c0 .32.16.64.375.854.503.353.472.546.43.961a46.264 46.264 0 0 0-.107 1.442h.018l-.266 3.962c-.161 1.771-1.553 3.006-3.214 3.006H14.35c-1.714 0-3.053-1.235-3.214-3.006l-.308-4.017Z" fill="url(#P)"/><path d="M10.827 14.642a.725.725 0 0 0 .05.001s-.055-.854-.108-1.441c0-.267.107-.587.322-.747l.161-.16c.268-.214.376-.534.376-.855v-.854a.52.52 0 0 1 .43-.534c.644-.16 1.986-.427 3.919-.427s3.275.267 3.92.427c.214.054.429.267.429.534v.854c0 .32.16.64.375.854.503.353.472.546.43.961a46.264 46.264 0 0 0-.107 1.442h.018l-.266 3.962c-.161 1.771-1.553 3.006-3.214 3.006H14.35c-1.714 0-3.053-1.235-3.214-3.006l-.308-4.017Z" fill="url(#Q)"/><path d="M10.827 14.642a.725.725 0 0 0 .05.001s-.055-.854-.108-1.441c0-.267.107-.587.322-.747l.161-.16c.268-.214.376-.534.376-.855v-.854a.52.52 0 0 1 .43-.534c.644-.16 1.986-.427 3.919-.427s3.275.267 3.92.427c.214.054.429.267.429.534v.854c0 .32.16.64.375.854.503.353.472.546.43.961a46.264 46.264 0 0 0-.107 1.442h.018l-.266 3.962c-.161 1.771-1.553 3.006-3.214 3.006H14.35c-1.714 0-3.053-1.235-3.214-3.006l-.308-4.017Z" fill="url(#R)"/><path d="M10.827 14.642a.725.725 0 0 0 .05.001s-.055-.854-.108-1.441c0-.267.107-.587.322-.747l.161-.16c.268-.214.376-.534.376-.855v-.854a.52.52 0 0 1 .43-.534c.644-.16 1.986-.427 3.919-.427s3.275.267 3.92.427c.214.054.429.267.429.534v.854c0 .32.16.64.375.854.503.353.472.546.43.961a46.264 46.264 0 0 0-.107 1.442h.018l-.266 3.962c-.161 1.771-1.553 3.006-3.214 3.006H14.35c-1.714 0-3.053-1.235-3.214-3.006l-.308-4.017Z" fill="url(#S)"/><path d="M10.827 14.642a.725.725 0 0 0 .05.001s-.055-.854-.108-1.441c0-.267.107-.587.322-.747l.161-.16c.268-.214.376-.534.376-.855v-.854a.52.52 0 0 1 .43-.534c.644-.16 1.986-.427 3.919-.427s3.275.267 3.92.427c.214.054.429.267.429.534v.854c0 .32.16.64.375.854.503.353.472.546.43.961a46.264 46.264 0 0 0-.107 1.442h.018l-.266 3.962c-.161 1.771-1.553 3.006-3.214 3.006H14.35c-1.714 0-3.053-1.235-3.214-3.006l-.308-4.017Z" fill="url(#T)"/><path d="M10.827 14.642a.725.725 0 0 0 .05.001s-.055-.854-.108-1.441c0-.267.107-.587.322-.747l.161-.16c.268-.214.376-.534.376-.855v-.854a.52.52 0 0 1 .43-.534c.644-.16 1.986-.427 3.919-.427s3.275.267 3.92.427c.214.054.429.267.429.534v.854c0 .32.16.64.375.854.503.353.472.546.43.961a46.264 46.264 0 0 0-.107 1.442h.018l-.266 3.962c-.161 1.771-1.553 3.006-3.214 3.006H14.35c-1.714 0-3.053-1.235-3.214-3.006l-.308-4.017Z" fill="url(#U)"/></g><g filter="url(#V)"><path d="m20.755 8.771.43.214c.751.373 1.18 1.228 1.02 2.135l-.59 3.043c-.053.314-.261.526-.573.534h-.019s.054-.908.108-1.441c.043-.434-.032-.566-.43-.961-.214-.214-.375-.534-.375-.855v-.854c0-.267-.215-.48-.43-.534-.644-.16-1.986-.427-3.92-.427-1.932 0-3.274.267-3.919.428a.52.52 0 0 0-.43.533v.854c0 .32-.107.641-.375.855l-.161.16c-.215.16-.322.48-.322.747.053.587.107 1.441.107 1.441l-.049-.001a.634.634 0 0 1-.595-.532l-.59-3.043c-.108-.854.321-1.709 1.073-2.082l.43-.214c.268-.16.536-.373.805-.587l.966-1.014c.59-.534 1.45-.694 2.202-.32.537.16 1.127.16 1.664 0 .805-.268 1.718-.054 2.362.533l.806.801c.215.267.483.427.805.587Z" fill="#21181B"/><path d="m20.755 8.771.43.214c.751.373 1.18 1.228 1.02 2.135l-.59 3.043c-.053.314-.261.526-.573.534h-.019s.054-.908.108-1.441c.043-.434-.032-.566-.43-.961-.214-.214-.375-.534-.375-.855v-.854c0-.267-.215-.48-.43-.534-.644-.16-1.986-.427-3.92-.427-1.932 0-3.274.267-3.919.428a.52.52 0 0 0-.43.533v.854c0 .32-.107.641-.375.855l-.161.16c-.215.16-.322.48-.322.747.053.587.107 1.441.107 1.441l-.049-.001a.634.634 0 0 1-.595-.532l-.59-3.043c-.108-.854.321-1.709 1.073-2.082l.43-.214c.268-.16.536-.373.805-.587l.966-1.014c.59-.534 1.45-.694 2.202-.32.537.16 1.127.16 1.664 0 .805-.268 1.718-.054 2.362.533l.806.801c.215.267.483.427.805.587Z" fill="url(#W)"/><path d="m20.755 8.771.43.214c.751.373 1.18 1.228 1.02 2.135l-.59 3.043c-.053.314-.261.526-.573.534h-.019s.054-.908.108-1.441c.043-.434-.032-.566-.43-.961-.214-.214-.375-.534-.375-.855v-.854c0-.267-.215-.48-.43-.534-.644-.16-1.986-.427-3.92-.427-1.932 0-3.274.267-3.919.428a.52.52 0 0 0-.43.533v.854c0 .32-.107.641-.375.855l-.161.16c-.215.16-.322.48-.322.747.053.587.107 1.441.107 1.441l-.049-.001a.634.634 0 0 1-.595-.532l-.59-3.043c-.108-.854.321-1.709 1.073-2.082l.43-.214c.268-.16.536-.373.805-.587l.966-1.014c.59-.534 1.45-.694 2.202-.32.537.16 1.127.16 1.664 0 .805-.268 1.718-.054 2.362.533l.806.801c.215.267.483.427.805.587Z" fill="url(#X)"/><path d="m20.755 8.771.43.214c.751.373 1.18 1.228 1.02 2.135l-.59 3.043c-.053.314-.261.526-.573.534h-.019s.054-.908.108-1.441c.043-.434-.032-.566-.43-.961-.214-.214-.375-.534-.375-.855v-.854c0-.267-.215-.48-.43-.534-.644-.16-1.986-.427-3.92-.427-1.932 0-3.274.267-3.919.428a.52.52 0 0 0-.43.533v.854c0 .32-.107.641-.375.855l-.161.16c-.215.16-.322.48-.322.747.053.587.107 1.441.107 1.441l-.049-.001a.634.634 0 0 1-.595-.532l-.59-3.043c-.108-.854.321-1.709 1.073-2.082l.43-.214c.268-.16.536-.373.805-.587l.966-1.014c.59-.534 1.45-.694 2.202-.32.537.16 1.127.16 1.664 0 .805-.268 1.718-.054 2.362.533l.806.801c.215.267.483.427.805.587Z" fill="url(#Y)"/><path d="m20.755 8.771.43.214c.751.373 1.18 1.228 1.02 2.135l-.59 3.043c-.053.314-.261.526-.573.534h-.019s.054-.908.108-1.441c.043-.434-.032-.566-.43-.961-.214-.214-.375-.534-.375-.855v-.854c0-.267-.215-.48-.43-.534-.644-.16-1.986-.427-3.92-.427-1.932 0-3.274.267-3.919.428a.52.52 0 0 0-.43.533v.854c0 .32-.107.641-.375.855l-.161.16c-.215.16-.322.48-.322.747.053.587.107 1.441.107 1.441l-.049-.001a.634.634 0 0 1-.595-.532l-.59-3.043c-.108-.854.321-1.709 1.073-2.082l.43-.214c.268-.16.536-.373.805-.587l.966-1.014c.59-.534 1.45-.694 2.202-.32.537.16 1.127.16 1.664 0 .805-.268 1.718-.054 2.362.533l.806.801c.215.267.483.427.805.587Z" fill="url(#Z)"/></g><g filter="url(#aa)"><path d="m15.656 15.133-.821 1.701c-.102.35.142.7.488.7h.738c.346 0 .59-.355.489-.7l-.499-1.701c-.107-.377-.283-.377-.395 0Z" fill="#332024"/></g><g filter="url(#ab)"><path d="m15.549 14.97-.532 1.7a.54.54 0 0 0 .521.7h.787c.37 0 .63-.355.521-.7l-.532-1.7c-.114-.377-.646-.377-.765 0Z" fill="#4B3034"/><path d="m15.549 14.97-.532 1.7a.54.54 0 0 0 .521.7h.787c.37 0 .63-.355.521-.7l-.532-1.7c-.114-.377-.646-.377-.765 0Z" fill="url(#ac)"/><path d="m15.549 14.97-.532 1.7a.54.54 0 0 0 .521.7h.787c.37 0 .63-.355.521-.7l-.532-1.7c-.114-.377-.646-.377-.765 0Z" fill="url(#ad)"/><path d="m15.549 14.97-.532 1.7a.54.54 0 0 0 .521.7h.787c.37 0 .63-.355.521-.7l-.532-1.7c-.114-.377-.646-.377-.765 0Z" fill="url(#ae)"/><path d="m15.549 14.97-.532 1.7a.54.54 0 0 0 .521.7h.787c.37 0 .63-.355.521-.7l-.532-1.7c-.114-.377-.646-.377-.765 0Z" fill="url(#af)"/></g><g filter="url(#ag)"><path d="m15.549 14.885-.532 1.702a.54.54 0 0 0 .521.7h.787c.37 0 .63-.356.521-.7l-.532-1.702c-.114-.376-.646-.376-.765 0Z" fill="url(#ah)"/></g><g filter="url(#ai)"><path d="M15.932 18.388c-.508 0-.986-.12-1.387-.329-.137-.07-.284.085-.198.21.335.508.92.846 1.585.846.665 0 1.249-.338 1.584-.846.087-.13-.06-.28-.198-.21-.401.21-.873.33-1.386.33Z" fill="#2A0219"/><path d="M15.932 18.388c-.508 0-.986-.12-1.387-.329-.137-.07-.284.085-.198.21.335.508.92.846 1.585.846.665 0 1.249-.338 1.584-.846.087-.13-.06-.28-.198-.21-.401.21-.873.33-1.386.33Z" stroke="url(#aj)" stroke-width=".2"/></g><path d="M15.932 18.388c-.508 0-.986-.12-1.387-.329-.137-.07-.284.085-.198.21.335.508.92.846 1.585.846.665 0 1.249-.338 1.584-.846.087-.13-.06-.28-.198-.21-.401.21-.873.33-1.386.33Z" fill="#2A0219"/><path d="M18.322 13.823c.653 0 1.205.45 1.356 1.06a.274.274 0 0 1-.268.34h-2.233a.23.23 0 0 1-.227-.272 1.399 1.399 0 0 1 1.372-1.128Z" fill="#fff"/><path d="M18.115 14.095a.893.893 0 0 1 .86 1.128H17.25a.897.897 0 0 1 .865-1.128Z" fill="url(#ak)"/><path d="M17.603 14.988a.51.51 0 0 1 .512-.511.51.51 0 0 1 .454.747h-.905a.463.463 0 0 1-.06-.236Z" fill="#000"/><g filter="url(#al)"><path d="M18.049 14.284c.064.085-.07.189-.22.302-.152.113-.264.192-.328.107-.063-.085.008-.245.159-.358.151-.114.325-.136.389-.051Z" fill="#C7A7A3"/><path d="M18.049 14.284c.064.085-.07.189-.22.302-.152.113-.264.192-.328.107-.063-.085.008-.245.159-.358.151-.114.325-.136.389-.051Z" fill="url(#am)"/></g><g filter="url(#an)"><path d="M18.91 14.87a.84.84 0 0 0-.231-.462l-.26.285.117.228.374-.05Z" fill="url(#ao)"/></g><path d="M13.536 13.823c-.653 0-1.205.45-1.356 1.06a.274.274 0 0 0 .268.34h2.233a.23.23 0 0 0 .228-.271 1.402 1.402 0 0 0-1.373-1.129Z" fill="#fff"/><path d="M13.743 14.095a.893.893 0 0 0-.86 1.129h1.725a.916.916 0 0 0 .033-.236.9.9 0 0 0-.898-.893Z" fill="url(#ap)"/><path d="M14.255 14.988a.51.51 0 0 0-.512-.511.51.51 0 0 0-.454.747h.905a.508.508 0 0 0 .061-.236Z" fill="#000"/><g filter="url(#aq)"><path d="M14.56 14.883c0-.288-.235-.48-.299-.539l-.288.28.177.36.41-.1Z" fill="url(#ar)"/></g><g filter="url(#as)"><path fill="#C7A7A3" fill-opacity=".9" d="M13.13 14.66a.39.197-27.914 1 0 .688-.366.39.197-27.914 1 0-.689.365"/><path transform="rotate(-27.914 13.474 14.477)" fill="url(#at)" d="M13.084 14.477a.39.197 0 1 0 .78 0 .39.197 0 1 0-.78 0"/></g><g filter="url(#au)"><path d="M10.31 14.155c-.278-.016-.842-.08-1.054-.728-.11-.37.082-.779.143-.91a1.317 1.317 0 0 1 .024-.05c.061-.12.152-.296-.02-.576-.193-.313-.375-.615-.045-1.257.207-.405.093-.652-.032-.875-.183-.327-.166-.604 0-.938.07-.143.173-.275.173-.472 0-.198-.07-.335-.141-.474-.074-.143-.148-.289-.148-.504 0-.23.084-.398.161-.554.066-.133.128-.257.128-.402 0-.129-.06-.24-.125-.364-.094-.178-.201-.38-.164-.69.071-.59.537-.787.756-.879l.02-.008c.21-.089.364-.163.452-.58.046-.215.132-.502.293-.663a1.06 1.06 0 0 1 .791-.3c.257.007.535-.03.752-.254.217-.225.458-.413.699-.453.24-.04.471.014.725.144.281.145.567.07.705-.035.34-.262.718-.32 1.158-.141.18.072.295.112.394.112.098 0 .214-.04.393-.112.44-.18.819-.12 1.159.141.137.106.423.18.704.035.254-.13.484-.184.725-.144.241.04.483.228.7.453.216.225.494.261.75.253a1.06 1.06 0 0 1 .793.301c.16.161.246.448.292.663.088.417.243.491.452.58l.02.008c.219.092.685.288.756.878.038.31-.07.513-.164.69-.065.124-.125.236-.125.365 0 .145.062.269.128.402.078.156.161.324.161.554 0 .215-.074.36-.147.504a.935.935 0 0 0-.105.466c0 .528.496.742.176 1.422-.125.223-.324.455-.117.86.33.641.193.955 0 1.268-.171.28-.081.457-.02.577l.02.041.005.009c.06.13.252.54.142.909-.212.649-.775.712-1.054.728H10.31Z" fill="url(#av)"/><path d="M10.31 14.155c-.278-.016-.842-.08-1.054-.728-.11-.37.082-.779.143-.91a1.317 1.317 0 0 1 .024-.05c.061-.12.152-.296-.02-.576-.193-.313-.375-.615-.045-1.257.207-.405.093-.652-.032-.875-.183-.327-.166-.604 0-.938.07-.143.173-.275.173-.472 0-.198-.07-.335-.141-.474-.074-.143-.148-.289-.148-.504 0-.23.084-.398.161-.554.066-.133.128-.257.128-.402 0-.129-.06-.24-.125-.364-.094-.178-.201-.38-.164-.69.071-.59.537-.787.756-.879l.02-.008c.21-.089.364-.163.452-.58.046-.215.132-.502.293-.663a1.06 1.06 0 0 1 .791-.3c.257.007.535-.03.752-.254.217-.225.458-.413.699-.453.24-.04.471.014.725.144.281.145.567.07.705-.035.34-.262.718-.32 1.158-.141.18.072.295.112.394.112.098 0 .214-.04.393-.112.44-.18.819-.12 1.159.141.137.106.423.18.704.035.254-.13.484-.184.725-.144.241.04.483.228.7.453.216.225.494.261.75.253a1.06 1.06 0 0 1 .793.301c.16.161.246.448.292.663.088.417.243.491.452.58l.02.008c.219.092.685.288.756.878.038.31-.07.513-.164.69-.065.124-.125.236-.125.365 0 .145.062.269.128.402.078.156.161.324.161.554 0 .215-.074.36-.147.504a.935.935 0 0 0-.105.466c0 .528.496.742.176 1.422-.125.223-.324.455-.117.86.33.641.193.955 0 1.268-.171.28-.081.457-.02.577l.02.041.005.009c.06.13.252.54.142.909-.212.649-.775.712-1.054.728H10.31Z" fill="url(#aw)"/></g><path d="M10.31 14.155c-.278-.016-.842-.08-1.054-.728-.11-.37.082-.779.143-.91a1.317 1.317 0 0 1 .024-.05c.061-.12.152-.296-.02-.576-.193-.313-.375-.615-.045-1.257.207-.405.093-.652-.032-.875-.183-.327-.166-.604 0-.938.07-.143.173-.275.173-.472 0-.198-.07-.335-.141-.474-.074-.143-.148-.289-.148-.504 0-.23.084-.398.161-.554.066-.133.128-.257.128-.402 0-.129-.06-.24-.125-.364-.094-.178-.201-.38-.164-.69.071-.59.537-.787.756-.879l.02-.008c.21-.089.364-.163.452-.58.046-.215.132-.502.293-.663a1.06 1.06 0 0 1 .791-.3c.257.007.535-.03.752-.254.217-.225.458-.413.699-.453.24-.04.471.014.725.144.281.145.567.07.705-.035.34-.262.718-.32 1.158-.141.18.072.295.112.394.112.098 0 .214-.04.393-.112.44-.18.819-.12 1.159.141.137.106.423.18.704.035.254-.13.484-.184.725-.144.241.04.483.228.7.453.216.225.494.261.75.253a1.06 1.06 0 0 1 .793.301c.16.161.246.448.292.663.088.417.243.491.452.58l.02.008c.219.092.685.288.756.878.038.31-.07.513-.164.69-.065.124-.125.236-.125.365 0 .145.062.269.128.402.078.156.161.324.161.554 0 .215-.074.36-.147.504a.935.935 0 0 0-.105.466c0 .528.496.742.176 1.422-.125.223-.324.455-.117.86.33.641.193.955 0 1.268-.171.28-.081.457-.02.577l.02.041.005.009c.06.13.252.54.142.909-.212.649-.775.712-1.054.728H10.31Z" fill="url(#ax)"/><path d="M10.31 14.155c-.278-.016-.842-.08-1.054-.728-.11-.37.082-.779.143-.91a1.317 1.317 0 0 1 .024-.05c.061-.12.152-.296-.02-.576-.193-.313-.375-.615-.045-1.257.207-.405.093-.652-.032-.875-.183-.327-.166-.604 0-.938.07-.143.173-.275.173-.472 0-.198-.07-.335-.141-.474-.074-.143-.148-.289-.148-.504 0-.23.084-.398.161-.554.066-.133.128-.257.128-.402 0-.129-.06-.24-.125-.364-.094-.178-.201-.38-.164-.69.071-.59.537-.787.756-.879l.02-.008c.21-.089.364-.163.452-.58.046-.215.132-.502.293-.663a1.06 1.06 0 0 1 .791-.3c.257.007.535-.03.752-.254.217-.225.458-.413.699-.453.24-.04.471.014.725.144.281.145.567.07.705-.035.34-.262.718-.32 1.158-.141.18.072.295.112.394.112.098 0 .214-.04.393-.112.44-.18.819-.12 1.159.141.137.106.423.18.704.035.254-.13.484-.184.725-.144.241.04.483.228.7.453.216.225.494.261.75.253a1.06 1.06 0 0 1 .793.301c.16.161.246.448.292.663.088.417.243.491.452.58l.02.008c.219.092.685.288.756.878.038.31-.07.513-.164.69-.065.124-.125.236-.125.365 0 .145.062.269.128.402.078.156.161.324.161.554 0 .215-.074.36-.147.504a.935.935 0 0 0-.105.466c0 .528.496.742.176 1.422-.125.223-.324.455-.117.86.33.641.193.955 0 1.268-.171.28-.081.457-.02.577l.02.041.005.009c.06.13.252.54.142.909-.212.649-.775.712-1.054.728H10.31Z" fill="url(#ay)"/><path d="M10.31 14.155c-.278-.016-.842-.08-1.054-.728-.11-.37.082-.779.143-.91a1.317 1.317 0 0 1 .024-.05c.061-.12.152-.296-.02-.576-.193-.313-.375-.615-.045-1.257.207-.405.093-.652-.032-.875-.183-.327-.166-.604 0-.938.07-.143.173-.275.173-.472 0-.198-.07-.335-.141-.474-.074-.143-.148-.289-.148-.504 0-.23.084-.398.161-.554.066-.133.128-.257.128-.402 0-.129-.06-.24-.125-.364-.094-.178-.201-.38-.164-.69.071-.59.537-.787.756-.879l.02-.008c.21-.089.364-.163.452-.58.046-.215.132-.502.293-.663a1.06 1.06 0 0 1 .791-.3c.257.007.535-.03.752-.254.217-.225.458-.413.699-.453.24-.04.471.014.725.144.281.145.567.07.705-.035.34-.262.718-.32 1.158-.141.18.072.295.112.394.112.098 0 .214-.04.393-.112.44-.18.819-.12 1.159.141.137.106.423.18.704.035.254-.13.484-.184.725-.144.241.04.483.228.7.453.216.225.494.261.75.253a1.06 1.06 0 0 1 .793.301c.16.161.246.448.292.663.088.417.243.491.452.58l.02.008c.219.092.685.288.756.878.038.31-.07.513-.164.69-.065.124-.125.236-.125.365 0 .145.062.269.128.402.078.156.161.324.161.554 0 .215-.074.36-.147.504a.935.935 0 0 0-.105.466c0 .528.496.742.176 1.422-.125.223-.324.455-.117.86.33.641.193.955 0 1.268-.171.28-.081.457-.02.577l.02.041.005.009c.06.13.252.54.142.909-.212.649-.775.712-1.054.728H10.31Z" fill="url(#az)"/><g filter="url(#aA)"><path d="m10.5 14.155.12 3.518c.082 2.425 2.07 4.379 4.497 4.379h1.677c2.44 0 4.436-1.977 4.498-4.416l.09-3.481h-.909l-.12 3.48c-.049 1.898-1.661 3.487-3.56 3.487h-1.676c-1.887 0-3.489-1.597-3.553-3.483l-.09-3.484H10.5Z" fill="url(#aB)"/><path d="m10.5 14.155.12 3.518c.082 2.425 2.07 4.379 4.497 4.379h1.677c2.44 0 4.436-1.977 4.498-4.416l.09-3.481h-.909l-.12 3.48c-.049 1.898-1.661 3.487-3.56 3.487h-1.676c-1.887 0-3.489-1.597-3.553-3.483l-.09-3.484H10.5Z" fill="url(#aC)"/><path d="m10.5 14.155.12 3.518c.082 2.425 2.07 4.379 4.497 4.379h1.677c2.44 0 4.436-1.977 4.498-4.416l.09-3.481h-.909l-.12 3.48c-.049 1.898-1.661 3.487-3.56 3.487h-1.676c-1.887 0-3.489-1.597-3.553-3.483l-.09-3.484H10.5Z" fill="url(#aD)"/></g><defs><radialGradient id="a" cx="0" cy="0" r="1" gradientUnits="userSpaceOnUse" gradientTransform="matrix(0 7.71875 -19.3424 0 16 26.989)"><stop offset=".315" stop-color="#F73C71"/><stop offset="1" stop-color="#D6274F"/></radialGradient><radialGradient id="b" cx="0" cy="0" r="1" gradientUnits="userSpaceOnUse" gradientTransform="matrix(-2.6875 0 0 -8.81836 22.928 27.145)"><stop offset=".24" stop-color="#FF6085"/><stop offset="1" stop-color="#FF6085" stop-opacity="0"/></radialGradient><radialGradient id="e" cx="0" cy="0" r="1" gradientUnits="userSpaceOnUse" gradientTransform="matrix(1.96876 -8.07812 2.82155 .68765 6.74 29.91)"><stop offset=".232" stop-color="#E43669"/><stop offset="1" stop-color="#B13B50"/></radialGradient><radialGradient id="g" cx="0" cy="0" r="1" gradientUnits="userSpaceOnUse" gradientTransform="rotate(-101.449 24.978 4.726) scale(7.55662 1.96679)"><stop stop-color="#FF5C85"/><stop offset="1" stop-color="#E34C67"/></radialGradient><radialGradient id="h" cx="0" cy="0" r="1" gradientUnits="userSpaceOnUse" gradientTransform="matrix(0 -11.366 .65507 0 22.942 29.91)"><stop offset=".443" stop-color="#E11C59"/><stop offset="1" stop-color="#EE5076" stop-opacity="0"/></radialGradient><radialGradient id="j" cx="0" cy="0" r="1" gradientUnits="userSpaceOnUse" gradientTransform="matrix(1.35937 1.64062 -3.29137 2.72714 9.71 21.208)"><stop stop-color="#454048"/><stop offset="1" stop-color="#382834"/></radialGradient><radialGradient id="k" cx="0" cy="0" r="1" gradientUnits="userSpaceOnUse" gradientTransform="matrix(1.78125 1.85937 -.47826 .45816 8.381 22.458)"><stop offset=".435" stop-color="#4B4551"/><stop offset="1" stop-color="#4B4551" stop-opacity="0"/></radialGradient><radialGradient id="m" cx="0" cy="0" r="1" gradientUnits="userSpaceOnUse" gradientTransform="matrix(1.3125 .25 -.73637 3.86594 19.569 21.145)"><stop offset=".032" stop-color="#513F4E"/><stop offset="1" stop-color="#513F4E" stop-opacity="0"/></radialGradient><radialGradient id="n" cx="0" cy="0" r="1" gradientUnits="userSpaceOnUse" gradientTransform="rotate(138.094 7.499 15.6) scale(1.63757 .24529)"><stop stop-color="#5E5864"/><stop offset="1" stop-color="#5E5864" stop-opacity="0"/></radialGradient><radialGradient id="p" cx="0" cy="0" r="1" gradientUnits="userSpaceOnUse" gradientTransform="rotate(-169.136 6.388 10.772) scale(1.64141 .91814)"><stop offset=".525" stop-color="#CC981A"/><stop offset="1" stop-color="#DCB144"/></radialGradient><radialGradient id="r" cx="0" cy="0" r="1" gradientUnits="userSpaceOnUse" gradientTransform="matrix(.678 .80592 -1.4278 1.20118 .1 .257)"><stop stop-color="#FFFF50"/><stop offset="1" stop-color="#F6CF1C"/></radialGradient><radialGradient id="t" cx="0" cy="0" r="1" gradientUnits="userSpaceOnUse" gradientTransform="matrix(-2.68749 -3.76563 4.9287 -3.51755 18.1 23.91)"><stop stop-color="#5D4364"/><stop offset="1" stop-color="#482949"/></radialGradient><radialGradient id="u" cx="0" cy="0" r="1" gradientUnits="userSpaceOnUse" gradientTransform="matrix(-.39844 0 0 -.91123 15.538 23.762)"><stop offset=".244" stop-color="#4A2E4F"/><stop offset="1" stop-color="#4A2E4F" stop-opacity="0"/></radialGradient><radialGradient id="v" cx="0" cy="0" r="1" gradientUnits="userSpaceOnUse" gradientTransform="rotate(112.38 -.17 15.586) scale(1.14905 2.6882)"><stop stop-color="#452139"/><stop offset="1" stop-color="#452139" stop-opacity="0"/></radialGradient><radialGradient id="w" cx="0" cy="0" r="1" gradientUnits="userSpaceOnUse" gradientTransform="rotate(51.989 -14.74 27.087) scale(1.72534 2.83656)"><stop stop-color="#35161F"/><stop offset="1" stop-color="#462B32"/></radialGradient><radialGradient id="B" cx="0" cy="0" r="1" gradientUnits="userSpaceOnUse" gradientTransform="matrix(-.71875 .59375 -.75915 -.91896 17.85 25.16)"><stop stop-color="#FFF153"/><stop offset="1" stop-color="#FCA239"/></radialGradient><radialGradient id="C" cx="0" cy="0" r="1" gradientUnits="userSpaceOnUse" gradientTransform="matrix(-.71875 .59375 -.75915 -.91896 17.85 28.16)"><stop stop-color="#FFF153"/><stop offset="1" stop-color="#FCA239"/></radialGradient><radialGradient id="E" cx="0" cy="0" r="1" gradientUnits="userSpaceOnUse" gradientTransform="matrix(1.75652 0 0 3.07393 9.508 15.255)"><stop offset=".351" stop-color="#362324"/><stop offset="1" stop-color="#332423"/></radialGradient><radialGradient id="J" cx="0" cy="0" r="1" gradientUnits="userSpaceOnUse" gradientTransform="matrix(.82748 -.60254 .68772 .94447 21.074 14.99)"><stop offset=".543" stop-color="#40272A"/><stop offset="1" stop-color="#40272A" stop-opacity="0"/></radialGradient><radialGradient id="L" cx="0" cy="0" r="1" gradientUnits="userSpaceOnUse" gradientTransform="matrix(.82204 -1.51196 .88496 .48114 20.66 16.077)"><stop offset=".755" stop-color="#31191A" stop-opacity="0"/><stop offset=".916" stop-color="#31191A"/></radialGradient><radialGradient id="M" cx="0" cy="0" r="1" gradientUnits="userSpaceOnUse" gradientTransform="rotate(44.708 -8.197 32.798) scale(.36518 .47076)"><stop stop-color="#352123"/><stop offset="1" stop-color="#352123" stop-opacity="0"/></radialGradient><radialGradient id="O" cx="0" cy="0" r="1" gradientUnits="userSpaceOnUse" gradientTransform="rotate(178.041 9.687 8.435) scale(7.33387 8.20007)"><stop offset=".24" stop-color="#523330"/><stop offset=".848" stop-color="#3C2828"/></radialGradient><radialGradient id="Q" cx="0" cy="0" r="1" gradientUnits="userSpaceOnUse" gradientTransform="matrix(0 7.11187 -9.65399 0 15.63 15.056)"><stop offset=".561" stop-color="#3D2138" stop-opacity="0"/><stop offset="1" stop-color="#3D2138"/></radialGradient><radialGradient id="R" cx="0" cy="0" r="1" gradientUnits="userSpaceOnUse" gradientTransform="matrix(0 -1.30832 1.61023 0 18.28 13.982)"><stop stop-color="#412628"/><stop offset="1" stop-color="#412628" stop-opacity="0"/></radialGradient><radialGradient id="S" cx="0" cy="0" r="1" gradientUnits="userSpaceOnUse" gradientTransform="matrix(0 -1.39218 1.7313 0 13.718 13.949)"><stop stop-color="#351D26"/><stop offset="1" stop-color="#351D26" stop-opacity="0"/></radialGradient><radialGradient id="T" cx="0" cy="0" r="1" gradientUnits="userSpaceOnUse" gradientTransform="rotate(-166.409 11.378 9.506) scale(2.92567 1.71902)"><stop offset=".136" stop-color="#5B4B4D"/><stop offset="1" stop-color="#5B4B4D" stop-opacity="0"/></radialGradient><radialGradient id="W" cx="0" cy="0" r="1" gradientUnits="userSpaceOnUse" gradientTransform="matrix(.79857 -2.95942 1.09745 .29614 20.28 11.145)"><stop stop-color="#464344"/><stop offset="1" stop-color="#464344" stop-opacity="0"/></radialGradient><radialGradient id="X" cx="0" cy="0" r="1" gradientUnits="userSpaceOnUse" gradientTransform="matrix(3.82845 .35231 -.18944 2.05853 18.637 9.383)"><stop offset=".122" stop-color="#4A4648"/><stop offset="1" stop-color="#4A4648" stop-opacity="0"/></radialGradient><radialGradient id="Y" cx="0" cy="0" r="1" gradientUnits="userSpaceOnUse" gradientTransform="matrix(0 1.68076 -2.60303 0 15.932 6.646)"><stop stop-color="#423D3F"/><stop offset="1" stop-color="#423D3F" stop-opacity="0"/></radialGradient><radialGradient id="Z" cx="0" cy="0" r="1" gradientUnits="userSpaceOnUse" gradientTransform="matrix(3.07685 -2.2548 3.53253 4.82042 9.477 13.47)"><stop stop-color="#463C39"/><stop offset="1" stop-color="#463C39" stop-opacity="0"/></radialGradient><radialGradient id="af" cx="0" cy="0" r="1" gradientUnits="userSpaceOnUse" gradientTransform="matrix(0 .19709 -.6332 0 16.26 16.863)"><stop stop-color="#624E4D"/><stop offset="1" stop-color="#624E4D" stop-opacity="0"/></radialGradient><radialGradient id="ak" cx="0" cy="0" r="1" gradientUnits="userSpaceOnUse" gradientTransform="matrix(0 -1.03986 1.32558 0 18.113 15.135)"><stop offset=".676" stop-color="#6C4A41"/><stop offset="1" stop-color="#452D27"/></radialGradient><radialGradient id="am" cx="0" cy="0" r="1" gradientUnits="userSpaceOnUse" gradientTransform="rotate(-127.812 12.531 2.949) scale(.37856 .52118)"><stop offset=".766" stop-color="#FFE6E2" stop-opacity="0"/><stop offset=".966" stop-color="#FFE6E2"/></radialGradient><radialGradient id="ap" cx="0" cy="0" r="1" gradientUnits="userSpaceOnUse" gradientTransform="matrix(0 -1.03991 1.32565 0 13.745 15.135)"><stop offset=".676" stop-color="#6C4A41"/><stop offset="1" stop-color="#452D27"/></radialGradient><radialGradient id="at" cx="0" cy="0" r="1" gradientUnits="userSpaceOnUse" gradientTransform="rotate(-90.897 14.01 .771) scale(.4945 .5944)"><stop offset=".766" stop-color="#FFE6E2" stop-opacity="0"/><stop offset=".966" stop-color="#FFE6E2"/></radialGradient><radialGradient id="ax" cx="0" cy="0" r="1" gradientUnits="userSpaceOnUse" gradientTransform="matrix(0 -12.3535 18.2706 0 15.953 14.155)"><stop offset=".775" stop-color="#403947" stop-opacity="0"/><stop offset="1" stop-color="#403947"/></radialGradient><radialGradient id="ay" cx="0" cy="0" r="1" gradientUnits="userSpaceOnUse" gradientTransform="rotate(-179.736 10.798 2.33) scale(6.78132 1.9151)"><stop stop-color="#686070"/><stop offset="1" stop-color="#686070" stop-opacity="0"/></radialGradient><radialGradient id="aD" cx="0" cy="0" r="1" gradientUnits="userSpaceOnUse" gradientTransform="matrix(0 1.46875 -.51569 0 21.381 16.27)"><stop stop-color="#F6DCF7"/><stop offset="1" stop-color="#F6DCF7" stop-opacity="0"/></radialGradient><filter id="i" x="8.464" y="20.061" width="4.755" height="3.491" filterUnits="userSpaceOnUse" color-interpolation-filters="sRGB"><feFlood flood-opacity="0" result="BackgroundImageFix"/><feBlend in="SourceGraphic" in2="BackgroundImageFix" result="shape"/><feColorMatrix in="SourceAlpha" values="0 0 0 0 0 0 0 0 0 0 0 0 0 0 0 0 0 0 127 0" result="hardAlpha"/><feOffset dx="-.25" dy="-.1"/><feGaussianBlur stdDeviation=".075"/><feComposite in2="hardAlpha" operator="arithmetic" k2="-1" k3="1"/><feColorMatrix values="0 0 0 0 0.262745 0 0 0 0 0.172549 0 0 0 0 0.309804 0 0 0 1 0"/><feBlend in2="shape" result="effect1_innerShadow_4002_2839"/></filter><filter id="l" x="18.753" y="19.961" width="4.705" height="3.591" filterUnits="userSpaceOnUse" color-interpolation-filters="sRGB"><feFlood flood-opacity="0" result="BackgroundImageFix"/><feBlend in="SourceGraphic" in2="BackgroundImageFix" result="shape"/><feColorMatrix in="SourceAlpha" values="0 0 0 0 0 0 0 0 0 0 0 0 0 0 0 0 0 0 127 0" result="hardAlpha"/><feOffset dx=".1" dy="-.2"/><feGaussianBlur stdDeviation=".15"/><feComposite in2="hardAlpha" operator="arithmetic" k2="-1" k3="1"/><feColorMatrix values="0 0 0 0 0.270588 0 0 0 0 0.172549 0 0 0 0 0.309804 0 0 0 1 0"/><feBlend in2="shape" result="effect1_innerShadow_4002_2839"/><feColorMatrix in="SourceAlpha" values="0 0 0 0 0 0 0 0 0 0 0 0 0 0 0 0 0 0 127 0" result="hardAlpha"/><feOffset dx=".1" dy="-.05"/><feGaussianBlur stdDeviation=".05"/><feComposite in2="hardAlpha" operator="arithmetic" k2="-1" k3="1"/><feColorMatrix values="0 0 0 0 0.266667 0 0 0 0 0.0666667 0 0 0 0 0.219608 0 0 0 1 0"/><feBlend in2="effect1_innerShadow_4002_2839" result="effect2_innerShadow_4002_2839"/></filter><filter id="o" x="8.842" y="21.167" width="2.189" height="2.153" filterUnits="userSpaceOnUse" color-interpolation-filters="sRGB"><feFlood flood-opacity="0" result="BackgroundImageFix"/><feBlend in="SourceGraphic" in2="BackgroundImageFix" result="shape"/><feGaussianBlur stdDeviation=".25" result="effect1_foregroundBlur_4002_2839"/></filter><filter id="q" x="21.111" y="21.394" width="1.692" height="1.595" filterUnits="userSpaceOnUse" color-interpolation-filters="sRGB"><feFlood flood-opacity="0" result="BackgroundImageFix"/><feBlend in="SourceGraphic" in2="BackgroundImageFix" result="shape"/><feGaussianBlur stdDeviation=".125" result="effect1_foregroundBlur_4002_2839"/></filter><filter id="s" x="12.072" y="14.826" width="7.744" height="9.694" filterUnits="userSpaceOnUse" color-interpolation-filters="sRGB"><feFlood flood-opacity="0" result="BackgroundImageFix"/><feBlend in="SourceGraphic" in2="BackgroundImageFix" result="shape"/><feColorMatrix in="SourceAlpha" values="0 0 0 0 0 0 0 0 0 0 0 0 0 0 0 0 0 0 127 0" result="hardAlpha"/><feOffset dx="-.1" dy="-.1"/><feGaussianBlur stdDeviation=".075"/><feComposite in2="hardAlpha" operator="arithmetic" k2="-1" k3="1"/><feColorMatrix values="0 0 0 0 0.439216 0 0 0 0 0.384314 0 0 0 0 0.47451 0 0 0 1 0"/><feBlend in2="shape" result="effect1_innerShadow_4002_2839"/><feColorMatrix in="SourceAlpha" values="0 0 0 0 0 0 0 0 0 0 0 0 0 0 0 0 0 0 127 0" result="hardAlpha"/><feOffset dx=".05" dy="-.1"/><feGaussianBlur stdDeviation=".075"/><feComposite in2="hardAlpha" operator="arithmetic" k2="-1" k3="1"/><feColorMatrix values="0 0 0 0 0.439216 0 0 0 0 0.384314 0 0 0 0 0.47451 0 0 0 1 0"/><feBlend in2="effect1_innerShadow_4002_2839" result="effect2_innerShadow_4002_2839"/><feColorMatrix in="SourceAlpha" values="0 0 0 0 0 0 0 0 0 0 0 0 0 0 0 0 0 0 127 0" result="hardAlpha"/><feOffset dy="-.1"/><feGaussianBlur stdDeviation=".05"/><feComposite in2="hardAlpha" operator="arithmetic" k2="-1" k3="1"/><feColorMatrix values="0 0 0 0 0.329412 0 0 0 0 0.172549 0 0 0 0 0.372549 0 0 0 1 0"/><feBlend in2="effect2_innerShadow_4002_2839" result="effect3_innerShadow_4002_2839"/></filter><filter id="z" x="16.395" y="24.399" width="2.09" height="2.09" filterUnits="userSpaceOnUse" color-interpolation-filters="sRGB"><feFlood flood-opacity="0" result="BackgroundImageFix"/><feBlend in="SourceGraphic" in2="BackgroundImageFix" result="shape"/><feGaussianBlur stdDeviation=".25" result="effect1_foregroundBlur_4002_2839"/></filter><filter id="A" x="16.395" y="27.399" width="2.09" height="2.09" filterUnits="userSpaceOnUse" color-interpolation-filters="sRGB"><feFlood flood-opacity="0" result="BackgroundImageFix"/><feBlend in="SourceGraphic" in2="BackgroundImageFix" result="shape"/><feGaussianBlur stdDeviation=".25" result="effect1_foregroundBlur_4002_2839"/></filter><filter id="D" x="9.508" y="13.584" width="3.542" height="3.342" filterUnits="userSpaceOnUse" color-interpolation-filters="sRGB"><feFlood flood-opacity="0" result="BackgroundImageFix"/><feBlend in="SourceGraphic" in2="BackgroundImageFix" result="shape"/><feColorMatrix in="SourceAlpha" values="0 0 0 0 0 0 0 0 0 0 0 0 0 0 0 0 0 0 127 0" result="hardAlpha"/><feOffset dx=".2"/><feGaussianBlur stdDeviation=".15"/><feComposite in2="hardAlpha" operator="arithmetic" k2="-1" k3="1"/><feColorMatrix values="0 0 0 0 0.341176 0 0 0 0 0.270588 0 0 0 0 0.254902 0 0 0 1 0"/><feBlend in2="shape" result="effect1_innerShadow_4002_2839"/></filter><filter id="F" x="9.683" y="13.759" width="2.992" height="2.992" filterUnits="userSpaceOnUse" color-interpolation-filters="sRGB"><feFlood flood-opacity="0" result="BackgroundImageFix"/><feBlend in="SourceGraphic" in2="BackgroundImageFix" result="shape"/><feGaussianBlur stdDeviation=".25" result="effect1_foregroundBlur_4002_2839"/></filter><filter id="H" x="19.03" y="13.334" width="3.592" height="3.592" filterUnits="userSpaceOnUse" color-interpolation-filters="sRGB"><feFlood flood-opacity="0" result="BackgroundImageFix"/><feBlend in="SourceGraphic" in2="BackgroundImageFix" result="shape"/><feColorMatrix in="SourceAlpha" values="0 0 0 0 0 0 0 0 0 0 0 0 0 0 0 0 0 0 127 0" result="hardAlpha"/><feOffset dx=".25" dy="-.25"/><feGaussianBlur stdDeviation=".25"/><feComposite in2="hardAlpha" operator="arithmetic" k2="-1" k3="1"/><feColorMatrix values="0 0 0 0 0.243137 0 0 0 0 0.141176 0 0 0 0 0.223529 0 0 0 1 0"/><feBlend in2="shape" result="effect1_innerShadow_4002_2839"/></filter><filter id="K" x="19.206" y="13.759" width="2.992" height="2.992" filterUnits="userSpaceOnUse" color-interpolation-filters="sRGB"><feFlood flood-opacity="0" result="BackgroundImageFix"/><feBlend in="SourceGraphic" in2="BackgroundImageFix" result="shape"/><feGaussianBlur stdDeviation=".25" result="effect1_foregroundBlur_4002_2839"/></filter><filter id="N" x="10.269" y="9.125" width="10.883" height="12.689" filterUnits="userSpaceOnUse" color-interpolation-filters="sRGB"><feFlood flood-opacity="0" result="BackgroundImageFix"/><feBlend in="SourceGraphic" in2="BackgroundImageFix" result="shape"/><feColorMatrix in="SourceAlpha" values="0 0 0 0 0 0 0 0 0 0 0 0 0 0 0 0 0 0 127 0" result="hardAlpha"/><feOffset dy=".15"/><feGaussianBlur stdDeviation=".125"/><feComposite in2="hardAlpha" operator="arithmetic" k2="-1" k3="1"/><feColorMatrix values="0 0 0 0 0.109804 0 0 0 0 0.0509804 0 0 0 0 0.0509804 0 0 0 1 0"/><feBlend in2="shape" result="effect1_innerShadow_4002_2839"/><feColorMatrix in="SourceAlpha" values="0 0 0 0 0 0 0 0 0 0 0 0 0 0 0 0 0 0 127 0" result="hardAlpha"/><feOffset dx="-.65" dy="-.65"/><feGaussianBlur stdDeviation=".25"/><feComposite in2="hardAlpha" operator="arithmetic" k2="-1" k3="1"/><feColorMatrix values="0 0 0 0 0.172549 0 0 0 0 0.0941176 0 0 0 0 0.121569 0 0 0 1 0"/><feBlend in2="effect1_innerShadow_4002_2839" result="effect2_innerShadow_4002_2839"/><feColorMatrix in="SourceAlpha" values="0 0 0 0 0 0 0 0 0 0 0 0 0 0 0 0 0 0 127 0" result="hardAlpha"/><feOffset dy="-.65"/><feGaussianBlur stdDeviation=".25"/><feComposite in2="hardAlpha" operator="arithmetic" k2="-1" k3="1"/><feColorMatrix values="0 0 0 0 0.282353 0 0 0 0 0.172549 0 0 0 0 0.258824 0 0 0 1 0"/><feBlend in2="effect2_innerShadow_4002_2839" result="effect3_innerShadow_4002_2839"/></filter><filter id="V" x="9.625" y="6.146" width="12.614" height="8.551" filterUnits="userSpaceOnUse" color-interpolation-filters="sRGB"><feFlood flood-opacity="0" result="BackgroundImageFix"/><feBlend in="SourceGraphic" in2="BackgroundImageFix" result="shape"/><feColorMatrix in="SourceAlpha" values="0 0 0 0 0 0 0 0 0 0 0 0 0 0 0 0 0 0 127 0" result="hardAlpha"/><feOffset dy="-.5"/><feGaussianBlur stdDeviation=".375"/><feComposite in2="hardAlpha" operator="arithmetic" k2="-1" k3="1"/><feColorMatrix values="0 0 0 0 0.0392157 0 0 0 0 0.00784314 0 0 0 0 0.0196078 0 0 0 1 0"/><feBlend in2="shape" result="effect1_innerShadow_4002_2839"/></filter><filter id="aa" x="14.062" y="14.1" width="3.262" height="4.184" filterUnits="userSpaceOnUse" color-interpolation-filters="sRGB"><feFlood flood-opacity="0" result="BackgroundImageFix"/><feBlend in="SourceGraphic" in2="BackgroundImageFix" result="shape"/><feGaussianBlur stdDeviation=".375" result="effect1_foregroundBlur_4002_2839"/></filter><filter id="ab" x="14.742" y="14.437" width="2.379" height="3.184" filterUnits="userSpaceOnUse" color-interpolation-filters="sRGB"><feFlood flood-opacity="0" result="BackgroundImageFix"/><feBlend in="SourceGraphic" in2="BackgroundImageFix" result="shape"/><feGaussianBlur stdDeviation=".125" result="effect1_foregroundBlur_4002_2839"/></filter><filter id="ag" x="14.742" y="14.353" width="2.379" height="3.184" filterUnits="userSpaceOnUse" color-interpolation-filters="sRGB"><feFlood flood-opacity="0" result="BackgroundImageFix"/><feBlend in="SourceGraphic" in2="BackgroundImageFix" result="shape"/><feGaussianBlur stdDeviation=".125" result="effect1_foregroundBlur_4002_2839"/></filter><filter id="ai" x="14.121" y="17.842" width="3.621" height="1.474" filterUnits="userSpaceOnUse" color-interpolation-filters="sRGB"><feFlood flood-opacity="0" result="BackgroundImageFix"/><feBlend in="SourceGraphic" in2="BackgroundImageFix" result="shape"/><feGaussianBlur stdDeviation=".05" result="effect1_foregroundBlur_4002_2839"/></filter><filter id="al" x="17.378" y="14.132" width=".787" height=".697" filterUnits="userSpaceOnUse" color-interpolation-filters="sRGB"><feFlood flood-opacity="0" result="BackgroundImageFix"/><feBlend in="SourceGraphic" in2="BackgroundImageFix" result="shape"/><feGaussianBlur stdDeviation=".05" result="effect1_foregroundBlur_4002_2839"/></filter><filter id="an" x="18.219" y="14.207" width=".892" height=".914" filterUnits="userSpaceOnUse" color-interpolation-filters="sRGB"><feFlood flood-opacity="0" result="BackgroundImageFix"/><feBlend in="SourceGraphic" in2="BackgroundImageFix" result="shape"/><feGaussianBlur stdDeviation=".1" result="effect1_foregroundBlur_4002_2839"/></filter><filter id="aq" x="13.773" y="14.144" width=".987" height="1.041" filterUnits="userSpaceOnUse" color-interpolation-filters="sRGB"><feFlood flood-opacity="0" result="BackgroundImageFix"/><feBlend in="SourceGraphic" in2="BackgroundImageFix" result="shape"/><feGaussianBlur stdDeviation=".1" result="effect1_foregroundBlur_4002_2839"/></filter><filter id="as" x="13.017" y="14.124" width=".914" height=".705" filterUnits="userSpaceOnUse" color-interpolation-filters="sRGB"><feFlood flood-opacity="0" result="BackgroundImageFix"/><feBlend in="SourceGraphic" in2="BackgroundImageFix" result="shape"/><feGaussianBlur stdDeviation=".05" result="effect1_foregroundBlur_4002_2839"/></filter><filter id="au" x="9.076" y="1.839" width="13.655" height="12.317" filterUnits="userSpaceOnUse" color-interpolation-filters="sRGB"><feFlood flood-opacity="0" result="BackgroundImageFix"/><feBlend in="SourceGraphic" in2="BackgroundImageFix" result="shape"/><feColorMatrix in="SourceAlpha" values="0 0 0 0 0 0 0 0 0 0 0 0 0 0 0 0 0 0 127 0" result="hardAlpha"/><feOffset dx="-.1" dy="-.25"/><feGaussianBlur stdDeviation=".25"/><feComposite in2="hardAlpha" operator="arithmetic" k2="-1" k3="1"/><feColorMatrix values="0 0 0 0 0.282353 0 0 0 0 0.203922 0 0 0 0 0.364706 0 0 0 1 0"/><feBlend in2="shape" result="effect1_innerShadow_4002_2839"/></filter><filter id="aA" x="10.499" y="14.055" width="10.882" height="7.996" filterUnits="userSpaceOnUse" color-interpolation-filters="sRGB"><feFlood flood-opacity="0" result="BackgroundImageFix"/><feBlend in="SourceGraphic" in2="BackgroundImageFix" result="shape"/><feColorMatrix in="SourceAlpha" values="0 0 0 0 0 0 0 0 0 0 0 0 0 0 0 0 0 0 127 0" result="hardAlpha"/><feOffset dy="-.1"/><feGaussianBlur stdDeviation=".1"/><feComposite in2="hardAlpha" operator="arithmetic" k2="-1" k3="1"/><feColorMatrix values="0 0 0 0 0.803922 0 0 0 0 0.635294 0 0 0 0 0.886275 0 0 0 1 0"/><feBlend in2="shape" result="effect1_innerShadow_4002_2839"/></filter><linearGradient id="c" x1="9.026" y1="29.911" x2="9.233" y2="29.911" gradientUnits="userSpaceOnUse"><stop stop-color="#C2254A"/><stop offset="1" stop-color="#C2254A" stop-opacity="0"/></linearGradient><linearGradient id="d" x1="22.975" y1="29.911" x2="22.827" y2="29.911" gradientUnits="userSpaceOnUse"><stop offset=".118" stop-color="#FC356B"/><stop offset="1" stop-color="#FC356B" stop-opacity="0"/></linearGradient><linearGradient id="f" x1="9.397" y1="29.739" x2="8.084" y2="29.739" gradientUnits="userSpaceOnUse"><stop stop-color="#AC394E"/><stop offset="1" stop-color="#C9345B" stop-opacity="0"/></linearGradient><linearGradient id="x" x1="15.984" y1="23.197" x2="15.984" y2="29.911" gradientUnits="userSpaceOnUse"><stop stop-color="#DBB8DD"/><stop offset="1" stop-color="#D8BBEB"/></linearGradient><linearGradient id="y" x1="16.479" y1="27.271" x2="16.147" y2="27.271" gradientUnits="userSpaceOnUse"><stop stop-color="#EACCEB"/><stop offset="1" stop-color="#EACCEB" stop-opacity="0"/></linearGradient><linearGradient id="G" x1="11.179" y1="15.534" x2="10.538" y2="15.534" gradientUnits="userSpaceOnUse"><stop stop-color="#281920"/><stop offset="1" stop-color="#27161D"/></linearGradient><linearGradient id="I" x1="21.789" y1="14.163" x2="20.97" y2="16.701" gradientUnits="userSpaceOnUse"><stop stop-color="#635251"/><stop offset="1" stop-color="#452A31"/></linearGradient><linearGradient id="P" x1="10.531" y1="18.343" x2="12.798" y2="18.202" gradientUnits="userSpaceOnUse"><stop offset=".283" stop-color="#564440"/><stop offset="1" stop-color="#564440" stop-opacity="0"/></linearGradient><linearGradient id="U" x1="15.96" y1="13.908" x2="15.96" y2="16.252" gradientUnits="userSpaceOnUse"><stop offset=".048" stop-color="#30171F"/><stop offset="1" stop-color="#30171F" stop-opacity="0"/></linearGradient><linearGradient id="ac" x1="15.067" y1="16.305" x2="16.006" y2="16.305" gradientUnits="userSpaceOnUse"><stop stop-color="#3D2928"/><stop offset="1" stop-color="#3D2928" stop-opacity="0"/></linearGradient><linearGradient id="ad" x1="16.871" y1="16.628" x2="15.844" y2="16.613" gradientUnits="userSpaceOnUse"><stop stop-color="#624D4B"/><stop offset="1" stop-color="#624D4B" stop-opacity="0"/></linearGradient><linearGradient id="ae" x1="16.126" y1="17.37" x2="16.126" y2="16.797" gradientUnits="userSpaceOnUse"><stop stop-color="#3F222F"/><stop offset="1" stop-color="#3F222F" stop-opacity="0"/></linearGradient><linearGradient id="ah" x1="15.932" y1="14.603" x2="16.18" y2="15.945" gradientUnits="userSpaceOnUse"><stop stop-color="#341B21"/><stop offset="1" stop-color="#341B21" stop-opacity="0"/></linearGradient><linearGradient id="aj" x1="14.894" y1="18.987" x2="15.329" y2="18.299" gradientUnits="userSpaceOnUse"><stop stop-color="#564848"/><stop offset=".663" stop-color="#564848" stop-opacity="0"/></linearGradient><linearGradient id="ao" x1="18.891" y1="14.626" x2="18.577" y2="14.82" gradientUnits="userSpaceOnUse"><stop stop-color="#B4948D"/><stop offset="1" stop-color="#B4948D" stop-opacity="0"/></linearGradient><linearGradient id="ar" x1="14.49" y1="14.626" x2="14.176" y2="14.82" gradientUnits="userSpaceOnUse"><stop stop-color="#B4948D"/><stop offset="1" stop-color="#B4948D" stop-opacity="0"/></linearGradient><linearGradient id="av" x1="19.866" y1="11.708" x2="12.584" y2="11.708" gradientUnits="userSpaceOnUse"><stop stop-color="#5D536A"/><stop offset=".554" stop-color="#4B3C5B"/><stop offset="1" stop-color="#393341"/></linearGradient><linearGradient id="aw" x1="9.709" y1="11.989" x2="12.428" y2="11.989" gradientUnits="userSpaceOnUse"><stop stop-color="#4D4C50"/><stop offset="1" stop-color="#393341" stop-opacity="0"/></linearGradient><linearGradient id="az" x1="16.538" y1="14.155" x2="16.538" y2="13.88" gradientUnits="userSpaceOnUse"><stop stop-color="#462659"/><stop offset="1" stop-color="#462659" stop-opacity="0"/></linearGradient><linearGradient id="aB" x1="21.116" y1="18.489" x2="15.022" y2="18.489" gradientUnits="userSpaceOnUse"><stop stop-color="#DFC6ED"/><stop offset="1" stop-color="#C9B0D8"/></linearGradient><linearGradient id="aC" x1="15.941" y1="13.927" x2="15.941" y2="16.029" gradientUnits="userSpaceOnUse"><stop stop-color="#B593CF"/><stop offset="1" stop-color="#C7AED9" stop-opacity="0"/></linearGradient></defs></svg>