<svg width="32" height="32" fill="none" xmlns="http://www.w3.org/2000/svg"><path d="M16.185 15.572c-6.114 0-11.08 4.907-11.08 10.97v3.49h21.65a.5.5 0 0 0 .5-.5v-2.99c0-6.063-4.955-10.97-11.07-10.97Z" fill="url(#a)"/><path d="M16.185 15.572c-6.114 0-11.08 4.907-11.08 10.97v3.49h21.65a.5.5 0 0 0 .5-.5v-2.99c0-6.063-4.955-10.97-11.07-10.97Z" fill="url(#b)"/><path d="M16.185 15.572c-6.114 0-11.08 4.907-11.08 10.97v3.49h21.65a.5.5 0 0 0 .5-.5v-2.99c0-6.063-4.955-10.97-11.07-10.97Z" fill="url(#c)"/><path d="M8.953 30.032v-11.8c-2.356 2.01-3.848 4.986-3.848 8.31v3.49h3.848Z" fill="url(#d)"/><path d="M8.953 30.032v-11.8c-2.356 2.01-3.848 4.986-3.848 8.31v3.49h3.848Z" fill="url(#e)"/><path d="M8.953 30.032v-11.8c-2.356 2.01-3.848 4.986-3.848 8.31v3.49h3.848Z" fill="url(#f)"/><path d="M8.953 30.032v-11.8c-2.356 2.01-3.848 4.986-3.848 8.31v3.49h3.848Z" fill="url(#g)"/><path d="M23.408 30.032v-11.8c2.355 2.01 3.848 4.986 3.848 8.31v2.49a1 1 0 0 1-1 1h-2.848Z" fill="url(#h)"/><path d="M23.408 30.032v-11.8c2.355 2.01 3.848 4.986 3.848 8.31v2.49a1 1 0 0 1-1 1h-2.848Z" fill="url(#i)"/><g filter="url(#j)"><path d="M9.256 17.9c1.974-1.646 4.386-2.423 6.94-2.423 2.553 0 4.965.777 6.939 2.423a.243.243 0 0 1 .061.296c-1.354 2.69-3.772 4.65-7 4.65-3.23 0-5.647-1.96-7.001-4.65a.243.243 0 0 1 .06-.296Z" fill="url(#k)"/><path d="M9.256 17.9c1.974-1.646 4.386-2.423 6.94-2.423 2.553 0 4.965.777 6.939 2.423a.243.243 0 0 1 .061.296c-1.354 2.69-3.772 4.65-7 4.65-3.23 0-5.647-1.96-7.001-4.65a.243.243 0 0 1 .06-.296Z" fill="url(#l)"/><path d="M9.256 17.9c1.974-1.646 4.386-2.423 6.94-2.423 2.553 0 4.965.777 6.939 2.423a.243.243 0 0 1 .061.296c-1.354 2.69-3.772 4.65-7 4.65-3.23 0-5.647-1.96-7.001-4.65a.243.243 0 0 1 .06-.296Z" fill="url(#m)"/></g><path d="m17.112 19.793-.655.585a.416.416 0 0 1-.554 0l-.654-.585a3.473 3.473 0 0 1-1.149-2.568v-3.113a2.085 2.085 0 0 1 2.086-2.065c1.148 0 2.075.927 2.075 2.075v3.113a3.488 3.488 0 0 1-1.149 2.558Z" fill="url(#n)"/><path d="m16.976 19.915.136-.122a3.489 3.489 0 0 0 1.148-2.549V15.28h-4.15l-.005 1.912c0 .052.003.147 0 .2.045.916.46 1.784 1.144 2.401l.16.143.666-1.009a.13.13 0 0 1 .22 0l.681.988Z" fill="url(#o)"/><path d="M16.185 18.766a2.072 2.072 0 0 1-2.075-2.075v-2.579a2.07 2.07 0 0 1 2.075-2.065c1.149 0 2.076.927 2.076 2.075v2.579a2.083 2.083 0 0 1-2.076 2.065Z" fill="url(#p)"/><path d="M16.185 18.766a2.072 2.072 0 0 1-2.075-2.075v-2.579a2.07 2.07 0 0 1 2.075-2.065c1.149 0 2.076.927 2.076 2.075v2.579a2.083 2.083 0 0 1-2.076 2.065Z" fill="url(#q)"/><path d="M26.969 22.965c.531 0 .959.427.959.959v2.188H26.02v-2.188a.94.94 0 0 1 .948-.96Z" fill="url(#r)"/><path d="M26.969 22.965c.531 0 .959.427.959.959v2.188H26.02v-2.188a.94.94 0 0 1 .948-.96Z" fill="url(#s)"/><path d="M27.093 16.987h-2.901a.505.505 0 0 0-.504.504v3.022c0 .272.222.503.504.503h2.9a.505.505 0 0 0 .505-.503V17.49a.512.512 0 0 0-.504-.504Z" fill="url(#t)"/><path d="M27.093 16.987h-2.901a.505.505 0 0 0-.504.504v3.022c0 .272.222.503.504.503h2.9a.505.505 0 0 0 .505-.503V17.49a.512.512 0 0 0-.504-.504Z" fill="url(#u)"/><path d="M27.093 16.987h-2.901a.505.505 0 0 0-.504.504v3.022c0 .272.222.503.504.503h2.9a.505.505 0 0 0 .505-.503V17.49a.512.512 0 0 0-.504-.504Z" fill="url(#v)"/><path d="M27.093 16.987h-2.901a.505.505 0 0 0-.504.504v3.022c0 .272.222.503.504.503h2.9a.505.505 0 0 0 .505-.503V17.49a.512.512 0 0 0-.504-.504Z" fill="url(#w)"/><path d="M27.093 16.987h-2.901a.505.505 0 0 0-.504.504v3.022c0 .272.222.503.504.503h2.9a.505.505 0 0 0 .505-.503V17.49a.512.512 0 0 0-.504-.504Z" fill="url(#x)"/><path d="M23.188 16.987h-.613a.505.505 0 0 0-.504.504v3.022c0 .272.222.503.504.503h.613a.505.505 0 0 0 .504-.503V17.49a.512.512 0 0 0-.504-.504Z" fill="url(#y)"/><path d="M23.188 16.987h-.613a.505.505 0 0 0-.504.504v3.022c0 .272.222.503.504.503h.613a.505.505 0 0 0 .504-.503V17.49a.512.512 0 0 0-.504-.504Z" fill="url(#z)"/><path d="M23.188 16.987h-.613a.505.505 0 0 0-.504.504v3.022c0 .272.222.503.504.503h.613a.505.505 0 0 0 .504-.503V17.49a.512.512 0 0 0-.504-.504Z" fill="url(#A)"/><path d="M23.188 16.987h-.613a.505.505 0 0 0-.504.504v3.022c0 .272.222.503.504.503h.613a.505.505 0 0 0 .504-.503V17.49a.512.512 0 0 0-.504-.504Z" fill="url(#B)"/><path d="M28.713 16.987H28.1a.505.505 0 0 0-.503.504v3.022c0 .272.221.503.503.503h.613a.505.505 0 0 0 .504-.503V17.49a.512.512 0 0 0-.503-.504Z" fill="url(#C)"/><path d="M28.713 16.987H28.1a.505.505 0 0 0-.503.504v3.022c0 .272.221.503.503.503h.613a.505.505 0 0 0 .504-.503V17.49a.512.512 0 0 0-.503-.504Z" fill="url(#D)"/><path d="M28.713 16.987H28.1a.505.505 0 0 0-.503.504v3.022c0 .272.221.503.503.503h.613a.505.505 0 0 0 .504-.503V17.49a.512.512 0 0 0-.503-.504Z" fill="url(#E)"/><path d="M24.889 21.103v6.426h1.51v-6.426h-1.51Z" fill="url(#F)"/><path d="M24.889 21.103v6.426h1.51v-6.426h-1.51Z" fill="url(#G)"/><g filter="url(#H)"><path d="M23.613 25.358c0-.402.325-.732.726-.732h2.392a1.2 1.2 0 0 1 1.2 1.2v3.206a1 1 0 0 1-1 1h-2.592a.731.731 0 0 1-.319-1.389.735.735 0 0 1 0-1.314.735.735 0 0 1 0-1.314.735.735 0 0 1-.407-.657Z" fill="url(#I)"/><path d="M23.613 25.358c0-.402.325-.732.726-.732h2.392a1.2 1.2 0 0 1 1.2 1.2v3.206a1 1 0 0 1-1 1h-2.592a.731.731 0 0 1-.319-1.389.735.735 0 0 1 0-1.314.735.735 0 0 1 0-1.314.735.735 0 0 1-.407-.657Z" fill="url(#J)"/><path d="M23.613 25.358c0-.402.325-.732.726-.732h2.392a1.2 1.2 0 0 1 1.2 1.2v3.206a1 1 0 0 1-1 1h-2.592a.731.731 0 0 1-.319-1.389.735.735 0 0 1 0-1.314.735.735 0 0 1 0-1.314.735.735 0 0 1-.407-.657Z" fill="url(#K)"/><path d="M23.613 25.358c0-.402.325-.732.726-.732h2.392a1.2 1.2 0 0 1 1.2 1.2v3.206a1 1 0 0 1-1 1h-2.592a.731.731 0 0 1-.319-1.389.735.735 0 0 1 0-1.314.735.735 0 0 1 0-1.314.735.735 0 0 1-.407-.657Z" fill="url(#L)"/><path d="M23.613 25.358c0-.402.325-.732.726-.732h2.392a1.2 1.2 0 0 1 1.2 1.2v3.206a1 1 0 0 1-1 1h-2.592a.731.731 0 0 1-.319-1.389.735.735 0 0 1 0-1.314.735.735 0 0 1 0-1.314.735.735 0 0 1-.407-.657Z" fill="url(#M)"/></g><rect x="24.267" y="21.016" width="2.773" height="1.082" rx=".541" fill="url(#N)"/><rect x="24.267" y="21.016" width="2.773" height="1.082" rx=".541" fill="url(#O)"/><g filter="url(#P)"><path fill="url(#Q)" d="M15.849 23.575h.692v6.326h-.692z"/></g><g filter="url(#R)"><path fill="url(#S)" d="M11.843 23.575h.692v6.326h-.692z"/></g><g filter="url(#T)"><path fill="url(#U)" d="M19.836 23.575h.692v6.326h-.692z"/></g><g filter="url(#V)"><path d="M24.133 26.024h1.797" stroke="url(#W)" stroke-width=".1" stroke-linecap="round"/></g><g filter="url(#X)"><path d="M24.055 27.329h1.797" stroke="url(#Y)" stroke-width=".1" stroke-linecap="round"/></g><g filter="url(#Z)"><path d="M24.133 28.634h1.797" stroke="url(#aa)" stroke-width=".1" stroke-linecap="round"/></g><g filter="url(#ab)"><circle cx="11.415" cy="10.578" r="1.671" fill="url(#ac)"/></g><g filter="url(#ad)"><circle cx="11.415" cy="10.578" r=".996" fill="url(#ae)"/></g><g filter="url(#af)"><circle cx="20.937" cy="10.578" r="1.671" fill="url(#ag)"/><circle cx="20.937" cy="10.578" r="1.671" fill="url(#ah)"/></g><g filter="url(#ai)"><circle cx="20.937" cy="10.578" r=".996" fill="#463133"/><circle cx="20.937" cy="10.578" r=".996" fill="url(#aj)"/><circle cx="20.937" cy="10.578" r=".996" fill="url(#ak)"/></g><g filter="url(#al)"><path d="M11.062 9.964a.725.725 0 0 0 .05.002s-.054-.854-.108-1.441c0-.267.107-.588.322-.748l.161-.16c.269-.214.376-.534.376-.854v-.854a.52.52 0 0 1 .43-.534c.644-.16 1.986-.427 3.92-.427 1.932 0 3.274.267 3.918.427.215.053.43.267.43.534v.854c0 .32.161.64.376.854.502.352.471.546.43.96-.054.535-.108 1.442-.108 1.442h.018l-.266 3.962c-.16 1.771-1.553 3.006-3.213 3.006h-3.214c-1.714 0-3.053-1.234-3.213-3.006l-.309-4.017Z" fill="url(#am)"/><path d="M11.062 9.964a.725.725 0 0 0 .05.002s-.054-.854-.108-1.441c0-.267.107-.588.322-.748l.161-.16c.269-.214.376-.534.376-.854v-.854a.52.52 0 0 1 .43-.534c.644-.16 1.986-.427 3.92-.427 1.932 0 3.274.267 3.918.427.215.053.43.267.43.534v.854c0 .32.161.64.376.854.502.352.471.546.43.96-.054.535-.108 1.442-.108 1.442h.018l-.266 3.962c-.16 1.771-1.553 3.006-3.213 3.006h-3.214c-1.714 0-3.053-1.234-3.213-3.006l-.309-4.017Z" fill="url(#an)"/><path d="M11.062 9.964a.725.725 0 0 0 .05.002s-.054-.854-.108-1.441c0-.267.107-.588.322-.748l.161-.16c.269-.214.376-.534.376-.854v-.854a.52.52 0 0 1 .43-.534c.644-.16 1.986-.427 3.92-.427 1.932 0 3.274.267 3.918.427.215.053.43.267.43.534v.854c0 .32.161.64.376.854.502.352.471.546.43.96-.054.535-.108 1.442-.108 1.442h.018l-.266 3.962c-.16 1.771-1.553 3.006-3.213 3.006h-3.214c-1.714 0-3.053-1.234-3.213-3.006l-.309-4.017Z" fill="url(#ao)"/><path d="M11.062 9.964a.725.725 0 0 0 .05.002s-.054-.854-.108-1.441c0-.267.107-.588.322-.748l.161-.16c.269-.214.376-.534.376-.854v-.854a.52.52 0 0 1 .43-.534c.644-.16 1.986-.427 3.92-.427 1.932 0 3.274.267 3.918.427.215.053.43.267.43.534v.854c0 .32.161.64.376.854.502.352.471.546.43.96-.054.535-.108 1.442-.108 1.442h.018l-.266 3.962c-.16 1.771-1.553 3.006-3.213 3.006h-3.214c-1.714 0-3.053-1.234-3.213-3.006l-.309-4.017Z" fill="url(#ap)"/><path d="M11.062 9.964a.725.725 0 0 0 .05.002s-.054-.854-.108-1.441c0-.267.107-.588.322-.748l.161-.16c.269-.214.376-.534.376-.854v-.854a.52.52 0 0 1 .43-.534c.644-.16 1.986-.427 3.92-.427 1.932 0 3.274.267 3.918.427.215.053.43.267.43.534v.854c0 .32.161.64.376.854.502.352.471.546.43.96-.054.535-.108 1.442-.108 1.442h.018l-.266 3.962c-.16 1.771-1.553 3.006-3.213 3.006h-3.214c-1.714 0-3.053-1.234-3.213-3.006l-.309-4.017Z" fill="url(#aq)"/><path d="M11.062 9.964a.725.725 0 0 0 .05.002s-.054-.854-.108-1.441c0-.267.107-.588.322-.748l.161-.16c.269-.214.376-.534.376-.854v-.854a.52.52 0 0 1 .43-.534c.644-.16 1.986-.427 3.92-.427 1.932 0 3.274.267 3.918.427.215.053.43.267.43.534v.854c0 .32.161.64.376.854.502.352.471.546.43.96-.054.535-.108 1.442-.108 1.442h.018l-.266 3.962c-.16 1.771-1.553 3.006-3.213 3.006h-3.214c-1.714 0-3.053-1.234-3.213-3.006l-.309-4.017Z" fill="url(#ar)"/></g><g filter="url(#as)"><path d="m20.134 4.948-3.08 1.027a1.048 1.048 0 0 0 .47 2.033l3.063-.41-.453-2.65Z" fill="url(#at)"/></g><g filter="url(#au)"><path d="m20.99 4.094.43.213c.752.374 1.181 1.228 1.02 2.135l-.59 3.043c-.053.315-.26.526-.573.534h-.018s.054-.907.107-1.441c.044-.434-.032-.566-.43-.961-.214-.214-.375-.534-.375-.854v-.854c0-.267-.215-.48-.43-.534-.644-.16-1.986-.427-3.919-.427s-3.275.267-3.92.427a.52.52 0 0 0-.429.534v.854c0 .32-.107.64-.376.854l-.16.16c-.216.16-.323.48-.323.747.054.588.107 1.442.107 1.442-.016 0-.033 0-.049-.002a.634.634 0 0 1-.595-.532l-.59-3.043c-.108-.854.322-1.708 1.073-2.082l.43-.213a7.68 7.68 0 0 0 .805-.588l.967-1.014c.59-.534 1.45-.694 2.201-.32.537.16 1.127.16 1.664 0 .806-.267 1.718-.054 2.363.534l.805.8c.215.267.483.427.805.588Z" fill="#21181B"/><path d="m20.99 4.094.43.213c.752.374 1.181 1.228 1.02 2.135l-.59 3.043c-.053.315-.26.526-.573.534h-.018s.054-.907.107-1.441c.044-.434-.032-.566-.43-.961-.214-.214-.375-.534-.375-.854v-.854c0-.267-.215-.48-.43-.534-.644-.16-1.986-.427-3.919-.427s-3.275.267-3.92.427a.52.52 0 0 0-.429.534v.854c0 .32-.107.64-.376.854l-.16.16c-.216.16-.323.48-.323.747.054.588.107 1.442.107 1.442-.016 0-.033 0-.049-.002a.634.634 0 0 1-.595-.532l-.59-3.043c-.108-.854.322-1.708 1.073-2.082l.43-.213a7.68 7.68 0 0 0 .805-.588l.967-1.014c.59-.534 1.45-.694 2.201-.32.537.16 1.127.16 1.664 0 .806-.267 1.718-.054 2.363.534l.805.8c.215.267.483.427.805.588Z" fill="url(#av)"/><path d="m20.99 4.094.43.213c.752.374 1.181 1.228 1.02 2.135l-.59 3.043c-.053.315-.26.526-.573.534h-.018s.054-.907.107-1.441c.044-.434-.032-.566-.43-.961-.214-.214-.375-.534-.375-.854v-.854c0-.267-.215-.48-.43-.534-.644-.16-1.986-.427-3.919-.427s-3.275.267-3.92.427a.52.52 0 0 0-.429.534v.854c0 .32-.107.64-.376.854l-.16.16c-.216.16-.323.48-.323.747.054.588.107 1.442.107 1.442-.016 0-.033 0-.049-.002a.634.634 0 0 1-.595-.532l-.59-3.043c-.108-.854.322-1.708 1.073-2.082l.43-.213a7.68 7.68 0 0 0 .805-.588l.967-1.014c.59-.534 1.45-.694 2.201-.32.537.16 1.127.16 1.664 0 .806-.267 1.718-.054 2.363.534l.805.8c.215.267.483.427.805.588Z" fill="url(#aw)"/><path d="m20.99 4.094.43.213c.752.374 1.181 1.228 1.02 2.135l-.59 3.043c-.053.315-.26.526-.573.534h-.018s.054-.907.107-1.441c.044-.434-.032-.566-.43-.961-.214-.214-.375-.534-.375-.854v-.854c0-.267-.215-.48-.43-.534-.644-.16-1.986-.427-3.919-.427s-3.275.267-3.92.427a.52.52 0 0 0-.429.534v.854c0 .32-.107.64-.376.854l-.16.16c-.216.16-.323.48-.323.747.054.588.107 1.442.107 1.442-.016 0-.033 0-.049-.002a.634.634 0 0 1-.595-.532l-.59-3.043c-.108-.854.322-1.708 1.073-2.082l.43-.213a7.68 7.68 0 0 0 .805-.588l.967-1.014c.59-.534 1.45-.694 2.201-.32.537.16 1.127.16 1.664 0 .806-.267 1.718-.054 2.363.534l.805.8c.215.267.483.427.805.588Z" fill="url(#ax)"/><path d="m20.99 4.094.43.213c.752.374 1.181 1.228 1.02 2.135l-.59 3.043c-.053.315-.26.526-.573.534h-.018s.054-.907.107-1.441c.044-.434-.032-.566-.43-.961-.214-.214-.375-.534-.375-.854v-.854c0-.267-.215-.48-.43-.534-.644-.16-1.986-.427-3.919-.427s-3.275.267-3.92.427a.52.52 0 0 0-.429.534v.854c0 .32-.107.64-.376.854l-.16.16c-.216.16-.323.48-.323.747.054.588.107 1.442.107 1.442-.016 0-.033 0-.049-.002a.634.634 0 0 1-.595-.532l-.59-3.043c-.108-.854.322-1.708 1.073-2.082l.43-.213a7.68 7.68 0 0 0 .805-.588l.967-1.014c.59-.534 1.45-.694 2.201-.32.537.16 1.127.16 1.664 0 .806-.267 1.718-.054 2.363.534l.805.8c.215.267.483.427.805.588Z" fill="url(#ay)"/></g><g filter="url(#az)"><path d="m15.891 10.455-.82 1.701c-.102.35.142.7.488.7h.738c.346 0 .59-.355.488-.7l-.498-1.7c-.107-.378-.284-.378-.396 0Z" fill="#332024"/></g><g filter="url(#aA)"><path d="m15.784 10.292-.531 1.701a.54.54 0 0 0 .52.7h.788c.369 0 .63-.355.52-.7l-.531-1.701c-.114-.377-.646-.377-.766 0Z" fill="#4B3034"/><path d="m15.784 10.292-.531 1.701a.54.54 0 0 0 .52.7h.788c.369 0 .63-.355.52-.7l-.531-1.701c-.114-.377-.646-.377-.766 0Z" fill="url(#aB)"/><path d="m15.784 10.292-.531 1.701a.54.54 0 0 0 .52.7h.788c.369 0 .63-.355.52-.7l-.531-1.701c-.114-.377-.646-.377-.766 0Z" fill="url(#aC)"/><path d="m15.784 10.292-.531 1.701a.54.54 0 0 0 .52.7h.788c.369 0 .63-.355.52-.7l-.531-1.701c-.114-.377-.646-.377-.766 0Z" fill="url(#aD)"/><path d="m15.784 10.292-.531 1.701a.54.54 0 0 0 .52.7h.788c.369 0 .63-.355.52-.7l-.531-1.701c-.114-.377-.646-.377-.766 0Z" fill="url(#aE)"/></g><path d="m15.784 10.292-.531 1.701a.54.54 0 0 0 .52.7h.788c.369 0 .63-.355.52-.7l-.531-1.701c-.114-.377-.646-.377-.766 0Z" fill="url(#aF)"/><path d="M14.804 13.337c.393.206.863.323 1.363.323.505 0 .97-.117 1.363-.323a.203.203 0 0 1 .242.04.19.19 0 0 1 .021.242m-2.99-.282 2.948.254m-2.947-.254a.203.203 0 0 0-.242.042.187.187 0 0 0-.02.24m.262-.282-.222.254m3.211.028-.041-.028m.041.028-.041-.028m.041.028a1.945 1.945 0 0 1-1.626.869 1.945 1.945 0 0 1-1.626-.87m3.21-.027c-.335.508-.919.847-1.584.847s-1.25-.34-1.585-.847m-.04.028.04-.028m-.04.028h-.001l.041-.028" fill="#2A0219" stroke="url(#aG)" stroke-width=".1"/><g filter="url(#aH)"><path d="m19.89 7.855-.001-.001-.002-.002-.005-.003-.012-.01a1.383 1.383 0 0 0-.155-.107c-.1-.063-.24-.14-.42-.211a2.836 2.836 0 0 0-1.494-.159.534.534 0 1 0 .167 1.056c.398-.063.717.01.935.096a1.521 1.521 0 0 1 .308.166.534.534 0 0 0 .68-.825Z" fill="#1E1E1E"/></g><g filter="url(#aI)"><path d="m12.39 7.855.002-.001.001-.002.005-.003.012-.01a1.618 1.618 0 0 1 .155-.107c.1-.063.241-.14.42-.211.36-.142.872-.257 1.494-.159a.534.534 0 0 1-.167 1.056 1.767 1.767 0 0 0-.934.096 1.517 1.517 0 0 0-.309.166.534.534 0 0 1-.68-.825Z" fill="#1E1E1E"/></g><path d="M18.557 9.146c.654 0 1.206.45 1.356 1.059a.274.274 0 0 1-.268.341h-2.233a.23.23 0 0 1-.227-.272 1.399 1.399 0 0 1 1.372-1.128Z" fill="#fff"/><path d="M18.35 9.417a.893.893 0 0 1 .86 1.129h-1.725a.897.897 0 0 1 .865-1.129Z" fill="url(#aJ)"/><path d="M17.838 10.31a.51.51 0 0 1 .512-.51.51.51 0 0 1 .455.746h-.906a.462.462 0 0 1-.06-.235Z" fill="#000"/><g filter="url(#aK)"><path d="M18.284 9.606c.064.086-.069.19-.22.302-.151.113-.264.193-.327.108-.064-.085.007-.246.158-.359.152-.113.326-.136.39-.05Z" fill="#C7A7A3"/><path d="M18.284 9.606c.064.086-.069.19-.22.302-.151.113-.264.193-.327.108-.064-.085.007-.246.158-.359.152-.113.326-.136.39-.05Z" fill="url(#aL)"/></g><g filter="url(#aM)"><path d="M19.145 10.193a.84.84 0 0 0-.231-.463l-.26.285.117.229.374-.051Z" fill="url(#aN)"/></g><path d="M13.772 9.146c-.654 0-1.206.45-1.356 1.06a.274.274 0 0 0 .268.34h2.233a.23.23 0 0 0 .227-.272 1.402 1.402 0 0 0-1.372-1.128Z" fill="#fff"/><path d="M13.979 9.417a.893.893 0 0 0-.86 1.13h1.725a.916.916 0 0 0 .032-.236.9.9 0 0 0-.897-.894Z" fill="url(#aO)"/><path d="M14.49 10.31a.51.51 0 0 0-.511-.51.51.51 0 0 0-.455.746h.905c.037-.069.061-.15.061-.235Z" fill="#000"/><g filter="url(#aP)"><path d="M14.795 10.206c0-.289-.235-.481-.298-.54l-.289.28.178.361.409-.101Z" fill="url(#aQ)"/></g><g filter="url(#aR)" transform="rotate(-27.914 13.71 9.799)"><ellipse cx="13.709" cy="9.799" rx=".39" ry=".197" fill="#C7A7A3" fill-opacity=".9"/><ellipse cx="13.709" cy="9.799" rx=".39" ry=".197" fill="url(#aS)"/></g><g filter="url(#aT)"><path d="M17.83 7.71c.43-.075 1.27-.054 1.85.398" stroke="url(#aU)" stroke-width=".25" stroke-linecap="round"/></g><g filter="url(#aV)"><path d="M12.605 8.23c.327-.29 1.042-.595 1.929-.454" stroke="url(#aW)" stroke-width=".25" stroke-linecap="round"/></g><g filter="url(#aX)"><path d="M11.63 5.762v.898c-.008.149-.07.482-.259.623" stroke="url(#aY)" stroke-width=".25" stroke-linecap="round"/></g><defs><linearGradient id="a" x1="16.182" y1="15.572" x2="16.182" y2="30.457" gradientUnits="userSpaceOnUse"><stop stop-color="#546"/><stop offset="1" stop-color="#544168"/></linearGradient><linearGradient id="b" x1="23.61" y1="26.625" x2="21.078" y2="26.657" gradientUnits="userSpaceOnUse"><stop stop-color="#6E6478"/><stop offset="1" stop-color="#493757" stop-opacity="0"/></linearGradient><linearGradient id="c" x1="8.637" y1="26.441" x2="10.853" y2="26.441" gradientUnits="userSpaceOnUse"><stop stop-color="#5A4E68"/><stop offset="1" stop-color="#5A4E68" stop-opacity="0"/></linearGradient><linearGradient id="g" x1="9.101" y1="28.098" x2="8.666" y2="28.098" gradientUnits="userSpaceOnUse"><stop offset=".444" stop-color="#433850"/><stop offset="1" stop-color="#433850" stop-opacity="0"/></linearGradient><linearGradient id="k" x1="22.922" y1="18.532" x2="17.047" y2="18.532" gradientUnits="userSpaceOnUse"><stop stop-color="#564D5B"/><stop offset="1" stop-color="#433945"/></linearGradient><linearGradient id="n" x1="17.313" y1="19.11" x2="16.016" y2="20.032" gradientUnits="userSpaceOnUse"><stop offset=".048" stop-color="#978B8D"/><stop offset="1" stop-color="#ADA3A2"/></linearGradient><linearGradient id="t" x1="27.922" y1="20.751" x2="24.547" y2="20.376" gradientUnits="userSpaceOnUse"><stop offset=".15" stop-color="#8E6B62"/><stop offset="1" stop-color="#663E3D"/></linearGradient><linearGradient id="u" x1="25.642" y1="21.016" x2="25.642" y2="20.501" gradientUnits="userSpaceOnUse"><stop stop-color="#703E47"/><stop offset="1" stop-color="#703E47" stop-opacity="0"/></linearGradient><linearGradient id="w" x1="25.642" y1="16.871" x2="25.642" y2="17.501" gradientUnits="userSpaceOnUse"><stop stop-color="#755144"/><stop offset="1" stop-color="#755144" stop-opacity="0"/></linearGradient><linearGradient id="x" x1="23.345" y1="19.218" x2="24.087" y2="19.218" gradientUnits="userSpaceOnUse"><stop stop-color="#4C1912"/><stop offset="1" stop-color="#4C1912" stop-opacity="0"/></linearGradient><linearGradient id="y" x1="23.516" y1="19.002" x2="22.219" y2="19.002" gradientUnits="userSpaceOnUse"><stop offset=".277" stop-color="#6D5150"/><stop offset=".819" stop-color="#64423E"/></linearGradient><linearGradient id="z" x1="23.766" y1="19.282" x2="23.375" y2="19.282" gradientUnits="userSpaceOnUse"><stop stop-color="#52251C"/><stop offset="1" stop-color="#532820" stop-opacity="0"/></linearGradient><linearGradient id="A" x1="22.97" y1="21.112" x2="22.97" y2="20.45" gradientUnits="userSpaceOnUse"><stop stop-color="#663848"/><stop offset="1" stop-color="#663848" stop-opacity="0"/></linearGradient><linearGradient id="C" x1="29.217" y1="19.449" x2="27.597" y2="19.449" gradientUnits="userSpaceOnUse"><stop stop-color="#8B6961"/><stop offset="1" stop-color="#62312B"/></linearGradient><linearGradient id="D" x1="28.516" y1="21.087" x2="28.516" y2="20.563" gradientUnits="userSpaceOnUse"><stop stop-color="#7A464A"/><stop offset="1" stop-color="#7A464A" stop-opacity="0"/></linearGradient><linearGradient id="G" x1="25.644" y1="22.028" x2="25.672" y2="22.384" gradientUnits="userSpaceOnUse"><stop stop-color="#523135"/><stop offset="1" stop-color="#523135" stop-opacity="0"/></linearGradient><linearGradient id="I" x1="27.641" y1="28.095" x2="23.613" y2="28.095" gradientUnits="userSpaceOnUse"><stop offset=".146" stop-color="#533632"/><stop offset=".861" stop-color="#3F282A"/></linearGradient><linearGradient id="O" x1="25.654" y1="20.845" x2="25.654" y2="21.305" gradientUnits="userSpaceOnUse"><stop offset=".22" stop-color="#54201C"/><stop offset="1" stop-color="#54201C" stop-opacity="0"/></linearGradient><linearGradient id="Q" x1="17.232" y1="29.635" x2="17.232" y2="22.959" gradientUnits="userSpaceOnUse"><stop stop-color="#3F3647"/><stop offset="1" stop-color="#3F3647" stop-opacity="0"/></linearGradient><linearGradient id="S" x1="13.225" y1="29.635" x2="13.225" y2="22.959" gradientUnits="userSpaceOnUse"><stop stop-color="#3F3647"/><stop offset="1" stop-color="#3F3647" stop-opacity="0"/></linearGradient><linearGradient id="U" x1="21.219" y1="29.635" x2="21.219" y2="22.959" gradientUnits="userSpaceOnUse"><stop stop-color="#3F3647"/><stop offset="1" stop-color="#3F3647" stop-opacity="0"/></linearGradient><linearGradient id="W" x1="24.133" y1="26.102" x2="25.842" y2="26.102" gradientUnits="userSpaceOnUse"><stop stop-color="#2E1C1E"/><stop offset="1" stop-color="#2E1C1E" stop-opacity="0"/></linearGradient><linearGradient id="Y" x1="24.055" y1="27.407" x2="25.764" y2="27.407" gradientUnits="userSpaceOnUse"><stop stop-color="#2E1C1E"/><stop offset="1" stop-color="#2E1C1E" stop-opacity="0"/></linearGradient><linearGradient id="aa" x1="24.133" y1="28.712" x2="25.842" y2="28.712" gradientUnits="userSpaceOnUse"><stop stop-color="#2E1C1E"/><stop offset="1" stop-color="#2E1C1E" stop-opacity="0"/></linearGradient><linearGradient id="ae" x1="11.415" y1="10.856" x2="10.773" y2="10.856" gradientUnits="userSpaceOnUse"><stop stop-color="#281920"/><stop offset="1" stop-color="#27161D"/></linearGradient><linearGradient id="ag" x1="22.024" y1="9.485" x2="21.205" y2="12.024" gradientUnits="userSpaceOnUse"><stop stop-color="#635251"/><stop offset="1" stop-color="#452A31"/></linearGradient><linearGradient id="am" x1="20.207" y1="10.967" x2="12.563" y2="12.107" gradientUnits="userSpaceOnUse"><stop stop-color="#533531"/><stop offset="1" stop-color="#3C2828"/></linearGradient><linearGradient id="an" x1="10.766" y1="13.666" x2="13.033" y2="13.524" gradientUnits="userSpaceOnUse"><stop offset=".283" stop-color="#564440"/><stop offset="1" stop-color="#564440" stop-opacity="0"/></linearGradient><linearGradient id="at" x1="17.127" y1="7.587" x2="25.752" y2="4.618" gradientUnits="userSpaceOnUse"><stop stop-color="#675454"/><stop offset="1" stop-color="#685654" stop-opacity="0"/></linearGradient><linearGradient id="aB" x1="15.302" y1="11.627" x2="16.241" y2="11.627" gradientUnits="userSpaceOnUse"><stop stop-color="#3D2928"/><stop offset="1" stop-color="#3D2928" stop-opacity="0"/></linearGradient><linearGradient id="aC" x1="17.106" y1="11.95" x2="16.08" y2="11.935" gradientUnits="userSpaceOnUse"><stop stop-color="#624D4B"/><stop offset="1" stop-color="#624D4B" stop-opacity="0"/></linearGradient><linearGradient id="aD" x1="16.362" y1="12.693" x2="16.362" y2="12.119" gradientUnits="userSpaceOnUse"><stop stop-color="#3F222F"/><stop offset="1" stop-color="#3F222F" stop-opacity="0"/></linearGradient><linearGradient id="aF" x1="16.293" y1="12.735" x2="16.293" y2="12.567" gradientUnits="userSpaceOnUse"><stop stop-color="#31171F"/><stop offset="1" stop-color="#31171F" stop-opacity="0"/></linearGradient><linearGradient id="aG" x1="15.129" y1="14.31" x2="15.564" y2="13.621" gradientUnits="userSpaceOnUse"><stop stop-color="#564848"/><stop offset=".663" stop-color="#564848" stop-opacity="0"/></linearGradient><linearGradient id="aN" x1="19.127" y1="9.949" x2="18.813" y2="10.142" gradientUnits="userSpaceOnUse"><stop stop-color="#B4948D"/><stop offset="1" stop-color="#B4948D" stop-opacity="0"/></linearGradient><linearGradient id="aQ" x1="14.725" y1="9.949" x2="14.411" y2="10.142" gradientUnits="userSpaceOnUse"><stop stop-color="#B4948D"/><stop offset="1" stop-color="#B4948D" stop-opacity="0"/></linearGradient><linearGradient id="aU" x1="19.142" y1="7.807" x2="18.722" y2="6.948" gradientUnits="userSpaceOnUse"><stop stop-color="#353435"/><stop offset="1" stop-color="#353435" stop-opacity="0"/></linearGradient><linearGradient id="aW" x1="13.832" y1="7.679" x2="12.642" y2="7.18" gradientUnits="userSpaceOnUse"><stop stop-color="#353435"/><stop offset="1" stop-color="#353435" stop-opacity="0"/></linearGradient><linearGradient id="aY" x1="11.501" y1="5.663" x2="11.501" y2="7.822" gradientUnits="userSpaceOnUse"><stop stop-color="#3C393A"/><stop offset="1" stop-color="#3C393A" stop-opacity="0"/></linearGradient><radialGradient id="d" cx="0" cy="0" r="1" gradientUnits="userSpaceOnUse" gradientTransform="matrix(0 -19.1787 5.74827 0 5.105 30.032)"><stop stop-color="#766C83"/><stop offset=".441" stop-color="#58496A"/><stop offset="1" stop-color="#4D4159"/></radialGradient><radialGradient id="e" cx="0" cy="0" r="1" gradientUnits="userSpaceOnUse" gradientTransform="matrix(0 -10.533 .84225 0 8.953 30.032)"><stop offset=".286" stop-color="#4F445B"/><stop offset="1" stop-color="#4F445B" stop-opacity="0"/></radialGradient><radialGradient id="f" cx="0" cy="0" r="1" gradientUnits="userSpaceOnUse" gradientTransform="matrix(0 7.20963 -.92291 0 8.953 23.083)"><stop stop-color="#4E425A"/><stop offset="1" stop-color="#4E425A" stop-opacity="0"/></radialGradient><radialGradient id="h" cx="0" cy="0" r="1" gradientUnits="userSpaceOnUse" gradientTransform="rotate(-100.677 25.115 4.515) scale(10.3854 2.97327)"><stop stop-color="#736782"/><stop offset="1" stop-color="#5F5070"/></radialGradient><radialGradient id="i" cx="0" cy="0" r="1" gradientUnits="userSpaceOnUse" gradientTransform="rotate(87.36 -.522 23.758) scale(12.0609 .71892)"><stop offset=".177" stop-color="#3F2A51"/><stop offset="1" stop-color="#3F2A51" stop-opacity="0"/></radialGradient><radialGradient id="l" cx="0" cy="0" r="1" gradientUnits="userSpaceOnUse" gradientTransform="rotate(43.259 -10.62 27.844) scale(8.18526 14.7835)"><stop offset=".91" stop-color="#59545E" stop-opacity="0"/><stop offset=".937" stop-color="#59545E"/></radialGradient><radialGradient id="m" cx="0" cy="0" r="1" gradientUnits="userSpaceOnUse" gradientTransform="matrix(-5.11642 0 0 -3.80242 16.195 16.422)"><stop stop-color="#3B2321"/><stop offset="1" stop-color="#3B2321" stop-opacity="0"/></radialGradient><radialGradient id="o" cx="0" cy="0" r="1" gradientUnits="userSpaceOnUse" gradientTransform="matrix(0 3.03125 -2.76048 0 16.183 18.532)"><stop offset=".464" stop-color="#D7CACE"/><stop offset="1" stop-color="#897576"/></radialGradient><radialGradient id="p" cx="0" cy="0" r="1" gradientUnits="userSpaceOnUse" gradientTransform="matrix(2.34375 0 0 1.78006 14.969 17.631)"><stop stop-color="#483232"/><stop offset="1" stop-color="#381F21"/></radialGradient><radialGradient id="q" cx="0" cy="0" r="1" gradientUnits="userSpaceOnUse" gradientTransform="matrix(.11168 4.2505 -2.51652 .06612 16.185 15.406)"><stop offset=".793" stop-color="#1B0A0C" stop-opacity="0"/><stop offset="1" stop-color="#1B0A0C"/></radialGradient><radialGradient id="r" cx="0" cy="0" r="1" gradientUnits="userSpaceOnUse" gradientTransform="rotate(141.307 9.816 16.717) scale(2.01873 2.49606)"><stop offset=".583" stop-color="#4B312D"/><stop offset="1" stop-color="#2B1820"/></radialGradient><radialGradient id="s" cx="0" cy="0" r="1" gradientUnits="userSpaceOnUse" gradientTransform="matrix(.75156 -.57402 .30002 .3928 27.695 23.44)"><stop offset=".132" stop-color="#675655"/><stop offset="1" stop-color="#675655" stop-opacity="0"/></radialGradient><radialGradient id="v" cx="0" cy="0" r="1" gradientUnits="userSpaceOnUse" gradientTransform="matrix(-1.9294 0 0 -.32098 26.88 17.425)"><stop stop-color="#8A6A62"/><stop offset="1" stop-color="#8A6A62" stop-opacity="0"/></radialGradient><radialGradient id="B" cx="0" cy="0" r="1" gradientUnits="userSpaceOnUse" gradientTransform="matrix(-1.07813 0 0 -.3432 23.594 17.25)"><stop stop-color="#745E58"/><stop offset="1" stop-color="#745E58" stop-opacity="0"/></radialGradient><radialGradient id="E" cx="0" cy="0" r="1" gradientUnits="userSpaceOnUse" gradientTransform="matrix(-1.0625 0 0 -.29688 29.36 17.5)"><stop stop-color="#83645E"/><stop offset="1" stop-color="#83645E" stop-opacity="0"/></radialGradient><radialGradient id="F" cx="0" cy="0" r="1" gradientUnits="userSpaceOnUse" gradientTransform="matrix(-1.15625 0 0 -6.89354 26.282 24.316)"><stop stop-color="#82625C"/><stop offset=".851" stop-color="#754636"/></radialGradient><radialGradient id="J" cx="0" cy="0" r="1" gradientUnits="userSpaceOnUse" gradientTransform="matrix(0 .8017 -1.35439 0 26.05 25.337)"><stop offset=".106" stop-color="#5E4745"/><stop offset="1" stop-color="#533531" stop-opacity="0"/></radialGradient><radialGradient id="K" cx="0" cy="0" r="1" gradientUnits="userSpaceOnUse" gradientTransform="matrix(0 .85938 -1.45182 0 26.05 26.631)"><stop offset=".109" stop-color="#5E4745"/><stop offset="1" stop-color="#533531" stop-opacity="0"/></radialGradient><radialGradient id="L" cx="0" cy="0" r="1" gradientUnits="userSpaceOnUse" gradientTransform="matrix(0 .71875 -1.21425 0 26.05 27.881)"><stop offset=".109" stop-color="#5E4745"/><stop offset="1" stop-color="#533531" stop-opacity="0"/></radialGradient><radialGradient id="M" cx="0" cy="0" r="1" gradientUnits="userSpaceOnUse" gradientTransform="matrix(0 .79938 -1.7273 0 26.05 29.233)"><stop offset=".186" stop-color="#5E4745"/><stop offset="1" stop-color="#533531" stop-opacity="0"/></radialGradient><radialGradient id="N" cx="0" cy="0" r="1" gradientUnits="userSpaceOnUse" gradientTransform="matrix(-1.97656 0 0 -.375 26.727 21.493)"><stop stop-color="#7C5F5A"/><stop offset="1" stop-color="#5D383B"/></radialGradient><radialGradient id="ac" cx="0" cy="0" r="1" gradientUnits="userSpaceOnUse" gradientTransform="matrix(1.75652 0 0 3.07393 9.744 10.578)"><stop offset=".351" stop-color="#362324"/><stop offset="1" stop-color="#332423"/></radialGradient><radialGradient id="ah" cx="0" cy="0" r="1" gradientUnits="userSpaceOnUse" gradientTransform="matrix(.82748 -.60254 .68772 .94447 21.31 10.312)"><stop offset=".543" stop-color="#40272A"/><stop offset="1" stop-color="#40272A" stop-opacity="0"/></radialGradient><radialGradient id="aj" cx="0" cy="0" r="1" gradientUnits="userSpaceOnUse" gradientTransform="matrix(.82204 -1.51196 .88496 .48114 20.896 11.4)"><stop offset=".755" stop-color="#31191A" stop-opacity="0"/><stop offset=".916" stop-color="#31191A"/></radialGradient><radialGradient id="ak" cx="0" cy="0" r="1" gradientUnits="userSpaceOnUse" gradientTransform="rotate(44.708 -2.392 30.746) scale(.36518 .47076)"><stop stop-color="#352123"/><stop offset="1" stop-color="#352123" stop-opacity="0"/></radialGradient><radialGradient id="ao" cx="0" cy="0" r="1" gradientUnits="userSpaceOnUse" gradientTransform="matrix(0 7.11187 -9.65399 0 15.865 10.378)"><stop offset=".561" stop-color="#3D2138" stop-opacity="0"/><stop offset="1" stop-color="#3D2138"/></radialGradient><radialGradient id="ap" cx="0" cy="0" r="1" gradientUnits="userSpaceOnUse" gradientTransform="matrix(0 -1.30832 1.61023 0 18.515 9.305)"><stop stop-color="#412628"/><stop offset="1" stop-color="#412628" stop-opacity="0"/></radialGradient><radialGradient id="aq" cx="0" cy="0" r="1" gradientUnits="userSpaceOnUse" gradientTransform="matrix(0 -1.39218 1.7313 0 13.953 9.271)"><stop stop-color="#351D26"/><stop offset="1" stop-color="#351D26" stop-opacity="0"/></radialGradient><radialGradient id="ar" cx="0" cy="0" r="1" gradientUnits="userSpaceOnUse" gradientTransform="rotate(-166.409 11.217 7.154) scale(2.92567 1.71902)"><stop offset=".136" stop-color="#5B4B4D"/><stop offset="1" stop-color="#5B4B4D" stop-opacity="0"/></radialGradient><radialGradient id="av" cx="0" cy="0" r="1" gradientUnits="userSpaceOnUse" gradientTransform="matrix(.79857 -2.95942 1.09745 .29614 20.516 6.467)"><stop stop-color="#464344"/><stop offset="1" stop-color="#464344" stop-opacity="0"/></radialGradient><radialGradient id="aw" cx="0" cy="0" r="1" gradientUnits="userSpaceOnUse" gradientTransform="matrix(3.82845 .35231 -.18944 2.05853 18.872 4.706)"><stop offset=".122" stop-color="#4A4648"/><stop offset="1" stop-color="#4A4648" stop-opacity="0"/></radialGradient><radialGradient id="ax" cx="0" cy="0" r="1" gradientUnits="userSpaceOnUse" gradientTransform="matrix(0 1.68076 -2.60303 0 16.167 1.968)"><stop stop-color="#423D3F"/><stop offset="1" stop-color="#423D3F" stop-opacity="0"/></radialGradient><radialGradient id="ay" cx="0" cy="0" r="1" gradientUnits="userSpaceOnUse" gradientTransform="matrix(3.07685 -2.2548 3.53253 4.82042 9.712 8.793)"><stop stop-color="#463C39"/><stop offset="1" stop-color="#463C39" stop-opacity="0"/></radialGradient><radialGradient id="aE" cx="0" cy="0" r="1" gradientUnits="userSpaceOnUse" gradientTransform="matrix(0 .19709 -.6332 0 16.495 12.186)"><stop stop-color="#624E4D"/><stop offset="1" stop-color="#624E4D" stop-opacity="0"/></radialGradient><radialGradient id="aJ" cx="0" cy="0" r="1" gradientUnits="userSpaceOnUse" gradientTransform="matrix(0 .8119 -1.29142 0 18.348 9.895)"><stop offset=".802" stop-color="#7D574A"/><stop offset="1" stop-color="#694B43"/><stop offset="1" stop-color="#804D49"/><stop offset="1" stop-color="#664944"/></radialGradient><radialGradient id="aL" cx="0" cy="0" r="1" gradientUnits="userSpaceOnUse" gradientTransform="rotate(-127.812 11.504 .552) scale(.37856 .52118)"><stop offset=".766" stop-color="#FFE6E2" stop-opacity="0"/><stop offset=".966" stop-color="#FFE6E2"/></radialGradient><radialGradient id="aO" cx="0" cy="0" r="1" gradientUnits="userSpaceOnUse" gradientTransform="matrix(0 .81194 -1.29148 0 13.98 9.895)"><stop offset=".802" stop-color="#7D574A"/><stop offset="1" stop-color="#694B43"/><stop offset="1" stop-color="#804D49"/><stop offset="1" stop-color="#664944"/></radialGradient><radialGradient id="aS" cx="0" cy="0" r="1" gradientUnits="userSpaceOnUse" gradientTransform="rotate(-90.897 11.826 -1.684) scale(.4945 .5944)"><stop offset=".766" stop-color="#FFE6E2" stop-opacity="0"/><stop offset=".966" stop-color="#FFE6E2"/></radialGradient><filter id="j" x="9.169" y="15.327" width="14.254" height="7.618" filterUnits="userSpaceOnUse" color-interpolation-filters="sRGB"><feFlood flood-opacity="0" result="BackgroundImageFix"/><feBlend in="SourceGraphic" in2="BackgroundImageFix" result="shape"/><feColorMatrix in="SourceAlpha" values="0 0 0 0 0 0 0 0 0 0 0 0 0 0 0 0 0 0 127 0" result="hardAlpha"/><feOffset dy="-.15"/><feGaussianBlur stdDeviation=".075"/><feComposite in2="hardAlpha" operator="arithmetic" k2="-1" k3="1"/><feColorMatrix values="0 0 0 0 0.2 0 0 0 0 0.141176 0 0 0 0 0.254902 0 0 0 1 0"/><feBlend in2="shape" result="effect1_innerShadow_4002_1730"/><feColorMatrix in="SourceAlpha" values="0 0 0 0 0 0 0 0 0 0 0 0 0 0 0 0 0 0 127 0" result="hardAlpha"/><feOffset dx=".2" dy=".1"/><feGaussianBlur stdDeviation=".25"/><feComposite in2="hardAlpha" operator="arithmetic" k2="-1" k3="1"/><feColorMatrix values="0 0 0 0 0.419608 0 0 0 0 0.4 0 0 0 0 0.439216 0 0 0 1 0"/><feBlend in2="effect1_innerShadow_4002_1730" result="effect2_innerShadow_4002_1730"/></filter><filter id="H" x="23.613" y="24.476" width="4.468" height="5.556" filterUnits="userSpaceOnUse" color-interpolation-filters="sRGB"><feFlood flood-opacity="0" result="BackgroundImageFix"/><feBlend in="SourceGraphic" in2="BackgroundImageFix" result="shape"/><feColorMatrix in="SourceAlpha" values="0 0 0 0 0 0 0 0 0 0 0 0 0 0 0 0 0 0 127 0" result="hardAlpha"/><feOffset dx=".15" dy="-.15"/><feGaussianBlur stdDeviation=".5"/><feComposite in2="hardAlpha" operator="arithmetic" k2="-1" k3="1"/><feColorMatrix values="0 0 0 0 0.196078 0 0 0 0 0.117647 0 0 0 0 0.145098 0 0 0 1 0"/><feBlend in2="shape" result="effect1_innerShadow_4002_1730"/></filter><filter id="P" x="15.599" y="23.325" width="1.192" height="6.826" filterUnits="userSpaceOnUse" color-interpolation-filters="sRGB"><feFlood flood-opacity="0" result="BackgroundImageFix"/><feBlend in="SourceGraphic" in2="BackgroundImageFix" result="shape"/><feGaussianBlur stdDeviation=".125" result="effect1_foregroundBlur_4002_1730"/></filter><filter id="R" x="11.593" y="23.325" width="1.192" height="6.826" filterUnits="userSpaceOnUse" color-interpolation-filters="sRGB"><feFlood flood-opacity="0" result="BackgroundImageFix"/><feBlend in="SourceGraphic" in2="BackgroundImageFix" result="shape"/><feGaussianBlur stdDeviation=".125" result="effect1_foregroundBlur_4002_1730"/></filter><filter id="T" x="19.586" y="23.325" width="1.192" height="6.826" filterUnits="userSpaceOnUse" color-interpolation-filters="sRGB"><feFlood flood-opacity="0" result="BackgroundImageFix"/><feBlend in="SourceGraphic" in2="BackgroundImageFix" result="shape"/><feGaussianBlur stdDeviation=".125" result="effect1_foregroundBlur_4002_1730"/></filter><filter id="V" x="23.983" y="25.874" width="2.097" height=".3" filterUnits="userSpaceOnUse" color-interpolation-filters="sRGB"><feFlood flood-opacity="0" result="BackgroundImageFix"/><feBlend in="SourceGraphic" in2="BackgroundImageFix" result="shape"/><feGaussianBlur stdDeviation=".05" result="effect1_foregroundBlur_4002_1730"/></filter><filter id="X" x="23.905" y="27.179" width="2.097" height=".3" filterUnits="userSpaceOnUse" color-interpolation-filters="sRGB"><feFlood flood-opacity="0" result="BackgroundImageFix"/><feBlend in="SourceGraphic" in2="BackgroundImageFix" result="shape"/><feGaussianBlur stdDeviation=".05" result="effect1_foregroundBlur_4002_1730"/></filter><filter id="Z" x="23.983" y="28.483" width="2.097" height=".3" filterUnits="userSpaceOnUse" color-interpolation-filters="sRGB"><feFlood flood-opacity="0" result="BackgroundImageFix"/><feBlend in="SourceGraphic" in2="BackgroundImageFix" result="shape"/><feGaussianBlur stdDeviation=".05" result="effect1_foregroundBlur_4002_1730"/></filter><filter id="ab" x="9.744" y="8.906" width="3.542" height="3.342" filterUnits="userSpaceOnUse" color-interpolation-filters="sRGB"><feFlood flood-opacity="0" result="BackgroundImageFix"/><feBlend in="SourceGraphic" in2="BackgroundImageFix" result="shape"/><feColorMatrix in="SourceAlpha" values="0 0 0 0 0 0 0 0 0 0 0 0 0 0 0 0 0 0 127 0" result="hardAlpha"/><feOffset dx=".2"/><feGaussianBlur stdDeviation=".15"/><feComposite in2="hardAlpha" operator="arithmetic" k2="-1" k3="1"/><feColorMatrix values="0 0 0 0 0.341176 0 0 0 0 0.270588 0 0 0 0 0.254902 0 0 0 1 0"/><feBlend in2="shape" result="effect1_innerShadow_4002_1730"/></filter><filter id="ad" x="9.919" y="9.082" width="2.992" height="2.992" filterUnits="userSpaceOnUse" color-interpolation-filters="sRGB"><feFlood flood-opacity="0" result="BackgroundImageFix"/><feBlend in="SourceGraphic" in2="BackgroundImageFix" result="shape"/><feGaussianBlur stdDeviation=".25" result="effect1_foregroundBlur_4002_1730"/></filter><filter id="af" x="19.266" y="8.656" width="3.592" height="3.592" filterUnits="userSpaceOnUse" color-interpolation-filters="sRGB"><feFlood flood-opacity="0" result="BackgroundImageFix"/><feBlend in="SourceGraphic" in2="BackgroundImageFix" result="shape"/><feColorMatrix in="SourceAlpha" values="0 0 0 0 0 0 0 0 0 0 0 0 0 0 0 0 0 0 127 0" result="hardAlpha"/><feOffset dx=".25" dy="-.25"/><feGaussianBlur stdDeviation=".25"/><feComposite in2="hardAlpha" operator="arithmetic" k2="-1" k3="1"/><feColorMatrix values="0 0 0 0 0.243137 0 0 0 0 0.141176 0 0 0 0 0.223529 0 0 0 1 0"/><feBlend in2="shape" result="effect1_innerShadow_4002_1730"/></filter><filter id="ai" x="19.441" y="9.082" width="2.992" height="2.992" filterUnits="userSpaceOnUse" color-interpolation-filters="sRGB"><feFlood flood-opacity="0" result="BackgroundImageFix"/><feBlend in="SourceGraphic" in2="BackgroundImageFix" result="shape"/><feGaussianBlur stdDeviation=".25" result="effect1_foregroundBlur_4002_1730"/></filter><filter id="al" x="11.004" y="4.948" width="10.383" height="12.189" filterUnits="userSpaceOnUse" color-interpolation-filters="sRGB"><feFlood flood-opacity="0" result="BackgroundImageFix"/><feBlend in="SourceGraphic" in2="BackgroundImageFix" result="shape"/><feColorMatrix in="SourceAlpha" values="0 0 0 0 0 0 0 0 0 0 0 0 0 0 0 0 0 0 127 0" result="hardAlpha"/><feOffset dy=".15"/><feGaussianBlur stdDeviation=".125"/><feComposite in2="hardAlpha" operator="arithmetic" k2="-1" k3="1"/><feColorMatrix values="0 0 0 0 0.109804 0 0 0 0 0.0509804 0 0 0 0 0.0509804 0 0 0 1 0"/><feBlend in2="shape" result="effect1_innerShadow_4002_1730"/></filter><filter id="as" x="15.337" y="3.948" width="6.25" height="5.07" filterUnits="userSpaceOnUse" color-interpolation-filters="sRGB"><feFlood flood-opacity="0" result="BackgroundImageFix"/><feBlend in="SourceGraphic" in2="BackgroundImageFix" result="shape"/><feGaussianBlur stdDeviation=".5" result="effect1_foregroundBlur_4002_1730"/></filter><filter id="au" x="9.86" y="1.468" width="12.614" height="8.551" filterUnits="userSpaceOnUse" color-interpolation-filters="sRGB"><feFlood flood-opacity="0" result="BackgroundImageFix"/><feBlend in="SourceGraphic" in2="BackgroundImageFix" result="shape"/><feColorMatrix in="SourceAlpha" values="0 0 0 0 0 0 0 0 0 0 0 0 0 0 0 0 0 0 127 0" result="hardAlpha"/><feOffset dy="-.5"/><feGaussianBlur stdDeviation=".375"/><feComposite in2="hardAlpha" operator="arithmetic" k2="-1" k3="1"/><feColorMatrix values="0 0 0 0 0.0392157 0 0 0 0 0.00784314 0 0 0 0 0.0196078 0 0 0 1 0"/><feBlend in2="shape" result="effect1_innerShadow_4002_1730"/></filter><filter id="az" x="14.297" y="9.423" width="3.262" height="4.184" filterUnits="userSpaceOnUse" color-interpolation-filters="sRGB"><feFlood flood-opacity="0" result="BackgroundImageFix"/><feBlend in="SourceGraphic" in2="BackgroundImageFix" result="shape"/><feGaussianBlur stdDeviation=".375" result="effect1_foregroundBlur_4002_1730"/></filter><filter id="aA" x="14.978" y="9.759" width="2.379" height="3.184" filterUnits="userSpaceOnUse" color-interpolation-filters="sRGB"><feFlood flood-opacity="0" result="BackgroundImageFix"/><feBlend in="SourceGraphic" in2="BackgroundImageFix" result="shape"/><feGaussianBlur stdDeviation=".125" result="effect1_foregroundBlur_4002_1730"/></filter><filter id="aH" x="17.35" y="6.926" width="2.982" height="1.874" filterUnits="userSpaceOnUse" color-interpolation-filters="sRGB"><feFlood flood-opacity="0" result="BackgroundImageFix"/><feBlend in="SourceGraphic" in2="BackgroundImageFix" result="shape"/><feColorMatrix in="SourceAlpha" values="0 0 0 0 0 0 0 0 0 0 0 0 0 0 0 0 0 0 127 0" result="hardAlpha"/><feOffset dx=".25" dy="-.4"/><feGaussianBlur stdDeviation=".3"/><feComposite in2="hardAlpha" operator="arithmetic" k2="-1" k3="1"/><feColorMatrix values="0 0 0 0 0.0431373 0 0 0 0 0.0196078 0 0 0 0 0.027451 0 0 0 1 0"/><feBlend in2="shape" result="effect1_innerShadow_4002_1730"/></filter><filter id="aI" x="12.198" y="6.926" width="2.982" height="1.874" filterUnits="userSpaceOnUse" color-interpolation-filters="sRGB"><feFlood flood-opacity="0" result="BackgroundImageFix"/><feBlend in="SourceGraphic" in2="BackgroundImageFix" result="shape"/><feColorMatrix in="SourceAlpha" values="0 0 0 0 0 0 0 0 0 0 0 0 0 0 0 0 0 0 127 0" result="hardAlpha"/><feOffset dx=".25" dy="-.4"/><feGaussianBlur stdDeviation=".3"/><feComposite in2="hardAlpha" operator="arithmetic" k2="-1" k3="1"/><feColorMatrix values="0 0 0 0 0.0431373 0 0 0 0 0.0196078 0 0 0 0 0.027451 0 0 0 1 0"/><feBlend in2="shape" result="effect1_innerShadow_4002_1730"/></filter><filter id="aK" x="17.613" y="9.455" width=".787" height=".697" filterUnits="userSpaceOnUse" color-interpolation-filters="sRGB"><feFlood flood-opacity="0" result="BackgroundImageFix"/><feBlend in="SourceGraphic" in2="BackgroundImageFix" result="shape"/><feGaussianBlur stdDeviation=".05" result="effect1_foregroundBlur_4002_1730"/></filter><filter id="aM" x="18.454" y="9.53" width=".892" height=".914" filterUnits="userSpaceOnUse" color-interpolation-filters="sRGB"><feFlood flood-opacity="0" result="BackgroundImageFix"/><feBlend in="SourceGraphic" in2="BackgroundImageFix" result="shape"/><feGaussianBlur stdDeviation=".1" result="effect1_foregroundBlur_4002_1730"/></filter><filter id="aP" x="14.008" y="9.466" width=".987" height="1.041" filterUnits="userSpaceOnUse" color-interpolation-filters="sRGB"><feFlood flood-opacity="0" result="BackgroundImageFix"/><feBlend in="SourceGraphic" in2="BackgroundImageFix" result="shape"/><feGaussianBlur stdDeviation=".1" result="effect1_foregroundBlur_4002_1730"/></filter><filter id="aR" x="13.253" y="9.447" width=".914" height=".705" filterUnits="userSpaceOnUse" color-interpolation-filters="sRGB"><feFlood flood-opacity="0" result="BackgroundImageFix"/><feBlend in="SourceGraphic" in2="BackgroundImageFix" result="shape"/><feGaussianBlur stdDeviation=".05" result="effect1_foregroundBlur_4002_1730"/></filter><filter id="aT" x="17.404" y="7.252" width="2.701" height="1.281" filterUnits="userSpaceOnUse" color-interpolation-filters="sRGB"><feFlood flood-opacity="0" result="BackgroundImageFix"/><feBlend in="SourceGraphic" in2="BackgroundImageFix" result="shape"/><feGaussianBlur stdDeviation=".15" result="effect1_foregroundBlur_4002_1730"/></filter><filter id="aV" x="12.18" y="7.316" width="2.779" height="1.339" filterUnits="userSpaceOnUse" color-interpolation-filters="sRGB"><feFlood flood-opacity="0" result="BackgroundImageFix"/><feBlend in="SourceGraphic" in2="BackgroundImageFix" result="shape"/><feGaussianBlur stdDeviation=".15" result="effect1_foregroundBlur_4002_1730"/></filter><filter id="aX" x="10.996" y="5.387" width="1.008" height="2.271" filterUnits="userSpaceOnUse" color-interpolation-filters="sRGB"><feFlood flood-opacity="0" result="BackgroundImageFix"/><feBlend in="SourceGraphic" in2="BackgroundImageFix" result="shape"/><feGaussianBlur stdDeviation=".125" result="effect1_foregroundBlur_4002_1730"/></filter></defs></svg>