<svg xmlns="http://www.w3.org/2000/svg" fill="none" viewBox="0 0 32 32"><g filter="url(#man-biking-medium-light_svg__a)"><path fill="url(#man-biking-medium-light_svg__b)" fill-rule="evenodd" d="M7.027 21.567a3.969 3.969 0 1 0 0 7.938 3.969 3.969 0 0 0 0-7.938M2.06 25.536a4.969 4.969 0 1 1 9.937 0 4.969 4.969 0 0 1-9.937 0" clip-rule="evenodd"/></g><g filter="url(#man-biking-medium-light_svg__c)"><circle cx="7.027" cy="25.536" r="4.555" stroke="url(#man-biking-medium-light_svg__d)" stroke-width=".3"/></g><path fill="url(#man-biking-medium-light_svg__e)" d="m19.158 20.692-1.826-1.988-.424 2.058 1.001.706z"/><path fill="#413354" d="m17.853 21.425-.3 1.981c-.067.476-.04.887.364 1.167.102.07.237.03.307-.071l1.963-2.902a.2.2 0 0 0-.053-.278l-.952-.644z"/><path fill="url(#man-biking-medium-light_svg__f)" d="m17.853 21.425-.3 1.981c-.067.476-.04.887.364 1.167.102.07.237.03.307-.071l1.963-2.902a.2.2 0 0 0-.053-.278l-.952-.644z"/><path fill="url(#man-biking-medium-light_svg__g)" d="m17.853 21.425-.3 1.981c-.067.476-.04.887.364 1.167.102.07.237.03.307-.071l1.963-2.902a.2.2 0 0 0-.053-.278l-.952-.644z"/><path fill="url(#man-biking-medium-light_svg__h)" fill-rule="evenodd" d="M12.46 12.16a.5.5 0 0 1 .271.652l-2.54 6.247a.5.5 0 0 1-.924-.38l2.54-6.248a.5.5 0 0 1 .653-.271" clip-rule="evenodd"/><path fill="url(#man-biking-medium-light_svg__i)" fill-rule="evenodd" d="M12.46 12.16a.5.5 0 0 1 .271.652l-2.54 6.247a.5.5 0 0 1-.924-.38l2.54-6.248a.5.5 0 0 1 .653-.271" clip-rule="evenodd"/><path fill="url(#man-biking-medium-light_svg__j)" fill-rule="evenodd" d="M10.526 16.894a.55.55 0 0 1 .3.718l-3.29 8a.55.55 0 0 1-1.017-.418l3.289-8a.55.55 0 0 1 .718-.3" clip-rule="evenodd"/><path fill="url(#man-biking-medium-light_svg__k)" fill-rule="evenodd" d="M9.602 19.122c.101-.222.43-.465.672-.282l6.25 4.75a.55.55 0 1 1-.665.876l-6.081-4.61c-.242-.184-.305-.453-.176-.734" clip-rule="evenodd"/><path fill="url(#man-biking-medium-light_svg__l)" fill-rule="evenodd" d="M9.602 19.122c.101-.222.43-.465.672-.282l6.25 4.75a.55.55 0 1 1-.665.876l-6.081-4.61c-.242-.184-.305-.453-.176-.734" clip-rule="evenodd"/><g fill-rule="evenodd" clip-rule="evenodd" filter="url(#man-biking-medium-light_svg__m)"><path fill="url(#man-biking-medium-light_svg__n)" d="M24.973 21.567a3.969 3.969 0 1 0 0 7.938 3.969 3.969 0 0 0 0-7.938m-4.97 3.969a4.969 4.969 0 1 1 9.938 0 4.969 4.969 0 0 1-9.937 0"/><path fill="url(#man-biking-medium-light_svg__o)" d="M24.973 21.567a3.969 3.969 0 1 0 0 7.938 3.969 3.969 0 0 0 0-7.938m-4.97 3.969a4.969 4.969 0 1 1 9.938 0 4.969 4.969 0 0 1-9.937 0"/></g><path fill="url(#man-biking-medium-light_svg__p)" fill-rule="evenodd" d="M19.71 17.18a.55.55 0 0 0-.171.759l4.718 7.476a.55.55 0 1 0 .93-.587l-4.718-7.476a.55.55 0 0 0-.759-.172" clip-rule="evenodd"/><path fill="url(#man-biking-medium-light_svg__q)" fill-rule="evenodd" d="M20.014 17.1a.55.55 0 0 1 .417.657l-1.578 7.078a.55.55 0 1 1-1.073-.24l1.578-7.077a.55.55 0 0 1 .656-.417" clip-rule="evenodd"/><path fill="url(#man-biking-medium-light_svg__r)" fill-rule="evenodd" d="M20.014 17.1a.55.55 0 0 1 .417.657l-1.578 7.078a.55.55 0 1 1-1.073-.24l1.578-7.077a.55.55 0 0 1 .656-.417" clip-rule="evenodd"/><path fill="url(#man-biking-medium-light_svg__s)" fill-rule="evenodd" d="M20.014 17.1a.55.55 0 0 1 .417.657l-1.578 7.078a.55.55 0 1 1-1.073-.24l1.578-7.077a.55.55 0 0 1 .656-.417" clip-rule="evenodd"/><path fill="url(#man-biking-medium-light_svg__t)" d="m13.97 16.005 1.34-.836 1.038 1.039-.765 3.53c-.513-.38-1.57-1.16-1.688-1.241-.148-.102-.66-.543-.653-1.239.008-.71.477-1.071.727-1.253"/><path fill="url(#man-biking-medium-light_svg__u)" d="m13.97 16.005 1.34-.836 1.038 1.039-.765 3.53c-.513-.38-1.57-1.16-1.688-1.241-.148-.102-.66-.543-.653-1.239.008-.71.477-1.071.727-1.253"/><path fill="url(#man-biking-medium-light_svg__v)" d="m13.97 16.005 1.34-.836 1.038 1.039-.765 3.53c-.513-.38-1.57-1.16-1.688-1.241-.148-.102-.66-.543-.653-1.239.008-.71.477-1.071.727-1.253"/><path fill="url(#man-biking-medium-light_svg__w)" d="m15.25 15.204 2.64-1.61 1.208.63L16.37 16.7c-.269-.231-.84-1.051-1.121-1.496"/><path fill="url(#man-biking-medium-light_svg__x)" d="m15.25 15.204 2.64-1.61 1.208.63L16.37 16.7c-.269-.231-.84-1.051-1.121-1.496"/><g filter="url(#man-biking-medium-light_svg__y)"><path fill="url(#man-biking-medium-light_svg__z)" d="M18.884 27.36a1.863 1.863 0 1 1 .018-3.643l5.899.905a.927.927 0 0 1-.086 1.837z"/><path fill="url(#man-biking-medium-light_svg__A)" d="M18.884 27.36a1.863 1.863 0 1 1 .018-3.643l5.899.905a.927.927 0 0 1-.086 1.837z"/></g><circle cx="18.344" cy="25.536" r="1.027" fill="url(#man-biking-medium-light_svg__B)"/><circle cx="18.344" cy="25.536" r="1.027" fill="url(#man-biking-medium-light_svg__C)"/><g filter="url(#man-biking-medium-light_svg__D)"><path fill="#5B4E85" d="m16.07 23.785-1.809.861c-.431.212-.757.465-.762.956-.001.124.108.214.231.214h3.504a.2.2 0 0 0 .2-.2v-1.15z"/><path fill="url(#man-biking-medium-light_svg__E)" d="m16.07 23.785-1.809.861c-.431.212-.757.465-.762.956-.001.124.108.214.231.214h3.504a.2.2 0 0 0 .2-.2v-1.15z"/><path fill="url(#man-biking-medium-light_svg__F)" d="m16.07 23.785-1.809.861c-.431.212-.757.465-.762.956-.001.124.108.214.231.214h3.504a.2.2 0 0 0 .2-.2v-1.15z"/></g><path fill="url(#man-biking-medium-light_svg__G)" d="M13.509 8.472h2.154v2.668h-2.154z" transform="rotate(-55.397 13.51 8.472)"/><path fill="url(#man-biking-medium-light_svg__H)" d="M13.509 8.472h2.154v2.668h-2.154z" transform="rotate(-55.397 13.51 8.472)"/><g filter="url(#man-biking-medium-light_svg__I)"><path fill="url(#man-biking-medium-light_svg__J)" d="m16.051 16.56.553-.515 2.04 1.917c-.273.153-.887.463-1.03.582-.11.09-.11.234-.11.328l-.047 5.593-1.406-.671c-.138-.795-.42-2.709-.769-4.301-.395-1.8.376-2.593.77-2.934"/><path fill="url(#man-biking-medium-light_svg__K)" d="m16.051 16.56.553-.515 2.04 1.917c-.273.153-.887.463-1.03.582-.11.09-.11.234-.11.328l-.047 5.593-1.406-.671c-.138-.795-.42-2.709-.769-4.301-.395-1.8.376-2.593.77-2.934"/></g><g filter="url(#man-biking-medium-light_svg__L)"><path fill="url(#man-biking-medium-light_svg__M)" d="m18.335 14.337-.636-.7 4.031-2.476c1.422 1.867 1.5 3.21.836 4.273s-1.582 2.051-2.617 2.946c-.271.234-.802.361-1.36-.18-.706-.688-1.577-1.578-2.038-2.113l1.777-1.609a.1.1 0 0 0 .007-.141"/><path fill="url(#man-biking-medium-light_svg__N)" d="m18.335 14.337-.636-.7 4.031-2.476c1.422 1.867 1.5 3.21.836 4.273s-1.582 2.051-2.617 2.946c-.271.234-.802.361-1.36-.18-.706-.688-1.577-1.578-2.038-2.113l1.777-1.609a.1.1 0 0 0 .007-.141"/></g><g filter="url(#man-biking-medium-light_svg__O)"><path fill="url(#man-biking-medium-light_svg__P)" d="M16.066 11.716c.665.625 1.364 1.585 1.672 1.968l4.243-2.18c-.586-.976-2.07-2.53-3.54-3.359-1.718-.812-2.672 0-3.305 1.07-.413.852.259 1.782.93 2.5"/></g><g filter="url(#man-biking-medium-light_svg__Q)"><path fill="#C0B9BC" d="M12.91 12.169a.575.575 0 0 0-.575-.575h-3.05a2.13 2.13 0 0 0 0 4.259h.183a.575.575 0 1 0 0-1.15h-.183a.98.98 0 1 1 0-1.96h3.05a.575.575 0 0 0 .575-.574"/><path fill="url(#man-biking-medium-light_svg__R)" d="M12.91 12.169a.575.575 0 0 0-.575-.575h-3.05a2.13 2.13 0 0 0 0 4.259h.183a.575.575 0 1 0 0-1.15h-.183a.98.98 0 1 1 0-1.96h3.05a.575.575 0 0 0 .575-.574"/></g><g filter="url(#man-biking-medium-light_svg__S)"><path fill="#2B174F" fill-rule="evenodd" d="M8.305 13.782v-.022a.572.572 0 1 0-1.145 0v.022h-.004a2.13 2.13 0 0 0 2.13 2.071h.182a.575.575 0 0 0 0-1.15h-.183a.98.98 0 0 1-.978-.921z" clip-rule="evenodd"/></g><g fill-rule="evenodd" clip-rule="evenodd" filter="url(#man-biking-medium-light_svg__T)"><path fill="#D19E7F" d="M17.097 8.833c.479.327.601.98.274 1.46-.783 1.144-3.152 4.302-7.933 4.788-.577.058-1.594-.32-1.653-.897s.864-1.134 1.441-1.193c3.844-.39 5.741-2.903 6.411-3.884a1.05 1.05 0 0 1 1.46-.274"/><path fill="url(#man-biking-medium-light_svg__U)" d="M17.097 8.833c.479.327.601.98.274 1.46-.783 1.144-3.152 4.302-7.933 4.788-.577.058-1.594-.32-1.653-.897s.864-1.134 1.441-1.193c3.844-.39 5.741-2.903 6.411-3.884a1.05 1.05 0 0 1 1.46-.274"/></g><path fill="url(#man-biking-medium-light_svg__V)" fill-rule="evenodd" d="M9.291 13.481a.35.35 0 0 1-.35.35c-.173 0-.435.043-.662.15-.226.107-.37.252-.415.439a.35.35 0 0 1-.68-.166c.113-.466.461-.748.796-.906.334-.158.7-.217.961-.217a.35.35 0 0 1 .35.35" clip-rule="evenodd"/><path fill="url(#man-biking-medium-light_svg__W)" fill-rule="evenodd" d="M9.291 13.481a.35.35 0 0 1-.35.35c-.173 0-.435.043-.662.15-.226.107-.37.252-.415.439a.35.35 0 0 1-.68-.166c.113-.466.461-.748.796-.906.334-.158.7-.217.961-.217a.35.35 0 0 1 .35.35" clip-rule="evenodd"/><g filter="url(#man-biking-medium-light_svg__X)"><path fill="url(#man-biking-medium-light_svg__Y)" d="m20.96 13.455-.523-.864 1.125-.656c.97 1.312 1.344 2.297.735 2.875-.488.462-2.87 1.724-4 2.297l2.503-2.414a1 1 0 0 0 .16-1.239"/></g><path fill="url(#man-biking-medium-light_svg__Z)" fill-rule="evenodd" d="M8.781 14.016a.35.35 0 0 1-.227.44.6.6 0 0 0-.405.458.35.35 0 1 1-.684-.152c.05-.224.235-.768.876-.973a.35.35 0 0 1 .44.227" clip-rule="evenodd"/><path fill="url(#man-biking-medium-light_svg__aa)" fill-rule="evenodd" d="M8.781 14.016a.35.35 0 0 1-.227.44.6.6 0 0 0-.405.458.35.35 0 1 1-.684-.152c.05-.224.235-.768.876-.973a.35.35 0 0 1 .44.227" clip-rule="evenodd"/><path fill="url(#man-biking-medium-light_svg__ab)" fill-rule="evenodd" d="M8.929 14.076a.33.33 0 0 1 0 .402c-.152.126-.343.389-.373.593a.35.35 0 1 1-.692-.1c.019-.13.077-.285.154-.43.08-.147.197-.312.354-.442.15-.124.434-.172.557-.023" clip-rule="evenodd"/><path fill="url(#man-biking-medium-light_svg__ac)" fill-rule="evenodd" d="M8.929 14.076a.33.33 0 0 1 0 .402c-.152.126-.343.389-.373.593a.35.35 0 1 1-.692-.1c.019-.13.077-.285.154-.43.08-.147.197-.312.354-.442.15-.124.434-.172.557-.023" clip-rule="evenodd"/><g filter="url(#man-biking-medium-light_svg__ad)"><circle cx="9.195" cy="13.983" r=".885" fill="#D7A58B"/></g><path fill="url(#man-biking-medium-light_svg__ae)" d="M10.831 9.006c-.204-.135-.21-.294-.151-.649a.82.82 0 0 0-.073-.532l.829.973c-.104.224-.4.343-.605.208"/><g filter="url(#man-biking-medium-light_svg__af)"><path fill="url(#man-biking-medium-light_svg__ag)" d="M12.021 9.738c-.79-.724-1.456-1.899-1.723-2.358l3.403-2.154 1.877 1.635a5.2 5.2 0 0 1-.89 1.92c-.689.899-1.629 1.907-2.667.957"/><path fill="url(#man-biking-medium-light_svg__ah)" d="M12.021 9.738c-.79-.724-1.456-1.899-1.723-2.358l3.403-2.154 1.877 1.635a5.2 5.2 0 0 1-.89 1.92c-.689.899-1.629 1.907-2.667.957"/><path fill="url(#man-biking-medium-light_svg__ai)" d="M12.021 9.738c-.79-.724-1.456-1.899-1.723-2.358l3.403-2.154 1.877 1.635a5.2 5.2 0 0 1-.89 1.92c-.689.899-1.629 1.907-2.667.957"/><path fill="url(#man-biking-medium-light_svg__aj)" d="M12.021 9.738c-.79-.724-1.456-1.899-1.723-2.358l3.403-2.154 1.877 1.635a5.2 5.2 0 0 1-.89 1.92c-.689.899-1.629 1.907-2.667.957"/></g><path fill="#86004D" fill-rule="evenodd" d="M11.902 9.213a.117.117 0 0 1 .038-.161c.1-.062.231-.215.298-.53a.117.117 0 1 1 .229.047c-.077.361-.236.577-.404.681a.117.117 0 0 1-.16-.037" clip-rule="evenodd"/><path fill="#fff" d="M10.982 7.336c-.065.229.075.453.15.567l.873-.54c-.535-.58-.934-.338-1.023-.027"/><path fill="url(#man-biking-medium-light_svg__ak)" d="m11.623 7.6-.03-.048c-.164-.245-.404-.372-.536-.284s-.106.359.058.604l.02.029z"/><path fill="#414141" d="M11.435 7.715a.5.5 0 0 0-.05-.09c-.09-.137-.222-.209-.294-.16-.071.047-.055.196.036.332a1 1 0 0 0 .058.073z"/><circle cx="11.098" cy="7.442" r=".084" fill="#DFDFDF" transform="rotate(-65.122 11.098 7.442)"/><g filter="url(#man-biking-medium-light_svg__al)"><path fill="url(#man-biking-medium-light_svg__am)" d="m14.283 7.119-1.209-1.19 2.058-1.186c.202.329.69 1.344.665 1.628-.037.393-.184.926-.633 1.04-.36.09-.762-.161-.881-.292"/></g><circle cx="13.424" cy="6.35" r=".652" fill="url(#man-biking-medium-light_svg__an)" transform="rotate(-65.122 13.424 6.35)"/><path fill="#4D3771" fill-rule="evenodd" d="M12.653 5.651a.29.29 0 0 1 .389.139L14.6 9.078a.292.292 0 1 1-.527.25L12.514 6.04a.29.29 0 0 1 .139-.389" clip-rule="evenodd"/><path fill="url(#man-biking-medium-light_svg__ao)" fill-rule="evenodd" d="M12.653 5.651a.29.29 0 0 1 .389.139L14.6 9.078a.292.292 0 1 1-.527.25L12.514 6.04a.29.29 0 0 1 .139-.389" clip-rule="evenodd"/><path fill="url(#man-biking-medium-light_svg__ap)" fill-rule="evenodd" d="M12.653 5.651a.29.29 0 0 1 .389.139L14.6 9.078a.292.292 0 1 1-.527.25L12.514 6.04a.29.29 0 0 1 .139-.389" clip-rule="evenodd"/><path fill="url(#man-biking-medium-light_svg__aq)" fill-rule="evenodd" d="M12.653 5.651a.29.29 0 0 1 .389.139L14.6 9.078a.292.292 0 1 1-.527.25L12.514 6.04a.29.29 0 0 1 .139-.389" clip-rule="evenodd"/><g filter="url(#man-biking-medium-light_svg__ar)"><path fill="url(#man-biking-medium-light_svg__as)" d="m14.998 4.94-4.64 2.521a.26.26 0 0 1-.339-.07 5.6 5.6 0 0 1-.596-1.118c-.569-1.431.417-2.265.546-2.393.187-.185.702-.645 1.822-1.086 1.314-.518 2.169.05 2.593.589.267.339.561.85.734 1.194a.274.274 0 0 1-.12.364"/></g><g filter="url(#man-biking-medium-light_svg__at)"><path fill="url(#man-biking-medium-light_svg__au)" d="M11.241 5.773a.353.353 0 0 1 .15-.476l1.286-.67a.353.353 0 0 1 .326.625l-1.286.67a.353.353 0 0 1-.476-.15"/></g><defs><radialGradient id="man-biking-medium-light_svg__b" cx="0" cy="0" r="1" gradientTransform="rotate(126.943 -.262 13.374)scale(9.77501 9.43553)" gradientUnits="userSpaceOnUse"><stop stop-color="#32295B"/><stop offset="1" stop-color="#3C2150"/></radialGradient><radialGradient id="man-biking-medium-light_svg__g" cx="0" cy="0" r="1" gradientTransform="matrix(-1.53127 2.45312 -.44454 -.27749 20.3 21.512)" gradientUnits="userSpaceOnUse"><stop stop-color="#5D5C7E"/><stop offset="1" stop-color="#5D5C7E" stop-opacity="0"/></radialGradient><radialGradient id="man-biking-medium-light_svg__i" cx="0" cy="0" r="1" gradientTransform="rotate(-68.026 18 .736)scale(2.88119 .32513)" gradientUnits="userSpaceOnUse"><stop stop-color="#BAA3B9"/><stop offset="1" stop-color="#BAA3B9" stop-opacity="0"/></radialGradient><radialGradient id="man-biking-medium-light_svg__k" cx="0" cy="0" r="1" gradientTransform="matrix(6.71875 4.82813 -1.31599 1.83131 10.176 19.075)" gradientUnits="userSpaceOnUse"><stop stop-color="#CE3D5E"/><stop offset="1" stop-color="#932145"/></radialGradient><radialGradient id="man-biking-medium-light_svg__n" cx="0" cy="0" r="1" gradientTransform="rotate(134.451 9.894 17.348)scale(9.80603 9.46548)" gradientUnits="userSpaceOnUse"><stop offset=".427" stop-color="#373C67"/><stop offset="1" stop-color="#38144F"/></radialGradient><radialGradient id="man-biking-medium-light_svg__r" cx="0" cy="0" r="1" gradientTransform="rotate(103.707 2.995 16.89)scale(4.61583 .44083)" gradientUnits="userSpaceOnUse"><stop stop-color="#E44354"/><stop offset="1" stop-color="#E44354" stop-opacity="0"/></radialGradient><radialGradient id="man-biking-medium-light_svg__s" cx="0" cy="0" r="1" gradientTransform="matrix(-.03125 -1.0625 1.65481 -.04867 18.457 24.31)" gradientUnits="userSpaceOnUse"><stop stop-color="#AC2735"/><stop offset="1" stop-color="#AC2735" stop-opacity="0"/></radialGradient><radialGradient id="man-biking-medium-light_svg__t" cx="0" cy="0" r="1" gradientTransform="matrix(-.28125 3.99268 -5.05379 -.356 15.37 15.746)" gradientUnits="userSpaceOnUse"><stop offset=".321" stop-color="#B57D68"/><stop offset=".868" stop-color="#BF7A7B"/></radialGradient><radialGradient id="man-biking-medium-light_svg__u" cx="0" cy="0" r="1" gradientTransform="matrix(1.21875 .45313 -.35 .94138 15.738 17.715)" gradientUnits="userSpaceOnUse"><stop offset=".346" stop-color="#AD6E5F"/><stop offset="1" stop-color="#B57B69" stop-opacity="0"/></radialGradient><radialGradient id="man-biking-medium-light_svg__v" cx="0" cy="0" r="1" gradientTransform="rotate(-167.255 8.842 8.012)scale(2.69131 3.58612)" gradientUnits="userSpaceOnUse"><stop offset=".738" stop-color="#DCA28A" stop-opacity="0"/><stop offset="1" stop-color="#DCA28A"/></radialGradient><radialGradient id="man-biking-medium-light_svg__w" cx="0" cy="0" r="1" gradientTransform="rotate(143.881 6.88 10.21)scale(2.86275 1.23215)" gradientUnits="userSpaceOnUse"><stop offset=".255" stop-color="#4F414E"/><stop offset="1" stop-color="#564A5A"/></radialGradient><radialGradient id="man-biking-medium-light_svg__A" cx="0" cy="0" r="1" gradientTransform="matrix(-.86719 0 0 -.96875 25.574 25.372)" gradientUnits="userSpaceOnUse"><stop stop-color="#FFD359"/><stop offset="1" stop-color="#FFD359" stop-opacity="0"/></radialGradient><radialGradient id="man-biking-medium-light_svg__B" cx="0" cy="0" r="1" gradientTransform="matrix(1.5625 -.65625 .66797 1.5904 17.676 25.731)" gradientUnits="userSpaceOnUse"><stop offset=".47" stop-color="#D8CFE2"/><stop offset="1" stop-color="#C5BFCB"/></radialGradient><radialGradient id="man-biking-medium-light_svg__C" cx="0" cy="0" r="1" gradientTransform="rotate(151.189 6.195 15.056)scale(1.78324)" gradientUnits="userSpaceOnUse"><stop offset=".632" stop-color="#E2DFE5" stop-opacity="0"/><stop offset="1" stop-color="#E2DFE5"/></radialGradient><radialGradient id="man-biking-medium-light_svg__F" cx="0" cy="0" r="1" gradientTransform="matrix(-1.1094 -2 6.41983 -3.56106 16.254 26.075)" gradientUnits="userSpaceOnUse"><stop offset=".301" stop-color="#5C4F86" stop-opacity="0"/><stop offset=".943" stop-color="#493B63"/></radialGradient><radialGradient id="man-biking-medium-light_svg__H" cx="0" cy="0" r="1" gradientTransform="rotate(88.737 2.633 12.361)scale(1.42145 .52556)" gradientUnits="userSpaceOnUse"><stop offset=".18" stop-color="#E0A588"/><stop offset="1" stop-color="#E0A588" stop-opacity="0"/></radialGradient><radialGradient id="man-biking-medium-light_svg__J" cx="0" cy="0" r="1" gradientTransform="matrix(-.75 -8.78125 2.52881 -.21598 17.895 24.465)" gradientUnits="userSpaceOnUse"><stop offset=".122" stop-color="#E2AE96"/><stop offset="1" stop-color="#D29A7D"/></radialGradient><radialGradient id="man-biking-medium-light_svg__K" cx="0" cy="0" r="1" gradientTransform="matrix(-1.6875 .0625 -.11168 -3.01554 18.8 18.184)" gradientUnits="userSpaceOnUse"><stop offset=".284" stop-color="#B7707A"/><stop offset="1" stop-color="#B7707A" stop-opacity="0"/></radialGradient><radialGradient id="man-biking-medium-light_svg__M" cx="0" cy="0" r="1" gradientTransform="matrix(5.125 -4.9297 2.6132 2.71672 16.77 16.09)" gradientUnits="userSpaceOnUse"><stop offset=".148" stop-color="#726B71"/><stop offset="1" stop-color="#A3A1A2"/></radialGradient><radialGradient id="man-biking-medium-light_svg__N" cx="0" cy="0" r="1" gradientTransform="matrix(2.59375 -.09375 .01804 .49916 18.191 14.372)" gradientUnits="userSpaceOnUse"><stop offset=".22" stop-color="#736E75"/><stop offset="1" stop-color="#736E75" stop-opacity="0"/></radialGradient><radialGradient id="man-biking-medium-light_svg__P" cx="0" cy="0" r="1" gradientTransform="matrix(-3.49999 -4.06251 1.70908 -1.47243 21.082 12.06)" gradientUnits="userSpaceOnUse"><stop stop-color="#54A7F5"/><stop offset="1" stop-color="#3B79D4"/></radialGradient><radialGradient id="man-biking-medium-light_svg__R" cx="0" cy="0" r="1" gradientTransform="matrix(3.25232 0 0 1.29925 10.033 13.497)" gradientUnits="userSpaceOnUse"><stop offset=".254" stop-color="#8C5EA8"/><stop offset="1" stop-color="#8C5EA8" stop-opacity="0"/></radialGradient><radialGradient id="man-biking-medium-light_svg__U" cx="0" cy="0" r="1" gradientTransform="rotate(158.559 7.896 6.316)scale(1.11134 1.23837)" gradientUnits="userSpaceOnUse"><stop stop-color="#EBBCA0"/><stop offset="1" stop-color="#EBBCA0" stop-opacity="0"/></radialGradient><radialGradient id="man-biking-medium-light_svg__V" cx="0" cy="0" r="1" gradientTransform="matrix(1.70877 .92892 -1.02417 1.884 6.983 13.327)" gradientUnits="userSpaceOnUse"><stop offset=".686" stop-color="#C38A80"/><stop offset="1" stop-color="#BC7C7F"/></radialGradient><radialGradient id="man-biking-medium-light_svg__W" cx="0" cy="0" r="1" gradientTransform="rotate(-169.577 4.856 6.836)scale(1.33255 2.06198)" gradientUnits="userSpaceOnUse"><stop offset=".68" stop-color="#D29A8C" stop-opacity="0"/><stop offset="1" stop-color="#D29A8C"/></radialGradient><radialGradient id="man-biking-medium-light_svg__Y" cx="0" cy="0" r="1" gradientTransform="matrix(5.5 -1.4375 2.00475 7.67032 17.332 15.247)" gradientUnits="userSpaceOnUse"><stop offset=".625" stop-color="#AFA6A9" stop-opacity="0"/><stop offset=".905" stop-color="#AFA6A9"/></radialGradient><radialGradient id="man-biking-medium-light_svg__Z" cx="0" cy="0" r="1" gradientTransform="rotate(35.903 -17.94 18.362)scale(1.2933 1.74861)" gradientUnits="userSpaceOnUse"><stop offset=".686" stop-color="#C38A80"/><stop offset="1" stop-color="#BC7C7F"/></radialGradient><radialGradient id="man-biking-medium-light_svg__aa" cx="0" cy="0" r="1" gradientTransform="rotate(-167.973 4.895 7.034)scale(.83427 1.78585)" gradientUnits="userSpaceOnUse"><stop offset=".68" stop-color="#D29A8C" stop-opacity="0"/><stop offset="1" stop-color="#D29A8C"/></radialGradient><radialGradient id="man-biking-medium-light_svg__ab" cx="0" cy="0" r="1" gradientTransform="matrix(1.01589 .59884 -.82449 1.39869 7.692 14.318)" gradientUnits="userSpaceOnUse"><stop offset=".686" stop-color="#C38A80"/><stop offset="1" stop-color="#BC7C7F"/></radialGradient><radialGradient id="man-biking-medium-light_svg__ac" cx="0" cy="0" r="1" gradientTransform="matrix(-.75 -.07813 .17332 -1.6638 8.553 15.09)" gradientUnits="userSpaceOnUse"><stop offset=".68" stop-color="#D29A8C" stop-opacity="0"/><stop offset="1" stop-color="#D29A8C"/></radialGradient><radialGradient id="man-biking-medium-light_svg__ae" cx="0" cy="0" r="1" gradientTransform="matrix(.66654 .44703 -.35079 .52304 10.79 8.305)" gradientUnits="userSpaceOnUse"><stop offset=".391" stop-color="#CC9778"/><stop offset="1" stop-color="#D4997B"/></radialGradient><radialGradient id="man-biking-medium-light_svg__ag" cx="0" cy="0" r="1" gradientTransform="matrix(3.08425 -1.18498 1.22901 3.19886 11.537 8.418)" gradientUnits="userSpaceOnUse"><stop offset=".164" stop-color="#D19F82"/><stop offset="1" stop-color="#CF9388"/></radialGradient><radialGradient id="man-biking-medium-light_svg__ah" cx="0" cy="0" r="1" gradientTransform="rotate(54.146 .987 15.543)scale(1.90381 1.53623)" gradientUnits="userSpaceOnUse"><stop stop-color="#A46F70"/><stop offset="1" stop-color="#A46F70" stop-opacity="0"/></radialGradient><radialGradient id="man-biking-medium-light_svg__ai" cx="0" cy="0" r="1" gradientTransform="rotate(85.75 2.366 10.657)scale(2.51204 3.16598)" gradientUnits="userSpaceOnUse"><stop offset=".571" stop-color="#CA9081" stop-opacity="0"/><stop offset="1" stop-color="#BD7678"/></radialGradient><radialGradient id="man-biking-medium-light_svg__aj" cx="0" cy="0" r="1" gradientTransform="rotate(134.041 6.069 6.322)scale(2.33765 2.60225)" gradientUnits="userSpaceOnUse"><stop offset=".368" stop-color="#D59E88"/><stop offset="1" stop-color="#D59E88" stop-opacity="0"/></radialGradient><radialGradient id="man-biking-medium-light_svg__am" cx="0" cy="0" r="1" gradientTransform="matrix(.855 1.58338 -1.03746 .5602 14.647 5.182)" gradientUnits="userSpaceOnUse"><stop stop-color="#F1D2AF"/><stop offset="1" stop-color="#E1BBA2"/></radialGradient><radialGradient id="man-biking-medium-light_svg__an" cx="0" cy="0" r="1" gradientTransform="rotate(-137.888 8.232 .67)scale(.85914)" gradientUnits="userSpaceOnUse"><stop stop-color="#E8BDA2"/><stop offset="1" stop-color="#C48B7A"/></radialGradient><radialGradient id="man-biking-medium-light_svg__aq" cx="0" cy="0" r="1" gradientTransform="matrix(.18722 -.0892 .5229 1.09738 13.377 6.967)" gradientUnits="userSpaceOnUse"><stop stop-color="#564975"/><stop offset="1" stop-color="#4D3A6E" stop-opacity="0"/></radialGradient><radialGradient id="man-biking-medium-light_svg__as" cx="0" cy="0" r="1" gradientTransform="matrix(1.01842 2.14198 -2.5176 1.19701 11.835 3.828)" gradientUnits="userSpaceOnUse"><stop offset=".045" stop-color="#4FBDFF"/><stop offset=".919" stop-color="#52ABE4"/></radialGradient><radialGradient id="man-biking-medium-light_svg__au" cx="0" cy="0" r="1" gradientTransform="matrix(-.29971 -.61174 1.56875 -.76859 12.351 5.577)" gradientUnits="userSpaceOnUse"><stop offset=".218" stop-color="#4B89D0"/><stop offset="1" stop-color="#337BCD"/></radialGradient><filter id="man-biking-medium-light_svg__a" width="9.938" height="9.938" x="2.059" y="20.567" color-interpolation-filters="sRGB" filterUnits="userSpaceOnUse"><feFlood flood-opacity="0" result="BackgroundImageFix"/><feBlend in="SourceGraphic" in2="BackgroundImageFix" result="shape"/><feColorMatrix in="SourceAlpha" result="hardAlpha" values="0 0 0 0 0 0 0 0 0 0 0 0 0 0 0 0 0 0 127 0"/><feOffset/><feGaussianBlur stdDeviation=".25"/><feComposite in2="hardAlpha" k2="-1" k3="1" operator="arithmetic"/><feColorMatrix values="0 0 0 0 0.227451 0 0 0 0 0.156863 0 0 0 0 0.27451 0 0 0 1 0"/><feBlend in2="shape" result="effect1_innerShadow_3987_23419"/></filter><filter id="man-biking-medium-light_svg__c" width="10.409" height="10.409" x="1.823" y="20.331" color-interpolation-filters="sRGB" filterUnits="userSpaceOnUse"><feFlood flood-opacity="0" result="BackgroundImageFix"/><feBlend in="SourceGraphic" in2="BackgroundImageFix" result="shape"/><feGaussianBlur result="effect1_foregroundBlur_3987_23419" stdDeviation=".25"/></filter><filter id="man-biking-medium-light_svg__m" width="10.037" height="10.037" x="20.004" y="20.467" color-interpolation-filters="sRGB" filterUnits="userSpaceOnUse"><feFlood flood-opacity="0" result="BackgroundImageFix"/><feBlend in="SourceGraphic" in2="BackgroundImageFix" result="shape"/><feColorMatrix in="SourceAlpha" result="hardAlpha" values="0 0 0 0 0 0 0 0 0 0 0 0 0 0 0 0 0 0 127 0"/><feOffset dx=".1" dy="-.1"/><feGaussianBlur stdDeviation=".2"/><feComposite in2="hardAlpha" k2="-1" k3="1" operator="arithmetic"/><feColorMatrix values="0 0 0 0 0.152941 0 0 0 0 0.0862745 0 0 0 0 0.164706 0 0 0 1 0"/><feBlend in2="shape" result="effect1_innerShadow_3987_23419"/></filter><filter id="man-biking-medium-light_svg__y" width="9.188" height="4.077" x="16.637" y="23.422" color-interpolation-filters="sRGB" filterUnits="userSpaceOnUse"><feFlood flood-opacity="0" result="BackgroundImageFix"/><feBlend in="SourceGraphic" in2="BackgroundImageFix" result="shape"/><feColorMatrix in="SourceAlpha" result="hardAlpha" values="0 0 0 0 0 0 0 0 0 0 0 0 0 0 0 0 0 0 127 0"/><feOffset dx=".25" dy="-.25"/><feGaussianBlur stdDeviation=".25"/><feComposite in2="hardAlpha" k2="-1" k3="1" operator="arithmetic"/><feColorMatrix values="0 0 0 0 0.701961 0 0 0 0 0.341176 0 0 0 0 0.254902 0 0 0 1 0"/><feBlend in2="shape" result="effect1_innerShadow_3987_23419"/><feColorMatrix in="SourceAlpha" result="hardAlpha" values="0 0 0 0 0 0 0 0 0 0 0 0 0 0 0 0 0 0 127 0"/><feOffset dx=".25" dy=".1"/><feGaussianBlur stdDeviation=".25"/><feComposite in2="hardAlpha" k2="-1" k3="1" operator="arithmetic"/><feColorMatrix values="0 0 0 0 0.894118 0 0 0 0 0.490196 0 0 0 0 0.196078 0 0 0 1 0"/><feBlend in2="effect1_innerShadow_3987_23419" result="effect2_innerShadow_3987_23419"/></filter><filter id="man-biking-medium-light_svg__D" width="4.034" height="2.181" x="13.499" y="23.635" color-interpolation-filters="sRGB" filterUnits="userSpaceOnUse"><feFlood flood-opacity="0" result="BackgroundImageFix"/><feBlend in="SourceGraphic" in2="BackgroundImageFix" result="shape"/><feColorMatrix in="SourceAlpha" result="hardAlpha" values="0 0 0 0 0 0 0 0 0 0 0 0 0 0 0 0 0 0 127 0"/><feOffset dx=".1" dy="-.15"/><feGaussianBlur stdDeviation=".125"/><feComposite in2="hardAlpha" k2="-1" k3="1" operator="arithmetic"/><feColorMatrix values="0 0 0 0 0.27451 0 0 0 0 0.188235 0 0 0 0 0.52549 0 0 0 1 0"/><feBlend in2="shape" result="effect1_innerShadow_3987_23419"/></filter><filter id="man-biking-medium-light_svg__I" width="3.572" height="8.62" x="15.172" y="16.045" color-interpolation-filters="sRGB" filterUnits="userSpaceOnUse"><feFlood flood-opacity="0" result="BackgroundImageFix"/><feBlend in="SourceGraphic" in2="BackgroundImageFix" result="shape"/><feColorMatrix in="SourceAlpha" result="hardAlpha" values="0 0 0 0 0 0 0 0 0 0 0 0 0 0 0 0 0 0 127 0"/><feOffset dx=".1" dy=".2"/><feGaussianBlur stdDeviation=".1"/><feComposite in2="hardAlpha" k2="-1" k3="1" operator="arithmetic"/><feColorMatrix values="0 0 0 0 0.890196 0 0 0 0 0.654902 0 0 0 0 0.54902 0 0 0 1 0"/><feBlend in2="shape" result="effect1_innerShadow_3987_23419"/></filter><filter id="man-biking-medium-light_svg__L" width="6.668" height="7.67" x="16.551" y="10.911" color-interpolation-filters="sRGB" filterUnits="userSpaceOnUse"><feFlood flood-opacity="0" result="BackgroundImageFix"/><feBlend in="SourceGraphic" in2="BackgroundImageFix" result="shape"/><feColorMatrix in="SourceAlpha" result="hardAlpha" values="0 0 0 0 0 0 0 0 0 0 0 0 0 0 0 0 0 0 127 0"/><feOffset dx=".25" dy="-.25"/><feGaussianBlur stdDeviation=".625"/><feComposite in2="hardAlpha" k2="-1" k3="1" operator="arithmetic"/><feColorMatrix values="0 0 0 0 0.482353 0 0 0 0 0.360784 0 0 0 0 0.556863 0 0 0 1 0"/><feBlend in2="shape" result="effect1_innerShadow_3987_23419"/></filter><filter id="man-biking-medium-light_svg__O" width="7.971" height="5.869" x="15.009" y="7.815" color-interpolation-filters="sRGB" filterUnits="userSpaceOnUse"><feFlood flood-opacity="0" result="BackgroundImageFix"/><feBlend in="SourceGraphic" in2="BackgroundImageFix" result="shape"/><feColorMatrix in="SourceAlpha" result="hardAlpha" values="0 0 0 0 0 0 0 0 0 0 0 0 0 0 0 0 0 0 127 0"/><feOffset dx="1"/><feGaussianBlur stdDeviation=".75"/><feComposite in2="hardAlpha" k2="-1" k3="1" operator="arithmetic"/><feColorMatrix values="0 0 0 0 0.282353 0 0 0 0 0.411765 0 0 0 0 0.717647 0 0 0 1 0"/><feBlend in2="shape" result="effect1_innerShadow_3987_23419"/></filter><filter id="man-biking-medium-light_svg__Q" width="6.005" height="4.259" x="6.906" y="11.594" color-interpolation-filters="sRGB" filterUnits="userSpaceOnUse"><feFlood flood-opacity="0" result="BackgroundImageFix"/><feBlend in="SourceGraphic" in2="BackgroundImageFix" result="shape"/><feColorMatrix in="SourceAlpha" result="hardAlpha" values="0 0 0 0 0 0 0 0 0 0 0 0 0 0 0 0 0 0 127 0"/><feOffset dx="-.25"/><feGaussianBlur stdDeviation=".5"/><feComposite in2="hardAlpha" k2="-1" k3="1" operator="arithmetic"/><feColorMatrix values="0 0 0 0 0.576471 0 0 0 0 0.505882 0 0 0 0 0.529412 0 0 0 1 0"/><feBlend in2="shape" result="effect1_innerShadow_3987_23419"/></filter><filter id="man-biking-medium-light_svg__S" width="3.137" height="2.915" x="6.906" y="13.188" color-interpolation-filters="sRGB" filterUnits="userSpaceOnUse"><feFlood flood-opacity="0" result="BackgroundImageFix"/><feBlend in="SourceGraphic" in2="BackgroundImageFix" result="shape"/><feColorMatrix in="SourceAlpha" result="hardAlpha" values="0 0 0 0 0 0 0 0 0 0 0 0 0 0 0 0 0 0 127 0"/><feOffset dx="-.25" dy=".25"/><feGaussianBlur stdDeviation=".25"/><feComposite in2="hardAlpha" k2="-1" k3="1" operator="arithmetic"/><feColorMatrix values="0 0 0 0 0.164706 0 0 0 0 0.117647 0 0 0 0 0.231373 0 0 0 1 0"/><feBlend in2="shape" result="effect1_innerShadow_3987_23419"/></filter><filter id="man-biking-medium-light_svg__T" width="10.272" height="6.937" x="7.782" y="8.15" color-interpolation-filters="sRGB" filterUnits="userSpaceOnUse"><feFlood flood-opacity="0" result="BackgroundImageFix"/><feBlend in="SourceGraphic" in2="BackgroundImageFix" result="shape"/><feColorMatrix in="SourceAlpha" result="hardAlpha" values="0 0 0 0 0 0 0 0 0 0 0 0 0 0 0 0 0 0 127 0"/><feOffset dx=".5" dy="-.5"/><feGaussianBlur stdDeviation=".375"/><feComposite in2="hardAlpha" k2="-1" k3="1" operator="arithmetic"/><feColorMatrix values="0 0 0 0 0.745098 0 0 0 0 0.478431 0 0 0 0 0.521569 0 0 0 1 0"/><feBlend in2="shape" result="effect1_innerShadow_3987_23419"/></filter><filter id="man-biking-medium-light_svg__X" width="5.496" height="6.372" x="17.697" y="11.335" color-interpolation-filters="sRGB" filterUnits="userSpaceOnUse"><feFlood flood-opacity="0" result="BackgroundImageFix"/><feBlend in="SourceGraphic" in2="BackgroundImageFix" result="shape"/><feGaussianBlur result="effect1_foregroundBlur_3987_23419" stdDeviation=".3"/></filter><filter id="man-biking-medium-light_svg__ad" width="2.969" height="2.969" x="7.711" y="12.498" color-interpolation-filters="sRGB" filterUnits="userSpaceOnUse"><feFlood flood-opacity="0" result="BackgroundImageFix"/><feBlend in="SourceGraphic" in2="BackgroundImageFix" result="shape"/><feGaussianBlur result="effect1_foregroundBlur_3987_23419" stdDeviation=".3"/></filter><filter id="man-biking-medium-light_svg__af" width="5.53" height="5.045" x="10.298" y="5.226" color-interpolation-filters="sRGB" filterUnits="userSpaceOnUse"><feFlood flood-opacity="0" result="BackgroundImageFix"/><feBlend in="SourceGraphic" in2="BackgroundImageFix" result="shape"/><feColorMatrix in="SourceAlpha" result="hardAlpha" values="0 0 0 0 0 0 0 0 0 0 0 0 0 0 0 0 0 0 127 0"/><feOffset dx=".25" dy=".15"/><feGaussianBlur stdDeviation=".15"/><feComposite in2="hardAlpha" k2="-1" k3="1" operator="arithmetic"/><feColorMatrix values="0 0 0 0 0.909804 0 0 0 0 0.670588 0 0 0 0 0.541176 0 0 0 1 0"/><feBlend in2="shape" result="effect1_innerShadow_3987_23419"/></filter><filter id="man-biking-medium-light_svg__al" width="3.123" height="2.787" x="13.074" y="4.643" color-interpolation-filters="sRGB" filterUnits="userSpaceOnUse"><feFlood flood-opacity="0" result="BackgroundImageFix"/><feBlend in="SourceGraphic" in2="BackgroundImageFix" result="shape"/><feColorMatrix in="SourceAlpha" result="hardAlpha" values="0 0 0 0 0 0 0 0 0 0 0 0 0 0 0 0 0 0 127 0"/><feOffset dx=".4" dy="-.1"/><feGaussianBlur stdDeviation=".25"/><feComposite in2="hardAlpha" k2="-1" k3="1" operator="arithmetic"/><feColorMatrix values="0 0 0 0 0.776471 0 0 0 0 0.623529 0 0 0 0 0.486275 0 0 0 1 0"/><feBlend in2="shape" result="effect1_innerShadow_3987_23419"/></filter><filter id="man-biking-medium-light_svg__ar" width="5.899" height="5.056" x="9.248" y="2.44" color-interpolation-filters="sRGB" filterUnits="userSpaceOnUse"><feFlood flood-opacity="0" result="BackgroundImageFix"/><feBlend in="SourceGraphic" in2="BackgroundImageFix" result="shape"/><feColorMatrix in="SourceAlpha" result="hardAlpha" values="0 0 0 0 0 0 0 0 0 0 0 0 0 0 0 0 0 0 127 0"/><feOffset dy="-.15"/><feGaussianBlur stdDeviation=".3"/><feComposite in2="hardAlpha" k2="-1" k3="1" operator="arithmetic"/><feColorMatrix values="0 0 0 0 0.305882 0 0 0 0 0.556863 0 0 0 0 0.882353 0 0 0 1 0"/><feBlend in2="shape" result="effect1_innerShadow_3987_23419"/></filter><filter id="man-biking-medium-light_svg__at" width="1.991" height="1.376" x="11.201" y="4.587" color-interpolation-filters="sRGB" filterUnits="userSpaceOnUse"><feFlood flood-opacity="0" result="BackgroundImageFix"/><feBlend in="SourceGraphic" in2="BackgroundImageFix" result="shape"/><feColorMatrix in="SourceAlpha" result="hardAlpha" values="0 0 0 0 0 0 0 0 0 0 0 0 0 0 0 0 0 0 127 0"/><feOffset/><feGaussianBlur stdDeviation=".25"/><feComposite in2="hardAlpha" k2="-1" k3="1" operator="arithmetic"/><feColorMatrix values="0 0 0 0 0.137255 0 0 0 0 0.482353 0 0 0 0 0.796078 0 0 0 1 0"/><feBlend in2="shape" result="effect1_innerShadow_3987_23419"/></filter><linearGradient id="man-biking-medium-light_svg__d" x1="9.238" x2="3.207" y1="21.872" y2="28.903" gradientUnits="userSpaceOnUse"><stop stop-color="#302A5B"/><stop offset="1" stop-color="#302A5B" stop-opacity="0"/></linearGradient><linearGradient id="man-biking-medium-light_svg__e" x1="17.707" x2="18.676" y1="21.075" y2="20.069" gradientUnits="userSpaceOnUse"><stop offset=".573" stop-color="#BB7774"/><stop offset="1" stop-color="#C6957F"/></linearGradient><linearGradient id="man-biking-medium-light_svg__f" x1="22.223" x2="17.629" y1="22.643" y2="22.184" gradientUnits="userSpaceOnUse"><stop offset=".891" stop-color="#615F76" stop-opacity="0"/><stop offset="1" stop-color="#615F76"/></linearGradient><linearGradient id="man-biking-medium-light_svg__h" x1="11.504" x2="10.629" y1="15.466" y2="15.184" gradientUnits="userSpaceOnUse"><stop stop-color="#BFA8C7"/><stop offset="1" stop-color="#908590"/></linearGradient><linearGradient id="man-biking-medium-light_svg__j" x1="9.738" x2="8.457" y1="20.419" y2="19.934" gradientUnits="userSpaceOnUse"><stop offset=".146" stop-color="#D4385B"/><stop offset="1" stop-color="#973C50"/></linearGradient><linearGradient id="man-biking-medium-light_svg__l" x1="12.957" x2="13.348" y1="22.466" y2="21.966" gradientUnits="userSpaceOnUse"><stop stop-color="#96275E"/><stop offset="1" stop-color="#96275E" stop-opacity="0"/><stop offset="1" stop-color="#9C2649" stop-opacity="0"/></linearGradient><linearGradient id="man-biking-medium-light_svg__o" x1="20.004" x2="27.759" y1="27.977" y2="25.536" gradientUnits="userSpaceOnUse"><stop stop-color="#352542"/><stop offset="1" stop-color="#352542" stop-opacity="0"/></linearGradient><linearGradient id="man-biking-medium-light_svg__p" x1="23.785" x2="22.723" y1="22.403" y2="23.153" gradientUnits="userSpaceOnUse"><stop stop-color="#FD5A60"/><stop offset="1" stop-color="#AF253C"/></linearGradient><linearGradient id="man-biking-medium-light_svg__q" x1="19.582" x2="18.566" y1="21.177" y2="21.028" gradientUnits="userSpaceOnUse"><stop stop-color="#E5435F"/><stop offset="1" stop-color="#A62F2F"/></linearGradient><linearGradient id="man-biking-medium-light_svg__x" x1="16.59" x2="16.957" y1="14.301" y2="14.833" gradientUnits="userSpaceOnUse"><stop stop-color="#72696B"/><stop offset="1" stop-color="#72696B" stop-opacity="0"/></linearGradient><linearGradient id="man-biking-medium-light_svg__z" x1="25.301" x2="16.637" y1="25.536" y2="25.536" gradientUnits="userSpaceOnUse"><stop stop-color="#F7B14E"/><stop offset="1" stop-color="#E8774D"/></linearGradient><linearGradient id="man-biking-medium-light_svg__E" x1="17.434" x2="16.676" y1="25.403" y2="25.403" gradientUnits="userSpaceOnUse"><stop stop-color="#605C92"/><stop offset="1" stop-color="#605C92" stop-opacity="0"/></linearGradient><linearGradient id="man-biking-medium-light_svg__G" x1="15.52" x2="13.475" y1="9.934" y2="10.017" gradientUnits="userSpaceOnUse"><stop stop-color="#E1AE8C"/><stop offset="1" stop-color="#B66C66"/></linearGradient><linearGradient id="man-biking-medium-light_svg__ak" x1="11.424" x2="11.082" y1="7.727" y2="7.252" gradientUnits="userSpaceOnUse"><stop stop-color="#6F443D"/><stop offset="1" stop-color="#5A332D"/></linearGradient><linearGradient id="man-biking-medium-light_svg__ao" x1="13.747" x2="13.331" y1="7.149" y2="7.369" gradientUnits="userSpaceOnUse"><stop stop-color="#37234C"/><stop offset="1" stop-color="#37234C" stop-opacity="0"/></linearGradient><linearGradient id="man-biking-medium-light_svg__ap" x1="13.619" x2="14.14" y1="8.96" y2="8.639" gradientUnits="userSpaceOnUse"><stop offset=".324" stop-color="#72687C"/><stop offset="1" stop-color="#72687C" stop-opacity="0"/></linearGradient></defs></svg>