<svg xmlns="http://www.w3.org/2000/svg" fill="none" viewBox="0 0 32 32"><path fill="#56436B" d="M16.125 15.416c-6.07 0-11 4.92-11 11v3.5h21.99v-3.5c0-6.08-4.92-11-10.99-11"/><path fill="url(#man-student_svg__a)" d="M16.125 15.416c-6.07 0-11 4.92-11 11v3.5h21.99v-3.5c0-6.08-4.92-11-10.99-11"/><path fill="url(#man-student_svg__b)" d="M16.125 15.416c-6.07 0-11 4.92-11 11v3.5h21.99v-3.5c0-6.08-4.92-11-10.99-11"/><path fill="url(#man-student_svg__c)" d="M23.141 18.015a.24.24 0 0 0-.059-.29c-1.856-1.603-4.346-2.487-6.954-2.487s-5.113.894-6.97 2.487a.24.24 0 0 0-.06.29c1.276 2.6 3.756 4.614 7.03 4.614s5.73-2.014 7.013-4.614"/><path fill="url(#man-student_svg__d)" d="M23.141 18.015a.24.24 0 0 0-.059-.29c-1.856-1.603-4.346-2.487-6.954-2.487s-5.113.894-6.97 2.487a.24.24 0 0 0-.06.29c1.276 2.6 3.756 4.614 7.03 4.614s5.73-2.014 7.013-4.614"/><path fill="url(#man-student_svg__e)" d="M23.141 18.015a.24.24 0 0 0-.059-.29c-1.856-1.603-4.346-2.487-6.954-2.487s-5.113.894-6.97 2.487a.24.24 0 0 0-.06.29c1.276 2.6 3.756 4.614 7.03 4.614s5.73-2.014 7.013-4.614"/><path fill="url(#man-student_svg__f)" d="M23.141 18.015a.24.24 0 0 0-.059-.29c-1.856-1.603-4.346-2.487-6.954-2.487s-5.113.894-6.97 2.487a.24.24 0 0 0-.06.29c1.276 2.6 3.756 4.614 7.03 4.614s5.73-2.014 7.013-4.614"/><path fill="url(#man-student_svg__g)" d="M23.141 18.015a.24.24 0 0 0-.059-.29c-1.856-1.603-4.346-2.487-6.954-2.487s-5.113.894-6.97 2.487a.24.24 0 0 0-.06.29c1.276 2.6 3.756 4.614 7.03 4.614s5.73-2.014 7.013-4.614"/><path fill="url(#man-student_svg__h)" d="M23.141 18.015a.24.24 0 0 0-.059-.29c-1.856-1.603-4.346-2.487-6.954-2.487s-5.113.894-6.97 2.487a.24.24 0 0 0-.06.29c1.276 2.6 3.756 4.614 7.03 4.614s5.73-2.014 7.013-4.614"/><path fill="url(#man-student_svg__i)" d="M15.826 18.786c.063.043.17.08.28.084a.56.56 0 0 0 .28-.084c1.017-.696 1.78-1.39 1.78-2.587v-3.633c0-1.14-.92-2.06-2.06-2.06s-2.06.92-2.06 2.06v3.633c0 1.198.764 1.89 1.78 2.587"/><path fill="url(#man-student_svg__j)" d="M24.853 11.588V2.726h-.8v8.862z"/><path fill="url(#man-student_svg__k)" d="M24.853 11.588V2.726h-.8v8.862z"/><path fill="url(#man-student_svg__l)" d="M24.053 11.565a.838.838 0 1 0 .8 0z"/><path fill="url(#man-student_svg__m)" d="M24.053 11.565a.838.838 0 1 0 .8 0z"/><g filter="url(#man-student_svg__n)"><path stroke="url(#man-student_svg__o)" stroke-width=".15" d="M24.556 3.63v7.767"/></g><path fill="url(#man-student_svg__p)" d="m23.6 13.526-.517 2.238a.45.45 0 0 0 .445.552h1.863a.45.45 0 0 0 .43-.558l-.542-2.239a.5.5 0 0 0-.485-.38h-.707a.5.5 0 0 0-.488.387"/><path fill="url(#man-student_svg__q)" d="m23.6 13.526-.517 2.238a.45.45 0 0 0 .445.552h1.863a.45.45 0 0 0 .43-.558l-.542-2.239a.5.5 0 0 0-.485-.38h-.707a.5.5 0 0 0-.488.387"/><path fill="url(#man-student_svg__r)" d="m23.6 13.526-.517 2.238a.45.45 0 0 0 .445.552h1.863a.45.45 0 0 0 .43-.558l-.542-2.239a.5.5 0 0 0-.485-.38h-.707a.5.5 0 0 0-.488.387"/><path fill="url(#man-student_svg__s)" d="m23.6 13.526-.517 2.238a.45.45 0 0 0 .445.552h1.863a.45.45 0 0 0 .43-.558l-.542-2.239a.5.5 0 0 0-.485-.38h-.707a.5.5 0 0 0-.488.387"/><path fill="url(#man-student_svg__t)" d="m23.6 13.526-.517 2.238a.45.45 0 0 0 .445.552h1.863a.45.45 0 0 0 .43-.558l-.542-2.239a.5.5 0 0 0-.485-.38h-.707a.5.5 0 0 0-.488.387"/><path fill="url(#man-student_svg__u)" d="M8.89 29.916V18.129a10.97 10.97 0 0 0-3.765 8.287v3.5z"/><path fill="url(#man-student_svg__v)" d="M8.89 29.916V18.129a10.97 10.97 0 0 0-3.765 8.287v3.5z"/><path fill="url(#man-student_svg__w)" d="M8.89 29.916V18.129a10.97 10.97 0 0 0-3.765 8.287v3.5z"/><path fill="url(#man-student_svg__x)" d="M23.35 29.916V18.129a10.97 10.97 0 0 1 3.765 8.287v3.5z"/><path fill="url(#man-student_svg__y)" d="M23.35 29.916V18.129a10.97 10.97 0 0 1 3.765 8.287v3.5z"/><g filter="url(#man-student_svg__z)"><path fill="url(#man-student_svg__A)" d="M11.788 23.692c0-.188.155-.34.346-.34s.345.152.345.34v6.093h-.69z"/><path fill="url(#man-student_svg__B)" d="M15.774 23.692c0-.188.155-.34.346-.34s.346.152.346.34v6.093h-.692z"/><path fill="url(#man-student_svg__C)" d="M19.76 23.692c0-.188.155-.34.346-.34s.346.152.346.34v6.093h-.691z"/></g><g filter="url(#man-student_svg__D)"><path stroke="url(#man-student_svg__E)" stroke-linecap="round" stroke-width=".1" d="M13.072 4.006c.025.255.246 1.214.572 1.795"/></g><circle cx="11.313" cy="10.465" r="1.682" fill="url(#man-student_svg__F)"/><g filter="url(#man-student_svg__G)"><circle cx="11.313" cy="10.465" r="1.003" fill="url(#man-student_svg__H)"/></g><g filter="url(#man-student_svg__I)"><circle cx="20.9" cy="10.465" r="1.682" fill="url(#man-student_svg__J)"/><circle cx="20.9" cy="10.465" r="1.682" fill="url(#man-student_svg__K)"/></g><g filter="url(#man-student_svg__L)"><circle cx="20.9" cy="10.465" r="1.003" fill="#FFBF34"/><circle cx="20.9" cy="10.465" r="1.003" fill="url(#man-student_svg__M)"/><circle cx="20.9" cy="10.465" r="1.003" fill="url(#man-student_svg__N)"/></g><path fill="url(#man-student_svg__O)" d="M10.958 9.848a30 30 0 0 1-.059-1.45c0-.269.109-.591.325-.752l.162-.162c.27-.215.378-.537.378-.86v-.86c0-.268.163-.483.433-.537.649-.161 2-.43 3.946-.43s3.297.269 3.946.43c.216.054.433.269.433.537v.86c0 .323.162.645.378.86.506.355.475.55.433.968-.013.13-.054 1.204-.09 1.45l-.268 3.99c-.162 1.784-1.564 3.027-3.236 3.027h-3.235c-1.726 0-3.074-1.243-3.235-3.027z"/><path fill="url(#man-student_svg__P)" d="M10.958 9.848a30 30 0 0 1-.059-1.45c0-.269.109-.591.325-.752l.162-.162c.27-.215.378-.537.378-.86v-.86c0-.268.163-.483.433-.537.649-.161 2-.43 3.946-.43s3.297.269 3.946.43c.216.054.433.269.433.537v.86c0 .323.162.645.378.86.506.355.475.55.433.968-.013.13-.054 1.204-.09 1.45l-.268 3.99c-.162 1.784-1.564 3.027-3.236 3.027h-3.235c-1.726 0-3.074-1.243-3.235-3.027z"/><path fill="url(#man-student_svg__Q)" d="M10.958 9.848a30 30 0 0 1-.059-1.45c0-.269.109-.591.325-.752l.162-.162c.27-.215.378-.537.378-.86v-.86c0-.268.163-.483.433-.537.649-.161 2-.43 3.946-.43s3.297.269 3.946.43c.216.054.433.269.433.537v.86c0 .323.162.645.378.86.506.355.475.55.433.968-.013.13-.054 1.204-.09 1.45l-.268 3.99c-.162 1.784-1.564 3.027-3.236 3.027h-3.235c-1.726 0-3.074-1.243-3.235-3.027z"/><path fill="url(#man-student_svg__R)" d="M10.958 9.848a30 30 0 0 1-.059-1.45c0-.269.109-.591.325-.752l.162-.162c.27-.215.378-.537.378-.86v-.86c0-.268.163-.483.433-.537.649-.161 2-.43 3.946-.43s3.297.269 3.946.43c.216.054.433.269.433.537v.86c0 .323.162.645.378.86.506.355.475.55.433.968-.013.13-.054 1.204-.09 1.45l-.268 3.99c-.162 1.784-1.564 3.027-3.236 3.027h-3.235c-1.726 0-3.074-1.243-3.235-3.027z"/><path fill="url(#man-student_svg__S)" d="M10.958 9.848a30 30 0 0 1-.059-1.45c0-.269.109-.591.325-.752l.162-.162c.27-.215.378-.537.378-.86v-.86c0-.268.163-.483.433-.537.649-.161 2-.43 3.946-.43s3.297.269 3.946.43c.216.054.433.269.433.537v.86c0 .323.162.645.378.86.506.355.475.55.433.968-.013.13-.054 1.204-.09 1.45l-.268 3.99c-.162 1.784-1.564 3.027-3.236 3.027h-3.235c-1.726 0-3.074-1.243-3.235-3.027z"/><path fill="url(#man-student_svg__T)" d="M10.958 9.848a30 30 0 0 1-.059-1.45c0-.269.109-.591.325-.752l.162-.162c.27-.215.378-.537.378-.86v-.86c0-.268.163-.483.433-.537.649-.161 2-.43 3.946-.43s3.297.269 3.946.43c.216.054.433.269.433.537v.86c0 .323.162.645.378.86.506.355.475.55.433.968-.013.13-.054 1.204-.09 1.45l-.268 3.99c-.162 1.784-1.564 3.027-3.236 3.027h-3.235c-1.726 0-3.074-1.243-3.235-3.027z"/><g filter="url(#man-student_svg__U)"><path fill="#FFA91B" d="m20.954 3.937.289.223c.756.376 1.333 1.228 1.17 2.142l-.594 3.064c-.053.316-.262.53-.576.537.036-.507.069-1.326.082-1.456.044-.436-.025-.565-.425-.962-.216-.215-.378-.538-.378-.86v-.86c0-.27-.217-.484-.433-.538-.649-.161-2-.43-3.946-.43s-3.298.269-3.946.43a.524.524 0 0 0-.433.538v.86c0 .322-.108.645-.378.86l-.162.16c-.217.162-.326.499-.326.768.015.156.036 1.06.06 1.435a.64.64 0 0 1-.6-.536l-.594-3.064c-.108-.86.325-1.72 1.081-2.096 1.022-.448 1.394-1.128 2.217-1.827.594-.538 1.46-.302 2.216.074.54.162 1.135.162 1.676 0 .81-.268 1.73-.45 2.378.14l.811.807c.216.269.487.43.811.591"/><path fill="url(#man-student_svg__V)" d="m20.954 3.937.289.223c.756.376 1.333 1.228 1.17 2.142l-.594 3.064c-.053.316-.262.53-.576.537.036-.507.069-1.326.082-1.456.044-.436-.025-.565-.425-.962-.216-.215-.378-.538-.378-.86v-.86c0-.27-.217-.484-.433-.538-.649-.161-2-.43-3.946-.43s-3.298.269-3.946.43a.524.524 0 0 0-.433.538v.86c0 .322-.108.645-.378.86l-.162.16c-.217.162-.326.499-.326.768.015.156.036 1.06.06 1.435a.64.64 0 0 1-.6-.536l-.594-3.064c-.108-.86.325-1.72 1.081-2.096 1.022-.448 1.394-1.128 2.217-1.827.594-.538 1.46-.302 2.216.074.54.162 1.135.162 1.676 0 .81-.268 1.73-.45 2.378.14l.811.807c.216.269.487.43.811.591"/><path fill="url(#man-student_svg__W)" d="m20.954 3.937.289.223c.756.376 1.333 1.228 1.17 2.142l-.594 3.064c-.053.316-.262.53-.576.537.036-.507.069-1.326.082-1.456.044-.436-.025-.565-.425-.962-.216-.215-.378-.538-.378-.86v-.86c0-.27-.217-.484-.433-.538-.649-.161-2-.43-3.946-.43s-3.298.269-3.946.43a.524.524 0 0 0-.433.538v.86c0 .322-.108.645-.378.86l-.162.16c-.217.162-.326.499-.326.768.015.156.036 1.06.06 1.435a.64.64 0 0 1-.6-.536l-.594-3.064c-.108-.86.325-1.72 1.081-2.096 1.022-.448 1.394-1.128 2.217-1.827.594-.538 1.46-.302 2.216.074.54.162 1.135.162 1.676 0 .81-.268 1.73-.45 2.378.14l.811.807c.216.269.487.43.811.591"/><path fill="url(#man-student_svg__X)" d="m20.954 3.937.289.223c.756.376 1.333 1.228 1.17 2.142l-.594 3.064c-.053.316-.262.53-.576.537.036-.507.069-1.326.082-1.456.044-.436-.025-.565-.425-.962-.216-.215-.378-.538-.378-.86v-.86c0-.27-.217-.484-.433-.538-.649-.161-2-.43-3.946-.43s-3.298.269-3.946.43a.524.524 0 0 0-.433.538v.86c0 .322-.108.645-.378.86l-.162.16c-.217.162-.326.499-.326.768.015.156.036 1.06.06 1.435a.64.64 0 0 1-.6-.536l-.594-3.064c-.108-.86.325-1.72 1.081-2.096 1.022-.448 1.394-1.128 2.217-1.827.594-.538 1.46-.302 2.216.074.54.162 1.135.162 1.676 0 .81-.268 1.73-.45 2.378.14l.811.807c.216.269.487.43.811.591"/><path fill="url(#man-student_svg__Y)" d="m20.954 3.937.289.223c.756.376 1.333 1.228 1.17 2.142l-.594 3.064c-.053.316-.262.53-.576.537.036-.507.069-1.326.082-1.456.044-.436-.025-.565-.425-.962-.216-.215-.378-.538-.378-.86v-.86c0-.27-.217-.484-.433-.538-.649-.161-2-.43-3.946-.43s-3.298.269-3.946.43a.524.524 0 0 0-.433.538v.86c0 .322-.108.645-.378.86l-.162.16c-.217.162-.326.499-.326.768.015.156.036 1.06.06 1.435a.64.64 0 0 1-.6-.536l-.594-3.064c-.108-.86.325-1.72 1.081-2.096 1.022-.448 1.394-1.128 2.217-1.827.594-.538 1.46-.302 2.216.074.54.162 1.135.162 1.676 0 .81-.268 1.73-.45 2.378.14l.811.807c.216.269.487.43.811.591"/><path fill="url(#man-student_svg__Z)" d="m20.954 3.937.289.223c.756.376 1.333 1.228 1.17 2.142l-.594 3.064c-.053.316-.262.53-.576.537.036-.507.069-1.326.082-1.456.044-.436-.025-.565-.425-.962-.216-.215-.378-.538-.378-.86v-.86c0-.27-.217-.484-.433-.538-.649-.161-2-.43-3.946-.43s-3.298.269-3.946.43a.524.524 0 0 0-.433.538v.86c0 .322-.108.645-.378.86l-.162.16c-.217.162-.326.499-.326.768.015.156.036 1.06.06 1.435a.64.64 0 0 1-.6-.536l-.594-3.064c-.108-.86.325-1.72 1.081-2.096 1.022-.448 1.394-1.128 2.217-1.827.594-.538 1.46-.302 2.216.074.54.162 1.135.162 1.676 0 .81-.268 1.73-.45 2.378.14l.811.807c.216.269.487.43.811.591"/><path fill="url(#man-student_svg__aa)" d="m20.954 3.937.289.223c.756.376 1.333 1.228 1.17 2.142l-.594 3.064c-.053.316-.262.53-.576.537.036-.507.069-1.326.082-1.456.044-.436-.025-.565-.425-.962-.216-.215-.378-.538-.378-.86v-.86c0-.27-.217-.484-.433-.538-.649-.161-2-.43-3.946-.43s-3.298.269-3.946.43a.524.524 0 0 0-.433.538v.86c0 .322-.108.645-.378.86l-.162.16c-.217.162-.326.499-.326.768.015.156.036 1.06.06 1.435a.64.64 0 0 1-.6-.536l-.594-3.064c-.108-.86.325-1.72 1.081-2.096 1.022-.448 1.394-1.128 2.217-1.827.594-.538 1.46-.302 2.216.074.54.162 1.135.162 1.676 0 .81-.268 1.73-.45 2.378.14l.811.807c.216.269.487.43.811.591"/></g><path fill="url(#man-student_svg__ab)" d="m20.954 3.937.289.234c.756.376 1.333 1.217 1.17 2.13l-.594 3.064c-.053.317-.262.53-.576.538.036-.508.069-1.327.082-1.456.044-.436-.025-.565-.425-.963-.216-.215-.378-.537-.378-.86v-.86c0-.269-.217-.484-.433-.537-.649-.162-2-.43-3.946-.43s-3.298.268-3.946.43a.524.524 0 0 0-.433.537v.86c0 .323-.108.645-.378.86l-.162.161c-.217.162-.326.499-.326.767.015.157.036 1.06.06 1.436a.64.64 0 0 1-.6-.536l-.594-3.064c-.108-.86.325-1.72 1.081-2.096 1.022-.448 1.394-1.128 2.217-1.828.594-.537 1.46-.376 2.216 0 .54.162 1.135.162 1.676 0 .81-.268 1.73-.376 2.378.215l.811.807c.216.268.487.43.811.59"/><path fill="url(#man-student_svg__ac)" d="m20.954 3.937.289.234c.756.376 1.333 1.217 1.17 2.13l-.594 3.064c-.053.317-.262.53-.576.538.036-.508.069-1.327.082-1.456.044-.436-.025-.565-.425-.963-.216-.215-.378-.537-.378-.86v-.86c0-.269-.217-.484-.433-.537-.649-.162-2-.43-3.946-.43s-3.298.268-3.946.43a.524.524 0 0 0-.433.537v.86c0 .323-.108.645-.378.86l-.162.161c-.217.162-.326.499-.326.767.015.157.036 1.06.06 1.436a.64.64 0 0 1-.6-.536l-.594-3.064c-.108-.86.325-1.72 1.081-2.096 1.022-.448 1.394-1.128 2.217-1.828.594-.537 1.46-.376 2.216 0 .54.162 1.135.162 1.676 0 .81-.268 1.73-.376 2.378.215l.811.807c.216.268.487.43.811.59"/><path fill="url(#man-student_svg__ad)" d="m20.954 3.937.289.234c.756.376 1.333 1.217 1.17 2.13l-.594 3.064c-.053.317-.262.53-.576.538.036-.508.069-1.327.082-1.456.044-.436-.025-.565-.425-.963-.216-.215-.378-.537-.378-.86v-.86c0-.269-.217-.484-.433-.537-.649-.162-2-.43-3.946-.43s-3.298.268-3.946.43a.524.524 0 0 0-.433.537v.86c0 .323-.108.645-.378.86l-.162.161c-.217.162-.326.499-.326.767.015.157.036 1.06.06 1.436a.64.64 0 0 1-.6-.536l-.594-3.064c-.108-.86.325-1.72 1.081-2.096 1.022-.448 1.394-1.128 2.217-1.828.594-.537 1.46-.376 2.216 0 .54.162 1.135.162 1.676 0 .81-.268 1.73-.376 2.378.215l.811.807c.216.268.487.43.811.59"/><g filter="url(#man-student_svg__ae)"><path fill="#F1901C" d="m15.82 10.342-.827 1.713c-.102.352.144.705.492.705h.743c.349 0 .595-.358.492-.705l-.502-1.713c-.108-.38-.285-.38-.398 0"/></g><g filter="url(#man-student_svg__af)"><path fill="#FFCC28" d="m15.712 10.178-.535 1.712a.543.543 0 0 0 .524.705h.793a.545.545 0 0 0 .524-.705l-.535-1.712c-.115-.38-.65-.38-.77 0"/><path fill="url(#man-student_svg__ag)" d="m15.712 10.178-.535 1.712a.543.543 0 0 0 .524.705h.793a.545.545 0 0 0 .524-.705l-.535-1.712c-.115-.38-.65-.38-.77 0"/><path fill="url(#man-student_svg__ah)" d="m15.712 10.178-.535 1.712a.543.543 0 0 0 .524.705h.793a.545.545 0 0 0 .524-.705l-.535-1.712c-.115-.38-.65-.38-.77 0"/><path fill="url(#man-student_svg__ai)" d="m15.712 10.178-.535 1.712a.543.543 0 0 0 .524.705h.793a.545.545 0 0 0 .524-.705l-.535-1.712c-.115-.38-.65-.38-.77 0"/></g><path fill="url(#man-student_svg__aj)" d="m15.712 10.178-.535 1.712a.543.543 0 0 0 .524.705h.793a.545.545 0 0 0 .524-.705l-.535-1.712c-.115-.38-.65-.38-.77 0"/><g filter="url(#man-student_svg__ak)"><path stroke="url(#man-student_svg__al)" stroke-width=".2" d="M16.098 13.62c-.512 0-.992-.121-1.396-.332-.138-.07-.287.086-.2.211.338.511.926.852 1.596.852s1.257-.34 1.595-.852c.087-.13-.062-.28-.2-.21-.403.21-.879.33-1.395.33Z"/></g><path fill="#8A004F" d="M16.098 13.62c-.512 0-.992-.121-1.396-.332-.138-.07-.287.086-.2.211.338.511.926.852 1.596.852s1.257-.34 1.595-.852c.087-.13-.062-.28-.2-.21-.403.21-.879.33-1.395.33"/><path fill="#fff" d="M18.504 9.023c.658 0 1.214.454 1.365 1.067a.276.276 0 0 1-.27.344h-2.248a.232.232 0 0 1-.229-.274 1.41 1.41 0 0 1 1.382-1.137"/><path fill="url(#man-student_svg__am)" d="M18.296 9.297a.9.9 0 0 1 .866 1.137h-1.737a.903.903 0 0 1 .87-1.136"/><path fill="#000" d="M17.78 10.197c0-.286.23-.515.515-.515a.513.513 0 0 1 .458.752h-.911a.47.47 0 0 1-.061-.237"/><g filter="url(#man-student_svg__an)"><path fill="#C7A7A3" d="M18.229 9.488c.064.085-.07.19-.222.303-.152.114-.265.194-.33.109-.063-.086.008-.248.16-.361.152-.114.328-.137.392-.051"/><path fill="url(#man-student_svg__ao)" d="M18.229 9.488c.064.085-.07.19-.222.303-.152.114-.265.194-.33.109-.063-.086.008-.248.16-.361.152-.114.328-.137.392-.051"/></g><g filter="url(#man-student_svg__ap)"><path fill="url(#man-student_svg__aq)" d="M19.097 10.078a.85.85 0 0 0-.234-.466l-.261.287.118.23z"/></g><path fill="#fff" d="M13.686 9.023c-.658 0-1.214.454-1.365 1.067a.276.276 0 0 0 .27.344h2.248c.143 0 .257-.131.229-.274a1.41 1.41 0 0 0-1.382-1.137"/><path fill="url(#man-student_svg__ar)" d="M13.894 9.297a.9.9 0 0 0-.866 1.137h1.737a1 1 0 0 0 .033-.237.905.905 0 0 0-.904-.9"/><path fill="#000" d="M14.41 10.197a.513.513 0 0 0-.516-.515.513.513 0 0 0-.457.752h.911a.5.5 0 0 0 .061-.237"/><g filter="url(#man-student_svg__as)"><path fill="url(#man-student_svg__at)" d="M14.715 10.09c0-.29-.236-.484-.3-.542l-.29.28.179.364z"/></g><g filter="url(#man-student_svg__au)" transform="rotate(-27.914 13.623 9.681)"><ellipse cx="13.623" cy="9.681" fill="#C7A7A3" fill-opacity=".9" rx=".392" ry=".198"/><ellipse cx="13.623" cy="9.681" fill="url(#man-student_svg__av)" rx=".392" ry=".198"/></g><g filter="url(#man-student_svg__aw)"><path fill="#A74C2F" fill-rule="evenodd" d="M17.891 8.243c.726-.068 1.19.215 1.304.319a.476.476 0 0 0 .645-.7c-.309-.285-1.04-.66-2.037-.567a.476.476 0 0 0 .088.948" clip-rule="evenodd"/></g><g filter="url(#man-student_svg__ax)"><path stroke="#B06552" stroke-linecap="round" stroke-width=".15" d="M19.517 8.1c-.21-.194-.809-.524-1.67-.443"/></g><g filter="url(#man-student_svg__ay)"><path fill="#A74C2F" fill-rule="evenodd" d="M14.304 8.243c-.725-.068-1.19.215-1.303.319a.476.476 0 0 1-.645-.7c.308-.285 1.04-.66 2.037-.567a.476.476 0 0 1-.089.948" clip-rule="evenodd"/></g><g filter="url(#man-student_svg__az)"><path stroke="#B06552" stroke-linecap="round" stroke-width=".15" d="M12.678 8.1c.21-.194.809-.524 1.67-.443"/></g><path fill="url(#man-student_svg__aA)" d="m9.887 5.168 1.253-1.992 9.75-.11 1.36 2.063c-4.664 1.61-10.274.773-12.363.039"/><path fill="url(#man-student_svg__aB)" d="M24.063 3.526H8.093c-.44 0-.8-.36-.8-.8s.36-.8.8-.8h15.96c.44 0 .8.36.8.8.01.44-.35.8-.79.8"/><path fill="url(#man-student_svg__aC)" d="M24.063 3.526H8.093c-.44 0-.8-.36-.8-.8s.36-.8.8-.8h15.96c.44 0 .8.36.8.8.01.44-.35.8-.79.8"/><path fill="url(#man-student_svg__aD)" d="M24.063 3.526H8.093c-.44 0-.8-.36-.8-.8s.36-.8.8-.8h15.96c.44 0 .8.36.8.8.01.44-.35.8-.79.8"/><defs><radialGradient id="man-student_svg__a" cx="0" cy="0" r="1" gradientTransform="matrix(0 10.875 -3.65625 0 23.422 23.035)" gradientUnits="userSpaceOnUse"><stop stop-color="#70647F"/><stop offset="1" stop-color="#70647F" stop-opacity="0"/></radialGradient><radialGradient id="man-student_svg__b" cx="0" cy="0" r="1" gradientTransform="matrix(1.3125 0 0 7.0625 8.828 21.38)" gradientUnits="userSpaceOnUse"><stop stop-color="#5D516A"/><stop offset="1" stop-color="#5D516A" stop-opacity="0"/></radialGradient><radialGradient id="man-student_svg__c" cx="0" cy="0" r="1" gradientTransform="matrix(0 -4.71875 13.6527 0 16.128 21.27)" gradientUnits="userSpaceOnUse"><stop stop-color="#47404D"/><stop offset="1" stop-color="#3B2D3A"/></radialGradient><radialGradient id="man-student_svg__d" cx="0" cy="0" r="1" gradientTransform="matrix(0 5.9375 -7.54205 0 16.12 16.816)" gradientUnits="userSpaceOnUse"><stop offset=".932" stop-color="#342542" stop-opacity="0"/><stop offset=".995" stop-color="#342542"/></radialGradient><radialGradient id="man-student_svg__e" cx="0" cy="0" r="1" gradientTransform="matrix(-5.88284 4.0234 -5.54695 -8.11053 15.703 15.473)" gradientUnits="userSpaceOnUse"><stop offset=".928" stop-color="#6A656F" stop-opacity="0"/><stop offset="1" stop-color="#6A656F"/></radialGradient><radialGradient id="man-student_svg__f" cx="0" cy="0" r="1" gradientTransform="rotate(34.266 -16.989 32.683)scale(8.18658 11.2866)" gradientUnits="userSpaceOnUse"><stop offset=".933" stop-color="#6A656F" stop-opacity="0"/><stop offset="1" stop-color="#615B67"/></radialGradient><radialGradient id="man-student_svg__g" cx="0" cy="0" r="1" gradientTransform="matrix(0 -10.0625 10.6454 0 16.12 23.535)" gradientUnits="userSpaceOnUse"><stop offset=".506" stop-color="#57525D" stop-opacity="0"/><stop offset="1" stop-color="#57525D"/></radialGradient><radialGradient id="man-student_svg__h" cx="0" cy="0" r="1" gradientTransform="matrix(0 3.85937 -5.04205 0 16.12 15.238)" gradientUnits="userSpaceOnUse"><stop offset=".316" stop-color="#361E27"/><stop offset="1" stop-color="#361E27" stop-opacity="0"/></radialGradient><radialGradient id="man-student_svg__i" cx="0" cy="0" r="1" gradientTransform="rotate(-163.355 10.235 7.568)scale(1.58191 3.34381)" gradientUnits="userSpaceOnUse"><stop stop-color="#DCAD1E"/><stop offset="1" stop-color="#B57A1D"/></radialGradient><radialGradient id="man-student_svg__k" cx="0" cy="0" r="1" gradientTransform="matrix(0 -2.33473 .18031 0 24.695 11.588)" gradientUnits="userSpaceOnUse"><stop stop-color="#70635D"/><stop offset="1" stop-color="#70635D" stop-opacity="0"/></radialGradient><radialGradient id="man-student_svg__l" cx="0" cy="0" r="1" gradientTransform="matrix(-.81259 1.10067 -.98646 -.72826 24.953 11.96)" gradientUnits="userSpaceOnUse"><stop stop-color="#686071"/><stop offset=".661" stop-color="#402A4C"/></radialGradient><radialGradient id="man-student_svg__m" cx="0" cy="0" r="1" gradientTransform="matrix(.79636 -.08984 .10538 .93405 23.616 12.352)" gradientUnits="userSpaceOnUse"><stop offset=".087" stop-color="#685352"/><stop offset="1" stop-color="#685352" stop-opacity="0"/></radialGradient><radialGradient id="man-student_svg__q" cx="0" cy="0" r="1" gradientTransform="rotate(169.33 12.176 8.503)scale(1.11532 5.56401)" gradientUnits="userSpaceOnUse"><stop offset=".286" stop-color="#FFD93A"/><stop offset="1" stop-color="#FFD93A" stop-opacity="0"/></radialGradient><radialGradient id="man-student_svg__r" cx="0" cy="0" r="1" gradientTransform="matrix(0 .39844 -1.38177 0 24.453 13.027)" gradientUnits="userSpaceOnUse"><stop offset=".161" stop-color="#845D03"/><stop offset="1" stop-color="#EBA429" stop-opacity="0"/></radialGradient><radialGradient id="man-student_svg__t" cx="0" cy="0" r="1" gradientTransform="matrix(0 -1.3125 2.89043 0 24.453 16.816)" gradientUnits="userSpaceOnUse"><stop offset=".422" stop-color="#A16739"/><stop offset="1" stop-color="#DB9820" stop-opacity="0"/></radialGradient><radialGradient id="man-student_svg__u" cx="0" cy="0" r="1" gradientTransform="matrix(0 -16.3734 4.36464 0 5.125 29.916)" gradientUnits="userSpaceOnUse"><stop stop-color="#766C83"/><stop offset=".441" stop-color="#58496A"/><stop offset="1" stop-color="#4D4159"/></radialGradient><radialGradient id="man-student_svg__v" cx="0" cy="0" r="1" gradientTransform="matrix(0 -10.5202 .82413 0 8.89 29.916)" gradientUnits="userSpaceOnUse"><stop offset=".286" stop-color="#4F445B"/><stop offset="1" stop-color="#4F445B" stop-opacity="0"/></radialGradient><radialGradient id="man-student_svg__x" cx="0" cy="0" r="1" gradientTransform="matrix(-1.88274 -10.19308 2.86286 -.5288 25.232 29.916)" gradientUnits="userSpaceOnUse"><stop stop-color="#736782"/><stop offset="1" stop-color="#5F5070"/></radialGradient><radialGradient id="man-student_svg__y" cx="0" cy="0" r="1" gradientTransform="rotate(87.413 -.481 23.665)scale(12.0457 .70348)" gradientUnits="userSpaceOnUse"><stop offset=".177" stop-color="#3F2A51"/><stop offset="1" stop-color="#3F2A51" stop-opacity="0"/></radialGradient><radialGradient id="man-student_svg__F" cx="0" cy="0" r="1" gradientTransform="matrix(1.76854 0 0 3.09496 9.63 10.465)" gradientUnits="userSpaceOnUse"><stop offset=".351" stop-color="#E6962B"/><stop offset="1" stop-color="#CA8F29"/></radialGradient><radialGradient id="man-student_svg__K" cx="0" cy="0" r="1" gradientTransform="matrix(.83315 -.60666 .69242 .95093 21.275 10.198)" gradientUnits="userSpaceOnUse"><stop offset=".543" stop-color="#FFC532"/><stop offset="1" stop-color="#FFC532" stop-opacity="0"/></radialGradient><radialGradient id="man-student_svg__M" cx="0" cy="0" r="1" gradientTransform="matrix(.82766 -1.5223 .89101 .48444 20.858 11.293)" gradientUnits="userSpaceOnUse"><stop offset=".69" stop-color="#F4A51A" stop-opacity="0"/><stop offset="1" stop-color="#F4A51A"/></radialGradient><radialGradient id="man-student_svg__N" cx="0" cy="0" r="1" gradientTransform="matrix(.2613 .25866 -.33344 .33686 20.9 10.465)" gradientUnits="userSpaceOnUse"><stop stop-color="#E59B1F"/><stop offset="1" stop-color="#E59B1F" stop-opacity="0"/></radialGradient><radialGradient id="man-student_svg__Q" cx="0" cy="0" r="1" gradientTransform="matrix(0 8.65254 -9.87962 0 16.592 8.862)" gradientUnits="userSpaceOnUse"><stop offset=".56" stop-color="#E09D29" stop-opacity="0"/><stop offset="1" stop-color="#9D660D"/></radialGradient><radialGradient id="man-student_svg__R" cx="0" cy="0" r="1" gradientTransform="matrix(0 -1.31727 1.62125 0 18.462 9.184)" gradientUnits="userSpaceOnUse"><stop stop-color="#FFBA0D"/><stop offset="1" stop-color="#FFBA0D" stop-opacity="0"/></radialGradient><radialGradient id="man-student_svg__S" cx="0" cy="0" r="1" gradientTransform="matrix(0 -1.40171 1.74315 0 13.868 9.15)" gradientUnits="userSpaceOnUse"><stop stop-color="#EE911A"/><stop offset="1" stop-color="#EE911A" stop-opacity="0"/></radialGradient><radialGradient id="man-student_svg__T" cx="0" cy="0" r="1" gradientTransform="matrix(0 3.59698 -8.89048 0 15.15 3.601)" gradientUnits="userSpaceOnUse"><stop offset=".684" stop-color="#B17012"/><stop offset="1" stop-color="#FBA929" stop-opacity="0"/></radialGradient><radialGradient id="man-student_svg__V" cx="0" cy="0" r="1" gradientTransform="matrix(-3.4634 4.46385 -7.59118 -5.8898 19.819 2.692)" gradientUnits="userSpaceOnUse"><stop stop-color="#FFE336"/><stop offset="1" stop-color="#FFE336" stop-opacity="0"/></radialGradient><radialGradient id="man-student_svg__X" cx="0" cy="0" r="1" gradientTransform="matrix(-.18593 -2.00803 .9862 -.09131 11.93 6.799)" gradientUnits="userSpaceOnUse"><stop offset=".222" stop-color="#FFB42C"/><stop offset="1" stop-color="#FFB42C" stop-opacity="0"/></radialGradient><radialGradient id="man-student_svg__Y" cx="0" cy="0" r="1" gradientTransform="rotate(-66.4 16.837 -11.197)scale(2.16269 1.76384)" gradientUnits="userSpaceOnUse"><stop offset=".479" stop-color="#E57D1C"/><stop offset="1" stop-color="#E57D1C" stop-opacity="0"/></radialGradient><radialGradient id="man-student_svg__Z" cx="0" cy="0" r="1" gradientTransform="matrix(1.00052 1.24146 -1.09613 .8834 15.316 1.797)" gradientUnits="userSpaceOnUse"><stop stop-color="#FFCE2C"/><stop offset="1" stop-color="#FFCE2C" stop-opacity="0"/></radialGradient><radialGradient id="man-student_svg__aa" cx="0" cy="0" r="1" gradientTransform="matrix(1.4623 -3.0593 1.05703 .50524 20.319 6.213)" gradientUnits="userSpaceOnUse"><stop stop-color="#FFD93A"/><stop offset="1" stop-color="#FFD93A" stop-opacity="0"/></radialGradient><radialGradient id="man-student_svg__ab" cx="0" cy="0" r="1" gradientTransform="matrix(.2632 1.02282 -1.68156 .43272 16.798 1.797)" gradientUnits="userSpaceOnUse"><stop offset=".208" stop-color="#DDB13B"/><stop offset="1" stop-color="#FFC926" stop-opacity="0"/></radialGradient><radialGradient id="man-student_svg__ac" cx="0" cy="0" r="1" gradientTransform="matrix(1.11558 1.6114 -3.35328 2.3215 11.681 3.067)" gradientUnits="userSpaceOnUse"><stop offset=".288" stop-color="#C9993E"/><stop offset="1" stop-color="#F29322" stop-opacity="0"/></radialGradient><radialGradient id="man-student_svg__ad" cx="0" cy="0" r="1" gradientTransform="matrix(-7.26364 3.27234 -4.09463 -9.08888 17.26 6.067)" gradientUnits="userSpaceOnUse"><stop offset=".756" stop-color="#CF7D35" stop-opacity="0"/><stop offset=".959" stop-color="#CF7D35"/></radialGradient><radialGradient id="man-student_svg__al" cx="0" cy="0" r="1" gradientTransform="rotate(-87.754 15.55 -1.072)scale(.63265 1.89793)" gradientUnits="userSpaceOnUse"><stop stop-color="#FFD069"/><stop offset="1" stop-color="#FFBE30" stop-opacity="0"/></radialGradient><radialGradient id="man-student_svg__am" cx="0" cy="0" r="1" gradientTransform="matrix(0 .9102 -1.077 0 18.293 10.114)" gradientUnits="userSpaceOnUse"><stop offset=".75" stop-color="#925C51"/><stop offset="1" stop-color="#694B43"/><stop offset="1" stop-color="#804D49"/><stop offset="1" stop-color="#85534D"/></radialGradient><radialGradient id="man-student_svg__ao" cx="0" cy="0" r="1" gradientTransform="rotate(-127.812 11.447 .508)scale(.38075 .52421)" gradientUnits="userSpaceOnUse"><stop offset=".766" stop-color="#FFE6E2" stop-opacity="0"/><stop offset=".966" stop-color="#FFE6E2"/></radialGradient><radialGradient id="man-student_svg__ar" cx="0" cy="0" r="1" gradientTransform="matrix(0 .91024 -1.07705 0 13.896 10.114)" gradientUnits="userSpaceOnUse"><stop offset=".75" stop-color="#925C51"/><stop offset="1" stop-color="#694B43"/><stop offset="1" stop-color="#804D49"/><stop offset="1" stop-color="#85534D"/></radialGradient><radialGradient id="man-student_svg__av" cx="0" cy="0" r="1" gradientTransform="rotate(-90.897 11.725 -1.699)scale(.49737 .59785)" gradientUnits="userSpaceOnUse"><stop offset=".766" stop-color="#FFE6E2" stop-opacity="0"/><stop offset=".966" stop-color="#FFE6E2"/></radialGradient><radialGradient id="man-student_svg__aA" cx="0" cy="0" r="1" gradientTransform="rotate(-102.428 11.877 -4.565)scale(3.92058 20.9164)" gradientUnits="userSpaceOnUse"><stop stop-color="#534D5B"/><stop offset="1" stop-color="#2B2135"/></radialGradient><radialGradient id="man-student_svg__aC" cx="0" cy="0" r="1" gradientTransform="matrix(0 .9375 -12.6875 0 21.86 2.316)" gradientUnits="userSpaceOnUse"><stop stop-color="#696070"/><stop offset=".867" stop-color="#696070" stop-opacity="0"/></radialGradient><radialGradient id="man-student_svg__aD" cx="0" cy="0" r="1" gradientTransform="matrix(7.75 0 0 .875 6.89 2.941)" gradientUnits="userSpaceOnUse"><stop stop-color="#75707B"/><stop offset=".935" stop-color="#75707B" stop-opacity="0"/></radialGradient><linearGradient id="man-student_svg__j" x1="23.81" x2="24.996" y1="8.862" y2="8.862" gradientUnits="userSpaceOnUse"><stop stop-color="#33203C"/><stop offset="1" stop-color="#61546D"/></linearGradient><linearGradient id="man-student_svg__o" x1="25.056" x2="25.056" y1="3.629" y2="11.397" gradientUnits="userSpaceOnUse"><stop stop-color="#60546C"/><stop offset="1" stop-color="#504B55"/></linearGradient><linearGradient id="man-student_svg__p" x1="25.605" x2="23.285" y1="14.727" y2="14.727" gradientUnits="userSpaceOnUse"><stop stop-color="#F9B72A"/><stop offset=".897" stop-color="#FAAC28"/></linearGradient><linearGradient id="man-student_svg__s" x1="23.404" x2="24.279" y1="14.406" y2="14.586" gradientUnits="userSpaceOnUse"><stop stop-color="#C57E10"/><stop offset="1" stop-color="#DF8F14" stop-opacity="0"/></linearGradient><linearGradient id="man-student_svg__w" x1="9.035" x2="8.609" y1="27.985" y2="27.985" gradientUnits="userSpaceOnUse"><stop offset=".444" stop-color="#433850"/><stop offset="1" stop-color="#433850" stop-opacity="0"/></linearGradient><linearGradient id="man-student_svg__A" x1="16.12" x2="16.12" y1="29.785" y2="23.352" gradientUnits="userSpaceOnUse"><stop stop-color="#3F3748"/><stop offset="1" stop-color="#3F3748" stop-opacity="0"/></linearGradient><linearGradient id="man-student_svg__B" x1="16.12" x2="16.12" y1="29.785" y2="23.352" gradientUnits="userSpaceOnUse"><stop stop-color="#3F3748"/><stop offset="1" stop-color="#3F3748" stop-opacity="0"/></linearGradient><linearGradient id="man-student_svg__C" x1="16.12" x2="16.12" y1="29.785" y2="23.352" gradientUnits="userSpaceOnUse"><stop stop-color="#3F3748"/><stop offset="1" stop-color="#3F3748" stop-opacity="0"/></linearGradient><linearGradient id="man-student_svg__E" x1="13.072" x2="13.644" y1="4.367" y2="5.704" gradientUnits="userSpaceOnUse"><stop stop-color="#FAA719"/><stop offset="1" stop-color="#DB6008"/></linearGradient><linearGradient id="man-student_svg__H" x1="11.313" x2="10.667" y1="10.746" y2="10.746" gradientUnits="userSpaceOnUse"><stop stop-color="#BD6A1E"/><stop offset="1" stop-color="#D77A1C"/></linearGradient><linearGradient id="man-student_svg__J" x1="21.995" x2="21.17" y1="9.365" y2="11.921" gradientUnits="userSpaceOnUse"><stop stop-color="#FFE446"/><stop offset="1" stop-color="#FFC339"/></linearGradient><linearGradient id="man-student_svg__O" x1="20.165" x2="12.469" y1="10.858" y2="12.005" gradientUnits="userSpaceOnUse"><stop stop-color="#FFE833"/><stop offset=".916" stop-color="#F9A528"/></linearGradient><linearGradient id="man-student_svg__P" x1="10.66" x2="12.99" y1="13.575" y2="13.271" gradientUnits="userSpaceOnUse"><stop stop-color="#D19C3A"/><stop offset="1" stop-color="#D19C3A" stop-opacity="0"/></linearGradient><linearGradient id="man-student_svg__W" x1="11.199" x2="14.123" y1="10.196" y2="5.001" gradientUnits="userSpaceOnUse"><stop stop-color="#E07027"/><stop offset="1" stop-color="#E07027" stop-opacity="0"/></linearGradient><linearGradient id="man-student_svg__ag" x1="15.227" x2="16.172" y1="11.522" y2="11.522" gradientUnits="userSpaceOnUse"><stop stop-color="#FAA416"/><stop offset="1" stop-color="#FAA416" stop-opacity="0"/></linearGradient><linearGradient id="man-student_svg__ah" x1="17.043" x2="16.01" y1="11.847" y2="11.832" gradientUnits="userSpaceOnUse"><stop stop-color="#FFE721"/><stop offset="1" stop-color="#FFE721" stop-opacity="0"/></linearGradient><linearGradient id="man-student_svg__ai" x1="16.294" x2="16.294" y1="12.595" y2="12.018" gradientUnits="userSpaceOnUse"><stop stop-color="#EB8A1C"/><stop offset="1" stop-color="#EB8A1C" stop-opacity="0"/></linearGradient><linearGradient id="man-student_svg__aj" x1="16.224" x2="16.224" y1="12.637" y2="12.469" gradientUnits="userSpaceOnUse"><stop stop-color="#E88613"/><stop offset="1" stop-color="#E88613" stop-opacity="0"/></linearGradient><linearGradient id="man-student_svg__aq" x1="19.077" x2="18.761" y1="9.832" y2="10.027" gradientUnits="userSpaceOnUse"><stop stop-color="#B4948D"/><stop offset="1" stop-color="#B4948D" stop-opacity="0"/></linearGradient><linearGradient id="man-student_svg__at" x1="14.645" x2="14.329" y1="9.832" y2="10.026" gradientUnits="userSpaceOnUse"><stop stop-color="#B4948D"/><stop offset="1" stop-color="#B4948D" stop-opacity="0"/></linearGradient><linearGradient id="man-student_svg__aB" x1="17.89" x2="16.609" y1="3.879" y2="-.496" gradientUnits="userSpaceOnUse"><stop stop-color="#3D294B"/><stop offset="1" stop-color="#433A4D"/></linearGradient><filter id="man-student_svg__n" width=".65" height="8.268" x="24.231" y="3.379" color-interpolation-filters="sRGB" filterUnits="userSpaceOnUse"><feFlood flood-opacity="0" result="BackgroundImageFix"/><feBlend in="SourceGraphic" in2="BackgroundImageFix" result="shape"/><feGaussianBlur result="effect1_foregroundBlur_4002_1581" stdDeviation=".125"/></filter><filter id="man-student_svg__z" width="8.964" height="6.734" x="11.638" y="23.202" color-interpolation-filters="sRGB" filterUnits="userSpaceOnUse"><feFlood flood-opacity="0" result="BackgroundImageFix"/><feBlend in="SourceGraphic" in2="BackgroundImageFix" result="shape"/><feGaussianBlur result="effect1_foregroundBlur_4002_1581" stdDeviation=".075"/></filter><filter id="man-student_svg__D" width="1.172" height="2.394" x="12.772" y="3.707" color-interpolation-filters="sRGB" filterUnits="userSpaceOnUse"><feFlood flood-opacity="0" result="BackgroundImageFix"/><feBlend in="SourceGraphic" in2="BackgroundImageFix" result="shape"/><feGaussianBlur result="effect1_foregroundBlur_4002_1581" stdDeviation=".125"/></filter><filter id="man-student_svg__G" width="3.005" height="3.005" x="9.81" y="8.962" color-interpolation-filters="sRGB" filterUnits="userSpaceOnUse"><feFlood flood-opacity="0" result="BackgroundImageFix"/><feBlend in="SourceGraphic" in2="BackgroundImageFix" result="shape"/><feGaussianBlur result="effect1_foregroundBlur_4002_1581" stdDeviation=".25"/></filter><filter id="man-student_svg__I" width="3.615" height="3.615" x="19.218" y="8.533" color-interpolation-filters="sRGB" filterUnits="userSpaceOnUse"><feFlood flood-opacity="0" result="BackgroundImageFix"/><feBlend in="SourceGraphic" in2="BackgroundImageFix" result="shape"/><feColorMatrix in="SourceAlpha" result="hardAlpha" values="0 0 0 0 0 0 0 0 0 0 0 0 0 0 0 0 0 0 127 0"/><feOffset dx=".25" dy="-.25"/><feGaussianBlur stdDeviation=".25"/><feComposite in2="hardAlpha" k2="-1" k3="1" operator="arithmetic"/><feColorMatrix values="0 0 0 0 0.85098 0 0 0 0 0.560784 0 0 0 0 0.376471 0 0 0 1 0"/><feBlend in2="shape" result="effect1_innerShadow_4002_1581"/></filter><filter id="man-student_svg__L" width="3.005" height="3.005" x="19.398" y="8.962" color-interpolation-filters="sRGB" filterUnits="userSpaceOnUse"><feFlood flood-opacity="0" result="BackgroundImageFix"/><feBlend in="SourceGraphic" in2="BackgroundImageFix" result="shape"/><feGaussianBlur result="effect1_foregroundBlur_4002_1581" stdDeviation=".25"/></filter><filter id="man-student_svg__U" width="12.693" height="8.144" x="9.748" y="1.76" color-interpolation-filters="sRGB" filterUnits="userSpaceOnUse"><feFlood flood-opacity="0" result="BackgroundImageFix"/><feBlend in="SourceGraphic" in2="BackgroundImageFix" result="shape"/><feColorMatrix in="SourceAlpha" result="hardAlpha" values="0 0 0 0 0 0 0 0 0 0 0 0 0 0 0 0 0 0 127 0"/><feOffset dy="-.25"/><feGaussianBlur stdDeviation=".125"/><feComposite in2="hardAlpha" k2="-1" k3="1" operator="arithmetic"/><feColorMatrix values="0 0 0 0 0.984314 0 0 0 0 0.584314 0 0 0 0 0.129412 0 0 0 1 0"/><feBlend in2="shape" result="effect1_innerShadow_4002_1581"/><feColorMatrix in="SourceAlpha" result="hardAlpha" values="0 0 0 0 0 0 0 0 0 0 0 0 0 0 0 0 0 0 127 0"/><feOffset dy="-.25"/><feGaussianBlur stdDeviation=".125"/><feComposite in2="hardAlpha" k2="-1" k3="1" operator="arithmetic"/><feColorMatrix values="0 0 0 0 0.972549 0 0 0 0 0.572549 0 0 0 0 0.0156863 0 0 0 1 0"/><feBlend in2="effect1_innerShadow_4002_1581" result="effect2_innerShadow_4002_1581"/></filter><filter id="man-student_svg__ae" width="3.274" height="4.202" x="14.22" y="9.308" color-interpolation-filters="sRGB" filterUnits="userSpaceOnUse"><feFlood flood-opacity="0" result="BackgroundImageFix"/><feBlend in="SourceGraphic" in2="BackgroundImageFix" result="shape"/><feGaussianBlur result="effect1_foregroundBlur_4002_1581" stdDeviation=".375"/></filter><filter id="man-student_svg__af" width="2.391" height="3.202" x="14.902" y="9.643" color-interpolation-filters="sRGB" filterUnits="userSpaceOnUse"><feFlood flood-opacity="0" result="BackgroundImageFix"/><feBlend in="SourceGraphic" in2="BackgroundImageFix" result="shape"/><feGaussianBlur result="effect1_foregroundBlur_4002_1581" stdDeviation=".125"/></filter><filter id="man-student_svg__ak" width="3.643" height="1.481" x="14.276" y="13.07" color-interpolation-filters="sRGB" filterUnits="userSpaceOnUse"><feFlood flood-opacity="0" result="BackgroundImageFix"/><feBlend in="SourceGraphic" in2="BackgroundImageFix" result="shape"/><feGaussianBlur result="effect1_foregroundBlur_4002_1581" stdDeviation=".05"/></filter><filter id="man-student_svg__an" width=".791" height=".7" x="17.554" y="9.336" color-interpolation-filters="sRGB" filterUnits="userSpaceOnUse"><feFlood flood-opacity="0" result="BackgroundImageFix"/><feBlend in="SourceGraphic" in2="BackgroundImageFix" result="shape"/><feGaussianBlur result="effect1_foregroundBlur_4002_1581" stdDeviation=".05"/></filter><filter id="man-student_svg__ap" width=".895" height=".917" x="18.402" y="9.412" color-interpolation-filters="sRGB" filterUnits="userSpaceOnUse"><feFlood flood-opacity="0" result="BackgroundImageFix"/><feBlend in="SourceGraphic" in2="BackgroundImageFix" result="shape"/><feGaussianBlur result="effect1_foregroundBlur_4002_1581" stdDeviation=".1"/></filter><filter id="man-student_svg__as" width=".99" height="1.045" x="13.925" y="9.348" color-interpolation-filters="sRGB" filterUnits="userSpaceOnUse"><feFlood flood-opacity="0" result="BackgroundImageFix"/><feBlend in="SourceGraphic" in2="BackgroundImageFix" result="shape"/><feGaussianBlur result="effect1_foregroundBlur_4002_1581" stdDeviation=".1"/></filter><filter id="man-student_svg__au" width=".918" height=".708" x="13.164" y="9.327" color-interpolation-filters="sRGB" filterUnits="userSpaceOnUse"><feFlood flood-opacity="0" result="BackgroundImageFix"/><feBlend in="SourceGraphic" in2="BackgroundImageFix" result="shape"/><feGaussianBlur result="effect1_foregroundBlur_4002_1581" stdDeviation=".05"/></filter><filter id="man-student_svg__aw" width="2.622" height="1.658" x="17.371" y="7.03" color-interpolation-filters="sRGB" filterUnits="userSpaceOnUse"><feFlood flood-opacity="0" result="BackgroundImageFix"/><feBlend in="SourceGraphic" in2="BackgroundImageFix" result="shape"/><feColorMatrix in="SourceAlpha" result="hardAlpha" values="0 0 0 0 0 0 0 0 0 0 0 0 0 0 0 0 0 0 127 0"/><feOffset dy="-.25"/><feGaussianBlur stdDeviation=".2"/><feComposite in2="hardAlpha" k2="-1" k3="1" operator="arithmetic"/><feColorMatrix values="0 0 0 0 0.611765 0 0 0 0 0.266667 0 0 0 0 0.0745098 0 0 0 1 0"/><feBlend in2="shape" result="effect1_innerShadow_4002_1581"/></filter><filter id="man-student_svg__ax" width="2.32" height="1.106" x="17.522" y="7.319" color-interpolation-filters="sRGB" filterUnits="userSpaceOnUse"><feFlood flood-opacity="0" result="BackgroundImageFix"/><feBlend in="SourceGraphic" in2="BackgroundImageFix" result="shape"/><feGaussianBlur result="effect1_foregroundBlur_4002_1581" stdDeviation=".125"/></filter><filter id="man-student_svg__ay" width="2.622" height="1.658" x="12.202" y="7.03" color-interpolation-filters="sRGB" filterUnits="userSpaceOnUse"><feFlood flood-opacity="0" result="BackgroundImageFix"/><feBlend in="SourceGraphic" in2="BackgroundImageFix" result="shape"/><feColorMatrix in="SourceAlpha" result="hardAlpha" values="0 0 0 0 0 0 0 0 0 0 0 0 0 0 0 0 0 0 127 0"/><feOffset dy="-.25"/><feGaussianBlur stdDeviation=".2"/><feComposite in2="hardAlpha" k2="-1" k3="1" operator="arithmetic"/><feColorMatrix values="0 0 0 0 0.611765 0 0 0 0 0.266667 0 0 0 0 0.0745098 0 0 0 1 0"/><feBlend in2="shape" result="effect1_innerShadow_4002_1581"/></filter><filter id="man-student_svg__az" width="2.32" height="1.106" x="12.353" y="7.319" color-interpolation-filters="sRGB" filterUnits="userSpaceOnUse"><feFlood flood-opacity="0" result="BackgroundImageFix"/><feBlend in="SourceGraphic" in2="BackgroundImageFix" result="shape"/><feGaussianBlur result="effect1_foregroundBlur_4002_1581" stdDeviation=".125"/></filter></defs></svg>