<svg width="32" height="32" fill="none" xmlns="http://www.w3.org/2000/svg"><g filter="url(#a)"><path d="M25.99 29.984v-.39c0-5.39-4.47-9.77-9.99-9.77-5.52.01-9.99 4.38-9.99 9.77v.39h19.98Z" fill="#1D79C4"/><path d="M25.99 29.984v-.39c0-5.39-4.47-9.77-9.99-9.77-5.52.01-9.99 4.38-9.99 9.77v.39h19.98Z" fill="url(#b)"/></g><path d="M25.99 29.984v-.39c0-5.39-4.47-9.77-9.99-9.77-5.52.01-9.99 4.38-9.99 9.77v.39h19.98Z" fill="url(#c)"/><path d="M16.025 23.345c-1.438 0-2.605-.605-2.605-1.97v-3.374c0-1.364 1.167-2.47 2.605-2.47 1.439 0 2.605 1.106 2.605 2.47v3.375c0 1.364-1.166 1.968-2.605 1.968Z" fill="url(#d)"/><path d="M16.025 23.345c-1.438 0-2.605-.605-2.605-1.97v-3.374c0-1.364 1.167-2.47 2.605-2.47 1.439 0 2.605 1.106 2.605 2.47v3.375c0 1.364-1.166 1.968-2.605 1.968Z" fill="url(#e)"/><g filter="url(#f)"><circle cx="9.971" cy="13.357" r="2.116" fill="url(#g)"/></g><g filter="url(#h)"><circle cx="9.971" cy="13.357" r="2.116" fill="url(#i)"/></g><g filter="url(#j)"><circle cx="9.971" cy="13.357" r="1.261" fill="url(#k)"/></g><g filter="url(#l)"><circle cx="22.029" cy="13.357" r="2.116" fill="url(#m)"/><circle cx="22.029" cy="13.357" r="2.116" fill="url(#n)"/></g><g filter="url(#o)"><circle cx="22.029" cy="13.357" r="1.261" fill="#A57C70"/><circle cx="22.029" cy="13.357" r="1.261" fill="url(#p)"/><circle cx="22.029" cy="13.357" r="1.261" fill="url(#q)"/></g><g filter="url(#r)"><path d="M9.524 12.58c.021.002.042.002.063.002 0 0-.068-1.082-.136-1.825 0-.338.136-.744.408-.947l.204-.202c.34-.27.476-.676.476-1.082V7.444c0-.338.204-.608.543-.676.816-.203 2.516-.54 4.964-.54 2.448 0 4.148.337 4.963.54.272.068.544.338.544.676v1.082c0 .406.204.811.476 1.082.637.445.597.69.544 1.216a58.804 58.804 0 0 0-.136 1.826h.023l-.337 5.017c-.203 2.243-1.967 3.807-4.07 3.807h-4.069c-2.17 0-3.866-1.564-4.07-3.807l-.39-5.087Z" fill="url(#s)"/><path d="M9.524 12.58c.021.002.042.002.063.002 0 0-.068-1.082-.136-1.825 0-.338.136-.744.408-.947l.204-.202c.34-.27.476-.676.476-1.082V7.444c0-.338.204-.608.543-.676.816-.203 2.516-.54 4.964-.54 2.448 0 4.148.337 4.963.54.272.068.544.338.544.676v1.082c0 .406.204.811.476 1.082.637.445.597.69.544 1.216a58.804 58.804 0 0 0-.136 1.826h.023l-.337 5.017c-.203 2.243-1.967 3.807-4.07 3.807h-4.069c-2.17 0-3.866-1.564-4.07-3.807l-.39-5.087Z" fill="url(#t)"/><path d="M9.524 12.58c.021.002.042.002.063.002 0 0-.068-1.082-.136-1.825 0-.338.136-.744.408-.947l.204-.202c.34-.27.476-.676.476-1.082V7.444c0-.338.204-.608.543-.676.816-.203 2.516-.54 4.964-.54 2.448 0 4.148.337 4.963.54.272.068.544.338.544.676v1.082c0 .406.204.811.476 1.082.637.445.597.69.544 1.216a58.804 58.804 0 0 0-.136 1.826h.023l-.337 5.017c-.203 2.243-1.967 3.807-4.07 3.807h-4.069c-2.17 0-3.866-1.564-4.07-3.807l-.39-5.087Z" fill="url(#u)"/><path d="M9.524 12.58c.021.002.042.002.063.002 0 0-.068-1.082-.136-1.825 0-.338.136-.744.408-.947l.204-.202c.34-.27.476-.676.476-1.082V7.444c0-.338.204-.608.543-.676.816-.203 2.516-.54 4.964-.54 2.448 0 4.148.337 4.963.54.272.068.544.338.544.676v1.082c0 .406.204.811.476 1.082.637.445.597.69.544 1.216a58.804 58.804 0 0 0-.136 1.826h.023l-.337 5.017c-.203 2.243-1.967 3.807-4.07 3.807h-4.069c-2.17 0-3.866-1.564-4.07-3.807l-.39-5.087Z" fill="url(#v)"/><path d="M9.524 12.58c.021.002.042.002.063.002 0 0-.068-1.082-.136-1.825 0-.338.136-.744.408-.947l.204-.202c.34-.27.476-.676.476-1.082V7.444c0-.338.204-.608.543-.676.816-.203 2.516-.54 4.964-.54 2.448 0 4.148.337 4.963.54.272.068.544.338.544.676v1.082c0 .406.204.811.476 1.082.637.445.597.69.544 1.216a58.804 58.804 0 0 0-.136 1.826h.023l-.337 5.017c-.203 2.243-1.967 3.807-4.07 3.807h-4.069c-2.17 0-3.866-1.564-4.07-3.807l-.39-5.087Z" fill="url(#w)"/><path d="M9.524 12.58c.021.002.042.002.063.002 0 0-.068-1.082-.136-1.825 0-.338.136-.744.408-.947l.204-.202c.34-.27.476-.676.476-1.082V7.444c0-.338.204-.608.543-.676.816-.203 2.516-.54 4.964-.54 2.448 0 4.148.337 4.963.54.272.068.544.338.544.676v1.082c0 .406.204.811.476 1.082.637.445.597.69.544 1.216a58.804 58.804 0 0 0-.136 1.826h.023l-.337 5.017c-.203 2.243-1.967 3.807-4.07 3.807h-4.069c-2.17 0-3.866-1.564-4.07-3.807l-.39-5.087Z" fill="url(#x)"/></g><g filter="url(#y)"><path d="m21.013 6.227-3.9 1.3a1.328 1.328 0 0 0 .595 2.576l3.879-.52-.574-3.356Z" fill="url(#z)"/></g><g filter="url(#A)"><path d="m22.097 5.146.544.27c.952.473 1.496 1.555 1.292 2.704l-.748 3.854c-.066.398-.33.666-.725.676h-.023s.068-1.15.136-1.825c.055-.55-.04-.717-.544-1.217-.272-.27-.476-.676-.476-1.082V7.444c0-.338-.272-.608-.544-.676-.816-.203-2.515-.54-4.963-.54s-4.147.337-4.963.54c-.34.068-.544.338-.544.676v1.082c0 .406-.136.811-.476 1.082l-.204.202c-.272.203-.408.609-.408.947.068.744.136 1.825.136 1.825-.021 0-.042 0-.062-.002a.803.803 0 0 1-.754-.674l-.748-3.853c-.136-1.082.408-2.164 1.36-2.637l.544-.27c.34-.203.68-.474 1.02-.744l1.223-1.284c.748-.677 1.836-.88 2.788-.406.68.203 1.428.203 2.108 0 1.02-.338 2.176-.068 2.992.676l1.02 1.014c.271.338.611.54 1.02.744Z" fill="#EBCC94"/><path d="m22.097 5.146.544.27c.952.473 1.496 1.555 1.292 2.704l-.748 3.854c-.066.398-.33.666-.725.676h-.023s.068-1.15.136-1.825c.055-.55-.04-.717-.544-1.217-.272-.27-.476-.676-.476-1.082V7.444c0-.338-.272-.608-.544-.676-.816-.203-2.515-.54-4.963-.54s-4.147.337-4.963.54c-.34.068-.544.338-.544.676v1.082c0 .406-.136.811-.476 1.082l-.204.202c-.272.203-.408.609-.408.947.068.744.136 1.825.136 1.825-.021 0-.042 0-.062-.002a.803.803 0 0 1-.754-.674l-.748-3.853c-.136-1.082.408-2.164 1.36-2.637l.544-.27c.34-.203.68-.474 1.02-.744l1.223-1.284c.748-.677 1.836-.88 2.788-.406.68.203 1.428.203 2.108 0 1.02-.338 2.176-.068 2.992.676l1.02 1.014c.271.338.611.54 1.02.744Z" fill="url(#B)"/><path d="m22.097 5.146.544.27c.952.473 1.496 1.555 1.292 2.704l-.748 3.854c-.066.398-.33.666-.725.676h-.023s.068-1.15.136-1.825c.055-.55-.04-.717-.544-1.217-.272-.27-.476-.676-.476-1.082V7.444c0-.338-.272-.608-.544-.676-.816-.203-2.515-.54-4.963-.54s-4.147.337-4.963.54c-.34.068-.544.338-.544.676v1.082c0 .406-.136.811-.476 1.082l-.204.202c-.272.203-.408.609-.408.947.068.744.136 1.825.136 1.825-.021 0-.042 0-.062-.002a.803.803 0 0 1-.754-.674l-.748-3.853c-.136-1.082.408-2.164 1.36-2.637l.544-.27c.34-.203.68-.474 1.02-.744l1.223-1.284c.748-.677 1.836-.88 2.788-.406.68.203 1.428.203 2.108 0 1.02-.338 2.176-.068 2.992.676l1.02 1.014c.271.338.611.54 1.02.744Z" fill="url(#C)"/><path d="m22.097 5.146.544.27c.952.473 1.496 1.555 1.292 2.704l-.748 3.854c-.066.398-.33.666-.725.676h-.023s.068-1.15.136-1.825c.055-.55-.04-.717-.544-1.217-.272-.27-.476-.676-.476-1.082V7.444c0-.338-.272-.608-.544-.676-.816-.203-2.515-.54-4.963-.54s-4.147.337-4.963.54c-.34.068-.544.338-.544.676v1.082c0 .406-.136.811-.476 1.082l-.204.202c-.272.203-.408.609-.408.947.068.744.136 1.825.136 1.825-.021 0-.042 0-.062-.002a.803.803 0 0 1-.754-.674l-.748-3.853c-.136-1.082.408-2.164 1.36-2.637l.544-.27c.34-.203.68-.474 1.02-.744l1.223-1.284c.748-.677 1.836-.88 2.788-.406.68.203 1.428.203 2.108 0 1.02-.338 2.176-.068 2.992.676l1.02 1.014c.271.338.611.54 1.02.744Z" fill="url(#D)"/><path d="m22.097 5.146.544.27c.952.473 1.496 1.555 1.292 2.704l-.748 3.854c-.066.398-.33.666-.725.676h-.023s.068-1.15.136-1.825c.055-.55-.04-.717-.544-1.217-.272-.27-.476-.676-.476-1.082V7.444c0-.338-.272-.608-.544-.676-.816-.203-2.515-.54-4.963-.54s-4.147.337-4.963.54c-.34.068-.544.338-.544.676v1.082c0 .406-.136.811-.476 1.082l-.204.202c-.272.203-.408.609-.408.947.068.744.136 1.825.136 1.825-.021 0-.042 0-.062-.002a.803.803 0 0 1-.754-.674l-.748-3.853c-.136-1.082.408-2.164 1.36-2.637l.544-.27c.34-.203.68-.474 1.02-.744l1.223-1.284c.748-.677 1.836-.88 2.788-.406.68.203 1.428.203 2.108 0 1.02-.338 2.176-.068 2.992.676l1.02 1.014c.271.338.611.54 1.02.744Z" fill="url(#E)"/><path d="m22.097 5.146.544.27c.952.473 1.496 1.555 1.292 2.704l-.748 3.854c-.066.398-.33.666-.725.676h-.023s.068-1.15.136-1.825c.055-.55-.04-.717-.544-1.217-.272-.27-.476-.676-.476-1.082V7.444c0-.338-.272-.608-.544-.676-.816-.203-2.515-.54-4.963-.54s-4.147.337-4.963.54c-.34.068-.544.338-.544.676v1.082c0 .406-.136.811-.476 1.082l-.204.202c-.272.203-.408.609-.408.947.068.744.136 1.825.136 1.825-.021 0-.042 0-.062-.002a.803.803 0 0 1-.754-.674l-.748-3.853c-.136-1.082.408-2.164 1.36-2.637l.544-.27c.34-.203.68-.474 1.02-.744l1.223-1.284c.748-.677 1.836-.88 2.788-.406.68.203 1.428.203 2.108 0 1.02-.338 2.176-.068 2.992.676l1.02 1.014c.271.338.611.54 1.02.744Z" fill="url(#F)"/></g><g filter="url(#G)"><path d="m22.097 5.146.544.27c.952.473 1.496 1.555 1.292 2.704l-.748 3.854c-.066.398-.33.666-.725.676h-.023s.068-1.15.136-1.825c.055-.55-.04-.717-.544-1.217-.272-.27-.476-.676-.476-1.082V7.444c0-.338-.272-.608-.544-.676-.816-.203-2.515-.54-4.963-.54s-4.147.337-4.963.54c-.34.068-.544.338-.544.676v1.082c0 .406-.136.811-.476 1.082l-.204.202c-.272.203-.408.609-.408.947.068.744.136 1.825.136 1.825-.021 0-.042 0-.062-.002a.803.803 0 0 1-.754-.674l-.748-3.853c-.136-1.082.408-2.164 1.36-2.637l.544-.27c.34-.203.68-.474 1.02-.744l1.223-1.284c.748-.677 1.836-.88 2.788-.406.68.203 1.428.203 2.108 0 1.02-.338 2.176-.068 2.992.676l1.02 1.014c.271.338.611.54 1.02.744Z" fill="#242324"/><path d="m22.097 5.146.544.27c.952.473 1.496 1.555 1.292 2.704l-.748 3.854c-.066.398-.33.666-.725.676h-.023s.068-1.15.136-1.825c.055-.55-.04-.717-.544-1.217-.272-.27-.476-.676-.476-1.082V7.444c0-.338-.272-.608-.544-.676-.816-.203-2.515-.54-4.963-.54s-4.147.337-4.963.54c-.34.068-.544.338-.544.676v1.082c0 .406-.136.811-.476 1.082l-.204.202c-.272.203-.408.609-.408.947.068.744.136 1.825.136 1.825-.021 0-.042 0-.062-.002a.803.803 0 0 1-.754-.674l-.748-3.853c-.136-1.082.408-2.164 1.36-2.637l.544-.27c.34-.203.68-.474 1.02-.744l1.223-1.284c.748-.677 1.836-.88 2.788-.406.68.203 1.428.203 2.108 0 1.02-.338 2.176-.068 2.992.676l1.02 1.014c.271.338.611.54 1.02.744Z" fill="url(#H)"/><path d="m22.097 5.146.544.27c.952.473 1.496 1.555 1.292 2.704l-.748 3.854c-.066.398-.33.666-.725.676h-.023s.068-1.15.136-1.825c.055-.55-.04-.717-.544-1.217-.272-.27-.476-.676-.476-1.082V7.444c0-.338-.272-.608-.544-.676-.816-.203-2.515-.54-4.963-.54s-4.147.337-4.963.54c-.34.068-.544.338-.544.676v1.082c0 .406-.136.811-.476 1.082l-.204.202c-.272.203-.408.609-.408.947.068.744.136 1.825.136 1.825-.021 0-.042 0-.062-.002a.803.803 0 0 1-.754-.674l-.748-3.853c-.136-1.082.408-2.164 1.36-2.637l.544-.27c.34-.203.68-.474 1.02-.744l1.223-1.284c.748-.677 1.836-.88 2.788-.406.68.203 1.428.203 2.108 0 1.02-.338 2.176-.068 2.992.676l1.02 1.014c.271.338.611.54 1.02.744Z" fill="url(#I)"/><path d="m22.097 5.146.544.27c.952.473 1.496 1.555 1.292 2.704l-.748 3.854c-.066.398-.33.666-.725.676h-.023s.068-1.15.136-1.825c.055-.55-.04-.717-.544-1.217-.272-.27-.476-.676-.476-1.082V7.444c0-.338-.272-.608-.544-.676-.816-.203-2.515-.54-4.963-.54s-4.147.337-4.963.54c-.34.068-.544.338-.544.676v1.082c0 .406-.136.811-.476 1.082l-.204.202c-.272.203-.408.609-.408.947.068.744.136 1.825.136 1.825-.021 0-.042 0-.062-.002a.803.803 0 0 1-.754-.674l-.748-3.853c-.136-1.082.408-2.164 1.36-2.637l.544-.27c.34-.203.68-.474 1.02-.744l1.223-1.284c.748-.677 1.836-.88 2.788-.406.68.203 1.428.203 2.108 0 1.02-.338 2.176-.068 2.992.676l1.02 1.014c.271.338.611.54 1.02.744Z" fill="url(#J)"/><path d="m22.097 5.146.544.27c.952.473 1.496 1.555 1.292 2.704l-.748 3.854c-.066.398-.33.666-.725.676h-.023s.068-1.15.136-1.825c.055-.55-.04-.717-.544-1.217-.272-.27-.476-.676-.476-1.082V7.444c0-.338-.272-.608-.544-.676-.816-.203-2.515-.54-4.963-.54s-4.147.337-4.963.54c-.34.068-.544.338-.544.676v1.082c0 .406-.136.811-.476 1.082l-.204.202c-.272.203-.408.609-.408.947.068.744.136 1.825.136 1.825-.021 0-.042 0-.062-.002a.803.803 0 0 1-.754-.674l-.748-3.853c-.136-1.082.408-2.164 1.36-2.637l.544-.27c.34-.203.68-.474 1.02-.744l1.223-1.284c.748-.677 1.836-.88 2.788-.406.68.203 1.428.203 2.108 0 1.02-.338 2.176-.068 2.992.676l1.02 1.014c.271.338.611.54 1.02.744Z" fill="url(#K)"/></g><g filter="url(#L)"><path d="m20.704 9.909-.002-.001-.002-.002-.006-.005-.015-.012a2.524 2.524 0 0 0-.196-.136 3.273 3.273 0 0 0-.532-.267 3.59 3.59 0 0 0-1.892-.201.677.677 0 0 0 .21 1.336c.505-.08.909.014 1.184.123a1.924 1.924 0 0 1 .38.202l.01.007a.677.677 0 0 0 .86-1.044Z" fill="#1E1E1E"/></g><g filter="url(#M)"><path d="M11.206 9.91v-.001l.002-.001.002-.002.006-.005.015-.012a1.763 1.763 0 0 1 .196-.136c.126-.08.306-.178.532-.267a3.591 3.591 0 0 1 1.892-.201.676.676 0 1 1-.21 1.336 2.238 2.238 0 0 0-1.184.123 1.924 1.924 0 0 0-.381.202l-.01.007a.676.676 0 0 1-.86-1.044Z" fill="#1E1E1E"/></g><g filter="url(#N)"><path d="M18.094 9.726c.545-.096 1.608-.068 2.344.504" stroke="url(#O)" stroke-width=".5" stroke-linecap="round"/></g><g filter="url(#P)"><path d="M11.478 10.383c.415-.366 1.32-.752 2.443-.574" stroke="url(#Q)" stroke-width=".25" stroke-linecap="round"/></g><path d="M21.596 14.295a1.98 1.98 0 0 0 1.09-.372v1.123a2.62 2.62 0 0 1-1.616 2.435c.205-.438.346-.914.417-1.423l.109-1.763Z" fill="url(#R)"/><path d="M21.596 14.295a1.98 1.98 0 0 0 1.09-.372v1.123a2.62 2.62 0 0 1-1.616 2.435c.205-.438.346-.914.417-1.423l.109-1.763Z" fill="url(#S)"/><g filter="url(#T)"><path d="M17.44 8.52a.946.946 0 0 1 1.108.75l.356 1.848-.086-1.382a.946.946 0 1 1 1.888-.118l.197 3.17.327-.674a.989.989 0 1 1 1.78.863l-.817 1.683c-.174.42-.182.808-.19 1.219-.009.374-.017.767-.152 1.221-.236.795-.707 1.433-.913 1.653l-2.634.752c-2.028-.497-2.646-1.653-2.982-2.62-.269-.774-.551-1.38-.658-1.585l-1.162-2.238a.946.946 0 1 1 1.678-.872l.194.372-.463-1.349a.946.946 0 0 1 1.79-.613l.404 1.18-.415-2.152a.946.946 0 0 1 .75-1.108Z" fill="url(#U)"/></g><g filter="url(#V)"><path fill-rule="evenodd" clip-rule="evenodd" d="M15.065 12.553c.15.11.184.32.074.47a2.019 2.019 0 0 1-1.641.827 2.046 2.046 0 0 1-1.639-.824.336.336 0 0 1 .538-.403c.256.341.656.555 1.1.555.457 0 .855-.215 1.099-.55.109-.151.32-.184.47-.075Z" fill="url(#W)"/></g><path d="M18.191 17.952a2.466 2.466 0 0 0-2.06-1.12c-.861 0-1.618.45-2.059 1.12-.095.144.039.316.192.297h3.726c.164 0 .297-.143.201-.297Z" fill="#87004C"/><g filter="url(#X)"><path d="M18.168 7.721a1.1 1.1 0 0 1 1.288.872l.415 2.15-.1-1.608a1.1 1.1 0 1 1 2.195-.136l.23 3.686.38-.784a1.15 1.15 0 1 1 2.07 1.004l-.95 1.957c-.203.489-.212.94-.222 1.417-.01.435-.019.892-.176 1.42-.275.926-.823 1.667-1.062 1.922l-3.063.875c-2.36-.578-3.078-1.921-3.468-3.046-.313-.9-.641-1.605-.766-1.844l-1.351-2.603a1.1 1.1 0 0 1 1.952-1.014l.225.433-.539-1.569a1.1 1.1 0 0 1 2.082-.713l.47 1.372-.482-2.503a1.1 1.1 0 0 1 .872-1.288Z" fill="url(#Y)"/><path d="M18.168 7.721a1.1 1.1 0 0 1 1.288.872l.415 2.15-.1-1.608a1.1 1.1 0 1 1 2.195-.136l.23 3.686.38-.784a1.15 1.15 0 1 1 2.07 1.004l-.95 1.957c-.203.489-.212.94-.222 1.417-.01.435-.019.892-.176 1.42-.275.926-.823 1.667-1.062 1.922l-3.063.875c-2.36-.578-3.078-1.921-3.468-3.046-.313-.9-.641-1.605-.766-1.844l-1.351-2.603a1.1 1.1 0 0 1 1.952-1.014l.225.433-.539-1.569a1.1 1.1 0 0 1 2.082-.713l.47 1.372-.482-2.503a1.1 1.1 0 0 1 .872-1.288Z" fill="url(#Z)"/><path d="M18.168 7.721a1.1 1.1 0 0 1 1.288.872l.415 2.15-.1-1.608a1.1 1.1 0 1 1 2.195-.136l.23 3.686.38-.784a1.15 1.15 0 1 1 2.07 1.004l-.95 1.957c-.203.489-.212.94-.222 1.417-.01.435-.019.892-.176 1.42-.275.926-.823 1.667-1.062 1.922l-3.063.875c-2.36-.578-3.078-1.921-3.468-3.046-.313-.9-.641-1.605-.766-1.844l-1.351-2.603a1.1 1.1 0 0 1 1.952-1.014l.225.433-.539-1.569a1.1 1.1 0 0 1 2.082-.713l.47 1.372-.482-2.503a1.1 1.1 0 0 1 .872-1.288Z" fill="url(#aa)"/><path d="M18.168 7.721a1.1 1.1 0 0 1 1.288.872l.415 2.15-.1-1.608a1.1 1.1 0 1 1 2.195-.136l.23 3.686.38-.784a1.15 1.15 0 1 1 2.07 1.004l-.95 1.957c-.203.489-.212.94-.222 1.417-.01.435-.019.892-.176 1.42-.275.926-.823 1.667-1.062 1.922l-3.063.875c-2.36-.578-3.078-1.921-3.468-3.046-.313-.9-.641-1.605-.766-1.844l-1.351-2.603a1.1 1.1 0 0 1 1.952-1.014l.225.433-.539-1.569a1.1 1.1 0 0 1 2.082-.713l.47 1.372-.482-2.503a1.1 1.1 0 0 1 .872-1.288Z" fill="url(#ab)"/><path d="M18.168 7.721a1.1 1.1 0 0 1 1.288.872l.415 2.15-.1-1.608a1.1 1.1 0 1 1 2.195-.136l.23 3.686.38-.784a1.15 1.15 0 1 1 2.07 1.004l-.95 1.957c-.203.489-.212.94-.222 1.417-.01.435-.019.892-.176 1.42-.275.926-.823 1.667-1.062 1.922l-3.063.875c-2.36-.578-3.078-1.921-3.468-3.046-.313-.9-.641-1.605-.766-1.844l-1.351-2.603a1.1 1.1 0 0 1 1.952-1.014l.225.433-.539-1.569a1.1 1.1 0 0 1 2.082-.713l.47 1.372-.482-2.503a1.1 1.1 0 0 1 .872-1.288Z" fill="url(#ac)"/></g><path d="M17.88 20.48a.25.25 0 0 1 .182-.303l4.733-1.204a.25.25 0 0 1 .305.183l.274 1.13-5.229 1.268-.264-1.075Z" fill="url(#ad)"/><path d="M17.88 20.48a.25.25 0 0 1 .182-.303l4.733-1.204a.25.25 0 0 1 .305.183l.274 1.13-5.229 1.268-.264-1.075Z" fill="url(#ae)"/><path d="M17.317 22.553a1 1 0 0 1 .723-1.22l5.303-1.34a1 1 0 0 1 1.213.719L26.97 30h-7.719l-1.934-7.448Z" fill="url(#af)"/><path d="M17.317 22.553a1 1 0 0 1 .723-1.22l5.303-1.34a1 1 0 0 1 1.213.719L26.97 30h-7.719l-1.934-7.448Z" fill="url(#ag)"/><path d="M17.317 22.553a1 1 0 0 1 .723-1.22l5.303-1.34a1 1 0 0 1 1.213.719L26.97 30h-7.719l-1.934-7.448Z" fill="url(#ah)"/><path d="M17.317 22.553a1 1 0 0 1 .723-1.22l5.303-1.34a1 1 0 0 1 1.213.719L26.97 30h-7.719l-1.934-7.448Z" fill="url(#ai)"/><g filter="url(#aj)"><path d="m18.719 8.857.718 4" stroke="#FFD6BF" stroke-width=".75" stroke-linecap="round"/></g><g filter="url(#ak)"><path d="m16.656 10.639 1 2.875" stroke="#FFD6BF" stroke-width=".75" stroke-linecap="round"/></g><g filter="url(#al)"><path d="m14.844 12.67 1.094 2" stroke="#FFD6BF" stroke-width=".75" stroke-linecap="round"/></g><g filter="url(#am)"><path d="m23.876 12.543-.937 1.891a3.556 3.556 0 0 0-.36 1.781c.079.969-.265 1.828-.64 2.235" stroke="url(#an)" stroke-width=".75" stroke-linecap="round"/></g><g filter="url(#ao)"><path d="m21.08 8.856.671 8.437" stroke="url(#ap)" stroke-width=".75" stroke-linecap="round"/></g><defs><radialGradient id="b" cx="0" cy="0" r="1" gradientUnits="userSpaceOnUse" gradientTransform="matrix(-6.38721 2.45336 -5.57243 -14.5076 21.385 26.387)"><stop offset=".52" stop-color="#1D6FC7"/><stop offset="1" stop-color="#1D6FC7" stop-opacity="0"/></radialGradient><radialGradient id="c" cx="0" cy="0" r="1" gradientUnits="userSpaceOnUse" gradientTransform="matrix(0 4.84375 -6.97792 0 16 18.184)"><stop offset=".503" stop-color="#115284"/><stop offset="1" stop-color="#115284" stop-opacity="0"/></radialGradient><radialGradient id="d" cx="0" cy="0" r="1" gradientUnits="userSpaceOnUse" gradientTransform="rotate(55.648 -12.287 24.306) scale(4.12586 4.67196)"><stop offset=".191" stop-color="#A5777F"/><stop offset=".878" stop-color="#C19B96"/></radialGradient><radialGradient id="g" cx="0" cy="0" r="1" gradientUnits="userSpaceOnUse" gradientTransform="matrix(2.22444 0 0 3.89278 7.854 13.357)"><stop offset=".351" stop-color="#865D5F"/><stop offset="1" stop-color="#76594A"/></radialGradient><radialGradient id="i" cx="0" cy="0" r="1" gradientUnits="userSpaceOnUse" gradientTransform="matrix(2.22444 0 0 3.89278 7.854 13.357)"><stop offset=".351" stop-color="#CF9888"/><stop offset="1" stop-color="#BE8C77"/></radialGradient><radialGradient id="n" cx="0" cy="0" r="1" gradientUnits="userSpaceOnUse" gradientTransform="matrix(1.04792 -.76305 .87091 1.19606 22.501 13.021)"><stop offset=".543" stop-color="#8F6459"/><stop offset="1" stop-color="#8F6459" stop-opacity="0"/></radialGradient><radialGradient id="p" cx="0" cy="0" r="1" gradientUnits="userSpaceOnUse" gradientTransform="matrix(1.04102 -1.91472 1.1207 .6093 21.977 14.398)"><stop offset=".755" stop-color="#8A5D55" stop-opacity="0"/><stop offset=".916" stop-color="#8A5D55"/></radialGradient><radialGradient id="q" cx="0" cy="0" r="1" gradientUnits="userSpaceOnUse" gradientTransform="matrix(.32867 .32533 -.4194 .4237 22.03 13.357)"><stop stop-color="#895F52"/><stop offset="1" stop-color="#895F52" stop-opacity="0"/></radialGradient><radialGradient id="t" cx="0" cy="0" r="1" gradientUnits="userSpaceOnUse" gradientTransform="matrix(0 10.7271 -14.5615 0 16.025 10.917)"><stop offset=".47" stop-color="#CA9288" stop-opacity="0"/><stop offset="1" stop-color="#947187"/></radialGradient><radialGradient id="w" cx="0" cy="0" r="1" gradientUnits="userSpaceOnUse" gradientTransform="matrix(0 -1.65683 2.03918 0 18.963 11.745)"><stop stop-color="#F5B7A7"/><stop offset="1" stop-color="#F5B7A7" stop-opacity="0"/></radialGradient><radialGradient id="x" cx="0" cy="0" r="1" gradientUnits="userSpaceOnUse" gradientTransform="matrix(0 -1.76304 2.1925 0 13.185 11.703)"><stop stop-color="#D0958D"/><stop offset="1" stop-color="#D0958D" stop-opacity="0"/></radialGradient><radialGradient id="B" cx="0" cy="0" r="1" gradientUnits="userSpaceOnUse" gradientTransform="rotate(127.807 9.458 6.852) scale(7.1063 12.0849)"><stop stop-color="#FFFFC2"/><stop offset="1" stop-color="#FFFFC2" stop-opacity="0"/></radialGradient><radialGradient id="D" cx="0" cy="0" r="1" gradientUnits="userSpaceOnUse" gradientTransform="rotate(-92.056 9.667 -.66) scale(2.36109 1.15959)"><stop offset=".227" stop-color="#EEC19C"/><stop offset="1" stop-color="#EEC19C" stop-opacity="0"/></radialGradient><radialGradient id="E" cx="0" cy="0" r="1" gradientUnits="userSpaceOnUse" gradientTransform="rotate(-66.4 19.197 -10.733) scale(2.72019 2.21853)"><stop offset=".479" stop-color="#E3AB85"/><stop offset="1" stop-color="#E3AB85" stop-opacity="0"/></radialGradient><radialGradient id="F" cx="0" cy="0" r="1" gradientUnits="userSpaceOnUse" gradientTransform="matrix(1.25844 1.56149 -1.37869 1.11111 15.006 2.454)"><stop stop-color="#FBECAF"/><stop offset="1" stop-color="#FBECAF" stop-opacity="0"/></radialGradient><radialGradient id="H" cx="0" cy="0" r="1" gradientUnits="userSpaceOnUse" gradientTransform="matrix(1.0113 -3.74776 1.3898 .37502 21.497 8.152)"><stop stop-color="#464344"/><stop offset="1" stop-color="#464344" stop-opacity="0"/></radialGradient><radialGradient id="I" cx="0" cy="0" r="1" gradientUnits="userSpaceOnUse" gradientTransform="matrix(4.8483 .44616 -.2399 2.6069 19.415 5.921)"><stop offset=".122" stop-color="#4A4648"/><stop offset="1" stop-color="#4A4648" stop-opacity="0"/></radialGradient><radialGradient id="J" cx="0" cy="0" r="1" gradientUnits="userSpaceOnUse" gradientTransform="matrix(0 2.12849 -3.29643 0 15.989 2.454)"><stop stop-color="#423D3F"/><stop offset="1" stop-color="#423D3F" stop-opacity="0"/></radialGradient><radialGradient id="K" cx="0" cy="0" r="1" gradientUnits="userSpaceOnUse" gradientTransform="rotate(-36.235 20.865 -6.394) scale(4.83074 7.56819)"><stop stop-color="#463C39"/><stop offset="1" stop-color="#463C39" stop-opacity="0"/></radialGradient><radialGradient id="R" cx="0" cy="0" r="1" gradientUnits="userSpaceOnUse" gradientTransform="matrix(-.92987 3.82055 -4.53851 -1.1046 22.424 13.923)"><stop offset=".043" stop-color="#FFC135"/><stop offset=".909" stop-color="#E26839"/></radialGradient><radialGradient id="S" cx="0" cy="0" r="1" gradientUnits="userSpaceOnUse" gradientTransform="rotate(53.902 -3.247 28.29) scale(.60043 .51007)"><stop stop-color="#E18C2A"/><stop offset="1" stop-color="#E18C2A" stop-opacity="0"/></radialGradient><radialGradient id="W" cx="0" cy="0" r="1" gradientUnits="userSpaceOnUse" gradientTransform="rotate(37.466 -12.211 23.86) scale(2.0187 .82303)"><stop stop-color="#242323"/><stop offset="1" stop-color="#191017"/></radialGradient><radialGradient id="Y" cx="0" cy="0" r="1" gradientUnits="userSpaceOnUse" gradientTransform="rotate(102.826 5.824 14.48) scale(9.56418 8.44437)"><stop offset=".546" stop-color="#FECAB5"/><stop offset=".692" stop-color="#FECAB5"/><stop offset="1" stop-color="#D3918E"/></radialGradient><radialGradient id="Z" cx="0" cy="0" r="1" gradientUnits="userSpaceOnUse" gradientTransform="matrix(1 2.48437 -.40982 .16496 15.486 11.746)"><stop offset=".12" stop-color="#D79A81"/><stop offset="1" stop-color="#D79A81" stop-opacity="0"/></radialGradient><radialGradient id="aa" cx="0" cy="0" r="1" gradientUnits="userSpaceOnUse" gradientTransform="matrix(.98438 3.84375 -.63406 .16238 17.314 9.59)"><stop stop-color="#D79A81"/><stop offset="1" stop-color="#D79A81" stop-opacity="0"/></radialGradient><radialGradient id="ab" cx="0" cy="0" r="1" gradientUnits="userSpaceOnUse" gradientTransform="matrix(.65625 4.375 -.54534 .0818 19.595 8.778)"><stop stop-color="#D79A81"/><stop offset="1" stop-color="#D79A81" stop-opacity="0"/></radialGradient><radialGradient id="ac" cx="0" cy="0" r="1" gradientUnits="userSpaceOnUse" gradientTransform="rotate(98.227 6.8 15.261) scale(3.93108 .49375)"><stop offset=".001" stop-color="#D79A81"/><stop offset="1" stop-color="#D79A81" stop-opacity="0"/></radialGradient><radialGradient id="ad" cx="0" cy="0" r="1" gradientUnits="userSpaceOnUse" gradientTransform="rotate(165.742 9.822 11.304) scale(3.42011 2.21707)"><stop stop-color="#489ED5"/><stop offset="1" stop-color="#20669E"/></radialGradient><radialGradient id="ag" cx="0" cy="0" r="1" gradientUnits="userSpaceOnUse" gradientTransform="matrix(2.29332 10.73456 -3.15485 .674 23.298 21.325)"><stop stop-color="#47C9FF"/><stop offset="1" stop-color="#1C9AE9" stop-opacity="0"/></radialGradient><filter id="a" x="6.01" y="19.824" width="20.98" height="11.16" filterUnits="userSpaceOnUse" color-interpolation-filters="sRGB"><feFlood flood-opacity="0" result="BackgroundImageFix"/><feBlend in="SourceGraphic" in2="BackgroundImageFix" result="shape"/><feColorMatrix in="SourceAlpha" values="0 0 0 0 0 0 0 0 0 0 0 0 0 0 0 0 0 0 127 0" result="hardAlpha"/><feOffset dx="1" dy="1"/><feGaussianBlur stdDeviation="1"/><feComposite in2="hardAlpha" operator="arithmetic" k2="-1" k3="1"/><feColorMatrix values="0 0 0 0 0.254902 0 0 0 0 0.501961 0 0 0 0 0.682353 0 0 0 1 0"/><feBlend in2="shape" result="effect1_innerShadow_4002_4123"/></filter><filter id="f" x="7.854" y="11.241" width="4.432" height="4.232" filterUnits="userSpaceOnUse" color-interpolation-filters="sRGB"><feFlood flood-opacity="0" result="BackgroundImageFix"/><feBlend in="SourceGraphic" in2="BackgroundImageFix" result="shape"/><feColorMatrix in="SourceAlpha" values="0 0 0 0 0 0 0 0 0 0 0 0 0 0 0 0 0 0 127 0" result="hardAlpha"/><feOffset dx=".2"/><feGaussianBlur stdDeviation=".15"/><feComposite in2="hardAlpha" operator="arithmetic" k2="-1" k3="1"/><feColorMatrix values="0 0 0 0 0.619608 0 0 0 0 0.470588 0 0 0 0 0.407843 0 0 0 1 0"/><feBlend in2="shape" result="effect1_innerShadow_4002_4123"/></filter><filter id="h" x="7.854" y="11.241" width="4.432" height="4.232" filterUnits="userSpaceOnUse" color-interpolation-filters="sRGB"><feFlood flood-opacity="0" result="BackgroundImageFix"/><feBlend in="SourceGraphic" in2="BackgroundImageFix" result="shape"/><feColorMatrix in="SourceAlpha" values="0 0 0 0 0 0 0 0 0 0 0 0 0 0 0 0 0 0 127 0" result="hardAlpha"/><feOffset dx=".2"/><feGaussianBlur stdDeviation=".15"/><feComposite in2="hardAlpha" operator="arithmetic" k2="-1" k3="1"/><feColorMatrix values="0 0 0 0 0.917647 0 0 0 0 0.694118 0 0 0 0 0.607843 0 0 0 1 0"/><feBlend in2="shape" result="effect1_innerShadow_4002_4123"/></filter><filter id="j" x="8.209" y="11.596" width="3.522" height="3.522" filterUnits="userSpaceOnUse" color-interpolation-filters="sRGB"><feFlood flood-opacity="0" result="BackgroundImageFix"/><feBlend in="SourceGraphic" in2="BackgroundImageFix" result="shape"/><feGaussianBlur stdDeviation=".25" result="effect1_foregroundBlur_4002_4123"/></filter><filter id="l" x="19.913" y="10.991" width="4.482" height="4.482" filterUnits="userSpaceOnUse" color-interpolation-filters="sRGB"><feFlood flood-opacity="0" result="BackgroundImageFix"/><feBlend in="SourceGraphic" in2="BackgroundImageFix" result="shape"/><feColorMatrix in="SourceAlpha" values="0 0 0 0 0 0 0 0 0 0 0 0 0 0 0 0 0 0 127 0" result="hardAlpha"/><feOffset dx=".25" dy="-.25"/><feGaussianBlur stdDeviation=".25"/><feComposite in2="hardAlpha" operator="arithmetic" k2="-1" k3="1"/><feColorMatrix values="0 0 0 0 0.584314 0 0 0 0 0.368627 0 0 0 0 0.470588 0 0 0 1 0"/><feBlend in2="shape" result="effect1_innerShadow_4002_4123"/></filter><filter id="o" x="20.268" y="11.596" width="3.522" height="3.522" filterUnits="userSpaceOnUse" color-interpolation-filters="sRGB"><feFlood flood-opacity="0" result="BackgroundImageFix"/><feBlend in="SourceGraphic" in2="BackgroundImageFix" result="shape"/><feGaussianBlur stdDeviation=".25" result="effect1_foregroundBlur_4002_4123"/></filter><filter id="r" x="9.451" y="6.227" width="13.149" height="15.496" filterUnits="userSpaceOnUse" color-interpolation-filters="sRGB"><feFlood flood-opacity="0" result="BackgroundImageFix"/><feBlend in="SourceGraphic" in2="BackgroundImageFix" result="shape"/><feColorMatrix in="SourceAlpha" values="0 0 0 0 0 0 0 0 0 0 0 0 0 0 0 0 0 0 127 0" result="hardAlpha"/><feOffset dy=".25"/><feGaussianBlur stdDeviation=".375"/><feComposite in2="hardAlpha" operator="arithmetic" k2="-1" k3="1"/><feColorMatrix values="0 0 0 0 0.819608 0 0 0 0 0.615686 0 0 0 0 0.509804 0 0 0 1 0"/><feBlend in2="shape" result="effect1_innerShadow_4002_4123"/></filter><filter id="y" x="14.204" y="4.227" width="9.382" height="7.887" filterUnits="userSpaceOnUse" color-interpolation-filters="sRGB"><feFlood flood-opacity="0" result="BackgroundImageFix"/><feBlend in="SourceGraphic" in2="BackgroundImageFix" result="shape"/><feGaussianBlur stdDeviation="1" result="effect1_foregroundBlur_4002_4123"/></filter><filter id="A" x="8.002" y="1.954" width="15.973" height="10.696" filterUnits="userSpaceOnUse" color-interpolation-filters="sRGB"><feFlood flood-opacity="0" result="BackgroundImageFix"/><feBlend in="SourceGraphic" in2="BackgroundImageFix" result="shape"/><feColorMatrix in="SourceAlpha" values="0 0 0 0 0 0 0 0 0 0 0 0 0 0 0 0 0 0 127 0" result="hardAlpha"/><feOffset dy="-.5"/><feGaussianBlur stdDeviation=".375"/><feComposite in2="hardAlpha" operator="arithmetic" k2="-1" k3="1"/><feColorMatrix values="0 0 0 0 0.858824 0 0 0 0 0.690196 0 0 0 0 0.533333 0 0 0 1 0"/><feBlend in2="shape" result="effect1_innerShadow_4002_4123"/></filter><filter id="G" x="8.002" y="1.954" width="15.973" height="10.696" filterUnits="userSpaceOnUse" color-interpolation-filters="sRGB"><feFlood flood-opacity="0" result="BackgroundImageFix"/><feBlend in="SourceGraphic" in2="BackgroundImageFix" result="shape"/><feColorMatrix in="SourceAlpha" values="0 0 0 0 0 0 0 0 0 0 0 0 0 0 0 0 0 0 127 0" result="hardAlpha"/><feOffset dy="-.5"/><feGaussianBlur stdDeviation=".375"/><feComposite in2="hardAlpha" operator="arithmetic" k2="-1" k3="1"/><feColorMatrix values="0 0 0 0 0.0392157 0 0 0 0 0.00784314 0 0 0 0 0.0196078 0 0 0 1 0"/><feBlend in2="shape" result="effect1_innerShadow_4002_4123"/></filter><filter id="L" x="17.488" y="8.839" width="3.71" height="2.267" filterUnits="userSpaceOnUse" color-interpolation-filters="sRGB"><feFlood flood-opacity="0" result="BackgroundImageFix"/><feBlend in="SourceGraphic" in2="BackgroundImageFix" result="shape"/><feColorMatrix in="SourceAlpha" values="0 0 0 0 0 0 0 0 0 0 0 0 0 0 0 0 0 0 127 0" result="hardAlpha"/><feOffset dx=".25" dy="-.4"/><feGaussianBlur stdDeviation=".3"/><feComposite in2="hardAlpha" operator="arithmetic" k2="-1" k3="1"/><feColorMatrix values="0 0 0 0 0.0431373 0 0 0 0 0.0196078 0 0 0 0 0.027451 0 0 0 1 0"/><feBlend in2="shape" result="effect1_innerShadow_4002_4123"/></filter><filter id="M" x="10.962" y="8.839" width="3.71" height="2.267" filterUnits="userSpaceOnUse" color-interpolation-filters="sRGB"><feFlood flood-opacity="0" result="BackgroundImageFix"/><feBlend in="SourceGraphic" in2="BackgroundImageFix" result="shape"/><feColorMatrix in="SourceAlpha" values="0 0 0 0 0 0 0 0 0 0 0 0 0 0 0 0 0 0 127 0" result="hardAlpha"/><feOffset dx=".25" dy="-.4"/><feGaussianBlur stdDeviation=".3"/><feComposite in2="hardAlpha" operator="arithmetic" k2="-1" k3="1"/><feColorMatrix values="0 0 0 0 0.0431373 0 0 0 0 0.0196078 0 0 0 0 0.027451 0 0 0 1 0"/><feBlend in2="shape" result="effect1_innerShadow_4002_4123"/></filter><filter id="N" x="17.344" y="8.934" width="3.844" height="2.047" filterUnits="userSpaceOnUse" color-interpolation-filters="sRGB"><feFlood flood-opacity="0" result="BackgroundImageFix"/><feBlend in="SourceGraphic" in2="BackgroundImageFix" result="shape"/><feGaussianBlur stdDeviation=".25" result="effect1_foregroundBlur_4002_4123"/></filter><filter id="P" x="11.103" y="9.389" width="3.193" height="1.369" filterUnits="userSpaceOnUse" color-interpolation-filters="sRGB"><feFlood flood-opacity="0" result="BackgroundImageFix"/><feBlend in="SourceGraphic" in2="BackgroundImageFix" result="shape"/><feGaussianBlur stdDeviation=".125" result="effect1_foregroundBlur_4002_4123"/></filter><filter id="T" x="12.145" y="7.253" width="12.214" height="13.502" filterUnits="userSpaceOnUse" color-interpolation-filters="sRGB"><feFlood flood-opacity="0" result="BackgroundImageFix"/><feBlend in="SourceGraphic" in2="BackgroundImageFix" result="shape"/><feGaussianBlur stdDeviation=".625" result="effect1_foregroundBlur_4002_4123"/></filter><filter id="V" x="11.792" y="12.389" width="3.412" height="1.462" filterUnits="userSpaceOnUse" color-interpolation-filters="sRGB"><feFlood flood-opacity="0" result="BackgroundImageFix"/><feBlend in="SourceGraphic" in2="BackgroundImageFix" result="shape"/><feColorMatrix in="SourceAlpha" values="0 0 0 0 0 0 0 0 0 0 0 0 0 0 0 0 0 0 127 0" result="hardAlpha"/><feOffset dy="-.1"/><feGaussianBlur stdDeviation=".1"/><feComposite in2="hardAlpha" operator="arithmetic" k2="-1" k3="1"/><feColorMatrix values="0 0 0 0 0.14902 0 0 0 0 0.0980392 0 0 0 0 0.117647 0 0 0 1 0"/><feBlend in2="shape" result="effect1_innerShadow_4002_4123"/></filter><filter id="X" x="13.464" y="7.701" width="11.547" height="12.795" filterUnits="userSpaceOnUse" color-interpolation-filters="sRGB"><feFlood flood-opacity="0" result="BackgroundImageFix"/><feBlend in="SourceGraphic" in2="BackgroundImageFix" result="shape"/><feColorMatrix in="SourceAlpha" values="0 0 0 0 0 0 0 0 0 0 0 0 0 0 0 0 0 0 127 0" result="hardAlpha"/><feOffset dx=".25"/><feGaussianBlur stdDeviation=".75"/><feComposite in2="hardAlpha" operator="arithmetic" k2="-1" k3="1"/><feColorMatrix values="0 0 0 0 0.913725 0 0 0 0 0.662745 0 0 0 0 0.517647 0 0 0 1 0"/><feBlend in2="shape" result="effect1_innerShadow_4002_4123"/><feColorMatrix in="SourceAlpha" values="0 0 0 0 0 0 0 0 0 0 0 0 0 0 0 0 0 0 127 0" result="hardAlpha"/><feOffset dx=".1"/><feGaussianBlur stdDeviation=".05"/><feComposite in2="hardAlpha" operator="arithmetic" k2="-1" k3="1"/><feColorMatrix values="0 0 0 0 0.862745 0 0 0 0 0.627451 0 0 0 0 0.572549 0 0 0 1 0"/><feBlend in2="effect1_innerShadow_4002_4123" result="effect2_innerShadow_4002_4123"/></filter><filter id="aj" x="17.844" y="7.982" width="2.469" height="5.75" filterUnits="userSpaceOnUse" color-interpolation-filters="sRGB"><feFlood flood-opacity="0" result="BackgroundImageFix"/><feBlend in="SourceGraphic" in2="BackgroundImageFix" result="shape"/><feGaussianBlur stdDeviation=".25" result="effect1_foregroundBlur_4002_4123"/></filter><filter id="ak" x="15.781" y="9.764" width="2.75" height="4.625" filterUnits="userSpaceOnUse" color-interpolation-filters="sRGB"><feFlood flood-opacity="0" result="BackgroundImageFix"/><feBlend in="SourceGraphic" in2="BackgroundImageFix" result="shape"/><feGaussianBlur stdDeviation=".25" result="effect1_foregroundBlur_4002_4123"/></filter><filter id="al" x="13.969" y="11.795" width="2.844" height="3.75" filterUnits="userSpaceOnUse" color-interpolation-filters="sRGB"><feFlood flood-opacity="0" result="BackgroundImageFix"/><feBlend in="SourceGraphic" in2="BackgroundImageFix" result="shape"/><feGaussianBlur stdDeviation=".25" result="effect1_foregroundBlur_4002_4123"/></filter><filter id="am" x="21.064" y="11.668" width="3.688" height="7.656" filterUnits="userSpaceOnUse" color-interpolation-filters="sRGB"><feFlood flood-opacity="0" result="BackgroundImageFix"/><feBlend in="SourceGraphic" in2="BackgroundImageFix" result="shape"/><feGaussianBlur stdDeviation=".25" result="effect1_foregroundBlur_4002_4123"/></filter><filter id="ao" x="20.204" y="7.981" width="2.422" height="10.188" filterUnits="userSpaceOnUse" color-interpolation-filters="sRGB"><feFlood flood-opacity="0" result="BackgroundImageFix"/><feBlend in="SourceGraphic" in2="BackgroundImageFix" result="shape"/><feGaussianBlur stdDeviation=".25" result="effect1_foregroundBlur_4002_4123"/></filter><linearGradient id="e" x1="13.071" y1="21.531" x2="14.551" y2="21.531" gradientUnits="userSpaceOnUse"><stop stop-color="#B9887B"/><stop offset="1" stop-color="#B9887B" stop-opacity="0"/></linearGradient><linearGradient id="k" x1="9.971" y1="13.71" x2="9.159" y2="13.71" gradientUnits="userSpaceOnUse"><stop stop-color="#BA7C6B"/><stop offset="1" stop-color="#BE8474"/></linearGradient><linearGradient id="m" x1="23.407" y1="11.973" x2="22.369" y2="15.188" gradientUnits="userSpaceOnUse"><stop stop-color="#CCA68C"/><stop offset="1" stop-color="#AE7F75"/></linearGradient><linearGradient id="s" x1="21.105" y1="13.851" x2="11.425" y2="15.293" gradientUnits="userSpaceOnUse"><stop stop-color="#FFDAC0"/><stop offset="1" stop-color="#DAA594"/></linearGradient><linearGradient id="u" x1="8.837" y1="15.787" x2="13.093" y2="15.931" gradientUnits="userSpaceOnUse"><stop stop-color="#A58787"/><stop offset="1" stop-color="#DEAD9D" stop-opacity="0"/></linearGradient><linearGradient id="v" x1="9.149" y1="17.268" x2="11.534" y2="17.183" gradientUnits="userSpaceOnUse"><stop stop-color="#E8AD97"/><stop offset="1" stop-color="#E8AD97" stop-opacity="0"/></linearGradient><linearGradient id="z" x1="21.25" y1="7.144" x2="15.931" y2="14.081" gradientUnits="userSpaceOnUse"><stop stop-color="#FFE3C4"/><stop offset="1" stop-color="#FFE3C4" stop-opacity="0"/></linearGradient><linearGradient id="C" x1="9.827" y1="13.018" x2="13.506" y2="6.484" gradientUnits="userSpaceOnUse"><stop stop-color="#E8AD8E"/><stop offset="1" stop-color="#E8AD8E" stop-opacity="0"/></linearGradient><linearGradient id="O" x1="19.757" y1="9.848" x2="19.224" y2="8.76" gradientUnits="userSpaceOnUse"><stop stop-color="#5B4545"/><stop offset="1" stop-color="#5B4545" stop-opacity="0"/></linearGradient><linearGradient id="Q" x1="13.033" y1="9.686" x2="11.525" y2="9.054" gradientUnits="userSpaceOnUse"><stop stop-color="#353435"/><stop offset="1" stop-color="#353435" stop-opacity="0"/></linearGradient><linearGradient id="U" x1="18.252" y1="8.503" x2="15.551" y2="19.169" gradientUnits="userSpaceOnUse"><stop stop-color="#C47F5C"/><stop offset="1" stop-color="#C5887D"/></linearGradient><linearGradient id="ae" x1="20.454" y1="19.477" x2="20.552" y2="19.84" gradientUnits="userSpaceOnUse"><stop offset=".245" stop-color="#1B7DB4"/><stop offset="1" stop-color="#1B7DB4" stop-opacity="0"/></linearGradient><linearGradient id="af" x1="19.704" y1="28.168" x2="26.142" y2="26.793" gradientUnits="userSpaceOnUse"><stop stop-color="#2474C2"/><stop offset="1" stop-color="#45AAED"/></linearGradient><linearGradient id="ah" x1="18.5" y1="27.84" x2="19.719" y2="27.465" gradientUnits="userSpaceOnUse"><stop stop-color="#3476BA"/><stop offset="1" stop-color="#3476BA" stop-opacity="0"/></linearGradient><linearGradient id="ai" x1="20.154" y1="20.434" x2="20.498" y2="21.872" gradientUnits="userSpaceOnUse"><stop offset=".19" stop-color="#0792D5"/><stop offset="1" stop-color="#0792D5" stop-opacity="0"/></linearGradient><linearGradient id="an" x1="24.109" y1="12.368" x2="21.939" y2="16.18" gradientUnits="userSpaceOnUse"><stop stop-color="#FFD6BF"/><stop offset="1" stop-color="#FFD6BF" stop-opacity="0"/></linearGradient><linearGradient id="ap" x1="21.832" y1="8.605" x2="19.23" y2="9.715" gradientUnits="userSpaceOnUse"><stop stop-color="#FFD6BF"/><stop offset="1" stop-color="#FFD6BF" stop-opacity="0"/></linearGradient></defs></svg>