<svg width="32" height="32" fill="none" xmlns="http://www.w3.org/2000/svg"><path transform="rotate(39.16 14.713 7.6)" fill="url(#a)" d="M14.713 7.6h1.744v2h-1.744z"/><path d="M18.232 7.956c-.081-.147-.066-.411-.047-.504l-.445 1.02c.14.074.378.14.515-.031.098-.121.079-.301-.023-.485Z" fill="url(#b)"/><g filter="url(#c)"><path d="M15.931 9.561a4.241 4.241 0 0 1-1.203-.91c-.38-.408-.386-1-.172-1.514l.327-.786a1.205 1.205 0 0 1 1.034-.738l1.656-.11c.13-.008.263-.002.372.067.288.182.576.644.369 1.476-.229 1.08-.501 1.743-.749 2.226-.177.345-.533.572-.916.506a3.145 3.145 0 0 1-.718-.217Z" fill="url(#d)"/></g><path fill-rule="evenodd" clip-rule="evenodd" d="M16.98 8.365a.1.1 0 0 1 .132.05c.032.07.15.243.339.324a.1.1 0 0 1-.079.184.917.917 0 0 1-.442-.425.1.1 0 0 1 .05-.133Z" fill="#87004D"/><g filter="url(#e)"><path fill-rule="evenodd" clip-rule="evenodd" d="M17.866 6.844a.724.724 0 0 0-.488-.028.1.1 0 0 1-.066-.189.922.922 0 0 1 .637.035.1.1 0 0 1-.083.182Z" fill="#BF6559"/></g><g filter="url(#f)"><path d="M13.992 7.152c-.16-1.207.231-2.071.46-2.418a.977.977 0 0 1 .867-.515c.324-.004.493.168.75.121.103-.019.474-.156.77.027.246.153.445.235.605.235.227 0 .557-.044.797.3.25.36.543.332.695.575.152.242.137.773-.277.968-.414.196-1.313-.21-1.641-.343-.328-.133-.55-.075-.752.246-.163.256-.462.311-.592.316-.093.193-.307.696-.61.992-.322.317-1 .035-1.072-.504Z" fill="url(#g)"/></g><path d="M15.918 6.47a.625.625 0 0 0-.373 1.175l.373-1.175Z" fill="url(#h)"/><g filter="url(#i)"><path d="M11.168 10.468c-1.006 1.231-1.414 2.668-1.594 3.273l3.992 1.25c.125-1.023.75-2.718 1.172-3.375.422-.656.489-.87.555-1.347.066-.477-.256-1.195-1.336-1.395-.844-.156-1.854.45-2.789 1.594Z" fill="#338AE5"/><path d="M11.168 10.468c-1.006 1.231-1.414 2.668-1.594 3.273l3.992 1.25c.125-1.023.75-2.718 1.172-3.375.422-.656.489-.87.555-1.347.066-.477-.256-1.195-1.336-1.395-.844-.156-1.854.45-2.789 1.594Z" fill="url(#j)"/></g><path d="M9.598 13.624c-.243.895-.204 1.762-.11 2.024l6.309-.063-6.2-1.96Z" fill="url(#k)"/><path d="m5.232 16.88 21.725-.021v6.25L8.949 22.99l-3.717-6.11Z" fill="url(#l)"/><path d="m5.232 16.88 21.725-.021v6.25L8.949 22.99l-3.717-6.11Z" fill="url(#m)"/><path d="m5.232 16.88 21.725-.021v6.25L8.949 22.99l-3.717-6.11Z" fill="url(#n)"/><path d="m5.232 16.88 21.725-.021v6.25L8.949 22.99l-3.717-6.11Z" fill="url(#o)"/><g filter="url(#p)"><path d="M3.504 20.843c-.775-.425-1.254-.422-1.445-.422v5.938H29.94V20.42c-1.562 0-2.214 1.156-3.53 1.156-1.317 0-2.188-1.156-3.548-1.156-1.117 0-2.242 1.156-3.508 1.156-.972 0-2.203-1.156-3.39-1.156-1.258 0-2.262 1.156-3.399 1.156-.558 0-.836-.101-1.539-.437-.703-.336-1.324-.703-1.98-.703-.654 0-1.311.333-1.88.621l-.007.004c-.57.289-1.031.515-1.656.515s-1.031-.203-2-.734Z" fill="url(#q)"/><path d="M3.504 20.843c-.775-.425-1.254-.422-1.445-.422v5.938H29.94V20.42c-1.562 0-2.214 1.156-3.53 1.156-1.317 0-2.188-1.156-3.548-1.156-1.117 0-2.242 1.156-3.508 1.156-.972 0-2.203-1.156-3.39-1.156-1.258 0-2.262 1.156-3.399 1.156-.558 0-.836-.101-1.539-.437-.703-.336-1.324-.703-1.98-.703-.654 0-1.311.333-1.88.621l-.007.004c-.57.289-1.031.515-1.656.515s-1.031-.203-2-.734Z" fill="url(#r)"/><path d="M3.504 20.843c-.775-.425-1.254-.422-1.445-.422v5.938H29.94V20.42c-1.562 0-2.214 1.156-3.53 1.156-1.317 0-2.188-1.156-3.548-1.156-1.117 0-2.242 1.156-3.508 1.156-.972 0-2.203-1.156-3.39-1.156-1.258 0-2.262 1.156-3.399 1.156-.558 0-.836-.101-1.539-.437-.703-.336-1.324-.703-1.98-.703-.654 0-1.311.333-1.88.621l-.007.004c-.57.289-1.031.515-1.656.515s-1.031-.203-2-.734Z" fill="url(#s)"/></g><g filter="url(#t)"><rect x="4.086" y="15.422" width="23.859" height="2.191" rx="1.095" fill="url(#u)"/><rect x="4.086" y="15.422" width="23.859" height="2.191" rx="1.095" fill="url(#v)"/><rect x="4.086" y="15.422" width="23.859" height="2.191" rx="1.095" fill="url(#w)"/><rect x="4.086" y="15.422" width="23.859" height="2.191" rx="1.095" fill="url(#x)"/></g><g filter="url(#y)"><rect x="19.523" y="12.958" width="1.28" height=".637" rx=".318" transform="rotate(-21.787 19.523 12.958)" fill="#F4C03B"/></g><path d="M21.334 12.173a.59.59 0 1 1 .829.84l-8.439 8.331a.59.59 0 0 1-.829-.84l8.44-8.33Z" fill="url(#z)"/><path d="M21.334 12.173a.59.59 0 1 1 .829.84l-8.439 8.331a.59.59 0 0 1-.829-.84l8.44-8.33Z" fill="url(#A)"/><path d="M21.334 12.173a.59.59 0 1 1 .829.84l-8.439 8.331a.59.59 0 0 1-.829-.84l8.44-8.33Z" fill="url(#B)"/><g filter="url(#C)"><path d="M11.366 20.222a1.917 1.917 0 0 1 2.712 2.71l-2.468 2.47a1.917 1.917 0 1 1-2.712-2.711l2.468-2.47Z" fill="url(#D)"/></g><g filter="url(#E)"><path d="M3.504 24.343c-.775-.425-1.254-.422-1.445-.422v5.938H29.94V23.92c-1.562 0-2.214 1.156-3.53 1.156-1.317 0-2.188-1.156-3.548-1.156-1.117 0-2.242 1.156-3.508 1.156-.972 0-2.203-1.156-3.39-1.156-1.258 0-2.262 1.156-3.399 1.156-.558 0-.836-.101-1.539-.437-.703-.336-1.324-.703-1.98-.703-.654 0-1.311.333-1.88.621l-.007.004c-.57.289-1.031.515-1.656.515s-1.031-.203-2-.734Z" fill="url(#F)"/><path d="M3.504 24.343c-.775-.425-1.254-.422-1.445-.422v5.938H29.94V23.92c-1.562 0-2.214 1.156-3.53 1.156-1.317 0-2.188-1.156-3.548-1.156-1.117 0-2.242 1.156-3.508 1.156-.972 0-2.203-1.156-3.39-1.156-1.258 0-2.262 1.156-3.399 1.156-.558 0-.836-.101-1.539-.437-.703-.336-1.324-.703-1.98-.703-.654 0-1.311.333-1.88.621l-.007.004c-.57.289-1.031.515-1.656.515s-1.031-.203-2-.734Z" fill="url(#G)"/><path d="M3.504 24.343c-.775-.425-1.254-.422-1.445-.422v5.938H29.94V23.92c-1.562 0-2.214 1.156-3.53 1.156-1.317 0-2.188-1.156-3.548-1.156-1.117 0-2.242 1.156-3.508 1.156-.972 0-2.203-1.156-3.39-1.156-1.258 0-2.262 1.156-3.399 1.156-.558 0-.836-.101-1.539-.437-.703-.336-1.324-.703-1.98-.703-.654 0-1.311.333-1.88.621l-.007.004c-.57.289-1.031.515-1.656.515s-1.031-.203-2-.734Z" fill="url(#H)"/></g><g filter="url(#I)"><path d="M16.504 13.679c-.713-.331-1.443-.966-1.719-1.242l1.281-1.192c1.157 1.11 2.375 1.279 2.684 1.352.395.094 1.538.3 2.168.73.516.352.379.993.07 1.266-.254.225-.675.336-1.011.203-.336-.133-.559-.27-1.227-.398a9.9 9.9 0 0 1-2.246-.719Z" fill="#FFD839"/></g><g filter="url(#J)"><path d="M13.004 10.968c.6.719 1.333 1.555 1.625 1.883l1.656-1.485c-.33-.395-1.117-1.303-1.617-1.765-.625-.578-1.27-.192-1.469 0-.172.165-.672.687-.195 1.367Z" fill="url(#K)"/></g><path d="M17.645 7.677c.048.013.099-.026.124-.083l.003-.01c.066-.246-.096-.437-.295-.49-.189-.05-.434.031-.5.278l-.003.01c-.015.059.01.118.066.133l.605.162Z" fill="#fff"/><path d="M17.72 7.698c.02-.037.038-.064.051-.113.048-.177-.02-.354-.169-.394-.138-.037-.296.08-.343.257a.515.515 0 0 0-.012.123l.473.127Z" fill="url(#L)"/><path d="M17.641 7.676c.03-.034.05-.07.061-.11.027-.098-.019-.206-.097-.227-.08-.02-.17.04-.198.148a.271.271 0 0 0-.002.126l.236.063Z" fill="url(#M)"/><path d="M17.545 7.305c.016-.036.07-.048.119-.026.049.022.075.07.059.106-.017.037-.07.049-.119.027-.049-.022-.075-.07-.059-.107Z" fill="#fff"/><defs><radialGradient id="a" cx="0" cy="0" r="1" gradientUnits="userSpaceOnUse" gradientTransform="rotate(125.15 6.095 8.468) scale(1.12391 2.0719)"><stop offset=".142" stop-color="#9D7D15"/><stop offset="1" stop-color="#E8AF34"/></radialGradient><radialGradient id="b" cx="0" cy="0" r="1" gradientUnits="userSpaceOnUse" gradientTransform="rotate(109.376 6.3 10.47) scale(.62401 .57809)"><stop offset=".463" stop-color="#FFD13F"/><stop offset="1" stop-color="#E7A740"/></radialGradient><radialGradient id="d" cx="0" cy="0" r="1" gradientUnits="userSpaceOnUse" gradientTransform="rotate(161.861 8.18 5.226) scale(2.84448 2.94485)"><stop offset=".176" stop-color="#FFD43F"/><stop offset="1" stop-color="#FFAD2D"/></radialGradient><radialGradient id="g" cx="0" cy="0" r="1" gradientUnits="userSpaceOnUse" gradientTransform="matrix(-4.0736 1.08862 -1.17937 -4.41318 18.613 5.583)"><stop stop-color="#FFB72E"/><stop offset="1" stop-color="#FFB02D"/></radialGradient><radialGradient id="h" cx="0" cy="0" r="1" gradientUnits="userSpaceOnUse" gradientTransform="matrix(-.375 -.1328 .22485 -.63488 15.855 6.827)"><stop stop-color="#FFCC3F"/><stop offset="1" stop-color="#FFB92F"/></radialGradient><radialGradient id="j" cx="0" cy="0" r="1" gradientUnits="userSpaceOnUse" gradientTransform="rotate(72.474 -.977 15.188) scale(4.35856 2.29046)"><stop offset=".08" stop-color="#275DC4"/><stop offset="1" stop-color="#275DC4" stop-opacity="0"/></radialGradient><radialGradient id="k" cx="0" cy="0" r="1" gradientUnits="userSpaceOnUse" gradientTransform="rotate(15.117 -48.73 48.601) scale(4.82315 2.16799)"><stop offset=".396" stop-color="#8D8695"/><stop offset=".77" stop-color="#697167"/></radialGradient><radialGradient id="n" cx="0" cy="0" r="1" gradientUnits="userSpaceOnUse" gradientTransform="matrix(5.5625 -6.21875 2.25745 2.01923 13.145 21.921)"><stop stop-color="#659941"/><stop offset="1" stop-color="#79AF4C" stop-opacity="0"/></radialGradient><radialGradient id="o" cx="0" cy="0" r="1" gradientUnits="userSpaceOnUse" gradientTransform="matrix(-2.15625 -1.84376 1.36973 -1.60188 11.332 21.827)"><stop stop-color="#528C3F"/><stop offset="1" stop-color="#528C3F" stop-opacity="0"/></radialGradient><radialGradient id="q" cx="0" cy="0" r="1" gradientUnits="userSpaceOnUse" gradientTransform="rotate(133.063 7.243 15.038) scale(9.15342 18.4848)"><stop stop-color="#379FE9"/><stop offset="1" stop-color="#3691DF"/></radialGradient><radialGradient id="r" cx="0" cy="0" r="1" gradientUnits="userSpaceOnUse" gradientTransform="rotate(-133.468 9.87 10.354) scale(4.13363 7.33334)"><stop stop-color="#286EC5"/><stop offset="1" stop-color="#286EC5" stop-opacity="0"/></radialGradient><radialGradient id="s" cx="0" cy="0" r="1" gradientUnits="userSpaceOnUse" gradientTransform="matrix(-4.875 .37502 -1.76114 -22.89326 31.55 23.015)"><stop offset=".288" stop-color="#38A7FB"/><stop offset="1" stop-color="#38A7FB" stop-opacity="0"/></radialGradient><radialGradient id="v" cx="0" cy="0" r="1" gradientUnits="userSpaceOnUse" gradientTransform="matrix(-1.28125 0 0 -1 27.55 16.046)"><stop stop-color="#78BB7D"/><stop offset="1" stop-color="#78BB7D" stop-opacity="0"/></radialGradient><radialGradient id="w" cx="0" cy="0" r="1" gradientUnits="userSpaceOnUse" gradientTransform="matrix(16.1875 0 0 .71644 4.27 16.517)"><stop stop-color="#7CAF55"/><stop offset="1" stop-color="#7CAF55" stop-opacity="0"/></radialGradient><radialGradient id="x" cx="0" cy="0" r="1" gradientUnits="userSpaceOnUse" gradientTransform="matrix(0 .8125 -9.78125 0 17.957 16.296)"><stop stop-color="#70A762"/><stop offset="1" stop-color="#70A762" stop-opacity="0"/></radialGradient><radialGradient id="z" cx="0" cy="0" r="1" gradientUnits="userSpaceOnUse" gradientTransform="rotate(135.21 8.335 10.718) scale(12.0651 1.31103)"><stop offset=".236" stop-color="#FECCA0"/><stop offset="1" stop-color="#DA9C63"/></radialGradient><radialGradient id="D" cx="0" cy="0" r="1" gradientUnits="userSpaceOnUse" gradientTransform="matrix(-3.55739 3.43749 -2.0246 -2.09522 14.64 20.859)"><stop stop-color="#FBC998"/><stop offset="1" stop-color="#E9B37E"/></radialGradient><radialGradient id="G" cx="0" cy="0" r="1" gradientUnits="userSpaceOnUse" gradientTransform="matrix(-3.09375 0 0 -12.375 30.176 28.827)"><stop stop-color="#65DEFF"/><stop offset="1" stop-color="#5DC9FF" stop-opacity="0"/></radialGradient><radialGradient id="K" cx="0" cy="0" r="1" gradientUnits="userSpaceOnUse" gradientTransform="matrix(2.15625 2.4375 -1.4473 1.28031 15.176 10.046)"><stop offset=".049" stop-color="#579FF0"/><stop offset="1" stop-color="#397BD7"/></radialGradient><radialGradient id="L" cx="0" cy="0" r="1" gradientUnits="userSpaceOnUse" gradientTransform="rotate(-75.213 13.74 -7.56) scale(.49693 .55747)"><stop offset=".626" stop-color="#81504C"/><stop offset="1" stop-color="#AA8D86"/></radialGradient><radialGradient id="M" cx="0" cy="0" r="1" gradientUnits="userSpaceOnUse" gradientTransform="rotate(74.242 3.863 15.25) scale(.27194 .26317)"><stop stop-color="#3D3D3D"/><stop offset="1" stop-color="#191919"/></radialGradient><filter id="c" x="14.414" y="5.351" width="4.17" height="4.439" filterUnits="userSpaceOnUse" color-interpolation-filters="sRGB"><feFlood flood-opacity="0" result="BackgroundImageFix"/><feBlend in="SourceGraphic" in2="BackgroundImageFix" result="shape"/><feColorMatrix in="SourceAlpha" values="0 0 0 0 0 0 0 0 0 0 0 0 0 0 0 0 0 0 127 0" result="hardAlpha"/><feOffset dx=".2" dy="-.15"/><feGaussianBlur stdDeviation=".25"/><feComposite in2="hardAlpha" operator="arithmetic" k2="-1" k3="1"/><feColorMatrix values="0 0 0 0 0.85098 0 0 0 0 0.615686 0 0 0 0 0.121569 0 0 0 1 0"/><feBlend in2="shape" result="effect1_innerShadow_3987_23063"/></filter><filter id="e" x="17.245" y="6.487" width=".763" height=".367" filterUnits="userSpaceOnUse" color-interpolation-filters="sRGB"><feFlood flood-opacity="0" result="BackgroundImageFix"/><feBlend in="SourceGraphic" in2="BackgroundImageFix" result="shape"/><feColorMatrix in="SourceAlpha" values="0 0 0 0 0 0 0 0 0 0 0 0 0 0 0 0 0 0 127 0" result="hardAlpha"/><feOffset dy="-.1"/><feGaussianBlur stdDeviation=".05"/><feComposite in2="hardAlpha" operator="arithmetic" k2="-1" k3="1"/><feColorMatrix values="0 0 0 0 0.678431 0 0 0 0 0.243137 0 0 0 0 0.239216 0 0 0 1 0"/><feBlend in2="shape" result="effect1_innerShadow_3987_23063"/></filter><filter id="f" x="13.955" y="4.069" width="5.17" height="3.72" filterUnits="userSpaceOnUse" color-interpolation-filters="sRGB"><feFlood flood-opacity="0" result="BackgroundImageFix"/><feBlend in="SourceGraphic" in2="BackgroundImageFix" result="shape"/><feColorMatrix in="SourceAlpha" values="0 0 0 0 0 0 0 0 0 0 0 0 0 0 0 0 0 0 127 0" result="hardAlpha"/><feOffset dx=".1" dy="-.15"/><feGaussianBlur stdDeviation=".3"/><feComposite in2="hardAlpha" operator="arithmetic" k2="-1" k3="1"/><feColorMatrix values="0 0 0 0 0.992157 0 0 0 0 0.564706 0 0 0 0 0.101961 0 0 0 1 0"/><feBlend in2="shape" result="effect1_innerShadow_3987_23063"/></filter><filter id="i" x="9.574" y="8.85" width="6.377" height="6.141" filterUnits="userSpaceOnUse" color-interpolation-filters="sRGB"><feFlood flood-opacity="0" result="BackgroundImageFix"/><feBlend in="SourceGraphic" in2="BackgroundImageFix" result="shape"/><feColorMatrix in="SourceAlpha" values="0 0 0 0 0 0 0 0 0 0 0 0 0 0 0 0 0 0 127 0" result="hardAlpha"/><feOffset dx=".65"/><feGaussianBlur stdDeviation=".6"/><feComposite in2="hardAlpha" operator="arithmetic" k2="-1" k3="1"/><feColorMatrix values="0 0 0 0 0.203922 0 0 0 0 0.447059 0 0 0 0 0.780392 0 0 0 1 0"/><feBlend in2="shape" result="effect1_innerShadow_3987_23063"/><feColorMatrix in="SourceAlpha" values="0 0 0 0 0 0 0 0 0 0 0 0 0 0 0 0 0 0 127 0" result="hardAlpha"/><feOffset dx=".25"/><feGaussianBlur stdDeviation=".25"/><feComposite in2="hardAlpha" operator="arithmetic" k2="-1" k3="1"/><feColorMatrix values="0 0 0 0 0.309804 0 0 0 0 0.447059 0 0 0 0 0.627451 0 0 0 1 0"/><feBlend in2="effect1_innerShadow_3987_23063" result="effect2_innerShadow_3987_23063"/></filter><filter id="p" x="2.059" y="20.421" width="27.983" height="6.037" filterUnits="userSpaceOnUse" color-interpolation-filters="sRGB"><feFlood flood-opacity="0" result="BackgroundImageFix"/><feBlend in="SourceGraphic" in2="BackgroundImageFix" result="shape"/><feColorMatrix in="SourceAlpha" values="0 0 0 0 0 0 0 0 0 0 0 0 0 0 0 0 0 0 127 0" result="hardAlpha"/><feOffset dx=".1" dy=".1"/><feGaussianBlur stdDeviation=".075"/><feComposite in2="hardAlpha" operator="arithmetic" k2="-1" k3="1"/><feColorMatrix values="0 0 0 0 0.180392 0 0 0 0 0.541176 0 0 0 0 0.729412 0 0 0 1 0"/><feBlend in2="shape" result="effect1_innerShadow_3987_23063"/></filter><filter id="t" x="3.886" y="15.422" width="24.059" height="2.191" filterUnits="userSpaceOnUse" color-interpolation-filters="sRGB"><feFlood flood-opacity="0" result="BackgroundImageFix"/><feBlend in="SourceGraphic" in2="BackgroundImageFix" result="shape"/><feColorMatrix in="SourceAlpha" values="0 0 0 0 0 0 0 0 0 0 0 0 0 0 0 0 0 0 127 0" result="hardAlpha"/><feOffset dx="-.2"/><feGaussianBlur stdDeviation=".375"/><feComposite in2="hardAlpha" operator="arithmetic" k2="-1" k3="1"/><feColorMatrix values="0 0 0 0 0.278431 0 0 0 0 0.529412 0 0 0 0 0.184314 0 0 0 1 0"/><feBlend in2="shape" result="effect1_innerShadow_3987_23063"/></filter><filter id="y" x="19.618" y="12.578" width="1.234" height=".876" filterUnits="userSpaceOnUse" color-interpolation-filters="sRGB"><feFlood flood-opacity="0" result="BackgroundImageFix"/><feBlend in="SourceGraphic" in2="BackgroundImageFix" result="shape"/><feColorMatrix in="SourceAlpha" values="0 0 0 0 0 0 0 0 0 0 0 0 0 0 0 0 0 0 127 0" result="hardAlpha"/><feOffset/><feGaussianBlur stdDeviation=".125"/><feComposite in2="hardAlpha" operator="arithmetic" k2="-1" k3="1"/><feColorMatrix values="0 0 0 0 0.886275 0 0 0 0 0.701961 0 0 0 0 0.262745 0 0 0 1 0"/><feBlend in2="shape" result="effect1_innerShadow_3987_23063"/></filter><filter id="C" x="8.337" y="19.16" width="6.802" height="6.803" filterUnits="userSpaceOnUse" color-interpolation-filters="sRGB"><feFlood flood-opacity="0" result="BackgroundImageFix"/><feBlend in="SourceGraphic" in2="BackgroundImageFix" result="shape"/><feColorMatrix in="SourceAlpha" values="0 0 0 0 0 0 0 0 0 0 0 0 0 0 0 0 0 0 127 0" result="hardAlpha"/><feOffset dx=".5" dy="-.5"/><feGaussianBlur stdDeviation=".625"/><feComposite in2="hardAlpha" operator="arithmetic" k2="-1" k3="1"/><feColorMatrix values="0 0 0 0 0.776471 0 0 0 0 0.556863 0 0 0 0 0.341176 0 0 0 1 0"/><feBlend in2="shape" result="effect1_innerShadow_3987_23063"/></filter><filter id="E" x="1.959" y="23.921" width="27.983" height="6.037" filterUnits="userSpaceOnUse" color-interpolation-filters="sRGB"><feFlood flood-opacity="0" result="BackgroundImageFix"/><feBlend in="SourceGraphic" in2="BackgroundImageFix" result="shape"/><feColorMatrix in="SourceAlpha" values="0 0 0 0 0 0 0 0 0 0 0 0 0 0 0 0 0 0 127 0" result="hardAlpha"/><feOffset dx="-.1" dy=".1"/><feGaussianBlur stdDeviation=".2"/><feComposite in2="hardAlpha" operator="arithmetic" k2="-1" k3="1"/><feColorMatrix values="0 0 0 0 0.384314 0 0 0 0 0.843137 0 0 0 0 1 0 0 0 1 0"/><feBlend in2="shape" result="effect1_innerShadow_3987_23063"/></filter><filter id="I" x="14.785" y="10.745" width="6.678" height="4.108" filterUnits="userSpaceOnUse" color-interpolation-filters="sRGB"><feFlood flood-opacity="0" result="BackgroundImageFix"/><feBlend in="SourceGraphic" in2="BackgroundImageFix" result="shape"/><feColorMatrix in="SourceAlpha" values="0 0 0 0 0 0 0 0 0 0 0 0 0 0 0 0 0 0 127 0" result="hardAlpha"/><feOffset dx=".2" dy="-.5"/><feGaussianBlur stdDeviation=".4"/><feComposite in2="hardAlpha" operator="arithmetic" k2="-1" k3="1"/><feColorMatrix values="0 0 0 0 0.92549 0 0 0 0 0.607843 0 0 0 0 0.254902 0 0 0 1 0"/><feBlend in2="shape" result="effect1_innerShadow_3987_23063"/></filter><filter id="J" x="12.803" y="9.146" width="3.882" height="3.705" filterUnits="userSpaceOnUse" color-interpolation-filters="sRGB"><feFlood flood-opacity="0" result="BackgroundImageFix"/><feBlend in="SourceGraphic" in2="BackgroundImageFix" result="shape"/><feColorMatrix in="SourceAlpha" values="0 0 0 0 0 0 0 0 0 0 0 0 0 0 0 0 0 0 127 0" result="hardAlpha"/><feOffset dx=".4" dy="-.15"/><feGaussianBlur stdDeviation=".4"/><feComposite in2="hardAlpha" operator="arithmetic" k2="-1" k3="1"/><feColorMatrix values="0 0 0 0 0.0941176 0 0 0 0 0.392157 0 0 0 0 0.709804 0 0 0 1 0"/><feBlend in2="shape" result="effect1_innerShadow_3987_23063"/></filter><linearGradient id="l" x1="25.051" y1="18.765" x2="7.801" y2="24.14" gradientUnits="userSpaceOnUse"><stop offset=".353" stop-color="#86BF45"/><stop offset="1" stop-color="#679951"/></linearGradient><linearGradient id="m" x1="27.145" y1="20.327" x2="26.441" y2="20.327" gradientUnits="userSpaceOnUse"><stop stop-color="#99D852"/><stop offset="1" stop-color="#99D852" stop-opacity="0"/></linearGradient><linearGradient id="u" x1="16.015" y1="15.171" x2="16.395" y2="18.702" gradientUnits="userSpaceOnUse"><stop stop-color="#79B34C"/><stop offset="1" stop-color="#4D8C4E"/></linearGradient><linearGradient id="A" x1="17.168" y1="16.206" x2="17.582" y2="16.601" gradientUnits="userSpaceOnUse"><stop stop-color="#CD9157"/><stop offset="1" stop-color="#EEB683" stop-opacity="0"/></linearGradient><linearGradient id="B" x1="19.52" y1="15.89" x2="19.184" y2="15.538" gradientUnits="userSpaceOnUse"><stop stop-color="#D59C7A"/><stop offset="1" stop-color="#D59C7A" stop-opacity="0"/></linearGradient><linearGradient id="F" x1="18.457" y1="23.296" x2="12.738" y2="33.39" gradientUnits="userSpaceOnUse"><stop stop-color="#5FCDFF"/><stop offset="1" stop-color="#4AADFF"/></linearGradient><linearGradient id="H" x1="18.02" y1="29.859" x2="18.02" y2="29.577" gradientUnits="userSpaceOnUse"><stop stop-color="#59A0FF"/><stop offset="1" stop-color="#55BEFF" stop-opacity="0"/></linearGradient></defs></svg>