<svg width="32" height="32" fill="none" xmlns="http://www.w3.org/2000/svg"><g filter="url(#a)"><rect x="2.273" y="27.094" width="7.938" height="2.938" rx=".15" fill="url(#b)"/><rect x="2.273" y="27.094" width="7.938" height="2.938" rx=".15" fill="url(#c)"/><rect x="2.273" y="27.094" width="7.938" height="2.938" rx=".15" fill="url(#d)"/></g><rect x="2.273" y="27.094" width="7.938" height="2.938" rx=".15" fill="url(#e)"/><g filter="url(#f)"><path d="M2.273 19.75v7.125c0 .138.112.25.25.25h9.135a2.71 2.71 0 0 1 2.71 2.71c0 .108.087.196.196.196h15.4c.11 0 .201-.088.204-.199l.001-.033c.02-.705.07-2.526-.349-4.236-.875-3.579-3.53-4.188-7.515-5-2.691-.55-5.026-1.891-6.455-2.908-.569-.405-1.24-.655-1.937-.655h-8.89a2.75 2.75 0 0 0-2.75 2.75Z" fill="#B5666B"/></g><path d="M2.273 19.75v7.125c0 .138.112.25.25.25h9.135a2.71 2.71 0 0 1 2.71 2.71c0 .108.087.196.196.196h15.4c.11 0 .201-.088.204-.199l.001-.033c.02-.705.07-2.526-.349-4.236-.875-3.579-3.53-4.188-7.515-5-2.691-.55-5.026-1.891-6.455-2.908-.569-.405-1.24-.655-1.937-.655h-8.89a2.75 2.75 0 0 0-2.75 2.75Z" fill="url(#g)"/><path d="M2.273 19.75v7.125c0 .138.112.25.25.25h9.135a2.71 2.71 0 0 1 2.71 2.71c0 .108.087.196.196.196h15.4c.11 0 .201-.088.204-.199l.001-.033c.02-.705.07-2.526-.349-4.236-.875-3.579-3.53-4.188-7.515-5-2.691-.55-5.026-1.891-6.455-2.908-.569-.405-1.24-.655-1.937-.655h-8.89a2.75 2.75 0 0 0-2.75 2.75Z" fill="url(#h)"/><g filter="url(#i)"><rect x="16.645" y="17.183" width="1.36" height="3.596" rx=".68" transform="rotate(45.013 16.645 17.183)" fill="#825751"/></g><g filter="url(#j)"><rect x="19.512" y="18.808" width="1.36" height="3.596" rx=".68" transform="rotate(45.013 19.512 18.808)" fill="#825751"/></g><g filter="url(#k)"><path d="m15.156 19.844 1.688-1.672" stroke="url(#l)" stroke-width=".5" stroke-linecap="round"/></g><g filter="url(#m)"><path d="m18.031 21.523 1.688-1.672" stroke="url(#n)" stroke-width=".5" stroke-linecap="round"/></g><defs><linearGradient id="b" x1="3.758" y1="29.781" x2="8.227" y2="29.781" gradientUnits="userSpaceOnUse"><stop offset=".343" stop-color="#653D43"/><stop offset="1" stop-color="#8C4F69"/></linearGradient><linearGradient id="c" x1="10.211" y1="29.953" x2="9.852" y2="29.953" gradientUnits="userSpaceOnUse"><stop offset=".154" stop-color="#926970"/><stop offset="1" stop-color="#926970" stop-opacity="0"/></linearGradient><linearGradient id="d" x1="2.055" y1="29.125" x2="2.898" y2="29.125" gradientUnits="userSpaceOnUse"><stop stop-color="#725F60"/><stop offset="1" stop-color="#725F60" stop-opacity="0"/></linearGradient><linearGradient id="e" x1="7.008" y1="30.031" x2="7.008" y2="29.887" gradientUnits="userSpaceOnUse"><stop stop-color="#893A7A"/><stop offset="1" stop-color="#893A7A" stop-opacity="0"/></linearGradient><linearGradient id="g" x1="2.273" y1="25.813" x2="8.445" y2="25.813" gradientUnits="userSpaceOnUse"><stop offset=".06" stop-color="#7A5047"/><stop offset="1" stop-color="#914E49" stop-opacity="0"/></linearGradient><linearGradient id="l" x1="15.25" y1="20.063" x2="17.266" y2="18" gradientUnits="userSpaceOnUse"><stop stop-color="#873C70"/><stop offset=".241" stop-color="#9C7675"/><stop offset=".591" stop-color="#9C7675"/><stop offset="1" stop-color="#9C7675" stop-opacity="0"/></linearGradient><linearGradient id="n" x1="18.125" y1="21.742" x2="20.141" y2="19.679" gradientUnits="userSpaceOnUse"><stop stop-color="#873C70"/><stop offset=".241" stop-color="#9C7675"/><stop offset=".591" stop-color="#9C7675"/><stop offset="1" stop-color="#9C7675" stop-opacity="0"/></linearGradient><filter id="a" x="2.223" y="27.094" width="7.987" height="2.987" filterUnits="userSpaceOnUse" color-interpolation-filters="sRGB"><feFlood flood-opacity="0" result="BackgroundImageFix"/><feBlend in="SourceGraphic" in2="BackgroundImageFix" result="shape"/><feColorMatrix in="SourceAlpha" values="0 0 0 0 0 0 0 0 0 0 0 0 0 0 0 0 0 0 127 0" result="hardAlpha"/><feOffset dx="-.05" dy=".05"/><feGaussianBlur stdDeviation=".05"/><feComposite in2="hardAlpha" operator="arithmetic" k2="-1" k3="1"/><feColorMatrix values="0 0 0 0 0.501961 0 0 0 0 0.25098 0 0 0 0 0.25098 0 0 0 1 0"/><feBlend in2="shape" result="effect1_innerShadow_18_17204"/></filter><filter id="f" x="-.227" y="16.9" width="30.408" height="15.131" filterUnits="userSpaceOnUse" color-interpolation-filters="sRGB"><feFlood flood-opacity="0" result="BackgroundImageFix"/><feBlend in="SourceGraphic" in2="BackgroundImageFix" result="shape"/><feColorMatrix in="SourceAlpha" values="0 0 0 0 0 0 0 0 0 0 0 0 0 0 0 0 0 0 127 0" result="hardAlpha"/><feOffset dx="-2.5" dy="2"/><feGaussianBlur stdDeviation="1.5"/><feComposite in2="hardAlpha" operator="arithmetic" k2="-1" k3="1"/><feColorMatrix values="0 0 0 0 0.768627 0 0 0 0 0.505882 0 0 0 0 0.45098 0 0 0 1 0"/><feBlend in2="shape" result="effect1_innerShadow_18_17204"/><feColorMatrix in="SourceAlpha" values="0 0 0 0 0 0 0 0 0 0 0 0 0 0 0 0 0 0 127 0" result="hardAlpha"/><feOffset dx="-1.5" dy="1.5"/><feGaussianBlur stdDeviation="1"/><feComposite in2="hardAlpha" operator="arithmetic" k2="-1" k3="1"/><feColorMatrix values="0 0 0 0 0.67451 0 0 0 0 0.443137 0 0 0 0 0.337255 0 0 0 1 0"/><feBlend in2="effect1_innerShadow_18_17204" result="effect2_innerShadow_18_17204"/><feColorMatrix in="SourceAlpha" values="0 0 0 0 0 0 0 0 0 0 0 0 0 0 0 0 0 0 127 0" result="hardAlpha"/><feOffset dy="-.1"/><feGaussianBlur stdDeviation=".1"/><feComposite in2="hardAlpha" operator="arithmetic" k2="-1" k3="1"/><feColorMatrix values="0 0 0 0 0.686275 0 0 0 0 0.309804 0 0 0 0 0.486275 0 0 0 1 0"/><feBlend in2="effect2_innerShadow_18_17204" result="effect3_innerShadow_18_17204"/></filter><filter id="i" x="14.383" y="17.215" width="3.441" height="3.191" filterUnits="userSpaceOnUse" color-interpolation-filters="sRGB"><feFlood flood-opacity="0" result="BackgroundImageFix"/><feBlend in="SourceGraphic" in2="BackgroundImageFix" result="shape"/><feColorMatrix in="SourceAlpha" values="0 0 0 0 0 0 0 0 0 0 0 0 0 0 0 0 0 0 127 0" result="hardAlpha"/><feOffset dx=".5" dy="-.25"/><feGaussianBlur stdDeviation=".25"/><feComposite in2="hardAlpha" operator="arithmetic" k2="-1" k3="1"/><feColorMatrix values="0 0 0 0 0.447059 0 0 0 0 0.219608 0 0 0 0 0.231373 0 0 0 1 0"/><feBlend in2="shape" result="effect1_innerShadow_18_17204"/></filter><filter id="j" x="17.25" y="18.84" width="3.441" height="3.191" filterUnits="userSpaceOnUse" color-interpolation-filters="sRGB"><feFlood flood-opacity="0" result="BackgroundImageFix"/><feBlend in="SourceGraphic" in2="BackgroundImageFix" result="shape"/><feColorMatrix in="SourceAlpha" values="0 0 0 0 0 0 0 0 0 0 0 0 0 0 0 0 0 0 127 0" result="hardAlpha"/><feOffset dx=".5" dy="-.25"/><feGaussianBlur stdDeviation=".25"/><feComposite in2="hardAlpha" operator="arithmetic" k2="-1" k3="1"/><feColorMatrix values="0 0 0 0 0.447059 0 0 0 0 0.219608 0 0 0 0 0.231373 0 0 0 1 0"/><feBlend in2="shape" result="effect1_innerShadow_18_17204"/></filter><filter id="k" x="14.656" y="17.672" width="2.688" height="2.672" filterUnits="userSpaceOnUse" color-interpolation-filters="sRGB"><feFlood flood-opacity="0" result="BackgroundImageFix"/><feBlend in="SourceGraphic" in2="BackgroundImageFix" result="shape"/><feGaussianBlur stdDeviation=".125" result="effect1_foregroundBlur_18_17204"/></filter><filter id="m" x="17.531" y="19.351" width="2.688" height="2.672" filterUnits="userSpaceOnUse" color-interpolation-filters="sRGB"><feFlood flood-opacity="0" result="BackgroundImageFix"/><feBlend in="SourceGraphic" in2="BackgroundImageFix" result="shape"/><feGaussianBlur stdDeviation=".125" result="effect1_foregroundBlur_18_17204"/></filter><radialGradient id="h" cx="0" cy="0" r="1" gradientUnits="userSpaceOnUse" gradientTransform="matrix(0 -7.34375 4.15617 0 28.195 30.031)"><stop stop-color="#C78877"/><stop offset="1" stop-color="#BA706F" stop-opacity="0"/></radialGradient></defs></svg>