<svg width="32" height="32" fill="none" xmlns="http://www.w3.org/2000/svg"><g filter="url(#a)"><path d="M3.211 18.156c-.675 2.05-.979 3.604-1 4.031l11.313-2.875-4.438-8.562h5.25c2.532-1.063 1.91-3.696 1.676-4.277-.465-1.157-1.574-1.989-3.793-2.676-2.218-.688-3.703.281-4.312 1.36-.625.866-.828 2.257-1.352 3.413-.781 1.5-2.5 7.024-3.344 9.586Z" fill="#AAA9AA"/><path d="M3.211 18.156c-.675 2.05-.979 3.604-1 4.031l11.313-2.875-4.438-8.562h5.25c2.532-1.063 1.91-3.696 1.676-4.277-.465-1.157-1.574-1.989-3.793-2.676-2.218-.688-3.703.281-4.312 1.36-.625.866-.828 2.257-1.352 3.413-.781 1.5-2.5 7.024-3.344 9.586Z" fill="url(#b)"/><path d="M3.211 18.156c-.675 2.05-.979 3.604-1 4.031l11.313-2.875-4.438-8.562h5.25c2.532-1.063 1.91-3.696 1.676-4.277-.465-1.157-1.574-1.989-3.793-2.676-2.218-.688-3.703.281-4.312 1.36-.625.866-.828 2.257-1.352 3.413-.781 1.5-2.5 7.024-3.344 9.586Z" fill="url(#c)"/><path d="M3.211 18.156c-.675 2.05-.979 3.604-1 4.031l11.313-2.875-4.438-8.562h5.25c2.532-1.063 1.91-3.696 1.676-4.277-.465-1.157-1.574-1.989-3.793-2.676-2.218-.688-3.703.281-4.312 1.36-.625.866-.828 2.257-1.352 3.413-.781 1.5-2.5 7.024-3.344 9.586Z" fill="url(#d)"/><path d="M3.211 18.156c-.675 2.05-.979 3.604-1 4.031l11.313-2.875-4.438-8.562h5.25c2.532-1.063 1.91-3.696 1.676-4.277-.465-1.157-1.574-1.989-3.793-2.676-2.218-.688-3.703.281-4.312 1.36-.625.866-.828 2.257-1.352 3.413-.781 1.5-2.5 7.024-3.344 9.586Z" fill="url(#e)"/></g><path d="M15.53 23.233a6.7 6.7 0 1 0-6.852 6.698v.002H21.66v-6.7h-6.13Z" fill="url(#f)"/><path d="M15.53 23.233a6.7 6.7 0 1 0-6.852 6.698v.002H21.66v-6.7h-6.13Z" fill="url(#g)"/><path d="M15.53 23.233a6.7 6.7 0 1 0-6.852 6.698v.002H21.66v-6.7h-6.13Z" fill="url(#h)"/><path d="M15.53 23.233a6.7 6.7 0 1 0-6.852 6.698v.002H21.66v-6.7h-6.13Z" fill="url(#i)"/><g filter="url(#j)"><circle cx="9.035" cy="23.233" r="3.326" stroke="url(#k)" stroke-width=".15"/></g><g filter="url(#l)"><circle cx="9.035" cy="23.233" r="2.895" stroke="url(#m)" stroke-width=".5"/></g><g filter="url(#n)"><circle cx="9.035" cy="23.233" r="2.86" fill="#85818A"/></g><circle cx="9.035" cy="23.233" r="2.86" fill="url(#o)"/><g filter="url(#p)"><circle cx="9.035" cy="23.233" r="1.873" stroke="url(#q)" stroke-width=".5"/></g><g filter="url(#r)"><circle cx="21.576" cy="21.508" r="8.425" fill="url(#s)"/></g><circle cx="21.576" cy="21.508" r="8.425" fill="url(#t)"/><circle cx="21.576" cy="21.508" r="8.425" fill="url(#u)"/><g filter="url(#v)"><circle cx="21.576" cy="21.508" r="3.652" stroke="url(#w)" stroke-width=".5"/></g><circle cx="21.576" cy="21.509" r="3.607" fill="url(#x)"/><circle cx="21.576" cy="21.509" r="3.607" fill="url(#y)"/><g filter="url(#z)"><circle cx="21.576" cy="21.508" r="4.167" stroke="url(#A)" stroke-width=".15"/></g><g filter="url(#B)"><circle cx="21.576" cy="21.508" r="2.722" fill="url(#C)"/></g><path d="M11.737 8.011a.748.748 0 1 1-.377-1.022l2.43 1.022h-2.053Z" fill="url(#D)"/><g filter="url(#E)"><path d="M13.782 5.563c.617.247 1.737 1.171 1.289 2.89" stroke="url(#F)" stroke-linecap="round"/></g><rect x="6.956" y="7.759" width="8.357" height="4.03" rx="2.015" fill="url(#G)"/><rect x="6.956" y="7.759" width="8.357" height="4.03" rx="2.015" fill="url(#H)"/><rect x="6.956" y="7.759" width="8.357" height="4.03" rx="2.015" fill="url(#I)"/><rect x="6.956" y="7.759" width="8.357" height="4.03" rx="2.015" fill="url(#J)"/><g filter="url(#K)"><circle cx="9.314" cy="9.711" r=".981" stroke="url(#L)" stroke-width=".15"/></g><g filter="url(#M)"><circle cx="9.314" cy="9.711" r=".969" fill="#B7B6B9"/></g><g filter="url(#N)"><circle cx="14.267" cy="9.554" r=".812" fill="url(#O)"/></g><g filter="url(#P)"><path d="M9.84 9.795a.15.15 0 1 0 .299.021l-.3-.02Zm-.556-.615c.114 0 .265.041.38.138.107.09.193.237.176.477l.299.021c.023-.334-.1-.575-.283-.728a.915.915 0 0 0-.572-.208v.3Z" fill="url(#Q)"/></g><defs><radialGradient id="c" cx="0" cy="0" r="1" gradientUnits="userSpaceOnUse" gradientTransform="rotate(68.085 -2.874 12.847) scale(2.93051 3.20343)"><stop offset=".157" stop-color="#58565B"/><stop offset="1" stop-color="#58565B" stop-opacity="0"/></radialGradient><radialGradient id="d" cx="0" cy="0" r="1" gradientUnits="userSpaceOnUse" gradientTransform="rotate(77.574 -5.4 15.18) scale(5.66393 2.61627)"><stop stop-color="#C5C4C6"/><stop offset="1" stop-color="#C5C4C6" stop-opacity="0"/></radialGradient><radialGradient id="e" cx="0" cy="0" r="1" gradientUnits="userSpaceOnUse" gradientTransform="matrix(-5.4788 3.56246 -3.90368 -6.00356 16.253 5.937)"><stop stop-color="#BCBCBC"/><stop offset="1" stop-color="#BCBCBC" stop-opacity="0"/></radialGradient><radialGradient id="f" cx="0" cy="0" r="1" gradientUnits="userSpaceOnUse" gradientTransform="matrix(0 9.79386 -8.09335 0 9.3 19.75)"><stop stop-color="#A8A8A9"/><stop offset="1" stop-color="#7C7780"/></radialGradient><radialGradient id="h" cx="0" cy="0" r="1" gradientUnits="userSpaceOnUse" gradientTransform="matrix(-3.65249 1.88156 -3.65707 -7.09911 15.757 24.305)"><stop stop-color="#676668"/><stop offset="1" stop-color="#676668" stop-opacity="0"/></radialGradient><radialGradient id="i" cx="0" cy="0" r="1" gradientUnits="userSpaceOnUse" gradientTransform="rotate(-132.632 11.876 10.906) scale(11.8059 10.2499)"><stop offset=".942" stop-color="#959595" stop-opacity="0"/><stop offset="1" stop-color="#959595"/></radialGradient><radialGradient id="o" cx="0" cy="0" r="1" gradientUnits="userSpaceOnUse" gradientTransform="matrix(0 -5.236 6.59375 0 9.211 28.469)"><stop stop-color="#746582"/><stop offset="1" stop-color="#746582" stop-opacity="0"/></radialGradient><radialGradient id="s" cx="0" cy="0" r="1" gradientUnits="userSpaceOnUse" gradientTransform="rotate(152.865 10.365 13.216) scale(11.2368)"><stop stop-color="#D2D1D3"/><stop offset="1" stop-color="#7F7886"/></radialGradient><radialGradient id="t" cx="0" cy="0" r="1" gradientUnits="userSpaceOnUse" gradientTransform="rotate(100.607 3.305 18.888) scale(14.1885 16.7623)"><stop offset=".495" stop-color="#83659E" stop-opacity="0"/><stop offset=".912" stop-color="#83659E"/></radialGradient><radialGradient id="u" cx="0" cy="0" r="1" gradientUnits="userSpaceOnUse" gradientTransform="rotate(102.067 3.44 18.11) scale(11.6594 11.3693)"><stop offset=".907" stop-color="#9677B2" stop-opacity="0"/><stop offset="1" stop-color="#9677B2"/></radialGradient><radialGradient id="w" cx="0" cy="0" r="1" gradientUnits="userSpaceOnUse" gradientTransform="matrix(4.07813 -5.75 7.70566 5.46516 19.258 24.219)"><stop stop-color="#696073"/><stop offset="1" stop-color="#A5A4A6"/></radialGradient><radialGradient id="x" cx="0" cy="0" r="1" gradientUnits="userSpaceOnUse" gradientTransform="rotate(138.325 8.555 14.454) scale(7.23793 8.72495)"><stop stop-color="#E8E7E9"/><stop offset="1" stop-color="#8E8796"/></radialGradient><radialGradient id="y" cx="0" cy="0" r="1" gradientUnits="userSpaceOnUse" gradientTransform="rotate(-60.709 32.382 -2.703) scale(4.73017)"><stop stop-color="#89739F"/><stop offset="1" stop-color="#89739F" stop-opacity="0"/></radialGradient><radialGradient id="D" cx="0" cy="0" r="1" gradientUnits="userSpaceOnUse" gradientTransform="matrix(.17188 -.64844 1.30013 .34461 11.07 7.875)"><stop stop-color="#555554"/><stop offset="1" stop-color="#454545"/></radialGradient><radialGradient id="H" cx="0" cy="0" r="1" gradientUnits="userSpaceOnUse" gradientTransform="matrix(9.69943 0 0 7.55237 6.713 9.598)"><stop offset=".766" stop-color="#C1C1C2" stop-opacity="0"/><stop offset="1" stop-color="#C1C1C2"/></radialGradient><radialGradient id="I" cx="0" cy="0" r="1" gradientUnits="userSpaceOnUse" gradientTransform="rotate(159.344 7.133 5.15) scale(9.26397 7.21331)"><stop offset=".926" stop-color="#818082" stop-opacity="0"/><stop offset="1" stop-color="#818082"/></radialGradient><radialGradient id="J" cx="0" cy="0" r="1" gradientUnits="userSpaceOnUse" gradientTransform="rotate(-102.875 11.683 .79) scale(1.27282 4.36126)"><stop stop-color="#877798"/><stop offset="1" stop-color="#877798" stop-opacity="0"/></radialGradient><radialGradient id="O" cx="0" cy="0" r="1" gradientUnits="userSpaceOnUse" gradientTransform="rotate(-32.152 23.859 -18.762) scale(2.33578)"><stop stop-color="#C8C8C9"/><stop offset="1" stop-color="#C8C8C9" stop-opacity="0"/></radialGradient><filter id="a" x="2.211" y="3.566" width="15.541" height="18.621" filterUnits="userSpaceOnUse" color-interpolation-filters="sRGB"><feFlood flood-opacity="0" result="BackgroundImageFix"/><feBlend in="SourceGraphic" in2="BackgroundImageFix" result="shape"/><feColorMatrix in="SourceAlpha" values="0 0 0 0 0 0 0 0 0 0 0 0 0 0 0 0 0 0 127 0" result="hardAlpha"/><feOffset dx="1.5"/><feGaussianBlur stdDeviation="1.5"/><feComposite in2="hardAlpha" operator="arithmetic" k2="-1" k3="1"/><feColorMatrix values="0 0 0 0 0 0 0 0 0 0 0 0 0 0 0 0 0 0 0.25 0"/><feBlend in2="shape" result="effect1_innerShadow_20020_4391"/></filter><filter id="j" x="5.484" y="19.681" width="7.103" height="7.103" filterUnits="userSpaceOnUse" color-interpolation-filters="sRGB"><feFlood flood-opacity="0" result="BackgroundImageFix"/><feBlend in="SourceGraphic" in2="BackgroundImageFix" result="shape"/><feGaussianBlur stdDeviation=".075" result="effect1_foregroundBlur_20020_4391"/></filter><filter id="l" x="5.49" y="19.688" width="7.09" height="7.09" filterUnits="userSpaceOnUse" color-interpolation-filters="sRGB"><feFlood flood-opacity="0" result="BackgroundImageFix"/><feBlend in="SourceGraphic" in2="BackgroundImageFix" result="shape"/><feGaussianBlur stdDeviation=".2" result="effect1_foregroundBlur_20020_4391"/></filter><filter id="n" x="6.176" y="20.373" width="5.719" height="5.719" filterUnits="userSpaceOnUse" color-interpolation-filters="sRGB"><feFlood flood-opacity="0" result="BackgroundImageFix"/><feBlend in="SourceGraphic" in2="BackgroundImageFix" result="shape"/><feColorMatrix in="SourceAlpha" values="0 0 0 0 0 0 0 0 0 0 0 0 0 0 0 0 0 0 127 0" result="hardAlpha"/><feOffset/><feGaussianBlur stdDeviation="1"/><feComposite in2="hardAlpha" operator="arithmetic" k2="-1" k3="1"/><feColorMatrix values="0 0 0 0 0.364706 0 0 0 0 0.345098 0 0 0 0 0.388235 0 0 0 1 0"/><feBlend in2="shape" result="effect1_innerShadow_20020_4391"/><feColorMatrix in="SourceAlpha" values="0 0 0 0 0 0 0 0 0 0 0 0 0 0 0 0 0 0 127 0" result="hardAlpha"/><feOffset/><feGaussianBlur stdDeviation=".1"/><feComposite in2="hardAlpha" operator="arithmetic" k2="-1" k3="1"/><feColorMatrix values="0 0 0 0 0.301961 0 0 0 0 0.282353 0 0 0 0 0.32549 0 0 0 1 0"/><feBlend in2="effect1_innerShadow_20020_4391" result="effect2_innerShadow_20020_4391"/></filter><filter id="p" x="6.612" y="20.809" width="4.847" height="4.847" filterUnits="userSpaceOnUse" color-interpolation-filters="sRGB"><feFlood flood-opacity="0" result="BackgroundImageFix"/><feBlend in="SourceGraphic" in2="BackgroundImageFix" result="shape"/><feGaussianBlur stdDeviation=".15" result="effect1_foregroundBlur_20020_4391"/></filter><filter id="r" x="13.151" y="13.084" width="17.849" height="16.849" filterUnits="userSpaceOnUse" color-interpolation-filters="sRGB"><feFlood flood-opacity="0" result="BackgroundImageFix"/><feBlend in="SourceGraphic" in2="BackgroundImageFix" result="shape"/><feColorMatrix in="SourceAlpha" values="0 0 0 0 0 0 0 0 0 0 0 0 0 0 0 0 0 0 127 0" result="hardAlpha"/><feOffset dx="1"/><feGaussianBlur stdDeviation="1.5"/><feComposite in2="hardAlpha" operator="arithmetic" k2="-1" k3="1"/><feColorMatrix values="0 0 0 0 0.505882 0 0 0 0 0.501961 0 0 0 0 0.509804 0 0 0 1 0"/><feBlend in2="shape" result="effect1_innerShadow_20020_4391"/></filter><filter id="v" x="17.424" y="17.357" width="8.303" height="8.303" filterUnits="userSpaceOnUse" color-interpolation-filters="sRGB"><feFlood flood-opacity="0" result="BackgroundImageFix"/><feBlend in="SourceGraphic" in2="BackgroundImageFix" result="shape"/><feGaussianBlur stdDeviation=".125" result="effect1_foregroundBlur_20020_4391"/></filter><filter id="z" x="17.183" y="17.116" width="8.784" height="8.784" filterUnits="userSpaceOnUse" color-interpolation-filters="sRGB"><feFlood flood-opacity="0" result="BackgroundImageFix"/><feBlend in="SourceGraphic" in2="BackgroundImageFix" result="shape"/><feGaussianBlur stdDeviation=".075" result="effect1_foregroundBlur_20020_4391"/></filter><filter id="B" x="18.353" y="18.286" width="6.445" height="6.445" filterUnits="userSpaceOnUse" color-interpolation-filters="sRGB"><feFlood flood-opacity="0" result="BackgroundImageFix"/><feBlend in="SourceGraphic" in2="BackgroundImageFix" result="shape"/><feGaussianBlur stdDeviation=".25" result="effect1_foregroundBlur_20020_4391"/></filter><filter id="E" x="12.532" y="4.312" width="3.892" height="5.39" filterUnits="userSpaceOnUse" color-interpolation-filters="sRGB"><feFlood flood-opacity="0" result="BackgroundImageFix"/><feBlend in="SourceGraphic" in2="BackgroundImageFix" result="shape"/><feGaussianBlur stdDeviation=".375" result="effect1_foregroundBlur_20020_4391"/></filter><filter id="K" x="8.107" y="8.505" width="2.412" height="2.412" filterUnits="userSpaceOnUse" color-interpolation-filters="sRGB"><feFlood flood-opacity="0" result="BackgroundImageFix"/><feBlend in="SourceGraphic" in2="BackgroundImageFix" result="shape"/><feGaussianBlur stdDeviation=".075" result="effect1_foregroundBlur_20020_4391"/></filter><filter id="M" x="8.344" y="8.642" width="2.038" height="2.038" filterUnits="userSpaceOnUse" color-interpolation-filters="sRGB"><feFlood flood-opacity="0" result="BackgroundImageFix"/><feBlend in="SourceGraphic" in2="BackgroundImageFix" result="shape"/><feColorMatrix in="SourceAlpha" values="0 0 0 0 0 0 0 0 0 0 0 0 0 0 0 0 0 0 127 0" result="hardAlpha"/><feOffset dx=".1" dy="-.1"/><feGaussianBlur stdDeviation=".25"/><feComposite in2="hardAlpha" operator="arithmetic" k2="-1" k3="1"/><feColorMatrix values="0 0 0 0 0.52549 0 0 0 0 0.501961 0 0 0 0 0.54902 0 0 0 1 0"/><feBlend in2="shape" result="effect1_innerShadow_20020_4391"/></filter><filter id="N" x="12.455" y="7.742" width="3.624" height="3.624" filterUnits="userSpaceOnUse" color-interpolation-filters="sRGB"><feFlood flood-opacity="0" result="BackgroundImageFix"/><feBlend in="SourceGraphic" in2="BackgroundImageFix" result="shape"/><feGaussianBlur stdDeviation=".5" result="effect1_foregroundBlur_20020_4391"/></filter><filter id="P" x="9.134" y="8.73" width="1.157" height="1.375" filterUnits="userSpaceOnUse" color-interpolation-filters="sRGB"><feFlood flood-opacity="0" result="BackgroundImageFix"/><feBlend in="SourceGraphic" in2="BackgroundImageFix" result="shape"/><feGaussianBlur stdDeviation=".075" result="effect1_foregroundBlur_20020_4391"/></filter><linearGradient id="b" x1="-.257" y1="18.312" x2="10.243" y2="15.75" gradientUnits="userSpaceOnUse"><stop stop-color="#777678"/><stop offset="1" stop-color="#777678" stop-opacity="0"/></linearGradient><linearGradient id="g" x1="12.215" y1="29.933" x2="12.215" y2="25.891" gradientUnits="userSpaceOnUse"><stop stop-color="#886AA4"/><stop offset="1" stop-color="#886AA4" stop-opacity="0"/></linearGradient><linearGradient id="k" x1="6.723" y1="26.24" x2="9.035" y2="23.536" gradientUnits="userSpaceOnUse"><stop stop-color="#96919B"/><stop offset="1" stop-color="#96919B" stop-opacity="0"/></linearGradient><linearGradient id="m" x1="7.54" y1="20.588" x2="11.089" y2="25.878" gradientUnits="userSpaceOnUse"><stop stop-color="#8D8B90"/><stop offset="1" stop-color="#706C74"/></linearGradient><linearGradient id="q" x1="11.33" y1="21.359" x2="9.365" y2="23.233" gradientUnits="userSpaceOnUse"><stop stop-color="#99979B"/><stop offset="1" stop-color="#918E93" stop-opacity="0"/></linearGradient><linearGradient id="A" x1="18.679" y1="25.276" x2="21.576" y2="21.889" gradientUnits="userSpaceOnUse"><stop stop-color="#96919B"/><stop offset="1" stop-color="#96919B" stop-opacity="0"/></linearGradient><linearGradient id="C" x1="23.175" y1="18.786" x2="20.325" y2="24.703" gradientUnits="userSpaceOnUse"><stop stop-color="#BFBBC4"/><stop offset="1" stop-color="#B9B3BF"/></linearGradient><linearGradient id="F" x1="15.174" y1="6.375" x2="14.238" y2="6.731" gradientUnits="userSpaceOnUse"><stop stop-color="#CFCFCF"/><stop offset="1" stop-color="#CFCFCF" stop-opacity="0"/></linearGradient><linearGradient id="G" x1="12.586" y1="8.5" x2="11.461" y2="12.531" gradientUnits="userSpaceOnUse"><stop stop-color="#9F9F9F"/><stop offset="1" stop-color="#6E6972"/></linearGradient><linearGradient id="L" x1="10.22" y1="10.551" x2="8.634" y2="8.593" gradientUnits="userSpaceOnUse"><stop stop-color="#6C6A6D"/><stop offset="1" stop-color="#6B686F" stop-opacity="0"/></linearGradient><linearGradient id="Q" x1="10.055" y1="9.03" x2="9.638" y2="9.514" gradientUnits="userSpaceOnUse"><stop stop-color="#D2D2D3"/><stop offset="1" stop-color="#D2D2D3" stop-opacity="0"/></linearGradient></defs></svg>