<svg width="32" height="32" fill="none" xmlns="http://www.w3.org/2000/svg"><g filter="url(#a)"><path d="M7.435 9.676c-.06.6-.59 1.04-1.19.98l-3.26-.31a1.089 1.089 0 1 1 .21-2.17l3.26.31c.59.06 1.04.59.98 1.19Z" fill="#25C06C"/><path d="M7.435 9.676c-.06.6-.59 1.04-1.19.98l-3.26-.31a1.089 1.089 0 1 1 .21-2.17l3.26.31c.59.06 1.04.59.98 1.19Z" fill="url(#b)"/><path d="M7.435 9.676c-.06.6-.59 1.04-1.19.98l-3.26-.31a1.089 1.089 0 1 1 .21-2.17l3.26.31c.59.06 1.04.59.98 1.19Z" fill="url(#c)"/><path d="M7.435 9.676c-.06.6-.59 1.04-1.19.98l-3.26-.31a1.089 1.089 0 1 1 .21-2.17l3.26.31c.59.06 1.04.59.98 1.19Z" fill="url(#d)"/></g><g filter="url(#e)"><path d="M7.725 15.005c.17.58-.16 1.19-.74 1.36l-3.15.92a1.095 1.095 0 0 1-.62-2.1l3.15-.92c.58-.17 1.19.16 1.36.74Z" fill="#25C06C"/><path d="M7.725 15.005c.17.58-.16 1.19-.74 1.36l-3.15.92a1.095 1.095 0 0 1-.62-2.1l3.15-.92c.58-.17 1.19.16 1.36.74Z" fill="url(#f)"/><path d="M7.725 15.005c.17.58-.16 1.19-.74 1.36l-3.15.92a1.095 1.095 0 0 1-.62-2.1l3.15-.92c.58-.17 1.19.16 1.36.74Z" fill="url(#g)"/><path d="M7.725 15.005c.17.58-.16 1.19-.74 1.36l-3.15.92a1.095 1.095 0 0 1-.62-2.1l3.15-.92c.58-.17 1.19.16 1.36.74Z" fill="url(#h)"/><path d="M7.725 15.005c.17.58-.16 1.19-.74 1.36l-3.15.92a1.095 1.095 0 0 1-.62-2.1l3.15-.92c.58-.17 1.19.16 1.36.74Z" fill="url(#i)"/></g><g filter="url(#j)"><path d="M9.825 19.195c.39.45.35 1.15-.11 1.54l-2.47 2.15a1.092 1.092 0 0 1-1.43-1.65l2.47-2.15c.45-.39 1.15-.34 1.54.11Z" fill="#25C06C"/><path d="M9.825 19.195c.39.45.35 1.15-.11 1.54l-2.47 2.15a1.092 1.092 0 0 1-1.43-1.65l2.47-2.15c.45-.39 1.15-.34 1.54.11Z" fill="url(#k)"/><path d="M9.825 19.195c.39.45.35 1.15-.11 1.54l-2.47 2.15a1.092 1.092 0 0 1-1.43-1.65l2.47-2.15c.45-.39 1.15-.34 1.54.11Z" fill="url(#l)"/><path d="M9.825 19.195c.39.45.35 1.15-.11 1.54l-2.47 2.15a1.092 1.092 0 0 1-1.43-1.65l2.47-2.15c.45-.39 1.15-.34 1.54.11Z" fill="url(#m)"/><path d="M9.825 19.195c.39.45.35 1.15-.11 1.54l-2.47 2.15a1.092 1.092 0 0 1-1.43-1.65l2.47-2.15c.45-.39 1.15-.34 1.54.11Z" fill="url(#n)"/></g><g filter="url(#o)"><path d="M13.855 22.656c.52.3.7.97.4 1.49l-1.64 2.84c-.3.52-.97.7-1.49.4-.52-.3-.7-.97-.4-1.49l1.64-2.84c.3-.52.97-.7 1.49-.4Z" fill="#25C06C"/><path d="M13.855 22.656c.52.3.7.97.4 1.49l-1.64 2.84c-.3.52-.97.7-1.49.4-.52-.3-.7-.97-.4-1.49l1.64-2.84c.3-.52.97-.7 1.49-.4Z" fill="url(#p)"/><path d="M13.855 22.656c.52.3.7.97.4 1.49l-1.64 2.84c-.3.52-.97.7-1.49.4-.52-.3-.7-.97-.4-1.49l1.64-2.84c.3-.52.97-.7 1.49-.4Z" fill="url(#q)"/><path d="M13.855 22.656c.52.3.7.97.4 1.49l-1.64 2.84c-.3.52-.97.7-1.49.4-.52-.3-.7-.97-.4-1.49l1.64-2.84c.3-.52.97-.7 1.49-.4Z" fill="url(#r)"/><path d="M13.855 22.656c.52.3.7.97.4 1.49l-1.64 2.84c-.3.52-.97.7-1.49.4-.52-.3-.7-.97-.4-1.49l1.64-2.84c.3-.52.97-.7 1.49-.4Z" fill="url(#s)"/></g><g filter="url(#t)"><path d="M19.375 23.616c.6 0 1.09.49 1.09 1.09v3.28c0 .6-.49 1.09-1.09 1.09-.6 0-1.09-.49-1.09-1.09v-3.28c0-.6.49-1.09 1.09-1.09Z" fill="#25C06C"/><path d="M19.375 23.616c.6 0 1.09.49 1.09 1.09v3.28c0 .6-.49 1.09-1.09 1.09-.6 0-1.09-.49-1.09-1.09v-3.28c0-.6.49-1.09 1.09-1.09Z" fill="url(#u)"/><path d="M19.375 23.616c.6 0 1.09.49 1.09 1.09v3.28c0 .6-.49 1.09-1.09 1.09-.6 0-1.09-.49-1.09-1.09v-3.28c0-.6.49-1.09 1.09-1.09Z" fill="url(#v)"/><path d="M19.375 23.616c.6 0 1.09.49 1.09 1.09v3.28c0 .6-.49 1.09-1.09 1.09-.6 0-1.09-.49-1.09-1.09v-3.28c0-.6.49-1.09 1.09-1.09Z" fill="url(#w)"/></g><g filter="url(#x)"><path d="M23.948 21.858c.43-.43 1.12-.43 1.55 0l2.32 2.32c.43.43.43 1.12 0 1.55-.43.43-1.12.43-1.55 0l-2.32-2.32c-.43-.43-.43-1.13 0-1.55Z" fill="#25C06C"/><path d="M23.948 21.858c.43-.43 1.12-.43 1.55 0l2.32 2.32c.43.43.43 1.12 0 1.55-.43.43-1.12.43-1.55 0l-2.32-2.32c-.43-.43-.43-1.13 0-1.55Z" fill="url(#y)"/><path d="M23.948 21.858c.43-.43 1.12-.43 1.55 0l2.32 2.32c.43.43.43 1.12 0 1.55-.43.43-1.12.43-1.55 0l-2.32-2.32c-.43-.43-.43-1.13 0-1.55Z" fill="url(#z)"/><path d="M23.948 21.858c.43-.43 1.12-.43 1.55 0l2.32 2.32c.43.43.43 1.12 0 1.55-.43.43-1.12.43-1.55 0l-2.32-2.32c-.43-.43-.43-1.13 0-1.55Z" fill="url(#A)" fill-opacity=".4"/><path d="M23.948 21.858c.43-.43 1.12-.43 1.55 0l2.32 2.32c.43.43.43 1.12 0 1.55-.43.43-1.12.43-1.55 0l-2.32-2.32c-.43-.43-.43-1.13 0-1.55Z" fill="url(#B)"/></g><g filter="url(#C)"><path d="M24.705 17.666c-.17-.58.16-1.19.74-1.36l3.15-.92a1.095 1.095 0 0 1 .62 2.1l-3.15.92c-.58.18-1.19-.16-1.36-.74Z" fill="#25C06C"/><path d="M24.705 17.666c-.17-.58.16-1.19.74-1.36l3.15-.92a1.095 1.095 0 0 1 .62 2.1l-3.15.92c-.58.18-1.19-.16-1.36-.74Z" fill="url(#D)"/><path d="M24.705 17.666c-.17-.58.16-1.19.74-1.36l3.15-.92a1.095 1.095 0 0 1 .62 2.1l-3.15.92c-.58.18-1.19-.16-1.36-.74Z" fill="url(#E)"/><path d="M24.705 17.666c-.17-.58.16-1.19.74-1.36l3.15-.92a1.095 1.095 0 0 1 .62 2.1l-3.15.92c-.58.18-1.19-.16-1.36-.74Z" fill="url(#F)"/><path d="M24.705 17.666c-.17-.58.16-1.19.74-1.36l3.15-.92a1.095 1.095 0 0 1 .62 2.1l-3.15.92c-.58.18-1.19-.16-1.36-.74Z" fill="url(#G)"/></g><g filter="url(#H)"><path d="M21.935 15.775a1.1 1.1 0 0 1-.8-1.32l.79-3.18a1.1 1.1 0 0 1 1.32-.8c.58.14.94.74.8 1.32l-.79 3.18c-.14.59-.74.95-1.32.8Z" fill="#25C06C"/><path d="M21.935 15.775a1.1 1.1 0 0 1-.8-1.32l.79-3.18a1.1 1.1 0 0 1 1.32-.8c.58.14.94.74.8 1.32l-.79 3.18c-.14.59-.74.95-1.32.8Z" fill="url(#I)"/><path d="M21.935 15.775a1.1 1.1 0 0 1-.8-1.32l.79-3.18a1.1 1.1 0 0 1 1.32-.8c.58.14.94.74.8 1.32l-.79 3.18c-.14.59-.74.95-1.32.8Z" fill="url(#J)"/><path d="M21.935 15.775a1.1 1.1 0 0 1-.8-1.32l.79-3.18a1.1 1.1 0 0 1 1.32-.8c.58.14.94.74.8 1.32l-.79 3.18c-.14.59-.74.95-1.32.8Z" fill="url(#K)"/><path d="M21.935 15.775a1.1 1.1 0 0 1-.8-1.32l.79-3.18a1.1 1.1 0 0 1 1.32-.8c.58.14.94.74.8 1.32l-.79 3.18c-.14.59-.74.95-1.32.8Z" fill="url(#L)"/></g><g filter="url(#M)"><path d="M14.115 14.146c-.39-.45-.35-1.15.11-1.54l2.47-2.15a1.092 1.092 0 0 1 1.43 1.65l-2.47 2.15c-.45.39-1.15.34-1.54-.11Z" fill="#25C06C"/><path d="M14.115 14.146c-.39-.45-.35-1.15.11-1.54l2.47-2.15a1.092 1.092 0 0 1 1.43 1.65l-2.47 2.15c-.45.39-1.15.34-1.54-.11Z" fill="url(#N)"/><path d="M14.115 14.146c-.39-.45-.35-1.15.11-1.54l2.47-2.15a1.092 1.092 0 0 1 1.43 1.65l-2.47 2.15c-.45.39-1.15.34-1.54-.11Z" fill="url(#O)"/><path d="M14.115 14.146c-.39-.45-.35-1.15.11-1.54l2.47-2.15a1.092 1.092 0 0 1 1.43 1.65l-2.47 2.15c-.45.39-1.15.34-1.54-.11Z" fill="url(#P)"/><path d="M14.115 14.146c-.39-.45-.35-1.15.11-1.54l2.47-2.15a1.092 1.092 0 0 1 1.43 1.65l-2.47 2.15c-.45.39-1.15.34-1.54-.11Z" fill="url(#Q)"/></g><g filter="url(#R)"><path d="M11.905 8.256c-.3-.52-.12-1.19.4-1.49l2.84-1.64c.52-.3 1.19-.12 1.49.4.3.52.12 1.19-.4 1.49l-2.84 1.64c-.52.3-1.19.12-1.49-.4Z" fill="#25C06C"/><path d="M11.905 8.256c-.3-.52-.12-1.19.4-1.49l2.84-1.64c.52-.3 1.19-.12 1.49.4.3.52.12 1.19-.4 1.49l-2.84 1.64c-.52.3-1.19.12-1.49-.4Z" fill="url(#S)"/><path d="M11.905 8.256c-.3-.52-.12-1.19.4-1.49l2.84-1.64c.52-.3 1.19-.12 1.49.4.3.52.12 1.19-.4 1.49l-2.84 1.64c-.52.3-1.19.12-1.49-.4Z" fill="url(#T)"/><path d="M11.905 8.256c-.3-.52-.12-1.19.4-1.49l2.84-1.64c.52-.3 1.19-.12 1.49.4.3.52.12 1.19-.4 1.49l-2.84 1.64c-.52.3-1.19.12-1.49-.4Z" fill="url(#U)"/><path d="M11.905 8.256c-.3-.52-.12-1.19.4-1.49l2.84-1.64c.52-.3 1.19-.12 1.49.4.3.52.12 1.19-.4 1.49l-2.84 1.64c-.52.3-1.19.12-1.49-.4Z" fill="url(#V)"/></g><g filter="url(#W)"><path d="M9.295 7.376c-.59.13-1.17-.25-1.3-.84l-.69-3.21a1.095 1.095 0 0 1 2.14-.46l.69 3.21c.13.59-.25 1.18-.84 1.3Z" fill="#25C06C"/><path d="M9.295 7.376c-.59.13-1.17-.25-1.3-.84l-.69-3.21a1.095 1.095 0 0 1 2.14-.46l.69 3.21c.13.59-.25 1.18-.84 1.3Z" fill="url(#X)"/><path d="M9.295 7.376c-.59.13-1.17-.25-1.3-.84l-.69-3.21a1.095 1.095 0 0 1 2.14-.46l.69 3.21c.13.59-.25 1.18-.84 1.3Z" fill="url(#Y)"/><path d="M9.295 7.376c-.59.13-1.17-.25-1.3-.84l-.69-3.21a1.095 1.095 0 0 1 2.14-.46l.69 3.21c.13.59-.25 1.18-.84 1.3Z" fill="url(#Z)"/></g><path d="M21.465 13.046c-.18-.01-.49.01-.91.04-1.08.09-3.34.27-4.33-.53-1.05-.85-1.06-1.44-1.09-2.52v-.25l-.02-.33c-.01-.12-.03-.23-.05-.3a5.244 5.244 0 0 0-5.18-4.52c-4.166 0-5.38 3.473-5.38 7.4 0 7.89 6.42 14.31 14.31 14.31 1 0 2.69-.25 3.73-.48.1-.02.2-.04.38-.09.22-.05.46-.12.69-.21 2.53-.94 4.23-3.37 4.23-6.05.01-3.57-2.89-6.47-6.38-6.47Z" fill="#41DF79"/><path d="M21.465 13.046c-.18-.01-.49.01-.91.04-1.08.09-3.34.27-4.33-.53-1.05-.85-1.06-1.44-1.09-2.52v-.25l-.02-.33c-.01-.12-.03-.23-.05-.3a5.244 5.244 0 0 0-5.18-4.52c-4.166 0-5.38 3.473-5.38 7.4 0 7.89 6.42 14.31 14.31 14.31 1 0 2.69-.25 3.73-.48.1-.02.2-.04.38-.09.22-.05.46-.12.69-.21 2.53-.94 4.23-3.37 4.23-6.05.01-3.57-2.89-6.47-6.38-6.47Z" fill="url(#aa)"/><path d="M21.465 13.046c-.18-.01-.49.01-.91.04-1.08.09-3.34.27-4.33-.53-1.05-.85-1.06-1.44-1.09-2.52v-.25l-.02-.33c-.01-.12-.03-.23-.05-.3a5.244 5.244 0 0 0-5.18-4.52c-4.166 0-5.38 3.473-5.38 7.4 0 7.89 6.42 14.31 14.31 14.31 1 0 2.69-.25 3.73-.48.1-.02.2-.04.38-.09.22-.05.46-.12.69-.21 2.53-.94 4.23-3.37 4.23-6.05.01-3.57-2.89-6.47-6.38-6.47Z" fill="url(#ab)"/><path d="M21.465 13.046c-.18-.01-.49.01-.91.04-1.08.09-3.34.27-4.33-.53-1.05-.85-1.06-1.44-1.09-2.52v-.25l-.02-.33c-.01-.12-.03-.23-.05-.3a5.244 5.244 0 0 0-5.18-4.52c-4.166 0-5.38 3.473-5.38 7.4 0 7.89 6.42 14.31 14.31 14.31 1 0 2.69-.25 3.73-.48.1-.02.2-.04.38-.09.22-.05.46-.12.69-.21 2.53-.94 4.23-3.37 4.23-6.05.01-3.57-2.89-6.47-6.38-6.47Z" fill="url(#ac)"/><path d="M21.465 13.046c-.18-.01-.49.01-.91.04-1.08.09-3.34.27-4.33-.53-1.05-.85-1.06-1.44-1.09-2.52v-.25l-.02-.33c-.01-.12-.03-.23-.05-.3a5.244 5.244 0 0 0-5.18-4.52c-4.166 0-5.38 3.473-5.38 7.4 0 7.89 6.42 14.31 14.31 14.31 1 0 2.69-.25 3.73-.48.1-.02.2-.04.38-.09.22-.05.46-.12.69-.21 2.53-.94 4.23-3.37 4.23-6.05.01-3.57-2.89-6.47-6.38-6.47Z" fill="url(#ad)"/><path d="M21.465 13.046c-.18-.01-.49.01-.91.04-1.08.09-3.34.27-4.33-.53-1.05-.85-1.06-1.44-1.09-2.52v-.25l-.02-.33c-.01-.12-.03-.23-.05-.3a5.244 5.244 0 0 0-5.18-4.52c-4.166 0-5.38 3.473-5.38 7.4 0 7.89 6.42 14.31 14.31 14.31 1 0 2.69-.25 3.73-.48.1-.02.2-.04.38-.09.22-.05.46-.12.69-.21 2.53-.94 4.23-3.37 4.23-6.05.01-3.57-2.89-6.47-6.38-6.47Z" fill="url(#ae)"/><g filter="url(#af)"><path d="M12.17 16.307c-2.025-2.427-2.34-5.468-2.133-7.51.102-1.001 1.095-1.543 2.073-1.312l.32.075c.822.194 1.352.965 1.442 1.805.093.874.34 1.595.67 2.18.764 1.36 1.329 3.531.275 4.68-.725.79-1.96.905-2.647.082Z" fill="url(#ag)"/></g><g filter="url(#ah)"><ellipse cx="23.996" cy="18.704" rx="3.181" ry="3.719" transform="rotate(-17.327 23.996 18.704)" fill="url(#ai)"/></g><g filter="url(#aj)"><path d="M10.405 10.935a1.09 1.09 0 1 0 0-2.18 1.09 1.09 0 0 0 0 2.18Z" fill="#5CFC9B"/></g><g filter="url(#ak)"><path d="M17.04 18.284a1.09 1.09 0 1 0 0-2.18 1.09 1.09 0 0 0 0 2.18Z" fill="url(#al)"/></g><g filter="url(#am)"><path d="M15.824 21.953a1.09 1.09 0 1 0 0-2.18 1.09 1.09 0 0 0 0 2.18Z" fill="url(#an)"/></g><g filter="url(#ao)"><path d="M18.966 21.14c.659.669 1.814.6 2.582-.155.767-.755.856-1.91.197-2.579-.658-.67-1.814-.6-2.581.155-.768.755-.856 1.91-.198 2.579Z" fill="url(#ap)"/></g><g filter="url(#aq)"><path d="M20.968 20.936a1.61 1.61 0 1 0 0-3.22 1.61 1.61 0 0 0 0 3.22Z" fill="#49F38C"/></g><g filter="url(#ar)"><path d="M17.727 17.89a1.04 1.04 0 1 0 0-2.08 1.04 1.04 0 0 0 0 2.08Z" fill="#49F38C"/></g><g filter="url(#as)"><path d="M16.425 21.407a1.04 1.04 0 1 0 0-2.081 1.04 1.04 0 0 0 0 2.08Z" fill="#3DDD8A"/></g><path d="M20.675 20.996a1.64 1.64 0 1 0 0-3.28 1.64 1.64 0 0 0 0 3.28Z" fill="url(#at)"/><path d="M16.185 21.536a1.09 1.09 0 1 0 0-2.18 1.09 1.09 0 0 0 0 2.18Z" fill="url(#au)"/><path d="M17.515 17.996a1.09 1.09 0 1 0 0-2.18 1.09 1.09 0 0 0 0 2.18Z" fill="url(#av)"/><g filter="url(#aw)"><path d="M9.982 11.107a1.09 1.09 0 1 0 0-2.18 1.09 1.09 0 0 0 0 2.18Z" fill="#30B27E"/></g><path d="M10.305 10.935a1.09 1.09 0 1 0 0-2.18 1.09 1.09 0 0 0 0 2.18Z" fill="url(#ax)"/><g filter="url(#ay)"><path d="M5.42 14.96c-.69-3.153-.15-5.875.55-7.558a.948.948 0 0 1 .888-.568c.703 0 1.196.693 1.002 1.369-.387 1.348-.721 2.953-.721 4.506 0 4.887 3.145 9.427 5 10.907-1.667-.625-5.669-3.857-6.72-8.657Z" fill="url(#az)"/></g><defs><radialGradient id="b" cx="0" cy="0" r="1" gradientUnits="userSpaceOnUse" gradientTransform="rotate(-177.985 2.739 4.661) scale(2.48591 11.9989)"><stop offset=".166" stop-color="#209858"/><stop offset="1" stop-color="#209858" stop-opacity="0"/></radialGradient><radialGradient id="d" cx="0" cy="0" r="1" gradientUnits="userSpaceOnUse" gradientTransform="rotate(97.672 -1.477 6.608) scale(3.04287 1.27205)"><stop stop-color="#43925F"/><stop offset=".6" stop-color="#43925F" stop-opacity="0"/></radialGradient><radialGradient id="f" cx="0" cy="0" r="1" gradientUnits="userSpaceOnUse" gradientTransform="rotate(-177.438 3.017 7.824) scale(2.44046 14.9719)"><stop offset=".166" stop-color="#209858"/><stop offset="1" stop-color="#209858" stop-opacity="0"/></radialGradient><radialGradient id="g" cx="0" cy="0" r="1" gradientUnits="userSpaceOnUse" gradientTransform="matrix(-.60937 -1.6875 2.23426 -.8068 5.36 16.969)"><stop stop-color="#7B83B3"/><stop offset="1" stop-color="#7B83B3" stop-opacity="0"/></radialGradient><radialGradient id="h" cx="0" cy="0" r="1" gradientUnits="userSpaceOnUse" gradientTransform="rotate(96.046 -4.21 9.962) scale(3.7853 1.25259)"><stop stop-color="#43925F"/><stop offset=".6" stop-color="#43925F" stop-opacity="0"/></radialGradient><radialGradient id="k" cx="0" cy="0" r="1" gradientUnits="userSpaceOnUse" gradientTransform="matrix(-2.12439 -.15187 1.4841 -20.76002 8.272 20.987)"><stop offset=".166" stop-color="#209858"/><stop offset="1" stop-color="#209858" stop-opacity="0"/></radialGradient><radialGradient id="l" cx="0" cy="0" r="1" gradientUnits="userSpaceOnUse" gradientTransform="rotate(-102.735 13.046 8.131) scale(2.40874 2.14657)"><stop stop-color="#7B83B3"/><stop offset="1" stop-color="#7B83B3" stop-opacity="0"/></radialGradient><radialGradient id="m" cx="0" cy="0" r="1" gradientUnits="userSpaceOnUse" gradientTransform="rotate(93.792 -5.496 13.787) scale(5.25243 1.09515)"><stop stop-color="#43925F"/><stop offset=".6" stop-color="#43925F" stop-opacity="0"/></radialGradient><radialGradient id="p" cx="0" cy="0" r="1" gradientUnits="userSpaceOnUse" gradientTransform="rotate(156.56 3.9 13.92) scale(2.43535 33.441)"><stop offset=".166" stop-color="#209858"/><stop offset="1" stop-color="#209858" stop-opacity="0"/></radialGradient><radialGradient id="q" cx="0" cy="0" r="1" gradientUnits="userSpaceOnUse" gradientTransform="rotate(158.791 4.414 14.088) scale(2.24587 2.57876)"><stop stop-color="#7B83B3"/><stop offset="1" stop-color="#7B83B3" stop-opacity="0"/></radialGradient><radialGradient id="r" cx="0" cy="0" r="1" gradientUnits="userSpaceOnUse" gradientTransform="rotate(92.687 -5.193 18.055) scale(6.08459 .90028)"><stop stop-color="#43925F"/><stop offset=".6" stop-color="#43925F" stop-opacity="0"/></radialGradient><radialGradient id="u" cx="0" cy="0" r="1" gradientUnits="userSpaceOnUse" gradientTransform="matrix(0 -.84114 2.65579 0 19.375 29.076)"><stop stop-color="#7B83B3"/><stop offset="1" stop-color="#7B83B3" stop-opacity="0"/></radialGradient><radialGradient id="w" cx="0" cy="0" r="1" gradientUnits="userSpaceOnUse" gradientTransform="matrix(-.73159 -.92198 .92857 -.73682 20.465 28.047)"><stop stop-color="#64F999"/><stop offset="1" stop-color="#64F999" stop-opacity="0"/></radialGradient><radialGradient id="y" cx="0" cy="0" r="1" gradientUnits="userSpaceOnUse" gradientTransform="matrix(-2 0 0 -2.72435 27.312 23.793)"><stop offset=".306" stop-color="#209858" stop-opacity="0"/><stop offset=".797" stop-color="#209858"/></radialGradient><radialGradient id="z" cx="0" cy="0" r="1" gradientUnits="userSpaceOnUse" gradientTransform="matrix(-2 -.25 .21442 -1.71538 28.625 24.688)"><stop stop-color="#64F999"/><stop offset=".943" stop-color="#64F999" stop-opacity="0"/></radialGradient><radialGradient id="A" cx="0" cy="0" r="1" gradientUnits="userSpaceOnUse" gradientTransform="matrix(-3.27356 -3.20313 .58488 -.59774 29.156 26.453)"><stop stop-color="#64F999"/><stop offset=".943" stop-color="#64F999" stop-opacity="0"/></radialGradient><radialGradient id="D" cx="0" cy="0" r="1" gradientUnits="userSpaceOnUse" gradientTransform="rotate(-23.553 54.29 -56.813) scale(2.10281 .906)"><stop stop-color="#3CC582"/><stop offset="1" stop-color="#3CC582" stop-opacity="0"/></radialGradient><radialGradient id="E" cx="0" cy="0" r="1" gradientUnits="userSpaceOnUse" gradientTransform="rotate(162.693 13.398 10.232) scale(2.2585 3.17824)"><stop offset=".306" stop-color="#209858" stop-opacity="0"/><stop offset="1" stop-color="#209858"/></radialGradient><radialGradient id="F" cx="0" cy="0" r="1" gradientUnits="userSpaceOnUse" gradientTransform="matrix(-1.23438 1.10937 -1.04949 -1.16775 29.844 15.656)"><stop stop-color="#64F999"/><stop offset=".943" stop-color="#64F999" stop-opacity="0"/></radialGradient><radialGradient id="I" cx="0" cy="0" r="1" gradientUnits="userSpaceOnUse" gradientTransform="matrix(1.0724 -1.44797 .81456 .60328 22.532 13.237)"><stop stop-color="#3CC582"/><stop offset="1" stop-color="#3CC582" stop-opacity="0"/></radialGradient><radialGradient id="K" cx="0" cy="0" r="1" gradientUnits="userSpaceOnUse" gradientTransform="rotate(100.38 7.256 14.899) scale(3.48677 3.89348)"><stop offset=".538" stop-color="#209858" stop-opacity="0"/><stop offset=".932" stop-color="#209858"/></radialGradient><radialGradient id="L" cx="0" cy="0" r="1" gradientUnits="userSpaceOnUse" gradientTransform="rotate(139.538 9.938 9.874) scale(1.39649 1.33146)"><stop stop-color="#64F999"/><stop offset=".943" stop-color="#64F999" stop-opacity="0"/></radialGradient><radialGradient id="N" cx="0" cy="0" r="1" gradientUnits="userSpaceOnUse" gradientTransform="rotate(-34.827 27.878 -19.42) scale(2.04615 1.12826)"><stop stop-color="#3CC582"/><stop offset="1" stop-color="#3CC582" stop-opacity="0"/></radialGradient><radialGradient id="P" cx="0" cy="0" r="1" gradientUnits="userSpaceOnUse" gradientTransform="matrix(-1.34015 2.09375 -3.86402 -2.47323 17.515 10.531)"><stop offset=".651" stop-color="#209858" stop-opacity="0"/><stop offset="1" stop-color="#209858"/></radialGradient><radialGradient id="Q" cx="0" cy="0" r="1" gradientUnits="userSpaceOnUse" gradientTransform="rotate(149.647 7.863 7.87) scale(1.68603 1.17169)"><stop stop-color="#64F999"/><stop offset=".943" stop-color="#64F999" stop-opacity="0"/></radialGradient><radialGradient id="S" cx="0" cy="0" r="1" gradientUnits="userSpaceOnUse" gradientTransform="matrix(1.8125 -1.03125 .52136 .91632 14.172 6.969)"><stop stop-color="#3CC582"/><stop offset="1" stop-color="#3CC582" stop-opacity="0"/></radialGradient><radialGradient id="U" cx="0" cy="0" r="1" gradientUnits="userSpaceOnUse" gradientTransform="matrix(1.01562 -.60937 1.04027 1.73378 13.984 7.203)"><stop offset=".14" stop-color="#209858"/><stop offset="1" stop-color="#209858" stop-opacity="0"/></radialGradient><radialGradient id="V" cx="0" cy="0" r="1" gradientUnits="userSpaceOnUse" gradientTransform="rotate(148.209 7.638 5.03) scale(1.69057 1.44401)"><stop stop-color="#64F999"/><stop offset=".943" stop-color="#64F999" stop-opacity="0"/></radialGradient><radialGradient id="Y" cx="0" cy="0" r="1" gradientUnits="userSpaceOnUse" gradientTransform="matrix(.3125 1.875 -3.15203 .52534 8.937 5.344)"><stop stop-color="#209858"/><stop offset="1" stop-color="#209858" stop-opacity="0"/></radialGradient><radialGradient id="Z" cx="0" cy="0" r="1" gradientUnits="userSpaceOnUse" gradientTransform="matrix(.5 2.21875 -.93622 .21098 9 3.156)"><stop stop-color="#64F999"/><stop offset=".943" stop-color="#64F999" stop-opacity="0"/></radialGradient><radialGradient id="aa" cx="0" cy="0" r="1" gradientUnits="userSpaceOnUse" gradientTransform="rotate(124.046 6.75 10.677) scale(13.9544 15.9614)"><stop offset=".513" stop-color="#30AF88" stop-opacity="0"/><stop offset="1" stop-color="#30AF88"/></radialGradient><radialGradient id="ab" cx="0" cy="0" r="1" gradientUnits="userSpaceOnUse" gradientTransform="matrix(-2.262 16.6875 -21.01819 -2.84902 18.437 11.75)"><stop offset=".707" stop-color="#878CCC" stop-opacity="0"/><stop offset=".897" stop-color="#878CCC"/></radialGradient><radialGradient id="ac" cx="0" cy="0" r="1" gradientUnits="userSpaceOnUse" gradientTransform="matrix(-2.262 16.6875 -21.01819 -2.84902 18.437 11.75)"><stop offset=".846" stop-color="#878CCC" stop-opacity="0"/><stop offset=".917" stop-color="#878CCC"/></radialGradient><radialGradient id="ad" cx="0" cy="0" r="1" gradientUnits="userSpaceOnUse" gradientTransform="matrix(-.0625 1.8125 -4.48662 -.1547 19.062 12.375)"><stop stop-color="#6ACB81"/><stop offset="1" stop-color="#6ACB81" stop-opacity="0"/></radialGradient><radialGradient id="ae" cx="0" cy="0" r="1" gradientUnits="userSpaceOnUse" gradientTransform="matrix(-12.25017 19.62494 -15.28115 -9.53871 15.5 2.875)"><stop stop-color="#50EA83"/><stop offset=".383" stop-color="#50EA83" stop-opacity="0"/></radialGradient><radialGradient id="ag" cx="0" cy="0" r="1" gradientUnits="userSpaceOnUse" gradientTransform="rotate(78.811 1.847 11.48) scale(12.1121 20.0733)"><stop stop-color="#5DF89D"/><stop offset="1" stop-color="#5DF89D" stop-opacity="0"/></radialGradient><radialGradient id="ai" cx="0" cy="0" r="1" gradientUnits="userSpaceOnUse" gradientTransform="matrix(-3.97973 .8264 -1.22989 -5.92277 26.034 17.877)"><stop stop-color="#5FFD95"/><stop offset="1" stop-color="#5FFD95" stop-opacity="0"/></radialGradient><radialGradient id="at" cx="0" cy="0" r="1" gradientUnits="userSpaceOnUse" gradientTransform="matrix(-1.6445 .93284 -.88644 -1.5627 21.531 19.031)"><stop stop-color="#B3E9FF"/><stop offset="1" stop-color="#A3D0FF"/></radialGradient><radialGradient id="au" cx="0" cy="0" r="1" gradientUnits="userSpaceOnUse" gradientTransform="matrix(-1.245 .72501 -.68895 -1.18307 16.906 20.125)"><stop stop-color="#B3E9FF"/><stop offset="1" stop-color="#A3D0FF"/></radialGradient><radialGradient id="av" cx="0" cy="0" r="1" gradientUnits="userSpaceOnUse" gradientTransform="rotate(146.244 6.627 11.003) scale(1.51397 1.43866)"><stop stop-color="#B3E9FF"/><stop offset="1" stop-color="#A3D0FF"/></radialGradient><radialGradient id="ax" cx="0" cy="0" r="1" gradientUnits="userSpaceOnUse" gradientTransform="rotate(155.574 4.27 6.078) scale(.97817 .92952)"><stop stop-color="#B3E9FF"/><stop offset="1" stop-color="#B0D7FF"/></radialGradient><filter id="a" x="2" y="8.17" width="5.541" height="2.591" filterUnits="userSpaceOnUse" color-interpolation-filters="sRGB"><feFlood flood-opacity="0" result="BackgroundImageFix"/><feBlend in="SourceGraphic" in2="BackgroundImageFix" result="shape"/><feColorMatrix in="SourceAlpha" values="0 0 0 0 0 0 0 0 0 0 0 0 0 0 0 0 0 0 127 0" result="hardAlpha"/><feOffset dx=".1" dy=".1"/><feGaussianBlur stdDeviation=".175"/><feComposite in2="hardAlpha" operator="arithmetic" k2="-1" k3="1"/><feColorMatrix values="0 0 0 0 0.517647 0 0 0 0 0.835294 0 0 0 0 0.615686 0 0 0 1 0"/><feBlend in2="shape" result="effect1_innerShadow_28327_6963"/></filter><filter id="e" x="2.431" y="14.221" width="5.439" height="3.209" filterUnits="userSpaceOnUse" color-interpolation-filters="sRGB"><feFlood flood-opacity="0" result="BackgroundImageFix"/><feBlend in="SourceGraphic" in2="BackgroundImageFix" result="shape"/><feColorMatrix in="SourceAlpha" values="0 0 0 0 0 0 0 0 0 0 0 0 0 0 0 0 0 0 127 0" result="hardAlpha"/><feOffset dx=".1" dy=".1"/><feGaussianBlur stdDeviation=".175"/><feComposite in2="hardAlpha" operator="arithmetic" k2="-1" k3="1"/><feColorMatrix values="0 0 0 0 0.528889 0 0 0 0 0.933333 0 0 0 0 0.653717 0 0 0 1 0"/><feBlend in2="shape" result="effect1_innerShadow_28327_6963"/></filter><filter id="j" x="5.439" y="18.823" width="4.752" height="4.429" filterUnits="userSpaceOnUse" color-interpolation-filters="sRGB"><feFlood flood-opacity="0" result="BackgroundImageFix"/><feBlend in="SourceGraphic" in2="BackgroundImageFix" result="shape"/><feColorMatrix in="SourceAlpha" values="0 0 0 0 0 0 0 0 0 0 0 0 0 0 0 0 0 0 127 0" result="hardAlpha"/><feOffset dx=".1" dy=".1"/><feGaussianBlur stdDeviation=".175"/><feComposite in2="hardAlpha" operator="arithmetic" k2="-1" k3="1"/><feColorMatrix values="0 0 0 0 0.528889 0 0 0 0 0.933333 0 0 0 0 0.653717 0 0 0 1 0"/><feBlend in2="shape" result="effect1_innerShadow_28327_6963"/></filter><filter id="o" x="10.58" y="22.51" width="3.92" height="5.12" filterUnits="userSpaceOnUse" color-interpolation-filters="sRGB"><feFlood flood-opacity="0" result="BackgroundImageFix"/><feBlend in="SourceGraphic" in2="BackgroundImageFix" result="shape"/><feColorMatrix in="SourceAlpha" values="0 0 0 0 0 0 0 0 0 0 0 0 0 0 0 0 0 0 127 0" result="hardAlpha"/><feOffset dx=".1" dy=".1"/><feGaussianBlur stdDeviation=".175"/><feComposite in2="hardAlpha" operator="arithmetic" k2="-1" k3="1"/><feColorMatrix values="0 0 0 0 0.528889 0 0 0 0 0.933333 0 0 0 0 0.653717 0 0 0 1 0"/><feBlend in2="shape" result="effect1_innerShadow_28327_6963"/></filter><filter id="t" x="18.285" y="23.616" width="2.28" height="5.56" filterUnits="userSpaceOnUse" color-interpolation-filters="sRGB"><feFlood flood-opacity="0" result="BackgroundImageFix"/><feBlend in="SourceGraphic" in2="BackgroundImageFix" result="shape"/><feColorMatrix in="SourceAlpha" values="0 0 0 0 0 0 0 0 0 0 0 0 0 0 0 0 0 0 127 0" result="hardAlpha"/><feOffset dx=".1" dy=".1"/><feGaussianBlur stdDeviation=".175"/><feComposite in2="hardAlpha" operator="arithmetic" k2="-1" k3="1"/><feColorMatrix values="0 0 0 0 0.528889 0 0 0 0 0.933333 0 0 0 0 0.653717 0 0 0 1 0"/><feBlend in2="shape" result="effect1_innerShadow_28327_6963"/></filter><filter id="x" x="23.625" y="21.535" width="4.615" height="4.615" filterUnits="userSpaceOnUse" color-interpolation-filters="sRGB"><feFlood flood-opacity="0" result="BackgroundImageFix"/><feBlend in="SourceGraphic" in2="BackgroundImageFix" result="shape"/><feColorMatrix in="SourceAlpha" values="0 0 0 0 0 0 0 0 0 0 0 0 0 0 0 0 0 0 127 0" result="hardAlpha"/><feOffset dx=".1" dy=".1"/><feGaussianBlur stdDeviation=".175"/><feComposite in2="hardAlpha" operator="arithmetic" k2="-1" k3="1"/><feColorMatrix values="0 0 0 0 0.517647 0 0 0 0 0.835294 0 0 0 0 0.615686 0 0 0 1 0"/><feBlend in2="shape" result="effect1_innerShadow_28327_6963"/></filter><filter id="C" x="24.661" y="15.341" width="5.439" height="3.213" filterUnits="userSpaceOnUse" color-interpolation-filters="sRGB"><feFlood flood-opacity="0" result="BackgroundImageFix"/><feBlend in="SourceGraphic" in2="BackgroundImageFix" result="shape"/><feColorMatrix in="SourceAlpha" values="0 0 0 0 0 0 0 0 0 0 0 0 0 0 0 0 0 0 127 0" result="hardAlpha"/><feOffset dx=".1" dy=".1"/><feGaussianBlur stdDeviation=".175"/><feComposite in2="hardAlpha" operator="arithmetic" k2="-1" k3="1"/><feColorMatrix values="0 0 0 0 0.517647 0 0 0 0 0.835294 0 0 0 0 0.615686 0 0 0 1 0"/><feBlend in2="shape" result="effect1_innerShadow_28327_6963"/></filter><filter id="H" x="21.105" y="10.445" width="3.07" height="5.464" filterUnits="userSpaceOnUse" color-interpolation-filters="sRGB"><feFlood flood-opacity="0" result="BackgroundImageFix"/><feBlend in="SourceGraphic" in2="BackgroundImageFix" result="shape"/><feColorMatrix in="SourceAlpha" values="0 0 0 0 0 0 0 0 0 0 0 0 0 0 0 0 0 0 127 0" result="hardAlpha"/><feOffset dx=".1" dy=".1"/><feGaussianBlur stdDeviation=".175"/><feComposite in2="hardAlpha" operator="arithmetic" k2="-1" k3="1"/><feColorMatrix values="0 0 0 0 0.517647 0 0 0 0 0.835294 0 0 0 0 0.615686 0 0 0 1 0"/><feBlend in2="shape" result="effect1_innerShadow_28327_6963"/></filter><filter id="M" x="13.849" y="10.189" width="4.752" height="4.429" filterUnits="userSpaceOnUse" color-interpolation-filters="sRGB"><feFlood flood-opacity="0" result="BackgroundImageFix"/><feBlend in="SourceGraphic" in2="BackgroundImageFix" result="shape"/><feColorMatrix in="SourceAlpha" values="0 0 0 0 0 0 0 0 0 0 0 0 0 0 0 0 0 0 127 0" result="hardAlpha"/><feOffset dx=".1" dy=".1"/><feGaussianBlur stdDeviation=".175"/><feComposite in2="hardAlpha" operator="arithmetic" k2="-1" k3="1"/><feColorMatrix values="0 0 0 0 0.517647 0 0 0 0 0.835294 0 0 0 0 0.615686 0 0 0 1 0"/><feBlend in2="shape" result="effect1_innerShadow_28327_6963"/></filter><filter id="R" x="11.76" y="4.98" width="5.12" height="3.92" filterUnits="userSpaceOnUse" color-interpolation-filters="sRGB"><feFlood flood-opacity="0" result="BackgroundImageFix"/><feBlend in="SourceGraphic" in2="BackgroundImageFix" result="shape"/><feColorMatrix in="SourceAlpha" values="0 0 0 0 0 0 0 0 0 0 0 0 0 0 0 0 0 0 127 0" result="hardAlpha"/><feOffset dx=".1" dy=".1"/><feGaussianBlur stdDeviation=".175"/><feComposite in2="hardAlpha" operator="arithmetic" k2="-1" k3="1"/><feColorMatrix values="0 0 0 0 0.517647 0 0 0 0 0.835294 0 0 0 0 0.615686 0 0 0 1 0"/><feBlend in2="shape" result="effect1_innerShadow_28327_6963"/></filter><filter id="W" x="7.28" y="2" width="2.981" height="5.501" filterUnits="userSpaceOnUse" color-interpolation-filters="sRGB"><feFlood flood-opacity="0" result="BackgroundImageFix"/><feBlend in="SourceGraphic" in2="BackgroundImageFix" result="shape"/><feColorMatrix in="SourceAlpha" values="0 0 0 0 0 0 0 0 0 0 0 0 0 0 0 0 0 0 127 0" result="hardAlpha"/><feOffset dx=".1" dy=".1"/><feGaussianBlur stdDeviation=".175"/><feComposite in2="hardAlpha" operator="arithmetic" k2="-1" k3="1"/><feColorMatrix values="0 0 0 0 0.517647 0 0 0 0 0.835294 0 0 0 0 0.615686 0 0 0 1 0"/><feBlend in2="shape" result="effect1_innerShadow_28327_6963"/></filter><filter id="af" x="7.982" y="5.432" width="9.413" height="13.441" filterUnits="userSpaceOnUse" color-interpolation-filters="sRGB"><feFlood flood-opacity="0" result="BackgroundImageFix"/><feBlend in="SourceGraphic" in2="BackgroundImageFix" result="shape"/><feGaussianBlur stdDeviation="1" result="effect1_foregroundBlur_28327_6963"/></filter><filter id="ah" x="19.762" y="14.028" width="8.467" height="9.352" filterUnits="userSpaceOnUse" color-interpolation-filters="sRGB"><feFlood flood-opacity="0" result="BackgroundImageFix"/><feBlend in="SourceGraphic" in2="BackgroundImageFix" result="shape"/><feGaussianBlur stdDeviation=".5" result="effect1_foregroundBlur_28327_6963"/></filter><filter id="aj" x="8.814" y="8.255" width="3.18" height="3.18" filterUnits="userSpaceOnUse" color-interpolation-filters="sRGB"><feFlood flood-opacity="0" result="BackgroundImageFix"/><feBlend in="SourceGraphic" in2="BackgroundImageFix" result="shape"/><feGaussianBlur stdDeviation=".25" result="effect1_foregroundBlur_28327_6963"/></filter><filter id="ak" x="15.449" y="15.604" width="3.18" height="3.18" filterUnits="userSpaceOnUse" color-interpolation-filters="sRGB"><feFlood flood-opacity="0" result="BackgroundImageFix"/><feBlend in="SourceGraphic" in2="BackgroundImageFix" result="shape"/><feGaussianBlur stdDeviation=".25" result="effect1_foregroundBlur_28327_6963"/></filter><filter id="am" x="14.234" y="19.273" width="3.18" height="3.18" filterUnits="userSpaceOnUse" color-interpolation-filters="sRGB"><feFlood flood-opacity="0" result="BackgroundImageFix"/><feBlend in="SourceGraphic" in2="BackgroundImageFix" result="shape"/><feGaussianBlur stdDeviation=".25" result="effect1_foregroundBlur_28327_6963"/></filter><filter id="ao" x="18.025" y="17.446" width="4.661" height="4.653" filterUnits="userSpaceOnUse" color-interpolation-filters="sRGB"><feFlood flood-opacity="0" result="BackgroundImageFix"/><feBlend in="SourceGraphic" in2="BackgroundImageFix" result="shape"/><feGaussianBlur stdDeviation=".25" result="effect1_foregroundBlur_28327_6963"/></filter><filter id="aq" x="18.858" y="17.216" width="4.22" height="4.22" filterUnits="userSpaceOnUse" color-interpolation-filters="sRGB"><feFlood flood-opacity="0" result="BackgroundImageFix"/><feBlend in="SourceGraphic" in2="BackgroundImageFix" result="shape"/><feGaussianBlur stdDeviation=".25" result="effect1_foregroundBlur_28327_6963"/></filter><filter id="ar" x="16.187" y="15.31" width="3.081" height="3.081" filterUnits="userSpaceOnUse" color-interpolation-filters="sRGB"><feFlood flood-opacity="0" result="BackgroundImageFix"/><feBlend in="SourceGraphic" in2="BackgroundImageFix" result="shape"/><feGaussianBlur stdDeviation=".25" result="effect1_foregroundBlur_28327_6963"/></filter><filter id="as" x="14.885" y="18.826" width="3.081" height="3.081" filterUnits="userSpaceOnUse" color-interpolation-filters="sRGB"><feFlood flood-opacity="0" result="BackgroundImageFix"/><feBlend in="SourceGraphic" in2="BackgroundImageFix" result="shape"/><feGaussianBlur stdDeviation=".25" result="effect1_foregroundBlur_28327_6963"/></filter><filter id="aw" x="8.392" y="8.427" width="3.18" height="3.18" filterUnits="userSpaceOnUse" color-interpolation-filters="sRGB"><feFlood flood-opacity="0" result="BackgroundImageFix"/><feBlend in="SourceGraphic" in2="BackgroundImageFix" result="shape"/><feGaussianBlur stdDeviation=".25" result="effect1_foregroundBlur_28327_6963"/></filter><filter id="ay" x="3.6" y="5.334" width="10.038" height="19.781" filterUnits="userSpaceOnUse" color-interpolation-filters="sRGB"><feFlood flood-opacity="0" result="BackgroundImageFix"/><feBlend in="SourceGraphic" in2="BackgroundImageFix" result="shape"/><feGaussianBlur stdDeviation=".75" result="effect1_foregroundBlur_28327_6963"/></filter><linearGradient id="c" x1="3.969" y1="10.875" x2="4.187" y2="9.188" gradientUnits="userSpaceOnUse"><stop stop-color="#62879A"/><stop offset="1" stop-color="#62879A" stop-opacity="0"/></linearGradient><linearGradient id="i" x1="6.312" y1="16.594" x2="4.401" y2="16.638" gradientUnits="userSpaceOnUse"><stop stop-color="#296C7C"/><stop offset="1" stop-color="#296C7C" stop-opacity="0"/></linearGradient><linearGradient id="n" x1="9.031" y1="21.531" x2="7.484" y2="22.644" gradientUnits="userSpaceOnUse"><stop stop-color="#296C7C"/><stop offset="1" stop-color="#296C7C" stop-opacity="0"/></linearGradient><linearGradient id="s" x1="12.656" y1="24.781" x2="11.64" y2="26.656" gradientUnits="userSpaceOnUse"><stop stop-color="#296C7C"/><stop offset="1" stop-color="#296C7C" stop-opacity="0"/></linearGradient><linearGradient id="v" x1="19.187" y1="26.346" x2="19.375" y2="27.844" gradientUnits="userSpaceOnUse"><stop stop-color="#296C7C"/><stop offset="1" stop-color="#296C7C" stop-opacity="0"/></linearGradient><linearGradient id="B" x1="25.469" y1="25.297" x2="26.48" y2="23.808" gradientUnits="userSpaceOnUse"><stop stop-color="#559598"/><stop offset=".509" stop-color="#559598" stop-opacity="0"/></linearGradient><linearGradient id="G" x1="28.719" y1="17.735" x2="28.547" y2="17.11" gradientUnits="userSpaceOnUse"><stop stop-color="#559598"/><stop offset="1" stop-color="#559598" stop-opacity="0"/></linearGradient><linearGradient id="J" x1="23.336" y1="14.268" x2="22.806" y2="13.833" gradientUnits="userSpaceOnUse"><stop offset=".217" stop-color="#209858"/><stop offset="1" stop-color="#209858" stop-opacity="0"/></linearGradient><linearGradient id="O" x1="17.344" y1="13.275" x2="16.951" y2="12.649" gradientUnits="userSpaceOnUse"><stop offset=".217" stop-color="#209858"/><stop offset="1" stop-color="#209858" stop-opacity="0"/></linearGradient><linearGradient id="T" x1="15.531" y1="7.703" x2="15.219" y2="7.094" gradientUnits="userSpaceOnUse"><stop offset=".217" stop-color="#209858"/><stop offset="1" stop-color="#209858" stop-opacity="0"/></linearGradient><linearGradient id="X" x1="9.828" y1="4.297" x2="9.062" y2="4.359" gradientUnits="userSpaceOnUse"><stop stop-color="#60CD8C"/><stop offset="1" stop-color="#60CD8C" stop-opacity="0"/></linearGradient><linearGradient id="al" x1="17.297" y1="16.906" x2="15.14" y2="17.639" gradientUnits="userSpaceOnUse"><stop stop-color="#30B27E"/><stop offset="1" stop-color="#30B27E" stop-opacity="0"/></linearGradient><linearGradient id="an" x1="16.14" y1="20.484" x2="14.123" y2="22.623" gradientUnits="userSpaceOnUse"><stop stop-color="#45A29B"/><stop offset="1" stop-color="#45A29B" stop-opacity="0"/></linearGradient><linearGradient id="ap" x1="19.984" y1="20" x2="18.219" y2="21.75" gradientUnits="userSpaceOnUse"><stop stop-color="#30B27E"/><stop offset="1" stop-color="#30B27E" stop-opacity="0"/></linearGradient><linearGradient id="az" x1="6.638" y1="3.834" x2="12.951" y2="24.459" gradientUnits="userSpaceOnUse"><stop stop-color="#85E09F"/><stop offset="1" stop-color="#85E09F" stop-opacity="0"/></linearGradient></defs></svg>