<svg width="32" height="32" fill="none" xmlns="http://www.w3.org/2000/svg"><g filter="url(#a)"><path d="M12.645 4.371a2.39 2.39 0 0 1 4.78 0v7.588a2.391 2.391 0 0 1 4.242 1.146 2.39 2.39 0 0 1 4.119 2.07l-.29 2.853c-.117 1.242-.84 6.047-2.527 7.937-1.825 2.456-4.576 3.992-7.645 3.992A8.353 8.353 0 0 1 7.03 22.59l-.784-4.458a2.28 2.28 0 0 1 2.6-2.835 2.602 2.602 0 0 1 3.798-3.11V4.371Z" fill="url(#b)"/><path d="M12.645 4.371a2.39 2.39 0 0 1 4.78 0v7.588a2.391 2.391 0 0 1 4.242 1.146 2.39 2.39 0 0 1 4.119 2.07l-.29 2.853c-.117 1.242-.84 6.047-2.527 7.937-1.825 2.456-4.576 3.992-7.645 3.992A8.353 8.353 0 0 1 7.03 22.59l-.784-4.458a2.28 2.28 0 0 1 2.6-2.835 2.602 2.602 0 0 1 3.798-3.11V4.371Z" fill="url(#c)"/><path d="M12.645 4.371a2.39 2.39 0 0 1 4.78 0v7.588a2.391 2.391 0 0 1 4.242 1.146 2.39 2.39 0 0 1 4.119 2.07l-.29 2.853c-.117 1.242-.84 6.047-2.527 7.937-1.825 2.456-4.576 3.992-7.645 3.992A8.353 8.353 0 0 1 7.03 22.59l-.784-4.458a2.28 2.28 0 0 1 2.6-2.835 2.602 2.602 0 0 1 3.798-3.11V4.371Z" fill="url(#d)"/><path d="M12.645 4.371a2.39 2.39 0 0 1 4.78 0v7.588a2.391 2.391 0 0 1 4.242 1.146 2.39 2.39 0 0 1 4.119 2.07l-.29 2.853c-.117 1.242-.84 6.047-2.527 7.937-1.825 2.456-4.576 3.992-7.645 3.992A8.353 8.353 0 0 1 7.03 22.59l-.784-4.458a2.28 2.28 0 0 1 2.6-2.835 2.602 2.602 0 0 1 3.798-3.11V4.371Z" fill="url(#e)"/><path d="M12.645 4.371a2.39 2.39 0 0 1 4.78 0v7.588a2.391 2.391 0 0 1 4.242 1.146 2.39 2.39 0 0 1 4.119 2.07l-.29 2.853c-.117 1.242-.84 6.047-2.527 7.937-1.825 2.456-4.576 3.992-7.645 3.992A8.353 8.353 0 0 1 7.03 22.59l-.784-4.458a2.28 2.28 0 0 1 2.6-2.835 2.602 2.602 0 0 1 3.798-3.11V4.371Z" fill="url(#f)"/><path d="M12.645 4.371a2.39 2.39 0 0 1 4.78 0v7.588a2.391 2.391 0 0 1 4.242 1.146 2.39 2.39 0 0 1 4.119 2.07l-.29 2.853c-.117 1.242-.84 6.047-2.527 7.937-1.825 2.456-4.576 3.992-7.645 3.992A8.353 8.353 0 0 1 7.03 22.59l-.784-4.458a2.28 2.28 0 0 1 2.6-2.835 2.602 2.602 0 0 1 3.798-3.11V4.371Z" fill="url(#g)"/><path d="M12.645 4.371a2.39 2.39 0 0 1 4.78 0v7.588a2.391 2.391 0 0 1 4.242 1.146 2.39 2.39 0 0 1 4.119 2.07l-.29 2.853c-.117 1.242-.84 6.047-2.527 7.937-1.825 2.456-4.576 3.992-7.645 3.992A8.353 8.353 0 0 1 7.03 22.59l-.784-4.458a2.28 2.28 0 0 1 2.6-2.835 2.602 2.602 0 0 1 3.798-3.11V4.371Z" fill="url(#h)"/><path d="M12.645 4.371a2.39 2.39 0 0 1 4.78 0v7.588a2.391 2.391 0 0 1 4.242 1.146 2.39 2.39 0 0 1 4.119 2.07l-.29 2.853c-.117 1.242-.84 6.047-2.527 7.937-1.825 2.456-4.576 3.992-7.645 3.992A8.353 8.353 0 0 1 7.03 22.59l-.784-4.458a2.28 2.28 0 0 1 2.6-2.835 2.602 2.602 0 0 1 3.798-3.11V4.371Z" fill="url(#i)"/><path d="M12.645 4.371a2.39 2.39 0 0 1 4.78 0v7.588a2.391 2.391 0 0 1 4.242 1.146 2.39 2.39 0 0 1 4.119 2.07l-.29 2.853c-.117 1.242-.84 6.047-2.527 7.937-1.825 2.456-4.576 3.992-7.645 3.992A8.353 8.353 0 0 1 7.03 22.59l-.784-4.458a2.28 2.28 0 0 1 2.6-2.835 2.602 2.602 0 0 1 3.798-3.11V4.371Z" fill="url(#j)"/></g><path d="M12.645 4.371a2.39 2.39 0 0 1 4.78 0v7.588a2.391 2.391 0 0 1 4.242 1.146 2.39 2.39 0 0 1 4.119 2.07l-.29 2.853c-.117 1.242-.84 6.047-2.527 7.937-1.825 2.456-4.576 3.992-7.645 3.992A8.353 8.353 0 0 1 7.03 22.59l-.784-4.458a2.28 2.28 0 0 1 2.6-2.835 2.602 2.602 0 0 1 3.798-3.11V4.371Z" fill="url(#k)"/><path d="M12.645 4.371a2.39 2.39 0 0 1 4.78 0v7.588a2.391 2.391 0 0 1 4.242 1.146 2.39 2.39 0 0 1 4.119 2.07l-.29 2.853c-.117 1.242-.84 6.047-2.527 7.937-1.825 2.456-4.576 3.992-7.645 3.992A8.353 8.353 0 0 1 7.03 22.59l-.784-4.458a2.28 2.28 0 0 1 2.6-2.835 2.602 2.602 0 0 1 3.798-3.11V4.371Z" fill="url(#l)"/><rect x="12.648" y="1.981" width="4.781" height="14.813" rx="2.391" fill="url(#m)"/><rect x="12.648" y="1.981" width="4.781" height="14.813" rx="2.391" fill="url(#n)"/><rect x="12.648" y="1.981" width="4.781" height="14.813" rx="2.391" fill="url(#o)"/><rect x="12.648" y="1.981" width="4.781" height="14.813" rx="2.391" fill="url(#p)"/><rect x="12.648" y="1.981" width="4.781" height="14.813" rx="2.391" fill="url(#q)"/><g filter="url(#r)"><path d="M24.048 14.906c-.046 1.014-.215 3.149-.695 5.676-.48 2.529-1.362 4.194-1.744 4.711" stroke="url(#s)" stroke-width="1.5" stroke-linecap="round"/></g><g filter="url(#t)"><path d="M16 4.127v10.05" stroke="url(#u)" stroke-width="1.25" stroke-linecap="round"/></g><g filter="url(#v)"><path d="m15.28 16 2.222-2.735" stroke="url(#w)" stroke-width=".5" stroke-linecap="round"/></g><g filter="url(#x)"><path d="m14.87 16-2.222-2.735" stroke="url(#y)" stroke-width=".5" stroke-linecap="round"/></g><defs><radialGradient id="b" cx="0" cy="0" r="1" gradientUnits="userSpaceOnUse" gradientTransform="rotate(130.4 8.806 12.704) scale(19.2866 13.5561)"><stop stop-color="#F1BA9A"/><stop offset="1" stop-color="#DEA492"/></radialGradient><radialGradient id="c" cx="0" cy="0" r="1" gradientUnits="userSpaceOnUse" gradientTransform="matrix(1.21984 2.8015 -2.42064 1.054 8.749 13.46)"><stop stop-color="#CA9977"/><stop offset="1" stop-color="#CA9977" stop-opacity="0"/></radialGradient><radialGradient id="d" cx="0" cy="0" r="1" gradientUnits="userSpaceOnUse" gradientTransform="matrix(.2806 2.65005 -2.93551 .31082 7.512 15.167)"><stop stop-color="#BF8867"/><stop offset="1" stop-color="#BF8867" stop-opacity="0"/></radialGradient><radialGradient id="e" cx="0" cy="0" r="1" gradientUnits="userSpaceOnUse" gradientTransform="rotate(-56.31 20.129 -10.9) scale(1.88757 1.05297)"><stop stop-color="#CF966C"/><stop offset="1" stop-color="#CF966C" stop-opacity="0"/></radialGradient><radialGradient id="f" cx="0" cy="0" r="1" gradientUnits="userSpaceOnUse" gradientTransform="rotate(133.299 9.01 10.904) scale(2.23279 1.21415)"><stop stop-color="#D6A37C"/><stop offset="1" stop-color="#D6A37C" stop-opacity="0"/></radialGradient><radialGradient id="g" cx="0" cy="0" r="1" gradientUnits="userSpaceOnUse" gradientTransform="rotate(130.957 9.912 12.476) scale(2.93794 3.62296)"><stop stop-color="#F4C69D"/><stop offset="1" stop-color="#F4C69D" stop-opacity="0"/></radialGradient><radialGradient id="h" cx="0" cy="0" r="1" gradientUnits="userSpaceOnUse" gradientTransform="matrix(-.95712 2.1193 -1.60697 -.72574 20.544 12.548)"><stop stop-color="#FECCA5"/><stop offset="1" stop-color="#FECCA5" stop-opacity="0"/></radialGradient><radialGradient id="i" cx="0" cy="0" r="1" gradientUnits="userSpaceOnUse" gradientTransform="rotate(46.202 -13.83 17.72) scale(1.58029 .60823)"><stop stop-color="#BE8562"/><stop offset="1" stop-color="#BE8562" stop-opacity="0"/></radialGradient><radialGradient id="j" cx="0" cy="0" r="1" gradientUnits="userSpaceOnUse" gradientTransform="matrix(.85937 2.34375 -1.4916 .54692 12.39 11.75)"><stop stop-color="#B37C5B"/><stop offset="1" stop-color="#B37C5B" stop-opacity="0"/></radialGradient><radialGradient id="k" cx="0" cy="0" r="1" gradientUnits="userSpaceOnUse" gradientTransform="matrix(-18.56652 4.0743 -6.61005 -30.12186 25.541 19.046)"><stop offset=".866" stop-color="#CD917E" stop-opacity="0"/><stop offset="1" stop-color="#CD917E"/></radialGradient><radialGradient id="l" cx="0" cy="0" r="1" gradientUnits="userSpaceOnUse" gradientTransform="matrix(-18.34738 4.08297 -6.6241 -29.76625 25.541 19.046)"><stop offset=".976" stop-color="#DC9F89" stop-opacity="0"/><stop offset="1" stop-color="#DC9F89"/></radialGradient><radialGradient id="q" cx="0" cy="0" r="1" gradientUnits="userSpaceOnUse" gradientTransform="matrix(.87792 2.66303 -4.99485 1.64666 13.84 1.586)"><stop stop-color="#C79A79"/><stop offset="1" stop-color="#C79A79" stop-opacity="0"/></radialGradient><linearGradient id="m" x1="13.092" y1="9.749" x2="15.793" y2="9.749" gradientUnits="userSpaceOnUse"><stop stop-color="#CF967C"/><stop offset="1" stop-color="#CF967C" stop-opacity="0"/></linearGradient><linearGradient id="n" x1="18.889" y1="10.752" x2="15.27" y2="11.319" gradientUnits="userSpaceOnUse"><stop stop-color="#F2C29C"/><stop offset="1" stop-color="#F2C29C" stop-opacity="0"/></linearGradient><linearGradient id="o" x1="14.733" y1="14.257" x2="13.759" y2="15.59" gradientUnits="userSpaceOnUse"><stop stop-color="#E4AB95" stop-opacity="0"/><stop offset="1" stop-color="#E4AB95"/></linearGradient><linearGradient id="p" x1="15.314" y1="14.564" x2="17.057" y2="15.829" gradientUnits="userSpaceOnUse"><stop stop-color="#E9B197" stop-opacity="0"/><stop offset="1" stop-color="#E9B197"/></linearGradient><linearGradient id="s" x1="24.565" y1="14.233" x2="20.575" y2="30.023" gradientUnits="userSpaceOnUse"><stop stop-color="#FFD0AA"/><stop offset="1" stop-color="#FFD0AA" stop-opacity="0"/></linearGradient><linearGradient id="u" x1="17.212" y1="3.263" x2="9.854" y2="15.365" gradientUnits="userSpaceOnUse"><stop stop-color="#FECDA8"/><stop offset="1" stop-color="#FECDA8" stop-opacity="0"/></linearGradient><linearGradient id="w" x1="17.974" y1="13.216" x2="17.68" y2="17.424" gradientUnits="userSpaceOnUse"><stop stop-color="#FFCEAA"/><stop offset="1" stop-color="#FFCEAA" stop-opacity="0"/></linearGradient><linearGradient id="y" x1="11.656" y1="12.844" x2="11.966" y2="16.588" gradientUnits="userSpaceOnUse"><stop stop-color="#BA815E"/><stop offset="1" stop-color="#BA815E" stop-opacity="0"/></linearGradient><filter id="a" x="6.168" y=".981" width="19.914" height="28.977" filterUnits="userSpaceOnUse" color-interpolation-filters="sRGB"><feFlood flood-opacity="0" result="BackgroundImageFix"/><feBlend in="SourceGraphic" in2="BackgroundImageFix" result="shape"/><feColorMatrix in="SourceAlpha" values="0 0 0 0 0 0 0 0 0 0 0 0 0 0 0 0 0 0 127 0" result="hardAlpha"/><feOffset dx=".25" dy="-1"/><feGaussianBlur stdDeviation=".75"/><feComposite in2="hardAlpha" operator="arithmetic" k2="-1" k3="1"/><feColorMatrix values="0 0 0 0 0.717647 0 0 0 0 0.443137 0 0 0 0 0.572549 0 0 0 1 0"/><feBlend in2="shape" result="effect1_innerShadow_20020_5380"/></filter><filter id="r" x="18.359" y="11.656" width="8.938" height="16.887" filterUnits="userSpaceOnUse" color-interpolation-filters="sRGB"><feFlood flood-opacity="0" result="BackgroundImageFix"/><feBlend in="SourceGraphic" in2="BackgroundImageFix" result="shape"/><feGaussianBlur stdDeviation="1.25" result="effect1_foregroundBlur_20020_5380"/></filter><filter id="t" x="14.125" y="2.252" width="3.75" height="13.8" filterUnits="userSpaceOnUse" color-interpolation-filters="sRGB"><feFlood flood-opacity="0" result="BackgroundImageFix"/><feBlend in="SourceGraphic" in2="BackgroundImageFix" result="shape"/><feGaussianBlur stdDeviation=".625" result="effect1_foregroundBlur_20020_5380"/></filter><filter id="v" x="14.28" y="12.265" width="4.222" height="4.735" filterUnits="userSpaceOnUse" color-interpolation-filters="sRGB"><feFlood flood-opacity="0" result="BackgroundImageFix"/><feBlend in="SourceGraphic" in2="BackgroundImageFix" result="shape"/><feGaussianBlur stdDeviation=".375" result="effect1_foregroundBlur_20020_5380"/></filter><filter id="x" x="11.398" y="12.015" width="4.722" height="5.235" filterUnits="userSpaceOnUse" color-interpolation-filters="sRGB"><feFlood flood-opacity="0" result="BackgroundImageFix"/><feBlend in="SourceGraphic" in2="BackgroundImageFix" result="shape"/><feGaussianBlur stdDeviation=".5" result="effect1_foregroundBlur_20020_5380"/></filter></defs></svg>