<svg width="32" height="32" fill="none" xmlns="http://www.w3.org/2000/svg"><g filter="url(#a)"><path d="M26.023 6.531a.5.5 0 0 1 .5-.5h1.023a1.5 1.5 0 0 1 1.5 1.5v13.844a1.5 1.5 0 0 1-1.5 1.5h-1.023a.5.5 0 0 1-.5-.5V6.531Z" fill="url(#b)"/><path d="M26.023 6.531a.5.5 0 0 1 .5-.5h1.023a1.5 1.5 0 0 1 1.5 1.5v13.844a1.5 1.5 0 0 1-1.5 1.5h-1.023a.5.5 0 0 1-.5-.5V6.531Z" fill="url(#c)"/></g><path d="M26.023 6.531a.5.5 0 0 1 .5-.5h1.023a1.5 1.5 0 0 1 1.5 1.5v13.844a1.5 1.5 0 0 1-1.5 1.5h-1.023a.5.5 0 0 1-.5-.5V6.531Z" fill="url(#d)"/><g filter="url(#e)"><path d="M8.077 8.19a2 2 0 0 1 .585-1.968l3.218-2.957a4.5 4.5 0 0 1 3.045-1.187h7.348a3.75 3.75 0 0 1 3.75 3.75v20.078a4 4 0 0 1-4 4H6.968a3.25 3.25 0 0 1-3.25-3.25v-1.743c0-.585-.095-1.165-.28-1.72l-.068-.2a1.04 1.04 0 0 1 .36-1.162l.886-.668a3.332 3.332 0 0 0 1.126-1.526l2.77-7.648a3 3 0 0 0 .086-1.766l-.52-2.033Z" fill="url(#f)"/><path d="M8.077 8.19a2 2 0 0 1 .585-1.968l3.218-2.957a4.5 4.5 0 0 1 3.045-1.187h7.348a3.75 3.75 0 0 1 3.75 3.75v20.078a4 4 0 0 1-4 4H6.968a3.25 3.25 0 0 1-3.25-3.25v-1.743c0-.585-.095-1.165-.28-1.72l-.068-.2a1.04 1.04 0 0 1 .36-1.162l.886-.668a3.332 3.332 0 0 0 1.126-1.526l2.77-7.648a3 3 0 0 0 .086-1.766l-.52-2.033Z" fill="url(#g)"/></g><path d="M8.077 8.19a2 2 0 0 1 .585-1.968l3.218-2.957a4.5 4.5 0 0 1 3.045-1.187h7.348a3.75 3.75 0 0 1 3.75 3.75v20.078a4 4 0 0 1-4 4H6.968a3.25 3.25 0 0 1-3.25-3.25v-1.743c0-.585-.095-1.165-.28-1.72l-.068-.2a1.04 1.04 0 0 1 .36-1.162l.886-.668a3.332 3.332 0 0 0 1.126-1.526l2.77-7.648a3 3 0 0 0 .086-1.766l-.52-2.033Z" fill="url(#h)"/><path d="M8.077 8.19a2 2 0 0 1 .585-1.968l3.218-2.957a4.5 4.5 0 0 1 3.045-1.187h7.348a3.75 3.75 0 0 1 3.75 3.75v20.078a4 4 0 0 1-4 4H6.968a3.25 3.25 0 0 1-3.25-3.25v-1.743c0-.585-.095-1.165-.28-1.72l-.068-.2a1.04 1.04 0 0 1 .36-1.162l.886-.668a3.332 3.332 0 0 0 1.126-1.526l2.77-7.648a3 3 0 0 0 .086-1.766l-.52-2.033Z" fill="url(#i)"/><g filter="url(#j)"><path d="M3.981 24.969v-.056c0-.585-.092-1.165-.274-1.72l-.066-.2a1.058 1.058 0 0 1-.031-.118h10.46c.565 0 1.023.469 1.023 1.047s-.458 1.047-1.023 1.047H3.981Z" stroke="url(#k)" stroke-width=".25"/></g><g filter="url(#l)"><path d="M25.686 10.705V25.46a3.883 3.883 0 0 1-3.883 3.883h-7.29c.22-11.733 7.419-17.377 11.173-18.64Z" fill="url(#m)"/><path d="M25.686 10.705V25.46a3.883 3.883 0 0 1-3.883 3.883h-7.29c.22-11.733 7.419-17.377 11.173-18.64Z" fill="url(#n)"/></g><g filter="url(#o)"><path d="M3.718 24.969v-.056c0-.585-.095-1.165-.28-1.72l-.068-.2a1.038 1.038 0 0 1-.032-.118h10.708a1.047 1.047 0 1 1 0 2.094H3.718Z" fill="#737276"/></g><g filter="url(#p)"><path d="M8.346 6.984c-.141.38-.169.8-.066 1.206l.512 2.033c.084.332.11.674.08 1.011h10.082c1.156 0 2.092-.951 2.092-2.125 0-1.173-.936-2.125-2.092-2.125H8.346Z" stroke="url(#q)" stroke-width=".25"/></g><g filter="url(#r)"><path d="M8.145 6.984a2 2 0 0 0-.068 1.206l.521 2.033a3 3 0 0 1 .082 1.011H18.92a2.125 2.125 0 0 0 0-4.25H8.145Z" fill="#737276"/></g><path d="M8.145 6.984a2 2 0 0 0-.068 1.206l.521 2.033a3 3 0 0 1 .082 1.011H18.92a2.125 2.125 0 0 0 0-4.25H8.145Z" fill="url(#s)"/><g filter="url(#t)"><path d="m2.928 17.36 9.45-6.996a1.15 1.15 0 0 1 1.772 1.3l-2.56 7.404a1.5 1.5 0 0 1-1.418 1.01H3.825a1.507 1.507 0 0 1-.897-2.717Z" fill="#B6B4BB"/><path d="m2.928 17.36 9.45-6.996a1.15 1.15 0 0 1 1.772 1.3l-2.56 7.404a1.5 1.5 0 0 1-1.418 1.01H3.825a1.507 1.507 0 0 1-.897-2.717Z" fill="url(#u)"/><path d="m2.928 17.36 9.45-6.996a1.15 1.15 0 0 1 1.772 1.3l-2.56 7.404a1.5 1.5 0 0 1-1.418 1.01H3.825a1.507 1.507 0 0 1-.897-2.717Z" fill="url(#v)"/></g><g filter="url(#w)"><path d="m13.14 11.234-9.53 6.894" stroke="#C5C4C8" stroke-linecap="round"/></g><defs><linearGradient id="b" x1="27.534" y1="6.031" x2="27.534" y2="22.326" gradientUnits="userSpaceOnUse"><stop stop-color="#C4C3C7"/><stop offset="1" stop-color="#939198"/></linearGradient><linearGradient id="c" x1="27.534" y1="6.031" x2="27.534" y2="7.313" gradientUnits="userSpaceOnUse"><stop stop-color="#E1E0E2"/><stop offset="1" stop-color="#C8C7CB" stop-opacity="0"/></linearGradient><linearGradient id="d" x1="26.023" y1="16.471" x2="26.654" y2="16.471" gradientUnits="userSpaceOnUse"><stop stop-color="#525155"/><stop offset="1" stop-color="#7C7B7F" stop-opacity="0"/></linearGradient><linearGradient id="f" x1="14.669" y1="11.063" x2="14.669" y2="29.906" gradientUnits="userSpaceOnUse"><stop stop-color="#B3B1B9"/><stop offset="1" stop-color="#98959E"/></linearGradient><linearGradient id="k" x1="11.124" y1="24.969" x2="11.124" y2="22.656" gradientUnits="userSpaceOnUse"><stop stop-color="#A5A3A8"/><stop offset="1" stop-color="#5D556C"/></linearGradient><linearGradient id="m" x1="20.099" y1="10.705" x2="20.099" y2="27.372" gradientUnits="userSpaceOnUse"><stop stop-color="#7F798D"/><stop offset="1" stop-color="#929097"/></linearGradient><linearGradient id="q" x1="16.613" y1="11.234" x2="16.613" y2="6.54" gradientUnits="userSpaceOnUse"><stop stop-color="#BDBCC0"/><stop offset="1" stop-color="#898395"/></linearGradient><linearGradient id="s" x1="8.015" y1="10" x2="10.749" y2="9.531" gradientUnits="userSpaceOnUse"><stop stop-color="#8F8D94"/><stop offset="1" stop-color="#6D6B73" stop-opacity="0"/></linearGradient><linearGradient id="u" x1="6.068" y1="20.078" x2="6.068" y2="18.656" gradientUnits="userSpaceOnUse"><stop stop-color="#696179"/><stop offset="1" stop-color="#928E9C" stop-opacity="0"/></linearGradient><filter id="a" x="26.023" y="5.781" width="3.123" height="17.094" filterUnits="userSpaceOnUse" color-interpolation-filters="sRGB"><feFlood flood-opacity="0" result="BackgroundImageFix"/><feBlend in="SourceGraphic" in2="BackgroundImageFix" result="shape"/><feColorMatrix in="SourceAlpha" values="0 0 0 0 0 0 0 0 0 0 0 0 0 0 0 0 0 0 127 0" result="hardAlpha"/><feOffset dx=".1" dy="-.25"/><feGaussianBlur stdDeviation=".25"/><feComposite in2="hardAlpha" operator="arithmetic" k2="-1" k3="1"/><feColorMatrix values="0 0 0 0 0.356863 0 0 0 0 0.309804 0 0 0 0 0.447059 0 0 0 1 0"/><feBlend in2="shape" result="effect1_innerShadow_18_26730"/></filter><filter id="e" x="3.316" y="1.678" width="23.007" height="28.228" filterUnits="userSpaceOnUse" color-interpolation-filters="sRGB"><feFlood flood-opacity="0" result="BackgroundImageFix"/><feBlend in="SourceGraphic" in2="BackgroundImageFix" result="shape"/><feColorMatrix in="SourceAlpha" values="0 0 0 0 0 0 0 0 0 0 0 0 0 0 0 0 0 0 127 0" result="hardAlpha"/><feOffset dx=".3"/><feGaussianBlur stdDeviation=".3"/><feComposite in2="hardAlpha" operator="arithmetic" k2="-1" k3="1"/><feColorMatrix values="0 0 0 0 0.670588 0 0 0 0 0.666667 0 0 0 0 0.682353 0 0 0 1 0"/><feBlend in2="shape" result="effect1_innerShadow_18_26730"/><feColorMatrix in="SourceAlpha" values="0 0 0 0 0 0 0 0 0 0 0 0 0 0 0 0 0 0 127 0" result="hardAlpha"/><feOffset dy="-.4"/><feGaussianBlur stdDeviation=".3"/><feComposite in2="hardAlpha" operator="arithmetic" k2="-1" k3="1"/><feColorMatrix values="0 0 0 0 0.388235 0 0 0 0 0.333333 0 0 0 0 0.494118 0 0 0 1 0"/><feBlend in2="effect1_innerShadow_18_26730" result="effect2_innerShadow_18_26730"/></filter><filter id="j" x="3.307" y="22.6" width="12.061" height="2.644" filterUnits="userSpaceOnUse" color-interpolation-filters="sRGB"><feFlood flood-opacity="0" result="BackgroundImageFix"/><feBlend in="SourceGraphic" in2="BackgroundImageFix" result="shape"/><feGaussianBlur stdDeviation=".075" result="effect1_foregroundBlur_18_26730"/></filter><filter id="l" x="13.762" y="9.955" width="12.673" height="20.139" filterUnits="userSpaceOnUse" color-interpolation-filters="sRGB"><feFlood flood-opacity="0" result="BackgroundImageFix"/><feBlend in="SourceGraphic" in2="BackgroundImageFix" result="shape"/><feGaussianBlur stdDeviation=".375" result="effect1_foregroundBlur_18_26730"/></filter><filter id="o" x="3.338" y="22.875" width="11.755" height="3.094" filterUnits="userSpaceOnUse" color-interpolation-filters="sRGB"><feFlood flood-opacity="0" result="BackgroundImageFix"/><feBlend in="SourceGraphic" in2="BackgroundImageFix" result="shape"/><feColorMatrix in="SourceAlpha" values="0 0 0 0 0 0 0 0 0 0 0 0 0 0 0 0 0 0 127 0" result="hardAlpha"/><feOffset dy="1"/><feGaussianBlur stdDeviation=".5"/><feComposite in2="hardAlpha" operator="arithmetic" k2="-1" k3="1"/><feColorMatrix values="0 0 0 0 0.317647 0 0 0 0 0.301961 0 0 0 0 0.34902 0 0 0 1 0"/><feBlend in2="shape" result="effect1_innerShadow_18_26730"/></filter><filter id="p" x="7.943" y="6.709" width="13.378" height="4.8" filterUnits="userSpaceOnUse" color-interpolation-filters="sRGB"><feFlood flood-opacity="0" result="BackgroundImageFix"/><feBlend in="SourceGraphic" in2="BackgroundImageFix" result="shape"/><feGaussianBlur stdDeviation=".075" result="effect1_foregroundBlur_18_26730"/></filter><filter id="r" x="8.015" y="6.984" width="13.031" height="5.75" filterUnits="userSpaceOnUse" color-interpolation-filters="sRGB"><feFlood flood-opacity="0" result="BackgroundImageFix"/><feBlend in="SourceGraphic" in2="BackgroundImageFix" result="shape"/><feColorMatrix in="SourceAlpha" values="0 0 0 0 0 0 0 0 0 0 0 0 0 0 0 0 0 0 127 0" result="hardAlpha"/><feOffset dy="1.5"/><feGaussianBlur stdDeviation="1"/><feComposite in2="hardAlpha" operator="arithmetic" k2="-1" k3="1"/><feColorMatrix values="0 0 0 0 0.345098 0 0 0 0 0.337255 0 0 0 0 0.360784 0 0 0 1 0"/><feBlend in2="shape" result="effect1_innerShadow_18_26730"/></filter><filter id="t" x="2.318" y="10.138" width="12.396" height="10.14" filterUnits="userSpaceOnUse" color-interpolation-filters="sRGB"><feFlood flood-opacity="0" result="BackgroundImageFix"/><feBlend in="SourceGraphic" in2="BackgroundImageFix" result="shape"/><feColorMatrix in="SourceAlpha" values="0 0 0 0 0 0 0 0 0 0 0 0 0 0 0 0 0 0 127 0" result="hardAlpha"/><feOffset dx=".5" dy=".2"/><feGaussianBlur stdDeviation=".5"/><feComposite in2="hardAlpha" operator="arithmetic" k2="-1" k3="1"/><feColorMatrix values="0 0 0 0 0.541176 0 0 0 0 0.533333 0 0 0 0 0.560784 0 0 0 1 0"/><feBlend in2="shape" result="effect1_innerShadow_18_26730"/></filter><filter id="w" x="2.11" y="9.734" width="12.53" height="9.894" filterUnits="userSpaceOnUse" color-interpolation-filters="sRGB"><feFlood flood-opacity="0" result="BackgroundImageFix"/><feBlend in="SourceGraphic" in2="BackgroundImageFix" result="shape"/><feGaussianBlur stdDeviation=".5" result="effect1_foregroundBlur_18_26730"/></filter><radialGradient id="g" cx="0" cy="0" r="1" gradientUnits="userSpaceOnUse" gradientTransform="matrix(14.4863 -8.07811 4.21455 7.55785 14.67 2.078)"><stop offset=".66" stop-color="#D2D1D4"/><stop offset="1" stop-color="#D2D1D4" stop-opacity="0"/></radialGradient><radialGradient id="h" cx="0" cy="0" r="1" gradientUnits="userSpaceOnUse" gradientTransform="rotate(161.565 1.052 10.514) scale(6.62102 2.31572)"><stop offset=".294" stop-color="#54515D"/><stop offset="1" stop-color="#7F7E83" stop-opacity="0"/></radialGradient><radialGradient id="i" cx="0" cy="0" r="1" gradientUnits="userSpaceOnUse" gradientTransform="matrix(1.266 .4346 -2.2969 6.69096 12.54 15.11)"><stop offset=".583" stop-color="#AAA7B1"/><stop offset="1" stop-color="#AAA7B1" stop-opacity="0"/></radialGradient><radialGradient id="n" cx="0" cy="0" r="1" gradientUnits="userSpaceOnUse" gradientTransform="matrix(-3.3975 -5.67254 7.60008 -4.55198 23.024 29.344)"><stop stop-color="#99979E"/><stop offset="1" stop-color="#99979E" stop-opacity="0"/></radialGradient><radialGradient id="v" cx="0" cy="0" r="1" gradientUnits="userSpaceOnUse" gradientTransform="matrix(-2.165 6.29869 -3.20337 -1.10107 12.883 15.326)"><stop offset=".237" stop-color="#A9A7B0"/><stop offset="1" stop-color="#A9A7B0" stop-opacity="0"/></radialGradient></defs></svg>