<svg xmlns="http://www.w3.org/2000/svg" fill="none" viewBox="0 0 32 32"><g filter="url(#no-pedestrians_svg__a)"><path fill="url(#no-pedestrians_svg__b)" d="M25.282 22.225a10.84 10.84 0 0 0 2.05-6.35c0-6.03-4.91-10.94-10.94-10.93-2.368 0-4.56.762-6.35 2.05a.245.245 0 0 0-.028.373l14.895 14.885a.245.245 0 0 0 .373-.028"/><path fill="url(#no-pedestrians_svg__c)" d="M7.511 9.515a10.85 10.85 0 0 0-2.06 6.36c0 6.03 4.91 10.94 10.94 10.94 2.368 0 4.56-.772 6.359-2.06a.245.245 0 0 0 .028-.373L7.884 9.488a.245.245 0 0 0-.373.027"/></g><g fill="#504D52" filter="url(#no-pedestrians_svg__d)"><path d="M16.147 9.535a1.5 1.5 0 1 0 0-3 1.5 1.5 0 0 0 0 3M17.94 9.894a1 1 0 0 1 .754.195l2.895 2.218a1 1 0 0 1 .371.59l.508 2.428a1 1 0 0 1-1.958.41l-.432-2.065-.92-.706.41 3.025q.022.1.022.209v2.73l2.84 3.916a1 1 0 1 1-1.62 1.174l-3.03-4.178a1 1 0 0 1-.19-.587v-1.416l-1.473 1.777v4.6a1 1 0 1 1-2 0v-4.961a1 1 0 0 1 .23-.638l1.91-2.303-.228-2.573-.509 1.244a1 1 0 0 1-.76.608l-3.433.572A1 1 0 0 1 11 14.19l2.881-.48 1.185-2.897a1 1 0 0 1 .78-.61z"/></g><g filter="url(#no-pedestrians_svg__e)"><path fill="url(#no-pedestrians_svg__f)" d="M16.391 1.925c-7.69 0-13.95 6.26-13.95 13.95s6.26 13.95 13.95 13.95 13.95-6.25 13.95-13.95-6.25-13.95-13.95-13.95m10.94 13.95c0 2.367-.762 4.56-2.05 6.35a.245.245 0 0 1-.372.027L10.014 7.369a.245.245 0 0 1 .028-.373 10.84 10.84 0 0 1 6.35-2.05c6.03-.01 10.94 4.9 10.94 10.93m-21.88 0c0-2.377.772-4.57 2.06-6.36a.245.245 0 0 1 .373-.027l14.894 14.894a.245.245 0 0 1-.028.373 10.9 10.9 0 0 1-6.359 2.06c-6.03 0-10.94-4.91-10.94-10.94"/></g><defs><linearGradient id="no-pedestrians_svg__b" x1="22.441" x2="12.504" y1="7.675" y2="18.363" gradientUnits="userSpaceOnUse"><stop stop-color="#FFF7FF"/><stop offset="1" stop-color="#FBF2FF"/></linearGradient><linearGradient id="no-pedestrians_svg__c" x1="22.441" x2="12.504" y1="7.675" y2="18.363" gradientUnits="userSpaceOnUse"><stop stop-color="#FFF7FF"/><stop offset="1" stop-color="#FBF2FF"/></linearGradient><linearGradient id="no-pedestrians_svg__f" x1="28.816" x2="11.316" y1="15.875" y2="15.875" gradientUnits="userSpaceOnUse"><stop stop-color="#FF5075"/><stop offset="1" stop-color="#FF4B51"/></linearGradient><filter id="no-pedestrians_svg__a" width="22.18" height="22.17" x="5.151" y="4.945" color-interpolation-filters="sRGB" filterUnits="userSpaceOnUse"><feFlood flood-opacity="0" result="BackgroundImageFix"/><feBlend in="SourceGraphic" in2="BackgroundImageFix" result="shape"/><feColorMatrix in="SourceAlpha" result="hardAlpha" values="0 0 0 0 0 0 0 0 0 0 0 0 0 0 0 0 0 0 127 0"/><feOffset dx="-.3" dy=".3"/><feGaussianBlur stdDeviation=".3"/><feComposite in2="hardAlpha" k2="-1" k3="1" operator="arithmetic"/><feColorMatrix values="0 0 0 0 0.901961 0 0 0 0 0.819608 0 0 0 0 0.901961 0 0 0 1 0"/><feBlend in2="shape" result="effect1_innerShadow_18590_631"/></filter><filter id="no-pedestrians_svg__d" width="13.357" height="19.58" x="9.563" y="6.235" color-interpolation-filters="sRGB" filterUnits="userSpaceOnUse"><feFlood flood-opacity="0" result="BackgroundImageFix"/><feBlend in="SourceGraphic" in2="BackgroundImageFix" result="shape"/><feColorMatrix in="SourceAlpha" result="hardAlpha" values="0 0 0 0 0 0 0 0 0 0 0 0 0 0 0 0 0 0 127 0"/><feOffset dx="-.6" dy=".6"/><feGaussianBlur stdDeviation=".5"/><feComposite in2="hardAlpha" k2="-1" k3="1" operator="arithmetic"/><feColorMatrix values="0 0 0 0 0.219608 0 0 0 0 0.164706 0 0 0 0 0.239216 0 0 0 1 0"/><feBlend in2="shape" result="effect1_innerShadow_18590_631"/><feColorMatrix in="SourceAlpha" result="hardAlpha" values="0 0 0 0 0 0 0 0 0 0 0 0 0 0 0 0 0 0 127 0"/><feOffset dx=".3" dy="-.3"/><feGaussianBlur stdDeviation=".3"/><feComposite in2="hardAlpha" k2="-1" k3="1" operator="arithmetic"/><feColorMatrix values="0 0 0 0 0.360784 0 0 0 0 0.356863 0 0 0 0 0.364706 0 0 0 1 0"/><feBlend in2="effect1_innerShadow_18590_631" result="effect2_innerShadow_18590_631"/></filter><filter id="no-pedestrians_svg__e" width="28.6" height="28.6" x="2.141" y="1.525" color-interpolation-filters="sRGB" filterUnits="userSpaceOnUse"><feFlood flood-opacity="0" result="BackgroundImageFix"/><feBlend in="SourceGraphic" in2="BackgroundImageFix" result="shape"/><feColorMatrix in="SourceAlpha" result="hardAlpha" values="0 0 0 0 0 0 0 0 0 0 0 0 0 0 0 0 0 0 127 0"/><feOffset dy="-.4"/><feGaussianBlur stdDeviation=".2"/><feComposite in2="hardAlpha" k2="-1" k3="1" operator="arithmetic"/><feColorMatrix values="0 0 0 0 0.882353 0 0 0 0 0.113725 0 0 0 0 0.333333 0 0 0 1 0"/><feBlend in2="shape" result="effect1_innerShadow_18590_631"/><feColorMatrix in="SourceAlpha" result="hardAlpha" values="0 0 0 0 0 0 0 0 0 0 0 0 0 0 0 0 0 0 127 0"/><feOffset dx=".4"/><feGaussianBlur stdDeviation=".2"/><feComposite in2="hardAlpha" k2="-1" k3="1" operator="arithmetic"/><feColorMatrix values="0 0 0 0 0.827451 0 0 0 0 0.168627 0 0 0 0 0.172549 0 0 0 1 0"/><feBlend in2="effect1_innerShadow_18590_631" result="effect2_innerShadow_18590_631"/><feColorMatrix in="SourceAlpha" result="hardAlpha" values="0 0 0 0 0 0 0 0 0 0 0 0 0 0 0 0 0 0 127 0"/><feOffset dx="-.3" dy=".3"/><feGaussianBlur stdDeviation=".15"/><feComposite in2="hardAlpha" k2="-1" k3="1" operator="arithmetic"/><feColorMatrix values="0 0 0 0 1 0 0 0 0 0.458824 0 0 0 0 0.568627 0 0 0 1 0"/><feBlend in2="effect2_innerShadow_18590_631" result="effect3_innerShadow_18590_631"/></filter></defs></svg>