<svg width="32" height="32" fill="none" xmlns="http://www.w3.org/2000/svg"><g filter="url(#a)"><path d="M13.015 6.9a2.913 2.913 0 0 1 5.685 0l1.93 8.77c.227.82 1.018 1.373 1.837 1.43 2.133.148 3.806 1.792 3.806 3.898a3.812 3.812 0 0 1-3.972 3.81c-.97-.04-2.044.253-2.755.913a5.403 5.403 0 0 1-3.689 1.449 5.403 5.403 0 0 1-3.689-1.449c-.71-.66-1.785-.954-2.754-.914a3.812 3.812 0 0 1-3.972-3.81c0-2.105 1.673-3.749 3.806-3.898.819-.056 1.61-.609 1.836-1.43l1.93-8.77Z" fill="url(#b)"/></g><path d="M13.015 6.9a2.913 2.913 0 0 1 5.685 0l1.93 8.77c.227.82 1.018 1.373 1.837 1.43 2.133.148 3.806 1.792 3.806 3.898a3.812 3.812 0 0 1-3.972 3.81c-.97-.04-2.044.253-2.755.913a5.403 5.403 0 0 1-3.689 1.449 5.403 5.403 0 0 1-3.689-1.449c-.71-.66-1.785-.954-2.754-.914a3.812 3.812 0 0 1-3.972-3.81c0-2.105 1.673-3.749 3.806-3.898.819-.056 1.61-.609 1.836-1.43l1.93-8.77Z" fill="url(#c)"/><path d="M13.015 6.9a2.913 2.913 0 0 1 5.685 0l1.93 8.77c.227.82 1.018 1.373 1.837 1.43 2.133.148 3.806 1.792 3.806 3.898a3.812 3.812 0 0 1-3.972 3.81c-.97-.04-2.044.253-2.755.913a5.403 5.403 0 0 1-3.689 1.449 5.403 5.403 0 0 1-3.689-1.449c-.71-.66-1.785-.954-2.754-.914a3.812 3.812 0 0 1-3.972-3.81c0-2.105 1.673-3.749 3.806-3.898.819-.056 1.61-.609 1.836-1.43l1.93-8.77Z" fill="url(#d)"/><path d="M13.015 6.9a2.913 2.913 0 0 1 5.685 0l1.93 8.77c.227.82 1.018 1.373 1.837 1.43 2.133.148 3.806 1.792 3.806 3.898a3.812 3.812 0 0 1-3.972 3.81c-.97-.04-2.044.253-2.755.913a5.403 5.403 0 0 1-3.689 1.449 5.403 5.403 0 0 1-3.689-1.449c-.71-.66-1.785-.954-2.754-.914a3.812 3.812 0 0 1-3.972-3.81c0-2.105 1.673-3.749 3.806-3.898.819-.056 1.61-.609 1.836-1.43l1.93-8.77Z" fill="url(#e)"/><path d="M13.015 6.9a2.913 2.913 0 0 1 5.685 0l1.93 8.77c.227.82 1.018 1.373 1.837 1.43 2.133.148 3.806 1.792 3.806 3.898a3.812 3.812 0 0 1-3.972 3.81c-.97-.04-2.044.253-2.755.913a5.403 5.403 0 0 1-3.689 1.449 5.403 5.403 0 0 1-3.689-1.449c-.71-.66-1.785-.954-2.754-.914a3.812 3.812 0 0 1-3.972-3.81c0-2.105 1.673-3.749 3.806-3.898.819-.056 1.61-.609 1.836-1.43l1.93-8.77Z" fill="url(#f)"/><path d="M13.015 6.9a2.913 2.913 0 0 1 5.685 0l1.93 8.77c.227.82 1.018 1.373 1.837 1.43 2.133.148 3.806 1.792 3.806 3.898a3.812 3.812 0 0 1-3.972 3.81c-.97-.04-2.044.253-2.755.913a5.403 5.403 0 0 1-3.689 1.449 5.403 5.403 0 0 1-3.689-1.449c-.71-.66-1.785-.954-2.754-.914a3.812 3.812 0 0 1-3.972-3.81c0-2.105 1.673-3.749 3.806-3.898.819-.056 1.61-.609 1.836-1.43l1.93-8.77Z" fill="url(#g)"/><path d="M11.296 25.156a4.279 4.279 0 0 0-1.882-.349 3.852 3.852 0 0 1-1.38-.196c-.404-.136-.52-.639-.177-.892a2.172 2.172 0 0 1 3.439 1.437Z" fill="url(#h)"/><path d="M11.296 25.156a4.279 4.279 0 0 0-1.882-.349 3.852 3.852 0 0 1-1.38-.196c-.404-.136-.52-.639-.177-.892a2.172 2.172 0 0 1 3.439 1.437Z" fill="url(#i)"/><path d="M23.858 23.719c.343.253.227.756-.178.892a3.807 3.807 0 0 1-1.379.196 4.28 4.28 0 0 0-1.882.349 2.172 2.172 0 0 1 3.439-1.437Z" fill="url(#j)"/><path d="M23.858 23.719c.343.253.227.756-.178.892a3.807 3.807 0 0 1-1.379.196 4.28 4.28 0 0 0-1.882.349 2.172 2.172 0 0 1 3.439-1.437Z" fill="url(#k)"/><g filter="url(#l)"><path d="m15.51 19.665.479-12.604a.78.78 0 0 1 1.542-.126l2.517 12.36a2.293 2.293 0 1 1-4.538.37Z" fill="url(#m)"/></g><g filter="url(#n)"><path d="M23.259 21.889h-4.34a.687.687 0 1 1 0-1.375h2.876c.645 0 1.137-.577 1.036-1.213-.107-.671.466-1.285 1.075-.985a2.704 2.704 0 0 1 1.312 1.407c.498 1.17-.687 2.166-1.96 2.166Z" fill="url(#o)"/></g><g filter="url(#p)"><path d="m10.721 18.84-.341 3.209c-.063.585-.627.992-1.13.686-.984-.6-1.737-1.73-1.549-3.003.164-1.107 1.227-1.639 2.143-1.818.537-.105.935.381.877.925Z" fill="#B68B78"/></g><defs><radialGradient id="d" cx="0" cy="0" r="1" gradientUnits="userSpaceOnUse" gradientTransform="matrix(0 -6.46491 8.5603 0 14.345 26.447)"><stop stop-color="#995683"/><stop offset="1" stop-color="#995683" stop-opacity="0"/></radialGradient><radialGradient id="e" cx="0" cy="0" r="1" gradientUnits="userSpaceOnUse" gradientTransform="rotate(-91.273 23.281 1.436) scale(2.15998 3.02294)"><stop stop-color="#985B7B"/><stop offset="1" stop-color="#985B7B" stop-opacity="0"/></radialGradient><radialGradient id="f" cx="0" cy="0" r="1" gradientUnits="userSpaceOnUse" gradientTransform="rotate(-75.155 21 6.512) scale(2.74701 3.38784)"><stop stop-color="#93557E"/><stop offset="1" stop-color="#93557E" stop-opacity="0"/></radialGradient><radialGradient id="g" cx="0" cy="0" r="1" gradientUnits="userSpaceOnUse" gradientTransform="matrix(2.48449 .3451 -1.45644 10.48563 11.921 7.145)"><stop stop-color="#8B6E59"/><stop offset="1" stop-color="#8B6E59" stop-opacity="0"/></radialGradient><radialGradient id="h" cx="0" cy="0" r="1" gradientUnits="userSpaceOnUse" gradientTransform="matrix(-1.38064 -1.15206 .67152 -.80475 10.92 25.156)"><stop stop-color="#77535C"/><stop offset="1" stop-color="#6F3B60"/></radialGradient><radialGradient id="i" cx="0" cy="0" r="1" gradientUnits="userSpaceOnUse" gradientTransform="rotate(-103.938 14.657 8.971) scale(2.20556 3.79711)"><stop offset=".653" stop-color="#7D4D73" stop-opacity="0"/><stop offset="1" stop-color="#7D4D73"/></radialGradient><radialGradient id="j" cx="0" cy="0" r="1" gradientUnits="userSpaceOnUse" gradientTransform="matrix(1.87114 -1.07226 .98586 1.72037 20.764 25.076)"><stop stop-color="#77535C"/><stop offset="1" stop-color="#6F3B60"/></radialGradient><radialGradient id="k" cx="0" cy="0" r="1" gradientUnits="userSpaceOnUse" gradientTransform="rotate(-103.938 21.205 3.85) scale(2.20556 3.79711)"><stop offset=".653" stop-color="#7D4D73" stop-opacity="0"/><stop offset="1" stop-color="#7D4D73"/></radialGradient><linearGradient id="b" x1="15.857" y1="12.564" x2="15.857" y2="28.17" gradientUnits="userSpaceOnUse"><stop stop-color="#B68E73"/><stop offset="1" stop-color="#9F7768"/></linearGradient><linearGradient id="c" x1="22.67" y1="13.857" x2="15.857" y2="16.362" gradientUnits="userSpaceOnUse"><stop stop-color="#CAA487"/><stop offset="1" stop-color="#CAA487" stop-opacity="0"/></linearGradient><linearGradient id="m" x1="19.127" y1="20.436" x2="18.269" y2="6.232" gradientUnits="userSpaceOnUse"><stop stop-color="#D3A990"/><stop offset="1" stop-color="#D3A990" stop-opacity="0"/></linearGradient><linearGradient id="o" x1="25.514" y1="20.67" x2="19.928" y2="18.789" gradientUnits="userSpaceOnUse"><stop stop-color="#D3A990"/><stop offset="1" stop-color="#D3A990" stop-opacity="0"/></linearGradient><filter id="a" x="5.441" y="4.623" width="21.082" height="22.797" filterUnits="userSpaceOnUse" color-interpolation-filters="sRGB"><feFlood flood-opacity="0" result="BackgroundImageFix"/><feBlend in="SourceGraphic" in2="BackgroundImageFix" result="shape"/><feColorMatrix in="SourceAlpha" values="0 0 0 0 0 0 0 0 0 0 0 0 0 0 0 0 0 0 127 0" result="hardAlpha"/><feOffset dx=".25" dy=".25"/><feGaussianBlur stdDeviation="1"/><feComposite in2="hardAlpha" operator="arithmetic" k2="-1" k3="1"/><feColorMatrix values="0 0 0 0 0.54902 0 0 0 0 0.439216 0 0 0 0 0.364706 0 0 0 1 0"/><feBlend in2="shape" result="effect1_innerShadow_20020_4951"/></filter><filter id="l" x="13.008" y="3.811" width="9.586" height="20.734" filterUnits="userSpaceOnUse" color-interpolation-filters="sRGB"><feFlood flood-opacity="0" result="BackgroundImageFix"/><feBlend in="SourceGraphic" in2="BackgroundImageFix" result="shape"/><feGaussianBlur stdDeviation="1.25" result="effect1_foregroundBlur_20020_4951"/></filter><filter id="n" x="17.232" y="17.238" width="9.102" height="5.651" filterUnits="userSpaceOnUse" color-interpolation-filters="sRGB"><feFlood flood-opacity="0" result="BackgroundImageFix"/><feBlend in="SourceGraphic" in2="BackgroundImageFix" result="shape"/><feGaussianBlur stdDeviation=".5" result="effect1_foregroundBlur_20020_4951"/></filter><filter id="p" x="5.672" y="15.9" width="7.055" height="8.94" filterUnits="userSpaceOnUse" color-interpolation-filters="sRGB"><feFlood flood-opacity="0" result="BackgroundImageFix"/><feBlend in="SourceGraphic" in2="BackgroundImageFix" result="shape"/><feGaussianBlur stdDeviation="1" result="effect1_foregroundBlur_20020_4951"/></filter></defs></svg>