<svg xmlns="http://www.w3.org/2000/svg" fill="none" viewBox="0 0 32 32"><g filter="url(#nose-medium-dark_svg__a)"><path fill="url(#nose-medium-dark_svg__b)" d="M13.015 7.042a2.913 2.913 0 0 1 5.685 0l1.93 8.77c.227.82 1.018 1.373 1.837 1.43 2.133.149 3.806 1.793 3.806 3.899a3.81 3.81 0 0 1-3.972 3.809c-.97-.04-2.044.254-2.755.914a5.4 5.4 0 0 1-3.689 1.448 5.4 5.4 0 0 1-3.689-1.448c-.71-.66-1.785-.954-2.754-.914l-.16.003a3.81 3.81 0 0 1-3.813-3.812c0-2.106 1.674-3.75 3.807-3.899.819-.057 1.61-.61 1.836-1.43z"/></g><path fill="url(#nose-medium-dark_svg__c)" d="M13.015 7.042a2.913 2.913 0 0 1 5.685 0l1.93 8.77c.227.82 1.018 1.373 1.837 1.43 2.133.149 3.806 1.793 3.806 3.899a3.81 3.81 0 0 1-3.972 3.809c-.97-.04-2.044.254-2.755.914a5.4 5.4 0 0 1-3.689 1.448 5.4 5.4 0 0 1-3.689-1.448c-.71-.66-1.785-.954-2.754-.914l-.16.003a3.81 3.81 0 0 1-3.813-3.812c0-2.106 1.674-3.75 3.807-3.899.819-.057 1.61-.61 1.836-1.43z"/><path fill="url(#nose-medium-dark_svg__d)" d="M13.015 7.042a2.913 2.913 0 0 1 5.685 0l1.93 8.77c.227.82 1.018 1.373 1.837 1.43 2.133.149 3.806 1.793 3.806 3.899a3.81 3.81 0 0 1-3.972 3.809c-.97-.04-2.044.254-2.755.914a5.4 5.4 0 0 1-3.689 1.448 5.4 5.4 0 0 1-3.689-1.448c-.71-.66-1.785-.954-2.754-.914l-.16.003a3.81 3.81 0 0 1-3.813-3.812c0-2.106 1.674-3.75 3.807-3.899.819-.057 1.61-.61 1.836-1.43z"/><path fill="url(#nose-medium-dark_svg__e)" d="M13.015 7.042a2.913 2.913 0 0 1 5.685 0l1.93 8.77c.227.82 1.018 1.373 1.837 1.43 2.133.149 3.806 1.793 3.806 3.899a3.81 3.81 0 0 1-3.972 3.809c-.97-.04-2.044.254-2.755.914a5.4 5.4 0 0 1-3.689 1.448 5.4 5.4 0 0 1-3.689-1.448c-.71-.66-1.785-.954-2.754-.914l-.16.003a3.81 3.81 0 0 1-3.813-3.812c0-2.106 1.674-3.75 3.807-3.899.819-.057 1.61-.61 1.836-1.43z"/><path fill="url(#nose-medium-dark_svg__f)" d="M13.015 7.042a2.913 2.913 0 0 1 5.685 0l1.93 8.77c.227.82 1.018 1.373 1.837 1.43 2.133.149 3.806 1.793 3.806 3.899a3.81 3.81 0 0 1-3.972 3.809c-.97-.04-2.044.254-2.755.914a5.4 5.4 0 0 1-3.689 1.448 5.4 5.4 0 0 1-3.689-1.448c-.71-.66-1.785-.954-2.754-.914l-.16.003a3.81 3.81 0 0 1-3.813-3.812c0-2.106 1.674-3.75 3.807-3.899.819-.057 1.61-.61 1.836-1.43z"/><path fill="url(#nose-medium-dark_svg__g)" d="M13.015 7.042a2.913 2.913 0 0 1 5.685 0l1.93 8.77c.227.82 1.018 1.373 1.837 1.43 2.133.149 3.806 1.793 3.806 3.899a3.81 3.81 0 0 1-3.972 3.809c-.97-.04-2.044.254-2.755.914a5.4 5.4 0 0 1-3.689 1.448 5.4 5.4 0 0 1-3.689-1.448c-.71-.66-1.785-.954-2.754-.914l-.16.003a3.81 3.81 0 0 1-3.813-3.812c0-2.106 1.674-3.75 3.807-3.899.819-.057 1.61-.61 1.836-1.43z"/><path fill="url(#nose-medium-dark_svg__h)" d="M11.296 25.299a4.3 4.3 0 0 0-1.882-.35 3.9 3.9 0 0 1-1.38-.195c-.404-.137-.52-.639-.177-.893a2.172 2.172 0 0 1 3.439 1.437"/><path fill="url(#nose-medium-dark_svg__i)" d="M11.296 25.299a4.3 4.3 0 0 0-1.882-.35 3.9 3.9 0 0 1-1.38-.195c-.404-.137-.52-.639-.177-.893a2.172 2.172 0 0 1 3.439 1.437"/><path fill="url(#nose-medium-dark_svg__j)" d="M23.858 23.861c.343.254.227.756-.178.893a3.8 3.8 0 0 1-1.379.196 4.3 4.3 0 0 0-1.882.349 2.172 2.172 0 0 1 3.439-1.438"/><path fill="url(#nose-medium-dark_svg__k)" d="M23.858 23.861c.343.254.227.756-.178.893a3.8 3.8 0 0 1-1.379.196 4.3 4.3 0 0 0-1.882.349 2.172 2.172 0 0 1 3.439-1.438"/><g filter="url(#nose-medium-dark_svg__l)"><path fill="url(#nose-medium-dark_svg__m)" d="m15.51 19.808.479-12.604a.78.78 0 0 1 1.542-.126l2.517 12.36a2.292 2.292 0 1 1-4.538.37"/></g><g filter="url(#nose-medium-dark_svg__n)"><path fill="url(#nose-medium-dark_svg__o)" d="M23.259 22.031h-4.34a.687.687 0 1 1 0-1.375h2.876c.645 0 1.137-.576 1.036-1.213-.107-.67.466-1.284 1.075-.984a2.7 2.7 0 0 1 1.312 1.407c.498 1.17-.687 2.165-1.96 2.165"/></g><g filter="url(#nose-medium-dark_svg__p)"><path fill="#976B5E" d="m10.721 18.982-.341 3.21c-.063.585-.627.991-1.13.686-.984-.6-1.737-1.73-1.549-3.003.164-1.107 1.227-1.64 2.143-1.818.537-.105.935.38.877.925"/></g><defs><radialGradient id="nose-medium-dark_svg__d" cx="0" cy="0" r="1" gradientTransform="matrix(0 -6.46491 8.5603 0 14.345 26.59)" gradientUnits="userSpaceOnUse"><stop stop-color="#7C416E"/><stop offset="1" stop-color="#7C416E" stop-opacity="0"/></radialGradient><radialGradient id="nose-medium-dark_svg__e" cx="0" cy="0" r="1" gradientTransform="rotate(-91.273 23.35 1.507)scale(2.15998 3.02294)" gradientUnits="userSpaceOnUse"><stop stop-color="#8A5E70"/><stop offset="1" stop-color="#8A5E70" stop-opacity="0"/></radialGradient><radialGradient id="nose-medium-dark_svg__f" cx="0" cy="0" r="1" gradientTransform="matrix(.70382 -2.65532 3.27476 .868 9.326 25.286)" gradientUnits="userSpaceOnUse"><stop stop-color="#764765"/><stop offset="1" stop-color="#764765" stop-opacity="0"/></radialGradient><radialGradient id="nose-medium-dark_svg__g" cx="0" cy="0" r="1" gradientTransform="matrix(2.48449 .3451 -1.45644 10.48563 11.921 7.288)" gradientUnits="userSpaceOnUse"><stop stop-color="#73584E"/><stop offset="1" stop-color="#73584E" stop-opacity="0"/></radialGradient><radialGradient id="nose-medium-dark_svg__h" cx="0" cy="0" r="1" gradientTransform="matrix(-1.38064 -1.15206 .67152 -.80475 10.92 25.299)" gradientUnits="userSpaceOnUse"><stop stop-color="#5F414D"/><stop offset="1" stop-color="#54294D"/></radialGradient><radialGradient id="nose-medium-dark_svg__i" cx="0" cy="0" r="1" gradientTransform="matrix(-.53126 -2.14062 3.68531 -.91462 9.48 25.5)" gradientUnits="userSpaceOnUse"><stop offset=".653" stop-color="#643F64" stop-opacity="0"/><stop offset="1" stop-color="#643F64"/></radialGradient><radialGradient id="nose-medium-dark_svg__j" cx="0" cy="0" r="1" gradientTransform="rotate(-33.056 52.824 -22.592)scale(2.34895 1.36916)" gradientUnits="userSpaceOnUse"><stop stop-color="#5F414D"/><stop offset="1" stop-color="#54294D"/></radialGradient><radialGradient id="nose-medium-dark_svg__k" cx="0" cy="0" r="1" gradientTransform="rotate(-103.938 21.26 3.92)scale(2.20556 3.79711)" gradientUnits="userSpaceOnUse"><stop offset=".653" stop-color="#643F64" stop-opacity="0"/><stop offset="1" stop-color="#643F64"/></radialGradient><linearGradient id="nose-medium-dark_svg__b" x1="15.857" x2="15.857" y1="12.707" y2="28.313" gradientUnits="userSpaceOnUse"><stop stop-color="#8E6657"/><stop offset="1" stop-color="#7B5050"/></linearGradient><linearGradient id="nose-medium-dark_svg__c" x1="22.67" x2="15.857" y1="14" y2="16.505" gradientUnits="userSpaceOnUse"><stop stop-color="#A27E6E"/><stop offset="1" stop-color="#A27E6E" stop-opacity="0"/></linearGradient><linearGradient id="nose-medium-dark_svg__m" x1="19.127" x2="18.269" y1="20.579" y2="6.375" gradientUnits="userSpaceOnUse"><stop stop-color="#A88075"/><stop offset="1" stop-color="#A88075" stop-opacity="0"/></linearGradient><linearGradient id="nose-medium-dark_svg__o" x1="24.107" x2="20.459" y1="20.078" y2="18.849" gradientUnits="userSpaceOnUse"><stop stop-color="#A88075"/><stop offset="1" stop-color="#A88075" stop-opacity="0"/></linearGradient><filter id="nose-medium-dark_svg__a" width="21.082" height="22.797" x="5.441" y="4.766" color-interpolation-filters="sRGB" filterUnits="userSpaceOnUse"><feFlood flood-opacity="0" result="BackgroundImageFix"/><feBlend in="SourceGraphic" in2="BackgroundImageFix" result="shape"/><feColorMatrix in="SourceAlpha" result="hardAlpha" values="0 0 0 0 0 0 0 0 0 0 0 0 0 0 0 0 0 0 127 0"/><feOffset dx=".25" dy=".25"/><feGaussianBlur stdDeviation="1"/><feComposite in2="hardAlpha" k2="-1" k3="1" operator="arithmetic"/><feColorMatrix values="0 0 0 0 0.45098 0 0 0 0 0.341176 0 0 0 0 0.298039 0 0 0 1 0"/><feBlend in2="shape" result="effect1_innerShadow_20020_4943"/></filter><filter id="nose-medium-dark_svg__l" width="9.586" height="20.734" x="13.008" y="3.954" color-interpolation-filters="sRGB" filterUnits="userSpaceOnUse"><feFlood flood-opacity="0" result="BackgroundImageFix"/><feBlend in="SourceGraphic" in2="BackgroundImageFix" result="shape"/><feGaussianBlur result="effect1_foregroundBlur_20020_4943" stdDeviation="1.25"/></filter><filter id="nose-medium-dark_svg__n" width="9.102" height="5.651" x="17.232" y="17.381" color-interpolation-filters="sRGB" filterUnits="userSpaceOnUse"><feFlood flood-opacity="0" result="BackgroundImageFix"/><feBlend in="SourceGraphic" in2="BackgroundImageFix" result="shape"/><feGaussianBlur result="effect1_foregroundBlur_20020_4943" stdDeviation=".5"/></filter><filter id="nose-medium-dark_svg__p" width="7.055" height="8.939" x="5.672" y="16.043" color-interpolation-filters="sRGB" filterUnits="userSpaceOnUse"><feFlood flood-opacity="0" result="BackgroundImageFix"/><feBlend in="SourceGraphic" in2="BackgroundImageFix" result="shape"/><feGaussianBlur result="effect1_foregroundBlur_20020_4943" stdDeviation="1"/></filter></defs></svg>