<svg width="32" height="32" fill="none" xmlns="http://www.w3.org/2000/svg"><path d="M25 5.956H7v22h18v-22Z" fill="url(#a)"/><path d="M23.02 1.956h-3.03c-.55 0-.99.44-.99.98v1.02h5v-1.02c0-.54-.44-.98-.98-.98Z" fill="url(#b)"/><path d="M23.02 1.956h-3.03c-.55 0-.99.44-.99.98v1.02h5v-1.02c0-.54-.44-.98-.98-.98Z" fill="url(#c)"/><path d="M23.02 1.956h-3.03c-.55 0-.99.44-.99.98v1.02h5v-1.02c0-.54-.44-.98-.98-.98Z" fill="url(#d)"/><path d="M23.02 1.956h-3.03c-.55 0-.99.44-.99.98v1.02h5v-1.02c0-.54-.44-.98-.98-.98Z" fill="url(#e)"/><path d="M24 5.956h-2v22h2v-22Z" fill="url(#f)"/><path d="M21 5.956h-1v22h1v-22Z" fill="url(#g)"/><g filter="url(#h)"><path fill="#3C62A7" d="M7.25 13.706h17.5v.375H7.25z"/></g><g filter="url(#i)"><path fill="#3C62A7" d="M7.25 5.69h17.5v.375H7.25z"/></g><g filter="url(#j)"><path fill="#3C62A7" d="M7.25 21.682h17.5v.375H7.25z"/></g><g filter="url(#k)"><path fill="#3C62A7" d="M7.25 27.854h17.5v.375H7.25z"/></g><path d="M25 29.956H7c-.55 0-1-.45-1-1s.45-1 1-1h18c.55 0 1 .45 1 1s-.45 1-1 1Z" fill="url(#l)"/><path d="M25 29.956H7c-.55 0-1-.45-1-1s.45-1 1-1h18c.55 0 1 .45 1 1s-.45 1-1 1Z" fill="url(#m)"/><path d="M25 29.956H7c-.55 0-1-.45-1-1s.45-1 1-1h18c.55 0 1 .45 1 1s-.45 1-1 1Z" fill="url(#n)"/><path d="M25 5.956H7c-.55 0-1-.45-1-1s.45-1 1-1h18c.55 0 1 .45 1 1s-.45 1-1 1Z" fill="url(#o)"/><path d="M25 5.956H7c-.55 0-1-.45-1-1s.45-1 1-1h18c.55 0 1 .45 1 1s-.45 1-1 1Z" fill="url(#p)"/><path d="M25 5.956H7c-.55 0-1-.45-1-1s.45-1 1-1h18c.55 0 1 .45 1 1s-.45 1-1 1Z" fill="url(#q)"/><path d="M25 13.956H7c-.55 0-1-.45-1-1s.45-1 1-1h18c.55 0 1 .45 1 1s-.45 1-1 1Z" fill="url(#r)"/><path d="M25 13.956H7c-.55 0-1-.45-1-1s.45-1 1-1h18c.55 0 1 .45 1 1s-.45 1-1 1Z" fill="url(#s)"/><path d="M25 13.956H7c-.55 0-1-.45-1-1s.45-1 1-1h18c.55 0 1 .45 1 1s-.45 1-1 1Z" fill="url(#t)"/><path d="M25 21.956H7c-.55 0-1-.45-1-1s.45-1 1-1h18c.55 0 1 .45 1 1s-.45 1-1 1Z" fill="url(#u)"/><path d="M25 21.956H7c-.55 0-1-.45-1-1s.45-1 1-1h18c.55 0 1 .45 1 1s-.45 1-1 1Z" fill="url(#v)"/><path d="M25 21.956H7c-.55 0-1-.45-1-1s.45-1 1-1h18c.55 0 1 .45 1 1s-.45 1-1 1Z" fill="url(#w)"/><defs><linearGradient id="a" x1="7.002" y1="16.956" x2="25" y2="16.956" gradientUnits="userSpaceOnUse"><stop stop-color="#3974A8"/><stop offset=".177" stop-color="#448FDD"/><stop offset="1" stop-color="#5998E8"/></linearGradient><linearGradient id="b" x1="19.002" y1="2.956" x2="24.563" y2="2.956" gradientUnits="userSpaceOnUse"><stop stop-color="#463B5E"/><stop offset="1" stop-color="#4E4B54"/></linearGradient><linearGradient id="c" x1="24" y1="3.956" x2="23.247" y2="3.956" gradientUnits="userSpaceOnUse"><stop stop-color="#747374"/><stop offset="1" stop-color="#747374" stop-opacity="0"/></linearGradient><linearGradient id="f" x1="24.406" y1="16.932" x2="22.5" y2="16.932" gradientUnits="userSpaceOnUse"><stop stop-color="#72FBFF"/><stop offset="1" stop-color="#65E0FF"/></linearGradient><linearGradient id="g" x1="21" y1="27.956" x2="21" y2="5.956" gradientUnits="userSpaceOnUse"><stop stop-color="#53BDFE"/><stop offset="1" stop-color="#55C0FA"/></linearGradient><linearGradient id="l" x1="26.002" y1="28.956" x2="6.002" y2="28.956" gradientUnits="userSpaceOnUse"><stop stop-color="#4285D9"/><stop offset="1" stop-color="#3E409A"/></linearGradient><linearGradient id="m" x1="16" y1="30.456" x2="16" y2="29.206" gradientUnits="userSpaceOnUse"><stop stop-color="#373490"/><stop offset="1" stop-color="#373490" stop-opacity="0"/></linearGradient><linearGradient id="o" x1="26.002" y1="4.956" x2="6.002" y2="4.956" gradientUnits="userSpaceOnUse"><stop stop-color="#4285D9"/><stop offset="1" stop-color="#3E409A"/></linearGradient><linearGradient id="p" x1="16" y1="6.456" x2="16" y2="5.206" gradientUnits="userSpaceOnUse"><stop stop-color="#373490"/><stop offset="1" stop-color="#373490" stop-opacity="0"/></linearGradient><linearGradient id="r" x1="26.002" y1="12.956" x2="6.002" y2="12.956" gradientUnits="userSpaceOnUse"><stop stop-color="#4285D9"/><stop offset="1" stop-color="#3E409A"/></linearGradient><linearGradient id="s" x1="16" y1="14.456" x2="16" y2="13.206" gradientUnits="userSpaceOnUse"><stop stop-color="#373490"/><stop offset="1" stop-color="#373490" stop-opacity="0"/></linearGradient><linearGradient id="u" x1="26.002" y1="20.956" x2="6.002" y2="20.956" gradientUnits="userSpaceOnUse"><stop stop-color="#4285D9"/><stop offset="1" stop-color="#3E409A"/></linearGradient><linearGradient id="v" x1="16" y1="22.456" x2="16" y2="21.206" gradientUnits="userSpaceOnUse"><stop stop-color="#373490"/><stop offset="1" stop-color="#373490" stop-opacity="0"/></linearGradient><radialGradient id="d" cx="0" cy="0" r="1" gradientUnits="userSpaceOnUse" gradientTransform="rotate(140.194 11.513 5.497) scale(.70274 .80899)"><stop stop-color="#69696A"/><stop offset="1" stop-color="#69696A" stop-opacity="0"/></radialGradient><radialGradient id="e" cx="0" cy="0" r="1" gradientUnits="userSpaceOnUse" gradientTransform="matrix(2.81927 0 0 .44025 20.787 2.54)"><stop stop-color="#5C4F6B"/><stop offset=".64" stop-color="#5C4F6B" stop-opacity="0"/></radialGradient><radialGradient id="n" cx="0" cy="0" r="1" gradientUnits="userSpaceOnUse" gradientTransform="matrix(0 .65625 -10.5757 0 22.75 28.612)"><stop stop-color="#71A2EE"/><stop offset="1" stop-color="#71A2EE" stop-opacity="0"/></radialGradient><radialGradient id="q" cx="0" cy="0" r="1" gradientUnits="userSpaceOnUse" gradientTransform="matrix(0 .65625 -10.5757 0 22.75 4.612)"><stop stop-color="#71A2EE"/><stop offset="1" stop-color="#71A2EE" stop-opacity="0"/></radialGradient><radialGradient id="t" cx="0" cy="0" r="1" gradientUnits="userSpaceOnUse" gradientTransform="matrix(0 .65625 -10.5757 0 22.75 12.612)"><stop stop-color="#71A2EE"/><stop offset="1" stop-color="#71A2EE" stop-opacity="0"/></radialGradient><radialGradient id="w" cx="0" cy="0" r="1" gradientUnits="userSpaceOnUse" gradientTransform="matrix(0 .65625 -10.5757 0 22.75 20.612)"><stop stop-color="#71A2EE"/><stop offset="1" stop-color="#71A2EE" stop-opacity="0"/></radialGradient><filter id="h" x="6.75" y="13.206" width="18.5" height="1.375" filterUnits="userSpaceOnUse" color-interpolation-filters="sRGB"><feFlood flood-opacity="0" result="BackgroundImageFix"/><feBlend in="SourceGraphic" in2="BackgroundImageFix" result="shape"/><feGaussianBlur stdDeviation=".25" result="effect1_foregroundBlur_18_11874"/></filter><filter id="i" x="6.75" y="5.19" width="18.5" height="1.375" filterUnits="userSpaceOnUse" color-interpolation-filters="sRGB"><feFlood flood-opacity="0" result="BackgroundImageFix"/><feBlend in="SourceGraphic" in2="BackgroundImageFix" result="shape"/><feGaussianBlur stdDeviation=".25" result="effect1_foregroundBlur_18_11874"/></filter><filter id="j" x="6.75" y="21.182" width="18.5" height="1.375" filterUnits="userSpaceOnUse" color-interpolation-filters="sRGB"><feFlood flood-opacity="0" result="BackgroundImageFix"/><feBlend in="SourceGraphic" in2="BackgroundImageFix" result="shape"/><feGaussianBlur stdDeviation=".25" result="effect1_foregroundBlur_18_11874"/></filter><filter id="k" x="6.75" y="27.354" width="18.5" height="1.375" filterUnits="userSpaceOnUse" color-interpolation-filters="sRGB"><feFlood flood-opacity="0" result="BackgroundImageFix"/><feBlend in="SourceGraphic" in2="BackgroundImageFix" result="shape"/><feGaussianBlur stdDeviation=".25" result="effect1_foregroundBlur_18_11874"/></filter></defs></svg>