<svg width="32" height="32" fill="none" xmlns="http://www.w3.org/2000/svg"><g filter="url(#a)"><path d="m6.118 26.455 5.047-5.047 3.21 3.211a1.286 1.286 0 0 1-1.039 2.19l-1.08-.11a.869.869 0 0 0-.954.931l.084 1.072a1.214 1.214 0 0 1-2.069.952l-3.2-3.199Z" fill="url(#b)"/></g><g filter="url(#c)"><path d="m16.397 12.172 3.407 3.406L6.865 28.516a2.409 2.409 0 0 1-3.406-3.407l12.937-12.937Z" fill="url(#d)"/></g><g filter="url(#e)"><path fill-rule="evenodd" clip-rule="evenodd" d="M21.882 18a7.969 7.969 0 1 0 0-15.937 7.969 7.969 0 0 0 0 15.937Zm0-4a3.969 3.969 0 1 0 0-7.937 3.969 3.969 0 0 0 0 7.937Z" fill="url(#f)"/></g><rect x="13.28" y="14.242" width="6.165" height="1.528" rx=".764" transform="rotate(45 13.28 14.242)" fill="url(#g)"/><rect x="13.28" y="14.242" width="6.165" height="1.528" rx=".764" transform="rotate(45 13.28 14.242)" fill="url(#h)"/><rect x="13.28" y="14.242" width="6.165" height="1.528" rx=".764" transform="rotate(45 13.28 14.242)" fill="url(#i)"/><rect x="14.361" y="13.162" width="6.165" height="1.528" rx=".764" transform="rotate(45 14.36 13.162)" fill="url(#j)"/><rect x="14.361" y="13.162" width="6.165" height="1.528" rx=".764" transform="rotate(45 14.36 13.162)" fill="url(#k)"/><rect x="14.361" y="13.162" width="6.165" height="1.528" rx=".764" transform="rotate(45 14.36 13.162)" fill="url(#l)"/><g filter="url(#m)" stroke-width="1.25"><circle cx="22.309" cy="9.604" r="6.309" stroke="url(#n)"/><circle cx="22.309" cy="9.604" r="6.309" stroke="url(#o)"/></g><defs><linearGradient id="b" x1="11.632" y1="27.875" x2="9.632" y2="25.709" gradientUnits="userSpaceOnUse"><stop stop-color="#F4B954"/><stop offset=".908" stop-color="#ECA84F"/></linearGradient><linearGradient id="d" x1="8.038" y1="21.031" x2="11.279" y2="24.188" gradientUnits="userSpaceOnUse"><stop stop-color="#F7C250"/><stop offset="1" stop-color="#F8AB54"/></linearGradient><linearGradient id="f" x1="21.882" y1="2.813" x2="21.882" y2="18" gradientUnits="userSpaceOnUse"><stop stop-color="#F8CF4D"/><stop offset="1" stop-color="#ED9953"/></linearGradient><linearGradient id="g" x1="14.087" y1="15.107" x2="18.329" y2="15.152" gradientUnits="userSpaceOnUse"><stop stop-color="#F6BF4E"/><stop offset="1" stop-color="#EA994D"/></linearGradient><linearGradient id="i" x1="16.683" y1="15.98" x2="16.678" y2="15.322" gradientUnits="userSpaceOnUse"><stop offset=".186" stop-color="#E29226"/><stop offset="1" stop-color="#EC9B4F" stop-opacity="0"/></linearGradient><linearGradient id="j" x1="15.167" y1="14.027" x2="19.41" y2="14.071" gradientUnits="userSpaceOnUse"><stop stop-color="#F6BF4E"/><stop offset="1" stop-color="#EA994D"/></linearGradient><linearGradient id="l" x1="17.764" y1="14.9" x2="17.759" y2="14.241" gradientUnits="userSpaceOnUse"><stop offset=".186" stop-color="#E29226"/><stop offset="1" stop-color="#E29226" stop-opacity="0"/></linearGradient><linearGradient id="n" x1="27.32" y1="4.298" x2="21.468" y2="9.259" gradientUnits="userSpaceOnUse"><stop stop-color="#FFDD67"/><stop offset="1" stop-color="#FFDD67" stop-opacity="0"/></linearGradient><linearGradient id="o" x1="17.632" y1="14" x2="19.007" y2="11.813" gradientUnits="userSpaceOnUse"><stop stop-color="#FEB765"/><stop offset="1" stop-color="#FEB765" stop-opacity="0"/></linearGradient><filter id="a" x="6.118" y="21.258" width="8.635" height="8.752" filterUnits="userSpaceOnUse" color-interpolation-filters="sRGB"><feFlood flood-opacity="0" result="BackgroundImageFix"/><feBlend in="SourceGraphic" in2="BackgroundImageFix" result="shape"/><feColorMatrix in="SourceAlpha" values="0 0 0 0 0 0 0 0 0 0 0 0 0 0 0 0 0 0 127 0" result="hardAlpha"/><feOffset dy="-.15"/><feGaussianBlur stdDeviation=".25"/><feComposite in2="hardAlpha" operator="arithmetic" k2="-1" k3="1"/><feColorMatrix values="0 0 0 0 0.839216 0 0 0 0 0.592157 0 0 0 0 0.34902 0 0 0 1 0"/><feBlend in2="shape" result="effect1_innerShadow_18_23735"/></filter><filter id="c" x="2.754" y="11.672" width="17.049" height="17.549" filterUnits="userSpaceOnUse" color-interpolation-filters="sRGB"><feFlood flood-opacity="0" result="BackgroundImageFix"/><feBlend in="SourceGraphic" in2="BackgroundImageFix" result="shape"/><feColorMatrix in="SourceAlpha" values="0 0 0 0 0 0 0 0 0 0 0 0 0 0 0 0 0 0 127 0" result="hardAlpha"/><feOffset dy="-.5"/><feGaussianBlur stdDeviation=".75"/><feComposite in2="hardAlpha" operator="arithmetic" k2="-1" k3="1"/><feColorMatrix values="0 0 0 0 0.85098 0 0 0 0 0.541176 0 0 0 0 0.34902 0 0 0 1 0"/><feBlend in2="shape" result="effect1_innerShadow_18_23735"/></filter><filter id="e" x="13.913" y="1.663" width="15.938" height="16.337" filterUnits="userSpaceOnUse" color-interpolation-filters="sRGB"><feFlood flood-opacity="0" result="BackgroundImageFix"/><feBlend in="SourceGraphic" in2="BackgroundImageFix" result="shape"/><feColorMatrix in="SourceAlpha" values="0 0 0 0 0 0 0 0 0 0 0 0 0 0 0 0 0 0 127 0" result="hardAlpha"/><feOffset dy="-.4"/><feGaussianBlur stdDeviation=".5"/><feComposite in2="hardAlpha" operator="arithmetic" k2="-1" k3="1"/><feColorMatrix values="0 0 0 0 0.815686 0 0 0 0 0.505882 0 0 0 0 0.337255 0 0 0 1 0"/><feBlend in2="shape" result="effect1_innerShadow_18_23735"/></filter><filter id="m" x="14.125" y="1.42" width="16.368" height="16.368" filterUnits="userSpaceOnUse" color-interpolation-filters="sRGB"><feFlood flood-opacity="0" result="BackgroundImageFix"/><feBlend in="SourceGraphic" in2="BackgroundImageFix" result="shape"/><feGaussianBlur stdDeviation=".625" result="effect1_foregroundBlur_18_23735"/></filter><radialGradient id="h" cx="0" cy="0" r="1" gradientUnits="userSpaceOnUse" gradientTransform="matrix(-.01573 .32677 -1.89283 -.09112 16.743 14.626)"><stop stop-color="#FCBC66"/><stop offset="1" stop-color="#FCBC66" stop-opacity="0"/></radialGradient><radialGradient id="k" cx="0" cy="0" r="1" gradientUnits="userSpaceOnUse" gradientTransform="matrix(-.01573 .32677 -1.89283 -.09112 17.823 13.545)"><stop stop-color="#FBB865"/><stop offset="1" stop-color="#FBB865" stop-opacity="0"/></radialGradient></defs></svg>