<svg width="32" height="32" fill="none" xmlns="http://www.w3.org/2000/svg"><g filter="url(#a)"><path d="M6.505 14.151a1.5 1.5 0 0 0-.534 1.396l-.457-.457a1.501 1.501 0 0 0-2.123 2.123l.444.443a1.501 1.501 0 0 0-1.543 2.484l.62.62a1.501 1.501 0 0 0-1.227 2.553C3.3 24.926 4.86 26.52 6.523 28.071c1 .93 2.533 1.945 4.445 1.945v-.001h.104c2.637 0 4.79-2.103 4.921-4.75H16V18.69a15.616 15.616 0 0 0-.078-1.742 1.563 1.563 0 0 0-1.563-1.516c-.859 0-1.556.692-1.565 1.548h-.005l-.005.128v.002c-.008.165-.022.461-.022.834 0 .345-.012.723-.092 1.105-.021.104-.158.114-.245-.006a1.473 1.473 0 0 0-.052-.068l-3.756-4.608a1.501 1.501 0 0 0-2.112-.215Z" fill="url(#b)"/></g><path d="M6.505 14.151a1.5 1.5 0 0 0-.534 1.396l-.457-.457a1.501 1.501 0 0 0-2.123 2.123l.444.443a1.501 1.501 0 0 0-1.543 2.484l.62.62a1.501 1.501 0 0 0-1.227 2.553l4.203 4.203c.083.083.174.155.27.214l.366.342c1 .93 2.533 1.945 4.445 1.945v-.001h.104c2.637 0 4.79-2.103 4.921-4.75H16V18.69a15.616 15.616 0 0 0-.078-1.742 1.563 1.563 0 0 0-1.563-1.516c-.859 0-1.556.692-1.565 1.548h-.005l-.005.128v.002c-.008.165-.022.461-.022.834 0 .345-.012.723-.092 1.105-.021.104-.158.114-.245-.006a1.473 1.473 0 0 0-.052-.068l-3.756-4.608a1.501 1.501 0 0 0-2.112-.215Z" fill="url(#c)"/><path d="M6.505 14.151a1.5 1.5 0 0 0-.534 1.396l-.457-.457a1.501 1.501 0 0 0-2.123 2.123l.444.443a1.501 1.501 0 0 0-1.543 2.484l.62.62a1.501 1.501 0 0 0-1.227 2.553l4.203 4.203c.083.083.174.155.27.214l.366.342c1 .93 2.533 1.945 4.445 1.945v-.001h.104c2.637 0 4.79-2.103 4.921-4.75H16V18.69a15.616 15.616 0 0 0-.078-1.742 1.563 1.563 0 0 0-1.563-1.516c-.859 0-1.556.692-1.565 1.548h-.005l-.005.128v.002c-.008.165-.022.461-.022.834 0 .345-.012.723-.092 1.105-.021.104-.158.114-.245-.006a1.473 1.473 0 0 0-.052-.068l-3.756-4.608a1.501 1.501 0 0 0-2.112-.215Z" fill="url(#d)"/><rect x=".623" y="22.251" width="3.002" height="8.946" rx="1.501" transform="rotate(-45 .623 22.25)" fill="url(#e)"/><rect x=".623" y="22.251" width="3.002" height="8.946" rx="1.501" transform="rotate(-45 .623 22.25)" fill="url(#f)"/><path d="M2.292 18.017a1.501 1.501 0 0 0 0 2.123l.62.62c.327.035.644.179.895.43l3.584 3.583a1.5 1.5 0 0 0 1.227-2.553l-4.203-4.203a1.501 1.501 0 0 0-2.123 0Z" fill="url(#g)"/><path d="M2.292 18.017a1.501 1.501 0 0 0 0 2.123l.62.62c.327.035.644.179.895.43l3.584 3.583a1.5 1.5 0 0 0 1.227-2.553l-4.203-4.203a1.501 1.501 0 0 0-2.123 0Z" fill="url(#h)"/><path d="M2.292 18.017a1.501 1.501 0 0 0 0 2.123l.62.62c.327.035.644.179.895.43l3.584 3.583a1.5 1.5 0 0 0 1.227-2.553l-4.203-4.203a1.501 1.501 0 0 0-2.123 0Z" fill="url(#i)"/><path d="M2.292 18.017a1.501 1.501 0 0 0 0 2.123l.62.62c.327.035.644.179.895.43l3.584 3.583a1.5 1.5 0 0 0 1.227-2.553l-4.203-4.203a1.501 1.501 0 0 0-2.123 0Z" fill="url(#j)"/><rect x="5.342" y="15.1" width="3.002" height="8.946" rx="1.501" transform="rotate(-39.184 5.342 15.1)" fill="url(#k)"/><rect x="5.342" y="15.1" width="3.002" height="8.946" rx="1.501" transform="rotate(-39.184 5.342 15.1)" fill="url(#l)"/><rect x="5.342" y="15.1" width="3.002" height="8.946" rx="1.501" transform="rotate(-39.184 5.342 15.1)" fill="url(#m)"/><rect x="5.342" y="15.1" width="3.002" height="8.946" rx="1.501" transform="rotate(-39.184 5.342 15.1)" fill="url(#n)"/><rect x="5.342" y="15.1" width="3.002" height="8.946" rx="1.501" transform="rotate(-39.184 5.342 15.1)" fill="url(#o)"/><rect x="5.342" y="15.1" width="3.002" height="8.946" rx="1.501" transform="rotate(-39.184 5.342 15.1)" fill="url(#p)"/><path d="M5.97 15.547c.04.254.146.502.32.716l3.756 4.608.014.016a1.501 1.501 0 0 1-1.885.89l-3.76-3.76a1.495 1.495 0 0 0-.58-.36l-.444-.444a1.5 1.5 0 1 1 2.123-2.123l.457.457Z" fill="url(#q)"/><path d="M5.97 15.547c.04.254.146.502.32.716l3.756 4.608.014.016a1.501 1.501 0 0 1-1.885.89l-3.76-3.76a1.495 1.495 0 0 0-.58-.36l-.444-.444a1.5 1.5 0 1 1 2.123-2.123l.457.457Z" fill="url(#r)"/><path d="M5.97 15.547c.04.254.146.502.32.716l3.756 4.608.014.016a1.501 1.501 0 0 1-1.885.89l-3.76-3.76a1.495 1.495 0 0 0-.58-.36l-.444-.444a1.5 1.5 0 1 1 2.123-2.123l.457.457Z" fill="url(#s)"/><path d="M5.97 15.547c.04.254.146.502.32.716l3.756 4.608.014.016a1.501 1.501 0 0 1-1.885.89l-3.76-3.76a1.495 1.495 0 0 0-.58-.36l-.444-.444a1.5 1.5 0 1 1 2.123-2.123l.457.457Z" fill="url(#t)"/><path d="M12.794 16.98a1.565 1.565 0 0 1 3.128-.034 16.976 16.976 0 0 1-.086 3.954l-3.562-.86c.445-.695.488-1.451.488-2.097 0-.373.014-.669.022-.834l.005-.13h.005Z" fill="url(#u)"/><g filter="url(#v)"><path d="M2.797 21.901a.441.441 0 1 1 .626-.622l2.856 2.894-.104 1.106-3.378-3.378Z" fill="#C9A08C"/></g><g filter="url(#w)"><path d="M3.282 18.809a.441.441 0 1 1 .626-.622l2.855 2.893-.103 1.107-3.378-3.378Z" fill="#C59D8C"/></g><g filter="url(#x)"><path d="M4.286 15.974a.44.44 0 1 1 .666-.576l4.308 5.005-.587.624-4.387-5.053Z" fill="#BC9585"/></g><g filter="url(#y)"><path d="M7.364 15.117a.44.44 0 1 1 .662-.578l4.523 5.234-.564.591-4.62-5.247Z" fill="#D1A791"/></g><g filter="url(#z)"><path d="M15.2 22.658c-1.74-.573-2.34-2.05-2.35-2.98-.961-.152-3.373-.05-5.028 1.62-1.7 1.716-1.676 3.793-1.608 4.755.733.705 2.05 1.83 2.996 2.445 1.181.77 3.16.825 4.534-.412 1.212-1.091 1.988-2.516 1.829-4.975a.525.525 0 0 0-.372-.453Z" fill="url(#A)"/><path d="M15.2 22.658c-1.74-.573-2.34-2.05-2.35-2.98-.961-.152-3.373-.05-5.028 1.62-1.7 1.716-1.676 3.793-1.608 4.755.733.705 2.05 1.83 2.996 2.445 1.181.77 3.16.825 4.534-.412 1.212-1.091 1.988-2.516 1.829-4.975a.525.525 0 0 0-.372-.453Z" fill="url(#B)"/></g><g filter="url(#C)"><path d="M14.907 17.11c.187 1.86.093 3.11 0 6.032" stroke="url(#D)" stroke-linecap="round"/></g><g filter="url(#E)"><path d="M25.495 14.151a1.5 1.5 0 0 1 .535 1.396l.457-.457a1.501 1.501 0 0 1 2.123 2.123l-.444.443a1.501 1.501 0 0 1 1.543 2.484l-.62.62a1.5 1.5 0 0 1 1.227 2.553l-4.203 4.203a1.504 1.504 0 0 1-.27.214l-.366.342c-1 .93-2.533 1.945-4.445 1.945v-.001h-.105c-2.636 0-4.79-2.103-4.92-4.75H16V18.69h.002c-.006-.539.014-1.133.076-1.742a1.565 1.565 0 0 1 3.128.033h.006l.005.127v.002c.008.165.022.461.022.834 0 .345.012.723.092 1.105.021.104.158.114.245-.006.016-.023.034-.046.052-.068l3.756-4.608a1.501 1.501 0 0 1 2.111-.215Z" fill="url(#F)"/></g><path d="M25.495 14.151a1.5 1.5 0 0 1 .535 1.396l.457-.457a1.501 1.501 0 0 1 2.123 2.123l-.444.443a1.501 1.501 0 0 1 1.543 2.484l-.62.62a1.5 1.5 0 0 1 1.227 2.553l-4.203 4.203a1.504 1.504 0 0 1-.27.214l-.366.342c-1 .93-2.533 1.945-4.445 1.945v-.001h-.105c-2.636 0-4.79-2.103-4.92-4.75H16V18.69h.002c-.006-.539.014-1.133.076-1.742a1.565 1.565 0 0 1 3.128.033h.006l.005.127v.002c.008.165.022.461.022.834 0 .345.012.723.092 1.105.021.104.158.114.245-.006.016-.023.034-.046.052-.068l3.756-4.608a1.501 1.501 0 0 1 2.111-.215Z" fill="url(#G)"/><rect width="3.002" height="8.946" rx="1.501" transform="scale(-1 1) rotate(-45 11.17 49.002)" fill="url(#H)"/><rect width="3.002" height="8.946" rx="1.501" transform="scale(-1 1) rotate(-45 11.17 49.002)" fill="url(#I)"/><path d="M29.709 18.017a1.5 1.5 0 0 1 0 2.123l-.62.62c-.327.035-.644.179-.895.43l-3.584 3.583a1.501 1.501 0 0 1-1.227-2.553l4.203-4.203a1.501 1.501 0 0 1 2.123 0Z" fill="url(#J)"/><path d="M29.709 18.017a1.5 1.5 0 0 1 0 2.123l-.62.62c-.327.035-.644.179-.895.43l-3.584 3.583a1.501 1.501 0 0 1-1.227-2.553l4.203-4.203a1.501 1.501 0 0 1 2.123 0Z" fill="url(#K)"/><path d="M29.709 18.017a1.5 1.5 0 0 1 0 2.123l-.62.62c-.327.035-.644.179-.895.43l-3.584 3.583a1.501 1.501 0 0 1-1.227-2.553l4.203-4.203a1.501 1.501 0 0 1 2.123 0Z" fill="url(#L)"/><rect width="3.002" height="8.946" rx="1.501" transform="scale(-1 1) rotate(-39.184 7.883 45)" fill="url(#M)"/><rect width="3.002" height="8.946" rx="1.501" transform="scale(-1 1) rotate(-39.184 7.883 45)" fill="url(#N)"/><rect width="3.002" height="8.946" rx="1.501" transform="scale(-1 1) rotate(-39.184 7.883 45)" fill="url(#O)"/><rect width="3.002" height="8.946" rx="1.501" transform="scale(-1 1) rotate(-39.184 7.883 45)" fill="url(#P)"/><rect width="3.002" height="8.946" rx="1.501" transform="scale(-1 1) rotate(-39.184 7.883 45)" fill="url(#Q)"/><path d="M26.03 15.547c-.04.254-.145.502-.32.716l-3.755 4.608-.014.016a1.501 1.501 0 0 0 1.885.89l3.76-3.76c.17-.169.368-.29.58-.36l.444-.444a1.501 1.501 0 0 0-2.123-2.123l-.457.457Z" fill="url(#R)"/><path d="M26.03 15.547c-.04.254-.145.502-.32.716l-3.755 4.608-.014.016a1.501 1.501 0 0 0 1.885.89l3.76-3.76c.17-.169.368-.29.58-.36l.444-.444a1.501 1.501 0 0 0-2.123-2.123l-.457.457Z" fill="url(#S)"/><path d="M19.207 16.98a1.565 1.565 0 0 0-3.129-.034 16.98 16.98 0 0 0 .087 3.954l3.562-.86c-.445-.695-.488-1.451-.488-2.097 0-.373-.014-.669-.022-.834a3.746 3.746 0 0 1-.005-.13h-.005Z" fill="url(#T)"/><path d="M19.207 16.98a1.565 1.565 0 0 0-3.129-.034 16.98 16.98 0 0 0 .087 3.954l3.562-.86c-.445-.695-.488-1.451-.488-2.097 0-.373-.014-.669-.022-.834a3.746 3.746 0 0 1-.005-.13h-.005Z" fill="url(#U)"/><g filter="url(#V)"><path d="M16.8 22.658c1.741-.573 2.341-2.05 2.35-2.98.962-.152 3.374-.05 5.029 1.62 1.7 1.716 1.676 3.793 1.608 4.755-.733.705-2.05 1.83-2.996 2.445-1.181.77-3.16.825-4.534-.412-1.212-1.091-1.989-2.516-1.829-4.975a.525.525 0 0 1 .372-.453Z" fill="url(#W)"/></g><g filter="url(#X)"><path d="M18.172 16.704c-.078 1.688.313 2.657.828 3.422" stroke="url(#Y)" stroke-linecap="round"/></g><g filter="url(#Z)"><ellipse cx="24.969" cy="15.102" rx=".732" ry=".609" transform="rotate(48.289 24.969 15.102)" fill="#C9A18D"/></g><g filter="url(#aa)"><ellipse cx="28.006" cy="16" rx=".732" ry=".609" transform="rotate(48.289 28.006 16)" fill="#C9A18D"/></g><g filter="url(#ab)"><ellipse cx="29.081" cy="18.86" rx=".732" ry=".609" transform="rotate(48.289 29.081 18.86)" fill="#C9A18D"/></g><g filter="url(#ac)"><ellipse cx="29.72" cy="22.132" rx=".732" ry=".609" transform="rotate(48.289 29.72 22.132)" fill="#C9A18D"/></g><defs><radialGradient id="b" cx="0" cy="0" r="1" gradientUnits="userSpaceOnUse" gradientTransform="matrix(1.417 15.30233 -13.93528 1.2904 10.022 15.815)"><stop offset=".667" stop-color="#B6887E"/><stop offset="1" stop-color="#A4687B"/></radialGradient><radialGradient id="d" cx="0" cy="0" r="1" gradientUnits="userSpaceOnUse" gradientTransform="rotate(109.664 2.104 12.91) scale(2.4489 1.98054)"><stop stop-color="#B29075"/><stop offset="1" stop-color="#B29075" stop-opacity="0"/></radialGradient><radialGradient id="e" cx="0" cy="0" r="1" gradientUnits="userSpaceOnUse" gradientTransform="matrix(-1.00542 0 0 -3.8359 3.81 24.393)"><stop stop-color="#9F705C"/><stop offset="1" stop-color="#9F705C" stop-opacity="0"/></radialGradient><radialGradient id="f" cx="0" cy="0" r="1" gradientUnits="userSpaceOnUse" gradientTransform="matrix(.01475 1.62104 -2.4028 .02186 2.094 22.065)"><stop stop-color="#97745F"/><stop offset="1" stop-color="#97745F" stop-opacity="0"/></radialGradient><radialGradient id="g" cx="0" cy="0" r="1" gradientUnits="userSpaceOnUse" gradientTransform="matrix(-.84222 .84717 -3.4106 -3.39066 5.694 19.044)"><stop stop-color="#936351"/><stop offset="1" stop-color="#936351" stop-opacity="0"/></radialGradient><radialGradient id="h" cx="0" cy="0" r="1" gradientUnits="userSpaceOnUse" gradientTransform="rotate(42.014 -22.075 10.904) scale(2.44817 4.46103)"><stop stop-color="#94725E"/><stop offset="1" stop-color="#94725E" stop-opacity="0"/></radialGradient><radialGradient id="m" cx="0" cy="0" r="1" gradientUnits="userSpaceOnUse" gradientTransform="rotate(-176.759 4.599 11.008) scale(1.07018 3.84413)"><stop stop-color="#81685B"/><stop offset="1" stop-color="#81685B" stop-opacity="0"/></radialGradient><radialGradient id="n" cx="0" cy="0" r="1" gradientUnits="userSpaceOnUse" gradientTransform="rotate(104.528 -2.034 10.57) scale(2.09748 2.97679)"><stop stop-color="#A68369"/><stop offset="1" stop-color="#A68369" stop-opacity="0"/></radialGradient><radialGradient id="q" cx="0" cy="0" r="1" gradientUnits="userSpaceOnUse" gradientTransform="matrix(-1.20379 1.01584 -4.01535 -4.75826 7.71 17.069)"><stop stop-color="#673F2C"/><stop offset="1" stop-color="#86584C" stop-opacity="0"/></radialGradient><radialGradient id="r" cx="0" cy="0" r="1" gradientUnits="userSpaceOnUse" gradientTransform="rotate(87.51 -5.22 9.66) scale(1.45222 3.17662)"><stop stop-color="#94745E"/><stop offset="1" stop-color="#94745E" stop-opacity="0"/></radialGradient><radialGradient id="u" cx="0" cy="0" r="1" gradientUnits="userSpaceOnUse" gradientTransform="matrix(1.31971 .2445 -.71311 3.84922 12.535 16.49)"><stop stop-color="#7F5949"/><stop offset="1" stop-color="#7F5949" stop-opacity="0"/></radialGradient><radialGradient id="A" cx="0" cy="0" r="1" gradientUnits="userSpaceOnUse" gradientTransform="matrix(-6.03123 2.5769 -2.26094 -5.29174 15.938 21.762)"><stop offset=".184" stop-color="#D19F8E"/><stop offset="1" stop-color="#A67C75" stop-opacity="0"/><stop offset="1" stop-color="#D19F8E" stop-opacity="0"/></radialGradient><radialGradient id="B" cx="0" cy="0" r="1" gradientUnits="userSpaceOnUse" gradientTransform="rotate(-135.346 13.102 11.175) scale(9.65766 9.46757)"><stop offset=".829" stop-color="#A77B6D" stop-opacity="0"/><stop offset="1" stop-color="#A77B6D"/></radialGradient><radialGradient id="F" cx="0" cy="0" r="1" gradientUnits="userSpaceOnUse" gradientTransform="rotate(87.376 1.554 19.593) scale(13.2975 15.1809)"><stop offset=".683" stop-color="#B3827D"/><stop offset="1" stop-color="#9D6179"/></radialGradient><radialGradient id="H" cx="0" cy="0" r="1" gradientUnits="userSpaceOnUse" gradientTransform="matrix(-.91703 .05524 -.17617 -2.92472 3.007 2.852)"><stop stop-color="#8C5C4E"/><stop offset="1" stop-color="#8C5C4E" stop-opacity="0"/></radialGradient><radialGradient id="I" cx="0" cy="0" r="1" gradientUnits="userSpaceOnUse" gradientTransform="rotate(84.035 1.166 .273) scale(2.97713 2.70004)"><stop stop-color="#BE997B"/><stop offset="1" stop-color="#BE997B" stop-opacity="0"/></radialGradient><radialGradient id="J" cx="0" cy="0" r="1" gradientUnits="userSpaceOnUse" gradientTransform="matrix(.99749 .90947 -2.87886 3.15745 26.152 18.981)"><stop stop-color="#885848"/><stop offset="1" stop-color="#885848" stop-opacity="0"/></radialGradient><radialGradient id="K" cx="0" cy="0" r="1" gradientUnits="userSpaceOnUse" gradientTransform="rotate(142.024 12.087 13.867) scale(2.84402 7.08403)"><stop stop-color="#C29C7D"/><stop offset="1" stop-color="#C29C7D" stop-opacity="0"/></radialGradient><radialGradient id="L" cx="0" cy="0" r="1" gradientUnits="userSpaceOnUse" gradientTransform="rotate(-130.786 18.793 4.9) scale(1.05246 2.26293)"><stop stop-color="#94645C"/><stop offset="1" stop-color="#94645C" stop-opacity="0"/></radialGradient><radialGradient id="N" cx="0" cy="0" r="1" gradientUnits="userSpaceOnUse" gradientTransform="matrix(-.6366 -.0351 .12294 -2.22962 3.208 7.246)"><stop stop-color="#70483D"/><stop offset="1" stop-color="#70483D" stop-opacity="0"/></radialGradient><radialGradient id="Q" cx="0" cy="0" r="1" gradientUnits="userSpaceOnUse" gradientTransform="rotate(85.171 .733 .594) scale(2.56364 2.32504)"><stop stop-color="#C09B7D"/><stop offset="1" stop-color="#C09B7D" stop-opacity="0"/></radialGradient><radialGradient id="R" cx="0" cy="0" r="1" gradientUnits="userSpaceOnUse" gradientTransform="matrix(.99155 .76912 -3.04015 3.91936 24.504 17.484)"><stop stop-color="#7A5038"/><stop offset="1" stop-color="#7A5038" stop-opacity="0"/></radialGradient><radialGradient id="S" cx="0" cy="0" r="1" gradientUnits="userSpaceOnUse" gradientTransform="rotate(133.132 11.271 13.672) scale(2.03401 2.19149)"><stop stop-color="#BE997C"/><stop offset="1" stop-color="#BE997C" stop-opacity="0"/></radialGradient><radialGradient id="T" cx="0" cy="0" r="1" gradientUnits="userSpaceOnUse" gradientTransform="matrix(1.56208 .625 -2.78094 6.95045 16 15.86)"><stop stop-color="#835B49"/><stop offset="1" stop-color="#835B49" stop-opacity="0"/></radialGradient><radialGradient id="U" cx="0" cy="0" r="1" gradientUnits="userSpaceOnUse" gradientTransform="rotate(115.829 4.98 13.974) scale(4.89529 3.33547)"><stop stop-color="#BDA088"/><stop offset="1" stop-color="#BDA088" stop-opacity="0"/></radialGradient><radialGradient id="W" cx="0" cy="0" r="1" gradientUnits="userSpaceOnUse" gradientTransform="rotate(-44.654 43.212 -7.057) scale(9.65766 9.46757)"><stop offset=".829" stop-color="#C09887" stop-opacity="0"/><stop offset="1" stop-color="#C09887"/></radialGradient><linearGradient id="c" x1="17.024" y1="21.333" x2="14.003" y2="21.333" gradientUnits="userSpaceOnUse"><stop stop-color="#92675B"/><stop offset="1" stop-color="#92675B" stop-opacity="0"/></linearGradient><linearGradient id="i" x1="4.559" y1="22.813" x2="5.699" y2="21.706" gradientUnits="userSpaceOnUse"><stop stop-color="#9C686B"/><stop offset="1" stop-color="#9C686B" stop-opacity="0"/></linearGradient><linearGradient id="j" x1="7.562" y1="23.33" x2="5.286" y2="21.56" gradientUnits="userSpaceOnUse"><stop stop-color="#B7887F"/><stop offset="1" stop-color="#B7887F" stop-opacity="0"/></linearGradient><linearGradient id="k" x1="8.743" y1="18.238" x2="7.123" y2="18.202" gradientUnits="userSpaceOnUse"><stop stop-color="#B59178"/><stop offset="1" stop-color="#B59178" stop-opacity="0"/></linearGradient><linearGradient id="l" x1="4.915" y1="19.197" x2="7.501" y2="19.23" gradientUnits="userSpaceOnUse"><stop stop-color="#8C5758"/><stop offset="1" stop-color="#8C5758" stop-opacity="0"/></linearGradient><linearGradient id="o" x1="4.335" y1="20.079" x2="6.951" y2="20.245" gradientUnits="userSpaceOnUse"><stop stop-color="#9C686B"/><stop offset="1" stop-color="#9C686B" stop-opacity="0"/></linearGradient><linearGradient id="p" x1="6.717" y1="23.74" x2="6.828" y2="19.834" gradientUnits="userSpaceOnUse"><stop offset=".438" stop-color="#B7887F"/><stop offset="1" stop-color="#B7887F" stop-opacity="0"/></linearGradient><linearGradient id="s" x1="5.622" y1="19.886" x2="6.762" y2="18.795" gradientUnits="userSpaceOnUse"><stop stop-color="#9C686B"/><stop offset="1" stop-color="#9C686B" stop-opacity="0"/></linearGradient><linearGradient id="t" x1="8.702" y1="21.075" x2="6.291" y2="18.64" gradientUnits="userSpaceOnUse"><stop stop-color="#B7887F"/><stop offset="1" stop-color="#B7887F" stop-opacity="0"/></linearGradient><linearGradient id="D" x1="14.961" y1="14.579" x2="14.961" y2="23.142" gradientUnits="userSpaceOnUse"><stop stop-color="#CCA48F"/><stop offset="1" stop-color="#CCA48F" stop-opacity="0"/></linearGradient><linearGradient id="G" x1="14.976" y1="21.333" x2="17.998" y2="21.333" gradientUnits="userSpaceOnUse"><stop stop-color="#794A3F"/><stop offset="1" stop-color="#794A3F" stop-opacity="0"/></linearGradient><linearGradient id="M" x1="3.487" y1="2.897" x2="1.377" y2="3.112" gradientUnits="userSpaceOnUse"><stop stop-color="#836354"/><stop offset="1" stop-color="#836354" stop-opacity="0"/></linearGradient><linearGradient id="O" x1="-.382" y1="4.38" x2="1.071" y2="4.328" gradientUnits="userSpaceOnUse"><stop stop-color="#9A6961"/><stop offset="1" stop-color="#754845" stop-opacity="0"/><stop offset="1" stop-color="#AC7A7B" stop-opacity="0"/></linearGradient><linearGradient id="P" x1="1.442" y1="6.148" x2="1.368" y2="7.822" gradientUnits="userSpaceOnUse"><stop stop-color="#B4827E" stop-opacity="0"/><stop offset="1" stop-color="#B4827E"/></linearGradient><linearGradient id="Y" x1="18.033" y1="13.662" x2="18.033" y2="22.225" gradientUnits="userSpaceOnUse"><stop stop-color="#C49D87"/><stop offset="1" stop-color="#C49D87" stop-opacity="0"/></linearGradient><filter id="a" x="1.245" y="13.564" width="15.006" height="16.453" filterUnits="userSpaceOnUse" color-interpolation-filters="sRGB"><feFlood flood-opacity="0" result="BackgroundImageFix"/><feBlend in="SourceGraphic" in2="BackgroundImageFix" result="shape"/><feColorMatrix in="SourceAlpha" values="0 0 0 0 0 0 0 0 0 0 0 0 0 0 0 0 0 0 127 0" result="hardAlpha"/><feOffset dx=".25" dy="-.25"/><feGaussianBlur stdDeviation="1"/><feComposite in2="hardAlpha" operator="arithmetic" k2="-1" k3="1"/><feColorMatrix values="0 0 0 0 0.572549 0 0 0 0 0.34902 0 0 0 0 0.45098 0 0 0 1 0"/><feBlend in2="shape" result="effect1_innerShadow_20020_3718"/><feColorMatrix in="SourceAlpha" values="0 0 0 0 0 0 0 0 0 0 0 0 0 0 0 0 0 0 127 0" result="hardAlpha"/><feOffset dx=".1" dy="-.1"/><feGaussianBlur stdDeviation=".25"/><feComposite in2="hardAlpha" operator="arithmetic" k2="-1" k3="1"/><feColorMatrix values="0 0 0 0 0.611765 0 0 0 0 0.443137 0 0 0 0 0.505882 0 0 0 1 0"/><feBlend in2="effect1_innerShadow_20020_3718" result="effect2_innerShadow_20020_3718"/></filter><filter id="v" x="1.918" y="20.398" width="5.111" height="5.631" filterUnits="userSpaceOnUse" color-interpolation-filters="sRGB"><feFlood flood-opacity="0" result="BackgroundImageFix"/><feBlend in="SourceGraphic" in2="BackgroundImageFix" result="shape"/><feGaussianBlur stdDeviation=".375" result="effect1_foregroundBlur_20020_3718"/></filter><filter id="w" x="2.402" y="17.306" width="5.111" height="5.631" filterUnits="userSpaceOnUse" color-interpolation-filters="sRGB"><feFlood flood-opacity="0" result="BackgroundImageFix"/><feBlend in="SourceGraphic" in2="BackgroundImageFix" result="shape"/><feGaussianBlur stdDeviation=".375" result="effect1_foregroundBlur_20020_3718"/></filter><filter id="x" x="3.429" y="14.495" width="6.581" height="7.282" filterUnits="userSpaceOnUse" color-interpolation-filters="sRGB"><feFlood flood-opacity="0" result="BackgroundImageFix"/><feBlend in="SourceGraphic" in2="BackgroundImageFix" result="shape"/><feGaussianBlur stdDeviation=".375" result="effect1_foregroundBlur_20020_3718"/></filter><filter id="y" x="6.255" y="13.387" width="7.294" height="7.977" filterUnits="userSpaceOnUse" color-interpolation-filters="sRGB"><feFlood flood-opacity="0" result="BackgroundImageFix"/><feBlend in="SourceGraphic" in2="BackgroundImageFix" result="shape"/><feGaussianBlur stdDeviation=".5" result="effect1_foregroundBlur_20020_3718"/></filter><filter id="z" x="5.191" y="18.627" width="11.402" height="11.423" filterUnits="userSpaceOnUse" color-interpolation-filters="sRGB"><feFlood flood-opacity="0" result="BackgroundImageFix"/><feBlend in="SourceGraphic" in2="BackgroundImageFix" result="shape"/><feGaussianBlur stdDeviation=".5" result="effect1_foregroundBlur_20020_3718"/></filter><filter id="C" x="13.407" y="15.611" width="3.108" height="9.031" filterUnits="userSpaceOnUse" color-interpolation-filters="sRGB"><feFlood flood-opacity="0" result="BackgroundImageFix"/><feBlend in="SourceGraphic" in2="BackgroundImageFix" result="shape"/><feGaussianBlur stdDeviation=".5" result="effect1_foregroundBlur_20020_3718"/></filter><filter id="E" x="16" y="13.564" width="15.006" height="16.453" filterUnits="userSpaceOnUse" color-interpolation-filters="sRGB"><feFlood flood-opacity="0" result="BackgroundImageFix"/><feBlend in="SourceGraphic" in2="BackgroundImageFix" result="shape"/><feColorMatrix in="SourceAlpha" values="0 0 0 0 0 0 0 0 0 0 0 0 0 0 0 0 0 0 127 0" result="hardAlpha"/><feOffset dx=".25" dy="-.25"/><feGaussianBlur stdDeviation="1"/><feComposite in2="hardAlpha" operator="arithmetic" k2="-1" k3="1"/><feColorMatrix values="0 0 0 0 0.572549 0 0 0 0 0.376471 0 0 0 0 0.34902 0 0 0 1 0"/><feBlend in2="shape" result="effect1_innerShadow_20020_3718"/></filter><filter id="V" x="15.407" y="18.627" width="11.402" height="11.423" filterUnits="userSpaceOnUse" color-interpolation-filters="sRGB"><feFlood flood-opacity="0" result="BackgroundImageFix"/><feBlend in="SourceGraphic" in2="BackgroundImageFix" result="shape"/><feGaussianBlur stdDeviation=".5" result="effect1_foregroundBlur_20020_3718"/></filter><filter id="X" x="17.162" y="15.704" width="2.838" height="5.422" filterUnits="userSpaceOnUse" color-interpolation-filters="sRGB"><feFlood flood-opacity="0" result="BackgroundImageFix"/><feBlend in="SourceGraphic" in2="BackgroundImageFix" result="shape"/><feGaussianBlur stdDeviation=".25" result="effect1_foregroundBlur_20020_3718"/></filter><filter id="Z" x="23.302" y="13.421" width="3.333" height="3.361" filterUnits="userSpaceOnUse" color-interpolation-filters="sRGB"><feFlood flood-opacity="0" result="BackgroundImageFix"/><feBlend in="SourceGraphic" in2="BackgroundImageFix" result="shape"/><feGaussianBlur stdDeviation=".5" result="effect1_foregroundBlur_20020_3718"/></filter><filter id="aa" x="26.339" y="14.319" width="3.333" height="3.361" filterUnits="userSpaceOnUse" color-interpolation-filters="sRGB"><feFlood flood-opacity="0" result="BackgroundImageFix"/><feBlend in="SourceGraphic" in2="BackgroundImageFix" result="shape"/><feGaussianBlur stdDeviation=".5" result="effect1_foregroundBlur_20020_3718"/></filter><filter id="ab" x="27.415" y="17.179" width="3.333" height="3.361" filterUnits="userSpaceOnUse" color-interpolation-filters="sRGB"><feFlood flood-opacity="0" result="BackgroundImageFix"/><feBlend in="SourceGraphic" in2="BackgroundImageFix" result="shape"/><feGaussianBlur stdDeviation=".5" result="effect1_foregroundBlur_20020_3718"/></filter><filter id="ac" x="28.053" y="20.451" width="3.333" height="3.361" filterUnits="userSpaceOnUse" color-interpolation-filters="sRGB"><feFlood flood-opacity="0" result="BackgroundImageFix"/><feBlend in="SourceGraphic" in2="BackgroundImageFix" result="shape"/><feGaussianBlur stdDeviation=".5" result="effect1_foregroundBlur_20020_3718"/></filter></defs></svg>