<svg xmlns="http://www.w3.org/2000/svg" fill="none" viewBox="0 0 32 32"><g filter="url(#orange-book_svg__a)"><path fill="url(#orange-book_svg__b)" d="M6.625 1.684H25a2 2 0 0 1 2 2v22H6.625z"/><path fill="url(#orange-book_svg__c)" d="M6.625 1.684H25a2 2 0 0 1 2 2v22H6.625z"/></g><path fill="url(#orange-book_svg__d)" d="M5.5 26.184H27v2.5h-.5l-.5.5H5.5z"/><path fill="url(#orange-book_svg__e)" d="M5.5 26.184H27v2.5h-.5l-.5.5H5.5z"/><path fill="url(#orange-book_svg__f)" d="M6.5 1.684a1.5 1.5 0 0 0-1.5 1.5v24.5h1a1 1 0 0 1 1-1h1v-25z"/><g filter="url(#orange-book_svg__g)"><path fill="url(#orange-book_svg__h)" d="M6.5 25.684a1.5 1.5 0 0 0-1.5 1.5v1a1.5 1.5 0 0 0 1.5 1.5h19.408c.653 0 1.092-.334 1.092-1H7a1 1 0 1 1 0-2h20v-1z"/></g><defs><linearGradient id="orange-book_svg__b" x1="17.5" x2="17.5" y1="1.684" y2="25.684" gradientUnits="userSpaceOnUse"><stop stop-color="#E6752E"/><stop offset="1" stop-color="#E34F2F"/></linearGradient><linearGradient id="orange-book_svg__c" x1="27.156" x2="25.188" y1="5.215" y2="5.497" gradientUnits="userSpaceOnUse"><stop offset=".014" stop-color="#FF9865"/><stop offset="1" stop-color="#F68345" stop-opacity="0"/></linearGradient><linearGradient id="orange-book_svg__d" x1="6.721" x2="26.819" y1="28.1" y2="28.1" gradientUnits="userSpaceOnUse"><stop stop-color="#D5BCEB"/><stop offset="1" stop-color="#DCCCED"/><stop offset="1" stop-color="#E3D3F2"/></linearGradient><linearGradient id="orange-book_svg__e" x1="16.25" x2="16.25" y1="26.422" y2="27.842" gradientUnits="userSpaceOnUse"><stop stop-color="#9F84AE"/><stop offset="1" stop-color="#C5B1D6" stop-opacity="0"/></linearGradient><linearGradient id="orange-book_svg__f" x1="5.205" x2="7.563" y1="16.422" y2="16.434" gradientUnits="userSpaceOnUse"><stop stop-color="#BE2C53"/><stop offset="1" stop-color="#C02D56"/></linearGradient><linearGradient id="orange-book_svg__h" x1="6.431" x2="27" y1="28.648" y2="28.616" gradientUnits="userSpaceOnUse"><stop stop-color="#A71A59"/><stop offset="1" stop-color="#A51B5A"/></linearGradient><filter id="orange-book_svg__a" width="20.375" height="24.1" x="6.625" y="1.684" color-interpolation-filters="sRGB" filterUnits="userSpaceOnUse"><feFlood flood-opacity="0" result="BackgroundImageFix"/><feBlend in="SourceGraphic" in2="BackgroundImageFix" result="shape"/><feColorMatrix in="SourceAlpha" result="hardAlpha" values="0 0 0 0 0 0 0 0 0 0 0 0 0 0 0 0 0 0 127 0"/><feOffset dy=".1"/><feGaussianBlur stdDeviation=".25"/><feComposite in2="hardAlpha" k2="-1" k3="1" operator="arithmetic"/><feColorMatrix values="0 0 0 0 0.839216 0 0 0 0 0.384314 0 0 0 0 0.0745098 0 0 0 1 0"/><feBlend in2="shape" result="effect1_innerShadow_18_20839"/></filter><filter id="orange-book_svg__g" width="22" height="4.1" x="5" y="25.684" color-interpolation-filters="sRGB" filterUnits="userSpaceOnUse"><feFlood flood-opacity="0" result="BackgroundImageFix"/><feBlend in="SourceGraphic" in2="BackgroundImageFix" result="shape"/><feColorMatrix in="SourceAlpha" result="hardAlpha" values="0 0 0 0 0 0 0 0 0 0 0 0 0 0 0 0 0 0 127 0"/><feOffset dy=".1"/><feGaussianBlur stdDeviation=".15"/><feComposite in2="hardAlpha" k2="-1" k3="1" operator="arithmetic"/><feColorMatrix values="0 0 0 0 0.635294 0 0 0 0 0 0 0 0 0 0.337255 0 0 0 1 0"/><feBlend in2="shape" result="effect1_innerShadow_18_20839"/></filter></defs></svg>