<svg xmlns="http://www.w3.org/2000/svg" fill="none" viewBox="0 0 32 32"><path fill="url(#palm-down-hand-light_svg__a)" d="M15.116 17.828a2.19 2.19 0 0 1-1.738-2.552l.94-5.121 4.268.8-.942 5.12a2.17 2.17 0 0 1-2.528 1.753"/><path fill="url(#palm-down-hand-light_svg__b)" d="M15.116 17.828a2.19 2.19 0 0 1-1.738-2.552l.94-5.121 4.268.8-.942 5.12a2.17 2.17 0 0 1-2.528 1.753"/><path fill="url(#palm-down-hand-light_svg__c)" d="M15.116 17.828a2.19 2.19 0 0 1-1.738-2.552l.94-5.121 4.268.8-.942 5.12a2.17 2.17 0 0 1-2.528 1.753"/><path fill="url(#palm-down-hand-light_svg__d)" d="M15.116 17.828a2.19 2.19 0 0 1-1.738-2.552l.94-5.121 4.268.8-.942 5.12a2.17 2.17 0 0 1-2.528 1.753"/><path fill="url(#palm-down-hand-light_svg__e)" d="M18.875 19.884a2.193 2.193 0 0 1-1.962-2.399l.52-5.185 4.357.437-.52 5.185a2.186 2.186 0 0 1-2.395 1.962"/><path fill="url(#palm-down-hand-light_svg__f)" d="M18.875 19.884a2.193 2.193 0 0 1-1.962-2.399l.52-5.185 4.357.437-.52 5.185a2.186 2.186 0 0 1-2.395 1.962"/><path fill="url(#palm-down-hand-light_svg__g)" d="M18.875 19.884a2.193 2.193 0 0 1-1.962-2.399l.52-5.185 4.357.437-.52 5.185a2.186 2.186 0 0 1-2.395 1.962"/><path fill="url(#palm-down-hand-light_svg__h)" d="M18.875 19.884a2.193 2.193 0 0 1-1.962-2.399l.52-5.185 4.357.437-.52 5.185a2.186 2.186 0 0 1-2.395 1.962"/><path fill="url(#palm-down-hand-light_svg__i)" d="M24.034 20.596a2.19 2.19 0 0 1-2.552-1.753l-1.127-6.012 4.479.088.953 5.124a2.193 2.193 0 0 1-1.753 2.553"/><path fill="url(#palm-down-hand-light_svg__j)" d="M24.034 20.596a2.19 2.19 0 0 1-2.552-1.753l-1.127-6.012 4.479.088.953 5.124a2.193 2.193 0 0 1-1.753 2.553"/><g filter="url(#palm-down-hand-light_svg__k)"><path fill="url(#palm-down-hand-light_svg__l)" d="M12.766 16.73c0-1.7.886-2.574 2.398-3.078.977-.211 4.531-.149 4.531-.149 1.133 0 1.78.448 2.438 1.055l3.758 3.21c.984.907 2.484 1.12 3.492.079 1.053-1.085.937-2.734-.344-3.844l-5.765-4.987c-1.3-1.17-1.922-1.818-4.31-1.818H9.993c-4.828-.029-7.777 2.93-7.777 6.805 0 2.344 2.082 4.807 3.684 6.469l1.718 1.633c1.362 1.207 3.133 2.226 4.977 2.226h1.828c.59 0 1.052-.058 1.79.383.904.543 2.33.42 3.077-.328.652-.652.85-1.587.504-2.444-.601-1.497-2.262-2.126-3.879-2.439l-1.125-.156c-1.445-.102-2.023-1.734-2.023-2.616"/></g><path fill="url(#palm-down-hand-light_svg__m)" d="M12.766 16.73c0-1.7.886-2.574 2.398-3.078.977-.211 4.531-.149 4.531-.149 1.133 0 1.78.448 2.438 1.055l3.758 3.21c.984.907 2.484 1.12 3.492.079 1.053-1.085.937-2.734-.344-3.844l-5.765-4.987c-1.3-1.17-1.922-1.818-4.31-1.818H9.993c-4.828-.029-7.777 2.93-7.777 6.805 0 2.344 2.082 4.807 3.684 6.469l1.718 1.633c1.362 1.207 3.133 2.226 4.977 2.226h1.828c.59 0 1.052-.058 1.79.383.904.543 2.33.42 3.077-.328.652-.652.85-1.587.504-2.444-.601-1.497-2.262-2.126-3.879-2.439l-1.125-.156c-1.445-.102-2.023-1.734-2.023-2.616"/><g filter="url(#palm-down-hand-light_svg__n)"><path fill="#FFE5CB" d="m21.836 10.025 6.408 5.047a.821.821 0 0 1-.994 1.307l-5.917-4.337a2 2 0 0 0-1.424-.372l-4.645.566a4 4 0 0 0-3.517 3.97v.561a4 4 0 0 0 .962 2.601l.106.125a3 3 0 0 0 1.947 1.03l1.77.198a3 3 0 0 1 1.727.8l.789.744a.682.682 0 0 1-.905 1.02l-.391-.328a3 3 0 0 0-1.923-.697h-2.002a4 4 0 0 1-2.725-1.071L7.54 17.874a4 4 0 0 1-1.171-3.835l.18-.772a5 5 0 0 1 4.722-3.864l7.972-.234a4 4 0 0 1 2.593.856"/></g><defs><radialGradient id="palm-down-hand-light_svg__a" cx="0" cy="0" r="1" gradientTransform="rotate(-72.957 19.073 -1.982)scale(3.96133 3.0891)" gradientUnits="userSpaceOnUse"><stop stop-color="#BC7C7C"/><stop offset="1" stop-color="#B26B63"/></radialGradient><radialGradient id="palm-down-hand-light_svg__c" cx="0" cy="0" r="1" gradientTransform="matrix(.75091 4.71875 -3.94577 .6279 15.213 13.613)" gradientUnits="userSpaceOnUse"><stop offset=".69" stop-color="#B7798C" stop-opacity="0"/><stop offset=".909" stop-color="#B7798C"/></radialGradient><radialGradient id="palm-down-hand-light_svg__e" cx="0" cy="0" r="1" gradientTransform="rotate(-82.942 20.707 -.747)scale(8.25115 2.21235)" gradientUnits="userSpaceOnUse"><stop stop-color="#D79F98"/><stop offset="1" stop-color="#C78980"/></radialGradient><radialGradient id="palm-down-hand-light_svg__f" cx="0" cy="0" r="1" gradientTransform="rotate(96.831 4.04 15.444)scale(6.87836 5.87923)" gradientUnits="userSpaceOnUse"><stop offset=".825" stop-color="#B57B8F" stop-opacity="0"/><stop offset=".965" stop-color="#B57B8F"/></radialGradient><radialGradient id="palm-down-hand-light_svg__g" cx="0" cy="0" r="1" gradientTransform="rotate(-56.092 26.32 -5.708)scale(7.22011 7.09831)" gradientUnits="userSpaceOnUse"><stop offset=".635" stop-color="#B46D68" stop-opacity="0"/><stop offset=".901" stop-color="#B46D68"/></radialGradient><radialGradient id="palm-down-hand-light_svg__i" cx="0" cy="0" r="1" gradientTransform="matrix(-1.95584 -7.1769 1.55997 -.42512 24.31 20.633)" gradientUnits="userSpaceOnUse"><stop stop-color="#DBA39E"/><stop offset="1" stop-color="#C88982"/></radialGradient><radialGradient id="palm-down-hand-light_svg__j" cx="0" cy="0" r="1" gradientTransform="matrix(-1.11676 7.14566 -4.4133 -.68973 24.293 13.488)" gradientUnits="userSpaceOnUse"><stop offset=".872" stop-color="#BD8090" stop-opacity="0"/><stop offset=".996" stop-color="#BD8090"/></radialGradient><radialGradient id="palm-down-hand-light_svg__m" cx="0" cy="0" r="1" gradientTransform="rotate(24.814 -24.069 12.44)scale(6.40373 9.01085)" gradientUnits="userSpaceOnUse"><stop stop-color="#F4BDA1"/><stop offset="1" stop-color="#F4BDA1" stop-opacity="0"/></radialGradient><linearGradient id="palm-down-hand-light_svg__b" x1="17.255" x2="15.963" y1="17.532" y2="17.423" gradientUnits="userSpaceOnUse"><stop stop-color="#AD685D"/><stop offset="1" stop-color="#AD685D" stop-opacity="0"/></linearGradient><linearGradient id="palm-down-hand-light_svg__d" x1="13.24" x2="14.159" y1="15.306" y2="15.481" gradientUnits="userSpaceOnUse"><stop stop-color="#D59381"/><stop offset="1" stop-color="#D59381" stop-opacity="0"/></linearGradient><linearGradient id="palm-down-hand-light_svg__h" x1="21.554" x2="20.172" y1="17.183" y2="17.505" gradientUnits="userSpaceOnUse"><stop stop-color="#AD6B5B"/><stop offset="1" stop-color="#AD6B5B" stop-opacity="0"/></linearGradient><linearGradient id="palm-down-hand-light_svg__l" x1="9.586" x2="23.633" y1="22.503" y2="11.929" gradientUnits="userSpaceOnUse"><stop stop-color="#EFB8A5"/><stop offset="1" stop-color="#FFD3BA"/></linearGradient><filter id="palm-down-hand-light_svg__k" width="29.13" height="19.251" x="2.215" y="5.948" color-interpolation-filters="sRGB" filterUnits="userSpaceOnUse"><feFlood flood-opacity="0" result="BackgroundImageFix"/><feBlend in="SourceGraphic" in2="BackgroundImageFix" result="shape"/><feColorMatrix in="SourceAlpha" result="hardAlpha" values="0 0 0 0 0 0 0 0 0 0 0 0 0 0 0 0 0 0 127 0"/><feOffset dx="1.25" dy="-1.25"/><feGaussianBlur stdDeviation=".75"/><feComposite in2="hardAlpha" k2="-1" k3="1" operator="arithmetic"/><feColorMatrix values="0 0 0 0 0.870588 0 0 0 0 0.639216 0 0 0 0 0.615686 0 0 0 1 0"/><feBlend in2="shape" result="effect1_innerShadow_20020_6772"/><feColorMatrix in="SourceAlpha" result="hardAlpha" values="0 0 0 0 0 0 0 0 0 0 0 0 0 0 0 0 0 0 127 0"/><feOffset dy="-.4"/><feGaussianBlur stdDeviation=".625"/><feComposite in2="hardAlpha" k2="-1" k3="1" operator="arithmetic"/><feColorMatrix values="0 0 0 0 0.701961 0 0 0 0 0.458824 0 0 0 0 0.521569 0 0 0 1 0"/><feBlend in2="effect1_innerShadow_20020_6772" result="effect2_innerShadow_20020_6772"/><feColorMatrix in="SourceAlpha" result="hardAlpha" values="0 0 0 0 0 0 0 0 0 0 0 0 0 0 0 0 0 0 127 0"/><feOffset dx=".15" dy=".15"/><feGaussianBlur stdDeviation=".25"/><feComposite in2="hardAlpha" k2="-1" k3="1" operator="arithmetic"/><feColorMatrix values="0 0 0 0 0.878431 0 0 0 0 0.717647 0 0 0 0 0.615686 0 0 0 1 0"/><feBlend in2="effect2_innerShadow_20020_6772" result="effect3_innerShadow_20020_6772"/></filter><filter id="palm-down-hand-light_svg__n" width="27.292" height="19.276" x="3.764" y="6.667" color-interpolation-filters="sRGB" filterUnits="userSpaceOnUse"><feFlood flood-opacity="0" result="BackgroundImageFix"/><feBlend in="SourceGraphic" in2="BackgroundImageFix" result="shape"/><feGaussianBlur result="effect1_foregroundBlur_20020_6772" stdDeviation="1.25"/></filter></defs></svg>