<svg width="32" height="32" fill="none" xmlns="http://www.w3.org/2000/svg"><path d="M21.357 12.066H10.653C5.871 12.066 2 15.947 2 20.729a8.65 8.65 0 0 0 8.653 8.653h10.694A8.65 8.65 0 0 0 30 20.73a8.643 8.643 0 0 0-8.643-8.663Z" fill="url(#a)"/><g filter="url(#b)"><path d="M21.283 12.484H10.758c-4.701 0-8.508 3.67-8.508 8.193 0 4.521 3.807 8.182 8.508 8.182h10.515c4.702 0 8.508-3.66 8.508-8.182.01-4.522-3.796-8.193-8.498-8.193Z" fill="url(#c)"/></g><g filter="url(#d)"><path d="M21.417 14.823H10.593l-6.582 1.89v2.562a6.581 6.581 0 0 0 6.582 6.582h10.814a6.581 6.581 0 0 0 6.582-6.582v-2.561l-6.572-1.891Z" fill="url(#e)"/></g><path d="M21.417 14.287H10.593l-6.582 1.89v2.561a6.581 6.581 0 0 0 6.582 6.583h10.814a6.581 6.581 0 0 0 6.582-6.583v-2.56l-6.572-1.891Z" fill="url(#f)"/><path d="M21.417 9.195H10.593a6.581 6.581 0 0 0-6.582 6.582 6.581 6.581 0 0 0 6.582 6.583h10.814a6.581 6.581 0 0 0 6.582-6.583 6.566 6.566 0 0 0-6.572-6.582Z" fill="url(#g)"/><path d="M21.417 9.195H10.593a6.581 6.581 0 0 0-6.582 6.582 6.581 6.581 0 0 0 6.582 6.583h10.814a6.581 6.581 0 0 0 6.582-6.583 6.566 6.566 0 0 0-6.572-6.582Z" fill="url(#h)"/><path d="M21.417 9.195H10.593a6.581 6.581 0 0 0-6.582 6.582 6.581 6.581 0 0 0 6.582 6.583h10.814a6.581 6.581 0 0 0 6.582-6.583 6.566 6.566 0 0 0-6.572-6.582Z" fill="url(#i)"/><path d="M21.417 8.515H10.593l-6.582 1.9v2.562a6.581 6.581 0 0 0 6.582 6.582h10.814a6.581 6.581 0 0 0 6.582-6.583v-2.56l-6.572-1.901Z" fill="url(#j)"/><path d="M21.416 3.422H10.592a6.581 6.581 0 0 0-6.582 6.583 6.581 6.581 0 0 0 6.582 6.582h10.814a6.581 6.581 0 0 0 6.583-6.582c.01-3.631-2.942-6.583-6.573-6.583Z" fill="url(#k)"/><g filter="url(#l)"><path d="M18.375 3.579h-7.688c-3.578 0-6.468 2.95-6.468 6.582 0 3.641 2.9 6.582 6.468 6.582h7.688V3.58Z" fill="url(#m)"/><path d="M18.375 3.579h-7.688c-3.578 0-6.468 2.95-6.468 6.582 0 3.641 2.9 6.582 6.468 6.582h7.688V3.58Z" fill="url(#n)"/><path d="M18.375 3.579h-7.688c-3.578 0-6.468 2.95-6.468 6.582 0 3.641 2.9 6.582 6.468 6.582h7.688V3.58Z" fill="url(#o)"/></g><path d="M19.436 6.204h-6.872a3.689 3.689 0 0 0-3.692 3.691c0 1.67 1.11 3.091 2.641 3.542.46.14.77.57.77 1.05v5.812c0 .71.55 1.31 1.261 1.33.72.01 1.31-.57 1.31-1.28v-5.672c0-.6.48-1.08 1.081-1.08.6 0 1.08.48 1.08 1.08v1.65c0 .71.55 1.311 1.26 1.331.721.01 1.311-.57 1.311-1.28v-1.841c0-.49.32-.93.8-1.06a3.692 3.692 0 0 0 2.762-3.572 3.714 3.714 0 0 0-3.712-3.701Z" fill="url(#p)"/><path d="M19.436 6.204h-6.872a3.689 3.689 0 0 0-3.692 3.691c0 1.67 1.11 3.091 2.641 3.542.46.14.77.57.77 1.05v5.812c0 .71.55 1.31 1.261 1.33.72.01 1.31-.57 1.31-1.28v-5.672c0-.6.48-1.08 1.081-1.08.6 0 1.08.48 1.08 1.08v1.65c0 .71.55 1.311 1.26 1.331.721.01 1.311-.57 1.311-1.28v-1.841c0-.49.32-.93.8-1.06a3.692 3.692 0 0 0 2.762-3.572 3.714 3.714 0 0 0-3.712-3.701Z" fill="#884734"/><path d="M19.436 6.204h-6.872a3.689 3.689 0 0 0-3.692 3.691c0 1.67 1.11 3.091 2.641 3.542.46.14.77.57.77 1.05v5.812c0 .71.55 1.31 1.261 1.33.72.01 1.31-.57 1.31-1.28v-5.672c0-.6.48-1.08 1.081-1.08.6 0 1.08.48 1.08 1.08v1.65c0 .71.55 1.311 1.26 1.331.721.01 1.311-.57 1.311-1.28v-1.841c0-.49.32-.93.8-1.06a3.692 3.692 0 0 0 2.762-3.572 3.714 3.714 0 0 0-3.712-3.701Z" fill="url(#q)"/><g filter="url(#r)"><path d="M8.953 9.805c0 1.595 1.154 2.747 2.653 3.177.45.133.755.544.755 1.003v5.979c0 .678.538 1.236 1.234 1.255.705.01 1.155-.369 1.155-1.047v-6.094c0-.573.599-1.031 1.187-1.031.587 0 1.22.458 1.22 1.031v2.14c0 .679.376 1.279 1.072 1.298.705.01 1.283-.62 1.283-1.297v-2.16c0-.468.314-.888.784-1.012 1.558-.392 2.798-1.608 2.798-3.242 0-5.946-14.14-5.858-14.14 0Z" fill="url(#s)"/><path d="M8.953 9.805c0 1.595 1.154 2.747 2.653 3.177.45.133.755.544.755 1.003v5.979c0 .678.538 1.236 1.234 1.255.705.01 1.155-.369 1.155-1.047v-6.094c0-.573.599-1.031 1.187-1.031.587 0 1.22.458 1.22 1.031v2.14c0 .679.376 1.279 1.072 1.298.705.01 1.283-.62 1.283-1.297v-2.16c0-.468.314-.888.784-1.012 1.558-.392 2.798-1.608 2.798-3.242 0-5.946-14.14-5.858-14.14 0Z" fill="url(#t)"/><path d="M8.953 9.805c0 1.595 1.154 2.747 2.653 3.177.45.133.755.544.755 1.003v5.979c0 .678.538 1.236 1.234 1.255.705.01 1.155-.369 1.155-1.047v-6.094c0-.573.599-1.031 1.187-1.031.587 0 1.22.458 1.22 1.031v2.14c0 .679.376 1.279 1.072 1.298.705.01 1.283-.62 1.283-1.297v-2.16c0-.468.314-.888.784-1.012 1.558-.392 2.798-1.608 2.798-3.242 0-5.946-14.14-5.858-14.14 0Z" fill="url(#u)"/><path d="M8.953 9.805c0 1.595 1.154 2.747 2.653 3.177.45.133.755.544.755 1.003v5.979c0 .678.538 1.236 1.234 1.255.705.01 1.155-.369 1.155-1.047v-6.094c0-.573.599-1.031 1.187-1.031.587 0 1.22.458 1.22 1.031v2.14c0 .679.376 1.279 1.072 1.298.705.01 1.283-.62 1.283-1.297v-2.16c0-.468.314-.888.784-1.012 1.558-.392 2.798-1.608 2.798-3.242 0-5.946-14.14-5.858-14.14 0Z" fill="url(#v)"/><path d="M8.953 9.805c0 1.595 1.154 2.747 2.653 3.177.45.133.755.544.755 1.003v5.979c0 .678.538 1.236 1.234 1.255.705.01 1.155-.369 1.155-1.047v-6.094c0-.573.599-1.031 1.187-1.031.587 0 1.22.458 1.22 1.031v2.14c0 .679.376 1.279 1.072 1.298.705.01 1.283-.62 1.283-1.297v-2.16c0-.468.314-.888.784-1.012 1.558-.392 2.798-1.608 2.798-3.242 0-5.946-14.14-5.858-14.14 0Z" fill="url(#w)"/><path d="M8.953 9.805c0 1.595 1.154 2.747 2.653 3.177.45.133.755.544.755 1.003v5.979c0 .678.538 1.236 1.234 1.255.705.01 1.155-.369 1.155-1.047v-6.094c0-.573.599-1.031 1.187-1.031.587 0 1.22.458 1.22 1.031v2.14c0 .679.376 1.279 1.072 1.298.705.01 1.283-.62 1.283-1.297v-2.16c0-.468.314-.888.784-1.012 1.558-.392 2.798-1.608 2.798-3.242 0-5.946-14.14-5.858-14.14 0Z" fill="url(#x)"/><path d="M8.953 9.805c0 1.595 1.154 2.747 2.653 3.177.45.133.755.544.755 1.003v5.979c0 .678.538 1.236 1.234 1.255.705.01 1.155-.369 1.155-1.047v-6.094c0-.573.599-1.031 1.187-1.031.587 0 1.22.458 1.22 1.031v2.14c0 .679.376 1.279 1.072 1.298.705.01 1.283-.62 1.283-1.297v-2.16c0-.468.314-.888.784-1.012 1.558-.392 2.798-1.608 2.798-3.242 0-5.946-14.14-5.858-14.14 0Z" fill="url(#y)"/></g><g filter="url(#z)"><path d="M11.479 7.266v.375c0 .421.192.843.576 1.08l3.037 1.79c.567.36 1.269.36 1.826 0l3.037-1.79c.384-.247.576-.669.576-1.08v-.375H11.48Z" fill="#733919"/></g><path d="m17.405 5.113-.45-.27c-.59-.35-1.32-.35-1.9 0l-.45.27h-3.312v2.1c0 .41.2.82.6 1.05l3.162 1.871c.59.35 1.32.35 1.9 0l3.162-1.87c.4-.24.6-.65.6-1.05V5.112h-3.311Z" fill="url(#A)"/><path d="m17.405 5.113-.45-.27c-.59-.35-1.32-.35-1.9 0l-.45.27h-3.312v2.1c0 .41.2.82.6 1.05l3.162 1.871c.59.35 1.32.35 1.9 0l3.162-1.87c.4-.24.6-.65.6-1.05V5.112h-3.311Z" fill="url(#B)"/><path d="m15.055 2.263-3.162 1.87c-.8.47-.8 1.63 0 2.111l3.162 1.87c.59.35 1.32.35 1.9 0l3.162-1.87c.8-.47.8-1.63 0-2.11l-3.162-1.871c-.59-.35-1.31-.35-1.9 0Z" fill="url(#C)"/><circle cx="22.492" cy="26.922" r="1.492" fill="url(#D)"/><circle cx="24.52" cy="25.857" r=".536" fill="url(#E)"/><g filter="url(#F)"><path d="M19.516 13.375c.718-.625 3.468-1.453 3.234-4-.625 1.781-1.02 2.302-2.625 2.656-1.203.266-1.281 1.203-1.281 1.688l.11 3.047h.327c.088-.529-.1-3.1.235-3.391Z" fill="url(#G)"/></g><g filter="url(#H)"><path d="M13.828 17.047a.25.25 0 0 0 .5 0h-.5Zm3.455-2.764a.25.25 0 1 0 .5 0h-.5Zm-2.955 2.764v-2.764h-.5v2.764h.5Zm0-2.764c0-.308.159-.697.44-1.012.28-.313.65-.521 1.044-.521v-.5c-.574 0-1.07.3-1.416.688-.344.384-.568.887-.568 1.345h.5Zm1.485-1.533c.388 0 .755.218 1.034.541.281.326.436.716.436.992h.5c0-.428-.222-.93-.558-1.319-.339-.392-.832-.714-1.413-.714v.5Z" fill="url(#I)"/></g><g filter="url(#J)"><path d="M21.36 16.438c2.39 0 5.734-1.579 6.39-4.985" stroke="url(#K)" stroke-width=".3" stroke-linecap="round"/></g><g filter="url(#L)"><path d="M23.782 28.281c2.218-.593 5-2.875 5.843-6.812" stroke="url(#M)" stroke-width=".3" stroke-linecap="round"/></g><g filter="url(#N)"><path d="M20.695 5.273c0 .282-.189.665-.539.915-.35.25-2.416 1.375-3.562 2.03-.25.143-.82.235-1.336-.124" stroke="url(#O)" stroke-width=".3" stroke-linecap="round"/></g><defs><radialGradient id="h" cx="0" cy="0" r="1" gradientUnits="userSpaceOnUse" gradientTransform="matrix(0 5.34759 -13.25 0 16 15.777)"><stop offset=".661" stop-color="#99512C"/><stop offset="1" stop-color="#A6572F" stop-opacity="0"/></radialGradient><radialGradient id="i" cx="0" cy="0" r="1" gradientUnits="userSpaceOnUse" gradientTransform="matrix(2.875 0 0 2.85976 12.25 19.5)"><stop stop-color="#934A28"/><stop offset="1" stop-color="#934A28" stop-opacity="0"/></radialGradient><radialGradient id="n" cx="0" cy="0" r="1" gradientUnits="userSpaceOnUse" gradientTransform="matrix(4.5 4.3125 -3.8858 4.05475 9.875 9.813)"><stop stop-color="#B38258"/><stop offset=".768" stop-color="#BB8F65" stop-opacity="0"/></radialGradient><radialGradient id="o" cx="0" cy="0" r="1" gradientUnits="userSpaceOnUse" gradientTransform="matrix(2.375 0 0 4.25084 12.813 15.438)"><stop stop-color="#AF774E"/><stop offset="1" stop-color="#AF774E" stop-opacity="0"/></radialGradient><radialGradient id="p" cx="0" cy="0" r="1" gradientUnits="userSpaceOnUse" gradientTransform="matrix(-12.43744 5.12507 -4.74283 -11.50981 20.5 10.063)"><stop offset=".025" stop-color="#9D623C"/><stop offset="1" stop-color="#82523E"/></radialGradient><radialGradient id="s" cx="0" cy="0" r="1" gradientUnits="userSpaceOnUse" gradientTransform="rotate(158.112 9.241 6.95) scale(13.1267 11.9293)"><stop offset=".025" stop-color="#9D623C"/><stop offset="1" stop-color="#82523E"/></radialGradient><radialGradient id="t" cx="0" cy="0" r="1" gradientUnits="userSpaceOnUse" gradientTransform="matrix(3.45827 1.87983 -1.00439 1.84774 13.644 9)"><stop stop-color="#764326"/><stop offset="1" stop-color="#733E21" stop-opacity="0"/></radialGradient><radialGradient id="u" cx="0" cy="0" r="1" gradientUnits="userSpaceOnUse" gradientTransform="matrix(-3.62501 4.18749 -4.06664 -3.5204 10.75 6.75)"><stop stop-color="#724D3D"/><stop offset="1" stop-color="#724C3B" stop-opacity="0"/></radialGradient><radialGradient id="v" cx="0" cy="0" r="1" gradientUnits="userSpaceOnUse" gradientTransform="rotate(-165.256 10.472 7.637) scale(2.45586 1.62495)"><stop stop-color="#8A4654"/><stop offset="1" stop-color="#8C4756" stop-opacity="0"/></radialGradient><radialGradient id="w" cx="0" cy="0" r="1" gradientUnits="userSpaceOnUse" gradientTransform="matrix(0 -3.375 1.27037 0 13.156 19.875)"><stop stop-color="#884B4F"/><stop offset="1" stop-color="#864453" stop-opacity="0"/></radialGradient><radialGradient id="x" cx="0" cy="0" r="1" gradientUnits="userSpaceOnUse" gradientTransform="matrix(-.1875 1.09374 -.6735 -.11546 13.906 16.063)"><stop stop-color="#A37665"/><stop offset="1" stop-color="#A57867" stop-opacity="0"/></radialGradient><radialGradient id="y" cx="0" cy="0" r="1" gradientUnits="userSpaceOnUse" gradientTransform="matrix(-.28125 .9375 -.65123 -.19537 18.89 15.734)"><stop stop-color="#A67968"/><stop offset="1" stop-color="#A87B68" stop-opacity="0"/></radialGradient><radialGradient id="B" cx="0" cy="0" r="1" gradientUnits="userSpaceOnUse" gradientTransform="matrix(0 3 -3.44251 0 16.005 10.938)"><stop stop-color="#DBA529"/><stop offset="1" stop-color="#D9A32B" stop-opacity="0"/></radialGradient><radialGradient id="D" cx="0" cy="0" r="1" gradientUnits="userSpaceOnUse" gradientTransform="matrix(-2.98437 0 0 -2.82658 23.577 26.922)"><stop stop-color="#A06740"/><stop offset=".705" stop-color="#8E512E"/></radialGradient><radialGradient id="E" cx="0" cy="0" r="1" gradientUnits="userSpaceOnUse" gradientTransform="matrix(-1.07227 0 0 -1.01557 24.91 25.857)"><stop stop-color="#A06740"/><stop offset=".705" stop-color="#8E512E"/></radialGradient><radialGradient id="G" cx="0" cy="0" r="1" gradientUnits="userSpaceOnUse" gradientTransform="matrix(0 7.80469 -4.14003 0 20.804 13.07)"><stop stop-color="#AD7C68"/><stop offset="1" stop-color="#AC7B65" stop-opacity="0"/></radialGradient><radialGradient id="K" cx="0" cy="0" r="1" gradientUnits="userSpaceOnUse" gradientTransform="rotate(-43.55 31.009 -24.942) scale(3.49246 1.84992)"><stop stop-color="#EFB992"/><stop offset=".449" stop-color="#F1BD92"/><stop offset=".988" stop-color="#F0BC8F" stop-opacity="0"/></radialGradient><radialGradient id="M" cx="0" cy="0" r="1" gradientUnits="userSpaceOnUse" gradientTransform="rotate(-51.506 40.303 -15.015) scale(5.62974 2.98202)"><stop stop-color="#EBE1F0"/><stop offset=".449" stop-color="#EBE2F0"/><stop offset=".988" stop-color="#E8DFEC" stop-opacity="0"/></radialGradient><radialGradient id="O" cx="0" cy="0" r="1" gradientUnits="userSpaceOnUse" gradientTransform="matrix(2.8872 -1.6592 .824 1.43385 18.188 7.313)"><stop stop-color="#F0D151"/><stop offset=".449" stop-color="#F2D359"/><stop offset=".988" stop-color="#F3D357" stop-opacity="0"/></radialGradient><linearGradient id="a" x1="2" y1="21.125" x2="30" y2="21.125" gradientUnits="userSpaceOnUse"><stop stop-color="#BBB7BC"/><stop offset=".1" stop-color="#AD95C2"/><stop offset=".232" stop-color="#C3A0E2"/><stop offset=".804" stop-color="#C9A6E7"/><stop offset="1" stop-color="#D8D0DF"/></linearGradient><linearGradient id="c" x1="2.813" y1="20.125" x2="30.125" y2="20.125" gradientUnits="userSpaceOnUse"><stop stop-color="#BEB4B6"/><stop offset=".158" stop-color="#DBCED5"/><stop offset=".485" stop-color="#DFCDD2"/><stop offset=".822" stop-color="#DFD1D6"/><stop offset="1" stop-color="#E3D8CD"/></linearGradient><linearGradient id="e" x1="16" y1="14.823" x2="16" y2="26.563" gradientUnits="userSpaceOnUse"><stop offset=".886" stop-color="#B49D9F"/><stop offset="1" stop-color="#B49D9F" stop-opacity="0"/></linearGradient><linearGradient id="f" x1="4.011" y1="19.188" x2="27.989" y2="19.188" gradientUnits="userSpaceOnUse"><stop stop-color="#B88C43"/><stop offset=".156" stop-color="#C69039"/><stop offset=".325" stop-color="#D99F3F"/><stop offset=".758" stop-color="#D9A734"/><stop offset="1" stop-color="#ECD34C"/></linearGradient><linearGradient id="g" x1="4.563" y1="17.875" x2="27.989" y2="17.875" gradientUnits="userSpaceOnUse"><stop stop-color="#A96E44"/><stop offset=".147" stop-color="#B8784C"/><stop offset=".339" stop-color="#BA774B"/><stop offset=".59" stop-color="#D68C56"/><stop offset=".819" stop-color="#E3985D"/><stop offset="1" stop-color="#EAAD74"/></linearGradient><linearGradient id="j" x1="4.563" y1="13.625" x2="27.989" y2="13.625" gradientUnits="userSpaceOnUse"><stop stop-color="#B28C4C"/><stop offset=".133" stop-color="#B97F33"/><stop offset=".283" stop-color="#BD7628"/><stop offset=".491" stop-color="#C37C28"/><stop offset=".592" stop-color="#D08726"/><stop offset=".696" stop-color="#D6922D"/><stop offset=".816" stop-color="#DEA933"/><stop offset="1" stop-color="#E5CE53"/></linearGradient><linearGradient id="k" x1="4.625" y1="8.813" x2="27.989" y2="8.813" gradientUnits="userSpaceOnUse"><stop stop-color="#CCA275"/><stop offset=".144" stop-color="#D6A87A"/><stop offset=".72" stop-color="#E1B17C"/><stop offset="1" stop-color="#E6B27D"/></linearGradient><linearGradient id="m" x1="7.222" y1="7.965" x2="26.563" y2="7.965" gradientUnits="userSpaceOnUse"><stop offset=".063" stop-color="#D4A778"/><stop offset="1" stop-color="#E7B27D"/></linearGradient><linearGradient id="q" x1="9.625" y1="11.875" x2="23.148" y2="11.875" gradientUnits="userSpaceOnUse"><stop stop-color="#804B33"/><stop offset="1" stop-color="#9F5E3E"/></linearGradient><linearGradient id="A" x1="11.438" y1="7.488" x2="20.717" y2="7.488" gradientUnits="userSpaceOnUse"><stop stop-color="#C7A22B"/><stop offset="1" stop-color="#E8C12E"/></linearGradient><linearGradient id="C" x1="14.398" y1="2.602" x2="17.563" y2="7.625" gradientUnits="userSpaceOnUse"><stop offset=".008" stop-color="#CFBA3A"/><stop offset=".085" stop-color="#D5C137"/><stop offset=".934" stop-color="#E7CE37"/></linearGradient><linearGradient id="I" x1="14.031" y1="13.503" x2="17.75" y2="13.503" gradientUnits="userSpaceOnUse"><stop stop-color="#A27764"/><stop offset=".462" stop-color="#9C6F5E"/><stop offset=".618" stop-color="#6F3F2E"/></linearGradient><filter id="b" x="1.75" y="11.984" width="28.531" height="17.375" filterUnits="userSpaceOnUse" color-interpolation-filters="sRGB"><feFlood flood-opacity="0" result="BackgroundImageFix"/><feBlend in="SourceGraphic" in2="BackgroundImageFix" result="shape"/><feGaussianBlur stdDeviation=".25" result="effect1_foregroundBlur_18_29513"/></filter><filter id="d" x="3.511" y="14.323" width="24.979" height="12.034" filterUnits="userSpaceOnUse" color-interpolation-filters="sRGB"><feFlood flood-opacity="0" result="BackgroundImageFix"/><feBlend in="SourceGraphic" in2="BackgroundImageFix" result="shape"/><feGaussianBlur stdDeviation=".25" result="effect1_foregroundBlur_18_29513"/></filter><filter id="l" x="3.969" y="3.329" width="14.656" height="13.665" filterUnits="userSpaceOnUse" color-interpolation-filters="sRGB"><feFlood flood-opacity="0" result="BackgroundImageFix"/><feBlend in="SourceGraphic" in2="BackgroundImageFix" result="shape"/><feGaussianBlur stdDeviation=".125" result="effect1_foregroundBlur_18_29513"/></filter><filter id="r" x="8.703" y="5.129" width="14.641" height="16.34" filterUnits="userSpaceOnUse" color-interpolation-filters="sRGB"><feFlood flood-opacity="0" result="BackgroundImageFix"/><feBlend in="SourceGraphic" in2="BackgroundImageFix" result="shape"/><feGaussianBlur stdDeviation=".125" result="effect1_foregroundBlur_18_29513"/></filter><filter id="z" x="10.979" y="6.766" width="10.053" height="4.516" filterUnits="userSpaceOnUse" color-interpolation-filters="sRGB"><feFlood flood-opacity="0" result="BackgroundImageFix"/><feBlend in="SourceGraphic" in2="BackgroundImageFix" result="shape"/><feGaussianBlur stdDeviation=".25" result="effect1_foregroundBlur_18_29513"/></filter><filter id="F" x="18.344" y="8.875" width="4.92" height="8.391" filterUnits="userSpaceOnUse" color-interpolation-filters="sRGB"><feFlood flood-opacity="0" result="BackgroundImageFix"/><feBlend in="SourceGraphic" in2="BackgroundImageFix" result="shape"/><feGaussianBlur stdDeviation=".25" result="effect1_foregroundBlur_18_29513"/></filter><filter id="H" x="13.078" y="11.5" width="5.454" height="6.547" filterUnits="userSpaceOnUse" color-interpolation-filters="sRGB"><feFlood flood-opacity="0" result="BackgroundImageFix"/><feBlend in="SourceGraphic" in2="BackgroundImageFix" result="shape"/><feGaussianBlur stdDeviation=".375" result="effect1_foregroundBlur_18_29513"/></filter><filter id="J" x="20.959" y="11.053" width="7.191" height="5.784" filterUnits="userSpaceOnUse" color-interpolation-filters="sRGB"><feFlood flood-opacity="0" result="BackgroundImageFix"/><feBlend in="SourceGraphic" in2="BackgroundImageFix" result="shape"/><feGaussianBlur stdDeviation=".125" result="effect1_foregroundBlur_18_29513"/></filter><filter id="L" x="23.382" y="21.069" width="6.643" height="7.613" filterUnits="userSpaceOnUse" color-interpolation-filters="sRGB"><feFlood flood-opacity="0" result="BackgroundImageFix"/><feBlend in="SourceGraphic" in2="BackgroundImageFix" result="shape"/><feGaussianBlur stdDeviation=".125" result="effect1_foregroundBlur_18_29513"/></filter><filter id="N" x="14.858" y="4.873" width="6.238" height="3.871" filterUnits="userSpaceOnUse" color-interpolation-filters="sRGB"><feFlood flood-opacity="0" result="BackgroundImageFix"/><feBlend in="SourceGraphic" in2="BackgroundImageFix" result="shape"/><feGaussianBlur stdDeviation=".125" result="effect1_foregroundBlur_18_29513"/></filter></defs></svg>