<svg width="32" height="32" fill="none" xmlns="http://www.w3.org/2000/svg"><path d="M23.037 2.506a1.5 1.5 0 0 1 2.121 0l4.363 4.363a1.5 1.5 0 0 1 0 2.121L9.464 29.048l-6.485-6.485L23.038 2.506Z" fill="url(#a)"/><path d="M23.037 2.506a1.5 1.5 0 0 1 2.121 0l4.363 4.363a1.5 1.5 0 0 1 0 2.121L9.464 29.048l-6.485-6.485L23.038 2.506Z" fill="url(#b)"/><path d="M23.037 2.506a1.5 1.5 0 0 1 2.121 0l4.363 4.363a1.5 1.5 0 0 1 0 2.121L9.464 29.048l-6.485-6.485L23.038 2.506Z" fill="url(#c)"/><path d="M23.037 2.506a1.5 1.5 0 0 1 2.121 0l4.363 4.363a1.5 1.5 0 0 1 0 2.121L9.464 29.048l-6.485-6.485L23.038 2.506Z" fill="url(#d)"/><path d="M2.034 29.782a.2.2 0 0 0 .219.218l6.54-.629a1 1 0 0 0 .518-.205l.153-.118-6.484-6.485-.101.122a1 1 0 0 0-.224.543l-.62 6.554Z" fill="url(#e)"/><path d="M2.034 29.782a.2.2 0 0 0 .219.218l6.54-.629a1 1 0 0 0 .518-.205l.153-.118-6.484-6.485-.101.122a1 1 0 0 0-.224.543l-.62 6.554Z" fill="url(#f)"/><path d="M2.034 29.782a.2.2 0 0 0 .219.218l6.54-.629a1 1 0 0 0 .518-.205l.153-.118-6.484-6.485-.101.122a1 1 0 0 0-.224.543l-.62 6.554Z" fill="url(#g)"/><path d="M26.34 12.172 29.52 8.99a1.5 1.5 0 0 0 0-2.121l-4.363-4.363a1.5 1.5 0 0 0-2.121 0l-3.182 3.182 6.485 6.484Z" fill="url(#h)"/><path d="M26.34 12.172 29.52 8.99a1.5 1.5 0 0 0 0-2.121l-4.363-4.363a1.5 1.5 0 0 0-2.121 0l-3.182 3.182 6.485 6.484Z" fill="url(#i)"/><path d="M26.34 12.172 29.52 8.99a1.5 1.5 0 0 0 0-2.121l-4.363-4.363a1.5 1.5 0 0 0-2.121 0l-3.182 3.182 6.485 6.484Z" fill="url(#j)"/><path d="m16.666 8.877 3.19-3.19 6.484 6.485-3.19 3.19-6.484-6.485Z" fill="url(#k)"/><path d="m16.666 8.877 3.19-3.19 6.484 6.485-3.19 3.19-6.484-6.485Z" fill="url(#l)"/><path d="M2.253 30a.2.2 0 0 1-.219-.218l.218-2.3 2.296 2.297L2.253 30Z" fill="url(#m)"/><defs><linearGradient id="b" x1="10.136" y1="14.875" x2="11.699" y2="16.375" gradientUnits="userSpaceOnUse"><stop stop-color="#EE9B6A"/><stop offset="1" stop-color="#EE9B6A" stop-opacity="0"/></linearGradient><linearGradient id="c" x1="20.637" y1="18.5" x2="18.762" y2="16.938" gradientUnits="userSpaceOnUse"><stop stop-color="#E66A62"/><stop offset="1" stop-color="#E66A62" stop-opacity="0"/></linearGradient><linearGradient id="e" x1="3.887" y1="26.094" x2="6.512" y2="30.219" gradientUnits="userSpaceOnUse"><stop stop-color="#D8A587"/><stop offset="1" stop-color="#CE7A98"/></linearGradient><linearGradient id="f" x1="6.98" y1="26.282" x2="6.457" y2="26.812" gradientUnits="userSpaceOnUse"><stop offset=".207" stop-color="#FFC09F"/><stop offset="1" stop-color="#FCB196" stop-opacity="0"/></linearGradient><linearGradient id="g" x1="1.512" y1="25.937" x2="3.637" y2="26.125" gradientUnits="userSpaceOnUse"><stop stop-color="#DEBCA3"/><stop offset="1" stop-color="#DEBCA3" stop-opacity="0"/></linearGradient><linearGradient id="h" x1="28.074" y1="4.938" x2="23.949" y2="9" gradientUnits="userSpaceOnUse"><stop stop-color="#FF6153"/><stop offset="1" stop-color="#FF6154"/></linearGradient><linearGradient id="i" x1="20.762" y1="4.563" x2="24.012" y2="7.563" gradientUnits="userSpaceOnUse"><stop stop-color="#F1553E"/><stop offset="1" stop-color="#F1553E" stop-opacity="0"/></linearGradient><linearGradient id="k" x1="18.324" y1="7.375" x2="22.449" y2="11.125" gradientUnits="userSpaceOnUse"><stop stop-color="#C5C4CB"/><stop offset="1" stop-color="#E8DEFA"/></linearGradient><linearGradient id="l" x1="24.824" y1="14.375" x2="22.512" y2="12.125" gradientUnits="userSpaceOnUse"><stop stop-color="#C9B9E0"/><stop offset="1" stop-color="#C9B9E0" stop-opacity="0"/></linearGradient><linearGradient id="m" x1="2.23" y1="28.531" x2="3.291" y2="30.001" gradientUnits="userSpaceOnUse"><stop stop-color="#461E49"/><stop offset="1" stop-color="#450F51"/></linearGradient><radialGradient id="a" cx="0" cy="0" r="1" gradientUnits="userSpaceOnUse" gradientTransform="matrix(13.74998 -14.06245 8.72293 8.5291 6.199 26)"><stop stop-color="#FF9130"/><stop offset="1" stop-color="#F3633D"/></radialGradient><radialGradient id="d" cx="0" cy="0" r="1" gradientUnits="userSpaceOnUse" gradientTransform="matrix(12.87503 -12.81253 2.8651 2.87908 5.949 25.813)"><stop stop-color="#FF994D"/><stop offset="1" stop-color="#FF994D" stop-opacity="0"/></radialGradient><radialGradient id="j" cx="0" cy="0" r="1" gradientUnits="userSpaceOnUse" gradientTransform="rotate(135 12.398 8.577) scale(1.37002 3.11227)"><stop offset=".177" stop-color="#FF786D"/><stop offset="1" stop-color="#FF786D" stop-opacity="0"/></radialGradient></defs></svg>