<svg xmlns="http://www.w3.org/2000/svg" fill="none" viewBox="0 0 32 32"><g filter="url(#person-golfing_svg__a)"><path fill="url(#person-golfing_svg__b)" fill-rule="evenodd" d="M20.961 7.482c.852-1.083.48-2.214.219-2.678l1.916-1.081c.467.828 1.242 3.027-.406 5.12-.89 1.13-2.33 1.566-3.484 1.752-1.199.194-2.37.159-2.985.135l.084-2.198c.599.023 1.583.047 2.55-.109 1.012-.163 1.746-.484 2.106-.941" clip-rule="evenodd"/></g><g filter="url(#person-golfing_svg__c)"><path fill="#AFA2B8" d="M8.948 12.591a.35.35 0 0 0-.125.474l.88 1.546a1 1 0 0 1-.373 1.364l-.115.065a1 1 0 0 1-1.364-.374l-.728-1.277a1.65 1.65 0 0 1 .617-2.251l.343-.195 16.303-9.709a.4.4 0 0 1 .549.139l.102.172a.4.4 0 0 1-.139.548z"/><path fill="url(#person-golfing_svg__d)" d="M8.948 12.591a.35.35 0 0 0-.125.474l.88 1.546a1 1 0 0 1-.373 1.364l-.115.065a1 1 0 0 1-1.364-.374l-.728-1.277a1.65 1.65 0 0 1 .617-2.251l.343-.195 16.303-9.709a.4.4 0 0 1 .549.139l.102.172a.4.4 0 0 1-.139.548z"/><path fill="url(#person-golfing_svg__e)" d="M8.948 12.591a.35.35 0 0 0-.125.474l.88 1.546a1 1 0 0 1-.373 1.364l-.115.065a1 1 0 0 1-1.364-.374l-.728-1.277a1.65 1.65 0 0 1 .617-2.251l.343-.195 16.303-9.709a.4.4 0 0 1 .549.139l.102.172a.4.4 0 0 1-.139.548z"/></g><path fill="url(#person-golfing_svg__f)" d="M8.948 12.591a.35.35 0 0 0-.125.474l.88 1.546a1 1 0 0 1-.373 1.364l-.115.065a1 1 0 0 1-1.364-.374l-.728-1.277a1.65 1.65 0 0 1 .617-2.251l.343-.195 16.303-9.709a.4.4 0 0 1 .549.139l.102.172a.4.4 0 0 1-.139.548z"/><path fill="url(#person-golfing_svg__g)" d="m21.765 4.959-.5-.866 3.121-1.859a.4.4 0 0 1 .549.139l.102.172a.4.4 0 0 1-.14.548z"/><path fill="url(#person-golfing_svg__h)" d="m21.765 4.959-.5-.866 3.121-1.859a.4.4 0 0 1 .549.139l.102.172a.4.4 0 0 1-.14.548z"/><path fill="url(#person-golfing_svg__i)" d="m21.765 4.959-.5-.866 3.121-1.859a.4.4 0 0 1 .549.139l.102.172a.4.4 0 0 1-.14.548z"/><g filter="url(#person-golfing_svg__j)"><path fill="#4C3765" d="M18.177 29.88v-1.769h2.16c.165.157.79.551 1.504.782.494.13.625.488.63.62v.368z"/></g><path fill="#47385D" d="M11.595 27.49c0-.806.458-1.159.688-1.234l1.367 1.18v1.283a.5.5 0 0 0 .188.39l.203.162c.127.094.296.239.25.415-.082.171-.25.195-.54.195h-1.506a.65.65 0 0 1-.65-.65z"/><path fill="url(#person-golfing_svg__k)" d="M11.595 27.49c0-.806.458-1.159.688-1.234l1.367 1.18v1.283a.5.5 0 0 0 .188.39l.203.162c.127.094.296.239.25.415-.082.171-.25.195-.54.195h-1.506a.65.65 0 0 1-.65-.65z"/><path fill="url(#person-golfing_svg__l)" d="M11.595 27.49c0-.806.458-1.159.688-1.234l1.367 1.18v1.283a.5.5 0 0 0 .188.39l.203.162c.127.094.296.239.25.415-.082.171-.25.195-.54.195h-1.506a.65.65 0 0 1-.65-.65z"/><path fill="url(#person-golfing_svg__m)" d="M11.595 27.49c0-.806.458-1.159.688-1.234l1.367 1.18v1.283a.5.5 0 0 0 .188.39l.203.162c.127.094.296.239.25.415-.082.171-.25.195-.54.195h-1.506a.65.65 0 0 1-.65-.65z"/><path fill="url(#person-golfing_svg__n)" d="M11.595 27.49c0-.806.458-1.159.688-1.234l1.367 1.18v1.283a.5.5 0 0 0 .188.39l.203.162c.127.094.296.239.25.415-.082.171-.25.195-.54.195h-1.506a.65.65 0 0 1-.65-.65z"/><g filter="url(#person-golfing_svg__o)"><path fill="#9785A9" d="M14.522 23.649a1 1 0 0 0 .275-.712l-.167-7.29h6.02l-.313 12.476h-2.156l-.259-10.002a.255.255 0 0 0-.509-.005c-.049 1.196-.13 3.455-.13 4.585 0 1.213-.693 2.214-1.04 2.563l-2.472 2.287a.32.32 0 0 1-.317.082 2.2 2.2 0 0 1-.718-.424c-.252-.225-.439-.553-.547-.795a.36.36 0 0 1 .078-.393z"/></g><path fill="url(#person-golfing_svg__p)" d="M14.522 23.649a1 1 0 0 0 .275-.712l-.167-7.29h6.02l-.313 12.476h-2.156l-.259-10.002a.255.255 0 0 0-.509-.005c-.049 1.196-.13 3.455-.13 4.585 0 1.213-.693 2.214-1.04 2.563l-2.472 2.287a.32.32 0 0 1-.317.082 2.2 2.2 0 0 1-.718-.424c-.252-.225-.439-.553-.547-.795a.36.36 0 0 1 .078-.393z"/><path fill="url(#person-golfing_svg__q)" d="M14.522 23.649a1 1 0 0 0 .275-.712l-.167-7.29h6.02l-.313 12.476h-2.156l-.259-10.002a.255.255 0 0 0-.509-.005c-.049 1.196-.13 3.455-.13 4.585 0 1.213-.693 2.214-1.04 2.563l-2.472 2.287a.32.32 0 0 1-.317.082 2.2 2.2 0 0 1-.718-.424c-.252-.225-.439-.553-.547-.795a.36.36 0 0 1 .078-.393z"/><path fill="url(#person-golfing_svg__r)" d="M14.522 23.649a1 1 0 0 0 .275-.712l-.167-7.29h6.02l-.313 12.476h-2.156l-.259-10.002a.255.255 0 0 0-.509-.005c-.049 1.196-.13 3.455-.13 4.585 0 1.213-.693 2.214-1.04 2.563l-2.472 2.287a.32.32 0 0 1-.317.082 2.2 2.2 0 0 1-.718-.424c-.252-.225-.439-.553-.547-.795a.36.36 0 0 1 .078-.393z"/><path fill="url(#person-golfing_svg__s)" d="M14.522 23.649a1 1 0 0 0 .275-.712l-.167-7.29h6.02l-.313 12.476h-2.156l-.259-10.002a.255.255 0 0 0-.509-.005c-.049 1.196-.13 3.455-.13 4.585 0 1.213-.693 2.214-1.04 2.563l-2.472 2.287a.32.32 0 0 1-.317.082 2.2 2.2 0 0 1-.718-.424c-.252-.225-.439-.553-.547-.795a.36.36 0 0 1 .078-.393z"/><path fill="url(#person-golfing_svg__t)" d="M14.522 23.649a1 1 0 0 0 .275-.712l-.167-7.29h6.02l-.313 12.476h-2.156l-.259-10.002a.255.255 0 0 0-.509-.005c-.049 1.196-.13 3.455-.13 4.585 0 1.213-.693 2.214-1.04 2.563l-2.472 2.287a.32.32 0 0 1-.317.082 2.2 2.2 0 0 1-.718-.424c-.252-.225-.439-.553-.547-.795a.36.36 0 0 1 .078-.393z"/><path fill="url(#person-golfing_svg__u)" d="M14.522 23.649a1 1 0 0 0 .275-.712l-.167-7.29h6.02l-.313 12.476h-2.156l-.259-10.002a.255.255 0 0 0-.509-.005c-.049 1.196-.13 3.455-.13 4.585 0 1.213-.693 2.214-1.04 2.563l-2.472 2.287a.32.32 0 0 1-.317.082 2.2 2.2 0 0 1-.718-.424c-.252-.225-.439-.553-.547-.795a.36.36 0 0 1 .078-.393z"/><path fill="url(#person-golfing_svg__v)" d="M14.522 23.649a1 1 0 0 0 .275-.712l-.167-7.29h6.02l-.313 12.476h-2.156l-.259-10.002a.255.255 0 0 0-.509-.005c-.049 1.196-.13 3.455-.13 4.585 0 1.213-.693 2.214-1.04 2.563l-2.472 2.287a.32.32 0 0 1-.317.082 2.2 2.2 0 0 1-.718-.424c-.252-.225-.439-.553-.547-.795a.36.36 0 0 1 .078-.393z"/><path fill="url(#person-golfing_svg__w)" d="M13.927 9.537c.176-1.285.703-1.862 1-2.07.51-.358 1.664-.946 3.336 0 1.758 1.094 2.404 4.057 2.375 5.375v2.804h-6v-3.242c0-.487-.106-.742-.258-.96-.144-.259-.52-.981-.453-1.907"/><path fill="url(#person-golfing_svg__x)" d="M13.927 9.537c.176-1.285.703-1.862 1-2.07.51-.358 1.664-.946 3.336 0 1.758 1.094 2.404 4.057 2.375 5.375v2.804h-6v-3.242c0-.487-.106-.742-.258-.96-.144-.259-.52-.981-.453-1.907"/><path fill="url(#person-golfing_svg__y)" d="M13.927 9.537c.176-1.285.703-1.862 1-2.07.51-.358 1.664-.946 3.336 0 1.758 1.094 2.404 4.057 2.375 5.375v2.804h-6v-3.242c0-.487-.106-.742-.258-.96-.144-.259-.52-.981-.453-1.907"/><path fill="url(#person-golfing_svg__z)" d="M13.927 9.537c.176-1.285.703-1.862 1-2.07.51-.358 1.664-.946 3.336 0 1.758 1.094 2.404 4.057 2.375 5.375v2.804h-6v-3.242c0-.487-.106-.742-.258-.96-.144-.259-.52-.981-.453-1.907"/><path fill="url(#person-golfing_svg__A)" d="M13.927 9.537c.176-1.285.703-1.862 1-2.07.51-.358 1.664-.946 3.336 0 1.758 1.094 2.404 4.057 2.375 5.375v2.804h-6v-3.242c0-.487-.106-.742-.258-.96-.144-.259-.52-.981-.453-1.907"/><rect width=".692" height="1.157" x="20.651" y="3.74" fill="url(#person-golfing_svg__B)" rx=".346" transform="rotate(-26.783 20.65 3.74)"/><rect width=".692" height="1.157" x="21.084" y="3.48" fill="url(#person-golfing_svg__C)" rx=".346" transform="rotate(-26.783 21.084 3.48)"/><rect width=".692" height="1.157" x="21.603" y="3.234" fill="url(#person-golfing_svg__D)" rx=".346" transform="rotate(-26.783 21.603 3.234)"/><rect width=".692" height="1.157" x="22.173" y="2.98" fill="url(#person-golfing_svg__E)" rx=".346" transform="rotate(-26.783 22.173 2.98)"/><rect width=".737" height="1.252" x="21.976" y="4.011" fill="url(#person-golfing_svg__F)" rx=".369" transform="rotate(60 21.976 4.011)"/><g filter="url(#person-golfing_svg__G)"><path fill="#FFC131" d="M19.317 5.693a.5.5 0 0 0-.015-.254 5 5 0 0 0-.227-.523c-.02-.089-.025-.29.11-.39a.36.36 0 0 1 .336-.055.45.45 0 0 1 .207-.286c.134-.071.298-.03.363 0 .018-.066.09-.208.23-.246a.52.52 0 0 1 .356.059c.04-.076.169-.224.36-.215.238.012.374.262.41.45.035.187.093.433.152.577.058.145.117.606-.09 1.2h-.001c-.454 1.884-1.492 3.103-2.664 3.853-1.184.758-2.454 1.008-3.297 1.082a1.1 1.1 0 1 1-.193-2.191c.636-.056 1.522-.243 2.304-.744.682-.437 1.327-1.135 1.66-2.317"/><path fill="url(#person-golfing_svg__H)" d="M19.317 5.693a.5.5 0 0 0-.015-.254 5 5 0 0 0-.227-.523c-.02-.089-.025-.29.11-.39a.36.36 0 0 1 .336-.055.45.45 0 0 1 .207-.286c.134-.071.298-.03.363 0 .018-.066.09-.208.23-.246a.52.52 0 0 1 .356.059c.04-.076.169-.224.36-.215.238.012.374.262.41.45.035.187.093.433.152.577.058.145.117.606-.09 1.2h-.001c-.454 1.884-1.492 3.103-2.664 3.853-1.184.758-2.454 1.008-3.297 1.082a1.1 1.1 0 1 1-.193-2.191c.636-.056 1.522-.243 2.304-.744.682-.437 1.327-1.135 1.66-2.317"/></g><g filter="url(#person-golfing_svg__I)"><path fill="url(#person-golfing_svg__J)" d="M16.001 8.572a2.8 2.8 0 0 0 .848-.215l.859 2.196c-.234.12-1.715.593-2.54.43-.823-.165-1.018-1.196-.73-1.739.274-.61 1.119-.63 1.563-.672"/><path fill="url(#person-golfing_svg__K)" d="M16.001 8.572a2.8 2.8 0 0 0 .848-.215l.859 2.196c-.234.12-1.715.593-2.54.43-.823-.165-1.018-1.196-.73-1.739.274-.61 1.119-.63 1.563-.672"/><path fill="url(#person-golfing_svg__L)" d="M16.001 8.572a2.8 2.8 0 0 0 .848-.215l.859 2.196c-.234.12-1.715.593-2.54.43-.823-.165-1.018-1.196-.73-1.739.274-.61 1.119-.63 1.563-.672"/></g><path fill="url(#person-golfing_svg__M)" d="M16.702 5.614a.7.7 0 0 0 .28-.28l.17.347a.9.9 0 0 1-.131.994 1.7 1.7 0 0 0-.086-.501z"/><path fill="url(#person-golfing_svg__N)" d="M16.702 5.614a.7.7 0 0 0 .28-.28l.17.347a.9.9 0 0 1-.131.994 1.7 1.7 0 0 0-.086-.501z"/><path fill="url(#person-golfing_svg__O)" d="M13.089 7.384a.7.7 0 0 1-.393.05l.17.346c.163.332.505.53.866.506a1.7 1.7 0 0 1-.343-.375z"/><path fill="url(#person-golfing_svg__P)" d="M13.089 7.384a.7.7 0 0 1-.393.05l.17.346c.163.332.505.53.866.506a1.7 1.7 0 0 1-.343-.375z"/><path fill="url(#person-golfing_svg__Q)" d="m12.46 6.81-.538-1.039.45-.671.714 1.062z"/><path fill="url(#person-golfing_svg__R)" d="m16.695 4.67-.539-1.078-.847.047.648 1.32z"/><g filter="url(#person-golfing_svg__S)"><path fill="url(#person-golfing_svg__T)" d="M13.378 7.94a1.62 1.62 0 0 0 2.064.559l.701-.343a1.62 1.62 0 0 0 .825-1.974c-.3-.721-.597-1.44-.907-2.156a.6.6 0 0 0-.773-.28l-.52.254a1 1 0 0 1-1.085-.134.275.275 0 0 0-.305-.043l-.473.232a1.39 1.39 0 0 0-.627 1.864c.339.691.715 1.35 1.1 2.022"/></g><path fill="url(#person-golfing_svg__U)" d="M13.378 7.94a1.62 1.62 0 0 0 2.064.559l.701-.343a1.62 1.62 0 0 0 .825-1.974c-.3-.721-.597-1.44-.907-2.156a.6.6 0 0 0-.773-.28l-.52.254a1 1 0 0 1-1.085-.134.275.275 0 0 0-.305-.043l-.473.232a1.39 1.39 0 0 0-.627 1.864c.339.691.715 1.35 1.1 2.022"/><path fill="url(#person-golfing_svg__V)" d="M13.378 7.94a1.62 1.62 0 0 0 2.064.559l.701-.343a1.62 1.62 0 0 0 .825-1.974c-.3-.721-.597-1.44-.907-2.156a.6.6 0 0 0-.773-.28l-.52.254a1 1 0 0 1-1.085-.134.275.275 0 0 0-.305-.043l-.473.232a1.39 1.39 0 0 0-.627 1.864c.339.691.715 1.35 1.1 2.022"/><path fill="url(#person-golfing_svg__W)" d="M13.378 7.94a1.62 1.62 0 0 0 2.064.559l.701-.343a1.62 1.62 0 0 0 .825-1.974c-.3-.721-.597-1.44-.907-2.156a.6.6 0 0 0-.773-.28l-.52.254a1 1 0 0 1-1.085-.134.275.275 0 0 0-.305-.043l-.473.232a1.39 1.39 0 0 0-.627 1.864c.339.691.715 1.35 1.1 2.022"/><path fill="url(#person-golfing_svg__X)" d="M13.378 7.94a1.62 1.62 0 0 0 2.064.559l.701-.343a1.62 1.62 0 0 0 .825-1.974c-.3-.721-.597-1.44-.907-2.156a.6.6 0 0 0-.773-.28l-.52.254a1 1 0 0 1-1.085-.134.275.275 0 0 0-.305-.043l-.473.232a1.39 1.39 0 0 0-.627 1.864c.339.691.715 1.35 1.1 2.022"/><path fill="url(#person-golfing_svg__Y)" d="M13.378 7.94a1.62 1.62 0 0 0 2.064.559l.701-.343a1.62 1.62 0 0 0 .825-1.974c-.3-.721-.597-1.44-.907-2.156a.6.6 0 0 0-.773-.28l-.52.254a1 1 0 0 1-1.085-.134.275.275 0 0 0-.305-.043l-.473.232a1.39 1.39 0 0 0-.627 1.864c.339.691.715 1.35 1.1 2.022"/><g filter="url(#person-golfing_svg__Z)"><path fill="#EE9020" d="m14.393 5.93.098.799c.029.16.195.253.332.186l.292-.143c.137-.067.164-.257.056-.376l-.532-.586c-.117-.13-.276-.053-.246.12"/></g><g filter="url(#person-golfing_svg__aa)"><path fill="url(#person-golfing_svg__ab)" d="m14.396 5.839.137.78c.028.16.194.253.33.186l.293-.143c.137-.067.164-.258.056-.376l-.532-.587c-.117-.13-.314-.034-.284.14"/><path fill="url(#person-golfing_svg__ac)" d="m14.396 5.839.137.78c.028.16.194.253.33.186l.293-.143c.137-.067.164-.258.056-.376l-.532-.587c-.117-.13-.314-.034-.284.14"/><path fill="url(#person-golfing_svg__ad)" d="m14.396 5.839.137.78c.028.16.194.253.33.186l.293-.143c.137-.067.164-.258.056-.376l-.532-.587c-.117-.13-.314-.034-.284.14"/><path fill="url(#person-golfing_svg__ae)" d="m14.396 5.839.137.78c.028.16.194.253.33.186l.293-.143c.137-.067.164-.258.056-.376l-.532-.587c-.117-.13-.314-.034-.284.14"/></g><path fill="url(#person-golfing_svg__af)" d="M15.195 7.111a1.24 1.24 0 0 1-.575.13c-.063 0-.09.083-.035.114a.78.78 0 0 0 .742.026.78.78 0 0 0 .435-.602c.008-.064-.073-.093-.112-.042-.11.15-.264.28-.455.374"/><g filter="url(#person-golfing_svg__ag)"><path fill="#C05029" d="M15.547 4.435a.8.8 0 0 0-.33-.027c-.131.02-.277.08-.462.2a.115.115 0 1 0 .126.192c.168-.11.283-.152.37-.165a.54.54 0 0 1 .237.022.115.115 0 1 0 .059-.222"/></g><g filter="url(#person-golfing_svg__ah)"><path fill="#C05029" d="M12.872 5.695q.036-.056.108-.14c.099-.107.252-.233.473-.31a.115.115 0 0 1 .075.217.92.92 0 0 0-.483.39l-.004.007v.002a.115.115 0 0 1-.206-.102z"/></g><path fill="#fff" d="M15.253 4.98a.58.58 0 0 1 .697.147.113.113 0 0 1-.038.176l-.829.406a.095.095 0 0 1-.134-.06.58.58 0 0 1 .304-.668"/><path fill="url(#person-golfing_svg__ai)" d="M15.226 5.12a.37.37 0 0 1 .525.262l-.64.314a.37.37 0 0 1 .116-.576"/><path fill="#000" d="M15.198 5.544a.21.21 0 0 1 .097-.283.21.21 0 0 1 .305.195l-.336.164a.2.2 0 0 1-.066-.076"/><g filter="url(#person-golfing_svg__aj)"><path fill="#C7A7A3" d="M15.236 5.201c.039.02.008.083-.027.153s-.063.119-.102.099c-.04-.02-.042-.093-.006-.162.035-.07.096-.11.135-.09"/><path fill="url(#person-golfing_svg__ak)" d="M15.236 5.201c.039.02.008.083-.027.153s-.063.119-.102.099c-.04-.02-.042-.093-.006-.162.035-.07.096-.11.135-.09"/></g><g filter="url(#person-golfing_svg__al)"><path fill="url(#person-golfing_svg__am)" d="M15.662 5.262a.35.35 0 0 0-.17-.13l-.044.154.085.063z"/></g><path fill="#fff" d="M13.477 5.851a.58.58 0 0 0-.311.64c.015.073.095.11.161.078l.83-.406a.095.095 0 0 0 .034-.142.58.58 0 0 0-.715-.17"/><path fill="url(#person-golfing_svg__an)" d="M13.603 5.914a.37.37 0 0 0-.115.576l.641-.314a.372.372 0 0 0-.526-.262"/><path fill="#000" d="M13.955 6.153a.21.21 0 0 0-.283-.097.21.21 0 0 0-.033.36l.336-.165a.2.2 0 0 0-.02-.098"/><g filter="url(#person-golfing_svg__ao)"><path fill="url(#person-golfing_svg__ap)" d="M14.049 6.059c-.053-.108-.175-.136-.209-.146l-.056.156.131.102z"/></g><g filter="url(#person-golfing_svg__aq)" transform="rotate(-54.009 13.572 6.105)"><ellipse cx="13.572" cy="6.105" fill="#C7A7A3" fill-opacity=".9" rx=".161" ry=".082"/><ellipse cx="13.572" cy="6.105" fill="url(#person-golfing_svg__ar)" rx=".161" ry=".082"/></g><path fill="url(#person-golfing_svg__as)" d="M16.741 5.637q-.253-.61-.512-1.22a.666.666 0 0 1 .512 1.22"/><path fill="url(#person-golfing_svg__at)" d="M16.741 5.637q-.253-.61-.512-1.22a.666.666 0 0 1 .512 1.22"/><path fill="url(#person-golfing_svg__au)" d="M16.741 5.637q-.253-.61-.512-1.22a.666.666 0 0 1 .512 1.22"/><path fill="url(#person-golfing_svg__av)" d="M12.451 6.264a.666.666 0 0 0 .634 1.164c-.218-.386-.432-.77-.634-1.164"/><path fill="url(#person-golfing_svg__aw)" d="M12.451 6.264a.666.666 0 0 0 .634 1.164c-.218-.386-.432-.77-.634-1.164"/><g filter="url(#person-golfing_svg__ax)"><path fill="#DD8224" d="M12.578 6.506a.396.396 0 0 0 .373.684 33 33 0 0 1-.373-.684"/></g><g filter="url(#person-golfing_svg__ay)"><path fill="#FFC837" d="m16.638 5.388-.305-.728a.396.396 0 0 1 .305.728"/></g><path fill="url(#person-golfing_svg__az)" d="m11.586 5.15.324.625c1.34-1.957 3.175-2.312 4.25-2.172l-.293-.503c-.027-.07-.152-.287-.433-.59-.581-.547-1.315-.403-1.61-.262l-1.601.82c-.126.065-.43.307-.637.754-.269.569-.145 1.082 0 1.328"/><path fill="url(#person-golfing_svg__aA)" d="m11.586 5.15.324.625c1.34-1.957 3.175-2.312 4.25-2.172l-.293-.503c-.027-.07-.152-.287-.433-.59-.581-.547-1.315-.403-1.61-.262l-1.601.82c-.126.065-.43.307-.637.754-.269.569-.145 1.082 0 1.328"/><path fill="url(#person-golfing_svg__aB)" d="m11.586 5.15.324.625c1.34-1.957 3.175-2.312 4.25-2.172l-.293-.503c-.027-.07-.152-.287-.433-.59-.581-.547-1.315-.403-1.61-.262l-1.601.82c-.126.065-.43.307-.637.754-.269.569-.145 1.082 0 1.328"/><path fill="url(#person-golfing_svg__aC)" d="m11.586 5.15.324.625c1.34-1.957 3.175-2.312 4.25-2.172l-.293-.503c-.027-.07-.152-.287-.433-.59-.581-.547-1.315-.403-1.61-.262l-1.601.82c-.126.065-.43.307-.637.754-.269.569-.145 1.082 0 1.328"/><g filter="url(#person-golfing_svg__aD)"><path fill="url(#person-golfing_svg__aE)" d="M13.598 3.97a4.15 4.15 0 0 0-1.692 1.805l.379.134a.42.42 0 0 0 .475-.156c.242-.332.67-.841 1.213-1.118.53-.271 1.194-.362 1.675-.362a.45.45 0 0 0 .448-.349l.064-.332c-.397-.042-1.63-.172-2.562.379"/><path fill="url(#person-golfing_svg__aF)" d="M13.598 3.97a4.15 4.15 0 0 0-1.692 1.805l.379.134a.42.42 0 0 0 .475-.156c.242-.332.67-.841 1.213-1.118.53-.271 1.194-.362 1.675-.362a.45.45 0 0 0 .448-.349l.064-.332c-.397-.042-1.63-.172-2.562.379"/></g><g filter="url(#person-golfing_svg__aG)"><path stroke="#C3B8C3" stroke-linecap="round" stroke-width=".2" d="M8.51 12.615a.53.53 0 0 0 0 .54c.13.237.718 1.277.96 1.714.05.103.111.356-.039.543"/></g><g filter="url(#person-golfing_svg__aH)"><path stroke="url(#person-golfing_svg__aI)" stroke-linecap="square" stroke-width=".8" d="m19.822 16.318-.188 11.188"/></g><g filter="url(#person-golfing_svg__aJ)"><path fill="url(#person-golfing_svg__aK)" d="m16.15 23.256-.375-5.953 1.062.5v5.453z"/></g><defs><radialGradient id="person-golfing_svg__d" cx="0" cy="0" r="1" gradientTransform="rotate(146.915 8.826 5.736)scale(4.92324 2.04943)" gradientUnits="userSpaceOnUse"><stop stop-color="#A99797"/><stop offset="1" stop-color="#A99797" stop-opacity="0"/></radialGradient><radialGradient id="person-golfing_svg__f" cx="0" cy="0" r="1" gradientTransform="matrix(1.4375 -.0625 .23626 5.43402 6.51 13.318)" gradientUnits="userSpaceOnUse"><stop stop-color="#B8ACBD"/><stop offset="1" stop-color="#B8ACBD" stop-opacity="0"/></radialGradient><radialGradient id="person-golfing_svg__i" cx="0" cy="0" r="1" gradientTransform="matrix(-.27344 .16016 -.21807 -.37232 24.841 2.572)" gradientUnits="userSpaceOnUse"><stop offset=".181" stop-color="#615273"/><stop offset="1" stop-color="#615273" stop-opacity="0"/></radialGradient><radialGradient id="person-golfing_svg__l" cx="0" cy="0" r="1" gradientTransform="rotate(-151.821 10.729 12.815)scale(.99265 .52058)" gradientUnits="userSpaceOnUse"><stop stop-color="#403451"/><stop offset="1" stop-color="#403451" stop-opacity="0"/></radialGradient><radialGradient id="person-golfing_svg__m" cx="0" cy="0" r="1" gradientTransform="matrix(-.76562 .85157 -1.15842 -1.0415 12.744 26.67)" gradientUnits="userSpaceOnUse"><stop offset=".115" stop-color="#271938"/><stop offset="1" stop-color="#271938" stop-opacity="0"/></radialGradient><radialGradient id="person-golfing_svg__n" cx="0" cy="0" r="1" gradientTransform="matrix(.8125 .15625 -.58594 3.04687 11.369 28.068)" gradientUnits="userSpaceOnUse"><stop stop-color="#655E6D"/><stop offset="1" stop-color="#655E6D" stop-opacity="0"/></radialGradient><radialGradient id="person-golfing_svg__q" cx="0" cy="0" r="1" gradientTransform="rotate(-42.955 41.696 -2.915)scale(3.71468 1.19248)" gradientUnits="userSpaceOnUse"><stop stop-color="#937DA8"/><stop offset="1" stop-color="#937DA8" stop-opacity="0"/></radialGradient><radialGradient id="person-golfing_svg__r" cx="0" cy="0" r="1" gradientTransform="matrix(2.54688 -2.64063 .2894 .27913 12.275 25.975)" gradientUnits="userSpaceOnUse"><stop offset=".285" stop-color="#9F9C9D"/><stop offset="1" stop-color="#9F9C9D" stop-opacity="0"/></radialGradient><radialGradient id="person-golfing_svg__s" cx="0" cy="0" r="1" gradientTransform="matrix(-.76563 0 0 -5.02098 17.369 21.318)" gradientUnits="userSpaceOnUse"><stop offset=".001" stop-color="#827A8B"/><stop offset="1" stop-color="#827A8B" stop-opacity="0"/></radialGradient><radialGradient id="person-golfing_svg__t" cx="0" cy="0" r="1" gradientTransform="matrix(.04687 -.98437 1.15192 .05485 17.619 17.99)" gradientUnits="userSpaceOnUse"><stop offset=".154" stop-color="#7F5D9D"/><stop offset="1" stop-color="#9C8CAD" stop-opacity="0"/></radialGradient><radialGradient id="person-golfing_svg__u" cx="0" cy="0" r="1" gradientTransform="matrix(.78125 0 0 7.6823 17.978 22.678)" gradientUnits="userSpaceOnUse"><stop stop-color="#5D5467"/><stop offset="1" stop-color="#8C7E97" stop-opacity="0"/></radialGradient><radialGradient id="person-golfing_svg__v" cx="0" cy="0" r="1" gradientTransform="matrix(3.40625 -3.34375 1.20794 1.23052 13.665 27.693)" gradientUnits="userSpaceOnUse"><stop stop-color="#8C6FA7"/><stop offset="1" stop-color="#8C6FA7" stop-opacity="0"/></radialGradient><radialGradient id="person-golfing_svg__w" cx="0" cy="0" r="1" gradientTransform="rotate(150.356 8.617 7.45)scale(4.42262 6.15908)" gradientUnits="userSpaceOnUse"><stop stop-color="#FF8F43"/><stop offset="1" stop-color="#F55E20"/></radialGradient><radialGradient id="person-golfing_svg__x" cx="0" cy="0" r="1" gradientTransform="matrix(.57404 2.73801 -4.6268 .97003 17.279 6.955)" gradientUnits="userSpaceOnUse"><stop offset=".306" stop-color="#E27318"/><stop offset="1" stop-color="#E27318" stop-opacity="0"/></radialGradient><radialGradient id="person-golfing_svg__z" cx="0" cy="0" r="1" gradientTransform="rotate(61.232 1.171 16.75)scale(1.81815 2.96678)" gradientUnits="userSpaceOnUse"><stop offset=".285" stop-color="#DC5502"/><stop offset="1" stop-color="#DC5502" stop-opacity="0"/></radialGradient><radialGradient id="person-golfing_svg__A" cx="0" cy="0" r="1" gradientTransform="matrix(1.71875 -.01563 .0588 6.46896 13.478 10.068)" gradientUnits="userSpaceOnUse"><stop stop-color="#FC8F4D"/><stop offset="1" stop-color="#FC8F4D" stop-opacity="0"/></radialGradient><radialGradient id="person-golfing_svg__B" cx="0" cy="0" r="1" gradientTransform="matrix(.09624 .94236 -.56384 .05758 20.9 3.954)" gradientUnits="userSpaceOnUse"><stop stop-color="#E0A524"/><stop offset="1" stop-color="#BB7701"/></radialGradient><radialGradient id="person-golfing_svg__C" cx="0" cy="0" r="1" gradientTransform="matrix(-.64636 .00475 -.0063 -.85808 21.76 4.148)" gradientUnits="userSpaceOnUse"><stop offset=".183" stop-color="#FDC83C"/><stop offset="1" stop-color="#EAA22A"/></radialGradient><radialGradient id="person-golfing_svg__D" cx="0" cy="0" r="1" gradientTransform="matrix(-.64636 .00475 -.0063 -.85808 22.28 3.902)" gradientUnits="userSpaceOnUse"><stop offset=".183" stop-color="#FDC83C"/><stop offset="1" stop-color="#EAA22A"/></radialGradient><radialGradient id="person-golfing_svg__E" cx="0" cy="0" r="1" gradientTransform="matrix(-.64636 .00475 -.0063 -.85808 22.85 3.648)" gradientUnits="userSpaceOnUse"><stop offset=".183" stop-color="#FDC83C"/><stop offset="1" stop-color="#EAA22A"/></radialGradient><radialGradient id="person-golfing_svg__F" cx="0" cy="0" r="1" gradientTransform="rotate(92.97 9.208 12.701)scale(.47416 .46784)" gradientUnits="userSpaceOnUse"><stop stop-color="#FCC540"/><stop offset=".931" stop-color="#F3AE21"/></radialGradient><radialGradient id="person-golfing_svg__H" cx="0" cy="0" r="1" gradientTransform="matrix(3.80388 .30087 -.62375 7.88601 17.576 5.303)" gradientUnits="userSpaceOnUse"><stop offset=".629" stop-color="#FFD540" stop-opacity="0"/><stop offset="1" stop-color="#FFD540"/></radialGradient><radialGradient id="person-golfing_svg__K" cx="0" cy="0" r="1" gradientTransform="matrix(1.71875 .21242 -.56203 4.5475 14.04 9.475)" gradientUnits="userSpaceOnUse"><stop offset=".204" stop-color="#F78B4B"/><stop offset="1" stop-color="#F78B4B" stop-opacity="0"/></radialGradient><radialGradient id="person-golfing_svg__L" cx="0" cy="0" r="1" gradientTransform="matrix(.04687 .51562 -1.9883 .18075 16.181 8.459)" gradientUnits="userSpaceOnUse"><stop stop-color="#E36512"/><stop offset="1" stop-color="#E36512" stop-opacity="0"/></radialGradient><radialGradient id="person-golfing_svg__M" cx="0" cy="0" r="1" gradientTransform="rotate(77.074 5.077 13.297)scale(1.58458 1.88236)" gradientUnits="userSpaceOnUse"><stop offset=".043" stop-color="#FFC135"/><stop offset="1" stop-color="#E26839"/></radialGradient><radialGradient id="person-golfing_svg__N" cx="0" cy="0" r="1" gradientTransform="rotate(27.805 -2.996 36.482)scale(.20603 .17503)" gradientUnits="userSpaceOnUse"><stop stop-color="#E18C2A"/><stop offset="1" stop-color="#E18C2A" stop-opacity="0"/></radialGradient><radialGradient id="person-golfing_svg__O" cx="0" cy="0" r="1" gradientTransform="matrix(1.20963 1.21552 -.5525 .54983 12.799 7.438)" gradientUnits="userSpaceOnUse"><stop stop-color="#D57A26"/><stop offset="1" stop-color="#D06A3C"/></radialGradient><radialGradient id="person-golfing_svg__P" cx="0" cy="0" r="1" gradientTransform="matrix(.2999 .31268 -.27429 .26307 13.043 7.314)" gradientUnits="userSpaceOnUse"><stop offset=".263" stop-color="#BE691E"/><stop offset=".977" stop-color="#BE691E" stop-opacity="0"/></radialGradient><radialGradient id="person-golfing_svg__Q" cx="0" cy="0" r="1" gradientTransform="matrix(-.44922 .26953 -.35294 -.58823 12.504 5.955)" gradientUnits="userSpaceOnUse"><stop offset=".325" stop-color="#F49B37"/><stop offset="1" stop-color="#FBAD41"/></radialGradient><radialGradient id="person-golfing_svg__R" cx="0" cy="0" r="1" gradientTransform="matrix(-.53514 .21538 -.22142 -.55016 16.002 4.275)" gradientUnits="userSpaceOnUse"><stop offset=".325" stop-color="#F49B37"/><stop offset="1" stop-color="#FBAD41"/></radialGradient><radialGradient id="person-golfing_svg__T" cx="0" cy="0" r="1" gradientTransform="matrix(-1.94296 .95163 -1.68344 -3.43708 15.712 5.524)" gradientUnits="userSpaceOnUse"><stop stop-color="#FFE846"/><stop offset="1" stop-color="#F5A129"/></radialGradient><radialGradient id="person-golfing_svg__U" cx="0" cy="0" r="1" gradientTransform="matrix(-.61633 -1.25836 4.89516 -2.39758 15.75 8.424)" gradientUnits="userSpaceOnUse"><stop offset=".082" stop-color="#E27426"/><stop offset="1" stop-color="#FFA041" stop-opacity="0"/></radialGradient><radialGradient id="person-golfing_svg__V" cx="0" cy="0" r="1" gradientTransform="matrix(.96112 2.3411 -.86068 .35335 16.543 5.01)" gradientUnits="userSpaceOnUse"><stop offset=".39" stop-color="#FFD930"/><stop offset="1" stop-color="#FFD930" stop-opacity="0"/></radialGradient><radialGradient id="person-golfing_svg__W" cx="0" cy="0" r="1" gradientTransform="matrix(-.25737 -.52547 .63264 -.30986 13.676 5.977)" gradientUnits="userSpaceOnUse"><stop offset=".276" stop-color="#F59632"/><stop offset="1" stop-color="#F59632" stop-opacity="0"/></radialGradient><radialGradient id="person-golfing_svg__X" cx="0" cy="0" r="1" gradientTransform="matrix(-.27946 -.57058 .74006 -.36247 15.303 4.99)" gradientUnits="userSpaceOnUse"><stop offset=".178" stop-color="#FFBE3A"/><stop offset="1" stop-color="#FFBE3A" stop-opacity="0"/></radialGradient><radialGradient id="person-golfing_svg__Y" cx="0" cy="0" r="1" gradientTransform="rotate(57.933 2.922 14.451)scale(1.53037 4.18978)" gradientUnits="userSpaceOnUse"><stop offset=".159" stop-color="#DB7D23"/><stop offset="1" stop-color="#DB7D23" stop-opacity="0"/></radialGradient><radialGradient id="person-golfing_svg__af" cx="0" cy="0" r="1" gradientTransform="rotate(-116.095 9.948 -1.1)scale(.29827 1.20002)" gradientUnits="userSpaceOnUse"><stop stop-color="#89014E"/><stop offset="1" stop-color="#87004D"/></radialGradient><radialGradient id="person-golfing_svg__ai" cx="0" cy="0" r="1" gradientTransform="matrix(.14768 .30153 -.47962 .2349 15.312 5.297)" gradientUnits="userSpaceOnUse"><stop offset=".802" stop-color="#925C51"/><stop offset="1" stop-color="#694B43"/><stop offset="1" stop-color="#804D49"/><stop offset="1" stop-color="#85534D"/></radialGradient><radialGradient id="person-golfing_svg__ak" cx="0" cy="0" r="1" gradientTransform="rotate(-153.907 8.243 .919)scale(.15655 .21553)" gradientUnits="userSpaceOnUse"><stop offset=".766" stop-color="#FFE6E2" stop-opacity="0"/><stop offset=".966" stop-color="#FFE6E2"/></radialGradient><radialGradient id="person-golfing_svg__an" cx="0" cy="0" r="1" gradientTransform="matrix(.1477 .30155 -.47965 .23492 13.69 6.091)" gradientUnits="userSpaceOnUse"><stop offset=".802" stop-color="#925C51"/><stop offset="1" stop-color="#694B43"/><stop offset="1" stop-color="#804D49"/><stop offset="1" stop-color="#85534D"/></radialGradient><radialGradient id="person-golfing_svg__ar" cx="0" cy="0" r="1" gradientTransform="matrix(-.0032 -.20447 .24578 -.00385 13.566 6.235)" gradientUnits="userSpaceOnUse"><stop offset=".766" stop-color="#FFE6E2" stop-opacity="0"/><stop offset=".966" stop-color="#FFE6E2"/></radialGradient><radialGradient id="person-golfing_svg__at" cx="0" cy="0" r="1" gradientTransform="matrix(.64195 .71931 -.68628 .61247 16.22 4.859)" gradientUnits="userSpaceOnUse"><stop offset=".856" stop-color="#E1943D" stop-opacity="0"/><stop offset="1" stop-color="#E08F2E"/></radialGradient><radialGradient id="person-golfing_svg__au" cx="0" cy="0" r="1" gradientTransform="matrix(.09599 -.5452 .45699 .08046 16.453 4.995)" gradientUnits="userSpaceOnUse"><stop offset=".664" stop-color="#FFBD22"/><stop offset="1" stop-color="#FFBD22" stop-opacity="0"/></radialGradient><radialGradient id="person-golfing_svg__aw" cx="0" cy="0" r="1" gradientTransform="matrix(.22446 .84672 -.8324 .22066 12.578 6.72)" gradientUnits="userSpaceOnUse"><stop offset=".775" stop-color="#C77937" stop-opacity="0"/><stop offset="1" stop-color="#C77937"/></radialGradient><radialGradient id="person-golfing_svg__az" cx="0" cy="0" r="1" gradientTransform="matrix(-.32812 2.10937 -2.73038 -.42473 14.445 2.615)" gradientUnits="userSpaceOnUse"><stop stop-color="#FD9225"/><stop offset=".816" stop-color="#F98841"/></radialGradient><radialGradient id="person-golfing_svg__aA" cx="0" cy="0" r="1" gradientTransform="matrix(1.40625 .10938 -.30588 3.93273 11.586 4.74)" gradientUnits="userSpaceOnUse"><stop offset=".237" stop-color="#FF9550"/><stop offset="1" stop-color="#FF9550" stop-opacity="0"/></radialGradient><radialGradient id="person-golfing_svg__aB" cx="0" cy="0" r="1" gradientTransform="rotate(-113.839 8.595 -2.223)scale(1.46908 2.89909)" gradientUnits="userSpaceOnUse"><stop offset=".427" stop-color="#F47234"/><stop offset="1" stop-color="#F47234" stop-opacity="0"/></radialGradient><radialGradient id="person-golfing_svg__aC" cx="0" cy="0" r="1" gradientTransform="matrix(.23438 .5625 -2.67897 1.11624 12.96 2.615)" gradientUnits="userSpaceOnUse"><stop stop-color="#E28636"/><stop offset="1" stop-color="#E28636" stop-opacity="0"/></radialGradient><radialGradient id="person-golfing_svg__aE" cx="0" cy="0" r="1" gradientTransform="matrix(3.26562 -1.07812 1.92394 5.82757 12.586 5.38)" gradientUnits="userSpaceOnUse"><stop stop-color="#EF7849"/><stop offset="1" stop-color="#E0611C"/></radialGradient><radialGradient id="person-golfing_svg__aF" cx="0" cy="0" r="1" gradientTransform="matrix(.17187 -1.5 .86462 .09907 15.133 4.162)" gradientUnits="userSpaceOnUse"><stop stop-color="#E96D30"/><stop offset="1" stop-color="#E96D30" stop-opacity="0"/></radialGradient><filter id="person-golfing_svg__a" width="8.471" height="7.176" x="16.221" y="3.573" color-interpolation-filters="sRGB" filterUnits="userSpaceOnUse"><feFlood flood-opacity="0" result="BackgroundImageFix"/><feBlend in="SourceGraphic" in2="BackgroundImageFix" result="shape"/><feColorMatrix in="SourceAlpha" result="hardAlpha" values="0 0 0 0 0 0 0 0 0 0 0 0 0 0 0 0 0 0 127 0"/><feOffset dx="1"/><feGaussianBlur stdDeviation=".5"/><feComposite in2="hardAlpha" k2="-1" k3="1" operator="arithmetic"/><feColorMatrix values="0 0 0 0 0.839216 0 0 0 0 0.580392 0 0 0 0 0.207843 0 0 0 1 0"/><feBlend in2="shape" result="effect1_innerShadow_3987_22706"/><feColorMatrix in="SourceAlpha" result="hardAlpha" values="0 0 0 0 0 0 0 0 0 0 0 0 0 0 0 0 0 0 127 0"/><feOffset dx=".15" dy="-.15"/><feGaussianBlur stdDeviation=".25"/><feComposite in2="hardAlpha" k2="-1" k3="1" operator="arithmetic"/><feColorMatrix values="0 0 0 0 0.854902 0 0 0 0 0.545098 0 0 0 0 0.219608 0 0 0 1 0"/><feBlend in2="effect1_innerShadow_3987_22706" result="effect2_innerShadow_3987_22706"/></filter><filter id="person-golfing_svg__c" width="18.187" height="14.194" x="6.907" y="1.978" color-interpolation-filters="sRGB" filterUnits="userSpaceOnUse"><feFlood flood-opacity="0" result="BackgroundImageFix"/><feBlend in="SourceGraphic" in2="BackgroundImageFix" result="shape"/><feColorMatrix in="SourceAlpha" result="hardAlpha" values="0 0 0 0 0 0 0 0 0 0 0 0 0 0 0 0 0 0 127 0"/><feOffset dy="-.2"/><feGaussianBlur stdDeviation=".2"/><feComposite in2="hardAlpha" k2="-1" k3="1" operator="arithmetic"/><feColorMatrix values="0 0 0 0 0.568627 0 0 0 0 0.454902 0 0 0 0 0.647059 0 0 0 1 0"/><feBlend in2="shape" result="effect1_innerShadow_3987_22706"/></filter><filter id="person-golfing_svg__j" width="4.793" height="2.27" x="18.177" y="27.611" color-interpolation-filters="sRGB" filterUnits="userSpaceOnUse"><feFlood flood-opacity="0" result="BackgroundImageFix"/><feBlend in="SourceGraphic" in2="BackgroundImageFix" result="shape"/><feColorMatrix in="SourceAlpha" result="hardAlpha" values="0 0 0 0 0 0 0 0 0 0 0 0 0 0 0 0 0 0 127 0"/><feOffset dx=".5" dy="-.5"/><feGaussianBlur stdDeviation=".5"/><feComposite in2="hardAlpha" k2="-1" k3="1" operator="arithmetic"/><feColorMatrix values="0 0 0 0 0.262745 0 0 0 0 0.188235 0 0 0 0 0.341176 0 0 0 1 0"/><feBlend in2="shape" result="effect1_innerShadow_3987_22706"/></filter><filter id="person-golfing_svg__o" width="8.989" height="12.477" x="12.16" y="15.646" color-interpolation-filters="sRGB" filterUnits="userSpaceOnUse"><feFlood flood-opacity="0" result="BackgroundImageFix"/><feBlend in="SourceGraphic" in2="BackgroundImageFix" result="shape"/><feColorMatrix in="SourceAlpha" result="hardAlpha" values="0 0 0 0 0 0 0 0 0 0 0 0 0 0 0 0 0 0 127 0"/><feOffset dx=".5"/><feGaussianBlur stdDeviation=".5"/><feComposite in2="hardAlpha" k2="-1" k3="1" operator="arithmetic"/><feColorMatrix values="0 0 0 0 0.67451 0 0 0 0 0.635294 0 0 0 0 0.686275 0 0 0 1 0"/><feBlend in2="shape" result="effect1_innerShadow_3987_22706"/></filter><filter id="person-golfing_svg__G" width="7.553" height="7.567" x="14.35" y="3.533" color-interpolation-filters="sRGB" filterUnits="userSpaceOnUse"><feFlood flood-opacity="0" result="BackgroundImageFix"/><feBlend in="SourceGraphic" in2="BackgroundImageFix" result="shape"/><feColorMatrix in="SourceAlpha" result="hardAlpha" values="0 0 0 0 0 0 0 0 0 0 0 0 0 0 0 0 0 0 127 0"/><feOffset dx=".25" dy=".15"/><feGaussianBlur stdDeviation=".25"/><feComposite in2="hardAlpha" k2="-1" k3="1" operator="arithmetic"/><feColorMatrix values="0 0 0 0 0.964706 0 0 0 0 0.658824 0 0 0 0 0.133333 0 0 0 1 0"/><feBlend in2="shape" result="effect1_innerShadow_3987_22706"/><feColorMatrix in="SourceAlpha" result="hardAlpha" values="0 0 0 0 0 0 0 0 0 0 0 0 0 0 0 0 0 0 127 0"/><feOffset dy="-.25"/><feGaussianBlur stdDeviation=".25"/><feComposite in2="hardAlpha" k2="-1" k3="1" operator="arithmetic"/><feColorMatrix values="0 0 0 0 0.85098 0 0 0 0 0.537255 0 0 0 0 0.129412 0 0 0 1 0"/><feBlend in2="effect1_innerShadow_3987_22706" result="effect2_innerShadow_3987_22706"/></filter><filter id="person-golfing_svg__I" width="3.395" height="2.909" x="14.313" y="8.107" color-interpolation-filters="sRGB" filterUnits="userSpaceOnUse"><feFlood flood-opacity="0" result="BackgroundImageFix"/><feBlend in="SourceGraphic" in2="BackgroundImageFix" result="shape"/><feColorMatrix in="SourceAlpha" result="hardAlpha" values="0 0 0 0 0 0 0 0 0 0 0 0 0 0 0 0 0 0 127 0"/><feOffset dy="-.25"/><feGaussianBlur stdDeviation=".25"/><feComposite in2="hardAlpha" k2="-1" k3="1" operator="arithmetic"/><feColorMatrix values="0 0 0 0 0.87451 0 0 0 0 0.341176 0 0 0 0 0.145098 0 0 0 1 0"/><feBlend in2="shape" result="effect1_innerShadow_3987_22706"/></filter><filter id="person-golfing_svg__S" width="5.419" height="5.169" x="12.134" y="3.696" color-interpolation-filters="sRGB" filterUnits="userSpaceOnUse"><feFlood flood-opacity="0" result="BackgroundImageFix"/><feBlend in="SourceGraphic" in2="BackgroundImageFix" result="shape"/><feColorMatrix in="SourceAlpha" result="hardAlpha" values="0 0 0 0 0 0 0 0 0 0 0 0 0 0 0 0 0 0 127 0"/><feOffset dx=".5"/><feGaussianBlur stdDeviation=".5"/><feComposite in2="hardAlpha" k2="-1" k3="1" operator="arithmetic"/><feColorMatrix values="0 0 0 0 0.823529 0 0 0 0 0.623529 0 0 0 0 0.313726 0 0 0 1 0"/><feBlend in2="shape" result="effect1_innerShadow_3987_22706"/><feColorMatrix in="SourceAlpha" result="hardAlpha" values="0 0 0 0 0 0 0 0 0 0 0 0 0 0 0 0 0 0 127 0"/><feOffset dy=".2"/><feGaussianBlur stdDeviation=".375"/><feComposite in2="hardAlpha" k2="-1" k3="1" operator="arithmetic"/><feColorMatrix values="0 0 0 0 0.980392 0 0 0 0 0.54902 0 0 0 0 0.0941176 0 0 0 1 0"/><feBlend in2="effect1_innerShadow_3987_22706" result="effect2_innerShadow_3987_22706"/></filter><filter id="person-golfing_svg__Z" width="2.848" height="3.193" x="13.389" y="4.744" color-interpolation-filters="sRGB" filterUnits="userSpaceOnUse"><feFlood flood-opacity="0" result="BackgroundImageFix"/><feBlend in="SourceGraphic" in2="BackgroundImageFix" result="shape"/><feGaussianBlur result="effect1_foregroundBlur_3987_22706" stdDeviation=".5"/></filter><filter id="person-golfing_svg__aa" width="1.086" height="1.388" x="14.293" y="5.539" color-interpolation-filters="sRGB" filterUnits="userSpaceOnUse"><feFlood flood-opacity="0" result="BackgroundImageFix"/><feBlend in="SourceGraphic" in2="BackgroundImageFix" result="shape"/><feGaussianBlur result="effect1_foregroundBlur_3987_22706" stdDeviation=".05"/></filter><filter id="person-golfing_svg__ag" width="1.029" height=".618" x="14.703" y="4.2" color-interpolation-filters="sRGB" filterUnits="userSpaceOnUse"><feFlood flood-opacity="0" result="BackgroundImageFix"/><feBlend in="SourceGraphic" in2="BackgroundImageFix" result="shape"/><feColorMatrix in="SourceAlpha" result="hardAlpha" values="0 0 0 0 0 0 0 0 0 0 0 0 0 0 0 0 0 0 127 0"/><feOffset dx=".1" dy="-.2"/><feGaussianBlur stdDeviation=".125"/><feComposite in2="hardAlpha" k2="-1" k3="1" operator="arithmetic"/><feColorMatrix values="0 0 0 0 0.603922 0 0 0 0 0.243137 0 0 0 0 0.152941 0 0 0 1 0"/><feBlend in2="shape" result="effect1_innerShadow_3987_22706"/></filter><filter id="person-golfing_svg__ah" width=".882" height=".886" x="12.823" y="5.039" color-interpolation-filters="sRGB" filterUnits="userSpaceOnUse"><feFlood flood-opacity="0" result="BackgroundImageFix"/><feBlend in="SourceGraphic" in2="BackgroundImageFix" result="shape"/><feColorMatrix in="SourceAlpha" result="hardAlpha" values="0 0 0 0 0 0 0 0 0 0 0 0 0 0 0 0 0 0 127 0"/><feOffset dx=".1" dy="-.2"/><feGaussianBlur stdDeviation=".125"/><feComposite in2="hardAlpha" k2="-1" k3="1" operator="arithmetic"/><feColorMatrix values="0 0 0 0 0.603922 0 0 0 0 0.243137 0 0 0 0 0.152941 0 0 0 1 0"/><feBlend in2="shape" result="effect1_innerShadow_3987_22706"/></filter><filter id="person-golfing_svg__aj" width=".379" height=".461" x="14.976" y="5.096" color-interpolation-filters="sRGB" filterUnits="userSpaceOnUse"><feFlood flood-opacity="0" result="BackgroundImageFix"/><feBlend in="SourceGraphic" in2="BackgroundImageFix" result="shape"/><feGaussianBlur result="effect1_foregroundBlur_3987_22706" stdDeviation=".05"/></filter><filter id="person-golfing_svg__al" width=".614" height=".616" x="15.248" y="4.933" color-interpolation-filters="sRGB" filterUnits="userSpaceOnUse"><feFlood flood-opacity="0" result="BackgroundImageFix"/><feBlend in="SourceGraphic" in2="BackgroundImageFix" result="shape"/><feGaussianBlur result="effect1_foregroundBlur_3987_22706" stdDeviation=".1"/></filter><filter id="person-golfing_svg__ao" width=".665" height=".658" x="13.584" y="5.713" color-interpolation-filters="sRGB" filterUnits="userSpaceOnUse"><feFlood flood-opacity="0" result="BackgroundImageFix"/><feBlend in="SourceGraphic" in2="BackgroundImageFix" result="shape"/><feGaussianBlur result="effect1_foregroundBlur_3987_22706" stdDeviation=".1"/></filter><filter id="person-golfing_svg__aq" width=".431" height=".478" x="13.356" y="5.866" color-interpolation-filters="sRGB" filterUnits="userSpaceOnUse"><feFlood flood-opacity="0" result="BackgroundImageFix"/><feBlend in="SourceGraphic" in2="BackgroundImageFix" result="shape"/><feGaussianBlur result="effect1_foregroundBlur_3987_22706" stdDeviation=".05"/></filter><filter id="person-golfing_svg__ax" width="1.021" height="1.204" x="12.18" y="6.256" color-interpolation-filters="sRGB" filterUnits="userSpaceOnUse"><feFlood flood-opacity="0" result="BackgroundImageFix"/><feBlend in="SourceGraphic" in2="BackgroundImageFix" result="shape"/><feGaussianBlur result="effect1_foregroundBlur_3987_22706" stdDeviation=".125"/></filter><filter id="person-golfing_svg__ay" width="1.024" height="1.249" x="16.083" y="4.389" color-interpolation-filters="sRGB" filterUnits="userSpaceOnUse"><feFlood flood-opacity="0" result="BackgroundImageFix"/><feBlend in="SourceGraphic" in2="BackgroundImageFix" result="shape"/><feGaussianBlur result="effect1_foregroundBlur_3987_22706" stdDeviation=".125"/></filter><filter id="person-golfing_svg__aD" width="4.253" height="2.433" x="11.906" y="3.498" color-interpolation-filters="sRGB" filterUnits="userSpaceOnUse"><feFlood flood-opacity="0" result="BackgroundImageFix"/><feBlend in="SourceGraphic" in2="BackgroundImageFix" result="shape"/><feColorMatrix in="SourceAlpha" result="hardAlpha" values="0 0 0 0 0 0 0 0 0 0 0 0 0 0 0 0 0 0 127 0"/><feOffset dy="-.05"/><feGaussianBlur stdDeviation=".025"/><feComposite in2="hardAlpha" k2="-1" k3="1" operator="arithmetic"/><feColorMatrix values="0 0 0 0 0.890196 0 0 0 0 0.305882 0 0 0 0 0.2 0 0 0 1 0"/><feBlend in2="shape" result="effect1_innerShadow_3987_22706"/></filter><filter id="person-golfing_svg__aG" width="1.789" height="3.497" x="8.087" y="12.265" color-interpolation-filters="sRGB" filterUnits="userSpaceOnUse"><feFlood flood-opacity="0" result="BackgroundImageFix"/><feBlend in="SourceGraphic" in2="BackgroundImageFix" result="shape"/><feGaussianBlur result="effect1_foregroundBlur_3987_22706" stdDeviation=".125"/></filter><filter id="person-golfing_svg__aH" width="2.601" height="13.601" x="18.428" y="15.112" color-interpolation-filters="sRGB" filterUnits="userSpaceOnUse"><feFlood flood-opacity="0" result="BackgroundImageFix"/><feBlend in="SourceGraphic" in2="BackgroundImageFix" result="shape"/><feGaussianBlur result="effect1_foregroundBlur_3987_22706" stdDeviation=".4"/></filter><filter id="person-golfing_svg__aJ" width="2.563" height="7.453" x="15.025" y="16.553" color-interpolation-filters="sRGB" filterUnits="userSpaceOnUse"><feFlood flood-opacity="0" result="BackgroundImageFix"/><feBlend in="SourceGraphic" in2="BackgroundImageFix" result="shape"/><feGaussianBlur result="effect1_foregroundBlur_3987_22706" stdDeviation=".375"/></filter><linearGradient id="person-golfing_svg__b" x1="23.013" x2="19.956" y1="4.744" y2="10.749" gradientUnits="userSpaceOnUse"><stop stop-color="#FDC631"/><stop offset=".799" stop-color="#F5AA27"/></linearGradient><linearGradient id="person-golfing_svg__e" x1="12.494" x2="12.822" y1="9.174" y2="9.646" gradientUnits="userSpaceOnUse"><stop offset=".349" stop-color="#B39FBC"/><stop offset="1" stop-color="#B39FBC" stop-opacity="0"/></linearGradient><linearGradient id="person-golfing_svg__g" x1="24.916" x2="22.775" y1="2.693" y2="4.006" gradientUnits="userSpaceOnUse"><stop stop-color="#533D66"/><stop offset="1" stop-color="#482A5B"/></linearGradient><linearGradient id="person-golfing_svg__h" x1="23.884" x2="23.619" y1="3.693" y2="3.162" gradientUnits="userSpaceOnUse"><stop stop-color="#482C58"/><stop offset="1" stop-color="#482C58" stop-opacity="0"/></linearGradient><linearGradient id="person-golfing_svg__k" x1="12.697" x2="12.697" y1="30.029" y2="29.357" gradientUnits="userSpaceOnUse"><stop stop-color="#442563"/><stop offset="1" stop-color="#442563" stop-opacity="0"/></linearGradient><linearGradient id="person-golfing_svg__p" x1="20.478" x2="19.884" y1="22.568" y2="22.537" gradientUnits="userSpaceOnUse"><stop stop-color="#A19CA8"/><stop offset="1" stop-color="#A49FAA" stop-opacity="0"/></linearGradient><linearGradient id="person-golfing_svg__y" x1="17.279" x2="17.279" y1="15.975" y2="12.787" gradientUnits="userSpaceOnUse"><stop offset=".039" stop-color="#ED3623"/><stop offset="1" stop-color="#ED3623" stop-opacity="0"/></linearGradient><linearGradient id="person-golfing_svg__J" x1="16.01" x2="16.01" y1="8.357" y2="10.568" gradientUnits="userSpaceOnUse"><stop stop-color="#F3801F"/><stop offset="1" stop-color="#ED732B"/></linearGradient><linearGradient id="person-golfing_svg__ab" x1="14.819" x2="15.136" y1="6.343" y2="6.187" gradientUnits="userSpaceOnUse"><stop stop-color="#FFC92F"/><stop offset="1" stop-color="#FFEA47"/></linearGradient><linearGradient id="person-golfing_svg__ac" x1="14.392" x2="14.802" y1="6.48" y2="6.307" gradientUnits="userSpaceOnUse"><stop stop-color="#F49F22"/><stop offset="1" stop-color="#E88830" stop-opacity="0"/><stop offset="1" stop-color="#F49F22" stop-opacity="0"/></linearGradient><linearGradient id="person-golfing_svg__ad" x1="14.891" x2="15.046" y1="6.491" y2="6.807" gradientUnits="userSpaceOnUse"><stop stop-color="#E88830" stop-opacity="0"/><stop offset=".845" stop-color="#E88830"/></linearGradient><linearGradient id="person-golfing_svg__ae" x1="14.482" x2="14.559" y1="5.655" y2="5.811" gradientUnits="userSpaceOnUse"><stop stop-color="#FAC137"/><stop offset="1" stop-color="#FAC137" stop-opacity="0"/></linearGradient><linearGradient id="person-golfing_svg__am" x1="15.611" x2="15.529" y1="5.175" y2="5.304" gradientUnits="userSpaceOnUse"><stop stop-color="#B4948D"/><stop offset="1" stop-color="#B4948D" stop-opacity="0"/></linearGradient><linearGradient id="person-golfing_svg__ap" x1="13.976" x2="13.895" y1="5.976" y2="6.105" gradientUnits="userSpaceOnUse"><stop stop-color="#B4948D"/><stop offset="1" stop-color="#B4948D" stop-opacity="0"/></linearGradient><linearGradient id="person-golfing_svg__as" x1="16.908" x2="16.856" y1="4.553" y2="5.581" gradientUnits="userSpaceOnUse"><stop stop-color="#FFE343"/><stop offset="1" stop-color="#FFC136"/></linearGradient><linearGradient id="person-golfing_svg__av" x1="12.47" x2="12.989" y1="7.051" y2="6.738" gradientUnits="userSpaceOnUse"><stop stop-color="#E39726"/><stop offset="1" stop-color="#D9851D"/></linearGradient><linearGradient id="person-golfing_svg__aI" x1="19.744" x2="19.744" y1="16.6" y2="27.506" gradientUnits="userSpaceOnUse"><stop stop-color="#A89EB3"/><stop offset="1" stop-color="#A599B3"/></linearGradient><linearGradient id="person-golfing_svg__aK" x1="16.306" x2="16.306" y1="18.037" y2="24.6" gradientUnits="userSpaceOnUse"><stop stop-color="#A59AB1"/><stop offset="1" stop-color="#A59AB1" stop-opacity="0"/></linearGradient></defs></svg>