<svg width="32" height="32" fill="none" xmlns="http://www.w3.org/2000/svg"><path fill="#C69488" d="m8.298 15.657 1.422-1.034 1.332 1.833-1.422 1.033Z"/><path d="M9.898 10.807a1.261 1.261 0 0 1-.648-.12l-.145.172 1.082.909c.305-.097.533-.41.409-.663-.106-.217-.364-.337-.698-.298Z" fill="url(#a)"/><path d="M9.898 10.807a1.261 1.261 0 0 1-.648-.12l-.145.172 1.082.909c.305-.097.533-.41.409-.663-.106-.217-.364-.337-.698-.298Z" fill="url(#b)"/><g filter="url(#c)"><path d="M8.79 10.245c-.803-.61-1.384-.672-1.591-.646L4.185 13.19l2.994 2.615c2.741.88 4.964-1.592 4.545-2.592-.42-1-2.006-2.262-2.935-2.968Z" fill="url(#d)"/><path d="M8.79 10.245c-.803-.61-1.384-.672-1.591-.646L4.185 13.19l2.994 2.615c2.741.88 4.964-1.592 4.545-2.592-.42-1-2.006-2.262-2.935-2.968Z" fill="url(#e)"/><path d="M8.79 10.245c-.803-.61-1.384-.672-1.591-.646L4.185 13.19l2.994 2.615c2.741.88 4.964-1.592 4.545-2.592-.42-1-2.006-2.262-2.935-2.968Z" fill="url(#f)"/><path d="M8.79 10.245c-.803-.61-1.384-.672-1.591-.646L4.185 13.19l2.994 2.615c2.741.88 4.964-1.592 4.545-2.592-.42-1-2.006-2.262-2.935-2.968Z" fill="url(#g)"/></g><g filter="url(#h)"><path d="M6.404 8.49c-.66-.165-1.141.201-1.351.48-.649.866-.458 1.218-1.24 1.837-.826.654-1.106 1.083-1.236 1.55l-.003.009c-.128.46-.393 1.413 1.018 2.598 1.3 1.09 2.376 1.203 2.81 1.185l-.021.057c-.107.29.053.582.344.688.247.091.559-.058.766-.401.236-.392.402-.686.53-.92a.312.312 0 0 0-.074-.389l-1.07-.898c-.452-.378-.454-.922-.417-1.13-.453-.406-.548-.729-.465-1.056.137-.543.33-.586 1.048-1.555.723-.976.187-1.848-.64-2.054Z" fill="url(#i)"/><path d="M6.404 8.49c-.66-.165-1.141.201-1.351.48-.649.866-.458 1.218-1.24 1.837-.826.654-1.106 1.083-1.236 1.55l-.003.009c-.128.46-.393 1.413 1.018 2.598 1.3 1.09 2.376 1.203 2.81 1.185l-.021.057c-.107.29.053.582.344.688.247.091.559-.058.766-.401.236-.392.402-.686.53-.92a.312.312 0 0 0-.074-.389l-1.07-.898c-.452-.378-.454-.922-.417-1.13-.453-.406-.548-.729-.465-1.056.137-.543.33-.586 1.048-1.555.723-.976.187-1.848-.64-2.054Z" fill="url(#j)"/><path d="M6.404 8.49c-.66-.165-1.141.201-1.351.48-.649.866-.458 1.218-1.24 1.837-.826.654-1.106 1.083-1.236 1.55l-.003.009c-.128.46-.393 1.413 1.018 2.598 1.3 1.09 2.376 1.203 2.81 1.185l-.021.057c-.107.29.053.582.344.688.247.091.559-.058.766-.401.236-.392.402-.686.53-.92a.312.312 0 0 0-.074-.389l-1.07-.898c-.452-.378-.454-.922-.417-1.13-.453-.406-.548-.729-.465-1.056.137-.543.33-.586 1.048-1.555.723-.976.187-1.848-.64-2.054Z" fill="url(#k)"/><path d="M6.404 8.49c-.66-.165-1.141.201-1.351.48-.649.866-.458 1.218-1.24 1.837-.826.654-1.106 1.083-1.236 1.55l-.003.009c-.128.46-.393 1.413 1.018 2.598 1.3 1.09 2.376 1.203 2.81 1.185l-.021.057c-.107.29.053.582.344.688.247.091.559-.058.766-.401.236-.392.402-.686.53-.92a.312.312 0 0 0-.074-.389l-1.07-.898c-.452-.378-.454-.922-.417-1.13-.453-.406-.548-.729-.465-1.056.137-.543.33-.586 1.048-1.555.723-.976.187-1.848-.64-2.054Z" fill="url(#l)"/></g><path d="m7.951 14.085-1.546-.97a.913.913 0 0 0 1.546.97Z" fill="url(#m)"/><path d="m7.951 14.085-1.546-.97a.913.913 0 0 0 1.546.97Z" fill="url(#n)"/><path d="m7.951 14.085-1.546-.97a.913.913 0 0 0 1.546.97Z" fill="url(#o)"/><path fill-rule="evenodd" clip-rule="evenodd" d="M9.614 12.99c.008.086.085.149.171.14.417-.04.753-.323.852-.42a.157.157 0 1 0-.219-.225c-.085.083-.355.303-.663.333a.157.157 0 0 0-.141.171Z" fill="#86004C"/><g filter="url(#p)"><path fill-rule="evenodd" clip-rule="evenodd" d="M7.737 11.032a.966.966 0 0 1 .16-.22.188.188 0 0 0-.257-.277 1.321 1.321 0 0 0-.234.316c-.078.144-.15.329-.163.533a.188.188 0 1 0 .376.023.92.92 0 0 1 .118-.375Z" fill="#2C2828"/></g><path d="m9.144 11.373-.797.951c-.377-.316-.504-.785-.284-1.048.22-.262.705-.22 1.081.097Z" fill="#fff"/><path d="m8.656 11.955-.004-.003c-.309-.258-.448-.6-.31-.763.136-.163.497-.086.805.173l.004.003-.495.59Z" fill="url(#q)"/><path d="M8.813 11.768a.799.799 0 0 1-.073-.055c-.178-.15-.26-.347-.18-.44.078-.094.286-.048.464.102.024.02.046.04.067.062l-.278.33Z" fill="url(#r)"/><path transform="scale(-1 1) rotate(74.61 -11.72 -.058)" fill="url(#s)" d="M-.081 0a.081.11 0 1 0 .162 0 .081.11 0 1 0-.162 0"/><g filter="url(#t)"><path d="M4.83 13.065a16.36 16.36 0 0 0 1.24 1.494 3.64 3.64 0 0 1-2.551-.618c-.52-.354-.264-1.164.335-1.357.433-.139.707.114.976.48Z" fill="url(#u)"/></g><g filter="url(#v)"><path d="M18.499 13.578a2.288 2.288 0 0 1 4.216-.309l1.811 3.6H17.41l1.09-3.29Z" fill="url(#w)"/><path d="M18.499 13.578a2.288 2.288 0 0 1 4.216-.309l1.811 3.6H17.41l1.09-3.29Z" fill="url(#x)"/></g><g filter="url(#y)"><path d="M24.95 6.182v10.937h1.6V6.182a4.313 4.313 0 0 0-8.625 0v1.03h1.6v-1.03a2.712 2.712 0 1 1 5.425 0Z" fill="#ADADAD"/><path d="M24.95 6.182v10.937h1.6V6.182a4.313 4.313 0 0 0-8.625 0v1.03h1.6v-1.03a2.712 2.712 0 1 1 5.425 0Z" fill="url(#z)"/></g><g filter="url(#A)"><path d="M14.393 19.432a3.216 3.216 0 0 0 2.706-1.475 2.49 2.49 0 0 0 1.658.615c.659 0 1.256-.245 1.686-.64.511.615 1.402 1.023 2.415 1.023 1.586 0 2.871-.998 2.871-2.23 0-1.051-1.285-2.23-2.87-2.23-.79 0-1.505.247-2.024.647a.107.107 0 0 1-.15-.019c-.431-.546-1.134-.902-1.928-.902-.531 0-1.022.159-1.417.428a.107.107 0 0 1-.153-.035 3.219 3.219 0 1 0-2.794 4.818Z" fill="#4BD1F1"/><path d="M14.393 19.432a3.216 3.216 0 0 0 2.706-1.475 2.49 2.49 0 0 0 1.658.615c.659 0 1.256-.245 1.686-.64.511.615 1.402 1.023 2.415 1.023 1.586 0 2.871-.998 2.871-2.23 0-1.051-1.285-2.23-2.87-2.23-.79 0-1.505.247-2.024.647a.107.107 0 0 1-.15-.019c-.431-.546-1.134-.902-1.928-.902-.531 0-1.022.159-1.417.428a.107.107 0 0 1-.153-.035 3.219 3.219 0 1 0-2.794 4.818Z" fill="url(#B)"/><path d="M14.393 19.432a3.216 3.216 0 0 0 2.706-1.475 2.49 2.49 0 0 0 1.658.615c.659 0 1.256-.245 1.686-.64.511.615 1.402 1.023 2.415 1.023 1.586 0 2.871-.998 2.871-2.23 0-1.051-1.285-2.23-2.87-2.23-.79 0-1.505.247-2.024.647a.107.107 0 0 1-.15-.019c-.431-.546-1.134-.902-1.928-.902-.531 0-1.022.159-1.417.428a.107.107 0 0 1-.153-.035 3.219 3.219 0 1 0-2.794 4.818Z" fill="url(#C)"/></g><g filter="url(#D)"><path fill="url(#E)" d="M16.558 16.73a2.291 2.291 0 1 0 4.582 0 2.291 2.291 0 1 0-4.582 0"/><path fill="url(#F)" d="M16.558 16.73a2.291 2.291 0 1 0 4.582 0 2.291 2.291 0 1 0-4.582 0"/></g><g filter="url(#G)"><path fill-rule="evenodd" clip-rule="evenodd" d="M17.125 15.157c-.476.39-.797.967-.846 1.628-.03.414.05.81.215 1.161a2.742 2.742 0 1 1 .631-2.789Z" fill="url(#H)"/></g><path transform="scale(-1 1) rotate(45 -41.285 -13.071)" fill="url(#I)" d="M.804 0s.804 0 .804.804v3.524s0 .804-.804.804S0 5.132 0 4.328V.804S0 0 .804 0"/><path transform="scale(-1 1) rotate(45 -41.285 -13.071)" fill="url(#J)" d="M.804 0s.804 0 .804.804v3.524s0 .804-.804.804S0 5.132 0 4.328V.804S0 0 .804 0"/><path transform="scale(-1 1) rotate(45 -41.285 -13.071)" fill="url(#K)" d="M.804 0s.804 0 .804.804v3.524s0 .804-.804.804S0 5.132 0 4.328V.804S0 0 .804 0"/><path fill="#735F86" d="M12.348 25.933s.569.569 0 1.137l-2.491 2.492s-.569.569-1.138 0-.568-.568 0-1.137l2.492-2.492s.569-.568 1.137 0"/><path transform="rotate(45 11.78 25.365)" fill="url(#L)" d="M12.584 25.365s.804 0 .804.804v3.524s0 .804-.804.804-.804 0-.804-.804v-3.524s0-.804.804-.804"/><path transform="rotate(45 11.78 25.365)" fill="url(#M)" d="M12.584 25.365s.804 0 .804.804v3.524s0 .804-.804.804-.804 0-.804-.804v-3.524s0-.804.804-.804"/><g filter="url(#N)"><path d="m5.225 22.375-1.457-4.568h25.579l-1.478 4.59a7.8 7.8 0 0 1-7.425 5.41h-7.788a7.8 7.8 0 0 1-7.431-5.431Z" fill="url(#O)"/></g><path d="m5.225 22.375-1.457-4.568h25.579l-1.478 4.59a7.8 7.8 0 0 1-7.425 5.41h-7.788a7.8 7.8 0 0 1-7.431-5.431Z" fill="url(#P)"/><path d="m5.225 22.375-1.457-4.568h25.579l-1.478 4.59a7.8 7.8 0 0 1-7.425 5.41h-7.788a7.8 7.8 0 0 1-7.431-5.431Z" fill="url(#Q)"/><g filter="url(#R)"><path fill="url(#S)" d="M3.782 15.908H29.38s1.123 0 1.123 1.123 0 1.123-1.123 1.123H3.782s-1.123 0-1.123-1.123 0-1.123 1.123-1.123"/><path fill="url(#T)" d="M3.782 15.908H29.38s1.123 0 1.123 1.123 0 1.123-1.123 1.123H3.782s-1.123 0-1.123-1.123 0-1.123 1.123-1.123"/></g><path fill="url(#U)" d="M3.782 15.908H29.38s1.123 0 1.123 1.123 0 1.123-1.123 1.123H3.782s-1.123 0-1.123-1.123 0-1.123 1.123-1.123"/><g filter="url(#V)"><path d="M22.3 2.666c1.218-.052 3.656.94 3.656 3.766v9.375" stroke="url(#W)" stroke-width=".75"/></g><g filter="url(#X)"><path d="M20.224 3.385c-.459.406-1.375 1.612-1.375 3.187" stroke="url(#Y)" stroke-width=".75"/></g><path d="M21.089 8.611c.279 0 .508-.23.456-.504-.25-1.307-1.37-2.293-2.714-2.293-1.345 0-2.465.986-2.714 2.293-.053.274.177.504.456.504h4.516Z" fill="url(#Z)"/><path d="M21.089 8.611c.279 0 .508-.23.456-.504-.25-1.307-1.37-2.293-2.714-2.293-1.345 0-2.465.986-2.714 2.293-.053.274.177.504.456.504h4.516Z" fill="url(#aa)"/><defs><radialGradient id="a" cx="0" cy="0" r="1" gradientUnits="userSpaceOnUse" gradientTransform="rotate(101.587 .839 9.745) scale(.68058 .96066)"><stop offset=".101" stop-color="#FFD4B7"/><stop offset=".684" stop-color="#FFC4A7"/></radialGradient><radialGradient id="b" cx="0" cy="0" r="1" gradientUnits="userSpaceOnUse" gradientTransform="rotate(-117.617 8.755 2.575) scale(.396 .59433)"><stop stop-color="#F0AA89"/><stop offset="1" stop-color="#F0AA89" stop-opacity="0"/></radialGradient><radialGradient id="e" cx="0" cy="0" r="1" gradientUnits="userSpaceOnUse" gradientTransform="matrix(.63613 -.8497 1.03596 .77557 6.92 13.836)"><stop offset=".156" stop-color="#EEB298"/><stop offset="1" stop-color="#EEB298" stop-opacity="0"/></radialGradient><radialGradient id="f" cx="0" cy="0" r="1" gradientUnits="userSpaceOnUse" gradientTransform="rotate(-140 7.386 4.111) scale(6.51587 2.53177)"><stop offset=".219" stop-color="#FFCDB7"/><stop offset="1" stop-color="#FFCDB7" stop-opacity="0"/></radialGradient><radialGradient id="g" cx="0" cy="0" r="1" gradientUnits="userSpaceOnUse" gradientTransform="matrix(.37586 .31539 -.49185 .58617 8.635 11.884)"><stop offset=".155" stop-color="#FABFA4"/><stop offset="1" stop-color="#FABFA4" stop-opacity="0"/></radialGradient><radialGradient id="i" cx="0" cy="0" r="1" gradientUnits="userSpaceOnUse" gradientTransform="rotate(168.984 2.751 6.448) scale(3.88926 5.91238)"><stop offset=".194" stop-color="#22191D"/><stop offset="1" stop-color="#342D30"/></radialGradient><radialGradient id="j" cx="0" cy="0" r="1" gradientUnits="userSpaceOnUse" gradientTransform="rotate(166.088 2.99 4.855) scale(1.86588 3.00185)"><stop stop-color="#564C49"/><stop offset="1" stop-color="#564C49" stop-opacity="0"/></radialGradient><radialGradient id="k" cx="0" cy="0" r="1" gradientUnits="userSpaceOnUse" gradientTransform="rotate(-34.167 29.54 -2.269) scale(.6834 .33578)"><stop offset=".197" stop-color="#464243"/><stop offset="1" stop-color="#464243" stop-opacity="0"/></radialGradient><radialGradient id="l" cx="0" cy="0" r="1" gradientUnits="userSpaceOnUse" gradientTransform="matrix(-.92205 .68665 -1.8398 -2.47053 6.509 13.136)"><stop offset=".353" stop-color="#363131"/><stop offset=".584" stop-color="#363131" stop-opacity="0"/></radialGradient><radialGradient id="m" cx="0" cy="0" r="1" gradientUnits="userSpaceOnUse" gradientTransform="matrix(-.78958 .5288 -.2581 -.38538 6.989 13.526)"><stop offset=".17" stop-color="#FAC7B1"/><stop offset="1" stop-color="#ECB39E"/></radialGradient><radialGradient id="n" cx="0" cy="0" r="1" gradientUnits="userSpaceOnUse" gradientTransform="matrix(.95272 1.16993 -1.21912 .99278 6.674 13.313)"><stop offset=".556" stop-color="#E7A792" stop-opacity="0"/><stop offset="1" stop-color="#DD9A7E"/><stop offset="1" stop-color="#E7A792"/></radialGradient><radialGradient id="q" cx="0" cy="0" r="1" gradientUnits="userSpaceOnUse" gradientTransform="rotate(130 1.74 7.886) scale(.34346 .66728)"><stop offset=".895" stop-color="#916A62"/><stop offset="1" stop-color="#824D44"/></radialGradient><radialGradient id="r" cx="0" cy="0" r="1" gradientUnits="userSpaceOnUse" gradientTransform="rotate(130 1.852 7.85) scale(.31402 .67955)"><stop stop-color="#666361"/><stop offset=".813" stop-color="#565352"/></radialGradient><radialGradient id="w" cx="0" cy="0" r="1" gradientUnits="userSpaceOnUse" gradientTransform="matrix(0 -2.09375 .88867 0 20.8 15.15)"><stop offset=".239" stop-color="#D8AEA4"/><stop offset="1" stop-color="#E2BAA5"/></radialGradient><radialGradient id="x" cx="0" cy="0" r="1" gradientUnits="userSpaceOnUse" gradientTransform="matrix(-1.49998 -3.09376 1.67378 -.81152 23.518 14.713)"><stop stop-color="#F3CFBB"/><stop offset="1" stop-color="#F3CFBB" stop-opacity="0"/></radialGradient><radialGradient id="z" cx="0" cy="0" r="1" gradientUnits="userSpaceOnUse" gradientTransform="matrix(4.78126 -4.84375 2.7395 2.70415 18.643 6.213)"><stop stop-color="#A09FA0"/><stop offset="1" stop-color="#A09FA0" stop-opacity="0"/></radialGradient><radialGradient id="B" cx="0" cy="0" r="1" gradientUnits="userSpaceOnUse" gradientTransform="rotate(-150.994 14.699 4.713) scale(3.60894 4.34333)"><stop stop-color="#66EBFF"/><stop offset="1" stop-color="#66EBFF" stop-opacity="0"/></radialGradient><radialGradient id="C" cx="0" cy="0" r="1" gradientUnits="userSpaceOnUse" gradientTransform="matrix(1.0625 2.625 -1.48498 .60106 19.487 13.838)"><stop stop-color="#6AF0FF"/><stop offset="1" stop-color="#6AF0FF" stop-opacity="0"/></radialGradient><radialGradient id="E" cx="0" cy="0" r="1" gradientUnits="userSpaceOnUse" gradientTransform="matrix(-1.90038 -2.5625 2.1013 -1.55835 20.749 15.874)"><stop stop-color="#6EF3FF"/><stop offset="1" stop-color="#6EF3FF" stop-opacity="0"/></radialGradient><radialGradient id="F" cx="0" cy="0" r="1" gradientUnits="userSpaceOnUse" gradientTransform="matrix(1.3125 -2.34375 2.00586 1.12328 16.843 16.405)"><stop stop-color="#3DC6EB"/><stop offset="1" stop-color="#3DC6EB" stop-opacity="0"/></radialGradient><radialGradient id="H" cx="0" cy="0" r="1" gradientUnits="userSpaceOnUse" gradientTransform="rotate(-138.668 11.43 4.378) scale(4.20282 3.66642)"><stop stop-color="#6BF3FF"/><stop offset="1" stop-color="#6BF3FF" stop-opacity="0"/></radialGradient><radialGradient id="J" cx="0" cy="0" r="1" gradientUnits="userSpaceOnUse" gradientTransform="rotate(79.16 -.565 1.44) scale(1.58615 1.72717)"><stop stop-color="#7A6A8B"/><stop offset="1" stop-color="#7A6A8B" stop-opacity="0"/></radialGradient><radialGradient id="K" cx="0" cy="0" r="1" gradientUnits="userSpaceOnUse" gradientTransform="rotate(-89.442 2.4 1.929) scale(1.40065 .72809)"><stop stop-color="#BEBAC2"/><stop offset="1" stop-color="#968DA0" stop-opacity="0"/></radialGradient><radialGradient id="M" cx="0" cy="0" r="1" gradientUnits="userSpaceOnUse" gradientTransform="rotate(-47.663 40.377 1.502) scale(.6726 1.0441)"><stop stop-color="#88828E"/><stop offset="1" stop-color="#88828E" stop-opacity="0"/></radialGradient><radialGradient id="O" cx="0" cy="0" r="1" gradientUnits="userSpaceOnUse" gradientTransform="matrix(-15.56247 -.06247 .03888 -9.68481 25.987 22.307)"><stop stop-color="#E1DAEA"/><stop offset="1" stop-color="#C7BDD3"/></radialGradient><radialGradient id="P" cx="0" cy="0" r="1" gradientUnits="userSpaceOnUse" gradientTransform="matrix(0 8.625 -39.1562 0 17.112 19.37)"><stop offset=".572" stop-color="#BBA9CD" stop-opacity="0"/><stop offset="1" stop-color="#A887C7"/></radialGradient><radialGradient id="S" cx="0" cy="0" r="1" gradientUnits="userSpaceOnUse" gradientTransform="matrix(0 1.25 -15.4957 0 25.237 16.65)"><stop stop-color="#FEFCFF"/><stop offset="1" stop-color="#D5D3D8"/></radialGradient><radialGradient id="W" cx="0" cy="0" r="1" gradientUnits="userSpaceOnUse" gradientTransform="matrix(-6.71874 10.18756 -7.15636 -4.71965 28.768 3.62)"><stop offset=".008" stop-color="#C1C1C2"/><stop offset="1" stop-color="#C1C1C2" stop-opacity="0"/></radialGradient><radialGradient id="Y" cx="0" cy="0" r="1" gradientUnits="userSpaceOnUse" gradientTransform="matrix(1.5 -3.53125 2.69792 1.14602 19.536 6.572)"><stop offset=".008" stop-color="#C1C1C2"/><stop offset="1" stop-color="#C1C1C2" stop-opacity="0"/></radialGradient><radialGradient id="Z" cx="0" cy="0" r="1" gradientUnits="userSpaceOnUse" gradientTransform="matrix(-4.53418 0 0 -3.55867 20.643 8.611)"><stop offset=".145" stop-color="#C1C1C2"/><stop offset=".717" stop-color="#929192"/></radialGradient><filter id="c" x="3.985" y="9.394" width="7.789" height="6.596" filterUnits="userSpaceOnUse" color-interpolation-filters="sRGB"><feFlood flood-opacity="0" result="BackgroundImageFix"/><feBlend in="SourceGraphic" in2="BackgroundImageFix" result="shape"/><feColorMatrix in="SourceAlpha" values="0 0 0 0 0 0 0 0 0 0 0 0 0 0 0 0 0 0 127 0" result="hardAlpha"/><feOffset dx="-.2" dy="-.2"/><feGaussianBlur stdDeviation=".5"/><feComposite in2="hardAlpha" operator="arithmetic" k2="-1" k3="1"/><feColorMatrix values="0 0 0 0 0.803922 0 0 0 0 0.619608 0 0 0 0 0.603922 0 0 0 1 0"/><feBlend in2="shape" result="effect1_innerShadow_3987_24060"/></filter><filter id="h" x="2.467" y="8.299" width="5.592" height="8.621" filterUnits="userSpaceOnUse" color-interpolation-filters="sRGB"><feFlood flood-opacity="0" result="BackgroundImageFix"/><feBlend in="SourceGraphic" in2="BackgroundImageFix" result="shape"/><feColorMatrix in="SourceAlpha" values="0 0 0 0 0 0 0 0 0 0 0 0 0 0 0 0 0 0 127 0" result="hardAlpha"/><feOffset dy="-.15"/><feGaussianBlur stdDeviation=".15"/><feComposite in2="hardAlpha" operator="arithmetic" k2="-1" k3="1"/><feColorMatrix values="0 0 0 0 0.14902 0 0 0 0 0.101961 0 0 0 0 0.109804 0 0 0 1 0"/><feBlend in2="shape" result="effect1_innerShadow_3987_24060"/></filter><filter id="p" x="7.143" y="10.485" width=".814" height="1.199" filterUnits="userSpaceOnUse" color-interpolation-filters="sRGB"><feFlood flood-opacity="0" result="BackgroundImageFix"/><feBlend in="SourceGraphic" in2="BackgroundImageFix" result="shape"/><feColorMatrix in="SourceAlpha" values="0 0 0 0 0 0 0 0 0 0 0 0 0 0 0 0 0 0 127 0" result="hardAlpha"/><feOffset dx="-.1" dy=".1"/><feGaussianBlur stdDeviation=".1"/><feComposite in2="hardAlpha" operator="arithmetic" k2="-1" k3="1"/><feColorMatrix values="0 0 0 0 0.0705882 0 0 0 0 0.0588235 0 0 0 0 0.054902 0 0 0 1 0"/><feBlend in2="shape" result="effect1_innerShadow_3987_24060"/></filter><filter id="t" x="2.739" y="12.046" width="3.831" height="3.046" filterUnits="userSpaceOnUse" color-interpolation-filters="sRGB"><feFlood flood-opacity="0" result="BackgroundImageFix"/><feBlend in="SourceGraphic" in2="BackgroundImageFix" result="shape"/><feGaussianBlur stdDeviation=".25" result="effect1_foregroundBlur_3987_24060"/></filter><filter id="v" x="17.409" y="12.01" width="7.367" height="4.959" filterUnits="userSpaceOnUse" color-interpolation-filters="sRGB"><feFlood flood-opacity="0" result="BackgroundImageFix"/><feBlend in="SourceGraphic" in2="BackgroundImageFix" result="shape"/><feColorMatrix in="SourceAlpha" values="0 0 0 0 0 0 0 0 0 0 0 0 0 0 0 0 0 0 127 0" result="hardAlpha"/><feOffset dx=".25" dy=".1"/><feGaussianBlur stdDeviation=".4"/><feComposite in2="hardAlpha" operator="arithmetic" k2="-1" k3="1"/><feColorMatrix values="0 0 0 0 0.823529 0 0 0 0 0.662745 0 0 0 0 0.568627 0 0 0 1 0"/><feBlend in2="shape" result="effect1_innerShadow_3987_24060"/></filter><filter id="y" x="17.925" y="1.619" width="9.125" height="15.5" filterUnits="userSpaceOnUse" color-interpolation-filters="sRGB"><feFlood flood-opacity="0" result="BackgroundImageFix"/><feBlend in="SourceGraphic" in2="BackgroundImageFix" result="shape"/><feColorMatrix in="SourceAlpha" values="0 0 0 0 0 0 0 0 0 0 0 0 0 0 0 0 0 0 127 0" result="hardAlpha"/><feOffset dx=".5" dy="-.25"/><feGaussianBlur stdDeviation=".375"/><feComposite in2="hardAlpha" operator="arithmetic" k2="-1" k3="1"/><feColorMatrix values="0 0 0 0 0.509804 0 0 0 0 0.501961 0 0 0 0 0.498039 0 0 0 1 0"/><feBlend in2="shape" result="effect1_innerShadow_3987_24060"/></filter><filter id="A" x="11.175" y="12.994" width="14.805" height="6.438" filterUnits="userSpaceOnUse" color-interpolation-filters="sRGB"><feFlood flood-opacity="0" result="BackgroundImageFix"/><feBlend in="SourceGraphic" in2="BackgroundImageFix" result="shape"/><feColorMatrix in="SourceAlpha" values="0 0 0 0 0 0 0 0 0 0 0 0 0 0 0 0 0 0 127 0" result="hardAlpha"/><feOffset dx=".25"/><feGaussianBlur stdDeviation=".5"/><feComposite in2="hardAlpha" operator="arithmetic" k2="-1" k3="1"/><feColorMatrix values="0 0 0 0 0.415686 0 0 0 0 0.678431 0 0 0 0 0.74902 0 0 0 1 0"/><feBlend in2="shape" result="effect1_innerShadow_3987_24060"/></filter><filter id="D" x="16.058" y="13.94" width="5.582" height="5.582" filterUnits="userSpaceOnUse" color-interpolation-filters="sRGB"><feFlood flood-opacity="0" result="BackgroundImageFix"/><feBlend in="SourceGraphic" in2="BackgroundImageFix" result="shape"/><feGaussianBlur stdDeviation=".25" result="effect1_foregroundBlur_3987_24060"/></filter><filter id="G" x="11.284" y="12.793" width="6.341" height="6.485" filterUnits="userSpaceOnUse" color-interpolation-filters="sRGB"><feFlood flood-opacity="0" result="BackgroundImageFix"/><feBlend in="SourceGraphic" in2="BackgroundImageFix" result="shape"/><feGaussianBlur stdDeviation=".25" result="effect1_foregroundBlur_3987_24060"/></filter><filter id="N" x="3.768" y="16.807" width="28.578" height="11" filterUnits="userSpaceOnUse" color-interpolation-filters="sRGB"><feFlood flood-opacity="0" result="BackgroundImageFix"/><feBlend in="SourceGraphic" in2="BackgroundImageFix" result="shape"/><feColorMatrix in="SourceAlpha" values="0 0 0 0 0 0 0 0 0 0 0 0 0 0 0 0 0 0 127 0" result="hardAlpha"/><feOffset dx="3" dy="-1"/><feGaussianBlur stdDeviation="2"/><feComposite in2="hardAlpha" operator="arithmetic" k2="-1" k3="1"/><feColorMatrix values="0 0 0 0 0.678431 0 0 0 0 0.654902 0 0 0 0 0.709804 0 0 0 1 0"/><feBlend in2="shape" result="effect1_innerShadow_3987_24060"/></filter><filter id="R" x="2.659" y="15.658" width="28.344" height="2.496" filterUnits="userSpaceOnUse" color-interpolation-filters="sRGB"><feFlood flood-opacity="0" result="BackgroundImageFix"/><feBlend in="SourceGraphic" in2="BackgroundImageFix" result="shape"/><feColorMatrix in="SourceAlpha" values="0 0 0 0 0 0 0 0 0 0 0 0 0 0 0 0 0 0 127 0" result="hardAlpha"/><feOffset dx=".5" dy="-.25"/><feGaussianBlur stdDeviation=".5"/><feComposite in2="hardAlpha" operator="arithmetic" k2="-1" k3="1"/><feColorMatrix values="0 0 0 0 0.705882 0 0 0 0 0.698039 0 0 0 0 0.705882 0 0 0 1 0"/><feBlend in2="shape" result="effect1_innerShadow_3987_24060"/></filter><filter id="V" x="21.784" y="1.789" width="5.047" height="14.518" filterUnits="userSpaceOnUse" color-interpolation-filters="sRGB"><feFlood flood-opacity="0" result="BackgroundImageFix"/><feBlend in="SourceGraphic" in2="BackgroundImageFix" result="shape"/><feGaussianBlur stdDeviation=".25" result="effect1_foregroundBlur_3987_24060"/></filter><filter id="X" x="17.974" y="2.604" width="2.999" height="4.468" filterUnits="userSpaceOnUse" color-interpolation-filters="sRGB"><feFlood flood-opacity="0" result="BackgroundImageFix"/><feBlend in="SourceGraphic" in2="BackgroundImageFix" result="shape"/><feGaussianBlur stdDeviation=".25" result="effect1_foregroundBlur_3987_24060"/></filter><linearGradient id="d" x1="7.887" y1="14.135" x2="10.363" y2="11.52" gradientUnits="userSpaceOnUse"><stop stop-color="#F0B5A2"/><stop offset="1" stop-color="#FAC1A8"/></linearGradient><linearGradient id="o" x1="7.099" y1="13.529" x2="6.99" y2="13.681" gradientUnits="userSpaceOnUse"><stop stop-color="#F4B9A2"/><stop offset="1" stop-color="#F4BCA5" stop-opacity="0"/></linearGradient><linearGradient id="s" x1="-.009" y1=".062" x2=".225" y2=".139" gradientUnits="userSpaceOnUse"><stop stop-color="#fff"/><stop offset="1" stop-color="#fff" stop-opacity="0"/></linearGradient><linearGradient id="u" x1="5.616" y1="14.382" x2="2.468" y2="12.468" gradientUnits="userSpaceOnUse"><stop offset=".421" stop-color="#454143"/><stop offset="1" stop-color="#454143" stop-opacity="0"/></linearGradient><linearGradient id="I" x1="1.641" y1="2.961" x2="-.116" y2="3.171" gradientUnits="userSpaceOnUse"><stop stop-color="#887A96"/><stop offset="1" stop-color="#A9A6AC"/></linearGradient><linearGradient id="L" x1="11.466" y1="28.867" x2="13.012" y2="28.624" gradientUnits="userSpaceOnUse"><stop stop-color="#807D83"/><stop offset="1" stop-color="#807D83" stop-opacity="0"/></linearGradient><linearGradient id="Q" x1="16.558" y1="17.807" x2="16.558" y2="19.213" gradientUnits="userSpaceOnUse"><stop stop-color="#A090B0"/><stop offset="1" stop-color="#BCB0C8" stop-opacity="0"/></linearGradient><linearGradient id="T" x1="2.862" y1="17.244" x2="12.112" y2="17.244" gradientUnits="userSpaceOnUse"><stop stop-color="#BCB9BF"/><stop offset="1" stop-color="#BCB9BF" stop-opacity="0"/></linearGradient><linearGradient id="U" x1="17.925" y1="18.154" x2="17.925" y2="17.619" gradientUnits="userSpaceOnUse"><stop stop-color="#B1A1C2"/><stop offset="1" stop-color="#BBB2C3" stop-opacity="0"/></linearGradient><linearGradient id="aa" x1="19.409" y1="8.611" x2="19.409" y2="8.104" gradientUnits="userSpaceOnUse"><stop stop-color="#807F86"/><stop offset="1" stop-color="#8F9198" stop-opacity="0"/></linearGradient></defs></svg>