<svg width="32" height="32" fill="none" xmlns="http://www.w3.org/2000/svg"><path d="M12.699 19.16a.216.216 0 0 1-.043-.238h-.438l.32.996c.262.078.54.05.59-.114a.318.318 0 0 0-.074-.3 8.833 8.833 0 0 1-.355-.344Z" fill="#B87E78"/><path d="M19.364 19.16a.216.216 0 0 0 .043-.238h.437l-.32.996c-.262.078-.54.05-.59-.114a.318.318 0 0 1 .074-.3c.084-.077.271-.254.356-.344Z" fill="#D89888"/><g filter="url(#a)"><path d="M12.08 20.44c-.937-1.981-.768-6.258-.486-7.823h1.671c-.071 2.425.04 5.243.178 6.511.012.103.084.214 0 .276a.29.29 0 0 1-.438-.115l-.117-.262a.184.184 0 0 0-.226-.1.176.176 0 0 0-.12.201c.062.3.172.678.265.973a.418.418 0 0 1-.239.513c-.186.076-.401.008-.487-.174Z" fill="#E3AB9B"/><path d="M12.08 20.44c-.937-1.981-.768-6.258-.486-7.823h1.671c-.071 2.425.04 5.243.178 6.511.012.103.084.214 0 .276a.29.29 0 0 1-.438-.115l-.117-.262a.184.184 0 0 0-.226-.1.176.176 0 0 0-.12.201c.062.3.172.678.265.973a.418.418 0 0 1-.239.513c-.186.076-.401.008-.487-.174Z" fill="url(#b)"/></g><path d="M19.92 20.44c.937-1.981.768-6.258.486-7.823h-1.671c.071 2.425-.156 5.253-.294 6.522a.29.29 0 0 0 .554.15l.117-.262a.184.184 0 0 1 .226-.1.176.176 0 0 1 .12.201c-.062.3-.172.678-.265.973a.418.418 0 0 0 .239.513c.186.076.401.008.487-.174Z" fill="#FACBB3"/><path d="M19.92 20.44c.937-1.981.768-6.258.486-7.823h-1.671c.071 2.425-.156 5.253-.294 6.522a.29.29 0 0 0 .554.15l.117-.262a.184.184 0 0 1 .226-.1.176.176 0 0 1 .12.201c-.062.3-.172.678-.265.973a.418.418 0 0 0 .239.513c.186.076.401.008.487-.174Z" fill="url(#c)"/><path d="M19.92 20.44c.937-1.981.768-6.258.486-7.823h-1.671c.071 2.425-.156 5.253-.294 6.522a.29.29 0 0 0 .554.15l.117-.262a.184.184 0 0 1 .226-.1.176.176 0 0 1 .12.201c-.062.3-.172.678-.265.973a.418.418 0 0 0 .239.513c.186.076.401.008.487-.174Z" fill="url(#d)"/><path d="M11.564 12.66c.486-2.253 1.628-3.333 3.03-3.828v3.949H11.66a.1.1 0 0 1-.097-.12Z" fill="#FF4326"/><path d="M11.564 12.66c.486-2.253 1.628-3.333 3.03-3.828v3.949H11.66a.1.1 0 0 1-.097-.12Z" fill="url(#e)"/><path d="M11.564 12.66c.486-2.253 1.628-3.333 3.03-3.828v3.949H11.66a.1.1 0 0 1-.097-.12Z" fill="url(#f)"/><path d="M11.564 12.66c.486-2.253 1.628-3.333 3.03-3.828v3.949H11.66a.1.1 0 0 1-.097-.12Z" fill="url(#g)"/><g filter="url(#h)"><path d="M19.844 12.498c.125 1 .3 3.575 0 5.875" stroke="#FFC9B6" stroke-width=".3"/></g><path d="M20.499 12.66c-.487-2.253-1.629-3.333-3.03-3.828v3.949h2.932a.1.1 0 0 0 .098-.12Z" fill="#FF7A43"/><path d="M20.499 12.66c-.487-2.253-1.629-3.333-3.03-3.828v3.949h2.932a.1.1 0 0 0 .098-.12Z" fill="url(#i)"/><path d="M20.499 12.66c-.487-2.253-1.629-3.333-3.03-3.828v3.949h2.932a.1.1 0 0 0 .098-.12Z" fill="url(#j)"/><g filter="url(#k)"><path d="m13.047 16.011.484 12.454h2l.238-9.524c0-.328.029-.86.262-.86.212 0 .263.555.262.86l.238 9.524h2l.485-12.454h-5.97Z" fill="#827A8A"/></g><path d="m13.047 16.011.484 12.454h2l.238-9.524c0-.328.029-.86.262-.86.212 0 .263.555.262.86l.238 9.524h2l.485-12.454h-5.97Z" fill="url(#l)"/><path d="m13.047 16.011.484 12.454h2l.238-9.524c0-.328.029-.86.262-.86.212 0 .263.555.262.86l.238 9.524h2l.485-12.454h-5.97Z" fill="url(#m)"/><path d="m13.047 16.011.484 12.454h2l.238-9.524c0-.328.029-.86.262-.86.212 0 .263.555.262.86l.238 9.524h2l.485-12.454h-5.97Z" fill="url(#n)"/><path d="m13.047 16.011.484 12.454h2l.238-9.524c0-.328.029-.86.262-.86.212 0 .263.555.262.86l.238 9.524h2l.485-12.454h-5.97Z" fill="url(#o)"/><g filter="url(#p)"><path d="M12.973 11.527a3.059 3.059 0 1 1 6.117 0v4.441a.094.094 0 0 1-.094.094h-5.93a.094.094 0 0 1-.094-.094v-4.441Z" fill="url(#q)"/><path d="M12.973 11.527a3.059 3.059 0 1 1 6.117 0v4.441a.094.094 0 0 1-.094.094h-5.93a.094.094 0 0 1-.094-.094v-4.441Z" fill="url(#r)"/></g><path d="M15.16 7.375h1.742v1.351a.871.871 0 0 1-1.742 0V7.375Z" fill="url(#s)"/><g filter="url(#t)"><path d="M12.465 29.82v.242h3.066v-1.598H13.54c-.102.368-.574.754-.816.915a.539.539 0 0 0-.258.44Z" fill="#5D4480"/></g><path d="M19.598 29.82v.242H16.53v-1.598h1.992c.102.368.575.754.817.915.186.123.258.3.258.44Z" fill="url(#u)"/><path d="M19.598 29.82v.242H16.53v-1.598h1.992c.102.368.575.754.817.915.186.123.258.3.258.44Z" fill="url(#v)"/><g filter="url(#w)"><path d="m13.872 16.382.469 11.766h.812v-10.61h2.203v10.61h.672l.438-11.766h-4.594Z" fill="#9D98A2"/></g><path d="M18.213 6.47a.736.736 0 0 0 .406-.138v.418c0 .4-.239.758-.602.906.076-.163.13-.34.155-.53l.041-.656Z" fill="url(#x)"/><path d="M13.849 6.47a.737.737 0 0 1-.406-.138v.418c0 .4.239.758.602.906a1.834 1.834 0 0 1-.156-.53l-.04-.656Z" fill="url(#y)"/><g filter="url(#z)"><path d="M13.865 7.15a1.758 1.758 0 0 0 1.744 1.53h.847c.883 0 1.629-.653 1.744-1.53.053-.845.107-1.687.146-2.532a.65.65 0 0 0-.62-.643h-.628c-.428 0-.816-.253-.992-.648a.298.298 0 0 0-.277-.188h-.57c-.83 0-1.5.68-1.5 1.517 0 .835.051 1.657.106 2.494Z" fill="url(#A)"/></g><path d="M13.865 7.15a1.758 1.758 0 0 0 1.744 1.53h.847c.883 0 1.629-.653 1.744-1.53.053-.845.107-1.687.146-2.532a.65.65 0 0 0-.62-.643h-.628c-.428 0-.816-.253-.992-.648a.298.298 0 0 0-.277-.188h-.57c-.83 0-1.5.68-1.5 1.517 0 .835.051 1.657.106 2.494Z" fill="url(#B)"/><path d="M13.865 7.15a1.758 1.758 0 0 0 1.744 1.53h.847c.883 0 1.629-.653 1.744-1.53.053-.845.107-1.687.146-2.532a.65.65 0 0 0-.62-.643h-.628c-.428 0-.816-.253-.992-.648a.298.298 0 0 0-.277-.188h-.57c-.83 0-1.5.68-1.5 1.517 0 .835.051 1.657.106 2.494Z" fill="url(#C)"/><path d="M13.865 7.15a1.758 1.758 0 0 0 1.744 1.53h.847c.883 0 1.629-.653 1.744-1.53.053-.845.107-1.687.146-2.532a.65.65 0 0 0-.62-.643h-.628c-.428 0-.816-.253-.992-.648a.298.298 0 0 0-.277-.188h-.57c-.83 0-1.5.68-1.5 1.517 0 .835.051 1.657.106 2.494Z" fill="url(#D)"/><path d="M13.865 7.15a1.758 1.758 0 0 0 1.744 1.53h.847c.883 0 1.629-.653 1.744-1.53.053-.845.107-1.687.146-2.532a.65.65 0 0 0-.62-.643h-.628c-.428 0-.816-.253-.992-.648a.298.298 0 0 0-.277-.188h-.57c-.83 0-1.5.68-1.5 1.517 0 .835.051 1.657.106 2.494Z" fill="url(#E)"/><path d="M13.865 7.15a1.758 1.758 0 0 0 1.744 1.53h.847c.883 0 1.629-.653 1.744-1.53.053-.845.107-1.687.146-2.532a.65.65 0 0 0-.62-.643h-.628c-.428 0-.816-.253-.992-.648a.298.298 0 0 0-.277-.188h-.57c-.83 0-1.5.68-1.5 1.517 0 .835.051 1.657.106 2.494Z" fill="url(#F)"/><path d="M13.865 7.15a1.758 1.758 0 0 0 1.744 1.53h.847c.883 0 1.629-.653 1.744-1.53.053-.845.107-1.687.146-2.532a.65.65 0 0 0-.62-.643h-.628c-.428 0-.816-.253-.992-.648a.298.298 0 0 0-.277-.188h-.57c-.83 0-1.5.68-1.5 1.517 0 .835.051 1.657.106 2.494Z" fill="url(#G)"/><path d="M13.865 7.15a1.758 1.758 0 0 0 1.744 1.53h.847c.883 0 1.629-.653 1.744-1.53.053-.845.107-1.687.146-2.532a.65.65 0 0 0-.62-.643h-.628c-.428 0-.816-.253-.992-.648a.298.298 0 0 0-.277-.188h-.57c-.83 0-1.5.68-1.5 1.517 0 .835.051 1.657.106 2.494Z" fill="url(#H)"/><g filter="url(#I)"><path d="m15.85 5.674-.264.825c-.046.17.063.34.217.34h.329c.154 0 .262-.173.217-.34l-.222-.825c-.047-.183-.226-.183-.276 0Z" fill="#D69790"/></g><g filter="url(#J)"><path d="m15.86 5.589-.24.825c-.048.17.069.34.235.34h.353c.165 0 .282-.173.233-.34l-.238-.825c-.051-.183-.29-.183-.343 0Z" fill="#F6BFAB"/><path d="m15.86 5.589-.24.825c-.048.17.069.34.235.34h.353c.165 0 .282-.173.233-.34l-.238-.825c-.051-.183-.29-.183-.343 0Z" fill="url(#K)"/><path d="m15.86 5.589-.24.825c-.048.17.069.34.235.34h.353c.165 0 .282-.173.233-.34l-.238-.825c-.051-.183-.29-.183-.343 0Z" fill="url(#L)"/><path d="m15.86 5.589-.24.825c-.048.17.069.34.235.34h.353c.165 0 .282-.173.233-.34l-.238-.825c-.051-.183-.29-.183-.343 0Z" fill="url(#M)"/><path d="m15.86 5.589-.24.825c-.048.17.069.34.235.34h.353c.165 0 .282-.173.233-.34l-.238-.825c-.051-.183-.29-.183-.343 0Z" fill="url(#N)"/><path d="m15.86 5.589-.24.825c-.048.17.069.34.235.34h.353c.165 0 .282-.173.233-.34l-.238-.825c-.051-.183-.29-.183-.343 0Z" fill="url(#O)"/></g><g filter="url(#P)"><path d="M15.444 6.996a.144.144 0 0 0-.171.029.136.136 0 0 0-.015.173.925.925 0 0 0 .773.413c.324 0 .61-.166.773-.414l-.062-.041.062.041a.137.137 0 0 0-.015-.174.144.144 0 0 0-.17-.028 1.267 1.267 0 0 1-.588.14c-.216 0-.418-.051-.587-.14Z" stroke="url(#Q)" stroke-width=".15"/></g><path d="M16.031 7.21c-.228 0-.442-.054-.622-.148-.061-.031-.128.038-.089.094a.85.85 0 0 0 .711.38.85.85 0 0 0 .71-.38c.04-.058-.027-.125-.088-.094-.18.094-.392.147-.622.147Z" fill="url(#R)"/><g filter="url(#S)"><path d="M18.21 2.927a1.064 1.064 0 0 1 .521 1.606.7.7 0 0 0-.12.393v.533a.784.784 0 0 0-.3-.12l.035-.721a.65.65 0 0 0-.619-.643H17.1c-.429 0-.817-.253-.993-.648a.298.298 0 0 0-.276-.188h-.572c-.828 0-1.5.68-1.5 1.517l.014.69a.768.768 0 0 0-.323.119v-.54a.7.7 0 0 0-.122-.392 1.073 1.073 0 0 1-.064-1.098c.131-.248.343-.42.583-.505.258-.092.477-.265.622-.499a1.044 1.044 0 0 1 1.297-.409.669.669 0 0 0 .536 0 1.044 1.044 0 0 1 1.302.424c.138.229.355.395.607.481Z" fill="url(#T)"/><path d="M18.21 2.927a1.064 1.064 0 0 1 .521 1.606.7.7 0 0 0-.12.393v.533a.784.784 0 0 0-.3-.12l.035-.721a.65.65 0 0 0-.619-.643H17.1c-.429 0-.817-.253-.993-.648a.298.298 0 0 0-.276-.188h-.572c-.828 0-1.5.68-1.5 1.517l.014.69a.768.768 0 0 0-.323.119v-.54a.7.7 0 0 0-.122-.392 1.073 1.073 0 0 1-.064-1.098c.131-.248.343-.42.583-.505.258-.092.477-.265.622-.499a1.044 1.044 0 0 1 1.297-.409.669.669 0 0 0 .536 0 1.044 1.044 0 0 1 1.302.424c.138.229.355.395.607.481Z" fill="url(#U)"/><path d="M18.21 2.927a1.064 1.064 0 0 1 .521 1.606.7.7 0 0 0-.12.393v.533a.784.784 0 0 0-.3-.12l.035-.721a.65.65 0 0 0-.619-.643H17.1c-.429 0-.817-.253-.993-.648a.298.298 0 0 0-.276-.188h-.572c-.828 0-1.5.68-1.5 1.517l.014.69a.768.768 0 0 0-.323.119v-.54a.7.7 0 0 0-.122-.392 1.073 1.073 0 0 1-.064-1.098c.131-.248.343-.42.583-.505.258-.092.477-.265.622-.499a1.044 1.044 0 0 1 1.297-.409.669.669 0 0 0 .536 0 1.044 1.044 0 0 1 1.302.424c.138.229.355.395.607.481Z" fill="url(#V)"/><path d="M18.21 2.927a1.064 1.064 0 0 1 .521 1.606.7.7 0 0 0-.12.393v.533a.784.784 0 0 0-.3-.12l.035-.721a.65.65 0 0 0-.619-.643H17.1c-.429 0-.817-.253-.993-.648a.298.298 0 0 0-.276-.188h-.572c-.828 0-1.5.68-1.5 1.517l.014.69a.768.768 0 0 0-.323.119v-.54a.7.7 0 0 0-.122-.392 1.073 1.073 0 0 1-.064-1.098c.131-.248.343-.42.583-.505.258-.092.477-.265.622-.499a1.044 1.044 0 0 1 1.297-.409.669.669 0 0 0 .536 0 1.044 1.044 0 0 1 1.302.424c.138.229.355.395.607.481Z" fill="url(#W)"/><path d="M18.21 2.927a1.064 1.064 0 0 1 .521 1.606.7.7 0 0 0-.12.393v.533a.784.784 0 0 0-.3-.12l.035-.721a.65.65 0 0 0-.619-.643H17.1c-.429 0-.817-.253-.993-.648a.298.298 0 0 0-.276-.188h-.572c-.828 0-1.5.68-1.5 1.517l.014.69a.768.768 0 0 0-.323.119v-.54a.7.7 0 0 0-.122-.392 1.073 1.073 0 0 1-.064-1.098c.131-.248.343-.42.583-.505.258-.092.477-.265.622-.499a1.044 1.044 0 0 1 1.297-.409.669.669 0 0 0 .536 0 1.044 1.044 0 0 1 1.302.424c.138.229.355.395.607.481Z" fill="url(#X)"/></g><g filter="url(#Y)"><path d="M17.706 4.572a.832.832 0 0 0-.308-.185c-.137-.043-.308-.055-.544-.026a.124.124 0 1 0 .03.248c.216-.027.348-.013.44.015.088.029.148.074.219.135a.124.124 0 1 0 .163-.187Z" fill="#202020"/></g><g filter="url(#Z)"><path d="M14.5 4.523a1.245 1.245 0 0 1 .78-.161.124.124 0 0 1-.03.247.996.996 0 0 0-.656.149l-.007.005-.002.001a.125.125 0 0 1-.152-.197l.067-.044Z" fill="#202020"/></g><g filter="url(#aa)"><path d="m16.135 3.389-.03-.062a.298.298 0 0 0-.276-.188h-.571c-.829 0-1.5.68-1.5 1.517v.124c-.153-.117-.344-.362-.344-.758 0-.481.35-.724.574-.88.063-.043.117-.08.149-.113l.044-.047c.157-.167.437-.463.925-.593.077-.02.155-.036.231-.047.468-.07.808.348.808.821v.22l-.01.006Z" fill="#23181C"/><path d="m16.135 3.389-.03-.062a.298.298 0 0 0-.276-.188h-.571c-.829 0-1.5.68-1.5 1.517v.124c-.153-.117-.344-.362-.344-.758 0-.481.35-.724.574-.88.063-.043.117-.08.149-.113l.044-.047c.157-.167.437-.463.925-.593.077-.02.155-.036.231-.047.468-.07.808.348.808.821v.22l-.01.006Z" fill="url(#ab)"/><path d="m16.135 3.389-.03-.062a.298.298 0 0 0-.276-.188h-.571c-.829 0-1.5.68-1.5 1.517v.124c-.153-.117-.344-.362-.344-.758 0-.481.35-.724.574-.88.063-.043.117-.08.149-.113l.044-.047c.157-.167.437-.463.925-.593.077-.02.155-.036.231-.047.468-.07.808.348.808.821v.22l-.01.006Z" fill="url(#ac)"/></g><g filter="url(#ad)"><path d="m18.37 4.855-.012-.283a.66.66 0 0 0-.631-.64h-.628c-.4 0-.763-.218-.954-.566 0 0 .323-.933.86-.812.392.088.811.227 1.132.436.783.511.646 1.431.234 1.865Z" fill="#1F151B"/><path d="m18.37 4.855-.012-.283a.66.66 0 0 0-.631-.64h-.628c-.4 0-.763-.218-.954-.566 0 0 .323-.933.86-.812.392.088.811.227 1.132.436.783.511.646 1.431.234 1.865Z" fill="url(#ae)"/><path d="m18.37 4.855-.012-.283a.66.66 0 0 0-.631-.64h-.628c-.4 0-.763-.218-.954-.566 0 0 .323-.933.86-.812.392.088.811.227 1.132.436.783.511.646 1.431.234 1.865Z" fill="url(#af)"/><path d="m18.37 4.855-.012-.283a.66.66 0 0 0-.631-.64h-.628c-.4 0-.763-.218-.954-.566 0 0 .323-.933.86-.812.392.088.811.227 1.132.436.783.511.646 1.431.234 1.865Z" fill="url(#ag)"/></g><path d="M17.104 5.162c.293 0 .541.202.608.475a.123.123 0 0 1-.12.153h-1.001a.103.103 0 0 1-.102-.122.627.627 0 0 1 .615-.506Z" fill="#fff"/><path d="M17.011 5.284a.4.4 0 0 1 .387.506h-.774a.402.402 0 0 1 .388-.506Z" fill="url(#ah)"/><path d="M16.782 5.685c0-.128.102-.23.23-.23a.229.229 0 0 1 .203.335h-.406a.208.208 0 0 1-.027-.105Z" fill="#000"/><g filter="url(#ai)"><path d="M16.982 5.369c.028.038-.031.084-.1.135-.067.05-.117.086-.146.048-.028-.038.003-.11.071-.16.068-.051.146-.062.175-.023Z" fill="#C7A7A3"/><path d="M16.982 5.369c.028.038-.031.084-.1.135-.067.05-.117.086-.146.048-.028-.038.003-.11.071-.16.068-.051.146-.062.175-.023Z" fill="url(#aj)"/></g><g filter="url(#ak)"><path d="M17.368 5.632a.377.377 0 0 0-.103-.208l-.117.128.053.103.167-.023Z" fill="url(#al)"/></g><path d="M14.958 5.162a.627.627 0 0 0-.608.475c-.02.078.04.153.12.153h1.001a.103.103 0 0 0 .102-.122.629.629 0 0 0-.615-.506Z" fill="#fff"/><path d="M15.05 5.284a.4.4 0 0 0-.385.506h.774a.403.403 0 0 0-.388-.506Z" fill="url(#am)"/><path d="M15.28 5.685a.229.229 0 0 0-.23-.23.228.228 0 0 0-.203.335h.406a.229.229 0 0 0 .027-.105Z" fill="#000"/><g filter="url(#an)"><path d="M15.417 5.637c0-.13-.106-.215-.134-.241l-.13.125.08.162.184-.046Z" fill="url(#ao)"/></g><g filter="url(#ap)" transform="rotate(-27.914 14.93 5.455)"><ellipse cx="14.93" cy="5.455" rx=".175" ry=".089" fill="#C7A7A3" fill-opacity=".9"/><ellipse cx="14.93" cy="5.455" rx=".175" ry=".089" fill="url(#aq)"/></g><path d="M18.24 6.511c.03-.478.058-.955.083-1.432a.723.723 0 0 1-.083 1.432Z" fill="url(#ar)"/><path d="M18.24 6.511c.03-.478.058-.955.083-1.432a.723.723 0 0 1-.083 1.432Z" fill="url(#as)"/><path d="M18.24 6.511c.03-.478.058-.955.083-1.432a.723.723 0 0 1-.083 1.432Z" fill="url(#at)"/><path d="M18.24 6.511c.03-.478.058-.955.083-1.432a.723.723 0 0 1-.083 1.432Z" fill="url(#au)"/><path d="M13.767 5.075a.722.722 0 0 0 .058 1.437c-.03-.48-.049-.957-.058-1.437Z" fill="url(#av)"/><path d="M13.767 5.075a.722.722 0 0 0 .058 1.437c-.03-.48-.049-.957-.058-1.437Z" fill="url(#aw)"/><g filter="url(#ax)"><path d="M13.748 5.371a.429.429 0 0 0 .038.844 34.979 34.979 0 0 1-.038-.844Z" fill="url(#ay)"/></g><g filter="url(#az)"><path d="m18.278 6.222.05-.854a.429.429 0 0 1-.05.854Z" fill="url(#aA)"/></g><g filter="url(#aB)"><path d="M14.517 4.648a1.04 1.04 0 0 1 .743-.17" stroke="#353535" stroke-width=".1" stroke-linecap="round"/></g><g filter="url(#aC)"><path d="M17.63 4.628a1.04 1.04 0 0 0-.743-.171" stroke="#353535" stroke-width=".1" stroke-linecap="round"/></g><defs><radialGradient id="b" cx="0" cy="0" r="1" gradientUnits="userSpaceOnUse" gradientTransform="matrix(-1.84375 0 0 -12.369 13.326 16.63)"><stop offset=".138" stop-color="#D0756E"/><stop offset="1" stop-color="#D0756E" stop-opacity="0"/></radialGradient><radialGradient id="c" cx="0" cy="0" r="1" gradientUnits="userSpaceOnUse" gradientTransform="matrix(1.60938 0 0 15.4135 18.903 16.63)"><stop offset=".101" stop-color="#FF9682"/><stop offset="1" stop-color="#FF9682" stop-opacity="0"/></radialGradient><radialGradient id="d" cx="0" cy="0" r="1" gradientUnits="userSpaceOnUse" gradientTransform="matrix(.1836 -.5625 .3991 .13026 19.35 19.025)"><stop stop-color="#D48F89"/><stop offset="1" stop-color="#D48F89" stop-opacity="0"/></radialGradient><radialGradient id="e" cx="0" cy="0" r="1" gradientUnits="userSpaceOnUse" gradientTransform="matrix(-1.98267 0 0 -3.09375 13.544 12.523)"><stop offset=".638" stop-color="#F16440" stop-opacity="0"/><stop offset="1" stop-color="#F16440"/></radialGradient><radialGradient id="f" cx="0" cy="0" r="1" gradientUnits="userSpaceOnUse" gradientTransform="matrix(-1.51587 1.2383 -.95063 -1.16372 14.593 8.832)"><stop stop-color="#DE5D25"/><stop offset="1" stop-color="#DE5D25" stop-opacity="0"/></radialGradient><radialGradient id="i" cx="0" cy="0" r="1" gradientUnits="userSpaceOnUse" gradientTransform="matrix(.875 -.3125 1.2963 3.62963 18.825 11.976)"><stop offset=".251" stop-color="#FF391E"/><stop offset="1" stop-color="#FF391E" stop-opacity="0"/></radialGradient><radialGradient id="m" cx="0" cy="0" r="1" gradientUnits="userSpaceOnUse" gradientTransform="matrix(0 -.35938 1.91919 0 16.031 18.101)"><stop stop-color="#6A597B"/><stop offset="1" stop-color="#6A597B" stop-opacity="0"/></radialGradient><radialGradient id="n" cx="0" cy="0" r="1" gradientUnits="userSpaceOnUse" gradientTransform="matrix(0 -.26953 1.85938 0 18.107 28.465)"><stop stop-color="#AA9BA7"/><stop offset="1" stop-color="#AA9BA7" stop-opacity="0"/></radialGradient><radialGradient id="o" cx="0" cy="0" r="1" gradientUnits="userSpaceOnUse" gradientTransform="matrix(0 -.32813 1.20581 0 14.825 28.554)"><stop stop-color="#AA9BA7"/><stop offset="1" stop-color="#AA9BA7" stop-opacity="0"/></radialGradient><radialGradient id="r" cx="0" cy="0" r="1" gradientUnits="userSpaceOnUse" gradientTransform="rotate(140.013 7.442 8.232) scale(2.52874 3.92481)"><stop stop-color="#FF863C"/><stop offset="1" stop-color="#FF863C" stop-opacity="0"/></radialGradient><radialGradient id="s" cx="0" cy="0" r="1" gradientUnits="userSpaceOnUse" gradientTransform="matrix(1.42712 .66406 -.8419 1.8093 15.475 8.873)"><stop offset=".526" stop-color="#DC9795"/><stop offset="1" stop-color="#FAB5A2"/></radialGradient><radialGradient id="v" cx="0" cy="0" r="1" gradientUnits="userSpaceOnUse" gradientTransform="rotate(-153.096 13.317 12.363) scale(1.86466 .72714)"><stop stop-color="#635185"/><stop offset="1" stop-color="#635185" stop-opacity="0"/></radialGradient><radialGradient id="x" cx="0" cy="0" r="1" gradientUnits="userSpaceOnUse" gradientTransform="rotate(69.657 4.532 16.22) scale(.96684 1.14853)"><stop offset=".215" stop-color="#313131"/><stop offset="1" stop-color="#1A161E"/></radialGradient><radialGradient id="y" cx="0" cy="0" r="1" gradientUnits="userSpaceOnUse" gradientTransform="matrix(.66276 .2083 -.6426 2.04466 13.312 6.552)"><stop stop-color="#564943"/><stop offset=".746" stop-color="#1E191C"/></radialGradient><radialGradient id="A" cx="0" cy="0" r="1" gradientUnits="userSpaceOnUse" gradientTransform="matrix(-2.34669 0 0 -4.15127 17.291 5.91)"><stop stop-color="#FFDCC0"/><stop offset="1" stop-color="#D6A195"/></radialGradient><radialGradient id="C" cx="0" cy="0" r="1" gradientUnits="userSpaceOnUse" gradientTransform="matrix(0 5.95723 -4.9333 0 16.188 2.963)"><stop offset=".803" stop-color="#D69B93" stop-opacity="0"/><stop offset="1" stop-color="#C9747E"/></radialGradient><radialGradient id="D" cx="0" cy="0" r="1" gradientUnits="userSpaceOnUse" gradientTransform="matrix(0 -.51547 .6379 0 17.13 5.32)"><stop offset=".325" stop-color="#F6B8A8"/><stop offset="1" stop-color="#F6B8A8" stop-opacity="0"/></radialGradient><radialGradient id="E" cx="0" cy="0" r="1" gradientUnits="userSpaceOnUse" gradientTransform="matrix(.00176 -.4912 .53454 .00192 14.998 5.34)"><stop offset=".378" stop-color="#D39991"/><stop offset="1" stop-color="#D39991" stop-opacity="0"/></radialGradient><radialGradient id="F" cx="0" cy="0" r="1" gradientUnits="userSpaceOnUse" gradientTransform="rotate(176.388 8.686 3.453) scale(3.82129 9.76148)"><stop offset=".836" stop-color="#E6AD97" stop-opacity="0"/><stop offset="1" stop-color="#E6AD97"/></radialGradient><radialGradient id="G" cx="0" cy="0" r="1" gradientUnits="userSpaceOnUse" gradientTransform="matrix(1.39082 -1.47133 .53861 .50914 13.577 3.968)"><stop offset=".428" stop-color="#9F6D5C"/><stop offset="1" stop-color="#9F6D5C" stop-opacity="0"/></radialGradient><radialGradient id="H" cx="0" cy="0" r="1" gradientUnits="userSpaceOnUse" gradientTransform="matrix(-.78248 1.29411 -1.0684 -.646 17.12 3.674)"><stop offset=".078" stop-color="#F6C3B0"/><stop offset="1" stop-color="#F6C3B0" stop-opacity="0"/></radialGradient><radialGradient id="L" cx="0" cy="0" r="1" gradientUnits="userSpaceOnUse" gradientTransform="matrix(0 .10957 -.34437 0 16.24 6.52)"><stop stop-color="#FFDDC7"/><stop offset="1" stop-color="#FFDDC7" stop-opacity="0"/></radialGradient><radialGradient id="N" cx="0" cy="0" r="1" gradientUnits="userSpaceOnUse" gradientTransform="rotate(155.37 7.462 4.91) scale(.75116 1.20719)"><stop offset=".714" stop-color="#D3968C" stop-opacity="0"/><stop offset="1" stop-color="#D3968C"/></radialGradient><radialGradient id="R" cx="0" cy="0" r="1" gradientUnits="userSpaceOnUse" gradientTransform="matrix(0 -.32353 1.30163 0 16.031 7.498)"><stop stop-color="#88014E"/><stop offset="1" stop-color="#86004D"/></radialGradient><radialGradient id="U" cx="0" cy="0" r="1" gradientUnits="userSpaceOnUse" gradientTransform="matrix(0 -1.57168 3.97461 0 13.684 4.611)"><stop offset=".536" stop-color="#3E3433"/><stop offset="1" stop-color="#3E3433" stop-opacity="0"/></radialGradient><radialGradient id="V" cx="0" cy="0" r="1" gradientUnits="userSpaceOnUse" gradientTransform="matrix(.0512 -1.12784 1.9983 .0907 18.213 5.2)"><stop stop-color="#4F4D4D"/><stop offset="1" stop-color="#4F4D4D" stop-opacity="0"/></radialGradient><radialGradient id="W" cx="0" cy="0" r="1" gradientUnits="userSpaceOnUse" gradientTransform="matrix(-1.05883 -.6964 .5112 -.77724 17.875 2.382)"><stop stop-color="#5E5A5B"/><stop offset="1" stop-color="#5E5A5B" stop-opacity="0"/></radialGradient><radialGradient id="X" cx="0" cy="0" r="1" gradientUnits="userSpaceOnUse" gradientTransform="rotate(58.465 6.323 14.793) scale(.77682 1.79875)"><stop offset=".287" stop-color="#484646"/><stop offset="1" stop-color="#484646" stop-opacity="0"/></radialGradient><radialGradient id="ab" cx="0" cy="0" r="1" gradientUnits="userSpaceOnUse" gradientTransform="matrix(-.98805 0 0 -.3667 16.145 2.681)"><stop stop-color="#423C3F"/><stop offset="1" stop-color="#423C3F" stop-opacity="0"/></radialGradient><radialGradient id="ac" cx="0" cy="0" r="1" gradientUnits="userSpaceOnUse" gradientTransform="matrix(1.44458 -2.28725 2.53404 1.60044 13.593 4.45)"><stop offset=".093" stop-color="#0B0306"/><stop offset=".311" stop-color="#1C0C20"/><stop offset="1" stop-color="#1C0C20" stop-opacity="0"/></radialGradient><radialGradient id="ae" cx="0" cy="0" r="1" gradientUnits="userSpaceOnUse" gradientTransform="matrix(1.37286 0 0 .53676 17.564 3.03)"><stop stop-color="#4E494B"/><stop offset="1" stop-color="#4E494B" stop-opacity="0"/></radialGradient><radialGradient id="af" cx="0" cy="0" r="1" gradientUnits="userSpaceOnUse" gradientTransform="rotate(-43.614 14.097 -19.314) scale(1.66081 3.04052)"><stop offset=".857" stop-color="#545051" stop-opacity="0"/><stop offset="1" stop-color="#545051"/></radialGradient><radialGradient id="ag" cx="0" cy="0" r="1" gradientUnits="userSpaceOnUse" gradientTransform="matrix(1.45806 .17042 -.07135 .61047 16.816 3.73)"><stop stop-color="#200E25"/><stop offset="1" stop-color="#200E25" stop-opacity="0"/></radialGradient><radialGradient id="ah" cx="0" cy="0" r="1" gradientUnits="userSpaceOnUse" gradientTransform="matrix(0 .36419 -.57928 0 17.01 5.498)"><stop offset=".802" stop-color="#7D574A"/><stop offset="1" stop-color="#694B43"/><stop offset="1" stop-color="#804D49"/><stop offset="1" stop-color="#664842"/></radialGradient><radialGradient id="aj" cx="0" cy="0" r="1" gradientUnits="userSpaceOnUse" gradientTransform="rotate(-127.811 9.81 -1.373) scale(.16981 .23378)"><stop offset=".766" stop-color="#FFE6E2" stop-opacity="0"/><stop offset=".966" stop-color="#FFE6E2"/></radialGradient><radialGradient id="am" cx="0" cy="0" r="1" gradientUnits="userSpaceOnUse" gradientTransform="matrix(0 .3642 -.57931 0 15.052 5.498)"><stop offset=".802" stop-color="#7D574A"/><stop offset="1" stop-color="#694B43"/><stop offset="1" stop-color="#804D49"/><stop offset="1" stop-color="#664842"/></radialGradient><radialGradient id="aq" cx="0" cy="0" r="1" gradientUnits="userSpaceOnUse" gradientTransform="matrix(-.00347 -.22179 .2666 -.00417 14.923 5.596)"><stop offset=".766" stop-color="#FFE6E2" stop-opacity="0"/><stop offset=".966" stop-color="#FFE6E2"/></radialGradient><radialGradient id="as" cx="0" cy="0" r="1" gradientUnits="userSpaceOnUse" gradientTransform="matrix(.28215 1.00697 -.96072 .26919 18.104 5.504)"><stop offset=".856" stop-color="#CE978E" stop-opacity="0"/><stop offset="1" stop-color="#CE978E"/></radialGradient><radialGradient id="at" cx="0" cy="0" r="1" gradientUnits="userSpaceOnUse" gradientTransform="matrix(.35362 -.48529 .40677 .2964 18.266 5.749)"><stop offset=".664" stop-color="#F7B99C"/><stop offset="1" stop-color="#F7B99C" stop-opacity="0"/></radialGradient><radialGradient id="au" cx="0" cy="0" r="1" gradientUnits="userSpaceOnUse" gradientTransform="matrix(.2635 -.69596 .9299 .35206 18.317 5.826)"><stop offset=".803" stop-color="#EBBB9D" stop-opacity="0"/><stop offset="1" stop-color="#EBBB9D"/></radialGradient><radialGradient id="aw" cx="0" cy="0" r="1" gradientUnits="userSpaceOnUse" gradientTransform="rotate(-173.032 7.089 2.476) scale(.72951 .78309)"><stop offset=".775" stop-color="#E8AF99" stop-opacity="0"/><stop offset="1" stop-color="#E8AF99"/></radialGradient><radialGradient id="ay" cx="0" cy="0" r="1" gradientUnits="userSpaceOnUse" gradientTransform="rotate(170.258 6.666 3.486) scale(.41741 .51218)"><stop stop-color="#C18472"/><stop offset="1" stop-color="#CA8B7A"/></radialGradient><filter id="a" x="11.372" y="12.617" width="2.311" height="8.028" filterUnits="userSpaceOnUse" color-interpolation-filters="sRGB"><feFlood flood-opacity="0" result="BackgroundImageFix"/><feBlend in="SourceGraphic" in2="BackgroundImageFix" result="shape"/><feColorMatrix in="SourceAlpha" values="0 0 0 0 0 0 0 0 0 0 0 0 0 0 0 0 0 0 127 0" result="hardAlpha"/><feOffset dx=".2"/><feGaussianBlur stdDeviation=".1"/><feComposite in2="hardAlpha" operator="arithmetic" k2="-1" k3="1"/><feColorMatrix values="0 0 0 0 0.972549 0 0 0 0 0.74902 0 0 0 0 0.658824 0 0 0 1 0"/><feBlend in2="shape" result="effect1_innerShadow_4002_182"/></filter><filter id="h" x="19.195" y="11.979" width="1.464" height="6.913" filterUnits="userSpaceOnUse" color-interpolation-filters="sRGB"><feFlood flood-opacity="0" result="BackgroundImageFix"/><feBlend in="SourceGraphic" in2="BackgroundImageFix" result="shape"/><feGaussianBlur stdDeviation=".25" result="effect1_foregroundBlur_4002_182"/></filter><filter id="k" x="13.047" y="16.011" width="6.169" height="12.453" filterUnits="userSpaceOnUse" color-interpolation-filters="sRGB"><feFlood flood-opacity="0" result="BackgroundImageFix"/><feBlend in="SourceGraphic" in2="BackgroundImageFix" result="shape"/><feColorMatrix in="SourceAlpha" values="0 0 0 0 0 0 0 0 0 0 0 0 0 0 0 0 0 0 127 0" result="hardAlpha"/><feOffset dx=".2"/><feGaussianBlur stdDeviation=".4"/><feComposite in2="hardAlpha" operator="arithmetic" k2="-1" k3="1"/><feColorMatrix values="0 0 0 0 0.486275 0 0 0 0 0.462745 0 0 0 0 0.505882 0 0 0 1 0"/><feBlend in2="shape" result="effect1_innerShadow_4002_182"/></filter><filter id="p" x="12.973" y="8.468" width="6.417" height="7.594" filterUnits="userSpaceOnUse" color-interpolation-filters="sRGB"><feFlood flood-opacity="0" result="BackgroundImageFix"/><feBlend in="SourceGraphic" in2="BackgroundImageFix" result="shape"/><feColorMatrix in="SourceAlpha" values="0 0 0 0 0 0 0 0 0 0 0 0 0 0 0 0 0 0 127 0" result="hardAlpha"/><feOffset dx=".5"/><feGaussianBlur stdDeviation=".15"/><feComposite in2="hardAlpha" operator="arithmetic" k2="-1" k3="1"/><feColorMatrix values="0 0 0 0 1 0 0 0 0 0.415686 0 0 0 0 0.25098 0 0 0 1 0"/><feBlend in2="shape" result="effect1_innerShadow_4002_182"/></filter><filter id="t" x="12.465" y="28.465" width="3.316" height="1.848" filterUnits="userSpaceOnUse" color-interpolation-filters="sRGB"><feFlood flood-opacity="0" result="BackgroundImageFix"/><feBlend in="SourceGraphic" in2="BackgroundImageFix" result="shape"/><feColorMatrix in="SourceAlpha" values="0 0 0 0 0 0 0 0 0 0 0 0 0 0 0 0 0 0 127 0" result="hardAlpha"/><feOffset dx=".25" dy=".25"/><feGaussianBlur stdDeviation=".25"/><feComposite in2="hardAlpha" operator="arithmetic" k2="-1" k3="1"/><feColorMatrix values="0 0 0 0 0.313726 0 0 0 0 0.235294 0 0 0 0 0.431373 0 0 0 1 0"/><feBlend in2="shape" result="effect1_innerShadow_4002_182"/></filter><filter id="w" x="12.872" y="15.382" width="6.594" height="13.766" filterUnits="userSpaceOnUse" color-interpolation-filters="sRGB"><feFlood flood-opacity="0" result="BackgroundImageFix"/><feBlend in="SourceGraphic" in2="BackgroundImageFix" result="shape"/><feGaussianBlur stdDeviation=".5" result="effect1_foregroundBlur_4002_182"/></filter><filter id="z" x="13.758" y="3.139" width="5.588" height="5.74" filterUnits="userSpaceOnUse" color-interpolation-filters="sRGB"><feFlood flood-opacity="0" result="BackgroundImageFix"/><feBlend in="SourceGraphic" in2="BackgroundImageFix" result="shape"/><feColorMatrix in="SourceAlpha" values="0 0 0 0 0 0 0 0 0 0 0 0 0 0 0 0 0 0 127 0" result="hardAlpha"/><feOffset dx="1"/><feGaussianBlur stdDeviation=".7"/><feComposite in2="hardAlpha" operator="arithmetic" k2="-1" k3="1"/><feColorMatrix values="0 0 0 0 0.913725 0 0 0 0 0.686275 0 0 0 0 0.592157 0 0 0 1 0"/><feBlend in2="shape" result="effect1_innerShadow_4002_182"/><feColorMatrix in="SourceAlpha" values="0 0 0 0 0 0 0 0 0 0 0 0 0 0 0 0 0 0 127 0" result="hardAlpha"/><feOffset dy=".2"/><feGaussianBlur stdDeviation=".375"/><feComposite in2="hardAlpha" operator="arithmetic" k2="-1" k3="1"/><feColorMatrix values="0 0 0 0 0.780392 0 0 0 0 0.568627 0 0 0 0 0.486275 0 0 0 1 0"/><feBlend in2="effect1_innerShadow_4002_182" result="effect2_innerShadow_4002_182"/></filter><filter id="I" x="14.575" y="4.537" width="2.784" height="3.302" filterUnits="userSpaceOnUse" color-interpolation-filters="sRGB"><feFlood flood-opacity="0" result="BackgroundImageFix"/><feBlend in="SourceGraphic" in2="BackgroundImageFix" result="shape"/><feGaussianBlur stdDeviation=".5" result="effect1_foregroundBlur_4002_182"/></filter><filter id="J" x="15.51" y="5.351" width="1.043" height="1.502" filterUnits="userSpaceOnUse" color-interpolation-filters="sRGB"><feFlood flood-opacity="0" result="BackgroundImageFix"/><feBlend in="SourceGraphic" in2="BackgroundImageFix" result="shape"/><feGaussianBlur stdDeviation=".05" result="effect1_foregroundBlur_4002_182"/></filter><filter id="P" x="15.059" y="6.804" width="1.945" height=".982" filterUnits="userSpaceOnUse" color-interpolation-filters="sRGB"><feFlood flood-opacity="0" result="BackgroundImageFix"/><feBlend in="SourceGraphic" in2="BackgroundImageFix" result="shape"/><feGaussianBlur stdDeviation=".05" result="effect1_foregroundBlur_4002_182"/></filter><filter id="S" x="13.142" y="1.438" width="5.778" height="4.027" filterUnits="userSpaceOnUse" color-interpolation-filters="sRGB"><feFlood flood-opacity="0" result="BackgroundImageFix"/><feBlend in="SourceGraphic" in2="BackgroundImageFix" result="shape"/><feColorMatrix in="SourceAlpha" values="0 0 0 0 0 0 0 0 0 0 0 0 0 0 0 0 0 0 127 0" result="hardAlpha"/><feOffset dy="-.5"/><feGaussianBlur stdDeviation=".625"/><feComposite in2="hardAlpha" operator="arithmetic" k2="-1" k3="1"/><feColorMatrix values="0 0 0 0 0.137255 0 0 0 0 0.0901961 0 0 0 0 0.145098 0 0 0 1 0"/><feBlend in2="shape" result="effect1_innerShadow_4002_182"/><feColorMatrix in="SourceAlpha" values="0 0 0 0 0 0 0 0 0 0 0 0 0 0 0 0 0 0 127 0" result="hardAlpha"/><feOffset dy="-.2"/><feGaussianBlur stdDeviation=".2"/><feComposite in2="hardAlpha" operator="arithmetic" k2="-1" k3="1"/><feColorMatrix values="0 0 0 0 0.0784314 0 0 0 0 0.0352941 0 0 0 0 0.0470588 0 0 0 1 0"/><feBlend in2="effect1_innerShadow_4002_182" result="effect2_innerShadow_4002_182"/></filter><filter id="Y" x="16.744" y="4.145" width="1.105" height=".645" filterUnits="userSpaceOnUse" color-interpolation-filters="sRGB"><feFlood flood-opacity="0" result="BackgroundImageFix"/><feBlend in="SourceGraphic" in2="BackgroundImageFix" result="shape"/><feColorMatrix in="SourceAlpha" values="0 0 0 0 0 0 0 0 0 0 0 0 0 0 0 0 0 0 127 0" result="hardAlpha"/><feOffset dx=".1" dy="-.2"/><feGaussianBlur stdDeviation=".125"/><feComposite in2="hardAlpha" operator="arithmetic" k2="-1" k3="1"/><feColorMatrix values="0 0 0 0 0.0588235 0 0 0 0 0.054902 0 0 0 0 0.0588235 0 0 0 1 0"/><feBlend in2="shape" result="effect1_innerShadow_4002_182"/></filter><filter id="Z" x="14.385" y="4.152" width="1.105" height=".638" filterUnits="userSpaceOnUse" color-interpolation-filters="sRGB"><feFlood flood-opacity="0" result="BackgroundImageFix"/><feBlend in="SourceGraphic" in2="BackgroundImageFix" result="shape"/><feColorMatrix in="SourceAlpha" values="0 0 0 0 0 0 0 0 0 0 0 0 0 0 0 0 0 0 127 0" result="hardAlpha"/><feOffset dx=".1" dy="-.2"/><feGaussianBlur stdDeviation=".125"/><feComposite in2="hardAlpha" operator="arithmetic" k2="-1" k3="1"/><feColorMatrix values="0 0 0 0 0.0588235 0 0 0 0 0.054902 0 0 0 0 0.0588235 0 0 0 1 0"/><feBlend in2="shape" result="effect1_innerShadow_4002_182"/></filter><filter id="aa" x="13.313" y="2.234" width="3.231" height="2.745" filterUnits="userSpaceOnUse" color-interpolation-filters="sRGB"><feFlood flood-opacity="0" result="BackgroundImageFix"/><feBlend in="SourceGraphic" in2="BackgroundImageFix" result="shape"/><feColorMatrix in="SourceAlpha" values="0 0 0 0 0 0 0 0 0 0 0 0 0 0 0 0 0 0 127 0" result="hardAlpha"/><feOffset dx=".4" dy=".2"/><feGaussianBlur stdDeviation=".2"/><feComposite in2="hardAlpha" operator="arithmetic" k2="-1" k3="1"/><feColorMatrix values="0 0 0 0 0.286275 0 0 0 0 0.243137 0 0 0 0 0.227451 0 0 0 1 0"/><feBlend in2="shape" result="effect1_innerShadow_4002_182"/><feGaussianBlur stdDeviation=".05" result="effect2_foregroundBlur_4002_182"/></filter><filter id="ad" x="16.045" y="2.443" width="2.758" height="2.512" filterUnits="userSpaceOnUse" color-interpolation-filters="sRGB"><feFlood flood-opacity="0" result="BackgroundImageFix"/><feBlend in="SourceGraphic" in2="BackgroundImageFix" result="shape"/><feGaussianBlur stdDeviation=".05" result="effect1_foregroundBlur_4002_182"/></filter><filter id="ai" x="16.626" y="5.245" width=".463" height=".423" filterUnits="userSpaceOnUse" color-interpolation-filters="sRGB"><feFlood flood-opacity="0" result="BackgroundImageFix"/><feBlend in="SourceGraphic" in2="BackgroundImageFix" result="shape"/><feGaussianBlur stdDeviation=".05" result="effect1_foregroundBlur_4002_182"/></filter><filter id="ak" x="16.948" y="5.224" width=".62" height=".63" filterUnits="userSpaceOnUse" color-interpolation-filters="sRGB"><feFlood flood-opacity="0" result="BackgroundImageFix"/><feBlend in="SourceGraphic" in2="BackgroundImageFix" result="shape"/><feGaussianBlur stdDeviation=".1" result="effect1_foregroundBlur_4002_182"/></filter><filter id="an" x="14.953" y="5.196" width=".663" height=".687" filterUnits="userSpaceOnUse" color-interpolation-filters="sRGB"><feFlood flood-opacity="0" result="BackgroundImageFix"/><feBlend in="SourceGraphic" in2="BackgroundImageFix" result="shape"/><feGaussianBlur stdDeviation=".1" result="effect1_foregroundBlur_4002_182"/></filter><filter id="ap" x="14.67" y="5.242" width=".52" height=".427" filterUnits="userSpaceOnUse" color-interpolation-filters="sRGB"><feFlood flood-opacity="0" result="BackgroundImageFix"/><feBlend in="SourceGraphic" in2="BackgroundImageFix" result="shape"/><feGaussianBlur stdDeviation=".05" result="effect1_foregroundBlur_4002_182"/></filter><filter id="ax" x="13.164" y="5.121" width=".872" height="1.344" filterUnits="userSpaceOnUse" color-interpolation-filters="sRGB"><feFlood flood-opacity="0" result="BackgroundImageFix"/><feBlend in="SourceGraphic" in2="BackgroundImageFix" result="shape"/><feGaussianBlur stdDeviation=".125" result="effect1_foregroundBlur_4002_182"/></filter><filter id="az" x="17.778" y="4.868" width="1.425" height="1.854" filterUnits="userSpaceOnUse" color-interpolation-filters="sRGB"><feFlood flood-opacity="0" result="BackgroundImageFix"/><feBlend in="SourceGraphic" in2="BackgroundImageFix" result="shape"/><feGaussianBlur stdDeviation=".25" result="effect1_foregroundBlur_4002_182"/></filter><filter id="aB" x="14.367" y="4.314" width="1.043" height=".484" filterUnits="userSpaceOnUse" color-interpolation-filters="sRGB"><feFlood flood-opacity="0" result="BackgroundImageFix"/><feBlend in="SourceGraphic" in2="BackgroundImageFix" result="shape"/><feGaussianBlur stdDeviation=".05" result="effect1_foregroundBlur_4002_182"/></filter><filter id="aC" x="16.736" y="4.294" width="1.043" height=".484" filterUnits="userSpaceOnUse" color-interpolation-filters="sRGB"><feFlood flood-opacity="0" result="BackgroundImageFix"/><feBlend in="SourceGraphic" in2="BackgroundImageFix" result="shape"/><feGaussianBlur stdDeviation=".05" result="effect1_foregroundBlur_4002_182"/></filter><linearGradient id="g" x1="12.497" y1="12.781" x2="12.497" y2="12.304" gradientUnits="userSpaceOnUse"><stop stop-color="#FB2D18"/><stop offset="1" stop-color="#FB2D18" stop-opacity="0"/></linearGradient><linearGradient id="j" x1="19.778" y1="12.867" x2="19.778" y2="12.164" gradientUnits="userSpaceOnUse"><stop stop-color="#FF381E"/><stop offset="1" stop-color="#FF381E" stop-opacity="0"/></linearGradient><linearGradient id="l" x1="16.031" y1="16.011" x2="16.031" y2="16.445" gradientUnits="userSpaceOnUse"><stop stop-color="#856988"/><stop offset="1" stop-color="#856988" stop-opacity="0"/></linearGradient><linearGradient id="q" x1="16.031" y1="9.101" x2="16.031" y2="16.062" gradientUnits="userSpaceOnUse"><stop stop-color="#FF7325"/><stop offset="1" stop-color="#FF4C2E"/></linearGradient><linearGradient id="u" x1="18.278" y1="29.726" x2="16.531" y2="29.523" gradientUnits="userSpaceOnUse"><stop stop-color="#5A3F7C"/><stop offset="1" stop-color="#462F5E"/></linearGradient><linearGradient id="B" x1="18.346" y1="6.666" x2="16.392" y2="6.666" gradientUnits="userSpaceOnUse"><stop stop-color="#FFD6BA"/><stop offset="1" stop-color="#FFD6BA" stop-opacity="0"/></linearGradient><linearGradient id="K" x1="16.407" y1="6.212" x2="16.031" y2="6.228" gradientUnits="userSpaceOnUse"><stop offset=".36" stop-color="#FFDFC7"/><stop offset="1" stop-color="#FFDFC7" stop-opacity="0"/></linearGradient><linearGradient id="M" x1="16.031" y1="6.724" x2="16.031" y2="6.515" gradientUnits="userSpaceOnUse"><stop stop-color="#D89793"/><stop offset="1" stop-color="#D89793" stop-opacity="0"/></linearGradient><linearGradient id="O" x1="16.031" y1="5.451" x2="16.031" y2="5.755" gradientUnits="userSpaceOnUse"><stop stop-color="#E8BBA8"/><stop offset="1" stop-color="#E8BBA8" stop-opacity="0"/></linearGradient><linearGradient id="Q" x1="15.492" y1="7.429" x2="15.634" y2="7.054" gradientUnits="userSpaceOnUse"><stop stop-color="#E1ACA6"/><stop offset="1" stop-color="#E1ACA6" stop-opacity="0"/></linearGradient><linearGradient id="T" x1="19.107" y1="3.367" x2="13.894" y2="3.367" gradientUnits="userSpaceOnUse"><stop stop-color="#443D40"/><stop offset="1" stop-color="#272127"/></linearGradient><linearGradient id="al" x1="17.36" y1="5.522" x2="17.219" y2="5.609" gradientUnits="userSpaceOnUse"><stop stop-color="#B4948D"/><stop offset="1" stop-color="#B4948D" stop-opacity="0"/></linearGradient><linearGradient id="ao" x1="15.385" y1="5.522" x2="15.245" y2="5.609" gradientUnits="userSpaceOnUse"><stop stop-color="#B4948D"/><stop offset="1" stop-color="#B4948D" stop-opacity="0"/></linearGradient><linearGradient id="ar" x1="18.92" y1="5.534" x2="18.378" y2="6.511" gradientUnits="userSpaceOnUse"><stop stop-color="#FFD6BD"/><stop offset="1" stop-color="#F0B8A6"/></linearGradient><linearGradient id="av" x1="13.405" y1="5.85" x2="14.06" y2="5.793" gradientUnits="userSpaceOnUse"><stop stop-color="#D19787"/><stop offset="1" stop-color="#C9887D"/></linearGradient><linearGradient id="aA" x1="18.49" y1="5.368" x2="18.49" y2="6.222" gradientUnits="userSpaceOnUse"><stop stop-color="#F9BB9E"/><stop offset="1" stop-color="#F6BBA0"/></linearGradient></defs></svg>