<svg xmlns="http://www.w3.org/2000/svg" fill="none" viewBox="0 0 32 32"><path fill="url(#person-deaf-medium_svg__a)" d="M30.002 16.51v13.16H12.619a18.07 18.07 0 0 1 17.383-13.16"/><path fill="url(#person-deaf-medium_svg__b)" d="M30.002 16.51v13.16H12.619a18.07 18.07 0 0 1 17.383-13.16"/><path fill="url(#person-deaf-medium_svg__c)" d="M30.002 11.67c-1.657 0-3 1.38-3 3.081v3.838c0 1.702 1.343 3.081 3 3.081z"/><path fill="url(#person-deaf-medium_svg__d)" d="M30.002 11.67c-1.657 0-3 1.38-3 3.081v3.838c0 1.702 1.343 3.081 3 3.081z"/><path fill="#4C3A35" d="M19.002 1.67a3.9 3.9 0 0 0 .642 1.56c.288.426.444.927.45 1.44v6.84a3.57 3.57 0 0 0 2.41 3.38l3.11 1.08V3.78l4.331.016V1.67z"/><path fill="url(#person-deaf-medium_svg__e)" d="M19.002 1.67a3.9 3.9 0 0 0 .642 1.56c.288.426.444.927.45 1.44v6.84a3.57 3.57 0 0 0 2.41 3.38l3.11 1.08V3.78l4.331.016V1.67z"/><path fill="url(#person-deaf-medium_svg__f)" d="M19.002 1.67a3.9 3.9 0 0 0 .642 1.56c.288.426.444.927.45 1.44v6.84a3.57 3.57 0 0 0 2.41 3.38l3.11 1.08V3.78l4.331.016V1.67z"/><path fill="url(#person-deaf-medium_svg__g)" d="M19.002 1.67a3.9 3.9 0 0 0 .642 1.56c.288.426.444.927.45 1.44v6.84a3.57 3.57 0 0 0 2.41 3.38l3.11 1.08V3.78l4.331.016V1.67z"/><g filter="url(#person-deaf-medium_svg__h)"><path fill="url(#person-deaf-medium_svg__i)" d="M21.752 10.17a2.75 2.75 0 1 0 0-5.5 2.75 2.75 0 0 0 0 5.5"/></g><g filter="url(#person-deaf-medium_svg__j)"><path stroke="#B1856A" stroke-linecap="round" stroke-width=".3" d="M19.49 7.42c0-.652.276-1.24.718-1.654"/></g><g filter="url(#person-deaf-medium_svg__k)"><path fill="url(#person-deaf-medium_svg__l)" d="M21.752 9.17a1.75 1.75 0 1 0 0-3.5 1.75 1.75 0 0 0 0 3.5"/></g><g filter="url(#person-deaf-medium_svg__m)"><path fill="url(#person-deaf-medium_svg__n)" fill-rule="evenodd" d="M14.535 8.546a.85.85 0 0 1 .937.753 5.64 5.64 0 0 0 1.488 3.242.85.85 0 0 1-1.243 1.16 7.34 7.34 0 0 1-1.935-4.218.85.85 0 0 1 .753-.937" clip-rule="evenodd"/></g><g filter="url(#person-deaf-medium_svg__o)"><path fill="url(#person-deaf-medium_svg__p)" fill-rule="evenodd" d="M11.634 9.026a.85.85 0 0 1 .942.746c.207 1.788 1.009 3.3 2.22 4.708a.85.85 0 0 1-1.29 1.108c-1.367-1.59-2.362-3.408-2.618-5.62a.85.85 0 0 1 .746-.942" clip-rule="evenodd"/></g><g filter="url(#person-deaf-medium_svg__q)"><path fill="#A87A70" d="M30.002 1.67h-8.555c-.445.5-.513 1.515-.445 2l.49 9a6.53 6.53 0 0 0 2.171 4.036c1.188 1.038 3.331 1.612 4.909 1.614h1.43z"/><path fill="url(#person-deaf-medium_svg__r)" d="M30.002 1.67h-8.555c-.445.5-.513 1.515-.445 2l.49 9a6.53 6.53 0 0 0 2.171 4.036c1.188 1.038 3.331 1.612 4.909 1.614h1.43z"/><path fill="url(#person-deaf-medium_svg__s)" d="M30.002 1.67h-8.555c-.445.5-.513 1.515-.445 2l.49 9a6.53 6.53 0 0 0 2.171 4.036c1.188 1.038 3.331 1.612 4.909 1.614h1.43z"/></g><path fill="url(#person-deaf-medium_svg__t)" d="M30.002 1.67h-8.555c-.445.5-.513 1.515-.445 2l.49 9a6.53 6.53 0 0 0 2.171 4.036c1.188 1.038 3.331 1.612 4.909 1.614h1.43z"/><path fill="url(#person-deaf-medium_svg__u)" d="M30.002 1.67h-8.555c-.445.5-.513 1.515-.445 2l.49 9a6.53 6.53 0 0 0 2.171 4.036c1.188 1.038 3.331 1.612 4.909 1.614h1.43z"/><path fill="url(#person-deaf-medium_svg__v)" d="M30.002 1.67h-8.555c-.445.5-.513 1.515-.445 2l.49 9a6.53 6.53 0 0 0 2.171 4.036c1.188 1.038 3.331 1.612 4.909 1.614h1.43z"/><path fill="url(#person-deaf-medium_svg__w)" d="M30.002 1.67h-8.555c-.445.5-.513 1.515-.445 2l.49 9a6.53 6.53 0 0 0 2.171 4.036c1.188 1.038 3.331 1.612 4.909 1.614h1.43z"/><path fill="url(#person-deaf-medium_svg__x)" d="m19.143 25.48-.485.922-6.656-2.5c.052-.256.222-.994.484-1.907.263-.912.844-2.328 1.141-2.953l6.64 2.188.737-1.37a1.498 1.498 0 0 1 2.22-.488c.66.496.794 1.431.289 2.083-.361.466-.76.97-1.105 1.384-.87 1.045-1.64 1.453-2.297 1.75a2.23 2.23 0 0 0-.968.89"/><path fill="url(#person-deaf-medium_svg__y)" d="m19.143 25.48-.485.922-6.656-2.5c.052-.256.222-.994.484-1.907.263-.912.844-2.328 1.141-2.953l6.64 2.188.737-1.37a1.498 1.498 0 0 1 2.22-.488c.66.496.794 1.431.289 2.083-.361.466-.76.97-1.105 1.384-.87 1.045-1.64 1.453-2.297 1.75a2.23 2.23 0 0 0-.968.89"/><path fill="url(#person-deaf-medium_svg__z)" d="m19.143 25.48-.485.922-6.656-2.5c.052-.256.222-.994.484-1.907.263-.912.844-2.328 1.141-2.953l6.64 2.188.737-1.37a1.498 1.498 0 0 1 2.22-.488c.66.496.794 1.431.289 2.083-.361.466-.76.97-1.105 1.384-.87 1.045-1.64 1.453-2.297 1.75a2.23 2.23 0 0 0-.968.89"/><path fill="url(#person-deaf-medium_svg__A)" d="m19.143 25.48-.485.922-6.656-2.5c.052-.256.222-.994.484-1.907.263-.912.844-2.328 1.141-2.953l6.64 2.188.737-1.37a1.498 1.498 0 0 1 2.22-.488c.66.496.794 1.431.289 2.083-.361.466-.76.97-1.105 1.384-.87 1.045-1.64 1.453-2.297 1.75a2.23 2.23 0 0 0-.968.89"/><path fill="url(#person-deaf-medium_svg__B)" d="m19.143 25.48-.485.922-6.656-2.5c.052-.256.222-.994.484-1.907.263-.912.844-2.328 1.141-2.953l6.64 2.188.737-1.37a1.498 1.498 0 0 1 2.22-.488c.66.496.794 1.431.289 2.083-.361.466-.76.97-1.105 1.384-.87 1.045-1.64 1.453-2.297 1.75a2.23 2.23 0 0 0-.968.89"/><path fill="url(#person-deaf-medium_svg__C)" d="m19.143 25.48-.485.922-6.656-2.5c.052-.256.222-.994.484-1.907.263-.912.844-2.328 1.141-2.953l6.64 2.188.737-1.37a1.498 1.498 0 0 1 2.22-.488c.66.496.794 1.431.289 2.083-.361.466-.76.97-1.105 1.384-.87 1.045-1.64 1.453-2.297 1.75a2.23 2.23 0 0 0-.968.89"/><path fill="url(#person-deaf-medium_svg__D)" d="m19.143 25.48-.485.922-6.656-2.5c.052-.256.222-.994.484-1.907.263-.912.844-2.328 1.141-2.953l6.64 2.188.737-1.37a1.498 1.498 0 0 1 2.22-.488c.66.496.794 1.431.289 2.083-.361.466-.76.97-1.105 1.384-.87 1.045-1.64 1.453-2.297 1.75a2.23 2.23 0 0 0-.968.89"/><path fill="url(#person-deaf-medium_svg__E)" d="m19.143 25.48-.485.922-6.656-2.5c.052-.256.222-.994.484-1.907.263-.912.844-2.328 1.141-2.953l6.64 2.188.737-1.37a1.498 1.498 0 0 1 2.22-.488c.66.496.794 1.431.289 2.083-.361.466-.76.97-1.105 1.384-.87 1.045-1.64 1.453-2.297 1.75a2.23 2.23 0 0 0-.968.89"/><rect width="2.859" height="8.147" x="21.155" y="13.032" fill="url(#person-deaf-medium_svg__F)" rx="1.429" transform="rotate(25.409 21.155 13.032)"/><rect width="2.859" height="8.147" x="21.155" y="13.032" fill="url(#person-deaf-medium_svg__G)" rx="1.429" transform="rotate(25.409 21.155 13.032)"/><rect width="2.859" height="8.147" x="21.155" y="13.032" fill="url(#person-deaf-medium_svg__H)" rx="1.429" transform="rotate(25.409 21.155 13.032)"/><path fill="url(#person-deaf-medium_svg__I)" d="M19.384 17.03a2.43 2.43 0 0 0-2.296.874l1.227 2.021c-.058.733.093 2.24 1.22 2.382 1.408.176 1.935-1.088 1.995-2.382.06-1.285-.724-2.663-2.146-2.896"/><path fill="url(#person-deaf-medium_svg__J)" d="M19.384 17.03a2.43 2.43 0 0 0-2.296.874l1.227 2.021c-.058.733.093 2.24 1.22 2.382 1.408.176 1.935-1.088 1.995-2.382.06-1.285-.724-2.663-2.146-2.896"/><path fill="url(#person-deaf-medium_svg__K)" d="M19.384 17.03a2.43 2.43 0 0 0-2.296.874l1.227 2.021c-.058.733.093 2.24 1.22 2.382 1.408.176 1.935-1.088 1.995-2.382.06-1.285-.724-2.663-2.146-2.896"/><path fill="url(#person-deaf-medium_svg__L)" d="M19.384 17.03a2.43 2.43 0 0 0-2.296.874l1.227 2.021c-.058.733.093 2.24 1.22 2.382 1.408.176 1.935-1.088 1.995-2.382.06-1.285-.724-2.663-2.146-2.896"/><path fill="url(#person-deaf-medium_svg__M)" d="M17.986 16.98c-1.23-.207-2.086.523-2.382.93l1.273 2.148c-.06.779.097 2.381 1.266 2.531 1.46.188 2.008-1.156 2.07-2.531.062-1.366-.75-2.831-2.227-3.078"/><path fill="url(#person-deaf-medium_svg__N)" d="M17.986 16.98c-1.23-.207-2.086.523-2.382.93l1.273 2.148c-.06.779.097 2.381 1.266 2.531 1.46.188 2.008-1.156 2.07-2.531.062-1.366-.75-2.831-2.227-3.078"/><path fill="url(#person-deaf-medium_svg__O)" d="M17.986 16.98c-1.23-.207-2.086.523-2.382.93l1.273 2.148c-.06.779.097 2.381 1.266 2.531 1.46.188 2.008-1.156 2.07-2.531.062-1.366-.75-2.831-2.227-3.078"/><path fill="url(#person-deaf-medium_svg__P)" d="M17.986 16.98c-1.23-.207-2.086.523-2.382.93l1.273 2.148c-.06.779.097 2.381 1.266 2.531 1.46.188 2.008-1.156 2.07-2.531.062-1.366-.75-2.831-2.227-3.078"/><path fill="url(#person-deaf-medium_svg__Q)" d="M17.783 20.976c.598-1.607-.205-2.863-1.062-3.223-1.038-.435-2.5-.086-3.149 1.414v.406h1.54c.07 0 .119.073.094.14-.702 1.868.212 2.185.609 2.376.248.12 1.414.38 1.968-1.113"/><path fill="url(#person-deaf-medium_svg__R)" d="M17.783 20.976c.598-1.607-.205-2.863-1.062-3.223-1.038-.435-2.5-.086-3.149 1.414v.406h1.54c.07 0 .119.073.094.14-.702 1.868.212 2.185.609 2.376.248.12 1.414.38 1.968-1.113"/><g filter="url(#person-deaf-medium_svg__S)"><path fill="#342725" fill-rule="evenodd" d="M26.731 3.178a3.6 3.6 0 0 0-2.465.59.49.49 0 0 1-.548-.812 4.58 4.58 0 0 1 3.135-.75.49.49 0 0 1-.122.972" clip-rule="evenodd"/></g><g filter="url(#person-deaf-medium_svg__T)"><path fill="url(#person-deaf-medium_svg__U)" d="M29.777 7.67c-.112.016-.107-.622-.199-.556-.18 0-.324.293-.367.43l-.986 2.654a.9.9 0 0 0 .143.808c.087.115.2.208.33.272.362.179.849-.034 1.195-.143z"/></g><path fill="url(#person-deaf-medium_svg__V)" d="M30.002 6.677a.63.63 0 0 0-.29.124.67.67 0 0 0-.234.34l-.847 2.852a.95.95 0 0 0 .135.808.9.9 0 0 0 .31.271.85.85 0 0 0 .393.098h.533z"/><path fill="url(#person-deaf-medium_svg__W)" d="M30.002 6.677a.63.63 0 0 0-.29.124.67.67 0 0 0-.234.34l-.847 2.852a.95.95 0 0 0 .135.808.9.9 0 0 0 .31.271.85.85 0 0 0 .393.098h.533z"/><path fill="url(#person-deaf-medium_svg__X)" d="M30.002 6.677a.63.63 0 0 0-.29.124.67.67 0 0 0-.234.34l-.847 2.852a.95.95 0 0 0 .135.808.9.9 0 0 0 .31.271.85.85 0 0 0 .393.098h.533z"/><path fill="url(#person-deaf-medium_svg__Y)" d="M30.002 6.677a.63.63 0 0 0-.29.124.67.67 0 0 0-.234.34l-.847 2.852a.95.95 0 0 0 .135.808.9.9 0 0 0 .31.271.85.85 0 0 0 .393.098h.533z"/><g filter="url(#person-deaf-medium_svg__Z)"><path stroke="url(#person-deaf-medium_svg__aa)" stroke-width=".2" d="M30.002 12.797a5 5 0 0 1-.25.005 4.84 4.84 0 0 1-2.372-.604.25.25 0 0 0-.164-.023.26.26 0 0 0-.144.086.297.297 0 0 0-.033.333c.292.484.694.881 1.168 1.157a3.07 3.07 0 0 0 1.795.409z"/></g><path fill="url(#person-deaf-medium_svg__ab)" d="M30.002 12.797a5 5 0 0 1-.25.005 4.84 4.84 0 0 1-2.372-.604.25.25 0 0 0-.164-.023.26.26 0 0 0-.144.086.297.297 0 0 0-.033.333c.292.484.694.881 1.168 1.157a3.07 3.07 0 0 0 1.795.409z"/><path fill="url(#person-deaf-medium_svg__ac)" d="m18.65 26.012-6.275-2.78a.5.5 0 0 0-.66.253l-.617 1.39a.5.5 0 0 0 .254.66l6.274 2.78a.5.5 0 0 0 .66-.254l.617-1.39a.5.5 0 0 0-.254-.66"/><path fill="url(#person-deaf-medium_svg__ad)" d="m18.65 26.012-6.275-2.78a.5.5 0 0 0-.66.253l-.617 1.39a.5.5 0 0 0 .254.66l6.274 2.78a.5.5 0 0 0 .66-.254l.617-1.39a.5.5 0 0 0-.254-.66"/><path fill="url(#person-deaf-medium_svg__ae)" d="m18.65 26.012-6.275-2.78a.5.5 0 0 0-.66.253l-.617 1.39a.5.5 0 0 0 .254.66l6.274 2.78a.5.5 0 0 0 .66-.254l.617-1.39a.5.5 0 0 0-.254-.66"/><path fill="url(#person-deaf-medium_svg__af)" d="M18.876 29.67H8.045l1.76-4.056c.169-.384.481-.686.869-.837a1.55 1.55 0 0 1 1.198.029l6.204 2.772c.377.175.671.493.82.886.148.39.14.822-.02 1.206"/><path fill="url(#person-deaf-medium_svg__ag)" d="M18.876 29.67H8.045l1.76-4.056c.169-.384.481-.686.869-.837a1.55 1.55 0 0 1 1.198.029l6.204 2.772c.377.175.671.493.82.886.148.39.14.822-.02 1.206"/><path fill="url(#person-deaf-medium_svg__ah)" d="M18.876 29.67H8.045l1.76-4.056c.169-.384.481-.686.869-.837a1.55 1.55 0 0 1 1.198.029l6.204 2.772c.377.175.671.493.82.886.148.39.14.822-.02 1.206"/><path fill="#fff" d="M26.008 5.32a2.345 2.345 0 0 0-2.275 1.778.46.46 0 0 0 .45.572h3.746c.239 0 .43-.218.382-.456a2.35 2.35 0 0 0-2.303-1.894"/><path fill="url(#person-deaf-medium_svg__ai)" d="M26.356 5.777A1.5 1.5 0 0 0 24.91 7.67h2.895c.035-.13.055-.258.055-.395a1.51 1.51 0 0 0-1.505-1.498"/><path fill="#000" d="M27.214 7.275a.855.855 0 0 0-.858-.858.855.855 0 0 0-.859.858c0 .143.034.28.096.395h1.519a.85.85 0 0 0 .102-.395"/><g filter="url(#person-deaf-medium_svg__aj)"><path fill="url(#person-deaf-medium_svg__ak)" d="M27.725 7.1c0-.485-.394-.808-.5-.905l-.485.468.298.607z"/></g><g filter="url(#person-deaf-medium_svg__al)"><path fill="url(#person-deaf-medium_svg__am)" fill-opacity=".9" d="M26.44 6.21c.085.16.044.355-.32.388a.37.37 0 0 0-.26.162c-.155.219-.356.143-.438-.011-.097-.183.052-.453.333-.602s.588-.12.685.063"/><path fill="url(#person-deaf-medium_svg__an)" d="M26.44 6.21c.085.16.044.355-.32.388a.37.37 0 0 0-.26.162c-.155.219-.356.143-.438-.011-.097-.183.052-.453.333-.602s.588-.12.685.063"/></g><g stroke-linecap="round" stroke-width=".2" filter="url(#person-deaf-medium_svg__ao)"><path stroke="url(#person-deaf-medium_svg__ap)" d="M23.97 3.23c.397-.292 1.526-.838 2.876-.688"/><path stroke="url(#person-deaf-medium_svg__aq)" d="M23.97 3.23c.397-.292 1.526-.838 2.876-.688"/></g><g filter="url(#person-deaf-medium_svg__ar)"><path stroke="#D4D2DD" stroke-linecap="round" stroke-width=".5" d="M12.002 9.711c.12 1.042.849 3.49 2.436 5.147"/></g><g filter="url(#person-deaf-medium_svg__as)"><path stroke="#D4D2DD" stroke-linecap="round" stroke-width=".5" d="M14.87 9.31c.142.832.67 2.717 1.632 3.61"/></g><g filter="url(#person-deaf-medium_svg__at)"><path stroke="url(#person-deaf-medium_svg__au)" stroke-linecap="round" stroke-width=".35" d="M15.367 18.52c-.93 0-1.798.546-2.773 4.445"/></g><defs><radialGradient id="person-deaf-medium_svg__a" cx="0" cy="0" r="1" gradientTransform="matrix(-8.25 6.43749 -5.94882 -7.62374 28.627 21.323)" gradientUnits="userSpaceOnUse"><stop offset=".264" stop-color="#F4781C"/><stop offset="1" stop-color="#E86028"/></radialGradient><radialGradient id="person-deaf-medium_svg__b" cx="0" cy="0" r="1" gradientTransform="matrix(-6.31247 3.18755 -1.54809 -3.06576 27 17.497)" gradientUnits="userSpaceOnUse"><stop offset=".129" stop-color="#B5510A"/><stop offset="1" stop-color="#B5510A" stop-opacity="0"/></radialGradient><radialGradient id="person-deaf-medium_svg__d" cx="0" cy="0" r="1" gradientTransform="matrix(0 2.1875 -1.95964 0 28.672 17.887)" gradientUnits="userSpaceOnUse"><stop stop-color="#793A52"/><stop offset="1" stop-color="#793A52" stop-opacity="0"/></radialGradient><radialGradient id="person-deaf-medium_svg__f" cx="0" cy="0" r="1" gradientTransform="rotate(157.751 10.864 3.603)scale(2.22841 4.74135)" gradientUnits="userSpaceOnUse"><stop offset=".481" stop-color="#5A4041"/><stop offset="1" stop-color="#444040" stop-opacity="0"/><stop offset="1" stop-color="#5A4041" stop-opacity="0"/></radialGradient><radialGradient id="person-deaf-medium_svg__g" cx="0" cy="0" r="1" gradientTransform="matrix(.32812 2.98438 -.50734 .05578 20.752 .683)" gradientUnits="userSpaceOnUse"><stop offset=".288" stop-color="#401E29"/><stop offset="1" stop-color="#401E29" stop-opacity="0"/></radialGradient><radialGradient id="person-deaf-medium_svg__i" cx="0" cy="0" r="1" gradientTransform="rotate(48.824 3.56 23.983)scale(5.4345 6.32377)" gradientUnits="userSpaceOnUse"><stop stop-color="#9A7156"/><stop offset=".691" stop-color="#98665E"/></radialGradient><radialGradient id="person-deaf-medium_svg__l" cx="0" cy="0" r="1" gradientTransform="matrix(.02322 2.08777 -1.69852 .01889 21.288 7.42)" gradientUnits="userSpaceOnUse"><stop offset=".407" stop-color="#7F5348"/><stop offset="1" stop-color="#7F4E43"/></radialGradient><radialGradient id="person-deaf-medium_svg__n" cx="0" cy="0" r="1" gradientTransform="rotate(151.783 6.777 7.54)scale(2.18107 6.10648)" gradientUnits="userSpaceOnUse"><stop offset=".256" stop-color="#CFCBD9"/><stop offset="1" stop-color="#978CA5"/></radialGradient><radialGradient id="person-deaf-medium_svg__p" cx="0" cy="0" r="1" gradientTransform="rotate(150.678 5.39 7.876)scale(2.66165 7.63701)" gradientUnits="userSpaceOnUse"><stop offset=".256" stop-color="#CFCBD9"/><stop offset="1" stop-color="#978CA5"/></radialGradient><radialGradient id="person-deaf-medium_svg__s" cx="0" cy="0" r="1" gradientTransform="matrix(0 -6.82355 26.136 0 30.002 18.32)" gradientUnits="userSpaceOnUse"><stop stop-color="#9C5A6F"/><stop offset="1" stop-color="#9C5A6F" stop-opacity="0"/></radialGradient><radialGradient id="person-deaf-medium_svg__t" cx="0" cy="0" r="1" gradientTransform="matrix(-14.502 0 0 -6.80925 30.002 18.59)" gradientUnits="userSpaceOnUse"><stop offset=".016" stop-color="#A05382"/><stop offset=".572" stop-color="#9D5673" stop-opacity="0"/></radialGradient><radialGradient id="person-deaf-medium_svg__u" cx="0" cy="0" r="1" gradientTransform="rotate(-48.397 14.415 -21.578)scale(6.79441 2.12597)" gradientUnits="userSpaceOnUse"><stop offset=".153" stop-color="#B3836B"/><stop offset="1" stop-color="#B3836B" stop-opacity="0"/></radialGradient><radialGradient id="person-deaf-medium_svg__v" cx="0" cy="0" r="1" gradientTransform="matrix(0 -2.5 2.95858 0 25.938 5.575)" gradientUnits="userSpaceOnUse"><stop offset=".175" stop-color="#976463"/><stop offset="1" stop-color="#976463" stop-opacity="0"/></radialGradient><radialGradient id="person-deaf-medium_svg__w" cx="0" cy="0" r="1" gradientTransform="matrix(1.99219 -3.02344 .37608 .2478 20.719 2.701)" gradientUnits="userSpaceOnUse"><stop offset=".109" stop-color="#5E3837"/><stop offset="1" stop-color="#5E3837" stop-opacity="0"/></radialGradient><radialGradient id="person-deaf-medium_svg__x" cx="0" cy="0" r="1" gradientTransform="rotate(-88.989 22.36 2.072)scale(6.95499 13.3224)" gradientUnits="userSpaceOnUse"><stop stop-color="#C88B7F"/><stop offset="1" stop-color="#BC9272"/></radialGradient><radialGradient id="person-deaf-medium_svg__y" cx="0" cy="0" r="1" gradientTransform="rotate(98.935 -.013 18.365)scale(3.36759 4.00423)" gradientUnits="userSpaceOnUse"><stop stop-color="#8F5560"/><stop offset="1" stop-color="#8F5560" stop-opacity="0"/></radialGradient><radialGradient id="person-deaf-medium_svg__z" cx="0" cy="0" r="1" gradientTransform="rotate(146.31 8.831 13.46)scale(2.74459 .73645)" gradientUnits="userSpaceOnUse"><stop offset=".247" stop-color="#CFA68B"/><stop offset="1" stop-color="#CFA68B" stop-opacity="0"/></radialGradient><radialGradient id="person-deaf-medium_svg__A" cx="0" cy="0" r="1" gradientTransform="matrix(1.78125 -5.1875 2.72418 .9354 13.75 22.5)" gradientUnits="userSpaceOnUse"><stop offset=".218" stop-color="#A87167"/><stop offset="1" stop-color="#9D6672" stop-opacity="0"/></radialGradient><radialGradient id="person-deaf-medium_svg__B" cx="0" cy="0" r="1" gradientTransform="rotate(118.292 2.076 15.124)scale(2.77345 2.16703)" gradientUnits="userSpaceOnUse"><stop offset=".233" stop-color="#934A65"/><stop offset="1" stop-color="#934A65" stop-opacity="0"/></radialGradient><radialGradient id="person-deaf-medium_svg__C" cx="0" cy="0" r="1" gradientTransform="rotate(111.181 1.822 16.41)scale(2.68113 1.92717)" gradientUnits="userSpaceOnUse"><stop offset=".583" stop-color="#834757"/><stop offset="1" stop-color="#834757" stop-opacity="0"/></radialGradient><radialGradient id="person-deaf-medium_svg__D" cx="0" cy="0" r="1" gradientTransform="matrix(1.90625 1.0625 -1.39266 2.4986 20.969 19.389)" gradientUnits="userSpaceOnUse"><stop offset=".305" stop-color="#A2775C"/><stop offset="1" stop-color="#A2775C" stop-opacity="0"/></radialGradient><radialGradient id="person-deaf-medium_svg__E" cx="0" cy="0" r="1" gradientTransform="rotate(-56.915 33.705 -6.348)scale(3.69243 1.43464)" gradientUnits="userSpaceOnUse"><stop offset=".157" stop-color="#A96778"/><stop offset="1" stop-color="#A96778" stop-opacity="0"/></radialGradient><radialGradient id="person-deaf-medium_svg__F" cx="0" cy="0" r="1" gradientTransform="rotate(-7.34 145.898 -159.367)scale(2.3174 4.35558)" gradientUnits="userSpaceOnUse"><stop stop-color="#9B7055"/><stop offset="1" stop-color="#B6857A"/></radialGradient><radialGradient id="person-deaf-medium_svg__G" cx="0" cy="0" r="1" gradientTransform="rotate(-54.082 24.373 -16.723)scale(2.27954 .78049)" gradientUnits="userSpaceOnUse"><stop offset=".201" stop-color="#CCA48D"/><stop offset="1" stop-color="#CCA48D" stop-opacity="0"/></radialGradient><radialGradient id="person-deaf-medium_svg__H" cx="0" cy="0" r="1" gradientTransform="rotate(91.156 2.693 18.816)scale(3.52879 .49425)" gradientUnits="userSpaceOnUse"><stop offset=".238" stop-color="#B28769"/><stop offset="1" stop-color="#B28769" stop-opacity="0"/></radialGradient><radialGradient id="person-deaf-medium_svg__I" cx="0" cy="0" r="1" gradientTransform="matrix(-2.0625 .25 -.1857 -1.53207 21.875 18.934)" gradientUnits="userSpaceOnUse"><stop offset=".262" stop-color="#D2A990"/><stop offset="1" stop-color="#B58E70"/></radialGradient><radialGradient id="person-deaf-medium_svg__J" cx="0" cy="0" r="1" gradientTransform="matrix(1.23147 -.56064 .71722 1.5754 19.957 22.323)" gradientUnits="userSpaceOnUse"><stop stop-color="#9F5374"/><stop offset="1" stop-color="#9F5374" stop-opacity="0"/></radialGradient><radialGradient id="person-deaf-medium_svg__K" cx="0" cy="0" r="1" gradientTransform="matrix(1.0098 4.1052 -2.79361 .68718 19.428 18.494)" gradientUnits="userSpaceOnUse"><stop offset=".874" stop-color="#9F5A7F" stop-opacity="0"/><stop offset=".928" stop-color="#9F5A7F"/></radialGradient><radialGradient id="person-deaf-medium_svg__L" cx="0" cy="0" r="1" gradientTransform="rotate(-31.891 42.736 -22.275)scale(2.48437 2.73467)" gradientUnits="userSpaceOnUse"><stop offset=".591" stop-color="#AA8669"/><stop offset="1" stop-color="#AA8669" stop-opacity="0"/></radialGradient><radialGradient id="person-deaf-medium_svg__M" cx="0" cy="0" r="1" gradientTransform="matrix(-2.14016 .2657 -.20201 -1.62719 20.57 19.004)" gradientUnits="userSpaceOnUse"><stop offset=".262" stop-color="#D1A98F"/><stop offset="1" stop-color="#B38A6D"/></radialGradient><radialGradient id="person-deaf-medium_svg__N" cx="0" cy="0" r="1" gradientTransform="rotate(-27.397 54.88 -24.849)scale(2.95842 6.85321)" gradientUnits="userSpaceOnUse"><stop offset=".048" stop-color="#9C4D61"/><stop offset="1" stop-color="#A75673" stop-opacity="0"/></radialGradient><radialGradient id="person-deaf-medium_svg__O" cx="0" cy="0" r="1" gradientTransform="matrix(1.04783 4.36318 -2.90657 .69802 18.032 18.537)" gradientUnits="userSpaceOnUse"><stop offset=".874" stop-color="#AA6885" stop-opacity="0"/><stop offset=".928" stop-color="#AA6885"/></radialGradient><radialGradient id="person-deaf-medium_svg__P" cx="0" cy="0" r="1" gradientTransform="matrix(1.9801 -1.4232 1.5372 2.13871 16.373 19.31)" gradientUnits="userSpaceOnUse"><stop offset=".53" stop-color="#A98061"/><stop offset="1" stop-color="#885B4C" stop-opacity="0"/><stop offset="1" stop-color="#A98061" stop-opacity="0"/></radialGradient><radialGradient id="person-deaf-medium_svg__Q" cx="0" cy="0" r="1" gradientTransform="rotate(147.824 6.281 12.005)scale(2.9396 1.7606)" gradientUnits="userSpaceOnUse"><stop offset=".086" stop-color="#D1A790"/><stop offset="1" stop-color="#B07E71"/></radialGradient><radialGradient id="person-deaf-medium_svg__R" cx="0" cy="0" r="1" gradientTransform="rotate(-86.517 19.958 2.592)scale(1.8002 3.61142)" gradientUnits="userSpaceOnUse"><stop offset=".095" stop-color="#A25368"/><stop offset="1" stop-color="#A25368" stop-opacity="0"/></radialGradient><radialGradient id="person-deaf-medium_svg__W" cx="0" cy="0" r="1" gradientTransform="matrix(0 -1.253 2.26733 0 30.08 11.17)" gradientUnits="userSpaceOnUse"><stop offset=".163" stop-color="#975F6D"/><stop offset="1" stop-color="#975F6D" stop-opacity="0"/></radialGradient><radialGradient id="person-deaf-medium_svg__X" cx="0" cy="0" r="1" gradientTransform="matrix(.85143 -2.94638 .58301 .16848 28.715 9.693)" gradientUnits="userSpaceOnUse"><stop offset=".189" stop-color="#B2856C"/><stop offset="1" stop-color="#B2856C" stop-opacity="0"/></radialGradient><radialGradient id="person-deaf-medium_svg__ab" cx="0" cy="0" r="1" gradientTransform="matrix(-2.08594 0 0 -2.32812 30.096 13.464)" gradientUnits="userSpaceOnUse"><stop stop-color="#920054"/><stop offset="1" stop-color="#87004D"/></radialGradient><radialGradient id="person-deaf-medium_svg__ad" cx="0" cy="0" r="1" gradientTransform="rotate(111.801 .032 18.363)scale(1.178 11.8917)" gradientUnits="userSpaceOnUse"><stop offset=".172" stop-color="#FF844D"/><stop offset=".629" stop-color="#FF844D" stop-opacity="0"/></radialGradient><radialGradient id="person-deaf-medium_svg__ah" cx="0" cy="0" r="1" gradientTransform="rotate(113.806 -.318 18.97)scale(1.16131 4.175)" gradientUnits="userSpaceOnUse"><stop offset=".207" stop-color="#FF964C"/><stop offset="1" stop-color="#FF964C" stop-opacity="0"/></radialGradient><radialGradient id="person-deaf-medium_svg__ai" cx="0" cy="0" r="1" gradientTransform="matrix(0 1.36233 -2.16693 0 26.359 6.578)" gradientUnits="userSpaceOnUse"><stop offset=".802" stop-color="#7F594B"/><stop offset="1" stop-color="#694B43"/><stop offset="1" stop-color="#804D49"/><stop offset="1" stop-color="#85534D"/><stop offset="1" stop-color="#704E45"/></radialGradient><radialGradient id="person-deaf-medium_svg__am" cx="0" cy="0" r="1" gradientTransform="matrix(-.32813 -.53906 .98203 -.59777 26.115 6.827)" gradientUnits="userSpaceOnUse"><stop offset=".208" stop-color="#C7A7A3" stop-opacity=".25"/><stop offset=".79" stop-color="#C7A7A3"/></radialGradient><radialGradient id="person-deaf-medium_svg__an" cx="0" cy="0" r="1" gradientTransform="matrix(-.45084 -.82655 .77084 -.42045 26.192 7.02)" gradientUnits="userSpaceOnUse"><stop offset=".766" stop-color="#FFE6E2" stop-opacity="0"/><stop offset=".966" stop-color="#FFE6E2"/></radialGradient><linearGradient id="person-deaf-medium_svg__c" x1="30.314" x2="28.846" y1="18.98" y2="18.98" gradientUnits="userSpaceOnUse"><stop stop-color="#8D5A62"/><stop offset="1" stop-color="#824D44"/></linearGradient><linearGradient id="person-deaf-medium_svg__e" x1="21.658" x2="21.658" y1="14.355" y2="9.605" gradientUnits="userSpaceOnUse"><stop stop-color="#36212F"/><stop offset=".496" stop-color="#36212F" stop-opacity="0"/></linearGradient><linearGradient id="person-deaf-medium_svg__r" x1="21.571" x2="24.375" y1="9.175" y2="8.969" gradientUnits="userSpaceOnUse"><stop offset=".126" stop-color="#B18169"/><stop offset="1" stop-color="#B18169" stop-opacity="0"/></linearGradient><linearGradient id="person-deaf-medium_svg__U" x1="27.953" x2="28.734" y1="10.966" y2="7.528" gradientUnits="userSpaceOnUse"><stop stop-color="#915C5C"/><stop offset=".675" stop-color="#B0846E"/></linearGradient><linearGradient id="person-deaf-medium_svg__V" x1="29.298" x2="29.298" y1="6.677" y2="11.17" gradientUnits="userSpaceOnUse"><stop stop-color="#AC816D" stop-opacity="0"/><stop offset=".141" stop-color="#AC816D"/></linearGradient><linearGradient id="person-deaf-medium_svg__Y" x1="29.688" x2="29.688" y1="11.311" y2="10.92" gradientUnits="userSpaceOnUse"><stop offset=".105" stop-color="#88505D"/><stop offset="1" stop-color="#88505D" stop-opacity="0"/></linearGradient><linearGradient id="person-deaf-medium_svg__aa" x1="27.689" x2="28.375" y1="13.73" y2="12.872" gradientUnits="userSpaceOnUse"><stop stop-color="#835A5B"/><stop offset="1" stop-color="#835A5B" stop-opacity="0"/></linearGradient><linearGradient id="person-deaf-medium_svg__ac" x1="12.552" x2="18.094" y1="25.113" y2="27.434" gradientUnits="userSpaceOnUse"><stop stop-color="#E75D24"/><stop offset="1" stop-color="#FF6D2E"/><stop offset="1" stop-color="#FF7030"/></linearGradient><linearGradient id="person-deaf-medium_svg__ae" x1="11.643" x2="13.101" y1="24.674" y2="25.38" gradientUnits="userSpaceOnUse"><stop offset=".399" stop-color="#EE6F1A"/><stop offset="1" stop-color="#EE6F1A" stop-opacity="0"/></linearGradient><linearGradient id="person-deaf-medium_svg__af" x1="9.315" x2="16.688" y1="27.73" y2="30.465" gradientUnits="userSpaceOnUse"><stop stop-color="#DE5F2F"/><stop offset="1" stop-color="#FF7735"/></linearGradient><linearGradient id="person-deaf-medium_svg__ag" x1="15.19" x2="14.44" y1="25.855" y2="27.573" gradientUnits="userSpaceOnUse"><stop stop-color="#FF831D"/><stop offset="1" stop-color="#FF831D" stop-opacity="0"/></linearGradient><linearGradient id="person-deaf-medium_svg__ak" x1="27.608" x2="27.081" y1="6.668" y2="6.993" gradientUnits="userSpaceOnUse"><stop stop-color="#B4948D"/><stop offset="1" stop-color="#B4948D" stop-opacity="0"/></linearGradient><linearGradient id="person-deaf-medium_svg__ap" x1="26.942" x2="24.86" y1="2.568" y2="1.381" gradientUnits="userSpaceOnUse"><stop offset=".01" stop-color="#5D4F4F"/><stop offset="1" stop-color="#5D4F4F" stop-opacity="0"/></linearGradient><linearGradient id="person-deaf-medium_svg__aq" x1="23.971" x2="24.546" y1="3.433" y2="3.552" gradientUnits="userSpaceOnUse"><stop offset=".01" stop-color="#5D4F4F"/><stop offset="1" stop-color="#5D4F4F" stop-opacity="0"/></linearGradient><linearGradient id="person-deaf-medium_svg__au" x1="13.938" x2="13.938" y1="18.364" y2="22.965" gradientUnits="userSpaceOnUse"><stop stop-color="#B98E75"/><stop offset="1" stop-color="#B98E75" stop-opacity="0"/></linearGradient><filter id="person-deaf-medium_svg__h" width="5.5" height="5.75" x="19.002" y="4.42" color-interpolation-filters="sRGB" filterUnits="userSpaceOnUse"><feFlood flood-opacity="0" result="BackgroundImageFix"/><feBlend in="SourceGraphic" in2="BackgroundImageFix" result="shape"/><feColorMatrix in="SourceAlpha" result="hardAlpha" values="0 0 0 0 0 0 0 0 0 0 0 0 0 0 0 0 0 0 127 0"/><feOffset dy="-.25"/><feGaussianBlur stdDeviation=".25"/><feComposite in2="hardAlpha" k2="-1" k3="1" operator="arithmetic"/><feColorMatrix values="0 0 0 0 0.556863 0 0 0 0 0.313726 0 0 0 0 0.380392 0 0 0 1 0"/><feBlend in2="shape" result="effect1_innerShadow_4002_3955"/></filter><filter id="person-deaf-medium_svg__j" width="1.919" height="2.854" x="18.889" y="5.166" color-interpolation-filters="sRGB" filterUnits="userSpaceOnUse"><feFlood flood-opacity="0" result="BackgroundImageFix"/><feBlend in="SourceGraphic" in2="BackgroundImageFix" result="shape"/><feGaussianBlur result="effect1_foregroundBlur_4002_3955" stdDeviation=".225"/></filter><filter id="person-deaf-medium_svg__k" width="4.5" height="4.5" x="19.502" y="5.17" color-interpolation-filters="sRGB" filterUnits="userSpaceOnUse"><feFlood flood-opacity="0" result="BackgroundImageFix"/><feBlend in="SourceGraphic" in2="BackgroundImageFix" result="shape"/><feGaussianBlur result="effect1_foregroundBlur_4002_3955" stdDeviation=".25"/></filter><filter id="person-deaf-medium_svg__m" width="3.711" height="5.581" x="13.677" y="8.441" color-interpolation-filters="sRGB" filterUnits="userSpaceOnUse"><feFlood flood-opacity="0" result="BackgroundImageFix"/><feBlend in="SourceGraphic" in2="BackgroundImageFix" result="shape"/><feColorMatrix in="SourceAlpha" result="hardAlpha" values="0 0 0 0 0 0 0 0 0 0 0 0 0 0 0 0 0 0 127 0"/><feOffset dx=".2" dy="-.1"/><feGaussianBlur stdDeviation=".3"/><feComposite in2="hardAlpha" k2="-1" k3="1" operator="arithmetic"/><feColorMatrix values="0 0 0 0 0.427451 0 0 0 0 0.380392 0 0 0 0 0.478431 0 0 0 1 0"/><feBlend in2="shape" result="effect1_innerShadow_4002_3955"/><feColorMatrix in="SourceAlpha" result="hardAlpha" values="0 0 0 0 0 0 0 0 0 0 0 0 0 0 0 0 0 0 127 0"/><feOffset dx="-.1" dy=".05"/><feGaussianBlur stdDeviation=".15"/><feComposite in2="hardAlpha" k2="-1" k3="1" operator="arithmetic"/><feColorMatrix values="0 0 0 0 0.678431 0 0 0 0 0.678431 0 0 0 0 0.694118 0 0 0 1 0"/><feBlend in2="effect1_innerShadow_4002_3955" result="effect2_innerShadow_4002_3955"/></filter><filter id="person-deaf-medium_svg__o" width="4.419" height="7.014" x="10.782" y="8.92" color-interpolation-filters="sRGB" filterUnits="userSpaceOnUse"><feFlood flood-opacity="0" result="BackgroundImageFix"/><feBlend in="SourceGraphic" in2="BackgroundImageFix" result="shape"/><feColorMatrix in="SourceAlpha" result="hardAlpha" values="0 0 0 0 0 0 0 0 0 0 0 0 0 0 0 0 0 0 127 0"/><feOffset dx=".2" dy="-.1"/><feGaussianBlur stdDeviation=".3"/><feComposite in2="hardAlpha" k2="-1" k3="1" operator="arithmetic"/><feColorMatrix values="0 0 0 0 0.427451 0 0 0 0 0.380392 0 0 0 0 0.478431 0 0 0 1 0"/><feBlend in2="shape" result="effect1_innerShadow_4002_3955"/><feColorMatrix in="SourceAlpha" result="hardAlpha" values="0 0 0 0 0 0 0 0 0 0 0 0 0 0 0 0 0 0 127 0"/><feOffset dx="-.1" dy=".05"/><feGaussianBlur stdDeviation=".15"/><feComposite in2="hardAlpha" k2="-1" k3="1" operator="arithmetic"/><feColorMatrix values="0 0 0 0 0.678431 0 0 0 0 0.678431 0 0 0 0 0.694118 0 0 0 1 0"/><feBlend in2="effect1_innerShadow_4002_3955" result="effect2_innerShadow_4002_3955"/></filter><filter id="person-deaf-medium_svg__q" width="9.122" height="16.65" x="20.98" y="1.67" color-interpolation-filters="sRGB" filterUnits="userSpaceOnUse"><feFlood flood-opacity="0" result="BackgroundImageFix"/><feBlend in="SourceGraphic" in2="BackgroundImageFix" result="shape"/><feColorMatrix in="SourceAlpha" result="hardAlpha" values="0 0 0 0 0 0 0 0 0 0 0 0 0 0 0 0 0 0 127 0"/><feOffset dx=".1"/><feGaussianBlur stdDeviation=".125"/><feComposite in2="hardAlpha" k2="-1" k3="1" operator="arithmetic"/><feColorMatrix values="0 0 0 0 0.686275 0 0 0 0 0.513726 0 0 0 0 0.431373 0 0 0 1 0"/><feBlend in2="shape" result="effect1_innerShadow_4002_3955"/></filter><filter id="person-deaf-medium_svg__S" width="3.88" height="1.932" x="23.502" y="1.92" color-interpolation-filters="sRGB" filterUnits="userSpaceOnUse"><feFlood flood-opacity="0" result="BackgroundImageFix"/><feBlend in="SourceGraphic" in2="BackgroundImageFix" result="shape"/><feColorMatrix in="SourceAlpha" result="hardAlpha" values="0 0 0 0 0 0 0 0 0 0 0 0 0 0 0 0 0 0 127 0"/><feOffset dx=".1" dy="-.25"/><feGaussianBlur stdDeviation=".125"/><feComposite in2="hardAlpha" k2="-1" k3="1" operator="arithmetic"/><feColorMatrix values="0 0 0 0 0.164706 0 0 0 0 0.0823529 0 0 0 0 0.156863 0 0 0 1 0"/><feBlend in2="shape" result="effect1_innerShadow_4002_3955"/></filter><filter id="person-deaf-medium_svg__T" width="2.707" height="5.238" x="27.685" y="6.609" color-interpolation-filters="sRGB" filterUnits="userSpaceOnUse"><feFlood flood-opacity="0" result="BackgroundImageFix"/><feBlend in="SourceGraphic" in2="BackgroundImageFix" result="shape"/><feGaussianBlur result="effect1_foregroundBlur_4002_3955" stdDeviation=".25"/></filter><filter id="person-deaf-medium_svg__Z" width="3.6" height="2.6" x="26.702" y="11.87" color-interpolation-filters="sRGB" filterUnits="userSpaceOnUse"><feFlood flood-opacity="0" result="BackgroundImageFix"/><feBlend in="SourceGraphic" in2="BackgroundImageFix" result="shape"/><feGaussianBlur result="effect1_foregroundBlur_4002_3955" stdDeviation=".1"/></filter><filter id="person-deaf-medium_svg__aj" width="1.385" height="1.475" x="26.54" y="5.995" color-interpolation-filters="sRGB" filterUnits="userSpaceOnUse"><feFlood flood-opacity="0" result="BackgroundImageFix"/><feBlend in="SourceGraphic" in2="BackgroundImageFix" result="shape"/><feGaussianBlur result="effect1_foregroundBlur_4002_3955" stdDeviation=".1"/></filter><filter id="person-deaf-medium_svg__al" width="1.285" height="1.044" x="25.293" y="5.952" color-interpolation-filters="sRGB" filterUnits="userSpaceOnUse"><feFlood flood-opacity="0" result="BackgroundImageFix"/><feBlend in="SourceGraphic" in2="BackgroundImageFix" result="shape"/><feGaussianBlur result="effect1_foregroundBlur_4002_3955" stdDeviation=".05"/></filter><filter id="person-deaf-medium_svg__ao" width="3.575" height="1.413" x="23.621" y="2.167" color-interpolation-filters="sRGB" filterUnits="userSpaceOnUse"><feFlood flood-opacity="0" result="BackgroundImageFix"/><feBlend in="SourceGraphic" in2="BackgroundImageFix" result="shape"/><feGaussianBlur result="effect1_foregroundBlur_4002_3955" stdDeviation=".125"/></filter><filter id="person-deaf-medium_svg__ar" width="3.936" height="6.647" x="11.252" y="8.961" color-interpolation-filters="sRGB" filterUnits="userSpaceOnUse"><feFlood flood-opacity="0" result="BackgroundImageFix"/><feBlend in="SourceGraphic" in2="BackgroundImageFix" result="shape"/><feGaussianBlur result="effect1_foregroundBlur_4002_3955" stdDeviation=".25"/></filter><filter id="person-deaf-medium_svg__as" width="3.133" height="5.109" x="14.119" y="8.561" color-interpolation-filters="sRGB" filterUnits="userSpaceOnUse"><feFlood flood-opacity="0" result="BackgroundImageFix"/><feBlend in="SourceGraphic" in2="BackgroundImageFix" result="shape"/><feGaussianBlur result="effect1_foregroundBlur_4002_3955" stdDeviation=".25"/></filter><filter id="person-deaf-medium_svg__at" width="4.123" height="5.795" x="11.919" y="17.845" color-interpolation-filters="sRGB" filterUnits="userSpaceOnUse"><feFlood flood-opacity="0" result="BackgroundImageFix"/><feBlend in="SourceGraphic" in2="BackgroundImageFix" result="shape"/><feGaussianBlur result="effect1_foregroundBlur_4002_3955" stdDeviation=".25"/></filter></defs></svg>