<svg xmlns="http://www.w3.org/2000/svg" fill="none" viewBox="0 0 32 32"><path fill="url(#person-gesturing-no-medium_svg__a)" d="M22.239 14.96c.43-.014.833-.16 1.161-.396v1.195a2.79 2.79 0 0 1-1.722 2.593c.219-.465.37-.973.444-1.515z"/><path fill="url(#person-gesturing-no-medium_svg__b)" d="M9.752 14.96a2.1 2.1 0 0 1-1.162-.396v1.195a2.79 2.79 0 0 0 1.722 2.593 5.3 5.3 0 0 1-.444-1.515z"/><g filter="url(#person-gesturing-no-medium_svg__c)"><path fill="url(#person-gesturing-no-medium_svg__d)" d="M9.798 16.906a5.03 5.03 0 0 0 4.99 4.374h2.424a5.03 5.03 0 0 0 4.99-4.374c.152-2.42.304-4.829.417-7.247a1.86 1.86 0 0 0-1.771-1.84h-1.799a3.11 3.11 0 0 1-2.84-1.852.85.85 0 0 0-.79-.537h-1.635c-2.37 0-4.292 1.942-4.292 4.34 0 2.39.15 4.74.306 7.136"/><path fill="url(#person-gesturing-no-medium_svg__e)" d="M9.798 16.906a5.03 5.03 0 0 0 4.99 4.374h2.424a5.03 5.03 0 0 0 4.99-4.374c.152-2.42.304-4.829.417-7.247a1.86 1.86 0 0 0-1.771-1.84h-1.799a3.11 3.11 0 0 1-2.84-1.852.85.85 0 0 0-.79-.537h-1.635c-2.37 0-4.292 1.942-4.292 4.34 0 2.39.15 4.74.306 7.136"/></g><path fill="url(#person-gesturing-no-medium_svg__f)" d="M9.798 16.906a5.03 5.03 0 0 0 4.99 4.374h2.424a5.03 5.03 0 0 0 4.99-4.374c.152-2.42.304-4.829.417-7.247a1.86 1.86 0 0 0-1.771-1.84h-1.799a3.11 3.11 0 0 1-2.84-1.852.85.85 0 0 0-.79-.537h-1.635c-2.37 0-4.292 1.942-4.292 4.34 0 2.39.15 4.74.306 7.136"/><path fill="url(#person-gesturing-no-medium_svg__g)" d="M9.798 16.906a5.03 5.03 0 0 0 4.99 4.374h2.424a5.03 5.03 0 0 0 4.99-4.374c.152-2.42.304-4.829.417-7.247a1.86 1.86 0 0 0-1.771-1.84h-1.799a3.11 3.11 0 0 1-2.84-1.852.85.85 0 0 0-.79-.537h-1.635c-2.37 0-4.292 1.942-4.292 4.34 0 2.39.15 4.74.306 7.136"/><path fill="url(#person-gesturing-no-medium_svg__h)" d="M9.798 16.906a5.03 5.03 0 0 0 4.99 4.374h2.424a5.03 5.03 0 0 0 4.99-4.374c.152-2.42.304-4.829.417-7.247a1.86 1.86 0 0 0-1.771-1.84h-1.799a3.11 3.11 0 0 1-2.84-1.852.85.85 0 0 0-.79-.537h-1.635c-2.37 0-4.292 1.942-4.292 4.34 0 2.39.15 4.74.306 7.136"/><path fill="url(#person-gesturing-no-medium_svg__i)" d="M9.798 16.906a5.03 5.03 0 0 0 4.99 4.374h2.424a5.03 5.03 0 0 0 4.99-4.374c.152-2.42.304-4.829.417-7.247a1.86 1.86 0 0 0-1.771-1.84h-1.799a3.11 3.11 0 0 1-2.84-1.852.85.85 0 0 0-.79-.537h-1.635c-2.37 0-4.292 1.942-4.292 4.34 0 2.39.15 4.74.306 7.136"/><path fill="url(#person-gesturing-no-medium_svg__j)" d="M9.798 16.906a5.03 5.03 0 0 0 4.99 4.374h2.424a5.03 5.03 0 0 0 4.99-4.374c.152-2.42.304-4.829.417-7.247a1.86 1.86 0 0 0-1.771-1.84h-1.799a3.11 3.11 0 0 1-2.84-1.852.85.85 0 0 0-.79-.537h-1.635c-2.37 0-4.292 1.942-4.292 4.34 0 2.39.15 4.74.306 7.136"/><path fill="url(#person-gesturing-no-medium_svg__k)" d="M9.798 16.906a5.03 5.03 0 0 0 4.99 4.374h2.424a5.03 5.03 0 0 0 4.99-4.374c.152-2.42.304-4.829.417-7.247a1.86 1.86 0 0 0-1.771-1.84h-1.799a3.11 3.11 0 0 1-2.84-1.852.85.85 0 0 0-.79-.537h-1.635c-2.37 0-4.292 1.942-4.292 4.34 0 2.39.15 4.74.306 7.136"/><path fill="url(#person-gesturing-no-medium_svg__l)" d="M9.798 16.906a5.03 5.03 0 0 0 4.99 4.374h2.424a5.03 5.03 0 0 0 4.99-4.374c.152-2.42.304-4.829.417-7.247a1.86 1.86 0 0 0-1.771-1.84h-1.799a3.11 3.11 0 0 1-2.84-1.852.85.85 0 0 0-.79-.537h-1.635c-2.37 0-4.292 1.942-4.292 4.34 0 2.39.15 4.74.306 7.136"/><path fill="url(#person-gesturing-no-medium_svg__m)" d="M9.798 16.906a5.03 5.03 0 0 0 4.99 4.374h2.424a5.03 5.03 0 0 0 4.99-4.374c.152-2.42.304-4.829.417-7.247a1.86 1.86 0 0 0-1.771-1.84h-1.799a3.11 3.11 0 0 1-2.84-1.852.85.85 0 0 0-.79-.537h-1.635c-2.37 0-4.292 1.942-4.292 4.34 0 2.39.15 4.74.306 7.136"/><path fill="url(#person-gesturing-no-medium_svg__n)" d="M9.798 16.906a5.03 5.03 0 0 0 4.99 4.374h2.424a5.03 5.03 0 0 0 4.99-4.374c.152-2.42.304-4.829.417-7.247a1.86 1.86 0 0 0-1.771-1.84h-1.799a3.11 3.11 0 0 1-2.84-1.852.85.85 0 0 0-.79-.537h-1.635c-2.37 0-4.292 1.942-4.292 4.34 0 2.39.15 4.74.306 7.136"/><g filter="url(#person-gesturing-no-medium_svg__o)"><path fill="#6F3F46" d="m15.37 12.689-.815 2.36c-.139.486.196.972.67.972h1.009c.474 0 .808-.493.669-.972l-.683-2.36c-.146-.524-.696-.524-.85 0"/></g><g filter="url(#person-gesturing-no-medium_svg__p)"><path fill="#A3776D" d="m15.504 12.458-.683 2.361c-.139.486.196.972.67.972H16.5c.474 0 .808-.493.669-.972l-.683-2.36c-.146-.524-.829-.524-.982 0"/><path fill="url(#person-gesturing-no-medium_svg__q)" d="m15.504 12.458-.683 2.361c-.139.486.196.972.67.972H16.5c.474 0 .808-.493.669-.972l-.683-2.36c-.146-.524-.829-.524-.982 0"/><path fill="url(#person-gesturing-no-medium_svg__r)" d="m15.504 12.458-.683 2.361c-.139.486.196.972.67.972H16.5c.474 0 .808-.493.669-.972l-.683-2.36c-.146-.524-.829-.524-.982 0"/><path fill="url(#person-gesturing-no-medium_svg__s)" d="m15.504 12.458-.683 2.361c-.139.486.196.972.67.972H16.5c.474 0 .808-.493.669-.972l-.683-2.36c-.146-.524-.829-.524-.982 0"/><path fill="url(#person-gesturing-no-medium_svg__t)" d="m15.504 12.458-.683 2.361c-.139.486.196.972.67.972H16.5c.474 0 .808-.493.669-.972l-.683-2.36c-.146-.524-.829-.524-.982 0"/><path fill="url(#person-gesturing-no-medium_svg__u)" d="m15.504 12.458-.683 2.361c-.139.486.196.972.67.972H16.5c.474 0 .808-.493.669-.972l-.683-2.36c-.146-.524-.829-.524-.982 0"/></g><g filter="url(#person-gesturing-no-medium_svg__v)"><path fill="url(#person-gesturing-no-medium_svg__w)" d="M22.23 4.823c.66.228 1.253.69 1.628 1.35.6 1.055.511 2.315-.136 3.245-.225.33-.348.723-.348 1.123v1.526a2.2 2.2 0 0 0-.856-.345l.1-2.063a1.86 1.86 0 0 0-1.77-1.84h-1.799a3.11 3.11 0 0 1-2.84-1.852.85.85 0 0 0-.79-.537h-1.635c-2.37 0-4.292 1.942-4.292 4.34l.028 1.976c-.326.048-.655.155-.913.336v-1.541c0-.4-.123-.792-.348-1.123a3.07 3.07 0 0 1-.184-3.141c.375-.71.981-1.206 1.67-1.447a3.44 3.44 0 0 0 1.777-1.426 2.99 2.99 0 0 1 2.534-1.412c.416 0 .81.09 1.179.241.49.214 1.042.214 1.532 0a3 3 0 0 1 1.172-.24c1.083 0 2.03.585 2.554 1.453a3.24 3.24 0 0 0 1.737 1.377"/><path fill="url(#person-gesturing-no-medium_svg__x)" d="M22.23 4.823c.66.228 1.253.69 1.628 1.35.6 1.055.511 2.315-.136 3.245-.225.33-.348.723-.348 1.123v1.526a2.2 2.2 0 0 0-.856-.345l.1-2.063a1.86 1.86 0 0 0-1.77-1.84h-1.799a3.11 3.11 0 0 1-2.84-1.852.85.85 0 0 0-.79-.537h-1.635c-2.37 0-4.292 1.942-4.292 4.34l.028 1.976c-.326.048-.655.155-.913.336v-1.541c0-.4-.123-.792-.348-1.123a3.07 3.07 0 0 1-.184-3.141c.375-.71.981-1.206 1.67-1.447a3.44 3.44 0 0 0 1.777-1.426 2.99 2.99 0 0 1 2.534-1.412c.416 0 .81.09 1.179.241.49.214 1.042.214 1.532 0a3 3 0 0 1 1.172-.24c1.083 0 2.03.585 2.554 1.453a3.24 3.24 0 0 0 1.737 1.377"/><path fill="url(#person-gesturing-no-medium_svg__y)" d="M22.23 4.823c.66.228 1.253.69 1.628 1.35.6 1.055.511 2.315-.136 3.245-.225.33-.348.723-.348 1.123v1.526a2.2 2.2 0 0 0-.856-.345l.1-2.063a1.86 1.86 0 0 0-1.77-1.84h-1.799a3.11 3.11 0 0 1-2.84-1.852.85.85 0 0 0-.79-.537h-1.635c-2.37 0-4.292 1.942-4.292 4.34l.028 1.976c-.326.048-.655.155-.913.336v-1.541c0-.4-.123-.792-.348-1.123a3.07 3.07 0 0 1-.184-3.141c.375-.71.981-1.206 1.67-1.447a3.44 3.44 0 0 0 1.777-1.426 2.99 2.99 0 0 1 2.534-1.412c.416 0 .81.09 1.179.241.49.214 1.042.214 1.532 0a3 3 0 0 1 1.172-.24c1.083 0 2.03.585 2.554 1.453a3.24 3.24 0 0 0 1.737 1.377"/><path fill="url(#person-gesturing-no-medium_svg__z)" d="M22.23 4.823c.66.228 1.253.69 1.628 1.35.6 1.055.511 2.315-.136 3.245-.225.33-.348.723-.348 1.123v1.526a2.2 2.2 0 0 0-.856-.345l.1-2.063a1.86 1.86 0 0 0-1.77-1.84h-1.799a3.11 3.11 0 0 1-2.84-1.852.85.85 0 0 0-.79-.537h-1.635c-2.37 0-4.292 1.942-4.292 4.34l.028 1.976c-.326.048-.655.155-.913.336v-1.541c0-.4-.123-.792-.348-1.123a3.07 3.07 0 0 1-.184-3.141c.375-.71.981-1.206 1.67-1.447a3.44 3.44 0 0 0 1.777-1.426 2.99 2.99 0 0 1 2.534-1.412c.416 0 .81.09 1.179.241.49.214 1.042.214 1.532 0a3 3 0 0 1 1.172-.24c1.083 0 2.03.585 2.554 1.453a3.24 3.24 0 0 0 1.737 1.377"/><path fill="url(#person-gesturing-no-medium_svg__A)" d="M22.23 4.823c.66.228 1.253.69 1.628 1.35.6 1.055.511 2.315-.136 3.245-.225.33-.348.723-.348 1.123v1.526a2.2 2.2 0 0 0-.856-.345l.1-2.063a1.86 1.86 0 0 0-1.77-1.84h-1.799a3.11 3.11 0 0 1-2.84-1.852.85.85 0 0 0-.79-.537h-1.635c-2.37 0-4.292 1.942-4.292 4.34l.028 1.976c-.326.048-.655.155-.913.336v-1.541c0-.4-.123-.792-.348-1.123a3.07 3.07 0 0 1-.184-3.141c.375-.71.981-1.206 1.67-1.447a3.44 3.44 0 0 0 1.777-1.426 2.99 2.99 0 0 1 2.534-1.412c.416 0 .81.09 1.179.241.49.214 1.042.214 1.532 0a3 3 0 0 1 1.172-.24c1.083 0 2.03.585 2.554 1.453a3.24 3.24 0 0 0 1.737 1.377"/></g><g filter="url(#person-gesturing-no-medium_svg__B)"><path fill="#533634" d="M16.294 6.143a3 3 0 0 1-.085-.176.85.85 0 0 0-.79-.537h-1.635c-2.37 0-4.292 1.942-4.292 4.34v.353c-.436-.333-.986-1.033-.986-2.168 0-1.376 1.004-2.072 1.645-2.516.18-.125.332-.23.425-.325l.128-.135c.448-.476 1.248-1.324 2.645-1.695a7.2 7.2 0 0 1 2.167-.203c.472.026.805.434.805.907v2.137z"/><path fill="url(#person-gesturing-no-medium_svg__C)" d="M16.294 6.143a3 3 0 0 1-.085-.176.85.85 0 0 0-.79-.537h-1.635c-2.37 0-4.292 1.942-4.292 4.34v.353c-.436-.333-.986-1.033-.986-2.168 0-1.376 1.004-2.072 1.645-2.516.18-.125.332-.23.425-.325l.128-.135c.448-.476 1.248-1.324 2.645-1.695a7.2 7.2 0 0 1 2.167-.203c.472.026.805.434.805.907v2.137z"/><path fill="url(#person-gesturing-no-medium_svg__D)" d="M16.294 6.143a3 3 0 0 1-.085-.176.85.85 0 0 0-.79-.537h-1.635c-2.37 0-4.292 1.942-4.292 4.34v.353c-.436-.333-.986-1.033-.986-2.168 0-1.376 1.004-2.072 1.645-2.516.18-.125.332-.23.425-.325l.128-.135c.448-.476 1.248-1.324 2.645-1.695a7.2 7.2 0 0 1 2.167-.203c.472.026.805.434.805.907v2.137z"/></g><g filter="url(#person-gesturing-no-medium_svg__E)"><path fill="#563936" d="m22.69 10.474-.038-.811c-.014-.98-.824-1.79-1.805-1.83H19.05a3.11 3.11 0 0 1-2.728-1.619s-.16-.372-.258-.96c-.165-.989.75-1.717 1.74-1.554 1.354.222 3.024.66 4.218 1.438 2.24 1.462 1.848 4.095.669 5.336"/><path fill="url(#person-gesturing-no-medium_svg__F)" d="m22.69 10.474-.038-.811c-.014-.98-.824-1.79-1.805-1.83H19.05a3.11 3.11 0 0 1-2.728-1.619s-.16-.372-.258-.96c-.165-.989.75-1.717 1.74-1.554 1.354.222 3.024.66 4.218 1.438 2.24 1.462 1.848 4.095.669 5.336"/><path fill="url(#person-gesturing-no-medium_svg__G)" d="m22.69 10.474-.038-.811c-.014-.98-.824-1.79-1.805-1.83H19.05a3.11 3.11 0 0 1-2.728-1.619s-.16-.372-.258-.96c-.165-.989.75-1.717 1.74-1.554 1.354.222 3.024.66 4.218 1.438 2.24 1.462 1.848 4.095.669 5.336"/><path fill="url(#person-gesturing-no-medium_svg__H)" d="m22.69 10.474-.038-.811c-.014-.98-.824-1.79-1.805-1.83H19.05a3.11 3.11 0 0 1-2.728-1.619s-.16-.372-.258-.96c-.165-.989.75-1.717 1.74-1.554 1.354.222 3.024.66 4.218 1.438 2.24 1.462 1.848 4.095.669 5.336"/></g><path fill="#fff" d="M19.066 11.398c.839 0 1.547.578 1.74 1.36a.352.352 0 0 1-.344.437h-2.865a.296.296 0 0 1-.292-.35 1.795 1.795 0 0 1 1.76-1.447"/><path fill="url(#person-gesturing-no-medium_svg__I)" d="M18.8 11.747a1.146 1.146 0 0 1 1.105 1.448H17.69a1.15 1.15 0 0 1 1.11-1.448"/><path fill="#000" d="M18.144 12.893c0-.365.291-.657.656-.657a.654.654 0 0 1 .584.959h-1.162a.6.6 0 0 1-.078-.302"/><g filter="url(#person-gesturing-no-medium_svg__J)"><path fill="#C7A7A3" d="M18.716 11.989c.081.11-.09.242-.283.387-.194.146-.338.248-.42.138s.01-.315.203-.46c.195-.145.418-.174.5-.065"/><path fill="url(#person-gesturing-no-medium_svg__K)" d="M18.716 11.989c.081.11-.09.242-.283.387-.194.146-.338.248-.42.138s.01-.315.203-.46c.195-.145.418-.174.5-.065"/></g><g filter="url(#person-gesturing-no-medium_svg__L)"><path fill="url(#person-gesturing-no-medium_svg__M)" d="M19.823 12.744a1.1 1.1 0 0 0-.298-.596l-.335.367.151.294z"/></g><path fill="#fff" d="M12.924 11.398c-.838 0-1.547.578-1.74 1.36a.352.352 0 0 0 .344.437h2.866a.296.296 0 0 0 .291-.35 1.8 1.8 0 0 0-1.76-1.447"/><path fill="url(#person-gesturing-no-medium_svg__N)" d="M13.19 11.747a1.146 1.146 0 0 0-1.104 1.448H14.3q.04-.147.041-.302a1.154 1.154 0 0 0-1.15-1.147"/><path fill="#000" d="M13.847 12.893a.654.654 0 0 0-.657-.657.654.654 0 0 0-.583.959h1.162a.65.65 0 0 0 .078-.302"/><g filter="url(#person-gesturing-no-medium_svg__O)"><path fill="url(#person-gesturing-no-medium_svg__P)" d="M14.237 12.758c0-.37-.3-.617-.382-.692l-.37.358.227.464z"/></g><g filter="url(#person-gesturing-no-medium_svg__Q)" transform="rotate(-27.914 12.844 12.236)"><ellipse cx="12.844" cy="12.236" fill="#C7A7A3" fill-opacity=".9" rx=".5" ry=".253"/><ellipse cx="12.844" cy="12.236" fill="url(#person-gesturing-no-medium_svg__R)" rx=".5" ry=".253"/></g><path fill="url(#person-gesturing-no-medium_svg__S)" d="M22.316 15.077q.129-2.05.237-4.099a2.067 2.067 0 0 1-.237 4.099"/><path fill="url(#person-gesturing-no-medium_svg__T)" d="M22.316 15.077q.129-2.05.237-4.099a2.067 2.067 0 0 1-.237 4.099"/><path fill="url(#person-gesturing-no-medium_svg__U)" d="M22.316 15.077q.129-2.05.237-4.099a2.067 2.067 0 0 1-.237 4.099"/><path fill="url(#person-gesturing-no-medium_svg__V)" d="M22.316 15.077q.129-2.05.237-4.099a2.067 2.067 0 0 1-.237 4.099"/><path fill="url(#person-gesturing-no-medium_svg__W)" d="M9.513 10.96a2.08 2.08 0 0 0-1.784 2.053c0 1.103.864 2.005 1.953 2.063a101 101 0 0 1-.17-4.115"/><path fill="url(#person-gesturing-no-medium_svg__X)" d="M9.513 10.96a2.08 2.08 0 0 0-1.784 2.053c0 1.103.864 2.005 1.953 2.063a101 101 0 0 1-.17-4.115"/><g filter="url(#person-gesturing-no-medium_svg__Y)"><path fill="url(#person-gesturing-no-medium_svg__Z)" d="M9.526 11.817a1.228 1.228 0 0 0 .107 2.413q-.069-1.206-.107-2.413"/></g><g filter="url(#person-gesturing-no-medium_svg__aa)"><path fill="url(#person-gesturing-no-medium_svg__ab)" d="M22.367 14.24q.076-1.221.142-2.444a1.227 1.227 0 0 1-.142 2.445"/></g><g filter="url(#person-gesturing-no-medium_svg__ac)"><path fill="#482D2C" d="M11.388 9.94a.35.35 0 0 1 .25-.426l2.086-.542a.349.349 0 1 1 .175.675l-2.086.542a.35.35 0 0 1-.425-.249"/></g><g filter="url(#person-gesturing-no-medium_svg__ad)"><path fill="#482D2C" d="M20.711 9.94a.35.35 0 0 0-.25-.426l-2.086-.542a.349.349 0 1 0-.175.675l2.086.542a.35.35 0 0 0 .425-.249"/></g><g filter="url(#person-gesturing-no-medium_svg__ae)"><path stroke="url(#person-gesturing-no-medium_svg__af)" stroke-linecap="round" stroke-width=".2" d="m11.836 9.76 2.017-.534"/></g><g filter="url(#person-gesturing-no-medium_svg__ag)"><path stroke="url(#person-gesturing-no-medium_svg__ah)" stroke-linecap="round" stroke-width=".2" d="m20.263 9.76-2.017-.534"/></g><path fill="#88014D" d="M15.989 19.458c.791 0 1.433-.688 1.433-1.537 0-.85-.642-1.538-1.433-1.538s-1.433.688-1.433 1.538c0 .849.642 1.537 1.433 1.537"/><path fill="#F53B19" d="M25.5 30.008h-19c-.83 0-1.5-.67-1.5-1.5v-4.33c0-2.3 1.87-4.17 4.17-4.17h13.66c2.3 0 4.17 1.87 4.17 4.17v4.33c0 .83-.67 1.5-1.5 1.5"/><path fill="url(#person-gesturing-no-medium_svg__ai)" d="M25.5 30.008h-19c-.83 0-1.5-.67-1.5-1.5v-4.33c0-2.3 1.87-4.17 4.17-4.17h13.66c2.3 0 4.17 1.87 4.17 4.17v4.33c0 .83-.67 1.5-1.5 1.5"/><path fill="url(#person-gesturing-no-medium_svg__aj)" d="M25.5 30.008h-19c-.83 0-1.5-.67-1.5-1.5v-4.33c0-2.3 1.87-4.17 4.17-4.17h13.66c2.3 0 4.17 1.87 4.17 4.17v4.33c0 .83-.67 1.5-1.5 1.5"/><path fill="url(#person-gesturing-no-medium_svg__ak)" d="m6.81 20.578 2.28 1.06 2.11-4.52-2.23-1.05z"/><path fill="url(#person-gesturing-no-medium_svg__al)" d="m11.56 16.106 15.407 7.178a3.53 3.53 0 0 1 1.7 4.687 3.52 3.52 0 0 1-4.679 1.704L8.581 22.487a1 1 0 0 1-.483-1.34l2.123-4.567a1.004 1.004 0 0 1 1.339-.474"/><path fill="url(#person-gesturing-no-medium_svg__am)" d="m11.56 16.106 15.407 7.178a3.53 3.53 0 0 1 1.7 4.687 3.52 3.52 0 0 1-4.679 1.704L8.581 22.487a1 1 0 0 1-.483-1.34l2.123-4.567a1.004 1.004 0 0 1 1.339-.474"/><path fill="url(#person-gesturing-no-medium_svg__an)" d="m11.56 16.106 15.407 7.178a3.53 3.53 0 0 1 1.7 4.687 3.52 3.52 0 0 1-4.679 1.704L8.581 22.487a1 1 0 0 1-.483-1.34l2.123-4.567a1.004 1.004 0 0 1 1.339-.474"/><path fill="url(#person-gesturing-no-medium_svg__ao)" d="m11.56 16.106 15.407 7.178a3.53 3.53 0 0 1 1.7 4.687 3.52 3.52 0 0 1-4.679 1.704L8.581 22.487a1 1 0 0 1-.483-1.34l2.123-4.567a1.004 1.004 0 0 1 1.339-.474"/><path fill="url(#person-gesturing-no-medium_svg__ap)" d="m11.56 16.106 15.407 7.178a3.53 3.53 0 0 1 1.7 4.687 3.52 3.52 0 0 1-4.679 1.704L8.581 22.487a1 1 0 0 1-.483-1.34l2.123-4.567a1.004 1.004 0 0 1 1.339-.474"/><path fill="url(#person-gesturing-no-medium_svg__aq)" d="m11.56 16.106 15.407 7.178a3.53 3.53 0 0 1 1.7 4.687 3.52 3.52 0 0 1-4.679 1.704L8.581 22.487a1 1 0 0 1-.483-1.34l2.123-4.567a1.004 1.004 0 0 1 1.339-.474"/><path fill="url(#person-gesturing-no-medium_svg__ar)" d="m25.19 20.578-2.28 1.06-2.11-4.52 2.26-1.07z"/><path fill="url(#person-gesturing-no-medium_svg__as)" d="M20.44 16.106 5.033 23.28a3.53 3.53 0 0 0-1.7 4.69 3.516 3.516 0 0 0 4.679 1.705l15.407-7.182c.503-.232.724-.837.483-1.342l-2.123-4.57a1.003 1.003 0 0 0-1.339-.474"/><path fill="url(#person-gesturing-no-medium_svg__at)" d="M20.44 16.106 5.033 23.28a3.53 3.53 0 0 0-1.7 4.69 3.516 3.516 0 0 0 4.679 1.705l15.407-7.182c.503-.232.724-.837.483-1.342l-2.123-4.57a1.003 1.003 0 0 0-1.339-.474"/><path fill="url(#person-gesturing-no-medium_svg__au)" d="M20.44 16.106 5.033 23.28a3.53 3.53 0 0 0-1.7 4.69 3.516 3.516 0 0 0 4.679 1.705l15.407-7.182c.503-.232.724-.837.483-1.342l-2.123-4.57a1.003 1.003 0 0 0-1.339-.474"/><path fill="url(#person-gesturing-no-medium_svg__av)" d="M24.75 19.811a.885.885 0 0 1 .35-1.203l2.609-1.428a.899.899 0 1 1 .856 1.581l-2.621 1.404a.885.885 0 0 1-1.194-.354"/><path fill="url(#person-gesturing-no-medium_svg__aw)" d="M24.75 19.811a.885.885 0 0 1 .35-1.203l2.609-1.428a.899.899 0 1 1 .856 1.581l-2.621 1.404a.885.885 0 0 1-1.194-.354"/><path fill="url(#person-gesturing-no-medium_svg__ax)" d="M24.75 19.811a.885.885 0 0 1 .35-1.203l2.609-1.428a.899.899 0 1 1 .856 1.581l-2.621 1.404a.885.885 0 0 1-1.194-.354"/><path fill="url(#person-gesturing-no-medium_svg__ay)" d="M7.152 19.747c.236-.43.228-.904-.201-1.14L4.342 17.18a.899.899 0 1 0-.856 1.581l2.622 1.404c.427.229.81.007 1.044-.418"/><path fill="url(#person-gesturing-no-medium_svg__az)" d="M7.152 19.747c.236-.43.228-.904-.201-1.14L4.342 17.18a.899.899 0 1 0-.856 1.581l2.622 1.404c.427.229.81.007 1.044-.418"/><path fill="url(#person-gesturing-no-medium_svg__aA)" d="m23 16.078 2.12 4.54.72-.38c.74-.39 1.27-1.08 1.44-1.9l.29-1.39c.08-.42.29-.8.59-1.1l1.51-1.3a.933.933 0 0 0-1.05-1.53z"/><path fill="url(#person-gesturing-no-medium_svg__aB)" d="m23 16.078 2.12 4.54.72-.38c.74-.39 1.27-1.08 1.44-1.9l.29-1.39c.08-.42.29-.8.59-1.1l1.51-1.3a.933.933 0 0 0-1.05-1.53z"/><path fill="url(#person-gesturing-no-medium_svg__aC)" d="m23 16.078 2.12 4.54.72-.38c.74-.39 1.27-1.08 1.44-1.9l.29-1.39c.08-.42.29-.8.59-1.1l1.51-1.3a.933.933 0 0 0-1.05-1.53z"/><path fill="url(#person-gesturing-no-medium_svg__aD)" d="m23 16.078 2.12 4.54.72-.38c.74-.39 1.27-1.08 1.44-1.9l.29-1.39c.08-.42.29-.8.59-1.1l1.51-1.3a.933.933 0 0 0-1.05-1.53z"/><g filter="url(#person-gesturing-no-medium_svg__aE)"><path fill="url(#person-gesturing-no-medium_svg__aF)" d="m9 16.078-2.12 4.54-.72-.38a2.79 2.79 0 0 1-1.44-1.9l-.29-1.39c-.08-.42-.29-.8-.59-1.1l-1.51-1.3a.933.933 0 0 1 1.05-1.53z"/><path fill="url(#person-gesturing-no-medium_svg__aG)" d="m9 16.078-2.12 4.54-.72-.38a2.79 2.79 0 0 1-1.44-1.9l-.29-1.39c-.08-.42-.29-.8-.59-1.1l-1.51-1.3a.933.933 0 0 1 1.05-1.53z"/></g><path fill="url(#person-gesturing-no-medium_svg__aH)" d="m9 16.078-2.12 4.54-.72-.38a2.79 2.79 0 0 1-1.44-1.9l-.29-1.39c-.08-.42-.29-.8-.59-1.1l-1.51-1.3a.933.933 0 0 1 1.05-1.53z"/><g filter="url(#person-gesturing-no-medium_svg__aI)"><path fill="url(#person-gesturing-no-medium_svg__aJ)" d="M26.653 15.73c.527-.847 1.795-1.665 2.462-1.988a.13.13 0 0 1 .152.034.132.132 0 0 1-.033.196c-2.06 1.273-1.875 1.785-2.645 3.097-.355.604-1.177 1.112-1.556 1.284l-.474-.899c.53-.28 1.462-.711 2.094-1.725"/></g><defs><radialGradient id="person-gesturing-no-medium_svg__a" cx="0" cy="0" r="1" gradientTransform="matrix(.96166 2.5937 -3.08112 1.14238 22.1 14.564)" gradientUnits="userSpaceOnUse"><stop offset=".215" stop-color="#493B3B"/><stop offset="1" stop-color="#311F2C"/></radialGradient><radialGradient id="person-gesturing-no-medium_svg__b" cx="0" cy="0" r="1" gradientTransform="matrix(1.89623 .59596 -1.83857 5.85 8.217 15.194)" gradientUnits="userSpaceOnUse"><stop stop-color="#4C3C39"/><stop offset=".746" stop-color="#2E1C2E"/></radialGradient><radialGradient id="person-gesturing-no-medium_svg__d" cx="0" cy="0" r="1" gradientTransform="matrix(-6.04271 0 0 -10.6895 19.601 13.355)" gradientUnits="userSpaceOnUse"><stop stop-color="#C19172"/><stop offset="1" stop-color="#926763"/></radialGradient><radialGradient id="person-gesturing-no-medium_svg__e" cx="0" cy="0" r="1" gradientTransform="matrix(-2.23876 3.7026 -3.0568 -1.84827 19.112 6.96)" gradientUnits="userSpaceOnUse"><stop offset=".078" stop-color="#AF887B"/><stop offset="1" stop-color="#AF887B" stop-opacity="0"/></radialGradient><radialGradient id="person-gesturing-no-medium_svg__g" cx="0" cy="0" r="1" gradientTransform="rotate(94.704 6.36 11.182)scale(16.0095 13.2578)" gradientUnits="userSpaceOnUse"><stop offset=".767" stop-color="#985682" stop-opacity="0"/><stop offset="1" stop-color="#985682"/></radialGradient><radialGradient id="person-gesturing-no-medium_svg__h" cx="0" cy="0" r="1" gradientTransform="matrix(0 -1.47484 1.82511 0 19.138 11.669)" gradientUnits="userSpaceOnUse"><stop offset=".325" stop-color="#AB7872"/><stop offset="1" stop-color="#AB7872" stop-opacity="0"/></radialGradient><radialGradient id="person-gesturing-no-medium_svg__i" cx="0" cy="0" r="1" gradientTransform="matrix(.00505 -1.4054 1.5294 .0055 13.041 11.729)" gradientUnits="userSpaceOnUse"><stop offset=".378" stop-color="#8F5D66"/><stop offset="1" stop-color="#8F5D66" stop-opacity="0"/></radialGradient><radialGradient id="person-gesturing-no-medium_svg__j" cx="0" cy="0" r="1" gradientTransform="rotate(176.388 9.971 7.634)scale(10.9332 27.9288)" gradientUnits="userSpaceOnUse"><stop offset=".836" stop-color="#987064" stop-opacity="0"/><stop offset="1" stop-color="#987064"/></radialGradient><radialGradient id="person-gesturing-no-medium_svg__k" cx="0" cy="0" r="1" gradientTransform="rotate(-40.741 16.893 -4.87)scale(5.73919 1.69526)" gradientUnits="userSpaceOnUse"><stop offset=".539" stop-color="#63413D"/><stop offset="1" stop-color="#63413D" stop-opacity="0"/></radialGradient><radialGradient id="person-gesturing-no-medium_svg__l" cx="0" cy="0" r="1" gradientTransform="rotate(95.368 7.184 15.327)scale(3.2216 1.28781)" gradientUnits="userSpaceOnUse"><stop offset=".245" stop-color="#BF9980"/><stop offset="1" stop-color="#BF9980" stop-opacity="0"/></radialGradient><radialGradient id="person-gesturing-no-medium_svg__m" cx="0" cy="0" r="1" gradientTransform="matrix(0 1.11939 -2.1489 0 13.15 12.719)" gradientUnits="userSpaceOnUse"><stop stop-color="#9E7765"/><stop offset="1" stop-color="#9E7765" stop-opacity="0"/></radialGradient><radialGradient id="person-gesturing-no-medium_svg__n" cx="0" cy="0" r="1" gradientTransform="rotate(-62.819 20.907 -2.156)scale(5.06494 5.40943)" gradientUnits="userSpaceOnUse"><stop stop-color="#9D5E44"/><stop offset="1" stop-color="#9D5E44" stop-opacity="0"/></radialGradient><radialGradient id="person-gesturing-no-medium_svg__r" cx="0" cy="0" r="1" gradientTransform="matrix(0 .3135 -.9853 0 16.594 15.124)" gradientUnits="userSpaceOnUse"><stop stop-color="#C59A8A"/><stop offset="1" stop-color="#C59A8A" stop-opacity="0"/></radialGradient><radialGradient id="person-gesturing-no-medium_svg__t" cx="0" cy="0" r="1" gradientTransform="matrix(-2.17313 .96336 -1.5482 -3.49239 16.743 14.392)" gradientUnits="userSpaceOnUse"><stop offset=".702" stop-color="#8A5F5C" stop-opacity="0"/><stop offset="1" stop-color="#744A4A"/><stop offset="1" stop-color="#8A5F5C"/></radialGradient><radialGradient id="person-gesturing-no-medium_svg__x" cx="0" cy="0" r="1" gradientTransform="matrix(0 -4.49678 11.3718 0 9.279 9.64)" gradientUnits="userSpaceOnUse"><stop offset=".536" stop-color="#53403E"/><stop offset="1" stop-color="#53403E" stop-opacity="0"/></radialGradient><radialGradient id="person-gesturing-no-medium_svg__y" cx="0" cy="0" r="1" gradientTransform="matrix(.14646 -3.22688 5.7174 .2595 22.238 11.323)" gradientUnits="userSpaceOnUse"><stop stop-color="#473033"/><stop offset="1" stop-color="#473033" stop-opacity="0"/></radialGradient><radialGradient id="person-gesturing-no-medium_svg__z" cx="0" cy="0" r="1" gradientTransform="matrix(-3.53199 -2.0541 1.50781 -2.59266 20.015 3.081)" gradientUnits="userSpaceOnUse"><stop stop-color="#563937"/><stop offset="1" stop-color="#563937" stop-opacity="0"/></radialGradient><radialGradient id="person-gesturing-no-medium_svg__A" cx="0" cy="0" r="1" gradientTransform="rotate(58.465 6.329 13.86)scale(2.22257 5.14643)" gradientUnits="userSpaceOnUse"><stop offset=".287" stop-color="#654F4C"/><stop offset="1" stop-color="#654F4C" stop-opacity="0"/></radialGradient><radialGradient id="person-gesturing-no-medium_svg__C" cx="0" cy="0" r="1" gradientTransform="matrix(-2.82692 0 0 -1.04918 16.32 4.119)" gradientUnits="userSpaceOnUse"><stop stop-color="#654647"/><stop offset="1" stop-color="#654647" stop-opacity="0"/></radialGradient><radialGradient id="person-gesturing-no-medium_svg__D" cx="0" cy="0" r="1" gradientTransform="rotate(-57.724 12.84 -3.592)scale(7.74003 8.57516)" gradientUnits="userSpaceOnUse"><stop offset=".093" stop-color="#37192C"/><stop offset=".311" stop-color="#472438"/><stop offset="1" stop-color="#472438" stop-opacity="0"/></radialGradient><radialGradient id="person-gesturing-no-medium_svg__F" cx="0" cy="0" r="1" gradientTransform="matrix(3.92791 0 0 1.53575 20.38 5.252)" gradientUnits="userSpaceOnUse"><stop stop-color="#6B4E4E"/><stop offset="1" stop-color="#6B4E4E" stop-opacity="0"/></radialGradient><radialGradient id="person-gesturing-no-medium_svg__G" cx="0" cy="0" r="1" gradientTransform="rotate(-41.829 21.664 -20.777)scale(5.09983 9.33649)" gradientUnits="userSpaceOnUse"><stop offset=".857" stop-color="#685351" stop-opacity="0"/><stop offset="1" stop-color="#685351"/></radialGradient><radialGradient id="person-gesturing-no-medium_svg__H" cx="0" cy="0" r="1" gradientTransform="matrix(4.14224 .93003 -.38939 1.73427 18.27 6.814)" gradientUnits="userSpaceOnUse"><stop stop-color="#4F2B3C"/><stop offset="1" stop-color="#4F2B3C" stop-opacity="0"/></radialGradient><radialGradient id="person-gesturing-no-medium_svg__I" cx="0" cy="0" r="1" gradientTransform="matrix(0 1.04198 -1.65739 0 18.798 12.36)" gradientUnits="userSpaceOnUse"><stop offset=".802" stop-color="#7D574A"/><stop offset="1" stop-color="#694B43"/><stop offset="1" stop-color="#804D49"/><stop offset="1" stop-color="#664842"/></radialGradient><radialGradient id="person-gesturing-no-medium_svg__K" cx="0" cy="0" r="1" gradientTransform="matrix(-.29785 -.38382 .52843 -.41007 18.504 12.467)" gradientUnits="userSpaceOnUse"><stop offset=".766" stop-color="#FFE6E2" stop-opacity="0"/><stop offset=".966" stop-color="#FFE6E2"/></radialGradient><radialGradient id="person-gesturing-no-medium_svg__N" cx="0" cy="0" r="1" gradientTransform="matrix(0 1.04204 -1.65748 0 13.193 12.36)" gradientUnits="userSpaceOnUse"><stop offset=".802" stop-color="#7D574A"/><stop offset="1" stop-color="#694B43"/><stop offset="1" stop-color="#804D49"/><stop offset="1" stop-color="#664842"/></radialGradient><radialGradient id="person-gesturing-no-medium_svg__R" cx="0" cy="0" r="1" gradientTransform="rotate(-90.897 12.635 .008)scale(.63463 .76286)" gradientUnits="userSpaceOnUse"><stop offset=".766" stop-color="#FFE6E2" stop-opacity="0"/><stop offset=".966" stop-color="#FFE6E2"/></radialGradient><radialGradient id="person-gesturing-no-medium_svg__T" cx="0" cy="0" r="1" gradientTransform="rotate(74.348 2.921 20.555)scale(2.99201 2.85461)" gradientUnits="userSpaceOnUse"><stop offset=".856" stop-color="#9A676A" stop-opacity="0"/><stop offset="1" stop-color="#9A676A"/></radialGradient><radialGradient id="person-gesturing-no-medium_svg__U" cx="0" cy="0" r="1" gradientTransform="rotate(-53.92 23.87 -15.56)scale(1.71799 1.44002)" gradientUnits="userSpaceOnUse"><stop offset=".664" stop-color="#9E6A5C"/><stop offset="1" stop-color="#9E6A5C" stop-opacity="0"/></radialGradient><radialGradient id="person-gesturing-no-medium_svg__V" cx="0" cy="0" r="1" gradientTransform="rotate(-69.263 20.763 -9.755)scale(2.12915 2.84485)" gradientUnits="userSpaceOnUse"><stop offset=".803" stop-color="#A47F62" stop-opacity="0"/><stop offset="1" stop-color="#A47F62"/></radialGradient><radialGradient id="person-gesturing-no-medium_svg__X" cx="0" cy="0" r="1" gradientTransform="matrix(-2.12971 0 0 -2.37799 9.682 13.019)" gradientUnits="userSpaceOnUse"><stop offset=".778" stop-color="#9D7667" stop-opacity="0"/><stop offset="1" stop-color="#9D7667"/></radialGradient><radialGradient id="person-gesturing-no-medium_svg__Z" cx="0" cy="0" r="1" gradientTransform="matrix(-1.17705 .20204 -.20716 -1.20684 9.745 13.023)" gradientUnits="userSpaceOnUse"><stop stop-color="#714B4D"/><stop offset="1" stop-color="#784E52"/></radialGradient><radialGradient id="person-gesturing-no-medium_svg__ai" cx="0" cy="0" r="1" gradientTransform="matrix(-6.9375 -6.625 2.9819 -3.12257 26.438 22.445)" gradientUnits="userSpaceOnUse"><stop stop-color="#FF9540"/><stop offset="1" stop-color="#FF9540" stop-opacity="0"/></radialGradient><radialGradient id="person-gesturing-no-medium_svg__aj" cx="0" cy="0" r="1" gradientTransform="matrix(2.1875 2.21875 -3.00505 2.96273 6.063 21.227)" gradientUnits="userSpaceOnUse"><stop stop-color="#E2632D"/><stop offset="1" stop-color="#E2632D" stop-opacity="0"/></radialGradient><radialGradient id="person-gesturing-no-medium_svg__ak" cx="0" cy="0" r="1" gradientTransform="matrix(2.59375 1.25 -2.6929 5.58776 8.406 17.32)" gradientUnits="userSpaceOnUse"><stop offset=".161" stop-color="#E76B2F"/><stop offset="1" stop-color="#B9321E"/></radialGradient><radialGradient id="person-gesturing-no-medium_svg__al" cx="0" cy="0" r="1" gradientTransform="matrix(17.51082 8.75543 -2.15289 4.30577 13.551 19.209)" gradientUnits="userSpaceOnUse"><stop offset=".568" stop-color="#FF7132"/><stop offset="1" stop-color="#FF4C31"/></radialGradient><radialGradient id="person-gesturing-no-medium_svg__am" cx="0" cy="0" r="1" gradientTransform="rotate(159.944 11.543 15.187)scale(2.90693 2.17455)" gradientUnits="userSpaceOnUse"><stop stop-color="#FF7D48"/><stop offset="1" stop-color="#FF7D48" stop-opacity="0"/></radialGradient><radialGradient id="person-gesturing-no-medium_svg__an" cx="0" cy="0" r="1" gradientTransform="matrix(-1.11963 5.31578 -8.32746 -1.75396 14.245 17.692)" gradientUnits="userSpaceOnUse"><stop offset=".215" stop-color="#FF9A32"/><stop offset="1" stop-color="#FF8C11" stop-opacity="0"/></radialGradient><radialGradient id="person-gesturing-no-medium_svg__ap" cx="0" cy="0" r="1" gradientTransform="rotate(-32.171 41.455 -3.07)scale(2.28894)" gradientUnits="userSpaceOnUse"><stop stop-color="#E4764E"/><stop offset="1" stop-color="#E4764E" stop-opacity="0"/></radialGradient><radialGradient id="person-gesturing-no-medium_svg__ar" cx="0" cy="0" r="1" gradientTransform="matrix(-1.5 .6475 -1.4343 -3.32276 24.094 18.195)" gradientUnits="userSpaceOnUse"><stop stop-color="#FF6732"/><stop offset="1" stop-color="#F54617"/></radialGradient><radialGradient id="person-gesturing-no-medium_svg__as" cx="0" cy="0" r="1" gradientTransform="matrix(-22.93743 10.81261 -2.61777 -5.55323 22.313 18.883)" gradientUnits="userSpaceOnUse"><stop offset=".302" stop-color="#FF8D29"/><stop offset="1" stop-color="#FF4923"/></radialGradient><radialGradient id="person-gesturing-no-medium_svg__av" cx="0" cy="0" r="1" gradientTransform="matrix(-2.11719 1.02344 -.40322 -.83413 29.122 17.469)" gradientUnits="userSpaceOnUse"><stop stop-color="#CCA58E"/><stop offset=".615" stop-color="#B89377"/></radialGradient><radialGradient id="person-gesturing-no-medium_svg__ay" cx="0" cy="0" r="1" gradientTransform="matrix(1.74664 .85478 -1.17534 2.40165 3.176 17.648)" gradientUnits="userSpaceOnUse"><stop stop-color="#9B7667"/><stop offset=".697" stop-color="#874F5D"/></radialGradient><radialGradient id="person-gesturing-no-medium_svg__az" cx="0" cy="0" r="1" gradientTransform="rotate(162.607 1.083 8.97)scale(.89785 1.70016)" gradientUnits="userSpaceOnUse"><stop stop-color="#6B4237"/><stop offset="1" stop-color="#6B4237" stop-opacity="0"/></radialGradient><radialGradient id="person-gesturing-no-medium_svg__aA" cx="0" cy="0" r="1" gradientTransform="rotate(-163.652 15.294 6.356)scale(4.66351 7.27193)" gradientUnits="userSpaceOnUse"><stop offset=".32" stop-color="#A37F67"/><stop offset="1" stop-color="#A17A65"/></radialGradient><radialGradient id="person-gesturing-no-medium_svg__aB" cx="0" cy="0" r="1" gradientTransform="rotate(150.068 13.313 10.644)scale(1.18996 .40984)" gradientUnits="userSpaceOnUse"><stop stop-color="#CCA68C"/><stop offset="1" stop-color="#CCA68C" stop-opacity="0"/></radialGradient><radialGradient id="person-gesturing-no-medium_svg__aD" cx="0" cy="0" r="1" gradientTransform="rotate(-25.641 56.32 -43.992)scale(2.59977 2.78402)" gradientUnits="userSpaceOnUse"><stop stop-color="#A9656C"/><stop offset="1" stop-color="#A9656C" stop-opacity="0"/></radialGradient><radialGradient id="person-gesturing-no-medium_svg__aG" cx="0" cy="0" r="1" gradientTransform="matrix(-2.06198 -1.07487 .61616 -1.18202 8.585 18.288)" gradientUnits="userSpaceOnUse"><stop stop-color="#C49A85"/><stop offset="1" stop-color="#C49A85" stop-opacity="0"/></radialGradient><radialGradient id="person-gesturing-no-medium_svg__aH" cx="0" cy="0" r="1" gradientTransform="matrix(1.00475 -.26214 .85754 3.28688 4.382 18.192)" gradientUnits="userSpaceOnUse"><stop offset=".296" stop-color="#996F67"/><stop offset="1" stop-color="#996F67" stop-opacity="0"/></radialGradient><linearGradient id="person-gesturing-no-medium_svg__f" x1="22.619" x2="19.371" y1="15.52" y2="15.52" gradientUnits="userSpaceOnUse"><stop stop-color="#C2987E"/><stop offset="1" stop-color="#C2987E" stop-opacity="0"/></linearGradient><linearGradient id="person-gesturing-no-medium_svg__q" x1="17.072" x2="15.995" y1="14.243" y2="14.288" gradientUnits="userSpaceOnUse"><stop offset=".36" stop-color="#CEA58C"/><stop offset="1" stop-color="#CEA58C" stop-opacity="0"/></linearGradient><linearGradient id="person-gesturing-no-medium_svg__s" x1="15.995" x2="15.995" y1="15.706" y2="15.109" gradientUnits="userSpaceOnUse"><stop stop-color="#9C6376"/><stop offset="1" stop-color="#9C6376" stop-opacity="0"/></linearGradient><linearGradient id="person-gesturing-no-medium_svg__u" x1="15.995" x2="15.995" y1="12.232" y2="12.934" gradientUnits="userSpaceOnUse"><stop stop-color="#A4786E"/><stop offset="1" stop-color="#A4786E" stop-opacity="0"/></linearGradient><linearGradient id="person-gesturing-no-medium_svg__w" x1="24.795" x2="9.881" y1="6.082" y2="6.082" gradientUnits="userSpaceOnUse"><stop stop-color="#6F514D"/><stop offset="1" stop-color="#523D3B"/></linearGradient><linearGradient id="person-gesturing-no-medium_svg__M" x1="19.798" x2="19.394" y1="12.429" y2="12.678" gradientUnits="userSpaceOnUse"><stop stop-color="#B4948D"/><stop offset="1" stop-color="#B4948D" stop-opacity="0"/></linearGradient><linearGradient id="person-gesturing-no-medium_svg__P" x1="14.148" x2="13.745" y1="12.428" y2="12.677" gradientUnits="userSpaceOnUse"><stop stop-color="#B4948D"/><stop offset="1" stop-color="#B4948D" stop-opacity="0"/></linearGradient><linearGradient id="person-gesturing-no-medium_svg__S" x1="24.261" x2="22.711" y1="12.282" y2="15.077" gradientUnits="userSpaceOnUse"><stop stop-color="#C9A188"/><stop offset="1" stop-color="#B08175"/></linearGradient><linearGradient id="person-gesturing-no-medium_svg__W" x1="8.482" x2="10.355" y1="13.185" y2="13.022" gradientUnits="userSpaceOnUse"><stop stop-color="#855D5A"/><stop offset="1" stop-color="#7D4D5B"/></linearGradient><linearGradient id="person-gesturing-no-medium_svg__ab" x1="22.975" x2="22.975" y1="11.796" y2="14.241" gradientUnits="userSpaceOnUse"><stop stop-color="#AC7F6F"/><stop offset="1" stop-color="#AD806F"/></linearGradient><linearGradient id="person-gesturing-no-medium_svg__af" x1="13.921" x2="11.175" y1="9.208" y2="9.928" gradientUnits="userSpaceOnUse"><stop offset=".333" stop-color="#5A4344"/><stop offset="1" stop-color="#5A4344" stop-opacity="0"/></linearGradient><linearGradient id="person-gesturing-no-medium_svg__ah" x1="18.178" x2="20.924" y1="9.208" y2="9.928" gradientUnits="userSpaceOnUse"><stop offset=".333" stop-color="#5A4344"/><stop offset="1" stop-color="#5A4344" stop-opacity="0"/></linearGradient><linearGradient id="person-gesturing-no-medium_svg__ao" x1="9.156" x2="10.344" y1="18.508" y2="18.883" gradientUnits="userSpaceOnUse"><stop stop-color="#FF730A"/><stop offset="1" stop-color="#FF730A" stop-opacity="0"/></linearGradient><linearGradient id="person-gesturing-no-medium_svg__aq" x1="17.406" x2="17.906" y1="26.977" y2="25.758" gradientUnits="userSpaceOnUse"><stop stop-color="#EB4E66"/><stop offset="1" stop-color="#EB4E66" stop-opacity="0"/></linearGradient><linearGradient id="person-gesturing-no-medium_svg__at" x1="14.83" x2="14.461" y1="26.816" y2="25.927" gradientUnits="userSpaceOnUse"><stop stop-color="#F35E74"/><stop offset="1" stop-color="#F35E74" stop-opacity="0"/></linearGradient><linearGradient id="person-gesturing-no-medium_svg__au" x1="22.827" x2="21.613" y1="18.819" y2="19.382" gradientUnits="userSpaceOnUse"><stop stop-color="#FFA842"/><stop offset="1" stop-color="#FFA842" stop-opacity="0"/></linearGradient><linearGradient id="person-gesturing-no-medium_svg__aw" x1="27.52" x2="26.84" y1="19.664" y2="18.102" gradientUnits="userSpaceOnUse"><stop stop-color="#A86E75"/><stop offset="1" stop-color="#A86E75" stop-opacity="0"/></linearGradient><linearGradient id="person-gesturing-no-medium_svg__ax" x1="26.75" x2="27.494" y1="17.398" y2="18.158" gradientUnits="userSpaceOnUse"><stop offset=".353" stop-color="#8C644C"/><stop offset="1" stop-color="#8C644C" stop-opacity="0"/></linearGradient><linearGradient id="person-gesturing-no-medium_svg__aC" x1="25.489" x2="25.997" y1="14.289" y2="15.189" gradientUnits="userSpaceOnUse"><stop stop-color="#8E6D54"/><stop offset="1" stop-color="#8E6D54" stop-opacity="0"/></linearGradient><linearGradient id="person-gesturing-no-medium_svg__aF" x1="8" x2="5.5" y1="15.758" y2="19.524" gradientUnits="userSpaceOnUse"><stop offset=".206" stop-color="#BB9373"/><stop offset="1" stop-color="#8F575B"/></linearGradient><linearGradient id="person-gesturing-no-medium_svg__aJ" x1="29.179" x2="24.036" y1="14.953" y2="17.82" gradientUnits="userSpaceOnUse"><stop stop-color="#C29A88"/><stop offset="1" stop-color="#C29A88" stop-opacity="0"/></linearGradient><filter id="person-gesturing-no-medium_svg__c" width="14.126" height="16.05" x="9.492" y="5.43" color-interpolation-filters="sRGB" filterUnits="userSpaceOnUse"><feFlood flood-opacity="0" result="BackgroundImageFix"/><feBlend in="SourceGraphic" in2="BackgroundImageFix" result="shape"/><feColorMatrix in="SourceAlpha" result="hardAlpha" values="0 0 0 0 0 0 0 0 0 0 0 0 0 0 0 0 0 0 127 0"/><feOffset dx="1"/><feGaussianBlur stdDeviation=".7"/><feComposite in2="hardAlpha" k2="-1" k3="1" operator="arithmetic"/><feColorMatrix values="0 0 0 0 0.584314 0 0 0 0 0.427451 0 0 0 0 0.376471 0 0 0 1 0"/><feBlend in2="shape" result="effect1_innerShadow_3987_24800"/><feColorMatrix in="SourceAlpha" result="hardAlpha" values="0 0 0 0 0 0 0 0 0 0 0 0 0 0 0 0 0 0 127 0"/><feOffset dy=".2"/><feGaussianBlur stdDeviation=".375"/><feComposite in2="hardAlpha" k2="-1" k3="1" operator="arithmetic"/><feColorMatrix values="0 0 0 0 0.419608 0 0 0 0 0.25098 0 0 0 0 0.262745 0 0 0 1 0"/><feBlend in2="effect1_innerShadow_3987_24800" result="effect2_innerShadow_3987_24800"/></filter><filter id="person-gesturing-no-medium_svg__o" width="4.411" height="5.725" x="13.524" y="11.296" color-interpolation-filters="sRGB" filterUnits="userSpaceOnUse"><feFlood flood-opacity="0" result="BackgroundImageFix"/><feBlend in="SourceGraphic" in2="BackgroundImageFix" result="shape"/><feGaussianBlur result="effect1_foregroundBlur_3987_24800" stdDeviation=".5"/></filter><filter id="person-gesturing-no-medium_svg__p" width="2.811" height="4.125" x="14.59" y="11.866" color-interpolation-filters="sRGB" filterUnits="userSpaceOnUse"><feFlood flood-opacity="0" result="BackgroundImageFix"/><feBlend in="SourceGraphic" in2="BackgroundImageFix" result="shape"/><feGaussianBlur result="effect1_foregroundBlur_3987_24800" stdDeviation=".1"/></filter><filter id="person-gesturing-no-medium_svg__v" width="16.532" height="10.59" x="7.729" y="1.492" color-interpolation-filters="sRGB" filterUnits="userSpaceOnUse"><feFlood flood-opacity="0" result="BackgroundImageFix"/><feBlend in="SourceGraphic" in2="BackgroundImageFix" result="shape"/><feColorMatrix in="SourceAlpha" result="hardAlpha" values="0 0 0 0 0 0 0 0 0 0 0 0 0 0 0 0 0 0 127 0"/><feOffset dy="-.5"/><feGaussianBlur stdDeviation=".625"/><feComposite in2="hardAlpha" k2="-1" k3="1" operator="arithmetic"/><feColorMatrix values="0 0 0 0 0.266667 0 0 0 0 0.152941 0 0 0 0 0.184314 0 0 0 1 0"/><feBlend in2="shape" result="effect1_innerShadow_3987_24800"/><feColorMatrix in="SourceAlpha" result="hardAlpha" values="0 0 0 0 0 0 0 0 0 0 0 0 0 0 0 0 0 0 127 0"/><feOffset dy="-.2"/><feGaussianBlur stdDeviation=".2"/><feComposite in2="hardAlpha" k2="-1" k3="1" operator="arithmetic"/><feColorMatrix values="0 0 0 0 0.258824 0 0 0 0 0.133333 0 0 0 0 0.172549 0 0 0 1 0"/><feBlend in2="effect1_innerShadow_3987_24800" result="effect2_innerShadow_3987_24800"/></filter><filter id="person-gesturing-no-medium_svg__B" width="8.814" height="8.053" x="8.006" y="2.57" color-interpolation-filters="sRGB" filterUnits="userSpaceOnUse"><feFlood flood-opacity="0" result="BackgroundImageFix"/><feBlend in="SourceGraphic" in2="BackgroundImageFix" result="shape"/><feColorMatrix in="SourceAlpha" result="hardAlpha" values="0 0 0 0 0 0 0 0 0 0 0 0 0 0 0 0 0 0 127 0"/><feOffset dx=".4" dy=".2"/><feGaussianBlur stdDeviation=".2"/><feComposite in2="hardAlpha" k2="-1" k3="1" operator="arithmetic"/><feColorMatrix values="0 0 0 0 0.364706 0 0 0 0 0.286275 0 0 0 0 0.270588 0 0 0 1 0"/><feBlend in2="shape" result="effect1_innerShadow_3987_24800"/><feGaussianBlur result="effect2_foregroundBlur_3987_24800" stdDeviation=".25"/></filter><filter id="person-gesturing-no-medium_svg__E" width="9.096" height="7.796" x="15.543" y="3.177" color-interpolation-filters="sRGB" filterUnits="userSpaceOnUse"><feFlood flood-opacity="0" result="BackgroundImageFix"/><feBlend in="SourceGraphic" in2="BackgroundImageFix" result="shape"/><feColorMatrix in="SourceAlpha" result="hardAlpha" values="0 0 0 0 0 0 0 0 0 0 0 0 0 0 0 0 0 0 127 0"/><feOffset dx="1" dy="-.5"/><feGaussianBlur stdDeviation=".5"/><feComposite in2="hardAlpha" k2="-1" k3="1" operator="arithmetic"/><feColorMatrix values="0 0 0 0 0.247059 0 0 0 0 0.152941 0 0 0 0 0.156863 0 0 0 1 0"/><feBlend in2="shape" result="effect1_innerShadow_3987_24800"/><feGaussianBlur result="effect2_foregroundBlur_3987_24800" stdDeviation=".25"/></filter><filter id="person-gesturing-no-medium_svg__J" width=".954" height=".837" x="17.883" y="11.823" color-interpolation-filters="sRGB" filterUnits="userSpaceOnUse"><feFlood flood-opacity="0" result="BackgroundImageFix"/><feBlend in="SourceGraphic" in2="BackgroundImageFix" result="shape"/><feGaussianBlur result="effect1_foregroundBlur_3987_24800" stdDeviation=".05"/></filter><filter id="person-gesturing-no-medium_svg__L" width="1.033" height="1.061" x="18.99" y="11.948" color-interpolation-filters="sRGB" filterUnits="userSpaceOnUse"><feFlood flood-opacity="0" result="BackgroundImageFix"/><feBlend in="SourceGraphic" in2="BackgroundImageFix" result="shape"/><feGaussianBlur result="effect1_foregroundBlur_3987_24800" stdDeviation=".1"/></filter><filter id="person-gesturing-no-medium_svg__O" width="1.153" height="1.222" x="13.284" y="11.866" color-interpolation-filters="sRGB" filterUnits="userSpaceOnUse"><feFlood flood-opacity="0" result="BackgroundImageFix"/><feBlend in="SourceGraphic" in2="BackgroundImageFix" result="shape"/><feGaussianBlur result="effect1_foregroundBlur_3987_24800" stdDeviation=".1"/></filter><filter id="person-gesturing-no-medium_svg__Q" width="1.116" height=".848" x="12.286" y="11.812" color-interpolation-filters="sRGB" filterUnits="userSpaceOnUse"><feFlood flood-opacity="0" result="BackgroundImageFix"/><feBlend in="SourceGraphic" in2="BackgroundImageFix" result="shape"/><feGaussianBlur result="effect1_foregroundBlur_3987_24800" stdDeviation=".05"/></filter><filter id="person-gesturing-no-medium_svg__Y" width="1.565" height="2.914" x="8.318" y="11.567" color-interpolation-filters="sRGB" filterUnits="userSpaceOnUse"><feFlood flood-opacity="0" result="BackgroundImageFix"/><feBlend in="SourceGraphic" in2="BackgroundImageFix" result="shape"/><feGaussianBlur result="effect1_foregroundBlur_3987_24800" stdDeviation=".125"/></filter><filter id="person-gesturing-no-medium_svg__aa" width="2.216" height="3.444" x="21.867" y="11.296" color-interpolation-filters="sRGB" filterUnits="userSpaceOnUse"><feFlood flood-opacity="0" result="BackgroundImageFix"/><feBlend in="SourceGraphic" in2="BackgroundImageFix" result="shape"/><feGaussianBlur result="effect1_foregroundBlur_3987_24800" stdDeviation=".25"/></filter><filter id="person-gesturing-no-medium_svg__ac" width="2.884" height="1.34" x="11.376" y="8.86" color-interpolation-filters="sRGB" filterUnits="userSpaceOnUse"><feFlood flood-opacity="0" result="BackgroundImageFix"/><feBlend in="SourceGraphic" in2="BackgroundImageFix" result="shape"/><feColorMatrix in="SourceAlpha" result="hardAlpha" values="0 0 0 0 0 0 0 0 0 0 0 0 0 0 0 0 0 0 127 0"/><feOffset dx=".1" dy="-.1"/><feGaussianBlur stdDeviation=".1"/><feComposite in2="hardAlpha" k2="-1" k3="1" operator="arithmetic"/><feColorMatrix values="0 0 0 0 0.223529 0 0 0 0 0.133333 0 0 0 0 0.141176 0 0 0 1 0"/><feBlend in2="shape" result="effect1_innerShadow_3987_24800"/></filter><filter id="person-gesturing-no-medium_svg__ad" width="2.884" height="1.34" x="17.939" y="8.86" color-interpolation-filters="sRGB" filterUnits="userSpaceOnUse"><feFlood flood-opacity="0" result="BackgroundImageFix"/><feBlend in="SourceGraphic" in2="BackgroundImageFix" result="shape"/><feColorMatrix in="SourceAlpha" result="hardAlpha" values="0 0 0 0 0 0 0 0 0 0 0 0 0 0 0 0 0 0 127 0"/><feOffset dx=".1" dy="-.1"/><feGaussianBlur stdDeviation=".1"/><feComposite in2="hardAlpha" k2="-1" k3="1" operator="arithmetic"/><feColorMatrix values="0 0 0 0 0.223529 0 0 0 0 0.133333 0 0 0 0 0.141176 0 0 0 1 0"/><feBlend in2="shape" result="effect1_innerShadow_3987_24800"/></filter><filter id="person-gesturing-no-medium_svg__ae" width="2.717" height="1.234" x="11.486" y="8.876" color-interpolation-filters="sRGB" filterUnits="userSpaceOnUse"><feFlood flood-opacity="0" result="BackgroundImageFix"/><feBlend in="SourceGraphic" in2="BackgroundImageFix" result="shape"/><feGaussianBlur result="effect1_foregroundBlur_3987_24800" stdDeviation=".125"/></filter><filter id="person-gesturing-no-medium_svg__ag" width="2.717" height="1.234" x="17.896" y="8.876" color-interpolation-filters="sRGB" filterUnits="userSpaceOnUse"><feFlood flood-opacity="0" result="BackgroundImageFix"/><feBlend in="SourceGraphic" in2="BackgroundImageFix" result="shape"/><feGaussianBlur result="effect1_foregroundBlur_3987_24800" stdDeviation=".125"/></filter><filter id="person-gesturing-no-medium_svg__aE" width="7.3" height="8.016" x="2" y="12.602" color-interpolation-filters="sRGB" filterUnits="userSpaceOnUse"><feFlood flood-opacity="0" result="BackgroundImageFix"/><feBlend in="SourceGraphic" in2="BackgroundImageFix" result="shape"/><feColorMatrix in="SourceAlpha" result="hardAlpha" values="0 0 0 0 0 0 0 0 0 0 0 0 0 0 0 0 0 0 127 0"/><feOffset dx=".3" dy="-.3"/><feGaussianBlur stdDeviation=".4"/><feComposite in2="hardAlpha" k2="-1" k3="1" operator="arithmetic"/><feColorMatrix values="0 0 0 0 0.552941 0 0 0 0 0.356863 0 0 0 0 0.380392 0 0 0 1 0"/><feBlend in2="shape" result="effect1_innerShadow_3987_24800"/></filter><filter id="person-gesturing-no-medium_svg__aI" width="5.538" height="5.423" x="24.159" y="13.329" color-interpolation-filters="sRGB" filterUnits="userSpaceOnUse"><feFlood flood-opacity="0" result="BackgroundImageFix"/><feBlend in="SourceGraphic" in2="BackgroundImageFix" result="shape"/><feGaussianBlur result="effect1_foregroundBlur_3987_24800" stdDeviation=".2"/></filter></defs></svg>