<svg xmlns="http://www.w3.org/2000/svg" fill="none" viewBox="0 0 32 32"><g filter="url(#person-wearing-turban-medium-dark_svg__a)"><path fill="url(#person-wearing-turban-medium-dark_svg__b)" d="m6.551 14.786.005.004-.001-.165c-.007-.59-.02-1.728.478-2.47.802-1.197 1.713-1.286 2.604-1.286h12.977c2.128 0 2.88 1.335 3.047 2.279-.158 3.377-.369 6.743-.58 10.12l-.025.385a7.324 7.324 0 0 1-7.27 6.365h-3.531a7.324 7.324 0 0 1-7.271-6.365c-.195-2.978-.382-5.908-.433-8.867"/><path fill="url(#person-wearing-turban-medium-dark_svg__c)" d="m6.551 14.786.005.004-.001-.165c-.007-.59-.02-1.728.478-2.47.802-1.197 1.713-1.286 2.604-1.286h12.977c2.128 0 2.88 1.335 3.047 2.279-.158 3.377-.369 6.743-.58 10.12l-.025.385a7.324 7.324 0 0 1-7.27 6.365h-3.531a7.324 7.324 0 0 1-7.271-6.365c-.195-2.978-.382-5.908-.433-8.867"/></g><path fill="url(#person-wearing-turban-medium-dark_svg__d)" d="m6.547 14.783.009.007-.001-.165c-.007-.59-.02-1.728.477-2.47.801-1.197 1.711-1.286 2.601-1.286h12.96c2.185 0 2.917 1.412 3.055 2.358a473 473 0 0 1-.47 8.065q-.076 1.179-.15 2.361a7.32 7.32 0 0 1-7.262 6.365h-3.525a7.32 7.32 0 0 1-7.262-6.365c-.195-2.979-.382-5.91-.432-8.87"/><path fill="url(#person-wearing-turban-medium-dark_svg__e)" d="m6.547 14.783.009.007-.001-.165c-.007-.59-.02-1.728.477-2.47.801-1.197 1.711-1.286 2.601-1.286h12.96c2.185 0 2.917 1.412 3.055 2.358a473 473 0 0 1-.47 8.065q-.076 1.179-.15 2.361a7.32 7.32 0 0 1-7.262 6.365h-3.525a7.32 7.32 0 0 1-7.262-6.365c-.195-2.979-.382-5.91-.432-8.87"/><path fill="url(#person-wearing-turban-medium-dark_svg__f)" d="m6.547 14.783.009.007-.001-.165c-.007-.59-.02-1.728.477-2.47.801-1.197 1.711-1.286 2.601-1.286h12.96c2.185 0 2.917 1.412 3.055 2.358a473 473 0 0 1-.47 8.065q-.076 1.179-.15 2.361a7.32 7.32 0 0 1-7.262 6.365h-3.525a7.32 7.32 0 0 1-7.262-6.365c-.195-2.979-.382-5.91-.432-8.87"/><path fill="url(#person-wearing-turban-medium-dark_svg__g)" d="m6.547 14.783.009.007-.001-.165c-.007-.59-.02-1.728.477-2.47.801-1.197 1.711-1.286 2.601-1.286h12.96c2.185 0 2.917 1.412 3.055 2.358a473 473 0 0 1-.47 8.065q-.076 1.179-.15 2.361a7.32 7.32 0 0 1-7.262 6.365h-3.525a7.32 7.32 0 0 1-7.262-6.365c-.195-2.979-.382-5.91-.432-8.87"/><path fill="url(#person-wearing-turban-medium-dark_svg__h)" d="m6.547 14.783.009.007-.001-.165c-.007-.59-.02-1.728.477-2.47.801-1.197 1.711-1.286 2.601-1.286h12.96c2.185 0 2.917 1.412 3.055 2.358a473 473 0 0 1-.47 8.065q-.076 1.179-.15 2.361a7.32 7.32 0 0 1-7.262 6.365h-3.525a7.32 7.32 0 0 1-7.262-6.365c-.195-2.979-.382-5.91-.432-8.87"/><path fill="url(#person-wearing-turban-medium-dark_svg__i)" d="m6.547 14.783.009.007-.001-.165c-.007-.59-.02-1.728.477-2.47.801-1.197 1.711-1.286 2.601-1.286h12.96c2.185 0 2.917 1.412 3.055 2.358a473 473 0 0 1-.47 8.065q-.076 1.179-.15 2.361a7.32 7.32 0 0 1-7.262 6.365h-3.525a7.32 7.32 0 0 1-7.262-6.365c-.195-2.979-.382-5.91-.432-8.87"/><path fill="url(#person-wearing-turban-medium-dark_svg__j)" d="m6.547 14.783.009.007-.001-.165c-.007-.59-.02-1.728.477-2.47.801-1.197 1.711-1.286 2.601-1.286h12.96c2.185 0 2.917 1.412 3.055 2.358a473 473 0 0 1-.47 8.065q-.076 1.179-.15 2.361a7.32 7.32 0 0 1-7.262 6.365h-3.525a7.32 7.32 0 0 1-7.262-6.365c-.195-2.979-.382-5.91-.432-8.87"/><path fill="url(#person-wearing-turban-medium-dark_svg__k)" d="m6.547 14.783.009.007-.001-.165c-.007-.59-.02-1.728.477-2.47.801-1.197 1.711-1.286 2.601-1.286h12.96c2.185 0 2.917 1.412 3.055 2.358a473 473 0 0 1-.47 8.065q-.076 1.179-.15 2.361a7.32 7.32 0 0 1-7.262 6.365h-3.525a7.32 7.32 0 0 1-7.262-6.365c-.195-2.979-.382-5.91-.432-8.87"/><g filter="url(#person-wearing-turban-medium-dark_svg__l)"><path fill="#6F3F46" d="m15.25 17.517-1.104 3.435c-.189.707.264 1.413.905 1.413h1.367c.642 0 1.094-.717.906-1.413l-.924-3.435c-.198-.761-.943-.761-1.15 0"/></g><g filter="url(#person-wearing-turban-medium-dark_svg__m)"><path fill="#7D5350" d="m15.285 17.15-.993 3.436c-.202.707.284 1.414.973 1.414h1.47c.689 0 1.175-.718.973-1.414l-.994-3.435c-.212-.761-1.206-.761-1.429 0"/><path fill="url(#person-wearing-turban-medium-dark_svg__n)" d="m15.285 17.15-.993 3.436c-.202.707.284 1.414.973 1.414h1.47c.689 0 1.175-.718.973-1.414l-.994-3.435c-.212-.761-1.206-.761-1.429 0"/><path fill="url(#person-wearing-turban-medium-dark_svg__o)" d="m15.285 17.15-.993 3.436c-.202.707.284 1.414.973 1.414h1.47c.689 0 1.175-.718.973-1.414l-.994-3.435c-.212-.761-1.206-.761-1.429 0"/><path fill="url(#person-wearing-turban-medium-dark_svg__p)" d="m15.285 17.15-.993 3.436c-.202.707.284 1.414.973 1.414h1.47c.689 0 1.175-.718.973-1.414l-.994-3.435c-.212-.761-1.206-.761-1.429 0"/><path fill="url(#person-wearing-turban-medium-dark_svg__q)" d="m15.285 17.15-.993 3.436c-.202.707.284 1.414.973 1.414h1.47c.689 0 1.175-.718.973-1.414l-.994-3.435c-.212-.761-1.206-.761-1.429 0"/></g><g filter="url(#person-wearing-turban-medium-dark_svg__r)"><path fill="url(#person-wearing-turban-medium-dark_svg__s)" d="m15.258 16.918-.993 3.436c-.203.707.284 1.413.973 1.413h1.47c.689 0 1.175-.717.972-1.413l-.993-3.436c-.213-.76-1.206-.76-1.429 0"/></g><g filter="url(#person-wearing-turban-medium-dark_svg__t)"><path stroke="url(#person-wearing-turban-medium-dark_svg__u)" stroke-width=".15" d="M13.445 23.22v-.001a.36.36 0 0 0-.43.074.33.33 0 0 0-.036.425 3.61 3.61 0 0 0 3.02 1.614 3.61 3.61 0 0 0 3.022-1.614.335.335 0 0 0-.037-.429.36.36 0 0 0-.43-.07 5.5 5.5 0 0 1-2.554.605 5.54 5.54 0 0 1-2.555-.605Z"/></g><path fill="url(#person-wearing-turban-medium-dark_svg__v)" d="M16 23.9c-.949 0-1.84-.224-2.59-.614-.255-.13-.53.158-.37.39A3.54 3.54 0 0 0 16 25.257a3.54 3.54 0 0 0 2.959-1.58c.16-.243-.114-.522-.37-.391-.75.39-1.631.613-2.59.613"/><g filter="url(#person-wearing-turban-medium-dark_svg__w)"><path fill="#2E201F" d="M22.976 12.918c-.328-.285-.708-.587-1.285-.769-.569-.179-1.28-.227-2.266-.106a.518.518 0 0 0 .126 1.028c.9-.11 1.45-.053 1.829.067.37.116.62.305.915.562a.518.518 0 1 0 .68-.782"/></g><g filter="url(#person-wearing-turban-medium-dark_svg__x)"><path fill="#2E201F" d="M9.626 12.714a5.184 5.184 0 0 1 3.25-.672.518.518 0 0 1-.127 1.03 4.15 4.15 0 0 0-2.591.532 3 3 0 0 0-.171.112l-.006.003a.518.518 0 0 1-.634-.82z"/></g><path fill="#fff" d="M20.468 15.375A2.61 2.61 0 0 1 23 17.354a.512.512 0 0 1-.5.636h-4.17a.43.43 0 0 1-.424-.507 2.61 2.61 0 0 1 2.562-2.108"/><path fill="url(#person-wearing-turban-medium-dark_svg__y)" d="M20.082 15.883a1.668 1.668 0 0 1 1.607 2.107h-3.222a1.7 1.7 0 0 1-.06-.44c0-.917.75-1.667 1.674-1.667"/><path fill="#000" d="M19.127 17.55c0-.53.424-.955.955-.955s.955.425.955.955c0 .16-.038.311-.106.44h-1.69a.86.86 0 0 1-.114-.44"/><g filter="url(#person-wearing-turban-medium-dark_svg__z)"><path fill="#C7A7A3" d="M19.959 16.236c.119.159-.13.352-.412.563-.282.212-.492.36-.61.201-.12-.159.013-.459.295-.67.283-.211.608-.253.727-.094"/><path fill="url(#person-wearing-turban-medium-dark_svg__A)" d="M19.959 16.236c.119.159-.13.352-.412.563-.282.212-.492.36-.61.201-.12-.159.013-.459.295-.67.283-.211.608-.253.727-.094"/></g><g filter="url(#person-wearing-turban-medium-dark_svg__B)"><path fill="url(#person-wearing-turban-medium-dark_svg__C)" d="M21.567 17.331a1.57 1.57 0 0 0-.432-.865l-.486.533.22.427z"/></g><path fill="#fff" d="M11.532 15.375A2.61 2.61 0 0 0 9 17.354a.512.512 0 0 0 .5.637h4.17a.43.43 0 0 0 .424-.508 2.62 2.62 0 0 0-2.562-2.108"/><path fill="url(#person-wearing-turban-medium-dark_svg__D)" d="M11.919 15.883a1.668 1.668 0 0 0-1.608 2.107h3.222a1.7 1.7 0 0 0 .06-.44 1.68 1.68 0 0 0-1.674-1.667"/><path fill="#000" d="M12.874 17.55a.95.95 0 0 0-.956-.955.95.95 0 0 0-.955.955c0 .16.038.311.106.44h1.691a.95.95 0 0 0 .114-.44"/><g filter="url(#person-wearing-turban-medium-dark_svg__E)"><path fill="url(#person-wearing-turban-medium-dark_svg__F)" d="M13.443 17.355c0-.54-.439-.899-.557-1.007l-.54.52.332.676z"/></g><g filter="url(#person-wearing-turban-medium-dark_svg__G)" transform="rotate(-27.914 11.415 16.595)"><ellipse cx="11.415" cy="16.595" fill="#C7A7A3" fill-opacity=".9" rx=".728" ry=".368"/><ellipse cx="11.415" cy="16.595" fill="url(#person-wearing-turban-medium-dark_svg__H)" rx=".728" ry=".368"/></g><path fill="url(#person-wearing-turban-medium-dark_svg__I)" d="M25.198 20.992c.123-1.989.241-3.975.345-5.964a3.008 3.008 0 0 1-.345 5.964"/><path fill="url(#person-wearing-turban-medium-dark_svg__J)" d="M25.198 20.992c.123-1.989.241-3.975.345-5.964a3.008 3.008 0 0 1-.345 5.964"/><path fill="url(#person-wearing-turban-medium-dark_svg__K)" d="M25.198 20.992c.123-1.989.241-3.975.345-5.964a3.008 3.008 0 0 1-.345 5.964"/><path fill="url(#person-wearing-turban-medium-dark_svg__L)" d="M25.198 20.992c.123-1.989.241-3.975.345-5.964a3.008 3.008 0 0 1-.345 5.964"/><path fill="url(#person-wearing-turban-medium-dark_svg__M)" d="M6.573 15.004a3.03 3.03 0 0 0-2.601 2.986 3.007 3.007 0 0 0 2.842 3.003q-.181-2.994-.24-5.99"/><path fill="url(#person-wearing-turban-medium-dark_svg__N)" d="M6.573 15.004a3.03 3.03 0 0 0-2.601 2.986 3.007 3.007 0 0 0 2.842 3.003q-.181-2.994-.24-5.99"/><g filter="url(#person-wearing-turban-medium-dark_svg__O)"><path fill="url(#person-wearing-turban-medium-dark_svg__P)" d="M6.497 16.247a1.786 1.786 0 0 0 .156 3.512c-.065-1.172-.12-2.34-.156-3.512"/></g><g filter="url(#person-wearing-turban-medium-dark_svg__Q)"><path fill="url(#person-wearing-turban-medium-dark_svg__R)" d="M25.237 19.769q.109-1.779.207-3.557a1.786 1.786 0 0 1-.207 3.557"/></g><g filter="url(#person-wearing-turban-medium-dark_svg__S)"><path stroke="#433739" stroke-linecap="round" stroke-width=".25" d="M9.697 13.237c.48-.345 1.677-.95 3.093-.713"/></g><g filter="url(#person-wearing-turban-medium-dark_svg__T)"><path stroke="#433739" stroke-linecap="round" stroke-width=".25" d="M22.655 13.15c-.48-.344-1.678-.95-3.094-.712"/></g><path fill="url(#person-wearing-turban-medium-dark_svg__U)" d="M4.795 10.61c.193 2.806 1.397 3.89 1.761 4.18 0-.514-.074-1.815.476-2.635.801-1.197 1.711-1.286 2.601-1.286h12.96c2.465 0 3.081 1.796 3.081 2.694l-.093 1.146c.217 0 .866-.236 1.115-.727.65-1.286 1.068-3.964 1.161-5.528s.031-2.764-1.192-4.451c-.979-1.35-2.795-2.021-4.42-2.021H10.693c-3.712 0-4.678 1.407-5.42 2.8-.594 1.114-.675 2.201-.675 2.843 0 .76.013 2.129.196 2.985"/><path fill="url(#person-wearing-turban-medium-dark_svg__V)" d="M4.795 10.61c.193 2.806 1.397 3.89 1.761 4.18 0-.514-.074-1.815.476-2.635.801-1.197 1.711-1.286 2.601-1.286h12.96c2.465 0 3.081 1.796 3.081 2.694l-.093 1.146c.217 0 .866-.236 1.115-.727.65-1.286 1.068-3.964 1.161-5.528s.031-2.764-1.192-4.451c-.979-1.35-2.795-2.021-4.42-2.021H10.693c-3.712 0-4.678 1.407-5.42 2.8-.594 1.114-.675 2.201-.675 2.843 0 .76.013 2.129.196 2.985"/><path fill="url(#person-wearing-turban-medium-dark_svg__W)" d="M4.795 10.61c.193 2.806 1.397 3.89 1.761 4.18 0-.514-.074-1.815.476-2.635.801-1.197 1.711-1.286 2.601-1.286h12.96c2.465 0 3.081 1.796 3.081 2.694l-.093 1.146c.217 0 .866-.236 1.115-.727.65-1.286 1.068-3.964 1.161-5.528s.031-2.764-1.192-4.451c-.979-1.35-2.795-2.021-4.42-2.021H10.693c-3.712 0-4.678 1.407-5.42 2.8-.594 1.114-.675 2.201-.675 2.843 0 .76.013 2.129.196 2.985"/><path fill="url(#person-wearing-turban-medium-dark_svg__X)" d="M4.795 10.61c.193 2.806 1.397 3.89 1.761 4.18 0-.514-.074-1.815.476-2.635.801-1.197 1.711-1.286 2.601-1.286h12.96c2.465 0 3.081 1.796 3.081 2.694l-.093 1.146c.217 0 .866-.236 1.115-.727.65-1.286 1.068-3.964 1.161-5.528s.031-2.764-1.192-4.451c-.979-1.35-2.795-2.021-4.42-2.021H10.693c-3.712 0-4.678 1.407-5.42 2.8-.594 1.114-.675 2.201-.675 2.843 0 .76.013 2.129.196 2.985"/><path fill="url(#person-wearing-turban-medium-dark_svg__Y)" d="M4.795 10.61c.193 2.806 1.397 3.89 1.761 4.18 0-.514-.074-1.815.476-2.635.801-1.197 1.711-1.286 2.601-1.286h12.96c2.465 0 3.081 1.796 3.081 2.694l-.093 1.146c.217 0 .866-.236 1.115-.727.65-1.286 1.068-3.964 1.161-5.528s.031-2.764-1.192-4.451c-.979-1.35-2.795-2.021-4.42-2.021H10.693c-3.712 0-4.678 1.407-5.42 2.8-.594 1.114-.675 2.201-.675 2.843 0 .76.013 2.129.196 2.985"/><path fill="url(#person-wearing-turban-medium-dark_svg__Z)" d="M4.795 10.61c.193 2.806 1.397 3.89 1.761 4.18 0-.514-.074-1.815.476-2.635.801-1.197 1.711-1.286 2.601-1.286h12.96c2.465 0 3.081 1.796 3.081 2.694l-.093 1.146c.217 0 .866-.236 1.115-.727.65-1.286 1.068-3.964 1.161-5.528s.031-2.764-1.192-4.451c-.979-1.35-2.795-2.021-4.42-2.021H10.693c-3.712 0-4.678 1.407-5.42 2.8-.594 1.114-.675 2.201-.675 2.843 0 .76.013 2.129.196 2.985"/><g filter="url(#person-wearing-turban-medium-dark_svg__aa)"><path fill="url(#person-wearing-turban-medium-dark_svg__ab)" d="m20.66 1.982.055 2.427c1.224-.031 3.562.083 5.578 1.227.85.482 1.29.993 1.574 1.414-.073-.97-.367-1.895-1.202-3.047-.979-1.35-2.795-2.021-4.42-2.021z"/><path fill="url(#person-wearing-turban-medium-dark_svg__ac)" d="m20.66 1.982.055 2.427c1.224-.031 3.562.083 5.578 1.227.85.482 1.29.993 1.574 1.414-.073-.97-.367-1.895-1.202-3.047-.979-1.35-2.795-2.021-4.42-2.021z"/></g><g filter="url(#person-wearing-turban-medium-dark_svg__ad)"><path fill="url(#person-wearing-turban-medium-dark_svg__ae)" d="M27.233 12.45c.005-1.483-1.085-2.607-1.93-3.106-1.34-.79-3.268-1.003-4.104-.998h-1.486l-4.955.805.256 1.719h7.579c2.465 0 3.102 1.792 3.044 2.694l-.056 1.145c.217 0 .866-.236 1.115-.727.202-.4.383-.937.537-1.532"/></g><path fill="url(#person-wearing-turban-medium-dark_svg__af)" d="M27.233 12.45c.005-1.483-1.085-2.607-1.93-3.106-1.34-.79-3.268-1.003-4.104-.998h-1.486l-4.955.805.256 1.719h7.579c2.465 0 3.102 1.792 3.044 2.694l-.056 1.145c.217 0 .866-.236 1.115-.727.202-.4.383-.937.537-1.532"/><path fill="url(#person-wearing-turban-medium-dark_svg__ag)" d="M27.233 12.45c.005-1.483-1.085-2.607-1.93-3.106-1.34-.79-3.268-1.003-4.104-.998h-1.486l-4.955.805.256 1.719h7.579c2.465 0 3.102 1.792 3.044 2.694l-.056 1.145c.217 0 .866-.236 1.115-.727.202-.4.383-.937.537-1.532"/><path fill="url(#person-wearing-turban-medium-dark_svg__ah)" d="M27.233 12.45c.005-1.483-1.085-2.607-1.93-3.106-1.34-.79-3.268-1.003-4.104-.998h-1.486l-4.955.805.256 1.719h7.579c2.465 0 3.102 1.792 3.044 2.694l-.056 1.145c.217 0 .866-.236 1.115-.727.202-.4.383-.937.537-1.532"/><g filter="url(#person-wearing-turban-medium-dark_svg__ai)"><path fill="url(#person-wearing-turban-medium-dark_svg__aj)" d="M21.189 1.982c.357 1.961.193 4.54-1.02 6.426-.921 1.433-2.18 2.461-3.472 2.461H9.633c-.89 0-1.8.09-2.6 1.286-.499.743-.485 1.88-.478 2.47l.001.165c-.364-.29-1.568-1.374-1.761-4.18-.183-.856-.196-2.226-.196-2.985 0-.642.08-1.729.674-2.843.743-1.393 1.71-2.8 5.42-2.8z"/></g><path fill="url(#person-wearing-turban-medium-dark_svg__ak)" d="M21.189 1.982c.357 1.961.193 4.54-1.02 6.426-.921 1.433-2.18 2.461-3.472 2.461H9.633c-.89 0-1.8.09-2.6 1.286-.499.743-.485 1.88-.478 2.47l.001.165c-.364-.29-1.568-1.374-1.761-4.18-.183-.856-.196-2.226-.196-2.985 0-.642.08-1.729.674-2.843.743-1.393 1.71-2.8 5.42-2.8z"/><path fill="url(#person-wearing-turban-medium-dark_svg__al)" d="M21.189 1.982c.357 1.961.193 4.54-1.02 6.426-.921 1.433-2.18 2.461-3.472 2.461H9.633c-.89 0-1.8.09-2.6 1.286-.499.743-.485 1.88-.478 2.47l.001.165c-.364-.29-1.568-1.374-1.761-4.18-.183-.856-.196-2.226-.196-2.985 0-.642.08-1.729.674-2.843.743-1.393 1.71-2.8 5.42-2.8z"/><path fill="url(#person-wearing-turban-medium-dark_svg__am)" d="M21.189 1.982c.357 1.961.193 4.54-1.02 6.426-.921 1.433-2.18 2.461-3.472 2.461H9.633c-.89 0-1.8.09-2.6 1.286-.499.743-.485 1.88-.478 2.47l.001.165c-.364-.29-1.568-1.374-1.761-4.18-.183-.856-.196-2.226-.196-2.985 0-.642.08-1.729.674-2.843.743-1.393 1.71-2.8 5.42-2.8z"/><path fill="url(#person-wearing-turban-medium-dark_svg__an)" d="M21.189 1.982c.357 1.961.193 4.54-1.02 6.426-.921 1.433-2.18 2.461-3.472 2.461H9.633c-.89 0-1.8.09-2.6 1.286-.499.743-.485 1.88-.478 2.47l.001.165c-.364-.29-1.568-1.374-1.761-4.18-.183-.856-.196-2.226-.196-2.985 0-.642.08-1.729.674-2.843.743-1.393 1.71-2.8 5.42-2.8z"/><path fill="url(#person-wearing-turban-medium-dark_svg__ao)" d="M21.189 1.982c.357 1.961.193 4.54-1.02 6.426-.921 1.433-2.18 2.461-3.472 2.461H9.633c-.89 0-1.8.09-2.6 1.286-.499.743-.485 1.88-.478 2.47l.001.165c-.364-.29-1.568-1.374-1.761-4.18-.183-.856-.196-2.226-.196-2.985 0-.642.08-1.729.674-2.843.743-1.393 1.71-2.8 5.42-2.8z"/><g filter="url(#person-wearing-turban-medium-dark_svg__ap)"><path fill="url(#person-wearing-turban-medium-dark_svg__aq)" d="M4.785 10.56c.457-.911 1.614-2.205 5.677-2.625.406-.042 1.003-.06 1.672-.08 1.666-.05 3.775-.113 4.482-.593.933-.445 1.973-3.246 1.54-5.28h-5.97L5.197 4.93C4.673 5.992 4.6 7.012 4.6 7.625c0 .745.013 2.077.186 2.936"/><path fill="url(#person-wearing-turban-medium-dark_svg__ar)" d="M4.785 10.56c.457-.911 1.614-2.205 5.677-2.625.406-.042 1.003-.06 1.672-.08 1.666-.05 3.775-.113 4.482-.593.933-.445 1.973-3.246 1.54-5.28h-5.97L5.197 4.93C4.673 5.992 4.6 7.012 4.6 7.625c0 .745.013 2.077.186 2.936"/><path fill="url(#person-wearing-turban-medium-dark_svg__as)" d="M4.785 10.56c.457-.911 1.614-2.205 5.677-2.625.406-.042 1.003-.06 1.672-.08 1.666-.05 3.775-.113 4.482-.593.933-.445 1.973-3.246 1.54-5.28h-5.97L5.197 4.93C4.673 5.992 4.6 7.012 4.6 7.625c0 .745.013 2.077.186 2.936"/><path fill="url(#person-wearing-turban-medium-dark_svg__at)" d="M4.785 10.56c.457-.911 1.614-2.205 5.677-2.625.406-.042 1.003-.06 1.672-.08 1.666-.05 3.775-.113 4.482-.593.933-.445 1.973-3.246 1.54-5.28h-5.97L5.197 4.93C4.673 5.992 4.6 7.012 4.6 7.625c0 .745.013 2.077.186 2.936"/><path fill="url(#person-wearing-turban-medium-dark_svg__au)" d="M4.785 10.56c.457-.911 1.614-2.205 5.677-2.625.406-.042 1.003-.06 1.672-.08 1.666-.05 3.775-.113 4.482-.593.933-.445 1.973-3.246 1.54-5.28h-5.97L5.197 4.93C4.673 5.992 4.6 7.012 4.6 7.625c0 .745.013 2.077.186 2.936"/></g><g filter="url(#person-wearing-turban-medium-dark_svg__av)"><path fill="url(#person-wearing-turban-medium-dark_svg__aw)" d="M4.6 7.718c.557-.67 1.563-1.613 2.897-1.974 1.879-.508 4.836-.732 6.069-.82.449.026 1.556-.442 1.556-1.61 0-.433-.016-.89-.053-1.332h-4.375c-3.712 0-4.678 1.407-5.42 2.8-.594 1.114-.675 2.201-.675 2.843z"/></g><path fill="url(#person-wearing-turban-medium-dark_svg__ax)" d="M4.6 7.718c.557-.67 1.563-1.613 2.897-1.974 1.879-.508 4.836-.732 6.069-.82.449.026 1.556-.442 1.556-1.61 0-.433-.016-.89-.053-1.332h-4.375c-3.712 0-4.678 1.407-5.42 2.8-.594 1.114-.675 2.201-.675 2.843z"/><path fill="url(#person-wearing-turban-medium-dark_svg__ay)" d="M4.6 7.718c.557-.67 1.563-1.613 2.897-1.974 1.879-.508 4.836-.732 6.069-.82.449.026 1.556-.442 1.556-1.61 0-.433-.016-.89-.053-1.332h-4.375c-3.712 0-4.678 1.407-5.42 2.8-.594 1.114-.675 2.201-.675 2.843z"/><defs><radialGradient id="person-wearing-turban-medium-dark_svg__b" cx="0" cy="0" r="1" gradientTransform="matrix(-9.78252 0 0 -17.2823 21.266 18.486)" gradientUnits="userSpaceOnUse"><stop stop-color="#9A6E61"/><stop offset="1" stop-color="#754C4C"/><stop offset="1" stop-color="#754C4C"/></radialGradient><radialGradient id="person-wearing-turban-medium-dark_svg__c" cx="0" cy="0" r="1" gradientTransform="rotate(121.193 7.69 10.382)scale(6.29804 5.20274)" gradientUnits="userSpaceOnUse"><stop offset=".078" stop-color="#855E5A"/><stop offset="1" stop-color="#855E5A" stop-opacity="0"/></radialGradient><radialGradient id="person-wearing-turban-medium-dark_svg__e" cx="0" cy="0" r="1" gradientTransform="matrix(0 -2.14599 2.65566 0 20.569 16.033)" gradientUnits="userSpaceOnUse"><stop offset=".325" stop-color="#875455"/><stop offset="1" stop-color="#875455" stop-opacity="0"/></radialGradient><radialGradient id="person-wearing-turban-medium-dark_svg__f" cx="0" cy="0" r="1" gradientTransform="rotate(-89.794 13.937 2.19)scale(2.04495 2.22539)" gradientUnits="userSpaceOnUse"><stop offset=".378" stop-color="#70424E"/><stop offset="1" stop-color="#70424E" stop-opacity="0"/></radialGradient><radialGradient id="person-wearing-turban-medium-dark_svg__g" cx="0" cy="0" r="1" gradientTransform="rotate(176.388 10.885 10.52)scale(15.9085 40.6383)" gradientUnits="userSpaceOnUse"><stop offset=".836" stop-color="#815F58" stop-opacity="0"/><stop offset="1" stop-color="#815F58"/></radialGradient><radialGradient id="person-wearing-turban-medium-dark_svg__h" cx="0" cy="0" r="1" gradientTransform="rotate(-40.741 19.668 2.24)scale(8.35093 2.46672)" gradientUnits="userSpaceOnUse"><stop offset=".539" stop-color="#4F2C2A"/><stop offset="1" stop-color="#4F2C2A" stop-opacity="0"/></radialGradient><radialGradient id="person-wearing-turban-medium-dark_svg__i" cx="0" cy="0" r="1" gradientTransform="matrix(-.43852 4.6671 -1.86564 -.1753 26.358 13.034)" gradientUnits="userSpaceOnUse"><stop offset=".245" stop-color="#98786D"/><stop offset="1" stop-color="#98786D" stop-opacity="0"/></radialGradient><radialGradient id="person-wearing-turban-medium-dark_svg__j" cx="0" cy="0" r="1" gradientTransform="matrix(0 16.2921 -23.702 0 16.098 13.726)" gradientUnits="userSpaceOnUse"><stop offset=".664" stop-color="#764E4E" stop-opacity="0"/><stop offset="1" stop-color="#784060"/></radialGradient><radialGradient id="person-wearing-turban-medium-dark_svg__k" cx="0" cy="0" r="1" gradientTransform="matrix(0 16.625 -17.2749 0 16.098 13.726)" gradientUnits="userSpaceOnUse"><stop offset=".91" stop-color="#784067" stop-opacity="0"/><stop offset="1" stop-color="#8D5A8C"/></radialGradient><radialGradient id="person-wearing-turban-medium-dark_svg__o" cx="0" cy="0" r="1" gradientTransform="matrix(0 .45617 -1.43367 0 16.871 21.03)" gradientUnits="userSpaceOnUse"><stop stop-color="#A17C72"/><stop offset="1" stop-color="#A17C72" stop-opacity="0"/></radialGradient><radialGradient id="person-wearing-turban-medium-dark_svg__q" cx="0" cy="0" r="1" gradientTransform="rotate(155.369 6.365 11.848)scale(3.12719 5.02565)" gradientUnits="userSpaceOnUse"><stop offset=".714" stop-color="#744A4A" stop-opacity="0"/><stop offset="1" stop-color="#744A4A"/></radialGradient><radialGradient id="person-wearing-turban-medium-dark_svg__v" cx="0" cy="0" r="1" gradientTransform="rotate(-26.18 61.852 -19.803)scale(4.54372 18.2806)" gradientUnits="userSpaceOnUse"><stop offset=".562" stop-color="#87004E"/><stop offset="1" stop-color="#87004D"/></radialGradient><radialGradient id="person-wearing-turban-medium-dark_svg__y" cx="0" cy="0" r="1" gradientTransform="matrix(0 1.51616 -2.41162 0 20.078 16.774)" gradientUnits="userSpaceOnUse"><stop offset=".802" stop-color="#7D574A"/><stop offset="1" stop-color="#694B43"/><stop offset="1" stop-color="#804D49"/><stop offset="1" stop-color="#664842"/></radialGradient><radialGradient id="person-wearing-turban-medium-dark_svg__A" cx="0" cy="0" r="1" gradientTransform="matrix(-.4334 -.5585 .7689 -.59669 19.651 16.932)" gradientUnits="userSpaceOnUse"><stop offset=".766" stop-color="#FFE6E2" stop-opacity="0"/><stop offset=".966" stop-color="#FFE6E2"/></radialGradient><radialGradient id="person-wearing-turban-medium-dark_svg__D" cx="0" cy="0" r="1" gradientTransform="matrix(0 1.51624 -2.41174 0 11.922 16.774)" gradientUnits="userSpaceOnUse"><stop offset=".802" stop-color="#7D574A"/><stop offset="1" stop-color="#694B43"/><stop offset="1" stop-color="#804D49"/><stop offset="1" stop-color="#664842"/></radialGradient><radialGradient id="person-wearing-turban-medium-dark_svg__H" cx="0" cy="0" r="1" gradientTransform="matrix(-.01446 -.92332 1.10987 -.01738 11.387 17.184)" gradientUnits="userSpaceOnUse"><stop offset=".766" stop-color="#FFE6E2" stop-opacity="0"/><stop offset=".966" stop-color="#FFE6E2"/></radialGradient><radialGradient id="person-wearing-turban-medium-dark_svg__J" cx="0" cy="0" r="1" gradientTransform="matrix(1.1746 4.19213 -3.99962 1.12067 24.63 16.8)" gradientUnits="userSpaceOnUse"><stop offset=".856" stop-color="#71404F" stop-opacity="0"/><stop offset="1" stop-color="#71404F"/></radialGradient><radialGradient id="person-wearing-turban-medium-dark_svg__K" cx="0" cy="0" r="1" gradientTransform="matrix(1.47217 -2.02032 1.69343 1.23398 25.303 17.818)" gradientUnits="userSpaceOnUse"><stop offset=".664" stop-color="#7C4C46"/><stop offset="1" stop-color="#7C4C46" stop-opacity="0"/></radialGradient><radialGradient id="person-wearing-turban-medium-dark_svg__L" cx="0" cy="0" r="1" gradientTransform="matrix(1.09696 -2.89737 3.87128 1.46568 25.516 18.14)" gradientUnits="userSpaceOnUse"><stop offset=".803" stop-color="#805D4C" stop-opacity="0"/><stop offset="1" stop-color="#805D4C"/></radialGradient><radialGradient id="person-wearing-turban-medium-dark_svg__N" cx="0" cy="0" r="1" gradientTransform="rotate(-180 3.407 9)scale(3.09887 3.46033)" gradientUnits="userSpaceOnUse"><stop offset=".778" stop-color="#836158" stop-opacity="0"/><stop offset="1" stop-color="#836158"/></radialGradient><radialGradient id="person-wearing-turban-medium-dark_svg__P" cx="0" cy="0" r="1" gradientTransform="rotate(170.26 2.641 9.292)scale(1.73773 1.78171)" gradientUnits="userSpaceOnUse"><stop stop-color="#57353C"/><stop offset="1" stop-color="#5B3336"/></radialGradient><radialGradient id="person-wearing-turban-medium-dark_svg__U" cx="0" cy="0" r="1" gradientTransform="matrix(-.84218 3.75478 -8.78476 -1.97039 26.124 5.009)" gradientUnits="userSpaceOnUse"><stop stop-color="#F8F6FB"/><stop offset=".789" stop-color="#EBE6F2"/></radialGradient><radialGradient id="person-wearing-turban-medium-dark_svg__V" cx="0" cy="0" r="1" gradientTransform="matrix(2.09375 .53125 -1.15317 4.54483 20.59 6.642)" gradientUnits="userSpaceOnUse"><stop offset=".152" stop-color="#CFCAD4"/><stop offset="1" stop-color="#ECE8F1" stop-opacity="0"/></radialGradient><radialGradient id="person-wearing-turban-medium-dark_svg__W" cx="0" cy="0" r="1" gradientTransform="matrix(1.5 -2.625 6.33197 3.61827 22.527 10.486)" gradientUnits="userSpaceOnUse"><stop stop-color="#D3CFD9"/><stop offset="1" stop-color="#D3CFD9" stop-opacity="0"/></radialGradient><radialGradient id="person-wearing-turban-medium-dark_svg__X" cx="0" cy="0" r="1" gradientTransform="matrix(-.84218 3.75478 -8.78476 -1.97039 26.124 5.009)" gradientUnits="userSpaceOnUse"><stop stop-color="#F8F6FB"/><stop offset=".789" stop-color="#EBE6F2"/></radialGradient><radialGradient id="person-wearing-turban-medium-dark_svg__Y" cx="0" cy="0" r="1" gradientTransform="matrix(2.09375 .53125 -1.15317 4.54483 20.59 6.642)" gradientUnits="userSpaceOnUse"><stop offset=".152" stop-color="#CFCAD4"/><stop offset="1" stop-color="#ECE8F1" stop-opacity="0"/></radialGradient><radialGradient id="person-wearing-turban-medium-dark_svg__Z" cx="0" cy="0" r="1" gradientTransform="matrix(1.5 -2.625 6.33197 3.61827 22.527 10.486)" gradientUnits="userSpaceOnUse"><stop stop-color="#D3CFD9"/><stop offset="1" stop-color="#D3CFD9" stop-opacity="0"/></radialGradient><radialGradient id="person-wearing-turban-medium-dark_svg__ab" cx="0" cy="0" r="1" gradientTransform="matrix(.17188 2.91016 -14.53547 .85847 21.496 1.982)" gradientUnits="userSpaceOnUse"><stop stop-color="#DBDBDC"/><stop offset="1" stop-color="#FAFAFA"/></radialGradient><radialGradient id="person-wearing-turban-medium-dark_svg__ac" cx="0" cy="0" r="1" gradientTransform="matrix(1.45313 0 0 5.1925 21.043 3.298)" gradientUnits="userSpaceOnUse"><stop offset=".253" stop-color="#E2DCE8"/><stop offset="1" stop-color="#E2DCE8" stop-opacity="0"/></radialGradient><radialGradient id="person-wearing-turban-medium-dark_svg__af" cx="0" cy="0" r="1" gradientTransform="matrix(2.46875 1.71875 -3.03125 4.35398 17.933 9.017)" gradientUnits="userSpaceOnUse"><stop offset=".391" stop-color="#BFB1C9"/><stop offset="1" stop-color="#E0DAE8" stop-opacity="0"/></radialGradient><radialGradient id="person-wearing-turban-medium-dark_svg__ag" cx="0" cy="0" r="1" gradientTransform="matrix(0 -2.93844 1.49148 0 24.896 14.466)" gradientUnits="userSpaceOnUse"><stop offset=".306" stop-color="#A186B8"/><stop offset="1" stop-color="#A186B8" stop-opacity="0"/></radialGradient><radialGradient id="person-wearing-turban-medium-dark_svg__ah" cx="0" cy="0" r="1" gradientTransform="matrix(3.71875 0 0 .30337 18.996 8.642)" gradientUnits="userSpaceOnUse"><stop stop-color="#D0CCD3"/><stop offset="1" stop-color="#D0CCD3" stop-opacity="0"/></radialGradient><radialGradient id="person-wearing-turban-medium-dark_svg__aj" cx="0" cy="0" r="1" gradientTransform="matrix(-4.28125 -.09372 .19553 -8.93238 21.808 5.548)" gradientUnits="userSpaceOnUse"><stop stop-color="#F5F4F6"/><stop offset="1" stop-color="#CFC8D7"/></radialGradient><radialGradient id="person-wearing-turban-medium-dark_svg__ak" cx="0" cy="0" r="1" gradientTransform="matrix(11.55068 3.52232 -4.80864 15.76891 9.373 5.702)" gradientUnits="userSpaceOnUse"><stop offset=".633" stop-color="#D1CAD9" stop-opacity="0"/><stop offset=".952" stop-color="#F1EDF4"/></radialGradient><radialGradient id="person-wearing-turban-medium-dark_svg__al" cx="0" cy="0" r="1" gradientTransform="matrix(1.11064 -4.72815 1.61144 .37853 17.084 4.56)" gradientUnits="userSpaceOnUse"><stop offset=".348" stop-color="#C5C2C8"/><stop offset="1" stop-color="#C5C2C8" stop-opacity="0"/></radialGradient><radialGradient id="person-wearing-turban-medium-dark_svg__am" cx="0" cy="0" r="1" gradientTransform="matrix(-.06346 1.33277 -6.75892 -.32185 9.436 7.352)" gradientUnits="userSpaceOnUse"><stop stop-color="#BDBBBE"/><stop offset="1" stop-color="#BDBBBE" stop-opacity="0"/></radialGradient><radialGradient id="person-wearing-turban-medium-dark_svg__an" cx="0" cy="0" r="1" gradientTransform="matrix(-13.48639 2.82409 -3.69438 -17.64244 17.782 7.48)" gradientUnits="userSpaceOnUse"><stop offset=".681" stop-color="#BFB7C6" stop-opacity="0"/><stop offset="1" stop-color="#BFB7C6"/></radialGradient><radialGradient id="person-wearing-turban-medium-dark_svg__ao" cx="0" cy="0" r="1" gradientTransform="matrix(.88851 -3.93483 2.3195 .52376 7.183 14.46)" gradientUnits="userSpaceOnUse"><stop offset=".201" stop-color="#795A90"/><stop offset="1" stop-color="#795A90" stop-opacity="0"/></radialGradient><radialGradient id="person-wearing-turban-medium-dark_svg__aq" cx="0" cy="0" r="1" gradientTransform="rotate(137.988 8.681 4.67)scale(9.89862 9.45071)" gradientUnits="userSpaceOnUse"><stop stop-color="#DDDDDE"/><stop offset="1" stop-color="#C0BBC4"/></radialGradient><radialGradient id="person-wearing-turban-medium-dark_svg__ar" cx="0" cy="0" r="1" gradientTransform="matrix(-1.78125 0 0 -4.75 18.683 3.455)" gradientUnits="userSpaceOnUse"><stop stop-color="#EBEAEC"/><stop offset="1" stop-color="#EBEAEC" stop-opacity="0"/></radialGradient><radialGradient id="person-wearing-turban-medium-dark_svg__at" cx="0" cy="0" r="1" gradientTransform="matrix(5.90625 .125 -.02777 1.31192 10.37 4.08)" gradientUnits="userSpaceOnUse"><stop stop-color="#B8B2BE"/><stop offset="1" stop-color="#B8B2BE" stop-opacity="0"/></radialGradient><radialGradient id="person-wearing-turban-medium-dark_svg__au" cx="0" cy="0" r="1" gradientTransform="matrix(1.28125 -.09375 .17757 2.4268 14.37 2.423)" gradientUnits="userSpaceOnUse"><stop offset=".256" stop-color="#BBB9BD"/><stop offset="1" stop-color="#BBB9BD" stop-opacity="0"/></radialGradient><radialGradient id="person-wearing-turban-medium-dark_svg__aw" cx="0" cy="0" r="1" gradientTransform="matrix(-8.06249 1.65631 -3.03846 -14.79042 14.777 2.548)" gradientUnits="userSpaceOnUse"><stop stop-color="#D2D1D3"/><stop offset="1" stop-color="#B5B4B6"/></radialGradient><radialGradient id="person-wearing-turban-medium-dark_svg__ax" cx="0" cy="0" r="1" gradientTransform="matrix(8.03125 .96875 -1.11478 9.24187 7.496 3.205)" gradientUnits="userSpaceOnUse"><stop offset=".869" stop-color="#A5A0A9" stop-opacity="0"/><stop offset="1" stop-color="#A5A0A9"/></radialGradient><radialGradient id="person-wearing-turban-medium-dark_svg__ay" cx="0" cy="0" r="1" gradientTransform="rotate(-40.547 12.867 -2.692)scale(3.5779 2.63113)" gradientUnits="userSpaceOnUse"><stop stop-color="#BCB7C1"/><stop offset="1" stop-color="#BCB7C1" stop-opacity="0"/></radialGradient><filter id="person-wearing-turban-medium-dark_svg__a" width="20.11" height="19.349" x="6.551" y="10.869" color-interpolation-filters="sRGB" filterUnits="userSpaceOnUse"><feFlood flood-opacity="0" result="BackgroundImageFix"/><feBlend in="SourceGraphic" in2="BackgroundImageFix" result="shape"/><feColorMatrix in="SourceAlpha" result="hardAlpha" values="0 0 0 0 0 0 0 0 0 0 0 0 0 0 0 0 0 0 127 0"/><feOffset dx="1"/><feGaussianBlur stdDeviation=".7"/><feComposite in2="hardAlpha" k2="-1" k3="1" operator="arithmetic"/><feColorMatrix values="0 0 0 0 0.494118 0 0 0 0 0.352941 0 0 0 0 0.32549 0 0 0 1 0"/><feBlend in2="shape" result="effect1_innerShadow_4002_3099"/><feColorMatrix in="SourceAlpha" result="hardAlpha" values="0 0 0 0 0 0 0 0 0 0 0 0 0 0 0 0 0 0 127 0"/><feOffset dy=".2"/><feGaussianBlur stdDeviation=".375"/><feComposite in2="hardAlpha" k2="-1" k3="1" operator="arithmetic"/><feColorMatrix values="0 0 0 0 0.396078 0 0 0 0 0.215686 0 0 0 0 0.215686 0 0 0 1 0"/><feBlend in2="effect1_innerShadow_4002_3099" result="effect2_innerShadow_4002_3099"/></filter><filter id="person-wearing-turban-medium-dark_svg__l" width="5.264" height="7.419" x="13.103" y="15.946" color-interpolation-filters="sRGB" filterUnits="userSpaceOnUse"><feFlood flood-opacity="0" result="BackgroundImageFix"/><feBlend in="SourceGraphic" in2="BackgroundImageFix" result="shape"/><feGaussianBlur result="effect1_foregroundBlur_4002_3099" stdDeviation=".5"/></filter><filter id="person-wearing-turban-medium-dark_svg__m" width="3.908" height="5.819" x="14.046" y="16.38" color-interpolation-filters="sRGB" filterUnits="userSpaceOnUse"><feFlood flood-opacity="0" result="BackgroundImageFix"/><feBlend in="SourceGraphic" in2="BackgroundImageFix" result="shape"/><feGaussianBlur result="effect1_foregroundBlur_4002_3099" stdDeviation=".1"/></filter><filter id="person-wearing-turban-medium-dark_svg__r" width="3.908" height="5.819" x="14.018" y="16.148" color-interpolation-filters="sRGB" filterUnits="userSpaceOnUse"><feFlood flood-opacity="0" result="BackgroundImageFix"/><feBlend in="SourceGraphic" in2="BackgroundImageFix" result="shape"/><feGaussianBlur result="effect1_foregroundBlur_4002_3099" stdDeviation=".1"/></filter><filter id="person-wearing-turban-medium-dark_svg__t" width="6.514" height="2.505" x="12.743" y="23.002" color-interpolation-filters="sRGB" filterUnits="userSpaceOnUse"><feFlood flood-opacity="0" result="BackgroundImageFix"/><feBlend in="SourceGraphic" in2="BackgroundImageFix" result="shape"/><feGaussianBlur result="effect1_foregroundBlur_4002_3099" stdDeviation=".05"/></filter><filter id="person-wearing-turban-medium-dark_svg__w" width="4.284" height="2.051" x="18.97" y="11.776" color-interpolation-filters="sRGB" filterUnits="userSpaceOnUse"><feFlood flood-opacity="0" result="BackgroundImageFix"/><feBlend in="SourceGraphic" in2="BackgroundImageFix" result="shape"/><feColorMatrix in="SourceAlpha" result="hardAlpha" values="0 0 0 0 0 0 0 0 0 0 0 0 0 0 0 0 0 0 127 0"/><feOffset dx=".1" dy="-.2"/><feGaussianBlur stdDeviation=".125"/><feComposite in2="hardAlpha" k2="-1" k3="1" operator="arithmetic"/><feColorMatrix values="0 0 0 0 0.172549 0 0 0 0 0.0862745 0 0 0 0 0.156863 0 0 0 1 0"/><feBlend in2="shape" result="effect1_innerShadow_4002_3099"/></filter><filter id="person-wearing-turban-medium-dark_svg__x" width="4.284" height="2.023" x="9.147" y="11.804" color-interpolation-filters="sRGB" filterUnits="userSpaceOnUse"><feFlood flood-opacity="0" result="BackgroundImageFix"/><feBlend in="SourceGraphic" in2="BackgroundImageFix" result="shape"/><feColorMatrix in="SourceAlpha" result="hardAlpha" values="0 0 0 0 0 0 0 0 0 0 0 0 0 0 0 0 0 0 127 0"/><feOffset dx=".1" dy="-.2"/><feGaussianBlur stdDeviation=".125"/><feComposite in2="hardAlpha" k2="-1" k3="1" operator="arithmetic"/><feColorMatrix values="0 0 0 0 0.172549 0 0 0 0 0.0862745 0 0 0 0 0.156863 0 0 0 1 0"/><feBlend in2="shape" result="effect1_innerShadow_4002_3099"/></filter><filter id="person-wearing-turban-medium-dark_svg__z" width="1.297" height="1.127" x="18.793" y="16.039" color-interpolation-filters="sRGB" filterUnits="userSpaceOnUse"><feFlood flood-opacity="0" result="BackgroundImageFix"/><feBlend in="SourceGraphic" in2="BackgroundImageFix" result="shape"/><feGaussianBlur result="effect1_foregroundBlur_4002_3099" stdDeviation=".05"/></filter><filter id="person-wearing-turban-medium-dark_svg__B" width="1.318" height="1.359" x="20.449" y="16.266" color-interpolation-filters="sRGB" filterUnits="userSpaceOnUse"><feFlood flood-opacity="0" result="BackgroundImageFix"/><feBlend in="SourceGraphic" in2="BackgroundImageFix" result="shape"/><feGaussianBlur result="effect1_foregroundBlur_4002_3099" stdDeviation=".1"/></filter><filter id="person-wearing-turban-medium-dark_svg__E" width="1.496" height="1.596" x="12.147" y="16.148" color-interpolation-filters="sRGB" filterUnits="userSpaceOnUse"><feFlood flood-opacity="0" result="BackgroundImageFix"/><feBlend in="SourceGraphic" in2="BackgroundImageFix" result="shape"/><feGaussianBlur result="effect1_foregroundBlur_4002_3099" stdDeviation=".1"/></filter><filter id="person-wearing-turban-medium-dark_svg__G" width="1.533" height="1.143" x="10.649" y="16.024" color-interpolation-filters="sRGB" filterUnits="userSpaceOnUse"><feFlood flood-opacity="0" result="BackgroundImageFix"/><feBlend in="SourceGraphic" in2="BackgroundImageFix" result="shape"/><feGaussianBlur result="effect1_foregroundBlur_4002_3099" stdDeviation=".05"/></filter><filter id="person-wearing-turban-medium-dark_svg__O" width="2.049" height="4.012" x="4.854" y="15.997" color-interpolation-filters="sRGB" filterUnits="userSpaceOnUse"><feFlood flood-opacity="0" result="BackgroundImageFix"/><feBlend in="SourceGraphic" in2="BackgroundImageFix" result="shape"/><feGaussianBlur result="effect1_foregroundBlur_4002_3099" stdDeviation=".125"/></filter><filter id="person-wearing-turban-medium-dark_svg__Q" width="2.769" height="4.557" x="24.737" y="15.712" color-interpolation-filters="sRGB" filterUnits="userSpaceOnUse"><feFlood flood-opacity="0" result="BackgroundImageFix"/><feBlend in="SourceGraphic" in2="BackgroundImageFix" result="shape"/><feGaussianBlur result="effect1_foregroundBlur_4002_3099" stdDeviation=".25"/></filter><filter id="person-wearing-turban-medium-dark_svg__S" width="3.843" height="1.517" x="9.322" y="12.095" color-interpolation-filters="sRGB" filterUnits="userSpaceOnUse"><feFlood flood-opacity="0" result="BackgroundImageFix"/><feBlend in="SourceGraphic" in2="BackgroundImageFix" result="shape"/><feGaussianBlur result="effect1_foregroundBlur_4002_3099" stdDeviation=".125"/></filter><filter id="person-wearing-turban-medium-dark_svg__T" width="3.843" height="1.517" x="19.186" y="12.009" color-interpolation-filters="sRGB" filterUnits="userSpaceOnUse"><feFlood flood-opacity="0" result="BackgroundImageFix"/><feBlend in="SourceGraphic" in2="BackgroundImageFix" result="shape"/><feGaussianBlur result="effect1_foregroundBlur_4002_3099" stdDeviation=".125"/></filter><filter id="person-wearing-turban-medium-dark_svg__aa" width="7.307" height="5.168" x="20.66" y="1.882" color-interpolation-filters="sRGB" filterUnits="userSpaceOnUse"><feFlood flood-opacity="0" result="BackgroundImageFix"/><feBlend in="SourceGraphic" in2="BackgroundImageFix" result="shape"/><feColorMatrix in="SourceAlpha" result="hardAlpha" values="0 0 0 0 0 0 0 0 0 0 0 0 0 0 0 0 0 0 127 0"/><feOffset dx=".1" dy="-.1"/><feGaussianBlur stdDeviation=".15"/><feComposite in2="hardAlpha" k2="-1" k3="1" operator="arithmetic"/><feColorMatrix values="0 0 0 0 0.843137 0 0 0 0 0.8 0 0 0 0 0.890196 0 0 0 1 0"/><feBlend in2="shape" result="effect1_innerShadow_4002_3099"/></filter><filter id="person-wearing-turban-medium-dark_svg__ad" width="12.925" height="6.714" x="14.708" y="8.096" color-interpolation-filters="sRGB" filterUnits="userSpaceOnUse"><feFlood flood-opacity="0" result="BackgroundImageFix"/><feBlend in="SourceGraphic" in2="BackgroundImageFix" result="shape"/><feColorMatrix in="SourceAlpha" result="hardAlpha" values="0 0 0 0 0 0 0 0 0 0 0 0 0 0 0 0 0 0 127 0"/><feOffset dx="-.05" dy=".1"/><feGaussianBlur stdDeviation=".125"/><feComposite in2="hardAlpha" k2="-1" k3="1" operator="arithmetic"/><feColorMatrix values="0 0 0 0 1 0 0 0 0 0.992157 0 0 0 0 1 0 0 0 1 0"/><feBlend in2="shape" result="effect1_innerShadow_4002_3099"/><feColorMatrix in="SourceAlpha" result="hardAlpha" values="0 0 0 0 0 0 0 0 0 0 0 0 0 0 0 0 0 0 127 0"/><feOffset dx=".4" dy="-.25"/><feGaussianBlur stdDeviation=".325"/><feComposite in2="hardAlpha" k2="-1" k3="1" operator="arithmetic"/><feColorMatrix values="0 0 0 0 0.670588 0 0 0 0 0.560784 0 0 0 0 0.756863 0 0 0 1 0"/><feBlend in2="effect1_innerShadow_4002_3099" result="effect2_innerShadow_4002_3099"/></filter><filter id="person-wearing-turban-medium-dark_svg__ai" width="17.006" height="13.059" x="4.349" y="1.732" color-interpolation-filters="sRGB" filterUnits="userSpaceOnUse"><feFlood flood-opacity="0" result="BackgroundImageFix"/><feBlend in="SourceGraphic" in2="BackgroundImageFix" result="shape"/><feColorMatrix in="SourceAlpha" result="hardAlpha" values="0 0 0 0 0 0 0 0 0 0 0 0 0 0 0 0 0 0 127 0"/><feOffset dx="-.25" dy="-.25"/><feGaussianBlur stdDeviation=".3"/><feComposite in2="hardAlpha" k2="-1" k3="1" operator="arithmetic"/><feColorMatrix values="0 0 0 0 0.603922 0 0 0 0 0.45098 0 0 0 0 0.721569 0 0 0 1 0"/><feBlend in2="shape" result="effect1_innerShadow_4002_3099"/></filter><filter id="person-wearing-turban-medium-dark_svg__ap" width="13.757" height="8.679" x="4.499" y="1.882" color-interpolation-filters="sRGB" filterUnits="userSpaceOnUse"><feFlood flood-opacity="0" result="BackgroundImageFix"/><feBlend in="SourceGraphic" in2="BackgroundImageFix" result="shape"/><feColorMatrix in="SourceAlpha" result="hardAlpha" values="0 0 0 0 0 0 0 0 0 0 0 0 0 0 0 0 0 0 127 0"/><feOffset dx="-.1" dy="-.1"/><feGaussianBlur stdDeviation=".15"/><feComposite in2="hardAlpha" k2="-1" k3="1" operator="arithmetic"/><feColorMatrix values="0 0 0 0 0.611765 0 0 0 0 0.588235 0 0 0 0 0.635294 0 0 0 1 0"/><feBlend in2="shape" result="effect1_innerShadow_4002_3099"/></filter><filter id="person-wearing-turban-medium-dark_svg__av" width="10.523" height="5.986" x="4.599" y="1.782" color-interpolation-filters="sRGB" filterUnits="userSpaceOnUse"><feFlood flood-opacity="0" result="BackgroundImageFix"/><feBlend in="SourceGraphic" in2="BackgroundImageFix" result="shape"/><feColorMatrix in="SourceAlpha" result="hardAlpha" values="0 0 0 0 0 0 0 0 0 0 0 0 0 0 0 0 0 0 127 0"/><feOffset dy="-.2"/><feGaussianBlur stdDeviation=".2"/><feComposite in2="hardAlpha" k2="-1" k3="1" operator="arithmetic"/><feColorMatrix values="0 0 0 0 0.686275 0 0 0 0 0.619608 0 0 0 0 0.752941 0 0 0 1 0"/><feBlend in2="shape" result="effect1_innerShadow_4002_3099"/><feColorMatrix in="SourceAlpha" result="hardAlpha" values="0 0 0 0 0 0 0 0 0 0 0 0 0 0 0 0 0 0 127 0"/><feOffset dy=".05"/><feGaussianBlur stdDeviation=".15"/><feComposite in2="hardAlpha" k2="-1" k3="1" operator="arithmetic"/><feColorMatrix values="0 0 0 0 0.705882 0 0 0 0 0.701961 0 0 0 0 0.705882 0 0 0 1 0"/><feBlend in2="effect1_innerShadow_4002_3099" result="effect2_innerShadow_4002_3099"/></filter><linearGradient id="person-wearing-turban-medium-dark_svg__d" x1="25.633" x2="20.907" y1="21.636" y2="21.636" gradientUnits="userSpaceOnUse"><stop stop-color="#936B5D"/><stop offset="1" stop-color="#936B5D" stop-opacity="0"/></linearGradient><linearGradient id="person-wearing-turban-medium-dark_svg__n" x1="17.419" x2="16" y1="19.664" y2="19.664" gradientUnits="userSpaceOnUse"><stop offset=".037" stop-color="#A17C72"/><stop offset="1" stop-color="#A17C72" stop-opacity="0"/></linearGradient><linearGradient id="person-wearing-turban-medium-dark_svg__p" x1="16" x2="16" y1="21.876" y2="21.007" gradientUnits="userSpaceOnUse"><stop stop-color="#7D465B"/><stop offset="1" stop-color="#7D465B" stop-opacity="0"/></linearGradient><linearGradient id="person-wearing-turban-medium-dark_svg__s" x1="15.973" x2="15.973" y1="16.348" y2="19.194" gradientUnits="userSpaceOnUse"><stop stop-color="#855C56"/><stop offset="1" stop-color="#855C56" stop-opacity="0"/></linearGradient><linearGradient id="person-wearing-turban-medium-dark_svg__u" x1="13.754" x2="14.349" y1="24.812" y2="23.252" gradientUnits="userSpaceOnUse"><stop stop-color="#866163"/><stop offset="1" stop-color="#866163" stop-opacity="0"/></linearGradient><linearGradient id="person-wearing-turban-medium-dark_svg__C" x1="21.531" x2="20.945" y1="16.875" y2="17.236" gradientUnits="userSpaceOnUse"><stop stop-color="#B4948D"/><stop offset="1" stop-color="#B4948D" stop-opacity="0"/></linearGradient><linearGradient id="person-wearing-turban-medium-dark_svg__F" x1="13.313" x2="12.726" y1="16.875" y2="17.236" gradientUnits="userSpaceOnUse"><stop stop-color="#B4948D"/><stop offset="1" stop-color="#B4948D" stop-opacity="0"/></linearGradient><linearGradient id="person-wearing-turban-medium-dark_svg__I" x1="28.028" x2="25.773" y1="16.925" y2="20.992" gradientUnits="userSpaceOnUse"><stop stop-color="#9C7B71"/><stop offset="1" stop-color="#815758"/></linearGradient><linearGradient id="person-wearing-turban-medium-dark_svg__M" x1="5.068" x2="7.793" y1="18.241" y2="18.003" gradientUnits="userSpaceOnUse"><stop stop-color="#6A4544"/><stop offset="1" stop-color="#623549"/></linearGradient><linearGradient id="person-wearing-turban-medium-dark_svg__R" x1="26.122" x2="26.122" y1="16.212" y2="19.769" gradientUnits="userSpaceOnUse"><stop stop-color="#825D56"/><stop offset="1" stop-color="#7D5449"/></linearGradient><linearGradient id="person-wearing-turban-medium-dark_svg__ae" x1="26.402" x2="15.652" y1="13.549" y2="13.549" gradientUnits="userSpaceOnUse"><stop stop-color="#EEE8F4"/><stop offset="1" stop-color="#DDD6E4"/></linearGradient><linearGradient id="person-wearing-turban-medium-dark_svg__as" x1="4.599" x2="8.777" y1="9.517" y2="8.548" gradientUnits="userSpaceOnUse"><stop stop-color="#B6B0BB"/><stop offset="1" stop-color="#B6B0BB" stop-opacity="0"/></linearGradient></defs></svg>