<svg xmlns="http://www.w3.org/2000/svg" fill="none" viewBox="0 0 32 32"><path fill="#886761" d="m8.3 15.657 1.422-1.034 1.333 1.833-1.422 1.033Z"/><path fill="url(#person-taking-bath-medium_svg__a)" d="M9.895 10.877a1.26 1.26 0 0 1-.648-.122l-.145.173 1.083.909c.305-.097.532-.41.408-.663-.106-.217-.364-.337-.698-.297"/><path fill="url(#person-taking-bath-medium_svg__b)" d="M9.895 10.877a1.26 1.26 0 0 1-.648-.122l-.145.173 1.083.909c.305-.097.532-.41.408-.663-.106-.217-.364-.337-.698-.297"/><g filter="url(#person-taking-bath-medium_svg__c)"><path fill="url(#person-taking-bath-medium_svg__d)" d="M8.787 10.314c-.802-.61-1.383-.672-1.59-.646L4.182 13.26l2.993 2.614c2.742.88 4.965-1.592 4.545-2.592s-2.006-2.262-2.934-2.968"/><path fill="url(#person-taking-bath-medium_svg__e)" d="M8.787 10.314c-.802-.61-1.383-.672-1.59-.646L4.182 13.26l2.993 2.614c2.742.88 4.965-1.592 4.545-2.592s-2.006-2.262-2.934-2.968"/><path fill="url(#person-taking-bath-medium_svg__f)" d="M8.787 10.314c-.802-.61-1.383-.672-1.59-.646L4.182 13.26l2.993 2.614c2.742.88 4.965-1.592 4.545-2.592s-2.006-2.262-2.934-2.968"/><path fill="url(#person-taking-bath-medium_svg__g)" d="M8.787 10.314c-.802-.61-1.383-.672-1.59-.646L4.182 13.26l2.993 2.614c2.742.88 4.965-1.592 4.545-2.592s-2.006-2.262-2.934-2.968"/></g><g filter="url(#person-taking-bath-medium_svg__h)"><path fill="url(#person-taking-bath-medium_svg__i)" d="M6.401 8.56c-.66-.165-1.14.2-1.35.48-.65.865-.458 1.217-1.24 1.836-.826.654-1.106 1.083-1.236 1.55l-.003.01c-.128.46-.394 1.412 1.018 2.597 1.3 1.091 2.376 1.203 2.81 1.185l-.022.058c-.106.29.054.58.344.687.248.091.56-.058.766-.401.236-.393.402-.686.53-.92a.31.31 0 0 0-.074-.388l-1.07-.899c-.451-.378-.454-.922-.416-1.13-.454-.406-.548-.729-.465-1.056.137-.543.33-.585 1.048-1.555.723-.976.187-1.848-.64-2.054"/><path fill="url(#person-taking-bath-medium_svg__j)" d="M6.401 8.56c-.66-.165-1.14.2-1.35.48-.65.865-.458 1.217-1.24 1.836-.826.654-1.106 1.083-1.236 1.55l-.003.01c-.128.46-.394 1.412 1.018 2.597 1.3 1.091 2.376 1.203 2.81 1.185l-.022.058c-.106.29.054.58.344.687.248.091.56-.058.766-.401.236-.393.402-.686.53-.92a.31.31 0 0 0-.074-.388l-1.07-.899c-.451-.378-.454-.922-.416-1.13-.454-.406-.548-.729-.465-1.056.137-.543.33-.585 1.048-1.555.723-.976.187-1.848-.64-2.054"/><path fill="url(#person-taking-bath-medium_svg__k)" d="M6.401 8.56c-.66-.165-1.14.2-1.35.48-.65.865-.458 1.217-1.24 1.836-.826.654-1.106 1.083-1.236 1.55l-.003.01c-.128.46-.394 1.412 1.018 2.597 1.3 1.091 2.376 1.203 2.81 1.185l-.022.058c-.106.29.054.58.344.687.248.091.56-.058.766-.401.236-.393.402-.686.53-.92a.31.31 0 0 0-.074-.388l-1.07-.899c-.451-.378-.454-.922-.416-1.13-.454-.406-.548-.729-.465-1.056.137-.543.33-.585 1.048-1.555.723-.976.187-1.848-.64-2.054"/></g><path fill="url(#person-taking-bath-medium_svg__l)" d="m7.949 14.154-1.546-.97a.913.913 0 0 0 1.546.97"/><path fill="url(#person-taking-bath-medium_svg__m)" d="m7.949 14.154-1.546-.97a.913.913 0 0 0 1.546.97"/><path fill="url(#person-taking-bath-medium_svg__n)" d="m7.949 14.154-1.546-.97a.913.913 0 0 0 1.546.97"/><path fill="#86004C" fill-rule="evenodd" d="M9.612 13.059c.008.086.085.149.171.14.417-.04.753-.323.852-.42a.157.157 0 0 0-.219-.225c-.085.083-.355.303-.663.333a.157.157 0 0 0-.141.172" clip-rule="evenodd"/><g filter="url(#person-taking-bath-medium_svg__o)"><path fill="#403235" fill-rule="evenodd" d="M7.734 11.101a1 1 0 0 1 .16-.22.188.188 0 1 0-.256-.277 1.3 1.3 0 0 0-.234.317c-.078.143-.15.328-.163.532a.188.188 0 0 0 .376.023.9.9 0 0 1 .117-.375" clip-rule="evenodd"/></g><path fill="#fff" d="m9.142 11.442-.798.951c-.377-.316-.504-.785-.284-1.048.22-.262.705-.219 1.082.097"/><path fill="url(#person-taking-bath-medium_svg__p)" d="m8.653 12.024-.004-.003c-.308-.258-.447-.6-.31-.763.136-.163.497-.085.805.173l.004.003z"/><path fill="url(#person-taking-bath-medium_svg__q)" d="M8.81 11.837a1 1 0 0 1-.072-.055c-.179-.15-.26-.347-.181-.44.078-.094.286-.048.465.102q.036.03.066.062z"/><path fill="url(#person-taking-bath-medium_svg__r)" d="M-.081 0a.081.11 0 1 0 .162 0 .081.11 0 1 0-.162 0" transform="scale(-1 1)rotate(74.61 -11.764 -.022)"/><g filter="url(#person-taking-bath-medium_svg__s)"><path fill="url(#person-taking-bath-medium_svg__t)" d="M4.548 13.257a16 16 0 0 0 1.24 1.495 3.64 3.64 0 0 1-2.55-.618c-.52-.354-.264-1.165.335-1.357.432-.14.707.114.975.48"/></g><g filter="url(#person-taking-bath-medium_svg__u)"><path fill="url(#person-taking-bath-medium_svg__v)" d="M18.501 13.578a2.288 2.288 0 0 1 4.216-.309l1.812 3.6h-7.117z"/><path fill="url(#person-taking-bath-medium_svg__w)" d="M18.501 13.578a2.288 2.288 0 0 1 4.216-.309l1.812 3.6h-7.117z"/></g><g filter="url(#person-taking-bath-medium_svg__x)"><path fill="#ADADAD" d="M24.952 6.182v10.937h1.6V6.182a4.312 4.312 0 1 0-8.625 0v1.03h1.6v-1.03a2.713 2.713 0 0 1 5.425 0"/><path fill="url(#person-taking-bath-medium_svg__y)" d="M24.952 6.182v10.937h1.6V6.182a4.312 4.312 0 1 0-8.625 0v1.03h1.6v-1.03a2.713 2.713 0 0 1 5.425 0"/></g><g filter="url(#person-taking-bath-medium_svg__z)"><path fill="#4BD1F1" d="M14.396 19.432a3.22 3.22 0 0 0 2.705-1.475 2.5 2.5 0 0 0 1.658.615c.66 0 1.256-.245 1.687-.64.51.615 1.401 1.023 2.415 1.023 1.585 0 2.87-.998 2.87-2.23 0-1.051-1.285-2.23-2.87-2.23-.79 0-1.504.247-2.023.647a.107.107 0 0 1-.15-.019c-.432-.546-1.135-.902-1.929-.902-.53 0-1.021.159-1.417.428a.107.107 0 0 1-.152-.035 3.219 3.219 0 1 0-2.794 4.818"/><path fill="url(#person-taking-bath-medium_svg__A)" d="M14.396 19.432a3.22 3.22 0 0 0 2.705-1.475 2.5 2.5 0 0 0 1.658.615c.66 0 1.256-.245 1.687-.64.51.615 1.401 1.023 2.415 1.023 1.585 0 2.87-.998 2.87-2.23 0-1.051-1.285-2.23-2.87-2.23-.79 0-1.504.247-2.023.647a.107.107 0 0 1-.15-.019c-.432-.546-1.135-.902-1.929-.902-.53 0-1.021.159-1.417.428a.107.107 0 0 1-.152-.035 3.219 3.219 0 1 0-2.794 4.818"/><path fill="url(#person-taking-bath-medium_svg__B)" d="M14.396 19.432a3.22 3.22 0 0 0 2.705-1.475 2.5 2.5 0 0 0 1.658.615c.66 0 1.256-.245 1.687-.64.51.615 1.401 1.023 2.415 1.023 1.585 0 2.87-.998 2.87-2.23 0-1.051-1.285-2.23-2.87-2.23-.79 0-1.504.247-2.023.647a.107.107 0 0 1-.15-.019c-.432-.546-1.135-.902-1.929-.902-.53 0-1.021.159-1.417.428a.107.107 0 0 1-.152-.035 3.219 3.219 0 1 0-2.794 4.818"/></g><g filter="url(#person-taking-bath-medium_svg__C)"><path fill="url(#person-taking-bath-medium_svg__D)" d="M16.56 16.73a2.291 2.291 0 1 0 4.582 0 2.291 2.291 0 1 0-4.582 0"/><path fill="url(#person-taking-bath-medium_svg__E)" d="M16.56 16.73a2.291 2.291 0 1 0 4.582 0 2.291 2.291 0 1 0-4.582 0"/></g><g filter="url(#person-taking-bath-medium_svg__F)"><path fill="url(#person-taking-bath-medium_svg__G)" fill-rule="evenodd" d="M17.128 15.157c-.476.39-.798.967-.846 1.628-.031.414.049.811.214 1.161a2.742 2.742 0 1 1 .631-2.789" clip-rule="evenodd"/></g><path fill="url(#person-taking-bath-medium_svg__H)" d="M.804 0s.804 0 .804.804v3.524s0 .804-.804.804S0 5.132 0 4.328V.804S0 0 .804 0" transform="scale(-1 1)rotate(45 -41.287 -13.074)"/><path fill="url(#person-taking-bath-medium_svg__I)" d="M.804 0s.804 0 .804.804v3.524s0 .804-.804.804S0 5.132 0 4.328V.804S0 0 .804 0" transform="scale(-1 1)rotate(45 -41.287 -13.074)"/><path fill="url(#person-taking-bath-medium_svg__J)" d="M.804 0s.804 0 .804.804v3.524s0 .804-.804.804S0 5.132 0 4.328V.804S0 0 .804 0" transform="scale(-1 1)rotate(45 -41.287 -13.074)"/><path fill="#735F86" d="M12.35 25.933s.57.569 0 1.137L9.86 29.562s-.569.569-1.137 0-.569-.568 0-1.137l2.492-2.492s.568-.568 1.137 0"/><path fill="url(#person-taking-bath-medium_svg__K)" d="M12.586 25.365s.804 0 .804.804v3.524s0 .804-.804.804-.804 0-.804-.804v-3.524s0-.804.804-.804" transform="rotate(45 11.782 25.365)"/><path fill="url(#person-taking-bath-medium_svg__L)" d="M12.586 25.365s.804 0 .804.804v3.524s0 .804-.804.804-.804 0-.804-.804v-3.524s0-.804.804-.804" transform="rotate(45 11.782 25.365)"/><g filter="url(#person-taking-bath-medium_svg__M)"><path fill="url(#person-taking-bath-medium_svg__N)" d="m5.227 22.376-1.456-4.57h25.578l-1.477 4.59a7.8 7.8 0 0 1-7.425 5.41h-7.788a7.8 7.8 0 0 1-7.432-5.43"/></g><path fill="url(#person-taking-bath-medium_svg__O)" d="m5.227 22.376-1.456-4.57h25.578l-1.477 4.59a7.8 7.8 0 0 1-7.425 5.41h-7.788a7.8 7.8 0 0 1-7.432-5.43"/><path fill="url(#person-taking-bath-medium_svg__P)" d="m5.227 22.376-1.456-4.57h25.578l-1.477 4.59a7.8 7.8 0 0 1-7.425 5.41h-7.788a7.8 7.8 0 0 1-7.432-5.43"/><g filter="url(#person-taking-bath-medium_svg__Q)"><path fill="url(#person-taking-bath-medium_svg__R)" d="M3.785 15.908h25.597s1.123 0 1.123 1.123 0 1.123-1.123 1.123H3.785s-1.123 0-1.123-1.123 0-1.123 1.123-1.123"/><path fill="url(#person-taking-bath-medium_svg__S)" d="M3.785 15.908h25.597s1.123 0 1.123 1.123 0 1.123-1.123 1.123H3.785s-1.123 0-1.123-1.123 0-1.123 1.123-1.123"/></g><path fill="url(#person-taking-bath-medium_svg__T)" d="M3.785 15.908h25.597s1.123 0 1.123 1.123 0 1.123-1.123 1.123H3.785s-1.123 0-1.123-1.123 0-1.123 1.123-1.123"/><g filter="url(#person-taking-bath-medium_svg__U)"><path stroke="url(#person-taking-bath-medium_svg__V)" stroke-width=".75" d="M22.302 2.666c1.219-.052 3.656.94 3.656 3.766v9.375"/></g><g filter="url(#person-taking-bath-medium_svg__W)"><path stroke="url(#person-taking-bath-medium_svg__X)" stroke-width=".75" d="M20.226 3.385c-.458.406-1.375 1.612-1.375 3.187"/></g><path fill="url(#person-taking-bath-medium_svg__Y)" d="M21.091 8.611c.28 0 .509-.23.456-.504-.249-1.307-1.37-2.293-2.714-2.293S16.37 6.8 16.12 8.107c-.052.274.177.504.457.504z"/><path fill="url(#person-taking-bath-medium_svg__Z)" d="M21.091 8.611c.28 0 .509-.23.456-.504-.249-1.307-1.37-2.293-2.714-2.293S16.37 6.8 16.12 8.107c-.052.274.177.504.457.504z"/><defs><radialGradient id="person-taking-bath-medium_svg__a" cx="0" cy="0" r="1" gradientTransform="rotate(101.587 .81 9.778)scale(.68058 .96065)" gradientUnits="userSpaceOnUse"><stop offset=".101" stop-color="#BF9580"/><stop offset=".684" stop-color="#AD7F6D"/></radialGradient><radialGradient id="person-taking-bath-medium_svg__b" cx="0" cy="0" r="1" gradientTransform="rotate(-117.617 8.775 2.61)scale(.39601 .59431)" gradientUnits="userSpaceOnUse"><stop stop-color="#A66D75"/><stop offset="1" stop-color="#A66D75" stop-opacity="0"/></radialGradient><radialGradient id="person-taking-bath-medium_svg__e" cx="0" cy="0" r="1" gradientTransform="rotate(-53.18 17.35 .043)scale(1.06144 1.29411)" gradientUnits="userSpaceOnUse"><stop offset=".156" stop-color="#916051"/><stop offset="1" stop-color="#9C6E67" stop-opacity="0"/></radialGradient><radialGradient id="person-taking-bath-medium_svg__f" cx="0" cy="0" r="1" gradientTransform="rotate(-140 7.397 4.146)scale(6.51586 2.53177)" gradientUnits="userSpaceOnUse"><stop offset=".219" stop-color="#C19382"/><stop offset="1" stop-color="#BD927E" stop-opacity="0"/></radialGradient><radialGradient id="person-taking-bath-medium_svg__g" cx="0" cy="0" r="1" gradientTransform="matrix(.37586 .31539 -.49185 .58616 8.633 11.953)" gradientUnits="userSpaceOnUse"><stop offset=".155" stop-color="#A67D65"/><stop offset="1" stop-color="#A67D65" stop-opacity="0"/></radialGradient><radialGradient id="person-taking-bath-medium_svg__i" cx="0" cy="0" r="1" gradientTransform="rotate(168.984 2.747 6.482)scale(3.88925 5.91237)" gradientUnits="userSpaceOnUse"><stop offset=".194" stop-color="#503339"/><stop offset="1" stop-color="#583E3B"/></radialGradient><radialGradient id="person-taking-bath-medium_svg__j" cx="0" cy="0" r="1" gradientTransform="rotate(166.088 2.984 4.89)scale(1.86588 3.00185)" gradientUnits="userSpaceOnUse"><stop stop-color="#68514D"/><stop offset="1" stop-color="#68514D" stop-opacity="0"/></radialGradient><radialGradient id="person-taking-bath-medium_svg__k" cx="0" cy="0" r="1" gradientTransform="rotate(-34.168 29.652 -2.23)scale(.6834 .33578)" gradientUnits="userSpaceOnUse"><stop offset=".197" stop-color="#5F4745"/><stop offset="1" stop-color="#5F4745" stop-opacity="0"/></radialGradient><radialGradient id="person-taking-bath-medium_svg__l" cx="0" cy="0" r="1" gradientTransform="rotate(146.189 1.427 7.86)scale(.9503 .46382)" gradientUnits="userSpaceOnUse"><stop offset=".17" stop-color="#BA9682"/><stop offset="1" stop-color="#AD8570"/></radialGradient><radialGradient id="person-taking-bath-medium_svg__m" cx="0" cy="0" r="1" gradientTransform="rotate(50.843 -10.742 13.71)scale(1.50878 1.57221)" gradientUnits="userSpaceOnUse"><stop offset=".556" stop-color="#9E6563" stop-opacity="0"/><stop offset="1" stop-color="#9E6563"/></radialGradient><radialGradient id="person-taking-bath-medium_svg__p" cx="0" cy="0" r="1" gradientTransform="matrix(-.22077 .2631 -.51117 -.42892 8.897 11.691)" gradientUnits="userSpaceOnUse"><stop offset=".895" stop-color="#916A62"/><stop offset="1" stop-color="#824D44"/></radialGradient><radialGradient id="person-taking-bath-medium_svg__q" cx="0" cy="0" r="1" gradientTransform="rotate(130 1.834 7.885)scale(.31402 .67955)" gradientUnits="userSpaceOnUse"><stop stop-color="#666361"/><stop offset=".813" stop-color="#565352"/></radialGradient><radialGradient id="person-taking-bath-medium_svg__v" cx="0" cy="0" r="1" gradientTransform="matrix(0 -2.09375 .5802 0 20.802 15.15)" gradientUnits="userSpaceOnUse"><stop offset=".41" stop-color="#956D71"/><stop offset="1" stop-color="#A07F6C"/></radialGradient><radialGradient id="person-taking-bath-medium_svg__w" cx="0" cy="0" r="1" gradientTransform="matrix(-1.49998 -3.09376 1.67378 -.81152 23.52 14.713)" gradientUnits="userSpaceOnUse"><stop stop-color="#BD9B86"/><stop offset="1" stop-color="#8E706A" stop-opacity="0"/><stop offset="1" stop-color="#BD9B86" stop-opacity="0"/></radialGradient><radialGradient id="person-taking-bath-medium_svg__y" cx="0" cy="0" r="1" gradientTransform="rotate(-45.372 16.754 -19.196)scale(6.80605 3.84932)" gradientUnits="userSpaceOnUse"><stop stop-color="#A09FA0"/><stop offset="1" stop-color="#A09FA0" stop-opacity="0"/></radialGradient><radialGradient id="person-taking-bath-medium_svg__A" cx="0" cy="0" r="1" gradientTransform="rotate(-150.994 14.7 4.713)scale(3.60894 4.34333)" gradientUnits="userSpaceOnUse"><stop stop-color="#66EBFF"/><stop offset="1" stop-color="#66EBFF" stop-opacity="0"/></radialGradient><radialGradient id="person-taking-bath-medium_svg__B" cx="0" cy="0" r="1" gradientTransform="matrix(1.0625 2.625 -1.48498 .60106 19.49 13.838)" gradientUnits="userSpaceOnUse"><stop stop-color="#6AF0FF"/><stop offset="1" stop-color="#6AF0FF" stop-opacity="0"/></radialGradient><radialGradient id="person-taking-bath-medium_svg__D" cx="0" cy="0" r="1" gradientTransform="matrix(-1.90038 -2.5625 2.1013 -1.55835 20.751 15.874)" gradientUnits="userSpaceOnUse"><stop stop-color="#6EF3FF"/><stop offset="1" stop-color="#6EF3FF" stop-opacity="0"/></radialGradient><radialGradient id="person-taking-bath-medium_svg__E" cx="0" cy="0" r="1" gradientTransform="matrix(1.3125 -2.34375 2.00586 1.12328 16.845 16.405)" gradientUnits="userSpaceOnUse"><stop stop-color="#3DC6EB"/><stop offset="1" stop-color="#3DC6EB" stop-opacity="0"/></radialGradient><radialGradient id="person-taking-bath-medium_svg__G" cx="0" cy="0" r="1" gradientTransform="rotate(-138.668 11.43 4.377)scale(4.20282 3.66642)" gradientUnits="userSpaceOnUse"><stop stop-color="#6BF3FF"/><stop offset="1" stop-color="#6BF3FF" stop-opacity="0"/></radialGradient><radialGradient id="person-taking-bath-medium_svg__I" cx="0" cy="0" r="1" gradientTransform="rotate(79.16 -.565 1.44)scale(1.58615 1.72717)" gradientUnits="userSpaceOnUse"><stop stop-color="#7A6A8B"/><stop offset="1" stop-color="#7A6A8B" stop-opacity="0"/></radialGradient><radialGradient id="person-taking-bath-medium_svg__J" cx="0" cy="0" r="1" gradientTransform="rotate(-89.442 2.4 1.929)scale(1.40065 .72809)" gradientUnits="userSpaceOnUse"><stop stop-color="#BEBAC2"/><stop offset="1" stop-color="#968DA0" stop-opacity="0"/></radialGradient><radialGradient id="person-taking-bath-medium_svg__L" cx="0" cy="0" r="1" gradientTransform="rotate(-47.663 40.378 1.5)scale(.6726 1.0441)" gradientUnits="userSpaceOnUse"><stop stop-color="#88828E"/><stop offset="1" stop-color="#88828E" stop-opacity="0"/></radialGradient><radialGradient id="person-taking-bath-medium_svg__N" cx="0" cy="0" r="1" gradientTransform="matrix(-15.56247 -.06247 .03888 -9.68481 25.99 22.307)" gradientUnits="userSpaceOnUse"><stop stop-color="#E1DAEA"/><stop offset="1" stop-color="#C7BDD3"/></radialGradient><radialGradient id="person-taking-bath-medium_svg__O" cx="0" cy="0" r="1" gradientTransform="matrix(0 8.625 -39.1562 0 17.115 19.37)" gradientUnits="userSpaceOnUse"><stop offset=".572" stop-color="#BBA9CD" stop-opacity="0"/><stop offset="1" stop-color="#A887C7"/></radialGradient><radialGradient id="person-taking-bath-medium_svg__R" cx="0" cy="0" r="1" gradientTransform="matrix(0 1.25 -15.4957 0 25.24 16.65)" gradientUnits="userSpaceOnUse"><stop stop-color="#FEFCFF"/><stop offset="1" stop-color="#D5D3D8"/></radialGradient><radialGradient id="person-taking-bath-medium_svg__V" cx="0" cy="0" r="1" gradientTransform="matrix(-6.71874 10.18756 -7.15636 -4.71965 28.77 3.62)" gradientUnits="userSpaceOnUse"><stop offset=".008" stop-color="#C1C1C2"/><stop offset="1" stop-color="#C1C1C2" stop-opacity="0"/></radialGradient><radialGradient id="person-taking-bath-medium_svg__X" cx="0" cy="0" r="1" gradientTransform="matrix(1.5 -3.53125 2.69792 1.14602 19.538 6.572)" gradientUnits="userSpaceOnUse"><stop offset=".008" stop-color="#C1C1C2"/><stop offset="1" stop-color="#C1C1C2" stop-opacity="0"/></radialGradient><radialGradient id="person-taking-bath-medium_svg__Y" cx="0" cy="0" r="1" gradientTransform="matrix(-4.53418 0 0 -3.55867 20.646 8.611)" gradientUnits="userSpaceOnUse"><stop offset=".145" stop-color="#C1C1C2"/><stop offset=".717" stop-color="#929192"/></radialGradient><filter id="person-taking-bath-medium_svg__c" width="7.789" height="6.596" x="4.183" y="9.463" color-interpolation-filters="sRGB" filterUnits="userSpaceOnUse"><feFlood flood-opacity="0" result="BackgroundImageFix"/><feBlend in="SourceGraphic" in2="BackgroundImageFix" result="shape"/><feColorMatrix in="SourceAlpha" result="hardAlpha" values="0 0 0 0 0 0 0 0 0 0 0 0 0 0 0 0 0 0 127 0"/><feOffset dx=".2" dy="-.2"/><feGaussianBlur stdDeviation=".5"/><feComposite in2="hardAlpha" k2="-1" k3="1" operator="arithmetic"/><feColorMatrix values="0 0 0 0 0.603922 0 0 0 0 0.403922 0 0 0 0 0.466667 0 0 0 1 0"/><feBlend in2="shape" result="effect1_innerShadow_3987_24058"/></filter><filter id="person-taking-bath-medium_svg__h" width="5.592" height="8.621" x="2.465" y="8.368" color-interpolation-filters="sRGB" filterUnits="userSpaceOnUse"><feFlood flood-opacity="0" result="BackgroundImageFix"/><feBlend in="SourceGraphic" in2="BackgroundImageFix" result="shape"/><feColorMatrix in="SourceAlpha" result="hardAlpha" values="0 0 0 0 0 0 0 0 0 0 0 0 0 0 0 0 0 0 127 0"/><feOffset dy="-.15"/><feGaussianBlur stdDeviation=".15"/><feComposite in2="hardAlpha" k2="-1" k3="1" operator="arithmetic"/><feColorMatrix values="0 0 0 0 0.254902 0 0 0 0 0.14902 0 0 0 0 0.168627 0 0 0 1 0"/><feBlend in2="shape" result="effect1_innerShadow_3987_24058"/></filter><filter id="person-taking-bath-medium_svg__o" width=".814" height="1.199" x="7.14" y="10.554" color-interpolation-filters="sRGB" filterUnits="userSpaceOnUse"><feFlood flood-opacity="0" result="BackgroundImageFix"/><feBlend in="SourceGraphic" in2="BackgroundImageFix" result="shape"/><feColorMatrix in="SourceAlpha" result="hardAlpha" values="0 0 0 0 0 0 0 0 0 0 0 0 0 0 0 0 0 0 127 0"/><feOffset dx="-.1" dy=".1"/><feGaussianBlur stdDeviation=".1"/><feComposite in2="hardAlpha" k2="-1" k3="1" operator="arithmetic"/><feColorMatrix values="0 0 0 0 0.219608 0 0 0 0 0.168627 0 0 0 0 0.180392 0 0 0 1 0"/><feBlend in2="shape" result="effect1_innerShadow_3987_24058"/></filter><filter id="person-taking-bath-medium_svg__s" width="3.831" height="3.046" x="2.457" y="12.238" color-interpolation-filters="sRGB" filterUnits="userSpaceOnUse"><feFlood flood-opacity="0" result="BackgroundImageFix"/><feBlend in="SourceGraphic" in2="BackgroundImageFix" result="shape"/><feGaussianBlur result="effect1_foregroundBlur_3987_24058" stdDeviation=".25"/></filter><filter id="person-taking-bath-medium_svg__u" width="7.367" height="4.959" x="17.412" y="12.01" color-interpolation-filters="sRGB" filterUnits="userSpaceOnUse"><feFlood flood-opacity="0" result="BackgroundImageFix"/><feBlend in="SourceGraphic" in2="BackgroundImageFix" result="shape"/><feColorMatrix in="SourceAlpha" result="hardAlpha" values="0 0 0 0 0 0 0 0 0 0 0 0 0 0 0 0 0 0 127 0"/><feOffset dx=".25" dy=".1"/><feGaussianBlur stdDeviation=".4"/><feComposite in2="hardAlpha" k2="-1" k3="1" operator="arithmetic"/><feColorMatrix values="0 0 0 0 0.584314 0 0 0 0 0.494118 0 0 0 0 0.435294 0 0 0 1 0"/><feBlend in2="shape" result="effect1_innerShadow_3987_24058"/></filter><filter id="person-taking-bath-medium_svg__x" width="9.125" height="15.5" x="17.927" y="1.619" color-interpolation-filters="sRGB" filterUnits="userSpaceOnUse"><feFlood flood-opacity="0" result="BackgroundImageFix"/><feBlend in="SourceGraphic" in2="BackgroundImageFix" result="shape"/><feColorMatrix in="SourceAlpha" result="hardAlpha" values="0 0 0 0 0 0 0 0 0 0 0 0 0 0 0 0 0 0 127 0"/><feOffset dx=".5" dy="-.25"/><feGaussianBlur stdDeviation=".375"/><feComposite in2="hardAlpha" k2="-1" k3="1" operator="arithmetic"/><feColorMatrix values="0 0 0 0 0.509804 0 0 0 0 0.501961 0 0 0 0 0.498039 0 0 0 1 0"/><feBlend in2="shape" result="effect1_innerShadow_3987_24058"/></filter><filter id="person-taking-bath-medium_svg__z" width="14.805" height="6.438" x="11.177" y="12.994" color-interpolation-filters="sRGB" filterUnits="userSpaceOnUse"><feFlood flood-opacity="0" result="BackgroundImageFix"/><feBlend in="SourceGraphic" in2="BackgroundImageFix" result="shape"/><feColorMatrix in="SourceAlpha" result="hardAlpha" values="0 0 0 0 0 0 0 0 0 0 0 0 0 0 0 0 0 0 127 0"/><feOffset dx=".25"/><feGaussianBlur stdDeviation=".5"/><feComposite in2="hardAlpha" k2="-1" k3="1" operator="arithmetic"/><feColorMatrix values="0 0 0 0 0.415686 0 0 0 0 0.678431 0 0 0 0 0.74902 0 0 0 1 0"/><feBlend in2="shape" result="effect1_innerShadow_3987_24058"/></filter><filter id="person-taking-bath-medium_svg__C" width="5.582" height="5.582" x="16.06" y="13.94" color-interpolation-filters="sRGB" filterUnits="userSpaceOnUse"><feFlood flood-opacity="0" result="BackgroundImageFix"/><feBlend in="SourceGraphic" in2="BackgroundImageFix" result="shape"/><feGaussianBlur result="effect1_foregroundBlur_3987_24058" stdDeviation=".25"/></filter><filter id="person-taking-bath-medium_svg__F" width="6.341" height="6.485" x="11.286" y="12.793" color-interpolation-filters="sRGB" filterUnits="userSpaceOnUse"><feFlood flood-opacity="0" result="BackgroundImageFix"/><feBlend in="SourceGraphic" in2="BackgroundImageFix" result="shape"/><feGaussianBlur result="effect1_foregroundBlur_3987_24058" stdDeviation=".25"/></filter><filter id="person-taking-bath-medium_svg__M" width="28.578" height="11" x="3.771" y="16.807" color-interpolation-filters="sRGB" filterUnits="userSpaceOnUse"><feFlood flood-opacity="0" result="BackgroundImageFix"/><feBlend in="SourceGraphic" in2="BackgroundImageFix" result="shape"/><feColorMatrix in="SourceAlpha" result="hardAlpha" values="0 0 0 0 0 0 0 0 0 0 0 0 0 0 0 0 0 0 127 0"/><feOffset dx="3" dy="-1"/><feGaussianBlur stdDeviation="2"/><feComposite in2="hardAlpha" k2="-1" k3="1" operator="arithmetic"/><feColorMatrix values="0 0 0 0 0.678431 0 0 0 0 0.654902 0 0 0 0 0.709804 0 0 0 1 0"/><feBlend in2="shape" result="effect1_innerShadow_3987_24058"/></filter><filter id="person-taking-bath-medium_svg__Q" width="28.344" height="2.496" x="2.662" y="15.658" color-interpolation-filters="sRGB" filterUnits="userSpaceOnUse"><feFlood flood-opacity="0" result="BackgroundImageFix"/><feBlend in="SourceGraphic" in2="BackgroundImageFix" result="shape"/><feColorMatrix in="SourceAlpha" result="hardAlpha" values="0 0 0 0 0 0 0 0 0 0 0 0 0 0 0 0 0 0 127 0"/><feOffset dx=".5" dy="-.25"/><feGaussianBlur stdDeviation=".5"/><feComposite in2="hardAlpha" k2="-1" k3="1" operator="arithmetic"/><feColorMatrix values="0 0 0 0 0.705882 0 0 0 0 0.698039 0 0 0 0 0.705882 0 0 0 1 0"/><feBlend in2="shape" result="effect1_innerShadow_3987_24058"/></filter><filter id="person-taking-bath-medium_svg__U" width="5.047" height="14.518" x="21.786" y="1.789" color-interpolation-filters="sRGB" filterUnits="userSpaceOnUse"><feFlood flood-opacity="0" result="BackgroundImageFix"/><feBlend in="SourceGraphic" in2="BackgroundImageFix" result="shape"/><feGaussianBlur result="effect1_foregroundBlur_3987_24058" stdDeviation=".25"/></filter><filter id="person-taking-bath-medium_svg__W" width="2.999" height="4.468" x="17.976" y="2.604" color-interpolation-filters="sRGB" filterUnits="userSpaceOnUse"><feFlood flood-opacity="0" result="BackgroundImageFix"/><feBlend in="SourceGraphic" in2="BackgroundImageFix" result="shape"/><feGaussianBlur result="effect1_foregroundBlur_3987_24058" stdDeviation=".25"/></filter><linearGradient id="person-taking-bath-medium_svg__d" x1="7.884" x2="10.361" y1="14.204" y2="11.589" gradientUnits="userSpaceOnUse"><stop stop-color="#A87A72"/><stop offset="1" stop-color="#AB826C"/></linearGradient><linearGradient id="person-taking-bath-medium_svg__n" x1="7.096" x2="6.988" y1="13.598" y2="13.75" gradientUnits="userSpaceOnUse"><stop stop-color="#A17363"/><stop offset="1" stop-color="#A17363" stop-opacity="0"/></linearGradient><linearGradient id="person-taking-bath-medium_svg__r" x1="-.009" x2=".225" y1=".062" y2=".139" gradientUnits="userSpaceOnUse"><stop stop-color="#fff"/><stop offset="1" stop-color="#fff" stop-opacity="0"/></linearGradient><linearGradient id="person-taking-bath-medium_svg__t" x1="5.335" x2="2.186" y1="14.574" y2="12.661" gradientUnits="userSpaceOnUse"><stop offset=".421" stop-color="#644A48"/><stop offset="1" stop-color="#644A48" stop-opacity="0"/></linearGradient><linearGradient id="person-taking-bath-medium_svg__H" x1="1.641" x2="-.116" y1="2.961" y2="3.171" gradientUnits="userSpaceOnUse"><stop stop-color="#887A96"/><stop offset="1" stop-color="#A9A6AC"/></linearGradient><linearGradient id="person-taking-bath-medium_svg__K" x1="11.468" x2="13.015" y1="28.867" y2="28.624" gradientUnits="userSpaceOnUse"><stop stop-color="#807D83"/><stop offset="1" stop-color="#807D83" stop-opacity="0"/></linearGradient><linearGradient id="person-taking-bath-medium_svg__P" x1="16.56" x2="16.56" y1="17.807" y2="19.213" gradientUnits="userSpaceOnUse"><stop stop-color="#A090B0"/><stop offset="1" stop-color="#BCB0C8" stop-opacity="0"/></linearGradient><linearGradient id="person-taking-bath-medium_svg__S" x1="2.865" x2="12.115" y1="17.244" y2="17.244" gradientUnits="userSpaceOnUse"><stop stop-color="#BCB9BF"/><stop offset="1" stop-color="#BCB9BF" stop-opacity="0"/></linearGradient><linearGradient id="person-taking-bath-medium_svg__T" x1="17.927" x2="17.927" y1="18.154" y2="17.619" gradientUnits="userSpaceOnUse"><stop stop-color="#B1A1C2"/><stop offset="1" stop-color="#BBB2C3" stop-opacity="0"/></linearGradient><linearGradient id="person-taking-bath-medium_svg__Z" x1="19.412" x2="19.412" y1="8.611" y2="8.104" gradientUnits="userSpaceOnUse"><stop stop-color="#807F86"/><stop offset="1" stop-color="#8F9198" stop-opacity="0"/></linearGradient></defs></svg>