<svg xmlns="http://www.w3.org/2000/svg" fill="none" viewBox="0 0 32 32"><g filter="url(#person-swimming_svg__a)"><path fill="url(#person-swimming_svg__b)" d="M3.922 13.098c-.975 0-1.656.49-1.875.734v9.027h27.906v-8.87l-.003-.004c-.623-.545-1.015-.887-2.2-.887-.906 0-1.67.67-2.05 1.003-.261.224-.94.637-1.864.637s-1.469-.406-2.07-.906c-.27-.224-.952-.734-1.914-.734-.963 0-1.857.666-2.165 1-.244.224-.718.64-1.87.64-.794 0-1.396-.35-1.614-.562-.37-.36-1.133-1.078-2.312-1.078-.975 0-1.54.468-1.907.78-.367.313-1.006.892-2.093.892-.985 0-1.585-.5-1.915-.775l-.007-.007c-.276-.297-1.072-.89-2.047-.89"/></g><g filter="url(#person-swimming_svg__c)"><path fill="#FFE045" d="M10.642 7.996h4.828a4 4 0 0 1 3.602 2.26l6.164 12.459 4.125-.594-6.687-13.604a8 8 0 0 0-7.204-4.52h-4.43z"/></g><path fill="url(#person-swimming_svg__d)" d="M17.313 17.52c-1.688 1.15-3.224 3.25-3.782 4.156 3.25 2.162 7.927 2.172 9.86 1.906l6.53-2.266c-.765-1.304-2.036-2.52-2.53-3l-5.407-2.375c-.937 0-2.562.141-4.672 1.579"/><path fill="url(#person-swimming_svg__e)" d="M17.313 17.52c-1.688 1.15-3.224 3.25-3.782 4.156 3.25 2.162 7.927 2.172 9.86 1.906l6.53-2.266c-.765-1.304-2.036-2.52-2.53-3l-5.407-2.375c-.937 0-2.562.141-4.672 1.579"/><path fill="url(#person-swimming_svg__f)" d="M17.313 17.52c-1.688 1.15-3.224 3.25-3.782 4.156 3.25 2.162 7.927 2.172 9.86 1.906l6.53-2.266c-.765-1.304-2.036-2.52-2.53-3l-5.407-2.375c-.937 0-2.562.141-4.672 1.579"/><path fill="url(#person-swimming_svg__g)" d="m12.973 20.238-.614-.57.235-.937 2.14 1.87c-.937.266-1.493-.13-1.761-.363"/><path fill="url(#person-swimming_svg__h)" d="m19.598 13.684-.614-.668-.785.73 1.664 1.91c.375-.844.047-1.633-.265-1.972"/><circle cx="17.785" cy="12.884" r="1.296" fill="url(#person-swimming_svg__i)"/><g filter="url(#person-swimming_svg__j)"><circle cx="17.785" cy="12.884" r=".877" fill="#FFBC24"/></g><circle cx="12.201" cy="18.473" r="1.296" fill="#D18A2F"/><circle cx="12.201" cy="18.473" r=".822" fill="#CA8018"/><path fill="#C88147" d="m10.762 17.691-.84-.714.293-.555 1.137.887z"/><path fill="url(#person-swimming_svg__k)" d="m17.133 11.36-.758-.743-.844.301c.401.427 1.206 1.277 1.215 1.258z"/><g filter="url(#person-swimming_svg__l)"><path fill="url(#person-swimming_svg__m)" d="m8.984 15.775 6.11-6.101 4.26 4.74a3.15 3.15 0 0 1-.079 4.296l-1.195 1.235a3.15 3.15 0 0 1-4.39.134z"/><path fill="url(#person-swimming_svg__n)" d="m8.984 15.775 6.11-6.101 4.26 4.74a3.15 3.15 0 0 1-.079 4.296l-1.195 1.235a3.15 3.15 0 0 1-4.39.134z"/></g><g filter="url(#person-swimming_svg__o)"><path fill="url(#person-swimming_svg__p)" d="M3.922 20.16c-.975 0-1.656.49-1.875.735v9.027h27.906V21.05l-.003-.003c-.623-.545-1.015-.888-2.2-.888-.906 0-1.67.67-2.05 1.003v.001c-.261.224-.94.637-1.864.637s-1.469-.406-2.07-.906c-.27-.224-.952-.735-1.914-.735-.963 0-1.857.667-2.165 1-.244.224-.718.64-1.87.64-.794 0-1.396-.35-1.614-.562-.37-.36-1.133-1.078-2.312-1.078-.975 0-1.54.469-1.907.781s-1.006.891-2.093.891c-.985 0-1.585-.5-1.915-.775l-.007-.006c-.276-.297-1.072-.89-2.047-.89"/></g><g filter="url(#person-swimming_svg__q)"><circle cx="16.996" cy="17.652" r=".809" stroke="url(#person-swimming_svg__r)" stroke-width=".2"/></g><circle cx="16.996" cy="17.652" r=".809" fill="#89024E"/><g filter="url(#person-swimming_svg__s)"><path fill="#E69D28" d="m15.047 17.24-.821-1.635.304-.296 1.588.896a.42.42 0 0 1 .088.666l-.488.481a.42.42 0 0 1-.67-.111"/></g><g filter="url(#person-swimming_svg__t)"><path fill="#FFC92E" d="m15.22 16.974-.782-1.556.29-.281 1.51.852a.4.4 0 0 1 .084.633l-.465.457a.4.4 0 0 1-.638-.105"/></g><path fill="url(#person-swimming_svg__u)" d="M14.576 14.447h.758v1.123h-.758z" transform="rotate(45.489 14.576 14.447)"/><path fill="url(#person-swimming_svg__v)" d="M14.576 14.447h.758v1.123h-.758z" transform="rotate(45.489 14.576 14.447)"/><path fill="#695058" d="M17.065 11.205a.1.1 0 0 1 .139-.027l.439.298a.1.1 0 0 1 .027.139l-.84 1.239-.605-.41z"/><path fill="url(#person-swimming_svg__w)" d="M17.065 11.205a.1.1 0 0 1 .139-.027l.439.298a.1.1 0 0 1 .027.139l-.84 1.239-.605-.41z"/><path fill="url(#person-swimming_svg__x)" d="M17.065 11.205a.1.1 0 0 1 .139-.027l.439.298a.1.1 0 0 1 .027.139l-.84 1.239-.605-.41z"/><path fill="#5F5876" d="M10.925 18.278a.1.1 0 0 1-.138-.03l-.29-.444a.1.1 0 0 1 .03-.138l1.253-.818.4.612z"/><path fill="url(#person-swimming_svg__y)" d="M10.925 18.278a.1.1 0 0 1-.138-.03l-.29-.444a.1.1 0 0 1 .03-.138l1.253-.818.4.612z"/><path fill="url(#person-swimming_svg__z)" d="M10.925 18.278a.1.1 0 0 1-.138-.03l-.29-.444a.1.1 0 0 1 .03-.138l1.253-.818.4.612z"/><g filter="url(#person-swimming_svg__A)"><path fill="url(#person-swimming_svg__B)" d="M15.534 12.917a.821.821 0 0 1 1.147 1.175l-.487.476a.821.821 0 0 1-1.148-1.175z"/></g><path fill="#412E4C" fill-rule="evenodd" d="m16.933 14.35-.488.476a1.181 1.181 0 0 1-1.65-1.69l.487-.477a1.181 1.181 0 0 1 1.65 1.69m-.238-1.42a.82.82 0 0 0-1.162-.013l-.487.476a.821.821 0 0 0 1.148 1.175l.487-.476a.82.82 0 0 0 .014-1.161" clip-rule="evenodd"/><g filter="url(#person-swimming_svg__C)"><path stroke="#5C4C6D" stroke-width=".1" d="M16.857 12.768c-.364-.373-1-.409-1.373-.045l-.559.546c-.373.364-.34.99.024 1.362.363.373.976.431 1.348.067l.56-.546c.372-.363.364-1.012 0-1.384Z" clip-rule="evenodd"/></g><g filter="url(#person-swimming_svg__D)"><path fill="url(#person-swimming_svg__E)" d="M12.745 15.675a.821.821 0 0 1 1.147 1.175l-.487.476a.822.822 0 0 1-1.148-1.175z"/></g><path fill="#412E4C" fill-rule="evenodd" d="m14.144 17.108-.488.476a1.182 1.182 0 0 1-1.65-1.691l.487-.476a1.181 1.181 0 1 1 1.65 1.69m-.238-1.42a.82.82 0 0 0-1.162-.013l-.487.476a.821.821 0 1 0 1.148 1.175l.487-.476a.82.82 0 0 0 .014-1.162" clip-rule="evenodd"/><g filter="url(#person-swimming_svg__F)"><path stroke="url(#person-swimming_svg__G)" stroke-width=".1" d="M14.077 15.563c-.364-.373-1-.41-1.373-.046l-.56.547c-.372.363-.34.99.024 1.362s.977.43 1.35.067l.559-.546c.372-.364.363-1.012 0-1.384Z" clip-rule="evenodd"/></g><path fill="url(#person-swimming_svg__H)" d="M9.475 16.682c-1.367-1.367-1.202-3.537.236-5.17l1.21-1.203c1.556-1.414 3.79-1.595 5.156-.229l.317.318a.2.2 0 0 1 0 .283l-6.319 6.318a.2.2 0 0 1-.282 0z"/><path fill="url(#person-swimming_svg__I)" d="M9.475 16.682c-1.367-1.367-1.202-3.537.236-5.17l1.21-1.203c1.556-1.414 3.79-1.595 5.156-.229l.317.318a.2.2 0 0 1 0 .283l-6.319 6.318a.2.2 0 0 1-.282 0z"/><path fill="url(#person-swimming_svg__J)" d="M9.475 16.682c-1.367-1.367-1.202-3.537.236-5.17l1.21-1.203c1.556-1.414 3.79-1.595 5.156-.229l.317.318a.2.2 0 0 1 0 .283l-6.319 6.318a.2.2 0 0 1-.282 0z"/><path fill="url(#person-swimming_svg__K)" d="M9.475 16.682c-1.367-1.367-1.202-3.537.236-5.17l1.21-1.203c1.556-1.414 3.79-1.595 5.156-.229l.317.318a.2.2 0 0 1 0 .283l-6.319 6.318a.2.2 0 0 1-.282 0z"/><path fill="url(#person-swimming_svg__L)" fill-rule="evenodd" d="M9.936 5.41c-.557.042-1.037.1-1.262.157a.663.663 0 1 1-.324-1.285c.836-.21 1.78-.262 2.642-.262.366 0 1.05.296 1.05.662a.66.66 0 0 1-.663.663c-.345 0-.9.023-1.443.064" clip-rule="evenodd"/><path fill="#F9B630" fill-rule="evenodd" d="M11.266 4.904a.663.663 0 0 1-.608.713c-1.395.112-2.487 1.077-3.036 1.864a.663.663 0 0 1-1.087-.758c.678-.972 2.085-2.272 4.018-2.426a.663.663 0 0 1 .713.607" clip-rule="evenodd"/><path fill="url(#person-swimming_svg__M)" fill-rule="evenodd" d="M11.266 4.904a.663.663 0 0 1-.608.713c-1.395.112-2.487 1.077-3.036 1.864a.663.663 0 0 1-1.087-.758c.678-.972 2.085-2.272 4.018-2.426a.663.663 0 0 1 .713.607" clip-rule="evenodd"/><path fill="#F9B630" fill-rule="evenodd" d="M11.67 5.686a.663.663 0 0 1-.607.713c-.639.05-1.95.359-2.427.803-.482.448-.861 1.004-1.156 1.487a.663.663 0 0 1-1.131-.69c.314-.516.769-1.195 1.385-1.768.62-.576 1.5-1.153 3.223-1.153.366 0 .684.243.713.608" clip-rule="evenodd"/><path fill="url(#person-swimming_svg__N)" fill-rule="evenodd" d="M11.67 5.686a.663.663 0 0 1-.607.713c-.639.05-1.95.359-2.427.803-.482.448-.861 1.004-1.156 1.487a.663.663 0 0 1-1.131-.69c.314-.516.769-1.195 1.385-1.768.62-.576 1.5-1.153 3.223-1.153.366 0 .684.243.713.608" clip-rule="evenodd"/><path fill="#F9B630" fill-rule="evenodd" d="M11.37 6.46a.663.663 0 0 1-.635.69c-1.184.05-2.098.941-2.665 1.871a.663.663 0 0 1-1.131-.69c.65-1.067 1.893-2.427 3.74-2.505a.663.663 0 0 1 .69.634" clip-rule="evenodd"/><path fill="url(#person-swimming_svg__O)" fill-rule="evenodd" d="M11.37 6.46a.663.663 0 0 1-.635.69c-1.184.05-2.098.941-2.665 1.871a.663.663 0 0 1-1.131-.69c.65-1.067 1.893-2.427 3.74-2.505a.663.663 0 0 1 .69.634" clip-rule="evenodd"/><g filter="url(#person-swimming_svg__P)"><path fill="#F8B227" fill-rule="evenodd" d="M11.348 8.022c-.585 0-1.22.227-1.659.526-.31.21-.668.602-.82.805a.662.662 0 1 1-1.058-.8c.202-.266.661-.78 1.133-1.1.63-.429 1.52-.756 2.404-.756a.662.662 0 1 1 0 1.325" clip-rule="evenodd"/></g><path fill="url(#person-swimming_svg__Q)" d="M10.642 7.996h4.828a4 4 0 0 1 3.602 2.26l6.164 12.459 4.125-.594-6.687-13.604a8 8 0 0 0-7.204-4.52h-4.457z"/><defs><radialGradient id="person-swimming_svg__d" cx="0" cy="0" r="1" gradientTransform="rotate(-21.324 68.355 -31.86)scale(12.5465 22.8637)" gradientUnits="userSpaceOnUse"><stop offset=".172" stop-color="#F7B71E"/><stop offset="1" stop-color="#FFE344"/></radialGradient><radialGradient id="person-swimming_svg__e" cx="0" cy="0" r="1" gradientTransform="matrix(5.40625 1.9375 -3.91835 10.93347 16.64 18.645)" gradientUnits="userSpaceOnUse"><stop stop-color="#CC8810"/><stop offset="1" stop-color="#FEBC17" stop-opacity="0"/></radialGradient><radialGradient id="person-swimming_svg__f" cx="0" cy="0" r="1" gradientTransform="matrix(-.20312 .59375 -4.82693 -1.65131 22.031 15.863)" gradientUnits="userSpaceOnUse"><stop offset=".186" stop-color="#E8972A"/><stop offset="1" stop-color="#FBC72B" stop-opacity="0"/></radialGradient><radialGradient id="person-swimming_svg__g" cx="0" cy="0" r="1" gradientTransform="matrix(-.53125 .61718 -2.20347 -1.8967 13.602 19.785)" gradientUnits="userSpaceOnUse"><stop offset=".324" stop-color="#C36F27"/><stop offset="1" stop-color="#D58C44"/></radialGradient><radialGradient id="person-swimming_svg__h" cx="0" cy="0" r="1" gradientTransform="rotate(64.414 -1.083 22.008)scale(2.0442 .95422)" gradientUnits="userSpaceOnUse"><stop offset=".379" stop-color="#FFC030"/><stop offset="1" stop-color="#FFA319"/></radialGradient><radialGradient id="person-swimming_svg__i" cx="0" cy="0" r="1" gradientTransform="matrix(-1.12498 -2.10938 1.2392 -.66089 18.703 13.582)" gradientUnits="userSpaceOnUse"><stop offset=".701" stop-color="#FFC930"/><stop offset="1" stop-color="#F0B61B"/></radialGradient><radialGradient id="person-swimming_svg__n" cx="0" cy="0" r="1" gradientTransform="matrix(1.84375 5.88499 -6.78343 2.12523 15.36 15.02)" gradientUnits="userSpaceOnUse"><stop offset=".545" stop-color="#F0AF33" stop-opacity="0"/><stop offset="1" stop-color="#C68723"/></radialGradient><radialGradient id="person-swimming_svg__v" cx="0" cy="0" r="1" gradientTransform="rotate(90.613 .343 14.587)scale(.28732 .60402)" gradientUnits="userSpaceOnUse"><stop offset=".649" stop-color="#453B50"/><stop offset="1" stop-color="#453B50" stop-opacity="0"/></radialGradient><radialGradient id="person-swimming_svg__H" cx="0" cy="0" r="1" gradientTransform="matrix(-2.75 -2.62501 3.8318 -4.01424 14.203 12.738)" gradientUnits="userSpaceOnUse"><stop stop-color="#FB5684"/><stop offset="1" stop-color="#E12E6E"/></radialGradient><radialGradient id="person-swimming_svg__I" cx="0" cy="0" r="1" gradientTransform="rotate(-157.729 8.642 5.272)scale(6.59658 10.6884)" gradientUnits="userSpaceOnUse"><stop offset=".546" stop-color="#C73A7A" stop-opacity="0"/><stop offset="1" stop-color="#C73A7A"/></radialGradient><radialGradient id="person-swimming_svg__J" cx="0" cy="0" r="1" gradientTransform="matrix(.20313 -1.98437 .81115 .08303 8.766 14.582)" gradientUnits="userSpaceOnUse"><stop stop-color="#DD617E"/><stop offset="1" stop-color="#DD617E" stop-opacity="0"/></radialGradient><radialGradient id="person-swimming_svg__M" cx="0" cy="0" r="1" gradientTransform="rotate(146.787 3.398 4.75)scale(3.43755 1.60167)" gradientUnits="userSpaceOnUse"><stop offset=".402" stop-color="#CE893E"/><stop offset="1" stop-color="#FAB730" stop-opacity="0"/></radialGradient><radialGradient id="person-swimming_svg__N" cx="0" cy="0" r="1" gradientTransform="matrix(-2.76027 2.13307 -1.04932 -1.35786 8.58 7.985)" gradientUnits="userSpaceOnUse"><stop offset=".402" stop-color="#CE893E"/><stop offset="1" stop-color="#FAB730" stop-opacity="0"/></radialGradient><radialGradient id="person-swimming_svg__O" cx="0" cy="0" r="1" gradientTransform="rotate(144.615 3.209 5.665)scale(3.29193 1.58011)" gradientUnits="userSpaceOnUse"><stop offset=".402" stop-color="#CE893E"/><stop offset="1" stop-color="#FAB730" stop-opacity="0"/></radialGradient><radialGradient id="person-swimming_svg__Q" cx="0" cy="0" r="1" gradientTransform="matrix(5.125 .375 -.21772 2.97553 10.642 5.059)" gradientUnits="userSpaceOnUse"><stop offset=".344" stop-color="#F9B630"/><stop offset="1" stop-color="#F9B630" stop-opacity="0"/></radialGradient><linearGradient id="person-swimming_svg__b" x1="26.833" x2="2.047" y1="17.514" y2="17.514" gradientUnits="userSpaceOnUse"><stop stop-color="#40AAFE"/><stop offset="1" stop-color="#3EA5FE"/></linearGradient><linearGradient id="person-swimming_svg__k" x1="16.656" x2="16.93" y1="11.254" y2="11.785" gradientUnits="userSpaceOnUse"><stop offset=".18" stop-color="#FFC62A"/><stop offset=".592" stop-color="#8E5D03"/></linearGradient><linearGradient id="person-swimming_svg__m" x1="19.016" x2="14.391" y1="14.77" y2="20.27" gradientUnits="userSpaceOnUse"><stop stop-color="#FFE245"/><stop offset=".751" stop-color="#EEAA31"/></linearGradient><linearGradient id="person-swimming_svg__p" x1="26.833" x2="2.047" y1="24.576" y2="24.576" gradientUnits="userSpaceOnUse"><stop stop-color="#3F90F0"/><stop offset="1" stop-color="#4184E7"/></linearGradient><linearGradient id="person-swimming_svg__r" x1="17.219" x2="17.188" y1="18.582" y2="16.676" gradientUnits="userSpaceOnUse"><stop stop-color="#F5BA3A"/><stop offset="1" stop-color="#F5BA3A" stop-opacity="0"/></linearGradient><linearGradient id="person-swimming_svg__u" x1="14.945" x2="14.954" y1="14.62" y2="15.57" gradientUnits="userSpaceOnUse"><stop stop-color="#52475D"/><stop offset="1" stop-color="#413251"/></linearGradient><linearGradient id="person-swimming_svg__w" x1="16.734" x2="16.848" y1="11.645" y2="11.723" gradientUnits="userSpaceOnUse"><stop offset=".354" stop-color="#654748"/><stop offset="1" stop-color="#654748" stop-opacity="0"/></linearGradient><linearGradient id="person-swimming_svg__x" x1="17.383" x2="17.301" y1="12.063" y2="12.007" gradientUnits="userSpaceOnUse"><stop stop-color="#6A5B65"/><stop offset="1" stop-color="#6A5B65" stop-opacity="0"/></linearGradient><linearGradient id="person-swimming_svg__y" x1="11.422" x2="11.305" y1="17.988" y2="17.805" gradientUnits="userSpaceOnUse"><stop offset=".145" stop-color="#4F3B6A"/><stop offset="1" stop-color="#605976" stop-opacity="0"/></linearGradient><linearGradient id="person-swimming_svg__z" x1="10.984" x2="11.027" y1="17.359" y2="17.43" gradientUnits="userSpaceOnUse"><stop stop-color="#6A6373"/><stop offset="1" stop-color="#6A6373" stop-opacity="0"/></linearGradient><linearGradient id="person-swimming_svg__B" x1="16.766" x2="15.219" y1="13.113" y2="14.629" gradientUnits="userSpaceOnUse"><stop stop-color="#489BE1"/><stop offset="1" stop-color="#4799EA"/></linearGradient><linearGradient id="person-swimming_svg__E" x1="13.977" x2="12.43" y1="15.871" y2="17.387" gradientUnits="userSpaceOnUse"><stop stop-color="#3387E0"/><stop offset="1" stop-color="#2F81CB"/></linearGradient><linearGradient id="person-swimming_svg__G" x1="14.269" x2="12.127" y1="15.574" y2="17.62" gradientUnits="userSpaceOnUse"><stop offset=".096" stop-color="#5F5669"/><stop offset=".322" stop-color="#5F5669" stop-opacity="0"/><stop offset=".768" stop-color="#5F5669"/></linearGradient><linearGradient id="person-swimming_svg__K" x1="13.703" x2="13.641" y1="13.367" y2="13.309" gradientUnits="userSpaceOnUse"><stop stop-color="#F64A6A"/><stop offset="1" stop-color="#F64A6A" stop-opacity="0"/></linearGradient><linearGradient id="person-swimming_svg__L" x1="8.172" x2="10.922" y1="4.803" y2="4.541" gradientUnits="userSpaceOnUse"><stop stop-color="#E7B631"/><stop offset="1" stop-color="#FAB730"/></linearGradient><filter id="person-swimming_svg__a" width="28.306" height="9.762" x="1.847" y="13.098" color-interpolation-filters="sRGB" filterUnits="userSpaceOnUse"><feFlood flood-opacity="0" result="BackgroundImageFix"/><feBlend in="SourceGraphic" in2="BackgroundImageFix" result="shape"/><feColorMatrix in="SourceAlpha" result="hardAlpha" values="0 0 0 0 0 0 0 0 0 0 0 0 0 0 0 0 0 0 127 0"/><feOffset dx="-.2"/><feGaussianBlur stdDeviation=".5"/><feComposite in2="hardAlpha" k2="-1" k3="1" operator="arithmetic"/><feColorMatrix values="0 0 0 0 0.32549 0 0 0 0 0.729412 0 0 0 0 1 0 0 0 1 0"/><feBlend in2="shape" result="effect1_innerShadow_3987_23147"/><feColorMatrix in="SourceAlpha" result="hardAlpha" values="0 0 0 0 0 0 0 0 0 0 0 0 0 0 0 0 0 0 127 0"/><feOffset dx=".2"/><feGaussianBlur stdDeviation=".5"/><feComposite in2="hardAlpha" k2="-1" k3="1" operator="arithmetic"/><feColorMatrix values="0 0 0 0 0.247059 0 0 0 0 0.584314 0 0 0 0 0.854902 0 0 0 1 0"/><feBlend in2="effect1_innerShadow_3987_23147" result="effect2_innerShadow_3987_23147"/></filter><filter id="person-swimming_svg__c" width="19.969" height="19.969" x="10.642" y="2.746" color-interpolation-filters="sRGB" filterUnits="userSpaceOnUse"><feFlood flood-opacity="0" result="BackgroundImageFix"/><feBlend in="SourceGraphic" in2="BackgroundImageFix" result="shape"/><feColorMatrix in="SourceAlpha" result="hardAlpha" values="0 0 0 0 0 0 0 0 0 0 0 0 0 0 0 0 0 0 127 0"/><feOffset dx="1.25" dy="-1.25"/><feGaussianBlur stdDeviation="1"/><feComposite in2="hardAlpha" k2="-1" k3="1" operator="arithmetic"/><feColorMatrix values="0 0 0 0 0.984314 0 0 0 0 0.647059 0 0 0 0 0.0941176 0 0 0 1 0"/><feBlend in2="shape" result="effect1_innerShadow_3987_23147"/><feColorMatrix in="SourceAlpha" result="hardAlpha" values="0 0 0 0 0 0 0 0 0 0 0 0 0 0 0 0 0 0 127 0"/><feOffset dx=".25" dy="-.5"/><feGaussianBlur stdDeviation=".5"/><feComposite in2="hardAlpha" k2="-1" k3="1" operator="arithmetic"/><feColorMatrix values="0 0 0 0 0.835294 0 0 0 0 0.517647 0 0 0 0 0.223529 0 0 0 1 0"/><feBlend in2="effect1_innerShadow_3987_23147" result="effect2_innerShadow_3987_23147"/></filter><filter id="person-swimming_svg__j" width="2.053" height="2.053" x="16.759" y="11.857" color-interpolation-filters="sRGB" filterUnits="userSpaceOnUse"><feFlood flood-opacity="0" result="BackgroundImageFix"/><feBlend in="SourceGraphic" in2="BackgroundImageFix" result="shape"/><feGaussianBlur result="effect1_foregroundBlur_3987_23147" stdDeviation=".075"/></filter><filter id="person-swimming_svg__l" width="11.327" height="11.381" x="8.984" y="9.524" color-interpolation-filters="sRGB" filterUnits="userSpaceOnUse"><feFlood flood-opacity="0" result="BackgroundImageFix"/><feBlend in="SourceGraphic" in2="BackgroundImageFix" result="shape"/><feColorMatrix in="SourceAlpha" result="hardAlpha" values="0 0 0 0 0 0 0 0 0 0 0 0 0 0 0 0 0 0 127 0"/><feOffset dx=".15" dy="-.15"/><feGaussianBlur stdDeviation=".3"/><feComposite in2="hardAlpha" k2="-1" k3="1" operator="arithmetic"/><feColorMatrix values="0 0 0 0 0.847059 0 0 0 0 0.619608 0 0 0 0 0.290196 0 0 0 1 0"/><feBlend in2="shape" result="effect1_innerShadow_3987_23147"/></filter><filter id="person-swimming_svg__o" width="28.306" height="9.762" x="1.847" y="20.16" color-interpolation-filters="sRGB" filterUnits="userSpaceOnUse"><feFlood flood-opacity="0" result="BackgroundImageFix"/><feBlend in="SourceGraphic" in2="BackgroundImageFix" result="shape"/><feColorMatrix in="SourceAlpha" result="hardAlpha" values="0 0 0 0 0 0 0 0 0 0 0 0 0 0 0 0 0 0 127 0"/><feOffset dx="-.2"/><feGaussianBlur stdDeviation=".15"/><feComposite in2="hardAlpha" k2="-1" k3="1" operator="arithmetic"/><feColorMatrix values="0 0 0 0 0.301961 0 0 0 0 0.580392 0 0 0 0 0.87451 0 0 0 1 0"/><feBlend in2="shape" result="effect1_innerShadow_3987_23147"/><feColorMatrix in="SourceAlpha" result="hardAlpha" values="0 0 0 0 0 0 0 0 0 0 0 0 0 0 0 0 0 0 127 0"/><feOffset dx=".2"/><feGaussianBlur stdDeviation=".15"/><feComposite in2="hardAlpha" k2="-1" k3="1" operator="arithmetic"/><feColorMatrix values="0 0 0 0 0.207843 0 0 0 0 0.482353 0 0 0 0 0.772549 0 0 0 1 0"/><feBlend in2="effect1_innerShadow_3987_23147" result="effect2_innerShadow_3987_23147"/></filter><filter id="person-swimming_svg__q" width="2.217" height="2.217" x="15.887" y="16.544" color-interpolation-filters="sRGB" filterUnits="userSpaceOnUse"><feFlood flood-opacity="0" result="BackgroundImageFix"/><feBlend in="SourceGraphic" in2="BackgroundImageFix" result="shape"/><feGaussianBlur result="effect1_foregroundBlur_3987_23147" stdDeviation=".1"/></filter><filter id="person-swimming_svg__s" width="3.106" height="3.164" x="13.726" y="14.809" color-interpolation-filters="sRGB" filterUnits="userSpaceOnUse"><feFlood flood-opacity="0" result="BackgroundImageFix"/><feBlend in="SourceGraphic" in2="BackgroundImageFix" result="shape"/><feGaussianBlur result="effect1_foregroundBlur_3987_23147" stdDeviation=".25"/></filter><filter id="person-swimming_svg__t" width="2.203" height="2.458" x="14.338" y="14.837" color-interpolation-filters="sRGB" filterUnits="userSpaceOnUse"><feFlood flood-opacity="0" result="BackgroundImageFix"/><feBlend in="SourceGraphic" in2="BackgroundImageFix" result="shape"/><feColorMatrix in="SourceAlpha" result="hardAlpha" values="0 0 0 0 0 0 0 0 0 0 0 0 0 0 0 0 0 0 127 0"/><feOffset dx=".1" dy="-.3"/><feGaussianBlur stdDeviation=".3"/><feComposite in2="hardAlpha" k2="-1" k3="1" operator="arithmetic"/><feColorMatrix values="0 0 0 0 0.905882 0 0 0 0 0.623529 0 0 0 0 0.2 0 0 0 1 0"/><feBlend in2="shape" result="effect1_innerShadow_3987_23147"/><feGaussianBlur result="effect2_foregroundBlur_3987_23147" stdDeviation=".05"/></filter><filter id="person-swimming_svg__A" width="2.23" height="2.219" x="14.699" y="12.683" color-interpolation-filters="sRGB" filterUnits="userSpaceOnUse"><feFlood flood-opacity="0" result="BackgroundImageFix"/><feBlend in="SourceGraphic" in2="BackgroundImageFix" result="shape"/><feColorMatrix in="SourceAlpha" result="hardAlpha" values="0 0 0 0 0 0 0 0 0 0 0 0 0 0 0 0 0 0 127 0"/><feOffset/><feGaussianBlur stdDeviation=".075"/><feComposite in2="hardAlpha" k2="-1" k3="1" operator="arithmetic"/><feColorMatrix values="0 0 0 0 0.0745098 0 0 0 0 0.407843 0 0 0 0 0.756863 0 0 0 1 0"/><feBlend in2="shape" result="effect1_innerShadow_3987_23147"/><feColorMatrix in="SourceAlpha" result="hardAlpha" values="0 0 0 0 0 0 0 0 0 0 0 0 0 0 0 0 0 0 127 0"/><feOffset dx="-.1" dy=".1"/><feGaussianBlur stdDeviation=".1"/><feComposite in2="hardAlpha" k2="-1" k3="1" operator="arithmetic"/><feColorMatrix values="0 0 0 0 0.32549 0 0 0 0 0.631373 0 0 0 0 0.882353 0 0 0 1 0"/><feBlend in2="effect1_innerShadow_3987_23147" result="effect2_innerShadow_3987_23147"/></filter><filter id="person-swimming_svg__C" width="2.872" height="2.875" x="14.46" y="12.268" color-interpolation-filters="sRGB" filterUnits="userSpaceOnUse"><feFlood flood-opacity="0" result="BackgroundImageFix"/><feBlend in="SourceGraphic" in2="BackgroundImageFix" result="shape"/><feGaussianBlur result="effect1_foregroundBlur_3987_23147" stdDeviation=".075"/></filter><filter id="person-swimming_svg__D" width="2.23" height="2.219" x="11.909" y="15.441" color-interpolation-filters="sRGB" filterUnits="userSpaceOnUse"><feFlood flood-opacity="0" result="BackgroundImageFix"/><feBlend in="SourceGraphic" in2="BackgroundImageFix" result="shape"/><feColorMatrix in="SourceAlpha" result="hardAlpha" values="0 0 0 0 0 0 0 0 0 0 0 0 0 0 0 0 0 0 127 0"/><feOffset/><feGaussianBlur stdDeviation=".075"/><feComposite in2="hardAlpha" k2="-1" k3="1" operator="arithmetic"/><feColorMatrix values="0 0 0 0 0.0745098 0 0 0 0 0.407843 0 0 0 0 0.756863 0 0 0 1 0"/><feBlend in2="shape" result="effect1_innerShadow_3987_23147"/><feColorMatrix in="SourceAlpha" result="hardAlpha" values="0 0 0 0 0 0 0 0 0 0 0 0 0 0 0 0 0 0 127 0"/><feOffset dx="-.1" dy=".1"/><feGaussianBlur stdDeviation=".05"/><feComposite in2="hardAlpha" k2="-1" k3="1" operator="arithmetic"/><feColorMatrix values="0 0 0 0 0.282353 0 0 0 0 0.564706 0 0 0 0 0.854902 0 0 0 1 0"/><feBlend in2="effect1_innerShadow_3987_23147" result="effect2_innerShadow_3987_23147"/></filter><filter id="person-swimming_svg__F" width="2.872" height="2.875" x="11.68" y="15.063" color-interpolation-filters="sRGB" filterUnits="userSpaceOnUse"><feFlood flood-opacity="0" result="BackgroundImageFix"/><feBlend in="SourceGraphic" in2="BackgroundImageFix" result="shape"/><feGaussianBlur result="effect1_foregroundBlur_3987_23147" stdDeviation=".075"/></filter><filter id="person-swimming_svg__P" width="4.333" height="3.319" x="7.677" y="6.297" color-interpolation-filters="sRGB" filterUnits="userSpaceOnUse"><feFlood flood-opacity="0" result="BackgroundImageFix"/><feBlend in="SourceGraphic" in2="BackgroundImageFix" result="shape"/><feColorMatrix in="SourceAlpha" result="hardAlpha" values="0 0 0 0 0 0 0 0 0 0 0 0 0 0 0 0 0 0 127 0"/><feOffset dy="-.4"/><feGaussianBlur stdDeviation=".25"/><feComposite in2="hardAlpha" k2="-1" k3="1" operator="arithmetic"/><feColorMatrix values="0 0 0 0 0.878431 0 0 0 0 0.560784 0 0 0 0 0.192157 0 0 0 1 0"/><feBlend in2="shape" result="effect1_innerShadow_3987_23147"/></filter></defs></svg>