<svg width="32" height="32" fill="none" xmlns="http://www.w3.org/2000/svg"><path fill="#3E3434" d="m8.3 15.657 1.422-1.034 1.333 1.833-1.422 1.033Z"/><path d="M9.896 10.877a1.261 1.261 0 0 1-.648-.121l-.145.173 1.082.908c.305-.096.533-.41.41-.663-.107-.217-.365-.337-.7-.297Z" fill="url(#a)"/><g filter="url(#b)"><path d="M8.788 10.314c-.803-.61-1.384-.672-1.591-.646L4.183 13.26l2.994 2.614c2.742.88 4.965-1.592 4.545-2.592-.42-1-2.006-2.262-2.934-2.968Z" fill="url(#c)"/><path d="M8.788 10.314c-.803-.61-1.384-.672-1.591-.646L4.183 13.26l2.994 2.614c2.742.88 4.965-1.592 4.545-2.592-.42-1-2.006-2.262-2.934-2.968Z" fill="url(#d)"/><path d="M8.788 10.314c-.803-.61-1.384-.672-1.591-.646L4.183 13.26l2.994 2.614c2.742.88 4.965-1.592 4.545-2.592-.42-1-2.006-2.262-2.934-2.968Z" fill="url(#e)"/><path d="M8.788 10.314c-.803-.61-1.384-.672-1.591-.646L4.183 13.26l2.994 2.614c2.742.88 4.965-1.592 4.545-2.592-.42-1-2.006-2.262-2.934-2.968Z" fill="url(#f)"/></g><g filter="url(#g)"><path d="M6.402 8.56c-.661-.166-1.141.2-1.351.48-.65.864-.458 1.217-1.24 1.836-.826.654-1.106 1.083-1.236 1.55l-.003.009c-.128.46-.394 1.413 1.018 2.598 1.3 1.091 2.376 1.204 2.81 1.185l-.021.058c-.107.29.053.58.344.687.247.091.559-.058.765-.401.237-.392.403-.686.53-.92a.312.312 0 0 0-.073-.388l-1.07-.899c-.452-.378-.454-.922-.417-1.13-.453-.406-.548-.729-.465-1.056.137-.543.33-.586 1.048-1.555.723-.976.187-1.848-.64-2.055Z" fill="url(#h)"/><path d="M6.402 8.56c-.661-.166-1.141.2-1.351.48-.65.864-.458 1.217-1.24 1.836-.826.654-1.106 1.083-1.236 1.55l-.003.009c-.128.46-.394 1.413 1.018 2.598 1.3 1.091 2.376 1.204 2.81 1.185l-.021.058c-.107.29.053.58.344.687.247.091.559-.058.765-.401.237-.392.403-.686.53-.92a.312.312 0 0 0-.073-.388l-1.07-.899c-.452-.378-.454-.922-.417-1.13-.453-.406-.548-.729-.465-1.056.137-.543.33-.586 1.048-1.555.723-.976.187-1.848-.64-2.055Z" fill="url(#i)"/><path d="M6.402 8.56c-.661-.166-1.141.2-1.351.48-.65.864-.458 1.217-1.24 1.836-.826.654-1.106 1.083-1.236 1.55l-.003.009c-.128.46-.394 1.413 1.018 2.598 1.3 1.091 2.376 1.204 2.81 1.185l-.021.058c-.107.29.053.58.344.687.247.091.559-.058.765-.401.237-.392.403-.686.53-.92a.312.312 0 0 0-.073-.388l-1.07-.899c-.452-.378-.454-.922-.417-1.13-.453-.406-.548-.729-.465-1.056.137-.543.33-.586 1.048-1.555.723-.976.187-1.848-.64-2.055Z" fill="url(#j)"/><path d="M6.402 8.56c-.661-.166-1.141.2-1.351.48-.65.864-.458 1.217-1.24 1.836-.826.654-1.106 1.083-1.236 1.55l-.003.009c-.128.46-.394 1.413 1.018 2.598 1.3 1.091 2.376 1.204 2.81 1.185l-.021.058c-.107.29.053.58.344.687.247.091.559-.058.765-.401.237-.392.403-.686.53-.92a.312.312 0 0 0-.073-.388l-1.07-.899c-.452-.378-.454-.922-.417-1.13-.453-.406-.548-.729-.465-1.056.137-.543.33-.586 1.048-1.555.723-.976.187-1.848-.64-2.055Z" fill="url(#k)"/></g><path d="m7.95 14.154-1.546-.97a.913.913 0 0 0 1.546.97Z" fill="url(#l)"/><path d="m7.95 14.154-1.546-.97a.913.913 0 0 0 1.546.97Z" fill="url(#m)"/><path fill-rule="evenodd" clip-rule="evenodd" d="M9.612 13.059c.009.086.086.15.172.14.417-.04.752-.323.852-.419a.157.157 0 1 0-.219-.225c-.085.082-.355.302-.663.332a.157.157 0 0 0-.142.172Z" fill="#280017"/><g filter="url(#n)"><path fill-rule="evenodd" clip-rule="evenodd" d="M7.735 11.102a.966.966 0 0 1 .16-.222.188.188 0 0 0-.257-.276 1.323 1.323 0 0 0-.234.317c-.078.143-.15.328-.163.532a.188.188 0 1 0 .376.024.92.92 0 0 1 .118-.375Z" fill="#2C2929"/></g><path d="m9.143 11.442-.798.95c-.377-.315-.504-.784-.283-1.047.22-.263.704-.22 1.08.097Z" fill="#fff"/><path d="m8.654 12.025-.004-.004c-.308-.258-.447-.6-.31-.763.136-.163.497-.085.805.173l.004.004-.495.59Z" fill="url(#o)"/><path d="M8.811 11.837a.799.799 0 0 1-.073-.055c-.178-.15-.26-.347-.181-.44.078-.093.287-.048.465.102.024.02.046.041.066.062l-.277.33Z" fill="url(#p)"/><path transform="scale(-1 1) rotate(74.61 -11.764 -.023)" fill="url(#q)" d="M-.081 0a.081.11 0 1 0 .162 0 .081.11 0 1 0-.162 0"/><g filter="url(#r)"><path d="M4.549 13.257c.486.663.998 1.243 1.24 1.495a3.64 3.64 0 0 1-2.551-.618c-.52-.354-.264-1.165.335-1.357.433-.14.707.114.976.48Z" fill="url(#s)"/></g><g filter="url(#t)"><path d="M18.502 13.578a2.288 2.288 0 0 1 4.215-.309l1.812 3.6h-7.117l1.09-3.29Z" fill="url(#u)"/><path d="M18.502 13.578a2.288 2.288 0 0 1 4.215-.309l1.812 3.6h-7.117l1.09-3.29Z" fill="url(#v)"/></g><g filter="url(#w)"><path d="M24.952 6.182v10.937h1.6V6.182a4.313 4.313 0 0 0-8.625 0v1.03h1.6v-1.03a2.712 2.712 0 1 1 5.425 0Z" fill="#ADADAD"/><path d="M24.952 6.182v10.937h1.6V6.182a4.313 4.313 0 0 0-8.625 0v1.03h1.6v-1.03a2.712 2.712 0 1 1 5.425 0Z" fill="url(#x)"/></g><g filter="url(#y)"><path d="M14.396 19.432a3.216 3.216 0 0 0 2.706-1.475 2.49 2.49 0 0 0 1.657.615c.66 0 1.256-.245 1.687-.64.511.615 1.402 1.023 2.415 1.023 1.585 0 2.871-.998 2.871-2.23 0-1.051-1.286-2.23-2.871-2.23-.79 0-1.504.247-2.023.647a.107.107 0 0 1-.15-.019c-.431-.546-1.134-.902-1.929-.902-.53 0-1.02.159-1.417.428a.107.107 0 0 1-.152-.035 3.219 3.219 0 1 0-2.794 4.818Z" fill="#4BD1F1"/><path d="M14.396 19.432a3.216 3.216 0 0 0 2.706-1.475 2.49 2.49 0 0 0 1.657.615c.66 0 1.256-.245 1.687-.64.511.615 1.402 1.023 2.415 1.023 1.585 0 2.871-.998 2.871-2.23 0-1.051-1.286-2.23-2.871-2.23-.79 0-1.504.247-2.023.647a.107.107 0 0 1-.15-.019c-.431-.546-1.134-.902-1.929-.902-.53 0-1.02.159-1.417.428a.107.107 0 0 1-.152-.035 3.219 3.219 0 1 0-2.794 4.818Z" fill="url(#z)"/><path d="M14.396 19.432a3.216 3.216 0 0 0 2.706-1.475 2.49 2.49 0 0 0 1.657.615c.66 0 1.256-.245 1.687-.64.511.615 1.402 1.023 2.415 1.023 1.585 0 2.871-.998 2.871-2.23 0-1.051-1.286-2.23-2.871-2.23-.79 0-1.504.247-2.023.647a.107.107 0 0 1-.15-.019c-.431-.546-1.134-.902-1.929-.902-.53 0-1.02.159-1.417.428a.107.107 0 0 1-.152-.035 3.219 3.219 0 1 0-2.794 4.818Z" fill="url(#A)"/></g><g filter="url(#B)"><path fill="url(#C)" d="M16.56 16.73a2.291 2.291 0 1 0 4.582 0 2.291 2.291 0 1 0-4.582 0"/><path fill="url(#D)" d="M16.56 16.73a2.291 2.291 0 1 0 4.582 0 2.291 2.291 0 1 0-4.582 0"/></g><g filter="url(#E)"><path fill-rule="evenodd" clip-rule="evenodd" d="M17.128 15.157c-.476.39-.797.967-.846 1.628-.03.414.05.81.215 1.161a2.742 2.742 0 1 1 .631-2.789Z" fill="url(#F)"/></g><path transform="scale(-1 1) rotate(45 -41.287 -13.074)" fill="url(#G)" d="M.804 0s.804 0 .804.804v3.524s0 .804-.804.804S0 5.132 0 4.328V.804S0 0 .804 0"/><path transform="scale(-1 1) rotate(45 -41.287 -13.074)" fill="url(#H)" d="M.804 0s.804 0 .804.804v3.524s0 .804-.804.804S0 5.132 0 4.328V.804S0 0 .804 0"/><path transform="scale(-1 1) rotate(45 -41.287 -13.074)" fill="url(#I)" d="M.804 0s.804 0 .804.804v3.524s0 .804-.804.804S0 5.132 0 4.328V.804S0 0 .804 0"/><path fill="#735F86" d="M12.35 25.933s.57.569 0 1.137l-2.49 2.492s-.57.569-1.138 0-.569-.568 0-1.137l2.492-2.492s.568-.568 1.137 0"/><path transform="rotate(45 11.782 25.365)" fill="url(#J)" d="M12.586 25.365s.804 0 .804.804v3.524s0 .804-.804.804-.804 0-.804-.804v-3.524s0-.804.804-.804"/><path transform="rotate(45 11.782 25.365)" fill="url(#K)" d="M12.586 25.365s.804 0 .804.804v3.524s0 .804-.804.804-.804 0-.804-.804v-3.524s0-.804.804-.804"/><g filter="url(#L)"><path d="m5.227 22.375-1.456-4.568H29.35l-1.477 4.59a7.8 7.8 0 0 1-7.425 5.41h-7.788a7.8 7.8 0 0 1-7.432-5.431Z" fill="url(#M)"/></g><path d="m5.227 22.375-1.456-4.568H29.35l-1.477 4.59a7.8 7.8 0 0 1-7.425 5.41h-7.788a7.8 7.8 0 0 1-7.432-5.431Z" fill="url(#N)"/><path d="m5.227 22.375-1.456-4.568H29.35l-1.477 4.59a7.8 7.8 0 0 1-7.425 5.41h-7.788a7.8 7.8 0 0 1-7.432-5.431Z" fill="url(#O)"/><g filter="url(#P)"><path fill="url(#Q)" d="M3.785 15.908h25.598s1.123 0 1.123 1.123 0 1.123-1.123 1.123H3.785s-1.123 0-1.123-1.123 0-1.123 1.123-1.123"/><path fill="url(#R)" d="M3.785 15.908h25.598s1.123 0 1.123 1.123 0 1.123-1.123 1.123H3.785s-1.123 0-1.123-1.123 0-1.123 1.123-1.123"/></g><path fill="url(#S)" d="M3.785 15.908h25.598s1.123 0 1.123 1.123 0 1.123-1.123 1.123H3.785s-1.123 0-1.123-1.123 0-1.123 1.123-1.123"/><g filter="url(#T)"><path d="M22.302 2.666c1.22-.052 3.657.94 3.657 3.766v9.375" stroke="url(#U)" stroke-width=".75"/></g><g filter="url(#V)"><path d="M20.226 3.385c-.458.406-1.375 1.612-1.375 3.187" stroke="url(#W)" stroke-width=".75"/></g><path d="M21.091 8.611c.28 0 .51-.23.457-.504-.25-1.307-1.37-2.293-2.714-2.293-1.345 0-2.465.986-2.715 2.293-.052.274.178.504.457.504h4.515Z" fill="url(#X)"/><path d="M21.091 8.611c.28 0 .51-.23.457-.504-.25-1.307-1.37-2.293-2.714-2.293-1.345 0-2.465.986-2.715 2.293-.052.274.178.504.457.504h4.515Z" fill="url(#Y)"/><defs><radialGradient id="a" cx="0" cy="0" r="1" gradientUnits="userSpaceOnUse" gradientTransform="rotate(101.587 .81 9.779) scale(.68063 .96072)"><stop offset=".101" stop-color="#68534F"/><stop offset=".684" stop-color="#41212E"/></radialGradient><radialGradient id="d" cx="0" cy="0" r="1" gradientUnits="userSpaceOnUse" gradientTransform="rotate(-53.18 17.35 .042) scale(1.06152 1.29421)"><stop offset=".156" stop-color="#34191A"/><stop offset="1" stop-color="#34191A" stop-opacity="0"/></radialGradient><radialGradient id="e" cx="0" cy="0" r="1" gradientUnits="userSpaceOnUse" gradientTransform="matrix(-4.99181 -4.18863 1.13547 -1.3532 10.4 12.078)"><stop offset=".163" stop-color="#614C49"/><stop offset="1" stop-color="#614C49" stop-opacity="0"/></radialGradient><radialGradient id="f" cx="0" cy="0" r="1" gradientUnits="userSpaceOnUse" gradientTransform="rotate(40 -12.104 17.837) scale(.49069 .76524)"><stop offset=".155" stop-color="#472F2C"/><stop offset="1" stop-color="#472F2C" stop-opacity="0"/></radialGradient><radialGradient id="h" cx="0" cy="0" r="1" gradientUnits="userSpaceOnUse" gradientTransform="rotate(168.984 2.747 6.482) scale(3.88954 5.91281)"><stop offset=".194" stop-color="#22191D"/><stop offset="1" stop-color="#342D30"/></radialGradient><radialGradient id="i" cx="0" cy="0" r="1" gradientUnits="userSpaceOnUse" gradientTransform="matrix(-1.81128 .44865 -.7218 -2.914 7.056 8.917)"><stop stop-color="#564C49"/><stop offset="1" stop-color="#564C49" stop-opacity="0"/></radialGradient><radialGradient id="j" cx="0" cy="0" r="1" gradientUnits="userSpaceOnUse" gradientTransform="matrix(.56549 -.38384 .1886 .27785 6.37 16.268)"><stop offset=".197" stop-color="#464243"/><stop offset="1" stop-color="#464243" stop-opacity="0"/></radialGradient><radialGradient id="k" cx="0" cy="0" r="1" gradientUnits="userSpaceOnUse" gradientTransform="rotate(143.325 1.065 7.68) scale(1.14972 3.08054)"><stop offset=".353" stop-color="#363131"/><stop offset=".584" stop-color="#363131" stop-opacity="0"/></radialGradient><radialGradient id="l" cx="0" cy="0" r="1" gradientUnits="userSpaceOnUse" gradientTransform="matrix(-.78964 .52884 -.25812 -.38541 6.987 13.595)"><stop offset=".17" stop-color="#635251"/><stop offset="1" stop-color="#482C2E"/></radialGradient><radialGradient id="o" cx="0" cy="0" r="1" gradientUnits="userSpaceOnUse" gradientTransform="matrix(-.22079 .26312 -.51121 -.42896 8.898 11.691)"><stop offset=".895" stop-color="#916A62"/><stop offset="1" stop-color="#824D44"/></radialGradient><radialGradient id="p" cx="0" cy="0" r="1" gradientUnits="userSpaceOnUse" gradientTransform="rotate(130 1.835 7.885) scale(.31404 .67961)"><stop stop-color="#666361"/><stop offset=".813" stop-color="#565352"/></radialGradient><radialGradient id="u" cx="0" cy="0" r="1" gradientUnits="userSpaceOnUse" gradientTransform="matrix(0 -2.09375 .5802 0 20.802 15.15)"><stop offset=".41" stop-color="#402E31"/><stop offset="1" stop-color="#452F2E"/></radialGradient><radialGradient id="v" cx="0" cy="0" r="1" gradientUnits="userSpaceOnUse" gradientTransform="matrix(-1.49998 -3.09376 1.67378 -.81152 23.521 14.713)"><stop stop-color="#5E4F4E"/><stop offset="1" stop-color="#5E4F4E" stop-opacity="0"/></radialGradient><radialGradient id="x" cx="0" cy="0" r="1" gradientUnits="userSpaceOnUse" gradientTransform="matrix(4.78126 -4.84375 2.7395 2.70415 18.646 6.213)"><stop stop-color="#A09FA0"/><stop offset="1" stop-color="#A09FA0" stop-opacity="0"/></radialGradient><radialGradient id="z" cx="0" cy="0" r="1" gradientUnits="userSpaceOnUse" gradientTransform="rotate(-150.994 14.7 4.713) scale(3.60894 4.34333)"><stop stop-color="#66EBFF"/><stop offset="1" stop-color="#66EBFF" stop-opacity="0"/></radialGradient><radialGradient id="A" cx="0" cy="0" r="1" gradientUnits="userSpaceOnUse" gradientTransform="matrix(1.0625 2.625 -1.48498 .60106 19.49 13.838)"><stop stop-color="#6AF0FF"/><stop offset="1" stop-color="#6AF0FF" stop-opacity="0"/></radialGradient><radialGradient id="C" cx="0" cy="0" r="1" gradientUnits="userSpaceOnUse" gradientTransform="matrix(-1.90038 -2.5625 2.1013 -1.55835 20.752 15.874)"><stop stop-color="#6EF3FF"/><stop offset="1" stop-color="#6EF3FF" stop-opacity="0"/></radialGradient><radialGradient id="D" cx="0" cy="0" r="1" gradientUnits="userSpaceOnUse" gradientTransform="matrix(1.3125 -2.34375 2.00586 1.12328 16.845 16.405)"><stop stop-color="#3DC6EB"/><stop offset="1" stop-color="#3DC6EB" stop-opacity="0"/></radialGradient><radialGradient id="F" cx="0" cy="0" r="1" gradientUnits="userSpaceOnUse" gradientTransform="rotate(-138.668 11.431 4.377) scale(4.20282 3.66642)"><stop stop-color="#6BF3FF"/><stop offset="1" stop-color="#6BF3FF" stop-opacity="0"/></radialGradient><radialGradient id="H" cx="0" cy="0" r="1" gradientUnits="userSpaceOnUse" gradientTransform="rotate(79.16 -.565 1.44) scale(1.58615 1.72717)"><stop stop-color="#7A6A8B"/><stop offset="1" stop-color="#7A6A8B" stop-opacity="0"/></radialGradient><radialGradient id="I" cx="0" cy="0" r="1" gradientUnits="userSpaceOnUse" gradientTransform="rotate(-89.442 2.4 1.929) scale(1.40065 .72809)"><stop stop-color="#BEBAC2"/><stop offset="1" stop-color="#968DA0" stop-opacity="0"/></radialGradient><radialGradient id="K" cx="0" cy="0" r="1" gradientUnits="userSpaceOnUse" gradientTransform="rotate(-47.663 40.378 1.499) scale(.6726 1.0441)"><stop stop-color="#88828E"/><stop offset="1" stop-color="#88828E" stop-opacity="0"/></radialGradient><radialGradient id="M" cx="0" cy="0" r="1" gradientUnits="userSpaceOnUse" gradientTransform="matrix(-15.56247 -.06247 .03888 -9.68481 25.99 22.307)"><stop stop-color="#E1DAEA"/><stop offset="1" stop-color="#C7BDD3"/></radialGradient><radialGradient id="N" cx="0" cy="0" r="1" gradientUnits="userSpaceOnUse" gradientTransform="matrix(0 8.625 -39.1562 0 17.115 19.37)"><stop offset=".572" stop-color="#BBA9CD" stop-opacity="0"/><stop offset="1" stop-color="#A887C7"/></radialGradient><radialGradient id="Q" cx="0" cy="0" r="1" gradientUnits="userSpaceOnUse" gradientTransform="matrix(0 1.25 -15.4957 0 25.24 16.65)"><stop stop-color="#FEFCFF"/><stop offset="1" stop-color="#D5D3D8"/></radialGradient><radialGradient id="U" cx="0" cy="0" r="1" gradientUnits="userSpaceOnUse" gradientTransform="matrix(-6.71874 10.18756 -7.15636 -4.71965 28.771 3.62)"><stop offset=".008" stop-color="#C1C1C2"/><stop offset="1" stop-color="#C1C1C2" stop-opacity="0"/></radialGradient><radialGradient id="W" cx="0" cy="0" r="1" gradientUnits="userSpaceOnUse" gradientTransform="matrix(1.5 -3.53125 2.69792 1.14602 19.539 6.572)"><stop offset=".008" stop-color="#C1C1C2"/><stop offset="1" stop-color="#C1C1C2" stop-opacity="0"/></radialGradient><radialGradient id="X" cx="0" cy="0" r="1" gradientUnits="userSpaceOnUse" gradientTransform="matrix(-4.53418 0 0 -3.55867 20.646 8.611)"><stop offset=".145" stop-color="#C1C1C2"/><stop offset=".717" stop-color="#929192"/></radialGradient><filter id="b" x="3.983" y="9.463" width="7.79" height="6.597" filterUnits="userSpaceOnUse" color-interpolation-filters="sRGB"><feFlood flood-opacity="0" result="BackgroundImageFix"/><feBlend in="SourceGraphic" in2="BackgroundImageFix" result="shape"/><feColorMatrix in="SourceAlpha" values="0 0 0 0 0 0 0 0 0 0 0 0 0 0 0 0 0 0 127 0" result="hardAlpha"/><feOffset dx="-.2" dy="-.2"/><feGaussianBlur stdDeviation=".5"/><feComposite in2="hardAlpha" operator="arithmetic" k2="-1" k3="1"/><feColorMatrix values="0 0 0 0 0.360784 0 0 0 0 0.172549 0 0 0 0 0.12549 0 0 0 1 0"/><feBlend in2="shape" result="effect1_innerShadow_3987_24056"/></filter><filter id="g" x="2.465" y="8.368" width="5.592" height="8.622" filterUnits="userSpaceOnUse" color-interpolation-filters="sRGB"><feFlood flood-opacity="0" result="BackgroundImageFix"/><feBlend in="SourceGraphic" in2="BackgroundImageFix" result="shape"/><feColorMatrix in="SourceAlpha" values="0 0 0 0 0 0 0 0 0 0 0 0 0 0 0 0 0 0 127 0" result="hardAlpha"/><feOffset dy="-.15"/><feGaussianBlur stdDeviation=".15"/><feComposite in2="hardAlpha" operator="arithmetic" k2="-1" k3="1"/><feColorMatrix values="0 0 0 0 0.14902 0 0 0 0 0.101961 0 0 0 0 0.109804 0 0 0 1 0"/><feBlend in2="shape" result="effect1_innerShadow_3987_24056"/></filter><filter id="n" x="7.141" y="10.554" width=".814" height="1.199" filterUnits="userSpaceOnUse" color-interpolation-filters="sRGB"><feFlood flood-opacity="0" result="BackgroundImageFix"/><feBlend in="SourceGraphic" in2="BackgroundImageFix" result="shape"/><feColorMatrix in="SourceAlpha" values="0 0 0 0 0 0 0 0 0 0 0 0 0 0 0 0 0 0 127 0" result="hardAlpha"/><feOffset dx="-.1" dy=".1"/><feGaussianBlur stdDeviation=".1"/><feComposite in2="hardAlpha" operator="arithmetic" k2="-1" k3="1"/><feColorMatrix values="0 0 0 0 0.0666667 0 0 0 0 0.0627451 0 0 0 0 0.0627451 0 0 0 1 0"/><feBlend in2="shape" result="effect1_innerShadow_3987_24056"/></filter><filter id="r" x="2.457" y="12.238" width="3.831" height="3.046" filterUnits="userSpaceOnUse" color-interpolation-filters="sRGB"><feFlood flood-opacity="0" result="BackgroundImageFix"/><feBlend in="SourceGraphic" in2="BackgroundImageFix" result="shape"/><feGaussianBlur stdDeviation=".25" result="effect1_foregroundBlur_3987_24056"/></filter><filter id="t" x="17.412" y="12.01" width="7.367" height="4.959" filterUnits="userSpaceOnUse" color-interpolation-filters="sRGB"><feFlood flood-opacity="0" result="BackgroundImageFix"/><feBlend in="SourceGraphic" in2="BackgroundImageFix" result="shape"/><feColorMatrix in="SourceAlpha" values="0 0 0 0 0 0 0 0 0 0 0 0 0 0 0 0 0 0 127 0" result="hardAlpha"/><feOffset dx=".25" dy=".1"/><feGaussianBlur stdDeviation=".4"/><feComposite in2="hardAlpha" operator="arithmetic" k2="-1" k3="1"/><feColorMatrix values="0 0 0 0 0.266667 0 0 0 0 0.215686 0 0 0 0 0.207843 0 0 0 1 0"/><feBlend in2="shape" result="effect1_innerShadow_3987_24056"/></filter><filter id="w" x="17.927" y="1.619" width="9.125" height="15.5" filterUnits="userSpaceOnUse" color-interpolation-filters="sRGB"><feFlood flood-opacity="0" result="BackgroundImageFix"/><feBlend in="SourceGraphic" in2="BackgroundImageFix" result="shape"/><feColorMatrix in="SourceAlpha" values="0 0 0 0 0 0 0 0 0 0 0 0 0 0 0 0 0 0 127 0" result="hardAlpha"/><feOffset dx=".5" dy="-.25"/><feGaussianBlur stdDeviation=".375"/><feComposite in2="hardAlpha" operator="arithmetic" k2="-1" k3="1"/><feColorMatrix values="0 0 0 0 0.509804 0 0 0 0 0.501961 0 0 0 0 0.498039 0 0 0 1 0"/><feBlend in2="shape" result="effect1_innerShadow_3987_24056"/></filter><filter id="y" x="11.177" y="12.994" width="14.805" height="6.438" filterUnits="userSpaceOnUse" color-interpolation-filters="sRGB"><feFlood flood-opacity="0" result="BackgroundImageFix"/><feBlend in="SourceGraphic" in2="BackgroundImageFix" result="shape"/><feColorMatrix in="SourceAlpha" values="0 0 0 0 0 0 0 0 0 0 0 0 0 0 0 0 0 0 127 0" result="hardAlpha"/><feOffset dx=".25"/><feGaussianBlur stdDeviation=".5"/><feComposite in2="hardAlpha" operator="arithmetic" k2="-1" k3="1"/><feColorMatrix values="0 0 0 0 0.415686 0 0 0 0 0.678431 0 0 0 0 0.74902 0 0 0 1 0"/><feBlend in2="shape" result="effect1_innerShadow_3987_24056"/></filter><filter id="B" x="16.06" y="13.94" width="5.582" height="5.582" filterUnits="userSpaceOnUse" color-interpolation-filters="sRGB"><feFlood flood-opacity="0" result="BackgroundImageFix"/><feBlend in="SourceGraphic" in2="BackgroundImageFix" result="shape"/><feGaussianBlur stdDeviation=".25" result="effect1_foregroundBlur_3987_24056"/></filter><filter id="E" x="11.287" y="12.793" width="6.341" height="6.485" filterUnits="userSpaceOnUse" color-interpolation-filters="sRGB"><feFlood flood-opacity="0" result="BackgroundImageFix"/><feBlend in="SourceGraphic" in2="BackgroundImageFix" result="shape"/><feGaussianBlur stdDeviation=".25" result="effect1_foregroundBlur_3987_24056"/></filter><filter id="L" x="3.771" y="16.807" width="28.578" height="11" filterUnits="userSpaceOnUse" color-interpolation-filters="sRGB"><feFlood flood-opacity="0" result="BackgroundImageFix"/><feBlend in="SourceGraphic" in2="BackgroundImageFix" result="shape"/><feColorMatrix in="SourceAlpha" values="0 0 0 0 0 0 0 0 0 0 0 0 0 0 0 0 0 0 127 0" result="hardAlpha"/><feOffset dx="3" dy="-1"/><feGaussianBlur stdDeviation="2"/><feComposite in2="hardAlpha" operator="arithmetic" k2="-1" k3="1"/><feColorMatrix values="0 0 0 0 0.678431 0 0 0 0 0.654902 0 0 0 0 0.709804 0 0 0 1 0"/><feBlend in2="shape" result="effect1_innerShadow_3987_24056"/></filter><filter id="P" x="2.662" y="15.658" width="28.344" height="2.496" filterUnits="userSpaceOnUse" color-interpolation-filters="sRGB"><feFlood flood-opacity="0" result="BackgroundImageFix"/><feBlend in="SourceGraphic" in2="BackgroundImageFix" result="shape"/><feColorMatrix in="SourceAlpha" values="0 0 0 0 0 0 0 0 0 0 0 0 0 0 0 0 0 0 127 0" result="hardAlpha"/><feOffset dx=".5" dy="-.25"/><feGaussianBlur stdDeviation=".5"/><feComposite in2="hardAlpha" operator="arithmetic" k2="-1" k3="1"/><feColorMatrix values="0 0 0 0 0.705882 0 0 0 0 0.698039 0 0 0 0 0.705882 0 0 0 1 0"/><feBlend in2="shape" result="effect1_innerShadow_3987_24056"/></filter><filter id="T" x="21.786" y="1.789" width="5.047" height="14.518" filterUnits="userSpaceOnUse" color-interpolation-filters="sRGB"><feFlood flood-opacity="0" result="BackgroundImageFix"/><feBlend in="SourceGraphic" in2="BackgroundImageFix" result="shape"/><feGaussianBlur stdDeviation=".25" result="effect1_foregroundBlur_3987_24056"/></filter><filter id="V" x="17.976" y="2.604" width="2.999" height="4.468" filterUnits="userSpaceOnUse" color-interpolation-filters="sRGB"><feFlood flood-opacity="0" result="BackgroundImageFix"/><feBlend in="SourceGraphic" in2="BackgroundImageFix" result="shape"/><feGaussianBlur stdDeviation=".25" result="effect1_foregroundBlur_3987_24056"/></filter><linearGradient id="c" x1="7.885" y1="14.204" x2="10.361" y2="11.589" gradientUnits="userSpaceOnUse"><stop stop-color="#492F32"/><stop offset="1" stop-color="#5B4542"/></linearGradient><linearGradient id="m" x1="7.079" y1="13.615" x2="7.003" y2="13.736" gradientUnits="userSpaceOnUse"><stop stop-color="#48302C"/><stop offset="1" stop-color="#48302C" stop-opacity="0"/></linearGradient><linearGradient id="q" x1="-.009" y1=".062" x2=".225" y2=".139" gradientUnits="userSpaceOnUse"><stop stop-color="#fff"/><stop offset="1" stop-color="#fff" stop-opacity="0"/></linearGradient><linearGradient id="s" x1="5.335" y1="14.574" x2="2.187" y2="12.661" gradientUnits="userSpaceOnUse"><stop offset=".421" stop-color="#454143"/><stop offset="1" stop-color="#454143" stop-opacity="0"/></linearGradient><linearGradient id="G" x1="1.641" y1="2.961" x2="-.116" y2="3.171" gradientUnits="userSpaceOnUse"><stop stop-color="#887A96"/><stop offset="1" stop-color="#A9A6AC"/></linearGradient><linearGradient id="J" x1="11.468" y1="28.867" x2="13.015" y2="28.624" gradientUnits="userSpaceOnUse"><stop stop-color="#807D83"/><stop offset="1" stop-color="#807D83" stop-opacity="0"/></linearGradient><linearGradient id="O" x1="16.56" y1="17.807" x2="16.56" y2="19.213" gradientUnits="userSpaceOnUse"><stop stop-color="#A090B0"/><stop offset="1" stop-color="#BCB0C8" stop-opacity="0"/></linearGradient><linearGradient id="R" x1="2.865" y1="17.244" x2="12.115" y2="17.244" gradientUnits="userSpaceOnUse"><stop stop-color="#BCB9BF"/><stop offset="1" stop-color="#BCB9BF" stop-opacity="0"/></linearGradient><linearGradient id="S" x1="17.927" y1="18.154" x2="17.927" y2="17.619" gradientUnits="userSpaceOnUse"><stop stop-color="#B1A1C2"/><stop offset="1" stop-color="#BBB2C3" stop-opacity="0"/></linearGradient><linearGradient id="Y" x1="19.412" y1="8.611" x2="19.412" y2="8.104" gradientUnits="userSpaceOnUse"><stop stop-color="#807F86"/><stop offset="1" stop-color="#8F9198" stop-opacity="0"/></linearGradient></defs></svg>