<svg xmlns="http://www.w3.org/2000/svg" fill="none" viewBox="0 0 32 32"><path fill="url(#person-deaf_svg__a)" d="M30.002 16.687v13.16H12.619a18.07 18.07 0 0 1 17.383-13.16"/><path fill="url(#person-deaf_svg__b)" d="M30.002 11.847c-1.657 0-3 1.38-3 3.08v3.839c0 1.701 1.343 3.08 3 3.08z"/><path fill="url(#person-deaf_svg__c)" d="M30.002 11.847c-1.657 0-3 1.38-3 3.08v3.839c0 1.701 1.343 3.08 3 3.08z"/><path fill="#FFA93B" d="M19.002 1.847a3.9 3.9 0 0 0 .642 1.56c.288.425.444.926.45 1.44v6.84a3.57 3.57 0 0 0 2.41 3.38l3.11 1.08V3.957l4.331.016V1.847z"/><path fill="url(#person-deaf_svg__d)" d="M19.002 1.847a3.9 3.9 0 0 0 .642 1.56c.288.425.444.926.45 1.44v6.84a3.57 3.57 0 0 0 2.41 3.38l3.11 1.08V3.957l4.331.016V1.847z"/><path fill="url(#person-deaf_svg__e)" d="M19.002 1.847a3.9 3.9 0 0 0 .642 1.56c.288.425.444.926.45 1.44v6.84a3.57 3.57 0 0 0 2.41 3.38l3.11 1.08V3.957l4.331.016V1.847z"/><path fill="url(#person-deaf_svg__f)" d="M19.002 1.847a3.9 3.9 0 0 0 .642 1.56c.288.425.444.926.45 1.44v6.84a3.57 3.57 0 0 0 2.41 3.38l3.11 1.08V3.957l4.331.016V1.847z"/><g filter="url(#person-deaf_svg__g)"><path fill="url(#person-deaf_svg__h)" d="M21.752 10.347a2.75 2.75 0 1 0 0-5.5 2.75 2.75 0 0 0 0 5.5"/></g><g filter="url(#person-deaf_svg__i)"><path fill="#F6941F" d="M21.752 9.347a1.75 1.75 0 1 0 0-3.5 1.75 1.75 0 0 0 0 3.5"/></g><g filter="url(#person-deaf_svg__j)"><path fill="url(#person-deaf_svg__k)" fill-rule="evenodd" d="M14.535 8.722a.85.85 0 0 1 .937.753 5.64 5.64 0 0 0 1.488 3.242.85.85 0 0 1-1.243 1.161 7.34 7.34 0 0 1-1.935-4.219.85.85 0 0 1 .753-.937" clip-rule="evenodd"/></g><g filter="url(#person-deaf_svg__l)"><path fill="url(#person-deaf_svg__m)" fill-rule="evenodd" d="M11.634 9.202a.85.85 0 0 1 .942.747c.207 1.788 1.009 3.299 2.22 4.708a.85.85 0 0 1-1.29 1.108c-1.367-1.59-2.362-3.408-2.618-5.62a.85.85 0 0 1 .746-.943" clip-rule="evenodd"/></g><path fill="#FFBC2F" d="M30.002 1.847h-8.555c-.445.5-.513 1.515-.445 2l.49 9a6.53 6.53 0 0 0 2.171 4.035c1.188 1.039 3.331 1.612 4.909 1.615h1.43z"/><path fill="url(#person-deaf_svg__n)" d="M30.002 1.847h-8.555c-.445.5-.513 1.515-.445 2l.49 9a6.53 6.53 0 0 0 2.171 4.035c1.188 1.039 3.331 1.612 4.909 1.615h1.43z"/><path fill="url(#person-deaf_svg__o)" d="M30.002 1.847h-8.555c-.445.5-.513 1.515-.445 2l.49 9a6.53 6.53 0 0 0 2.171 4.035c1.188 1.039 3.331 1.612 4.909 1.615h1.43z"/><path fill="url(#person-deaf_svg__p)" d="M30.002 1.847h-8.555c-.445.5-.513 1.515-.445 2l.49 9a6.53 6.53 0 0 0 2.171 4.035c1.188 1.039 3.331 1.612 4.909 1.615h1.43z"/><path fill="url(#person-deaf_svg__q)" d="M30.002 1.847h-8.555c-.445.5-.513 1.515-.445 2l.49 9a6.53 6.53 0 0 0 2.171 4.035c1.188 1.039 3.331 1.612 4.909 1.615h1.43z"/><path fill="url(#person-deaf_svg__r)" d="M30.002 1.847h-8.555c-.445.5-.513 1.515-.445 2l.49 9a6.53 6.53 0 0 0 2.171 4.035c1.188 1.039 3.331 1.612 4.909 1.615h1.43z"/><path fill="#FFCC3B" d="m19.143 25.656-.485.922-6.656-2.5c.052-.255.222-.994.484-1.906.263-.913.844-2.328 1.141-2.953l6.64 2.187.737-1.37a1.498 1.498 0 0 1 2.22-.487c.66.496.794 1.43.289 2.083-.361.466-.76.97-1.105 1.384-.87 1.044-1.64 1.453-2.297 1.75a2.23 2.23 0 0 0-.968.89"/><path fill="url(#person-deaf_svg__s)" d="m19.143 25.656-.485.922-6.656-2.5c.052-.255.222-.994.484-1.906.263-.913.844-2.328 1.141-2.953l6.64 2.187.737-1.37a1.498 1.498 0 0 1 2.22-.487c.66.496.794 1.43.289 2.083-.361.466-.76.97-1.105 1.384-.87 1.044-1.64 1.453-2.297 1.75a2.23 2.23 0 0 0-.968.89"/><path fill="url(#person-deaf_svg__t)" d="m19.143 25.656-.485.922-6.656-2.5c.052-.255.222-.994.484-1.906.263-.913.844-2.328 1.141-2.953l6.64 2.187.737-1.37a1.498 1.498 0 0 1 2.22-.487c.66.496.794 1.43.289 2.083-.361.466-.76.97-1.105 1.384-.87 1.044-1.64 1.453-2.297 1.75a2.23 2.23 0 0 0-.968.89"/><path fill="url(#person-deaf_svg__u)" d="m19.143 25.656-.485.922-6.656-2.5c.052-.255.222-.994.484-1.906.263-.913.844-2.328 1.141-2.953l6.64 2.187.737-1.37a1.498 1.498 0 0 1 2.22-.487c.66.496.794 1.43.289 2.083-.361.466-.76.97-1.105 1.384-.87 1.044-1.64 1.453-2.297 1.75a2.23 2.23 0 0 0-.968.89"/><path fill="url(#person-deaf_svg__v)" d="m19.143 25.656-.485.922-6.656-2.5c.052-.255.222-.994.484-1.906.263-.913.844-2.328 1.141-2.953l6.64 2.187.737-1.37a1.498 1.498 0 0 1 2.22-.487c.66.496.794 1.43.289 2.083-.361.466-.76.97-1.105 1.384-.87 1.044-1.64 1.453-2.297 1.75a2.23 2.23 0 0 0-.968.89"/><path fill="url(#person-deaf_svg__w)" d="m19.143 25.656-.485.922-6.656-2.5c.052-.255.222-.994.484-1.906.263-.913.844-2.328 1.141-2.953l6.64 2.187.737-1.37a1.498 1.498 0 0 1 2.22-.487c.66.496.794 1.43.289 2.083-.361.466-.76.97-1.105 1.384-.87 1.044-1.64 1.453-2.297 1.75a2.23 2.23 0 0 0-.968.89"/><path fill="url(#person-deaf_svg__x)" d="m19.143 25.656-.485.922-6.656-2.5c.052-.255.222-.994.484-1.906.263-.913.844-2.328 1.141-2.953l6.64 2.187.737-1.37a1.498 1.498 0 0 1 2.22-.487c.66.496.794 1.43.289 2.083-.361.466-.76.97-1.105 1.384-.87 1.044-1.64 1.453-2.297 1.75a2.23 2.23 0 0 0-.968.89"/><rect width="2.859" height="8.147" x="21.155" y="13.208" fill="#FFC836" rx="1.429" transform="rotate(25.409 21.155 13.208)"/><rect width="2.859" height="8.147" x="21.155" y="13.208" fill="url(#person-deaf_svg__y)" rx="1.429" transform="rotate(25.409 21.155 13.208)"/><rect width="2.859" height="8.147" x="21.155" y="13.208" fill="url(#person-deaf_svg__z)" rx="1.429" transform="rotate(25.409 21.155 13.208)"/><path fill="url(#person-deaf_svg__A)" d="M19.384 17.206a2.43 2.43 0 0 0-2.296.875l1.227 2.02c-.058.733.093 2.241 1.22 2.383 1.408.176 1.935-1.088 1.995-2.382.06-1.285-.724-2.664-2.146-2.896"/><path fill="url(#person-deaf_svg__B)" d="M19.384 17.206a2.43 2.43 0 0 0-2.296.875l1.227 2.02c-.058.733.093 2.241 1.22 2.383 1.408.176 1.935-1.088 1.995-2.382.06-1.285-.724-2.664-2.146-2.896"/><path fill="url(#person-deaf_svg__C)" d="M19.384 17.206a2.43 2.43 0 0 0-2.296.875l1.227 2.02c-.058.733.093 2.241 1.22 2.383 1.408.176 1.935-1.088 1.995-2.382.06-1.285-.724-2.664-2.146-2.896"/><path fill="url(#person-deaf_svg__D)" d="M17.986 17.156c-1.23-.206-2.086.524-2.382.93l1.273 2.148c-.06.779.097 2.382 1.266 2.532 1.46.187 2.008-1.157 2.07-2.532.062-1.365-.75-2.83-2.227-3.078"/><path fill="url(#person-deaf_svg__E)" d="M17.986 17.156c-1.23-.206-2.086.524-2.382.93l1.273 2.148c-.06.779.097 2.382 1.266 2.532 1.46.187 2.008-1.157 2.07-2.532.062-1.365-.75-2.83-2.227-3.078"/><path fill="url(#person-deaf_svg__F)" d="M17.986 17.156c-1.23-.206-2.086.524-2.382.93l1.273 2.148c-.06.779.097 2.382 1.266 2.532 1.46.187 2.008-1.157 2.07-2.532.062-1.365-.75-2.83-2.227-3.078"/><path fill="url(#person-deaf_svg__G)" d="M17.783 21.152c.598-1.607-.205-2.863-1.062-3.222-1.038-.436-2.5-.086-3.149 1.414l.29 1.015 1.174-.512c.082-.035.167.048.137.132-.64 1.79.251 2.099.642 2.287.248.119 1.414.379 1.968-1.114"/><path fill="url(#person-deaf_svg__H)" d="M17.783 21.152c.598-1.607-.205-2.863-1.062-3.222-1.038-.436-2.5-.086-3.149 1.414l.29 1.015 1.174-.512c.082-.035.167.048.137.132-.64 1.79.251 2.099.642 2.287.248.119 1.414.379 1.968-1.114"/><g filter="url(#person-deaf_svg__I)"><path fill="#B04F35" fill-rule="evenodd" d="M26.731 3.355a3.6 3.6 0 0 0-2.465.59.49.49 0 0 1-.548-.812 4.58 4.58 0 0 1 3.135-.75.49.49 0 0 1-.122.972" clip-rule="evenodd"/></g><g filter="url(#person-deaf_svg__J)"><path fill="#FEA02A" d="M29.777 7.847a.7.7 0 0 0-.31.123.67.67 0 0 0-.247.34l-.995 2.065a.9.9 0 0 0 .143.808c.087.114.2.207.33.271.362.18.849-.034 1.195-.142z"/></g><path fill="url(#person-deaf_svg__K)" d="M30.002 6.853a.63.63 0 0 0-.29.124.67.67 0 0 0-.234.34l-.847 2.852a.95.95 0 0 0 .135.808.9.9 0 0 0 .31.272.85.85 0 0 0 .393.098h.533z"/><path fill="url(#person-deaf_svg__L)" d="M30.002 6.853a.63.63 0 0 0-.29.124.67.67 0 0 0-.234.34l-.847 2.852a.95.95 0 0 0 .135.808.9.9 0 0 0 .31.272.85.85 0 0 0 .393.098h.533z"/><g filter="url(#person-deaf_svg__M)"><path stroke="url(#person-deaf_svg__N)" stroke-width=".2" d="M30.102 12.87v1.558l-.092.008a3.173 3.173 0 0 1-1.853-.422 3.4 3.4 0 0 1-1.204-1.192l-.002-.003a.4.4 0 0 1-.047-.23.4.4 0 0 1 .092-.217zm0 0-.105.004m.105-.005-.105.005m0 0a5 5 0 0 1-.244.005h-.002m.246-.005-.246.005m0 0a4.74 4.74 0 0 1-2.323-.592m2.323.592-2.323-.592m0 0-.002-.001m.002.001-.002-.001m0 0a.35.35 0 0 0-.23-.032m.23.032-.23-.032m0 0a.36.36 0 0 0-.2.118z"/></g><path fill="url(#person-deaf_svg__O)" d="M30.002 12.974a5 5 0 0 1-.25.005 4.84 4.84 0 0 1-2.372-.604.25.25 0 0 0-.164-.023.26.26 0 0 0-.144.085.297.297 0 0 0-.033.333c.292.484.694.882 1.168 1.157a3.07 3.07 0 0 0 1.795.41z"/><path fill="url(#person-deaf_svg__P)" d="m18.65 26.188-5.941-2.638a.5.5 0 0 0-.66.254l-.617 1.389a.5.5 0 0 0 .254.66l5.94 2.638a.5.5 0 0 0 .66-.254l.617-1.389a.5.5 0 0 0-.254-.66"/><path fill="url(#person-deaf_svg__Q)" d="m18.65 26.188-5.941-2.638a.5.5 0 0 0-.66.254l-.617 1.389a.5.5 0 0 0 .254.66l5.94 2.638a.5.5 0 0 0 .66-.254l.617-1.389a.5.5 0 0 0-.254-.66"/><path fill="url(#person-deaf_svg__R)" d="m18.65 26.188-5.941-2.638a.5.5 0 0 0-.66.254l-.617 1.389a.5.5 0 0 0 .254.66l5.94 2.638a.5.5 0 0 0 .66-.254l.617-1.389a.5.5 0 0 0-.254-.66"/><path fill="url(#person-deaf_svg__S)" d="M18.876 29.847H8.045l1.76-4.056c.169-.385.481-.686.869-.838a1.55 1.55 0 0 1 1.198.03l6.204 2.772c.377.175.671.492.82.885.148.39.14.823-.02 1.207"/><path fill="url(#person-deaf_svg__T)" d="M18.876 29.847H8.045l1.76-4.056c.169-.385.481-.686.869-.838a1.55 1.55 0 0 1 1.198.03l6.204 2.772c.377.175.671.492.82.885.148.39.14.823-.02 1.207"/><path fill="url(#person-deaf_svg__U)" d="M18.876 29.847H8.045l1.76-4.056c.169-.385.481-.686.869-.838a1.55 1.55 0 0 1 1.198.03l6.204 2.772c.377.175.671.492.82.885.148.39.14.823-.02 1.207"/><path fill="#fff" d="M26.008 5.497a2.345 2.345 0 0 0-2.275 1.778.46.46 0 0 0 .45.572h3.746c.239 0 .43-.218.382-.457a2.35 2.35 0 0 0-2.303-1.893"/><path fill="url(#person-deaf_svg__V)" d="M26.356 5.953a1.5 1.5 0 0 0-1.445 1.894h2.895q.054-.193.055-.395a1.51 1.51 0 0 0-1.505-1.499"/><path fill="#000" d="M27.214 7.452a.855.855 0 0 0-.858-.858.855.855 0 0 0-.859.858c0 .143.034.279.096.395h1.519a.85.85 0 0 0 .102-.395"/><g filter="url(#person-deaf_svg__W)"><path fill="url(#person-deaf_svg__X)" d="M27.725 7.276c0-.484-.394-.807-.5-.905l-.485.468.298.607z"/></g><g filter="url(#person-deaf_svg__Y)"><path fill="url(#person-deaf_svg__Z)" fill-opacity=".9" d="M26.44 6.386c.085.16.044.355-.32.389a.37.37 0 0 0-.26.161c-.155.22-.356.144-.438-.01-.097-.184.052-.453.333-.602s.588-.121.685.062"/><path fill="url(#person-deaf_svg__aa)" d="M26.44 6.386c.085.16.044.355-.32.389a.37.37 0 0 0-.26.161c-.155.22-.356.144-.438-.01-.097-.184.052-.453.333-.602s.588-.121.685.062"/></g><g stroke-linecap="round" stroke-width=".2" filter="url(#person-deaf_svg__ab)"><path stroke="url(#person-deaf_svg__ac)" d="M23.97 3.406c.397-.291 1.526-.837 2.876-.687"/><path stroke="url(#person-deaf_svg__ad)" d="M23.97 3.406c.397-.291 1.526-.837 2.876-.687"/></g><g filter="url(#person-deaf_svg__ae)"><path stroke="#D4D2DD" stroke-linecap="round" stroke-width=".5" d="M12.002 9.888c.12 1.041.849 3.49 2.436 5.146"/></g><g filter="url(#person-deaf_svg__af)"><path stroke="#D4D2DD" stroke-linecap="round" stroke-width=".5" d="M14.87 9.487c.142.831.67 2.716 1.632 3.61"/></g><defs><radialGradient id="person-deaf_svg__a" cx="0" cy="0" r="1" gradientTransform="matrix(-8.25 6.43749 -5.94882 -7.62374 28.627 21.5)" gradientUnits="userSpaceOnUse"><stop stop-color="#FF791B"/><stop offset="1" stop-color="#EC5925"/></radialGradient><radialGradient id="person-deaf_svg__c" cx="0" cy="0" r="1" gradientTransform="matrix(0 2.25 -2.01563 0 27.814 17.938)" gradientUnits="userSpaceOnUse"><stop stop-color="#E27E2F"/><stop offset="1" stop-color="#E27E2F" stop-opacity="0"/></radialGradient><radialGradient id="person-deaf_svg__e" cx="0" cy="0" r="1" gradientTransform="rotate(157.751 10.847 3.69)scale(2.22841 4.74135)" gradientUnits="userSpaceOnUse"><stop offset=".481" stop-color="#E87B26"/><stop offset="1" stop-color="#E87B26" stop-opacity="0"/></radialGradient><radialGradient id="person-deaf_svg__f" cx="0" cy="0" r="1" gradientTransform="matrix(.32812 2.98438 -.50734 .05578 20.752 .86)" gradientUnits="userSpaceOnUse"><stop offset=".288" stop-color="#FD9610"/><stop offset="1" stop-color="#FD9610" stop-opacity="0"/></radialGradient><radialGradient id="person-deaf_svg__h" cx="0" cy="0" r="1" gradientTransform="matrix(3.25 3.40625 -3.96363 3.78181 19.596 6.375)" gradientUnits="userSpaceOnUse"><stop stop-color="#FFB734"/><stop offset="1" stop-color="#F59624"/></radialGradient><radialGradient id="person-deaf_svg__k" cx="0" cy="0" r="1" gradientTransform="rotate(151.783 6.755 7.628)scale(2.18107 6.10648)" gradientUnits="userSpaceOnUse"><stop offset=".256" stop-color="#CFCBD9"/><stop offset="1" stop-color="#978CA5"/></radialGradient><radialGradient id="person-deaf_svg__m" cx="0" cy="0" r="1" gradientTransform="rotate(150.678 5.367 7.964)scale(2.66165 7.63701)" gradientUnits="userSpaceOnUse"><stop offset=".256" stop-color="#CFCBD9"/><stop offset="1" stop-color="#978CA5"/></radialGradient><radialGradient id="person-deaf_svg__o" cx="0" cy="0" r="1" gradientTransform="matrix(0 -8.32499 31.8869 0 30.002 18.497)" gradientUnits="userSpaceOnUse"><stop offset=".08" stop-color="#DE8043"/><stop offset="1" stop-color="#FFBA2F" stop-opacity="0"/></radialGradient><radialGradient id="person-deaf_svg__p" cx="0" cy="0" r="1" gradientTransform="matrix(0 12.9922 -13.8743 0 29.502 5.562)" gradientUnits="userSpaceOnUse"><stop offset=".978" stop-color="#F27C64" stop-opacity="0"/><stop offset="1" stop-color="#F27C64"/></radialGradient><radialGradient id="person-deaf_svg__q" cx="0" cy="0" r="1" gradientTransform="matrix(0 -2.65625 3.40625 0 26.22 5.656)" gradientUnits="userSpaceOnUse"><stop offset=".21" stop-color="#FEA128"/><stop offset="1" stop-color="#FEA128" stop-opacity="0"/></radialGradient><radialGradient id="person-deaf_svg__r" cx="0" cy="0" r="1" gradientTransform="matrix(2.1875 -3.71875 1.154 .67882 20.47 2.25)" gradientUnits="userSpaceOnUse"><stop offset=".287" stop-color="#DE7606"/><stop offset="1" stop-color="#DE7606" stop-opacity="0"/></radialGradient><radialGradient id="person-deaf_svg__s" cx="0" cy="0" r="1" gradientTransform="matrix(-.46875 3.1875 -3.36293 -.49455 18.127 21.406)" gradientUnits="userSpaceOnUse"><stop offset=".44" stop-color="#FF9D3C"/><stop offset="1" stop-color="#FF9D3C" stop-opacity="0"/></radialGradient><radialGradient id="person-deaf_svg__t" cx="0" cy="0" r="1" gradientTransform="rotate(155.042 9.68 12.714)scale(2.07371 2.38629)" gradientUnits="userSpaceOnUse"><stop offset=".102" stop-color="#FFE645"/><stop offset="1" stop-color="#FFE645" stop-opacity="0"/></radialGradient><radialGradient id="person-deaf_svg__u" cx="0" cy="0" r="1" gradientTransform="matrix(4.28125 .52344 -.73073 5.9767 13.315 22.375)" gradientUnits="userSpaceOnUse"><stop offset=".021" stop-color="#FFAD30"/><stop offset="1" stop-color="#FFAD30" stop-opacity="0"/></radialGradient><radialGradient id="person-deaf_svg__v" cx="0" cy="0" r="1" gradientTransform="matrix(1.4375 -3.71875 2.17154 .83942 21.283 25.625)" gradientUnits="userSpaceOnUse"><stop offset=".468" stop-color="#FFB72C"/><stop offset="1" stop-color="#FFB72C" stop-opacity="0"/></radialGradient><radialGradient id="person-deaf_svg__w" cx="0" cy="0" r="1" gradientTransform="matrix(-1.10937 2.25782 -1.47378 -.72413 16.377 20.64)" gradientUnits="userSpaceOnUse"><stop offset=".623" stop-color="#F67B38"/><stop offset="1" stop-color="#F67B38" stop-opacity="0"/></radialGradient><radialGradient id="person-deaf_svg__x" cx="0" cy="0" r="1" gradientTransform="matrix(-.56251 2.03125 -1.45908 -.40406 17.83 21.375)" gradientUnits="userSpaceOnUse"><stop offset=".431" stop-color="#DE722B"/><stop offset="1" stop-color="#DE722B" stop-opacity="0"/></radialGradient><radialGradient id="person-deaf_svg__z" cx="0" cy="0" r="1" gradientTransform="rotate(116.86 7.579 13.969)scale(2.06445 1.97258)" gradientUnits="userSpaceOnUse"><stop stop-color="#FFE746"/><stop offset="1" stop-color="#FFE746" stop-opacity="0"/></radialGradient><radialGradient id="person-deaf_svg__A" cx="0" cy="0" r="1" gradientTransform="rotate(147.572 8.061 12.435)scale(2.29023 3.42612)" gradientUnits="userSpaceOnUse"><stop stop-color="#FFEA46"/><stop offset=".928" stop-color="#FFC82D"/></radialGradient><radialGradient id="person-deaf_svg__B" cx="0" cy="0" r="1" gradientTransform="matrix(1.23147 -.56064 .71722 1.5754 19.957 22.5)" gradientUnits="userSpaceOnUse"><stop stop-color="#EE7E41"/><stop offset="1" stop-color="#FDAA3C" stop-opacity="0"/></radialGradient><radialGradient id="person-deaf_svg__C" cx="0" cy="0" r="1" gradientTransform="matrix(1.0098 4.1052 -2.79361 .68718 19.428 18.671)" gradientUnits="userSpaceOnUse"><stop offset=".867" stop-color="#E98757" stop-opacity="0"/><stop offset=".949" stop-color="#E98757"/></radialGradient><radialGradient id="person-deaf_svg__D" cx="0" cy="0" r="1" gradientTransform="matrix(-2.0059 1.30528 -1.9722 -3.03078 20.216 18.646)" gradientUnits="userSpaceOnUse"><stop stop-color="#FFEB48"/><stop offset="1" stop-color="#FFC63A"/></radialGradient><radialGradient id="person-deaf_svg__E" cx="0" cy="0" r="1" gradientTransform="rotate(135.546 5.974 13.514)scale(3.48863 6.50366)" gradientUnits="userSpaceOnUse"><stop offset=".618" stop-color="#FDAA3C" stop-opacity="0"/><stop offset="1" stop-color="#E76F17"/></radialGradient><radialGradient id="person-deaf_svg__F" cx="0" cy="0" r="1" gradientTransform="matrix(1.7769 5.30926 -4.27366 1.4303 17.342 17.818)" gradientUnits="userSpaceOnUse"><stop offset=".887" stop-color="#EC8759" stop-opacity="0"/><stop offset=".97" stop-color="#EC8759"/></radialGradient><radialGradient id="person-deaf_svg__G" cx="0" cy="0" r="1" gradientTransform="matrix(-2.48813 1.5654 -2.19026 -3.48131 17.99 18.997)" gradientUnits="userSpaceOnUse"><stop stop-color="#FFEB48"/><stop offset="1" stop-color="#FFBB36"/></radialGradient><radialGradient id="person-deaf_svg__H" cx="0" cy="0" r="1" gradientTransform="rotate(-86.517 20.051 2.68)scale(1.8002 3.61142)" gradientUnits="userSpaceOnUse"><stop offset=".095" stop-color="#F78039"/><stop offset="1" stop-color="#FFBD38" stop-opacity="0"/></radialGradient><radialGradient id="person-deaf_svg__L" cx="0" cy="0" r="1" gradientTransform="matrix(0 -1.253 2.26733 0 30.08 11.347)" gradientUnits="userSpaceOnUse"><stop stop-color="#EA8D30"/><stop offset="1" stop-color="#EA8D30" stop-opacity="0"/></radialGradient><radialGradient id="person-deaf_svg__O" cx="0" cy="0" r="1" gradientTransform="matrix(-2.08594 0 0 -2.32812 30.096 13.64)" gradientUnits="userSpaceOnUse"><stop stop-color="#910554"/><stop offset="1" stop-color="#88004E"/></radialGradient><radialGradient id="person-deaf_svg__Q" cx="0" cy="0" r="1" gradientTransform="rotate(113.199 -.095 18.44)scale(.47757 4.82093)" gradientUnits="userSpaceOnUse"><stop offset=".073" stop-color="#FF844D"/><stop offset=".629" stop-color="#FF844D" stop-opacity="0"/></radialGradient><radialGradient id="person-deaf_svg__U" cx="0" cy="0" r="1" gradientTransform="rotate(113.806 -.376 19.057)scale(1.16131 4.175)" gradientUnits="userSpaceOnUse"><stop offset=".207" stop-color="#FF914A"/><stop offset="1" stop-color="#FF914A" stop-opacity="0"/></radialGradient><radialGradient id="person-deaf_svg__V" cx="0" cy="0" r="1" gradientTransform="matrix(0 1.36233 -2.16693 0 26.359 6.754)" gradientUnits="userSpaceOnUse"><stop offset=".802" stop-color="#925C51"/><stop offset="1" stop-color="#694B43"/><stop offset="1" stop-color="#804D49"/><stop offset="1" stop-color="#85534D"/></radialGradient><radialGradient id="person-deaf_svg__Z" cx="0" cy="0" r="1" gradientTransform="matrix(-.32813 -.53906 .98203 -.59777 26.115 7.004)" gradientUnits="userSpaceOnUse"><stop offset=".208" stop-color="#C7A7A3" stop-opacity=".25"/><stop offset=".79" stop-color="#C7A7A3"/></radialGradient><radialGradient id="person-deaf_svg__aa" cx="0" cy="0" r="1" gradientTransform="matrix(-.45084 -.82655 .77084 -.42045 26.192 7.197)" gradientUnits="userSpaceOnUse"><stop offset=".766" stop-color="#FFE6E2" stop-opacity="0"/><stop offset=".966" stop-color="#FFE6E2"/></radialGradient><linearGradient id="person-deaf_svg__b" x1="30.314" x2="28.846" y1="19.156" y2="19.156" gradientUnits="userSpaceOnUse"><stop stop-color="#F9B52D"/><stop offset="1" stop-color="#EE9C21"/></linearGradient><linearGradient id="person-deaf_svg__d" x1="21.658" x2="21.658" y1="14.531" y2="9.781" gradientUnits="userSpaceOnUse"><stop stop-color="#F67E32"/><stop offset="1" stop-color="#F67E32" stop-opacity="0"/></linearGradient><linearGradient id="person-deaf_svg__n" x1="21.252" x2="23.408" y1="9.375" y2="9.281" gradientUnits="userSpaceOnUse"><stop stop-color="#FFBC45"/><stop offset="1" stop-color="#FFBC45" stop-opacity="0"/></linearGradient><linearGradient id="person-deaf_svg__y" x1="21.331" x2="22.083" y1="18.534" y2="15.973" gradientUnits="userSpaceOnUse"><stop offset=".159" stop-color="#FFBC2B"/><stop offset="1" stop-color="#FFBC2B" stop-opacity="0"/></linearGradient><linearGradient id="person-deaf_svg__K" x1="29.298" x2="29.298" y1="6.853" y2="11.347" gradientUnits="userSpaceOnUse"><stop stop-color="#FFBD2F" stop-opacity="0"/><stop offset=".339" stop-color="#FFC231"/></linearGradient><linearGradient id="person-deaf_svg__N" x1="27.689" x2="28.783" y1="13.906" y2="13.347" gradientUnits="userSpaceOnUse"><stop stop-color="#FFB93A"/><stop offset="1" stop-color="#FFB93A" stop-opacity="0"/></linearGradient><linearGradient id="person-deaf_svg__P" x1="12.552" x2="18.666" y1="25.289" y2="27.923" gradientUnits="userSpaceOnUse"><stop stop-color="#ED6432"/><stop offset="1" stop-color="#FF6D2E"/></linearGradient><linearGradient id="person-deaf_svg__R" x1="11.643" x2="13.101" y1="24.851" y2="25.556" gradientUnits="userSpaceOnUse"><stop offset=".399" stop-color="#EC7045"/><stop offset="1" stop-color="#EC7045" stop-opacity="0"/></linearGradient><linearGradient id="person-deaf_svg__S" x1="9.315" x2="17.502" y1="27.906" y2="31" gradientUnits="userSpaceOnUse"><stop stop-color="#E76025"/><stop offset="1" stop-color="#FF7732"/></linearGradient><linearGradient id="person-deaf_svg__T" x1="15.19" x2="14.44" y1="26.031" y2="27.75" gradientUnits="userSpaceOnUse"><stop stop-color="#FF8A25"/><stop offset="1" stop-color="#FF8A25" stop-opacity="0"/></linearGradient><linearGradient id="person-deaf_svg__X" x1="27.608" x2="27.081" y1="6.845" y2="7.169" gradientUnits="userSpaceOnUse"><stop stop-color="#B4948D"/><stop offset="1" stop-color="#B4948D" stop-opacity="0"/></linearGradient><linearGradient id="person-deaf_svg__ac" x1="26.942" x2="24.86" y1="2.745" y2="1.558" gradientUnits="userSpaceOnUse"><stop offset=".01" stop-color="#C26756"/><stop offset="1" stop-color="#C26756" stop-opacity="0"/></linearGradient><linearGradient id="person-deaf_svg__ad" x1="23.971" x2="24.546" y1="3.609" y2="3.728" gradientUnits="userSpaceOnUse"><stop offset=".01" stop-color="#C26756"/><stop offset="1" stop-color="#C26756" stop-opacity="0"/></linearGradient><filter id="person-deaf_svg__g" width="5.5" height="5.75" x="19.002" y="4.597" color-interpolation-filters="sRGB" filterUnits="userSpaceOnUse"><feFlood flood-opacity="0" result="BackgroundImageFix"/><feBlend in="SourceGraphic" in2="BackgroundImageFix" result="shape"/><feColorMatrix in="SourceAlpha" result="hardAlpha" values="0 0 0 0 0 0 0 0 0 0 0 0 0 0 0 0 0 0 127 0"/><feOffset dy="-.25"/><feGaussianBlur stdDeviation=".25"/><feComposite in2="hardAlpha" k2="-1" k3="1" operator="arithmetic"/><feColorMatrix values="0 0 0 0 0.878326 0 0 0 0 0.567095 0 0 0 0 0.319381 0 0 0 1 0"/><feBlend in2="shape" result="effect1_innerShadow_4002_3946"/></filter><filter id="person-deaf_svg__i" width="4.5" height="4.5" x="19.502" y="5.347" color-interpolation-filters="sRGB" filterUnits="userSpaceOnUse"><feFlood flood-opacity="0" result="BackgroundImageFix"/><feBlend in="SourceGraphic" in2="BackgroundImageFix" result="shape"/><feGaussianBlur result="effect1_foregroundBlur_4002_3946" stdDeviation=".25"/></filter><filter id="person-deaf_svg__j" width="3.711" height="5.581" x="13.677" y="8.617" color-interpolation-filters="sRGB" filterUnits="userSpaceOnUse"><feFlood flood-opacity="0" result="BackgroundImageFix"/><feBlend in="SourceGraphic" in2="BackgroundImageFix" result="shape"/><feColorMatrix in="SourceAlpha" result="hardAlpha" values="0 0 0 0 0 0 0 0 0 0 0 0 0 0 0 0 0 0 127 0"/><feOffset dx=".2" dy="-.1"/><feGaussianBlur stdDeviation=".3"/><feComposite in2="hardAlpha" k2="-1" k3="1" operator="arithmetic"/><feColorMatrix values="0 0 0 0 0.427451 0 0 0 0 0.380392 0 0 0 0 0.478431 0 0 0 1 0"/><feBlend in2="shape" result="effect1_innerShadow_4002_3946"/><feColorMatrix in="SourceAlpha" result="hardAlpha" values="0 0 0 0 0 0 0 0 0 0 0 0 0 0 0 0 0 0 127 0"/><feOffset dx="-.1" dy=".05"/><feGaussianBlur stdDeviation=".15"/><feComposite in2="hardAlpha" k2="-1" k3="1" operator="arithmetic"/><feColorMatrix values="0 0 0 0 0.678431 0 0 0 0 0.678431 0 0 0 0 0.694118 0 0 0 1 0"/><feBlend in2="effect1_innerShadow_4002_3946" result="effect2_innerShadow_4002_3946"/></filter><filter id="person-deaf_svg__l" width="4.419" height="7.014" x="10.782" y="9.097" color-interpolation-filters="sRGB" filterUnits="userSpaceOnUse"><feFlood flood-opacity="0" result="BackgroundImageFix"/><feBlend in="SourceGraphic" in2="BackgroundImageFix" result="shape"/><feColorMatrix in="SourceAlpha" result="hardAlpha" values="0 0 0 0 0 0 0 0 0 0 0 0 0 0 0 0 0 0 127 0"/><feOffset dx=".2" dy="-.1"/><feGaussianBlur stdDeviation=".3"/><feComposite in2="hardAlpha" k2="-1" k3="1" operator="arithmetic"/><feColorMatrix values="0 0 0 0 0.427451 0 0 0 0 0.380392 0 0 0 0 0.478431 0 0 0 1 0"/><feBlend in2="shape" result="effect1_innerShadow_4002_3946"/><feColorMatrix in="SourceAlpha" result="hardAlpha" values="0 0 0 0 0 0 0 0 0 0 0 0 0 0 0 0 0 0 127 0"/><feOffset dx="-.1" dy=".05"/><feGaussianBlur stdDeviation=".15"/><feComposite in2="hardAlpha" k2="-1" k3="1" operator="arithmetic"/><feColorMatrix values="0 0 0 0 0.678431 0 0 0 0 0.678431 0 0 0 0 0.694118 0 0 0 1 0"/><feBlend in2="effect1_innerShadow_4002_3946" result="effect2_innerShadow_4002_3946"/></filter><filter id="person-deaf_svg__I" width="3.88" height="1.932" x="23.502" y="2.097" color-interpolation-filters="sRGB" filterUnits="userSpaceOnUse"><feFlood flood-opacity="0" result="BackgroundImageFix"/><feBlend in="SourceGraphic" in2="BackgroundImageFix" result="shape"/><feColorMatrix in="SourceAlpha" result="hardAlpha" values="0 0 0 0 0 0 0 0 0 0 0 0 0 0 0 0 0 0 127 0"/><feOffset dx=".1" dy="-.25"/><feGaussianBlur stdDeviation=".125"/><feComposite in2="hardAlpha" k2="-1" k3="1" operator="arithmetic"/><feColorMatrix values="0 0 0 0 0.670588 0 0 0 0 0.227451 0 0 0 0 0.258824 0 0 0 1 0"/><feBlend in2="shape" result="effect1_innerShadow_4002_3946"/></filter><filter id="person-deaf_svg__J" width="2.707" height="4.677" x="27.685" y="7.347" color-interpolation-filters="sRGB" filterUnits="userSpaceOnUse"><feFlood flood-opacity="0" result="BackgroundImageFix"/><feBlend in="SourceGraphic" in2="BackgroundImageFix" result="shape"/><feGaussianBlur result="effect1_foregroundBlur_4002_3946" stdDeviation=".25"/></filter><filter id="person-deaf_svg__M" width="3.8" height="2.8" x="26.602" y="11.947" color-interpolation-filters="sRGB" filterUnits="userSpaceOnUse"><feFlood flood-opacity="0" result="BackgroundImageFix"/><feBlend in="SourceGraphic" in2="BackgroundImageFix" result="shape"/><feGaussianBlur result="effect1_foregroundBlur_4002_3946" stdDeviation=".1"/></filter><filter id="person-deaf_svg__W" width="1.385" height="1.475" x="26.54" y="6.171" color-interpolation-filters="sRGB" filterUnits="userSpaceOnUse"><feFlood flood-opacity="0" result="BackgroundImageFix"/><feBlend in="SourceGraphic" in2="BackgroundImageFix" result="shape"/><feGaussianBlur result="effect1_foregroundBlur_4002_3946" stdDeviation=".1"/></filter><filter id="person-deaf_svg__Y" width="1.285" height="1.044" x="25.293" y="6.128" color-interpolation-filters="sRGB" filterUnits="userSpaceOnUse"><feFlood flood-opacity="0" result="BackgroundImageFix"/><feBlend in="SourceGraphic" in2="BackgroundImageFix" result="shape"/><feGaussianBlur result="effect1_foregroundBlur_4002_3946" stdDeviation=".05"/></filter><filter id="person-deaf_svg__ab" width="3.575" height="1.413" x="23.621" y="2.343" color-interpolation-filters="sRGB" filterUnits="userSpaceOnUse"><feFlood flood-opacity="0" result="BackgroundImageFix"/><feBlend in="SourceGraphic" in2="BackgroundImageFix" result="shape"/><feGaussianBlur result="effect1_foregroundBlur_4002_3946" stdDeviation=".125"/></filter><filter id="person-deaf_svg__ae" width="3.936" height="6.647" x="11.252" y="9.138" color-interpolation-filters="sRGB" filterUnits="userSpaceOnUse"><feFlood flood-opacity="0" result="BackgroundImageFix"/><feBlend in="SourceGraphic" in2="BackgroundImageFix" result="shape"/><feGaussianBlur result="effect1_foregroundBlur_4002_3946" stdDeviation=".25"/></filter><filter id="person-deaf_svg__af" width="3.133" height="5.109" x="14.119" y="8.737" color-interpolation-filters="sRGB" filterUnits="userSpaceOnUse"><feFlood flood-opacity="0" result="BackgroundImageFix"/><feBlend in="SourceGraphic" in2="BackgroundImageFix" result="shape"/><feGaussianBlur result="effect1_foregroundBlur_4002_3946" stdDeviation=".25"/></filter></defs></svg>