<svg width="32" height="32" fill="none" xmlns="http://www.w3.org/2000/svg"><g filter="url(#a)"><path fill-rule="evenodd" clip-rule="evenodd" d="M7.027 21.58a3.969 3.969 0 1 0 0 7.938 3.969 3.969 0 0 0 0-7.937ZM2.06 25.55a4.969 4.969 0 1 1 9.937 0 4.969 4.969 0 0 1-9.937 0Z" fill="url(#b)"/></g><g filter="url(#c)"><circle cx="7.027" cy="25.549" r="4.555" stroke="url(#d)" stroke-width=".3"/></g><path d="m19.158 20.706-1.826-1.989-.424 2.059.924.672 1.326-.742Z" fill="url(#e)"/><path d="m17.853 21.439-.3 1.98c-.067.476-.04.887.364 1.167.102.07.237.031.307-.071l1.963-2.902a.2.2 0 0 0-.053-.277l-.952-.645-1.33.748Z" fill="#413354"/><path d="m17.853 21.439-.3 1.98c-.067.476-.04.887.364 1.167.102.07.237.031.307-.071l1.963-2.902a.2.2 0 0 0-.053-.277l-.952-.645-1.33.748Z" fill="url(#f)"/><path d="m17.853 21.439-.3 1.98c-.067.476-.04.887.364 1.167.102.07.237.031.307-.071l1.963-2.902a.2.2 0 0 0-.053-.277l-.952-.645-1.33.748Z" fill="url(#g)"/><path fill-rule="evenodd" clip-rule="evenodd" d="M12.46 12.173a.5.5 0 0 1 .271.653l-2.54 6.247a.5.5 0 0 1-.924-.382l2.54-6.246a.5.5 0 0 1 .653-.272Z" fill="url(#h)"/><path fill-rule="evenodd" clip-rule="evenodd" d="M12.46 12.173a.5.5 0 0 1 .271.653l-2.54 6.247a.5.5 0 0 1-.924-.382l2.54-6.246a.5.5 0 0 1 .653-.272Z" fill="url(#i)"/><path fill-rule="evenodd" clip-rule="evenodd" d="M10.526 16.908a.55.55 0 0 1 .3.718l-3.29 8a.55.55 0 1 1-1.017-.419l3.289-8a.55.55 0 0 1 .718-.3Z" fill="url(#j)"/><path fill-rule="evenodd" clip-rule="evenodd" d="M9.602 19.135c.101-.222.43-.465.672-.281l6.25 4.75a.55.55 0 1 1-.665.875l-6.081-4.61c-.242-.183-.305-.453-.176-.734Z" fill="url(#k)"/><path fill-rule="evenodd" clip-rule="evenodd" d="M9.602 19.135c.101-.222.43-.465.672-.281l6.25 4.75a.55.55 0 1 1-.665.875l-6.081-4.61c-.242-.183-.305-.453-.176-.734Z" fill="url(#l)"/><g filter="url(#m)" fill-rule="evenodd" clip-rule="evenodd"><path d="M24.973 21.58a3.969 3.969 0 1 0 0 7.938 3.969 3.969 0 0 0 0-7.937Zm-4.97 3.97a4.969 4.969 0 1 1 9.938 0 4.969 4.969 0 0 1-9.937 0Z" fill="url(#n)"/><path d="M24.973 21.58a3.969 3.969 0 1 0 0 7.938 3.969 3.969 0 0 0 0-7.937Zm-4.97 3.97a4.969 4.969 0 1 1 9.938 0 4.969 4.969 0 0 1-9.937 0Z" fill="url(#o)"/></g><path fill-rule="evenodd" clip-rule="evenodd" d="M19.71 17.194a.55.55 0 0 0-.171.758l4.718 7.477a.55.55 0 1 0 .93-.587l-4.718-7.477a.55.55 0 0 0-.759-.171Z" fill="url(#p)"/><path fill-rule="evenodd" clip-rule="evenodd" d="M20.014 17.114a.55.55 0 0 1 .417.657l-1.578 7.078a.55.55 0 0 1-1.073-.24l1.578-7.078a.55.55 0 0 1 .656-.417Z" fill="url(#q)"/><path fill-rule="evenodd" clip-rule="evenodd" d="M20.014 17.114a.55.55 0 0 1 .417.657l-1.578 7.078a.55.55 0 0 1-1.073-.24l1.578-7.078a.55.55 0 0 1 .656-.417Z" fill="url(#r)"/><path fill-rule="evenodd" clip-rule="evenodd" d="M20.014 17.114a.55.55 0 0 1 .417.657l-1.578 7.078a.55.55 0 0 1-1.073-.24l1.578-7.078a.55.55 0 0 1 .656-.417Z" fill="url(#s)"/><path d="m13.97 16.018 1.34-.836 1.038 1.04-.765 3.53c-.513-.38-1.57-1.16-1.688-1.242-.148-.101-.66-.543-.653-1.238.008-.711.477-1.072.727-1.254Z" fill="url(#t)"/><path d="m13.97 16.018 1.34-.836 1.038 1.04-.765 3.53c-.513-.38-1.57-1.16-1.688-1.242-.148-.101-.66-.543-.653-1.238.008-.711.477-1.072.727-1.254Z" fill="url(#u)"/><path d="m13.97 16.018 1.34-.836 1.038 1.04-.765 3.53c-.513-.38-1.57-1.16-1.688-1.242-.148-.101-.66-.543-.653-1.238.008-.711.477-1.072.727-1.254Z" fill="url(#v)"/><path d="m15.25 15.217 2.64-1.61 1.208.63-2.727 2.476c-.269-.23-.84-1.05-1.121-1.496Z" fill="url(#w)"/><path d="m15.25 15.217 2.64-1.61 1.208.63-2.727 2.476c-.269-.23-.84-1.05-1.121-1.496Z" fill="url(#x)"/><g filter="url(#y)"><path d="M18.884 27.373a1.863 1.863 0 1 1 .018-3.643l5.899.905a.927.927 0 0 1-.086 1.838l-5.83.9Z" fill="url(#z)"/><path d="M18.884 27.373a1.863 1.863 0 1 1 .018-3.643l5.899.905a.927.927 0 0 1-.086 1.838l-5.83.9Z" fill="url(#A)"/></g><circle cx="18.344" cy="25.549" r="1.027" fill="url(#B)"/><circle cx="18.344" cy="25.549" r="1.027" fill="url(#C)"/><g filter="url(#D)"><path d="m16.07 23.799-1.809.86c-.431.213-.757.466-.762.957-.001.123.108.214.231.214h3.504a.2.2 0 0 0 .2-.2v-1.15L16.07 23.8Z" fill="#5B4E85"/><path d="m16.07 23.799-1.809.86c-.431.213-.757.466-.762.957-.001.123.108.214.231.214h3.504a.2.2 0 0 0 .2-.2v-1.15L16.07 23.8Z" fill="url(#E)"/><path d="m16.07 23.799-1.809.86c-.431.213-.757.466-.762.957-.001.123.108.214.231.214h3.504a.2.2 0 0 0 .2-.2v-1.15L16.07 23.8Z" fill="url(#F)"/></g><path transform="rotate(-55.397 13.51 8.486)" fill="url(#G)" d="M13.509 8.486h2.154v2.668h-2.154z"/><g filter="url(#H)"><path d="m16.051 16.573.553-.514 2.04 1.916c-.273.154-.887.463-1.03.582-.11.09-.11.235-.11.328l-.047 5.594-1.406-.672c-.138-.794-.42-2.708-.769-4.3-.395-1.801.376-2.593.77-2.934Z" fill="url(#I)"/><path d="m16.051 16.573.553-.514 2.04 1.916c-.273.154-.887.463-1.03.582-.11.09-.11.235-.11.328l-.047 5.594-1.406-.672c-.138-.794-.42-2.708-.769-4.3-.395-1.801.376-2.593.77-2.934Z" fill="url(#J)"/></g><g filter="url(#K)"><path d="m18.335 14.35-.636-.7 4.031-2.476c1.422 1.867 1.5 3.211.836 4.274-.664 1.062-1.582 2.05-2.617 2.945-.271.235-.802.362-1.36-.18-.706-.687-1.577-1.578-2.038-2.113l1.777-1.608a.1.1 0 0 0 .007-.142Z" fill="url(#L)"/><path d="m18.335 14.35-.636-.7 4.031-2.476c1.422 1.867 1.5 3.211.836 4.274-.664 1.062-1.582 2.05-2.617 2.945-.271.235-.802.362-1.36-.18-.706-.687-1.577-1.578-2.038-2.113l1.777-1.608a.1.1 0 0 0 .007-.142Z" fill="url(#M)"/></g><g filter="url(#N)"><path d="M16.066 11.73c.665.624 1.364 1.585 1.672 1.968l4.243-2.18c-.586-.976-2.07-2.531-3.54-3.36-1.718-.812-2.672 0-3.305 1.071-.413.852.259 1.781.93 2.5Z" fill="url(#O)"/></g><g filter="url(#P)"><path d="M12.91 12.182a.575.575 0 0 0-.575-.575h-3.05a2.13 2.13 0 0 0 0 4.26h.183a.575.575 0 0 0 0-1.15h-.183a.98.98 0 0 1 0-1.96h3.05a.575.575 0 0 0 .575-.575Z" fill="#C0B9BC"/><path d="M12.91 12.182a.575.575 0 0 0-.575-.575h-3.05a2.13 2.13 0 0 0 0 4.26h.183a.575.575 0 0 0 0-1.15h-.183a.98.98 0 0 1 0-1.96h3.05a.575.575 0 0 0 .575-.575Z" fill="url(#Q)"/></g><path d="M10.784 8.93c-.199-.14-.2-.298-.133-.648a.812.812 0 0 0-.056-.53l.794.988c-.11.22-.406.329-.605.19Z" fill="url(#R)"/><path d="M11.943 9.689c-.764-.74-1.391-1.924-1.643-2.387l3.435-2.04 1.816 1.673a5.169 5.169 0 0 1-.937 1.88c-.707.871-1.668 1.845-2.67.874Z" fill="url(#S)"/><path d="M11.943 9.689c-.764-.74-1.391-1.924-1.643-2.387l3.435-2.04 1.816 1.673a5.169 5.169 0 0 1-.937 1.88c-.707.871-1.668 1.845-2.67.874Z" fill="url(#T)"/><path d="M11.943 9.689c-.764-.74-1.391-1.924-1.643-2.387l3.435-2.04 1.816 1.673a5.169 5.169 0 0 1-.937 1.88c-.707.871-1.668 1.845-2.67.874Z" fill="url(#U)"/><path fill-rule="evenodd" clip-rule="evenodd" d="M11.84 9.165a.116.116 0 0 1 .042-.159c.101-.059.236-.206.311-.518a.116.116 0 1 1 .225.054c-.086.356-.25.565-.42.664a.116.116 0 0 1-.158-.041Z" fill="#87004D"/><g filter="url(#V)"><path d="m14.539 6.947-1.166-1.213 1.754-.881c.21.362.208 1.044.164 1.295a.504.504 0 0 1 .642.417c.02.192-.153.58-.602.68-.36.08-.678-.165-.792-.298Z" fill="#FFC136"/><path d="m14.539 6.947-1.166-1.213 1.754-.881c.21.362.208 1.044.164 1.295a.504.504 0 0 1 .642.417c.02.192-.153.58-.602.68-.36.08-.678-.165-.792-.298Z" fill="url(#W)"/></g><g filter="url(#X)"><path d="m14.63 5.118.452-.227c.209.361.208 1.041.164 1.294l-.595.18-.021-1.247Z" fill="url(#Y)"/></g><path d="M10.98 7.277c-.071.225.061.452.132.567l.882-.511c-.515-.59-.917-.361-1.014-.056Z" fill="#fff"/><path d="M11.608 7.557a1.032 1.032 0 0 0-.029-.048c-.156-.248-.39-.38-.523-.296-.134.084-.115.352.04.6l.02.03.492-.286Z" fill="url(#Z)"/><path d="M11.419 7.666a.534.534 0 0 0-.047-.091c-.086-.138-.215-.213-.287-.167-.073.045-.061.194.025.331a.544.544 0 0 0 .056.074l.253-.147Z" fill="#414141"/><circle cx="11.093" cy="7.386" r=".083" transform="rotate(-63.507 11.093 7.386)" fill="#DFDFDF"/><circle cx="13.429" cy="6.368" r=".647" transform="rotate(-63.507 13.429 6.368)" fill="url(#aa)"/><path fill-rule="evenodd" clip-rule="evenodd" d="M12.684 5.653a.29.29 0 0 1 .382.149l1.454 3.304a.29.29 0 0 1-.53.233l-1.454-3.304a.29.29 0 0 1 .148-.382Z" fill="#4D3771"/><path fill-rule="evenodd" clip-rule="evenodd" d="M12.684 5.653a.29.29 0 0 1 .382.149l1.454 3.304a.29.29 0 0 1-.53.233l-1.454-3.304a.29.29 0 0 1 .148-.382Z" fill="url(#ab)"/><path fill-rule="evenodd" clip-rule="evenodd" d="M12.684 5.653a.29.29 0 0 1 .382.149l1.454 3.304a.29.29 0 0 1-.53.233l-1.454-3.304a.29.29 0 0 1 .148-.382Z" fill="url(#ac)"/><path fill-rule="evenodd" clip-rule="evenodd" d="M12.684 5.653a.29.29 0 0 1 .382.149l1.454 3.304a.29.29 0 0 1-.53.233l-1.454-3.304a.29.29 0 0 1 .148-.382Z" fill="url(#ad)"/><g filter="url(#ae)"><path d="m15.03 5.014-4.672 2.37a.257.257 0 0 1-.335-.078 5.552 5.552 0 0 1-.56-1.127c-.524-1.434.478-2.234.609-2.357.19-.178.714-.62 1.837-1.027 1.318-.476 2.15.111 2.555.657.256.344.533.858.695 1.205a.272.272 0 0 1-.13.357Z" fill="url(#af)"/></g><g filter="url(#ag)"><path d="M11.28 5.734a.35.35 0 0 1 .163-.467l1.294-.63a.35.35 0 1 1 .306.63l-1.295.63a.35.35 0 0 1-.467-.163Z" fill="url(#ah)"/></g><g filter="url(#ai)"><path fill-rule="evenodd" clip-rule="evenodd" d="M8.305 13.795v-.021a.572.572 0 1 0-1.145 0v.021h-.004a2.13 2.13 0 0 0 2.13 2.072h.182a.575.575 0 1 0 0-1.15h-.183a.98.98 0 0 1-.978-.922h-.002Z" fill="#2B174F"/></g><g filter="url(#aj)" fill-rule="evenodd" clip-rule="evenodd"><path d="M17.097 8.847c.479.327.601.98.274 1.46-.783 1.144-3.152 4.302-7.933 4.787-.577.059-1.594-.32-1.653-.896-.058-.577.864-1.135 1.441-1.193 3.844-.39 5.741-2.904 6.411-3.884a1.05 1.05 0 0 1 1.46-.274Z" fill="#FFC435"/><path d="M17.097 8.847c.479.327.601.98.274 1.46-.783 1.144-3.152 4.302-7.933 4.787-.577.059-1.594-.32-1.653-.896-.058-.577.864-1.135 1.441-1.193 3.844-.39 5.741-2.904 6.411-3.884a1.05 1.05 0 0 1 1.46-.274Z" fill="url(#ak)"/></g><path fill-rule="evenodd" clip-rule="evenodd" d="M9.291 13.495a.35.35 0 0 1-.35.35c-.173 0-.435.042-.662.15-.226.106-.37.252-.415.438a.35.35 0 0 1-.68-.166c.113-.466.461-.748.796-.906.334-.157.7-.216.961-.216a.35.35 0 0 1 .35.35Z" fill="url(#al)"/><g filter="url(#am)"><path d="m20.96 13.468-.523-.864 1.125-.656c.97 1.313 1.344 2.297.735 2.875-.488.463-2.87 1.724-4 2.297l2.503-2.414a1 1 0 0 0 .16-1.238Z" fill="url(#an)"/></g><path fill-rule="evenodd" clip-rule="evenodd" d="M8.806 14.021a.35.35 0 0 1-.227.44.596.596 0 0 0-.405.457.35.35 0 0 1-.684-.152c.05-.223.235-.767.876-.972a.35.35 0 0 1 .44.227Z" fill="url(#ao)"/><path fill-rule="evenodd" clip-rule="evenodd" d="M9.043 14.28a.328.328 0 0 1 0 .402c-.152.126-.343.39-.372.594a.35.35 0 1 1-.693-.101c.019-.129.077-.285.155-.43.08-.147.196-.312.353-.442.15-.124.434-.172.557-.023Z" fill="url(#ap)"/><g filter="url(#aq)"><circle cx="9.195" cy="13.997" r=".885" fill="url(#ar)"/></g><defs><radialGradient id="b" cx="0" cy="0" r="1" gradientUnits="userSpaceOnUse" gradientTransform="rotate(126.943 -.265 13.38) scale(9.77501 9.43553)"><stop stop-color="#32295B"/><stop offset="1" stop-color="#3C2150"/></radialGradient><radialGradient id="g" cx="0" cy="0" r="1" gradientUnits="userSpaceOnUse" gradientTransform="matrix(-1.53127 2.45312 -.44454 -.27749 20.3 21.526)"><stop stop-color="#5D5C7E"/><stop offset="1" stop-color="#5D5C7E" stop-opacity="0"/></radialGradient><radialGradient id="i" cx="0" cy="0" r="1" gradientUnits="userSpaceOnUse" gradientTransform="rotate(-68.025 18.01 .743) scale(2.88119 .32513)"><stop stop-color="#BAA3B9"/><stop offset="1" stop-color="#BAA3B9" stop-opacity="0"/></radialGradient><radialGradient id="k" cx="0" cy="0" r="1" gradientUnits="userSpaceOnUse" gradientTransform="matrix(6.71875 4.82813 -1.31599 1.83131 10.176 19.088)"><stop stop-color="#CE3D5E"/><stop offset="1" stop-color="#932145"/></radialGradient><radialGradient id="n" cx="0" cy="0" r="1" gradientUnits="userSpaceOnUse" gradientTransform="rotate(134.451 9.891 17.355) scale(9.80603 9.46548)"><stop offset=".427" stop-color="#373C67"/><stop offset="1" stop-color="#38144F"/></radialGradient><radialGradient id="r" cx="0" cy="0" r="1" gradientUnits="userSpaceOnUse" gradientTransform="rotate(103.707 2.99 16.896) scale(4.61583 .44083)"><stop stop-color="#E44354"/><stop offset="1" stop-color="#E44354" stop-opacity="0"/></radialGradient><radialGradient id="s" cx="0" cy="0" r="1" gradientUnits="userSpaceOnUse" gradientTransform="matrix(-.03125 -1.0625 1.65481 -.04867 18.457 24.323)"><stop stop-color="#AC2735"/><stop offset="1" stop-color="#AC2735" stop-opacity="0"/></radialGradient><radialGradient id="t" cx="0" cy="0" r="1" gradientUnits="userSpaceOnUse" gradientTransform="matrix(2.1836 .4375 -.55377 2.76392 13.242 17.323)"><stop offset=".114" stop-color="#DF9E37"/><stop offset="1" stop-color="#D68B27"/></radialGradient><radialGradient id="u" cx="0" cy="0" r="1" gradientUnits="userSpaceOnUse" gradientTransform="matrix(1.21875 .45313 -.35 .94138 15.738 17.729)"><stop offset=".346" stop-color="#CA7E1E"/><stop offset="1" stop-color="#D88C28" stop-opacity="0"/></radialGradient><radialGradient id="w" cx="0" cy="0" r="1" gradientUnits="userSpaceOnUse" gradientTransform="rotate(143.881 6.878 10.217) scale(2.86275 1.23215)"><stop offset=".255" stop-color="#705050"/><stop offset="1" stop-color="#7B5C60"/></radialGradient><radialGradient id="A" cx="0" cy="0" r="1" gradientUnits="userSpaceOnUse" gradientTransform="matrix(-.86719 0 0 -.96875 25.574 25.385)"><stop stop-color="#FFD359"/><stop offset="1" stop-color="#FFD359" stop-opacity="0"/></radialGradient><radialGradient id="B" cx="0" cy="0" r="1" gradientUnits="userSpaceOnUse" gradientTransform="matrix(1.5625 -.65625 .66797 1.5904 17.676 25.745)"><stop offset=".47" stop-color="#D8CFE2"/><stop offset="1" stop-color="#C5BFCB"/></radialGradient><radialGradient id="C" cx="0" cy="0" r="1" gradientUnits="userSpaceOnUse" gradientTransform="rotate(151.189 6.193 15.063) scale(1.78324)"><stop offset=".632" stop-color="#E2DFE5" stop-opacity="0"/><stop offset="1" stop-color="#E2DFE5"/></radialGradient><radialGradient id="F" cx="0" cy="0" r="1" gradientUnits="userSpaceOnUse" gradientTransform="matrix(-1.1094 -2 6.41983 -3.56106 16.254 26.088)"><stop offset=".301" stop-color="#5C4F86" stop-opacity="0"/><stop offset=".943" stop-color="#493B63"/></radialGradient><radialGradient id="I" cx="0" cy="0" r="1" gradientUnits="userSpaceOnUse" gradientTransform="matrix(-.75 -8.78125 2.52881 -.21598 17.895 24.48)"><stop offset=".122" stop-color="#FFCE3C"/><stop offset="1" stop-color="#EDA82B"/></radialGradient><radialGradient id="J" cx="0" cy="0" r="1" gradientUnits="userSpaceOnUse" gradientTransform="matrix(-1.6875 .0625 -.11168 -3.01554 18.8 18.198)"><stop offset=".284" stop-color="#C57C28"/><stop offset="1" stop-color="#E59E31" stop-opacity="0"/></radialGradient><radialGradient id="L" cx="0" cy="0" r="1" gradientUnits="userSpaceOnUse" gradientTransform="matrix(5.125 -4.9297 2.6132 2.71672 16.77 16.104)"><stop offset=".148" stop-color="#927876"/><stop offset="1" stop-color="#A3A1A2"/></radialGradient><radialGradient id="M" cx="0" cy="0" r="1" gradientUnits="userSpaceOnUse" gradientTransform="matrix(2.59375 -.09375 .01804 .49916 18.191 14.385)"><stop offset=".22" stop-color="#8C7675"/><stop offset="1" stop-color="#9C8F8E" stop-opacity="0"/></radialGradient><radialGradient id="O" cx="0" cy="0" r="1" gradientUnits="userSpaceOnUse" gradientTransform="matrix(-3.49999 -4.06251 1.70908 -1.47243 21.082 12.073)"><stop stop-color="#FF8E59"/><stop offset="1" stop-color="#FF6030"/></radialGradient><radialGradient id="Q" cx="0" cy="0" r="1" gradientUnits="userSpaceOnUse" gradientTransform="matrix(3.25232 0 0 1.29925 10.033 13.51)"><stop offset=".254" stop-color="#90757E"/><stop offset="1" stop-color="#B7A6A6" stop-opacity="0"/></radialGradient><radialGradient id="R" cx="0" cy="0" r="1" gradientUnits="userSpaceOnUse" gradientTransform="matrix(.67658 .33726 -.42426 .8511 10.735 8.358)"><stop offset=".515" stop-color="#EBAB2A"/><stop offset="1" stop-color="#EAA630"/></radialGradient><radialGradient id="S" cx="0" cy="0" r="1" gradientUnits="userSpaceOnUse" gradientTransform="rotate(-19.402 30.218 -29.453) scale(3.27818 3.4)"><stop offset=".164" stop-color="#F5B63D"/><stop offset="1" stop-color="#EAA131"/></radialGradient><radialGradient id="T" cx="0" cy="0" r="1" gradientUnits="userSpaceOnUse" gradientTransform="rotate(55.761 1.177 15.145) scale(1.8889 1.52421)"><stop stop-color="#CA7D27"/><stop offset="1" stop-color="#CA7D27" stop-opacity="0"/></radialGradient><radialGradient id="U" cx="0" cy="0" r="1" gradientUnits="userSpaceOnUse" gradientTransform="matrix(.71875 3.0625 -3.97856 .93374 12.395 7.229)"><stop offset=".623" stop-color="#EDA029" stop-opacity="0"/><stop offset=".946" stop-color="#C27744"/></radialGradient><radialGradient id="W" cx="0" cy="0" r="1" gradientUnits="userSpaceOnUse" gradientTransform="rotate(-137.387 8.6 .079) scale(1.1686 .67895)"><stop stop-color="#FFB232"/><stop offset="1" stop-color="#FFB232" stop-opacity="0"/></radialGradient><radialGradient id="aa" cx="0" cy="0" r="1" gradientUnits="userSpaceOnUse" gradientTransform="rotate(83.69 3.261 10.59) scale(.94732)"><stop offset=".392" stop-color="#E1A337"/><stop offset="1" stop-color="#CE780D"/></radialGradient><radialGradient id="ad" cx="0" cy="0" r="1" gradientUnits="userSpaceOnUse" gradientTransform="matrix(.18817 -.08324 .4879 1.10297 13.365 6.979)"><stop stop-color="#564975"/><stop offset="1" stop-color="#4D3A6E" stop-opacity="0"/></radialGradient><radialGradient id="af" cx="0" cy="0" r="1" gradientUnits="userSpaceOnUse" gradientTransform="rotate(66.186 3.03 11.059) scale(2.35319 2.76584)"><stop offset=".045" stop-color="#4FBDFF"/><stop offset=".919" stop-color="#52ABE4"/></radialGradient><radialGradient id="ah" cx="0" cy="0" r="1" gradientUnits="userSpaceOnUse" gradientTransform="rotate(-114.487 7.986 -1.2) scale(.67588 1.73323)"><stop offset=".218" stop-color="#4B89D0"/><stop offset="1" stop-color="#337BCD"/></radialGradient><radialGradient id="ak" cx="0" cy="0" r="1" gradientUnits="userSpaceOnUse" gradientTransform="rotate(158.559 7.894 6.323) scale(1.11134 1.23837)"><stop stop-color="#FFDA43"/><stop offset="1" stop-color="#FFDA43" stop-opacity="0"/></radialGradient><radialGradient id="an" cx="0" cy="0" r="1" gradientUnits="userSpaceOnUse" gradientTransform="matrix(5.5 -1.4375 2.00475 7.67032 17.332 15.26)"><stop offset=".625" stop-color="#AFA6A9" stop-opacity="0"/><stop offset=".905" stop-color="#AFA6A9"/></radialGradient><radialGradient id="ap" cx="0" cy="0" r="1" gradientUnits="userSpaceOnUse" gradientTransform="rotate(-56.677 18.414 .24) scale(1.56434 1.28222)"><stop offset=".512" stop-color="#D48D33"/><stop offset="1" stop-color="#F2B135"/></radialGradient><radialGradient id="ar" cx="0" cy="0" r="1" gradientUnits="userSpaceOnUse" gradientTransform="rotate(48.659 -10.453 16.313) scale(1.90423)"><stop stop-color="#FFC435"/><stop offset="1" stop-color="#FFC435" stop-opacity="0"/></radialGradient><linearGradient id="d" x1="9.238" y1="21.885" x2="3.207" y2="28.916" gradientUnits="userSpaceOnUse"><stop stop-color="#302A5B"/><stop offset="1" stop-color="#302A5B" stop-opacity="0"/></linearGradient><linearGradient id="e" x1="17.707" y1="21.088" x2="18.676" y2="20.082" gradientUnits="userSpaceOnUse"><stop stop-color="#BF7A28"/><stop offset="1" stop-color="#D7AA3D"/></linearGradient><linearGradient id="f" x1="22.223" y1="22.657" x2="17.629" y2="22.198" gradientUnits="userSpaceOnUse"><stop offset=".891" stop-color="#615F76" stop-opacity="0"/><stop offset="1" stop-color="#615F76"/></linearGradient><linearGradient id="h" x1="11.504" y1="15.479" x2="10.629" y2="15.198" gradientUnits="userSpaceOnUse"><stop stop-color="#BFA8C7"/><stop offset="1" stop-color="#908590"/></linearGradient><linearGradient id="j" x1="9.738" y1="20.432" x2="8.457" y2="19.948" gradientUnits="userSpaceOnUse"><stop offset=".146" stop-color="#D4385B"/><stop offset="1" stop-color="#973C50"/></linearGradient><linearGradient id="l" x1="12.957" y1="22.479" x2="13.348" y2="21.979" gradientUnits="userSpaceOnUse"><stop stop-color="#96275E"/><stop offset="1" stop-color="#96275E" stop-opacity="0"/><stop offset="1" stop-color="#9C2649" stop-opacity="0"/></linearGradient><linearGradient id="o" x1="20.004" y1="27.99" x2="27.759" y2="25.549" gradientUnits="userSpaceOnUse"><stop stop-color="#352542"/><stop offset="1" stop-color="#352542" stop-opacity="0"/></linearGradient><linearGradient id="p" x1="23.785" y1="22.416" x2="22.723" y2="23.166" gradientUnits="userSpaceOnUse"><stop stop-color="#FD5A60"/><stop offset="1" stop-color="#AF253C"/></linearGradient><linearGradient id="q" x1="19.582" y1="21.19" x2="18.566" y2="21.042" gradientUnits="userSpaceOnUse"><stop stop-color="#E5435F"/><stop offset="1" stop-color="#A62F2F"/></linearGradient><linearGradient id="v" x1="14.52" y1="15.448" x2="14.941" y2="16.135" gradientUnits="userSpaceOnUse"><stop stop-color="#C79639"/><stop offset="1" stop-color="#C79639" stop-opacity="0"/></linearGradient><linearGradient id="x" x1="16.59" y1="14.315" x2="16.957" y2="14.846" gradientUnits="userSpaceOnUse"><stop stop-color="#796867"/><stop offset="1" stop-color="#7C5C60" stop-opacity="0"/></linearGradient><linearGradient id="z" x1="25.301" y1="25.549" x2="16.637" y2="25.549" gradientUnits="userSpaceOnUse"><stop stop-color="#F7B14E"/><stop offset="1" stop-color="#E8774D"/></linearGradient><linearGradient id="E" x1="17.434" y1="25.416" x2="16.676" y2="25.416" gradientUnits="userSpaceOnUse"><stop stop-color="#605C92"/><stop offset="1" stop-color="#605C92" stop-opacity="0"/></linearGradient><linearGradient id="G" x1="15.688" y1="9.843" x2="13.356" y2="9.572" gradientUnits="userSpaceOnUse"><stop stop-color="#FFD03C"/><stop offset="1" stop-color="#B3642E"/></linearGradient><linearGradient id="Y" x1="15.46" y1="6.131" x2="14.738" y2="5.885" gradientUnits="userSpaceOnUse"><stop offset=".119" stop-color="#FC9E26"/><stop offset="1" stop-color="#FC9E26" stop-opacity="0"/></linearGradient><linearGradient id="Z" x1="11.408" y1="7.678" x2="11.081" y2="7.197" gradientUnits="userSpaceOnUse"><stop stop-color="#6F443D"/><stop offset="1" stop-color="#5A332D"/></linearGradient><linearGradient id="ab" x1="13.727" y1="7.169" x2="13.309" y2="7.375" gradientUnits="userSpaceOnUse"><stop stop-color="#37234C"/><stop offset="1" stop-color="#37234C" stop-opacity="0"/></linearGradient><linearGradient id="ac" x1="13.55" y1="8.962" x2="14.075" y2="8.658" gradientUnits="userSpaceOnUse"><stop offset=".324" stop-color="#72687C"/><stop offset="1" stop-color="#72687C" stop-opacity="0"/></linearGradient><linearGradient id="al" x1="7.834" y1="14.228" x2="8.765" y2="13.255" gradientUnits="userSpaceOnUse"><stop stop-color="#D38E33"/><stop offset="1" stop-color="#FFC435"/></linearGradient><linearGradient id="ao" x1="7.895" y1="14.76" x2="8.98" y2="13.979" gradientUnits="userSpaceOnUse"><stop stop-color="#D38E33"/><stop offset="1" stop-color="#F7B935"/></linearGradient><filter id="a" x="2.059" y="20.581" width="9.938" height="9.938" filterUnits="userSpaceOnUse" color-interpolation-filters="sRGB"><feFlood flood-opacity="0" result="BackgroundImageFix"/><feBlend in="SourceGraphic" in2="BackgroundImageFix" result="shape"/><feColorMatrix in="SourceAlpha" values="0 0 0 0 0 0 0 0 0 0 0 0 0 0 0 0 0 0 127 0" result="hardAlpha"/><feOffset/><feGaussianBlur stdDeviation=".25"/><feComposite in2="hardAlpha" operator="arithmetic" k2="-1" k3="1"/><feColorMatrix values="0 0 0 0 0.227451 0 0 0 0 0.156863 0 0 0 0 0.27451 0 0 0 1 0"/><feBlend in2="shape" result="effect1_innerShadow_3987_23405"/></filter><filter id="c" x="1.823" y="20.345" width="10.409" height="10.409" filterUnits="userSpaceOnUse" color-interpolation-filters="sRGB"><feFlood flood-opacity="0" result="BackgroundImageFix"/><feBlend in="SourceGraphic" in2="BackgroundImageFix" result="shape"/><feGaussianBlur stdDeviation=".25" result="effect1_foregroundBlur_3987_23405"/></filter><filter id="m" x="20.004" y="20.481" width="10.037" height="10.037" filterUnits="userSpaceOnUse" color-interpolation-filters="sRGB"><feFlood flood-opacity="0" result="BackgroundImageFix"/><feBlend in="SourceGraphic" in2="BackgroundImageFix" result="shape"/><feColorMatrix in="SourceAlpha" values="0 0 0 0 0 0 0 0 0 0 0 0 0 0 0 0 0 0 127 0" result="hardAlpha"/><feOffset dx=".1" dy="-.1"/><feGaussianBlur stdDeviation=".2"/><feComposite in2="hardAlpha" operator="arithmetic" k2="-1" k3="1"/><feColorMatrix values="0 0 0 0 0.152941 0 0 0 0 0.0862745 0 0 0 0 0.164706 0 0 0 1 0"/><feBlend in2="shape" result="effect1_innerShadow_3987_23405"/></filter><filter id="y" x="16.637" y="23.436" width="9.188" height="4.077" filterUnits="userSpaceOnUse" color-interpolation-filters="sRGB"><feFlood flood-opacity="0" result="BackgroundImageFix"/><feBlend in="SourceGraphic" in2="BackgroundImageFix" result="shape"/><feColorMatrix in="SourceAlpha" values="0 0 0 0 0 0 0 0 0 0 0 0 0 0 0 0 0 0 127 0" result="hardAlpha"/><feOffset dx=".25" dy="-.25"/><feGaussianBlur stdDeviation=".25"/><feComposite in2="hardAlpha" operator="arithmetic" k2="-1" k3="1"/><feColorMatrix values="0 0 0 0 0.701961 0 0 0 0 0.341176 0 0 0 0 0.254902 0 0 0 1 0"/><feBlend in2="shape" result="effect1_innerShadow_3987_23405"/><feColorMatrix in="SourceAlpha" values="0 0 0 0 0 0 0 0 0 0 0 0 0 0 0 0 0 0 127 0" result="hardAlpha"/><feOffset dx=".25" dy=".1"/><feGaussianBlur stdDeviation=".25"/><feComposite in2="hardAlpha" operator="arithmetic" k2="-1" k3="1"/><feColorMatrix values="0 0 0 0 0.894118 0 0 0 0 0.490196 0 0 0 0 0.196078 0 0 0 1 0"/><feBlend in2="effect1_innerShadow_3987_23405" result="effect2_innerShadow_3987_23405"/></filter><filter id="D" x="13.499" y="23.649" width="4.034" height="2.181" filterUnits="userSpaceOnUse" color-interpolation-filters="sRGB"><feFlood flood-opacity="0" result="BackgroundImageFix"/><feBlend in="SourceGraphic" in2="BackgroundImageFix" result="shape"/><feColorMatrix in="SourceAlpha" values="0 0 0 0 0 0 0 0 0 0 0 0 0 0 0 0 0 0 127 0" result="hardAlpha"/><feOffset dx=".1" dy="-.15"/><feGaussianBlur stdDeviation=".125"/><feComposite in2="hardAlpha" operator="arithmetic" k2="-1" k3="1"/><feColorMatrix values="0 0 0 0 0.27451 0 0 0 0 0.188235 0 0 0 0 0.52549 0 0 0 1 0"/><feBlend in2="shape" result="effect1_innerShadow_3987_23405"/></filter><filter id="H" x="15.172" y="16.059" width="3.572" height="8.62" filterUnits="userSpaceOnUse" color-interpolation-filters="sRGB"><feFlood flood-opacity="0" result="BackgroundImageFix"/><feBlend in="SourceGraphic" in2="BackgroundImageFix" result="shape"/><feColorMatrix in="SourceAlpha" values="0 0 0 0 0 0 0 0 0 0 0 0 0 0 0 0 0 0 127 0" result="hardAlpha"/><feOffset dx=".1" dy=".2"/><feGaussianBlur stdDeviation=".2"/><feComposite in2="hardAlpha" operator="arithmetic" k2="-1" k3="1"/><feColorMatrix values="0 0 0 0 0.858824 0 0 0 0 0.611765 0 0 0 0 0.211765 0 0 0 1 0"/><feBlend in2="shape" result="effect1_innerShadow_3987_23405"/></filter><filter id="K" x="16.551" y="10.924" width="6.668" height="7.67" filterUnits="userSpaceOnUse" color-interpolation-filters="sRGB"><feFlood flood-opacity="0" result="BackgroundImageFix"/><feBlend in="SourceGraphic" in2="BackgroundImageFix" result="shape"/><feColorMatrix in="SourceAlpha" values="0 0 0 0 0 0 0 0 0 0 0 0 0 0 0 0 0 0 127 0" result="hardAlpha"/><feOffset dx=".25" dy="-.25"/><feGaussianBlur stdDeviation=".625"/><feComposite in2="hardAlpha" operator="arithmetic" k2="-1" k3="1"/><feColorMatrix values="0 0 0 0 0.521569 0 0 0 0 0.372549 0 0 0 0 0.533333 0 0 0 1 0"/><feBlend in2="shape" result="effect1_innerShadow_3987_23405"/></filter><filter id="N" x="15.009" y="7.828" width="7.971" height="5.869" filterUnits="userSpaceOnUse" color-interpolation-filters="sRGB"><feFlood flood-opacity="0" result="BackgroundImageFix"/><feBlend in="SourceGraphic" in2="BackgroundImageFix" result="shape"/><feColorMatrix in="SourceAlpha" values="0 0 0 0 0 0 0 0 0 0 0 0 0 0 0 0 0 0 127 0" result="hardAlpha"/><feOffset dx="1"/><feGaussianBlur stdDeviation=".75"/><feComposite in2="hardAlpha" operator="arithmetic" k2="-1" k3="1"/><feColorMatrix values="0 0 0 0 0.85098 0 0 0 0 0.286275 0 0 0 0 0.317647 0 0 0 1 0"/><feBlend in2="shape" result="effect1_innerShadow_3987_23405"/></filter><filter id="P" x="6.906" y="11.607" width="6.005" height="4.259" filterUnits="userSpaceOnUse" color-interpolation-filters="sRGB"><feFlood flood-opacity="0" result="BackgroundImageFix"/><feBlend in="SourceGraphic" in2="BackgroundImageFix" result="shape"/><feColorMatrix in="SourceAlpha" values="0 0 0 0 0 0 0 0 0 0 0 0 0 0 0 0 0 0 127 0" result="hardAlpha"/><feOffset dx="-.25"/><feGaussianBlur stdDeviation=".5"/><feComposite in2="hardAlpha" operator="arithmetic" k2="-1" k3="1"/><feColorMatrix values="0 0 0 0 0.631373 0 0 0 0 0.501961 0 0 0 0 0.466667 0 0 0 1 0"/><feBlend in2="shape" result="effect1_innerShadow_3987_23405"/></filter><filter id="V" x="13.373" y="4.603" width="2.812" height="2.658" filterUnits="userSpaceOnUse" color-interpolation-filters="sRGB"><feFlood flood-opacity="0" result="BackgroundImageFix"/><feBlend in="SourceGraphic" in2="BackgroundImageFix" result="shape"/><feColorMatrix in="SourceAlpha" values="0 0 0 0 0 0 0 0 0 0 0 0 0 0 0 0 0 0 127 0" result="hardAlpha"/><feOffset dx=".25" dy="-.25"/><feGaussianBlur stdDeviation=".25"/><feComposite in2="hardAlpha" operator="arithmetic" k2="-1" k3="1"/><feColorMatrix values="0 0 0 0 0.92549 0 0 0 0 0.447059 0 0 0 0 0.027451 0 0 0 1 0"/><feBlend in2="shape" result="effect1_innerShadow_3987_23405"/></filter><filter id="X" x="14.53" y="4.791" width=".84" height="1.674" filterUnits="userSpaceOnUse" color-interpolation-filters="sRGB"><feFlood flood-opacity="0" result="BackgroundImageFix"/><feBlend in="SourceGraphic" in2="BackgroundImageFix" result="shape"/><feGaussianBlur stdDeviation=".05" result="effect1_foregroundBlur_3987_23405"/></filter><filter id="ae" x="9.313" y="2.47" width="5.871" height="4.945" filterUnits="userSpaceOnUse" color-interpolation-filters="sRGB"><feFlood flood-opacity="0" result="BackgroundImageFix"/><feBlend in="SourceGraphic" in2="BackgroundImageFix" result="shape"/><feColorMatrix in="SourceAlpha" values="0 0 0 0 0 0 0 0 0 0 0 0 0 0 0 0 0 0 127 0" result="hardAlpha"/><feOffset dy="-.15"/><feGaussianBlur stdDeviation=".3"/><feComposite in2="hardAlpha" operator="arithmetic" k2="-1" k3="1"/><feColorMatrix values="0 0 0 0 0.305882 0 0 0 0 0.556863 0 0 0 0 0.882353 0 0 0 1 0"/><feBlend in2="shape" result="effect1_innerShadow_3987_23405"/></filter><filter id="ag" x="11.245" y="4.602" width="1.994" height="1.329" filterUnits="userSpaceOnUse" color-interpolation-filters="sRGB"><feFlood flood-opacity="0" result="BackgroundImageFix"/><feBlend in="SourceGraphic" in2="BackgroundImageFix" result="shape"/><feColorMatrix in="SourceAlpha" values="0 0 0 0 0 0 0 0 0 0 0 0 0 0 0 0 0 0 127 0" result="hardAlpha"/><feOffset/><feGaussianBlur stdDeviation=".25"/><feComposite in2="hardAlpha" operator="arithmetic" k2="-1" k3="1"/><feColorMatrix values="0 0 0 0 0.137255 0 0 0 0 0.482353 0 0 0 0 0.796078 0 0 0 1 0"/><feBlend in2="shape" result="effect1_innerShadow_3987_23405"/></filter><filter id="ai" x="6.906" y="13.202" width="3.137" height="2.915" filterUnits="userSpaceOnUse" color-interpolation-filters="sRGB"><feFlood flood-opacity="0" result="BackgroundImageFix"/><feBlend in="SourceGraphic" in2="BackgroundImageFix" result="shape"/><feColorMatrix in="SourceAlpha" values="0 0 0 0 0 0 0 0 0 0 0 0 0 0 0 0 0 0 127 0" result="hardAlpha"/><feOffset dx="-.25" dy=".25"/><feGaussianBlur stdDeviation=".25"/><feComposite in2="hardAlpha" operator="arithmetic" k2="-1" k3="1"/><feColorMatrix values="0 0 0 0 0.164706 0 0 0 0 0.117647 0 0 0 0 0.231373 0 0 0 1 0"/><feBlend in2="shape" result="effect1_innerShadow_3987_23405"/></filter><filter id="aj" x="7.782" y="8.163" width="10.272" height="6.937" filterUnits="userSpaceOnUse" color-interpolation-filters="sRGB"><feFlood flood-opacity="0" result="BackgroundImageFix"/><feBlend in="SourceGraphic" in2="BackgroundImageFix" result="shape"/><feColorMatrix in="SourceAlpha" values="0 0 0 0 0 0 0 0 0 0 0 0 0 0 0 0 0 0 127 0" result="hardAlpha"/><feOffset dx=".5" dy="-.5"/><feGaussianBlur stdDeviation=".375"/><feComposite in2="hardAlpha" operator="arithmetic" k2="-1" k3="1"/><feColorMatrix values="0 0 0 0 0.823529 0 0 0 0 0.517647 0 0 0 0 0.211765 0 0 0 1 0"/><feBlend in2="shape" result="effect1_innerShadow_3987_23405"/></filter><filter id="am" x="17.697" y="11.348" width="5.496" height="6.372" filterUnits="userSpaceOnUse" color-interpolation-filters="sRGB"><feFlood flood-opacity="0" result="BackgroundImageFix"/><feBlend in="SourceGraphic" in2="BackgroundImageFix" result="shape"/><feGaussianBlur stdDeviation=".3" result="effect1_foregroundBlur_3987_23405"/></filter><filter id="aq" x="7.711" y="12.512" width="2.969" height="2.969" filterUnits="userSpaceOnUse" color-interpolation-filters="sRGB"><feFlood flood-opacity="0" result="BackgroundImageFix"/><feBlend in="SourceGraphic" in2="BackgroundImageFix" result="shape"/><feGaussianBlur stdDeviation=".3" result="effect1_foregroundBlur_3987_23405"/></filter></defs></svg>