<svg xmlns="http://www.w3.org/2000/svg" fill="none" viewBox="0 0 32 32"><path fill="#3FB3FF" d="M3.862 29.934h24.276c-.466-6.296-5.723-11.26-12.138-11.26S4.328 23.639 3.862 29.935"/><path fill="url(#police-officer-medium_svg__a)" d="M3.862 29.934h24.276c-.466-6.296-5.723-11.26-12.138-11.26S4.328 23.639 3.862 29.935"/><path fill="url(#police-officer-medium_svg__b)" d="M3.862 29.934h24.276c-.466-6.296-5.723-11.26-12.138-11.26S4.328 23.639 3.862 29.935"/><path fill="url(#police-officer-medium_svg__c)" d="M3.862 29.934h24.276c-.466-6.296-5.723-11.26-12.138-11.26S4.328 23.639 3.862 29.935"/><path fill="url(#police-officer-medium_svg__d)" d="M3.862 29.934h24.276c-.466-6.296-5.723-11.26-12.138-11.26S4.328 23.639 3.862 29.935"/><g filter="url(#police-officer-medium_svg__e)"><path fill="#2389D6" d="m12.646 19.685.763 3.8a.41.41 0 0 0 .662.242l.452-.364.601 1.204c.04.079.12.128.208.128h1.021c.089 0 .17-.05.21-.13l.586-1.187.437.349a.41.41 0 0 0 .661-.242l.764-3.8z"/></g><path fill="url(#police-officer-medium_svg__f)" d="M8.055 29.934H3.862a12.15 12.15 0 0 1 4.193-8.309z"/><path fill="url(#police-officer-medium_svg__g)" d="M8.055 29.934H3.862a12.15 12.15 0 0 1 4.193-8.309z"/><path fill="url(#police-officer-medium_svg__h)" d="M23.945 29.934h4.193a12.15 12.15 0 0 0-4.193-8.309z"/><path fill="url(#police-officer-medium_svg__i)" d="M23.945 29.934h4.193a12.15 12.15 0 0 0-4.193-8.309z"/><g filter="url(#police-officer-medium_svg__j)"><path fill="url(#police-officer-medium_svg__k)" d="M16.749 24.47a.25.25 0 0 1-.224.139h-1.097a.25.25 0 0 1-.223-.139l-1.246-2.491h4.02z"/><path fill="url(#police-officer-medium_svg__l)" d="M16.749 24.47a.25.25 0 0 1-.224.139h-1.097a.25.25 0 0 1-.223-.139l-1.246-2.491h4.02z"/><path fill="url(#police-officer-medium_svg__m)" d="M16.749 24.47a.25.25 0 0 1-.224.139h-1.097a.25.25 0 0 1-.223-.139l-1.246-2.491h4.02z"/><path fill="url(#police-officer-medium_svg__n)" d="M16.749 24.47a.25.25 0 0 1-.224.139h-1.097a.25.25 0 0 1-.223-.139l-1.246-2.491h4.02z"/></g><path fill="url(#police-officer-medium_svg__o)" d="m17.577 29.934-.926-5.202a.15.15 0 0 0-.148-.123h-1.078a.15.15 0 0 0-.147.12l-1.025 5.205z"/><path fill="url(#police-officer-medium_svg__p)" d="m17.577 29.934-.926-5.202a.15.15 0 0 0-.148-.123h-1.078a.15.15 0 0 0-.147.12l-1.025 5.205z"/><path fill="url(#police-officer-medium_svg__q)" d="m17.577 29.934-.926-5.202a.15.15 0 0 0-.148-.123h-1.078a.15.15 0 0 0-.147.12l-1.025 5.205z"/><g filter="url(#police-officer-medium_svg__r)"><path fill="#73C0FF" d="M16.023 21.209v.79l-1.95 1.57a.44.44 0 0 1-.71-.26l-.82-4.08z"/><path fill="url(#police-officer-medium_svg__s)" d="M16.023 21.209v.79l-1.95 1.57a.44.44 0 0 1-.71-.26l-.82-4.08z"/></g><path fill="url(#police-officer-medium_svg__t)" d="M16.023 21.209v.79l-1.95 1.57a.44.44 0 0 1-.71-.26l-.82-4.08z"/><g filter="url(#police-officer-medium_svg__u)"><path fill="#73C0FF" d="M15.878 21.209v.79l1.97 1.57c.26.21.64.07.71-.26l.82-4.08z"/><path fill="url(#police-officer-medium_svg__v)" d="M15.878 21.209v.79l1.97 1.57c.26.21.64.07.71-.26l.82-4.08z"/><path fill="url(#police-officer-medium_svg__w)" d="M15.878 21.209v.79l1.97 1.57c.26.21.64.07.71-.26l.82-4.08z"/></g><path fill="url(#police-officer-medium_svg__x)" d="M15.878 21.209v.79l1.97 1.57c.26.21.64.07.71-.26l.82-4.08z"/><g filter="url(#police-officer-medium_svg__y)"><path fill="url(#police-officer-medium_svg__z)" d="M13.74 19.832c.21.57.812 1.582 2.206 2.223 1.454-.75 1.934-1.652 2.145-2.223l-2.145-.332z"/><path fill="url(#police-officer-medium_svg__A)" d="M13.74 19.832c.21.57.812 1.582 2.206 2.223 1.454-.75 1.934-1.652 2.145-2.223l-2.145-.332z"/></g><path stroke="#D37034" stroke-linecap="round" stroke-linejoin="round" stroke-miterlimit="10" stroke-width=".627" d="M12.08 10.069s.77-.59 1.9-.46M19.92 10.069s-.77-.59-1.9-.46"/><path fill="url(#police-officer-medium_svg__B)" d="M9.02 9.797c-.153-.45-.262-.89-.31-1.117h1.79v3.273H9.219v-1.195c0-.355-.074-.59-.2-.96"/><path fill="url(#police-officer-medium_svg__C)" d="M22.809 9.836c.168-.39.394-.808.48-1.156h-1.945v3.273h1.281v-1.195c-.013-.17.041-.59.184-.922"/><path fill="url(#police-officer-medium_svg__D)" d="M21.582 14.557a1.9 1.9 0 0 0 1.037-.353v1.066c0 1.024-.61 1.935-1.537 2.313q.295-.624.397-1.351z"/><path fill="url(#police-officer-medium_svg__E)" d="M10.444 14.557a1.9 1.9 0 0 1-1.036-.353v1.066c0 1.024.61 1.935 1.536 2.313a4.7 4.7 0 0 1-.396-1.351z"/><g filter="url(#police-officer-medium_svg__F)"><path fill="url(#police-officer-medium_svg__G)" d="M10.486 16.293a4.486 4.486 0 0 0 4.451 3.902H17.1a4.486 4.486 0 0 0 4.45-3.902c.136-2.158.272-4.307.372-6.464a1.66 1.66 0 0 0-1.58-1.64h-1.604a2.78 2.78 0 0 1-2.533-1.653.76.76 0 0 0-.705-.48h-1.458c-2.115 0-3.828 1.733-3.828 3.871 0 2.132.133 4.23.273 6.366"/><path fill="url(#police-officer-medium_svg__H)" d="M10.486 16.293a4.486 4.486 0 0 0 4.451 3.902H17.1a4.486 4.486 0 0 0 4.45-3.902c.136-2.158.272-4.307.372-6.464a1.66 1.66 0 0 0-1.58-1.64h-1.604a2.78 2.78 0 0 1-2.533-1.653.76.76 0 0 0-.705-.48h-1.458c-2.115 0-3.828 1.733-3.828 3.871 0 2.132.133 4.23.273 6.366"/></g><path fill="url(#police-officer-medium_svg__I)" d="M10.486 16.293a4.486 4.486 0 0 0 4.451 3.902H17.1a4.486 4.486 0 0 0 4.45-3.902c.136-2.158.272-4.307.372-6.464a1.66 1.66 0 0 0-1.58-1.64h-1.604a2.78 2.78 0 0 1-2.533-1.653.76.76 0 0 0-.705-.48h-1.458c-2.115 0-3.828 1.733-3.828 3.871 0 2.132.133 4.23.273 6.366"/><path fill="url(#police-officer-medium_svg__J)" d="M10.486 16.293a4.486 4.486 0 0 0 4.451 3.902H17.1a4.486 4.486 0 0 0 4.45-3.902c.136-2.158.272-4.307.372-6.464a1.66 1.66 0 0 0-1.58-1.64h-1.604a2.78 2.78 0 0 1-2.533-1.653.76.76 0 0 0-.705-.48h-1.458c-2.115 0-3.828 1.733-3.828 3.871 0 2.132.133 4.23.273 6.366"/><path fill="url(#police-officer-medium_svg__K)" d="M10.486 16.293a4.486 4.486 0 0 0 4.451 3.902H17.1a4.486 4.486 0 0 0 4.45-3.902c.136-2.158.272-4.307.372-6.464a1.66 1.66 0 0 0-1.58-1.64h-1.604a2.78 2.78 0 0 1-2.533-1.653.76.76 0 0 0-.705-.48h-1.458c-2.115 0-3.828 1.733-3.828 3.871 0 2.132.133 4.23.273 6.366"/><path fill="url(#police-officer-medium_svg__L)" d="M10.486 16.293a4.486 4.486 0 0 0 4.451 3.902H17.1a4.486 4.486 0 0 0 4.45-3.902c.136-2.158.272-4.307.372-6.464a1.66 1.66 0 0 0-1.58-1.64h-1.604a2.78 2.78 0 0 1-2.533-1.653.76.76 0 0 0-.705-.48h-1.458c-2.115 0-3.828 1.733-3.828 3.871 0 2.132.133 4.23.273 6.366"/><path fill="url(#police-officer-medium_svg__M)" d="M10.486 16.293a4.486 4.486 0 0 0 4.451 3.902H17.1a4.486 4.486 0 0 0 4.45-3.902c.136-2.158.272-4.307.372-6.464a1.66 1.66 0 0 0-1.58-1.64h-1.604a2.78 2.78 0 0 1-2.533-1.653.76.76 0 0 0-.705-.48h-1.458c-2.115 0-3.828 1.733-3.828 3.871 0 2.132.133 4.23.273 6.366"/><path fill="url(#police-officer-medium_svg__N)" d="M10.486 16.293a4.486 4.486 0 0 0 4.451 3.902H17.1a4.486 4.486 0 0 0 4.45-3.902c.136-2.158.272-4.307.372-6.464a1.66 1.66 0 0 0-1.58-1.64h-1.604a2.78 2.78 0 0 1-2.533-1.653.76.76 0 0 0-.705-.48h-1.458c-2.115 0-3.828 1.733-3.828 3.871 0 2.132.133 4.23.273 6.366"/><path fill="url(#police-officer-medium_svg__O)" d="M10.486 16.293a4.486 4.486 0 0 0 4.451 3.902H17.1a4.486 4.486 0 0 0 4.45-3.902c.136-2.158.272-4.307.372-6.464a1.66 1.66 0 0 0-1.58-1.64h-1.604a2.78 2.78 0 0 1-2.533-1.653.76.76 0 0 0-.705-.48h-1.458c-2.115 0-3.828 1.733-3.828 3.871 0 2.132.133 4.23.273 6.366"/><path fill="url(#police-officer-medium_svg__P)" d="M10.486 16.293a4.486 4.486 0 0 0 4.451 3.902H17.1a4.486 4.486 0 0 0 4.45-3.902c.136-2.158.272-4.307.372-6.464a1.66 1.66 0 0 0-1.58-1.64h-1.604a2.78 2.78 0 0 1-2.533-1.653.76.76 0 0 0-.705-.48h-1.458c-2.115 0-3.828 1.733-3.828 3.871 0 2.132.133 4.23.273 6.366"/><path fill="url(#police-officer-medium_svg__Q)" d="M10.486 16.293a4.486 4.486 0 0 0 4.451 3.902H17.1a4.486 4.486 0 0 0 4.45-3.902c.136-2.158.272-4.307.372-6.464a1.66 1.66 0 0 0-1.58-1.64h-1.604a2.78 2.78 0 0 1-2.533-1.653.76.76 0 0 0-.705-.48h-1.458c-2.115 0-3.828 1.733-3.828 3.871 0 2.132.133 4.23.273 6.366"/><g filter="url(#police-officer-medium_svg__R)"><path fill="#6F3F46" d="m15.553 12.531-.676 2.106c-.116.433.161.867.554.867h.839c.393 0 .67-.44.555-.867l-.567-2.106c-.121-.466-.577-.466-.705 0"/></g><g filter="url(#police-officer-medium_svg__S)"><path fill="#936763" d="m15.575 12.307-.609 2.106c-.124.433.174.866.597.866h.9c.423 0 .721-.44.597-.866l-.609-2.106c-.13-.467-.739-.467-.876 0"/><path fill="url(#police-officer-medium_svg__T)" d="m15.575 12.307-.609 2.106c-.124.433.174.866.597.866h.9c.423 0 .721-.44.597-.866l-.609-2.106c-.13-.467-.739-.467-.876 0"/><path fill="url(#police-officer-medium_svg__U)" d="m15.575 12.307-.609 2.106c-.124.433.174.866.597.866h.9c.423 0 .721-.44.597-.866l-.609-2.106c-.13-.467-.739-.467-.876 0"/><path fill="url(#police-officer-medium_svg__V)" d="m15.575 12.307-.609 2.106c-.124.433.174.866.597.866h.9c.423 0 .721-.44.597-.866l-.609-2.106c-.13-.467-.739-.467-.876 0"/><path fill="url(#police-officer-medium_svg__W)" d="m15.575 12.307-.609 2.106c-.124.433.174.866.597.866h.9c.423 0 .721-.44.597-.866l-.609-2.106c-.13-.467-.739-.467-.876 0"/></g><g filter="url(#police-officer-medium_svg__X)"><path fill="url(#police-officer-medium_svg__Y)" d="m15.575 12.307-.609 2.106c-.124.433.174.866.597.866h.9c.423 0 .721-.44.597-.866l-.609-2.106c-.13-.467-.739-.467-.876 0"/></g><g filter="url(#police-officer-medium_svg__Z)"><path stroke="url(#police-officer-medium_svg__aa)" stroke-width=".15" d="M14.46 16c.449.235.983.369 1.553.369.576 0 1.104-.134 1.553-.368a.25.25 0 0 1 .298.049c.07.073.097.191.026.298l-.063-.041a2.17 2.17 0 0 1-1.814.969c-.761 0-1.43-.388-1.814-.97zm0 0a.25.25 0 0 0-.298.052.23.23 0 0 0-.025.297z"/></g><path fill="url(#police-officer-medium_svg__ab)" d="M16.013 16.444a3.44 3.44 0 0 1-1.587-.377c-.157-.08-.325.097-.227.24.384.581 1.053.969 1.814.969s1.43-.388 1.814-.97c.099-.147-.07-.318-.227-.239-.459.24-1 .377-1.587.377"/><path fill="#fff" d="M18.752 11.218a1.6 1.6 0 0 1 1.552 1.213c.052.2-.102.39-.306.39h-2.556a.264.264 0 0 1-.26-.311 1.6 1.6 0 0 1 1.57-1.292"/><path fill="url(#police-officer-medium_svg__ac)" d="M18.515 11.53a1.022 1.022 0 0 1 .985 1.292h-1.974a1.026 1.026 0 0 1 .99-1.292"/><path fill="#000" d="M17.93 12.552c0-.325.26-.585.585-.585a.583.583 0 0 1 .52.855H18a.53.53 0 0 1-.07-.27"/><g filter="url(#police-officer-medium_svg__ad)"><path fill="#C7A7A3" d="M18.44 11.746c.073.097-.08.216-.252.345-.173.13-.302.22-.375.123s.009-.281.182-.41c.173-.13.372-.156.445-.059"/><path fill="url(#police-officer-medium_svg__ae)" d="M18.44 11.746c.073.097-.08.216-.252.345-.173.13-.302.22-.375.123s.009-.281.182-.41c.173-.13.372-.156.445-.059"/></g><g filter="url(#police-officer-medium_svg__af)"><path fill="url(#police-officer-medium_svg__ag)" d="M19.426 12.418a.96.96 0 0 0-.265-.53l-.298.326.135.262z"/></g><path fill="#fff" d="M13.274 11.218a1.6 1.6 0 0 0-1.552 1.213c-.051.2.102.39.307.39h2.556a.264.264 0 0 0 .26-.311 1.605 1.605 0 0 0-1.57-1.292"/><path fill="url(#police-officer-medium_svg__ah)" d="M13.511 11.53a1.022 1.022 0 0 0-.985 1.292H14.5a1 1 0 0 0 .037-.27 1.03 1.03 0 0 0-1.027-1.022"/><path fill="#000" d="M14.097 12.552a.583.583 0 0 0-.586-.585.583.583 0 0 0-.52.855h1.036a.6.6 0 0 0 .07-.27"/><g filter="url(#police-officer-medium_svg__ai)"><path fill="url(#police-officer-medium_svg__aj)" d="M14.445 12.432c0-.33-.268-.55-.34-.617l-.331.32.203.413z"/></g><g filter="url(#police-officer-medium_svg__ak)" transform="rotate(-27.914 13.203 11.966)"><ellipse cx="13.203" cy="11.966" fill="#C7A7A3" fill-opacity=".9" rx=".446" ry=".226"/><ellipse cx="13.203" cy="11.966" fill="url(#police-officer-medium_svg__al)" rx=".446" ry=".226"/></g><path fill="url(#police-officer-medium_svg__am)" d="M21.652 14.662q.114-1.829.211-3.656a1.844 1.844 0 0 1-.211 3.656"/><path fill="url(#police-officer-medium_svg__an)" d="M21.652 14.662q.114-1.829.211-3.656a1.844 1.844 0 0 1-.211 3.656"/><path fill="url(#police-officer-medium_svg__ao)" d="M21.652 14.662q.114-1.829.211-3.656a1.844 1.844 0 0 1-.211 3.656"/><path fill="url(#police-officer-medium_svg__ap)" d="M21.652 14.662q.114-1.829.211-3.656a1.844 1.844 0 0 1-.211 3.656"/><path fill="url(#police-officer-medium_svg__aq)" d="M10.235 10.991c-.895.126-1.595.9-1.595 1.83 0 .985.771 1.789 1.742 1.841a90 90 0 0 1-.147-3.671"/><path fill="url(#police-officer-medium_svg__ar)" d="M10.235 10.991c-.895.126-1.595.9-1.595 1.83 0 .985.771 1.789 1.742 1.841a90 90 0 0 1-.147-3.671"/><g filter="url(#police-officer-medium_svg__as)"><path fill="url(#police-officer-medium_svg__at)" d="M10.188 11.753a1.095 1.095 0 0 0 .095 2.153 90 90 0 0 1-.095-2.153"/></g><g filter="url(#police-officer-medium_svg__au)"><path fill="url(#police-officer-medium_svg__av)" d="M21.799 13.829q.056-1.008.108-2.014c.46.062.815.487.815 1.003 0 .555-.413 1.005-.923 1.01"/></g><g filter="url(#police-officer-medium_svg__aw)"><path fill="url(#police-officer-medium_svg__ax)" d="M8.797 4.266c-.625.258-1.356 1.025-.969 2.375s.526 1.802.547 1.86c.04.166.223.5.633.5h.39c.051.002.182-.021.301-.134.142-.134 2.254-1.596 5.827-1.718 3.645.122 6.633 1.584 6.775 1.718a.45.45 0 0 0 .3.133h.391c.41 0 .593-.333.633-.5.02-.057.16-.51.547-1.86s-.344-2.116-.969-2.374l-5.21-1.853a6 6 0 0 0-4.032.004z"/><path fill="url(#police-officer-medium_svg__ay)" d="M8.797 4.266c-.625.258-1.356 1.025-.969 2.375s.526 1.802.547 1.86c.04.166.223.5.633.5h.39c.051.002.182-.021.301-.134.142-.134 2.254-1.596 5.827-1.718 3.645.122 6.633 1.584 6.775 1.718a.45.45 0 0 0 .3.133h.391c.41 0 .593-.333.633-.5.02-.057.16-.51.547-1.86s-.344-2.116-.969-2.374l-5.21-1.853a6 6 0 0 0-4.032.004z"/></g><path fill="url(#police-officer-medium_svg__az)" d="M8.797 4.266c-.625.258-1.356 1.025-.969 2.375s.526 1.802.547 1.86c.04.166.223.5.633.5h.39c.051.002.182-.021.301-.134.142-.134 2.254-1.596 5.827-1.718 3.645.122 6.633 1.584 6.775 1.718a.45.45 0 0 0 .3.133h.391c.41 0 .593-.333.633-.5.02-.057.16-.51.547-1.86s-.344-2.116-.969-2.374l-5.21-1.853a6 6 0 0 0-4.032.004z"/><g filter="url(#police-officer-medium_svg__aA)"><path fill="#297ECB" d="M14.74 3.8v.922a1.187 1.187 0 1 0 2.373 0v-.924a.2.2 0 0 0-.307-.169l-.253.161a.1.1 0 0 1-.134-.025l-.294-.402a.25.25 0 0 0-.404 0l-.292.401a.1.1 0 0 1-.135.025l-.247-.158a.2.2 0 0 0-.308.169"/></g><g filter="url(#police-officer-medium_svg__aB)"><path fill="url(#police-officer-medium_svg__aC)" d="M14.793 3.757v.922a1.187 1.187 0 0 0 2.374 0v-.924a.2.2 0 0 0-.308-.168l-.252.16a.1.1 0 0 1-.134-.025l-.295-.402a.25.25 0 0 0-.404 0l-.29.401a.1.1 0 0 1-.136.025l-.247-.158a.2.2 0 0 0-.308.169"/></g><g filter="url(#police-officer-medium_svg__aD)"><path fill="url(#police-officer-medium_svg__aE)" d="M9.442 8.703c.396.844 1.515 2.461 3.97 2.461h5.115c2.454 0 3.573-1.617 3.97-2.46-2.254-1.05-5.291-1.423-6.528-1.477-1.237.054-4.274.426-6.527 1.476"/><path fill="url(#police-officer-medium_svg__aF)" d="M9.442 8.703c.396.844 1.515 2.461 3.97 2.461h5.115c2.454 0 3.573-1.617 3.97-2.46-2.254-1.05-5.291-1.423-6.528-1.477-1.237.054-4.274.426-6.527 1.476"/></g><g filter="url(#police-officer-medium_svg__aG)"><path fill="#247DBD" fill-rule="evenodd" d="M21.582 8.636c-4.687-1.717-9.257-.769-10.943-.072a.717.717 0 1 1-.548-1.326c1.93-.798 6.88-1.82 11.984.05a.717.717 0 1 1-.493 1.348" clip-rule="evenodd"/></g><g filter="url(#police-officer-medium_svg__aH)"><path fill="url(#police-officer-medium_svg__aI)" fill-rule="evenodd" d="M21.92 8.962c-5.062-1.854-10-.764-11.82-.011a.775.775 0 0 1-.593-1.432c2.085-.862 7.433-2.032 12.946-.012a.775.775 0 1 1-.533 1.455" clip-rule="evenodd"/></g><path fill="url(#police-officer-medium_svg__aJ)" fill-rule="evenodd" d="M21.92 8.962c-5.062-1.854-10-.764-11.82-.011a.775.775 0 0 1-.593-1.432c2.085-.862 7.433-2.032 12.946-.012a.775.775 0 1 1-.533 1.455" clip-rule="evenodd"/><path fill="url(#police-officer-medium_svg__aK)" fill-rule="evenodd" d="M21.92 8.962c-5.062-1.854-10-.764-11.82-.011a.775.775 0 0 1-.593-1.432c2.085-.862 7.433-2.032 12.946-.012a.775.775 0 1 1-.533 1.455" clip-rule="evenodd"/><g filter="url(#police-officer-medium_svg__aL)"><path fill="url(#police-officer-medium_svg__aM)" d="M18.83 24.93a.5.5 0 0 1 .5-.5h1.812a.5.5 0 0 1 .5.5v1.727a1.406 1.406 0 0 1-2.813 0z"/></g><g filter="url(#police-officer-medium_svg__aN)"><rect width="4.156" height="1.234" x="8.939" y="25.977" fill="url(#police-officer-medium_svg__aO)" rx=".15"/></g><defs><radialGradient id="police-officer-medium_svg__a" cx="0" cy="0" r="1" gradientTransform="rotate(84.593 -3.079 16.524)scale(6.30075 12.0479)" gradientUnits="userSpaceOnUse"><stop offset=".259" stop-color="#3A84B9"/><stop offset="1" stop-color="#36A5FC" stop-opacity="0"/></radialGradient><radialGradient id="police-officer-medium_svg__b" cx="0" cy="0" r="1" gradientTransform="matrix(2.6875 0 0 14.4101 8.099 29.934)" gradientUnits="userSpaceOnUse"><stop stop-color="#30ACFF"/><stop offset="1" stop-color="#30ACFF" stop-opacity="0"/></radialGradient><radialGradient id="police-officer-medium_svg__c" cx="0" cy="0" r="1" gradientTransform="matrix(-3.15625 0 0 -12.1562 24.005 27.875)" gradientUnits="userSpaceOnUse"><stop offset=".208" stop-color="#5BCDFF"/><stop offset="1" stop-color="#5BCDFF" stop-opacity="0"/></radialGradient><radialGradient id="police-officer-medium_svg__f" cx="0" cy="0" r="1" gradientTransform="matrix(.9375 -6.93362 3.8209 .51663 6.443 29.934)" gradientUnits="userSpaceOnUse"><stop stop-color="#3BAFFF"/><stop offset="1" stop-color="#409ED2"/></radialGradient><radialGradient id="police-officer-medium_svg__g" cx="0" cy="0" r="1" gradientTransform="matrix(-1.78125 0 0 -13.7094 8.287 29.934)" gradientUnits="userSpaceOnUse"><stop offset=".351" stop-color="#3183CE"/><stop offset="1" stop-color="#4188D4" stop-opacity="0"/></radialGradient><radialGradient id="police-officer-medium_svg__h" cx="0" cy="0" r="1" gradientTransform="matrix(-1.65625 -8.02737 2.31779 -.47822 26.443 29.934)" gradientUnits="userSpaceOnUse"><stop offset=".086" stop-color="#55D2FF"/><stop offset="1" stop-color="#4EB9F4"/></radialGradient><radialGradient id="police-officer-medium_svg__i" cx="0" cy="0" r="1" gradientTransform="matrix(1.36307 0 0 13.6894 23.945 29.71)" gradientUnits="userSpaceOnUse"><stop offset=".034" stop-color="#189CF0"/><stop offset=".8" stop-color="#189CF0" stop-opacity="0"/></radialGradient><radialGradient id="police-officer-medium_svg__k" cx="0" cy="0" r="1" gradientTransform="rotate(132.839 3.525 14.988)scale(2.34396 3.58278)" gradientUnits="userSpaceOnUse"><stop stop-color="#407CCF"/><stop offset="1" stop-color="#3C73D6"/></radialGradient><radialGradient id="police-officer-medium_svg__l" cx="0" cy="0" r="1" gradientTransform="rotate(-34.579 46.34 -12.84)scale(1.95469 1.86532)" gradientUnits="userSpaceOnUse"><stop offset=".676" stop-color="#4681D4" stop-opacity="0"/><stop offset="1" stop-color="#4681D4"/></radialGradient><radialGradient id="police-officer-medium_svg__o" cx="0" cy="0" r="1" gradientTransform="matrix(0 4.71487 -1.3158 0 15.915 25.219)" gradientUnits="userSpaceOnUse"><stop stop-color="#3F7CD5"/><stop offset="1" stop-color="#3872D8"/></radialGradient><radialGradient id="police-officer-medium_svg__s" cx="0" cy="0" r="1" gradientTransform="rotate(-73.457 23.002 2.263)scale(2.31552 2.59516)" gradientUnits="userSpaceOnUse"><stop stop-color="#76C4FF"/><stop offset="1" stop-color="#76C4FF" stop-opacity="0"/></radialGradient><radialGradient id="police-officer-medium_svg__t" cx="0" cy="0" r="1" gradientTransform="matrix(-.34376 1.49506 -2.22013 -.51048 14.005 19.953)" gradientUnits="userSpaceOnUse"><stop offset=".192" stop-color="#5D8CDE"/><stop offset="1" stop-color="#5D8CDE" stop-opacity="0"/></radialGradient><radialGradient id="police-officer-medium_svg__w" cx="0" cy="0" r="1" gradientTransform="matrix(.46875 .42188 -1.25086 1.38985 17.036 20.703)" gradientUnits="userSpaceOnUse"><stop offset=".491" stop-color="#639BE0"/><stop offset=".902" stop-color="#639BE0" stop-opacity="0"/></radialGradient><radialGradient id="police-officer-medium_svg__x" cx="0" cy="0" r="1" gradientTransform="matrix(.84375 .875 -2.39996 2.31425 17.786 19.907)" gradientUnits="userSpaceOnUse"><stop offset=".149" stop-color="#5FA3EC"/><stop offset="1" stop-color="#5FA3EC" stop-opacity="0"/></radialGradient><radialGradient id="police-officer-medium_svg__z" cx="0" cy="0" r="1" gradientTransform="rotate(148.065 5.885 12.705)scale(2.68809 2.30164)" gradientUnits="userSpaceOnUse"><stop offset=".239" stop-color="#9B7282"/><stop offset="1" stop-color="#8B5D71"/></radialGradient><radialGradient id="police-officer-medium_svg__A" cx="0" cy="0" r="1" gradientTransform="matrix(-2.42188 .20312 -.04646 -.55397 15.349 20)" gradientUnits="userSpaceOnUse"><stop stop-color="#8E5879"/><stop offset="1" stop-color="#8E5879" stop-opacity="0"/></radialGradient><radialGradient id="police-officer-medium_svg__B" cx="0" cy="0" r="1" gradientTransform="matrix(-1.2821 .3468 -.8516 -3.14834 10.27 9.781)" gradientUnits="userSpaceOnUse"><stop stop-color="#2D1522"/><stop offset=".722" stop-color="#564242"/></radialGradient><radialGradient id="police-officer-medium_svg__C" cx="0" cy="0" r="1" gradientTransform="matrix(.8507 .23743 -.95836 3.43383 21.88 9.711)" gradientUnits="userSpaceOnUse"><stop stop-color="#3F2433"/><stop offset="1" stop-color="#4E383C"/></radialGradient><radialGradient id="police-officer-medium_svg__D" cx="0" cy="0" r="1" gradientTransform="rotate(69.657 .522 22.523)scale(2.46745 2.93114)" gradientUnits="userSpaceOnUse"><stop offset=".215" stop-color="#493B3B"/><stop offset="1" stop-color="#311F2C"/></radialGradient><radialGradient id="police-officer-medium_svg__E" cx="0" cy="0" r="1" gradientTransform="matrix(1.69141 .53159 -1.63998 5.21813 9.075 14.766)" gradientUnits="userSpaceOnUse"><stop stop-color="#4C3D3A"/><stop offset=".746" stop-color="#2A1E21"/></radialGradient><radialGradient id="police-officer-medium_svg__G" cx="0" cy="0" r="1" gradientTransform="matrix(-5.39002 0 0 -9.5349 19.23 13.126)" gradientUnits="userSpaceOnUse"><stop stop-color="#C89980"/><stop offset="1" stop-color="#926763"/></radialGradient><radialGradient id="police-officer-medium_svg__H" cx="0" cy="0" r="1" gradientTransform="matrix(-1.99694 3.30267 -2.72663 -1.64864 18.794 7.422)" gradientUnits="userSpaceOnUse"><stop offset=".078" stop-color="#AF887B"/><stop offset="1" stop-color="#AF887B" stop-opacity="0"/></radialGradient><radialGradient id="police-officer-medium_svg__J" cx="0" cy="0" r="1" gradientTransform="matrix(0 14.1716 -11.7357 0 16.654 6.412)" gradientUnits="userSpaceOnUse"><stop offset=".811" stop-color="#956868" stop-opacity="0"/><stop offset="1" stop-color="#985682"/></radialGradient><radialGradient id="police-officer-medium_svg__K" cx="0" cy="0" r="1" gradientTransform="matrix(0 -1.31554 1.62797 0 18.817 11.622)" gradientUnits="userSpaceOnUse"><stop offset=".325" stop-color="#AB7872"/><stop offset="1" stop-color="#AB7872" stop-opacity="0"/></radialGradient><radialGradient id="police-officer-medium_svg__L" cx="0" cy="0" r="1" gradientTransform="matrix(.0045 -1.2536 1.3642 .0049 13.378 11.675)" gradientUnits="userSpaceOnUse"><stop offset=".378" stop-color="#8F5D66"/><stop offset="1" stop-color="#8F5D66" stop-opacity="0"/></radialGradient><radialGradient id="police-officer-medium_svg__M" cx="0" cy="0" r="1" gradientTransform="matrix(-9.73289 .61439 -1.56945 -24.86261 19.946 14.258)" gradientUnits="userSpaceOnUse"><stop offset=".836" stop-color="#987064" stop-opacity="0"/><stop offset="1" stop-color="#987064"/></radialGradient><radialGradient id="police-officer-medium_svg__N" cx="0" cy="0" r="1" gradientTransform="matrix(3.8787 -3.34107 .9869 1.1457 8.233 9.995)" gradientUnits="userSpaceOnUse"><stop offset=".539" stop-color="#63413D"/><stop offset="1" stop-color="#63413D" stop-opacity="0"/></radialGradient><radialGradient id="police-officer-medium_svg__O" cx="0" cy="0" r="1" gradientTransform="rotate(95.368 6.729 15.073)scale(2.87363 1.14871)" gradientUnits="userSpaceOnUse"><stop offset=".245" stop-color="#BF9980"/><stop offset="1" stop-color="#BF9980" stop-opacity="0"/></radialGradient><radialGradient id="police-officer-medium_svg__P" cx="0" cy="0" r="1" gradientTransform="matrix(0 .99848 -1.9168 0 13.475 12.558)" gradientUnits="userSpaceOnUse"><stop stop-color="#9E7765"/><stop offset="1" stop-color="#9E7765" stop-opacity="0"/></radialGradient><radialGradient id="police-officer-medium_svg__Q" cx="0" cy="0" r="1" gradientTransform="matrix(0 3.24499 -6.75 0 15.215 9.88)" gradientUnits="userSpaceOnUse"><stop offset=".404" stop-color="#7C4E5C"/><stop offset="1" stop-color="#7C4E5C" stop-opacity="0"/></radialGradient><radialGradient id="police-officer-medium_svg__U" cx="0" cy="0" r="1" gradientTransform="matrix(0 .27964 -.87887 0 16.547 14.684)" gradientUnits="userSpaceOnUse"><stop stop-color="#BE9586"/><stop offset="1" stop-color="#BE9586" stop-opacity="0"/></radialGradient><radialGradient id="police-officer-medium_svg__W" cx="0" cy="0" r="1" gradientTransform="matrix(-1.9384 .8593 -1.38097 -3.11516 16.68 14.032)" gradientUnits="userSpaceOnUse"><stop offset=".702" stop-color="#8A5F5C" stop-opacity="0"/><stop offset="1" stop-color="#744A4A"/><stop offset="1" stop-color="#8A5F5C"/></radialGradient><radialGradient id="police-officer-medium_svg__ab" cx="0" cy="0" r="1" gradientTransform="rotate(-26.18 44.874 -24.586)scale(2.7854 11.2064)" gradientUnits="userSpaceOnUse"><stop offset=".562" stop-color="#87014E"/><stop offset="1" stop-color="#87004D"/></radialGradient><radialGradient id="police-officer-medium_svg__ac" cx="0" cy="0" r="1" gradientTransform="matrix(0 .92944 -1.47837 0 18.513 12.076)" gradientUnits="userSpaceOnUse"><stop offset=".802" stop-color="#7D574A"/><stop offset="1" stop-color="#694B43"/><stop offset="1" stop-color="#804D49"/><stop offset="1" stop-color="#664842"/></radialGradient><radialGradient id="police-officer-medium_svg__ae" cx="0" cy="0" r="1" gradientTransform="rotate(-127.812 12.107 1.617)scale(.43336 .59664)" gradientUnits="userSpaceOnUse"><stop offset=".766" stop-color="#FFE6E2" stop-opacity="0"/><stop offset=".966" stop-color="#FFE6E2"/></radialGradient><radialGradient id="police-officer-medium_svg__ah" cx="0" cy="0" r="1" gradientTransform="matrix(0 .92948 -1.47845 0 13.514 12.076)" gradientUnits="userSpaceOnUse"><stop offset=".802" stop-color="#7D574A"/><stop offset="1" stop-color="#694B43"/><stop offset="1" stop-color="#804D49"/><stop offset="1" stop-color="#664842"/></radialGradient><radialGradient id="police-officer-medium_svg__al" cx="0" cy="0" r="1" gradientTransform="rotate(-90.897 12.66 -.327)scale(.56608 .68046)" gradientUnits="userSpaceOnUse"><stop offset=".766" stop-color="#FFE6E2" stop-opacity="0"/><stop offset=".966" stop-color="#FFE6E2"/></radialGradient><radialGradient id="police-officer-medium_svg__an" cx="0" cy="0" r="1" gradientTransform="matrix(.72006 2.56987 -2.45185 .687 21.303 12.092)" gradientUnits="userSpaceOnUse"><stop offset=".856" stop-color="#9A676A" stop-opacity="0"/><stop offset="1" stop-color="#9A676A"/></radialGradient><radialGradient id="police-officer-medium_svg__ao" cx="0" cy="0" r="1" gradientTransform="matrix(.90247 -1.2385 1.0381 .75645 21.716 12.716)" gradientUnits="userSpaceOnUse"><stop offset=".664" stop-color="#9E6A5C"/><stop offset="1" stop-color="#9E6A5C" stop-opacity="0"/></radialGradient><radialGradient id="police-officer-medium_svg__ap" cx="0" cy="0" r="1" gradientTransform="matrix(.67246 -1.77614 2.37318 .8985 21.847 12.913)" gradientUnits="userSpaceOnUse"><stop offset=".803" stop-color="#A47F62" stop-opacity="0"/><stop offset="1" stop-color="#A47F62"/></radialGradient><radialGradient id="police-officer-medium_svg__ar" cx="0" cy="0" r="1" gradientTransform="matrix(-1.89967 0 0 -2.12126 10.382 12.827)" gradientUnits="userSpaceOnUse"><stop offset=".778" stop-color="#9D7667" stop-opacity="0"/><stop offset="1" stop-color="#9D7667"/></radialGradient><radialGradient id="police-officer-medium_svg__at" cx="0" cy="0" r="1" gradientTransform="matrix(-1.0499 .18022 -.18478 -1.07649 10.383 12.83)" gradientUnits="userSpaceOnUse"><stop stop-color="#714B4D"/><stop offset="1" stop-color="#784E52"/></radialGradient><radialGradient id="police-officer-medium_svg__ax" cx="0" cy="0" r="1" gradientTransform="rotate(153.716 9.95 5.24)scale(8.88768 11.3119)" gradientUnits="userSpaceOnUse"><stop stop-color="#48A8FB"/><stop offset="1" stop-color="#328FDD"/></radialGradient><radialGradient id="police-officer-medium_svg__az" cx="0" cy="0" r="1" gradientTransform="matrix(-.56249 1.8125 -5.67441 -1.76097 20.88 4.125)" gradientUnits="userSpaceOnUse"><stop offset=".148" stop-color="#47B7FB"/><stop offset="1" stop-color="#47B7FB" stop-opacity="0"/></radialGradient><radialGradient id="police-officer-medium_svg__aE" cx="0" cy="0" r="1" gradientTransform="rotate(-141.454 12.31 1.781)scale(8.75158 12.2726)" gradientUnits="userSpaceOnUse"><stop stop-color="#574A69"/><stop offset="1" stop-color="#46395B"/></radialGradient><radialGradient id="police-officer-medium_svg__aF" cx="0" cy="0" r="1" gradientTransform="matrix(0 -4.33594 10.5987 0 15.969 11.563)" gradientUnits="userSpaceOnUse"><stop offset=".764" stop-color="#1D1B3E" stop-opacity="0"/><stop offset=".917" stop-color="#1D1B3E"/></radialGradient><radialGradient id="police-officer-medium_svg__aJ" cx="0" cy="0" r="1" gradientTransform="rotate(101.822 7.538 11.83)scale(1.37287 11.6524)" gradientUnits="userSpaceOnUse"><stop stop-color="#87DDFF"/><stop offset="1" stop-color="#7DC8FC" stop-opacity="0"/></radialGradient><radialGradient id="police-officer-medium_svg__aK" cx="0" cy="0" r="1" gradientTransform="rotate(137.81 10.052 8.132)scale(2.38738 2.66614)" gradientUnits="userSpaceOnUse"><stop stop-color="#8AE0FF"/><stop offset="1" stop-color="#8AE0FF" stop-opacity="0"/></radialGradient><filter id="police-officer-medium_svg__e" width="7.365" height="6.01" x="12.146" y="19.185" color-interpolation-filters="sRGB" filterUnits="userSpaceOnUse"><feFlood flood-opacity="0" result="BackgroundImageFix"/><feBlend in="SourceGraphic" in2="BackgroundImageFix" result="shape"/><feGaussianBlur result="effect1_foregroundBlur_4002_2683" stdDeviation=".25"/></filter><filter id="police-officer-medium_svg__j" width="4.12" height="2.78" x="13.959" y="21.829" color-interpolation-filters="sRGB" filterUnits="userSpaceOnUse"><feFlood flood-opacity="0" result="BackgroundImageFix"/><feBlend in="SourceGraphic" in2="BackgroundImageFix" result="shape"/><feColorMatrix in="SourceAlpha" result="hardAlpha" values="0 0 0 0 0 0 0 0 0 0 0 0 0 0 0 0 0 0 127 0"/><feOffset dx=".1" dy="-.15"/><feGaussianBlur stdDeviation=".15"/><feComposite in2="hardAlpha" k2="-1" k3="1" operator="arithmetic"/><feColorMatrix values="0 0 0 0 0.0980392 0 0 0 0 0.321569 0 0 0 0 0.741176 0 0 0 1 0"/><feBlend in2="shape" result="effect1_innerShadow_4002_2683"/></filter><filter id="police-officer-medium_svg__r" width="3.58" height="4.539" x="12.543" y="19.129" color-interpolation-filters="sRGB" filterUnits="userSpaceOnUse"><feFlood flood-opacity="0" result="BackgroundImageFix"/><feBlend in="SourceGraphic" in2="BackgroundImageFix" result="shape"/><feColorMatrix in="SourceAlpha" result="hardAlpha" values="0 0 0 0 0 0 0 0 0 0 0 0 0 0 0 0 0 0 127 0"/><feOffset dx=".1" dy="-.1"/><feGaussianBlur stdDeviation=".2"/><feComposite in2="hardAlpha" k2="-1" k3="1" operator="arithmetic"/><feColorMatrix values="0 0 0 0 0.321569 0 0 0 0 0.701961 0 0 0 0 1 0 0 0 1 0"/><feBlend in2="shape" result="effect1_innerShadow_4002_2683"/></filter><filter id="police-officer-medium_svg__u" width="3.6" height="4.539" x="15.878" y="19.129" color-interpolation-filters="sRGB" filterUnits="userSpaceOnUse"><feFlood flood-opacity="0" result="BackgroundImageFix"/><feBlend in="SourceGraphic" in2="BackgroundImageFix" result="shape"/><feColorMatrix in="SourceAlpha" result="hardAlpha" values="0 0 0 0 0 0 0 0 0 0 0 0 0 0 0 0 0 0 127 0"/><feOffset dx=".1" dy="-.1"/><feGaussianBlur stdDeviation=".2"/><feComposite in2="hardAlpha" k2="-1" k3="1" operator="arithmetic"/><feColorMatrix values="0 0 0 0 0.321569 0 0 0 0 0.701961 0 0 0 0 1 0 0 0 1 0"/><feBlend in2="shape" result="effect1_innerShadow_4002_2683"/></filter><filter id="police-officer-medium_svg__y" width="4.352" height="2.805" x="13.739" y="19.25" color-interpolation-filters="sRGB" filterUnits="userSpaceOnUse"><feFlood flood-opacity="0" result="BackgroundImageFix"/><feBlend in="SourceGraphic" in2="BackgroundImageFix" result="shape"/><feColorMatrix in="SourceAlpha" result="hardAlpha" values="0 0 0 0 0 0 0 0 0 0 0 0 0 0 0 0 0 0 127 0"/><feOffset dy="-.25"/><feGaussianBlur stdDeviation=".3"/><feComposite in2="hardAlpha" k2="-1" k3="1" operator="arithmetic"/><feColorMatrix values="0 0 0 0 0.466667 0 0 0 0 0.278431 0 0 0 0 0.403922 0 0 0 1 0"/><feBlend in2="shape" result="effect1_innerShadow_4002_2683"/></filter><filter id="police-officer-medium_svg__F" width="12.708" height="14.239" x="10.213" y="6.056" color-interpolation-filters="sRGB" filterUnits="userSpaceOnUse"><feFlood flood-opacity="0" result="BackgroundImageFix"/><feBlend in="SourceGraphic" in2="BackgroundImageFix" result="shape"/><feColorMatrix in="SourceAlpha" result="hardAlpha" values="0 0 0 0 0 0 0 0 0 0 0 0 0 0 0 0 0 0 127 0"/><feOffset dx="1"/><feGaussianBlur stdDeviation=".7"/><feComposite in2="hardAlpha" k2="-1" k3="1" operator="arithmetic"/><feColorMatrix values="0 0 0 0 0.584314 0 0 0 0 0.427451 0 0 0 0 0.376471 0 0 0 1 0"/><feBlend in2="shape" result="effect1_innerShadow_4002_2683"/><feColorMatrix in="SourceAlpha" result="hardAlpha" values="0 0 0 0 0 0 0 0 0 0 0 0 0 0 0 0 0 0 127 0"/><feOffset dy=".1"/><feGaussianBlur stdDeviation=".2"/><feComposite in2="hardAlpha" k2="-1" k3="1" operator="arithmetic"/><feColorMatrix values="0 0 0 0 0.419608 0 0 0 0 0.25098 0 0 0 0 0.262745 0 0 0 1 0"/><feBlend in2="effect1_innerShadow_4002_2683" result="effect2_innerShadow_4002_2683"/></filter><filter id="police-officer-medium_svg__R" width="4.001" height="5.322" x="13.85" y="11.181" color-interpolation-filters="sRGB" filterUnits="userSpaceOnUse"><feFlood flood-opacity="0" result="BackgroundImageFix"/><feBlend in="SourceGraphic" in2="BackgroundImageFix" result="shape"/><feGaussianBlur result="effect1_foregroundBlur_4002_2683" stdDeviation=".5"/></filter><filter id="police-officer-medium_svg__S" width="2.551" height="3.722" x="14.738" y="11.757" color-interpolation-filters="sRGB" filterUnits="userSpaceOnUse"><feFlood flood-opacity="0" result="BackgroundImageFix"/><feBlend in="SourceGraphic" in2="BackgroundImageFix" result="shape"/><feColorMatrix in="SourceAlpha" result="hardAlpha" values="0 0 0 0 0 0 0 0 0 0 0 0 0 0 0 0 0 0 127 0"/><feOffset dx=".1" dy="-.1"/><feGaussianBlur stdDeviation=".125"/><feComposite in2="hardAlpha" k2="-1" k3="1" operator="arithmetic"/><feColorMatrix values="0 0 0 0 0.517647 0 0 0 0 0.360784 0 0 0 0 0.309804 0 0 0 1 0"/><feBlend in2="shape" result="effect1_innerShadow_4002_2683"/><feGaussianBlur result="effect2_foregroundBlur_4002_2683" stdDeviation=".1"/></filter><filter id="police-officer-medium_svg__X" width="2.551" height="3.722" x="14.738" y="11.757" color-interpolation-filters="sRGB" filterUnits="userSpaceOnUse"><feFlood flood-opacity="0" result="BackgroundImageFix"/><feBlend in="SourceGraphic" in2="BackgroundImageFix" result="shape"/><feGaussianBlur result="effect1_foregroundBlur_4002_2683" stdDeviation=".1"/></filter><filter id="police-officer-medium_svg__Z" width="4.187" height="1.729" x="13.92" y="15.797" color-interpolation-filters="sRGB" filterUnits="userSpaceOnUse"><feFlood flood-opacity="0" result="BackgroundImageFix"/><feBlend in="SourceGraphic" in2="BackgroundImageFix" result="shape"/><feGaussianBlur result="effect1_foregroundBlur_4002_2683" stdDeviation=".05"/></filter><filter id="police-officer-medium_svg__ad" width=".872" height=".769" x="17.687" y="11.586" color-interpolation-filters="sRGB" filterUnits="userSpaceOnUse"><feFlood flood-opacity="0" result="BackgroundImageFix"/><feBlend in="SourceGraphic" in2="BackgroundImageFix" result="shape"/><feGaussianBlur result="effect1_foregroundBlur_4002_2683" stdDeviation=".05"/></filter><filter id="police-officer-medium_svg__af" width=".963" height=".988" x="18.663" y="11.688" color-interpolation-filters="sRGB" filterUnits="userSpaceOnUse"><feFlood flood-opacity="0" result="BackgroundImageFix"/><feBlend in="SourceGraphic" in2="BackgroundImageFix" result="shape"/><feGaussianBlur result="effect1_foregroundBlur_4002_2683" stdDeviation=".1"/></filter><filter id="police-officer-medium_svg__ai" width="1.072" height="1.133" x="13.574" y="11.615" color-interpolation-filters="sRGB" filterUnits="userSpaceOnUse"><feFlood flood-opacity="0" result="BackgroundImageFix"/><feBlend in="SourceGraphic" in2="BackgroundImageFix" result="shape"/><feGaussianBlur result="effect1_foregroundBlur_4002_2683" stdDeviation=".1"/></filter><filter id="police-officer-medium_svg__ak" width="1.017" height=".778" x="12.694" y="11.578" color-interpolation-filters="sRGB" filterUnits="userSpaceOnUse"><feFlood flood-opacity="0" result="BackgroundImageFix"/><feBlend in="SourceGraphic" in2="BackgroundImageFix" result="shape"/><feGaussianBlur result="effect1_foregroundBlur_4002_2683" stdDeviation=".05"/></filter><filter id="police-officer-medium_svg__as" width="1.45" height="2.653" x="9.084" y="11.503" color-interpolation-filters="sRGB" filterUnits="userSpaceOnUse"><feFlood flood-opacity="0" result="BackgroundImageFix"/><feBlend in="SourceGraphic" in2="BackgroundImageFix" result="shape"/><feGaussianBlur result="effect1_foregroundBlur_4002_2683" stdDeviation=".125"/></filter><filter id="police-officer-medium_svg__au" width="1.923" height="3.014" x="21.299" y="11.315" color-interpolation-filters="sRGB" filterUnits="userSpaceOnUse"><feFlood flood-opacity="0" result="BackgroundImageFix"/><feBlend in="SourceGraphic" in2="BackgroundImageFix" result="shape"/><feGaussianBlur result="effect1_foregroundBlur_4002_2683" stdDeviation=".25"/></filter><filter id="police-officer-medium_svg__aw" width="16.56" height="6.934" x="7.72" y="2.066" color-interpolation-filters="sRGB" filterUnits="userSpaceOnUse"><feFlood flood-opacity="0" result="BackgroundImageFix"/><feBlend in="SourceGraphic" in2="BackgroundImageFix" result="shape"/><feColorMatrix in="SourceAlpha" result="hardAlpha" values="0 0 0 0 0 0 0 0 0 0 0 0 0 0 0 0 0 0 127 0"/><feOffset/><feGaussianBlur stdDeviation=".5"/><feComposite in2="hardAlpha" k2="-1" k3="1" operator="arithmetic"/><feColorMatrix values="0 0 0 0 0.298039 0 0 0 0 0.537255 0 0 0 0 0.701961 0 0 0 1 0"/><feBlend in2="shape" result="effect1_innerShadow_4002_2683"/></filter><filter id="police-officer-medium_svg__aA" width="2.674" height="2.948" x="14.589" y="3.111" color-interpolation-filters="sRGB" filterUnits="userSpaceOnUse"><feFlood flood-opacity="0" result="BackgroundImageFix"/><feBlend in="SourceGraphic" in2="BackgroundImageFix" result="shape"/><feGaussianBlur result="effect1_foregroundBlur_4002_2683" stdDeviation=".075"/></filter><filter id="police-officer-medium_svg__aB" width="2.624" height="2.748" x="14.643" y="3.118" color-interpolation-filters="sRGB" filterUnits="userSpaceOnUse"><feFlood flood-opacity="0" result="BackgroundImageFix"/><feBlend in="SourceGraphic" in2="BackgroundImageFix" result="shape"/><feColorMatrix in="SourceAlpha" result="hardAlpha" values="0 0 0 0 0 0 0 0 0 0 0 0 0 0 0 0 0 0 127 0"/><feOffset dx="-.15"/><feGaussianBlur stdDeviation=".075"/><feComposite in2="hardAlpha" k2="-1" k3="1" operator="arithmetic"/><feColorMatrix values="0 0 0 0 1 0 0 0 0 0.952941 0 0 0 0 0.411765 0 0 0 1 0"/><feBlend in2="shape" result="effect1_innerShadow_4002_2683"/><feColorMatrix in="SourceAlpha" result="hardAlpha" values="0 0 0 0 0 0 0 0 0 0 0 0 0 0 0 0 0 0 127 0"/><feOffset dx=".1" dy="-.1"/><feGaussianBlur stdDeviation=".125"/><feComposite in2="hardAlpha" k2="-1" k3="1" operator="arithmetic"/><feColorMatrix values="0 0 0 0 0.952941 0 0 0 0 0.623529 0 0 0 0 0.317647 0 0 0 1 0"/><feBlend in2="effect1_innerShadow_4002_2683" result="effect2_innerShadow_4002_2683"/></filter><filter id="police-officer-medium_svg__aD" width="13.155" height="4.088" x="9.342" y="7.077" color-interpolation-filters="sRGB" filterUnits="userSpaceOnUse"><feFlood flood-opacity="0" result="BackgroundImageFix"/><feBlend in="SourceGraphic" in2="BackgroundImageFix" result="shape"/><feColorMatrix in="SourceAlpha" result="hardAlpha" values="0 0 0 0 0 0 0 0 0 0 0 0 0 0 0 0 0 0 127 0"/><feOffset dx="-.1" dy="-.15"/><feGaussianBlur stdDeviation=".125"/><feComposite in2="hardAlpha" k2="-1" k3="1" operator="arithmetic"/><feColorMatrix values="0 0 0 0 0.368627 0 0 0 0 0.313726 0 0 0 0 0.427451 0 0 0 1 0"/><feBlend in2="shape" result="effect1_innerShadow_4002_2683"/><feColorMatrix in="SourceAlpha" result="hardAlpha" values="0 0 0 0 0 0 0 0 0 0 0 0 0 0 0 0 0 0 127 0"/><feOffset dy="-.1"/><feGaussianBlur stdDeviation=".05"/><feComposite in2="hardAlpha" k2="-1" k3="1" operator="arithmetic"/><feColorMatrix values="0 0 0 0 0.34902 0 0 0 0 0.207843 0 0 0 0 0.407843 0 0 0 1 0"/><feBlend in2="effect1_innerShadow_4002_2683" result="effect2_innerShadow_4002_2683"/></filter><filter id="police-officer-medium_svg__aG" width="13.899" height="3.448" x="9.147" y="5.732" color-interpolation-filters="sRGB" filterUnits="userSpaceOnUse"><feFlood flood-opacity="0" result="BackgroundImageFix"/><feBlend in="SourceGraphic" in2="BackgroundImageFix" result="shape"/><feGaussianBlur result="effect1_foregroundBlur_4002_2683" stdDeviation=".25"/></filter><filter id="police-officer-medium_svg__aH" width="14.033" height="2.72" x="9.028" y="6.29" color-interpolation-filters="sRGB" filterUnits="userSpaceOnUse"><feFlood flood-opacity="0" result="BackgroundImageFix"/><feBlend in="SourceGraphic" in2="BackgroundImageFix" result="shape"/><feColorMatrix in="SourceAlpha" result="hardAlpha" values="0 0 0 0 0 0 0 0 0 0 0 0 0 0 0 0 0 0 127 0"/><feOffset dx=".1" dy="-.1"/><feGaussianBlur stdDeviation=".25"/><feComposite in2="hardAlpha" k2="-1" k3="1" operator="arithmetic"/><feColorMatrix values="0 0 0 0 0.333333 0 0 0 0 0.603922 0 0 0 0 0.862745 0 0 0 1 0"/><feBlend in2="shape" result="effect1_innerShadow_4002_2683"/></filter><filter id="police-officer-medium_svg__aL" width="3.063" height="3.733" x="18.679" y="24.33" color-interpolation-filters="sRGB" filterUnits="userSpaceOnUse"><feFlood flood-opacity="0" result="BackgroundImageFix"/><feBlend in="SourceGraphic" in2="BackgroundImageFix" result="shape"/><feColorMatrix in="SourceAlpha" result="hardAlpha" values="0 0 0 0 0 0 0 0 0 0 0 0 0 0 0 0 0 0 127 0"/><feOffset dx="-.15"/><feGaussianBlur stdDeviation=".075"/><feComposite in2="hardAlpha" k2="-1" k3="1" operator="arithmetic"/><feColorMatrix values="0 0 0 0 1 0 0 0 0 0.952941 0 0 0 0 0.411765 0 0 0 1 0"/><feBlend in2="shape" result="effect1_innerShadow_4002_2683"/><feColorMatrix in="SourceAlpha" result="hardAlpha" values="0 0 0 0 0 0 0 0 0 0 0 0 0 0 0 0 0 0 127 0"/><feOffset dx=".1" dy="-.1"/><feGaussianBlur stdDeviation=".1"/><feComposite in2="hardAlpha" k2="-1" k3="1" operator="arithmetic"/><feColorMatrix values="0 0 0 0 0.952941 0 0 0 0 0.623529 0 0 0 0 0.317647 0 0 0 1 0"/><feBlend in2="effect1_innerShadow_4002_2683" result="effect2_innerShadow_4002_2683"/></filter><filter id="police-officer-medium_svg__aN" width="4.306" height="1.334" x="8.789" y="25.877" color-interpolation-filters="sRGB" filterUnits="userSpaceOnUse"><feFlood flood-opacity="0" result="BackgroundImageFix"/><feBlend in="SourceGraphic" in2="BackgroundImageFix" result="shape"/><feColorMatrix in="SourceAlpha" result="hardAlpha" values="0 0 0 0 0 0 0 0 0 0 0 0 0 0 0 0 0 0 127 0"/><feOffset dx="-.15"/><feGaussianBlur stdDeviation=".075"/><feComposite in2="hardAlpha" k2="-1" k3="1" operator="arithmetic"/><feColorMatrix values="0 0 0 0 1 0 0 0 0 0.952941 0 0 0 0 0.411765 0 0 0 1 0"/><feBlend in2="shape" result="effect1_innerShadow_4002_2683"/><feColorMatrix in="SourceAlpha" result="hardAlpha" values="0 0 0 0 0 0 0 0 0 0 0 0 0 0 0 0 0 0 127 0"/><feOffset dy="-.1"/><feGaussianBlur stdDeviation=".1"/><feComposite in2="hardAlpha" k2="-1" k3="1" operator="arithmetic"/><feColorMatrix values="0 0 0 0 0.952941 0 0 0 0 0.623529 0 0 0 0 0.317647 0 0 0 1 0"/><feBlend in2="effect1_innerShadow_4002_2683" result="effect2_innerShadow_4002_2683"/></filter><linearGradient id="police-officer-medium_svg__d" x1="7.926" x2="8.205" y1="28.477" y2="28.477" gradientUnits="userSpaceOnUse"><stop offset=".229" stop-color="#1B89DC"/><stop offset="1" stop-color="#1B89DC" stop-opacity="0"/></linearGradient><linearGradient id="police-officer-medium_svg__m" x1="15.193" x2="15.497" y1="22.422" y2="22.766" gradientUnits="userSpaceOnUse"><stop offset=".193" stop-color="#33488B"/><stop offset="1" stop-color="#1B54BE" stop-opacity="0"/></linearGradient><linearGradient id="police-officer-medium_svg__n" x1="16.404" x2="16.185" y1="22.258" y2="22.555" gradientUnits="userSpaceOnUse"><stop offset=".193" stop-color="#33488B"/><stop offset="1" stop-color="#1B54BE" stop-opacity="0"/></linearGradient><linearGradient id="police-officer-medium_svg__p" x1="17.412" x2="16.474" y1="27.875" y2="28.063" gradientUnits="userSpaceOnUse"><stop stop-color="#4A88DF"/><stop offset="1" stop-color="#4A88DF" stop-opacity="0"/></linearGradient><linearGradient id="police-officer-medium_svg__q" x1="14.677" x2="15.915" y1="27.11" y2="27.125" gradientUnits="userSpaceOnUse"><stop stop-color="#3169C8"/><stop offset="1" stop-color="#3169C8" stop-opacity="0"/></linearGradient><linearGradient id="police-officer-medium_svg__v" x1="18.786" x2="17.247" y1="22.422" y2="22.102" gradientUnits="userSpaceOnUse"><stop stop-color="#8BE8FF"/><stop offset="1" stop-color="#75C1FF" stop-opacity="0"/></linearGradient><linearGradient id="police-officer-medium_svg__I" x1="21.921" x2="19.024" y1="15.056" y2="15.056" gradientUnits="userSpaceOnUse"><stop stop-color="#C2987E"/><stop offset="1" stop-color="#C2987E" stop-opacity="0"/></linearGradient><linearGradient id="police-officer-medium_svg__T" x1="16.974" x2="16.013" y1="13.899" y2="13.938" gradientUnits="userSpaceOnUse"><stop stop-color="#C29C84"/><stop offset="1" stop-color="#C29C84" stop-opacity="0"/></linearGradient><linearGradient id="police-officer-medium_svg__V" x1="16.013" x2="16.013" y1="15.204" y2="14.671" gradientUnits="userSpaceOnUse"><stop stop-color="#9C6376"/><stop offset="1" stop-color="#9C6376" stop-opacity="0"/></linearGradient><linearGradient id="police-officer-medium_svg__Y" x1="16.013" x2="16.059" y1="11.957" y2="13.123" gradientUnits="userSpaceOnUse"><stop stop-color="#875A60"/><stop offset="1" stop-color="#875A60" stop-opacity="0"/></linearGradient><linearGradient id="police-officer-medium_svg__aa" x1="14.637" x2="15.001" y1="17.003" y2="16.047" gradientUnits="userSpaceOnUse"><stop stop-color="#AB817B"/><stop offset="1" stop-color="#AB817B" stop-opacity="0"/></linearGradient><linearGradient id="police-officer-medium_svg__ag" x1="19.404" x2="19.045" y1="12.138" y2="12.359" gradientUnits="userSpaceOnUse"><stop stop-color="#B4948D"/><stop offset="1" stop-color="#B4948D" stop-opacity="0"/></linearGradient><linearGradient id="police-officer-medium_svg__aj" x1="14.366" x2="14.006" y1="12.138" y2="12.359" gradientUnits="userSpaceOnUse"><stop stop-color="#B4948D"/><stop offset="1" stop-color="#B4948D" stop-opacity="0"/></linearGradient><linearGradient id="police-officer-medium_svg__am" x1="23.387" x2="22.004" y1="12.168" y2="14.662" gradientUnits="userSpaceOnUse"><stop stop-color="#C9A188"/><stop offset="1" stop-color="#B08175"/></linearGradient><linearGradient id="police-officer-medium_svg__aq" x1="9.312" x2="10.982" y1="12.975" y2="12.829" gradientUnits="userSpaceOnUse"><stop stop-color="#855D5A"/><stop offset="1" stop-color="#7D4D5B"/></linearGradient><linearGradient id="police-officer-medium_svg__av" x1="22.26" x2="22.26" y1="11.815" y2="13.829" gradientUnits="userSpaceOnUse"><stop stop-color="#AC7F6F"/><stop offset="1" stop-color="#AD806F"/></linearGradient><linearGradient id="police-officer-medium_svg__ay" x1="7.318" x2="13.13" y1="7.657" y2="6.094" gradientUnits="userSpaceOnUse"><stop stop-color="#4389D1"/><stop offset="1" stop-color="#4389D1" stop-opacity="0"/></linearGradient><linearGradient id="police-officer-medium_svg__aC" x1="16.899" x2="14.793" y1="4.542" y2="4.542" gradientUnits="userSpaceOnUse"><stop stop-color="#FFD44C"/><stop offset="1" stop-color="#FFD24B"/></linearGradient><linearGradient id="police-officer-medium_svg__aI" x1="10.974" x2="21.755" y1="7.7" y2="7.7" gradientUnits="userSpaceOnUse"><stop stop-color="#73B8F6"/><stop offset="1" stop-color="#81D0FF"/></linearGradient><linearGradient id="police-officer-medium_svg__aM" x1="21.325" x2="18.829" y1="26.246" y2="26.246" gradientUnits="userSpaceOnUse"><stop stop-color="#FFD44C"/><stop offset="1" stop-color="#FFD24B"/></linearGradient><linearGradient id="police-officer-medium_svg__aO" x1="13.095" x2="8.763" y1="26.864" y2="26.864" gradientUnits="userSpaceOnUse"><stop stop-color="#FFD04C"/><stop offset="1" stop-color="#FFCD47"/></linearGradient></defs></svg>