<svg width="32" height="32" fill="none" xmlns="http://www.w3.org/2000/svg"><rect x="2.078" y="11.625" width="27.844" height="18.281" rx="2.2" fill="url(#a)"/><rect x="2.078" y="11.625" width="27.844" height="18.281" rx="2.2" fill="url(#b)"/><rect x="2.078" y="11.625" width="27.844" height="18.281" rx="2.2" fill="url(#c)"/><rect x="2.078" y="8.031" width="27.844" height="18.281" rx="2.2" fill="url(#d)"/><g filter="url(#e)"><path fill-rule="evenodd" clip-rule="evenodd" d="M27.063 10.156H4.938a.75.75 0 0 0-.75.75v12.531c0 .415.335.75.75.75h22.125a.75.75 0 0 0 .75-.75v-12.53a.75.75 0 0 0-.75-.75Zm-22.125-.75a1.5 1.5 0 0 0-1.5 1.5v12.531a1.5 1.5 0 0 0 1.5 1.5h22.125a1.5 1.5 0 0 0 1.5-1.5v-12.53a1.5 1.5 0 0 0-1.5-1.5H4.938Z" fill="url(#f)"/></g><ellipse cx="20.844" cy="17.172" rx="4.625" ry="4.266" fill="#605689"/><ellipse cx="20.844" cy="17.172" rx="4.625" ry="4.266" fill="url(#g)"/><ellipse cx="20.844" cy="17.172" rx="4.625" ry="4.266" fill="url(#h)"/><g filter="url(#i)"><path d="M14.969 8.313h4.156v18h-4.313l.157-18Z" fill="#5E3D72"/></g><g filter="url(#j)"><path d="M14.984 29.719h4.141v-3.407h-4.313l.172 3.407Z" fill="#462B56"/></g><path fill="url(#k)" d="M15.063 8.031h4.375v21.875h-4.375z"/><path fill="url(#l)" d="M15.063 8.031h4.375v21.875h-4.375z"/><g filter="url(#m)"><path d="M8.704 12.669c.425-.235.956-.363 1.608-.363 1.029 0 1.754.382 2.204.928.429.52.573 1.15.535 1.612a.6.6 0 1 1-1.196-.098 1.134 1.134 0 0 0-.265-.751c-.2-.242-.572-.49-1.277-.49-.497 0-.819.096-1.028.212a1.033 1.033 0 0 0-.423.425c-.184.342-.184.738-.184.978v1.528h1.666a.6.6 0 0 1 0 1.2H8.678v1.865c.002.133-.012.302-.054.482H13a.6.6 0 1 1 0 1.2H6.469a.6.6 0 1 1 0-1.2h.749c.067 0 .095-.015.107-.023a.217.217 0 0 0 .067-.078.8.8 0 0 0 .086-.369V17.85h-1.01a.6.6 0 1 1 0-1.2h1.01v-1.548c-.002-.24-.006-.908.328-1.527.184-.342.47-.67.898-.906Z" fill="url(#n)"/></g><defs><linearGradient id="a" x1="28.109" y1="28.688" x2="3.047" y2="28.688" gradientUnits="userSpaceOnUse"><stop stop-color="#614A81"/><stop offset="1" stop-color="#513B6C"/></linearGradient><linearGradient id="b" x1="29.922" y1="27.813" x2="27.266" y2="27.813" gradientUnits="userSpaceOnUse"><stop stop-color="#7B63AD"/><stop offset="1" stop-color="#7B63AD" stop-opacity="0"/></linearGradient><linearGradient id="c" x1="2.078" y1="27.688" x2="4.828" y2="27.688" gradientUnits="userSpaceOnUse"><stop offset=".557" stop-color="#49345C"/><stop offset="1" stop-color="#49345C" stop-opacity="0"/></linearGradient><linearGradient id="f" x1="25.625" y1="9.75" x2="7.875" y2="24.438" gradientUnits="userSpaceOnUse"><stop stop-color="#5E5388"/><stop offset="1" stop-color="#63568F"/></linearGradient><linearGradient id="g" x1="19.313" y1="17.688" x2="21.094" y2="17.688" gradientUnits="userSpaceOnUse"><stop offset=".228" stop-color="#5A507F"/><stop offset="1" stop-color="#5A507F" stop-opacity="0"/></linearGradient><linearGradient id="k" x1="17.25" y1="9.688" x2="17.25" y2="27" gradientUnits="userSpaceOnUse"><stop stop-color="#FFD425"/><stop offset="1" stop-color="#FFAD24"/></linearGradient><linearGradient id="l" x1="18.313" y1="29.906" x2="18.313" y2="26.063" gradientUnits="userSpaceOnUse"><stop offset=".894" stop-color="#CC8139"/><stop offset="1" stop-color="#CC8139" stop-opacity="0"/></linearGradient><linearGradient id="n" x1="9.734" y1="12.306" x2="9.734" y2="21.397" gradientUnits="userSpaceOnUse"><stop stop-color="#EFEAEA"/><stop offset="1" stop-color="#EAE3E3"/></linearGradient><filter id="e" x="3.237" y="9.406" width="25.325" height="15.731" filterUnits="userSpaceOnUse" color-interpolation-filters="sRGB"><feFlood flood-opacity="0" result="BackgroundImageFix"/><feBlend in="SourceGraphic" in2="BackgroundImageFix" result="shape"/><feColorMatrix in="SourceAlpha" values="0 0 0 0 0 0 0 0 0 0 0 0 0 0 0 0 0 0 127 0" result="hardAlpha"/><feOffset dy=".2"/><feGaussianBlur stdDeviation=".125"/><feComposite in2="hardAlpha" operator="arithmetic" k2="-1" k3="1"/><feColorMatrix values="0 0 0 0 0.309804 0 0 0 0 0.266667 0 0 0 0 0.454902 0 0 0 1 0"/><feBlend in2="shape" result="effect1_innerShadow_18_21488"/><feColorMatrix in="SourceAlpha" values="0 0 0 0 0 0 0 0 0 0 0 0 0 0 0 0 0 0 127 0" result="hardAlpha"/><feOffset dx="-.2"/><feGaussianBlur stdDeviation=".125"/><feComposite in2="hardAlpha" operator="arithmetic" k2="-1" k3="1"/><feColorMatrix values="0 0 0 0 0.294118 0 0 0 0 0.25098 0 0 0 0 0.439216 0 0 0 1 0"/><feBlend in2="effect1_innerShadow_18_21488" result="effect2_innerShadow_18_21488"/></filter><filter id="i" x="14.412" y="7.912" width="5.112" height="18.8" filterUnits="userSpaceOnUse" color-interpolation-filters="sRGB"><feFlood flood-opacity="0" result="BackgroundImageFix"/><feBlend in="SourceGraphic" in2="BackgroundImageFix" result="shape"/><feGaussianBlur stdDeviation=".2" result="effect1_foregroundBlur_18_21488"/></filter><filter id="j" x="14.563" y="26.063" width="4.813" height="3.906" filterUnits="userSpaceOnUse" color-interpolation-filters="sRGB"><feFlood flood-opacity="0" result="BackgroundImageFix"/><feBlend in="SourceGraphic" in2="BackgroundImageFix" result="shape"/><feGaussianBlur stdDeviation=".125" result="effect1_foregroundBlur_18_21488"/></filter><filter id="m" x="5.469" y="12.156" width="8.231" height="9.591" filterUnits="userSpaceOnUse" color-interpolation-filters="sRGB"><feFlood flood-opacity="0" result="BackgroundImageFix"/><feColorMatrix in="SourceAlpha" values="0 0 0 0 0 0 0 0 0 0 0 0 0 0 0 0 0 0 127 0" result="hardAlpha"/><feOffset dx="-.15" dy=".1"/><feGaussianBlur stdDeviation=".125"/><feComposite in2="hardAlpha" operator="out"/><feColorMatrix values="0 0 0 0 0.458824 0 0 0 0 0.298039 0 0 0 0 0.568627 0 0 0 1 0"/><feBlend in2="BackgroundImageFix" result="effect1_dropShadow_18_21488"/><feBlend in="SourceGraphic" in2="effect1_dropShadow_18_21488" result="shape"/><feColorMatrix in="SourceAlpha" values="0 0 0 0 0 0 0 0 0 0 0 0 0 0 0 0 0 0 127 0" result="hardAlpha"/><feOffset dx=".1" dy="-.1"/><feGaussianBlur stdDeviation=".05"/><feComposite in2="hardAlpha" operator="arithmetic" k2="-1" k3="1"/><feColorMatrix values="0 0 0 0 0.784314 0 0 0 0 0.760784 0 0 0 0 0.752941 0 0 0 1 0"/><feBlend in2="shape" result="effect2_innerShadow_18_21488"/><feColorMatrix in="SourceAlpha" values="0 0 0 0 0 0 0 0 0 0 0 0 0 0 0 0 0 0 127 0" result="hardAlpha"/><feOffset dx="-.1" dy=".1"/><feGaussianBlur stdDeviation=".05"/><feComposite in2="hardAlpha" operator="arithmetic" k2="-1" k3="1"/><feColorMatrix values="0 0 0 0 1 0 0 0 0 0.996078 0 0 0 0 0.992157 0 0 0 1 0"/><feBlend in2="effect2_innerShadow_18_21488" result="effect3_innerShadow_18_21488"/></filter><radialGradient id="d" cx="0" cy="0" r="1" gradientUnits="userSpaceOnUse" gradientTransform="matrix(22.02347 17.07558 -22.39218 28.88063 2.688 8.75)"><stop stop-color="#BD89E6"/><stop offset="1" stop-color="#9F74D3"/></radialGradient><radialGradient id="h" cx="0" cy="0" r="1" gradientUnits="userSpaceOnUse" gradientTransform="rotate(-40.802 34.41 -19.1) scale(4.83012 4.74756)"><stop offset=".587" stop-color="#514675" stop-opacity="0"/><stop offset="1" stop-color="#463762"/></radialGradient></defs></svg>