<svg width="32" height="37" fill="none" xmlns="http://www.w3.org/2000/svg"><path d="M15.999 29.998c9.334 0 13.999-6.268 13.999-14 0-7.73-4.665-13.998-14-13.998C6.665 2 2 8.268 2 15.999c0 7.731 4.664 13.999 13.999 13.999Z" fill="url(#a)"/><path d="M15.999 29.998c9.334 0 13.999-6.268 13.999-14 0-7.73-4.665-13.998-14-13.998C6.665 2 2 8.268 2 15.999c0 7.731 4.664 13.999 13.999 13.999Z" fill="url(#b)"/><path d="M15.999 29.998c9.334 0 13.999-6.268 13.999-14 0-7.73-4.665-13.998-14-13.998C6.665 2 2 8.268 2 15.999c0 7.731 4.664 13.999 13.999 13.999Z" fill="url(#c)" fill-opacity=".6"/><path d="M15.999 29.998c9.334 0 13.999-6.268 13.999-14 0-7.73-4.665-13.998-14-13.998C6.665 2 2 8.268 2 15.999c0 7.731 4.664 13.999 13.999 13.999Z" fill="url(#d)" fill-opacity=".5"/><path d="M15.999 29.998c9.334 0 13.999-6.268 13.999-14 0-7.73-4.665-13.998-14-13.998C6.665 2 2 8.268 2 15.999c0 7.731 4.664 13.999 13.999 13.999Z" fill="url(#e)"/><path d="M15.999 29.998c9.334 0 13.999-6.268 13.999-14 0-7.73-4.665-13.998-14-13.998C6.665 2 2 8.268 2 15.999c0 7.731 4.664 13.999 13.999 13.999Z" fill="url(#f)"/><circle cx="9" cy="18" r="5" fill="url(#g)"/><circle cx="19.5" cy="18.5" r="4.5" fill="url(#h)"/><path d="M10.5 21a4.5 4.5 0 1 0 0-9 4.5 4.5 0 0 0 0 9ZM21.5 21a4.5 4.5 0 1 0 0-9 4.5 4.5 0 0 0 0 9Z" fill="#fff"/><path d="M12 19a2 2 0 1 0 0-4 2 2 0 0 0 0 4Z" fill="url(#i)"/><path d="M20 19a2 2 0 1 0 0-4 2 2 0 0 0 0 4Z" fill="url(#j)"/><path d="M10.25 10.25s.75 3 4 3" stroke="url(#k)" stroke-width="1.5" stroke-linecap="round" stroke-linejoin="round"/><path d="M21.75 10.25s-.75 3-4 3" stroke="url(#l)" stroke-width="1.5" stroke-linecap="round" stroke-linejoin="round"/><path d="M12 25c.333-.667 1.6-2 4-2s3.667 1.333 4 2" stroke="url(#m)" stroke-width="2" stroke-linecap="round"/><defs><radialGradient id="a" cx="0" cy="0" r="1" gradientUnits="userSpaceOnUse" gradientTransform="matrix(-2 25.00003 -25.00003 -2 21.5 10)"><stop stop-color="#FF7961"/><stop offset=".514" stop-color="#F23E53"/><stop offset=".714" stop-color="#E33248"/><stop offset=".889" stop-color="#E72D5C"/></radialGradient><radialGradient id="c" cx="0" cy="0" r="1" gradientUnits="userSpaceOnUse" gradientTransform="matrix(-29 29 -29 -29 18 14)"><stop offset=".315" stop-opacity="0"/><stop offset="1"/></radialGradient><radialGradient id="d" cx="0" cy="0" r="1" gradientUnits="userSpaceOnUse" gradientTransform="rotate(52.125 .254 29.013) scale(17.1026 13.4126)"><stop stop-color="#FF7961"/><stop offset=".514" stop-color="#FF7961" stop-opacity="0"/></radialGradient><radialGradient id="e" cx="0" cy="0" r="1" gradientUnits="userSpaceOnUse" gradientTransform="matrix(0 18 -18 0 16 12.5)"><stop offset=".883" stop-color="#F70A8D" stop-opacity="0"/><stop offset="1" stop-color="#FF73CA"/></radialGradient><radialGradient id="f" cx="0" cy="0" r="1" gradientUnits="userSpaceOnUse" gradientTransform="rotate(43.971 -9.827 29.173) scale(59.0529)"><stop offset=".185" stop-opacity="0"/><stop offset="1" stop-opacity=".4"/></radialGradient><radialGradient id="g" cx="0" cy="0" r="1" gradientUnits="userSpaceOnUse" gradientTransform="rotate(135 3.522 9.725) scale(9.74236 5.04232)"><stop stop-color="#392108"/><stop offset="1" stop-color="#C87928" stop-opacity="0"/></radialGradient><radialGradient id="h" cx="0" cy="0" r="1" gradientUnits="userSpaceOnUse" gradientTransform="matrix(-5.75 5.75 -3.24597 -3.24597 23 15)"><stop stop-color="#392108"/><stop offset="1" stop-color="#C87928" stop-opacity="0"/></radialGradient><linearGradient id="b" x1="14.5" y1="1.5" x2="19" y2="17" gradientUnits="userSpaceOnUse"><stop stop-color="#DA502D"/><stop offset="1" stop-color="#DA502D" stop-opacity="0"/></linearGradient><linearGradient id="i" x1="20.615" y1="15" x2="19.927" y2="19.03" gradientUnits="userSpaceOnUse"><stop stop-color="#553B3E"/><stop offset="1" stop-color="#3D2432"/></linearGradient><linearGradient id="j" x1="20.615" y1="15" x2="19.927" y2="19.03" gradientUnits="userSpaceOnUse"><stop stop-color="#553B3E"/><stop offset="1" stop-color="#3D2432"/></linearGradient><linearGradient id="k" x1="11.5" y1="10" x2="11.5" y2="11.5" gradientUnits="userSpaceOnUse"><stop offset=".03" stop-color="#524049"/><stop offset="1" stop-color="#4A2C42"/></linearGradient><linearGradient id="l" x1="20.5" y1="10" x2="20.5" y2="11.5" gradientUnits="userSpaceOnUse"><stop offset=".03" stop-color="#524049"/><stop offset="1" stop-color="#4A2C42"/></linearGradient><linearGradient id="m" x1="16" y1="22" x2="16" y2="24" gradientUnits="userSpaceOnUse"><stop stop-color="#4F3C43"/><stop offset="1" stop-color="#512756"/></linearGradient></defs></svg>