<svg xmlns="http://www.w3.org/2000/svg" fill="none" viewBox="0 0 32 32"><path fill="url(#purple-heart_svg__a)" d="M15.104 29.227a1.73 1.73 0 0 0 1.71-.022c3.584-2.047 9.81-6.761 12.255-12.884 3.59-7.973-4.838-14.337-10.662-9.76-.608.478-1.372 1.024-1.897 1.542-.238.234-.657.258-.904.033-.69-.628-1.771-1.435-2.465-1.904-4.965-3.36-14 1.069-10.146 10.52 1.412 4.242 8.14 10.26 12.11 12.475"/><path fill="url(#purple-heart_svg__b)" d="M15.104 29.227a1.73 1.73 0 0 0 1.71-.022c3.584-2.047 9.81-6.761 12.255-12.884 3.59-7.973-4.838-14.337-10.662-9.76-.608.478-1.372 1.024-1.897 1.542-.238.234-.657.258-.904.033-.69-.628-1.771-1.435-2.465-1.904-4.965-3.36-14 1.069-10.146 10.52 1.412 4.242 8.14 10.26 12.11 12.475"/><path fill="url(#purple-heart_svg__c)" d="M15.104 29.227a1.73 1.73 0 0 0 1.71-.022c3.584-2.047 9.81-6.761 12.255-12.884 3.59-7.973-4.838-14.337-10.662-9.76-.608.478-1.372 1.024-1.897 1.542-.238.234-.657.258-.904.033-.69-.628-1.771-1.435-2.465-1.904-4.965-3.36-14 1.069-10.146 10.52 1.412 4.242 8.14 10.26 12.11 12.475"/><path fill="url(#purple-heart_svg__d)" d="M15.104 29.227a1.73 1.73 0 0 0 1.71-.022c3.584-2.047 9.81-6.761 12.255-12.884 3.59-7.973-4.838-14.337-10.662-9.76-.608.478-1.372 1.024-1.897 1.542-.238.234-.657.258-.904.033-.69-.628-1.771-1.435-2.465-1.904-4.965-3.36-14 1.069-10.146 10.52 1.412 4.242 8.14 10.26 12.11 12.475"/><path fill="url(#purple-heart_svg__e)" d="M15.104 29.227a1.73 1.73 0 0 0 1.71-.022c3.584-2.047 9.81-6.761 12.255-12.884 3.59-7.973-4.838-14.337-10.662-9.76-.608.478-1.372 1.024-1.897 1.542-.238.234-.657.258-.904.033-.69-.628-1.771-1.435-2.465-1.904-4.965-3.36-14 1.069-10.146 10.52 1.412 4.242 8.14 10.26 12.11 12.475"/><path fill="url(#purple-heart_svg__f)" d="M15.104 29.227a1.73 1.73 0 0 0 1.71-.022c3.584-2.047 9.81-6.761 12.255-12.884 3.59-7.973-4.838-14.337-10.662-9.76-.608.478-1.372 1.024-1.897 1.542-.238.234-.657.258-.904.033-.69-.628-1.771-1.435-2.465-1.904-4.965-3.36-14 1.069-10.146 10.52 1.412 4.242 8.14 10.26 12.11 12.475"/><path fill="url(#purple-heart_svg__g)" d="M15.104 29.227a1.73 1.73 0 0 0 1.71-.022c3.584-2.047 9.81-6.761 12.255-12.884 3.59-7.973-4.838-14.337-10.662-9.76-.608.478-1.372 1.024-1.897 1.542-.238.234-.657.258-.904.033-.69-.628-1.771-1.435-2.465-1.904-4.965-3.36-14 1.069-10.146 10.52 1.412 4.242 8.14 10.26 12.11 12.475"/><path fill="url(#purple-heart_svg__h)" d="M15.104 29.227a1.73 1.73 0 0 0 1.71-.022c3.584-2.047 9.81-6.761 12.255-12.884 3.59-7.973-4.838-14.337-10.662-9.76-.608.478-1.372 1.024-1.897 1.542-.238.234-.657.258-.904.033-.69-.628-1.771-1.435-2.465-1.904-4.965-3.36-14 1.069-10.146 10.52 1.412 4.242 8.14 10.26 12.11 12.475"/><path fill="url(#purple-heart_svg__i)" d="m15.219 7.832.347.318c.954.873 2.499.63 3.365-.33.913-1.014 2.14-2.064 3.624-2.792-1.403.03-2.841.507-4.148 1.534q-.228.177-.475.367c-.497.38-1.027.785-1.422 1.174-.238.234-.657.258-.904.034q-.18-.164-.389-.34z"/><g filter="url(#purple-heart_svg__j)"><path fill="url(#purple-heart_svg__k)" d="m15.821 10.242.38 6.26c.062 1.035 1.577 1.358 2.114.472 2.329-3.838 4.441-6.39 2.497-8.673-.82-.964-2.987-.443-4.713 1.205a.93.93 0 0 0-.278.736"/></g><g filter="url(#purple-heart_svg__l)"><ellipse cx="22.951" cy="14.119" fill="url(#purple-heart_svg__m)" rx="7.767" ry="5.087" transform="rotate(-67.627 22.951 14.119)"/></g><g filter="url(#purple-heart_svg__n)"><path fill="url(#purple-heart_svg__o)" d="m14.84 9.207.205 13.406C8.17 15.926 6.939 8.76 9.277 7.153c1.67-1.147 4.813.491 5.563 2.054"/></g><g filter="url(#purple-heart_svg__p)"><path stroke="url(#purple-heart_svg__q)" stroke-linecap="round" stroke-width=".25" d="M8.44 6.44c1.087-.136 4.025 0 6.4 3.432"/></g><g filter="url(#purple-heart_svg__r)"><path fill="url(#purple-heart_svg__s)" d="M3.625 13.55c2.063 8.063 9.48 13.23 12 14.813-2.9-5.25-5.562-15.542-5.625-17.875z"/></g><defs><radialGradient id="purple-heart_svg__a" cx="0" cy="0" r="1" gradientTransform="matrix(0 23.8283 -29.4623 0 15.77 5.66)" gradientUnits="userSpaceOnUse"><stop offset=".255" stop-color="#AC3BFF"/><stop offset=".528" stop-color="#9D32FF"/><stop offset="1" stop-color="#8C1EED"/></radialGradient><radialGradient id="purple-heart_svg__b" cx="0" cy="0" r="1" gradientTransform="rotate(-57.293 33.306 3.678)scale(30.305 28.3828)" gradientUnits="userSpaceOnUse"><stop offset=".801" stop-color="#B350FF" stop-opacity="0"/><stop offset="1" stop-color="#B350FF"/></radialGradient><radialGradient id="purple-heart_svg__d" cx="0" cy="0" r="1" gradientTransform="rotate(140.774 9.203 9.753)scale(19.7667 28.2971)" gradientUnits="userSpaceOnUse"><stop offset=".752" stop-color="#6721FD" stop-opacity="0"/><stop offset="1" stop-color="#7F21FD"/></radialGradient><radialGradient id="purple-heart_svg__f" cx="0" cy="0" r="1" gradientTransform="rotate(-154.781 12.676 5.033)scale(21.4163 18.6261)" gradientUnits="userSpaceOnUse"><stop offset=".716" stop-color="#773CAC" stop-opacity="0"/><stop offset="1" stop-color="#773CAC"/></radialGradient><radialGradient id="purple-heart_svg__g" cx="0" cy="0" r="1" gradientTransform="rotate(-129.075 12.845 4.917)scale(18.839 27.0981)" gradientUnits="userSpaceOnUse"><stop offset=".663" stop-color="#773CAC" stop-opacity="0"/><stop offset="1" stop-color="#773CAC"/></radialGradient><radialGradient id="purple-heart_svg__h" cx="0" cy="0" r="1" gradientTransform="matrix(0 17.499 -20.0528 0 15.447 13.841)" gradientUnits="userSpaceOnUse"><stop offset=".821" stop-color="#9F72FF" stop-opacity="0"/><stop offset=".934" stop-color="#B694FF"/></radialGradient><radialGradient id="purple-heart_svg__k" cx="0" cy="0" r="1" gradientTransform="rotate(107.322 8.768 11.257)scale(13.2248 14.8114)" gradientUnits="userSpaceOnUse"><stop offset=".568" stop-color="#8E26E9"/><stop offset="1" stop-color="#6721FD" stop-opacity="0"/></radialGradient><radialGradient id="purple-heart_svg__m" cx="0" cy="0" r="1" gradientTransform="rotate(-173.542 16.852 6.761)scale(15.5528 7.3671)" gradientUnits="userSpaceOnUse"><stop stop-color="#D28CFF"/><stop offset="1" stop-color="#C874FF" stop-opacity="0"/></radialGradient><radialGradient id="purple-heart_svg__o" cx="0" cy="0" r="1" gradientTransform="rotate(-134.829 11.368 3.888)scale(11.1704 7.39051)" gradientUnits="userSpaceOnUse"><stop stop-color="#D28CFF"/><stop offset="1" stop-color="#C874FF" stop-opacity="0"/></radialGradient><linearGradient id="purple-heart_svg__c" x1="17.632" x2="25.645" y1="16.159" y2="25.694" gradientUnits="userSpaceOnUse"><stop offset=".694" stop-color="#B694FF" stop-opacity="0"/><stop offset=".934" stop-color="#9F72FF"/></linearGradient><linearGradient id="purple-heart_svg__e" x1="16.639" x2="7.188" y1="16.556" y2="27.206" gradientUnits="userSpaceOnUse"><stop offset=".694" stop-color="#9F72FF" stop-opacity="0"/><stop offset=".885" stop-color="#B694FF"/></linearGradient><linearGradient id="purple-heart_svg__i" x1="17.125" x2="18.887" y1="7.445" y2="8.863" gradientUnits="userSpaceOnUse"><stop stop-color="#7241AD"/><stop offset=".68" stop-color="#7241AD" stop-opacity="0"/></linearGradient><linearGradient id="purple-heart_svg__q" x1="7.063" x2="13.563" y1="6.347" y2="6.988" gradientUnits="userSpaceOnUse"><stop stop-color="#C274FF"/><stop offset="1" stop-color="#B659FF" stop-opacity="0"/></linearGradient><linearGradient id="purple-heart_svg__s" x1="18.563" x2="10.563" y1="30.425" y2="16.675" gradientUnits="userSpaceOnUse"><stop stop-color="#7C22FD"/><stop offset="1" stop-color="#7C22FD" stop-opacity="0"/></linearGradient><filter id="purple-heart_svg__j" width="9.756" height="13.67" x="13.82" y="5.819" color-interpolation-filters="sRGB" filterUnits="userSpaceOnUse"><feFlood flood-opacity="0" result="BackgroundImageFix"/><feBlend in="SourceGraphic" in2="BackgroundImageFix" result="shape"/><feGaussianBlur result="effect1_foregroundBlur_7320_6111" stdDeviation="1"/></filter><filter id="purple-heart_svg__l" width="14.114" height="17.881" x="15.894" y="5.178" color-interpolation-filters="sRGB" filterUnits="userSpaceOnUse"><feFlood flood-opacity="0" result="BackgroundImageFix"/><feBlend in="SourceGraphic" in2="BackgroundImageFix" result="shape"/><feGaussianBlur result="effect1_foregroundBlur_7320_6111" stdDeviation=".75"/></filter><filter id="purple-heart_svg__n" width="12.852" height="21.845" x="5.192" y="3.769" color-interpolation-filters="sRGB" filterUnits="userSpaceOnUse"><feFlood flood-opacity="0" result="BackgroundImageFix"/><feBlend in="SourceGraphic" in2="BackgroundImageFix" result="shape"/><feGaussianBlur result="effect1_foregroundBlur_7320_6111" stdDeviation="1.5"/></filter><filter id="purple-heart_svg__p" width="8.649" height="5.715" x="7.316" y="5.282" color-interpolation-filters="sRGB" filterUnits="userSpaceOnUse"><feFlood flood-opacity="0" result="BackgroundImageFix"/><feBlend in="SourceGraphic" in2="BackgroundImageFix" result="shape"/><feGaussianBlur result="effect1_foregroundBlur_7320_6111" stdDeviation=".5"/></filter><filter id="purple-heart_svg__r" width="16" height="21.875" x="1.625" y="8.488" color-interpolation-filters="sRGB" filterUnits="userSpaceOnUse"><feFlood flood-opacity="0" result="BackgroundImageFix"/><feBlend in="SourceGraphic" in2="BackgroundImageFix" result="shape"/><feGaussianBlur result="effect1_foregroundBlur_7320_6111" stdDeviation="1"/></filter></defs></svg>