<svg width="32" height="32" fill="none" xmlns="http://www.w3.org/2000/svg"><g filter="url(#a)"><path d="M13.562 4.49a2.406 2.406 0 0 1 4.81-.135l.026.945a2.406 2.406 0 0 1 4.393 1.4l-.026 1.37a2.406 2.406 0 0 1 4.16 1.736l-.335 8.822c-.005 1.33-.15 3.695-1.004 5.76-1.208 3.267-4.34 5.595-8.016 5.595-3.715 0-6.877-2.379-8.055-5.701-.888-2.11-2.361-4.284-2.986-5.206l-.041-.06-2.098-2.82a2.536 2.536 0 0 1 4.05-3.054l1.088 1.424-.344-7.953a2.385 2.385 0 0 1 4.399-1.378l-.021-.744Z" fill="#FBC5B2"/><path d="M13.562 4.49a2.406 2.406 0 0 1 4.81-.135l.026.945a2.406 2.406 0 0 1 4.393 1.4l-.026 1.37a2.406 2.406 0 0 1 4.16 1.736l-.335 8.822c-.005 1.33-.15 3.695-1.004 5.76-1.208 3.267-4.34 5.595-8.016 5.595-3.715 0-6.877-2.379-8.055-5.701-.888-2.11-2.361-4.284-2.986-5.206l-.041-.06-2.098-2.82a2.536 2.536 0 0 1 4.05-3.054l1.088 1.424-.344-7.953a2.385 2.385 0 0 1 4.399-1.378l-.021-.744Z" fill="url(#b)"/><path d="M13.562 4.49a2.406 2.406 0 0 1 4.81-.135l.026.945a2.406 2.406 0 0 1 4.393 1.4l-.026 1.37a2.406 2.406 0 0 1 4.16 1.736l-.335 8.822c-.005 1.33-.15 3.695-1.004 5.76-1.208 3.267-4.34 5.595-8.016 5.595-3.715 0-6.877-2.379-8.055-5.701-.888-2.11-2.361-4.284-2.986-5.206l-.041-.06-2.098-2.82a2.536 2.536 0 0 1 4.05-3.054l1.088 1.424-.344-7.953a2.385 2.385 0 0 1 4.399-1.378l-.021-.744Z" fill="url(#c)"/></g><path d="M4.83 12.708a2.536 2.536 0 0 1 3.609.434l1.085 1.419.162 4.512-4.855-6.365Z" fill="url(#d)"/><g filter="url(#e)"><path d="M9.58 16.317v3.101l-3.762-4.823a.93.93 0 0 1 1.458-1.152l2.304 2.874Z" fill="url(#f)"/></g><path d="m9.513 14.547.12 2.78 4.125-1.72L13.58 5.23a2.384 2.384 0 0 0-4.396 1.383l.344 7.953-.015-.019Z" fill="url(#g)"/><path d="m9.513 14.547.12 2.78 4.125-1.72L13.58 5.23a2.384 2.384 0 0 0-4.396 1.383l.344 7.953-.015-.019Z" fill="url(#h)"/><path d="m9.513 14.547.12 2.78 4.125-1.72L13.58 5.23a2.384 2.384 0 0 0-4.396 1.383l.344 7.953-.015-.019Z" fill="url(#i)"/><path d="m9.513 14.547.12 2.78 4.125-1.72L13.58 5.23a2.384 2.384 0 0 0-4.396 1.383l.344 7.953-.015-.019Z" fill="url(#j)"/><path d="m9.513 14.547.12 2.78 4.125-1.72L13.58 5.23a2.384 2.384 0 0 0-4.396 1.383l.344 7.953-.015-.019Z" fill="url(#k)"/><g filter="url(#l)"><path d="m11.68 6.118.13 9.484 1.284-.188-.194-9.317a.61.61 0 0 0-1.22.021Z" fill="#FFD0BB"/></g><path d="m18.399 5.298-.001.002-.027-.945a2.406 2.406 0 0 0-4.808-.022l.007.455.013.447-.005-.008.172 12.6h4.687L18.4 5.297Z" fill="url(#m)"/><path d="m18.399 5.298-.001.002-.027-.945a2.406 2.406 0 0 0-4.808-.022l.007.455.013.447-.005-.008.172 12.6h4.687L18.4 5.297Z" fill="url(#n)"/><path d="m18.399 5.298-.001.002-.027-.945a2.406 2.406 0 0 0-4.808-.022l.007.455.013.447-.005-.008.172 12.6h4.687L18.4 5.297Z" fill="url(#o)"/><path d="m18.399 5.298-.001.002-.027-.945a2.406 2.406 0 0 0-4.808-.022l.007.455.013.447-.005-.008.172 12.6h4.687L18.4 5.297Z" fill="url(#p)"/><g filter="url(#q)"><path d="M16.311 5.196c0-.302-.06-.58-.186-.81-.209-.38-.43-.855-.24-1.244.153-.311.51-.487.82-.33 1.064.542 1.196 1.67 1.169 2.384v10.593a.773.773 0 0 1-.773.773.776.776 0 0 1-.776-.788c.049-3.493-.014-9.664-.014-10.578Z" fill="url(#r)"/></g><path d="m18.401 5.295-.018 12.156h4.187l.197-9.383-.002.002.026-1.37a2.406 2.406 0 0 0-4.39-1.405Z" fill="url(#s)"/><path d="m18.401 5.295-.018 12.156h4.187l.197-9.383-.002.002.026-1.37a2.406 2.406 0 0 0-4.39-1.405Z" fill="url(#t)"/><path d="m18.401 5.295-.018 12.156h4.187l.197-9.383-.002.002.026-1.37a2.406 2.406 0 0 0-4.39-1.405Z" fill="url(#u)"/><path d="m18.401 5.295-.018 12.156h4.187l.197-9.383-.002.002.026-1.37a2.406 2.406 0 0 0-4.39-1.405Z" fill="url(#v)"/><g filter="url(#w)"><path d="M21.37 5.451c-.432 0-.78.35-.777.782.015 2.195.042 7.039.006 9.523a.776.776 0 0 0 .776.789.772.772 0 0 0 .772-.772V6.228a.777.777 0 0 0-.777-.777Z" fill="url(#x)"/></g><path d="M13.562 4.49a2.406 2.406 0 0 1 4.81-.135l.026.945a2.406 2.406 0 0 1 4.393 1.4l-.026 1.37a2.406 2.406 0 0 1 4.16 1.736l-.335 8.822c-.005 1.33-.15 3.695-1.004 5.76-1.208 3.267-4.34 5.595-8.016 5.595-3.715 0-6.877-2.379-8.055-5.701-.888-2.11-2.361-4.284-2.986-5.206l-.041-.06-2.098-2.82a2.536 2.536 0 0 1 4.05-3.054l1.088 1.424-.344-7.953a2.385 2.385 0 0 1 4.399-1.378l-.021-.744Z" fill="url(#y)"/><path d="M13.562 4.49a2.406 2.406 0 0 1 4.81-.135l.026.945a2.406 2.406 0 0 1 4.393 1.4l-.026 1.37a2.406 2.406 0 0 1 4.16 1.736l-.335 8.822c-.005 1.33-.15 3.695-1.004 5.76-1.208 3.267-4.34 5.595-8.016 5.595-3.715 0-6.877-2.379-8.055-5.701-.888-2.11-2.361-4.284-2.986-5.206l-.041-.06-2.098-2.82a2.536 2.536 0 0 1 4.05-3.054l1.088 1.424-.344-7.953a2.385 2.385 0 0 1 4.399-1.378l-.021-.744Z" fill="url(#z)"/><path d="M13.562 4.49a2.406 2.406 0 0 1 4.81-.135l.026.945a2.406 2.406 0 0 1 4.393 1.4l-.026 1.37a2.406 2.406 0 0 1 4.16 1.736l-.335 8.822c-.005 1.33-.15 3.695-1.004 5.76-1.208 3.267-4.34 5.595-8.016 5.595-3.715 0-6.877-2.379-8.055-5.701-.888-2.11-2.361-4.284-2.986-5.206l-.041-.06-2.098-2.82a2.536 2.536 0 0 1 4.05-3.054l1.088 1.424-.344-7.953a2.385 2.385 0 0 1 4.399-1.378l-.021-.744Z" fill="url(#A)"/><path d="M13.562 4.49a2.406 2.406 0 0 1 4.81-.135l.026.945a2.406 2.406 0 0 1 4.393 1.4l-.026 1.37a2.406 2.406 0 0 1 4.16 1.736l-.335 8.822c-.005 1.33-.15 3.695-1.004 5.76-1.208 3.267-4.34 5.595-8.016 5.595-3.715 0-6.877-2.379-8.055-5.701-.888-2.11-2.361-4.284-2.986-5.206l-.041-.06-2.098-2.82a2.536 2.536 0 0 1 4.05-3.054l1.088 1.424-.344-7.953a2.385 2.385 0 0 1 4.399-1.378l-.021-.744Z" fill="url(#B)"/><path d="M13.562 4.49a2.406 2.406 0 0 1 4.81-.135l.026.945a2.406 2.406 0 0 1 4.393 1.4l-.026 1.37a2.406 2.406 0 0 1 4.16 1.736l-.335 8.822c-.005 1.33-.15 3.695-1.004 5.76-1.208 3.267-4.34 5.595-8.016 5.595-3.715 0-6.877-2.379-8.055-5.701-.888-2.11-2.361-4.284-2.986-5.206l-.041-.06-2.098-2.82a2.536 2.536 0 0 1 4.05-3.054l1.088 1.424-.344-7.953a2.385 2.385 0 0 1 4.399-1.378l-.021-.744Z" fill="url(#C)"/><path d="M13.562 4.49a2.406 2.406 0 0 1 4.81-.135l.026.945a2.406 2.406 0 0 1 4.393 1.4l-.026 1.37a2.406 2.406 0 0 1 4.16 1.736l-.335 8.822c-.005 1.33-.15 3.695-1.004 5.76-1.208 3.267-4.34 5.595-8.016 5.595-3.715 0-6.877-2.379-8.055-5.701-.888-2.11-2.361-4.284-2.986-5.206l-.041-.06-2.098-2.82a2.536 2.536 0 0 1 4.05-3.054l1.088 1.424-.344-7.953a2.385 2.385 0 0 1 4.399-1.378l-.021-.744Z" fill="url(#D)"/><g filter="url(#E)"><path d="M26.147 20.014c-.17 3.648-1.909 6.402-3.711 7.568l1.882-19.827c2.014 0 2.252 1.511 2.226 2.452-.053 1.961-.228 6.16-.397 9.807Z" fill="url(#F)"/></g><path d="m22.775 8.06-.267 8.548 4.156.343.26-7.145a2.406 2.406 0 0 0-4.149-1.747Z" fill="url(#G)"/><path d="m22.775 8.06-.267 8.548 4.156.343.26-7.145a2.406 2.406 0 0 0-4.149-1.747Z" fill="url(#H)"/><path d="m22.775 8.06-.267 8.548 4.156.343.26-7.145a2.406 2.406 0 0 0-4.149-1.747Z" fill="url(#I)"/><g filter="url(#J)"><path d="M25.607 8.517a.673.673 0 0 0-.687.664c-.027 2.142-.092 7.103-.17 9.627-.014.433.282.794.658.8.37.007.677-.333.685-.76l.177-9.644a.675.675 0 0 0-.663-.687Z" fill="url(#K)"/></g><defs><linearGradient id="f" x1="6.372" y1="13.586" x2="10.681" y2="20.376" gradientUnits="userSpaceOnUse"><stop stop-color="#F9CAB7"/><stop offset="1" stop-color="#F9CAB7" stop-opacity="0"/></linearGradient><linearGradient id="g" x1="8.999" y1="11.845" x2="11.049" y2="11.733" gradientUnits="userSpaceOnUse"><stop stop-color="#D9A08A"/><stop offset="1" stop-color="#D9A08A" stop-opacity="0"/></linearGradient><linearGradient id="h" x1="14.023" y1="11.061" x2="13.039" y2="11.076" gradientUnits="userSpaceOnUse"><stop stop-color="#D59779"/><stop offset="1" stop-color="#D59779" stop-opacity="0"/></linearGradient><linearGradient id="j" x1="11.47" y1="16.779" x2="10.851" y2="14.779" gradientUnits="userSpaceOnUse"><stop offset=".236" stop-color="#FBC5B2"/><stop offset="1" stop-color="#FBC5B2" stop-opacity="0"/></linearGradient><linearGradient id="m" x1="12.695" y1="9.889" x2="15.774" y2="9.836" gradientUnits="userSpaceOnUse"><stop stop-color="#D79B80"/><stop offset="1" stop-color="#D79B80" stop-opacity="0"/></linearGradient><linearGradient id="o" x1="18.877" y1="9.515" x2="17.669" y2="9.515" gradientUnits="userSpaceOnUse"><stop stop-color="#F5B69A"/><stop offset="1" stop-color="#F5B69A" stop-opacity="0"/></linearGradient><linearGradient id="p" x1="15.226" y1="17.076" x2="15.431" y2="14.145" gradientUnits="userSpaceOnUse"><stop stop-color="#FBC5B2"/><stop offset="1" stop-color="#FBC5B2" stop-opacity="0"/></linearGradient><linearGradient id="r" x1="17.53" y1=".178" x2="27.096" y2="7.009" gradientUnits="userSpaceOnUse"><stop stop-color="#FFE2C5"/><stop offset="1" stop-color="#FFE2C5" stop-opacity="0"/></linearGradient><linearGradient id="s" x1="17.598" y1="10.823" x2="20.382" y2="10.771" gradientUnits="userSpaceOnUse"><stop stop-color="#F1B094"/><stop offset="1" stop-color="#F1B094" stop-opacity="0"/></linearGradient><linearGradient id="t" x1="23.511" y1="10.851" x2="22.04" y2="10.861" gradientUnits="userSpaceOnUse"><stop stop-color="#FFCDB0"/><stop offset="1" stop-color="#FFCDB0" stop-opacity="0"/></linearGradient><linearGradient id="u" x1="19.414" y1="15.889" x2="19.943" y2="13.15" gradientUnits="userSpaceOnUse"><stop stop-color="#FBC5B2"/><stop offset="1" stop-color="#FBC5B2" stop-opacity="0"/></linearGradient><linearGradient id="x" x1="21.803" y1="5.451" x2="21.803" y2="19.014" gradientUnits="userSpaceOnUse"><stop stop-color="#FFE5C9"/><stop offset="1" stop-color="#FFE5C9" stop-opacity="0"/></linearGradient><linearGradient id="y" x1="27.313" y1="22.599" x2="21.959" y2="22.599" gradientUnits="userSpaceOnUse"><stop stop-color="#FFD6BD"/><stop offset="1" stop-color="#EFBF9C" stop-opacity="0"/></linearGradient><linearGradient id="F" x1="27.154" y1="16.131" x2="24.185" y2="16.025" gradientUnits="userSpaceOnUse"><stop stop-color="#FFDDC3"/><stop offset="1" stop-color="#FFDDC3" stop-opacity="0"/></linearGradient><linearGradient id="G" x1="21.684" y1="12.609" x2="24.011" y2="12.855" gradientUnits="userSpaceOnUse"><stop stop-color="#F2B69F"/><stop offset="1" stop-color="#F2B69F" stop-opacity="0"/></linearGradient><linearGradient id="H" x1="24.328" y1="16.951" x2="24.517" y2="13.458" gradientUnits="userSpaceOnUse"><stop stop-color="#FDCDB7"/><stop offset="1" stop-color="#EFBA9A" stop-opacity="0"/></linearGradient><linearGradient id="K" x1="25.984" y1="8.524" x2="25.735" y2="22.084" gradientUnits="userSpaceOnUse"><stop stop-color="#FFE1C5"/><stop offset="1" stop-color="#FFE1C5" stop-opacity="0"/></linearGradient><radialGradient id="b" cx="0" cy="0" r="1" gradientUnits="userSpaceOnUse" gradientTransform="matrix(5.125 -2.625 9.42008 18.39159 9.445 27.076)"><stop stop-color="#D59D93"/><stop offset="1" stop-color="#D59D93" stop-opacity="0"/></radialGradient><radialGradient id="c" cx="0" cy="0" r="1" gradientUnits="userSpaceOnUse" gradientTransform="matrix(.4595 2.43885 -3.85022 .7254 5.843 12.077)"><stop stop-color="#DDAB8F"/><stop offset="1" stop-color="#DDAB8F" stop-opacity="0"/></radialGradient><radialGradient id="d" cx="0" cy="0" r="1" gradientUnits="userSpaceOnUse" gradientTransform="rotate(146.31 2.712 9.22) scale(1.33802 3.89834)"><stop stop-color="#C2886C"/><stop offset="1" stop-color="#C2886C" stop-opacity="0"/></radialGradient><radialGradient id="i" cx="0" cy="0" r="1" gradientUnits="userSpaceOnUse" gradientTransform="rotate(157.319 6.42 3.993) scale(1.13462 1.78724)"><stop stop-color="#C59074"/><stop offset="1" stop-color="#C59074" stop-opacity="0"/></radialGradient><radialGradient id="k" cx="0" cy="0" r="1" gradientUnits="userSpaceOnUse" gradientTransform="matrix(1.14882 2.36578 -4.48154 2.17624 10.32 4.036)"><stop stop-color="#D8A88D"/><stop offset="1" stop-color="#D8A88D" stop-opacity="0"/></radialGradient><radialGradient id="n" cx="0" cy="0" r="1" gradientUnits="userSpaceOnUse" gradientTransform="rotate(61.258 5.597 13.34) scale(2.37956 4.82204)"><stop stop-color="#D4A78C"/><stop offset="1" stop-color="#D4A78C" stop-opacity="0"/></radialGradient><radialGradient id="v" cx="0" cy="0" r="1" gradientUnits="userSpaceOnUse" gradientTransform="matrix(.79135 1.354 -2.12907 1.24435 19.322 4.25)"><stop stop-color="#E4AF90"/><stop offset="1" stop-color="#E4AF90" stop-opacity="0"/></radialGradient><radialGradient id="z" cx="0" cy="0" r="1" gradientUnits="userSpaceOnUse" gradientTransform="matrix(-.1875 -2.2675 1.77572 -.14684 12.664 16)"><stop stop-color="#FECBB6"/><stop offset="1" stop-color="#FECBB6" stop-opacity="0"/></radialGradient><radialGradient id="A" cx="0" cy="0" r="1" gradientUnits="userSpaceOnUse" gradientTransform="matrix(-.09375 -2.17374 2.00449 -.08645 17.383 16)"><stop stop-color="#FECBB6"/><stop offset="1" stop-color="#FECBB6" stop-opacity="0"/></radialGradient><radialGradient id="B" cx="0" cy="0" r="1" gradientUnits="userSpaceOnUse" gradientTransform="rotate(-91.909 18.479 -2.164) scale(1.87604)"><stop stop-color="#FECBB6"/><stop offset="1" stop-color="#FECBB6" stop-opacity="0"/></radialGradient><radialGradient id="C" cx="0" cy="0" r="1" gradientUnits="userSpaceOnUse" gradientTransform="matrix(-2.125 -1.0625 1.3999 -2.7998 24.789 16.483)"><stop stop-color="#FECBB6"/><stop offset="1" stop-color="#FECBB6" stop-opacity="0"/></radialGradient><radialGradient id="D" cx="0" cy="0" r="1" gradientUnits="userSpaceOnUse" gradientTransform="rotate(-27.758 49.749 -5.793) scale(3.03562 12.0503)"><stop stop-color="#D59C93"/><stop offset="1" stop-color="#D59C93" stop-opacity="0"/></radialGradient><radialGradient id="I" cx="0" cy="0" r="1" gradientUnits="userSpaceOnUse" gradientTransform="matrix(.84085 1.7617 -4.7063 2.2463 23.383 6.639)"><stop stop-color="#EFB896"/><stop offset="1" stop-color="#EFB896" stop-opacity="0"/></radialGradient><filter id="a" x="3.888" y="1.017" width="23.039" height="28.965" filterUnits="userSpaceOnUse" color-interpolation-filters="sRGB"><feFlood flood-opacity="0" result="BackgroundImageFix"/><feBlend in="SourceGraphic" in2="BackgroundImageFix" result="shape"/><feColorMatrix in="SourceAlpha" values="0 0 0 0 0 0 0 0 0 0 0 0 0 0 0 0 0 0 127 0" result="hardAlpha"/><feOffset dy="-1"/><feGaussianBlur stdDeviation="1.25"/><feComposite in2="hardAlpha" operator="arithmetic" k2="-1" k3="1"/><feColorMatrix values="0 0 0 0 0.72549 0 0 0 0 0.486275 0 0 0 0 0.592157 0 0 0 1 0"/><feBlend in2="shape" result="effect1_innerShadow_20020_1241"/></filter><filter id="e" x="4.872" y="12.345" width="5.458" height="7.823" filterUnits="userSpaceOnUse" color-interpolation-filters="sRGB"><feFlood flood-opacity="0" result="BackgroundImageFix"/><feBlend in="SourceGraphic" in2="BackgroundImageFix" result="shape"/><feGaussianBlur stdDeviation=".375" result="effect1_foregroundBlur_20020_1241"/></filter><filter id="l" x="10.68" y="4.5" width="3.414" height="12.102" filterUnits="userSpaceOnUse" color-interpolation-filters="sRGB"><feFlood flood-opacity="0" result="BackgroundImageFix"/><feBlend in="SourceGraphic" in2="BackgroundImageFix" result="shape"/><feGaussianBlur stdDeviation=".5" result="effect1_foregroundBlur_20020_1241"/></filter><filter id="q" x="14.813" y="1.754" width="4.064" height="15.808" filterUnits="userSpaceOnUse" color-interpolation-filters="sRGB"><feFlood flood-opacity="0" result="BackgroundImageFix"/><feBlend in="SourceGraphic" in2="BackgroundImageFix" result="shape"/><feGaussianBlur stdDeviation=".5" result="effect1_foregroundBlur_20020_1241"/></filter><filter id="w" x="19.593" y="4.451" width="3.555" height="13.094" filterUnits="userSpaceOnUse" color-interpolation-filters="sRGB"><feFlood flood-opacity="0" result="BackgroundImageFix"/><feBlend in="SourceGraphic" in2="BackgroundImageFix" result="shape"/><feGaussianBlur stdDeviation=".5" result="effect1_foregroundBlur_20020_1241"/></filter><filter id="E" x="21.436" y="6.755" width="6.11" height="21.827" filterUnits="userSpaceOnUse" color-interpolation-filters="sRGB"><feFlood flood-opacity="0" result="BackgroundImageFix"/><feBlend in="SourceGraphic" in2="BackgroundImageFix" result="shape"/><feGaussianBlur stdDeviation=".5" result="effect1_foregroundBlur_20020_1241"/></filter><filter id="J" x="23.749" y="7.516" width="3.521" height="13.092" filterUnits="userSpaceOnUse" color-interpolation-filters="sRGB"><feFlood flood-opacity="0" result="BackgroundImageFix"/><feBlend in="SourceGraphic" in2="BackgroundImageFix" result="shape"/><feGaussianBlur stdDeviation=".5" result="effect1_foregroundBlur_20020_1241"/></filter></defs></svg>