<svg xmlns="http://www.w3.org/2000/svg" fill="none" viewBox="0 0 32 32"><g filter="url(#raising-hands-dark_svg__a)"><path fill="#3B2626" d="M8.218 11.121a1.607 1.607 0 0 0-1.736 1.467l-.114 1.353a1.568 1.568 0 0 0-2.97.722l.016 1.095a1.616 1.616 0 0 0-2.422 1.594l.49 3.915q.01.072.025.142l.251 2.014c.055.658.311 2.187.899 3.304a5.084 5.084 0 0 0 9.732-1.15c.036-.149.075-.323.11-.502.051-.264.164-.595.26-.844l2.504-4.705a1.68 1.68 0 0 0-.648-2.25l-.045-.026a1.683 1.683 0 0 0-2.296.623l-.372.648.517-4.597a1.58 1.58 0 0 0-2.729-1.25 1.607 1.607 0 0 0-1.472-1.553"/><path fill="url(#raising-hands-dark_svg__b)" d="M8.218 11.121a1.607 1.607 0 0 0-1.736 1.467l-.114 1.353a1.568 1.568 0 0 0-2.97.722l.016 1.095a1.616 1.616 0 0 0-2.422 1.594l.49 3.915q.01.072.025.142l.251 2.014c.055.658.311 2.187.899 3.304a5.084 5.084 0 0 0 9.732-1.15c.036-.149.075-.323.11-.502.051-.264.164-.595.26-.844l2.504-4.705a1.68 1.68 0 0 0-.648-2.25l-.045-.026a1.683 1.683 0 0 0-2.296.623l-.372.648.517-4.597a1.58 1.58 0 0 0-2.729-1.25 1.607 1.607 0 0 0-1.472-1.553"/></g><rect width="3.231" height="7.176" x=".79" y="15.749" fill="url(#raising-hands-dark_svg__c)" rx="1.616" transform="rotate(-7.151 .79 15.75)"/><rect width="3.231" height="7.176" x=".79" y="15.749" fill="url(#raising-hands-dark_svg__d)" rx="1.616" transform="rotate(-7.151 .79 15.75)"/><path fill="url(#raising-hands-dark_svg__e)" d="M4.941 13.072a1.57 1.57 0 0 0-1.544 1.591l.017 1.095c.416.246.719.675.784 1.192l.406 3.24a1.57 1.57 0 0 0 1.989-1.533l-.061-4.041a1.57 1.57 0 0 0-1.591-1.544"/><path fill="url(#raising-hands-dark_svg__f)" d="M4.941 13.072a1.57 1.57 0 0 0-1.544 1.591l.017 1.095c.416.246.719.675.784 1.192l.406 3.24a1.57 1.57 0 0 0 1.989-1.533l-.061-4.041a1.57 1.57 0 0 0-1.591-1.544"/><path fill="url(#raising-hands-dark_svg__g)" d="M4.941 13.072a1.57 1.57 0 0 0-1.544 1.591l.017 1.095c.416.246.719.675.784 1.192l.406 3.24a1.57 1.57 0 0 0 1.989-1.533l-.061-4.041a1.57 1.57 0 0 0-1.591-1.544"/><path fill="url(#raising-hands-dark_svg__h)" d="M8.218 11.121a1.607 1.607 0 0 0-1.736 1.467l-.114 1.353c.102.204.16.432.164.675l.06 4.04q.003.248-.064.473a1.607 1.607 0 0 0 2.717-1.023l.44-5.25a1.607 1.607 0 0 0-1.467-1.735"/><path fill="url(#raising-hands-dark_svg__i)" d="M8.218 11.121a1.607 1.607 0 0 0-1.736 1.467l-.114 1.353c.102.204.16.432.164.675l.06 4.04q.003.248-.064.473a1.607 1.607 0 0 0 2.717-1.023l.44-5.25a1.607 1.607 0 0 0-1.467-1.735"/><path fill="url(#raising-hands-dark_svg__j)" d="M8.218 11.121a1.607 1.607 0 0 0-1.736 1.467l-.114 1.353c.102.204.16.432.164.675l.06 4.04q.003.248-.064.473a1.607 1.607 0 0 0 2.717-1.023l.44-5.25a1.607 1.607 0 0 0-1.467-1.735"/><path fill="url(#raising-hands-dark_svg__k)" d="M8.674 19.205c.318-.266.533-.654.57-1.099l.441-5.249q.008-.093.005-.184a1.58 1.58 0 0 1 2.729 1.251l-.6 5.333a1.58 1.58 0 0 1-3.145-.052"/><path fill="url(#raising-hands-dark_svg__l)" d="M8.674 19.205c.318-.266.533-.654.57-1.099l.441-5.249q.008-.093.005-.184a1.58 1.58 0 0 1 2.729 1.251l-.6 5.333a1.58 1.58 0 0 1-3.145-.052"/><g filter="url(#raising-hands-dark_svg__m)"><path stroke="url(#raising-hands-dark_svg__n)" stroke-linecap="round" stroke-width=".5" d="m4.594 14.35.468 4.968"/></g><g filter="url(#raising-hands-dark_svg__o)"><path stroke="url(#raising-hands-dark_svg__p)" stroke-linecap="round" stroke-width=".75" d="m7.64 12.38-.515 5.86"/></g><g filter="url(#raising-hands-dark_svg__q)"><path stroke="url(#raising-hands-dark_svg__r)" stroke-linecap="round" stroke-width=".75" d="m10.551 13.249-.973 6.397"/></g><path fill="url(#raising-hands-dark_svg__s)" d="m14.14 21.635 1.123-2.11a1.68 1.68 0 0 0-.648-2.25l-.045-.025a1.683 1.683 0 0 0-2.296.623l-.4.697-.538 3.17z"/><g filter="url(#raising-hands-dark_svg__t)"><path stroke="url(#raising-hands-dark_svg__u)" stroke-linecap="round" stroke-width=".75" d="m13.297 18.209-1.375 2.437"/></g><g filter="url(#raising-hands-dark_svg__v)"><path stroke="#422830" stroke-linecap="round" d="m2.751 17.966.813 5.875c.145 1.636 1.28 4.825 4.656 4.5"/></g><g filter="url(#raising-hands-dark_svg__w)"><path fill="#3B2626" d="M23.705 11.129a1.607 1.607 0 0 1 1.736 1.467l.114 1.353a1.568 1.568 0 0 1 2.971.722l-.017 1.095a1.616 1.616 0 0 1 2.422 1.594l-.49 3.914a2 2 0 0 1-.025.143l-.25 2.014c-.056.657-.312 2.186-.9 3.303a5.084 5.084 0 0 1-9.731-1.15 11 11 0 0 1-.11-.501 5.6 5.6 0 0 0-.26-.844l-2.505-4.706a1.68 1.68 0 0 1 .649-2.25l.044-.026a1.683 1.683 0 0 1 2.297.624l.371.648-.517-4.597a1.58 1.58 0 0 1 2.73-1.251 1.607 1.607 0 0 1 1.471-1.552"/><path fill="url(#raising-hands-dark_svg__x)" d="M23.705 11.129a1.607 1.607 0 0 1 1.736 1.467l.114 1.353a1.568 1.568 0 0 1 2.971.722l-.017 1.095a1.616 1.616 0 0 1 2.422 1.594l-.49 3.914a2 2 0 0 1-.025.143l-.25 2.014c-.056.657-.312 2.186-.9 3.303a5.084 5.084 0 0 1-9.731-1.15 11 11 0 0 1-.11-.501 5.6 5.6 0 0 0-.26-.844l-2.505-4.706a1.68 1.68 0 0 1 .649-2.25l.044-.026a1.683 1.683 0 0 1 2.297.624l.371.648-.517-4.597a1.58 1.58 0 0 1 2.73-1.251 1.607 1.607 0 0 1 1.471-1.552"/></g><rect width="3.231" height="7.176" fill="url(#raising-hands-dark_svg__y)" rx="1.616" transform="scale(-1 1)rotate(-7.151 110.516 256.993)"/><rect width="3.231" height="7.176" fill="url(#raising-hands-dark_svg__z)" rx="1.616" transform="scale(-1 1)rotate(-7.151 110.516 256.993)"/><path fill="url(#raising-hands-dark_svg__A)" d="M26.982 13.08a1.57 1.57 0 0 1 1.544 1.591l-.016 1.095a1.61 1.61 0 0 0-.784 1.192l-.407 3.24a1.57 1.57 0 0 1-1.989-1.534l.061-4.04a1.57 1.57 0 0 1 1.591-1.544"/><path fill="url(#raising-hands-dark_svg__B)" d="M26.982 13.08a1.57 1.57 0 0 1 1.544 1.591l-.016 1.095a1.61 1.61 0 0 0-.784 1.192l-.407 3.24a1.57 1.57 0 0 1-1.989-1.534l.061-4.04a1.57 1.57 0 0 1 1.591-1.544"/><path fill="url(#raising-hands-dark_svg__C)" d="M26.982 13.08a1.57 1.57 0 0 1 1.544 1.591l-.016 1.095a1.61 1.61 0 0 0-.784 1.192l-.407 3.24a1.57 1.57 0 0 1-1.989-1.534l.061-4.04a1.57 1.57 0 0 1 1.591-1.544"/><path fill="url(#raising-hands-dark_svg__D)" d="M23.705 11.129a1.607 1.607 0 0 1 1.736 1.467l.114 1.353c-.102.204-.16.432-.164.675l-.06 4.04q-.003.247.064.473a1.607 1.607 0 0 1-2.717-1.023l-.44-5.25a1.607 1.607 0 0 1 1.467-1.735"/><path fill="url(#raising-hands-dark_svg__E)" d="M23.705 11.129a1.607 1.607 0 0 1 1.736 1.467l.114 1.353c-.102.204-.16.432-.164.675l-.06 4.04q-.003.247.064.473a1.607 1.607 0 0 1-2.717-1.023l-.44-5.25a1.607 1.607 0 0 1 1.467-1.735"/><path fill="url(#raising-hands-dark_svg__F)" d="M23.705 11.129a1.607 1.607 0 0 1 1.736 1.467l.114 1.353c-.102.204-.16.432-.164.675l-.06 4.04q-.003.247.064.473a1.607 1.607 0 0 1-2.717-1.023l-.44-5.25a1.607 1.607 0 0 1 1.467-1.735"/><path fill="url(#raising-hands-dark_svg__G)" d="M23.25 19.213a1.6 1.6 0 0 1-.571-1.1l-.44-5.248a2 2 0 0 1-.006-.184 1.58 1.58 0 0 0-2.729 1.251l.6 5.333a1.58 1.58 0 0 0 3.146-.053"/><path fill="url(#raising-hands-dark_svg__H)" d="M23.25 19.213a1.6 1.6 0 0 1-.571-1.1l-.44-5.248a2 2 0 0 1-.006-.184 1.58 1.58 0 0 0-2.729 1.251l.6 5.333a1.58 1.58 0 0 0 3.146-.053"/><g filter="url(#raising-hands-dark_svg__I)"><path stroke="url(#raising-hands-dark_svg__J)" stroke-linecap="round" stroke-width=".5" d="m27.33 14.357-.47 4.969"/></g><g filter="url(#raising-hands-dark_svg__K)"><path stroke="url(#raising-hands-dark_svg__L)" stroke-linecap="round" stroke-width=".75" d="m24.283 12.388.515 5.86"/></g><g filter="url(#raising-hands-dark_svg__M)"><path stroke="url(#raising-hands-dark_svg__N)" stroke-linecap="round" stroke-width=".75" d="m21.372 13.257.973 6.397"/></g><path fill="url(#raising-hands-dark_svg__O)" d="m17.783 21.643-1.123-2.11a1.68 1.68 0 0 1 .649-2.25l.044-.026a1.683 1.683 0 0 1 2.297.624l.4.697.537 3.17z"/><g filter="url(#raising-hands-dark_svg__P)"><path stroke="url(#raising-hands-dark_svg__Q)" stroke-linecap="round" stroke-width=".75" d="m18.626 18.216 1.375 2.438"/></g><g filter="url(#raising-hands-dark_svg__R)"><path stroke="#422830" stroke-linecap="round" d="m29.172 17.966-.812 5.875c-.146 1.636-1.282 4.825-4.657 4.5"/></g><g filter="url(#raising-hands-dark_svg__S)"><path fill="#1A78C3" d="m19.949 9.709 1.868-1.025a.4.4 0 0 0 .056-.664l-1.325-1.05a.4.4 0 0 0-.635.212l-.543 2.075a.4.4 0 0 0 .579.452"/></g><g filter="url(#raising-hands-dark_svg__T)"><path fill="#1A78C3" d="m15.608 8.712-.827-1.964a.4.4 0 0 1 .368-.555h1.691a.4.4 0 0 1 .366.561l-.863 1.964a.4.4 0 0 1-.735-.006"/></g><g filter="url(#raising-hands-dark_svg__U)"><path fill="#1A78C3" d="m12.219 9.678-2.007-.715a.4.4 0 0 1-.161-.647l1.14-1.247a.4.4 0 0 1 .662.108l.866 1.963a.4.4 0 0 1-.5.538"/></g><defs><radialGradient id="raising-hands-dark_svg__b" cx="0" cy="0" r="1" gradientTransform="matrix(-2.68754 14.78126 -9.196 -1.67202 9.297 15.615)" gradientUnits="userSpaceOnUse"><stop offset=".814" stop-color="#3A1E36" stop-opacity="0"/><stop offset="1" stop-color="#3A1E36"/></radialGradient><radialGradient id="raising-hands-dark_svg__c" cx="0" cy="0" r="1" gradientTransform="matrix(-.58106 -.7658 .69417 -.52671 1.563 16.797)" gradientUnits="userSpaceOnUse"><stop stop-color="#5F4B49"/><stop offset="1" stop-color="#5F4B49" stop-opacity="0"/></radialGradient><radialGradient id="raising-hands-dark_svg__d" cx="0" cy="0" r="1" gradientTransform="matrix(-2.92432 -4.6817 3.73673 -2.33406 4.154 20.744)" gradientUnits="userSpaceOnUse"><stop offset=".856" stop-color="#5F4B49" stop-opacity="0"/><stop offset="1" stop-color="#5F4B49"/></radialGradient><radialGradient id="raising-hands-dark_svg__e" cx="0" cy="0" r="1" gradientTransform="matrix(1.54688 -.07812 .30786 6.0956 3.75 17.724)" gradientUnits="userSpaceOnUse"><stop stop-color="#231015"/><stop offset="1" stop-color="#231015" stop-opacity="0"/></radialGradient><radialGradient id="raising-hands-dark_svg__f" cx="0" cy="0" r="1" gradientTransform="matrix(-3.85937 -3.53126 4.51637 -4.93601 7.063 17.459)" gradientUnits="userSpaceOnUse"><stop offset=".836" stop-color="#5F4B49" stop-opacity="0"/><stop offset="1" stop-color="#5F4B49"/></radialGradient><radialGradient id="raising-hands-dark_svg__g" cx="0" cy="0" r="1" gradientTransform="matrix(-.9375 -.8125 .52587 -.60678 4.125 13.99)" gradientUnits="userSpaceOnUse"><stop stop-color="#5F4B49"/><stop offset=".993" stop-color="#5F4B49" stop-opacity="0"/></radialGradient><radialGradient id="raising-hands-dark_svg__h" cx="0" cy="0" r="1" gradientTransform="matrix(1.625 .15625 -.53262 5.5392 6.14 16.365)" gradientUnits="userSpaceOnUse"><stop stop-color="#231015"/><stop offset="1" stop-color="#231015" stop-opacity="0"/></radialGradient><radialGradient id="raising-hands-dark_svg__i" cx="0" cy="0" r="1" gradientTransform="rotate(-138.668 5.788 4.557)scale(1.72711 1.12914)" gradientUnits="userSpaceOnUse"><stop stop-color="#5F4B49"/><stop offset=".993" stop-color="#5F4B49" stop-opacity="0"/></radialGradient><radialGradient id="raising-hands-dark_svg__j" cx="0" cy="0" r="1" gradientTransform="rotate(-133.928 8.553 5.98)scale(5.78305 7.42036)" gradientUnits="userSpaceOnUse"><stop offset=".836" stop-color="#5F4B49" stop-opacity="0"/><stop offset="1" stop-color="#5F4B49"/></radialGradient><radialGradient id="raising-hands-dark_svg__k" cx="0" cy="0" r="1" gradientTransform="rotate(-137.333 9.88 6.145)scale(6.16704 7.89237)" gradientUnits="userSpaceOnUse"><stop offset=".836" stop-color="#5F4B49" stop-opacity="0"/><stop offset="1" stop-color="#5F4B49"/></radialGradient><radialGradient id="raising-hands-dark_svg__l" cx="0" cy="0" r="1" gradientTransform="matrix(1.98437 .54687 -1.29214 4.68863 9 15.412)" gradientUnits="userSpaceOnUse"><stop stop-color="#231015"/><stop offset="1" stop-color="#231015" stop-opacity="0"/></radialGradient><radialGradient id="raising-hands-dark_svg__s" cx="0" cy="0" r="1" gradientTransform="rotate(10.784 -88.763 67.584)scale(2.00415 3.316)" gradientUnits="userSpaceOnUse"><stop offset=".323" stop-color="#231015"/><stop offset="1" stop-color="#231015" stop-opacity="0"/></radialGradient><radialGradient id="raising-hands-dark_svg__x" cx="0" cy="0" r="1" gradientTransform="rotate(79.695 1.954 21.367)scale(15.0236 9.34676)" gradientUnits="userSpaceOnUse"><stop offset=".814" stop-color="#3A1E36" stop-opacity="0"/><stop offset="1" stop-color="#3A1E36"/></radialGradient><radialGradient id="raising-hands-dark_svg__y" cx="0" cy="0" r="1" gradientTransform="matrix(-.58106 -.7658 .69417 -.52671 .773 1.048)" gradientUnits="userSpaceOnUse"><stop stop-color="#5F4B49"/><stop offset="1" stop-color="#5F4B49" stop-opacity="0"/></radialGradient><radialGradient id="raising-hands-dark_svg__z" cx="0" cy="0" r="1" gradientTransform="matrix(-2.92432 -4.6817 3.73673 -2.33406 3.364 4.995)" gradientUnits="userSpaceOnUse"><stop offset=".856" stop-color="#5F4B49" stop-opacity="0"/><stop offset="1" stop-color="#5F4B49"/></radialGradient><radialGradient id="raising-hands-dark_svg__A" cx="0" cy="0" r="1" gradientTransform="rotate(-177.109 14.31 8.51)scale(1.54885 6.10337)" gradientUnits="userSpaceOnUse"><stop stop-color="#231015"/><stop offset="1" stop-color="#231015" stop-opacity="0"/></radialGradient><radialGradient id="raising-hands-dark_svg__B" cx="0" cy="0" r="1" gradientTransform="rotate(-42.458 34.912 -23.266)scale(5.23111 6.69043)" gradientUnits="userSpaceOnUse"><stop offset=".836" stop-color="#5F4B49" stop-opacity="0"/><stop offset="1" stop-color="#5F4B49"/></radialGradient><radialGradient id="raising-hands-dark_svg__C" cx="0" cy="0" r="1" gradientTransform="matrix(.9375 -.8125 .52587 .60678 27.798 13.998)" gradientUnits="userSpaceOnUse"><stop stop-color="#5F4B49"/><stop offset=".993" stop-color="#5F4B49" stop-opacity="0"/></radialGradient><radialGradient id="raising-hands-dark_svg__D" cx="0" cy="0" r="1" gradientTransform="matrix(-1.625 .15624 -.53258 -5.5392 25.783 16.373)" gradientUnits="userSpaceOnUse"><stop stop-color="#231015"/><stop offset="1" stop-color="#231015" stop-opacity="0"/></radialGradient><radialGradient id="raising-hands-dark_svg__E" cx="0" cy="0" r="1" gradientTransform="matrix(1.29687 -1.14062 .74571 .84786 24.798 11.81)" gradientUnits="userSpaceOnUse"><stop stop-color="#5F4B49"/><stop offset=".993" stop-color="#5F4B49" stop-opacity="0"/></radialGradient><radialGradient id="raising-hands-dark_svg__F" cx="0" cy="0" r="1" gradientTransform="rotate(-46.072 30.035 -17.42)scale(5.78305 7.42036)" gradientUnits="userSpaceOnUse"><stop offset=".836" stop-color="#5F4B49" stop-opacity="0"/><stop offset="1" stop-color="#5F4B49"/></radialGradient><radialGradient id="raising-hands-dark_svg__G" cx="0" cy="0" r="1" gradientTransform="matrix(4.53466 -4.17963 5.34895 5.8033 18.943 17.367)" gradientUnits="userSpaceOnUse"><stop offset=".836" stop-color="#5F4B49" stop-opacity="0"/><stop offset="1" stop-color="#5F4B49"/></radialGradient><radialGradient id="raising-hands-dark_svg__H" cx="0" cy="0" r="1" gradientTransform="matrix(-1.98437 .54688 -1.29217 -4.68862 22.923 15.42)" gradientUnits="userSpaceOnUse"><stop stop-color="#231015"/><stop offset="1" stop-color="#231015" stop-opacity="0"/></radialGradient><radialGradient id="raising-hands-dark_svg__O" cx="0" cy="0" r="1" gradientTransform="rotate(169.216 9.582 9.889)scale(2.00415 3.316)" gradientUnits="userSpaceOnUse"><stop offset=".323" stop-color="#231015"/><stop offset="1" stop-color="#231015" stop-opacity="0"/></radialGradient><filter id="raising-hands-dark_svg__a" width="15.482" height="18.773" x=".979" y="11.115" color-interpolation-filters="sRGB" filterUnits="userSpaceOnUse"><feFlood flood-opacity="0" result="BackgroundImageFix"/><feBlend in="SourceGraphic" in2="BackgroundImageFix" result="shape"/><feColorMatrix in="SourceAlpha" result="hardAlpha" values="0 0 0 0 0 0 0 0 0 0 0 0 0 0 0 0 0 0 127 0"/><feOffset dx="1"/><feGaussianBlur stdDeviation=".5"/><feComposite in2="hardAlpha" k2="-1" k3="1" operator="arithmetic"/><feColorMatrix values="0 0 0 0 0.294118 0 0 0 0 0.196078 0 0 0 0 0.196078 0 0 0 1 0"/><feBlend in2="shape" result="effect1_innerShadow_20020_6107"/></filter><filter id="raising-hands-dark_svg__m" width="2.469" height="6.969" x="3.594" y="13.349" color-interpolation-filters="sRGB" filterUnits="userSpaceOnUse"><feFlood flood-opacity="0" result="BackgroundImageFix"/><feBlend in="SourceGraphic" in2="BackgroundImageFix" result="shape"/><feGaussianBlur result="effect1_foregroundBlur_20020_6107" stdDeviation=".375"/></filter><filter id="raising-hands-dark_svg__o" width="2.766" height="8.109" x="6" y="11.255" color-interpolation-filters="sRGB" filterUnits="userSpaceOnUse"><feFlood flood-opacity="0" result="BackgroundImageFix"/><feBlend in="SourceGraphic" in2="BackgroundImageFix" result="shape"/><feGaussianBlur result="effect1_foregroundBlur_20020_6107" stdDeviation=".375"/></filter><filter id="raising-hands-dark_svg__q" width="3.223" height="8.647" x="8.453" y="12.124" color-interpolation-filters="sRGB" filterUnits="userSpaceOnUse"><feFlood flood-opacity="0" result="BackgroundImageFix"/><feBlend in="SourceGraphic" in2="BackgroundImageFix" result="shape"/><feGaussianBlur result="effect1_foregroundBlur_20020_6107" stdDeviation=".375"/></filter><filter id="raising-hands-dark_svg__t" width="3.625" height="4.688" x="10.797" y="17.084" color-interpolation-filters="sRGB" filterUnits="userSpaceOnUse"><feFlood flood-opacity="0" result="BackgroundImageFix"/><feBlend in="SourceGraphic" in2="BackgroundImageFix" result="shape"/><feGaussianBlur result="effect1_foregroundBlur_20020_6107" stdDeviation=".375"/></filter><filter id="raising-hands-dark_svg__v" width="10.469" height="15.398" x=".251" y="15.466" color-interpolation-filters="sRGB" filterUnits="userSpaceOnUse"><feFlood flood-opacity="0" result="BackgroundImageFix"/><feBlend in="SourceGraphic" in2="BackgroundImageFix" result="shape"/><feGaussianBlur result="effect1_foregroundBlur_20020_6107" stdDeviation="1"/></filter><filter id="raising-hands-dark_svg__w" width="15.482" height="18.773" x="16.462" y="11.123" color-interpolation-filters="sRGB" filterUnits="userSpaceOnUse"><feFlood flood-opacity="0" result="BackgroundImageFix"/><feBlend in="SourceGraphic" in2="BackgroundImageFix" result="shape"/><feColorMatrix in="SourceAlpha" result="hardAlpha" values="0 0 0 0 0 0 0 0 0 0 0 0 0 0 0 0 0 0 127 0"/><feOffset dx="1"/><feGaussianBlur stdDeviation=".5"/><feComposite in2="hardAlpha" k2="-1" k3="1" operator="arithmetic"/><feColorMatrix values="0 0 0 0 0.294118 0 0 0 0 0.196078 0 0 0 0 0.196078 0 0 0 1 0"/><feBlend in2="shape" result="effect1_innerShadow_20020_6107"/></filter><filter id="raising-hands-dark_svg__I" width="2.469" height="6.969" x="25.861" y="13.357" color-interpolation-filters="sRGB" filterUnits="userSpaceOnUse"><feFlood flood-opacity="0" result="BackgroundImageFix"/><feBlend in="SourceGraphic" in2="BackgroundImageFix" result="shape"/><feGaussianBlur result="effect1_foregroundBlur_20020_6107" stdDeviation=".375"/></filter><filter id="raising-hands-dark_svg__K" width="2.766" height="8.109" x="23.158" y="11.263" color-interpolation-filters="sRGB" filterUnits="userSpaceOnUse"><feFlood flood-opacity="0" result="BackgroundImageFix"/><feBlend in="SourceGraphic" in2="BackgroundImageFix" result="shape"/><feGaussianBlur result="effect1_foregroundBlur_20020_6107" stdDeviation=".375"/></filter><filter id="raising-hands-dark_svg__M" width="3.223" height="8.647" x="20.247" y="12.132" color-interpolation-filters="sRGB" filterUnits="userSpaceOnUse"><feFlood flood-opacity="0" result="BackgroundImageFix"/><feBlend in="SourceGraphic" in2="BackgroundImageFix" result="shape"/><feGaussianBlur result="effect1_foregroundBlur_20020_6107" stdDeviation=".375"/></filter><filter id="raising-hands-dark_svg__P" width="3.625" height="4.688" x="17.501" y="17.091" color-interpolation-filters="sRGB" filterUnits="userSpaceOnUse"><feFlood flood-opacity="0" result="BackgroundImageFix"/><feBlend in="SourceGraphic" in2="BackgroundImageFix" result="shape"/><feGaussianBlur result="effect1_foregroundBlur_20020_6107" stdDeviation=".375"/></filter><filter id="raising-hands-dark_svg__R" width="10.469" height="15.398" x="21.203" y="15.466" color-interpolation-filters="sRGB" filterUnits="userSpaceOnUse"><feFlood flood-opacity="0" result="BackgroundImageFix"/><feBlend in="SourceGraphic" in2="BackgroundImageFix" result="shape"/><feGaussianBlur result="effect1_foregroundBlur_20020_6107" stdDeviation="1"/></filter><filter id="raising-hands-dark_svg__S" width="3.069" height="3.027" x="19.206" y="6.883" color-interpolation-filters="sRGB" filterUnits="userSpaceOnUse"><feFlood flood-opacity="0" result="BackgroundImageFix"/><feBlend in="SourceGraphic" in2="BackgroundImageFix" result="shape"/><feColorMatrix in="SourceAlpha" result="hardAlpha" values="0 0 0 0 0 0 0 0 0 0 0 0 0 0 0 0 0 0 127 0"/><feOffset dx="-.15" dy=".15"/><feGaussianBlur stdDeviation=".15"/><feComposite in2="hardAlpha" k2="-1" k3="1" operator="arithmetic"/><feColorMatrix values="0 0 0 0 0.113725 0 0 0 0 0.568627 0 0 0 0 0.898039 0 0 0 1 0"/><feBlend in2="shape" result="effect1_innerShadow_20020_6107"/><feColorMatrix in="SourceAlpha" result="hardAlpha" values="0 0 0 0 0 0 0 0 0 0 0 0 0 0 0 0 0 0 127 0"/><feOffset dx=".25"/><feGaussianBlur stdDeviation=".2"/><feComposite in2="hardAlpha" k2="-1" k3="1" operator="arithmetic"/><feColorMatrix values="0 0 0 0 0.0784314 0 0 0 0 0.341176 0 0 0 0 0.588235 0 0 0 1 0"/><feBlend in2="effect1_innerShadow_20020_6107" result="effect2_innerShadow_20020_6107"/></filter><filter id="raising-hands-dark_svg__T" width="2.892" height="2.913" x="14.599" y="6.193" color-interpolation-filters="sRGB" filterUnits="userSpaceOnUse"><feFlood flood-opacity="0" result="BackgroundImageFix"/><feBlend in="SourceGraphic" in2="BackgroundImageFix" result="shape"/><feColorMatrix in="SourceAlpha" result="hardAlpha" values="0 0 0 0 0 0 0 0 0 0 0 0 0 0 0 0 0 0 127 0"/><feOffset dx="-.15" dy=".15"/><feGaussianBlur stdDeviation=".15"/><feComposite in2="hardAlpha" k2="-1" k3="1" operator="arithmetic"/><feColorMatrix values="0 0 0 0 0.113725 0 0 0 0 0.568627 0 0 0 0 0.898039 0 0 0 1 0"/><feBlend in2="shape" result="effect1_innerShadow_20020_6107"/><feColorMatrix in="SourceAlpha" result="hardAlpha" values="0 0 0 0 0 0 0 0 0 0 0 0 0 0 0 0 0 0 127 0"/><feOffset dx=".25"/><feGaussianBlur stdDeviation=".2"/><feComposite in2="hardAlpha" k2="-1" k3="1" operator="arithmetic"/><feColorMatrix values="0 0 0 0 0.0784314 0 0 0 0 0.341176 0 0 0 0 0.588235 0 0 0 1 0"/><feBlend in2="effect1_innerShadow_20020_6107" result="effect2_innerShadow_20020_6107"/></filter><filter id="raising-hands-dark_svg__U" width="3.208" height="2.913" x="9.796" y="6.939" color-interpolation-filters="sRGB" filterUnits="userSpaceOnUse"><feFlood flood-opacity="0" result="BackgroundImageFix"/><feBlend in="SourceGraphic" in2="BackgroundImageFix" result="shape"/><feColorMatrix in="SourceAlpha" result="hardAlpha" values="0 0 0 0 0 0 0 0 0 0 0 0 0 0 0 0 0 0 127 0"/><feOffset dx="-.15" dy=".15"/><feGaussianBlur stdDeviation=".15"/><feComposite in2="hardAlpha" k2="-1" k3="1" operator="arithmetic"/><feColorMatrix values="0 0 0 0 0.113725 0 0 0 0 0.568627 0 0 0 0 0.898039 0 0 0 1 0"/><feBlend in2="shape" result="effect1_innerShadow_20020_6107"/><feColorMatrix in="SourceAlpha" result="hardAlpha" values="0 0 0 0 0 0 0 0 0 0 0 0 0 0 0 0 0 0 127 0"/><feOffset dx=".25"/><feGaussianBlur stdDeviation=".2"/><feComposite in2="hardAlpha" k2="-1" k3="1" operator="arithmetic"/><feColorMatrix values="0 0 0 0 0.0784314 0 0 0 0 0.341176 0 0 0 0 0.588235 0 0 0 1 0"/><feBlend in2="effect1_innerShadow_20020_6107" result="effect2_innerShadow_20020_6107"/></filter><linearGradient id="raising-hands-dark_svg__n" x1="4.469" x2="4.953" y1="13.99" y2="18.584" gradientUnits="userSpaceOnUse"><stop stop-color="#5B4947"/><stop offset="1" stop-color="#5B4947" stop-opacity="0"/></linearGradient><linearGradient id="raising-hands-dark_svg__p" x1="7.436" x2="7.383" y1="11.808" y2="18.959" gradientUnits="userSpaceOnUse"><stop stop-color="#5B4947"/><stop offset="1" stop-color="#5B4947" stop-opacity="0"/></linearGradient><linearGradient id="raising-hands-dark_svg__r" x1="10.347" x2="10.294" y1="12.676" y2="19.827" gradientUnits="userSpaceOnUse"><stop stop-color="#5B4947"/><stop offset="1" stop-color="#5B4947" stop-opacity="0"/></linearGradient><linearGradient id="raising-hands-dark_svg__u" x1="13.008" x2="13.002" y1="17.991" y2="20.715" gradientUnits="userSpaceOnUse"><stop stop-color="#5B4947"/><stop offset="1" stop-color="#5B4947" stop-opacity="0"/></linearGradient><linearGradient id="raising-hands-dark_svg__J" x1="27.455" x2="26.97" y1="13.998" y2="18.591" gradientUnits="userSpaceOnUse"><stop stop-color="#5B4947"/><stop offset="1" stop-color="#5B4947" stop-opacity="0"/></linearGradient><linearGradient id="raising-hands-dark_svg__L" x1="24.487" x2="24.541" y1="11.816" y2="18.966" gradientUnits="userSpaceOnUse"><stop stop-color="#5B4947"/><stop offset="1" stop-color="#5B4947" stop-opacity="0"/></linearGradient><linearGradient id="raising-hands-dark_svg__N" x1="21.577" x2="21.63" y1="12.684" y2="19.835" gradientUnits="userSpaceOnUse"><stop stop-color="#5B4947"/><stop offset="1" stop-color="#5B4947" stop-opacity="0"/></linearGradient><linearGradient id="raising-hands-dark_svg__Q" x1="18.916" x2="18.921" y1="17.998" y2="20.723" gradientUnits="userSpaceOnUse"><stop stop-color="#5B4947"/><stop offset="1" stop-color="#5B4947" stop-opacity="0"/></linearGradient></defs></svg>