<svg xmlns="http://www.w3.org/2000/svg" fill="none" viewBox="0 0 32 32"><path fill="#B5887C" d="M13.57 4.453a2.416 2.416 0 1 1 4.83-.114l.023.973a2.407 2.407 0 0 1 4.5 1.26l-.255 8.255 1.45-1.8a2.516 2.516 0 1 1 3.919 3.159l-.623.773-.006.009c-.573.733-1.746 2.235-3.217 4.663-.474.712-.886 1.472-1.298 2.231-.587 1.083-1.172 2.162-1.935 3.095a8.25 8.25 0 0 1-6.423 3.063 8.26 8.26 0 0 1-7.276-4.342l-.005.008C5.98 23.405 5.793 20.881 5.73 19.53l-.137-2.442a2 2 0 0 1-.015-.19l-.305-7.19a2.332 2.332 0 0 1 4.071-1.65l-.047-1.406a2.34 2.34 0 0 1 4.293-1.368z"/><path fill="url(#raised-hand-medium_svg__a)" d="M13.57 4.453a2.416 2.416 0 1 1 4.83-.114l.023.973a2.407 2.407 0 0 1 4.5 1.26l-.255 8.255 1.45-1.8a2.516 2.516 0 1 1 3.919 3.159l-.623.773-.006.009c-.573.733-1.746 2.235-3.217 4.663-.474.712-.886 1.472-1.298 2.231-.587 1.083-1.172 2.162-1.935 3.095a8.25 8.25 0 0 1-6.423 3.063 8.26 8.26 0 0 1-7.276-4.342l-.005.008C5.98 23.405 5.793 20.881 5.73 19.53l-.137-2.442a2 2 0 0 1-.015-.19l-.305-7.19a2.332 2.332 0 0 1 4.071-1.65l-.047-1.406a2.34 2.34 0 0 1 4.293-1.368z"/><path fill="url(#raised-hand-medium_svg__b)" d="M13.57 4.453a2.416 2.416 0 1 1 4.83-.114l.023.973a2.407 2.407 0 0 1 4.5 1.26l-.255 8.255 1.45-1.8a2.516 2.516 0 1 1 3.919 3.159l-.623.773-.006.009c-.573.733-1.746 2.235-3.217 4.663-.474.712-.886 1.472-1.298 2.231-.587 1.083-1.172 2.162-1.935 3.095a8.25 8.25 0 0 1-6.423 3.063 8.26 8.26 0 0 1-7.276-4.342l-.005.008C5.98 23.405 5.793 20.881 5.73 19.53l-.137-2.442a2 2 0 0 1-.015-.19l-.305-7.19a2.332 2.332 0 0 1 4.071-1.65l-.047-1.406a2.34 2.34 0 0 1 4.293-1.368z"/><path fill="url(#raised-hand-medium_svg__c)" d="M13.57 4.453a2.416 2.416 0 1 1 4.83-.114l.023.973a2.407 2.407 0 0 1 4.5 1.26l-.255 8.255 1.45-1.8a2.516 2.516 0 1 1 3.919 3.159l-.623.773-.006.009c-.573.733-1.746 2.235-3.217 4.663-.474.712-.886 1.472-1.298 2.231-.587 1.083-1.172 2.162-1.935 3.095a8.25 8.25 0 0 1-6.423 3.063 8.26 8.26 0 0 1-7.276-4.342l-.005.008C5.98 23.405 5.793 20.881 5.73 19.53l-.137-2.442a2 2 0 0 1-.015-.19l-.305-7.19a2.332 2.332 0 0 1 4.071-1.65l-.047-1.406a2.34 2.34 0 0 1 4.293-1.368z"/><path fill="url(#raised-hand-medium_svg__d)" d="M13.57 4.453a2.416 2.416 0 1 1 4.83-.114l.023.973a2.407 2.407 0 0 1 4.5 1.26l-.255 8.255 1.45-1.8a2.516 2.516 0 1 1 3.919 3.159l-.623.773-.006.009c-.573.733-1.746 2.235-3.217 4.663-.474.712-.886 1.472-1.298 2.231-.587 1.083-1.172 2.162-1.935 3.095a8.25 8.25 0 0 1-6.423 3.063 8.26 8.26 0 0 1-7.276-4.342l-.005.008C5.98 23.405 5.793 20.881 5.73 19.53l-.137-2.442a2 2 0 0 1-.015-.19l-.305-7.19a2.332 2.332 0 0 1 4.071-1.65l-.047-1.406a2.34 2.34 0 0 1 4.293-1.368z"/><path fill="url(#raised-hand-medium_svg__e)" d="M13.57 4.453a2.416 2.416 0 1 1 4.83-.114l.023.973a2.407 2.407 0 0 1 4.5 1.26l-.255 8.255 1.45-1.8a2.516 2.516 0 1 1 3.919 3.159l-.623.773-.006.009c-.573.733-1.746 2.235-3.217 4.663-.474.712-.886 1.472-1.298 2.231-.587 1.083-1.172 2.162-1.935 3.095a8.25 8.25 0 0 1-6.423 3.063 8.26 8.26 0 0 1-7.276-4.342l-.005.008C5.98 23.405 5.793 20.881 5.73 19.53l-.137-2.442a2 2 0 0 1-.015-.19l-.305-7.19a2.332 2.332 0 0 1 4.071-1.65l-.047-1.406a2.34 2.34 0 0 1 4.293-1.368z"/><path fill="url(#raised-hand-medium_svg__f)" d="m5.46 14.129-.187-4.42a2.332 2.332 0 0 1 4.071-1.651v-.009c.179.237.452.744.496 1.496.056.97.17 3.367.219 4.446z"/><path fill="url(#raised-hand-medium_svg__g)" d="m5.46 14.129-.187-4.42a2.332 2.332 0 0 1 4.071-1.651v-.009c.179.237.452.744.496 1.496.056.97.17 3.367.219 4.446z"/><path fill="url(#raised-hand-medium_svg__h)" d="m5.46 14.129-.187-4.42a2.332 2.332 0 0 1 4.071-1.651v-.009c.179.237.452.744.496 1.496.056.97.17 3.367.219 4.446z"/><g filter="url(#raised-hand-medium_svg__i)"><path fill="#C69F88" d="M8.028 9.416c-.1-1.07-.641-1.296-1.094-1.296 1.219-.532 2.125.187 2.219 1.296l.39 5.188-1.953 1.922.766-2.188c0-1.229-.235-3.921-.328-4.922"/></g><path fill="url(#raised-hand-medium_svg__j)" d="M9.344 8.05c.179.236.452.743.496 1.495.035.6.231 3.923.342 5.643l4.178-1.172-.443-6.88c-.017-.632-.011-1.285-.327-1.853a2.34 2.34 0 0 0-4.292 1.368z"/><path fill="url(#raised-hand-medium_svg__k)" d="M9.344 8.05c.179.236.452.743.496 1.495.035.6.231 3.923.342 5.643l4.178-1.172-.443-6.88c-.017-.632-.011-1.285-.327-1.853a2.34 2.34 0 0 0-4.292 1.368z"/><path fill="url(#raised-hand-medium_svg__l)" d="M9.344 8.05c.179.236.452.743.496 1.495.035.6.231 3.923.342 5.643l4.178-1.172-.443-6.88c-.017-.632-.011-1.285-.327-1.853a2.34 2.34 0 0 0-4.292 1.368z"/><path fill="url(#raised-hand-medium_svg__m)" d="M9.344 8.05c.179.236.452.743.496 1.495.035.6.231 3.923.342 5.643l4.178-1.172-.443-6.88c-.017-.632-.011-1.285-.327-1.853a2.34 2.34 0 0 0-4.292 1.368z"/><g filter="url(#raised-hand-medium_svg__n)"><path fill="#C69F88" d="M12.236 6.529c-.1-1.07-.64-1.297-1.094-1.297 1.219-.532 2.125.187 2.219 1.297l.428 6.668-2.014.932.842-1.864c0-1.229-.287-4.736-.381-5.736"/></g><path fill="url(#raised-hand-medium_svg__o)" d="M18.162 6.284c0-.457.166-.864.264-.977v-.003l-.022-.965a2.416 2.416 0 1 0-4.83.114l.02.83c.294.53.31 1.133.324 1.724.044 1.81.27 4.172.387 5.98h3.736c.026-1.966.12-6.059.12-6.703"/><path fill="url(#raised-hand-medium_svg__p)" d="M18.162 6.284c0-.457.166-.864.264-.977v-.003l-.022-.965a2.416 2.416 0 1 0-4.83.114l.02.83c.294.53.31 1.133.324 1.724.044 1.81.27 4.172.387 5.98h3.736c.026-1.966.12-6.059.12-6.703"/><path fill="url(#raised-hand-medium_svg__q)" d="M18.162 6.284c0-.457.166-.864.264-.977v-.003l-.022-.965a2.416 2.416 0 1 0-4.83.114l.02.83c.294.53.31 1.133.324 1.724.044 1.81.27 4.172.387 5.98h3.736c.026-1.966.12-6.059.12-6.703"/><path fill="url(#raised-hand-medium_svg__r)" d="M18.162 6.284c0-.457.166-.864.264-.977v-.003l-.022-.965a2.416 2.416 0 1 0-4.83.114l.02.83c.294.53.31 1.133.324 1.724.044 1.81.27 4.172.387 5.98h3.736c.026-1.966.12-6.059.12-6.703"/><g filter="url(#raised-hand-medium_svg__s)"><path fill="#9C7870" d="M16.373 3.008v10.11h1.203c.054-2.124.162-6.749.162-8.257s-.91-1.864-1.365-1.853"/></g><g filter="url(#raised-hand-medium_svg__t)"><path fill="#C69F88" d="M16.373 3.008v10.11h1.203c.054-2.124.162-6.749.162-8.257s-.91-1.864-1.365-1.853"/></g><path fill="url(#raised-hand-medium_svg__u)" d="M18.422 5.307c-.098.113-.265.52-.265.977 0 2.606-.12 4.52-.12 7.126l4.631 3.316v-1.901l.256-8.253a2.407 2.407 0 0 0-4.501-1.26v-.007z"/><path fill="url(#raised-hand-medium_svg__v)" d="M18.422 5.307c-.098.113-.265.52-.265.977 0 2.606-.12 4.52-.12 7.126l4.631 3.316v-1.901l.256-8.253a2.407 2.407 0 0 0-4.501-1.26v-.007z"/><path fill="url(#raised-hand-medium_svg__w)" d="M18.422 5.307c-.098.113-.265.52-.265.977 0 2.606-.12 4.52-.12 7.126l4.631 3.316v-1.901l.256-8.253a2.407 2.407 0 0 0-4.501-1.26v-.007z"/><g filter="url(#raised-hand-medium_svg__x)"><path fill="#C69F88" d="M21.007 5.078v10.11h1.202c.054-2.124.163-6.748.163-8.257s-.91-1.864-1.366-1.853"/></g><path fill="url(#raised-hand-medium_svg__y)" d="m22.793 14.672 1.325-1.645a2.516 2.516 0 0 1 3.919 3.159l-.623.773-.006.009c-.573.733-1.746 2.235-3.217 4.663-.427.641-.804 1.322-1.175 2.005-3.158-1.687-2.697-4.863-1.995-6.357z"/><path fill="url(#raised-hand-medium_svg__z)" d="m22.793 14.672 1.325-1.645a2.516 2.516 0 0 1 3.919 3.159l-.623.773-.006.009c-.573.733-1.746 2.235-3.217 4.663-.427.641-.804 1.322-1.175 2.005-3.158-1.687-2.697-4.863-1.995-6.357z"/><path fill="url(#raised-hand-medium_svg__A)" d="M13.57 4.453a2.416 2.416 0 1 1 4.83-.114l.023.973a2.407 2.407 0 0 1 4.5 1.26l-.255 8.255 1.45-1.8a2.516 2.516 0 1 1 3.919 3.159l-.623.773-.006.009c-.573.733-1.746 2.235-3.217 4.663-.474.712-.886 1.472-1.298 2.231-.587 1.083-1.172 2.162-1.935 3.095a8.25 8.25 0 0 1-6.423 3.063 8.26 8.26 0 0 1-7.276-4.342l-.005.008C5.98 23.405 5.793 20.881 5.73 19.53l-.137-2.442a2 2 0 0 1-.015-.19l-.305-7.19a2.332 2.332 0 0 1 4.071-1.65l-.047-1.406a2.34 2.34 0 0 1 4.293-1.368z"/><path fill="url(#raised-hand-medium_svg__B)" d="M13.57 4.453a2.416 2.416 0 1 1 4.83-.114l.023.973a2.407 2.407 0 0 1 4.5 1.26l-.255 8.255 1.45-1.8a2.516 2.516 0 1 1 3.919 3.159l-.623.773-.006.009c-.573.733-1.746 2.235-3.217 4.663-.474.712-.886 1.472-1.298 2.231-.587 1.083-1.172 2.162-1.935 3.095a8.25 8.25 0 0 1-6.423 3.063 8.26 8.26 0 0 1-7.276-4.342l-.005.008C5.98 23.405 5.793 20.881 5.73 19.53l-.137-2.442a2 2 0 0 1-.015-.19l-.305-7.19a2.332 2.332 0 0 1 4.071-1.65l-.047-1.406a2.34 2.34 0 0 1 4.293-1.368z"/><path fill="url(#raised-hand-medium_svg__C)" d="M13.57 4.453a2.416 2.416 0 1 1 4.83-.114l.023.973a2.407 2.407 0 0 1 4.5 1.26l-.255 8.255 1.45-1.8a2.516 2.516 0 1 1 3.919 3.159l-.623.773-.006.009c-.573.733-1.746 2.235-3.217 4.663-.474.712-.886 1.472-1.298 2.231-.587 1.083-1.172 2.162-1.935 3.095a8.25 8.25 0 0 1-6.423 3.063 8.26 8.26 0 0 1-7.276-4.342l-.005.008C5.98 23.405 5.793 20.881 5.73 19.53l-.137-2.442a2 2 0 0 1-.015-.19l-.305-7.19a2.332 2.332 0 0 1 4.071-1.65l-.047-1.406a2.34 2.34 0 0 1 4.293-1.368z"/><path fill="url(#raised-hand-medium_svg__D)" d="M13.57 4.453a2.416 2.416 0 1 1 4.83-.114l.023.973a2.407 2.407 0 0 1 4.5 1.26l-.255 8.255 1.45-1.8a2.516 2.516 0 1 1 3.919 3.159l-.623.773-.006.009c-.573.733-1.746 2.235-3.217 4.663-.474.712-.886 1.472-1.298 2.231-.587 1.083-1.172 2.162-1.935 3.095a8.25 8.25 0 0 1-6.423 3.063 8.26 8.26 0 0 1-7.276-4.342l-.005.008C5.98 23.405 5.793 20.881 5.73 19.53l-.137-2.442a2 2 0 0 1-.015-.19l-.305-7.19a2.332 2.332 0 0 1 4.071-1.65l-.047-1.406a2.34 2.34 0 0 1 4.293-1.368z"/><path fill="url(#raised-hand-medium_svg__E)" fill-opacity=".6" d="M13.57 4.453a2.416 2.416 0 1 1 4.83-.114l.023.973a2.407 2.407 0 0 1 4.5 1.26l-.255 8.255 1.45-1.8a2.516 2.516 0 1 1 3.919 3.159l-.623.773-.006.009c-.573.733-1.746 2.235-3.217 4.663-.474.712-.886 1.472-1.298 2.231-.587 1.083-1.172 2.162-1.935 3.095a8.25 8.25 0 0 1-6.423 3.063 8.26 8.26 0 0 1-7.276-4.342l-.005.008C5.98 23.405 5.793 20.881 5.73 19.53l-.137-2.442a2 2 0 0 1-.015-.19l-.305-7.19a2.332 2.332 0 0 1 4.071-1.65l-.047-1.406a2.34 2.34 0 0 1 4.293-1.368z"/><g filter="url(#raised-hand-medium_svg__F)"><path stroke="url(#raised-hand-medium_svg__G)" stroke-linecap="round" stroke-width="1.5" d="M26.769 14.644c-.744.745-2.555 2.768-3.844 4.906"/></g><g filter="url(#raised-hand-medium_svg__H)"><path stroke="url(#raised-hand-medium_svg__I)" stroke-linecap="round" stroke-width=".5" d="M9.808 14.406c-.291.344-1.28 1.344-1.843 1.906"/></g><g filter="url(#raised-hand-medium_svg__J)"><path stroke="url(#raised-hand-medium_svg__K)" stroke-linecap="round" stroke-width=".5" d="M11.933 13.813c.657-.25 1.682-.744 2.157-1.094"/></g><g filter="url(#raised-hand-medium_svg__L)"><path stroke="url(#raised-hand-medium_svg__M)" stroke-linecap="round" stroke-width=".5" d="M15.605 12.984c.61.313 1.64.579 2.294.436"/></g><g filter="url(#raised-hand-medium_svg__N)"><path stroke="url(#raised-hand-medium_svg__O)" stroke-linecap="round" stroke-width=".5" d="M21.324 16.61c.266-.391.734-1.172.938-1.407"/></g><g filter="url(#raised-hand-medium_svg__P)"><path fill="url(#raised-hand-medium_svg__Q)" d="M22.293 15.203c-1.75-.012-3.427-1.052-3.969-1.5-.4 2.163 1.24 3.766 2.078 4.219z"/></g><defs><radialGradient id="raised-hand-medium_svg__a" cx="0" cy="0" r="1" gradientTransform="matrix(-19.41172 6.20328 -9.45813 -29.597 26.105 17.433)" gradientUnits="userSpaceOnUse"><stop offset=".818" stop-color="#916761" stop-opacity="0"/><stop offset="1" stop-color="#916761"/></radialGradient><radialGradient id="raised-hand-medium_svg__b" cx="0" cy="0" r="1" gradientTransform="matrix(-5.81574 24.215 -16.71615 -4.01473 18.294 7.814)" gradientUnits="userSpaceOnUse"><stop offset=".751" stop-color="#99597D" stop-opacity="0"/><stop offset="1" stop-color="#99597D"/></radialGradient><radialGradient id="raised-hand-medium_svg__c" cx="0" cy="0" r="1" gradientTransform="rotate(-117.318 19.437 8.426)scale(8.58217 10.8072)" gradientUnits="userSpaceOnUse"><stop stop-color="#BD8A82"/><stop offset="1" stop-color="#BD8A82" stop-opacity="0"/></radialGradient><radialGradient id="raised-hand-medium_svg__d" cx="0" cy="0" r="1" gradientTransform="rotate(97.307 5.03 11.355)scale(22.7173 15.6822)" gradientUnits="userSpaceOnUse"><stop offset=".908" stop-color="#9A5987" stop-opacity="0"/><stop offset="1" stop-color="#9A5987"/></radialGradient><radialGradient id="raised-hand-medium_svg__e" cx="0" cy="0" r="1" gradientTransform="matrix(-1.40625 -1 4.27933 -6.01781 27.145 18.03)" gradientUnits="userSpaceOnUse"><stop stop-color="#A9817C"/><stop offset="1" stop-color="#A9817C" stop-opacity="0"/></radialGradient><radialGradient id="raised-hand-medium_svg__h" cx="0" cy="0" r="1" gradientTransform="rotate(87.826 .116 7.476)scale(2.17344 5.42725)" gradientUnits="userSpaceOnUse"><stop stop-color="#9D7E66"/><stop offset="1" stop-color="#9D7E66" stop-opacity="0"/></radialGradient><radialGradient id="raised-hand-medium_svg__m" cx="0" cy="0" r="1" gradientTransform="rotate(77.964 3.188 8.66)scale(3.35183 5.94373)" gradientUnits="userSpaceOnUse"><stop stop-color="#A18067"/><stop offset="1" stop-color="#A18067" stop-opacity="0"/></radialGradient><radialGradient id="raised-hand-medium_svg__r" cx="0" cy="0" r="1" gradientTransform="rotate(-116.651 12.728 -.292)scale(9.71133 11.3986)" gradientUnits="userSpaceOnUse"><stop offset=".87" stop-color="#A28268" stop-opacity="0"/><stop offset="1" stop-color="#A28268"/></radialGradient><radialGradient id="raised-hand-medium_svg__w" cx="0" cy="0" r="1" gradientTransform="matrix(-3.42492 -10.21113 11.02468 -3.6978 23.218 14.301)" gradientUnits="userSpaceOnUse"><stop offset=".878" stop-color="#987962" stop-opacity="0"/><stop offset="1" stop-color="#987962"/></radialGradient><radialGradient id="raised-hand-medium_svg__y" cx="0" cy="0" r="1" gradientTransform="rotate(37.504 -8.712 41.242)scale(1.69385 5.27412)" gradientUnits="userSpaceOnUse"><stop stop-color="#855F49"/><stop offset="1" stop-color="#855F49" stop-opacity="0"/></radialGradient><radialGradient id="raised-hand-medium_svg__A" cx="0" cy="0" r="1" gradientTransform="matrix(-1.78125 2.12499 -1.49556 -1.25364 27.48 13.875)" gradientUnits="userSpaceOnUse"><stop stop-color="#C69F87"/><stop offset="1" stop-color="#C69F87" stop-opacity="0"/></radialGradient><radialGradient id="raised-hand-medium_svg__B" cx="0" cy="0" r="1" gradientTransform="rotate(130.365 10.165 7.614)scale(2.77561 2.99718)" gradientUnits="userSpaceOnUse"><stop stop-color="#C69F87"/><stop offset="1" stop-color="#C69F87" stop-opacity="0"/></radialGradient><radialGradient id="raised-hand-medium_svg__C" cx="0" cy="0" r="1" gradientTransform="rotate(112.533 8.281 7.204)scale(2.69033 2.84931)" gradientUnits="userSpaceOnUse"><stop offset=".325" stop-color="#C69F87"/><stop offset="1" stop-color="#C69F87" stop-opacity="0"/></radialGradient><radialGradient id="raised-hand-medium_svg__D" cx="0" cy="0" r="1" gradientTransform="rotate(122.8 4.484 6.244)scale(1.41523 1.65613)" gradientUnits="userSpaceOnUse"><stop stop-color="#C69F87"/><stop offset="1" stop-color="#C69F87" stop-opacity="0"/></radialGradient><radialGradient id="raised-hand-medium_svg__E" cx="0" cy="0" r="1" gradientTransform="rotate(120.411 1.464 6.763)scale(1.41004 1.52259)" gradientUnits="userSpaceOnUse"><stop stop-color="#C69F87"/><stop offset="1" stop-color="#C69F87" stop-opacity="0"/></radialGradient><radialGradient id="raised-hand-medium_svg__Q" cx="0" cy="0" r="1" gradientTransform="rotate(144.625 8.816 11.16)scale(3.83256 5.45389)" gradientUnits="userSpaceOnUse"><stop stop-color="#C29A87"/><stop offset="1" stop-color="#C29A87" stop-opacity="0"/></radialGradient><linearGradient id="raised-hand-medium_svg__f" x1="9.937" x2="8.738" y1="11.095" y2="11.123" gradientUnits="userSpaceOnUse"><stop stop-color="#A97D6C"/><stop offset="1" stop-color="#A97D6C" stop-opacity="0"/></linearGradient><linearGradient id="raised-hand-medium_svg__g" x1="9.633" x2="9.026" y1="13.74" y2="12.87" gradientUnits="userSpaceOnUse"><stop stop-color="#B5887C"/><stop offset="1" stop-color="#B5887C" stop-opacity="0"/></linearGradient><linearGradient id="raised-hand-medium_svg__j" x1="14.301" x2="12.988" y1="9.311" y2="9.405" gradientUnits="userSpaceOnUse"><stop stop-color="#A57B69"/><stop offset="1" stop-color="#A57B69" stop-opacity="0"/></linearGradient><linearGradient id="raised-hand-medium_svg__k" x1="9.296" x2="11.693" y1="10.289" y2="10.169" gradientUnits="userSpaceOnUse"><stop stop-color="#825A4C"/><stop offset="1" stop-color="#825A4C" stop-opacity="0"/></linearGradient><linearGradient id="raised-hand-medium_svg__l" x1="11.828" x2="10.934" y1="14.888" y2="11.581" gradientUnits="userSpaceOnUse"><stop offset=".405" stop-color="#B5887C"/><stop offset="1" stop-color="#B5887C" stop-opacity="0"/></linearGradient><linearGradient id="raised-hand-medium_svg__o" x1="13.885" x2="15.98" y1="8.211" y2="8.107" gradientUnits="userSpaceOnUse"><stop stop-color="#84584B"/><stop offset="1" stop-color="#84584B" stop-opacity="0"/></linearGradient><linearGradient id="raised-hand-medium_svg__p" x1="18.21" x2="17.368" y1="8.482" y2="8.473" gradientUnits="userSpaceOnUse"><stop stop-color="#99735B"/><stop offset="1" stop-color="#99735B" stop-opacity="0"/></linearGradient><linearGradient id="raised-hand-medium_svg__q" x1="15.98" x2="15.98" y1="13.632" y2="11.825" gradientUnits="userSpaceOnUse"><stop offset=".348" stop-color="#B5887C"/><stop offset="1" stop-color="#B5887C" stop-opacity="0"/></linearGradient><linearGradient id="raised-hand-medium_svg__u" x1="17.836" x2="20.481" y1="10.408" y2="10.502" gradientUnits="userSpaceOnUse"><stop stop-color="#84564C"/><stop offset="1" stop-color="#84564C" stop-opacity="0"/></linearGradient><linearGradient id="raised-hand-medium_svg__v" x1="19.233" x2="20.144" y1="14.32" y2="12.565" gradientUnits="userSpaceOnUse"><stop stop-color="#B5887C"/><stop offset="1" stop-color="#B5887C" stop-opacity="0"/></linearGradient><linearGradient id="raised-hand-medium_svg__z" x1="20.84" x2="22.152" y1="17.863" y2="16.547" gradientUnits="userSpaceOnUse"><stop stop-color="#B6897D"/><stop offset="1" stop-color="#B6897D" stop-opacity="0"/></linearGradient><linearGradient id="raised-hand-medium_svg__G" x1="27.245" x2="22.742" y1="15.011" y2="21.418" gradientUnits="userSpaceOnUse"><stop stop-color="#C29186"/><stop offset="1" stop-color="#C29186" stop-opacity="0"/></linearGradient><linearGradient id="raised-hand-medium_svg__I" x1="10.072" x2="8.801" y1="14.78" y2="17.393" gradientUnits="userSpaceOnUse"><stop stop-color="#C19985"/><stop offset="1" stop-color="#C19985" stop-opacity="0"/></linearGradient><linearGradient id="raised-hand-medium_svg__K" x1="14.398" x2="13.979" y1="12.933" y2="14.687" gradientUnits="userSpaceOnUse"><stop stop-color="#C19985"/><stop offset="1" stop-color="#C19985" stop-opacity="0"/></linearGradient><linearGradient id="raised-hand-medium_svg__M" x1="18.227" x2="18.149" y1="13.078" y2="13.875" gradientUnits="userSpaceOnUse"><stop stop-color="#C19985"/><stop offset="1" stop-color="#C19985" stop-opacity="0"/></linearGradient><linearGradient id="raised-hand-medium_svg__O" x1="22.332" x2="20.893" y1="15.511" y2="16.699" gradientUnits="userSpaceOnUse"><stop stop-color="#C19985"/><stop offset="1" stop-color="#C19985" stop-opacity="0"/></linearGradient><filter id="raised-hand-medium_svg__i" width="4.609" height="10.585" x="5.934" y="6.941" color-interpolation-filters="sRGB" filterUnits="userSpaceOnUse"><feFlood flood-opacity="0" result="BackgroundImageFix"/><feBlend in="SourceGraphic" in2="BackgroundImageFix" result="shape"/><feGaussianBlur result="effect1_foregroundBlur_20020_1512" stdDeviation=".5"/></filter><filter id="raised-hand-medium_svg__n" width="4.647" height="11.076" x="10.142" y="4.053" color-interpolation-filters="sRGB" filterUnits="userSpaceOnUse"><feFlood flood-opacity="0" result="BackgroundImageFix"/><feBlend in="SourceGraphic" in2="BackgroundImageFix" result="shape"/><feGaussianBlur result="effect1_foregroundBlur_20020_1512" stdDeviation=".5"/></filter><filter id="raised-hand-medium_svg__s" width="3.365" height="12.11" x="15.373" y="2.008" color-interpolation-filters="sRGB" filterUnits="userSpaceOnUse"><feFlood flood-opacity="0" result="BackgroundImageFix"/><feBlend in="SourceGraphic" in2="BackgroundImageFix" result="shape"/><feGaussianBlur result="effect1_foregroundBlur_20020_1512" stdDeviation=".5"/></filter><filter id="raised-hand-medium_svg__t" width="3.365" height="12.11" x="15.373" y="2.008" color-interpolation-filters="sRGB" filterUnits="userSpaceOnUse"><feFlood flood-opacity="0" result="BackgroundImageFix"/><feBlend in="SourceGraphic" in2="BackgroundImageFix" result="shape"/><feGaussianBlur result="effect1_foregroundBlur_20020_1512" stdDeviation=".5"/></filter><filter id="raised-hand-medium_svg__x" width="3.365" height="12.11" x="20.006" y="4.078" color-interpolation-filters="sRGB" filterUnits="userSpaceOnUse"><feFlood flood-opacity="0" result="BackgroundImageFix"/><feBlend in="SourceGraphic" in2="BackgroundImageFix" result="shape"/><feGaussianBlur result="effect1_foregroundBlur_20020_1512" stdDeviation=".5"/></filter><filter id="raised-hand-medium_svg__F" width="7.344" height="8.406" x="21.175" y="12.894" color-interpolation-filters="sRGB" filterUnits="userSpaceOnUse"><feFlood flood-opacity="0" result="BackgroundImageFix"/><feBlend in="SourceGraphic" in2="BackgroundImageFix" result="shape"/><feGaussianBlur result="effect1_foregroundBlur_20020_1512" stdDeviation=".5"/></filter><filter id="raised-hand-medium_svg__H" width="3.344" height="3.406" x="7.215" y="13.656" color-interpolation-filters="sRGB" filterUnits="userSpaceOnUse"><feFlood flood-opacity="0" result="BackgroundImageFix"/><feBlend in="SourceGraphic" in2="BackgroundImageFix" result="shape"/><feGaussianBlur result="effect1_foregroundBlur_20020_1512" stdDeviation=".25"/></filter><filter id="raised-hand-medium_svg__J" width="3.656" height="2.594" x="11.183" y="11.969" color-interpolation-filters="sRGB" filterUnits="userSpaceOnUse"><feFlood flood-opacity="0" result="BackgroundImageFix"/><feBlend in="SourceGraphic" in2="BackgroundImageFix" result="shape"/><feGaussianBlur result="effect1_foregroundBlur_20020_1512" stdDeviation=".25"/></filter><filter id="raised-hand-medium_svg__L" width="3.794" height="1.975" x="14.855" y="12.234" color-interpolation-filters="sRGB" filterUnits="userSpaceOnUse"><feFlood flood-opacity="0" result="BackgroundImageFix"/><feBlend in="SourceGraphic" in2="BackgroundImageFix" result="shape"/><feGaussianBlur result="effect1_foregroundBlur_20020_1512" stdDeviation=".25"/></filter><filter id="raised-hand-medium_svg__N" width="2.438" height="2.906" x="20.574" y="14.453" color-interpolation-filters="sRGB" filterUnits="userSpaceOnUse"><feFlood flood-opacity="0" result="BackgroundImageFix"/><feBlend in="SourceGraphic" in2="BackgroundImageFix" result="shape"/><feGaussianBlur result="effect1_foregroundBlur_20020_1512" stdDeviation=".25"/></filter><filter id="raised-hand-medium_svg__P" width="5.031" height="5.219" x="17.762" y="13.203" color-interpolation-filters="sRGB" filterUnits="userSpaceOnUse"><feFlood flood-opacity="0" result="BackgroundImageFix"/><feBlend in="SourceGraphic" in2="BackgroundImageFix" result="shape"/><feGaussianBlur result="effect1_foregroundBlur_20020_1512" stdDeviation=".25"/></filter></defs></svg>