<svg width="32" height="32" fill="none" xmlns="http://www.w3.org/2000/svg"><g filter="url(#a)"><path d="M11.863 3.719c0-.967.784-1.75 1.75-1.75h4.762c.966 0 1.75.783 1.75 1.75v3.25h-8.262v-3.25Z" fill="url(#b)"/><path d="M11.863 3.719c0-.967.784-1.75 1.75-1.75h4.762c.966 0 1.75.783 1.75 1.75v3.25h-8.262v-3.25Z" fill="url(#c)"/><path d="M11.863 3.719c0-.967.784-1.75 1.75-1.75h4.762c.966 0 1.75.783 1.75 1.75v3.25h-8.262v-3.25Z" fill="url(#d)"/></g><g filter="url(#e)"><path d="M11.863 28.281c0 .967.784 1.75 1.75 1.75h4.762a1.75 1.75 0 0 0 1.75-1.75v-3.593h-8.262v3.593Z" fill="url(#f)"/><path d="M11.863 28.281c0 .967.784 1.75 1.75 1.75h4.762a1.75 1.75 0 0 0 1.75-1.75v-3.593h-8.262v3.593Z" fill="url(#g)"/></g><g filter="url(#h)"><path d="M7.182 12.813c0-3.312 1.948-6.194 4.68-7.68h8.261c2.732 1.486 4.684 4.368 4.684 7.68v6.374c0 3.312-1.956 6.194-4.688 7.68h-8.223c-2.731-1.486-4.714-4.368-4.714-7.68v-6.375Z" fill="url(#i)"/><path d="M7.182 12.813c0-3.312 1.948-6.194 4.68-7.68h8.261c2.732 1.486 4.684 4.368 4.684 7.68v6.374c0 3.312-1.956 6.194-4.688 7.68h-8.223c-2.731-1.486-4.714-4.368-4.714-7.68v-6.375Z" fill="url(#j)"/><path d="M7.182 12.813c0-3.312 1.948-6.194 4.68-7.68h8.261c2.732 1.486 4.684 4.368 4.684 7.68v6.374c0 3.312-1.956 6.194-4.688 7.68h-8.223c-2.731-1.486-4.714-4.368-4.714-7.68v-6.375Z" fill="url(#k)"/></g><path d="M22.87 7.422c.315.389.597.804.843 1.242H8.273a8.93 8.93 0 0 1 .842-1.242H22.87Z" fill="url(#l)"/><path d="M24.686 11.398c.07.406.11.82.119 1.243H7.183c.009-.422.05-.837.119-1.243h17.384Z" fill="url(#m)"/><path d="M7.182 16.617v-1.242h17.625v1.242H7.182Z" fill="url(#n)"/><path d="M7.302 20.594c-.07-.406-.11-.82-.119-1.242h17.622a8.344 8.344 0 0 1-.117 1.242H7.302Z" fill="url(#o)"/><path d="M9.132 24.57a8.992 8.992 0 0 1-.847-1.242h15.43a8.94 8.94 0 0 1-.841 1.242H9.132Z" fill="url(#p)"/><defs><radialGradient id="c" cx="0" cy="0" r="1" gradientUnits="userSpaceOnUse" gradientTransform="matrix(0 -3.34375 3.40625 0 17.807 5.031)"><stop stop-color="#726BA9"/><stop offset="1" stop-color="#726BA9" stop-opacity="0"/></radialGradient><radialGradient id="d" cx="0" cy="0" r="1" gradientUnits="userSpaceOnUse" gradientTransform="matrix(0 .71875 -3.125 0 17.494 2.969)"><stop stop-color="#7D7AB7"/><stop offset="1" stop-color="#6F6EB1" stop-opacity="0"/></radialGradient><radialGradient id="g" cx="0" cy="0" r="1" gradientUnits="userSpaceOnUse" gradientTransform="matrix(0 2.5625 -2.8125 0 18.025 26.719)"><stop offset=".439" stop-color="#7167B5"/><stop offset="1" stop-color="#7167B5" stop-opacity="0"/></radialGradient><radialGradient id="i" cx="0" cy="0" r="1" gradientUnits="userSpaceOnUse" gradientTransform="matrix(0 10.75 -10.9353 0 18.244 15.438)"><stop offset=".184" stop-color="#FFBD47"/><stop offset="1" stop-color="#ED5C2B"/></radialGradient><radialGradient id="l" cx="0" cy="0" r="1" gradientUnits="userSpaceOnUse" gradientTransform="matrix(0 4.71875 -10.5953 0 18.87 8.344)"><stop stop-color="#E0486A"/><stop offset=".649" stop-color="#BA274F"/><stop offset="1" stop-color="#7C1E35"/></radialGradient><radialGradient id="m" cx="0" cy="0" r="1" gradientUnits="userSpaceOnUse" gradientTransform="matrix(0 4.71875 -12.0931 0 19.276 12.32)"><stop stop-color="#E0486A"/><stop offset=".649" stop-color="#BA274F"/><stop offset="1" stop-color="#7C1E35"/></radialGradient><radialGradient id="n" cx="0" cy="0" r="1" gradientUnits="userSpaceOnUse" gradientTransform="matrix(0 4.71875 -12.0955 0 19.277 16.297)"><stop stop-color="#E0486A"/><stop offset=".649" stop-color="#BA274F"/><stop offset="1" stop-color="#7C1E35"/></radialGradient><radialGradient id="o" cx="0" cy="0" r="1" gradientUnits="userSpaceOnUse" gradientTransform="matrix(0 4.71875 -12.0933 0 19.277 20.273)"><stop stop-color="#E0486A"/><stop offset=".649" stop-color="#BA274F"/><stop offset="1" stop-color="#7C1E35"/></radialGradient><radialGradient id="p" cx="0" cy="0" r="1" gradientUnits="userSpaceOnUse" gradientTransform="matrix(0 4.64062 -10.4145 0 18.874 23.328)"><stop stop-color="#C7136B"/><stop offset=".649" stop-color="#B42367"/><stop offset="1" stop-color="#8B215A"/></radialGradient><linearGradient id="b" x1="19.9" y1="4.531" x2="13.057" y2="4.469" gradientUnits="userSpaceOnUse"><stop stop-color="#6867AC"/><stop offset="1" stop-color="#504279"/></linearGradient><linearGradient id="f" x1="19.9" y1="28.489" x2="13.057" y2="28.39" gradientUnits="userSpaceOnUse"><stop stop-color="#5C59A9"/><stop offset=".78" stop-color="#584594"/></linearGradient><linearGradient id="j" x1="17.994" y1="27.625" x2="17.994" y2="24" gradientUnits="userSpaceOnUse"><stop stop-color="#EB3939"/><stop offset="1" stop-color="#EB3939" stop-opacity="0"/></linearGradient><linearGradient id="k" x1="17.994" y1="5.133" x2="17.994" y2="7.125" gradientUnits="userSpaceOnUse"><stop stop-color="#EB3939"/><stop offset="1" stop-color="#EB3939" stop-opacity="0"/></linearGradient><filter id="a" x="11.863" y="1.969" width="8.762" height="5.1" filterUnits="userSpaceOnUse" color-interpolation-filters="sRGB"><feFlood flood-opacity="0" result="BackgroundImageFix"/><feBlend in="SourceGraphic" in2="BackgroundImageFix" result="shape"/><feColorMatrix in="SourceAlpha" values="0 0 0 0 0 0 0 0 0 0 0 0 0 0 0 0 0 0 127 0" result="hardAlpha"/><feOffset dx=".5" dy=".1"/><feGaussianBlur stdDeviation=".375"/><feComposite in2="hardAlpha" operator="arithmetic" k2="-1" k3="1"/><feColorMatrix values="0 0 0 0 0.231373 0 0 0 0 0.196078 0 0 0 0 0.309804 0 0 0 1 0"/><feBlend in2="shape" result="effect1_innerShadow_18_20571"/></filter><filter id="e" x="11.863" y="24.188" width="8.762" height="5.944" filterUnits="userSpaceOnUse" color-interpolation-filters="sRGB"><feFlood flood-opacity="0" result="BackgroundImageFix"/><feBlend in="SourceGraphic" in2="BackgroundImageFix" result="shape"/><feColorMatrix in="SourceAlpha" values="0 0 0 0 0 0 0 0 0 0 0 0 0 0 0 0 0 0 127 0" result="hardAlpha"/><feOffset dx=".5" dy=".1"/><feGaussianBlur stdDeviation=".375"/><feComposite in2="hardAlpha" operator="arithmetic" k2="-1" k3="1"/><feColorMatrix values="0 0 0 0 0.25098 0 0 0 0 0.180392 0 0 0 0 0.4 0 0 0 1 0"/><feBlend in2="shape" result="effect1_innerShadow_18_20571"/><feColorMatrix in="SourceAlpha" values="0 0 0 0 0 0 0 0 0 0 0 0 0 0 0 0 0 0 127 0" result="hardAlpha"/><feOffset dy="-.5"/><feGaussianBlur stdDeviation=".375"/><feComposite in2="hardAlpha" operator="arithmetic" k2="-1" k3="1"/><feColorMatrix values="0 0 0 0 0.352941 0 0 0 0 0.172549 0 0 0 0 0.654902 0 0 0 1 0"/><feBlend in2="effect1_innerShadow_18_20571" result="effect2_innerShadow_18_20571"/></filter><filter id="h" x="7.182" y="5.133" width="19.625" height="21.734" filterUnits="userSpaceOnUse" color-interpolation-filters="sRGB"><feFlood flood-opacity="0" result="BackgroundImageFix"/><feBlend in="SourceGraphic" in2="BackgroundImageFix" result="shape"/><feColorMatrix in="SourceAlpha" values="0 0 0 0 0 0 0 0 0 0 0 0 0 0 0 0 0 0 127 0" result="hardAlpha"/><feOffset dx="2"/><feGaussianBlur stdDeviation="1.5"/><feComposite in2="hardAlpha" operator="arithmetic" k2="-1" k3="1"/><feColorMatrix values="0 0 0 0 0.866667 0 0 0 0 0.2 0 0 0 0 0.301961 0 0 0 1 0"/><feBlend in2="shape" result="effect1_innerShadow_18_20571"/><feColorMatrix in="SourceAlpha" values="0 0 0 0 0 0 0 0 0 0 0 0 0 0 0 0 0 0 127 0" result="hardAlpha"/><feOffset dx=".25"/><feGaussianBlur stdDeviation=".5"/><feComposite in2="hardAlpha" operator="arithmetic" k2="-1" k3="1"/><feColorMatrix values="0 0 0 0 0.721569 0 0 0 0 0.313726 0 0 0 0 0.180392 0 0 0 1 0"/><feBlend in2="effect1_innerShadow_18_20571" result="effect2_innerShadow_18_20571"/></filter></defs></svg>