<svg width="32" height="33" fill="none" xmlns="http://www.w3.org/2000/svg"><path d="M3.906 12.2c0-.12-.11-.22-.24-.21-.99.12-1.885.96-1.885 1.99v1.828h2.125V12.2Z" fill="url(#a)"/><path d="M3.906 12.2c0-.12-.11-.22-.24-.21-.99.12-1.885.96-1.885 1.99v1.828h2.125V12.2Z" fill="url(#b)"/><path d="M3.906 12.2c0-.12-.11-.22-.24-.21-.99.12-1.885.96-1.885 1.99v1.828h2.125V12.2Z" fill="url(#c)"/><path d="M7.011 8.98c.42 0 .77.34.77.76v1.24l-.83.33-.61-1.22c-.27-.51.1-1.11.67-1.11Z" fill="url(#d)"/><path d="M7.011 8.98c.42 0 .77.34.77.76v1.24l-.83.33-.61-1.22c-.27-.51.1-1.11.67-1.11Z" fill="url(#e)"/><path d="M20.748 19.043h3.72l-.817 7.713a.25.25 0 0 1-.248.224h-3.219a.25.25 0 0 1-.248-.276l.812-7.662Z" fill="#6F647A"/><path d="M20.748 19.043h3.72l-.817 7.713a.25.25 0 0 1-.248.224h-3.219a.25.25 0 0 1-.248-.276l.812-7.662Z" fill="url(#f)"/><path d="M20.748 19.043h3.72l-.817 7.713a.25.25 0 0 1-.248.224h-3.219a.25.25 0 0 1-.248-.276l.812-7.662Z" fill="url(#g)"/><path d="M20.748 19.043h3.72l-.817 7.713a.25.25 0 0 1-.248.224h-3.219a.25.25 0 0 1-.248-.276l.812-7.662Z" fill="url(#h)"/><path d="M20.748 19.043h3.72l-.817 7.713a.25.25 0 0 1-.248.224h-3.219a.25.25 0 0 1-.248-.276l.812-7.662Z" fill="url(#i)"/><path d="M15.784 19.043h-3.722l.818 7.713a.25.25 0 0 0 .249.224h3.218a.25.25 0 0 0 .249-.276l-.812-7.662Z" fill="#71667C"/><path d="M15.784 19.043h-3.722l.818 7.713a.25.25 0 0 0 .249.224h3.218a.25.25 0 0 0 .249-.276l-.812-7.662Z" fill="url(#j)"/><path d="M15.784 19.043h-3.722l.818 7.713a.25.25 0 0 0 .249.224h3.218a.25.25 0 0 0 .249-.276l-.812-7.662Z" fill="url(#k)"/><path d="M15.784 19.043h-3.722l.818 7.713a.25.25 0 0 0 .249.224h3.218a.25.25 0 0 0 .249-.276l-.812-7.662Z" fill="url(#l)"/><path d="M24.601 8.98h-4.81a2.5 2.5 0 0 1-2.01-.99 4.976 4.976 0 0 0-4-2.01h-.15c-2.48.07-4.43 2.15-4.43 4.63a.37.37 0 0 1-.37.37h-1.78c-1.26 0-2.27 1.02-2.27 2.27v1.42c0 .17-.14.31-.32.31h-2.18a.5.5 0 0 0-.5.5v2c0 1.38 1.11 2.5 2.5 2.5H8.41a.496.496 0 0 1 .176.96l-.666.253a3 3 0 0 0-1.936 2.805v1.373a.5.5 0 0 0 .5.5h3a.5.5 0 0 0 .5-.5v-.165a.75.75 0 0 1 .484-.702l.503-.19a3 3 0 0 0 1.854-2.11c.04-.169.224-.27.38-.199 1.396.627 2.945.975 4.576.975 2.133 0 4.604-.949 6.357-2.029a.514.514 0 0 1 .635.072l.678.687c.17.17.27.41.27.66v4.3c0 .17.14.31.31.31h3.305c.17 0 .31-.14.31-.31l.01-12.52c0-2.85-2.195-5.17-5.055-5.17Z" fill="#807C84"/><path d="M24.601 8.98h-4.81a2.5 2.5 0 0 1-2.01-.99 4.976 4.976 0 0 0-4-2.01h-.15c-2.48.07-4.43 2.15-4.43 4.63a.37.37 0 0 1-.37.37h-1.78c-1.26 0-2.27 1.02-2.27 2.27v1.42c0 .17-.14.31-.32.31h-2.18a.5.5 0 0 0-.5.5v2c0 1.38 1.11 2.5 2.5 2.5H8.41a.496.496 0 0 1 .176.96l-.666.253a3 3 0 0 0-1.936 2.805v1.373a.5.5 0 0 0 .5.5h3a.5.5 0 0 0 .5-.5v-.165a.75.75 0 0 1 .484-.702l.503-.19a3 3 0 0 0 1.854-2.11c.04-.169.224-.27.38-.199 1.396.627 2.945.975 4.576.975 2.133 0 4.604-.949 6.357-2.029a.514.514 0 0 1 .635.072l.678.687c.17.17.27.41.27.66v4.3c0 .17.14.31.31.31h3.305c.17 0 .31-.14.31-.31l.01-12.52c0-2.85-2.195-5.17-5.055-5.17Z" fill="url(#m)"/><path d="M24.601 8.98h-4.81a2.5 2.5 0 0 1-2.01-.99 4.976 4.976 0 0 0-4-2.01h-.15c-2.48.07-4.43 2.15-4.43 4.63a.37.37 0 0 1-.37.37h-1.78c-1.26 0-2.27 1.02-2.27 2.27v1.42c0 .17-.14.31-.32.31h-2.18a.5.5 0 0 0-.5.5v2c0 1.38 1.11 2.5 2.5 2.5H8.41a.496.496 0 0 1 .176.96l-.666.253a3 3 0 0 0-1.936 2.805v1.373a.5.5 0 0 0 .5.5h3a.5.5 0 0 0 .5-.5v-.165a.75.75 0 0 1 .484-.702l.503-.19a3 3 0 0 0 1.854-2.11c.04-.169.224-.27.38-.199 1.396.627 2.945.975 4.576.975 2.133 0 4.604-.949 6.357-2.029a.514.514 0 0 1 .635.072l.678.687c.17.17.27.41.27.66v4.3c0 .17.14.31.31.31h3.305c.17 0 .31-.14.31-.31l.01-12.52c0-2.85-2.195-5.17-5.055-5.17Z" fill="url(#n)"/><path d="M24.601 8.98h-4.81a2.5 2.5 0 0 1-2.01-.99 4.976 4.976 0 0 0-4-2.01h-.15c-2.48.07-4.43 2.15-4.43 4.63a.37.37 0 0 1-.37.37h-1.78c-1.26 0-2.27 1.02-2.27 2.27v1.42c0 .17-.14.31-.32.31h-2.18a.5.5 0 0 0-.5.5v2c0 1.38 1.11 2.5 2.5 2.5H8.41a.496.496 0 0 1 .176.96l-.666.253a3 3 0 0 0-1.936 2.805v1.373a.5.5 0 0 0 .5.5h3a.5.5 0 0 0 .5-.5v-.165a.75.75 0 0 1 .484-.702l.503-.19a3 3 0 0 0 1.854-2.11c.04-.169.224-.27.38-.199 1.396.627 2.945.975 4.576.975 2.133 0 4.604-.949 6.357-2.029a.514.514 0 0 1 .635.072l.678.687c.17.17.27.41.27.66v4.3c0 .17.14.31.31.31h3.305c.17 0 .31-.14.31-.31l.01-12.52c0-2.85-2.195-5.17-5.055-5.17Z" fill="url(#o)"/><path d="M24.601 8.98h-4.81a2.5 2.5 0 0 1-2.01-.99 4.976 4.976 0 0 0-4-2.01h-.15c-2.48.07-4.43 2.15-4.43 4.63a.37.37 0 0 1-.37.37h-1.78c-1.26 0-2.27 1.02-2.27 2.27v1.42c0 .17-.14.31-.32.31h-2.18a.5.5 0 0 0-.5.5v2c0 1.38 1.11 2.5 2.5 2.5H8.41a.496.496 0 0 1 .176.96l-.666.253a3 3 0 0 0-1.936 2.805v1.373a.5.5 0 0 0 .5.5h3a.5.5 0 0 0 .5-.5v-.165a.75.75 0 0 1 .484-.702l.503-.19a3 3 0 0 0 1.854-2.11c.04-.169.224-.27.38-.199 1.396.627 2.945.975 4.576.975 2.133 0 4.604-.949 6.357-2.029a.514.514 0 0 1 .635.072l.678.687c.17.17.27.41.27.66v4.3c0 .17.14.31.31.31h3.305c.17 0 .31-.14.31-.31l.01-12.52c0-2.85-2.195-5.17-5.055-5.17Z" fill="url(#p)"/><path d="M24.601 8.98h-4.81a2.5 2.5 0 0 1-2.01-.99 4.976 4.976 0 0 0-4-2.01h-.15c-2.48.07-4.43 2.15-4.43 4.63a.37.37 0 0 1-.37.37h-1.78c-1.26 0-2.27 1.02-2.27 2.27v1.42c0 .17-.14.31-.32.31h-2.18a.5.5 0 0 0-.5.5v2c0 1.38 1.11 2.5 2.5 2.5H8.41a.496.496 0 0 1 .176.96l-.666.253a3 3 0 0 0-1.936 2.805v1.373a.5.5 0 0 0 .5.5h3a.5.5 0 0 0 .5-.5v-.165a.75.75 0 0 1 .484-.702l.503-.19a3 3 0 0 0 1.854-2.11c.04-.169.224-.27.38-.199 1.396.627 2.945.975 4.576.975 2.133 0 4.604-.949 6.357-2.029a.514.514 0 0 1 .635.072l.678.687c.17.17.27.41.27.66v4.3c0 .17.14.31.31.31h3.305c.17 0 .31-.14.31-.31l.01-12.52c0-2.85-2.195-5.17-5.055-5.17Z" fill="url(#q)"/><path d="M24.601 8.98h-4.81a2.5 2.5 0 0 1-2.01-.99 4.976 4.976 0 0 0-4-2.01h-.15c-2.48.07-4.43 2.15-4.43 4.63a.37.37 0 0 1-.37.37h-1.78c-1.26 0-2.27 1.02-2.27 2.27v1.42c0 .17-.14.31-.32.31h-2.18a.5.5 0 0 0-.5.5v2c0 1.38 1.11 2.5 2.5 2.5H8.41a.496.496 0 0 1 .176.96l-.666.253a3 3 0 0 0-1.936 2.805v1.373a.5.5 0 0 0 .5.5h3a.5.5 0 0 0 .5-.5v-.165a.75.75 0 0 1 .484-.702l.503-.19a3 3 0 0 0 1.854-2.11c.04-.169.224-.27.38-.199 1.396.627 2.945.975 4.576.975 2.133 0 4.604-.949 6.357-2.029a.514.514 0 0 1 .635.072l.678.687c.17.17.27.41.27.66v4.3c0 .17.14.31.31.31h3.305c.17 0 .31-.14.31-.31l.01-12.52c0-2.85-2.195-5.17-5.055-5.17Z" fill="url(#r)"/><path d="M3.504 18.03c-.28 0-.5-.22-.5-.5v-.55c0-.28.22-.5.5-.5s.5.22.5.5v.55c0 .27-.22.5-.5.5Z" fill="url(#s)"/><path d="M7.281 14.899a.5.5 0 1 0 0-1 .5.5 0 0 0 0 1Z" fill="url(#t)"/><path d="M7.281 14.899a.5.5 0 1 0 0-1 .5.5 0 0 0 0 1Z" fill="url(#u)"/><path fill-rule="evenodd" clip-rule="evenodd" d="M12.906 17.511v3.998a3 3 0 0 1-1.935 2.804l-.503.191a.75.75 0 0 0-.484.701v.166a.5.5 0 0 1-.5.5h-3a.5.5 0 0 1-.5-.5v-1.373a3 3 0 0 1 1.936-2.805l.664-.252a.5.5 0 0 0 .322-.467V17.51h4Z" fill="url(#v)"/><path fill-rule="evenodd" clip-rule="evenodd" d="M12.906 17.511v3.998a3 3 0 0 1-1.935 2.804l-.503.191a.75.75 0 0 0-.484.701v.166a.5.5 0 0 1-.5.5h-3a.5.5 0 0 1-.5-.5v-1.373a3 3 0 0 1 1.936-2.805l.664-.252a.5.5 0 0 0 .322-.467V17.51h4Z" fill="url(#w)"/><path fill-rule="evenodd" clip-rule="evenodd" d="M12.906 17.511v3.998a3 3 0 0 1-1.935 2.804l-.503.191a.75.75 0 0 0-.484.701v.166a.5.5 0 0 1-.5.5h-3a.5.5 0 0 1-.5-.5v-1.373a3 3 0 0 1 1.936-2.805l.664-.252a.5.5 0 0 0 .322-.467V17.51h4Z" fill="url(#x)"/><path fill-rule="evenodd" clip-rule="evenodd" d="M12.906 17.511v3.998a3 3 0 0 1-1.935 2.804l-.503.191a.75.75 0 0 0-.484.701v.166a.5.5 0 0 1-.5.5h-3a.5.5 0 0 1-.5-.5v-1.373a3 3 0 0 1 1.936-2.805l.664-.252a.5.5 0 0 0 .322-.467V17.51h4Z" fill="url(#y)"/><g filter="url(#z)"><path d="m14.344 22.714.455 3.829H16l-.331-2.75-1.325-1.079Z" fill="url(#A)"/></g><g filter="url(#B)"><path d="m23.516 21.668-.675 4.875h-.547l.547-4.36.675-.515Z" fill="url(#C)"/></g><g filter="url(#D)"><path fill="url(#E)" d="M27.281 17.199h1.688v9.031h-1.688z"/></g><g filter="url(#F)"><ellipse cx="15.579" cy="10.729" rx="2.696" ry="3.975" transform="rotate(-26.225 15.579 10.729)" fill="url(#G)"/></g><path d="M24.75 21V15.7L8.625 14.76l4.485 7.222a.259.259 0 0 1 .096.022c1.395.627 2.944.975 4.575.975 2.133 0 4.604-.949 6.357-2.029.194-.12.444-.1.612.05Z" fill="url(#H)"/><path d="M24.75 21V15.7L8.625 14.76l4.485 7.222a.259.259 0 0 1 .096.022c1.395.627 2.944.975 4.575.975 2.133 0 4.604-.949 6.357-2.029.194-.12.444-.1.612.05Z" fill="url(#I)"/><path d="M24.75 21V15.7L8.625 14.76l4.485 7.222a.259.259 0 0 1 .096.022c1.395.627 2.944.975 4.575.975 2.133 0 4.604-.949 6.357-2.029.194-.12.444-.1.612.05Z" fill="url(#J)"/><path d="M24.75 21V15.7L8.625 14.76l4.485 7.222a.259.259 0 0 1 .096.022c1.395.627 2.944.975 4.575.975 2.133 0 4.604-.949 6.357-2.029.194-.12.444-.1.612.05Z" fill="url(#K)"/><path d="M24.75 21V15.7L8.625 14.76l4.485 7.222a.259.259 0 0 1 .096.022c1.395.627 2.944.975 4.575.975 2.133 0 4.604-.949 6.357-2.029.194-.12.444-.1.612.05Z" fill="url(#L)"/><path d="M24.75 21V15.7L8.625 14.76l4.485 7.222a.259.259 0 0 1 .096.022c1.395.627 2.944.975 4.575.975 2.133 0 4.604-.949 6.357-2.029.194-.12.444-.1.612.05Z" fill="url(#M)"/><g filter="url(#N)"><path d="M11.469 20.761v1.032c0 .742-.602 1.343-1.344 1.343-.742 0-1.344.602-1.344 1.344v.75" stroke="url(#O)"/></g><g filter="url(#P)"><path d="M29.25 14.324c-.1-3.55-2.781-4.907-4.625-4.907L19 13.43l3.594 5.781 6.656-4.887Z" fill="url(#Q)"/><path d="M29.25 14.324c-.1-3.55-2.781-4.907-4.625-4.907L19 13.43l3.594 5.781 6.656-4.887Z" fill="url(#R)"/></g><defs><radialGradient id="c" cx="0" cy="0" r="1" gradientUnits="userSpaceOnUse" gradientTransform="rotate(128.186 -.756 6.824) scale(1.76922 .46587)"><stop stop-color="#D4D2D7"/><stop offset="1" stop-color="#D4D2D7" stop-opacity="0"/></radialGradient><radialGradient id="e" cx="0" cy="0" r="1" gradientUnits="userSpaceOnUse" gradientTransform="matrix(.47656 -2.22656 1.23883 .26515 6.695 11.246)"><stop offset=".875" stop-color="#828184" stop-opacity="0"/><stop offset="1" stop-color="#8E8E8E"/></radialGradient><radialGradient id="f" cx="0" cy="0" r="1" gradientUnits="userSpaceOnUse" gradientTransform="rotate(133.939 6.634 15.206) scale(4.77379 2.85645)"><stop stop-color="#4D3D5B"/><stop offset="1" stop-color="#4D3D5B" stop-opacity="0"/></radialGradient><radialGradient id="n" cx="0" cy="0" r="1" gradientUnits="userSpaceOnUse" gradientTransform="rotate(64.231 -7.52 10.099) scale(5.03164 3.34398)"><stop stop-color="#6C6A6F"/><stop offset=".901" stop-color="#6C6A6F" stop-opacity="0"/></radialGradient><radialGradient id="o" cx="0" cy="0" r="1" gradientUnits="userSpaceOnUse" gradientTransform="matrix(4.25 3.75 -3.9017 4.42193 .781 13.293)"><stop stop-color="#6C6A6F"/><stop offset=".901" stop-color="#6C6A6F" stop-opacity="0"/></radialGradient><radialGradient id="p" cx="0" cy="0" r="1" gradientUnits="userSpaceOnUse" gradientTransform="matrix(5.53125 7.65625 -3.7635 2.71894 8.5 8.511)"><stop offset=".304" stop-color="#6C6A6F"/><stop offset="1" stop-color="#6C6A6F" stop-opacity="0"/></radialGradient><radialGradient id="q" cx="0" cy="0" r="1" gradientUnits="userSpaceOnUse" gradientTransform="matrix(5.3125 -2.09375 1.10228 2.79682 6.281 19.855)"><stop stop-color="#6C587F"/><stop offset=".847" stop-color="#6C587F" stop-opacity="0"/></radialGradient><radialGradient id="r" cx="0" cy="0" r="1" gradientUnits="userSpaceOnUse" gradientTransform="matrix(1.75 -6.75 2.7572 .71483 25.5 23.23)"><stop stop-color="#6C587F"/><stop offset=".847" stop-color="#6C587F" stop-opacity="0"/></radialGradient><radialGradient id="s" cx="0" cy="0" r="1" gradientUnits="userSpaceOnUse" gradientTransform="matrix(.72247 0 0 1.39063 3.281 17.418)"><stop stop-color="#67656A"/><stop offset=".714" stop-color="#4E4C50"/></radialGradient><radialGradient id="t" cx="0" cy="0" r="1" gradientUnits="userSpaceOnUse" gradientTransform="rotate(125.838 .075 9.018) scale(.69386 .61861)"><stop offset=".006" stop-color="#433437"/><stop offset="1" stop-color="#3B2838"/></radialGradient><radialGradient id="u" cx="0" cy="0" r="1" gradientUnits="userSpaceOnUse" gradientTransform="matrix(-.21875 .29688 -.25025 -.1844 7.445 14.293)"><stop stop-color="#5C5051"/><stop offset="1" stop-color="#5C5051" stop-opacity="0"/></radialGradient><radialGradient id="v" cx="0" cy="0" r="1" gradientUnits="userSpaceOnUse" gradientTransform="matrix(2.35938 .90625 -.51407 1.33835 7.75 20.668)"><stop stop-color="#615E63"/><stop offset=".901" stop-color="#615E63" stop-opacity="0"/></radialGradient><radialGradient id="w" cx="0" cy="0" r="1" gradientUnits="userSpaceOnUse" gradientTransform="matrix(-2.875 -1.65627 1.0206 -1.77158 11.703 25.011)"><stop offset=".078" stop-color="#805EA0"/><stop offset="1" stop-color="#6C587F" stop-opacity="0"/></radialGradient><radialGradient id="y" cx="0" cy="0" r="1" gradientUnits="userSpaceOnUse" gradientTransform="rotate(-149.689 9.413 9.985) scale(2.3529 1.94829)"><stop stop-color="#8F8898"/><stop offset="1" stop-color="#8F8898" stop-opacity="0"/></radialGradient><radialGradient id="G" cx="0" cy="0" r="1" gradientUnits="userSpaceOnUse" gradientTransform="matrix(.57107 6.3139 -3.8602 .34914 16.39 8.973)"><stop stop-color="#97939A"/><stop offset=".814" stop-color="#8D8C8E" stop-opacity="0"/></radialGradient><radialGradient id="H" cx="0" cy="0" r="1" gradientUnits="userSpaceOnUse" gradientTransform="matrix(-.8892 8 -11.7731 -1.30858 17.42 14.98)"><stop offset=".777" stop-color="#6C587F" stop-opacity="0"/><stop offset="1" stop-color="#77509C"/></radialGradient><radialGradient id="I" cx="0" cy="0" r="1" gradientUnits="userSpaceOnUse" gradientTransform="rotate(-124.977 14.889 9.137) scale(10.0305 7.30086)"><stop stop-color="#6C587F"/><stop offset="1" stop-color="#6C587F" stop-opacity="0"/></radialGradient><radialGradient id="J" cx="0" cy="0" r="1" gradientUnits="userSpaceOnUse" gradientTransform="rotate(-126.459 12.774 8.146) scale(6.10016 2.73927)"><stop stop-color="#6C587F"/><stop offset=".676" stop-color="#6C587F" stop-opacity="0"/></radialGradient><radialGradient id="K" cx="0" cy="0" r="1" gradientUnits="userSpaceOnUse" gradientTransform="matrix(-2.18749 -10.31255 10.95633 -2.32404 18.344 26.98)"><stop stop-color="#6C587F"/><stop offset="1" stop-color="#6C587F" stop-opacity="0"/></radialGradient><radialGradient id="Q" cx="0" cy="0" r="1" gradientUnits="userSpaceOnUse" gradientTransform="rotate(139.254 12.01 11.035) scale(10.7245 6.40549)"><stop stop-color="#97939A"/><stop offset=".791" stop-color="#8D8C8E" stop-opacity="0"/></radialGradient><linearGradient id="a" x1="2.777" y1="15.121" x2="2.777" y2="12.73" gradientUnits="userSpaceOnUse"><stop stop-color="#88868A"/><stop offset="1" stop-color="#C6C2CB"/></linearGradient><linearGradient id="b" x1="4.188" y1="14.808" x2="3.563" y2="14.761" gradientUnits="userSpaceOnUse"><stop offset=".137" stop-color="#636165"/><stop offset="1" stop-color="#636165" stop-opacity="0"/></linearGradient><linearGradient id="d" x1="7.625" y1="11.31" x2="7.406" y2="9.292" gradientUnits="userSpaceOnUse"><stop stop-color="#6A696C"/><stop offset="1" stop-color="#7A777C"/></linearGradient><linearGradient id="g" x1="24.719" y1="24.761" x2="23.031" y2="24.996" gradientUnits="userSpaceOnUse"><stop stop-color="#4D3D5B"/><stop offset=".988" stop-color="#4D3D5B" stop-opacity="0"/></linearGradient><linearGradient id="h" x1="19.656" y1="24.636" x2="23.031" y2="24.996" gradientUnits="userSpaceOnUse"><stop stop-color="#4D3D5B"/><stop offset=".325" stop-color="#4D3D5B" stop-opacity="0"/></linearGradient><linearGradient id="i" x1="23.735" y1="27.136" x2="23.735" y2="26.064" gradientUnits="userSpaceOnUse"><stop stop-color="#715986"/><stop offset=".448" stop-color="#715986" stop-opacity="0"/></linearGradient><linearGradient id="j" x1="14.813" y1="22.386" x2="13.813" y2="25.418" gradientUnits="userSpaceOnUse"><stop stop-color="#4D3D5B"/><stop offset=".762" stop-color="#4D3D5B" stop-opacity="0"/></linearGradient><linearGradient id="k" x1="11.813" y1="24.761" x2="13.813" y2="25.418" gradientUnits="userSpaceOnUse"><stop stop-color="#4D3D5B"/><stop offset="1" stop-color="#4D3D5B" stop-opacity="0"/></linearGradient><linearGradient id="l" x1="12.796" y1="27.136" x2="12.796" y2="26.064" gradientUnits="userSpaceOnUse"><stop stop-color="#715986"/><stop offset=".448" stop-color="#715986" stop-opacity="0"/></linearGradient><linearGradient id="m" x1="25.176" y1="27.277" x2="25.176" y2="24.557" gradientUnits="userSpaceOnUse"><stop stop-color="#715986"/><stop offset=".241" stop-color="#715986" stop-opacity="0"/></linearGradient><linearGradient id="x" x1="8.641" y1="26.371" x2="8.641" y2="25.277" gradientUnits="userSpaceOnUse"><stop offset=".286" stop-color="#805EA0"/><stop offset=".757" stop-color="#6C587F" stop-opacity="0"/></linearGradient><linearGradient id="A" x1="14.827" y1="23.511" x2="15.311" y2="26.526" gradientUnits="userSpaceOnUse"><stop stop-color="#8A8392" stop-opacity="0"/><stop offset="1" stop-color="#8A8392"/></linearGradient><linearGradient id="C" x1="22.814" y1="23.511" x2="22.33" y2="26.526" gradientUnits="userSpaceOnUse"><stop stop-color="#8A8392" stop-opacity="0"/><stop offset="1" stop-color="#8A8392"/></linearGradient><linearGradient id="E" x1="28.617" y1="26.873" x2="28.617" y2="16.168" gradientUnits="userSpaceOnUse"><stop stop-color="#A19CA6"/><stop offset="1" stop-color="#A19CA6" stop-opacity="0"/></linearGradient><linearGradient id="L" x1="13.031" y1="22.636" x2="14.156" y2="22.105" gradientUnits="userSpaceOnUse"><stop stop-color="#807C84"/><stop offset="1" stop-color="#807C84" stop-opacity="0"/></linearGradient><linearGradient id="M" x1="24.75" y1="21.136" x2="24.094" y2="21.043" gradientUnits="userSpaceOnUse"><stop stop-color="#807C84"/><stop offset="1" stop-color="#807C84" stop-opacity="0"/></linearGradient><linearGradient id="O" x1="9.906" y1="25.011" x2="13.438" y2="18.418" gradientUnits="userSpaceOnUse"><stop stop-color="#A6A1AC"/><stop offset="1" stop-color="#A6A1AC" stop-opacity="0"/></linearGradient><linearGradient id="R" x1="30.594" y1="11.136" x2="26.813" y2="13.324" gradientUnits="userSpaceOnUse"><stop stop-color="#989798"/><stop offset="1" stop-color="#989798" stop-opacity="0"/></linearGradient><filter id="z" x="13.744" y="22.114" width="2.856" height="5.028" filterUnits="userSpaceOnUse" color-interpolation-filters="sRGB"><feFlood flood-opacity="0" result="BackgroundImageFix"/><feBlend in="SourceGraphic" in2="BackgroundImageFix" result="shape"/><feGaussianBlur stdDeviation=".3" result="effect1_foregroundBlur_28327_3546"/></filter><filter id="B" x="21.694" y="21.067" width="2.422" height="6.075" filterUnits="userSpaceOnUse" color-interpolation-filters="sRGB"><feFlood flood-opacity="0" result="BackgroundImageFix"/><feBlend in="SourceGraphic" in2="BackgroundImageFix" result="shape"/><feGaussianBlur stdDeviation=".3" result="effect1_foregroundBlur_28327_3546"/></filter><filter id="D" x="26.281" y="16.199" width="3.688" height="11.031" filterUnits="userSpaceOnUse" color-interpolation-filters="sRGB"><feFlood flood-opacity="0" result="BackgroundImageFix"/><feBlend in="SourceGraphic" in2="BackgroundImageFix" result="shape"/><feGaussianBlur stdDeviation=".5" result="effect1_foregroundBlur_28327_3546"/></filter><filter id="F" x="11.589" y="5.968" width="7.979" height="9.522" filterUnits="userSpaceOnUse" color-interpolation-filters="sRGB"><feFlood flood-opacity="0" result="BackgroundImageFix"/><feBlend in="SourceGraphic" in2="BackgroundImageFix" result="shape"/><feGaussianBlur stdDeviation=".5" result="effect1_foregroundBlur_28327_3546"/></filter><filter id="N" x="7.081" y="19.561" width="6.088" height="6.869" filterUnits="userSpaceOnUse" color-interpolation-filters="sRGB"><feFlood flood-opacity="0" result="BackgroundImageFix"/><feBlend in="SourceGraphic" in2="BackgroundImageFix" result="shape"/><feGaussianBlur stdDeviation=".6" result="effect1_foregroundBlur_28327_3546"/></filter><filter id="P" x="18" y="8.417" width="12.25" height="11.794" filterUnits="userSpaceOnUse" color-interpolation-filters="sRGB"><feFlood flood-opacity="0" result="BackgroundImageFix"/><feBlend in="SourceGraphic" in2="BackgroundImageFix" result="shape"/><feGaussianBlur stdDeviation=".5" result="effect1_foregroundBlur_28327_3546"/></filter></defs></svg>