<svg width="32" height="32" fill="none" xmlns="http://www.w3.org/2000/svg"><g filter="url(#a)"><path d="m8.757 22.719-.234 2.916a1 1 0 0 0 1.498.945l5.491-3.178a1 1 0 0 1 1 0l2.457 1.414a1 1 0 0 0 1.294-.26l1.831-2.4a1 1 0 0 1 .795-.394h3.055a1 1 0 0 0 1-1v-2.35a1 1 0 0 1 .323-.736l2.306-2.12a1 1 0 0 0-.019-1.49l-2.237-1.955a1 1 0 0 1-.341-.723l-.077-2.613a1 1 0 0 0-.987-.97l-2.98-.037a1 1 0 0 1-.754-.357l-1.942-2.315a1 1 0 0 0-1.25-.232l-2.54 1.404a1 1 0 0 1-.964.002L12.97 4.893a1 1 0 0 0-1.237.222l-1.99 2.301a1 1 0 0 1-.756.346H5.944a1 1 0 0 0-1 1v2.556a1 1 0 0 1-.33.742l-2.183 1.971a1 1 0 0 0 .004 1.488l2.176 1.945a1 1 0 0 1 .333.746v2.507a1 1 0 0 0 1.044 1l1.728-.077a1 1 0 0 1 1.041 1.079Z" fill="url(#b)"/><path d="m8.757 22.719-.234 2.916a1 1 0 0 0 1.498.945l5.491-3.178a1 1 0 0 1 1 0l2.457 1.414a1 1 0 0 0 1.294-.26l1.831-2.4a1 1 0 0 1 .795-.394h3.055a1 1 0 0 0 1-1v-2.35a1 1 0 0 1 .323-.736l2.306-2.12a1 1 0 0 0-.019-1.49l-2.237-1.955a1 1 0 0 1-.341-.723l-.077-2.613a1 1 0 0 0-.987-.97l-2.98-.037a1 1 0 0 1-.754-.357l-1.942-2.315a1 1 0 0 0-1.25-.232l-2.54 1.404a1 1 0 0 1-.964.002L12.97 4.893a1 1 0 0 0-1.237.222l-1.99 2.301a1 1 0 0 1-.756.346H5.944a1 1 0 0 0-1 1v2.556a1 1 0 0 1-.33.742l-2.183 1.971a1 1 0 0 0 .004 1.488l2.176 1.945a1 1 0 0 1 .333.746v2.507a1 1 0 0 0 1.044 1l1.728-.077a1 1 0 0 1 1.041 1.079Z" fill="url(#c)"/><path d="m8.757 22.719-.234 2.916a1 1 0 0 0 1.498.945l5.491-3.178a1 1 0 0 1 1 0l2.457 1.414a1 1 0 0 0 1.294-.26l1.831-2.4a1 1 0 0 1 .795-.394h3.055a1 1 0 0 0 1-1v-2.35a1 1 0 0 1 .323-.736l2.306-2.12a1 1 0 0 0-.019-1.49l-2.237-1.955a1 1 0 0 1-.341-.723l-.077-2.613a1 1 0 0 0-.987-.97l-2.98-.037a1 1 0 0 1-.754-.357l-1.942-2.315a1 1 0 0 0-1.25-.232l-2.54 1.404a1 1 0 0 1-.964.002L12.97 4.893a1 1 0 0 0-1.237.222l-1.99 2.301a1 1 0 0 1-.756.346H5.944a1 1 0 0 0-1 1v2.556a1 1 0 0 1-.33.742l-2.183 1.971a1 1 0 0 0 .004 1.488l2.176 1.945a1 1 0 0 1 .333.746v2.507a1 1 0 0 0 1.044 1l1.728-.077a1 1 0 0 1 1.041 1.079Z" fill="url(#d)"/><path d="m8.757 22.719-.234 2.916a1 1 0 0 0 1.498.945l5.491-3.178a1 1 0 0 1 1 0l2.457 1.414a1 1 0 0 0 1.294-.26l1.831-2.4a1 1 0 0 1 .795-.394h3.055a1 1 0 0 0 1-1v-2.35a1 1 0 0 1 .323-.736l2.306-2.12a1 1 0 0 0-.019-1.49l-2.237-1.955a1 1 0 0 1-.341-.723l-.077-2.613a1 1 0 0 0-.987-.97l-2.98-.037a1 1 0 0 1-.754-.357l-1.942-2.315a1 1 0 0 0-1.25-.232l-2.54 1.404a1 1 0 0 1-.964.002L12.97 4.893a1 1 0 0 0-1.237.222l-1.99 2.301a1 1 0 0 1-.756.346H5.944a1 1 0 0 0-1 1v2.556a1 1 0 0 1-.33.742l-2.183 1.971a1 1 0 0 0 .004 1.488l2.176 1.945a1 1 0 0 1 .333.746v2.507a1 1 0 0 0 1.044 1l1.728-.077a1 1 0 0 1 1.041 1.079Z" fill="url(#e)"/><path d="m8.757 22.719-.234 2.916a1 1 0 0 0 1.498.945l5.491-3.178a1 1 0 0 1 1 0l2.457 1.414a1 1 0 0 0 1.294-.26l1.831-2.4a1 1 0 0 1 .795-.394h3.055a1 1 0 0 0 1-1v-2.35a1 1 0 0 1 .323-.736l2.306-2.12a1 1 0 0 0-.019-1.49l-2.237-1.955a1 1 0 0 1-.341-.723l-.077-2.613a1 1 0 0 0-.987-.97l-2.98-.037a1 1 0 0 1-.754-.357l-1.942-2.315a1 1 0 0 0-1.25-.232l-2.54 1.404a1 1 0 0 1-.964.002L12.97 4.893a1 1 0 0 0-1.237.222l-1.99 2.301a1 1 0 0 1-.756.346H5.944a1 1 0 0 0-1 1v2.556a1 1 0 0 1-.33.742l-2.183 1.971a1 1 0 0 0 .004 1.488l2.176 1.945a1 1 0 0 1 .333.746v2.507a1 1 0 0 0 1.044 1l1.728-.077a1 1 0 0 1 1.041 1.079Z" fill="url(#f)"/></g><g filter="url(#g)"><path d="m8.168 15.531-5.219-.437 2.719 2.344v2.656l2.5-4.563Z" fill="url(#h)"/></g><g filter="url(#i)"><path d="m12.605 18.5-6.718 2.531h3.75l-.188 4.157 3.156-6.688Z" fill="url(#j)"/></g><g filter="url(#k)"><path d="m17.137 19.188-6.438 6.515 5.625-3.172 3.25 1.875-2.437-5.218Z" fill="url(#l)"/></g><g filter="url(#m)"><path d="m21.543 17.656-.172 5.047 1.328-1.562h3.75l-4.906-3.485Z" fill="url(#n)"/></g><g filter="url(#o)"><path d="m25.7 15.625.234 2.438 3.437-2.829-3.672.391Z" fill="url(#p)"/></g><g filter="url(#q)"><path d="M11.074 21.188 9.2 18.75l-3.437 2.438h5.312Z" fill="url(#r)" fill-opacity=".3"/></g><g filter="url(#s)"><path d="M12.855 5.406V9.25l4.813-1.031-4.813-2.813Z" fill="url(#t)"/></g><g filter="url(#u)"><path d="m6.093 8.52 3.7 2.824 2.125-2.825H6.093Z" fill="url(#v)" fill-opacity=".75"/></g><defs><linearGradient id="e" x1="8.512" y1="15.375" x2=".754" y2="26.543" gradientUnits="userSpaceOnUse"><stop offset=".439" stop-color="#B6A8F2" stop-opacity="0"/><stop offset=".966" stop-color="#B6A8F2"/></linearGradient><linearGradient id="h" x1="8.537" y1="15.561" x2="5.087" y2="18.893" gradientUnits="userSpaceOnUse"><stop offset=".432" stop-color="#C5BDEA" stop-opacity="0"/><stop offset="1" stop-color="#C5BDEA"/></linearGradient><linearGradient id="j" x1="13.043" y1="19.125" x2="8.48" y2="23.031" gradientUnits="userSpaceOnUse"><stop offset=".411" stop-color="#C5BDEA" stop-opacity="0"/><stop offset="1" stop-color="#C5BDEA"/></linearGradient><linearGradient id="l" x1="17.637" y1="18.313" x2="16.168" y2="24.563" gradientUnits="userSpaceOnUse"><stop offset=".427" stop-color="#C5BDEA" stop-opacity="0"/><stop offset="1" stop-color="#C5BDEA"/></linearGradient><linearGradient id="n" x1="21.387" y1="16.906" x2="23.559" y2="21.625" gradientUnits="userSpaceOnUse"><stop offset=".26" stop-color="#C5BDEA" stop-opacity="0"/><stop offset="1" stop-color="#C5BDEA"/></linearGradient><linearGradient id="p" x1="24.543" y1="16.648" x2="29.371" y2="16.648" gradientUnits="userSpaceOnUse"><stop offset=".26" stop-color="#C5BDEA" stop-opacity="0"/><stop offset="1" stop-color="#C5BDEA"/></linearGradient><linearGradient id="r" x1="8.48" y1="16.938" x2="5.918" y2="20" gradientUnits="userSpaceOnUse"><stop offset=".26" stop-color="#A18FEE" stop-opacity="0"/><stop offset="1" stop-color="#A18FEE"/></linearGradient><linearGradient id="t" x1="13.418" y1="5.406" x2="14.527" y2="7.719" gradientUnits="userSpaceOnUse"><stop stop-color="#fff"/><stop offset="1" stop-color="#fff" stop-opacity="0"/></linearGradient><linearGradient id="v" x1="6.362" y1="8.735" x2="9.387" y2="9.844" gradientUnits="userSpaceOnUse"><stop stop-color="#fff"/><stop offset="1" stop-color="#fff" stop-opacity="0"/></linearGradient><filter id="a" x="2.102" y="4.739" width="27.895" height="22.078" filterUnits="userSpaceOnUse" color-interpolation-filters="sRGB"><feFlood flood-opacity="0" result="BackgroundImageFix"/><feBlend in="SourceGraphic" in2="BackgroundImageFix" result="shape"/><feColorMatrix in="SourceAlpha" values="0 0 0 0 0 0 0 0 0 0 0 0 0 0 0 0 0 0 127 0" result="hardAlpha"/><feOffset dx=".1" dy=".1"/><feGaussianBlur stdDeviation=".5"/><feComposite in2="hardAlpha" operator="arithmetic" k2="-1" k3="1"/><feColorMatrix values="0 0 0 0 0.758333 0 0 0 0 0.758333 0 0 0 0 0.758333 0 0 0 1 0"/><feBlend in2="shape" result="effect1_innerShadow_7163_6142"/></filter><filter id="g" x="1.449" y="13.594" width="8.219" height="8" filterUnits="userSpaceOnUse" color-interpolation-filters="sRGB"><feFlood flood-opacity="0" result="BackgroundImageFix"/><feBlend in="SourceGraphic" in2="BackgroundImageFix" result="shape"/><feGaussianBlur stdDeviation=".75" result="effect1_foregroundBlur_7163_6142"/></filter><filter id="i" x="4.387" y="17" width="9.719" height="9.688" filterUnits="userSpaceOnUse" color-interpolation-filters="sRGB"><feFlood flood-opacity="0" result="BackgroundImageFix"/><feBlend in="SourceGraphic" in2="BackgroundImageFix" result="shape"/><feGaussianBlur stdDeviation=".75" result="effect1_foregroundBlur_7163_6142"/></filter><filter id="k" x="9.199" y="17.688" width="11.875" height="9.516" filterUnits="userSpaceOnUse" color-interpolation-filters="sRGB"><feFlood flood-opacity="0" result="BackgroundImageFix"/><feBlend in="SourceGraphic" in2="BackgroundImageFix" result="shape"/><feGaussianBlur stdDeviation=".75" result="effect1_foregroundBlur_7163_6142"/></filter><filter id="m" x="19.871" y="16.156" width="8.078" height="8.047" filterUnits="userSpaceOnUse" color-interpolation-filters="sRGB"><feFlood flood-opacity="0" result="BackgroundImageFix"/><feBlend in="SourceGraphic" in2="BackgroundImageFix" result="shape"/><feGaussianBlur stdDeviation=".75" result="effect1_foregroundBlur_7163_6142"/></filter><filter id="o" x="24.199" y="13.734" width="6.672" height="5.828" filterUnits="userSpaceOnUse" color-interpolation-filters="sRGB"><feFlood flood-opacity="0" result="BackgroundImageFix"/><feBlend in="SourceGraphic" in2="BackgroundImageFix" result="shape"/><feGaussianBlur stdDeviation=".75" result="effect1_foregroundBlur_7163_6142"/></filter><filter id="q" x="4.762" y="17.75" width="7.313" height="4.438" filterUnits="userSpaceOnUse" color-interpolation-filters="sRGB"><feFlood flood-opacity="0" result="BackgroundImageFix"/><feBlend in="SourceGraphic" in2="BackgroundImageFix" result="shape"/><feGaussianBlur stdDeviation=".5" result="effect1_foregroundBlur_7163_6142"/></filter><filter id="s" x="11.855" y="4.406" width="6.813" height="5.844" filterUnits="userSpaceOnUse" color-interpolation-filters="sRGB"><feFlood flood-opacity="0" result="BackgroundImageFix"/><feBlend in="SourceGraphic" in2="BackgroundImageFix" result="shape"/><feGaussianBlur stdDeviation=".5" result="effect1_foregroundBlur_7163_6142"/></filter><filter id="u" x="5.093" y="7.519" width="7.825" height="4.824" filterUnits="userSpaceOnUse" color-interpolation-filters="sRGB"><feFlood flood-opacity="0" result="BackgroundImageFix"/><feBlend in="SourceGraphic" in2="BackgroundImageFix" result="shape"/><feGaussianBlur stdDeviation=".5" result="effect1_foregroundBlur_7163_6142"/></filter><radialGradient id="b" cx="0" cy="0" r="1" gradientUnits="userSpaceOnUse" gradientTransform="matrix(-3.56239 16.25 -29.65848 -6.50185 20.7 8.5)"><stop stop-color="#fff"/><stop offset="1" stop-color="#EAD3F8"/></radialGradient><radialGradient id="c" cx="0" cy="0" r="1" gradientUnits="userSpaceOnUse" gradientTransform="rotate(-164.808 12.248 11.661) scale(24.8043 47.1164)"><stop offset=".523" stop-color="#CECECE" stop-opacity="0"/><stop offset="1" stop-color="#CECECE"/></radialGradient><radialGradient id="d" cx="0" cy="0" r="1" gradientUnits="userSpaceOnUse" gradientTransform="matrix(-13.37506 -21.24993 26.2018 -16.49185 19.887 27.188)"><stop offset=".781" stop-color="#CECECE" stop-opacity="0"/><stop offset="1" stop-color="#CECECE"/></radialGradient><radialGradient id="f" cx="0" cy="0" r="1" gradientUnits="userSpaceOnUse" gradientTransform="matrix(-14.06239 27.87506 -63.16857 -31.86724 18.824 12.188)"><stop offset=".278" stop-color="#B6A8F2" stop-opacity="0"/><stop offset="1" stop-color="#B6A8F2"/></radialGradient></defs></svg>