<svg xmlns="http://www.w3.org/2000/svg" fill="none" viewBox="0 0 32 32"><g filter="url(#rightwards-hand_svg__a)"><path fill="#FFC040" d="M27.51 14.088a2.406 2.406 0 0 1 .135 4.81l-.945.026a2.406 2.406 0 0 1-1.4 4.393l-1.37-.026a2.406 2.406 0 0 1-1.736 4.16l-8.822-.336c-1.33-.005-3.695-.149-5.76-1.003-3.267-1.208-5.595-4.341-5.595-8.016 0-3.715 2.379-6.877 5.701-8.055 2.11-.888 4.284-2.361 5.206-2.986l.06-.041 2.82-2.099a2.536 2.536 0 0 1 3.054 4.05l-1.424 1.088 7.953-.343a2.385 2.385 0 0 1 1.378 4.399z"/><path fill="url(#rightwards-hand_svg__b)" d="M27.51 14.088a2.406 2.406 0 0 1 .135 4.81l-.945.026a2.406 2.406 0 0 1-1.4 4.393l-1.37-.026a2.406 2.406 0 0 1-1.736 4.16l-8.822-.336c-1.33-.005-3.695-.149-5.76-1.003-3.267-1.208-5.595-4.341-5.595-8.016 0-3.715 2.379-6.877 5.701-8.055 2.11-.888 4.284-2.361 5.206-2.986l.06-.041 2.82-2.099a2.536 2.536 0 0 1 3.054 4.05l-1.424 1.088 7.953-.343a2.385 2.385 0 0 1 1.378 4.399z"/></g><path fill="url(#rightwards-hand_svg__c)" d="M19.292 5.357q.03.038.06.079a2.536 2.536 0 0 1-.494 3.53l-1.419 1.084-4.512.161z"/><g filter="url(#rightwards-hand_svg__d)"><path fill="url(#rightwards-hand_svg__e)" d="M15.683 10.105h-3.1l4.822-3.76a.93.93 0 0 1 1.152 1.457z"/></g><path fill="url(#rightwards-hand_svg__f)" d="m17.453 10.04-2.78.118 1.72 4.125 10.377-.177a2.384 2.384 0 0 0-1.383-4.396l-7.953.343z"/><path fill="url(#rightwards-hand_svg__g)" d="m17.453 10.04-2.78.118 1.72 4.125 10.377-.177a2.384 2.384 0 0 0-1.383-4.396l-7.953.343z"/><path fill="url(#rightwards-hand_svg__h)" d="m17.453 10.04-2.78.118 1.72 4.125 10.377-.177a2.384 2.384 0 0 0-1.383-4.396l-7.953.343z"/><path fill="url(#rightwards-hand_svg__i)" d="m17.453 10.04-2.78.118 1.72 4.125 10.377-.177a2.384 2.384 0 0 0-1.383-4.396l-7.953.343z"/><path fill="url(#rightwards-hand_svg__j)" d="m17.453 10.04-2.78.118 1.72 4.125 10.377-.177a2.384 2.384 0 0 0-1.383-4.396l-7.953.343z"/><path fill="url(#rightwards-hand_svg__k)" d="m26.702 18.925-.002-.001.945-.027a2.406 2.406 0 0 0 .022-4.809l-.455.008-.447.013.008-.005-12.6.172v4.687z"/><path fill="url(#rightwards-hand_svg__l)" d="m26.702 18.925-.002-.001.945-.027a2.406 2.406 0 0 0 .022-4.809l-.455.008-.447.013.008-.005-12.6.172v4.687z"/><path fill="url(#rightwards-hand_svg__m)" d="m26.702 18.925-.002-.001.945-.027a2.406 2.406 0 0 0 .022-4.809l-.455.008-.447.013.008-.005-12.6.172v4.687z"/><g filter="url(#rightwards-hand_svg__n)"><path fill="url(#rightwards-hand_svg__o)" d="m26.079 11.953-10.905.174.219 1.75 10.72-.261a.831.831 0 0 0-.034-1.663"/></g><g filter="url(#rightwards-hand_svg__p)"><path fill="url(#rightwards-hand_svg__q)" d="M26.82 16.97c.302 0 .581-.06.81-.186.38-.209.856-.43 1.245-.24.311.154.486.51.33.82-.542 1.065-1.67 1.196-2.384 1.17H16.227a.77.77 0 0 1-.772-.773c0-.434.354-.782.788-.776 3.492.048 9.664-.014 10.578-.014"/></g><path fill="url(#rightwards-hand_svg__r)" d="m26.705 18.927-12.156-.019v4.188l9.383.196-.002-.001 1.37.025a2.406 2.406 0 0 0 1.405-4.39"/><path fill="url(#rightwards-hand_svg__s)" d="m26.705 18.927-12.156-.019v4.188l9.383.196-.002-.001 1.37.025a2.406 2.406 0 0 0 1.405-4.39"/><path fill="url(#rightwards-hand_svg__t)" d="m26.705 18.927-12.156-.019v4.188l9.383.196-.002-.001 1.37.025a2.406 2.406 0 0 0 1.405-4.39"/><g filter="url(#rightwards-hand_svg__u)"><path fill="url(#rightwards-hand_svg__v)" d="M26.549 21.896c0-.432-.35-.78-.782-.778-2.195.015-7.039.043-9.523.007a.776.776 0 0 0-.789.775c0 .427.346.773.772.773h9.545c.429 0 .777-.348.777-.777"/></g><path fill="url(#rightwards-hand_svg__w)" d="M27.51 14.088a2.406 2.406 0 0 1 .135 4.81l-.945.026a2.406 2.406 0 0 1-1.4 4.393l-1.37-.026a2.406 2.406 0 0 1-1.736 4.16l-8.822-.336c-1.33-.005-3.695-.149-5.76-1.003-3.267-1.208-5.595-4.341-5.595-8.016 0-3.715 2.379-6.877 5.701-8.055 2.11-.888 4.284-2.361 5.206-2.986l.06-.041 2.82-2.099a2.536 2.536 0 0 1 3.054 4.05l-1.424 1.088 7.953-.343a2.385 2.385 0 0 1 1.378 4.399z"/><path fill="url(#rightwards-hand_svg__x)" d="M27.51 14.088a2.406 2.406 0 0 1 .135 4.81l-.945.026a2.406 2.406 0 0 1-1.4 4.393l-1.37-.026a2.406 2.406 0 0 1-1.736 4.16l-8.822-.336c-1.33-.005-3.695-.149-5.76-1.003-3.267-1.208-5.595-4.341-5.595-8.016 0-3.715 2.379-6.877 5.701-8.055 2.11-.888 4.284-2.361 5.206-2.986l.06-.041 2.82-2.099a2.536 2.536 0 0 1 3.054 4.05l-1.424 1.088 7.953-.343a2.385 2.385 0 0 1 1.378 4.399z"/><path fill="url(#rightwards-hand_svg__y)" d="M27.51 14.088a2.406 2.406 0 0 1 .135 4.81l-.945.026a2.406 2.406 0 0 1-1.4 4.393l-1.37-.026a2.406 2.406 0 0 1-1.736 4.16l-8.822-.336c-1.33-.005-3.695-.149-5.76-1.003-3.267-1.208-5.595-4.341-5.595-8.016 0-3.715 2.379-6.877 5.701-8.055 2.11-.888 4.284-2.361 5.206-2.986l.06-.041 2.82-2.099a2.536 2.536 0 0 1 3.054 4.05l-1.424 1.088 7.953-.343a2.385 2.385 0 0 1 1.378 4.399z"/><path fill="url(#rightwards-hand_svg__z)" d="M27.51 14.088a2.406 2.406 0 0 1 .135 4.81l-.945.026a2.406 2.406 0 0 1-1.4 4.393l-1.37-.026a2.406 2.406 0 0 1-1.736 4.16l-8.822-.336c-1.33-.005-3.695-.149-5.76-1.003-3.267-1.208-5.595-4.341-5.595-8.016 0-3.715 2.379-6.877 5.701-8.055 2.11-.888 4.284-2.361 5.206-2.986l.06-.041 2.82-2.099a2.536 2.536 0 0 1 3.054 4.05l-1.424 1.088 7.953-.343a2.385 2.385 0 0 1 1.378 4.399z"/><path fill="url(#rightwards-hand_svg__A)" d="M27.51 14.088a2.406 2.406 0 0 1 .135 4.81l-.945.026a2.406 2.406 0 0 1-1.4 4.393l-1.37-.026a2.406 2.406 0 0 1-1.736 4.16l-8.822-.336c-1.33-.005-3.695-.149-5.76-1.003-3.267-1.208-5.595-4.341-5.595-8.016 0-3.715 2.379-6.877 5.701-8.055 2.11-.888 4.284-2.361 5.206-2.986l.06-.041 2.82-2.099a2.536 2.536 0 0 1 3.054 4.05l-1.424 1.088 7.953-.343a2.385 2.385 0 0 1 1.378 4.399z"/><g filter="url(#rightwards-hand_svg__B)"><path fill="url(#rightwards-hand_svg__C)" d="M11.986 26.672c-3.648-.17-6.402-1.908-7.568-3.71l19.827 1.881c0 2.015-1.511 2.252-2.452 2.227-1.961-.053-6.16-.228-9.807-.398"/></g><path fill="url(#rightwards-hand_svg__D)" d="m23.94 23.3-8.548-.267-.343 4.156 7.145.262a2.406 2.406 0 0 0 1.747-4.15"/><path fill="url(#rightwards-hand_svg__E)" d="m23.94 23.3-8.548-.267-.343 4.156 7.145.262a2.406 2.406 0 0 0 1.747-4.15"/><path fill="url(#rightwards-hand_svg__F)" d="m23.94 23.3-8.548-.267-.343 4.156 7.145.262a2.406 2.406 0 0 0 1.747-4.15"/><g filter="url(#rightwards-hand_svg__G)"><path fill="url(#rightwards-hand_svg__H)" d="M23.483 26.133a.673.673 0 0 0-.664-.688c-2.142-.026-7.103-.091-9.627-.17-.433-.013-.794.283-.8.66-.007.37.333.676.76.684l9.644.177c.373.007.68-.29.687-.663"/></g><defs><linearGradient id="rightwards-hand_svg__e" x1="18.414" x2="11.624" y1="6.898" y2="11.207" gradientUnits="userSpaceOnUse"><stop stop-color="#FFC737"/><stop offset="1" stop-color="#FFC737" stop-opacity="0"/></linearGradient><linearGradient id="rightwards-hand_svg__f" x1="19.986" x2="20.111" y1="9.127" y2="11.783" gradientUnits="userSpaceOnUse"><stop stop-color="#E7942E"/><stop offset="1" stop-color="#E7942E" stop-opacity="0"/></linearGradient><linearGradient id="rightwards-hand_svg__g" x1="20.939" x2="20.924" y1="14.549" y2="13.565" gradientUnits="userSpaceOnUse"><stop stop-color="#E7942E"/><stop offset="1" stop-color="#E7942E" stop-opacity="0"/></linearGradient><linearGradient id="rightwards-hand_svg__i" x1="15.221" x2="17.221" y1="11.995" y2="11.377" gradientUnits="userSpaceOnUse"><stop offset=".236" stop-color="#FFC040"/><stop offset="1" stop-color="#FFC040" stop-opacity="0"/></linearGradient><linearGradient id="rightwards-hand_svg__k" x1="22.111" x2="22.164" y1="13.221" y2="16.299" gradientUnits="userSpaceOnUse"><stop stop-color="#E7942E"/><stop offset="1" stop-color="#E7942E" stop-opacity="0"/></linearGradient><linearGradient id="rightwards-hand_svg__l" x1="14.924" x2="17.855" y1="15.752" y2="15.957" gradientUnits="userSpaceOnUse"><stop stop-color="#FFC040"/><stop offset="1" stop-color="#FFC040" stop-opacity="0"/></linearGradient><linearGradient id="rightwards-hand_svg__o" x1="25.736" x2="22.505" y1="12.861" y2="17.831" gradientUnits="userSpaceOnUse"><stop stop-color="#FBC931"/><stop offset="1" stop-color="#FBC931" stop-opacity="0"/></linearGradient><linearGradient id="rightwards-hand_svg__q" x1="29.861" x2="23.698" y1="18.189" y2="26.82" gradientUnits="userSpaceOnUse"><stop stop-color="#FFE747"/><stop offset="1" stop-color="#FFE747" stop-opacity="0"/></linearGradient><linearGradient id="rightwards-hand_svg__r" x1="21.177" x2="21.229" y1="18.124" y2="20.908" gradientUnits="userSpaceOnUse"><stop stop-color="#E7942E"/><stop offset="1" stop-color="#E7942E" stop-opacity="0"/></linearGradient><linearGradient id="rightwards-hand_svg__s" x1="16.111" x2="18.85" y1="19.939" y2="20.469" gradientUnits="userSpaceOnUse"><stop stop-color="#FFC040"/><stop offset="1" stop-color="#FFC040" stop-opacity="0"/></linearGradient><linearGradient id="rightwards-hand_svg__v" x1="26.549" x2="12.986" y1="22.329" y2="22.329" gradientUnits="userSpaceOnUse"><stop stop-color="#FFE747"/><stop offset="1" stop-color="#FFE747" stop-opacity="0"/></linearGradient><linearGradient id="rightwards-hand_svg__w" x1="9.401" x2="9.401" y1="27.839" y2="22.484" gradientUnits="userSpaceOnUse"><stop stop-color="#FFCA40"/><stop offset="1" stop-color="#FFCA40" stop-opacity="0"/></linearGradient><linearGradient id="rightwards-hand_svg__C" x1="15.869" x2="15.975" y1="27.68" y2="24.711" gradientUnits="userSpaceOnUse"><stop stop-color="#FFE747"/><stop offset="1" stop-color="#FFE747" stop-opacity="0"/></linearGradient><linearGradient id="rightwards-hand_svg__D" x1="19.391" x2="19.145" y1="22.21" y2="24.537" gradientUnits="userSpaceOnUse"><stop stop-color="#F1A71C"/><stop offset="1" stop-color="#F1A71C" stop-opacity="0"/></linearGradient><linearGradient id="rightwards-hand_svg__E" x1="15.049" x2="16.634" y1="23.439" y2="24.38" gradientUnits="userSpaceOnUse"><stop stop-color="#FFC642"/><stop offset="1" stop-color="#FFC642" stop-opacity="0"/></linearGradient><linearGradient id="rightwards-hand_svg__H" x1="23.477" x2="9.916" y1="26.51" y2="26.261" gradientUnits="userSpaceOnUse"><stop stop-color="#FFE747"/><stop offset="1" stop-color="#FFE747" stop-opacity="0"/></linearGradient><radialGradient id="rightwards-hand_svg__b" cx="0" cy="0" r="1" gradientTransform="matrix(2.625 5.125 -18.39159 9.42008 4.924 9.97)" gradientUnits="userSpaceOnUse"><stop stop-color="#EF9833"/><stop offset="1" stop-color="#EF9833" stop-opacity="0"/></radialGradient><radialGradient id="rightwards-hand_svg__c" cx="0" cy="0" r="1" gradientTransform="matrix(-.7422 -1.1133 3.24362 -2.1624 16.611 10.609)" gradientUnits="userSpaceOnUse"><stop stop-color="#B46810"/><stop offset="1" stop-color="#B46810" stop-opacity="0"/></radialGradient><radialGradient id="rightwards-hand_svg__h" cx="0" cy="0" r="1" gradientTransform="rotate(-112.681 18.197 -1.718)scale(1.13462 1.78724)" gradientUnits="userSpaceOnUse"><stop stop-color="#9B5C19"/><stop offset="1" stop-color="#9B5C19" stop-opacity="0"/></radialGradient><radialGradient id="rightwards-hand_svg__j" cx="0" cy="0" r="1" gradientTransform="matrix(-1.68398 .97056 -2.27507 -3.94737 28.205 10.533)" gradientUnits="userSpaceOnUse"><stop stop-color="#D79D3A"/><stop offset="1" stop-color="#D79D3A" stop-opacity="0"/></radialGradient><radialGradient id="rightwards-hand_svg__m" cx="0" cy="0" r="1" gradientTransform="matrix(-1.62144 .87499 -1.31993 -2.44595 29.983 15.127)" gradientUnits="userSpaceOnUse"><stop stop-color="#D79D3A"/><stop offset="1" stop-color="#D79D3A" stop-opacity="0"/></radialGradient><radialGradient id="rightwards-hand_svg__t" cx="0" cy="0" r="1" gradientTransform="matrix(-1.354 .79135 -1.24433 -2.12908 27.75 19.848)" gradientUnits="userSpaceOnUse"><stop stop-color="#D79D3A"/><stop offset="1" stop-color="#D79D3A" stop-opacity="0"/></radialGradient><radialGradient id="rightwards-hand_svg__x" cx="0" cy="0" r="1" gradientTransform="matrix(2.2675 -.1875 .14684 1.77572 16 13.19)" gradientUnits="userSpaceOnUse"><stop stop-color="#FFCD3F"/><stop offset="1" stop-color="#FFCD3F" stop-opacity="0"/></radialGradient><radialGradient id="rightwards-hand_svg__y" cx="0" cy="0" r="1" gradientTransform="matrix(2.17374 -.09375 .08645 2.00449 16 17.908)" gradientUnits="userSpaceOnUse"><stop stop-color="#FFCD3F"/><stop offset="1" stop-color="#FFCD3F" stop-opacity="0"/></radialGradient><radialGradient id="rightwards-hand_svg__z" cx="0" cy="0" r="1" gradientTransform="rotate(-1.909 661.568 -462.268)scale(1.87604)" gradientUnits="userSpaceOnUse"><stop stop-color="#FFCD3F"/><stop offset="1" stop-color="#FFCD3F" stop-opacity="0"/></radialGradient><radialGradient id="rightwards-hand_svg__A" cx="0" cy="0" r="1" gradientTransform="rotate(-63.435 28.239 .103)scale(2.37582 3.13027)" gradientUnits="userSpaceOnUse"><stop stop-color="#FFCD3F"/><stop offset="1" stop-color="#FFCD3F" stop-opacity="0"/></radialGradient><radialGradient id="rightwards-hand_svg__F" cx="0" cy="0" r="1" gradientTransform="rotate(154.485 9.974 14.825)scale(1.95209 5.21489)" gradientUnits="userSpaceOnUse"><stop stop-color="#D79D3A"/><stop offset="1" stop-color="#D79D3A" stop-opacity="0"/></radialGradient><filter id="rightwards-hand_svg__a" width="28.215" height="24.039" x="2.017" y="3.413" color-interpolation-filters="sRGB" filterUnits="userSpaceOnUse"><feFlood flood-opacity="0" result="BackgroundImageFix"/><feBlend in="SourceGraphic" in2="BackgroundImageFix" result="shape"/><feColorMatrix in="SourceAlpha" result="hardAlpha" values="0 0 0 0 0 0 0 0 0 0 0 0 0 0 0 0 0 0 127 0"/><feOffset dx=".25" dy="-1"/><feGaussianBlur stdDeviation="1.25"/><feComposite in2="hardAlpha" k2="-1" k3="1" operator="arithmetic"/><feColorMatrix values="0 0 0 0 0.933333 0 0 0 0 0.4634 0 0 0 0 0.315 0 0 0 1 0"/><feBlend in2="shape" result="effect1_innerShadow_20020_6449"/></filter><filter id="rightwards-hand_svg__d" width="7.823" height="5.458" x="11.832" y="5.398" color-interpolation-filters="sRGB" filterUnits="userSpaceOnUse"><feFlood flood-opacity="0" result="BackgroundImageFix"/><feBlend in="SourceGraphic" in2="BackgroundImageFix" result="shape"/><feGaussianBlur result="effect1_foregroundBlur_20020_6449" stdDeviation=".375"/></filter><filter id="rightwards-hand_svg__n" width="13.25" height="3.424" x="14.424" y="11.203" color-interpolation-filters="sRGB" filterUnits="userSpaceOnUse"><feFlood flood-opacity="0" result="BackgroundImageFix"/><feBlend in="SourceGraphic" in2="BackgroundImageFix" result="shape"/><feGaussianBlur result="effect1_foregroundBlur_20020_6449" stdDeviation=".375"/></filter><filter id="rightwards-hand_svg__p" width="15.808" height="4.064" x="14.455" y="15.472" color-interpolation-filters="sRGB" filterUnits="userSpaceOnUse"><feFlood flood-opacity="0" result="BackgroundImageFix"/><feBlend in="SourceGraphic" in2="BackgroundImageFix" result="shape"/><feGaussianBlur result="effect1_foregroundBlur_20020_6449" stdDeviation=".5"/></filter><filter id="rightwards-hand_svg__u" width="13.094" height="3.555" x="14.455" y="20.118" color-interpolation-filters="sRGB" filterUnits="userSpaceOnUse"><feFlood flood-opacity="0" result="BackgroundImageFix"/><feBlend in="SourceGraphic" in2="BackgroundImageFix" result="shape"/><feGaussianBlur result="effect1_foregroundBlur_20020_6449" stdDeviation=".5"/></filter><filter id="rightwards-hand_svg__B" width="21.827" height="6.11" x="3.418" y="21.961" color-interpolation-filters="sRGB" filterUnits="userSpaceOnUse"><feFlood flood-opacity="0" result="BackgroundImageFix"/><feBlend in="SourceGraphic" in2="BackgroundImageFix" result="shape"/><feGaussianBlur result="effect1_foregroundBlur_20020_6449" stdDeviation=".5"/></filter><filter id="rightwards-hand_svg__G" width="13.092" height="3.521" x="11.391" y="24.275" color-interpolation-filters="sRGB" filterUnits="userSpaceOnUse"><feFlood flood-opacity="0" result="BackgroundImageFix"/><feBlend in="SourceGraphic" in2="BackgroundImageFix" result="shape"/><feGaussianBlur result="effect1_foregroundBlur_20020_6449" stdDeviation=".5"/></filter></defs></svg>