<svg width="32" height="32" fill="none" xmlns="http://www.w3.org/2000/svg"><g filter="url(#a)"><path d="M12.246 2.282c-3.656.32-5.094 2.594-5.578 3.68l-.656 2.352 17.297-1V16l2.78 7.531h1.923c-.25-3.375 0-9.125 0-12.656-.063-3.047-.209-5.567-3.149-7.492C21.56 1.22 13.34 2.142 12.246 2.282Z" fill="url(#b)"/><path d="M12.246 2.282c-3.656.32-5.094 2.594-5.578 3.68l-.656 2.352 17.297-1V16l2.78 7.531h1.923c-.25-3.375 0-9.125 0-12.656-.063-3.047-.209-5.567-3.149-7.492C21.56 1.22 13.34 2.142 12.246 2.282Z" fill="url(#c)"/></g><g filter="url(#d)"><circle cx="27.016" cy="24.782" r="2.137" fill="url(#e)"/></g><circle cx="27.016" cy="24.782" r="2.137" fill="url(#f)"/><g filter="url(#g)"><circle cx="5.98" cy="15.97" r="3.133" fill="url(#h)"/></g><circle cx="23.744" cy="15.974" r="3.133" fill="url(#i)"/><circle cx="23.744" cy="15.974" r="3.133" fill="url(#j)"/><g filter="url(#k)"><circle cx="5.98" cy="15.97" r="2.086" fill="url(#l)"/></g><g filter="url(#m)"><circle cx="23.645" cy="15.974" r="2.221" fill="url(#n)"/></g><path d="M6.324 19.564c-.65-2.9-.396-8.646-.187-11.157h17.5c.156 1.813.375 6.438 0 10.438-.375 4-5.907 4.667-8.625 4.5-2.625-.052-8.038-.881-8.688-3.781Z" fill="url(#o)"/><path d="M6.324 19.564c-.65-2.9-.396-8.646-.187-11.157h17.5c.156 1.813.375 6.438 0 10.438-.375 4-5.907 4.667-8.625 4.5-2.625-.052-8.038-.881-8.688-3.781Z" fill="url(#p)"/><path d="M6.324 19.564c-.65-2.9-.396-8.646-.187-11.157h17.5c.156 1.813.375 6.438 0 10.438-.375 4-5.907 4.667-8.625 4.5-2.625-.052-8.038-.881-8.688-3.781Z" fill="url(#q)"/><path d="M6.324 19.564c-.65-2.9-.396-8.646-.187-11.157h17.5c.156 1.813.375 6.438 0 10.438-.375 4-5.907 4.667-8.625 4.5-2.625-.052-8.038-.881-8.688-3.781Z" fill="url(#r)"/><path d="M6.324 19.564c-.65-2.9-.396-8.646-.187-11.157h17.5c.156 1.813.375 6.438 0 10.438-.375 4-5.907 4.667-8.625 4.5-2.625-.052-8.038-.881-8.688-3.781Z" fill="url(#s)"/><g filter="url(#t)"><path fill-rule="evenodd" clip-rule="evenodd" d="M11.582 12.17c-1.378-.13-2.28.43-2.538.643a.875.875 0 1 1-1.112-1.35c.533-.44 1.88-1.219 3.814-1.036a.875.875 0 1 1-.164 1.742Z" fill="#69646E"/></g><g filter="url(#u)"><path fill-rule="evenodd" clip-rule="evenodd" d="M18.21 12.17c1.377-.13 2.28.43 2.537.643a.875.875 0 1 0 1.113-1.35c-.533-.44-1.88-1.219-3.814-1.036a.875.875 0 0 0 .164 1.742Z" fill="#8A7D99"/></g><path fill-rule="evenodd" clip-rule="evenodd" d="M12.299 17.113a.425.425 0 0 1-.013.601 3.297 3.297 0 0 1-2.341.923.425.425 0 1 1 .016-.85 2.448 2.448 0 0 0 1.737-.686.425.425 0 0 1 .6.012Z" fill="#241614"/><path fill-rule="evenodd" clip-rule="evenodd" d="M17.371 17.113a.425.425 0 0 0 .013.601 3.297 3.297 0 0 0 2.341.923.425.425 0 1 0-.017-.85 2.448 2.448 0 0 1-1.736-.686.425.425 0 0 0-.6.012Z" fill="#2E1D1A"/><path d="M6.809 9.072c-.125 1.64-.416 5.66-.141 9.46.272 3.768 5.503 3.67 8.15 3.14v-.015l.034.007.035-.007v.014c2.647.53 7.878.629 8.15-3.139.275-3.8-.015-7.82-.14-9.46l1.773-.743c0 2.055-.163 4.963-.238 6.11-.076 1.146-.254 4.71-.02 6.968.277 2.665.055 5.47-2.36 7.032-2.379 1.54-5.578 1.592-7.165 1.593h-.069c-1.587 0-4.786-.053-7.166-1.593-2.414-1.563-2.636-4.367-2.36-7.032.235-2.257.057-5.822-.019-6.968-.075-1.147-.238-4.055-.238-6.11l1.774.743Z" fill="url(#v)"/><path d="M6.809 9.072c-.125 1.64-.416 5.66-.141 9.46.272 3.768 5.503 3.67 8.15 3.14v-.015l.034.007.035-.007v.014c2.647.53 7.878.629 8.15-3.139.275-3.8-.015-7.82-.14-9.46l1.773-.743c0 2.055-.163 4.963-.238 6.11-.076 1.146-.254 4.71-.02 6.968.277 2.665.055 5.47-2.36 7.032-2.379 1.54-5.578 1.592-7.165 1.593h-.069c-1.587 0-4.786-.053-7.166-1.593-2.414-1.563-2.636-4.367-2.36-7.032.235-2.257.057-5.822-.019-6.968-.075-1.147-.238-4.055-.238-6.11l1.774.743Z" fill="url(#w)"/><path d="M6.809 9.072c-.125 1.64-.416 5.66-.141 9.46.272 3.768 5.503 3.67 8.15 3.14v-.015l.034.007.035-.007v.014c2.647.53 7.878.629 8.15-3.139.275-3.8-.015-7.82-.14-9.46l1.773-.743c0 2.055-.163 4.963-.238 6.11-.076 1.146-.254 4.71-.02 6.968.277 2.665.055 5.47-2.36 7.032-2.379 1.54-5.578 1.592-7.165 1.593h-.069c-1.587 0-4.786-.053-7.166-1.593-2.414-1.563-2.636-4.367-2.36-7.032.235-2.257.057-5.822-.019-6.968-.075-1.147-.238-4.055-.238-6.11l1.774.743Z" fill="url(#x)"/><path d="M6.809 9.072c-.125 1.64-.416 5.66-.141 9.46.272 3.768 5.503 3.67 8.15 3.14v-.015l.034.007.035-.007v.014c2.647.53 7.878.629 8.15-3.139.275-3.8-.015-7.82-.14-9.46l1.773-.743c0 2.055-.163 4.963-.238 6.11-.076 1.146-.254 4.71-.02 6.968.277 2.665.055 5.47-2.36 7.032-2.379 1.54-5.578 1.592-7.165 1.593h-.069c-1.587 0-4.786-.053-7.166-1.593-2.414-1.563-2.636-4.367-2.36-7.032.235-2.257.057-5.822-.019-6.968-.075-1.147-.238-4.055-.238-6.11l1.774.743Z" fill="url(#y)"/><path d="M6.809 9.072c-.125 1.64-.416 5.66-.141 9.46.272 3.768 5.503 3.67 8.15 3.14v-.015l.034.007.035-.007v.014c2.647.53 7.878.629 8.15-3.139.275-3.8-.015-7.82-.14-9.46l1.773-.743c0 2.055-.163 4.963-.238 6.11-.076 1.146-.254 4.71-.02 6.968.277 2.665.055 5.47-2.36 7.032-2.379 1.54-5.578 1.592-7.165 1.593h-.069c-1.587 0-4.786-.053-7.166-1.593-2.414-1.563-2.636-4.367-2.36-7.032.235-2.257.057-5.822-.019-6.968-.075-1.147-.238-4.055-.238-6.11l1.774.743Z" fill="url(#z)"/><path d="M6.809 9.072c-.125 1.64-.416 5.66-.141 9.46.272 3.768 5.503 3.67 8.15 3.14v-.015l.034.007.035-.007v.014c2.647.53 7.878.629 8.15-3.139.275-3.8-.015-7.82-.14-9.46l1.773-.743c0 2.055-.163 4.963-.238 6.11-.076 1.146-.254 4.71-.02 6.968.277 2.665.055 5.47-2.36 7.032-2.379 1.54-5.578 1.592-7.165 1.593h-.069c-1.587 0-4.786-.053-7.166-1.593-2.414-1.563-2.636-4.367-2.36-7.032.235-2.257.057-5.822-.019-6.968-.075-1.147-.238-4.055-.238-6.11l1.774.743Z" fill="url(#A)"/><path d="M6.809 9.072c-.125 1.64-.416 5.66-.141 9.46.272 3.768 5.503 3.67 8.15 3.14v-.015l.034.007.035-.007v.014c2.647.53 7.878.629 8.15-3.139.275-3.8-.015-7.82-.14-9.46l1.773-.743c0 2.055-.163 4.963-.238 6.11-.076 1.146-.254 4.71-.02 6.968.277 2.665.055 5.47-2.36 7.032-2.379 1.54-5.578 1.592-7.165 1.593h-.069c-1.587 0-4.786-.053-7.166-1.593-2.414-1.563-2.636-4.367-2.36-7.032.235-2.257.057-5.822-.019-6.968-.075-1.147-.238-4.055-.238-6.11l1.774.743Z" fill="url(#B)"/><path d="M6.809 9.072c-.125 1.64-.416 5.66-.141 9.46.272 3.768 5.503 3.67 8.15 3.14v-.015l.034.007.035-.007v.014c2.647.53 7.878.629 8.15-3.139.275-3.8-.015-7.82-.14-9.46l1.773-.743c0 2.055-.163 4.963-.238 6.11-.076 1.146-.254 4.71-.02 6.968.277 2.665.055 5.47-2.36 7.032-2.379 1.54-5.578 1.592-7.165 1.593h-.069c-1.587 0-4.786-.053-7.166-1.593-2.414-1.563-2.636-4.367-2.36-7.032.235-2.257.057-5.822-.019-6.968-.075-1.147-.238-4.055-.238-6.11l1.774.743Z" fill="url(#C)"/><path d="M6.809 9.072c-.125 1.64-.416 5.66-.141 9.46.272 3.768 5.503 3.67 8.15 3.14v-.015l.034.007.035-.007v.014c2.647.53 7.878.629 8.15-3.139.275-3.8-.015-7.82-.14-9.46l1.773-.743c0 2.055-.163 4.963-.238 6.11-.076 1.146-.254 4.71-.02 6.968.277 2.665.055 5.47-2.36 7.032-2.379 1.54-5.578 1.592-7.165 1.593h-.069c-1.587 0-4.786-.053-7.166-1.593-2.414-1.563-2.636-4.367-2.36-7.032.235-2.257.057-5.822-.019-6.968-.075-1.147-.238-4.055-.238-6.11l1.774.743Z" fill="url(#D)"/><g filter="url(#E)"><path d="M9.897 9.786a.554.554 0 0 0-.553 0 1.624 1.624 0 1 1 0-2.805.554.554 0 0 0 .553 0 1.617 1.617 0 0 1 1.546-.05c.36.18.892.18 1.251 0a1.618 1.618 0 0 1 1.427-.013c.392.188 1.026.188 1.419 0a1.618 1.618 0 0 1 1.424.011c.364.182.911.182 1.276 0a1.617 1.617 0 0 1 1.569.067.564.564 0 0 0 .577 0 1.624 1.624 0 1 1 0 2.775.564.564 0 0 0-.578 0 1.617 1.617 0 0 1-1.568.068 1.562 1.562 0 0 0-1.276 0 1.618 1.618 0 0 1-1.424.011c-.393-.188-1.027-.188-1.42 0a1.618 1.618 0 0 1-1.426-.012c-.36-.18-.891-.18-1.25 0a1.618 1.618 0 0 1-1.547-.052Z" fill="#2E1A1F"/></g><g filter="url(#F)"><path d="M8.255 9.249a.737.737 0 0 0-.736 0 2.16 2.16 0 1 1 0-3.73.737.737 0 0 0 .736 0 2.15 2.15 0 0 1 1.09-.295c.348 0 .675.082.966.227.478.239 1.185.239 1.663 0 .29-.145.618-.227.966-.227.333 0 .649.075.93.21.523.25 1.366.25 1.888 0 .282-.135.598-.21.931-.21.346 0 .673.081.963.225.484.242 1.212.242 1.696 0 .29-.144.617-.225.963-.225.411 0 .796.115 1.123.315a.75.75 0 0 0 .768 0 2.16 2.16 0 1 1 0 3.69.75.75 0 0 0-.768 0 2.15 2.15 0 0 1-1.123.315c-.346 0-.673-.081-.963-.225-.484-.242-1.212-.242-1.696 0-.29.144-.617.225-.963.225-.333 0-.649-.075-.931-.21-.522-.25-1.365-.25-1.887 0-.282.135-.598.21-.931.21-.348 0-.675-.082-.966-.227-.478-.239-1.185-.239-1.663 0-.29.145-.618.227-.965.227a2.15 2.15 0 0 1-1.091-.295Z" fill="#CDCCCD"/></g><path d="M8.255 9.249a.737.737 0 0 0-.736 0 2.16 2.16 0 1 1 0-3.73.737.737 0 0 0 .736 0 2.15 2.15 0 0 1 1.09-.295c.348 0 .675.082.966.227.478.239 1.185.239 1.663 0 .29-.145.618-.227.966-.227.333 0 .649.075.93.21.523.25 1.366.25 1.888 0 .282-.135.598-.21.931-.21.346 0 .673.081.963.225.484.242 1.212.242 1.696 0 .29-.144.617-.225.963-.225.411 0 .796.115 1.123.315a.75.75 0 0 0 .768 0 2.16 2.16 0 1 1 0 3.69.75.75 0 0 0-.768 0 2.15 2.15 0 0 1-1.123.315c-.346 0-.673-.081-.963-.225-.484-.242-1.212-.242-1.696 0-.29.144-.617.225-.963.225-.333 0-.649-.075-.931-.21-.522-.25-1.365-.25-1.887 0-.282.135-.598.21-.931.21-.348 0-.675-.082-.966-.227-.478-.239-1.185-.239-1.663 0-.29.145-.618.227-.965.227a2.15 2.15 0 0 1-1.091-.295Z" fill="url(#G)"/><path d="M8.255 9.249a.737.737 0 0 0-.736 0 2.16 2.16 0 1 1 0-3.73.737.737 0 0 0 .736 0 2.15 2.15 0 0 1 1.09-.295c.348 0 .675.082.966.227.478.239 1.185.239 1.663 0 .29-.145.618-.227.966-.227.333 0 .649.075.93.21.523.25 1.366.25 1.888 0 .282-.135.598-.21.931-.21.346 0 .673.081.963.225.484.242 1.212.242 1.696 0 .29-.144.617-.225.963-.225.411 0 .796.115 1.123.315a.75.75 0 0 0 .768 0 2.16 2.16 0 1 1 0 3.69.75.75 0 0 0-.768 0 2.15 2.15 0 0 1-1.123.315c-.346 0-.673-.081-.963-.225-.484-.242-1.212-.242-1.696 0-.29.144-.617.225-.963.225-.333 0-.649-.075-.931-.21-.522-.25-1.365-.25-1.887 0-.282.135-.598.21-.931.21-.348 0-.675-.082-.966-.227-.478-.239-1.185-.239-1.663 0-.29.145-.618.227-.965.227a2.15 2.15 0 0 1-1.091-.295Z" fill="url(#H)"/><path d="M8.255 9.249a.737.737 0 0 0-.736 0 2.16 2.16 0 1 1 0-3.73.737.737 0 0 0 .736 0 2.15 2.15 0 0 1 1.09-.295c.348 0 .675.082.966.227.478.239 1.185.239 1.663 0 .29-.145.618-.227.966-.227.333 0 .649.075.93.21.523.25 1.366.25 1.888 0 .282-.135.598-.21.931-.21.346 0 .673.081.963.225.484.242 1.212.242 1.696 0 .29-.144.617-.225.963-.225.411 0 .796.115 1.123.315a.75.75 0 0 0 .768 0 2.16 2.16 0 1 1 0 3.69.75.75 0 0 0-.768 0 2.15 2.15 0 0 1-1.123.315c-.346 0-.673-.081-.963-.225-.484-.242-1.212-.242-1.696 0-.29.144-.617.225-.963.225-.333 0-.649-.075-.931-.21-.522-.25-1.365-.25-1.887 0-.282.135-.598.21-.931.21-.348 0-.675-.082-.966-.227-.478-.239-1.185-.239-1.663 0-.29.145-.618.227-.965.227a2.15 2.15 0 0 1-1.091-.295Z" fill="url(#I)"/><path d="m11.87 21.69.923-1.052h3.89l1.2.948c-.43.98-1.625 1.685-3.03 1.685-1.356 0-2.515-.655-2.983-1.58Z" fill="#E7E2EA"/><path d="m11.87 21.663.923-1.052h3.89l1.2.948c-.43.98-1.625 1.685-3.03 1.685-1.356 0-2.515-.655-2.983-1.581Z" fill="#290018"/><g filter="url(#J)"><path d="M13.235 19.678h3.235c1.094 0 1.883.719 2.313 1.11l.005.005.139.127c.184.17.309.284.433.373.09.065.275.117.358-.05a1.05 1.05 0 0 1 1.888.919c-.62 1.31-2.526 1.592-3.65.78a4.965 4.965 0 0 1-.582-.518c-.406-.402-.793-.786-1.438-.786H13.77c-.646 0-1.033.384-1.438.786-.182.18-.368.364-.582.519-1.125.81-3.03.528-3.651-.781a1.05 1.05 0 0 1 1.888-.919c.083.167.269.115.358.05.124-.09.249-.204.434-.373l.138-.127.005-.005c.43-.391 1.22-1.11 2.313-1.11Z" fill="url(#K)"/><path d="M13.235 19.678h3.235c1.094 0 1.883.719 2.313 1.11l.005.005.139.127c.184.17.309.284.433.373.09.065.275.117.358-.05a1.05 1.05 0 0 1 1.888.919c-.62 1.31-2.526 1.592-3.65.78a4.965 4.965 0 0 1-.582-.518c-.406-.402-.793-.786-1.438-.786H13.77c-.646 0-1.033.384-1.438.786-.182.18-.368.364-.582.519-1.125.81-3.03.528-3.651-.781a1.05 1.05 0 0 1 1.888-.919c.083.167.269.115.358.05.124-.09.249-.204.434-.373l.138-.127.005-.005c.43-.391 1.22-1.11 2.313-1.11Z" fill="url(#L)"/><path d="M13.235 19.678h3.235c1.094 0 1.883.719 2.313 1.11l.005.005.139.127c.184.17.309.284.433.373.09.065.275.117.358-.05a1.05 1.05 0 0 1 1.888.919c-.62 1.31-2.526 1.592-3.65.78a4.965 4.965 0 0 1-.582-.518c-.406-.402-.793-.786-1.438-.786H13.77c-.646 0-1.033.384-1.438.786-.182.18-.368.364-.582.519-1.125.81-3.03.528-3.651-.781a1.05 1.05 0 0 1 1.888-.919c.083.167.269.115.358.05.124-.09.249-.204.434-.373l.138-.127.005-.005c.43-.391 1.22-1.11 2.313-1.11Z" fill="url(#M)"/><path d="M13.235 19.678h3.235c1.094 0 1.883.719 2.313 1.11l.005.005.139.127c.184.17.309.284.433.373.09.065.275.117.358-.05a1.05 1.05 0 0 1 1.888.919c-.62 1.31-2.526 1.592-3.65.78a4.965 4.965 0 0 1-.582-.518c-.406-.402-.793-.786-1.438-.786H13.77c-.646 0-1.033.384-1.438.786-.182.18-.368.364-.582.519-1.125.81-3.03.528-3.651-.781a1.05 1.05 0 0 1 1.888-.919c.083.167.269.115.358.05.124-.09.249-.204.434-.373l.138-.127.005-.005c.43-.391 1.22-1.11 2.313-1.11Z" fill="url(#N)"/></g><path d="M13.235 19.678h3.235c1.094 0 1.883.719 2.313 1.11l.005.005.139.127c.184.17.309.284.433.373.09.065.275.117.358-.05a1.05 1.05 0 0 1 1.888.919c-.62 1.31-2.526 1.592-3.65.78a4.965 4.965 0 0 1-.582-.518c-.406-.402-.793-.786-1.438-.786H13.77c-.646 0-1.033.384-1.438.786-.182.18-.368.364-.582.519-1.125.81-3.03.528-3.651-.781a1.05 1.05 0 0 1 1.888-.919c.083.167.269.115.358.05.124-.09.249-.204.434-.373l.138-.127.005-.005c.43-.391 1.22-1.11 2.313-1.11Z" fill="url(#O)"/><path d="M13.235 19.678h3.235c1.094 0 1.883.719 2.313 1.11l.005.005.139.127c.184.17.309.284.433.373.09.065.275.117.358-.05a1.05 1.05 0 0 1 1.888.919c-.62 1.31-2.526 1.592-3.65.78a4.965 4.965 0 0 1-.582-.518c-.406-.402-.793-.786-1.438-.786H13.77c-.646 0-1.033.384-1.438.786-.182.18-.368.364-.582.519-1.125.81-3.03.528-3.651-.781a1.05 1.05 0 0 1 1.888-.919c.083.167.269.115.358.05.124-.09.249-.204.434-.373l.138-.127.005-.005c.43-.391 1.22-1.11 2.313-1.11Z" fill="url(#P)"/><g filter="url(#Q)"><path d="M14.871 14.439a.497.497 0 0 0-.472.341l-1.137 3.456c-.063.177-.182.643-.032 1.03.186.48.688.623 1.625.626h.032c.936-.003 1.44-.146 1.625-.625.15-.388.03-.854-.032-1.031l-1.137-3.456a.497.497 0 0 0-.472-.341Z" fill="#49302F"/><path d="M14.871 14.439a.497.497 0 0 0-.472.341l-1.137 3.456c-.063.177-.182.643-.032 1.03.186.48.688.623 1.625.626h.032c.936-.003 1.44-.146 1.625-.625.15-.388.03-.854-.032-1.031l-1.137-3.456a.497.497 0 0 0-.472-.341Z" fill="url(#R)"/><path d="M14.871 14.439a.497.497 0 0 0-.472.341l-1.137 3.456c-.063.177-.182.643-.032 1.03.186.48.688.623 1.625.626h.032c.936-.003 1.44-.146 1.625-.625.15-.388.03-.854-.032-1.031l-1.137-3.456a.497.497 0 0 0-.472-.341Z" fill="url(#S)"/></g><g filter="url(#T)"><path d="M14.852 14.388a.537.537 0 0 0-.511.342l-1.234 3.455c-.068.177-.197.644-.034 1.031.2.48.746.622 1.762.625h.034c1.017-.003 1.562-.146 1.763-.625.163-.387.034-.854-.034-1.03l-1.234-3.456a.537.537 0 0 0-.512-.342Z" fill="url(#U)"/></g><path d="M19.279 13.525c1.219 0 2.249.723 2.529 1.859a.512.512 0 0 1-.5.636h-4.165a.43.43 0 0 1-.424-.508c.235-1.196 1.287-1.987 2.56-1.987ZM10.461 13.525c-1.212 0-2.285.734-2.564 1.863a.509.509 0 0 0 .497.632h4.19c.263 0 .474-.241.421-.504-.233-1.19-1.287-1.991-2.544-1.991Z" fill="#fff"/><path d="M18.892 13.915a1.666 1.666 0 0 1 1.606 2.105h-3.219a1.71 1.71 0 0 1-.06-.44c0-.916.75-1.665 1.673-1.665Z" fill="url(#V)"/><path d="M10.863 13.927a1.656 1.656 0 0 0-1.596 2.093h3.2c.037-.143.06-.287.06-.437a1.667 1.667 0 0 0-1.664-1.656Z" fill="url(#W)"/><path d="M17.939 15.58a.95.95 0 0 1 .954-.954.95.95 0 0 1 .954.955.94.94 0 0 1-.106.439h-1.689a.862.862 0 0 1-.113-.44ZM11.812 15.582a.944.944 0 0 0-.948-.948.944.944 0 0 0-.948.948c0 .159.037.309.105.437h1.678a.94.94 0 0 0 .113-.437Z" fill="#000"/><g filter="url(#X)"><path d="M18.77 14.267c.118.159-.13.352-.412.563-.282.21-.49.36-.61.2-.118-.158.014-.458.296-.668.282-.211.607-.254.725-.095Z" fill="#C7A7A3"/><path d="M18.77 14.267c.118.159-.13.352-.412.563-.282.21-.49.36-.61.2-.118-.158.014-.458.296-.668.282-.211.607-.254.725-.095Z" fill="url(#Y)"/></g><g filter="url(#Z)"><path d="M20.376 15.36a1.567 1.567 0 0 0-.432-.862l-.485.532.22.425.697-.094Z" fill="url(#aa)"/></g><g filter="url(#ab)"><path d="M12.375 15.387c0-.534-.435-.891-.552-.999l-.535.518.33.67.757-.189Z" fill="url(#ac)"/></g><g filter="url(#ad)" transform="rotate(-27.914 10.363 14.634)"><ellipse cx="10.363" cy="14.634" rx=".722" ry=".366" fill="#C7A7A3" fill-opacity=".9"/><ellipse cx="10.363" cy="14.634" rx=".722" ry=".366" fill="url(#ae)"/></g><g filter="url(#af)"><path d="M8.46 12.115c.382-.369 1.565-1.08 3.235-.978" stroke="url(#ag)" stroke-width=".4" stroke-linecap="round"/></g><g filter="url(#ah)"><path d="M18.184 11.001c.63-.083 2.162-.01 3.25.953" stroke="url(#ai)" stroke-width=".5" stroke-linecap="round"/></g><g filter="url(#aj)"><circle cx="6.465" cy="7.384" r="1.602" fill="url(#ak)"/></g><g filter="url(#al)"><ellipse cx="9.231" cy="7.384" rx="1.84" ry="1.891" fill="url(#am)"/></g><g filter="url(#an)"><ellipse cx="13.031" cy="7.384" rx="1.96" ry="1.8" fill="url(#ao)"/></g><g filter="url(#ap)"><ellipse cx="23.355" cy="7.384" rx="1.797" ry="1.602" fill="url(#aq)"/></g><g filter="url(#ar)"><ellipse cx="20.371" cy="7.384" rx="2.016" ry="1.797" fill="url(#as)"/></g><g filter="url(#at)"><ellipse cx="16.743" cy="7.384" rx="1.873" ry="1.759" fill="url(#au)"/></g><defs><radialGradient id="e" cx="0" cy="0" r="1" gradientUnits="userSpaceOnUse" gradientTransform="rotate(123.555 7.897 19.273) scale(3.6749 2.81742)"><stop stop-color="#F8EFF8"/><stop offset="1" stop-color="#CBBDCC"/></radialGradient><radialGradient id="f" cx="0" cy="0" r="1" gradientUnits="userSpaceOnUse" gradientTransform="matrix(-2.79688 1.78126 -1.89788 -2.98 29.152 23.595)"><stop offset=".231" stop-color="#fff"/><stop offset="1" stop-color="#EBDEE4" stop-opacity="0"/></radialGradient><radialGradient id="h" cx="0" cy="0" r="1" gradientUnits="userSpaceOnUse" gradientTransform="rotate(167.619 1.76 8.175) scale(2.62351 3.01544)"><stop offset=".62" stop-color="#3A2626"/><stop offset="1" stop-color="#351D28"/></radialGradient><radialGradient id="i" cx="0" cy="0" r="1" gradientUnits="userSpaceOnUse" gradientTransform="matrix(1.5 4.82422 -6.44806 2.0049 24.387 14.283)"><stop offset=".576" stop-color="#573C38"/><stop offset=".907" stop-color="#472A31"/></radialGradient><radialGradient id="j" cx="0" cy="0" r="1" gradientUnits="userSpaceOnUse" gradientTransform="matrix(2.125 -1.82812 1.40116 1.6287 24.116 15.856)"><stop offset=".789" stop-color="#634F4D"/><stop offset="1" stop-color="#634F4D" stop-opacity="0"/></radialGradient><radialGradient id="l" cx="0" cy="0" r="1" gradientUnits="userSpaceOnUse" gradientTransform="matrix(-1.51561 -2.50001 1.91885 -1.16329 6.152 16.657)"><stop offset=".58" stop-color="#342126"/><stop offset="1" stop-color="#372426"/></radialGradient><radialGradient id="n" cx="0" cy="0" r="1" gradientUnits="userSpaceOnUse" gradientTransform="matrix(1.4144 -1.86368 1.70568 1.29449 23.946 16.302)"><stop offset=".623" stop-color="#513839"/><stop offset="1" stop-color="#4B3135"/></radialGradient><radialGradient id="o" cx="0" cy="0" r="1" gradientUnits="userSpaceOnUse" gradientTransform="matrix(-7.43745 -9.12506 7.48052 -6.09705 20.387 20.314)"><stop offset=".388" stop-color="#543532"/><stop offset="1" stop-color="#41292C"/></radialGradient><radialGradient id="p" cx="0" cy="0" r="1" gradientUnits="userSpaceOnUse" gradientTransform="matrix(2.5625 16.09377 -3.4413 .54794 6.2 12.47)"><stop offset=".253" stop-color="#4E3B39"/><stop offset="1" stop-color="#3E2B2A" stop-opacity="0"/></radialGradient><radialGradient id="q" cx="0" cy="0" r="1" gradientUnits="userSpaceOnUse" gradientTransform="matrix(0 -2.8075 2.2772 0 11.2 13.84)"><stop offset=".306" stop-color="#341E23"/><stop offset="1" stop-color="#341E23" stop-opacity="0"/></radialGradient><radialGradient id="r" cx="0" cy="0" r="1" gradientUnits="userSpaceOnUse" gradientTransform="matrix(0 -2.02625 2.66699 0 19.48 13.809)"><stop offset=".352" stop-color="#422627"/><stop offset="1" stop-color="#422627" stop-opacity="0"/></radialGradient><radialGradient id="s" cx="0" cy="0" r="1" gradientUnits="userSpaceOnUse" gradientTransform="matrix(2.64062 -1.59375 1.26033 2.08819 17.507 10.262)"><stop stop-color="#504041"/><stop offset="1" stop-color="#504041" stop-opacity="0"/></radialGradient><radialGradient id="v" cx="0" cy="0" r="1" gradientUnits="userSpaceOnUse" gradientTransform="matrix(-12.00007 11.56246 -10.46048 -10.85639 23.887 16.814)"><stop offset=".268" stop-color="#ECEAEE"/><stop offset="1" stop-color="#CAC2D2"/></radialGradient><radialGradient id="w" cx="0" cy="0" r="1" gradientUnits="userSpaceOnUse" gradientTransform="rotate(176.86 8.6 10.463) scale(12.5501 32.3756)"><stop offset=".784" stop-color="#B1AFB3" stop-opacity="0"/><stop offset="1" stop-color="#B1AFB3"/></radialGradient><radialGradient id="x" cx="0" cy="0" r="1" gradientUnits="userSpaceOnUse" gradientTransform="matrix(0 15.6562 -17.2158 0 14.852 14.376)"><stop offset=".898" stop-color="#C1B5CD" stop-opacity="0"/><stop offset="1" stop-color="#9783AB"/></radialGradient><radialGradient id="y" cx="0" cy="0" r="1" gradientUnits="userSpaceOnUse" gradientTransform="rotate(91.647 -3.612 10.76) scale(5.69174 .80306)"><stop offset=".598" stop-color="#D5C8D1"/><stop offset="1" stop-color="#D5C8D1" stop-opacity="0"/></radialGradient><radialGradient id="z" cx="0" cy="0" r="1" gradientUnits="userSpaceOnUse" gradientTransform="rotate(87.81 6.564 16.179) scale(10.6328 .94398)"><stop offset=".365" stop-color="#BC9C89"/><stop offset="1" stop-color="#BC9C89" stop-opacity="0"/></radialGradient><radialGradient id="A" cx="0" cy="0" r="1" gradientUnits="userSpaceOnUse" gradientTransform="rotate(93.799 3.079 21.434) scale(7.98193 1.22443)"><stop offset=".551" stop-color="#E5DEDE"/><stop offset="1" stop-color="#E7E3E6" stop-opacity="0"/></radialGradient><radialGradient id="B" cx="0" cy="0" r="1" gradientUnits="userSpaceOnUse" gradientTransform="rotate(31.749 -29.738 42.82) scale(3.40312 2.63829)"><stop offset=".249" stop-color="#9C90AA"/><stop offset="1" stop-color="#C4BCCD" stop-opacity="0"/></radialGradient><radialGradient id="C" cx="0" cy="0" r="1" gradientUnits="userSpaceOnUse" gradientTransform="matrix(-3.1658 1.36131 -1.1976 -2.78508 9.4 22.078)"><stop offset=".311" stop-color="#A399AD"/><stop offset="1" stop-color="#B2AAB9" stop-opacity="0"/></radialGradient><radialGradient id="D" cx="0" cy="0" r="1" gradientUnits="userSpaceOnUse" gradientTransform="matrix(0 7.6929 -3.30064 0 14.852 23.154)"><stop stop-color="#CAC2D3"/><stop offset="1" stop-color="#DBD4E1" stop-opacity="0"/></radialGradient><radialGradient id="G" cx="0" cy="0" r="1" gradientUnits="userSpaceOnUse" gradientTransform="rotate(156.024 12.066 5.894) scale(3.4607 1.9527)"><stop offset=".291" stop-color="#fff"/><stop offset="1" stop-color="#fff" stop-opacity="0"/></radialGradient><radialGradient id="H" cx="0" cy="0" r="1" gradientUnits="userSpaceOnUse" gradientTransform="matrix(.65625 -2 4.24558 1.39308 6.043 9.907)"><stop stop-color="#A58FA6"/><stop offset="1" stop-color="#A58FA6" stop-opacity="0"/></radialGradient><radialGradient id="I" cx="0" cy="0" r="1" gradientUnits="userSpaceOnUse" gradientTransform="rotate(151.208 3.18 3.6) scale(2.06818 1.32908)"><stop stop-color="#E5E1E2"/><stop offset="1" stop-color="#E5E1E2" stop-opacity="0"/></radialGradient><radialGradient id="L" cx="0" cy="0" r="1" gradientUnits="userSpaceOnUse" gradientTransform="rotate(146.262 4.265 11.38) scale(6.87582 11.899)"><stop offset=".832" stop-color="#E4DFEA" stop-opacity="0"/><stop offset="1" stop-color="#BDB9C0"/></radialGradient><radialGradient id="M" cx="0" cy="0" r="1" gradientUnits="userSpaceOnUse" gradientTransform="matrix(.82428 .4278 -.38205 .73614 19.861 20.863)"><stop offset=".126" stop-color="#D4C5BD"/><stop offset="1" stop-color="#D4C5BD" stop-opacity="0"/></radialGradient><radialGradient id="N" cx="0" cy="0" r="1" gradientUnits="userSpaceOnUse" gradientTransform="matrix(0 1.04688 -2.69196 0 14.543 19.314)"><stop offset=".478" stop-color="#B78B81"/><stop offset="1" stop-color="#D5C5C2" stop-opacity="0"/></radialGradient><radialGradient id="O" cx="0" cy="0" r="1" gradientUnits="userSpaceOnUse" gradientTransform="matrix(-1 .73438 -.7444 -1.01363 21.574 21.064)"><stop stop-color="#FAF7FA"/><stop offset=".677" stop-color="#FAF7FA" stop-opacity="0"/></radialGradient><radialGradient id="P" cx="0" cy="0" r="1" gradientUnits="userSpaceOnUse" gradientTransform="rotate(118.511 -1.3 13.58) scale(.72015 .94161)"><stop offset=".227" stop-color="#F4E9E6"/><stop offset="1" stop-color="#F4E9E6" stop-opacity="0"/></radialGradient><radialGradient id="R" cx="0" cy="0" r="1" gradientUnits="userSpaceOnUse" gradientTransform="matrix(1.03125 6.09375 -.83899 .14198 15.71 15.652)"><stop offset=".137" stop-color="#624F4E"/><stop offset="1" stop-color="#624F4E" stop-opacity="0"/></radialGradient><radialGradient id="S" cx="0" cy="0" r="1" gradientUnits="userSpaceOnUse" gradientTransform="matrix(-.87024 0 0 -.5 15.741 18.84)"><stop stop-color="#675554"/><stop offset="1" stop-color="#675554" stop-opacity="0"/></radialGradient><radialGradient id="V" cx="0" cy="0" r="1" gradientUnits="userSpaceOnUse" gradientTransform="matrix(-1.85938 2.04688 -1.65328 -1.50184 19.757 14.543)"><stop offset=".706" stop-color="#7D574A"/><stop offset=".949" stop-color="#644843"/></radialGradient><radialGradient id="W" cx="0" cy="0" r="1" gradientUnits="userSpaceOnUse" gradientTransform="rotate(132.252 2.645 9.872) scale(2.74867 2.22012)"><stop offset=".706" stop-color="#7D574A"/><stop offset=".949" stop-color="#644843"/></radialGradient><radialGradient id="Y" cx="0" cy="0" r="1" gradientUnits="userSpaceOnUse" gradientTransform="rotate(-127.812 12.895 2.96) scale(.70572 .9716)"><stop offset=".766" stop-color="#FFE6E2" stop-opacity="0"/><stop offset=".966" stop-color="#FFE6E2"/></radialGradient><radialGradient id="ae" cx="0" cy="0" r="1" gradientUnits="userSpaceOnUse" gradientTransform="matrix(-.01434 -.91615 1.10125 -.01724 10.335 15.218)"><stop offset=".766" stop-color="#FFE6E2" stop-opacity="0"/><stop offset=".966" stop-color="#FFE6E2"/></radialGradient><radialGradient id="ak" cx="0" cy="0" r="1" gradientUnits="userSpaceOnUse" gradientTransform="matrix(-2.59013 0 0 -5.13281 7.453 7.384)"><stop offset=".279" stop-color="#CDC9D1"/><stop offset="1" stop-color="#A8A4AD"/></radialGradient><radialGradient id="am" cx="0" cy="0" r="1" gradientUnits="userSpaceOnUse" gradientTransform="matrix(-2.70655 0 0 -4.25781 10.367 7.384)"><stop offset=".326" stop-color="#E5E1E9"/><stop offset="1" stop-color="#A8A6AA"/></radialGradient><radialGradient id="ao" cx="0" cy="0" r="1" gradientUnits="userSpaceOnUse" gradientTransform="matrix(-2.88325 0 0 -4.05381 14.241 7.384)"><stop offset=".326" stop-color="#FEFCFF"/><stop offset=".911" stop-color="#BDBCBF"/></radialGradient><radialGradient id="aq" cx="0" cy="0" r="1" gradientUnits="userSpaceOnUse" gradientTransform="matrix(-2.64284 0 0 -3.60682 24.464 7.384)"><stop offset=".159" stop-color="#fff"/><stop offset="1" stop-color="#A8A4AD"/></radialGradient><radialGradient id="as" cx="0" cy="0" r="1" gradientUnits="userSpaceOnUse" gradientTransform="matrix(-2.96513 0 0 -4.04668 21.615 7.384)"><stop offset=".193" stop-color="#fff"/><stop offset=".699" stop-color="#E2E1E3"/></radialGradient><radialGradient id="au" cx="0" cy="0" r="1" gradientUnits="userSpaceOnUse" gradientTransform="matrix(-2.83795 0 0 -2.70327 17.982 7.384)"><stop offset=".202" stop-color="#fff"/><stop offset=".912" stop-color="#D4D3D5"/></radialGradient><filter id="a" x="5.512" y="1.468" width="23" height="22.065" filterUnits="userSpaceOnUse" color-interpolation-filters="sRGB"><feFlood flood-opacity="0" result="BackgroundImageFix"/><feBlend in="SourceGraphic" in2="BackgroundImageFix" result="shape"/><feColorMatrix in="SourceAlpha" values="0 0 0 0 0 0 0 0 0 0 0 0 0 0 0 0 0 0 127 0" result="hardAlpha"/><feOffset dx=".5" dy="-.5"/><feGaussianBlur stdDeviation=".5"/><feComposite in2="hardAlpha" operator="arithmetic" k2="-1" k3="1"/><feColorMatrix values="0 0 0 0 0.564706 0 0 0 0 0.0901961 0 0 0 0 0.270588 0 0 0 1 0"/><feBlend in2="shape" result="effect1_innerShadow_3987_24229"/><feColorMatrix in="SourceAlpha" values="0 0 0 0 0 0 0 0 0 0 0 0 0 0 0 0 0 0 127 0" result="hardAlpha"/><feOffset dx="-.5"/><feGaussianBlur stdDeviation=".75"/><feComposite in2="hardAlpha" operator="arithmetic" k2="-1" k3="1"/><feColorMatrix values="0 0 0 0 0.996078 0 0 0 0 0.384314 0 0 0 0 0.407843 0 0 0 1 0"/><feBlend in2="effect1_innerShadow_3987_24229" result="effect2_innerShadow_3987_24229"/></filter><filter id="d" x="24.879" y="22.446" width="4.573" height="4.473" filterUnits="userSpaceOnUse" color-interpolation-filters="sRGB"><feFlood flood-opacity="0" result="BackgroundImageFix"/><feBlend in="SourceGraphic" in2="BackgroundImageFix" result="shape"/><feColorMatrix in="SourceAlpha" values="0 0 0 0 0 0 0 0 0 0 0 0 0 0 0 0 0 0 127 0" result="hardAlpha"/><feOffset dx=".3" dy="-.2"/><feGaussianBlur stdDeviation=".625"/><feComposite in2="hardAlpha" operator="arithmetic" k2="-1" k3="1"/><feColorMatrix values="0 0 0 0 0.572549 0 0 0 0 0.47451 0 0 0 0 0.647059 0 0 0 1 0"/><feBlend in2="shape" result="effect1_innerShadow_3987_24229"/></filter><filter id="g" x="2.848" y="12.837" width="6.366" height="6.266" filterUnits="userSpaceOnUse" color-interpolation-filters="sRGB"><feFlood flood-opacity="0" result="BackgroundImageFix"/><feBlend in="SourceGraphic" in2="BackgroundImageFix" result="shape"/><feColorMatrix in="SourceAlpha" values="0 0 0 0 0 0 0 0 0 0 0 0 0 0 0 0 0 0 127 0" result="hardAlpha"/><feOffset dx=".1"/><feGaussianBlur stdDeviation=".1"/><feComposite in2="hardAlpha" operator="arithmetic" k2="-1" k3="1"/><feColorMatrix values="0 0 0 0 0.337255 0 0 0 0 0.262745 0 0 0 0 0.247059 0 0 0 1 0"/><feBlend in2="shape" result="effect1_innerShadow_3987_24229"/></filter><filter id="k" x="3.395" y="13.384" width="5.172" height="5.172" filterUnits="userSpaceOnUse" color-interpolation-filters="sRGB"><feFlood flood-opacity="0" result="BackgroundImageFix"/><feBlend in="SourceGraphic" in2="BackgroundImageFix" result="shape"/><feGaussianBlur stdDeviation=".25" result="effect1_foregroundBlur_3987_24229"/></filter><filter id="m" x="20.923" y="13.252" width="5.443" height="5.443" filterUnits="userSpaceOnUse" color-interpolation-filters="sRGB"><feFlood flood-opacity="0" result="BackgroundImageFix"/><feBlend in="SourceGraphic" in2="BackgroundImageFix" result="shape"/><feGaussianBlur stdDeviation=".25" result="effect1_foregroundBlur_3987_24229"/></filter><filter id="t" x="7.013" y="9.9" width="5.926" height="3.713" filterUnits="userSpaceOnUse" color-interpolation-filters="sRGB"><feFlood flood-opacity="0" result="BackgroundImageFix"/><feColorMatrix in="SourceAlpha" values="0 0 0 0 0 0 0 0 0 0 0 0 0 0 0 0 0 0 127 0" result="hardAlpha"/><feOffset dx="-.1" dy=".1"/><feGaussianBlur stdDeviation=".25"/><feComposite in2="hardAlpha" operator="out"/><feColorMatrix values="0 0 0 0 0.192157 0 0 0 0 0.113725 0 0 0 0 0.133333 0 0 0 1 0"/><feBlend in2="BackgroundImageFix" result="effect1_dropShadow_3987_24229"/><feBlend in="SourceGraphic" in2="effect1_dropShadow_3987_24229" result="shape"/><feColorMatrix in="SourceAlpha" values="0 0 0 0 0 0 0 0 0 0 0 0 0 0 0 0 0 0 127 0" result="hardAlpha"/><feOffset dy="-1"/><feGaussianBlur stdDeviation=".25"/><feComposite in2="hardAlpha" operator="arithmetic" k2="-1" k3="1"/><feColorMatrix values="0 0 0 0 0.466667 0 0 0 0 0.376471 0 0 0 0 0.54902 0 0 0 1 0"/><feBlend in2="shape" result="effect2_innerShadow_3987_24229"/><feColorMatrix in="SourceAlpha" values="0 0 0 0 0 0 0 0 0 0 0 0 0 0 0 0 0 0 127 0" result="hardAlpha"/><feOffset dx="-.2" dy=".2"/><feGaussianBlur stdDeviation=".25"/><feComposite in2="hardAlpha" operator="arithmetic" k2="-1" k3="1"/><feColorMatrix values="0 0 0 0 0.403922 0 0 0 0 0.376471 0 0 0 0 0.4 0 0 0 1 0"/><feBlend in2="effect2_innerShadow_3987_24229" result="effect3_innerShadow_3987_24229"/></filter><filter id="u" x="16.653" y="9.9" width="5.926" height="3.713" filterUnits="userSpaceOnUse" color-interpolation-filters="sRGB"><feFlood flood-opacity="0" result="BackgroundImageFix"/><feColorMatrix in="SourceAlpha" values="0 0 0 0 0 0 0 0 0 0 0 0 0 0 0 0 0 0 127 0" result="hardAlpha"/><feOffset dx="-.1" dy=".1"/><feGaussianBlur stdDeviation=".25"/><feComposite in2="hardAlpha" operator="out"/><feColorMatrix values="0 0 0 0 0.192157 0 0 0 0 0.113725 0 0 0 0 0.133333 0 0 0 1 0"/><feBlend in2="BackgroundImageFix" result="effect1_dropShadow_3987_24229"/><feBlend in="SourceGraphic" in2="effect1_dropShadow_3987_24229" result="shape"/><feColorMatrix in="SourceAlpha" values="0 0 0 0 0 0 0 0 0 0 0 0 0 0 0 0 0 0 127 0" result="hardAlpha"/><feOffset dy="-.5"/><feGaussianBlur stdDeviation=".375"/><feComposite in2="hardAlpha" operator="arithmetic" k2="-1" k3="1"/><feColorMatrix values="0 0 0 0 0.364706 0 0 0 0 0.266667 0 0 0 0 0.427451 0 0 0 1 0"/><feBlend in2="shape" result="effect2_innerShadow_3987_24229"/><feColorMatrix in="SourceAlpha" values="0 0 0 0 0 0 0 0 0 0 0 0 0 0 0 0 0 0 127 0" result="hardAlpha"/><feOffset dx=".25" dy=".1"/><feGaussianBlur stdDeviation=".25"/><feComposite in2="hardAlpha" operator="arithmetic" k2="-1" k3="1"/><feColorMatrix values="0 0 0 0 0.309804 0 0 0 0 0.278431 0 0 0 0 0.317647 0 0 0 1 0"/><feBlend in2="effect2_innerShadow_3987_24229" result="effect3_innerShadow_3987_24229"/></filter><filter id="E" x="5.899" y="5.76" width="17.957" height="5.249" filterUnits="userSpaceOnUse" color-interpolation-filters="sRGB"><feFlood flood-opacity="0" result="BackgroundImageFix"/><feBlend in="SourceGraphic" in2="BackgroundImageFix" result="shape"/><feGaussianBlur stdDeviation=".5" result="effect1_foregroundBlur_3987_24229"/></filter><filter id="F" x="4.268" y="4.724" width="21.719" height="5.32" filterUnits="userSpaceOnUse" color-interpolation-filters="sRGB"><feFlood flood-opacity="0" result="BackgroundImageFix"/><feBlend in="SourceGraphic" in2="BackgroundImageFix" result="shape"/><feColorMatrix in="SourceAlpha" values="0 0 0 0 0 0 0 0 0 0 0 0 0 0 0 0 0 0 127 0" result="hardAlpha"/><feOffset dy="-.5"/><feGaussianBlur stdDeviation=".5"/><feComposite in2="hardAlpha" operator="arithmetic" k2="-1" k3="1"/><feColorMatrix values="0 0 0 0 0.737255 0 0 0 0 0.615686 0 0 0 0 0.643137 0 0 0 1 0"/><feBlend in2="shape" result="effect1_innerShadow_3987_24229"/><feColorMatrix in="SourceAlpha" values="0 0 0 0 0 0 0 0 0 0 0 0 0 0 0 0 0 0 127 0" result="hardAlpha"/><feOffset dx=".5"/><feGaussianBlur stdDeviation=".75"/><feComposite in2="hardAlpha" operator="arithmetic" k2="-1" k3="1"/><feColorMatrix values="0 0 0 0 0.576471 0 0 0 0 0.564706 0 0 0 0 0.588235 0 0 0 1 0"/><feBlend in2="effect1_innerShadow_3987_24229" result="effect2_innerShadow_3987_24229"/><feColorMatrix in="SourceAlpha" values="0 0 0 0 0 0 0 0 0 0 0 0 0 0 0 0 0 0 127 0" result="hardAlpha"/><feOffset dy=".5"/><feGaussianBlur stdDeviation=".5"/><feComposite in2="hardAlpha" operator="arithmetic" k2="-1" k3="1"/><feColorMatrix values="0 0 0 0 0.839216 0 0 0 0 0.839216 0 0 0 0 0.839216 0 0 0 1 0"/><feBlend in2="effect2_innerShadow_3987_24229" result="effect3_innerShadow_3987_24229"/></filter><filter id="J" x="7.998" y="19.478" width="13.71" height="3.92" filterUnits="userSpaceOnUse" color-interpolation-filters="sRGB"><feFlood flood-opacity="0" result="BackgroundImageFix"/><feBlend in="SourceGraphic" in2="BackgroundImageFix" result="shape"/><feColorMatrix in="SourceAlpha" values="0 0 0 0 0 0 0 0 0 0 0 0 0 0 0 0 0 0 127 0" result="hardAlpha"/><feOffset dy="-.2"/><feGaussianBlur stdDeviation=".3"/><feComposite in2="hardAlpha" operator="arithmetic" k2="-1" k3="1"/><feColorMatrix values="0 0 0 0 0.639216 0 0 0 0 0.576471 0 0 0 0 0.701961 0 0 0 1 0"/><feBlend in2="shape" result="effect1_innerShadow_3987_24229"/></filter><filter id="Q" x="13.158" y="13.939" width="3.627" height="5.953" filterUnits="userSpaceOnUse" color-interpolation-filters="sRGB"><feFlood flood-opacity="0" result="BackgroundImageFix"/><feBlend in="SourceGraphic" in2="BackgroundImageFix" result="shape"/><feColorMatrix in="SourceAlpha" values="0 0 0 0 0 0 0 0 0 0 0 0 0 0 0 0 0 0 127 0" result="hardAlpha"/><feOffset dx=".2" dy="-.5"/><feGaussianBlur stdDeviation=".375"/><feComposite in2="hardAlpha" operator="arithmetic" k2="-1" k3="1"/><feColorMatrix values="0 0 0 0 0.239216 0 0 0 0 0.141176 0 0 0 0 0.168627 0 0 0 1 0"/><feBlend in2="shape" result="effect1_innerShadow_3987_24229"/></filter><filter id="T" x="12.894" y="14.288" width="3.917" height="5.653" filterUnits="userSpaceOnUse" color-interpolation-filters="sRGB"><feFlood flood-opacity="0" result="BackgroundImageFix"/><feBlend in="SourceGraphic" in2="BackgroundImageFix" result="shape"/><feGaussianBlur stdDeviation=".05" result="effect1_foregroundBlur_3987_24229"/></filter><filter id="X" x="17.605" y="14.071" width="1.295" height="1.126" filterUnits="userSpaceOnUse" color-interpolation-filters="sRGB"><feFlood flood-opacity="0" result="BackgroundImageFix"/><feBlend in="SourceGraphic" in2="BackgroundImageFix" result="shape"/><feGaussianBlur stdDeviation=".05" result="effect1_foregroundBlur_3987_24229"/></filter><filter id="Z" x="19.259" y="14.298" width="1.316" height="1.358" filterUnits="userSpaceOnUse" color-interpolation-filters="sRGB"><feFlood flood-opacity="0" result="BackgroundImageFix"/><feBlend in="SourceGraphic" in2="BackgroundImageFix" result="shape"/><feGaussianBlur stdDeviation=".1" result="effect1_foregroundBlur_3987_24229"/></filter><filter id="ab" x="11.088" y="14.188" width="1.487" height="1.587" filterUnits="userSpaceOnUse" color-interpolation-filters="sRGB"><feFlood flood-opacity="0" result="BackgroundImageFix"/><feBlend in="SourceGraphic" in2="BackgroundImageFix" result="shape"/><feGaussianBlur stdDeviation=".1" result="effect1_foregroundBlur_3987_24229"/></filter><filter id="ad" x="9.602" y="14.066" width="1.522" height="1.136" filterUnits="userSpaceOnUse" color-interpolation-filters="sRGB"><feFlood flood-opacity="0" result="BackgroundImageFix"/><feBlend in="SourceGraphic" in2="BackgroundImageFix" result="shape"/><feGaussianBlur stdDeviation=".05" result="effect1_foregroundBlur_3987_24229"/></filter><filter id="af" x="7.659" y="10.327" width="4.836" height="2.588" filterUnits="userSpaceOnUse" color-interpolation-filters="sRGB"><feFlood flood-opacity="0" result="BackgroundImageFix"/><feBlend in="SourceGraphic" in2="BackgroundImageFix" result="shape"/><feGaussianBlur stdDeviation=".3" result="effect1_foregroundBlur_3987_24229"/></filter><filter id="ah" x="17.434" y="10.226" width="4.75" height="2.479" filterUnits="userSpaceOnUse" color-interpolation-filters="sRGB"><feFlood flood-opacity="0" result="BackgroundImageFix"/><feBlend in="SourceGraphic" in2="BackgroundImageFix" result="shape"/><feGaussianBlur stdDeviation=".25" result="effect1_foregroundBlur_3987_24229"/></filter><filter id="aj" x="4.363" y="5.282" width="4.203" height="4.203" filterUnits="userSpaceOnUse" color-interpolation-filters="sRGB"><feFlood flood-opacity="0" result="BackgroundImageFix"/><feBlend in="SourceGraphic" in2="BackgroundImageFix" result="shape"/><feGaussianBlur stdDeviation=".25" result="effect1_foregroundBlur_3987_24229"/></filter><filter id="al" x="6.642" y="4.743" width="5.18" height="5.281" filterUnits="userSpaceOnUse" color-interpolation-filters="sRGB"><feFlood flood-opacity="0" result="BackgroundImageFix"/><feBlend in="SourceGraphic" in2="BackgroundImageFix" result="shape"/><feGaussianBlur stdDeviation=".375" result="effect1_foregroundBlur_3987_24229"/></filter><filter id="an" x="10.321" y="4.834" width="5.42" height="5.1" filterUnits="userSpaceOnUse" color-interpolation-filters="sRGB"><feFlood flood-opacity="0" result="BackgroundImageFix"/><feBlend in="SourceGraphic" in2="BackgroundImageFix" result="shape"/><feGaussianBlur stdDeviation=".375" result="effect1_foregroundBlur_3987_24229"/></filter><filter id="ap" x="20.809" y="5.032" width="5.093" height="4.703" filterUnits="userSpaceOnUse" color-interpolation-filters="sRGB"><feFlood flood-opacity="0" result="BackgroundImageFix"/><feBlend in="SourceGraphic" in2="BackgroundImageFix" result="shape"/><feGaussianBlur stdDeviation=".375" result="effect1_foregroundBlur_3987_24229"/></filter><filter id="ar" x="17.605" y="4.837" width="5.531" height="5.094" filterUnits="userSpaceOnUse" color-interpolation-filters="sRGB"><feFlood flood-opacity="0" result="BackgroundImageFix"/><feBlend in="SourceGraphic" in2="BackgroundImageFix" result="shape"/><feGaussianBlur stdDeviation=".375" result="effect1_foregroundBlur_3987_24229"/></filter><filter id="at" x="14.12" y="4.875" width="5.246" height="5.019" filterUnits="userSpaceOnUse" color-interpolation-filters="sRGB"><feFlood flood-opacity="0" result="BackgroundImageFix"/><feBlend in="SourceGraphic" in2="BackgroundImageFix" result="shape"/><feGaussianBlur stdDeviation=".375" result="effect1_foregroundBlur_3987_24229"/></filter><linearGradient id="b" x1="17.34" y1="1.968" x2="25.949" y2="24.814" gradientUnits="userSpaceOnUse"><stop stop-color="#FF414B"/><stop offset="1" stop-color="#E72D5F"/></linearGradient><linearGradient id="c" x1="16.512" y1="1.968" x2="16.512" y2="4.814" gradientUnits="userSpaceOnUse"><stop stop-color="#E15157"/><stop offset="1" stop-color="#FE404F" stop-opacity="0"/></linearGradient><linearGradient id="K" x1="19.911" y1="22.173" x2="11.047" y2="22.173" gradientUnits="userSpaceOnUse"><stop stop-color="#E8E3EB"/><stop offset="1" stop-color="#E2DDE8"/></linearGradient><linearGradient id="U" x1="14.852" y1="14.388" x2="14.852" y2="16.748" gradientUnits="userSpaceOnUse"><stop offset=".172" stop-color="#4B3030"/><stop offset="1" stop-color="#4B3030" stop-opacity="0"/></linearGradient><linearGradient id="aa" x1="20.34" y1="14.905" x2="19.755" y2="15.266" gradientUnits="userSpaceOnUse"><stop stop-color="#B4948D"/><stop offset="1" stop-color="#B4948D" stop-opacity="0"/></linearGradient><linearGradient id="ac" x1="12.246" y1="14.911" x2="11.665" y2="15.27" gradientUnits="userSpaceOnUse"><stop stop-color="#B4948D"/><stop offset="1" stop-color="#B4948D" stop-opacity="0"/></linearGradient><linearGradient id="ag" x1="11.686" y1="10.965" x2="8.459" y2="12.115" gradientUnits="userSpaceOnUse"><stop stop-color="#91889B"/><stop offset="1" stop-color="#857A91"/></linearGradient><linearGradient id="ai" x1="21.824" y1="11.954" x2="17.465" y2="10.892" gradientUnits="userSpaceOnUse"><stop stop-color="#A49FAA"/><stop offset="1" stop-color="#8A8391"/></linearGradient></defs></svg>