<svg width="32" height="32" fill="none" xmlns="http://www.w3.org/2000/svg"><g filter="url(#a)"><path d="m6.02 29.7 15.22-15.22-3.07-3.07L5.32 24.25a3.362 3.362 0 0 0 0 4.75l.7.7Z" fill="url(#b)"/><path d="m6.02 29.7 15.22-15.22-3.07-3.07L5.32 24.25a3.362 3.362 0 0 0 0 4.75l.7.7Z" fill="url(#c)"/></g><g filter="url(#d)"><path d="M15.791 13.652a.4.4 0 0 0-.002.568l2.81 2.809a.4.4 0 0 0 .568-.003l1.135-1.157a.42.42 0 0 1 .465-.086c4.037 1.714 8.813-1.994 8.813-6.223 0-3.6-2.9-6.52-6.5-6.52s-6.52 2.92-6.52 6.52c0 .897.162 1.707.491 2.47a.417.417 0 0 1-.084.464l-1.175 1.158Zm4.25-4.092c0-1.67 1.36-3.03 3.03-3.03 1.67 0 3.03 1.36 3.03 3.03 0 1.67-1.36 3.03-3.03 3.03-1.67 0-3.03-1.35-3.03-3.03Z" fill="url(#e)"/></g><g filter="url(#f)"><path d="M25.16 29.7 9.94 14.48l3-3.13 12.84 12.84c1.32 1.32 1.33 3.57.02 4.88l-.64.63Z" fill="url(#g)"/></g><g filter="url(#h)"><path d="M15.56 18.14a1.07 1.07 0 1 0 0-2.14 1.07 1.07 0 0 0 0 2.14Z" fill="#A79AAC"/><path d="M15.56 18.14a1.07 1.07 0 1 0 0-2.14 1.07 1.07 0 0 0 0 2.14Z" fill="url(#i)"/><path d="M15.56 18.14a1.07 1.07 0 1 0 0-2.14 1.07 1.07 0 0 0 0 2.14Z" fill="url(#j)"/><path d="M15.56 18.14a1.07 1.07 0 1 0 0-2.14 1.07 1.07 0 0 0 0 2.14Z" fill="url(#k)"/><path d="M15.56 18.14a1.07 1.07 0 1 0 0-2.14 1.07 1.07 0 0 0 0 2.14Z" fill="url(#l)"/></g><g filter="url(#m)"><path d="M14.387 12.37a.416.416 0 0 1-.088-.444C16.164 7.144 12.334 3.04 8.08 3.04c-3.6 0-6.5 2.92-6.5 6.52 0 3.6 2.9 6.52 6.5 6.52.896 0 1.543-.004 2.271-.3a.426.426 0 0 1 .461.084L12 17.036a.4.4 0 0 0 .563-.001l2.969-2.953a.4.4 0 0 0 0-.567l-1.144-1.144Zm-6.297.22c-1.67 0-3.03-1.36-3.03-3.03 0-1.67 1.36-3.03 3.03-3.03 1.67 0 3.03 1.36 3.03 3.03 0 1.68-1.36 3.03-3.03 3.03Z" fill="url(#n)"/></g><g filter="url(#o)" stroke-width=".75"><circle cx="9.008" cy="9.268" r="4.933" stroke="url(#p)"/><circle cx="9.008" cy="9.268" r="4.933" stroke="url(#q)"/></g><g filter="url(#r)" transform="rotate(-4.455 23.693 9.32)" stroke-width=".75"><circle cx="23.693" cy="9.321" r="4.982" stroke="url(#s)"/><circle cx="23.693" cy="9.321" r="4.982" stroke="url(#t)"/></g><g filter="url(#u)"><path d="M10.901 14.872c.498-.327 1.714-1.255 2.592-2.349" stroke="#FF683C" stroke-width=".75"/></g><g filter="url(#v)"><path d="M20.284 15.142c-.479-.355-1.639-1.351-2.453-2.493" stroke="url(#w)" stroke-width=".75"/></g><defs><linearGradient id="b" x1="8.643" y1="21.009" x2="11.924" y2="24.134" gradientUnits="userSpaceOnUse"><stop stop-color="#877697"/><stop offset="1" stop-color="#BDA7D4"/></linearGradient><linearGradient id="c" x1="14.908" y1="19.087" x2="14.315" y2="19.634" gradientUnits="userSpaceOnUse"><stop offset=".607" stop-color="#7C549C"/><stop offset="1" stop-color="#7C549C" stop-opacity="0"/></linearGradient><linearGradient id="e" x1="29.58" y1="10.177" x2="18.904" y2="10.177" gradientUnits="userSpaceOnUse"><stop stop-color="#FF7415"/><stop offset="1" stop-color="#F63178"/></linearGradient><linearGradient id="g" x1="18.088" y1="22.384" x2="20.923" y2="19.276" gradientUnits="userSpaceOnUse"><stop stop-color="#B59FCA"/><stop offset="1" stop-color="#879"/></linearGradient><linearGradient id="n" x1="15.815" y1="10.177" x2="5.018" y2="10.177" gradientUnits="userSpaceOnUse"><stop stop-color="#FF7415"/><stop offset="1" stop-color="#F63178"/></linearGradient><linearGradient id="p" x1="14.236" y1="5.856" x2="9.948" y2="8.899" gradientUnits="userSpaceOnUse"><stop stop-color="#FF8C72"/><stop offset="1" stop-color="#FF8C72" stop-opacity="0"/></linearGradient><linearGradient id="q" x1="4.075" y1="11.251" x2="6.398" y2="10.375" gradientUnits="userSpaceOnUse"><stop stop-color="#FF638F"/><stop offset="1" stop-color="#FF638F" stop-opacity="0"/></linearGradient><linearGradient id="s" x1="28.973" y1="5.875" x2="24.642" y2="8.948" gradientUnits="userSpaceOnUse"><stop stop-color="#FF8C72"/><stop offset="1" stop-color="#FF8C72" stop-opacity="0"/></linearGradient><linearGradient id="t" x1="18.711" y1="11.323" x2="21.057" y2="10.438" gradientUnits="userSpaceOnUse"><stop stop-color="#FF638F"/><stop offset="1" stop-color="#FF638F" stop-opacity="0"/></linearGradient><linearGradient id="w" x1="18.048" y1="12.661" x2="20.328" y2="17.076" gradientUnits="userSpaceOnUse"><stop stop-color="#DB236E"/><stop offset="1" stop-color="#DB236E" stop-opacity="0"/></linearGradient><filter id="a" x="4.338" y="11.36" width="16.953" height="18.34" filterUnits="userSpaceOnUse" color-interpolation-filters="sRGB"><feFlood flood-opacity="0" result="BackgroundImageFix"/><feBlend in="SourceGraphic" in2="BackgroundImageFix" result="shape"/><feColorMatrix in="SourceAlpha" values="0 0 0 0 0 0 0 0 0 0 0 0 0 0 0 0 0 0 127 0" result="hardAlpha"/><feOffset dx=".05" dy="-.05"/><feGaussianBlur stdDeviation=".05"/><feComposite in2="hardAlpha" operator="arithmetic" k2="-1" k3="1"/><feColorMatrix values="0 0 0 0 0.631373 0 0 0 0 0.521569 0 0 0 0 0.733333 0 0 0 1 0"/><feBlend in2="shape" result="effect1_innerShadow_18_23328"/></filter><filter id="d" x="15.672" y="3.04" width="14.308" height="14.106" filterUnits="userSpaceOnUse" color-interpolation-filters="sRGB"><feFlood flood-opacity="0" result="BackgroundImageFix"/><feBlend in="SourceGraphic" in2="BackgroundImageFix" result="shape"/><feColorMatrix in="SourceAlpha" values="0 0 0 0 0 0 0 0 0 0 0 0 0 0 0 0 0 0 127 0" result="hardAlpha"/><feOffset dx=".4"/><feGaussianBlur stdDeviation=".4"/><feComposite in2="hardAlpha" operator="arithmetic" k2="-1" k3="1"/><feColorMatrix values="0 0 0 0 0.690196 0 0 0 0 0.211765 0 0 0 0 0.341176 0 0 0 1 0"/><feBlend in2="shape" result="effect1_innerShadow_18_23328"/></filter><filter id="f" x="9.89" y="11.3" width="16.936" height="18.45" filterUnits="userSpaceOnUse" color-interpolation-filters="sRGB"><feFlood flood-opacity="0" result="BackgroundImageFix"/><feBlend in="SourceGraphic" in2="BackgroundImageFix" result="shape"/><feColorMatrix in="SourceAlpha" values="0 0 0 0 0 0 0 0 0 0 0 0 0 0 0 0 0 0 127 0" result="hardAlpha"/><feOffset dx="-.05" dy=".05"/><feGaussianBlur stdDeviation=".05"/><feComposite in2="hardAlpha" operator="arithmetic" k2="-1" k3="1"/><feColorMatrix values="0 0 0 0 0.627451 0 0 0 0 0.592157 0 0 0 0 0.658824 0 0 0 1 0"/><feBlend in2="shape" result="effect1_innerShadow_18_23328"/><feColorMatrix in="SourceAlpha" values="0 0 0 0 0 0 0 0 0 0 0 0 0 0 0 0 0 0 127 0" result="hardAlpha"/><feOffset dx=".05" dy="-.05"/><feGaussianBlur stdDeviation=".05"/><feComposite in2="hardAlpha" operator="arithmetic" k2="-1" k3="1"/><feColorMatrix values="0 0 0 0 0.643137 0 0 0 0 0.52549 0 0 0 0 0.74902 0 0 0 1 0"/><feBlend in2="effect1_innerShadow_18_23328" result="effect2_innerShadow_18_23328"/></filter><filter id="h" x="14.19" y="15.9" width="2.54" height="2.54" filterUnits="userSpaceOnUse" color-interpolation-filters="sRGB"><feFlood flood-opacity="0" result="BackgroundImageFix"/><feColorMatrix in="SourceAlpha" values="0 0 0 0 0 0 0 0 0 0 0 0 0 0 0 0 0 0 127 0" result="hardAlpha"/><feOffset dx="-.1" dy=".1"/><feGaussianBlur stdDeviation=".1"/><feComposite in2="hardAlpha" operator="out"/><feColorMatrix values="0 0 0 0 0.54902 0 0 0 0 0.419608 0 0 0 0 0.658824 0 0 0 1 0"/><feBlend in2="BackgroundImageFix" result="effect1_dropShadow_18_23328"/><feBlend in="SourceGraphic" in2="effect1_dropShadow_18_23328" result="shape"/></filter><filter id="m" x="1.58" y="3.04" width="14.469" height="14.111" filterUnits="userSpaceOnUse" color-interpolation-filters="sRGB"><feFlood flood-opacity="0" result="BackgroundImageFix"/><feBlend in="SourceGraphic" in2="BackgroundImageFix" result="shape"/><feColorMatrix in="SourceAlpha" values="0 0 0 0 0 0 0 0 0 0 0 0 0 0 0 0 0 0 127 0" result="hardAlpha"/><feOffset dx=".4"/><feGaussianBlur stdDeviation=".4"/><feComposite in2="hardAlpha" operator="arithmetic" k2="-1" k3="1"/><feColorMatrix values="0 0 0 0 0.690196 0 0 0 0 0.211765 0 0 0 0 0.341176 0 0 0 1 0"/><feBlend in2="shape" result="effect1_innerShadow_18_23328"/></filter><filter id="o" x="3.2" y="3.46" width="11.616" height="11.616" filterUnits="userSpaceOnUse" color-interpolation-filters="sRGB"><feFlood flood-opacity="0" result="BackgroundImageFix"/><feBlend in="SourceGraphic" in2="BackgroundImageFix" result="shape"/><feGaussianBlur stdDeviation=".25" result="effect1_foregroundBlur_18_23328"/></filter><filter id="r" x="17.836" y="3.463" width="11.715" height="11.715" filterUnits="userSpaceOnUse" color-interpolation-filters="sRGB"><feFlood flood-opacity="0" result="BackgroundImageFix"/><feBlend in="SourceGraphic" in2="BackgroundImageFix" result="shape"/><feGaussianBlur stdDeviation=".25" result="effect1_foregroundBlur_18_23328"/></filter><filter id="u" x="10.195" y="11.789" width="4.09" height="3.897" filterUnits="userSpaceOnUse" color-interpolation-filters="sRGB"><feFlood flood-opacity="0" result="BackgroundImageFix"/><feBlend in="SourceGraphic" in2="BackgroundImageFix" result="shape"/><feGaussianBlur stdDeviation=".25" result="effect1_foregroundBlur_18_23328"/></filter><filter id="v" x="17.026" y="11.931" width="3.982" height="4.012" filterUnits="userSpaceOnUse" color-interpolation-filters="sRGB"><feFlood flood-opacity="0" result="BackgroundImageFix"/><feBlend in="SourceGraphic" in2="BackgroundImageFix" result="shape"/><feGaussianBlur stdDeviation=".25" result="effect1_foregroundBlur_18_23328"/></filter><radialGradient id="i" cx="0" cy="0" r="1" gradientUnits="userSpaceOnUse" gradientTransform="matrix(-1.03125 1.04688 -.9606 -.94625 15.643 16.946)"><stop offset=".518" stop-color="#988098" stop-opacity="0"/><stop offset=".86" stop-color="#988098"/></radialGradient><radialGradient id="j" cx="0" cy="0" r="1" gradientUnits="userSpaceOnUse" gradientTransform="rotate(-68.142 21.066 -1.984) scale(1.33134 1.18753)"><stop stop-color="#926BB4"/><stop offset="1" stop-color="#926BB4" stop-opacity="0"/></radialGradient><radialGradient id="k" cx="0" cy="0" r="1" gradientUnits="userSpaceOnUse" gradientTransform="scale(-.5185) rotate(-40.383 -59.739 25.525)"><stop offset=".259" stop-color="#B9AEC4"/><stop offset="1" stop-color="#B9AEC4" stop-opacity="0"/></radialGradient><radialGradient id="l" cx="0" cy="0" r="1" gradientUnits="userSpaceOnUse" gradientTransform="rotate(-65.859 21.426 -3.06) scale(1.91019)"><stop offset=".7" stop-color="#A49EA6" stop-opacity="0"/><stop offset="1" stop-color="#A49EA6"/></radialGradient></defs></svg>