<svg xmlns="http://www.w3.org/2000/svg" fill="none" viewBox="0 0 32 32"><g filter="url(#screwdriver_svg__a)"><path fill="url(#screwdriver_svg__b)" d="M23.03 30.057a2 2 0 0 0 2.829 0l4.25-4.25a2 2 0 0 0 0-2.828l-8.005-8.004a1.75 1.75 0 0 0-2.475 0l-4.603 4.603a1.75 1.75 0 0 0 0 2.475z"/><path fill="url(#screwdriver_svg__c)" d="M23.03 30.057a2 2 0 0 0 2.829 0l4.25-4.25a2 2 0 0 0 0-2.828l-8.005-8.004a1.75 1.75 0 0 0-2.475 0l-4.603 4.603a1.75 1.75 0 0 0 0 2.475z"/><path fill="url(#screwdriver_svg__d)" d="M23.03 30.057a2 2 0 0 0 2.829 0l4.25-4.25a2 2 0 0 0 0-2.828l-8.005-8.004a1.75 1.75 0 0 0-2.475 0l-4.603 4.603a1.75 1.75 0 0 0 0 2.475z"/></g><g filter="url(#screwdriver_svg__e)"><path fill="#B9B3BE" d="M2.98 4.14a.5.5 0 0 0-.074.612l2.32 3.83a.5.5 0 0 0 .387.239l1.264.105a1 1 0 0 1 .624.29l8.944 8.943 1.765-1.765-8.994-8.995a1 1 0 0 1-.293-.678L8.89 5.573a.5.5 0 0 0-.242-.414L4.803 2.852a.5.5 0 0 0-.61.075z"/></g><path fill="url(#screwdriver_svg__f)" d="M2.98 4.14a.5.5 0 0 0-.074.612l2.32 3.83a.5.5 0 0 0 .387.239l1.264.105a1 1 0 0 1 .624.29l8.944 8.943 1.765-1.765-8.994-8.995a1 1 0 0 1-.293-.678L8.89 5.573a.5.5 0 0 0-.242-.414L4.803 2.852a.5.5 0 0 0-.61.075z"/><path fill="url(#screwdriver_svg__g)" d="M2.98 4.14a.5.5 0 0 0-.074.612l2.32 3.83a.5.5 0 0 0 .387.239l1.264.105a1 1 0 0 1 .624.29l8.944 8.943 1.765-1.765-8.994-8.995a1 1 0 0 1-.293-.678L8.89 5.573a.5.5 0 0 0-.242-.414L4.803 2.852a.5.5 0 0 0-.61.075z"/><path fill="url(#screwdriver_svg__h)" d="M2.98 4.14a.5.5 0 0 0-.074.612l2.32 3.83a.5.5 0 0 0 .387.239l1.264.105a1 1 0 0 1 .624.29l8.944 8.943 1.765-1.765-8.994-8.995a1 1 0 0 1-.293-.678L8.89 5.573a.5.5 0 0 0-.242-.414L4.803 2.852a.5.5 0 0 0-.61.075z"/><path fill="url(#screwdriver_svg__i)" d="M2.98 4.14a.5.5 0 0 0-.074.612l2.32 3.83a.5.5 0 0 0 .387.239l1.264.105a1 1 0 0 1 .624.29l8.944 8.943 1.765-1.765-8.994-8.995a1 1 0 0 1-.293-.678L8.89 5.573a.5.5 0 0 0-.242-.414L4.803 2.852a.5.5 0 0 0-.61.075z"/><g filter="url(#screwdriver_svg__j)"><path fill="url(#screwdriver_svg__k)" fill-rule="evenodd" d="m21.663 16.904 6.89 6.89a1.267 1.267 0 1 1-1.791 1.792l-6.89-6.89a1.267 1.267 0 1 1 1.79-1.792" clip-rule="evenodd"/><path stroke="url(#screwdriver_svg__l)" stroke-width=".3" d="m28.66 23.689-6.891-6.892a1.417 1.417 0 0 0-2.004 2.004l6.89 6.891a1.417 1.417 0 0 0 2.005-2.003Z"/></g><g filter="url(#screwdriver_svg__m)"><rect width=".857" height="10.657" x="19.893" y="17.761" fill="url(#screwdriver_svg__n)" rx=".429" transform="rotate(-45 19.893 17.76)"/></g><g filter="url(#screwdriver_svg__o)"><rect width="2.114" height="12.325" x="16" y="20.584" fill="url(#screwdriver_svg__p)" rx="1.057" transform="rotate(-45 16 20.584)"/></g><g filter="url(#screwdriver_svg__q)"><rect width="1.237" height="11.391" x="16.64" y="20.604" fill="url(#screwdriver_svg__r)" rx=".619" transform="rotate(-45 16.64 20.604)"/></g><g filter="url(#screwdriver_svg__s)"><rect width=".745" height="10.478" fill="url(#screwdriver_svg__t)" rx=".373" transform="scale(-1 1)rotate(45 -33.611 -10.33)"/></g><rect width="10.01" height="3.049" x="11.632" y="18.659" fill="url(#screwdriver_svg__u)" rx="1.525" transform="rotate(-45 11.632 18.66)"/><rect width="10.01" height="3.049" x="11.632" y="18.659" fill="url(#screwdriver_svg__v)" rx="1.525" transform="rotate(-45 11.632 18.66)"/><rect width="10.01" height="3.049" x="11.632" y="18.659" fill="url(#screwdriver_svg__w)" rx="1.525" transform="rotate(-45 11.632 18.66)"/><rect width="10.01" height="3.049" x="11.632" y="18.659" fill="url(#screwdriver_svg__x)" rx="1.525" transform="rotate(-45 11.632 18.66)"/><defs><linearGradient id="screwdriver_svg__b" x1="18.093" x2="27.906" y1="18.98" y2="28.855" gradientUnits="userSpaceOnUse"><stop stop-color="#FF509E"/><stop offset="1" stop-color="#FF426F"/></linearGradient><linearGradient id="screwdriver_svg__c" x1="15.796" x2="25.958" y1="22.553" y2="19.97" gradientUnits="userSpaceOnUse"><stop stop-color="#DE2E8A"/><stop offset="1" stop-color="#DE2E8A" stop-opacity="0"/></linearGradient><linearGradient id="screwdriver_svg__d" x1="17.023" x2="18.282" y1="17.013" y2="18.271" gradientUnits="userSpaceOnUse"><stop offset=".185" stop-color="#E1045D"/><stop offset="1" stop-color="#ED2786" stop-opacity="0"/></linearGradient><linearGradient id="screwdriver_svg__f" x1="3.625" x2="4.359" y1="3.479" y2="4.198" gradientUnits="userSpaceOnUse"><stop offset=".024" stop-color="#A4A09D"/><stop offset="1" stop-color="#A4A09D" stop-opacity="0"/></linearGradient><linearGradient id="screwdriver_svg__g" x1="15.812" x2="13.89" y1="16.292" y2="14.37" gradientUnits="userSpaceOnUse"><stop offset=".358" stop-color="#7C7073"/><stop offset="1" stop-color="#BAB4BF" stop-opacity="0"/></linearGradient><linearGradient id="screwdriver_svg__k" x1="20.578" x2="27.846" y1="17.611" y2="24.879" gradientUnits="userSpaceOnUse"><stop stop-color="#FF399D"/><stop offset="1" stop-color="#FF335A"/></linearGradient><linearGradient id="screwdriver_svg__l" x1="19.871" x2="28.554" y1="16.904" y2="25.586" gradientUnits="userSpaceOnUse"><stop stop-color="#FF66B1"/><stop offset="1" stop-color="#FF667D"/></linearGradient><linearGradient id="screwdriver_svg__n" x1="20.322" x2="20.322" y1="17.761" y2="28.418" gradientUnits="userSpaceOnUse"><stop stop-color="#FF65A8"/><stop offset="1" stop-color="#FF5F7E"/></linearGradient><linearGradient id="screwdriver_svg__p" x1="17.057" x2="17.057" y1="20.584" y2="32.909" gradientUnits="userSpaceOnUse"><stop stop-color="#EE2391"/><stop offset="1" stop-color="#ED2E59"/></linearGradient><linearGradient id="screwdriver_svg__r" x1="17.259" x2="17.259" y1="20.604" y2="31.995" gradientUnits="userSpaceOnUse"><stop stop-color="#F0278F"/><stop offset="1" stop-color="#EB2B63"/></linearGradient><linearGradient id="screwdriver_svg__t" x1=".373" x2=".373" y1="0" y2="10.478" gradientUnits="userSpaceOnUse"><stop stop-color="#FB4092"/><stop offset="1" stop-color="#FD4574"/></linearGradient><linearGradient id="screwdriver_svg__v" x1="18.317" x2="18.317" y1="21.863" y2="21.333" gradientUnits="userSpaceOnUse"><stop stop-color="#AF0241"/><stop offset="1" stop-color="#DE1A88" stop-opacity="0"/></linearGradient><linearGradient id="screwdriver_svg__w" x1="16.659" x2="16.659" y1="18.35" y2="19.742" gradientUnits="userSpaceOnUse"><stop stop-color="#C25067"/><stop offset="1" stop-color="#EA2C6B" stop-opacity="0"/></linearGradient><filter id="screwdriver_svg__a" width="16.181" height="16.681" x="14.513" y="13.962" color-interpolation-filters="sRGB" filterUnits="userSpaceOnUse"><feFlood flood-opacity="0" result="BackgroundImageFix"/><feBlend in="SourceGraphic" in2="BackgroundImageFix" result="shape"/><feColorMatrix in="SourceAlpha" result="hardAlpha" values="0 0 0 0 0 0 0 0 0 0 0 0 0 0 0 0 0 0 127 0"/><feOffset dy="-.5"/><feGaussianBlur stdDeviation=".5"/><feComposite in2="hardAlpha" k2="-1" k3="1" operator="arithmetic"/><feColorMatrix values="0 0 0 0 0.835294 0 0 0 0 0.317647 0 0 0 0 0.572549 0 0 0 1 0"/><feBlend in2="shape" result="effect1_innerShadow_18_24342"/></filter><filter id="screwdriver_svg__e" width="16.377" height="16.378" x="2.333" y="2.281" color-interpolation-filters="sRGB" filterUnits="userSpaceOnUse"><feFlood flood-opacity="0" result="BackgroundImageFix"/><feBlend in="SourceGraphic" in2="BackgroundImageFix" result="shape"/><feColorMatrix in="SourceAlpha" result="hardAlpha" values="0 0 0 0 0 0 0 0 0 0 0 0 0 0 0 0 0 0 127 0"/><feOffset dx=".5" dy="-.5"/><feGaussianBlur stdDeviation=".25"/><feComposite in2="hardAlpha" k2="-1" k3="1" operator="arithmetic"/><feColorMatrix values="0 0 0 0 0.615686 0 0 0 0 0.572549 0 0 0 0 0.631373 0 0 0 1 0"/><feBlend in2="shape" result="effect1_innerShadow_18_24342"/><feColorMatrix in="SourceAlpha" result="hardAlpha" values="0 0 0 0 0 0 0 0 0 0 0 0 0 0 0 0 0 0 127 0"/><feOffset dx="-.5" dy=".5"/><feGaussianBlur stdDeviation=".25"/><feComposite in2="hardAlpha" k2="-1" k3="1" operator="arithmetic"/><feColorMatrix values="0 0 0 0 0.85098 0 0 0 0 0.843137 0 0 0 0 0.858824 0 0 0 1 0"/><feBlend in2="effect1_innerShadow_18_24342" result="effect2_innerShadow_18_24342"/></filter><filter id="screwdriver_svg__j" width="11.325" height="11.325" x="18.55" y="15.582" color-interpolation-filters="sRGB" filterUnits="userSpaceOnUse"><feFlood flood-opacity="0" result="BackgroundImageFix"/><feBlend in="SourceGraphic" in2="BackgroundImageFix" result="shape"/><feGaussianBlur result="effect1_foregroundBlur_18_24342" stdDeviation=".325"/></filter><filter id="screwdriver_svg__m" width="8.987" height="8.987" x="19.471" y="16.732" color-interpolation-filters="sRGB" filterUnits="userSpaceOnUse"><feFlood flood-opacity="0" result="BackgroundImageFix"/><feBlend in="SourceGraphic" in2="BackgroundImageFix" result="shape"/><feGaussianBlur result="effect1_foregroundBlur_18_24342" stdDeviation=".3"/></filter><filter id="screwdriver_svg__o" width="10.634" height="10.634" x="15.788" y="18.877" color-interpolation-filters="sRGB" filterUnits="userSpaceOnUse"><feFlood flood-opacity="0" result="BackgroundImageFix"/><feBlend in="SourceGraphic" in2="BackgroundImageFix" result="shape"/><feGaussianBlur result="effect1_foregroundBlur_18_24342" stdDeviation=".325"/></filter><filter id="screwdriver_svg__q" width="9.417" height="9.417" x="16.396" y="19.486" color-interpolation-filters="sRGB" filterUnits="userSpaceOnUse"><feFlood flood-opacity="0" result="BackgroundImageFix"/><feBlend in="SourceGraphic" in2="BackgroundImageFix" result="shape"/><feGaussianBlur result="effect1_foregroundBlur_18_24342" stdDeviation=".25"/></filter><filter id="screwdriver_svg__s" width="8.627" height="8.627" x="16.276" y="20.395" color-interpolation-filters="sRGB" filterUnits="userSpaceOnUse"><feFlood flood-opacity="0" result="BackgroundImageFix"/><feBlend in="SourceGraphic" in2="BackgroundImageFix" result="shape"/><feGaussianBlur result="effect1_foregroundBlur_18_24342" stdDeviation=".25"/></filter><radialGradient id="screwdriver_svg__h" cx="0" cy="0" r="1" gradientTransform="matrix(2.65625 .375 -.21684 1.53593 6.156 9.448)" gradientUnits="userSpaceOnUse"><stop offset=".262" stop-color="#9573AD"/><stop offset="1" stop-color="#A095A4" stop-opacity="0"/></radialGradient><radialGradient id="screwdriver_svg__i" cx="0" cy="0" r="1" gradientTransform="rotate(44.24 -9.744 19.042)scale(5.46468 .40424)" gradientUnits="userSpaceOnUse"><stop stop-color="#9B819F"/><stop offset="1" stop-color="#9B819F" stop-opacity="0"/></radialGradient><radialGradient id="screwdriver_svg__u" cx="0" cy="0" r="1" gradientTransform="matrix(8.24221 .0221 -.01238 4.61855 12.925 21.465)" gradientUnits="userSpaceOnUse"><stop stop-color="#D2299A"/><stop offset="1" stop-color="#FF4F64"/></radialGradient><radialGradient id="screwdriver_svg__x" cx="0" cy="0" r="1" gradientTransform="matrix(-4.37522 0 0 -.83969 19.466 20.36)" gradientUnits="userSpaceOnUse"><stop offset=".142" stop-color="#FF678B"/><stop offset="1" stop-color="#FF678B" stop-opacity="0"/></radialGradient></defs></svg>