<svg width="32" height="32" fill="none" xmlns="http://www.w3.org/2000/svg"><path d="M16 22c5.523 0 10-4.477 10-10S21.523 2 16 2 6 6.477 6 12s4.477 10 10 10Z" fill="#CDA3AF"/><path d="M16 22c5.523 0 10-4.477 10-10S21.523 2 16 2 6 6.477 6 12s4.477 10 10 10Z" fill="url(#a)"/><g filter="url(#b)"><path d="M8.81 13.595c.23-.74.92-1.22 1.68-1.22.76 0 1.842.49 2.072 1.21.51 1.62 1.628 2.134 3.418 2.134 1.79 0 2.947-.514 3.457-2.124.23-.73 1.273-1.21 2.033-1.21h.04c.76 0 1.729.114 1.959.834.34 1.07.615 1.415 1.625 1.875C23.524 2.9 8 6.469 8.81 13.595Z" fill="#E17CA3"/><path d="M8.81 13.595c.23-.74.92-1.22 1.68-1.22.76 0 1.842.49 2.072 1.21.51 1.62 1.628 2.134 3.418 2.134 1.79 0 2.947-.514 3.457-2.124.23-.73 1.273-1.21 2.033-1.21h.04c.76 0 1.729.114 1.959.834.34 1.07.615 1.415 1.625 1.875C23.524 2.9 8 6.469 8.81 13.595Z" fill="url(#c)"/><path d="M8.81 13.595c.23-.74.92-1.22 1.68-1.22.76 0 1.842.49 2.072 1.21.51 1.62 1.628 2.134 3.418 2.134 1.79 0 2.947-.514 3.457-2.124.23-.73 1.273-1.21 2.033-1.21h.04c.76 0 1.729.114 1.959.834.34 1.07.615 1.415 1.625 1.875C23.524 2.9 8 6.469 8.81 13.595Z" fill="url(#d)"/><path d="M8.81 13.595c.23-.74.92-1.22 1.68-1.22.76 0 1.842.49 2.072 1.21.51 1.62 1.628 2.134 3.418 2.134 1.79 0 2.947-.514 3.457-2.124.23-.73 1.273-1.21 2.033-1.21h.04c.76 0 1.729.114 1.959.834.34 1.07.615 1.415 1.625 1.875C23.524 2.9 8 6.469 8.81 13.595Z" fill="url(#e)"/><path d="M8.81 13.595c.23-.74.92-1.22 1.68-1.22.76 0 1.842.49 2.072 1.21.51 1.62 1.628 2.134 3.418 2.134 1.79 0 2.947-.514 3.457-2.124.23-.73 1.273-1.21 2.033-1.21h.04c.76 0 1.729.114 1.959.834.34 1.07.615 1.415 1.625 1.875C23.524 2.9 8 6.469 8.81 13.595Z" fill="url(#f)"/><path d="M8.81 13.595c.23-.74.92-1.22 1.68-1.22.76 0 1.842.49 2.072 1.21.51 1.62 1.628 2.134 3.418 2.134 1.79 0 2.947-.514 3.457-2.124.23-.73 1.273-1.21 2.033-1.21h.04c.76 0 1.729.114 1.959.834.34 1.07.615 1.415 1.625 1.875C23.524 2.9 8 6.469 8.81 13.595Z" fill="url(#g)"/></g><path d="M16 2C10.48 2 6 6.48 6 12c0 1.28.24 2.5.68 3.63a4.003 4.003 0 0 0 2.13-2.41c.23-.74.92-1.22 1.68-1.22.76 0 1.45.49 1.68 1.21A3.99 3.99 0 0 0 15.98 16c1.79 0 3.3-1.17 3.81-2.78.23-.73.92-1.21 1.68-1.21h.04c.76 0 1.45.49 1.68 1.21a3.976 3.976 0 0 0 2.13 2.41c.44-1.13.68-2.35.68-3.63-.01-5.52-4.48-10-10-10Z" fill="#E17CA3"/><path d="M16 2C10.48 2 6 6.48 6 12c0 1.28.24 2.5.68 3.63a4.003 4.003 0 0 0 2.13-2.41c.23-.74.92-1.22 1.68-1.22.76 0 1.45.49 1.68 1.21A3.99 3.99 0 0 0 15.98 16c1.79 0 3.3-1.17 3.81-2.78.23-.73.92-1.21 1.68-1.21h.04c.76 0 1.45.49 1.68 1.21a3.976 3.976 0 0 0 2.13 2.41c.44-1.13.68-2.35.68-3.63-.01-5.52-4.48-10-10-10Z" fill="url(#h)"/><path d="M16 2C10.48 2 6 6.48 6 12c0 1.28.24 2.5.68 3.63a4.003 4.003 0 0 0 2.13-2.41c.23-.74.92-1.22 1.68-1.22.76 0 1.45.49 1.68 1.21A3.99 3.99 0 0 0 15.98 16c1.79 0 3.3-1.17 3.81-2.78.23-.73.92-1.21 1.68-1.21h.04c.76 0 1.45.49 1.68 1.21a3.976 3.976 0 0 0 2.13 2.41c.44-1.13.68-2.35.68-3.63-.01-5.52-4.48-10-10-10Z" fill="url(#i)"/><path d="M16 2C10.48 2 6 6.48 6 12c0 1.28.24 2.5.68 3.63a4.003 4.003 0 0 0 2.13-2.41c.23-.74.92-1.22 1.68-1.22.76 0 1.45.49 1.68 1.21A3.99 3.99 0 0 0 15.98 16c1.79 0 3.3-1.17 3.81-2.78.23-.73.92-1.21 1.68-1.21h.04c.76 0 1.45.49 1.68 1.21a3.976 3.976 0 0 0 2.13 2.41c.44-1.13.68-2.35.68-3.63-.01-5.52-4.48-10-10-10Z" fill="url(#j)"/><path d="M16 2C10.48 2 6 6.48 6 12c0 1.28.24 2.5.68 3.63a4.003 4.003 0 0 0 2.13-2.41c.23-.74.92-1.22 1.68-1.22.76 0 1.45.49 1.68 1.21A3.99 3.99 0 0 0 15.98 16c1.79 0 3.3-1.17 3.81-2.78.23-.73.92-1.21 1.68-1.21h.04c.76 0 1.45.49 1.68 1.21a3.976 3.976 0 0 0 2.13 2.41c.44-1.13.68-2.35.68-3.63-.01-5.52-4.48-10-10-10Z" fill="url(#k)"/><path d="M16 2C10.48 2 6 6.48 6 12c0 1.28.24 2.5.68 3.63a4.003 4.003 0 0 0 2.13-2.41c.23-.74.92-1.22 1.68-1.22.76 0 1.45.49 1.68 1.21A3.99 3.99 0 0 0 15.98 16c1.79 0 3.3-1.17 3.81-2.78.23-.73.92-1.21 1.68-1.21h.04c.76 0 1.45.49 1.68 1.21a3.976 3.976 0 0 0 2.13 2.41c.44-1.13.68-2.35.68-3.63-.01-5.52-4.48-10-10-10Z" fill="url(#l)"/><path d="M25.1 8c.66 0 1.09.69.8 1.28L21.65 18h-1.98l4.63-9.5c.15-.31.47-.5.8-.5Z" fill="url(#m)"/><g filter="url(#n)"><path d="m20.563 18.469 4.718-9.563" stroke="url(#o)" stroke-width=".75" stroke-linecap="round"/></g><path d="m8 18 7.41 11.68a.7.7 0 0 0 1.18 0L24 18H8Z" fill="url(#p)"/><path d="m8 18 7.41 11.68a.7.7 0 0 0 1.18 0L24 18H8Z" fill="url(#q)"/><g filter="url(#r)"><path d="M13.296 6.156c.295 0 .534-.181.534-.476s-.239-.602-.534-.602c-.294 0-.874.518-.874.813 0 .294.58.265.874.265Z" fill="url(#s)"/></g><g filter="url(#t)"><path d="M11.296 7.235c.295 0 .534-.181.534-.476s-.239-.602-.534-.602c-.294 0-.874.518-.874.813 0 .294.58.265.874.265Z" fill="url(#u)"/></g><g filter="url(#v)"><path d="M13.296 8.218c.295 0 .534-.182.534-.476 0-.295-.239-.602-.534-.602-.294 0-.874.517-.874.812 0 .295.58.266.874.266Z" fill="url(#w)"/></g><path d="M13.484 6.057a.534.534 0 1 0 0-1.067.534.534 0 0 0 0 1.067Z" fill="url(#x)"/><path d="M11.5 7.042a.534.534 0 1 0 0-1.068.534.534 0 0 0 0 1.068Z" fill="#E5D6EB"/><path d="M11.5 7.042a.534.534 0 1 0 0-1.068.534.534 0 0 0 0 1.068Z" fill="url(#y)"/><path d="M13.484 8.11a.534.534 0 1 0 0-1.068.534.534 0 0 0 0 1.067Z" fill="url(#z)"/><g filter="url(#A)"><ellipse cx="25.449" cy="8.656" rx=".324" ry=".344" fill="#74D8FF"/></g><defs><radialGradient id="a" cx="0" cy="0" r="1" gradientUnits="userSpaceOnUse" gradientTransform="matrix(-5.62506 10 -10 -5.62506 21 12)"><stop stop-color="#FFEDE4"/><stop offset=".452" stop-color="#FFDBDF"/><stop offset="1" stop-color="#D8AEBD" stop-opacity="0"/></radialGradient><radialGradient id="c" cx="0" cy="0" r="1" gradientUnits="userSpaceOnUse" gradientTransform="rotate(129.523 8.673 8.825) scale(12.9639 14.3163)"><stop stop-color="#FFBAEA"/><stop offset=".451" stop-color="#FF97E4"/><stop offset="1" stop-color="#FF83E1" stop-opacity="0"/></radialGradient><radialGradient id="e" cx="0" cy="0" r="1" gradientUnits="userSpaceOnUse" gradientTransform="rotate(140.793 10.043 11.746) scale(6.1301 2.87771)"><stop stop-color="#FF74DE"/><stop offset="1" stop-color="#FF73DB" stop-opacity="0"/></radialGradient><radialGradient id="f" cx="0" cy="0" r="1" gradientUnits="userSpaceOnUse" gradientTransform="matrix(5.5 0 0 8.8125 10.5 16.375)"><stop offset=".466" stop-color="#DB62C1"/><stop offset=".545" stop-color="#DE60C3" stop-opacity="0"/></radialGradient><radialGradient id="h" cx="0" cy="0" r="1" gradientUnits="userSpaceOnUse" gradientTransform="rotate(129.523 8.762 8.637) scale(12.9639 14.3163)"><stop stop-color="#FFBAEA"/><stop offset=".451" stop-color="#FF97E4"/><stop offset="1" stop-color="#FF83E1" stop-opacity="0"/></radialGradient><radialGradient id="j" cx="0" cy="0" r="1" gradientUnits="userSpaceOnUse" gradientTransform="rotate(140.793 10.11 11.559) scale(6.1301 2.87771)"><stop stop-color="#FF74DE"/><stop offset="1" stop-color="#FF73DB" stop-opacity="0"/></radialGradient><radialGradient id="k" cx="0" cy="0" r="1" gradientUnits="userSpaceOnUse" gradientTransform="matrix(5.5 0 0 8.8125 10.5 16)"><stop offset=".466" stop-color="#DB62C1"/><stop offset=".545" stop-color="#DE60C3" stop-opacity="0"/></radialGradient><radialGradient id="l" cx="0" cy="0" r="1" gradientUnits="userSpaceOnUse" gradientTransform="matrix(4.9375 0 0 8.07417 21.688 15.563)"><stop offset=".415" stop-color="#FF67CC"/><stop offset=".509" stop-color="#DE60C3" stop-opacity="0"/></radialGradient><radialGradient id="p" cx="0" cy="0" r="1" gradientUnits="userSpaceOnUse" gradientTransform="matrix(11.75 -7.25 14.10245 22.85567 10.875 25.25)"><stop offset=".137" stop-color="#518EF4"/><stop offset=".416" stop-color="#60BCFF"/><stop offset=".68" stop-color="#62D2FF"/><stop offset="1" stop-color="#5FD4FF"/></radialGradient><radialGradient id="s" cx="0" cy="0" r="1" gradientUnits="userSpaceOnUse" gradientTransform="matrix(-1.07813 .53946 -.50007 -.9994 13.203 5.618)"><stop stop-color="#CD7BA2"/><stop offset="1" stop-color="#CD7BA2" stop-opacity="0"/></radialGradient><radialGradient id="u" cx="0" cy="0" r="1" gradientUnits="userSpaceOnUse" gradientTransform="matrix(-1.07813 .53946 -.50007 -.9994 11.203 6.697)"><stop stop-color="#CD7BA2"/><stop offset="1" stop-color="#CD7BA2" stop-opacity="0"/></radialGradient><radialGradient id="w" cx="0" cy="0" r="1" gradientUnits="userSpaceOnUse" gradientTransform="matrix(-1.07813 .53946 -.50007 -.9994 13.203 7.68)"><stop offset=".084" stop-color="#CB71AE"/><stop offset="1" stop-color="#CD7BA2" stop-opacity="0"/></radialGradient><radialGradient id="x" cx="0" cy="0" r="1" gradientUnits="userSpaceOnUse" gradientTransform="matrix(-.5 .7606 -.7606 -.5 13.719 5.297)"><stop offset=".16" stop-color="#FBEDFD"/><stop offset=".855" stop-color="#E2C9E5"/></radialGradient><radialGradient id="y" cx="0" cy="0" r="1" gradientUnits="userSpaceOnUse" gradientTransform="matrix(-.5 .7606 -.7606 -.5 11.734 6.281)"><stop offset=".16" stop-color="#FBEDFD"/><stop offset=".855" stop-color="#E2C9E5"/></radialGradient><radialGradient id="z" cx="0" cy="0" r="1" gradientUnits="userSpaceOnUse" gradientTransform="matrix(-.5 .7606 -.7606 -.5 13.719 7.349)"><stop offset=".16" stop-color="#FBEDFD"/><stop offset=".855" stop-color="#E2C9E5"/></radialGradient><linearGradient id="d" x1="16" y1="2.375" x2="10" y2="17.125" gradientUnits="userSpaceOnUse"><stop offset=".399" stop-color="#FF80E1" stop-opacity="0"/><stop offset=".953" stop-color="#E153BB"/></linearGradient><linearGradient id="g" x1="22" y1="13.188" x2="8.779" y2="13.188" gradientUnits="userSpaceOnUse"><stop stop-color="#E9B4AF"/><stop offset=".889" stop-color="#C9939B"/></linearGradient><linearGradient id="i" x1="16" y1="2" x2="10" y2="16.75" gradientUnits="userSpaceOnUse"><stop offset=".399" stop-color="#FF80E1" stop-opacity="0"/><stop offset=".953" stop-color="#E153BB"/></linearGradient><linearGradient id="m" x1="20.063" y1="18" x2="24.875" y2="8" gradientUnits="userSpaceOnUse"><stop stop-color="#2E9CF8"/><stop offset="1" stop-color="#42B6F8"/></linearGradient><linearGradient id="o" x1="25.188" y1="9.438" x2="20.406" y2="18.5" gradientUnits="userSpaceOnUse"><stop stop-color="#5AC6FF"/><stop offset="1" stop-color="#3FACFF"/></linearGradient><linearGradient id="q" x1="20.813" y1="23.313" x2="19.875" y2="22.688" gradientUnits="userSpaceOnUse"><stop offset=".138" stop-color="#64BDFF"/><stop offset="1" stop-color="#64B6FF" stop-opacity="0"/></linearGradient><filter id="b" x="7.779" y="6.079" width="18.314" height="10.639" filterUnits="userSpaceOnUse" color-interpolation-filters="sRGB"><feFlood flood-opacity="0" result="BackgroundImageFix"/><feBlend in="SourceGraphic" in2="BackgroundImageFix" result="shape"/><feGaussianBlur stdDeviation=".5" result="effect1_foregroundBlur_18_28637"/></filter><filter id="n" x="19.437" y="7.781" width="6.969" height="11.813" filterUnits="userSpaceOnUse" color-interpolation-filters="sRGB"><feFlood flood-opacity="0" result="BackgroundImageFix"/><feBlend in="SourceGraphic" in2="BackgroundImageFix" result="shape"/><feGaussianBlur stdDeviation=".375" result="effect1_foregroundBlur_18_28637"/></filter><filter id="r" x="12.172" y="4.828" width="1.908" height="1.579" filterUnits="userSpaceOnUse" color-interpolation-filters="sRGB"><feFlood flood-opacity="0" result="BackgroundImageFix"/><feBlend in="SourceGraphic" in2="BackgroundImageFix" result="shape"/><feGaussianBlur stdDeviation=".125" result="effect1_foregroundBlur_18_28637"/></filter><filter id="t" x="10.172" y="5.907" width="1.908" height="1.579" filterUnits="userSpaceOnUse" color-interpolation-filters="sRGB"><feFlood flood-opacity="0" result="BackgroundImageFix"/><feBlend in="SourceGraphic" in2="BackgroundImageFix" result="shape"/><feGaussianBlur stdDeviation=".125" result="effect1_foregroundBlur_18_28637"/></filter><filter id="v" x="12.172" y="6.89" width="1.908" height="1.579" filterUnits="userSpaceOnUse" color-interpolation-filters="sRGB"><feFlood flood-opacity="0" result="BackgroundImageFix"/><feBlend in="SourceGraphic" in2="BackgroundImageFix" result="shape"/><feGaussianBlur stdDeviation=".125" result="effect1_foregroundBlur_18_28637"/></filter><filter id="A" x="24.625" y="7.813" width="1.648" height="1.688" filterUnits="userSpaceOnUse" color-interpolation-filters="sRGB"><feFlood flood-opacity="0" result="BackgroundImageFix"/><feBlend in="SourceGraphic" in2="BackgroundImageFix" result="shape"/><feGaussianBlur stdDeviation=".25" result="effect1_foregroundBlur_18_28637"/></filter></defs></svg>