<svg width="32" height="32" fill="none" xmlns="http://www.w3.org/2000/svg"><g filter="url(#a)"><path d="M22.76 1.782a2.666 2.666 0 0 0-2.666 2.666v8.217H11.5V8.089a2.666 2.666 0 1 0-5.331 0v10.803c0 6.656 3.453 10.406 8.734 10.843h1.187c2.91-.29 5.907-1.328 8.157-4.547 1.89-3.046 1.648-6.09 1.457-7.875l-.02-.187a94.75 94.75 0 0 1-.258-2.826V4.448a2.666 2.666 0 0 0-2.666-2.666Z" fill="#E0A397"/><path d="M22.76 1.782a2.666 2.666 0 0 0-2.666 2.666v8.217H11.5V8.089a2.666 2.666 0 1 0-5.331 0v10.803c0 6.656 3.453 10.406 8.734 10.843h1.187c2.91-.29 5.907-1.328 8.157-4.547 1.89-3.046 1.648-6.09 1.457-7.875l-.02-.187a94.75 94.75 0 0 1-.258-2.826V4.448a2.666 2.666 0 0 0-2.666-2.666Z" fill="url(#b)"/><path d="M22.76 1.782a2.666 2.666 0 0 0-2.666 2.666v8.217H11.5V8.089a2.666 2.666 0 1 0-5.331 0v10.803c0 6.656 3.453 10.406 8.734 10.843h1.187c2.91-.29 5.907-1.328 8.157-4.547 1.89-3.046 1.648-6.09 1.457-7.875l-.02-.187a94.75 94.75 0 0 1-.258-2.826V4.448a2.666 2.666 0 0 0-2.666-2.666Z" fill="url(#c)"/><path d="M22.76 1.782a2.666 2.666 0 0 0-2.666 2.666v8.217H11.5V8.089a2.666 2.666 0 1 0-5.331 0v10.803c0 6.656 3.453 10.406 8.734 10.843h1.187c2.91-.29 5.907-1.328 8.157-4.547 1.89-3.046 1.648-6.09 1.457-7.875l-.02-.187a94.75 94.75 0 0 1-.258-2.826V4.448a2.666 2.666 0 0 0-2.666-2.666Z" fill="url(#d)"/></g><g filter="url(#e)" fill="#A96766"><path d="M16.372 15.01a2.851 2.851 0 1 0 0 5.704h1.623c3.035 0 4.128 0 6.4-.256 0-3.5-2.836-5.443-6.336-5.448M16.372 15.01h1.68Z"/></g><g filter="url(#f)"><path fill="#A96766" d="M9.835 10.717h6.099v6.995H9.835z"/></g><rect x="6.169" y="5.423" width="5.332" height="11.813" rx="2.666" fill="url(#g)"/><rect x="6.169" y="5.423" width="5.332" height="11.813" rx="2.666" fill="url(#h)"/><rect x="20.094" y="1.782" width="5.332" height="15.453" rx="2.666" fill="url(#i)"/><g filter="url(#j)"><rect x="10.54" y="8.563" width="5.395" height="8.203" rx="2.697" fill="url(#k)"/><rect x="10.54" y="8.563" width="5.395" height="8.203" rx="2.697" fill="url(#l)"/></g><rect x="10.54" y="8.563" width="5.395" height="8.203" rx="2.697" fill="url(#m)"/><rect x="10.54" y="8.563" width="5.395" height="8.203" rx="2.697" fill="url(#n)"/><rect x="10.54" y="8.563" width="5.395" height="8.203" rx="2.697" fill="url(#o)"/><g filter="url(#p)"><rect x="15.407" y="6.954" width="5.332" height="10.281" rx="2.666" fill="url(#q)"/></g><rect x="15.407" y="6.954" width="5.332" height="10.281" rx="2.666" fill="url(#r)"/><g filter="url(#s)"><path d="M23.527 4.36v13.563" stroke="#FFD0A8" stroke-width="1.5" stroke-linecap="round"/></g><path d="M17.739 13.876a2.851 2.851 0 1 0 0 5.703h1.624a1 1 0 0 1 .743.44l2.471 3.652a1 1 0 0 0 1.745-.16l.937-2.141c.332-.759.543-1.586.38-2.398a6.346 6.346 0 0 0-6.213-5.096" fill="url(#t)"/><path d="M17.739 13.876a2.851 2.851 0 1 0 0 5.703h1.624a1 1 0 0 1 .743.44l2.471 3.652a1 1 0 0 0 1.745-.16l.937-2.141c.332-.759.543-1.586.38-2.398a6.346 6.346 0 0 0-6.213-5.096" fill="url(#u)"/><path d="M17.739 13.876h1.68Z" fill="url(#v)"/><path d="M17.739 13.876h1.68Z" fill="url(#w)"/><path d="M17.739 13.876a2.851 2.851 0 1 0 0 5.703h1.624a1 1 0 0 1 .743.44l2.471 3.652a1 1 0 0 0 1.745-.16l.937-2.141c.332-.759.543-1.586.38-2.398a6.346 6.346 0 0 0-6.213-5.096" fill="url(#x)"/><path d="M17.739 13.876h1.68Z" fill="url(#y)"/><g filter="url(#z)"><path d="M18.073 16h2.834a3 3 0 0 1 2.613 1.527l1.307 2.318" stroke="url(#A)" stroke-width="1.5" stroke-linecap="round"/></g><path d="M22.76 1.782a2.666 2.666 0 0 0-2.666 2.666v3.434c.402.466.645 1.074.645 1.738v4.95a2.666 2.666 0 0 1-5.184.879 2.697 2.697 0 0 1-5.016-1.38v-2.808c0-.829.374-1.57.962-2.065V8.09a2.666 2.666 0 1 0-5.332 0v10.803c0 6.656 3.453 10.406 8.734 10.843h1.187c2.91-.29 5.907-1.328 8.157-4.547 1.89-3.046 1.648-6.09 1.457-7.875l-.02-.187a94.75 94.75 0 0 1-.258-2.826V4.448a2.666 2.666 0 0 0-2.666-2.666Z" fill="url(#B)"/><path d="M22.76 1.782a2.666 2.666 0 0 0-2.666 2.666v3.434c.402.466.645 1.074.645 1.738v4.95a2.666 2.666 0 0 1-5.184.879 2.697 2.697 0 0 1-5.016-1.38v-2.808c0-.829.374-1.57.962-2.065V8.09a2.666 2.666 0 1 0-5.332 0v10.803c0 6.656 3.453 10.406 8.734 10.843h1.187c2.91-.29 5.907-1.328 8.157-4.547 1.89-3.046 1.648-6.09 1.457-7.875l-.02-.187a94.75 94.75 0 0 1-.258-2.826V4.448a2.666 2.666 0 0 0-2.666-2.666Z" fill="url(#C)"/><path d="M22.76 1.782a2.666 2.666 0 0 0-2.666 2.666v3.434c.402.466.645 1.074.645 1.738v4.95a2.666 2.666 0 0 1-5.184.879 2.697 2.697 0 0 1-5.016-1.38v-2.808c0-.829.374-1.57.962-2.065V8.09a2.666 2.666 0 1 0-5.332 0v10.803c0 6.656 3.453 10.406 8.734 10.843h1.187c2.91-.29 5.907-1.328 8.157-4.547 1.89-3.046 1.648-6.09 1.457-7.875l-.02-.187a94.75 94.75 0 0 1-.258-2.826V4.448a2.666 2.666 0 0 0-2.666-2.666Z" fill="url(#D)"/><path d="M22.76 1.782a2.666 2.666 0 0 0-2.666 2.666v3.434c.402.466.645 1.074.645 1.738v4.95a2.666 2.666 0 0 1-5.184.879 2.697 2.697 0 0 1-5.016-1.38v-2.808c0-.829.374-1.57.962-2.065V8.09a2.666 2.666 0 1 0-5.332 0v10.803c0 6.656 3.453 10.406 8.734 10.843h1.187c2.91-.29 5.907-1.328 8.157-4.547 1.89-3.046 1.648-6.09 1.457-7.875l-.02-.187a94.75 94.75 0 0 1-.258-2.826V4.448a2.666 2.666 0 0 0-2.666-2.666Z" fill="url(#E)"/><g filter="url(#F)"><path d="M9.483 8.333v6.736" stroke="url(#G)" stroke-linecap="round"/></g><g filter="url(#H)"><rect x="13.812" y="11.154" width=".851" height="3.453" rx=".426" fill="#F2C1A2"/></g><g filter="url(#I)"><rect x="18.727" y="8.747" width="1.367" height="4.626" rx=".684" fill="#FFCFA5"/></g><defs><radialGradient id="b" cx="0" cy="0" r="1" gradientUnits="userSpaceOnUse" gradientTransform="matrix(1.40994 -4.40607 5.09243 1.62958 21.174 16.322)"><stop stop-color="#FFC9A0"/><stop offset="1" stop-color="#FFC9A0" stop-opacity="0"/></radialGradient><radialGradient id="c" cx="0" cy="0" r="1" gradientUnits="userSpaceOnUse" gradientTransform="matrix(-5.26865 0 0 -4.94397 21.72 20.703)"><stop stop-color="#F2B6A3"/><stop offset="1" stop-color="#F2B6A3" stop-opacity="0"/></radialGradient><radialGradient id="d" cx="0" cy="0" r="1" gradientUnits="userSpaceOnUse" gradientTransform="matrix(-7.59133 6.41699 -6.71794 -7.94735 11.579 15.759)"><stop stop-color="#C6907B"/><stop offset="1" stop-color="#C6907B" stop-opacity="0"/></radialGradient><radialGradient id="g" cx="0" cy="0" r="1" gradientUnits="userSpaceOnUse" gradientTransform="matrix(-3.39062 3.59376 -2.77814 -2.6211 12.745 12.423)"><stop stop-color="#B2715D"/><stop offset="1" stop-color="#B2715D" stop-opacity="0"/></radialGradient><radialGradient id="h" cx="0" cy="0" r="1" gradientUnits="userSpaceOnUse" gradientTransform="matrix(1.85935 0 0 1.79633 10.211 7.442)"><stop stop-color="#FBCAA3"/><stop offset="1" stop-color="#FBCAA3" stop-opacity="0"/></radialGradient><radialGradient id="i" cx="0" cy="0" r="1" gradientUnits="userSpaceOnUse" gradientTransform="matrix(2.5 0 0 2.21875 24.11 3.821)"><stop stop-color="#FFD0A9"/><stop offset="1" stop-color="#FFD0A9" stop-opacity="0"/></radialGradient><radialGradient id="l" cx="0" cy="0" r="1" gradientUnits="userSpaceOnUse" gradientTransform="matrix(-1.31357 .85703 -1.14666 -1.7575 16.282 9.705)"><stop offset=".215" stop-color="#A7714B"/><stop offset="1" stop-color="#A7714B" stop-opacity="0"/></radialGradient><radialGradient id="m" cx="0" cy="0" r="1" gradientUnits="userSpaceOnUse" gradientTransform="matrix(0 -3.11578 6.51664 0 13.237 16.966)"><stop stop-color="#B57278"/><stop offset="1" stop-color="#B16C73" stop-opacity="0"/></radialGradient><radialGradient id="o" cx="0" cy="0" r="1" gradientUnits="userSpaceOnUse" gradientTransform="rotate(160.412 8.83 7.605) scale(9.71985 13.8653)"><stop offset=".889" stop-color="#D79C82" stop-opacity="0"/><stop offset="1" stop-color="#D79C82"/></radialGradient><radialGradient id="t" cx="0" cy="0" r="1" gradientUnits="userSpaceOnUse" gradientTransform="matrix(-2.10311 4.74572 -14.57712 -6.46 22.428 15.447)"><stop stop-color="#F5C398"/><stop offset="1" stop-color="#B7737B"/></radialGradient><radialGradient id="v" cx="0" cy="0" r="1" gradientUnits="userSpaceOnUse" gradientTransform="matrix(-2.10311 4.74572 -14.57712 -6.46 22.428 15.447)"><stop stop-color="#F5C398"/><stop offset="1" stop-color="#B7737B"/></radialGradient><radialGradient id="x" cx="0" cy="0" r="1" gradientUnits="userSpaceOnUse" gradientTransform="matrix(-6.05883 0 0 -12.0286 20.946 16.554)"><stop offset=".838" stop-color="#CB9178" stop-opacity="0"/><stop offset="1" stop-color="#CB9178"/></radialGradient><radialGradient id="y" cx="0" cy="0" r="1" gradientUnits="userSpaceOnUse" gradientTransform="matrix(-6.05883 0 0 -12.0286 20.946 16.554)"><stop offset=".838" stop-color="#CB9178" stop-opacity="0"/><stop offset="1" stop-color="#CB9178"/></radialGradient><radialGradient id="C" cx="0" cy="0" r="1" gradientUnits="userSpaceOnUse" gradientTransform="matrix(22.82617 10.50104 -11.16142 24.26165 3.886 11.453)"><stop offset=".946" stop-color="#D6A797" stop-opacity="0"/><stop offset="1" stop-color="#D6A797"/></radialGradient><radialGradient id="E" cx="0" cy="0" r="1" gradientUnits="userSpaceOnUse" gradientTransform="rotate(100.422 4.715 12.679) scale(19.7254 14.941)"><stop offset=".9" stop-color="#BD788B" stop-opacity="0"/><stop offset="1" stop-color="#BD788B"/></radialGradient><linearGradient id="k" x1="11.844" y1="11.31" x2="14.864" y2="11.319" gradientUnits="userSpaceOnUse"><stop stop-color="#D2A07D"/><stop offset="1" stop-color="#DDAF8B"/></linearGradient><linearGradient id="n" x1="15.398" y1="12.665" x2="15.028" y2="12.665" gradientUnits="userSpaceOnUse"><stop stop-color="#C2865B"/><stop offset="1" stop-color="#C2865B" stop-opacity="0"/></linearGradient><linearGradient id="q" x1="16.302" y1="10.396" x2="20.739" y2="10.396" gradientUnits="userSpaceOnUse"><stop stop-color="#CC9676"/><stop offset="1" stop-color="#F0C097"/></linearGradient><linearGradient id="r" x1="21.593" y1="11.254" x2="17.527" y2="11.254" gradientUnits="userSpaceOnUse"><stop stop-color="#FFD0A7"/><stop offset="1" stop-color="#FFD0A7" stop-opacity="0"/></linearGradient><linearGradient id="u" x1="24.642" y1="22.447" x2="21.636" y2="19.938" gradientUnits="userSpaceOnUse"><stop offset=".249" stop-color="#D69D8A"/><stop offset="1" stop-color="#D69D8A" stop-opacity="0"/></linearGradient><linearGradient id="w" x1="24.642" y1="22.447" x2="21.636" y2="19.938" gradientUnits="userSpaceOnUse"><stop offset=".249" stop-color="#D69D8A"/><stop offset="1" stop-color="#D69D8A" stop-opacity="0"/></linearGradient><linearGradient id="A" x1="18.073" y1="16" x2="25.419" y2="18.712" gradientUnits="userSpaceOnUse"><stop stop-color="#FFCFAB"/><stop offset="1" stop-color="#FFCFAB" stop-opacity="0"/></linearGradient><linearGradient id="B" x1="26.12" y1="16.482" x2="23.557" y2="16.482" gradientUnits="userSpaceOnUse"><stop stop-color="#F5C39E"/><stop offset="1" stop-color="#F5C39E" stop-opacity="0"/></linearGradient><linearGradient id="D" x1="6.006" y1="16.51" x2="6.834" y2="16.51" gradientUnits="userSpaceOnUse"><stop stop-color="#DFA487"/><stop offset="1" stop-color="#DFA487" stop-opacity="0"/></linearGradient><linearGradient id="G" x1="10.116" y1="8.017" x2="10.164" y2="17.161" gradientUnits="userSpaceOnUse"><stop stop-color="#FBC9A4"/><stop offset="1" stop-color="#FBC9A4" stop-opacity="0"/></linearGradient><filter id="a" x="6.169" y="1.032" width="20.413" height="28.703" filterUnits="userSpaceOnUse" color-interpolation-filters="sRGB"><feFlood flood-opacity="0" result="BackgroundImageFix"/><feBlend in="SourceGraphic" in2="BackgroundImageFix" result="shape"/><feColorMatrix in="SourceAlpha" values="0 0 0 0 0 0 0 0 0 0 0 0 0 0 0 0 0 0 127 0" result="hardAlpha"/><feOffset dx=".75" dy="-.75"/><feGaussianBlur stdDeviation="1.25"/><feComposite in2="hardAlpha" operator="arithmetic" k2="-1" k3="1"/><feColorMatrix values="0 0 0 0 0.6875 0 0 0 0 0.494936 0 0 0 0 0.372396 0 0 0 1 0"/><feBlend in2="shape" result="effect1_innerShadow_20020_2546"/></filter><filter id="e" x="11.52" y="13.01" width="14.875" height="9.703" filterUnits="userSpaceOnUse" color-interpolation-filters="sRGB"><feFlood flood-opacity="0" result="BackgroundImageFix"/><feBlend in="SourceGraphic" in2="BackgroundImageFix" result="shape"/><feGaussianBlur stdDeviation="1" result="effect1_foregroundBlur_20020_2546"/></filter><filter id="f" x="7.835" y="8.717" width="10.099" height="10.995" filterUnits="userSpaceOnUse" color-interpolation-filters="sRGB"><feFlood flood-opacity="0" result="BackgroundImageFix"/><feBlend in="SourceGraphic" in2="BackgroundImageFix" result="shape"/><feGaussianBlur stdDeviation="1" result="effect1_foregroundBlur_20020_2546"/></filter><filter id="j" x="10.54" y="7.813" width="6.145" height="8.953" filterUnits="userSpaceOnUse" color-interpolation-filters="sRGB"><feFlood flood-opacity="0" result="BackgroundImageFix"/><feBlend in="SourceGraphic" in2="BackgroundImageFix" result="shape"/><feColorMatrix in="SourceAlpha" values="0 0 0 0 0 0 0 0 0 0 0 0 0 0 0 0 0 0 127 0" result="hardAlpha"/><feOffset dx=".75" dy="-.75"/><feGaussianBlur stdDeviation="1"/><feComposite in2="hardAlpha" operator="arithmetic" k2="-1" k3="1"/><feColorMatrix values="0 0 0 0 0.784314 0 0 0 0 0.592157 0 0 0 0 0.439216 0 0 0 1 0"/><feBlend in2="shape" result="effect1_innerShadow_20020_2546"/></filter><filter id="p" x="15.407" y="6.204" width="6.082" height="11.031" filterUnits="userSpaceOnUse" color-interpolation-filters="sRGB"><feFlood flood-opacity="0" result="BackgroundImageFix"/><feBlend in="SourceGraphic" in2="BackgroundImageFix" result="shape"/><feColorMatrix in="SourceAlpha" values="0 0 0 0 0 0 0 0 0 0 0 0 0 0 0 0 0 0 127 0" result="hardAlpha"/><feOffset dx=".75" dy="-.75"/><feGaussianBlur stdDeviation="1"/><feComposite in2="hardAlpha" operator="arithmetic" k2="-1" k3="1"/><feColorMatrix values="0 0 0 0 0.733333 0 0 0 0 0.490196 0 0 0 0 0.372549 0 0 0 1 0"/><feBlend in2="shape" result="effect1_innerShadow_20020_2546"/></filter><filter id="s" x="20.777" y="1.61" width="5.5" height="19.063" filterUnits="userSpaceOnUse" color-interpolation-filters="sRGB"><feFlood flood-opacity="0" result="BackgroundImageFix"/><feBlend in="SourceGraphic" in2="BackgroundImageFix" result="shape"/><feGaussianBlur stdDeviation="1" result="effect1_foregroundBlur_20020_2546"/></filter><filter id="z" x="15.623" y="13.55" width="11.654" height="8.746" filterUnits="userSpaceOnUse" color-interpolation-filters="sRGB"><feFlood flood-opacity="0" result="BackgroundImageFix"/><feBlend in="SourceGraphic" in2="BackgroundImageFix" result="shape"/><feGaussianBlur stdDeviation=".85" result="effect1_foregroundBlur_20020_2546"/></filter><filter id="F" x="7.983" y="6.833" width="3" height="9.736" filterUnits="userSpaceOnUse" color-interpolation-filters="sRGB"><feFlood flood-opacity="0" result="BackgroundImageFix"/><feBlend in="SourceGraphic" in2="BackgroundImageFix" result="shape"/><feGaussianBlur stdDeviation=".5" result="effect1_foregroundBlur_20020_2546"/></filter><filter id="H" x="12.812" y="10.154" width="2.851" height="5.453" filterUnits="userSpaceOnUse" color-interpolation-filters="sRGB"><feFlood flood-opacity="0" result="BackgroundImageFix"/><feBlend in="SourceGraphic" in2="BackgroundImageFix" result="shape"/><feGaussianBlur stdDeviation=".5" result="effect1_foregroundBlur_20020_2546"/></filter><filter id="I" x="17.727" y="7.747" width="3.367" height="6.626" filterUnits="userSpaceOnUse" color-interpolation-filters="sRGB"><feFlood flood-opacity="0" result="BackgroundImageFix"/><feBlend in="SourceGraphic" in2="BackgroundImageFix" result="shape"/><feGaussianBlur stdDeviation=".5" result="effect1_foregroundBlur_20020_2546"/></filter></defs></svg>