<svg xmlns="http://www.w3.org/2000/svg" fill="none" viewBox="0 0 32 32"><g filter="url(#sign-of-the-horns-medium_svg__a)"><path fill="#B88480" d="M22.76 2.023a2.666 2.666 0 0 0-2.666 2.666v8.217h-8.593V8.33a2.666 2.666 0 1 0-5.332 0v10.803c0 6.656 3.453 10.406 8.734 10.844h1.187c2.91-.291 5.907-1.329 8.157-4.547 1.89-3.047 1.648-6.09 1.457-7.876l-.02-.187a95 95 0 0 1-.258-2.826V4.689a2.666 2.666 0 0 0-2.666-2.666"/><path fill="url(#sign-of-the-horns-medium_svg__b)" d="M22.76 2.023a2.666 2.666 0 0 0-2.666 2.666v8.217h-8.593V8.33a2.666 2.666 0 1 0-5.332 0v10.803c0 6.656 3.453 10.406 8.734 10.844h1.187c2.91-.291 5.907-1.329 8.157-4.547 1.89-3.047 1.648-6.09 1.457-7.876l-.02-.187a95 95 0 0 1-.258-2.826V4.689a2.666 2.666 0 0 0-2.666-2.666"/><path fill="url(#sign-of-the-horns-medium_svg__c)" d="M22.76 2.023a2.666 2.666 0 0 0-2.666 2.666v8.217h-8.593V8.33a2.666 2.666 0 1 0-5.332 0v10.803c0 6.656 3.453 10.406 8.734 10.844h1.187c2.91-.291 5.907-1.329 8.157-4.547 1.89-3.047 1.648-6.09 1.457-7.876l-.02-.187a95 95 0 0 1-.258-2.826V4.689a2.666 2.666 0 0 0-2.666-2.666"/><path fill="url(#sign-of-the-horns-medium_svg__d)" d="M22.76 2.023a2.666 2.666 0 0 0-2.666 2.666v8.217h-8.593V8.33a2.666 2.666 0 1 0-5.332 0v10.803c0 6.656 3.453 10.406 8.734 10.844h1.187c2.91-.291 5.907-1.329 8.157-4.547 1.89-3.047 1.648-6.09 1.457-7.876l-.02-.187a95 95 0 0 1-.258-2.826V4.689a2.666 2.666 0 0 0-2.666-2.666"/><path fill="url(#sign-of-the-horns-medium_svg__e)" d="M22.76 2.023a2.666 2.666 0 0 0-2.666 2.666v8.217h-8.593V8.33a2.666 2.666 0 1 0-5.332 0v10.803c0 6.656 3.453 10.406 8.734 10.844h1.187c2.91-.291 5.907-1.329 8.157-4.547 1.89-3.047 1.648-6.09 1.457-7.876l-.02-.187a95 95 0 0 1-.258-2.826V4.689a2.666 2.666 0 0 0-2.666-2.666"/></g><g fill="#7A4854" filter="url(#sign-of-the-horns-medium_svg__f)"><path d="M16.1 15.252a2.852 2.852 0 1 0 0 5.703h1.624c3.034 0 4.128 0 6.4-.256 0-3.5-2.836-5.443-6.336-5.447M16.1 15.252h1.68Z"/></g><g filter="url(#sign-of-the-horns-medium_svg__g)"><path fill="#7A4854" d="M9.564 10.959h6.099v6.995H9.564z"/></g><rect width="5.332" height="11.813" x="6.169" y="5.664" fill="url(#sign-of-the-horns-medium_svg__h)" rx="2.666"/><rect width="5.332" height="11.813" x="6.169" y="5.664" fill="url(#sign-of-the-horns-medium_svg__i)" rx="2.666"/><rect width="5.332" height="15.453" x="20.1" y="2.027" fill="url(#sign-of-the-horns-medium_svg__j)" rx="2.666"/><g filter="url(#sign-of-the-horns-medium_svg__k)"><rect width="5.395" height="8.203" x="10.268" y="8.805" fill="url(#sign-of-the-horns-medium_svg__l)" rx="2.697"/><rect width="5.395" height="8.203" x="10.268" y="8.805" fill="url(#sign-of-the-horns-medium_svg__m)" rx="2.697"/></g><rect width="5.395" height="8.203" x="10.268" y="8.805" fill="url(#sign-of-the-horns-medium_svg__n)" rx="2.697"/><rect width="5.395" height="8.203" x="10.268" y="8.805" fill="url(#sign-of-the-horns-medium_svg__o)" rx="2.697"/><rect width="5.395" height="8.203" x="10.268" y="8.805" fill="url(#sign-of-the-horns-medium_svg__p)" rx="2.697"/><g filter="url(#sign-of-the-horns-medium_svg__q)"><rect width="5.332" height="10.281" x="15.136" y="7.195" fill="url(#sign-of-the-horns-medium_svg__r)" rx="2.666"/></g><rect width="5.332" height="10.281" x="15.136" y="7.195" fill="url(#sign-of-the-horns-medium_svg__s)" rx="2.666"/><g filter="url(#sign-of-the-horns-medium_svg__t)"><path stroke="#CEA68C" stroke-linecap="round" stroke-width="1.5" d="M23.255 4.602v13.562"/></g><path fill="url(#sign-of-the-horns-medium_svg__u)" d="M17.468 14.117a2.852 2.852 0 1 0 0 5.703h1.624a1 1 0 0 1 .743.441l2.471 3.652a1 1 0 0 0 1.744-.16l.938-2.142c.332-.759.542-1.586.38-2.398a6.346 6.346 0 0 0-6.213-5.096"/><path fill="url(#sign-of-the-horns-medium_svg__v)" d="M17.468 14.117a2.852 2.852 0 1 0 0 5.703h1.624a1 1 0 0 1 .743.441l2.471 3.652a1 1 0 0 0 1.744-.16l.938-2.142c.332-.759.542-1.586.38-2.398a6.346 6.346 0 0 0-6.213-5.096"/><path fill="url(#sign-of-the-horns-medium_svg__w)" d="M17.468 14.117h1.68Z"/><path fill="url(#sign-of-the-horns-medium_svg__x)" d="M17.468 14.117h1.68Z"/><path fill="url(#sign-of-the-horns-medium_svg__y)" d="M17.468 14.117a2.852 2.852 0 1 0 0 5.703h1.624a1 1 0 0 1 .743.441l2.471 3.652a1 1 0 0 0 1.744-.16l.938-2.142c.332-.759.542-1.586.38-2.398a6.346 6.346 0 0 0-6.213-5.096"/><path fill="url(#sign-of-the-horns-medium_svg__z)" d="M17.468 14.117h1.68Z"/><g filter="url(#sign-of-the-horns-medium_svg__A)"><path stroke="url(#sign-of-the-horns-medium_svg__B)" stroke-linecap="round" stroke-width="1.5" d="M17.802 16.241h2.833a3 3 0 0 1 2.613 1.527l1.308 2.319"/></g><path fill="url(#sign-of-the-horns-medium_svg__C)" d="M22.76 2.023a2.666 2.666 0 0 0-2.666 2.666v3.434c.402.467.645 1.074.645 1.738v4.95a2.666 2.666 0 0 1-5.184.879 2.697 2.697 0 0 1-5.016-1.38v-2.808c0-.828.374-1.57.962-2.064V8.33a2.666 2.666 0 1 0-5.332 0v10.803c0 6.656 3.453 10.406 8.734 10.844h1.187c2.91-.291 5.907-1.329 8.157-4.547 1.89-3.047 1.648-6.09 1.457-7.876l-.02-.187a95 95 0 0 1-.258-2.826V4.689a2.666 2.666 0 0 0-2.666-2.666"/><path fill="url(#sign-of-the-horns-medium_svg__D)" d="M22.76 2.023a2.666 2.666 0 0 0-2.666 2.666v3.434c.402.467.645 1.074.645 1.738v4.95a2.666 2.666 0 0 1-5.184.879 2.697 2.697 0 0 1-5.016-1.38v-2.808c0-.828.374-1.57.962-2.064V8.33a2.666 2.666 0 1 0-5.332 0v10.803c0 6.656 3.453 10.406 8.734 10.844h1.187c2.91-.291 5.907-1.329 8.157-4.547 1.89-3.047 1.648-6.09 1.457-7.876l-.02-.187a95 95 0 0 1-.258-2.826V4.689a2.666 2.666 0 0 0-2.666-2.666"/><path fill="url(#sign-of-the-horns-medium_svg__E)" d="M22.76 2.023a2.666 2.666 0 0 0-2.666 2.666v3.434c.402.467.645 1.074.645 1.738v4.95a2.666 2.666 0 0 1-5.184.879 2.697 2.697 0 0 1-5.016-1.38v-2.808c0-.828.374-1.57.962-2.064V8.33a2.666 2.666 0 1 0-5.332 0v10.803c0 6.656 3.453 10.406 8.734 10.844h1.187c2.91-.291 5.907-1.329 8.157-4.547 1.89-3.047 1.648-6.09 1.457-7.876l-.02-.187a95 95 0 0 1-.258-2.826V4.689a2.666 2.666 0 0 0-2.666-2.666"/><path fill="url(#sign-of-the-horns-medium_svg__F)" d="M22.76 2.023a2.666 2.666 0 0 0-2.666 2.666v3.434c.402.467.645 1.074.645 1.738v4.95a2.666 2.666 0 0 1-5.184.879 2.697 2.697 0 0 1-5.016-1.38v-2.808c0-.828.374-1.57.962-2.064V8.33a2.666 2.666 0 1 0-5.332 0v10.803c0 6.656 3.453 10.406 8.734 10.844h1.187c2.91-.291 5.907-1.329 8.157-4.547 1.89-3.047 1.648-6.09 1.457-7.876l-.02-.187a95 95 0 0 1-.258-2.826V4.689a2.666 2.666 0 0 0-2.666-2.666"/><g filter="url(#sign-of-the-horns-medium_svg__G)"><path stroke="url(#sign-of-the-horns-medium_svg__H)" stroke-linecap="round" d="M9.212 8.574v6.737"/></g><g filter="url(#sign-of-the-horns-medium_svg__I)"><rect width=".851" height="3.453" x="13.541" y="11.395" fill="#C39C88" rx=".426"/></g><g filter="url(#sign-of-the-horns-medium_svg__J)"><rect width="1.367" height="4.626" x="18.456" y="8.988" fill="#CCA487" rx=".684"/></g><defs><radialGradient id="sign-of-the-horns-medium_svg__b" cx="0" cy="0" r="1" gradientTransform="matrix(1.40994 -4.40607 5.09243 1.62958 21.174 16.563)" gradientUnits="userSpaceOnUse"><stop stop-color="#C59E84"/><stop offset="1" stop-color="#C59E84" stop-opacity="0"/></radialGradient><radialGradient id="sign-of-the-horns-medium_svg__c" cx="0" cy="0" r="1" gradientTransform="matrix(-5.26865 0 0 -4.94397 21.72 20.944)" gradientUnits="userSpaceOnUse"><stop stop-color="#C59E84"/><stop offset="1" stop-color="#C59E84" stop-opacity="0"/></radialGradient><radialGradient id="sign-of-the-horns-medium_svg__d" cx="0" cy="0" r="1" gradientTransform="matrix(-7.59133 6.41699 -6.71794 -7.94735 11.579 16)" gradientUnits="userSpaceOnUse"><stop stop-color="#966E62"/><stop offset="1" stop-color="#966E62" stop-opacity="0"/></radialGradient><radialGradient id="sign-of-the-horns-medium_svg__e" cx="0" cy="0" r="1" gradientTransform="rotate(-65.959 29.539 5.063)scale(9.4563 19.4285)" gradientUnits="userSpaceOnUse"><stop stop-color="#AB757E"/><stop offset="1" stop-color="#AB757E" stop-opacity="0"/></radialGradient><radialGradient id="sign-of-the-horns-medium_svg__h" cx="0" cy="0" r="1" gradientTransform="rotate(135.049 4.383 8.794)scale(6.13815 3.77004)" gradientUnits="userSpaceOnUse"><stop stop-color="#704546"/><stop offset="1" stop-color="#704546" stop-opacity="0"/></radialGradient><radialGradient id="sign-of-the-horns-medium_svg__i" cx="0" cy="0" r="1" gradientTransform="matrix(2.07716 0 0 1.61948 9.993 7.683)" gradientUnits="userSpaceOnUse"><stop stop-color="#CAA388"/><stop offset="1" stop-color="#CAA388" stop-opacity="0"/></radialGradient><radialGradient id="sign-of-the-horns-medium_svg__j" cx="0" cy="0" r="1" gradientTransform="matrix(2.5 0 0 2.21875 24.115 4.066)" gradientUnits="userSpaceOnUse"><stop stop-color="#D0A98D"/><stop offset="1" stop-color="#D0A98D" stop-opacity="0"/></radialGradient><radialGradient id="sign-of-the-horns-medium_svg__m" cx="0" cy="0" r="1" gradientTransform="matrix(-1.31357 .85703 -1.14666 -1.7575 16.011 9.946)" gradientUnits="userSpaceOnUse"><stop offset=".215" stop-color="#5C402E"/><stop offset="1" stop-color="#5C402E" stop-opacity="0"/></radialGradient><radialGradient id="sign-of-the-horns-medium_svg__n" cx="0" cy="0" r="1" gradientTransform="matrix(0 -2.59464 4.68444 0 12.966 16.686)" gradientUnits="userSpaceOnUse"><stop stop-color="#92596D"/><stop offset="1" stop-color="#92596D" stop-opacity="0"/></radialGradient><radialGradient id="sign-of-the-horns-medium_svg__p" cx="0" cy="0" r="1" gradientTransform="rotate(160.412 8.673 7.703)scale(9.71985 13.8653)" gradientUnits="userSpaceOnUse"><stop offset=".889" stop-color="#976E63" stop-opacity="0"/><stop offset="1" stop-color="#976E63"/></radialGradient><radialGradient id="sign-of-the-horns-medium_svg__u" cx="0" cy="0" r="1" gradientTransform="rotate(111.558 5.796 15.274)scale(5.65391 17.3668)" gradientUnits="userSpaceOnUse"><stop stop-color="#BF9676"/><stop offset="1" stop-color="#9A6073"/></radialGradient><radialGradient id="sign-of-the-horns-medium_svg__w" cx="0" cy="0" r="1" gradientTransform="rotate(111.558 5.796 15.274)scale(5.65391 17.3668)" gradientUnits="userSpaceOnUse"><stop stop-color="#BF9676"/><stop offset="1" stop-color="#9A6073"/></radialGradient><radialGradient id="sign-of-the-horns-medium_svg__y" cx="0" cy="0" r="1" gradientTransform="matrix(-6.05883 0 0 -12.0286 20.675 16.795)" gradientUnits="userSpaceOnUse"><stop offset=".838" stop-color="#936B61" stop-opacity="0"/><stop offset="1" stop-color="#936B61"/></radialGradient><radialGradient id="sign-of-the-horns-medium_svg__z" cx="0" cy="0" r="1" gradientTransform="matrix(-6.05883 0 0 -12.0286 20.675 16.795)" gradientUnits="userSpaceOnUse"><stop offset=".838" stop-color="#936B61" stop-opacity="0"/><stop offset="1" stop-color="#936B61"/></radialGradient><radialGradient id="sign-of-the-horns-medium_svg__D" cx="0" cy="0" r="1" gradientTransform="matrix(22.82617 10.50104 -11.16142 24.26165 3.886 11.694)" gradientUnits="userSpaceOnUse"><stop offset=".898" stop-color="#C79D81" stop-opacity="0"/><stop offset="1" stop-color="#C79D81"/></radialGradient><radialGradient id="sign-of-the-horns-medium_svg__F" cx="0" cy="0" r="1" gradientTransform="matrix(-3.73897 19.88493 -15.06185 -2.83208 18.037 10.577)" gradientUnits="userSpaceOnUse"><stop offset=".839" stop-color="#9A597F" stop-opacity="0"/><stop offset="1" stop-color="#9A597F"/></radialGradient><linearGradient id="sign-of-the-horns-medium_svg__l" x1="11.572" x2="14.593" y1="11.551" y2="11.561" gradientUnits="userSpaceOnUse"><stop stop-color="#997461"/><stop offset="1" stop-color="#B28D71"/></linearGradient><linearGradient id="sign-of-the-horns-medium_svg__o" x1="15.126" x2="14.757" y1="12.906" y2="12.906" gradientUnits="userSpaceOnUse"><stop stop-color="#6B4732"/><stop offset="1" stop-color="#6B4732" stop-opacity="0"/></linearGradient><linearGradient id="sign-of-the-horns-medium_svg__r" x1="16.031" x2="20.468" y1="10.638" y2="10.638" gradientUnits="userSpaceOnUse"><stop stop-color="#97755F"/><stop offset="1" stop-color="#C79E7D"/></linearGradient><linearGradient id="sign-of-the-horns-medium_svg__s" x1="20.939" x2="17.802" y1="11.495" y2="11.495" gradientUnits="userSpaceOnUse"><stop stop-color="#CAA083"/><stop offset="1" stop-color="#CAA083" stop-opacity="0"/></linearGradient><linearGradient id="sign-of-the-horns-medium_svg__v" x1="24.37" x2="21.365" y1="22.688" y2="20.179" gradientUnits="userSpaceOnUse"><stop offset=".249" stop-color="#B18277"/><stop offset="1" stop-color="#B18277" stop-opacity="0"/></linearGradient><linearGradient id="sign-of-the-horns-medium_svg__x" x1="24.37" x2="21.365" y1="22.688" y2="20.179" gradientUnits="userSpaceOnUse"><stop offset=".249" stop-color="#B18277"/><stop offset="1" stop-color="#B18277" stop-opacity="0"/></linearGradient><linearGradient id="sign-of-the-horns-medium_svg__B" x1="17.802" x2="25.147" y1="16.241" y2="18.953" gradientUnits="userSpaceOnUse"><stop stop-color="#CEA58D"/><stop offset="1" stop-color="#CEA58D" stop-opacity="0"/></linearGradient><linearGradient id="sign-of-the-horns-medium_svg__C" x1="26.12" x2="23.557" y1="16.723" y2="16.723" gradientUnits="userSpaceOnUse"><stop stop-color="#C49D81"/><stop offset="1" stop-color="#C49D81" stop-opacity="0"/></linearGradient><linearGradient id="sign-of-the-horns-medium_svg__E" x1="6.006" x2="6.834" y1="16.752" y2="16.752" gradientUnits="userSpaceOnUse"><stop stop-color="#916A5F"/><stop offset="1" stop-color="#916A5F" stop-opacity="0"/></linearGradient><linearGradient id="sign-of-the-horns-medium_svg__H" x1="9.844" x2="9.893" y1="8.258" y2="17.402" gradientUnits="userSpaceOnUse"><stop stop-color="#C9A286"/><stop offset="1" stop-color="#C9A286" stop-opacity="0"/></linearGradient><filter id="sign-of-the-horns-medium_svg__a" width="20.413" height="28.703" x="6.169" y="1.273" color-interpolation-filters="sRGB" filterUnits="userSpaceOnUse"><feFlood flood-opacity="0" result="BackgroundImageFix"/><feBlend in="SourceGraphic" in2="BackgroundImageFix" result="shape"/><feColorMatrix in="SourceAlpha" result="hardAlpha" values="0 0 0 0 0 0 0 0 0 0 0 0 0 0 0 0 0 0 127 0"/><feOffset dx=".75" dy="-.75"/><feGaussianBlur stdDeviation="1.25"/><feComposite in2="hardAlpha" k2="-1" k3="1" operator="arithmetic"/><feColorMatrix values="0 0 0 0 0.545098 0 0 0 0 0.392157 0 0 0 0 0.321569 0 0 0 1 0"/><feBlend in2="shape" result="effect1_innerShadow_20020_2528"/></filter><filter id="sign-of-the-horns-medium_svg__f" width="14.875" height="9.703" x="11.249" y="13.252" color-interpolation-filters="sRGB" filterUnits="userSpaceOnUse"><feFlood flood-opacity="0" result="BackgroundImageFix"/><feBlend in="SourceGraphic" in2="BackgroundImageFix" result="shape"/><feGaussianBlur result="effect1_foregroundBlur_20020_2528" stdDeviation="1"/></filter><filter id="sign-of-the-horns-medium_svg__g" width="10.099" height="10.995" x="7.564" y="8.959" color-interpolation-filters="sRGB" filterUnits="userSpaceOnUse"><feFlood flood-opacity="0" result="BackgroundImageFix"/><feBlend in="SourceGraphic" in2="BackgroundImageFix" result="shape"/><feGaussianBlur result="effect1_foregroundBlur_20020_2528" stdDeviation="1"/></filter><filter id="sign-of-the-horns-medium_svg__k" width="6.145" height="8.953" x="10.268" y="8.055" color-interpolation-filters="sRGB" filterUnits="userSpaceOnUse"><feFlood flood-opacity="0" result="BackgroundImageFix"/><feBlend in="SourceGraphic" in2="BackgroundImageFix" result="shape"/><feColorMatrix in="SourceAlpha" result="hardAlpha" values="0 0 0 0 0 0 0 0 0 0 0 0 0 0 0 0 0 0 127 0"/><feOffset dx=".75" dy="-.75"/><feGaussianBlur stdDeviation="1"/><feComposite in2="hardAlpha" k2="-1" k3="1" operator="arithmetic"/><feColorMatrix values="0 0 0 0 0.54902 0 0 0 0 0.419608 0 0 0 0 0.32549 0 0 0 1 0"/><feBlend in2="shape" result="effect1_innerShadow_20020_2528"/></filter><filter id="sign-of-the-horns-medium_svg__q" width="6.082" height="11.031" x="15.136" y="6.445" color-interpolation-filters="sRGB" filterUnits="userSpaceOnUse"><feFlood flood-opacity="0" result="BackgroundImageFix"/><feBlend in="SourceGraphic" in2="BackgroundImageFix" result="shape"/><feColorMatrix in="SourceAlpha" result="hardAlpha" values="0 0 0 0 0 0 0 0 0 0 0 0 0 0 0 0 0 0 127 0"/><feOffset dx=".75" dy="-.75"/><feGaussianBlur stdDeviation="1"/><feComposite in2="hardAlpha" k2="-1" k3="1" operator="arithmetic"/><feColorMatrix values="0 0 0 0 0.495833 0 0 0 0 0.385492 0 0 0 0 0.301632 0 0 0 1 0"/><feBlend in2="shape" result="effect1_innerShadow_20020_2528"/></filter><filter id="sign-of-the-horns-medium_svg__t" width="5.5" height="19.063" x="20.505" y="1.852" color-interpolation-filters="sRGB" filterUnits="userSpaceOnUse"><feFlood flood-opacity="0" result="BackgroundImageFix"/><feBlend in="SourceGraphic" in2="BackgroundImageFix" result="shape"/><feGaussianBlur result="effect1_foregroundBlur_20020_2528" stdDeviation="1"/></filter><filter id="sign-of-the-horns-medium_svg__A" width="11.654" height="8.746" x="15.351" y="13.791" color-interpolation-filters="sRGB" filterUnits="userSpaceOnUse"><feFlood flood-opacity="0" result="BackgroundImageFix"/><feBlend in="SourceGraphic" in2="BackgroundImageFix" result="shape"/><feGaussianBlur result="effect1_foregroundBlur_20020_2528" stdDeviation=".85"/></filter><filter id="sign-of-the-horns-medium_svg__G" width="3" height="9.736" x="7.712" y="7.074" color-interpolation-filters="sRGB" filterUnits="userSpaceOnUse"><feFlood flood-opacity="0" result="BackgroundImageFix"/><feBlend in="SourceGraphic" in2="BackgroundImageFix" result="shape"/><feGaussianBlur result="effect1_foregroundBlur_20020_2528" stdDeviation=".5"/></filter><filter id="sign-of-the-horns-medium_svg__I" width="2.851" height="5.453" x="12.541" y="10.395" color-interpolation-filters="sRGB" filterUnits="userSpaceOnUse"><feFlood flood-opacity="0" result="BackgroundImageFix"/><feBlend in="SourceGraphic" in2="BackgroundImageFix" result="shape"/><feGaussianBlur result="effect1_foregroundBlur_20020_2528" stdDeviation=".5"/></filter><filter id="sign-of-the-horns-medium_svg__J" width="3.367" height="6.626" x="17.456" y="7.988" color-interpolation-filters="sRGB" filterUnits="userSpaceOnUse"><feFlood flood-opacity="0" result="BackgroundImageFix"/><feBlend in="SourceGraphic" in2="BackgroundImageFix" result="shape"/><feGaussianBlur result="effect1_foregroundBlur_20020_2528" stdDeviation=".5"/></filter></defs></svg>