<svg xmlns="http://www.w3.org/2000/svg" fill="none" viewBox="0 0 32 32"><g filter="url(#skateboard_svg__a)"><path fill="#CA2161" d="M24.985 18a2 2 0 1 0 0-4 2 2 0 0 0 0 4"/></g><g filter="url(#skateboard_svg__b)"><path fill="#CA2161" d="M15.005 28a2 2 0 1 0 0-4 2 2 0 0 0 0 4"/></g><path fill="url(#skateboard_svg__c)" d="M28.005 3c-.73-.47-1.65-.73-1.78-.77-1.79-.51-2.85 1.29-3.68 3.02-.47.97-1.1 1.87-1.88 2.66L8.275 20.46c-.86.87-1.87 1.57-2.96 2.08-1.17.54-3.31 2.46-3.31 2.46v.55c0 1.45.71 2.83 1.94 3.61.75.47 1.75.84 3.06.84l1-.02c2.58-.1 4.92-1.18 6.74-3.02l12.09-12.27c1.93-1.96 3.17-4.94 3.17-7.69 0-1.24-.21-2.83-2-4"/><path fill="url(#skateboard_svg__d)" d="M26.385 2.27c-1.9-.8-4.26.03-5.16 1.89-.47.97-1.13 1.67-1.91 2.46L6.965 18.93c-.86.87-1.33 1.37-2.43 1.87-2.04.92-2.73 2.62-2.53 4.21.25 2.03 2.56 4.07 5 3.97l.47.01c2.58-.1 4.6-.79 6.42-2.63l12.19-12.73c1.97-2 3.02-4.72 2.91-7.52a4.34 4.34 0 0 0-2.61-3.84"/><path fill="url(#skateboard_svg__e)" d="M20.505 8.98a.5.5 0 1 0 0-1 .5.5 0 0 0 0 1"/><path fill="url(#skateboard_svg__f)" d="M23.505 12a.5.5 0 1 0 0-1 .5.5 0 0 0 0 1"/><path fill="url(#skateboard_svg__g)" d="M18.505 10.98a.5.5 0 1 0 0-1 .5.5 0 0 0 0 1"/><path fill="url(#skateboard_svg__h)" d="M21.505 14a.5.5 0 1 0 0-1 .5.5 0 0 0 0 1"/><path fill="url(#skateboard_svg__i)" d="M10.505 19a.5.5 0 1 0 0-1 .5.5 0 0 0 0 1"/><path fill="url(#skateboard_svg__j)" d="M13.505 22a.5.5 0 1 0 0-1 .5.5 0 0 0 0 1"/><path fill="url(#skateboard_svg__k)" d="M8.505 21a.5.5 0 1 0 0-1 .5.5 0 0 0 0 1"/><path fill="url(#skateboard_svg__l)" d="M11.505 24a.5.5 0 1 0 0-1 .5.5 0 0 0 0 1"/><defs><radialGradient id="skateboard_svg__e" cx="0" cy="0" r="1" gradientTransform="matrix(.42846 -.50096 .5531 .47305 20.37 8.603)" gradientUnits="userSpaceOnUse"><stop stop-color="#323133"/><stop offset="1" stop-color="#0E0C12"/></radialGradient><radialGradient id="skateboard_svg__f" cx="0" cy="0" r="1" gradientTransform="rotate(-49.461 24.303 -19.558)scale(.6592 .7278)" gradientUnits="userSpaceOnUse"><stop stop-color="#323133"/><stop offset="1" stop-color="#0E0C12"/></radialGradient><radialGradient id="skateboard_svg__g" cx="0" cy="0" r="1" gradientTransform="rotate(-49.461 20.696 -14.64)scale(.6592 .7278)" gradientUnits="userSpaceOnUse"><stop stop-color="#323133"/><stop offset="1" stop-color="#0E0C12"/></radialGradient><radialGradient id="skateboard_svg__h" cx="0" cy="0" r="1" gradientTransform="rotate(-49.461 25.474 -16.387)scale(.6592 .7278)" gradientUnits="userSpaceOnUse"><stop stop-color="#323133"/><stop offset="1" stop-color="#0E0C12"/></radialGradient><radialGradient id="skateboard_svg__i" cx="0" cy="0" r="1" gradientTransform="rotate(-49.461 25.402 -1.946)scale(.6592 .7278)" gradientUnits="userSpaceOnUse"><stop stop-color="#323133"/><stop offset="1" stop-color="#0E0C12"/></radialGradient><radialGradient id="skateboard_svg__j" cx="0" cy="0" r="1" gradientTransform="rotate(-49.461 30.158 -3.702)scale(.6592 .7278)" gradientUnits="userSpaceOnUse"><stop stop-color="#323133"/><stop offset="1" stop-color="#0E0C12"/></radialGradient><radialGradient id="skateboard_svg__k" cx="0" cy="0" r="1" gradientTransform="rotate(-49.461 26.573 1.225)scale(.6592 .7278)" gradientUnits="userSpaceOnUse"><stop stop-color="#323133"/><stop offset="1" stop-color="#0E0C12"/></radialGradient><radialGradient id="skateboard_svg__l" cx="0" cy="0" r="1" gradientTransform="rotate(-49.461 31.33 -.531)scale(.6592 .7278)" gradientUnits="userSpaceOnUse"><stop stop-color="#323133"/><stop offset="1" stop-color="#0E0C12"/></radialGradient><linearGradient id="skateboard_svg__c" x1="8.123" x2="26.875" y1="23.981" y2="5.118" gradientUnits="userSpaceOnUse"><stop stop-color="#89503B"/><stop offset="1" stop-color="#F0D2A4"/></linearGradient><linearGradient id="skateboard_svg__d" x1="24.104" x2="6.835" y1="7.638" y2="24.908" gradientUnits="userSpaceOnUse"><stop stop-color="#5A4D82"/><stop offset="1" stop-color="#503E5F"/></linearGradient><filter id="skateboard_svg__a" width="4.55" height="4.7" x="22.735" y="13.7" color-interpolation-filters="sRGB" filterUnits="userSpaceOnUse"><feFlood flood-opacity="0" result="BackgroundImageFix"/><feBlend in="SourceGraphic" in2="BackgroundImageFix" result="shape"/><feColorMatrix in="SourceAlpha" result="hardAlpha" values="0 0 0 0 0 0 0 0 0 0 0 0 0 0 0 0 0 0 127 0"/><feOffset dx=".3" dy="-.3"/><feGaussianBlur stdDeviation=".25"/><feComposite in2="hardAlpha" k2="-1" k3="1" operator="arithmetic"/><feColorMatrix values="0 0 0 0 0.584314 0 0 0 0 0.227451 0 0 0 0 0.309804 0 0 0 1 0"/><feBlend in2="shape" result="effect1_innerShadow_18_11510"/><feColorMatrix in="SourceAlpha" result="hardAlpha" values="0 0 0 0 0 0 0 0 0 0 0 0 0 0 0 0 0 0 127 0"/><feOffset dx="-.25" dy=".4"/><feGaussianBlur stdDeviation=".2"/><feComposite in2="hardAlpha" k2="-1" k3="1" operator="arithmetic"/><feColorMatrix values="0 0 0 0 0.87451 0 0 0 0 0.290196 0 0 0 0 0.513726 0 0 0 1 0"/><feBlend in2="effect1_innerShadow_18_11510" result="effect2_innerShadow_18_11510"/></filter><filter id="skateboard_svg__b" width="4.55" height="4.7" x="12.755" y="23.7" color-interpolation-filters="sRGB" filterUnits="userSpaceOnUse"><feFlood flood-opacity="0" result="BackgroundImageFix"/><feBlend in="SourceGraphic" in2="BackgroundImageFix" result="shape"/><feColorMatrix in="SourceAlpha" result="hardAlpha" values="0 0 0 0 0 0 0 0 0 0 0 0 0 0 0 0 0 0 127 0"/><feOffset dx=".3" dy="-.3"/><feGaussianBlur stdDeviation=".25"/><feComposite in2="hardAlpha" k2="-1" k3="1" operator="arithmetic"/><feColorMatrix values="0 0 0 0 0.584314 0 0 0 0 0.227451 0 0 0 0 0.309804 0 0 0 1 0"/><feBlend in2="shape" result="effect1_innerShadow_18_11510"/><feColorMatrix in="SourceAlpha" result="hardAlpha" values="0 0 0 0 0 0 0 0 0 0 0 0 0 0 0 0 0 0 127 0"/><feOffset dx="-.25" dy=".4"/><feGaussianBlur stdDeviation=".2"/><feComposite in2="hardAlpha" k2="-1" k3="1" operator="arithmetic"/><feColorMatrix values="0 0 0 0 0.87451 0 0 0 0 0.290196 0 0 0 0 0.513726 0 0 0 1 0"/><feBlend in2="effect1_innerShadow_18_11510" result="effect2_innerShadow_18_11510"/></filter></defs></svg>