<svg width="32" height="32" fill="none" xmlns="http://www.w3.org/2000/svg"><g filter="url(#a)"><path d="M23.304 5.696 20.5 8.5V12H23l3.304-3.304a2.5 2.5 0 1 0 1.654-4.654 2.5 2.5 0 1 0-4.654 1.654Z" fill="url(#b)"/></g><g filter="url(#c)"><path d="M8.696 5.696 11.5 8.5V12H9L5.696 8.696a2.5 2.5 0 1 1-1.654-4.654 2.5 2.5 0 1 1 4.654 1.654Z" fill="url(#d)"/></g><path d="M6 6.5c.5-.5 2.706-.81 2.706-.81L11.5 8.5l1.5 5s-5.794-5.611-7-7Z" fill="url(#e)"/><path fill="url(#f)" d="M4 4.5a2.5 2.5 0 1 0 5 0 2.5 2.5 0 1 0-5 0"/><g filter="url(#g)"><path fill="#EAE0E7" d="M3.5 6.25a1.25 1.25 0 1 0 2.5 0 1.25 1.25 0 1 0-2.5 0"/></g><path d="M8.696 5.696 11.5 8.5V12H9L5.696 8.696a2.5 2.5 0 1 1-1.654-4.654 2.5 2.5 0 1 1 4.654 1.654Z" fill="url(#h)"/><g filter="url(#i)"><path d="M26.304 23.304 23.5 20.5H20V23l3.304 3.304a2.5 2.5 0 1 0 4.654 1.654 2.5 2.5 0 1 0-1.654-4.654Z" fill="url(#j)"/></g><path d="M25.5 26c.5-.5.81-2.706.81-2.706L23.5 20.5l-5-1.5s5.611 5.794 7 7Z" fill="url(#k)"/><path transform="matrix(0 -1 -1 0 27.5 25.5)" fill="url(#l)" d="M-2.5 0a2.5 2.5 0 1 0 5 0 2.5 2.5 0 1 0-5 0"/><g filter="url(#m)"><path fill="#EAE0E7" d="M25.75 28.5a1.25 1.25 0 1 0 0-2.5 1.25 1.25 0 1 0 0 2.5"/></g><g filter="url(#n)"><path d="M4.356 27.668c-1.3 0-2.356-1.031-2.356-2.312s1.056-2.322 2.356-2.322c.498 0 .955.15 1.341.41L10.126 19 13 21.833l-4.428 4.444c.304.39.487.87.487 1.4C9.06 28.96 8.003 30 6.703 30a2.34 2.34 0 0 1-2.347-2.332Z" fill="url(#o)"/></g><g filter="url(#p)"><path d="m25.5 7-3 3" stroke="#F1ECF2"/></g><path d="M4.356 27.668c-1.3 0-2.356-1.031-2.356-2.312s1.056-2.322 2.356-2.322c.498 0 .955.15 1.341.41L10.126 19 13 21.833l-4.428 4.444c.304.39.487.87.487 1.4C9.06 28.96 8.003 30 6.703 30a2.34 2.34 0 0 1-2.347-2.332Z" fill="url(#q)"/><g filter="url(#r)"><path d="M16 6.04c-5.52 0-10 4.48-10 10 0 3.7 2.01 4.69 5 4.95v3.51a1.5 1.5 0 0 0 1.5 1.5h.06A1.44 1.44 0 0 0 14 24.56V23.5a.5.5 0 0 1 1 0V25a1 1 0 1 0 2 0v-1.5a.5.5 0 0 1 1 0v1.06c0 .795.645 1.44 1.44 1.44h.06a1.5 1.5 0 0 0 1.5-1.5v-3.51c2.99-.25 5-1.25 5-4.95 0-5.53-4.48-10-10-10Z" fill="url(#s)"/></g><path d="M16 6.04c-5.52 0-10 4.48-10 10 0 3.7 2.01 4.69 5 4.95v3.51a1.5 1.5 0 0 0 1.5 1.5h.06A1.44 1.44 0 0 0 14 24.56V23.5a.5.5 0 0 1 1 0V25a1 1 0 1 0 2 0v-1.5a.5.5 0 0 1 1 0v1.06c0 .795.645 1.44 1.44 1.44h.06a1.5 1.5 0 0 0 1.5-1.5v-3.51c2.99-.25 5-1.25 5-4.95 0-5.53-4.48-10-10-10Z" fill="url(#t)"/><path fill-rule="evenodd" clip-rule="evenodd" d="M15.646 25.936c.22-.523.354-1.198.354-1.936 0-1.657-.672-3-1.5-3S13 22.343 13 24c0 .674.111 1.296.299 1.796A1.44 1.44 0 0 0 14 24.56V23.5a.5.5 0 0 1 1 0V25a1 1 0 0 0 .646.936Z" fill="url(#u)"/><g opacity=".5" filter="url(#v)"><path fill="#fff" d="M13 22.5s.5 0 .5.5v2s0 .5-.5.5-.5 0-.5-.5v-2s0-.5.5-.5"/></g><g opacity=".5" filter="url(#w)"><path fill="#fff" d="M16 21.5s.5 0 .5.5v3s0 .5-.5.5-.5 0-.5-.5v-3s0-.5.5-.5"/></g><g opacity=".64" filter="url(#x)"><path fill="#fff" d="M19.875 20.5s.875 0 .875.875v3.25s0 .875-.875.875-.875 0-.875-.875v-3.25s0-.875.875-.875"/></g><path fill-rule="evenodd" clip-rule="evenodd" d="M18.701 25.796c.188-.5.299-1.122.299-1.796 0-1.657-.672-3-1.5-3S16 22.343 16 24c0 .738.133 1.413.354 1.936A1 1 0 0 0 17 25v-1.5a.5.5 0 1 1 1 0v1.06c0 .525.281.985.701 1.236Z" fill="url(#y)"/><path d="M14 16.777C14 18.58 12.545 19 10.755 19S7.5 18.58 7.5 16.777c0-1.802 1.455-3.277 3.255-3.277 1.8 0 3.245 1.465 3.245 3.277Z" fill="url(#z)"/><path d="M24.38 16.773c0 1.806-1.43 2.227-3.19 2.227S18 18.58 18 16.773c0-1.806 1.43-3.273 3.19-3.273 1.76-.01 3.19 1.457 3.19 3.273Z" fill="url(#A)"/><path d="M16.575 20h-1.15c-.287 0-.499-.33-.4-.642l.211-.726c.107-.377.417-.632.76-.632.342 0 .644.255.759.623l.22.726c.098.311-.106.651-.4.651Z" fill="url(#B)"/><g filter="url(#C)"><path fill="#F7F5F8" d="M25 4.25a1.25 1.75 0 1 0 2.5 0 1.25 1.75 0 1 0-2.5 0"/></g><g filter="url(#D)"><path fill="#F6F4F7" d="M27.5 6a1 1 0 1 0 2 0 1 1 0 1 0-2 0"/></g><defs><filter id="a" x="20.5" y="1.75" width="9.75" height="10.25" filterUnits="userSpaceOnUse" color-interpolation-filters="sRGB"><feFlood flood-opacity="0" result="BackgroundImageFix"/><feBlend in="SourceGraphic" in2="BackgroundImageFix" result="shape"/><feColorMatrix in="SourceAlpha" values="0 0 0 0 0 0 0 0 0 0 0 0 0 0 0 0 0 0 127 0" result="hardAlpha"/><feOffset dx=".25" dy="-.25"/><feGaussianBlur stdDeviation=".5"/><feComposite in2="hardAlpha" operator="arithmetic" k2="-1" k3="1"/><feColorMatrix values="0 0 0 0 0.748624 0 0 0 0 0.67744 0 0 0 0 0.811898 0 0 0 1 0"/><feBlend in2="shape" result="effect1_innerShadow_31_1457"/></filter><filter id="c" x="2" y="1.75" width="9.75" height="10.25" filterUnits="userSpaceOnUse" color-interpolation-filters="sRGB"><feFlood flood-opacity="0" result="BackgroundImageFix"/><feBlend in="SourceGraphic" in2="BackgroundImageFix" result="shape"/><feColorMatrix in="SourceAlpha" values="0 0 0 0 0 0 0 0 0 0 0 0 0 0 0 0 0 0 127 0" result="hardAlpha"/><feOffset dx=".25" dy="-.25"/><feGaussianBlur stdDeviation=".5"/><feComposite in2="hardAlpha" operator="arithmetic" k2="-1" k3="1"/><feColorMatrix values="0 0 0 0 0.778564 0 0 0 0 0.701532 0 0 0 0 0.771562 0 0 0 1 0"/><feBlend in2="shape" result="effect1_innerShadow_31_1457"/></filter><filter id="g" x="2.5" y="4" width="4.5" height="4.5" filterUnits="userSpaceOnUse" color-interpolation-filters="sRGB"><feFlood flood-opacity="0" result="BackgroundImageFix"/><feBlend in="SourceGraphic" in2="BackgroundImageFix" result="shape"/><feGaussianBlur stdDeviation=".5" result="effect1_foregroundBlur_31_1457"/></filter><filter id="i" x="20" y="20.25" width="10.25" height="9.75" filterUnits="userSpaceOnUse" color-interpolation-filters="sRGB"><feFlood flood-opacity="0" result="BackgroundImageFix"/><feBlend in="SourceGraphic" in2="BackgroundImageFix" result="shape"/><feColorMatrix in="SourceAlpha" values="0 0 0 0 0 0 0 0 0 0 0 0 0 0 0 0 0 0 127 0" result="hardAlpha"/><feOffset dx=".25" dy="-.25"/><feGaussianBlur stdDeviation=".5"/><feComposite in2="hardAlpha" operator="arithmetic" k2="-1" k3="1"/><feColorMatrix values="0 0 0 0 0.798011 0 0 0 0 0.68505 0 0 0 0 0.882731 0 0 0 1 0"/><feBlend in2="shape" result="effect1_innerShadow_31_1457"/></filter><filter id="m" x="23.5" y="25" width="4.5" height="4.5" filterUnits="userSpaceOnUse" color-interpolation-filters="sRGB"><feFlood flood-opacity="0" result="BackgroundImageFix"/><feBlend in="SourceGraphic" in2="BackgroundImageFix" result="shape"/><feGaussianBlur stdDeviation=".5" result="effect1_foregroundBlur_31_1457"/></filter><filter id="n" x="2" y="18.75" width="11.25" height="11.25" filterUnits="userSpaceOnUse" color-interpolation-filters="sRGB"><feFlood flood-opacity="0" result="BackgroundImageFix"/><feBlend in="SourceGraphic" in2="BackgroundImageFix" result="shape"/><feColorMatrix in="SourceAlpha" values="0 0 0 0 0 0 0 0 0 0 0 0 0 0 0 0 0 0 127 0" result="hardAlpha"/><feOffset dx=".25" dy="-.25"/><feGaussianBlur stdDeviation=".5"/><feComposite in2="hardAlpha" operator="arithmetic" k2="-1" k3="1"/><feColorMatrix values="0 0 0 0 0.789604 0 0 0 0 0.632853 0 0 0 0 0.886898 0 0 0 1 0"/><feBlend in2="shape" result="effect1_innerShadow_31_1457"/></filter><filter id="p" x="21.146" y="5.646" width="5.707" height="5.707" filterUnits="userSpaceOnUse" color-interpolation-filters="sRGB"><feFlood flood-opacity="0" result="BackgroundImageFix"/><feBlend in="SourceGraphic" in2="BackgroundImageFix" result="shape"/><feGaussianBlur stdDeviation=".5" result="effect1_foregroundBlur_31_1457"/></filter><filter id="r" x="6" y="5.04" width="21" height="20.96" filterUnits="userSpaceOnUse" color-interpolation-filters="sRGB"><feFlood flood-opacity="0" result="BackgroundImageFix"/><feBlend in="SourceGraphic" in2="BackgroundImageFix" result="shape"/><feColorMatrix in="SourceAlpha" values="0 0 0 0 0 0 0 0 0 0 0 0 0 0 0 0 0 0 127 0" result="hardAlpha"/><feOffset dx="1" dy="-1"/><feGaussianBlur stdDeviation="1.5"/><feComposite in2="hardAlpha" operator="arithmetic" k2="-1" k3="1"/><feColorMatrix values="0 0 0 0 0.801456 0 0 0 0 0.658291 0 0 0 0 0.911898 0 0 0 1 0"/><feBlend in2="shape" result="effect1_innerShadow_31_1457"/></filter><filter id="v" x="11.5" y="21.5" width="3" height="5" filterUnits="userSpaceOnUse" color-interpolation-filters="sRGB"><feFlood flood-opacity="0" result="BackgroundImageFix"/><feBlend in="SourceGraphic" in2="BackgroundImageFix" result="shape"/><feGaussianBlur stdDeviation=".5" result="effect1_foregroundBlur_31_1457"/></filter><filter id="w" x="14.5" y="20.5" width="3" height="6" filterUnits="userSpaceOnUse" color-interpolation-filters="sRGB"><feFlood flood-opacity="0" result="BackgroundImageFix"/><feBlend in="SourceGraphic" in2="BackgroundImageFix" result="shape"/><feGaussianBlur stdDeviation=".5" result="effect1_foregroundBlur_31_1457"/></filter><filter id="x" x="18" y="19.5" width="3.75" height="7" filterUnits="userSpaceOnUse" color-interpolation-filters="sRGB"><feFlood flood-opacity="0" result="BackgroundImageFix"/><feBlend in="SourceGraphic" in2="BackgroundImageFix" result="shape"/><feGaussianBlur stdDeviation=".5" result="effect1_foregroundBlur_31_1457"/></filter><filter id="C" x="24" y="1.5" width="4.5" height="5.5" filterUnits="userSpaceOnUse" color-interpolation-filters="sRGB"><feFlood flood-opacity="0" result="BackgroundImageFix"/><feBlend in="SourceGraphic" in2="BackgroundImageFix" result="shape"/><feGaussianBlur stdDeviation=".5" result="effect1_foregroundBlur_31_1457"/></filter><filter id="D" x="26.5" y="4" width="4" height="4" filterUnits="userSpaceOnUse" color-interpolation-filters="sRGB"><feFlood flood-opacity="0" result="BackgroundImageFix"/><feBlend in="SourceGraphic" in2="BackgroundImageFix" result="shape"/><feGaussianBlur stdDeviation=".5" result="effect1_foregroundBlur_31_1457"/></filter><radialGradient id="b" cx="0" cy="0" r="1" gradientUnits="userSpaceOnUse" gradientTransform="matrix(7.02133 0 0 7.44313 27.325 4.778)"><stop stop-color="#EAE6EC"/><stop offset=".64" stop-color="#E2DCE3"/><stop offset=".989" stop-color="#DAD1D1"/></radialGradient><radialGradient id="f" cx="0" cy="0" r="1" gradientUnits="userSpaceOnUse" gradientTransform="matrix(-2 1.5 -1.5 -2 8 3.5)"><stop stop-color="#fff"/><stop offset="1" stop-color="#F7F4F6" stop-opacity="0"/></radialGradient><radialGradient id="l" cx="0" cy="0" r="1" gradientUnits="userSpaceOnUse" gradientTransform="matrix(-2 1.5 -1.5 -2 4 1.5)"><stop stop-color="#fff"/><stop offset="1" stop-color="#F7F4F6" stop-opacity="0"/></radialGradient><radialGradient id="o" cx="0" cy="0" r="1" gradientUnits="userSpaceOnUse" gradientTransform="rotate(-44.723 35.221 7.31) scale(6.96468 7.06757)"><stop stop-color="#D8C5DE"/><stop offset=".989" stop-color="#BDA1CB"/></radialGradient><radialGradient id="s" cx="0" cy="0" r="1" gradientUnits="userSpaceOnUse" gradientTransform="rotate(125.602 6.865 10.273) scale(18.4048 18.4188)"><stop offset=".213" stop-color="#F2F0F4"/><stop offset=".743" stop-color="#D1BBE0"/></radialGradient><radialGradient id="u" cx="0" cy="0" r="1" gradientUnits="userSpaceOnUse" gradientTransform="matrix(0 2 -.96019 0 14.5 24)"><stop stop-color="#7A6E85"/><stop offset="1" stop-color="#B29EC2" stop-opacity="0"/></radialGradient><radialGradient id="y" cx="0" cy="0" r="1" gradientUnits="userSpaceOnUse" gradientTransform="matrix(0 2 -.96019 0 17.5 24)"><stop stop-color="#7A6E85"/><stop offset="1" stop-color="#B29EC2" stop-opacity="0"/></radialGradient><radialGradient id="z" cx="0" cy="0" r="1" gradientUnits="userSpaceOnUse" gradientTransform="rotate(-48.572 23.646 -2.349) scale(4.39535 5.2277)"><stop offset=".445" stop-color="#3D2C36"/><stop offset="1" stop-color="#1A1016"/></radialGradient><radialGradient id="A" cx="0" cy="0" r="1" gradientUnits="userSpaceOnUse" gradientTransform="matrix(2.85458 -3.2956 3.90996 3.38672 20.22 16.935)"><stop offset=".445" stop-color="#3D2C36"/><stop offset="1" stop-color="#1A1016"/></radialGradient><radialGradient id="B" cx="0" cy="0" r="1" gradientUnits="userSpaceOnUse" gradientTransform="rotate(-53.251 27.046 -6.03) scale(1.49564 1.71894)"><stop offset=".445" stop-color="#3D2C36"/><stop offset="1" stop-color="#1A1016"/></radialGradient><linearGradient id="d" x1="9" y1="2" x2="3.5" y2="10" gradientUnits="userSpaceOnUse"><stop stop-color="#ECE5E6"/><stop offset=".566" stop-color="#E4D8E0"/><stop offset=".988" stop-color="#CFB4CD"/></linearGradient><linearGradient id="e" x1="9.5" y1="8" x2="8.5" y2="9" gradientUnits="userSpaceOnUse"><stop stop-color="#F0EEEF"/><stop offset="1" stop-color="#F3EEF0" stop-opacity="0"/></linearGradient><linearGradient id="h" x1="4.205" y1="6.643" x2=".912" y2="4.996" gradientUnits="userSpaceOnUse"><stop stop-color="#E5C9C5" stop-opacity="0"/><stop offset="1" stop-color="#FFD099"/></linearGradient><linearGradient id="j" x1="30" y1="23" x2="22" y2="28.5" gradientUnits="userSpaceOnUse"><stop stop-color="#ECE5E6"/><stop offset=".566" stop-color="#E0D1EE"/><stop offset=".988" stop-color="#CEB6E1"/></linearGradient><linearGradient id="k" x1="24" y1="22.5" x2="23" y2="23.5" gradientUnits="userSpaceOnUse"><stop stop-color="#F0EEEF"/><stop offset="1" stop-color="#F3EEF0" stop-opacity="0"/></linearGradient><linearGradient id="q" x1="6.5" y1="25.5" x2="3" y2="21" gradientUnits="userSpaceOnUse"><stop stop-color="#E5C9C5" stop-opacity="0"/><stop offset="1" stop-color="#FFD099"/></linearGradient><linearGradient id="t" x1="10.643" y1="15.307" x2="3.863" y2="11.732" gradientUnits="userSpaceOnUse"><stop stop-color="#E5C9C5" stop-opacity="0"/><stop offset="1" stop-color="#FFD099"/></linearGradient></defs></svg>