<svg width="32" height="32" fill="none" xmlns="http://www.w3.org/2000/svg"><g clip-path="url(#a)"><path d="M15.999 29.998c9.334 0 13.999-6.268 13.999-14 0-7.73-4.665-13.998-14-13.998C6.665 2 2 8.268 2 15.999c0 7.731 4.664 13.999 13.999 13.999Z" fill="url(#b)"/><path d="M15.999 29.998c9.334 0 13.999-6.268 13.999-14 0-7.73-4.665-13.998-14-13.998C6.665 2 2 8.268 2 15.999c0 7.731 4.664 13.999 13.999 13.999Z" fill="url(#c)"/><path d="M15.999 29.998c9.334 0 13.999-6.268 13.999-14 0-7.73-4.665-13.998-14-13.998C6.665 2 2 8.268 2 15.999c0 7.731 4.664 13.999 13.999 13.999Z" fill="url(#d)"/><path d="M15.999 29.998c9.334 0 13.999-6.268 13.999-14 0-7.73-4.665-13.998-14-13.998C6.665 2 2 8.268 2 15.999c0 7.731 4.664 13.999 13.999 13.999Z" fill="url(#e)" fill-opacity=".6"/><path d="M15.999 29.998c9.334 0 13.999-6.268 13.999-14 0-7.73-4.665-13.998-14-13.998C6.665 2 2 8.268 2 15.999c0 7.731 4.664 13.999 13.999 13.999Z" fill="url(#f)"/><path d="M15.999 29.998c9.334 0 13.999-6.268 13.999-14 0-7.73-4.665-13.998-14-13.998C6.665 2 2 8.268 2 15.999c0 7.731 4.664 13.999 13.999 13.999Z" fill="url(#g)"/><path d="M15.999 29.998c9.334 0 13.999-6.268 13.999-14 0-7.73-4.665-13.998-14-13.998C6.665 2 2 8.268 2 15.999c0 7.731 4.664 13.999 13.999 13.999Z" fill="url(#h)"/><path d="M15.999 29.998c9.334 0 13.999-6.268 13.999-14 0-7.73-4.665-13.998-14-13.998C6.665 2 2 8.268 2 15.999c0 7.731 4.664 13.999 13.999 13.999Z" fill="url(#i)"/><path d="M3 1.1c1.213-.36 2.5.4 3 .9.5-.5 2.168-1.832 3.75-.25C11.025 3.025 10.5 5 9.5 6.5c-.589.883-2.116 2.272-3.347 3.21-.644.49-1.54.345-2.086-.253C3.143 8.444 1.973 7.145 1.4 6c-1-2 0-4.425 1.6-4.9Z" fill="url(#j)"/><g opacity=".5" filter="url(#k)"><path d="M7.5 11.5s.25-2 2.5-2 2.5 2 2.5 2" stroke="#9A4609" stroke-width="2" stroke-linecap="round"/></g><g opacity=".5" filter="url(#l)"><path d="M18.5 11.5s.5-2 2.5-2 2.5 2 2.5 2" stroke="#9A4609" stroke-width="2" stroke-linecap="round"/></g><path d="M8 11s.25-2 2.5-2 2.5 2 2.5 2" stroke="#43273B" stroke-width="2" stroke-linecap="round" stroke-linejoin="round"/><g opacity=".26" filter="url(#m)"><path d="M8.25 10.75s.25-2 2.5-2 2.5 2 2.5 2" stroke="#fff" stroke-width=".75" stroke-linecap="round" stroke-linejoin="round"/></g><path d="M19 11s.5-2 2.5-2 2.5 2 2.5 2" stroke="#43273B" stroke-width="2" stroke-linecap="round" stroke-linejoin="round"/><g opacity=".26" filter="url(#n)"><path d="M19.25 10.75s.25-2 2.5-2 2.5 2 2.5 2" stroke="#fff" stroke-width=".75" stroke-linecap="round" stroke-linejoin="round"/></g><path d="M4 28c-1.118-1.118-1.5-3-.5-4s3-.5 3-.5.5-1.25 2-1c2 .25 2.25 2.5 1.75 4-.382 1.146-1.307 2.369-1.98 3.156-.431.506-1.167.58-1.717.204C5.628 29.23 4.316 28.316 4 28Z" fill="url(#o)"/><g filter="url(#p)"><path d="M21 18.1c1.5-.5 3.167.9 3.5 1.4.167-.5.9-1.5 2.5-1.5 2 0 .557 2.107 0 3.5-.625 1.562-1.64 3.48-2.314 4.698a.97.97 0 0 1-1.592.156C22.1 25.187 20.572 23.358 20 22.5c-1-1.5-.897-3.767 1-4.4Z" fill="#E4694E"/></g><path d="M23 17.1c1.5-.5 3.167.9 3.5 1.4.167-.5.9-1.5 2.5-1.5 2 0 2.557 2.107 2 3.5-.73 1.826-3.06 4.136-4.264 5.25a.956.956 0 0 1-1.381-.09c-.963-1.126-2.73-3.222-3.355-4.16-1-1.5-.897-3.767 1-4.4Z" fill="url(#q)"/><path d="M12 16c0 1.333.8 4 4 4s4-2.667 4-4" stroke="url(#r)" stroke-width="2" stroke-linecap="round"/><g opacity=".8" filter="url(#s)"><path d="M9.5 2.5 7 5" stroke="#fff"/></g><g opacity=".8" filter="url(#t)"><path d="m25 18.5 2.5 3 2-2.5" stroke="#fff"/></g><g filter="url(#u)"><circle cx="8.5" cy="24.5" r="1" fill="#fff"/></g><g opacity=".6" filter="url(#v)"><path d="M7.5 29.5 9 26" stroke="#F944A5" stroke-width="2"/></g><g filter="url(#w)"><path d="M26.5 24.5 23 20" stroke="#F944A5"/></g><g filter="url(#x)"><path d="M5.5 8.5 8 6" stroke="#F944A5"/></g></g><defs><filter id="k" x="5" y="7" width="10" height="7" filterUnits="userSpaceOnUse" color-interpolation-filters="sRGB"><feFlood flood-opacity="0" result="BackgroundImageFix"/><feBlend in="SourceGraphic" in2="BackgroundImageFix" result="shape"/><feGaussianBlur stdDeviation=".75" result="effect1_foregroundBlur_20_194"/></filter><filter id="l" x="16" y="7" width="10.001" height="7" filterUnits="userSpaceOnUse" color-interpolation-filters="sRGB"><feFlood flood-opacity="0" result="BackgroundImageFix"/><feBlend in="SourceGraphic" in2="BackgroundImageFix" result="shape"/><feGaussianBlur stdDeviation=".75" result="effect1_foregroundBlur_20_194"/></filter><filter id="m" x="6.375" y="6.875" width="8.75" height="5.75" filterUnits="userSpaceOnUse" color-interpolation-filters="sRGB"><feFlood flood-opacity="0" result="BackgroundImageFix"/><feBlend in="SourceGraphic" in2="BackgroundImageFix" result="shape"/><feGaussianBlur stdDeviation=".75" result="effect1_foregroundBlur_20_194"/></filter><filter id="n" x="17.375" y="6.875" width="8.75" height="5.75" filterUnits="userSpaceOnUse" color-interpolation-filters="sRGB"><feFlood flood-opacity="0" result="BackgroundImageFix"/><feBlend in="SourceGraphic" in2="BackgroundImageFix" result="shape"/><feGaussianBlur stdDeviation=".75" result="effect1_foregroundBlur_20_194"/></filter><filter id="p" x="17.373" y="15.994" width="12.653" height="12.707" filterUnits="userSpaceOnUse" color-interpolation-filters="sRGB"><feFlood flood-opacity="0" result="BackgroundImageFix"/><feBlend in="SourceGraphic" in2="BackgroundImageFix" result="shape"/><feGaussianBlur stdDeviation="1" result="effect1_foregroundBlur_20_194"/></filter><filter id="s" x="4.646" y=".146" width="7.207" height="7.207" filterUnits="userSpaceOnUse" color-interpolation-filters="sRGB"><feFlood flood-opacity="0" result="BackgroundImageFix"/><feBlend in="SourceGraphic" in2="BackgroundImageFix" result="shape"/><feGaussianBlur stdDeviation="1" result="effect1_foregroundBlur_20_194"/></filter><filter id="t" x="22.616" y="16.18" width="9.274" height="8.111" filterUnits="userSpaceOnUse" color-interpolation-filters="sRGB"><feFlood flood-opacity="0" result="BackgroundImageFix"/><feBlend in="SourceGraphic" in2="BackgroundImageFix" result="shape"/><feGaussianBlur stdDeviation="1" result="effect1_foregroundBlur_20_194"/></filter><filter id="u" x="5.5" y="21.5" width="6" height="6" filterUnits="userSpaceOnUse" color-interpolation-filters="sRGB"><feFlood flood-opacity="0" result="BackgroundImageFix"/><feBlend in="SourceGraphic" in2="BackgroundImageFix" result="shape"/><feGaussianBlur stdDeviation="1" result="effect1_foregroundBlur_20_194"/></filter><filter id="v" x="5.581" y="24.606" width="5.338" height="6.288" filterUnits="userSpaceOnUse" color-interpolation-filters="sRGB"><feFlood flood-opacity="0" result="BackgroundImageFix"/><feBlend in="SourceGraphic" in2="BackgroundImageFix" result="shape"/><feGaussianBlur stdDeviation=".5" result="effect1_foregroundBlur_20_194"/></filter><filter id="w" x="20.605" y="17.693" width="8.29" height="9.114" filterUnits="userSpaceOnUse" color-interpolation-filters="sRGB"><feFlood flood-opacity="0" result="BackgroundImageFix"/><feBlend in="SourceGraphic" in2="BackgroundImageFix" result="shape"/><feGaussianBlur stdDeviation="1" result="effect1_foregroundBlur_20_194"/></filter><filter id="x" x="3.146" y="3.646" width="7.207" height="7.207" filterUnits="userSpaceOnUse" color-interpolation-filters="sRGB"><feFlood flood-opacity="0" result="BackgroundImageFix"/><feBlend in="SourceGraphic" in2="BackgroundImageFix" result="shape"/><feGaussianBlur stdDeviation="1" result="effect1_foregroundBlur_20_194"/></filter><radialGradient id="b" cx="0" cy="0" r="1" gradientUnits="userSpaceOnUse" gradientTransform="rotate(132.839 10.786 10.065) scale(37.5033)"><stop stop-color="#FFF478"/><stop offset=".475" stop-color="#FFB02E"/><stop offset="1" stop-color="#F70A8D"/></radialGradient><radialGradient id="c" cx="0" cy="0" r="1" gradientUnits="userSpaceOnUse" gradientTransform="rotate(131.878 10.74 10.193) scale(38.9487)"><stop stop-color="#FFF478"/><stop offset=".475" stop-color="#FFB02E"/><stop offset="1" stop-color="#F70A8D"/></radialGradient><radialGradient id="d" cx="0" cy="0" r="1" gradientUnits="userSpaceOnUse" gradientTransform="rotate(101.31 2.876 12.808) scale(17.8466 22.8581)"><stop offset=".788" stop-color="#F59639" stop-opacity="0"/><stop offset=".973" stop-color="#FF7DCE"/></radialGradient><radialGradient id="e" cx="0" cy="0" r="1" gradientUnits="userSpaceOnUse" gradientTransform="matrix(-29 29 -29 -29 18 14)"><stop offset=".315" stop-opacity="0"/><stop offset="1"/></radialGradient><radialGradient id="f" cx="0" cy="0" r="1" gradientUnits="userSpaceOnUse" gradientTransform="rotate(77.692 -2.555 18.434) scale(28.1469)"><stop offset=".508" stop-color="#7D6133" stop-opacity="0"/><stop offset="1" stop-color="#715B32"/></radialGradient><radialGradient id="g" cx="0" cy="0" r="1" gradientUnits="userSpaceOnUse" gradientTransform="rotate(55.713 -7.36 23.86) scale(13.3135 9.65032)"><stop stop-color="#FFB849"/><stop offset="1" stop-color="#FFB847" stop-opacity="0"/></radialGradient><radialGradient id="h" cx="0" cy="0" r="1" gradientUnits="userSpaceOnUse" gradientTransform="matrix(11.49998 2 -2 11.49998 20.5 18)"><stop stop-color="#FFA64B"/><stop offset=".9" stop-color="#FFAE46" stop-opacity="0"/></radialGradient><radialGradient id="i" cx="0" cy="0" r="1" gradientUnits="userSpaceOnUse" gradientTransform="rotate(43.971 -9.827 29.173) scale(59.0529)"><stop offset=".185" stop-opacity="0"/><stop offset="1" stop-opacity=".4"/></radialGradient><radialGradient id="r" cx="0" cy="0" r="1" gradientUnits="userSpaceOnUse" gradientTransform="matrix(0 10.5 -6.42871 0 16 12)"><stop offset=".556" stop-color="#584343"/><stop offset=".74" stop-color="#66525E"/><stop offset="1" stop-color="#4E2553"/><stop offset="1" stop-color="#522C57"/></radialGradient><linearGradient id="j" x1="4.5" y1="3.5" x2="8.136" y2="8.277" gradientUnits="userSpaceOnUse"><stop stop-color="#DC2E50"/><stop offset="1" stop-color="#F70A8D"/></linearGradient><linearGradient id="o" x1="6" y1="24.5" x2="9.342" y2="29.907" gradientUnits="userSpaceOnUse"><stop stop-color="#CA0B4A"/><stop offset="1" stop-color="#F70A8D"/></linearGradient><linearGradient id="q" x1="29.099" y1="18.037" x2="25.876" y2="25.428" gradientUnits="userSpaceOnUse"><stop stop-color="#CA0B4A"/><stop offset="1" stop-color="#F70A8D"/></linearGradient><clipPath id="a"><path fill="#fff" d="M0 0h32v32H0z"/></clipPath></defs></svg>