<svg width="32" height="32" fill="none" xmlns="http://www.w3.org/2000/svg"><path d="m29.746 19.393.006-.003-11.3-15.027a3.3 3.3 0 0 0-5.276 0L1.875 19.39l.006.003h-.006v9.561h27.877v-9.561h-.006Z" fill="url(#a)"/><path d="m29.746 19.393.006-.003-11.3-15.027a3.3 3.3 0 0 0-5.276 0L1.875 19.39l.006.003h-.006v9.561h27.877v-9.561h-.006Z" fill="url(#b)"/><path d="m29.746 19.393.006-.003-11.3-15.027a3.3 3.3 0 0 0-5.276 0L1.875 19.39l.006.003h-.006v9.561h27.877v-9.561h-.006Z" fill="url(#c)"/><g filter="url(#d)"><path d="M29.752 21.4c-1.499.786-3.593 1.689-5.777 2.19-3.75.86-7.016.734-13.047-1.532-4.071-1.529-7.421-1.062-9.053-.552v7.448h27.877v-7.553Z" fill="url(#e)"/></g><g filter="url(#f)"><path d="m16.975 6.886 9.75 12.938" stroke="#C38D7C" stroke-width="2" stroke-linecap="round"/></g><path d="M9.286 9.536c.81.564 1.864 1.189 2.751 1.444 1.844.532 2.906.313 4.719-.843 1.753-1.119 3.362-1.691 5.959-.105l-4.264-5.67a3.3 3.3 0 0 0-5.275 0l-3.89 5.174Z" fill="url(#g)"/><path d="M9.286 9.536c.81.564 1.864 1.189 2.751 1.444 1.844.532 2.906.313 4.719-.843 1.753-1.119 3.362-1.691 5.959-.105l-4.264-5.67a3.3 3.3 0 0 0-5.275 0l-3.89 5.174Z" fill="url(#h)"/><path d="M9.286 9.536c.81.564 1.864 1.189 2.751 1.444 1.844.532 2.906.313 4.719-.843 1.753-1.119 3.362-1.691 5.959-.105l-4.264-5.67a3.3 3.3 0 0 0-5.275 0l-3.89 5.174Z" fill="url(#i)"/><path d="M9.286 9.536c.81.564 1.864 1.189 2.751 1.444 1.844.532 2.906.313 4.719-.843 1.753-1.119 3.362-1.691 5.959-.105l-4.264-5.67a3.3 3.3 0 0 0-5.275 0l-3.89 5.174Z" fill="url(#j)"/><defs><linearGradient id="a" x1="7.381" y1="20.605" x2="27.318" y2="20.605" gradientUnits="userSpaceOnUse"><stop stop-color="#7F5B50"/><stop offset="1" stop-color="#B0796B"/></linearGradient><linearGradient id="b" x1="3.631" y1="15.23" x2="7.756" y2="18.543" gradientUnits="userSpaceOnUse"><stop offset=".123" stop-color="#604840"/><stop offset=".8" stop-color="#604840" stop-opacity="0"/></linearGradient><linearGradient id="c" x1="41.568" y1="8.918" x2="12.818" y2="19.543" gradientUnits="userSpaceOnUse"><stop offset=".364" stop-color="#C18D7B"/><stop offset="1" stop-color="#C18D7B" stop-opacity="0"/></linearGradient><linearGradient id="g" x1="14.256" y1="12.793" x2="14.256" y2="2.23" gradientUnits="userSpaceOnUse"><stop stop-color="#D4CAD6"/><stop offset="1" stop-color="#DEDDE8"/></linearGradient><linearGradient id="h" x1="6.862" y1="3.046" x2="15.051" y2="8.928" gradientUnits="userSpaceOnUse"><stop offset=".213" stop-color="#8D8B8C"/><stop offset=".375" stop-color="#9A9692"/><stop offset="1" stop-color="#9A9692" stop-opacity="0"/></linearGradient><radialGradient id="e" cx="0" cy="0" r="1" gradientUnits="userSpaceOnUse" gradientTransform="matrix(-19.0196 0 0 -24.1854 22.207 25.57)"><stop offset=".179" stop-color="#3CCC79"/><stop offset="1" stop-color="#3B9B76"/></radialGradient><radialGradient id="i" cx="0" cy="0" r="1" gradientUnits="userSpaceOnUse" gradientTransform="matrix(0 -12.1125 14.4741 0 17.727 12.84)"><stop offset=".746" stop-color="#9A9692" stop-opacity="0"/><stop offset="1" stop-color="#9A9692"/></radialGradient><radialGradient id="j" cx="0" cy="0" r="1" gradientUnits="userSpaceOnUse" gradientTransform="matrix(-4.78355 5.0454 -6.11432 -5.797 22.327 8.452)"><stop stop-color="#F8F7FD"/><stop offset="1" stop-color="#F8F7FD" stop-opacity="0"/></radialGradient><filter id="d" x="1.875" y="20.767" width="28.127" height="8.187" filterUnits="userSpaceOnUse" color-interpolation-filters="sRGB"><feFlood flood-opacity="0" result="BackgroundImageFix"/><feBlend in="SourceGraphic" in2="BackgroundImageFix" result="shape"/><feColorMatrix in="SourceAlpha" values="0 0 0 0 0 0 0 0 0 0 0 0 0 0 0 0 0 0 127 0" result="hardAlpha"/><feOffset dx=".25" dy="-.25"/><feGaussianBlur stdDeviation="1"/><feComposite in2="hardAlpha" operator="arithmetic" k2="-1" k3="1"/><feColorMatrix values="0 0 0 0 0.145098 0 0 0 0 0.298039 0 0 0 0 0.278431 0 0 0 1 0"/><feBlend in2="shape" result="effect1_innerShadow_18_4917"/></filter><filter id="f" x="13.475" y="3.386" width="16.75" height="19.938" filterUnits="userSpaceOnUse" color-interpolation-filters="sRGB"><feFlood flood-opacity="0" result="BackgroundImageFix"/><feBlend in="SourceGraphic" in2="BackgroundImageFix" result="shape"/><feGaussianBlur stdDeviation="1.25" result="effect1_foregroundBlur_18_4917"/></filter></defs></svg>