<svg xmlns="http://www.w3.org/2000/svg" fill="none" viewBox="0 0 32 32"><g filter="url(#snowflake_svg__a)"><path fill="url(#snowflake_svg__b)" fill-rule="evenodd" d="m23.604 18.89 5.072-1.35c.553-.15 1.137.15 1.288.71.15.56-.182 1.12-.735 1.27l-2.874.767a.1.1 0 0 0-.024.184l2.012 1.149c.483.28.655.89.373 1.37s-.896.65-1.379.37l-2.015-1.15a.1.1 0 0 0-.146.112l.773 2.858c.15.56-.171 1.12-.735 1.27a1.04 1.04 0 0 1-1.278-.73l-1.358-5.04a.1.1 0 0 0-.046-.06l-2.209-1.27a.1.1 0 0 0-.124.02 5.07 5.07 0 0 1-2.613 1.513.1.1 0 0 0-.08.099v2.506a.1.1 0 0 0 .03.071l3.714 3.691c.402.4.402 1.06 0 1.46-.403.4-1.067.4-1.47 0l-2.103-2.09a.1.1 0 0 0-.17.07V29a1.006 1.006 0 0 1-2.013 0v-2.3a.1.1 0 0 0-.17-.07l-2.104 2.09c-.403.4-1.067.4-1.47 0a1.034 1.034 0 0 1 0-1.46l3.714-3.69a.1.1 0 0 0 .03-.072v-2.506a.1.1 0 0 0-.08-.099A5.03 5.03 0 0 1 12.8 19.38a.1.1 0 0 0-.124-.019l-2.198 1.26a.1.1 0 0 0-.047.06l-1.358 5.04c-.151.55-.725.88-1.278.73a1.04 1.04 0 0 1-.735-1.27l.773-2.857a.1.1 0 0 0-.147-.112L5.673 23.37A1.02 1.02 0 0 1 4.294 23a.976.976 0 0 1 .363-1.35l2.013-1.16a.1.1 0 0 0-.024-.182l-2.875-.768a1.04 1.04 0 0 1-.735-1.27c.151-.55.725-.88 1.278-.73l5.072 1.35a.1.1 0 0 0 .076-.01l2.207-1.269a.1.1 0 0 0 .045-.12A4.7 4.7 0 0 1 11.459 16c0-.52.098-1.02.253-1.47a.1.1 0 0 0-.044-.122l-2.206-1.267a.1.1 0 0 0-.076-.01L4.314 14.48a1.04 1.04 0 0 1-1.278-.73c-.15-.56.182-1.12.735-1.27l2.875-.768a.1.1 0 0 0 .024-.183L4.657 10.37A1.004 1.004 0 0 1 4.294 9c.272-.48.896-.64 1.369-.37l2.024 1.16a.1.1 0 0 0 .147-.113L7.06 6.82c-.15-.55.182-1.11.735-1.26s1.117.18 1.268.73l1.358 5.04a.1.1 0 0 0 .046.06l2.199 1.26c.04.023.092.015.124-.02a5.07 5.07 0 0 1 2.613-1.513.1.1 0 0 0 .08-.099V8.512a.1.1 0 0 0-.03-.071L11.741 4.75a1.034 1.034 0 0 1 0-1.46 1.05 1.05 0 0 1 1.469 0l2.103 2.09a.1.1 0 0 0 .17-.07V3a1.006 1.006 0 0 1 2.013 0v2.31a.1.1 0 0 0 .17.07l2.104-2.09a1.05 1.05 0 0 1 1.47 0c.402.4.402 1.06 0 1.46l-3.714 3.69a.1.1 0 0 0-.03.072v2.506c0 .048.034.089.08.099a5.05 5.05 0 0 1 2.603 1.503.1.1 0 0 0 .124.02l2.209-1.27a.1.1 0 0 0 .046-.06l1.358-5.04c.151-.55.724-.88 1.278-.73.553.15.886.72.735 1.27l-.773 2.858a.1.1 0 0 0 .146.113l2.015-1.151a1.02 1.02 0 0 1 1.379.37 1 1 0 0 1-.363 1.36l-2.012 1.15a.1.1 0 0 0 .024.183l2.874.767c.553.15.885.72.734 1.27-.15.55-.724.88-1.277.73l-5.072-1.35a.1.1 0 0 0-.076.01l-2.207 1.269a.1.1 0 0 0-.045.12c.156.467.255.97.255 1.491s-.1 1.016-.255 1.492a.1.1 0 0 0 .045.12l2.207 1.268a.1.1 0 0 0 .076.01M19.509 16c0 1.657-1.352 3-3.019 3a3.01 3.01 0 0 1-3.019-3c0-1.657 1.352-3 3.019-3a3.01 3.01 0 0 1 3.019 3" clip-rule="evenodd"/></g><path fill="url(#snowflake_svg__c)" fill-rule="evenodd" d="m23.604 18.89 5.072-1.35c.553-.15 1.137.15 1.288.71.15.56-.182 1.12-.735 1.27l-2.874.767a.1.1 0 0 0-.024.184l2.012 1.149c.483.28.655.89.373 1.37s-.896.65-1.379.37l-2.015-1.15a.1.1 0 0 0-.146.112l.773 2.858c.15.56-.171 1.12-.735 1.27a1.04 1.04 0 0 1-1.278-.73l-1.358-5.04a.1.1 0 0 0-.046-.06l-2.209-1.27a.1.1 0 0 0-.124.02 5.07 5.07 0 0 1-2.613 1.513.1.1 0 0 0-.08.099v2.506a.1.1 0 0 0 .03.071l3.714 3.691c.402.4.402 1.06 0 1.46-.403.4-1.067.4-1.47 0l-2.103-2.09a.1.1 0 0 0-.17.07V29a1.006 1.006 0 0 1-2.013 0v-2.3a.1.1 0 0 0-.17-.07l-2.104 2.09c-.403.4-1.067.4-1.47 0a1.034 1.034 0 0 1 0-1.46l3.714-3.69a.1.1 0 0 0 .03-.072v-2.506a.1.1 0 0 0-.08-.099A5.03 5.03 0 0 1 12.8 19.38a.1.1 0 0 0-.124-.019l-2.198 1.26a.1.1 0 0 0-.047.06l-1.358 5.04c-.151.55-.725.88-1.278.73a1.04 1.04 0 0 1-.735-1.27l.773-2.857a.1.1 0 0 0-.147-.112L5.673 23.37A1.02 1.02 0 0 1 4.294 23a.976.976 0 0 1 .363-1.35l2.013-1.16a.1.1 0 0 0-.024-.182l-2.875-.768a1.04 1.04 0 0 1-.735-1.27c.151-.55.725-.88 1.278-.73l5.072 1.35a.1.1 0 0 0 .076-.01l2.207-1.269a.1.1 0 0 0 .045-.12A4.7 4.7 0 0 1 11.459 16c0-.52.098-1.02.253-1.47a.1.1 0 0 0-.044-.122l-2.206-1.267a.1.1 0 0 0-.076-.01L4.314 14.48a1.04 1.04 0 0 1-1.278-.73c-.15-.56.182-1.12.735-1.27l2.875-.768a.1.1 0 0 0 .024-.183L4.657 10.37A1.004 1.004 0 0 1 4.294 9c.272-.48.896-.64 1.369-.37l2.024 1.16a.1.1 0 0 0 .147-.113L7.06 6.82c-.15-.55.182-1.11.735-1.26s1.117.18 1.268.73l1.358 5.04a.1.1 0 0 0 .046.06l2.199 1.26c.04.023.092.015.124-.02a5.07 5.07 0 0 1 2.613-1.513.1.1 0 0 0 .08-.099V8.512a.1.1 0 0 0-.03-.071L11.741 4.75a1.034 1.034 0 0 1 0-1.46 1.05 1.05 0 0 1 1.469 0l2.103 2.09a.1.1 0 0 0 .17-.07V3a1.006 1.006 0 0 1 2.013 0v2.31a.1.1 0 0 0 .17.07l2.104-2.09a1.05 1.05 0 0 1 1.47 0c.402.4.402 1.06 0 1.46l-3.714 3.69a.1.1 0 0 0-.03.072v2.506c0 .048.034.089.08.099a5.05 5.05 0 0 1 2.603 1.503.1.1 0 0 0 .124.02l2.209-1.27a.1.1 0 0 0 .046-.06l1.358-5.04c.151-.55.724-.88 1.278-.73.553.15.886.72.735 1.27l-.773 2.858a.1.1 0 0 0 .146.113l2.015-1.151a1.02 1.02 0 0 1 1.379.37 1 1 0 0 1-.363 1.36l-2.012 1.15a.1.1 0 0 0 .024.183l2.874.767c.553.15.885.72.734 1.27-.15.55-.724.88-1.277.73l-5.072-1.35a.1.1 0 0 0-.076.01l-2.207 1.269a.1.1 0 0 0-.045.12c.156.467.255.97.255 1.491s-.1 1.016-.255 1.492a.1.1 0 0 0 .045.12l2.207 1.268a.1.1 0 0 0 .076.01M19.509 16c0 1.657-1.352 3-3.019 3a3.01 3.01 0 0 1-3.019-3c0-1.657 1.352-3 3.019-3a3.01 3.01 0 0 1 3.019 3" clip-rule="evenodd"/><path fill="url(#snowflake_svg__d)" fill-rule="evenodd" d="m23.604 18.89 5.072-1.35c.553-.15 1.137.15 1.288.71.15.56-.182 1.12-.735 1.27l-2.874.767a.1.1 0 0 0-.024.184l2.012 1.149c.483.28.655.89.373 1.37s-.896.65-1.379.37l-2.015-1.15a.1.1 0 0 0-.146.112l.773 2.858c.15.56-.171 1.12-.735 1.27a1.04 1.04 0 0 1-1.278-.73l-1.358-5.04a.1.1 0 0 0-.046-.06l-2.209-1.27a.1.1 0 0 0-.124.02 5.07 5.07 0 0 1-2.613 1.513.1.1 0 0 0-.08.099v2.506a.1.1 0 0 0 .03.071l3.714 3.691c.402.4.402 1.06 0 1.46-.403.4-1.067.4-1.47 0l-2.103-2.09a.1.1 0 0 0-.17.07V29a1.006 1.006 0 0 1-2.013 0v-2.3a.1.1 0 0 0-.17-.07l-2.104 2.09c-.403.4-1.067.4-1.47 0a1.034 1.034 0 0 1 0-1.46l3.714-3.69a.1.1 0 0 0 .03-.072v-2.506a.1.1 0 0 0-.08-.099A5.03 5.03 0 0 1 12.8 19.38a.1.1 0 0 0-.124-.019l-2.198 1.26a.1.1 0 0 0-.047.06l-1.358 5.04c-.151.55-.725.88-1.278.73a1.04 1.04 0 0 1-.735-1.27l.773-2.857a.1.1 0 0 0-.147-.112L5.673 23.37A1.02 1.02 0 0 1 4.294 23a.976.976 0 0 1 .363-1.35l2.013-1.16a.1.1 0 0 0-.024-.182l-2.875-.768a1.04 1.04 0 0 1-.735-1.27c.151-.55.725-.88 1.278-.73l5.072 1.35a.1.1 0 0 0 .076-.01l2.207-1.269a.1.1 0 0 0 .045-.12A4.7 4.7 0 0 1 11.459 16c0-.52.098-1.02.253-1.47a.1.1 0 0 0-.044-.122l-2.206-1.267a.1.1 0 0 0-.076-.01L4.314 14.48a1.04 1.04 0 0 1-1.278-.73c-.15-.56.182-1.12.735-1.27l2.875-.768a.1.1 0 0 0 .024-.183L4.657 10.37A1.004 1.004 0 0 1 4.294 9c.272-.48.896-.64 1.369-.37l2.024 1.16a.1.1 0 0 0 .147-.113L7.06 6.82c-.15-.55.182-1.11.735-1.26s1.117.18 1.268.73l1.358 5.04a.1.1 0 0 0 .046.06l2.199 1.26c.04.023.092.015.124-.02a5.07 5.07 0 0 1 2.613-1.513.1.1 0 0 0 .08-.099V8.512a.1.1 0 0 0-.03-.071L11.741 4.75a1.034 1.034 0 0 1 0-1.46 1.05 1.05 0 0 1 1.469 0l2.103 2.09a.1.1 0 0 0 .17-.07V3a1.006 1.006 0 0 1 2.013 0v2.31a.1.1 0 0 0 .17.07l2.104-2.09a1.05 1.05 0 0 1 1.47 0c.402.4.402 1.06 0 1.46l-3.714 3.69a.1.1 0 0 0-.03.072v2.506c0 .048.034.089.08.099a5.05 5.05 0 0 1 2.603 1.503.1.1 0 0 0 .124.02l2.209-1.27a.1.1 0 0 0 .046-.06l1.358-5.04c.151-.55.724-.88 1.278-.73.553.15.886.72.735 1.27l-.773 2.858a.1.1 0 0 0 .146.113l2.015-1.151a1.02 1.02 0 0 1 1.379.37 1 1 0 0 1-.363 1.36l-2.012 1.15a.1.1 0 0 0 .024.183l2.874.767c.553.15.885.72.734 1.27-.15.55-.724.88-1.277.73l-5.072-1.35a.1.1 0 0 0-.076.01l-2.207 1.269a.1.1 0 0 0-.045.12c.156.467.255.97.255 1.491s-.1 1.016-.255 1.492a.1.1 0 0 0 .045.12l2.207 1.268a.1.1 0 0 0 .076.01M19.509 16c0 1.657-1.352 3-3.019 3a3.01 3.01 0 0 1-3.019-3c0-1.657 1.352-3 3.019-3a3.01 3.01 0 0 1 3.019 3" clip-rule="evenodd"/><path fill="url(#snowflake_svg__e)" fill-rule="evenodd" d="m23.604 18.89 5.072-1.35c.553-.15 1.137.15 1.288.71.15.56-.182 1.12-.735 1.27l-2.874.767a.1.1 0 0 0-.024.184l2.012 1.149c.483.28.655.89.373 1.37s-.896.65-1.379.37l-2.015-1.15a.1.1 0 0 0-.146.112l.773 2.858c.15.56-.171 1.12-.735 1.27a1.04 1.04 0 0 1-1.278-.73l-1.358-5.04a.1.1 0 0 0-.046-.06l-2.209-1.27a.1.1 0 0 0-.124.02 5.07 5.07 0 0 1-2.613 1.513.1.1 0 0 0-.08.099v2.506a.1.1 0 0 0 .03.071l3.714 3.691c.402.4.402 1.06 0 1.46-.403.4-1.067.4-1.47 0l-2.103-2.09a.1.1 0 0 0-.17.07V29a1.006 1.006 0 0 1-2.013 0v-2.3a.1.1 0 0 0-.17-.07l-2.104 2.09c-.403.4-1.067.4-1.47 0a1.034 1.034 0 0 1 0-1.46l3.714-3.69a.1.1 0 0 0 .03-.072v-2.506a.1.1 0 0 0-.08-.099A5.03 5.03 0 0 1 12.8 19.38a.1.1 0 0 0-.124-.019l-2.198 1.26a.1.1 0 0 0-.047.06l-1.358 5.04c-.151.55-.725.88-1.278.73a1.04 1.04 0 0 1-.735-1.27l.773-2.857a.1.1 0 0 0-.147-.112L5.673 23.37A1.02 1.02 0 0 1 4.294 23a.976.976 0 0 1 .363-1.35l2.013-1.16a.1.1 0 0 0-.024-.182l-2.875-.768a1.04 1.04 0 0 1-.735-1.27c.151-.55.725-.88 1.278-.73l5.072 1.35a.1.1 0 0 0 .076-.01l2.207-1.269a.1.1 0 0 0 .045-.12A4.7 4.7 0 0 1 11.459 16c0-.52.098-1.02.253-1.47a.1.1 0 0 0-.044-.122l-2.206-1.267a.1.1 0 0 0-.076-.01L4.314 14.48a1.04 1.04 0 0 1-1.278-.73c-.15-.56.182-1.12.735-1.27l2.875-.768a.1.1 0 0 0 .024-.183L4.657 10.37A1.004 1.004 0 0 1 4.294 9c.272-.48.896-.64 1.369-.37l2.024 1.16a.1.1 0 0 0 .147-.113L7.06 6.82c-.15-.55.182-1.11.735-1.26s1.117.18 1.268.73l1.358 5.04a.1.1 0 0 0 .046.06l2.199 1.26c.04.023.092.015.124-.02a5.07 5.07 0 0 1 2.613-1.513.1.1 0 0 0 .08-.099V8.512a.1.1 0 0 0-.03-.071L11.741 4.75a1.034 1.034 0 0 1 0-1.46 1.05 1.05 0 0 1 1.469 0l2.103 2.09a.1.1 0 0 0 .17-.07V3a1.006 1.006 0 0 1 2.013 0v2.31a.1.1 0 0 0 .17.07l2.104-2.09a1.05 1.05 0 0 1 1.47 0c.402.4.402 1.06 0 1.46l-3.714 3.69a.1.1 0 0 0-.03.072v2.506c0 .048.034.089.08.099a5.05 5.05 0 0 1 2.603 1.503.1.1 0 0 0 .124.02l2.209-1.27a.1.1 0 0 0 .046-.06l1.358-5.04c.151-.55.724-.88 1.278-.73.553.15.886.72.735 1.27l-.773 2.858a.1.1 0 0 0 .146.113l2.015-1.151a1.02 1.02 0 0 1 1.379.37 1 1 0 0 1-.363 1.36l-2.012 1.15a.1.1 0 0 0 .024.183l2.874.767c.553.15.885.72.734 1.27-.15.55-.724.88-1.277.73l-5.072-1.35a.1.1 0 0 0-.076.01l-2.207 1.269a.1.1 0 0 0-.045.12c.156.467.255.97.255 1.491s-.1 1.016-.255 1.492a.1.1 0 0 0 .045.12l2.207 1.268a.1.1 0 0 0 .076.01M19.509 16c0 1.657-1.352 3-3.019 3a3.01 3.01 0 0 1-3.019-3c0-1.657 1.352-3 3.019-3a3.01 3.01 0 0 1 3.019 3" clip-rule="evenodd"/><path fill="url(#snowflake_svg__f)" fill-rule="evenodd" d="m23.604 18.89 5.072-1.35c.553-.15 1.137.15 1.288.71.15.56-.182 1.12-.735 1.27l-2.874.767a.1.1 0 0 0-.024.184l2.012 1.149c.483.28.655.89.373 1.37s-.896.65-1.379.37l-2.015-1.15a.1.1 0 0 0-.146.112l.773 2.858c.15.56-.171 1.12-.735 1.27a1.04 1.04 0 0 1-1.278-.73l-1.358-5.04a.1.1 0 0 0-.046-.06l-2.209-1.27a.1.1 0 0 0-.124.02 5.07 5.07 0 0 1-2.613 1.513.1.1 0 0 0-.08.099v2.506a.1.1 0 0 0 .03.071l3.714 3.691c.402.4.402 1.06 0 1.46-.403.4-1.067.4-1.47 0l-2.103-2.09a.1.1 0 0 0-.17.07V29a1.006 1.006 0 0 1-2.013 0v-2.3a.1.1 0 0 0-.17-.07l-2.104 2.09c-.403.4-1.067.4-1.47 0a1.034 1.034 0 0 1 0-1.46l3.714-3.69a.1.1 0 0 0 .03-.072v-2.506a.1.1 0 0 0-.08-.099A5.03 5.03 0 0 1 12.8 19.38a.1.1 0 0 0-.124-.019l-2.198 1.26a.1.1 0 0 0-.047.06l-1.358 5.04c-.151.55-.725.88-1.278.73a1.04 1.04 0 0 1-.735-1.27l.773-2.857a.1.1 0 0 0-.147-.112L5.673 23.37A1.02 1.02 0 0 1 4.294 23a.976.976 0 0 1 .363-1.35l2.013-1.16a.1.1 0 0 0-.024-.182l-2.875-.768a1.04 1.04 0 0 1-.735-1.27c.151-.55.725-.88 1.278-.73l5.072 1.35a.1.1 0 0 0 .076-.01l2.207-1.269a.1.1 0 0 0 .045-.12A4.7 4.7 0 0 1 11.459 16c0-.52.098-1.02.253-1.47a.1.1 0 0 0-.044-.122l-2.206-1.267a.1.1 0 0 0-.076-.01L4.314 14.48a1.04 1.04 0 0 1-1.278-.73c-.15-.56.182-1.12.735-1.27l2.875-.768a.1.1 0 0 0 .024-.183L4.657 10.37A1.004 1.004 0 0 1 4.294 9c.272-.48.896-.64 1.369-.37l2.024 1.16a.1.1 0 0 0 .147-.113L7.06 6.82c-.15-.55.182-1.11.735-1.26s1.117.18 1.268.73l1.358 5.04a.1.1 0 0 0 .046.06l2.199 1.26c.04.023.092.015.124-.02a5.07 5.07 0 0 1 2.613-1.513.1.1 0 0 0 .08-.099V8.512a.1.1 0 0 0-.03-.071L11.741 4.75a1.034 1.034 0 0 1 0-1.46 1.05 1.05 0 0 1 1.469 0l2.103 2.09a.1.1 0 0 0 .17-.07V3a1.006 1.006 0 0 1 2.013 0v2.31a.1.1 0 0 0 .17.07l2.104-2.09a1.05 1.05 0 0 1 1.47 0c.402.4.402 1.06 0 1.46l-3.714 3.69a.1.1 0 0 0-.03.072v2.506c0 .048.034.089.08.099a5.05 5.05 0 0 1 2.603 1.503.1.1 0 0 0 .124.02l2.209-1.27a.1.1 0 0 0 .046-.06l1.358-5.04c.151-.55.724-.88 1.278-.73.553.15.886.72.735 1.27l-.773 2.858a.1.1 0 0 0 .146.113l2.015-1.151a1.02 1.02 0 0 1 1.379.37 1 1 0 0 1-.363 1.36l-2.012 1.15a.1.1 0 0 0 .024.183l2.874.767c.553.15.885.72.734 1.27-.15.55-.724.88-1.277.73l-5.072-1.35a.1.1 0 0 0-.076.01l-2.207 1.269a.1.1 0 0 0-.045.12c.156.467.255.97.255 1.491s-.1 1.016-.255 1.492a.1.1 0 0 0 .045.12l2.207 1.268a.1.1 0 0 0 .076.01M19.509 16c0 1.657-1.352 3-3.019 3a3.01 3.01 0 0 1-3.019-3c0-1.657 1.352-3 3.019-3a3.01 3.01 0 0 1 3.019 3" clip-rule="evenodd"/><path fill="url(#snowflake_svg__g)" fill-rule="evenodd" d="m23.604 18.89 5.072-1.35c.553-.15 1.137.15 1.288.71.15.56-.182 1.12-.735 1.27l-2.874.767a.1.1 0 0 0-.024.184l2.012 1.149c.483.28.655.89.373 1.37s-.896.65-1.379.37l-2.015-1.15a.1.1 0 0 0-.146.112l.773 2.858c.15.56-.171 1.12-.735 1.27a1.04 1.04 0 0 1-1.278-.73l-1.358-5.04a.1.1 0 0 0-.046-.06l-2.209-1.27a.1.1 0 0 0-.124.02 5.07 5.07 0 0 1-2.613 1.513.1.1 0 0 0-.08.099v2.506a.1.1 0 0 0 .03.071l3.714 3.691c.402.4.402 1.06 0 1.46-.403.4-1.067.4-1.47 0l-2.103-2.09a.1.1 0 0 0-.17.07V29a1.006 1.006 0 0 1-2.013 0v-2.3a.1.1 0 0 0-.17-.07l-2.104 2.09c-.403.4-1.067.4-1.47 0a1.034 1.034 0 0 1 0-1.46l3.714-3.69a.1.1 0 0 0 .03-.072v-2.506a.1.1 0 0 0-.08-.099A5.03 5.03 0 0 1 12.8 19.38a.1.1 0 0 0-.124-.019l-2.198 1.26a.1.1 0 0 0-.047.06l-1.358 5.04c-.151.55-.725.88-1.278.73a1.04 1.04 0 0 1-.735-1.27l.773-2.857a.1.1 0 0 0-.147-.112L5.673 23.37A1.02 1.02 0 0 1 4.294 23a.976.976 0 0 1 .363-1.35l2.013-1.16a.1.1 0 0 0-.024-.182l-2.875-.768a1.04 1.04 0 0 1-.735-1.27c.151-.55.725-.88 1.278-.73l5.072 1.35a.1.1 0 0 0 .076-.01l2.207-1.269a.1.1 0 0 0 .045-.12A4.7 4.7 0 0 1 11.459 16c0-.52.098-1.02.253-1.47a.1.1 0 0 0-.044-.122l-2.206-1.267a.1.1 0 0 0-.076-.01L4.314 14.48a1.04 1.04 0 0 1-1.278-.73c-.15-.56.182-1.12.735-1.27l2.875-.768a.1.1 0 0 0 .024-.183L4.657 10.37A1.004 1.004 0 0 1 4.294 9c.272-.48.896-.64 1.369-.37l2.024 1.16a.1.1 0 0 0 .147-.113L7.06 6.82c-.15-.55.182-1.11.735-1.26s1.117.18 1.268.73l1.358 5.04a.1.1 0 0 0 .046.06l2.199 1.26c.04.023.092.015.124-.02a5.07 5.07 0 0 1 2.613-1.513.1.1 0 0 0 .08-.099V8.512a.1.1 0 0 0-.03-.071L11.741 4.75a1.034 1.034 0 0 1 0-1.46 1.05 1.05 0 0 1 1.469 0l2.103 2.09a.1.1 0 0 0 .17-.07V3a1.006 1.006 0 0 1 2.013 0v2.31a.1.1 0 0 0 .17.07l2.104-2.09a1.05 1.05 0 0 1 1.47 0c.402.4.402 1.06 0 1.46l-3.714 3.69a.1.1 0 0 0-.03.072v2.506c0 .048.034.089.08.099a5.05 5.05 0 0 1 2.603 1.503.1.1 0 0 0 .124.02l2.209-1.27a.1.1 0 0 0 .046-.06l1.358-5.04c.151-.55.724-.88 1.278-.73.553.15.886.72.735 1.27l-.773 2.858a.1.1 0 0 0 .146.113l2.015-1.151a1.02 1.02 0 0 1 1.379.37 1 1 0 0 1-.363 1.36l-2.012 1.15a.1.1 0 0 0 .024.183l2.874.767c.553.15.885.72.734 1.27-.15.55-.724.88-1.277.73l-5.072-1.35a.1.1 0 0 0-.076.01l-2.207 1.269a.1.1 0 0 0-.045.12c.156.467.255.97.255 1.491s-.1 1.016-.255 1.492a.1.1 0 0 0 .045.12l2.207 1.268a.1.1 0 0 0 .076.01M19.509 16c0 1.657-1.352 3-3.019 3a3.01 3.01 0 0 1-3.019-3c0-1.657 1.352-3 3.019-3a3.01 3.01 0 0 1 3.019 3" clip-rule="evenodd"/><g filter="url(#snowflake_svg__h)"><circle cx="16.727" cy="15.801" r="3.97" stroke="url(#snowflake_svg__i)" stroke-width=".5"/></g><g filter="url(#snowflake_svg__j)"><path stroke="url(#snowflake_svg__k)" stroke-width=".5" d="M16.727 11.83V2.559"/></g><g filter="url(#snowflake_svg__l)"><path stroke="#5ACEFA" stroke-linecap="round" stroke-width=".5" d="m20.67 17.985 7.415 4.41"/></g><g filter="url(#snowflake_svg__m)"><path stroke="url(#snowflake_svg__n)" stroke-linecap="round" stroke-width=".5" d="m23.7 19.933 1.381 5.71"/></g><g filter="url(#snowflake_svg__o)"><path stroke="url(#snowflake_svg__p)" stroke-linecap="round" stroke-width=".5" d="m29.162 18.388-5.467 1.322"/></g><g filter="url(#snowflake_svg__q)"><path stroke="url(#snowflake_svg__r)" stroke-linecap="round" stroke-width=".5" d="m24.928 12.029 4.18 1.107"/></g><g filter="url(#snowflake_svg__s)"><path stroke="url(#snowflake_svg__t)" stroke-linecap="round" stroke-width=".5" d="m28.108 9.099-4.109 2.394"/></g><g filter="url(#snowflake_svg__u)"><path stroke="url(#snowflake_svg__v)" stroke-linecap="round" stroke-width=".5" d="m25.178 6.383-1.322 4.788"/></g><g filter="url(#snowflake_svg__w)"><path stroke="url(#snowflake_svg__x)" stroke-linecap="round" stroke-width=".5" d="m5.25 9.305 7.813 4.375"/></g><g filter="url(#snowflake_svg__y)"><path stroke="url(#snowflake_svg__z)" stroke-linecap="round" stroke-width=".5" d="M8.313 6.303 9.75 11.68"/></g><g filter="url(#snowflake_svg__A)"><path stroke="url(#snowflake_svg__B)" stroke-linecap="round" stroke-width=".5" d="m3.969 18.225 4.5 1.297"/></g><g filter="url(#snowflake_svg__C)"><path stroke="url(#snowflake_svg__D)" stroke-linecap="round" stroke-width=".5" d="m12.503 3.706 3.003 2.915"/></g><g filter="url(#snowflake_svg__E)"><path stroke="url(#snowflake_svg__F)" stroke-linecap="round" stroke-width=".4" d="M16.727 29.099v-8.25"/></g><g filter="url(#snowflake_svg__G)"><path stroke="url(#snowflake_svg__H)" stroke-linecap="round" stroke-width=".4" d="m16.727 23.895 3.79 3.82"/></g><defs><linearGradient id="snowflake_svg__b" x1="21.644" x2="10.908" y1="20.506" y2="20.572" gradientUnits="userSpaceOnUse"><stop offset=".272" stop-color="#43C4F5"/><stop offset="1" stop-color="#3D8DF3"/></linearGradient><linearGradient id="snowflake_svg__c" x1="24.783" x2="16.5" y1="20.506" y2="20.557" gradientUnits="userSpaceOnUse"><stop stop-color="#43C4F5"/><stop offset="1" stop-color="#43C4F5" stop-opacity="0"/></linearGradient><linearGradient id="snowflake_svg__i" x1="20.99" x2="12.756" y1="13.678" y2="18.845" gradientUnits="userSpaceOnUse"><stop stop-color="#BDE9FF"/><stop offset=".298" stop-color="#6DBCFF" stop-opacity="0"/><stop offset=".752" stop-color="#6DBCFF" stop-opacity="0"/><stop offset="1" stop-color="#BCE0FF"/></linearGradient><linearGradient id="snowflake_svg__k" x1="17.227" x2="17.206" y1="2.899" y2="12.599" gradientUnits="userSpaceOnUse"><stop stop-color="#75D5FF"/><stop offset="1" stop-color="#75D5FF" stop-opacity="0"/></linearGradient><linearGradient id="snowflake_svg__n" x1="25.081" x2="24.106" y1="23.676" y2="18.531" gradientUnits="userSpaceOnUse"><stop stop-color="#5ACEFA"/><stop offset="1" stop-color="#5ACEFA" stop-opacity="0"/></linearGradient><linearGradient id="snowflake_svg__p" x1="28.715" x2="27.65" y1="18.281" y2="16.984" gradientUnits="userSpaceOnUse"><stop stop-color="#5ACEFA"/><stop offset="1" stop-color="#5ACEFA" stop-opacity="0"/></linearGradient><linearGradient id="snowflake_svg__r" x1="29.108" x2="29.096" y1="12.755" y2="11.721" gradientUnits="userSpaceOnUse"><stop stop-color="#5ACEFA"/><stop offset="1" stop-color="#5ACEFA" stop-opacity="0"/></linearGradient><linearGradient id="snowflake_svg__t" x1="27.501" x2="24.838" y1="9.099" y2="8.103" gradientUnits="userSpaceOnUse"><stop stop-color="#5ACEFA"/><stop offset="1" stop-color="#5ACEFA" stop-opacity="0"/></linearGradient><linearGradient id="snowflake_svg__v" x1="26" x2="24.306" y1="4.335" y2="4.249" gradientUnits="userSpaceOnUse"><stop offset=".171" stop-color="#63E1FD"/><stop offset="1" stop-color="#5ACEFA" stop-opacity="0"/></linearGradient><linearGradient id="snowflake_svg__x" x1="5.625" x2="6.572" y1="9.618" y2="14.936" gradientUnits="userSpaceOnUse"><stop stop-color="#5A9CFF"/><stop offset="1" stop-color="#5BADFF"/></linearGradient><linearGradient id="snowflake_svg__z" x1="8.382" x2="11.702" y1="6.687" y2="9.482" gradientUnits="userSpaceOnUse"><stop stop-color="#5A9CFF"/><stop offset="1" stop-color="#5BADFF"/></linearGradient><linearGradient id="snowflake_svg__B" x1="4.421" x2="4.554" y1="18.486" y2="19.426" gradientUnits="userSpaceOnUse"><stop stop-color="#5299FD" stop-opacity="0"/><stop offset=".762" stop-color="#5299FD"/></linearGradient><linearGradient id="snowflake_svg__D" x1="15.389" x2="14.312" y1="5.659" y2="2.802" gradientUnits="userSpaceOnUse"><stop stop-color="#65BFFF"/><stop offset="1" stop-color="#69BCFF"/></linearGradient><linearGradient id="snowflake_svg__F" x1="16.727" x2="13.441" y1="28.545" y2="26.968" gradientUnits="userSpaceOnUse"><stop stop-color="#6ABFFF"/><stop offset="1" stop-color="#65BCFF"/></linearGradient><linearGradient id="snowflake_svg__H" x1="20.75" x2="16.143" y1="27.714" y2="25.064" gradientUnits="userSpaceOnUse"><stop stop-color="#65C9FF"/><stop offset="1" stop-color="#60BEFF"/></linearGradient><filter id="snowflake_svg__a" width="27.15" height="28.15" x="3" y="1.85" color-interpolation-filters="sRGB" filterUnits="userSpaceOnUse"><feFlood flood-opacity="0" result="BackgroundImageFix"/><feBlend in="SourceGraphic" in2="BackgroundImageFix" result="shape"/><feColorMatrix in="SourceAlpha" result="hardAlpha" values="0 0 0 0 0 0 0 0 0 0 0 0 0 0 0 0 0 0 127 0"/><feOffset dx=".15" dy="-.15"/><feGaussianBlur stdDeviation=".4"/><feComposite in2="hardAlpha" k2="-1" k3="1" operator="arithmetic"/><feColorMatrix values="0 0 0 0 0.294118 0 0 0 0 0.392157 0 0 0 0 0.741176 0 0 0 1 0"/><feBlend in2="shape" result="effect1_innerShadow_18_15548"/></filter><filter id="snowflake_svg__h" width="9.44" height="9.44" x="12.006" y="11.08" color-interpolation-filters="sRGB" filterUnits="userSpaceOnUse"><feFlood flood-opacity="0" result="BackgroundImageFix"/><feBlend in="SourceGraphic" in2="BackgroundImageFix" result="shape"/><feGaussianBlur result="effect1_foregroundBlur_18_15548" stdDeviation=".25"/></filter><filter id="snowflake_svg__j" width="1.3" height="10.072" x="16.077" y="2.158" color-interpolation-filters="sRGB" filterUnits="userSpaceOnUse"><feFlood flood-opacity="0" result="BackgroundImageFix"/><feBlend in="SourceGraphic" in2="BackgroundImageFix" result="shape"/><feGaussianBlur result="effect1_foregroundBlur_18_15548" stdDeviation=".2"/></filter><filter id="snowflake_svg__l" width="8.716" height="5.711" x="20.02" y="17.334" color-interpolation-filters="sRGB" filterUnits="userSpaceOnUse"><feFlood flood-opacity="0" result="BackgroundImageFix"/><feBlend in="SourceGraphic" in2="BackgroundImageFix" result="shape"/><feGaussianBlur result="effect1_foregroundBlur_18_15548" stdDeviation=".2"/></filter><filter id="snowflake_svg__m" width="2.68" height="7.011" x="23.051" y="19.283" color-interpolation-filters="sRGB" filterUnits="userSpaceOnUse"><feFlood flood-opacity="0" result="BackgroundImageFix"/><feBlend in="SourceGraphic" in2="BackgroundImageFix" result="shape"/><feGaussianBlur result="effect1_foregroundBlur_18_15548" stdDeviation=".2"/></filter><filter id="snowflake_svg__o" width="6.767" height="2.622" x="23.045" y="17.738" color-interpolation-filters="sRGB" filterUnits="userSpaceOnUse"><feFlood flood-opacity="0" result="BackgroundImageFix"/><feBlend in="SourceGraphic" in2="BackgroundImageFix" result="shape"/><feGaussianBlur result="effect1_foregroundBlur_18_15548" stdDeviation=".2"/></filter><filter id="snowflake_svg__q" width="5.48" height="2.408" x="24.278" y="11.378" color-interpolation-filters="sRGB" filterUnits="userSpaceOnUse"><feFlood flood-opacity="0" result="BackgroundImageFix"/><feBlend in="SourceGraphic" in2="BackgroundImageFix" result="shape"/><feGaussianBlur result="effect1_foregroundBlur_18_15548" stdDeviation=".2"/></filter><filter id="snowflake_svg__s" width="5.409" height="3.694" x="23.349" y="8.449" color-interpolation-filters="sRGB" filterUnits="userSpaceOnUse"><feFlood flood-opacity="0" result="BackgroundImageFix"/><feBlend in="SourceGraphic" in2="BackgroundImageFix" result="shape"/><feGaussianBlur result="effect1_foregroundBlur_18_15548" stdDeviation=".2"/></filter><filter id="snowflake_svg__u" width="2.622" height="6.088" x="23.206" y="5.733" color-interpolation-filters="sRGB" filterUnits="userSpaceOnUse"><feFlood flood-opacity="0" result="BackgroundImageFix"/><feBlend in="SourceGraphic" in2="BackgroundImageFix" result="shape"/><feGaussianBlur result="effect1_foregroundBlur_18_15548" stdDeviation=".2"/></filter><filter id="snowflake_svg__w" width="9.313" height="5.875" x="4.5" y="8.555" color-interpolation-filters="sRGB" filterUnits="userSpaceOnUse"><feFlood flood-opacity="0" result="BackgroundImageFix"/><feBlend in="SourceGraphic" in2="BackgroundImageFix" result="shape"/><feGaussianBlur result="effect1_foregroundBlur_18_15548" stdDeviation=".25"/></filter><filter id="snowflake_svg__y" width="2.938" height="6.875" x="7.562" y="5.553" color-interpolation-filters="sRGB" filterUnits="userSpaceOnUse"><feFlood flood-opacity="0" result="BackgroundImageFix"/><feBlend in="SourceGraphic" in2="BackgroundImageFix" result="shape"/><feGaussianBlur result="effect1_foregroundBlur_18_15548" stdDeviation=".25"/></filter><filter id="snowflake_svg__A" width="5.8" height="2.597" x="3.319" y="17.575" color-interpolation-filters="sRGB" filterUnits="userSpaceOnUse"><feFlood flood-opacity="0" result="BackgroundImageFix"/><feBlend in="SourceGraphic" in2="BackgroundImageFix" result="shape"/><feGaussianBlur result="effect1_foregroundBlur_18_15548" stdDeviation=".2"/></filter><filter id="snowflake_svg__C" width="4.503" height="4.415" x="11.753" y="2.956" color-interpolation-filters="sRGB" filterUnits="userSpaceOnUse"><feFlood flood-opacity="0" result="BackgroundImageFix"/><feBlend in="SourceGraphic" in2="BackgroundImageFix" result="shape"/><feGaussianBlur result="effect1_foregroundBlur_18_15548" stdDeviation=".25"/></filter><filter id="snowflake_svg__E" width="1.2" height="9.451" x="16.127" y="20.248" color-interpolation-filters="sRGB" filterUnits="userSpaceOnUse"><feFlood flood-opacity="0" result="BackgroundImageFix"/><feBlend in="SourceGraphic" in2="BackgroundImageFix" result="shape"/><feGaussianBlur result="effect1_foregroundBlur_18_15548" stdDeviation=".2"/></filter><filter id="snowflake_svg__G" width="4.99" height="5.019" x="16.127" y="23.295" color-interpolation-filters="sRGB" filterUnits="userSpaceOnUse"><feFlood flood-opacity="0" result="BackgroundImageFix"/><feBlend in="SourceGraphic" in2="BackgroundImageFix" result="shape"/><feGaussianBlur result="effect1_foregroundBlur_18_15548" stdDeviation=".2"/></filter><radialGradient id="snowflake_svg__d" cx="0" cy="0" r="1" gradientTransform="rotate(165.719 14.054 11.045)scale(1.53599 1.63195)" gradientUnits="userSpaceOnUse"><stop stop-color="#76E4FF"/><stop offset="1" stop-color="#76E4FF" stop-opacity="0"/></radialGradient><radialGradient id="snowflake_svg__e" cx="0" cy="0" r="1" gradientTransform="rotate(114.944 11.257 11.103)scale(2.54161 2.21738)" gradientUnits="userSpaceOnUse"><stop stop-color="#6EECFF"/><stop offset="1" stop-color="#6EECFF" stop-opacity="0"/></radialGradient><radialGradient id="snowflake_svg__f" cx="0" cy="0" r="1" gradientTransform="matrix(-1.25 .8125 -.70885 -1.09054 28.906 8.741)" gradientUnits="userSpaceOnUse"><stop stop-color="#6EECFF"/><stop offset="1" stop-color="#6EECFF" stop-opacity="0"/></radialGradient><radialGradient id="snowflake_svg__g" cx="0" cy="0" r="1" gradientTransform="matrix(-1.45768 1.39938 -1.42676 -1.4862 21.424 2.948)" gradientUnits="userSpaceOnUse"><stop stop-color="#78E5FF"/><stop offset="1" stop-color="#78E5FF" stop-opacity="0"/></radialGradient></defs></svg>