<svg width="32" height="32" fill="none" xmlns="http://www.w3.org/2000/svg"><g filter="url(#a)"><path d="M15.821 11.106c-.17.662-.749 1.155-1.433 1.498-1.939.67-3.47 1.316-4.738 1.942-1.122.555-1.11 2.308.015 2.855 1.315.639 2.966 1.252 4.8 1.98.493.195 1.19.747 1.363 1.426a55.506 55.506 0 0 0 2.063 6.35c.621 1.587 2.158 1.585 2.783 0 .81-2.059 1.427-4.282 2.122-6.397a2.02 2.02 0 0 1 1.294-1.395 69.593 69.593 0 0 0 4.721-1.889c1.26-.555 1.286-2.356.042-2.946a55.776 55.776 0 0 0-4.771-2.009 2.163 2.163 0 0 1-1.339-1.398c-.754-2.31-1.232-4.27-2.034-6.304-.625-1.586-2.264-1.537-2.89.048-.798 2.028-1.355 4.045-1.998 6.239Z" fill="url(#b)"/></g><path d="M15.821 11.106c-.17.662-.749 1.155-1.433 1.498-1.939.67-3.47 1.316-4.738 1.942-1.122.555-1.11 2.308.015 2.855 1.315.639 2.966 1.252 4.8 1.98.493.195 1.19.747 1.363 1.426a55.506 55.506 0 0 0 2.063 6.35c.621 1.587 2.158 1.585 2.783 0 .81-2.059 1.427-4.282 2.122-6.397a2.02 2.02 0 0 1 1.294-1.395 69.593 69.593 0 0 0 4.721-1.889c1.26-.555 1.286-2.356.042-2.946a55.776 55.776 0 0 0-4.771-2.009 2.163 2.163 0 0 1-1.339-1.398c-.754-2.31-1.232-4.27-2.034-6.304-.625-1.586-2.264-1.537-2.89.048-.798 2.028-1.355 4.045-1.998 6.239Z" fill="url(#c)"/><g filter="url(#d)"><path d="M7.768 5.816c-.055.213-.241.372-.461.482-.624.216-1.117.424-1.525.626-.361.178-.358.742.005.918.423.206.954.403 1.544.637.16.063.383.241.44.46.171.673.405 1.385.663 2.043.2.511.695.51.896 0 .26-.662.46-1.378.683-2.059a.65.65 0 0 1 .417-.449 22.404 22.404 0 0 0 1.52-.607.523.523 0 0 0 .013-.949c-.428-.202-.96-.437-1.536-.646a.696.696 0 0 1-.431-.45c-.243-.744-.397-1.374-.655-2.03-.2-.51-.729-.494-.93.016-.257.653-.436 1.302-.643 2.008Z" fill="url(#e)"/></g><path d="M7.768 5.816c-.055.213-.241.372-.461.482-.624.216-1.117.424-1.525.626-.361.178-.358.742.005.918.423.206.954.403 1.544.637.16.063.383.241.44.46.171.673.405 1.385.663 2.043.2.511.695.51.896 0 .26-.662.46-1.378.683-2.059a.65.65 0 0 1 .417-.449 22.404 22.404 0 0 0 1.52-.607.523.523 0 0 0 .013-.949c-.428-.202-.96-.437-1.536-.646a.696.696 0 0 1-.431-.45c-.243-.744-.397-1.374-.655-2.03-.2-.51-.729-.494-.93.016-.257.653-.436 1.302-.643 2.008Z" fill="url(#f)"/><g filter="url(#g)"><path d="M5.226 20.066c-.076.297-.336.518-.643.672-.87.3-1.558.59-2.127.872-.503.249-.498 1.035.007 1.28.59.288 1.331.563 2.154.89.222.087.534.335.612.64.24.938.566 1.932.926 2.85.279.712.969.711 1.249 0 .364-.924.64-1.922.952-2.872a.906.906 0 0 1 .581-.626 31.22 31.22 0 0 0 2.12-.847c.565-.25.576-1.058.018-1.323a25.027 25.027 0 0 0-2.141-.901.97.97 0 0 1-.601-.628c-.339-1.037-.553-1.916-.913-2.83-.28-.71-1.017-.689-1.297.023-.358.91-.609 1.815-.897 2.8Z" fill="url(#h)"/></g><defs><linearGradient id="b" x1="26.129" y1="11.271" x2="15.052" y2="22.931" gradientUnits="userSpaceOnUse"><stop stop-color="#FFCF5A"/><stop offset="1" stop-color="#FEA254"/></linearGradient><linearGradient id="c" x1="14.754" y1="29.29" x2="20.792" y2="16.554" gradientUnits="userSpaceOnUse"><stop stop-color="#FF886D"/><stop offset="1" stop-color="#FF886D" stop-opacity="0"/></linearGradient><linearGradient id="e" x1="11.086" y1="5.869" x2="7.521" y2="9.622" gradientUnits="userSpaceOnUse"><stop stop-color="#FFDA72"/><stop offset="1" stop-color="#F7A967"/></linearGradient><linearGradient id="f" x1="8.886" y1="11.98" x2="8.886" y2="7.855" gradientUnits="userSpaceOnUse"><stop stop-color="#FDA071"/><stop offset="1" stop-color="#FDA071" stop-opacity="0"/></linearGradient><filter id="a" x="8.415" y="3.404" width="21.607" height="25.193" filterUnits="userSpaceOnUse" color-interpolation-filters="sRGB"><feFlood flood-opacity="0" result="BackgroundImageFix"/><feBlend in="SourceGraphic" in2="BackgroundImageFix" result="shape"/><feColorMatrix in="SourceAlpha" values="0 0 0 0 0 0 0 0 0 0 0 0 0 0 0 0 0 0 127 0" result="hardAlpha"/><feOffset dx=".25" dy="-.25"/><feGaussianBlur stdDeviation=".25"/><feComposite in2="hardAlpha" operator="arithmetic" k2="-1" k3="1"/><feColorMatrix values="0 0 0 0 0.937255 0 0 0 0 0.482353 0 0 0 0 0.329412 0 0 0 1 0"/><feBlend in2="shape" result="effect1_innerShadow_18_454"/><feColorMatrix in="SourceAlpha" values="0 0 0 0 0 0 0 0 0 0 0 0 0 0 0 0 0 0 127 0" result="hardAlpha"/><feOffset dx=".25" dy=".25"/><feGaussianBlur stdDeviation=".5"/><feComposite in2="hardAlpha" operator="arithmetic" k2="-1" k3="1"/><feColorMatrix values="0 0 0 0 0.737255 0 0 0 0 0.615686 0 0 0 0 0.415686 0 0 0 1 0"/><feBlend in2="effect1_innerShadow_18_454" result="effect2_innerShadow_18_454"/><feColorMatrix in="SourceAlpha" values="0 0 0 0 0 0 0 0 0 0 0 0 0 0 0 0 0 0 127 0" result="hardAlpha"/><feOffset dx="-.4" dy=".25"/><feGaussianBlur stdDeviation=".2"/><feComposite in2="hardAlpha" operator="arithmetic" k2="-1" k3="1"/><feColorMatrix values="0 0 0 0 1 0 0 0 0 0.901961 0 0 0 0 0.458824 0 0 0 1 0"/><feBlend in2="effect2_innerShadow_18_454" result="effect3_innerShadow_18_454"/></filter><filter id="d" x="5.413" y="3.418" width="6.945" height="8.048" filterUnits="userSpaceOnUse" color-interpolation-filters="sRGB"><feFlood flood-opacity="0" result="BackgroundImageFix"/><feBlend in="SourceGraphic" in2="BackgroundImageFix" result="shape"/><feColorMatrix in="SourceAlpha" values="0 0 0 0 0 0 0 0 0 0 0 0 0 0 0 0 0 0 127 0" result="hardAlpha"/><feOffset dx=".1" dy=".1"/><feGaussianBlur stdDeviation=".1"/><feComposite in2="hardAlpha" operator="arithmetic" k2="-1" k3="1"/><feColorMatrix values="0 0 0 0 0.803922 0 0 0 0 0.6 0 0 0 0 0.262745 0 0 0 1 0"/><feBlend in2="shape" result="effect1_innerShadow_18_454"/><feColorMatrix in="SourceAlpha" values="0 0 0 0 0 0 0 0 0 0 0 0 0 0 0 0 0 0 127 0" result="hardAlpha"/><feOffset dx="-.1" dy=".1"/><feGaussianBlur stdDeviation=".1"/><feComposite in2="hardAlpha" operator="arithmetic" k2="-1" k3="1"/><feColorMatrix values="0 0 0 0 1 0 0 0 0 0.882353 0 0 0 0 0.423529 0 0 0 1 0"/><feBlend in2="effect1_innerShadow_18_454" result="effect2_innerShadow_18_454"/></filter><filter id="g" x="2.081" y="16.571" width="9.556" height="11.233" filterUnits="userSpaceOnUse" color-interpolation-filters="sRGB"><feFlood flood-opacity="0" result="BackgroundImageFix"/><feBlend in="SourceGraphic" in2="BackgroundImageFix" result="shape"/><feColorMatrix in="SourceAlpha" values="0 0 0 0 0 0 0 0 0 0 0 0 0 0 0 0 0 0 127 0" result="hardAlpha"/><feOffset dx=".15" dy="-.15"/><feGaussianBlur stdDeviation=".15"/><feComposite in2="hardAlpha" operator="arithmetic" k2="-1" k3="1"/><feColorMatrix values="0 0 0 0 1 0 0 0 0 0.458824 0 0 0 0 0.462745 0 0 0 1 0"/><feBlend in2="shape" result="effect1_innerShadow_18_454"/></filter><radialGradient id="h" cx="0" cy="0" r="1" gradientUnits="userSpaceOnUse" gradientTransform="matrix(-4.2802 5.63466 -5.4871 -4.1681 10.014 18.567)"><stop offset=".365" stop-color="#FFBC64"/><stop offset="1" stop-color="#FF8F6B"/></radialGradient></defs></svg>