<svg width="32" height="32" fill="none" xmlns="http://www.w3.org/2000/svg"><path d="M24.98 7h-11c-.55 0-1 .45-1 1v1h1V8h11v1h1V8c0-.55-.44-1-1-1Z" fill="url(#a)"/><path d="M24.98 7h-11c-.55 0-1 .45-1 1v1h1V8h11v1h1V8c0-.55-.44-1-1-1Z" fill="url(#b)"/><path d="M24.98 7h-11c-.55 0-1 .45-1 1v1h1V8h11v1h1V8c0-.55-.44-1-1-1Z" fill="url(#c)"/><path d="M29.48 23h-2.49v-8h2.49c.28 0 .51.23.51.51v6.98c-.01.29-.23.51-.51.51Z" fill="url(#d)"/><path d="M27.03 9H11.57c-.36 0-.69.21-.85.53l-3.67 7.51H4.88a1.9 1.9 0 0 0-1.9 1.9V27h25V9.95a.95.95 0 0 0-.95-.95Z" fill="url(#e)"/><path d="M28.12 24H2.86a.87.87 0 0 0-.87.87v1.26c0 .48.39.87.87.87h25.26c.48 0 .87-.39.87-.87v-1.26a.877.877 0 0 0-.87-.87Z" fill="url(#f)"/><path d="M28.12 24H2.86a.87.87 0 0 0-.87.87v1.26c0 .48.39.87.87.87h25.26c.48 0 .87-.39.87-.87v-1.26a.877.877 0 0 0-.87-.87Z" fill="url(#g)"/><path d="M28.12 24H2.86a.87.87 0 0 0-.87.87v1.26c0 .48.39.87.87.87h25.26c.48 0 .87-.39.87-.87v-1.26a.877.877 0 0 0-.87-.87Z" fill="url(#h)"/><path d="M26.32 27.017v-.842h-.001c-.065-2.064-1.76-3.646-3.839-3.646-2.08 0-3.774 1.582-3.839 3.646h-.002v.841h7.682Z" fill="url(#i)"/><path d="M12.32 27.017v-.842h-.001c-.065-2.064-1.76-3.646-3.839-3.646-2.08 0-3.774 1.582-3.839 3.646H4.64v.841h7.682Z" fill="url(#j)"/><path d="M27.98 17.05H4.684c.064-.007.13-.01.196-.01h2.17l3.67-7.51c.16-.32.49-.53.85-.53h15.46c.53 0 .95.43.95.95v7.1Z" fill="url(#k)"/><path d="M27.98 17.05H4.684c.064-.007.13-.01.196-.01h2.17l3.67-7.51c.16-.32.49-.53.85-.53h15.46c.53 0 .95.43.95.95v7.1Z" fill="url(#l)"/><path d="M27.98 17.05H4.684c.064-.007.13-.01.196-.01h2.17l3.67-7.51c.16-.32.49-.53.85-.53h15.46c.53 0 .95.43.95.95v7.1Z" fill="url(#m)"/><g filter="url(#n)"><path d="M4.816 18.313h22.47" stroke="url(#o)" stroke-width=".5" stroke-linecap="round"/></g><g filter="url(#p)"><path fill-rule="evenodd" clip-rule="evenodd" d="M9.715 16.762c.005-.292.07-.95.492-1.297.272-.225.704-.275 1.058-.246.295.023.473.286.473.573v1.94c0 .287-.178.55-.473.573-.354.029-.786-.021-1.058-.246-.421-.348-.487-1.005-.492-1.297Z" fill="url(#q)"/></g><path d="M14.94 16.09v-5.08a.96.96 0 0 0-.96-.96h-3.53l-3.42 7h6.95c.53 0 .96-.43.96-.96Z" fill="url(#r)"/><path d="M14.94 16.09v-5.08a.96.96 0 0 0-.96-.96h-3.53l-3.42 7h6.95c.53 0 .96-.43.96-.96Z" fill="url(#s)"/><path d="M14.94 16.09v-5.08a.96.96 0 0 0-.96-.96h-3.53l-3.42 7h6.95c.53 0 .96-.43.96-.96Z" fill="url(#t)"/><g filter="url(#u)"><path d="M4.98 20c0-.55-.42-1-.933-1h-.934v3h.934c.513 0 .933-.45.933-1v-1Z" stroke="url(#v)" stroke-width=".2"/></g><path d="M4.98 20c0-.55-.45-1-1-1h-1v3h1c.55 0 1-.45 1-1v-1Z" fill="url(#w)"/><path d="M4.98 20c0-.55-.45-1-1-1h-1v3h1c.55 0 1-.45 1-1v-1Z" fill="url(#x)"/><g filter="url(#y)"><path d="M8.48 30a3.5 3.5 0 1 0 0-7 3.5 3.5 0 0 0 0 7Z" fill="url(#z)"/><path d="M8.48 30a3.5 3.5 0 1 0 0-7 3.5 3.5 0 0 0 0 7Z" fill="url(#A)"/></g><g filter="url(#B)"><path d="M8.583 28.603a2.422 2.422 0 1 0 0-4.844 2.422 2.422 0 0 0 0 4.844Z" stroke="url(#C)" stroke-width=".85"/></g><g filter="url(#D)"><path d="M8.48 27.75a1.25 1.25 0 1 0 0-2.5 1.25 1.25 0 0 0 0 2.5Z" fill="#DDC7F3"/></g><g filter="url(#E)"><path d="M22.48 30a3.5 3.5 0 1 0 0-7 3.5 3.5 0 0 0 0 7Z" fill="url(#F)"/><path d="M22.48 30a3.5 3.5 0 1 0 0-7 3.5 3.5 0 0 0 0 7Z" fill="url(#G)"/></g><g filter="url(#H)"><path d="M22.48 27.75a1.25 1.25 0 1 0 0-2.5 1.25 1.25 0 0 0 0 2.5Z" fill="#D9C3F0"/></g><g filter="url(#I)"><path d="M22.558 28.603a2.422 2.422 0 1 0 0-4.844 2.422 2.422 0 0 0 0 4.844Z" stroke="url(#J)" stroke-width=".85"/></g><path d="M21.98 17.05h-4.04a.96.96 0 0 1-.96-.96v-5.08c0-.53.43-.96.96-.96h4.04c.53 0 .96.43.96.96v5.08c0 .53-.43.96-.96.96Z" fill="url(#K)"/><path d="M21.98 17.05h-4.04a.96.96 0 0 1-.96-.96v-5.08c0-.53.43-.96.96-.96h4.04c.53 0 .96.43.96.96v5.08c0 .53-.43.96-.96.96Z" fill="url(#L)"/><path d="M21.98 17.05h-4.04a.96.96 0 0 1-.96-.96v-5.08c0-.53.43-.96.96-.96h4.04c.53 0 .96.43.96.96v5.08c0 .53-.43.96-.96.96Z" fill="url(#M)"/><path d="M27.98 10.05h-2.04a.96.96 0 0 0-.96.96v5.08c0 .53.43.96.96.96h2.04v-7Z" fill="url(#N)"/><path d="M27.98 10.05h-2.04a.96.96 0 0 0-.96.96v5.08c0 .53.43.96.96.96h2.04v-7Z" fill="url(#O)"/><path d="M27.98 10.05h-2.04a.96.96 0 0 0-.96.96v5.08c0 .53.43.96.96.96h2.04v-7Z" fill="url(#P)"/><path d="M27.98 10.05h-2.04a.96.96 0 0 0-.96.96v5.08c0 .53.43.96.96.96h2.04v-7Z" fill="url(#Q)"/><g filter="url(#R)"><path d="M27.858 19h-.378c-.85 0-1.54.71-1.5 1.57.04.81.74 1.43 1.55 1.43h.328v-3Z" stroke="url(#S)" stroke-width=".2"/></g><path d="M27.98 19h-.5c-.85 0-1.54.71-1.5 1.57.04.81.74 1.43 1.55 1.43h.45v-3Z" fill="url(#T)"/><g filter="url(#U)"><path d="M15.48 19h-1c-.28 0-.5-.22-.5-.5s.22-.5.5-.5h1c.28 0 .5.22.5.5s-.22.5-.5.5Z" fill="url(#V)"/><path d="M15.48 19h-1c-.28 0-.5-.22-.5-.5s.22-.5.5-.5h1c.28 0 .5.22.5.5s-.22.5-.5.5Z" fill="url(#W)"/></g><g filter="url(#X)"><path d="M20.48 19h-1c-.28 0-.5-.22-.5-.5s.22-.5.5-.5h1c.28 0 .5.22.5.5s-.22.5-.5.5Z" fill="url(#Y)"/><path d="M20.48 19h-1c-.28 0-.5-.22-.5-.5s.22-.5.5-.5h1c.28 0 .5.22.5.5s-.22.5-.5.5Z" fill="url(#Z)"/></g><path d="M14.98 7h-1v1h1V7Z" fill="url(#aa)"/><path d="M16.98 7h-1v1h1V7Z" fill="url(#ab)"/><path d="M16.98 7h-1v1h1V7Z" fill="url(#ac)"/><path d="M18.98 7h-1v1h1V7Z" fill="url(#ad)"/><path d="M20.98 7h-1v1h1V7Z" fill="url(#ae)"/><path d="M22.98 7h-1v1h1V7Z" fill="url(#af)"/><path d="M24.98 7h-1v1h1V7Z" fill="url(#ag)"/><g filter="url(#ah)"><path d="M11.566 9.375H27.38" stroke="url(#ai)" stroke-width=".15" stroke-linecap="round"/></g><g filter="url(#aj)"><path d="M29.513 15.545v6.294" stroke="url(#ak)" stroke-width=".2" stroke-linecap="round"/></g><path fill-rule="evenodd" clip-rule="evenodd" d="M9.957 16.55c.005-.291.07-.949.492-1.297.272-.224.704-.274 1.058-.246.295.024.473.286.473.573v1.94c0 .288-.178.55-.473.574-.354.028-.786-.022-1.058-.246-.422-.348-.487-1.005-.492-1.297Z" fill="url(#al)"/><path fill-rule="evenodd" clip-rule="evenodd" d="M9.957 16.55c.005-.291.07-.949.492-1.297.272-.224.704-.274 1.058-.246.295.024.473.286.473.573v1.94c0 .288-.178.55-.473.574-.354.028-.786-.022-1.058-.246-.422-.348-.487-1.005-.492-1.297Z" fill="url(#am)"/><defs><linearGradient id="a" x1="25.985" y1="8.005" x2="12.985" y2="8.005" gradientUnits="userSpaceOnUse"><stop stop-color="#4F4E50"/><stop offset="1" stop-color="#35313E"/></linearGradient><linearGradient id="c" x1="21.145" y1="9" x2="21.145" y2="8.516" gradientUnits="userSpaceOnUse"><stop stop-color="#4C465F"/><stop offset="1" stop-color="#4C465F" stop-opacity="0"/></linearGradient><linearGradient id="d" x1="28.485" y1="15" x2="28.485" y2="20.406" gradientUnits="userSpaceOnUse"><stop stop-color="#665A78"/><stop offset="1" stop-color="#1E1528"/></linearGradient><linearGradient id="e" x1="27.885" y1="18.005" x2="3.316" y2="18.005" gradientUnits="userSpaceOnUse"><stop offset=".285" stop-color="#4A8FD6"/><stop offset=".519" stop-color="#4377DA"/><stop offset="1" stop-color="#4379D8"/></linearGradient><linearGradient id="f" x1="3.128" y1="25.505" x2="21.323" y2="25.505" gradientUnits="userSpaceOnUse"><stop stop-color="#AB9DBB"/><stop offset="1" stop-color="#B9A0D2"/></linearGradient><linearGradient id="g" x1="15.49" y1="27.374" x2="15.49" y2="26.306" gradientUnits="userSpaceOnUse"><stop stop-color="#9556C3"/><stop offset="1" stop-color="#9556C3" stop-opacity="0"/></linearGradient><linearGradient id="h" x1="15.49" y1="24" x2="15.49" y2="24.625" gradientUnits="userSpaceOnUse"><stop stop-color="#B2AEC1"/><stop offset="1" stop-color="#B2AEC1" stop-opacity="0"/></linearGradient><linearGradient id="i" x1="21.348" y1="22.781" x2="22.48" y2="27.017" gradientUnits="userSpaceOnUse"><stop stop-color="#131D7E"/><stop offset="1" stop-color="#26439E"/></linearGradient><linearGradient id="j" x1="7.348" y1="22.781" x2="8.48" y2="27.017" gradientUnits="userSpaceOnUse"><stop stop-color="#131D7E"/><stop offset="1" stop-color="#26439E"/></linearGradient><linearGradient id="k" x1="18.285" y1="17.05" x2="18.285" y2="16.844" gradientUnits="userSpaceOnUse"><stop stop-color="#52A2DE"/><stop offset="1" stop-color="#52A2DE" stop-opacity="0"/></linearGradient><linearGradient id="m" x1="16.332" y1="8.812" x2="16.332" y2="9.344" gradientUnits="userSpaceOnUse"><stop stop-color="#3C6FA9"/><stop offset="1" stop-color="#3C6FA9" stop-opacity="0"/></linearGradient><linearGradient id="o" x1="26.879" y1="18.5" x2="5.078" y2="18.5" gradientUnits="userSpaceOnUse"><stop stop-color="#5AB3DB"/><stop offset="1" stop-color="#5190E3"/></linearGradient><linearGradient id="q" x1="11.41" y1="18.313" x2="9.91" y2="16.422" gradientUnits="userSpaceOnUse"><stop stop-color="#122773"/><stop offset="1" stop-color="#122773" stop-opacity="0"/></linearGradient><linearGradient id="r" x1="14.952" y1="10.05" x2="7.871" y2="17.05" gradientUnits="userSpaceOnUse"><stop stop-color="#41B8F6"/><stop offset="1" stop-color="#59F5FF"/></linearGradient><linearGradient id="s" x1="15.329" y1="14.255" x2="13.579" y2="14.255" gradientUnits="userSpaceOnUse"><stop stop-color="#2CB6E5"/><stop offset="1" stop-color="#2CB6E5" stop-opacity="0"/></linearGradient><linearGradient id="t" x1="10.997" y1="10.292" x2="10.997" y2="12.206" gradientUnits="userSpaceOnUse"><stop stop-color="#0369DA"/><stop offset="1" stop-color="#0369DA" stop-opacity="0"/></linearGradient><linearGradient id="v" x1="4.483" y1="19" x2="3.764" y2="22.218" gradientUnits="userSpaceOnUse"><stop stop-color="#355FC4"/><stop offset="1" stop-color="#4283D7"/></linearGradient><linearGradient id="x" x1="2.77" y1="20.578" x2="3.254" y2="20.578" gradientUnits="userSpaceOnUse"><stop stop-color="#C3A558"/><stop offset="1" stop-color="#C3A558" stop-opacity="0"/></linearGradient><linearGradient id="z" x1="6.866" y1="25.62" x2="12.123" y2="25.62" gradientUnits="userSpaceOnUse"><stop offset=".239" stop-color="#34214F"/><stop offset="1" stop-color="#241337"/></linearGradient><linearGradient id="C" x1="9.903" y1="24.26" x2="6.96" y2="28.323" gradientUnits="userSpaceOnUse"><stop offset=".083" stop-color="#615B6B"/><stop offset=".391" stop-color="#615B6B" stop-opacity="0"/><stop offset=".692" stop-color="#615B6B" stop-opacity="0"/><stop offset=".935" stop-color="#615B6B"/></linearGradient><linearGradient id="F" x1="20.866" y1="25.62" x2="26.123" y2="25.62" gradientUnits="userSpaceOnUse"><stop offset=".239" stop-color="#34214F"/><stop offset="1" stop-color="#241337"/></linearGradient><linearGradient id="J" x1="23.878" y1="24.26" x2="20.935" y2="28.323" gradientUnits="userSpaceOnUse"><stop offset=".083" stop-color="#615B6B"/><stop offset=".391" stop-color="#615B6B" stop-opacity="0"/><stop offset=".692" stop-color="#615B6B" stop-opacity="0"/><stop offset=".935" stop-color="#615B6B"/></linearGradient><linearGradient id="K" x1="22.949" y1="10.05" x2="16.164" y2="15.104" gradientUnits="userSpaceOnUse"><stop stop-color="#41B8F6"/><stop offset="1" stop-color="#59F5FF"/></linearGradient><linearGradient id="L" x1="23.233" y1="14.255" x2="21.915" y2="14.255" gradientUnits="userSpaceOnUse"><stop stop-color="#2CB6E5"/><stop offset="1" stop-color="#2CB6E5" stop-opacity="0"/></linearGradient><linearGradient id="M" x1="19.969" y1="10.292" x2="19.969" y2="13.55" gradientUnits="userSpaceOnUse"><stop stop-color="#0369DA"/><stop offset="1" stop-color="#0369DA" stop-opacity="0"/></linearGradient><linearGradient id="N" x1="27.984" y1="10.05" x2="23.329" y2="11.796" gradientUnits="userSpaceOnUse"><stop stop-color="#41B8F6"/><stop offset="1" stop-color="#59F5FF"/></linearGradient><linearGradient id="O" x1="28.128" y1="14.255" x2="27.464" y2="14.255" gradientUnits="userSpaceOnUse"><stop stop-color="#2CB6E5"/><stop offset="1" stop-color="#2CB6E5" stop-opacity="0"/></linearGradient><linearGradient id="P" x1="26.484" y1="10.292" x2="26.484" y2="13.55" gradientUnits="userSpaceOnUse"><stop stop-color="#0369DA"/><stop offset="1" stop-color="#0369DA" stop-opacity="0"/></linearGradient><linearGradient id="S" x1="27.358" y1="19" x2="26.979" y2="22" gradientUnits="userSpaceOnUse"><stop stop-color="#3A74BE"/><stop offset="1" stop-color="#4797C1"/></linearGradient><linearGradient id="T" x1="27.98" y1="21.784" x2="26.979" y2="19.656" gradientUnits="userSpaceOnUse"><stop stop-color="#F83D69"/><stop offset="1" stop-color="#D11F58"/></linearGradient><linearGradient id="V" x1="13.985" y1="18.505" x2="15.985" y2="18.505" gradientUnits="userSpaceOnUse"><stop stop-color="#C6C2CB"/><stop offset="1" stop-color="#B9B4BF"/></linearGradient><linearGradient id="W" x1="16.066" y1="18.828" x2="15.395" y2="18.828" gradientUnits="userSpaceOnUse"><stop stop-color="#80778A"/><stop offset="1" stop-color="#80778A" stop-opacity="0"/></linearGradient><linearGradient id="Y" x1="18.985" y1="18.505" x2="20.985" y2="18.505" gradientUnits="userSpaceOnUse"><stop stop-color="#C6C2CB"/><stop offset="1" stop-color="#B9B4BF"/></linearGradient><linearGradient id="Z" x1="21.066" y1="18.828" x2="20.395" y2="18.828" gradientUnits="userSpaceOnUse"><stop stop-color="#80778A"/><stop offset="1" stop-color="#80778A" stop-opacity="0"/></linearGradient><linearGradient id="aa" x1="14.332" y1="8.125" x2="14.332" y2="7" gradientUnits="userSpaceOnUse"><stop stop-color="#C6BFD3"/><stop offset="1" stop-color="#D9D7DC"/></linearGradient><linearGradient id="ab" x1="15.985" y1="7.505" x2="16.985" y2="7.505" gradientUnits="userSpaceOnUse"><stop stop-color="#9B9B9B"/><stop offset="1" stop-color="#D3D3D3"/></linearGradient><linearGradient id="ac" x1="16.332" y1="8.125" x2="16.332" y2="7" gradientUnits="userSpaceOnUse"><stop stop-color="#C6BFD3"/><stop offset="1" stop-color="#D9D7DC"/></linearGradient><linearGradient id="ad" x1="18.332" y1="8.125" x2="18.332" y2="7" gradientUnits="userSpaceOnUse"><stop stop-color="#C6BFD3"/><stop offset="1" stop-color="#D9D7DC"/></linearGradient><linearGradient id="ae" x1="20.332" y1="8.125" x2="20.332" y2="7" gradientUnits="userSpaceOnUse"><stop stop-color="#C6BFD3"/><stop offset="1" stop-color="#D9D7DC"/></linearGradient><linearGradient id="af" x1="22.332" y1="8.125" x2="22.332" y2="7" gradientUnits="userSpaceOnUse"><stop stop-color="#C6BFD3"/><stop offset="1" stop-color="#D9D7DC"/></linearGradient><linearGradient id="ag" x1="24.332" y1="8.125" x2="24.332" y2="7" gradientUnits="userSpaceOnUse"><stop stop-color="#C6BFD3"/><stop offset="1" stop-color="#D9D7DC"/></linearGradient><linearGradient id="ai" x1="27.379" y1="9.563" x2="11.754" y2="9.563" gradientUnits="userSpaceOnUse"><stop stop-color="#6BD7F0"/><stop offset="1" stop-color="#6BD7F0" stop-opacity="0"/></linearGradient><linearGradient id="ak" x1="29.513" y1="20.238" x2="29.513" y2="15.363" gradientUnits="userSpaceOnUse"><stop stop-color="#675B75" stop-opacity="0"/><stop offset="1" stop-color="#675B75"/></linearGradient><linearGradient id="am" x1="11.664" y1="16.794" x2="11.98" y2="16.794" gradientUnits="userSpaceOnUse"><stop stop-color="#30334D" stop-opacity="0"/><stop offset="1" stop-color="#30334D"/></linearGradient><filter id="n" x="3.566" y="17.063" width="24.969" height="2.5" filterUnits="userSpaceOnUse" color-interpolation-filters="sRGB"><feFlood flood-opacity="0" result="BackgroundImageFix"/><feBlend in="SourceGraphic" in2="BackgroundImageFix" result="shape"/><feGaussianBlur stdDeviation=".5" result="effect1_foregroundBlur_18_10637"/></filter><filter id="p" x="9.465" y="14.961" width="2.523" height="3.601" filterUnits="userSpaceOnUse" color-interpolation-filters="sRGB"><feFlood flood-opacity="0" result="BackgroundImageFix"/><feBlend in="SourceGraphic" in2="BackgroundImageFix" result="shape"/><feGaussianBlur stdDeviation=".125" result="effect1_foregroundBlur_18_10637"/></filter><filter id="u" x="2.913" y="18.8" width="2.267" height="3.4" filterUnits="userSpaceOnUse" color-interpolation-filters="sRGB"><feFlood flood-opacity="0" result="BackgroundImageFix"/><feBlend in="SourceGraphic" in2="BackgroundImageFix" result="shape"/><feGaussianBlur stdDeviation=".05" result="effect1_foregroundBlur_18_10637"/></filter><filter id="y" x="4.98" y="23" width="7" height="7.15" filterUnits="userSpaceOnUse" color-interpolation-filters="sRGB"><feFlood flood-opacity="0" result="BackgroundImageFix"/><feBlend in="SourceGraphic" in2="BackgroundImageFix" result="shape"/><feColorMatrix in="SourceAlpha" values="0 0 0 0 0 0 0 0 0 0 0 0 0 0 0 0 0 0 127 0" result="hardAlpha"/><feOffset/><feGaussianBlur stdDeviation=".5"/><feComposite in2="hardAlpha" operator="arithmetic" k2="-1" k3="1"/><feColorMatrix values="0 0 0 0 0.145098 0 0 0 0 0.0823529 0 0 0 0 0.215686 0 0 0 1 0"/><feBlend in2="shape" result="effect1_innerShadow_18_10637"/><feColorMatrix in="SourceAlpha" values="0 0 0 0 0 0 0 0 0 0 0 0 0 0 0 0 0 0 127 0" result="hardAlpha"/><feOffset dy=".15"/><feGaussianBlur stdDeviation=".125"/><feComposite in2="hardAlpha" operator="arithmetic" k2="-1" k3="1"/><feColorMatrix values="0 0 0 0 0.207843 0 0 0 0 0.0313726 0 0 0 0 0.235294 0 0 0 1 0"/><feBlend in2="effect1_innerShadow_18_10637" result="effect2_innerShadow_18_10637"/></filter><filter id="B" x="4.986" y="22.584" width="7.194" height="7.194" filterUnits="userSpaceOnUse" color-interpolation-filters="sRGB"><feFlood flood-opacity="0" result="BackgroundImageFix"/><feBlend in="SourceGraphic" in2="BackgroundImageFix" result="shape"/><feGaussianBlur stdDeviation=".375" result="effect1_foregroundBlur_18_10637"/></filter><filter id="D" x="7.18" y="25.2" width="2.6" height="2.6" filterUnits="userSpaceOnUse" color-interpolation-filters="sRGB"><feFlood flood-opacity="0" result="BackgroundImageFix"/><feBlend in="SourceGraphic" in2="BackgroundImageFix" result="shape"/><feColorMatrix in="SourceAlpha" values="0 0 0 0 0 0 0 0 0 0 0 0 0 0 0 0 0 0 127 0" result="hardAlpha"/><feOffset dx=".05" dy="-.05"/><feGaussianBlur stdDeviation=".05"/><feComposite in2="hardAlpha" operator="arithmetic" k2="-1" k3="1"/><feColorMatrix values="0 0 0 0 0.478431 0 0 0 0 0.364706 0 0 0 0 0.584314 0 0 0 1 0"/><feBlend in2="shape" result="effect1_innerShadow_18_10637"/><feColorMatrix in="SourceAlpha" values="0 0 0 0 0 0 0 0 0 0 0 0 0 0 0 0 0 0 127 0" result="hardAlpha"/><feOffset dx="-.05" dy=".05"/><feGaussianBlur stdDeviation=".05"/><feComposite in2="hardAlpha" operator="arithmetic" k2="-1" k3="1"/><feColorMatrix values="0 0 0 0 0.807843 0 0 0 0 0.764706 0 0 0 0 0.858824 0 0 0 1 0"/><feBlend in2="effect1_innerShadow_18_10637" result="effect2_innerShadow_18_10637"/></filter><filter id="E" x="18.98" y="23" width="7" height="7.15" filterUnits="userSpaceOnUse" color-interpolation-filters="sRGB"><feFlood flood-opacity="0" result="BackgroundImageFix"/><feBlend in="SourceGraphic" in2="BackgroundImageFix" result="shape"/><feColorMatrix in="SourceAlpha" values="0 0 0 0 0 0 0 0 0 0 0 0 0 0 0 0 0 0 127 0" result="hardAlpha"/><feOffset/><feGaussianBlur stdDeviation=".5"/><feComposite in2="hardAlpha" operator="arithmetic" k2="-1" k3="1"/><feColorMatrix values="0 0 0 0 0.145098 0 0 0 0 0.0823529 0 0 0 0 0.215686 0 0 0 1 0"/><feBlend in2="shape" result="effect1_innerShadow_18_10637"/><feColorMatrix in="SourceAlpha" values="0 0 0 0 0 0 0 0 0 0 0 0 0 0 0 0 0 0 127 0" result="hardAlpha"/><feOffset dy=".15"/><feGaussianBlur stdDeviation=".125"/><feComposite in2="hardAlpha" operator="arithmetic" k2="-1" k3="1"/><feColorMatrix values="0 0 0 0 0.207843 0 0 0 0 0.0313726 0 0 0 0 0.235294 0 0 0 1 0"/><feBlend in2="effect1_innerShadow_18_10637" result="effect2_innerShadow_18_10637"/></filter><filter id="H" x="21.18" y="25.2" width="2.6" height="2.6" filterUnits="userSpaceOnUse" color-interpolation-filters="sRGB"><feFlood flood-opacity="0" result="BackgroundImageFix"/><feBlend in="SourceGraphic" in2="BackgroundImageFix" result="shape"/><feColorMatrix in="SourceAlpha" values="0 0 0 0 0 0 0 0 0 0 0 0 0 0 0 0 0 0 127 0" result="hardAlpha"/><feOffset dx=".05" dy="-.05"/><feGaussianBlur stdDeviation=".05"/><feComposite in2="hardAlpha" operator="arithmetic" k2="-1" k3="1"/><feColorMatrix values="0 0 0 0 0.478431 0 0 0 0 0.364706 0 0 0 0 0.584314 0 0 0 1 0"/><feBlend in2="shape" result="effect1_innerShadow_18_10637"/><feColorMatrix in="SourceAlpha" values="0 0 0 0 0 0 0 0 0 0 0 0 0 0 0 0 0 0 127 0" result="hardAlpha"/><feOffset dx="-.05" dy=".05"/><feGaussianBlur stdDeviation=".05"/><feComposite in2="hardAlpha" operator="arithmetic" k2="-1" k3="1"/><feColorMatrix values="0 0 0 0 0.807843 0 0 0 0 0.764706 0 0 0 0 0.858824 0 0 0 1 0"/><feBlend in2="effect1_innerShadow_18_10637" result="effect2_innerShadow_18_10637"/></filter><filter id="I" x="18.961" y="22.584" width="7.194" height="7.194" filterUnits="userSpaceOnUse" color-interpolation-filters="sRGB"><feFlood flood-opacity="0" result="BackgroundImageFix"/><feBlend in="SourceGraphic" in2="BackgroundImageFix" result="shape"/><feGaussianBlur stdDeviation=".375" result="effect1_foregroundBlur_18_10637"/></filter><filter id="R" x="25.778" y="18.8" width="2.279" height="3.4" filterUnits="userSpaceOnUse" color-interpolation-filters="sRGB"><feFlood flood-opacity="0" result="BackgroundImageFix"/><feBlend in="SourceGraphic" in2="BackgroundImageFix" result="shape"/><feGaussianBlur stdDeviation=".05" result="effect1_foregroundBlur_18_10637"/></filter><filter id="U" x="13.83" y="18" width="2.15" height="1.25" filterUnits="userSpaceOnUse" color-interpolation-filters="sRGB"><feFlood flood-opacity="0" result="BackgroundImageFix"/><feBlend in="SourceGraphic" in2="BackgroundImageFix" result="shape"/><feColorMatrix in="SourceAlpha" values="0 0 0 0 0 0 0 0 0 0 0 0 0 0 0 0 0 0 127 0" result="hardAlpha"/><feOffset dx="-.15" dy=".25"/><feGaussianBlur stdDeviation=".2"/><feComposite in2="hardAlpha" operator="arithmetic" k2="-1" k3="1"/><feColorMatrix values="0 0 0 0 0.529412 0 0 0 0 0.423529 0 0 0 0 0.627451 0 0 0 1 0"/><feBlend in2="shape" result="effect1_innerShadow_18_10637"/></filter><filter id="X" x="18.83" y="18" width="2.15" height="1.25" filterUnits="userSpaceOnUse" color-interpolation-filters="sRGB"><feFlood flood-opacity="0" result="BackgroundImageFix"/><feBlend in="SourceGraphic" in2="BackgroundImageFix" result="shape"/><feColorMatrix in="SourceAlpha" values="0 0 0 0 0 0 0 0 0 0 0 0 0 0 0 0 0 0 127 0" result="hardAlpha"/><feOffset dx="-.15" dy=".25"/><feGaussianBlur stdDeviation=".2"/><feComposite in2="hardAlpha" operator="arithmetic" k2="-1" k3="1"/><feColorMatrix values="0 0 0 0 0.529412 0 0 0 0 0.423529 0 0 0 0 0.627451 0 0 0 1 0"/><feBlend in2="shape" result="effect1_innerShadow_18_10637"/></filter><filter id="ah" x="11.191" y="9" width="16.563" height=".75" filterUnits="userSpaceOnUse" color-interpolation-filters="sRGB"><feFlood flood-opacity="0" result="BackgroundImageFix"/><feBlend in="SourceGraphic" in2="BackgroundImageFix" result="shape"/><feGaussianBlur stdDeviation=".15" result="effect1_foregroundBlur_18_10637"/></filter><filter id="aj" x="29.213" y="15.245" width=".6" height="6.895" filterUnits="userSpaceOnUse" color-interpolation-filters="sRGB"><feFlood flood-opacity="0" result="BackgroundImageFix"/><feBlend in="SourceGraphic" in2="BackgroundImageFix" result="shape"/><feGaussianBlur stdDeviation=".1" result="effect1_foregroundBlur_18_10637"/></filter><radialGradient id="b" cx="0" cy="0" r="1" gradientUnits="userSpaceOnUse" gradientTransform="matrix(-.73672 .94191 -.74476 -.58252 25.749 7.058)"><stop stop-color="#535354"/><stop offset="1" stop-color="#535354" stop-opacity="0"/></radialGradient><radialGradient id="l" cx="0" cy="0" r="1" gradientUnits="userSpaceOnUse" gradientTransform="matrix(-6.9375 4.62499 -7.29807 -10.94713 28.441 9)"><stop stop-color="#5FC0EA"/><stop offset="1" stop-color="#5FC0EA" stop-opacity="0"/></radialGradient><radialGradient id="w" cx="0" cy="0" r="1" gradientUnits="userSpaceOnUse" gradientTransform="matrix(0 -2.77856 2.2146 0 3.669 21.567)"><stop stop-color="#FFF783"/><stop offset="1" stop-color="#DFBF4E"/></radialGradient><radialGradient id="A" cx="0" cy="0" r="1" gradientUnits="userSpaceOnUse" gradientTransform="matrix(.79083 -1.73826 1.81555 .826 8.48 26.187)"><stop offset=".523" stop-color="#2D114D"/><stop offset="1" stop-color="#2B1249" stop-opacity="0"/></radialGradient><radialGradient id="G" cx="0" cy="0" r="1" gradientUnits="userSpaceOnUse" gradientTransform="matrix(.79083 -1.73826 1.81555 .826 22.48 26.187)"><stop offset=".523" stop-color="#2D114D"/><stop offset="1" stop-color="#2B1249" stop-opacity="0"/></radialGradient><radialGradient id="Q" cx="0" cy="0" r="1" gradientUnits="userSpaceOnUse" gradientTransform="rotate(118.376 11.101 13.911) scale(3.17681 1.10968)"><stop stop-color="#3296F0"/><stop offset="1" stop-color="#3296F0" stop-opacity="0"/></radialGradient><radialGradient id="al" cx="0" cy="0" r="1" gradientUnits="userSpaceOnUse" gradientTransform="matrix(1.25 -1.30469 3.48231 3.33635 10.786 17.484)"><stop stop-color="#2D253A"/><stop offset="1" stop-color="#5E526A"/></radialGradient></defs></svg>