<svg width="32" height="32" fill="none" xmlns="http://www.w3.org/2000/svg"><path d="M7.194 25.049h7.02l-3.73 2.84c-.99.75-2.19 1.16-3.43 1.16H3.672c-.51 0-.73-.65-.32-.96l3.842-3.04Z" fill="#A0A7FF"/><path d="M7.194 25.049h7.02l-3.73 2.84c-.99.75-2.19 1.16-3.43 1.16H3.672c-.51 0-.73-.65-.32-.96l3.842-3.04Z" fill="url(#a)"/><path d="M7.194 25.049h7.02l-3.73 2.84c-.99.75-2.19 1.16-3.43 1.16H3.672c-.51 0-.73-.65-.32-.96l3.842-3.04Z" fill="url(#b)"/><path d="M29 16.518c-.04-4.26-1.716-7.526-4.916-9.876-.135-.099-.144-.278 0-.445.908-1.054.846-2.48.354-3.625-.157-.363-.594-1.05-1.165-.554-.57.496-1.52 1.7-1.52 1.7-.503.706-.526 1.237-.362 2.112 0 0 .03.203.086.367.054.164-.207 0-.555-.094-.348-.093-1.094-.273-2.125.743 0 0-1.355 1.464-1.469 1.968-.113.504.358.653.54.696 1.69.398 2.738.238 3.995-1.02.137-.093.255-.098.38.059 1.843 2.328 2.724 5.645 2.23 8.54-.446 2.626-3.989 1.632-3.82-.78 0-3.46-2.81-6.27-6.27-6.27H6.782c-2.35 0-4.66 2.24-4.66 4.9-.215 7.766 5.652 15.775 13.895 15.204C25.353 29.497 29 25.3 29 16.518Z" fill="#44C0FF"/><path d="M29 16.518c-.04-4.26-1.716-7.526-4.916-9.876-.135-.099-.144-.278 0-.445.908-1.054.846-2.48.354-3.625-.157-.363-.594-1.05-1.165-.554-.57.496-1.52 1.7-1.52 1.7-.503.706-.526 1.237-.362 2.112 0 0 .03.203.086.367.054.164-.207 0-.555-.094-.348-.093-1.094-.273-2.125.743 0 0-1.355 1.464-1.469 1.968-.113.504.358.653.54.696 1.69.398 2.738.238 3.995-1.02.137-.093.255-.098.38.059 1.843 2.328 2.724 5.645 2.23 8.54-.446 2.626-3.989 1.632-3.82-.78 0-3.46-2.81-6.27-6.27-6.27H6.782c-2.35 0-4.66 2.24-4.66 4.9-.215 7.766 5.652 15.775 13.895 15.204C25.353 29.497 29 25.3 29 16.518Z" fill="url(#c)"/><path d="M29 16.518c-.04-4.26-1.716-7.526-4.916-9.876-.135-.099-.144-.278 0-.445.908-1.054.846-2.48.354-3.625-.157-.363-.594-1.05-1.165-.554-.57.496-1.52 1.7-1.52 1.7-.503.706-.526 1.237-.362 2.112 0 0 .03.203.086.367.054.164-.207 0-.555-.094-.348-.093-1.094-.273-2.125.743 0 0-1.355 1.464-1.469 1.968-.113.504.358.653.54.696 1.69.398 2.738.238 3.995-1.02.137-.093.255-.098.38.059 1.843 2.328 2.724 5.645 2.23 8.54-.446 2.626-3.989 1.632-3.82-.78 0-3.46-2.81-6.27-6.27-6.27H6.782c-2.35 0-4.66 2.24-4.66 4.9-.215 7.766 5.652 15.775 13.895 15.204C25.353 29.497 29 25.3 29 16.518Z" fill="url(#d)"/><path d="M29 16.518c-.04-4.26-1.716-7.526-4.916-9.876-.135-.099-.144-.278 0-.445.908-1.054.846-2.48.354-3.625-.157-.363-.594-1.05-1.165-.554-.57.496-1.52 1.7-1.52 1.7-.503.706-.526 1.237-.362 2.112 0 0 .03.203.086.367.054.164-.207 0-.555-.094-.348-.093-1.094-.273-2.125.743 0 0-1.355 1.464-1.469 1.968-.113.504.358.653.54.696 1.69.398 2.738.238 3.995-1.02.137-.093.255-.098.38.059 1.843 2.328 2.724 5.645 2.23 8.54-.446 2.626-3.989 1.632-3.82-.78 0-3.46-2.81-6.27-6.27-6.27H6.782c-2.35 0-4.66 2.24-4.66 4.9-.215 7.766 5.652 15.775 13.895 15.204C25.353 29.497 29 25.3 29 16.518Z" fill="url(#e)"/><path d="M29 16.518c-.04-4.26-1.716-7.526-4.916-9.876-.135-.099-.144-.278 0-.445.908-1.054.846-2.48.354-3.625-.157-.363-.594-1.05-1.165-.554-.57.496-1.52 1.7-1.52 1.7-.503.706-.526 1.237-.362 2.112 0 0 .03.203.086.367.054.164-.207 0-.555-.094-.348-.093-1.094-.273-2.125.743 0 0-1.355 1.464-1.469 1.968-.113.504.358.653.54.696 1.69.398 2.738.238 3.995-1.02.137-.093.255-.098.38.059 1.843 2.328 2.724 5.645 2.23 8.54-.446 2.626-3.989 1.632-3.82-.78 0-3.46-2.81-6.27-6.27-6.27H6.782c-2.35 0-4.66 2.24-4.66 4.9-.215 7.766 5.652 15.775 13.895 15.204C25.353 29.497 29 25.3 29 16.518Z" fill="url(#f)"/><path d="M29 16.518c-.04-4.26-1.716-7.526-4.916-9.876-.135-.099-.144-.278 0-.445.908-1.054.846-2.48.354-3.625-.157-.363-.594-1.05-1.165-.554-.57.496-1.52 1.7-1.52 1.7-.503.706-.526 1.237-.362 2.112 0 0 .03.203.086.367.054.164-.207 0-.555-.094-.348-.093-1.094-.273-2.125.743 0 0-1.355 1.464-1.469 1.968-.113.504.358.653.54.696 1.69.398 2.738.238 3.995-1.02.137-.093.255-.098.38.059 1.843 2.328 2.724 5.645 2.23 8.54-.446 2.626-3.989 1.632-3.82-.78 0-3.46-2.81-6.27-6.27-6.27H6.782c-2.35 0-4.66 2.24-4.66 4.9-.215 7.766 5.652 15.775 13.895 15.204C25.353 29.497 29 25.3 29 16.518Z" fill="url(#g)"/><path d="M29 16.518c-.04-4.26-1.716-7.526-4.916-9.876-.135-.099-.144-.278 0-.445.908-1.054.846-2.48.354-3.625-.157-.363-.594-1.05-1.165-.554-.57.496-1.52 1.7-1.52 1.7-.503.706-.526 1.237-.362 2.112 0 0 .03.203.086.367.054.164-.207 0-.555-.094-.348-.093-1.094-.273-2.125.743 0 0-1.355 1.464-1.469 1.968-.113.504.358.653.54.696 1.69.398 2.738.238 3.995-1.02.137-.093.255-.098.38.059 1.843 2.328 2.724 5.645 2.23 8.54-.446 2.626-3.989 1.632-3.82-.78 0-3.46-2.81-6.27-6.27-6.27H6.782c-2.35 0-4.66 2.24-4.66 4.9-.215 7.766 5.652 15.775 13.895 15.204C25.353 29.497 29 25.3 29 16.518Z" fill="url(#h)"/><path d="M29 16.518c-.04-4.26-1.716-7.526-4.916-9.876-.135-.099-.144-.278 0-.445.908-1.054.846-2.48.354-3.625-.157-.363-.594-1.05-1.165-.554-.57.496-1.52 1.7-1.52 1.7-.503.706-.526 1.237-.362 2.112 0 0 .03.203.086.367.054.164-.207 0-.555-.094-.348-.093-1.094-.273-2.125.743 0 0-1.355 1.464-1.469 1.968-.113.504.358.653.54.696 1.69.398 2.738.238 3.995-1.02.137-.093.255-.098.38.059 1.843 2.328 2.724 5.645 2.23 8.54-.446 2.626-3.989 1.632-3.82-.78 0-3.46-2.81-6.27-6.27-6.27H6.782c-2.35 0-4.66 2.24-4.66 4.9-.215 7.766 5.652 15.775 13.895 15.204C25.353 29.497 29 25.3 29 16.518Z" fill="url(#i)"/><path d="M29 16.518c-.04-4.26-1.716-7.526-4.916-9.876-.135-.099-.144-.278 0-.445.908-1.054.846-2.48.354-3.625-.157-.363-.594-1.05-1.165-.554-.57.496-1.52 1.7-1.52 1.7-.503.706-.526 1.237-.362 2.112 0 0 .03.203.086.367.054.164-.207 0-.555-.094-.348-.093-1.094-.273-2.125.743 0 0-1.355 1.464-1.469 1.968-.113.504.358.653.54.696 1.69.398 2.738.238 3.995-1.02.137-.093.255-.098.38.059 1.843 2.328 2.724 5.645 2.23 8.54-.446 2.626-3.989 1.632-3.82-.78 0-3.46-2.81-6.27-6.27-6.27H6.782c-2.35 0-4.66 2.24-4.66 4.9-.215 7.766 5.652 15.775 13.895 15.204C25.353 29.497 29 25.3 29 16.518Z" fill="url(#j)" fill-opacity=".5"/><path d="M29 16.518c-.04-4.26-1.716-7.526-4.916-9.876-.135-.099-.144-.278 0-.445.908-1.054.846-2.48.354-3.625-.157-.363-.594-1.05-1.165-.554-.57.496-1.52 1.7-1.52 1.7-.503.706-.526 1.237-.362 2.112 0 0 .03.203.086.367.054.164-.207 0-.555-.094-.348-.093-1.094-.273-2.125.743 0 0-1.355 1.464-1.469 1.968-.113.504.358.653.54.696 1.69.398 2.738.238 3.995-1.02.137-.093.255-.098.38.059 1.843 2.328 2.724 5.645 2.23 8.54-.446 2.626-3.989 1.632-3.82-.78 0-3.46-2.81-6.27-6.27-6.27H6.782c-2.35 0-4.66 2.24-4.66 4.9-.215 7.766 5.652 15.775 13.895 15.204C25.353 29.497 29 25.3 29 16.518Z" fill="url(#k)"/><path d="M29 16.518c-.04-4.26-1.716-7.526-4.916-9.876-.135-.099-.144-.278 0-.445.908-1.054.846-2.48.354-3.625-.157-.363-.594-1.05-1.165-.554-.57.496-1.52 1.7-1.52 1.7-.503.706-.526 1.237-.362 2.112 0 0 .03.203.086.367.054.164-.207 0-.555-.094-.348-.093-1.094-.273-2.125.743 0 0-1.355 1.464-1.469 1.968-.113.504.358.653.54.696 1.69.398 2.738.238 3.995-1.02.137-.093.255-.098.38.059 1.843 2.328 2.724 5.645 2.23 8.54-.446 2.626-3.989 1.632-3.82-.78 0-3.46-2.81-6.27-6.27-6.27H6.782c-2.35 0-4.66 2.24-4.66 4.9-.215 7.766 5.652 15.775 13.895 15.204C25.353 29.497 29 25.3 29 16.518Z" fill="url(#l)"/><path d="M29 16.518c-.04-4.26-1.716-7.526-4.916-9.876-.135-.099-.144-.278 0-.445.908-1.054.846-2.48.354-3.625-.157-.363-.594-1.05-1.165-.554-.57.496-1.52 1.7-1.52 1.7-.503.706-.526 1.237-.362 2.112 0 0 .03.203.086.367.054.164-.207 0-.555-.094-.348-.093-1.094-.273-2.125.743 0 0-1.355 1.464-1.469 1.968-.113.504.358.653.54.696 1.69.398 2.738.238 3.995-1.02.137-.093.255-.098.38.059 1.843 2.328 2.724 5.645 2.23 8.54-.446 2.626-3.989 1.632-3.82-.78 0-3.46-2.81-6.27-6.27-6.27H6.782c-2.35 0-4.66 2.24-4.66 4.9-.215 7.766 5.652 15.775 13.895 15.204C25.353 29.497 29 25.3 29 16.518Z" fill="url(#m)"/><g filter="url(#n)"><path d="M19.938 18.58c-.765-1.166-1.31-3.068-1.524-4.724-.103-.787-.745-1.432-1.539-1.432-.794 0-1.446.647-1.374 1.437.46 5.045 3.318 7.117 5.124 7.375 1.575.225 3.115-.844 3.5-1.656-.98.302-3.188.525-4.188-1Z" fill="url(#o)"/></g><path d="M4.004 9.049a1 1 0 1 0 0-2 1 1 0 0 0 0 2Z" fill="url(#p)"/><path d="M4.004 9.049a1 1 0 1 0 0-2 1 1 0 0 0 0 2Z" fill="url(#q)"/><path d="M18.096 4.174a1.217 1.217 0 1 0 0-2.434 1.217 1.217 0 0 0 0 2.434Z" fill="url(#r)"/><path d="M18.096 4.174a1.217 1.217 0 1 0 0-2.434 1.217 1.217 0 0 0 0 2.434Z" fill="url(#s)"/><path d="M18.096 4.174a1.217 1.217 0 1 0 0-2.434 1.217 1.217 0 0 0 0 2.434Z" fill="url(#t)"/><path d="M13.004 2.049c-.77 0-1.47.32-2 .83-.53-.51-1.23-.83-2-.83-1.66 0-3 1.34-3 3v.47c0 .84.69 1.55 1.53 1.53.81-.02 1.47-.68 1.47-1.5 0-.27.23-.5.5-.5.26 0 .47.19.5.43l.43 3.07c.04.29.28.5.57.5.29 0 .53-.21.57-.5l.43-3.07c.03-.24.24-.43.5-.43.27 0 .5.23.5.5 0 .82.66 1.48 1.47 1.5.84.02 1.53-.69 1.53-1.53v-.47c0-1.66-1.34-3-3-3Z" fill="url(#u)"/><path d="M13.004 2.049c-.77 0-1.47.32-2 .83-.53-.51-1.23-.83-2-.83-1.66 0-3 1.34-3 3v.47c0 .84.69 1.55 1.53 1.53.81-.02 1.47-.68 1.47-1.5 0-.27.23-.5.5-.5.26 0 .47.19.5.43l.43 3.07c.04.29.28.5.57.5.29 0 .53-.21.57-.5l.43-3.07c.03-.24.24-.43.5-.43.27 0 .5.23.5.5 0 .82.66 1.48 1.47 1.5.84.02 1.53-.69 1.53-1.53v-.47c0-1.66-1.34-3-3-3Z" fill="url(#v)"/><path d="M13.004 2.049c-.77 0-1.47.32-2 .83-.53-.51-1.23-.83-2-.83-1.66 0-3 1.34-3 3v.47c0 .84.69 1.55 1.53 1.53.81-.02 1.47-.68 1.47-1.5 0-.27.23-.5.5-.5.26 0 .47.19.5.43l.43 3.07c.04.29.28.5.57.5.29 0 .53-.21.57-.5l.43-3.07c.03-.24.24-.43.5-.43.27 0 .5.23.5.5 0 .82.66 1.48 1.47 1.5.84.02 1.53-.69 1.53-1.53v-.47c0-1.66-1.34-3-3-3Z" fill="url(#w)"/><path d="M13.004 2.049c-.77 0-1.47.32-2 .83-.53-.51-1.23-.83-2-.83-1.66 0-3 1.34-3 3v.47c0 .84.69 1.55 1.53 1.53.81-.02 1.47-.68 1.47-1.5 0-.27.23-.5.5-.5.26 0 .47.19.5.43l.43 3.07c.04.29.28.5.57.5.29 0 .53-.21.57-.5l.43-3.07c.03-.24.24-.43.5-.43.27 0 .5.23.5.5 0 .82.66 1.48 1.47 1.5.84.02 1.53-.69 1.53-1.53v-.47c0-1.66-1.34-3-3-3Z" fill="url(#x)"/><path d="M13.004 2.049c-.77 0-1.47.32-2 .83-.53-.51-1.23-.83-2-.83-1.66 0-3 1.34-3 3v.47c0 .84.69 1.55 1.53 1.53.81-.02 1.47-.68 1.47-1.5 0-.27.23-.5.5-.5.26 0 .47.19.5.43l.43 3.07c.04.29.28.5.57.5.29 0 .53-.21.57-.5l.43-3.07c.03-.24.24-.43.5-.43.27 0 .5.23.5.5 0 .82.66 1.48 1.47 1.5.84.02 1.53-.69 1.53-1.53v-.47c0-1.66-1.34-3-3-3Z" fill="url(#y)"/><path d="M13.004 2.049c-.77 0-1.47.32-2 .83-.53-.51-1.23-.83-2-.83-1.66 0-3 1.34-3 3v.47c0 .84.69 1.55 1.53 1.53.81-.02 1.47-.68 1.47-1.5 0-.27.23-.5.5-.5.26 0 .47.19.5.43l.43 3.07c.04.29.28.5.57.5.29 0 .53-.21.57-.5l.43-3.07c.03-.24.24-.43.5-.43.27 0 .5.23.5.5 0 .82.66 1.48 1.47 1.5.84.02 1.53-.69 1.53-1.53v-.47c0-1.66-1.34-3-3-3Z" fill="url(#z)"/><path d="M13.004 2.049c-.77 0-1.47.32-2 .83-.53-.51-1.23-.83-2-.83-1.66 0-3 1.34-3 3v.47c0 .84.69 1.55 1.53 1.53.81-.02 1.47-.68 1.47-1.5 0-.27.23-.5.5-.5.26 0 .47.19.5.43l.43 3.07c.04.29.28.5.57.5.29 0 .53-.21.57-.5l.43-3.07c.03-.24.24-.43.5-.43.27 0 .5.23.5.5 0 .82.66 1.48 1.47 1.5.84.02 1.53-.69 1.53-1.53v-.47c0-1.66-1.34-3-3-3Z" fill="url(#A)"/><path d="M13.004 2.049c-.77 0-1.47.32-2 .83-.53-.51-1.23-.83-2-.83-1.66 0-3 1.34-3 3v.47c0 .84.69 1.55 1.53 1.53.81-.02 1.47-.68 1.47-1.5 0-.27.23-.5.5-.5.26 0 .47.19.5.43l.43 3.07c.04.29.28.5.57.5.29 0 .53-.21.57-.5l.43-3.07c.03-.24.24-.43.5-.43.27 0 .5.23.5.5 0 .82.66 1.48 1.47 1.5.84.02 1.53-.69 1.53-1.53v-.47c0-1.66-1.34-3-3-3Z" fill="url(#B)"/><path fill-rule="evenodd" clip-rule="evenodd" d="M22.398 28.813c-5.539-1.635-5.618-3.053-5.882-7.765l-.016-.28c-.164-2.912-3.766-4.61-5.688-4.72-1.838-.104-8.137-.008-8.68 0 .338 7.4 6.033 14.64 13.884 14.095 2.533-.175 4.646-.612 6.382-1.33Z" fill="url(#C)"/><path fill-rule="evenodd" clip-rule="evenodd" d="M22.398 28.813c-5.539-1.635-5.618-3.053-5.882-7.765l-.016-.28c-.164-2.912-3.766-4.61-5.688-4.72-1.838-.104-8.137-.008-8.68 0 .338 7.4 6.033 14.64 13.884 14.095 2.533-.175 4.646-.612 6.382-1.33Z" fill="url(#D)"/><path fill-rule="evenodd" clip-rule="evenodd" d="M22.398 28.813c-5.539-1.635-5.618-3.053-5.882-7.765l-.016-.28c-.164-2.912-3.766-4.61-5.688-4.72-1.838-.104-8.137-.008-8.68 0 .338 7.4 6.033 14.64 13.884 14.095 2.533-.175 4.646-.612 6.382-1.33Z" fill="url(#E)"/><path fill-rule="evenodd" clip-rule="evenodd" d="M22.398 28.813c-5.539-1.635-5.618-3.053-5.882-7.765l-.016-.28c-.164-2.912-3.766-4.61-5.688-4.72-1.838-.104-8.137-.008-8.68 0 .338 7.4 6.033 14.64 13.884 14.095 2.533-.175 4.646-.612 6.382-1.33Z" fill="url(#F)"/><path fill-rule="evenodd" clip-rule="evenodd" d="M22.398 28.813c-5.539-1.635-5.618-3.053-5.882-7.765l-.016-.28c-.164-2.912-3.766-4.61-5.688-4.72-1.838-.104-8.137-.008-8.68 0 .338 7.4 6.033 14.64 13.884 14.095 2.533-.175 4.646-.612 6.382-1.33Z" fill="url(#G)"/><g filter="url(#H)"><rect x="14.646" y="13.217" width=".996" height="1.973" rx=".498" fill="#2DA6FF"/></g><rect x="15.019" y="13.076" width=".996" height="1.973" rx=".498" fill="url(#I)"/><rect x="15.019" y="13.076" width=".996" height="1.973" rx=".498" fill="url(#J)"/><rect x="15.019" y="13.076" width=".996" height="1.973" rx=".498" fill="url(#K)"/><g filter="url(#L)"><path d="M11.484 3.94c.334-.454 1.194-1.106 2.235-.782 1.203.375 1.338 1.422 1.39 1.844" stroke="url(#M)" stroke-width=".75" stroke-linecap="round"/></g><g filter="url(#N)"><path d="M11.004 3.94c-.334-.454-1.194-1.106-2.235-.782-1.203.375-1.338 1.422-1.39 1.844" stroke="url(#O)" stroke-width=".75" stroke-linecap="round"/></g><path d="M11.016 5.392V2.877l1.39-.5.735 1.578-2.125 1.437Z" fill="url(#P)"/><g filter="url(#Q)"><path d="m11.438 6.002-.235 2.36" stroke="#82D6FF" stroke-width=".4" stroke-linecap="round"/></g><g filter="url(#R)"><path d="M23.844 7.486c2.5 2.094 5.569 6.328 3.372 14.515" stroke="url(#S)" stroke-width=".75" stroke-linecap="round"/></g><path d="M27.438 27.642s-6.36-4.953-7.594-5.25c-1.235-.296-2.532.36-2.125 2.157.193.854 1.718 2.625 2.562 3.28.675.526 1.407.923 2.532 1.126 1.125.203 2.265.11 4.093.11 1.375 0 1.063-.933.532-1.423Z" fill="url(#T)"/><path d="M27.438 27.642s-6.36-4.953-7.594-5.25c-1.235-.296-2.532.36-2.125 2.157.193.854 1.718 2.625 2.562 3.28.675.526 1.407.923 2.532 1.126 1.125.203 2.265.11 4.093.11 1.375 0 1.063-.933.532-1.423Z" fill="url(#U)"/><path d="M27.438 27.642s-6.36-4.953-7.594-5.25c-1.235-.296-2.532.36-2.125 2.157.193.854 1.718 2.625 2.562 3.28.675.526 1.407.923 2.532 1.126 1.125.203 2.265.11 4.093.11 1.375 0 1.063-.933.532-1.423Z" fill="url(#V)"/><g filter="url(#W)"><path d="m27.522 27.55-.008-.006-.076.098.076-.098v-.001l-.004-.003-.014-.01-.054-.042a173.23 173.23 0 0 0-.942-.724c-.616-.469-1.45-1.098-2.323-1.736a66.306 66.306 0 0 0-2.557-1.794 18.03 18.03 0 0 0-1.034-.64c-.292-.164-.54-.282-.713-.323-.643-.155-1.32-.066-1.786.318-.474.39-.7 1.056-.49 1.987.053.234.193.52.379.82.187.301.425.627.683.946.514.636 1.113 1.25 1.546 1.587.688.535 1.438.942 2.585 1.149.846.153 1.705.14 2.833.123.392-.006.816-.012 1.283-.012.355 0 .62-.06.803-.171a.6.6 0 0 0 .302-.47.98.98 0 0 0-.128-.535 1.764 1.764 0 0 0-.36-.463Z" stroke="url(#X)" stroke-width=".25"/></g><g filter="url(#Y)"><path d="m21.215 6.67 1.191.488c-1.812 2.734-3.89 2.084-4.655 1.844h-.001L19.183 7.2a1.75 1.75 0 0 1 2.032-.53Z" fill="url(#Z)"/></g><g filter="url(#aa)"><path d="M23.875 2.392c.406.636.913 2.275-.313 3.75" stroke="url(#ab)" stroke-width=".25" stroke-linecap="round"/></g><defs><radialGradient id="b" cx="0" cy="0" r="1" gradientUnits="userSpaceOnUse" gradientTransform="matrix(-1.53123 -3.1875 4.18224 -2.0091 7.25 30.799)"><stop stop-color="#BB9FFF"/><stop offset="1" stop-color="#BB9FFF" stop-opacity="0"/></radialGradient><radialGradient id="c" cx="0" cy="0" r="1" gradientUnits="userSpaceOnUse" gradientTransform="matrix(-2.31253 -6.81249 6.43613 -2.18477 17.25 24.549)"><stop stop-color="#489AF9"/><stop offset="1" stop-color="#489AF9" stop-opacity="0"/></radialGradient><radialGradient id="d" cx="0" cy="0" r="1" gradientUnits="userSpaceOnUse" gradientTransform="rotate(93.198 9.234 14.461) scale(10.0822 7.1191)"><stop stop-color="#40A9FF"/><stop offset="1" stop-color="#40A9FF" stop-opacity="0"/></radialGradient><radialGradient id="e" cx="0" cy="0" r="1" gradientUnits="userSpaceOnUse" gradientTransform="matrix(3.3125 2.8125 -4.61089 5.4306 3.25 11.986)"><stop stop-color="#8BC7EA"/><stop offset="1" stop-color="#8BC7EA" stop-opacity="0"/></radialGradient><radialGradient id="f" cx="0" cy="0" r="1" gradientUnits="userSpaceOnUse" gradientTransform="rotate(-45 23.868 3.788) scale(6.27557 4.38106)"><stop stop-color="#3C95EF"/><stop offset="1" stop-color="#3C95EF" stop-opacity="0"/></radialGradient><radialGradient id="g" cx="0" cy="0" r="1" gradientUnits="userSpaceOnUse" gradientTransform="rotate(91.909 3.59 19.488) scale(3.75208 3.49806)"><stop stop-color="#2A95F1"/><stop offset="1" stop-color="#2A95F1" stop-opacity="0"/></radialGradient><radialGradient id="h" cx="0" cy="0" r="1" gradientUnits="userSpaceOnUse" gradientTransform="matrix(2.125 6.4375 -2.39117 .78932 22.625 11.986)"><stop stop-color="#2A95F1"/><stop offset="1" stop-color="#2A95F1" stop-opacity="0"/></radialGradient><radialGradient id="i" cx="0" cy="0" r="1" gradientUnits="userSpaceOnUse" gradientTransform="matrix(-2.78124 -3.09376 3.52565 -3.1695 19.938 28.33)"><stop stop-color="#4766FF"/><stop offset="1" stop-color="#4766FF" stop-opacity="0"/></radialGradient><radialGradient id="j" cx="0" cy="0" r="1" gradientUnits="userSpaceOnUse" gradientTransform="matrix(5.0625 -3.1875 2.43582 3.86866 23.313 23.486)"><stop stop-color="#5DBFFF"/><stop offset="1" stop-color="#5DBFFF" stop-opacity="0"/></radialGradient><radialGradient id="k" cx="0" cy="0" r="1" gradientUnits="userSpaceOnUse" gradientTransform="rotate(-171.621 12.693 2.464) scale(2.03737 1.5227)"><stop stop-color="#6CCAFF"/><stop offset="1" stop-color="#6CCAFF" stop-opacity="0"/></radialGradient><radialGradient id="l" cx="0" cy="0" r="1" gradientUnits="userSpaceOnUse" gradientTransform="matrix(-7.27644 4.87502 -5.28831 -7.89333 15.558 14.268)"><stop stop-color="#4CCCFF"/><stop offset="1" stop-color="#4CCCFF" stop-opacity="0"/></radialGradient><radialGradient id="m" cx="0" cy="0" r="1" gradientUnits="userSpaceOnUse" gradientTransform="matrix(5.8125 -5.75 1.7741 1.79338 25.813 27.236)"><stop stop-color="#4E97FF"/><stop offset="1" stop-color="#4E97FF" stop-opacity="0"/></radialGradient><radialGradient id="p" cx="0" cy="0" r="1" gradientUnits="userSpaceOnUse" gradientTransform="matrix(-.41816 .95313 -1.00116 -.43923 4.422 7.845)"><stop stop-color="#7FDAFE"/><stop offset="1" stop-color="#5FC4F4"/></radialGradient><radialGradient id="q" cx="0" cy="0" r="1" gradientUnits="userSpaceOnUse" gradientTransform="rotate(143.242 1.08 4.532) scale(2.06265 1.48739)"><stop offset=".783" stop-color="#9FE1FE" stop-opacity="0"/><stop offset="1" stop-color="#9FE1FE"/></radialGradient><radialGradient id="r" cx="0" cy="0" r="1" gradientUnits="userSpaceOnUse" gradientTransform="rotate(107.735 8.445 8.119) scale(2.14797)"><stop offset=".011" stop-color="#CAF1FF"/><stop offset="1" stop-color="#64D1F2"/></radialGradient><radialGradient id="s" cx="0" cy="0" r="1" gradientUnits="userSpaceOnUse" gradientTransform="rotate(81.335 7.032 12.087) scale(1.15379 1.40042)"><stop stop-color="#B2DBFF"/><stop offset="1" stop-color="#B2DBFF" stop-opacity="0"/></radialGradient><radialGradient id="t" cx="0" cy="0" r="1" gradientUnits="userSpaceOnUse" gradientTransform="matrix(0 2.14844 -1.75764 0 18.096 2.096)"><stop offset=".878" stop-color="#9AC5FF" stop-opacity="0"/><stop offset="1" stop-color="#9AC5FF"/></radialGradient><radialGradient id="v" cx="0" cy="0" r="1" gradientUnits="userSpaceOnUse" gradientTransform="matrix(-1 1.59376 -3.02955 -1.90087 15.281 2.049)"><stop stop-color="#C1EDFD"/><stop offset="1" stop-color="#C1EDFD" stop-opacity="0"/></radialGradient><radialGradient id="w" cx="0" cy="0" r="1" gradientUnits="userSpaceOnUse" gradientTransform="matrix(-1.3125 -2.78125 3.52699 -1.66441 15.531 7.611)"><stop stop-color="#3FBEF0"/><stop offset="1" stop-color="#3FBEF0" stop-opacity="0"/></radialGradient><radialGradient id="x" cx="0" cy="0" r="1" gradientUnits="userSpaceOnUse" gradientTransform="matrix(.96875 -3.84375 2.5578 .64465 6.719 8.236)"><stop stop-color="#3FBEF0"/><stop offset="1" stop-color="#3FBEF0" stop-opacity="0"/></radialGradient><radialGradient id="y" cx="0" cy="0" r="1" gradientUnits="userSpaceOnUse" gradientTransform="matrix(-.51562 -3.82812 1.03457 -.13935 10.047 7.908)"><stop stop-color="#3FBEF0"/><stop offset="1" stop-color="#3FBEF0" stop-opacity="0"/></radialGradient><radialGradient id="z" cx="0" cy="0" r="1" gradientUnits="userSpaceOnUse" gradientTransform="matrix(.17187 -3.76563 .7715 .03521 12.11 8.252)"><stop stop-color="#3FBEF0"/><stop offset="1" stop-color="#3FBEF0" stop-opacity="0"/></radialGradient><radialGradient id="A" cx="0" cy="0" r="1" gradientUnits="userSpaceOnUse" gradientTransform="matrix(2.3125 .89062 -2.12313 5.5127 4.734 3.658)"><stop stop-color="#C7EBF7"/><stop offset="1" stop-color="#C7EBF7" stop-opacity="0"/></radialGradient><radialGradient id="B" cx="0" cy="0" r="1" gradientUnits="userSpaceOnUse" gradientTransform="matrix(0 1.375 -2.04279 0 11.004 2.681)"><stop stop-color="#7FCFEA"/><stop offset="1" stop-color="#B1DDEC" stop-opacity="0"/></radialGradient><radialGradient id="C" cx="0" cy="0" r="1" gradientUnits="userSpaceOnUse" gradientTransform="rotate(98.032 -.808 15.573) scale(20.5768 29.4257)"><stop offset=".2" stop-color="#ACDBFF"/><stop offset=".753" stop-color="#CB98FF"/></radialGradient><radialGradient id="D" cx="0" cy="0" r="1" gradientUnits="userSpaceOnUse" gradientTransform="matrix(0 17.1875 -24.3041 0 17.375 14.361)"><stop offset=".742" stop-color="#CA99FF" stop-opacity="0"/><stop offset="1" stop-color="#CA99FF"/></radialGradient><radialGradient id="E" cx="0" cy="0" r="1" gradientUnits="userSpaceOnUse" gradientTransform="rotate(162.597 8.53 9.678) scale(17.5535 25.1022)"><stop offset=".622" stop-color="#84B1FF" stop-opacity="0"/><stop offset="1" stop-color="#84B1FF"/></radialGradient><radialGradient id="F" cx="0" cy="0" r="1" gradientUnits="userSpaceOnUse" gradientTransform="matrix(-16.3437 5.46884 -6.24615 -18.6667 19.563 16.361)"><stop offset=".915" stop-color="#B6E3FF" stop-opacity="0"/><stop offset="1" stop-color="#B6E3FF"/></radialGradient><radialGradient id="G" cx="0" cy="0" r="1" gradientUnits="userSpaceOnUse" gradientTransform="matrix(4.96875 .78125 -.07645 .48622 9.531 29.049)"><stop stop-color="#D3A1FF"/><stop offset="1" stop-color="#D3A1FF" stop-opacity="0"/></radialGradient><radialGradient id="K" cx="0" cy="0" r="1" gradientUnits="userSpaceOnUse" gradientTransform="rotate(-104.924 13.274 1.106) scale(1.15519 1.25088)"><stop offset=".814" stop-color="#594C4F" stop-opacity="0"/><stop offset="1" stop-color="#594C4F"/></radialGradient><radialGradient id="P" cx="0" cy="0" r="1" gradientUnits="userSpaceOnUse" gradientTransform="matrix(.21094 -.00781 .0668 1.80351 11.016 3.619)"><stop stop-color="#A1D2F0"/><stop offset="1" stop-color="#A1D2F0" stop-opacity="0"/></radialGradient><radialGradient id="V" cx="0" cy="0" r="1" gradientUnits="userSpaceOnUse" gradientTransform="matrix(-1.78124 4.28126 -7.09019 -2.9499 23.094 24.455)"><stop offset=".693" stop-color="#547BFF" stop-opacity="0"/><stop offset="1" stop-color="#547BFF"/></radialGradient><linearGradient id="a" x1="5.75" y1="25.986" x2="6.844" y2="27.361" gradientUnits="userSpaceOnUse"><stop stop-color="#7BB2FF"/><stop offset="1" stop-color="#7BB2FF" stop-opacity="0"/></linearGradient><linearGradient id="o" x1="17.438" y1="13.049" x2="22.313" y2="21.267" gradientUnits="userSpaceOnUse"><stop stop-color="#68DDFF"/><stop offset="1" stop-color="#68DDFF" stop-opacity="0"/></linearGradient><linearGradient id="u" x1="11.004" y1="2.549" x2="11.004" y2="8.674" gradientUnits="userSpaceOnUse"><stop stop-color="#B6E1ED"/><stop offset="1" stop-color="#4CCAEE"/></linearGradient><linearGradient id="I" x1="16.015" y1="13.939" x2="15.438" y2="13.939" gradientUnits="userSpaceOnUse"><stop offset=".225" stop-color="#594C4F"/><stop offset="1" stop-color="#392833"/></linearGradient><linearGradient id="J" x1="16.171" y1="14.956" x2="16.171" y2="14.017" gradientUnits="userSpaceOnUse"><stop stop-color="#492847"/><stop offset="1" stop-color="#552D52" stop-opacity="0"/></linearGradient><linearGradient id="M" x1="14.438" y1="3.596" x2="12.469" y2="4.036" gradientUnits="userSpaceOnUse"><stop stop-color="#C8F2FF"/><stop offset="1" stop-color="#B7D4FF"/></linearGradient><linearGradient id="O" x1="8.051" y1="3.596" x2="10.019" y2="4.036" gradientUnits="userSpaceOnUse"><stop stop-color="#C8F2FF"/><stop offset="1" stop-color="#B7D4FF"/></linearGradient><linearGradient id="S" x1="25.526" y1="7.054" x2="28.469" y2="25.642" gradientUnits="userSpaceOnUse"><stop stop-color="#6AD3FF"/><stop offset="1" stop-color="#6AD3FF" stop-opacity="0"/></linearGradient><linearGradient id="T" x1="26.125" y1="29.799" x2="19.188" y2="21.267" gradientUnits="userSpaceOnUse"><stop stop-color="#4884FF"/><stop offset="1" stop-color="#47A9F3"/></linearGradient><linearGradient id="U" x1="23.25" y1="24.299" x2="22.563" y2="25.267" gradientUnits="userSpaceOnUse"><stop stop-color="#58B4FF"/><stop offset="1" stop-color="#58B4FF" stop-opacity="0"/></linearGradient><linearGradient id="X" x1="20.406" y1="21.83" x2="20.406" y2="22.986" gradientUnits="userSpaceOnUse"><stop stop-color="#65C5FF"/><stop offset="1" stop-color="#65C5FF" stop-opacity="0"/></linearGradient><linearGradient id="Z" x1="18.891" y1="7.799" x2="21.047" y2="8.892" gradientUnits="userSpaceOnUse"><stop stop-color="#5BBCFF"/><stop offset="1" stop-color="#5BBCFF" stop-opacity="0"/></linearGradient><linearGradient id="ab" x1="23.948" y1="2.392" x2="23.948" y2="6.142" gradientUnits="userSpaceOnUse"><stop stop-color="#6CCFFF"/><stop offset="1" stop-color="#6CCFFF" stop-opacity="0"/></linearGradient><filter id="n" x="13.996" y="10.924" width="11.629" height="11.843" filterUnits="userSpaceOnUse" color-interpolation-filters="sRGB"><feFlood flood-opacity="0" result="BackgroundImageFix"/><feBlend in="SourceGraphic" in2="BackgroundImageFix" result="shape"/><feGaussianBlur stdDeviation=".75" result="effect1_foregroundBlur_28327_5795"/></filter><filter id="H" x="14.146" y="12.717" width="1.996" height="2.973" filterUnits="userSpaceOnUse" color-interpolation-filters="sRGB"><feFlood flood-opacity="0" result="BackgroundImageFix"/><feBlend in="SourceGraphic" in2="BackgroundImageFix" result="shape"/><feGaussianBlur stdDeviation=".25" result="effect1_foregroundBlur_28327_5795"/></filter><filter id="L" x="9.859" y="1.445" width="6.875" height="5.182" filterUnits="userSpaceOnUse" color-interpolation-filters="sRGB"><feFlood flood-opacity="0" result="BackgroundImageFix"/><feBlend in="SourceGraphic" in2="BackgroundImageFix" result="shape"/><feGaussianBlur stdDeviation=".625" result="effect1_foregroundBlur_28327_5795"/></filter><filter id="N" x="5.754" y="1.445" width="6.875" height="5.182" filterUnits="userSpaceOnUse" color-interpolation-filters="sRGB"><feFlood flood-opacity="0" result="BackgroundImageFix"/><feBlend in="SourceGraphic" in2="BackgroundImageFix" result="shape"/><feGaussianBlur stdDeviation=".625" result="effect1_foregroundBlur_28327_5795"/></filter><filter id="Q" x="10.503" y="5.302" width="1.634" height="3.759" filterUnits="userSpaceOnUse" color-interpolation-filters="sRGB"><feFlood flood-opacity="0" result="BackgroundImageFix"/><feBlend in="SourceGraphic" in2="BackgroundImageFix" result="shape"/><feGaussianBlur stdDeviation=".25" result="effect1_foregroundBlur_28327_5795"/></filter><filter id="R" x="22.469" y="6.111" width="6.874" height="17.265" filterUnits="userSpaceOnUse" color-interpolation-filters="sRGB"><feFlood flood-opacity="0" result="BackgroundImageFix"/><feBlend in="SourceGraphic" in2="BackgroundImageFix" result="shape"/><feGaussianBlur stdDeviation=".5" result="effect1_foregroundBlur_28327_5795"/></filter><filter id="W" x="17.143" y="21.824" width="11.246" height="7.762" filterUnits="userSpaceOnUse" color-interpolation-filters="sRGB"><feFlood flood-opacity="0" result="BackgroundImageFix"/><feBlend in="SourceGraphic" in2="BackgroundImageFix" result="shape"/><feGaussianBlur stdDeviation=".125" result="effect1_foregroundBlur_28327_5795"/></filter><filter id="Y" x="17.25" y="6.04" width="5.656" height="3.704" filterUnits="userSpaceOnUse" color-interpolation-filters="sRGB"><feFlood flood-opacity="0" result="BackgroundImageFix"/><feBlend in="SourceGraphic" in2="BackgroundImageFix" result="shape"/><feGaussianBlur stdDeviation=".25" result="effect1_foregroundBlur_28327_5795"/></filter><filter id="aa" x="22.938" y="1.767" width="2.02" height="5" filterUnits="userSpaceOnUse" color-interpolation-filters="sRGB"><feFlood flood-opacity="0" result="BackgroundImageFix"/><feBlend in="SourceGraphic" in2="BackgroundImageFix" result="shape"/><feGaussianBlur stdDeviation=".25" result="effect1_foregroundBlur_28327_5795"/></filter></defs></svg>