<svg width="32" height="32" fill="none" xmlns="http://www.w3.org/2000/svg"><g filter="url(#a)"><path d="M6.363 2.88H4.716a2.375 2.375 0 0 0-2.375 2.376v5.806l2.25 1.563v-7.37c0-.068.056-.124.125-.124h1.647V2.88Z" fill="url(#b)"/><path d="M6.363 2.88H4.716a2.375 2.375 0 0 0-2.375 2.376v5.806l2.25 1.563v-7.37c0-.068.056-.124.125-.124h1.647V2.88Z" fill="url(#c)"/></g><g filter="url(#d)"><path d="M12.707 5.08c0 .028.022.05.05.05h1.99c.07 0 .126.057.126.126v6.338h2.25V5.256a2.375 2.375 0 0 0-2.375-2.375h-1.99a.05.05 0 0 0-.05.05v2.15Z" fill="url(#e)"/></g><g filter="url(#f)"><path d="M2.341 10.672v.69a7.393 7.393 0 0 0 6.088 7.275.297.297 0 0 1 .173.281h.77v-.175a7.452 7.452 0 0 0 .71 0v.175h.77c0-.158.094-.243.166-.277a7.393 7.393 0 0 0 6.105-7.28v-.69h-2.25v.69a5.14 5.14 0 1 1-10.282 0v-.69h-2.25Z" fill="url(#g)"/></g><g filter="url(#h)"><path d="M20.778 20.02a2.766 2.766 0 0 1 5.53 0h2.25a5.016 5.016 0 0 0-10.03 0v3.456a3.838 3.838 0 1 1-7.677 0v-4.884a.5.5 0 0 0-.169-.374l-.625-.553a.5.5 0 0 0-.662 0l-.625.553a.5.5 0 0 0-.169.374v4.884a6.088 6.088 0 1 0 12.177 0v-3.457Z" fill="#5E209E"/></g><g filter="url(#i)" stroke-width=".75"><path d="M10.113 18.344v5.01a4.864 4.864 0 0 0 4.864 4.865h1.381a3.483 3.483 0 0 0 3.484-3.484v-5.177a3.183 3.183 0 0 1 3.182-3.183h3.183" stroke="url(#j)"/><path d="M10.113 18.344v5.01a4.864 4.864 0 0 0 4.864 4.865h1.381a3.483 3.483 0 0 0 3.484-3.484v-5.177a3.183 3.183 0 0 1 3.182-3.183h3.183" stroke="url(#k)"/></g><g filter="url(#l)"><path d="M25.113 16c.917.313 2.75 1.469 2.75 3.594" stroke="url(#m)" stroke-width=".75"/></g><g filter="url(#n)"><circle cx="27.28" cy="21.845" r="3.231" fill="url(#o)"/><circle cx="27.28" cy="21.845" r="3.231" fill="url(#p)"/></g><g filter="url(#q)"><circle cx="27.28" cy="21.845" r="1.405" fill="url(#r)"/></g><g filter="url(#s)" stroke-width=".65"><path d="M3.692 10.969v.312a6.31 6.31 0 0 0 12.62 0v-.312" stroke="url(#t)"/><path d="M3.692 10.969v.312a6.31 6.31 0 0 0 12.62 0v-.312" stroke="url(#u)"/></g><path d="M5.56 5.13V2.88h1.018a1.125 1.125 0 0 1 0 2.25H5.561Z" fill="#53208D"/><path d="M5.56 5.13V2.88h1.018a1.125 1.125 0 0 1 0 2.25H5.561Z" fill="url(#v)"/><path d="M5.56 5.13V2.88h1.018a1.125 1.125 0 0 1 0 2.25H5.561Z" fill="url(#w)"/><g filter="url(#x)"><path d="M14.8 3.578c.543.016 1.626.372 1.626 1.672v4.625" stroke="url(#y)" stroke-width=".75"/></g><path d="M13.884 2.88v2.25h-1.018a1.125 1.125 0 0 1 0-2.25h1.018Z" fill="#541B8D"/><path d="M13.884 2.88v2.25h-1.018a1.125 1.125 0 0 1 0-2.25h1.018Z" fill="url(#z)"/><path d="M13.884 2.88v2.25h-1.018a1.125 1.125 0 0 1 0-2.25h1.018Z" fill="url(#A)"/><g filter="url(#B)"><path d="M4.207 4.125a1.29 1.29 0 0 0-.562 1.063v5.03" stroke="url(#C)" stroke-width=".75"/></g><defs><filter id="a" x="2.341" y="2.381" width="4.522" height="10.244" filterUnits="userSpaceOnUse" color-interpolation-filters="sRGB"><feFlood flood-opacity="0" result="BackgroundImageFix"/><feBlend in="SourceGraphic" in2="BackgroundImageFix" result="shape"/><feColorMatrix in="SourceAlpha" values="0 0 0 0 0 0 0 0 0 0 0 0 0 0 0 0 0 0 127 0" result="hardAlpha"/><feOffset dx=".5" dy="-.5"/><feGaussianBlur stdDeviation=".5"/><feComposite in2="hardAlpha" operator="arithmetic" k2="-1" k3="1"/><feColorMatrix values="0 0 0 0 0.227451 0 0 0 0 0.490196 0 0 0 0 0.823529 0 0 0 1 0"/><feBlend in2="shape" result="effect1_innerShadow_18_25364"/></filter><filter id="d" x="12.707" y="2.381" width="5.166" height="9.213" filterUnits="userSpaceOnUse" color-interpolation-filters="sRGB"><feFlood flood-opacity="0" result="BackgroundImageFix"/><feBlend in="SourceGraphic" in2="BackgroundImageFix" result="shape"/><feColorMatrix in="SourceAlpha" values="0 0 0 0 0 0 0 0 0 0 0 0 0 0 0 0 0 0 127 0" result="hardAlpha"/><feOffset dx=".75" dy="-.5"/><feGaussianBlur stdDeviation=".375"/><feComposite in2="hardAlpha" operator="arithmetic" k2="-1" k3="1"/><feColorMatrix values="0 0 0 0 0.192157 0 0 0 0 0.494118 0 0 0 0 0.980392 0 0 0 1 0"/><feBlend in2="shape" result="effect1_innerShadow_18_25364"/></filter><filter id="f" x="2.341" y="10.672" width="15.532" height="8.246" filterUnits="userSpaceOnUse" color-interpolation-filters="sRGB"><feFlood flood-opacity="0" result="BackgroundImageFix"/><feBlend in="SourceGraphic" in2="BackgroundImageFix" result="shape"/><feColorMatrix in="SourceAlpha" values="0 0 0 0 0 0 0 0 0 0 0 0 0 0 0 0 0 0 127 0" result="hardAlpha"/><feOffset dx=".75"/><feGaussianBlur stdDeviation=".375"/><feComposite in2="hardAlpha" operator="arithmetic" k2="-1" k3="1"/><feColorMatrix values="0 0 0 0 0.266667 0 0 0 0 0.172549 0 0 0 0 0.415686 0 0 0 1 0"/><feBlend in2="shape" result="effect1_innerShadow_18_25364"/></filter><filter id="h" x="8.601" y="15.004" width="20.708" height="14.96" filterUnits="userSpaceOnUse" color-interpolation-filters="sRGB"><feFlood flood-opacity="0" result="BackgroundImageFix"/><feBlend in="SourceGraphic" in2="BackgroundImageFix" result="shape"/><feColorMatrix in="SourceAlpha" values="0 0 0 0 0 0 0 0 0 0 0 0 0 0 0 0 0 0 127 0" result="hardAlpha"/><feOffset dx=".75" dy=".4"/><feGaussianBlur stdDeviation=".375"/><feComposite in2="hardAlpha" operator="arithmetic" k2="-1" k3="1"/><feColorMatrix values="0 0 0 0 0.27451 0 0 0 0 0.168627 0 0 0 0 0.443137 0 0 0 1 0"/><feBlend in2="shape" result="effect1_innerShadow_18_25364"/></filter><filter id="i" x="9.238" y="15.5" width="17.469" height="13.594" filterUnits="userSpaceOnUse" color-interpolation-filters="sRGB"><feFlood flood-opacity="0" result="BackgroundImageFix"/><feBlend in="SourceGraphic" in2="BackgroundImageFix" result="shape"/><feGaussianBlur stdDeviation=".25" result="effect1_foregroundBlur_18_25364"/></filter><filter id="l" x="24.492" y="15.145" width="4.246" height="4.949" filterUnits="userSpaceOnUse" color-interpolation-filters="sRGB"><feFlood flood-opacity="0" result="BackgroundImageFix"/><feBlend in="SourceGraphic" in2="BackgroundImageFix" result="shape"/><feGaussianBlur stdDeviation=".25" result="effect1_foregroundBlur_18_25364"/></filter><filter id="n" x="23.95" y="18.515" width="6.662" height="6.662" filterUnits="userSpaceOnUse" color-interpolation-filters="sRGB"><feFlood flood-opacity="0" result="BackgroundImageFix"/><feBlend in="SourceGraphic" in2="BackgroundImageFix" result="shape"/><feColorMatrix in="SourceAlpha" values="0 0 0 0 0 0 0 0 0 0 0 0 0 0 0 0 0 0 127 0" result="hardAlpha"/><feOffset dx="-.1" dy=".1"/><feGaussianBlur stdDeviation=".05"/><feComposite in2="hardAlpha" operator="arithmetic" k2="-1" k3="1"/><feColorMatrix values="0 0 0 0 0.32549 0 0 0 0 0.74902 0 0 0 0 1 0 0 0 1 0"/><feBlend in2="shape" result="effect1_innerShadow_18_25364"/><feColorMatrix in="SourceAlpha" values="0 0 0 0 0 0 0 0 0 0 0 0 0 0 0 0 0 0 127 0" result="hardAlpha"/><feOffset dx=".1"/><feGaussianBlur stdDeviation=".05"/><feComposite in2="hardAlpha" operator="arithmetic" k2="-1" k3="1"/><feColorMatrix values="0 0 0 0 0.25098 0 0 0 0 0.384314 0 0 0 0 1 0 0 0 1 0"/><feBlend in2="effect1_innerShadow_18_25364" result="effect2_innerShadow_18_25364"/><feColorMatrix in="SourceAlpha" values="0 0 0 0 0 0 0 0 0 0 0 0 0 0 0 0 0 0 127 0" result="hardAlpha"/><feOffset dy="-.1"/><feGaussianBlur stdDeviation=".05"/><feComposite in2="hardAlpha" operator="arithmetic" k2="-1" k3="1"/><feColorMatrix values="0 0 0 0 0.301961 0 0 0 0 0.427451 0 0 0 0 0.807843 0 0 0 1 0"/><feBlend in2="effect2_innerShadow_18_25364" result="effect3_innerShadow_18_25364"/></filter><filter id="q" x="25.626" y="20.291" width="3.21" height="3.209" filterUnits="userSpaceOnUse" color-interpolation-filters="sRGB"><feFlood flood-opacity="0" result="BackgroundImageFix"/><feColorMatrix in="SourceAlpha" values="0 0 0 0 0 0 0 0 0 0 0 0 0 0 0 0 0 0 127 0" result="hardAlpha"/><feOffset dx="-.05" dy=".05"/><feGaussianBlur stdDeviation=".1"/><feComposite in2="hardAlpha" operator="out"/><feColorMatrix values="0 0 0 0 0.180392 0 0 0 0 0.392157 0 0 0 0 1 0 0 0 1 0"/><feBlend in2="BackgroundImageFix" result="effect1_dropShadow_18_25364"/><feBlend in="SourceGraphic" in2="effect1_dropShadow_18_25364" result="shape"/><feColorMatrix in="SourceAlpha" values="0 0 0 0 0 0 0 0 0 0 0 0 0 0 0 0 0 0 127 0" result="hardAlpha"/><feOffset dx="-.05" dy=".05"/><feGaussianBlur stdDeviation=".05"/><feComposite in2="hardAlpha" operator="arithmetic" k2="-1" k3="1"/><feColorMatrix values="0 0 0 0 0.329412 0 0 0 0 0.592157 0 0 0 0 0.960784 0 0 0 1 0"/><feBlend in2="shape" result="effect2_innerShadow_18_25364"/><feColorMatrix in="SourceAlpha" values="0 0 0 0 0 0 0 0 0 0 0 0 0 0 0 0 0 0 127 0" result="hardAlpha"/><feOffset dx=".05" dy="-.05"/><feGaussianBlur stdDeviation=".05"/><feComposite in2="hardAlpha" operator="arithmetic" k2="-1" k3="1"/><feColorMatrix values="0 0 0 0 0.117647 0 0 0 0 0.290196 0 0 0 0 0.941176 0 0 0 1 0"/><feBlend in2="effect2_innerShadow_18_25364" result="effect3_innerShadow_18_25364"/><feColorMatrix in="SourceAlpha" values="0 0 0 0 0 0 0 0 0 0 0 0 0 0 0 0 0 0 127 0" result="hardAlpha"/><feOffset dx=".05"/><feGaussianBlur stdDeviation=".05"/><feComposite in2="hardAlpha" operator="arithmetic" k2="-1" k3="1"/><feColorMatrix values="0 0 0 0 0.117647 0 0 0 0 0.290196 0 0 0 0 0.941176 0 0 0 1 0"/><feBlend in2="effect3_innerShadow_18_25364" result="effect4_innerShadow_18_25364"/></filter><filter id="s" x="2.867" y="10.469" width="14.271" height="7.947" filterUnits="userSpaceOnUse" color-interpolation-filters="sRGB"><feFlood flood-opacity="0" result="BackgroundImageFix"/><feBlend in="SourceGraphic" in2="BackgroundImageFix" result="shape"/><feGaussianBlur stdDeviation=".25" result="effect1_foregroundBlur_18_25364"/></filter><filter id="x" x="14.29" y="2.703" width="3.011" height="7.672" filterUnits="userSpaceOnUse" color-interpolation-filters="sRGB"><feFlood flood-opacity="0" result="BackgroundImageFix"/><feBlend in="SourceGraphic" in2="BackgroundImageFix" result="shape"/><feGaussianBlur stdDeviation=".25" result="effect1_foregroundBlur_18_25364"/></filter><filter id="B" x="2.77" y="3.305" width="2.133" height="7.414" filterUnits="userSpaceOnUse" color-interpolation-filters="sRGB"><feFlood flood-opacity="0" result="BackgroundImageFix"/><feBlend in="SourceGraphic" in2="BackgroundImageFix" result="shape"/><feGaussianBlur stdDeviation=".25" result="effect1_foregroundBlur_18_25364"/></filter><radialGradient id="c" cx="0" cy="0" r="1" gradientUnits="userSpaceOnUse" gradientTransform="matrix(-1.28125 -.9375 .55356 -.75654 5.55 5.281)"><stop stop-color="#4984FF"/><stop offset="1" stop-color="#4984FF" stop-opacity="0"/></radialGradient><radialGradient id="j" cx="0" cy="0" r="1" gradientUnits="userSpaceOnUse" gradientTransform="matrix(7.01117 8.46879 -8.21244 6.79894 8.488 19.406)"><stop offset=".729" stop-color="#6F52A9"/><stop offset="1" stop-color="#6F52A9" stop-opacity="0"/></radialGradient><radialGradient id="k" cx="0" cy="0" r="1" gradientUnits="userSpaceOnUse" gradientTransform="matrix(-2.83638 6.18748 -6.05481 -2.77556 20.28 19.625)"><stop offset=".196" stop-color="#6F52A9"/><stop offset="1" stop-color="#6F52A9" stop-opacity="0"/></radialGradient><radialGradient id="p" cx="0" cy="0" r="1" gradientUnits="userSpaceOnUse" gradientTransform="rotate(135 9.603 16.554) scale(3.88909)"><stop offset=".813" stop-color="#3386FF" stop-opacity="0"/><stop offset=".996" stop-color="#3386FF"/></radialGradient><radialGradient id="t" cx="0" cy="0" r="1" gradientUnits="userSpaceOnUse" gradientTransform="matrix(7.84305 8.25725 -4.919 4.67226 3.692 10.41)"><stop offset=".499" stop-color="#7567B7"/><stop offset="1" stop-color="#7567B7" stop-opacity="0"/></radialGradient><radialGradient id="u" cx="0" cy="0" r="1" gradientUnits="userSpaceOnUse" gradientTransform="rotate(113.604 4.859 10.77) scale(7.77555 4.86216)"><stop stop-color="#6D4D9B"/><stop offset="1" stop-color="#6D4D9B" stop-opacity="0"/></radialGradient><radialGradient id="w" cx="0" cy="0" r="1" gradientUnits="userSpaceOnUse" gradientTransform="matrix(-1.09375 .28125 -.19937 -.7753 7.254 3.813)"><stop stop-color="#705D91"/><stop offset="1" stop-color="#705D91" stop-opacity="0"/></radialGradient><radialGradient id="y" cx="0" cy="0" r="1" gradientUnits="userSpaceOnUse" gradientTransform="matrix(-.03125 5.03125 -3.14267 -.01952 16.613 3.844)"><stop stop-color="#65E8FF"/><stop offset="1" stop-color="#65E8FF" stop-opacity="0"/></radialGradient><radialGradient id="z" cx="0" cy="0" r="1" gradientUnits="userSpaceOnUse" gradientTransform="rotate(-134.071 7.89 -.317) scale(2.18373 2.67308)"><stop offset=".335" stop-color="#3C2B5C" stop-opacity="0"/><stop offset=".968" stop-color="#3C2B5C"/></radialGradient><radialGradient id="A" cx="0" cy="0" r="1" gradientUnits="userSpaceOnUse" gradientTransform="rotate(179.45 6.933 1.883) scale(1.43794 .81916)"><stop stop-color="#4F3276"/><stop offset="1" stop-color="#4F3276" stop-opacity="0"/></radialGradient><linearGradient id="b" x1="4.38" y1="5.67" x2="4.38" y2="9.848" gradientUnits="userSpaceOnUse"><stop stop-color="#42C5FF"/><stop offset="1" stop-color="#58B3FF"/></linearGradient><linearGradient id="e" x1="15.504" y1="6" x2="15.504" y2="10.672" gradientUnits="userSpaceOnUse"><stop stop-color="#4BDCFF"/><stop offset="1" stop-color="#54A4FF"/></linearGradient><linearGradient id="g" x1="6.481" y1="15.216" x2="17.123" y2="15.105" gradientUnits="userSpaceOnUse"><stop stop-color="#5728A8"/><stop offset="1" stop-color="#592793"/></linearGradient><linearGradient id="m" x1="28.145" y1="19.156" x2="23.113" y2="15.563" gradientUnits="userSpaceOnUse"><stop offset=".307" stop-color="#7A62A0"/><stop offset="1" stop-color="#7A62A0" stop-opacity="0"/></linearGradient><linearGradient id="o" x1="30.511" y1="19.844" x2="24.863" y2="24.531" gradientUnits="userSpaceOnUse"><stop stop-color="#3595FF"/><stop offset="1" stop-color="#3690FF"/></linearGradient><linearGradient id="r" x1="28.863" y1="21.845" x2="25.876" y2="21.845" gradientUnits="userSpaceOnUse"><stop stop-color="#3677EF"/><stop offset=".9" stop-color="#3571E6"/></linearGradient><linearGradient id="v" x1="6.207" y1="2.766" x2="6.207" y2="4.453" gradientUnits="userSpaceOnUse"><stop stop-color="#483264"/><stop offset="1" stop-color="#483264" stop-opacity="0"/></linearGradient><linearGradient id="C" x1="4.207" y1=".594" x2="6.521" y2="1.247" gradientUnits="userSpaceOnUse"><stop stop-color="#65E8FF"/><stop offset="1" stop-color="#65E8FF" stop-opacity="0"/></linearGradient></defs></svg>