<svg xmlns="http://www.w3.org/2000/svg" fill="none" viewBox="0 0 32 32"><g filter="url(#sweat-droplets_svg__a)"><path fill="url(#sweat-droplets_svg__b)" d="M12.018 23.486c.45-1.437.206-2.765-.401-3.86L8.142 13.52a1.031 1.031 0 0 0-1.79 0l-3.427 6.018a4.95 4.95 0 0 0-.675 2.472c0 3.048 2.73 5.452 5.883 4.914 1.82-.302 3.337-1.68 3.885-3.439"/><path fill="url(#sweat-droplets_svg__c)" d="M12.018 23.486c.45-1.437.206-2.765-.401-3.86L8.142 13.52a1.031 1.031 0 0 0-1.79 0l-3.427 6.018a4.95 4.95 0 0 0-.675 2.472c0 3.048 2.73 5.452 5.883 4.914 1.82-.302 3.337-1.68 3.885-3.439"/></g><path fill="url(#sweat-droplets_svg__d)" d="M12.018 23.486c.45-1.437.206-2.765-.401-3.86L8.142 13.52a1.031 1.031 0 0 0-1.79 0l-3.427 6.018a4.95 4.95 0 0 0-.675 2.472c0 3.048 2.73 5.452 5.883 4.914 1.82-.302 3.337-1.68 3.885-3.439"/><path fill="url(#sweat-droplets_svg__e)" d="M12.018 23.486c.45-1.437.206-2.765-.401-3.86L8.142 13.52a1.031 1.031 0 0 0-1.79 0l-3.427 6.018a4.95 4.95 0 0 0-.675 2.472c0 3.048 2.73 5.452 5.883 4.914 1.82-.302 3.337-1.68 3.885-3.439"/><g filter="url(#sweat-droplets_svg__f)"><path fill="url(#sweat-droplets_svg__g)" d="M27.607 21.851c-.777-1.493-2.023-2.33-3.358-2.727l-7.544-2.08c-.857-.24-1.644.547-1.415 1.413l2.053 7.435c.25.906.698 1.762 1.415 2.479a5.575 5.575 0 0 0 8.51-.757c1.186-1.672 1.296-3.941.34-5.763"/><path fill="url(#sweat-droplets_svg__h)" d="M27.607 21.851c-.777-1.493-2.023-2.33-3.358-2.727l-7.544-2.08c-.857-.24-1.644.547-1.415 1.413l2.053 7.435c.25.906.698 1.762 1.415 2.479a5.575 5.575 0 0 0 8.51-.757c1.186-1.672 1.296-3.941.34-5.763"/></g><path fill="url(#sweat-droplets_svg__i)" d="M27.607 21.851c-.777-1.493-2.023-2.33-3.358-2.727l-7.544-2.08c-.857-.24-1.644.547-1.415 1.413l2.053 7.435c.25.906.698 1.762 1.415 2.479a5.575 5.575 0 0 0 8.51-.757c1.186-1.672 1.296-3.941.34-5.763"/><g filter="url(#sweat-droplets_svg__j)"><path fill="url(#sweat-droplets_svg__k)" d="M25.47 2.299c-1.953-.583-3.745-.263-5.233.525l-8.28 4.509a1.316 1.316 0 0 0 0 2.332l8.169 4.45c.992.545 2.126.885 3.35.885 4.13 0 7.4-3.547 6.672-7.648-.425-2.371-2.288-4.334-4.677-5.053"/><path fill="url(#sweat-droplets_svg__l)" d="M25.47 2.299c-1.953-.583-3.745-.263-5.233.525l-8.28 4.509a1.316 1.316 0 0 0 0 2.332l8.169 4.45c.992.545 2.126.885 3.35.885 4.13 0 7.4-3.547 6.672-7.648-.425-2.371-2.288-4.334-4.677-5.053"/></g><path fill="url(#sweat-droplets_svg__m)" d="M25.47 2.299c-1.953-.583-3.745-.263-5.233.525l-8.28 4.509a1.316 1.316 0 0 0 0 2.332l8.169 4.45c.992.545 2.126.885 3.35.885 4.13 0 7.4-3.547 6.672-7.648-.425-2.371-2.288-4.334-4.677-5.053"/><g filter="url(#sweat-droplets_svg__n)"><circle cx="26" cy="7.063" r="2.25" fill="#8AF6FF"/></g><g filter="url(#sweat-droplets_svg__o)"><circle cx="24.938" cy="23.5" r="2.25" fill="#8AF6FF"/></g><g filter="url(#sweat-droplets_svg__p)"><circle cx="9.25" cy="20.875" r="1.688" fill="#8AF6FF"/></g><defs><radialGradient id="sweat-droplets_svg__b" cx="0" cy="0" r="1" gradientTransform="rotate(129.634 -.077 11.764)scale(8.21533 10.5736)" gradientUnits="userSpaceOnUse"><stop offset=".001" stop-color="#55EBFF"/><stop offset="1" stop-color="#01A6F0"/></radialGradient><radialGradient id="sweat-droplets_svg__c" cx="0" cy="0" r="1" gradientTransform="matrix(.12499 16.12502 -12.17953 .0944 8.125 16.25)" gradientUnits="userSpaceOnUse"><stop offset=".349" stop-color="#3F80F6" stop-opacity="0"/><stop offset=".977" stop-color="#3F80F7"/></radialGradient><radialGradient id="sweat-droplets_svg__e" cx="0" cy="0" r="1" gradientTransform="rotate(90 -5.594 12.844)scale(10.8125)" gradientUnits="userSpaceOnUse"><stop offset=".62" stop-color="#A158FE" stop-opacity="0"/><stop offset="1" stop-color="#A158FE"/></radialGradient><radialGradient id="sweat-droplets_svg__g" cx="0" cy="0" r="1" gradientTransform="matrix(-6.8125 5.875 -7.61246 -8.82722 23.938 22.875)" gradientUnits="userSpaceOnUse"><stop offset=".001" stop-color="#55EBFF"/><stop offset="1" stop-color="#01A6F0"/></radialGradient><radialGradient id="sweat-droplets_svg__h" cx="0" cy="0" r="1" gradientTransform="matrix(-5.06258 15.99997 -24.78395 -7.84194 24.313 21.875)" gradientUnits="userSpaceOnUse"><stop offset=".329" stop-color="#3F80F6" stop-opacity="0"/><stop offset=".833" stop-color="#3F80F7"/><stop offset="1" stop-color="#8437E6"/></radialGradient><radialGradient id="sweat-droplets_svg__i" cx="0" cy="0" r="1" gradientTransform="rotate(101.182 2.72 20.453)scale(10.958 16.1469)" gradientUnits="userSpaceOnUse"><stop offset=".559" stop-color="#A158FE" stop-opacity="0"/><stop offset="1" stop-color="#A158FE"/></radialGradient><radialGradient id="sweat-droplets_svg__k" cx="0" cy="0" r="1" gradientTransform="matrix(-7.87495 7.00007 -9.31799 -10.48257 26.25 7.25)" gradientUnits="userSpaceOnUse"><stop offset=".001" stop-color="#55EBFF"/><stop offset="1" stop-color="#01A6F0"/></radialGradient><radialGradient id="sweat-droplets_svg__l" cx="0" cy="0" r="1" gradientTransform="matrix(-6.0626 13.49998 -23.54368 -10.57305 26.438 5.625)" gradientUnits="userSpaceOnUse"><stop offset=".509" stop-color="#3F80F6" stop-opacity="0"/><stop offset=".946" stop-color="#3F80F7"/></radialGradient><filter id="sweat-droplets_svg__a" width="10" height="14.5" x="2.25" y="12.5" color-interpolation-filters="sRGB" filterUnits="userSpaceOnUse"><feFlood flood-opacity="0" result="BackgroundImageFix"/><feBlend in="SourceGraphic" in2="BackgroundImageFix" result="shape"/><feColorMatrix in="SourceAlpha" result="hardAlpha" values="0 0 0 0 0 0 0 0 0 0 0 0 0 0 0 0 0 0 127 0"/><feOffset dy="-.5"/><feGaussianBlur stdDeviation=".5"/><feComposite in2="hardAlpha" k2="-1" k3="1" operator="arithmetic"/><feColorMatrix values="0 0 0 0 0.247059 0 0 0 0 0.501961 0 0 0 0 0.964706 0 0 0 1 0"/><feBlend in2="shape" result="effect1_innerShadow_7143_6226"/></filter><filter id="sweat-droplets_svg__f" width="13" height="13.5" x="15.25" y="16.5" color-interpolation-filters="sRGB" filterUnits="userSpaceOnUse"><feFlood flood-opacity="0" result="BackgroundImageFix"/><feBlend in="SourceGraphic" in2="BackgroundImageFix" result="shape"/><feColorMatrix in="SourceAlpha" result="hardAlpha" values="0 0 0 0 0 0 0 0 0 0 0 0 0 0 0 0 0 0 127 0"/><feOffset dy="-.5"/><feGaussianBlur stdDeviation=".5"/><feComposite in2="hardAlpha" k2="-1" k3="1" operator="arithmetic"/><feColorMatrix values="0 0 0 0 0.247059 0 0 0 0 0.501961 0 0 0 0 0.964706 0 0 0 1 0"/><feBlend in2="shape" result="effect1_innerShadow_7143_6226"/></filter><filter id="sweat-droplets_svg__j" width="19" height="13.02" x="11.25" y="1.98" color-interpolation-filters="sRGB" filterUnits="userSpaceOnUse"><feFlood flood-opacity="0" result="BackgroundImageFix"/><feBlend in="SourceGraphic" in2="BackgroundImageFix" result="shape"/><feColorMatrix in="SourceAlpha" result="hardAlpha" values="0 0 0 0 0 0 0 0 0 0 0 0 0 0 0 0 0 0 127 0"/><feOffset dy="-.02"/><feGaussianBlur stdDeviation=".5"/><feComposite in2="hardAlpha" k2="-1" k3="1" operator="arithmetic"/><feColorMatrix values="0 0 0 0 0.247059 0 0 0 0 0.501961 0 0 0 0 0.964706 0 0 0 1 0"/><feBlend in2="shape" result="effect1_innerShadow_7143_6226"/></filter><filter id="sweat-droplets_svg__n" width="10.5" height="10.5" x="20.75" y="1.813" color-interpolation-filters="sRGB" filterUnits="userSpaceOnUse"><feFlood flood-opacity="0" result="BackgroundImageFix"/><feBlend in="SourceGraphic" in2="BackgroundImageFix" result="shape"/><feGaussianBlur result="effect1_foregroundBlur_7143_6226" stdDeviation="1.5"/></filter><filter id="sweat-droplets_svg__o" width="10.5" height="10.5" x="19.688" y="18.25" color-interpolation-filters="sRGB" filterUnits="userSpaceOnUse"><feFlood flood-opacity="0" result="BackgroundImageFix"/><feBlend in="SourceGraphic" in2="BackgroundImageFix" result="shape"/><feGaussianBlur result="effect1_foregroundBlur_7143_6226" stdDeviation="1.5"/></filter><filter id="sweat-droplets_svg__p" width="9.375" height="9.375" x="4.563" y="16.188" color-interpolation-filters="sRGB" filterUnits="userSpaceOnUse"><feFlood flood-opacity="0" result="BackgroundImageFix"/><feBlend in="SourceGraphic" in2="BackgroundImageFix" result="shape"/><feGaussianBlur result="effect1_foregroundBlur_7143_6226" stdDeviation="1.5"/></filter><linearGradient id="sweat-droplets_svg__d" x1="6.625" x2="3.25" y1="17.75" y2="16.285" gradientUnits="userSpaceOnUse"><stop offset=".147" stop-color="#74B5CA" stop-opacity="0"/><stop offset=".946" stop-color="#74B5CA"/></linearGradient><linearGradient id="sweat-droplets_svg__m" x1="19.875" x2="17.813" y1="5.938" y2="2" gradientUnits="userSpaceOnUse"><stop offset=".147" stop-color="#74B5CA" stop-opacity="0"/><stop offset=".946" stop-color="#74B5CA"/></linearGradient></defs></svg>