<svg xmlns="http://www.w3.org/2000/svg" fill="none" viewBox="0 0 32 32"><path fill="url(#teapot_svg__a)" fill-rule="evenodd" d="M26.27 13A3.73 3.73 0 0 1 30 16.73c0 3.46-2.81 6.27-6.27 6.27h-4.91l4.14-7.98A3.73 3.73 0 0 1 26.27 13M28 16.73c0-.95-.78-1.73-1.73-1.73-.65 0-1.24.36-1.54.93L22.11 21h1.62A4.28 4.28 0 0 0 28 16.73" clip-rule="evenodd"/><path fill="url(#teapot_svg__b)" fill-rule="evenodd" d="M26.27 13A3.73 3.73 0 0 1 30 16.73c0 3.46-2.81 6.27-6.27 6.27h-4.91l4.14-7.98A3.73 3.73 0 0 1 26.27 13M28 16.73c0-.95-.78-1.73-1.73-1.73-.65 0-1.24.36-1.54.93L22.11 21h1.62A4.28 4.28 0 0 0 28 16.73" clip-rule="evenodd"/><path fill="url(#teapot_svg__c)" fill-rule="evenodd" d="M26.27 13A3.73 3.73 0 0 1 30 16.73c0 3.46-2.81 6.27-6.27 6.27h-4.91l4.14-7.98A3.73 3.73 0 0 1 26.27 13M28 16.73c0-.95-.78-1.73-1.73-1.73-.65 0-1.24.36-1.54.93L22.11 21h1.62A4.28 4.28 0 0 0 28 16.73" clip-rule="evenodd"/><path fill="url(#teapot_svg__d)" d="M15.51 7.98a1.49 1.49 0 1 0 0-2.98 1.49 1.49 0 0 0 0 2.98"/><path fill="url(#teapot_svg__e)" d="M15.51 7.98a1.49 1.49 0 1 0 0-2.98 1.49 1.49 0 0 0 0 2.98"/><path fill="url(#teapot_svg__f)" d="M22.07 10c-1.59-1.84-3.94-3-6.56-3s-4.97 1.16-6.56 3z"/><path fill="url(#teapot_svg__g)" d="M8.72 26.43 4.5 22.42A8.04 8.04 0 0 1 2 16.59v-5.06c0-.29.24-.53.53-.53h2.29c.29 0 .53.24.53.53v2.11c0 .49.27.94.7 1.16l2.66 1.4v10.23z"/><path fill="#D42E6B" d="M8.72 26.43 4.5 22.42A8.04 8.04 0 0 1 2 16.59v-5.06c0-.29.24-.53.53-.53h2.29c.29 0 .53.24.53.53v2.11c0 .49.27.94.7 1.16l2.66 1.4v10.23z"/><path fill="url(#teapot_svg__h)" d="M8.72 26.43 4.5 22.42A8.04 8.04 0 0 1 2 16.59v-5.06c0-.29.24-.53.53-.53h2.29c.29 0 .53.24.53.53v2.11c0 .49.27.94.7 1.16l2.66 1.4v10.23z"/><path fill="url(#teapot_svg__i)" d="M8.72 26.43 4.5 22.42A8.04 8.04 0 0 1 2 16.59v-5.06c0-.29.24-.53.53-.53h2.29c.29 0 .53.24.53.53v2.11c0 .49.27.94.7 1.16l2.66 1.4v10.23z"/><path fill="url(#teapot_svg__j)" d="M23.26 9.5H7.75c-.41 0-.75.34-.75.75s.34.75.75.75h15.51c.41 0 .75-.34.75-.75s-.34-.75-.75-.75"/><path fill="url(#teapot_svg__k)" d="M23.26 9.5H7.75c-.41 0-.75.34-.75.75s.34.75.75.75h15.51c.41 0 .75-.34.75-.75s-.34-.75-.75-.75"/><path fill="url(#teapot_svg__l)" d="M23.26 9.5H7.75c-.41 0-.75.34-.75.75s.34.75.75.75h15.51c.41 0 .75-.34.75-.75s-.34-.75-.75-.75"/><path fill="url(#teapot_svg__m)" d="M24.81 15.2c-.04-.1-.08-.19-.12-.29L23.06 11H7.82l-1.63 3.92c-.04.09-.08.19-.12.28v.01c-.46 1.15-.71 2.4-.71 3.72C5.36 24.49 9.87 29 15.44 29s10.08-4.51 10.08-10.08c0-1.31-.25-2.57-.71-3.72"/><path fill="url(#teapot_svg__n)" d="M24.81 15.2c-.04-.1-.08-.19-.12-.29L23.06 11H7.82l-1.63 3.92c-.04.09-.08.19-.12.28v.01c-.46 1.15-.71 2.4-.71 3.72C5.36 24.49 9.87 29 15.44 29s10.08-4.51 10.08-10.08c0-1.31-.25-2.57-.71-3.72"/><path fill="url(#teapot_svg__o)" d="M24.81 15.2c-.04-.1-.08-.19-.12-.29L23.06 11H7.82l-1.63 3.92c-.04.09-.08.19-.12.28v.01c-.46 1.15-.71 2.4-.71 3.72C5.36 24.49 9.87 29 15.44 29s10.08-4.51 10.08-10.08c0-1.31-.25-2.57-.71-3.72"/><path fill="url(#teapot_svg__p)" d="M24.81 15.2c-.04-.1-.08-.19-.12-.29L23.06 11H7.82l-1.63 3.92c-.04.09-.08.19-.12.28v.01c-.46 1.15-.71 2.4-.71 3.72C5.36 24.49 9.87 29 15.44 29s10.08-4.51 10.08-10.08c0-1.31-.25-2.57-.71-3.72"/><path fill="url(#teapot_svg__q)" d="m20.86 28.94-.97-.94h-8.83l-.97.94c-.4.39-.12 1.06.43 1.06h9.91c.55 0 .82-.67.43-1.06"/><path fill="url(#teapot_svg__r)" d="m20.86 28.94-.97-.94h-8.83l-.97.94c-.4.39-.12 1.06.43 1.06h9.91c.55 0 .82-.67.43-1.06"/><path fill="url(#teapot_svg__s)" d="m20.86 28.94-.97-.94h-8.83l-.97.94c-.4.39-.12 1.06.43 1.06h9.91c.55 0 .82-.67.43-1.06"/><path fill="url(#teapot_svg__t)" d="m20.86 28.94-.97-.94h-8.83l-.97.94c-.4.39-.12 1.06.43 1.06h9.91c.55 0 .82-.67.43-1.06"/><path fill="url(#teapot_svg__u)" d="m20.86 28.94-.97-.94h-8.83l-.97.94c-.4.39-.12 1.06.43 1.06h9.91c.55 0 .82-.67.43-1.06"/><path fill="url(#teapot_svg__v)" d="m20.86 28.94-.97-.94h-8.83l-.97.94c-.4.39-.12 1.06.43 1.06h9.91c.55 0 .82-.67.43-1.06"/><defs><radialGradient id="teapot_svg__b" cx="0" cy="0" r="1" gradientTransform="rotate(121.487 7.74 16.16)scale(5.86335 4.5261)" gradientUnits="userSpaceOnUse"><stop offset=".631" stop-color="#FF66A2" stop-opacity="0"/><stop offset=".72" stop-color="#FF65A0"/><stop offset="1" stop-color="#FF65A0" stop-opacity="0"/></radialGradient><radialGradient id="teapot_svg__d" cx="0" cy="0" r="1" gradientTransform="translate(17.974 3.461)scale(6.0573)" gradientUnits="userSpaceOnUse"><stop stop-color="#ED1C26"/><stop offset=".456" stop-color="#ED1452"/><stop offset="1" stop-color="#EC098C"/></radialGradient><radialGradient id="teapot_svg__e" cx="0" cy="0" r="1" gradientTransform="rotate(114.057 6.106 8.246)scale(1.91647)" gradientUnits="userSpaceOnUse"><stop stop-color="#FF5F8B"/><stop offset=".666" stop-color="#DE3457"/></radialGradient><radialGradient id="teapot_svg__f" cx="0" cy="0" r="1" gradientTransform="rotate(95.102 5.55 12.193)scale(3.51392 15.3676)" gradientUnits="userSpaceOnUse"><stop stop-color="#EF5E85"/><stop offset=".691" stop-color="#E73564"/></radialGradient><radialGradient id="teapot_svg__h" cx="0" cy="0" r="1" gradientTransform="matrix(0 5.1875 -2.25924 0 5.813 12.688)" gradientUnits="userSpaceOnUse"><stop offset=".386" stop-color="#C5174A"/><stop offset=".735" stop-color="#D74273"/><stop offset="1" stop-color="#D74273" stop-opacity="0"/></radialGradient><radialGradient id="teapot_svg__i" cx="0" cy="0" r="1" gradientTransform="matrix(0 6.5 -5.0325 0 8.72 19.188)" gradientUnits="userSpaceOnUse"><stop offset=".625" stop-color="#C12146"/><stop offset="1" stop-color="#C21D46" stop-opacity="0"/></radialGradient><radialGradient id="teapot_svg__k" cx="0" cy="0" r="1" gradientTransform="matrix(0 .46875 -6.625 0 20.906 10.031)" gradientUnits="userSpaceOnUse"><stop stop-color="#FF975C"/><stop offset="1" stop-color="#FF9B5C" stop-opacity="0"/></radialGradient><radialGradient id="teapot_svg__l" cx="0" cy="0" r="1" gradientTransform="matrix(0 .78125 -5.63616 0 6.469 10)" gradientUnits="userSpaceOnUse"><stop stop-color="#DB6D60"/><stop offset="1" stop-color="#DB7065" stop-opacity="0"/></radialGradient><radialGradient id="teapot_svg__m" cx="0" cy="0" r="1" gradientTransform="matrix(-13.375 1.3751 -1.5401 -14.97994 19.75 15.625)" gradientUnits="userSpaceOnUse"><stop stop-color="#FF668E"/><stop offset=".5" stop-color="#F32D60"/><stop offset=".969" stop-color="#DE385C"/></radialGradient><radialGradient id="teapot_svg__n" cx="0" cy="0" r="1" gradientTransform="matrix(0 11.875 -23.8281 0 15.44 29)" gradientUnits="userSpaceOnUse"><stop offset=".221" stop-color="#E31F8D"/><stop offset="1" stop-color="#E3208B" stop-opacity="0"/></radialGradient><radialGradient id="teapot_svg__o" cx="0" cy="0" r="1" gradientTransform="matrix(-4.25 20.25002 -15.1328 -3.17602 16.875 18.5)" gradientUnits="userSpaceOnUse"><stop offset=".585" stop-color="#CF4D5F" stop-opacity="0"/><stop offset=".707" stop-color="#D45673"/></radialGradient><radialGradient id="teapot_svg__t" cx="0" cy="0" r="1" gradientTransform="matrix(0 .42188 -4.41051 0 18.031 29.281)" gradientUnits="userSpaceOnUse"><stop stop-color="#FF6998"/><stop offset="1" stop-color="#FF6797" stop-opacity="0"/></radialGradient><radialGradient id="teapot_svg__u" cx="0" cy="0" r="1" gradientTransform="matrix(0 2.0625 -4.875 0 8.688 28.813)" gradientUnits="userSpaceOnUse"><stop offset=".258" stop-color="#D36170"/><stop offset="1" stop-color="#CC6974" stop-opacity="0"/></radialGradient><linearGradient id="teapot_svg__a" x1="29.063" x2="24.41" y1="13.563" y2="23" gradientUnits="userSpaceOnUse"><stop stop-color="#F72289"/><stop offset="1" stop-color="#E5265D"/></linearGradient><linearGradient id="teapot_svg__c" x1="23" x2="30" y1="19.688" y2="15.625" gradientUnits="userSpaceOnUse"><stop stop-color="#E92942"/><stop offset=".756" stop-color="#EB2641" stop-opacity="0"/></linearGradient><linearGradient id="teapot_svg__g" x1="12.126" x2="-3.802" y1="24.628" y2="7.484" gradientUnits="userSpaceOnUse"><stop stop-color="#ED1C26"/><stop offset=".456" stop-color="#ED1452"/><stop offset="1" stop-color="#EC098C"/></linearGradient><linearGradient id="teapot_svg__j" x1="7" x2="24.011" y1="10.25" y2="10.25" gradientUnits="userSpaceOnUse"><stop stop-color="#E04539"/><stop offset=".342" stop-color="#F4542B"/><stop offset=".658" stop-color="#FF673F"/><stop offset="1" stop-color="#FF8E36"/></linearGradient><linearGradient id="teapot_svg__p" x1="15.44" x2="15.44" y1="11" y2="11.625" gradientUnits="userSpaceOnUse"><stop stop-color="#E7123D"/><stop offset="1" stop-color="#FF2249" stop-opacity="0"/></linearGradient><linearGradient id="teapot_svg__q" x1="15.472" x2="15.472" y1="24.357" y2="31.614" gradientUnits="userSpaceOnUse"><stop stop-color="#ED1C26"/><stop offset=".456" stop-color="#ED1452"/><stop offset="1" stop-color="#EC098C"/></linearGradient><linearGradient id="teapot_svg__r" x1="10.313" x2="21.044" y1="30" y2="30" gradientUnits="userSpaceOnUse"><stop stop-color="#CE1D4A"/><stop offset=".536" stop-color="#F8186A"/><stop offset="1" stop-color="#FE3074"/></linearGradient><linearGradient id="teapot_svg__s" x1="15.473" x2="15.473" y1="28" y2="30" gradientUnits="userSpaceOnUse"><stop offset=".688" stop-color="#E52988" stop-opacity="0"/><stop offset=".906" stop-color="#E72989"/></linearGradient><linearGradient id="teapot_svg__v" x1="15.473" x2="15.473" y1="28" y2="30" gradientUnits="userSpaceOnUse"><stop stop-color="#D3094D"/><stop offset=".117" stop-color="#CE0E49" stop-opacity="0"/></linearGradient></defs></svg>