<svg xmlns="http://www.w3.org/2000/svg" fill="none" viewBox="0 0 32 32"><circle cx="11.306" cy="4.5" r="2.5" fill="#DE904C"/><circle cx="11.306" cy="4.5" r="2.5" fill="url(#teddy-bear_svg__a)"/><circle cx="11.306" cy="4.5" r="2.5" fill="url(#teddy-bear_svg__b)"/><circle cx="11.306" cy="4.5" r="2.5" fill="url(#teddy-bear_svg__c)"/><circle cx="20.712" cy="4.5" r="2.5" fill="#D68640"/><circle cx="20.712" cy="4.5" r="2.5" fill="url(#teddy-bear_svg__d)"/><circle cx="20.712" cy="4.5" r="2.5" fill="url(#teddy-bear_svg__e)"/><g filter="url(#teddy-bear_svg__f)"><circle cx="20.767" cy="4.5" r="2.126" stroke="url(#teddy-bear_svg__g)" stroke-width=".3"/></g><circle cx="11.306" cy="4.57" r="1.618" fill="url(#teddy-bear_svg__h)"/><circle cx="20.712" cy="4.57" r="1.618" fill="#F9BF76"/><circle cx="20.712" cy="4.57" r="1.618" fill="url(#teddy-bear_svg__i)"/><g filter="url(#teddy-bear_svg__j)" transform="rotate(31.389 19.087 12.797)"><rect width="14" height="6" x="19.087" y="12.797" fill="#DE773D" rx="3"/><rect width="14" height="6" x="19.087" y="12.797" fill="url(#teddy-bear_svg__k)" rx="3"/><rect width="14" height="6" x="19.087" y="12.797" fill="url(#teddy-bear_svg__l)" rx="3"/><rect width="14" height="6" x="19.087" y="12.797" fill="url(#teddy-bear_svg__m)" rx="3"/><rect width="14" height="6" x="19.087" y="12.797" fill="url(#teddy-bear_svg__n)" rx="3"/></g><g filter="url(#teddy-bear_svg__o)" transform="rotate(-30 .962 19.906)"><rect width="14" height="6" x=".962" y="19.906" fill="#D77940" rx="3"/><rect width="14" height="6" x=".962" y="19.906" fill="url(#teddy-bear_svg__p)" rx="3"/><rect width="14" height="6" x=".962" y="19.906" fill="url(#teddy-bear_svg__q)" rx="3"/><rect width="14" height="6" x=".962" y="19.906" fill="url(#teddy-bear_svg__r)" rx="3"/><rect width="14" height="6" x=".962" y="19.906" fill="url(#teddy-bear_svg__s)" rx="3"/></g><g filter="url(#teddy-bear_svg__t)"><path stroke="#FA9C66" stroke-linecap="round" d="m21.406 16.343 6.438 3.937"/></g><circle cx="15.962" cy="20.797" r="8" fill="url(#teddy-bear_svg__u)"/><circle cx="15.962" cy="20.797" r="8" fill="url(#teddy-bear_svg__v)"/><circle cx="15.962" cy="20.797" r="8" fill="url(#teddy-bear_svg__w)"/><circle cx="15.962" cy="20.797" r="8" fill="url(#teddy-bear_svg__x)"/><circle cx="15.962" cy="20.797" r="8" fill="url(#teddy-bear_svg__y)"/><circle cx="15.962" cy="20.797" r="8" fill="url(#teddy-bear_svg__z)"/><circle cx="15.962" cy="20.797" r="8" fill="url(#teddy-bear_svg__A)"/><circle cx="15.962" cy="20.797" r="8" fill="url(#teddy-bear_svg__B)"/><circle cx="15.962" cy="20.797" r="8" fill="url(#teddy-bear_svg__C)"/><circle cx="15.962" cy="21.797" r="5" fill="url(#teddy-bear_svg__D)"/><circle cx="15.962" cy="21.797" r="5" fill="url(#teddy-bear_svg__E)"/><circle cx="15.962" cy="21.797" r="5" fill="url(#teddy-bear_svg__F)"/><circle cx="15.962" cy="21.797" r="5" fill="url(#teddy-bear_svg__G)"/><g filter="url(#teddy-bear_svg__H)"><path fill="url(#teddy-bear_svg__I)" d="M23.851 10.166c0 4.468-3.532 5.985-7.89 5.985-4.356 0-7.888-1.517-7.888-5.985 0-4.467 4.022-7.666 7.889-7.666 3.986 0 7.89 3.199 7.89 7.666"/><path fill="url(#teddy-bear_svg__J)" d="M23.851 10.166c0 4.468-3.532 5.985-7.89 5.985-4.356 0-7.888-1.517-7.888-5.985 0-4.467 4.022-7.666 7.889-7.666 3.986 0 7.89 3.199 7.89 7.666"/><path fill="url(#teddy-bear_svg__K)" d="M23.851 10.166c0 4.468-3.532 5.985-7.89 5.985-4.356 0-7.888-1.517-7.888-5.985 0-4.467 4.022-7.666 7.889-7.666 3.986 0 7.89 3.199 7.89 7.666"/><path fill="url(#teddy-bear_svg__L)" d="M23.851 10.166c0 4.468-3.532 5.985-7.89 5.985-4.356 0-7.888-1.517-7.888-5.985 0-4.467 4.022-7.666 7.889-7.666 3.986 0 7.89 3.199 7.89 7.666"/></g><circle cx="13.462" cy="8.422" r=".5" fill="url(#teddy-bear_svg__M)"/><circle cx="18.462" cy="8.422" r=".5" fill="url(#teddy-bear_svg__N)"/><g filter="url(#teddy-bear_svg__O)"><path fill="url(#teddy-bear_svg__P)" d="M15.962 9.109c-.473 0-1.506 0-2.515.656-.85.553-.93 1.875-.4 3.015.528 1.141 1.425 1.86 2.915 1.86s2.387-.719 2.915-1.86c.529-1.14.45-2.462-.4-3.015-1.01-.656-2.042-.656-2.515-.656"/><path fill="url(#teddy-bear_svg__Q)" d="M15.962 9.109c-.473 0-1.506 0-2.515.656-.85.553-.93 1.875-.4 3.015.528 1.141 1.425 1.86 2.915 1.86s2.387-.719 2.915-1.86c.529-1.14.45-2.462-.4-3.015-1.01-.656-2.042-.656-2.515-.656"/></g><g filter="url(#teddy-bear_svg__R)" transform="scale(-1 1)rotate(29.237 -43.88 -8.814)"><rect width="7" height="8.5" fill="url(#teddy-bear_svg__S)" rx="3.5"/><rect width="7" height="8.5" fill="url(#teddy-bear_svg__T)" rx="3.5"/></g><g filter="url(#teddy-bear_svg__U)"><rect width="7" height="8.5" x="22.032" y="20.308" fill="url(#teddy-bear_svg__V)" rx="3.5" transform="rotate(29.237 22.032 20.308)"/></g><rect width="7" height="8.5" x="22.032" y="20.308" fill="url(#teddy-bear_svg__W)" rx="3.5" transform="rotate(29.237 22.032 20.308)"/><rect width="4" height="5.5" fill="url(#teddy-bear_svg__X)" rx="2" transform="scale(-1 1)rotate(29.237 -47.558 -6.73)"/><rect width="4" height="5.5" x="22.581" y="22.371" fill="url(#teddy-bear_svg__Y)" rx="2" transform="rotate(29.237 22.581 22.37)"/><g filter="url(#teddy-bear_svg__Z)"><path fill="#D18A74" d="M14.836 10.124c-.293 0-.498.273-.346.524.17.281.442.598.847.826a.38.38 0 0 0 .369 0c.404-.228.675-.545.846-.826.152-.251-.053-.524-.346-.524z"/></g><path fill="url(#teddy-bear_svg__aa)" d="M15.213 9.82c-.32 0-.545.298-.378.572.186.308.483.654.925.903a.41.41 0 0 0 .404 0c.441-.25.738-.595.925-.903.166-.274-.058-.573-.378-.573z"/><path fill="url(#teddy-bear_svg__ab)" d="M15.213 9.82c-.32 0-.545.298-.378.572.186.308.483.654.925.903a.41.41 0 0 0 .404 0c.441-.25.738-.595.925-.903.166-.274-.058-.573-.378-.573z"/><g filter="url(#teddy-bear_svg__ac)"><path stroke="#FA9E75" stroke-linecap="round" stroke-width=".5" d="M9.608 22.557c.184.084.643.363 1.01.804.368.44.98 1.53 1.24 2.02"/></g><defs><radialGradient id="teddy-bear_svg__a" cx="0" cy="0" r="1" gradientTransform="matrix(-2 -1.6875 .50703 -.60093 13.5 3.187)" gradientUnits="userSpaceOnUse"><stop stop-color="#F4A161"/><stop offset="1" stop-color="#F4A161" stop-opacity="0"/></radialGradient><radialGradient id="teddy-bear_svg__b" cx="0" cy="0" r="1" gradientTransform="rotate(99.562 3.75 7.03)scale(2.12238)" gradientUnits="userSpaceOnUse"><stop offset=".713" stop-color="#CE7032"/><stop offset="1" stop-color="#CE7032" stop-opacity="0"/></radialGradient><radialGradient id="teddy-bear_svg__c" cx="0" cy="0" r="1" gradientTransform="rotate(-135 6.585 -.091)scale(2.64742 3.25371)" gradientUnits="userSpaceOnUse"><stop offset=".841" stop-color="#C17B3B" stop-opacity="0"/><stop offset=".979" stop-color="#C17B3B"/></radialGradient><radialGradient id="teddy-bear_svg__d" cx="0" cy="0" r="1" gradientTransform="rotate(99.51 8.627 11.164)scale(2.12206)" gradientUnits="userSpaceOnUse"><stop offset=".659" stop-color="#DC692A"/><stop offset="1" stop-color="#DC692A" stop-opacity="0"/></radialGradient><radialGradient id="teddy-bear_svg__e" cx="0" cy="0" r="1" gradientTransform="rotate(-143.383 11.45 -1.245)scale(3.18284 2.61524)" gradientUnits="userSpaceOnUse"><stop offset=".828" stop-color="#B56E32" stop-opacity="0"/><stop offset=".924" stop-color="#B56E32"/></radialGradient><radialGradient id="teddy-bear_svg__h" cx="0" cy="0" r="1" gradientTransform="matrix(1.26563 1.48438 -2.7437 2.33937 10.375 3.484)" gradientUnits="userSpaceOnUse"><stop stop-color="#FECC85"/><stop offset="1" stop-color="#DCA86A"/></radialGradient><radialGradient id="teddy-bear_svg__i" cx="0" cy="0" r="1" gradientTransform="rotate(6.915 -25.355 168.826)scale(2.40814)" gradientUnits="userSpaceOnUse"><stop offset=".618" stop-color="#E8A869" stop-opacity="0"/><stop offset=".906" stop-color="#E8A869"/></radialGradient><radialGradient id="teddy-bear_svg__k" cx="0" cy="0" r="1" gradientTransform="matrix(.49837 -5.06304 7.10362 .69923 28.591 19.901)" gradientUnits="userSpaceOnUse"><stop offset=".175" stop-color="#983C50"/><stop offset="1" stop-color="#983C50" stop-opacity="0"/></radialGradient><radialGradient id="teddy-bear_svg__m" cx="0" cy="0" r="1" gradientTransform="matrix(-.23879 2.48857 -1.63941 -.1573 31.6 13.673)" gradientUnits="userSpaceOnUse"><stop stop-color="#FFB075"/><stop offset="1" stop-color="#FFB075" stop-opacity="0"/></radialGradient><radialGradient id="teddy-bear_svg__n" cx="0" cy="0" r="1" gradientTransform="rotate(-45.988 32.73 -19.359)scale(3.47146 4.6882)" gradientUnits="userSpaceOnUse"><stop offset=".846" stop-color="#FFAA6F"/><stop offset="1" stop-color="#FFAA6F" stop-opacity="0"/></radialGradient><radialGradient id="teddy-bear_svg__q" cx="0" cy="0" r="1" gradientTransform="rotate(153.857 .812 13.509)scale(5.05601 3.6258)" gradientUnits="userSpaceOnUse"><stop offset=".155" stop-color="#BB5124"/><stop offset="1" stop-color="#BB5124" stop-opacity="0"/></radialGradient><radialGradient id="teddy-bear_svg__r" cx="0" cy="0" r="1" gradientTransform="rotate(28.152 -43.211 16.294)scale(1.64843 1.57452)" gradientUnits="userSpaceOnUse"><stop stop-color="#E38B4D"/><stop offset="1" stop-color="#E38B4D" stop-opacity="0"/></radialGradient><radialGradient id="teddy-bear_svg__s" cx="0" cy="0" r="1" gradientTransform="matrix(-1.64047 -1.3307 2.64549 -3.26132 8.707 24.398)" gradientUnits="userSpaceOnUse"><stop offset=".923" stop-color="#D77C46"/><stop offset="1" stop-color="#D77C46" stop-opacity="0"/></radialGradient><radialGradient id="teddy-bear_svg__v" cx="0" cy="0" r="1" gradientTransform="matrix(-6.21828 7.81269 -5.09154 -4.05246 22.857 16.509)" gradientUnits="userSpaceOnUse"><stop stop-color="#FFA66F"/><stop offset="1" stop-color="#FFA66F" stop-opacity="0"/></radialGradient><radialGradient id="teddy-bear_svg__w" cx="0" cy="0" r="1" gradientTransform="matrix(0 3.87977 -6.87021 0 15.962 14.17)" gradientUnits="userSpaceOnUse"><stop offset=".466" stop-color="#B54322"/><stop offset="1" stop-color="#B54322" stop-opacity="0"/></radialGradient><radialGradient id="teddy-bear_svg__x" cx="0" cy="0" r="1" gradientTransform="rotate(-125.505 13.914 6.775)scale(10.707 11.7823)" gradientUnits="userSpaceOnUse"><stop offset=".715" stop-color="#A3633D" stop-opacity="0"/><stop offset=".924" stop-color="#A3633D"/></radialGradient><radialGradient id="teddy-bear_svg__y" cx="0" cy="0" r="1" gradientTransform="matrix(2.60423 -.37203 .95666 6.6966 8.4 22.727)" gradientUnits="userSpaceOnUse"><stop stop-color="#C7733E"/><stop offset="1" stop-color="#C7733E" stop-opacity="0"/></radialGradient><radialGradient id="teddy-bear_svg__z" cx="0" cy="0" r="1" gradientTransform="rotate(55.438 -19.86 24.799)scale(2.90421 2.27211)" gradientUnits="userSpaceOnUse"><stop offset=".255" stop-color="#A03434"/><stop offset="1" stop-color="#A03434" stop-opacity="0"/></radialGradient><radialGradient id="teddy-bear_svg__A" cx="0" cy="0" r="1" gradientTransform="rotate(136.5 4.883 17.492)scale(3.59022 2.07018)" gradientUnits="userSpaceOnUse"><stop offset=".317" stop-color="#A14750"/><stop offset="1" stop-color="#A14750" stop-opacity="0"/></radialGradient><radialGradient id="teddy-bear_svg__B" cx="0" cy="0" r="1" gradientTransform="rotate(90 -.672 16.634)scale(11.4908)" gradientUnits="userSpaceOnUse"><stop offset=".839" stop-color="#AC4F52" stop-opacity="0"/><stop offset="1" stop-color="#AC4F52"/></radialGradient><radialGradient id="teddy-bear_svg__C" cx="0" cy="0" r="1" gradientTransform="matrix(1.2224 -2.41821 1.74068 .8799 21.953 23.63)" gradientUnits="userSpaceOnUse"><stop offset=".539" stop-color="#DC6A27"/><stop offset="1" stop-color="#DC6A27" stop-opacity="0"/></radialGradient><radialGradient id="teddy-bear_svg__E" cx="0" cy="0" r="1" gradientTransform="rotate(90 -1.443 17.405)scale(8.55676)" gradientUnits="userSpaceOnUse"><stop offset=".588" stop-color="#E2A48D" stop-opacity="0"/><stop offset="1" stop-color="#E2A48D"/></radialGradient><radialGradient id="teddy-bear_svg__F" cx="0" cy="0" r="1" gradientTransform="rotate(151.504 8.484 12.157)scale(4.23316)" gradientUnits="userSpaceOnUse"><stop stop-color="#FFD992"/><stop offset="1" stop-color="#FFD992" stop-opacity="0"/></radialGradient><radialGradient id="teddy-bear_svg__G" cx="0" cy="0" r="1" gradientTransform="matrix(2.17905 -1.16925 1.98996 3.70856 10.5 24.8)" gradientUnits="userSpaceOnUse"><stop offset=".546" stop-color="#BC8A66"/><stop offset="1" stop-color="#BC8A66" stop-opacity="0"/></radialGradient><radialGradient id="teddy-bear_svg__J" cx="0" cy="0" r="1" gradientTransform="rotate(118.974 8.162 9.967)scale(6.35176 7.55636)" gradientUnits="userSpaceOnUse"><stop stop-color="#FFBE88"/><stop offset="1" stop-color="#FFBE88" stop-opacity="0"/></radialGradient><radialGradient id="teddy-bear_svg__K" cx="0" cy="0" r="1" gradientTransform="rotate(81.87 4.563 11.663)scale(12.015 13.8879)" gradientUnits="userSpaceOnUse"><stop offset=".66" stop-color="#BA5137" stop-opacity="0"/><stop offset="1" stop-color="#BA5137"/></radialGradient><radialGradient id="teddy-bear_svg__L" cx="0" cy="0" r="1" gradientTransform="matrix(-1.67184 4.01238 -3.33574 -1.3899 15.192 13.026)" gradientUnits="userSpaceOnUse"><stop offset=".345" stop-color="#CE6D54"/><stop offset="1" stop-color="#CE6D54" stop-opacity="0"/></radialGradient><radialGradient id="teddy-bear_svg__M" cx="0" cy="0" r="1" gradientTransform="matrix(-.6341 .4822 -.4822 -.6341 13.962 8.172)" gradientUnits="userSpaceOnUse"><stop stop-color="#635556"/><stop offset="1" stop-color="#452B30"/></radialGradient><radialGradient id="teddy-bear_svg__N" cx="0" cy="0" r="1" gradientTransform="scale(-.4627)rotate(-37.439 -46.502 51.38)" gradientUnits="userSpaceOnUse"><stop stop-color="#635556"/><stop offset="1" stop-color="#452B30"/></radialGradient><radialGradient id="teddy-bear_svg__P" cx="0" cy="0" r="1" gradientTransform="matrix(0 5.85139 -10.7808 0 15.962 9.85)" gradientUnits="userSpaceOnUse"><stop offset=".204" stop-color="#FFBD96"/><stop offset=".965" stop-color="#D27067"/></radialGradient><radialGradient id="teddy-bear_svg__Q" cx="0" cy="0" r="1" gradientTransform="rotate(146.39 8.092 7.91)scale(2.11419 2.83605)" gradientUnits="userSpaceOnUse"><stop stop-color="#FFDFAF"/><stop offset="1" stop-color="#FFDFAF" stop-opacity="0"/></radialGradient><radialGradient id="teddy-bear_svg__T" cx="0" cy="0" r="1" gradientTransform="rotate(-4.462 58.946 8.526)scale(4.60268 7.28058)" gradientUnits="userSpaceOnUse"><stop stop-color="#E68F58"/><stop offset="1" stop-color="#E68F58" stop-opacity="0"/></radialGradient><radialGradient id="teddy-bear_svg__W" cx="0" cy="0" r="1" gradientTransform="matrix(-.76625 .91614 -1.92842 -1.61293 27.322 21.215)" gradientUnits="userSpaceOnUse"><stop stop-color="#FD9C79"/><stop offset="1" stop-color="#FD9C79" stop-opacity="0"/></radialGradient><radialGradient id="teddy-bear_svg__ab" cx="0" cy="0" r="1" gradientTransform="matrix(-1.37347 0 0 -.61667 17.145 10.055)" gradientUnits="userSpaceOnUse"><stop stop-color="#635759"/><stop offset="1" stop-color="#635759" stop-opacity="0"/></radialGradient><linearGradient id="teddy-bear_svg__g" x1="22.892" x2="22.164" y1="3.593" y2="3.968" gradientUnits="userSpaceOnUse"><stop stop-color="#FFAF7E"/><stop offset="1" stop-color="#FFAF7E" stop-opacity="0"/></linearGradient><linearGradient id="teddy-bear_svg__l" x1="26.099" x2="25.903" y1="12.636" y2="14.476" gradientUnits="userSpaceOnUse"><stop stop-color="#EB9251"/><stop offset="1" stop-color="#EB9251" stop-opacity="0"/></linearGradient><linearGradient id="teddy-bear_svg__p" x1="7.965" x2="7.932" y1="19.198" y2="21.542" gradientUnits="userSpaceOnUse"><stop offset=".203" stop-color="#A2643B"/><stop offset="1" stop-color="#A2643B" stop-opacity="0"/></linearGradient><linearGradient id="teddy-bear_svg__u" x1="18.074" x2="18.074" y1="27.723" y2="15.074" gradientUnits="userSpaceOnUse"><stop stop-color="#CA6645"/><stop offset="1" stop-color="#D57E40"/></linearGradient><linearGradient id="teddy-bear_svg__D" x1="15.962" x2="15.962" y1="16.509" y2="24.694" gradientUnits="userSpaceOnUse"><stop stop-color="#E6A04E"/><stop offset="1" stop-color="#FFC286"/></linearGradient><linearGradient id="teddy-bear_svg__I" x1="15.962" x2="15.962" y1="3.889" y2="16.151" gradientUnits="userSpaceOnUse"><stop stop-color="#EC9D55"/><stop offset="1" stop-color="#DE7944"/></linearGradient><linearGradient id="teddy-bear_svg__S" x1="3.424" x2="3.671" y1="-.194" y2="8.693" gradientUnits="userSpaceOnUse"><stop stop-color="#E27749"/><stop offset="1" stop-color="#DA835D"/></linearGradient><linearGradient id="teddy-bear_svg__V" x1="25.532" x2="25.532" y1="20.308" y2="28.808" gradientUnits="userSpaceOnUse"><stop stop-color="#E17341"/><stop offset="1" stop-color="#D48461"/></linearGradient><linearGradient id="teddy-bear_svg__X" x1="1.806" x2="1.846" y1=".855" y2="5.918" gradientUnits="userSpaceOnUse"><stop stop-color="#FFBE7B"/><stop offset="1" stop-color="#FFDDA2"/></linearGradient><linearGradient id="teddy-bear_svg__Y" x1="24.521" x2="24.554" y1="24.083" y2="29.005" gradientUnits="userSpaceOnUse"><stop stop-color="#F7B678"/><stop offset="1" stop-color="#FFDDA2"/></linearGradient><linearGradient id="teddy-bear_svg__aa" x1="15.962" x2="15.962" y1="9.717" y2="11.348" gradientUnits="userSpaceOnUse"><stop stop-color="#49393F"/><stop offset="1" stop-color="#45323F"/></linearGradient><filter id="teddy-bear_svg__f" width="5.152" height="5.152" x="18.191" y="1.924" color-interpolation-filters="sRGB" filterUnits="userSpaceOnUse"><feFlood flood-opacity="0" result="BackgroundImageFix"/><feBlend in="SourceGraphic" in2="BackgroundImageFix" result="shape"/><feGaussianBlur result="effect1_foregroundBlur_18_3767" stdDeviation=".15"/></filter><filter id="teddy-bear_svg__j" width="12.98" height="10.318" x="17.085" y="13.77" color-interpolation-filters="sRGB" filterUnits="userSpaceOnUse"><feFlood flood-opacity="0" result="BackgroundImageFix"/><feBlend in="SourceGraphic" in2="BackgroundImageFix" result="shape"/><feColorMatrix in="SourceAlpha" result="hardAlpha" values="0 0 0 0 0 0 0 0 0 0 0 0 0 0 0 0 0 0 127 0"/><feOffset dx=".15" dy="-.15"/><feGaussianBlur stdDeviation=".5"/><feComposite in2="hardAlpha" k2="-1" k3="1" operator="arithmetic"/><feColorMatrix values="0 0 0 0 0.580392 0 0 0 0 0.25098 0 0 0 0 0.309804 0 0 0 1 0"/><feBlend in2="shape" result="effect1_innerShadow_18_3767"/></filter><filter id="teddy-bear_svg__o" width="13.429" height="10.501" x="1.559" y="13.503" color-interpolation-filters="sRGB" filterUnits="userSpaceOnUse"><feFlood flood-opacity="0" result="BackgroundImageFix"/><feBlend in="SourceGraphic" in2="BackgroundImageFix" result="shape"/><feColorMatrix in="SourceAlpha" result="hardAlpha" values="0 0 0 0 0 0 0 0 0 0 0 0 0 0 0 0 0 0 127 0"/><feOffset dx="-.5" dy="-.5"/><feGaussianBlur stdDeviation=".5"/><feComposite in2="hardAlpha" k2="-1" k3="1" operator="arithmetic"/><feColorMatrix values="0 0 0 0 0.709804 0 0 0 0 0.341176 0 0 0 0 0.278431 0 0 0 1 0"/><feBlend in2="shape" result="effect1_innerShadow_18_3767"/></filter><filter id="teddy-bear_svg__t" width="11.438" height="8.938" x="18.906" y="13.843" color-interpolation-filters="sRGB" filterUnits="userSpaceOnUse"><feFlood flood-opacity="0" result="BackgroundImageFix"/><feBlend in="SourceGraphic" in2="BackgroundImageFix" result="shape"/><feGaussianBlur result="effect1_foregroundBlur_18_3767" stdDeviation="1"/></filter><filter id="teddy-bear_svg__H" width="16.279" height="13.901" x="8.073" y="2.5" color-interpolation-filters="sRGB" filterUnits="userSpaceOnUse"><feFlood flood-opacity="0" result="BackgroundImageFix"/><feBlend in="SourceGraphic" in2="BackgroundImageFix" result="shape"/><feColorMatrix in="SourceAlpha" result="hardAlpha" values="0 0 0 0 0 0 0 0 0 0 0 0 0 0 0 0 0 0 127 0"/><feOffset dx=".5" dy=".25"/><feGaussianBlur stdDeviation=".75"/><feComposite in2="hardAlpha" k2="-1" k3="1" operator="arithmetic"/><feColorMatrix values="0 0 0 0 0.741176 0 0 0 0 0.498039 0 0 0 0 0.266667 0 0 0 1 0"/><feBlend in2="shape" result="effect1_innerShadow_18_3767"/></filter><filter id="teddy-bear_svg__O" width="6.596" height="5.631" x="12.714" y="9.109" color-interpolation-filters="sRGB" filterUnits="userSpaceOnUse"><feFlood flood-opacity="0" result="BackgroundImageFix"/><feBlend in="SourceGraphic" in2="BackgroundImageFix" result="shape"/><feColorMatrix in="SourceAlpha" result="hardAlpha" values="0 0 0 0 0 0 0 0 0 0 0 0 0 0 0 0 0 0 127 0"/><feOffset dx=".1" dy=".1"/><feGaussianBlur stdDeviation=".2"/><feComposite in2="hardAlpha" k2="-1" k3="1" operator="arithmetic"/><feColorMatrix values="0 0 0 0 0.823529 0 0 0 0 0.568627 0 0 0 0 0.384314 0 0 0 1 0"/><feBlend in2="shape" result="effect1_innerShadow_18_3767"/></filter><filter id="teddy-bear_svg__R" width="8.034" height="8.91" x="4.9" y="21.271" color-interpolation-filters="sRGB" filterUnits="userSpaceOnUse"><feFlood flood-opacity="0" result="BackgroundImageFix"/><feBlend in="SourceGraphic" in2="BackgroundImageFix" result="shape"/><feColorMatrix in="SourceAlpha" result="hardAlpha" values="0 0 0 0 0 0 0 0 0 0 0 0 0 0 0 0 0 0 127 0"/><feOffset dx=".15" dy=".3"/><feGaussianBlur stdDeviation=".3"/><feComposite in2="hardAlpha" k2="-1" k3="1" operator="arithmetic"/><feColorMatrix values="0 0 0 0 0.807843 0 0 0 0 0.407843 0 0 0 0 0.231373 0 0 0 1 0"/><feBlend in2="shape" result="effect1_innerShadow_18_3767"/><feColorMatrix in="SourceAlpha" result="hardAlpha" values="0 0 0 0 0 0 0 0 0 0 0 0 0 0 0 0 0 0 127 0"/><feOffset dx="-.15" dy="-.3"/><feGaussianBlur stdDeviation=".3"/><feComposite in2="hardAlpha" k2="-1" k3="1" operator="arithmetic"/><feColorMatrix values="0 0 0 0 0.72549 0 0 0 0 0.4 0 0 0 0 0.341176 0 0 0 1 0"/><feBlend in2="effect1_innerShadow_18_3767" result="effect2_innerShadow_18_3767"/></filter><filter id="teddy-bear_svg__U" width="8.034" height="8.91" x="18.993" y="21.271" color-interpolation-filters="sRGB" filterUnits="userSpaceOnUse"><feFlood flood-opacity="0" result="BackgroundImageFix"/><feBlend in="SourceGraphic" in2="BackgroundImageFix" result="shape"/><feColorMatrix in="SourceAlpha" result="hardAlpha" values="0 0 0 0 0 0 0 0 0 0 0 0 0 0 0 0 0 0 127 0"/><feOffset dx="-.15" dy="-.3"/><feGaussianBlur stdDeviation=".3"/><feComposite in2="hardAlpha" k2="-1" k3="1" operator="arithmetic"/><feColorMatrix values="0 0 0 0 0.682353 0 0 0 0 0.356863 0 0 0 0 0.32549 0 0 0 1 0"/><feBlend in2="shape" result="effect1_innerShadow_18_3767"/><feColorMatrix in="SourceAlpha" result="hardAlpha" values="0 0 0 0 0 0 0 0 0 0 0 0 0 0 0 0 0 0 127 0"/><feOffset dx=".15" dy=".3"/><feGaussianBlur stdDeviation=".3"/><feComposite in2="hardAlpha" k2="-1" k3="1" operator="arithmetic"/><feColorMatrix values="0 0 0 0 0.815686 0 0 0 0 0.384314 0 0 0 0 0.176471 0 0 0 1 0"/><feBlend in2="effect1_innerShadow_18_3767" result="effect2_innerShadow_18_3767"/></filter><filter id="teddy-bear_svg__Z" width="3.165" height="2.398" x="13.938" y="9.624" color-interpolation-filters="sRGB" filterUnits="userSpaceOnUse"><feFlood flood-opacity="0" result="BackgroundImageFix"/><feBlend in="SourceGraphic" in2="BackgroundImageFix" result="shape"/><feGaussianBlur result="effect1_foregroundBlur_18_3767" stdDeviation=".25"/></filter><filter id="teddy-bear_svg__ac" width="4.25" height="4.824" x="8.608" y="21.557" color-interpolation-filters="sRGB" filterUnits="userSpaceOnUse"><feFlood flood-opacity="0" result="BackgroundImageFix"/><feBlend in="SourceGraphic" in2="BackgroundImageFix" result="shape"/><feGaussianBlur result="effect1_foregroundBlur_18_3767" stdDeviation=".375"/></filter></defs></svg>