<svg width="32" height="32" fill="none" xmlns="http://www.w3.org/2000/svg"><g filter="url(#a)"><path d="M2.016 24.86v3.471a1.7 1.7 0 0 0 1.7 1.7h24.569a1.7 1.7 0 0 0 1.7-1.7V24.86c0 .829-.93 1.5-2.188 1.5H4.203c-1.258 0-2.187-.671-2.187-1.5Z" fill="url(#b)"/><path d="M2.016 24.86v3.471a1.7 1.7 0 0 0 1.7 1.7h24.569a1.7 1.7 0 0 0 1.7-1.7V24.86c0 .829-.93 1.5-2.188 1.5H4.203c-1.258 0-2.187-.671-2.187-1.5Z" fill="url(#c)"/></g><g filter="url(#d)"><path d="M9.672 7.094c-4.422 0-7.328 3.25-7.5 7.5v.39h8.84l.62-1.75c.015-.013.027-.027.04-.043.111-.126.278-.316 1.46-.316h5.774c.68 0 1.436.081 2.055.563.332.257.345.888.235 1.546h8.648v-.39c-.266-4.313-3.047-7.5-7.5-7.5H9.672Z" fill="url(#e)"/><path d="M9.672 7.094c-4.422 0-7.328 3.25-7.5 7.5v.39h8.84l.62-1.75c.015-.013.027-.027.04-.043.111-.126.278-.316 1.46-.316h5.774c.68 0 1.436.081 2.055.563.332.257.345.888.235 1.546h8.648v-.39c-.266-4.313-3.047-7.5-7.5-7.5H9.672Z" fill="url(#f)"/><path d="M9.672 7.094c-4.422 0-7.328 3.25-7.5 7.5v.39h8.84l.62-1.75c.015-.013.027-.027.04-.043.111-.126.278-.316 1.46-.316h5.774c.68 0 1.436.081 2.055.563.332.257.345.888.235 1.546h8.648v-.39c-.266-4.313-3.047-7.5-7.5-7.5H9.672Z" fill="url(#g)"/></g><g filter="url(#h)"><path d="M10.75 8.906h14.813a3.031 3.031 0 0 1 3.03 3.031H10.75v-3.03Z" fill="url(#i)"/></g><g filter="url(#j)"><path d="M9.466 15.14a3.61 3.61 0 1 0-6.324 0h6.324Z" fill="url(#k)"/><path d="M9.466 15.14a3.61 3.61 0 1 0-6.324 0h6.324Z" fill="url(#l)"/><path d="M9.466 15.14a3.61 3.61 0 1 0-6.324 0h6.324Z" fill="url(#m)"/></g><g filter="url(#n)"><path d="M22.486 15.14a3.61 3.61 0 1 1 6.324 0h-6.324Z" fill="url(#o)"/><path d="M22.486 15.14a3.61 3.61 0 1 1 6.324 0h-6.324Z" fill="url(#p)"/></g><g filter="url(#q)"><path d="M2.015 14.447c0-.221.18-.4.4-.4h7.804v2.187H3.416a1.4 1.4 0 0 1-1.4-1.4v-.387Z" fill="url(#r)"/><path d="M2.015 14.447c0-.221.18-.4.4-.4h7.804v2.187H3.416a1.4 1.4 0 0 1-1.4-1.4v-.387Z" fill="url(#s)"/><path d="M2.015 14.447c0-.221.18-.4.4-.4h7.804v2.187H3.416a1.4 1.4 0 0 1-1.4-1.4v-.387Z" fill="url(#t)"/></g><g filter="url(#u)"><path d="M29.984 14.447a.4.4 0 0 0-.4-.4h-7.803v2.187h6.803a1.4 1.4 0 0 0 1.4-1.4v-.387Z" fill="#B42E50"/><path d="M29.984 14.447a.4.4 0 0 0-.4-.4h-7.803v2.187h6.803a1.4 1.4 0 0 0 1.4-1.4v-.387Z" fill="url(#v)"/><path d="M29.984 14.447a.4.4 0 0 0-.4-.4h-7.803v2.187h6.803a1.4 1.4 0 0 0 1.4-1.4v-.387Z" fill="url(#w)"/></g><g filter="url(#x)"><path d="M20.016 11.867a.75.75 0 0 1 .75-.75h.492a.75.75 0 0 1 .75.75v1.617a.5.5 0 0 0 .5.5h.145a2.5 2.5 0 0 1 1.944.929l3.333 4.235c1.294 1.602 2.055 3.553 2.055 5.613v.098c0 .829-.93 1.5-2.188 1.5H4.203c-1.258 0-2.187-.671-2.187-1.5v-.099c0-2.059.76-4.01 2.054-5.612l3.333-4.235a2.5 2.5 0 0 1 1.944-.929h.145a.5.5 0 0 0 .5-.5v-1.617a.75.75 0 0 1 .75-.75h.492a.75.75 0 0 1 .75.75v1.617a.5.5 0 0 0 .5.5h7.032a.5.5 0 0 0 .5-.5v-1.617Z" fill="url(#y)"/></g><g filter="url(#z)"><rect x="14.99" y="17.008" width="2.02" height="2.02" rx=".4" fill="#E3D8EC"/></g><g filter="url(#A)"><rect x="17.99" y="17.008" width="2.02" height="2.02" rx=".4" fill="#E3D8EC"/></g><g filter="url(#B)"><rect x="11.99" y="17.008" width="2.02" height="2.02" rx=".4" fill="#E3D8EC"/></g><g filter="url(#C)"><rect x="14.99" y="20.008" width="2.02" height="2.02" rx=".4" fill="#E3D8EC"/></g><g filter="url(#D)"><rect x="14.99" y="23.008" width="2.02" height="2.02" rx=".4" fill="#E3D8EC"/></g><g filter="url(#E)"><rect x="17.99" y="20.008" width="2.02" height="2.02" rx=".4" fill="#E3D8EC"/></g><g filter="url(#F)"><rect x="17.99" y="23.008" width="2.02" height="2.02" rx=".4" fill="#E3D8EC"/></g><g filter="url(#G)"><rect x="11.99" y="20.008" width="2.02" height="2.02" rx=".4" fill="#E3D8EC"/></g><g filter="url(#H)"><rect x="11.99" y="23.008" width="2.02" height="2.02" rx=".4" fill="#E3D8EC"/></g><g filter="url(#I)"><path d="M23.65 15.05h-3.618l8.936 9.183c0-1.842-.695-3.271-1.042-3.755L23.65 15.05Z" fill="url(#J)"/></g><g filter="url(#K)"><path fill="url(#L)" d="M11.083 11.611h.534v2.436h-.534z"/></g><g filter="url(#M)"><path fill="url(#N)" d="M21.142 11.611h.534v2.436h-.534z"/></g><defs><filter id="a" x="2.016" y="24.209" width="28.619" height="5.822" filterUnits="userSpaceOnUse" color-interpolation-filters="sRGB"><feFlood flood-opacity="0" result="BackgroundImageFix"/><feBlend in="SourceGraphic" in2="BackgroundImageFix" result="shape"/><feColorMatrix in="SourceAlpha" values="0 0 0 0 0 0 0 0 0 0 0 0 0 0 0 0 0 0 127 0" result="hardAlpha"/><feOffset dx=".65" dy="-.65"/><feGaussianBlur stdDeviation=".6"/><feComposite in2="hardAlpha" operator="arithmetic" k2="-1" k3="1"/><feColorMatrix values="0 0 0 0 0.658824 0 0 0 0 0.254902 0 0 0 0 0.298039 0 0 0 1 0"/><feBlend in2="shape" result="effect1_innerShadow_18_19136"/><feColorMatrix in="SourceAlpha" values="0 0 0 0 0 0 0 0 0 0 0 0 0 0 0 0 0 0 127 0" result="hardAlpha"/><feOffset dy="-.25"/><feGaussianBlur stdDeviation=".25"/><feComposite in2="hardAlpha" operator="arithmetic" k2="-1" k3="1"/><feColorMatrix values="0 0 0 0 0.603922 0 0 0 0 0.180392 0 0 0 0 0.364706 0 0 0 1 0"/><feBlend in2="effect1_innerShadow_18_19136" result="effect2_innerShadow_18_19136"/></filter><filter id="d" x="2.172" y="6.594" width="28.672" height="8.391" filterUnits="userSpaceOnUse" color-interpolation-filters="sRGB"><feFlood flood-opacity="0" result="BackgroundImageFix"/><feBlend in="SourceGraphic" in2="BackgroundImageFix" result="shape"/><feColorMatrix in="SourceAlpha" values="0 0 0 0 0 0 0 0 0 0 0 0 0 0 0 0 0 0 127 0" result="hardAlpha"/><feOffset dx="1" dy="-.5"/><feGaussianBlur stdDeviation="1"/><feComposite in2="hardAlpha" operator="arithmetic" k2="-1" k3="1"/><feColorMatrix values="0 0 0 0 0.67451 0 0 0 0 0.254902 0 0 0 0 0.282353 0 0 0 1 0"/><feBlend in2="shape" result="effect1_innerShadow_18_19136"/></filter><filter id="h" x="9.75" y="7.906" width="19.844" height="5.031" filterUnits="userSpaceOnUse" color-interpolation-filters="sRGB"><feFlood flood-opacity="0" result="BackgroundImageFix"/><feBlend in="SourceGraphic" in2="BackgroundImageFix" result="shape"/><feGaussianBlur stdDeviation=".5" result="effect1_foregroundBlur_18_19136"/></filter><filter id="j" x="2.195" y="9.289" width="8.219" height="6.352" filterUnits="userSpaceOnUse" color-interpolation-filters="sRGB"><feFlood flood-opacity="0" result="BackgroundImageFix"/><feBlend in="SourceGraphic" in2="BackgroundImageFix" result="shape"/><feGaussianBlur stdDeviation=".25" result="effect1_foregroundBlur_18_19136"/></filter><filter id="n" x="21.539" y="9.289" width="8.219" height="6.352" filterUnits="userSpaceOnUse" color-interpolation-filters="sRGB"><feFlood flood-opacity="0" result="BackgroundImageFix"/><feBlend in="SourceGraphic" in2="BackgroundImageFix" result="shape"/><feGaussianBlur stdDeviation=".25" result="effect1_foregroundBlur_18_19136"/></filter><filter id="q" x="2.015" y="13.297" width="8.203" height="2.938" filterUnits="userSpaceOnUse" color-interpolation-filters="sRGB"><feFlood flood-opacity="0" result="BackgroundImageFix"/><feBlend in="SourceGraphic" in2="BackgroundImageFix" result="shape"/><feColorMatrix in="SourceAlpha" values="0 0 0 0 0 0 0 0 0 0 0 0 0 0 0 0 0 0 127 0" result="hardAlpha"/><feOffset dy="-.75"/><feGaussianBlur stdDeviation=".375"/><feComposite in2="hardAlpha" operator="arithmetic" k2="-1" k3="1"/><feColorMatrix values="0 0 0 0 0.509804 0 0 0 0 0.121569 0 0 0 0 0.180392 0 0 0 1 0"/><feBlend in2="shape" result="effect1_innerShadow_18_19136"/></filter><filter id="u" x="21.781" y="13.297" width="8.203" height="2.938" filterUnits="userSpaceOnUse" color-interpolation-filters="sRGB"><feFlood flood-opacity="0" result="BackgroundImageFix"/><feBlend in="SourceGraphic" in2="BackgroundImageFix" result="shape"/><feColorMatrix in="SourceAlpha" values="0 0 0 0 0 0 0 0 0 0 0 0 0 0 0 0 0 0 127 0" result="hardAlpha"/><feOffset dy="-.75"/><feGaussianBlur stdDeviation=".375"/><feComposite in2="hardAlpha" operator="arithmetic" k2="-1" k3="1"/><feColorMatrix values="0 0 0 0 0.658824 0 0 0 0 0.133333 0 0 0 0 0.258824 0 0 0 1 0"/><feBlend in2="shape" result="effect1_innerShadow_18_19136"/></filter><filter id="x" x="2.016" y="10.917" width="28.469" height="15.442" filterUnits="userSpaceOnUse" color-interpolation-filters="sRGB"><feFlood flood-opacity="0" result="BackgroundImageFix"/><feBlend in="SourceGraphic" in2="BackgroundImageFix" result="shape"/><feColorMatrix in="SourceAlpha" values="0 0 0 0 0 0 0 0 0 0 0 0 0 0 0 0 0 0 127 0" result="hardAlpha"/><feOffset dx=".5" dy="-.2"/><feGaussianBlur stdDeviation=".5"/><feComposite in2="hardAlpha" operator="arithmetic" k2="-1" k3="1"/><feColorMatrix values="0 0 0 0 0.839216 0 0 0 0 0.0980392 0 0 0 0 0.321569 0 0 0 1 0"/><feBlend in2="shape" result="effect1_innerShadow_18_19136"/></filter><filter id="z" x="14.34" y="16.658" width="3.02" height="3.02" filterUnits="userSpaceOnUse" color-interpolation-filters="sRGB"><feFlood flood-opacity="0" result="BackgroundImageFix"/><feColorMatrix in="SourceAlpha" values="0 0 0 0 0 0 0 0 0 0 0 0 0 0 0 0 0 0 127 0" result="hardAlpha"/><feOffset dx="-.15" dy=".15"/><feGaussianBlur stdDeviation=".25"/><feComposite in2="hardAlpha" operator="out"/><feColorMatrix values="0 0 0 0 0.807843 0 0 0 0 0.152941 0 0 0 0 0.376471 0 0 0 1 0"/><feBlend in2="BackgroundImageFix" result="effect1_dropShadow_18_19136"/><feBlend in="SourceGraphic" in2="effect1_dropShadow_18_19136" result="shape"/><feColorMatrix in="SourceAlpha" values="0 0 0 0 0 0 0 0 0 0 0 0 0 0 0 0 0 0 127 0" result="hardAlpha"/><feOffset dx="-.25" dy=".25"/><feGaussianBlur stdDeviation=".25"/><feComposite in2="hardAlpha" operator="arithmetic" k2="-1" k3="1"/><feColorMatrix values="0 0 0 0 0.980392 0 0 0 0 0.945098 0 0 0 0 0.996078 0 0 0 1 0"/><feBlend in2="shape" result="effect2_innerShadow_18_19136"/><feColorMatrix in="SourceAlpha" values="0 0 0 0 0 0 0 0 0 0 0 0 0 0 0 0 0 0 127 0" result="hardAlpha"/><feOffset dx=".25" dy="-.25"/><feGaussianBlur stdDeviation=".25"/><feComposite in2="hardAlpha" operator="arithmetic" k2="-1" k3="1"/><feColorMatrix values="0 0 0 0 0.764706 0 0 0 0 0.658824 0 0 0 0 0.788235 0 0 0 1 0"/><feBlend in2="effect2_innerShadow_18_19136" result="effect3_innerShadow_18_19136"/></filter><filter id="A" x="17.34" y="16.658" width="3.02" height="3.02" filterUnits="userSpaceOnUse" color-interpolation-filters="sRGB"><feFlood flood-opacity="0" result="BackgroundImageFix"/><feColorMatrix in="SourceAlpha" values="0 0 0 0 0 0 0 0 0 0 0 0 0 0 0 0 0 0 127 0" result="hardAlpha"/><feOffset dx="-.15" dy=".15"/><feGaussianBlur stdDeviation=".25"/><feComposite in2="hardAlpha" operator="out"/><feColorMatrix values="0 0 0 0 0.807843 0 0 0 0 0.152941 0 0 0 0 0.376471 0 0 0 1 0"/><feBlend in2="BackgroundImageFix" result="effect1_dropShadow_18_19136"/><feBlend in="SourceGraphic" in2="effect1_dropShadow_18_19136" result="shape"/><feColorMatrix in="SourceAlpha" values="0 0 0 0 0 0 0 0 0 0 0 0 0 0 0 0 0 0 127 0" result="hardAlpha"/><feOffset dx="-.25" dy=".25"/><feGaussianBlur stdDeviation=".25"/><feComposite in2="hardAlpha" operator="arithmetic" k2="-1" k3="1"/><feColorMatrix values="0 0 0 0 0.980392 0 0 0 0 0.945098 0 0 0 0 0.996078 0 0 0 1 0"/><feBlend in2="shape" result="effect2_innerShadow_18_19136"/><feColorMatrix in="SourceAlpha" values="0 0 0 0 0 0 0 0 0 0 0 0 0 0 0 0 0 0 127 0" result="hardAlpha"/><feOffset dx=".25" dy="-.25"/><feGaussianBlur stdDeviation=".25"/><feComposite in2="hardAlpha" operator="arithmetic" k2="-1" k3="1"/><feColorMatrix values="0 0 0 0 0.764706 0 0 0 0 0.658824 0 0 0 0 0.788235 0 0 0 1 0"/><feBlend in2="effect2_innerShadow_18_19136" result="effect3_innerShadow_18_19136"/></filter><filter id="B" x="11.34" y="16.658" width="3.02" height="3.02" filterUnits="userSpaceOnUse" color-interpolation-filters="sRGB"><feFlood flood-opacity="0" result="BackgroundImageFix"/><feColorMatrix in="SourceAlpha" values="0 0 0 0 0 0 0 0 0 0 0 0 0 0 0 0 0 0 127 0" result="hardAlpha"/><feOffset dx="-.15" dy=".15"/><feGaussianBlur stdDeviation=".25"/><feComposite in2="hardAlpha" operator="out"/><feColorMatrix values="0 0 0 0 0.807843 0 0 0 0 0.152941 0 0 0 0 0.376471 0 0 0 1 0"/><feBlend in2="BackgroundImageFix" result="effect1_dropShadow_18_19136"/><feBlend in="SourceGraphic" in2="effect1_dropShadow_18_19136" result="shape"/><feColorMatrix in="SourceAlpha" values="0 0 0 0 0 0 0 0 0 0 0 0 0 0 0 0 0 0 127 0" result="hardAlpha"/><feOffset dx="-.25" dy=".25"/><feGaussianBlur stdDeviation=".25"/><feComposite in2="hardAlpha" operator="arithmetic" k2="-1" k3="1"/><feColorMatrix values="0 0 0 0 0.980392 0 0 0 0 0.945098 0 0 0 0 0.996078 0 0 0 1 0"/><feBlend in2="shape" result="effect2_innerShadow_18_19136"/><feColorMatrix in="SourceAlpha" values="0 0 0 0 0 0 0 0 0 0 0 0 0 0 0 0 0 0 127 0" result="hardAlpha"/><feOffset dx=".25" dy="-.25"/><feGaussianBlur stdDeviation=".25"/><feComposite in2="hardAlpha" operator="arithmetic" k2="-1" k3="1"/><feColorMatrix values="0 0 0 0 0.764706 0 0 0 0 0.658824 0 0 0 0 0.788235 0 0 0 1 0"/><feBlend in2="effect2_innerShadow_18_19136" result="effect3_innerShadow_18_19136"/></filter><filter id="C" x="14.34" y="19.658" width="3.02" height="3.02" filterUnits="userSpaceOnUse" color-interpolation-filters="sRGB"><feFlood flood-opacity="0" result="BackgroundImageFix"/><feColorMatrix in="SourceAlpha" values="0 0 0 0 0 0 0 0 0 0 0 0 0 0 0 0 0 0 127 0" result="hardAlpha"/><feOffset dx="-.15" dy=".15"/><feGaussianBlur stdDeviation=".25"/><feComposite in2="hardAlpha" operator="out"/><feColorMatrix values="0 0 0 0 0.807843 0 0 0 0 0.152941 0 0 0 0 0.376471 0 0 0 1 0"/><feBlend in2="BackgroundImageFix" result="effect1_dropShadow_18_19136"/><feBlend in="SourceGraphic" in2="effect1_dropShadow_18_19136" result="shape"/><feColorMatrix in="SourceAlpha" values="0 0 0 0 0 0 0 0 0 0 0 0 0 0 0 0 0 0 127 0" result="hardAlpha"/><feOffset dx="-.25" dy=".25"/><feGaussianBlur stdDeviation=".25"/><feComposite in2="hardAlpha" operator="arithmetic" k2="-1" k3="1"/><feColorMatrix values="0 0 0 0 0.980392 0 0 0 0 0.945098 0 0 0 0 0.996078 0 0 0 1 0"/><feBlend in2="shape" result="effect2_innerShadow_18_19136"/><feColorMatrix in="SourceAlpha" values="0 0 0 0 0 0 0 0 0 0 0 0 0 0 0 0 0 0 127 0" result="hardAlpha"/><feOffset dx=".25" dy="-.25"/><feGaussianBlur stdDeviation=".25"/><feComposite in2="hardAlpha" operator="arithmetic" k2="-1" k3="1"/><feColorMatrix values="0 0 0 0 0.764706 0 0 0 0 0.658824 0 0 0 0 0.788235 0 0 0 1 0"/><feBlend in2="effect2_innerShadow_18_19136" result="effect3_innerShadow_18_19136"/></filter><filter id="D" x="14.34" y="22.658" width="3.02" height="3.02" filterUnits="userSpaceOnUse" color-interpolation-filters="sRGB"><feFlood flood-opacity="0" result="BackgroundImageFix"/><feColorMatrix in="SourceAlpha" values="0 0 0 0 0 0 0 0 0 0 0 0 0 0 0 0 0 0 127 0" result="hardAlpha"/><feOffset dx="-.15" dy=".15"/><feGaussianBlur stdDeviation=".25"/><feComposite in2="hardAlpha" operator="out"/><feColorMatrix values="0 0 0 0 0.768627 0 0 0 0 0.117647 0 0 0 0 0.345098 0 0 0 1 0"/><feBlend in2="BackgroundImageFix" result="effect1_dropShadow_18_19136"/><feBlend in="SourceGraphic" in2="effect1_dropShadow_18_19136" result="shape"/><feColorMatrix in="SourceAlpha" values="0 0 0 0 0 0 0 0 0 0 0 0 0 0 0 0 0 0 127 0" result="hardAlpha"/><feOffset dx="-.25" dy=".25"/><feGaussianBlur stdDeviation=".25"/><feComposite in2="hardAlpha" operator="arithmetic" k2="-1" k3="1"/><feColorMatrix values="0 0 0 0 0.980392 0 0 0 0 0.945098 0 0 0 0 0.996078 0 0 0 1 0"/><feBlend in2="shape" result="effect2_innerShadow_18_19136"/><feColorMatrix in="SourceAlpha" values="0 0 0 0 0 0 0 0 0 0 0 0 0 0 0 0 0 0 127 0" result="hardAlpha"/><feOffset dx=".25" dy="-.25"/><feGaussianBlur stdDeviation=".25"/><feComposite in2="hardAlpha" operator="arithmetic" k2="-1" k3="1"/><feColorMatrix values="0 0 0 0 0.764706 0 0 0 0 0.658824 0 0 0 0 0.788235 0 0 0 1 0"/><feBlend in2="effect2_innerShadow_18_19136" result="effect3_innerShadow_18_19136"/></filter><filter id="E" x="17.34" y="19.658" width="3.02" height="3.02" filterUnits="userSpaceOnUse" color-interpolation-filters="sRGB"><feFlood flood-opacity="0" result="BackgroundImageFix"/><feColorMatrix in="SourceAlpha" values="0 0 0 0 0 0 0 0 0 0 0 0 0 0 0 0 0 0 127 0" result="hardAlpha"/><feOffset dx="-.15" dy=".15"/><feGaussianBlur stdDeviation=".25"/><feComposite in2="hardAlpha" operator="out"/><feColorMatrix values="0 0 0 0 0.807843 0 0 0 0 0.152941 0 0 0 0 0.376471 0 0 0 1 0"/><feBlend in2="BackgroundImageFix" result="effect1_dropShadow_18_19136"/><feBlend in="SourceGraphic" in2="effect1_dropShadow_18_19136" result="shape"/><feColorMatrix in="SourceAlpha" values="0 0 0 0 0 0 0 0 0 0 0 0 0 0 0 0 0 0 127 0" result="hardAlpha"/><feOffset dx="-.25" dy=".25"/><feGaussianBlur stdDeviation=".25"/><feComposite in2="hardAlpha" operator="arithmetic" k2="-1" k3="1"/><feColorMatrix values="0 0 0 0 0.980392 0 0 0 0 0.945098 0 0 0 0 0.996078 0 0 0 1 0"/><feBlend in2="shape" result="effect2_innerShadow_18_19136"/><feColorMatrix in="SourceAlpha" values="0 0 0 0 0 0 0 0 0 0 0 0 0 0 0 0 0 0 127 0" result="hardAlpha"/><feOffset dx=".25" dy="-.25"/><feGaussianBlur stdDeviation=".25"/><feComposite in2="hardAlpha" operator="arithmetic" k2="-1" k3="1"/><feColorMatrix values="0 0 0 0 0.764706 0 0 0 0 0.658824 0 0 0 0 0.788235 0 0 0 1 0"/><feBlend in2="effect2_innerShadow_18_19136" result="effect3_innerShadow_18_19136"/></filter><filter id="F" x="17.34" y="22.658" width="3.02" height="3.02" filterUnits="userSpaceOnUse" color-interpolation-filters="sRGB"><feFlood flood-opacity="0" result="BackgroundImageFix"/><feColorMatrix in="SourceAlpha" values="0 0 0 0 0 0 0 0 0 0 0 0 0 0 0 0 0 0 127 0" result="hardAlpha"/><feOffset dx="-.15" dy=".15"/><feGaussianBlur stdDeviation=".25"/><feComposite in2="hardAlpha" operator="out"/><feColorMatrix values="0 0 0 0 0.768627 0 0 0 0 0.117647 0 0 0 0 0.345098 0 0 0 1 0"/><feBlend in2="BackgroundImageFix" result="effect1_dropShadow_18_19136"/><feBlend in="SourceGraphic" in2="effect1_dropShadow_18_19136" result="shape"/><feColorMatrix in="SourceAlpha" values="0 0 0 0 0 0 0 0 0 0 0 0 0 0 0 0 0 0 127 0" result="hardAlpha"/><feOffset dx="-.25" dy=".25"/><feGaussianBlur stdDeviation=".25"/><feComposite in2="hardAlpha" operator="arithmetic" k2="-1" k3="1"/><feColorMatrix values="0 0 0 0 0.980392 0 0 0 0 0.945098 0 0 0 0 0.996078 0 0 0 1 0"/><feBlend in2="shape" result="effect2_innerShadow_18_19136"/><feColorMatrix in="SourceAlpha" values="0 0 0 0 0 0 0 0 0 0 0 0 0 0 0 0 0 0 127 0" result="hardAlpha"/><feOffset dx=".25" dy="-.25"/><feGaussianBlur stdDeviation=".25"/><feComposite in2="hardAlpha" operator="arithmetic" k2="-1" k3="1"/><feColorMatrix values="0 0 0 0 0.764706 0 0 0 0 0.658824 0 0 0 0 0.788235 0 0 0 1 0"/><feBlend in2="effect2_innerShadow_18_19136" result="effect3_innerShadow_18_19136"/></filter><filter id="G" x="11.34" y="19.658" width="3.02" height="3.02" filterUnits="userSpaceOnUse" color-interpolation-filters="sRGB"><feFlood flood-opacity="0" result="BackgroundImageFix"/><feColorMatrix in="SourceAlpha" values="0 0 0 0 0 0 0 0 0 0 0 0 0 0 0 0 0 0 127 0" result="hardAlpha"/><feOffset dx="-.15" dy=".15"/><feGaussianBlur stdDeviation=".25"/><feComposite in2="hardAlpha" operator="out"/><feColorMatrix values="0 0 0 0 0.807843 0 0 0 0 0.152941 0 0 0 0 0.376471 0 0 0 1 0"/><feBlend in2="BackgroundImageFix" result="effect1_dropShadow_18_19136"/><feBlend in="SourceGraphic" in2="effect1_dropShadow_18_19136" result="shape"/><feColorMatrix in="SourceAlpha" values="0 0 0 0 0 0 0 0 0 0 0 0 0 0 0 0 0 0 127 0" result="hardAlpha"/><feOffset dx="-.25" dy=".25"/><feGaussianBlur stdDeviation=".25"/><feComposite in2="hardAlpha" operator="arithmetic" k2="-1" k3="1"/><feColorMatrix values="0 0 0 0 0.980392 0 0 0 0 0.945098 0 0 0 0 0.996078 0 0 0 1 0"/><feBlend in2="shape" result="effect2_innerShadow_18_19136"/><feColorMatrix in="SourceAlpha" values="0 0 0 0 0 0 0 0 0 0 0 0 0 0 0 0 0 0 127 0" result="hardAlpha"/><feOffset dx=".25" dy="-.25"/><feGaussianBlur stdDeviation=".25"/><feComposite in2="hardAlpha" operator="arithmetic" k2="-1" k3="1"/><feColorMatrix values="0 0 0 0 0.764706 0 0 0 0 0.658824 0 0 0 0 0.788235 0 0 0 1 0"/><feBlend in2="effect2_innerShadow_18_19136" result="effect3_innerShadow_18_19136"/></filter><filter id="H" x="11.34" y="22.658" width="3.02" height="3.02" filterUnits="userSpaceOnUse" color-interpolation-filters="sRGB"><feFlood flood-opacity="0" result="BackgroundImageFix"/><feColorMatrix in="SourceAlpha" values="0 0 0 0 0 0 0 0 0 0 0 0 0 0 0 0 0 0 127 0" result="hardAlpha"/><feOffset dx="-.15" dy=".15"/><feGaussianBlur stdDeviation=".25"/><feComposite in2="hardAlpha" operator="out"/><feColorMatrix values="0 0 0 0 0.768627 0 0 0 0 0.117647 0 0 0 0 0.345098 0 0 0 1 0"/><feBlend in2="BackgroundImageFix" result="effect1_dropShadow_18_19136"/><feBlend in="SourceGraphic" in2="effect1_dropShadow_18_19136" result="shape"/><feColorMatrix in="SourceAlpha" values="0 0 0 0 0 0 0 0 0 0 0 0 0 0 0 0 0 0 127 0" result="hardAlpha"/><feOffset dx="-.25" dy=".25"/><feGaussianBlur stdDeviation=".25"/><feComposite in2="hardAlpha" operator="arithmetic" k2="-1" k3="1"/><feColorMatrix values="0 0 0 0 0.980392 0 0 0 0 0.945098 0 0 0 0 0.996078 0 0 0 1 0"/><feBlend in2="shape" result="effect2_innerShadow_18_19136"/><feColorMatrix in="SourceAlpha" values="0 0 0 0 0 0 0 0 0 0 0 0 0 0 0 0 0 0 127 0" result="hardAlpha"/><feOffset dx=".25" dy="-.25"/><feGaussianBlur stdDeviation=".25"/><feComposite in2="hardAlpha" operator="arithmetic" k2="-1" k3="1"/><feColorMatrix values="0 0 0 0 0.764706 0 0 0 0 0.658824 0 0 0 0 0.788235 0 0 0 1 0"/><feBlend in2="effect2_innerShadow_18_19136" result="effect3_innerShadow_18_19136"/></filter><filter id="I" x="18.032" y="13.051" width="12.935" height="13.182" filterUnits="userSpaceOnUse" color-interpolation-filters="sRGB"><feFlood flood-opacity="0" result="BackgroundImageFix"/><feBlend in="SourceGraphic" in2="BackgroundImageFix" result="shape"/><feGaussianBlur stdDeviation="1" result="effect1_foregroundBlur_18_19136"/></filter><filter id="K" x="10.583" y="11.111" width="1.534" height="3.436" filterUnits="userSpaceOnUse" color-interpolation-filters="sRGB"><feFlood flood-opacity="0" result="BackgroundImageFix"/><feBlend in="SourceGraphic" in2="BackgroundImageFix" result="shape"/><feGaussianBlur stdDeviation=".25" result="effect1_foregroundBlur_18_19136"/></filter><filter id="M" x="20.642" y="11.111" width="1.534" height="3.436" filterUnits="userSpaceOnUse" color-interpolation-filters="sRGB"><feFlood flood-opacity="0" result="BackgroundImageFix"/><feBlend in="SourceGraphic" in2="BackgroundImageFix" result="shape"/><feGaussianBlur stdDeviation=".25" result="effect1_foregroundBlur_18_19136"/></filter><linearGradient id="b" x1="16" y1="26.867" x2="16" y2="30.031" gradientUnits="userSpaceOnUse"><stop stop-color="#C53956"/><stop offset="1" stop-color="#C53555"/></linearGradient><linearGradient id="c" x1="29.985" y1="28.009" x2="28.309" y2="28.009" gradientUnits="userSpaceOnUse"><stop offset=".215" stop-color="#DD5D6D"/><stop offset="1" stop-color="#CA3A57" stop-opacity="0"/></linearGradient><linearGradient id="e" x1="16.008" y1="8.313" x2="16.008" y2="14.984" gradientUnits="userSpaceOnUse"><stop stop-color="#E6307B"/><stop offset="1" stop-color="#C02946"/></linearGradient><linearGradient id="i" x1="20.031" y1="8.156" x2="19.672" y2="11.063" gradientUnits="userSpaceOnUse"><stop offset=".392" stop-color="#EE507F"/><stop offset="1" stop-color="#EE507F" stop-opacity="0"/></linearGradient><linearGradient id="r" x1="7.969" y1="15.531" x2="2.015" y2="15.531" gradientUnits="userSpaceOnUse"><stop stop-color="#A11E45"/><stop offset="1" stop-color="#98484C"/></linearGradient><linearGradient id="t" x1="6.117" y1="14.047" x2="6.117" y2="14.438" gradientUnits="userSpaceOnUse"><stop stop-color="#B1203E"/><stop offset="1" stop-color="#B1203E" stop-opacity="0"/></linearGradient><linearGradient id="w" x1="25.883" y1="14.047" x2="25.883" y2="14.438" gradientUnits="userSpaceOnUse"><stop stop-color="#B1203E"/><stop offset="1" stop-color="#B1203E" stop-opacity="0"/></linearGradient><linearGradient id="y" x1="16" y1="13.938" x2="16" y2="25.375" gradientUnits="userSpaceOnUse"><stop stop-color="#FA2E92"/><stop offset="1" stop-color="#EC2C6A"/></linearGradient><linearGradient id="J" x1="22.006" y1="15.242" x2="29.324" y2="24.397" gradientUnits="userSpaceOnUse"><stop stop-color="#FF449D"/><stop offset="1" stop-color="#FF6590"/></linearGradient><linearGradient id="L" x1="11.351" y1="11.611" x2="11.351" y2="14.749" gradientUnits="userSpaceOnUse"><stop offset=".444" stop-color="#FF64B1"/><stop offset="1" stop-color="#FF64B1" stop-opacity="0"/></linearGradient><linearGradient id="N" x1="21.41" y1="11.611" x2="21.41" y2="14.749" gradientUnits="userSpaceOnUse"><stop offset=".444" stop-color="#FF64B1"/><stop offset="1" stop-color="#FF64B1" stop-opacity="0"/></linearGradient><radialGradient id="f" cx="0" cy="0" r="1" gradientUnits="userSpaceOnUse" gradientTransform="matrix(0 2.5 -9.60156 0 16.008 13.188)"><stop offset=".209" stop-color="#881D3B"/><stop offset="1" stop-color="#BD0639" stop-opacity="0"/></radialGradient><radialGradient id="g" cx="0" cy="0" r="1" gradientUnits="userSpaceOnUse" gradientTransform="rotate(113.051 .422 10.026) scale(3.1924 2.06567)"><stop stop-color="#8A011B"/><stop offset="1" stop-color="#CA354D" stop-opacity="0"/></radialGradient><radialGradient id="k" cx="0" cy="0" r="1" gradientUnits="userSpaceOnUse" gradientTransform="rotate(-90 10.49 4.458) scale(4.9714)"><stop offset=".123" stop-color="#BB2844"/><stop offset="1" stop-color="#BB2844" stop-opacity="0"/></radialGradient><radialGradient id="l" cx="0" cy="0" r="1" gradientUnits="userSpaceOnUse" gradientTransform="matrix(0 -3.34375 1.40625 0 7.813 14.375)"><stop stop-color="#DE596C"/><stop offset="1" stop-color="#DE596C" stop-opacity="0"/></radialGradient><radialGradient id="m" cx="0" cy="0" r="1" gradientUnits="userSpaceOnUse" gradientTransform="matrix(-1.15625 1.40624 -3.73273 -3.06915 8.906 10.531)"><stop stop-color="#E15875"/><stop offset="1" stop-color="#E15875" stop-opacity="0"/></radialGradient><radialGradient id="o" cx="0" cy="0" r="1" gradientUnits="userSpaceOnUse" gradientTransform="rotate(-67.1 22.87 -10.956) scale(4.77502)"><stop stop-color="#BF0C35"/><stop offset="1" stop-color="#BB2844" stop-opacity="0"/></radialGradient><radialGradient id="p" cx="0" cy="0" r="1" gradientUnits="userSpaceOnUse" gradientTransform="matrix(0 -3.65625 4.21875 0 27.406 14.219)"><stop offset=".103" stop-color="#E25B6E"/><stop offset="1" stop-color="#DE596C" stop-opacity="0"/></radialGradient><radialGradient id="s" cx="0" cy="0" r="1" gradientUnits="userSpaceOnUse" gradientTransform="matrix(0 1.64063 -4.5 0 7.5 13.5)"><stop offset=".257" stop-color="#C25D6C"/><stop offset="1" stop-color="#C25D6C" stop-opacity="0"/></radialGradient><radialGradient id="v" cx="0" cy="0" r="1" gradientUnits="userSpaceOnUse" gradientTransform="matrix(0 1.09375 -4.10156 0 27.735 14.047)"><stop offset=".257" stop-color="#CE6272"/><stop offset="1" stop-color="#CE6272" stop-opacity="0"/></radialGradient></defs></svg>