<svg width="32" height="32" fill="none" xmlns="http://www.w3.org/2000/svg"><g filter="url(#a)"><path d="M20.5 26.55a3.268 3.268 0 0 1-6.536 0v-3.76c0-.321.022-.641.072-.96a6.19 6.19 0 0 0 .047-.35c.036-.369-.008-.85-.258-1.173l.598-.576a9.28 9.28 0 0 1-5.05-8.275c0-.979.15-1.922.43-2.808l.99-6.466h8.051v.002c4.973.107 8.962 3.35 8.962 9.272 0 3.481-1.667 6.284-4.189 7.864l.006.005c-.172.12-.374.24-.591.371l-.002.001c-.715.429-1.59.953-2.05 1.81-.4.743-.478 1.949-.478 2.508l-.002-.001v2.536Z" fill="url(#b)"/><path d="M20.5 26.55a3.268 3.268 0 0 1-6.536 0v-3.76c0-.321.022-.641.072-.96a6.19 6.19 0 0 0 .047-.35c.036-.369-.008-.85-.258-1.173l.598-.576a9.28 9.28 0 0 1-5.05-8.275c0-.979.15-1.922.43-2.808l.99-6.466h8.051v.002c4.973.107 8.962 3.35 8.962 9.272 0 3.481-1.667 6.284-4.189 7.864l.006.005c-.172.12-.374.24-.591.371l-.002.001c-.715.429-1.59.953-2.05 1.81-.4.743-.478 1.949-.478 2.508l-.002-.001v2.536Z" fill="url(#c)"/><path d="M20.5 26.55a3.268 3.268 0 0 1-6.536 0v-3.76c0-.321.022-.641.072-.96a6.19 6.19 0 0 0 .047-.35c.036-.369-.008-.85-.258-1.173l.598-.576a9.28 9.28 0 0 1-5.05-8.275c0-.979.15-1.922.43-2.808l.99-6.466h8.051v.002c4.973.107 8.962 3.35 8.962 9.272 0 3.481-1.667 6.284-4.189 7.864l.006.005c-.172.12-.374.24-.591.371l-.002.001c-.715.429-1.59.953-2.05 1.81-.4.743-.478 1.949-.478 2.508l-.002-.001v2.536Z" fill="url(#d)"/></g><path d="M20.5 26.55a3.268 3.268 0 0 1-6.536 0v-3.76c0-.321.022-.641.072-.96a6.19 6.19 0 0 0 .047-.35c.036-.369-.008-.85-.258-1.173l.598-.576a9.28 9.28 0 0 1-5.05-8.275c0-.979.15-1.922.43-2.808l.99-6.466h8.051v.002c4.973.107 8.962 3.35 8.962 9.272 0 3.481-1.667 6.284-4.189 7.864l.006.005c-.172.12-.374.24-.591.371l-.002.001c-.715.429-1.59.953-2.05 1.81-.4.743-.478 1.949-.478 2.508l-.002-.001v2.536Z" fill="url(#e)"/><path d="M20.5 26.55a3.268 3.268 0 0 1-6.536 0v-3.76c0-.321.022-.641.072-.96a6.19 6.19 0 0 0 .047-.35c.036-.369-.008-.85-.258-1.173l.598-.576a9.28 9.28 0 0 1-5.05-8.275c0-.979.15-1.922.43-2.808l.99-6.466h8.051v.002c4.973.107 8.962 3.35 8.962 9.272 0 3.481-1.667 6.284-4.189 7.864l.006.005c-.172.12-.374.24-.591.371l-.002.001c-.715.429-1.59.953-2.05 1.81-.4.743-.478 1.949-.478 2.508l-.002-.001v2.536Z" fill="url(#f)"/><path d="M20.5 26.55a3.268 3.268 0 0 1-6.536 0v-3.76c0-.321.022-.641.072-.96a6.19 6.19 0 0 0 .047-.35c.036-.369-.008-.85-.258-1.173l.598-.576a9.28 9.28 0 0 1-5.05-8.275c0-.979.15-1.922.43-2.808l.99-6.466h8.051v.002c4.973.107 8.962 3.35 8.962 9.272 0 3.481-1.667 6.284-4.189 7.864l.006.005c-.172.12-.374.24-.591.371l-.002.001c-.715.429-1.59.953-2.05 1.81-.4.743-.478 1.949-.478 2.508l-.002-.001v2.536Z" fill="url(#g)"/><g filter="url(#h)"><path d="M8.24 5.919c0 .468.122.907.336 1.283-.855.428-1.445 1.34-1.445 2.394 0 .82.356 1.553.917 2.04a2.637 2.637 0 0 0-.878 1.98c0 1.039.585 1.936 1.431 2.35a2.645 2.645 0 0 0-.618 1.71c0 1.431 1.113 2.591 2.486 2.591h2.753c1.373 0 2.485-1.16 2.485-2.59a2.63 2.63 0 0 0-.89-1.988 2.631 2.631 0 0 0 .99-2.073c0-.803-.349-1.52-.897-1.997.55-.486.898-1.212.898-2.023 0-.728-.281-1.387-.736-1.867.454-.458.736-1.1.736-1.81 0-1.393-1.083-2.521-2.419-2.521h-2.73c-1.337 0-2.42 1.128-2.42 2.52Z" fill="#C28769"/></g><g filter="url(#i)"><path d="M22.984 18.983c-3.643-2.24-7.3-.667-8.247 0l-.84-1.08c5.38-2.563 8.246-.36 9.087 1.08Z" fill="#C9867F"/></g><rect x="6.896" y="21.013" width="5.784" height="8.988" rx="2.892" transform="rotate(-90 6.896 21.013)" fill="url(#j)"/><rect x="6.896" y="21.013" width="5.784" height="8.988" rx="2.892" transform="rotate(-90 6.896 21.013)" fill="url(#k)"/><rect x="6.896" y="21.013" width="5.784" height="8.988" rx="2.892" transform="rotate(-90 6.896 21.013)" fill="url(#l)"/><rect x="6.896" y="21.013" width="5.784" height="8.988" rx="2.892" transform="rotate(-90 6.896 21.013)" fill="url(#m)"/><rect x="6.896" y="21.013" width="5.784" height="8.988" rx="2.892" transform="rotate(-90 6.896 21.013)" fill="url(#n)"/><rect x="7.194" y="7.81" width="5.629" height="8.806" rx="2.814" transform="rotate(-90 7.194 7.81)" fill="url(#o)"/><rect x="7.194" y="7.81" width="5.629" height="8.806" rx="2.814" transform="rotate(-90 7.194 7.81)" fill="url(#p)"/><rect x="7.194" y="7.81" width="5.629" height="8.806" rx="2.814" transform="rotate(-90 7.194 7.81)" fill="url(#q)"/><rect x="7.194" y="7.81" width="5.629" height="8.806" rx="2.814" transform="rotate(-90 7.194 7.81)" fill="url(#r)"/><rect x="5.904" y="12.064" width="5.927" height="10.097" rx="2.91" transform="rotate(-90 5.904 12.064)" fill="url(#s)"/><rect x="5.904" y="12.064" width="5.927" height="10.097" rx="2.91" transform="rotate(-90 5.904 12.064)" fill="url(#t)"/><rect x="5.904" y="12.064" width="5.927" height="10.097" rx="2.91" transform="rotate(-90 5.904 12.064)" fill="url(#u)"/><rect x="5.904" y="12.064" width="5.927" height="10.097" rx="2.91" transform="rotate(-90 5.904 12.064)" fill="url(#v)"/><rect x="5.949" y="16.486" width="5.797" height="10.051" rx="2.899" transform="rotate(-90 5.949 16.486)" fill="url(#w)"/><rect x="5.949" y="16.486" width="5.797" height="10.051" rx="2.899" transform="rotate(-90 5.949 16.486)" fill="url(#x)"/><rect x="5.949" y="16.486" width="5.797" height="10.051" rx="2.899" transform="rotate(-90 5.949 16.486)" fill="url(#y)"/><rect x="5.949" y="16.486" width="5.797" height="10.051" rx="2.899" transform="rotate(-90 5.949 16.486)" fill="url(#z)"/><defs><radialGradient id="c" cx="0" cy="0" r="1" gradientUnits="userSpaceOnUse" gradientTransform="rotate(90.785 -3.306 18.257) scale(6.84439 2.83792)"><stop stop-color="#BD7B6C"/><stop offset="1" stop-color="#BD7B6C" stop-opacity="0"/></radialGradient><radialGradient id="d" cx="0" cy="0" r="1" gradientUnits="userSpaceOnUse" gradientTransform="rotate(-63.938 22.844 -6.436) scale(7.24207 13.4771)"><stop stop-color="#D9998E"/><stop offset="1" stop-color="#D9998E" stop-opacity="0"/></radialGradient><radialGradient id="e" cx="0" cy="0" r="1" gradientUnits="userSpaceOnUse" gradientTransform="matrix(-6.09874 3.46893 -3.9808 -6.99866 24.688 7.567)"><stop stop-color="#FFD2AA"/><stop offset="1" stop-color="#FFD2AA" stop-opacity="0"/></radialGradient><radialGradient id="f" cx="0" cy="0" r="1" gradientUnits="userSpaceOnUse" gradientTransform="matrix(4.64396 0 0 9.96517 20.089 26.084)"><stop stop-color="#FDC5A5"/><stop offset="1" stop-color="#FDC5A5" stop-opacity="0"/></radialGradient><radialGradient id="g" cx="0" cy="0" r="1" gradientUnits="userSpaceOnUse" gradientTransform="matrix(0 20.0228 -12.9389 0 17.48 10.215)"><stop offset=".902" stop-color="#BA738B" stop-opacity="0"/><stop offset="1" stop-color="#BA738B"/></radialGradient><radialGradient id="l" cx="0" cy="0" r="1" gradientUnits="userSpaceOnUse" gradientTransform="matrix(0 -2.58086 2.00356 0 10.449 28.655)"><stop stop-color="#F9C6AA"/><stop offset="1" stop-color="#F9C6AA" stop-opacity="0"/></radialGradient><radialGradient id="m" cx="0" cy="0" r="1" gradientUnits="userSpaceOnUse" gradientTransform="rotate(-91.353 18.727 9.384) scale(7.31765 8.00427)"><stop offset=".808" stop-color="#DBA188" stop-opacity="0"/><stop offset="1" stop-color="#DBA188"/></radialGradient><radialGradient id="n" cx="0" cy="0" r="1" gradientUnits="userSpaceOnUse" gradientTransform="matrix(-.9313 0 0 -4.89838 11.409 24.948)"><stop stop-color="#BC7761"/><stop offset="1" stop-color="#BC7761" stop-opacity="0"/></radialGradient><radialGradient id="p" cx="0" cy="0" r="1" gradientUnits="userSpaceOnUse" gradientTransform="matrix(1.06838 0 0 4.40184 8.078 12.125)"><stop stop-color="#C58C65"/><stop offset="1" stop-color="#C58C65" stop-opacity="0"/></radialGradient><radialGradient id="q" cx="0" cy="0" r="1" gradientUnits="userSpaceOnUse" gradientTransform="matrix(0 -2.78495 2.38236 0 10.98 14.998)"><stop stop-color="#FFD2AB"/><stop offset="1" stop-color="#FFD2AB" stop-opacity="0"/></radialGradient><radialGradient id="r" cx="0" cy="0" r="1" gradientUnits="userSpaceOnUse" gradientTransform="rotate(-91.344 12.32 2.6) scale(7.16983 7.78893)"><stop offset=".808" stop-color="#D8A385" stop-opacity="0"/><stop offset="1" stop-color="#D8A385"/></radialGradient><radialGradient id="t" cx="0" cy="0" r="1" gradientUnits="userSpaceOnUse" gradientTransform="matrix(1.125 0 0 5.04687 6.835 17.011)"><stop stop-color="#D59877"/><stop offset="1" stop-color="#D59877" stop-opacity="0"/></radialGradient><radialGradient id="u" cx="0" cy="0" r="1" gradientUnits="userSpaceOnUse" gradientTransform="matrix(0 -2.68226 2.10732 0 9.43 20.227)"><stop stop-color="#FFD1AB"/><stop offset="1" stop-color="#FFD1AB" stop-opacity="0"/></radialGradient><radialGradient id="v" cx="0" cy="0" r="1" gradientUnits="userSpaceOnUse" gradientTransform="matrix(-.17705 -8.21822 8.20018 -.17667 8.867 20.282)"><stop offset=".808" stop-color="#DBA486" stop-opacity="0"/><stop offset="1" stop-color="#DBA486"/></radialGradient><radialGradient id="x" cx="0" cy="0" r="1" gradientUnits="userSpaceOnUse" gradientTransform="matrix(2.38035 0 0 7.9345 5.694 20.031)"><stop stop-color="#BD7B81"/><stop offset="1" stop-color="#BD7B81" stop-opacity="0"/></radialGradient><radialGradient id="y" cx="0" cy="0" r="1" gradientUnits="userSpaceOnUse" gradientTransform="matrix(0 -2.6702 2.06121 0 9.398 24.613)"><stop stop-color="#FFD0AC"/><stop offset="1" stop-color="#FFD0AC" stop-opacity="0"/></radialGradient><radialGradient id="z" cx="0" cy="0" r="1" gradientUnits="userSpaceOnUse" gradientTransform="rotate(-91.213 16.5 8.003) scale(8.1831 8.02265)"><stop offset=".808" stop-color="#DCA488" stop-opacity="0"/><stop offset="1" stop-color="#DCA488"/></radialGradient><linearGradient id="b" x1="26.78" y1="8.105" x2="12.286" y2="29.819" gradientUnits="userSpaceOnUse"><stop stop-color="#F8C499"/><stop offset="1" stop-color="#DCA08E"/></linearGradient><linearGradient id="j" x1="9.788" y1="21.013" x2="9.788" y2="30" gradientUnits="userSpaceOnUse"><stop stop-color="#C48D7B"/><stop offset="1" stop-color="#EDB895"/></linearGradient><linearGradient id="k" x1="6.543" y1="25.506" x2="8.42" y2="25.506" gradientUnits="userSpaceOnUse"><stop stop-color="#B67186"/><stop offset="1" stop-color="#B67186" stop-opacity="0"/></linearGradient><linearGradient id="o" x1="8.538" y1="8.718" x2="10.883" y2="15.823" gradientUnits="userSpaceOnUse"><stop stop-color="#CB9779"/><stop offset="1" stop-color="#F7C59B"/></linearGradient><linearGradient id="s" x1="7.319" y1="13.105" x2="10.194" y2="21.105" gradientUnits="userSpaceOnUse"><stop stop-color="#CB9879"/><stop offset="1" stop-color="#FAC79C"/></linearGradient><linearGradient id="w" x1="8.847" y1="16.486" x2="8.847" y2="25.515" gradientUnits="userSpaceOnUse"><stop stop-color="#C99479"/><stop offset="1" stop-color="#F7BF96"/></linearGradient><filter id="a" x="9.373" y="2.182" width="18.933" height="27.637" filterUnits="userSpaceOnUse" color-interpolation-filters="sRGB"><feFlood flood-opacity="0" result="BackgroundImageFix"/><feBlend in="SourceGraphic" in2="BackgroundImageFix" result="shape"/><feColorMatrix in="SourceAlpha" values="0 0 0 0 0 0 0 0 0 0 0 0 0 0 0 0 0 0 127 0" result="hardAlpha"/><feOffset dx=".5"/><feGaussianBlur stdDeviation=".5"/><feComposite in2="hardAlpha" operator="arithmetic" k2="-1" k3="1"/><feColorMatrix values="0 0 0 0 0.839216 0 0 0 0 0.698039 0 0 0 0 0.572549 0 0 0 1 0"/><feBlend in2="shape" result="effect1_innerShadow_20020_3079"/></filter><filter id="h" x="5.131" y="1.398" width="12.677" height="20.87" filterUnits="userSpaceOnUse" color-interpolation-filters="sRGB"><feFlood flood-opacity="0" result="BackgroundImageFix"/><feBlend in="SourceGraphic" in2="BackgroundImageFix" result="shape"/><feGaussianBlur stdDeviation="1" result="effect1_foregroundBlur_20020_3079"/></filter><filter id="i" x="12.396" y="15.224" width="12.088" height="5.26" filterUnits="userSpaceOnUse" color-interpolation-filters="sRGB"><feFlood flood-opacity="0" result="BackgroundImageFix"/><feBlend in="SourceGraphic" in2="BackgroundImageFix" result="shape"/><feGaussianBlur stdDeviation=".75" result="effect1_foregroundBlur_20020_3079"/></filter></defs></svg>