<svg xmlns="http://www.w3.org/2000/svg" fill="none" viewBox="0 0 32 32"><path fill="#008461" d="M26 8h-1v9h1z"/><g filter="url(#tractor_svg__a)"><path fill="url(#tractor_svg__b)" d="M25.562 15A2.434 2.434 0 0 1 28 17.436v5.82A2.745 2.745 0 0 1 25.252 26H3.998C2.9 26 2 25.102 2 24.004V18.03C2 16.5 3.5 15 5 15z"/><path fill="url(#tractor_svg__c)" d="M25.562 15A2.434 2.434 0 0 1 28 17.436v5.82A2.745 2.745 0 0 1 25.252 26H3.998C2.9 26 2 25.102 2 24.004V18.03C2 16.5 3.5 15 5 15z"/><path fill="url(#tractor_svg__d)" d="M25.562 15A2.434 2.434 0 0 1 28 17.436v5.82A2.745 2.745 0 0 1 25.252 26H3.998C2.9 26 2 25.102 2 24.004V18.03C2 16.5 3.5 15 5 15z"/><path fill="url(#tractor_svg__e)" d="M25.562 15A2.434 2.434 0 0 1 28 17.436v5.82A2.745 2.745 0 0 1 25.252 26H3.998C2.9 26 2 25.102 2 24.004V18.03C2 16.5 3.5 15 5 15z"/><path fill="url(#tractor_svg__f)" d="M25.562 15A2.434 2.434 0 0 1 28 17.436v5.82A2.745 2.745 0 0 1 25.252 26H3.998C2.9 26 2 25.102 2 24.004V18.03C2 16.5 3.5 15 5 15z"/></g><path fill="url(#tractor_svg__g)" fill-rule="evenodd" d="M28 19H2v-.97C2 16.5 3.5 15 5 15h20.562A2.434 2.434 0 0 1 28 17.436z" clip-rule="evenodd"/><g filter="url(#tractor_svg__h)"><path fill="#153B3B" fill-rule="evenodd" d="M5.25 20.885a.5.5 0 0 1 .5-.5h2.288c2.487 0 4.5 2.014 4.5 4.5a.5.5 0 0 1-.5.5c-.663 0-1.022-.224-1.022-.5 0-1.934-1.567-3.307-3.5-3.307h-1.5c-.641 0-.766-.416-.766-.693" clip-rule="evenodd"/></g><g filter="url(#tractor_svg__i)"><path fill="url(#tractor_svg__j)" d="M24.5 29.01a5.5 5.5 0 1 0 0-11 5.5 5.5 0 0 0 0 11"/><path fill="url(#tractor_svg__k)" d="M24.5 29.01a5.5 5.5 0 1 0 0-11 5.5 5.5 0 0 0 0 11"/><path fill="url(#tractor_svg__l)" d="M24.5 29.01a5.5 5.5 0 1 0 0-11 5.5 5.5 0 0 0 0 11"/></g><g filter="url(#tractor_svg__m)"><path fill="#C8BBD6" d="M24.5 25.526a2.016 2.016 0 1 0 0-4.032 2.016 2.016 0 0 0 0 4.032"/></g><g filter="url(#tractor_svg__n)"><path fill="#153B3B" d="M27.656 16.467H24.46c-3.867 0-8.084 3.527-8.084 7.392 0 .276.443.108.719.108a.5.5 0 0 0 .5-.5c0-3.315 3.297-6.483 6.865-5.92l3.197.453z"/></g><g filter="url(#tractor_svg__o)"><path fill="#268E6B" fill-rule="evenodd" d="M5.52 20.51a.5.5 0 0 1 .5-.5h2.49c2.486 0 4.5 2.014 4.5 4.5a.5.5 0 1 1-1 0c0-1.934-1.566-3.5-3.5-3.5H6.02a.5.5 0 0 1-.5-.5" clip-rule="evenodd"/></g><path fill="url(#tractor_svg__p)" fill-rule="evenodd" d="M5.52 20.51a.5.5 0 0 1 .5-.5h2.49c2.486 0 4.5 2.014 4.5 4.5a.5.5 0 1 1-1 0c0-1.934-1.566-3.5-3.5-3.5H6.02a.5.5 0 0 1-.5-.5" clip-rule="evenodd"/><g filter="url(#tractor_svg__q)"><path fill="#268E6B" fill-rule="evenodd" d="M23.99 17A5.99 5.99 0 0 0 18 23a.5.5 0 0 1-1 0c0-3.865 3.123-7 6.99-7h5.52a.5.5 0 0 1 0 1z" clip-rule="evenodd"/></g><path fill="url(#tractor_svg__r)" fill-rule="evenodd" d="M23.99 17A5.99 5.99 0 0 0 18 23a.5.5 0 0 1-1 0c0-3.865 3.123-7 6.99-7h5.52a.5.5 0 0 1 0 1z" clip-rule="evenodd"/><g filter="url(#tractor_svg__s)"><path fill="url(#tractor_svg__t)" d="M7.52 29.01a3.5 3.5 0 1 0 0-7 3.5 3.5 0 0 0 0 7"/><path fill="url(#tractor_svg__u)" d="M7.52 29.01a3.5 3.5 0 1 0 0-7 3.5 3.5 0 0 0 0 7"/></g><path fill="url(#tractor_svg__v)" d="M15.68 8 11 15h14V8z"/><path fill="url(#tractor_svg__w)" d="M15.68 8 11 15h14V8z"/><path fill="url(#tractor_svg__x)" d="M15.68 8 11 15h14V8z"/><path fill="#008461" d="M18 8h-1v7h1z"/><path fill="url(#tractor_svg__y)" d="M3.507 21H2v-1h1.507c.276 0 .493.22.493.5 0 .27-.217.5-.493.5"/><path fill="url(#tractor_svg__z)" d="M3.507 21H2v-1h1.507c.276 0 .493.22.493.5 0 .27-.217.5-.493.5"/><path fill="url(#tractor_svg__A)" d="M3.507 19H2v-1h1.507c.276 0 .493.22.493.5s-.217.5-.493.5"/><path fill="url(#tractor_svg__B)" d="M3.507 19H2v-1h1.507c.276 0 .493.22.493.5s-.217.5-.493.5"/><path fill="url(#tractor_svg__C)" d="M3.507 23H2v-1h1.507c.276 0 .493.22.493.5 0 .27-.217.5-.493.5"/><path fill="url(#tractor_svg__D)" d="M3.507 23H2v-1h1.507c.276 0 .493.22.493.5 0 .27-.217.5-.493.5"/><path fill="url(#tractor_svg__E)" d="M14 7a1 1 0 0 1 1-1h10a1 1 0 0 1 1 1v1H15a1 1 0 0 1-1-1"/><path fill="url(#tractor_svg__F)" d="M14 7a1 1 0 0 1 1-1h10a1 1 0 0 1 1 1v1H15a1 1 0 0 1-1-1"/><path fill="url(#tractor_svg__G)" d="M14 7a1 1 0 0 1 1-1h10a1 1 0 0 1 1 1v1H15a1 1 0 0 1-1-1"/><path fill="url(#tractor_svg__H)" d="M14 7a1 1 0 0 1 1-1h10a1 1 0 0 1 1 1v1H15a1 1 0 0 1-1-1"/><g filter="url(#tractor_svg__I)"><path fill="#CCBED9" d="M7.52 26.784a1.273 1.273 0 1 0 0-2.547 1.273 1.273 0 0 0 0 2.547"/></g><g filter="url(#tractor_svg__J)"><circle cx="7.704" cy="25.234" r="2.391" stroke="url(#tractor_svg__K)" stroke-width=".75"/></g><g filter="url(#tractor_svg__L)"><circle cx="24.907" cy="23.157" r="3.688" stroke="url(#tractor_svg__M)"/></g><rect width="1.047" height="4.922" x="9.047" y="12.078" fill="url(#tractor_svg__N)" rx=".523"/><rect width="1.047" height="4.922" x="9.047" y="12.078" fill="url(#tractor_svg__O)" rx=".523"/><rect width="1.047" height="4.922" x="9.047" y="12.078" fill="url(#tractor_svg__P)" rx=".523"/><rect width="1.047" height="4.922" x="9.047" y="12.078" fill="url(#tractor_svg__Q)" rx=".523"/><path fill="url(#tractor_svg__R)" fill-rule="evenodd" d="M9.047 14.11v-.985h1.047v.985z" clip-rule="evenodd"/><g filter="url(#tractor_svg__S)"><path stroke="url(#tractor_svg__T)" stroke-linecap="round" stroke-width=".25" d="M6.062 20.385h2.807c1.09.038 3.353.84 3.685 3.749"/></g><g filter="url(#tractor_svg__U)"><path stroke="url(#tractor_svg__V)" stroke-linecap="round" stroke-width=".25" d="M17.469 22.656c.031-1.062.569-3.531 2.468-4.906s3.5-1.281 4.579-1.281H29.5"/></g><defs><linearGradient id="tractor_svg__b" x1="24.875" x2="2.625" y1="17.004" y2="17.004" gradientUnits="userSpaceOnUse"><stop stop-color="#37BC6E"/><stop offset="1" stop-color="#47D086"/></linearGradient><linearGradient id="tractor_svg__c" x1="15.828" x2="15.828" y1="26.618" y2="23.923" gradientUnits="userSpaceOnUse"><stop stop-color="#293A5E"/><stop offset="1" stop-color="#293A5E" stop-opacity="0"/></linearGradient><linearGradient id="tractor_svg__e" x1="15" x2="15" y1="26" y2="25.594" gradientUnits="userSpaceOnUse"><stop stop-color="#464274"/><stop offset="1" stop-color="#464274" stop-opacity="0"/></linearGradient><linearGradient id="tractor_svg__f" x1="15" x2="15" y1="15" y2="17.475" gradientUnits="userSpaceOnUse"><stop offset=".161" stop-color="#45F18A"/><stop offset="1" stop-color="#45F18A" stop-opacity="0"/></linearGradient><linearGradient id="tractor_svg__g" x1="9.688" x2="9.688" y1="19" y2="17.429" gradientUnits="userSpaceOnUse"><stop stop-color="#36C570"/><stop offset="1" stop-color="#36C570" stop-opacity="0"/></linearGradient><linearGradient id="tractor_svg__j" x1="21.964" x2="30.225" y1="22.127" y2="22.127" gradientUnits="userSpaceOnUse"><stop offset=".239" stop-color="#34214F"/><stop offset="1" stop-color="#241337"/></linearGradient><linearGradient id="tractor_svg__p" x1="12.375" x2="12.375" y1="25.375" y2="24.531" gradientUnits="userSpaceOnUse"><stop stop-color="#272859"/><stop offset="1" stop-color="#272859" stop-opacity="0"/></linearGradient><linearGradient id="tractor_svg__r" x1="28.907" x2="28.907" y1="24.047" y2="22.782" gradientUnits="userSpaceOnUse"><stop stop-color="#272859"/><stop offset="1" stop-color="#272859" stop-opacity="0"/></linearGradient><linearGradient id="tractor_svg__t" x1="5.906" x2="11.163" y1="24.63" y2="24.63" gradientUnits="userSpaceOnUse"><stop offset=".239" stop-color="#34214F"/><stop offset="1" stop-color="#241337"/></linearGradient><linearGradient id="tractor_svg__v" x1="19.269" x2="19.269" y1="5.721" y2="12.691" gradientUnits="userSpaceOnUse"><stop stop-color="#2A80D7"/><stop offset="1" stop-color="#46FAFA"/></linearGradient><linearGradient id="tractor_svg__w" x1="25.909" x2="23.84" y1="12.466" y2="12.466" gradientUnits="userSpaceOnUse"><stop stop-color="#37C3DA"/><stop offset="1" stop-color="#37C3DA" stop-opacity="0"/></linearGradient><linearGradient id="tractor_svg__x" x1="18" x2="18" y1="7.242" y2="11.234" gradientUnits="userSpaceOnUse"><stop stop-color="#2066C3"/><stop offset="1" stop-color="#2066C3" stop-opacity="0"/></linearGradient><linearGradient id="tractor_svg__y" x1="3.265" x2="4.112" y1="20.5" y2="20.488" gradientUnits="userSpaceOnUse"><stop stop-color="#290941"/><stop offset="1" stop-color="#1A0726"/></linearGradient><linearGradient id="tractor_svg__A" x1="3.265" x2="4.112" y1="18.5" y2="18.488" gradientUnits="userSpaceOnUse"><stop stop-color="#290941"/><stop offset="1" stop-color="#1A0726"/></linearGradient><linearGradient id="tractor_svg__C" x1="3.265" x2="4.112" y1="22.5" y2="22.488" gradientUnits="userSpaceOnUse"><stop stop-color="#290941"/><stop offset="1" stop-color="#1A0726"/></linearGradient><linearGradient id="tractor_svg__E" x1="18.124" x2="18.124" y1="6.405" y2="7.834" gradientUnits="userSpaceOnUse"><stop stop-color="#4FEA8C"/><stop offset="1" stop-color="#00D263"/><stop offset="1" stop-color="#19965F"/></linearGradient><linearGradient id="tractor_svg__F" x1="21.063" x2="21.063" y1="8.469" y2="7.5" gradientUnits="userSpaceOnUse"><stop stop-color="#1A9461"/><stop offset="1" stop-color="#1A9461" stop-opacity="0"/></linearGradient><linearGradient id="tractor_svg__H" x1="20" x2="20" y1="6" y2="6.078" gradientUnits="userSpaceOnUse"><stop stop-color="#4BD780"/><stop offset="1" stop-color="#4BD780" stop-opacity="0"/></linearGradient><linearGradient id="tractor_svg__K" x1="9.489" x2="5.883" y1="22.844" y2="27.1" gradientUnits="userSpaceOnUse"><stop offset=".083" stop-color="#615B6B"/><stop offset=".391" stop-color="#615B6B" stop-opacity="0"/><stop offset=".692" stop-color="#615B6B" stop-opacity="0"/><stop offset=".935" stop-color="#615B6B"/></linearGradient><linearGradient id="tractor_svg__M" x1="27.66" x2="22.098" y1="19.469" y2="26.034" gradientUnits="userSpaceOnUse"><stop offset=".083" stop-color="#615B6B"/><stop offset=".391" stop-color="#615B6B" stop-opacity="0"/><stop offset=".692" stop-color="#615B6B" stop-opacity="0"/><stop offset=".935" stop-color="#615B6B"/></linearGradient><linearGradient id="tractor_svg__N" x1="9.047" x2="9.75" y1="14.969" y2="14.969" gradientUnits="userSpaceOnUse"><stop stop-color="#B4A5B9"/><stop offset="1" stop-color="#D6CDE0"/></linearGradient><linearGradient id="tractor_svg__P" x1="9.656" x2="9.656" y1="17.109" y2="16.422" gradientUnits="userSpaceOnUse"><stop stop-color="#744498"/><stop offset="1" stop-color="#744498" stop-opacity="0"/></linearGradient><linearGradient id="tractor_svg__Q" x1="9.047" x2="9.281" y1="14.375" y2="14.375" gradientUnits="userSpaceOnUse"><stop stop-color="#8C7D88"/><stop offset="1" stop-color="#8C7D88" stop-opacity="0"/></linearGradient><linearGradient id="tractor_svg__R" x1="10.094" x2="9.047" y1="13.888" y2="13.888" gradientUnits="userSpaceOnUse"><stop stop-color="#30144D"/><stop offset="1" stop-color="#44335C"/></linearGradient><linearGradient id="tractor_svg__T" x1="6.795" x2="13.347" y1="20.146" y2="21.916" gradientUnits="userSpaceOnUse"><stop stop-color="#3E8F75"/><stop offset="1" stop-color="#3E8F75" stop-opacity="0"/></linearGradient><linearGradient id="tractor_svg__V" x1="18.772" x2="30.3" y1="16.015" y2="19.337" gradientUnits="userSpaceOnUse"><stop stop-color="#3E8F75"/><stop offset="1" stop-color="#3E8F75" stop-opacity="0"/></linearGradient><filter id="tractor_svg__a" width="27" height="11" x="2" y="15" color-interpolation-filters="sRGB" filterUnits="userSpaceOnUse"><feFlood flood-opacity="0" result="BackgroundImageFix"/><feBlend in="SourceGraphic" in2="BackgroundImageFix" result="shape"/><feColorMatrix in="SourceAlpha" result="hardAlpha" values="0 0 0 0 0 0 0 0 0 0 0 0 0 0 0 0 0 0 127 0"/><feOffset dx="1"/><feGaussianBlur stdDeviation=".5"/><feComposite in2="hardAlpha" k2="-1" k3="1" operator="arithmetic"/><feColorMatrix values="0 0 0 0 0.211765 0 0 0 0 0.521569 0 0 0 0 0.305882 0 0 0 1 0"/><feBlend in2="shape" result="effect1_innerShadow_18_10906"/></filter><filter id="tractor_svg__h" width="8.788" height="6.5" x="4.5" y="19.635" color-interpolation-filters="sRGB" filterUnits="userSpaceOnUse"><feFlood flood-opacity="0" result="BackgroundImageFix"/><feBlend in="SourceGraphic" in2="BackgroundImageFix" result="shape"/><feGaussianBlur result="effect1_foregroundBlur_18_10906" stdDeviation=".375"/></filter><filter id="tractor_svg__i" width="11" height="11.15" x="19" y="18.01" color-interpolation-filters="sRGB" filterUnits="userSpaceOnUse"><feFlood flood-opacity="0" result="BackgroundImageFix"/><feBlend in="SourceGraphic" in2="BackgroundImageFix" result="shape"/><feColorMatrix in="SourceAlpha" result="hardAlpha" values="0 0 0 0 0 0 0 0 0 0 0 0 0 0 0 0 0 0 127 0"/><feOffset/><feGaussianBlur stdDeviation=".5"/><feComposite in2="hardAlpha" k2="-1" k3="1" operator="arithmetic"/><feColorMatrix values="0 0 0 0 0.145098 0 0 0 0 0.0823529 0 0 0 0 0.215686 0 0 0 1 0"/><feBlend in2="shape" result="effect1_innerShadow_18_10906"/><feColorMatrix in="SourceAlpha" result="hardAlpha" values="0 0 0 0 0 0 0 0 0 0 0 0 0 0 0 0 0 0 127 0"/><feOffset dy=".15"/><feGaussianBlur stdDeviation=".125"/><feComposite in2="hardAlpha" k2="-1" k3="1" operator="arithmetic"/><feColorMatrix values="0 0 0 0 0.207843 0 0 0 0 0.0313726 0 0 0 0 0.235294 0 0 0 1 0"/><feBlend in2="effect1_innerShadow_18_10906" result="effect2_innerShadow_18_10906"/></filter><filter id="tractor_svg__m" width="4.131" height="4.131" x="22.434" y="21.445" color-interpolation-filters="sRGB" filterUnits="userSpaceOnUse"><feFlood flood-opacity="0" result="BackgroundImageFix"/><feBlend in="SourceGraphic" in2="BackgroundImageFix" result="shape"/><feColorMatrix in="SourceAlpha" result="hardAlpha" values="0 0 0 0 0 0 0 0 0 0 0 0 0 0 0 0 0 0 127 0"/><feOffset dx=".05" dy="-.05"/><feGaussianBlur stdDeviation=".05"/><feComposite in2="hardAlpha" k2="-1" k3="1" operator="arithmetic"/><feColorMatrix values="0 0 0 0 0.478431 0 0 0 0 0.364706 0 0 0 0 0.584314 0 0 0 1 0"/><feBlend in2="shape" result="effect1_innerShadow_18_10906"/><feColorMatrix in="SourceAlpha" result="hardAlpha" values="0 0 0 0 0 0 0 0 0 0 0 0 0 0 0 0 0 0 127 0"/><feOffset dx="-.05" dy=".05"/><feGaussianBlur stdDeviation=".05"/><feComposite in2="hardAlpha" k2="-1" k3="1" operator="arithmetic"/><feColorMatrix values="0 0 0 0 0.807843 0 0 0 0 0.764706 0 0 0 0 0.858824 0 0 0 1 0"/><feBlend in2="effect1_innerShadow_18_10906" result="effect2_innerShadow_18_10906"/></filter><filter id="tractor_svg__n" width="12.781" height="9.051" x="15.625" y="15.717" color-interpolation-filters="sRGB" filterUnits="userSpaceOnUse"><feFlood flood-opacity="0" result="BackgroundImageFix"/><feBlend in="SourceGraphic" in2="BackgroundImageFix" result="shape"/><feGaussianBlur result="effect1_foregroundBlur_18_10906" stdDeviation=".375"/></filter><filter id="tractor_svg__o" width="7.49" height="5.25" x="5.52" y="19.76" color-interpolation-filters="sRGB" filterUnits="userSpaceOnUse"><feFlood flood-opacity="0" result="BackgroundImageFix"/><feBlend in="SourceGraphic" in2="BackgroundImageFix" result="shape"/><feColorMatrix in="SourceAlpha" result="hardAlpha" values="0 0 0 0 0 0 0 0 0 0 0 0 0 0 0 0 0 0 127 0"/><feOffset dy="-.25"/><feGaussianBlur stdDeviation=".25"/><feComposite in2="hardAlpha" k2="-1" k3="1" operator="arithmetic"/><feColorMatrix values="0 0 0 0 0.0705882 0 0 0 0 0.239216 0 0 0 0 0.290196 0 0 0 1 0"/><feBlend in2="shape" result="effect1_innerShadow_18_10906"/></filter><filter id="tractor_svg__q" width="13.01" height="7.75" x="17" y="15.75" color-interpolation-filters="sRGB" filterUnits="userSpaceOnUse"><feFlood flood-opacity="0" result="BackgroundImageFix"/><feBlend in="SourceGraphic" in2="BackgroundImageFix" result="shape"/><feColorMatrix in="SourceAlpha" result="hardAlpha" values="0 0 0 0 0 0 0 0 0 0 0 0 0 0 0 0 0 0 127 0"/><feOffset dy="-.25"/><feGaussianBlur stdDeviation=".25"/><feComposite in2="hardAlpha" k2="-1" k3="1" operator="arithmetic"/><feColorMatrix values="0 0 0 0 0.0705882 0 0 0 0 0.239216 0 0 0 0 0.290196 0 0 0 1 0"/><feBlend in2="shape" result="effect1_innerShadow_18_10906"/></filter><filter id="tractor_svg__s" width="7" height="7.15" x="4.02" y="22.01" color-interpolation-filters="sRGB" filterUnits="userSpaceOnUse"><feFlood flood-opacity="0" result="BackgroundImageFix"/><feBlend in="SourceGraphic" in2="BackgroundImageFix" result="shape"/><feColorMatrix in="SourceAlpha" result="hardAlpha" values="0 0 0 0 0 0 0 0 0 0 0 0 0 0 0 0 0 0 127 0"/><feOffset/><feGaussianBlur stdDeviation=".5"/><feComposite in2="hardAlpha" k2="-1" k3="1" operator="arithmetic"/><feColorMatrix values="0 0 0 0 0.145098 0 0 0 0 0.0823529 0 0 0 0 0.215686 0 0 0 1 0"/><feBlend in2="shape" result="effect1_innerShadow_18_10906"/><feColorMatrix in="SourceAlpha" result="hardAlpha" values="0 0 0 0 0 0 0 0 0 0 0 0 0 0 0 0 0 0 127 0"/><feOffset dy=".15"/><feGaussianBlur stdDeviation=".125"/><feComposite in2="hardAlpha" k2="-1" k3="1" operator="arithmetic"/><feColorMatrix values="0 0 0 0 0.207843 0 0 0 0 0.0313726 0 0 0 0 0.235294 0 0 0 1 0"/><feBlend in2="effect1_innerShadow_18_10906" result="effect2_innerShadow_18_10906"/></filter><filter id="tractor_svg__I" width="2.647" height="2.647" x="6.197" y="24.187" color-interpolation-filters="sRGB" filterUnits="userSpaceOnUse"><feFlood flood-opacity="0" result="BackgroundImageFix"/><feBlend in="SourceGraphic" in2="BackgroundImageFix" result="shape"/><feColorMatrix in="SourceAlpha" result="hardAlpha" values="0 0 0 0 0 0 0 0 0 0 0 0 0 0 0 0 0 0 127 0"/><feOffset dx=".05" dy="-.05"/><feGaussianBlur stdDeviation=".05"/><feComposite in2="hardAlpha" k2="-1" k3="1" operator="arithmetic"/><feColorMatrix values="0 0 0 0 0.478431 0 0 0 0 0.364706 0 0 0 0 0.584314 0 0 0 1 0"/><feBlend in2="shape" result="effect1_innerShadow_18_10906"/><feColorMatrix in="SourceAlpha" result="hardAlpha" values="0 0 0 0 0 0 0 0 0 0 0 0 0 0 0 0 0 0 127 0"/><feOffset dx="-.05" dy=".05"/><feGaussianBlur stdDeviation=".05"/><feComposite in2="hardAlpha" k2="-1" k3="1" operator="arithmetic"/><feColorMatrix values="0 0 0 0 0.807843 0 0 0 0 0.764706 0 0 0 0 0.858824 0 0 0 1 0"/><feBlend in2="effect1_innerShadow_18_10906" result="effect2_innerShadow_18_10906"/></filter><filter id="tractor_svg__J" width="7.031" height="7.031" x="4.188" y="21.719" color-interpolation-filters="sRGB" filterUnits="userSpaceOnUse"><feFlood flood-opacity="0" result="BackgroundImageFix"/><feBlend in="SourceGraphic" in2="BackgroundImageFix" result="shape"/><feGaussianBlur result="effect1_foregroundBlur_18_10906" stdDeviation=".375"/></filter><filter id="tractor_svg__L" width="9.875" height="9.875" x="19.969" y="18.219" color-interpolation-filters="sRGB" filterUnits="userSpaceOnUse"><feFlood flood-opacity="0" result="BackgroundImageFix"/><feBlend in="SourceGraphic" in2="BackgroundImageFix" result="shape"/><feGaussianBlur result="effect1_foregroundBlur_18_10906" stdDeviation=".375"/></filter><filter id="tractor_svg__S" width="7.242" height="4.499" x="5.687" y="20.01" color-interpolation-filters="sRGB" filterUnits="userSpaceOnUse"><feFlood flood-opacity="0" result="BackgroundImageFix"/><feBlend in="SourceGraphic" in2="BackgroundImageFix" result="shape"/><feGaussianBlur result="effect1_foregroundBlur_18_10906" stdDeviation=".125"/></filter><filter id="tractor_svg__U" width="12.781" height="6.939" x="17.094" y="16.092" color-interpolation-filters="sRGB" filterUnits="userSpaceOnUse"><feFlood flood-opacity="0" result="BackgroundImageFix"/><feBlend in="SourceGraphic" in2="BackgroundImageFix" result="shape"/><feGaussianBlur result="effect1_foregroundBlur_18_10906" stdDeviation=".125"/></filter><radialGradient id="tractor_svg__d" cx="0" cy="0" r="1" gradientTransform="matrix(-1.48224 4.40183 -2.63683 -.8879 20.903 23.608)" gradientUnits="userSpaceOnUse"><stop offset=".635" stop-color="#293A5E"/><stop offset="1" stop-color="#293A5E" stop-opacity="0"/></radialGradient><radialGradient id="tractor_svg__k" cx="0" cy="0" r="1" gradientTransform="matrix(1.24273 -2.73154 2.853 1.29799 24.5 23.018)" gradientUnits="userSpaceOnUse"><stop offset=".523" stop-color="#2D114D"/><stop offset="1" stop-color="#2B1249" stop-opacity="0"/></radialGradient><radialGradient id="tractor_svg__l" cx="0" cy="0" r="1" gradientTransform="matrix(1.01563 .67188 -.75497 1.14124 26 23.89)" gradientUnits="userSpaceOnUse"><stop stop-color="#392A49"/><stop offset="1" stop-color="#392A49" stop-opacity="0"/></radialGradient><radialGradient id="tractor_svg__u" cx="0" cy="0" r="1" gradientTransform="matrix(.79083 -1.73826 1.81555 .826 7.52 25.197)" gradientUnits="userSpaceOnUse"><stop offset=".523" stop-color="#2D114D"/><stop offset="1" stop-color="#2B1249" stop-opacity="0"/></radialGradient><radialGradient id="tractor_svg__z" cx="0" cy="0" r="1" gradientTransform="matrix(-.35586 -.16435 .16005 -.34654 4 20.736)" gradientUnits="userSpaceOnUse"><stop stop-color="#352938"/><stop offset="1" stop-color="#352938" stop-opacity="0"/></radialGradient><radialGradient id="tractor_svg__B" cx="0" cy="0" r="1" gradientTransform="matrix(-.35586 -.16435 .16005 -.34654 4 18.736)" gradientUnits="userSpaceOnUse"><stop stop-color="#352938"/><stop offset="1" stop-color="#352938" stop-opacity="0"/></radialGradient><radialGradient id="tractor_svg__D" cx="0" cy="0" r="1" gradientTransform="matrix(-.35586 -.16435 .16005 -.34654 4 22.736)" gradientUnits="userSpaceOnUse"><stop stop-color="#352938"/><stop offset="1" stop-color="#352938" stop-opacity="0"/></radialGradient><radialGradient id="tractor_svg__G" cx="0" cy="0" r="1" gradientTransform="rotate(-152.186 13.222 2.623)scale(10.9581 6.44616)" gradientUnits="userSpaceOnUse"><stop offset=".895" stop-color="#419F64" stop-opacity="0"/><stop offset="1" stop-color="#419F64"/></radialGradient><radialGradient id="tractor_svg__O" cx="0" cy="0" r="1" gradientTransform="rotate(-22.544 35.677 -19.503)scale(.89664 .73134)" gradientUnits="userSpaceOnUse"><stop stop-color="#F0EDF3"/><stop offset="1" stop-color="#F0EDF3" stop-opacity="0"/></radialGradient></defs></svg>