<svg width="32" height="32" fill="none" xmlns="http://www.w3.org/2000/svg"><rect x="1.938" y="13.047" width="28.125" height="16.906" rx="3" fill="url(#a)"/><rect x="1.938" y="9.969" width="28.125" height="16.906" rx="3" fill="url(#b)"/><rect x="11.906" y="14.906" width="8.188" height="8.156" rx="1" fill="url(#c)"/><path d="M20.094 16.469h-8.188v-.563a1 1 0 0 1 1-1h6.188a1 1 0 0 1 1 1v.563Z" fill="#F13861"/><rect x="13.445" y="18.055" width="5.109" height=".93" rx=".465" fill="url(#d)"/><rect x="13.445" y="20.016" width="5.109" height=".93" rx=".465" fill="#58BAD0" fill-opacity=".55"/><rect x="13.445" y="20.016" width="5.109" height=".93" rx=".465" fill="#B0ADB4"/><rect x="13.445" y="20.016" width="5.109" height=".93" rx=".465" fill="url(#e)"/><rect x="21.016" y="14.852" width="6.953" height="8.156" rx="1" fill="#473A5A"/><rect x="4.031" y="14.852" width="6.953" height="8.156" rx="1" fill="#473A5A"/><rect x="21.016" y="14.906" width="6.953" height="8.156" rx="1" fill="url(#f)"/><path d="M10.984 15.906a1 1 0 0 0-1-1H5.031a1 1 0 0 0-1 1v6.156a1 1 0 0 0 1 1h4.953a1 1 0 0 0 1-1v-6.156Z" fill="url(#g)"/><path d="M10.984 15.906a1 1 0 0 0-1-1H5.031a1 1 0 0 0-1 1v6.156a1 1 0 0 0 1 1h4.953a1 1 0 0 0 1-1v-6.156Z" fill="url(#h)"/><g filter="url(#i)"><path d="M24.964 23.063a5.292 5.292 0 0 0 1.913-4.079c0-1.64-.744-3.105-1.913-4.078h-2.948a1 1 0 0 0-1 1v6.156a1 1 0 0 0 1 1h2.948Z" fill="url(#j)"/><path d="M24.964 23.063a5.292 5.292 0 0 0 1.913-4.079c0-1.64-.744-3.105-1.913-4.078h-2.948a1 1 0 0 0-1 1v6.156a1 1 0 0 0 1 1h2.948Z" fill="url(#k)"/></g><g filter="url(#l)"><path d="M7.036 23.063a5.292 5.292 0 0 1-1.913-4.079c0-1.64.744-3.105 1.913-4.078h2.948a1 1 0 0 1 1 1v6.156a1 1 0 0 1-1 1H7.036Z" fill="url(#m)"/><path d="M7.036 23.063a5.292 5.292 0 0 1-1.913-4.079c0-1.64.744-3.105 1.913-4.078h2.948a1 1 0 0 1 1 1v6.156a1 1 0 0 1-1 1H7.036Z" fill="url(#n)"/></g><path d="M21.187 15.346a.996.996 0 0 0-.171.56v6.156c0 .208.063.4.17.56a3.64 3.64 0 0 0 0-7.276Z" fill="url(#o)"/><path d="M21.187 15.346a.996.996 0 0 0-.171.56v6.156c0 .208.063.4.17.56a3.64 3.64 0 0 0 0-7.276Z" fill="url(#p)"/><path d="M21.187 15.346a.996.996 0 0 0-.171.56v6.156c0 .208.063.4.17.56a3.64 3.64 0 0 0 0-7.276Z" fill="url(#q)"/><path d="M10.813 15.346c.108.16.171.353.171.56v6.156c0 .208-.063.4-.17.56a3.64 3.64 0 0 1 0-7.276Z" fill="url(#r)"/><path d="M10.813 15.346c.108.16.171.353.171.56v6.156c0 .208-.063.4-.17.56a3.64 3.64 0 0 1 0-7.276Z" fill="url(#s)"/><path d="M10.813 15.346c.108.16.171.353.171.56v6.156c0 .208-.063.4-.17.56a3.64 3.64 0 0 1 0-7.276Z" fill="url(#t)"/><path d="M21.016 20.765v-3.123a1.566 1.566 0 1 1 0 3.123Z" fill="url(#u)"/><path d="M10.984 20.765v-3.123a1.566 1.566 0 1 0 0 3.123Z" fill="url(#v)"/><g filter="url(#w)"><path d="M21.016 20.565v-3.123a1.568 1.568 0 1 1 0 3.123Z" fill="#9A989E"/></g><g filter="url(#x)"><path d="M10.984 20.565v-3.123a1.568 1.568 0 1 0 0 3.123Z" fill="#9A989E"/><path d="M10.984 20.565v-3.123a1.568 1.568 0 1 0 0 3.123Z" fill="url(#y)"/></g><path d="M25.43 23.063h-.466a5.292 5.292 0 0 0 1.909-3.86c.002.073.004.146.004.219 0 1.41-.55 2.69-1.447 3.64Z" fill="url(#z)"/><path d="M6.57 23.063h.466a5.292 5.292 0 0 1-1.909-3.86 5.285 5.285 0 0 0 1.443 3.86Z" fill="url(#A)"/><g filter="url(#B)"><path d="m15.76 11.477-1.31 1.905a.25.25 0 0 0 .205.392h2.699a.25.25 0 0 0 .206-.392l-1.305-1.904a.3.3 0 0 0-.495 0Z" fill="#504060"/></g><path d="m15.74 11.463-1.311 1.905a.275.275 0 0 0 .226.43h2.699a.275.275 0 0 0 .227-.43l-1.305-1.905a.325.325 0 0 0-.536 0Z" stroke="url(#C)" stroke-width=".05"/><defs><linearGradient id="a" x1="16" y1="26.813" x2="16" y2="29.953" gradientUnits="userSpaceOnUse"><stop stop-color="#302243"/><stop offset="1" stop-color="#2F2243"/></linearGradient><linearGradient id="b" x1="16" y1="9.969" x2="16" y2="26.875" gradientUnits="userSpaceOnUse"><stop stop-color="#635EA6"/><stop offset=".974" stop-color="#553E71"/></linearGradient><linearGradient id="c" x1="16" y1="16.156" x2="16" y2="23.063" gradientUnits="userSpaceOnUse"><stop stop-color="#DFDBE3"/><stop offset="1" stop-color="#DFDBE5"/></linearGradient><linearGradient id="d" x1="15.656" y1="18.52" x2="18.555" y2="18.52" gradientUnits="userSpaceOnUse"><stop stop-color="#B1AEB4"/><stop offset="1" stop-color="#B0ADB4"/></linearGradient><linearGradient id="e" x1="15.656" y1="20.48" x2="18.555" y2="20.48" gradientUnits="userSpaceOnUse"><stop stop-color="#B1AEB4"/><stop offset="1" stop-color="#B0ADB4"/></linearGradient><linearGradient id="k" x1="23.946" y1="14.734" x2="23.946" y2="15.828" gradientUnits="userSpaceOnUse"><stop offset=".13" stop-color="#746882"/><stop offset="1" stop-color="#D7D3DB" stop-opacity="0"/></linearGradient><linearGradient id="n" x1="8.054" y1="14.734" x2="8.054" y2="15.828" gradientUnits="userSpaceOnUse"><stop offset=".13" stop-color="#746882"/><stop offset="1" stop-color="#D7D3DB" stop-opacity="0"/></linearGradient><linearGradient id="o" x1="22.312" y1="18.984" x2="20.547" y2="18.984" gradientUnits="userSpaceOnUse"><stop stop-color="#53416E"/><stop offset="1" stop-color="#402B5D"/></linearGradient><linearGradient id="r" x1="8.865" y1="18.984" x2="12.419" y2="18.984" gradientUnits="userSpaceOnUse"><stop stop-color="#53416E"/><stop offset="1" stop-color="#402B5D"/></linearGradient><linearGradient id="u" x1="21.016" y1="20.77" x2="22.301" y2="20.77" gradientUnits="userSpaceOnUse"><stop stop-color="#676072"/><stop offset="1" stop-color="#8F8996"/></linearGradient><linearGradient id="v" x1="10.984" y1="20.77" x2="8.474" y2="19.009" gradientUnits="userSpaceOnUse"><stop stop-color="#676072"/><stop offset="1" stop-color="#8F8996"/></linearGradient><linearGradient id="y" x1="10.984" y1="19.71" x2="10.139" y2="19.726" gradientUnits="userSpaceOnUse"><stop stop-color="#67636C"/><stop offset="1" stop-color="#9B999F" stop-opacity="0"/></linearGradient><linearGradient id="z" x1="25.406" y1="23.063" x2="26.877" y2="20.063" gradientUnits="userSpaceOnUse"><stop stop-color="#A9A6AE"/><stop offset="1" stop-color="#8D8A92"/></linearGradient><linearGradient id="A" x1="6.08" y1="19.203" x2="6.08" y2="23.063" gradientUnits="userSpaceOnUse"><stop stop-color="#544D61"/><stop offset="1" stop-color="#67626E"/></linearGradient><linearGradient id="C" x1="14.734" y1="12.56" x2="15.906" y2="13.516" gradientUnits="userSpaceOnUse"><stop stop-color="#676198"/><stop offset="1" stop-color="#676198" stop-opacity="0"/></linearGradient><radialGradient id="f" cx="0" cy="0" r="1" gradientUnits="userSpaceOnUse" gradientTransform="matrix(4.4375 0 0 6.69528 24.594 19.906)"><stop offset=".651" stop-color="#3B2B52"/><stop offset="1" stop-color="#100523"/></radialGradient><radialGradient id="g" cx="0" cy="0" r="1" gradientUnits="userSpaceOnUse" gradientTransform="matrix(.3912 -8.44331 12.73923 .59023 5.312 22.856)"><stop stop-color="#3B2B52"/><stop offset=".688" stop-color="#38294F"/><stop offset="1" stop-color="#100523"/></radialGradient><radialGradient id="h" cx="0" cy="0" r="1" gradientUnits="userSpaceOnUse" gradientTransform="matrix(-3.25996 2.02118 -2.44735 -3.94733 8.148 20.346)"><stop offset=".52" stop-color="#1A0F2A"/><stop offset="1" stop-color="#1A0F2A" stop-opacity="0"/></radialGradient><radialGradient id="j" cx="0" cy="0" r="1" gradientUnits="userSpaceOnUse" gradientTransform="rotate(119.946 8.122 16.242) scale(6.6359 4.76876)"><stop stop-color="#D4D0D8"/><stop offset="1" stop-color="#D6D2DA"/></radialGradient><radialGradient id="m" cx="0" cy="0" r="1" gradientUnits="userSpaceOnUse" gradientTransform="matrix(3.3125 5.75 -4.13213 2.38046 5.75 17.313)"><stop stop-color="#D4D0D8"/><stop offset="1" stop-color="#D6D2DA"/></radialGradient><radialGradient id="p" cx="0" cy="0" r="1" gradientUnits="userSpaceOnUse" gradientTransform="matrix(2.51795 -4.54111 3.8475 2.13336 20.334 20.215)"><stop offset=".825" stop-color="#4D3968" stop-opacity="0"/><stop offset=".977" stop-color="#291745"/></radialGradient><radialGradient id="q" cx="0" cy="0" r="1" gradientUnits="userSpaceOnUse" gradientTransform="matrix(0 1.27139 -1.45069 0 21.302 19.792)"><stop stop-color="#493466"/><stop offset="1" stop-color="#493466" stop-opacity="0"/></radialGradient><radialGradient id="s" cx="0" cy="0" r="1" gradientUnits="userSpaceOnUse" gradientTransform="rotate(-119.007 11.786 6.672) scale(5.19247 4.39938)"><stop offset=".825" stop-color="#4D3968" stop-opacity="0"/><stop offset=".977" stop-color="#291745"/></radialGradient><radialGradient id="t" cx="0" cy="0" r="1" gradientUnits="userSpaceOnUse" gradientTransform="matrix(0 1.82558 -1.98125 0 10.772 19.384)"><stop offset=".46" stop-color="#2E2043"/><stop offset="1" stop-color="#4A3666" stop-opacity="0"/></radialGradient><filter id="i" x="21.016" y="14.906" width="5.861" height="8.156" filterUnits="userSpaceOnUse" color-interpolation-filters="sRGB"><feFlood flood-opacity="0" result="BackgroundImageFix"/><feBlend in="SourceGraphic" in2="BackgroundImageFix" result="shape"/><feColorMatrix in="SourceAlpha" values="0 0 0 0 0 0 0 0 0 0 0 0 0 0 0 0 0 0 127 0" result="hardAlpha"/><feOffset dx="-.02" dy="-.02"/><feComposite in2="hardAlpha" operator="arithmetic" k2="-1" k3="1"/><feColorMatrix values="0 0 0 0 0.866667 0 0 0 0 0.854902 0 0 0 0 0.886275 0 0 0 1 0"/><feBlend in2="shape" result="effect1_innerShadow_18_20365"/></filter><filter id="l" x="5.123" y="14.906" width="5.861" height="8.156" filterUnits="userSpaceOnUse" color-interpolation-filters="sRGB"><feFlood flood-opacity="0" result="BackgroundImageFix"/><feBlend in="SourceGraphic" in2="BackgroundImageFix" result="shape"/><feColorMatrix in="SourceAlpha" values="0 0 0 0 0 0 0 0 0 0 0 0 0 0 0 0 0 0 127 0" result="hardAlpha"/><feOffset dx=".02" dy="-.02"/><feComposite in2="hardAlpha" operator="arithmetic" k2="-1" k3="1"/><feColorMatrix values="0 0 0 0 0.866667 0 0 0 0 0.854902 0 0 0 0 0.886275 0 0 0 1 0"/><feBlend in2="shape" result="effect1_innerShadow_18_20365"/></filter><filter id="w" x="21.016" y="17.438" width="1.691" height="3.133" filterUnits="userSpaceOnUse" color-interpolation-filters="sRGB"><feFlood flood-opacity="0" result="BackgroundImageFix"/><feBlend in="SourceGraphic" in2="BackgroundImageFix" result="shape"/><feColorMatrix in="SourceAlpha" values="0 0 0 0 0 0 0 0 0 0 0 0 0 0 0 0 0 0 127 0" result="hardAlpha"/><feOffset dx="-.02" dy="-.02"/><feComposite in2="hardAlpha" operator="arithmetic" k2="-1" k3="1"/><feColorMatrix values="0 0 0 0 0.66741 0 0 0 0 0.636158 0 0 0 0 0.69085 0 0 0 1 0"/><feBlend in2="shape" result="effect1_innerShadow_18_20365"/></filter><filter id="x" x="9.293" y="17.438" width="1.691" height="3.133" filterUnits="userSpaceOnUse" color-interpolation-filters="sRGB"><feFlood flood-opacity="0" result="BackgroundImageFix"/><feBlend in="SourceGraphic" in2="BackgroundImageFix" result="shape"/><feColorMatrix in="SourceAlpha" values="0 0 0 0 0 0 0 0 0 0 0 0 0 0 0 0 0 0 127 0" result="hardAlpha"/><feOffset dx=".02" dy="-.02"/><feComposite in2="hardAlpha" operator="arithmetic" k2="-1" k3="1"/><feColorMatrix values="0 0 0 0 0.66741 0 0 0 0 0.636158 0 0 0 0 0.69085 0 0 0 1 0"/><feBlend in2="shape" result="effect1_innerShadow_18_20365"/></filter><filter id="B" x="14.305" y="11.347" width="3.399" height="2.426" filterUnits="userSpaceOnUse" color-interpolation-filters="sRGB"><feFlood flood-opacity="0" result="BackgroundImageFix"/><feBlend in="SourceGraphic" in2="BackgroundImageFix" result="shape"/><feColorMatrix in="SourceAlpha" values="0 0 0 0 0 0 0 0 0 0 0 0 0 0 0 0 0 0 127 0" result="hardAlpha"/><feOffset dx="-.1"/><feGaussianBlur stdDeviation=".05"/><feComposite in2="hardAlpha" operator="arithmetic" k2="-1" k3="1"/><feColorMatrix values="0 0 0 0 0.152941 0 0 0 0 0.117647 0 0 0 0 0.196078 0 0 0 1 0"/><feBlend in2="shape" result="effect1_innerShadow_18_20365"/><feColorMatrix in="SourceAlpha" values="0 0 0 0 0 0 0 0 0 0 0 0 0 0 0 0 0 0 127 0" result="hardAlpha"/><feOffset dx=".1"/><feGaussianBlur stdDeviation=".05"/><feComposite in2="hardAlpha" operator="arithmetic" k2="-1" k3="1"/><feColorMatrix values="0 0 0 0 0.262745 0 0 0 0 0.211765 0 0 0 0 0.321569 0 0 0 1 0"/><feBlend in2="effect1_innerShadow_18_20365" result="effect2_innerShadow_18_20365"/></filter></defs></svg>