<svg width="32" height="32" fill="none" xmlns="http://www.w3.org/2000/svg"><path d="M18.208 8.429V5.886H6.509v20.899h18.98l.715-6.545c-2.726 2.513-5.208 2.775-7.917 2.775-3.963 0-7.294-3.448-7.294-7.41a7.176 7.176 0 0 1 7.215-7.176Z" fill="#4AB9FF"/><path d="M18.208 8.429V5.886H6.509v20.899h18.98l.715-6.545c-2.726 2.513-5.208 2.775-7.917 2.775-3.963 0-7.294-3.448-7.294-7.41a7.176 7.176 0 0 1 7.215-7.176Z" fill="url(#a)"/><path d="M18.208 8.429V5.886H6.509v20.899h18.98l.715-6.545c-2.726 2.513-5.208 2.775-7.917 2.775-3.963 0-7.294-3.448-7.294-7.41a7.176 7.176 0 0 1 7.215-7.176Z" fill="url(#b)"/><g filter="url(#c)"><path d="M2.004 15.154v14.838h27.99V17.844c-2.488.92-4.011 2.663-5.881 4.185-1.773 1.442-3.962 2.69-7.11 2.69-4.249 0-9.196-3.822-9.196-8.833 0-6.019 5.182-8.585 8.035-8.585 1.148 0 1.638.245 1.834.367l1.21 1.65h4.183v-.953c-.672-1.896-3.544-5.687-9.649-5.687-5.613 0-11.416 5.687-11.416 12.476Z" fill="url(#d)"/></g><path d="M2.004 15.154v14.838h27.99V17.844c-2.488.92-4.011 2.663-5.881 4.185-1.773 1.442-3.962 2.69-7.11 2.69-4.249 0-9.196-3.822-9.196-8.833 0-6.019 5.182-8.585 8.035-8.585 1.148 0 1.638.245 1.834.367l1.21 1.65h4.183v-.953c-.672-1.896-3.544-5.687-9.649-5.687-5.613 0-11.416 5.687-11.416 12.476Z" fill="url(#e)"/><path d="M2.004 15.154v14.838h27.99V17.844c-2.488.92-4.011 2.663-5.881 4.185-1.773 1.442-3.962 2.69-7.11 2.69-4.249 0-9.196-3.822-9.196-8.833 0-6.019 5.182-8.585 8.035-8.585 1.148 0 1.638.245 1.834.367l1.21 1.65h4.183v-.953c-.672-1.896-3.544-5.687-9.649-5.687-5.613 0-11.416 5.687-11.416 12.476Z" fill="url(#f)"/><path d="M2.004 15.154v14.838h27.99V17.844c-2.488.92-4.011 2.663-5.881 4.185-1.773 1.442-3.962 2.69-7.11 2.69-4.249 0-9.196-3.822-9.196-8.833 0-6.019 5.182-8.585 8.035-8.585 1.148 0 1.638.245 1.834.367l1.21 1.65h4.183v-.953c-.672-1.896-3.544-5.687-9.649-5.687-5.613 0-11.416 5.687-11.416 12.476Z" fill="url(#g)"/><g filter="url(#h)"><path d="M9.437 4.262c6.923-2.888 11.634 1.204 13.124 3.61l-2.637.631c-2.108-5.135-7.87-4.967-10.487-4.24Z" fill="url(#i)"/></g><circle cx="27.403" cy="8.958" r="1.138" fill="url(#j)"/><circle cx="27.403" cy="8.958" r="1.138" fill="url(#k)"/><circle cx="27.403" cy="14.796" r="1.138" fill="url(#l)"/><circle cx="27.403" cy="14.796" r="1.138" fill="url(#m)"/><g filter="url(#n)"><circle cx="17.525" cy="13.957" r="1.138" fill="url(#o)"/></g><circle cx="20.534" cy="5.682" r="1.138" fill="url(#p)"/><g filter="url(#q)" fill-rule="evenodd" clip-rule="evenodd"><path d="M16.404 11.098a2.66 2.66 0 1 1 0-3.477 2.657 2.657 0 0 1 4.214.244 2.66 2.66 0 1 1 0 2.99 2.657 2.657 0 0 1-4.214.243Z" fill="#A1E5FF"/><path d="M16.404 11.098a2.66 2.66 0 1 1 0-3.477 2.657 2.657 0 0 1 4.214.244 2.66 2.66 0 1 1 0 2.99 2.657 2.657 0 0 1-4.214.243Z" fill="url(#r)"/><path d="M16.404 11.098a2.66 2.66 0 1 1 0-3.477 2.657 2.657 0 0 1 4.214.244 2.66 2.66 0 1 1 0 2.99 2.657 2.657 0 0 1-4.214.243Z" fill="url(#s)"/><path d="M16.404 11.098a2.66 2.66 0 1 1 0-3.477 2.657 2.657 0 0 1 4.214.244 2.66 2.66 0 1 1 0 2.99 2.657 2.657 0 0 1-4.214.243Z" fill="url(#t)"/><path d="M16.404 11.098a2.66 2.66 0 1 1 0-3.477 2.657 2.657 0 0 1 4.214.244 2.66 2.66 0 1 1 0 2.99 2.657 2.657 0 0 1-4.214.243Z" fill="url(#u)"/><path d="M16.404 11.098a2.66 2.66 0 1 1 0-3.477 2.657 2.657 0 0 1 4.214.244 2.66 2.66 0 1 1 0 2.99 2.657 2.657 0 0 1-4.214.243Z" fill="url(#v)"/><path d="M16.404 11.098a2.66 2.66 0 1 1 0-3.477 2.657 2.657 0 0 1 4.214.244 2.66 2.66 0 1 1 0 2.99 2.657 2.657 0 0 1-4.214.243Z" fill="url(#w)"/></g><path fill-rule="evenodd" clip-rule="evenodd" d="M16.404 11.098a2.66 2.66 0 1 1 0-3.477 2.657 2.657 0 0 1 4.214.244 2.66 2.66 0 1 1 0 2.99 2.657 2.657 0 0 1-4.214.243Z" fill="url(#x)"/><circle cx="24.5" cy="11.877" r="1.138" fill="url(#y)"/><defs><radialGradient id="a" cx="0" cy="0" r="1" gradientUnits="userSpaceOnUse" gradientTransform="rotate(-43.603 35.904 -2.427) scale(7.5739 16.8612)"><stop stop-color="#52C2FF"/><stop offset="1" stop-color="#52C2FF" stop-opacity="0"/></radialGradient><radialGradient id="b" cx="0" cy="0" r="1" gradientUnits="userSpaceOnUse" gradientTransform="rotate(125.538 3.98 11.792) scale(8.42498 8.82776)"><stop offset=".813" stop-color="#5DC8FF" stop-opacity="0"/><stop offset="1" stop-color="#5DC8FF"/></radialGradient><radialGradient id="g" cx="0" cy="0" r="1" gradientUnits="userSpaceOnUse" gradientTransform="rotate(46.748 -7.37 21.977) scale(5.56031 7.49013)"><stop offset=".33" stop-color="#40A3EE"/><stop offset="1" stop-color="#40A3EE" stop-opacity="0"/></radialGradient><radialGradient id="j" cx="0" cy="0" r="1" gradientUnits="userSpaceOnUse" gradientTransform="rotate(143.207 12.568 8.935) scale(1.64856)"><stop stop-color="#BFF7FF"/><stop offset="1" stop-color="#8FD9FE"/></radialGradient><radialGradient id="k" cx="0" cy="0" r="1" gradientUnits="userSpaceOnUse" gradientTransform="rotate(90 9.374 18.029) scale(1.44012)"><stop offset=".738" stop-color="#85CCF6" stop-opacity="0"/><stop offset="1" stop-color="#85CCF6"/></radialGradient><radialGradient id="l" cx="0" cy="0" r="1" gradientUnits="userSpaceOnUse" gradientTransform="rotate(135.89 11.1 12.736) scale(1.77167)"><stop stop-color="#BFF4FF"/><stop offset="1" stop-color="#90D0F8"/></radialGradient><radialGradient id="m" cx="0" cy="0" r="1" gradientUnits="userSpaceOnUse" gradientTransform="rotate(124.958 10.245 14.39) scale(1.93867)"><stop offset=".738" stop-color="#85CCF6" stop-opacity="0"/><stop offset="1" stop-color="#85CCF6"/></radialGradient><radialGradient id="o" cx="0" cy="0" r="1" gradientUnits="userSpaceOnUse" gradientTransform="matrix(-1.29127 .9337 -1.16175 -1.60666 18.054 13.76)"><stop stop-color="#A8DDFF"/><stop offset="1" stop-color="#8AC7FB"/></radialGradient><radialGradient id="p" cx="0" cy="0" r="1" gradientUnits="userSpaceOnUse" gradientTransform="rotate(137.626 9.437 6.724) scale(1.53118 1.5088)"><stop stop-color="#BBF7FF"/><stop offset="1" stop-color="#85DEFB"/></radialGradient><radialGradient id="r" cx="0" cy="0" r="1" gradientUnits="userSpaceOnUse" gradientTransform="matrix(-11.7407 0 0 -8.34033 22.722 9.36)"><stop offset=".719" stop-color="#86CCEE" stop-opacity="0"/><stop offset="1" stop-color="#86CCEE"/></radialGradient><radialGradient id="s" cx="0" cy="0" r="1" gradientUnits="userSpaceOnUse" gradientTransform="rotate(-101.877 15.473 .536) scale(8.04728 3.78154)"><stop stop-color="#86CCEE"/><stop offset=".991" stop-color="#86CCEE" stop-opacity="0"/></radialGradient><radialGradient id="t" cx="0" cy="0" r="1" gradientUnits="userSpaceOnUse" gradientTransform="matrix(-2.46873 -6.34375 2.98102 -1.1601 23.634 14.35)"><stop stop-color="#86CCEE"/><stop offset=".991" stop-color="#86CCEE" stop-opacity="0"/></radialGradient><radialGradient id="u" cx="0" cy="0" r="1" gradientUnits="userSpaceOnUse" gradientTransform="matrix(-2.24458 1.25697 -1.24245 -2.21865 15.089 8.497)"><stop offset=".194" stop-color="#BBF4FF"/><stop offset="1" stop-color="#BBF4FF" stop-opacity="0"/></radialGradient><radialGradient id="v" cx="0" cy="0" r="1" gradientUnits="userSpaceOnUse" gradientTransform="matrix(-2.1997 .7723 -.76338 -2.17427 19.533 8.587)"><stop offset=".194" stop-color="#BBF4FF"/><stop offset="1" stop-color="#BBF4FF" stop-opacity="0"/></radialGradient><radialGradient id="w" cx="0" cy="0" r="1" gradientUnits="userSpaceOnUse" gradientTransform="matrix(-2.6935 1.42325 -1.43833 -2.72204 24.471 7.936)"><stop stop-color="#BBF4FF"/><stop offset="1" stop-color="#BBF4FF" stop-opacity="0"/></radialGradient><radialGradient id="x" cx="0" cy="0" r="1" gradientUnits="userSpaceOnUse" gradientTransform="rotate(140.845 11.482 8.065) scale(3.62695 3.90833)"><stop stop-color="#C3FDFF"/><stop offset="1" stop-color="#C3FDFF" stop-opacity="0"/></radialGradient><radialGradient id="y" cx="0" cy="0" r="1" gradientUnits="userSpaceOnUse" gradientTransform="matrix(-1.4204 1.57934 -1.8827 -1.69322 25.196 11.287)"><stop offset=".143" stop-color="#BDF3FF"/><stop offset="1" stop-color="#83C5F7"/></radialGradient><linearGradient id="d" x1="15.999" y1="2.678" x2="15.999" y2="29.992" gradientUnits="userSpaceOnUse"><stop stop-color="#52C3FB"/><stop offset="1" stop-color="#3E7FF0"/></linearGradient><linearGradient id="e" x1="15.999" y1="1.821" x2="15.999" y2="15.116" gradientUnits="userSpaceOnUse"><stop stop-color="#53C2F9"/><stop offset="1" stop-color="#53C2F9" stop-opacity="0"/></linearGradient><linearGradient id="f" x1="17.259" y1="29.992" x2="17.259" y2="29.087" gradientUnits="userSpaceOnUse"><stop stop-color="#2E6DEA"/><stop offset="1" stop-color="#2E6DEA" stop-opacity="0"/></linearGradient><linearGradient id="i" x1="21.3" y1="7.873" x2="5.199" y2="1.763" gradientUnits="userSpaceOnUse"><stop stop-color="#74DEFF"/><stop offset="1" stop-color="#74DEFF" stop-opacity="0"/></linearGradient><filter id="c" x="1.754" y="2.678" width="28.74" height="27.814" filterUnits="userSpaceOnUse" color-interpolation-filters="sRGB"><feFlood flood-opacity="0" result="BackgroundImageFix"/><feBlend in="SourceGraphic" in2="BackgroundImageFix" result="shape"/><feColorMatrix in="SourceAlpha" values="0 0 0 0 0 0 0 0 0 0 0 0 0 0 0 0 0 0 127 0" result="hardAlpha"/><feOffset dx="-.25" dy=".5"/><feGaussianBlur stdDeviation=".25"/><feComposite in2="hardAlpha" operator="arithmetic" k2="-1" k3="1"/><feColorMatrix values="0 0 0 0 0.309804 0 0 0 0 0.611765 0 0 0 0 0.996078 0 0 0 1 0"/><feBlend in2="shape" result="effect1_innerShadow_18_15842"/><feColorMatrix in="SourceAlpha" values="0 0 0 0 0 0 0 0 0 0 0 0 0 0 0 0 0 0 127 0" result="hardAlpha"/><feOffset dx=".5" dy=".25"/><feGaussianBlur stdDeviation=".5"/><feComposite in2="hardAlpha" operator="arithmetic" k2="-1" k3="1"/><feColorMatrix values="0 0 0 0 0.180392 0 0 0 0 0.501961 0 0 0 0 0.882353 0 0 0 1 0"/><feBlend in2="effect1_innerShadow_18_15842" result="effect2_innerShadow_18_15842"/></filter><filter id="h" x="8.187" y="2.019" width="15.623" height="7.734" filterUnits="userSpaceOnUse" color-interpolation-filters="sRGB"><feFlood flood-opacity="0" result="BackgroundImageFix"/><feBlend in="SourceGraphic" in2="BackgroundImageFix" result="shape"/><feGaussianBlur stdDeviation=".625" result="effect1_foregroundBlur_18_15842"/></filter><filter id="n" x="16.388" y="12.72" width="2.375" height="2.375" filterUnits="userSpaceOnUse" color-interpolation-filters="sRGB"><feFlood flood-opacity="0" result="BackgroundImageFix"/><feBlend in="SourceGraphic" in2="BackgroundImageFix" result="shape"/><feColorMatrix in="SourceAlpha" values="0 0 0 0 0 0 0 0 0 0 0 0 0 0 0 0 0 0 127 0" result="hardAlpha"/><feOffset dx=".1" dy="-.1"/><feGaussianBlur stdDeviation=".25"/><feComposite in2="hardAlpha" operator="arithmetic" k2="-1" k3="1"/><feColorMatrix values="0 0 0 0 0.505882 0 0 0 0 0.745098 0 0 0 0 0.972549 0 0 0 1 0"/><feBlend in2="shape" result="effect1_innerShadow_18_15842"/></filter><filter id="q" x="11.731" y="6.4" width="13.747" height="5.62" filterUnits="userSpaceOnUse" color-interpolation-filters="sRGB"><feFlood flood-opacity="0" result="BackgroundImageFix"/><feBlend in="SourceGraphic" in2="BackgroundImageFix" result="shape"/><feColorMatrix in="SourceAlpha" values="0 0 0 0 0 0 0 0 0 0 0 0 0 0 0 0 0 0 127 0" result="hardAlpha"/><feOffset dy="-.3"/><feGaussianBlur stdDeviation=".625"/><feComposite in2="hardAlpha" operator="arithmetic" k2="-1" k3="1"/><feColorMatrix values="0 0 0 0 0.498039 0 0 0 0 0.741176 0 0 0 0 0.956863 0 0 0 1 0"/><feBlend in2="shape" result="effect1_innerShadow_18_15842"/></filter></defs></svg>