<svg width="38" height="38" fill="none" xmlns="http://www.w3.org/2000/svg"><path d="M22.494 31.775h-1.48c-.17 0-.29-.16-.24-.32l2.43-8.53h2l-2.47 8.67c-.03.11-.13.18-.24.18Z" fill="url(#a)"/><path d="M22.494 31.775h-1.48c-.17 0-.29-.16-.24-.32l2.43-8.53h2l-2.47 8.67c-.03.11-.13.18-.24.18Z" fill="url(#b)"/><g filter="url(#c)"><path d="m23.844 24.516-1.922 6.64" stroke="#6E6877" stroke-width=".25" stroke-linecap="round"/></g><g filter="url(#d)"><path d="M17.684 21.775h-2l1.98 6.91c.02.06.02.12 0 .17l-.76 2.59c-.05.17.07.33.23.33h1.48c.11 0 .21-.07.24-.18l.7-2.39c.08-.28.08-.58 0-.87l-1.87-6.56Z" fill="url(#e)"/><path d="M17.684 21.775h-2l1.98 6.91c.02.06.02.12 0 .17l-.76 2.59c-.05.17.07.33.23.33h1.48c.11 0 .21-.07.24-.18l.7-2.39c.08-.28.08-.58 0-.87l-1.87-6.56Z" fill="url(#f)"/><path d="M17.684 21.775h-2l1.98 6.91c.02.06.02.12 0 .17l-.76 2.59c-.05.17.07.33.23.33h1.48c.11 0 .21-.07.24-.18l.7-2.39c.08-.28.08-.58 0-.87l-1.87-6.56Z" fill="url(#g)"/><path d="M17.684 21.775h-2l1.98 6.91c.02.06.02.12 0 .17l-.76 2.59c-.05.17.07.33.23.33h1.48c.11 0 .21-.07.24-.18l.7-2.39c.08-.28.08-.58 0-.87l-1.87-6.56Z" fill="url(#h)"/></g><path d="M27.044 11.775h-3.76c-.62 0-1.2-.27-1.63-.72a3.931 3.931 0 0 0-2.92-1.28h-2c-.16 0-.31-.08-.39-.22l-.56-.96a3.629 3.629 0 0 0-3.15-1.82h-.89c-.78 0-1.55.23-2.2.67l-5.1 3.4c-.44.29-.71.79-.71 1.32 0 1.43 1.13 2.61 2.56 2.61h2.023a.5.5 0 0 1 .492.41l.655 3.62.68 3.9c.17.947.842 1.694 1.718 1.978.183.06.322.222.322.415v6.457c0 .14.11.25.25.25h1.5c.14 0 .25-.11.25-.25v-2.504a.4.4 0 0 1 .22-.357l.65-.329c.69-.35 1.13-1.05 1.13-1.82v-1.342a.4.4 0 0 1 .398-.4l5.542-.028c.502 0 .963-.142 1.36-.381a.177.177 0 0 1 .264.132 3.262 3.262 0 0 0 2.466 2.87l1.142.284a.5.5 0 0 1 .378.485v3.36c0 .14.11.25.25.25h1.5c.14 0 .25-.11.25-.25V22.47a.83.83 0 0 1 .328-.641c.032-.026.065-.052.096-.08.214-.178.576-.038.576.241v3.786h1v-9.31c0-2.59-2.1-4.69-4.69-4.69Z" fill="url(#i)"/><path d="M27.044 11.775h-3.76c-.62 0-1.2-.27-1.63-.72a3.931 3.931 0 0 0-2.92-1.28h-2c-.16 0-.31-.08-.39-.22l-.56-.96a3.629 3.629 0 0 0-3.15-1.82h-.89c-.78 0-1.55.23-2.2.67l-5.1 3.4c-.44.29-.71.79-.71 1.32 0 1.43 1.13 2.61 2.56 2.61h2.023a.5.5 0 0 1 .492.41l.655 3.62.68 3.9c.17.947.842 1.694 1.718 1.978.183.06.322.222.322.415v6.457c0 .14.11.25.25.25h1.5c.14 0 .25-.11.25-.25v-2.504a.4.4 0 0 1 .22-.357l.65-.329c.69-.35 1.13-1.05 1.13-1.82v-1.342a.4.4 0 0 1 .398-.4l5.542-.028c.502 0 .963-.142 1.36-.381a.177.177 0 0 1 .264.132 3.262 3.262 0 0 0 2.466 2.87l1.142.284a.5.5 0 0 1 .378.485v3.36c0 .14.11.25.25.25h1.5c.14 0 .25-.11.25-.25V22.47a.83.83 0 0 1 .328-.641c.032-.026.065-.052.096-.08.214-.178.576-.038.576.241v3.786h1v-9.31c0-2.59-2.1-4.69-4.69-4.69Z" fill="url(#j)"/><path d="M27.044 11.775h-3.76c-.62 0-1.2-.27-1.63-.72a3.931 3.931 0 0 0-2.92-1.28h-2c-.16 0-.31-.08-.39-.22l-.56-.96a3.629 3.629 0 0 0-3.15-1.82h-.89c-.78 0-1.55.23-2.2.67l-5.1 3.4c-.44.29-.71.79-.71 1.32 0 1.43 1.13 2.61 2.56 2.61h2.023a.5.5 0 0 1 .492.41l.655 3.62.68 3.9c.17.947.842 1.694 1.718 1.978.183.06.322.222.322.415v6.457c0 .14.11.25.25.25h1.5c.14 0 .25-.11.25-.25v-2.504a.4.4 0 0 1 .22-.357l.65-.329c.69-.35 1.13-1.05 1.13-1.82v-1.342a.4.4 0 0 1 .398-.4l5.542-.028c.502 0 .963-.142 1.36-.381a.177.177 0 0 1 .264.132 3.262 3.262 0 0 0 2.466 2.87l1.142.284a.5.5 0 0 1 .378.485v3.36c0 .14.11.25.25.25h1.5c.14 0 .25-.11.25-.25V22.47a.83.83 0 0 1 .328-.641c.032-.026.065-.052.096-.08.214-.178.576-.038.576.241v3.786h1v-9.31c0-2.59-2.1-4.69-4.69-4.69Z" fill="url(#k)"/><path d="M27.044 11.775h-3.76c-.62 0-1.2-.27-1.63-.72a3.931 3.931 0 0 0-2.92-1.28h-2c-.16 0-.31-.08-.39-.22l-.56-.96a3.629 3.629 0 0 0-3.15-1.82h-.89c-.78 0-1.55.23-2.2.67l-5.1 3.4c-.44.29-.71.79-.71 1.32 0 1.43 1.13 2.61 2.56 2.61h2.023a.5.5 0 0 1 .492.41l.655 3.62.68 3.9c.17.947.842 1.694 1.718 1.978.183.06.322.222.322.415v6.457c0 .14.11.25.25.25h1.5c.14 0 .25-.11.25-.25v-2.504a.4.4 0 0 1 .22-.357l.65-.329c.69-.35 1.13-1.05 1.13-1.82v-1.342a.4.4 0 0 1 .398-.4l5.542-.028c.502 0 .963-.142 1.36-.381a.177.177 0 0 1 .264.132 3.262 3.262 0 0 0 2.466 2.87l1.142.284a.5.5 0 0 1 .378.485v3.36c0 .14.11.25.25.25h1.5c.14 0 .25-.11.25-.25V22.47a.83.83 0 0 1 .328-.641c.032-.026.065-.052.096-.08.214-.178.576-.038.576.241v3.786h1v-9.31c0-2.59-2.1-4.69-4.69-4.69Z" fill="url(#l)" fill-opacity=".75"/><path d="M27.044 11.775h-3.76c-.62 0-1.2-.27-1.63-.72a3.931 3.931 0 0 0-2.92-1.28h-2c-.16 0-.31-.08-.39-.22l-.56-.96a3.629 3.629 0 0 0-3.15-1.82h-.89c-.78 0-1.55.23-2.2.67l-5.1 3.4c-.44.29-.71.79-.71 1.32 0 1.43 1.13 2.61 2.56 2.61h2.023a.5.5 0 0 1 .492.41l.655 3.62.68 3.9c.17.947.842 1.694 1.718 1.978.183.06.322.222.322.415v6.457c0 .14.11.25.25.25h1.5c.14 0 .25-.11.25-.25v-2.504a.4.4 0 0 1 .22-.357l.65-.329c.69-.35 1.13-1.05 1.13-1.82v-1.342a.4.4 0 0 1 .398-.4l5.542-.028c.502 0 .963-.142 1.36-.381a.177.177 0 0 1 .264.132 3.262 3.262 0 0 0 2.466 2.87l1.142.284a.5.5 0 0 1 .378.485v3.36c0 .14.11.25.25.25h1.5c.14 0 .25-.11.25-.25V22.47a.83.83 0 0 1 .328-.641c.032-.026.065-.052.096-.08.214-.178.576-.038.576.241v3.786h1v-9.31c0-2.59-2.1-4.69-4.69-4.69Z" fill="url(#m)"/><path d="M27.044 11.775h-3.76c-.62 0-1.2-.27-1.63-.72a3.931 3.931 0 0 0-2.92-1.28h-2c-.16 0-.31-.08-.39-.22l-.56-.96a3.629 3.629 0 0 0-3.15-1.82h-.89c-.78 0-1.55.23-2.2.67l-5.1 3.4c-.44.29-.71.79-.71 1.32 0 1.43 1.13 2.61 2.56 2.61h2.023a.5.5 0 0 1 .492.41l.655 3.62.68 3.9c.17.947.842 1.694 1.718 1.978.183.06.322.222.322.415v6.457c0 .14.11.25.25.25h1.5c.14 0 .25-.11.25-.25v-2.504a.4.4 0 0 1 .22-.357l.65-.329c.69-.35 1.13-1.05 1.13-1.82v-1.342a.4.4 0 0 1 .398-.4l5.542-.028c.502 0 .963-.142 1.36-.381a.177.177 0 0 1 .264.132 3.262 3.262 0 0 0 2.466 2.87l1.142.284a.5.5 0 0 1 .378.485v3.36c0 .14.11.25.25.25h1.5c.14 0 .25-.11.25-.25V22.47a.83.83 0 0 1 .328-.641c.032-.026.065-.052.096-.08.214-.178.576-.038.576.241v3.786h1v-9.31c0-2.59-2.1-4.69-4.69-4.69Z" fill="url(#n)"/><path d="M27.044 11.775h-3.76c-.62 0-1.2-.27-1.63-.72a3.931 3.931 0 0 0-2.92-1.28h-2c-.16 0-.31-.08-.39-.22l-.56-.96a3.629 3.629 0 0 0-3.15-1.82h-.89c-.78 0-1.55.23-2.2.67l-5.1 3.4c-.44.29-.71.79-.71 1.32 0 1.43 1.13 2.61 2.56 2.61h2.023a.5.5 0 0 1 .492.41l.655 3.62.68 3.9c.17.947.842 1.694 1.718 1.978.183.06.322.222.322.415v6.457c0 .14.11.25.25.25h1.5c.14 0 .25-.11.25-.25v-2.504a.4.4 0 0 1 .22-.357l.65-.329c.69-.35 1.13-1.05 1.13-1.82v-1.342a.4.4 0 0 1 .398-.4l5.542-.028c.502 0 .963-.142 1.36-.381a.177.177 0 0 1 .264.132 3.262 3.262 0 0 0 2.466 2.87l1.142.284a.5.5 0 0 1 .378.485v3.36c0 .14.11.25.25.25h1.5c.14 0 .25-.11.25-.25V22.47a.83.83 0 0 1 .328-.641c.032-.026.065-.052.096-.08.214-.178.576-.038.576.241v3.786h1v-9.31c0-2.59-2.1-4.69-4.69-4.69Z" fill="url(#o)"/><path d="M27.044 11.775h-3.76c-.62 0-1.2-.27-1.63-.72a3.931 3.931 0 0 0-2.92-1.28h-2c-.16 0-.31-.08-.39-.22l-.56-.96a3.629 3.629 0 0 0-3.15-1.82h-.89c-.78 0-1.55.23-2.2.67l-5.1 3.4c-.44.29-.71.79-.71 1.32 0 1.43 1.13 2.61 2.56 2.61h2.023a.5.5 0 0 1 .492.41l.655 3.62.68 3.9c.17.947.842 1.694 1.718 1.978.183.06.322.222.322.415v6.457c0 .14.11.25.25.25h1.5c.14 0 .25-.11.25-.25v-2.504a.4.4 0 0 1 .22-.357l.65-.329c.69-.35 1.13-1.05 1.13-1.82v-1.342a.4.4 0 0 1 .398-.4l5.542-.028c.502 0 .963-.142 1.36-.381a.177.177 0 0 1 .264.132 3.262 3.262 0 0 0 2.466 2.87l1.142.284a.5.5 0 0 1 .378.485v3.36c0 .14.11.25.25.25h1.5c.14 0 .25-.11.25-.25V22.47a.83.83 0 0 1 .328-.641c.032-.026.065-.052.096-.08.214-.178.576-.038.576.241v3.786h1v-9.31c0-2.59-2.1-4.69-4.69-4.69Z" fill="url(#p)"/><path d="M27.044 11.775h-3.76c-.62 0-1.2-.27-1.63-.72a3.931 3.931 0 0 0-2.92-1.28h-2c-.16 0-.31-.08-.39-.22l-.56-.96a3.629 3.629 0 0 0-3.15-1.82h-.89c-.78 0-1.55.23-2.2.67l-5.1 3.4c-.44.29-.71.79-.71 1.32 0 1.43 1.13 2.61 2.56 2.61h2.023a.5.5 0 0 1 .492.41l.655 3.62.68 3.9c.17.947.842 1.694 1.718 1.978.183.06.322.222.322.415v6.457c0 .14.11.25.25.25h1.5c.14 0 .25-.11.25-.25v-2.504a.4.4 0 0 1 .22-.357l.65-.329c.69-.35 1.13-1.05 1.13-1.82v-1.342a.4.4 0 0 1 .398-.4l5.542-.028c.502 0 .963-.142 1.36-.381a.177.177 0 0 1 .264.132 3.262 3.262 0 0 0 2.466 2.87l1.142.284a.5.5 0 0 1 .378.485v3.36c0 .14.11.25.25.25h1.5c.14 0 .25-.11.25-.25V22.47a.83.83 0 0 1 .328-.641c.032-.026.065-.052.096-.08.214-.178.576-.038.576.241v3.786h1v-9.31c0-2.59-2.1-4.69-4.69-4.69Z" fill="url(#q)"/><path d="M27.044 11.775h-3.76c-.62 0-1.2-.27-1.63-.72a3.931 3.931 0 0 0-2.92-1.28h-2c-.16 0-.31-.08-.39-.22l-.56-.96a3.629 3.629 0 0 0-3.15-1.82h-.89c-.78 0-1.55.23-2.2.67l-5.1 3.4c-.44.29-.71.79-.71 1.32 0 1.43 1.13 2.61 2.56 2.61h2.023a.5.5 0 0 1 .492.41l.655 3.62.68 3.9c.17.947.842 1.694 1.718 1.978.183.06.322.222.322.415v6.457c0 .14.11.25.25.25h1.5c.14 0 .25-.11.25-.25v-2.504a.4.4 0 0 1 .22-.357l.65-.329c.69-.35 1.13-1.05 1.13-1.82v-1.342a.4.4 0 0 1 .398-.4l5.542-.028c.502 0 .963-.142 1.36-.381a.177.177 0 0 1 .264.132 3.262 3.262 0 0 0 2.466 2.87l1.142.284a.5.5 0 0 1 .378.485v3.36c0 .14.11.25.25.25h1.5c.14 0 .25-.11.25-.25V22.47a.83.83 0 0 1 .328-.641c.032-.026.065-.052.096-.08.214-.178.576-.038.576.241v3.786h1v-9.31c0-2.59-2.1-4.69-4.69-4.69Z" fill="url(#r)"/><path d="M27.044 11.775h-3.76c-.62 0-1.2-.27-1.63-.72a3.931 3.931 0 0 0-2.92-1.28h-2c-.16 0-.31-.08-.39-.22l-.56-.96a3.629 3.629 0 0 0-3.15-1.82h-.89c-.78 0-1.55.23-2.2.67l-5.1 3.4c-.44.29-.71.79-.71 1.32 0 1.43 1.13 2.61 2.56 2.61h2.023a.5.5 0 0 1 .492.41l.655 3.62.68 3.9c.17.947.842 1.694 1.718 1.978.183.06.322.222.322.415v6.457c0 .14.11.25.25.25h1.5c.14 0 .25-.11.25-.25v-2.504a.4.4 0 0 1 .22-.357l.65-.329c.69-.35 1.13-1.05 1.13-1.82v-1.342a.4.4 0 0 1 .398-.4l5.542-.028c.502 0 .963-.142 1.36-.381a.177.177 0 0 1 .264.132 3.262 3.262 0 0 0 2.466 2.87l1.142.284a.5.5 0 0 1 .378.485v3.36c0 .14.11.25.25.25h1.5c.14 0 .25-.11.25-.25V22.47a.83.83 0 0 1 .328-.641c.032-.026.065-.052.096-.08.214-.178.576-.038.576.241v3.786h1v-9.31c0-2.59-2.1-4.69-4.69-4.69Z" fill="url(#s)"/><path d="M27.044 11.775h-3.76c-.62 0-1.2-.27-1.63-.72a3.931 3.931 0 0 0-2.92-1.28h-2c-.16 0-.31-.08-.39-.22l-.56-.96a3.629 3.629 0 0 0-3.15-1.82h-.89c-.78 0-1.55.23-2.2.67l-5.1 3.4c-.44.29-.71.79-.71 1.32 0 1.43 1.13 2.61 2.56 2.61h2.023a.5.5 0 0 1 .492.41l.655 3.62.68 3.9c.17.947.842 1.694 1.718 1.978.183.06.322.222.322.415v6.457c0 .14.11.25.25.25h1.5c.14 0 .25-.11.25-.25v-2.504a.4.4 0 0 1 .22-.357l.65-.329c.69-.35 1.13-1.05 1.13-1.82v-1.342a.4.4 0 0 1 .398-.4l5.542-.028c.502 0 .963-.142 1.36-.381a.177.177 0 0 1 .264.132 3.262 3.262 0 0 0 2.466 2.87l1.142.284a.5.5 0 0 1 .378.485v3.36c0 .14.11.25.25.25h1.5c.14 0 .25-.11.25-.25V22.47a.83.83 0 0 1 .328-.641c.032-.026.065-.052.096-.08.214-.178.576-.038.576.241v3.786h1v-9.31c0-2.59-2.1-4.69-4.69-4.69Z" fill="url(#t)"/><path d="M27.044 11.775h-3.76c-.62 0-1.2-.27-1.63-.72a3.931 3.931 0 0 0-2.92-1.28h-2c-.16 0-.31-.08-.39-.22l-.56-.96a3.629 3.629 0 0 0-3.15-1.82h-.89c-.78 0-1.55.23-2.2.67l-5.1 3.4c-.44.29-.71.79-.71 1.32 0 1.43 1.13 2.61 2.56 2.61h2.023a.5.5 0 0 1 .492.41l.655 3.62.68 3.9c.17.947.842 1.694 1.718 1.978.183.06.322.222.322.415v6.457c0 .14.11.25.25.25h1.5c.14 0 .25-.11.25-.25v-2.504a.4.4 0 0 1 .22-.357l.65-.329c.69-.35 1.13-1.05 1.13-1.82v-1.342a.4.4 0 0 1 .398-.4l5.542-.028c.502 0 .963-.142 1.36-.381a.177.177 0 0 1 .264.132 3.262 3.262 0 0 0 2.466 2.87l1.142.284a.5.5 0 0 1 .378.485v3.36c0 .14.11.25.25.25h1.5c.14 0 .25-.11.25-.25V22.47a.83.83 0 0 1 .328-.641c.032-.026.065-.052.096-.08.214-.178.576-.038.576.241v3.786h1v-9.31c0-2.59-2.1-4.69-4.69-4.69Z" fill="url(#u)"/><g filter="url(#v)"><path d="m16.203 10-1.281-2.094-2.531.188.906 4.328L16.203 10Z" fill="url(#w)"/></g><g filter="url(#x)"><path d="M12.969 10.098c-.507-.564-1.432-.481-1.472.276a2.601 2.601 0 0 0 2.456 2.736c.761.04.94-.868.432-1.435l-1.416-1.577Z" fill="#4C4656"/></g><path d="M12.586 9.397c-.227-.227-.608-.184-.712.12a2.601 2.601 0 0 0 3.307 3.299c.3-.105.342-.483.117-.707l-2.712-2.712Z" fill="url(#y)"/><path d="M12.586 9.397c-.227-.227-.608-.184-.712.12a2.601 2.601 0 0 0 3.307 3.299c.3-.105.342-.483.117-.707l-2.712-2.712Z" fill="url(#z)"/><path d="M12.586 9.397c-.227-.227-.608-.184-.712.12a2.601 2.601 0 0 0 3.307 3.299c.3-.105.342-.483.117-.707l-2.712-2.712Z" fill="url(#A)"/><path d="M12.586 9.397c-.227-.227-.608-.184-.712.12a2.601 2.601 0 0 0 3.307 3.299c.3-.105.342-.483.117-.707l-2.712-2.712Z" fill="url(#B)"/><path d="M12.586 9.397c-.227-.227-.608-.184-.712.12a2.601 2.601 0 0 0 3.307 3.299c.3-.105.342-.483.117-.707l-2.712-2.712Z" fill="url(#C)"/><path d="M12.586 9.397c-.227-.227-.608-.184-.712.12a2.601 2.601 0 0 0 3.307 3.299c.3-.105.342-.483.117-.707l-2.712-2.712Z" fill="url(#D)"/><path d="M12.586 9.397c-.227-.227-.608-.184-.712.12a2.601 2.601 0 0 0 3.307 3.299c.3-.105.342-.483.117-.707l-2.712-2.712Z" fill="url(#E)"/><path d="M3.734 12.165c0 1.43 1.13 2.61 2.56 2.61h1.39v-2.36c0-1.17-.75-2.17-1.8-2.53l-1.44.96c-.44.29-.71.79-.71 1.32Z" fill="url(#F)"/><path d="M3.734 12.165c0 1.43 1.13 2.61 2.56 2.61h1.39v-2.36c0-1.17-.75-2.17-1.8-2.53l-1.44.96c-.44.29-.71.79-.71 1.32Z" fill="url(#G)"/><path d="M5.274 12.685c0 .313.247.56.56.56.313 0 .56-.247.56-.56v-.55a.555.555 0 0 0-.56-.56.555.555 0 0 0-.56.56v.55Z" fill="url(#H)" stroke="url(#I)" stroke-width=".12"/><g filter="url(#J)"><path d="M10.473 8.099c0-.528.428-.956.956-.956h2.594v.912a1 1 0 0 1-1 1H11.43a.956.956 0 0 1-.956-.956Z" fill="#44414A"/></g><path d="M15.514 3.775h-2.26c-.27 0-.5.2-.52.47-.02.29.21.53.5.53h1.31c.09 0 .16.1.12.18-.43.99-1.51 1.8-2.63 1.82h-.3c-.55 0-1 .45-1 1s.45 1 1 1h1c2-.09 4-1.78 4-3.78 0-.68-.54-1.22-1.22-1.22Z" fill="#9C9BA4"/><path d="M15.514 3.775h-2.26c-.27 0-.5.2-.52.47-.02.29.21.53.5.53h1.31c.09 0 .16.1.12.18-.43.99-1.51 1.8-2.63 1.82h-.3c-.55 0-1 .45-1 1s.45 1 1 1h1c2-.09 4-1.78 4-3.78 0-.68-.54-1.22-1.22-1.22Z" fill="url(#K)"/><path d="M15.514 3.775h-2.26c-.27 0-.5.2-.52.47-.02.29.21.53.5.53h1.31c.09 0 .16.1.12.18-.43.99-1.51 1.8-2.63 1.82h-.3c-.55 0-1 .45-1 1s.45 1 1 1h1c2-.09 4-1.78 4-3.78 0-.68-.54-1.22-1.22-1.22Z" fill="url(#L)"/><path d="M15.514 3.775h-2.26c-.27 0-.5.2-.52.47-.02.29.21.53.5.53h1.31c.09 0 .16.1.12.18-.43.99-1.51 1.8-2.63 1.82h-.3c-.55 0-1 .45-1 1s.45 1 1 1h1c2-.09 4-1.78 4-3.78 0-.68-.54-1.22-1.22-1.22Z" fill="url(#M)"/><path d="M15.514 3.775h-2.26c-.27 0-.5.2-.52.47-.02.29.21.53.5.53h1.31c.09 0 .16.1.12.18-.43.99-1.51 1.8-2.63 1.82h-.3c-.55 0-1 .45-1 1s.45 1 1 1h1c2-.09 4-1.78 4-3.78 0-.68-.54-1.22-1.22-1.22Z" fill="url(#N)"/><path d="M15.074 3.775c-.19.702-.432 1.295-.597 1.537.071-.115.134-.235.187-.357.04-.08-.03-.18-.12-.18h-1.31c-.29 0-.52-.24-.5-.53.02-.27.25-.47.52-.47h1.82Z" fill="url(#O)"/><path d="M15.074 3.775c-.19.702-.432 1.295-.597 1.537.071-.115.134-.235.187-.357.04-.08-.03-.18-.12-.18h-1.31c-.29 0-.52-.24-.5-.53.02-.27.25-.47.52-.47h1.82Z" fill="url(#P)"/><g filter="url(#Q)"><path d="M8.486 10.326a.484.484 0 1 1 .969 0v.991a.484.484 0 0 1-.969 0v-.991Z" fill="#4C4656"/></g><rect x="8.734" y="9.775" width=".969" height="1.96" rx=".484" fill="url(#R)"/><rect x="8.734" y="9.775" width=".969" height="1.96" rx=".484" fill="url(#S)"/><rect x="8.734" y="9.775" width=".969" height="1.96" rx=".484" fill="url(#T)"/><g filter="url(#U)"><path d="m12.328 9.64 2.656 2.704" stroke="url(#V)" stroke-width=".1"/></g><g filter="url(#W)"><path d="M16.047 4.734c-.188 1.157-1.575 3.11-4.5 3.11" stroke="#C0C0C7" stroke-width=".25"/></g><g filter="url(#X)"><ellipse cx="16.018" cy="4.903" rx=".448" ry=".598" transform="rotate(26.272 16.018 4.903)" fill="url(#Y)"/></g><g filter="url(#Z)"><ellipse cx="19.75" cy="12.884" rx="1.953" ry="2.523" transform="rotate(-21.931 19.75 12.884)" fill="url(#aa)"/></g><g filter="url(#ab)"><ellipse cx="28.375" cy="15.494" rx="3.184" ry="2.523" transform="rotate(43.388 28.375 15.494)" fill="url(#ac)"/></g><g filter="url(#ad)"><path d="M29.234 21.875v9.156l-1.937-9.156h1.937Z" fill="url(#ae)"/></g><path d="M27.727 21.531h-2.149l-1.911 2.867a.169.169 0 0 1 .081.128 3.262 3.262 0 0 0 2.466 2.87l1.142.284a.5.5 0 0 1 .37.397v-6.546Z" fill="url(#af)"/><g filter="url(#ag)"><path d="M13.94 24.472h1.654v2.994l-1.653.968v-3.962Z" fill="url(#ah)"/></g><g filter="url(#ai)"><path d="M17.938 25.344 19 28.734l-.75 2.547" stroke="#6E6877" stroke-width=".25" stroke-linecap="round"/></g><g filter="url(#aj)"><path d="M31.438 25.188v-6.22" stroke="url(#ak)" stroke-width=".25" stroke-linecap="round"/></g><path d="M31.24 28.713c.267.068.494-.162.494-.438v-3.5c-1.1 0-2 .9-2 2 0 .93.643 1.716 1.505 1.938Z" fill="url(#al)"/><path d="M31.24 28.713c.267.068.494-.162.494-.438v-3.5c-1.1 0-2 .9-2 2 0 .93.643 1.716 1.505 1.938Z" fill="url(#am)"/><path d="M31.24 28.713c.267.068.494-.162.494-.438v-3.5c-1.1 0-2 .9-2 2 0 .93.643 1.716 1.505 1.938Z" fill="url(#an)"/><g filter="url(#ao)"><path d="M31.32 25.405v2.672" stroke="#7F7B85" stroke-width=".15" stroke-linecap="round"/></g><defs><radialGradient id="l" cx="0" cy="0" r="1" gradientUnits="userSpaceOnUse" gradientTransform="rotate(101.464 2.878 7.306) scale(4.55972 3.14895)"><stop stop-color="#44414A"/><stop offset="1" stop-color="#44414A" stop-opacity="0"/></radialGradient><radialGradient id="o" cx="0" cy="0" r="1" gradientUnits="userSpaceOnUse" gradientTransform="matrix(-2 -2.8125 1.95807 -1.3924 15.86 29.563)"><stop stop-color="#492E63"/><stop offset="1" stop-color="#5B3E76" stop-opacity="0"/></radialGradient><radialGradient id="p" cx="0" cy="0" r="1" gradientUnits="userSpaceOnUse" gradientTransform="matrix(3.78125 -2.8125 1.49585 2.01109 9.86 25.531)"><stop stop-color="#492E63"/><stop offset="1" stop-color="#5B3E76" stop-opacity="0"/></radialGradient><radialGradient id="q" cx="0" cy="0" r="1" gradientUnits="userSpaceOnUse" gradientTransform="rotate(-129.992 16.6 8.98) scale(8.60652 5.01512)"><stop stop-color="#492E63"/><stop offset="1" stop-color="#5B3E76" stop-opacity="0"/></radialGradient><radialGradient id="r" cx="0" cy="0" r="1" gradientUnits="userSpaceOnUse" gradientTransform="matrix(1.51562 -2.54688 1.82958 1.08877 23.063 25.766)"><stop stop-color="#483E56"/><stop offset=".801" stop-color="#483E56" stop-opacity="0"/></radialGradient><radialGradient id="s" cx="0" cy="0" r="1" gradientUnits="userSpaceOnUse" gradientTransform="matrix(.375 -4.60937 1.5766 .12826 30.453 24.156)"><stop stop-color="#483E56"/><stop offset="1" stop-color="#483E56" stop-opacity="0"/></radialGradient><radialGradient id="t" cx="0" cy="0" r="1" gradientUnits="userSpaceOnUse" gradientTransform="matrix(2.6875 -3.90625 2.10786 1.4502 21.89 27.125)"><stop stop-color="#492E63"/><stop offset="1" stop-color="#5B3E76" stop-opacity="0"/></radialGradient><radialGradient id="u" cx="0" cy="0" r="1" gradientUnits="userSpaceOnUse" gradientTransform="matrix(3.29687 -3.57812 1.93686 1.78462 6.297 15.906)"><stop offset=".217" stop-color="#492E63"/><stop offset="1" stop-color="#5B3E76" stop-opacity="0"/></radialGradient><radialGradient id="y" cx="0" cy="0" r="1" gradientUnits="userSpaceOnUse" gradientTransform="matrix(-1.78125 1.82812 -3.12353 -3.04345 14.36 10.516)"><stop stop-color="#7D5953"/><stop offset="0" stop-color="#545456"/><stop offset="1" stop-color="#46424C"/></radialGradient><radialGradient id="z" cx="0" cy="0" r="1" gradientUnits="userSpaceOnUse" gradientTransform="rotate(130.462 4.537 8.65) scale(2.09475 2.88998)"><stop offset=".475" stop-color="#46434C" stop-opacity="0"/><stop offset="1" stop-color="#46434C"/></radialGradient><radialGradient id="A" cx="0" cy="0" r="1" gradientUnits="userSpaceOnUse" gradientTransform="rotate(-152.674 8.946 4.362) scale(3.02508 4.64294)"><stop stop-color="#46434C"/><stop offset="1" stop-color="#46434C" stop-opacity="0"/></radialGradient><radialGradient id="B" cx="0" cy="0" r="1" gradientUnits="userSpaceOnUse" gradientTransform="matrix(-1.53125 1.71875 -2.23438 -1.99062 13.969 10.781)"><stop offset=".761" stop-color="#281C33" stop-opacity="0"/><stop offset="1" stop-color="#49375B"/></radialGradient><radialGradient id="C" cx="0" cy="0" r="1" gradientUnits="userSpaceOnUse" gradientTransform="matrix(-.6406 2.75 -3.57651 -.83314 14.234 10.406)"><stop offset=".655" stop-color="#281C33" stop-opacity="0"/><stop offset="1" stop-color="#483060"/></radialGradient><radialGradient id="D" cx="0" cy="0" r="1" gradientUnits="userSpaceOnUse" gradientTransform="matrix(-.67969 -.1875 .10787 -.39103 15.469 12.531)"><stop stop-color="#6B6B6D"/><stop offset="1" stop-color="#6B6B6D" stop-opacity="0"/></radialGradient><radialGradient id="E" cx="0" cy="0" r="1" gradientUnits="userSpaceOnUse" gradientTransform="matrix(-1.6875 -1.35936 .9392 -1.16591 15.422 13.781)"><stop stop-color="#483060"/><stop offset="1" stop-color="#281C33" stop-opacity="0"/></radialGradient><radialGradient id="F" cx="0" cy="0" r="1" gradientUnits="userSpaceOnUse" gradientTransform="matrix(-2.09373 3.06251 -3.80232 -2.5995 7.328 11.031)"><stop stop-color="#4C4D4F"/><stop offset="1" stop-color="#3B393E"/></radialGradient><radialGradient id="G" cx="0" cy="0" r="1" gradientUnits="userSpaceOnUse" gradientTransform="matrix(-1.31247 -3.28126 5.27362 -2.1094 6.734 15.313)"><stop stop-color="#4B3560"/><stop offset="1" stop-color="#4B3560" stop-opacity="0"/></radialGradient><radialGradient id="H" cx="0" cy="0" r="1" gradientUnits="userSpaceOnUse" gradientTransform="matrix(.5 0 0 .82047 5.617 12.516)"><stop stop-color="#3E3D40"/><stop offset="1" stop-color="#1D1D20"/></radialGradient><radialGradient id="I" cx="0" cy="0" r="1" gradientUnits="userSpaceOnUse" gradientTransform="matrix(.82812 -.92968 2.39657 2.13476 5.125 13.094)"><stop stop-color="#57555C"/><stop offset="1" stop-color="#4A375C" stop-opacity="0"/></radialGradient><radialGradient id="K" cx="0" cy="0" r="1" gradientUnits="userSpaceOnUse" gradientTransform="matrix(.10938 3.53125 -5.53245 .17136 12.453 5.453)"><stop offset=".739" stop-color="#82729A" stop-opacity="0"/><stop offset="1" stop-color="#82729A"/></radialGradient><radialGradient id="L" cx="0" cy="0" r="1" gradientUnits="userSpaceOnUse" gradientTransform="rotate(48.531 .672 18.235) scale(.82583 1.88093)"><stop stop-color="#808089"/><stop offset="1" stop-color="#808089" stop-opacity="0"/></radialGradient><radialGradient id="N" cx="0" cy="0" r="1" gradientUnits="userSpaceOnUse" gradientTransform="matrix(2.46875 2 -3.58073 4.41996 13.219 5.89)"><stop offset=".838" stop-color="#808089" stop-opacity="0"/><stop offset="1" stop-color="#808089"/></radialGradient><radialGradient id="Y" cx="0" cy="0" r="1" gradientUnits="userSpaceOnUse" gradientTransform="matrix(.02118 .9575 -.4931 .0109 15.996 4.543)"><stop stop-color="#C4C4C4"/><stop offset="1" stop-color="#C4C4C4" stop-opacity="0"/></radialGradient><radialGradient id="aa" cx="0" cy="0" r="1" gradientUnits="userSpaceOnUse" gradientTransform="matrix(-.55715 5.39986 -3.70835 -.38262 20.273 9.785)"><stop stop-color="#808085"/><stop offset="1" stop-color="#808085" stop-opacity="0"/></radialGradient><radialGradient id="ac" cx="0" cy="0" r="1" gradientUnits="userSpaceOnUse" gradientTransform="matrix(.05846 5.38441 -2.84925 .03093 28.396 12.537)"><stop stop-color="#808085"/><stop offset="1" stop-color="#808085" stop-opacity="0"/></radialGradient><radialGradient id="af" cx="0" cy="0" r="1" gradientUnits="userSpaceOnUse" gradientTransform="rotate(105.051 4.474 22.495) scale(3.85086 5.73688)"><stop offset=".644" stop-color="#5B3E76" stop-opacity="0"/><stop offset="1" stop-color="#492E63"/></radialGradient><radialGradient id="al" cx="0" cy="0" r="1" gradientUnits="userSpaceOnUse" gradientTransform="matrix(-2.59376 -1.49998 5.22527 -9.03549 32.328 27.016)"><stop stop-color="#6E6977"/><stop offset="1" stop-color="#4E4C53"/></radialGradient><radialGradient id="am" cx="0" cy="0" r="1" gradientUnits="userSpaceOnUse" gradientTransform="matrix(-.1875 4.32812 -2.65488 -.11501 31.453 24.61)"><stop offset=".76" stop-color="#5D4875" stop-opacity="0"/><stop offset="1" stop-color="#5D4875"/></radialGradient><radialGradient id="an" cx="0" cy="0" r="1" gradientUnits="userSpaceOnUse" gradientTransform="rotate(111.682 7.643 23.122) scale(1.39562 .95286)"><stop stop-color="#9E9D9F"/><stop offset="1" stop-color="#9E9D9F" stop-opacity="0"/></radialGradient><linearGradient id="a" x1="22.984" y1="24.593" x2="22.984" y2="31.458" gradientUnits="userSpaceOnUse"><stop offset=".079" stop-color="#2C2238"/><stop offset="1" stop-color="#5D5768"/></linearGradient><linearGradient id="b" x1="23.709" y1="29.612" x2="23.734" y2="31.922" gradientUnits="userSpaceOnUse"><stop offset=".644" stop-color="#5B3E76" stop-opacity="0"/><stop offset=".949" stop-color="#5B3E76"/></linearGradient><linearGradient id="e" x1="17.649" y1="19.063" x2="17.649" y2="29.5" gradientUnits="userSpaceOnUse"><stop stop-color="#2C2238"/><stop offset="1" stop-color="#5D5768"/></linearGradient><linearGradient id="f" x1="18.291" y1="29.331" x2="18.328" y2="31.941" gradientUnits="userSpaceOnUse"><stop offset=".644" stop-color="#5B3E76" stop-opacity="0"/><stop offset=".949" stop-color="#5B3E76"/></linearGradient><linearGradient id="g" x1="17.297" y1="22.625" x2="18.328" y2="26.188" gradientUnits="userSpaceOnUse"><stop stop-color="#2C2238"/><stop offset="1" stop-color="#2C2238" stop-opacity="0"/></linearGradient><linearGradient id="h" x1="19.614" y1="25.688" x2="18.344" y2="26.203" gradientUnits="userSpaceOnUse"><stop stop-color="#2C2238"/><stop offset="1" stop-color="#2C2238" stop-opacity="0"/></linearGradient><linearGradient id="i" x1="24.047" y1="12.25" x2="24.047" y2="27.938" gradientUnits="userSpaceOnUse"><stop stop-color="#6D6975"/><stop offset="1" stop-color="#676073"/></linearGradient><linearGradient id="j" x1="8.516" y1="6.125" x2="13.641" y2="12.188" gradientUnits="userSpaceOnUse"><stop stop-color="#5E5F62"/><stop offset="1" stop-color="#5E5F62" stop-opacity="0"/></linearGradient><linearGradient id="k" x1="7.297" y1="18.125" x2="12.984" y2="17.188" gradientUnits="userSpaceOnUse"><stop stop-color="#5E5F62"/><stop offset="1" stop-color="#5E5F62" stop-opacity="0"/></linearGradient><linearGradient id="m" x1="23.984" y1="5.625" x2="21.359" y2="15.25" gradientUnits="userSpaceOnUse"><stop stop-color="#57585B"/><stop offset=".988" stop-color="#57585B" stop-opacity="0"/></linearGradient><linearGradient id="n" x1="22.305" y1="25.688" x2="22.305" y2="32.469" gradientUnits="userSpaceOnUse"><stop offset=".788" stop-color="#5B3E76" stop-opacity="0"/><stop offset=".919" stop-color="#5B3E76"/></linearGradient><linearGradient id="w" x1="16.063" y1="9.406" x2="13.371" y2="11.173" gradientUnits="userSpaceOnUse"><stop stop-color="#808085"/><stop offset="1" stop-color="#808085" stop-opacity="0"/></linearGradient><linearGradient id="M" x1="9.203" y1="7.281" x2="13.501" y2="6.59" gradientUnits="userSpaceOnUse"><stop stop-color="#808089"/><stop offset="1" stop-color="#808089" stop-opacity="0"/></linearGradient><linearGradient id="O" x1="13.447" y1="3.375" x2="13.422" y2="4.992" gradientUnits="userSpaceOnUse"><stop offset=".575" stop-color="#82729A" stop-opacity="0"/><stop offset="1" stop-color="#766392"/></linearGradient><linearGradient id="P" x1="12.438" y1="4.641" x2="13.813" y2="4.641" gradientUnits="userSpaceOnUse"><stop stop-color="#808089"/><stop offset="1" stop-color="#808089" stop-opacity="0"/></linearGradient><linearGradient id="R" x1="9.547" y1="10.755" x2="8.953" y2="10.755" gradientUnits="userSpaceOnUse"><stop stop-color="#574D50"/><stop offset=".855" stop-color="#31232C"/></linearGradient><linearGradient id="S" x1="9.854" y1="11.955" x2="9.854" y2="11.244" gradientUnits="userSpaceOnUse"><stop stop-color="#552D52"/><stop offset="1" stop-color="#552D52" stop-opacity="0"/></linearGradient><linearGradient id="T" x1="8.531" y1="10.875" x2="8.969" y2="10.875" gradientUnits="userSpaceOnUse"><stop stop-color="#574D50"/><stop offset="1" stop-color="#574D50" stop-opacity="0"/></linearGradient><linearGradient id="V" x1="12.438" y1="9.734" x2="14.641" y2="11.969" gradientUnits="userSpaceOnUse"><stop stop-color="#7E7B82"/><stop offset="1" stop-color="#727076" stop-opacity="0"/></linearGradient><linearGradient id="ae" x1="29.234" y1="26.031" x2="29.234" y2="13.031" gradientUnits="userSpaceOnUse"><stop stop-color="#7B7882"/><stop offset="1" stop-color="#7B7882" stop-opacity="0"/></linearGradient><linearGradient id="ah" x1="15.594" y1="26.044" x2="15.594" y2="21.128" gradientUnits="userSpaceOnUse"><stop stop-color="#7A7682"/><stop offset="1" stop-color="#7A7682" stop-opacity="0"/></linearGradient><linearGradient id="ak" x1="32.869" y1="25.188" x2="32.869" y2="17.807" gradientUnits="userSpaceOnUse"><stop stop-color="#797481"/><stop offset="1" stop-color="#797481" stop-opacity="0"/></linearGradient><filter id="c" x="21.147" y="23.741" width="3.472" height="8.191" filterUnits="userSpaceOnUse" color-interpolation-filters="sRGB"><feFlood flood-opacity="0" result="BackgroundImageFix"/><feBlend in="SourceGraphic" in2="BackgroundImageFix" result="shape"/><feGaussianBlur stdDeviation=".325" result="effect1_foregroundBlur_28327_2889"/></filter><filter id="d" x="15.684" y="21.725" width="4.08" height="10.05" filterUnits="userSpaceOnUse" color-interpolation-filters="sRGB"><feFlood flood-opacity="0" result="BackgroundImageFix"/><feBlend in="SourceGraphic" in2="BackgroundImageFix" result="shape"/><feColorMatrix in="SourceAlpha" values="0 0 0 0 0 0 0 0 0 0 0 0 0 0 0 0 0 0 127 0" result="hardAlpha"/><feOffset dx=".15" dy="-.05"/><feGaussianBlur stdDeviation=".375"/><feComposite in2="hardAlpha" operator="arithmetic" k2="-1" k3="1"/><feColorMatrix values="0 0 0 0 0.172549 0 0 0 0 0.133333 0 0 0 0 0.219608 0 0 0 1 0"/><feBlend in2="shape" result="effect1_innerShadow_28327_2889"/></filter><filter id="v" x="11.391" y="6.906" width="5.813" height="6.516" filterUnits="userSpaceOnUse" color-interpolation-filters="sRGB"><feFlood flood-opacity="0" result="BackgroundImageFix"/><feBlend in="SourceGraphic" in2="BackgroundImageFix" result="shape"/><feGaussianBlur stdDeviation=".5" result="effect1_foregroundBlur_28327_2889"/></filter><filter id="x" x="10.993" y="9.231" width="4.18" height="4.38" filterUnits="userSpaceOnUse" color-interpolation-filters="sRGB"><feFlood flood-opacity="0" result="BackgroundImageFix"/><feBlend in="SourceGraphic" in2="BackgroundImageFix" result="shape"/><feGaussianBlur stdDeviation=".25" result="effect1_foregroundBlur_28327_2889"/></filter><filter id="J" x="9.823" y="6.493" width="4.851" height="3.212" filterUnits="userSpaceOnUse" color-interpolation-filters="sRGB"><feFlood flood-opacity="0" result="BackgroundImageFix"/><feBlend in="SourceGraphic" in2="BackgroundImageFix" result="shape"/><feGaussianBlur stdDeviation=".325" result="effect1_foregroundBlur_28327_2889"/></filter><filter id="Q" x="7.986" y="9.341" width="1.969" height="2.96" filterUnits="userSpaceOnUse" color-interpolation-filters="sRGB"><feFlood flood-opacity="0" result="BackgroundImageFix"/><feBlend in="SourceGraphic" in2="BackgroundImageFix" result="shape"/><feGaussianBlur stdDeviation=".25" result="effect1_foregroundBlur_28327_2889"/></filter><filter id="U" x="11.893" y="9.206" width="3.528" height="3.573" filterUnits="userSpaceOnUse" color-interpolation-filters="sRGB"><feFlood flood-opacity="0" result="BackgroundImageFix"/><feBlend in="SourceGraphic" in2="BackgroundImageFix" result="shape"/><feGaussianBlur stdDeviation=".2" result="effect1_foregroundBlur_28327_2889"/></filter><filter id="W" x="10.547" y="3.714" width="6.623" height="5.254" filterUnits="userSpaceOnUse" color-interpolation-filters="sRGB"><feFlood flood-opacity="0" result="BackgroundImageFix"/><feBlend in="SourceGraphic" in2="BackgroundImageFix" result="shape"/><feGaussianBlur stdDeviation=".5" result="effect1_foregroundBlur_28327_2889"/></filter><filter id="X" x="15.036" y="3.832" width="1.962" height="2.143" filterUnits="userSpaceOnUse" color-interpolation-filters="sRGB"><feFlood flood-opacity="0" result="BackgroundImageFix"/><feBlend in="SourceGraphic" in2="BackgroundImageFix" result="shape"/><feGaussianBlur stdDeviation=".25" result="effect1_foregroundBlur_28327_2889"/></filter><filter id="Z" x="16.707" y="9.432" width="6.085" height="6.904" filterUnits="userSpaceOnUse" color-interpolation-filters="sRGB"><feFlood flood-opacity="0" result="BackgroundImageFix"/><feBlend in="SourceGraphic" in2="BackgroundImageFix" result="shape"/><feGaussianBlur stdDeviation=".5" result="effect1_foregroundBlur_28327_2889"/></filter><filter id="ab" x="24.234" y="11.39" width="8.282" height="8.207" filterUnits="userSpaceOnUse" color-interpolation-filters="sRGB"><feFlood flood-opacity="0" result="BackgroundImageFix"/><feBlend in="SourceGraphic" in2="BackgroundImageFix" result="shape"/><feGaussianBlur stdDeviation=".625" result="effect1_foregroundBlur_28327_2889"/></filter><filter id="ad" x="26.297" y="20.875" width="3.938" height="11.156" filterUnits="userSpaceOnUse" color-interpolation-filters="sRGB"><feFlood flood-opacity="0" result="BackgroundImageFix"/><feBlend in="SourceGraphic" in2="BackgroundImageFix" result="shape"/><feGaussianBlur stdDeviation=".5" result="effect1_foregroundBlur_28327_2889"/></filter><filter id="ag" x="12.941" y="23.472" width="3.653" height="5.962" filterUnits="userSpaceOnUse" color-interpolation-filters="sRGB"><feFlood flood-opacity="0" result="BackgroundImageFix"/><feBlend in="SourceGraphic" in2="BackgroundImageFix" result="shape"/><feGaussianBlur stdDeviation=".5" result="effect1_foregroundBlur_28327_2889"/></filter><filter id="ai" x="17.312" y="24.719" width="2.318" height="7.188" filterUnits="userSpaceOnUse" color-interpolation-filters="sRGB"><feFlood flood-opacity="0" result="BackgroundImageFix"/><feBlend in="SourceGraphic" in2="BackgroundImageFix" result="shape"/><feGaussianBlur stdDeviation=".25" result="effect1_foregroundBlur_28327_2889"/></filter><filter id="aj" x="31.063" y="18.594" width=".75" height="6.969" filterUnits="userSpaceOnUse" color-interpolation-filters="sRGB"><feFlood flood-opacity="0" result="BackgroundImageFix"/><feBlend in="SourceGraphic" in2="BackgroundImageFix" result="shape"/><feGaussianBlur stdDeviation=".125" result="effect1_foregroundBlur_28327_2889"/></filter><filter id="ao" x="30.845" y="24.93" width=".95" height="3.622" filterUnits="userSpaceOnUse" color-interpolation-filters="sRGB"><feFlood flood-opacity="0" result="BackgroundImageFix"/><feBlend in="SourceGraphic" in2="BackgroundImageFix" result="shape"/><feGaussianBlur stdDeviation=".2" result="effect1_foregroundBlur_28327_2889"/></filter></defs></svg>