<svg xmlns="http://www.w3.org/2000/svg" fill="none" viewBox="0 0 32 32"><g clip-path="url(#weary-face_svg__a)"><path fill="url(#weary-face_svg__b)" d="M15.999 29.998c9.334 0 13.999-6.268 13.999-14 0-7.73-4.665-13.998-14-13.998C6.665 2 2 8.268 2 15.999s4.664 13.999 13.999 13.999"/><path fill="url(#weary-face_svg__c)" d="M15.999 29.998c9.334 0 13.999-6.268 13.999-14 0-7.73-4.665-13.998-14-13.998C6.665 2 2 8.268 2 15.999s4.664 13.999 13.999 13.999"/><path fill="url(#weary-face_svg__d)" d="M15.999 29.998c9.334 0 13.999-6.268 13.999-14 0-7.73-4.665-13.998-14-13.998C6.665 2 2 8.268 2 15.999s4.664 13.999 13.999 13.999"/><path fill="url(#weary-face_svg__e)" fill-opacity=".6" d="M15.999 29.998c9.334 0 13.999-6.268 13.999-14 0-7.73-4.665-13.998-14-13.998C6.665 2 2 8.268 2 15.999s4.664 13.999 13.999 13.999"/><path fill="url(#weary-face_svg__f)" d="M15.999 29.998c9.334 0 13.999-6.268 13.999-14 0-7.73-4.665-13.998-14-13.998C6.665 2 2 8.268 2 15.999s4.664 13.999 13.999 13.999"/><path fill="url(#weary-face_svg__g)" d="M15.999 29.998c9.334 0 13.999-6.268 13.999-14 0-7.73-4.665-13.998-14-13.998C6.665 2 2 8.268 2 15.999s4.664 13.999 13.999 13.999"/><path fill="url(#weary-face_svg__h)" d="M15.999 29.998c9.334 0 13.999-6.268 13.999-14 0-7.73-4.665-13.998-14-13.998C6.665 2 2 8.268 2 15.999s4.664 13.999 13.999 13.999"/><path fill="url(#weary-face_svg__i)" d="M15.999 29.998c9.334 0 13.999-6.268 13.999-14 0-7.73-4.665-13.998-14-13.998C6.665 2 2 8.268 2 15.999s4.664 13.999 13.999 13.999"/><path stroke="url(#weary-face_svg__j)" stroke-linecap="round" stroke-linejoin="round" stroke-width="2" d="M7 12c1.5 1.5 4.93 1.14 6-1"/><path stroke="url(#weary-face_svg__k)" stroke-linecap="round" stroke-linejoin="round" stroke-width="2" d="M25 12c-1.5 1.5-4.93 1.14-6-1"/><path fill="url(#weary-face_svg__l)" fill-rule="evenodd" d="M12.5 5a.5.5 0 0 1 .5.5c0 1.136-.43 2.024-1.105 2.624C11.229 8.715 10.357 9 9.5 9a.5.5 0 0 1 0-1c.643 0 1.27-.215 1.73-.624.45-.4.77-1.012.77-1.876a.5.5 0 0 1 .5-.5" clip-rule="evenodd"/><path fill="url(#weary-face_svg__m)" fill-rule="evenodd" d="M19.5 5a.5.5 0 0 0-.5.5c0 1.136.43 2.024 1.105 2.624.666.591 1.538.876 2.395.876a.5.5 0 0 0 0-1c-.643 0-1.27-.215-1.73-.624-.45-.4-.77-1.012-.77-1.876a.5.5 0 0 0-.5-.5" clip-rule="evenodd"/><path fill="url(#weary-face_svg__n)" d="M24.657 22.531C25.035 23.86 23.881 25 22.5 25h-13c-1.381 0-2.535-1.14-2.157-2.469a9.004 9.004 0 0 1 17.314 0"/><path fill="url(#weary-face_svg__o)" fill-rule="evenodd" d="M21.657 18H10.343A8.96 8.96 0 0 1 16 16c2.143 0 4.112.75 5.657 2" clip-rule="evenodd"/></g><defs><radialGradient id="weary-face_svg__b" cx="0" cy="0" r="1" gradientTransform="rotate(132.839 10.786 10.065)scale(37.5033)" gradientUnits="userSpaceOnUse"><stop stop-color="#FFF478"/><stop offset=".475" stop-color="#FFB02E"/><stop offset="1" stop-color="#F70A8D"/></radialGradient><radialGradient id="weary-face_svg__c" cx="0" cy="0" r="1" gradientTransform="rotate(131.878 10.74 10.193)scale(38.9487)" gradientUnits="userSpaceOnUse"><stop stop-color="#FFF478"/><stop offset=".475" stop-color="#FFB02E"/><stop offset="1" stop-color="#F70A8D"/></radialGradient><radialGradient id="weary-face_svg__d" cx="0" cy="0" r="1" gradientTransform="rotate(101.31 2.876 12.808)scale(17.8466 22.8581)" gradientUnits="userSpaceOnUse"><stop offset=".788" stop-color="#F59639" stop-opacity="0"/><stop offset=".973" stop-color="#FF7DCE"/></radialGradient><radialGradient id="weary-face_svg__e" cx="0" cy="0" r="1" gradientTransform="matrix(-29 29 -29 -29 18 14)" gradientUnits="userSpaceOnUse"><stop offset=".315" stop-opacity="0"/><stop offset="1"/></radialGradient><radialGradient id="weary-face_svg__f" cx="0" cy="0" r="1" gradientTransform="rotate(77.692 -2.555 18.434)scale(28.1469)" gradientUnits="userSpaceOnUse"><stop offset=".508" stop-color="#7D6133" stop-opacity="0"/><stop offset="1" stop-color="#715B32"/></radialGradient><radialGradient id="weary-face_svg__g" cx="0" cy="0" r="1" gradientTransform="rotate(55.713 -7.36 23.86)scale(13.3135 9.65032)" gradientUnits="userSpaceOnUse"><stop stop-color="#FFB849"/><stop offset="1" stop-color="#FFB847" stop-opacity="0"/></radialGradient><radialGradient id="weary-face_svg__h" cx="0" cy="0" r="1" gradientTransform="matrix(11.49998 2 -2 11.49998 20.5 18)" gradientUnits="userSpaceOnUse"><stop stop-color="#FFA64B"/><stop offset=".9" stop-color="#FFAE46" stop-opacity="0"/></radialGradient><radialGradient id="weary-face_svg__i" cx="0" cy="0" r="1" gradientTransform="rotate(43.971 -9.827 29.173)scale(59.0529)" gradientUnits="userSpaceOnUse"><stop offset=".185" stop-opacity="0"/><stop offset="1" stop-opacity=".4"/></radialGradient><radialGradient id="weary-face_svg__n" cx="0" cy="0" r="1" gradientTransform="matrix(0 -10.5 28.4095 0 16 27)" gradientUnits="userSpaceOnUse"><stop stop-color="#F70A8D"/><stop offset="1" stop-color="#89029C"/></radialGradient><radialGradient id="weary-face_svg__o" cx="0" cy="0" r="1" gradientTransform="matrix(2.99933 -3.5 4.77631 4.09307 15 19.5)" gradientUnits="userSpaceOnUse"><stop offset=".454" stop-color="#fff"/><stop offset=".84" stop-color="#ECCDFF"/><stop offset="1" stop-color="#D590FF"/></radialGradient><linearGradient id="weary-face_svg__j" x1="11.2" x2="10.965" y1="11.75" y2="13.161" gradientUnits="userSpaceOnUse"><stop stop-color="#52383E"/><stop offset="1" stop-color="#432A35"/></linearGradient><linearGradient id="weary-face_svg__k" x1="20.8" x2="21.035" y1="11.75" y2="13.161" gradientUnits="userSpaceOnUse"><stop stop-color="#52383E"/><stop offset="1" stop-color="#432A35"/></linearGradient><linearGradient id="weary-face_svg__l" x1="9.667" x2="9.667" y1="9.4" y2="7.6" gradientUnits="userSpaceOnUse"><stop offset=".03" stop-color="#524049"/><stop offset="1" stop-color="#4A2C42"/></linearGradient><linearGradient id="weary-face_svg__m" x1="21" x2="19.5" y1="7" y2="8.5" gradientUnits="userSpaceOnUse"><stop offset=".03" stop-color="#524049"/><stop offset="1" stop-color="#4A2C42"/></linearGradient><clipPath id="weary-face_svg__a"><path fill="#fff" d="M0 0h32v32H0z"/></clipPath></defs></svg>