<svg xmlns="http://www.w3.org/2000/svg" fill="none" viewBox="0 0 32 32"><path fill="#8868C9" d="M5.071 26.62c0-6.035 4.893-10.928 10.929-10.928s10.929 4.893 10.929 10.929v3.318H5.07z"/><path fill="url(#woman-elf_svg__a)" d="M5.071 26.62c0-6.035 4.893-10.928 10.929-10.928s10.929 4.893 10.929 10.929v3.318H5.07z"/><path fill="url(#woman-elf_svg__b)" d="M5.071 26.62c0-6.035 4.893-10.928 10.929-10.928s10.929 4.893 10.929 10.929v3.318H5.07z"/><path fill="url(#woman-elf_svg__c)" d="M5.071 26.62c0-6.035 4.893-10.928 10.929-10.928s10.929 4.893 10.929 10.929v3.318H5.07z"/><path fill="url(#woman-elf_svg__d)" d="M5.071 26.62c0-6.035 4.893-10.928 10.929-10.928s10.929 4.893 10.929 10.929v3.318H5.07z"/><path fill="url(#woman-elf_svg__e)" d="M5.071 26.62c0-6.035 4.893-10.928 10.929-10.928s10.929 4.893 10.929 10.929v3.318H5.07z"/><path fill="url(#woman-elf_svg__f)" d="M5.071 26.62c0-6.035 4.893-10.928 10.929-10.928s10.929 4.893 10.929 10.929v3.318H5.07z"/><path fill="url(#woman-elf_svg__g)" d="M5.071 26.62c0-6.035 4.893-10.928 10.929-10.928s10.929 4.893 10.929 10.929v3.318H5.07z"/><path fill="url(#woman-elf_svg__h)" d="M5.071 26.62c0-6.035 4.893-10.928 10.929-10.928s10.929 4.893 10.929 10.929v3.318H5.07z"/><path fill="#755BBA" d="M8.912 18.302a10.9 10.9 0 0 0-3.84 8.319v3.318h3.84z"/><path fill="url(#woman-elf_svg__i)" d="M8.912 18.302a10.9 10.9 0 0 0-3.84 8.319v3.318h3.84z"/><path fill="url(#woman-elf_svg__j)" d="M8.912 18.302a10.9 10.9 0 0 0-3.84 8.319v3.318h3.84z"/><path fill="url(#woman-elf_svg__k)" d="M8.912 18.302a10.9 10.9 0 0 0-3.84 8.319v3.318h3.84z"/><path fill="#9172D5" d="M23.088 18.302a10.9 10.9 0 0 1 3.84 8.319v3.318h-3.84z"/><path fill="url(#woman-elf_svg__l)" d="M23.088 18.302a10.9 10.9 0 0 1 3.84 8.319v3.318h-3.84z"/><path fill="url(#woman-elf_svg__m)" d="M23.088 18.302a10.9 10.9 0 0 1 3.84 8.319v3.318h-3.84z"/><path fill="url(#woman-elf_svg__n)" d="M23.088 18.302a10.9 10.9 0 0 1 3.84 8.319v3.318h-3.84z"/><path fill="url(#woman-elf_svg__o)" d="m16.274 29.939-9.221-9.595a10.95 10.95 0 0 1 5.854-4.208L26.69 29.94z"/><path fill="url(#woman-elf_svg__p)" d="m16.274 29.939-9.221-9.595a10.95 10.95 0 0 1 5.854-4.208L26.69 29.94z"/><path fill="url(#woman-elf_svg__q)" d="m16.274 29.939-9.221-9.595a10.95 10.95 0 0 1 5.854-4.208L26.69 29.94z"/><path fill="url(#woman-elf_svg__r)" d="m16.274 29.939-9.221-9.595a10.95 10.95 0 0 1 5.854-4.208L26.69 29.94z"/><path fill="url(#woman-elf_svg__s)" d="m16.274 29.939-9.221-9.595a10.95 10.95 0 0 1 5.854-4.208L26.69 29.94z"/><path fill="url(#woman-elf_svg__t)" d="m16.274 29.939-9.221-9.595a10.95 10.95 0 0 1 5.854-4.208L26.69 29.94z"/><path fill="url(#woman-elf_svg__u)" d="m16.274 29.939-9.221-9.595a10.95 10.95 0 0 1 5.854-4.208L26.69 29.94z"/><g filter="url(#woman-elf_svg__v)"><path fill="#673C37" d="M15.706 21.132c.264.22.79.923.79 1.906 0 1.053-.358 1.646-.701 2.06a.115.115 0 0 1-.178 0c-.343-.414-.702-1.007-.702-2.06 0-.983.527-1.685.79-1.907"/></g><g filter="url(#woman-elf_svg__w)"><path fill="url(#woman-elf_svg__x)" d="M15.926 21.37a.09.09 0 0 1 .124 0c.276.27.729.94.729 1.85 0 1.053-.359 1.646-.702 2.06a.115.115 0 0 1-.178 0c-.343-.414-.702-1.007-.702-2.06 0-.91.453-1.58.73-1.85"/></g><g filter="url(#woman-elf_svg__y)"><path fill="url(#woman-elf_svg__z)" d="M8.609 11.64c-.213-.676-.182-1.334-.14-1.579h6.218v6.992l-4.312-.039c-2.39-1.406-1.97-3.648-1.766-4.148.158-.389.148-.774 0-1.227"/></g><path fill="url(#woman-elf_svg__A)" d="M23.391 11.64c.213-.676.183-1.334.141-1.579h-6.219v6.992l4.277-.066c2.382-1.426 2.005-3.621 1.801-4.121-.157-.389-.148-.774 0-1.227"/><path fill="url(#woman-elf_svg__B)" d="M23.391 11.64c.213-.676.183-1.334.141-1.579h-6.219v6.992l4.277-.066c2.382-1.426 2.005-3.621 1.801-4.121-.157-.389-.148-.774 0-1.227"/><g filter="url(#woman-elf_svg__C)"><path fill="url(#woman-elf_svg__D)" d="M23.513 7.779c-1.523.44-2.582 1.437-2.928 1.89l-.209 2.95c.4.018.94.243 1.934-.467 1.165-1.041 1.72-2.576 2-3.545a.67.67 0 0 0-.136-.615.64.64 0 0 0-.66-.213"/></g><g filter="url(#woman-elf_svg__E)"><path fill="url(#woman-elf_svg__F)" d="M8.487 7.779c1.524.44 2.582 1.437 2.928 1.89l.209 2.95c-.399.018-.94.243-1.934-.467-1.165-1.041-1.72-2.576-1.999-3.545a.67.67 0 0 1 .135-.615.64.64 0 0 1 .66-.213"/><path fill="url(#woman-elf_svg__G)" d="M8.487 7.779c1.524.44 2.582 1.437 2.928 1.89l.209 2.95c-.399.018-.94.243-1.934-.467-1.165-1.041-1.72-2.576-1.999-3.545a.67.67 0 0 1 .135-.615.64.64 0 0 1 .66-.213"/></g><g filter="url(#woman-elf_svg__H)"><path fill="url(#woman-elf_svg__I)" d="M20.599 11.165c.904-1.684 2.446-2.402 3.074-2.56-.598 1.662-1.19 2.452-1.6 2.81-.44.384-1.057.369-1.293.355z"/><path fill="url(#woman-elf_svg__J)" d="M20.599 11.165c.904-1.684 2.446-2.402 3.074-2.56-.598 1.662-1.19 2.452-1.6 2.81-.44.384-1.057.369-1.293.355z"/></g><path fill="url(#woman-elf_svg__K)" d="M11.401 11.165c-.904-1.684-2.446-2.402-3.074-2.56.598 1.662 1.19 2.452 1.6 2.81.44.384 1.057.369 1.293.355z"/><path fill="url(#woman-elf_svg__L)" d="M11.401 11.165c-.904-1.684-2.446-2.402-3.074-2.56.598 1.662 1.19 2.452 1.6 2.81.44.384 1.057.369 1.293.355z"/><g filter="url(#woman-elf_svg__M)"><path fill="url(#woman-elf_svg__N)" d="M12.127 14.599c-.289-.031-.859-.05-1.402.312-.703.547-1.16 1.196-1.301 2.25-.198 1.482 1.045 3.944 6.574 4.18h.004c5.529-.236 6.772-2.698 6.574-4.18-.14-1.054-.598-1.703-1.3-2.25-.606-.47-1.103-.468-1.392-.437L16 14.91z"/><path fill="url(#woman-elf_svg__O)" d="M12.127 14.599c-.289-.031-.859-.05-1.402.312-.703.547-1.16 1.196-1.301 2.25-.198 1.482 1.045 3.944 6.574 4.18h.004c5.529-.236 6.772-2.698 6.574-4.18-.14-1.054-.598-1.703-1.3-2.25-.606-.47-1.103-.468-1.392-.437L16 14.91z"/><path fill="url(#woman-elf_svg__P)" d="M12.127 14.599c-.289-.031-.859-.05-1.402.312-.703.547-1.16 1.196-1.301 2.25-.198 1.482 1.045 3.944 6.574 4.18h.004c5.529-.236 6.772-2.698 6.574-4.18-.14-1.054-.598-1.703-1.3-2.25-.606-.47-1.103-.468-1.392-.437L16 14.91z"/><path fill="url(#woman-elf_svg__Q)" d="M12.127 14.599c-.289-.031-.859-.05-1.402.312-.703.547-1.16 1.196-1.301 2.25-.198 1.482 1.045 3.944 6.574 4.18h.004c5.529-.236 6.772-2.698 6.574-4.18-.14-1.054-.598-1.703-1.3-2.25-.606-.47-1.103-.468-1.392-.437L16 14.91z"/><path fill="url(#woman-elf_svg__R)" d="M12.127 14.599c-.289-.031-.859-.05-1.402.312-.703.547-1.16 1.196-1.301 2.25-.198 1.482 1.045 3.944 6.574 4.18h.004c5.529-.236 6.772-2.698 6.574-4.18-.14-1.054-.598-1.703-1.3-2.25-.606-.47-1.103-.468-1.392-.437L16 14.91z"/><path fill="url(#woman-elf_svg__S)" d="M12.127 14.599c-.289-.031-.859-.05-1.402.312-.703.547-1.16 1.196-1.301 2.25-.198 1.482 1.045 3.944 6.574 4.18h.004c5.529-.236 6.772-2.698 6.574-4.18-.14-1.054-.598-1.703-1.3-2.25-.606-.47-1.103-.468-1.392-.437L16 14.91z"/></g><g filter="url(#woman-elf_svg__T)"><path fill="#E9B12E" d="m12.924 15.577.232 1c.03.107.117.372.232.578.136.243 1.342 2.067 2.336 2.997.105.098.265.1.37.003.991-.897 2.221-2.758 2.357-3 .115-.206.263-.471.293-.578l.258-1z"/><path fill="url(#woman-elf_svg__U)" d="m12.924 15.577.232 1c.03.107.117.372.232.578.136.243 1.342 2.067 2.336 2.997.105.098.265.1.37.003.991-.897 2.221-2.758 2.357-3 .115-.206.263-.471.293-.578l.258-1z"/><path fill="url(#woman-elf_svg__V)" d="m12.924 15.577.232 1c.03.107.117.372.232.578.136.243 1.342 2.067 2.336 2.997.105.098.265.1.37.003.991-.897 2.221-2.758 2.357-3 .115-.206.263-.471.293-.578l.258-1z"/></g><g filter="url(#woman-elf_svg__W)"><path fill="url(#woman-elf_svg__X)" d="M10.827 7.622a3 3 0 0 1 2.998-3.093h4.35a3 3 0 0 1 2.999 3.085l-.118 4.144a5.052 5.052 0 0 1-10.1.014z"/><path fill="url(#woman-elf_svg__Y)" d="M10.827 7.622a3 3 0 0 1 2.998-3.093h4.35a3 3 0 0 1 2.999 3.085l-.118 4.144a5.052 5.052 0 0 1-10.1.014z"/><path fill="url(#woman-elf_svg__Z)" d="M10.827 7.622a3 3 0 0 1 2.998-3.093h4.35a3 3 0 0 1 2.999 3.085l-.118 4.144a5.052 5.052 0 0 1-10.1.014z"/><path fill="url(#woman-elf_svg__aa)" d="M10.827 7.622a3 3 0 0 1 2.998-3.093h4.35a3 3 0 0 1 2.999 3.085l-.118 4.144a5.052 5.052 0 0 1-10.1.014z"/></g><path fill="url(#woman-elf_svg__ab)" d="M10.827 7.622a3 3 0 0 1 2.998-3.093h4.35a3 3 0 0 1 2.999 3.085l-.118 4.144a5.052 5.052 0 0 1-10.1.014z"/><path fill="url(#woman-elf_svg__ac)" d="M9.304 8.083A6.4 6.4 0 0 1 10.89 9.12v-.903c0-.412.314-.59.916-.934l.006-.003q.19-.107.418-.242c.653-.39.952-1.315 1.004-1.727.969 1.59 2.113 2.11 3.297 2.11h3.266c.975 0 1.312.449 1.312.78l.014.907c.386-.344.93-.735 1.602-1.038-.207-.523-.256-1.047-.295-1.478l-.008-.09c-.052-.544-.25-1.343-1.145-2.078-.633-.484-1.16-.687-1.91-.812-.472-.079-.778-.361-1.015-.579l-.071-.066c-.287-.302-1.23-.906-2.187-.906-1.329 0-1.934.469-2.387.906-.186.18-.353.328-.488.44-.18.15-.404.226-.635.262-1.018.158-1.634.527-2.21 1.127-.698.727-.812 1.718-.874 2.5a2.2 2.2 0 0 1-.196.787"/><path fill="url(#woman-elf_svg__ad)" d="M9.304 8.083A6.4 6.4 0 0 1 10.89 9.12v-.903c0-.412.314-.59.916-.934l.006-.003q.19-.107.418-.242c.653-.39.952-1.315 1.004-1.727.969 1.59 2.113 2.11 3.297 2.11h3.266c.975 0 1.312.449 1.312.78l.014.907c.386-.344.93-.735 1.602-1.038-.207-.523-.256-1.047-.295-1.478l-.008-.09c-.052-.544-.25-1.343-1.145-2.078-.633-.484-1.16-.687-1.91-.812-.472-.079-.778-.361-1.015-.579l-.071-.066c-.287-.302-1.23-.906-2.187-.906-1.329 0-1.934.469-2.387.906-.186.18-.353.328-.488.44-.18.15-.404.226-.635.262-1.018.158-1.634.527-2.21 1.127-.698.727-.812 1.718-.874 2.5a2.2 2.2 0 0 1-.196.787"/><path fill="url(#woman-elf_svg__ae)" d="M9.304 8.083A6.4 6.4 0 0 1 10.89 9.12v-.903c0-.412.314-.59.916-.934l.006-.003q.19-.107.418-.242c.653-.39.952-1.315 1.004-1.727.969 1.59 2.113 2.11 3.297 2.11h3.266c.975 0 1.312.449 1.312.78l.014.907c.386-.344.93-.735 1.602-1.038-.207-.523-.256-1.047-.295-1.478l-.008-.09c-.052-.544-.25-1.343-1.145-2.078-.633-.484-1.16-.687-1.91-.812-.472-.079-.778-.361-1.015-.579l-.071-.066c-.287-.302-1.23-.906-2.187-.906-1.329 0-1.934.469-2.387.906-.186.18-.353.328-.488.44-.18.15-.404.226-.635.262-1.018.158-1.634.527-2.21 1.127-.698.727-.812 1.718-.874 2.5a2.2 2.2 0 0 1-.196.787"/><path fill="url(#woman-elf_svg__af)" d="M9.304 8.083A6.4 6.4 0 0 1 10.89 9.12v-.903c0-.412.314-.59.916-.934l.006-.003q.19-.107.418-.242c.653-.39.952-1.315 1.004-1.727.969 1.59 2.113 2.11 3.297 2.11h3.266c.975 0 1.312.449 1.312.78l.014.907c.386-.344.93-.735 1.602-1.038-.207-.523-.256-1.047-.295-1.478l-.008-.09c-.052-.544-.25-1.343-1.145-2.078-.633-.484-1.16-.687-1.91-.812-.472-.079-.778-.361-1.015-.579l-.071-.066c-.287-.302-1.23-.906-2.187-.906-1.329 0-1.934.469-2.387.906-.186.18-.353.328-.488.44-.18.15-.404.226-.635.262-1.018.158-1.634.527-2.21 1.127-.698.727-.812 1.718-.874 2.5a2.2 2.2 0 0 1-.196.787"/><path fill="url(#woman-elf_svg__ag)" d="M9.304 8.083A6.4 6.4 0 0 1 10.89 9.12v-.903c0-.412.314-.59.916-.934l.006-.003q.19-.107.418-.242c.653-.39.952-1.315 1.004-1.727.969 1.59 2.113 2.11 3.297 2.11h3.266c.975 0 1.312.449 1.312.78l.014.907c.386-.344.93-.735 1.602-1.038-.207-.523-.256-1.047-.295-1.478l-.008-.09c-.052-.544-.25-1.343-1.145-2.078-.633-.484-1.16-.687-1.91-.812-.472-.079-.778-.361-1.015-.579l-.071-.066c-.287-.302-1.23-.906-2.187-.906-1.329 0-1.934.469-2.387.906-.186.18-.353.328-.488.44-.18.15-.404.226-.635.262-1.018.158-1.634.527-2.21 1.127-.698.727-.812 1.718-.874 2.5a2.2 2.2 0 0 1-.196.787"/><g filter="url(#woman-elf_svg__ah)"><path fill="url(#woman-elf_svg__ai)" d="m13.698 5.67-.011-.028c-.186-.447-.464-1.118-.553-1.878-.669.078-2.173.547-2.837 1.797-.482.909-.573 1.988-.54 2.752.489.258.81.466 1.119.726v-.902c0-.412.333-.59.973-.934l.005-.003q.202-.107.445-.243c.693-.389 1.096-1.234 1.151-1.646q.123.19.248.359"/><path fill="url(#woman-elf_svg__aj)" d="m13.698 5.67-.011-.028c-.186-.447-.464-1.118-.553-1.878-.669.078-2.173.547-2.837 1.797-.482.909-.573 1.988-.54 2.752.489.258.81.466 1.119.726v-.902c0-.412.333-.59.973-.934l.005-.003q.202-.107.445-.243c.693-.389 1.096-1.234 1.151-1.646q.123.19.248.359"/><path fill="url(#woman-elf_svg__ak)" d="m13.698 5.67-.011-.028c-.186-.447-.464-1.118-.553-1.878-.669.078-2.173.547-2.837 1.797-.482.909-.573 1.988-.54 2.752.489.258.81.466 1.119.726v-.902c0-.412.333-.59.973-.934l.005-.003q.202-.107.445-.243c.693-.389 1.096-1.234 1.151-1.646q.123.19.248.359"/><path fill="url(#woman-elf_svg__al)" d="m13.698 5.67-.011-.028c-.186-.447-.464-1.118-.553-1.878-.669.078-2.173.547-2.837 1.797-.482.909-.573 1.988-.54 2.752.489.258.81.466 1.119.726v-.902c0-.412.333-.59.973-.934l.005-.003q.202-.107.445-.243c.693-.389 1.096-1.234 1.151-1.646q.123.19.248.359"/></g><g filter="url(#woman-elf_svg__am)"><path fill="url(#woman-elf_svg__an)" d="m21.093 7.466 1.215.39c.137-.747.062-2.563-1.383-3.227-1.729-.73-2.453-1.127-3.292-1.586l-.372-.203c-1.024-.554-2.588-.628-3.438.297-.437.477-.617.617-.883.617.163 1.19.458 1.866 1.674 2.696a3.3 3.3 0 0 0 1.917.578h3.266c.656 0 1.126.204 1.296.438"/><path fill="url(#woman-elf_svg__ao)" d="m21.093 7.466 1.215.39c.137-.747.062-2.563-1.383-3.227-1.729-.73-2.453-1.127-3.292-1.586l-.372-.203c-1.024-.554-2.588-.628-3.438.297-.437.477-.617.617-.883.617.163 1.19.458 1.866 1.674 2.696a3.3 3.3 0 0 0 1.917.578h3.266c.656 0 1.126.204 1.296.438"/></g><path fill="url(#woman-elf_svg__ap)" d="M8.85 5.672a.53.53 0 0 1 .529-.529h13.18a.53.53 0 0 1 0 1.059H9.379a.53.53 0 0 1-.53-.53"/><path fill="url(#woman-elf_svg__aq)" d="M8.85 5.672a.53.53 0 0 1 .529-.529h13.18a.53.53 0 0 1 0 1.059H9.379a.53.53 0 0 1-.53-.53"/><path fill="url(#woman-elf_svg__ar)" d="M8.85 5.672a.53.53 0 0 1 .529-.529h13.18a.53.53 0 0 1 0 1.059H9.379a.53.53 0 0 1-.53-.53"/><path fill="url(#woman-elf_svg__as)" d="M8.85 5.672a.53.53 0 0 1 .529-.529h13.18a.53.53 0 0 1 0 1.059H9.379a.53.53 0 0 1-.53-.53"/><path fill="url(#woman-elf_svg__at)" d="M8.85 5.672a.53.53 0 0 1 .529-.529h13.18a.53.53 0 0 1 0 1.059H9.379a.53.53 0 0 1-.53-.53"/><path fill="url(#woman-elf_svg__au)" d="M8.85 5.672a.53.53 0 0 1 .529-.529h13.18a.53.53 0 0 1 0 1.059H9.379a.53.53 0 0 1-.53-.53"/><path fill="url(#woman-elf_svg__av)" d="M15.907 3.644a.104.104 0 0 1 .144 0c.268.257.693.872.693 1.702 0 .974-.346 1.524-.678 1.907a.115.115 0 0 1-.174 0c-.332-.383-.679-.933-.679-1.907 0-.83.425-1.445.694-1.702"/><g filter="url(#woman-elf_svg__aw)"><path stroke="#FF8935" stroke-linecap="round" stroke-width=".55" d="M19.544 8.526a2.35 2.35 0 0 0-1.738-.283"/></g><g filter="url(#woman-elf_svg__ax)"><path stroke="#EA752D" stroke-linecap="round" stroke-width=".55" d="M12.486 8.526a2.35 2.35 0 0 1 1.737-.283"/></g><g filter="url(#woman-elf_svg__ay)"><path fill="#E39024" d="m15.447 10.293-.57 1.839c-.098.378.136.756.467.756h.707c.331 0 .565-.384.468-.756l-.478-1.839c-.102-.407-.487-.407-.594 0"/></g><path fill="#F3A426" d="m15.618 10.098-.532 1.838c-.108.378.152.756.52.756h.787c.369 0 .63-.384.52-.756l-.53-1.838c-.114-.408-.646-.408-.765 0"/><path fill="url(#woman-elf_svg__az)" d="m15.618 10.098-.532 1.838c-.108.378.152.756.52.756h.787c.369 0 .63-.384.52-.756l-.53-1.838c-.114-.408-.646-.408-.765 0"/><path fill="url(#woman-elf_svg__aA)" d="m15.618 10.098-.532 1.838c-.108.378.152.756.52.756h.787c.369 0 .63-.384.52-.756l-.53-1.838c-.114-.408-.646-.408-.765 0"/><path fill="url(#woman-elf_svg__aB)" d="m15.618 10.098-.532 1.838c-.108.378.152.756.52.756h.787c.369 0 .63-.384.52-.756l-.53-1.838c-.114-.408-.646-.408-.765 0"/><path stroke="url(#woman-elf_svg__aC)" stroke-width=".2" d="M16 13.709c-.508 0-.985-.12-1.386-.329-.137-.07-.284.085-.198.21.335.507.919.845 1.584.845s1.248-.338 1.583-.846c.087-.129-.06-.278-.198-.209A3 3 0 0 1 16 13.71Z"/><path fill="#8B024F" d="M16 13.709c-.508 0-.985-.12-1.386-.329-.137-.07-.284.085-.198.21.335.507.919.845 1.584.845s1.248-.338 1.583-.846c.087-.129-.06-.278-.198-.209A3 3 0 0 1 16 13.71"/><path fill="#352E31" d="M18.345 9.28c-.397.05-.74.302-.863.422l1.777.848.527-.317c.194-.117.256-.378.088-.531-.48-.44-1.116-.474-1.53-.422M13.655 9.28c.398.05.741.302.863.422l-1.777.848-.527-.317c-.194-.117-.255-.378-.088-.531.48-.44 1.116-.474 1.53-.422"/><path fill="#fff" d="M18.406 9.323c.653 0 1.205.45 1.355 1.059a.274.274 0 0 1-.268.34h-2.231a.23.23 0 0 1-.227-.271 1.4 1.4 0 0 1 1.37-1.128"/><path fill="url(#woman-elf_svg__aD)" d="M18.199 9.595a.892.892 0 0 1 .86 1.128h-1.724a.896.896 0 0 1 .864-1.128"/><path fill="#000" d="M17.688 10.488c0-.284.227-.512.51-.512a.51.51 0 0 1 .455.747h-.904a.46.46 0 0 1-.061-.235"/><g filter="url(#woman-elf_svg__aE)"><path fill="#C7A7A3" d="M18.133 9.784c.064.085-.07.188-.22.301-.151.113-.264.193-.327.108-.064-.085.007-.246.158-.359.152-.113.326-.135.39-.05"/><path fill="url(#woman-elf_svg__aF)" d="M18.133 9.784c.064.085-.07.188-.22.301-.151.113-.264.193-.327.108-.064-.085.007-.246.158-.359.152-.113.326-.135.39-.05"/></g><g filter="url(#woman-elf_svg__aG)"><path fill="url(#woman-elf_svg__aH)" d="M18.994 10.37a.84.84 0 0 0-.232-.463l-.26.285.118.229z"/></g><path fill="#fff" d="M13.624 9.323c-.653 0-1.205.45-1.355 1.059-.045.174.09.34.268.34h2.231a.23.23 0 0 0 .227-.271 1.4 1.4 0 0 0-1.371-1.128"/><path fill="url(#woman-elf_svg__aI)" d="M13.83 9.595a.893.893 0 0 0-.86 1.128h1.725a1 1 0 0 0 .032-.236.9.9 0 0 0-.896-.892"/><path fill="#000" d="M14.342 10.487a.51.51 0 0 0-.511-.51.51.51 0 0 0-.455.746h.905a.5.5 0 0 0 .06-.236"/><g filter="url(#woman-elf_svg__aJ)"><path fill="url(#woman-elf_svg__aK)" d="M14.646 10.383c0-.289-.235-.481-.298-.54l-.288.28.177.361z"/></g><g filter="url(#woman-elf_svg__aL)" transform="rotate(-27.914 13.561 9.976)"><ellipse cx="13.561" cy="9.976" fill="#C7A7A3" fill-opacity=".9" rx=".39" ry=".197"/><ellipse cx="13.561" cy="9.976" fill="url(#woman-elf_svg__aM)" rx=".39" ry=".197"/></g><defs><radialGradient id="woman-elf_svg__b" cx="0" cy="0" r="1" gradientTransform="matrix(-3.15625 0 0 -14.3438 23.142 20.686)" gradientUnits="userSpaceOnUse"><stop stop-color="#987CDC"/><stop offset="1" stop-color="#8666C7" stop-opacity="0"/></radialGradient><radialGradient id="woman-elf_svg__c" cx="0" cy="0" r="1" gradientTransform="rotate(-110.347 20.477 5.184)scale(3.59496 4.80694)" gradientUnits="userSpaceOnUse"><stop stop-color="#846FC5"/><stop offset="1" stop-color="#846FC5" stop-opacity="0"/></radialGradient><radialGradient id="woman-elf_svg__d" cx="0" cy="0" r="1" gradientTransform="rotate(77.471 -3.564 20.737)scale(2.88111 5.07754)" gradientUnits="userSpaceOnUse"><stop offset=".369" stop-color="#6D499B"/><stop offset="1" stop-color="#6D499B" stop-opacity="0"/></radialGradient><radialGradient id="woman-elf_svg__e" cx="0" cy="0" r="1" gradientTransform="matrix(-.57813 .51562 -7.1646 -8.03319 14.554 27.46)" gradientUnits="userSpaceOnUse"><stop offset=".442" stop-color="#5E45A4"/><stop offset="1" stop-color="#5E45A4" stop-opacity="0"/></radialGradient><radialGradient id="woman-elf_svg__f" cx="0" cy="0" r="1" gradientTransform="matrix(1.875 .3125 -2.8125 16.87503 8.952 23.999)" gradientUnits="userSpaceOnUse"><stop stop-color="#8066BD"/><stop offset="1" stop-color="#715CB9" stop-opacity="0"/></radialGradient><radialGradient id="woman-elf_svg__g" cx="0" cy="0" r="1" gradientTransform="matrix(.313 0 0 13.5898 8.827 27.552)" gradientUnits="userSpaceOnUse"><stop offset=".155" stop-color="#624CA8"/><stop offset="1" stop-color="#624CA8" stop-opacity="0"/></radialGradient><radialGradient id="woman-elf_svg__h" cx="0" cy="0" r="1" gradientTransform="matrix(-.50581 0 0 -8.83067 23.25 26.076)" gradientUnits="userSpaceOnUse"><stop offset=".083" stop-color="#795DC2"/><stop offset="1" stop-color="#795DC2" stop-opacity="0"/></radialGradient><radialGradient id="woman-elf_svg__i" cx="0" cy="0" r="1" gradientTransform="matrix(-.59707 0 0 -12.1778 9.033 29.939)" gradientUnits="userSpaceOnUse"><stop offset=".214" stop-color="#5742A1"/><stop offset="1" stop-color="#5B4A9B" stop-opacity="0"/></radialGradient><radialGradient id="woman-elf_svg__j" cx="0" cy="0" r="1" gradientTransform="matrix(-1.69302 6.8777 -1.92029 -.4727 6.992 23.061)" gradientUnits="userSpaceOnUse"><stop stop-color="#8A73C8"/><stop offset="1" stop-color="#7F70BC" stop-opacity="0"/></radialGradient><radialGradient id="woman-elf_svg__l" cx="0" cy="0" r="1" gradientTransform="matrix(-1.625 -10.40629 1.38016 -.21552 25.58 28.374)" gradientUnits="userSpaceOnUse"><stop offset=".455" stop-color="#9079D5"/><stop offset="1" stop-color="#9079D5" stop-opacity="0"/></radialGradient><radialGradient id="woman-elf_svg__n" cx="0" cy="0" r="1" gradientTransform="matrix(.49206 0 0 10.875 23.088 26.467)" gradientUnits="userSpaceOnUse"><stop stop-color="#664DAD"/><stop offset="1" stop-color="#6951AD" stop-opacity="0"/></radialGradient><radialGradient id="woman-elf_svg__q" cx="0" cy="0" r="1" gradientTransform="matrix(1.62231 -1.625 9.061 9.04602 15.736 29.78)" gradientUnits="userSpaceOnUse"><stop stop-color="#A85D71"/><stop offset="1" stop-color="#915959" stop-opacity="0"/></radialGradient><radialGradient id="woman-elf_svg__r" cx="0" cy="0" r="1" gradientTransform="rotate(-132.42 17.248 11.374)scale(18.1601 26.3733)" gradientUnits="userSpaceOnUse"><stop offset=".826" stop-color="#6E4641" stop-opacity="0"/><stop offset="1" stop-color="#6E4641"/></radialGradient><radialGradient id="woman-elf_svg__s" cx="0" cy="0" r="1" gradientTransform="matrix(0 4.53125 -8.40625 0 15.986 18.155)" gradientUnits="userSpaceOnUse"><stop offset=".612" stop-color="#421D1E"/><stop offset="1" stop-color="#603739" stop-opacity="0"/></radialGradient><radialGradient id="woman-elf_svg__x" cx="0" cy="0" r="1" gradientTransform="matrix(0 2.63279 -.8125 0 16.517 22.751)" gradientUnits="userSpaceOnUse"><stop stop-color="#FFFCC0"/><stop offset="1" stop-color="#FEE9B4"/></radialGradient><radialGradient id="woman-elf_svg__z" cx="0" cy="0" r="1" gradientTransform="matrix(-2.34377 1.74998 -2.39636 -3.20947 11.765 12.967)" gradientUnits="userSpaceOnUse"><stop offset=".168" stop-color="#C2651F"/><stop offset="1" stop-color="#D56E20"/><stop offset="1" stop-color="#D57022"/></radialGradient><radialGradient id="woman-elf_svg__A" cx="0" cy="0" r="1" gradientTransform="matrix(-2.25 .8711 -.92998 -2.40211 23.858 12.686)" gradientUnits="userSpaceOnUse"><stop stop-color="#FFCA37"/><stop offset=".858" stop-color="#F29A26"/></radialGradient><radialGradient id="woman-elf_svg__B" cx="0" cy="0" r="1" gradientTransform="rotate(15.638 -37.22 81.391)scale(1.89839 5.31895)" gradientUnits="userSpaceOnUse"><stop stop-color="#E08E23"/><stop offset="1" stop-color="#FEA828" stop-opacity="0"/></radialGradient><radialGradient id="woman-elf_svg__F" cx="0" cy="0" r="1" gradientTransform="rotate(-47.281 15.996 -4.791)scale(2.16642 4.63096)" gradientUnits="userSpaceOnUse"><stop stop-color="#DD9328"/><stop offset="1" stop-color="#D58521"/></radialGradient><radialGradient id="woman-elf_svg__G" cx="0" cy="0" r="1" gradientTransform="rotate(71.741 -.52 9.97)scale(5.60855 3.99461)" gradientUnits="userSpaceOnUse"><stop offset=".707" stop-color="#C27B29" stop-opacity="0"/><stop offset="1" stop-color="#C27B29"/></radialGradient><radialGradient id="woman-elf_svg__I" cx="0" cy="0" r="1" gradientTransform="matrix(3.42178 -4.2491 3.0025 2.4179 20.599 11.99)" gradientUnits="userSpaceOnUse"><stop offset=".317" stop-color="#F3C137"/><stop offset=".774" stop-color="#F3C137" stop-opacity="0"/></radialGradient><radialGradient id="woman-elf_svg__J" cx="0" cy="0" r="1" gradientTransform="rotate(-140.86 13.36 1.275)scale(1.81729 6.21142)" gradientUnits="userSpaceOnUse"><stop offset=".654" stop-color="#ECB624" stop-opacity="0"/><stop offset="1" stop-color="#ECB624"/></radialGradient><radialGradient id="woman-elf_svg__K" cx="0" cy="0" r="1" gradientTransform="rotate(-143.844 7.216 3.795)scale(3.06704 1.99268)" gradientUnits="userSpaceOnUse"><stop stop-color="#C4812E"/><stop offset="1" stop-color="#C4812E" stop-opacity="0"/></radialGradient><radialGradient id="woman-elf_svg__L" cx="0" cy="0" r="1" gradientTransform="rotate(-42.552 18.495 -6.628)scale(1.55288 5.44438)" gradientUnits="userSpaceOnUse"><stop offset=".757" stop-color="#C9842E" stop-opacity="0"/><stop offset="1" stop-color="#C9842E"/></radialGradient><radialGradient id="woman-elf_svg__N" cx="0" cy="0" r="1" gradientTransform="matrix(0 -5.50781 13.8508 0 16 21.34)" gradientUnits="userSpaceOnUse"><stop offset=".234" stop-color="#975D5C"/><stop offset="1" stop-color="#7C442F"/></radialGradient><radialGradient id="woman-elf_svg__O" cx="0" cy="0" r="1" gradientTransform="rotate(152.259 7.559 9.702)scale(9.53325 15.1141)" gradientUnits="userSpaceOnUse"><stop offset=".836" stop-color="#8D625B" stop-opacity="0"/><stop offset="1" stop-color="#8D625B"/></radialGradient><radialGradient id="woman-elf_svg__P" cx="0" cy="0" r="1" gradientTransform="rotate(46.157 -9.457 24.068)scale(8.75223 10.2841)" gradientUnits="userSpaceOnUse"><stop offset=".739" stop-color="#8B5548" stop-opacity="0"/><stop offset="1" stop-color="#9F6C64"/></radialGradient><radialGradient id="woman-elf_svg__Q" cx="0" cy="0" r="1" gradientTransform="rotate(-158.513 8.323 6.627)scale(4.24838 2.76793)" gradientUnits="userSpaceOnUse"><stop offset=".183" stop-color="#4C200C"/><stop offset="1" stop-color="#613528" stop-opacity="0"/></radialGradient><radialGradient id="woman-elf_svg__R" cx="0" cy="0" r="1" gradientTransform="matrix(-4.20237 6.09373 -1.19654 -.82516 20.202 14.092)" gradientUnits="userSpaceOnUse"><stop offset=".447" stop-color="#783C25"/><stop offset="1" stop-color="#783C25" stop-opacity="0"/></radialGradient><radialGradient id="woman-elf_svg__S" cx="0" cy="0" r="1" gradientTransform="matrix(1.03906 -1.52344 .33915 .23132 18.398 16.702)" gradientUnits="userSpaceOnUse"><stop offset=".215" stop-color="#804F24"/><stop offset="1" stop-color="#804F24" stop-opacity="0"/></radialGradient><radialGradient id="woman-elf_svg__U" cx="0" cy="0" r="1" gradientTransform="matrix(.53125 2.60938 -4.67763 .95233 14.609 15.577)" gradientUnits="userSpaceOnUse"><stop offset=".194" stop-color="#BA7019"/><stop offset="1" stop-color="#BA7019" stop-opacity="0"/></radialGradient><radialGradient id="woman-elf_svg__V" cx="0" cy="0" r="1" gradientTransform="matrix(-3.86275 1.28759 -4.0032 -12.00957 17.243 16.343)" gradientUnits="userSpaceOnUse"><stop offset=".705" stop-color="#C98913" stop-opacity="0"/><stop offset="1" stop-color="#894606"/></radialGradient><radialGradient id="woman-elf_svg__X" cx="0" cy="0" r="1" gradientTransform="rotate(167.196 9.611 6.204)scale(7.05032 8.72135)" gradientUnits="userSpaceOnUse"><stop stop-color="#FFE42E"/><stop offset="1" stop-color="#F8A82A"/></radialGradient><radialGradient id="woman-elf_svg__Y" cx="0" cy="0" r="1" gradientTransform="matrix(-.78126 -1 .8108 -.63344 13.937 9.452)" gradientUnits="userSpaceOnUse"><stop offset=".295" stop-color="#EA9721"/><stop offset="1" stop-color="#EA9721" stop-opacity="0"/></radialGradient><radialGradient id="woman-elf_svg__Z" cx="0" cy="0" r="1" gradientTransform="matrix(0 -1.45312 1.84375 0 18.421 9.436)" gradientUnits="userSpaceOnUse"><stop stop-color="#FFBE20"/><stop offset="1" stop-color="#FFBE20" stop-opacity="0"/></radialGradient><radialGradient id="woman-elf_svg__aa" cx="0" cy="0" r="1" gradientTransform="rotate(26.954 -2.675 30.526)scale(6.34556 4.25079)" gradientUnits="userSpaceOnUse"><stop offset=".043" stop-color="#E78519"/><stop offset="1" stop-color="#E78519" stop-opacity="0"/></radialGradient><radialGradient id="woman-elf_svg__ab" cx="0" cy="0" r="1" gradientTransform="rotate(98.094 4.593 11.956)scale(7.65065 8.11154)" gradientUnits="userSpaceOnUse"><stop offset=".667" stop-color="#E0922D" stop-opacity="0"/><stop offset="1" stop-color="#C07517"/></radialGradient><radialGradient id="woman-elf_svg__ac" cx="0" cy="0" r="1" gradientTransform="matrix(-1.03124 4.65625 -10.56138 -2.33908 19.015 3.249)" gradientUnits="userSpaceOnUse"><stop stop-color="#FFD83E"/><stop offset="1" stop-color="#F8AB1B"/></radialGradient><radialGradient id="woman-elf_svg__ad" cx="0" cy="0" r="1" gradientTransform="matrix(-.03125 -2.6875 8.71466 -.10133 15.608 8.53)" gradientUnits="userSpaceOnUse"><stop offset=".259" stop-color="#CE7916"/><stop offset="1" stop-color="#CE7916" stop-opacity="0"/></radialGradient><radialGradient id="woman-elf_svg__ae" cx="0" cy="0" r="1" gradientTransform="matrix(.53125 -1.09578 1.67303 .8111 13.733 6.686)" gradientUnits="userSpaceOnUse"><stop stop-color="#CC781B"/><stop offset="1" stop-color="#CC781B" stop-opacity="0"/></radialGradient><radialGradient id="woman-elf_svg__af" cx="0" cy="0" r="1" gradientTransform="rotate(-71.318 17.294 -9.577)scale(2.29267 4.35952)" gradientUnits="userSpaceOnUse"><stop offset=".233" stop-color="#954A15"/><stop offset="1" stop-color="#954A15" stop-opacity="0"/></radialGradient><radialGradient id="woman-elf_svg__ag" cx="0" cy="0" r="1" gradientTransform="matrix(6 3.75 -15.78004 25.24804 9.515 3.467)" gradientUnits="userSpaceOnUse"><stop offset=".419" stop-color="#CC9839"/><stop offset="1" stop-color="#CC9839" stop-opacity="0"/></radialGradient><radialGradient id="woman-elf_svg__ai" cx="0" cy="0" r="1" gradientTransform="rotate(48.247 -.634 14.575)scale(2.89035 5.54362)" gradientUnits="userSpaceOnUse"><stop offset=".273" stop-color="#D68B33" stop-opacity="0"/><stop offset="1" stop-color="#CD7721"/></radialGradient><radialGradient id="woman-elf_svg__aj" cx="0" cy="0" r="1" gradientTransform="rotate(140.826 5.916 4.621)scale(3.26514 1.54868)" gradientUnits="userSpaceOnUse"><stop offset=".276" stop-color="#FFC326"/><stop offset="1" stop-color="#FFC326" stop-opacity="0"/></radialGradient><radialGradient id="woman-elf_svg__ak" cx="0" cy="0" r="1" gradientTransform="matrix(-1.75002 -2.875 7.34404 -4.47034 12.327 7.374)" gradientUnits="userSpaceOnUse"><stop offset=".619" stop-color="#CA993F" stop-opacity="0"/><stop offset="1" stop-color="#CA993F"/></radialGradient><radialGradient id="woman-elf_svg__al" cx="0" cy="0" r="1" gradientTransform="matrix(-.62501 -1.625 2.27596 -.87539 11.03 9.296)" gradientUnits="userSpaceOnUse"><stop offset=".224" stop-color="#80350D"/><stop offset="1" stop-color="#C5731F" stop-opacity="0"/></radialGradient><radialGradient id="woman-elf_svg__an" cx="0" cy="0" r="1" gradientTransform="matrix(-1.03113 3.06466 -5.29387 -1.78117 18.983 3.965)" gradientUnits="userSpaceOnUse"><stop offset=".271" stop-color="#FFE236"/><stop offset="1" stop-color="#FFE236" stop-opacity="0"/></radialGradient><radialGradient id="woman-elf_svg__ao" cx="0" cy="0" r="1" gradientTransform="rotate(121.752 8.27 7.041)scale(4.86941 8.82412)" gradientUnits="userSpaceOnUse"><stop offset=".325" stop-color="#FFB92B" stop-opacity="0"/><stop offset="1" stop-color="#E4821E"/></radialGradient><radialGradient id="woman-elf_svg__as" cx="0" cy="0" r="1" gradientTransform="matrix(-5.09375 0 0 -.60938 21.768 5.499)" gradientUnits="userSpaceOnUse"><stop stop-color="#EDE5F4"/><stop offset="1" stop-color="#CFC9E2" stop-opacity="0"/></radialGradient><radialGradient id="woman-elf_svg__at" cx="0" cy="0" r="1" gradientTransform="matrix(0 .54688 -8.71875 0 11.174 4.967)" gradientUnits="userSpaceOnUse"><stop offset=".257" stop-color="#949393"/><stop offset="1" stop-color="#949393" stop-opacity="0"/></radialGradient><radialGradient id="woman-elf_svg__au" cx="0" cy="0" r="1" gradientTransform="matrix(0 .92969 -.45312 0 15.229 5.186)" gradientUnits="userSpaceOnUse"><stop offset=".487" stop-color="#9D9EA7"/><stop offset="1" stop-color="#9D9EA7" stop-opacity="0"/></radialGradient><radialGradient id="woman-elf_svg__av" cx="0" cy="0" r="1" gradientTransform="matrix(0 -2.90625 2.05457 0 15.979 6.764)" gradientUnits="userSpaceOnUse"><stop stop-color="#6FE9FF"/><stop offset="1" stop-color="#C2FFFF"/></radialGradient><radialGradient id="woman-elf_svg__az" cx="0" cy="0" r="1" gradientTransform="matrix(-.65625 -4.11719 1.50689 -.24019 17.155 12.374)" gradientUnits="userSpaceOnUse"><stop offset=".208" stop-color="#FFDF43"/><stop offset="1" stop-color="#FFDF43" stop-opacity="0"/></radialGradient><radialGradient id="woman-elf_svg__aA" cx="0" cy="0" r="1" gradientTransform="matrix(0 -.6545 2.30377 0 16 12.692)" gradientUnits="userSpaceOnUse"><stop stop-color="#E29330"/><stop offset="1" stop-color="#F5A828" stop-opacity="0"/></radialGradient><radialGradient id="woman-elf_svg__aC" cx="0" cy="0" r="1" gradientTransform="rotate(-60.417 19.61 -5.633)scale(.34815 1.6378)" gradientUnits="userSpaceOnUse"><stop offset=".062" stop-color="#F1A834"/><stop offset="1" stop-color="#F1A834" stop-opacity="0"/></radialGradient><radialGradient id="woman-elf_svg__aD" cx="0" cy="0" r="1" gradientTransform="rotate(127.812 6.735 9.596)scale(1.10543 1.21398)" gradientUnits="userSpaceOnUse"><stop stop-color="#8F5C4E"/><stop offset="1" stop-color="#794C46"/></radialGradient><radialGradient id="woman-elf_svg__aF" cx="0" cy="0" r="1" gradientTransform="rotate(-127.812 11.471 .678)scale(.37829 .52081)" gradientUnits="userSpaceOnUse"><stop offset=".766" stop-color="#FFE6E2" stop-opacity="0"/><stop offset=".966" stop-color="#FFE6E2"/></radialGradient><radialGradient id="woman-elf_svg__aI" cx="0" cy="0" r="1" gradientTransform="rotate(127.812 4.553 8.527)scale(1.10548 1.21404)" gradientUnits="userSpaceOnUse"><stop stop-color="#8F5C4E"/><stop offset="1" stop-color="#794C46"/></radialGradient><radialGradient id="woman-elf_svg__aM" cx="0" cy="0" r="1" gradientTransform="rotate(-90.897 11.839 -1.522)scale(.49414 .59399)" gradientUnits="userSpaceOnUse"><stop offset=".766" stop-color="#FFE6E2" stop-opacity="0"/><stop offset=".966" stop-color="#FFE6E2"/></radialGradient><filter id="woman-elf_svg__v" width="2.581" height="5.008" x="14.415" y="20.631" color-interpolation-filters="sRGB" filterUnits="userSpaceOnUse"><feFlood flood-opacity="0" result="BackgroundImageFix"/><feBlend in="SourceGraphic" in2="BackgroundImageFix" result="shape"/><feGaussianBlur result="effect1_foregroundBlur_4002_1361" stdDeviation=".25"/></filter><filter id="woman-elf_svg__w" width="1.681" height="4.077" x="15.197" y="21.244" color-interpolation-filters="sRGB" filterUnits="userSpaceOnUse"><feFlood flood-opacity="0" result="BackgroundImageFix"/><feBlend in="SourceGraphic" in2="BackgroundImageFix" result="shape"/><feColorMatrix in="SourceAlpha" result="hardAlpha" values="0 0 0 0 0 0 0 0 0 0 0 0 0 0 0 0 0 0 127 0"/><feOffset dx=".1" dy="-.1"/><feGaussianBlur stdDeviation=".1"/><feComposite in2="hardAlpha" k2="-1" k3="1" operator="arithmetic"/><feColorMatrix values="0 0 0 0 0.956863 0 0 0 0 0.843137 0 0 0 0 0.678431 0 0 0 1 0"/><feBlend in2="shape" result="effect1_innerShadow_4002_1361"/></filter><filter id="woman-elf_svg__y" width="6.499" height="6.992" x="8.438" y="10.061" color-interpolation-filters="sRGB" filterUnits="userSpaceOnUse"><feFlood flood-opacity="0" result="BackgroundImageFix"/><feBlend in="SourceGraphic" in2="BackgroundImageFix" result="shape"/><feColorMatrix in="SourceAlpha" result="hardAlpha" values="0 0 0 0 0 0 0 0 0 0 0 0 0 0 0 0 0 0 127 0"/><feOffset dx=".25"/><feGaussianBlur stdDeviation=".375"/><feComposite in2="hardAlpha" k2="-1" k3="1" operator="arithmetic"/><feColorMatrix values="0 0 0 0 0.803922 0 0 0 0 0.545098 0 0 0 0 0.247059 0 0 0 1 0"/><feBlend in2="shape" result="effect1_innerShadow_4002_1361"/></filter><filter id="woman-elf_svg__C" width="4.108" height="5.161" x="20.376" y="7.605" color-interpolation-filters="sRGB" filterUnits="userSpaceOnUse"><feFlood flood-opacity="0" result="BackgroundImageFix"/><feBlend in="SourceGraphic" in2="BackgroundImageFix" result="shape"/><feColorMatrix in="SourceAlpha" result="hardAlpha" values="0 0 0 0 0 0 0 0 0 0 0 0 0 0 0 0 0 0 127 0"/><feOffset dx=".1" dy=".1"/><feGaussianBlur stdDeviation=".2"/><feComposite in2="hardAlpha" k2="-1" k3="1" operator="arithmetic"/><feColorMatrix values="0 0 0 0 0.933333 0 0 0 0 0.721569 0 0 0 0 0.235294 0 0 0 1 0"/><feBlend in2="shape" result="effect1_innerShadow_4002_1361"/><feColorMatrix in="SourceAlpha" result="hardAlpha" values="0 0 0 0 0 0 0 0 0 0 0 0 0 0 0 0 0 0 127 0"/><feOffset dx=".15" dy="-.15"/><feGaussianBlur stdDeviation=".125"/><feComposite in2="hardAlpha" k2="-1" k3="1" operator="arithmetic"/><feColorMatrix values="0 0 0 0 0.85098 0 0 0 0 0.607843 0 0 0 0 0.235294 0 0 0 1 0"/><feBlend in2="effect1_innerShadow_4002_1361" result="effect2_innerShadow_4002_1361"/></filter><filter id="woman-elf_svg__E" width="3.958" height="5.111" x="7.666" y="7.755" color-interpolation-filters="sRGB" filterUnits="userSpaceOnUse"><feFlood flood-opacity="0" result="BackgroundImageFix"/><feBlend in="SourceGraphic" in2="BackgroundImageFix" result="shape"/><feColorMatrix in="SourceAlpha" result="hardAlpha" values="0 0 0 0 0 0 0 0 0 0 0 0 0 0 0 0 0 0 127 0"/><feOffset dy=".2"/><feGaussianBlur stdDeviation=".2"/><feComposite in2="hardAlpha" k2="-1" k3="1" operator="arithmetic"/><feColorMatrix values="0 0 0 0 0.772549 0 0 0 0 0.576471 0 0 0 0 0.266667 0 0 0 1 0"/><feBlend in2="shape" result="effect1_innerShadow_4002_1361"/></filter><filter id="woman-elf_svg__H" width="3.174" height="3.27" x="20.499" y="8.505" color-interpolation-filters="sRGB" filterUnits="userSpaceOnUse"><feFlood flood-opacity="0" result="BackgroundImageFix"/><feBlend in="SourceGraphic" in2="BackgroundImageFix" result="shape"/><feColorMatrix in="SourceAlpha" result="hardAlpha" values="0 0 0 0 0 0 0 0 0 0 0 0 0 0 0 0 0 0 127 0"/><feOffset dx="-.1" dy="-.1"/><feGaussianBlur stdDeviation=".1"/><feComposite in2="hardAlpha" k2="-1" k3="1" operator="arithmetic"/><feColorMatrix values="0 0 0 0 0.992157 0 0 0 0 0.796078 0 0 0 0 0.27451 0 0 0 1 0"/><feBlend in2="shape" result="effect1_innerShadow_4002_1361"/></filter><filter id="woman-elf_svg__M" width="13.191" height="7.279" x="9.404" y="14.062" color-interpolation-filters="sRGB" filterUnits="userSpaceOnUse"><feFlood flood-opacity="0" result="BackgroundImageFix"/><feBlend in="SourceGraphic" in2="BackgroundImageFix" result="shape"/><feColorMatrix in="SourceAlpha" result="hardAlpha" values="0 0 0 0 0 0 0 0 0 0 0 0 0 0 0 0 0 0 127 0"/><feOffset dy="-.4"/><feGaussianBlur stdDeviation=".4"/><feComposite in2="hardAlpha" k2="-1" k3="1" operator="arithmetic"/><feColorMatrix values="0 0 0 0 0.47451 0 0 0 0 0.243137 0 0 0 0 0.266667 0 0 0 1 0"/><feBlend in2="shape" result="effect1_innerShadow_4002_1361"/></filter><filter id="woman-elf_svg__T" width="6.278" height="4.65" x="12.723" y="15.577" color-interpolation-filters="sRGB" filterUnits="userSpaceOnUse"><feFlood flood-opacity="0" result="BackgroundImageFix"/><feBlend in="SourceGraphic" in2="BackgroundImageFix" result="shape"/><feColorMatrix in="SourceAlpha" result="hardAlpha" values="0 0 0 0 0 0 0 0 0 0 0 0 0 0 0 0 0 0 127 0"/><feOffset dx="-.2"/><feGaussianBlur stdDeviation=".25"/><feComposite in2="hardAlpha" k2="-1" k3="1" operator="arithmetic"/><feColorMatrix values="0 0 0 0 0.733333 0 0 0 0 0.490196 0 0 0 0 0.129412 0 0 0 1 0"/><feBlend in2="shape" result="effect1_innerShadow_4002_1361"/></filter><filter id="woman-elf_svg__W" width="10.85" height="12.138" x="10.825" y="4.529" color-interpolation-filters="sRGB" filterUnits="userSpaceOnUse"><feFlood flood-opacity="0" result="BackgroundImageFix"/><feBlend in="SourceGraphic" in2="BackgroundImageFix" result="shape"/><feColorMatrix in="SourceAlpha" result="hardAlpha" values="0 0 0 0 0 0 0 0 0 0 0 0 0 0 0 0 0 0 127 0"/><feOffset dx=".5"/><feGaussianBlur stdDeviation=".375"/><feComposite in2="hardAlpha" k2="-1" k3="1" operator="arithmetic"/><feColorMatrix values="0 0 0 0 0.819608 0 0 0 0 0.611765 0 0 0 0 0.278431 0 0 0 1 0"/><feBlend in2="shape" result="effect1_innerShadow_4002_1361"/></filter><filter id="woman-elf_svg__ah" width="4.148" height="5.475" x="9.651" y="3.664" color-interpolation-filters="sRGB" filterUnits="userSpaceOnUse"><feFlood flood-opacity="0" result="BackgroundImageFix"/><feBlend in="SourceGraphic" in2="BackgroundImageFix" result="shape"/><feGaussianBlur result="effect1_foregroundBlur_4002_1361" stdDeviation=".05"/></filter><filter id="woman-elf_svg__am" width="9.815" height="5.825" x="12.74" y="2.231" color-interpolation-filters="sRGB" filterUnits="userSpaceOnUse"><feFlood flood-opacity="0" result="BackgroundImageFix"/><feBlend in="SourceGraphic" in2="BackgroundImageFix" result="shape"/><feGaussianBlur result="effect1_foregroundBlur_4002_1361" stdDeviation=".1"/></filter><filter id="woman-elf_svg__aw" width="2.288" height="1.093" x="17.531" y="7.708" color-interpolation-filters="sRGB" filterUnits="userSpaceOnUse"><feFlood flood-opacity="0" result="BackgroundImageFix"/><feBlend in="SourceGraphic" in2="BackgroundImageFix" result="shape"/><feColorMatrix in="SourceAlpha" result="hardAlpha" values="0 0 0 0 0 0 0 0 0 0 0 0 0 0 0 0 0 0 127 0"/><feOffset dy="-.2"/><feGaussianBlur stdDeviation=".15"/><feComposite in2="hardAlpha" k2="-1" k3="1" operator="arithmetic"/><feColorMatrix values="0 0 0 0 0.835294 0 0 0 0 0.384314 0 0 0 0 0.137255 0 0 0 1 0"/><feBlend in2="shape" result="effect1_innerShadow_4002_1361"/></filter><filter id="woman-elf_svg__ax" width="2.288" height="1.093" x="12.21" y="7.708" color-interpolation-filters="sRGB" filterUnits="userSpaceOnUse"><feFlood flood-opacity="0" result="BackgroundImageFix"/><feBlend in="SourceGraphic" in2="BackgroundImageFix" result="shape"/><feColorMatrix in="SourceAlpha" result="hardAlpha" values="0 0 0 0 0 0 0 0 0 0 0 0 0 0 0 0 0 0 127 0"/><feOffset dy="-.2"/><feGaussianBlur stdDeviation=".15"/><feComposite in2="hardAlpha" k2="-1" k3="1" operator="arithmetic"/><feColorMatrix values="0 0 0 0 0.74902 0 0 0 0 0.356863 0 0 0 0 0.180392 0 0 0 1 0"/><feBlend in2="shape" result="effect1_innerShadow_4002_1361"/></filter><filter id="woman-elf_svg__ay" width="2.687" height="3.9" x="14.354" y="9.488" color-interpolation-filters="sRGB" filterUnits="userSpaceOnUse"><feFlood flood-opacity="0" result="BackgroundImageFix"/><feBlend in="SourceGraphic" in2="BackgroundImageFix" result="shape"/><feGaussianBlur result="effect1_foregroundBlur_4002_1361" stdDeviation=".25"/></filter><filter id="woman-elf_svg__aE" width=".787" height=".696" x="17.463" y="9.632" color-interpolation-filters="sRGB" filterUnits="userSpaceOnUse"><feFlood flood-opacity="0" result="BackgroundImageFix"/><feBlend in="SourceGraphic" in2="BackgroundImageFix" result="shape"/><feGaussianBlur result="effect1_foregroundBlur_4002_1361" stdDeviation=".05"/></filter><filter id="woman-elf_svg__aG" width=".891" height=".913" x="18.303" y="9.707" color-interpolation-filters="sRGB" filterUnits="userSpaceOnUse"><feFlood flood-opacity="0" result="BackgroundImageFix"/><feBlend in="SourceGraphic" in2="BackgroundImageFix" result="shape"/><feGaussianBlur result="effect1_foregroundBlur_4002_1361" stdDeviation=".1"/></filter><filter id="woman-elf_svg__aJ" width=".986" height="1.04" x="13.86" y="9.644" color-interpolation-filters="sRGB" filterUnits="userSpaceOnUse"><feFlood flood-opacity="0" result="BackgroundImageFix"/><feBlend in="SourceGraphic" in2="BackgroundImageFix" result="shape"/><feGaussianBlur result="effect1_foregroundBlur_4002_1361" stdDeviation=".1"/></filter><filter id="woman-elf_svg__aL" width=".913" height=".705" x="13.105" y="9.624" color-interpolation-filters="sRGB" filterUnits="userSpaceOnUse"><feFlood flood-opacity="0" result="BackgroundImageFix"/><feBlend in="SourceGraphic" in2="BackgroundImageFix" result="shape"/><feGaussianBlur result="effect1_foregroundBlur_4002_1361" stdDeviation=".05"/></filter><linearGradient id="woman-elf_svg__a" x1="15.049" x2="15.049" y1="29.939" y2="20.53" gradientUnits="userSpaceOnUse"><stop stop-color="#6651AA"/><stop offset="1" stop-color="#6651AA" stop-opacity="0"/></linearGradient><linearGradient id="woman-elf_svg__k" x1="8.912" x2="8.912" y1="29.939" y2="26.655" gradientUnits="userSpaceOnUse"><stop stop-color="#6655A7"/><stop offset="1" stop-color="#6655A7" stop-opacity="0"/></linearGradient><linearGradient id="woman-elf_svg__m" x1="24.142" x2="27.327" y1="29.311" y2="21.436" gradientUnits="userSpaceOnUse"><stop offset=".116" stop-color="#7566B5"/><stop offset=".679" stop-color="#7566B5" stop-opacity="0"/></linearGradient><linearGradient id="woman-elf_svg__o" x1="12.518" x2="22.705" y1="21.28" y2="30.936" gradientUnits="userSpaceOnUse"><stop stop-color="#714743"/><stop offset="1" stop-color="#A16162"/></linearGradient><linearGradient id="woman-elf_svg__p" x1="27.198" x2="19.296" y1="30.793" y2="28.026" gradientUnits="userSpaceOnUse"><stop stop-color="#BB8274"/><stop offset="1" stop-color="#B3776E" stop-opacity="0"/></linearGradient><linearGradient id="woman-elf_svg__t" x1="15.015" x2="15.229" y1="28.674" y2="28.469" gradientUnits="userSpaceOnUse"><stop stop-color="#7B4B52"/><stop offset="1" stop-color="#7B4B52" stop-opacity="0"/></linearGradient><linearGradient id="woman-elf_svg__u" x1="19.002" x2="18.65" y1="21.983" y2="22.342" gradientUnits="userSpaceOnUse"><stop stop-color="#906550"/><stop offset="1" stop-color="#7F4B4C" stop-opacity="0"/></linearGradient><linearGradient id="woman-elf_svg__D" x1="22.046" x2="23.357" y1="9.342" y2="11.358" gradientUnits="userSpaceOnUse"><stop stop-color="#FEC938"/><stop offset="1" stop-color="#FFD345"/></linearGradient><linearGradient id="woman-elf_svg__ap" x1="15.58" x2="17.299" y1="5.672" y2="5.672" gradientUnits="userSpaceOnUse"><stop stop-color="#ABA5AE"/><stop offset="1" stop-color="#CDC7E1"/></linearGradient><linearGradient id="woman-elf_svg__aq" x1="15.644" x2="15.644" y1="6.329" y2="5.672" gradientUnits="userSpaceOnUse"><stop stop-color="#B688B9"/><stop offset="1" stop-color="#B688B9" stop-opacity="0"/></linearGradient><linearGradient id="woman-elf_svg__ar" x1="15.969" x2="15.969" y1="4.756" y2="5.342" gradientUnits="userSpaceOnUse"><stop stop-color="#A29B98"/><stop offset="1" stop-color="#A29B98" stop-opacity="0"/></linearGradient><linearGradient id="woman-elf_svg__aB" x1="15.804" x2="16" y1="9.702" y2="10.444" gradientUnits="userSpaceOnUse"><stop stop-color="#FBBC2D"/><stop offset="1" stop-color="#FABF2B" stop-opacity="0"/></linearGradient><linearGradient id="woman-elf_svg__aH" x1="18.975" x2="18.661" y1="10.126" y2="10.319" gradientUnits="userSpaceOnUse"><stop stop-color="#B4948D"/><stop offset="1" stop-color="#B4948D" stop-opacity="0"/></linearGradient><linearGradient id="woman-elf_svg__aK" x1="14.576" x2="14.263" y1="10.126" y2="10.319" gradientUnits="userSpaceOnUse"><stop stop-color="#B4948D"/><stop offset="1" stop-color="#B4948D" stop-opacity="0"/></linearGradient></defs></svg>