<svg width="32" height="32" fill="none" xmlns="http://www.w3.org/2000/svg"><path d="m9.614 27.725-1-5.18 2.57-.476v6.36l-1.57-.704Z" fill="url(#a)"/><path d="m9.614 27.725-1-5.18 2.57-.476v6.36l-1.57-.704Z" fill="url(#b)"/><path d="m9.614 27.725-1-5.18 2.57-.476v6.36l-1.57-.704Z" fill="url(#c)"/><path d="m24.747 24.295-4.774.703-.328-2.546 5.215.148-.113 1.695Z" fill="#584444"/><path d="m24.747 24.295-4.774.703-.328-2.546 5.215.148-.113 1.695Z" fill="url(#d)"/><path d="m24.747 24.295-4.774.703-.328-2.546 5.215.148-.113 1.695Z" fill="url(#e)"/><path d="m16.942 23.975-.398-1.297 2.906-1.383.203 1.125h.258c.162.9.172 2.141.156 2.649-.041.013-.301.056-.914.125-1.412.225-2.062-.719-2.21-1.219Z" fill="#7E50D4"/><path d="m16.942 23.975-.398-1.297 2.906-1.383.203 1.125h.258c.162.9.172 2.141.156 2.649-.041.013-.301.056-.914.125-1.412.225-2.062-.719-2.21-1.219Z" fill="url(#f)"/><path d="m16.942 23.975-.398-1.297 2.906-1.383.203 1.125h.258c.162.9.172 2.141.156 2.649-.041.013-.301.056-.914.125-1.412.225-2.062-.719-2.21-1.219Z" fill="url(#g)"/><path d="m16.942 23.975-.398-1.297 2.906-1.383.203 1.125h.258c.162.9.172 2.141.156 2.649-.041.013-.301.056-.914.125-1.412.225-2.062-.719-2.21-1.219Z" fill="url(#h)"/><path d="m16.942 23.975-.398-1.297 2.906-1.383.203 1.125h.258c.162.9.172 2.141.156 2.649-.041.013-.301.056-.914.125-1.412.225-2.062-.719-2.21-1.219Z" fill="url(#i)"/><path d="m10.2 19.077 1.016-.446 1.61 2.836-1.563.469v.422l-2.68.258c-.073-.399-.2-1.252.102-2.016.335-.848 1.148-1.362 1.515-1.523Z" fill="url(#j)"/><path d="m10.2 19.077 1.016-.446 1.61 2.836-1.563.469v.422l-2.68.258c-.073-.399-.2-1.252.102-2.016.335-.848 1.148-1.362 1.515-1.523Z" fill="url(#k)"/><path d="m10.2 19.077 1.016-.446 1.61 2.836-1.563.469v.422l-2.68.258c-.073-.399-.2-1.252.102-2.016.335-.848 1.148-1.362 1.515-1.523Z" fill="url(#l)"/><path d="m10.2 19.077 1.016-.446 1.61 2.836-1.563.469v.422l-2.68.258c-.073-.399-.2-1.252.102-2.016.335-.848 1.148-1.362 1.515-1.523Z" fill="url(#m)"/><g filter="url(#n)"><path d="M16.55 22.745s-.464-1.232-.64-2.275c-.176-1.044 2.336-4.437 2.336-4.437.95 1.49 1.296 2.635 1.641 4.012.209.833.264 1.08-.204 1.539-.637.569-2.49.982-3.133 1.16Z" fill="#97919E"/><path d="M16.55 22.745s-.464-1.232-.64-2.275c-.176-1.044 2.336-4.437 2.336-4.437.95 1.49 1.296 2.635 1.641 4.012.209.833.264 1.08-.204 1.539-.637.569-2.49.982-3.133 1.16Z" fill="url(#o)"/></g><path fill-rule="evenodd" clip-rule="evenodd" d="M6.035 11.676a1.15 1.15 0 0 1 1.607-.247c1.178.864 3.405 1.382 5.632.316a1.15 1.15 0 1 1 .993 2.075c-3.032 1.45-6.188.804-8.137-.703-.512-.375-.471-.93-.095-1.441Z" fill="#42292D"/><path fill-rule="evenodd" clip-rule="evenodd" d="M6.035 11.676a1.15 1.15 0 0 1 1.607-.247c1.178.864 3.405 1.382 5.632.316a1.15 1.15 0 1 1 .993 2.075c-3.032 1.45-6.188.804-8.137-.703-.512-.375-.471-.93-.095-1.441Z" fill="url(#p)"/><path fill-rule="evenodd" clip-rule="evenodd" d="M6.035 11.676a1.15 1.15 0 0 1 1.607-.247c1.178.864 3.405 1.382 5.632.316a1.15 1.15 0 1 1 .993 2.075c-3.032 1.45-6.188.804-8.137-.703-.512-.375-.471-.93-.095-1.441Z" fill="url(#q)"/><path fill-rule="evenodd" clip-rule="evenodd" d="M6.035 11.676a1.15 1.15 0 0 1 1.607-.247c1.178.864 3.405 1.382 5.632.316a1.15 1.15 0 1 1 .993 2.075c-3.032 1.45-6.188.804-8.137-.703-.512-.375-.471-.93-.095-1.441Z" fill="url(#r)"/><path transform="rotate(-23.31 13.976 8.014)" fill="url(#s)" d="M13.976 8.014h2.217v3.3h-2.217Z"/><path d="M11.673 6.522c.162-.159.24-.39.258-.485l.193-.007.048 1.167c-.225.151-.556.141-.663-.068-.092-.179-.038-.408.164-.607Z" fill="url(#t)"/><g filter="url(#u)"><path d="M11.873 5.512c.007-.833.27-1.244.396-1.367l4.013-.153.203 3.281c-.842 2.238-3.682 2.442-4.14 1.661-.457-.78-.48-2.457-.472-3.422Z" fill="url(#v)"/><path d="M11.873 5.512c.007-.833.27-1.244.396-1.367l4.013-.153.203 3.281c-.842 2.238-3.682 2.442-4.14 1.661-.457-.78-.48-2.457-.472-3.422Z" fill="url(#w)"/><path d="M11.873 5.512c.007-.833.27-1.244.396-1.367l4.013-.153.203 3.281c-.842 2.238-3.682 2.442-4.14 1.661-.457-.78-.48-2.457-.472-3.422Z" fill="url(#x)"/><path d="M11.873 5.512c.007-.833.27-1.244.396-1.367l4.013-.153.203 3.281c-.842 2.238-3.682 2.442-4.14 1.661-.457-.78-.48-2.457-.472-3.422Z" fill="url(#y)"/></g><g filter="url(#z)"><path d="M11.686 4.12c-.202-.42-.018-.877.08-1.036.366-.712 1.182-.79 1.662-.607.564.214.734.332 1.622.051.89-.281 2.002-.21 2.623.773.621.984.037 2.139.206 2.75.168.61.578.656.758 1.364.167.984-.441 1.653-.998 1.821-.557.167-1.722.066-2.137-.828-.68-1.462-.288-2.182-.453-2.923-.165-.741-.636-.934-1.47-.74-.98.229-1.623-.069-1.893-.626Z" fill="#241823"/><path d="M11.686 4.12c-.202-.42-.018-.877.08-1.036.366-.712 1.182-.79 1.662-.607.564.214.734.332 1.622.051.89-.281 2.002-.21 2.623.773.621.984.037 2.139.206 2.75.168.61.578.656.758 1.364.167.984-.441 1.653-.998 1.821-.557.167-1.722.066-2.137-.828-.68-1.462-.288-2.182-.453-2.923-.165-.741-.636-.934-1.47-.74-.98.229-1.623-.069-1.893-.626Z" fill="url(#A)"/></g><path d="M14.95 6.905c-.055.002-.095-.047-.09-.1l.134-1.305c.005-.055.055-.096.109-.083a.762.762 0 0 1 .596.703.766.766 0 0 1-.75.785Z" fill="url(#B)"/><path d="M14.95 6.905c-.055.002-.095-.047-.09-.1l.134-1.305c.005-.055.055-.096.109-.083a.762.762 0 0 1 .596.703.766.766 0 0 1-.75.785Z" fill="url(#C)"/><path fill-rule="evenodd" clip-rule="evenodd" d="M13.3 7.44c.054.05.057.132.006.184-.246.253-.614.329-.731.345a.134.134 0 0 1-.153-.11.13.13 0 0 1 .114-.147c.1-.014.392-.08.574-.266a.138.138 0 0 1 .19-.005Z" fill="#280017"/><g filter="url(#D)"><path fill-rule="evenodd" clip-rule="evenodd" d="M12.958 5.222a.857.857 0 0 0-.233-.007.16.16 0 0 1-.186-.128.156.156 0 0 1 .133-.18c.076-.011.2-.013.337.008.138.02.301.068.446.163a.153.153 0 0 1 .043.216.165.165 0 0 1-.224.041.805.805 0 0 0-.316-.113Z" fill="#2C2929"/></g><path d="M13.532 5.743c-.147-.13-.382-.153-.482-.148l.346.472c.157-.015.319-.16.136-.324Z" fill="#2F2C2D"/><path d="m12.451 6.316 1.063-.041c-.017-.407-.268-.727-.561-.716-.294.011-.518.35-.502.757Z" fill="#fff"/><path d="M13.101 6.29v-.004c-.014-.332-.172-.596-.354-.59-.182.008-.319.283-.305.615v.004l.659-.025Z" fill="url(#E)"/><path d="M12.89 6.296a.638.638 0 0 0 0-.074c-.007-.192-.098-.344-.201-.34-.104.004-.182.162-.174.354.001.026.004.05.007.074l.368-.014Z" fill="url(#F)"/><path transform="matrix(.92953 .36876 -.39167 .9201 12.623 5.943)" fill="url(#G)" d="M-.069 0A.069.091 0 1 0 .07 0 .069.091 0 1 0-.07 0"/><g filter="url(#H)"><path d="m15.493 9.4.674-.168c.233-.059.476-.07.713-.03l1.53 2.194c-.642 1.685-.595 3.034-.097 4.255l-4.898 2.074c-.855-2.918-.665-5.398 0-6.555.597-1.12 1.426-1.582 2.078-1.77Z" fill="#745AB0"/><path d="m15.493 9.4.674-.168c.233-.059.476-.07.713-.03l1.53 2.194c-.642 1.685-.595 3.034-.097 4.255l-4.898 2.074c-.855-2.918-.665-5.398 0-6.555.597-1.12 1.426-1.582 2.078-1.77Z" fill="url(#I)"/><path d="m15.493 9.4.674-.168c.233-.059.476-.07.713-.03l1.53 2.194c-.642 1.685-.595 3.034-.097 4.255l-4.898 2.074c-.855-2.918-.665-5.398 0-6.555.597-1.12 1.426-1.582 2.078-1.77Z" fill="url(#J)"/><path d="m15.493 9.4.674-.168c.233-.059.476-.07.713-.03l1.53 2.194c-.642 1.685-.595 3.034-.097 4.255l-4.898 2.074c-.855-2.918-.665-5.398 0-6.555.597-1.12 1.426-1.582 2.078-1.77Z" fill="url(#K)"/><path d="m15.493 9.4.674-.168c.233-.059.476-.07.713-.03l1.53 2.194c-.642 1.685-.595 3.034-.097 4.255l-4.898 2.074c-.855-2.918-.665-5.398 0-6.555.597-1.12 1.426-1.582 2.078-1.77Z" fill="url(#L)"/><path d="m15.493 9.4.674-.168c.233-.059.476-.07.713-.03l1.53 2.194c-.642 1.685-.595 3.034-.097 4.255l-4.898 2.074c-.855-2.918-.665-5.398 0-6.555.597-1.12 1.426-1.582 2.078-1.77Z" fill="url(#M)"/></g><path d="m7.403 28.647 2.214-1.071 1.575.751-.014 1.34a.253.253 0 0 1-.252.249l-3.854.022c-.221.002-.418-.15-.395-.369.046-.453.333-.737.726-.922Z" fill="url(#N)"/><path d="m7.403 28.647 2.214-1.071 1.575.751-.014 1.34a.253.253 0 0 1-.252.249l-3.854.022c-.221.002-.418-.15-.395-.369.046-.453.333-.737.726-.922Z" fill="url(#O)"/><path d="m7.403 28.647 2.214-1.071 1.575.751-.014 1.34a.253.253 0 0 1-.252.249l-3.854.022c-.221.002-.418-.15-.395-.369.046-.453.333-.737.726-.922Z" fill="url(#P)"/><path d="m7.403 28.647 2.214-1.071 1.575.751-.014 1.34a.253.253 0 0 1-.252.249l-3.854.022c-.221.002-.418-.15-.395-.369.046-.453.333-.737.726-.922Z" fill="url(#Q)"/><path d="m25.947 22.035-1.294.558.035 1.71c.33.289 1.104 1.066 1.808 1.602.46.35.894.355 1.192.295.226-.045.287-.3.188-.509l-1.594-3.539a.25.25 0 0 0-.335-.117Z" fill="#473F82"/><path d="m25.947 22.035-1.294.558.035 1.71c.33.289 1.104 1.066 1.808 1.602.46.35.894.355 1.192.295.226-.045.287-.3.188-.509l-1.594-3.539a.25.25 0 0 0-.335-.117Z" fill="url(#R)"/><path d="m25.947 22.035-1.294.558.035 1.71c.33.289 1.104 1.066 1.808 1.602.46.35.894.355 1.192.295.226-.045.287-.3.188-.509l-1.594-3.539a.25.25 0 0 0-.335-.117Z" fill="url(#S)"/><path d="m25.947 22.035-1.294.558.035 1.71c.33.289 1.104 1.066 1.808 1.602.46.35.894.355 1.192.295.226-.045.287-.3.188-.509l-1.594-3.539a.25.25 0 0 0-.335-.117Z" fill="url(#T)"/><path d="M18.3 15.613s-4.632 1.787-7.165 3.046a17.642 17.642 0 0 0 1.804 3.37.92.92 0 0 0 1.198.278c1.085-.572 2.045-1.031 3.183-1.726 2.04-1.244 1.784-2.567 1.663-3.264-.105-.604-.492-1.322-.684-1.704Z" fill="#918996"/><path d="M18.3 15.613s-4.632 1.787-7.165 3.046a17.642 17.642 0 0 0 1.804 3.37.92.92 0 0 0 1.198.278c1.085-.572 2.045-1.031 3.183-1.726 2.04-1.244 1.784-2.567 1.663-3.264-.105-.604-.492-1.322-.684-1.704Z" fill="url(#U)"/><path d="M18.3 15.613s-4.632 1.787-7.165 3.046a17.642 17.642 0 0 0 1.804 3.37.92.92 0 0 0 1.198.278c1.085-.572 2.045-1.031 3.183-1.726 2.04-1.244 1.784-2.567 1.663-3.264-.105-.604-.492-1.322-.684-1.704Z" fill="url(#V)"/><path d="M18.3 15.613s-4.632 1.787-7.165 3.046a17.642 17.642 0 0 0 1.804 3.37.92.92 0 0 0 1.198.278c1.085-.572 2.045-1.031 3.183-1.726 2.04-1.244 1.784-2.567 1.663-3.264-.105-.604-.492-1.322-.684-1.704Z" fill="url(#W)"/><path d="M18.3 15.613s-4.632 1.787-7.165 3.046a17.642 17.642 0 0 0 1.804 3.37.92.92 0 0 0 1.198.278c1.085-.572 2.045-1.031 3.183-1.726 2.04-1.244 1.784-2.567 1.663-3.264-.105-.604-.492-1.322-.684-1.704Z" fill="url(#X)"/><path d="M18.3 15.613s-4.632 1.787-7.165 3.046a17.642 17.642 0 0 0 1.804 3.37.92.92 0 0 0 1.198.278c1.085-.572 2.045-1.031 3.183-1.726 2.04-1.244 1.784-2.567 1.663-3.264-.105-.604-.492-1.322-.684-1.704Z" fill="url(#Y)"/><g filter="url(#Z)"><path fill-rule="evenodd" clip-rule="evenodd" d="M24.316 3.473c.611.17.97.804.8 1.416l-.809 2.915a4.15 4.15 0 0 1-3.214 2.966l-4.232.815a1.15 1.15 0 1 1-.435-2.259l4.232-.814a1.85 1.85 0 0 0 1.433-1.322l.809-2.916a1.15 1.15 0 0 1 1.416-.801Z" fill="#493030"/></g><path fill-rule="evenodd" clip-rule="evenodd" d="M24.316 3.473c.611.17.97.804.8 1.416l-.809 2.915a4.15 4.15 0 0 1-3.214 2.966l-4.232.815a1.15 1.15 0 1 1-.435-2.259l4.232-.814a1.85 1.85 0 0 0 1.433-1.322l.809-2.916a1.15 1.15 0 0 1 1.416-.801Z" fill="url(#aa)"/><path fill-rule="evenodd" clip-rule="evenodd" d="M24.316 3.473c.611.17.97.804.8 1.416l-.809 2.915a4.15 4.15 0 0 1-3.214 2.966l-4.232.815a1.15 1.15 0 1 1-.435-2.259l4.232-.814a1.85 1.85 0 0 0 1.433-1.322l.809-2.916a1.15 1.15 0 0 1 1.416-.801Z" fill="url(#ab)"/><path d="m19.732 11.598-.61-2.962-3.005.597a1.483 1.483 0 0 0 .55 2.914l3.065-.55Z" fill="#8060B2"/><path d="m19.732 11.598-.61-2.962-3.005.597a1.483 1.483 0 0 0 .55 2.914l3.065-.55Z" fill="url(#ac)"/><path d="m19.732 11.598-.61-2.962-3.005.597a1.483 1.483 0 0 0 .55 2.914l3.065-.55Z" fill="url(#ad)"/><path d="m19.732 11.598-.61-2.962-3.005.597a1.483 1.483 0 0 0 .55 2.914l3.065-.55Z" fill="url(#ae)"/><path transform="rotate(16.21 22.49 5.391)" fill="url(#af)" d="M22.69 5.391h2.133s.2 0 .2.2v.962s0 .2-.2.2H22.69s-.2 0-.2-.2v-.962s0-.2.2-.2"/><path transform="rotate(16.21 22.49 5.391)" fill="url(#ag)" d="M22.69 5.391h2.133s.2 0 .2.2v.962s0 .2-.2.2H22.69s-.2 0-.2-.2v-.962s0-.2.2-.2"/><path d="M4.624 11.557a.44.44 0 0 1 .44-.44h1.373c.113 0 .54.008.9.147l.109.34-.403.393h-1.98a.44.44 0 0 1-.44-.44Z" fill="url(#ah)"/><path d="M4.624 11.557a.44.44 0 0 1 .44-.44h1.373c.113 0 .54.008.9.147l.109.34-.403.393h-1.98a.44.44 0 0 1-.44-.44Z" fill="url(#ai)"/><path d="M4.052 11.997a.44.44 0 0 1 .44-.44H6.47v.88H4.49a.44.44 0 0 1-.44-.44Z" fill="url(#aj)"/><path d="M4.052 11.997a.44.44 0 0 1 .44-.44H6.47v.88H4.49a.44.44 0 0 1-.44-.44Z" fill="url(#ak)"/><path d="M4.494 12.58a.44.44 0 0 1 .44-.44h1.537v.48a.4.4 0 0 1-.4.4H4.934a.44.44 0 0 1-.44-.44Z" fill="url(#al)"/><path d="M4.494 12.58a.44.44 0 0 1 .44-.44h1.537v.48a.4.4 0 0 1-.4.4H4.934a.44.44 0 0 1-.44-.44Z" fill="url(#am)"/><g filter="url(#an)"><path d="M7.828 11.587a.197.197 0 0 1 .257-.09c.244.112.695.325.974.496.085.052.108.16.061.247l-1.028 1.906a.186.186 0 0 1-.223.091 4.011 4.011 0 0 1-.975-.495.192.192 0 0 1-.057-.247l.991-1.908Z" fill="url(#ao)"/></g><path d="M24.553 4.124a2.063 2.063 0 1 1-4.125 0 2.063 2.063 0 0 1 4.125 0Z" fill="url(#ap)"/><path d="M24.553 4.124a2.063 2.063 0 1 1-4.125 0 2.063 2.063 0 0 1 4.125 0Z" fill="url(#aq)"/><path d="M24.553 4.124a2.063 2.063 0 1 1-4.125 0 2.063 2.063 0 0 1 4.125 0Z" fill="url(#ar)"/><path d="M24.553 4.124a2.063 2.063 0 1 1-4.125 0 2.063 2.063 0 0 1 4.125 0Z" fill="url(#as)"/><path d="M24.553 4.124a2.063 2.063 0 1 1-4.125 0 2.063 2.063 0 0 1 4.125 0Z" fill="url(#at)"/><g filter="url(#au)"><path fill="#574545" d="M4.963 12.272H6.23s.1 0 .1.1 0 .099-.1.099H4.963s-.099 0-.099-.1 0-.099.1-.099"/></g><g filter="url(#av)"><path fill="#574545" d="M4.513 11.674h1.64s.133 0 .133.133 0 .133-.133.133h-1.64s-.133 0-.133-.133 0-.133.133-.133"/></g><defs><radialGradient id="f" cx="0" cy="0" r="1" gradientUnits="userSpaceOnUse" gradientTransform="rotate(73.906 -5.023 23.477) scale(2.23164 1.56091)"><stop offset=".146" stop-color="#9579D9"/><stop offset="1" stop-color="#8D6BDA" stop-opacity="0"/></radialGradient><radialGradient id="g" cx="0" cy="0" r="1" gradientUnits="userSpaceOnUse" gradientTransform="matrix(-.57157 2.94815 -3.2663 -.63325 18.88 22.28)"><stop offset=".625" stop-color="#7B46D0" stop-opacity="0"/><stop offset="1" stop-color="#7B46D0"/></radialGradient><radialGradient id="h" cx="0" cy="0" r="1" gradientUnits="userSpaceOnUse" gradientTransform="matrix(.80677 2.5012 -1.15566 .37276 16.338 22.544)"><stop stop-color="#886AC6"/><stop offset="1" stop-color="#886AC6" stop-opacity="0"/></radialGradient><radialGradient id="i" cx="0" cy="0" r="1" gradientUnits="userSpaceOnUse" gradientTransform="rotate(71.565 -6.364 23.576) scale(.54352 3.09962)"><stop offset=".241" stop-color="#6E46C0"/><stop offset="1" stop-color="#6E46C0" stop-opacity="0"/></radialGradient><radialGradient id="j" cx="0" cy="0" r="1" gradientUnits="userSpaceOnUse" gradientTransform="matrix(-3.80517 2.25001 -1.4808 -2.5043 12.825 19.514)"><stop offset=".313" stop-color="#8663D2"/><stop offset="1" stop-color="#845FCD"/></radialGradient><radialGradient id="k" cx="0" cy="0" r="1" gradientUnits="userSpaceOnUse" gradientTransform="rotate(-134.88 10.934 8.218) scale(2.4697 2.5678)"><stop offset=".132" stop-color="#7745C0"/><stop offset="1" stop-color="#7745C0" stop-opacity="0"/></radialGradient><radialGradient id="l" cx="0" cy="0" r="1" gradientUnits="userSpaceOnUse" gradientTransform="matrix(-3.62085 -1.17187 1.5004 -4.6359 12.114 21.795)"><stop offset=".713" stop-color="#9277CC" stop-opacity="0"/><stop offset="1" stop-color="#9277CC"/></radialGradient><radialGradient id="o" cx="0" cy="0" r="1" gradientUnits="userSpaceOnUse" gradientTransform="matrix(2.4375 4.75 -1.7011 .87293 16.614 19.782)"><stop offset=".329" stop-color="#746484"/><stop offset="1" stop-color="#827483" stop-opacity="0"/></radialGradient><radialGradient id="p" cx="0" cy="0" r="1" gradientUnits="userSpaceOnUse" gradientTransform="rotate(-137.447 9.529 4.43) scale(2.58772 3.67383)"><stop offset=".243" stop-color="#443331"/><stop offset="1" stop-color="#443331" stop-opacity="0"/></radialGradient><radialGradient id="q" cx="0" cy="0" r="1" gradientUnits="userSpaceOnUse" gradientTransform="rotate(90.588 -.382 11.313) scale(3.04704 8.20654)"><stop offset=".543" stop-color="#422229" stop-opacity="0"/><stop offset=".952" stop-color="#44263D"/></radialGradient><radialGradient id="r" cx="0" cy="0" r="1" gradientUnits="userSpaceOnUse" gradientTransform="matrix(-.125 1.15597 -4.12712 -.44629 10.63 11.764)"><stop offset=".411" stop-color="#3F2B28"/><stop offset="1" stop-color="#3F2B28" stop-opacity="0"/></radialGradient><radialGradient id="s" cx="0" cy="0" r="1" gradientUnits="userSpaceOnUse" gradientTransform="matrix(.11892 1.97106 -1.84849 .11153 14.966 9.342)"><stop offset=".198" stop-color="#301D1C"/><stop offset=".75" stop-color="#584A48"/></radialGradient><radialGradient id="t" cx="0" cy="0" r="1" gradientUnits="userSpaceOnUse" gradientTransform="rotate(25.353 -9.845 28.789) scale(.57922 .79985)"><stop offset=".101" stop-color="#68534F"/><stop offset=".684" stop-color="#41212E"/></radialGradient><radialGradient id="w" cx="0" cy="0" r="1" gradientUnits="userSpaceOnUse" gradientTransform="rotate(-179.134 7.667 2.995) scale(.90938 1.07036)"><stop offset=".156" stop-color="#34191A"/><stop offset="1" stop-color="#34191A" stop-opacity="0"/></radialGradient><radialGradient id="x" cx="0" cy="0" r="1" gradientUnits="userSpaceOnUse" gradientTransform="matrix(-.22114 -5.38497 1.51196 -.06209 12.222 7.46)"><stop offset=".163" stop-color="#614C49"/><stop offset="1" stop-color="#614C49" stop-opacity="0"/></radialGradient><radialGradient id="y" cx="0" cy="0" r="1" gradientUnits="userSpaceOnUse" gradientTransform="matrix(.01665 .4055 -.65498 .0269 13.064 6.241)"><stop offset=".155" stop-color="#472F2C"/><stop offset="1" stop-color="#472F2C" stop-opacity="0"/></radialGradient><radialGradient id="A" cx="0" cy="0" r="1" gradientUnits="userSpaceOnUse" gradientTransform="matrix(1.63205 -.51128 1.06464 3.3984 11.832 3.916)"><stop stop-color="#534B49"/><stop offset="1" stop-color="#534B49" stop-opacity="0"/></radialGradient><radialGradient id="B" cx="0" cy="0" r="1" gradientUnits="userSpaceOnUse" gradientTransform="matrix(.77228 -.24887 .11807 .36639 14.977 5.99)"><stop offset=".17" stop-color="#635251"/><stop offset="1" stop-color="#482C2E"/></radialGradient><radialGradient id="E" cx="0" cy="0" r="1" gradientUnits="userSpaceOnUse" gradientTransform="matrix(.2937 -.01124 .02108 .5509 12.748 6.281)"><stop offset=".895" stop-color="#916A62"/><stop offset="1" stop-color="#824D44"/></radialGradient><radialGradient id="F" cx="0" cy="0" r="1" gradientUnits="userSpaceOnUse" gradientTransform="matrix(.26732 -.01023 .02138 .55853 12.568 6.309)"><stop stop-color="#666361"/><stop offset=".813" stop-color="#565352"/></radialGradient><radialGradient id="I" cx="0" cy="0" r="1" gradientUnits="userSpaceOnUse" gradientTransform="rotate(176.945 8.954 7.552) scale(2.5113 5.07652)"><stop stop-color="#8E7EC2"/><stop offset="1" stop-color="#8E7EC2" stop-opacity="0"/></radialGradient><radialGradient id="J" cx="0" cy="0" r="1" gradientUnits="userSpaceOnUse" gradientTransform="rotate(128.721 6.527 10.23) scale(1.69155 2.05757)"><stop offset=".296" stop-color="#745FA7"/><stop offset="1" stop-color="#745FA7" stop-opacity="0"/></radialGradient><radialGradient id="L" cx="0" cy="0" r="1" gradientUnits="userSpaceOnUse" gradientTransform="matrix(1.78125 -.9375 .73922 1.40453 16.91 11.233)"><stop offset=".175" stop-color="#643CAE"/><stop offset="1" stop-color="#643CAE" stop-opacity="0"/></radialGradient><radialGradient id="M" cx="0" cy="0" r="1" gradientUnits="userSpaceOnUse" gradientTransform="rotate(168.111 7.835 8.235) scale(4.55199 6.32638)"><stop offset=".635" stop-color="#755BB1" stop-opacity="0"/><stop offset=".993" stop-color="#8F76BD"/></radialGradient><radialGradient id="O" cx="0" cy="0" r="1" gradientUnits="userSpaceOnUse" gradientTransform="matrix(.79858 0 0 1.52692 6.675 29.938)"><stop stop-color="#66638B"/><stop offset="1" stop-color="#66638B" stop-opacity="0"/></radialGradient><radialGradient id="Q" cx="0" cy="0" r="1" gradientUnits="userSpaceOnUse" gradientTransform="rotate(-120.376 13.423 12.192) scale(2.19385 8.43682)"><stop offset=".742" stop-color="#4A4970" stop-opacity="0"/><stop offset="1" stop-color="#4A4970"/></radialGradient><radialGradient id="U" cx="0" cy="0" r="1" gradientUnits="userSpaceOnUse" gradientTransform="rotate(64.916 -6.562 19.769) scale(4.60225 17.5153)"><stop offset=".554" stop-color="#917EA3" stop-opacity="0"/><stop offset="1" stop-color="#917EA3"/></radialGradient><radialGradient id="V" cx="0" cy="0" r="1" gradientUnits="userSpaceOnUse" gradientTransform="matrix(1.49503 -1.88245 6.26212 4.97335 13.435 22.802)"><stop stop-color="#885FA7"/><stop offset="1" stop-color="#9583A6" stop-opacity="0"/></radialGradient><radialGradient id="W" cx="0" cy="0" r="1" gradientUnits="userSpaceOnUse" gradientTransform="matrix(-2.31612 .83934 -.79838 -2.2031 18.173 18.126)"><stop stop-color="#AFA8B2"/><stop offset="1" stop-color="#9B92A1" stop-opacity="0"/></radialGradient><radialGradient id="Y" cx="0" cy="0" r="1" gradientUnits="userSpaceOnUse" gradientTransform="matrix(2.06572 -.43346 .05445 .25947 13.704 17.342)"><stop offset=".207" stop-color="#9C959A"/><stop offset="1" stop-color="#9C959A" stop-opacity="0"/></radialGradient><radialGradient id="ab" cx="0" cy="0" r="1" gradientUnits="userSpaceOnUse" gradientTransform="rotate(136.224 11.77 7.069) scale(1.98747 1.74972)"><stop stop-color="#5D4846"/><stop offset="1" stop-color="#4D3432" stop-opacity="0"/></radialGradient><radialGradient id="ad" cx="0" cy="0" r="1" gradientUnits="userSpaceOnUse" gradientTransform="matrix(1.03998 -.1057 .17848 1.75613 14.893 10.831)"><stop stop-color="#9276C2"/><stop offset="1" stop-color="#8667C0" stop-opacity="0"/></radialGradient><radialGradient id="ae" cx="0" cy="0" r="1" gradientUnits="userSpaceOnUse" gradientTransform="rotate(168.602 9.333 5.94) scale(.97139 1.51779)"><stop offset=".164" stop-color="#967ACC"/><stop offset="1" stop-color="#8264B7" stop-opacity="0"/></radialGradient><radialGradient id="ao" cx="0" cy="0" r="1" gradientUnits="userSpaceOnUse" gradientTransform="rotate(-149.027 6.18 5.213) scale(1.15719 1.60341)"><stop stop-color="#735D9D"/><stop offset="1" stop-color="#6944A2"/></radialGradient><radialGradient id="ap" cx="0" cy="0" r="1" gradientUnits="userSpaceOnUse" gradientTransform="rotate(-167.229 11.86 .42) scale(2.4032 2.78155)"><stop stop-color="#DDD9E2"/><stop offset="1" stop-color="#BAB6BD"/></radialGradient><radialGradient id="aq" cx="0" cy="0" r="1" gradientUnits="userSpaceOnUse" gradientTransform="rotate(-82.624 14.727 -9.355) scale(2.9305 5.10486)"><stop offset=".114" stop-color="#A580BE"/><stop offset="1" stop-color="#B9B1C0" stop-opacity="0"/></radialGradient><radialGradient id="ar" cx="0" cy="0" r="1" gradientUnits="userSpaceOnUse" gradientTransform="matrix(1.625 -.12411 .12476 1.63348 20.567 4.249)"><stop stop-color="#C3B8C5"/><stop offset="1" stop-color="#C3B8C5" stop-opacity="0"/></radialGradient><radialGradient id="as" cx="0" cy="0" r="1" gradientUnits="userSpaceOnUse" gradientTransform="rotate(158.971 11.05 4.184) scale(2.61012)"><stop offset=".83" stop-color="#C2AAB6" stop-opacity="0"/><stop offset=".992" stop-color="#C2AAB6"/></radialGradient><radialGradient id="at" cx="0" cy="0" r="1" gradientUnits="userSpaceOnUse" gradientTransform="rotate(-124.144 12.727 -3.655) scale(3.34058)"><stop offset=".655" stop-color="#ADAAAD" stop-opacity="0"/><stop offset="1" stop-color="#A5A3A3"/></radialGradient><linearGradient id="a" x1="11.364" y1="26.108" x2="9.677" y2="26.358" gradientUnits="userSpaceOnUse"><stop stop-color="#523939"/><stop offset="1" stop-color="#4F3838"/></linearGradient><linearGradient id="b" x1="8.817" y1="24.42" x2="9.536" y2="24.358" gradientUnits="userSpaceOnUse"><stop stop-color="#6C5551"/><stop offset="1" stop-color="#574241" stop-opacity="0"/></linearGradient><linearGradient id="c" x1="11.286" y1="22.709" x2="10.856" y2="22.811" gradientUnits="userSpaceOnUse"><stop stop-color="#4C2E2E"/><stop offset="1" stop-color="#4C2E2E" stop-opacity="0"/></linearGradient><linearGradient id="d" x1="22.817" y1="24.6" x2="22.759" y2="23.377" gradientUnits="userSpaceOnUse"><stop stop-color="#42273F"/><stop offset="1" stop-color="#472B33" stop-opacity="0"/></linearGradient><linearGradient id="e" x1="22.196" y1="22.452" x2="22.196" y2="23.361" gradientUnits="userSpaceOnUse"><stop stop-color="#4C3431"/><stop offset="1" stop-color="#4C3431" stop-opacity="0"/></linearGradient><linearGradient id="m" x1="10.659" y1="18.631" x2="10.659" y2="19.952" gradientUnits="userSpaceOnUse"><stop stop-color="#7B61A3"/><stop offset="1" stop-color="#7B61A3" stop-opacity="0"/></linearGradient><linearGradient id="v" x1="14.982" y1="6.891" x2="11.914" y2="7.209" gradientUnits="userSpaceOnUse"><stop stop-color="#432B2F"/><stop offset="1" stop-color="#48302F"/></linearGradient><linearGradient id="C" x1="14.942" y1="6.06" x2="15.064" y2="6.072" gradientUnits="userSpaceOnUse"><stop stop-color="#48302C"/><stop offset="1" stop-color="#48302C" stop-opacity="0"/></linearGradient><linearGradient id="G" x1="-.007" y1=".052" x2=".191" y2=".118" gradientUnits="userSpaceOnUse"><stop stop-color="#fff"/><stop offset="1" stop-color="#fff" stop-opacity="0"/></linearGradient><linearGradient id="K" x1="15.451" y1="16.799" x2="15.28" y2="15.986" gradientUnits="userSpaceOnUse"><stop offset=".185" stop-color="#705DAC"/><stop offset="1" stop-color="#705DAC" stop-opacity="0"/></linearGradient><linearGradient id="N" x1="9.864" y1="28.921" x2="11.395" y2="28.921" gradientUnits="userSpaceOnUse"><stop stop-color="#504B8A"/><stop offset="1" stop-color="#5F5C95"/></linearGradient><linearGradient id="P" x1="9.427" y1="29.938" x2="9.427" y2="29.616" gradientUnits="userSpaceOnUse"><stop stop-color="#4D318D"/><stop offset="1" stop-color="#514D8B" stop-opacity="0"/></linearGradient><linearGradient id="R" x1="25.352" y1="22.069" x2="25.949" y2="23.186" gradientUnits="userSpaceOnUse"><stop offset=".024" stop-color="#444367"/><stop offset="1" stop-color="#444367" stop-opacity="0"/></linearGradient><linearGradient id="S" x1="25.602" y1="25.019" x2="26.296" y2="24.152" gradientUnits="userSpaceOnUse"><stop stop-color="#5A418F"/><stop offset="1" stop-color="#5A418F" stop-opacity="0"/></linearGradient><linearGradient id="T" x1="27.316" y1="24.153" x2="26.923" y2="24.327" gradientUnits="userSpaceOnUse"><stop offset=".213" stop-color="#5E5D8F"/><stop offset="1" stop-color="#484083" stop-opacity="0"/></linearGradient><linearGradient id="X" x1="13.336" y1="17.398" x2="13.786" y2="18.466" gradientUnits="userSpaceOnUse"><stop stop-color="#908582"/><stop offset="1" stop-color="#908582" stop-opacity="0"/></linearGradient><linearGradient id="aa" x1="21.364" y1="11.03" x2="21.177" y2="10.092" gradientUnits="userSpaceOnUse"><stop offset=".076" stop-color="#3C2031"/><stop offset="1" stop-color="#452931" stop-opacity="0"/></linearGradient><linearGradient id="ac" x1="18.207" y1="12.178" x2="17.448" y2="9.468" gradientUnits="userSpaceOnUse"><stop stop-color="#6540AC"/><stop offset="1" stop-color="#7E55C7" stop-opacity="0"/></linearGradient><linearGradient id="af" x1="25.013" y1="6.218" x2="23.016" y2="6.288" gradientUnits="userSpaceOnUse"><stop offset=".149" stop-color="#876BBC"/><stop offset="1" stop-color="#7A59AB"/></linearGradient><linearGradient id="ag" x1="24.329" y1="6.762" x2="24.328" y2="6.575" gradientUnits="userSpaceOnUse"><stop stop-color="#764DB5"/><stop offset="1" stop-color="#764DB5" stop-opacity="0"/></linearGradient><linearGradient id="ah" x1="4.839" y1="11.436" x2="7.829" y2="11.436" gradientUnits="userSpaceOnUse"><stop stop-color="#594441"/><stop offset=".588" stop-color="#42292D"/></linearGradient><linearGradient id="ai" x1="5.91" y1="12.069" x2="5.91" y2="11.624" gradientUnits="userSpaceOnUse"><stop stop-color="#412232"/><stop offset="1" stop-color="#412232" stop-opacity="0"/></linearGradient><linearGradient id="aj" x1="4.236" y1="11.876" x2="6.799" y2="11.876" gradientUnits="userSpaceOnUse"><stop stop-color="#594441"/><stop offset=".588" stop-color="#42292D"/></linearGradient><linearGradient id="ak" x1="5.154" y1="12.509" x2="5.154" y2="12.064" gradientUnits="userSpaceOnUse"><stop stop-color="#412232"/><stop offset="1" stop-color="#412232" stop-opacity="0"/></linearGradient><linearGradient id="al" x1="4.645" y1="12.46" x2="6.739" y2="12.46" gradientUnits="userSpaceOnUse"><stop stop-color="#594441"/><stop offset=".588" stop-color="#42292D"/></linearGradient><linearGradient id="am" x1="5.395" y1="13.092" x2="5.395" y2="12.647" gradientUnits="userSpaceOnUse"><stop stop-color="#412232"/><stop offset="1" stop-color="#412232" stop-opacity="0"/></linearGradient><filter id="n" x="15.901" y="15.933" width="4.141" height="6.811" filterUnits="userSpaceOnUse" color-interpolation-filters="sRGB"><feFlood flood-opacity="0" result="BackgroundImageFix"/><feBlend in="SourceGraphic" in2="BackgroundImageFix" result="shape"/><feColorMatrix in="SourceAlpha" values="0 0 0 0 0 0 0 0 0 0 0 0 0 0 0 0 0 0 127 0" result="hardAlpha"/><feOffset dy="-.1"/><feGaussianBlur stdDeviation=".25"/><feComposite in2="hardAlpha" operator="arithmetic" k2="-1" k3="1"/><feColorMatrix values="0 0 0 0 0.513726 0 0 0 0 0.458824 0 0 0 0 0.482353 0 0 0 1 0"/><feBlend in2="shape" result="effect1_innerShadow_3987_23774"/></filter><filter id="u" x="11.671" y="3.792" width="4.813" height="5.556" filterUnits="userSpaceOnUse" color-interpolation-filters="sRGB"><feFlood flood-opacity="0" result="BackgroundImageFix"/><feBlend in="SourceGraphic" in2="BackgroundImageFix" result="shape"/><feColorMatrix in="SourceAlpha" values="0 0 0 0 0 0 0 0 0 0 0 0 0 0 0 0 0 0 127 0" result="hardAlpha"/><feOffset dx="-.2" dy="-.2"/><feGaussianBlur stdDeviation=".5"/><feComposite in2="hardAlpha" operator="arithmetic" k2="-1" k3="1"/><feColorMatrix values="0 0 0 0 0.321569 0 0 0 0 0.239216 0 0 0 0 0.294118 0 0 0 1 0"/><feBlend in2="shape" result="effect1_innerShadow_3987_23774"/></filter><filter id="z" x="11.195" y="2.185" width="7.47" height="7.518" filterUnits="userSpaceOnUse" color-interpolation-filters="sRGB"><feFlood flood-opacity="0" result="BackgroundImageFix"/><feBlend in="SourceGraphic" in2="BackgroundImageFix" result="shape"/><feColorMatrix in="SourceAlpha" values="0 0 0 0 0 0 0 0 0 0 0 0 0 0 0 0 0 0 127 0" result="hardAlpha"/><feOffset dx="-.4" dy=".4"/><feGaussianBlur stdDeviation=".3"/><feComposite in2="hardAlpha" operator="arithmetic" k2="-1" k3="1"/><feColorMatrix values="0 0 0 0 0.290196 0 0 0 0 0.266667 0 0 0 0 0.27451 0 0 0 1 0"/><feBlend in2="shape" result="effect1_innerShadow_3987_23774"/><feColorMatrix in="SourceAlpha" values="0 0 0 0 0 0 0 0 0 0 0 0 0 0 0 0 0 0 127 0" result="hardAlpha"/><feOffset dy="-.2"/><feGaussianBlur stdDeviation=".25"/><feComposite in2="hardAlpha" operator="arithmetic" k2="-1" k3="1"/><feColorMatrix values="0 0 0 0 0.0901961 0 0 0 0 0.0392157 0 0 0 0 0.133333 0 0 0 1 0"/><feBlend in2="effect1_innerShadow_3987_23774" result="effect2_innerShadow_3987_23774"/></filter><filter id="D" x="12.437" y="4.899" width="1.089" height=".564" filterUnits="userSpaceOnUse" color-interpolation-filters="sRGB"><feFlood flood-opacity="0" result="BackgroundImageFix"/><feBlend in="SourceGraphic" in2="BackgroundImageFix" result="shape"/><feColorMatrix in="SourceAlpha" values="0 0 0 0 0 0 0 0 0 0 0 0 0 0 0 0 0 0 127 0" result="hardAlpha"/><feOffset dx="-.1" dy=".1"/><feGaussianBlur stdDeviation=".1"/><feComposite in2="hardAlpha" operator="arithmetic" k2="-1" k3="1"/><feColorMatrix values="0 0 0 0 0.0666667 0 0 0 0 0.0627451 0 0 0 0 0.0627451 0 0 0 1 0"/><feBlend in2="shape" result="effect1_innerShadow_3987_23774"/></filter><filter id="H" x="12.843" y="9.178" width="5.768" height="8.646" filterUnits="userSpaceOnUse" color-interpolation-filters="sRGB"><feFlood flood-opacity="0" result="BackgroundImageFix"/><feBlend in="SourceGraphic" in2="BackgroundImageFix" result="shape"/><feColorMatrix in="SourceAlpha" values="0 0 0 0 0 0 0 0 0 0 0 0 0 0 0 0 0 0 127 0" result="hardAlpha"/><feOffset dx=".2" dy=".1"/><feGaussianBlur stdDeviation=".25"/><feComposite in2="hardAlpha" operator="arithmetic" k2="-1" k3="1"/><feColorMatrix values="0 0 0 0 0.454902 0 0 0 0 0.352941 0 0 0 0 0.690196 0 0 0 1 0"/><feBlend in2="shape" result="effect1_innerShadow_3987_23774"/></filter><filter id="Z" x="15.493" y="2.931" width="9.915" height="8.775" filterUnits="userSpaceOnUse" color-interpolation-filters="sRGB"><feFlood flood-opacity="0" result="BackgroundImageFix"/><feBlend in="SourceGraphic" in2="BackgroundImageFix" result="shape"/><feColorMatrix in="SourceAlpha" values="0 0 0 0 0 0 0 0 0 0 0 0 0 0 0 0 0 0 127 0" result="hardAlpha"/><feOffset dx=".25" dy="-.5"/><feGaussianBlur stdDeviation=".5"/><feComposite in2="hardAlpha" operator="arithmetic" k2="-1" k3="1"/><feColorMatrix values="0 0 0 0 0.231373 0 0 0 0 0.121569 0 0 0 0 0.184314 0 0 0 1 0"/><feBlend in2="shape" result="effect1_innerShadow_3987_23774"/><feColorMatrix in="SourceAlpha" values="0 0 0 0 0 0 0 0 0 0 0 0 0 0 0 0 0 0 127 0" result="hardAlpha"/><feOffset dy=".1"/><feGaussianBlur stdDeviation=".15"/><feComposite in2="hardAlpha" operator="arithmetic" k2="-1" k3="1"/><feColorMatrix values="0 0 0 0 0.25098 0 0 0 0 0.176471 0 0 0 0 0.168627 0 0 0 1 0"/><feBlend in2="effect1_innerShadow_3987_23774" result="effect2_innerShadow_3987_23774"/></filter><filter id="an" x="6.814" y="11.38" width="2.43" height="2.868" filterUnits="userSpaceOnUse" color-interpolation-filters="sRGB"><feFlood flood-opacity="0" result="BackgroundImageFix"/><feBlend in="SourceGraphic" in2="BackgroundImageFix" result="shape"/><feColorMatrix in="SourceAlpha" values="0 0 0 0 0 0 0 0 0 0 0 0 0 0 0 0 0 0 127 0" result="hardAlpha"/><feOffset dx=".1" dy="-.1"/><feGaussianBlur stdDeviation=".15"/><feComposite in2="hardAlpha" operator="arithmetic" k2="-1" k3="1"/><feColorMatrix values="0 0 0 0 0.396078 0 0 0 0 0.313726 0 0 0 0 0.552941 0 0 0 1 0"/><feBlend in2="shape" result="effect1_innerShadow_3987_23774"/></filter><filter id="au" x="4.564" y="11.972" width="2.065" height=".799" filterUnits="userSpaceOnUse" color-interpolation-filters="sRGB"><feFlood flood-opacity="0" result="BackgroundImageFix"/><feBlend in="SourceGraphic" in2="BackgroundImageFix" result="shape"/><feGaussianBlur stdDeviation=".15" result="effect1_foregroundBlur_3987_23774"/></filter><filter id="av" x="4.08" y="11.374" width="2.506" height=".866" filterUnits="userSpaceOnUse" color-interpolation-filters="sRGB"><feFlood flood-opacity="0" result="BackgroundImageFix"/><feBlend in="SourceGraphic" in2="BackgroundImageFix" result="shape"/><feGaussianBlur stdDeviation=".15" result="effect1_foregroundBlur_3987_23774"/></filter></defs></svg>