<svg width="32" height="32" fill="none" xmlns="http://www.w3.org/2000/svg"><path d="M5.071 26.62c0-6.035 4.893-10.928 10.929-10.928 6.036 0 10.929 4.893 10.929 10.929v3.318H5.07V26.62Z" fill="#8868C9"/><path d="M5.071 26.62c0-6.035 4.893-10.928 10.929-10.928 6.036 0 10.929 4.893 10.929 10.929v3.318H5.07V26.62Z" fill="url(#a)"/><path d="M5.071 26.62c0-6.035 4.893-10.928 10.929-10.928 6.036 0 10.929 4.893 10.929 10.929v3.318H5.07V26.62Z" fill="url(#b)"/><path d="M5.071 26.62c0-6.035 4.893-10.928 10.929-10.928 6.036 0 10.929 4.893 10.929 10.929v3.318H5.07V26.62Z" fill="url(#c)"/><path d="M5.071 26.62c0-6.035 4.893-10.928 10.929-10.928 6.036 0 10.929 4.893 10.929 10.929v3.318H5.07V26.62Z" fill="url(#d)"/><path d="M5.071 26.62c0-6.035 4.893-10.928 10.929-10.928 6.036 0 10.929 4.893 10.929 10.929v3.318H5.07V26.62Z" fill="url(#e)"/><path d="M5.071 26.62c0-6.035 4.893-10.928 10.929-10.928 6.036 0 10.929 4.893 10.929 10.929v3.318H5.07V26.62Z" fill="url(#f)"/><path d="M5.071 26.62c0-6.035 4.893-10.928 10.929-10.928 6.036 0 10.929 4.893 10.929 10.929v3.318H5.07V26.62Z" fill="url(#g)"/><path d="M5.071 26.62c0-6.035 4.893-10.928 10.929-10.928 6.036 0 10.929 4.893 10.929 10.929v3.318H5.07V26.62Z" fill="url(#h)"/><path d="M8.912 18.302a10.904 10.904 0 0 0-3.84 8.319v3.318h3.84V18.302Z" fill="#755BBA"/><path d="M8.912 18.302a10.904 10.904 0 0 0-3.84 8.319v3.318h3.84V18.302Z" fill="url(#i)"/><path d="M8.912 18.302a10.904 10.904 0 0 0-3.84 8.319v3.318h3.84V18.302Z" fill="url(#j)"/><path d="M8.912 18.302a10.904 10.904 0 0 0-3.84 8.319v3.318h3.84V18.302Z" fill="url(#k)"/><path d="M23.088 18.302a10.904 10.904 0 0 1 3.84 8.319v3.318h-3.84V18.302Z" fill="#9172D5"/><path d="M23.088 18.302a10.904 10.904 0 0 1 3.84 8.319v3.318h-3.84V18.302Z" fill="url(#l)"/><path d="M23.088 18.302a10.904 10.904 0 0 1 3.84 8.319v3.318h-3.84V18.302Z" fill="url(#m)"/><path d="M23.088 18.302a10.904 10.904 0 0 1 3.84 8.319v3.318h-3.84V18.302Z" fill="url(#n)"/><path d="m16.274 29.939-9.221-9.595a10.95 10.95 0 0 1 5.854-4.208L26.69 29.94H16.274Z" fill="url(#o)"/><path d="m16.274 29.939-9.221-9.595a10.95 10.95 0 0 1 5.854-4.208L26.69 29.94H16.274Z" fill="url(#p)"/><path d="m16.274 29.939-9.221-9.595a10.95 10.95 0 0 1 5.854-4.208L26.69 29.94H16.274Z" fill="url(#q)"/><path d="m16.274 29.939-9.221-9.595a10.95 10.95 0 0 1 5.854-4.208L26.69 29.94H16.274Z" fill="url(#r)"/><path d="m16.274 29.939-9.221-9.595a10.95 10.95 0 0 1 5.854-4.208L26.69 29.94H16.274Z" fill="url(#s)"/><path d="m16.274 29.939-9.221-9.595a10.95 10.95 0 0 1 5.854-4.208L26.69 29.94H16.274Z" fill="url(#t)"/><path d="m16.274 29.939-9.221-9.595a10.95 10.95 0 0 1 5.854-4.208L26.69 29.94H16.274Z" fill="url(#u)"/><g filter="url(#v)"><path d="M15.706 21.131c.264.222.79.924.79 1.907 0 1.053-.358 1.646-.701 2.06a.115.115 0 0 1-.178 0c-.343-.414-.702-1.007-.702-2.06 0-.983.527-1.685.79-1.907Z" fill="#673C37"/></g><g filter="url(#w)"><path d="M15.926 21.37a.088.088 0 0 1 .124 0c.276.27.729.94.729 1.85 0 1.053-.359 1.646-.702 2.06a.115.115 0 0 1-.178 0c-.343-.414-.702-1.007-.702-2.06 0-.91.453-1.58.73-1.85Z" fill="url(#x)"/></g><g filter="url(#y)"><path d="M8.609 11.64c-.213-.676-.182-1.334-.14-1.579h6.218v6.992l-4.312-.039c-2.39-1.406-1.97-3.648-1.766-4.148.158-.389.148-.774 0-1.227Z" fill="url(#z)"/></g><path d="M23.391 11.64c.213-.676.183-1.334.141-1.579h-6.219v6.992l4.277-.066c2.382-1.426 2.005-3.621 1.801-4.121-.157-.389-.148-.774 0-1.227Z" fill="url(#A)"/><path d="M23.391 11.64c.213-.676.183-1.334.141-1.579h-6.219v6.992l4.277-.066c2.382-1.426 2.005-3.621 1.801-4.121-.157-.389-.148-.774 0-1.227Z" fill="url(#B)"/><g filter="url(#C)"><path d="M23.513 7.779c-1.523.44-2.582 1.437-2.928 1.89l-.209 2.95c.4.018.94.243 1.934-.467 1.165-1.041 1.72-2.576 2-3.545a.667.667 0 0 0-.136-.615.637.637 0 0 0-.66-.213Z" fill="url(#D)"/></g><g filter="url(#E)"><path d="M8.487 7.779c1.524.44 2.582 1.437 2.928 1.89l.209 2.95c-.399.018-.94.243-1.934-.467-1.165-1.041-1.72-2.576-1.999-3.545a.667.667 0 0 1 .135-.615.637.637 0 0 1 .66-.213Z" fill="url(#F)"/><path d="M8.487 7.779c1.524.44 2.582 1.437 2.928 1.89l.209 2.95c-.399.018-.94.243-1.934-.467-1.165-1.041-1.72-2.576-1.999-3.545a.667.667 0 0 1 .135-.615.637.637 0 0 1 .66-.213Z" fill="url(#G)"/></g><g filter="url(#H)"><path d="M20.599 11.165c.904-1.684 2.446-2.402 3.074-2.56-.598 1.662-1.19 2.452-1.6 2.81-.44.384-1.057.369-1.293.355l-.181-.605Z" fill="url(#I)"/><path d="M20.599 11.165c.904-1.684 2.446-2.402 3.074-2.56-.598 1.662-1.19 2.452-1.6 2.81-.44.384-1.057.369-1.293.355l-.181-.605Z" fill="url(#J)"/></g><path d="M11.401 11.165c-.904-1.684-2.446-2.402-3.074-2.56.598 1.662 1.19 2.452 1.6 2.81.44.384 1.057.369 1.293.355l.181-.605Z" fill="url(#K)"/><path d="M11.401 11.165c-.904-1.684-2.446-2.402-3.074-2.56.598 1.662 1.19 2.452 1.6 2.81.44.384 1.057.369 1.293.355l.181-.605Z" fill="url(#L)"/><g filter="url(#M)"><path d="M12.127 14.599c-.289-.031-.859-.05-1.402.312-.703.547-1.16 1.196-1.301 2.25-.198 1.482 1.045 3.944 6.574 4.18h.004c5.529-.236 6.772-2.698 6.574-4.18-.14-1.054-.598-1.703-1.3-2.25-.606-.47-1.103-.468-1.392-.437L16 14.91l-3.873-.312Z" fill="url(#N)"/><path d="M12.127 14.599c-.289-.031-.859-.05-1.402.312-.703.547-1.16 1.196-1.301 2.25-.198 1.482 1.045 3.944 6.574 4.18h.004c5.529-.236 6.772-2.698 6.574-4.18-.14-1.054-.598-1.703-1.3-2.25-.606-.47-1.103-.468-1.392-.437L16 14.91l-3.873-.312Z" fill="url(#O)"/><path d="M12.127 14.599c-.289-.031-.859-.05-1.402.312-.703.547-1.16 1.196-1.301 2.25-.198 1.482 1.045 3.944 6.574 4.18h.004c5.529-.236 6.772-2.698 6.574-4.18-.14-1.054-.598-1.703-1.3-2.25-.606-.47-1.103-.468-1.392-.437L16 14.91l-3.873-.312Z" fill="url(#P)"/><path d="M12.127 14.599c-.289-.031-.859-.05-1.402.312-.703.547-1.16 1.196-1.301 2.25-.198 1.482 1.045 3.944 6.574 4.18h.004c5.529-.236 6.772-2.698 6.574-4.18-.14-1.054-.598-1.703-1.3-2.25-.606-.47-1.103-.468-1.392-.437L16 14.91l-3.873-.312Z" fill="url(#Q)"/><path d="M12.127 14.599c-.289-.031-.859-.05-1.402.312-.703.547-1.16 1.196-1.301 2.25-.198 1.482 1.045 3.944 6.574 4.18h.004c5.529-.236 6.772-2.698 6.574-4.18-.14-1.054-.598-1.703-1.3-2.25-.606-.47-1.103-.468-1.392-.437L16 14.91l-3.873-.312Z" fill="url(#R)"/><path d="M12.127 14.599c-.289-.031-.859-.05-1.402.312-.703.547-1.16 1.196-1.301 2.25-.198 1.482 1.045 3.944 6.574 4.18h.004c5.529-.236 6.772-2.698 6.574-4.18-.14-1.054-.598-1.703-1.3-2.25-.606-.47-1.103-.468-1.392-.437L16 14.91l-3.873-.312Z" fill="url(#S)"/></g><g filter="url(#T)"><path d="m12.924 15.577.232 1c.03.107.117.372.232.578.136.243 1.342 2.067 2.336 2.997.105.098.265.1.37.003.991-.897 2.221-2.758 2.357-3 .115-.206.263-.471.293-.578l.258-1h-6.078Z" fill="#E9B12E"/><path d="m12.924 15.577.232 1c.03.107.117.372.232.578.136.243 1.342 2.067 2.336 2.997.105.098.265.1.37.003.991-.897 2.221-2.758 2.357-3 .115-.206.263-.471.293-.578l.258-1h-6.078Z" fill="url(#U)"/><path d="m12.924 15.577.232 1c.03.107.117.372.232.578.136.243 1.342 2.067 2.336 2.997.105.098.265.1.37.003.991-.897 2.221-2.758 2.357-3 .115-.206.263-.471.293-.578l.258-1h-6.078Z" fill="url(#V)"/></g><g filter="url(#W)"><path d="M10.827 7.622a3 3 0 0 1 2.998-3.093h4.35a3 3 0 0 1 2.999 3.085l-.118 4.144a5.052 5.052 0 0 1-10.1.014l-.13-4.15Z" fill="url(#X)"/><path d="M10.827 7.622a3 3 0 0 1 2.998-3.093h4.35a3 3 0 0 1 2.999 3.085l-.118 4.144a5.052 5.052 0 0 1-10.1.014l-.13-4.15Z" fill="url(#Y)"/><path d="M10.827 7.622a3 3 0 0 1 2.998-3.093h4.35a3 3 0 0 1 2.999 3.085l-.118 4.144a5.052 5.052 0 0 1-10.1.014l-.13-4.15Z" fill="url(#Z)"/><path d="M10.827 7.622a3 3 0 0 1 2.998-3.093h4.35a3 3 0 0 1 2.999 3.085l-.118 4.144a5.052 5.052 0 0 1-10.1.014l-.13-4.15Z" fill="url(#aa)"/></g><path d="M10.827 7.622a3 3 0 0 1 2.998-3.093h4.35a3 3 0 0 1 2.999 3.085l-.118 4.144a5.052 5.052 0 0 1-10.1.014l-.13-4.15Z" fill="url(#ab)"/><path d="M9.304 8.083A6.427 6.427 0 0 1 10.89 9.12v-.903c0-.412.314-.59.916-.934l.006-.003c.126-.072.266-.152.418-.242.653-.39.952-1.315 1.004-1.727.969 1.59 2.113 2.11 3.297 2.11h3.266c.975 0 1.312.449 1.312.78l.014.907c.386-.344.93-.735 1.602-1.038-.207-.523-.256-1.047-.295-1.478l-.008-.09c-.052-.544-.25-1.343-1.145-2.078-.633-.484-1.16-.687-1.91-.812-.472-.079-.778-.361-1.015-.579a8.549 8.549 0 0 0-.071-.066c-.287-.302-1.23-.906-2.188-.906-1.328 0-1.933.469-2.386.906-.186.18-.353.328-.488.44-.18.15-.404.226-.635.262-1.018.158-1.634.527-2.21 1.127-.698.727-.812 1.718-.874 2.5a2.15 2.15 0 0 1-.196.787Z" fill="url(#ac)"/><path d="M9.304 8.083A6.427 6.427 0 0 1 10.89 9.12v-.903c0-.412.314-.59.916-.934l.006-.003c.126-.072.266-.152.418-.242.653-.39.952-1.315 1.004-1.727.969 1.59 2.113 2.11 3.297 2.11h3.266c.975 0 1.312.449 1.312.78l.014.907c.386-.344.93-.735 1.602-1.038-.207-.523-.256-1.047-.295-1.478l-.008-.09c-.052-.544-.25-1.343-1.145-2.078-.633-.484-1.16-.687-1.91-.812-.472-.079-.778-.361-1.015-.579a8.549 8.549 0 0 0-.071-.066c-.287-.302-1.23-.906-2.188-.906-1.328 0-1.933.469-2.386.906-.186.18-.353.328-.488.44-.18.15-.404.226-.635.262-1.018.158-1.634.527-2.21 1.127-.698.727-.812 1.718-.874 2.5a2.15 2.15 0 0 1-.196.787Z" fill="url(#ad)"/><path d="M9.304 8.083A6.427 6.427 0 0 1 10.89 9.12v-.903c0-.412.314-.59.916-.934l.006-.003c.126-.072.266-.152.418-.242.653-.39.952-1.315 1.004-1.727.969 1.59 2.113 2.11 3.297 2.11h3.266c.975 0 1.312.449 1.312.78l.014.907c.386-.344.93-.735 1.602-1.038-.207-.523-.256-1.047-.295-1.478l-.008-.09c-.052-.544-.25-1.343-1.145-2.078-.633-.484-1.16-.687-1.91-.812-.472-.079-.778-.361-1.015-.579a8.549 8.549 0 0 0-.071-.066c-.287-.302-1.23-.906-2.188-.906-1.328 0-1.933.469-2.386.906-.186.18-.353.328-.488.44-.18.15-.404.226-.635.262-1.018.158-1.634.527-2.21 1.127-.698.727-.812 1.718-.874 2.5a2.15 2.15 0 0 1-.196.787Z" fill="url(#ae)"/><path d="M9.304 8.083A6.427 6.427 0 0 1 10.89 9.12v-.903c0-.412.314-.59.916-.934l.006-.003c.126-.072.266-.152.418-.242.653-.39.952-1.315 1.004-1.727.969 1.59 2.113 2.11 3.297 2.11h3.266c.975 0 1.312.449 1.312.78l.014.907c.386-.344.93-.735 1.602-1.038-.207-.523-.256-1.047-.295-1.478l-.008-.09c-.052-.544-.25-1.343-1.145-2.078-.633-.484-1.16-.687-1.91-.812-.472-.079-.778-.361-1.015-.579a8.549 8.549 0 0 0-.071-.066c-.287-.302-1.23-.906-2.188-.906-1.328 0-1.933.469-2.386.906-.186.18-.353.328-.488.44-.18.15-.404.226-.635.262-1.018.158-1.634.527-2.21 1.127-.698.727-.812 1.718-.874 2.5a2.15 2.15 0 0 1-.196.787Z" fill="url(#af)"/><path d="M9.304 8.083A6.427 6.427 0 0 1 10.89 9.12v-.903c0-.412.314-.59.916-.934l.006-.003c.126-.072.266-.152.418-.242.653-.39.952-1.315 1.004-1.727.969 1.59 2.113 2.11 3.297 2.11h3.266c.975 0 1.312.449 1.312.78l.014.907c.386-.344.93-.735 1.602-1.038-.207-.523-.256-1.047-.295-1.478l-.008-.09c-.052-.544-.25-1.343-1.145-2.078-.633-.484-1.16-.687-1.91-.812-.472-.079-.778-.361-1.015-.579a8.549 8.549 0 0 0-.071-.066c-.287-.302-1.23-.906-2.188-.906-1.328 0-1.933.469-2.386.906-.186.18-.353.328-.488.44-.18.15-.404.226-.635.262-1.018.158-1.634.527-2.21 1.127-.698.727-.812 1.718-.874 2.5a2.15 2.15 0 0 1-.196.787Z" fill="url(#ag)"/><g filter="url(#ah)"><path d="M13.698 5.67a4.244 4.244 0 0 1-.011-.028c-.186-.447-.464-1.118-.553-1.878-.669.078-2.173.547-2.837 1.797-.482.909-.573 1.988-.54 2.752.489.258.81.466 1.119.726v-.902c0-.412.333-.59.973-.934l.005-.003c.135-.072.283-.152.445-.243.693-.389 1.096-1.234 1.151-1.646.082.126.165.246.248.359Z" fill="url(#ai)"/><path d="M13.698 5.67a4.244 4.244 0 0 1-.011-.028c-.186-.447-.464-1.118-.553-1.878-.669.078-2.173.547-2.837 1.797-.482.909-.573 1.988-.54 2.752.489.258.81.466 1.119.726v-.902c0-.412.333-.59.973-.934l.005-.003c.135-.072.283-.152.445-.243.693-.389 1.096-1.234 1.151-1.646.082.126.165.246.248.359Z" fill="url(#aj)"/><path d="M13.698 5.67a4.244 4.244 0 0 1-.011-.028c-.186-.447-.464-1.118-.553-1.878-.669.078-2.173.547-2.837 1.797-.482.909-.573 1.988-.54 2.752.489.258.81.466 1.119.726v-.902c0-.412.333-.59.973-.934l.005-.003c.135-.072.283-.152.445-.243.693-.389 1.096-1.234 1.151-1.646.082.126.165.246.248.359Z" fill="url(#ak)"/><path d="M13.698 5.67a4.244 4.244 0 0 1-.011-.028c-.186-.447-.464-1.118-.553-1.878-.669.078-2.173.547-2.837 1.797-.482.909-.573 1.988-.54 2.752.489.258.81.466 1.119.726v-.902c0-.412.333-.59.973-.934l.005-.003c.135-.072.283-.152.445-.243.693-.389 1.096-1.234 1.151-1.646.082.126.165.246.248.359Z" fill="url(#al)"/></g><g filter="url(#am)"><path d="m21.093 7.466 1.215.39c.137-.747.062-2.563-1.383-3.227-1.729-.73-2.453-1.127-3.292-1.586l-.372-.203c-1.024-.554-2.588-.628-3.438.297-.437.477-.617.617-.883.617.163 1.19.458 1.866 1.674 2.696a3.31 3.31 0 0 0 1.917.578h3.266c.655 0 1.126.204 1.296.438Z" fill="url(#an)"/><path d="m21.093 7.466 1.215.39c.137-.747.062-2.563-1.383-3.227-1.729-.73-2.453-1.127-3.292-1.586l-.372-.203c-1.024-.554-2.588-.628-3.438.297-.437.477-.617.617-.883.617.163 1.19.458 1.866 1.674 2.696a3.31 3.31 0 0 0 1.917.578h3.266c.655 0 1.126.204 1.296.438Z" fill="url(#ao)"/></g><path d="M8.85 5.672a.53.53 0 0 1 .529-.529h13.18a.53.53 0 0 1 0 1.059H9.379a.53.53 0 0 1-.53-.53Z" fill="url(#ap)"/><path d="M8.85 5.672a.53.53 0 0 1 .529-.529h13.18a.53.53 0 0 1 0 1.059H9.379a.53.53 0 0 1-.53-.53Z" fill="url(#aq)"/><path d="M8.85 5.672a.53.53 0 0 1 .529-.529h13.18a.53.53 0 0 1 0 1.059H9.379a.53.53 0 0 1-.53-.53Z" fill="url(#ar)"/><path d="M8.85 5.672a.53.53 0 0 1 .529-.529h13.18a.53.53 0 0 1 0 1.059H9.379a.53.53 0 0 1-.53-.53Z" fill="url(#as)"/><path d="M8.85 5.672a.53.53 0 0 1 .529-.529h13.18a.53.53 0 0 1 0 1.059H9.379a.53.53 0 0 1-.53-.53Z" fill="url(#at)"/><path d="M8.85 5.672a.53.53 0 0 1 .529-.529h13.18a.53.53 0 0 1 0 1.059H9.379a.53.53 0 0 1-.53-.53Z" fill="url(#au)"/><path d="M15.907 3.644a.104.104 0 0 1 .144 0c.268.257.693.872.693 1.702 0 .974-.346 1.524-.678 1.907a.115.115 0 0 1-.174 0c-.332-.383-.679-.933-.679-1.907 0-.83.425-1.445.694-1.702Z" fill="url(#av)"/><g filter="url(#aw)"><path d="M19.544 8.526a2.345 2.345 0 0 0-1.738-.283" stroke="#FF8935" stroke-width=".55" stroke-linecap="round"/></g><g filter="url(#ax)"><path d="M12.486 8.526a2.345 2.345 0 0 1 1.737-.283" stroke="#EA752D" stroke-width=".55" stroke-linecap="round"/></g><g filter="url(#ay)"><path d="m15.447 10.293-.57 1.839c-.098.378.136.756.467.756h.707c.331 0 .565-.384.468-.756l-.478-1.839c-.102-.407-.487-.407-.594 0Z" fill="#E39024"/></g><path d="m15.618 10.098-.532 1.838c-.108.378.152.756.52.756h.787c.369 0 .63-.384.52-.756l-.53-1.838c-.114-.408-.646-.408-.765 0Z" fill="#F3A426"/><path d="m15.618 10.098-.532 1.838c-.108.378.152.756.52.756h.787c.369 0 .63-.384.52-.756l-.53-1.838c-.114-.408-.646-.408-.765 0Z" fill="url(#az)"/><path d="m15.618 10.098-.532 1.838c-.108.378.152.756.52.756h.787c.369 0 .63-.384.52-.756l-.53-1.838c-.114-.408-.646-.408-.765 0Z" fill="url(#aA)"/><path d="m15.618 10.098-.532 1.838c-.108.378.152.756.52.756h.787c.369 0 .63-.384.52-.756l-.53-1.838c-.114-.408-.646-.408-.765 0Z" fill="url(#aB)"/><path d="M16 13.709c-.508 0-.985-.12-1.386-.329-.137-.07-.284.085-.198.21.335.507.919.845 1.584.845s1.248-.338 1.583-.846c.087-.129-.06-.278-.198-.209A2.99 2.99 0 0 1 16 13.71Z" stroke="url(#aC)" stroke-width=".2"/><path d="M16 13.709c-.508 0-.985-.12-1.386-.329-.137-.07-.284.085-.198.21.335.507.919.845 1.584.845s1.248-.338 1.583-.846c.087-.129-.06-.278-.198-.209A2.99 2.99 0 0 1 16 13.71Z" fill="#8B024F"/><path d="M18.345 9.28c-.397.05-.74.302-.863.422l1.777.848.527-.317c.194-.117.256-.378.088-.531-.48-.44-1.116-.474-1.53-.422ZM13.655 9.28c.398.05.741.302.863.422l-1.777.848-.527-.317c-.194-.117-.255-.378-.088-.531.48-.44 1.116-.474 1.53-.422Z" fill="#352E31"/><path d="M18.406 9.323c.653 0 1.205.45 1.355 1.059a.274.274 0 0 1-.268.34h-2.231a.23.23 0 0 1-.227-.271 1.398 1.398 0 0 1 1.37-1.128Z" fill="#fff"/><path d="M18.199 9.595a.892.892 0 0 1 .86 1.128h-1.724a.896.896 0 0 1 .864-1.128Z" fill="url(#aD)"/><path d="M17.688 10.488c0-.284.227-.512.51-.512a.509.509 0 0 1 .455.747h-.904a.462.462 0 0 1-.061-.235Z" fill="#000"/><g filter="url(#aE)"><path d="M18.133 9.784c.064.085-.07.188-.22.301-.151.113-.264.193-.327.108-.064-.085.007-.246.158-.359.152-.113.326-.135.39-.05Z" fill="#C7A7A3"/><path d="M18.133 9.784c.064.085-.07.188-.22.301-.151.113-.264.193-.327.108-.064-.085.007-.246.158-.359.152-.113.326-.135.39-.05Z" fill="url(#aF)"/></g><g filter="url(#aG)"><path d="M18.994 10.37a.84.84 0 0 0-.232-.463l-.26.285.118.229.374-.051Z" fill="url(#aH)"/></g><path d="M13.624 9.323c-.653 0-1.205.45-1.355 1.059-.045.174.09.34.268.34h2.231a.23.23 0 0 0 .227-.271 1.401 1.401 0 0 0-1.371-1.128Z" fill="#fff"/><path d="M13.83 9.595a.893.893 0 0 0-.86 1.128h1.725a.913.913 0 0 0 .032-.236.899.899 0 0 0-.896-.892Z" fill="url(#aI)"/><path d="M14.342 10.487a.51.51 0 0 0-.511-.51.509.509 0 0 0-.455.746h.905a.507.507 0 0 0 .06-.236Z" fill="#000"/><g filter="url(#aJ)"><path d="M14.646 10.383c0-.289-.235-.481-.298-.54l-.288.28.177.361.409-.101Z" fill="url(#aK)"/></g><g filter="url(#aL)" transform="rotate(-27.914 13.561 9.976)"><ellipse cx="13.561" cy="9.976" rx=".39" ry=".197" fill="#C7A7A3" fill-opacity=".9"/><ellipse cx="13.561" cy="9.976" rx=".39" ry=".197" fill="url(#aM)"/></g><defs><radialGradient id="b" cx="0" cy="0" r="1" gradientUnits="userSpaceOnUse" gradientTransform="matrix(-3.15625 0 0 -14.3438 23.142 20.686)"><stop stop-color="#987CDC"/><stop offset="1" stop-color="#8666C7" stop-opacity="0"/></radialGradient><radialGradient id="c" cx="0" cy="0" r="1" gradientUnits="userSpaceOnUse" gradientTransform="rotate(-110.347 20.477 5.184) scale(3.59496 4.80694)"><stop stop-color="#846FC5"/><stop offset="1" stop-color="#846FC5" stop-opacity="0"/></radialGradient><radialGradient id="d" cx="0" cy="0" r="1" gradientUnits="userSpaceOnUse" gradientTransform="matrix(.625 2.8125 -4.95663 1.10147 17.452 19.718)"><stop offset=".369" stop-color="#6D499B"/><stop offset="1" stop-color="#6D499B" stop-opacity="0"/></radialGradient><radialGradient id="e" cx="0" cy="0" r="1" gradientUnits="userSpaceOnUse" gradientTransform="matrix(-.57813 .51562 -7.1646 -8.03319 14.554 27.46)"><stop offset=".442" stop-color="#5E45A4"/><stop offset="1" stop-color="#5E45A4" stop-opacity="0"/></radialGradient><radialGradient id="f" cx="0" cy="0" r="1" gradientUnits="userSpaceOnUse" gradientTransform="matrix(1.875 .3125 -2.8125 16.87503 8.952 23.999)"><stop stop-color="#8066BD"/><stop offset="1" stop-color="#715CB9" stop-opacity="0"/></radialGradient><radialGradient id="g" cx="0" cy="0" r="1" gradientUnits="userSpaceOnUse" gradientTransform="matrix(.313 0 0 13.5898 8.827 27.552)"><stop offset=".155" stop-color="#624CA8"/><stop offset="1" stop-color="#624CA8" stop-opacity="0"/></radialGradient><radialGradient id="h" cx="0" cy="0" r="1" gradientUnits="userSpaceOnUse" gradientTransform="matrix(-.50581 0 0 -8.83067 23.25 26.076)"><stop offset=".083" stop-color="#795DC2"/><stop offset="1" stop-color="#795DC2" stop-opacity="0"/></radialGradient><radialGradient id="i" cx="0" cy="0" r="1" gradientUnits="userSpaceOnUse" gradientTransform="matrix(-.59707 0 0 -12.1778 9.033 29.939)"><stop offset=".214" stop-color="#5742A1"/><stop offset="1" stop-color="#5B4A9B" stop-opacity="0"/></radialGradient><radialGradient id="j" cx="0" cy="0" r="1" gradientUnits="userSpaceOnUse" gradientTransform="matrix(-1.69302 6.8777 -1.92029 -.4727 6.992 23.061)"><stop stop-color="#8A73C8"/><stop offset="1" stop-color="#7F70BC" stop-opacity="0"/></radialGradient><radialGradient id="l" cx="0" cy="0" r="1" gradientUnits="userSpaceOnUse" gradientTransform="matrix(-1.625 -10.40629 1.38016 -.21552 25.58 28.374)"><stop offset=".455" stop-color="#9079D5"/><stop offset="1" stop-color="#9079D5" stop-opacity="0"/></radialGradient><radialGradient id="n" cx="0" cy="0" r="1" gradientUnits="userSpaceOnUse" gradientTransform="matrix(.49206 0 0 10.875 23.088 26.467)"><stop stop-color="#664DAD"/><stop offset="1" stop-color="#6951AD" stop-opacity="0"/></radialGradient><radialGradient id="q" cx="0" cy="0" r="1" gradientUnits="userSpaceOnUse" gradientTransform="matrix(1.62231 -1.625 9.061 9.04602 15.736 29.78)"><stop stop-color="#A85D71"/><stop offset="1" stop-color="#915959" stop-opacity="0"/></radialGradient><radialGradient id="r" cx="0" cy="0" r="1" gradientUnits="userSpaceOnUse" gradientTransform="rotate(-132.42 17.248 11.374) scale(18.1601 26.3733)"><stop offset=".826" stop-color="#6E4641" stop-opacity="0"/><stop offset="1" stop-color="#6E4641"/></radialGradient><radialGradient id="s" cx="0" cy="0" r="1" gradientUnits="userSpaceOnUse" gradientTransform="matrix(0 4.53125 -8.40625 0 15.986 18.155)"><stop offset=".612" stop-color="#421D1E"/><stop offset="1" stop-color="#603739" stop-opacity="0"/></radialGradient><radialGradient id="x" cx="0" cy="0" r="1" gradientUnits="userSpaceOnUse" gradientTransform="matrix(0 2.63279 -.8125 0 16.517 22.751)"><stop stop-color="#FFFCC0"/><stop offset="1" stop-color="#FEE9B4"/></radialGradient><radialGradient id="z" cx="0" cy="0" r="1" gradientUnits="userSpaceOnUse" gradientTransform="matrix(-2.34377 1.74998 -2.39636 -3.20947 11.765 12.967)"><stop offset=".168" stop-color="#C2651F"/><stop offset="1" stop-color="#D56E20"/><stop offset="1" stop-color="#D57022"/></radialGradient><radialGradient id="A" cx="0" cy="0" r="1" gradientUnits="userSpaceOnUse" gradientTransform="matrix(-2.25 .8711 -.92998 -2.40211 23.858 12.686)"><stop stop-color="#FFCA37"/><stop offset=".858" stop-color="#F29A26"/></radialGradient><radialGradient id="B" cx="0" cy="0" r="1" gradientUnits="userSpaceOnUse" gradientTransform="rotate(15.638 -37.22 81.391) scale(1.89839 5.31895)"><stop stop-color="#E08E23"/><stop offset="1" stop-color="#FEA828" stop-opacity="0"/></radialGradient><radialGradient id="F" cx="0" cy="0" r="1" gradientUnits="userSpaceOnUse" gradientTransform="rotate(-47.281 15.996 -4.791) scale(2.16642 4.63096)"><stop stop-color="#DD9328"/><stop offset="1" stop-color="#D58521"/></radialGradient><radialGradient id="G" cx="0" cy="0" r="1" gradientUnits="userSpaceOnUse" gradientTransform="rotate(71.741 -.52 9.97) scale(5.60855 3.99461)"><stop offset=".707" stop-color="#C27B29" stop-opacity="0"/><stop offset="1" stop-color="#C27B29"/></radialGradient><radialGradient id="I" cx="0" cy="0" r="1" gradientUnits="userSpaceOnUse" gradientTransform="matrix(3.42178 -4.2491 3.0025 2.4179 20.599 11.99)"><stop offset=".317" stop-color="#F3C137"/><stop offset=".774" stop-color="#F3C137" stop-opacity="0"/></radialGradient><radialGradient id="J" cx="0" cy="0" r="1" gradientUnits="userSpaceOnUse" gradientTransform="rotate(-140.86 13.36 1.275) scale(1.81729 6.21142)"><stop offset=".654" stop-color="#ECB624" stop-opacity="0"/><stop offset="1" stop-color="#ECB624"/></radialGradient><radialGradient id="K" cx="0" cy="0" r="1" gradientUnits="userSpaceOnUse" gradientTransform="rotate(-143.844 7.216 3.795) scale(3.06704 1.99268)"><stop stop-color="#C4812E"/><stop offset="1" stop-color="#C4812E" stop-opacity="0"/></radialGradient><radialGradient id="L" cx="0" cy="0" r="1" gradientUnits="userSpaceOnUse" gradientTransform="rotate(-42.552 18.495 -6.628) scale(1.55288 5.44438)"><stop offset=".757" stop-color="#C9842E" stop-opacity="0"/><stop offset="1" stop-color="#C9842E"/></radialGradient><radialGradient id="N" cx="0" cy="0" r="1" gradientUnits="userSpaceOnUse" gradientTransform="matrix(0 -5.50781 13.8508 0 16 21.34)"><stop offset=".234" stop-color="#975D5C"/><stop offset="1" stop-color="#7C442F"/></radialGradient><radialGradient id="O" cx="0" cy="0" r="1" gradientUnits="userSpaceOnUse" gradientTransform="rotate(152.259 7.559 9.702) scale(9.53325 15.1141)"><stop offset=".836" stop-color="#8D625B" stop-opacity="0"/><stop offset="1" stop-color="#8D625B"/></radialGradient><radialGradient id="P" cx="0" cy="0" r="1" gradientUnits="userSpaceOnUse" gradientTransform="rotate(46.157 -9.457 24.068) scale(8.75223 10.2841)"><stop offset=".739" stop-color="#8B5548" stop-opacity="0"/><stop offset="1" stop-color="#9F6C64"/></radialGradient><radialGradient id="Q" cx="0" cy="0" r="1" gradientUnits="userSpaceOnUse" gradientTransform="rotate(-158.513 8.323 6.627) scale(4.24838 2.76793)"><stop offset=".183" stop-color="#4C200C"/><stop offset="1" stop-color="#613528" stop-opacity="0"/></radialGradient><radialGradient id="R" cx="0" cy="0" r="1" gradientUnits="userSpaceOnUse" gradientTransform="matrix(-4.20237 6.09373 -1.19654 -.82516 20.202 14.092)"><stop offset=".447" stop-color="#783C25"/><stop offset="1" stop-color="#783C25" stop-opacity="0"/></radialGradient><radialGradient id="S" cx="0" cy="0" r="1" gradientUnits="userSpaceOnUse" gradientTransform="matrix(1.03906 -1.52344 .33915 .23132 18.398 16.702)"><stop offset=".215" stop-color="#804F24"/><stop offset="1" stop-color="#804F24" stop-opacity="0"/></radialGradient><radialGradient id="U" cx="0" cy="0" r="1" gradientUnits="userSpaceOnUse" gradientTransform="matrix(.53125 2.60938 -4.67763 .95233 14.609 15.577)"><stop offset=".194" stop-color="#BA7019"/><stop offset="1" stop-color="#BA7019" stop-opacity="0"/></radialGradient><radialGradient id="V" cx="0" cy="0" r="1" gradientUnits="userSpaceOnUse" gradientTransform="matrix(-3.86275 1.28759 -4.0032 -12.00957 17.243 16.343)"><stop offset=".705" stop-color="#C98913" stop-opacity="0"/><stop offset="1" stop-color="#894606"/></radialGradient><radialGradient id="X" cx="0" cy="0" r="1" gradientUnits="userSpaceOnUse" gradientTransform="rotate(167.196 9.611 6.204) scale(7.05032 8.72135)"><stop stop-color="#FFE42E"/><stop offset="1" stop-color="#F8A82A"/></radialGradient><radialGradient id="Y" cx="0" cy="0" r="1" gradientUnits="userSpaceOnUse" gradientTransform="matrix(-.78126 -1 .8108 -.63344 13.937 9.452)"><stop offset=".295" stop-color="#EA9721"/><stop offset="1" stop-color="#EA9721" stop-opacity="0"/></radialGradient><radialGradient id="Z" cx="0" cy="0" r="1" gradientUnits="userSpaceOnUse" gradientTransform="matrix(0 -1.45312 1.84375 0 18.421 9.436)"><stop stop-color="#FFBE20"/><stop offset="1" stop-color="#FFBE20" stop-opacity="0"/></radialGradient><radialGradient id="aa" cx="0" cy="0" r="1" gradientUnits="userSpaceOnUse" gradientTransform="rotate(26.954 -2.675 30.526) scale(6.34556 4.25079)"><stop offset=".043" stop-color="#E78519"/><stop offset="1" stop-color="#E78519" stop-opacity="0"/></radialGradient><radialGradient id="ab" cx="0" cy="0" r="1" gradientUnits="userSpaceOnUse" gradientTransform="rotate(98.094 4.593 11.956) scale(7.65065 8.11154)"><stop offset=".667" stop-color="#E0922D" stop-opacity="0"/><stop offset="1" stop-color="#C07517"/></radialGradient><radialGradient id="ac" cx="0" cy="0" r="1" gradientUnits="userSpaceOnUse" gradientTransform="matrix(-1.03124 4.65625 -10.56138 -2.33908 19.015 3.249)"><stop stop-color="#FFD83E"/><stop offset="1" stop-color="#F8AB1B"/></radialGradient><radialGradient id="ad" cx="0" cy="0" r="1" gradientUnits="userSpaceOnUse" gradientTransform="matrix(-.03125 -2.6875 8.71466 -.10133 15.608 8.53)"><stop offset=".259" stop-color="#CE7916"/><stop offset="1" stop-color="#CE7916" stop-opacity="0"/></radialGradient><radialGradient id="ae" cx="0" cy="0" r="1" gradientUnits="userSpaceOnUse" gradientTransform="matrix(.53125 -1.09578 1.67303 .8111 13.733 6.686)"><stop stop-color="#CC781B"/><stop offset="1" stop-color="#CC781B" stop-opacity="0"/></radialGradient><radialGradient id="af" cx="0" cy="0" r="1" gradientUnits="userSpaceOnUse" gradientTransform="rotate(-71.318 17.294 -9.577) scale(2.29267 4.35952)"><stop offset=".233" stop-color="#954A15"/><stop offset="1" stop-color="#954A15" stop-opacity="0"/></radialGradient><radialGradient id="ag" cx="0" cy="0" r="1" gradientUnits="userSpaceOnUse" gradientTransform="matrix(6 3.75 -15.78004 25.24804 9.515 3.467)"><stop offset=".419" stop-color="#CC9839"/><stop offset="1" stop-color="#CC9839" stop-opacity="0"/></radialGradient><radialGradient id="ai" cx="0" cy="0" r="1" gradientUnits="userSpaceOnUse" gradientTransform="rotate(48.247 -.634 14.575) scale(2.89035 5.54362)"><stop offset=".273" stop-color="#D68B33" stop-opacity="0"/><stop offset="1" stop-color="#CD7721"/></radialGradient><radialGradient id="aj" cx="0" cy="0" r="1" gradientUnits="userSpaceOnUse" gradientTransform="rotate(140.826 5.916 4.621) scale(3.26514 1.54868)"><stop offset=".276" stop-color="#FFC326"/><stop offset="1" stop-color="#FFC326" stop-opacity="0"/></radialGradient><radialGradient id="ak" cx="0" cy="0" r="1" gradientUnits="userSpaceOnUse" gradientTransform="matrix(-1.75002 -2.875 7.34404 -4.47034 12.327 7.374)"><stop offset=".619" stop-color="#CA993F" stop-opacity="0"/><stop offset="1" stop-color="#CA993F"/></radialGradient><radialGradient id="al" cx="0" cy="0" r="1" gradientUnits="userSpaceOnUse" gradientTransform="matrix(-.62501 -1.625 2.27596 -.87539 11.03 9.296)"><stop offset=".224" stop-color="#80350D"/><stop offset="1" stop-color="#C5731F" stop-opacity="0"/></radialGradient><radialGradient id="an" cx="0" cy="0" r="1" gradientUnits="userSpaceOnUse" gradientTransform="matrix(-1.03113 3.06466 -5.29387 -1.78117 18.983 3.965)"><stop offset=".271" stop-color="#FFE236"/><stop offset="1" stop-color="#FFE236" stop-opacity="0"/></radialGradient><radialGradient id="ao" cx="0" cy="0" r="1" gradientUnits="userSpaceOnUse" gradientTransform="rotate(121.752 8.27 7.041) scale(4.86941 8.82412)"><stop offset=".325" stop-color="#FFB92B" stop-opacity="0"/><stop offset="1" stop-color="#E4821E"/></radialGradient><radialGradient id="as" cx="0" cy="0" r="1" gradientUnits="userSpaceOnUse" gradientTransform="matrix(-5.09375 0 0 -.60938 21.768 5.499)"><stop stop-color="#EDE5F4"/><stop offset="1" stop-color="#CFC9E2" stop-opacity="0"/></radialGradient><radialGradient id="at" cx="0" cy="0" r="1" gradientUnits="userSpaceOnUse" gradientTransform="matrix(0 .54688 -8.71875 0 11.174 4.967)"><stop offset=".257" stop-color="#949393"/><stop offset="1" stop-color="#949393" stop-opacity="0"/></radialGradient><radialGradient id="au" cx="0" cy="0" r="1" gradientUnits="userSpaceOnUse" gradientTransform="matrix(0 .92969 -.45312 0 15.229 5.186)"><stop offset=".487" stop-color="#9D9EA7"/><stop offset="1" stop-color="#9D9EA7" stop-opacity="0"/></radialGradient><radialGradient id="av" cx="0" cy="0" r="1" gradientUnits="userSpaceOnUse" gradientTransform="matrix(0 -2.90625 2.05457 0 15.979 6.764)"><stop stop-color="#6FE9FF"/><stop offset="1" stop-color="#C2FFFF"/></radialGradient><radialGradient id="az" cx="0" cy="0" r="1" gradientUnits="userSpaceOnUse" gradientTransform="matrix(-.65625 -4.11719 1.50689 -.24019 17.155 12.374)"><stop offset=".208" stop-color="#FFDF43"/><stop offset="1" stop-color="#FFDF43" stop-opacity="0"/></radialGradient><radialGradient id="aA" cx="0" cy="0" r="1" gradientUnits="userSpaceOnUse" gradientTransform="matrix(0 -.6545 2.30377 0 16 12.692)"><stop stop-color="#E29330"/><stop offset="1" stop-color="#F5A828" stop-opacity="0"/></radialGradient><radialGradient id="aC" cx="0" cy="0" r="1" gradientUnits="userSpaceOnUse" gradientTransform="rotate(-60.417 19.61 -5.633) scale(.34815 1.6378)"><stop offset=".062" stop-color="#F1A834"/><stop offset="1" stop-color="#F1A834" stop-opacity="0"/></radialGradient><radialGradient id="aD" cx="0" cy="0" r="1" gradientUnits="userSpaceOnUse" gradientTransform="rotate(127.812 6.735 9.596) scale(1.10543 1.21398)"><stop stop-color="#8F5C4E"/><stop offset="1" stop-color="#794C46"/></radialGradient><radialGradient id="aF" cx="0" cy="0" r="1" gradientUnits="userSpaceOnUse" gradientTransform="rotate(-127.812 11.471 .678) scale(.37829 .52081)"><stop offset=".766" stop-color="#FFE6E2" stop-opacity="0"/><stop offset=".966" stop-color="#FFE6E2"/></radialGradient><radialGradient id="aI" cx="0" cy="0" r="1" gradientUnits="userSpaceOnUse" gradientTransform="rotate(127.812 4.553 8.527) scale(1.10548 1.21404)"><stop stop-color="#8F5C4E"/><stop offset="1" stop-color="#794C46"/></radialGradient><radialGradient id="aM" cx="0" cy="0" r="1" gradientUnits="userSpaceOnUse" gradientTransform="rotate(-90.897 11.839 -1.522) scale(.49414 .59399)"><stop offset=".766" stop-color="#FFE6E2" stop-opacity="0"/><stop offset=".966" stop-color="#FFE6E2"/></radialGradient><filter id="v" x="14.415" y="20.631" width="2.581" height="5.008" filterUnits="userSpaceOnUse" color-interpolation-filters="sRGB"><feFlood flood-opacity="0" result="BackgroundImageFix"/><feBlend in="SourceGraphic" in2="BackgroundImageFix" result="shape"/><feGaussianBlur stdDeviation=".25" result="effect1_foregroundBlur_4002_1361"/></filter><filter id="w" x="15.197" y="21.244" width="1.681" height="4.077" filterUnits="userSpaceOnUse" color-interpolation-filters="sRGB"><feFlood flood-opacity="0" result="BackgroundImageFix"/><feBlend in="SourceGraphic" in2="BackgroundImageFix" result="shape"/><feColorMatrix in="SourceAlpha" values="0 0 0 0 0 0 0 0 0 0 0 0 0 0 0 0 0 0 127 0" result="hardAlpha"/><feOffset dx=".1" dy="-.1"/><feGaussianBlur stdDeviation=".1"/><feComposite in2="hardAlpha" operator="arithmetic" k2="-1" k3="1"/><feColorMatrix values="0 0 0 0 0.956863 0 0 0 0 0.843137 0 0 0 0 0.678431 0 0 0 1 0"/><feBlend in2="shape" result="effect1_innerShadow_4002_1361"/></filter><filter id="y" x="8.438" y="10.061" width="6.499" height="6.992" filterUnits="userSpaceOnUse" color-interpolation-filters="sRGB"><feFlood flood-opacity="0" result="BackgroundImageFix"/><feBlend in="SourceGraphic" in2="BackgroundImageFix" result="shape"/><feColorMatrix in="SourceAlpha" values="0 0 0 0 0 0 0 0 0 0 0 0 0 0 0 0 0 0 127 0" result="hardAlpha"/><feOffset dx=".25"/><feGaussianBlur stdDeviation=".375"/><feComposite in2="hardAlpha" operator="arithmetic" k2="-1" k3="1"/><feColorMatrix values="0 0 0 0 0.803922 0 0 0 0 0.545098 0 0 0 0 0.247059 0 0 0 1 0"/><feBlend in2="shape" result="effect1_innerShadow_4002_1361"/></filter><filter id="C" x="20.376" y="7.605" width="4.108" height="5.161" filterUnits="userSpaceOnUse" color-interpolation-filters="sRGB"><feFlood flood-opacity="0" result="BackgroundImageFix"/><feBlend in="SourceGraphic" in2="BackgroundImageFix" result="shape"/><feColorMatrix in="SourceAlpha" values="0 0 0 0 0 0 0 0 0 0 0 0 0 0 0 0 0 0 127 0" result="hardAlpha"/><feOffset dx=".1" dy=".1"/><feGaussianBlur stdDeviation=".2"/><feComposite in2="hardAlpha" operator="arithmetic" k2="-1" k3="1"/><feColorMatrix values="0 0 0 0 0.933333 0 0 0 0 0.721569 0 0 0 0 0.235294 0 0 0 1 0"/><feBlend in2="shape" result="effect1_innerShadow_4002_1361"/><feColorMatrix in="SourceAlpha" values="0 0 0 0 0 0 0 0 0 0 0 0 0 0 0 0 0 0 127 0" result="hardAlpha"/><feOffset dx=".15" dy="-.15"/><feGaussianBlur stdDeviation=".125"/><feComposite in2="hardAlpha" operator="arithmetic" k2="-1" k3="1"/><feColorMatrix values="0 0 0 0 0.85098 0 0 0 0 0.607843 0 0 0 0 0.235294 0 0 0 1 0"/><feBlend in2="effect1_innerShadow_4002_1361" result="effect2_innerShadow_4002_1361"/></filter><filter id="E" x="7.666" y="7.755" width="3.958" height="5.111" filterUnits="userSpaceOnUse" color-interpolation-filters="sRGB"><feFlood flood-opacity="0" result="BackgroundImageFix"/><feBlend in="SourceGraphic" in2="BackgroundImageFix" result="shape"/><feColorMatrix in="SourceAlpha" values="0 0 0 0 0 0 0 0 0 0 0 0 0 0 0 0 0 0 127 0" result="hardAlpha"/><feOffset dy=".2"/><feGaussianBlur stdDeviation=".2"/><feComposite in2="hardAlpha" operator="arithmetic" k2="-1" k3="1"/><feColorMatrix values="0 0 0 0 0.772549 0 0 0 0 0.576471 0 0 0 0 0.266667 0 0 0 1 0"/><feBlend in2="shape" result="effect1_innerShadow_4002_1361"/></filter><filter id="H" x="20.499" y="8.505" width="3.174" height="3.27" filterUnits="userSpaceOnUse" color-interpolation-filters="sRGB"><feFlood flood-opacity="0" result="BackgroundImageFix"/><feBlend in="SourceGraphic" in2="BackgroundImageFix" result="shape"/><feColorMatrix in="SourceAlpha" values="0 0 0 0 0 0 0 0 0 0 0 0 0 0 0 0 0 0 127 0" result="hardAlpha"/><feOffset dx="-.1" dy="-.1"/><feGaussianBlur stdDeviation=".1"/><feComposite in2="hardAlpha" operator="arithmetic" k2="-1" k3="1"/><feColorMatrix values="0 0 0 0 0.992157 0 0 0 0 0.796078 0 0 0 0 0.27451 0 0 0 1 0"/><feBlend in2="shape" result="effect1_innerShadow_4002_1361"/></filter><filter id="M" x="9.404" y="14.062" width="13.191" height="7.279" filterUnits="userSpaceOnUse" color-interpolation-filters="sRGB"><feFlood flood-opacity="0" result="BackgroundImageFix"/><feBlend in="SourceGraphic" in2="BackgroundImageFix" result="shape"/><feColorMatrix in="SourceAlpha" values="0 0 0 0 0 0 0 0 0 0 0 0 0 0 0 0 0 0 127 0" result="hardAlpha"/><feOffset dy="-.4"/><feGaussianBlur stdDeviation=".4"/><feComposite in2="hardAlpha" operator="arithmetic" k2="-1" k3="1"/><feColorMatrix values="0 0 0 0 0.47451 0 0 0 0 0.243137 0 0 0 0 0.266667 0 0 0 1 0"/><feBlend in2="shape" result="effect1_innerShadow_4002_1361"/></filter><filter id="T" x="12.723" y="15.577" width="6.278" height="4.65" filterUnits="userSpaceOnUse" color-interpolation-filters="sRGB"><feFlood flood-opacity="0" result="BackgroundImageFix"/><feBlend in="SourceGraphic" in2="BackgroundImageFix" result="shape"/><feColorMatrix in="SourceAlpha" values="0 0 0 0 0 0 0 0 0 0 0 0 0 0 0 0 0 0 127 0" result="hardAlpha"/><feOffset dx="-.2"/><feGaussianBlur stdDeviation=".25"/><feComposite in2="hardAlpha" operator="arithmetic" k2="-1" k3="1"/><feColorMatrix values="0 0 0 0 0.733333 0 0 0 0 0.490196 0 0 0 0 0.129412 0 0 0 1 0"/><feBlend in2="shape" result="effect1_innerShadow_4002_1361"/></filter><filter id="W" x="10.825" y="4.529" width="10.85" height="12.138" filterUnits="userSpaceOnUse" color-interpolation-filters="sRGB"><feFlood flood-opacity="0" result="BackgroundImageFix"/><feBlend in="SourceGraphic" in2="BackgroundImageFix" result="shape"/><feColorMatrix in="SourceAlpha" values="0 0 0 0 0 0 0 0 0 0 0 0 0 0 0 0 0 0 127 0" result="hardAlpha"/><feOffset dx=".5"/><feGaussianBlur stdDeviation=".375"/><feComposite in2="hardAlpha" operator="arithmetic" k2="-1" k3="1"/><feColorMatrix values="0 0 0 0 0.819608 0 0 0 0 0.611765 0 0 0 0 0.278431 0 0 0 1 0"/><feBlend in2="shape" result="effect1_innerShadow_4002_1361"/></filter><filter id="ah" x="9.651" y="3.664" width="4.148" height="5.475" filterUnits="userSpaceOnUse" color-interpolation-filters="sRGB"><feFlood flood-opacity="0" result="BackgroundImageFix"/><feBlend in="SourceGraphic" in2="BackgroundImageFix" result="shape"/><feGaussianBlur stdDeviation=".05" result="effect1_foregroundBlur_4002_1361"/></filter><filter id="am" x="12.74" y="2.231" width="9.815" height="5.825" filterUnits="userSpaceOnUse" color-interpolation-filters="sRGB"><feFlood flood-opacity="0" result="BackgroundImageFix"/><feBlend in="SourceGraphic" in2="BackgroundImageFix" result="shape"/><feGaussianBlur stdDeviation=".1" result="effect1_foregroundBlur_4002_1361"/></filter><filter id="aw" x="17.531" y="7.708" width="2.288" height="1.093" filterUnits="userSpaceOnUse" color-interpolation-filters="sRGB"><feFlood flood-opacity="0" result="BackgroundImageFix"/><feBlend in="SourceGraphic" in2="BackgroundImageFix" result="shape"/><feColorMatrix in="SourceAlpha" values="0 0 0 0 0 0 0 0 0 0 0 0 0 0 0 0 0 0 127 0" result="hardAlpha"/><feOffset dy="-.2"/><feGaussianBlur stdDeviation=".15"/><feComposite in2="hardAlpha" operator="arithmetic" k2="-1" k3="1"/><feColorMatrix values="0 0 0 0 0.835294 0 0 0 0 0.384314 0 0 0 0 0.137255 0 0 0 1 0"/><feBlend in2="shape" result="effect1_innerShadow_4002_1361"/></filter><filter id="ax" x="12.21" y="7.708" width="2.288" height="1.093" filterUnits="userSpaceOnUse" color-interpolation-filters="sRGB"><feFlood flood-opacity="0" result="BackgroundImageFix"/><feBlend in="SourceGraphic" in2="BackgroundImageFix" result="shape"/><feColorMatrix in="SourceAlpha" values="0 0 0 0 0 0 0 0 0 0 0 0 0 0 0 0 0 0 127 0" result="hardAlpha"/><feOffset dy="-.2"/><feGaussianBlur stdDeviation=".15"/><feComposite in2="hardAlpha" operator="arithmetic" k2="-1" k3="1"/><feColorMatrix values="0 0 0 0 0.74902 0 0 0 0 0.356863 0 0 0 0 0.180392 0 0 0 1 0"/><feBlend in2="shape" result="effect1_innerShadow_4002_1361"/></filter><filter id="ay" x="14.354" y="9.488" width="2.687" height="3.9" filterUnits="userSpaceOnUse" color-interpolation-filters="sRGB"><feFlood flood-opacity="0" result="BackgroundImageFix"/><feBlend in="SourceGraphic" in2="BackgroundImageFix" result="shape"/><feGaussianBlur stdDeviation=".25" result="effect1_foregroundBlur_4002_1361"/></filter><filter id="aE" x="17.463" y="9.632" width=".787" height=".696" filterUnits="userSpaceOnUse" color-interpolation-filters="sRGB"><feFlood flood-opacity="0" result="BackgroundImageFix"/><feBlend in="SourceGraphic" in2="BackgroundImageFix" result="shape"/><feGaussianBlur stdDeviation=".05" result="effect1_foregroundBlur_4002_1361"/></filter><filter id="aG" x="18.303" y="9.707" width=".891" height=".913" filterUnits="userSpaceOnUse" color-interpolation-filters="sRGB"><feFlood flood-opacity="0" result="BackgroundImageFix"/><feBlend in="SourceGraphic" in2="BackgroundImageFix" result="shape"/><feGaussianBlur stdDeviation=".1" result="effect1_foregroundBlur_4002_1361"/></filter><filter id="aJ" x="13.86" y="9.644" width=".986" height="1.04" filterUnits="userSpaceOnUse" color-interpolation-filters="sRGB"><feFlood flood-opacity="0" result="BackgroundImageFix"/><feBlend in="SourceGraphic" in2="BackgroundImageFix" result="shape"/><feGaussianBlur stdDeviation=".1" result="effect1_foregroundBlur_4002_1361"/></filter><filter id="aL" x="13.105" y="9.624" width=".913" height=".705" filterUnits="userSpaceOnUse" color-interpolation-filters="sRGB"><feFlood flood-opacity="0" result="BackgroundImageFix"/><feBlend in="SourceGraphic" in2="BackgroundImageFix" result="shape"/><feGaussianBlur stdDeviation=".05" result="effect1_foregroundBlur_4002_1361"/></filter><linearGradient id="a" x1="15.049" y1="29.939" x2="15.049" y2="20.53" gradientUnits="userSpaceOnUse"><stop stop-color="#6651AA"/><stop offset="1" stop-color="#6651AA" stop-opacity="0"/></linearGradient><linearGradient id="k" x1="8.912" y1="29.939" x2="8.912" y2="26.655" gradientUnits="userSpaceOnUse"><stop stop-color="#6655A7"/><stop offset="1" stop-color="#6655A7" stop-opacity="0"/></linearGradient><linearGradient id="m" x1="24.142" y1="29.311" x2="27.327" y2="21.436" gradientUnits="userSpaceOnUse"><stop offset=".116" stop-color="#7566B5"/><stop offset=".679" stop-color="#7566B5" stop-opacity="0"/></linearGradient><linearGradient id="o" x1="12.518" y1="21.28" x2="22.705" y2="30.936" gradientUnits="userSpaceOnUse"><stop stop-color="#714743"/><stop offset="1" stop-color="#A16162"/></linearGradient><linearGradient id="p" x1="27.198" y1="30.793" x2="19.296" y2="28.026" gradientUnits="userSpaceOnUse"><stop stop-color="#BB8274"/><stop offset="1" stop-color="#B3776E" stop-opacity="0"/></linearGradient><linearGradient id="t" x1="15.015" y1="28.674" x2="15.229" y2="28.469" gradientUnits="userSpaceOnUse"><stop stop-color="#7B4B52"/><stop offset="1" stop-color="#7B4B52" stop-opacity="0"/></linearGradient><linearGradient id="u" x1="19.002" y1="21.983" x2="18.65" y2="22.342" gradientUnits="userSpaceOnUse"><stop stop-color="#906550"/><stop offset="1" stop-color="#7F4B4C" stop-opacity="0"/></linearGradient><linearGradient id="D" x1="22.046" y1="9.342" x2="23.357" y2="11.358" gradientUnits="userSpaceOnUse"><stop stop-color="#FEC938"/><stop offset="1" stop-color="#FFD345"/></linearGradient><linearGradient id="ap" x1="15.58" y1="5.672" x2="17.299" y2="5.672" gradientUnits="userSpaceOnUse"><stop stop-color="#ABA5AE"/><stop offset="1" stop-color="#CDC7E1"/></linearGradient><linearGradient id="aq" x1="15.644" y1="6.329" x2="15.644" y2="5.672" gradientUnits="userSpaceOnUse"><stop stop-color="#B688B9"/><stop offset="1" stop-color="#B688B9" stop-opacity="0"/></linearGradient><linearGradient id="ar" x1="15.969" y1="4.756" x2="15.969" y2="5.342" gradientUnits="userSpaceOnUse"><stop stop-color="#A29B98"/><stop offset="1" stop-color="#A29B98" stop-opacity="0"/></linearGradient><linearGradient id="aB" x1="15.804" y1="9.702" x2="16" y2="10.444" gradientUnits="userSpaceOnUse"><stop stop-color="#FBBC2D"/><stop offset="1" stop-color="#FABF2B" stop-opacity="0"/></linearGradient><linearGradient id="aH" x1="18.975" y1="10.126" x2="18.661" y2="10.319" gradientUnits="userSpaceOnUse"><stop stop-color="#B4948D"/><stop offset="1" stop-color="#B4948D" stop-opacity="0"/></linearGradient><linearGradient id="aK" x1="14.576" y1="10.126" x2="14.263" y2="10.319" gradientUnits="userSpaceOnUse"><stop stop-color="#B4948D"/><stop offset="1" stop-color="#B4948D" stop-opacity="0"/></linearGradient></defs></svg>