<svg width="32" height="32" fill="none" xmlns="http://www.w3.org/2000/svg"><g filter="url(#a)" fill-rule="evenodd" clip-rule="evenodd"><path d="M29.396 21.028a6.045 6.045 0 0 0 .604-2.66c0-.871-.18-1.689-.5-2.434h.01a5.936 5.936 0 0 0-.525-.957l-.004-.005A6.04 6.04 0 0 1 28 11.67v-.02a6.152 6.152 0 0 0-6.15-6.15c-.34 0-.661-.15-.85-.434A6.163 6.163 0 0 0 16 2.5a6.163 6.163 0 0 0-5 2.566c-.189.264-.51.434-.85.434-.052 0-.105 0-.158.002A6.152 6.152 0 0 0 4 11.651v.019c0 1.17-.34 2.32-.981 3.302l-.005.007A6.151 6.151 0 0 0 2 18.367c0 .962.226 1.849.604 2.66a.96.96 0 0 1 0 .85A6.085 6.085 0 0 0 2 24.5c0 3.32 2.68 6 6 6h16c3.32 0 6-2.68 6-6 0-.943-.226-1.83-.604-2.623a.96.96 0 0 1 0-.849Z" fill="url(#b)"/><path d="M29.396 21.028a6.045 6.045 0 0 0 .604-2.66c0-.871-.18-1.689-.5-2.434h.01a5.936 5.936 0 0 0-.525-.957l-.004-.005A6.04 6.04 0 0 1 28 11.67v-.02a6.152 6.152 0 0 0-6.15-6.15c-.34 0-.661-.15-.85-.434A6.163 6.163 0 0 0 16 2.5a6.163 6.163 0 0 0-5 2.566c-.189.264-.51.434-.85.434-.052 0-.105 0-.158.002A6.152 6.152 0 0 0 4 11.651v.019c0 1.17-.34 2.32-.981 3.302l-.005.007A6.151 6.151 0 0 0 2 18.367c0 .962.226 1.849.604 2.66a.96.96 0 0 1 0 .85A6.085 6.085 0 0 0 2 24.5c0 3.32 2.68 6 6 6h16c3.32 0 6-2.68 6-6 0-.943-.226-1.83-.604-2.623a.96.96 0 0 1 0-.849Z" fill="url(#c)"/><path d="M29.396 21.028a6.045 6.045 0 0 0 .604-2.66c0-.871-.18-1.689-.5-2.434h.01a5.936 5.936 0 0 0-.525-.957l-.004-.005A6.04 6.04 0 0 1 28 11.67v-.02a6.152 6.152 0 0 0-6.15-6.15c-.34 0-.661-.15-.85-.434A6.163 6.163 0 0 0 16 2.5a6.163 6.163 0 0 0-5 2.566c-.189.264-.51.434-.85.434-.052 0-.105 0-.158.002A6.152 6.152 0 0 0 4 11.651v.019c0 1.17-.34 2.32-.981 3.302l-.005.007A6.151 6.151 0 0 0 2 18.367c0 .962.226 1.849.604 2.66a.96.96 0 0 1 0 .85A6.085 6.085 0 0 0 2 24.5c0 3.32 2.68 6 6 6h16c3.32 0 6-2.68 6-6 0-.943-.226-1.83-.604-2.623a.96.96 0 0 1 0-.849Z" fill="url(#d)"/><path d="M29.396 21.028a6.045 6.045 0 0 0 .604-2.66c0-.871-.18-1.689-.5-2.434h.01a5.936 5.936 0 0 0-.525-.957l-.004-.005A6.04 6.04 0 0 1 28 11.67v-.02a6.152 6.152 0 0 0-6.15-6.15c-.34 0-.661-.15-.85-.434A6.163 6.163 0 0 0 16 2.5a6.163 6.163 0 0 0-5 2.566c-.189.264-.51.434-.85.434-.052 0-.105 0-.158.002A6.152 6.152 0 0 0 4 11.651v.019c0 1.17-.34 2.32-.981 3.302l-.005.007A6.151 6.151 0 0 0 2 18.367c0 .962.226 1.849.604 2.66a.96.96 0 0 1 0 .85A6.085 6.085 0 0 0 2 24.5c0 3.32 2.68 6 6 6h16c3.32 0 6-2.68 6-6 0-.943-.226-1.83-.604-2.623a.96.96 0 0 1 0-.849Z" fill="url(#e)"/><path d="M29.396 21.028a6.045 6.045 0 0 0 .604-2.66c0-.871-.18-1.689-.5-2.434h.01a5.936 5.936 0 0 0-.525-.957l-.004-.005A6.04 6.04 0 0 1 28 11.67v-.02a6.152 6.152 0 0 0-6.15-6.15c-.34 0-.661-.15-.85-.434A6.163 6.163 0 0 0 16 2.5a6.163 6.163 0 0 0-5 2.566c-.189.264-.51.434-.85.434-.052 0-.105 0-.158.002A6.152 6.152 0 0 0 4 11.651v.019c0 1.17-.34 2.32-.981 3.302l-.005.007A6.151 6.151 0 0 0 2 18.367c0 .962.226 1.849.604 2.66a.96.96 0 0 1 0 .85A6.085 6.085 0 0 0 2 24.5c0 3.32 2.68 6 6 6h16c3.32 0 6-2.68 6-6 0-.943-.226-1.83-.604-2.623a.96.96 0 0 1 0-.849Z" fill="url(#f)"/><path d="M29.396 21.028a6.045 6.045 0 0 0 .604-2.66c0-.871-.18-1.689-.5-2.434h.01a5.936 5.936 0 0 0-.525-.957l-.004-.005A6.04 6.04 0 0 1 28 11.67v-.02a6.152 6.152 0 0 0-6.15-6.15c-.34 0-.661-.15-.85-.434A6.163 6.163 0 0 0 16 2.5a6.163 6.163 0 0 0-5 2.566c-.189.264-.51.434-.85.434-.052 0-.105 0-.158.002A6.152 6.152 0 0 0 4 11.651v.019c0 1.17-.34 2.32-.981 3.302l-.005.007A6.151 6.151 0 0 0 2 18.367c0 .962.226 1.849.604 2.66a.96.96 0 0 1 0 .85A6.085 6.085 0 0 0 2 24.5c0 3.32 2.68 6 6 6h16c3.32 0 6-2.68 6-6 0-.943-.226-1.83-.604-2.623a.96.96 0 0 1 0-.849Z" fill="url(#g)"/><path d="M29.396 21.028a6.045 6.045 0 0 0 .604-2.66c0-.871-.18-1.689-.5-2.434h.01a5.936 5.936 0 0 0-.525-.957l-.004-.005A6.04 6.04 0 0 1 28 11.67v-.02a6.152 6.152 0 0 0-6.15-6.15c-.34 0-.661-.15-.85-.434A6.163 6.163 0 0 0 16 2.5a6.163 6.163 0 0 0-5 2.566c-.189.264-.51.434-.85.434-.052 0-.105 0-.158.002A6.152 6.152 0 0 0 4 11.651v.019c0 1.17-.34 2.32-.981 3.302l-.005.007A6.151 6.151 0 0 0 2 18.367c0 .962.226 1.849.604 2.66a.96.96 0 0 1 0 .85A6.085 6.085 0 0 0 2 24.5c0 3.32 2.68 6 6 6h16c3.32 0 6-2.68 6-6 0-.943-.226-1.83-.604-2.623a.96.96 0 0 1 0-.849Z" fill="url(#h)"/><path d="M29.396 21.028a6.045 6.045 0 0 0 .604-2.66c0-.871-.18-1.689-.5-2.434h.01a5.936 5.936 0 0 0-.525-.957l-.004-.005A6.04 6.04 0 0 1 28 11.67v-.02a6.152 6.152 0 0 0-6.15-6.15c-.34 0-.661-.15-.85-.434A6.163 6.163 0 0 0 16 2.5a6.163 6.163 0 0 0-5 2.566c-.189.264-.51.434-.85.434-.052 0-.105 0-.158.002A6.152 6.152 0 0 0 4 11.651v.019c0 1.17-.34 2.32-.981 3.302l-.005.007A6.151 6.151 0 0 0 2 18.367c0 .962.226 1.849.604 2.66a.96.96 0 0 1 0 .85A6.085 6.085 0 0 0 2 24.5c0 3.32 2.68 6 6 6h16c3.32 0 6-2.68 6-6 0-.943-.226-1.83-.604-2.623a.96.96 0 0 1 0-.849Z" fill="url(#i)"/><path d="M29.396 21.028a6.045 6.045 0 0 0 .604-2.66c0-.871-.18-1.689-.5-2.434h.01a5.936 5.936 0 0 0-.525-.957l-.004-.005A6.04 6.04 0 0 1 28 11.67v-.02a6.152 6.152 0 0 0-6.15-6.15c-.34 0-.661-.15-.85-.434A6.163 6.163 0 0 0 16 2.5a6.163 6.163 0 0 0-5 2.566c-.189.264-.51.434-.85.434-.052 0-.105 0-.158.002A6.152 6.152 0 0 0 4 11.651v.019c0 1.17-.34 2.32-.981 3.302l-.005.007A6.151 6.151 0 0 0 2 18.367c0 .962.226 1.849.604 2.66a.96.96 0 0 1 0 .85A6.085 6.085 0 0 0 2 24.5c0 3.32 2.68 6 6 6h16c3.32 0 6-2.68 6-6 0-.943-.226-1.83-.604-2.623a.96.96 0 0 1 0-.849Z" fill="url(#j)"/></g><g filter="url(#k)"><path d="M7.264 21.4a3 3 0 1 0 0-6 3 3 0 0 0 0 6Z" fill="url(#l)"/></g><g filter="url(#m)"><path d="M7.264 21.4a3 3 0 1 0 0-6 3 3 0 0 0 0 6Z" fill="url(#n)"/></g><g filter="url(#o)"><path d="M25 21.4a3 3 0 1 0 0-6 3 3 0 0 0 0 6Z" fill="url(#p)"/><path d="M25 21.4a3 3 0 1 0 0-6 3 3 0 0 0 0 6Z" fill="url(#q)"/></g><g filter="url(#r)"><path d="M25 20.402a2.003 2.003 0 1 0 0-4.005 2.003 2.003 0 0 0 0 4.006Z" fill="#F6BCA5"/><path d="M25 20.402a2.003 2.003 0 1 0 0-4.005 2.003 2.003 0 0 0 0 4.006Z" fill="url(#s)"/></g><g filter="url(#t)"><path d="M7.3 20.402a2.003 2.003 0 1 0 0-4.005 2.003 2.003 0 0 0 0 4.006Z" fill="#C58C80"/><path d="M7.3 20.402a2.003 2.003 0 1 0 0-4.005 2.003 2.003 0 0 0 0 4.006Z" fill="url(#u)"/></g><g filter="url(#v)"><path d="M6.515 16.046h.023l-.019-.495-.019-.57c.038-1.77 1.07-2.454 1.51-2.683.03-.01.063-.023.096-.038.033-.014.067-.028.096-.038a4.296 4.296 0 0 0 2.217-2.301l.153-.362a.492.492 0 0 1 .86-.095 7.201 7.201 0 0 0 5.947 3.12h6.003c.336 0 2.018.163 2.118 2.484l-.221 5.729c-.23 5.225-4.31 8.733-9.291 8.733-4.98 0-9.061-3.508-9.291-8.733l-.182-4.751Z" fill="url(#w)"/><path d="M6.515 16.046h.023l-.019-.495-.019-.57c.038-1.77 1.07-2.454 1.51-2.683.03-.01.063-.023.096-.038.033-.014.067-.028.096-.038a4.296 4.296 0 0 0 2.217-2.301l.153-.362a.492.492 0 0 1 .86-.095 7.201 7.201 0 0 0 5.947 3.12h6.003c.336 0 2.018.163 2.118 2.484l-.221 5.729c-.23 5.225-4.31 8.733-9.291 8.733-4.98 0-9.061-3.508-9.291-8.733l-.182-4.751Z" fill="url(#x)"/><path d="M6.515 16.046h.023l-.019-.495-.019-.57c.038-1.77 1.07-2.454 1.51-2.683.03-.01.063-.023.096-.038.033-.014.067-.028.096-.038a4.296 4.296 0 0 0 2.217-2.301l.153-.362a.492.492 0 0 1 .86-.095 7.201 7.201 0 0 0 5.947 3.12h6.003c.336 0 2.018.163 2.118 2.484l-.221 5.729c-.23 5.225-4.31 8.733-9.291 8.733-4.98 0-9.061-3.508-9.291-8.733l-.182-4.751Z" fill="url(#y)"/><path d="M6.515 16.046h.023l-.019-.495-.019-.57c.038-1.77 1.07-2.454 1.51-2.683.03-.01.063-.023.096-.038.033-.014.067-.028.096-.038a4.296 4.296 0 0 0 2.217-2.301l.153-.362a.492.492 0 0 1 .86-.095 7.201 7.201 0 0 0 5.947 3.12h6.003c.336 0 2.018.163 2.118 2.484l-.221 5.729c-.23 5.225-4.31 8.733-9.291 8.733-4.98 0-9.061-3.508-9.291-8.733l-.182-4.751Z" fill="url(#z)"/><path d="M6.515 16.046h.023l-.019-.495-.019-.57c.038-1.77 1.07-2.454 1.51-2.683.03-.01.063-.023.096-.038.033-.014.067-.028.096-.038a4.296 4.296 0 0 0 2.217-2.301l.153-.362a.492.492 0 0 1 .86-.095 7.201 7.201 0 0 0 5.947 3.12h6.003c.336 0 2.018.163 2.118 2.484l-.221 5.729c-.23 5.225-4.31 8.733-9.291 8.733-4.98 0-9.061-3.508-9.291-8.733l-.182-4.751Z" fill="url(#A)"/><path d="M6.515 16.046h.023l-.019-.495-.019-.57c.038-1.77 1.07-2.454 1.51-2.683.03-.01.063-.023.096-.038.033-.014.067-.028.096-.038a4.296 4.296 0 0 0 2.217-2.301l.153-.362a.492.492 0 0 1 .86-.095 7.201 7.201 0 0 0 5.947 3.12h6.003c.336 0 2.018.163 2.118 2.484l-.221 5.729c-.23 5.225-4.31 8.733-9.291 8.733-4.98 0-9.061-3.508-9.291-8.733l-.182-4.751Z" fill="url(#B)"/><path d="M6.515 16.046h.023l-.019-.495-.019-.57c.038-1.77 1.07-2.454 1.51-2.683.03-.01.063-.023.096-.038.033-.014.067-.028.096-.038a4.296 4.296 0 0 0 2.217-2.301l.153-.362a.492.492 0 0 1 .86-.095 7.201 7.201 0 0 0 5.947 3.12h6.003c.336 0 2.018.163 2.118 2.484l-.221 5.729c-.23 5.225-4.31 8.733-9.291 8.733-4.98 0-9.061-3.508-9.291-8.733l-.182-4.751Z" fill="url(#C)"/></g><path d="M6.515 16.046h.023l-.019-.495-.019-.57c.038-1.77 1.07-2.454 1.51-2.683.03-.01.063-.023.096-.038.033-.014.067-.028.096-.038a4.296 4.296 0 0 0 2.217-2.301l.153-.362a.492.492 0 0 1 .86-.095 7.201 7.201 0 0 0 5.947 3.12h6.003c.336 0 2.018.163 2.118 2.484l-.221 5.729c-.23 5.225-4.31 8.733-9.291 8.733-4.98 0-9.061-3.508-9.291-8.733l-.182-4.751Z" fill="url(#D)"/><g filter="url(#E)"><path d="m15.268 17.985-1.274 3.17a1.005 1.005 0 0 0 .97 1.303h1.466c.688 0 1.173-.662.971-1.304l-.99-3.17c-.213-.701-.92-.701-1.143 0Z" fill="#D19590"/></g><g filter="url(#F)"><path d="m15.287 17.727-.99 3.169a1.005 1.005 0 0 0 .97 1.304h1.466c.688 0 1.173-.662.97-1.304l-.99-3.17c-.213-.702-1.203-.702-1.426 0Z" fill="#F1C4B2"/><path d="m15.287 17.727-.99 3.169a1.005 1.005 0 0 0 .97 1.304h1.466c.688 0 1.173-.662.97-1.304l-.99-3.17c-.213-.702-1.203-.702-1.426 0Z" fill="url(#G)"/><path d="m15.287 17.727-.99 3.169a1.005 1.005 0 0 0 .97 1.304h1.466c.688 0 1.173-.662.97-1.304l-.99-3.17c-.213-.702-1.203-.702-1.426 0Z" fill="url(#H)"/><path d="m15.287 17.727-.99 3.169a1.005 1.005 0 0 0 .97 1.304h1.466c.688 0 1.173-.662.97-1.304l-.99-3.17c-.213-.702-1.203-.702-1.426 0Z" fill="url(#I)"/><path d="m15.287 17.727-.99 3.169a1.005 1.005 0 0 0 .97 1.304h1.466c.688 0 1.173-.662.97-1.304l-.99-3.17c-.213-.702-1.203-.702-1.426 0Z" fill="url(#J)"/></g><path d="m15.287 17.727-.99 3.169a1.005 1.005 0 0 0 .97 1.304h1.466c.688 0 1.173-.662.97-1.304l-.99-3.17c-.213-.702-1.203-.702-1.426 0Z" fill="url(#K)"/><path d="m15.287 17.727-.99 3.169a1.005 1.005 0 0 0 .97 1.304h1.466c.688 0 1.173-.662.97-1.304l-.99-3.17c-.213-.702-1.203-.702-1.426 0Z" fill="url(#L)"/><path d="M13.373 23.142a.338.338 0 0 0-.41.072.323.323 0 0 0-.034.408A3.652 3.652 0 0 0 16 25.3c1.29 0 2.422-.672 3.071-1.678a.327.327 0 0 0-.035-.412.339.339 0 0 0-.409-.069 5.566 5.566 0 0 1-2.627.637 5.594 5.594 0 0 1-2.627-.636Z" fill="#88024E" stroke="url(#M)" stroke-width=".1"/><g filter="url(#N)"><path d="M18.13 17.339c.494-.87 1.246-1.558 2.866-1.558.709 0 1.392.197 2 .688.501.405.434.923.046 1.117l-1.037.592c-1.215-.393-2.56-.446-3.876-.839Z" fill="#635D5F"/></g><g filter="url(#O)"><path d="M13.871 17.339c-.495-.87-1.247-1.558-2.866-1.558-.71 0-1.393.197-2 .688-.502.405-.434.923-.046 1.117l1.036.592c1.216-.393 2.56-.446 3.876-.839Z" fill="#635D5F"/></g><g filter="url(#P)"><path d="m9.665 15.085-.008.005a.5.5 0 0 1-.514-.858h.001l.002-.002.006-.003.017-.01a3.259 3.259 0 0 1 .277-.143c.184-.088.445-.2.764-.302.634-.202 1.52-.372 2.477-.203a.5.5 0 1 1-.174.985c-.743-.132-1.457-.002-1.998.171a5.093 5.093 0 0 0-.85.36Z" fill="#BDB4C2"/></g><g filter="url(#Q)"><path fill-rule="evenodd" clip-rule="evenodd" d="m22.957 14.232-.257.43.257-.43a.5.5 0 0 1-.514.858l-.008-.005a3.642 3.642 0 0 0-.21-.109 5.08 5.08 0 0 0-.64-.25c-.54-.174-1.255-.304-1.998-.172a.5.5 0 1 1-.174-.985c.957-.169 1.843.001 2.477.203a6.112 6.112 0 0 1 .98.412l.061.033.017.01.006.003.002.002h.001Z" fill="#BDB4C2"/></g><path d="M20.458 15.89c1.217 0 2.246.84 2.526 1.975a.511.511 0 0 1-.5.635h-4.159a.43.43 0 0 1-.424-.507 2.606 2.606 0 0 1 2.557-2.102Z" fill="#fff"/><path d="M20.072 16.398a1.664 1.664 0 0 1 1.603 2.102h-3.214a1.706 1.706 0 0 1-.06-.439 1.67 1.67 0 0 1 1.671-1.663Z" fill="url(#R)"/><path d="M19.119 18.061c0-.53.424-.953.953-.953.53 0 .953.424.953.953a.94.94 0 0 1-.106.439h-1.686a.861.861 0 0 1-.114-.439Z" fill="#000"/><g filter="url(#S)"><path d="M19.95 16.75c.118.158-.13.351-.411.562-.282.21-.491.358-.61.2-.118-.159.014-.458.296-.669.282-.21.606-.252.725-.094Z" fill="#C7A7A3"/><path d="M19.95 16.75c.118.158-.13.351-.411.562-.282.21-.491.358-.61.2-.118-.159.014-.458.296-.669.282-.21.606-.252.725-.094Z" fill="url(#T)"/></g><g filter="url(#U)"><path d="M21.554 17.842a1.567 1.567 0 0 0-.431-.862l-.485.531.219.426.697-.095Z" fill="url(#V)"/></g><path d="M11.542 15.89c-1.217 0-2.246.84-2.526 1.975a.511.511 0 0 0 .5.635h4.159a.43.43 0 0 0 .424-.507 2.612 2.612 0 0 0-2.557-2.102Z" fill="#fff"/><path d="M11.928 16.397a1.664 1.664 0 0 0-1.604 2.103h3.215c.038-.144.06-.288.06-.439a1.675 1.675 0 0 0-1.671-1.664Z" fill="url(#W)"/><path d="M12.88 18.061a.949.949 0 0 0-.952-.953.949.949 0 0 0-.953.953c0 .16.038.31.106.439h1.687a.945.945 0 0 0 .113-.439Z" fill="#000"/><g filter="url(#X)"><path d="M13.448 17.866c0-.538-.437-.896-.555-1.005l-.538.52.33.674.763-.19Z" fill="url(#Y)"/></g><g filter="url(#Z)" transform="rotate(-27.914 11.426 17.108)"><ellipse cx="11.426" cy="17.108" rx=".726" ry=".368" fill="#C7A7A3" fill-opacity=".9"/><ellipse cx="11.426" cy="17.108" rx=".726" ry=".368" fill="url(#aa)"/></g><g filter="url(#ab)"><path d="M19.616 13.976c.602-.146 2.097-.073 3.096.642" stroke="url(#ac)" stroke-width=".4" stroke-linecap="round"/></g><g filter="url(#ad)"><path d="M12.548 13.976c-.601-.146-2.097-.073-3.096.642" stroke="url(#ae)" stroke-width=".4" stroke-linecap="round"/></g><g filter="url(#af)"><path d="M4.557 13.55a.33.33 0 0 1-.069.07l.07-.07c.176-.232.409-.909.52-2.118.158-1.718.758-4.015 2.748-5.062 1.926-1.172 2.605-.313 4.2-1.64.43-.36 1.405-2.032 4.106-1.673 2.7.36 6.609 2.984 9.092 4.899 2.194 1.691 2.188 4.625.907 6.375.026-.61-.354-2.313-2.297-2.313h-5.65c-2.467 0-4.747-.887-6.54-3.687-.264.01-.821.126-1.213 1.101-.49 1.22-2.132 2.375-3.742 2.875-1.18.366-1.849.96-2.132 1.243Z" fill="url(#ag)"/><path d="M4.557 13.55a.33.33 0 0 1-.069.07l.07-.07c.176-.232.409-.909.52-2.118.158-1.718.758-4.015 2.748-5.062 1.926-1.172 2.605-.313 4.2-1.64.43-.36 1.405-2.032 4.106-1.673 2.7.36 6.609 2.984 9.092 4.899 2.194 1.691 2.188 4.625.907 6.375.026-.61-.354-2.313-2.297-2.313h-5.65c-2.467 0-4.747-.887-6.54-3.687-.264.01-.821.126-1.213 1.101-.49 1.22-2.132 2.375-3.742 2.875-1.18.366-1.849.96-2.132 1.243Z" fill="url(#ah)"/><path d="M4.557 13.55a.33.33 0 0 1-.069.07l.07-.07c.176-.232.409-.909.52-2.118.158-1.718.758-4.015 2.748-5.062 1.926-1.172 2.605-.313 4.2-1.64.43-.36 1.405-2.032 4.106-1.673 2.7.36 6.609 2.984 9.092 4.899 2.194 1.691 2.188 4.625.907 6.375.026-.61-.354-2.313-2.297-2.313h-5.65c-2.467 0-4.747-.887-6.54-3.687-.264.01-.821.126-1.213 1.101-.49 1.22-2.132 2.375-3.742 2.875-1.18.366-1.849.96-2.132 1.243Z" fill="url(#ai)"/><path d="M4.557 13.55a.33.33 0 0 1-.069.07l.07-.07c.176-.232.409-.909.52-2.118.158-1.718.758-4.015 2.748-5.062 1.926-1.172 2.605-.313 4.2-1.64.43-.36 1.405-2.032 4.106-1.673 2.7.36 6.609 2.984 9.092 4.899 2.194 1.691 2.188 4.625.907 6.375.026-.61-.354-2.313-2.297-2.313h-5.65c-2.467 0-4.747-.887-6.54-3.687-.264.01-.821.126-1.213 1.101-.49 1.22-2.132 2.375-3.742 2.875-1.18.366-1.849.96-2.132 1.243Z" fill="url(#aj)"/><path d="M4.557 13.55a.33.33 0 0 1-.069.07l.07-.07c.176-.232.409-.909.52-2.118.158-1.718.758-4.015 2.748-5.062 1.926-1.172 2.605-.313 4.2-1.64.43-.36 1.405-2.032 4.106-1.673 2.7.36 6.609 2.984 9.092 4.899 2.194 1.691 2.188 4.625.907 6.375.026-.61-.354-2.313-2.297-2.313h-5.65c-2.467 0-4.747-.887-6.54-3.687-.264.01-.821.126-1.213 1.101-.49 1.22-2.132 2.375-3.742 2.875-1.18.366-1.849.96-2.132 1.243Z" fill="url(#ak)"/><path d="M4.557 13.55a.33.33 0 0 1-.069.07l.07-.07c.176-.232.409-.909.52-2.118.158-1.718.758-4.015 2.748-5.062 1.926-1.172 2.605-.313 4.2-1.64.43-.36 1.405-2.032 4.106-1.673 2.7.36 6.609 2.984 9.092 4.899 2.194 1.691 2.188 4.625.907 6.375.026-.61-.354-2.313-2.297-2.313h-5.65c-2.467 0-4.747-.887-6.54-3.687-.264.01-.821.126-1.213 1.101-.49 1.22-2.132 2.375-3.742 2.875-1.18.366-1.849.96-2.132 1.243Z" fill="url(#al)"/></g><g filter="url(#am)"><path d="M10.79 5.906c-.01.625.12 1.932.47 3.157" stroke="url(#an)" stroke-width=".1" stroke-linecap="round"/></g><defs><radialGradient id="c" cx="0" cy="0" r="1" gradientUnits="userSpaceOnUse" gradientTransform="matrix(3.4375 -5.0625 11.54282 7.83772 22.688 30.5)"><stop stop-color="#D1B4E2"/><stop offset="1" stop-color="#D1B4E2" stop-opacity="0"/></radialGradient><radialGradient id="d" cx="0" cy="0" r="1" gradientUnits="userSpaceOnUse" gradientTransform="matrix(-2.43755 10.68745 -10.29747 -2.3486 15.375 21.375)"><stop offset=".684" stop-color="#A890BD"/><stop offset="1" stop-color="#A890BD" stop-opacity="0"/></radialGradient><radialGradient id="e" cx="0" cy="0" r="1" gradientUnits="userSpaceOnUse" gradientTransform="matrix(-1.04688 1.2344 -1.73986 -1.47556 6.11 20.297)"><stop stop-color="#9F91A4"/><stop offset="1" stop-color="#9F91A4" stop-opacity="0"/></radialGradient><radialGradient id="f" cx="0" cy="0" r="1" gradientUnits="userSpaceOnUse" gradientTransform="matrix(3.37515 6.18753 -10.26426 5.5989 9.5 4)"><stop offset=".132" stop-color="#B3AEAE"/><stop offset="1" stop-color="#B3AEAE" stop-opacity="0"/></radialGradient><radialGradient id="g" cx="0" cy="0" r="1" gradientUnits="userSpaceOnUse" gradientTransform="matrix(-2.06248 2.25002 -3.14436 -2.88229 26.25 7.688)"><stop stop-color="#F0EEF0"/><stop offset="1" stop-color="#F0EEF0" stop-opacity="0"/></radialGradient><radialGradient id="h" cx="0" cy="0" r="1" gradientUnits="userSpaceOnUse" gradientTransform="matrix(-3.43734 1 -2.17588 -7.4792 30 16.813)"><stop stop-color="#F0EBF1"/><stop offset="1" stop-color="#F0EBF1" stop-opacity="0"/></radialGradient><radialGradient id="i" cx="0" cy="0" r="1" gradientUnits="userSpaceOnUse" gradientTransform="rotate(160.182 13.36 13.67) scale(7.37407 11.7491)"><stop stop-color="#F3EBF6"/><stop offset="1" stop-color="#F3EBF6" stop-opacity="0"/></radialGradient><radialGradient id="j" cx="0" cy="0" r="1" gradientUnits="userSpaceOnUse" gradientTransform="matrix(.1875 -6.40625 3.37668 .09883 24.313 14.5)"><stop offset=".37" stop-color="#CDC4D5"/><stop offset="1" stop-color="#CDC4D5" stop-opacity="0"/></radialGradient><radialGradient id="p" cx="0" cy="0" r="1" gradientUnits="userSpaceOnUse" gradientTransform="matrix(3.40625 -3.79687 4.63581 4.15888 24.406 20.219)"><stop offset=".444" stop-color="#E5B1A5"/><stop offset=".944" stop-color="#FFD8C1"/></radialGradient><radialGradient id="q" cx="0" cy="0" r="1" gradientUnits="userSpaceOnUse" gradientTransform="matrix(2.45313 1.375 -.38873 .69354 25.453 15.266)"><stop stop-color="#DBA98B"/><stop offset="1" stop-color="#DBA98B" stop-opacity="0"/></radialGradient><radialGradient id="s" cx="0" cy="0" r="1" gradientUnits="userSpaceOnUse" gradientTransform="matrix(2.81506 -.2094 .1637 2.2006 24.188 18.61)"><stop offset=".719" stop-color="#F4B89E" stop-opacity="0"/><stop offset="1" stop-color="#F5B99D"/></radialGradient><radialGradient id="u" cx="0" cy="0" r="1" gradientUnits="userSpaceOnUse" gradientTransform="matrix(-2.25 0 0 -1.77497 7.422 18.4)"><stop offset=".667" stop-color="#BC8272" stop-opacity="0"/><stop offset="1" stop-color="#BC8272"/></radialGradient><radialGradient id="w" cx="0" cy="0" r="1" gradientUnits="userSpaceOnUse" gradientTransform="matrix(-12.1254 5.59142 -7.48399 -16.22955 21.33 17.398)"><stop stop-color="#FFD7BF"/><stop offset="1" stop-color="#D59F97"/></radialGradient><radialGradient id="x" cx="0" cy="0" r="1" gradientUnits="userSpaceOnUse" gradientTransform="rotate(172.574 10.384 10.685) scale(6.50762 7.18326)"><stop stop-color="#FFDEBF"/><stop offset="1" stop-color="#FFDEBF" stop-opacity="0"/></radialGradient><radialGradient id="y" cx="0" cy="0" r="1" gradientUnits="userSpaceOnUse" gradientTransform="matrix(2.4375 -7.0625 8.961 3.09273 11.563 31.063)"><stop stop-color="#B87C92"/><stop offset="1" stop-color="#B87C92" stop-opacity="0"/></radialGradient><radialGradient id="z" cx="0" cy="0" r="1" gradientUnits="userSpaceOnUse" gradientTransform="rotate(97.761 .782 16.268) scale(12.5496 14.5266)"><stop offset=".673" stop-color="#B47896" stop-opacity="0"/><stop offset="1" stop-color="#B47896"/></radialGradient><radialGradient id="A" cx="0" cy="0" r="1" gradientUnits="userSpaceOnUse" gradientTransform="rotate(168.897 8.685 11.254) scale(13.1206 22.5896)"><stop offset=".795" stop-color="#E2A895" stop-opacity="0"/><stop offset="1" stop-color="#E2A895"/></radialGradient><radialGradient id="B" cx="0" cy="0" r="1" gradientUnits="userSpaceOnUse" gradientTransform="matrix(0 -2.14551 2.63313 0 20.29 16.618)"><stop stop-color="#F6BAA9"/><stop offset="1" stop-color="#F6BAA9" stop-opacity="0"/></radialGradient><radialGradient id="C" cx="0" cy="0" r="1" gradientUnits="userSpaceOnUse" gradientTransform="matrix(0 -2.44707 2.8045 0 12.129 16.192)"><stop stop-color="#D09790"/><stop offset="1" stop-color="#D09790" stop-opacity="0"/></radialGradient><radialGradient id="D" cx="0" cy="0" r="1" gradientUnits="userSpaceOnUse" gradientTransform="matrix(-2.3963 0 0 -12.0172 25.5 19.391)"><stop stop-color="#FFD8BC"/><stop offset="1" stop-color="#FFD8BC" stop-opacity="0"/></radialGradient><radialGradient id="G" cx="0" cy="0" r="1" gradientUnits="userSpaceOnUse" gradientTransform="matrix(-.84932 -3.81088 1.17448 -.26175 17.462 20.746)"><stop offset=".017" stop-color="#FFDCC5"/><stop offset="1" stop-color="#FFDCC5" stop-opacity="0"/></radialGradient><radialGradient id="J" cx="0" cy="0" r="1" gradientUnits="userSpaceOnUse" gradientTransform="matrix(-1.45312 0 0 -.40625 17.016 21.14)"><stop stop-color="#FFD6C2"/><stop offset="1" stop-color="#FFD6C2" stop-opacity="0"/></radialGradient><radialGradient id="L" cx="0" cy="0" r="1" gradientUnits="userSpaceOnUse" gradientTransform="matrix(-2.5565 1.75513 -2.1094 -3.07252 16.703 20.031)"><stop offset=".778" stop-color="#CC8C8D" stop-opacity="0"/><stop offset="1" stop-color="#CC8C8D"/></radialGradient><radialGradient id="R" cx="0" cy="0" r="1" gradientUnits="userSpaceOnUse" gradientTransform="matrix(0 1.51263 -2.406 0 20.068 17.287)"><stop offset=".802" stop-color="#7D574A"/><stop offset="1" stop-color="#694B43"/><stop offset="1" stop-color="#804D49"/><stop offset="1" stop-color="#664944"/></radialGradient><radialGradient id="T" cx="0" cy="0" r="1" gradientUnits="userSpaceOnUse" gradientTransform="matrix(-.43239 -.5572 .76712 -.5953 19.643 17.444)"><stop offset=".766" stop-color="#FFE6E2" stop-opacity="0"/><stop offset=".966" stop-color="#FFE6E2"/></radialGradient><radialGradient id="W" cx="0" cy="0" r="1" gradientUnits="userSpaceOnUse" gradientTransform="matrix(0 1.51264 -2.40602 0 11.932 17.287)"><stop offset=".802" stop-color="#7D574A"/><stop offset="1" stop-color="#694B43"/><stop offset="1" stop-color="#804D49"/><stop offset="1" stop-color="#664944"/></radialGradient><radialGradient id="aa" cx="0" cy="0" r="1" gradientUnits="userSpaceOnUse" gradientTransform="rotate(-90.897 14.41 3.237) scale(.92124 1.10737)"><stop offset=".766" stop-color="#FFE6E2" stop-opacity="0"/><stop offset=".966" stop-color="#FFE6E2"/></radialGradient><radialGradient id="ag" cx="0" cy="0" r="1" gradientUnits="userSpaceOnUse" gradientTransform="matrix(12.71085 -4.56251 6.67385 18.5929 14.138 14.393)"><stop offset=".862" stop-color="#D6D4D5" stop-opacity="0"/><stop offset="1" stop-color="#D6D4D5"/></radialGradient><radialGradient id="ah" cx="0" cy="0" r="1" gradientUnits="userSpaceOnUse" gradientTransform="matrix(-3.18752 4.68748 -4.73732 -3.22141 9.162 8.018)"><stop stop-color="#D1C8D0"/><stop offset="1" stop-color="#D1C8D0" stop-opacity="0"/></radialGradient><radialGradient id="ai" cx="0" cy="0" r="1" gradientUnits="userSpaceOnUse" gradientTransform="rotate(-159.55 14.041 4.575) scale(7.87103 4.0049)"><stop offset=".39" stop-color="#CDC4D5"/><stop offset="1" stop-color="#CDC4D5" stop-opacity="0"/></radialGradient><radialGradient id="aj" cx="0" cy="0" r="1" gradientUnits="userSpaceOnUse" gradientTransform="rotate(-75.073 15.53 -4.362) scale(4.52779 9.14526)"><stop stop-color="#C9BDD0"/><stop offset="1" stop-color="#C9BDD0" stop-opacity="0"/></radialGradient><radialGradient id="ak" cx="0" cy="0" r="1" gradientUnits="userSpaceOnUse" gradientTransform="matrix(-1.34376 1.46322 -.86926 -.7983 9.88 7.206)"><stop offset=".3" stop-color="#D5CDD3"/><stop offset="1" stop-color="#D5CDD3" stop-opacity="0"/></radialGradient><radialGradient id="al" cx="0" cy="0" r="1" gradientUnits="userSpaceOnUse" gradientTransform="rotate(106.6 9.598 12.467) scale(5.67398 14.16)"><stop stop-color="#F7F3F6"/><stop offset="1" stop-color="#F7F3F6" stop-opacity="0"/></radialGradient><filter id="a" x="2" y="1.75" width="28.25" height="28.75" filterUnits="userSpaceOnUse" color-interpolation-filters="sRGB"><feFlood flood-opacity="0" result="BackgroundImageFix"/><feBlend in="SourceGraphic" in2="BackgroundImageFix" result="shape"/><feColorMatrix in="SourceAlpha" values="0 0 0 0 0 0 0 0 0 0 0 0 0 0 0 0 0 0 127 0" result="hardAlpha"/><feOffset dx=".25" dy="-.75"/><feGaussianBlur stdDeviation=".75"/><feComposite in2="hardAlpha" operator="arithmetic" k2="-1" k3="1"/><feColorMatrix values="0 0 0 0 0.623529 0 0 0 0 0.533333 0 0 0 0 0.705882 0 0 0 1 0"/><feBlend in2="shape" result="effect1_innerShadow_3987_19514"/></filter><filter id="k" x="4.264" y="15.4" width="6.15" height="6" filterUnits="userSpaceOnUse" color-interpolation-filters="sRGB"><feFlood flood-opacity="0" result="BackgroundImageFix"/><feBlend in="SourceGraphic" in2="BackgroundImageFix" result="shape"/><feColorMatrix in="SourceAlpha" values="0 0 0 0 0 0 0 0 0 0 0 0 0 0 0 0 0 0 127 0" result="hardAlpha"/><feOffset dx=".15"/><feGaussianBlur stdDeviation=".25"/><feComposite in2="hardAlpha" operator="arithmetic" k2="-1" k3="1"/><feColorMatrix values="0 0 0 0 0.607843 0 0 0 0 0.458824 0 0 0 0 0.403922 0 0 0 1 0"/><feBlend in2="shape" result="effect1_innerShadow_3987_19514"/></filter><filter id="m" x="4.264" y="15.4" width="6.15" height="6" filterUnits="userSpaceOnUse" color-interpolation-filters="sRGB"><feFlood flood-opacity="0" result="BackgroundImageFix"/><feBlend in="SourceGraphic" in2="BackgroundImageFix" result="shape"/><feColorMatrix in="SourceAlpha" values="0 0 0 0 0 0 0 0 0 0 0 0 0 0 0 0 0 0 127 0" result="hardAlpha"/><feOffset dx=".15"/><feGaussianBlur stdDeviation=".25"/><feComposite in2="hardAlpha" operator="arithmetic" k2="-1" k3="1"/><feColorMatrix values="0 0 0 0 0.894118 0 0 0 0 0.682353 0 0 0 0 0.6 0 0 0 1 0"/><feBlend in2="shape" result="effect1_innerShadow_3987_19514"/></filter><filter id="o" x="22" y="15.15" width="6" height="6.25" filterUnits="userSpaceOnUse" color-interpolation-filters="sRGB"><feFlood flood-opacity="0" result="BackgroundImageFix"/><feBlend in="SourceGraphic" in2="BackgroundImageFix" result="shape"/><feColorMatrix in="SourceAlpha" values="0 0 0 0 0 0 0 0 0 0 0 0 0 0 0 0 0 0 127 0" result="hardAlpha"/><feOffset dy="-.25"/><feGaussianBlur stdDeviation=".25"/><feComposite in2="hardAlpha" operator="arithmetic" k2="-1" k3="1"/><feColorMatrix values="0 0 0 0 0.784314 0 0 0 0 0.572549 0 0 0 0 0.513726 0 0 0 1 0"/><feBlend in2="shape" result="effect1_innerShadow_3987_19514"/></filter><filter id="r" x="22.497" y="15.897" width="5.005" height="5.005" filterUnits="userSpaceOnUse" color-interpolation-filters="sRGB"><feFlood flood-opacity="0" result="BackgroundImageFix"/><feBlend in="SourceGraphic" in2="BackgroundImageFix" result="shape"/><feGaussianBlur stdDeviation=".25" result="effect1_foregroundBlur_3987_19514"/></filter><filter id="t" x="4.897" y="15.997" width="4.805" height="4.805" filterUnits="userSpaceOnUse" color-interpolation-filters="sRGB"><feFlood flood-opacity="0" result="BackgroundImageFix"/><feBlend in="SourceGraphic" in2="BackgroundImageFix" result="shape"/><feGaussianBlur stdDeviation=".2" result="effect1_foregroundBlur_3987_19514"/></filter><filter id="v" x="6.5" y="9.252" width="19" height="20.679" filterUnits="userSpaceOnUse" color-interpolation-filters="sRGB"><feFlood flood-opacity="0" result="BackgroundImageFix"/><feBlend in="SourceGraphic" in2="BackgroundImageFix" result="shape"/><feColorMatrix in="SourceAlpha" values="0 0 0 0 0 0 0 0 0 0 0 0 0 0 0 0 0 0 127 0" result="hardAlpha"/><feOffset dy=".4"/><feGaussianBlur stdDeviation=".3"/><feComposite in2="hardAlpha" operator="arithmetic" k2="-1" k3="1"/><feColorMatrix values="0 0 0 0 0.807843 0 0 0 0 0.592157 0 0 0 0 0.52549 0 0 0 1 0"/><feBlend in2="shape" result="effect1_innerShadow_3987_19514"/></filter><filter id="E" x="13.447" y="16.958" width="4.5" height="6" filterUnits="userSpaceOnUse" color-interpolation-filters="sRGB"><feFlood flood-opacity="0" result="BackgroundImageFix"/><feBlend in="SourceGraphic" in2="BackgroundImageFix" result="shape"/><feGaussianBlur stdDeviation=".25" result="effect1_foregroundBlur_3987_19514"/></filter><filter id="F" x="14" y="16.95" width="4" height="5.5" filterUnits="userSpaceOnUse" color-interpolation-filters="sRGB"><feFlood flood-opacity="0" result="BackgroundImageFix"/><feBlend in="SourceGraphic" in2="BackgroundImageFix" result="shape"/><feGaussianBlur stdDeviation=".125" result="effect1_foregroundBlur_3987_19514"/></filter><filter id="N" x="17.929" y="15.781" width="5.423" height="2.397" filterUnits="userSpaceOnUse" color-interpolation-filters="sRGB"><feFlood flood-opacity="0" result="BackgroundImageFix"/><feBlend in="SourceGraphic" in2="BackgroundImageFix" result="shape"/><feColorMatrix in="SourceAlpha" values="0 0 0 0 0 0 0 0 0 0 0 0 0 0 0 0 0 0 127 0" result="hardAlpha"/><feOffset dx="-.2"/><feGaussianBlur stdDeviation=".2"/><feComposite in2="hardAlpha" operator="arithmetic" k2="-1" k3="1"/><feColorMatrix values="0 0 0 0 0.141176 0 0 0 0 0.0862745 0 0 0 0 0.176471 0 0 0 1 0"/><feBlend in2="shape" result="effect1_innerShadow_3987_19514"/></filter><filter id="O" x="8.648" y="15.781" width="5.423" height="2.397" filterUnits="userSpaceOnUse" color-interpolation-filters="sRGB"><feFlood flood-opacity="0" result="BackgroundImageFix"/><feBlend in="SourceGraphic" in2="BackgroundImageFix" result="shape"/><feColorMatrix in="SourceAlpha" values="0 0 0 0 0 0 0 0 0 0 0 0 0 0 0 0 0 0 127 0" result="hardAlpha"/><feOffset dx=".2"/><feGaussianBlur stdDeviation=".125"/><feComposite in2="hardAlpha" operator="arithmetic" k2="-1" k3="1"/><feColorMatrix values="0 0 0 0 0.133333 0 0 0 0 0.0784314 0 0 0 0 0.168627 0 0 0 1 0"/><feBlend in2="shape" result="effect1_innerShadow_3987_19514"/></filter><filter id="P" x="8.9" y="13.3" width="4.4" height="1.861" filterUnits="userSpaceOnUse" color-interpolation-filters="sRGB"><feFlood flood-opacity="0" result="BackgroundImageFix"/><feBlend in="SourceGraphic" in2="BackgroundImageFix" result="shape"/><feColorMatrix in="SourceAlpha" values="0 0 0 0 0 0 0 0 0 0 0 0 0 0 0 0 0 0 127 0" result="hardAlpha"/><feOffset dx=".2" dy="-.2"/><feGaussianBlur stdDeviation=".15"/><feComposite in2="hardAlpha" operator="arithmetic" k2="-1" k3="1"/><feColorMatrix values="0 0 0 0 0.654902 0 0 0 0 0.6 0 0 0 0 0.694118 0 0 0 1 0"/><feBlend in2="shape" result="effect1_innerShadow_3987_19514"/></filter><filter id="Q" x="19" y="13.3" width="4.4" height="1.861" filterUnits="userSpaceOnUse" color-interpolation-filters="sRGB"><feFlood flood-opacity="0" result="BackgroundImageFix"/><feBlend in="SourceGraphic" in2="BackgroundImageFix" result="shape"/><feColorMatrix in="SourceAlpha" values="0 0 0 0 0 0 0 0 0 0 0 0 0 0 0 0 0 0 127 0" result="hardAlpha"/><feOffset dx=".2" dy="-.2"/><feGaussianBlur stdDeviation=".15"/><feComposite in2="hardAlpha" operator="arithmetic" k2="-1" k3="1"/><feColorMatrix values="0 0 0 0 0.654902 0 0 0 0 0.6 0 0 0 0 0.694118 0 0 0 1 0"/><feBlend in2="shape" result="effect1_innerShadow_3987_19514"/></filter><filter id="S" x="18.786" y="16.553" width="1.294" height="1.125" filterUnits="userSpaceOnUse" color-interpolation-filters="sRGB"><feFlood flood-opacity="0" result="BackgroundImageFix"/><feBlend in="SourceGraphic" in2="BackgroundImageFix" result="shape"/><feGaussianBlur stdDeviation=".05" result="effect1_foregroundBlur_3987_19514"/></filter><filter id="U" x="20.438" y="16.779" width="1.316" height="1.357" filterUnits="userSpaceOnUse" color-interpolation-filters="sRGB"><feFlood flood-opacity="0" result="BackgroundImageFix"/><feBlend in="SourceGraphic" in2="BackgroundImageFix" result="shape"/><feGaussianBlur stdDeviation=".1" result="effect1_foregroundBlur_3987_19514"/></filter><filter id="X" x="12.155" y="16.661" width="1.493" height="1.594" filterUnits="userSpaceOnUse" color-interpolation-filters="sRGB"><feFlood flood-opacity="0" result="BackgroundImageFix"/><feBlend in="SourceGraphic" in2="BackgroundImageFix" result="shape"/><feGaussianBlur stdDeviation=".1" result="effect1_foregroundBlur_3987_19514"/></filter><filter id="Z" x="10.661" y="16.538" width="1.529" height="1.141" filterUnits="userSpaceOnUse" color-interpolation-filters="sRGB"><feFlood flood-opacity="0" result="BackgroundImageFix"/><feBlend in="SourceGraphic" in2="BackgroundImageFix" result="shape"/><feGaussianBlur stdDeviation=".05" result="effect1_foregroundBlur_3987_19514"/></filter><filter id="ab" x="19.016" y="13.314" width="4.296" height="1.904" filterUnits="userSpaceOnUse" color-interpolation-filters="sRGB"><feFlood flood-opacity="0" result="BackgroundImageFix"/><feBlend in="SourceGraphic" in2="BackgroundImageFix" result="shape"/><feGaussianBlur stdDeviation=".2" result="effect1_foregroundBlur_3987_19514"/></filter><filter id="ad" x="8.852" y="13.314" width="4.296" height="1.904" filterUnits="userSpaceOnUse" color-interpolation-filters="sRGB"><feFlood flood-opacity="0" result="BackgroundImageFix"/><feBlend in="SourceGraphic" in2="BackgroundImageFix" result="shape"/><feGaussianBlur stdDeviation=".2" result="effect1_foregroundBlur_3987_19514"/></filter><filter id="af" x="3.988" y="2.507" width="23.514" height="12.324" filterUnits="userSpaceOnUse" color-interpolation-filters="sRGB"><feFlood flood-opacity="0" result="BackgroundImageFix"/><feBlend in="SourceGraphic" in2="BackgroundImageFix" result="shape"/><feColorMatrix in="SourceAlpha" values="0 0 0 0 0 0 0 0 0 0 0 0 0 0 0 0 0 0 127 0" result="hardAlpha"/><feOffset dx=".1" dy=".1"/><feComposite in2="hardAlpha" operator="arithmetic" k2="-1" k3="1"/><feColorMatrix values="0 0 0 0 0 0 0 0 0 0 0 0 0 0 0 0 0 0 0.25 0"/><feBlend in2="shape" result="effect1_innerShadow_3987_19514"/><feGaussianBlur stdDeviation=".25" result="effect2_foregroundBlur_3987_19514"/></filter><filter id="am" x="10.54" y="5.656" width=".969" height="3.656" filterUnits="userSpaceOnUse" color-interpolation-filters="sRGB"><feFlood flood-opacity="0" result="BackgroundImageFix"/><feBlend in="SourceGraphic" in2="BackgroundImageFix" result="shape"/><feGaussianBlur stdDeviation=".1" result="effect1_foregroundBlur_3987_19514"/></filter><linearGradient id="b" x1="27.188" y1="7.375" x2="11.25" y2="29.188" gradientUnits="userSpaceOnUse"><stop stop-color="#E4E2E4"/><stop offset="1" stop-color="#B1A3B5"/></linearGradient><linearGradient id="l" x1="4.264" y1="18.562" x2="7.727" y2="18.562" gradientUnits="userSpaceOnUse"><stop stop-color="#8D645F"/><stop offset="1" stop-color="#604138"/></linearGradient><linearGradient id="n" x1="4.264" y1="18.562" x2="9.781" y2="18.562" gradientUnits="userSpaceOnUse"><stop stop-color="#CC9987"/><stop offset="1" stop-color="#AC7864"/></linearGradient><linearGradient id="H" x1="14.25" y1="20.882" x2="16" y2="20.882" gradientUnits="userSpaceOnUse"><stop stop-color="#DFA791"/><stop offset="1" stop-color="#DFA791" stop-opacity="0"/></linearGradient><linearGradient id="I" x1="16" y1="22.372" x2="16" y2="21.234" gradientUnits="userSpaceOnUse"><stop stop-color="#D29394"/><stop offset="1" stop-color="#D29394" stop-opacity="0"/></linearGradient><linearGradient id="K" x1="16.146" y1="22.323" x2="16.146" y2="22.063" gradientUnits="userSpaceOnUse"><stop stop-color="#CC8C8D"/><stop offset="1" stop-color="#CC8C8D" stop-opacity="0"/></linearGradient><linearGradient id="M" x1="14.016" y1="25" x2="14.875" y2="23.672" gradientUnits="userSpaceOnUse"><stop stop-color="#D9A4A4"/><stop offset=".663" stop-color="#D9A4A4" stop-opacity="0"/></linearGradient><linearGradient id="V" x1="21.519" y1="17.387" x2="20.934" y2="17.748" gradientUnits="userSpaceOnUse"><stop stop-color="#B4948D"/><stop offset="1" stop-color="#B4948D" stop-opacity="0"/></linearGradient><linearGradient id="Y" x1="13.319" y1="17.387" x2="12.733" y2="17.748" gradientUnits="userSpaceOnUse"><stop stop-color="#B4948D"/><stop offset="1" stop-color="#B4948D" stop-opacity="0"/></linearGradient><linearGradient id="ac" x1="22.625" y1="14.375" x2="19.616" y2="14.375" gradientUnits="userSpaceOnUse"><stop stop-color="#DBD4DE"/><stop offset="1" stop-color="#DBD4DE" stop-opacity="0"/></linearGradient><linearGradient id="ae" x1="9.539" y1="14.375" x2="12.548" y2="14.375" gradientUnits="userSpaceOnUse"><stop stop-color="#DBD4DE"/><stop offset="1" stop-color="#DBD4DE" stop-opacity="0"/></linearGradient><linearGradient id="an" x1="10.338" y1="6.281" x2="10.947" y2="8.984" gradientUnits="userSpaceOnUse"><stop stop-color="#BBB3B8"/><stop offset="1" stop-color="#D2B4C6"/></linearGradient></defs></svg>