<svg width="32" height="32" fill="none" xmlns="http://www.w3.org/2000/svg"><path d="M29.979 16.84V30H12.596a18.07 18.07 0 0 1 17.383-13.16Z" fill="url(#a)"/><path d="M29.979 16.84V30H12.596a18.07 18.07 0 0 1 17.383-13.16Z" fill="url(#b)"/><path d="M29.979 12c-1.657 0-3 1.38-3 3.081v3.838c0 1.701 1.343 3.081 3 3.081V12Z" fill="url(#c)"/><path d="M29.979 12c-1.657 0-3 1.38-3 3.081v3.838c0 1.701 1.343 3.081 3 3.081V12Z" fill="url(#d)"/><g filter="url(#e)"><path d="M21.729 10.5a2.75 2.75 0 1 0 0-5.5 2.75 2.75 0 0 0 0 5.5Z" fill="url(#f)"/></g><g filter="url(#g)"><path d="M21.729 9.5a1.75 1.75 0 1 0 0-3.5 1.75 1.75 0 0 0 0 3.5Z" fill="#F6941F"/></g><g filter="url(#h)"><path fill-rule="evenodd" clip-rule="evenodd" d="M14.512 8.875a.85.85 0 0 1 .937.753 5.644 5.644 0 0 0 1.487 3.243.85.85 0 0 1-1.242 1.16 7.343 7.343 0 0 1-1.935-4.219.85.85 0 0 1 .753-.937Z" fill="url(#i)"/></g><g filter="url(#j)"><path fill-rule="evenodd" clip-rule="evenodd" d="M11.611 9.356a.85.85 0 0 1 .942.746c.207 1.788 1.009 3.299 2.22 4.708a.85.85 0 0 1-1.29 1.108c-1.367-1.59-2.362-3.408-2.618-5.62a.85.85 0 0 1 .746-.942Z" fill="url(#k)"/></g><path d="M29.979 2h-8.343c-.434.507-.5 1.536-.434 2.027l.544 9.911c.64 3.792 3.01 4.938 6.177 4.938h2.056V2Z" fill="#FFBC2F"/><path d="M29.979 2h-8.343c-.434.507-.5 1.536-.434 2.027l.544 9.911c.64 3.792 3.01 4.938 6.177 4.938h2.056V2Z" fill="url(#l)"/><path d="M29.979 2h-8.343c-.434.507-.5 1.536-.434 2.027l.544 9.911c.64 3.792 3.01 4.938 6.177 4.938h2.056V2Z" fill="url(#m)"/><path d="M29.979 2h-8.343c-.434.507-.5 1.536-.434 2.027l.544 9.911c.64 3.792 3.01 4.938 6.177 4.938h2.056V2Z" fill="url(#n)"/><path d="M29.979 2h-8.343c-.434.507-.5 1.536-.434 2.027l.544 9.911c.64 3.792 3.01 4.938 6.177 4.938h2.056V2Z" fill="url(#o)"/><path d="m19.12 25.81-.485.921-6.656-2.5c.052-.255.222-.993.484-1.906.263-.912.844-2.328 1.14-2.953l6.641 2.187.737-1.37a1.498 1.498 0 0 1 2.22-.487c.66.496.794 1.431.289 2.083-.362.466-.76.97-1.105 1.384-.87 1.044-1.64 1.453-2.297 1.75a2.226 2.226 0 0 0-.969.89Z" fill="#FFCC3B"/><path d="m19.12 25.81-.485.921-6.656-2.5c.052-.255.222-.993.484-1.906.263-.912.844-2.328 1.14-2.953l6.641 2.187.737-1.37a1.498 1.498 0 0 1 2.22-.487c.66.496.794 1.431.289 2.083-.362.466-.76.97-1.105 1.384-.87 1.044-1.64 1.453-2.297 1.75a2.226 2.226 0 0 0-.969.89Z" fill="url(#p)"/><path d="m19.12 25.81-.485.921-6.656-2.5c.052-.255.222-.993.484-1.906.263-.912.844-2.328 1.14-2.953l6.641 2.187.737-1.37a1.498 1.498 0 0 1 2.22-.487c.66.496.794 1.431.289 2.083-.362.466-.76.97-1.105 1.384-.87 1.044-1.64 1.453-2.297 1.75a2.226 2.226 0 0 0-.969.89Z" fill="url(#q)"/><path d="m19.12 25.81-.485.921-6.656-2.5c.052-.255.222-.993.484-1.906.263-.912.844-2.328 1.14-2.953l6.641 2.187.737-1.37a1.498 1.498 0 0 1 2.22-.487c.66.496.794 1.431.289 2.083-.362.466-.76.97-1.105 1.384-.87 1.044-1.64 1.453-2.297 1.75a2.226 2.226 0 0 0-.969.89Z" fill="url(#r)"/><path d="m19.12 25.81-.485.921-6.656-2.5c.052-.255.222-.993.484-1.906.263-.912.844-2.328 1.14-2.953l6.641 2.187.737-1.37a1.498 1.498 0 0 1 2.22-.487c.66.496.794 1.431.289 2.083-.362.466-.76.97-1.105 1.384-.87 1.044-1.64 1.453-2.297 1.75a2.226 2.226 0 0 0-.969.89Z" fill="url(#s)"/><path d="m19.12 25.81-.485.921-6.656-2.5c.052-.255.222-.993.484-1.906.263-.912.844-2.328 1.14-2.953l6.641 2.187.737-1.37a1.498 1.498 0 0 1 2.22-.487c.66.496.794 1.431.289 2.083-.362.466-.76.97-1.105 1.384-.87 1.044-1.64 1.453-2.297 1.75a2.226 2.226 0 0 0-.969.89Z" fill="url(#t)"/><path d="m19.12 25.81-.485.921-6.656-2.5c.052-.255.222-.993.484-1.906.263-.912.844-2.328 1.14-2.953l6.641 2.187.737-1.37a1.498 1.498 0 0 1 2.22-.487c.66.496.794 1.431.289 2.083-.362.466-.76.97-1.105 1.384-.87 1.044-1.64 1.453-2.297 1.75a2.226 2.226 0 0 0-.969.89Z" fill="url(#u)"/><rect x="21.132" y="13.361" width="2.859" height="8.147" rx="1.429" transform="rotate(25.409 21.132 13.361)" fill="#FFC836"/><rect x="21.132" y="13.361" width="2.859" height="8.147" rx="1.429" transform="rotate(25.409 21.132 13.361)" fill="url(#v)"/><rect x="21.132" y="13.361" width="2.859" height="8.147" rx="1.429" transform="rotate(25.409 21.132 13.361)" fill="url(#w)"/><path d="M19.361 17.359a2.427 2.427 0 0 0-2.296.875l1.227 2.021c-.058.733.093 2.24 1.22 2.382 1.408.176 1.935-1.088 1.995-2.382.06-1.285-.724-2.663-2.146-2.896Z" fill="url(#x)"/><path d="M19.361 17.359a2.427 2.427 0 0 0-2.296.875l1.227 2.021c-.058.733.093 2.24 1.22 2.382 1.408.176 1.935-1.088 1.995-2.382.06-1.285-.724-2.663-2.146-2.896Z" fill="url(#y)"/><path d="M19.361 17.359a2.427 2.427 0 0 0-2.296.875l1.227 2.021c-.058.733.093 2.24 1.22 2.382 1.408.176 1.935-1.088 1.995-2.382.06-1.285-.724-2.663-2.146-2.896Z" fill="url(#z)"/><path d="M17.963 17.31c-1.231-.207-2.086.523-2.383.93l1.274 2.148c-.06.778.097 2.38 1.265 2.53 1.461.188 2.008-1.155 2.07-2.53.063-1.366-.75-2.831-2.226-3.079Z" fill="url(#A)"/><path d="M17.963 17.31c-1.231-.207-2.086.523-2.383.93l1.274 2.148c-.06.778.097 2.38 1.265 2.53 1.461.188 2.008-1.155 2.07-2.53.063-1.366-.75-2.831-2.226-3.079Z" fill="url(#B)"/><path d="M17.963 17.31c-1.231-.207-2.086.523-2.383.93l1.274 2.148c-.06.778.097 2.38 1.265 2.53 1.461.188 2.008-1.155 2.07-2.53.063-1.366-.75-2.831-2.226-3.079Z" fill="url(#C)"/><path d="M17.76 21.305c.598-1.607-.205-2.863-1.063-3.222-1.037-.435-2.5-.086-3.148 1.414l.29 1.015 1.174-.511c.082-.036.167.047.136.131-.639 1.79.252 2.1.642 2.287.249.12 1.414.379 1.969-1.114Z" fill="url(#D)"/><path d="M17.76 21.305c.598-1.607-.205-2.863-1.063-3.222-1.037-.435-2.5-.086-3.148 1.414l.29 1.015 1.174-.511c.082-.036.167.047.136.131-.639 1.79.252 2.1.642 2.287.249.12 1.414.379 1.969-1.114Z" fill="url(#E)"/><g filter="url(#F)"><path d="M29.754 8a.69.69 0 0 0-.31.124.67.67 0 0 0-.247.34l-.995 2.064a.897.897 0 0 0 .143.808c.087.114.2.207.33.271.362.18.849-.034 1.195-.142L29.754 8Z" fill="#FEA02A"/></g><path d="M29.979 7.007a.629.629 0 0 0-.291.123.67.67 0 0 0-.233.34l-.847 2.853a.951.951 0 0 0 .135.807.886.886 0 0 0 .31.272.848.848 0 0 0 .392.098h.534V7.007Z" fill="url(#G)"/><path d="M29.979 7.007a.629.629 0 0 0-.291.123.67.67 0 0 0-.233.34l-.847 2.853a.951.951 0 0 0 .135.807.886.886 0 0 0 .31.272.848.848 0 0 0 .392.098h.534V7.007Z" fill="url(#H)"/><g filter="url(#I)"><path d="M30.079 13.022v1.56l-.092.007a3.173 3.173 0 0 1-1.853-.422 3.425 3.425 0 0 1-1.204-1.191l-.003-.004a.396.396 0 0 1-.046-.23.39.39 0 0 1 .092-.217l3.106.497Zm0 0-.105.005m.105-.005-.105.005m0 0a4.755 4.755 0 0 1-.245.005h-.001m.246-.005-.246.005m0 0a4.738 4.738 0 0 1-2.323-.592m2.323.592-2.323-.592m0 0-.003-.001m.003.001-.003-.001m0 0a.349.349 0 0 0-.23-.032m.23.032-.23-.032m0 0a.36.36 0 0 0-.2.118l.2-.118Z" stroke="url(#J)" stroke-width=".2"/></g><path d="M29.979 13.127a4.844 4.844 0 0 1-.25.005 4.839 4.839 0 0 1-2.372-.604.248.248 0 0 0-.164-.023.26.26 0 0 0-.145.086.296.296 0 0 0-.033.333c.293.483.695.881 1.169 1.156a3.072 3.072 0 0 0 1.795.41v-1.363Z" fill="url(#K)"/><path d="m18.626 26.342-5.94-2.639a.5.5 0 0 0-.66.254l-.617 1.39a.5.5 0 0 0 .254.659l5.94 2.639a.5.5 0 0 0 .66-.254L18.88 27a.5.5 0 0 0-.254-.66Z" fill="url(#L)"/><path d="m18.626 26.342-5.94-2.639a.5.5 0 0 0-.66.254l-.617 1.39a.5.5 0 0 0 .254.659l5.94 2.639a.5.5 0 0 0 .66-.254L18.88 27a.5.5 0 0 0-.254-.66Z" fill="url(#M)"/><path d="m18.626 26.342-5.94-2.639a.5.5 0 0 0-.66.254l-.617 1.39a.5.5 0 0 0 .254.659l5.94 2.639a.5.5 0 0 0 .66-.254L18.88 27a.5.5 0 0 0-.254-.66Z" fill="url(#N)"/><path d="M18.852 30H8.022l1.759-4.056c.17-.385.482-.686.87-.837a1.55 1.55 0 0 1 1.198.028l6.204 2.773c.377.175.671.492.82.885.148.39.14.823-.02 1.207Z" fill="url(#O)"/><path d="M18.852 30H8.022l1.759-4.056c.17-.385.482-.686.87-.837a1.55 1.55 0 0 1 1.198.028l6.204 2.773c.377.175.671.492.82.885.148.39.14.823-.02 1.207Z" fill="url(#P)"/><path d="M18.852 30H8.022l1.759-4.056c.17-.385.482-.686.87-.837a1.55 1.55 0 0 1 1.198.028l6.204 2.773c.377.175.671.492.82.885.148.39.14.823-.02 1.207Z" fill="url(#Q)"/><path d="M18.852 30H8.022l1.759-4.056c.17-.385.482-.686.87-.837a1.55 1.55 0 0 1 1.198.028l6.204 2.773c.377.175.671.492.82.885.148.39.14.823-.02 1.207Z" fill="url(#R)"/><path d="M25.985 5.65a2.345 2.345 0 0 0-2.275 1.778.46.46 0 0 0 .45.572h3.746c.239 0 .43-.218.382-.456a2.353 2.353 0 0 0-2.303-1.894Z" fill="#fff"/><path d="M26.332 6.106A1.499 1.499 0 0 0 24.889 8h2.895c.034-.13.055-.259.055-.395a1.509 1.509 0 0 0-1.506-1.499Z" fill="url(#S)"/><path d="M27.19 7.605a.855.855 0 0 0-.858-.858.855.855 0 0 0-.858.858c0 .143.034.28.096.395h1.518a.851.851 0 0 0 .103-.395Z" fill="#000"/><g filter="url(#T)"><path d="M27.701 7.429c0-.484-.393-.807-.5-.905l-.484.469.298.606.686-.17Z" fill="url(#U)"/></g><g filter="url(#V)"><path d="M26.417 6.54c.085.16.044.355-.32.388a.367.367 0 0 0-.26.162c-.155.218-.356.143-.438-.011-.097-.184.052-.453.333-.602.281-.149.588-.12.685.062Z" fill="url(#W)" fill-opacity=".9"/><path d="M26.417 6.54c.085.16.044.355-.32.388a.367.367 0 0 0-.26.162c-.155.218-.356.143-.438-.011-.097-.184.052-.453.333-.602.281-.149.588-.12.685.062Z" fill="url(#X)"/></g><g filter="url(#Y)"><path d="M11.979 10.04c.12 1.043.849 3.49 2.436 5.148" stroke="#D4D2DD" stroke-width=".5" stroke-linecap="round"/></g><g filter="url(#Z)"><path d="M14.846 9.64c.143.831.67 2.716 1.633 3.61" stroke="#D4D2DD" stroke-width=".5" stroke-linecap="round"/></g><path d="M20.366 6.11c-.295-.882-.708-3.107-.877-4.11h3.157c-.155.779-.196.713-.689 1.293-.492.58-.557.737-.623 1.55-.052.649 0 1.781.041 2.392-.221-.008-.713-.244-1.009-1.125Z" fill="url(#aa)"/><path d="M20.366 6.11c-.295-.882-.708-3.107-.877-4.11h3.157c-.155.779-.196.713-.689 1.293-.492.58-.557.737-.623 1.55-.052.649 0 1.781.041 2.392-.221-.008-.713-.244-1.009-1.125Z" fill="url(#ab)"/><path d="M20.366 6.11c-.295-.882-.708-3.107-.877-4.11h3.157c-.155.779-.196.713-.689 1.293-.492.58-.557.737-.623 1.55-.052.649 0 1.781.041 2.392-.221-.008-.713-.244-1.009-1.125Z" fill="url(#ac)"/><g filter="url(#ad)" fill-rule="evenodd" clip-rule="evenodd"><path d="M26.584 4.332c-1.062-.173-1.903.343-2.173.554a.825.825 0 0 1-1.016-1.3c.443-.346 1.745-1.16 3.454-.882a.825.825 0 1 1-.265 1.628Z" fill="#B55238"/><path d="M26.584 4.332c-1.062-.173-1.903.343-2.173.554a.825.825 0 0 1-1.016-1.3c.443-.346 1.745-1.16 3.454-.882a.825.825 0 1 1-.265 1.628Z" fill="url(#ae)"/></g><g filter="url(#af)"><path d="M23.903 4.06c.357-.278 1.428-.943 2.814-.717" stroke="url(#ag)" stroke-width=".5" stroke-linecap="round"/></g><defs><radialGradient id="a" cx="0" cy="0" r="1" gradientUnits="userSpaceOnUse" gradientTransform="matrix(-8.25 6.43749 -5.94882 -7.62374 28.604 21.653)"><stop stop-color="#24A5F8"/><stop offset=".745" stop-color="#2694F2"/></radialGradient><radialGradient id="b" cx="0" cy="0" r="1" gradientUnits="userSpaceOnUse" gradientTransform="matrix(-7.7594 2.71107 -1.64225 -4.70031 26.783 17.304)"><stop offset=".106" stop-color="#207AB3"/><stop offset="1" stop-color="#207AB3" stop-opacity="0"/></radialGradient><radialGradient id="d" cx="0" cy="0" r="1" gradientUnits="userSpaceOnUse" gradientTransform="matrix(0 2.25 -2.01563 0 27.791 18.09)"><stop stop-color="#E27E2F"/><stop offset="1" stop-color="#E27E2F" stop-opacity="0"/></radialGradient><radialGradient id="f" cx="0" cy="0" r="1" gradientUnits="userSpaceOnUse" gradientTransform="matrix(3.25 3.40625 -3.96363 3.78181 19.573 6.528)"><stop stop-color="#FFB734"/><stop offset="1" stop-color="#F59624"/></radialGradient><radialGradient id="i" cx="0" cy="0" r="1" gradientUnits="userSpaceOnUse" gradientTransform="rotate(151.783 6.724 7.702) scale(2.18107 6.10648)"><stop offset=".256" stop-color="#CFCBD9"/><stop offset="1" stop-color="#978CA5"/></radialGradient><radialGradient id="k" cx="0" cy="0" r="1" gradientUnits="userSpaceOnUse" gradientTransform="rotate(150.678 5.335 8.038) scale(2.66165 7.63701)"><stop offset=".256" stop-color="#CFCBD9"/><stop offset="1" stop-color="#978CA5"/></radialGradient><radialGradient id="m" cx="0" cy="0" r="1" gradientUnits="userSpaceOnUse" gradientTransform="matrix(0 -8.43813 31.0965 0 29.979 18.647)"><stop offset=".08" stop-color="#DE8043"/><stop offset="1" stop-color="#FFBA2F" stop-opacity="0"/></radialGradient><radialGradient id="n" cx="0" cy="0" r="1" gradientUnits="userSpaceOnUse" gradientTransform="matrix(0 13.9706 -19.1398 0 29.491 5.537)"><stop offset=".915" stop-color="#CC7F75" stop-opacity="0"/><stop offset=".981" stop-color="#CC7F75"/></radialGradient><radialGradient id="o" cx="0" cy="0" r="1" gradientUnits="userSpaceOnUse" gradientTransform="matrix(0 -2.69235 3.32182 0 26.291 5.632)"><stop offset=".21" stop-color="#FEA128"/><stop offset="1" stop-color="#FEA128" stop-opacity="0"/></radialGradient><radialGradient id="p" cx="0" cy="0" r="1" gradientUnits="userSpaceOnUse" gradientTransform="matrix(-.46875 3.1875 -3.36293 -.49455 18.104 21.56)"><stop offset=".44" stop-color="#FF9D3C"/><stop offset="1" stop-color="#FF9D3C" stop-opacity="0"/></radialGradient><radialGradient id="q" cx="0" cy="0" r="1" gradientUnits="userSpaceOnUse" gradientTransform="rotate(155.042 9.65 12.788) scale(2.07371 2.38629)"><stop offset=".102" stop-color="#FFE645"/><stop offset="1" stop-color="#FFE645" stop-opacity="0"/></radialGradient><radialGradient id="r" cx="0" cy="0" r="1" gradientUnits="userSpaceOnUse" gradientTransform="matrix(4.28125 .52344 -.73073 5.9767 13.291 22.528)"><stop offset=".021" stop-color="#FFAD30"/><stop offset="1" stop-color="#FFAD30" stop-opacity="0"/></radialGradient><radialGradient id="s" cx="0" cy="0" r="1" gradientUnits="userSpaceOnUse" gradientTransform="matrix(1.4375 -3.71875 2.17154 .83942 21.26 25.778)"><stop offset=".468" stop-color="#FFB72C"/><stop offset="1" stop-color="#FFB72C" stop-opacity="0"/></radialGradient><radialGradient id="t" cx="0" cy="0" r="1" gradientUnits="userSpaceOnUse" gradientTransform="matrix(-1.10937 2.25782 -1.47378 -.72413 16.354 20.794)"><stop offset=".623" stop-color="#F67B38"/><stop offset="1" stop-color="#F67B38" stop-opacity="0"/></radialGradient><radialGradient id="u" cx="0" cy="0" r="1" gradientUnits="userSpaceOnUse" gradientTransform="matrix(-.56251 2.03125 -1.45908 -.40406 17.807 21.528)"><stop offset=".431" stop-color="#DE722B"/><stop offset="1" stop-color="#DE722B" stop-opacity="0"/></radialGradient><radialGradient id="w" cx="0" cy="0" r="1" gradientUnits="userSpaceOnUse" gradientTransform="rotate(116.86 7.52 14.038) scale(2.06445 1.97258)"><stop stop-color="#FFE746"/><stop offset="1" stop-color="#FFE746" stop-opacity="0"/></radialGradient><radialGradient id="x" cx="0" cy="0" r="1" gradientUnits="userSpaceOnUse" gradientTransform="rotate(147.572 8.027 12.508) scale(2.29023 3.42612)"><stop stop-color="#FFEA46"/><stop offset=".928" stop-color="#FFC82D"/></radialGradient><radialGradient id="y" cx="0" cy="0" r="1" gradientUnits="userSpaceOnUse" gradientTransform="matrix(1.23147 -.56064 .71722 1.5754 19.934 22.653)"><stop stop-color="#EE7E41"/><stop offset="1" stop-color="#FDAA3C" stop-opacity="0"/></radialGradient><radialGradient id="z" cx="0" cy="0" r="1" gradientUnits="userSpaceOnUse" gradientTransform="matrix(1.0098 4.1052 -2.79361 .68718 19.404 18.824)"><stop offset=".867" stop-color="#E98757" stop-opacity="0"/><stop offset=".949" stop-color="#E98757"/></radialGradient><radialGradient id="A" cx="0" cy="0" r="1" gradientUnits="userSpaceOnUse" gradientTransform="matrix(-2.0059 1.30528 -1.9722 -3.03078 20.193 18.8)"><stop stop-color="#FFEB48"/><stop offset="1" stop-color="#FFC63A"/></radialGradient><radialGradient id="B" cx="0" cy="0" r="1" gradientUnits="userSpaceOnUse" gradientTransform="rotate(135.546 5.93 13.586) scale(3.48863 6.50366)"><stop offset=".618" stop-color="#FDAA3C" stop-opacity="0"/><stop offset="1" stop-color="#E76F17"/></radialGradient><radialGradient id="C" cx="0" cy="0" r="1" gradientUnits="userSpaceOnUse" gradientTransform="matrix(1.7769 5.30926 -4.27366 1.4303 17.318 17.971)"><stop offset=".887" stop-color="#EC8759" stop-opacity="0"/><stop offset=".97" stop-color="#EC8759"/></radialGradient><radialGradient id="D" cx="0" cy="0" r="1" gradientUnits="userSpaceOnUse" gradientTransform="matrix(-2.48813 1.5654 -2.19026 -3.48131 17.967 19.15)"><stop stop-color="#FFEB48"/><stop offset="1" stop-color="#FFBB36"/></radialGradient><radialGradient id="E" cx="0" cy="0" r="1" gradientUnits="userSpaceOnUse" gradientTransform="rotate(-86.517 20.121 2.769) scale(1.8002 3.61142)"><stop offset=".095" stop-color="#F78039"/><stop offset="1" stop-color="#FFBD38" stop-opacity="0"/></radialGradient><radialGradient id="H" cx="0" cy="0" r="1" gradientUnits="userSpaceOnUse" gradientTransform="matrix(0 -1.253 2.26733 0 30.057 11.5)"><stop stop-color="#EA8D30"/><stop offset="1" stop-color="#EA8D30" stop-opacity="0"/></radialGradient><radialGradient id="K" cx="0" cy="0" r="1" gradientUnits="userSpaceOnUse" gradientTransform="matrix(-2.08594 0 0 -2.32812 30.073 13.794)"><stop stop-color="#910554"/><stop offset="1" stop-color="#88004E"/></radialGradient><radialGradient id="M" cx="0" cy="0" r="1" gradientUnits="userSpaceOnUse" gradientTransform="rotate(113.199 -.157 18.509) scale(.47757 4.82093)"><stop offset=".073" stop-color="#48C2FF"/><stop offset=".629" stop-color="#48C2FF" stop-opacity="0"/></radialGradient><radialGradient id="Q" cx="0" cy="0" r="1" gradientUnits="userSpaceOnUse" gradientTransform="rotate(113.806 -.437 19.126) scale(1.16131 4.175)"><stop offset=".207" stop-color="#4ABFFF"/><stop offset="1" stop-color="#4ABFFF" stop-opacity="0"/></radialGradient><radialGradient id="R" cx="0" cy="0" r="1" gradientUnits="userSpaceOnUse" gradientTransform="matrix(2 -4.40927 1.30595 .59237 8.602 30)"><stop stop-color="#509FDA"/><stop offset="1" stop-color="#509FDA" stop-opacity="0"/></radialGradient><radialGradient id="S" cx="0" cy="0" r="1" gradientUnits="userSpaceOnUse" gradientTransform="matrix(0 1.36233 -2.16693 0 26.336 6.907)"><stop offset=".802" stop-color="#925C51"/><stop offset="1" stop-color="#694B43"/><stop offset="1" stop-color="#804D49"/><stop offset="1" stop-color="#85534D"/></radialGradient><radialGradient id="W" cx="0" cy="0" r="1" gradientUnits="userSpaceOnUse" gradientTransform="matrix(-.32813 -.53906 .98203 -.59777 26.092 7.157)"><stop offset=".208" stop-color="#C7A7A3" stop-opacity=".25"/><stop offset=".79" stop-color="#C7A7A3"/></radialGradient><radialGradient id="X" cx="0" cy="0" r="1" gradientUnits="userSpaceOnUse" gradientTransform="matrix(-.45084 -.82655 .77084 -.42045 26.17 7.35)"><stop offset=".766" stop-color="#FFE6E2" stop-opacity="0"/><stop offset=".966" stop-color="#FFE6E2"/></radialGradient><radialGradient id="ab" cx="0" cy="0" r="1" gradientUnits="userSpaceOnUse" gradientTransform="matrix(0 2.79687 -1.25427 0 21.82 4.997)"><stop offset=".464" stop-color="#E6772B"/><stop offset="1" stop-color="#E6772B" stop-opacity="0"/></radialGradient><radialGradient id="ac" cx="0" cy="0" r="1" gradientUnits="userSpaceOnUse" gradientTransform="matrix(-.18273 .65666 -.2671 -.07433 22.35 1.953)"><stop stop-color="#FFC02F"/><stop offset="1" stop-color="#FFC02F" stop-opacity="0"/></radialGradient><radialGradient id="ae" cx="0" cy="0" r="1" gradientUnits="userSpaceOnUse" gradientTransform="matrix(.5726 .29215 -.42114 .82544 23.219 3.737)"><stop stop-color="#BA6B59"/><stop offset="1" stop-color="#BA6B59" stop-opacity="0"/></radialGradient><linearGradient id="c" x1="30.291" y1="19.309" x2="28.823" y2="19.309" gradientUnits="userSpaceOnUse"><stop stop-color="#F9B52D"/><stop offset="1" stop-color="#EE9C21"/></linearGradient><linearGradient id="l" x1="21.446" y1="9.401" x2="23.549" y2="9.313" gradientUnits="userSpaceOnUse"><stop stop-color="#FFBC45"/><stop offset="1" stop-color="#FFBC45" stop-opacity="0"/></linearGradient><linearGradient id="v" x1="21.307" y1="18.688" x2="22.06" y2="16.126" gradientUnits="userSpaceOnUse"><stop offset=".159" stop-color="#FFBC2B"/><stop offset="1" stop-color="#FFBC2B" stop-opacity="0"/></linearGradient><linearGradient id="G" x1="29.275" y1="7.007" x2="29.275" y2="11.5" gradientUnits="userSpaceOnUse"><stop stop-color="#FFBD2F" stop-opacity="0"/><stop offset=".339" stop-color="#FFC231"/></linearGradient><linearGradient id="J" x1="27.666" y1="14.059" x2="28.76" y2="13.5" gradientUnits="userSpaceOnUse"><stop stop-color="#FFB93A"/><stop offset="1" stop-color="#FFB93A" stop-opacity="0"/></linearGradient><linearGradient id="L" x1="12.529" y1="25.443" x2="18.643" y2="28.076" gradientUnits="userSpaceOnUse"><stop stop-color="#3E9FE7"/><stop offset="1" stop-color="#24B6FF"/></linearGradient><linearGradient id="N" x1="11.62" y1="25.004" x2="13.077" y2="25.709" gradientUnits="userSpaceOnUse"><stop offset=".399" stop-color="#54A4DF"/><stop offset="1" stop-color="#54A4DF" stop-opacity="0"/></linearGradient><linearGradient id="O" x1="9.291" y1="28.059" x2="17.479" y2="31.153" gradientUnits="userSpaceOnUse"><stop stop-color="#3897E8"/><stop offset="1" stop-color="#27ADFF"/></linearGradient><linearGradient id="P" x1="15.166" y1="26.184" x2="14.416" y2="27.903" gradientUnits="userSpaceOnUse"><stop stop-color="#35BBFF"/><stop offset="1" stop-color="#35BBFF" stop-opacity="0"/></linearGradient><linearGradient id="U" x1="27.585" y1="6.998" x2="27.058" y2="7.323" gradientUnits="userSpaceOnUse"><stop stop-color="#B4948D"/><stop offset="1" stop-color="#B4948D" stop-opacity="0"/></linearGradient><linearGradient id="aa" x1="21.068" y1="2" x2="21.068" y2="7.235" gradientUnits="userSpaceOnUse"><stop stop-color="#FFA835"/><stop offset=".853" stop-color="#F48F30"/></linearGradient><linearGradient id="ag" x1="26.571" y1="3.2" x2="23.789" y2="4.2" gradientUnits="userSpaceOnUse"><stop stop-color="#CA6F5D"/><stop offset="1" stop-color="#CA6F5D" stop-opacity="0"/></linearGradient><filter id="e" x="18.979" y="4.75" width="5.5" height="5.75" filterUnits="userSpaceOnUse" color-interpolation-filters="sRGB"><feFlood flood-opacity="0" result="BackgroundImageFix"/><feBlend in="SourceGraphic" in2="BackgroundImageFix" result="shape"/><feColorMatrix in="SourceAlpha" values="0 0 0 0 0 0 0 0 0 0 0 0 0 0 0 0 0 0 127 0" result="hardAlpha"/><feOffset dy="-.25"/><feGaussianBlur stdDeviation=".25"/><feComposite in2="hardAlpha" operator="arithmetic" k2="-1" k3="1"/><feColorMatrix values="0 0 0 0 0.878326 0 0 0 0 0.567095 0 0 0 0 0.319381 0 0 0 1 0"/><feBlend in2="shape" result="effect1_innerShadow_4002_3947"/></filter><filter id="g" x="19.479" y="5.5" width="4.5" height="4.5" filterUnits="userSpaceOnUse" color-interpolation-filters="sRGB"><feFlood flood-opacity="0" result="BackgroundImageFix"/><feBlend in="SourceGraphic" in2="BackgroundImageFix" result="shape"/><feGaussianBlur stdDeviation=".25" result="effect1_foregroundBlur_4002_3947"/></filter><filter id="h" x="13.654" y="8.77" width="3.711" height="5.581" filterUnits="userSpaceOnUse" color-interpolation-filters="sRGB"><feFlood flood-opacity="0" result="BackgroundImageFix"/><feBlend in="SourceGraphic" in2="BackgroundImageFix" result="shape"/><feColorMatrix in="SourceAlpha" values="0 0 0 0 0 0 0 0 0 0 0 0 0 0 0 0 0 0 127 0" result="hardAlpha"/><feOffset dx=".2" dy="-.1"/><feGaussianBlur stdDeviation=".3"/><feComposite in2="hardAlpha" operator="arithmetic" k2="-1" k3="1"/><feColorMatrix values="0 0 0 0 0.427451 0 0 0 0 0.380392 0 0 0 0 0.478431 0 0 0 1 0"/><feBlend in2="shape" result="effect1_innerShadow_4002_3947"/><feColorMatrix in="SourceAlpha" values="0 0 0 0 0 0 0 0 0 0 0 0 0 0 0 0 0 0 127 0" result="hardAlpha"/><feOffset dx="-.1" dy=".05"/><feGaussianBlur stdDeviation=".15"/><feComposite in2="hardAlpha" operator="arithmetic" k2="-1" k3="1"/><feColorMatrix values="0 0 0 0 0.678431 0 0 0 0 0.678431 0 0 0 0 0.694118 0 0 0 1 0"/><feBlend in2="effect1_innerShadow_4002_3947" result="effect2_innerShadow_4002_3947"/></filter><filter id="j" x="10.759" y="9.25" width="4.419" height="7.014" filterUnits="userSpaceOnUse" color-interpolation-filters="sRGB"><feFlood flood-opacity="0" result="BackgroundImageFix"/><feBlend in="SourceGraphic" in2="BackgroundImageFix" result="shape"/><feColorMatrix in="SourceAlpha" values="0 0 0 0 0 0 0 0 0 0 0 0 0 0 0 0 0 0 127 0" result="hardAlpha"/><feOffset dx=".2" dy="-.1"/><feGaussianBlur stdDeviation=".3"/><feComposite in2="hardAlpha" operator="arithmetic" k2="-1" k3="1"/><feColorMatrix values="0 0 0 0 0.427451 0 0 0 0 0.380392 0 0 0 0 0.478431 0 0 0 1 0"/><feBlend in2="shape" result="effect1_innerShadow_4002_3947"/><feColorMatrix in="SourceAlpha" values="0 0 0 0 0 0 0 0 0 0 0 0 0 0 0 0 0 0 127 0" result="hardAlpha"/><feOffset dx="-.1" dy=".05"/><feGaussianBlur stdDeviation=".15"/><feComposite in2="hardAlpha" operator="arithmetic" k2="-1" k3="1"/><feColorMatrix values="0 0 0 0 0.678431 0 0 0 0 0.678431 0 0 0 0 0.694118 0 0 0 1 0"/><feBlend in2="effect1_innerShadow_4002_3947" result="effect2_innerShadow_4002_3947"/></filter><filter id="F" x="27.662" y="7.5" width="2.708" height="4.677" filterUnits="userSpaceOnUse" color-interpolation-filters="sRGB"><feFlood flood-opacity="0" result="BackgroundImageFix"/><feBlend in="SourceGraphic" in2="BackgroundImageFix" result="shape"/><feGaussianBlur stdDeviation=".25" result="effect1_foregroundBlur_4002_3947"/></filter><filter id="I" x="26.579" y="12.1" width="3.8" height="2.8" filterUnits="userSpaceOnUse" color-interpolation-filters="sRGB"><feFlood flood-opacity="0" result="BackgroundImageFix"/><feBlend in="SourceGraphic" in2="BackgroundImageFix" result="shape"/><feGaussianBlur stdDeviation=".1" result="effect1_foregroundBlur_4002_3947"/></filter><filter id="T" x="26.517" y="6.324" width="1.385" height="1.475" filterUnits="userSpaceOnUse" color-interpolation-filters="sRGB"><feFlood flood-opacity="0" result="BackgroundImageFix"/><feBlend in="SourceGraphic" in2="BackgroundImageFix" result="shape"/><feGaussianBlur stdDeviation=".1" result="effect1_foregroundBlur_4002_3947"/></filter><filter id="V" x="25.27" y="6.281" width="1.285" height="1.044" filterUnits="userSpaceOnUse" color-interpolation-filters="sRGB"><feFlood flood-opacity="0" result="BackgroundImageFix"/><feBlend in="SourceGraphic" in2="BackgroundImageFix" result="shape"/><feGaussianBlur stdDeviation=".05" result="effect1_foregroundBlur_4002_3947"/></filter><filter id="Y" x="11.229" y="9.291" width="3.936" height="6.647" filterUnits="userSpaceOnUse" color-interpolation-filters="sRGB"><feFlood flood-opacity="0" result="BackgroundImageFix"/><feBlend in="SourceGraphic" in2="BackgroundImageFix" result="shape"/><feGaussianBlur stdDeviation=".25" result="effect1_foregroundBlur_4002_3947"/></filter><filter id="Z" x="14.096" y="8.891" width="3.133" height="5.109" filterUnits="userSpaceOnUse" color-interpolation-filters="sRGB"><feFlood flood-opacity="0" result="BackgroundImageFix"/><feBlend in="SourceGraphic" in2="BackgroundImageFix" result="shape"/><feGaussianBlur stdDeviation=".25" result="effect1_foregroundBlur_4002_3947"/></filter><filter id="ad" x="23.078" y="2.397" width="4.564" height="2.664" filterUnits="userSpaceOnUse" color-interpolation-filters="sRGB"><feFlood flood-opacity="0" result="BackgroundImageFix"/><feBlend in="SourceGraphic" in2="BackgroundImageFix" result="shape"/><feColorMatrix in="SourceAlpha" values="0 0 0 0 0 0 0 0 0 0 0 0 0 0 0 0 0 0 127 0" result="hardAlpha"/><feOffset dx=".1" dy="-.25"/><feGaussianBlur stdDeviation=".25"/><feComposite in2="hardAlpha" operator="arithmetic" k2="-1" k3="1"/><feColorMatrix values="0 0 0 0 0.647059 0 0 0 0 0.231373 0 0 0 0 0.301961 0 0 0 1 0"/><feBlend in2="shape" result="effect1_innerShadow_4002_3947"/></filter><filter id="af" x="23.153" y="2.547" width="4.314" height="2.264" filterUnits="userSpaceOnUse" color-interpolation-filters="sRGB"><feFlood flood-opacity="0" result="BackgroundImageFix"/><feBlend in="SourceGraphic" in2="BackgroundImageFix" result="shape"/><feGaussianBlur stdDeviation=".25" result="effect1_foregroundBlur_4002_3947"/></filter></defs></svg>