<svg width="32" height="32" fill="none" xmlns="http://www.w3.org/2000/svg"><path d="M18.552 18.093a.715.715 0 0 1-.531-.703v-2.016c0-1.16-.905-2.097-2.026-2.097-1.12 0-2.025.936-2.025 2.097v2.016a.715.715 0 0 1-.531.703c-4.73 1.191-8.24 5.61-8.24 10.875v1.018H26.8v-1.018c0-5.264-3.51-9.684-8.25-10.875Z" fill="url(#a)"/><path d="M18.552 18.093a.715.715 0 0 1-.531-.703v-2.016c0-1.16-.905-2.097-2.026-2.097-1.12 0-2.025.936-2.025 2.097v2.016a.715.715 0 0 1-.531.703c-4.73 1.191-8.24 5.61-8.24 10.875v1.018H26.8v-1.018c0-5.264-3.51-9.684-8.25-10.875Z" fill="url(#b)"/><path d="M18.552 18.093a.715.715 0 0 1-.531-.703v-2.016c0-1.16-.905-2.097-2.026-2.097-1.12 0-2.025.936-2.025 2.097v2.016a.715.715 0 0 1-.531.703c-4.73 1.191-8.24 5.61-8.24 10.875v1.018H26.8v-1.018c0-5.264-3.51-9.684-8.25-10.875Z" fill="url(#c)"/><g filter="url(#d)"><path d="M5.494 27.244a.1.1 0 0 0 .053.105c1.522.763 3.168 1.132 4.986 1.132 5.349 0 9.887-3.85 11.04-8.847a.1.1 0 0 0-.045-.107c-.883-.525-1.797-1.001-2.822-1.25-.314-.079-.652-.132-.652-.455V15.88c0-1.118-.902-2.02-2.02-2.02-1.117 0-2.02.902-2.02 2.02v1.942c0 .323-.205.442-.519.52-4.197 1.11-7.23 4.068-8 8.902Z" fill="#514575"/></g><g filter="url(#e)"><path d="M5.246 27.237a.1.1 0 0 0 .053.105c1.552.778 3.232 1.155 5.086 1.155 5.455 0 10.083-3.928 11.26-9.023a.1.1 0 0 0-.047-.108c-.9-.535-1.833-1.021-2.88-1.275-.32-.08-.663-.134-.663-.464v-1.98c0-1.14-.92-2.06-2.06-2.06-1.14 0-2.06.92-2.06 2.06v1.98c0 .33-.21.45-.53.53-4.28 1.132-7.373 4.15-8.16 9.08Z" fill="url(#f)"/><path d="M5.246 27.237a.1.1 0 0 0 .053.105c1.552.778 3.232 1.155 5.086 1.155 5.455 0 10.083-3.928 11.26-9.023a.1.1 0 0 0-.047-.108c-.9-.535-1.833-1.021-2.88-1.275-.32-.08-.663-.134-.663-.464v-1.98c0-1.14-.92-2.06-2.06-2.06-1.14 0-2.06.92-2.06 2.06v1.98c0 .33-.21.45-.53.53-4.28 1.132-7.373 4.15-8.16 9.08Z" fill="url(#g)"/><path d="M5.246 27.237a.1.1 0 0 0 .053.105c1.552.778 3.232 1.155 5.086 1.155 5.455 0 10.083-3.928 11.26-9.023a.1.1 0 0 0-.047-.108c-.9-.535-1.833-1.021-2.88-1.275-.32-.08-.663-.134-.663-.464v-1.98c0-1.14-.92-2.06-2.06-2.06-1.14 0-2.06.92-2.06 2.06v1.98c0 .33-.21.45-.53.53-4.28 1.132-7.373 4.15-8.16 9.08Z" fill="url(#h)"/></g><path d="M5.246 27.237a.1.1 0 0 0 .053.105c1.552.778 3.232 1.155 5.086 1.155 5.455 0 10.083-3.928 11.26-9.023a.1.1 0 0 0-.047-.108c-.9-.535-1.833-1.021-2.88-1.275-.32-.08-.663-.134-.663-.464v-1.98c0-1.14-.92-2.06-2.06-2.06-1.14 0-2.06.92-2.06 2.06v1.98c0 .33-.21.45-.53.53-4.28 1.132-7.373 4.15-8.16 9.08Z" fill="url(#i)"/><path d="M16.004 22.441a5.85 5.85 0 1 0 0-11.7 5.85 5.85 0 0 0 0 11.7Z" fill="url(#j)"/><path d="M16.004 22.441a5.85 5.85 0 1 0 0-11.7 5.85 5.85 0 0 0 0 11.7Z" fill="url(#k)"/><path d="M16.004 22.441a5.85 5.85 0 1 0 0-11.7 5.85 5.85 0 0 0 0 11.7Z" fill="url(#l)"/><path d="M16.004 22.441a5.85 5.85 0 1 0 0-11.7 5.85 5.85 0 0 0 0 11.7Z" fill="url(#m)"/><path d="M16.004 22.441a5.85 5.85 0 1 0 0-11.7 5.85 5.85 0 0 0 0 11.7Z" fill="url(#n)"/><g filter="url(#o)"><path d="M17.152 6.117a2 2 0 0 0-2.36 0l-3.164 2.312a2 2 0 0 0-.82 1.615v2.234a5.164 5.164 0 0 0 10.286.662c.012-.113.02-.227.025-.343l.017-.43v-2.123a2 2 0 0 0-.82-1.615l-3.164-2.312Z" fill="url(#p)"/><path d="M17.152 6.117a2 2 0 0 0-2.36 0l-3.164 2.312a2 2 0 0 0-.82 1.615v2.234a5.164 5.164 0 0 0 10.286.662c.012-.113.02-.227.025-.343l.017-.43v-2.123a2 2 0 0 0-.82-1.615l-3.164-2.312Z" fill="url(#q)"/><path d="M17.152 6.117a2 2 0 0 0-2.36 0l-3.164 2.312a2 2 0 0 0-.82 1.615v2.234a5.164 5.164 0 0 0 10.286.662c.012-.113.02-.227.025-.343l.017-.43v-2.123a2 2 0 0 0-.82-1.615l-3.164-2.312Z" fill="url(#r)"/><path d="M17.152 6.117a2 2 0 0 0-2.36 0l-3.164 2.312a2 2 0 0 0-.82 1.615v2.234a5.164 5.164 0 0 0 10.286.662c.012-.113.02-.227.025-.343l.017-.43v-2.123a2 2 0 0 0-.82-1.615l-3.164-2.312Z" fill="url(#s)"/><path d="M17.152 6.117a2 2 0 0 0-2.36 0l-3.164 2.312a2 2 0 0 0-.82 1.615v2.234a5.164 5.164 0 0 0 10.286.662c.012-.113.02-.227.025-.343l.017-.43v-2.123a2 2 0 0 0-.82-1.615l-3.164-2.312Z" fill="url(#t)"/><path d="M17.152 6.117a2 2 0 0 0-2.36 0l-3.164 2.312a2 2 0 0 0-.82 1.615v2.234a5.164 5.164 0 0 0 10.286.662c.012-.113.02-.227.025-.343l.017-.43v-2.123a2 2 0 0 0-.82-1.615l-3.164-2.312Z" fill="url(#u)"/><path d="M17.152 6.117a2 2 0 0 0-2.36 0l-3.164 2.312a2 2 0 0 0-.82 1.615v2.234a5.164 5.164 0 0 0 10.286.662c.012-.113.02-.227.025-.343l.017-.43v-2.123a2 2 0 0 0-.82-1.615l-3.164-2.312Z" fill="url(#v)"/></g><path d="M17.152 6.117a2 2 0 0 0-2.36 0l-3.164 2.312a2 2 0 0 0-.82 1.615v2.234a5.164 5.164 0 0 0 10.286.662c.012-.113.02-.227.025-.343l.017-.43v-2.123a2 2 0 0 0-.82-1.615l-3.164-2.312Z" fill="url(#w)"/><path d="M17.152 6.117a2 2 0 0 0-2.36 0l-3.164 2.312a2 2 0 0 0-.82 1.615v2.234a5.164 5.164 0 0 0 10.286.662c.012-.113.02-.227.025-.343l.017-.43v-2.123a2 2 0 0 0-.82-1.615l-3.164-2.312Z" fill="url(#x)"/><g filter="url(#y)"><path d="m15.566 11.037-.707 1.758a.558.558 0 0 0 .538.723h.814a.56.56 0 0 0 .538-.723l-.55-1.758c-.117-.39-.51-.39-.633 0Z" fill="#C28178"/></g><g filter="url(#z)"><path d="m15.576 10.893-.55 1.759a.558.558 0 0 0 .54.723h.812a.56.56 0 0 0 .539-.723l-.55-1.758c-.118-.39-.667-.39-.79 0Z" fill="#EFB696"/><path d="m15.576 10.893-.55 1.759a.558.558 0 0 0 .54.723h.812a.56.56 0 0 0 .539-.723l-.55-1.758c-.118-.39-.667-.39-.79 0Z" fill="url(#A)"/><path d="m15.576 10.893-.55 1.759a.558.558 0 0 0 .54.723h.812a.56.56 0 0 0 .539-.723l-.55-1.758c-.118-.39-.667-.39-.79 0Z" fill="url(#B)"/><path d="m15.576 10.893-.55 1.759a.558.558 0 0 0 .54.723h.812a.56.56 0 0 0 .539-.723l-.55-1.758c-.118-.39-.667-.39-.79 0Z" fill="url(#C)"/></g><g filter="url(#D)"><path d="m15.609 10.706-.55 1.758a.558.558 0 0 0 .539.723h.813a.56.56 0 0 0 .538-.723l-.55-1.758c-.117-.39-.667-.39-.79 0Z" fill="url(#E)"/></g><g filter="url(#F)"><path d="M15.972 14.278c-.539 0-1.045-.13-1.47-.356-.146-.076-.302.092-.21.227a1.998 1.998 0 0 0 3.36 0c.092-.14-.064-.303-.21-.227a3.115 3.115 0 0 1-1.47.356Z" stroke="url(#G)" stroke-width=".2"/></g><path d="M15.972 14.278c-.539 0-1.045-.13-1.47-.356-.146-.076-.302.092-.21.227a1.998 1.998 0 0 0 3.36 0c.092-.14-.064-.303-.21-.227a3.115 3.115 0 0 1-1.47.356Z" fill="#88014E"/><g filter="url(#H)"><path d="M17.153 10.678c.275-.482.692-.864 1.59-.864.394 0 .773.11 1.11.382.278.224.24.512.025.62l-.575.328c-.674-.218-1.42-.248-2.15-.466Z" fill="#635D5F"/></g><g filter="url(#I)"><path d="M14.79 10.678c-.274-.482-.691-.864-1.59-.864-.393 0-.772.11-1.11.382-.277.224-.24.512-.025.62l.576.328c.674-.218 1.42-.248 2.15-.466Z" fill="#635D5F"/></g><g filter="url(#J)"><path d="m12.458 9.428-.005.003a.278.278 0 0 1-.285-.476l.002-.001.003-.002.01-.006a1.58 1.58 0 0 1 .153-.079c.102-.049.247-.11.424-.167a2.901 2.901 0 0 1 1.374-.113.277.277 0 1 1-.097.546c-.412-.073-.808 0-1.108.095a2.835 2.835 0 0 0-.471.2Z" fill="#9F6836"/></g><g filter="url(#K)"><path fill-rule="evenodd" clip-rule="evenodd" d="m19.832 8.955-.143.238.143-.238a.278.278 0 0 1-.285.476l-.005-.003a1.507 1.507 0 0 0-.117-.06 2.835 2.835 0 0 0-.354-.14 2.348 2.348 0 0 0-1.11-.095.277.277 0 0 1-.095-.546c.53-.094 1.022 0 1.373.113a3.389 3.389 0 0 1 .578.246l.01.006.003.002h.001Z" fill="#9F6836"/></g><path d="M18.445 9.875c.675 0 1.246.466 1.401 1.095a.284.284 0 0 1-.277.352h-2.307a.238.238 0 0 1-.235-.28 1.446 1.446 0 0 1 1.418-1.167Z" fill="#fff"/><path d="M18.23 10.156a.923.923 0 0 1 .89 1.166h-1.783a.927.927 0 0 1 .894-1.166Z" fill="url(#L)"/><path d="M17.702 11.08c0-.294.235-.53.529-.53a.526.526 0 0 1 .47.773h-.936a.48.48 0 0 1-.063-.244Z" fill="#000"/><g filter="url(#M)"><path d="M18.163 10.351c.066.088-.072.195-.228.312-.156.117-.272.2-.338.111-.066-.088.008-.254.164-.37.156-.117.336-.14.402-.053Z" fill="#C7A7A3"/><path d="M18.163 10.351c.066.088-.072.195-.228.312-.156.117-.272.2-.338.111-.066-.088.008-.254.164-.37.156-.117.336-.14.402-.053Z" fill="url(#N)"/></g><g filter="url(#O)"><path d="M19.053 10.958a.869.869 0 0 0-.24-.479l-.268.295.121.236.387-.052Z" fill="url(#P)"/></g><path d="M13.499 9.875c-.676 0-1.247.466-1.402 1.095a.283.283 0 0 0 .277.352h2.308a.238.238 0 0 0 .235-.28 1.45 1.45 0 0 0-1.418-1.167Z" fill="#fff"/><path d="M13.713 10.156a.923.923 0 0 0-.89 1.166h1.783a.946.946 0 0 0 .034-.243.93.93 0 0 0-.927-.923Z" fill="url(#Q)"/><path d="M14.241 11.08a.527.527 0 0 0-.528-.53.527.527 0 0 0-.47.773h.935a.524.524 0 0 0 .063-.244Z" fill="#000"/><g filter="url(#R)"><path d="M14.556 10.97c0-.298-.242-.497-.308-.557l-.298.289.183.373.423-.104Z" fill="url(#S)"/></g><g filter="url(#T)" transform="rotate(-27.914 13.434 10.55)"><ellipse cx="13.434" cy="10.55" rx=".403" ry=".204" fill="#C7A7A3" fill-opacity=".9"/><ellipse cx="13.434" cy="10.55" rx=".403" ry=".204" fill="url(#U)"/></g><g filter="url(#V)"><path d="M17.978 8.813c.333-.081 1.163-.04 1.718.356" stroke="#A57045" stroke-width=".2" stroke-linecap="round"/></g><g filter="url(#W)"><path d="M14.057 8.813c-.334-.081-1.163-.04-1.718.356" stroke="#A57045" stroke-width=".2" stroke-linecap="round"/></g><g filter="url(#X)"><path fill-rule="evenodd" clip-rule="evenodd" d="M10.114 4.208c2.911-2.928 8.816-2.925 11.732.007 1.235 1.39 1.415 2.897 1.415 4.125 0 .836-.055 2.784-.086 3.68-.086 3.713-2.68 7.25-7.195 7.406-5.39 0-7.137-4.914-7.195-7.414-.032-.896-.086-2.844-.086-3.68 0-1.227.18-2.734 1.415-4.124Zm4.678 1.909a2 2 0 0 1 2.36 0l3.164 2.312a2 2 0 0 1 .82 1.614v2.235a5.164 5.164 0 1 1-10.328 0v-2.235a2 2 0 0 1 .82-1.614l3.164-2.312Z" fill="url(#Y)"/></g><path fill-rule="evenodd" clip-rule="evenodd" d="M10.114 4.208c2.911-2.928 8.816-2.925 11.732.007 1.235 1.39 1.415 2.897 1.415 4.125 0 .836-.055 2.784-.086 3.68-.086 3.713-2.68 7.25-7.195 7.406-5.39 0-7.137-4.914-7.195-7.414-.032-.896-.086-2.844-.086-3.68 0-1.227.18-2.734 1.415-4.124Zm4.678 1.909a2 2 0 0 1 2.36 0l3.164 2.312a2 2 0 0 1 .82 1.614v2.235a5.164 5.164 0 1 1-10.328 0v-2.235a2 2 0 0 1 .82-1.614l3.164-2.312Z" fill="url(#Z)"/><path fill-rule="evenodd" clip-rule="evenodd" d="M10.114 4.208c2.911-2.928 8.816-2.925 11.732.007 1.235 1.39 1.415 2.897 1.415 4.125 0 .836-.055 2.784-.086 3.68-.086 3.713-2.68 7.25-7.195 7.406-5.39 0-7.137-4.914-7.195-7.414-.032-.896-.086-2.844-.086-3.68 0-1.227.18-2.734 1.415-4.124Zm4.678 1.909a2 2 0 0 1 2.36 0l3.164 2.312a2 2 0 0 1 .82 1.614v2.235a5.164 5.164 0 1 1-10.328 0v-2.235a2 2 0 0 1 .82-1.614l3.164-2.312Z" fill="url(#aa)"/><path fill-rule="evenodd" clip-rule="evenodd" d="M10.114 4.208c2.911-2.928 8.816-2.925 11.732.007 1.235 1.39 1.415 2.897 1.415 4.125 0 .836-.055 2.784-.086 3.68-.086 3.713-2.68 7.25-7.195 7.406-5.39 0-7.137-4.914-7.195-7.414-.032-.896-.086-2.844-.086-3.68 0-1.227.18-2.734 1.415-4.124Zm4.678 1.909a2 2 0 0 1 2.36 0l3.164 2.312a2 2 0 0 1 .82 1.614v2.235a5.164 5.164 0 1 1-10.328 0v-2.235a2 2 0 0 1 .82-1.614l3.164-2.312Z" fill="url(#ab)"/><path fill-rule="evenodd" clip-rule="evenodd" d="M10.114 4.208c2.911-2.928 8.816-2.925 11.732.007 1.235 1.39 1.415 2.897 1.415 4.125 0 .836-.055 2.784-.086 3.68-.086 3.713-2.68 7.25-7.195 7.406-5.39 0-7.137-4.914-7.195-7.414-.032-.896-.086-2.844-.086-3.68 0-1.227.18-2.734 1.415-4.124Zm4.678 1.909a2 2 0 0 1 2.36 0l3.164 2.312a2 2 0 0 1 .82 1.614v2.235a5.164 5.164 0 1 1-10.328 0v-2.235a2 2 0 0 1 .82-1.614l3.164-2.312Z" fill="url(#ac)"/><path fill-rule="evenodd" clip-rule="evenodd" d="M10.114 4.208c2.911-2.928 8.816-2.925 11.732.007 1.235 1.39 1.415 2.897 1.415 4.125 0 .836-.055 2.784-.086 3.68-.086 3.713-2.68 7.25-7.195 7.406-5.39 0-7.137-4.914-7.195-7.414-.032-.896-.086-2.844-.086-3.68 0-1.227.18-2.734 1.415-4.124Zm4.678 1.909a2 2 0 0 1 2.36 0l3.164 2.312a2 2 0 0 1 .82 1.614v2.235a5.164 5.164 0 1 1-10.328 0v-2.235a2 2 0 0 1 .82-1.614l3.164-2.312Z" fill="url(#ad)"/><defs><radialGradient id="a" cx="0" cy="0" r="1" gradientUnits="userSpaceOnUse" gradientTransform="matrix(-15.56254 13.4375 -17.37186 -20.1191 23.88 18.239)"><stop offset=".468" stop-color="#6E5D9B"/><stop offset="1" stop-color="#534082"/></radialGradient><radialGradient id="b" cx="0" cy="0" r="1" gradientUnits="userSpaceOnUse" gradientTransform="rotate(136.874 7.068 16.588) scale(6.07995 6.11994)"><stop stop-color="#8570B8"/><stop offset="1" stop-color="#7866A7" stop-opacity="0"/></radialGradient><radialGradient id="f" cx="0" cy="0" r="1" gradientUnits="userSpaceOnUse" gradientTransform="matrix(-8.48286 0 0 -9.81298 19.285 23.52)"><stop stop-color="#8E6BD1"/><stop offset="1" stop-color="#7050AD"/></radialGradient><radialGradient id="g" cx="0" cy="0" r="1" gradientUnits="userSpaceOnUse" gradientTransform="matrix(-12.58516 -5.40493 4.87536 -11.35207 18.377 28.834)"><stop offset=".79" stop-color="#7A65A5" stop-opacity="0"/><stop offset="1" stop-color="#7A65A5"/></radialGradient><radialGradient id="h" cx="0" cy="0" r="1" gradientUnits="userSpaceOnUse" gradientTransform="rotate(98.548 .401 14.886) scale(6.50288 6.47758)"><stop offset=".633" stop-color="#4F2E93"/><stop offset="1" stop-color="#4F2E93" stop-opacity="0"/></radialGradient><radialGradient id="i" cx="0" cy="0" r="1" gradientUnits="userSpaceOnUse" gradientTransform="matrix(10.03122 6.84374 -7.53953 11.05108 9.88 16.708)"><stop offset=".972" stop-color="#9C7ADA" stop-opacity="0"/><stop offset=".991" stop-color="#9C7ADA"/></radialGradient><radialGradient id="k" cx="0" cy="0" r="1" gradientUnits="userSpaceOnUse" gradientTransform="matrix(-4.99999 3.96877 -1.22204 -1.53957 20.535 16.989)"><stop offset=".173" stop-color="#9376CC"/><stop offset="1" stop-color="#9376CC" stop-opacity="0"/></radialGradient><radialGradient id="l" cx="0" cy="0" r="1" gradientUnits="userSpaceOnUse" gradientTransform="matrix(-6.3178 2.71017 -3.76393 -8.7743 17.228 16.591)"><stop offset=".694" stop-color="#755FA4" stop-opacity="0"/><stop offset=".928" stop-color="#755FA4"/></radialGradient><radialGradient id="m" cx="0" cy="0" r="1" gradientUnits="userSpaceOnUse" gradientTransform="matrix(0 2.81395 -5.55482 0 15.109 17.713)"><stop offset=".498" stop-color="#452686"/><stop offset="1" stop-color="#452686" stop-opacity="0"/></radialGradient><radialGradient id="n" cx="0" cy="0" r="1" gradientUnits="userSpaceOnUse" gradientTransform="matrix(0 6.86218 -8.36853 0 16.004 15.8)"><stop offset=".789" stop-color="#5C35A2" stop-opacity="0"/><stop offset="1" stop-color="#5C35A2"/></radialGradient><radialGradient id="p" cx="0" cy="0" r="1" gradientUnits="userSpaceOnUse" gradientTransform="matrix(-6.72685 3.10197 -4.15193 -9.00376 18.93 10.711)"><stop stop-color="#FFC59D"/><stop offset="1" stop-color="#D39B88"/></radialGradient><radialGradient id="q" cx="0" cy="0" r="1" gradientUnits="userSpaceOnUse" gradientTransform="rotate(152.124 7.55 7.942) scale(2.46862 2.09444)"><stop stop-color="#FFC89E"/><stop offset="1" stop-color="#FFC89E" stop-opacity="0"/></radialGradient><radialGradient id="r" cx="0" cy="0" r="1" gradientUnits="userSpaceOnUse" gradientTransform="rotate(-78.311 17.744 .44) scale(4.27261 5.42115)"><stop stop-color="#B97783"/><stop offset="1" stop-color="#B97783" stop-opacity="0"/></radialGradient><radialGradient id="s" cx="0" cy="0" r="1" gradientUnits="userSpaceOnUse" gradientTransform="matrix(-1.53466 7.02796 -9.52683 -2.08032 15.972 10.414)"><stop offset=".686" stop-color="#BD8381" stop-opacity="0"/><stop offset="1" stop-color="#B57088"/></radialGradient><radialGradient id="t" cx="0" cy="0" r="1" gradientUnits="userSpaceOnUse" gradientTransform="matrix(-5.92916 .79744 -1.37294 -10.20819 16.63 13.126)"><stop offset=".813" stop-color="#E3AB91" stop-opacity="0"/><stop offset="1" stop-color="#E3AB91"/></radialGradient><radialGradient id="u" cx="0" cy="0" r="1" gradientUnits="userSpaceOnUse" gradientTransform="matrix(0 -1.19028 1.71116 0 18.352 10.278)"><stop offset=".259" stop-color="#E3A48E"/><stop offset="1" stop-color="#E3A48E" stop-opacity="0"/></radialGradient><radialGradient id="v" cx="0" cy="0" r="1" gradientUnits="userSpaceOnUse" gradientTransform="matrix(0 -1.40669 1.61216 0 13.988 10.369)"><stop stop-color="#C2847A"/><stop offset="1" stop-color="#C2847A" stop-opacity="0"/></radialGradient><radialGradient id="w" cx="0" cy="0" r="1" gradientUnits="userSpaceOnUse" gradientTransform="matrix(-1.36509 0 0 -4.77407 21.136 11.587)"><stop stop-color="#F4C099"/><stop offset="1" stop-color="#F4C099" stop-opacity="0"/></radialGradient><radialGradient id="x" cx="0" cy="0" r="1" gradientUnits="userSpaceOnUse" gradientTransform="rotate(75.534 3.81 10.927) scale(4.69082 9.19775)"><stop stop-color="#BE7C5A"/><stop offset="1" stop-color="#BE7C5A" stop-opacity="0"/></radialGradient><radialGradient id="A" cx="0" cy="0" r="1" gradientUnits="userSpaceOnUse" gradientTransform="matrix(-.7214 -2.53384 1.4499 -.4128 16.783 12.569)"><stop offset=".017" stop-color="#FDC9A8"/><stop offset="1" stop-color="#FDC9A8" stop-opacity="0"/></radialGradient><radialGradient id="L" cx="0" cy="0" r="1" gradientUnits="userSpaceOnUse" gradientTransform="matrix(0 .83917 -1.33479 0 18.229 10.65)"><stop offset=".802" stop-color="#925C51"/><stop offset="1" stop-color="#694B43"/><stop offset="1" stop-color="#804D49"/><stop offset="1" stop-color="#85534D"/></radialGradient><radialGradient id="N" cx="0" cy="0" r="1" gradientUnits="userSpaceOnUse" gradientTransform="rotate(-127.812 11.625 .962) scale(.39127 .53869)"><stop offset=".766" stop-color="#FFE6E2" stop-opacity="0"/><stop offset=".966" stop-color="#FFE6E2"/></radialGradient><radialGradient id="Q" cx="0" cy="0" r="1" gradientUnits="userSpaceOnUse" gradientTransform="matrix(0 .83917 -1.3348 0 13.715 10.65)"><stop offset=".802" stop-color="#925C51"/><stop offset="1" stop-color="#694B43"/><stop offset="1" stop-color="#804D49"/><stop offset="1" stop-color="#85534D"/></radialGradient><radialGradient id="U" cx="0" cy="0" r="1" gradientUnits="userSpaceOnUse" gradientTransform="rotate(-90.897 12.063 -1.167) scale(.51108 .61435)"><stop offset=".766" stop-color="#FFE6E2" stop-opacity="0"/><stop offset=".966" stop-color="#FFE6E2"/></radialGradient><radialGradient id="Y" cx="0" cy="0" r="1" gradientUnits="userSpaceOnUse" gradientTransform="rotate(121.679 8.075 8.491) scale(12.0506 10.0996)"><stop stop-color="#9670D7"/><stop offset="1" stop-color="#7454AC"/></radialGradient><radialGradient id="aa" cx="0" cy="0" r="1" gradientUnits="userSpaceOnUse" gradientTransform="matrix(0 10.7879 -8.79851 0 15.98 8.638)"><stop stop-color="#573199" stop-opacity="0"/><stop offset=".866" stop-color="#573199" stop-opacity=".024"/><stop offset="1" stop-color="#573199"/></radialGradient><radialGradient id="ab" cx="0" cy="0" r="1" gradientUnits="userSpaceOnUse" gradientTransform="matrix(-5.65397 -9.37048 9.62948 -5.81025 17.124 12.45)"><stop offset=".758" stop-color="#7358A4" stop-opacity="0"/><stop offset=".994" stop-color="#7358A4"/></radialGradient><radialGradient id="ac" cx="0" cy="0" r="1" gradientUnits="userSpaceOnUse" gradientTransform="matrix(-2.79524 3.2082 -9.93816 -8.65893 21.761 3.27)"><stop offset=".125" stop-color="#A27CE3"/><stop offset="1" stop-color="#A27CE3" stop-opacity="0"/></radialGradient><filter id="d" x="5.243" y="13.61" width="16.584" height="15.121" filterUnits="userSpaceOnUse" color-interpolation-filters="sRGB"><feFlood flood-opacity="0" result="BackgroundImageFix"/><feBlend in="SourceGraphic" in2="BackgroundImageFix" result="shape"/><feGaussianBlur stdDeviation=".125" result="effect1_foregroundBlur_4002_3299"/></filter><filter id="e" x="5.145" y="13.487" width="16.502" height="15.01" filterUnits="userSpaceOnUse" color-interpolation-filters="sRGB"><feFlood flood-opacity="0" result="BackgroundImageFix"/><feBlend in="SourceGraphic" in2="BackgroundImageFix" result="shape"/><feColorMatrix in="SourceAlpha" values="0 0 0 0 0 0 0 0 0 0 0 0 0 0 0 0 0 0 127 0" result="hardAlpha"/><feOffset dx="-.1" dy="-.1"/><feGaussianBlur stdDeviation=".075"/><feComposite in2="hardAlpha" operator="arithmetic" k2="-1" k3="1"/><feColorMatrix values="0 0 0 0 0.470588 0 0 0 0 0.317647 0 0 0 0 0.745098 0 0 0 1 0"/><feBlend in2="shape" result="effect1_innerShadow_4002_3299"/></filter><filter id="o" x="10.808" y="5.732" width="10.328" height="11.96" filterUnits="userSpaceOnUse" color-interpolation-filters="sRGB"><feFlood flood-opacity="0" result="BackgroundImageFix"/><feBlend in="SourceGraphic" in2="BackgroundImageFix" result="shape"/><feColorMatrix in="SourceAlpha" values="0 0 0 0 0 0 0 0 0 0 0 0 0 0 0 0 0 0 127 0" result="hardAlpha"/><feOffset dy=".25"/><feGaussianBlur stdDeviation=".125"/><feComposite in2="hardAlpha" operator="arithmetic" k2="-1" k3="1"/><feColorMatrix values="0 0 0 0 0.745098 0 0 0 0 0.486275 0 0 0 0 0.384314 0 0 0 1 0"/><feBlend in2="shape" result="effect1_innerShadow_4002_3299"/></filter><filter id="y" x="14.333" y="10.244" width="2.942" height="3.774" filterUnits="userSpaceOnUse" color-interpolation-filters="sRGB"><feFlood flood-opacity="0" result="BackgroundImageFix"/><feBlend in="SourceGraphic" in2="BackgroundImageFix" result="shape"/><feGaussianBlur stdDeviation=".25" result="effect1_foregroundBlur_4002_3299"/></filter><filter id="z" x="14.751" y="10.351" width="2.442" height="3.274" filterUnits="userSpaceOnUse" color-interpolation-filters="sRGB"><feFlood flood-opacity="0" result="BackgroundImageFix"/><feBlend in="SourceGraphic" in2="BackgroundImageFix" result="shape"/><feGaussianBlur stdDeviation=".125" result="effect1_foregroundBlur_4002_3299"/></filter><filter id="D" x="14.784" y="10.163" width="2.442" height="3.274" filterUnits="userSpaceOnUse" color-interpolation-filters="sRGB"><feFlood flood-opacity="0" result="BackgroundImageFix"/><feBlend in="SourceGraphic" in2="BackgroundImageFix" result="shape"/><feGaussianBlur stdDeviation=".125" result="effect1_foregroundBlur_4002_3299"/></filter><filter id="F" x="14.064" y="13.703" width="3.816" height="1.565" filterUnits="userSpaceOnUse" color-interpolation-filters="sRGB"><feFlood flood-opacity="0" result="BackgroundImageFix"/><feBlend in="SourceGraphic" in2="BackgroundImageFix" result="shape"/><feGaussianBlur stdDeviation=".05" result="effect1_foregroundBlur_4002_3299"/></filter><filter id="H" x="16.953" y="9.814" width="3.098" height="1.33" filterUnits="userSpaceOnUse" color-interpolation-filters="sRGB"><feFlood flood-opacity="0" result="BackgroundImageFix"/><feBlend in="SourceGraphic" in2="BackgroundImageFix" result="shape"/><feColorMatrix in="SourceAlpha" values="0 0 0 0 0 0 0 0 0 0 0 0 0 0 0 0 0 0 127 0" result="hardAlpha"/><feOffset dx="-.2"/><feGaussianBlur stdDeviation=".2"/><feComposite in2="hardAlpha" operator="arithmetic" k2="-1" k3="1"/><feColorMatrix values="0 0 0 0 0.141176 0 0 0 0 0.0862745 0 0 0 0 0.176471 0 0 0 1 0"/><feBlend in2="shape" result="effect1_innerShadow_4002_3299"/></filter><filter id="I" x="11.893" y="9.814" width="3.098" height="1.33" filterUnits="userSpaceOnUse" color-interpolation-filters="sRGB"><feFlood flood-opacity="0" result="BackgroundImageFix"/><feBlend in="SourceGraphic" in2="BackgroundImageFix" result="shape"/><feColorMatrix in="SourceAlpha" values="0 0 0 0 0 0 0 0 0 0 0 0 0 0 0 0 0 0 127 0" result="hardAlpha"/><feOffset dx=".2"/><feGaussianBlur stdDeviation=".125"/><feComposite in2="hardAlpha" operator="arithmetic" k2="-1" k3="1"/><feColorMatrix values="0 0 0 0 0.133333 0 0 0 0 0.0784314 0 0 0 0 0.168627 0 0 0 1 0"/><feBlend in2="shape" result="effect1_innerShadow_4002_3299"/></filter><filter id="J" x="12.033" y="8.349" width="2.53" height="1.122" filterUnits="userSpaceOnUse" color-interpolation-filters="sRGB"><feFlood flood-opacity="0" result="BackgroundImageFix"/><feBlend in="SourceGraphic" in2="BackgroundImageFix" result="shape"/><feColorMatrix in="SourceAlpha" values="0 0 0 0 0 0 0 0 0 0 0 0 0 0 0 0 0 0 127 0" result="hardAlpha"/><feOffset dx=".2" dy="-.2"/><feGaussianBlur stdDeviation=".15"/><feComposite in2="hardAlpha" operator="arithmetic" k2="-1" k3="1"/><feColorMatrix values="0 0 0 0 0.47451 0 0 0 0 0.262745 0 0 0 0 0.164706 0 0 0 1 0"/><feBlend in2="shape" result="effect1_innerShadow_4002_3299"/></filter><filter id="K" x="17.636" y="8.349" width="2.53" height="1.122" filterUnits="userSpaceOnUse" color-interpolation-filters="sRGB"><feFlood flood-opacity="0" result="BackgroundImageFix"/><feBlend in="SourceGraphic" in2="BackgroundImageFix" result="shape"/><feColorMatrix in="SourceAlpha" values="0 0 0 0 0 0 0 0 0 0 0 0 0 0 0 0 0 0 127 0" result="hardAlpha"/><feOffset dx=".2" dy="-.2"/><feGaussianBlur stdDeviation=".15"/><feComposite in2="hardAlpha" operator="arithmetic" k2="-1" k3="1"/><feColorMatrix values="0 0 0 0 0.47451 0 0 0 0 0.262745 0 0 0 0 0.164706 0 0 0 1 0"/><feBlend in2="shape" result="effect1_innerShadow_4002_3299"/></filter><filter id="M" x="17.473" y="10.198" width=".807" height=".713" filterUnits="userSpaceOnUse" color-interpolation-filters="sRGB"><feFlood flood-opacity="0" result="BackgroundImageFix"/><feBlend in="SourceGraphic" in2="BackgroundImageFix" result="shape"/><feGaussianBlur stdDeviation=".05" result="effect1_foregroundBlur_4002_3299"/></filter><filter id="O" x="18.345" y="10.279" width=".908" height=".931" filterUnits="userSpaceOnUse" color-interpolation-filters="sRGB"><feFlood flood-opacity="0" result="BackgroundImageFix"/><feBlend in="SourceGraphic" in2="BackgroundImageFix" result="shape"/><feGaussianBlur stdDeviation=".1" result="effect1_foregroundBlur_4002_3299"/></filter><filter id="R" x="13.75" y="10.213" width="1.006" height="1.062" filterUnits="userSpaceOnUse" color-interpolation-filters="sRGB"><feFlood flood-opacity="0" result="BackgroundImageFix"/><feBlend in="SourceGraphic" in2="BackgroundImageFix" result="shape"/><feGaussianBlur stdDeviation=".1" result="effect1_foregroundBlur_4002_3299"/></filter><filter id="T" x="12.966" y="10.19" width=".938" height=".722" filterUnits="userSpaceOnUse" color-interpolation-filters="sRGB"><feFlood flood-opacity="0" result="BackgroundImageFix"/><feBlend in="SourceGraphic" in2="BackgroundImageFix" result="shape"/><feGaussianBlur stdDeviation=".05" result="effect1_foregroundBlur_4002_3299"/></filter><filter id="V" x="17.678" y="8.478" width="2.318" height=".991" filterUnits="userSpaceOnUse" color-interpolation-filters="sRGB"><feFlood flood-opacity="0" result="BackgroundImageFix"/><feBlend in="SourceGraphic" in2="BackgroundImageFix" result="shape"/><feGaussianBlur stdDeviation=".1" result="effect1_foregroundBlur_4002_3299"/></filter><filter id="W" x="12.039" y="8.478" width="2.318" height=".991" filterUnits="userSpaceOnUse" color-interpolation-filters="sRGB"><feFlood flood-opacity="0" result="BackgroundImageFix"/><feBlend in="SourceGraphic" in2="BackgroundImageFix" result="shape"/><feGaussianBlur stdDeviation=".1" result="effect1_foregroundBlur_4002_3299"/></filter><filter id="X" x="8.549" y="1.764" width="15.212" height="17.812" filterUnits="userSpaceOnUse" color-interpolation-filters="sRGB"><feFlood flood-opacity="0" result="BackgroundImageFix"/><feBlend in="SourceGraphic" in2="BackgroundImageFix" result="shape"/><feColorMatrix in="SourceAlpha" values="0 0 0 0 0 0 0 0 0 0 0 0 0 0 0 0 0 0 127 0" result="hardAlpha"/><feOffset dx=".5" dy="-.25"/><feGaussianBlur stdDeviation=".3"/><feComposite in2="hardAlpha" operator="arithmetic" k2="-1" k3="1"/><feColorMatrix values="0 0 0 0 0.45098 0 0 0 0 0.258824 0 0 0 0 0.631373 0 0 0 1 0"/><feBlend in2="shape" result="effect1_innerShadow_4002_3299"/><feColorMatrix in="SourceAlpha" values="0 0 0 0 0 0 0 0 0 0 0 0 0 0 0 0 0 0 127 0" result="hardAlpha"/><feOffset dx="-.15" dy=".15"/><feGaussianBlur stdDeviation=".25"/><feComposite in2="hardAlpha" operator="arithmetic" k2="-1" k3="1"/><feColorMatrix values="0 0 0 0 0.380392 0 0 0 0 0.196078 0 0 0 0 0.482353 0 0 0 1 0"/><feBlend in2="effect1_innerShadow_4002_3299" result="effect2_innerShadow_4002_3299"/></filter><linearGradient id="c" x1="5.561" y1="29.986" x2="7.848" y2="29.986" gradientUnits="userSpaceOnUse"><stop stop-color="#655B83"/><stop offset="1" stop-color="#655B83" stop-opacity="0"/></linearGradient><linearGradient id="j" x1="20.567" y1="17.52" x2="12.504" y2="20.926" gradientUnits="userSpaceOnUse"><stop stop-color="#8966C9"/><stop offset="1" stop-color="#60429A"/></linearGradient><linearGradient id="B" x1="14.889" y1="12.587" x2="15.773" y2="12.695" gradientUnits="userSpaceOnUse"><stop stop-color="#D1987A"/><stop offset="1" stop-color="#D1987A" stop-opacity="0"/></linearGradient><linearGradient id="C" x1="15.972" y1="13.47" x2="15.972" y2="12.839" gradientUnits="userSpaceOnUse"><stop stop-color="#C57F82"/><stop offset="1" stop-color="#C57F82" stop-opacity="0"/></linearGradient><linearGradient id="E" x1="16.004" y1="10.413" x2="16.004" y2="12.171" gradientUnits="userSpaceOnUse"><stop stop-color="#F1B897"/><stop offset="1" stop-color="#F1B897" stop-opacity="0"/></linearGradient><linearGradient id="G" x1="15.218" y1="14.998" x2="15.686" y2="14.096" gradientUnits="userSpaceOnUse"><stop stop-color="#D8A29E"/><stop offset="1" stop-color="#D8A29E" stop-opacity="0"/></linearGradient><linearGradient id="P" x1="19.034" y1="10.705" x2="18.709" y2="10.905" gradientUnits="userSpaceOnUse"><stop stop-color="#B4948D"/><stop offset="1" stop-color="#B4948D" stop-opacity="0"/></linearGradient><linearGradient id="S" x1="14.484" y1="10.705" x2="14.16" y2="10.905" gradientUnits="userSpaceOnUse"><stop stop-color="#B4948D"/><stop offset="1" stop-color="#B4948D" stop-opacity="0"/></linearGradient><linearGradient id="Z" x1="23.261" y1="12.609" x2="21.888" y2="12.609" gradientUnits="userSpaceOnUse"><stop stop-color="#906CCF"/><stop offset="1" stop-color="#906CCF" stop-opacity="0"/></linearGradient><linearGradient id="ad" x1="8.699" y1="11.656" x2="10.294" y2="11.592" gradientUnits="userSpaceOnUse"><stop stop-color="#755DA5"/><stop offset="1" stop-color="#755DA5" stop-opacity="0"/></linearGradient></defs></svg>