<svg width="32" height="32" fill="none" xmlns="http://www.w3.org/2000/svg"><g filter="url(#a)" fill-rule="evenodd" clip-rule="evenodd"><path d="M29.566 21.028a6.045 6.045 0 0 0 .604-2.66c0-.871-.18-1.689-.5-2.434h.009a5.936 5.936 0 0 0-.524-.957l-.004-.005a6.04 6.04 0 0 1-.981-3.302v-.02a6.152 6.152 0 0 0-6.151-6.15c-.34 0-.66-.15-.85-.434a6.163 6.163 0 0 0-5-2.566 6.163 6.163 0 0 0-5 2.566c-.188.264-.509.434-.849.434-.053 0-.105 0-.158.002a6.152 6.152 0 0 0-5.992 6.149v.019c0 1.17-.34 2.32-.982 3.302l-.004.007a6.151 6.151 0 0 0-1.014 3.389c0 .962.226 1.849.604 2.66a.96.96 0 0 1 0 .85A6.085 6.085 0 0 0 2.17 24.5c0 3.32 2.679 6 6 6h16c3.32 0 6-2.68 6-6 0-.943-.227-1.83-.604-2.623a.96.96 0 0 1 0-.849ZM6.708 16.046h-.023l2.235 4.392c.23 5.225 2.269 0 7.25 0 4.98 0 7.152 5.815 7.382.59l1.47-5.81c-.1-2.32-1.134-2.634-1.47-2.634H17.55a7.201 7.201 0 0 1-5.946-3.12.492.492 0 0 0-.86.095l-.154.362a4.296 4.296 0 0 1-2.218 2.301c-.028.01-.062.024-.095.038-.034.015-.067.029-.096.038-.44.229-1.472.913-1.51 2.683l.019.57.019.495Z" fill="url(#b)"/><path d="M29.566 21.028a6.045 6.045 0 0 0 .604-2.66c0-.871-.18-1.689-.5-2.434h.009a5.936 5.936 0 0 0-.524-.957l-.004-.005a6.04 6.04 0 0 1-.981-3.302v-.02a6.152 6.152 0 0 0-6.151-6.15c-.34 0-.66-.15-.85-.434a6.163 6.163 0 0 0-5-2.566 6.163 6.163 0 0 0-5 2.566c-.188.264-.509.434-.849.434-.053 0-.105 0-.158.002a6.152 6.152 0 0 0-5.992 6.149v.019c0 1.17-.34 2.32-.982 3.302l-.004.007a6.151 6.151 0 0 0-1.014 3.389c0 .962.226 1.849.604 2.66a.96.96 0 0 1 0 .85A6.085 6.085 0 0 0 2.17 24.5c0 3.32 2.679 6 6 6h16c3.32 0 6-2.68 6-6 0-.943-.227-1.83-.604-2.623a.96.96 0 0 1 0-.849ZM6.708 16.046h-.023l2.235 4.392c.23 5.225 2.269 0 7.25 0 4.98 0 7.152 5.815 7.382.59l1.47-5.81c-.1-2.32-1.134-2.634-1.47-2.634H17.55a7.201 7.201 0 0 1-5.946-3.12.492.492 0 0 0-.86.095l-.154.362a4.296 4.296 0 0 1-2.218 2.301c-.028.01-.062.024-.095.038-.034.015-.067.029-.096.038-.44.229-1.472.913-1.51 2.683l.019.57.019.495Z" fill="url(#c)"/><path d="M29.566 21.028a6.045 6.045 0 0 0 .604-2.66c0-.871-.18-1.689-.5-2.434h.009a5.936 5.936 0 0 0-.524-.957l-.004-.005a6.04 6.04 0 0 1-.981-3.302v-.02a6.152 6.152 0 0 0-6.151-6.15c-.34 0-.66-.15-.85-.434a6.163 6.163 0 0 0-5-2.566 6.163 6.163 0 0 0-5 2.566c-.188.264-.509.434-.849.434-.053 0-.105 0-.158.002a6.152 6.152 0 0 0-5.992 6.149v.019c0 1.17-.34 2.32-.982 3.302l-.004.007a6.151 6.151 0 0 0-1.014 3.389c0 .962.226 1.849.604 2.66a.96.96 0 0 1 0 .85A6.085 6.085 0 0 0 2.17 24.5c0 3.32 2.679 6 6 6h16c3.32 0 6-2.68 6-6 0-.943-.227-1.83-.604-2.623a.96.96 0 0 1 0-.849ZM6.708 16.046h-.023l2.235 4.392c.23 5.225 2.269 0 7.25 0 4.98 0 7.152 5.815 7.382.59l1.47-5.81c-.1-2.32-1.134-2.634-1.47-2.634H17.55a7.201 7.201 0 0 1-5.946-3.12.492.492 0 0 0-.86.095l-.154.362a4.296 4.296 0 0 1-2.218 2.301c-.028.01-.062.024-.095.038-.034.015-.067.029-.096.038-.44.229-1.472.913-1.51 2.683l.019.57.019.495Z" fill="url(#d)"/><path d="M29.566 21.028a6.045 6.045 0 0 0 .604-2.66c0-.871-.18-1.689-.5-2.434h.009a5.936 5.936 0 0 0-.524-.957l-.004-.005a6.04 6.04 0 0 1-.981-3.302v-.02a6.152 6.152 0 0 0-6.151-6.15c-.34 0-.66-.15-.85-.434a6.163 6.163 0 0 0-5-2.566 6.163 6.163 0 0 0-5 2.566c-.188.264-.509.434-.849.434-.053 0-.105 0-.158.002a6.152 6.152 0 0 0-5.992 6.149v.019c0 1.17-.34 2.32-.982 3.302l-.004.007a6.151 6.151 0 0 0-1.014 3.389c0 .962.226 1.849.604 2.66a.96.96 0 0 1 0 .85A6.085 6.085 0 0 0 2.17 24.5c0 3.32 2.679 6 6 6h16c3.32 0 6-2.68 6-6 0-.943-.227-1.83-.604-2.623a.96.96 0 0 1 0-.849ZM6.708 16.046h-.023l2.235 4.392c.23 5.225 2.269 0 7.25 0 4.98 0 7.152 5.815 7.382.59l1.47-5.81c-.1-2.32-1.134-2.634-1.47-2.634H17.55a7.201 7.201 0 0 1-5.946-3.12.492.492 0 0 0-.86.095l-.154.362a4.296 4.296 0 0 1-2.218 2.301c-.028.01-.062.024-.095.038-.034.015-.067.029-.096.038-.44.229-1.472.913-1.51 2.683l.019.57.019.495Z" fill="url(#e)"/><path d="M29.566 21.028a6.045 6.045 0 0 0 .604-2.66c0-.871-.18-1.689-.5-2.434h.009a5.936 5.936 0 0 0-.524-.957l-.004-.005a6.04 6.04 0 0 1-.981-3.302v-.02a6.152 6.152 0 0 0-6.151-6.15c-.34 0-.66-.15-.85-.434a6.163 6.163 0 0 0-5-2.566 6.163 6.163 0 0 0-5 2.566c-.188.264-.509.434-.849.434-.053 0-.105 0-.158.002a6.152 6.152 0 0 0-5.992 6.149v.019c0 1.17-.34 2.32-.982 3.302l-.004.007a6.151 6.151 0 0 0-1.014 3.389c0 .962.226 1.849.604 2.66a.96.96 0 0 1 0 .85A6.085 6.085 0 0 0 2.17 24.5c0 3.32 2.679 6 6 6h16c3.32 0 6-2.68 6-6 0-.943-.227-1.83-.604-2.623a.96.96 0 0 1 0-.849ZM6.708 16.046h-.023l2.235 4.392c.23 5.225 2.269 0 7.25 0 4.98 0 7.152 5.815 7.382.59l1.47-5.81c-.1-2.32-1.134-2.634-1.47-2.634H17.55a7.201 7.201 0 0 1-5.946-3.12.492.492 0 0 0-.86.095l-.154.362a4.296 4.296 0 0 1-2.218 2.301c-.028.01-.062.024-.095.038-.034.015-.067.029-.096.038-.44.229-1.472.913-1.51 2.683l.019.57.019.495Z" fill="url(#f)"/><path d="M29.566 21.028a6.045 6.045 0 0 0 .604-2.66c0-.871-.18-1.689-.5-2.434h.009a5.936 5.936 0 0 0-.524-.957l-.004-.005a6.04 6.04 0 0 1-.981-3.302v-.02a6.152 6.152 0 0 0-6.151-6.15c-.34 0-.66-.15-.85-.434a6.163 6.163 0 0 0-5-2.566 6.163 6.163 0 0 0-5 2.566c-.188.264-.509.434-.849.434-.053 0-.105 0-.158.002a6.152 6.152 0 0 0-5.992 6.149v.019c0 1.17-.34 2.32-.982 3.302l-.004.007a6.151 6.151 0 0 0-1.014 3.389c0 .962.226 1.849.604 2.66a.96.96 0 0 1 0 .85A6.085 6.085 0 0 0 2.17 24.5c0 3.32 2.679 6 6 6h16c3.32 0 6-2.68 6-6 0-.943-.227-1.83-.604-2.623a.96.96 0 0 1 0-.849ZM6.708 16.046h-.023l2.235 4.392c.23 5.225 2.269 0 7.25 0 4.98 0 7.152 5.815 7.382.59l1.47-5.81c-.1-2.32-1.134-2.634-1.47-2.634H17.55a7.201 7.201 0 0 1-5.946-3.12.492.492 0 0 0-.86.095l-.154.362a4.296 4.296 0 0 1-2.218 2.301c-.028.01-.062.024-.095.038-.034.015-.067.029-.096.038-.44.229-1.472.913-1.51 2.683l.019.57.019.495Z" fill="url(#g)"/><path d="M29.566 21.028a6.045 6.045 0 0 0 .604-2.66c0-.871-.18-1.689-.5-2.434h.009a5.936 5.936 0 0 0-.524-.957l-.004-.005a6.04 6.04 0 0 1-.981-3.302v-.02a6.152 6.152 0 0 0-6.151-6.15c-.34 0-.66-.15-.85-.434a6.163 6.163 0 0 0-5-2.566 6.163 6.163 0 0 0-5 2.566c-.188.264-.509.434-.849.434-.053 0-.105 0-.158.002a6.152 6.152 0 0 0-5.992 6.149v.019c0 1.17-.34 2.32-.982 3.302l-.004.007a6.151 6.151 0 0 0-1.014 3.389c0 .962.226 1.849.604 2.66a.96.96 0 0 1 0 .85A6.085 6.085 0 0 0 2.17 24.5c0 3.32 2.679 6 6 6h16c3.32 0 6-2.68 6-6 0-.943-.227-1.83-.604-2.623a.96.96 0 0 1 0-.849ZM6.708 16.046h-.023l2.235 4.392c.23 5.225 2.269 0 7.25 0 4.98 0 7.152 5.815 7.382.59l1.47-5.81c-.1-2.32-1.134-2.634-1.47-2.634H17.55a7.201 7.201 0 0 1-5.946-3.12.492.492 0 0 0-.86.095l-.154.362a4.296 4.296 0 0 1-2.218 2.301c-.028.01-.062.024-.095.038-.034.015-.067.029-.096.038-.44.229-1.472.913-1.51 2.683l.019.57.019.495Z" fill="url(#h)"/><path d="M29.566 21.028a6.045 6.045 0 0 0 .604-2.66c0-.871-.18-1.689-.5-2.434h.009a5.936 5.936 0 0 0-.524-.957l-.004-.005a6.04 6.04 0 0 1-.981-3.302v-.02a6.152 6.152 0 0 0-6.151-6.15c-.34 0-.66-.15-.85-.434a6.163 6.163 0 0 0-5-2.566 6.163 6.163 0 0 0-5 2.566c-.188.264-.509.434-.849.434-.053 0-.105 0-.158.002a6.152 6.152 0 0 0-5.992 6.149v.019c0 1.17-.34 2.32-.982 3.302l-.004.007a6.151 6.151 0 0 0-1.014 3.389c0 .962.226 1.849.604 2.66a.96.96 0 0 1 0 .85A6.085 6.085 0 0 0 2.17 24.5c0 3.32 2.679 6 6 6h16c3.32 0 6-2.68 6-6 0-.943-.227-1.83-.604-2.623a.96.96 0 0 1 0-.849ZM6.708 16.046h-.023l2.235 4.392c.23 5.225 2.269 0 7.25 0 4.98 0 7.152 5.815 7.382.59l1.47-5.81c-.1-2.32-1.134-2.634-1.47-2.634H17.55a7.201 7.201 0 0 1-5.946-3.12.492.492 0 0 0-.86.095l-.154.362a4.296 4.296 0 0 1-2.218 2.301c-.028.01-.062.024-.095.038-.034.015-.067.029-.096.038-.44.229-1.472.913-1.51 2.683l.019.57.019.495Z" fill="url(#i)"/></g><path fill-rule="evenodd" clip-rule="evenodd" d="M29.566 21.028a6.045 6.045 0 0 0 .604-2.66c0-.871-.18-1.689-.5-2.434h.009a5.936 5.936 0 0 0-.524-.957l-.004-.005a6.04 6.04 0 0 1-.981-3.302v-.02a6.152 6.152 0 0 0-6.151-6.15c-.34 0-.66-.15-.85-.434a6.163 6.163 0 0 0-5-2.566 6.163 6.163 0 0 0-5 2.566c-.188.264-.509.434-.849.434-.053 0-.105 0-.158.002a6.152 6.152 0 0 0-5.992 6.149v.019c0 1.17-.34 2.32-.982 3.302l-.004.007a6.151 6.151 0 0 0-1.014 3.389c0 .962.226 1.849.604 2.66a.96.96 0 0 1 0 .85A6.085 6.085 0 0 0 2.17 24.5c0 3.32 2.679 6 6 6h16c3.32 0 6-2.68 6-6 0-.943-.227-1.83-.604-2.623a.96.96 0 0 1 0-.849ZM6.708 16.046h-.023l2.235 4.392c.23 5.225 2.269 0 7.25 0 4.98 0 7.152 5.815 7.382.59l2.118-5.96c-.1-2.321-1.782-2.484-2.118-2.484H17.55a7.201 7.201 0 0 1-5.946-3.12.492.492 0 0 0-.86.095l-.154.362a4.296 4.296 0 0 1-2.218 2.301c-.028.01-.062.024-.095.038-.034.015-.067.029-.096.038-.44.229-1.472.913-1.51 2.683l.019.57.019.495Z" fill="url(#j)"/><path fill-rule="evenodd" clip-rule="evenodd" d="M29.566 21.028a6.045 6.045 0 0 0 .604-2.66c0-.871-.18-1.689-.5-2.434h.009a5.936 5.936 0 0 0-.524-.957l-.004-.005a6.04 6.04 0 0 1-.981-3.302v-.02a6.152 6.152 0 0 0-6.151-6.15c-.34 0-.66-.15-.85-.434a6.163 6.163 0 0 0-5-2.566 6.163 6.163 0 0 0-5 2.566c-.188.264-.509.434-.849.434-.053 0-.105 0-.158.002a6.152 6.152 0 0 0-5.992 6.149v.019c0 1.17-.34 2.32-.982 3.302l-.004.007a6.151 6.151 0 0 0-1.014 3.389c0 .962.226 1.849.604 2.66a.96.96 0 0 1 0 .85A6.085 6.085 0 0 0 2.17 24.5c0 3.32 2.679 6 6 6h16c3.32 0 6-2.68 6-6 0-.943-.227-1.83-.604-2.623a.96.96 0 0 1 0-.849ZM6.708 16.046h-.023l2.235 4.392c.23 5.225 2.269 0 7.25 0 4.98 0 7.152 5.815 7.382.59l2.118-5.96c-.1-2.321-1.782-2.484-2.118-2.484H17.55a7.201 7.201 0 0 1-5.946-3.12.492.492 0 0 0-.86.095l-.154.362a4.296 4.296 0 0 1-2.218 2.301c-.028.01-.062.024-.095.038-.034.015-.067.029-.096.038-.44.229-1.472.913-1.51 2.683l.019.57.019.495Z" fill="url(#k)"/><path fill-rule="evenodd" clip-rule="evenodd" d="M29.566 21.028a6.045 6.045 0 0 0 .604-2.66c0-.871-.18-1.689-.5-2.434h.009a5.936 5.936 0 0 0-.524-.957l-.004-.005a6.04 6.04 0 0 1-.981-3.302v-.02a6.152 6.152 0 0 0-6.151-6.15c-.34 0-.66-.15-.85-.434a6.163 6.163 0 0 0-5-2.566 6.163 6.163 0 0 0-5 2.566c-.188.264-.509.434-.849.434-.053 0-.105 0-.158.002a6.152 6.152 0 0 0-5.992 6.149v.019c0 1.17-.34 2.32-.982 3.302l-.004.007a6.151 6.151 0 0 0-1.014 3.389c0 .962.226 1.849.604 2.66a.96.96 0 0 1 0 .85A6.085 6.085 0 0 0 2.17 24.5c0 3.32 2.679 6 6 6h16c3.32 0 6-2.68 6-6 0-.943-.227-1.83-.604-2.623a.96.96 0 0 1 0-.849ZM6.708 16.046h-.023l2.235 4.392c.23 5.225 2.269 0 7.25 0 4.98 0 7.152 5.815 7.382.59l2.118-5.96c-.1-2.321-1.782-2.484-2.118-2.484H17.55a7.201 7.201 0 0 1-5.946-3.12.492.492 0 0 0-.86.095l-.154.362a4.296 4.296 0 0 1-2.218 2.301c-.028.01-.062.024-.095.038-.034.015-.067.029-.096.038-.44.229-1.472.913-1.51 2.683l.019.57.019.495Z" fill="url(#l)"/><g filter="url(#m)"><path d="M7.434 21.4a3 3 0 1 0 0-6 3 3 0 0 0 0 6Z" fill="url(#n)"/></g><path d="M7.434 21.4a3 3 0 1 0 0-6 3 3 0 0 0 0 6Z" fill="url(#o)"/><g filter="url(#p)"><path d="M25.17 21.4a3 3 0 1 0 0-6 3 3 0 0 0 0 6Z" fill="url(#q)"/><path d="M25.17 21.4a3 3 0 1 0 0-6 3 3 0 0 0 0 6Z" fill="url(#r)"/></g><g filter="url(#s)"><path d="M25.17 20.402a2.003 2.003 0 1 0 0-4.005 2.003 2.003 0 0 0 0 4.006Z" fill="#B38574"/><path d="M25.17 20.402a2.003 2.003 0 1 0 0-4.005 2.003 2.003 0 0 0 0 4.006Z" fill="url(#t)"/></g><g filter="url(#u)"><path d="M7.47 20.402a2.003 2.003 0 1 0 0-4.005 2.003 2.003 0 0 0 0 4.006Z" fill="#7E555A"/><path d="M7.47 20.402a2.003 2.003 0 1 0 0-4.005 2.003 2.003 0 0 0 0 4.006Z" fill="url(#v)"/></g><g filter="url(#w)"><path d="M6.685 16.046h.023l-.02-.495-.018-.57c.038-1.77 1.07-2.454 1.51-2.683.029-.01.062-.023.096-.038.033-.014.067-.028.095-.038a4.296 4.296 0 0 0 2.218-2.301l.153-.362a.492.492 0 0 1 .86-.095 7.201 7.201 0 0 0 5.947 3.12h6.003c.336 0 2.018.163 2.118 2.484l-.222 5.729c-.23 5.225-4.31 8.733-9.29 8.733-4.981 0-9.061-3.508-9.291-8.733l-.182-4.751Z" fill="url(#x)"/><path d="M6.685 16.046h.023l-.02-.495-.018-.57c.038-1.77 1.07-2.454 1.51-2.683.029-.01.062-.023.096-.038.033-.014.067-.028.095-.038a4.296 4.296 0 0 0 2.218-2.301l.153-.362a.492.492 0 0 1 .86-.095 7.201 7.201 0 0 0 5.947 3.12h6.003c.336 0 2.018.163 2.118 2.484l-.222 5.729c-.23 5.225-4.31 8.733-9.29 8.733-4.981 0-9.061-3.508-9.291-8.733l-.182-4.751Z" fill="url(#y)"/><path d="M6.685 16.046h.023l-.02-.495-.018-.57c.038-1.77 1.07-2.454 1.51-2.683.029-.01.062-.023.096-.038.033-.014.067-.028.095-.038a4.296 4.296 0 0 0 2.218-2.301l.153-.362a.492.492 0 0 1 .86-.095 7.201 7.201 0 0 0 5.947 3.12h6.003c.336 0 2.018.163 2.118 2.484l-.222 5.729c-.23 5.225-4.31 8.733-9.29 8.733-4.981 0-9.061-3.508-9.291-8.733l-.182-4.751Z" fill="url(#z)"/><path d="M6.685 16.046h.023l-.02-.495-.018-.57c.038-1.77 1.07-2.454 1.51-2.683.029-.01.062-.023.096-.038.033-.014.067-.028.095-.038a4.296 4.296 0 0 0 2.218-2.301l.153-.362a.492.492 0 0 1 .86-.095 7.201 7.201 0 0 0 5.947 3.12h6.003c.336 0 2.018.163 2.118 2.484l-.222 5.729c-.23 5.225-4.31 8.733-9.29 8.733-4.981 0-9.061-3.508-9.291-8.733l-.182-4.751Z" fill="url(#A)"/><path d="M6.685 16.046h.023l-.02-.495-.018-.57c.038-1.77 1.07-2.454 1.51-2.683.029-.01.062-.023.096-.038.033-.014.067-.028.095-.038a4.296 4.296 0 0 0 2.218-2.301l.153-.362a.492.492 0 0 1 .86-.095 7.201 7.201 0 0 0 5.947 3.12h6.003c.336 0 2.018.163 2.118 2.484l-.222 5.729c-.23 5.225-4.31 8.733-9.29 8.733-4.981 0-9.061-3.508-9.291-8.733l-.182-4.751Z" fill="url(#B)"/><path d="M6.685 16.046h.023l-.02-.495-.018-.57c.038-1.77 1.07-2.454 1.51-2.683.029-.01.062-.023.096-.038.033-.014.067-.028.095-.038a4.296 4.296 0 0 0 2.218-2.301l.153-.362a.492.492 0 0 1 .86-.095 7.201 7.201 0 0 0 5.947 3.12h6.003c.336 0 2.018.163 2.118 2.484l-.222 5.729c-.23 5.225-4.31 8.733-9.29 8.733-4.981 0-9.061-3.508-9.291-8.733l-.182-4.751Z" fill="url(#C)"/><path d="M6.685 16.046h.023l-.02-.495-.018-.57c.038-1.77 1.07-2.454 1.51-2.683.029-.01.062-.023.096-.038.033-.014.067-.028.095-.038a4.296 4.296 0 0 0 2.218-2.301l.153-.362a.492.492 0 0 1 .86-.095 7.201 7.201 0 0 0 5.947 3.12h6.003c.336 0 2.018.163 2.118 2.484l-.222 5.729c-.23 5.225-4.31 8.733-9.29 8.733-4.981 0-9.061-3.508-9.291-8.733l-.182-4.751Z" fill="url(#D)"/><path d="M6.685 16.046h.023l-.02-.495-.018-.57c.038-1.77 1.07-2.454 1.51-2.683.029-.01.062-.023.096-.038.033-.014.067-.028.095-.038a4.296 4.296 0 0 0 2.218-2.301l.153-.362a.492.492 0 0 1 .86-.095 7.201 7.201 0 0 0 5.947 3.12h6.003c.336 0 2.018.163 2.118 2.484l-.222 5.729c-.23 5.225-4.31 8.733-9.29 8.733-4.981 0-9.061-3.508-9.291-8.733l-.182-4.751Z" fill="url(#E)"/><path d="M6.685 16.046h.023l-.02-.495-.018-.57c.038-1.77 1.07-2.454 1.51-2.683.029-.01.062-.023.096-.038.033-.014.067-.028.095-.038a4.296 4.296 0 0 0 2.218-2.301l.153-.362a.492.492 0 0 1 .86-.095 7.201 7.201 0 0 0 5.947 3.12h6.003c.336 0 2.018.163 2.118 2.484l-.222 5.729c-.23 5.225-4.31 8.733-9.29 8.733-4.981 0-9.061-3.508-9.291-8.733l-.182-4.751Z" fill="url(#F)"/></g><path d="M6.685 16.046h.023l-.02-.495-.018-.57c.038-1.77 1.07-2.454 1.51-2.683.029-.01.062-.023.096-.038.033-.014.067-.028.095-.038a4.296 4.296 0 0 0 2.218-2.301l.153-.362a.492.492 0 0 1 .86-.095 7.201 7.201 0 0 0 5.947 3.12h6.003c.336 0 2.018.163 2.118 2.484l-.222 5.729c-.23 5.225-4.31 8.733-9.29 8.733-4.981 0-9.061-3.508-9.291-8.733l-.182-4.751Z" fill="url(#G)"/><g filter="url(#H)"><path d="m15.438 17.985-1.274 3.17a1.005 1.005 0 0 0 .97 1.303H16.6c.688 0 1.173-.662.97-1.304l-.99-3.17c-.212-.701-.92-.701-1.142 0Z" fill="#88555F"/></g><g filter="url(#I)"><path d="m15.457 17.727-.99 3.169a1.005 1.005 0 0 0 .97 1.304h1.466c.687 0 1.173-.662.97-1.304l-.99-3.17c-.213-.702-1.204-.702-1.426 0Z" fill="#B38578"/><path d="m15.457 17.727-.99 3.169a1.005 1.005 0 0 0 .97 1.304h1.466c.687 0 1.173-.662.97-1.304l-.99-3.17c-.213-.702-1.204-.702-1.426 0Z" fill="url(#J)"/><path d="m15.457 17.727-.99 3.169a1.005 1.005 0 0 0 .97 1.304h1.466c.687 0 1.173-.662.97-1.304l-.99-3.17c-.213-.702-1.204-.702-1.426 0Z" fill="url(#K)"/><path d="m15.457 17.727-.99 3.169a1.005 1.005 0 0 0 .97 1.304h1.466c.687 0 1.173-.662.97-1.304l-.99-3.17c-.213-.702-1.204-.702-1.426 0Z" fill="url(#L)"/><path d="m15.457 17.727-.99 3.169a1.005 1.005 0 0 0 .97 1.304h1.466c.687 0 1.173-.662.97-1.304l-.99-3.17c-.213-.702-1.204-.702-1.426 0Z" fill="url(#M)"/></g><path d="m15.457 17.727-.99 3.169a1.005 1.005 0 0 0 .97 1.304h1.466c.687 0 1.173-.662.97-1.304l-.99-3.17c-.213-.702-1.204-.702-1.426 0Z" fill="url(#N)"/><path d="m15.457 17.727-.99 3.169a1.005 1.005 0 0 0 .97 1.304h1.466c.687 0 1.173-.662.97-1.304l-.99-3.17c-.213-.702-1.204-.702-1.426 0Z" fill="url(#O)"/><path d="M13.543 23.142a.338.338 0 0 0-.41.072.323.323 0 0 0-.034.408 3.652 3.652 0 0 0 3.07 1.678c1.29 0 2.422-.672 3.072-1.678a.327.327 0 0 0-.035-.412.339.339 0 0 0-.409-.069 5.566 5.566 0 0 1-2.627.637 5.594 5.594 0 0 1-2.627-.636Z" fill="#88024E" stroke="url(#P)" stroke-width=".1"/><g filter="url(#Q)"><path d="M18.3 17.339c.494-.87 1.246-1.558 2.865-1.558.71 0 1.393.197 2 .688.502.405.435.923.047 1.117l-1.037.592c-1.216-.393-2.56-.446-3.876-.839Z" fill="#2F2C32"/></g><g filter="url(#R)"><path d="M14.04 17.339c-.494-.87-1.246-1.558-2.865-1.558-.71 0-1.393.197-2 .688-.502.405-.435.923-.047 1.117l1.037.592c1.215-.393 2.56-.446 3.876-.839Z" fill="#27232A"/></g><g filter="url(#S)"><path d="m9.835 15.085-.008.005a.5.5 0 0 1-.514-.858l.003-.002.005-.003.018-.01a3.259 3.259 0 0 1 .277-.143c.183-.088.445-.2.764-.302.634-.202 1.52-.372 2.477-.203a.5.5 0 1 1-.174.985c-.743-.132-1.457-.002-1.999.171a5.086 5.086 0 0 0-.849.36Z" fill="#432A28"/></g><g filter="url(#T)"><path fill-rule="evenodd" clip-rule="evenodd" d="m23.127 14.232-.257.43.257-.43a.5.5 0 0 1-.514.858l-.008-.005a3.642 3.642 0 0 0-.21-.109 5.08 5.08 0 0 0-.64-.25c-.541-.174-1.255-.304-1.998-.172a.5.5 0 1 1-.174-.985c.957-.169 1.843.001 2.476.203a6.112 6.112 0 0 1 .981.412c.026.013.046.025.06.033l.018.01.006.003.002.002Z" fill="#432A28"/></g><path d="M20.628 15.89c1.217 0 2.246.84 2.526 1.975a.511.511 0 0 1-.5.635h-4.16a.43.43 0 0 1-.423-.507 2.606 2.606 0 0 1 2.557-2.102Z" fill="#fff"/><path d="M20.242 16.398a1.664 1.664 0 0 1 1.603 2.102h-3.214a1.706 1.706 0 0 1-.06-.439 1.67 1.67 0 0 1 1.67-1.663Z" fill="url(#U)"/><path d="M19.289 18.061c0-.53.423-.953.953-.953s.953.424.953.953a.94.94 0 0 1-.106.439h-1.687a.862.862 0 0 1-.113-.439Z" fill="#000"/><g filter="url(#V)"><path d="M20.12 16.75c.118.158-.13.351-.412.562-.281.21-.49.358-.609.2-.118-.159.014-.458.296-.669.281-.21.606-.252.724-.094Z" fill="#C7A7A3"/><path d="M20.12 16.75c.118.158-.13.351-.412.562-.281.21-.49.358-.609.2-.118-.159.014-.458.296-.669.281-.21.606-.252.724-.094Z" fill="url(#W)"/></g><g filter="url(#X)"><path d="M21.724 17.842a1.567 1.567 0 0 0-.431-.862l-.485.531.219.426.697-.095Z" fill="url(#Y)"/></g><path d="M11.712 15.89c-1.218 0-2.246.84-2.526 1.975a.511.511 0 0 0 .5.635h4.159a.43.43 0 0 0 .423-.507 2.612 2.612 0 0 0-2.556-2.102Z" fill="#fff"/><path d="M12.098 16.397a1.664 1.664 0 0 0-1.604 2.103h3.215c.037-.144.06-.288.06-.439a1.675 1.675 0 0 0-1.671-1.664Z" fill="url(#Z)"/><path d="M13.05 18.061a.949.949 0 0 0-.952-.953.949.949 0 0 0-.953.953c0 .16.037.31.106.439h1.686a.944.944 0 0 0 .114-.439Z" fill="#000"/><g filter="url(#aa)"><path d="M13.618 17.866c0-.538-.437-.896-.556-1.005l-.537.52.33.674.763-.19Z" fill="url(#ab)"/></g><g filter="url(#ac)" transform="rotate(-27.914 11.596 17.108)"><ellipse cx="11.596" cy="17.108" rx=".726" ry=".368" fill="#C7A7A3" fill-opacity=".9"/><ellipse cx="11.596" cy="17.108" rx=".726" ry=".368" fill="url(#ad)"/></g><g filter="url(#ae)"><path d="M19.786 13.976c.601-.146 2.097-.073 3.096.642" stroke="#5B4545" stroke-width=".4" stroke-linecap="round"/></g><g filter="url(#af)"><path d="M12.718 13.976c-.601-.146-2.097-.073-3.096.642" stroke="#5B4545" stroke-width=".4" stroke-linecap="round"/></g><g filter="url(#ag)"><path d="M15.045 3.875c-2.112-.466-4.008 1.64-4.227 2.422 1.961 6.61 6.923 6.247 11.82 5.703 2.933-.326 3.25 1.01 3.5 1.656 0-7.332-6.234-8.708-11.04-9.77l-.053-.011Z" fill="#D16C37"/><path d="M15.045 3.875c-2.112-.466-4.008 1.64-4.227 2.422 1.961 6.61 6.923 6.247 11.82 5.703 2.933-.326 3.25 1.01 3.5 1.656 0-7.332-6.234-8.708-11.04-9.77l-.053-.011Z" fill="url(#ah)"/><path d="M15.045 3.875c-2.112-.466-4.008 1.64-4.227 2.422 1.961 6.61 6.923 6.247 11.82 5.703 2.933-.326 3.25 1.01 3.5 1.656 0-7.332-6.234-8.708-11.04-9.77l-.053-.011Z" fill="url(#ai)"/><path d="M15.045 3.875c-2.112-.466-4.008 1.64-4.227 2.422 1.961 6.61 6.923 6.247 11.82 5.703 2.933-.326 3.25 1.01 3.5 1.656 0-7.332-6.234-8.708-11.04-9.77l-.053-.011Z" fill="url(#aj)"/><path d="M15.045 3.875c-2.112-.466-4.008 1.64-4.227 2.422 1.961 6.61 6.923 6.247 11.82 5.703 2.933-.326 3.25 1.01 3.5 1.656 0-7.332-6.234-8.708-11.04-9.77l-.053-.011Z" fill="url(#ak)"/></g><g filter="url(#al)"><path d="M10.78 6.203c.043.453.437 2.156 1.015 3.188" stroke="url(#am)" stroke-width=".1" stroke-linecap="round"/></g><g filter="url(#an)"><path d="M21.878 8.878H19.23a1.197 1.197 0 1 0 0 2.395h2.65c1.81 0 3.282.71 3.79 1.064-1.178-2.953-3.018-3.537-3.79-3.459Z" fill="#FD8C60"/></g><g filter="url(#ao)"><path d="M5.156 10.899c.094-2.186 1.287-3.27 2.094-3.601-.76.937-1.118 2.36-1.08 3.644.04 1.284-.025 2.783-1.512 4.627-1.432 1.777-.923 4.376-.779 5.394-2.056-2.747-.46-5.29-.025-5.96.435-.67 1.19-1.508 1.302-4.104Z" fill="#D98C73"/></g><g filter="url(#ap)"><path d="M5.892 11.23c0-3.6 3.104-4.833 4.625-5 .719 2.438-1.297 5.11-2.688 5.797-1.578.78-1.812 1.86-1.937 2.329V11.23Z" fill="url(#aq)"/><path d="M5.892 11.23c0-3.6 3.104-4.833 4.625-5 .719 2.438-1.297 5.11-2.688 5.797-1.578.78-1.812 1.86-1.937 2.329V11.23Z" fill="url(#ar)"/></g><defs><radialGradient id="c" cx="0" cy="0" r="1" gradientUnits="userSpaceOnUse" gradientTransform="matrix(0 10.5625 -11.686 0 15.357 21.5)"><stop offset=".575" stop-color="#9F3D3D"/><stop offset="1" stop-color="#9F3D3D" stop-opacity="0"/></radialGradient><radialGradient id="d" cx="0" cy="0" r="1" gradientUnits="userSpaceOnUse" gradientTransform="matrix(0 3.09375 -2.85937 0 7.107 19.438)"><stop offset=".378" stop-color="#8F3727"/><stop offset="1" stop-color="#8F3727" stop-opacity="0"/></radialGradient><radialGradient id="e" cx="0" cy="0" r="1" gradientUnits="userSpaceOnUse" gradientTransform="matrix(1.25 1.1875 -1.20784 1.27141 25.357 21.203)"><stop stop-color="#B9583B"/><stop offset="1" stop-color="#B9583B" stop-opacity="0"/></radialGradient><radialGradient id="f" cx="0" cy="0" r="1" gradientUnits="userSpaceOnUse" gradientTransform="matrix(2 5.8125 -6.49042 2.23326 31.357 22.813)"><stop stop-color="#EE8B5F"/><stop offset="1" stop-color="#EE8B5F" stop-opacity="0"/></radialGradient><radialGradient id="g" cx="0" cy="0" r="1" gradientUnits="userSpaceOnUse" gradientTransform="matrix(1.875 5.8125 -5.84354 1.88501 24.107 10.688)"><stop stop-color="#DF8D6B"/><stop offset="1" stop-color="#DF8D6B" stop-opacity="0"/></radialGradient><radialGradient id="h" cx="0" cy="0" r="1" gradientUnits="userSpaceOnUse" gradientTransform="rotate(-112.011 17.78 -.58) scale(4.75267 2.95369)"><stop offset=".343" stop-color="#AD4325"/><stop offset="1" stop-color="#AD4325" stop-opacity="0"/></radialGradient><radialGradient id="i" cx="0" cy="0" r="1" gradientUnits="userSpaceOnUse" gradientTransform="matrix(1.25 -4.125 2.40626 .72917 7.045 16.5)"><stop offset=".374" stop-color="#88311C"/><stop offset="1" stop-color="#88311C" stop-opacity="0"/></radialGradient><radialGradient id="j" cx="0" cy="0" r="1" gradientUnits="userSpaceOnUse" gradientTransform="matrix(2.6875 5 -12.92645 6.94796 10.232 3.813)"><stop stop-color="#B26D56"/><stop offset="1" stop-color="#B26D56" stop-opacity="0"/></radialGradient><radialGradient id="k" cx="0" cy="0" r="1" gradientUnits="userSpaceOnUse" gradientTransform="matrix(2.6875 1.34375 -4.29376 8.5875 2.607 13.844)"><stop offset=".256" stop-color="#D78B73"/><stop offset="1" stop-color="#D78B73" stop-opacity="0"/></radialGradient><radialGradient id="l" cx="0" cy="0" r="1" gradientUnits="userSpaceOnUse" gradientTransform="matrix(-.23437 -2.67187 .95809 -.08404 11.295 10.64)"><stop offset=".232" stop-color="#902B1B"/><stop offset="1" stop-color="#902B1B" stop-opacity="0"/></radialGradient><radialGradient id="o" cx="0" cy="0" r="1" gradientUnits="userSpaceOnUse" gradientTransform="rotate(-118.51 9.715 8.707) scale(2.55339 2.89333)"><stop stop-color="#814E62"/><stop offset="1" stop-color="#814E62" stop-opacity="0"/></radialGradient><radialGradient id="q" cx="0" cy="0" r="1" gradientUnits="userSpaceOnUse" gradientTransform="rotate(-24.444 56.213 -45.1) scale(5.09754 6.22385)"><stop offset=".64" stop-color="#B28279"/><stop offset="1" stop-color="#CCA58B"/></radialGradient><radialGradient id="r" cx="0" cy="0" r="1" gradientUnits="userSpaceOnUse" gradientTransform="matrix(2.25 0 0 .96875 25.389 15.219)"><stop stop-color="#906D53"/><stop offset="1" stop-color="#906D53" stop-opacity="0"/></radialGradient><radialGradient id="t" cx="0" cy="0" r="1" gradientUnits="userSpaceOnUse" gradientTransform="matrix(2.81506 -.2094 .1637 2.2006 24.357 18.61)"><stop offset=".719" stop-color="#A26D62" stop-opacity="0"/><stop offset="1" stop-color="#A26D62"/></radialGradient><radialGradient id="v" cx="0" cy="0" r="1" gradientUnits="userSpaceOnUse" gradientTransform="rotate(-180 3.796 9.2) scale(1.96875)"><stop offset=".722" stop-color="#6C4640" stop-opacity="0"/><stop offset="1" stop-color="#6C4640"/></radialGradient><radialGradient id="x" cx="0" cy="0" r="1" gradientUnits="userSpaceOnUse" gradientTransform="matrix(-12.1254 5.59142 -7.48399 -16.22955 21.5 17.398)"><stop stop-color="#C79980"/><stop offset="1" stop-color="#946568"/></radialGradient><radialGradient id="y" cx="0" cy="0" r="1" gradientUnits="userSpaceOnUse" gradientTransform="matrix(-4.06494 1.7887 -1.24562 -2.83076 19.844 18.99)"><stop stop-color="#C4967A"/><stop offset="1" stop-color="#C4967A" stop-opacity="0"/></radialGradient><radialGradient id="z" cx="0" cy="0" r="1" gradientUnits="userSpaceOnUse" gradientTransform="rotate(-71.832 26.455 6.386) scale(7.70838 9.7805)"><stop stop-color="#945A73"/><stop offset="1" stop-color="#945A73" stop-opacity="0"/></radialGradient><radialGradient id="A" cx="0" cy="0" r="1" gradientUnits="userSpaceOnUse" gradientTransform="matrix(-2.39518 13.7467 -17.18312 -2.99393 18.077 16.622)"><stop offset=".637" stop-color="#97577D" stop-opacity="0"/><stop offset="1" stop-color="#97577D"/></radialGradient><radialGradient id="B" cx="0" cy="0" r="1" gradientUnits="userSpaceOnUse" gradientTransform="matrix(0 11.6875 -11.7501 0 15.682 18.125)"><stop offset=".911" stop-color="#9F6394" stop-opacity="0"/><stop offset="1" stop-color="#9F6394"/></radialGradient><radialGradient id="C" cx="0" cy="0" r="1" gradientUnits="userSpaceOnUse" gradientTransform="rotate(168.897 8.77 11.262) scale(13.1206 22.5896)"><stop offset=".795" stop-color="#9A7267" stop-opacity="0"/><stop offset="1" stop-color="#9A7267"/></radialGradient><radialGradient id="D" cx="0" cy="0" r="1" gradientUnits="userSpaceOnUse" gradientTransform="matrix(0 -2.14551 2.63313 0 20.46 16.618)"><stop stop-color="#AE7B75"/><stop offset="1" stop-color="#AE7B75" stop-opacity="0"/></radialGradient><radialGradient id="E" cx="0" cy="0" r="1" gradientUnits="userSpaceOnUse" gradientTransform="matrix(0 -2.44707 2.8045 0 12.298 16.192)"><stop stop-color="#8F5C65"/><stop offset="1" stop-color="#8F5C65" stop-opacity="0"/></radialGradient><radialGradient id="F" cx="0" cy="0" r="1" gradientUnits="userSpaceOnUse" gradientTransform="matrix(-1.62233 6.01598 -4.81378 -1.29814 18.749 12.3)"><stop stop-color="#AB8179"/><stop offset="1" stop-color="#AB8179" stop-opacity="0"/></radialGradient><radialGradient id="G" cx="0" cy="0" r="1" gradientUnits="userSpaceOnUse" gradientTransform="matrix(-2.3963 0 0 -12.0172 25.67 19.391)"><stop stop-color="#C0967A"/><stop offset="1" stop-color="#C0967A" stop-opacity="0"/></radialGradient><radialGradient id="J" cx="0" cy="0" r="1" gradientUnits="userSpaceOnUse" gradientTransform="matrix(-.84932 -3.81088 1.17448 -.26175 17.632 20.746)"><stop offset=".017" stop-color="#CDA38B"/><stop offset="1" stop-color="#CDA38B" stop-opacity="0"/></radialGradient><radialGradient id="M" cx="0" cy="0" r="1" gradientUnits="userSpaceOnUse" gradientTransform="matrix(-1.45312 0 0 -.40625 17.185 21.14)"><stop stop-color="#CA9F8C"/><stop offset="1" stop-color="#CA9F8C" stop-opacity="0"/></radialGradient><radialGradient id="O" cx="0" cy="0" r="1" gradientUnits="userSpaceOnUse" gradientTransform="matrix(-2.5565 1.75513 -2.1094 -3.07252 16.873 20.031)"><stop offset=".778" stop-color="#815553" stop-opacity="0"/><stop offset="1" stop-color="#693B40"/><stop offset="1" stop-color="#815553"/></radialGradient><radialGradient id="U" cx="0" cy="0" r="1" gradientUnits="userSpaceOnUse" gradientTransform="matrix(0 1.51263 -2.406 0 20.238 17.287)"><stop offset=".802" stop-color="#7D574A"/><stop offset="1" stop-color="#694B43"/><stop offset="1" stop-color="#804D49"/><stop offset="1" stop-color="#664944"/></radialGradient><radialGradient id="W" cx="0" cy="0" r="1" gradientUnits="userSpaceOnUse" gradientTransform="matrix(-.43239 -.5572 .76712 -.5953 19.813 17.444)"><stop offset=".766" stop-color="#FFE6E2" stop-opacity="0"/><stop offset=".966" stop-color="#FFE6E2"/></radialGradient><radialGradient id="Z" cx="0" cy="0" r="1" gradientUnits="userSpaceOnUse" gradientTransform="matrix(0 1.51264 -2.40602 0 12.101 17.287)"><stop offset=".802" stop-color="#7D574A"/><stop offset="1" stop-color="#694B43"/><stop offset="1" stop-color="#804D49"/><stop offset="1" stop-color="#664944"/></radialGradient><radialGradient id="ad" cx="0" cy="0" r="1" gradientUnits="userSpaceOnUse" gradientTransform="rotate(-90.897 14.494 3.154) scale(.92124 1.10737)"><stop offset=".766" stop-color="#FFE6E2" stop-opacity="0"/><stop offset=".966" stop-color="#FFE6E2"/></radialGradient><radialGradient id="ah" cx="0" cy="0" r="1" gradientUnits="userSpaceOnUse" gradientTransform="rotate(114.776 8.711 8.134) scale(8.80534 16.3076)"><stop offset=".595" stop-color="#B14C3D" stop-opacity="0"/><stop offset="1" stop-color="#B14C3D"/></radialGradient><radialGradient id="ai" cx="0" cy="0" r="1" gradientUnits="userSpaceOnUse" gradientTransform="rotate(105.529 8.072 10.647) scale(5.9244 10.9402)"><stop stop-color="#ED804D"/><stop offset="1" stop-color="#ED804D" stop-opacity="0"/></radialGradient><radialGradient id="aj" cx="0" cy="0" r="1" gradientUnits="userSpaceOnUse" gradientTransform="rotate(-120.036 13.755 2.358) scale(12.9565 11.8348)"><stop offset=".9" stop-color="#BC7962" stop-opacity="0"/><stop offset="1" stop-color="#BC7962"/></radialGradient><radialGradient id="ak" cx="0" cy="0" r="1" gradientUnits="userSpaceOnUse" gradientTransform="rotate(-54.573 22.496 -10.378) scale(9.67667 15.3383)"><stop offset=".773" stop-color="#E18E6D" stop-opacity="0"/><stop offset=".931" stop-color="#E18E6D"/></radialGradient><radialGradient id="ar" cx="0" cy="0" r="1" gradientUnits="userSpaceOnUse" gradientTransform="matrix(-1.8125 2.90625 -1.5009 -.93605 10.986 8.543)"><stop stop-color="#C97250"/><stop offset="1" stop-color="#C97250" stop-opacity="0"/></radialGradient><filter id="a" x="2.17" y="1.75" width="28.25" height="29.25" filterUnits="userSpaceOnUse" color-interpolation-filters="sRGB"><feFlood flood-opacity="0" result="BackgroundImageFix"/><feBlend in="SourceGraphic" in2="BackgroundImageFix" result="shape"/><feColorMatrix in="SourceAlpha" values="0 0 0 0 0 0 0 0 0 0 0 0 0 0 0 0 0 0 127 0" result="hardAlpha"/><feOffset dx=".25" dy="-.75"/><feGaussianBlur stdDeviation=".75"/><feComposite in2="hardAlpha" operator="arithmetic" k2="-1" k3="1"/><feColorMatrix values="0 0 0 0 0.65098 0 0 0 0 0.305882 0 0 0 0 0.4 0 0 0 1 0"/><feBlend in2="shape" result="effect1_innerShadow_3987_19467"/><feColorMatrix in="SourceAlpha" values="0 0 0 0 0 0 0 0 0 0 0 0 0 0 0 0 0 0 127 0" result="hardAlpha"/><feOffset dx=".25" dy=".5"/><feGaussianBlur stdDeviation=".25"/><feComposite in2="hardAlpha" operator="arithmetic" k2="-1" k3="1"/><feColorMatrix values="0 0 0 0 0.862745 0 0 0 0 0.537255 0 0 0 0 0.427451 0 0 0 1 0"/><feBlend in2="effect1_innerShadow_3987_19467" result="effect2_innerShadow_3987_19467"/></filter><filter id="m" x="4.434" y="15.4" width="6.15" height="6" filterUnits="userSpaceOnUse" color-interpolation-filters="sRGB"><feFlood flood-opacity="0" result="BackgroundImageFix"/><feBlend in="SourceGraphic" in2="BackgroundImageFix" result="shape"/><feColorMatrix in="SourceAlpha" values="0 0 0 0 0 0 0 0 0 0 0 0 0 0 0 0 0 0 127 0" result="hardAlpha"/><feOffset dx=".15"/><feGaussianBlur stdDeviation=".25"/><feComposite in2="hardAlpha" operator="arithmetic" k2="-1" k3="1"/><feColorMatrix values="0 0 0 0 0.607843 0 0 0 0 0.458824 0 0 0 0 0.403922 0 0 0 1 0"/><feBlend in2="shape" result="effect1_innerShadow_3987_19467"/></filter><filter id="p" x="22.17" y="15.15" width="6" height="6.25" filterUnits="userSpaceOnUse" color-interpolation-filters="sRGB"><feFlood flood-opacity="0" result="BackgroundImageFix"/><feBlend in="SourceGraphic" in2="BackgroundImageFix" result="shape"/><feColorMatrix in="SourceAlpha" values="0 0 0 0 0 0 0 0 0 0 0 0 0 0 0 0 0 0 127 0" result="hardAlpha"/><feOffset dy="-.25"/><feGaussianBlur stdDeviation=".25"/><feComposite in2="hardAlpha" operator="arithmetic" k2="-1" k3="1"/><feColorMatrix values="0 0 0 0 0.556863 0 0 0 0 0.34902 0 0 0 0 0.384314 0 0 0 1 0"/><feBlend in2="shape" result="effect1_innerShadow_3987_19467"/></filter><filter id="s" x="22.667" y="15.897" width="5.005" height="5.005" filterUnits="userSpaceOnUse" color-interpolation-filters="sRGB"><feFlood flood-opacity="0" result="BackgroundImageFix"/><feBlend in="SourceGraphic" in2="BackgroundImageFix" result="shape"/><feGaussianBlur stdDeviation=".25" result="effect1_foregroundBlur_3987_19467"/></filter><filter id="u" x="5.117" y="16.047" width="4.705" height="4.705" filterUnits="userSpaceOnUse" color-interpolation-filters="sRGB"><feFlood flood-opacity="0" result="BackgroundImageFix"/><feBlend in="SourceGraphic" in2="BackgroundImageFix" result="shape"/><feGaussianBlur stdDeviation=".175" result="effect1_foregroundBlur_3987_19467"/></filter><filter id="w" x="6.67" y="9.252" width="19" height="20.679" filterUnits="userSpaceOnUse" color-interpolation-filters="sRGB"><feFlood flood-opacity="0" result="BackgroundImageFix"/><feBlend in="SourceGraphic" in2="BackgroundImageFix" result="shape"/><feColorMatrix in="SourceAlpha" values="0 0 0 0 0 0 0 0 0 0 0 0 0 0 0 0 0 0 127 0" result="hardAlpha"/><feOffset dy=".4"/><feGaussianBlur stdDeviation=".5"/><feComposite in2="hardAlpha" operator="arithmetic" k2="-1" k3="1"/><feColorMatrix values="0 0 0 0 0.490196 0 0 0 0 0.309804 0 0 0 0 0.309804 0 0 0 1 0"/><feBlend in2="shape" result="effect1_innerShadow_3987_19467"/></filter><filter id="H" x="13.617" y="16.958" width="4.5" height="6" filterUnits="userSpaceOnUse" color-interpolation-filters="sRGB"><feFlood flood-opacity="0" result="BackgroundImageFix"/><feBlend in="SourceGraphic" in2="BackgroundImageFix" result="shape"/><feGaussianBlur stdDeviation=".25" result="effect1_foregroundBlur_3987_19467"/></filter><filter id="I" x="14.17" y="16.95" width="4" height="5.5" filterUnits="userSpaceOnUse" color-interpolation-filters="sRGB"><feFlood flood-opacity="0" result="BackgroundImageFix"/><feBlend in="SourceGraphic" in2="BackgroundImageFix" result="shape"/><feGaussianBlur stdDeviation=".125" result="effect1_foregroundBlur_3987_19467"/></filter><filter id="Q" x="18.099" y="15.781" width="5.423" height="2.397" filterUnits="userSpaceOnUse" color-interpolation-filters="sRGB"><feFlood flood-opacity="0" result="BackgroundImageFix"/><feBlend in="SourceGraphic" in2="BackgroundImageFix" result="shape"/><feColorMatrix in="SourceAlpha" values="0 0 0 0 0 0 0 0 0 0 0 0 0 0 0 0 0 0 127 0" result="hardAlpha"/><feOffset dx="-.2"/><feGaussianBlur stdDeviation=".2"/><feComposite in2="hardAlpha" operator="arithmetic" k2="-1" k3="1"/><feColorMatrix values="0 0 0 0 0.117647 0 0 0 0 0.0705882 0 0 0 0 0.156863 0 0 0 1 0"/><feBlend in2="shape" result="effect1_innerShadow_3987_19467"/></filter><filter id="R" x="8.818" y="15.781" width="5.423" height="2.397" filterUnits="userSpaceOnUse" color-interpolation-filters="sRGB"><feFlood flood-opacity="0" result="BackgroundImageFix"/><feBlend in="SourceGraphic" in2="BackgroundImageFix" result="shape"/><feColorMatrix in="SourceAlpha" values="0 0 0 0 0 0 0 0 0 0 0 0 0 0 0 0 0 0 127 0" result="hardAlpha"/><feOffset dx=".2"/><feGaussianBlur stdDeviation=".125"/><feComposite in2="hardAlpha" operator="arithmetic" k2="-1" k3="1"/><feColorMatrix values="0 0 0 0 0.0862745 0 0 0 0 0.054902 0 0 0 0 0.113725 0 0 0 1 0"/><feBlend in2="shape" result="effect1_innerShadow_3987_19467"/></filter><filter id="S" x="9.07" y="13.3" width="4.4" height="1.861" filterUnits="userSpaceOnUse" color-interpolation-filters="sRGB"><feFlood flood-opacity="0" result="BackgroundImageFix"/><feBlend in="SourceGraphic" in2="BackgroundImageFix" result="shape"/><feColorMatrix in="SourceAlpha" values="0 0 0 0 0 0 0 0 0 0 0 0 0 0 0 0 0 0 127 0" result="hardAlpha"/><feOffset dx=".2" dy="-.2"/><feGaussianBlur stdDeviation=".15"/><feComposite in2="hardAlpha" operator="arithmetic" k2="-1" k3="1"/><feColorMatrix values="0 0 0 0 0.211765 0 0 0 0 0.121569 0 0 0 0 0.12549 0 0 0 1 0"/><feBlend in2="shape" result="effect1_innerShadow_3987_19467"/></filter><filter id="T" x="19.17" y="13.3" width="4.4" height="1.861" filterUnits="userSpaceOnUse" color-interpolation-filters="sRGB"><feFlood flood-opacity="0" result="BackgroundImageFix"/><feBlend in="SourceGraphic" in2="BackgroundImageFix" result="shape"/><feColorMatrix in="SourceAlpha" values="0 0 0 0 0 0 0 0 0 0 0 0 0 0 0 0 0 0 127 0" result="hardAlpha"/><feOffset dx=".2" dy="-.2"/><feGaussianBlur stdDeviation=".15"/><feComposite in2="hardAlpha" operator="arithmetic" k2="-1" k3="1"/><feColorMatrix values="0 0 0 0 0.211765 0 0 0 0 0.121569 0 0 0 0 0.12549 0 0 0 1 0"/><feBlend in2="shape" result="effect1_innerShadow_3987_19467"/></filter><filter id="V" x="18.956" y="16.553" width="1.294" height="1.125" filterUnits="userSpaceOnUse" color-interpolation-filters="sRGB"><feFlood flood-opacity="0" result="BackgroundImageFix"/><feBlend in="SourceGraphic" in2="BackgroundImageFix" result="shape"/><feGaussianBlur stdDeviation=".05" result="effect1_foregroundBlur_3987_19467"/></filter><filter id="X" x="20.608" y="16.779" width="1.316" height="1.357" filterUnits="userSpaceOnUse" color-interpolation-filters="sRGB"><feFlood flood-opacity="0" result="BackgroundImageFix"/><feBlend in="SourceGraphic" in2="BackgroundImageFix" result="shape"/><feGaussianBlur stdDeviation=".1" result="effect1_foregroundBlur_3987_19467"/></filter><filter id="aa" x="12.325" y="16.661" width="1.493" height="1.594" filterUnits="userSpaceOnUse" color-interpolation-filters="sRGB"><feFlood flood-opacity="0" result="BackgroundImageFix"/><feBlend in="SourceGraphic" in2="BackgroundImageFix" result="shape"/><feGaussianBlur stdDeviation=".1" result="effect1_foregroundBlur_3987_19467"/></filter><filter id="ac" x="10.831" y="16.538" width="1.529" height="1.141" filterUnits="userSpaceOnUse" color-interpolation-filters="sRGB"><feFlood flood-opacity="0" result="BackgroundImageFix"/><feBlend in="SourceGraphic" in2="BackgroundImageFix" result="shape"/><feGaussianBlur stdDeviation=".05" result="effect1_foregroundBlur_3987_19467"/></filter><filter id="ae" x="19.186" y="13.314" width="4.296" height="1.904" filterUnits="userSpaceOnUse" color-interpolation-filters="sRGB"><feFlood flood-opacity="0" result="BackgroundImageFix"/><feBlend in="SourceGraphic" in2="BackgroundImageFix" result="shape"/><feGaussianBlur stdDeviation=".2" result="effect1_foregroundBlur_3987_19467"/></filter><filter id="af" x="9.022" y="13.314" width="4.296" height="1.904" filterUnits="userSpaceOnUse" color-interpolation-filters="sRGB"><feFlood flood-opacity="0" result="BackgroundImageFix"/><feBlend in="SourceGraphic" in2="BackgroundImageFix" result="shape"/><feGaussianBlur stdDeviation=".2" result="effect1_foregroundBlur_3987_19467"/></filter><filter id="ag" x="10.068" y="3.058" width="16.82" height="11.348" filterUnits="userSpaceOnUse" color-interpolation-filters="sRGB"><feFlood flood-opacity="0" result="BackgroundImageFix"/><feBlend in="SourceGraphic" in2="BackgroundImageFix" result="shape"/><feGaussianBlur stdDeviation=".375" result="effect1_foregroundBlur_3987_19467"/></filter><filter id="al" x="10.529" y="5.953" width="1.516" height="3.688" filterUnits="userSpaceOnUse" color-interpolation-filters="sRGB"><feFlood flood-opacity="0" result="BackgroundImageFix"/><feBlend in="SourceGraphic" in2="BackgroundImageFix" result="shape"/><feGaussianBlur stdDeviation=".1" result="effect1_foregroundBlur_3987_19467"/></filter><filter id="an" x="16.032" y="6.872" width="11.638" height="7.465" filterUnits="userSpaceOnUse" color-interpolation-filters="sRGB"><feFlood flood-opacity="0" result="BackgroundImageFix"/><feBlend in="SourceGraphic" in2="BackgroundImageFix" result="shape"/><feGaussianBlur stdDeviation="1" result="effect1_foregroundBlur_3987_19467"/></filter><filter id="ao" x="1.603" y="6.048" width="6.897" height="16.165" filterUnits="userSpaceOnUse" color-interpolation-filters="sRGB"><feFlood flood-opacity="0" result="BackgroundImageFix"/><feBlend in="SourceGraphic" in2="BackgroundImageFix" result="shape"/><feGaussianBlur stdDeviation=".625" result="effect1_foregroundBlur_3987_19467"/></filter><filter id="ap" x="4.892" y="5.23" width="6.775" height="10.125" filterUnits="userSpaceOnUse" color-interpolation-filters="sRGB"><feFlood flood-opacity="0" result="BackgroundImageFix"/><feBlend in="SourceGraphic" in2="BackgroundImageFix" result="shape"/><feGaussianBlur stdDeviation=".5" result="effect1_foregroundBlur_3987_19467"/></filter><linearGradient id="b" x1="24.295" y1="6.813" x2="10.42" y2="23" gradientUnits="userSpaceOnUse"><stop stop-color="#E3875E"/><stop offset="1" stop-color="#B25734"/></linearGradient><linearGradient id="n" x1="4.434" y1="18.562" x2="7.897" y2="18.562" gradientUnits="userSpaceOnUse"><stop stop-color="#8D645F"/><stop offset="1" stop-color="#604138"/></linearGradient><linearGradient id="K" x1="14.42" y1="20.882" x2="16.17" y2="20.882" gradientUnits="userSpaceOnUse"><stop stop-color="#875F54"/><stop offset="1" stop-color="#875F54" stop-opacity="0"/></linearGradient><linearGradient id="L" x1="16.17" y1="22.2" x2="16.17" y2="21.031" gradientUnits="userSpaceOnUse"><stop stop-color="#995C76"/><stop offset="1" stop-color="#995C76" stop-opacity="0"/></linearGradient><linearGradient id="N" x1="16.316" y1="22.323" x2="16.316" y2="22.063" gradientUnits="userSpaceOnUse"><stop stop-color="#8F5269"/><stop offset="1" stop-color="#8F5269" stop-opacity="0"/></linearGradient><linearGradient id="P" x1="14.185" y1="25" x2="15.045" y2="23.672" gradientUnits="userSpaceOnUse"><stop stop-color="#A87D7B"/><stop offset=".663" stop-color="#A87D7B" stop-opacity="0"/></linearGradient><linearGradient id="Y" x1="21.688" y1="17.387" x2="21.104" y2="17.748" gradientUnits="userSpaceOnUse"><stop stop-color="#B4948D"/><stop offset="1" stop-color="#B4948D" stop-opacity="0"/></linearGradient><linearGradient id="ab" x1="13.488" y1="17.387" x2="12.903" y2="17.748" gradientUnits="userSpaceOnUse"><stop stop-color="#B4948D"/><stop offset="1" stop-color="#B4948D" stop-opacity="0"/></linearGradient><linearGradient id="am" x1="11.006" y1="7.217" x2="11.6" y2="9.311" gradientUnits="userSpaceOnUse"><stop offset=".538" stop-color="#BD5422"/><stop offset="1" stop-color="#9E3623" stop-opacity="0"/></linearGradient><linearGradient id="aq" x1="11.236" y1="6.793" x2="7.048" y2="11.293" gradientUnits="userSpaceOnUse"><stop stop-color="#DA7240"/><stop offset="1" stop-color="#DA7240" stop-opacity="0"/></linearGradient></defs></svg>