<svg width="32" height="32" fill="none" xmlns="http://www.w3.org/2000/svg"><g filter="url(#a)"><path d="M9.247 3.367c.527-.38 1.101-.53 1.484-.558a.29.29 0 0 0 .203-.103c.397-.476.853-.62 1.227-.62.564 0 .932.2 1.07.289.29.188.485.313.915.43.43.117 1.335 1.351 1.601 1.75.266.398.14.78.14 1.015 0 .235.157.313.204.75.034.316-.09.706-.177.91a.108.108 0 0 0 .016.11c.624.78.433 2.055.255 2.605h-3.641v2.344c-.646.583-2.375 1.688-4.125 1.438-2.188-.313-4.016-2.532-3.406-4.813.446-1.67 1.998-2.368 2.905-2.554a.273.273 0 0 0 .22-.279c-.062-1.253.212-2.067 1.11-2.714Z" fill="url(#b)"/><path d="M9.247 3.367c.527-.38 1.101-.53 1.484-.558a.29.29 0 0 0 .203-.103c.397-.476.853-.62 1.227-.62.564 0 .932.2 1.07.289.29.188.485.313.915.43.43.117 1.335 1.351 1.601 1.75.266.398.14.78.14 1.015 0 .235.157.313.204.75.034.316-.09.706-.177.91a.108.108 0 0 0 .016.11c.624.78.433 2.055.255 2.605h-3.641v2.344c-.646.583-2.375 1.688-4.125 1.438-2.188-.313-4.016-2.532-3.406-4.813.446-1.67 1.998-2.368 2.905-2.554a.273.273 0 0 0 .22-.279c-.062-1.253.212-2.067 1.11-2.714Z" fill="url(#c)"/><path d="M9.247 3.367c.527-.38 1.101-.53 1.484-.558a.29.29 0 0 0 .203-.103c.397-.476.853-.62 1.227-.62.564 0 .932.2 1.07.289.29.188.485.313.915.43.43.117 1.335 1.351 1.601 1.75.266.398.14.78.14 1.015 0 .235.157.313.204.75.034.316-.09.706-.177.91a.108.108 0 0 0 .016.11c.624.78.433 2.055.255 2.605h-3.641v2.344c-.646.583-2.375 1.688-4.125 1.438-2.188-.313-4.016-2.532-3.406-4.813.446-1.67 1.998-2.368 2.905-2.554a.273.273 0 0 0 .22-.279c-.062-1.253.212-2.067 1.11-2.714Z" fill="url(#d)"/><path d="M9.247 3.367c.527-.38 1.101-.53 1.484-.558a.29.29 0 0 0 .203-.103c.397-.476.853-.62 1.227-.62.564 0 .932.2 1.07.289.29.188.485.313.915.43.43.117 1.335 1.351 1.601 1.75.266.398.14.78.14 1.015 0 .235.157.313.204.75.034.316-.09.706-.177.91a.108.108 0 0 0 .016.11c.624.78.433 2.055.255 2.605h-3.641v2.344c-.646.583-2.375 1.688-4.125 1.438-2.188-.313-4.016-2.532-3.406-4.813.446-1.67 1.998-2.368 2.905-2.554a.273.273 0 0 0 .22-.279c-.062-1.253.212-2.067 1.11-2.714Z" fill="url(#e)"/><path d="M9.247 3.367c.527-.38 1.101-.53 1.484-.558a.29.29 0 0 0 .203-.103c.397-.476.853-.62 1.227-.62.564 0 .932.2 1.07.289.29.188.485.313.915.43.43.117 1.335 1.351 1.601 1.75.266.398.14.78.14 1.015 0 .235.157.313.204.75.034.316-.09.706-.177.91a.108.108 0 0 0 .016.11c.624.78.433 2.055.255 2.605h-3.641v2.344c-.646.583-2.375 1.688-4.125 1.438-2.188-.313-4.016-2.532-3.406-4.813.446-1.67 1.998-2.368 2.905-2.554a.273.273 0 0 0 .22-.279c-.062-1.253.212-2.067 1.11-2.714Z" fill="url(#f)"/></g><path d="M9.247 3.367c.527-.38 1.101-.53 1.484-.558a.29.29 0 0 0 .203-.103c.397-.476.853-.62 1.227-.62.564 0 .932.2 1.07.289.29.188.485.313.915.43.43.117 1.335 1.351 1.601 1.75.266.398.14.78.14 1.015 0 .235.157.313.204.75.034.316-.09.706-.177.91a.108.108 0 0 0 .016.11c.624.78.433 2.055.255 2.605h-3.641v2.344c-.646.583-2.375 1.688-4.125 1.438-2.188-.313-4.016-2.532-3.406-4.813.446-1.67 1.998-2.368 2.905-2.554a.273.273 0 0 0 .22-.279c-.062-1.253.212-2.067 1.11-2.714Z" fill="url(#g)"/><path d="M15.782 29.914h-8.58c-.823-.182-2.47-.85-2.47-2.06 0-1.514 1.345-2.514 1.25-2.576-.074-.05 3.025-2.425 4.583-3.606l13.045-5.58c.87-.697 2.796-2.081 3.535-2.037.738.043 1.021 1.007 1.07 1.483v5.533c0 .921-.304 1.951-.985 2.404-.68.453-1.212.343-2.26.343-1.173 0-1.454.336-1.908 1.749-.363 1.13-.985 1.381-1.9 1.381h-1.189c-.805 0-1.345.172-1.798 1.67-.4 1.08-1.408 1.296-2.393 1.296Z" fill="url(#h)"/><path d="M15.782 29.914h-8.58c-.823-.182-2.47-.85-2.47-2.06 0-1.514 1.345-2.514 1.25-2.576-.074-.05 3.025-2.425 4.583-3.606l13.045-5.58c.87-.697 2.796-2.081 3.535-2.037.738.043 1.021 1.007 1.07 1.483v5.533c0 .921-.304 1.951-.985 2.404-.68.453-1.212.343-2.26.343-1.173 0-1.454.336-1.908 1.749-.363 1.13-.985 1.381-1.9 1.381h-1.189c-.805 0-1.345.172-1.798 1.67-.4 1.08-1.408 1.296-2.393 1.296Z" fill="url(#i)"/><path d="M15.782 29.914h-8.58c-.823-.182-2.47-.85-2.47-2.06 0-1.514 1.345-2.514 1.25-2.576-.074-.05 3.025-2.425 4.583-3.606l13.045-5.58c.87-.697 2.796-2.081 3.535-2.037.738.043 1.021 1.007 1.07 1.483v5.533c0 .921-.304 1.951-.985 2.404-.68.453-1.212.343-2.26.343-1.173 0-1.454.336-1.908 1.749-.363 1.13-.985 1.381-1.9 1.381h-1.189c-.805 0-1.345.172-1.798 1.67-.4 1.08-1.408 1.296-2.393 1.296Z" fill="url(#j)"/><g filter="url(#k)"><path d="m19.653 28.71-2.687-5.53 1.851-1.57 3.541 8.133a.1.1 0 0 1-.092.14h-.769c-1.012 0-1.594-.586-1.844-1.172Z" fill="#FFC63E"/></g><g filter="url(#l)"><path d="m19.082 27.535.571 1.176c.25.586.832 1.172 1.844 1.172h.77a.1.1 0 0 0 .091-.14l-.628-1.444-2.648-.764Z" fill="#FF444F"/></g><path d="m8.192 27.91.719-1.45 2.555-.038-1.919 3.209c-.157.263-.494.371-.751.202-.475-.313-.741-.682-.784-1.04a1.62 1.62 0 0 1 .18-.884Z" fill="url(#m)"/><path d="m8.196 27.901-.004.008a1.62 1.62 0 0 0-.18.883c.043.36.309.727.784 1.04.257.17.594.062.751-.201l1.034-1.73H8.196Z" fill="url(#n)"/><g filter="url(#o)"><path d="M18.636 8.508h-4.115l.554 2.203h3.508c1.486 0 2.375-1.062 2.297-2.656l-.076-2.34a.102.102 0 0 1 .077-.102c.205-.053.56-.154.784-.214a1.01 1.01 0 0 0 .508-.344l.506-.744a.546.546 0 1 0-.907-.609l-.294.443a.17.17 0 0 1-.074.063c-.395.168-.904.173-1.137.163l.28-.268a.533.533 0 0 0-.705-.798l-.4.328c-.132.12-.417.448-.492.805a2.756 2.756 0 0 0-.028.757c.013.152.024.304.015.455l-.15 2.716a.15.15 0 0 1-.15.142Z" fill="#FFBC30"/></g><path d="M18.636 8.508h-4.115l.554 2.203h3.508c1.486 0 2.375-1.062 2.297-2.656l-.076-2.34a.102.102 0 0 1 .077-.102c.205-.053.56-.154.784-.214a1.01 1.01 0 0 0 .508-.344l.506-.744a.546.546 0 1 0-.907-.609l-.294.443a.17.17 0 0 1-.074.063c-.395.168-.904.173-1.137.163l.28-.268a.533.533 0 0 0-.705-.798l-.4.328c-.132.12-.417.448-.492.805a2.756 2.756 0 0 0-.028.757c.013.152.024.304.015.455l-.15 2.716a.15.15 0 0 1-.15.142Z" fill="url(#p)"/><path d="M18.636 8.508h-4.115l.554 2.203h3.508c1.486 0 2.375-1.062 2.297-2.656l-.076-2.34a.102.102 0 0 1 .077-.102c.205-.053.56-.154.784-.214a1.01 1.01 0 0 0 .508-.344l.506-.744a.546.546 0 1 0-.907-.609l-.294.443a.17.17 0 0 1-.074.063c-.395.168-.904.173-1.137.163l.28-.268a.533.533 0 0 0-.705-.798l-.4.328c-.132.12-.417.448-.492.805a2.756 2.756 0 0 0-.028.757c.013.152.024.304.015.455l-.15 2.716a.15.15 0 0 1-.15.142Z" fill="url(#q)"/><path d="M18.636 8.508h-4.115l.554 2.203h3.508c1.486 0 2.375-1.062 2.297-2.656l-.076-2.34a.102.102 0 0 1 .077-.102c.205-.053.56-.154.784-.214a1.01 1.01 0 0 0 .508-.344l.506-.744a.546.546 0 1 0-.907-.609l-.294.443a.17.17 0 0 1-.074.063c-.395.168-.904.173-1.137.163l.28-.268a.533.533 0 0 0-.705-.798l-.4.328c-.132.12-.417.448-.492.805a2.756 2.756 0 0 0-.028.757c.013.152.024.304.015.455l-.15 2.716a.15.15 0 0 1-.15.142Z" fill="url(#r)"/><path d="M18.636 8.508h-4.115l.554 2.203h3.508c1.486 0 2.375-1.062 2.297-2.656l-.076-2.34a.102.102 0 0 1 .077-.102c.205-.053.56-.154.784-.214a1.01 1.01 0 0 0 .508-.344l.506-.744a.546.546 0 1 0-.907-.609l-.294.443a.17.17 0 0 1-.074.063c-.395.168-.904.173-1.137.163l.28-.268a.533.533 0 0 0-.705-.798l-.4.328c-.132.12-.417.448-.492.805a2.756 2.756 0 0 0-.028.757c.013.152.024.304.015.455l-.15 2.716a.15.15 0 0 1-.15.142Z" fill="url(#s)"/><g filter="url(#t)"><path d="M9.95 14.54v1.67l5.735-.155c-.375-1.555-.368-3.258-.211-3.64.156-.384.453-.774.476-1.29.024-.516-.172-1-.476-1.484a3.47 3.47 0 0 1-.344-.805.548.548 0 0 0-.513-.399h-.768c-.068 0-.109.09-.169.122l-.956.496-1.204-.617c-.906.039-2.078.257-2.304.562-.227.305-.25 1.008-.094 1.883s.43 1.812.648 2.36c.175.437.193 1.046.18 1.296Z" fill="url(#u)"/><path d="M9.95 14.54v1.67l5.735-.155c-.375-1.555-.368-3.258-.211-3.64.156-.384.453-.774.476-1.29.024-.516-.172-1-.476-1.484a3.47 3.47 0 0 1-.344-.805.548.548 0 0 0-.513-.399h-.768c-.068 0-.109.09-.169.122l-.956.496-1.204-.617c-.906.039-2.078.257-2.304.562-.227.305-.25 1.008-.094 1.883s.43 1.812.648 2.36c.175.437.193 1.046.18 1.296Z" fill="url(#v)"/><path d="M9.95 14.54v1.67l5.735-.155c-.375-1.555-.368-3.258-.211-3.64.156-.384.453-.774.476-1.29.024-.516-.172-1-.476-1.484a3.47 3.47 0 0 1-.344-.805.548.548 0 0 0-.513-.399h-.768c-.068 0-.109.09-.169.122l-.956.496-1.204-.617c-.906.039-2.078.257-2.304.562-.227.305-.25 1.008-.094 1.883s.43 1.812.648 2.36c.175.437.193 1.046.18 1.296Z" fill="url(#w)"/><path d="M9.95 14.54v1.67l5.735-.155c-.375-1.555-.368-3.258-.211-3.64.156-.384.453-.774.476-1.29.024-.516-.172-1-.476-1.484a3.47 3.47 0 0 1-.344-.805.548.548 0 0 0-.513-.399h-.768c-.068 0-.109.09-.169.122l-.956.496-1.204-.617c-.906.039-2.078.257-2.304.562-.227.305-.25 1.008-.094 1.883s.43 1.812.648 2.36c.175.437.193 1.046.18 1.296Z" fill="url(#x)"/></g><g filter="url(#y)"><path d="M26.74 13.508c-.148 0-.29.021-.424.062-.318.077-.621.221-.994.399h-.001c-.292.139-.626.298-1.043.46-1.5.587-3.218.587-4.062.587H11.59c-1.933 0-3.534 1.566-3.559 3.499-.007.536-.011 1.23-.011 1.79 0 1.797-1.662 3.73-2.672 4.687-.7.664-.868 1.063-.967 1.297l-.014.034a1.94 1.94 0 0 1-.02.044l.011.008a2.617 2.617 0 0 0 2.45 3.539h.965c-.499-.101-1.097-.246-1.566-.422-1.04-.39-1.14-1.27-1.113-1.613.02-.265.226-1.332 1.636-1.332.95 0 2.031.064 3.022.123.632.037 1.227.073 1.728.088 1.048.032 2.12-.065 2.57-1.215.47-1.43.848-1.91 1.907-1.91.493.03.872.049 1.124.062l.306.016c.7.047 1.452-.089 1.64-1.36.211-1.421 1.067-1.552 1.672-1.53.664.023 1.594.023 2.016-.29.422-.312.468-.883.468-1.304 0-.422.147-1.164 1.172-1.266 1.149-.115 1.375-.36 1.532-.578.226-.317.239-.694.187-1.266-.07-.777.115-1.26.582-1.558.617-.395 1.073.047 1.168.84.023.19.052.446.085.736.09.803.21 1.862.306 2.467v-3.618c0-.786-.615-1.43-1.39-1.474v-.002a2.429 2.429 0 0 0-.087 0Z" fill="url(#z)"/><path d="M26.74 13.508c-.148 0-.29.021-.424.062-.318.077-.621.221-.994.399h-.001c-.292.139-.626.298-1.043.46-1.5.587-3.218.587-4.062.587H11.59c-1.933 0-3.534 1.566-3.559 3.499-.007.536-.011 1.23-.011 1.79 0 1.797-1.662 3.73-2.672 4.687-.7.664-.868 1.063-.967 1.297l-.014.034a1.94 1.94 0 0 1-.02.044l.011.008a2.617 2.617 0 0 0 2.45 3.539h.965c-.499-.101-1.097-.246-1.566-.422-1.04-.39-1.14-1.27-1.113-1.613.02-.265.226-1.332 1.636-1.332.95 0 2.031.064 3.022.123.632.037 1.227.073 1.728.088 1.048.032 2.12-.065 2.57-1.215.47-1.43.848-1.91 1.907-1.91.493.03.872.049 1.124.062l.306.016c.7.047 1.452-.089 1.64-1.36.211-1.421 1.067-1.552 1.672-1.53.664.023 1.594.023 2.016-.29.422-.312.468-.883.468-1.304 0-.422.147-1.164 1.172-1.266 1.149-.115 1.375-.36 1.532-.578.226-.317.239-.694.187-1.266-.07-.777.115-1.26.582-1.558.617-.395 1.073.047 1.168.84.023.19.052.446.085.736.09.803.21 1.862.306 2.467v-3.618c0-.786-.615-1.43-1.39-1.474v-.002a2.429 2.429 0 0 0-.087 0Z" fill="url(#A)"/><path d="M26.74 13.508c-.148 0-.29.021-.424.062-.318.077-.621.221-.994.399h-.001c-.292.139-.626.298-1.043.46-1.5.587-3.218.587-4.062.587H11.59c-1.933 0-3.534 1.566-3.559 3.499-.007.536-.011 1.23-.011 1.79 0 1.797-1.662 3.73-2.672 4.687-.7.664-.868 1.063-.967 1.297l-.014.034a1.94 1.94 0 0 1-.02.044l.011.008a2.617 2.617 0 0 0 2.45 3.539h.965c-.499-.101-1.097-.246-1.566-.422-1.04-.39-1.14-1.27-1.113-1.613.02-.265.226-1.332 1.636-1.332.95 0 2.031.064 3.022.123.632.037 1.227.073 1.728.088 1.048.032 2.12-.065 2.57-1.215.47-1.43.848-1.91 1.907-1.91.493.03.872.049 1.124.062l.306.016c.7.047 1.452-.089 1.64-1.36.211-1.421 1.067-1.552 1.672-1.53.664.023 1.594.023 2.016-.29.422-.312.468-.883.468-1.304 0-.422.147-1.164 1.172-1.266 1.149-.115 1.375-.36 1.532-.578.226-.317.239-.694.187-1.266-.07-.777.115-1.26.582-1.558.617-.395 1.073.047 1.168.84.023.19.052.446.085.736.09.803.21 1.862.306 2.467v-3.618c0-.786-.615-1.43-1.39-1.474v-.002a2.429 2.429 0 0 0-.087 0Z" fill="url(#B)"/></g><path d="M26.74 13.508c-.148 0-.29.021-.424.062-.318.077-.621.221-.994.399h-.001c-.292.139-.626.298-1.043.46-1.5.587-3.218.587-4.062.587H11.59c-1.933 0-3.534 1.566-3.559 3.499-.007.536-.011 1.23-.011 1.79 0 1.797-1.662 3.73-2.672 4.687-.7.664-.868 1.063-.967 1.297l-.014.034a1.94 1.94 0 0 1-.02.044l.011.008a2.617 2.617 0 0 0 2.45 3.539h.965c-.499-.101-1.097-.246-1.566-.422-1.04-.39-1.14-1.27-1.113-1.613.02-.265.226-1.332 1.636-1.332.95 0 2.031.064 3.022.123.632.037 1.227.073 1.728.088 1.048.032 2.12-.065 2.57-1.215.47-1.43.848-1.91 1.907-1.91.493.03.872.049 1.124.062l.306.016c.7.047 1.452-.089 1.64-1.36.211-1.421 1.067-1.552 1.672-1.53.664.023 1.594.023 2.016-.29.422-.312.468-.883.468-1.304 0-.422.147-1.164 1.172-1.266 1.149-.115 1.375-.36 1.532-.578.226-.317.239-.694.187-1.266-.07-.777.115-1.26.582-1.558.617-.395 1.073.047 1.168.84.023.19.052.446.085.736.09.803.21 1.862.306 2.467v-3.618c0-.786-.615-1.43-1.39-1.474v-.002a2.429 2.429 0 0 0-.087 0Z" fill="url(#C)"/><path d="M26.74 13.508c-.148 0-.29.021-.424.062-.318.077-.621.221-.994.399h-.001c-.292.139-.626.298-1.043.46-1.5.587-3.218.587-4.062.587H11.59c-1.933 0-3.534 1.566-3.559 3.499-.007.536-.011 1.23-.011 1.79 0 1.797-1.662 3.73-2.672 4.687-.7.664-.868 1.063-.967 1.297l-.014.034a1.94 1.94 0 0 1-.02.044l.011.008a2.617 2.617 0 0 0 2.45 3.539h.965c-.499-.101-1.097-.246-1.566-.422-1.04-.39-1.14-1.27-1.113-1.613.02-.265.226-1.332 1.636-1.332.95 0 2.031.064 3.022.123.632.037 1.227.073 1.728.088 1.048.032 2.12-.065 2.57-1.215.47-1.43.848-1.91 1.907-1.91.493.03.872.049 1.124.062l.306.016c.7.047 1.452-.089 1.64-1.36.211-1.421 1.067-1.552 1.672-1.53.664.023 1.594.023 2.016-.29.422-.312.468-.883.468-1.304 0-.422.147-1.164 1.172-1.266 1.149-.115 1.375-.36 1.532-.578.226-.317.239-.694.187-1.266-.07-.777.115-1.26.582-1.558.617-.395 1.073.047 1.168.84.023.19.052.446.085.736.09.803.21 1.862.306 2.467v-3.618c0-.786-.615-1.43-1.39-1.474v-.002a2.429 2.429 0 0 0-.087 0Z" fill="url(#D)"/><g filter="url(#E)"><path d="m5.042 17.508-.35-.457-.578-1.078 1.38-.516.046 1.254.2.26a.44.44 0 1 1-.698.537Z" fill="#E1912D"/></g><g filter="url(#F)"><path d="M10.83 9.487c.288.55.075 1.23-.476 1.518l-3.072 1.57c-.257.133-.449.238-.543.613l-.332 1.27a1 1 0 0 0-.032.276l.04 1.756a.486.486 0 1 1-.973 0v-.807l-.568.408a.25.25 0 0 0-.103.218l.056.956a.486.486 0 1 1-.971.057l-.07-1.2c-.007-.126 0-.349.137-.528l.541-.869.184-1.733c.12-1.028.74-1.93 1.657-2.41l3.007-1.571a1.125 1.125 0 0 1 1.518.476Z" fill="#FFC237"/><path d="M10.83 9.487c.288.55.075 1.23-.476 1.518l-3.072 1.57c-.257.133-.449.238-.543.613l-.332 1.27a1 1 0 0 0-.032.276l.04 1.756a.486.486 0 1 1-.973 0v-.807l-.568.408a.25.25 0 0 0-.103.218l.056.956a.486.486 0 1 1-.971.057l-.07-1.2c-.007-.126 0-.349.137-.528l.541-.869.184-1.733c.12-1.028.74-1.93 1.657-2.41l3.007-1.571a1.125 1.125 0 0 1 1.518.476Z" fill="url(#G)"/></g><path d="m13.116 10.256-1.752-1.6.383-.172h2.04V9.96a.4.4 0 0 1-.67.296Z" fill="url(#H)"/><path d="m13.116 10.256-1.752-1.6.383-.172h2.04V9.96a.4.4 0 0 1-.67.296Z" fill="url(#I)"/><g filter="url(#J)"><path d="M10.056 6.811a.764.764 0 1 0 0-1.528.764.764 0 0 0 0 1.528Z" fill="url(#K)"/></g><g filter="url(#L)"><path d="M14.574 6.811a.764.764 0 1 0 0-1.528.764.764 0 0 0 0 1.528Z" fill="url(#M)"/></g><g filter="url(#N)"><path d="M14.575 6.557a.51.51 0 1 0 0-1.02.51.51 0 0 0 0 1.02Z" fill="#FFCA38"/><path d="M14.575 6.557a.51.51 0 1 0 0-1.02.51.51 0 0 0 0 1.02Z" fill="url(#O)"/></g><g filter="url(#P)"><path d="M10.065 6.557a.51.51 0 1 0 0-1.02.51.51 0 0 0 0 1.02Z" fill="#E28527"/><path d="M10.065 6.557a.51.51 0 1 0 0-1.02.51.51 0 0 0 0 1.02Z" fill="url(#Q)"/></g><path d="M9.95 4.792a.88.88 0 0 1 .25-.218l.038-.022c.286-.166.605-.352.764-.835h.007c.139.291.625.857 1.503.857h1.737c.154.03.432.151.453.624l-.057 1.46c-.058 1.33-1.098 2.225-2.367 2.225S9.97 7.989 9.911 6.658l-.046-1.21h.006l-.005-.127-.005-.145a.88.88 0 0 1 .089-.384Z" fill="url(#R)"/><path d="M9.95 4.792a.88.88 0 0 1 .25-.218l.038-.022c.286-.166.605-.352.764-.835h.007c.139.291.625.857 1.503.857h1.737c.154.03.432.151.453.624l-.057 1.46c-.058 1.33-1.098 2.225-2.367 2.225S9.97 7.989 9.911 6.658l-.046-1.21h.006l-.005-.127-.005-.145a.88.88 0 0 1 .089-.384Z" fill="url(#S)"/><path d="M9.95 4.792a.88.88 0 0 1 .25-.218l.038-.022c.286-.166.605-.352.764-.835h.007c.139.291.625.857 1.503.857h1.737c.154.03.432.151.453.624l-.057 1.46c-.058 1.33-1.098 2.225-2.367 2.225S9.97 7.989 9.911 6.658l-.046-1.21h.006l-.005-.127-.005-.145a.88.88 0 0 1 .089-.384Z" fill="url(#T)"/><path d="M9.95 4.792a.88.88 0 0 1 .25-.218l.038-.022c.286-.166.605-.352.764-.835h.007c.139.291.625.857 1.503.857h1.737c.154.03.432.151.453.624l-.057 1.46c-.058 1.33-1.098 2.225-2.367 2.225S9.97 7.989 9.911 6.658l-.046-1.21h.006l-.005-.127-.005-.145a.88.88 0 0 1 .089-.384Z" fill="url(#U)"/><path d="M9.95 4.792a.88.88 0 0 1 .25-.218l.038-.022c.286-.166.605-.352.764-.835h.007c.139.291.625.857 1.503.857h1.737c.154.03.432.151.453.624l-.057 1.46c-.058 1.33-1.098 2.225-2.367 2.225S9.97 7.989 9.911 6.658l-.046-1.21h.006l-.005-.127-.005-.145a.88.88 0 0 1 .089-.384Z" fill="url(#V)"/><g filter="url(#W)"><path d="m12.095 5.941-.324.808a.256.256 0 0 0 .247.332h.373a.257.257 0 0 0 .248-.332l-.253-.808c-.054-.179-.234-.179-.29 0Z" fill="#EB8B29"/></g><g filter="url(#X)"><path d="m12.1 5.875-.252.808a.256.256 0 0 0 .247.332h.373a.257.257 0 0 0 .248-.332l-.253-.808c-.054-.179-.306-.179-.363 0Z" fill="url(#Y)"/><path d="m12.1 5.875-.252.808a.256.256 0 0 0 .247.332h.373a.257.257 0 0 0 .248-.332l-.253-.808c-.054-.179-.306-.179-.363 0Z" fill="url(#Z)"/><path d="m12.1 5.875-.252.808a.256.256 0 0 0 .247.332h.373a.257.257 0 0 0 .248-.332l-.253-.808c-.054-.179-.306-.179-.363 0Z" fill="url(#aa)"/><path d="m12.1 5.875-.252.808a.256.256 0 0 0 .247.332h.373a.257.257 0 0 0 .248-.332l-.253-.808c-.054-.179-.306-.179-.363 0Z" fill="url(#ab)"/></g><path d="M12.282 7.43c-.248 0-.48-.06-.675-.164-.067-.035-.139.042-.097.104a.918.918 0 0 0 1.543 0c.042-.064-.03-.139-.096-.104a1.43 1.43 0 0 1-.675.164Z" fill="#8A004F"/><g filter="url(#ac)"><path d="M12.824 5.777c.126-.222.318-.397.73-.397.181 0 .355.05.51.175.128.103.11.235.012.285l-.264.15c-.31-.1-.652-.113-.988-.213Z" fill="#635D5F"/></g><g filter="url(#ad)"><path d="M11.74 5.777c-.127-.222-.318-.397-.73-.397-.181 0-.356.05-.51.175-.128.103-.111.235-.012.285l.264.15c.31-.1.652-.113.987-.213Z" fill="#635D5F"/></g><g filter="url(#ae)"><path d="M10.668 5.203h-.002v.001a.127.127 0 0 1-.13-.219h.001l.005-.003.015-.009.055-.028c.047-.022.114-.05.195-.077.161-.051.387-.095.63-.052a.127.127 0 1 1-.043.251c-.19-.033-.372 0-.51.044a1.303 1.303 0 0 0-.206.086l-.01.006Z" fill="#BD4F26"/></g><g filter="url(#af)"><path fill-rule="evenodd" clip-rule="evenodd" d="m14.054 4.985-.066.11.066-.11a.127.127 0 0 1-.13.219h-.001l-.002-.001a.77.77 0 0 0-.054-.028 1.294 1.294 0 0 0-.162-.064 1.078 1.078 0 0 0-.51-.044.127.127 0 0 1-.044-.25c.244-.044.47 0 .631.051a1.556 1.556 0 0 1 .265.114l.005.002h.001v.001h.001Z" fill="#BD4F26"/></g><path d="M13.418 5.408c.31 0 .572.214.643.503a.13.13 0 0 1-.127.161h-1.06a.11.11 0 0 1-.108-.129.664.664 0 0 1 .652-.535Z" fill="#fff"/><path d="M13.32 5.537a.424.424 0 0 1 .409.536h-.82a.426.426 0 0 1 .41-.536Z" fill="url(#ag)"/><path d="M13.076 5.961c0-.135.108-.243.243-.243a.242.242 0 0 1 .216.355h-.43a.22.22 0 0 1-.029-.112Z" fill="#000"/><g filter="url(#ah)"><path d="M13.288 5.626c.03.04-.033.09-.105.144-.071.053-.125.091-.155.05-.03-.04.004-.116.075-.17.072-.053.155-.064.185-.024Z" fill="#C7A7A3"/><path d="M13.288 5.626c.03.04-.033.09-.105.144-.071.053-.125.091-.155.05-.03-.04.004-.116.075-.17.072-.053.155-.064.185-.024Z" fill="url(#ai)"/></g><g filter="url(#aj)"><path d="M13.696 5.904a.397.397 0 0 0-.11-.219l-.123.135.056.108.177-.024Z" fill="url(#ak)"/></g><path d="M11.146 5.408a.664.664 0 0 0-.643.503.13.13 0 0 0 .127.161h1.06a.11.11 0 0 0 .107-.129.665.665 0 0 0-.65-.535Z" fill="#fff"/><path d="M11.245 5.537a.424.424 0 0 0-.41.536h.82a.427.427 0 0 0-.41-.536Z" fill="url(#al)"/><path d="M11.488 5.961a.242.242 0 0 0-.243-.243.242.242 0 0 0-.216.355h.43a.24.24 0 0 0 .029-.112Z" fill="#000"/><g filter="url(#am)"><path d="M11.63 5.91c0-.137-.11-.227-.14-.255l-.137.132.084.17.193-.047Z" fill="url(#an)"/></g><g filter="url(#ao)" transform="rotate(-27.914 11.116 5.718)"><ellipse cx="11.116" cy="5.718" rx=".185" ry=".094" fill="#C7A7A3" fill-opacity=".9"/><ellipse cx="11.116" cy="5.718" rx=".185" ry=".094" fill="url(#ap)"/></g><g filter="url(#aq)"><path d="M10.2 4.574a.81.81 0 0 0-.367.434c-.356-.82-.117-1.38.25-1.647.367-.268.484-.158.992-.654.508-.497 1.156-.678 2.523.079 1.094.605 1.399 1.444 1.414 1.788h-2.5a1.703 1.703 0 0 1-1.372-.648c-.056-.072-.192-.062-.235.019-.182.337-.46.486-.705.63Z" fill="#F7A427"/><path d="M10.2 4.574a.81.81 0 0 0-.367.434c-.356-.82-.117-1.38.25-1.647.367-.268.484-.158.992-.654.508-.497 1.156-.678 2.523.079 1.094.605 1.399 1.444 1.414 1.788h-2.5a1.703 1.703 0 0 1-1.372-.648c-.056-.072-.192-.062-.235.019-.182.337-.46.486-.705.63Z" fill="url(#ar)"/><path d="M10.2 4.574a.81.81 0 0 0-.367.434c-.356-.82-.117-1.38.25-1.647.367-.268.484-.158.992-.654.508-.497 1.156-.678 2.523.079 1.094.605 1.399 1.444 1.414 1.788h-2.5a1.703 1.703 0 0 1-1.372-.648c-.056-.072-.192-.062-.235.019-.182.337-.46.486-.705.63Z" fill="url(#as)"/><path d="M10.2 4.574a.81.81 0 0 0-.367.434c-.356-.82-.117-1.38.25-1.647.367-.268.484-.158.992-.654.508-.497 1.156-.678 2.523.079 1.094.605 1.399 1.444 1.414 1.788h-2.5a1.703 1.703 0 0 1-1.372-.648c-.056-.072-.192-.062-.235.019-.182.337-.46.486-.705.63Z" fill="url(#at)"/></g><g filter="url(#au)"><path fill-rule="evenodd" clip-rule="evenodd" d="M14.85 4.965c.013-.04.067-.057.1-.032a.599.599 0 1 0 .711-.963.067.067 0 0 1 0-.104.598.598 0 0 0-.705-.967c-.035.025-.09.007-.102-.034a.6.6 0 1 0-1.14.368c.014.04-.02.087-.062.087h-.004a.599.599 0 0 0 0 1.197c.04 0 .073.044.061.083a.599.599 0 0 0 1.14.365Z" fill="url(#av)"/></g><g filter="url(#aw)"><path fill-rule="evenodd" clip-rule="evenodd" d="M14.718 4.488a.439.439 0 0 1-.004.015c-.072.222-.282.352-.47.292-.187-.061-.28-.29-.209-.512l.008-.02a.47.47 0 0 1-.039 0c-.226 0-.409-.159-.409-.356 0-.197.183-.356.409-.356h.007A.398.398 0 0 1 14 3.506c-.043-.221.088-.433.293-.473.194-.037.385.094.44.296l.004-.002c.181-.134.423-.113.54.045.116.159.064.396-.118.53a.602.602 0 0 1-.016.01c.02.015.039.032.056.05.162.168.178.415.036.551-.133.128-.356.114-.517-.025Z" fill="url(#ax)"/></g><defs><radialGradient id="b" cx="0" cy="0" r="1" gradientUnits="userSpaceOnUse" gradientTransform="rotate(78.857 5.16 9.481) scale(6.30639 6.26922)"><stop offset=".315" stop-color="#F0C537"/><stop offset="1" stop-color="#FF971F"/></radialGradient><radialGradient id="c" cx="0" cy="0" r="1" gradientUnits="userSpaceOnUse" gradientTransform="rotate(-118.32 8.761 3.708) scale(6.38977 11.6013)"><stop offset=".069" stop-color="#E1691F"/><stop offset="1" stop-color="#E1691F" stop-opacity="0"/></radialGradient><radialGradient id="d" cx="0" cy="0" r="1" gradientUnits="userSpaceOnUse" gradientTransform="matrix(2.8125 .98437 -1.3538 3.868 13.185 7.46)"><stop offset=".297" stop-color="#E06B0E"/><stop offset="1" stop-color="#FF8610" stop-opacity="0"/></radialGradient><radialGradient id="e" cx="0" cy="0" r="1" gradientUnits="userSpaceOnUse" gradientTransform="rotate(148.061 4.365 5.536) scale(4.67675 4.03986)"><stop offset=".17" stop-color="#AF4103"/><stop offset="1" stop-color="#E7740E" stop-opacity="0"/></radialGradient><radialGradient id="f" cx="0" cy="0" r="1" gradientUnits="userSpaceOnUse" gradientTransform="matrix(-.72385 .89617 -.8799 -.7107 10.19 6.344)"><stop offset=".262" stop-color="#C0500A"/><stop offset="1" stop-color="#C0500A" stop-opacity="0"/></radialGradient><radialGradient id="g" cx="0" cy="0" r="1" gradientUnits="userSpaceOnUse" gradientTransform="rotate(59.146 3.463 10.989) scale(1.54581 3.33775)"><stop stop-color="#CEA741"/><stop offset="1" stop-color="#CEA741" stop-opacity="0"/></radialGradient><radialGradient id="j" cx="0" cy="0" r="1" gradientUnits="userSpaceOnUse" gradientTransform="matrix(-1.72861 4.02946 -1.91414 -.82115 8.63 27.856)"><stop stop-color="#6C1118"/><stop offset="1" stop-color="#6C1118" stop-opacity="0"/></radialGradient><radialGradient id="n" cx="0" cy="0" r="1" gradientUnits="userSpaceOnUse" gradientTransform="rotate(117.071 -3.416 17.085) scale(2.08793 1.98277)"><stop stop-color="#EE3148"/><stop offset="1" stop-color="#CC2E32"/></radialGradient><radialGradient id="p" cx="0" cy="0" r="1" gradientUnits="userSpaceOnUse" gradientTransform="matrix(-1.214 1.125 -1.1662 -1.25845 22.774 3.711)"><stop stop-color="#FDC938"/><stop offset="1" stop-color="#FDC938" stop-opacity="0"/></radialGradient><radialGradient id="q" cx="0" cy="0" r="1" gradientUnits="userSpaceOnUse" gradientTransform="matrix(-.6875 .75 -.5221 -.47859 20.685 3.399)"><stop stop-color="#FFCA3F"/><stop offset="1" stop-color="#FFCA3F" stop-opacity="0"/></radialGradient><radialGradient id="r" cx="0" cy="0" r="1" gradientUnits="userSpaceOnUse" gradientTransform="matrix(0 3.125 -1.17925 0 20.872 7.586)"><stop offset=".264" stop-color="#FFD03E"/><stop offset="1" stop-color="#FFD03E" stop-opacity="0"/></radialGradient><radialGradient id="s" cx="0" cy="0" r="1" gradientUnits="userSpaceOnUse" gradientTransform="matrix(3.28125 0 0 .75 15.185 9.742)"><stop stop-color="#FFB92F"/><stop offset="1" stop-color="#FFB92F" stop-opacity="0"/></radialGradient><radialGradient id="u" cx="0" cy="0" r="1" gradientUnits="userSpaceOnUse" gradientTransform="matrix(-5.18747 -5.71878 5.09832 -4.62466 15.278 14.836)"><stop stop-color="#FF3B57"/><stop offset="1" stop-color="#E9283F"/></radialGradient><radialGradient id="v" cx="0" cy="0" r="1" gradientUnits="userSpaceOnUse" gradientTransform="matrix(3.125 -.45703 .8012 5.4783 9.84 12.324)"><stop offset=".481" stop-color="#D62645"/><stop offset="1" stop-color="#D62645" stop-opacity="0"/></radialGradient><radialGradient id="w" cx="0" cy="0" r="1" gradientUnits="userSpaceOnUse" gradientTransform="matrix(-5.4375 0 0 -4.28125 16.153 9.867)"><stop offset=".144" stop-color="#FF4660"/><stop offset="1" stop-color="#FF4660" stop-opacity="0"/></radialGradient><radialGradient id="x" cx="0" cy="0" r="1" gradientUnits="userSpaceOnUse" gradientTransform="matrix(-2.14245 .25001 -.22815 -1.9551 15.952 12.71)"><stop stop-color="#F22B4E"/><stop offset="1" stop-color="#F22B4E" stop-opacity="0"/></radialGradient><radialGradient id="z" cx="0" cy="0" r="1" gradientUnits="userSpaceOnUse" gradientTransform="rotate(45.496 -14.752 21.43) scale(10.2092 15.8767)"><stop stop-color="#D42F4E"/><stop offset="1" stop-color="#DA2E3D"/></radialGradient><radialGradient id="B" cx="0" cy="0" r="1" gradientUnits="userSpaceOnUse" gradientTransform="matrix(.875 -4.4375 3.8181 .75287 27.06 16.648)"><stop offset=".37" stop-color="#E73E59"/><stop offset="1" stop-color="#E73E59" stop-opacity="0"/></radialGradient><radialGradient id="C" cx="0" cy="0" r="1" gradientUnits="userSpaceOnUse" gradientTransform="matrix(4.72488 -2.8426 6.67598 11.09657 4.788 29.252)"><stop stop-color="#D32659"/><stop offset="1" stop-color="#D32659" stop-opacity="0"/></radialGradient><radialGradient id="D" cx="0" cy="0" r="1" gradientUnits="userSpaceOnUse" gradientTransform="matrix(.81156 -4.64805 2.43505 .42516 28.216 17.497)"><stop stop-color="#B01B4B"/><stop offset="1" stop-color="#B01B4B" stop-opacity="0"/></radialGradient><radialGradient id="G" cx="0" cy="0" r="1" gradientUnits="userSpaceOnUse" gradientTransform="rotate(146.197 4.07 6.302) scale(2.1345 2.96029)"><stop offset=".253" stop-color="#FFCE35"/><stop offset="1" stop-color="#FFCE35" stop-opacity="0"/></radialGradient><radialGradient id="H" cx="0" cy="0" r="1" gradientUnits="userSpaceOnUse" gradientTransform="rotate(-56.976 15.736 -6.59) scale(1.86357 2.40477)"><stop offset=".304" stop-color="#FFD23B"/><stop offset="1" stop-color="#EBA410"/></radialGradient><radialGradient id="I" cx="0" cy="0" r="1" gradientUnits="userSpaceOnUse" gradientTransform="rotate(47.291 -3.816 17.657) scale(1.79682 5.00055)"><stop stop-color="#C97000"/><stop offset="1" stop-color="#FCAD16" stop-opacity="0"/></radialGradient><radialGradient id="M" cx="0" cy="0" r="1" gradientUnits="userSpaceOnUse" gradientTransform="matrix(1.18223 -.53738 .65611 1.44344 14.2 6.256)"><stop offset=".572" stop-color="#FFC531"/><stop offset=".905" stop-color="#FFE549"/></radialGradient><radialGradient id="O" cx="0" cy="0" r="1" gradientUnits="userSpaceOnUse" gradientTransform="rotate(-20.298 24.438 -37.318) scale(.61964)"><stop offset=".71" stop-color="#FFBA25" stop-opacity="0"/><stop offset="1" stop-color="#FFBA25"/></radialGradient><radialGradient id="Q" cx="0" cy="0" r="1" gradientUnits="userSpaceOnUse" gradientTransform="matrix(-.51017 0 0 -.48801 10.065 6.047)"><stop offset=".415" stop-color="#D67923" stop-opacity="0"/><stop offset="1" stop-color="#D67923"/></radialGradient><radialGradient id="R" cx="0" cy="0" r="1" gradientUnits="userSpaceOnUse" gradientTransform="rotate(141.306 6.056 5.14) scale(5.29858 4.93449)"><stop stop-color="#FFE644"/><stop offset="1" stop-color="#EE8620"/></radialGradient><radialGradient id="S" cx="0" cy="0" r="1" gradientUnits="userSpaceOnUse" gradientTransform="matrix(.39752 -1.92132 2.43779 .50437 11.246 9.013)"><stop stop-color="#E4883F"/><stop offset="1" stop-color="#E4883F" stop-opacity="0"/></radialGradient><radialGradient id="T" cx="0" cy="0" r="1" gradientUnits="userSpaceOnUse" gradientTransform="matrix(0 -.54658 .6708 0 13.375 5.593)"><stop stop-color="#FFBB31"/><stop offset="1" stop-color="#FFBB31" stop-opacity="0"/></radialGradient><radialGradient id="U" cx="0" cy="0" r="1" gradientUnits="userSpaceOnUse" gradientTransform="matrix(0 -.64596 .74031 0 11.37 5.634)"><stop stop-color="#F09429"/><stop offset="1" stop-color="#F09429" stop-opacity="0"/></radialGradient><radialGradient id="V" cx="0" cy="0" r="1" gradientUnits="userSpaceOnUse" gradientTransform="rotate(137.064 6.277 5.296) scale(2.70714 3.12769)"><stop stop-color="#EF9025"/><stop offset="1" stop-color="#EF9025" stop-opacity="0"/></radialGradient><radialGradient id="Z" cx="0" cy="0" r="1" gradientUnits="userSpaceOnUse" gradientTransform="rotate(-105.892 8.836 -1.455) scale(1.20979 .69226)"><stop offset=".017" stop-color="#FFE848"/><stop offset="1" stop-color="#FFE848" stop-opacity="0"/></radialGradient><radialGradient id="ag" cx="0" cy="0" r="1" gradientUnits="userSpaceOnUse" gradientTransform="matrix(0 .38577 -.61361 0 13.319 5.764)"><stop offset=".802" stop-color="#925C51"/><stop offset="1" stop-color="#694B43"/><stop offset="1" stop-color="#804D49"/><stop offset="1" stop-color="#85534D"/></radialGradient><radialGradient id="ai" cx="0" cy="0" r="1" gradientUnits="userSpaceOnUse" gradientTransform="matrix(-.11006 -.14182 .19525 -.15152 13.21 5.803)"><stop offset=".766" stop-color="#FFE6E2" stop-opacity="0"/><stop offset=".966" stop-color="#FFE6E2"/></radialGradient><radialGradient id="al" cx="0" cy="0" r="1" gradientUnits="userSpaceOnUse" gradientTransform="matrix(0 .38577 -.61362 0 11.246 5.764)"><stop offset=".802" stop-color="#925C51"/><stop offset="1" stop-color="#694B43"/><stop offset="1" stop-color="#804D49"/><stop offset="1" stop-color="#85534D"/></radialGradient><radialGradient id="ap" cx="0" cy="0" r="1" gradientUnits="userSpaceOnUse" gradientTransform="rotate(-90.897 8.443 -2.535) scale(.23448 .28186)"><stop offset=".766" stop-color="#FFE6E2" stop-opacity="0"/><stop offset=".966" stop-color="#FFE6E2"/></radialGradient><radialGradient id="ar" cx="0" cy="0" r="1" gradientUnits="userSpaceOnUse" gradientTransform="matrix(-.8358 1.27533 -1.8234 -1.19497 13.17 3.242)"><stop offset=".426" stop-color="#FFC426"/><stop offset="1" stop-color="#FFC426" stop-opacity="0"/></radialGradient><radialGradient id="as" cx="0" cy="0" r="1" gradientUnits="userSpaceOnUse" gradientTransform="rotate(142.413 5.737 3.52) scale(3.30578 3.33435)"><stop offset=".842" stop-color="#F29D23" stop-opacity="0"/><stop offset="1" stop-color="#F29D23"/></radialGradient><radialGradient id="at" cx="0" cy="0" r="1" gradientUnits="userSpaceOnUse" gradientTransform="matrix(-1.41321 0 0 -1.02779 13.912 4.224)"><stop stop-color="#E16F21"/><stop offset="1" stop-color="#E16F21" stop-opacity="0"/></radialGradient><filter id="a" x="4.894" y="1.686" width="11.865" height="12.477" filterUnits="userSpaceOnUse" color-interpolation-filters="sRGB"><feFlood flood-opacity="0" result="BackgroundImageFix"/><feBlend in="SourceGraphic" in2="BackgroundImageFix" result="shape"/><feColorMatrix in="SourceAlpha" values="0 0 0 0 0 0 0 0 0 0 0 0 0 0 0 0 0 0 127 0" result="hardAlpha"/><feOffset dx=".4" dy=".4"/><feGaussianBlur stdDeviation=".5"/><feComposite in2="hardAlpha" operator="arithmetic" k2="-1" k3="1"/><feColorMatrix values="0 0 0 0 1 0 0 0 0 0.658824 0 0 0 0 0.160784 0 0 0 1 0"/><feBlend in2="shape" result="effect1_innerShadow_4002_606"/><feColorMatrix in="SourceAlpha" values="0 0 0 0 0 0 0 0 0 0 0 0 0 0 0 0 0 0 127 0" result="hardAlpha"/><feOffset dx=".2" dy="-.4"/><feGaussianBlur stdDeviation=".4"/><feComposite in2="hardAlpha" operator="arithmetic" k2="-1" k3="1"/><feColorMatrix values="0 0 0 0 0.823529 0 0 0 0 0.396078 0 0 0 0 0.227451 0 0 0 1 0"/><feBlend in2="effect1_innerShadow_4002_606" result="effect2_innerShadow_4002_606"/></filter><filter id="k" x="16.966" y="21.109" width="5.901" height="8.773" filterUnits="userSpaceOnUse" color-interpolation-filters="sRGB"><feFlood flood-opacity="0" result="BackgroundImageFix"/><feBlend in="SourceGraphic" in2="BackgroundImageFix" result="shape"/><feColorMatrix in="SourceAlpha" values="0 0 0 0 0 0 0 0 0 0 0 0 0 0 0 0 0 0 127 0" result="hardAlpha"/><feOffset dx=".5" dy="-.5"/><feGaussianBlur stdDeviation=".625"/><feComposite in2="hardAlpha" operator="arithmetic" k2="-1" k3="1"/><feColorMatrix values="0 0 0 0 0.862745 0 0 0 0 0.517647 0 0 0 0 0.235294 0 0 0 1 0"/><feBlend in2="shape" result="effect1_innerShadow_4002_606"/></filter><filter id="l" x="19.082" y="27.435" width="4.034" height="2.448" filterUnits="userSpaceOnUse" color-interpolation-filters="sRGB"><feFlood flood-opacity="0" result="BackgroundImageFix"/><feBlend in="SourceGraphic" in2="BackgroundImageFix" result="shape"/><feColorMatrix in="SourceAlpha" values="0 0 0 0 0 0 0 0 0 0 0 0 0 0 0 0 0 0 127 0" result="hardAlpha"/><feOffset dx=".75" dy="-.1"/><feGaussianBlur stdDeviation=".375"/><feComposite in2="hardAlpha" operator="arithmetic" k2="-1" k3="1"/><feColorMatrix values="0 0 0 0 0.85098 0 0 0 0 0.219608 0 0 0 0 0.298039 0 0 0 1 0"/><feBlend in2="shape" result="effect1_innerShadow_4002_606"/></filter><filter id="o" x="14.521" y="2.934" width="8.253" height="7.777" filterUnits="userSpaceOnUse" color-interpolation-filters="sRGB"><feFlood flood-opacity="0" result="BackgroundImageFix"/><feBlend in="SourceGraphic" in2="BackgroundImageFix" result="shape"/><feColorMatrix in="SourceAlpha" values="0 0 0 0 0 0 0 0 0 0 0 0 0 0 0 0 0 0 127 0" result="hardAlpha"/><feOffset/><feGaussianBlur stdDeviation=".5"/><feComposite in2="hardAlpha" operator="arithmetic" k2="-1" k3="1"/><feColorMatrix values="0 0 0 0 0.94902 0 0 0 0 0.639216 0 0 0 0 0.184314 0 0 0 1 0"/><feBlend in2="shape" result="effect1_innerShadow_4002_606"/><feColorMatrix in="SourceAlpha" values="0 0 0 0 0 0 0 0 0 0 0 0 0 0 0 0 0 0 127 0" result="hardAlpha"/><feOffset dy="-.25"/><feGaussianBlur stdDeviation=".375"/><feComposite in2="hardAlpha" operator="arithmetic" k2="-1" k3="1"/><feColorMatrix values="0 0 0 0 0.929412 0 0 0 0 0.490196 0 0 0 0 0.211765 0 0 0 1 0"/><feBlend in2="effect1_innerShadow_4002_606" result="effect2_innerShadow_4002_606"/></filter><filter id="t" x="9.022" y="7.938" width="7.93" height="8.273" filterUnits="userSpaceOnUse" color-interpolation-filters="sRGB"><feFlood flood-opacity="0" result="BackgroundImageFix"/><feBlend in="SourceGraphic" in2="BackgroundImageFix" result="shape"/><feColorMatrix in="SourceAlpha" values="0 0 0 0 0 0 0 0 0 0 0 0 0 0 0 0 0 0 127 0" result="hardAlpha"/><feOffset dx="1" dy="-.5"/><feGaussianBlur stdDeviation=".5"/><feComposite in2="hardAlpha" operator="arithmetic" k2="-1" k3="1"/><feColorMatrix values="0 0 0 0 0.741176 0 0 0 0 0.207843 0 0 0 0 0.262745 0 0 0 1 0"/><feBlend in2="shape" result="effect1_innerShadow_4002_606"/></filter><filter id="y" x="4.092" y="13.208" width="24.323" height="17.206" filterUnits="userSpaceOnUse" color-interpolation-filters="sRGB"><feFlood flood-opacity="0" result="BackgroundImageFix"/><feBlend in="SourceGraphic" in2="BackgroundImageFix" result="shape"/><feColorMatrix in="SourceAlpha" values="0 0 0 0 0 0 0 0 0 0 0 0 0 0 0 0 0 0 127 0" result="hardAlpha"/><feOffset dx="-.1" dy="-.3"/><feGaussianBlur stdDeviation=".25"/><feComposite in2="hardAlpha" operator="arithmetic" k2="-1" k3="1"/><feColorMatrix values="0 0 0 0 0.92549 0 0 0 0 0.27451 0 0 0 0 0.372549 0 0 0 1 0"/><feBlend in2="shape" result="effect1_innerShadow_4002_606"/><feColorMatrix in="SourceAlpha" values="0 0 0 0 0 0 0 0 0 0 0 0 0 0 0 0 0 0 127 0" result="hardAlpha"/><feOffset dx=".2" dy="-.2"/><feGaussianBlur stdDeviation=".1"/><feComposite in2="hardAlpha" operator="arithmetic" k2="-1" k3="1"/><feColorMatrix values="0 0 0 0 0.866667 0 0 0 0 0.2 0 0 0 0 0.380392 0 0 0 1 0"/><feBlend in2="effect1_innerShadow_4002_606" result="effect2_innerShadow_4002_606"/><feColorMatrix in="SourceAlpha" values="0 0 0 0 0 0 0 0 0 0 0 0 0 0 0 0 0 0 127 0" result="hardAlpha"/><feOffset dy=".5"/><feGaussianBlur stdDeviation=".5"/><feComposite in2="hardAlpha" operator="arithmetic" k2="-1" k3="1"/><feColorMatrix values="0 0 0 0 0.862745 0 0 0 0 0.141176 0 0 0 0 0.282353 0 0 0 1 0"/><feBlend in2="effect2_innerShadow_4002_606" result="effect3_innerShadow_4002_606"/></filter><filter id="E" x="4.114" y="15.457" width="2.218" height="2.723" filterUnits="userSpaceOnUse" color-interpolation-filters="sRGB"><feFlood flood-opacity="0" result="BackgroundImageFix"/><feBlend in="SourceGraphic" in2="BackgroundImageFix" result="shape"/><feColorMatrix in="SourceAlpha" values="0 0 0 0 0 0 0 0 0 0 0 0 0 0 0 0 0 0 127 0" result="hardAlpha"/><feOffset dx=".75" dy=".5"/><feGaussianBlur stdDeviation=".25"/><feComposite in2="hardAlpha" operator="arithmetic" k2="-1" k3="1"/><feColorMatrix values="0 0 0 0 0.835294 0 0 0 0 0.494118 0 0 0 0 0.0431373 0 0 0 1 0"/><feBlend in2="shape" result="effect1_innerShadow_4002_606"/></filter><filter id="F" x="3.684" y="8.783" width="7.274" height="8.998" filterUnits="userSpaceOnUse" color-interpolation-filters="sRGB"><feFlood flood-opacity="0" result="BackgroundImageFix"/><feBlend in="SourceGraphic" in2="BackgroundImageFix" result="shape"/><feColorMatrix in="SourceAlpha" values="0 0 0 0 0 0 0 0 0 0 0 0 0 0 0 0 0 0 127 0" result="hardAlpha"/><feOffset/><feGaussianBlur stdDeviation=".5"/><feComposite in2="hardAlpha" operator="arithmetic" k2="-1" k3="1"/><feColorMatrix values="0 0 0 0 0.933333 0 0 0 0 0.65098 0 0 0 0 0.0784314 0 0 0 1 0"/><feBlend in2="shape" result="effect1_innerShadow_4002_606"/><feColorMatrix in="SourceAlpha" values="0 0 0 0 0 0 0 0 0 0 0 0 0 0 0 0 0 0 127 0" result="hardAlpha"/><feOffset dx="-.1" dy="-.1"/><feGaussianBlur stdDeviation=".25"/><feComposite in2="hardAlpha" operator="arithmetic" k2="-1" k3="1"/><feColorMatrix values="0 0 0 0 0.929412 0 0 0 0 0.607843 0 0 0 0 0.196078 0 0 0 1 0"/><feBlend in2="effect1_innerShadow_4002_606" result="effect2_innerShadow_4002_606"/></filter><filter id="J" x="9.292" y="5.283" width="1.629" height="1.529" filterUnits="userSpaceOnUse" color-interpolation-filters="sRGB"><feFlood flood-opacity="0" result="BackgroundImageFix"/><feBlend in="SourceGraphic" in2="BackgroundImageFix" result="shape"/><feColorMatrix in="SourceAlpha" values="0 0 0 0 0 0 0 0 0 0 0 0 0 0 0 0 0 0 127 0" result="hardAlpha"/><feOffset dx=".1"/><feGaussianBlur stdDeviation=".15"/><feComposite in2="hardAlpha" operator="arithmetic" k2="-1" k3="1"/><feColorMatrix values="0 0 0 0 0.768627 0 0 0 0 0.501961 0 0 0 0 0.160784 0 0 0 1 0"/><feBlend in2="shape" result="effect1_innerShadow_4002_606"/></filter><filter id="L" x="13.81" y="5.033" width="1.529" height="1.779" filterUnits="userSpaceOnUse" color-interpolation-filters="sRGB"><feFlood flood-opacity="0" result="BackgroundImageFix"/><feBlend in="SourceGraphic" in2="BackgroundImageFix" result="shape"/><feColorMatrix in="SourceAlpha" values="0 0 0 0 0 0 0 0 0 0 0 0 0 0 0 0 0 0 127 0" result="hardAlpha"/><feOffset dy="-.25"/><feGaussianBlur stdDeviation=".25"/><feComposite in2="hardAlpha" operator="arithmetic" k2="-1" k3="1"/><feColorMatrix values="0 0 0 0 0.937255 0 0 0 0 0.576471 0 0 0 0 0.341176 0 0 0 1 0"/><feBlend in2="shape" result="effect1_innerShadow_4002_606"/></filter><filter id="N" x="13.964" y="5.437" width="1.22" height="1.22" filterUnits="userSpaceOnUse" color-interpolation-filters="sRGB"><feFlood flood-opacity="0" result="BackgroundImageFix"/><feBlend in="SourceGraphic" in2="BackgroundImageFix" result="shape"/><feGaussianBlur stdDeviation=".05" result="effect1_foregroundBlur_4002_606"/></filter><filter id="P" x="9.455" y="5.437" width="1.22" height="1.22" filterUnits="userSpaceOnUse" color-interpolation-filters="sRGB"><feFlood flood-opacity="0" result="BackgroundImageFix"/><feBlend in="SourceGraphic" in2="BackgroundImageFix" result="shape"/><feGaussianBlur stdDeviation=".05" result="effect1_foregroundBlur_4002_606"/></filter><filter id="W" x="11.259" y="5.307" width="1.892" height="2.274" filterUnits="userSpaceOnUse" color-interpolation-filters="sRGB"><feFlood flood-opacity="0" result="BackgroundImageFix"/><feBlend in="SourceGraphic" in2="BackgroundImageFix" result="shape"/><feGaussianBlur stdDeviation=".25" result="effect1_foregroundBlur_4002_606"/></filter><filter id="X" x="11.786" y="5.691" width=".992" height="1.374" filterUnits="userSpaceOnUse" color-interpolation-filters="sRGB"><feFlood flood-opacity="0" result="BackgroundImageFix"/><feBlend in="SourceGraphic" in2="BackgroundImageFix" result="shape"/><feGaussianBlur stdDeviation=".025" result="effect1_foregroundBlur_4002_606"/></filter><filter id="ac" x="12.624" y="5.38" width="1.531" height=".611" filterUnits="userSpaceOnUse" color-interpolation-filters="sRGB"><feFlood flood-opacity="0" result="BackgroundImageFix"/><feBlend in="SourceGraphic" in2="BackgroundImageFix" result="shape"/><feColorMatrix in="SourceAlpha" values="0 0 0 0 0 0 0 0 0 0 0 0 0 0 0 0 0 0 127 0" result="hardAlpha"/><feOffset dx="-.2"/><feGaussianBlur stdDeviation=".2"/><feComposite in2="hardAlpha" operator="arithmetic" k2="-1" k3="1"/><feColorMatrix values="0 0 0 0 0.141176 0 0 0 0 0.0862745 0 0 0 0 0.176471 0 0 0 1 0"/><feBlend in2="shape" result="effect1_innerShadow_4002_606"/></filter><filter id="ad" x="10.409" y="5.38" width="1.531" height=".611" filterUnits="userSpaceOnUse" color-interpolation-filters="sRGB"><feFlood flood-opacity="0" result="BackgroundImageFix"/><feBlend in="SourceGraphic" in2="BackgroundImageFix" result="shape"/><feColorMatrix in="SourceAlpha" values="0 0 0 0 0 0 0 0 0 0 0 0 0 0 0 0 0 0 127 0" result="hardAlpha"/><feOffset dx=".2"/><feGaussianBlur stdDeviation=".125"/><feComposite in2="hardAlpha" operator="arithmetic" k2="-1" k3="1"/><feColorMatrix values="0 0 0 0 0.133333 0 0 0 0 0.0784314 0 0 0 0 0.168627 0 0 0 1 0"/><feBlend in2="shape" result="effect1_innerShadow_4002_606"/></filter><filter id="ae" x="10.473" y="4.599" width="1.27" height=".623" filterUnits="userSpaceOnUse" color-interpolation-filters="sRGB"><feFlood flood-opacity="0" result="BackgroundImageFix"/><feBlend in="SourceGraphic" in2="BackgroundImageFix" result="shape"/><feColorMatrix in="SourceAlpha" values="0 0 0 0 0 0 0 0 0 0 0 0 0 0 0 0 0 0 127 0" result="hardAlpha"/><feOffset dx=".2" dy="-.2"/><feGaussianBlur stdDeviation=".15"/><feComposite in2="hardAlpha" operator="arithmetic" k2="-1" k3="1"/><feColorMatrix values="0 0 0 0 0.658824 0 0 0 0 0.270588 0 0 0 0 0.141176 0 0 0 1 0"/><feBlend in2="shape" result="effect1_innerShadow_4002_606"/></filter><filter id="af" x="13.046" y="4.599" width="1.27" height=".623" filterUnits="userSpaceOnUse" color-interpolation-filters="sRGB"><feFlood flood-opacity="0" result="BackgroundImageFix"/><feBlend in="SourceGraphic" in2="BackgroundImageFix" result="shape"/><feColorMatrix in="SourceAlpha" values="0 0 0 0 0 0 0 0 0 0 0 0 0 0 0 0 0 0 127 0" result="hardAlpha"/><feOffset dx=".2" dy="-.2"/><feGaussianBlur stdDeviation=".15"/><feComposite in2="hardAlpha" operator="arithmetic" k2="-1" k3="1"/><feColorMatrix values="0 0 0 0 0.658824 0 0 0 0 0.270588 0 0 0 0 0.141176 0 0 0 1 0"/><feBlend in2="shape" result="effect1_innerShadow_4002_606"/></filter><filter id="ah" x="12.917" y="5.502" width=".478" height=".436" filterUnits="userSpaceOnUse" color-interpolation-filters="sRGB"><feFlood flood-opacity="0" result="BackgroundImageFix"/><feBlend in="SourceGraphic" in2="BackgroundImageFix" result="shape"/><feGaussianBlur stdDeviation=".05" result="effect1_foregroundBlur_4002_606"/></filter><filter id="aj" x="13.263" y="5.485" width=".632" height=".643" filterUnits="userSpaceOnUse" color-interpolation-filters="sRGB"><feFlood flood-opacity="0" result="BackgroundImageFix"/><feBlend in="SourceGraphic" in2="BackgroundImageFix" result="shape"/><feGaussianBlur stdDeviation=".1" result="effect1_foregroundBlur_4002_606"/></filter><filter id="am" x="11.153" y="5.455" width=".677" height=".703" filterUnits="userSpaceOnUse" color-interpolation-filters="sRGB"><feFlood flood-opacity="0" result="BackgroundImageFix"/><feBlend in="SourceGraphic" in2="BackgroundImageFix" result="shape"/><feGaussianBlur stdDeviation=".1" result="effect1_foregroundBlur_4002_606"/></filter><filter id="ao" x="10.847" y="5.498" width=".538" height=".439" filterUnits="userSpaceOnUse" color-interpolation-filters="sRGB"><feFlood flood-opacity="0" result="BackgroundImageFix"/><feBlend in="SourceGraphic" in2="BackgroundImageFix" result="shape"/><feGaussianBlur stdDeviation=".05" result="effect1_foregroundBlur_4002_606"/></filter><filter id="aq" x="9.558" y="2.176" width="5.555" height="2.932" filterUnits="userSpaceOnUse" color-interpolation-filters="sRGB"><feFlood flood-opacity="0" result="BackgroundImageFix"/><feBlend in="SourceGraphic" in2="BackgroundImageFix" result="shape"/><feGaussianBlur stdDeviation=".05" result="effect1_foregroundBlur_4002_606"/></filter><filter id="au" x="12.949" y="2.439" width="2.957" height="3.037" filterUnits="userSpaceOnUse" color-interpolation-filters="sRGB"><feFlood flood-opacity="0" result="BackgroundImageFix"/><feBlend in="SourceGraphic" in2="BackgroundImageFix" result="shape"/><feColorMatrix in="SourceAlpha" values="0 0 0 0 0 0 0 0 0 0 0 0 0 0 0 0 0 0 127 0" result="hardAlpha"/><feOffset/><feGaussianBlur stdDeviation=".125"/><feComposite in2="hardAlpha" operator="arithmetic" k2="-1" k3="1"/><feColorMatrix values="0 0 0 0 0.831373 0 0 0 0 0.341176 0 0 0 0 0.223529 0 0 0 1 0"/><feBlend in2="shape" result="effect1_innerShadow_4002_606"/><feColorMatrix in="SourceAlpha" values="0 0 0 0 0 0 0 0 0 0 0 0 0 0 0 0 0 0 127 0" result="hardAlpha"/><feOffset dx="-.1" dy=".1"/><feGaussianBlur stdDeviation=".15"/><feComposite in2="hardAlpha" operator="arithmetic" k2="-1" k3="1"/><feColorMatrix values="0 0 0 0 0.917647 0 0 0 0 0.247059 0 0 0 0 0.32549 0 0 0 1 0"/><feBlend in2="effect1_innerShadow_4002_606" result="effect2_innerShadow_4002_606"/></filter><filter id="aw" x="13.445" y="3.027" width="1.893" height="1.933" filterUnits="userSpaceOnUse" color-interpolation-filters="sRGB"><feFlood flood-opacity="0" result="BackgroundImageFix"/><feBlend in="SourceGraphic" in2="BackgroundImageFix" result="shape"/><feColorMatrix in="SourceAlpha" values="0 0 0 0 0 0 0 0 0 0 0 0 0 0 0 0 0 0 127 0" result="hardAlpha"/><feOffset dx="-.15" dy=".15"/><feGaussianBlur stdDeviation=".125"/><feComposite in2="hardAlpha" operator="arithmetic" k2="-1" k3="1"/><feColorMatrix values="0 0 0 0 0.815686 0 0 0 0 0.266667 0 0 0 0 0.345098 0 0 0 1 0"/><feBlend in2="shape" result="effect1_innerShadow_4002_606"/><feColorMatrix in="SourceAlpha" values="0 0 0 0 0 0 0 0 0 0 0 0 0 0 0 0 0 0 127 0" result="hardAlpha"/><feOffset/><feGaussianBlur stdDeviation=".125"/><feComposite in2="hardAlpha" operator="arithmetic" k2="-1" k3="1"/><feColorMatrix values="0 0 0 0 0.74902 0 0 0 0 0.0627451 0 0 0 0 0.219608 0 0 0 1 0"/><feBlend in2="effect1_innerShadow_4002_606" result="effect2_innerShadow_4002_606"/></filter><linearGradient id="h" x1="21.631" y1="20.756" x2="12.192" y2="31.059" gradientUnits="userSpaceOnUse"><stop stop-color="#911C39"/><stop offset="1" stop-color="#9A3037"/></linearGradient><linearGradient id="i" x1="9.974" y1="24.594" x2="19.537" y2="28.553" gradientUnits="userSpaceOnUse"><stop stop-color="#851E29"/><stop offset="1" stop-color="#851E29" stop-opacity="0"/></linearGradient><linearGradient id="m" x1="11.126" y1="27.476" x2="8.785" y2="26.934" gradientUnits="userSpaceOnUse"><stop stop-color="#E69934"/><stop offset="1" stop-color="#DB7C1A"/></linearGradient><linearGradient id="A" x1="28.216" y1="17.367" x2="16.204" y2="17.367" gradientUnits="userSpaceOnUse"><stop offset=".219" stop-color="#DB2F4A"/><stop offset="1" stop-color="#DB2F4A" stop-opacity="0"/></linearGradient><linearGradient id="K" x1="9.292" y1="6.088" x2="10.698" y2="6.088" gradientUnits="userSpaceOnUse"><stop stop-color="#E79B27"/><stop offset="1" stop-color="#B96201"/></linearGradient><linearGradient id="Y" x1="12.282" y1="7.015" x2="12.282" y2="5.741" gradientUnits="userSpaceOnUse"><stop stop-color="#FFC134"/><stop offset="1" stop-color="#F8C73F"/></linearGradient><linearGradient id="aa" x1="11.785" y1="6.653" x2="12.191" y2="6.703" gradientUnits="userSpaceOnUse"><stop stop-color="#F8A322"/><stop offset="1" stop-color="#F8A322" stop-opacity="0"/></linearGradient><linearGradient id="ab" x1="12.282" y1="7.059" x2="12.282" y2="6.769" gradientUnits="userSpaceOnUse"><stop stop-color="#E48538"/><stop offset="1" stop-color="#E48538" stop-opacity="0"/></linearGradient><linearGradient id="ak" x1="13.687" y1="5.788" x2="13.538" y2="5.88" gradientUnits="userSpaceOnUse"><stop stop-color="#B4948D"/><stop offset="1" stop-color="#B4948D" stop-opacity="0"/></linearGradient><linearGradient id="an" x1="11.598" y1="5.788" x2="11.449" y2="5.88" gradientUnits="userSpaceOnUse"><stop stop-color="#B4948D"/><stop offset="1" stop-color="#B4948D" stop-opacity="0"/></linearGradient><linearGradient id="av" x1="15.412" y1="2.932" x2="14.05" y2="5.276" gradientUnits="userSpaceOnUse"><stop stop-color="#E73950"/><stop offset="1" stop-color="#DC2D68"/></linearGradient><linearGradient id="ax" x1="15.339" y1="3.43" x2="13.856" y2="4.383" gradientUnits="userSpaceOnUse"><stop stop-color="#C9334F"/><stop offset="1" stop-color="#C32E4E"/></linearGradient></defs></svg>