<svg width="32" height="32" fill="none" xmlns="http://www.w3.org/2000/svg"><g filter="url(#a)" fill-rule="evenodd" clip-rule="evenodd"><path d="M24.081 15.655a3.638 3.638 0 0 0 .364-1.6c0-.525-.108-1.017-.302-1.465h.006a3.575 3.575 0 0 0-.315-.576l-.003-.003c-.386-.59-.922-.95-.922-1.654l-1.52.3c0-2.044.195-4.345-1.849-4.345a.605.605 0 0 1-.51-.261 3.708 3.708 0 0 0-3.01-1.544 3.708 3.708 0 0 0-3.007 1.544.635.635 0 0 1-.511.26l-.096.002c-2 .05-2.1 1.89-2.1 3.9H9.173c0 .705-.578 1.207-.963 1.798l-.003.004a3.7 3.7 0 0 0-.247 3.64c.08.159.08.352 0 .51a3.661 3.661 0 0 0-.363 1.579 3.605 3.605 0 0 0 3.61 3.61h9.626a3.605 3.605 0 0 0 3.61-3.61 3.66 3.66 0 0 0-.363-1.578.577.577 0 0 1 0-.511Zm-13.753-2.998h-.014L11.66 15.3c.138 3.144 1.365 0 4.362 0s4.303 3.5 4.442.356l1.274-3.587c-.06-1.396-1.072-1.494-1.274-1.494H16.85a4.333 4.333 0 0 1-3.578-1.877.296.296 0 0 0-.518.057l-.092.218a2.585 2.585 0 0 1-1.334 1.385c-.017.005-.037.014-.058.022a.769.769 0 0 1-.057.023c-.265.138-.886.55-.909 1.614l.012.344.011.297Z" fill="url(#b)"/><path d="M24.081 15.655a3.638 3.638 0 0 0 .364-1.6c0-.525-.108-1.017-.302-1.465h.006a3.575 3.575 0 0 0-.315-.576l-.003-.003c-.386-.59-.922-.95-.922-1.654l-1.52.3c0-2.044.195-4.345-1.849-4.345a.605.605 0 0 1-.51-.261 3.708 3.708 0 0 0-3.01-1.544 3.708 3.708 0 0 0-3.007 1.544.635.635 0 0 1-.511.26l-.096.002c-2 .05-2.1 1.89-2.1 3.9H9.173c0 .705-.578 1.207-.963 1.798l-.003.004a3.7 3.7 0 0 0-.247 3.64c.08.159.08.352 0 .51a3.661 3.661 0 0 0-.363 1.579 3.605 3.605 0 0 0 3.61 3.61h9.626a3.605 3.605 0 0 0 3.61-3.61 3.66 3.66 0 0 0-.363-1.578.577.577 0 0 1 0-.511Zm-13.753-2.998h-.014L11.66 15.3c.138 3.144 1.365 0 4.362 0s4.303 3.5 4.442.356l1.274-3.587c-.06-1.396-1.072-1.494-1.274-1.494H16.85a4.333 4.333 0 0 1-3.578-1.877.296.296 0 0 0-.518.057l-.092.218a2.585 2.585 0 0 1-1.334 1.385c-.017.005-.037.014-.058.022a.769.769 0 0 1-.057.023c-.265.138-.886.55-.909 1.614l.012.344.011.297Z" fill="url(#c)"/><path d="M24.081 15.655a3.638 3.638 0 0 0 .364-1.6c0-.525-.108-1.017-.302-1.465h.006a3.575 3.575 0 0 0-.315-.576l-.003-.003c-.386-.59-.922-.95-.922-1.654l-1.52.3c0-2.044.195-4.345-1.849-4.345a.605.605 0 0 1-.51-.261 3.708 3.708 0 0 0-3.01-1.544 3.708 3.708 0 0 0-3.007 1.544.635.635 0 0 1-.511.26l-.096.002c-2 .05-2.1 1.89-2.1 3.9H9.173c0 .705-.578 1.207-.963 1.798l-.003.004a3.7 3.7 0 0 0-.247 3.64c.08.159.08.352 0 .51a3.661 3.661 0 0 0-.363 1.579 3.605 3.605 0 0 0 3.61 3.61h9.626a3.605 3.605 0 0 0 3.61-3.61 3.66 3.66 0 0 0-.363-1.578.577.577 0 0 1 0-.511Zm-13.753-2.998h-.014L11.66 15.3c.138 3.144 1.365 0 4.362 0s4.303 3.5 4.442.356l1.274-3.587c-.06-1.396-1.072-1.494-1.274-1.494H16.85a4.333 4.333 0 0 1-3.578-1.877.296.296 0 0 0-.518.057l-.092.218a2.585 2.585 0 0 1-1.334 1.385c-.017.005-.037.014-.058.022a.769.769 0 0 1-.057.023c-.265.138-.886.55-.909 1.614l.012.344.011.297Z" fill="url(#d)"/><path d="M24.081 15.655a3.638 3.638 0 0 0 .364-1.6c0-.525-.108-1.017-.302-1.465h.006a3.575 3.575 0 0 0-.315-.576l-.003-.003c-.386-.59-.922-.95-.922-1.654l-1.52.3c0-2.044.195-4.345-1.849-4.345a.605.605 0 0 1-.51-.261 3.708 3.708 0 0 0-3.01-1.544 3.708 3.708 0 0 0-3.007 1.544.635.635 0 0 1-.511.26l-.096.002c-2 .05-2.1 1.89-2.1 3.9H9.173c0 .705-.578 1.207-.963 1.798l-.003.004a3.7 3.7 0 0 0-.247 3.64c.08.159.08.352 0 .51a3.661 3.661 0 0 0-.363 1.579 3.605 3.605 0 0 0 3.61 3.61h9.626a3.605 3.605 0 0 0 3.61-3.61 3.66 3.66 0 0 0-.363-1.578.577.577 0 0 1 0-.511Zm-13.753-2.998h-.014L11.66 15.3c.138 3.144 1.365 0 4.362 0s4.303 3.5 4.442.356l1.274-3.587c-.06-1.396-1.072-1.494-1.274-1.494H16.85a4.333 4.333 0 0 1-3.578-1.877.296.296 0 0 0-.518.057l-.092.218a2.585 2.585 0 0 1-1.334 1.385c-.017.005-.037.014-.058.022a.769.769 0 0 1-.057.023c-.265.138-.886.55-.909 1.614l.012.344.011.297Z" fill="url(#e)"/><path d="M24.081 15.655a3.638 3.638 0 0 0 .364-1.6c0-.525-.108-1.017-.302-1.465h.006a3.575 3.575 0 0 0-.315-.576l-.003-.003c-.386-.59-.922-.95-.922-1.654l-1.52.3c0-2.044.195-4.345-1.849-4.345a.605.605 0 0 1-.51-.261 3.708 3.708 0 0 0-3.01-1.544 3.708 3.708 0 0 0-3.007 1.544.635.635 0 0 1-.511.26l-.096.002c-2 .05-2.1 1.89-2.1 3.9H9.173c0 .705-.578 1.207-.963 1.798l-.003.004a3.7 3.7 0 0 0-.247 3.64c.08.159.08.352 0 .51a3.661 3.661 0 0 0-.363 1.579 3.605 3.605 0 0 0 3.61 3.61h9.626a3.605 3.605 0 0 0 3.61-3.61 3.66 3.66 0 0 0-.363-1.578.577.577 0 0 1 0-.511Zm-13.753-2.998h-.014L11.66 15.3c.138 3.144 1.365 0 4.362 0s4.303 3.5 4.442.356l1.274-3.587c-.06-1.396-1.072-1.494-1.274-1.494H16.85a4.333 4.333 0 0 1-3.578-1.877.296.296 0 0 0-.518.057l-.092.218a2.585 2.585 0 0 1-1.334 1.385c-.017.005-.037.014-.058.022a.769.769 0 0 1-.057.023c-.265.138-.886.55-.909 1.614l.012.344.011.297Z" fill="url(#f)"/><path d="M24.081 15.655a3.638 3.638 0 0 0 .364-1.6c0-.525-.108-1.017-.302-1.465h.006a3.575 3.575 0 0 0-.315-.576l-.003-.003c-.386-.59-.922-.95-.922-1.654l-1.52.3c0-2.044.195-4.345-1.849-4.345a.605.605 0 0 1-.51-.261 3.708 3.708 0 0 0-3.01-1.544 3.708 3.708 0 0 0-3.007 1.544.635.635 0 0 1-.511.26l-.096.002c-2 .05-2.1 1.89-2.1 3.9H9.173c0 .705-.578 1.207-.963 1.798l-.003.004a3.7 3.7 0 0 0-.247 3.64c.08.159.08.352 0 .51a3.661 3.661 0 0 0-.363 1.579 3.605 3.605 0 0 0 3.61 3.61h9.626a3.605 3.605 0 0 0 3.61-3.61 3.66 3.66 0 0 0-.363-1.578.577.577 0 0 1 0-.511Zm-13.753-2.998h-.014L11.66 15.3c.138 3.144 1.365 0 4.362 0s4.303 3.5 4.442.356l1.274-3.587c-.06-1.396-1.072-1.494-1.274-1.494H16.85a4.333 4.333 0 0 1-3.578-1.877.296.296 0 0 0-.518.057l-.092.218a2.585 2.585 0 0 1-1.334 1.385c-.017.005-.037.014-.058.022a.769.769 0 0 1-.057.023c-.265.138-.886.55-.909 1.614l.012.344.011.297Z" fill="url(#g)"/><path d="M24.081 15.655a3.638 3.638 0 0 0 .364-1.6c0-.525-.108-1.017-.302-1.465h.006a3.575 3.575 0 0 0-.315-.576l-.003-.003c-.386-.59-.922-.95-.922-1.654l-1.52.3c0-2.044.195-4.345-1.849-4.345a.605.605 0 0 1-.51-.261 3.708 3.708 0 0 0-3.01-1.544 3.708 3.708 0 0 0-3.007 1.544.635.635 0 0 1-.511.26l-.096.002c-2 .05-2.1 1.89-2.1 3.9H9.173c0 .705-.578 1.207-.963 1.798l-.003.004a3.7 3.7 0 0 0-.247 3.64c.08.159.08.352 0 .51a3.661 3.661 0 0 0-.363 1.579 3.605 3.605 0 0 0 3.61 3.61h9.626a3.605 3.605 0 0 0 3.61-3.61 3.66 3.66 0 0 0-.363-1.578.577.577 0 0 1 0-.511Zm-13.753-2.998h-.014L11.66 15.3c.138 3.144 1.365 0 4.362 0s4.303 3.5 4.442.356l1.274-3.587c-.06-1.396-1.072-1.494-1.274-1.494H16.85a4.333 4.333 0 0 1-3.578-1.877.296.296 0 0 0-.518.057l-.092.218a2.585 2.585 0 0 1-1.334 1.385c-.017.005-.037.014-.058.022a.769.769 0 0 1-.057.023c-.265.138-.886.55-.909 1.614l.012.344.011.297Z" fill="url(#h)"/><path d="M24.081 15.655a3.638 3.638 0 0 0 .364-1.6c0-.525-.108-1.017-.302-1.465h.006a3.575 3.575 0 0 0-.315-.576l-.003-.003c-.386-.59-.922-.95-.922-1.654l-1.52.3c0-2.044.195-4.345-1.849-4.345a.605.605 0 0 1-.51-.261 3.708 3.708 0 0 0-3.01-1.544 3.708 3.708 0 0 0-3.007 1.544.635.635 0 0 1-.511.26l-.096.002c-2 .05-2.1 1.89-2.1 3.9H9.173c0 .705-.578 1.207-.963 1.798l-.003.004a3.7 3.7 0 0 0-.247 3.64c.08.159.08.352 0 .51a3.661 3.661 0 0 0-.363 1.579 3.605 3.605 0 0 0 3.61 3.61h9.626a3.605 3.605 0 0 0 3.61-3.61 3.66 3.66 0 0 0-.363-1.578.577.577 0 0 1 0-.511Zm-13.753-2.998h-.014L11.66 15.3c.138 3.144 1.365 0 4.362 0s4.303 3.5 4.442.356l1.274-3.587c-.06-1.396-1.072-1.494-1.274-1.494H16.85a4.333 4.333 0 0 1-3.578-1.877.296.296 0 0 0-.518.057l-.092.218a2.585 2.585 0 0 1-1.334 1.385c-.017.005-.037.014-.058.022a.769.769 0 0 1-.057.023c-.265.138-.886.55-.909 1.614l.012.344.011.297Z" fill="url(#i)"/><path d="M24.081 15.655a3.638 3.638 0 0 0 .364-1.6c0-.525-.108-1.017-.302-1.465h.006a3.575 3.575 0 0 0-.315-.576l-.003-.003c-.386-.59-.922-.95-.922-1.654l-1.52.3c0-2.044.195-4.345-1.849-4.345a.605.605 0 0 1-.51-.261 3.708 3.708 0 0 0-3.01-1.544 3.708 3.708 0 0 0-3.007 1.544.635.635 0 0 1-.511.26l-.096.002c-2 .05-2.1 1.89-2.1 3.9H9.173c0 .705-.578 1.207-.963 1.798l-.003.004a3.7 3.7 0 0 0-.247 3.64c.08.159.08.352 0 .51a3.661 3.661 0 0 0-.363 1.579 3.605 3.605 0 0 0 3.61 3.61h9.626a3.605 3.605 0 0 0 3.61-3.61 3.66 3.66 0 0 0-.363-1.578.577.577 0 0 1 0-.511Zm-13.753-2.998h-.014L11.66 15.3c.138 3.144 1.365 0 4.362 0s4.303 3.5 4.442.356l1.274-3.587c-.06-1.396-1.072-1.494-1.274-1.494H16.85a4.333 4.333 0 0 1-3.578-1.877.296.296 0 0 0-.518.057l-.092.218a2.585 2.585 0 0 1-1.334 1.385c-.017.005-.037.014-.058.022a.769.769 0 0 1-.057.023c-.265.138-.886.55-.909 1.614l.012.344.011.297Z" fill="url(#j)"/><path d="M24.081 15.655a3.638 3.638 0 0 0 .364-1.6c0-.525-.108-1.017-.302-1.465h.006a3.575 3.575 0 0 0-.315-.576l-.003-.003c-.386-.59-.922-.95-.922-1.654l-1.52.3c0-2.044.195-4.345-1.849-4.345a.605.605 0 0 1-.51-.261 3.708 3.708 0 0 0-3.01-1.544 3.708 3.708 0 0 0-3.007 1.544.635.635 0 0 1-.511.26l-.096.002c-2 .05-2.1 1.89-2.1 3.9H9.173c0 .705-.578 1.207-.963 1.798l-.003.004a3.7 3.7 0 0 0-.247 3.64c.08.159.08.352 0 .51a3.661 3.661 0 0 0-.363 1.579 3.605 3.605 0 0 0 3.61 3.61h9.626a3.605 3.605 0 0 0 3.61-3.61 3.66 3.66 0 0 0-.363-1.578.577.577 0 0 1 0-.511Zm-13.753-2.998h-.014L11.66 15.3c.138 3.144 1.365 0 4.362 0s4.303 3.5 4.442.356l1.274-3.587c-.06-1.396-1.072-1.494-1.274-1.494H16.85a4.333 4.333 0 0 1-3.578-1.877.296.296 0 0 0-.518.057l-.092.218a2.585 2.585 0 0 1-1.334 1.385c-.017.005-.037.014-.058.022a.769.769 0 0 1-.057.023c-.265.138-.886.55-.909 1.614l.012.344.011.297Z" fill="url(#k)"/><path d="M24.081 15.655a3.638 3.638 0 0 0 .364-1.6c0-.525-.108-1.017-.302-1.465h.006a3.575 3.575 0 0 0-.315-.576l-.003-.003c-.386-.59-.922-.95-.922-1.654l-1.52.3c0-2.044.195-4.345-1.849-4.345a.605.605 0 0 1-.51-.261 3.708 3.708 0 0 0-3.01-1.544 3.708 3.708 0 0 0-3.007 1.544.635.635 0 0 1-.511.26l-.096.002c-2 .05-2.1 1.89-2.1 3.9H9.173c0 .705-.578 1.207-.963 1.798l-.003.004a3.7 3.7 0 0 0-.247 3.64c.08.159.08.352 0 .51a3.661 3.661 0 0 0-.363 1.579 3.605 3.605 0 0 0 3.61 3.61h9.626a3.605 3.605 0 0 0 3.61-3.61 3.66 3.66 0 0 0-.363-1.578.577.577 0 0 1 0-.511Zm-13.753-2.998h-.014L11.66 15.3c.138 3.144 1.365 0 4.362 0s4.303 3.5 4.442.356l1.274-3.587c-.06-1.396-1.072-1.494-1.274-1.494H16.85a4.333 4.333 0 0 1-3.578-1.877.296.296 0 0 0-.518.057l-.092.218a2.585 2.585 0 0 1-1.334 1.385c-.017.005-.037.014-.058.022a.769.769 0 0 1-.057.023c-.265.138-.886.55-.909 1.614l.012.344.011.297Z" fill="url(#l)"/></g><path fill-rule="evenodd" clip-rule="evenodd" d="M24.081 15.655a3.638 3.638 0 0 0 .364-1.6c0-.525-.108-1.017-.302-1.465h.006a3.575 3.575 0 0 0-.315-.576l-.003-.003c-.386-.59-.922-.95-.922-1.654l-1.52.3c0-2.044.195-4.345-1.849-4.345a.605.605 0 0 1-.51-.261 3.708 3.708 0 0 0-3.01-1.544 3.708 3.708 0 0 0-3.007 1.544.635.635 0 0 1-.511.26l-.096.002c-2 .05-2.1 1.89-2.1 3.9H9.173c0 .705-.578 1.207-.963 1.798l-.003.004a3.7 3.7 0 0 0-.247 3.64c.08.159.08.352 0 .51a3.661 3.661 0 0 0-.363 1.579 3.605 3.605 0 0 0 3.61 3.61h9.626a3.605 3.605 0 0 0 3.61-3.61 3.66 3.66 0 0 0-.363-1.578.577.577 0 0 1 0-.511Zm-13.753-2.998h-.014L11.66 15.3c.138 3.144 1.365 0 4.362 0s4.303 3.5 4.442.356l1.274-3.587c-.06-1.396-1.072-1.494-1.274-1.494H16.85a4.333 4.333 0 0 1-3.578-1.877.296.296 0 0 0-.518.057l-.092.218a2.585 2.585 0 0 1-1.334 1.385c-.017.005-.037.014-.058.022a.769.769 0 0 1-.057.023c-.265.138-.886.55-.909 1.614l.012.344.011.297Z" fill="url(#m)"/><path fill-rule="evenodd" clip-rule="evenodd" d="M24.081 15.655a3.638 3.638 0 0 0 .364-1.6c0-.525-.108-1.017-.302-1.465h.006a3.575 3.575 0 0 0-.315-.576l-.003-.003c-.386-.59-.922-.95-.922-1.654l-1.52.3c0-2.044.195-4.345-1.849-4.345a.605.605 0 0 1-.51-.261 3.708 3.708 0 0 0-3.01-1.544 3.708 3.708 0 0 0-3.007 1.544.635.635 0 0 1-.511.26l-.096.002c-2 .05-2.1 1.89-2.1 3.9H9.173c0 .705-.578 1.207-.963 1.798l-.003.004a3.7 3.7 0 0 0-.247 3.64c.08.159.08.352 0 .51a3.661 3.661 0 0 0-.363 1.579 3.605 3.605 0 0 0 3.61 3.61h9.626a3.605 3.605 0 0 0 3.61-3.61 3.66 3.66 0 0 0-.363-1.578.577.577 0 0 1 0-.511Zm-13.753-2.998h-.014L11.66 15.3c.138 3.144 1.365 0 4.362 0s4.303 3.5 4.442.356l1.274-3.587c-.06-1.396-1.072-1.494-1.274-1.494H16.85a4.333 4.333 0 0 1-3.578-1.877.296.296 0 0 0-.518.057l-.092.218a2.585 2.585 0 0 1-1.334 1.385c-.017.005-.037.014-.058.022a.769.769 0 0 1-.057.023c-.265.138-.886.55-.909 1.614l.012.344.011.297Z" fill="url(#n)"/><path d="M16.021 19.32c-.78 0-1.55.08-2.3.23v10.38h4.58V19.55c-.74-.15-1.5-.23-2.28-.23Z" fill="url(#o)"/><path d="M16.021 19.32c-.78 0-1.55.08-2.3.23v10.38h4.58V19.55c-.74-.15-1.5-.23-2.28-.23Z" fill="url(#p)"/><path d="M13.721 19.198c-.608.134-1.196.31-1.763.537V29.93h1.763V19.198Z" fill="url(#q)"/><path d="M13.721 19.198c-.608.134-1.196.31-1.763.537V29.93h1.763V19.198Z" fill="url(#r)"/><path d="M13.721 19.198c-.608.134-1.196.31-1.763.537V29.93h1.763V19.198Z" fill="url(#s)"/><path d="M18.279 19.198c.608.134 1.195.31 1.763.537V29.93H18.28V19.198Z" fill="url(#t)"/><path d="M18.279 19.198c.608.134 1.195.31 1.763.537V29.93H18.28V19.198Z" fill="url(#u)"/><path d="M8.389 22.017a.149.149 0 0 0-.048.11v7.802h1.634v-9.16c-.56.37-1.092.79-1.586 1.248Z" fill="url(#v)"/><path d="M8.389 22.017a.149.149 0 0 0-.048.11v7.802h1.634v-9.16c-.56.37-1.092.79-1.586 1.248Z" fill="url(#w)"/><path d="M8.389 22.017a.149.149 0 0 0-.048.11v7.802h1.634v-9.16c-.56.37-1.092.79-1.586 1.248Z" fill="url(#x)"/><path d="M23.627 22.032a.1.1 0 0 1 .032.073v7.824h-1.634v-9.16a12.47 12.47 0 0 1 1.602 1.263Z" fill="url(#y)"/><path d="M23.627 22.032a.1.1 0 0 1 .032.073v7.824h-1.634v-9.16a12.47 12.47 0 0 1 1.602 1.263Z" fill="url(#z)"/><path d="M9.975 20.77v9.16h1.983V19.735c-.698.28-1.355.62-1.983 1.034Z" fill="#FFCA44"/><path d="M9.975 20.77v9.16h1.983V19.735c-.698.28-1.355.62-1.983 1.034Z" fill="url(#A)"/><path d="M22.025 20.77v9.16h-1.983V19.735c.698.28 1.355.62 1.983 1.034Z" fill="url(#B)"/><path d="M22.025 20.77v9.16h-1.983V19.735c.698.28 1.355.62 1.983 1.034Z" fill="url(#C)"/><path d="M4.601 29.93c.14-.947.34-1.882.62-2.787a11.56 11.56 0 0 1 3.12-5.018v7.804h-3.74Z" fill="url(#D)"/><path d="M4.601 29.93c.14-.947.34-1.882.62-2.787a11.56 11.56 0 0 1 3.12-5.018v7.804h-3.74Z" fill="url(#E)"/><path d="M27.399 29.93c-.14-.947-.34-1.882-.62-2.787a11.56 11.56 0 0 0-3.12-5.018v7.804h3.74Z" fill="url(#F)"/><path d="M27.399 29.93c-.14-.947-.34-1.882-.62-2.787a11.56 11.56 0 0 0-3.12-5.018v7.804h3.74Z" fill="url(#G)"/><path d="M13.81 20.295c.06.798.585 2.392 2.211 2.392s2.151-1.594 2.211-2.392H13.81Z" fill="url(#H)"/><path d="M13.81 20.295c.06.798.585 2.392 2.211 2.392s2.151-1.594 2.211-2.392H13.81Z" fill="url(#I)"/><path d="M13.81 20.295c.06.798.585 2.392 2.211 2.392s2.151-1.594 2.211-2.392H13.81Z" fill="url(#J)"/><path d="M16.42 19.628c.28.012.571.034.863.056-.292-.022-.572-.044-.864-.056Z" fill="url(#K)"/><path d="M16.05 19.628h-.046c.112 0 .213 0 .325.012-.09-.012-.19-.012-.28-.012Z" fill="url(#L)"/><g filter="url(#M)"><path d="M10.524 15.879a1.805 1.805 0 1 0 0-3.61 1.805 1.805 0 0 0 0 3.61Z" fill="url(#N)"/></g><g filter="url(#O)"><path d="M21.583 15.879a1.805 1.805 0 1 0 0-3.61 1.805 1.805 0 0 0 0 3.61Z" fill="url(#P)"/><path d="M21.583 15.879a1.805 1.805 0 1 0 0-3.61 1.805 1.805 0 0 0 0 3.61Z" fill="url(#Q)"/></g><g filter="url(#R)"><path d="M21.583 15.278a1.205 1.205 0 1 0 0-2.41 1.205 1.205 0 0 0 0 2.41Z" fill="#E5AA8B"/><path d="M21.583 15.278a1.205 1.205 0 1 0 0-2.41 1.205 1.205 0 0 0 0 2.41Z" fill="url(#S)"/></g><g filter="url(#T)"><path d="M10.545 15.278a1.205 1.205 0 1 0 0-2.41 1.205 1.205 0 0 0 0 2.41Z" fill="#B47A6C"/><path d="M10.545 15.278a1.205 1.205 0 1 0 0-2.41 1.205 1.205 0 0 0 0 2.41Z" fill="url(#U)"/></g><g filter="url(#V)"><path d="m10.317 12.36-.012-.344c.023-1.064.644-1.476.909-1.614.017-.005.037-.014.057-.022.02-.009.04-.018.058-.023a2.585 2.585 0 0 0 1.335-1.385l.091-.218a.296.296 0 0 1 .518-.057 4.333 4.333 0 0 0 3.578 1.877h3.612c.202 0 1.214.098 1.274 1.495l-.133 3.447c-.138 3.144-2.593 5.255-5.59 5.255s-5.452-2.111-5.59-5.255l-.107-3.156Z" fill="url(#W)"/><path d="m10.317 12.36-.012-.344c.023-1.064.644-1.476.909-1.614.017-.005.037-.014.057-.022.02-.009.04-.018.058-.023a2.585 2.585 0 0 0 1.335-1.385l.091-.218a.296.296 0 0 1 .518-.057 4.333 4.333 0 0 0 3.578 1.877h3.612c.202 0 1.214.098 1.274 1.495l-.133 3.447c-.138 3.144-2.593 5.255-5.59 5.255s-5.452-2.111-5.59-5.255l-.107-3.156Z" fill="url(#X)"/><path d="m10.317 12.36-.012-.344c.023-1.064.644-1.476.909-1.614.017-.005.037-.014.057-.022.02-.009.04-.018.058-.023a2.585 2.585 0 0 0 1.335-1.385l.091-.218a.296.296 0 0 1 .518-.057 4.333 4.333 0 0 0 3.578 1.877h3.612c.202 0 1.214.098 1.274 1.495l-.133 3.447c-.138 3.144-2.593 5.255-5.59 5.255s-5.452-2.111-5.59-5.255l-.107-3.156Z" fill="url(#Y)"/><path d="m10.317 12.36-.012-.344c.023-1.064.644-1.476.909-1.614.017-.005.037-.014.057-.022.02-.009.04-.018.058-.023a2.585 2.585 0 0 0 1.335-1.385l.091-.218a.296.296 0 0 1 .518-.057 4.333 4.333 0 0 0 3.578 1.877h3.612c.202 0 1.214.098 1.274 1.495l-.133 3.447c-.138 3.144-2.593 5.255-5.59 5.255s-5.452-2.111-5.59-5.255l-.107-3.156Z" fill="url(#Z)"/><path d="m10.317 12.36-.012-.344c.023-1.064.644-1.476.909-1.614.017-.005.037-.014.057-.022.02-.009.04-.018.058-.023a2.585 2.585 0 0 0 1.335-1.385l.091-.218a.296.296 0 0 1 .518-.057 4.333 4.333 0 0 0 3.578 1.877h3.612c.202 0 1.214.098 1.274 1.495l-.133 3.447c-.138 3.144-2.593 5.255-5.59 5.255s-5.452-2.111-5.59-5.255l-.107-3.156Z" fill="url(#aa)"/><path d="m10.317 12.36-.012-.344c.023-1.064.644-1.476.909-1.614.017-.005.037-.014.057-.022.02-.009.04-.018.058-.023a2.585 2.585 0 0 0 1.335-1.385l.091-.218a.296.296 0 0 1 .518-.057 4.333 4.333 0 0 0 3.578 1.877h3.612c.202 0 1.214.098 1.274 1.495l-.133 3.447c-.138 3.144-2.593 5.255-5.59 5.255s-5.452-2.111-5.59-5.255l-.107-3.156Z" fill="url(#ab)"/><path d="m10.317 12.36-.012-.344c.023-1.064.644-1.476.909-1.614.017-.005.037-.014.057-.022.02-.009.04-.018.058-.023a2.585 2.585 0 0 0 1.335-1.385l.091-.218a.296.296 0 0 1 .518-.057 4.333 4.333 0 0 0 3.578 1.877h3.612c.202 0 1.214.098 1.274 1.495l-.133 3.447c-.138 3.144-2.593 5.255-5.59 5.255s-5.452-2.111-5.59-5.255l-.107-3.156Z" fill="url(#ac)"/></g><path d="M10.314 12.657h.014l-.011-.297-.012-.344c.023-1.064.644-1.476.909-1.614.017-.005.037-.014.057-.022.02-.009.04-.018.058-.023a2.585 2.585 0 0 0 1.335-1.385l.091-.218a.296.296 0 0 1 .518-.057 4.333 4.333 0 0 0 3.578 1.877h3.612c.202 0 1.214.098 1.274 1.495l-.133 3.447c-.138 3.144-2.593 5.255-5.59 5.255s-5.452-2.111-5.59-5.255l-.11-2.859Z" fill="url(#ad)"/><path d="M10.314 12.657h.014l-.011-.297-.012-.344c.023-1.064.644-1.476.909-1.614.017-.005.037-.014.057-.022.02-.009.04-.018.058-.023a2.585 2.585 0 0 0 1.335-1.385l.091-.218a.296.296 0 0 1 .518-.057 4.333 4.333 0 0 0 3.578 1.877h3.612c.202 0 1.214.098 1.274 1.495l-.133 3.447c-.138 3.144-2.593 5.255-5.59 5.255s-5.452-2.111-5.59-5.255l-.11-2.859Z" fill="url(#ae)"/><path d="M10.314 12.657h.014l-.011-.297-.012-.344c.023-1.064.644-1.476.909-1.614.017-.005.037-.014.057-.022.02-.009.04-.018.058-.023a2.585 2.585 0 0 0 1.335-1.385l.091-.218a.296.296 0 0 1 .518-.057 4.333 4.333 0 0 0 3.578 1.877h3.612c.202 0 1.214.098 1.274 1.495l-.133 3.447c-.138 3.144-2.593 5.255-5.59 5.255s-5.452-2.111-5.59-5.255l-.11-2.859Z" fill="url(#af)"/><g filter="url(#ag)"><path d="m15.58 13.824-.766 1.907a.605.605 0 0 0 .584.784h.882a.607.607 0 0 0 .584-.784l-.596-1.907c-.128-.423-.553-.423-.687 0Z" fill="#C28178"/></g><g filter="url(#ah)"><path d="m15.592 13.668-.596 1.907a.605.605 0 0 0 .584.785h.882a.607.607 0 0 0 .584-.785l-.596-1.907c-.128-.422-.724-.422-.858 0Z" fill="#E2A88C"/><path d="m15.592 13.668-.596 1.907a.605.605 0 0 0 .584.785h.882a.607.607 0 0 0 .584-.785l-.596-1.907c-.128-.422-.724-.422-.858 0Z" fill="url(#ai)"/><path d="m15.592 13.668-.596 1.907a.605.605 0 0 0 .584.785h.882a.607.607 0 0 0 .584-.785l-.596-1.907c-.128-.422-.724-.422-.858 0Z" fill="url(#aj)"/><path d="m15.592 13.668-.596 1.907a.605.605 0 0 0 .584.785h.882a.607.607 0 0 0 .584-.785l-.596-1.907c-.128-.422-.724-.422-.858 0Z" fill="url(#ak)"/></g><g filter="url(#al)"><path d="m15.592 13.482-.596 1.907a.605.605 0 0 0 .584.785h.882a.607.607 0 0 0 .584-.785l-.596-1.907c-.128-.422-.724-.422-.858 0Z" fill="url(#am)"/></g><g filter="url(#an)"><path d="M16.021 17.34c-.584 0-1.133-.14-1.595-.387-.157-.082-.327.1-.227.246a2.167 2.167 0 0 0 3.645 0c.099-.152-.07-.328-.228-.246a3.379 3.379 0 0 1-1.595.387Z" stroke="url(#ao)" stroke-width=".2"/></g><path d="M16.021 17.34c-.584 0-1.133-.14-1.595-.387-.157-.082-.327.1-.227.246a2.167 2.167 0 0 0 3.645 0c.099-.152-.07-.328-.228-.246a3.379 3.379 0 0 1-1.595.387Z" fill="#88014E"/><g filter="url(#ap)"><path d="M17.302 13.435c.298-.523.75-.937 1.725-.937.426 0 .838.118 1.203.414.302.243.262.555.028.672l-.624.356c-.73-.236-1.54-.268-2.332-.505Z" fill="#635D5F"/></g><g filter="url(#aq)"><path d="M14.74 13.435c-.298-.523-.75-.937-1.724-.937a1.86 1.86 0 0 0-1.204.414c-.301.243-.261.555-.027.672l.623.356c.731-.236 1.54-.268 2.332-.505Z" fill="#635D5F"/></g><path d="M18.703 12.564c.733 0 1.352.505 1.52 1.188.05.195-.1.382-.3.382H17.42a.258.258 0 0 1-.255-.305 1.568 1.568 0 0 1 1.538-1.265Z" fill="#fff"/><path d="M18.471 12.869a1.001 1.001 0 0 1 .965 1.265h-1.934a1.005 1.005 0 0 1 .97-1.265Z" fill="url(#ar)"/><path d="M17.898 13.87a.57.57 0 0 1 .573-.574.571.571 0 0 1 .51.838h-1.015a.519.519 0 0 1-.068-.264Z" fill="#000"/><g filter="url(#as)"><path d="M18.398 13.08c.07.096-.078.212-.248.339-.17.127-.295.216-.366.12-.072-.095.008-.275.177-.402.17-.127.365-.152.437-.056Z" fill="#C7A7A3"/><path d="M18.398 13.08c.07.096-.078.212-.248.339-.17.127-.295.216-.366.12-.072-.095.008-.275.177-.402.17-.127.365-.152.437-.056Z" fill="url(#at)"/></g><g filter="url(#au)"><path d="M19.363 13.738a.942.942 0 0 0-.26-.52l-.291.32.131.257.42-.057Z" fill="url(#av)"/></g><path d="M13.339 12.564c-.733 0-1.352.505-1.52 1.188-.05.195.1.382.3.382h2.503c.16 0 .287-.146.255-.305a1.572 1.572 0 0 0-1.538-1.265Z" fill="#fff"/><path d="M13.571 12.869a1.001 1.001 0 0 0-.965 1.265h1.934c.023-.087.037-.173.037-.264a1.008 1.008 0 0 0-1.006-1.001Z" fill="url(#aw)"/><path d="M14.144 13.87a.571.571 0 0 0-.573-.574.571.571 0 0 0-.51.838h1.015a.568.568 0 0 0 .068-.264Z" fill="#000"/><g filter="url(#ax)"><path d="M14.486 13.752c0-.323-.264-.539-.335-.604l-.323.313.199.405.459-.114Z" fill="url(#ay)"/></g><g filter="url(#az)" transform="rotate(-27.914 13.269 13.296)"><ellipse cx="13.269" cy="13.296" rx=".437" ry=".221" fill="#C7A7A3" fill-opacity=".9"/><ellipse cx="13.269" cy="13.296" rx=".437" ry=".221" fill="url(#aA)"/></g><path d="M9.771 7.178a4.1 4.1 0 0 1 4.1-4.1h3.988a4.1 4.1 0 0 1 4.1 4.1V9.86H9.77V7.18Z" fill="url(#aB)"/><path d="M9.771 7.178a4.1 4.1 0 0 1 4.1-4.1h3.988a4.1 4.1 0 0 1 4.1 4.1V9.86H9.77V7.18Z" fill="url(#aC)"/><path d="M9.771 7.178a4.1 4.1 0 0 1 4.1-4.1h3.988a4.1 4.1 0 0 1 4.1 4.1V9.86H9.77V7.18Z" fill="url(#aD)"/><path d="M9.771 7.178a4.1 4.1 0 0 1 4.1-4.1h3.988a4.1 4.1 0 0 1 4.1 4.1V9.86H9.77V7.18Z" fill="url(#aE)"/><path d="M9.771 7.178a4.1 4.1 0 0 1 4.1-4.1h3.988a4.1 4.1 0 0 1 4.1 4.1V9.86H9.77V7.18Z" fill="url(#aF)"/><path d="M9.771 7.178a4.1 4.1 0 0 1 4.1-4.1h3.988a4.1 4.1 0 0 1 4.1 4.1V9.86H9.77V7.18Z" fill="url(#aG)"/><path d="M9.771 7.178a4.1 4.1 0 0 1 4.1-4.1h3.988a4.1 4.1 0 0 1 4.1 4.1V9.86H9.77V7.18Z" fill="url(#aH)"/><path d="M9.771 7.178a4.1 4.1 0 0 1 4.1-4.1h3.988a4.1 4.1 0 0 1 4.1 4.1V9.86H9.77V7.18Z" fill="url(#aI)"/><g filter="url(#aJ)"><path d="M14.615 2.07h2.39c.829 0 1.5.603 1.5 1.633v6.795h-5.39V3.703c0-1.03.671-1.633 1.5-1.633Z" fill="url(#aK)"/><path d="M14.615 2.07h2.39c.829 0 1.5.603 1.5 1.633v6.795h-5.39V3.703c0-1.03.671-1.633 1.5-1.633Z" fill="url(#aL)"/><path d="M14.615 2.07h2.39c.829 0 1.5.603 1.5 1.633v6.795h-5.39V3.703c0-1.03.671-1.633 1.5-1.633Z" fill="url(#aM)"/><path d="M14.615 2.07h2.39c.829 0 1.5.603 1.5 1.633v6.795h-5.39V3.703c0-1.03.671-1.633 1.5-1.633Z" fill="url(#aN)"/></g><path d="M22.266 9.842H9.672a1.153 1.153 0 1 0 0 2.306h12.594c.642 0 1.153-.52 1.153-1.153a1.147 1.147 0 0 0-1.153-1.153Z" fill="url(#aO)"/><path d="M22.266 9.842H9.672a1.153 1.153 0 1 0 0 2.306h12.594c.642 0 1.153-.52 1.153-1.153a1.147 1.147 0 0 0-1.153-1.153Z" fill="url(#aP)"/><path d="M22.266 9.842H9.672a1.153 1.153 0 1 0 0 2.306h12.594c.642 0 1.153-.52 1.153-1.153a1.147 1.147 0 0 0-1.153-1.153Z" fill="url(#aQ)"/><path d="M22.266 9.842H9.672a1.153 1.153 0 1 0 0 2.306h12.594c.642 0 1.153-.52 1.153-1.153a1.147 1.147 0 0 0-1.153-1.153Z" fill="url(#aR)"/><g filter="url(#aS)"><ellipse cx="19.329" cy="10.856" rx="2.827" ry=".264" fill="#FFF060"/></g><defs><radialGradient id="c" cx="0" cy="0" r="1" gradientUnits="userSpaceOnUse" gradientTransform="matrix(1.95544 -4.06131 9.26005 4.45853 21.286 20.602)"><stop stop-color="#F9BFA4"/><stop offset="1" stop-color="#FFC3A8" stop-opacity="0"/></radialGradient><radialGradient id="d" cx="0" cy="0" r="1" gradientUnits="userSpaceOnUse" gradientTransform="matrix(-2.11838 6.12652 -5.73482 -1.98295 15.269 16.052)"><stop offset=".62" stop-color="#C7897D"/><stop offset="1" stop-color="#C7897D" stop-opacity="0"/></radialGradient><radialGradient id="e" cx="0" cy="0" r="1" gradientUnits="userSpaceOnUse" gradientTransform="matrix(-3.53484 2.74516 -3.37915 -4.3512 12.524 17.18)"><stop offset=".205" stop-color="#CF987B"/><stop offset="1" stop-color="#CF987B" stop-opacity="0"/></radialGradient><radialGradient id="f" cx="0" cy="0" r="1" gradientUnits="userSpaceOnUse" gradientTransform="rotate(125.038 1.569 9.914) scale(1.99789 1.81599)"><stop offset=".334" stop-color="#C58E72"/><stop offset="1" stop-color="#C58E72" stop-opacity="0"/></radialGradient><radialGradient id="g" cx="0" cy="0" r="1" gradientUnits="userSpaceOnUse" gradientTransform="rotate(-167.428 6.291 5.708) scale(2.67774 3.93629)"><stop offset=".226" stop-color="#C49070"/><stop offset="1" stop-color="#C49070" stop-opacity="0"/></radialGradient><radialGradient id="h" cx="0" cy="0" r="1" gradientUnits="userSpaceOnUse" gradientTransform="rotate(55.684 .577 13.88) scale(4.30255 7.50854)"><stop stop-color="#DCC893"/><stop offset="1" stop-color="#DCC893" stop-opacity="0"/></radialGradient><radialGradient id="i" cx="0" cy="0" r="1" gradientUnits="userSpaceOnUse" gradientTransform="matrix(-1.24094 1.35378 -1.89189 -1.7342 22.188 7.628)"><stop stop-color="#FFFFBF"/><stop offset="1" stop-color="#FFFFBF" stop-opacity="0"/></radialGradient><radialGradient id="j" cx="0" cy="0" r="1" gradientUnits="userSpaceOnUse" gradientTransform="rotate(163.779 11.288 8.3) scale(2.15391 4.68663)"><stop stop-color="#FFFABE"/><stop offset="1" stop-color="#FFFABE" stop-opacity="0"/></radialGradient><radialGradient id="k" cx="0" cy="0" r="1" gradientUnits="userSpaceOnUse" gradientTransform="rotate(156.949 10.416 10.581) scale(3.84158 6.12081)"><stop stop-color="#FFF4BC"/><stop offset="1" stop-color="#FFF4BC" stop-opacity="0"/></radialGradient><radialGradient id="l" cx="0" cy="0" r="1" gradientUnits="userSpaceOnUse" gradientTransform="rotate(46.232 -11.44 31.07) scale(6.90071)"><stop offset=".147" stop-color="#FBA889"/><stop offset="1" stop-color="#FBA889" stop-opacity="0"/></radialGradient><radialGradient id="m" cx="0" cy="0" r="1" gradientUnits="userSpaceOnUse" gradientTransform="rotate(-49.12 27.966 .605) scale(4.64867 4.30626)"><stop stop-color="#DE9290"/><stop offset="1" stop-color="#DE9290" stop-opacity="0"/></radialGradient><radialGradient id="n" cx="0" cy="0" r="1" gradientUnits="userSpaceOnUse" gradientTransform="matrix(5.01849 10.69456 -16.58831 7.78417 16.554 11.91)"><stop offset=".809" stop-color="#FBB192" stop-opacity="0"/><stop offset=".943" stop-color="#DB8A90"/></radialGradient><radialGradient id="o" cx="0" cy="0" r="1" gradientUnits="userSpaceOnUse" gradientTransform="matrix(0 7.59375 -5.6138 0 16.011 20.61)"><stop offset=".174" stop-color="#9D67E1"/><stop offset="1" stop-color="#A473F8"/></radialGradient><radialGradient id="p" cx="0" cy="0" r="1" gradientUnits="userSpaceOnUse" gradientTransform="matrix(-.96875 0 0 -5.28125 18.483 26.172)"><stop stop-color="#A271EF"/><stop offset="1" stop-color="#A271EF" stop-opacity="0"/></radialGradient><radialGradient id="q" cx="0" cy="0" r="1" gradientUnits="userSpaceOnUse" gradientTransform="matrix(0 5.91396 -1.61702 0 13.721 24.564)"><stop stop-color="#FF7446"/><stop offset="1" stop-color="#FF6F4E"/></radialGradient><radialGradient id="r" cx="0" cy="0" r="1" gradientUnits="userSpaceOnUse" gradientTransform="matrix(0 4.55816 -.70149 0 13.721 26.231)"><stop offset=".35" stop-color="#FF7E58"/><stop offset="1" stop-color="#FF7E58" stop-opacity="0"/></radialGradient><radialGradient id="s" cx="0" cy="0" r="1" gradientUnits="userSpaceOnUse" gradientTransform="rotate(116.713 .93 14.396) scale(3.38004 5.52184)"><stop offset=".343" stop-color="#DA4708"/><stop offset="1" stop-color="#DC5314" stop-opacity="0"/></radialGradient><radialGradient id="t" cx="0" cy="0" r="1" gradientUnits="userSpaceOnUse" gradientTransform="matrix(0 9.4375 -2.83386 0 20.042 20.266)"><stop stop-color="#FF7523"/><stop offset="1" stop-color="#FB684A"/></radialGradient><radialGradient id="u" cx="0" cy="0" r="1" gradientUnits="userSpaceOnUse" gradientTransform="matrix(.88171 0 0 11.0473 18.279 27.384)"><stop offset=".214" stop-color="#F25937"/><stop offset="1" stop-color="#F25937" stop-opacity="0"/></radialGradient><radialGradient id="w" cx="0" cy="0" r="1" gradientUnits="userSpaceOnUse" gradientTransform="matrix(-3.52726 -8.45621 9.64626 -4.02365 12.416 28.884)"><stop offset=".684" stop-color="#E07241" stop-opacity="0"/><stop offset=".951" stop-color="#CC6E42"/></radialGradient><radialGradient id="x" cx="0" cy="0" r="1" gradientUnits="userSpaceOnUse" gradientTransform="matrix(.13057 0 0 9.00654 8.341 29.93)"><stop offset=".245" stop-color="#DE521D"/><stop offset="1" stop-color="#DE521D" stop-opacity="0"/></radialGradient><radialGradient id="y" cx="0" cy="0" r="1" gradientUnits="userSpaceOnUse" gradientTransform="matrix(0 8.78322 -2.01004 0 23.659 22.543)"><stop offset=".309" stop-color="#FF905A"/><stop offset="1" stop-color="#FF7955"/></radialGradient><radialGradient id="z" cx="0" cy="0" r="1" gradientUnits="userSpaceOnUse" gradientTransform="matrix(0 4.375 -.27856 0 23.659 27.937)"><stop offset=".325" stop-color="#FE713A"/><stop offset="1" stop-color="#FE713A" stop-opacity="0"/></radialGradient><radialGradient id="A" cx="0" cy="0" r="1" gradientUnits="userSpaceOnUse" gradientTransform="rotate(-108.091 18.473 10.12) scale(11.6646 18.6686)"><stop offset=".566" stop-color="#FDBF28" stop-opacity="0"/><stop offset=".971" stop-color="#CD963A"/></radialGradient><radialGradient id="C" cx="0" cy="0" r="1" gradientUnits="userSpaceOnUse" gradientTransform="matrix(1.79395 -5.21875 8.06034 2.77074 19.24 25.36)"><stop offset=".834" stop-color="#FFCE64" stop-opacity="0"/><stop offset=".998" stop-color="#FFCE64"/></radialGradient><radialGradient id="D" cx="0" cy="0" r="1" gradientUnits="userSpaceOnUse" gradientTransform="matrix(1.87 -7.3125 2.94555 .75325 6.471 28.89)"><stop stop-color="#966CE3"/><stop offset="1" stop-color="#8D6FBF"/></radialGradient><radialGradient id="F" cx="0" cy="0" r="1" gradientUnits="userSpaceOnUse" gradientTransform="matrix(-1.2124 -8.20544 2.09119 -.30899 25.529 29.93)"><stop stop-color="#B087FD"/><stop offset="1" stop-color="#9879C9"/></radialGradient><radialGradient id="G" cx="0" cy="0" r="1" gradientUnits="userSpaceOnUse" gradientTransform="matrix(0 -8.32422 .46978 0 23.659 29.93)"><stop offset=".353" stop-color="#8356C7"/><stop offset="1" stop-color="#8356C7" stop-opacity="0"/></radialGradient><radialGradient id="H" cx="0" cy="0" r="1" gradientUnits="userSpaceOnUse" gradientTransform="matrix(0 2.09685 -3.968 0 16.021 20.59)"><stop offset=".133" stop-color="#C77C86"/><stop offset=".88" stop-color="#CE898A"/></radialGradient><radialGradient id="I" cx="0" cy="0" r="1" gradientUnits="userSpaceOnUse" gradientTransform="rotate(124.232 3.699 15.26) scale(3.11083 1.51803)"><stop offset=".239" stop-color="#DC9C8D"/><stop offset="1" stop-color="#DC9C8D" stop-opacity="0"/></radialGradient><radialGradient id="J" cx="0" cy="0" r="1" gradientUnits="userSpaceOnUse" gradientTransform="rotate(150.285 5.654 12.362) scale(3.04044 5.42348)"><stop offset=".706" stop-color="#C57C7E" stop-opacity="0"/><stop offset="1" stop-color="#C57C7E"/></radialGradient><radialGradient id="P" cx="0" cy="0" r="1" gradientUnits="userSpaceOnUse" gradientTransform="matrix(2.79215 -1.26916 1.54959 3.40908 20.7 14.566)"><stop offset=".572" stop-color="#E1A792"/><stop offset=".905" stop-color="#F6C3A3"/></radialGradient><radialGradient id="Q" cx="0" cy="0" r="1" gradientUnits="userSpaceOnUse" gradientTransform="matrix(1.11874 .31964 -.16805 .58817 21.846 12.075)"><stop stop-color="#D59566"/><stop offset="1" stop-color="#D59566" stop-opacity="0"/></radialGradient><radialGradient id="S" cx="0" cy="0" r="1" gradientUnits="userSpaceOnUse" gradientTransform="rotate(-20.298 50.716 -52.381) scale(1.46345)"><stop offset=".71" stop-color="#E3A280" stop-opacity="0"/><stop offset="1" stop-color="#E3A280"/></radialGradient><radialGradient id="U" cx="0" cy="0" r="1" gradientUnits="userSpaceOnUse" gradientTransform="matrix(-1.36504 0 0 -1.30575 10.545 14.074)"><stop offset=".573" stop-color="#B0725A" stop-opacity="0"/><stop offset="1" stop-color="#B0725A"/></radialGradient><radialGradient id="W" cx="0" cy="0" r="1" gradientUnits="userSpaceOnUse" gradientTransform="rotate(155.244 8.136 8.845) scale(8.03385 10.7532)"><stop stop-color="#FBC09C"/><stop offset="1" stop-color="#D29982"/></radialGradient><radialGradient id="X" cx="0" cy="0" r="1" gradientUnits="userSpaceOnUse" gradientTransform="matrix(-2.36665 1.2518 -1.06207 -2.00793 18.153 14.253)"><stop stop-color="#FFC89E"/><stop offset="1" stop-color="#FFC89E" stop-opacity="0"/></radialGradient><radialGradient id="Y" cx="0" cy="0" r="1" gradientUnits="userSpaceOnUse" gradientTransform="rotate(-78.311 19.731 2.203) scale(4.63382 5.87946)"><stop stop-color="#B97783"/><stop offset="1" stop-color="#B97783" stop-opacity="0"/></radialGradient><radialGradient id="Z" cx="0" cy="0" r="1" gradientUnits="userSpaceOnUse" gradientTransform="matrix(0 7.95192 -10.7793 0 16.021 13.149)"><stop offset=".623" stop-color="#C6838A" stop-opacity="0"/><stop offset="1" stop-color="#BF6F86"/></radialGradient><radialGradient id="aa" cx="0" cy="0" r="1" gradientUnits="userSpaceOnUse" gradientTransform="rotate(172.34 7.83 8.605) scale(6.48832 11.1709)"><stop offset=".813" stop-color="#E3AB91" stop-opacity="0"/><stop offset="1" stop-color="#E3AB91"/></radialGradient><radialGradient id="ab" cx="0" cy="0" r="1" gradientUnits="userSpaceOnUse" gradientTransform="matrix(0 -1.2909 1.85582 0 18.603 13.001)"><stop offset=".259" stop-color="#E3A48E"/><stop offset="1" stop-color="#E3A48E" stop-opacity="0"/></radialGradient><radialGradient id="ac" cx="0" cy="0" r="1" gradientUnits="userSpaceOnUse" gradientTransform="matrix(0 -1.52561 1.74845 0 13.87 13.1)"><stop stop-color="#C2847A"/><stop offset="1" stop-color="#C2847A" stop-opacity="0"/></radialGradient><radialGradient id="ad" cx="0" cy="0" r="1" gradientUnits="userSpaceOnUse" gradientTransform="matrix(-1.51097 0 0 -4.97417 21.737 14.67)"><stop stop-color="#F4C099"/><stop offset="1" stop-color="#F4C099" stop-opacity="0"/></radialGradient><radialGradient id="ae" cx="0" cy="0" r="1" gradientUnits="userSpaceOnUse" gradientTransform="rotate(74.673 1.827 12.31) scale(4.90701 10.1401)"><stop stop-color="#BE7C5A"/><stop offset="1" stop-color="#BE7C5A" stop-opacity="0"/></radialGradient><radialGradient id="af" cx="0" cy="0" r="1" gradientUnits="userSpaceOnUse" gradientTransform="matrix(0 2.12447 -9.35768 0 16.021 12.017)"><stop offset=".109" stop-color="#CF8675"/><stop offset="1" stop-color="#CF8675" stop-opacity="0"/></radialGradient><radialGradient id="ai" cx="0" cy="0" r="1" gradientUnits="userSpaceOnUse" gradientTransform="matrix(-.78239 -2.74805 1.57247 -.4477 16.9 15.485)"><stop offset=".017" stop-color="#FDC9A8"/><stop offset="1" stop-color="#FDC9A8" stop-opacity="0"/></radialGradient><radialGradient id="ar" cx="0" cy="0" r="1" gradientUnits="userSpaceOnUse" gradientTransform="matrix(0 .91011 -1.44764 0 18.469 13.404)"><stop offset=".802" stop-color="#925C51"/><stop offset="1" stop-color="#694B43"/><stop offset="1" stop-color="#804D49"/><stop offset="1" stop-color="#85534D"/></radialGradient><radialGradient id="at" cx="0" cy="0" r="1" gradientUnits="userSpaceOnUse" gradientTransform="matrix(-.26016 -.33525 .46156 -.35817 18.213 13.498)"><stop offset=".766" stop-color="#FFE6E2" stop-opacity="0"/><stop offset=".966" stop-color="#FFE6E2"/></radialGradient><radialGradient id="aw" cx="0" cy="0" r="1" gradientUnits="userSpaceOnUse" gradientTransform="matrix(0 .91012 -1.44764 0 13.573 13.404)"><stop offset=".802" stop-color="#925C51"/><stop offset="1" stop-color="#694B43"/><stop offset="1" stop-color="#804D49"/><stop offset="1" stop-color="#85534D"/></radialGradient><radialGradient id="aA" cx="0" cy="0" r="1" gradientUnits="userSpaceOnUse" gradientTransform="matrix(-.00868 -.55422 .6662 -.01043 13.252 13.65)"><stop offset=".766" stop-color="#FFE6E2" stop-opacity="0"/><stop offset=".966" stop-color="#FFE6E2"/></radialGradient><radialGradient id="aB" cx="0" cy="0" r="1" gradientUnits="userSpaceOnUse" gradientTransform="rotate(89.9 6.196 13.391) scale(4.18751 2.64389)"><stop stop-color="#FFEE61"/><stop offset="1" stop-color="#FD4"/></radialGradient><radialGradient id="aC" cx="0" cy="0" r="1" gradientUnits="userSpaceOnUse" gradientTransform="matrix(0 -16 5.79775 0 11.834 9.86)"><stop offset=".301" stop-color="#E9B840"/><stop offset="1" stop-color="#E9B840" stop-opacity="0"/></radialGradient><radialGradient id="aD" cx="0" cy="0" r="1" gradientUnits="userSpaceOnUse" gradientTransform="matrix(1.28125 -8 15.26892 2.44541 17.24 10.297)"><stop offset=".814" stop-color="#EECD67" stop-opacity="0"/><stop offset=".946" stop-color="#EECD67"/></radialGradient><radialGradient id="aE" cx="0" cy="0" r="1" gradientUnits="userSpaceOnUse" gradientTransform="matrix(0 6.875 -.59037 0 13.177 6.469)"><stop offset=".305" stop-color="#D7A439"/><stop offset="1" stop-color="#E1B037" stop-opacity="0"/></radialGradient><radialGradient id="aF" cx="0" cy="0" r="1" gradientUnits="userSpaceOnUse" gradientTransform="rotate(84.92 5.174 8.62) scale(4.23538 1.69194)"><stop offset=".103" stop-color="#B59741"/><stop offset="1" stop-color="#CBA731" stop-opacity="0"/></radialGradient><radialGradient id="aG" cx="0" cy="0" r="1" gradientUnits="userSpaceOnUse" gradientTransform="matrix(-5.24995 -6.37504 7.8363 -6.45332 16.74 9.703)"><stop offset=".781" stop-color="#C3A852" stop-opacity="0"/><stop offset="1" stop-color="#C3A852"/></radialGradient><radialGradient id="aI" cx="0" cy="0" r="1" gradientUnits="userSpaceOnUse" gradientTransform="matrix(0 -.59375 5.79687 0 10.959 10.094)"><stop offset=".263" stop-color="#C8A03F"/><stop offset="1" stop-color="#C8A03F" stop-opacity="0"/></radialGradient><radialGradient id="aM" cx="0" cy="0" r="1" gradientUnits="userSpaceOnUse" gradientTransform="matrix(0 -9.0625 1 0 13.459 9.86)"><stop stop-color="#E3B438"/><stop offset="1" stop-color="#E3B438" stop-opacity="0"/></radialGradient><radialGradient id="aN" cx="0" cy="0" r="1" gradientUnits="userSpaceOnUse" gradientTransform="matrix(0 -8.78125 1.6875 0 18.334 9.922)"><stop stop-color="#FFE550"/><stop offset="1" stop-color="#FFE550" stop-opacity="0"/></radialGradient><radialGradient id="aR" cx="0" cy="0" r="1" gradientUnits="userSpaceOnUse" gradientTransform="rotate(75.753 .105 11.987) scale(2.12564 12.7111)"><stop offset=".173" stop-color="#C4A966"/><stop offset="1" stop-color="#DFB83E" stop-opacity="0"/></radialGradient><linearGradient id="b" x1="21.286" y1="6.274" x2="13.652" y2="20.414" gradientUnits="userSpaceOnUse"><stop stop-color="#FFFFBE"/><stop offset="1" stop-color="#E5AE90"/></linearGradient><linearGradient id="v" x1="9.158" y1="21.199" x2="9.158" y2="29.929" gradientUnits="userSpaceOnUse"><stop stop-color="#E6743E"/><stop offset="1" stop-color="#F46D40"/></linearGradient><linearGradient id="B" x1="21.034" y1="19.735" x2="21.034" y2="29.93" gradientUnits="userSpaceOnUse"><stop stop-color="#FFDA42"/><stop offset="1" stop-color="#FFCF4C"/></linearGradient><linearGradient id="E" x1="8.468" y1="29.929" x2="6.8" y2="29.769" gradientUnits="userSpaceOnUse"><stop offset=".333" stop-color="#735992"/><stop offset="1" stop-color="#735992" stop-opacity="0"/></linearGradient><linearGradient id="K" x1="7.961" y1="19.662" x2="24.088" y2="19.662" gradientUnits="userSpaceOnUse"><stop offset=".006" stop-color="#CCC"/><stop offset="1" stop-color="#E6E6E6"/></linearGradient><linearGradient id="L" x1="7.961" y1="19.628" x2="24.088" y2="19.628" gradientUnits="userSpaceOnUse"><stop offset=".006" stop-color="#CCC"/><stop offset="1" stop-color="#E6E6E6"/></linearGradient><linearGradient id="N" x1="8.719" y1="14.171" x2="12.039" y2="14.171" gradientUnits="userSpaceOnUse"><stop stop-color="#C48B78"/><stop offset="1" stop-color="#B47860"/></linearGradient><linearGradient id="aj" x1="14.847" y1="15.505" x2="15.806" y2="15.622" gradientUnits="userSpaceOnUse"><stop stop-color="#D1987A"/><stop offset="1" stop-color="#D1987A" stop-opacity="0"/></linearGradient><linearGradient id="ak" x1="16.021" y1="16.463" x2="16.021" y2="15.779" gradientUnits="userSpaceOnUse"><stop stop-color="#C57F82"/><stop offset="1" stop-color="#C57F82" stop-opacity="0"/></linearGradient><linearGradient id="am" x1="16.021" y1="13.165" x2="16.222" y2="14.67" gradientUnits="userSpaceOnUse"><stop stop-color="#DD9B84"/><stop offset="1" stop-color="#DD9B84" stop-opacity="0"/></linearGradient><linearGradient id="ao" x1="15.203" y1="18.12" x2="15.711" y2="17.142" gradientUnits="userSpaceOnUse"><stop stop-color="#DAA299"/><stop offset="1" stop-color="#DAA299" stop-opacity="0"/></linearGradient><linearGradient id="av" x1="19.341" y1="13.464" x2="18.989" y2="13.681" gradientUnits="userSpaceOnUse"><stop stop-color="#B4948D"/><stop offset="1" stop-color="#B4948D" stop-opacity="0"/></linearGradient><linearGradient id="ay" x1="14.408" y1="13.464" x2="14.056" y2="13.681" gradientUnits="userSpaceOnUse"><stop stop-color="#B4948D"/><stop offset="1" stop-color="#B4948D" stop-opacity="0"/></linearGradient><linearGradient id="aH" x1="9.771" y1="9.234" x2="10.584" y2="9.234" gradientUnits="userSpaceOnUse"><stop stop-color="#CDAC54"/><stop offset="1" stop-color="#CDAC54" stop-opacity="0"/></linearGradient><linearGradient id="aK" x1="15.81" y1="2.07" x2="15.81" y2="10.498" gradientUnits="userSpaceOnUse"><stop stop-color="#F9CD2E"/><stop offset="1" stop-color="#FFCA3D"/></linearGradient><linearGradient id="aL" x1="15.81" y1="2.07" x2="15.81" y2="4.672" gradientUnits="userSpaceOnUse"><stop stop-color="#E7C44C"/><stop offset="1" stop-color="#E7C44C" stop-opacity="0"/></linearGradient><linearGradient id="aO" x1="21.786" y1="11.243" x2="5.158" y2="11.243" gradientUnits="userSpaceOnUse"><stop stop-color="#FFE24A"/><stop offset="1" stop-color="#F0BC33"/></linearGradient><linearGradient id="aP" x1="15.587" y1="9.842" x2="15.587" y2="10.155" gradientUnits="userSpaceOnUse"><stop offset=".027" stop-color="#FFD131"/><stop offset="1" stop-color="#FFD131" stop-opacity="0"/></linearGradient><linearGradient id="aQ" x1="16.505" y1="12.148" x2="16.505" y2="10.895" gradientUnits="userSpaceOnUse"><stop stop-color="#E1926F"/><stop offset="1" stop-color="#F9B14D" stop-opacity="0"/></linearGradient><filter id="a" x="7.598" y="3.757" width="17.097" height="17.597" filterUnits="userSpaceOnUse" color-interpolation-filters="sRGB"><feFlood flood-opacity="0" result="BackgroundImageFix"/><feBlend in="SourceGraphic" in2="BackgroundImageFix" result="shape"/><feColorMatrix in="SourceAlpha" values="0 0 0 0 0 0 0 0 0 0 0 0 0 0 0 0 0 0 127 0" result="hardAlpha"/><feOffset dx=".25" dy="-.75"/><feGaussianBlur stdDeviation=".75"/><feComposite in2="hardAlpha" operator="arithmetic" k2="-1" k3="1"/><feColorMatrix values="0 0 0 0 0.886275 0 0 0 0 0.698039 0 0 0 0 0.607843 0 0 0 1 0"/><feBlend in2="shape" result="effect1_innerShadow_4002_2958"/></filter><filter id="M" x="8.719" y="12.269" width="3.76" height="3.86" filterUnits="userSpaceOnUse" color-interpolation-filters="sRGB"><feFlood flood-opacity="0" result="BackgroundImageFix"/><feBlend in="SourceGraphic" in2="BackgroundImageFix" result="shape"/><feColorMatrix in="SourceAlpha" values="0 0 0 0 0 0 0 0 0 0 0 0 0 0 0 0 0 0 127 0" result="hardAlpha"/><feOffset dx=".15" dy=".25"/><feGaussianBlur stdDeviation=".25"/><feComposite in2="hardAlpha" operator="arithmetic" k2="-1" k3="1"/><feColorMatrix values="0 0 0 0 0.858824 0 0 0 0 0.635294 0 0 0 0 0.533333 0 0 0 1 0"/><feBlend in2="shape" result="effect1_innerShadow_4002_2958"/></filter><filter id="O" x="19.778" y="12.019" width="3.61" height="3.86" filterUnits="userSpaceOnUse" color-interpolation-filters="sRGB"><feFlood flood-opacity="0" result="BackgroundImageFix"/><feBlend in="SourceGraphic" in2="BackgroundImageFix" result="shape"/><feColorMatrix in="SourceAlpha" values="0 0 0 0 0 0 0 0 0 0 0 0 0 0 0 0 0 0 127 0" result="hardAlpha"/><feOffset dy="-.25"/><feGaussianBlur stdDeviation=".25"/><feComposite in2="hardAlpha" operator="arithmetic" k2="-1" k3="1"/><feColorMatrix values="0 0 0 0 0.827451 0 0 0 0 0.568627 0 0 0 0 0.505882 0 0 0 1 0"/><feBlend in2="shape" result="effect1_innerShadow_4002_2958"/></filter><filter id="R" x="19.878" y="12.369" width="3.41" height="3.41" filterUnits="userSpaceOnUse" color-interpolation-filters="sRGB"><feFlood flood-opacity="0" result="BackgroundImageFix"/><feBlend in="SourceGraphic" in2="BackgroundImageFix" result="shape"/><feGaussianBlur stdDeviation=".25" result="effect1_foregroundBlur_4002_2958"/></filter><filter id="T" x="8.941" y="12.469" width="3.21" height="3.21" filterUnits="userSpaceOnUse" color-interpolation-filters="sRGB"><feFlood flood-opacity="0" result="BackgroundImageFix"/><feBlend in="SourceGraphic" in2="BackgroundImageFix" result="shape"/><feGaussianBlur stdDeviation=".2" result="effect1_foregroundBlur_4002_2958"/></filter><filter id="V" x="10.305" y="8.569" width="11.432" height="12.451" filterUnits="userSpaceOnUse" color-interpolation-filters="sRGB"><feFlood flood-opacity="0" result="BackgroundImageFix"/><feBlend in="SourceGraphic" in2="BackgroundImageFix" result="shape"/><feColorMatrix in="SourceAlpha" values="0 0 0 0 0 0 0 0 0 0 0 0 0 0 0 0 0 0 127 0" result="hardAlpha"/><feOffset dy=".25"/><feGaussianBlur stdDeviation=".125"/><feComposite in2="hardAlpha" operator="arithmetic" k2="-1" k3="1"/><feColorMatrix values="0 0 0 0 0.745098 0 0 0 0 0.486275 0 0 0 0 0.384314 0 0 0 1 0"/><feBlend in2="shape" result="effect1_innerShadow_4002_2958"/></filter><filter id="ag" x="14.286" y="13.007" width="3.106" height="4.008" filterUnits="userSpaceOnUse" color-interpolation-filters="sRGB"><feFlood flood-opacity="0" result="BackgroundImageFix"/><feBlend in="SourceGraphic" in2="BackgroundImageFix" result="shape"/><feGaussianBlur stdDeviation=".25" result="effect1_foregroundBlur_4002_2958"/></filter><filter id="ah" x="14.718" y="13.102" width="2.606" height="3.508" filterUnits="userSpaceOnUse" color-interpolation-filters="sRGB"><feFlood flood-opacity="0" result="BackgroundImageFix"/><feBlend in="SourceGraphic" in2="BackgroundImageFix" result="shape"/><feGaussianBlur stdDeviation=".125" result="effect1_foregroundBlur_4002_2958"/></filter><filter id="al" x="14.718" y="12.915" width="2.606" height="3.508" filterUnits="userSpaceOnUse" color-interpolation-filters="sRGB"><feFlood flood-opacity="0" result="BackgroundImageFix"/><feBlend in="SourceGraphic" in2="BackgroundImageFix" result="shape"/><feGaussianBlur stdDeviation=".125" result="effect1_foregroundBlur_4002_2958"/></filter><filter id="an" x="13.969" y="16.732" width="4.104" height="1.663" filterUnits="userSpaceOnUse" color-interpolation-filters="sRGB"><feFlood flood-opacity="0" result="BackgroundImageFix"/><feBlend in="SourceGraphic" in2="BackgroundImageFix" result="shape"/><feGaussianBlur stdDeviation=".05" result="effect1_foregroundBlur_4002_2958"/></filter><filter id="ap" x="17.102" y="12.498" width="3.343" height="1.442" filterUnits="userSpaceOnUse" color-interpolation-filters="sRGB"><feFlood flood-opacity="0" result="BackgroundImageFix"/><feBlend in="SourceGraphic" in2="BackgroundImageFix" result="shape"/><feColorMatrix in="SourceAlpha" values="0 0 0 0 0 0 0 0 0 0 0 0 0 0 0 0 0 0 127 0" result="hardAlpha"/><feOffset dx="-.2"/><feGaussianBlur stdDeviation=".2"/><feComposite in2="hardAlpha" operator="arithmetic" k2="-1" k3="1"/><feColorMatrix values="0 0 0 0 0.141176 0 0 0 0 0.0862745 0 0 0 0 0.176471 0 0 0 1 0"/><feBlend in2="shape" result="effect1_innerShadow_4002_2958"/></filter><filter id="aq" x="11.598" y="12.498" width="3.343" height="1.442" filterUnits="userSpaceOnUse" color-interpolation-filters="sRGB"><feFlood flood-opacity="0" result="BackgroundImageFix"/><feBlend in="SourceGraphic" in2="BackgroundImageFix" result="shape"/><feColorMatrix in="SourceAlpha" values="0 0 0 0 0 0 0 0 0 0 0 0 0 0 0 0 0 0 127 0" result="hardAlpha"/><feOffset dx=".2"/><feGaussianBlur stdDeviation=".125"/><feComposite in2="hardAlpha" operator="arithmetic" k2="-1" k3="1"/><feColorMatrix values="0 0 0 0 0.133333 0 0 0 0 0.0784314 0 0 0 0 0.168627 0 0 0 1 0"/><feBlend in2="shape" result="effect1_innerShadow_4002_2958"/></filter><filter id="as" x="17.657" y="12.923" width=".858" height=".757" filterUnits="userSpaceOnUse" color-interpolation-filters="sRGB"><feFlood flood-opacity="0" result="BackgroundImageFix"/><feBlend in="SourceGraphic" in2="BackgroundImageFix" result="shape"/><feGaussianBlur stdDeviation=".05" result="effect1_foregroundBlur_4002_2958"/></filter><filter id="au" x="18.612" y="13.019" width=".951" height=".976" filterUnits="userSpaceOnUse" color-interpolation-filters="sRGB"><feFlood flood-opacity="0" result="BackgroundImageFix"/><feBlend in="SourceGraphic" in2="BackgroundImageFix" result="shape"/><feGaussianBlur stdDeviation=".1" result="effect1_foregroundBlur_4002_2958"/></filter><filter id="ax" x="13.628" y="12.948" width="1.058" height="1.118" filterUnits="userSpaceOnUse" color-interpolation-filters="sRGB"><feFlood flood-opacity="0" result="BackgroundImageFix"/><feBlend in="SourceGraphic" in2="BackgroundImageFix" result="shape"/><feGaussianBlur stdDeviation=".1" result="effect1_foregroundBlur_4002_2958"/></filter><filter id="az" x="12.769" y="12.914" width="1" height=".766" filterUnits="userSpaceOnUse" color-interpolation-filters="sRGB"><feFlood flood-opacity="0" result="BackgroundImageFix"/><feBlend in="SourceGraphic" in2="BackgroundImageFix" result="shape"/><feGaussianBlur stdDeviation=".05" result="effect1_foregroundBlur_4002_2958"/></filter><filter id="aJ" x="12.915" y="2.07" width="5.791" height="8.428" filterUnits="userSpaceOnUse" color-interpolation-filters="sRGB"><feFlood flood-opacity="0" result="BackgroundImageFix"/><feBlend in="SourceGraphic" in2="BackgroundImageFix" result="shape"/><feColorMatrix in="SourceAlpha" values="0 0 0 0 0 0 0 0 0 0 0 0 0 0 0 0 0 0 127 0" result="hardAlpha"/><feOffset dx=".2"/><feGaussianBlur stdDeviation=".3"/><feComposite in2="hardAlpha" operator="arithmetic" k2="-1" k3="1"/><feColorMatrix values="0 0 0 0 0.768627 0 0 0 0 0.658824 0 0 0 0 0.321569 0 0 0 1 0"/><feBlend in2="shape" result="effect1_innerShadow_4002_2958"/><feColorMatrix in="SourceAlpha" values="0 0 0 0 0 0 0 0 0 0 0 0 0 0 0 0 0 0 127 0" result="hardAlpha"/><feOffset dx="-.2"/><feGaussianBlur stdDeviation=".3"/><feComposite in2="hardAlpha" operator="arithmetic" k2="-1" k3="1"/><feColorMatrix values="0 0 0 0 1 0 0 0 0 0.92549 0 0 0 0 0.372549 0 0 0 1 0"/><feBlend in2="effect1_innerShadow_4002_2958" result="effect2_innerShadow_4002_2958"/></filter><filter id="aS" x="15.502" y="9.592" width="7.654" height="2.528" filterUnits="userSpaceOnUse" color-interpolation-filters="sRGB"><feFlood flood-opacity="0" result="BackgroundImageFix"/><feBlend in="SourceGraphic" in2="BackgroundImageFix" result="shape"/><feGaussianBlur stdDeviation=".5" result="effect1_foregroundBlur_4002_2958"/></filter></defs></svg>