<svg xmlns="http://www.w3.org/2000/svg" fill="none" viewBox="0 0 32 32"><path fill="url(#woman-rowing-boat-dark_svg__a)" d="M14.713 7.89h1.744v2h-1.744z" transform="rotate(39.16 14.713 7.89)"/><path fill="url(#woman-rowing-boat-dark_svg__b)" d="M18.232 8.246c-.081-.147-.066-.411-.047-.504l-.445 1.02c.14.074.378.14.515-.031.098-.121.079-.301-.023-.485"/><g filter="url(#woman-rowing-boat-dark_svg__c)"><path fill="url(#woman-rowing-boat-dark_svg__d)" d="M15.931 9.851c-.914-.453-1.535-1.234-1.71-1.617l.662-1.593a1.2 1.2 0 0 1 1.034-.738l1.656-.11c.13-.008.263-.002.372.067.288.182.576.644.369 1.476-.229 1.08-.501 1.743-.749 2.226-.177.344-.533.572-.916.506a3.2 3.2 0 0 1-.718-.217"/><path fill="url(#woman-rowing-boat-dark_svg__e)" d="M15.931 9.851c-.914-.453-1.535-1.234-1.71-1.617l.662-1.593a1.2 1.2 0 0 1 1.034-.738l1.656-.11c.13-.008.263-.002.372.067.288.182.576.644.369 1.476-.229 1.08-.501 1.743-.749 2.226-.177.344-.533.572-.916.506a3.2 3.2 0 0 1-.718-.217"/><path fill="url(#woman-rowing-boat-dark_svg__f)" d="M15.931 9.851c-.914-.453-1.535-1.234-1.71-1.617l.662-1.593a1.2 1.2 0 0 1 1.034-.738l1.656-.11c.13-.008.263-.002.372.067.288.182.576.644.369 1.476-.229 1.08-.501 1.743-.749 2.226-.177.344-.533.572-.916.506a3.2 3.2 0 0 1-.718-.217"/></g><path fill="#32101E" fill-rule="evenodd" d="M16.98 8.655a.1.1 0 0 1 .132.05c.032.07.15.243.339.324a.1.1 0 0 1-.079.184.92.92 0 0 1-.442-.425.1.1 0 0 1 .05-.133" clip-rule="evenodd"/><g filter="url(#woman-rowing-boat-dark_svg__g)"><path fill="#323232" fill-rule="evenodd" d="M17.866 7.134a.72.72 0 0 0-.488-.028.1.1 0 0 1-.066-.189.92.92 0 0 1 .637.035.1.1 0 1 1-.083.182" clip-rule="evenodd"/></g><g filter="url(#woman-rowing-boat-dark_svg__h)"><path fill="#7355BD" d="M11.168 10.758c-1.006 1.231-1.414 2.668-1.594 3.273l3.992 1.25c.125-1.023.75-2.718 1.172-3.375.422-.656.489-.87.555-1.347s-.256-1.195-1.336-1.395c-.844-.156-1.854.45-2.789 1.594"/><path fill="url(#woman-rowing-boat-dark_svg__i)" d="M11.168 10.758c-1.006 1.231-1.414 2.668-1.594 3.273l3.992 1.25c.125-1.023.75-2.718 1.172-3.375.422-.656.489-.87.555-1.347s-.256-1.195-1.336-1.395c-.844-.156-1.854.45-2.789 1.594"/></g><path fill="url(#woman-rowing-boat-dark_svg__j)" d="M9.598 13.914c-.243.895-.203 1.762-.11 2.024l6.309-.063z"/><path fill="url(#woman-rowing-boat-dark_svg__k)" d="m5.232 17.17 21.725-.021v6.25L8.949 23.28z"/><path fill="url(#woman-rowing-boat-dark_svg__l)" d="m5.232 17.17 21.725-.021v6.25L8.949 23.28z"/><path fill="url(#woman-rowing-boat-dark_svg__m)" d="m5.232 17.17 21.725-.021v6.25L8.949 23.28z"/><path fill="url(#woman-rowing-boat-dark_svg__n)" d="m5.232 17.17 21.725-.021v6.25L8.949 23.28z"/><g filter="url(#woman-rowing-boat-dark_svg__o)"><path fill="url(#woman-rowing-boat-dark_svg__p)" d="M3.504 21.133c-.775-.425-1.254-.422-1.445-.422v5.938H29.94V20.71c-1.562 0-2.214 1.156-3.53 1.156-1.317 0-2.188-1.156-3.548-1.156-1.117 0-2.242 1.156-3.508 1.156-.972 0-2.203-1.156-3.39-1.156-1.258 0-2.262 1.156-3.399 1.156-.558 0-.836-.101-1.539-.437s-1.324-.703-1.98-.703c-.654 0-1.311.333-1.88.621l-.007.004c-.57.289-1.031.515-1.656.515s-1.031-.203-2-.734"/><path fill="url(#woman-rowing-boat-dark_svg__q)" d="M3.504 21.133c-.775-.425-1.254-.422-1.445-.422v5.938H29.94V20.71c-1.562 0-2.214 1.156-3.53 1.156-1.317 0-2.188-1.156-3.548-1.156-1.117 0-2.242 1.156-3.508 1.156-.972 0-2.203-1.156-3.39-1.156-1.258 0-2.262 1.156-3.399 1.156-.558 0-.836-.101-1.539-.437s-1.324-.703-1.98-.703c-.654 0-1.311.333-1.88.621l-.007.004c-.57.289-1.031.515-1.656.515s-1.031-.203-2-.734"/><path fill="url(#woman-rowing-boat-dark_svg__r)" d="M3.504 21.133c-.775-.425-1.254-.422-1.445-.422v5.938H29.94V20.71c-1.562 0-2.214 1.156-3.53 1.156-1.317 0-2.188-1.156-3.548-1.156-1.117 0-2.242 1.156-3.508 1.156-.972 0-2.203-1.156-3.39-1.156-1.258 0-2.262 1.156-3.399 1.156-.558 0-.836-.101-1.539-.437s-1.324-.703-1.98-.703c-.654 0-1.311.333-1.88.621l-.007.004c-.57.289-1.031.515-1.656.515s-1.031-.203-2-.734"/></g><g filter="url(#woman-rowing-boat-dark_svg__s)"><rect width="23.859" height="2.191" x="4.086" y="15.712" fill="url(#woman-rowing-boat-dark_svg__t)" rx="1.095"/><rect width="23.859" height="2.191" x="4.086" y="15.712" fill="url(#woman-rowing-boat-dark_svg__u)" rx="1.095"/><rect width="23.859" height="2.191" x="4.086" y="15.712" fill="url(#woman-rowing-boat-dark_svg__v)" rx="1.095"/><rect width="23.859" height="2.191" x="4.086" y="15.712" fill="url(#woman-rowing-boat-dark_svg__w)" rx="1.095"/></g><rect width="1.28" height=".637" x="19.523" y="13.248" fill="url(#woman-rowing-boat-dark_svg__x)" rx=".318" transform="rotate(-21.787 19.523 13.248)"/><path fill="url(#woman-rowing-boat-dark_svg__y)" d="M21.334 12.463a.59.59 0 0 1 .829.84l-8.439 8.331a.59.59 0 0 1-.829-.84z"/><path fill="url(#woman-rowing-boat-dark_svg__z)" d="M21.334 12.463a.59.59 0 0 1 .829.84l-8.439 8.331a.59.59 0 0 1-.829-.84z"/><path fill="url(#woman-rowing-boat-dark_svg__A)" d="M21.334 12.463a.59.59 0 0 1 .829.84l-8.439 8.331a.59.59 0 0 1-.829-.84z"/><g filter="url(#woman-rowing-boat-dark_svg__B)"><path fill="url(#woman-rowing-boat-dark_svg__C)" d="M11.366 20.512a1.917 1.917 0 1 1 2.712 2.71l-2.468 2.47a1.917 1.917 0 0 1-2.712-2.711z"/></g><g filter="url(#woman-rowing-boat-dark_svg__D)"><path fill="url(#woman-rowing-boat-dark_svg__E)" d="M3.504 24.633c-.775-.425-1.254-.422-1.445-.422v5.938H29.94V24.21c-1.562 0-2.214 1.156-3.53 1.156-1.317 0-2.188-1.156-3.548-1.156-1.117 0-2.242 1.156-3.508 1.156-.972 0-2.203-1.156-3.39-1.156-1.258 0-2.262 1.156-3.399 1.156-.558 0-.836-.101-1.539-.437s-1.324-.703-1.98-.703c-.654 0-1.311.333-1.88.621l-.007.004c-.57.289-1.031.515-1.656.515s-1.031-.203-2-.734"/><path fill="url(#woman-rowing-boat-dark_svg__F)" d="M3.504 24.633c-.775-.425-1.254-.422-1.445-.422v5.938H29.94V24.21c-1.562 0-2.214 1.156-3.53 1.156-1.317 0-2.188-1.156-3.548-1.156-1.117 0-2.242 1.156-3.508 1.156-.972 0-2.203-1.156-3.39-1.156-1.258 0-2.262 1.156-3.399 1.156-.558 0-.836-.101-1.539-.437s-1.324-.703-1.98-.703c-.654 0-1.311.333-1.88.621l-.007.004c-.57.289-1.031.515-1.656.515s-1.031-.203-2-.734"/><path fill="url(#woman-rowing-boat-dark_svg__G)" d="M3.504 24.633c-.775-.425-1.254-.422-1.445-.422v5.938H29.94V24.21c-1.562 0-2.214 1.156-3.53 1.156-1.317 0-2.188-1.156-3.548-1.156-1.117 0-2.242 1.156-3.508 1.156-.972 0-2.203-1.156-3.39-1.156-1.258 0-2.262 1.156-3.399 1.156-.558 0-.836-.101-1.539-.437s-1.324-.703-1.98-.703c-.654 0-1.311.333-1.88.621l-.007.004c-.57.289-1.031.515-1.656.515s-1.031-.203-2-.734"/></g><g filter="url(#woman-rowing-boat-dark_svg__H)"><path fill="#503633" d="M16.504 13.969c-.713-.331-1.443-.966-1.719-1.242l1.281-1.192c1.157 1.11 2.375 1.278 2.684 1.352.395.094 1.538.3 2.168.73.516.352.379.992.07 1.266-.254.225-.675.336-1.011.203s-.559-.27-1.227-.398a10 10 0 0 1-2.246-.72"/><path fill="url(#woman-rowing-boat-dark_svg__I)" d="M16.504 13.969c-.713-.331-1.443-.966-1.719-1.242l1.281-1.192c1.157 1.11 2.375 1.278 2.684 1.352.395.094 1.538.3 2.168.73.516.352.379.992.07 1.266-.254.225-.675.336-1.011.203s-.559-.27-1.227-.398a10 10 0 0 1-2.246-.72"/></g><g filter="url(#woman-rowing-boat-dark_svg__J)"><path stroke="url(#woman-rowing-boat-dark_svg__K)" stroke-width=".4" d="M15.43 11.91c.291.348.889.87 1.804 1.164 1.438.46 1.734.515 2.36.726"/></g><g filter="url(#woman-rowing-boat-dark_svg__L)"><path fill="url(#woman-rowing-boat-dark_svg__M)" d="M13.004 11.258c.6.719 1.333 1.555 1.625 1.883l1.656-1.485c-.33-.395-1.117-1.303-1.617-1.765-.625-.578-1.27-.192-1.469 0-.172.165-.672.687-.195 1.367"/></g><path fill="url(#woman-rowing-boat-dark_svg__N)" d="m16.914 7.665.116.062.57-.289c-.28-.16-.543-.127-.722.025-.068.058-.042.16.036.202"/><path fill="#fff" d="M17.645 7.967c.048.013.099-.026.124-.083l.003-.01c.066-.246-.096-.437-.295-.49-.189-.05-.434.031-.5.278l-.003.01c-.015.059.01.118.066.133z"/><path fill="url(#woman-rowing-boat-dark_svg__O)" d="M17.72 7.988c.02-.037.038-.064.051-.113.048-.178-.02-.355-.169-.394-.138-.037-.296.079-.343.256a.5.5 0 0 0-.012.124z"/><path fill="url(#woman-rowing-boat-dark_svg__P)" d="M17.641 7.966q.045-.05.061-.11c.027-.099-.019-.206-.097-.227-.08-.02-.17.04-.198.148a.3.3 0 0 0-.002.126z"/><path fill="#fff" d="M17.545 7.595c.016-.036.07-.048.119-.026s.075.07.059.106c-.017.037-.07.048-.119.026s-.075-.07-.059-.106"/><g filter="url(#woman-rowing-boat-dark_svg__Q)"><path fill="url(#woman-rowing-boat-dark_svg__R)" d="M13.6 6.97c.332-.227.418-.442.515-1.094.219-1.094.542-1.306.969-1.547.449-.254 1.195-.188 1.703.195.558.42.668.341 1.348.364.722.023.972.496.988.91.015.414-.207.98-.934 1.03-.834.06-.875-.687-1.574-.53-.596.133-.727 1.316-.976 1.797-.159.305-.3 1.012-1.165 1.21-.921.211-1.68-.562-1.554-1.328.1-.612.382-.805.68-1.007"/><path fill="url(#woman-rowing-boat-dark_svg__S)" d="M13.6 6.97c.332-.227.418-.442.515-1.094.219-1.094.542-1.306.969-1.547.449-.254 1.195-.188 1.703.195.558.42.668.341 1.348.364.722.023.972.496.988.91.015.414-.207.98-.934 1.03-.834.06-.875-.687-1.574-.53-.596.133-.727 1.316-.976 1.797-.159.305-.3 1.012-1.165 1.21-.921.211-1.68-.562-1.554-1.328.1-.612.382-.805.68-1.007"/></g><defs><radialGradient id="woman-rowing-boat-dark_svg__a" cx="0" cy="0" r="1" gradientTransform="rotate(112.51 5.255 9.748)scale(1.02069 1.88161)" gradientUnits="userSpaceOnUse"><stop offset=".142" stop-color="#3E2227"/><stop offset="1" stop-color="#453230"/></radialGradient><radialGradient id="woman-rowing-boat-dark_svg__b" cx="0" cy="0" r="1" gradientTransform="rotate(109.376 6.197 10.614)scale(.62401 .57809)" gradientUnits="userSpaceOnUse"><stop offset=".463" stop-color="#5A4644"/><stop offset="1" stop-color="#40292A"/></radialGradient><radialGradient id="woman-rowing-boat-dark_svg__d" cx="0" cy="0" r="1" gradientTransform="rotate(161.861 8.158 5.37)scale(2.84448 2.94485)" gradientUnits="userSpaceOnUse"><stop offset=".176" stop-color="#503634"/><stop offset="1" stop-color="#492D2D"/></radialGradient><radialGradient id="woman-rowing-boat-dark_svg__e" cx="0" cy="0" r="1" gradientTransform="rotate(107.289 5.803 10.278)scale(.61776 .64399)" gradientUnits="userSpaceOnUse"><stop stop-color="#665351"/><stop offset="1" stop-color="#665351" stop-opacity="0"/></radialGradient><radialGradient id="woman-rowing-boat-dark_svg__f" cx="0" cy="0" r="1" gradientTransform="matrix(-.60106 2 -1.01904 -.30625 16.903 6.285)" gradientUnits="userSpaceOnUse"><stop offset=".128" stop-color="#594646"/><stop offset="1" stop-color="#594646" stop-opacity="0"/></radialGradient><radialGradient id="woman-rowing-boat-dark_svg__i" cx="0" cy="0" r="1" gradientTransform="rotate(72.474 -1.175 15.333)scale(4.35856 2.29046)" gradientUnits="userSpaceOnUse"><stop offset=".08" stop-color="#57399F"/><stop offset="1" stop-color="#57399F" stop-opacity="0"/></radialGradient><radialGradient id="woman-rowing-boat-dark_svg__j" cx="0" cy="0" r="1" gradientTransform="rotate(15.117 -49.823 48.746)scale(4.82315 2.16799)" gradientUnits="userSpaceOnUse"><stop offset=".396" stop-color="#8D8695"/><stop offset=".77" stop-color="#697167"/></radialGradient><radialGradient id="woman-rowing-boat-dark_svg__m" cx="0" cy="0" r="1" gradientTransform="matrix(5.5625 -6.21875 2.25745 2.01923 13.145 22.211)" gradientUnits="userSpaceOnUse"><stop stop-color="#659941"/><stop offset="1" stop-color="#79AF4C" stop-opacity="0"/></radialGradient><radialGradient id="woman-rowing-boat-dark_svg__n" cx="0" cy="0" r="1" gradientTransform="matrix(-2.15625 -1.84376 1.36973 -1.60188 11.332 22.117)" gradientUnits="userSpaceOnUse"><stop stop-color="#528C3F"/><stop offset="1" stop-color="#528C3F" stop-opacity="0"/></radialGradient><radialGradient id="woman-rowing-boat-dark_svg__p" cx="0" cy="0" r="1" gradientTransform="rotate(133.063 7.18 15.183)scale(9.15342 18.4848)" gradientUnits="userSpaceOnUse"><stop stop-color="#379FE9"/><stop offset="1" stop-color="#3691DF"/></radialGradient><radialGradient id="woman-rowing-boat-dark_svg__q" cx="0" cy="0" r="1" gradientTransform="rotate(-133.468 9.932 10.499)scale(4.13363 7.33334)" gradientUnits="userSpaceOnUse"><stop stop-color="#286EC5"/><stop offset="1" stop-color="#286EC5" stop-opacity="0"/></radialGradient><radialGradient id="woman-rowing-boat-dark_svg__r" cx="0" cy="0" r="1" gradientTransform="matrix(-4.875 .37502 -1.76114 -22.89326 31.55 23.305)" gradientUnits="userSpaceOnUse"><stop offset=".288" stop-color="#38A7FB"/><stop offset="1" stop-color="#38A7FB" stop-opacity="0"/></radialGradient><radialGradient id="woman-rowing-boat-dark_svg__u" cx="0" cy="0" r="1" gradientTransform="matrix(-1.28125 0 0 -1 27.55 16.336)" gradientUnits="userSpaceOnUse"><stop stop-color="#78BB7D"/><stop offset="1" stop-color="#78BB7D" stop-opacity="0"/></radialGradient><radialGradient id="woman-rowing-boat-dark_svg__v" cx="0" cy="0" r="1" gradientTransform="matrix(16.1875 0 0 .71644 4.27 16.807)" gradientUnits="userSpaceOnUse"><stop stop-color="#7CAF55"/><stop offset="1" stop-color="#7CAF55" stop-opacity="0"/></radialGradient><radialGradient id="woman-rowing-boat-dark_svg__w" cx="0" cy="0" r="1" gradientTransform="matrix(0 .8125 -9.78125 0 17.957 16.586)" gradientUnits="userSpaceOnUse"><stop stop-color="#70A762"/><stop offset="1" stop-color="#70A762" stop-opacity="0"/></radialGradient><radialGradient id="woman-rowing-boat-dark_svg__x" cx="0" cy="0" r="1" gradientTransform="matrix(.6797 -.01657 .00353 .14487 20.018 13.508)" gradientUnits="userSpaceOnUse"><stop stop-color="#5C504D"/><stop offset="1" stop-color="#47332F"/></radialGradient><radialGradient id="woman-rowing-boat-dark_svg__y" cx="0" cy="0" r="1" gradientTransform="rotate(135.21 8.275 10.863)scale(12.0651 1.31103)" gradientUnits="userSpaceOnUse"><stop offset=".236" stop-color="#FECCA0"/><stop offset="1" stop-color="#DA9C63"/></radialGradient><radialGradient id="woman-rowing-boat-dark_svg__C" cx="0" cy="0" r="1" gradientTransform="matrix(-3.55739 3.43749 -2.0246 -2.09522 14.64 21.148)" gradientUnits="userSpaceOnUse"><stop stop-color="#FBC998"/><stop offset="1" stop-color="#E9B37E"/></radialGradient><radialGradient id="woman-rowing-boat-dark_svg__F" cx="0" cy="0" r="1" gradientTransform="matrix(-3.09375 0 0 -12.375 30.176 29.117)" gradientUnits="userSpaceOnUse"><stop stop-color="#65DEFF"/><stop offset="1" stop-color="#5DC9FF" stop-opacity="0"/></radialGradient><radialGradient id="woman-rowing-boat-dark_svg__I" cx="0" cy="0" r="1" gradientTransform="rotate(-25.974 40.934 -37.93)scale(.67784 .37113)" gradientUnits="userSpaceOnUse"><stop stop-color="#665453"/><stop offset="1" stop-color="#665453" stop-opacity="0"/></radialGradient><radialGradient id="woman-rowing-boat-dark_svg__M" cx="0" cy="0" r="1" gradientTransform="matrix(2.15625 2.4375 -1.4473 1.28031 15.176 10.336)" gradientUnits="userSpaceOnUse"><stop offset=".049" stop-color="#9178D3"/><stop offset="1" stop-color="#7151BE"/></radialGradient><radialGradient id="woman-rowing-boat-dark_svg__N" cx="0" cy="0" r="1" gradientTransform="matrix(-.36061 .26664 -.28066 -.37957 17.457 7.456)" gradientUnits="userSpaceOnUse"><stop stop-color="#3D3D3D"/><stop offset="1" stop-color="#191919"/></radialGradient><radialGradient id="woman-rowing-boat-dark_svg__O" cx="0" cy="0" r="1" gradientTransform="rotate(-75.213 13.929 -7.415)scale(.49693 .55747)" gradientUnits="userSpaceOnUse"><stop offset=".626" stop-color="#6B4841"/><stop offset="1" stop-color="#A38C84"/></radialGradient><radialGradient id="woman-rowing-boat-dark_svg__P" cx="0" cy="0" r="1" gradientTransform="rotate(74.242 3.672 15.394)scale(.27194 .26317)" gradientUnits="userSpaceOnUse"><stop stop-color="#3D3D3D"/><stop offset="1" stop-color="#191919"/></radialGradient><radialGradient id="woman-rowing-boat-dark_svg__R" cx="0" cy="0" r="1" gradientTransform="rotate(163.724 8.87 4.407)scale(5.51064 6.88411)" gradientUnits="userSpaceOnUse"><stop offset=".332" stop-color="#2F2529"/><stop offset="1" stop-color="#211B1E"/></radialGradient><radialGradient id="woman-rowing-boat-dark_svg__S" cx="0" cy="0" r="1" gradientTransform="matrix(-1.35938 .17969 -.15962 -1.20756 18.854 5.503)" gradientUnits="userSpaceOnUse"><stop stop-color="#4B4748"/><stop offset="1" stop-color="#4B4748" stop-opacity="0"/></radialGradient><filter id="woman-rowing-boat-dark_svg__c" width="4.364" height="4.439" x="14.22" y="5.641" color-interpolation-filters="sRGB" filterUnits="userSpaceOnUse"><feFlood flood-opacity="0" result="BackgroundImageFix"/><feBlend in="SourceGraphic" in2="BackgroundImageFix" result="shape"/><feColorMatrix in="SourceAlpha" result="hardAlpha" values="0 0 0 0 0 0 0 0 0 0 0 0 0 0 0 0 0 0 127 0"/><feOffset dx=".2" dy="-.15"/><feGaussianBlur stdDeviation=".25"/><feComposite in2="hardAlpha" k2="-1" k3="1" operator="arithmetic"/><feColorMatrix values="0 0 0 0 0.262745 0 0 0 0 0.196078 0 0 0 0 0.235294 0 0 0 1 0"/><feBlend in2="shape" result="effect1_innerShadow_3987_23065"/></filter><filter id="woman-rowing-boat-dark_svg__g" width=".763" height=".367" x="17.245" y="6.777" color-interpolation-filters="sRGB" filterUnits="userSpaceOnUse"><feFlood flood-opacity="0" result="BackgroundImageFix"/><feBlend in="SourceGraphic" in2="BackgroundImageFix" result="shape"/><feColorMatrix in="SourceAlpha" result="hardAlpha" values="0 0 0 0 0 0 0 0 0 0 0 0 0 0 0 0 0 0 127 0"/><feOffset dy="-.1"/><feGaussianBlur stdDeviation=".05"/><feComposite in2="hardAlpha" k2="-1" k3="1" operator="arithmetic"/><feColorMatrix values="0 0 0 0 0.0470588 0 0 0 0 0.0196078 0 0 0 0 0.0745098 0 0 0 1 0"/><feBlend in2="shape" result="effect1_innerShadow_3987_23065"/></filter><filter id="woman-rowing-boat-dark_svg__h" width="6.377" height="6.141" x="9.574" y="9.14" color-interpolation-filters="sRGB" filterUnits="userSpaceOnUse"><feFlood flood-opacity="0" result="BackgroundImageFix"/><feBlend in="SourceGraphic" in2="BackgroundImageFix" result="shape"/><feColorMatrix in="SourceAlpha" result="hardAlpha" values="0 0 0 0 0 0 0 0 0 0 0 0 0 0 0 0 0 0 127 0"/><feOffset dx=".65"/><feGaussianBlur stdDeviation=".6"/><feComposite in2="hardAlpha" k2="-1" k3="1" operator="arithmetic"/><feColorMatrix values="0 0 0 0 0.407843 0 0 0 0 0.321569 0 0 0 0 0.666667 0 0 0 1 0"/><feBlend in2="shape" result="effect1_innerShadow_3987_23065"/></filter><filter id="woman-rowing-boat-dark_svg__o" width="27.983" height="6.037" x="2.059" y="20.711" color-interpolation-filters="sRGB" filterUnits="userSpaceOnUse"><feFlood flood-opacity="0" result="BackgroundImageFix"/><feBlend in="SourceGraphic" in2="BackgroundImageFix" result="shape"/><feColorMatrix in="SourceAlpha" result="hardAlpha" values="0 0 0 0 0 0 0 0 0 0 0 0 0 0 0 0 0 0 127 0"/><feOffset dx=".1" dy=".1"/><feGaussianBlur stdDeviation=".075"/><feComposite in2="hardAlpha" k2="-1" k3="1" operator="arithmetic"/><feColorMatrix values="0 0 0 0 0.180392 0 0 0 0 0.541176 0 0 0 0 0.729412 0 0 0 1 0"/><feBlend in2="shape" result="effect1_innerShadow_3987_23065"/></filter><filter id="woman-rowing-boat-dark_svg__s" width="24.059" height="2.191" x="3.886" y="15.712" color-interpolation-filters="sRGB" filterUnits="userSpaceOnUse"><feFlood flood-opacity="0" result="BackgroundImageFix"/><feBlend in="SourceGraphic" in2="BackgroundImageFix" result="shape"/><feColorMatrix in="SourceAlpha" result="hardAlpha" values="0 0 0 0 0 0 0 0 0 0 0 0 0 0 0 0 0 0 127 0"/><feOffset dx="-.2"/><feGaussianBlur stdDeviation=".375"/><feComposite in2="hardAlpha" k2="-1" k3="1" operator="arithmetic"/><feColorMatrix values="0 0 0 0 0.278431 0 0 0 0 0.529412 0 0 0 0 0.184314 0 0 0 1 0"/><feBlend in2="shape" result="effect1_innerShadow_3987_23065"/></filter><filter id="woman-rowing-boat-dark_svg__B" width="6.802" height="6.803" x="8.337" y="19.45" color-interpolation-filters="sRGB" filterUnits="userSpaceOnUse"><feFlood flood-opacity="0" result="BackgroundImageFix"/><feBlend in="SourceGraphic" in2="BackgroundImageFix" result="shape"/><feColorMatrix in="SourceAlpha" result="hardAlpha" values="0 0 0 0 0 0 0 0 0 0 0 0 0 0 0 0 0 0 127 0"/><feOffset dx=".5" dy="-.5"/><feGaussianBlur stdDeviation=".625"/><feComposite in2="hardAlpha" k2="-1" k3="1" operator="arithmetic"/><feColorMatrix values="0 0 0 0 0.776471 0 0 0 0 0.556863 0 0 0 0 0.341176 0 0 0 1 0"/><feBlend in2="shape" result="effect1_innerShadow_3987_23065"/></filter><filter id="woman-rowing-boat-dark_svg__D" width="27.983" height="6.037" x="1.959" y="24.211" color-interpolation-filters="sRGB" filterUnits="userSpaceOnUse"><feFlood flood-opacity="0" result="BackgroundImageFix"/><feBlend in="SourceGraphic" in2="BackgroundImageFix" result="shape"/><feColorMatrix in="SourceAlpha" result="hardAlpha" values="0 0 0 0 0 0 0 0 0 0 0 0 0 0 0 0 0 0 127 0"/><feOffset dx="-.1" dy=".1"/><feGaussianBlur stdDeviation=".2"/><feComposite in2="hardAlpha" k2="-1" k3="1" operator="arithmetic"/><feColorMatrix values="0 0 0 0 0.384314 0 0 0 0 0.843137 0 0 0 0 1 0 0 0 1 0"/><feBlend in2="shape" result="effect1_innerShadow_3987_23065"/></filter><filter id="woman-rowing-boat-dark_svg__H" width="6.678" height="4.108" x="14.785" y="11.035" color-interpolation-filters="sRGB" filterUnits="userSpaceOnUse"><feFlood flood-opacity="0" result="BackgroundImageFix"/><feBlend in="SourceGraphic" in2="BackgroundImageFix" result="shape"/><feColorMatrix in="SourceAlpha" result="hardAlpha" values="0 0 0 0 0 0 0 0 0 0 0 0 0 0 0 0 0 0 127 0"/><feOffset dx=".2" dy="-.5"/><feGaussianBlur stdDeviation=".4"/><feComposite in2="hardAlpha" k2="-1" k3="1" operator="arithmetic"/><feColorMatrix values="0 0 0 0 0.258824 0 0 0 0 0.168627 0 0 0 0 0.223529 0 0 0 1 0"/><feBlend in2="shape" result="effect1_innerShadow_3987_23065"/></filter><filter id="woman-rowing-boat-dark_svg__J" width="5.181" height="3.008" x="14.876" y="11.381" color-interpolation-filters="sRGB" filterUnits="userSpaceOnUse"><feFlood flood-opacity="0" result="BackgroundImageFix"/><feBlend in="SourceGraphic" in2="BackgroundImageFix" result="shape"/><feGaussianBlur result="effect1_foregroundBlur_3987_23065" stdDeviation=".2"/></filter><filter id="woman-rowing-boat-dark_svg__L" width="3.882" height="3.705" x="12.803" y="9.436" color-interpolation-filters="sRGB" filterUnits="userSpaceOnUse"><feFlood flood-opacity="0" result="BackgroundImageFix"/><feBlend in="SourceGraphic" in2="BackgroundImageFix" result="shape"/><feColorMatrix in="SourceAlpha" result="hardAlpha" values="0 0 0 0 0 0 0 0 0 0 0 0 0 0 0 0 0 0 127 0"/><feOffset dx=".4" dy="-.15"/><feGaussianBlur stdDeviation=".4"/><feComposite in2="hardAlpha" k2="-1" k3="1" operator="arithmetic"/><feColorMatrix values="0 0 0 0 0.337255 0 0 0 0 0.243137 0 0 0 0 0.611765 0 0 0 1 0"/><feBlend in2="shape" result="effect1_innerShadow_3987_23065"/></filter><filter id="woman-rowing-boat-dark_svg__Q" width="6.317" height="5.313" x="12.906" y="4.028" color-interpolation-filters="sRGB" filterUnits="userSpaceOnUse"><feFlood flood-opacity="0" result="BackgroundImageFix"/><feBlend in="SourceGraphic" in2="BackgroundImageFix" result="shape"/><feColorMatrix in="SourceAlpha" result="hardAlpha" values="0 0 0 0 0 0 0 0 0 0 0 0 0 0 0 0 0 0 127 0"/><feOffset dx=".1" dy="-.15"/><feGaussianBlur stdDeviation=".3"/><feComposite in2="hardAlpha" k2="-1" k3="1" operator="arithmetic"/><feColorMatrix values="0 0 0 0 0.164706 0 0 0 0 0.0588235 0 0 0 0 0.0784314 0 0 0 1 0"/><feBlend in2="shape" result="effect1_innerShadow_3987_23065"/></filter><linearGradient id="woman-rowing-boat-dark_svg__k" x1="25.051" x2="7.801" y1="19.055" y2="24.43" gradientUnits="userSpaceOnUse"><stop offset=".353" stop-color="#86BF45"/><stop offset="1" stop-color="#679951"/></linearGradient><linearGradient id="woman-rowing-boat-dark_svg__l" x1="27.145" x2="26.441" y1="20.617" y2="20.617" gradientUnits="userSpaceOnUse"><stop stop-color="#99D852"/><stop offset="1" stop-color="#99D852" stop-opacity="0"/></linearGradient><linearGradient id="woman-rowing-boat-dark_svg__t" x1="16.015" x2="16.395" y1="15.461" y2="18.992" gradientUnits="userSpaceOnUse"><stop stop-color="#79B34C"/><stop offset="1" stop-color="#4D8C4E"/></linearGradient><linearGradient id="woman-rowing-boat-dark_svg__z" x1="17.168" x2="17.582" y1="16.496" y2="16.891" gradientUnits="userSpaceOnUse"><stop stop-color="#CD9157"/><stop offset="1" stop-color="#EEB683" stop-opacity="0"/></linearGradient><linearGradient id="woman-rowing-boat-dark_svg__A" x1="19.52" x2="19.184" y1="16.18" y2="15.828" gradientUnits="userSpaceOnUse"><stop stop-color="#D59C7A"/><stop offset="1" stop-color="#D59C7A" stop-opacity="0"/></linearGradient><linearGradient id="woman-rowing-boat-dark_svg__E" x1="18.457" x2="12.738" y1="23.586" y2="33.68" gradientUnits="userSpaceOnUse"><stop stop-color="#5FCDFF"/><stop offset="1" stop-color="#4AADFF"/></linearGradient><linearGradient id="woman-rowing-boat-dark_svg__G" x1="18.02" x2="18.02" y1="30.149" y2="29.867" gradientUnits="userSpaceOnUse"><stop stop-color="#59A0FF"/><stop offset="1" stop-color="#55BEFF" stop-opacity="0"/></linearGradient><linearGradient id="woman-rowing-boat-dark_svg__K" x1="15.804" x2="20.086" y1="12.441" y2="14.159" gradientUnits="userSpaceOnUse"><stop stop-color="#5D4947"/><stop offset="1" stop-color="#5D4947" stop-opacity="0"/></linearGradient></defs></svg>