<svg width="32" height="32" fill="none" xmlns="http://www.w3.org/2000/svg"><path d="M21.974 5.85h-12l.18-.36a6.549 6.549 0 0 1 11.65.03l.17.33Z" fill="url(#a)"/><path d="m10.153 5.49-.18.36h12l-.17-.33c-.3-.59-.68-1.11-1.12-1.57h-9.42c-.43.45-.81.97-1.11 1.54Z" fill="url(#b)"/><path d="m10.153 5.49-.18.36h12l-.17-.33c-.3-.59-.68-1.11-1.12-1.57h-9.42c-.43.45-.81.97-1.11 1.54Z" fill="url(#c)"/><g filter="url(#d)"><path d="M11.617 4.75c-.849.031-2.678.229-4.102 1.336-1.237.962-1.476 2.117-1.476 3.086v.476c-.094 1.782 1.445 4.93 6.883 4.93h6.263c5.438 0 6.977-3.148 6.883-4.93v-.476c0-.969-.239-2.124-1.476-3.086-1.424-1.107-3.253-1.305-4.102-1.336h-8.873Z" fill="url(#e)"/><path d="M11.617 4.75c-.849.031-2.678.229-4.102 1.336-1.237.962-1.476 2.117-1.476 3.086v.476c-.094 1.782 1.445 4.93 6.883 4.93h6.263c5.438 0 6.977-3.148 6.883-4.93v-.476c0-.969-.239-2.124-1.476-3.086-1.424-1.107-3.253-1.305-4.102-1.336h-8.873Z" fill="url(#f)"/></g><g filter="url(#g)"><path d="M16.89 7.954c-1.716 0-2.526-.732-2.802-1.098.836.027 2.457 0 4.584 0 2.659 0 4.35 1.047 4.703 2.97.257 1.647-.242 2.69-.12 3.173.12.483.563 1.762-.283 3.011-.677 1-2.108 1.551-2.739 1.702h-2.185V15.86c2.366-.725 2.319-3.001 2.37-3.212.05-.212.421-1.941.297-3.337-.096-1.073-.788-1.326-1.299-1.302-.204 0-1.004-.054-2.526-.054Z" fill="url(#h)"/><path d="M16.89 7.954c-1.716 0-2.526-.732-2.802-1.098.836.027 2.457 0 4.584 0 2.659 0 4.35 1.047 4.703 2.97.257 1.647-.242 2.69-.12 3.173.12.483.563 1.762-.283 3.011-.677 1-2.108 1.551-2.739 1.702h-2.185V15.86c2.366-.725 2.319-3.001 2.37-3.212.05-.212.421-1.941.297-3.337-.096-1.073-.788-1.326-1.299-1.302-.204 0-1.004-.054-2.526-.054Z" fill="url(#i)"/><path d="M16.89 7.954c-1.716 0-2.526-.732-2.802-1.098.836.027 2.457 0 4.584 0 2.659 0 4.35 1.047 4.703 2.97.257 1.647-.242 2.69-.12 3.173.12.483.563 1.762-.283 3.011-.677 1-2.108 1.551-2.739 1.702h-2.185V15.86c2.366-.725 2.319-3.001 2.37-3.212.05-.212.421-1.941.297-3.337-.096-1.073-.788-1.326-1.299-1.302-.204 0-1.004-.054-2.526-.054Z" fill="url(#j)"/><path d="M16.89 7.954c-1.716 0-2.526-.732-2.802-1.098.836.027 2.457 0 4.584 0 2.659 0 4.35 1.047 4.703 2.97.257 1.647-.242 2.69-.12 3.173.12.483.563 1.762-.283 3.011-.677 1-2.108 1.551-2.739 1.702h-2.185V15.86c2.366-.725 2.319-3.001 2.37-3.212.05-.212.421-1.941.297-3.337-.096-1.073-.788-1.326-1.299-1.302-.204 0-1.004-.054-2.526-.054Z" fill="url(#k)"/><path d="M16.89 7.954c-1.716 0-2.526-.732-2.802-1.098.836.027 2.457 0 4.584 0 2.659 0 4.35 1.047 4.703 2.97.257 1.647-.242 2.69-.12 3.173.12.483.563 1.762-.283 3.011-.677 1-2.108 1.551-2.739 1.702h-2.185V15.86c2.366-.725 2.319-3.001 2.37-3.212.05-.212.421-1.941.297-3.337-.096-1.073-.788-1.326-1.299-1.302-.204 0-1.004-.054-2.526-.054Z" fill="url(#l)"/><path d="M16.89 7.954c-1.716 0-2.526-.732-2.802-1.098.836.027 2.457 0 4.584 0 2.659 0 4.35 1.047 4.703 2.97.257 1.647-.242 2.69-.12 3.173.12.483.563 1.762-.283 3.011-.677 1-2.108 1.551-2.739 1.702h-2.185V15.86c2.366-.725 2.319-3.001 2.37-3.212.05-.212.421-1.941.297-3.337-.096-1.073-.788-1.326-1.299-1.302-.204 0-1.004-.054-2.526-.054Z" fill="url(#m)"/><path d="M16.89 7.954c-1.716 0-2.526-.732-2.802-1.098.836.027 2.457 0 4.584 0 2.659 0 4.35 1.047 4.703 2.97.257 1.647-.242 2.69-.12 3.173.12.483.563 1.762-.283 3.011-.677 1-2.108 1.551-2.739 1.702h-2.185V15.86c2.366-.725 2.319-3.001 2.37-3.212.05-.212.421-1.941.297-3.337-.096-1.073-.788-1.326-1.299-1.302-.204 0-1.004-.054-2.526-.054Z" fill="url(#n)"/></g><g filter="url(#o)"><path d="M10.555 7.49c.977-.498 2.222-.543 2.649-.553l-.514 4.652 1.833 4.33-2.608 1.753c-3.585-.735-3.348-3.564-3.137-4.356.221-.83.028-1.02-.086-1.787-.272-1.833.329-3.256 1.863-4.039Z" fill="url(#p)"/><path d="M10.555 7.49c.977-.498 2.222-.543 2.649-.553l-.514 4.652 1.833 4.33-2.608 1.753c-3.585-.735-3.348-3.564-3.137-4.356.221-.83.028-1.02-.086-1.787-.272-1.833.329-3.256 1.863-4.039Z" fill="url(#q)"/><path d="M10.555 7.49c.977-.498 2.222-.543 2.649-.553l-.514 4.652 1.833 4.33-2.608 1.753c-3.585-.735-3.348-3.564-3.137-4.356.221-.83.028-1.02-.086-1.787-.272-1.833.329-3.256 1.863-4.039Z" fill="url(#r)"/></g><path d="M15.983 15.44c-6.07 0-10.99 4.91-10.99 10.98v3.5h21.98v-3.5c0-6.07-4.92-10.98-10.99-10.98Z" fill="#45BB85"/><path d="M15.983 15.44c-6.07 0-10.99 4.91-10.99 10.98v3.5h21.98v-3.5c0-6.07-4.92-10.98-10.99-10.98Z" fill="url(#s)"/><path d="M8.994 29.92V17.95h-.007a10.951 10.951 0 0 0-3.993 8.47v3.5h4Z" fill="url(#t)"/><path d="M8.994 29.92V17.95h-.007a10.951 10.951 0 0 0-3.993 8.47v3.5h4Z" fill="url(#u)"/><path d="M23.014 29.92V17.95h.006a10.951 10.951 0 0 1 3.994 8.47v3.5h-4Z" fill="url(#v)"/><path d="M23.014 29.92V17.95h.006a10.951 10.951 0 0 1 3.994 8.47v3.5h-4Z" fill="url(#w)"/><g filter="url(#x)"><path d="m13.018 21.414 3.035-2.123 2.988 2.084c.42.324 1.012.465 1.012-.354v-4.81c-1.24-.48-2.59-.77-4-.77-1.41 0-2.76.24-4 .72v4.69c0 .954.595.823.964.563Z" fill="url(#y)"/><path d="m13.018 21.414 3.035-2.123 2.988 2.084c.42.324 1.012.465 1.012-.354v-4.81c-1.24-.48-2.59-.77-4-.77-1.41 0-2.76.24-4 .72v4.69c0 .954.595.823.964.563Z" fill="url(#z)"/><path d="m13.018 21.414 3.035-2.123 2.988 2.084c.42.324 1.012.465 1.012-.354v-4.81c-1.24-.48-2.59-.77-4-.77-1.41 0-2.76.24-4 .72v4.69c0 .954.595.823.964.563Z" fill="url(#A)"/></g><path d="m13.018 21.414 3.035-2.123 2.988 2.084c.42.324 1.012.465 1.012-.354v-4.81c-1.24-.48-2.59-.77-4-.77-1.41 0-2.76.24-4 .72v4.69c0 .954.595.823.964.563Z" fill="url(#B)"/><path d="m13.018 21.414 3.035-2.123 2.988 2.084c.42.324 1.012.465 1.012-.354v-4.81c-1.24-.48-2.59-.77-4-.77-1.41 0-2.76.24-4 .72v4.69c0 .954.595.823.964.563Z" fill="url(#C)"/><path d="m16.904 19.63-.65.58c-.16.14-.39.14-.55 0l-.65-.58a3.449 3.449 0 0 1-1.14-2.55v-3.09c0-1.14.92-2.06 2.06-2.06 1.14 0 2.06.92 2.06 2.06v3.09c0 .97-.41 1.9-1.13 2.55Z" fill="url(#D)"/><path d="M15.984 18.61c-1.14 0-2.06-.92-2.06-2.06v-2.56c0-1.14.92-2.06 2.06-2.06 1.14 0 2.06.92 2.06 2.06v2.56a2.07 2.07 0 0 1-2.06 2.06Z" fill="url(#E)"/><path d="M15.984 18.61c-1.14 0-2.06-.92-2.06-2.06v-2.56c0-1.14.92-2.06 2.06-2.06 1.14 0 2.06.92 2.06 2.06v2.56a2.07 2.07 0 0 1-2.06 2.06Z" fill="url(#F)"/><path d="M23.014 17.98c-.63-.53-1.33-.99-2.07-1.36v5.9c0 .23-.18.41-.41.41h-9.07c-.23 0-.41-.18-.41-.41V16.6c-.74.37-1.43.82-2.06 1.35v11.97h14.02V17.98Z" fill="url(#G)"/><path d="M23.014 17.98c-.63-.53-1.33-.99-2.07-1.36v5.9c0 .23-.18.41-.41.41h-9.07c-.23 0-.41-.18-.41-.41V16.6c-.74.37-1.43.82-2.06 1.35v11.97h14.02V17.98Z" fill="url(#H)"/><path d="M23.014 17.98c-.63-.53-1.33-.99-2.07-1.36v5.9c0 .23-.18.41-.41.41h-9.07c-.23 0-.41-.18-.41-.41V16.6c-.74.37-1.43.82-2.06 1.35v11.97h14.02V17.98Z" fill="url(#I)"/><path d="M23.014 17.98c-.63-.53-1.33-.99-2.07-1.36v5.9c0 .23-.18.41-.41.41h-9.07c-.23 0-.41-.18-.41-.41V16.6c-.74.37-1.43.82-2.06 1.35v11.97h14.02V17.98Z" fill="url(#J)"/><path d="M23.014 17.98c-.63-.53-1.33-.99-2.07-1.36v5.9c0 .23-.18.41-.41.41h-9.07c-.23 0-.41-.18-.41-.41V16.6c-.74.37-1.43.82-2.06 1.35v11.97h14.02V17.98Z" fill="url(#K)"/><g filter="url(#L)"><path d="M19.474 25.75h-6.94c-.28 0-.5.217-.5.492v3.62h7.95v-3.62a.513.513 0 0 0-.51-.492Z" fill="#3661C6"/></g><g filter="url(#M)"><path d="M19.474 25.75h-6.94c-.28 0-.5.22-.5.5v3.68h7.95v-3.68a.517.517 0 0 0-.51-.5Z" fill="url(#N)"/></g><path d="M26.826 23.06c.55 0 1 .45 1 1v2.29h-2v-2.29c0-.55.44-1 1-1Z" fill="url(#O)"/><path d="M26.826 23.06c.55 0 1 .45 1 1v2.29h-2v-2.29c0-.55.44-1 1-1Z" fill="url(#P)"/><path d="M26.826 23.06c.55 0 1 .45 1 1v2.29h-2v-2.29c0-.55.44-1 1-1Z" fill="url(#Q)"/><path d="M26.167 21.71h-1v3h1v-3Z" fill="url(#R)"/><path d="M26.167 21.71h-1v3h1v-3Z" fill="url(#S)"/><path d="M24.93 19.93h1.524v1.734a.25.25 0 0 1-.25.25H25.18a.25.25 0 0 1-.25-.25V19.93Z" fill="url(#T)"/><path d="M24.93 19.93h1.524v1.734a.25.25 0 0 1-.25.25H25.18a.25.25 0 0 1-.25-.25V19.93Z" fill="url(#U)"/><path d="M24.93 19.93h1.524v1.734a.25.25 0 0 1-.25.25H25.18a.25.25 0 0 1-.25-.25V19.93Z" fill="url(#V)"/><g filter="url(#W)"><path d="M23.508 25.246c0-.401.325-.732.727-.732h2.39a1.2 1.2 0 0 1 1.2 1.2v3.207a1 1 0 0 1-1 1h-2.59a.731.731 0 0 1-.32-1.39.735.735 0 0 1 0-1.313.735.735 0 0 1 0-1.315.735.735 0 0 1-.407-.657Z" fill="url(#X)"/><path d="M23.508 25.246c0-.401.325-.732.727-.732h2.39a1.2 1.2 0 0 1 1.2 1.2v3.207a1 1 0 0 1-1 1h-2.59a.731.731 0 0 1-.32-1.39.735.735 0 0 1 0-1.313.735.735 0 0 1 0-1.315.735.735 0 0 1-.407-.657Z" fill="url(#Y)"/></g><g filter="url(#Z)"><path d="M24.028 25.898h1.797" stroke="url(#aa)" stroke-width=".05" stroke-linecap="round"/></g><g filter="url(#ab)"><path d="M23.95 27.203h1.797" stroke="url(#ac)" stroke-width=".05" stroke-linecap="round"/></g><g filter="url(#ad)"><path d="M24.028 28.508h1.797" stroke="url(#ae)" stroke-width=".05" stroke-linecap="round"/></g><g filter="url(#af)"><path d="M11.31 12.456a1.61 1.61 0 1 0 0-3.219 1.61 1.61 0 0 0 0 3.219Z" fill="url(#ag)"/></g><g filter="url(#ah)"><path d="M20.84 12.456a1.61 1.61 0 1 0 0-3.219 1.61 1.61 0 0 0 0 3.219Z" fill="url(#ai)"/></g><g filter="url(#aj)"><path d="M20.84 11.92a1.074 1.074 0 1 0 0-2.148 1.074 1.074 0 0 0 0 2.149Z" fill="#FFCA38"/><path d="M20.84 11.92a1.074 1.074 0 1 0 0-2.148 1.074 1.074 0 0 0 0 2.149Z" fill="url(#ak)"/></g><g filter="url(#al)"><path d="M11.33 11.92a1.074 1.074 0 1 0 0-2.148 1.074 1.074 0 0 0 0 2.149Z" fill="#E28527"/><path d="M11.33 11.92a1.074 1.074 0 1 0 0-2.148 1.074 1.074 0 0 0 0 2.149Z" fill="url(#am)"/></g><g filter="url(#an)"><path d="M19.397 7.939H16.78c-1.38 0-2.045-.56-2.629-1.083 0 0-.927.041-1.258.1-.215.235-.444.532-.977.887-.231.115-.756.526-.766 1.46l.064 2.593c.106 2.802 2.262 4.67 4.88 4.67 2.619 0 4.765-1.868 4.88-4.67V9.394c0-1.34-1.393-1.455-1.576-1.455Z" fill="url(#ao)"/></g><path d="M19.397 7.939H16.78c-1.38 0-2.045-.56-2.629-1.083 0 0-.86.041-1.258.1-.215.235-.444.532-.977.887-.231.115-.756.526-.766 1.46l.064 2.593c.106 2.802 2.262 4.67 4.88 4.67 2.619 0 4.765-1.868 4.88-4.67V9.394c0-1.34-1.393-1.455-1.576-1.455Z" fill="url(#ap)"/><path d="M19.397 7.939H16.78c-1.38 0-2.045-.56-2.629-1.083 0 0-.86.041-1.258.1-.215.235-.444.532-.977.887-.231.115-.756.526-.766 1.46l.064 2.593c.106 2.802 2.262 4.67 4.88 4.67 2.619 0 4.765-1.868 4.88-4.67V9.394c0-1.34-1.393-1.455-1.576-1.455Z" fill="url(#aq)"/><path d="M19.397 7.939H16.78c-1.38 0-2.045-.56-2.629-1.083 0 0-.86.041-1.258.1-.215.235-.444.532-.977.887-.231.115-.756.526-.766 1.46l.064 2.593c.106 2.802 2.262 4.67 4.88 4.67 2.619 0 4.765-1.868 4.88-4.67V9.394c0-1.34-1.393-1.455-1.576-1.455Z" fill="url(#ar)"/><g filter="url(#as)"><path d="M16.069 13.5a3.1 3.1 0 0 1-1.415-.336c-.135-.077-.29.086-.203.221.347.53.934.876 1.618.876.683 0 1.27-.346 1.617-.876.087-.135-.067-.289-.202-.221a3.13 3.13 0 0 1-1.415.337Z" stroke="url(#at)" stroke-width=".2"/></g><path d="M16.069 13.5a3.1 3.1 0 0 1-1.415-.336c-.135-.077-.29.086-.203.221.347.53.934.876 1.618.876.683 0 1.27-.346 1.617-.876.087-.135-.067-.289-.202-.221a3.13 3.13 0 0 1-1.415.337Z" fill="url(#au)"/><g filter="url(#av)"><path d="M15.5 10.573 15 12.2a.518.518 0 0 0 .5.674h.751a.526.526 0 0 0 .5-.674l-.5-1.627c-.134-.356-.645-.356-.75 0Z" fill="#EB8B29"/></g><g filter="url(#aw)"><path d="m15.728 10.347-.5 1.626a.518.518 0 0 0 .5.674h.75a.526.526 0 0 0 .501-.674l-.5-1.627c-.135-.356-.645-.356-.751 0Z" fill="url(#ax)"/><path d="m15.728 10.347-.5 1.626a.518.518 0 0 0 .5.674h.75a.526.526 0 0 0 .501-.674l-.5-1.627c-.135-.356-.645-.356-.751 0Z" fill="url(#ay)"/><path d="m15.728 10.347-.5 1.626a.518.518 0 0 0 .5.674h.75a.526.526 0 0 0 .501-.674l-.5-1.627c-.135-.356-.645-.356-.751 0Z" fill="url(#az)"/><path d="m15.728 10.347-.5 1.626a.518.518 0 0 0 .5.674h.75a.526.526 0 0 0 .501-.674l-.5-1.627c-.135-.356-.645-.356-.751 0Z" fill="url(#aA)"/></g><g filter="url(#aB)"><path d="M12.57 8.816a.26.26 0 0 1-.23-.135.268.268 0 0 1 .095-.366c.039-.019.896-.51 1.897-.327.144.029.24.164.212.308-.03.154-.164.25-.308.221-.809-.144-1.531.26-1.531.26a.24.24 0 0 1-.135.039Z" fill="#BD4F26"/></g><g filter="url(#aC)"><path d="M19.607 8.816a.24.24 0 0 1-.135-.038c-.01 0-.731-.414-1.53-.26a.258.258 0 0 1-.308-.212.258.258 0 0 1 .211-.308c.992-.183 1.858.308 1.887.327.125.077.174.24.096.366a.243.243 0 0 1-.221.125Z" fill="#BD4F26"/></g><g filter="url(#aD)"><path d="M17.159 10.073c.265-.467.669-.836 1.537-.836.38 0 .747.106 1.073.369.269.217.233.495.025.6l-.556.317c-.652-.211-1.373-.24-2.08-.45Z" fill="#635D5F"/></g><g filter="url(#aE)"><path d="M14.976 10.073c-.266-.467-.67-.836-1.538-.836-.38 0-.747.106-1.073.369-.268.217-.232.495-.024.6l.556.317c.652-.211 1.372-.24 2.079-.45Z" fill="#635D5F"/></g><path d="M18.408 9.296c.653 0 1.204.45 1.355 1.059a.274.274 0 0 1-.268.34h-2.231a.23.23 0 0 1-.227-.271 1.398 1.398 0 0 1 1.37-1.128Z" fill="#fff"/><path d="M18.2 9.568a.893.893 0 0 1 .86 1.128h-1.723a.896.896 0 0 1 .864-1.128Z" fill="url(#aF)"/><path d="M17.69 10.46c0-.284.227-.51.51-.51a.509.509 0 0 1 .455.746h-.905a.463.463 0 0 1-.06-.236Z" fill="#000"/><g filter="url(#aG)"><path d="M18.134 9.757c.064.085-.069.188-.22.301-.15.113-.263.193-.326.108-.064-.085.007-.246.158-.359.151-.113.325-.135.389-.05Z" fill="#C7A7A3"/><path d="M18.134 9.757c.064.085-.069.188-.22.301-.15.113-.263.193-.326.108-.064-.085.007-.246.158-.359.151-.113.325-.135.389-.05Z" fill="url(#aH)"/></g><g filter="url(#aI)"><path d="M18.995 10.342a.84.84 0 0 0-.23-.462l-.26.285.117.228.373-.05Z" fill="url(#aJ)"/></g><path d="M13.726 9.296c-.653 0-1.205.45-1.355 1.059-.044.174.09.34.268.34h2.231a.23.23 0 0 0 .228-.271 1.401 1.401 0 0 0-1.372-1.128Z" fill="#fff"/><path d="M13.933 9.568a.892.892 0 0 0-.86 1.128h1.724a.914.914 0 0 0 .033-.236.899.899 0 0 0-.897-.892Z" fill="url(#aK)"/><path d="M14.444 10.46a.509.509 0 0 0-.51-.51.51.51 0 0 0-.455.746h.905a.507.507 0 0 0 .06-.236Z" fill="#000"/><g filter="url(#aL)"><path d="M14.748 10.355c0-.288-.234-.48-.297-.538l-.289.278.178.361.408-.101Z" fill="url(#aM)"/></g><g filter="url(#aN)" transform="rotate(-27.914 13.664 9.95)"><ellipse cx="13.664" cy="9.949" rx=".389" ry=".197" fill="#C7A7A3" fill-opacity=".9"/><ellipse cx="13.664" cy="9.949" rx=".389" ry=".197" fill="url(#aO)"/></g><g filter="url(#aP)"><path d="M17.914 8.2c.237-.1 1.324 0 1.732.312" stroke="#C9725D" stroke-width=".2" stroke-linecap="round"/></g><g filter="url(#aQ)"><path d="M14.1 8.2c-.237-.1-1.324 0-1.732.312" stroke="#C9725D" stroke-width=".2" stroke-linecap="round"/></g><g filter="url(#aR)"><path d="M22.808 10.984a.602.602 0 0 0-.601.602v6.851a1.5 1.5 0 0 0 1.5 1.5h4.125a1.5 1.5 0 0 0 1.5-1.5v-6.851a.602.602 0 0 0-1.203 0v4.45a.879.879 0 0 1-1.758 0v-4.45a.602.602 0 0 0-1.203 0v4.45a.879.879 0 1 1-1.758 0v-4.45a.601.601 0 0 0-.602-.602Z" fill="#C7B3DB"/></g><defs><radialGradient id="a" cx="0" cy="0" r="1" gradientUnits="userSpaceOnUse" gradientTransform="matrix(-4.28126 -2.7131 2.52682 -3.98732 19.872 3.9)"><stop stop-color="#7F5F58"/><stop offset="1" stop-color="#644841"/></radialGradient><radialGradient id="b" cx="0" cy="0" r="1" gradientUnits="userSpaceOnUse" gradientTransform="matrix(0 -2.15625 8.40625 0 19.747 5.063)"><stop stop-color="#6E5980"/><stop offset="1" stop-color="#4F3B60"/></radialGradient><radialGradient id="f" cx="0" cy="0" r="1" gradientUnits="userSpaceOnUse" gradientTransform="rotate(-115.388 9.619 3.87) scale(4.08169 6.42739)"><stop stop-color="#6E4F4B"/><stop offset="1" stop-color="#6E4F4B" stop-opacity="0"/></radialGradient><radialGradient id="h" cx="0" cy="0" r="1" gradientUnits="userSpaceOnUse" gradientTransform="matrix(1.65625 -6.4375 7.87502 2.0261 19.55 16.313)"><stop stop-color="#CA9E18"/><stop offset=".977" stop-color="#F99E1E"/></radialGradient><radialGradient id="i" cx="0" cy="0" r="1" gradientUnits="userSpaceOnUse" gradientTransform="rotate(162.817 11.19 7.444) scale(3.49996 5.18036)"><stop stop-color="#FFD636"/><stop offset="1" stop-color="#FFD636" stop-opacity="0"/></radialGradient><radialGradient id="j" cx="0" cy="0" r="1" gradientUnits="userSpaceOnUse" gradientTransform="matrix(.0625 1.40625 -3.88891 .17284 18.05 6.5)"><stop offset=".405" stop-color="#FFC832"/><stop offset="1" stop-color="#FFC832" stop-opacity="0"/></radialGradient><radialGradient id="k" cx="0" cy="0" r="1" gradientUnits="userSpaceOnUse" gradientTransform="matrix(4.4973 2.41674 -1.48516 2.76372 20.008 6.856)"><stop offset=".215" stop-color="#FFCA28"/><stop offset="1" stop-color="#FFCA28" stop-opacity="0"/></radialGradient><radialGradient id="l" cx="0" cy="0" r="1" gradientUnits="userSpaceOnUse" gradientTransform="matrix(-2.32298 -1.3938 1.17894 -1.96489 20.027 9.663)"><stop offset=".606" stop-color="#E78B0C"/><stop offset="1" stop-color="#E78B0C" stop-opacity="0"/></radialGradient><radialGradient id="m" cx="0" cy="0" r="1" gradientUnits="userSpaceOnUse" gradientTransform="matrix(1.7283 -1.82122 .56344 .5347 20.677 10.5)"><stop stop-color="#D08D1F"/><stop offset="1" stop-color="#D08D1F" stop-opacity="0"/></radialGradient><radialGradient id="n" cx="0" cy="0" r="1" gradientUnits="userSpaceOnUse" gradientTransform="matrix(1.98438 -1.20313 1.63663 2.69938 18.018 15.828)"><stop offset=".199" stop-color="#9B860A"/><stop offset="1" stop-color="#9B860A" stop-opacity="0"/></radialGradient><radialGradient id="q" cx="0" cy="0" r="1" gradientUnits="userSpaceOnUse" gradientTransform="rotate(-148.431 6.987 3.163) scale(1.52213 2.93248)"><stop offset=".319" stop-color="#CA6202"/><stop offset="1" stop-color="#CA6202" stop-opacity="0"/></radialGradient><radialGradient id="r" cx="0" cy="0" r="1" gradientUnits="userSpaceOnUse" gradientTransform="rotate(-134.433 9.888 5.093) scale(4.46383 5.21203)"><stop stop-color="#7C4E03"/><stop offset="1" stop-color="#D77220" stop-opacity="0"/></radialGradient><radialGradient id="s" cx="0" cy="0" r="1" gradientUnits="userSpaceOnUse" gradientTransform="matrix(0 7.16424 -8.99366 0 15.983 16.225)"><stop offset=".53" stop-color="#399967"/><stop offset="1" stop-color="#399967" stop-opacity="0"/></radialGradient><radialGradient id="u" cx="0" cy="0" r="1" gradientUnits="userSpaceOnUse" gradientTransform="matrix(2.6875 .4375 -2.13811 13.1341 3.84 25.188)"><stop stop-color="#63C890"/><stop offset="1" stop-color="#63C890" stop-opacity="0"/></radialGradient><radialGradient id="w" cx="0" cy="0" r="1" gradientUnits="userSpaceOnUse" gradientTransform="matrix(.79488 -.01787 .1758 7.81887 23.014 24.65)"><stop offset=".249" stop-color="#28A96B"/><stop offset="1" stop-color="#28A96B" stop-opacity="0"/></radialGradient><radialGradient id="y" cx="0" cy="0" r="1" gradientUnits="userSpaceOnUse" gradientTransform="matrix(0 5.49005 -3.73669 0 16.053 16.094)"><stop offset=".232" stop-color="#387C46"/><stop offset="1" stop-color="#3D8F6C"/></radialGradient><radialGradient id="A" cx="0" cy="0" r="1" gradientUnits="userSpaceOnUse" gradientTransform="matrix(-2.27543 1.55452 -.96733 -1.41593 15.199 19.492)"><stop stop-color="#519473"/><stop offset="1" stop-color="#519473" stop-opacity="0"/></radialGradient><radialGradient id="C" cx="0" cy="0" r="1" gradientUnits="userSpaceOnUse" gradientTransform="matrix(0 3.28924 -4.48731 0 15.447 15.91)"><stop offset=".344" stop-color="#2A5923"/><stop offset=".987" stop-color="#2A5923" stop-opacity="0"/></radialGradient><radialGradient id="D" cx="0" cy="0" r="1" gradientUnits="userSpaceOnUse" gradientTransform="matrix(0 -4.58005 5.35185 0 15.974 19.592)"><stop offset=".027" stop-color="#E9CEE6"/><stop offset=".737" stop-color="#9C8F92"/></radialGradient><radialGradient id="E" cx="0" cy="0" r="1" gradientUnits="userSpaceOnUse" gradientTransform="matrix(0 1.43272 -4.29817 0 16.662 16.516)"><stop stop-color="#CD8A31"/><stop offset="1" stop-color="#C6912A"/></radialGradient><radialGradient id="F" cx="0" cy="0" r="1" gradientUnits="userSpaceOnUse" gradientTransform="matrix(0 4.35481 -2.92854 0 15.984 15.27)"><stop offset=".584" stop-color="#9A6904" stop-opacity="0"/><stop offset="1" stop-color="#9A6904"/></radialGradient><radialGradient id="H" cx="0" cy="0" r="1" gradientUnits="userSpaceOnUse" gradientTransform="rotate(154.069 9.565 11.761) scale(3.78757 11.2112)"><stop stop-color="#47B2F6"/><stop offset="1" stop-color="#47B2F6" stop-opacity="0"/></radialGradient><radialGradient id="K" cx="0" cy="0" r="1" gradientUnits="userSpaceOnUse" gradientTransform="matrix(2.5033 -1.90625 3.00378 3.94458 8.994 18.75)"><stop stop-color="#3DA0DB"/><stop offset="1" stop-color="#3AA1E0" stop-opacity="0"/></radialGradient><radialGradient id="O" cx="0" cy="0" r="1" gradientUnits="userSpaceOnUse" gradientTransform="rotate(137.811 9.362 17.164) scale(1.65559 1.3064)"><stop stop-color="#FFD740"/><stop offset="1" stop-color="#FFCA2C"/></radialGradient><radialGradient id="P" cx="0" cy="0" r="1" gradientUnits="userSpaceOnUse" gradientTransform="matrix(0 -1.45313 1.43733 0 26.209 25.094)"><stop offset=".13" stop-color="#CF9826"/><stop offset="1" stop-color="#CF9826" stop-opacity="0"/></radialGradient><radialGradient id="Q" cx="0" cy="0" r="1" gradientUnits="userSpaceOnUse" gradientTransform="matrix(-1.79687 0 0 -3.09375 27.521 24.469)"><stop offset=".417" stop-color="#CD9D3E" stop-opacity="0"/><stop offset=".922" stop-color="#CD9D3E"/></radialGradient><radialGradient id="S" cx="0" cy="0" r="1" gradientUnits="userSpaceOnUse" gradientTransform="matrix(0 -2.85126 .74829 0 26.167 24.71)"><stop stop-color="#88625F"/><stop offset="1" stop-color="#88625F" stop-opacity="0"/></radialGradient><radialGradient id="T" cx="0" cy="0" r="1" gradientUnits="userSpaceOnUse" gradientTransform="matrix(0 -1.82813 1.14062 0 26.19 21.531)"><stop stop-color="#D2C4E1"/><stop offset="1" stop-color="#B198C9"/></radialGradient><radialGradient id="U" cx="0" cy="0" r="1" gradientUnits="userSpaceOnUse" gradientTransform="matrix(0 -2.14844 2.01125 0 25.692 21.914)"><stop offset=".76" stop-color="#947CA9" stop-opacity="0"/><stop offset="1" stop-color="#947CA9"/></radialGradient><radialGradient id="Y" cx="0" cy="0" r="1" gradientUnits="userSpaceOnUse" gradientTransform="matrix(-1.44615 2.39061 -1.97778 -1.19642 27.826 24.514)"><stop stop-color="#FFE136"/><stop offset="1" stop-color="#FFE136" stop-opacity="0"/></radialGradient><radialGradient id="ai" cx="0" cy="0" r="1" gradientUnits="userSpaceOnUse" gradientTransform="matrix(2.48905 -1.13139 1.38138 3.03902 20.052 11.286)"><stop offset=".572" stop-color="#FFC531"/><stop offset=".905" stop-color="#FFE549"/></radialGradient><radialGradient id="ak" cx="0" cy="0" r="1" gradientUnits="userSpaceOnUse" gradientTransform="rotate(-20.298 41.264 -52.014) scale(1.30459)"><stop offset=".71" stop-color="#FFBA25" stop-opacity="0"/><stop offset="1" stop-color="#FFBA25"/></radialGradient><radialGradient id="am" cx="0" cy="0" r="1" gradientUnits="userSpaceOnUse" gradientTransform="matrix(-1.07411 0 0 -1.02745 11.33 10.847)"><stop offset=".415" stop-color="#D67923" stop-opacity="0"/><stop offset="1" stop-color="#D67923"/></radialGradient><radialGradient id="ao" cx="0" cy="0" r="1" gradientUnits="userSpaceOnUse" gradientTransform="matrix(-6.1932 2.03299 -3.44754 -10.50243 19.399 10.155)"><stop stop-color="#FFE846"/><stop offset="1" stop-color="#F5A129"/></radialGradient><radialGradient id="ap" cx="0" cy="0" r="1" gradientUnits="userSpaceOnUse" gradientTransform="matrix(0 8.87488 -8.98026 0 16.061 7.69)"><stop offset=".612" stop-color="#EF9939" stop-opacity="0"/><stop offset=".979" stop-color="#C5801E"/></radialGradient><radialGradient id="aq" cx="0" cy="0" r="1" gradientUnits="userSpaceOnUse" gradientTransform="matrix(0 -1.34375 1.625 0 18.206 9.5)"><stop stop-color="#FFBD31"/><stop offset="1" stop-color="#FFBD31" stop-opacity="0"/></radialGradient><radialGradient id="ar" cx="0" cy="0" r="1" gradientUnits="userSpaceOnUse" gradientTransform="matrix(0 -1.39844 1.40625 0 14.002 9.774)"><stop stop-color="#F69831"/><stop offset="1" stop-color="#F69831" stop-opacity="0"/></radialGradient><radialGradient id="at" cx="0" cy="0" r="1" gradientUnits="userSpaceOnUse" gradientTransform="matrix(.29688 -.6875 2.02145 .8729 15.182 14.101)"><stop stop-color="#FCA933"/><stop offset="1" stop-color="#FCA933" stop-opacity="0"/></radialGradient><radialGradient id="ay" cx="0" cy="0" r="1" gradientUnits="userSpaceOnUse" gradientTransform="matrix(-.66772 -2.3456 1.34205 -.38204 16.852 11.9)"><stop offset=".017" stop-color="#FFE848"/><stop offset="1" stop-color="#FFE848" stop-opacity="0"/></radialGradient><radialGradient id="aF" cx="0" cy="0" r="1" gradientUnits="userSpaceOnUse" gradientTransform="matrix(0 .81132 -1.29049 0 18.199 10.045)"><stop offset=".802" stop-color="#925C51"/><stop offset="1" stop-color="#694B43"/><stop offset="1" stop-color="#804D49"/><stop offset="1" stop-color="#85534D"/></radialGradient><radialGradient id="aH" cx="0" cy="0" r="1" gradientUnits="userSpaceOnUse" gradientTransform="rotate(-127.812 11.465 .664) scale(.37798 .52039)"><stop offset=".766" stop-color="#FFE6E2" stop-opacity="0"/><stop offset=".966" stop-color="#FFE6E2"/></radialGradient><radialGradient id="aK" cx="0" cy="0" r="1" gradientUnits="userSpaceOnUse" gradientTransform="matrix(0 .81132 -1.2905 0 13.935 10.045)"><stop offset=".802" stop-color="#925C51"/><stop offset="1" stop-color="#694B43"/><stop offset="1" stop-color="#804D49"/><stop offset="1" stop-color="#85534D"/></radialGradient><radialGradient id="aO" cx="0" cy="0" r="1" gradientUnits="userSpaceOnUse" gradientTransform="matrix(-.00773 -.49366 .5934 -.0093 13.649 10.264)"><stop offset=".766" stop-color="#FFE6E2" stop-opacity="0"/><stop offset=".966" stop-color="#FFE6E2"/></radialGradient><filter id="d" x="5.535" y="4.75" width="20.537" height="10.328" filterUnits="userSpaceOnUse" color-interpolation-filters="sRGB"><feFlood flood-opacity="0" result="BackgroundImageFix"/><feBlend in="SourceGraphic" in2="BackgroundImageFix" result="shape"/><feColorMatrix in="SourceAlpha" values="0 0 0 0 0 0 0 0 0 0 0 0 0 0 0 0 0 0 127 0" result="hardAlpha"/><feOffset dy=".5"/><feGaussianBlur stdDeviation=".25"/><feComposite in2="hardAlpha" operator="arithmetic" k2="-1" k3="1"/><feColorMatrix values="0 0 0 0 0.478431 0 0 0 0 0.384314 0 0 0 0 0.368627 0 0 0 1 0"/><feBlend in2="shape" result="effect1_innerShadow_4002_1799"/><feColorMatrix in="SourceAlpha" values="0 0 0 0 0 0 0 0 0 0 0 0 0 0 0 0 0 0 127 0" result="hardAlpha"/><feOffset dx="-.5" dy=".25"/><feGaussianBlur stdDeviation=".375"/><feComposite in2="hardAlpha" operator="arithmetic" k2="-1" k3="1"/><feColorMatrix values="0 0 0 0 0.388235 0 0 0 0 0.243137 0 0 0 0 0.25098 0 0 0 1 0"/><feBlend in2="effect1_innerShadow_4002_1799" result="effect2_innerShadow_4002_1799"/></filter><filter id="g" x="14.088" y="6.756" width="9.49" height="10.956" filterUnits="userSpaceOnUse" color-interpolation-filters="sRGB"><feFlood flood-opacity="0" result="BackgroundImageFix"/><feBlend in="SourceGraphic" in2="BackgroundImageFix" result="shape"/><feColorMatrix in="SourceAlpha" values="0 0 0 0 0 0 0 0 0 0 0 0 0 0 0 0 0 0 127 0" result="hardAlpha"/><feOffset dx=".1" dy="-.1"/><feGaussianBlur stdDeviation=".075"/><feComposite in2="hardAlpha" operator="arithmetic" k2="-1" k3="1"/><feColorMatrix values="0 0 0 0 0.909804 0 0 0 0 0.509804 0 0 0 0 0.0941176 0 0 0 1 0"/><feBlend in2="shape" result="effect1_innerShadow_4002_1799"/></filter><filter id="o" x="8.629" y="6.687" width="5.894" height="10.985" filterUnits="userSpaceOnUse" color-interpolation-filters="sRGB"><feFlood flood-opacity="0" result="BackgroundImageFix"/><feBlend in="SourceGraphic" in2="BackgroundImageFix" result="shape"/><feColorMatrix in="SourceAlpha" values="0 0 0 0 0 0 0 0 0 0 0 0 0 0 0 0 0 0 127 0" result="hardAlpha"/><feOffset dy="-.25"/><feGaussianBlur stdDeviation=".375"/><feComposite in2="hardAlpha" operator="arithmetic" k2="-1" k3="1"/><feColorMatrix values="0 0 0 0 0.545098 0 0 0 0 0.466667 0 0 0 0 0.207843 0 0 0 1 0"/><feBlend in2="shape" result="effect1_innerShadow_4002_1799"/></filter><filter id="x" x="12.053" y="15.191" width="8" height="6.44" filterUnits="userSpaceOnUse" color-interpolation-filters="sRGB"><feFlood flood-opacity="0" result="BackgroundImageFix"/><feBlend in="SourceGraphic" in2="BackgroundImageFix" result="shape"/><feColorMatrix in="SourceAlpha" values="0 0 0 0 0 0 0 0 0 0 0 0 0 0 0 0 0 0 127 0" result="hardAlpha"/><feOffset dy="-.25"/><feGaussianBlur stdDeviation=".175"/><feComposite in2="hardAlpha" operator="arithmetic" k2="-1" k3="1"/><feColorMatrix values="0 0 0 0 0.109804 0 0 0 0 0.47451 0 0 0 0 0.333333 0 0 0 1 0"/><feBlend in2="shape" result="effect1_innerShadow_4002_1799"/></filter><filter id="L" x="11.784" y="25.5" width="8.45" height="4.612" filterUnits="userSpaceOnUse" color-interpolation-filters="sRGB"><feFlood flood-opacity="0" result="BackgroundImageFix"/><feBlend in="SourceGraphic" in2="BackgroundImageFix" result="shape"/><feGaussianBlur stdDeviation=".125" result="effect1_foregroundBlur_4002_1799"/></filter><filter id="M" x="11.934" y="25.75" width="8.05" height="4.28" filterUnits="userSpaceOnUse" color-interpolation-filters="sRGB"><feFlood flood-opacity="0" result="BackgroundImageFix"/><feBlend in="SourceGraphic" in2="BackgroundImageFix" result="shape"/><feColorMatrix in="SourceAlpha" values="0 0 0 0 0 0 0 0 0 0 0 0 0 0 0 0 0 0 127 0" result="hardAlpha"/><feOffset dx="-.1" dy=".1"/><feGaussianBlur stdDeviation=".1"/><feComposite in2="hardAlpha" operator="arithmetic" k2="-1" k3="1"/><feColorMatrix values="0 0 0 0 0.258824 0 0 0 0 0.67451 0 0 0 0 1 0 0 0 1 0"/><feBlend in2="shape" result="effect1_innerShadow_4002_1799"/></filter><filter id="W" x="23.508" y="24.364" width="4.618" height="5.556" filterUnits="userSpaceOnUse" color-interpolation-filters="sRGB"><feFlood flood-opacity="0" result="BackgroundImageFix"/><feBlend in="SourceGraphic" in2="BackgroundImageFix" result="shape"/><feColorMatrix in="SourceAlpha" values="0 0 0 0 0 0 0 0 0 0 0 0 0 0 0 0 0 0 127 0" result="hardAlpha"/><feOffset dx=".3" dy="-.15"/><feGaussianBlur stdDeviation=".3"/><feComposite in2="hardAlpha" operator="arithmetic" k2="-1" k3="1"/><feColorMatrix values="0 0 0 0 0.905882 0 0 0 0 0.521569 0 0 0 0 0.364706 0 0 0 1 0"/><feBlend in2="shape" result="effect1_innerShadow_4002_1799"/></filter><filter id="Z" x="23.903" y="25.773" width="2.047" height=".25" filterUnits="userSpaceOnUse" color-interpolation-filters="sRGB"><feFlood flood-opacity="0" result="BackgroundImageFix"/><feBlend in="SourceGraphic" in2="BackgroundImageFix" result="shape"/><feGaussianBlur stdDeviation=".05" result="effect1_foregroundBlur_4002_1799"/></filter><filter id="ab" x="23.825" y="27.078" width="2.047" height=".25" filterUnits="userSpaceOnUse" color-interpolation-filters="sRGB"><feFlood flood-opacity="0" result="BackgroundImageFix"/><feBlend in="SourceGraphic" in2="BackgroundImageFix" result="shape"/><feGaussianBlur stdDeviation=".05" result="effect1_foregroundBlur_4002_1799"/></filter><filter id="ad" x="23.903" y="28.383" width="2.047" height=".25" filterUnits="userSpaceOnUse" color-interpolation-filters="sRGB"><feFlood flood-opacity="0" result="BackgroundImageFix"/><feBlend in="SourceGraphic" in2="BackgroundImageFix" result="shape"/><feGaussianBlur stdDeviation=".05" result="effect1_foregroundBlur_4002_1799"/></filter><filter id="af" x="9.701" y="9.237" width="3.318" height="3.218" filterUnits="userSpaceOnUse" color-interpolation-filters="sRGB"><feFlood flood-opacity="0" result="BackgroundImageFix"/><feBlend in="SourceGraphic" in2="BackgroundImageFix" result="shape"/><feColorMatrix in="SourceAlpha" values="0 0 0 0 0 0 0 0 0 0 0 0 0 0 0 0 0 0 127 0" result="hardAlpha"/><feOffset dx=".1"/><feGaussianBlur stdDeviation=".15"/><feComposite in2="hardAlpha" operator="arithmetic" k2="-1" k3="1"/><feColorMatrix values="0 0 0 0 0.768627 0 0 0 0 0.501961 0 0 0 0 0.160784 0 0 0 1 0"/><feBlend in2="shape" result="effect1_innerShadow_4002_1799"/></filter><filter id="ah" x="19.231" y="8.987" width="3.218" height="3.468" filterUnits="userSpaceOnUse" color-interpolation-filters="sRGB"><feFlood flood-opacity="0" result="BackgroundImageFix"/><feBlend in="SourceGraphic" in2="BackgroundImageFix" result="shape"/><feColorMatrix in="SourceAlpha" values="0 0 0 0 0 0 0 0 0 0 0 0 0 0 0 0 0 0 127 0" result="hardAlpha"/><feOffset dy="-.25"/><feGaussianBlur stdDeviation=".25"/><feComposite in2="hardAlpha" operator="arithmetic" k2="-1" k3="1"/><feColorMatrix values="0 0 0 0 0.937255 0 0 0 0 0.576471 0 0 0 0 0.341176 0 0 0 1 0"/><feBlend in2="shape" result="effect1_innerShadow_4002_1799"/></filter><filter id="aj" x="19.266" y="9.272" width="3.148" height="3.148" filterUnits="userSpaceOnUse" color-interpolation-filters="sRGB"><feFlood flood-opacity="0" result="BackgroundImageFix"/><feBlend in="SourceGraphic" in2="BackgroundImageFix" result="shape"/><feGaussianBlur stdDeviation=".25" result="effect1_foregroundBlur_4002_1799"/></filter><filter id="al" x="10.005" y="9.522" width="2.648" height="2.648" filterUnits="userSpaceOnUse" color-interpolation-filters="sRGB"><feFlood flood-opacity="0" result="BackgroundImageFix"/><feBlend in="SourceGraphic" in2="BackgroundImageFix" result="shape"/><feGaussianBlur stdDeviation=".125" result="effect1_foregroundBlur_4002_1799"/></filter><filter id="an" x="11.149" y="6.856" width="10.325" height="9.709" filterUnits="userSpaceOnUse" color-interpolation-filters="sRGB"><feFlood flood-opacity="0" result="BackgroundImageFix"/><feBlend in="SourceGraphic" in2="BackgroundImageFix" result="shape"/><feColorMatrix in="SourceAlpha" values="0 0 0 0 0 0 0 0 0 0 0 0 0 0 0 0 0 0 127 0" result="hardAlpha"/><feOffset dx=".5"/><feGaussianBlur stdDeviation=".5"/><feComposite in2="hardAlpha" operator="arithmetic" k2="-1" k3="1"/><feColorMatrix values="0 0 0 0 0.823529 0 0 0 0 0.623529 0 0 0 0 0.313726 0 0 0 1 0"/><feBlend in2="shape" result="effect1_innerShadow_4002_1799"/></filter><filter id="as" x="14.226" y="12.944" width="3.685" height="1.517" filterUnits="userSpaceOnUse" color-interpolation-filters="sRGB"><feFlood flood-opacity="0" result="BackgroundImageFix"/><feBlend in="SourceGraphic" in2="BackgroundImageFix" result="shape"/><feGaussianBlur stdDeviation=".05" result="effect1_foregroundBlur_4002_1799"/></filter><filter id="av" x="14.476" y="9.806" width="2.797" height="3.568" filterUnits="userSpaceOnUse" color-interpolation-filters="sRGB"><feFlood flood-opacity="0" result="BackgroundImageFix"/><feBlend in="SourceGraphic" in2="BackgroundImageFix" result="shape"/><feGaussianBlur stdDeviation=".25" result="effect1_foregroundBlur_4002_1799"/></filter><filter id="aw" x="14.953" y="9.829" width="2.297" height="3.068" filterUnits="userSpaceOnUse" color-interpolation-filters="sRGB"><feFlood flood-opacity="0" result="BackgroundImageFix"/><feBlend in="SourceGraphic" in2="BackgroundImageFix" result="shape"/><feGaussianBlur stdDeviation=".125" result="effect1_foregroundBlur_4002_1799"/></filter><filter id="aB" x="12.302" y="7.747" width="2.447" height="1.069" filterUnits="userSpaceOnUse" color-interpolation-filters="sRGB"><feFlood flood-opacity="0" result="BackgroundImageFix"/><feBlend in="SourceGraphic" in2="BackgroundImageFix" result="shape"/><feColorMatrix in="SourceAlpha" values="0 0 0 0 0 0 0 0 0 0 0 0 0 0 0 0 0 0 127 0" result="hardAlpha"/><feOffset dx=".2" dy="-.2"/><feGaussianBlur stdDeviation=".15"/><feComposite in2="hardAlpha" operator="arithmetic" k2="-1" k3="1"/><feColorMatrix values="0 0 0 0 0.658824 0 0 0 0 0.270588 0 0 0 0 0.141176 0 0 0 1 0"/><feBlend in2="shape" result="effect1_innerShadow_4002_1799"/></filter><filter id="aC" x="17.628" y="7.757" width="2.437" height="1.059" filterUnits="userSpaceOnUse" color-interpolation-filters="sRGB"><feFlood flood-opacity="0" result="BackgroundImageFix"/><feBlend in="SourceGraphic" in2="BackgroundImageFix" result="shape"/><feColorMatrix in="SourceAlpha" values="0 0 0 0 0 0 0 0 0 0 0 0 0 0 0 0 0 0 127 0" result="hardAlpha"/><feOffset dx=".2" dy="-.2"/><feGaussianBlur stdDeviation=".15"/><feComposite in2="hardAlpha" operator="arithmetic" k2="-1" k3="1"/><feColorMatrix values="0 0 0 0 0.658824 0 0 0 0 0.270588 0 0 0 0 0.141176 0 0 0 1 0"/><feBlend in2="shape" result="effect1_innerShadow_4002_1799"/></filter><filter id="aD" x="16.959" y="9.237" width="3.001" height="1.285" filterUnits="userSpaceOnUse" color-interpolation-filters="sRGB"><feFlood flood-opacity="0" result="BackgroundImageFix"/><feBlend in="SourceGraphic" in2="BackgroundImageFix" result="shape"/><feColorMatrix in="SourceAlpha" values="0 0 0 0 0 0 0 0 0 0 0 0 0 0 0 0 0 0 127 0" result="hardAlpha"/><feOffset dx="-.2"/><feGaussianBlur stdDeviation=".2"/><feComposite in2="hardAlpha" operator="arithmetic" k2="-1" k3="1"/><feColorMatrix values="0 0 0 0 0.141176 0 0 0 0 0.0862745 0 0 0 0 0.176471 0 0 0 1 0"/><feBlend in2="shape" result="effect1_innerShadow_4002_1799"/></filter><filter id="aE" x="12.174" y="9.237" width="3.001" height="1.285" filterUnits="userSpaceOnUse" color-interpolation-filters="sRGB"><feFlood flood-opacity="0" result="BackgroundImageFix"/><feBlend in="SourceGraphic" in2="BackgroundImageFix" result="shape"/><feColorMatrix in="SourceAlpha" values="0 0 0 0 0 0 0 0 0 0 0 0 0 0 0 0 0 0 127 0" result="hardAlpha"/><feOffset dx=".2"/><feGaussianBlur stdDeviation=".125"/><feComposite in2="hardAlpha" operator="arithmetic" k2="-1" k3="1"/><feColorMatrix values="0 0 0 0 0.133333 0 0 0 0 0.0784314 0 0 0 0 0.168627 0 0 0 1 0"/><feBlend in2="shape" result="effect1_innerShadow_4002_1799"/></filter><filter id="aG" x="17.464" y="9.605" width=".786" height=".696" filterUnits="userSpaceOnUse" color-interpolation-filters="sRGB"><feFlood flood-opacity="0" result="BackgroundImageFix"/><feBlend in="SourceGraphic" in2="BackgroundImageFix" result="shape"/><feGaussianBlur stdDeviation=".05" result="effect1_foregroundBlur_4002_1799"/></filter><filter id="aI" x="18.304" y="9.68" width=".891" height=".913" filterUnits="userSpaceOnUse" color-interpolation-filters="sRGB"><feFlood flood-opacity="0" result="BackgroundImageFix"/><feBlend in="SourceGraphic" in2="BackgroundImageFix" result="shape"/><feGaussianBlur stdDeviation=".1" result="effect1_foregroundBlur_4002_1799"/></filter><filter id="aL" x="13.962" y="9.617" width=".986" height="1.04" filterUnits="userSpaceOnUse" color-interpolation-filters="sRGB"><feFlood flood-opacity="0" result="BackgroundImageFix"/><feBlend in="SourceGraphic" in2="BackgroundImageFix" result="shape"/><feGaussianBlur stdDeviation=".1" result="effect1_foregroundBlur_4002_1799"/></filter><filter id="aN" x="13.207" y="9.597" width=".912" height=".704" filterUnits="userSpaceOnUse" color-interpolation-filters="sRGB"><feFlood flood-opacity="0" result="BackgroundImageFix"/><feBlend in="SourceGraphic" in2="BackgroundImageFix" result="shape"/><feGaussianBlur stdDeviation=".05" result="effect1_foregroundBlur_4002_1799"/></filter><filter id="aP" x="17.614" y="7.862" width="2.332" height=".95" filterUnits="userSpaceOnUse" color-interpolation-filters="sRGB"><feFlood flood-opacity="0" result="BackgroundImageFix"/><feBlend in="SourceGraphic" in2="BackgroundImageFix" result="shape"/><feGaussianBlur stdDeviation=".1" result="effect1_foregroundBlur_4002_1799"/></filter><filter id="aQ" x="12.068" y="7.862" width="2.332" height=".95" filterUnits="userSpaceOnUse" color-interpolation-filters="sRGB"><feFlood flood-opacity="0" result="BackgroundImageFix"/><feBlend in="SourceGraphic" in2="BackgroundImageFix" result="shape"/><feGaussianBlur stdDeviation=".1" result="effect1_foregroundBlur_4002_1799"/></filter><filter id="aR" x="21.907" y="10.584" width="7.625" height="9.853" filterUnits="userSpaceOnUse" color-interpolation-filters="sRGB"><feFlood flood-opacity="0" result="BackgroundImageFix"/><feBlend in="SourceGraphic" in2="BackgroundImageFix" result="shape"/><feColorMatrix in="SourceAlpha" values="0 0 0 0 0 0 0 0 0 0 0 0 0 0 0 0 0 0 127 0" result="hardAlpha"/><feOffset dx=".2" dy="-.4"/><feGaussianBlur stdDeviation=".375"/><feComposite in2="hardAlpha" operator="arithmetic" k2="-1" k3="1"/><feColorMatrix values="0 0 0 0 0.643137 0 0 0 0 0.490196 0 0 0 0 0.776471 0 0 0 1 0"/><feBlend in2="shape" result="effect1_innerShadow_4002_1799"/><feColorMatrix in="SourceAlpha" values="0 0 0 0 0 0 0 0 0 0 0 0 0 0 0 0 0 0 127 0" result="hardAlpha"/><feOffset dx="-.3" dy=".5"/><feGaussianBlur stdDeviation=".25"/><feComposite in2="hardAlpha" operator="arithmetic" k2="-1" k3="1"/><feColorMatrix values="0 0 0 0 0.831373 0 0 0 0 0.788235 0 0 0 0 0.87451 0 0 0 1 0"/><feBlend in2="effect1_innerShadow_4002_1799" result="effect2_innerShadow_4002_1799"/><feColorMatrix in="SourceAlpha" values="0 0 0 0 0 0 0 0 0 0 0 0 0 0 0 0 0 0 127 0" result="hardAlpha"/><feOffset dy=".1"/><feGaussianBlur stdDeviation=".2"/><feComposite in2="hardAlpha" operator="arithmetic" k2="-1" k3="1"/><feColorMatrix values="0 0 0 0 0.6 0 0 0 0 0.552941 0 0 0 0 0.545098 0 0 0 1 0"/><feBlend in2="effect2_innerShadow_4002_1799" result="effect3_innerShadow_4002_1799"/></filter><linearGradient id="c" x1="15.973" y1="3.951" x2="15.973" y2="4.004" gradientUnits="userSpaceOnUse"><stop stop-color="#4E2D3A"/><stop offset="1" stop-color="#4E2D3A" stop-opacity="0"/></linearGradient><linearGradient id="e" x1="16.054" y1="4.75" x2="16.054" y2="14.781" gradientUnits="userSpaceOnUse"><stop stop-color="#6A3D3E"/><stop offset="1" stop-color="#6E4E4C"/></linearGradient><linearGradient id="p" x1="11.576" y1="6.937" x2="11.576" y2="17.672" gradientUnits="userSpaceOnUse"><stop stop-color="#FFA02C"/><stop offset="1" stop-color="#D67A1D"/></linearGradient><linearGradient id="t" x1="8.994" y1="28.375" x2="5.403" y2="28.375" gradientUnits="userSpaceOnUse"><stop stop-color="#399965"/><stop offset="1" stop-color="#5CC585"/></linearGradient><linearGradient id="v" x1="26.556" y1="22.805" x2="23.014" y2="29.111" gradientUnits="userSpaceOnUse"><stop stop-color="#63D591"/><stop offset="1" stop-color="#368D6E"/></linearGradient><linearGradient id="z" x1="20.053" y1="18.438" x2="19.119" y2="18.438" gradientUnits="userSpaceOnUse"><stop stop-color="#5AA37A"/><stop offset="1" stop-color="#5AA37A" stop-opacity="0"/></linearGradient><linearGradient id="B" x1="12.053" y1="18.438" x2="12.387" y2="18.438" gradientUnits="userSpaceOnUse"><stop offset=".143" stop-color="#6A9E7E"/><stop offset="1" stop-color="#6A9E7E" stop-opacity="0"/></linearGradient><linearGradient id="G" x1="17.216" y1="29.062" x2="16.003" y2="21.937" gradientUnits="userSpaceOnUse"><stop stop-color="#3560C5"/><stop offset="1" stop-color="#329FEA"/></linearGradient><linearGradient id="I" x1="23.067" y1="29.594" x2="22.841" y2="29.594" gradientUnits="userSpaceOnUse"><stop stop-color="#356EBB"/><stop offset="1" stop-color="#356EBB" stop-opacity="0"/></linearGradient><linearGradient id="J" x1="8.994" y1="29.594" x2="9.118" y2="29.594" gradientUnits="userSpaceOnUse"><stop stop-color="#356EBB"/><stop offset="1" stop-color="#356EBB" stop-opacity="0"/></linearGradient><linearGradient id="N" x1="13.841" y1="28.281" x2="20.372" y2="28.281" gradientUnits="userSpaceOnUse"><stop stop-color="#3CA9FF"/><stop offset="1" stop-color="#389DFF"/></linearGradient><linearGradient id="R" x1="25.664" y1="21.531" x2="25.664" y2="24.711" gradientUnits="userSpaceOnUse"><stop stop-color="#784853"/><stop offset=".997" stop-color="#7D5248"/></linearGradient><linearGradient id="V" x1="25.692" y1="22.234" x2="25.692" y2="21.641" gradientUnits="userSpaceOnUse"><stop stop-color="#9E83BE"/><stop offset="1" stop-color="#9E83BE" stop-opacity="0"/></linearGradient><linearGradient id="X" x1="27.536" y1="27.983" x2="23.508" y2="27.983" gradientUnits="userSpaceOnUse"><stop stop-color="#FFE132"/><stop offset=".861" stop-color="#DF9E26"/></linearGradient><linearGradient id="aa" x1="25.709" y1="25.898" x2="23.873" y2="25.898" gradientUnits="userSpaceOnUse"><stop stop-color="#C07200"/><stop offset="1" stop-color="#C88714"/></linearGradient><linearGradient id="ac" x1="25.63" y1="27.203" x2="23.794" y2="27.203" gradientUnits="userSpaceOnUse"><stop stop-color="#C07200"/><stop offset="1" stop-color="#C88714"/></linearGradient><linearGradient id="ae" x1="25.709" y1="28.508" x2="23.873" y2="28.508" gradientUnits="userSpaceOnUse"><stop stop-color="#C07200"/><stop offset="1" stop-color="#C88714"/></linearGradient><linearGradient id="ag" x1="9.701" y1="10.934" x2="12.661" y2="10.934" gradientUnits="userSpaceOnUse"><stop stop-color="#E79B27"/><stop offset="1" stop-color="#B96201"/></linearGradient><linearGradient id="au" x1="17.711" y1="13.422" x2="14.324" y2="13.422" gradientUnits="userSpaceOnUse"><stop stop-color="#87004D"/><stop offset="1" stop-color="#87004D"/></linearGradient><linearGradient id="ax" x1="16.101" y1="12.647" x2="16.101" y2="10.079" gradientUnits="userSpaceOnUse"><stop stop-color="#FFC134"/><stop offset="1" stop-color="#F8C73F"/></linearGradient><linearGradient id="az" x1="15.1" y1="11.917" x2="15.917" y2="12.017" gradientUnits="userSpaceOnUse"><stop stop-color="#F8A322"/><stop offset="1" stop-color="#F8A322" stop-opacity="0"/></linearGradient><linearGradient id="aA" x1="16.101" y1="12.735" x2="16.101" y2="12.151" gradientUnits="userSpaceOnUse"><stop stop-color="#E48538"/><stop offset="1" stop-color="#E48538" stop-opacity="0"/></linearGradient><linearGradient id="aJ" x1="18.976" y1="10.099" x2="18.663" y2="10.292" gradientUnits="userSpaceOnUse"><stop stop-color="#B4948D"/><stop offset="1" stop-color="#B4948D" stop-opacity="0"/></linearGradient><linearGradient id="aM" x1="14.679" y1="10.098" x2="14.365" y2="10.292" gradientUnits="userSpaceOnUse"><stop stop-color="#B4948D"/><stop offset="1" stop-color="#B4948D" stop-opacity="0"/></linearGradient></defs></svg>