<svg width="32" height="32" fill="none" xmlns="http://www.w3.org/2000/svg"><g filter="url(#a)"><path d="M7.316 20.807a3 3 0 1 0 0-6 3 3 0 0 0 0 6Z" fill="url(#b)"/></g><g filter="url(#c)"><path d="M25.052 20.807a3 3 0 1 0 0-6 3 3 0 0 0 0 6Z" fill="url(#d)"/><path d="M25.052 20.807a3 3 0 1 0 0-6 3 3 0 0 0 0 6Z" fill="url(#e)"/></g><g filter="url(#f)"><path d="M25.052 19.81a2.003 2.003 0 1 0 0-4.005 2.003 2.003 0 0 0 0 4.005Z" fill="#F6BCA5"/><path d="M25.052 19.81a2.003 2.003 0 1 0 0-4.005 2.003 2.003 0 0 0 0 4.005Z" fill="url(#g)"/></g><g filter="url(#h)"><path d="M7.352 19.81a2.003 2.003 0 1 0 0-4.005 2.003 2.003 0 0 0 0 4.005Z" fill="#C58C80"/><path d="M7.352 19.81a2.003 2.003 0 1 0 0-4.005 2.003 2.003 0 0 0 0 4.005Z" fill="url(#i)"/></g><g filter="url(#j)"><path d="M6.699 20.205c.23 5.225 4.31 8.734 9.29 8.734 4.981 0 9.061-3.509 9.291-8.734l.021-8.722c0-3.3-2.057-5.92-6.3-6.735-1.6-.212-4.5-.215-6 0-4.242.815-6.3 3.435-6.3 6.735L6.7 20.205Z" fill="url(#k)"/><path d="M6.699 20.205c.23 5.225 4.31 8.734 9.29 8.734 4.981 0 9.061-3.509 9.291-8.734l.021-8.722c0-3.3-2.057-5.92-6.3-6.735-1.6-.212-4.5-.215-6 0-4.242.815-6.3 3.435-6.3 6.735L6.7 20.205Z" fill="url(#l)"/><path d="M6.699 20.205c.23 5.225 4.31 8.734 9.29 8.734 4.981 0 9.061-3.509 9.291-8.734l.021-8.722c0-3.3-2.057-5.92-6.3-6.735-1.6-.212-4.5-.215-6 0-4.242.815-6.3 3.435-6.3 6.735L6.7 20.205Z" fill="url(#m)"/><path d="M6.699 20.205c.23 5.225 4.31 8.734 9.29 8.734 4.981 0 9.061-3.509 9.291-8.734l.021-8.722c0-3.3-2.057-5.92-6.3-6.735-1.6-.212-4.5-.215-6 0-4.242.815-6.3 3.435-6.3 6.735L6.7 20.205Z" fill="url(#n)"/><path d="M6.699 20.205c.23 5.225 4.31 8.734 9.29 8.734 4.981 0 9.061-3.509 9.291-8.734l.021-8.722c0-3.3-2.057-5.92-6.3-6.735-1.6-.212-4.5-.215-6 0-4.242.815-6.3 3.435-6.3 6.735L6.7 20.205Z" fill="url(#o)"/></g><path d="M6.699 20.205c.23 5.225 4.31 8.734 9.29 8.734 4.981 0 9.061-3.509 9.291-8.734l.021-8.722c0-3.3-2.057-5.92-6.3-6.735-1.6-.212-4.5-.215-6 0-4.242.815-6.3 3.435-6.3 6.735L6.7 20.205Z" fill="url(#p)"/><path d="M6.699 20.205c.23 5.225 4.31 8.734 9.29 8.734 4.981 0 9.061-3.509 9.291-8.734l.021-8.722c0-3.3-2.057-5.92-6.3-6.735-1.6-.212-4.5-.215-6 0-4.242.815-6.3 3.435-6.3 6.735L6.7 20.205Z" fill="url(#q)"/><g filter="url(#r)"><path d="m15.244 17.61-1.274 2.888a1.005 1.005 0 0 0 .97 1.304h1.466c.688 0 1.173-.662.971-1.304l-.991-2.889c-.212-.702-.92-.702-1.142 0Z" fill="#D19590"/></g><g filter="url(#s)"><path d="m15.34 17.134-.992 3.17a1.005 1.005 0 0 0 .971 1.303h1.466c.688 0 1.173-.662.971-1.304l-.99-3.17c-.213-.701-1.204-.701-1.427 0Z" fill="#F1C4B2"/><path d="m15.34 17.134-.992 3.17a1.005 1.005 0 0 0 .971 1.303h1.466c.688 0 1.173-.662.971-1.304l-.99-3.17c-.213-.701-1.204-.701-1.427 0Z" fill="url(#t)"/><path d="m15.34 17.134-.992 3.17a1.005 1.005 0 0 0 .971 1.303h1.466c.688 0 1.173-.662.971-1.304l-.99-3.17c-.213-.701-1.204-.701-1.427 0Z" fill="url(#u)"/><path d="m15.34 17.134-.992 3.17a1.005 1.005 0 0 0 .971 1.303h1.466c.688 0 1.173-.662.971-1.304l-.99-3.17c-.213-.701-1.204-.701-1.427 0Z" fill="url(#v)"/><path d="m15.34 17.134-.992 3.17a1.005 1.005 0 0 0 .971 1.303h1.466c.688 0 1.173-.662.971-1.304l-.99-3.17c-.213-.701-1.204-.701-1.427 0Z" fill="url(#w)"/></g><path d="m15.34 17.134-.992 3.17a1.005 1.005 0 0 0 .971 1.303h1.466c.688 0 1.173-.662.971-1.304l-.99-3.17c-.213-.701-1.204-.701-1.427 0Z" fill="url(#x)"/><path d="m15.34 17.134-.992 3.17a1.005 1.005 0 0 0 .971 1.303h1.466c.688 0 1.173-.662.971-1.304l-.99-3.17c-.213-.701-1.204-.701-1.427 0Z" fill="url(#y)"/><path d="M13.425 22.549a.338.338 0 0 0-.41.072.323.323 0 0 0-.034.408 3.652 3.652 0 0 0 3.071 1.678c1.29 0 2.422-.671 3.071-1.678a.327.327 0 0 0-.034-.412.339.339 0 0 0-.41-.069 5.566 5.566 0 0 1-2.627.638 5.594 5.594 0 0 1-2.627-.637Z" fill="#88014E" stroke="url(#z)" stroke-width=".1"/><g filter="url(#A)"><path d="M18.182 16.746c.494-.87 1.247-1.558 2.866-1.558.709 0 1.392.197 2 .688.501.405.434.923.046 1.117l-1.037.592c-1.215-.393-2.559-.446-3.875-.839Z" fill="#2D2B2E"/></g><g filter="url(#B)"><path d="M13.923 16.746c-.495-.87-1.247-1.558-2.866-1.558-.709 0-1.393.197-2 .688-.501.405-.434.923-.046 1.117l1.037.592c1.215-.393 2.559-.446 3.875-.839Z" fill="#272528"/></g><path d="M20.51 15.298c1.218 0 2.246.84 2.526 1.974a.511.511 0 0 1-.5.635h-4.159a.43.43 0 0 1-.423-.507 2.606 2.606 0 0 1 2.556-2.102Z" fill="#fff"/><path d="M20.124 15.805a1.664 1.664 0 0 1 1.604 2.102h-3.215a1.706 1.706 0 0 1-.06-.439 1.67 1.67 0 0 1 1.671-1.663Z" fill="url(#C)"/><path d="M19.171 17.468c0-.529.424-.953.953-.953.53 0 .953.424.953.953a.94.94 0 0 1-.106.44h-1.686a.862.862 0 0 1-.114-.44Z" fill="#000"/><g filter="url(#D)"><path d="M20.002 16.156c.118.159-.13.352-.411.563-.282.21-.49.359-.61.2-.118-.158.014-.458.296-.668.282-.211.606-.253.725-.095Z" fill="#C7A7A3"/><path d="M20.002 16.156c.118.159-.13.352-.411.563-.282.21-.49.359-.61.2-.118-.158.014-.458.296-.668.282-.211.606-.253.725-.095Z" fill="url(#E)"/></g><g filter="url(#F)"><path d="M21.606 17.25a1.566 1.566 0 0 0-.431-.863l-.485.532.22.425.696-.095Z" fill="url(#G)"/></g><path d="M11.595 15.298c-1.218 0-2.247.84-2.527 1.974a.511.511 0 0 0 .5.635h4.16a.43.43 0 0 0 .423-.507 2.612 2.612 0 0 0-2.556-2.102Z" fill="#fff"/><path d="M11.98 15.805a1.664 1.664 0 0 0-1.603 2.102h3.214c.038-.144.06-.287.06-.439a1.675 1.675 0 0 0-1.67-1.663Z" fill="url(#H)"/><path d="M12.933 17.468a.949.949 0 0 0-.953-.953.949.949 0 0 0-.953.953c0 .16.038.31.106.44h1.687a.945.945 0 0 0 .113-.44Z" fill="#000"/><g filter="url(#I)"><path d="M13.5 17.273c0-.538-.437-.896-.555-1.005l-.538.52.331.674.762-.189Z" fill="url(#J)"/></g><g filter="url(#K)" transform="rotate(-27.914 11.478 16.515)"><ellipse cx="11.478" cy="16.515" rx=".726" ry=".368" fill="#C7A7A3" fill-opacity=".9"/><ellipse cx="11.478" cy="16.515" rx=".726" ry=".368" fill="url(#L)"/></g><g filter="url(#M)"><path d="m17.296 9.163 3.25-3.071c2.938 1.11 3.735 4.062 3.913 5.447l-5.041 1.39a2.227 2.227 0 0 1-2.122-3.766Z" fill="url(#N)"/></g><g filter="url(#O)"><path d="m9.718 14.492-.008.005h-.001a.5.5 0 0 1-.514-.858h.001l.002-.001.006-.004.017-.01a3.226 3.226 0 0 1 .277-.143c.184-.088.446-.2.765-.301.633-.203 1.52-.373 2.476-.204a.5.5 0 0 1-.174.985c-.743-.132-1.457-.002-1.998.171a5.085 5.085 0 0 0-.85.36Z" fill="#1E1E1E"/></g><g filter="url(#P)"><path fill-rule="evenodd" clip-rule="evenodd" d="m23.01 13.64-.258.428.257-.429a.5.5 0 0 1-.513.859l-.01-.006a3.747 3.747 0 0 0-.21-.109 5.089 5.089 0 0 0-.638-.25c-.542-.174-1.255-.303-1.999-.172a.5.5 0 1 1-.174-.985c.957-.169 1.843.001 2.477.204a6.108 6.108 0 0 1 .98.41l.061.034.018.01.005.004h.002l.001.001Z" fill="#1E1E1E"/></g><g filter="url(#Q)"><path d="M19.668 13.384c.602-.147 2.097-.074 3.097.642" stroke="#323233" stroke-width=".4" stroke-linecap="round"/></g><g filter="url(#R)"><path d="M12.6 13.384c-.6-.147-2.096-.074-3.096.642" stroke="#323233" stroke-width=".4" stroke-linecap="round"/></g><defs><radialGradient id="d" cx="0" cy="0" r="1" gradientUnits="userSpaceOnUse" gradientTransform="matrix(3.40625 -3.79687 4.63581 4.15888 24.459 19.626)"><stop offset=".444" stop-color="#E5B1A5"/><stop offset=".944" stop-color="#FFD8C1"/></radialGradient><radialGradient id="e" cx="0" cy="0" r="1" gradientUnits="userSpaceOnUse" gradientTransform="matrix(2.45313 1.375 -.38873 .69354 25.505 14.673)"><stop stop-color="#DBA98B"/><stop offset="1" stop-color="#DBA98B" stop-opacity="0"/></radialGradient><radialGradient id="g" cx="0" cy="0" r="1" gradientUnits="userSpaceOnUse" gradientTransform="matrix(2.81506 -.2094 .1637 2.2006 24.24 18.017)"><stop offset=".719" stop-color="#F4B89E" stop-opacity="0"/><stop offset="1" stop-color="#F5B99D"/></radialGradient><radialGradient id="i" cx="0" cy="0" r="1" gradientUnits="userSpaceOnUse" gradientTransform="matrix(-2.25 0 0 -1.77497 7.474 17.807)"><stop offset=".667" stop-color="#BC8272" stop-opacity="0"/><stop offset="1" stop-color="#BC8272"/></radialGradient><radialGradient id="k" cx="0" cy="0" r="1" gradientUnits="userSpaceOnUse" gradientTransform="matrix(-9.375 5.12501 -6.13482 -11.2222 21.313 15.81)"><stop stop-color="#FFDDC1"/><stop offset="1" stop-color="#DCA896"/></radialGradient><radialGradient id="l" cx="0" cy="0" r="1" gradientUnits="userSpaceOnUse" gradientTransform="matrix(0 -2.60062 2.93086 0 11.595 15.815)"><stop offset=".231" stop-color="#D1968F"/><stop offset="1" stop-color="#D1968F" stop-opacity="0"/></radialGradient><radialGradient id="m" cx="0" cy="0" r="1" gradientUnits="userSpaceOnUse" gradientTransform="matrix(0 -2.60062 3.4675 0 20.636 15.65)"><stop offset=".264" stop-color="#F9BBAA"/><stop offset="1" stop-color="#F9BBAA" stop-opacity="0"/></radialGradient><radialGradient id="n" cx="0" cy="0" r="1" gradientUnits="userSpaceOnUse" gradientTransform="matrix(0 2.03125 -1.93296 0 11.781 17.467)"><stop stop-color="#E9B6A1"/><stop offset="1" stop-color="#D7A285" stop-opacity="0"/><stop offset="1" stop-color="#E9B6A1" stop-opacity="0"/></radialGradient><radialGradient id="o" cx="0" cy="0" r="1" gradientUnits="userSpaceOnUse" gradientTransform="matrix(-4.93756 15.94082 -17.37414 -5.38152 19.188 12.998)"><stop offset=".622" stop-color="#B57994" stop-opacity="0"/><stop offset="1" stop-color="#B57994"/></radialGradient><radialGradient id="p" cx="0" cy="0" r="1" gradientUnits="userSpaceOnUse" gradientTransform="matrix(1.8163 4.08668 -8.49893 3.7773 9.614 5.825)"><stop stop-color="#D3A68D"/><stop offset="1" stop-color="#D3A68D" stop-opacity="0"/></radialGradient><radialGradient id="q" cx="0" cy="0" r="1" gradientUnits="userSpaceOnUse" gradientTransform="matrix(-8.10317 8.3385 -7.75702 -7.5381 24.103 6.669)"><stop stop-color="#FFE5C4"/><stop offset="1" stop-color="#FFE5C4" stop-opacity="0"/></radialGradient><radialGradient id="t" cx="0" cy="0" r="1" gradientUnits="userSpaceOnUse" gradientTransform="matrix(-.84932 -3.81088 1.17448 -.26175 17.515 20.153)"><stop offset=".017" stop-color="#FFDCC5"/><stop offset="1" stop-color="#FFDCC5" stop-opacity="0"/></radialGradient><radialGradient id="w" cx="0" cy="0" r="1" gradientUnits="userSpaceOnUse" gradientTransform="matrix(-1.45312 0 0 -.40625 17.068 20.548)"><stop stop-color="#FFD6C2"/><stop offset="1" stop-color="#FFD6C2" stop-opacity="0"/></radialGradient><radialGradient id="y" cx="0" cy="0" r="1" gradientUnits="userSpaceOnUse" gradientTransform="matrix(-2.5565 1.75513 -2.1094 -3.07252 16.755 19.438)"><stop offset=".778" stop-color="#CC8C8D" stop-opacity="0"/><stop offset="1" stop-color="#CC8C8D"/></radialGradient><radialGradient id="C" cx="0" cy="0" r="1" gradientUnits="userSpaceOnUse" gradientTransform="matrix(0 1.51263 -2.406 0 20.12 16.694)"><stop offset=".802" stop-color="#7D574A"/><stop offset="1" stop-color="#694B43"/><stop offset="1" stop-color="#804D49"/><stop offset="1" stop-color="#664944"/></radialGradient><radialGradient id="E" cx="0" cy="0" r="1" gradientUnits="userSpaceOnUse" gradientTransform="matrix(-.43239 -.5572 .76712 -.5953 19.695 16.85)"><stop offset=".766" stop-color="#FFE6E2" stop-opacity="0"/><stop offset=".966" stop-color="#FFE6E2"/></radialGradient><radialGradient id="H" cx="0" cy="0" r="1" gradientUnits="userSpaceOnUse" gradientTransform="matrix(0 1.51264 -2.40602 0 11.984 16.694)"><stop offset=".802" stop-color="#7D574A"/><stop offset="1" stop-color="#694B43"/><stop offset="1" stop-color="#804D49"/><stop offset="1" stop-color="#664944"/></radialGradient><radialGradient id="L" cx="0" cy="0" r="1" gradientUnits="userSpaceOnUse" gradientTransform="rotate(-90.897 14.143 2.915) scale(.92124 1.10737)"><stop offset=".766" stop-color="#FFE6E2" stop-opacity="0"/><stop offset=".966" stop-color="#FFE6E2"/></radialGradient><filter id="a" x="4.316" y="14.807" width="6.15" height="6" filterUnits="userSpaceOnUse" color-interpolation-filters="sRGB"><feFlood flood-opacity="0" result="BackgroundImageFix"/><feBlend in="SourceGraphic" in2="BackgroundImageFix" result="shape"/><feColorMatrix in="SourceAlpha" values="0 0 0 0 0 0 0 0 0 0 0 0 0 0 0 0 0 0 127 0" result="hardAlpha"/><feOffset dx=".15"/><feGaussianBlur stdDeviation=".25"/><feComposite in2="hardAlpha" operator="arithmetic" k2="-1" k3="1"/><feColorMatrix values="0 0 0 0 0.894118 0 0 0 0 0.682353 0 0 0 0 0.6 0 0 0 1 0"/><feBlend in2="shape" result="effect1_innerShadow_3987_19260"/></filter><filter id="c" x="22.052" y="14.557" width="6" height="6.25" filterUnits="userSpaceOnUse" color-interpolation-filters="sRGB"><feFlood flood-opacity="0" result="BackgroundImageFix"/><feBlend in="SourceGraphic" in2="BackgroundImageFix" result="shape"/><feColorMatrix in="SourceAlpha" values="0 0 0 0 0 0 0 0 0 0 0 0 0 0 0 0 0 0 127 0" result="hardAlpha"/><feOffset dy="-.25"/><feGaussianBlur stdDeviation=".25"/><feComposite in2="hardAlpha" operator="arithmetic" k2="-1" k3="1"/><feColorMatrix values="0 0 0 0 0.784314 0 0 0 0 0.572549 0 0 0 0 0.513726 0 0 0 1 0"/><feBlend in2="shape" result="effect1_innerShadow_3987_19260"/></filter><filter id="f" x="22.55" y="15.305" width="5.005" height="5.005" filterUnits="userSpaceOnUse" color-interpolation-filters="sRGB"><feFlood flood-opacity="0" result="BackgroundImageFix"/><feBlend in="SourceGraphic" in2="BackgroundImageFix" result="shape"/><feGaussianBlur stdDeviation=".25" result="effect1_foregroundBlur_3987_19260"/></filter><filter id="h" x="4.95" y="15.405" width="4.805" height="4.805" filterUnits="userSpaceOnUse" color-interpolation-filters="sRGB"><feFlood flood-opacity="0" result="BackgroundImageFix"/><feBlend in="SourceGraphic" in2="BackgroundImageFix" result="shape"/><feGaussianBlur stdDeviation=".2" result="effect1_foregroundBlur_3987_19260"/></filter><filter id="j" x="6.699" y="4.588" width="19.853" height="24.601" filterUnits="userSpaceOnUse" color-interpolation-filters="sRGB"><feFlood flood-opacity="0" result="BackgroundImageFix"/><feBlend in="SourceGraphic" in2="BackgroundImageFix" result="shape"/><feColorMatrix in="SourceAlpha" values="0 0 0 0 0 0 0 0 0 0 0 0 0 0 0 0 0 0 127 0" result="hardAlpha"/><feOffset dx="1.25" dy=".25"/><feGaussianBlur stdDeviation=".875"/><feComposite in2="hardAlpha" operator="arithmetic" k2="-1" k3="1"/><feColorMatrix values="0 0 0 0 0.913725 0 0 0 0 0.682353 0 0 0 0 0.592157 0 0 0 1 0"/><feBlend in2="shape" result="effect1_innerShadow_3987_19260"/></filter><filter id="r" x="13.423" y="16.583" width="4.5" height="5.719" filterUnits="userSpaceOnUse" color-interpolation-filters="sRGB"><feFlood flood-opacity="0" result="BackgroundImageFix"/><feBlend in="SourceGraphic" in2="BackgroundImageFix" result="shape"/><feGaussianBlur stdDeviation=".25" result="effect1_foregroundBlur_3987_19260"/></filter><filter id="s" x="14.052" y="16.357" width="4" height="5.5" filterUnits="userSpaceOnUse" color-interpolation-filters="sRGB"><feFlood flood-opacity="0" result="BackgroundImageFix"/><feBlend in="SourceGraphic" in2="BackgroundImageFix" result="shape"/><feGaussianBlur stdDeviation=".125" result="effect1_foregroundBlur_3987_19260"/></filter><filter id="A" x="17.982" y="15.188" width="5.423" height="2.397" filterUnits="userSpaceOnUse" color-interpolation-filters="sRGB"><feFlood flood-opacity="0" result="BackgroundImageFix"/><feBlend in="SourceGraphic" in2="BackgroundImageFix" result="shape"/><feColorMatrix in="SourceAlpha" values="0 0 0 0 0 0 0 0 0 0 0 0 0 0 0 0 0 0 127 0" result="hardAlpha"/><feOffset dx="-.2"/><feGaussianBlur stdDeviation=".2"/><feComposite in2="hardAlpha" operator="arithmetic" k2="-1" k3="1"/><feColorMatrix values="0 0 0 0 0.0941176 0 0 0 0 0.0666667 0 0 0 0 0.117647 0 0 0 1 0"/><feBlend in2="shape" result="effect1_innerShadow_3987_19260"/></filter><filter id="B" x="8.7" y="15.188" width="5.423" height="2.397" filterUnits="userSpaceOnUse" color-interpolation-filters="sRGB"><feFlood flood-opacity="0" result="BackgroundImageFix"/><feBlend in="SourceGraphic" in2="BackgroundImageFix" result="shape"/><feColorMatrix in="SourceAlpha" values="0 0 0 0 0 0 0 0 0 0 0 0 0 0 0 0 0 0 127 0" result="hardAlpha"/><feOffset dx=".2"/><feGaussianBlur stdDeviation=".125"/><feComposite in2="hardAlpha" operator="arithmetic" k2="-1" k3="1"/><feColorMatrix values="0 0 0 0 0.0862745 0 0 0 0 0.054902 0 0 0 0 0.113725 0 0 0 1 0"/><feBlend in2="shape" result="effect1_innerShadow_3987_19260"/></filter><filter id="D" x="18.838" y="15.96" width="1.294" height="1.125" filterUnits="userSpaceOnUse" color-interpolation-filters="sRGB"><feFlood flood-opacity="0" result="BackgroundImageFix"/><feBlend in="SourceGraphic" in2="BackgroundImageFix" result="shape"/><feGaussianBlur stdDeviation=".05" result="effect1_foregroundBlur_3987_19260"/></filter><filter id="F" x="20.491" y="16.187" width="1.316" height="1.357" filterUnits="userSpaceOnUse" color-interpolation-filters="sRGB"><feFlood flood-opacity="0" result="BackgroundImageFix"/><feBlend in="SourceGraphic" in2="BackgroundImageFix" result="shape"/><feGaussianBlur stdDeviation=".1" result="effect1_foregroundBlur_3987_19260"/></filter><filter id="I" x="12.207" y="16.069" width="1.493" height="1.594" filterUnits="userSpaceOnUse" color-interpolation-filters="sRGB"><feFlood flood-opacity="0" result="BackgroundImageFix"/><feBlend in="SourceGraphic" in2="BackgroundImageFix" result="shape"/><feGaussianBlur stdDeviation=".1" result="effect1_foregroundBlur_3987_19260"/></filter><filter id="K" x="10.713" y="15.945" width="1.529" height="1.141" filterUnits="userSpaceOnUse" color-interpolation-filters="sRGB"><feFlood flood-opacity="0" result="BackgroundImageFix"/><feBlend in="SourceGraphic" in2="BackgroundImageFix" result="shape"/><feGaussianBlur stdDeviation=".05" result="effect1_foregroundBlur_3987_19260"/></filter><filter id="M" x="14.098" y="3.592" width="12.86" height="11.918" filterUnits="userSpaceOnUse" color-interpolation-filters="sRGB"><feFlood flood-opacity="0" result="BackgroundImageFix"/><feBlend in="SourceGraphic" in2="BackgroundImageFix" result="shape"/><feGaussianBlur stdDeviation="1.25" result="effect1_foregroundBlur_3987_19260"/></filter><filter id="O" x="8.952" y="12.707" width="4.4" height="1.861" filterUnits="userSpaceOnUse" color-interpolation-filters="sRGB"><feFlood flood-opacity="0" result="BackgroundImageFix"/><feBlend in="SourceGraphic" in2="BackgroundImageFix" result="shape"/><feColorMatrix in="SourceAlpha" values="0 0 0 0 0 0 0 0 0 0 0 0 0 0 0 0 0 0 127 0" result="hardAlpha"/><feOffset dx=".2" dy="-.2"/><feGaussianBlur stdDeviation=".15"/><feComposite in2="hardAlpha" operator="arithmetic" k2="-1" k3="1"/><feColorMatrix values="0 0 0 0 0.0431373 0 0 0 0 0.0235294 0 0 0 0 0.0313726 0 0 0 1 0"/><feBlend in2="shape" result="effect1_innerShadow_3987_19260"/></filter><filter id="P" x="19.052" y="12.707" width="4.4" height="1.861" filterUnits="userSpaceOnUse" color-interpolation-filters="sRGB"><feFlood flood-opacity="0" result="BackgroundImageFix"/><feBlend in="SourceGraphic" in2="BackgroundImageFix" result="shape"/><feColorMatrix in="SourceAlpha" values="0 0 0 0 0 0 0 0 0 0 0 0 0 0 0 0 0 0 127 0" result="hardAlpha"/><feOffset dx=".2" dy="-.2"/><feGaussianBlur stdDeviation=".15"/><feComposite in2="hardAlpha" operator="arithmetic" k2="-1" k3="1"/><feColorMatrix values="0 0 0 0 0.0431373 0 0 0 0 0.0235294 0 0 0 0 0.0313726 0 0 0 1 0"/><feBlend in2="shape" result="effect1_innerShadow_3987_19260"/></filter><filter id="Q" x="19.068" y="12.721" width="4.296" height="1.904" filterUnits="userSpaceOnUse" color-interpolation-filters="sRGB"><feFlood flood-opacity="0" result="BackgroundImageFix"/><feBlend in="SourceGraphic" in2="BackgroundImageFix" result="shape"/><feGaussianBlur stdDeviation=".2" result="effect1_foregroundBlur_3987_19260"/></filter><filter id="R" x="8.904" y="12.721" width="4.296" height="1.904" filterUnits="userSpaceOnUse" color-interpolation-filters="sRGB"><feFlood flood-opacity="0" result="BackgroundImageFix"/><feBlend in="SourceGraphic" in2="BackgroundImageFix" result="shape"/><feGaussianBlur stdDeviation=".2" result="effect1_foregroundBlur_3987_19260"/></filter><linearGradient id="b" x1="4.316" y1="17.97" x2="9.834" y2="17.97" gradientUnits="userSpaceOnUse"><stop stop-color="#CC9987"/><stop offset="1" stop-color="#AC7864"/></linearGradient><linearGradient id="u" x1="14.302" y1="20.289" x2="16.052" y2="20.289" gradientUnits="userSpaceOnUse"><stop stop-color="#DFA791"/><stop offset="1" stop-color="#DFA791" stop-opacity="0"/></linearGradient><linearGradient id="v" x1="16.052" y1="21.779" x2="16.052" y2="20.641" gradientUnits="userSpaceOnUse"><stop stop-color="#D29394"/><stop offset="1" stop-color="#D29394" stop-opacity="0"/></linearGradient><linearGradient id="x" x1="16.198" y1="21.73" x2="16.198" y2="21.47" gradientUnits="userSpaceOnUse"><stop stop-color="#CC8C8D"/><stop offset="1" stop-color="#CC8C8D" stop-opacity="0"/></linearGradient><linearGradient id="z" x1="14.693" y1="24.532" x2="15.537" y2="22.907" gradientUnits="userSpaceOnUse"><stop stop-color="#CE9591"/><stop offset="1" stop-color="#CE9591" stop-opacity="0"/></linearGradient><linearGradient id="G" x1="21.571" y1="16.794" x2="20.986" y2="17.155" gradientUnits="userSpaceOnUse"><stop stop-color="#B4948D"/><stop offset="1" stop-color="#B4948D" stop-opacity="0"/></linearGradient><linearGradient id="J" x1="13.371" y1="16.794" x2="12.786" y2="17.155" gradientUnits="userSpaceOnUse"><stop stop-color="#B4948D"/><stop offset="1" stop-color="#B4948D" stop-opacity="0"/></linearGradient><linearGradient id="N" x1="19.591" y1="12.259" x2="25.45" y2="4.945" gradientUnits="userSpaceOnUse"><stop stop-color="#FFE2C8"/><stop offset="1" stop-color="#FFE2C8" stop-opacity="0"/></linearGradient></defs></svg>