<svg width="32" height="32" fill="none" xmlns="http://www.w3.org/2000/svg"><g filter="url(#a)" fill-rule="evenodd" clip-rule="evenodd"><path d="M17.256 6.65c.095-.195.145-.413.145-.64 0-.21-.043-.407-.12-.586h.002a1.427 1.427 0 0 0-.126-.23l-.001-.002a1.454 1.454 0 0 1-.236-.795v-.004c0-.818-.664-1.482-1.482-1.482a.242.242 0 0 1-.204-.104 1.484 1.484 0 0 0-2.408 0 .254.254 0 0 1-.205.104h-.038c-.8.021-1.443.676-1.443 1.482v.004c0 .282-.081.559-.236.795v.002a1.481 1.481 0 0 0-.1 1.457.231.231 0 0 1 0 .204 1.443 1.443 0 0 0 1.3 2.076h3.852a1.443 1.443 0 0 0 1.3-2.076.231.231 0 0 1 0-.204Zm-5.504-1.2h-.006l.538 1.058c.056 1.259.547 0 1.746 0 1.2 0 1.722 1.4 1.778.143l.51-1.436c-.024-.559-.43-.598-.51-.598h-1.446c-.57 0-1.11-.28-1.432-.751a.118.118 0 0 0-.207.023l-.037.087a1.034 1.034 0 0 1-.58.572c-.106.055-.354.22-.364.646l.005.138.005.119Z" fill="url(#b)"/><path d="M17.256 6.65c.095-.195.145-.413.145-.64 0-.21-.043-.407-.12-.586h.002a1.427 1.427 0 0 0-.126-.23l-.001-.002a1.454 1.454 0 0 1-.236-.795v-.004c0-.818-.664-1.482-1.482-1.482a.242.242 0 0 1-.204-.104 1.484 1.484 0 0 0-2.408 0 .254.254 0 0 1-.205.104h-.038c-.8.021-1.443.676-1.443 1.482v.004c0 .282-.081.559-.236.795v.002a1.481 1.481 0 0 0-.1 1.457.231.231 0 0 1 0 .204 1.443 1.443 0 0 0 1.3 2.076h3.852a1.443 1.443 0 0 0 1.3-2.076.231.231 0 0 1 0-.204Zm-5.504-1.2h-.006l.538 1.058c.056 1.259.547 0 1.746 0 1.2 0 1.722 1.4 1.778.143l.51-1.436c-.024-.559-.43-.598-.51-.598h-1.446c-.57 0-1.11-.28-1.432-.751a.118.118 0 0 0-.207.023l-.037.087a1.034 1.034 0 0 1-.58.572c-.106.055-.354.22-.364.646l.005.138.005.119Z" fill="url(#c)"/><path d="M17.256 6.65c.095-.195.145-.413.145-.64 0-.21-.043-.407-.12-.586h.002a1.427 1.427 0 0 0-.126-.23l-.001-.002a1.454 1.454 0 0 1-.236-.795v-.004c0-.818-.664-1.482-1.482-1.482a.242.242 0 0 1-.204-.104 1.484 1.484 0 0 0-2.408 0 .254.254 0 0 1-.205.104h-.038c-.8.021-1.443.676-1.443 1.482v.004c0 .282-.081.559-.236.795v.002a1.481 1.481 0 0 0-.1 1.457.231.231 0 0 1 0 .204 1.443 1.443 0 0 0 1.3 2.076h3.852a1.443 1.443 0 0 0 1.3-2.076.231.231 0 0 1 0-.204Zm-5.504-1.2h-.006l.538 1.058c.056 1.259.547 0 1.746 0 1.2 0 1.722 1.4 1.778.143l.51-1.436c-.024-.559-.43-.598-.51-.598h-1.446c-.57 0-1.11-.28-1.432-.751a.118.118 0 0 0-.207.023l-.037.087a1.034 1.034 0 0 1-.58.572c-.106.055-.354.22-.364.646l.005.138.005.119Z" fill="url(#d)"/><path d="M17.256 6.65c.095-.195.145-.413.145-.64 0-.21-.043-.407-.12-.586h.002a1.427 1.427 0 0 0-.126-.23l-.001-.002a1.454 1.454 0 0 1-.236-.795v-.004c0-.818-.664-1.482-1.482-1.482a.242.242 0 0 1-.204-.104 1.484 1.484 0 0 0-2.408 0 .254.254 0 0 1-.205.104h-.038c-.8.021-1.443.676-1.443 1.482v.004c0 .282-.081.559-.236.795v.002a1.481 1.481 0 0 0-.1 1.457.231.231 0 0 1 0 .204 1.443 1.443 0 0 0 1.3 2.076h3.852a1.443 1.443 0 0 0 1.3-2.076.231.231 0 0 1 0-.204Zm-5.504-1.2h-.006l.538 1.058c.056 1.259.547 0 1.746 0 1.2 0 1.722 1.4 1.778.143l.51-1.436c-.024-.559-.43-.598-.51-.598h-1.446c-.57 0-1.11-.28-1.432-.751a.118.118 0 0 0-.207.023l-.037.087a1.034 1.034 0 0 1-.58.572c-.106.055-.354.22-.364.646l.005.138.005.119Z" fill="url(#e)"/><path d="M17.256 6.65c.095-.195.145-.413.145-.64 0-.21-.043-.407-.12-.586h.002a1.427 1.427 0 0 0-.126-.23l-.001-.002a1.454 1.454 0 0 1-.236-.795v-.004c0-.818-.664-1.482-1.482-1.482a.242.242 0 0 1-.204-.104 1.484 1.484 0 0 0-2.408 0 .254.254 0 0 1-.205.104h-.038c-.8.021-1.443.676-1.443 1.482v.004c0 .282-.081.559-.236.795v.002a1.481 1.481 0 0 0-.1 1.457.231.231 0 0 1 0 .204 1.443 1.443 0 0 0 1.3 2.076h3.852a1.443 1.443 0 0 0 1.3-2.076.231.231 0 0 1 0-.204Zm-5.504-1.2h-.006l.538 1.058c.056 1.259.547 0 1.746 0 1.2 0 1.722 1.4 1.778.143l.51-1.436c-.024-.559-.43-.598-.51-.598h-1.446c-.57 0-1.11-.28-1.432-.751a.118.118 0 0 0-.207.023l-.037.087a1.034 1.034 0 0 1-.58.572c-.106.055-.354.22-.364.646l.005.138.005.119Z" fill="url(#f)"/><path d="M17.256 6.65c.095-.195.145-.413.145-.64 0-.21-.043-.407-.12-.586h.002a1.427 1.427 0 0 0-.126-.23l-.001-.002a1.454 1.454 0 0 1-.236-.795v-.004c0-.818-.664-1.482-1.482-1.482a.242.242 0 0 1-.204-.104 1.484 1.484 0 0 0-2.408 0 .254.254 0 0 1-.205.104h-.038c-.8.021-1.443.676-1.443 1.482v.004c0 .282-.081.559-.236.795v.002a1.481 1.481 0 0 0-.1 1.457.231.231 0 0 1 0 .204 1.443 1.443 0 0 0 1.3 2.076h3.852a1.443 1.443 0 0 0 1.3-2.076.231.231 0 0 1 0-.204Zm-5.504-1.2h-.006l.538 1.058c.056 1.259.547 0 1.746 0 1.2 0 1.722 1.4 1.778.143l.51-1.436c-.024-.559-.43-.598-.51-.598h-1.446c-.57 0-1.11-.28-1.432-.751a.118.118 0 0 0-.207.023l-.037.087a1.034 1.034 0 0 1-.58.572c-.106.055-.354.22-.364.646l.005.138.005.119Z" fill="url(#g)"/><path d="M17.256 6.65c.095-.195.145-.413.145-.64 0-.21-.043-.407-.12-.586h.002a1.427 1.427 0 0 0-.126-.23l-.001-.002a1.454 1.454 0 0 1-.236-.795v-.004c0-.818-.664-1.482-1.482-1.482a.242.242 0 0 1-.204-.104 1.484 1.484 0 0 0-2.408 0 .254.254 0 0 1-.205.104h-.038c-.8.021-1.443.676-1.443 1.482v.004c0 .282-.081.559-.236.795v.002a1.481 1.481 0 0 0-.1 1.457.231.231 0 0 1 0 .204 1.443 1.443 0 0 0 1.3 2.076h3.852a1.443 1.443 0 0 0 1.3-2.076.231.231 0 0 1 0-.204Zm-5.504-1.2h-.006l.538 1.058c.056 1.259.547 0 1.746 0 1.2 0 1.722 1.4 1.778.143l.51-1.436c-.024-.559-.43-.598-.51-.598h-1.446c-.57 0-1.11-.28-1.432-.751a.118.118 0 0 0-.207.023l-.037.087a1.034 1.034 0 0 1-.58.572c-.106.055-.354.22-.364.646l.005.138.005.119Z" fill="url(#h)"/><path d="M17.256 6.65c.095-.195.145-.413.145-.64 0-.21-.043-.407-.12-.586h.002a1.427 1.427 0 0 0-.126-.23l-.001-.002a1.454 1.454 0 0 1-.236-.795v-.004c0-.818-.664-1.482-1.482-1.482a.242.242 0 0 1-.204-.104 1.484 1.484 0 0 0-2.408 0 .254.254 0 0 1-.205.104h-.038c-.8.021-1.443.676-1.443 1.482v.004c0 .282-.081.559-.236.795v.002a1.481 1.481 0 0 0-.1 1.457.231.231 0 0 1 0 .204 1.443 1.443 0 0 0 1.3 2.076h3.852a1.443 1.443 0 0 0 1.3-2.076.231.231 0 0 1 0-.204Zm-5.504-1.2h-.006l.538 1.058c.056 1.259.547 0 1.746 0 1.2 0 1.722 1.4 1.778.143l.51-1.436c-.024-.559-.43-.598-.51-.598h-1.446c-.57 0-1.11-.28-1.432-.751a.118.118 0 0 0-.207.023l-.037.087a1.034 1.034 0 0 1-.58.572c-.106.055-.354.22-.364.646l.005.138.005.119Z" fill="url(#i)"/><path d="M17.256 6.65c.095-.195.145-.413.145-.64 0-.21-.043-.407-.12-.586h.002a1.427 1.427 0 0 0-.126-.23l-.001-.002a1.454 1.454 0 0 1-.236-.795v-.004c0-.818-.664-1.482-1.482-1.482a.242.242 0 0 1-.204-.104 1.484 1.484 0 0 0-2.408 0 .254.254 0 0 1-.205.104h-.038c-.8.021-1.443.676-1.443 1.482v.004c0 .282-.081.559-.236.795v.002a1.481 1.481 0 0 0-.1 1.457.231.231 0 0 1 0 .204 1.443 1.443 0 0 0 1.3 2.076h3.852a1.443 1.443 0 0 0 1.3-2.076.231.231 0 0 1 0-.204Zm-5.504-1.2h-.006l.538 1.058c.056 1.259.547 0 1.746 0 1.2 0 1.722 1.4 1.778.143l.51-1.436c-.024-.559-.43-.598-.51-.598h-1.446c-.57 0-1.11-.28-1.432-.751a.118.118 0 0 0-.207.023l-.037.087a1.034 1.034 0 0 1-.58.572c-.106.055-.354.22-.364.646l.005.138.005.119Z" fill="url(#j)"/><path d="M17.256 6.65c.095-.195.145-.413.145-.64 0-.21-.043-.407-.12-.586h.002a1.427 1.427 0 0 0-.126-.23l-.001-.002a1.454 1.454 0 0 1-.236-.795v-.004c0-.818-.664-1.482-1.482-1.482a.242.242 0 0 1-.204-.104 1.484 1.484 0 0 0-2.408 0 .254.254 0 0 1-.205.104h-.038c-.8.021-1.443.676-1.443 1.482v.004c0 .282-.081.559-.236.795v.002a1.481 1.481 0 0 0-.1 1.457.231.231 0 0 1 0 .204 1.443 1.443 0 0 0 1.3 2.076h3.852a1.443 1.443 0 0 0 1.3-2.076.231.231 0 0 1 0-.204Zm-5.504-1.2h-.006l.538 1.058c.056 1.259.547 0 1.746 0 1.2 0 1.722 1.4 1.778.143l.51-1.436c-.024-.559-.43-.598-.51-.598h-1.446c-.57 0-1.11-.28-1.432-.751a.118.118 0 0 0-.207.023l-.037.087a1.034 1.034 0 0 1-.58.572c-.106.055-.354.22-.364.646l.005.138.005.119Z" fill="url(#k)"/><path d="M17.256 6.65c.095-.195.145-.413.145-.64 0-.21-.043-.407-.12-.586h.002a1.427 1.427 0 0 0-.126-.23l-.001-.002a1.454 1.454 0 0 1-.236-.795v-.004c0-.818-.664-1.482-1.482-1.482a.242.242 0 0 1-.204-.104 1.484 1.484 0 0 0-2.408 0 .254.254 0 0 1-.205.104h-.038c-.8.021-1.443.676-1.443 1.482v.004c0 .282-.081.559-.236.795v.002a1.481 1.481 0 0 0-.1 1.457.231.231 0 0 1 0 .204 1.443 1.443 0 0 0 1.3 2.076h3.852a1.443 1.443 0 0 0 1.3-2.076.231.231 0 0 1 0-.204Zm-5.504-1.2h-.006l.538 1.058c.056 1.259.547 0 1.746 0 1.2 0 1.722 1.4 1.778.143l.51-1.436c-.024-.559-.43-.598-.51-.598h-1.446c-.57 0-1.11-.28-1.432-.751a.118.118 0 0 0-.207.023l-.037.087a1.034 1.034 0 0 1-.58.572c-.106.055-.354.22-.364.646l.005.138.005.119Z" fill="url(#l)"/></g><g filter="url(#m)"><path d="M19.75 29.789H6.017c3.433-1.326 10.769-4.346 12.656-5.818 2.36-1.84 2.938-3.291 4.11-4.976 1.172-1.685 2.062-2.293 3.922-2.036 1.691.235 3.164 1.575 3.289 4.04 0 4.593-2.74 6.555-4.164 7.511-1.907 1.279-4.625 1.326-6.078 1.279Z" fill="#4BC4FD"/><path d="M19.75 29.789H6.017c3.433-1.326 10.769-4.346 12.656-5.818 2.36-1.84 2.938-3.291 4.11-4.976 1.172-1.685 2.062-2.293 3.922-2.036 1.691.235 3.164 1.575 3.289 4.04 0 4.593-2.74 6.555-4.164 7.511-1.907 1.279-4.625 1.326-6.078 1.279Z" fill="url(#n)"/></g><path d="M19.75 29.789H6.017c3.433-1.326 10.769-4.346 12.656-5.818 2.36-1.84 2.938-3.291 4.11-4.976 1.172-1.685 2.062-2.293 3.922-2.036 1.691.235 3.164 1.575 3.289 4.04 0 4.593-2.74 6.555-4.164 7.511-1.907 1.279-4.625 1.326-6.078 1.279Z" fill="url(#o)"/><path d="M19.75 29.789H6.017c3.433-1.326 10.769-4.346 12.656-5.818 2.36-1.84 2.938-3.291 4.11-4.976 1.172-1.685 2.062-2.293 3.922-2.036 1.691.235 3.164 1.575 3.289 4.04 0 4.593-2.74 6.555-4.164 7.511-1.907 1.279-4.625 1.326-6.078 1.279Z" fill="url(#p)"/><path d="M19.75 29.789H6.017c3.433-1.326 10.769-4.346 12.656-5.818 2.36-1.84 2.938-3.291 4.11-4.976 1.172-1.685 2.062-2.293 3.922-2.036 1.691.235 3.164 1.575 3.289 4.04 0 4.593-2.74 6.555-4.164 7.511-1.907 1.279-4.625 1.326-6.078 1.279Z" fill="url(#q)"/><path d="M19.75 29.789H6.017c3.433-1.326 10.769-4.346 12.656-5.818 2.36-1.84 2.938-3.291 4.11-4.976 1.172-1.685 2.062-2.293 3.922-2.036 1.691.235 3.164 1.575 3.289 4.04 0 4.593-2.74 6.555-4.164 7.511-1.907 1.279-4.625 1.326-6.078 1.279Z" fill="url(#r)"/><g filter="url(#s)"><path d="m21.985 27.373-14.375 1.5c4.687-2.24 11.938-4.406 14.375-6.187 1.826-1.334 2.896-1.2 3.281.563.219 1-1.031 3.625-3.281 4.125Z" fill="#1B71CC"/><path d="m21.985 27.373-14.375 1.5c4.687-2.24 11.938-4.406 14.375-6.187 1.826-1.334 2.896-1.2 3.281.563.219 1-1.031 3.625-3.281 4.125Z" fill="url(#t)"/></g><path d="m7.305 27.389 1.172-2.39 1.766.304v1.04l-2.938 1.046Z" fill="#F0B8A0"/><path d="m7.305 27.389 1.172-2.39 1.766.304v1.04l-2.938 1.046Z" fill="url(#u)"/><path d="m7.305 27.389 1.172-2.39 1.766.304v1.04l-2.938 1.046Z" fill="url(#v)"/><path d="M19.837 23.053a28.79 28.79 0 0 1-.907-.867l1.867-.883c.075.131.51.8.72 1.117l-1.68.633Z" fill="url(#w)"/><path d="m23.468 25.368-.42-1.143-2.352.536 2.225 1.1a.396.396 0 0 0 .547-.493Z" fill="url(#x)"/><path d="m23.468 25.368-.42-1.143-2.352.536 2.225 1.1a.396.396 0 0 0 .547-.493Z" fill="url(#y)"/><g filter="url(#z)"><path d="M24.458 21.303 2.29 28.992a.421.421 0 0 0 .138.819h3.948c.487 0 .968-.099 1.156-.156 5.922-2.016 17.406-5.86 18.176-6.2.443-.195.511-.378.605-.627v-.001c.094-.25.047-1.032-.5-1.454-.437-.337-1.105-.184-1.355-.07Z" fill="url(#A)"/><path d="M24.458 21.303 2.29 28.992a.421.421 0 0 0 .138.819h3.948c.487 0 .968-.099 1.156-.156 5.922-2.016 17.406-5.86 18.176-6.2.443-.195.511-.378.605-.627v-.001c.094-.25.047-1.032-.5-1.454-.437-.337-1.105-.184-1.355-.07Z" fill="url(#B)"/></g><g filter="url(#C)"><circle cx="25.864" cy="14.803" r="1.293" fill="url(#D)"/></g><g filter="url(#E)"><circle cx="28.864" cy="12.854" r="1.043" fill="url(#F)"/></g><g filter="url(#G)"><circle cx="26.86" cy="10.768" r=".914" fill="url(#H)"/></g><rect x="20.662" y="12.85" width=".599" height="1.031" rx=".299" transform="rotate(26.595 20.662 12.85)" fill="url(#I)"/><g filter="url(#J)"><path d="M20.68 13.89c.256-.588.373-1.22.399-1.462l2.047.024c.046.268-.04.583-.079.703.088.322.037.687 0 .829-.054.225-.178.713-.238.86-.074.183-.183.246-.348.23a.427.427 0 0 1-.148-.043.312.312 0 0 0-.23-.019.431.431 0 0 1-.227.02.432.432 0 0 1-.204-.113.22.22 0 0 0-.195-.06.52.52 0 0 1-.226.004.361.361 0 0 1-.172-.115.215.215 0 0 0-.175-.07c-.085.007-.183.002-.235-.042-.098-.082-.219-.175.031-.746Z" fill="url(#K)"/></g><path d="M7.602 12.817h.594c-.106.669.012 1.608.114 1.996-1.006.131-1.637-.108-1.856-.246l-.11-1.461c.332-.256.977-.3 1.258-.29Z" fill="#F0BCA4"/><path d="M7.602 12.817h.594c-.106.669.012 1.608.114 1.996-1.006.131-1.637-.108-1.856-.246l-.11-1.461c.332-.256.977-.3 1.258-.29Z" fill="url(#L)"/><g filter="url(#M)"><path d="M10.684 11.737c-.967.714-2.204 1.017-2.723 1.058-.13 1 .107 1.771.243 2.031.3-.027 1.148-.109 2.5-.718 1.679-.757 2.458-1.804 2.64-2.246l-.28-3.387c-.376 1.031-1.005 2.246-2.38 3.262Z" fill="#7A5CB9"/><path d="M10.684 11.737c-.967.714-2.204 1.017-2.723 1.058-.13 1 .107 1.771.243 2.031.3-.027 1.148-.109 2.5-.718 1.679-.757 2.458-1.804 2.64-2.246l-.28-3.387c-.376 1.031-1.005 2.246-2.38 3.262Z" fill="url(#N)"/><path d="M10.684 11.737c-.967.714-2.204 1.017-2.723 1.058-.13 1 .107 1.771.243 2.031.3-.027 1.148-.109 2.5-.718 1.679-.757 2.458-1.804 2.64-2.246l-.28-3.387c-.376 1.031-1.005 2.246-2.38 3.262Z" fill="url(#O)"/></g><g filter="url(#P)"><path d="M12.758 11.694c-.43-1.716.17-3.162.508-3.485l2.344-.562h1.742c1.524 0 2.822.189 4.203 1.258 1.354 1.047 1.622 2.799 1.589 3.592a.049.049 0 0 1-.051.046l-1.989-.074a.052.052 0 0 1-.049-.058c.038-.371-.066-1.273-1-2.014-.606-.481-1.519-.532-2.146-.494a.373.373 0 0 0-.323.498c.316.955.84 2.513 1.212 3.52.546 1.484-.11 2.952.375 4.484.377 1.191 1.203 2.418 1.636 2.92a.04.04 0 0 1-.013.063l-1.834.852a.04.04 0 0 1-.048-.01c-1.848-2.158-2.5-3.826-2.562-3.99-.062-.163-.23-.53-.574-.53-.275 0-.59.35-.809.73l-4.667 7.137a.05.05 0 0 1-.056.02l-1.783-.52a.049.049 0 0 1-.032-.068c1.499-3.163 4.542-9.51 4.773-10.058.21-.5.181-.916.14-1.085-.03-.13-.218-.711-.585-2.172Z" fill="url(#Q)"/><path d="M12.758 11.694c-.43-1.716.17-3.162.508-3.485l2.344-.562h1.742c1.524 0 2.822.189 4.203 1.258 1.354 1.047 1.622 2.799 1.589 3.592a.049.049 0 0 1-.051.046l-1.989-.074a.052.052 0 0 1-.049-.058c.038-.371-.066-1.273-1-2.014-.606-.481-1.519-.532-2.146-.494a.373.373 0 0 0-.323.498c.316.955.84 2.513 1.212 3.52.546 1.484-.11 2.952.375 4.484.377 1.191 1.203 2.418 1.636 2.92a.04.04 0 0 1-.013.063l-1.834.852a.04.04 0 0 1-.048-.01c-1.848-2.158-2.5-3.826-2.562-3.99-.062-.163-.23-.53-.574-.53-.275 0-.59.35-.809.73l-4.667 7.137a.05.05 0 0 1-.056.02l-1.783-.52a.049.049 0 0 1-.032-.068c1.499-3.163 4.542-9.51 4.773-10.058.21-.5.181-.916.14-1.085-.03-.13-.218-.711-.585-2.172Z" fill="url(#R)"/><path d="M12.758 11.694c-.43-1.716.17-3.162.508-3.485l2.344-.562h1.742c1.524 0 2.822.189 4.203 1.258 1.354 1.047 1.622 2.799 1.589 3.592a.049.049 0 0 1-.051.046l-1.989-.074a.052.052 0 0 1-.049-.058c.038-.371-.066-1.273-1-2.014-.606-.481-1.519-.532-2.146-.494a.373.373 0 0 0-.323.498c.316.955.84 2.513 1.212 3.52.546 1.484-.11 2.952.375 4.484.377 1.191 1.203 2.418 1.636 2.92a.04.04 0 0 1-.013.063l-1.834.852a.04.04 0 0 1-.048-.01c-1.848-2.158-2.5-3.826-2.562-3.99-.062-.163-.23-.53-.574-.53-.275 0-.59.35-.809.73l-4.667 7.137a.05.05 0 0 1-.056.02l-1.783-.52a.049.049 0 0 1-.032-.068c1.499-3.163 4.542-9.51 4.773-10.058.21-.5.181-.916.14-1.085-.03-.13-.218-.711-.585-2.172Z" fill="url(#S)"/></g><path d="M12.758 11.694c-.43-1.716.17-3.162.508-3.485l2.344-.562h1.742c1.524 0 2.822.189 4.203 1.258 1.354 1.047 1.622 2.799 1.589 3.592a.049.049 0 0 1-.051.046l-1.989-.074a.052.052 0 0 1-.049-.058c.038-.371-.066-1.273-1-2.014-.606-.481-1.519-.532-2.146-.494a.373.373 0 0 0-.323.498c.316.955.84 2.513 1.212 3.52.546 1.484-.11 2.952.375 4.484.377 1.191 1.203 2.418 1.636 2.92a.04.04 0 0 1-.013.063l-1.834.852a.04.04 0 0 1-.048-.01c-1.848-2.158-2.5-3.826-2.562-3.99-.062-.163-.23-.53-.574-.53-.275 0-.59.35-.809.73l-4.667 7.137a.05.05 0 0 1-.056.02l-1.783-.52a.049.049 0 0 1-.032-.068c1.499-3.163 4.542-9.51 4.773-10.058.21-.5.181-.916.14-1.085-.03-.13-.218-.711-.585-2.172Z" fill="url(#T)"/><path d="M17.568 10.318a.369.369 0 0 1 .34-.415c.628-.038 1.541.013 2.147.494.934.74 1.038 1.643 1 2.014-.003.03.02.057.05.058l1.987.075c.028 0 .05-.02.052-.047.033-.793-.235-2.545-1.589-3.592-1.381-1.07-2.68-1.258-4.203-1.258h-.39c-.157 1.285.25 2.193.606 2.671Z" fill="url(#U)"/><path d="M17.568 10.318a.369.369 0 0 1 .34-.415c.628-.038 1.541.013 2.147.494.934.74 1.038 1.643 1 2.014-.003.03.02.057.05.058l1.987.075c.028 0 .05-.02.052-.047.033-.793-.235-2.545-1.589-3.592-1.381-1.07-2.68-1.258-4.203-1.258h-.39c-.157 1.285.25 2.193.606 2.671Z" fill="url(#V)"/><path fill-rule="evenodd" clip-rule="evenodd" d="M7.127 13.585c-.941-.284-1.295.01-1.388.119a.375.375 0 0 1-.57-.488c.328-.383 1.014-.699 2.174-.35a.375.375 0 0 1-.216.719Z" fill="#F3BEA7"/><path fill-rule="evenodd" clip-rule="evenodd" d="M7.127 13.585c-.941-.284-1.295.01-1.388.119a.375.375 0 0 1-.57-.488c.328-.383 1.014-.699 2.174-.35a.375.375 0 0 1-.216.719Z" fill="url(#W)"/><path fill-rule="evenodd" clip-rule="evenodd" d="M5.404 14.18v.001s.02-.028.083-.08a2.09 2.09 0 0 1 1.279-.412.375.375 0 1 0 .024-.749 2.839 2.839 0 0 0-1.323.295c-.176.087-.33.185-.452.284-.11.089-.234.211-.296.355a.375.375 0 0 0 .685.306Z" fill="#F3BEA7"/><path fill-rule="evenodd" clip-rule="evenodd" d="M5.404 14.18v.001s.02-.028.083-.08a2.09 2.09 0 0 1 1.279-.412.375.375 0 1 0 .024-.749 2.839 2.839 0 0 0-1.323.295c-.176.087-.33.185-.452.284-.11.089-.234.211-.296.355a.375.375 0 0 0 .685.306Z" fill="url(#X)"/><path fill-rule="evenodd" clip-rule="evenodd" d="M5.25 14.708a.375.375 0 1 1-.691-.295 1.16 1.16 0 0 1 .27-.354c.115-.11.264-.224.437-.328a2.476 2.476 0 0 1 1.336-.37.375.375 0 1 1-.023.75 1.729 1.729 0 0 0-.927.263 1.794 1.794 0 0 0-.307.23c-.06.056-.087.093-.095.104Z" fill="#F3BEA7"/><path fill-rule="evenodd" clip-rule="evenodd" d="M5.25 14.708a.375.375 0 1 1-.691-.295 1.16 1.16 0 0 1 .27-.354c.115-.11.264-.224.437-.328a2.476 2.476 0 0 1 1.336-.37.375.375 0 1 1-.023.75 1.729 1.729 0 0 0-.927.263 1.794 1.794 0 0 0-.307.23c-.06.056-.087.093-.095.104Z" fill="url(#Y)"/><path fill-rule="evenodd" clip-rule="evenodd" d="M5.611 14.986a.375.375 0 0 1-.69-.296c.093-.216.328-.445.6-.604a1.759 1.759 0 0 1 1.119-.237.375.375 0 1 1-.099.744 1.01 1.01 0 0 0-.641.14 1.08 1.08 0 0 0-.215.164.473.473 0 0 0-.074.089Z" fill="#F3BEA7"/><path fill-rule="evenodd" clip-rule="evenodd" d="M5.611 14.986a.375.375 0 0 1-.69-.296c.093-.216.328-.445.6-.604a1.759 1.759 0 0 1 1.119-.237.375.375 0 1 1-.099.744 1.01 1.01 0 0 0-.641.14 1.08 1.08 0 0 0-.215.164.473.473 0 0 0-.074.089Z" fill="url(#Z)"/><path d="M6.126 14.928c.125-.137.398-.46.52-.605.23 0 .91-.067 1.198-.098-.39.715-.84 1.004-1.074 1.195-.316.211-.605 0-.644-.066-.047-.047-.157-.254 0-.426Z" fill="#F0BCA4"/><path d="M6.126 14.928c.125-.137.398-.46.52-.605.23 0 .91-.067 1.198-.098-.39.715-.84 1.004-1.074 1.195-.316.211-.605 0-.644-.066-.047-.047-.157-.254 0-.426Z" fill="url(#aa)"/><g filter="url(#ab)"><path d="M26.485 24.373c.981-2.278.626-3.886.055-5.013-.474-.936-.003-1.662 1.018-1.42.737.173 1.364.693 1.54 1.43.721 3.025-.313 6.182-3.582 7.816-2.95 1.475-7.854 1.594-9.937 1.469 3 0 9.804-1.723 10.906-4.282Z" fill="url(#ac)"/></g><g filter="url(#ad)"><path d="M16.782 13.49c-.65-1.28-1.166-3.184-1.443-4.422a.714.714 0 0 1 .588-.856c.447-.075.855.271.91.722.205 1.698.95 3.373 1.445 4.682.578 1.531.312 1.062.234 3.515-.057 1.782 1.266 3.25 1.813 4.11l-.407.21c-.609-.827-2.203-2.945-2.203-4.85 0-1.792.063-1.141-.937-3.11Z" fill="url(#ae)"/></g><g filter="url(#af)"><path d="M18.594 8.327c1.209-.021 3.782.828 4.104 4" stroke="url(#ag)" stroke-width=".4"/></g><g filter="url(#ah)"><path d="M11.926 6.74a.722.722 0 1 0 0-1.445.722.722 0 0 0 0 1.445Z" fill="url(#ai)"/></g><g filter="url(#aj)"><path d="M16.197 6.74a.722.722 0 1 0 0-1.445.722.722 0 0 0 0 1.445Z" fill="url(#ak)"/><path d="M16.197 6.74a.722.722 0 1 0 0-1.445.722.722 0 0 0 0 1.445Z" fill="url(#al)"/></g><g filter="url(#am)"><path d="M16.197 6.5a.482.482 0 1 0 0-.964.482.482 0 0 0 0 .964Z" fill="#F6BCA5"/><path d="M16.197 6.5a.482.482 0 1 0 0-.964.482.482 0 0 0 0 .964Z" fill="url(#an)"/></g><g filter="url(#ao)"><path d="M11.935 6.5a.482.482 0 1 0 0-.965.482.482 0 0 0 0 .965Z" fill="#C58C80"/><path d="M11.935 6.5a.482.482 0 1 0 0-.965.482.482 0 0 0 0 .965Z" fill="url(#ap)"/></g><g filter="url(#aq)"><path d="M11.746 5.45h.005l-.004-.118-.005-.138c.01-.426.258-.59.364-.646a.313.313 0 0 0 .023-.009l.023-.009c.24-.11.433-.302.534-.554l.037-.087a.118.118 0 0 1 .207-.023c.322.472.861.751 1.432.751h1.446c.08 0 .485.04.51.598l-.054 1.38c-.055 1.258-1.038 2.103-2.237 2.103-1.2 0-2.182-.845-2.237-2.103l-.044-1.144Z" fill="url(#ar)"/><path d="M11.746 5.45h.005l-.004-.118-.005-.138c.01-.426.258-.59.364-.646a.313.313 0 0 0 .023-.009l.023-.009c.24-.11.433-.302.534-.554l.037-.087a.118.118 0 0 1 .207-.023c.322.472.861.751 1.432.751h1.446c.08 0 .485.04.51.598l-.054 1.38c-.055 1.258-1.038 2.103-2.237 2.103-1.2 0-2.182-.845-2.237-2.103l-.044-1.144Z" fill="url(#as)"/><path d="M11.746 5.45h.005l-.004-.118-.005-.138c.01-.426.258-.59.364-.646a.313.313 0 0 0 .023-.009l.023-.009c.24-.11.433-.302.534-.554l.037-.087a.118.118 0 0 1 .207-.023c.322.472.861.751 1.432.751h1.446c.08 0 .485.04.51.598l-.054 1.38c-.055 1.258-1.038 2.103-2.237 2.103-1.2 0-2.182-.845-2.237-2.103l-.044-1.144Z" fill="url(#at)"/><path d="M11.746 5.45h.005l-.004-.118-.005-.138c.01-.426.258-.59.364-.646a.313.313 0 0 0 .023-.009l.023-.009c.24-.11.433-.302.534-.554l.037-.087a.118.118 0 0 1 .207-.023c.322.472.861.751 1.432.751h1.446c.08 0 .485.04.51.598l-.054 1.38c-.055 1.258-1.038 2.103-2.237 2.103-1.2 0-2.182-.845-2.237-2.103l-.044-1.144Z" fill="url(#au)"/><path d="M11.746 5.45h.005l-.004-.118-.005-.138c.01-.426.258-.59.364-.646a.313.313 0 0 0 .023-.009l.023-.009c.24-.11.433-.302.534-.554l.037-.087a.118.118 0 0 1 .207-.023c.322.472.861.751 1.432.751h1.446c.08 0 .485.04.51.598l-.054 1.38c-.055 1.258-1.038 2.103-2.237 2.103-1.2 0-2.182-.845-2.237-2.103l-.044-1.144Z" fill="url(#av)"/><path d="M11.746 5.45h.005l-.004-.118-.005-.138c.01-.426.258-.59.364-.646a.313.313 0 0 0 .023-.009l.023-.009c.24-.11.433-.302.534-.554l.037-.087a.118.118 0 0 1 .207-.023c.322.472.861.751 1.432.751h1.446c.08 0 .485.04.51.598l-.054 1.38c-.055 1.258-1.038 2.103-2.237 2.103-1.2 0-2.182-.845-2.237-2.103l-.044-1.144Z" fill="url(#aw)"/><path d="M11.746 5.45h.005l-.004-.118-.005-.138c.01-.426.258-.59.364-.646a.313.313 0 0 0 .023-.009l.023-.009c.24-.11.433-.302.534-.554l.037-.087a.118.118 0 0 1 .207-.023c.322.472.861.751 1.432.751h1.446c.08 0 .485.04.51.598l-.054 1.38c-.055 1.258-1.038 2.103-2.237 2.103-1.2 0-2.182-.845-2.237-2.103l-.044-1.144Z" fill="url(#ax)"/></g><path d="M11.746 5.45h.005l-.004-.118-.005-.138c.01-.426.258-.59.364-.646a.313.313 0 0 0 .023-.009l.023-.009c.24-.11.433-.302.534-.554l.037-.087a.118.118 0 0 1 .207-.023c.322.472.861.751 1.432.751h1.446c.08 0 .485.04.51.598l-.054 1.38c-.055 1.258-1.038 2.103-2.237 2.103-1.2 0-2.182-.845-2.237-2.103l-.044-1.144Z" fill="url(#ay)"/><path d="M11.746 5.45h.005l-.004-.118-.005-.138c.01-.426.258-.59.364-.646a.313.313 0 0 0 .023-.009l.023-.009c.24-.11.433-.302.534-.554l.037-.087a.118.118 0 0 1 .207-.023c.322.472.861.751 1.432.751h1.446c.08 0 .485.04.51.598l-.054 1.38c-.055 1.258-1.038 2.103-2.237 2.103-1.2 0-2.182-.845-2.237-2.103l-.044-1.144Z" fill="url(#az)"/><g filter="url(#aA)"><path d="m13.854 5.918-.307.763a.242.242 0 0 0 .234.314h.353c.165 0 .282-.16.233-.314l-.238-.763c-.051-.17-.222-.17-.275 0Z" fill="#D19590"/></g><g filter="url(#aB)"><path d="m13.858 5.856-.238.763a.242.242 0 0 0 .233.314h.353c.166 0 .283-.16.234-.314l-.238-.763c-.052-.17-.29-.17-.344 0Z" fill="#F1C4B2"/><path d="m13.858 5.856-.238.763a.242.242 0 0 0 .233.314h.353c.166 0 .283-.16.234-.314l-.238-.763c-.052-.17-.29-.17-.344 0Z" fill="url(#aC)"/><path d="m13.858 5.856-.238.763a.242.242 0 0 0 .233.314h.353c.166 0 .283-.16.234-.314l-.238-.763c-.052-.17-.29-.17-.344 0Z" fill="url(#aD)"/><path d="m13.858 5.856-.238.763a.242.242 0 0 0 .233.314h.353c.166 0 .283-.16.234-.314l-.238-.763c-.052-.17-.29-.17-.344 0Z" fill="url(#aE)"/><path d="m13.858 5.856-.238.763a.242.242 0 0 0 .233.314h.353c.166 0 .283-.16.234-.314l-.238-.763c-.052-.17-.29-.17-.344 0Z" fill="url(#aF)"/></g><g filter="url(#aG)"><path d="M14.03 7.325a1.36 1.36 0 0 1-.638-.155c-.064-.033-.131.04-.092.099a.867.867 0 0 0 1.46 0c.039-.061-.029-.132-.092-.099a1.352 1.352 0 0 1-.638.155Z" stroke="url(#aH)" stroke-width=".2"/></g><path d="M14.03 7.325a1.36 1.36 0 0 1-.638-.155c-.064-.033-.131.04-.092.099a.867.867 0 0 0 1.46 0c.039-.061-.029-.132-.092-.099a1.352 1.352 0 0 1-.638.155Z" fill="#88024E"/><g filter="url(#aI)"><path d="M14.543 5.762c.12-.21.3-.375.69-.375.17 0 .335.048.482.166.12.097.104.222.01.269l-.249.142c-.292-.094-.616-.107-.933-.202Z" fill="#2D2B2E"/></g><g filter="url(#aJ)"><path d="M13.517 5.762c-.12-.21-.3-.375-.69-.375a.744.744 0 0 0-.482.166c-.12.097-.104.222-.01.269l.249.142c.293-.094.616-.107.933-.202Z" fill="#272528"/></g><g filter="url(#aK)"><path d="M12.505 5.22h-.002a.12.12 0 0 1-.124-.206l.002-.001.004-.003.015-.008.052-.026a1.47 1.47 0 0 1 .184-.073 1.26 1.26 0 0 1 .596-.049.12.12 0 0 1-.041.237 1.02 1.02 0 0 0-.482.042 1.232 1.232 0 0 0-.194.081l-.01.005Z" fill="#1E1E1E"/></g><g filter="url(#aL)"><path fill-rule="evenodd" clip-rule="evenodd" d="m15.705 5.014-.062.103.062-.103a.12.12 0 0 1-.123.207l-.003-.002a.634.634 0 0 0-.05-.026 1.228 1.228 0 0 0-.154-.06 1.019 1.019 0 0 0-.481-.042.12.12 0 1 1-.042-.237c.23-.04.444 0 .596.05a1.473 1.473 0 0 1 .25.106l.005.003h.002v.001Z" fill="#1E1E1E"/></g><path d="M15.103 5.413c.293 0 .541.203.608.476a.123.123 0 0 1-.12.153H14.59a.103.103 0 0 1-.102-.122.627.627 0 0 1 .615-.507Z" fill="#fff"/><path d="M15.01 5.536a.4.4 0 0 1 .385.505h-.772a.401.401 0 0 1 .387-.505Z" fill="url(#aM)"/><path d="M14.78 5.936c0-.128.103-.23.23-.23a.228.228 0 0 1 .203.335h-.405a.208.208 0 0 1-.027-.105Z" fill="#000"/><g filter="url(#aN)"><path d="M14.98 5.62c.03.038-.03.085-.098.136-.068.05-.118.086-.147.048-.028-.038.004-.11.071-.161.068-.05.146-.06.175-.023Z" fill="#C7A7A3"/><path d="M14.98 5.62c.03.038-.03.085-.098.136-.068.05-.118.086-.147.048-.028-.038.004-.11.071-.161.068-.05.146-.06.175-.023Z" fill="url(#aO)"/></g><g filter="url(#aP)"><path d="M15.367 5.883a.377.377 0 0 0-.104-.207l-.116.127.052.103.168-.023Z" fill="url(#aQ)"/></g><path d="M12.957 5.413a.627.627 0 0 0-.609.476c-.02.078.04.153.12.153h1.002a.103.103 0 0 0 .102-.122.629.629 0 0 0-.615-.507Z" fill="#fff"/><path d="M13.049 5.536a.4.4 0 0 0-.386.505h.773a.402.402 0 0 0-.387-.505Z" fill="url(#aR)"/><path d="M13.278 5.936a.228.228 0 0 0-.23-.23.228.228 0 0 0-.203.335h.406a.228.228 0 0 0 .027-.105Z" fill="#000"/><g filter="url(#aS)"><path d="M13.415 5.888c0-.129-.105-.215-.133-.24l-.13.124.08.162.183-.046Z" fill="url(#aT)"/></g><g filter="url(#aU)" transform="rotate(-27.914 12.928 5.707)"><ellipse cx="12.928" cy="5.707" rx=".175" ry=".088" fill="#C7A7A3" fill-opacity=".9"/><ellipse cx="12.928" cy="5.707" rx=".175" ry=".088" fill="url(#aV)"/></g><g filter="url(#aW)"><path d="M13.76 2.52c-.51-.112-.966.395-1.019.583.473 1.592 1.667 1.505 2.847 1.374.706-.079.782.243.842.398 0-1.765-1.5-2.097-2.658-2.352l-.013-.003Z" fill="#2A2A2A"/><path d="M13.76 2.52c-.51-.112-.966.395-1.019.583.473 1.592 1.667 1.505 2.847 1.374.706-.079.782.243.842.398 0-1.765-1.5-2.097-2.658-2.352l-.013-.003Z" fill="url(#aX)"/><path d="M13.76 2.52c-.51-.112-.966.395-1.019.583.473 1.592 1.667 1.505 2.847 1.374.706-.079.782.243.842.398 0-1.765-1.5-2.097-2.658-2.352l-.013-.003Z" fill="url(#aY)"/></g><g filter="url(#aZ)"><path d="m15.11 4.14-.64.118a.309.309 0 1 1-.056-.612h1.051c.622 0 .828.626.853.84a1.413 1.413 0 0 0-1.208-.345Z" fill="#4B4648"/></g><defs><radialGradient id="c" cx="0" cy="0" r="1" gradientUnits="userSpaceOnUse" gradientTransform="matrix(-.2709 2.04681 -2.55688 -.3384 13.895 7.14)"><stop offset=".591" stop-color="#171418"/><stop offset="1" stop-color="#171418" stop-opacity="0"/></radialGradient><radialGradient id="d" cx="0" cy="0" r="1" gradientUnits="userSpaceOnUse" gradientTransform="matrix(-1.29434 .87291 -1.14694 -1.70066 12.63 7.26)"><stop offset=".258" stop-color="#181518"/><stop offset="1" stop-color="#181518" stop-opacity="0"/></radialGradient><radialGradient id="e" cx="0" cy="0" r="1" gradientUnits="userSpaceOnUse" gradientTransform="matrix(-.58695 .76756 -.58938 -.4507 11.855 6.117)"><stop offset=".334" stop-color="#040101"/><stop offset="1" stop-color="#040101" stop-opacity="0"/></radialGradient><radialGradient id="f" cx="0" cy="0" r="1" gradientUnits="userSpaceOnUse" gradientTransform="rotate(121.43 4.57 5.985) scale(1.11119 .78273)"><stop offset=".321" stop-color="#040002"/><stop offset="1" stop-color="#040002" stop-opacity="0"/></radialGradient><radialGradient id="g" cx="0" cy="0" r="1" gradientUnits="userSpaceOnUse" gradientTransform="matrix(.61705 1.1739 -1.62956 .85657 12.45 2.4)"><stop stop-color="#474445"/><stop offset="1" stop-color="#474445" stop-opacity="0"/></radialGradient><radialGradient id="h" cx="0" cy="0" r="1" gradientUnits="userSpaceOnUse" gradientTransform="matrix(-.64711 .64716 -.9044 -.90433 16.649 3.333)"><stop stop-color="#4A4446"/><stop offset="1" stop-color="#4A4446" stop-opacity="0"/></radialGradient><radialGradient id="i" cx="0" cy="0" r="1" gradientUnits="userSpaceOnUse" gradientTransform="matrix(-.82772 .2408 -.50218 -1.72614 17.401 5.635)"><stop stop-color="#3B3638"/><stop offset="1" stop-color="#3B3638" stop-opacity="0"/></radialGradient><radialGradient id="j" cx="0" cy="0" r="1" gradientUnits="userSpaceOnUse" gradientTransform="matrix(-1.26417 .31606 -.40261 -1.61036 17.13 7.17)"><stop stop-color="#464444"/><stop offset="1" stop-color="#464444" stop-opacity="0"/></radialGradient><radialGradient id="k" cx="0" cy="0" r="1" gradientUnits="userSpaceOnUse" gradientTransform="rotate(-108.843 9.702 -3.507) scale(1.25722 .99439)"><stop stop-color="#575455"/><stop offset="1" stop-color="#575455" stop-opacity="0"/></radialGradient><radialGradient id="l" cx="0" cy="0" r="1" gradientUnits="userSpaceOnUse" gradientTransform="rotate(5.987 -48.084 110.569) scale(.67889 1.1)"><stop stop-color="#413733"/><stop offset="1" stop-color="#413733" stop-opacity="0"/></radialGradient><radialGradient id="o" cx="0" cy="0" r="1" gradientUnits="userSpaceOnUse" gradientTransform="rotate(63.803 -7.027 27.761) scale(8.70687 12.5694)"><stop offset=".7" stop-color="#3EB9FF" stop-opacity="0"/><stop offset=".913" stop-color="#7196FF"/></radialGradient><radialGradient id="q" cx="0" cy="0" r="1" gradientUnits="userSpaceOnUse" gradientTransform="matrix(3.5625 -6.125 3.8162 2.21963 22.204 21.967)"><stop stop-color="#4DB5E2"/><stop offset="1" stop-color="#4DB5E2" stop-opacity="0"/></radialGradient><radialGradient id="r" cx="0" cy="0" r="1" gradientUnits="userSpaceOnUse" gradientTransform="matrix(2.15625 -12.12496 23.16436 4.11944 23.61 28.811)"><stop offset=".931" stop-color="#66B4DD" stop-opacity="0"/><stop offset="1" stop-color="#66B4DD"/></radialGradient><radialGradient id="t" cx="0" cy="0" r="1" gradientUnits="userSpaceOnUse" gradientTransform="rotate(71.993 -9.293 23.753) scale(3.54882 17.4764)"><stop offset=".716" stop-color="#37A9FF" stop-opacity="0"/><stop offset="1" stop-color="#37A9FF"/></radialGradient><radialGradient id="u" cx="0" cy="0" r="1" gradientUnits="userSpaceOnUse" gradientTransform="matrix(-.83721 2.51163 -.64638 -.21546 9.761 25.181)"><stop offset=".261" stop-color="#F4BAA6"/><stop offset="1" stop-color="#F4BAA6" stop-opacity="0"/></radialGradient><radialGradient id="y" cx="0" cy="0" r="1" gradientUnits="userSpaceOnUse" gradientTransform="matrix(-.73437 -1.28906 .42946 -.24466 23.579 25.514)"><stop stop-color="#B77DC7"/><stop offset="1" stop-color="#B77DC7" stop-opacity="0"/></radialGradient><radialGradient id="B" cx="0" cy="0" r="1" gradientUnits="userSpaceOnUse" gradientTransform="rotate(-110.045 20.756 2.839) scale(2.46162 1.62421)"><stop stop-color="#9EAEF5"/><stop offset="1" stop-color="#9EAEF5" stop-opacity="0"/></radialGradient><radialGradient id="D" cx="0" cy="0" r="1" gradientUnits="userSpaceOnUse" gradientTransform="rotate(146.686 11.209 11.158) scale(2.36974 1.91739)"><stop offset=".171" stop-color="#64DDFF"/><stop offset="1" stop-color="#36B0FC"/></radialGradient><radialGradient id="F" cx="0" cy="0" r="1" gradientUnits="userSpaceOnUse" gradientTransform="matrix(-1.47607 .92253 -.74644 -1.19432 29.42 12.597)"><stop stop-color="#65E0FF"/><stop offset="1" stop-color="#36B0FC"/></radialGradient><radialGradient id="H" cx="0" cy="0" r="1" gradientUnits="userSpaceOnUse" gradientTransform="rotate(147.995 12.162 9.193) scale(1.52552 1.23432)"><stop stop-color="#65E0FF"/><stop offset="1" stop-color="#36B0FC"/></radialGradient><radialGradient id="I" cx="0" cy="0" r="1" gradientUnits="userSpaceOnUse" gradientTransform="matrix(-.06342 .73199 -.55995 -.04852 21.024 13.149)"><stop offset=".317" stop-color="#E19B84"/><stop offset="1" stop-color="#DD937E"/></radialGradient><radialGradient id="K" cx="0" cy="0" r="1" gradientUnits="userSpaceOnUse" gradientTransform="rotate(139.295 9.191 10.945) scale(2.80315 2.75944)"><stop stop-color="#FACCBD"/><stop offset="1" stop-color="#E2A89D"/></radialGradient><radialGradient id="L" cx="0" cy="0" r="1" gradientUnits="userSpaceOnUse" gradientTransform="rotate(-91.061 11.332 3.678) scale(.84389 1.95743)"><stop stop-color="#DA9893"/><stop offset="1" stop-color="#DA9893" stop-opacity="0"/></radialGradient><radialGradient id="N" cx="0" cy="0" r="1" gradientUnits="userSpaceOnUse" gradientTransform="rotate(142.524 4.92 6.738) scale(4.72526 1.21438)"><stop offset=".263" stop-color="#8069A8"/><stop offset="1" stop-color="#8069A8" stop-opacity="0"/></radialGradient><radialGradient id="O" cx="0" cy="0" r="1" gradientUnits="userSpaceOnUse" gradientTransform="rotate(103.462 2.319 10.573) scale(4.16121 1.35388)"><stop stop-color="#572CAD"/><stop offset="1" stop-color="#572CAD" stop-opacity="0"/></radialGradient><radialGradient id="R" cx="0" cy="0" r="1" gradientUnits="userSpaceOnUse" gradientTransform="rotate(-58.113 27.683 2.039) scale(7.98644 .63266)"><stop stop-color="#623F8D"/><stop offset="1" stop-color="#623F8D" stop-opacity="0"/></radialGradient><radialGradient id="S" cx="0" cy="0" r="1" gradientUnits="userSpaceOnUse" gradientTransform="matrix(0 1.49191 -2.04898 0 13.776 7.647)"><stop offset=".184" stop-color="#6F43AC"/><stop offset="1" stop-color="#6F43AC" stop-opacity="0"/></radialGradient><radialGradient id="T" cx="0" cy="0" r="1" gradientUnits="userSpaceOnUse" gradientTransform="matrix(1.125 -.625 2.3294 4.19292 17.339 21.28)"><stop offset=".193" stop-color="#593B9D"/><stop offset="1" stop-color="#593B9D" stop-opacity="0"/></radialGradient><radialGradient id="V" cx="0" cy="0" r="1" gradientUnits="userSpaceOnUse" gradientTransform="matrix(3.55689 1.62587 -1.10084 2.4083 18.61 10.794)"><stop offset=".317" stop-color="#6845B9"/><stop offset="1" stop-color="#815ECD" stop-opacity="0"/><stop offset="1" stop-color="#6845B9" stop-opacity="0"/></radialGradient><radialGradient id="W" cx="0" cy="0" r="1" gradientUnits="userSpaceOnUse" gradientTransform="rotate(-138.814 5.313 5.993) scale(1.66096 2.09285)"><stop offset=".321" stop-color="#D89C92"/><stop offset=".769" stop-color="#D89C92" stop-opacity="0"/></radialGradient><radialGradient id="X" cx="0" cy="0" r="1" gradientUnits="userSpaceOnUse" gradientTransform="matrix(-1.24388 -.94214 1.33264 -1.75944 5.77 14.73)"><stop offset=".321" stop-color="#D89C92"/><stop offset=".769" stop-color="#D89C92" stop-opacity="0"/></radialGradient><radialGradient id="Y" cx="0" cy="0" r="1" gradientUnits="userSpaceOnUse" gradientTransform="matrix(-1.23007 -1.01775 1.46904 -1.7755 5.598 15.297)"><stop offset=".321" stop-color="#D89C92"/><stop offset=".769" stop-color="#D89C92" stop-opacity="0"/></radialGradient><radialGradient id="Z" cx="0" cy="0" r="1" gradientUnits="userSpaceOnUse" gradientTransform="matrix(-1.04688 -.89062 1.29178 -1.51843 5.802 15.529)"><stop offset=".321" stop-color="#D89C92"/><stop offset=".769" stop-color="#D89C92" stop-opacity="0"/></radialGradient><radialGradient id="aa" cx="0" cy="0" r="1" gradientUnits="userSpaceOnUse" gradientTransform="matrix(.14063 .15625 -.6598 .59382 7.037 14.82)"><stop stop-color="#F6C1B0"/><stop offset="1" stop-color="#F6C1B0" stop-opacity="0"/></radialGradient><radialGradient id="ac" cx="0" cy="0" r="1" gradientUnits="userSpaceOnUse" gradientTransform="rotate(135 10.5 15.423) scale(15.9541 20.2938)"><stop stop-color="#67ECFF"/><stop offset="1" stop-color="#67ECFF" stop-opacity="0"/></radialGradient><radialGradient id="ak" cx="0" cy="0" r="1" gradientUnits="userSpaceOnUse" gradientTransform="matrix(.82023 -.91429 1.1163 1.00146 16.054 6.456)"><stop offset=".444" stop-color="#E5B1A5"/><stop offset=".944" stop-color="#FFD8C1"/></radialGradient><radialGradient id="al" cx="0" cy="0" r="1" gradientUnits="userSpaceOnUse" gradientTransform="matrix(.59071 .3311 -.0936 .167 16.306 5.263)"><stop stop-color="#DBA98B"/><stop offset="1" stop-color="#DBA98B" stop-opacity="0"/></radialGradient><radialGradient id="an" cx="0" cy="0" r="1" gradientUnits="userSpaceOnUse" gradientTransform="matrix(.67787 -.05042 .03942 .5299 16.002 6.068)"><stop offset=".719" stop-color="#F4B89E" stop-opacity="0"/><stop offset="1" stop-color="#F5B99D"/></radialGradient><radialGradient id="ap" cx="0" cy="0" r="1" gradientUnits="userSpaceOnUse" gradientTransform="matrix(-.5418 0 0 -.42742 11.965 6.018)"><stop offset=".667" stop-color="#BC8272" stop-opacity="0"/><stop offset="1" stop-color="#BC8272"/></radialGradient><radialGradient id="ar" cx="0" cy="0" r="1" gradientUnits="userSpaceOnUse" gradientTransform="rotate(155.244 7.023 4.569) scale(3.21529 4.3036)"><stop stop-color="#FFD7BF"/><stop offset="1" stop-color="#D59F97"/></radialGradient><radialGradient id="as" cx="0" cy="0" r="1" gradientUnits="userSpaceOnUse" gradientTransform="rotate(172.574 7.538 3.697) scale(1.56704 1.72974)"><stop stop-color="#FFDEBF"/><stop offset="1" stop-color="#FFDEBF" stop-opacity="0"/></radialGradient><radialGradient id="at" cx="0" cy="0" r="1" gradientUnits="userSpaceOnUse" gradientTransform="rotate(-70.959 12.841 -4.56) scale(1.7991 2.28272)"><stop stop-color="#B87C92"/><stop offset="1" stop-color="#B87C92" stop-opacity="0"/></radialGradient><radialGradient id="au" cx="0" cy="0" r="1" gradientUnits="userSpaceOnUse" gradientTransform="matrix(0 3.01906 -3.49467 0 14.03 5.679)"><stop offset=".567" stop-color="#CD9897" stop-opacity="0"/><stop offset="1" stop-color="#B4807E"/></radialGradient><radialGradient id="av" cx="0" cy="0" r="1" gradientUnits="userSpaceOnUse" gradientTransform="rotate(168.897 7.103 3.998) scale(3.15945 5.43961)"><stop offset=".795" stop-color="#E2A895" stop-opacity="0"/><stop offset="1" stop-color="#E2A895"/></radialGradient><radialGradient id="aw" cx="0" cy="0" r="1" gradientUnits="userSpaceOnUse" gradientTransform="matrix(0 -.51664 .63406 0 15.063 5.589)"><stop stop-color="#F6BAA9"/><stop offset="1" stop-color="#F6BAA9" stop-opacity="0"/></radialGradient><radialGradient id="ax" cx="0" cy="0" r="1" gradientUnits="userSpaceOnUse" gradientTransform="matrix(0 -.58926 .67533 0 13.098 5.486)"><stop stop-color="#D09790"/><stop offset="1" stop-color="#D09790" stop-opacity="0"/></radialGradient><radialGradient id="ay" cx="0" cy="0" r="1" gradientUnits="userSpaceOnUse" gradientTransform="matrix(-.57703 0 0 -2.89376 16.317 6.256)"><stop stop-color="#FFD8BC"/><stop offset="1" stop-color="#FFD8BC" stop-opacity="0"/></radialGradient><radialGradient id="az" cx="0" cy="0" r="1" gradientUnits="userSpaceOnUse" gradientTransform="rotate(71.834 4.396 10.55) scale(1.89002 3.29263)"><stop stop-color="#A47463"/><stop offset="1" stop-color="#A47463" stop-opacity="0"/></radialGradient><radialGradient id="aC" cx="0" cy="0" r="1" gradientUnits="userSpaceOnUse" gradientTransform="rotate(-102.564 9.83 -2.473) scale(.94018 .28975)"><stop offset=".017" stop-color="#FFDCC5"/><stop offset="1" stop-color="#FFDCC5" stop-opacity="0"/></radialGradient><radialGradient id="aF" cx="0" cy="0" r="1" gradientUnits="userSpaceOnUse" gradientTransform="matrix(-.34991 0 0 -.09783 14.274 6.678)"><stop stop-color="#FFD6C2"/><stop offset="1" stop-color="#FFD6C2" stop-opacity="0"/></radialGradient><radialGradient id="aM" cx="0" cy="0" r="1" gradientUnits="userSpaceOnUse" gradientTransform="matrix(0 .3634 -.57802 0 15.009 5.75)"><stop offset=".802" stop-color="#7D574A"/><stop offset="1" stop-color="#694B43"/><stop offset="1" stop-color="#804D49"/><stop offset="1" stop-color="#664944"/></radialGradient><radialGradient id="aO" cx="0" cy="0" r="1" gradientUnits="userSpaceOnUse" gradientTransform="matrix(-.104 -.13402 .1845 -.14318 14.907 5.787)"><stop offset=".766" stop-color="#FFE6E2" stop-opacity="0"/><stop offset=".966" stop-color="#FFE6E2"/></radialGradient><radialGradient id="aR" cx="0" cy="0" r="1" gradientUnits="userSpaceOnUse" gradientTransform="matrix(0 .3634 -.57803 0 13.05 5.75)"><stop offset=".802" stop-color="#7D574A"/><stop offset="1" stop-color="#694B43"/><stop offset="1" stop-color="#804D49"/><stop offset="1" stop-color="#664944"/></radialGradient><radialGradient id="aV" cx="0" cy="0" r="1" gradientUnits="userSpaceOnUse" gradientTransform="rotate(-90.897 9.34 -3.436) scale(.22158 .26635)"><stop offset=".766" stop-color="#FFE6E2" stop-opacity="0"/><stop offset=".966" stop-color="#FFE6E2"/></radialGradient><radialGradient id="aX" cx="0" cy="0" r="1" gradientUnits="userSpaceOnUse" gradientTransform="rotate(115.684 6.67 5.91) scale(2.1877 3.57677)"><stop offset=".639" stop-color="#1F0D24" stop-opacity="0"/><stop offset="1" stop-color="#1F0D24"/></radialGradient><radialGradient id="aY" cx="0" cy="0" r="1" gradientUnits="userSpaceOnUse" gradientTransform="rotate(98.746 5.936 7.372) scale(.62103 1.33611)"><stop stop-color="#4C4749"/><stop offset="1" stop-color="#4C4749" stop-opacity="0"/></radialGradient><filter id="a" x="10.659" y="1.439" width="6.992" height="7.492" filterUnits="userSpaceOnUse" color-interpolation-filters="sRGB"><feFlood flood-opacity="0" result="BackgroundImageFix"/><feBlend in="SourceGraphic" in2="BackgroundImageFix" result="shape"/><feColorMatrix in="SourceAlpha" values="0 0 0 0 0 0 0 0 0 0 0 0 0 0 0 0 0 0 127 0" result="hardAlpha"/><feOffset dx=".25" dy="-.75"/><feGaussianBlur stdDeviation=".75"/><feComposite in2="hardAlpha" operator="arithmetic" k2="-1" k3="1"/><feColorMatrix values="0 0 0 0 0.121569 0 0 0 0 0.0705882 0 0 0 0 0.164706 0 0 0 1 0"/><feBlend in2="shape" result="effect1_innerShadow_3987_23004"/></filter><filter id="m" x="6.016" y="16.403" width="23.977" height="13.398" filterUnits="userSpaceOnUse" color-interpolation-filters="sRGB"><feFlood flood-opacity="0" result="BackgroundImageFix"/><feBlend in="SourceGraphic" in2="BackgroundImageFix" result="shape"/><feColorMatrix in="SourceAlpha" values="0 0 0 0 0 0 0 0 0 0 0 0 0 0 0 0 0 0 127 0" result="hardAlpha"/><feOffset dy="-.5"/><feGaussianBlur stdDeviation=".5"/><feComposite in2="hardAlpha" operator="arithmetic" k2="-1" k3="1"/><feColorMatrix values="0 0 0 0 0.25098 0 0 0 0 0.729412 0 0 0 0 1 0 0 0 1 0"/><feBlend in2="shape" result="effect1_innerShadow_3987_23004"/></filter><filter id="s" x="6.11" y="20.291" width="20.681" height="10.082" filterUnits="userSpaceOnUse" color-interpolation-filters="sRGB"><feFlood flood-opacity="0" result="BackgroundImageFix"/><feBlend in="SourceGraphic" in2="BackgroundImageFix" result="shape"/><feGaussianBlur stdDeviation=".75" result="effect1_foregroundBlur_3987_23004"/></filter><filter id="z" x="2.007" y="21.168" width="24.344" height="8.644" filterUnits="userSpaceOnUse" color-interpolation-filters="sRGB"><feFlood flood-opacity="0" result="BackgroundImageFix"/><feBlend in="SourceGraphic" in2="BackgroundImageFix" result="shape"/><feColorMatrix in="SourceAlpha" values="0 0 0 0 0 0 0 0 0 0 0 0 0 0 0 0 0 0 127 0" result="hardAlpha"/><feOffset/><feGaussianBlur stdDeviation=".25"/><feComposite in2="hardAlpha" operator="arithmetic" k2="-1" k3="1"/><feColorMatrix values="0 0 0 0 0.490196 0 0 0 0 0.415686 0 0 0 0 0.839216 0 0 0 1 0"/><feBlend in2="shape" result="effect1_innerShadow_3987_23004"/></filter><filter id="C" x="24.571" y="13.41" width="2.686" height="2.686" filterUnits="userSpaceOnUse" color-interpolation-filters="sRGB"><feFlood flood-opacity="0" result="BackgroundImageFix"/><feBlend in="SourceGraphic" in2="BackgroundImageFix" result="shape"/><feColorMatrix in="SourceAlpha" values="0 0 0 0 0 0 0 0 0 0 0 0 0 0 0 0 0 0 127 0" result="hardAlpha"/><feOffset dx=".1" dy="-.1"/><feGaussianBlur stdDeviation=".3"/><feComposite in2="hardAlpha" operator="arithmetic" k2="-1" k3="1"/><feColorMatrix values="0 0 0 0 0.290196 0 0 0 0 0.619608 0 0 0 0 0.952941 0 0 0 1 0"/><feBlend in2="shape" result="effect1_innerShadow_3987_23004"/></filter><filter id="E" x="27.821" y="11.711" width="2.186" height="2.186" filterUnits="userSpaceOnUse" color-interpolation-filters="sRGB"><feFlood flood-opacity="0" result="BackgroundImageFix"/><feBlend in="SourceGraphic" in2="BackgroundImageFix" result="shape"/><feColorMatrix in="SourceAlpha" values="0 0 0 0 0 0 0 0 0 0 0 0 0 0 0 0 0 0 127 0" result="hardAlpha"/><feOffset dx=".1" dy="-.1"/><feGaussianBlur stdDeviation=".3"/><feComposite in2="hardAlpha" operator="arithmetic" k2="-1" k3="1"/><feColorMatrix values="0 0 0 0 0.290196 0 0 0 0 0.619608 0 0 0 0 0.952941 0 0 0 1 0"/><feBlend in2="shape" result="effect1_innerShadow_3987_23004"/></filter><filter id="G" x="25.946" y="9.754" width="1.928" height="1.928" filterUnits="userSpaceOnUse" color-interpolation-filters="sRGB"><feFlood flood-opacity="0" result="BackgroundImageFix"/><feBlend in="SourceGraphic" in2="BackgroundImageFix" result="shape"/><feColorMatrix in="SourceAlpha" values="0 0 0 0 0 0 0 0 0 0 0 0 0 0 0 0 0 0 127 0" result="hardAlpha"/><feOffset dx=".1" dy="-.1"/><feGaussianBlur stdDeviation=".225"/><feComposite in2="hardAlpha" operator="arithmetic" k2="-1" k3="1"/><feColorMatrix values="0 0 0 0 0.290196 0 0 0 0 0.619608 0 0 0 0 0.952941 0 0 0 1 0"/><feBlend in2="shape" result="effect1_innerShadow_3987_23004"/></filter><filter id="J" x="20.532" y="12.178" width="2.857" height="2.898" filterUnits="userSpaceOnUse" color-interpolation-filters="sRGB"><feFlood flood-opacity="0" result="BackgroundImageFix"/><feBlend in="SourceGraphic" in2="BackgroundImageFix" result="shape"/><feColorMatrix in="SourceAlpha" values="0 0 0 0 0 0 0 0 0 0 0 0 0 0 0 0 0 0 127 0" result="hardAlpha"/><feOffset dx=".25" dy="-.25"/><feGaussianBlur stdDeviation=".5"/><feComposite in2="hardAlpha" operator="arithmetic" k2="-1" k3="1"/><feColorMatrix values="0 0 0 0 0.8 0 0 0 0 0.572549 0 0 0 0 0.545098 0 0 0 1 0"/><feBlend in2="shape" result="effect1_innerShadow_3987_23004"/></filter><filter id="M" x="7.773" y="7.875" width="5.571" height="6.952" filterUnits="userSpaceOnUse" color-interpolation-filters="sRGB"><feFlood flood-opacity="0" result="BackgroundImageFix"/><feBlend in="SourceGraphic" in2="BackgroundImageFix" result="shape"/><feColorMatrix in="SourceAlpha" values="0 0 0 0 0 0 0 0 0 0 0 0 0 0 0 0 0 0 127 0" result="hardAlpha"/><feOffset dx="-.15" dy="-.6"/><feGaussianBlur stdDeviation=".3"/><feComposite in2="hardAlpha" operator="arithmetic" k2="-1" k3="1"/><feColorMatrix values="0 0 0 0 0.360784 0 0 0 0 0.219608 0 0 0 0 0.713726 0 0 0 1 0"/><feBlend in2="shape" result="effect1_innerShadow_3987_23004"/></filter><filter id="P" x="8.427" y="7.647" width="14.97" height="18.153" filterUnits="userSpaceOnUse" color-interpolation-filters="sRGB"><feFlood flood-opacity="0" result="BackgroundImageFix"/><feBlend in="SourceGraphic" in2="BackgroundImageFix" result="shape"/><feColorMatrix in="SourceAlpha" values="0 0 0 0 0 0 0 0 0 0 0 0 0 0 0 0 0 0 127 0" result="hardAlpha"/><feOffset dx=".25" dy=".2"/><feGaussianBlur stdDeviation=".15"/><feComposite in2="hardAlpha" operator="arithmetic" k2="-1" k3="1"/><feColorMatrix values="0 0 0 0 0.556863 0 0 0 0 0.470588 0 0 0 0 0.741176 0 0 0 1 0"/><feBlend in2="shape" result="effect1_innerShadow_3987_23004"/></filter><filter id="ab" x="13.579" y="15.892" width="17.737" height="14.8" filterUnits="userSpaceOnUse" color-interpolation-filters="sRGB"><feFlood flood-opacity="0" result="BackgroundImageFix"/><feBlend in="SourceGraphic" in2="BackgroundImageFix" result="shape"/><feGaussianBlur stdDeviation="1" result="effect1_foregroundBlur_3987_23004"/></filter><filter id="ad" x="14.572" y="7.451" width="6.506" height="14.75" filterUnits="userSpaceOnUse" color-interpolation-filters="sRGB"><feFlood flood-opacity="0" result="BackgroundImageFix"/><feBlend in="SourceGraphic" in2="BackgroundImageFix" result="shape"/><feGaussianBlur stdDeviation=".375" result="effect1_foregroundBlur_3987_23004"/></filter><filter id="af" x="17.991" y="7.526" width="5.506" height="5.421" filterUnits="userSpaceOnUse" color-interpolation-filters="sRGB"><feFlood flood-opacity="0" result="BackgroundImageFix"/><feBlend in="SourceGraphic" in2="BackgroundImageFix" result="shape"/><feGaussianBlur stdDeviation=".3" result="effect1_foregroundBlur_3987_23004"/></filter><filter id="ah" x="11.204" y="5.295" width="1.595" height="1.445" filterUnits="userSpaceOnUse" color-interpolation-filters="sRGB"><feFlood flood-opacity="0" result="BackgroundImageFix"/><feBlend in="SourceGraphic" in2="BackgroundImageFix" result="shape"/><feColorMatrix in="SourceAlpha" values="0 0 0 0 0 0 0 0 0 0 0 0 0 0 0 0 0 0 127 0" result="hardAlpha"/><feOffset dx=".15"/><feGaussianBlur stdDeviation=".25"/><feComposite in2="hardAlpha" operator="arithmetic" k2="-1" k3="1"/><feColorMatrix values="0 0 0 0 0.894118 0 0 0 0 0.682353 0 0 0 0 0.6 0 0 0 1 0"/><feBlend in2="shape" result="effect1_innerShadow_3987_23004"/></filter><filter id="aj" x="15.475" y="5.045" width="1.445" height="1.695" filterUnits="userSpaceOnUse" color-interpolation-filters="sRGB"><feFlood flood-opacity="0" result="BackgroundImageFix"/><feBlend in="SourceGraphic" in2="BackgroundImageFix" result="shape"/><feColorMatrix in="SourceAlpha" values="0 0 0 0 0 0 0 0 0 0 0 0 0 0 0 0 0 0 127 0" result="hardAlpha"/><feOffset dy="-.25"/><feGaussianBlur stdDeviation=".25"/><feComposite in2="hardAlpha" operator="arithmetic" k2="-1" k3="1"/><feColorMatrix values="0 0 0 0 0.784314 0 0 0 0 0.572549 0 0 0 0 0.513726 0 0 0 1 0"/><feBlend in2="shape" result="effect1_innerShadow_3987_23004"/></filter><filter id="am" x="15.215" y="5.036" width="1.964" height="1.964" filterUnits="userSpaceOnUse" color-interpolation-filters="sRGB"><feFlood flood-opacity="0" result="BackgroundImageFix"/><feBlend in="SourceGraphic" in2="BackgroundImageFix" result="shape"/><feGaussianBlur stdDeviation=".25" result="effect1_foregroundBlur_3987_23004"/></filter><filter id="ao" x="11.053" y="5.136" width="1.764" height="1.764" filterUnits="userSpaceOnUse" color-interpolation-filters="sRGB"><feFlood flood-opacity="0" result="BackgroundImageFix"/><feBlend in="SourceGraphic" in2="BackgroundImageFix" result="shape"/><feGaussianBlur stdDeviation=".2" result="effect1_foregroundBlur_3987_23004"/></filter><filter id="aq" x="11.742" y="3.815" width="4.575" height="5.283" filterUnits="userSpaceOnUse" color-interpolation-filters="sRGB"><feFlood flood-opacity="0" result="BackgroundImageFix"/><feBlend in="SourceGraphic" in2="BackgroundImageFix" result="shape"/><feColorMatrix in="SourceAlpha" values="0 0 0 0 0 0 0 0 0 0 0 0 0 0 0 0 0 0 127 0" result="hardAlpha"/><feOffset dy=".4"/><feGaussianBlur stdDeviation=".3"/><feComposite in2="hardAlpha" operator="arithmetic" k2="-1" k3="1"/><feColorMatrix values="0 0 0 0 0.807843 0 0 0 0 0.592157 0 0 0 0 0.52549 0 0 0 1 0"/><feBlend in2="shape" result="effect1_innerShadow_3987_23004"/></filter><filter id="aA" x="13.036" y="5.291" width="1.843" height="2.204" filterUnits="userSpaceOnUse" color-interpolation-filters="sRGB"><feFlood flood-opacity="0" result="BackgroundImageFix"/><feBlend in="SourceGraphic" in2="BackgroundImageFix" result="shape"/><feGaussianBlur stdDeviation=".25" result="effect1_foregroundBlur_3987_23004"/></filter><filter id="aB" x="13.508" y="5.629" width="1.043" height="1.404" filterUnits="userSpaceOnUse" color-interpolation-filters="sRGB"><feFlood flood-opacity="0" result="BackgroundImageFix"/><feBlend in="SourceGraphic" in2="BackgroundImageFix" result="shape"/><feGaussianBlur stdDeviation=".05" result="effect1_foregroundBlur_3987_23004"/></filter><filter id="aG" x="13.088" y="6.962" width="1.883" height=".906" filterUnits="userSpaceOnUse" color-interpolation-filters="sRGB"><feFlood flood-opacity="0" result="BackgroundImageFix"/><feBlend in="SourceGraphic" in2="BackgroundImageFix" result="shape"/><feGaussianBlur stdDeviation=".05" result="effect1_foregroundBlur_3987_23004"/></filter><filter id="aI" x="14.343" y="5.387" width="1.458" height=".577" filterUnits="userSpaceOnUse" color-interpolation-filters="sRGB"><feFlood flood-opacity="0" result="BackgroundImageFix"/><feBlend in="SourceGraphic" in2="BackgroundImageFix" result="shape"/><feColorMatrix in="SourceAlpha" values="0 0 0 0 0 0 0 0 0 0 0 0 0 0 0 0 0 0 127 0" result="hardAlpha"/><feOffset dx="-.2"/><feGaussianBlur stdDeviation=".2"/><feComposite in2="hardAlpha" operator="arithmetic" k2="-1" k3="1"/><feColorMatrix values="0 0 0 0 0.0941176 0 0 0 0 0.0666667 0 0 0 0 0.117647 0 0 0 1 0"/><feBlend in2="shape" result="effect1_innerShadow_3987_23004"/></filter><filter id="aJ" x="12.259" y="5.387" width="1.458" height=".577" filterUnits="userSpaceOnUse" color-interpolation-filters="sRGB"><feFlood flood-opacity="0" result="BackgroundImageFix"/><feBlend in="SourceGraphic" in2="BackgroundImageFix" result="shape"/><feColorMatrix in="SourceAlpha" values="0 0 0 0 0 0 0 0 0 0 0 0 0 0 0 0 0 0 127 0" result="hardAlpha"/><feOffset dx=".2"/><feGaussianBlur stdDeviation=".125"/><feComposite in2="hardAlpha" operator="arithmetic" k2="-1" k3="1"/><feColorMatrix values="0 0 0 0 0.0862745 0 0 0 0 0.054902 0 0 0 0 0.113725 0 0 0 1 0"/><feBlend in2="shape" result="effect1_innerShadow_3987_23004"/></filter><filter id="aK" x="12.32" y="4.638" width="1.211" height=".6" filterUnits="userSpaceOnUse" color-interpolation-filters="sRGB"><feFlood flood-opacity="0" result="BackgroundImageFix"/><feBlend in="SourceGraphic" in2="BackgroundImageFix" result="shape"/><feColorMatrix in="SourceAlpha" values="0 0 0 0 0 0 0 0 0 0 0 0 0 0 0 0 0 0 127 0" result="hardAlpha"/><feOffset dx=".2" dy="-.2"/><feGaussianBlur stdDeviation=".15"/><feComposite in2="hardAlpha" operator="arithmetic" k2="-1" k3="1"/><feColorMatrix values="0 0 0 0 0.0431373 0 0 0 0 0.0235294 0 0 0 0 0.0313726 0 0 0 1 0"/><feBlend in2="shape" result="effect1_innerShadow_3987_23004"/></filter><filter id="aL" x="14.752" y="4.638" width="1.211" height=".6" filterUnits="userSpaceOnUse" color-interpolation-filters="sRGB"><feFlood flood-opacity="0" result="BackgroundImageFix"/><feBlend in="SourceGraphic" in2="BackgroundImageFix" result="shape"/><feColorMatrix in="SourceAlpha" values="0 0 0 0 0 0 0 0 0 0 0 0 0 0 0 0 0 0 127 0" result="hardAlpha"/><feOffset dx=".2" dy="-.2"/><feGaussianBlur stdDeviation=".15"/><feComposite in2="hardAlpha" operator="arithmetic" k2="-1" k3="1"/><feColorMatrix values="0 0 0 0 0.0431373 0 0 0 0 0.0235294 0 0 0 0 0.0313726 0 0 0 1 0"/><feBlend in2="shape" result="effect1_innerShadow_3987_23004"/></filter><filter id="aN" x="14.625" y="5.497" width=".463" height=".423" filterUnits="userSpaceOnUse" color-interpolation-filters="sRGB"><feFlood flood-opacity="0" result="BackgroundImageFix"/><feBlend in="SourceGraphic" in2="BackgroundImageFix" result="shape"/><feGaussianBlur stdDeviation=".05" result="effect1_foregroundBlur_3987_23004"/></filter><filter id="aP" x="14.947" y="5.476" width=".62" height=".63" filterUnits="userSpaceOnUse" color-interpolation-filters="sRGB"><feFlood flood-opacity="0" result="BackgroundImageFix"/><feBlend in="SourceGraphic" in2="BackgroundImageFix" result="shape"/><feGaussianBlur stdDeviation=".1" result="effect1_foregroundBlur_3987_23004"/></filter><filter id="aS" x="12.953" y="5.447" width=".662" height=".687" filterUnits="userSpaceOnUse" color-interpolation-filters="sRGB"><feFlood flood-opacity="0" result="BackgroundImageFix"/><feBlend in="SourceGraphic" in2="BackgroundImageFix" result="shape"/><feGaussianBlur stdDeviation=".1" result="effect1_foregroundBlur_3987_23004"/></filter><filter id="aU" x="12.668" y="5.494" width=".52" height=".426" filterUnits="userSpaceOnUse" color-interpolation-filters="sRGB"><feFlood flood-opacity="0" result="BackgroundImageFix"/><feBlend in="SourceGraphic" in2="BackgroundImageFix" result="shape"/><feGaussianBlur stdDeviation=".05" result="effect1_foregroundBlur_3987_23004"/></filter><filter id="aW" x="12.441" y="2.354" width="4.139" height="2.721" filterUnits="userSpaceOnUse" color-interpolation-filters="sRGB"><feFlood flood-opacity="0" result="BackgroundImageFix"/><feBlend in="SourceGraphic" in2="BackgroundImageFix" result="shape"/><feColorMatrix in="SourceAlpha" values="0 0 0 0 0 0 0 0 0 0 0 0 0 0 0 0 0 0 127 0" result="hardAlpha"/><feOffset dx="-.3" dy=".2"/><feGaussianBlur stdDeviation=".4"/><feComposite in2="hardAlpha" operator="arithmetic" k2="-1" k3="1"/><feColorMatrix values="0 0 0 0 0.345098 0 0 0 0 0.329412 0 0 0 0 0.333333 0 0 0 1 0"/><feBlend in2="shape" result="effect1_innerShadow_3987_23004"/><feGaussianBlur stdDeviation=".075" result="effect2_foregroundBlur_3987_23004"/></filter><filter id="aZ" x="13.356" y="2.896" width="3.712" height="2.34" filterUnits="userSpaceOnUse" color-interpolation-filters="sRGB"><feFlood flood-opacity="0" result="BackgroundImageFix"/><feBlend in="SourceGraphic" in2="BackgroundImageFix" result="shape"/><feGaussianBlur stdDeviation=".375" result="effect1_foregroundBlur_3987_23004"/></filter><linearGradient id="b" x1="16.137" y1="2.896" x2="13.082" y2="8.555" gradientUnits="userSpaceOnUse"><stop stop-color="#393134"/><stop offset="1" stop-color="#1A1718"/></linearGradient><linearGradient id="n" x1="7.172" y1="29.405" x2="16.735" y2="29.405" gradientUnits="userSpaceOnUse"><stop stop-color="#2D7CF2"/><stop offset="1" stop-color="#2D7CF2" stop-opacity="0"/></linearGradient><linearGradient id="p" x1="16.86" y1="30.311" x2="16.766" y2="28.686" gradientUnits="userSpaceOnUse"><stop offset=".178" stop-color="#7F8FFF"/><stop offset="1" stop-color="#7F8FFF" stop-opacity="0"/></linearGradient><linearGradient id="v" x1="7.833" y1="25.966" x2="8.372" y2="26.146" gradientUnits="userSpaceOnUse"><stop offset=".283" stop-color="#FAC2A5"/><stop offset="1" stop-color="#F2B790" stop-opacity="0"/><stop offset="1" stop-color="#FAC2A5" stop-opacity="0"/></linearGradient><linearGradient id="w" x1="21.172" y1="21.967" x2="19.469" y2="23.053" gradientUnits="userSpaceOnUse"><stop stop-color="#F6CBB9"/><stop offset="1" stop-color="#D29A85"/></linearGradient><linearGradient id="x" x1="22.095" y1="24.873" x2="23.329" y2="26.155" gradientUnits="userSpaceOnUse"><stop stop-color="#B041AB"/><stop offset="1" stop-color="#9157C5"/></linearGradient><linearGradient id="A" x1="5.891" y1="29.28" x2="25.735" y2="22.373" gradientUnits="userSpaceOnUse"><stop stop-color="#F54696"/><stop offset="1" stop-color="#84A6E9"/></linearGradient><linearGradient id="Q" x1="15.777" y1="7.647" x2="15.777" y2="25.608" gradientUnits="userSpaceOnUse"><stop stop-color="#8463CE"/><stop offset="1" stop-color="#6247A5"/></linearGradient><linearGradient id="U" x1="23.651" y1="12.543" x2="16.517" y2="8.59" gradientUnits="userSpaceOnUse"><stop stop-color="#896AD2"/><stop offset=".91" stop-color="#8C6DD3"/></linearGradient><linearGradient id="ae" x1="17.826" y1="8.201" x2="20.269" y2="21.438" gradientUnits="userSpaceOnUse"><stop stop-color="#9A7CE0"/><stop offset="1" stop-color="#8B79CA"/></linearGradient><linearGradient id="ag" x1="22.438" y1="11.92" x2="18.766" y2="8.03" gradientUnits="userSpaceOnUse"><stop stop-color="#9577DC"/><stop offset="1" stop-color="#9577DC" stop-opacity="0"/></linearGradient><linearGradient id="ai" x1="11.204" y1="6.057" x2="12.533" y2="6.057" gradientUnits="userSpaceOnUse"><stop stop-color="#CC9987"/><stop offset="1" stop-color="#AC7864"/></linearGradient><linearGradient id="aD" x1="13.608" y1="6.615" x2="14.03" y2="6.615" gradientUnits="userSpaceOnUse"><stop stop-color="#DFA791"/><stop offset="1" stop-color="#DFA791" stop-opacity="0"/></linearGradient><linearGradient id="aE" x1="14.03" y1="6.974" x2="14.03" y2="6.7" gradientUnits="userSpaceOnUse"><stop stop-color="#D29394"/><stop offset="1" stop-color="#D29394" stop-opacity="0"/></linearGradient><linearGradient id="aH" x1="13.552" y1="7.607" x2="13.759" y2="7.287" gradientUnits="userSpaceOnUse"><stop stop-color="#EABBAB"/><stop offset=".663" stop-color="#EABBAB" stop-opacity="0"/></linearGradient><linearGradient id="aQ" x1="15.358" y1="5.774" x2="15.218" y2="5.86" gradientUnits="userSpaceOnUse"><stop stop-color="#B4948D"/><stop offset="1" stop-color="#B4948D" stop-opacity="0"/></linearGradient><linearGradient id="aT" x1="13.384" y1="5.773" x2="13.243" y2="5.86" gradientUnits="userSpaceOnUse"><stop stop-color="#B4948D"/><stop offset="1" stop-color="#B4948D" stop-opacity="0"/></linearGradient></defs></svg>