<svg xmlns="http://www.w3.org/2000/svg" fill="none" viewBox="0 0 32 32"><path fill="url(#woman-with-headscarf-light_svg__a)" d="M18.552 18.093a.715.715 0 0 1-.531-.703v-2.016c0-1.16-.905-2.097-2.026-2.097s-2.025.936-2.025 2.097v2.016a.715.715 0 0 1-.531.703c-4.73 1.191-8.24 5.61-8.24 10.875v1.018H26.8v-1.018c0-5.264-3.51-9.684-8.25-10.875"/><path fill="url(#woman-with-headscarf-light_svg__b)" d="M18.552 18.093a.715.715 0 0 1-.531-.703v-2.016c0-1.16-.905-2.097-2.026-2.097s-2.025.936-2.025 2.097v2.016a.715.715 0 0 1-.531.703c-4.73 1.191-8.24 5.61-8.24 10.875v1.018H26.8v-1.018c0-5.264-3.51-9.684-8.25-10.875"/><path fill="url(#woman-with-headscarf-light_svg__c)" d="M18.552 18.093a.715.715 0 0 1-.531-.703v-2.016c0-1.16-.905-2.097-2.026-2.097s-2.025.936-2.025 2.097v2.016a.715.715 0 0 1-.531.703c-4.73 1.191-8.24 5.61-8.24 10.875v1.018H26.8v-1.018c0-5.264-3.51-9.684-8.25-10.875"/><g filter="url(#woman-with-headscarf-light_svg__d)"><path fill="#514575" d="M5.494 27.245a.1.1 0 0 0 .053.105c1.522.762 3.168 1.131 4.986 1.131 5.349 0 9.887-3.85 11.04-8.846a.1.1 0 0 0-.045-.108c-.883-.525-1.797-1-2.822-1.25-.314-.078-.652-.131-.652-.455v-1.941c0-1.118-.902-2.02-2.02-2.02s-2.02.902-2.02 2.02v1.941c0 .324-.205.443-.519.52-4.197 1.11-7.23 4.069-8 8.903"/></g><g filter="url(#woman-with-headscarf-light_svg__e)"><path fill="url(#woman-with-headscarf-light_svg__f)" d="M5.246 27.238a.1.1 0 0 0 .053.105c1.552.777 3.232 1.154 5.086 1.154 5.455 0 10.083-3.927 11.26-9.023a.1.1 0 0 0-.047-.108c-.9-.535-1.833-1.02-2.88-1.275-.32-.08-.663-.134-.663-.464v-1.98c0-1.14-.92-2.06-2.06-2.06s-2.06.92-2.06 2.06v1.98c0 .33-.21.451-.53.531-4.28 1.131-7.373 4.149-8.16 9.08"/><path fill="url(#woman-with-headscarf-light_svg__g)" d="M5.246 27.238a.1.1 0 0 0 .053.105c1.552.777 3.232 1.154 5.086 1.154 5.455 0 10.083-3.927 11.26-9.023a.1.1 0 0 0-.047-.108c-.9-.535-1.833-1.02-2.88-1.275-.32-.08-.663-.134-.663-.464v-1.98c0-1.14-.92-2.06-2.06-2.06s-2.06.92-2.06 2.06v1.98c0 .33-.21.451-.53.531-4.28 1.131-7.373 4.149-8.16 9.08"/><path fill="url(#woman-with-headscarf-light_svg__h)" d="M5.246 27.238a.1.1 0 0 0 .053.105c1.552.777 3.232 1.154 5.086 1.154 5.455 0 10.083-3.927 11.26-9.023a.1.1 0 0 0-.047-.108c-.9-.535-1.833-1.02-2.88-1.275-.32-.08-.663-.134-.663-.464v-1.98c0-1.14-.92-2.06-2.06-2.06s-2.06.92-2.06 2.06v1.98c0 .33-.21.451-.53.531-4.28 1.131-7.373 4.149-8.16 9.08"/></g><path fill="url(#woman-with-headscarf-light_svg__i)" d="M5.246 27.238a.1.1 0 0 0 .053.105c1.552.777 3.232 1.154 5.086 1.154 5.455 0 10.083-3.927 11.26-9.023a.1.1 0 0 0-.047-.108c-.9-.535-1.833-1.02-2.88-1.275-.32-.08-.663-.134-.663-.464v-1.98c0-1.14-.92-2.06-2.06-2.06s-2.06.92-2.06 2.06v1.98c0 .33-.21.451-.53.531-4.28 1.131-7.373 4.149-8.16 9.08"/><path fill="url(#woman-with-headscarf-light_svg__j)" d="M16.004 22.442a5.85 5.85 0 1 0 0-11.7 5.85 5.85 0 0 0 0 11.7"/><path fill="url(#woman-with-headscarf-light_svg__k)" d="M16.004 22.442a5.85 5.85 0 1 0 0-11.7 5.85 5.85 0 0 0 0 11.7"/><path fill="url(#woman-with-headscarf-light_svg__l)" d="M16.004 22.442a5.85 5.85 0 1 0 0-11.7 5.85 5.85 0 0 0 0 11.7"/><path fill="url(#woman-with-headscarf-light_svg__m)" d="M16.004 22.442a5.85 5.85 0 1 0 0-11.7 5.85 5.85 0 0 0 0 11.7"/><path fill="url(#woman-with-headscarf-light_svg__n)" d="M16.004 22.442a5.85 5.85 0 1 0 0-11.7 5.85 5.85 0 0 0 0 11.7"/><g filter="url(#woman-with-headscarf-light_svg__o)"><path fill="url(#woman-with-headscarf-light_svg__p)" d="M17.152 6.117a2 2 0 0 0-2.36 0l-3.164 2.312a2 2 0 0 0-.82 1.615v2.234a5.164 5.164 0 0 0 10.328 0v-2.234a2 2 0 0 0-.82-1.615z"/><path fill="url(#woman-with-headscarf-light_svg__q)" d="M17.152 6.117a2 2 0 0 0-2.36 0l-3.164 2.312a2 2 0 0 0-.82 1.615v2.234a5.164 5.164 0 0 0 10.328 0v-2.234a2 2 0 0 0-.82-1.615z"/><path fill="url(#woman-with-headscarf-light_svg__r)" d="M17.152 6.117a2 2 0 0 0-2.36 0l-3.164 2.312a2 2 0 0 0-.82 1.615v2.234a5.164 5.164 0 0 0 10.328 0v-2.234a2 2 0 0 0-.82-1.615z"/><path fill="url(#woman-with-headscarf-light_svg__s)" d="M17.152 6.117a2 2 0 0 0-2.36 0l-3.164 2.312a2 2 0 0 0-.82 1.615v2.234a5.164 5.164 0 0 0 10.328 0v-2.234a2 2 0 0 0-.82-1.615z"/><path fill="url(#woman-with-headscarf-light_svg__t)" d="M17.152 6.117a2 2 0 0 0-2.36 0l-3.164 2.312a2 2 0 0 0-.82 1.615v2.234a5.164 5.164 0 0 0 10.328 0v-2.234a2 2 0 0 0-.82-1.615z"/><path fill="url(#woman-with-headscarf-light_svg__u)" d="M17.152 6.117a2 2 0 0 0-2.36 0l-3.164 2.312a2 2 0 0 0-.82 1.615v2.234a5.164 5.164 0 0 0 10.328 0v-2.234a2 2 0 0 0-.82-1.615z"/><path fill="url(#woman-with-headscarf-light_svg__v)" d="M17.152 6.117a2 2 0 0 0-2.36 0l-3.164 2.312a2 2 0 0 0-.82 1.615v2.234a5.164 5.164 0 0 0 10.328 0v-2.234a2 2 0 0 0-.82-1.615z"/></g><path fill="url(#woman-with-headscarf-light_svg__w)" d="M17.152 6.117a2 2 0 0 0-2.36 0l-3.164 2.312a2 2 0 0 0-.82 1.615v2.234a5.164 5.164 0 0 0 10.328 0v-2.234a2 2 0 0 0-.82-1.615z"/><path fill="url(#woman-with-headscarf-light_svg__x)" d="M17.152 6.117a2 2 0 0 0-2.36 0l-3.164 2.312a2 2 0 0 0-.82 1.615v2.234a5.164 5.164 0 0 0 10.328 0v-2.234a2 2 0 0 0-.82-1.615z"/><g filter="url(#woman-with-headscarf-light_svg__y)"><path fill="#D19590" d="m15.57 11.106-.7 1.742a.553.553 0 0 0 .533.716h.805a.554.554 0 0 0 .534-.716l-.545-1.742c-.116-.386-.505-.386-.627 0"/></g><g filter="url(#woman-with-headscarf-light_svg__z)"><path fill="#F1C4B2" d="m15.58 10.964-.545 1.742a.553.553 0 0 0 .534.717h.806a.554.554 0 0 0 .533-.717l-.545-1.742c-.116-.385-.66-.385-.783 0"/><path fill="url(#woman-with-headscarf-light_svg__A)" d="m15.58 10.964-.545 1.742a.553.553 0 0 0 .534.717h.806a.554.554 0 0 0 .533-.717l-.545-1.742c-.116-.385-.66-.385-.783 0"/><path fill="url(#woman-with-headscarf-light_svg__B)" d="m15.58 10.964-.545 1.742a.553.553 0 0 0 .534.717h.806a.554.554 0 0 0 .533-.717l-.545-1.742c-.116-.385-.66-.385-.783 0"/><path fill="url(#woman-with-headscarf-light_svg__C)" d="m15.58 10.964-.545 1.742a.553.553 0 0 0 .534.717h.806a.554.554 0 0 0 .533-.717l-.545-1.742c-.116-.385-.66-.385-.783 0"/><path fill="url(#woman-with-headscarf-light_svg__D)" d="m15.58 10.964-.545 1.742a.553.553 0 0 0 .534.717h.806a.554.554 0 0 0 .533-.717l-.545-1.742c-.116-.385-.66-.385-.783 0"/></g><g filter="url(#woman-with-headscarf-light_svg__E)"><path fill="url(#woman-with-headscarf-light_svg__F)" d="m15.58 10.778-.545 1.742a.553.553 0 0 0 .534.716h.806a.554.554 0 0 0 .533-.716l-.545-1.742c-.116-.386-.66-.386-.783 0"/></g><g filter="url(#woman-with-headscarf-light_svg__G)"><path stroke="url(#woman-with-headscarf-light_svg__H)" stroke-width=".2" d="M15.972 14.318a3.1 3.1 0 0 1-1.457-.353c-.144-.075-.299.09-.208.224a1.98 1.98 0 0 0 3.33 0c.09-.139-.065-.3-.209-.224a3.1 3.1 0 0 1-1.456.353Z"/></g><path fill="#88024E" d="M15.972 14.318a3.1 3.1 0 0 1-1.457-.353c-.144-.075-.299.09-.208.224a1.98 1.98 0 0 0 3.33 0c.09-.139-.065-.3-.209-.224a3.1 3.1 0 0 1-1.456.353"/><g filter="url(#woman-with-headscarf-light_svg__I)"><path fill="#2D2B2E" d="M17.142 10.75c.272-.477.685-.855 1.575-.855.39 0 .766.108 1.1.378.275.222.238.507.025.614l-.57.325c-.668-.216-1.406-.245-2.13-.461"/></g><g filter="url(#woman-with-headscarf-light_svg__J)"><path fill="#272528" d="M14.802 10.75c-.272-.477-.686-.855-1.575-.855-.39 0-.766.108-1.1.378-.275.222-.238.507-.025.614l.57.325c.668-.216 1.406-.245 2.13-.461"/></g><g filter="url(#woman-with-headscarf-light_svg__K)"><path fill="#1E1E1E" d="m12.49 9.513-.004.003a.275.275 0 0 1-.283-.472h.002l.003-.002.01-.006a2 2 0 0 1 .152-.079 3 3 0 0 1 .42-.165 2.9 2.9 0 0 1 1.36-.112.275.275 0 1 1-.095.54c-.408-.071-.8 0-1.098.095a3 3 0 0 0-.467.198"/></g><g filter="url(#woman-with-headscarf-light_svg__L)"><path fill="#1E1E1E" fill-rule="evenodd" d="m19.795 9.044-.141.236za.275.275 0 0 1-.282.472l-.005-.003-.022-.012-.094-.048a3 3 0 0 0-.35-.138 2.3 2.3 0 0 0-1.099-.094.275.275 0 1 1-.095-.541c.525-.093 1.012 0 1.36.112a3.4 3.4 0 0 1 .573.244l.01.006.003.001z" clip-rule="evenodd"/></g><path fill="#fff" d="M18.422 9.955c.669 0 1.234.462 1.388 1.085a.28.28 0 0 1-.274.35h-2.287a.236.236 0 0 1-.232-.28 1.43 1.43 0 0 1 1.405-1.155"/><path fill="url(#woman-with-headscarf-light_svg__M)" d="M18.21 10.234a.915.915 0 0 1 .88 1.155h-1.766a.918.918 0 0 1 .885-1.155"/><path fill="#000" d="M17.686 11.148c0-.291.233-.524.523-.524a.522.522 0 0 1 .466.765h-.927a.5.5 0 0 1-.062-.241"/><g filter="url(#woman-with-headscarf-light_svg__N)"><path fill="#C7A7A3" d="M18.142 10.427c.065.087-.07.194-.226.31-.154.115-.27.197-.335.11s.008-.252.163-.368.333-.139.398-.052"/><path fill="url(#woman-with-headscarf-light_svg__O)" d="M18.142 10.427c.065.087-.07.194-.226.31-.154.115-.27.197-.335.11s.008-.252.163-.368.333-.139.398-.052"/></g><g filter="url(#woman-with-headscarf-light_svg__P)"><path fill="url(#woman-with-headscarf-light_svg__Q)" d="M19.024 11.028a.86.86 0 0 0-.237-.474l-.266.292.12.234z"/></g><path fill="#fff" d="M13.522 9.955c-.67 0-1.235.462-1.388 1.085a.28.28 0 0 0 .274.35h2.286a.236.236 0 0 0 .233-.28 1.435 1.435 0 0 0-1.405-1.155"/><path fill="url(#woman-with-headscarf-light_svg__R)" d="M13.734 10.234a.914.914 0 0 0-.882 1.155h1.767a1 1 0 0 0 .033-.24.92.92 0 0 0-.918-.915"/><path fill="#000" d="M14.258 11.148a.52.52 0 0 0-.524-.524.522.522 0 0 0-.466.765h.927a.5.5 0 0 0 .063-.241"/><g filter="url(#woman-with-headscarf-light_svg__S)"><path fill="url(#woman-with-headscarf-light_svg__T)" d="M14.57 11.04c0-.295-.241-.492-.306-.551l-.296.285.182.37z"/></g><g filter="url(#woman-with-headscarf-light_svg__U)" transform="rotate(-27.914 13.458 10.625)"><ellipse cx="13.458" cy="10.625" fill="#C7A7A3" fill-opacity=".9" rx=".399" ry=".202"/><ellipse cx="13.458" cy="10.625" fill="url(#woman-with-headscarf-light_svg__V)" rx=".399" ry=".202"/></g><g filter="url(#woman-with-headscarf-light_svg__W)"><path stroke="#323233" stroke-linecap="round" stroke-width=".2" d="M17.959 8.904c.33-.08 1.152-.04 1.702.352"/></g><g filter="url(#woman-with-headscarf-light_svg__X)"><path stroke="#323233" stroke-linecap="round" stroke-width=".2" d="M14.075 8.904c-.33-.08-1.153-.04-1.702.352"/></g><g filter="url(#woman-with-headscarf-light_svg__Y)"><path fill="url(#woman-with-headscarf-light_svg__Z)" fill-rule="evenodd" d="M10.114 4.208c2.911-2.928 8.816-2.925 11.732.007 1.235 1.39 1.415 2.897 1.415 4.125 0 .836-.055 2.784-.086 3.68-.086 3.713-2.68 7.25-7.195 7.406-5.39 0-7.137-4.914-7.195-7.414-.032-.896-.086-2.844-.086-3.68 0-1.227.18-2.734 1.415-4.124m4.678 1.909a2 2 0 0 1 2.36 0l3.164 2.312a2 2 0 0 1 .82 1.614v2.235a5.164 5.164 0 1 1-10.328 0v-2.235a2 2 0 0 1 .82-1.614z" clip-rule="evenodd"/></g><path fill="url(#woman-with-headscarf-light_svg__aa)" fill-rule="evenodd" d="M10.114 4.208c2.911-2.928 8.816-2.925 11.732.007 1.235 1.39 1.415 2.897 1.415 4.125 0 .836-.055 2.784-.086 3.68-.086 3.713-2.68 7.25-7.195 7.406-5.39 0-7.137-4.914-7.195-7.414-.032-.896-.086-2.844-.086-3.68 0-1.227.18-2.734 1.415-4.124m4.678 1.909a2 2 0 0 1 2.36 0l3.164 2.312a2 2 0 0 1 .82 1.614v2.235a5.164 5.164 0 1 1-10.328 0v-2.235a2 2 0 0 1 .82-1.614z" clip-rule="evenodd"/><path fill="url(#woman-with-headscarf-light_svg__ab)" fill-rule="evenodd" d="M10.114 4.208c2.911-2.928 8.816-2.925 11.732.007 1.235 1.39 1.415 2.897 1.415 4.125 0 .836-.055 2.784-.086 3.68-.086 3.713-2.68 7.25-7.195 7.406-5.39 0-7.137-4.914-7.195-7.414-.032-.896-.086-2.844-.086-3.68 0-1.227.18-2.734 1.415-4.124m4.678 1.909a2 2 0 0 1 2.36 0l3.164 2.312a2 2 0 0 1 .82 1.614v2.235a5.164 5.164 0 1 1-10.328 0v-2.235a2 2 0 0 1 .82-1.614z" clip-rule="evenodd"/><path fill="url(#woman-with-headscarf-light_svg__ac)" fill-rule="evenodd" d="M10.114 4.208c2.911-2.928 8.816-2.925 11.732.007 1.235 1.39 1.415 2.897 1.415 4.125 0 .836-.055 2.784-.086 3.68-.086 3.713-2.68 7.25-7.195 7.406-5.39 0-7.137-4.914-7.195-7.414-.032-.896-.086-2.844-.086-3.68 0-1.227.18-2.734 1.415-4.124m4.678 1.909a2 2 0 0 1 2.36 0l3.164 2.312a2 2 0 0 1 .82 1.614v2.235a5.164 5.164 0 1 1-10.328 0v-2.235a2 2 0 0 1 .82-1.614z" clip-rule="evenodd"/><path fill="url(#woman-with-headscarf-light_svg__ad)" fill-rule="evenodd" d="M10.114 4.208c2.911-2.928 8.816-2.925 11.732.007 1.235 1.39 1.415 2.897 1.415 4.125 0 .836-.055 2.784-.086 3.68-.086 3.713-2.68 7.25-7.195 7.406-5.39 0-7.137-4.914-7.195-7.414-.032-.896-.086-2.844-.086-3.68 0-1.227.18-2.734 1.415-4.124m4.678 1.909a2 2 0 0 1 2.36 0l3.164 2.312a2 2 0 0 1 .82 1.614v2.235a5.164 5.164 0 1 1-10.328 0v-2.235a2 2 0 0 1 .82-1.614z" clip-rule="evenodd"/><path fill="url(#woman-with-headscarf-light_svg__ae)" fill-rule="evenodd" d="M10.114 4.208c2.911-2.928 8.816-2.925 11.732.007 1.235 1.39 1.415 2.897 1.415 4.125 0 .836-.055 2.784-.086 3.68-.086 3.713-2.68 7.25-7.195 7.406-5.39 0-7.137-4.914-7.195-7.414-.032-.896-.086-2.844-.086-3.68 0-1.227.18-2.734 1.415-4.124m4.678 1.909a2 2 0 0 1 2.36 0l3.164 2.312a2 2 0 0 1 .82 1.614v2.235a5.164 5.164 0 1 1-10.328 0v-2.235a2 2 0 0 1 .82-1.614z" clip-rule="evenodd"/><defs><radialGradient id="woman-with-headscarf-light_svg__a" cx="0" cy="0" r="1" gradientTransform="matrix(-15.56254 13.4375 -17.37186 -20.1191 23.88 18.239)" gradientUnits="userSpaceOnUse"><stop offset=".468" stop-color="#6E5D9B"/><stop offset="1" stop-color="#534082"/></radialGradient><radialGradient id="woman-with-headscarf-light_svg__b" cx="0" cy="0" r="1" gradientTransform="rotate(136.874 7.068 16.588)scale(6.07995 6.11994)" gradientUnits="userSpaceOnUse"><stop stop-color="#8570B8"/><stop offset="1" stop-color="#7866A7" stop-opacity="0"/></radialGradient><radialGradient id="woman-with-headscarf-light_svg__f" cx="0" cy="0" r="1" gradientTransform="matrix(-8.48286 0 0 -9.81298 19.285 23.52)" gradientUnits="userSpaceOnUse"><stop stop-color="#8E6BD1"/><stop offset="1" stop-color="#7050AD"/></radialGradient><radialGradient id="woman-with-headscarf-light_svg__g" cx="0" cy="0" r="1" gradientTransform="matrix(-12.58516 -5.40493 4.87536 -11.35207 18.377 28.834)" gradientUnits="userSpaceOnUse"><stop offset=".79" stop-color="#7A65A5" stop-opacity="0"/><stop offset="1" stop-color="#7A65A5"/></radialGradient><radialGradient id="woman-with-headscarf-light_svg__h" cx="0" cy="0" r="1" gradientTransform="rotate(98.548 .4 14.887)scale(6.50288 6.47758)" gradientUnits="userSpaceOnUse"><stop offset=".633" stop-color="#4F2E93"/><stop offset="1" stop-color="#4F2E93" stop-opacity="0"/></radialGradient><radialGradient id="woman-with-headscarf-light_svg__i" cx="0" cy="0" r="1" gradientTransform="matrix(10.03122 6.84374 -7.53953 11.05108 9.88 16.708)" gradientUnits="userSpaceOnUse"><stop offset=".972" stop-color="#9C7ADA" stop-opacity="0"/><stop offset=".991" stop-color="#9C7ADA"/></radialGradient><radialGradient id="woman-with-headscarf-light_svg__k" cx="0" cy="0" r="1" gradientTransform="matrix(-4.99999 3.96877 -1.22204 -1.53957 20.535 16.99)" gradientUnits="userSpaceOnUse"><stop offset=".173" stop-color="#9376CC"/><stop offset="1" stop-color="#9376CC" stop-opacity="0"/></radialGradient><radialGradient id="woman-with-headscarf-light_svg__l" cx="0" cy="0" r="1" gradientTransform="matrix(-6.3178 2.71017 -3.76393 -8.7743 17.228 16.591)" gradientUnits="userSpaceOnUse"><stop offset=".694" stop-color="#755FA4" stop-opacity="0"/><stop offset=".928" stop-color="#755FA4"/></radialGradient><radialGradient id="woman-with-headscarf-light_svg__m" cx="0" cy="0" r="1" gradientTransform="matrix(0 2.81395 -5.55482 0 15.108 17.714)" gradientUnits="userSpaceOnUse"><stop offset=".498" stop-color="#452686"/><stop offset="1" stop-color="#452686" stop-opacity="0"/></radialGradient><radialGradient id="woman-with-headscarf-light_svg__n" cx="0" cy="0" r="1" gradientTransform="matrix(0 6.86218 -8.36853 0 16.004 15.8)" gradientUnits="userSpaceOnUse"><stop offset=".789" stop-color="#5C35A2" stop-opacity="0"/><stop offset="1" stop-color="#5C35A2"/></radialGradient><radialGradient id="woman-with-headscarf-light_svg__p" cx="0" cy="0" r="1" gradientTransform="matrix(-6.78064 3.07284 -4.06641 -8.9731 18.95 10.784)" gradientUnits="userSpaceOnUse"><stop stop-color="#FFD7BF"/><stop offset="1" stop-color="#D59F97"/></radialGradient><radialGradient id="woman-with-headscarf-light_svg__q" cx="0" cy="0" r="1" gradientTransform="matrix(-3.6086 .46227 -.50176 -3.91683 19.359 12.18)" gradientUnits="userSpaceOnUse"><stop stop-color="#FFDEBF"/><stop offset="1" stop-color="#FFDEBF" stop-opacity="0"/></radialGradient><radialGradient id="woman-with-headscarf-light_svg__r" cx="0" cy="0" r="1" gradientTransform="matrix(1.36308 -3.88134 4.99228 1.75322 13.487 18.293)" gradientUnits="userSpaceOnUse"><stop stop-color="#B87C92"/><stop offset="1" stop-color="#B87C92" stop-opacity="0"/></radialGradient><radialGradient id="woman-with-headscarf-light_svg__s" cx="0" cy="0" r="1" gradientTransform="rotate(118.872 5.279 10.046)scale(7.63677 8.9949)" gradientUnits="userSpaceOnUse"><stop offset=".567" stop-color="#CD9897" stop-opacity="0"/><stop offset="1" stop-color="#B77595"/></radialGradient><radialGradient id="woman-with-headscarf-light_svg__t" cx="0" cy="0" r="1" gradientTransform="matrix(-7.19984 1.38856 -2.35244 -12.19773 17.856 12.557)" gradientUnits="userSpaceOnUse"><stop offset=".795" stop-color="#E2A895" stop-opacity="0"/><stop offset="1" stop-color="#E2A895"/></radialGradient><radialGradient id="woman-with-headscarf-light_svg__u" cx="0" cy="0" r="1" gradientTransform="matrix(0 -1.17911 1.47247 0 18.368 10.355)" gradientUnits="userSpaceOnUse"><stop stop-color="#F6BAA9"/><stop offset="1" stop-color="#F6BAA9" stop-opacity="0"/></radialGradient><radialGradient id="woman-with-headscarf-light_svg__v" cx="0" cy="0" r="1" gradientTransform="matrix(0 -1.34484 1.56831 0 13.803 10.12)" gradientUnits="userSpaceOnUse"><stop stop-color="#D09790"/><stop offset="1" stop-color="#D09790" stop-opacity="0"/></radialGradient><radialGradient id="woman-with-headscarf-light_svg__w" cx="0" cy="0" r="1" gradientTransform="matrix(-1.30259 0 0 -6.93959 21.136 11.587)" gradientUnits="userSpaceOnUse"><stop stop-color="#FFD8BC"/><stop offset="1" stop-color="#FFD8BC" stop-opacity="0"/></radialGradient><radialGradient id="woman-with-headscarf-light_svg__x" cx="0" cy="0" r="1" gradientTransform="rotate(72.836 4.183 11.313)scale(4.50733 7.4743)" gradientUnits="userSpaceOnUse"><stop stop-color="#A47463"/><stop offset="1" stop-color="#A47463" stop-opacity="0"/></radialGradient><radialGradient id="woman-with-headscarf-light_svg__A" cx="0" cy="0" r="1" gradientTransform="rotate(-102.564 13.448 -.412)scale(2.14573 .6613)" gradientUnits="userSpaceOnUse"><stop offset=".017" stop-color="#FFDCC5"/><stop offset="1" stop-color="#FFDCC5" stop-opacity="0"/></radialGradient><radialGradient id="woman-with-headscarf-light_svg__D" cx="0" cy="0" r="1" gradientTransform="matrix(-.7986 0 0 -.22326 16.53 12.84)" gradientUnits="userSpaceOnUse"><stop stop-color="#FFD6C2"/><stop offset="1" stop-color="#FFD6C2" stop-opacity="0"/></radialGradient><radialGradient id="woman-with-headscarf-light_svg__M" cx="0" cy="0" r="1" gradientTransform="matrix(0 .8313 -1.32227 0 18.207 10.722)" gradientUnits="userSpaceOnUse"><stop offset=".802" stop-color="#7D574A"/><stop offset="1" stop-color="#694B43"/><stop offset="1" stop-color="#804D49"/><stop offset="1" stop-color="#664944"/></radialGradient><radialGradient id="woman-with-headscarf-light_svg__O" cx="0" cy="0" r="1" gradientTransform="rotate(-127.812 11.634 1.003)scale(.3876 .53364)" gradientUnits="userSpaceOnUse"><stop offset=".766" stop-color="#FFE6E2" stop-opacity="0"/><stop offset=".966" stop-color="#FFE6E2"/></radialGradient><radialGradient id="woman-with-headscarf-light_svg__R" cx="0" cy="0" r="1" gradientTransform="matrix(0 .8313 -1.32228 0 13.736 10.722)" gradientUnits="userSpaceOnUse"><stop offset=".802" stop-color="#7D574A"/><stop offset="1" stop-color="#694B43"/><stop offset="1" stop-color="#804D49"/><stop offset="1" stop-color="#664944"/></radialGradient><radialGradient id="woman-with-headscarf-light_svg__V" cx="0" cy="0" r="1" gradientTransform="matrix(-.00793 -.50623 .6085 -.00953 13.443 10.947)" gradientUnits="userSpaceOnUse"><stop offset=".766" stop-color="#FFE6E2" stop-opacity="0"/><stop offset=".966" stop-color="#FFE6E2"/></radialGradient><radialGradient id="woman-with-headscarf-light_svg__Z" cx="0" cy="0" r="1" gradientTransform="rotate(121.679 8.075 8.491)scale(12.0506 10.0996)" gradientUnits="userSpaceOnUse"><stop stop-color="#9670D7"/><stop offset="1" stop-color="#7454AC"/></radialGradient><radialGradient id="woman-with-headscarf-light_svg__ab" cx="0" cy="0" r="1" gradientTransform="matrix(0 10.7879 -8.79851 0 15.98 8.638)" gradientUnits="userSpaceOnUse"><stop stop-color="#573199" stop-opacity="0"/><stop offset=".866" stop-color="#573199" stop-opacity=".024"/><stop offset="1" stop-color="#573199"/></radialGradient><radialGradient id="woman-with-headscarf-light_svg__ac" cx="0" cy="0" r="1" gradientTransform="matrix(-5.65397 -9.37048 9.62948 -5.81025 17.124 12.45)" gradientUnits="userSpaceOnUse"><stop offset=".758" stop-color="#7358A4" stop-opacity="0"/><stop offset=".994" stop-color="#7358A4"/></radialGradient><radialGradient id="woman-with-headscarf-light_svg__ad" cx="0" cy="0" r="1" gradientTransform="matrix(-2.79524 3.2082 -9.93816 -8.65893 21.761 3.27)" gradientUnits="userSpaceOnUse"><stop offset=".125" stop-color="#A27CE3"/><stop offset="1" stop-color="#A27CE3" stop-opacity="0"/></radialGradient><filter id="woman-with-headscarf-light_svg__d" width="16.584" height="15.121" x="5.243" y="13.611" color-interpolation-filters="sRGB" filterUnits="userSpaceOnUse"><feFlood flood-opacity="0" result="BackgroundImageFix"/><feBlend in="SourceGraphic" in2="BackgroundImageFix" result="shape"/><feGaussianBlur result="effect1_foregroundBlur_4002_3300" stdDeviation=".125"/></filter><filter id="woman-with-headscarf-light_svg__e" width="16.502" height="15.01" x="5.145" y="13.487" color-interpolation-filters="sRGB" filterUnits="userSpaceOnUse"><feFlood flood-opacity="0" result="BackgroundImageFix"/><feBlend in="SourceGraphic" in2="BackgroundImageFix" result="shape"/><feColorMatrix in="SourceAlpha" result="hardAlpha" values="0 0 0 0 0 0 0 0 0 0 0 0 0 0 0 0 0 0 127 0"/><feOffset dx="-.1" dy="-.1"/><feGaussianBlur stdDeviation=".075"/><feComposite in2="hardAlpha" k2="-1" k3="1" operator="arithmetic"/><feColorMatrix values="0 0 0 0 0.470588 0 0 0 0 0.317647 0 0 0 0 0.745098 0 0 0 1 0"/><feBlend in2="shape" result="effect1_innerShadow_4002_3300"/></filter><filter id="woman-with-headscarf-light_svg__o" width="10.328" height="12.11" x="10.808" y="5.732" color-interpolation-filters="sRGB" filterUnits="userSpaceOnUse"><feFlood flood-opacity="0" result="BackgroundImageFix"/><feBlend in="SourceGraphic" in2="BackgroundImageFix" result="shape"/><feColorMatrix in="SourceAlpha" result="hardAlpha" values="0 0 0 0 0 0 0 0 0 0 0 0 0 0 0 0 0 0 127 0"/><feOffset dy=".4"/><feGaussianBlur stdDeviation=".3"/><feComposite in2="hardAlpha" k2="-1" k3="1" operator="arithmetic"/><feColorMatrix values="0 0 0 0 0.866667 0 0 0 0 0.611765 0 0 0 0 0.584314 0 0 0 1 0"/><feBlend in2="shape" result="effect1_innerShadow_4002_3300"/></filter><filter id="woman-with-headscarf-light_svg__y" width="2.923" height="3.748" x="14.344" y="10.317" color-interpolation-filters="sRGB" filterUnits="userSpaceOnUse"><feFlood flood-opacity="0" result="BackgroundImageFix"/><feBlend in="SourceGraphic" in2="BackgroundImageFix" result="shape"/><feGaussianBlur result="effect1_foregroundBlur_4002_3300" stdDeviation=".25"/></filter><filter id="woman-with-headscarf-light_svg__z" width="2.423" height="3.248" x="14.76" y="10.425" color-interpolation-filters="sRGB" filterUnits="userSpaceOnUse"><feFlood flood-opacity="0" result="BackgroundImageFix"/><feBlend in="SourceGraphic" in2="BackgroundImageFix" result="shape"/><feGaussianBlur result="effect1_foregroundBlur_4002_3300" stdDeviation=".125"/></filter><filter id="woman-with-headscarf-light_svg__E" width="2.423" height="3.248" x="14.76" y="10.239" color-interpolation-filters="sRGB" filterUnits="userSpaceOnUse"><feFlood flood-opacity="0" result="BackgroundImageFix"/><feBlend in="SourceGraphic" in2="BackgroundImageFix" result="shape"/><feGaussianBlur result="effect1_foregroundBlur_4002_3300" stdDeviation=".125"/></filter><filter id="woman-with-headscarf-light_svg__G" width="3.784" height="1.554" x="14.08" y="13.745" color-interpolation-filters="sRGB" filterUnits="userSpaceOnUse"><feFlood flood-opacity="0" result="BackgroundImageFix"/><feBlend in="SourceGraphic" in2="BackgroundImageFix" result="shape"/><feGaussianBlur result="effect1_foregroundBlur_4002_3300" stdDeviation=".05"/></filter><filter id="woman-with-headscarf-light_svg__I" width="3.07" height="1.317" x="16.942" y="9.895" color-interpolation-filters="sRGB" filterUnits="userSpaceOnUse"><feFlood flood-opacity="0" result="BackgroundImageFix"/><feBlend in="SourceGraphic" in2="BackgroundImageFix" result="shape"/><feColorMatrix in="SourceAlpha" result="hardAlpha" values="0 0 0 0 0 0 0 0 0 0 0 0 0 0 0 0 0 0 127 0"/><feOffset dx="-.2"/><feGaussianBlur stdDeviation=".2"/><feComposite in2="hardAlpha" k2="-1" k3="1" operator="arithmetic"/><feColorMatrix values="0 0 0 0 0.0941176 0 0 0 0 0.0666667 0 0 0 0 0.117647 0 0 0 1 0"/><feBlend in2="shape" result="effect1_innerShadow_4002_3300"/></filter><filter id="woman-with-headscarf-light_svg__J" width="3.07" height="1.317" x="11.931" y="9.895" color-interpolation-filters="sRGB" filterUnits="userSpaceOnUse"><feFlood flood-opacity="0" result="BackgroundImageFix"/><feBlend in="SourceGraphic" in2="BackgroundImageFix" result="shape"/><feColorMatrix in="SourceAlpha" result="hardAlpha" values="0 0 0 0 0 0 0 0 0 0 0 0 0 0 0 0 0 0 127 0"/><feOffset dx=".2"/><feGaussianBlur stdDeviation=".125"/><feComposite in2="hardAlpha" k2="-1" k3="1" operator="arithmetic"/><feColorMatrix values="0 0 0 0 0.0862745 0 0 0 0 0.054902 0 0 0 0 0.113725 0 0 0 1 0"/><feBlend in2="shape" result="effect1_innerShadow_4002_3300"/></filter><filter id="woman-with-headscarf-light_svg__K" width="2.508" height="1.113" x="12.07" y="8.442" color-interpolation-filters="sRGB" filterUnits="userSpaceOnUse"><feFlood flood-opacity="0" result="BackgroundImageFix"/><feBlend in="SourceGraphic" in2="BackgroundImageFix" result="shape"/><feColorMatrix in="SourceAlpha" result="hardAlpha" values="0 0 0 0 0 0 0 0 0 0 0 0 0 0 0 0 0 0 127 0"/><feOffset dx=".2" dy="-.2"/><feGaussianBlur stdDeviation=".15"/><feComposite in2="hardAlpha" k2="-1" k3="1" operator="arithmetic"/><feColorMatrix values="0 0 0 0 0.0431373 0 0 0 0 0.0235294 0 0 0 0 0.0313726 0 0 0 1 0"/><feBlend in2="shape" result="effect1_innerShadow_4002_3300"/></filter><filter id="woman-with-headscarf-light_svg__L" width="2.508" height="1.113" x="17.62" y="8.442" color-interpolation-filters="sRGB" filterUnits="userSpaceOnUse"><feFlood flood-opacity="0" result="BackgroundImageFix"/><feBlend in="SourceGraphic" in2="BackgroundImageFix" result="shape"/><feColorMatrix in="SourceAlpha" result="hardAlpha" values="0 0 0 0 0 0 0 0 0 0 0 0 0 0 0 0 0 0 127 0"/><feOffset dx=".2" dy="-.2"/><feGaussianBlur stdDeviation=".15"/><feComposite in2="hardAlpha" k2="-1" k3="1" operator="arithmetic"/><feColorMatrix values="0 0 0 0 0.0431373 0 0 0 0 0.0235294 0 0 0 0 0.0313726 0 0 0 1 0"/><feBlend in2="shape" result="effect1_innerShadow_4002_3300"/></filter><filter id="woman-with-headscarf-light_svg__N" width=".801" height=".709" x="17.458" y="10.274" color-interpolation-filters="sRGB" filterUnits="userSpaceOnUse"><feFlood flood-opacity="0" result="BackgroundImageFix"/><feBlend in="SourceGraphic" in2="BackgroundImageFix" result="shape"/><feGaussianBlur result="effect1_foregroundBlur_4002_3300" stdDeviation=".05"/></filter><filter id="woman-with-headscarf-light_svg__P" width=".903" height=".926" x="18.321" y="10.354" color-interpolation-filters="sRGB" filterUnits="userSpaceOnUse"><feFlood flood-opacity="0" result="BackgroundImageFix"/><feBlend in="SourceGraphic" in2="BackgroundImageFix" result="shape"/><feGaussianBlur result="effect1_foregroundBlur_4002_3300" stdDeviation=".1"/></filter><filter id="woman-with-headscarf-light_svg__S" width="1.001" height="1.056" x="13.768" y="10.289" color-interpolation-filters="sRGB" filterUnits="userSpaceOnUse"><feFlood flood-opacity="0" result="BackgroundImageFix"/><feBlend in="SourceGraphic" in2="BackgroundImageFix" result="shape"/><feGaussianBlur result="effect1_foregroundBlur_4002_3300" stdDeviation=".1"/></filter><filter id="woman-with-headscarf-light_svg__U" width=".931" height=".717" x="12.993" y="10.266" color-interpolation-filters="sRGB" filterUnits="userSpaceOnUse"><feFlood flood-opacity="0" result="BackgroundImageFix"/><feBlend in="SourceGraphic" in2="BackgroundImageFix" result="shape"/><feGaussianBlur result="effect1_foregroundBlur_4002_3300" stdDeviation=".05"/></filter><filter id="woman-with-headscarf-light_svg__W" width="2.302" height=".987" x="17.659" y="8.569" color-interpolation-filters="sRGB" filterUnits="userSpaceOnUse"><feFlood flood-opacity="0" result="BackgroundImageFix"/><feBlend in="SourceGraphic" in2="BackgroundImageFix" result="shape"/><feGaussianBlur result="effect1_foregroundBlur_4002_3300" stdDeviation=".1"/></filter><filter id="woman-with-headscarf-light_svg__X" width="2.302" height=".987" x="12.073" y="8.569" color-interpolation-filters="sRGB" filterUnits="userSpaceOnUse"><feFlood flood-opacity="0" result="BackgroundImageFix"/><feBlend in="SourceGraphic" in2="BackgroundImageFix" result="shape"/><feGaussianBlur result="effect1_foregroundBlur_4002_3300" stdDeviation=".1"/></filter><filter id="woman-with-headscarf-light_svg__Y" width="15.212" height="17.812" x="8.549" y="1.764" color-interpolation-filters="sRGB" filterUnits="userSpaceOnUse"><feFlood flood-opacity="0" result="BackgroundImageFix"/><feBlend in="SourceGraphic" in2="BackgroundImageFix" result="shape"/><feColorMatrix in="SourceAlpha" result="hardAlpha" values="0 0 0 0 0 0 0 0 0 0 0 0 0 0 0 0 0 0 127 0"/><feOffset dx=".5" dy="-.25"/><feGaussianBlur stdDeviation=".3"/><feComposite in2="hardAlpha" k2="-1" k3="1" operator="arithmetic"/><feColorMatrix values="0 0 0 0 0.45098 0 0 0 0 0.258824 0 0 0 0 0.631373 0 0 0 1 0"/><feBlend in2="shape" result="effect1_innerShadow_4002_3300"/><feColorMatrix in="SourceAlpha" result="hardAlpha" values="0 0 0 0 0 0 0 0 0 0 0 0 0 0 0 0 0 0 127 0"/><feOffset dx="-.15" dy=".15"/><feGaussianBlur stdDeviation=".25"/><feComposite in2="hardAlpha" k2="-1" k3="1" operator="arithmetic"/><feColorMatrix values="0 0 0 0 0.380392 0 0 0 0 0.196078 0 0 0 0 0.482353 0 0 0 1 0"/><feBlend in2="effect1_innerShadow_4002_3300" result="effect2_innerShadow_4002_3300"/></filter><linearGradient id="woman-with-headscarf-light_svg__c" x1="5.561" x2="7.848" y1="29.986" y2="29.986" gradientUnits="userSpaceOnUse"><stop stop-color="#655B83"/><stop offset="1" stop-color="#655B83" stop-opacity="0"/></linearGradient><linearGradient id="woman-with-headscarf-light_svg__j" x1="20.567" x2="12.504" y1="17.52" y2="20.927" gradientUnits="userSpaceOnUse"><stop stop-color="#8966C9"/><stop offset="1" stop-color="#60429A"/></linearGradient><linearGradient id="woman-with-headscarf-light_svg__B" x1="15.01" x2="15.972" y1="12.699" y2="12.699" gradientUnits="userSpaceOnUse"><stop stop-color="#DFA791"/><stop offset="1" stop-color="#DFA791" stop-opacity="0"/></linearGradient><linearGradient id="woman-with-headscarf-light_svg__C" x1="15.972" x2="15.972" y1="13.517" y2="12.892" gradientUnits="userSpaceOnUse"><stop stop-color="#D29394"/><stop offset="1" stop-color="#D29394" stop-opacity="0"/></linearGradient><linearGradient id="woman-with-headscarf-light_svg__F" x1="15.972" x2="15.972" y1="10.489" y2="12.056" gradientUnits="userSpaceOnUse"><stop stop-color="#EFC2B0"/><stop offset="1" stop-color="#EFC2B0" stop-opacity="0"/></linearGradient><linearGradient id="woman-with-headscarf-light_svg__H" x1="14.881" x2="15.353" y1="14.962" y2="14.232" gradientUnits="userSpaceOnUse"><stop stop-color="#EABBAB"/><stop offset=".663" stop-color="#EABBAB" stop-opacity="0"/></linearGradient><linearGradient id="woman-with-headscarf-light_svg__Q" x1="19.005" x2="18.683" y1="10.778" y2="10.976" gradientUnits="userSpaceOnUse"><stop stop-color="#B4948D"/><stop offset="1" stop-color="#B4948D" stop-opacity="0"/></linearGradient><linearGradient id="woman-with-headscarf-light_svg__T" x1="14.498" x2="14.177" y1="10.777" y2="10.976" gradientUnits="userSpaceOnUse"><stop stop-color="#B4948D"/><stop offset="1" stop-color="#B4948D" stop-opacity="0"/></linearGradient><linearGradient id="woman-with-headscarf-light_svg__aa" x1="23.261" x2="21.888" y1="12.609" y2="12.609" gradientUnits="userSpaceOnUse"><stop stop-color="#906CCF"/><stop offset="1" stop-color="#906CCF" stop-opacity="0"/></linearGradient><linearGradient id="woman-with-headscarf-light_svg__ae" x1="8.699" x2="10.294" y1="11.656" y2="11.592" gradientUnits="userSpaceOnUse"><stop stop-color="#755DA5"/><stop offset="1" stop-color="#755DA5" stop-opacity="0"/></linearGradient></defs></svg>