<svg width="32" height="32" fill="none" xmlns="http://www.w3.org/2000/svg"><g filter="url(#a)"><path d="M5.65 29.729h20.7c-.494-4.932-5.203-8.665-10.39-8.665-5.189 0-9.713 3.764-10.31 8.665Z" fill="url(#b)"/><path d="M5.65 29.729h20.7c-.494-4.932-5.203-8.665-10.39-8.665-5.189 0-9.713 3.764-10.31 8.665Z" fill="url(#c)"/></g><path d="M5.65 29.729h20.7c-.494-4.932-5.203-8.665-10.39-8.665-5.189 0-9.713 3.764-10.31 8.665Z" fill="url(#d)"/><path d="M5.65 29.729h20.7c-.494-4.932-5.203-8.665-10.39-8.665-5.189 0-9.713 3.764-10.31 8.665Z" fill="url(#e)"/><g filter="url(#f)"><path d="M23.846 11.876c-.56-.982-.53-1.722-.639-2.036l-6.664 2.824v8.915h3.72c2.443 0 3.523-1.02 4.003-2.22.48-1.2.28-2.133.06-2.795a1.536 1.536 0 0 1 .03-.998c.452-1.252.176-2.49-.51-3.69Z" fill="url(#g)"/><path d="M23.846 11.876c-.56-.982-.53-1.722-.639-2.036l-6.664 2.824v8.915h3.72c2.443 0 3.523-1.02 4.003-2.22.48-1.2.28-2.133.06-2.795a1.536 1.536 0 0 1 .03-.998c.452-1.252.176-2.49-.51-3.69Z" fill="url(#h)"/></g><g filter="url(#i)"><path d="M8.154 11.876c.56-.982.53-1.722.638-2.036l6.665 2.824v8.915h-3.72c-2.443 0-3.523-1.02-4.003-2.22-.48-1.2-.28-2.133-.06-2.795a1.536 1.536 0 0 0-.03-.998c-.452-1.252-.176-2.49.51-3.69Z" fill="url(#j)"/><path d="M8.154 11.876c.56-.982.53-1.722.638-2.036l6.665 2.824v8.915h-3.72c-2.443 0-3.523-1.02-4.003-2.22-.48-1.2-.28-2.133-.06-2.795a1.536 1.536 0 0 0-.03-.998c-.452-1.252-.176-2.49.51-3.69Z" fill="url(#k)"/></g><circle cx="10.604" cy="14.365" r="1.979" fill="url(#l)"/><g opacity=".5" filter="url(#m)"><circle cx="10.604" cy="14.365" r="1.293" fill="#C88773"/></g><circle cx="21.285" cy="14.432" r="1.979" fill="url(#n)"/><g filter="url(#o)"><circle cx="21.396" cy="14.365" r="1.293" fill="url(#p)"/></g><g filter="url(#q)"><circle cx="13.524" cy="13.242" r="1.415" fill="url(#r)"/></g><path d="M13.75 20a2.256 2.256 0 0 1 4.512 0v2.102c0 1.246-1.588 1.624-2.256 1.624-.766 0-2.257-.378-2.257-1.624V20Z" fill="#D89985"/><path d="M13.75 20a2.256 2.256 0 0 1 4.512 0v2.102c0 1.246-1.588 1.624-2.256 1.624-.766 0-2.257-.378-2.257-1.624V20Z" fill="url(#s)"/><path d="M13.75 20a2.256 2.256 0 0 1 4.512 0v2.102c0 1.246-1.588 1.624-2.256 1.624-.766 0-2.257-.378-2.257-1.624V20Z" fill="url(#t)"/><g filter="url(#u)"><rect x="10.24" y="5.806" width="11.521" height="15.258" rx="5.76" fill="url(#v)"/></g><rect x="10.24" y="5.806" width="11.521" height="15.258" rx="5.76" fill="url(#w)"/><g filter="url(#x)"><path d="m9.271 2.405 1.516 5.892 1.938-.904c0 .34.199-.381.656 0a78.034 78.034 0 0 1 1.727 1.632c.476.46.463 1.207-.026 1.653-.454.413-1.089.349-1.553-.053l-.98-.713a.54.54 0 0 0-.746.042.498.498 0 0 0-.133.337V13.5c0 .639-.537 1.156-1.2 1.156-.662 0-1.199-.518-1.199-1.156V2.405Z" fill="url(#y)"/></g><g filter="url(#z)"><path d="M22.646 8.25H19.22l-.683-1.813c0 .353.457.529 0 .924a79.49 79.49 0 0 0-1.728 1.691 1.196 1.196 0 0 0 .027 1.715c.453.428 1.09.362 1.554-.055l.978-.74a.527.527 0 0 1 .88.393v3.328a1.2 1.2 0 1 0 2.398 0V8.25Z" fill="url(#A)"/></g><g filter="url(#B)"><path d="M13.209 8.49c-.782 1.248-2.158 2.114-2.7 2.314V6.655c.265 0 1.576-.141 2.168-.514.694-.437 1.337-1.637 3.352-1.637 1.071 0 1.808.377 2.923 1.337.882.652 2.182.697 2.743.652v4.534c-.517-.373-1.428-.41-1.846-.428h-3.375c-1.744 0-2.934-1.39-3.265-2.11Z" fill="url(#C)"/><path d="M13.209 8.49c-.782 1.248-2.158 2.114-2.7 2.314V6.655c.265 0 1.576-.141 2.168-.514.694-.437 1.337-1.637 3.352-1.637 1.071 0 1.808.377 2.923 1.337.882.652 2.182.697 2.743.652v4.534c-.517-.373-1.428-.41-1.846-.428h-3.375c-1.744 0-2.934-1.39-3.265-2.11Z" fill="url(#D)"/><path d="M13.209 8.49c-.782 1.248-2.158 2.114-2.7 2.314V6.655c.265 0 1.576-.141 2.168-.514.694-.437 1.337-1.637 3.352-1.637 1.071 0 1.808.377 2.923 1.337.882.652 2.182.697 2.743.652v4.534c-.517-.373-1.428-.41-1.846-.428h-3.375c-1.744 0-2.934-1.39-3.265-2.11Z" fill="url(#E)"/><path d="M13.209 8.49c-.782 1.248-2.158 2.114-2.7 2.314V6.655c.265 0 1.576-.141 2.168-.514.694-.437 1.337-1.637 3.352-1.637 1.071 0 1.808.377 2.923 1.337.882.652 2.182.697 2.743.652v4.534c-.517-.373-1.428-.41-1.846-.428h-3.375c-1.744 0-2.934-1.39-3.265-2.11Z" fill="url(#F)"/></g><g filter="url(#G)"><path d="M13.135 6.281c-.313.207-.83.466-.95.438 1.038 3.687 4.893 3.74 6.59 3.437L20.4 8.594V6.719c-1.164-.57-3.218-1.828-4.671-1.742-1.454.086-2.204 1.046-2.594 1.304Z" fill="url(#H)"/><path d="M13.135 6.281c-.313.207-.83.466-.95.438 1.038 3.687 4.893 3.74 6.59 3.437L20.4 8.594V6.719c-1.164-.57-3.218-1.828-4.671-1.742-1.454.086-2.204 1.046-2.594 1.304Z" fill="url(#I)"/></g><g filter="url(#J)"><circle cx="13.715" cy="13.326" r="1.33" fill="url(#K)"/></g><g filter="url(#L)"><path d="M12.072 12.508c.258-.207.883-.578 1.95-.43" stroke="#0C0808" stroke-width=".55" stroke-linecap="round"/></g><g filter="url(#M)"><path d="M12.072 12.508c.258-.207.883-.578 1.95-.43" stroke="url(#N)" stroke-width=".15" stroke-linecap="round"/></g><g filter="url(#O)"><path d="M19.928 12.508c-.258-.207-.883-.578-1.95-.43" stroke="#0C0808" stroke-width=".55" stroke-linecap="round"/></g><g filter="url(#P)"><path d="M19.928 12.453c-.258-.207-.883-.578-1.95-.43" stroke="url(#Q)" stroke-width=".15" stroke-linecap="round"/></g><path d="M12.494 13.984c.146.164.536.45 1.024.47.617.023.949-.306 1.144-.47" stroke="url(#R)" stroke-width=".55" stroke-linecap="round"/><g filter="url(#S)"><path d="M12.494 13.984c.146.164.536.45 1.024.47.617.023.949-.306 1.144-.47" stroke="url(#T)" stroke-width=".15" stroke-linecap="round"/></g><path d="M17.385 13.984c.146.164.536.45 1.023.47.617.023.95-.306 1.145-.47" stroke="url(#U)" stroke-width=".55" stroke-linecap="round"/><g filter="url(#V)"><path d="M17.385 13.984c.146.164.536.45 1.023.47.617.023.95-.306 1.145-.47" stroke="url(#W)" stroke-width=".15" stroke-linecap="round"/></g><g filter="url(#X)"><path d="M15.872 13.71c-.163 0-.248.094-.297.255l-.887 2.205a.592.592 0 0 0 .112.554c.107.126.261.198.423.198h1a.555.555 0 0 0 .423-.198.592.592 0 0 0 .112-.554l-.677-2.205c-.05-.161-.045-.254-.209-.254Z" fill="#DC9F93"/></g><path d="M16 13.625a.375.375 0 0 0-.357.262l-.678 2.14a.561.561 0 0 0 .535.73h1a.561.561 0 0 0 .535-.73l-.677-2.14a.375.375 0 0 0-.358-.262Z" fill="#EDB7A0"/><path d="M16 13.625a.375.375 0 0 0-.357.262l-.678 2.14a.561.561 0 0 0 .535.73h1a.561.561 0 0 0 .535-.73l-.677-2.14a.375.375 0 0 0-.358-.262Z" fill="url(#Y)"/><path d="M16 13.625a.375.375 0 0 0-.357.262l-.678 2.14a.561.561 0 0 0 .535.73h1a.561.561 0 0 0 .535-.73l-.677-2.14a.375.375 0 0 0-.358-.262Z" fill="url(#Z)"/><path d="M16 13.625a.375.375 0 0 0-.357.262l-.678 2.14a.561.561 0 0 0 .535.73h1a.561.561 0 0 0 .535-.73l-.677-2.14a.375.375 0 0 0-.358-.262Z" fill="url(#aa)"/><g filter="url(#ab)"><path d="M14.357 17.333c.344.18.879.383 1.649.384.77 0 1.304-.204 1.648-.384.108-.057.243.013.25.135a.153.153 0 0 1-.014.076c-.76 1.472-3.066 1.456-3.769 0a.153.153 0 0 1-.014-.076c.008-.122.142-.192.25-.135Z" stroke="url(#ac)" stroke-width=".2"/></g><path d="M14.357 17.333c.344.18.879.383 1.649.384.77 0 1.304-.204 1.648-.384.108-.057.243.013.25.135a.153.153 0 0 1-.014.076c-.76 1.472-3.066 1.456-3.769 0a.153.153 0 0 1-.014-.076c.008-.122.142-.192.25-.135Z" fill="#87014D"/><g filter="url(#ad)"><path d="m9.469 9.011 1.31.78v3.433a.656.656 0 0 1-1.31 0V9.01Z" fill="url(#ae)"/></g><g filter="url(#af)"><path d="M8.688 2.271h3.426v3.484c0 .352.227 1.035.684 1.43.376.347 1.095 1.06 1.727 1.692a1.195 1.195 0 0 1-.026 1.714c-.454.429-1.088.362-1.553-.054l-.98-.74a.527.527 0 0 0-.88.393v3.327a1.2 1.2 0 1 1-2.398 0V2.271Z" fill="#EEBAA4"/><path d="M8.688 2.271h3.426v3.484c0 .352.227 1.035.684 1.43.376.347 1.095 1.06 1.727 1.692a1.195 1.195 0 0 1-.026 1.714c-.454.429-1.088.362-1.553-.054l-.98-.74a.527.527 0 0 0-.88.393v3.327a1.2 1.2 0 1 1-2.398 0V2.271Z" fill="url(#ag)"/></g><g filter="url(#ah)"><path d="M23.515 2.271h-3.426v3.484c0 .352-.227 1.035-.684 1.43a79.052 79.052 0 0 0-1.727 1.692 1.195 1.195 0 0 0 .026 1.714c.454.429 1.09.362 1.555-.054l.978-.74a.527.527 0 0 1 .88.393v3.327a1.2 1.2 0 1 0 2.398 0V2.271Z" fill="#EAB5A1"/></g><g filter="url(#ai)"><path d="M21.21 8.363 19.187 9.85c-.244.18-.47.42-.676.196-.22-.238-.007-.337.229-.56a51.545 51.545 0 0 1 1.99-1.785c.875-.734.85-2.109.828-2.57V2.554h1.704v10.713a.579.579 0 0 1-1.158 0V9.03c0-.402-.571-.906-.896-.667Z" fill="url(#aj)"/></g><g filter="url(#ak)"><path d="m9.559 9.243 1.31.78v3.433a.656.656 0 0 1-1.31 0V9.243Z" fill="url(#al)"/></g><g filter="url(#am)"><path d="M10.263 5.371v-2.9h1.468v3.535a1 1 0 0 0 .28.693l2.263 2.349a.46.46 0 0 1-.636.663l-2.364-2.094a3 3 0 0 1-1.011-2.246Z" fill="url(#an)"/><path d="M10.263 5.371v-2.9h1.468v3.535a1 1 0 0 0 .28.693l2.263 2.349a.46.46 0 0 1-.636.663l-2.364-2.094a3 3 0 0 1-1.011-2.246Z" fill="url(#ao)"/></g><defs><radialGradient id="b" cx="0" cy="0" r="1" gradientUnits="userSpaceOnUse" gradientTransform="matrix(-18.0313 0 0 -12.0938 23.481 28.313)"><stop stop-color="#936DD4"/><stop offset=".832" stop-color="#725698"/></radialGradient><radialGradient id="c" cx="0" cy="0" r="1" gradientUnits="userSpaceOnUse" gradientTransform="matrix(-4.16617 -7.1847 8.98984 -5.2129 23.982 28.248)"><stop offset=".079" stop-color="#9574DD"/><stop offset="1" stop-color="#9574DD" stop-opacity="0"/></radialGradient><radialGradient id="d" cx="0" cy="0" r="1" gradientUnits="userSpaceOnUse" gradientTransform="rotate(155.64 5.706 11.329) scale(10.8979 4.51152)"><stop offset=".303" stop-color="#6A3874"/><stop offset="1" stop-color="#7C4FA2" stop-opacity="0"/></radialGradient><radialGradient id="e" cx="0" cy="0" r="1" gradientUnits="userSpaceOnUse" gradientTransform="matrix(0 -9.5924 15.2389 0 16 30.313)"><stop offset=".867" stop-color="#623E81" stop-opacity="0"/><stop offset=".977" stop-color="#402452"/></radialGradient><radialGradient id="g" cx="0" cy="0" r="1" gradientUnits="userSpaceOnUse" gradientTransform="matrix(-5.56244 7.87504 -7.63171 -5.39056 25.318 13.875)"><stop offset=".198" stop-color="#342F31"/><stop offset="1" stop-color="#180F21"/></radialGradient><radialGradient id="h" cx="0" cy="0" r="1" gradientUnits="userSpaceOnUse" gradientTransform="rotate(147.139 10.128 11.737) scale(2.75089 2.7814)"><stop offset=".209" stop-color="#444243"/><stop offset="1" stop-color="#444243" stop-opacity="0"/></radialGradient><radialGradient id="j" cx="0" cy="0" r="1" gradientUnits="userSpaceOnUse" gradientTransform="rotate(152.281 3.899 10.46) scale(4.87131 9.06872)"><stop offset=".172" stop-color="#181419"/><stop offset="1" stop-color="#191717"/></radialGradient><radialGradient id="k" cx="0" cy="0" r="1" gradientUnits="userSpaceOnUse" gradientTransform="matrix(-1.82006 6.3586 -4.4708 -1.2797 9.243 10.892)"><stop offset=".286" stop-color="#4C4442"/><stop offset="1" stop-color="#4C4442" stop-opacity="0"/></radialGradient><radialGradient id="l" cx="0" cy="0" r="1" gradientUnits="userSpaceOnUse" gradientTransform="rotate(46.621 -12.223 17.133) scale(2.88068)"><stop stop-color="#D09281"/><stop offset="1" stop-color="#CF8B7B"/></radialGradient><radialGradient id="n" cx="0" cy="0" r="1" gradientUnits="userSpaceOnUse" gradientTransform="rotate(142.158 9.157 11.098) scale(1.19705 1.26073)"><stop stop-color="#FCCBB6"/><stop offset="1" stop-color="#EDB3A0"/></radialGradient><radialGradient id="p" cx="0" cy="0" r="1" gradientUnits="userSpaceOnUse" gradientTransform="matrix(.69531 0 0 .82031 21.666 14.584)"><stop offset=".188" stop-color="#F3BAA1"/><stop offset="1" stop-color="#F1B69C"/></radialGradient><radialGradient id="r" cx="0" cy="0" r="1" gradientUnits="userSpaceOnUse" gradientTransform="rotate(-62.753 18.114 -3.987) scale(2.02672 2.23997)"><stop offset=".347" stop-color="#FFB129"/><stop offset=".902" stop-color="#F39423"/></radialGradient><radialGradient id="s" cx="0" cy="0" r="1" gradientUnits="userSpaceOnUse" gradientTransform="rotate(142.016 5.189 14.596) scale(3.24973 2.31564)"><stop offset=".186" stop-color="#F1B99B"/><stop offset="1" stop-color="#F1B99B" stop-opacity="0"/></radialGradient><radialGradient id="t" cx="0" cy="0" r="1" gradientUnits="userSpaceOnUse" gradientTransform="matrix(1.4742 2.59113 -8.42594 4.79384 14.039 20.44)"><stop stop-color="#B4756A"/><stop offset="1" stop-color="#B4756A" stop-opacity="0"/></radialGradient><radialGradient id="v" cx="0" cy="0" r="1" gradientUnits="userSpaceOnUse" gradientTransform="rotate(174.247 9.378 7.946) scale(6.06562 7.0411)"><stop offset=".283" stop-color="#FFD2B9"/><stop offset="1" stop-color="#DE9E8B"/></radialGradient><radialGradient id="w" cx="0" cy="0" r="1" gradientUnits="userSpaceOnUse" gradientTransform="matrix(0 10.0892 -11.3554 0 16 10.975)"><stop offset=".717" stop-color="#BC7F8C" stop-opacity="0"/><stop offset="1" stop-color="#BC7F8C"/></radialGradient><radialGradient id="y" cx="0" cy="0" r="1" gradientUnits="userSpaceOnUse" gradientTransform="rotate(82.55 1.746 10.042) scale(9.33894 4.7703)"><stop stop-color="#A8624E"/><stop offset="1" stop-color="#E19A83"/></radialGradient><radialGradient id="A" cx="0" cy="0" r="1" gradientUnits="userSpaceOnUse" gradientTransform="rotate(105.755 7.023 12.744) scale(4.34957 3.12687)"><stop stop-color="#B4725C"/><stop offset="1" stop-color="#DB9883"/></radialGradient><radialGradient id="C" cx="0" cy="0" r="1" gradientUnits="userSpaceOnUse" gradientTransform="matrix(-1.37502 5.34375 -6.41397 -1.6504 17.88 4.74)"><stop stop-color="#494446"/><stop offset=".722" stop-color="#21181E"/></radialGradient><radialGradient id="D" cx="0" cy="0" r="1" gradientUnits="userSpaceOnUse" gradientTransform="matrix(2.0625 -1.6875 2.89382 3.5369 10.818 10.188)"><stop stop-color="#190A1E"/><stop offset="1" stop-color="#190A1E" stop-opacity="0"/></radialGradient><radialGradient id="E" cx="0" cy="0" r="1" gradientUnits="userSpaceOnUse" gradientTransform="rotate(-144.811 12.391 1.866) scale(2.98253 5.11462)"><stop stop-color="#190D13"/><stop offset="1" stop-color="#190D13" stop-opacity="0"/></radialGradient><radialGradient id="F" cx="0" cy="0" r="1" gradientUnits="userSpaceOnUse" gradientTransform="matrix(3.1875 -2.5625 .76061 .94612 12.13 6.656)"><stop stop-color="#595757"/><stop offset="1" stop-color="#595757" stop-opacity="0"/></radialGradient><radialGradient id="H" cx="0" cy="0" r="1" gradientUnits="userSpaceOnUse" gradientTransform="rotate(-58.443 17.078 -10.404) scale(4.65751 13.5396)"><stop offset=".512" stop-color="#3E393A" stop-opacity="0"/><stop offset=".952" stop-color="#5A5858"/></radialGradient><radialGradient id="I" cx="0" cy="0" r="1" gradientUnits="userSpaceOnUse" gradientTransform="matrix(-2.36877 -1.375 .63373 -1.09174 18.662 9.522)"><stop offset=".213" stop-color="#433E40"/><stop offset="1" stop-color="#433E40" stop-opacity="0"/></radialGradient><radialGradient id="K" cx="0" cy="0" r="1" gradientUnits="userSpaceOnUse" gradientTransform="rotate(-62.753 18.25 -4.13) scale(1.90544 2.10594)"><stop offset=".347" stop-color="#E3A998"/><stop offset=".902" stop-color="#D5988C"/></radialGradient><radialGradient id="R" cx="0" cy="0" r="1" gradientUnits="userSpaceOnUse" gradientTransform="matrix(0 -1.07812 3.27721 0 13.578 14.578)"><stop offset=".251" stop-color="#140A18"/><stop offset="1" stop-color="#0C0B0B"/></radialGradient><radialGradient id="U" cx="0" cy="0" r="1" gradientUnits="userSpaceOnUse" gradientTransform="matrix(0 -1.07812 3.27721 0 18.469 14.578)"><stop offset=".251" stop-color="#140A18"/><stop offset="1" stop-color="#0C0B0B"/></radialGradient><radialGradient id="Z" cx="0" cy="0" r="1" gradientUnits="userSpaceOnUse" gradientTransform="matrix(.19455 -1.08993 4.30797 .76898 16 16.758)"><stop offset=".03" stop-color="#DEA097"/><stop offset="1" stop-color="#DEA097" stop-opacity="0"/></radialGradient><radialGradient id="aa" cx="0" cy="0" r="1" gradientUnits="userSpaceOnUse" gradientTransform="matrix(.90625 0 0 .26563 16.542 15.959)"><stop stop-color="#FFD0BE"/><stop offset="1" stop-color="#FFD0BE" stop-opacity="0"/></radialGradient><radialGradient id="ac" cx="0" cy="0" r="1" gradientUnits="userSpaceOnUse" gradientTransform="matrix(.20312 -.39062 1.75486 .91253 14.92 18.344)"><stop offset=".156" stop-color="#E2AEA5"/><stop offset="1" stop-color="#E2AEA5" stop-opacity="0"/></radialGradient><radialGradient id="ag" cx="0" cy="0" r="1" gradientUnits="userSpaceOnUse" gradientTransform="rotate(-124.468 8.78 2.243) scale(3.17497 1.5867)"><stop offset=".236" stop-color="#C6857E"/><stop offset="1" stop-color="#DFAA9C" stop-opacity="0"/></radialGradient><radialGradient id="aj" cx="0" cy="0" r="1" gradientUnits="userSpaceOnUse" gradientTransform="matrix(5.8706 -6.28124 5.4446 5.08866 18.355 9.816)"><stop stop-color="#F8CAB8"/><stop offset="1" stop-color="#F8CAB8" stop-opacity="0"/></radialGradient><radialGradient id="an" cx="0" cy="0" r="1" gradientUnits="userSpaceOnUse" gradientTransform="matrix(0 -4.21875 .78125 0 11.1 6.347)"><stop stop-color="#FFDBC3"/><stop offset="1" stop-color="#FFDBC3" stop-opacity="0"/></radialGradient><radialGradient id="ao" cx="0" cy="0" r="1" gradientUnits="userSpaceOnUse" gradientTransform="matrix(-.95862 -1.07283 .90655 -.81004 14.402 9.827)"><stop offset=".187" stop-color="#FED1BE"/><stop offset="1" stop-color="#FED1BE" stop-opacity="0"/></radialGradient><filter id="a" x="5.649" y="20.764" width="21.451" height="8.965" filterUnits="userSpaceOnUse" color-interpolation-filters="sRGB"><feFlood flood-opacity="0" result="BackgroundImageFix"/><feBlend in="SourceGraphic" in2="BackgroundImageFix" result="shape"/><feColorMatrix in="SourceAlpha" values="0 0 0 0 0 0 0 0 0 0 0 0 0 0 0 0 0 0 127 0" result="hardAlpha"/><feOffset dy="-.3"/><feGaussianBlur stdDeviation=".3"/><feComposite in2="hardAlpha" operator="arithmetic" k2="-1" k3="1"/><feColorMatrix values="0 0 0 0 0.458824 0 0 0 0 0.27451 0 0 0 0 0.780392 0 0 0 1 0"/><feBlend in2="shape" result="effect1_innerShadow_3987_24269"/><feColorMatrix in="SourceAlpha" values="0 0 0 0 0 0 0 0 0 0 0 0 0 0 0 0 0 0 127 0" result="hardAlpha"/><feOffset dx=".75"/><feGaussianBlur stdDeviation=".625"/><feComposite in2="hardAlpha" operator="arithmetic" k2="-1" k3="1"/><feColorMatrix values="0 0 0 0 0.454902 0 0 0 0 0.376471 0 0 0 0 0.6 0 0 0 1 0"/><feBlend in2="effect1_innerShadow_3987_24269" result="effect2_innerShadow_3987_24269"/></filter><filter id="f" x="16.543" y="9.59" width="8.434" height="11.989" filterUnits="userSpaceOnUse" color-interpolation-filters="sRGB"><feFlood flood-opacity="0" result="BackgroundImageFix"/><feBlend in="SourceGraphic" in2="BackgroundImageFix" result="shape"/><feColorMatrix in="SourceAlpha" values="0 0 0 0 0 0 0 0 0 0 0 0 0 0 0 0 0 0 127 0" result="hardAlpha"/><feOffset dx=".4" dy="-.25"/><feGaussianBlur stdDeviation=".4"/><feComposite in2="hardAlpha" operator="arithmetic" k2="-1" k3="1"/><feColorMatrix values="0 0 0 0 0.0588235 0 0 0 0 0.0313726 0 0 0 0 0.113725 0 0 0 1 0"/><feBlend in2="shape" result="effect1_innerShadow_3987_24269"/></filter><filter id="i" x="7.173" y="9.54" width="8.784" height="12.039" filterUnits="userSpaceOnUse" color-interpolation-filters="sRGB"><feFlood flood-opacity="0" result="BackgroundImageFix"/><feBlend in="SourceGraphic" in2="BackgroundImageFix" result="shape"/><feColorMatrix in="SourceAlpha" values="0 0 0 0 0 0 0 0 0 0 0 0 0 0 0 0 0 0 127 0" result="hardAlpha"/><feOffset dx=".5"/><feGaussianBlur stdDeviation=".5"/><feComposite in2="hardAlpha" operator="arithmetic" k2="-1" k3="1"/><feColorMatrix values="0 0 0 0 0.266667 0 0 0 0 0.227451 0 0 0 0 0.219608 0 0 0 1 0"/><feBlend in2="shape" result="effect1_innerShadow_3987_24269"/><feColorMatrix in="SourceAlpha" values="0 0 0 0 0 0 0 0 0 0 0 0 0 0 0 0 0 0 127 0" result="hardAlpha"/><feOffset dx="-.25" dy="-.3"/><feGaussianBlur stdDeviation=".5"/><feComposite in2="hardAlpha" operator="arithmetic" k2="-1" k3="1"/><feColorMatrix values="0 0 0 0 0.0470588 0 0 0 0 0.0156863 0 0 0 0 0.0666667 0 0 0 1 0"/><feBlend in2="effect1_innerShadow_3987_24269" result="effect2_innerShadow_3987_24269"/></filter><filter id="m" x="9.111" y="12.872" width="2.986" height="2.986" filterUnits="userSpaceOnUse" color-interpolation-filters="sRGB"><feFlood flood-opacity="0" result="BackgroundImageFix"/><feBlend in="SourceGraphic" in2="BackgroundImageFix" result="shape"/><feGaussianBlur stdDeviation=".1" result="effect1_foregroundBlur_3987_24269"/></filter><filter id="o" x="19.904" y="12.872" width="2.986" height="2.986" filterUnits="userSpaceOnUse" color-interpolation-filters="sRGB"><feFlood flood-opacity="0" result="BackgroundImageFix"/><feBlend in="SourceGraphic" in2="BackgroundImageFix" result="shape"/><feGaussianBlur stdDeviation=".1" result="effect1_foregroundBlur_3987_24269"/></filter><filter id="q" x="11.609" y="11.327" width="3.829" height="3.829" filterUnits="userSpaceOnUse" color-interpolation-filters="sRGB"><feFlood flood-opacity="0" result="BackgroundImageFix"/><feBlend in="SourceGraphic" in2="BackgroundImageFix" result="shape"/><feGaussianBlur stdDeviation=".25" result="effect1_foregroundBlur_3987_24269"/></filter><filter id="u" x="10.24" y="5.806" width="12.021" height="15.258" filterUnits="userSpaceOnUse" color-interpolation-filters="sRGB"><feFlood flood-opacity="0" result="BackgroundImageFix"/><feBlend in="SourceGraphic" in2="BackgroundImageFix" result="shape"/><feColorMatrix in="SourceAlpha" values="0 0 0 0 0 0 0 0 0 0 0 0 0 0 0 0 0 0 127 0" result="hardAlpha"/><feOffset dx=".5"/><feGaussianBlur stdDeviation=".375"/><feComposite in2="hardAlpha" operator="arithmetic" k2="-1" k3="1"/><feColorMatrix values="0 0 0 0 0.890196 0 0 0 0 0.658824 0 0 0 0 0.572549 0 0 0 1 0"/><feBlend in2="shape" result="effect1_innerShadow_3987_24269"/></filter><filter id="x" x="8.271" y="1.405" width="8.186" height="14.251" filterUnits="userSpaceOnUse" color-interpolation-filters="sRGB"><feFlood flood-opacity="0" result="BackgroundImageFix"/><feBlend in="SourceGraphic" in2="BackgroundImageFix" result="shape"/><feGaussianBlur stdDeviation=".5" result="effect1_foregroundBlur_3987_24269"/></filter><filter id="z" x="15.46" y="5.438" width="8.186" height="10.454" filterUnits="userSpaceOnUse" color-interpolation-filters="sRGB"><feFlood flood-opacity="0" result="BackgroundImageFix"/><feBlend in="SourceGraphic" in2="BackgroundImageFix" result="shape"/><feGaussianBlur stdDeviation=".5" result="effect1_foregroundBlur_3987_24269"/></filter><filter id="B" x="10.508" y="4.104" width="11.186" height="6.923" filterUnits="userSpaceOnUse" color-interpolation-filters="sRGB"><feFlood flood-opacity="0" result="BackgroundImageFix"/><feBlend in="SourceGraphic" in2="BackgroundImageFix" result="shape"/><feColorMatrix in="SourceAlpha" values="0 0 0 0 0 0 0 0 0 0 0 0 0 0 0 0 0 0 127 0" result="hardAlpha"/><feOffset dy="-.4"/><feGaussianBlur stdDeviation=".3"/><feComposite in2="hardAlpha" operator="arithmetic" k2="-1" k3="1"/><feColorMatrix values="0 0 0 0 0.105882 0 0 0 0 0.0470588 0 0 0 0 0.121569 0 0 0 1 0"/><feBlend in2="shape" result="effect1_innerShadow_3987_24269"/></filter><filter id="G" x="11.935" y="4.722" width="8.715" height="5.797" filterUnits="userSpaceOnUse" color-interpolation-filters="sRGB"><feFlood flood-opacity="0" result="BackgroundImageFix"/><feBlend in="SourceGraphic" in2="BackgroundImageFix" result="shape"/><feGaussianBlur stdDeviation=".125" result="effect1_foregroundBlur_3987_24269"/></filter><filter id="J" x="11.885" y="11.496" width="3.66" height="3.66" filterUnits="userSpaceOnUse" color-interpolation-filters="sRGB"><feFlood flood-opacity="0" result="BackgroundImageFix"/><feBlend in="SourceGraphic" in2="BackgroundImageFix" result="shape"/><feGaussianBlur stdDeviation=".25" result="effect1_foregroundBlur_3987_24269"/></filter><filter id="L" x="11.797" y="11.769" width="2.699" height="1.214" filterUnits="userSpaceOnUse" color-interpolation-filters="sRGB"><feFlood flood-opacity="0" result="BackgroundImageFix"/><feBlend in="SourceGraphic" in2="BackgroundImageFix" result="shape"/><feColorMatrix in="SourceAlpha" values="0 0 0 0 0 0 0 0 0 0 0 0 0 0 0 0 0 0 127 0" result="hardAlpha"/><feOffset dx=".2" dy=".2"/><feGaussianBlur stdDeviation=".1"/><feComposite in2="hardAlpha" operator="arithmetic" k2="-1" k3="1"/><feColorMatrix values="0 0 0 0 0.0431373 0 0 0 0 0.0235294 0 0 0 0 0.054902 0 0 0 1 0"/><feBlend in2="shape" result="effect1_innerShadow_3987_24269"/></filter><filter id="M" x="11.847" y="11.819" width="2.399" height=".914" filterUnits="userSpaceOnUse" color-interpolation-filters="sRGB"><feFlood flood-opacity="0" result="BackgroundImageFix"/><feBlend in="SourceGraphic" in2="BackgroundImageFix" result="shape"/><feGaussianBlur stdDeviation=".075" result="effect1_foregroundBlur_3987_24269"/></filter><filter id="O" x="17.703" y="11.769" width="2.699" height="1.214" filterUnits="userSpaceOnUse" color-interpolation-filters="sRGB"><feFlood flood-opacity="0" result="BackgroundImageFix"/><feBlend in="SourceGraphic" in2="BackgroundImageFix" result="shape"/><feColorMatrix in="SourceAlpha" values="0 0 0 0 0 0 0 0 0 0 0 0 0 0 0 0 0 0 127 0" result="hardAlpha"/><feOffset dx=".2" dy=".2"/><feGaussianBlur stdDeviation=".1"/><feComposite in2="hardAlpha" operator="arithmetic" k2="-1" k3="1"/><feColorMatrix values="0 0 0 0 0.0431373 0 0 0 0 0.0235294 0 0 0 0 0.054902 0 0 0 1 0"/><feBlend in2="shape" result="effect1_innerShadow_3987_24269"/></filter><filter id="P" x="17.753" y="11.764" width="2.399" height=".914" filterUnits="userSpaceOnUse" color-interpolation-filters="sRGB"><feFlood flood-opacity="0" result="BackgroundImageFix"/><feBlend in="SourceGraphic" in2="BackgroundImageFix" result="shape"/><feGaussianBlur stdDeviation=".075" result="effect1_foregroundBlur_3987_24269"/></filter><filter id="S" x="12.269" y="13.759" width="2.618" height=".92" filterUnits="userSpaceOnUse" color-interpolation-filters="sRGB"><feFlood flood-opacity="0" result="BackgroundImageFix"/><feBlend in="SourceGraphic" in2="BackgroundImageFix" result="shape"/><feGaussianBlur stdDeviation=".075" result="effect1_foregroundBlur_3987_24269"/></filter><filter id="V" x="17.16" y="13.759" width="2.618" height=".92" filterUnits="userSpaceOnUse" color-interpolation-filters="sRGB"><feFlood flood-opacity="0" result="BackgroundImageFix"/><feBlend in="SourceGraphic" in2="BackgroundImageFix" result="shape"/><feGaussianBlur stdDeviation=".075" result="effect1_foregroundBlur_3987_24269"/></filter><filter id="X" x="14.162" y="13.211" width="3.122" height="4.211" filterUnits="userSpaceOnUse" color-interpolation-filters="sRGB"><feFlood flood-opacity="0" result="BackgroundImageFix"/><feBlend in="SourceGraphic" in2="BackgroundImageFix" result="shape"/><feGaussianBlur stdDeviation=".25" result="effect1_foregroundBlur_3987_24269"/></filter><filter id="ab" x="13.906" y="17.113" width="4.199" height="1.729" filterUnits="userSpaceOnUse" color-interpolation-filters="sRGB"><feFlood flood-opacity="0" result="BackgroundImageFix"/><feBlend in="SourceGraphic" in2="BackgroundImageFix" result="shape"/><feGaussianBlur stdDeviation=".05" result="effect1_foregroundBlur_3987_24269"/></filter><filter id="ad" x="8.719" y="8.261" width="2.811" height="6.368" filterUnits="userSpaceOnUse" color-interpolation-filters="sRGB"><feFlood flood-opacity="0" result="BackgroundImageFix"/><feBlend in="SourceGraphic" in2="BackgroundImageFix" result="shape"/><feGaussianBlur stdDeviation=".375" result="effect1_foregroundBlur_3987_24269"/></filter><filter id="af" x="8.688" y="2.071" width="6.686" height="12.645" filterUnits="userSpaceOnUse" color-interpolation-filters="sRGB"><feFlood flood-opacity="0" result="BackgroundImageFix"/><feBlend in="SourceGraphic" in2="BackgroundImageFix" result="shape"/><feColorMatrix in="SourceAlpha" values="0 0 0 0 0 0 0 0 0 0 0 0 0 0 0 0 0 0 127 0" result="hardAlpha"/><feOffset dx=".5" dy="-.2"/><feGaussianBlur stdDeviation=".625"/><feComposite in2="hardAlpha" operator="arithmetic" k2="-1" k3="1"/><feColorMatrix values="0 0 0 0 0.886275 0 0 0 0 0.662745 0 0 0 0 0.584314 0 0 0 1 0"/><feBlend in2="shape" result="effect1_innerShadow_3987_24269"/></filter><filter id="ah" x="17.329" y="2.021" width="6.436" height="12.695" filterUnits="userSpaceOnUse" color-interpolation-filters="sRGB"><feFlood flood-opacity="0" result="BackgroundImageFix"/><feBlend in="SourceGraphic" in2="BackgroundImageFix" result="shape"/><feColorMatrix in="SourceAlpha" values="0 0 0 0 0 0 0 0 0 0 0 0 0 0 0 0 0 0 127 0" result="hardAlpha"/><feOffset dx=".25" dy="-.25"/><feGaussianBlur stdDeviation=".5"/><feComposite in2="hardAlpha" operator="arithmetic" k2="-1" k3="1"/><feColorMatrix values="0 0 0 0 0.780392 0 0 0 0 0.588235 0 0 0 0 0.498039 0 0 0 1 0"/><feBlend in2="shape" result="effect1_innerShadow_3987_24269"/></filter><filter id="ai" x="17.92" y="2.054" width="5.843" height="12.292" filterUnits="userSpaceOnUse" color-interpolation-filters="sRGB"><feFlood flood-opacity="0" result="BackgroundImageFix"/><feBlend in="SourceGraphic" in2="BackgroundImageFix" result="shape"/><feGaussianBlur stdDeviation=".25" result="effect1_foregroundBlur_3987_24269"/></filter><filter id="ak" x="8.809" y="8.493" width="2.811" height="6.368" filterUnits="userSpaceOnUse" color-interpolation-filters="sRGB"><feFlood flood-opacity="0" result="BackgroundImageFix"/><feBlend in="SourceGraphic" in2="BackgroundImageFix" result="shape"/><feGaussianBlur stdDeviation=".375" result="effect1_foregroundBlur_3987_24269"/></filter><filter id="am" x="9.763" y="1.971" width="5.14" height="8.355" filterUnits="userSpaceOnUse" color-interpolation-filters="sRGB"><feFlood flood-opacity="0" result="BackgroundImageFix"/><feBlend in="SourceGraphic" in2="BackgroundImageFix" result="shape"/><feGaussianBlur stdDeviation=".25" result="effect1_foregroundBlur_3987_24269"/></filter><linearGradient id="N" x1="14.021" y1="12.044" x2="11.81" y2="12.508" gradientUnits="userSpaceOnUse"><stop stop-color="#2C2C2D"/><stop offset="1" stop-color="#2C2C2D" stop-opacity="0"/></linearGradient><linearGradient id="Q" x1="17.979" y1="11.989" x2="20.19" y2="12.453" gradientUnits="userSpaceOnUse"><stop stop-color="#2C2C2D"/><stop offset="1" stop-color="#2C2C2D" stop-opacity="0"/></linearGradient><linearGradient id="T" x1="14.936" y1="13.984" x2="12.494" y2="13.984" gradientUnits="userSpaceOnUse"><stop offset=".045" stop-color="#2D2D2D"/><stop offset=".32" stop-color="#242425"/><stop offset=".794" stop-color="#242425"/><stop offset="1" stop-color="#2E2E2E"/></linearGradient><linearGradient id="W" x1="19.826" y1="13.984" x2="17.385" y2="13.984" gradientUnits="userSpaceOnUse"><stop offset=".045" stop-color="#2D2D2D"/><stop offset=".32" stop-color="#242425"/><stop offset=".794" stop-color="#242425"/><stop offset="1" stop-color="#2E2E2E"/></linearGradient><linearGradient id="Y" x1="16.886" y1="15.49" x2="15.849" y2="15.54" gradientUnits="userSpaceOnUse"><stop offset=".106" stop-color="#FFD3BD"/><stop offset="1" stop-color="#FFD3BD" stop-opacity="0"/></linearGradient><linearGradient id="ae" x1="10.124" y1="13.097" x2="10.124" y2="8.266" gradientUnits="userSpaceOnUse"><stop stop-color="#FFCA3E"/><stop offset="1" stop-color="#FFCB3B" stop-opacity="0"/></linearGradient><linearGradient id="al" x1="10.214" y1="13.329" x2="10.214" y2="8.498" gradientUnits="userSpaceOnUse"><stop stop-color="#F2BEB0"/><stop offset="1" stop-color="#F2BEB0" stop-opacity="0"/></linearGradient></defs></svg>