<svg width="32" height="32" fill="none" xmlns="http://www.w3.org/2000/svg"><g filter="url(#a)" fill-rule="evenodd" clip-rule="evenodd"><path d="M23.216 11.983c.213-.435.324-.921.324-1.427 0-.467-.096-.906-.268-1.305h.005a3.183 3.183 0 0 0-.281-.513l-.002-.004a3.24 3.24 0 0 1-.526-1.77v-.01a3.3 3.3 0 0 0-3.3-3.3.54.54 0 0 1-.455-.233 3.306 3.306 0 0 0-2.682-1.376 3.306 3.306 0 0 0-2.682 1.376.565.565 0 0 1-.455.233l-.085.001a3.3 3.3 0 0 0-3.214 3.298v.01a3.24 3.24 0 0 1-.526 1.771l-.003.004a3.3 3.3 0 0 0-.22 3.245c.07.142.07.314 0 .455-.202.425-.324.901-.324 1.407a3.213 3.213 0 0 0 3.218 3.218h8.582a3.213 3.213 0 0 0 2.895-4.625.515.515 0 0 1 0-.455Zm-12.26-2.672h-.012l1.199 2.355c.123 2.803 1.217 0 3.888 0 2.672 0 3.837 3.12 3.96.317l1.136-3.197c-.054-1.245-.956-1.332-1.136-1.332h-3.22a3.862 3.862 0 0 1-3.19-1.674.264.264 0 0 0-.46.051l-.083.194a2.304 2.304 0 0 1-1.24 1.255l-.052.02c-.236.123-.79.49-.81 1.44l.01.305.01.266Z" fill="url(#b)"/><path d="M23.216 11.983c.213-.435.324-.921.324-1.427 0-.467-.096-.906-.268-1.305h.005a3.183 3.183 0 0 0-.281-.513l-.002-.004a3.24 3.24 0 0 1-.526-1.77v-.01a3.3 3.3 0 0 0-3.3-3.3.54.54 0 0 1-.455-.233 3.306 3.306 0 0 0-2.682-1.376 3.306 3.306 0 0 0-2.682 1.376.565.565 0 0 1-.455.233l-.085.001a3.3 3.3 0 0 0-3.214 3.298v.01a3.24 3.24 0 0 1-.526 1.771l-.003.004a3.3 3.3 0 0 0-.22 3.245c.07.142.07.314 0 .455-.202.425-.324.901-.324 1.407a3.213 3.213 0 0 0 3.218 3.218h8.582a3.213 3.213 0 0 0 2.895-4.625.515.515 0 0 1 0-.455Zm-12.26-2.672h-.012l1.199 2.355c.123 2.803 1.217 0 3.888 0 2.672 0 3.837 3.12 3.96.317l1.136-3.197c-.054-1.245-.956-1.332-1.136-1.332h-3.22a3.862 3.862 0 0 1-3.19-1.674.264.264 0 0 0-.46.051l-.083.194a2.304 2.304 0 0 1-1.24 1.255l-.052.02c-.236.123-.79.49-.81 1.44l.01.305.01.266Z" fill="url(#c)"/><path d="M23.216 11.983c.213-.435.324-.921.324-1.427 0-.467-.096-.906-.268-1.305h.005a3.183 3.183 0 0 0-.281-.513l-.002-.004a3.24 3.24 0 0 1-.526-1.77v-.01a3.3 3.3 0 0 0-3.3-3.3.54.54 0 0 1-.455-.233 3.306 3.306 0 0 0-2.682-1.376 3.306 3.306 0 0 0-2.682 1.376.565.565 0 0 1-.455.233l-.085.001a3.3 3.3 0 0 0-3.214 3.298v.01a3.24 3.24 0 0 1-.526 1.771l-.003.004a3.3 3.3 0 0 0-.22 3.245c.07.142.07.314 0 .455-.202.425-.324.901-.324 1.407a3.213 3.213 0 0 0 3.218 3.218h8.582a3.213 3.213 0 0 0 2.895-4.625.515.515 0 0 1 0-.455Zm-12.26-2.672h-.012l1.199 2.355c.123 2.803 1.217 0 3.888 0 2.672 0 3.837 3.12 3.96.317l1.136-3.197c-.054-1.245-.956-1.332-1.136-1.332h-3.22a3.862 3.862 0 0 1-3.19-1.674.264.264 0 0 0-.46.051l-.083.194a2.304 2.304 0 0 1-1.24 1.255l-.052.02c-.236.123-.79.49-.81 1.44l.01.305.01.266Z" fill="url(#d)"/><path d="M23.216 11.983c.213-.435.324-.921.324-1.427 0-.467-.096-.906-.268-1.305h.005a3.183 3.183 0 0 0-.281-.513l-.002-.004a3.24 3.24 0 0 1-.526-1.77v-.01a3.3 3.3 0 0 0-3.3-3.3.54.54 0 0 1-.455-.233 3.306 3.306 0 0 0-2.682-1.376 3.306 3.306 0 0 0-2.682 1.376.565.565 0 0 1-.455.233l-.085.001a3.3 3.3 0 0 0-3.214 3.298v.01a3.24 3.24 0 0 1-.526 1.771l-.003.004a3.3 3.3 0 0 0-.22 3.245c.07.142.07.314 0 .455-.202.425-.324.901-.324 1.407a3.213 3.213 0 0 0 3.218 3.218h8.582a3.213 3.213 0 0 0 2.895-4.625.515.515 0 0 1 0-.455Zm-12.26-2.672h-.012l1.199 2.355c.123 2.803 1.217 0 3.888 0 2.672 0 3.837 3.12 3.96.317l1.136-3.197c-.054-1.245-.956-1.332-1.136-1.332h-3.22a3.862 3.862 0 0 1-3.19-1.674.264.264 0 0 0-.46.051l-.083.194a2.304 2.304 0 0 1-1.24 1.255l-.052.02c-.236.123-.79.49-.81 1.44l.01.305.01.266Z" fill="url(#e)"/><path d="M23.216 11.983c.213-.435.324-.921.324-1.427 0-.467-.096-.906-.268-1.305h.005a3.183 3.183 0 0 0-.281-.513l-.002-.004a3.24 3.24 0 0 1-.526-1.77v-.01a3.3 3.3 0 0 0-3.3-3.3.54.54 0 0 1-.455-.233 3.306 3.306 0 0 0-2.682-1.376 3.306 3.306 0 0 0-2.682 1.376.565.565 0 0 1-.455.233l-.085.001a3.3 3.3 0 0 0-3.214 3.298v.01a3.24 3.24 0 0 1-.526 1.771l-.003.004a3.3 3.3 0 0 0-.22 3.245c.07.142.07.314 0 .455-.202.425-.324.901-.324 1.407a3.213 3.213 0 0 0 3.218 3.218h8.582a3.213 3.213 0 0 0 2.895-4.625.515.515 0 0 1 0-.455Zm-12.26-2.672h-.012l1.199 2.355c.123 2.803 1.217 0 3.888 0 2.672 0 3.837 3.12 3.96.317l1.136-3.197c-.054-1.245-.956-1.332-1.136-1.332h-3.22a3.862 3.862 0 0 1-3.19-1.674.264.264 0 0 0-.46.051l-.083.194a2.304 2.304 0 0 1-1.24 1.255l-.052.02c-.236.123-.79.49-.81 1.44l.01.305.01.266Z" fill="url(#f)"/><path d="M23.216 11.983c.213-.435.324-.921.324-1.427 0-.467-.096-.906-.268-1.305h.005a3.183 3.183 0 0 0-.281-.513l-.002-.004a3.24 3.24 0 0 1-.526-1.77v-.01a3.3 3.3 0 0 0-3.3-3.3.54.54 0 0 1-.455-.233 3.306 3.306 0 0 0-2.682-1.376 3.306 3.306 0 0 0-2.682 1.376.565.565 0 0 1-.455.233l-.085.001a3.3 3.3 0 0 0-3.214 3.298v.01a3.24 3.24 0 0 1-.526 1.771l-.003.004a3.3 3.3 0 0 0-.22 3.245c.07.142.07.314 0 .455-.202.425-.324.901-.324 1.407a3.213 3.213 0 0 0 3.218 3.218h8.582a3.213 3.213 0 0 0 2.895-4.625.515.515 0 0 1 0-.455Zm-12.26-2.672h-.012l1.199 2.355c.123 2.803 1.217 0 3.888 0 2.672 0 3.837 3.12 3.96.317l1.136-3.197c-.054-1.245-.956-1.332-1.136-1.332h-3.22a3.862 3.862 0 0 1-3.19-1.674.264.264 0 0 0-.46.051l-.083.194a2.304 2.304 0 0 1-1.24 1.255l-.052.02c-.236.123-.79.49-.81 1.44l.01.305.01.266Z" fill="url(#g)"/><path d="M23.216 11.983c.213-.435.324-.921.324-1.427 0-.467-.096-.906-.268-1.305h.005a3.183 3.183 0 0 0-.281-.513l-.002-.004a3.24 3.24 0 0 1-.526-1.77v-.01a3.3 3.3 0 0 0-3.3-3.3.54.54 0 0 1-.455-.233 3.306 3.306 0 0 0-2.682-1.376 3.306 3.306 0 0 0-2.682 1.376.565.565 0 0 1-.455.233l-.085.001a3.3 3.3 0 0 0-3.214 3.298v.01a3.24 3.24 0 0 1-.526 1.771l-.003.004a3.3 3.3 0 0 0-.22 3.245c.07.142.07.314 0 .455-.202.425-.324.901-.324 1.407a3.213 3.213 0 0 0 3.218 3.218h8.582a3.213 3.213 0 0 0 2.895-4.625.515.515 0 0 1 0-.455Zm-12.26-2.672h-.012l1.199 2.355c.123 2.803 1.217 0 3.888 0 2.672 0 3.837 3.12 3.96.317l1.136-3.197c-.054-1.245-.956-1.332-1.136-1.332h-3.22a3.862 3.862 0 0 1-3.19-1.674.264.264 0 0 0-.46.051l-.083.194a2.304 2.304 0 0 1-1.24 1.255l-.052.02c-.236.123-.79.49-.81 1.44l.01.305.01.266Z" fill="url(#h)"/><path d="M23.216 11.983c.213-.435.324-.921.324-1.427 0-.467-.096-.906-.268-1.305h.005a3.183 3.183 0 0 0-.281-.513l-.002-.004a3.24 3.24 0 0 1-.526-1.77v-.01a3.3 3.3 0 0 0-3.3-3.3.54.54 0 0 1-.455-.233 3.306 3.306 0 0 0-2.682-1.376 3.306 3.306 0 0 0-2.682 1.376.565.565 0 0 1-.455.233l-.085.001a3.3 3.3 0 0 0-3.214 3.298v.01a3.24 3.24 0 0 1-.526 1.771l-.003.004a3.3 3.3 0 0 0-.22 3.245c.07.142.07.314 0 .455-.202.425-.324.901-.324 1.407a3.213 3.213 0 0 0 3.218 3.218h8.582a3.213 3.213 0 0 0 2.895-4.625.515.515 0 0 1 0-.455Zm-12.26-2.672h-.012l1.199 2.355c.123 2.803 1.217 0 3.888 0 2.672 0 3.837 3.12 3.96.317l1.136-3.197c-.054-1.245-.956-1.332-1.136-1.332h-3.22a3.862 3.862 0 0 1-3.19-1.674.264.264 0 0 0-.46.051l-.083.194a2.304 2.304 0 0 1-1.24 1.255l-.052.02c-.236.123-.79.49-.81 1.44l.01.305.01.266Z" fill="url(#i)"/><path d="M23.216 11.983c.213-.435.324-.921.324-1.427 0-.467-.096-.906-.268-1.305h.005a3.183 3.183 0 0 0-.281-.513l-.002-.004a3.24 3.24 0 0 1-.526-1.77v-.01a3.3 3.3 0 0 0-3.3-3.3.54.54 0 0 1-.455-.233 3.306 3.306 0 0 0-2.682-1.376 3.306 3.306 0 0 0-2.682 1.376.565.565 0 0 1-.455.233l-.085.001a3.3 3.3 0 0 0-3.214 3.298v.01a3.24 3.24 0 0 1-.526 1.771l-.003.004a3.3 3.3 0 0 0-.22 3.245c.07.142.07.314 0 .455-.202.425-.324.901-.324 1.407a3.213 3.213 0 0 0 3.218 3.218h8.582a3.213 3.213 0 0 0 2.895-4.625.515.515 0 0 1 0-.455Zm-12.26-2.672h-.012l1.199 2.355c.123 2.803 1.217 0 3.888 0 2.672 0 3.837 3.12 3.96.317l1.136-3.197c-.054-1.245-.956-1.332-1.136-1.332h-3.22a3.862 3.862 0 0 1-3.19-1.674.264.264 0 0 0-.46.051l-.083.194a2.304 2.304 0 0 1-1.24 1.255l-.052.02c-.236.123-.79.49-.81 1.44l.01.305.01.266Z" fill="url(#j)"/><path d="M23.216 11.983c.213-.435.324-.921.324-1.427 0-.467-.096-.906-.268-1.305h.005a3.183 3.183 0 0 0-.281-.513l-.002-.004a3.24 3.24 0 0 1-.526-1.77v-.01a3.3 3.3 0 0 0-3.3-3.3.54.54 0 0 1-.455-.233 3.306 3.306 0 0 0-2.682-1.376 3.306 3.306 0 0 0-2.682 1.376.565.565 0 0 1-.455.233l-.085.001a3.3 3.3 0 0 0-3.214 3.298v.01a3.24 3.24 0 0 1-.526 1.771l-.003.004a3.3 3.3 0 0 0-.22 3.245c.07.142.07.314 0 .455-.202.425-.324.901-.324 1.407a3.213 3.213 0 0 0 3.218 3.218h8.582a3.213 3.213 0 0 0 2.895-4.625.515.515 0 0 1 0-.455Zm-12.26-2.672h-.012l1.199 2.355c.123 2.803 1.217 0 3.888 0 2.672 0 3.837 3.12 3.96.317l1.136-3.197c-.054-1.245-.956-1.332-1.136-1.332h-3.22a3.862 3.862 0 0 1-3.19-1.674.264.264 0 0 0-.46.051l-.083.194a2.304 2.304 0 0 1-1.24 1.255l-.052.02c-.236.123-.79.49-.81 1.44l.01.305.01.266Z" fill="url(#k)"/><path d="M23.216 11.983c.213-.435.324-.921.324-1.427 0-.467-.096-.906-.268-1.305h.005a3.183 3.183 0 0 0-.281-.513l-.002-.004a3.24 3.24 0 0 1-.526-1.77v-.01a3.3 3.3 0 0 0-3.3-3.3.54.54 0 0 1-.455-.233 3.306 3.306 0 0 0-2.682-1.376 3.306 3.306 0 0 0-2.682 1.376.565.565 0 0 1-.455.233l-.085.001a3.3 3.3 0 0 0-3.214 3.298v.01a3.24 3.24 0 0 1-.526 1.771l-.003.004a3.3 3.3 0 0 0-.22 3.245c.07.142.07.314 0 .455-.202.425-.324.901-.324 1.407a3.213 3.213 0 0 0 3.218 3.218h8.582a3.213 3.213 0 0 0 2.895-4.625.515.515 0 0 1 0-.455Zm-12.26-2.672h-.012l1.199 2.355c.123 2.803 1.217 0 3.888 0 2.672 0 3.837 3.12 3.96.317l1.136-3.197c-.054-1.245-.956-1.332-1.136-1.332h-3.22a3.862 3.862 0 0 1-3.19-1.674.264.264 0 0 0-.46.051l-.083.194a2.304 2.304 0 0 1-1.24 1.255l-.052.02c-.236.123-.79.49-.81 1.44l.01.305.01.266Z" fill="url(#l)"/><path d="M23.216 11.983c.213-.435.324-.921.324-1.427 0-.467-.096-.906-.268-1.305h.005a3.183 3.183 0 0 0-.281-.513l-.002-.004a3.24 3.24 0 0 1-.526-1.77v-.01a3.3 3.3 0 0 0-3.3-3.3.54.54 0 0 1-.455-.233 3.306 3.306 0 0 0-2.682-1.376 3.306 3.306 0 0 0-2.682 1.376.565.565 0 0 1-.455.233l-.085.001a3.3 3.3 0 0 0-3.214 3.298v.01a3.24 3.24 0 0 1-.526 1.771l-.003.004a3.3 3.3 0 0 0-.22 3.245c.07.142.07.314 0 .455-.202.425-.324.901-.324 1.407a3.213 3.213 0 0 0 3.218 3.218h8.582a3.213 3.213 0 0 0 2.895-4.625.515.515 0 0 1 0-.455Zm-12.26-2.672h-.012l1.199 2.355c.123 2.803 1.217 0 3.888 0 2.672 0 3.837 3.12 3.96.317l1.136-3.197c-.054-1.245-.956-1.332-1.136-1.332h-3.22a3.862 3.862 0 0 1-3.19-1.674.264.264 0 0 0-.46.051l-.083.194a2.304 2.304 0 0 1-1.24 1.255l-.052.02c-.236.123-.79.49-.81 1.44l.01.305.01.266Z" fill="url(#m)"/></g><path d="M2.063 29.955c0-1.969.39-6.76 3.216-9.86C8.81 16.222 13.793 15.643 16 15.643c2.207 0 7.19.579 10.721 4.454 2.826 3.1 3.216 7.89 3.216 9.859H2.063Z" fill="url(#n)"/><path d="M2.063 29.955c0-1.969.39-6.76 3.216-9.86C8.81 16.222 13.793 15.643 16 15.643c2.207 0 7.19.579 10.721 4.454 2.826 3.1 3.216 7.89 3.216 9.859H2.063Z" fill="url(#o)"/><g filter="url(#p)"><path d="M3.344 29.955c0-1.887.355-6.479 2.92-9.45 3.207-3.715 7.732-4.269 9.736-4.269 2.004 0 6.529.554 9.736 4.269 2.565 2.971 2.92 7.563 2.92 9.45H3.344Z" fill="url(#q)"/></g><path d="M16.031 15.638c-6.228 0-11.584 4.188-11.992 14.281v.036h23.984v-.036c-.408-10.093-5.764-14.28-11.992-14.28Z" fill="url(#r)"/><path d="M16.031 15.638c-6.228 0-11.584 4.188-11.992 14.281v.036h23.984v-.036c-.408-10.093-5.764-14.28-11.992-14.28Z" fill="url(#s)"/><path d="M23.68 18.468v11.487h4.343v-.036c-.22-5.447-1.881-9.174-4.343-11.451Z" fill="#4E9EFF"/><path d="M23.68 18.468v11.487h4.343v-.036c-.22-5.447-1.881-9.174-4.343-11.451Z" fill="url(#t)"/><path d="M23.68 18.468v11.487h4.343v-.036c-.22-5.447-1.881-9.174-4.343-11.451Z" fill="url(#u)"/><path d="M23.68 18.468v11.487h4.343v-.036c-.22-5.447-1.881-9.174-4.343-11.451Z" fill="url(#v)"/><path d="M8.383 18.468v11.487H4.039v-.036c.22-5.447 1.882-9.174 4.344-11.451Z" fill="url(#w)"/><path d="M8.383 18.468v11.487H4.039v-.036c.22-5.447 1.882-9.174 4.344-11.451Z" fill="url(#x)"/><path d="M8.383 18.468v11.487H4.039v-.036c.22-5.447 1.882-9.174 4.344-11.451Z" fill="url(#y)"/><path d="M8.383 18.468v11.487H4.039v-.036c.22-5.447 1.882-9.174 4.344-11.451Z" fill="url(#z)"/><g filter="url(#A)"><path d="M12.874 23.42a.885.885 0 0 0-.762 1.333l2.143 3.638a1.49 1.49 0 0 0 2.568 0l2.142-3.638a.885.885 0 0 0-.762-1.334h-5.329Z" fill="#2F63D5"/></g><g filter="url(#B)"><path d="M13.13 22.997a.95.95 0 0 0-.818 1.433l2.302 3.907a1.6 1.6 0 0 0 2.757 0l2.301-3.907a.95.95 0 0 0-.819-1.433h-5.722Z" fill="url(#C)"/><path d="M13.13 22.997a.95.95 0 0 0-.818 1.433l2.302 3.907a1.6 1.6 0 0 0 2.757 0l2.301-3.907a.95.95 0 0 0-.819-1.433h-5.722Z" fill="url(#D)"/></g><path d="M13.13 22.997a.95.95 0 0 0-.818 1.433l2.302 3.907a1.6 1.6 0 0 0 2.757 0l2.301-3.907a.95.95 0 0 0-.819-1.433h-5.722Z" fill="url(#E)"/><g filter="url(#F)"><ellipse cx="15.708" cy="20.263" rx="1.048" ry="1.055" fill="#2F62B7"/></g><g filter="url(#G)"><path d="m15.992 20.435-5.04-3.023c-.323-.2-.663-.512-.663-.98 0-.497.585-.533.885-.544l4.818-.078 4.819.078c.3.01.884.047.884.543 0 .469-.34.781-.663.98l-5.04 3.024Z" fill="url(#H)"/><path d="m15.992 20.435-5.04-3.023c-.323-.2-.663-.512-.663-.98 0-.497.585-.533.885-.544l4.818-.078 4.819.078c.3.01.884.047.884.543 0 .469-.34.781-.663.98l-5.04 3.024Z" fill="url(#I)"/><path d="m15.992 20.435-5.04-3.023c-.323-.2-.663-.512-.663-.98 0-.497.585-.533.885-.544l4.818-.078 4.819.078c.3.01.884.047.884.543 0 .469-.34.781-.663.98l-5.04 3.024Z" fill="url(#J)"/><path d="m15.992 20.435-5.04-3.023c-.323-.2-.663-.512-.663-.98 0-.497.585-.533.885-.544l4.818-.078 4.819.078c.3.01.884.047.884.543 0 .469-.34.781-.663.98l-5.04 3.024Z" fill="url(#K)"/></g><ellipse cx="15.992" cy="20.17" rx="1.048" ry="1.055" fill="url(#L)"/><ellipse cx="15.992" cy="20.17" rx="1.048" ry="1.055" fill="url(#M)"/><rect x="13.933" y="13.298" width="4.109" height="5.399" rx="2.055" fill="url(#N)"/><path d="M16.386 15.353c.25.01.51.03.77.05-.26-.02-.51-.04-.77-.05Z" fill="url(#O)"/><path d="M16.056 15.353h-.04c.1 0 .19 0 .29.01-.08-.01-.17-.01-.25-.01Z" fill="url(#P)"/><g filter="url(#Q)"><path d="M11.346 12.182a1.61 1.61 0 1 0 0-3.218 1.61 1.61 0 0 0 0 3.218Z" fill="url(#R)"/></g><g filter="url(#S)"><path d="M20.859 12.182a1.61 1.61 0 1 0 0-3.218 1.61 1.61 0 0 0 0 3.218Z" fill="url(#T)"/><path d="M20.859 12.182a1.61 1.61 0 1 0 0-3.218 1.61 1.61 0 0 0 0 3.218Z" fill="url(#U)"/></g><g filter="url(#V)"><path d="M20.858 11.647a1.074 1.074 0 1 0 0-2.148 1.074 1.074 0 0 0 0 2.148Z" fill="#4C3637"/><path d="M20.858 11.647a1.074 1.074 0 1 0 0-2.148 1.074 1.074 0 0 0 0 2.148Z" fill="url(#W)"/></g><g filter="url(#X)"><path d="M11.365 11.647a1.074 1.074 0 1 0 0-2.148 1.074 1.074 0 0 0 0 2.148Z" fill="#35252B"/><path d="M11.365 11.647a1.074 1.074 0 1 0 0-2.148 1.074 1.074 0 0 0 0 2.148Z" fill="url(#Y)"/></g><g filter="url(#Z)"><path d="M10.944 9.31h.012l-.01-.265-.01-.306c.02-.949.574-1.316.81-1.438a.702.702 0 0 0 .051-.02 2.304 2.304 0 0 0 1.24-1.255l.083-.195a.264.264 0 0 1 .462-.05 3.863 3.863 0 0 0 3.189 1.673h3.22c.18 0 1.082.087 1.136 1.332l-.12 3.073c-.122 2.802-2.31 4.684-4.982 4.684s-4.86-1.882-4.984-4.684l-.097-2.548Z" fill="url(#aa)"/><path d="M10.944 9.31h.012l-.01-.265-.01-.306c.02-.949.574-1.316.81-1.438a.702.702 0 0 0 .051-.02 2.304 2.304 0 0 0 1.24-1.255l.083-.195a.264.264 0 0 1 .462-.05 3.863 3.863 0 0 0 3.189 1.673h3.22c.18 0 1.082.087 1.136 1.332l-.12 3.073c-.122 2.802-2.31 4.684-4.982 4.684s-4.86-1.882-4.984-4.684l-.097-2.548Z" fill="url(#ab)"/><path d="M10.944 9.31h.012l-.01-.265-.01-.306c.02-.949.574-1.316.81-1.438a.702.702 0 0 0 .051-.02 2.304 2.304 0 0 0 1.24-1.255l.083-.195a.264.264 0 0 1 .462-.05 3.863 3.863 0 0 0 3.189 1.673h3.22c.18 0 1.082.087 1.136 1.332l-.12 3.073c-.122 2.802-2.31 4.684-4.982 4.684s-4.86-1.882-4.984-4.684l-.097-2.548Z" fill="url(#ac)"/><path d="M10.944 9.31h.012l-.01-.265-.01-.306c.02-.949.574-1.316.81-1.438a.702.702 0 0 0 .051-.02 2.304 2.304 0 0 0 1.24-1.255l.083-.195a.264.264 0 0 1 .462-.05 3.863 3.863 0 0 0 3.189 1.673h3.22c.18 0 1.082.087 1.136 1.332l-.12 3.073c-.122 2.802-2.31 4.684-4.982 4.684s-4.86-1.882-4.984-4.684l-.097-2.548Z" fill="url(#ad)"/><path d="M10.944 9.31h.012l-.01-.265-.01-.306c.02-.949.574-1.316.81-1.438a.702.702 0 0 0 .051-.02 2.304 2.304 0 0 0 1.24-1.255l.083-.195a.264.264 0 0 1 .462-.05 3.863 3.863 0 0 0 3.189 1.673h3.22c.18 0 1.082.087 1.136 1.332l-.12 3.073c-.122 2.802-2.31 4.684-4.982 4.684s-4.86-1.882-4.984-4.684l-.097-2.548Z" fill="url(#ae)"/><path d="M10.944 9.31h.012l-.01-.265-.01-.306c.02-.949.574-1.316.81-1.438a.702.702 0 0 0 .051-.02 2.304 2.304 0 0 0 1.24-1.255l.083-.195a.264.264 0 0 1 .462-.05 3.863 3.863 0 0 0 3.189 1.673h3.22c.18 0 1.082.087 1.136 1.332l-.12 3.073c-.122 2.802-2.31 4.684-4.982 4.684s-4.86-1.882-4.984-4.684l-.097-2.548Z" fill="url(#af)"/><path d="M10.944 9.31h.012l-.01-.265-.01-.306c.02-.949.574-1.316.81-1.438a.702.702 0 0 0 .051-.02 2.304 2.304 0 0 0 1.24-1.255l.083-.195a.264.264 0 0 1 .462-.05 3.863 3.863 0 0 0 3.189 1.673h3.22c.18 0 1.082.087 1.136 1.332l-.12 3.073c-.122 2.802-2.31 4.684-4.982 4.684s-4.86-1.882-4.984-4.684l-.097-2.548Z" fill="url(#ag)"/><path d="M10.944 9.31h.012l-.01-.265-.01-.306c.02-.949.574-1.316.81-1.438a.702.702 0 0 0 .051-.02 2.304 2.304 0 0 0 1.24-1.255l.083-.195a.264.264 0 0 1 .462-.05 3.863 3.863 0 0 0 3.189 1.673h3.22c.18 0 1.082.087 1.136 1.332l-.12 3.073c-.122 2.802-2.31 4.684-4.982 4.684s-4.86-1.882-4.984-4.684l-.097-2.548Z" fill="url(#ah)"/></g><path d="M10.944 9.31h.012l-.01-.265-.01-.306c.02-.949.574-1.316.81-1.438a.702.702 0 0 0 .051-.02 2.304 2.304 0 0 0 1.24-1.255l.083-.195a.264.264 0 0 1 .462-.05 3.863 3.863 0 0 0 3.189 1.673h3.22c.18 0 1.082.087 1.136 1.332l-.12 3.073c-.122 2.802-2.31 4.684-4.982 4.684s-4.86-1.882-4.984-4.684l-.097-2.548Z" fill="url(#ai)"/><g filter="url(#aj)"><path d="m15.639 10.35-.684 1.7a.54.54 0 0 0 .52.7h.787c.369 0 .63-.355.52-.7l-.53-1.7c-.114-.376-.494-.376-.613 0Z" fill="#331B25"/></g><path d="M10.941 9.31h-.012l.077 2.01h.315c.188 0 .366.04.534.12l.247.12c.09.04.178.08.267.11l.218.07c.425.13.88.14 1.306.02l.276-.08c.11-.03.218-.07.317-.12l.228-.11c.168-.08.346-.12.534-.12h.346l.164-.668c.119-.39.264-.39.383 0l.094.668h.467c.188 0 .366.04.534.12l.208.1c.108.05.227.1.346.13l.307.09c.425.12.89.11 1.305-.04l.178-.06.238-.09.267-.12c.168-.08.346-.12.534-.12h.394l.098-2.554a2.317 2.317 0 0 0-.006-.106h-.387c-.247-.02-.495-.1-.712-.24l-.05-.03a2.224 2.224 0 0 0-.554-.28c-.425-.15-.88-.16-1.305-.04l-.129.03c-.237.07-.465.17-.673.32-.207.15-.455.22-.712.22h-1.226c-.258 0-.505-.08-.713-.22l-.01-.01a2.25 2.25 0 0 0-.643-.31l-.089-.03c-.425-.12-.88-.12-1.305.02l-.04.01c-.208.07-.405.17-.593.29l-.03.03c-.218.14-.465.22-.722.22h-.288a2.03 2.03 0 0 0-.003.08l.01.305.01.266Z" fill="url(#ak)"/><path d="M10.941 9.31h-.012l.077 2.01h.315c.188 0 .366.04.534.12l.247.12c.09.04.178.08.267.11l.218.07c.425.13.88.14 1.306.02l.276-.08c.11-.03.218-.07.317-.12l.228-.11c.168-.08.346-.12.534-.12h.346l.164-.668c.119-.39.264-.39.383 0l.094.668h.467c.188 0 .366.04.534.12l.208.1c.108.05.227.1.346.13l.307.09c.425.12.89.11 1.305-.04l.178-.06.238-.09.267-.12c.168-.08.346-.12.534-.12h.394l.098-2.554a2.317 2.317 0 0 0-.006-.106h-.387c-.247-.02-.495-.1-.712-.24l-.05-.03a2.224 2.224 0 0 0-.554-.28c-.425-.15-.88-.16-1.305-.04l-.129.03c-.237.07-.465.17-.673.32-.207.15-.455.22-.712.22h-1.226c-.258 0-.505-.08-.713-.22l-.01-.01a2.25 2.25 0 0 0-.643-.31l-.089-.03c-.425-.12-.88-.12-1.305.02l-.04.01c-.208.07-.405.17-.593.29l-.03.03c-.218.14-.465.22-.722.22h-.288a2.03 2.03 0 0 0-.003.08l.01.305.01.266Z" fill="url(#al)"/><g filter="url(#am)"><path d="m15.675 10.517-.494 1.582a.502.502 0 0 0 .484.65h.732c.343 0 .586-.33.485-.65l-.495-1.582c-.106-.35-.6-.35-.712 0Z" fill="#3F2827"/><path d="m15.675 10.517-.494 1.582a.502.502 0 0 0 .484.65h.732c.343 0 .586-.33.485-.65l-.495-1.582c-.106-.35-.6-.35-.712 0Z" fill="url(#an)"/></g><g filter="url(#ao)"><path d="M16.031 13.485c-.52 0-1.01-.125-1.421-.345-.141-.073-.292.089-.204.22a1.932 1.932 0 0 0 3.25 0c.088-.136-.063-.293-.203-.22-.412.22-.896.345-1.422.345Z" stroke="url(#ap)" stroke-width=".2"/></g><path d="M16.031 13.485c-.52 0-1.01-.125-1.421-.345-.141-.073-.292.089-.204.22a1.932 1.932 0 0 0 3.25 0c.088-.136-.063-.293-.203-.22-.412.22-.896.345-1.422.345Z" fill="#2A0219"/><g filter="url(#aq)"><path d="M17.173 10.004c.266-.467.67-.835 1.538-.835.38 0 .747.105 1.072.368.27.218.233.496.025.6l-.556.317c-.652-.21-1.373-.24-2.079-.45Z" fill="#2D2B2E"/></g><g filter="url(#ar)"><path d="M14.89 10.004c-.266-.467-.67-.835-1.538-.835-.38 0-.747.105-1.073.368-.269.218-.233.496-.024.6l.555.317c.652-.21 1.373-.24 2.08-.45Z" fill="#272528"/></g><path d="M18.422 9.227c.653 0 1.205.45 1.355 1.06a.274.274 0 0 1-.268.34h-2.23a.23.23 0 0 1-.228-.272c.126-.64.69-1.128 1.371-1.128Z" fill="#fff"/><path d="M18.215 9.5a.892.892 0 0 1 .86 1.127h-1.724a.896.896 0 0 1 .864-1.128Z" fill="url(#as)"/><path d="M17.704 10.392c0-.284.227-.512.511-.512a.509.509 0 0 1 .455.747h-.905a.462.462 0 0 1-.06-.235Z" fill="#000"/><g filter="url(#at)"><path d="M18.15 9.688c.063.085-.07.189-.22.301-.152.113-.264.193-.328.108-.063-.085.008-.246.159-.359.151-.113.325-.135.389-.05Z" fill="#C7A7A3"/><path d="M18.15 9.688c.063.085-.07.189-.22.301-.152.113-.264.193-.328.108-.063-.085.008-.246.159-.359.151-.113.325-.135.389-.05Z" fill="url(#au)"/></g><g filter="url(#av)"><path d="M19.01 10.274a.84.84 0 0 0-.231-.463l-.26.286.117.228.374-.05Z" fill="url(#aw)"/></g><path d="M13.64 9.227c-.653 0-1.205.45-1.355 1.06-.044.174.09.34.268.34h2.231a.23.23 0 0 0 .227-.272 1.401 1.401 0 0 0-1.37-1.128Z" fill="#fff"/><path d="M13.847 9.5a.892.892 0 0 0-.86 1.127h1.724a.914.914 0 0 0 .033-.235.899.899 0 0 0-.897-.893Z" fill="url(#ax)"/><path d="M14.358 10.392a.509.509 0 0 0-.51-.512.509.509 0 0 0-.455.747h.904a.507.507 0 0 0 .061-.235Z" fill="#000"/><g filter="url(#ay)"><path d="M14.662 10.287c0-.289-.234-.48-.297-.539l-.289.279.178.361.409-.101Z" fill="url(#az)"/></g><g filter="url(#aA)" transform="rotate(-27.914 13.578 9.88)"><ellipse cx="13.578" cy="9.88" rx=".39" ry=".197" fill="#C7A7A3" fill-opacity=".9"/><ellipse cx="13.578" cy="9.88" rx=".39" ry=".197" fill="url(#aB)"/></g><g filter="url(#aC)"><path d="M10.962 4.585c.566-.6 1.636-.6 2.131-.51l.396 1.29c-.253-.04-.478.05-.668.234-.448 1.26-1.99 1.956-2.704 2.146-.148-1.492.109-2.38.845-3.16Z" fill="#20171A"/><path d="M10.962 4.585c.566-.6 1.636-.6 2.131-.51l.396 1.29c-.253-.04-.478.05-.668.234-.448 1.26-1.99 1.956-2.704 2.146-.148-1.492.109-2.38.845-3.16Z" fill="url(#aD)"/></g><g filter="url(#aE)"><path d="M15.428 2.783c-1.133-.25-2.15.88-2.267 1.299 1.052 3.545 3.713 3.35 6.34 3.059 1.572-.175 1.743.542 1.877.888 0-3.933-3.344-4.671-5.921-5.24l-.03-.006Z" fill="#2F2428"/><path d="M15.428 2.783c-1.133-.25-2.15.88-2.267 1.299 1.052 3.545 3.713 3.35 6.34 3.059 1.572-.175 1.743.542 1.877.888 0-3.933-3.344-4.671-5.921-5.24l-.03-.006Z" fill="url(#aF)"/><path d="M15.428 2.783c-1.133-.25-2.15.88-2.267 1.299 1.052 3.545 3.713 3.35 6.34 3.059 1.572-.175 1.743.542 1.877.888 0-3.933-3.344-4.671-5.921-5.24l-.03-.006Z" fill="url(#aG)"/></g><g filter="url(#aH)"><path d="M13.14 4.031c.023.243.235 1.157.545 1.71" stroke="url(#aI)" stroke-width=".2" stroke-linecap="round"/></g><g filter="url(#aJ)"><path d="m18.438 6.392-1.426.263a.688.688 0 1 1-.125-1.365h2.34c1.385 0 1.844 1.395 1.9 1.872a3.147 3.147 0 0 0-2.69-.77Z" fill="#4B4648"/></g><defs><radialGradient id="c" cx="0" cy="0" r="1" gradientUnits="userSpaceOnUse" gradientTransform="rotate(97.539 2.136 13.43) scale(4.59883 5.74488)"><stop offset=".591" stop-color="#171418"/><stop offset="1" stop-color="#171418" stop-opacity="0"/></radialGradient><radialGradient id="d" cx="0" cy="0" r="1" gradientUnits="userSpaceOnUse" gradientTransform="matrix(-2.88301 1.94432 -2.5547 -3.78806 12.914 13.342)"><stop offset=".258" stop-color="#181518"/><stop offset="1" stop-color="#181518" stop-opacity="0"/></radialGradient><radialGradient id="e" cx="0" cy="0" r="1" gradientUnits="userSpaceOnUse" gradientTransform="rotate(127.405 2.926 8.162) scale(2.15225 1.65263)"><stop offset=".334" stop-color="#040101"/><stop offset="1" stop-color="#040101" stop-opacity="0"/></radialGradient><radialGradient id="f" cx="0" cy="0" r="1" gradientUnits="userSpaceOnUse" gradientTransform="rotate(121.43 3.362 7.647) scale(2.47506 1.74346)"><stop offset=".321" stop-color="#040002"/><stop offset="1" stop-color="#040002" stop-opacity="0"/></radialGradient><radialGradient id="g" cx="0" cy="0" r="1" gradientUnits="userSpaceOnUse" gradientTransform="rotate(62.272 4.175 11.613) scale(2.95399 4.10059)"><stop stop-color="#474445"/><stop offset="1" stop-color="#474445" stop-opacity="0"/></radialGradient><radialGradient id="h" cx="0" cy="0" r="1" gradientUnits="userSpaceOnUse" gradientTransform="rotate(134.998 9.98 6.825) scale(2.03849 2.84876)"><stop stop-color="#4A4446"/><stop offset="1" stop-color="#4A4446" stop-opacity="0"/></radialGradient><radialGradient id="i" cx="0" cy="0" r="1" gradientUnits="userSpaceOnUse" gradientTransform="matrix(-1.84366 .53637 -1.11855 -3.84482 23.54 9.722)"><stop stop-color="#3B3638"/><stop offset="1" stop-color="#3B3638" stop-opacity="0"/></radialGradient><radialGradient id="j" cx="0" cy="0" r="1" gradientUnits="userSpaceOnUse" gradientTransform="rotate(165.963 10.66 7.982) scale(2.90248 3.69733)"><stop stop-color="#464444"/><stop offset="1" stop-color="#464444" stop-opacity="0"/></radialGradient><radialGradient id="k" cx="0" cy="0" r="1" gradientUnits="userSpaceOnUse" gradientTransform="matrix(-.90444 -2.65026 2.0962 -.71536 20.764 7.288)"><stop stop-color="#575455"/><stop offset="1" stop-color="#575455" stop-opacity="0"/></radialGradient><radialGradient id="l" cx="0" cy="0" r="1" gradientUnits="userSpaceOnUse" gradientTransform="matrix(1.50392 .15775 -.2556 2.43678 9.89 9.686)"><stop stop-color="#413733"/><stop offset="1" stop-color="#413733" stop-opacity="0"/></radialGradient><radialGradient id="m" cx="0" cy="0" r="1" gradientUnits="userSpaceOnUse" gradientTransform="rotate(107.382 2.776 7.12) scale(2.91973 2.69143)"><stop offset=".243" stop-color="#585352"/><stop offset="1" stop-color="#585352" stop-opacity="0"/></radialGradient><radialGradient id="n" cx="0" cy="0" r="1" gradientUnits="userSpaceOnUse" gradientTransform="matrix(0 11.5824 -20.8203 0 16 18.372)"><stop offset=".572" stop-color="#FF3B9A"/><stop offset="1" stop-color="#EE344D"/></radialGradient><radialGradient id="o" cx="0" cy="0" r="1" gradientUnits="userSpaceOnUse" gradientTransform="rotate(124.924 1.228 11.052) scale(12.8824 12.131)"><stop stop-color="#BF2370"/><stop offset="1" stop-color="#BF2370" stop-opacity="0"/></radialGradient><radialGradient id="r" cx="0" cy="0" r="1" gradientUnits="userSpaceOnUse" gradientTransform="rotate(123.174 5.837 15.598) scale(11.5365 12.2083)"><stop stop-color="#4690E6"/><stop offset="1" stop-color="#3E75E1"/></radialGradient><radialGradient id="s" cx="0" cy="0" r="1" gradientUnits="userSpaceOnUse" gradientTransform="rotate(100.184 -.325 14.065) scale(5.30229 7.65346)"><stop offset=".231" stop-color="#3062AC"/><stop offset="1" stop-color="#3A7AD3" stop-opacity="0"/></radialGradient><radialGradient id="u" cx="0" cy="0" r="1" gradientUnits="userSpaceOnUse" gradientTransform="matrix(5.4375 0 0 14.5199 23.18 29.622)"><stop offset=".698" stop-color="#528ADB" stop-opacity="0"/><stop offset="1" stop-color="#528ADB"/></radialGradient><radialGradient id="v" cx="0" cy="0" r="1" gradientUnits="userSpaceOnUse" gradientTransform="matrix(0 -13.1762 .21924 0 23.68 29.955)"><stop offset=".21" stop-color="#286ADF"/><stop offset="1" stop-color="#286ADF" stop-opacity="0"/></radialGradient><radialGradient id="x" cx="0" cy="0" r="1" gradientUnits="userSpaceOnUse" gradientTransform="matrix(-5.6875 0 0 -13.3438 9.555 29.779)"><stop offset=".813" stop-color="#407DBE" stop-opacity="0"/><stop offset="1" stop-color="#407DBE"/></radialGradient><radialGradient id="y" cx="0" cy="0" r="1" gradientUnits="userSpaceOnUse" gradientTransform="matrix(.14062 -1.5668 5.45335 .48945 5.71 29.955)"><stop stop-color="#3D71ED"/><stop offset="1" stop-color="#3D71ED" stop-opacity="0"/></radialGradient><radialGradient id="z" cx="0" cy="0" r="1" gradientUnits="userSpaceOnUse" gradientTransform="matrix(-.21094 0 0 -15.1051 8.383 29.955)"><stop stop-color="#2154CA"/><stop offset="1" stop-color="#2154CA" stop-opacity="0"/></radialGradient><radialGradient id="E" cx="0" cy="0" r="1" gradientUnits="userSpaceOnUse" gradientTransform="matrix(-.70312 .54687 -.67794 -.87163 19.711 23.404)"><stop offset=".073" stop-color="#53B7FF"/><stop offset="1" stop-color="#49A3FF" stop-opacity="0"/></radialGradient><radialGradient id="I" cx="0" cy="0" r="1" gradientUnits="userSpaceOnUse" gradientTransform="rotate(111.034 1.943 12.516) scale(3.13667 4.32041)"><stop offset=".344" stop-color="#780438"/><stop offset="1" stop-color="#780438" stop-opacity="0"/></radialGradient><radialGradient id="J" cx="0" cy="0" r="1" gradientUnits="userSpaceOnUse" gradientTransform="matrix(0 1.53125 -3 0 20.742 15.341)"><stop offset=".184" stop-color="#F04451"/><stop offset="1" stop-color="#F04451" stop-opacity="0"/></radialGradient><radialGradient id="K" cx="0" cy="0" r="1" gradientUnits="userSpaceOnUse" gradientTransform="matrix(0 1.79294 -6.37953 0 19.492 15.403)"><stop stop-color="#BB1135"/><stop offset="1" stop-color="#BB1135" stop-opacity="0"/></radialGradient><radialGradient id="L" cx="0" cy="0" r="1" gradientUnits="userSpaceOnUse" gradientTransform="rotate(126.363 3.443 13.942) scale(1.76569 1.94865)"><stop stop-color="#FFF14E"/><stop offset="1" stop-color="#F2BB43"/></radialGradient><radialGradient id="M" cx="0" cy="0" r="1" gradientUnits="userSpaceOnUse" gradientTransform="rotate(111.306 1.436 15.466) scale(1.67712 2.10568)"><stop offset=".511" stop-color="#F6C546" stop-opacity="0"/><stop offset="1" stop-color="#D79D4A"/></radialGradient><radialGradient id="N" cx="0" cy="0" r="1" gradientUnits="userSpaceOnUse" gradientTransform="matrix(1.4093 2.43893 -3.68173 2.12742 15.552 16.258)"><stop offset=".352" stop-color="#3C212F"/><stop offset="1" stop-color="#4C2D2B"/></radialGradient><radialGradient id="T" cx="0" cy="0" r="1" gradientUnits="userSpaceOnUse" gradientTransform="matrix(2.48905 -1.13139 1.38138 3.03902 20.07 11.012)"><stop offset=".64" stop-color="#493033"/><stop offset=".944" stop-color="#6A5956"/></radialGradient><radialGradient id="U" cx="0" cy="0" r="1" gradientUnits="userSpaceOnUse" gradientTransform="matrix(1.31577 .7375 -.2085 .37199 21.102 8.892)"><stop stop-color="#402824"/><stop offset="1" stop-color="#402824" stop-opacity="0"/></radialGradient><radialGradient id="W" cx="0" cy="0" r="1" gradientUnits="userSpaceOnUse" gradientTransform="matrix(1.50989 -.11231 .0878 1.18032 20.423 10.685)"><stop offset=".719" stop-color="#371D1F" stop-opacity="0"/><stop offset="1" stop-color="#371D1F"/></radialGradient><radialGradient id="Y" cx="0" cy="0" r="1" gradientUnits="userSpaceOnUse" gradientTransform="matrix(-1.20681 0 0 -.95203 11.43 10.573)"><stop offset=".667" stop-color="#2D181A" stop-opacity="0"/><stop offset="1" stop-color="#2D181A"/></radialGradient><radialGradient id="aa" cx="0" cy="0" r="1" gradientUnits="userSpaceOnUse" gradientTransform="matrix(-6.50358 2.99902 -4.01413 -8.70492 18.89 10.036)"><stop stop-color="#513531"/><stop offset=".818" stop-color="#3C2727"/></radialGradient><radialGradient id="ab" cx="0" cy="0" r="1" gradientUnits="userSpaceOnUse" gradientTransform="rotate(154.513 7.699 7.459) scale(2.25599 1.57104)"><stop stop-color="#533632"/><stop offset="1" stop-color="#533632" stop-opacity="0"/></radialGradient><radialGradient id="ac" cx="0" cy="0" r="1" gradientUnits="userSpaceOnUse" gradientTransform="rotate(-72.838 18.324 -.978) scale(3.63806 4.61602)"><stop stop-color="#3A1F30"/><stop offset="1" stop-color="#3A1F30" stop-opacity="0"/></radialGradient><radialGradient id="ad" cx="0" cy="0" r="1" gradientUnits="userSpaceOnUse" gradientTransform="rotate(96.727 3.755 12.462) scale(6.84714 6.88381)"><stop offset=".727" stop-color="#3F243B" stop-opacity="0"/><stop offset="1" stop-color="#3F243B"/></radialGradient><radialGradient id="ae" cx="0" cy="0" r="1" gradientUnits="userSpaceOnUse" gradientTransform="matrix(0 6.56691 -6.60207 0 15.77 10.426)"><stop offset=".794" stop-color="#3B232B" stop-opacity="0"/><stop offset="1" stop-color="#2B151B"/></radialGradient><radialGradient id="af" cx="0" cy="0" r="1" gradientUnits="userSpaceOnUse" gradientTransform="rotate(168.897 8.349 6.75) scale(7.03739 12.1162)"><stop offset=".795" stop-color="#5E4543" stop-opacity="0"/><stop offset="1" stop-color="#5E4543"/></radialGradient><radialGradient id="ag" cx="0" cy="0" r="1" gradientUnits="userSpaceOnUse" gradientTransform="matrix(0 -1.15077 1.41231 0 18.332 9.617)"><stop stop-color="#43272A"/><stop offset="1" stop-color="#43272A" stop-opacity="0"/></radialGradient><radialGradient id="ah" cx="0" cy="0" r="1" gradientUnits="userSpaceOnUse" gradientTransform="matrix(0 -1.31251 1.50423 0 13.955 9.389)"><stop stop-color="#371E27"/><stop offset="1" stop-color="#371E27" stop-opacity="0"/></radialGradient><radialGradient id="ai" cx="0" cy="0" r="1" gradientUnits="userSpaceOnUse" gradientTransform="matrix(-1.28528 0 0 -6.44557 21.127 11.105)"><stop stop-color="#59403D"/><stop offset="1" stop-color="#59403D" stop-opacity="0"/></radialGradient><radialGradient id="an" cx="0" cy="0" r="1" gradientUnits="userSpaceOnUse" gradientTransform="rotate(-107.299 12.933 -.131) scale(2.23557 .93776)"><stop offset=".166" stop-color="#543A37"/><stop offset="1" stop-color="#543A37" stop-opacity="0"/></radialGradient><radialGradient id="as" cx="0" cy="0" r="1" gradientUnits="userSpaceOnUse" gradientTransform="matrix(0 .81132 -1.29049 0 18.213 9.976)"><stop offset=".802" stop-color="#7D574A"/><stop offset="1" stop-color="#694B43"/><stop offset="1" stop-color="#804D49"/><stop offset="1" stop-color="#664944"/></radialGradient><radialGradient id="au" cx="0" cy="0" r="1" gradientUnits="userSpaceOnUse" gradientTransform="matrix(-.23192 -.29886 .41145 -.3193 17.985 10.06)"><stop offset=".766" stop-color="#FFE6E2" stop-opacity="0"/><stop offset=".966" stop-color="#FFE6E2"/></radialGradient><radialGradient id="ax" cx="0" cy="0" r="1" gradientUnits="userSpaceOnUse" gradientTransform="matrix(0 .81132 -1.2905 0 13.85 9.976)"><stop offset=".802" stop-color="#7D574A"/><stop offset="1" stop-color="#694B43"/><stop offset="1" stop-color="#804D49"/><stop offset="1" stop-color="#664944"/></radialGradient><radialGradient id="aB" cx="0" cy="0" r="1" gradientUnits="userSpaceOnUse" gradientTransform="rotate(-90.897 11.8 -1.578) scale(.49412 .59395)"><stop offset=".766" stop-color="#FFE6E2" stop-opacity="0"/><stop offset=".966" stop-color="#FFE6E2"/></radialGradient><radialGradient id="aD" cx="0" cy="0" r="1" gradientUnits="userSpaceOnUse" gradientTransform="rotate(-65.391 11.306 -4.152) scale(3.03069 1.55043)"><stop stop-color="#433838"/><stop offset="1" stop-color="#433838" stop-opacity="0"/></radialGradient><radialGradient id="aF" cx="0" cy="0" r="1" gradientUnits="userSpaceOnUse" gradientTransform="rotate(115.684 8.138 6.964) scale(4.8729 7.96691)"><stop offset=".639" stop-color="#1F0D24" stop-opacity="0"/><stop offset="1" stop-color="#1F0D24"/></radialGradient><radialGradient id="aG" cx="0" cy="0" r="1" gradientUnits="userSpaceOnUse" gradientTransform="rotate(98.746 6.826 8.476) scale(1.38328 2.97606)"><stop stop-color="#4C4749"/><stop offset="1" stop-color="#4C4749" stop-opacity="0"/></radialGradient><filter id="a" x="8.522" y="1.295" width="15.268" height="15.768" filterUnits="userSpaceOnUse" color-interpolation-filters="sRGB"><feFlood flood-opacity="0" result="BackgroundImageFix"/><feBlend in="SourceGraphic" in2="BackgroundImageFix" result="shape"/><feColorMatrix in="SourceAlpha" values="0 0 0 0 0 0 0 0 0 0 0 0 0 0 0 0 0 0 127 0" result="hardAlpha"/><feOffset dx=".25" dy="-.75"/><feGaussianBlur stdDeviation=".75"/><feComposite in2="hardAlpha" operator="arithmetic" k2="-1" k3="1"/><feColorMatrix values="0 0 0 0 0.121569 0 0 0 0 0.0705882 0 0 0 0 0.164706 0 0 0 1 0"/><feBlend in2="shape" result="effect1_innerShadow_4002_926"/></filter><filter id="p" x="3.094" y="15.986" width="25.813" height="14.219" filterUnits="userSpaceOnUse" color-interpolation-filters="sRGB"><feFlood flood-opacity="0" result="BackgroundImageFix"/><feBlend in="SourceGraphic" in2="BackgroundImageFix" result="shape"/><feGaussianBlur stdDeviation=".125" result="effect1_foregroundBlur_4002_926"/></filter><filter id="A" x="10.989" y="22.419" width="9.1" height="7.705" filterUnits="userSpaceOnUse" color-interpolation-filters="sRGB"><feFlood flood-opacity="0" result="BackgroundImageFix"/><feBlend in="SourceGraphic" in2="BackgroundImageFix" result="shape"/><feGaussianBlur stdDeviation=".5" result="effect1_foregroundBlur_4002_926"/></filter><filter id="B" x="12.029" y="22.848" width="7.926" height="6.427" filterUnits="userSpaceOnUse" color-interpolation-filters="sRGB"><feFlood flood-opacity="0" result="BackgroundImageFix"/><feBlend in="SourceGraphic" in2="BackgroundImageFix" result="shape"/><feColorMatrix in="SourceAlpha" values="0 0 0 0 0 0 0 0 0 0 0 0 0 0 0 0 0 0 127 0" result="hardAlpha"/><feOffset dx="-.15" dy=".15"/><feGaussianBlur stdDeviation=".15"/><feComposite in2="hardAlpha" operator="arithmetic" k2="-1" k3="1"/><feColorMatrix values="0 0 0 0 0.282353 0 0 0 0 0.670588 0 0 0 0 1 0 0 0 1 0"/><feBlend in2="shape" result="effect1_innerShadow_4002_926"/><feColorMatrix in="SourceAlpha" values="0 0 0 0 0 0 0 0 0 0 0 0 0 0 0 0 0 0 127 0" result="hardAlpha"/><feOffset dx=".15" dy="-.15"/><feGaussianBlur stdDeviation=".3"/><feComposite in2="hardAlpha" operator="arithmetic" k2="-1" k3="1"/><feColorMatrix values="0 0 0 0 0.196078 0 0 0 0 0.407843 0 0 0 0 0.87451 0 0 0 1 0"/><feBlend in2="effect1_innerShadow_4002_926" result="effect2_innerShadow_4002_926"/><feColorMatrix in="SourceAlpha" values="0 0 0 0 0 0 0 0 0 0 0 0 0 0 0 0 0 0 127 0" result="hardAlpha"/><feOffset dx=".05" dy="-.05"/><feGaussianBlur stdDeviation=".1"/><feComposite in2="hardAlpha" operator="arithmetic" k2="-1" k3="1"/><feColorMatrix values="0 0 0 0 0.164706 0 0 0 0 0.317647 0 0 0 0 0.886275 0 0 0 1 0"/><feBlend in2="effect2_innerShadow_4002_926" result="effect3_innerShadow_4002_926"/></filter><filter id="F" x="14.16" y="18.709" width="3.095" height="3.11" filterUnits="userSpaceOnUse" color-interpolation-filters="sRGB"><feFlood flood-opacity="0" result="BackgroundImageFix"/><feBlend in="SourceGraphic" in2="BackgroundImageFix" result="shape"/><feGaussianBlur stdDeviation=".25" result="effect1_foregroundBlur_4002_926"/></filter><filter id="G" x="10.289" y="15.61" width="11.606" height="4.825" filterUnits="userSpaceOnUse" color-interpolation-filters="sRGB"><feFlood flood-opacity="0" result="BackgroundImageFix"/><feBlend in="SourceGraphic" in2="BackgroundImageFix" result="shape"/><feColorMatrix in="SourceAlpha" values="0 0 0 0 0 0 0 0 0 0 0 0 0 0 0 0 0 0 127 0" result="hardAlpha"/><feOffset dx=".2" dy="-.25"/><feGaussianBlur stdDeviation=".1"/><feComposite in2="hardAlpha" operator="arithmetic" k2="-1" k3="1"/><feColorMatrix values="0 0 0 0 0.803922 0 0 0 0 0.223529 0 0 0 0 0.533333 0 0 0 1 0"/><feBlend in2="shape" result="effect1_innerShadow_4002_926"/></filter><filter id="Q" x="9.737" y="8.964" width="3.368" height="3.218" filterUnits="userSpaceOnUse" color-interpolation-filters="sRGB"><feFlood flood-opacity="0" result="BackgroundImageFix"/><feBlend in="SourceGraphic" in2="BackgroundImageFix" result="shape"/><feColorMatrix in="SourceAlpha" values="0 0 0 0 0 0 0 0 0 0 0 0 0 0 0 0 0 0 127 0" result="hardAlpha"/><feOffset dx=".15"/><feGaussianBlur stdDeviation=".25"/><feComposite in2="hardAlpha" operator="arithmetic" k2="-1" k3="1"/><feColorMatrix values="0 0 0 0 0.337255 0 0 0 0 0.266667 0 0 0 0 0.25098 0 0 0 1 0"/><feBlend in2="shape" result="effect1_innerShadow_4002_926"/></filter><filter id="S" x="19.25" y="8.714" width="3.218" height="3.468" filterUnits="userSpaceOnUse" color-interpolation-filters="sRGB"><feFlood flood-opacity="0" result="BackgroundImageFix"/><feBlend in="SourceGraphic" in2="BackgroundImageFix" result="shape"/><feColorMatrix in="SourceAlpha" values="0 0 0 0 0 0 0 0 0 0 0 0 0 0 0 0 0 0 127 0" result="hardAlpha"/><feOffset dy="-.25"/><feGaussianBlur stdDeviation=".25"/><feComposite in2="hardAlpha" operator="arithmetic" k2="-1" k3="1"/><feColorMatrix values="0 0 0 0 0.184314 0 0 0 0 0.0901961 0 0 0 0 0.117647 0 0 0 1 0"/><feBlend in2="shape" result="effect1_innerShadow_4002_926"/></filter><filter id="V" x="19.284" y="8.999" width="3.148" height="3.148" filterUnits="userSpaceOnUse" color-interpolation-filters="sRGB"><feFlood flood-opacity="0" result="BackgroundImageFix"/><feBlend in="SourceGraphic" in2="BackgroundImageFix" result="shape"/><feGaussianBlur stdDeviation=".25" result="effect1_foregroundBlur_4002_926"/></filter><filter id="X" x="10.041" y="9.249" width="2.648" height="2.648" filterUnits="userSpaceOnUse" color-interpolation-filters="sRGB"><feFlood flood-opacity="0" result="BackgroundImageFix"/><feBlend in="SourceGraphic" in2="BackgroundImageFix" result="shape"/><feGaussianBlur stdDeviation=".125" result="effect1_foregroundBlur_4002_926"/></filter><filter id="Z" x="10.936" y="5.666" width="10.191" height="11.027" filterUnits="userSpaceOnUse" color-interpolation-filters="sRGB"><feFlood flood-opacity="0" result="BackgroundImageFix"/><feBlend in="SourceGraphic" in2="BackgroundImageFix" result="shape"/><feColorMatrix in="SourceAlpha" values="0 0 0 0 0 0 0 0 0 0 0 0 0 0 0 0 0 0 127 0" result="hardAlpha"/><feOffset dy=".15"/><feGaussianBlur stdDeviation=".15"/><feComposite in2="hardAlpha" operator="arithmetic" k2="-1" k3="1"/><feColorMatrix values="0 0 0 0 0.14902 0 0 0 0 0.0901961 0 0 0 0 0.0941176 0 0 0 1 0"/><feBlend in2="shape" result="effect1_innerShadow_4002_926"/></filter><filter id="aj" x="14.43" y="9.568" width="2.877" height="3.682" filterUnits="userSpaceOnUse" color-interpolation-filters="sRGB"><feFlood flood-opacity="0" result="BackgroundImageFix"/><feBlend in="SourceGraphic" in2="BackgroundImageFix" result="shape"/><feGaussianBlur stdDeviation=".25" result="effect1_foregroundBlur_4002_926"/></filter><filter id="am" x="15.158" y="10.054" width="2.047" height="2.696" filterUnits="userSpaceOnUse" color-interpolation-filters="sRGB"><feFlood flood-opacity="0" result="BackgroundImageFix"/><feBlend in="SourceGraphic" in2="BackgroundImageFix" result="shape"/><feColorMatrix in="SourceAlpha" values="0 0 0 0 0 0 0 0 0 0 0 0 0 0 0 0 0 0 127 0" result="hardAlpha"/><feOffset dx=".3" dy="-.2"/><feGaussianBlur stdDeviation=".3"/><feComposite in2="hardAlpha" operator="arithmetic" k2="-1" k3="1"/><feColorMatrix values="0 0 0 0 0.207843 0 0 0 0 0.0941176 0 0 0 0 0.121569 0 0 0 1 0"/><feBlend in2="shape" result="effect1_innerShadow_4002_926"/></filter><filter id="ao" x="14.18" y="12.921" width="3.702" height="1.526" filterUnits="userSpaceOnUse" color-interpolation-filters="sRGB"><feFlood flood-opacity="0" result="BackgroundImageFix"/><feBlend in="SourceGraphic" in2="BackgroundImageFix" result="shape"/><feGaussianBlur stdDeviation=".05" result="effect1_foregroundBlur_4002_926"/></filter><filter id="aq" x="16.973" y="9.169" width="3.001" height="1.285" filterUnits="userSpaceOnUse" color-interpolation-filters="sRGB"><feFlood flood-opacity="0" result="BackgroundImageFix"/><feBlend in="SourceGraphic" in2="BackgroundImageFix" result="shape"/><feColorMatrix in="SourceAlpha" values="0 0 0 0 0 0 0 0 0 0 0 0 0 0 0 0 0 0 127 0" result="hardAlpha"/><feOffset dx="-.2"/><feGaussianBlur stdDeviation=".2"/><feComposite in2="hardAlpha" operator="arithmetic" k2="-1" k3="1"/><feColorMatrix values="0 0 0 0 0.0941176 0 0 0 0 0.0666667 0 0 0 0 0.117647 0 0 0 1 0"/><feBlend in2="shape" result="effect1_innerShadow_4002_926"/></filter><filter id="ar" x="12.088" y="9.169" width="3.001" height="1.285" filterUnits="userSpaceOnUse" color-interpolation-filters="sRGB"><feFlood flood-opacity="0" result="BackgroundImageFix"/><feBlend in="SourceGraphic" in2="BackgroundImageFix" result="shape"/><feColorMatrix in="SourceAlpha" values="0 0 0 0 0 0 0 0 0 0 0 0 0 0 0 0 0 0 127 0" result="hardAlpha"/><feOffset dx=".2"/><feGaussianBlur stdDeviation=".125"/><feComposite in2="hardAlpha" operator="arithmetic" k2="-1" k3="1"/><feColorMatrix values="0 0 0 0 0.0862745 0 0 0 0 0.054902 0 0 0 0 0.113725 0 0 0 1 0"/><feBlend in2="shape" result="effect1_innerShadow_4002_926"/></filter><filter id="at" x="17.479" y="9.536" width=".787" height=".696" filterUnits="userSpaceOnUse" color-interpolation-filters="sRGB"><feFlood flood-opacity="0" result="BackgroundImageFix"/><feBlend in="SourceGraphic" in2="BackgroundImageFix" result="shape"/><feGaussianBlur stdDeviation=".05" result="effect1_foregroundBlur_4002_926"/></filter><filter id="av" x="18.319" y="9.611" width=".891" height=".913" filterUnits="userSpaceOnUse" color-interpolation-filters="sRGB"><feFlood flood-opacity="0" result="BackgroundImageFix"/><feBlend in="SourceGraphic" in2="BackgroundImageFix" result="shape"/><feGaussianBlur stdDeviation=".1" result="effect1_foregroundBlur_4002_926"/></filter><filter id="ay" x="13.876" y="9.548" width=".986" height="1.04" filterUnits="userSpaceOnUse" color-interpolation-filters="sRGB"><feFlood flood-opacity="0" result="BackgroundImageFix"/><feBlend in="SourceGraphic" in2="BackgroundImageFix" result="shape"/><feGaussianBlur stdDeviation=".1" result="effect1_foregroundBlur_4002_926"/></filter><filter id="aA" x="13.121" y="9.528" width=".913" height=".704" filterUnits="userSpaceOnUse" color-interpolation-filters="sRGB"><feFlood flood-opacity="0" result="BackgroundImageFix"/><feBlend in="SourceGraphic" in2="BackgroundImageFix" result="shape"/><feGaussianBlur stdDeviation=".05" result="effect1_foregroundBlur_4002_926"/></filter><filter id="aC" x="9.577" y="3.531" width="4.412" height="4.713" filterUnits="userSpaceOnUse" color-interpolation-filters="sRGB"><feFlood flood-opacity="0" result="BackgroundImageFix"/><feBlend in="SourceGraphic" in2="BackgroundImageFix" result="shape"/><feColorMatrix in="SourceAlpha" values="0 0 0 0 0 0 0 0 0 0 0 0 0 0 0 0 0 0 127 0" result="hardAlpha"/><feOffset dx=".5" dy=".5"/><feGaussianBlur stdDeviation=".5"/><feComposite in2="hardAlpha" operator="arithmetic" k2="-1" k3="1"/><feColorMatrix values="0 0 0 0 0.352941 0 0 0 0 0.341176 0 0 0 0 0.341176 0 0 0 1 0"/><feBlend in2="shape" result="effect1_innerShadow_4002_926"/><feGaussianBlur stdDeviation=".25" result="effect2_foregroundBlur_4002_926"/></filter><filter id="aE" x="12.861" y="2.497" width="8.767" height="5.782" filterUnits="userSpaceOnUse" color-interpolation-filters="sRGB"><feFlood flood-opacity="0" result="BackgroundImageFix"/><feBlend in="SourceGraphic" in2="BackgroundImageFix" result="shape"/><feColorMatrix in="SourceAlpha" values="0 0 0 0 0 0 0 0 0 0 0 0 0 0 0 0 0 0 127 0" result="hardAlpha"/><feOffset dx="-.3" dy=".2"/><feGaussianBlur stdDeviation=".4"/><feComposite in2="hardAlpha" operator="arithmetic" k2="-1" k3="1"/><feColorMatrix values="0 0 0 0 0.345098 0 0 0 0 0.329412 0 0 0 0 0.333333 0 0 0 1 0"/><feBlend in2="shape" result="effect1_innerShadow_4002_926"/><feGaussianBlur stdDeviation=".125" result="effect2_foregroundBlur_4002_926"/></filter><filter id="aH" x="12.84" y="3.731" width="1.145" height="2.31" filterUnits="userSpaceOnUse" color-interpolation-filters="sRGB"><feFlood flood-opacity="0" result="BackgroundImageFix"/><feBlend in="SourceGraphic" in2="BackgroundImageFix" result="shape"/><feGaussianBlur stdDeviation=".1" result="effect1_foregroundBlur_4002_926"/></filter><filter id="aJ" x="15.45" y="4.54" width="6.427" height="3.372" filterUnits="userSpaceOnUse" color-interpolation-filters="sRGB"><feFlood flood-opacity="0" result="BackgroundImageFix"/><feBlend in="SourceGraphic" in2="BackgroundImageFix" result="shape"/><feGaussianBlur stdDeviation=".375" result="effect1_foregroundBlur_4002_926"/></filter><linearGradient id="b" x1="20.724" y1="3.621" x2="13.919" y2="16.225" gradientUnits="userSpaceOnUse"><stop stop-color="#393134"/><stop offset="1" stop-color="#1A1718"/></linearGradient><linearGradient id="q" x1="16" y1="16.236" x2="16" y2="30.341" gradientUnits="userSpaceOnUse"><stop offset=".866" stop-color="#790B2C"/><stop offset="1" stop-color="#790B2C" stop-opacity="0"/></linearGradient><linearGradient id="t" x1="26.992" y1="30.247" x2="26.773" y2="27.497" gradientUnits="userSpaceOnUse"><stop stop-color="#4D87F8"/><stop offset="1" stop-color="#4B99FF" stop-opacity="0"/></linearGradient><linearGradient id="w" x1="8.586" y1="25.154" x2="5.336" y2="25.154" gradientUnits="userSpaceOnUse"><stop offset=".183" stop-color="#3E80F0"/><stop offset="1" stop-color="#3E77D8"/></linearGradient><linearGradient id="C" x1="18.555" y1="23.966" x2="13.805" y2="27.31" gradientUnits="userSpaceOnUse"><stop stop-color="#47A1FF"/><stop offset="1" stop-color="#3F83F1"/></linearGradient><linearGradient id="D" x1="15.992" y1="22.857" x2="15.992" y2="24.201" gradientUnits="userSpaceOnUse"><stop stop-color="#40A0F8"/><stop offset="1" stop-color="#4392F9" stop-opacity="0"/></linearGradient><linearGradient id="H" x1="14.773" y1="19.06" x2="20.117" y2="17.154" gradientUnits="userSpaceOnUse"><stop stop-color="#CE1F66"/><stop offset="1" stop-color="#FF3656"/></linearGradient><linearGradient id="O" x1="8.847" y1="15.383" x2="23.223" y2="15.383" gradientUnits="userSpaceOnUse"><stop offset=".006" stop-color="#CCC"/><stop offset="1" stop-color="#E6E6E6"/></linearGradient><linearGradient id="P" x1="8.846" y1="15.352" x2="23.222" y2="15.352" gradientUnits="userSpaceOnUse"><stop offset=".006" stop-color="#CCC"/><stop offset="1" stop-color="#E6E6E6"/></linearGradient><linearGradient id="R" x1="9.737" y1="10.661" x2="12.696" y2="10.661" gradientUnits="userSpaceOnUse"><stop stop-color="#392526"/><stop offset="1" stop-color="#2A1C1F"/></linearGradient><linearGradient id="ak" x1="20.403" y1="10.69" x2="13.024" y2="10.69" gradientUnits="userSpaceOnUse"><stop stop-color="#FF1781"/><stop offset="1" stop-color="#C31251"/></linearGradient><linearGradient id="al" x1="10.921" y1="10.377" x2="12.37" y2="10.377" gradientUnits="userSpaceOnUse"><stop stop-color="#AB2D46"/><stop offset="1" stop-color="#BA3950" stop-opacity="0"/></linearGradient><linearGradient id="ap" x1="14.967" y1="14.113" x2="15.428" y2="13.401" gradientUnits="userSpaceOnUse"><stop stop-color="#564848"/><stop offset=".663" stop-color="#564848" stop-opacity="0"/></linearGradient><linearGradient id="aw" x1="18.991" y1="10.03" x2="18.677" y2="10.223" gradientUnits="userSpaceOnUse"><stop stop-color="#B4948D"/><stop offset="1" stop-color="#B4948D" stop-opacity="0"/></linearGradient><linearGradient id="az" x1="14.593" y1="10.03" x2="14.279" y2="10.223" gradientUnits="userSpaceOnUse"><stop stop-color="#B4948D"/><stop offset="1" stop-color="#B4948D" stop-opacity="0"/></linearGradient><linearGradient id="aI" x1="13.14" y1="4.375" x2="13.685" y2="5.649" gradientUnits="userSpaceOnUse"><stop stop-color="#1A1316"/><stop offset="1" stop-color="#24182D"/></linearGradient></defs></svg>