<svg width="32" height="32" fill="none" xmlns="http://www.w3.org/2000/svg"><path d="M26.916 19.157a3.583 3.583 0 0 0-3.305-2.188H8.31c-1.442 0-2.744.86-3.305 2.188L2.25 25.8H7l7.5 4.17h3l7.5-4.15 4.75-.017-2.834-6.645Z" fill="url(#a)"/><path d="M26.916 19.157a3.583 3.583 0 0 0-3.305-2.188H8.31c-1.442 0-2.744.86-3.305 2.188L2.25 25.8H7l7.5 4.17h3l7.5-4.15 4.75-.017-2.834-6.645Z" fill="url(#b)"/><path d="M26.916 19.157a3.583 3.583 0 0 0-3.305-2.188H8.31c-1.442 0-2.744.86-3.305 2.188L2.25 25.8H7l7.5 4.17h3l7.5-4.15 4.75-.017-2.834-6.645Z" fill="url(#c)"/><path d="M26.916 19.157a3.583 3.583 0 0 0-3.305-2.188H8.31c-1.442 0-2.744.86-3.305 2.188L2.25 25.8H7l7.5 4.17h3l7.5-4.15 4.75-.017-2.834-6.645Z" fill="url(#d)"/><path d="M26.916 19.157a3.583 3.583 0 0 0-3.305-2.188H8.31c-1.442 0-2.744.86-3.305 2.188L2.25 25.8H7l7.5 4.17h3l7.5-4.15 4.75-.017-2.834-6.645Z" fill="url(#e)"/><path d="M26.916 19.157a3.583 3.583 0 0 0-3.305-2.188H8.31c-1.442 0-2.744.86-3.305 2.188L2.25 25.8H7l7.5 4.17h3l7.5-4.15 4.75-.017-2.834-6.645Z" fill="url(#f)"/><path d="M26.916 19.157a3.583 3.583 0 0 0-3.305-2.188H8.31c-1.442 0-2.744.86-3.305 2.188L2.25 25.8H7l7.5 4.17h3l7.5-4.15 4.75-.017-2.834-6.645Z" fill="url(#g)"/><path d="M11.307 25.688a3.27 3.27 0 0 0-.332-.098L6.31 24.195A3.486 3.486 0 0 0 5.189 24C3.423 24 2 25.346 2 26.995S3.423 30 5.178 30H9c.634-.459 4-1.17 4-1.98 0-1.064-.706-1.971-1.693-2.332Z" fill="url(#h)"/><path d="M11.307 25.688a3.27 3.27 0 0 0-.332-.098L6.31 24.195A3.486 3.486 0 0 0 5.189 24C3.423 24 2 25.346 2 26.995S3.423 30 5.178 30H9c.634-.459 4-1.17 4-1.98 0-1.064-.706-1.971-1.693-2.332Z" fill="url(#i)"/><path d="M20.693 25.688a3.27 3.27 0 0 1 .332-.098l4.664-1.395A3.485 3.485 0 0 1 26.811 24C28.577 24 30 25.346 30 26.995S28.577 30 26.822 30H23c-.634-.459-4-1.17-4-1.98 0-1.064.706-1.971 1.693-2.332Z" fill="url(#j)"/><path d="M20.693 25.688a3.27 3.27 0 0 1 .332-.098l4.664-1.395A3.485 3.485 0 0 1 26.811 24C28.577 24 30 25.346 30 26.995S28.577 30 26.822 30H23c-.634-.459-4-1.17-4-1.98 0-1.064.706-1.971 1.693-2.332Z" fill="url(#k)"/><path d="M20.693 25.688a3.27 3.27 0 0 1 .332-.098l4.664-1.395A3.485 3.485 0 0 1 26.811 24C28.577 24 30 25.346 30 26.995S28.577 30 26.822 30H23c-.634-.459-4-1.17-4-1.98 0-1.064.706-1.971 1.693-2.332Z" fill="url(#l)"/><path d="M20.693 25.688a3.27 3.27 0 0 1 .332-.098l4.664-1.395A3.485 3.485 0 0 1 26.811 24C28.577 24 30 25.346 30 26.995S28.577 30 26.822 30H23c-.634-.459-4-1.17-4-1.98 0-1.064.706-1.971 1.693-2.332Z" fill="url(#m)"/><path d="M20.693 25.688a3.27 3.27 0 0 1 .332-.098l4.664-1.395A3.485 3.485 0 0 1 26.811 24C28.577 24 30 25.346 30 26.995S28.577 30 26.822 30H23c-.634-.459-4-1.17-4-1.98 0-1.064.706-1.971 1.693-2.332Z" fill="url(#n)"/><g filter="url(#o)"><path d="M20.665 26.653c.214-.102.447-.153.69-.153.915.01 1.655.786 1.645 1.735V30h-5.731c-.428 0-.769-.398-.769-.847 0-.316.185-.602.457-.735l3.708-1.765Z" fill="url(#p)"/><path d="M20.665 26.653c.214-.102.447-.153.69-.153.915.01 1.655.786 1.645 1.735V30h-5.731c-.428 0-.769-.398-.769-.847 0-.316.185-.602.457-.735l3.708-1.765Z" fill="url(#q)"/></g><g filter="url(#r)"><path d="M11.335 26.653a1.595 1.595 0 0 0-.69-.153c-.915.01-1.655.786-1.645 1.735V30h5.731c.428 0 .769-.398.769-.847a.822.822 0 0 0-.457-.735l-3.708-1.765Z" fill="url(#s)"/><path d="M11.335 26.653a1.595 1.595 0 0 0-.69-.153c-.915.01-1.655.786-1.645 1.735V30h5.731c.428 0 .769-.398.769-.847a.822.822 0 0 0-.457-.735l-3.708-1.765Z" fill="url(#t)"/><path d="M11.335 26.653a1.595 1.595 0 0 0-.69-.153c-.915.01-1.655.786-1.645 1.735V30h5.731c.428 0 .769-.398.769-.847a.822.822 0 0 0-.457-.735l-3.708-1.765Z" fill="url(#u)"/></g><g filter="url(#v)"><path d="m24.03 5.158-2.37.79c-.29.1-.57-.18-.47-.46l.79-2.38c.09-.27.42-.35.62-.15l1.58 1.58c.19.2.11.53-.15.62Z" fill="url(#w)"/></g><g filter="url(#x)"><path d="m15.66 4.79-1.122-2.248a.377.377 0 0 1 .34-.542h2.244c.28 0 .46.291.34.542L16.34 4.789a.38.38 0 0 1-.68 0Z" fill="url(#y)"/></g><g filter="url(#z)"><path d="m10.512 5.982-2.38-.79a.373.373 0 0 1-.14-.62l1.58-1.58c.2-.2.53-.12.62.15l.79 2.38c.1.28-.18.56-.47.46Z" fill="url(#A)"/></g><circle cx="22.259" cy="17.591" r="2.164" fill="url(#B)"/><circle cx="22.259" cy="17.591" r="2.164" fill="url(#C)"/><g filter="url(#D)"><circle cx="9.75" cy="17.591" r="2.164" fill="url(#E)"/></g><g filter="url(#F)"><circle cx="22.259" cy="17.591" r="1.336" fill="url(#G)"/></g><g filter="url(#H)"><circle cx="9.75" cy="17.591" r="1.336" fill="url(#I)"/></g><path d="M14.554 9h2.873c3.219 0 5.695 2.542 5.277 5.385L22.314 20c0 .5-1.314 5.25-6.314 5.25S9.693 20.5 9.693 20l-.406-5.615C8.92 11.405 11.335 9 14.554 9Z" fill="url(#J)"/><path d="M14.554 9h2.873c3.219 0 5.695 2.542 5.277 5.385L22.314 20c0 .5-1.314 5.25-6.314 5.25S9.693 20.5 9.693 20l-.406-5.615C8.92 11.405 11.335 9 14.554 9Z" fill="url(#K)"/><path d="M14.554 9h2.873c3.219 0 5.695 2.542 5.277 5.385L22.314 20c0 .5-1.314 5.25-6.314 5.25S9.693 20.5 9.693 20l-.406-5.615C8.92 11.405 11.335 9 14.554 9Z" fill="url(#L)"/><path d="M14.554 9h2.873c3.219 0 5.695 2.542 5.277 5.385L22.314 20c0 .5-1.314 5.25-6.314 5.25S9.693 20.5 9.693 20l-.406-5.615C8.92 11.405 11.335 9 14.554 9Z" fill="url(#M)"/><path d="M14.554 9h2.873c3.219 0 5.695 2.542 5.277 5.385L22.314 20c0 .5-1.314 5.25-6.314 5.25S9.693 20.5 9.693 20l-.406-5.615C8.92 11.405 11.335 9 14.554 9Z" fill="url(#N)"/><path d="M14.554 9h2.873c3.219 0 5.695 2.542 5.277 5.385L22.314 20c0 .5-1.314 5.25-6.314 5.25S9.693 20.5 9.693 20l-.406-5.615C8.92 11.405 11.335 9 14.554 9Z" fill="url(#O)"/><path d="M14.554 9h2.873c3.219 0 5.695 2.542 5.277 5.385L22.314 20c0 .5-1.314 5.25-6.314 5.25S9.693 20.5 9.693 20l-.406-5.615C8.92 11.405 11.335 9 14.554 9Z" fill="url(#P)"/><g filter="url(#Q)"><path d="M20.174 18.416c.06.05.14.07.21.07.1 0 .21-.04.28-.14a.35.35 0 0 0-.06-.49c-.05-.037-.998-.75-2.39-.58-.2.02-.33.2-.31.39.02.19.19.32.39.31 1.11-.13 1.87.43 1.88.44Z" fill="#492939"/></g><g filter="url(#R)"><path d="M11.324 18.346a.35.35 0 0 0 .49.07c.01-.01.76-.57 1.88-.44.2.02.37-.12.39-.31a.357.357 0 0 0-.31-.39c-1.392-.17-2.34.542-2.39.58a.35.35 0 0 0-.06.49Z" fill="#492939"/></g><path d="M18.948 19.523c-.675.113-1.125.526-1.257.704l1.18.742 1.868-.278c.314-.047.478-.398.245-.613-.578-.533-1.37-.665-2.036-.555Z" fill="url(#S)"/><path d="M12.992 19.523c.675.113 1.125.526 1.258.704l-1.18.742-1.869-.278c-.314-.047-.477-.398-.244-.613.577-.533 1.37-.665 2.035-.555Z" fill="url(#T)"/><path d="M12.924 19.6c-.848 0-1.563.585-1.758 1.374a.356.356 0 0 0 .347.442h2.895a.299.299 0 0 0 .295-.352 1.818 1.818 0 0 0-1.78-1.464Z" fill="#fff"/><path d="M13.192 19.953a1.158 1.158 0 0 0-1.116 1.463h2.237c.027-.1.042-.2.042-.305a1.166 1.166 0 0 0-1.163-1.158Z" fill="url(#U)"/><path d="M13.855 21.111a.66.66 0 0 0-.663-.663.66.66 0 0 0-.59.968h1.174a.657.657 0 0 0 .08-.305Z" fill="#000"/><g filter="url(#V)"><path d="M14.25 20.975c0-.374-.304-.624-.386-.7l-.375.363.23.469.531-.132Z" fill="url(#W)"/></g><g filter="url(#X)" transform="rotate(-27.914 12.843 20.448)"><ellipse cx="12.843" cy="20.448" rx=".506" ry=".256" fill="#C7A7A3" fill-opacity=".9"/><ellipse cx="12.843" cy="20.448" rx=".506" ry=".256" fill="url(#Y)"/></g><path d="M19.049 19.6c-.848 0-1.563.585-1.758 1.374a.356.356 0 0 0 .347.442h2.895a.299.299 0 0 0 .295-.352A1.818 1.818 0 0 0 19.05 19.6Z" fill="#fff"/><path d="M18.849 19.953a1.158 1.158 0 0 0-1.116 1.463h2.237c.026-.1.042-.2.042-.305a1.166 1.166 0 0 0-1.163-1.158Z" fill="url(#Z)"/><path d="M19.512 21.111a.66.66 0 0 0-.663-.663.66.66 0 0 0-.59.968h1.174a.657.657 0 0 0 .079-.305Z" fill="#000"/><g filter="url(#aa)"><path d="M19.907 20.975c0-.374-.305-.624-.387-.7l-.374.363.23.469.53-.132Z" fill="url(#ab)"/></g><g filter="url(#ac)" transform="rotate(-27.914 18.5 20.448)"><ellipse cx="18.499" cy="20.448" rx=".506" ry=".256" fill="#C7A7A3" fill-opacity=".9"/><ellipse cx="18.499" cy="20.448" rx=".506" ry=".256" fill="url(#ad)"/></g><g filter="url(#ae)"><path d="m14.741 23.302.66-2.14c.14-.47.81-.47.96 0l.66 2.14a.678.678 0 0 1-.54.871 2.42 2.42 0 0 1-.613.07c-.301 0-.506-.036-.648-.082a.674.674 0 0 1-.479-.859Z" fill="url(#af)"/></g><g filter="url(#ag)"><path d="m14.967 23.06.66-2.14c.14-.47.81-.47.96 0l.66 2.14a.678.678 0 0 1-.54.871 2.42 2.42 0 0 1-.612.069c-.302 0-.507-.035-.649-.081a.674.674 0 0 1-.479-.859Z" fill="url(#ah)"/><path d="m14.967 23.06.66-2.14c.14-.47.81-.47.96 0l.66 2.14a.678.678 0 0 1-.54.871 2.42 2.42 0 0 1-.612.069c-.302 0-.507-.035-.649-.081a.674.674 0 0 1-.479-.859Z" fill="url(#ai)"/><path d="m14.967 23.06.66-2.14c.14-.47.81-.47.96 0l.66 2.14a.678.678 0 0 1-.54.871 2.42 2.42 0 0 1-.612.069c-.302 0-.507-.035-.649-.081a.674.674 0 0 1-.479-.859Z" fill="url(#aj)"/></g><g filter="url(#ak)"><path d="M4.924 16.01c-1.609.378-3.03 3.31-.767 5.221l.851-2.052a3.575 3.575 0 0 1 1.748-1.834 3 3 0 0 0 2.979 2.895 1.345 1.345 0 0 1-.038-.25l-.016-.229a2.164 2.164 0 0 1-.631-4.196.391.391 0 0 1 .058.073c.298.478.14 1.352.423 1.352h.18c.107-.01.21-.034.307-.072.397-.15.713-.509.963-.928.228-.38.401-.809.534-1.179l.009-.024.12-.29.005-.034a.404.404 0 0 1 .695-.046c.431.629.97 1.16 1.584 1.573h.008a5.924 5.924 0 0 0 2.963 1h5.206a.5.5 0 0 0 .47-.329l.397-1.093.009.03.002-.02a2.165 2.165 0 0 1-.648 4.182l-.016.23c0 .048-.012.134-.038.25a3 3 0 0 0 2.97-2.857 3.575 3.575 0 0 1 1.669 1.796l.864 2.026c2.347-1.916.914-4.883-.71-5.265-1.66-.39-2.46-1.75-2.46-1.75l-.003.004a3.899 3.899 0 0 1-.537-2.024v-.01c0-2.29-1.85-4.14-4.14-4.14-.23 0-.44-.11-.57-.29a4.112 4.112 0 0 0-3.37-1.74 4.129 4.129 0 0 0-3.367 1.727l-.003.003c-.13.18-.34.29-.57.29-2.29 0-4.14 1.85-4.14 4.14v.01c0 1.791-1.237 3.445-2.99 3.85Z" fill="url(#al)"/><path d="M4.924 16.01c-1.609.378-3.03 3.31-.767 5.221l.851-2.052a3.575 3.575 0 0 1 1.748-1.834 3 3 0 0 0 2.979 2.895 1.345 1.345 0 0 1-.038-.25l-.016-.229a2.164 2.164 0 0 1-.631-4.196.391.391 0 0 1 .058.073c.298.478.14 1.352.423 1.352h.18c.107-.01.21-.034.307-.072.397-.15.713-.509.963-.928.228-.38.401-.809.534-1.179l.009-.024.12-.29.005-.034a.404.404 0 0 1 .695-.046c.431.629.97 1.16 1.584 1.573h.008a5.924 5.924 0 0 0 2.963 1h5.206a.5.5 0 0 0 .47-.329l.397-1.093.009.03.002-.02a2.165 2.165 0 0 1-.648 4.182l-.016.23c0 .048-.012.134-.038.25a3 3 0 0 0 2.97-2.857 3.575 3.575 0 0 1 1.669 1.796l.864 2.026c2.347-1.916.914-4.883-.71-5.265-1.66-.39-2.46-1.75-2.46-1.75l-.003.004a3.899 3.899 0 0 1-.537-2.024v-.01c0-2.29-1.85-4.14-4.14-4.14-.23 0-.44-.11-.57-.29a4.112 4.112 0 0 0-3.37-1.74 4.129 4.129 0 0 0-3.367 1.727l-.003.003c-.13.18-.34.29-.57.29-2.29 0-4.14 1.85-4.14 4.14v.01c0 1.791-1.237 3.445-2.99 3.85Z" fill="url(#am)"/><path d="M4.924 16.01c-1.609.378-3.03 3.31-.767 5.221l.851-2.052a3.575 3.575 0 0 1 1.748-1.834 3 3 0 0 0 2.979 2.895 1.345 1.345 0 0 1-.038-.25l-.016-.229a2.164 2.164 0 0 1-.631-4.196.391.391 0 0 1 .058.073c.298.478.14 1.352.423 1.352h.18c.107-.01.21-.034.307-.072.397-.15.713-.509.963-.928.228-.38.401-.809.534-1.179l.009-.024.12-.29.005-.034a.404.404 0 0 1 .695-.046c.431.629.97 1.16 1.584 1.573h.008a5.924 5.924 0 0 0 2.963 1h5.206a.5.5 0 0 0 .47-.329l.397-1.093.009.03.002-.02a2.165 2.165 0 0 1-.648 4.182l-.016.23c0 .048-.012.134-.038.25a3 3 0 0 0 2.97-2.857 3.575 3.575 0 0 1 1.669 1.796l.864 2.026c2.347-1.916.914-4.883-.71-5.265-1.66-.39-2.46-1.75-2.46-1.75l-.003.004a3.899 3.899 0 0 1-.537-2.024v-.01c0-2.29-1.85-4.14-4.14-4.14-.23 0-.44-.11-.57-.29a4.112 4.112 0 0 0-3.37-1.74 4.129 4.129 0 0 0-3.367 1.727l-.003.003c-.13.18-.34.29-.57.29-2.29 0-4.14 1.85-4.14 4.14v.01c0 1.791-1.237 3.445-2.99 3.85Z" fill="url(#an)"/><path d="M4.924 16.01c-1.609.378-3.03 3.31-.767 5.221l.851-2.052a3.575 3.575 0 0 1 1.748-1.834 3 3 0 0 0 2.979 2.895 1.345 1.345 0 0 1-.038-.25l-.016-.229a2.164 2.164 0 0 1-.631-4.196.391.391 0 0 1 .058.073c.298.478.14 1.352.423 1.352h.18c.107-.01.21-.034.307-.072.397-.15.713-.509.963-.928.228-.38.401-.809.534-1.179l.009-.024.12-.29.005-.034a.404.404 0 0 1 .695-.046c.431.629.97 1.16 1.584 1.573h.008a5.924 5.924 0 0 0 2.963 1h5.206a.5.5 0 0 0 .47-.329l.397-1.093.009.03.002-.02a2.165 2.165 0 0 1-.648 4.182l-.016.23c0 .048-.012.134-.038.25a3 3 0 0 0 2.97-2.857 3.575 3.575 0 0 1 1.669 1.796l.864 2.026c2.347-1.916.914-4.883-.71-5.265-1.66-.39-2.46-1.75-2.46-1.75l-.003.004a3.899 3.899 0 0 1-.537-2.024v-.01c0-2.29-1.85-4.14-4.14-4.14-.23 0-.44-.11-.57-.29a4.112 4.112 0 0 0-3.37-1.74 4.129 4.129 0 0 0-3.367 1.727l-.003.003c-.13.18-.34.29-.57.29-2.29 0-4.14 1.85-4.14 4.14v.01c0 1.791-1.237 3.445-2.99 3.85Z" fill="url(#ao)"/></g><g filter="url(#ap)"><path d="M18.258 17.547c.424-.034 1.458.017 2.195.492" stroke="url(#aq)" stroke-width=".15" stroke-linecap="round"/></g><g filter="url(#ar)"><path d="M13.719 17.547c-.425-.034-1.458.017-2.196.492" stroke="url(#as)" stroke-width=".15" stroke-linecap="round"/></g><g filter="url(#at)"><path d="M20.363 27.53c-1.085.562-1.83.828-2.068.89.188.104.722.094 1.525-.11.604-.152 1.257-.444 1.786-.398.424.038.84.784.99 1.118.022-.276.036-.928-.083-1.329-.149-.5-.794-.875-2.15-.171Z" fill="#CFA491"/></g><g filter="url(#au)"><path d="M10.047 13.298c-.766-2.359-.36-3.317-.266-3.922-1.43.766-2.125 2.672-.93 5.243.341.733.678 1.264.754 1.8.014.103.165.15.214.057.38-.721.658-1.85.228-3.178Z" fill="url(#av)"/></g><g filter="url(#aw)"><path d="M19.144 13.36c-1.6.376-3-.405-3.5-.843.219.813 1.719 2.625 3.719 2.625 2.75 0 3.562-2.078 3.219-3.469-.456-1.842-.396-2.104-.344-2.656-2.094 1.344-1.094 3.875-3.094 4.344Z" fill="url(#ax)"/></g><g filter="url(#ay)"><path d="M25.27 16.298c-.163-1.037-.84-2.15-1.157-2.578-.266.443-.638 1.563 0 2.5.637.938.38 1.953.172 2.344.396-.323 1.147-1.228.984-2.266Z" fill="url(#az)"/></g><g filter="url(#aA)"><path d="M26.572 16.26c-.776-.263-1.33-.75-1.377-.938-.078.765.665 1.61 1.573 1.812.903.203 1.75.79 1.88 1.102-.535-1.54-1.106-1.649-2.076-1.977Z" fill="url(#aB)"/></g><g filter="url(#aC)"><path d="M22.563 13.61a93.07 93.07 0 0 0-.204 2.845l.922-2.563-.718-.281Z" fill="url(#aD)"/></g><defs><radialGradient id="b" cx="0" cy="0" r="1" gradientUnits="userSpaceOnUse" gradientTransform="rotate(-106.918 23.264 2.681) scale(9.1458 3.17929)"><stop stop-color="#937CCD"/><stop offset="1" stop-color="#937CCD" stop-opacity="0"/></radialGradient><radialGradient id="c" cx="0" cy="0" r="1" gradientUnits="userSpaceOnUse" gradientTransform="matrix(-5.72512 5.0664 -5.3081 -5.99823 13.256 19.63)"><stop offset=".559" stop-color="#322458"/><stop offset="1" stop-color="#46366D" stop-opacity="0"/></radialGradient><radialGradient id="d" cx="0" cy="0" r="1" gradientUnits="userSpaceOnUse" gradientTransform="matrix(1.65625 -3.78125 7.59375 3.32619 8.406 28.156)"><stop offset=".174" stop-color="#493B70"/><stop offset="1" stop-color="#493B70" stop-opacity="0"/></radialGradient><radialGradient id="e" cx="0" cy="0" r="1" gradientUnits="userSpaceOnUse" gradientTransform="matrix(4.4375 -10.24822 1.20788 .52301 2.25 25.81)"><stop offset=".311" stop-color="#6C548A"/><stop offset="1" stop-color="#6C548A" stop-opacity="0"/></radialGradient><radialGradient id="f" cx="0" cy="0" r="1" gradientUnits="userSpaceOnUse" gradientTransform="rotate(106.302 3.949 18.076) scale(1.72562 1.46892)"><stop stop-color="#4F3587"/><stop offset="1" stop-color="#4F3587" stop-opacity="0"/></radialGradient><radialGradient id="g" cx="0" cy="0" r="1" gradientUnits="userSpaceOnUse" gradientTransform="rotate(-125.312 18.217 9.571) scale(5.59139 9.03345)"><stop stop-color="#4F417D"/><stop offset="1" stop-color="#4F417D" stop-opacity="0"/></radialGradient><radialGradient id="h" cx="0" cy="0" r="1" gradientUnits="userSpaceOnUse" gradientTransform="matrix(-9.50001 -3.18751 1.54923 -4.61731 11.125 27.781)"><stop stop-color="#7E63B2"/><stop offset=".403" stop-color="#765AAB"/><stop offset="1" stop-color="#654A98"/></radialGradient><radialGradient id="j" cx="0" cy="0" r="1" gradientUnits="userSpaceOnUse" gradientTransform="matrix(11.01429 -3.27053 .44609 1.5023 20.298 28.02)"><stop stop-color="#987BD6"/><stop offset="1" stop-color="#8761D4"/><stop offset="1" stop-color="#8467C4"/></radialGradient><radialGradient id="k" cx="0" cy="0" r="1" gradientUnits="userSpaceOnUse" gradientTransform="matrix(3.125 -1.3125 1.11861 2.66336 19.156 27.844)"><stop offset=".119" stop-color="#422E68"/><stop offset="1" stop-color="#574084" stop-opacity="0"/></radialGradient><radialGradient id="m" cx="0" cy="0" r="1" gradientUnits="userSpaceOnUse" gradientTransform="rotate(154.625 12.154 16.02) scale(2.71915 4.98512)"><stop stop-color="#9F7EDE"/><stop offset="1" stop-color="#9F7EDE" stop-opacity="0"/></radialGradient><radialGradient id="t" cx="0" cy="0" r="1" gradientUnits="userSpaceOnUse" gradientTransform="matrix(0 -2.92974 1.01786 0 9.818 30)"><stop stop-color="#9D6E6C"/><stop offset="1" stop-color="#9D6E6C" stop-opacity="0"/></radialGradient><radialGradient id="u" cx="0" cy="0" r="1" gradientUnits="userSpaceOnUse" gradientTransform="matrix(-1.25 -.5625 .14885 -.33078 14.256 28.767)"><stop stop-color="#C39A85"/><stop offset=".694" stop-color="#C39A85" stop-opacity="0"/></radialGradient><radialGradient id="C" cx="0" cy="0" r="1" gradientUnits="userSpaceOnUse" gradientTransform="rotate(100.008 3.952 18.302) scale(1.33573)"><stop offset=".143" stop-color="#A16B65"/><stop offset="1" stop-color="#A16B65" stop-opacity="0"/></radialGradient><radialGradient id="E" cx="0" cy="0" r="1" gradientUnits="userSpaceOnUse" gradientTransform="rotate(-117.089 11.197 6.615) scale(4.36251)"><stop offset=".562" stop-color="#7D4D5C"/><stop offset="1" stop-color="#71504A"/></radialGradient><radialGradient id="G" cx="0" cy="0" r="1" gradientUnits="userSpaceOnUse" gradientTransform="rotate(-41.693 34.433 -20.542) scale(1.24503)"><stop offset=".496" stop-color="#AD7D72"/><stop offset="1" stop-color="#9F6863"/></radialGradient><radialGradient id="I" cx="0" cy="0" r="1" gradientUnits="userSpaceOnUse" gradientTransform="rotate(-178.136 4.981 8.775) scale(.80021 1.5567)"><stop offset=".527" stop-color="#774B59"/><stop offset="1" stop-color="#754655"/></radialGradient><radialGradient id="K" cx="0" cy="0" r="1" gradientUnits="userSpaceOnUse" gradientTransform="matrix(0 4.69404 -5.59842 0 16 17.125)"><stop stop-color="#A26D78"/><stop offset="1" stop-color="#A26D78" stop-opacity="0"/></radialGradient><radialGradient id="L" cx="0" cy="0" r="1" gradientUnits="userSpaceOnUse" gradientTransform="rotate(96.236 1.08 15.74) scale(9.49368 8.83452)"><stop offset=".72" stop-color="#814E5F" stop-opacity="0"/><stop offset=".972" stop-color="#6B3C5B"/></radialGradient><radialGradient id="M" cx="0" cy="0" r="1" gradientUnits="userSpaceOnUse" gradientTransform="matrix(0 7.23807 -2.72739 0 9.594 17.486)"><stop stop-color="#966C64"/><stop offset="1" stop-color="#966C64" stop-opacity="0"/></radialGradient><radialGradient id="N" cx="0" cy="0" r="1" gradientUnits="userSpaceOnUse" gradientTransform="matrix(1.78125 -.78263 .4424 1.00689 19.313 19.767)"><stop stop-color="#905963"/><stop offset="1" stop-color="#713D46" stop-opacity="0"/><stop offset="1" stop-color="#905963" stop-opacity="0"/></radialGradient><radialGradient id="O" cx="0" cy="0" r="1" gradientUnits="userSpaceOnUse" gradientTransform="rotate(-137.604 10.37 7.517) scale(1.85078 1.11376)"><stop offset=".354" stop-color="#814C59"/><stop offset="1" stop-color="#814C59" stop-opacity="0"/></radialGradient><radialGradient id="P" cx="0" cy="0" r="1" gradientUnits="userSpaceOnUse" gradientTransform="matrix(3.9375 1.03125 -.48032 1.83396 16.281 15.582)"><stop offset=".675" stop-color="#885366"/><stop offset="1" stop-color="#885366" stop-opacity="0"/></radialGradient><radialGradient id="S" cx="0" cy="0" r="1" gradientUnits="userSpaceOnUse" gradientTransform="matrix(1.15329 .05608 -.03875 .79687 19.94 20.172)"><stop stop-color="#33262E"/><stop offset="1" stop-color="#22142A"/></radialGradient><radialGradient id="T" cx="0" cy="0" r="1" gradientUnits="userSpaceOnUse" gradientTransform="matrix(-1.15329 .05608 -.03875 -.79687 12 20.172)"><stop stop-color="#33262E"/><stop offset="1" stop-color="#22142A"/></radialGradient><radialGradient id="U" cx="0" cy="0" r="1" gradientUnits="userSpaceOnUse" gradientTransform="matrix(0 1.05276 -1.67453 0 13.195 20.572)"><stop offset=".802" stop-color="#785347"/><stop offset="1" stop-color="#604239"/></radialGradient><radialGradient id="Y" cx="0" cy="0" r="1" gradientUnits="userSpaceOnUse" gradientTransform="rotate(-90.897 16.678 4.116) scale(.64116 .77071)"><stop offset=".766" stop-color="#FFE6E2" stop-opacity="0"/><stop offset=".966" stop-color="#FFE6E2"/></radialGradient><radialGradient id="Z" cx="0" cy="0" r="1" gradientUnits="userSpaceOnUse" gradientTransform="matrix(0 1.05276 -1.67453 0 18.851 20.572)"><stop offset=".802" stop-color="#785347"/><stop offset="1" stop-color="#604239"/></radialGradient><radialGradient id="ad" cx="0" cy="0" r="1" gradientUnits="userSpaceOnUse" gradientTransform="rotate(-90.897 19.506 1.332) scale(.64116 .77071)"><stop offset=".766" stop-color="#FFE6E2" stop-opacity="0"/><stop offset=".966" stop-color="#FFE6E2"/></radialGradient><radialGradient id="ai" cx="0" cy="0" r="1" gradientUnits="userSpaceOnUse" gradientTransform="matrix(-1.39062 0 0 -1.985 16.969 23.156)"><stop stop-color="#BD917E"/><stop offset="1" stop-color="#BD917E" stop-opacity="0"/></radialGradient><radialGradient id="aj" cx="0" cy="0" r="1" gradientUnits="userSpaceOnUse" gradientTransform="matrix(0 2.30469 -2.35811 0 16.107 21.828)"><stop offset=".871" stop-color="#824B66" stop-opacity="0"/><stop offset="1" stop-color="#824B66"/></radialGradient><radialGradient id="al" cx="0" cy="0" r="1" gradientUnits="userSpaceOnUse" gradientTransform="matrix(-8.4375 12 -16.9058 -11.88689 20 10.865)"><stop offset=".141" stop-color="#5E4442"/><stop offset=".6" stop-color="#452D2C"/><stop offset=".844" stop-color="#2E1B26"/></radialGradient><radialGradient id="am" cx="0" cy="0" r="1" gradientUnits="userSpaceOnUse" gradientTransform="matrix(1.10937 7.73185 -2.12 .30418 7.453 14.775)"><stop offset=".339" stop-color="#54423E"/><stop offset="1" stop-color="#54423E" stop-opacity="0"/></radialGradient><radialGradient id="an" cx="0" cy="0" r="1" gradientUnits="userSpaceOnUse" gradientTransform="rotate(95.269 5.935 12.13) scale(4.3917 2.68102)"><stop offset=".08" stop-color="#6E504D"/><stop offset="1" stop-color="#5B4140" stop-opacity="0"/></radialGradient><radialGradient id="ao" cx="0" cy="0" r="1" gradientUnits="userSpaceOnUse" gradientTransform="matrix(-.99998 2.5 -1.03987 -.41594 20.563 7.676)"><stop offset=".459" stop-color="#5F413F"/><stop offset="1" stop-color="#5F413F" stop-opacity="0"/></radialGradient><radialGradient id="ax" cx="0" cy="0" r="1" gradientUnits="userSpaceOnUse" gradientTransform="rotate(-83.002 18.995 -4.226) scale(8.72121 13.9163)"><stop offset=".417" stop-color="#604948"/><stop offset="1" stop-color="#694E4C" stop-opacity="0"/></radialGradient><radialGradient id="az" cx="0" cy="0" r="1" gradientUnits="userSpaceOnUse" gradientTransform="rotate(-16.089 69.85 -76.504) scale(1.40954 4.1137)"><stop offset=".074" stop-color="#584543" stop-opacity="0"/><stop offset=".687" stop-color="#584543"/><stop offset="1" stop-color="#655554"/></radialGradient><radialGradient id="aD" cx="0" cy="0" r="1" gradientUnits="userSpaceOnUse" gradientTransform="rotate(-77.152 21.473 -5.983) scale(2.74048 1.25546)"><stop offset=".327" stop-color="#554142"/><stop offset="1" stop-color="#5C4948" stop-opacity="0"/></radialGradient><filter id="o" x="16.5" y="26.5" width="7" height="3.6" filterUnits="userSpaceOnUse" color-interpolation-filters="sRGB"><feFlood flood-opacity="0" result="BackgroundImageFix"/><feBlend in="SourceGraphic" in2="BackgroundImageFix" result="shape"/><feColorMatrix in="SourceAlpha" values="0 0 0 0 0 0 0 0 0 0 0 0 0 0 0 0 0 0 127 0" result="hardAlpha"/><feOffset dx=".5" dy=".1"/><feGaussianBlur stdDeviation=".25"/><feComposite in2="hardAlpha" operator="arithmetic" k2="-1" k3="1"/><feColorMatrix values="0 0 0 0 0.513726 0 0 0 0 0.333333 0 0 0 0 0.301961 0 0 0 1 0"/><feBlend in2="shape" result="effect1_innerShadow_4002_4043"/></filter><filter id="r" x="9" y="26.5" width="7" height="3.5" filterUnits="userSpaceOnUse" color-interpolation-filters="sRGB"><feFlood flood-opacity="0" result="BackgroundImageFix"/><feBlend in="SourceGraphic" in2="BackgroundImageFix" result="shape"/><feColorMatrix in="SourceAlpha" values="0 0 0 0 0 0 0 0 0 0 0 0 0 0 0 0 0 0 127 0" result="hardAlpha"/><feOffset dx=".5"/><feGaussianBlur stdDeviation=".5"/><feComposite in2="hardAlpha" operator="arithmetic" k2="-1" k3="1"/><feColorMatrix values="0 0 0 0 0.619608 0 0 0 0 0.356863 0 0 0 0 0.313726 0 0 0 1 0"/><feBlend in2="shape" result="effect1_innerShadow_4002_4043"/></filter><filter id="v" x="21.069" y="2.647" width="3.415" height="3.422" filterUnits="userSpaceOnUse" color-interpolation-filters="sRGB"><feFlood flood-opacity="0" result="BackgroundImageFix"/><feBlend in="SourceGraphic" in2="BackgroundImageFix" result="shape"/><feColorMatrix in="SourceAlpha" values="0 0 0 0 0 0 0 0 0 0 0 0 0 0 0 0 0 0 127 0" result="hardAlpha"/><feOffset dx=".2" dy="-.2"/><feGaussianBlur stdDeviation=".2"/><feComposite in2="hardAlpha" operator="arithmetic" k2="-1" k3="1"/><feColorMatrix values="0 0 0 0 0.0313726 0 0 0 0 0.352941 0 0 0 0 0.603922 0 0 0 1 0"/><feBlend in2="shape" result="effect1_innerShadow_4002_4043"/><feColorMatrix in="SourceAlpha" values="0 0 0 0 0 0 0 0 0 0 0 0 0 0 0 0 0 0 127 0" result="hardAlpha"/><feOffset dx="-.1" dy=".1"/><feGaussianBlur stdDeviation=".125"/><feComposite in2="hardAlpha" operator="arithmetic" k2="-1" k3="1"/><feColorMatrix values="0 0 0 0 0.286275 0 0 0 0 0.67451 0 0 0 0 0.929412 0 0 0 1 0"/><feBlend in2="effect1_innerShadow_4002_4043" result="effect2_innerShadow_4002_4043"/></filter><filter id="x" x="14.4" y="1.8" width="3.3" height="3.3" filterUnits="userSpaceOnUse" color-interpolation-filters="sRGB"><feFlood flood-opacity="0" result="BackgroundImageFix"/><feBlend in="SourceGraphic" in2="BackgroundImageFix" result="shape"/><feColorMatrix in="SourceAlpha" values="0 0 0 0 0 0 0 0 0 0 0 0 0 0 0 0 0 0 127 0" result="hardAlpha"/><feOffset dx=".2" dy="-.2"/><feGaussianBlur stdDeviation=".2"/><feComposite in2="hardAlpha" operator="arithmetic" k2="-1" k3="1"/><feColorMatrix values="0 0 0 0 0.0313726 0 0 0 0 0.352941 0 0 0 0 0.603922 0 0 0 1 0"/><feBlend in2="shape" result="effect1_innerShadow_4002_4043"/><feColorMatrix in="SourceAlpha" values="0 0 0 0 0 0 0 0 0 0 0 0 0 0 0 0 0 0 127 0" result="hardAlpha"/><feOffset dx="-.1" dy=".1"/><feGaussianBlur stdDeviation=".125"/><feComposite in2="hardAlpha" operator="arithmetic" k2="-1" k3="1"/><feColorMatrix values="0 0 0 0 0.286275 0 0 0 0 0.67451 0 0 0 0 0.929412 0 0 0 1 0"/><feBlend in2="effect1_innerShadow_4002_4043" result="effect2_innerShadow_4002_4043"/></filter><filter id="z" x="7.78" y="2.68" width="3.423" height="3.422" filterUnits="userSpaceOnUse" color-interpolation-filters="sRGB"><feFlood flood-opacity="0" result="BackgroundImageFix"/><feBlend in="SourceGraphic" in2="BackgroundImageFix" result="shape"/><feColorMatrix in="SourceAlpha" values="0 0 0 0 0 0 0 0 0 0 0 0 0 0 0 0 0 0 127 0" result="hardAlpha"/><feOffset dx=".2" dy="-.2"/><feGaussianBlur stdDeviation=".2"/><feComposite in2="hardAlpha" operator="arithmetic" k2="-1" k3="1"/><feColorMatrix values="0 0 0 0 0.0313726 0 0 0 0 0.352941 0 0 0 0 0.603922 0 0 0 1 0"/><feBlend in2="shape" result="effect1_innerShadow_4002_4043"/><feColorMatrix in="SourceAlpha" values="0 0 0 0 0 0 0 0 0 0 0 0 0 0 0 0 0 0 127 0" result="hardAlpha"/><feOffset dx="-.1" dy=".1"/><feGaussianBlur stdDeviation=".125"/><feComposite in2="hardAlpha" operator="arithmetic" k2="-1" k3="1"/><feColorMatrix values="0 0 0 0 0.286275 0 0 0 0 0.67451 0 0 0 0 0.929412 0 0 0 1 0"/><feBlend in2="effect1_innerShadow_4002_4043" result="effect2_innerShadow_4002_4043"/></filter><filter id="D" x="7.586" y="15.427" width="4.428" height="4.328" filterUnits="userSpaceOnUse" color-interpolation-filters="sRGB"><feFlood flood-opacity="0" result="BackgroundImageFix"/><feBlend in="SourceGraphic" in2="BackgroundImageFix" result="shape"/><feColorMatrix in="SourceAlpha" values="0 0 0 0 0 0 0 0 0 0 0 0 0 0 0 0 0 0 127 0" result="hardAlpha"/><feOffset dx=".1"/><feGaussianBlur stdDeviation=".15"/><feComposite in2="hardAlpha" operator="arithmetic" k2="-1" k3="1"/><feColorMatrix values="0 0 0 0 0.603922 0 0 0 0 0.447059 0 0 0 0 0.407843 0 0 0 1 0"/><feBlend in2="shape" result="effect1_innerShadow_4002_4043"/></filter><filter id="F" x="20.424" y="15.755" width="3.672" height="3.672" filterUnits="userSpaceOnUse" color-interpolation-filters="sRGB"><feFlood flood-opacity="0" result="BackgroundImageFix"/><feBlend in="SourceGraphic" in2="BackgroundImageFix" result="shape"/><feGaussianBlur stdDeviation=".25" result="effect1_foregroundBlur_4002_4043"/></filter><filter id="H" x="8.114" y="15.955" width="3.272" height="3.272" filterUnits="userSpaceOnUse" color-interpolation-filters="sRGB"><feFlood flood-opacity="0" result="BackgroundImageFix"/><feBlend in="SourceGraphic" in2="BackgroundImageFix" result="shape"/><feGaussianBlur stdDeviation=".15" result="effect1_foregroundBlur_4002_4043"/></filter><filter id="Q" x="17.902" y="17.1" width="2.836" height="1.386" filterUnits="userSpaceOnUse" color-interpolation-filters="sRGB"><feFlood flood-opacity="0" result="BackgroundImageFix"/><feBlend in="SourceGraphic" in2="BackgroundImageFix" result="shape"/><feColorMatrix in="SourceAlpha" values="0 0 0 0 0 0 0 0 0 0 0 0 0 0 0 0 0 0 127 0" result="hardAlpha"/><feOffset dy="-.15"/><feGaussianBlur stdDeviation=".15"/><feComposite in2="hardAlpha" operator="arithmetic" k2="-1" k3="1"/><feColorMatrix values="0 0 0 0 0.215686 0 0 0 0 0.12549 0 0 0 0 0.145098 0 0 0 1 0"/><feBlend in2="shape" result="effect1_innerShadow_4002_4043"/></filter><filter id="R" x="11.25" y="17.1" width="2.836" height="1.386" filterUnits="userSpaceOnUse" color-interpolation-filters="sRGB"><feFlood flood-opacity="0" result="BackgroundImageFix"/><feBlend in="SourceGraphic" in2="BackgroundImageFix" result="shape"/><feColorMatrix in="SourceAlpha" values="0 0 0 0 0 0 0 0 0 0 0 0 0 0 0 0 0 0 127 0" result="hardAlpha"/><feOffset dy="-.15"/><feGaussianBlur stdDeviation=".15"/><feComposite in2="hardAlpha" operator="arithmetic" k2="-1" k3="1"/><feColorMatrix values="0 0 0 0 0.215686 0 0 0 0 0.12549 0 0 0 0 0.145098 0 0 0 1 0"/><feBlend in2="shape" result="effect1_innerShadow_4002_4043"/></filter><filter id="V" x="13.289" y="20.076" width="1.161" height="1.231" filterUnits="userSpaceOnUse" color-interpolation-filters="sRGB"><feFlood flood-opacity="0" result="BackgroundImageFix"/><feBlend in="SourceGraphic" in2="BackgroundImageFix" result="shape"/><feGaussianBlur stdDeviation=".1" result="effect1_foregroundBlur_4002_4043"/></filter><filter id="X" x="12.28" y="20.02" width="1.125" height=".855" filterUnits="userSpaceOnUse" color-interpolation-filters="sRGB"><feFlood flood-opacity="0" result="BackgroundImageFix"/><feBlend in="SourceGraphic" in2="BackgroundImageFix" result="shape"/><feGaussianBlur stdDeviation=".05" result="effect1_foregroundBlur_4002_4043"/></filter><filter id="aa" x="18.946" y="20.076" width="1.161" height="1.231" filterUnits="userSpaceOnUse" color-interpolation-filters="sRGB"><feFlood flood-opacity="0" result="BackgroundImageFix"/><feBlend in="SourceGraphic" in2="BackgroundImageFix" result="shape"/><feGaussianBlur stdDeviation=".1" result="effect1_foregroundBlur_4002_4043"/></filter><filter id="ac" x="17.936" y="20.02" width="1.125" height=".855" filterUnits="userSpaceOnUse" color-interpolation-filters="sRGB"><feFlood flood-opacity="0" result="BackgroundImageFix"/><feBlend in="SourceGraphic" in2="BackgroundImageFix" result="shape"/><feGaussianBlur stdDeviation=".05" result="effect1_foregroundBlur_4002_4043"/></filter><filter id="ae" x="13.709" y="19.81" width="4.345" height="5.433" filterUnits="userSpaceOnUse" color-interpolation-filters="sRGB"><feFlood flood-opacity="0" result="BackgroundImageFix"/><feBlend in="SourceGraphic" in2="BackgroundImageFix" result="shape"/><feGaussianBlur stdDeviation=".5" result="effect1_foregroundBlur_4002_4043"/></filter><filter id="ag" x="14.835" y="20.468" width="2.545" height="3.632" filterUnits="userSpaceOnUse" color-interpolation-filters="sRGB"><feFlood flood-opacity="0" result="BackgroundImageFix"/><feBlend in="SourceGraphic" in2="BackgroundImageFix" result="shape"/><feGaussianBlur stdDeviation=".05" result="effect1_foregroundBlur_4002_4043"/></filter><filter id="ak" x="2.981" y="4.99" width="26.439" height="16.241" filterUnits="userSpaceOnUse" color-interpolation-filters="sRGB"><feFlood flood-opacity="0" result="BackgroundImageFix"/><feBlend in="SourceGraphic" in2="BackgroundImageFix" result="shape"/><feColorMatrix in="SourceAlpha" values="0 0 0 0 0 0 0 0 0 0 0 0 0 0 0 0 0 0 127 0" result="hardAlpha"/><feOffset dx=".4" dy="-1"/><feGaussianBlur stdDeviation=".625"/><feComposite in2="hardAlpha" operator="arithmetic" k2="-1" k3="1"/><feColorMatrix values="0 0 0 0 0.239216 0 0 0 0 0.117647 0 0 0 0 0.2 0 0 0 1 0"/><feBlend in2="shape" result="effect1_innerShadow_4002_4043"/></filter><filter id="ap" x="17.983" y="17.264" width="2.745" height="1.051" filterUnits="userSpaceOnUse" color-interpolation-filters="sRGB"><feFlood flood-opacity="0" result="BackgroundImageFix"/><feBlend in="SourceGraphic" in2="BackgroundImageFix" result="shape"/><feGaussianBlur stdDeviation=".1" result="effect1_foregroundBlur_4002_4043"/></filter><filter id="ar" x="11.248" y="17.264" width="2.745" height="1.051" filterUnits="userSpaceOnUse" color-interpolation-filters="sRGB"><feFlood flood-opacity="0" result="BackgroundImageFix"/><feBlend in="SourceGraphic" in2="BackgroundImageFix" result="shape"/><feGaussianBlur stdDeviation=".1" result="effect1_foregroundBlur_4002_4043"/></filter><filter id="at" x="17.795" y="26.642" width="5.315" height="2.887" filterUnits="userSpaceOnUse" color-interpolation-filters="sRGB"><feFlood flood-opacity="0" result="BackgroundImageFix"/><feBlend in="SourceGraphic" in2="BackgroundImageFix" result="shape"/><feGaussianBlur stdDeviation=".25" result="effect1_foregroundBlur_4002_4043"/></filter><filter id="au" x="7.842" y="8.976" width="2.823" height="7.949" filterUnits="userSpaceOnUse" color-interpolation-filters="sRGB"><feFlood flood-opacity="0" result="BackgroundImageFix"/><feBlend in="SourceGraphic" in2="BackgroundImageFix" result="shape"/><feGaussianBlur stdDeviation=".2" result="effect1_foregroundBlur_4002_4043"/></filter><filter id="aw" x="14.644" y="8.017" width="9.012" height="8.125" filterUnits="userSpaceOnUse" color-interpolation-filters="sRGB"><feFlood flood-opacity="0" result="BackgroundImageFix"/><feBlend in="SourceGraphic" in2="BackgroundImageFix" result="shape"/><feGaussianBlur stdDeviation=".5" result="effect1_foregroundBlur_4002_4043"/></filter><filter id="ay" x="23.361" y="13.32" width="2.331" height="5.644" filterUnits="userSpaceOnUse" color-interpolation-filters="sRGB"><feFlood flood-opacity="0" result="BackgroundImageFix"/><feBlend in="SourceGraphic" in2="BackgroundImageFix" result="shape"/><feGaussianBlur stdDeviation=".2" result="effect1_foregroundBlur_4002_4043"/></filter><filter id="aA" x="24.79" y="14.922" width="4.259" height="3.714" filterUnits="userSpaceOnUse" color-interpolation-filters="sRGB"><feFlood flood-opacity="0" result="BackgroundImageFix"/><feBlend in="SourceGraphic" in2="BackgroundImageFix" result="shape"/><feGaussianBlur stdDeviation=".2" result="effect1_foregroundBlur_4002_4043"/></filter><filter id="aC" x="22.059" y="13.311" width="1.522" height="3.444" filterUnits="userSpaceOnUse" color-interpolation-filters="sRGB"><feFlood flood-opacity="0" result="BackgroundImageFix"/><feBlend in="SourceGraphic" in2="BackgroundImageFix" result="shape"/><feGaussianBlur stdDeviation=".15" result="effect1_foregroundBlur_4002_4043"/></filter><linearGradient id="a" x1="26.875" y1="24.656" x2="2.25" y2="24.656" gradientUnits="userSpaceOnUse"><stop stop-color="#826EB9"/><stop offset="1" stop-color="#564481"/></linearGradient><linearGradient id="i" x1="6.563" y1="30" x2="6.563" y2="27.25" gradientUnits="userSpaceOnUse"><stop stop-color="#62439C"/><stop offset="1" stop-color="#62439C" stop-opacity="0"/></linearGradient><linearGradient id="l" x1="24.5" y1="30.438" x2="24.5" y2="28.656" gradientUnits="userSpaceOnUse"><stop stop-color="#674AA0"/><stop offset="1" stop-color="#674AA0" stop-opacity="0"/></linearGradient><linearGradient id="n" x1="22.219" y1="24.875" x2="22.719" y2="26.313" gradientUnits="userSpaceOnUse"><stop offset=".086" stop-color="#533E7C"/><stop offset="1" stop-color="#7456AA" stop-opacity="0"/></linearGradient><linearGradient id="p" x1="19.191" y1="31.017" x2="18.441" y2="27.642" gradientUnits="userSpaceOnUse"><stop stop-color="#99597C"/><stop offset=".615" stop-color="#B8827D"/></linearGradient><linearGradient id="q" x1="16.816" y1="26.5" x2="18.472" y2="29.079" gradientUnits="userSpaceOnUse"><stop stop-color="#CBA083"/><stop offset="1" stop-color="#CBA083" stop-opacity="0"/></linearGradient><linearGradient id="s" x1="13.404" y1="27.345" x2="11.869" y2="31.044" gradientUnits="userSpaceOnUse"><stop offset=".053" stop-color="#B38970"/><stop offset=".637" stop-color="#A06B76"/></linearGradient><linearGradient id="w" x1="24.285" y1="3.365" x2="21.584" y2="5.963" gradientUnits="userSpaceOnUse"><stop offset=".32" stop-color="#399BE2"/><stop offset="1" stop-color="#3A91CE"/></linearGradient><linearGradient id="y" x1="17.5" y1="2.498" x2="14.905" y2="5" gradientUnits="userSpaceOnUse"><stop offset=".32" stop-color="#399BE2"/><stop offset="1" stop-color="#3A91CE"/></linearGradient><linearGradient id="A" x1="11.003" y1="3.399" x2="8.302" y2="6.003" gradientUnits="userSpaceOnUse"><stop offset=".32" stop-color="#399BE2"/><stop offset="1" stop-color="#3A91CE"/></linearGradient><linearGradient id="B" x1="21.737" y1="19.481" x2="24.104" y2="16.235" gradientUnits="userSpaceOnUse"><stop offset=".32" stop-color="#AB7E78"/><stop offset="1" stop-color="#C29E84"/></linearGradient><linearGradient id="J" x1="23.172" y1="20.86" x2="12.806" y2="20.86" gradientUnits="userSpaceOnUse"><stop stop-color="#BB8D7B"/><stop offset="1" stop-color="#84535E"/></linearGradient><linearGradient id="W" x1="14.16" y1="20.642" x2="13.753" y2="20.893" gradientUnits="userSpaceOnUse"><stop stop-color="#B4948D"/><stop offset="1" stop-color="#B4948D" stop-opacity="0"/></linearGradient><linearGradient id="ab" x1="19.816" y1="20.642" x2="19.409" y2="20.893" gradientUnits="userSpaceOnUse"><stop stop-color="#B4948D"/><stop offset="1" stop-color="#B4948D" stop-opacity="0"/></linearGradient><linearGradient id="af" x1="15.383" y1="24.094" x2="15.665" y2="21.859" gradientUnits="userSpaceOnUse"><stop stop-color="#824E60"/><stop offset="1" stop-color="#824E60" stop-opacity="0"/></linearGradient><linearGradient id="ah" x1="15.763" y1="23.391" x2="15.5" y2="21.113" gradientUnits="userSpaceOnUse"><stop stop-color="#8D6062"/><stop offset="1" stop-color="#8D6062" stop-opacity="0"/><stop offset="1" stop-color="#70454C" stop-opacity="0"/></linearGradient><linearGradient id="aq" x1="19.797" y1="17.945" x2="17.664" y2="17.891" gradientUnits="userSpaceOnUse"><stop stop-color="#5C4546"/><stop offset="1" stop-color="#5C4546" stop-opacity="0"/></linearGradient><linearGradient id="as" x1="13.019" y1="17.789" x2="11.073" y2="18.654" gradientUnits="userSpaceOnUse"><stop stop-color="#5C4546"/><stop offset="1" stop-color="#5C4546" stop-opacity="0"/></linearGradient><linearGradient id="av" x1="9.719" y1="16.814" x2="8.312" y2="7.673" gradientUnits="userSpaceOnUse"><stop offset=".298" stop-color="#564341"/><stop offset=".804" stop-color="#564341" stop-opacity="0"/></linearGradient><linearGradient id="aB" x1="25.95" y1="16.544" x2="28.334" y2="17.898" gradientUnits="userSpaceOnUse"><stop stop-color="#594644"/><stop offset="1" stop-color="#574443"/></linearGradient></defs></svg>