<svg xmlns="http://www.w3.org/2000/svg" fill="none" viewBox="0 0 32 32"><g filter="url(#woman-getting-massage_svg__a)"><path fill="url(#woman-getting-massage_svg__b)" d="M5.65 29.745h20.7c-.494-4.932-5.203-8.665-10.39-8.665-5.189 0-9.713 3.764-10.31 8.665"/><path fill="url(#woman-getting-massage_svg__c)" d="M5.65 29.745h20.7c-.494-4.932-5.203-8.665-10.39-8.665-5.189 0-9.713 3.764-10.31 8.665"/></g><path fill="url(#woman-getting-massage_svg__d)" d="M5.65 29.745h20.7c-.494-4.932-5.203-8.665-10.39-8.665-5.189 0-9.713 3.764-10.31 8.665"/><path fill="url(#woman-getting-massage_svg__e)" d="M5.65 29.745h20.7c-.494-4.932-5.203-8.665-10.39-8.665-5.189 0-9.713 3.764-10.31 8.665"/><g filter="url(#woman-getting-massage_svg__f)"><path fill="url(#woman-getting-massage_svg__g)" d="M23.846 11.892c-.56-.982-.53-1.722-.639-2.036l-6.664 2.824v8.915h3.72c2.443 0 3.523-1.02 4.003-2.22s.28-2.132.06-2.794a1.54 1.54 0 0 1 .03-.999c.452-1.252.176-2.49-.51-3.69"/><path fill="url(#woman-getting-massage_svg__h)" d="M23.846 11.892c-.56-.982-.53-1.722-.639-2.036l-6.664 2.824v8.915h3.72c2.443 0 3.523-1.02 4.003-2.22s.28-2.132.06-2.794a1.54 1.54 0 0 1 .03-.999c.452-1.252.176-2.49-.51-3.69"/></g><g filter="url(#woman-getting-massage_svg__i)"><path fill="url(#woman-getting-massage_svg__j)" d="M8.154 11.892c.56-.982.53-1.722.638-2.036l6.665 2.824v8.915h-3.72c-2.443 0-3.523-1.02-4.003-2.22s-.28-2.132-.06-2.794a1.54 1.54 0 0 0-.03-.999c-.452-1.252-.176-2.49.51-3.69"/></g><path fill="url(#woman-getting-massage_svg__k)" d="M8.154 11.892c.56-.982.53-1.722.638-2.036l6.665 2.824v8.915h-3.72c-2.443 0-3.523-1.02-4.003-2.22s-.28-2.132-.06-2.794a1.54 1.54 0 0 0-.03-.999c-.452-1.252-.176-2.49.51-3.69"/><path fill="url(#woman-getting-massage_svg__l)" d="M8.154 11.892c.56-.982.53-1.722.638-2.036l6.665 2.824v8.915h-3.72c-2.443 0-3.523-1.02-4.003-2.22s-.28-2.132-.06-2.794a1.54 1.54 0 0 0-.03-.999c-.452-1.252-.176-2.49.51-3.69"/><circle cx="10.604" cy="14.381" r="1.979" fill="url(#woman-getting-massage_svg__m)"/><g filter="url(#woman-getting-massage_svg__n)" opacity=".5"><circle cx="10.604" cy="14.381" r="1.293" fill="#D07D1C"/></g><circle cx="21.396" cy="14.381" r="1.979" fill="url(#woman-getting-massage_svg__o)"/><circle cx="21.396" cy="14.381" r="1.979" fill="url(#woman-getting-massage_svg__p)"/><g filter="url(#woman-getting-massage_svg__q)"><circle cx="21.396" cy="14.381" r="1.293" fill="#FFC12D"/></g><g filter="url(#woman-getting-massage_svg__r)"><circle cx="13.524" cy="13.258" r="1.415" fill="url(#woman-getting-massage_svg__s)"/></g><path fill="#FFAD20" d="M13.75 20.016a2.256 2.256 0 0 1 4.512 0v2.102c0 1.246-1.588 1.624-2.256 1.624-.766 0-2.257-.378-2.257-1.624z"/><path fill="url(#woman-getting-massage_svg__t)" d="M13.75 20.016a2.256 2.256 0 0 1 4.512 0v2.102c0 1.246-1.588 1.624-2.256 1.624-.766 0-2.257-.378-2.257-1.624z"/><path fill="url(#woman-getting-massage_svg__u)" d="M13.75 20.016a2.256 2.256 0 0 1 4.512 0v2.102c0 1.246-1.588 1.624-2.256 1.624-.766 0-2.257-.378-2.257-1.624z"/><g filter="url(#woman-getting-massage_svg__v)"><rect width="11.521" height="15.258" x="10.24" y="5.822" fill="url(#woman-getting-massage_svg__w)" rx="5.76"/></g><rect width="11.521" height="15.258" x="10.24" y="5.822" fill="url(#woman-getting-massage_svg__x)" rx="5.76"/><rect width="11.521" height="15.258" x="10.24" y="5.822" fill="url(#woman-getting-massage_svg__y)" rx="5.76"/><g filter="url(#woman-getting-massage_svg__z)"><path fill="url(#woman-getting-massage_svg__A)" d="m9.271 2.421 1.516 5.892 1.938-.904c0 .34.199-.38.656 0a78 78 0 0 1 1.727 1.632c.476.46.463 1.207-.027 1.653-.453.413-1.088.35-1.552-.053l-.98-.713a.54.54 0 0 0-.747.042.5.5 0 0 0-.132.337v3.209c0 .639-.537 1.156-1.2 1.156s-1.199-.517-1.199-1.156z"/><path fill="url(#woman-getting-massage_svg__B)" d="m9.271 2.421 1.516 5.892 1.938-.904c0 .34.199-.38.656 0a78 78 0 0 1 1.727 1.632c.476.46.463 1.207-.027 1.653-.453.413-1.088.35-1.552-.053l-.98-.713a.54.54 0 0 0-.747.042.5.5 0 0 0-.132.337v3.209c0 .639-.537 1.156-1.2 1.156s-1.199-.517-1.199-1.156z"/></g><g filter="url(#woman-getting-massage_svg__C)"><path fill="url(#woman-getting-massage_svg__D)" d="M22.646 8.266H19.22l-.684-1.812c0 .352.457.528 0 .923a79 79 0 0 0-1.727 1.692 1.195 1.195 0 0 0 .027 1.714c.453.428 1.09.362 1.554-.055l.978-.74a.527.527 0 0 1 .88.393v3.328a1.2 1.2 0 1 0 2.398 0z"/></g><g filter="url(#woman-getting-massage_svg__E)"><path fill="url(#woman-getting-massage_svg__F)" d="M13.209 8.506c-.782 1.248-2.158 2.114-2.7 2.314V6.672c.265 0 1.576-.142 2.168-.515.694-.437 1.337-1.637 3.352-1.637 1.071 0 1.808.377 2.923 1.337.882.652 2.182.697 2.743.652v4.534c-.517-.373-1.428-.41-1.846-.428h-3.375c-1.744 0-2.934-1.39-3.265-2.11"/><path fill="url(#woman-getting-massage_svg__G)" d="M13.209 8.506c-.782 1.248-2.158 2.114-2.7 2.314V6.672c.265 0 1.576-.142 2.168-.515.694-.437 1.337-1.637 3.352-1.637 1.071 0 1.808.377 2.923 1.337.882.652 2.182.697 2.743.652v4.534c-.517-.373-1.428-.41-1.846-.428h-3.375c-1.744 0-2.934-1.39-3.265-2.11"/><path fill="url(#woman-getting-massage_svg__H)" d="M13.209 8.506c-.782 1.248-2.158 2.114-2.7 2.314V6.672c.265 0 1.576-.142 2.168-.515.694-.437 1.337-1.637 3.352-1.637 1.071 0 1.808.377 2.923 1.337.882.652 2.182.697 2.743.652v4.534c-.517-.373-1.428-.41-1.846-.428h-3.375c-1.744 0-2.934-1.39-3.265-2.11"/><path fill="url(#woman-getting-massage_svg__I)" d="M13.209 8.506c-.782 1.248-2.158 2.114-2.7 2.314V6.672c.265 0 1.576-.142 2.168-.515.694-.437 1.337-1.637 3.352-1.637 1.071 0 1.808.377 2.923 1.337.882.652 2.182.697 2.743.652v4.534c-.517-.373-1.428-.41-1.846-.428h-3.375c-1.744 0-2.934-1.39-3.265-2.11"/></g><g filter="url(#woman-getting-massage_svg__J)"><path fill="url(#woman-getting-massage_svg__K)" d="M13.135 6.297c-.313.207-.83.467-.95.438 1.038 3.687 4.893 3.74 6.59 3.437L20.4 8.61V6.735c-1.164-.57-3.218-1.828-4.671-1.742s-2.204 1.047-2.594 1.304"/><path fill="url(#woman-getting-massage_svg__L)" d="M13.135 6.297c-.313.207-.83.467-.95.438 1.038 3.687 4.893 3.74 6.59 3.437L20.4 8.61V6.735c-1.164-.57-3.218-1.828-4.671-1.742s-2.204 1.047-2.594 1.304"/></g><g filter="url(#woman-getting-massage_svg__M)"><circle cx="13.715" cy="13.342" r="1.33" fill="url(#woman-getting-massage_svg__N)"/></g><g filter="url(#woman-getting-massage_svg__O)"><path stroke="#B73E46" stroke-linecap="round" stroke-width=".55" d="M12.072 12.524c.258-.207.883-.578 1.95-.43"/></g><g filter="url(#woman-getting-massage_svg__P)"><path stroke="url(#woman-getting-massage_svg__Q)" stroke-linecap="round" stroke-width=".15" d="M12.072 12.524c.258-.207.883-.578 1.95-.43"/></g><g filter="url(#woman-getting-massage_svg__R)"><path stroke="#BA3D44" stroke-linecap="round" stroke-width=".55" d="M19.928 12.524c-.258-.207-.883-.578-1.95-.43"/></g><g filter="url(#woman-getting-massage_svg__S)"><path stroke="url(#woman-getting-massage_svg__T)" stroke-linecap="round" stroke-width=".15" d="M19.928 12.47c-.258-.208-.883-.579-1.95-.43"/></g><path stroke="url(#woman-getting-massage_svg__U)" stroke-linecap="round" stroke-width=".55" d="M12.494 14c.146.165.536.45 1.024.47.617.023.949-.305 1.144-.47"/><g filter="url(#woman-getting-massage_svg__V)"><path stroke="url(#woman-getting-massage_svg__W)" stroke-linecap="round" stroke-width=".15" d="M12.494 14c.146.165.536.45 1.024.47.617.023.949-.305 1.144-.47"/></g><path stroke="url(#woman-getting-massage_svg__X)" stroke-linecap="round" stroke-width=".55" d="M17.385 14c.146.165.536.45 1.023.47.617.023.95-.305 1.145-.47"/><g filter="url(#woman-getting-massage_svg__Y)"><path stroke="url(#woman-getting-massage_svg__Z)" stroke-linecap="round" stroke-width=".15" d="M17.385 14c.146.165.536.45 1.023.47.617.023.95-.305 1.145-.47"/></g><g filter="url(#woman-getting-massage_svg__aa)"><path fill="#F4982A" d="M15.872 13.727c-.163 0-.248.093-.297.254l-.887 2.205a.59.59 0 0 0 .112.554c.107.126.261.198.423.198h1a.56.56 0 0 0 .423-.198.59.59 0 0 0 .112-.554l-.677-2.205c-.05-.16-.045-.254-.209-.254"/></g><path fill="#FFB31F" d="M16 13.641a.375.375 0 0 0-.357.262l-.678 2.14a.56.56 0 0 0 .535.73h1a.56.56 0 0 0 .535-.73l-.677-2.14a.375.375 0 0 0-.358-.262"/><path fill="url(#woman-getting-massage_svg__ab)" d="M16 13.641a.375.375 0 0 0-.357.262l-.678 2.14a.56.56 0 0 0 .535.73h1a.56.56 0 0 0 .535-.73l-.677-2.14a.375.375 0 0 0-.358-.262"/><path fill="url(#woman-getting-massage_svg__ac)" d="M16 13.641a.375.375 0 0 0-.357.262l-.678 2.14a.56.56 0 0 0 .535.73h1a.56.56 0 0 0 .535-.73l-.677-2.14a.375.375 0 0 0-.358-.262"/><g filter="url(#woman-getting-massage_svg__ad)"><path stroke="url(#woman-getting-massage_svg__ae)" stroke-width=".2" d="M14.357 17.349c.344.18.879.384 1.649.384s1.304-.204 1.648-.384c.108-.056.243.013.25.135a.15.15 0 0 1-.014.077c-.76 1.47-3.066 1.456-3.769 0a.15.15 0 0 1-.014-.077c.008-.122.142-.192.25-.135Z"/></g><path fill="#89004E" d="M14.357 17.349c.344.18.879.384 1.649.384s1.304-.204 1.648-.384c.108-.056.243.013.25.135a.15.15 0 0 1-.014.077c-.76 1.47-3.066 1.456-3.769 0a.15.15 0 0 1-.014-.077c.008-.122.142-.192.25-.135"/><g filter="url(#woman-getting-massage_svg__af)"><path fill="#FFB52D" d="M8.599 2.255h3.425v3.609c0 .34.227.998.684 1.38a78 78 0 0 1 1.727 1.631c.476.46.463 1.207-.026 1.653-.454.413-1.088.35-1.553-.052l-.98-.714a.54.54 0 0 0-.746.042.5.5 0 0 0-.133.337v3.21c0 .638-.537 1.156-1.2 1.156S8.6 13.989 8.6 13.35z"/><path fill="url(#woman-getting-massage_svg__ag)" d="M8.599 2.255h3.425v3.609c0 .34.227.998.684 1.38a78 78 0 0 1 1.727 1.631c.476.46.463 1.207-.026 1.653-.454.413-1.088.35-1.553-.052l-.98-.714a.54.54 0 0 0-.746.042.5.5 0 0 0-.133.337v3.21c0 .638-.537 1.156-1.2 1.156S8.6 13.989 8.6 13.35z"/><path fill="url(#woman-getting-massage_svg__ah)" d="M8.599 2.255h3.425v3.609c0 .34.227.998.684 1.38a78 78 0 0 1 1.727 1.631c.476.46.463 1.207-.026 1.653-.454.413-1.088.35-1.553-.052l-.98-.714a.54.54 0 0 0-.746.042.5.5 0 0 0-.133.337v3.21c0 .638-.537 1.156-1.2 1.156S8.6 13.989 8.6 13.35z"/></g><g filter="url(#woman-getting-massage_svg__ai)"><path fill="#FFB62D" d="M23.425 2.255h-3.426v3.609c0 .34-.226.998-.683 1.38a78 78 0 0 0-1.727 1.631 1.124 1.124 0 0 0 .026 1.653c.453.413 1.09.35 1.554-.052l.978-.714a.54.54 0 0 1 .747.042.5.5 0 0 1 .133.337v3.21c0 .638.537 1.156 1.199 1.156s1.199-.518 1.199-1.157z"/><path fill="url(#woman-getting-massage_svg__aj)" d="M23.425 2.255h-3.426v3.609c0 .34-.226.998-.683 1.38a78 78 0 0 0-1.727 1.631 1.124 1.124 0 0 0 .026 1.653c.453.413 1.09.35 1.554-.052l.978-.714a.54.54 0 0 1 .747.042.5.5 0 0 1 .133.337v3.21c0 .638.537 1.156 1.199 1.156s1.199-.518 1.199-1.157z"/></g><g filter="url(#woman-getting-massage_svg__ak)"><path fill="#FFB62D" d="M23.425 2.255h-3.426v3.609c0 .34-.226.998-.683 1.38a78 78 0 0 0-1.727 1.631 1.124 1.124 0 0 0 .026 1.653c.453.413 1.09.35 1.554-.052l.978-.714a.54.54 0 0 1 .747.042.5.5 0 0 1 .133.337v3.21c0 .638.537 1.156 1.199 1.156s1.199-.518 1.199-1.157z"/><path fill="url(#woman-getting-massage_svg__al)" d="M23.425 2.255h-3.426v3.609c0 .34-.226.998-.683 1.38a78 78 0 0 0-1.727 1.631 1.124 1.124 0 0 0 .026 1.653c.453.413 1.09.35 1.554-.052l.978-.714a.54.54 0 0 1 .747.042.5.5 0 0 1 .133.337v3.21c0 .638.537 1.156 1.199 1.156s1.199-.518 1.199-1.157z"/></g><g filter="url(#woman-getting-massage_svg__am)"><path fill="url(#woman-getting-massage_svg__an)" d="m21.075 8.653-2.021 1.435a.61.61 0 0 1-.791-.073.554.554 0 0 1 .027-.8 51 51 0 0 1 1.99-1.723c.876-.707 1.051-1.773 1.03-2.218V2.788h1.705V13.12c0 .308-.26.558-.58.558a.57.57 0 0 1-.578-.559V9.035c0-.388-.458-.612-.782-.381"/></g><g filter="url(#woman-getting-massage_svg__ao)"><path fill="url(#woman-getting-massage_svg__ap)" d="m9.469 9.027 1.31.78v3.433a.656.656 0 0 1-1.31 0z"/></g><g filter="url(#woman-getting-massage_svg__aq)"><path fill="#FFDF38" d="M10.173 5.155v-2.9h1.469V5.79a1 1 0 0 0 .28.693l2.262 2.349a.46.46 0 0 1-.636.663L11.184 7.4a3 3 0 0 1-1.011-2.246"/></g><defs><radialGradient id="woman-getting-massage_svg__b" cx="0" cy="0" r="1" gradientTransform="matrix(-18.0313 0 0 -12.0938 23.481 28.329)" gradientUnits="userSpaceOnUse"><stop stop-color="#936DD4"/><stop offset=".832" stop-color="#725698"/></radialGradient><radialGradient id="woman-getting-massage_svg__c" cx="0" cy="0" r="1" gradientTransform="matrix(-4.16617 -7.1847 8.98984 -5.2129 23.982 28.265)" gradientUnits="userSpaceOnUse"><stop offset=".079" stop-color="#9574DD"/><stop offset="1" stop-color="#9574DD" stop-opacity="0"/></radialGradient><radialGradient id="woman-getting-massage_svg__d" cx="0" cy="0" r="1" gradientTransform="rotate(155.64 5.704 11.337)scale(10.8979 4.51152)" gradientUnits="userSpaceOnUse"><stop offset=".303" stop-color="#6A3874"/><stop offset="1" stop-color="#7C4FA2" stop-opacity="0"/></radialGradient><radialGradient id="woman-getting-massage_svg__e" cx="0" cy="0" r="1" gradientTransform="matrix(0 -9.5924 15.2389 0 16 30.329)" gradientUnits="userSpaceOnUse"><stop offset=".867" stop-color="#623E81" stop-opacity="0"/><stop offset=".977" stop-color="#402452"/></radialGradient><radialGradient id="woman-getting-massage_svg__g" cx="0" cy="0" r="1" gradientTransform="matrix(-5.56244 7.87504 -7.63171 -5.39056 25.318 13.891)" gradientUnits="userSpaceOnUse"><stop offset=".198" stop-color="#FFC135"/><stop offset="1" stop-color="#F28E2A"/></radialGradient><radialGradient id="woman-getting-massage_svg__h" cx="0" cy="0" r="1" gradientTransform="matrix(-2.0625 .53125 -1.29828 -5.04041 24.756 17.079)" gradientUnits="userSpaceOnUse"><stop stop-color="#FFCE3B"/><stop offset="1" stop-color="#FFCE3B" stop-opacity="0"/></radialGradient><radialGradient id="woman-getting-massage_svg__j" cx="0" cy="0" r="1" gradientTransform="rotate(152.281 3.897 10.468)scale(4.87131 9.06872)" gradientUnits="userSpaceOnUse"><stop offset=".172" stop-color="#DF711C"/><stop offset="1" stop-color="#EE861F"/></radialGradient><radialGradient id="woman-getting-massage_svg__k" cx="0" cy="0" r="1" gradientTransform="matrix(1.78475 1.03515 -2.16852 3.73884 8.598 11.304)" gradientUnits="userSpaceOnUse"><stop stop-color="#CD9640"/><stop offset="1" stop-color="#CD9640" stop-opacity="0"/></radialGradient><radialGradient id="woman-getting-massage_svg__l" cx="0" cy="0" r="1" gradientTransform="rotate(128.784 1.788 10.148)scale(2.245 2.60126)" gradientUnits="userSpaceOnUse"><stop offset=".284" stop-color="#C26117"/><stop offset="1" stop-color="#C26117" stop-opacity="0"/></radialGradient><radialGradient id="woman-getting-massage_svg__m" cx="0" cy="0" r="1" gradientTransform="rotate(46.621 -12.242 17.142)scale(2.88068)" gradientUnits="userSpaceOnUse"><stop stop-color="#D88F27"/><stop offset="1" stop-color="#D27F2E"/></radialGradient><radialGradient id="woman-getting-massage_svg__o" cx="0" cy="0" r="1" gradientTransform="rotate(120.672 7.602 13.59)scale(2.63415 1.68373)" gradientUnits="userSpaceOnUse"><stop stop-color="#FFD742"/><stop offset=".908" stop-color="#FDB530"/></radialGradient><radialGradient id="woman-getting-massage_svg__p" cx="0" cy="0" r="1" gradientTransform="rotate(75.315 1.582 21.035)scale(2.34213)" gradientUnits="userSpaceOnUse"><stop offset=".798" stop-color="#EB992F" stop-opacity="0"/><stop offset="1" stop-color="#EB992F"/></radialGradient><radialGradient id="woman-getting-massage_svg__s" cx="0" cy="0" r="1" gradientTransform="rotate(-62.753 18.128 -3.98)scale(2.02672 2.23997)" gradientUnits="userSpaceOnUse"><stop offset=".347" stop-color="#FFB129"/><stop offset=".902" stop-color="#F39423"/></radialGradient><radialGradient id="woman-getting-massage_svg__t" cx="0" cy="0" r="1" gradientTransform="rotate(142.016 5.186 14.604)scale(3.24973 2.31564)" gradientUnits="userSpaceOnUse"><stop offset=".186" stop-color="#FFD73E"/><stop offset="1" stop-color="#FFAE20" stop-opacity="0"/></radialGradient><radialGradient id="woman-getting-massage_svg__u" cx="0" cy="0" r="1" gradientTransform="matrix(1.41333 2.53125 -8.23121 4.59592 14.1 20.516)" gradientUnits="userSpaceOnUse"><stop stop-color="#D37F20"/><stop offset="1" stop-color="#D37F20" stop-opacity="0"/></radialGradient><radialGradient id="woman-getting-massage_svg__w" cx="0" cy="0" r="1" gradientTransform="rotate(174.247 9.377 7.954)scale(6.06562 7.0411)" gradientUnits="userSpaceOnUse"><stop offset=".283" stop-color="#FFDD41"/><stop offset="1" stop-color="#FDA828"/></radialGradient><radialGradient id="woman-getting-massage_svg__x" cx="0" cy="0" r="1" gradientTransform="matrix(0 10.0892 -11.8947 0 16 10.99)" gradientUnits="userSpaceOnUse"><stop offset=".678" stop-color="#EC9433" stop-opacity="0"/><stop offset="1" stop-color="#CD791E"/></radialGradient><radialGradient id="woman-getting-massage_svg__y" cx="0" cy="0" r="1" gradientTransform="matrix(-1.15626 4.78125 -12.88264 -3.11545 17.35 8.829)" gradientUnits="userSpaceOnUse"><stop stop-color="#F4962B"/><stop offset="1" stop-color="#F4962B" stop-opacity="0"/></radialGradient><radialGradient id="woman-getting-massage_svg__A" cx="0" cy="0" r="1" gradientTransform="matrix(1.05598 2.75833 -1.5163 .5805 11.308 7.185)" gradientUnits="userSpaceOnUse"><stop stop-color="#9B4607"/><stop offset="1" stop-color="#D97513"/></radialGradient><radialGradient id="woman-getting-massage_svg__B" cx="0" cy="0" r="1" gradientTransform="matrix(-.11352 -5.07335 3.05801 -.06842 11.005 14.425)" gradientUnits="userSpaceOnUse"><stop stop-color="#CD8135"/><stop offset="1" stop-color="#CD8135" stop-opacity="0"/></radialGradient><radialGradient id="woman-getting-massage_svg__D" cx="0" cy="0" r="1" gradientTransform="matrix(.0704 7.01754 -5.71616 .05734 20.358 7.09)" gradientUnits="userSpaceOnUse"><stop stop-color="#B95A08"/><stop offset="1" stop-color="#FBA42D"/></radialGradient><radialGradient id="woman-getting-massage_svg__F" cx="0" cy="0" r="1" gradientTransform="rotate(-156.125 10.589 2.047)scale(6.25391 3.63898)" gradientUnits="userSpaceOnUse"><stop offset=".136" stop-color="#FFD52B"/><stop offset="1" stop-color="#FFB611"/></radialGradient><radialGradient id="woman-getting-massage_svg__G" cx="0" cy="0" r="1" gradientTransform="matrix(2.0625 -1.6875 2.89382 3.5369 10.818 10.204)" gradientUnits="userSpaceOnUse"><stop stop-color="#E77421"/><stop offset="1" stop-color="#E77421" stop-opacity="0"/></radialGradient><radialGradient id="woman-getting-massage_svg__H" cx="0" cy="0" r="1" gradientTransform="rotate(-144.811 12.394 1.874)scale(2.98253 5.11462)" gradientUnits="userSpaceOnUse"><stop stop-color="#F49512"/><stop offset="1" stop-color="#F49512" stop-opacity="0"/></radialGradient><radialGradient id="woman-getting-massage_svg__I" cx="0" cy="0" r="1" gradientTransform="matrix(3.1875 -2.5625 .76061 .94612 12.13 6.672)" gradientUnits="userSpaceOnUse"><stop stop-color="#BF9A3B"/><stop offset="1" stop-color="#BF9A3B" stop-opacity="0"/></radialGradient><radialGradient id="woman-getting-massage_svg__K" cx="0" cy="0" r="1" gradientTransform="matrix(-1.62502 -4.71512 4.31184 -1.48603 17.13 9.704)" gradientUnits="userSpaceOnUse"><stop offset=".524" stop-color="#FBBA28" stop-opacity="0"/><stop offset="1" stop-color="#FBBA28"/></radialGradient><radialGradient id="woman-getting-massage_svg__L" cx="0" cy="0" r="1" gradientTransform="rotate(-58.443 17.093 -10.396)scale(4.65751 13.5396)" gradientUnits="userSpaceOnUse"><stop offset=".512" stop-color="#FFB91D" stop-opacity="0"/><stop offset=".952" stop-color="#C08D3E"/></radialGradient><radialGradient id="woman-getting-massage_svg__N" cx="0" cy="0" r="1" gradientTransform="rotate(-62.753 18.263 -4.122)scale(1.90544 2.10594)" gradientUnits="userSpaceOnUse"><stop offset=".347" stop-color="#FFB129"/><stop offset=".902" stop-color="#F39423"/></radialGradient><radialGradient id="woman-getting-massage_svg__U" cx="0" cy="0" r="1" gradientTransform="matrix(0 -1.07812 3.27721 0 13.578 14.594)" gradientUnits="userSpaceOnUse"><stop offset=".251" stop-color="#8A374B"/><stop offset="1" stop-color="#B54919"/></radialGradient><radialGradient id="woman-getting-massage_svg__X" cx="0" cy="0" r="1" gradientTransform="matrix(0 -1.07812 3.27721 0 18.469 14.594)" gradientUnits="userSpaceOnUse"><stop offset=".251" stop-color="#8A374B"/><stop offset="1" stop-color="#B54919"/></radialGradient><radialGradient id="woman-getting-massage_svg__ac" cx="0" cy="0" r="1" gradientTransform="matrix(.19455 -1.08993 4.30797 .76898 16 16.774)" gradientUnits="userSpaceOnUse"><stop offset=".03" stop-color="#ED8F30"/><stop offset="1" stop-color="#FFB520" stop-opacity="0"/></radialGradient><radialGradient id="woman-getting-massage_svg__ae" cx="0" cy="0" r="1" gradientTransform="rotate(-62.526 22.58 -3.107)scale(.44028 1.97794)" gradientUnits="userSpaceOnUse"><stop offset=".156" stop-color="#FFB333"/><stop offset="1" stop-color="#FFB333" stop-opacity="0"/></radialGradient><radialGradient id="woman-getting-massage_svg__ag" cx="0" cy="0" r="1" gradientTransform="matrix(3.15625 8.25793 -4.21158 1.6097 12.419 3.25)" gradientUnits="userSpaceOnUse"><stop stop-color="#FFDF3B"/><stop offset="1" stop-color="#FFDF3B" stop-opacity="0"/></radialGradient><radialGradient id="woman-getting-massage_svg__ah" cx="0" cy="0" r="1" gradientTransform="rotate(-124.889 8.671 2.22)scale(3.14147 1.04527)" gradientUnits="userSpaceOnUse"><stop stop-color="#C96A05"/><stop offset="1" stop-color="#FFA92E" stop-opacity="0"/></radialGradient><radialGradient id="woman-getting-massage_svg__aj" cx="0" cy="0" r="1" gradientTransform="matrix(0 3.99577 -1.29371 0 22.519 2.113)" gradientUnits="userSpaceOnUse"><stop stop-color="#FFE041"/><stop offset="1" stop-color="#FFE041" stop-opacity="0"/></radialGradient><radialGradient id="woman-getting-massage_svg__al" cx="0" cy="0" r="1" gradientTransform="matrix(0 3.99577 -1.29371 0 22.519 2.113)" gradientUnits="userSpaceOnUse"><stop stop-color="#FFE041"/><stop offset="1" stop-color="#FFE041" stop-opacity="0"/></radialGradient><filter id="woman-getting-massage_svg__a" width="21.451" height="8.965" x="5.649" y="20.78" color-interpolation-filters="sRGB" filterUnits="userSpaceOnUse"><feFlood flood-opacity="0" result="BackgroundImageFix"/><feBlend in="SourceGraphic" in2="BackgroundImageFix" result="shape"/><feColorMatrix in="SourceAlpha" result="hardAlpha" values="0 0 0 0 0 0 0 0 0 0 0 0 0 0 0 0 0 0 127 0"/><feOffset dy="-.3"/><feGaussianBlur stdDeviation=".3"/><feComposite in2="hardAlpha" k2="-1" k3="1" operator="arithmetic"/><feColorMatrix values="0 0 0 0 0.458824 0 0 0 0 0.27451 0 0 0 0 0.780392 0 0 0 1 0"/><feBlend in2="shape" result="effect1_innerShadow_3987_24254"/><feColorMatrix in="SourceAlpha" result="hardAlpha" values="0 0 0 0 0 0 0 0 0 0 0 0 0 0 0 0 0 0 127 0"/><feOffset dx=".75"/><feGaussianBlur stdDeviation=".625"/><feComposite in2="hardAlpha" k2="-1" k3="1" operator="arithmetic"/><feColorMatrix values="0 0 0 0 0.454902 0 0 0 0 0.376471 0 0 0 0 0.6 0 0 0 1 0"/><feBlend in2="effect1_innerShadow_3987_24254" result="effect2_innerShadow_3987_24254"/></filter><filter id="woman-getting-massage_svg__f" width="8.434" height="11.989" x="16.543" y="9.606" color-interpolation-filters="sRGB" filterUnits="userSpaceOnUse"><feFlood flood-opacity="0" result="BackgroundImageFix"/><feBlend in="SourceGraphic" in2="BackgroundImageFix" result="shape"/><feColorMatrix in="SourceAlpha" result="hardAlpha" values="0 0 0 0 0 0 0 0 0 0 0 0 0 0 0 0 0 0 127 0"/><feOffset dx=".4" dy="-.25"/><feGaussianBlur stdDeviation=".4"/><feComposite in2="hardAlpha" k2="-1" k3="1" operator="arithmetic"/><feColorMatrix values="0 0 0 0 0.52549 0 0 0 0 0.27451 0 0 0 0 0.101961 0 0 0 1 0"/><feBlend in2="shape" result="effect1_innerShadow_3987_24254"/></filter><filter id="woman-getting-massage_svg__i" width="8.784" height="12.039" x="7.173" y="9.556" color-interpolation-filters="sRGB" filterUnits="userSpaceOnUse"><feFlood flood-opacity="0" result="BackgroundImageFix"/><feBlend in="SourceGraphic" in2="BackgroundImageFix" result="shape"/><feColorMatrix in="SourceAlpha" result="hardAlpha" values="0 0 0 0 0 0 0 0 0 0 0 0 0 0 0 0 0 0 127 0"/><feOffset dx=".5"/><feGaussianBlur stdDeviation=".5"/><feComposite in2="hardAlpha" k2="-1" k3="1" operator="arithmetic"/><feColorMatrix values="0 0 0 0 0.811765 0 0 0 0 0.54902 0 0 0 0 0.254902 0 0 0 1 0"/><feBlend in2="shape" result="effect1_innerShadow_3987_24254"/><feColorMatrix in="SourceAlpha" result="hardAlpha" values="0 0 0 0 0 0 0 0 0 0 0 0 0 0 0 0 0 0 127 0"/><feOffset dx="-.25" dy="-.3"/><feGaussianBlur stdDeviation=".5"/><feComposite in2="hardAlpha" k2="-1" k3="1" operator="arithmetic"/><feColorMatrix values="0 0 0 0 0.54902 0 0 0 0 0.254902 0 0 0 0 0.0705882 0 0 0 1 0"/><feBlend in2="effect1_innerShadow_3987_24254" result="effect2_innerShadow_3987_24254"/></filter><filter id="woman-getting-massage_svg__n" width="2.986" height="2.986" x="9.111" y="12.888" color-interpolation-filters="sRGB" filterUnits="userSpaceOnUse"><feFlood flood-opacity="0" result="BackgroundImageFix"/><feBlend in="SourceGraphic" in2="BackgroundImageFix" result="shape"/><feGaussianBlur result="effect1_foregroundBlur_3987_24254" stdDeviation=".1"/></filter><filter id="woman-getting-massage_svg__q" width="2.986" height="2.986" x="19.904" y="12.888" color-interpolation-filters="sRGB" filterUnits="userSpaceOnUse"><feFlood flood-opacity="0" result="BackgroundImageFix"/><feBlend in="SourceGraphic" in2="BackgroundImageFix" result="shape"/><feGaussianBlur result="effect1_foregroundBlur_3987_24254" stdDeviation=".1"/></filter><filter id="woman-getting-massage_svg__r" width="3.829" height="3.829" x="11.609" y="11.343" color-interpolation-filters="sRGB" filterUnits="userSpaceOnUse"><feFlood flood-opacity="0" result="BackgroundImageFix"/><feBlend in="SourceGraphic" in2="BackgroundImageFix" result="shape"/><feGaussianBlur result="effect1_foregroundBlur_3987_24254" stdDeviation=".25"/></filter><filter id="woman-getting-massage_svg__v" width="12.021" height="15.258" x="10.24" y="5.822" color-interpolation-filters="sRGB" filterUnits="userSpaceOnUse"><feFlood flood-opacity="0" result="BackgroundImageFix"/><feBlend in="SourceGraphic" in2="BackgroundImageFix" result="shape"/><feColorMatrix in="SourceAlpha" result="hardAlpha" values="0 0 0 0 0 0 0 0 0 0 0 0 0 0 0 0 0 0 127 0"/><feOffset dx=".5"/><feGaussianBlur stdDeviation=".375"/><feComposite in2="hardAlpha" k2="-1" k3="1" operator="arithmetic"/><feColorMatrix values="0 0 0 0 0.807843 0 0 0 0 0.607843 0 0 0 0 0.278431 0 0 0 1 0"/><feBlend in2="shape" result="effect1_innerShadow_3987_24254"/></filter><filter id="woman-getting-massage_svg__z" width="8.186" height="14.251" x="8.271" y="1.421" color-interpolation-filters="sRGB" filterUnits="userSpaceOnUse"><feFlood flood-opacity="0" result="BackgroundImageFix"/><feBlend in="SourceGraphic" in2="BackgroundImageFix" result="shape"/><feGaussianBlur result="effect1_foregroundBlur_3987_24254" stdDeviation=".5"/></filter><filter id="woman-getting-massage_svg__C" width="8.186" height="10.454" x="15.46" y="5.454" color-interpolation-filters="sRGB" filterUnits="userSpaceOnUse"><feFlood flood-opacity="0" result="BackgroundImageFix"/><feBlend in="SourceGraphic" in2="BackgroundImageFix" result="shape"/><feGaussianBlur result="effect1_foregroundBlur_3987_24254" stdDeviation=".5"/></filter><filter id="woman-getting-massage_svg__E" width="11.186" height="6.923" x="10.508" y="4.12" color-interpolation-filters="sRGB" filterUnits="userSpaceOnUse"><feFlood flood-opacity="0" result="BackgroundImageFix"/><feBlend in="SourceGraphic" in2="BackgroundImageFix" result="shape"/><feColorMatrix in="SourceAlpha" result="hardAlpha" values="0 0 0 0 0 0 0 0 0 0 0 0 0 0 0 0 0 0 127 0"/><feOffset dy="-.4"/><feGaussianBlur stdDeviation=".3"/><feComposite in2="hardAlpha" k2="-1" k3="1" operator="arithmetic"/><feColorMatrix values="0 0 0 0 0.870588 0 0 0 0 0.466667 0 0 0 0 0.0862745 0 0 0 1 0"/><feBlend in2="shape" result="effect1_innerShadow_3987_24254"/></filter><filter id="woman-getting-massage_svg__J" width="8.715" height="5.797" x="11.935" y="4.739" color-interpolation-filters="sRGB" filterUnits="userSpaceOnUse"><feFlood flood-opacity="0" result="BackgroundImageFix"/><feBlend in="SourceGraphic" in2="BackgroundImageFix" result="shape"/><feGaussianBlur result="effect1_foregroundBlur_3987_24254" stdDeviation=".125"/></filter><filter id="woman-getting-massage_svg__M" width="3.66" height="3.66" x="11.885" y="11.512" color-interpolation-filters="sRGB" filterUnits="userSpaceOnUse"><feFlood flood-opacity="0" result="BackgroundImageFix"/><feBlend in="SourceGraphic" in2="BackgroundImageFix" result="shape"/><feGaussianBlur result="effect1_foregroundBlur_3987_24254" stdDeviation=".25"/></filter><filter id="woman-getting-massage_svg__O" width="2.699" height="1.214" x="11.797" y="11.785" color-interpolation-filters="sRGB" filterUnits="userSpaceOnUse"><feFlood flood-opacity="0" result="BackgroundImageFix"/><feBlend in="SourceGraphic" in2="BackgroundImageFix" result="shape"/><feColorMatrix in="SourceAlpha" result="hardAlpha" values="0 0 0 0 0 0 0 0 0 0 0 0 0 0 0 0 0 0 127 0"/><feOffset dx=".2" dy=".2"/><feGaussianBlur stdDeviation=".1"/><feComposite in2="hardAlpha" k2="-1" k3="1" operator="arithmetic"/><feColorMatrix values="0 0 0 0 0.698039 0 0 0 0 0.27451 0 0 0 0 0.109804 0 0 0 1 0"/><feBlend in2="shape" result="effect1_innerShadow_3987_24254"/></filter><filter id="woman-getting-massage_svg__P" width="2.399" height=".914" x="11.847" y="11.835" color-interpolation-filters="sRGB" filterUnits="userSpaceOnUse"><feFlood flood-opacity="0" result="BackgroundImageFix"/><feBlend in="SourceGraphic" in2="BackgroundImageFix" result="shape"/><feGaussianBlur result="effect1_foregroundBlur_3987_24254" stdDeviation=".075"/></filter><filter id="woman-getting-massage_svg__R" width="2.699" height="1.214" x="17.703" y="11.785" color-interpolation-filters="sRGB" filterUnits="userSpaceOnUse"><feFlood flood-opacity="0" result="BackgroundImageFix"/><feBlend in="SourceGraphic" in2="BackgroundImageFix" result="shape"/><feColorMatrix in="SourceAlpha" result="hardAlpha" values="0 0 0 0 0 0 0 0 0 0 0 0 0 0 0 0 0 0 127 0"/><feOffset dx=".2" dy=".2"/><feGaussianBlur stdDeviation=".1"/><feComposite in2="hardAlpha" k2="-1" k3="1" operator="arithmetic"/><feColorMatrix values="0 0 0 0 0.745098 0 0 0 0 0.282353 0 0 0 0 0.117647 0 0 0 1 0"/><feBlend in2="shape" result="effect1_innerShadow_3987_24254"/></filter><filter id="woman-getting-massage_svg__S" width="2.399" height=".914" x="17.753" y="11.78" color-interpolation-filters="sRGB" filterUnits="userSpaceOnUse"><feFlood flood-opacity="0" result="BackgroundImageFix"/><feBlend in="SourceGraphic" in2="BackgroundImageFix" result="shape"/><feGaussianBlur result="effect1_foregroundBlur_3987_24254" stdDeviation=".075"/></filter><filter id="woman-getting-massage_svg__V" width="2.618" height=".92" x="12.269" y="13.775" color-interpolation-filters="sRGB" filterUnits="userSpaceOnUse"><feFlood flood-opacity="0" result="BackgroundImageFix"/><feBlend in="SourceGraphic" in2="BackgroundImageFix" result="shape"/><feGaussianBlur result="effect1_foregroundBlur_3987_24254" stdDeviation=".075"/></filter><filter id="woman-getting-massage_svg__Y" width="2.618" height=".92" x="17.16" y="13.775" color-interpolation-filters="sRGB" filterUnits="userSpaceOnUse"><feFlood flood-opacity="0" result="BackgroundImageFix"/><feBlend in="SourceGraphic" in2="BackgroundImageFix" result="shape"/><feGaussianBlur result="effect1_foregroundBlur_3987_24254" stdDeviation=".075"/></filter><filter id="woman-getting-massage_svg__aa" width="3.122" height="4.211" x="14.162" y="13.227" color-interpolation-filters="sRGB" filterUnits="userSpaceOnUse"><feFlood flood-opacity="0" result="BackgroundImageFix"/><feBlend in="SourceGraphic" in2="BackgroundImageFix" result="shape"/><feGaussianBlur result="effect1_foregroundBlur_3987_24254" stdDeviation=".25"/></filter><filter id="woman-getting-massage_svg__ad" width="4.199" height="1.729" x="13.906" y="17.129" color-interpolation-filters="sRGB" filterUnits="userSpaceOnUse"><feFlood flood-opacity="0" result="BackgroundImageFix"/><feBlend in="SourceGraphic" in2="BackgroundImageFix" result="shape"/><feGaussianBlur result="effect1_foregroundBlur_3987_24254" stdDeviation=".05"/></filter><filter id="woman-getting-massage_svg__af" width="6.686" height="12.451" x="8.599" y="2.055" color-interpolation-filters="sRGB" filterUnits="userSpaceOnUse"><feFlood flood-opacity="0" result="BackgroundImageFix"/><feBlend in="SourceGraphic" in2="BackgroundImageFix" result="shape"/><feColorMatrix in="SourceAlpha" result="hardAlpha" values="0 0 0 0 0 0 0 0 0 0 0 0 0 0 0 0 0 0 127 0"/><feOffset dx=".5" dy="-.2"/><feGaussianBlur stdDeviation=".625"/><feComposite in2="hardAlpha" k2="-1" k3="1" operator="arithmetic"/><feColorMatrix values="0 0 0 0 0.921569 0 0 0 0 0.556863 0 0 0 0 0.164706 0 0 0 1 0"/><feBlend in2="shape" result="effect1_innerShadow_3987_24254"/></filter><filter id="woman-getting-massage_svg__ai" width="6.436" height="12.501" x="17.239" y="2.005" color-interpolation-filters="sRGB" filterUnits="userSpaceOnUse"><feFlood flood-opacity="0" result="BackgroundImageFix"/><feBlend in="SourceGraphic" in2="BackgroundImageFix" result="shape"/><feColorMatrix in="SourceAlpha" result="hardAlpha" values="0 0 0 0 0 0 0 0 0 0 0 0 0 0 0 0 0 0 127 0"/><feOffset dx=".25" dy="-.25"/><feGaussianBlur stdDeviation=".5"/><feComposite in2="hardAlpha" k2="-1" k3="1" operator="arithmetic"/><feColorMatrix values="0 0 0 0 0.917647 0 0 0 0 0.541176 0 0 0 0 0.160784 0 0 0 1 0"/><feBlend in2="shape" result="effect1_innerShadow_3987_24254"/></filter><filter id="woman-getting-massage_svg__ak" width="6.436" height="12.501" x="17.239" y="2.005" color-interpolation-filters="sRGB" filterUnits="userSpaceOnUse"><feFlood flood-opacity="0" result="BackgroundImageFix"/><feBlend in="SourceGraphic" in2="BackgroundImageFix" result="shape"/><feColorMatrix in="SourceAlpha" result="hardAlpha" values="0 0 0 0 0 0 0 0 0 0 0 0 0 0 0 0 0 0 127 0"/><feOffset dx=".25" dy="-.25"/><feGaussianBlur stdDeviation=".5"/><feComposite in2="hardAlpha" k2="-1" k3="1" operator="arithmetic"/><feColorMatrix values="0 0 0 0 0.917647 0 0 0 0 0.541176 0 0 0 0 0.160784 0 0 0 1 0"/><feBlend in2="shape" result="effect1_innerShadow_3987_24254"/></filter><filter id="woman-getting-massage_svg__am" width="6.909" height="12.89" x="17.106" y="1.788" color-interpolation-filters="sRGB" filterUnits="userSpaceOnUse"><feFlood flood-opacity="0" result="BackgroundImageFix"/><feBlend in="SourceGraphic" in2="BackgroundImageFix" result="shape"/><feGaussianBlur result="effect1_foregroundBlur_3987_24254" stdDeviation=".5"/></filter><filter id="woman-getting-massage_svg__ao" width="2.811" height="6.368" x="8.719" y="8.277" color-interpolation-filters="sRGB" filterUnits="userSpaceOnUse"><feFlood flood-opacity="0" result="BackgroundImageFix"/><feBlend in="SourceGraphic" in2="BackgroundImageFix" result="shape"/><feGaussianBlur result="effect1_foregroundBlur_3987_24254" stdDeviation=".375"/></filter><filter id="woman-getting-massage_svg__aq" width="5.64" height="8.855" x="9.423" y="1.505" color-interpolation-filters="sRGB" filterUnits="userSpaceOnUse"><feFlood flood-opacity="0" result="BackgroundImageFix"/><feBlend in="SourceGraphic" in2="BackgroundImageFix" result="shape"/><feGaussianBlur result="effect1_foregroundBlur_3987_24254" stdDeviation=".375"/></filter><linearGradient id="woman-getting-massage_svg__Q" x1="14.021" x2="11.81" y1="12.06" y2="12.524" gradientUnits="userSpaceOnUse"><stop stop-color="#CD6F5C"/><stop offset="1" stop-color="#CD6F5C" stop-opacity="0"/></linearGradient><linearGradient id="woman-getting-massage_svg__T" x1="19.989" x2="17.81" y1="12.407" y2="11.922" gradientUnits="userSpaceOnUse"><stop stop-color="#CD6F5C"/><stop offset="1" stop-color="#CD6F5C" stop-opacity="0"/></linearGradient><linearGradient id="woman-getting-massage_svg__W" x1="14.936" x2="12.494" y1="14.001" y2="14.001" gradientUnits="userSpaceOnUse"><stop offset=".045" stop-color="#BF6A57"/><stop offset=".32" stop-color="#93534A"/><stop offset=".794" stop-color="#93534A"/><stop offset="1" stop-color="#BF6A57"/></linearGradient><linearGradient id="woman-getting-massage_svg__Z" x1="19.826" x2="17.385" y1="14.001" y2="14.001" gradientUnits="userSpaceOnUse"><stop offset=".045" stop-color="#BF6A57"/><stop offset=".32" stop-color="#93534A"/><stop offset=".794" stop-color="#93534A"/><stop offset="1" stop-color="#BF6A57"/></linearGradient><linearGradient id="woman-getting-massage_svg__ab" x1="17.061" x2="15.162" y1="15.485" y2="15.672" gradientUnits="userSpaceOnUse"><stop offset=".218" stop-color="#FFDB40"/><stop offset="1" stop-color="#FFDB40" stop-opacity="0"/></linearGradient><linearGradient id="woman-getting-massage_svg__an" x1="22.016" x2="22.016" y1="3.198" y2="14.57" gradientUnits="userSpaceOnUse"><stop offset=".786" stop-color="#FFDF40"/><stop offset="1" stop-color="#FFDF40" stop-opacity="0"/></linearGradient><linearGradient id="woman-getting-massage_svg__ap" x1="10.124" x2="10.124" y1="13.113" y2="8.282" gradientUnits="userSpaceOnUse"><stop stop-color="#FFCA3E"/><stop offset="1" stop-color="#FFCB3B" stop-opacity="0"/></linearGradient></defs></svg>