<svg width="32" height="32" fill="none" xmlns="http://www.w3.org/2000/svg"><g filter="url(#a)"><path d="M7.316 20.916a3 3 0 1 0 0-6 3 3 0 0 0 0 6Z" fill="url(#b)"/></g><g filter="url(#c)"><path d="M25.052 20.916a3 3 0 1 0 0-6 3 3 0 0 0 0 6Z" fill="url(#d)"/><path d="M25.052 20.916a3 3 0 1 0 0-6 3 3 0 0 0 0 6Z" fill="url(#e)"/></g><g filter="url(#f)"><path d="M25.052 19.918a2.003 2.003 0 1 0 0-4.005 2.003 2.003 0 0 0 0 4.005Z" fill="#B38574"/><path d="M25.052 19.918a2.003 2.003 0 1 0 0-4.005 2.003 2.003 0 0 0 0 4.005Z" fill="url(#g)"/></g><g filter="url(#h)"><path d="M7.352 19.918a2.003 2.003 0 1 0 0-4.005 2.003 2.003 0 0 0 0 4.005Z" fill="#7E555A"/><path d="M7.352 19.918a2.003 2.003 0 1 0 0-4.005 2.003 2.003 0 0 0 0 4.005Z" fill="url(#i)"/></g><g filter="url(#j)"><path d="M6.699 20.314c.23 5.225 4.31 8.733 9.29 8.733 4.981 0 9.061-3.508 9.291-8.733l.021-8.722c0-3.3-2.057-5.92-6.3-6.736-1.6-.211-4.5-.214-6 0-4.242.816-6.3 3.435-6.3 6.736L6.7 20.314Z" fill="url(#k)"/><path d="M6.699 20.314c.23 5.225 4.31 8.733 9.29 8.733 4.981 0 9.061-3.508 9.291-8.733l.021-8.722c0-3.3-2.057-5.92-6.3-6.736-1.6-.211-4.5-.214-6 0-4.242.816-6.3 3.435-6.3 6.736L6.7 20.314Z" fill="url(#l)"/><path d="M6.699 20.314c.23 5.225 4.31 8.733 9.29 8.733 4.981 0 9.061-3.508 9.291-8.733l.021-8.722c0-3.3-2.057-5.92-6.3-6.736-1.6-.211-4.5-.214-6 0-4.242.816-6.3 3.435-6.3 6.736L6.7 20.314Z" fill="url(#m)"/><path d="M6.699 20.314c.23 5.225 4.31 8.733 9.29 8.733 4.981 0 9.061-3.508 9.291-8.733l.021-8.722c0-3.3-2.057-5.92-6.3-6.736-1.6-.211-4.5-.214-6 0-4.242.816-6.3 3.435-6.3 6.736L6.7 20.314Z" fill="url(#n)"/><path d="M6.699 20.314c.23 5.225 4.31 8.733 9.29 8.733 4.981 0 9.061-3.508 9.291-8.733l.021-8.722c0-3.3-2.057-5.92-6.3-6.736-1.6-.211-4.5-.214-6 0-4.242.816-6.3 3.435-6.3 6.736L6.7 20.314Z" fill="url(#o)"/><path d="M6.699 20.314c.23 5.225 4.31 8.733 9.29 8.733 4.981 0 9.061-3.508 9.291-8.733l.021-8.722c0-3.3-2.057-5.92-6.3-6.736-1.6-.211-4.5-.214-6 0-4.242.816-6.3 3.435-6.3 6.736L6.7 20.314Z" fill="url(#p)"/><path d="M6.699 20.314c.23 5.225 4.31 8.733 9.29 8.733 4.981 0 9.061-3.508 9.291-8.733l.021-8.722c0-3.3-2.057-5.92-6.3-6.736-1.6-.211-4.5-.214-6 0-4.242.816-6.3 3.435-6.3 6.736L6.7 20.314Z" fill="url(#q)"/></g><g filter="url(#r)"><path d="m15.244 17.718-1.274 2.888a1.005 1.005 0 0 0 .97 1.304h1.466c.688 0 1.173-.662.971-1.304l-.991-2.888c-.212-.702-.92-.702-1.142 0Z" fill="#88555F"/></g><path d="m15.34 17.242-.992 3.17a1.005 1.005 0 0 0 .971 1.304h1.466c.688 0 1.173-.662.971-1.304l-.99-3.17c-.213-.702-1.204-.702-1.427 0Z" fill="#B38578"/><path d="m15.34 17.242-.992 3.17a1.005 1.005 0 0 0 .971 1.304h1.466c.688 0 1.173-.662.971-1.304l-.99-3.17c-.213-.702-1.204-.702-1.427 0Z" fill="url(#s)"/><path d="m15.34 17.242-.992 3.17a1.005 1.005 0 0 0 .971 1.304h1.466c.688 0 1.173-.662.971-1.304l-.99-3.17c-.213-.702-1.204-.702-1.427 0Z" fill="url(#t)"/><path d="m15.34 17.242-.992 3.17a1.005 1.005 0 0 0 .971 1.304h1.466c.688 0 1.173-.662.971-1.304l-.99-3.17c-.213-.702-1.204-.702-1.427 0Z" fill="url(#u)"/><path d="m15.34 17.242-.992 3.17a1.005 1.005 0 0 0 .971 1.304h1.466c.688 0 1.173-.662.971-1.304l-.99-3.17c-.213-.702-1.204-.702-1.427 0Z" fill="url(#v)"/><path d="m15.34 17.242-.992 3.17a1.005 1.005 0 0 0 .971 1.304h1.466c.688 0 1.173-.662.971-1.304l-.99-3.17c-.213-.702-1.204-.702-1.427 0Z" fill="url(#w)"/><path d="m15.34 17.242-.992 3.17a1.005 1.005 0 0 0 .971 1.304h1.466c.688 0 1.173-.662.971-1.304l-.99-3.17c-.213-.702-1.204-.702-1.427 0Z" fill="url(#x)"/><path d="M13.425 22.657a.338.338 0 0 0-.41.072.323.323 0 0 0-.034.409 3.652 3.652 0 0 0 3.071 1.678c1.29 0 2.422-.672 3.071-1.679a.327.327 0 0 0-.034-.412.339.339 0 0 0-.41-.068 5.566 5.566 0 0 1-2.627.637 5.594 5.594 0 0 1-2.627-.637Z" fill="#88024E" stroke="url(#y)" stroke-width=".1"/><g filter="url(#z)"><path d="M18.182 16.855c.494-.87 1.247-1.558 2.866-1.558.709 0 1.392.196 2 .687.501.405.434.924.046 1.118l-1.037.591c-1.215-.392-2.559-.446-3.875-.838Z" fill="#2D2B2E"/></g><g filter="url(#A)"><path d="M13.923 16.855c-.495-.87-1.247-1.558-2.866-1.558-.709 0-1.393.196-2 .687-.501.405-.434.924-.046 1.118l1.037.591c1.215-.392 2.559-.446 3.875-.838Z" fill="#272528"/></g><path d="M20.51 15.406c1.218 0 2.246.84 2.526 1.974a.511.511 0 0 1-.5.636h-4.159a.43.43 0 0 1-.423-.507 2.606 2.606 0 0 1 2.556-2.103Z" fill="#fff"/><path d="M20.124 15.913a1.664 1.664 0 0 1 1.604 2.103h-3.215a1.706 1.706 0 0 1-.06-.439 1.67 1.67 0 0 1 1.671-1.664Z" fill="url(#B)"/><path d="M19.171 17.577c0-.53.424-.953.953-.953.53 0 .953.424.953.953a.94.94 0 0 1-.106.439h-1.686a.862.862 0 0 1-.114-.44Z" fill="#000"/><g filter="url(#C)"><path d="M20.002 16.265c.118.158-.13.352-.411.562-.282.21-.49.36-.61.2-.118-.158.014-.457.296-.668.282-.21.606-.253.725-.094Z" fill="#C7A7A3"/><path d="M20.002 16.265c.118.158-.13.352-.411.562-.282.21-.49.36-.61.2-.118-.158.014-.457.296-.668.282-.21.606-.253.725-.094Z" fill="url(#D)"/></g><g filter="url(#E)"><path d="M21.606 17.358a1.566 1.566 0 0 0-.431-.863l-.485.532.22.425.696-.094Z" fill="url(#F)"/></g><path d="M11.595 15.406c-1.218 0-2.247.84-2.527 1.974a.511.511 0 0 0 .5.636h4.16a.43.43 0 0 0 .423-.507 2.612 2.612 0 0 0-2.556-2.103Z" fill="#fff"/><path d="M11.98 15.913a1.664 1.664 0 0 0-1.603 2.103h3.214c.038-.144.06-.288.06-.44a1.675 1.675 0 0 0-1.67-1.663Z" fill="url(#G)"/><path d="M12.933 17.577a.949.949 0 0 0-.953-.953.949.949 0 0 0-.953.953c0 .159.038.31.106.439h1.687a.946.946 0 0 0 .113-.44Z" fill="#000"/><g filter="url(#H)"><path d="M13.5 17.381c0-.537-.437-.896-.555-1.004l-.538.52.331.674.762-.19Z" fill="url(#I)"/></g><g filter="url(#J)" transform="rotate(-27.914 11.478 16.624)"><ellipse cx="11.478" cy="16.624" rx=".726" ry=".368" fill="#C7A7A3" fill-opacity=".9"/><ellipse cx="11.478" cy="16.624" rx=".726" ry=".368" fill="url(#K)"/></g><g filter="url(#L)"><path d="m17.296 9.271 3.25-3.07c2.938 1.109 3.735 4.062 3.913 5.446l-5.041 1.39a2.227 2.227 0 0 1-2.122-3.766Z" fill="url(#M)"/></g><g filter="url(#N)"><path d="m9.718 14.6-.008.006h-.001a.5.5 0 0 1-.514-.858h.001l.002-.002.006-.003.017-.01.06-.034a6.112 6.112 0 0 1 .98-.411c.635-.202 1.522-.372 2.478-.204a.5.5 0 0 1-.174.985c-.743-.13-1.457-.001-1.998.172a5.1 5.1 0 0 0-.85.36Z" fill="#432A28"/></g><g filter="url(#O)"><path fill-rule="evenodd" clip-rule="evenodd" d="m23.01 13.748-.258.429.257-.43a.5.5 0 0 1-.514.859l-.008-.005a3.747 3.747 0 0 0-.21-.109 5.104 5.104 0 0 0-.64-.251c-.54-.173-1.254-.303-1.998-.172a.5.5 0 0 1-.174-.985c.957-.168 1.843.002 2.477.204a6.108 6.108 0 0 1 .98.411c.026.014.047.025.061.034l.018.01.005.003.002.001h.001Z" fill="#432A28"/></g><g filter="url(#P)"><path d="M19.668 13.492c.602-.146 2.097-.073 3.097.642" stroke="#5B4545" stroke-width=".4" stroke-linecap="round"/></g><g filter="url(#Q)"><path d="M12.6 13.492c-.6-.146-2.096-.073-3.096.642" stroke="#5B4545" stroke-width=".4" stroke-linecap="round"/></g><defs><radialGradient id="d" cx="0" cy="0" r="1" gradientUnits="userSpaceOnUse" gradientTransform="rotate(-24.444 55.036 -45.07) scale(5.09754 6.22385)"><stop offset=".64" stop-color="#B28279"/><stop offset="1" stop-color="#CCA58B"/></radialGradient><radialGradient id="e" cx="0" cy="0" r="1" gradientUnits="userSpaceOnUse" gradientTransform="matrix(2.25 0 0 .96875 25.271 14.734)"><stop stop-color="#906D53"/><stop offset="1" stop-color="#906D53" stop-opacity="0"/></radialGradient><radialGradient id="g" cx="0" cy="0" r="1" gradientUnits="userSpaceOnUse" gradientTransform="matrix(2.81506 -.2094 .1637 2.2006 24.24 18.125)"><stop offset=".719" stop-color="#A26D62" stop-opacity="0"/><stop offset="1" stop-color="#A26D62"/></radialGradient><radialGradient id="i" cx="0" cy="0" r="1" gradientUnits="userSpaceOnUse" gradientTransform="rotate(-180 3.737 8.958) scale(1.96875)"><stop offset=".722" stop-color="#6C4640" stop-opacity="0"/><stop offset="1" stop-color="#6C4640"/></radialGradient><radialGradient id="k" cx="0" cy="0" r="1" gradientUnits="userSpaceOnUse" gradientTransform="matrix(-11.7736 5.48461 -6.56529 -14.09343 21.313 15.919)"><stop offset=".133" stop-color="#C4967B"/><stop offset="1" stop-color="#997165"/></radialGradient><radialGradient id="l" cx="0" cy="0" r="1" gradientUnits="userSpaceOnUse" gradientTransform="matrix(0 -2.375 2.51563 0 12.281 16.013)"><stop offset=".231" stop-color="#8D5C64"/><stop offset="1" stop-color="#8D5C64" stop-opacity="0"/></radialGradient><radialGradient id="m" cx="0" cy="0" r="1" gradientUnits="userSpaceOnUse" gradientTransform="matrix(-.81248 -2 2.66668 -1.08331 20.188 15.919)"><stop stop-color="#AE7A74"/><stop offset="1" stop-color="#AE7A74" stop-opacity="0"/></radialGradient><radialGradient id="n" cx="0" cy="0" r="1" gradientUnits="userSpaceOnUse" gradientTransform="matrix(0 2.03125 -1.93296 0 11.781 17.575)"><stop stop-color="#9E7766"/><stop offset="1" stop-color="#9E7766" stop-opacity="0"/></radialGradient><radialGradient id="o" cx="0" cy="0" r="1" gradientUnits="userSpaceOnUse" gradientTransform="matrix(-4.93756 15.94082 -15.66152 -4.85104 19.188 13.106)"><stop offset=".622" stop-color="#9D5D8E" stop-opacity="0"/><stop offset="1" stop-color="#9D5D8E"/></radialGradient><radialGradient id="p" cx="0" cy="0" r="1" gradientUnits="userSpaceOnUse" gradientTransform="matrix(0 1.9375 -4.04687 0 17.5 4.169)"><stop stop-color="#AC917A"/><stop offset="1" stop-color="#AC917A" stop-opacity="0"/></radialGradient><radialGradient id="q" cx="0" cy="0" r="1" gradientUnits="userSpaceOnUse" gradientTransform="rotate(56.622 -.187 11.366) scale(8.40363 11.4711)"><stop stop-color="#8E725D"/><stop offset="1" stop-color="#8E725D" stop-opacity="0"/></radialGradient><radialGradient id="s" cx="0" cy="0" r="1" gradientUnits="userSpaceOnUse" gradientTransform="matrix(-.84932 -3.81088 1.17448 -.26175 17.515 20.262)"><stop offset=".017" stop-color="#CDA38B"/><stop offset="1" stop-color="#CDA38B" stop-opacity="0"/></radialGradient><radialGradient id="v" cx="0" cy="0" r="1" gradientUnits="userSpaceOnUse" gradientTransform="matrix(-1.45312 0 0 -.40625 17.068 20.656)"><stop stop-color="#CA9F8C"/><stop offset="1" stop-color="#CA9F8C" stop-opacity="0"/></radialGradient><radialGradient id="x" cx="0" cy="0" r="1" gradientUnits="userSpaceOnUse" gradientTransform="matrix(-2.5565 1.75513 -2.1094 -3.07252 16.755 19.547)"><stop offset=".778" stop-color="#815553" stop-opacity="0"/><stop offset="1" stop-color="#693B40"/><stop offset="1" stop-color="#815553"/></radialGradient><radialGradient id="B" cx="0" cy="0" r="1" gradientUnits="userSpaceOnUse" gradientTransform="matrix(0 1.51263 -2.406 0 20.12 16.802)"><stop offset=".802" stop-color="#7D574A"/><stop offset="1" stop-color="#694B43"/><stop offset="1" stop-color="#804D49"/><stop offset="1" stop-color="#664944"/></radialGradient><radialGradient id="D" cx="0" cy="0" r="1" gradientUnits="userSpaceOnUse" gradientTransform="matrix(-.43239 -.5572 .76712 -.5953 19.695 16.96)"><stop offset=".766" stop-color="#FFE6E2" stop-opacity="0"/><stop offset=".966" stop-color="#FFE6E2"/></radialGradient><radialGradient id="G" cx="0" cy="0" r="1" gradientUnits="userSpaceOnUse" gradientTransform="matrix(0 1.51264 -2.40602 0 11.984 16.802)"><stop offset=".802" stop-color="#7D574A"/><stop offset="1" stop-color="#694B43"/><stop offset="1" stop-color="#804D49"/><stop offset="1" stop-color="#664944"/></radialGradient><radialGradient id="K" cx="0" cy="0" r="1" gradientUnits="userSpaceOnUse" gradientTransform="rotate(-90.897 14.197 2.97) scale(.92124 1.10737)"><stop offset=".766" stop-color="#FFE6E2" stop-opacity="0"/><stop offset=".966" stop-color="#FFE6E2"/></radialGradient><filter id="a" x="4.316" y="14.916" width="6.15" height="6" filterUnits="userSpaceOnUse" color-interpolation-filters="sRGB"><feFlood flood-opacity="0" result="BackgroundImageFix"/><feBlend in="SourceGraphic" in2="BackgroundImageFix" result="shape"/><feColorMatrix in="SourceAlpha" values="0 0 0 0 0 0 0 0 0 0 0 0 0 0 0 0 0 0 127 0" result="hardAlpha"/><feOffset dx=".15"/><feGaussianBlur stdDeviation=".25"/><feComposite in2="hardAlpha" operator="arithmetic" k2="-1" k3="1"/><feColorMatrix values="0 0 0 0 0.607843 0 0 0 0 0.458824 0 0 0 0 0.403922 0 0 0 1 0"/><feBlend in2="shape" result="effect1_innerShadow_3987_19251"/></filter><filter id="c" x="22.052" y="14.666" width="6" height="6.25" filterUnits="userSpaceOnUse" color-interpolation-filters="sRGB"><feFlood flood-opacity="0" result="BackgroundImageFix"/><feBlend in="SourceGraphic" in2="BackgroundImageFix" result="shape"/><feColorMatrix in="SourceAlpha" values="0 0 0 0 0 0 0 0 0 0 0 0 0 0 0 0 0 0 127 0" result="hardAlpha"/><feOffset dy="-.25"/><feGaussianBlur stdDeviation=".25"/><feComposite in2="hardAlpha" operator="arithmetic" k2="-1" k3="1"/><feColorMatrix values="0 0 0 0 0.556863 0 0 0 0 0.34902 0 0 0 0 0.384314 0 0 0 1 0"/><feBlend in2="shape" result="effect1_innerShadow_3987_19251"/></filter><filter id="f" x="22.55" y="15.413" width="5.005" height="5.005" filterUnits="userSpaceOnUse" color-interpolation-filters="sRGB"><feFlood flood-opacity="0" result="BackgroundImageFix"/><feBlend in="SourceGraphic" in2="BackgroundImageFix" result="shape"/><feGaussianBlur stdDeviation=".25" result="effect1_foregroundBlur_3987_19251"/></filter><filter id="h" x="5" y="15.563" width="4.705" height="4.705" filterUnits="userSpaceOnUse" color-interpolation-filters="sRGB"><feFlood flood-opacity="0" result="BackgroundImageFix"/><feBlend in="SourceGraphic" in2="BackgroundImageFix" result="shape"/><feGaussianBlur stdDeviation=".175" result="effect1_foregroundBlur_3987_19251"/></filter><filter id="j" x="6.699" y="4.697" width="19.853" height="24.601" filterUnits="userSpaceOnUse" color-interpolation-filters="sRGB"><feFlood flood-opacity="0" result="BackgroundImageFix"/><feBlend in="SourceGraphic" in2="BackgroundImageFix" result="shape"/><feColorMatrix in="SourceAlpha" values="0 0 0 0 0 0 0 0 0 0 0 0 0 0 0 0 0 0 127 0" result="hardAlpha"/><feOffset dx="1.25" dy=".25"/><feGaussianBlur stdDeviation=".875"/><feComposite in2="hardAlpha" operator="arithmetic" k2="-1" k3="1"/><feColorMatrix values="0 0 0 0 0.603922 0 0 0 0 0.447059 0 0 0 0 0.4 0 0 0 1 0"/><feBlend in2="shape" result="effect1_innerShadow_3987_19251"/></filter><filter id="r" x="13.423" y="16.691" width="4.5" height="5.719" filterUnits="userSpaceOnUse" color-interpolation-filters="sRGB"><feFlood flood-opacity="0" result="BackgroundImageFix"/><feBlend in="SourceGraphic" in2="BackgroundImageFix" result="shape"/><feGaussianBlur stdDeviation=".25" result="effect1_foregroundBlur_3987_19251"/></filter><filter id="z" x="17.982" y="15.297" width="5.423" height="2.397" filterUnits="userSpaceOnUse" color-interpolation-filters="sRGB"><feFlood flood-opacity="0" result="BackgroundImageFix"/><feBlend in="SourceGraphic" in2="BackgroundImageFix" result="shape"/><feColorMatrix in="SourceAlpha" values="0 0 0 0 0 0 0 0 0 0 0 0 0 0 0 0 0 0 127 0" result="hardAlpha"/><feOffset dx="-.2"/><feGaussianBlur stdDeviation=".2"/><feComposite in2="hardAlpha" operator="arithmetic" k2="-1" k3="1"/><feColorMatrix values="0 0 0 0 0.0941176 0 0 0 0 0.0666667 0 0 0 0 0.117647 0 0 0 1 0"/><feBlend in2="shape" result="effect1_innerShadow_3987_19251"/></filter><filter id="A" x="8.7" y="15.297" width="5.423" height="2.397" filterUnits="userSpaceOnUse" color-interpolation-filters="sRGB"><feFlood flood-opacity="0" result="BackgroundImageFix"/><feBlend in="SourceGraphic" in2="BackgroundImageFix" result="shape"/><feColorMatrix in="SourceAlpha" values="0 0 0 0 0 0 0 0 0 0 0 0 0 0 0 0 0 0 127 0" result="hardAlpha"/><feOffset dx=".2"/><feGaussianBlur stdDeviation=".125"/><feComposite in2="hardAlpha" operator="arithmetic" k2="-1" k3="1"/><feColorMatrix values="0 0 0 0 0.0862745 0 0 0 0 0.054902 0 0 0 0 0.113725 0 0 0 1 0"/><feBlend in2="shape" result="effect1_innerShadow_3987_19251"/></filter><filter id="C" x="18.838" y="16.069" width="1.294" height="1.125" filterUnits="userSpaceOnUse" color-interpolation-filters="sRGB"><feFlood flood-opacity="0" result="BackgroundImageFix"/><feBlend in="SourceGraphic" in2="BackgroundImageFix" result="shape"/><feGaussianBlur stdDeviation=".05" result="effect1_foregroundBlur_3987_19251"/></filter><filter id="E" x="20.491" y="16.295" width="1.316" height="1.357" filterUnits="userSpaceOnUse" color-interpolation-filters="sRGB"><feFlood flood-opacity="0" result="BackgroundImageFix"/><feBlend in="SourceGraphic" in2="BackgroundImageFix" result="shape"/><feGaussianBlur stdDeviation=".1" result="effect1_foregroundBlur_3987_19251"/></filter><filter id="H" x="12.207" y="16.177" width="1.493" height="1.594" filterUnits="userSpaceOnUse" color-interpolation-filters="sRGB"><feFlood flood-opacity="0" result="BackgroundImageFix"/><feBlend in="SourceGraphic" in2="BackgroundImageFix" result="shape"/><feGaussianBlur stdDeviation=".1" result="effect1_foregroundBlur_3987_19251"/></filter><filter id="J" x="10.713" y="16.054" width="1.529" height="1.141" filterUnits="userSpaceOnUse" color-interpolation-filters="sRGB"><feFlood flood-opacity="0" result="BackgroundImageFix"/><feBlend in="SourceGraphic" in2="BackgroundImageFix" result="shape"/><feGaussianBlur stdDeviation=".05" result="effect1_foregroundBlur_3987_19251"/></filter><filter id="L" x="14.098" y="3.7" width="12.86" height="11.918" filterUnits="userSpaceOnUse" color-interpolation-filters="sRGB"><feFlood flood-opacity="0" result="BackgroundImageFix"/><feBlend in="SourceGraphic" in2="BackgroundImageFix" result="shape"/><feGaussianBlur stdDeviation="1.25" result="effect1_foregroundBlur_3987_19251"/></filter><filter id="N" x="8.952" y="12.816" width="4.4" height="1.861" filterUnits="userSpaceOnUse" color-interpolation-filters="sRGB"><feFlood flood-opacity="0" result="BackgroundImageFix"/><feBlend in="SourceGraphic" in2="BackgroundImageFix" result="shape"/><feColorMatrix in="SourceAlpha" values="0 0 0 0 0 0 0 0 0 0 0 0 0 0 0 0 0 0 127 0" result="hardAlpha"/><feOffset dx=".2" dy="-.2"/><feGaussianBlur stdDeviation=".15"/><feComposite in2="hardAlpha" operator="arithmetic" k2="-1" k3="1"/><feColorMatrix values="0 0 0 0 0.211765 0 0 0 0 0.121569 0 0 0 0 0.12549 0 0 0 1 0"/><feBlend in2="shape" result="effect1_innerShadow_3987_19251"/></filter><filter id="O" x="19.052" y="12.816" width="4.4" height="1.861" filterUnits="userSpaceOnUse" color-interpolation-filters="sRGB"><feFlood flood-opacity="0" result="BackgroundImageFix"/><feBlend in="SourceGraphic" in2="BackgroundImageFix" result="shape"/><feColorMatrix in="SourceAlpha" values="0 0 0 0 0 0 0 0 0 0 0 0 0 0 0 0 0 0 127 0" result="hardAlpha"/><feOffset dx=".2" dy="-.2"/><feGaussianBlur stdDeviation=".15"/><feComposite in2="hardAlpha" operator="arithmetic" k2="-1" k3="1"/><feColorMatrix values="0 0 0 0 0.211765 0 0 0 0 0.121569 0 0 0 0 0.12549 0 0 0 1 0"/><feBlend in2="shape" result="effect1_innerShadow_3987_19251"/></filter><filter id="P" x="19.068" y="12.83" width="4.296" height="1.904" filterUnits="userSpaceOnUse" color-interpolation-filters="sRGB"><feFlood flood-opacity="0" result="BackgroundImageFix"/><feBlend in="SourceGraphic" in2="BackgroundImageFix" result="shape"/><feGaussianBlur stdDeviation=".2" result="effect1_foregroundBlur_3987_19251"/></filter><filter id="Q" x="8.904" y="12.83" width="4.296" height="1.904" filterUnits="userSpaceOnUse" color-interpolation-filters="sRGB"><feFlood flood-opacity="0" result="BackgroundImageFix"/><feBlend in="SourceGraphic" in2="BackgroundImageFix" result="shape"/><feGaussianBlur stdDeviation=".2" result="effect1_foregroundBlur_3987_19251"/></filter><linearGradient id="b" x1="4.316" y1="18.078" x2="7.779" y2="18.078" gradientUnits="userSpaceOnUse"><stop stop-color="#8D645F"/><stop offset="1" stop-color="#604138"/></linearGradient><linearGradient id="t" x1="14.302" y1="20.398" x2="16.052" y2="20.398" gradientUnits="userSpaceOnUse"><stop stop-color="#875F54"/><stop offset="1" stop-color="#875F54" stop-opacity="0"/></linearGradient><linearGradient id="u" x1="16.052" y1="21.716" x2="16.052" y2="20.547" gradientUnits="userSpaceOnUse"><stop stop-color="#995C76"/><stop offset="1" stop-color="#995C76" stop-opacity="0"/></linearGradient><linearGradient id="w" x1="16.198" y1="21.838" x2="16.198" y2="21.578" gradientUnits="userSpaceOnUse"><stop stop-color="#8F5269"/><stop offset="1" stop-color="#8F5269" stop-opacity="0"/></linearGradient><linearGradient id="y" x1="14.068" y1="24.516" x2="14.927" y2="23.188" gradientUnits="userSpaceOnUse"><stop stop-color="#A87D7B"/><stop offset=".663" stop-color="#A87D7B" stop-opacity="0"/></linearGradient><linearGradient id="F" x1="21.571" y1="16.903" x2="20.986" y2="17.263" gradientUnits="userSpaceOnUse"><stop stop-color="#B4948D"/><stop offset="1" stop-color="#B4948D" stop-opacity="0"/></linearGradient><linearGradient id="I" x1="13.371" y1="16.903" x2="12.786" y2="17.263" gradientUnits="userSpaceOnUse"><stop stop-color="#B4948D"/><stop offset="1" stop-color="#B4948D" stop-opacity="0"/></linearGradient><linearGradient id="M" x1="19.591" y1="12.367" x2="25.45" y2="5.054" gradientUnits="userSpaceOnUse"><stop stop-color="#CBA28D"/><stop offset="1" stop-color="#CBA28D" stop-opacity="0"/></linearGradient></defs></svg>