<svg width="32" height="32" fill="none" xmlns="http://www.w3.org/2000/svg"><g filter="url(#a)"><path d="M3.922 13.136c-.975 0-1.656.49-1.875.735v9.027h27.906v-8.871l-.003-.003c-.623-.545-1.015-.888-2.2-.888-.906 0-1.67.67-2.05 1.004-.261.224-.94.637-1.864.637-.925 0-1.469-.406-2.07-.906-.27-.224-.952-.735-1.914-.735-.963 0-1.857.667-2.165 1-.244.224-.718.641-1.87.641-.794 0-1.396-.35-1.614-.563-.37-.359-1.133-1.078-2.312-1.078-.975 0-1.54.47-1.907.782-.367.312-1.006.89-2.093.89-.985 0-1.585-.5-1.915-.775l-.007-.006c-.276-.297-1.072-.89-2.047-.89Z" fill="url(#b)"/></g><g filter="url(#c)"><path d="M17.427 10.457a1.45 1.45 0 0 1-.656-.344l-2.188 1.547c1.308 1.828 3.936 5.482 3.993 5.476.077-.008 2.399-.266 2.851-.883.453-.617.54-1.593.328-2.32-.21-.726-.656-.976-1.226-1.133a1.335 1.335 0 0 1-.867-.695c-.07-.14-.188-.438-.68-.914-.492-.477-1.156-.649-1.555-.734Z" fill="url(#d)"/></g><path d="M9.654 18.16c-.133-.403-.31-.636-.406-.735l1.093-1.133 4.883 3.727-1.39 1.742c-.157-.242-.68-.515-2.336-1.21-1.657-.696-1.702-1.961-1.844-2.391Z" fill="url(#e)"/><path d="M9.654 18.16c-.133-.403-.31-.636-.406-.735l1.093-1.133 4.883 3.727-1.39 1.742c-.157-.242-.68-.515-2.336-1.21-1.657-.696-1.702-1.961-1.844-2.391Z" fill="url(#f)"/><g filter="url(#g)"><path d="M10.61 8.058h4.828a4 4 0 0 1 3.602 2.26l4.385 9.607 5.063.688-5.846-12.034a8 8 0 0 0-7.204-4.52h-4.829v4Z" fill="#F7C5AA"/></g><path d="M17.313 17.558c-1.688 1.15-3.224 3.25-3.782 4.157 3.25 2.162 7.927 2.171 9.86 1.906l6.53-2.266c-.765-1.305-2.036-2.52-2.53-3l-5.638-2.367c-1.468-.063-2.331.133-4.44 1.57Z" fill="url(#h)"/><path d="M17.313 17.558c-1.688 1.15-3.224 3.25-3.782 4.157 3.25 2.162 7.927 2.171 9.86 1.906l6.53-2.266c-.765-1.305-2.036-2.52-2.53-3l-5.638-2.367c-1.468-.063-2.331.133-4.44 1.57Z" fill="url(#i)"/><path d="M17.313 17.558c-1.688 1.15-3.224 3.25-3.782 4.157 3.25 2.162 7.927 2.171 9.86 1.906l6.53-2.266c-.765-1.305-2.036-2.52-2.53-3l-5.638-2.367c-1.468-.063-2.331.133-4.44 1.57Z" fill="url(#j)"/><path d="M15.164 19.953c.36.594 1.149 1.82 2.274 1.996 1.406.219 3.742-.79 3.789-2.531.078-1.557-.845-2.406-1.794-3.086.817-.36 1.574-.376 2.326-.36.899.802 2.705 2.341 3.858 3.07.85.538 1.741.287 2.375-.093.594.605 1.388 1.483 1.93 2.406l-6.531 2.266c-1.933.265-6.61.256-9.86-1.906a17.12 17.12 0 0 1 1.384-1.89c.083.039.166.081.25.128Z" fill="url(#k)"/><path d="M15.164 19.953c.36.594 1.149 1.82 2.274 1.996 1.406.219 3.742-.79 3.789-2.531.078-1.557-.845-2.406-1.794-3.086.817-.36 1.574-.376 2.326-.36.899.802 2.705 2.341 3.858 3.07.85.538 1.741.287 2.375-.093.594.605 1.388 1.483 1.93 2.406l-6.531 2.266c-1.933.265-6.61.256-9.86-1.906a17.12 17.12 0 0 1 1.384-1.89c.083.039.166.081.25.128Z" fill="url(#l)"/><circle cx="17.785" cy="12.923" r="1.296" fill="url(#m)"/><g filter="url(#n)"><circle cx="17.785" cy="12.923" r=".877" fill="url(#o)"/></g><circle cx="12.201" cy="18.511" r="1.296" fill="#B8808D"/><g filter="url(#p)"><circle cx="12.201" cy="18.512" r=".822" fill="#B2757C"/></g><g filter="url(#q)"><path d="M10.575 17.253c-.312-.325-.224-.75-.14-.921l5.281-5.172c.438-.113.66.125.79.265l1.815 1.854a4.118 4.118 0 0 1 .157 5.594c-1.49 1.703-4.067 1.876-5.747.36-1.072-.967-2-1.819-2.156-1.98Z" fill="url(#r)"/><path d="M10.575 17.253c-.312-.325-.224-.75-.14-.921l5.281-5.172c.438-.113.66.125.79.265l1.815 1.854a4.118 4.118 0 0 1 .157 5.594c-1.49 1.703-4.067 1.876-5.747.36-1.072-.967-2-1.819-2.156-1.98Z" fill="url(#s)"/><path d="M10.575 17.253c-.312-.325-.224-.75-.14-.921l5.281-5.172c.438-.113.66.125.79.265l1.815 1.854a4.118 4.118 0 0 1 .157 5.594c-1.49 1.703-4.067 1.876-5.747.36-1.072-.967-2-1.819-2.156-1.98Z" fill="url(#t)"/><path d="M10.575 17.253c-.312-.325-.224-.75-.14-.921l5.281-5.172c.438-.113.66.125.79.265l1.815 1.854a4.118 4.118 0 0 1 .157 5.594c-1.49 1.703-4.067 1.876-5.747.36-1.072-.967-2-1.819-2.156-1.98Z" fill="url(#u)"/></g><g filter="url(#v)"><path d="M16.827 10.167 9.45 17.573a.096.096 0 0 1-.121.014c-.578-.38-1.499-1.374-1.583-2.662-.11-1.671.368-2.712 2.078-4.515 1.868-1.969 3.516-2.094 4.97-1.828 1.05.192 1.78 1.038 2.046 1.466a.096.096 0 0 1-.014.119Z" fill="url(#w)"/><path d="M16.827 10.167 9.45 17.573a.096.096 0 0 1-.121.014c-.578-.38-1.499-1.374-1.583-2.662-.11-1.671.368-2.712 2.078-4.515 1.868-1.969 3.516-2.094 4.97-1.828 1.05.192 1.78 1.038 2.046 1.466a.096.096 0 0 1-.014.119Z" fill="url(#x)"/></g><g filter="url(#y)"><path d="M3.922 20.199c-.975 0-1.656.49-1.875.734v9.028h27.906V21.09l-.003-.003c-.623-.546-1.015-.888-2.2-.888-.906 0-1.67.67-2.05 1.003-.261.225-.94.637-1.864.637-.925 0-1.469-.406-2.07-.906-.27-.223-.952-.734-1.914-.734-.963 0-1.857.667-2.165 1-.244.224-.718.64-1.87.64-.794 0-1.396-.35-1.614-.562-.37-.36-1.133-1.078-2.312-1.078-.975 0-1.54.469-1.907.781-.367.313-1.006.89-2.093.89-.985 0-1.585-.5-1.915-.774l-.007-.006c-.276-.297-1.072-.891-2.047-.891Z" fill="url(#z)"/></g><g filter="url(#A)"><circle cx="16.996" cy="17.691" r=".809" stroke="url(#B)" stroke-width=".2"/></g><circle cx="16.996" cy="17.691" r=".809" fill="#87014E"/><g filter="url(#C)"><path d="m15.127 17.262-.781-1.555.289-.282 1.51.853a.4.4 0 0 1 .084.633l-.464.457a.4.4 0 0 1-.638-.105Z" fill="#CA9297"/></g><g filter="url(#D)"><path d="m15.22 17.012-.782-1.555.29-.282 1.51.853a.4.4 0 0 1 .084.633l-.465.457a.4.4 0 0 1-.638-.105Z" fill="#EEBFAB"/><path d="m15.22 17.012-.782-1.555.29-.282 1.51.853a.4.4 0 0 1 .084.633l-.465.457a.4.4 0 0 1-.638-.105Z" fill="url(#E)"/></g><path transform="rotate(45.489 14.576 14.486)" fill="url(#F)" d="M14.576 14.486h.758v1.123h-.758z"/><path transform="rotate(45.489 14.576 14.486)" fill="url(#G)" d="M14.576 14.486h.758v1.123h-.758z"/><path d="M17.064 11.243a.1.1 0 0 1 .14-.026l.439.298a.1.1 0 0 1 .026.138l-.84 1.24-.604-.41.84-1.24Z" fill="url(#H)"/><path d="M17.064 11.243a.1.1 0 0 1 .14-.026l.439.298a.1.1 0 0 1 .026.138l-.84 1.24-.604-.41.84-1.24Z" fill="url(#I)"/><path d="M17.064 11.243a.1.1 0 0 1 .14-.026l.439.298a.1.1 0 0 1 .026.138l-.84 1.24-.604-.41.84-1.24Z" fill="url(#J)"/><path d="M10.925 18.316a.1.1 0 0 1-.138-.029l-.29-.444a.1.1 0 0 1 .029-.139l1.254-.817.399.612-1.254.817Z" fill="#4E496A"/><path d="M10.925 18.316a.1.1 0 0 1-.138-.029l-.29-.444a.1.1 0 0 1 .029-.139l1.254-.817.399.612-1.254.817Z" fill="url(#K)"/><path d="M10.925 18.316a.1.1 0 0 1-.138-.029l-.29-.444a.1.1 0 0 1 .029-.139l1.254-.817.399.612-1.254.817Z" fill="url(#L)"/><path d="M10.925 18.316a.1.1 0 0 1-.138-.029l-.29-.444a.1.1 0 0 1 .029-.139l1.254-.817.399.612-1.254.817Z" fill="url(#M)"/><g filter="url(#N)"><path d="M15.533 12.956a.821.821 0 1 1 1.148 1.175l-.487.476a.821.821 0 0 1-1.148-1.175l.487-.476Z" fill="url(#O)"/></g><path fill-rule="evenodd" clip-rule="evenodd" d="m16.933 14.389-.488.476a1.181 1.181 0 1 1-1.65-1.691l.487-.476a1.182 1.182 0 0 1 1.65 1.69Zm-.238-1.42a.821.821 0 0 0-1.162-.013l-.487.476a.821.821 0 0 0 1.148 1.175l.487-.476a.821.821 0 0 0 .014-1.162Z" fill="#412E4C"/><g filter="url(#P)"><path d="M12.744 15.713a.821.821 0 1 1 1.148 1.176l-.487.476a.821.821 0 0 1-1.148-1.176l.487-.476Z" fill="url(#Q)"/></g><path fill-rule="evenodd" clip-rule="evenodd" d="m14.144 17.146-.488.476a1.181 1.181 0 0 1-1.65-1.69l.487-.476a1.181 1.181 0 0 1 1.65 1.69Zm-.238-1.419a.821.821 0 0 0-1.162-.014l-.487.476a.821.821 0 1 0 1.148 1.176l.487-.476a.822.822 0 0 0 .014-1.162Z" fill="#412E4C"/><path fill-rule="evenodd" clip-rule="evenodd" d="M9.936 5.448c-.558.043-1.037.1-1.263.157a.662.662 0 1 1-.323-1.284c.964-.243 2.04-.263 3.029-.263a.662.662 0 1 1 0 1.325c-.345 0-.901.024-1.443.065Z" fill="url(#R)"/><path fill-rule="evenodd" clip-rule="evenodd" d="M11.266 4.943a.662.662 0 0 1-.608.713C9.263 5.767 8.17 6.733 7.621 7.52a.662.662 0 1 1-1.086-.758c.677-.971 2.085-2.271 4.018-2.426a.663.663 0 0 1 .713.608Z" fill="#D5A28E"/><path fill-rule="evenodd" clip-rule="evenodd" d="M11.266 4.943a.662.662 0 0 1-.608.713C9.263 5.767 8.17 6.733 7.621 7.52a.662.662 0 1 1-1.086-.758c.677-.971 2.085-2.271 4.018-2.426a.663.663 0 0 1 .713.608Z" fill="url(#S)"/><path fill-rule="evenodd" clip-rule="evenodd" d="M10.906 5.724a.663.663 0 0 1-.607.713c-.639.051-1.186.36-1.663.804-.482.447-.862 1.004-1.157 1.487a.662.662 0 1 1-1.13-.69c.314-.516.769-1.196 1.385-1.768.62-.576 1.434-1.072 2.46-1.153a.663.663 0 0 1 .712.607Z" fill="#D5A28E"/><path fill-rule="evenodd" clip-rule="evenodd" d="M10.906 5.724a.663.663 0 0 1-.607.713c-.639.051-1.186.36-1.663.804-.482.447-.862 1.004-1.157 1.487a.662.662 0 1 1-1.13-.69c.314-.516.769-1.196 1.385-1.768.62-.576 1.434-1.072 2.46-1.153a.663.663 0 0 1 .712.607Z" fill="url(#T)"/><path fill-rule="evenodd" clip-rule="evenodd" d="M11.369 6.5a.662.662 0 0 1-.634.689c-1.184.05-2.098.941-2.666 1.87a.662.662 0 1 1-1.13-.69c.65-1.066 1.893-2.426 3.74-2.504a.662.662 0 0 1 .69.634Z" fill="#D5A28E"/><path fill-rule="evenodd" clip-rule="evenodd" d="M11.369 6.5a.662.662 0 0 1-.634.689c-1.184.05-2.098.941-2.666 1.87a.662.662 0 1 1-1.13-.69c.65-1.066 1.893-2.426 3.74-2.504a.662.662 0 0 1 .69.634Z" fill="url(#U)"/><g filter="url(#V)"><path fill-rule="evenodd" clip-rule="evenodd" d="M11.348 8.01c-.585 0-1.22.227-1.66.526-.308.21-.667.602-.82.805a.662.662 0 1 1-1.057-.8c.202-.266.66-.78 1.133-1.1.629-.429 1.52-.756 2.404-.756a.662.662 0 1 1 0 1.325Z" fill="#DFAC99"/></g><g filter="url(#W)"><path clip-rule="evenodd" d="M16.85 12.807c-.363-.373-1-.41-1.372-.046l-.56.547c-.372.363-.34.99.024 1.362.364.372.976.43 1.349.067l.56-.546c.372-.364.363-1.012 0-1.384Z" stroke="#5C4C6D" stroke-width=".1"/></g><g filter="url(#X)"><path clip-rule="evenodd" d="M14.07 15.601c-.364-.372-1-.409-1.373-.045l-.559.546c-.372.364-.34.99.024 1.362.363.373.976.432 1.349.068l.559-.546c.372-.364.364-1.012 0-1.385Z" stroke="url(#Y)" stroke-width=".1"/></g><path d="M10.61 8.058h4.828a4 4 0 0 1 3.602 2.26l2.734 5.664 5.601 2.389-4.733-9.792a8 8 0 0 0-7.204-4.52h-4.829v4Z" fill="url(#Z)"/><g filter="url(#aa)"><path d="M20.223 8.467c-.675-1.475-1.907-1.969-2.438-2.031 1.469-.157 2.672.789 3.156 1.656l5.815 10.25-2.533-1.281c-1.052-2.25-3.325-7.119-4-8.594Z" fill="#FAD1B0"/></g><defs><radialGradient id="d" cx="0" cy="0" r="1" gradientUnits="userSpaceOnUse" gradientTransform="matrix(2.09229 4.61475 -4.78418 2.1691 17.27 11.998)"><stop offset=".255" stop-color="#3E393B"/><stop offset=".769" stop-color="#100B13"/><stop offset="1" stop-color="#010000"/></radialGradient><radialGradient id="e" cx="0" cy="0" r="1" gradientUnits="userSpaceOnUse" gradientTransform="matrix(4.25 -.4375 .72193 7.01299 9.738 18.707)"><stop stop-color="#313A5A"/><stop offset="1" stop-color="#060311"/></radialGradient><radialGradient id="f" cx="0" cy="0" r="1" gradientUnits="userSpaceOnUse" gradientTransform="rotate(120.141 .519 11.733) scale(1.12022 1.22424)"><stop stop-color="#020102"/><stop offset="1" stop-color="#020102" stop-opacity="0"/></radialGradient><radialGradient id="h" cx="0" cy="0" r="1" gradientUnits="userSpaceOnUse" gradientTransform="rotate(-127.867 18.828 4.88) scale(6.23941 9.66032)"><stop stop-color="#FFDCC2"/><stop offset="1" stop-color="#F2BCAC"/></radialGradient><radialGradient id="i" cx="0" cy="0" r="1" gradientUnits="userSpaceOnUse" gradientTransform="matrix(5.40624 1.93806 -3.92034 10.93584 16.64 18.682)"><stop stop-color="#BB7C7D"/><stop offset="1" stop-color="#F1AE9A" stop-opacity="0"/></radialGradient><radialGradient id="j" cx="0" cy="0" r="1" gradientUnits="userSpaceOnUse" gradientTransform="rotate(108.881 5.333 15.825) scale(.62769 5.10178)"><stop offset=".186" stop-color="#CB8D71"/><stop offset="1" stop-color="#CB8D71" stop-opacity="0"/></radialGradient><radialGradient id="k" cx="0" cy="0" r="1" gradientUnits="userSpaceOnUse" gradientTransform="rotate(-177.859 13.426 10.356) scale(6.69217 10.4863)"><stop offset=".359" stop-color="#A882F8"/><stop offset="1" stop-color="#8F69D4"/></radialGradient><radialGradient id="l" cx="0" cy="0" r="1" gradientUnits="userSpaceOnUse" gradientTransform="rotate(-163.471 15.406 9.664) scale(13.9857 10.6342)"><stop offset=".636" stop-color="#553C7C" stop-opacity="0"/><stop offset="1" stop-color="#3C2369"/></radialGradient><radialGradient id="m" cx="0" cy="0" r="1" gradientUnits="userSpaceOnUse" gradientTransform="rotate(137.77 6.96 9.734) scale(1.37162 .75986)"><stop offset=".011" stop-color="#FFD3BB"/><stop offset="1" stop-color="#FBC2A4"/></radialGradient><radialGradient id="o" cx="0" cy="0" r="1" gradientUnits="userSpaceOnUse" gradientTransform="matrix(.32031 -.30469 .39566 .41595 17.912 12.852)"><stop stop-color="#FCC5A9"/><stop offset="1" stop-color="#F4B798"/></radialGradient><radialGradient id="s" cx="0" cy="0" r="1" gradientUnits="userSpaceOnUse" gradientTransform="rotate(72.52 -2.767 18.353) scale(5.02015 5.81107)"><stop offset=".545" stop-color="#DEAAA8" stop-opacity="0"/><stop offset="1" stop-color="#AB7188"/></radialGradient><radialGradient id="t" cx="0" cy="0" r="1" gradientUnits="userSpaceOnUse" gradientTransform="matrix(1.75 1.50397 -1.54062 1.79264 15.677 14.195)"><stop offset=".228" stop-color="#DEAA9F"/><stop offset="1" stop-color="#DEAA9F" stop-opacity="0"/></radialGradient><radialGradient id="u" cx="0" cy="0" r="1" gradientUnits="userSpaceOnUse" gradientTransform="matrix(1.5 1.59375 -1.31546 1.23808 13.114 16.445)"><stop offset=".422" stop-color="#BE8888"/><stop offset="1" stop-color="#BE8888" stop-opacity="0"/></radialGradient><radialGradient id="w" cx="0" cy="0" r="1" gradientUnits="userSpaceOnUse" gradientTransform="matrix(-4.31254 4.18747 -3.07382 -3.16563 15.082 12.144)"><stop stop-color="#A783E1"/><stop offset="1" stop-color="#8258C3"/></radialGradient><radialGradient id="x" cx="0" cy="0" r="1" gradientUnits="userSpaceOnUse" gradientTransform="rotate(136.15 5.33 8.62) scale(9.35994 5.84176)"><stop offset=".489" stop-color="#7047B3" stop-opacity="0"/><stop offset="1" stop-color="#7047B3"/></radialGradient><radialGradient id="E" cx="0" cy="0" r="1" gradientUnits="userSpaceOnUse" gradientTransform="rotate(135.14 4.826 11.475) scale(.85969 .22297)"><stop offset=".254" stop-color="#FFD6C2"/><stop offset="1" stop-color="#F3C4A7" stop-opacity="0"/><stop offset="1" stop-color="#FFD6C2" stop-opacity="0"/></radialGradient><radialGradient id="G" cx="0" cy="0" r="1" gradientUnits="userSpaceOnUse" gradientTransform="rotate(90.613 .324 14.606) scale(.28731 .60404)"><stop offset=".649" stop-color="#453B50"/><stop offset="1" stop-color="#453B50" stop-opacity="0"/></radialGradient><radialGradient id="K" cx="0" cy="0" r="1" gradientUnits="userSpaceOnUse" gradientTransform="matrix(-.46094 .29687 -.34413 -.53431 11.95 17.24)"><stop offset=".214" stop-color="#483E5B"/><stop offset="1" stop-color="#483E5B" stop-opacity="0"/></radialGradient><radialGradient id="S" cx="0" cy="0" r="1" gradientUnits="userSpaceOnUse" gradientTransform="rotate(146.787 3.392 4.77) scale(3.43755 1.60167)"><stop offset=".402" stop-color="#CF997E"/><stop offset="1" stop-color="#CF997E" stop-opacity="0"/></radialGradient><radialGradient id="T" cx="0" cy="0" r="1" gradientUnits="userSpaceOnUse" gradientTransform="matrix(-2.76027 2.13307 -1.04932 -1.35786 8.58 8.024)"><stop offset=".402" stop-color="#CF997E"/><stop offset="1" stop-color="#CF997E" stop-opacity="0"/></radialGradient><radialGradient id="U" cx="0" cy="0" r="1" gradientUnits="userSpaceOnUse" gradientTransform="rotate(144.615 3.203 5.685) scale(3.29193 1.58011)"><stop offset=".402" stop-color="#CF997E"/><stop offset="1" stop-color="#CF997E" stop-opacity="0"/></radialGradient><radialGradient id="Z" cx="0" cy="0" r="1" gradientUnits="userSpaceOnUse" gradientTransform="matrix(5.70676 .41357 -.20538 2.834 10.61 4.87)"><stop offset=".344" stop-color="#D4A18C"/><stop offset="1" stop-color="#E1AC8C" stop-opacity="0"/></radialGradient><filter id="a" x="1.847" y="13.136" width="28.306" height="9.762" filterUnits="userSpaceOnUse" color-interpolation-filters="sRGB"><feFlood flood-opacity="0" result="BackgroundImageFix"/><feBlend in="SourceGraphic" in2="BackgroundImageFix" result="shape"/><feColorMatrix in="SourceAlpha" values="0 0 0 0 0 0 0 0 0 0 0 0 0 0 0 0 0 0 127 0" result="hardAlpha"/><feOffset dx="-.2"/><feGaussianBlur stdDeviation=".5"/><feComposite in2="hardAlpha" operator="arithmetic" k2="-1" k3="1"/><feColorMatrix values="0 0 0 0 0.32549 0 0 0 0 0.729412 0 0 0 0 1 0 0 0 1 0"/><feBlend in2="shape" result="effect1_innerShadow_3987_23163"/><feColorMatrix in="SourceAlpha" values="0 0 0 0 0 0 0 0 0 0 0 0 0 0 0 0 0 0 127 0" result="hardAlpha"/><feOffset dx=".2"/><feGaussianBlur stdDeviation=".5"/><feComposite in2="hardAlpha" operator="arithmetic" k2="-1" k3="1"/><feColorMatrix values="0 0 0 0 0.247059 0 0 0 0 0.584314 0 0 0 0 0.854902 0 0 0 1 0"/><feBlend in2="effect1_innerShadow_3987_23163" result="effect2_innerShadow_3987_23163"/></filter><filter id="c" x="14.483" y="10.113" width="7.381" height="7.123" filterUnits="userSpaceOnUse" color-interpolation-filters="sRGB"><feFlood flood-opacity="0" result="BackgroundImageFix"/><feBlend in="SourceGraphic" in2="BackgroundImageFix" result="shape"/><feColorMatrix in="SourceAlpha" values="0 0 0 0 0 0 0 0 0 0 0 0 0 0 0 0 0 0 127 0" result="hardAlpha"/><feOffset dx="-.1" dy=".1"/><feGaussianBlur stdDeviation=".25"/><feComposite in2="hardAlpha" operator="arithmetic" k2="-1" k3="1"/><feColorMatrix values="0 0 0 0 0.105882 0 0 0 0 0.0666667 0 0 0 0 0.0823529 0 0 0 1 0"/><feBlend in2="shape" result="effect1_innerShadow_3987_23163"/></filter><filter id="g" x="10.609" y="2.808" width="19.128" height="17.805" filterUnits="userSpaceOnUse" color-interpolation-filters="sRGB"><feFlood flood-opacity="0" result="BackgroundImageFix"/><feBlend in="SourceGraphic" in2="BackgroundImageFix" result="shape"/><feColorMatrix in="SourceAlpha" values="0 0 0 0 0 0 0 0 0 0 0 0 0 0 0 0 0 0 127 0" result="hardAlpha"/><feOffset dx="1.25" dy="-1.25"/><feGaussianBlur stdDeviation="1"/><feComposite in2="hardAlpha" operator="arithmetic" k2="-1" k3="1"/><feColorMatrix values="0 0 0 0 0.858824 0 0 0 0 0.607843 0 0 0 0 0.552941 0 0 0 1 0"/><feBlend in2="shape" result="effect1_innerShadow_3987_23163"/><feColorMatrix in="SourceAlpha" values="0 0 0 0 0 0 0 0 0 0 0 0 0 0 0 0 0 0 127 0" result="hardAlpha"/><feOffset dx=".25" dy="-.5"/><feGaussianBlur stdDeviation=".5"/><feComposite in2="hardAlpha" operator="arithmetic" k2="-1" k3="1"/><feColorMatrix values="0 0 0 0 0.792157 0 0 0 0 0.509804 0 0 0 0 0.509804 0 0 0 1 0"/><feBlend in2="effect1_innerShadow_3987_23163" result="effect2_innerShadow_3987_23163"/></filter><filter id="n" x="16.759" y="11.896" width="2.053" height="2.053" filterUnits="userSpaceOnUse" color-interpolation-filters="sRGB"><feFlood flood-opacity="0" result="BackgroundImageFix"/><feBlend in="SourceGraphic" in2="BackgroundImageFix" result="shape"/><feGaussianBlur stdDeviation=".075" result="effect1_foregroundBlur_3987_23163"/></filter><filter id="p" x="11.179" y="17.489" width="2.044" height="2.044" filterUnits="userSpaceOnUse" color-interpolation-filters="sRGB"><feFlood flood-opacity="0" result="BackgroundImageFix"/><feBlend in="SourceGraphic" in2="BackgroundImageFix" result="shape"/><feGaussianBlur stdDeviation=".1" result="effect1_foregroundBlur_3987_23163"/></filter><filter id="q" x="10.356" y="10.98" width="9.291" height="9.288" filterUnits="userSpaceOnUse" color-interpolation-filters="sRGB"><feFlood flood-opacity="0" result="BackgroundImageFix"/><feBlend in="SourceGraphic" in2="BackgroundImageFix" result="shape"/><feColorMatrix in="SourceAlpha" values="0 0 0 0 0 0 0 0 0 0 0 0 0 0 0 0 0 0 127 0" result="hardAlpha"/><feOffset dx=".15" dy="-.15"/><feGaussianBlur stdDeviation=".3"/><feComposite in2="hardAlpha" operator="arithmetic" k2="-1" k3="1"/><feColorMatrix values="0 0 0 0 0.694118 0 0 0 0 0.505882 0 0 0 0 0.639216 0 0 0 1 0"/><feBlend in2="shape" result="effect1_innerShadow_3987_23163"/></filter><filter id="v" x="7.632" y="8.478" width="9.223" height="9.224" filterUnits="userSpaceOnUse" color-interpolation-filters="sRGB"><feFlood flood-opacity="0" result="BackgroundImageFix"/><feBlend in="SourceGraphic" in2="BackgroundImageFix" result="shape"/><feColorMatrix in="SourceAlpha" values="0 0 0 0 0 0 0 0 0 0 0 0 0 0 0 0 0 0 127 0" result="hardAlpha"/><feOffset dx="-.1" dy=".1"/><feGaussianBlur stdDeviation=".25"/><feComposite in2="hardAlpha" operator="arithmetic" k2="-1" k3="1"/><feColorMatrix values="0 0 0 0 0.662745 0 0 0 0 0.466667 0 0 0 0 0.666667 0 0 0 1 0"/><feBlend in2="shape" result="effect1_innerShadow_3987_23163"/></filter><filter id="y" x="1.847" y="20.199" width="28.306" height="9.762" filterUnits="userSpaceOnUse" color-interpolation-filters="sRGB"><feFlood flood-opacity="0" result="BackgroundImageFix"/><feBlend in="SourceGraphic" in2="BackgroundImageFix" result="shape"/><feColorMatrix in="SourceAlpha" values="0 0 0 0 0 0 0 0 0 0 0 0 0 0 0 0 0 0 127 0" result="hardAlpha"/><feOffset dx="-.2"/><feGaussianBlur stdDeviation=".15"/><feComposite in2="hardAlpha" operator="arithmetic" k2="-1" k3="1"/><feColorMatrix values="0 0 0 0 0.301961 0 0 0 0 0.580392 0 0 0 0 0.87451 0 0 0 1 0"/><feBlend in2="shape" result="effect1_innerShadow_3987_23163"/><feColorMatrix in="SourceAlpha" values="0 0 0 0 0 0 0 0 0 0 0 0 0 0 0 0 0 0 127 0" result="hardAlpha"/><feOffset dx=".2"/><feGaussianBlur stdDeviation=".15"/><feComposite in2="hardAlpha" operator="arithmetic" k2="-1" k3="1"/><feColorMatrix values="0 0 0 0 0.207843 0 0 0 0 0.482353 0 0 0 0 0.772549 0 0 0 1 0"/><feBlend in2="effect1_innerShadow_3987_23163" result="effect2_innerShadow_3987_23163"/></filter><filter id="A" x="15.887" y="16.582" width="2.217" height="2.217" filterUnits="userSpaceOnUse" color-interpolation-filters="sRGB"><feFlood flood-opacity="0" result="BackgroundImageFix"/><feBlend in="SourceGraphic" in2="BackgroundImageFix" result="shape"/><feGaussianBlur stdDeviation=".1" result="effect1_foregroundBlur_3987_23163"/></filter><filter id="C" x="13.846" y="14.925" width="3.003" height="3.058" filterUnits="userSpaceOnUse" color-interpolation-filters="sRGB"><feFlood flood-opacity="0" result="BackgroundImageFix"/><feBlend in="SourceGraphic" in2="BackgroundImageFix" result="shape"/><feGaussianBlur stdDeviation=".25" result="effect1_foregroundBlur_3987_23163"/></filter><filter id="D" x="14.338" y="14.876" width="2.203" height="2.458" filterUnits="userSpaceOnUse" color-interpolation-filters="sRGB"><feFlood flood-opacity="0" result="BackgroundImageFix"/><feBlend in="SourceGraphic" in2="BackgroundImageFix" result="shape"/><feColorMatrix in="SourceAlpha" values="0 0 0 0 0 0 0 0 0 0 0 0 0 0 0 0 0 0 127 0" result="hardAlpha"/><feOffset dx=".1" dy="-.3"/><feGaussianBlur stdDeviation=".3"/><feComposite in2="hardAlpha" operator="arithmetic" k2="-1" k3="1"/><feColorMatrix values="0 0 0 0 0.776471 0 0 0 0 0.545098 0 0 0 0 0.576471 0 0 0 1 0"/><feBlend in2="shape" result="effect1_innerShadow_3987_23163"/><feGaussianBlur stdDeviation=".05" result="effect2_foregroundBlur_3987_23163"/></filter><filter id="N" x="14.698" y="12.722" width="2.23" height="2.219" filterUnits="userSpaceOnUse" color-interpolation-filters="sRGB"><feFlood flood-opacity="0" result="BackgroundImageFix"/><feBlend in="SourceGraphic" in2="BackgroundImageFix" result="shape"/><feColorMatrix in="SourceAlpha" values="0 0 0 0 0 0 0 0 0 0 0 0 0 0 0 0 0 0 127 0" result="hardAlpha"/><feOffset/><feGaussianBlur stdDeviation=".075"/><feComposite in2="hardAlpha" operator="arithmetic" k2="-1" k3="1"/><feColorMatrix values="0 0 0 0 0.0745098 0 0 0 0 0.407843 0 0 0 0 0.756863 0 0 0 1 0"/><feBlend in2="shape" result="effect1_innerShadow_3987_23163"/><feColorMatrix in="SourceAlpha" values="0 0 0 0 0 0 0 0 0 0 0 0 0 0 0 0 0 0 127 0" result="hardAlpha"/><feOffset dx="-.1" dy=".1"/><feGaussianBlur stdDeviation=".1"/><feComposite in2="hardAlpha" operator="arithmetic" k2="-1" k3="1"/><feColorMatrix values="0 0 0 0 0.32549 0 0 0 0 0.631373 0 0 0 0 0.882353 0 0 0 1 0"/><feBlend in2="effect1_innerShadow_3987_23163" result="effect2_innerShadow_3987_23163"/></filter><filter id="P" x="11.909" y="15.48" width="2.23" height="2.219" filterUnits="userSpaceOnUse" color-interpolation-filters="sRGB"><feFlood flood-opacity="0" result="BackgroundImageFix"/><feBlend in="SourceGraphic" in2="BackgroundImageFix" result="shape"/><feColorMatrix in="SourceAlpha" values="0 0 0 0 0 0 0 0 0 0 0 0 0 0 0 0 0 0 127 0" result="hardAlpha"/><feOffset/><feGaussianBlur stdDeviation=".075"/><feComposite in2="hardAlpha" operator="arithmetic" k2="-1" k3="1"/><feColorMatrix values="0 0 0 0 0.0745098 0 0 0 0 0.407843 0 0 0 0 0.756863 0 0 0 1 0"/><feBlend in2="shape" result="effect1_innerShadow_3987_23163"/><feColorMatrix in="SourceAlpha" values="0 0 0 0 0 0 0 0 0 0 0 0 0 0 0 0 0 0 127 0" result="hardAlpha"/><feOffset dx="-.1" dy=".1"/><feGaussianBlur stdDeviation=".05"/><feComposite in2="hardAlpha" operator="arithmetic" k2="-1" k3="1"/><feColorMatrix values="0 0 0 0 0.282353 0 0 0 0 0.564706 0 0 0 0 0.854902 0 0 0 1 0"/><feBlend in2="effect1_innerShadow_3987_23163" result="effect2_innerShadow_3987_23163"/></filter><filter id="V" x="7.677" y="6.285" width="4.333" height="3.319" filterUnits="userSpaceOnUse" color-interpolation-filters="sRGB"><feFlood flood-opacity="0" result="BackgroundImageFix"/><feBlend in="SourceGraphic" in2="BackgroundImageFix" result="shape"/><feColorMatrix in="SourceAlpha" values="0 0 0 0 0 0 0 0 0 0 0 0 0 0 0 0 0 0 127 0" result="hardAlpha"/><feOffset dy="-.4"/><feGaussianBlur stdDeviation=".25"/><feComposite in2="hardAlpha" operator="arithmetic" k2="-1" k3="1"/><feColorMatrix values="0 0 0 0 0.803922 0 0 0 0 0.529412 0 0 0 0 0.517647 0 0 0 1 0"/><feBlend in2="shape" result="effect1_innerShadow_3987_23163"/></filter><filter id="W" x="14.454" y="12.307" width="2.872" height="2.874" filterUnits="userSpaceOnUse" color-interpolation-filters="sRGB"><feFlood flood-opacity="0" result="BackgroundImageFix"/><feBlend in="SourceGraphic" in2="BackgroundImageFix" result="shape"/><feGaussianBlur stdDeviation=".075" result="effect1_foregroundBlur_3987_23163"/></filter><filter id="X" x="11.674" y="15.102" width="2.872" height="2.874" filterUnits="userSpaceOnUse" color-interpolation-filters="sRGB"><feFlood flood-opacity="0" result="BackgroundImageFix"/><feBlend in="SourceGraphic" in2="BackgroundImageFix" result="shape"/><feGaussianBlur stdDeviation=".075" result="effect1_foregroundBlur_3987_23163"/></filter><filter id="aa" x="16.785" y="5.419" width="10.971" height="13.923" filterUnits="userSpaceOnUse" color-interpolation-filters="sRGB"><feFlood flood-opacity="0" result="BackgroundImageFix"/><feBlend in="SourceGraphic" in2="BackgroundImageFix" result="shape"/><feGaussianBlur stdDeviation=".5" result="effect1_foregroundBlur_3987_23163"/></filter><linearGradient id="b" x1="26.833" y1="17.552" x2="2.047" y2="17.552" gradientUnits="userSpaceOnUse"><stop stop-color="#40AAFE"/><stop offset="1" stop-color="#3EA5FE"/></linearGradient><linearGradient id="r" x1="18.56" y1="15.277" x2="14.8" y2="19.771" gradientUnits="userSpaceOnUse"><stop stop-color="#FFDFC4"/><stop offset=".886" stop-color="#AF828A"/></linearGradient><linearGradient id="z" x1="26.833" y1="24.615" x2="2.047" y2="24.615" gradientUnits="userSpaceOnUse"><stop stop-color="#3F90F0"/><stop offset="1" stop-color="#4184E7"/></linearGradient><linearGradient id="B" x1="17.219" y1="18.621" x2="17.188" y2="16.715" gradientUnits="userSpaceOnUse"><stop stop-color="#DBAB9F"/><stop offset="1" stop-color="#E3A695"/></linearGradient><linearGradient id="F" x1="14.945" y1="14.659" x2="14.954" y2="15.609" gradientUnits="userSpaceOnUse"><stop stop-color="#52475D"/><stop offset="1" stop-color="#413251"/></linearGradient><linearGradient id="H" x1="16.334" y1="12.381" x2="17.49" y2="12.17" gradientUnits="userSpaceOnUse"><stop stop-color="#574C62"/><stop offset="1" stop-color="#4C4055"/></linearGradient><linearGradient id="I" x1="16.734" y1="11.683" x2="16.847" y2="11.761" gradientUnits="userSpaceOnUse"><stop offset=".354" stop-color="#403044"/><stop offset="1" stop-color="#403044" stop-opacity="0"/></linearGradient><linearGradient id="J" x1="17.383" y1="12.101" x2="17.3" y2="12.046" gradientUnits="userSpaceOnUse"><stop stop-color="#574E60"/><stop offset="1" stop-color="#574E60" stop-opacity="0"/></linearGradient><linearGradient id="L" x1="11.422" y1="18.027" x2="11.304" y2="17.843" gradientUnits="userSpaceOnUse"><stop offset=".145" stop-color="#443873"/><stop offset="1" stop-color="#443873" stop-opacity="0"/></linearGradient><linearGradient id="M" x1="10.984" y1="17.398" x2="11.027" y2="17.468" gradientUnits="userSpaceOnUse"><stop stop-color="#504B5B"/><stop offset="1" stop-color="#504B5B" stop-opacity="0"/></linearGradient><linearGradient id="O" x1="16.765" y1="13.152" x2="15.219" y2="14.668" gradientUnits="userSpaceOnUse"><stop stop-color="#489BE1"/><stop offset="1" stop-color="#4799EA"/></linearGradient><linearGradient id="Q" x1="13.976" y1="15.91" x2="12.429" y2="17.425" gradientUnits="userSpaceOnUse"><stop stop-color="#3387E0"/><stop offset="1" stop-color="#2F81CB"/></linearGradient><linearGradient id="R" x1="8.205" y1="4.842" x2="11.23" y2="4.525" gradientUnits="userSpaceOnUse"><stop stop-color="#E7AD91"/><stop offset="1" stop-color="#D8AC90"/></linearGradient><linearGradient id="Y" x1="14.263" y1="15.613" x2="12.12" y2="17.658" gradientUnits="userSpaceOnUse"><stop offset=".096" stop-color="#5F5669"/><stop offset=".322" stop-color="#5F5669" stop-opacity="0"/><stop offset=".768" stop-color="#5F5669"/></linearGradient></defs></svg>