<svg width="32" height="32" fill="none" xmlns="http://www.w3.org/2000/svg"><path transform="rotate(-4.337 12.169 7.015)" fill="url(#a)" d="M12.169 7.015h1.946v3.44h-1.946z"/><path d="M9.686 6.222c.159-.156.236-.386.256-.48l.186-.006.03 1.168c-.219.147-.538.133-.638-.077-.086-.18-.031-.41.166-.605Z" fill="url(#b)"/><g filter="url(#c)"><path d="M9.94 5.16c.018-.833.277-1.24.4-1.361l3.873-.1.15 3.28c-.843 2.225-3.585 2.39-4.015 1.605-.43-.786-.43-2.461-.409-3.425Z" fill="url(#d)"/><path d="M9.94 5.16c.018-.833.277-1.24.4-1.361l3.873-.1.15 3.28c-.843 2.225-3.585 2.39-4.015 1.605-.43-.786-.43-2.461-.409-3.425Z" fill="url(#e)"/></g><g filter="url(#f)"><path d="M9.592 3.822c-.189-.42-.005-.876.09-1.032.364-.707 1.152-.773 1.612-.585.541.221.704.342 1.564.073.861-.27 1.933-.184 2.519.807.585.99.006 2.137.16 2.75.153.612.549.662.713 1.372.147.986-.449 1.646-.988 1.806-.54.16-1.662.043-2.05-.856-.635-1.47-.247-2.183-.396-2.926-.15-.742-.6-.941-1.407-.758-.95.215-1.565-.09-1.817-.65Z" fill="url(#g)"/></g><path d="M12.66 6.657c-.053.001-.09-.046-.085-.098l.147-1.304c.006-.055.057-.095.11-.081a.754.754 0 0 1-.172 1.483Z" fill="url(#h)"/><path fill-rule="evenodd" clip-rule="evenodd" d="M11.102 7.162a.13.13 0 0 1 .003.183c-.24.25-.596.32-.71.335a.13.13 0 1 1-.032-.257c.096-.013.378-.074.556-.258a.13.13 0 0 1 .183-.003Z" fill="#87014D"/><g filter="url(#i)"><path fill-rule="evenodd" clip-rule="evenodd" d="M10.803 4.941a.799.799 0 0 0-.225-.01.156.156 0 1 1-.046-.308c.073-.011.193-.011.325.011.132.023.29.072.428.17a.156.156 0 1 1-.179.254.76.76 0 0 0-.303-.117Z" fill="#AF5247"/></g><path d="M11.35 5.469c-.14-.133-.367-.158-.463-.154l.326.476c.153-.013.31-.157.136-.322Z" fill="#2F2C2D"/><path d="M10.3 6.026 11.324 6c-.01-.406-.249-.73-.532-.722-.283.007-.504.342-.494.748Z" fill="#fff"/><path d="M10.927 6.01v-.004c-.008-.332-.158-.598-.333-.593-.176.004-.312.277-.303.61v.004l.636-.017Z" fill="url(#j)"/><path d="M10.725 6.015a.685.685 0 0 0 .002-.075c-.005-.192-.09-.346-.192-.344-.1.003-.178.161-.173.354 0 .025.003.05.006.075l.357-.01Z" fill="url(#k)"/><ellipse cx="10.47" cy="5.657" rx=".067" ry=".091" transform="rotate(23.132 10.47 5.657)" fill="url(#l)"/><path d="M3.761 11.987c-.285-.363-.293-.87-.07-1.293.223-.422.547-.832 1.016-.812.328.013.598.276.711.619.07.018.139.044.206.076l3 1.447a1.6 1.6 0 0 0 1.639-.148l2.223-1.622a1.15 1.15 0 1 1 1.356 1.857l-2.224 1.623a3.9 3.9 0 0 1-3.993.362l-2.918-1.421c-.246-.121-.72-.4-.946-.688Z" fill="#FFB93C"/><path d="M3.761 11.987c-.285-.363-.293-.87-.07-1.293.223-.422.547-.832 1.016-.812.328.013.598.276.711.619.07.018.139.044.206.076l3 1.447a1.6 1.6 0 0 0 1.639-.148l2.223-1.622a1.15 1.15 0 1 1 1.356 1.857l-2.224 1.623a3.9 3.9 0 0 1-3.993.362l-2.918-1.421c-.246-.121-.72-.4-.946-.688Z" fill="url(#m)"/><path d="M3.761 11.987c-.285-.363-.293-.87-.07-1.293.223-.422.547-.832 1.016-.812.328.013.598.276.711.619.07.018.139.044.206.076l3 1.447a1.6 1.6 0 0 0 1.639-.148l2.223-1.622a1.15 1.15 0 1 1 1.356 1.857l-2.224 1.623a3.9 3.9 0 0 1-3.993.362l-2.918-1.421c-.246-.121-.72-.4-.946-.688Z" fill="url(#n)"/><path d="M3.761 11.987c-.285-.363-.293-.87-.07-1.293.223-.422.547-.832 1.016-.812.328.013.598.276.711.619.07.018.139.044.206.076l3 1.447a1.6 1.6 0 0 0 1.639-.148l2.223-1.622a1.15 1.15 0 1 1 1.356 1.857l-2.224 1.623a3.9 3.9 0 0 1-3.993.362l-2.918-1.421c-.246-.121-.72-.4-.946-.688Z" fill="url(#o)"/><path d="M3.761 11.987c-.285-.363-.293-.87-.07-1.293.223-.422.547-.832 1.016-.812.328.013.598.276.711.619.07.018.139.044.206.076l3 1.447a1.6 1.6 0 0 0 1.639-.148l2.223-1.622a1.15 1.15 0 1 1 1.356 1.857l-2.224 1.623a3.9 3.9 0 0 1-3.993.362l-2.918-1.421c-.246-.121-.72-.4-.946-.688Z" fill="url(#p)"/><path d="M3.761 11.987c-.285-.363-.293-.87-.07-1.293.223-.422.547-.832 1.016-.812.328.013.598.276.711.619.07.018.139.044.206.076l3 1.447a1.6 1.6 0 0 0 1.639-.148l2.223-1.622a1.15 1.15 0 1 1 1.356 1.857l-2.224 1.623a3.9 3.9 0 0 1-3.993.362l-2.918-1.421c-.246-.121-.72-.4-.946-.688Z" fill="url(#q)"/><path d="m13.136 9.07.74-.39a.986.986 0 0 1 .585-.107l2.003 1.774c-.23 1.789.13 3.008.9 4.077l-4.254 3.23c-1.516-2.635-1.93-5.073-1.555-6.354.317-1.229 1.05-1.899 1.581-2.23Z" fill="#7351BF"/><path d="m13.136 9.07.74-.39a.986.986 0 0 1 .585-.107l2.003 1.774c-.23 1.789.13 3.008.9 4.077l-4.254 3.23c-1.516-2.635-1.93-5.073-1.555-6.354.317-1.229 1.05-1.899 1.581-2.23Z" fill="url(#r)"/><path d="m13.136 9.07.74-.39a.986.986 0 0 1 .585-.107l2.003 1.774c-.23 1.789.13 3.008.9 4.077l-4.254 3.23c-1.516-2.635-1.93-5.073-1.555-6.354.317-1.229 1.05-1.899 1.581-2.23Z" fill="url(#s)"/><path d="m13.136 9.07.74-.39a.986.986 0 0 1 .585-.107l2.003 1.774c-.23 1.789.13 3.008.9 4.077l-4.254 3.23c-1.516-2.635-1.93-5.073-1.555-6.354.317-1.229 1.05-1.899 1.581-2.23Z" fill="url(#t)"/><path d="m13.136 9.07.74-.39a.986.986 0 0 1 .585-.107l2.003 1.774c-.23 1.789.13 3.008.9 4.077l-4.254 3.23c-1.516-2.635-1.93-5.073-1.555-6.354.317-1.229 1.05-1.899 1.581-2.23Z" fill="url(#u)"/><path d="m13.136 9.07.74-.39a.986.986 0 0 1 .585-.107l2.003 1.774c-.23 1.789.13 3.008.9 4.077l-4.254 3.23c-1.516-2.635-1.93-5.073-1.555-6.354.317-1.229 1.05-1.899 1.581-2.23Z" fill="url(#v)"/><path d="m13.136 9.07.74-.39a.986.986 0 0 1 .585-.107l2.003 1.774c-.23 1.789.13 3.008.9 4.077l-4.254 3.23c-1.516-2.635-1.93-5.073-1.555-6.354.317-1.229 1.05-1.899 1.581-2.23Z" fill="url(#w)"/><path d="m13.136 9.07.74-.39a.986.986 0 0 1 .585-.107l2.003 1.774c-.23 1.789.13 3.008.9 4.077l-4.254 3.23c-1.516-2.635-1.93-5.073-1.555-6.354.317-1.229 1.05-1.899 1.581-2.23Z" fill="url(#x)"/><circle cx="22.204" cy="12.201" r=".63" fill="url(#y)"/><g filter="url(#z)"><path fill-rule="evenodd" clip-rule="evenodd" d="M19.704 10.332a1.85 1.85 0 0 0-1.873-.286l-2.687 1.093-.866-2.131 2.687-1.092a4.15 4.15 0 0 1 4.2.64l2.997 2.508a.65.65 0 0 1 .085.911l-.636.772a.65.65 0 0 1-.919.085l-2.988-2.5Z" fill="#FFC538"/></g><path d="M17.85 10.188 16.524 7.47l-2.764 1.322a1.483 1.483 0 0 0 1.255 2.687l2.833-1.29Z" fill="#6B47B8"/><path d="M17.85 10.188 16.524 7.47l-2.764 1.322a1.483 1.483 0 0 0 1.255 2.687l2.833-1.29Z" fill="url(#A)"/><path d="M17.85 10.188 16.524 7.47l-2.764 1.322a1.483 1.483 0 0 0 1.255 2.687l2.833-1.29Z" fill="url(#B)"/><path d="M17.85 10.188 16.524 7.47l-2.764 1.322a1.483 1.483 0 0 0 1.255 2.687l2.833-1.29Z" fill="url(#C)"/><path d="M17.85 10.188 16.524 7.47l-2.764 1.322a1.483 1.483 0 0 0 1.255 2.687l2.833-1.29Z" fill="url(#D)"/><rect x="4.738" y="10.155" width="1.484" height="1.324" rx=".662" fill="#FFC039"/><path d="M9.015 22.097a854.698 854.698 0 0 1-1.546 5.218l1.074 1.391c.86-1.614 2.641-4.987 2.93-5.66.242-.566.566-.711.808-.856l1.34-.804-1.973-2.473c-.12.094-.594.445-1.32 1.074-.734.637-1.169 1.618-1.313 2.11Z" fill="url(#E)"/><path d="M9.015 22.097a854.698 854.698 0 0 1-1.546 5.218l1.074 1.391c.86-1.614 2.641-4.987 2.93-5.66.242-.566.566-.711.808-.856l1.34-.804-1.973-2.473c-.12.094-.594.445-1.32 1.074-.734.637-1.169 1.618-1.313 2.11Z" fill="url(#F)"/><path d="M9.015 22.097a854.698 854.698 0 0 1-1.546 5.218l1.074 1.391c.86-1.614 2.641-4.987 2.93-5.66.242-.566.566-.711.808-.856l1.34-.804-1.973-2.473c-.12.094-.594.445-1.32 1.074-.734.637-1.169 1.618-1.313 2.11Z" fill="url(#G)"/><path d="M9.015 22.097a854.698 854.698 0 0 1-1.546 5.218l1.074 1.391c.86-1.614 2.641-4.987 2.93-5.66.242-.566.566-.711.808-.856l1.34-.804-1.973-2.473c-.12.094-.594.445-1.32 1.074-.734.637-1.169 1.618-1.313 2.11Z" fill="url(#H)"/><g filter="url(#I)"><path d="m5.039 27.245 2.46.07 1.048 1.391-.624 1.184a.25.25 0 0 1-.335.105l-3.41-1.748c-.197-.101-.317-.329-.197-.514.247-.38.74-.488 1.058-.488Z" fill="#534E8C"/><path d="m5.039 27.245 2.46.07 1.048 1.391-.624 1.184a.25.25 0 0 1-.335.105l-3.41-1.748c-.197-.101-.317-.329-.197-.514.247-.38.74-.488 1.058-.488Z" fill="url(#J)"/><path d="m5.039 27.245 2.46.07 1.048 1.391-.624 1.184a.25.25 0 0 1-.335.105l-3.41-1.748c-.197-.101-.317-.329-.197-.514.247-.38.74-.488 1.058-.488Z" fill="url(#K)"/></g><path d="m5.039 27.245 2.46.07 1.048 1.391-.624 1.184a.25.25 0 0 1-.335.105l-3.41-1.748c-.197-.101-.317-.329-.197-.514.247-.38.74-.488 1.058-.488Z" fill="url(#L)"/><g filter="url(#M)"><path d="m17.937 22.808-.652-1.278 2.613-1.683.344 1.015 5.836-.687-.625 1.773c-1.422.446-4.465 1.408-5.504 1.68-1.074.281-1.848-.434-2.012-.82Z" fill="#FFC439"/><path d="m17.937 22.808-.652-1.278 2.613-1.683.344 1.015 5.836-.687-.625 1.773c-1.422.446-4.465 1.408-5.504 1.68-1.074.281-1.848-.434-2.012-.82Z" fill="url(#N)"/><path d="m17.937 22.808-.652-1.278 2.613-1.683.344 1.015 5.836-.687-.625 1.773c-1.422.446-4.465 1.408-5.504 1.68-1.074.281-1.848-.434-2.012-.82Z" fill="url(#O)"/></g><g filter="url(#P)"><path d="m19.297 20.331.392 1.14a.4.4 0 0 0 .435.266l4.563-.656" stroke="url(#Q)" stroke-width=".4"/></g><path d="m26.737 19.762-1.234.472-.16 1.75c.305.314 1.058 1.04 1.715 1.633.428.387.844.467 1.146.433.23-.027.312-.276.23-.492l-1.374-3.65a.25.25 0 0 0-.323-.146Z" fill="#473F82"/><path d="m26.737 19.762-1.234.472-.16 1.75c.305.314 1.058 1.04 1.715 1.633.428.387.844.467 1.146.433.23-.027.312-.276.23-.492l-1.374-3.65a.25.25 0 0 0-.323-.146Z" fill="url(#R)"/><path d="m26.737 19.762-1.234.472-.16 1.75c.305.314 1.058 1.04 1.715 1.633.428.387.844.467 1.146.433.23-.027.312-.276.23-.492l-1.374-3.65a.25.25 0 0 0-.323-.146Z" fill="url(#S)"/><path d="m26.737 19.762-1.234.472-.16 1.75c.305.314 1.058 1.04 1.715 1.633.428.387.844.467 1.146.433.23-.027.312-.276.23-.492l-1.374-3.65a.25.25 0 0 0-.323-.146Z" fill="url(#T)"/><g filter="url(#U)"><path d="m17.226 21.745-.914-2.148 1.793-3.844c1.258 1.754 1.738 2.664 1.98 3.055.269.432.298.922-.062 1.28-.637.57-2.13 1.342-2.797 1.657Z" fill="#97919E"/><path d="m17.226 21.745-.914-2.148 1.793-3.844c1.258 1.754 1.738 2.664 1.98 3.055.269.432.298.922-.062 1.28-.637.57-2.13 1.342-2.797 1.657Z" fill="url(#V)"/></g><path d="M17.351 14.417s-4.125 3.031-6.023 4.703a17.651 17.651 0 0 0 2.544 2.853.92.92 0 0 0 1.23-.012c.92-.81 1.78-1.6 2.616-2.552 1.375-1.562 1.047-2.663.766-3.312-.244-.563-.857-1.355-1.133-1.68Z" fill="#918996"/><path d="M17.351 14.417s-4.125 3.031-6.023 4.703a17.651 17.651 0 0 0 2.544 2.853.92.92 0 0 0 1.23-.012c.92-.81 1.78-1.6 2.616-2.552 1.375-1.562 1.047-2.663.766-3.312-.244-.563-.857-1.355-1.133-1.68Z" fill="url(#W)"/><path d="M17.351 14.417s-4.125 3.031-6.023 4.703a17.651 17.651 0 0 0 2.544 2.853.92.92 0 0 0 1.23-.012c.92-.81 1.78-1.6 2.616-2.552 1.375-1.562 1.047-2.663.766-3.312-.244-.563-.857-1.355-1.133-1.68Z" fill="url(#X)"/><path d="M17.351 14.417s-4.125 3.031-6.023 4.703a17.651 17.651 0 0 0 2.544 2.853.92.92 0 0 0 1.23-.012c.92-.81 1.78-1.6 2.616-2.552 1.375-1.562 1.047-2.663.766-3.312-.244-.563-.857-1.355-1.133-1.68Z" fill="url(#Y)"/><path d="M17.351 14.417s-4.125 3.031-6.023 4.703a17.651 17.651 0 0 0 2.544 2.853.92.92 0 0 0 1.23-.012c.92-.81 1.78-1.6 2.616-2.552 1.375-1.562 1.047-2.663.766-3.312-.244-.563-.857-1.355-1.133-1.68Z" fill="url(#Z)"/><path d="M17.351 14.417s-4.125 3.031-6.023 4.703a17.651 17.651 0 0 0 2.544 2.853.92.92 0 0 0 1.23-.012c.92-.81 1.78-1.6 2.616-2.552 1.375-1.562 1.047-2.663.766-3.312-.244-.563-.857-1.355-1.133-1.68Z" fill="url(#aa)"/><defs><radialGradient id="a" cx="0" cy="0" r="1" gradientUnits="userSpaceOnUse" gradientTransform="rotate(137.185 4.859 6.944) scale(1.45254 1.83228)"><stop offset=".109" stop-color="#D97C27"/><stop offset="1" stop-color="#EAAA45"/></radialGradient><radialGradient id="b" cx="0" cy="0" r="1" gradientUnits="userSpaceOnUse" gradientTransform="matrix(.34044 .62018 -.78984 .43357 9.516 6.381)"><stop offset=".332" stop-color="#FFBF42"/><stop offset="1" stop-color="#EBA544"/></radialGradient><radialGradient id="e" cx="0" cy="0" r="1" gradientUnits="userSpaceOnUse" gradientTransform="matrix(-.87665 -.02605 .03176 -1.0688 13.223 5.8)"><stop offset=".156" stop-color="#FFAB1D"/><stop offset="1" stop-color="#FFAB1D" stop-opacity="0"/></radialGradient><radialGradient id="g" cx="0" cy="0" r="1" gradientUnits="userSpaceOnUse" gradientTransform="rotate(-135.779 9.51 .38) scale(6.49715 5.47476)"><stop offset=".207" stop-color="#FFBA29"/><stop offset="1" stop-color="#FFB029"/></radialGradient><radialGradient id="h" cx="0" cy="0" r="1" gradientUnits="userSpaceOnUse" gradientTransform="matrix(-.44492 .98884 -1.60681 -.72297 13.246 5.665)"><stop offset=".04" stop-color="#FFD040"/><stop offset="1" stop-color="#FEAD30"/></radialGradient><radialGradient id="j" cx="0" cy="0" r="1" gradientUnits="userSpaceOnUse" gradientTransform="matrix(.2837 -.00732 .01422 .55117 10.586 5.997)"><stop offset=".895" stop-color="#916A62"/><stop offset="1" stop-color="#824D44"/></radialGradient><radialGradient id="k" cx="0" cy="0" r="1" gradientUnits="userSpaceOnUse" gradientTransform="matrix(.25938 -.0067 .01448 .5613 10.413 6.023)"><stop stop-color="#666361"/><stop offset=".813" stop-color="#565352"/></radialGradient><radialGradient id="m" cx="0" cy="0" r="1" gradientUnits="userSpaceOnUse" gradientTransform="rotate(27.371 -18.52 13.855) scale(7.9528 2.89243)"><stop offset=".655" stop-color="#FF9B2A" stop-opacity="0"/><stop offset="1" stop-color="#FF9B2A"/></radialGradient><radialGradient id="n" cx="0" cy="0" r="1" gradientUnits="userSpaceOnUse" gradientTransform="matrix(7 5.09375 -5.69907 7.83185 4.984 9.19)"><stop offset=".757" stop-color="#FF9231" stop-opacity="0"/><stop offset=".956" stop-color="#E77553"/></radialGradient><radialGradient id="o" cx="0" cy="0" r="1" gradientUnits="userSpaceOnUse" gradientTransform="rotate(124.509 -.376 6.876) scale(1.51691 .5962)"><stop offset=".418" stop-color="#FEA724"/><stop offset="1" stop-color="#FEA724" stop-opacity="0"/></radialGradient><radialGradient id="p" cx="0" cy="0" r="1" gradientUnits="userSpaceOnUse" gradientTransform="matrix(.59003 .20313 -.9568 2.77923 3.535 11.237)"><stop stop-color="#FFD05B"/><stop offset="1" stop-color="#FFD05B" stop-opacity="0"/></radialGradient><radialGradient id="q" cx="0" cy="0" r="1" gradientUnits="userSpaceOnUse" gradientTransform="rotate(143.499 .989 5.88) scale(.97189 1.16056)"><stop stop-color="#E9B636"/><stop offset="1" stop-color="#E9B636" stop-opacity="0"/></radialGradient><radialGradient id="r" cx="0" cy="0" r="1" gradientUnits="userSpaceOnUse" gradientTransform="rotate(141.806 6.122 10.013) scale(5.40769 7.07772)"><stop offset=".611" stop-color="#836DBC" stop-opacity="0"/><stop offset=".986" stop-color="#836DBC"/></radialGradient><radialGradient id="s" cx="0" cy="0" r="1" gradientUnits="userSpaceOnUse" gradientTransform="rotate(-159.126 10.318 5.322) scale(7.10407 10.7105)"><stop offset=".765" stop-color="#746399" stop-opacity="0"/><stop offset=".965" stop-color="#746399"/></radialGradient><radialGradient id="t" cx="0" cy="0" r="1" gradientUnits="userSpaceOnUse" gradientTransform="matrix(-3.36366 1.59373 -2.8979 -6.11618 17.364 13.784)"><stop offset=".109" stop-color="#896FCC"/><stop offset="1" stop-color="#896FCC" stop-opacity="0"/></radialGradient><radialGradient id="u" cx="0" cy="0" r="1" gradientUnits="userSpaceOnUse" gradientTransform="rotate(121.109 5.172 9.927) scale(2.11694 2.06251)"><stop stop-color="#68549D"/><stop offset="1" stop-color="#68549D" stop-opacity="0"/></radialGradient><radialGradient id="v" cx="0" cy="0" r="1" gradientUnits="userSpaceOnUse" gradientTransform="matrix(2.125 -1.09375 .92592 1.79894 15.047 10.519)"><stop offset=".279" stop-color="#5B39A7"/><stop offset="1" stop-color="#5B39A7" stop-opacity="0"/></radialGradient><radialGradient id="w" cx="0" cy="0" r="1" gradientUnits="userSpaceOnUse" gradientTransform="matrix(-.89062 .32813 -.43976 -1.19362 13.422 10.675)"><stop offset=".274" stop-color="#715FA7"/><stop offset="1" stop-color="#715FA7" stop-opacity="0"/></radialGradient><radialGradient id="x" cx="0" cy="0" r="1" gradientUnits="userSpaceOnUse" gradientTransform="matrix(-.26562 -.34375 2.58518 -1.99762 15.719 15.706)"><stop offset=".403" stop-color="#7052BB"/><stop offset="1" stop-color="#7052BB" stop-opacity="0"/></radialGradient><radialGradient id="y" cx="0" cy="0" r="1" gradientUnits="userSpaceOnUse" gradientTransform="rotate(24.692 -17.275 55.426) scale(1.12213 1.1783)"><stop stop-color="#FC9D34"/><stop offset=".906" stop-color="#E17E4B"/></radialGradient><radialGradient id="C" cx="0" cy="0" r="1" gradientUnits="userSpaceOnUse" gradientTransform="matrix(1.33216 .125 -.21108 2.2495 12.918 10.253)"><stop stop-color="#806CB1"/><stop offset="1" stop-color="#6C57A8" stop-opacity="0"/></radialGradient><radialGradient id="D" cx="0" cy="0" r="1" gradientUnits="userSpaceOnUse" gradientTransform="matrix(-.875 .45313 -.88734 -1.71347 17.485 8.722)"><stop offset=".164" stop-color="#7D68BA"/><stop offset="1" stop-color="#7D68BA" stop-opacity="0"/></radialGradient><radialGradient id="G" cx="0" cy="0" r="1" gradientUnits="userSpaceOnUse" gradientTransform="matrix(-4.65317 9.34098 -2.71885 -1.35439 14.084 21.27)"><stop offset=".183" stop-color="#EC8B4B"/><stop offset="1" stop-color="#EC8B4B" stop-opacity="0"/></radialGradient><radialGradient id="H" cx="0" cy="0" r="1" gradientUnits="userSpaceOnUse" gradientTransform="matrix(-1.8268 4.82559 -1.33887 -.50685 13.911 21.236)"><stop stop-color="#D77364"/><stop offset="1" stop-color="#D77364" stop-opacity="0"/></radialGradient><radialGradient id="L" cx="0" cy="0" r="1" gradientUnits="userSpaceOnUse" gradientTransform="rotate(-18.357 88.908 1.877) scale(.94262 1.56541)"><stop stop-color="#64628C"/><stop offset="1" stop-color="#64628C" stop-opacity="0"/></radialGradient><radialGradient id="O" cx="0" cy="0" r="1" gradientUnits="userSpaceOnUse" gradientTransform="matrix(1.09375 1.96875 -.89768 .49871 17.828 21.378)"><stop stop-color="#F3953D"/><stop offset="1" stop-color="#F3953D" stop-opacity="0"/></radialGradient><radialGradient id="V" cx="0" cy="0" r="1" gradientUnits="userSpaceOnUse" gradientTransform="matrix(2.4375 4.75 -1.7011 .87293 17.015 18.91)"><stop offset=".329" stop-color="#746484"/><stop offset="1" stop-color="#827483" stop-opacity="0"/></radialGradient><radialGradient id="W" cx="0" cy="0" r="1" gradientUnits="userSpaceOnUse" gradientTransform="rotate(51.34 -10.858 23.047) scale(4.60225 17.5153)"><stop offset=".554" stop-color="#917EA3" stop-opacity="0"/><stop offset="1" stop-color="#917EA3"/></radialGradient><radialGradient id="X" cx="0" cy="0" r="1" gradientUnits="userSpaceOnUse" gradientTransform="matrix(1.01138 -2.18079 7.25457 3.36445 14.536 22.608)"><stop stop-color="#885FA7"/><stop offset="1" stop-color="#9583A6" stop-opacity="0"/></radialGradient><radialGradient id="Y" cx="0" cy="0" r="1" gradientUnits="userSpaceOnUse" gradientTransform="matrix(-2.05436 1.3596 -1.29326 -1.95412 18.044 16.95)"><stop stop-color="#AFA8B2"/><stop offset="1" stop-color="#9B92A1" stop-opacity="0"/></radialGradient><radialGradient id="aa" cx="0" cy="0" r="1" gradientUnits="userSpaceOnUse" gradientTransform="matrix(1.90625 -.90625 .11383 .23944 13.515 17.237)"><stop offset=".207" stop-color="#9C959A"/><stop offset="1" stop-color="#9C959A" stop-opacity="0"/></radialGradient><linearGradient id="d" x1="12.919" y1="6.578" x2="9.954" y2="6.833" gradientUnits="userSpaceOnUse"><stop stop-color="#FFC33E"/><stop offset="1" stop-color="#FFC247"/></linearGradient><linearGradient id="l" x1="10.396" y1="5.617" x2="10.589" y2="5.68" gradientUnits="userSpaceOnUse"><stop stop-color="#fff"/><stop offset="1" stop-color="#fff" stop-opacity="0"/></linearGradient><linearGradient id="A" x1="15.125" y1="8.034" x2="15.781" y2="9.159" gradientUnits="userSpaceOnUse"><stop stop-color="#6B5396"/><stop offset="1" stop-color="#6B5396" stop-opacity="0"/></linearGradient><linearGradient id="B" x1="16.515" y1="11.128" x2="15.109" y2="8.69" gradientUnits="userSpaceOnUse"><stop stop-color="#5836A4"/><stop offset="1" stop-color="#5836A4" stop-opacity="0"/></linearGradient><linearGradient id="E" x1="12.453" y1="20.19" x2="9.078" y2="28.315" gradientUnits="userSpaceOnUse"><stop stop-color="#FFC235"/><stop offset="1" stop-color="#FFC443"/></linearGradient><linearGradient id="F" x1="7.845" y1="24.855" x2="9.12" y2="25.337" gradientUnits="userSpaceOnUse"><stop stop-color="#FFD558"/><stop offset="1" stop-color="#FFD558" stop-opacity="0"/></linearGradient><linearGradient id="J" x1="5.898" y1="29.151" x2="6.054" y2="28.839" gradientUnits="userSpaceOnUse"><stop stop-color="#443088"/><stop offset="1" stop-color="#534F8C" stop-opacity="0"/></linearGradient><linearGradient id="K" x1="8.14" y1="29.55" x2="7.484" y2="29.112" gradientUnits="userSpaceOnUse"><stop stop-color="#4C438D"/><stop offset="1" stop-color="#4C438D" stop-opacity="0"/></linearGradient><linearGradient id="N" x1="18.172" y1="22.878" x2="19.64" y2="22.222" gradientUnits="userSpaceOnUse"><stop stop-color="#FFB657"/><stop offset="1" stop-color="#FFB657" stop-opacity="0"/></linearGradient><linearGradient id="Q" x1="19.437" y1="21.409" x2="24.375" y2="21.222" gradientUnits="userSpaceOnUse"><stop stop-color="#FFCC43"/><stop offset="1" stop-color="#FFCC43" stop-opacity="0"/></linearGradient><linearGradient id="R" x1="26.14" y1="19.745" x2="26.64" y2="20.909" gradientUnits="userSpaceOnUse"><stop offset=".024" stop-color="#444367"/><stop offset="1" stop-color="#444367" stop-opacity="0"/></linearGradient><linearGradient id="S" x1="26.14" y1="22.706" x2="26.904" y2="21.901" gradientUnits="userSpaceOnUse"><stop stop-color="#5A418F"/><stop offset="1" stop-color="#5A418F" stop-opacity="0"/></linearGradient><linearGradient id="T" x1="27.922" y1="21.987" x2="27.515" y2="22.128" gradientUnits="userSpaceOnUse"><stop offset=".213" stop-color="#5E5D8F"/><stop offset="1" stop-color="#484083" stop-opacity="0"/></linearGradient><linearGradient id="Z" x1="13.171" y1="17.378" x2="13.859" y2="18.31" gradientUnits="userSpaceOnUse"><stop stop-color="#908582"/><stop offset="1" stop-color="#908582" stop-opacity="0"/></linearGradient><filter id="c" x="9.682" y="3.299" width="4.68" height="5.713" filterUnits="userSpaceOnUse" color-interpolation-filters="sRGB"><feFlood flood-opacity="0" result="BackgroundImageFix"/><feBlend in="SourceGraphic" in2="BackgroundImageFix" result="shape"/><feColorMatrix in="SourceAlpha" values="0 0 0 0 0 0 0 0 0 0 0 0 0 0 0 0 0 0 127 0" result="hardAlpha"/><feOffset dx="-.25" dy="-.4"/><feGaussianBlur stdDeviation=".5"/><feComposite in2="hardAlpha" operator="arithmetic" k2="-1" k3="1"/><feColorMatrix values="0 0 0 0 0.933333 0 0 0 0 0.592157 0 0 0 0 0.156863 0 0 0 1 0"/><feBlend in2="shape" result="effect1_innerShadow_4002_533"/><feColorMatrix in="SourceAlpha" values="0 0 0 0 0 0 0 0 0 0 0 0 0 0 0 0 0 0 127 0" result="hardAlpha"/><feOffset dx="-.15" dy="-.05"/><feGaussianBlur stdDeviation=".25"/><feComposite in2="hardAlpha" operator="arithmetic" k2="-1" k3="1"/><feColorMatrix values="0 0 0 0 0.788235 0 0 0 0 0.411765 0 0 0 0 0.0705882 0 0 0 1 0"/><feBlend in2="effect1_innerShadow_4002_533" result="effect2_innerShadow_4002_533"/></filter><filter id="f" x="9.11" y="1.915" width="7.162" height="7.559" filterUnits="userSpaceOnUse" color-interpolation-filters="sRGB"><feFlood flood-opacity="0" result="BackgroundImageFix"/><feBlend in="SourceGraphic" in2="BackgroundImageFix" result="shape"/><feColorMatrix in="SourceAlpha" values="0 0 0 0 0 0 0 0 0 0 0 0 0 0 0 0 0 0 127 0" result="hardAlpha"/><feOffset dx="-.4" dy=".4"/><feGaussianBlur stdDeviation=".5"/><feComposite in2="hardAlpha" operator="arithmetic" k2="-1" k3="1"/><feColorMatrix values="0 0 0 0 1 0 0 0 0 0.843137 0 0 0 0 0.207843 0 0 0 1 0"/><feBlend in2="shape" result="effect1_innerShadow_4002_533"/><feColorMatrix in="SourceAlpha" values="0 0 0 0 0 0 0 0 0 0 0 0 0 0 0 0 0 0 127 0" result="hardAlpha"/><feOffset dy="-.2"/><feGaussianBlur stdDeviation=".25"/><feComposite in2="hardAlpha" operator="arithmetic" k2="-1" k3="1"/><feColorMatrix values="0 0 0 0 1 0 0 0 0 0.607843 0 0 0 0 0.117647 0 0 0 1 0"/><feBlend in2="effect1_innerShadow_4002_533" result="effect2_innerShadow_4002_533"/></filter><filter id="i" x="10.299" y="4.616" width="1.052" height=".571" filterUnits="userSpaceOnUse" color-interpolation-filters="sRGB"><feFlood flood-opacity="0" result="BackgroundImageFix"/><feBlend in="SourceGraphic" in2="BackgroundImageFix" result="shape"/><feColorMatrix in="SourceAlpha" values="0 0 0 0 0 0 0 0 0 0 0 0 0 0 0 0 0 0 127 0" result="hardAlpha"/><feOffset dx="-.1" dy=".1"/><feGaussianBlur stdDeviation=".1"/><feComposite in2="hardAlpha" operator="arithmetic" k2="-1" k3="1"/><feColorMatrix values="0 0 0 0 0.682353 0 0 0 0 0.219608 0 0 0 0 0.133333 0 0 0 1 0"/><feBlend in2="shape" result="effect1_innerShadow_4002_533"/></filter><filter id="z" x="14.278" y="7.21" width="10.118" height="5.774" filterUnits="userSpaceOnUse" color-interpolation-filters="sRGB"><feFlood flood-opacity="0" result="BackgroundImageFix"/><feBlend in="SourceGraphic" in2="BackgroundImageFix" result="shape"/><feColorMatrix in="SourceAlpha" values="0 0 0 0 0 0 0 0 0 0 0 0 0 0 0 0 0 0 127 0" result="hardAlpha"/><feOffset dy="-.4"/><feGaussianBlur stdDeviation=".5"/><feComposite in2="hardAlpha" operator="arithmetic" k2="-1" k3="1"/><feColorMatrix values="0 0 0 0 0.929412 0 0 0 0 0.552941 0 0 0 0 0.294118 0 0 0 1 0"/><feBlend in2="shape" result="effect1_innerShadow_4002_533"/></filter><filter id="I" x="3.933" y="27.245" width="4.813" height="3.178" filterUnits="userSpaceOnUse" color-interpolation-filters="sRGB"><feFlood flood-opacity="0" result="BackgroundImageFix"/><feBlend in="SourceGraphic" in2="BackgroundImageFix" result="shape"/><feColorMatrix in="SourceAlpha" values="0 0 0 0 0 0 0 0 0 0 0 0 0 0 0 0 0 0 127 0" result="hardAlpha"/><feOffset dx=".2" dy=".4"/><feGaussianBlur stdDeviation=".2"/><feComposite in2="hardAlpha" operator="arithmetic" k2="-1" k3="1"/><feColorMatrix values="0 0 0 0 0.298039 0 0 0 0 0.286275 0 0 0 0 0.454902 0 0 0 1 0"/><feBlend in2="shape" result="effect1_innerShadow_4002_533"/></filter><filter id="M" x="17.135" y="19.597" width="8.943" height="4.095" filterUnits="userSpaceOnUse" color-interpolation-filters="sRGB"><feFlood flood-opacity="0" result="BackgroundImageFix"/><feBlend in="SourceGraphic" in2="BackgroundImageFix" result="shape"/><feColorMatrix in="SourceAlpha" values="0 0 0 0 0 0 0 0 0 0 0 0 0 0 0 0 0 0 127 0" result="hardAlpha"/><feOffset dx="-.15" dy="-.25"/><feGaussianBlur stdDeviation=".375"/><feComposite in2="hardAlpha" operator="arithmetic" k2="-1" k3="1"/><feColorMatrix values="0 0 0 0 0.960784 0 0 0 0 0.513726 0 0 0 0 0.431373 0 0 0 1 0"/><feBlend in2="shape" result="effect1_innerShadow_4002_533"/></filter><filter id="P" x="18.707" y="19.866" width="6.408" height="2.475" filterUnits="userSpaceOnUse" color-interpolation-filters="sRGB"><feFlood flood-opacity="0" result="BackgroundImageFix"/><feBlend in="SourceGraphic" in2="BackgroundImageFix" result="shape"/><feGaussianBlur stdDeviation=".2" result="effect1_foregroundBlur_4002_533"/></filter><filter id="U" x="16.312" y="15.653" width="3.978" height="6.092" filterUnits="userSpaceOnUse" color-interpolation-filters="sRGB"><feFlood flood-opacity="0" result="BackgroundImageFix"/><feBlend in="SourceGraphic" in2="BackgroundImageFix" result="shape"/><feColorMatrix in="SourceAlpha" values="0 0 0 0 0 0 0 0 0 0 0 0 0 0 0 0 0 0 127 0" result="hardAlpha"/><feOffset dy="-.1"/><feGaussianBlur stdDeviation=".25"/><feComposite in2="hardAlpha" operator="arithmetic" k2="-1" k3="1"/><feColorMatrix values="0 0 0 0 0.513726 0 0 0 0 0.458824 0 0 0 0 0.482353 0 0 0 1 0"/><feBlend in2="shape" result="effect1_innerShadow_4002_533"/></filter></defs></svg>