<svg width="32" height="32" fill="none" xmlns="http://www.w3.org/2000/svg"><path transform="rotate(-4.337 12.169 7.174)" fill="url(#a)" d="M12.169 7.174h1.946v3.44h-1.946z"/><path transform="rotate(-4.337 12.169 7.174)" fill="url(#b)" d="M12.169 7.174h1.946v3.44h-1.946z"/><path transform="rotate(-4.337 12.169 7.174)" fill="url(#c)" d="M12.169 7.174h1.946v3.44h-1.946z"/><path d="M9.434 6.27c.158-.162.233-.397.251-.494l.19-.009.053 1.189c-.22.155-.546.146-.652-.066-.091-.182-.04-.416.158-.62Z" fill="url(#d)"/><path d="M9.434 6.27c.158-.162.233-.397.251-.494l.19-.009.053 1.189c-.22.155-.546.146-.652-.066-.091-.182-.04-.416.158-.62Z" fill="url(#e)"/><g filter="url(#f)"><path d="M9.625 5.242c.003-.849.26-1.27.383-1.394l3.944-.176.215 3.34c-.816 2.283-3.606 2.503-4.06 1.711-.453-.792-.485-2.5-.482-3.481Z" fill="url(#g)"/><path d="M9.625 5.242c.003-.849.26-1.27.383-1.394l3.944-.176.215 3.34c-.816 2.283-3.606 2.503-4.06 1.711-.453-.792-.485-2.5-.482-3.481Z" fill="url(#h)"/><path d="M9.625 5.242c.003-.849.26-1.27.383-1.394l3.944-.176.215 3.34c-.816 2.283-3.606 2.503-4.06 1.711-.453-.792-.485-2.5-.482-3.481Z" fill="url(#i)"/><path d="M9.625 5.242c.003-.849.26-1.27.383-1.394l3.944-.176.215 3.34c-.816 2.283-3.606 2.503-4.06 1.711-.453-.792-.485-2.5-.482-3.481Z" fill="url(#j)"/></g><g filter="url(#k)"><path d="M9.435 3.824c-.2-.425-.022-.892.073-1.054.356-.727 1.158-.81 1.63-.627.556.215.724.335 1.595.045.873-.291 1.967-.224 2.582.774.616.998.048 2.177.216 2.798.168.622.572.666.752 1.385.17 1.002-.425 1.686-.971 1.86-.547.173-1.692.075-2.105-.833-.676-1.486-.294-2.22-.46-2.974-.166-.753-.63-.948-1.448-.746-.963.238-1.596-.062-1.864-.628Z" fill="#FFE0AF"/><path d="M9.435 3.824c-.2-.425-.022-.892.073-1.054.356-.727 1.158-.81 1.63-.627.556.215.724.335 1.595.045.873-.291 1.967-.224 2.582.774.616.998.048 2.177.216 2.798.168.622.572.666.752 1.385.17 1.002-.425 1.686-.971 1.86-.547.173-1.692.075-2.105-.833-.676-1.486-.294-2.22-.46-2.974-.166-.753-.63-.948-1.448-.746-.963.238-1.596-.062-1.864-.628Z" fill="url(#l)"/></g><path d="m12.54 6.66.143-1.53a.769.769 0 0 1-.143 1.53Z" fill="url(#m)"/><path d="m12.54 6.66.143-1.53a.769.769 0 0 1-.143 1.53Z" fill="url(#n)"/><path d="m12.54 6.66.143-1.53a.769.769 0 0 1-.143 1.53Z" fill="url(#o)"/><path d="M11.236 5.47c-.145-.133-.377-.154-.474-.149l.342.48c.155-.017.313-.166.132-.332Z" fill="#2F2C2D"/><path fill-rule="evenodd" clip-rule="evenodd" d="M11.038 7.199c.053.05.056.133.007.186-.241.258-.602.338-.717.355a.132.132 0 1 1-.039-.262c.098-.014.384-.082.562-.273a.132.132 0 0 1 .187-.006Z" fill="#86004C"/><g filter="url(#p)"><path fill-rule="evenodd" clip-rule="evenodd" d="M10.691 4.941a.814.814 0 0 0-.23-.006.159.159 0 1 1-.053-.313c.074-.013.197-.015.331.006.136.02.297.067.44.163a.159.159 0 0 1-.177.264.775.775 0 0 0-.311-.114Z" fill="#915D37"/></g><path d="m10.198 6.057 1.044-.047c-.018-.414-.267-.739-.555-.726-.289.013-.507.359-.489.773Z" fill="#fff"/><path d="M10.838 6.028v-.004c-.016-.338-.173-.606-.352-.598-.179.008-.312.288-.297.627v.004l.649-.029Z" fill="url(#q)"/><path d="M10.632 6.038a.673.673 0 0 0 0-.076c-.008-.197-.098-.352-.201-.348-.103.005-.18.168-.17.364a.686.686 0 0 0 .007.077l.364-.017Z" fill="url(#r)"/><ellipse cx="10.365" cy="5.677" rx=".068" ry=".093" transform="rotate(22.056 10.365 5.677)" fill="url(#s)"/><g filter="url(#t)"><path d="M3.761 12.146c-.285-.364-.293-.871-.07-1.293.223-.422.547-.832 1.016-.813.328.014.598.276.711.62.07.018.139.043.206.076l3 1.447a1.6 1.6 0 0 0 1.639-.149l2.223-1.622a1.15 1.15 0 1 1 1.356 1.858l-2.224 1.622a3.9 3.9 0 0 1-3.993.363l-2.918-1.422c-.246-.12-.72-.4-.946-.687Z" fill="url(#u)"/><path d="M3.761 12.146c-.285-.364-.293-.871-.07-1.293.223-.422.547-.832 1.016-.813.328.014.598.276.711.62.07.018.139.043.206.076l3 1.447a1.6 1.6 0 0 0 1.639-.149l2.223-1.622a1.15 1.15 0 1 1 1.356 1.858l-2.224 1.622a3.9 3.9 0 0 1-3.993.363l-2.918-1.422c-.246-.12-.72-.4-.946-.687Z" fill="url(#v)"/><path d="M3.761 12.146c-.285-.364-.293-.871-.07-1.293.223-.422.547-.832 1.016-.813.328.014.598.276.711.62.07.018.139.043.206.076l3 1.447a1.6 1.6 0 0 0 1.639-.149l2.223-1.622a1.15 1.15 0 1 1 1.356 1.858l-2.224 1.622a3.9 3.9 0 0 1-3.993.363l-2.918-1.422c-.246-.12-.72-.4-.946-.687Z" fill="url(#w)"/><path d="M3.761 12.146c-.285-.364-.293-.871-.07-1.293.223-.422.547-.832 1.016-.813.328.014.598.276.711.62.07.018.139.043.206.076l3 1.447a1.6 1.6 0 0 0 1.639-.149l2.223-1.622a1.15 1.15 0 1 1 1.356 1.858l-2.224 1.622a3.9 3.9 0 0 1-3.993.363l-2.918-1.422c-.246-.12-.72-.4-.946-.687Z" fill="url(#x)"/></g><path d="m13.136 9.228.74-.39a.986.986 0 0 1 .585-.106l2.003 1.773c-.23 1.79.13 3.008.9 4.077l-4.254 3.23c-1.516-2.635-1.93-5.073-1.555-6.354.317-1.228 1.05-1.898 1.581-2.23Z" fill="#7351BF"/><path d="m13.136 9.228.74-.39a.986.986 0 0 1 .585-.106l2.003 1.773c-.23 1.79.13 3.008.9 4.077l-4.254 3.23c-1.516-2.635-1.93-5.073-1.555-6.354.317-1.228 1.05-1.898 1.581-2.23Z" fill="url(#y)"/><path d="m13.136 9.228.74-.39a.986.986 0 0 1 .585-.106l2.003 1.773c-.23 1.79.13 3.008.9 4.077l-4.254 3.23c-1.516-2.635-1.93-5.073-1.555-6.354.317-1.228 1.05-1.898 1.581-2.23Z" fill="url(#z)"/><path d="m13.136 9.228.74-.39a.986.986 0 0 1 .585-.106l2.003 1.773c-.23 1.79.13 3.008.9 4.077l-4.254 3.23c-1.516-2.635-1.93-5.073-1.555-6.354.317-1.228 1.05-1.898 1.581-2.23Z" fill="url(#A)"/><path d="m13.136 9.228.74-.39a.986.986 0 0 1 .585-.106l2.003 1.773c-.23 1.79.13 3.008.9 4.077l-4.254 3.23c-1.516-2.635-1.93-5.073-1.555-6.354.317-1.228 1.05-1.898 1.581-2.23Z" fill="url(#B)"/><path d="m13.136 9.228.74-.39a.986.986 0 0 1 .585-.106l2.003 1.773c-.23 1.79.13 3.008.9 4.077l-4.254 3.23c-1.516-2.635-1.93-5.073-1.555-6.354.317-1.228 1.05-1.898 1.581-2.23Z" fill="url(#C)"/><path d="m13.136 9.228.74-.39a.986.986 0 0 1 .585-.106l2.003 1.773c-.23 1.79.13 3.008.9 4.077l-4.254 3.23c-1.516-2.635-1.93-5.073-1.555-6.354.317-1.228 1.05-1.898 1.581-2.23Z" fill="url(#D)"/><path d="m13.136 9.228.74-.39a.986.986 0 0 1 .585-.106l2.003 1.773c-.23 1.79.13 3.008.9 4.077l-4.254 3.23c-1.516-2.635-1.93-5.073-1.555-6.354.317-1.228 1.05-1.898 1.581-2.23Z" fill="url(#E)"/><g filter="url(#F)"><path d="m5.792 11.645 3.062 1.422-.156.121" stroke="url(#G)" stroke-width=".4"/></g><circle cx="22.204" cy="12.359" r=".63" fill="url(#H)"/><g filter="url(#I)"><path fill-rule="evenodd" clip-rule="evenodd" d="M19.704 10.49a1.85 1.85 0 0 0-1.873-.285l-2.687 1.092-.866-2.13 2.687-1.093a4.15 4.15 0 0 1 4.2.64l2.997 2.508a.65.65 0 0 1 .085.912l-.636.772a.65.65 0 0 1-.919.085l-2.988-2.5Z" fill="url(#J)"/></g><path d="m17.85 10.347-1.325-2.718-2.764 1.322a1.483 1.483 0 0 0 1.255 2.687l2.833-1.291Z" fill="#6B47B8"/><path d="m17.85 10.347-1.325-2.718-2.764 1.322a1.483 1.483 0 0 0 1.255 2.687l2.833-1.291Z" fill="url(#K)"/><path d="m17.85 10.347-1.325-2.718-2.764 1.322a1.483 1.483 0 0 0 1.255 2.687l2.833-1.291Z" fill="url(#L)"/><path d="m17.85 10.347-1.325-2.718-2.764 1.322a1.483 1.483 0 0 0 1.255 2.687l2.833-1.291Z" fill="url(#M)"/><path d="m17.85 10.347-1.325-2.718-2.764 1.322a1.483 1.483 0 0 0 1.255 2.687l2.833-1.291Z" fill="url(#N)"/><rect x="4.738" y="10.314" width="1.484" height="1.324" rx=".662" fill="#E0AA85"/><rect x="4.738" y="10.314" width="1.484" height="1.324" rx=".662" fill="url(#O)"/><rect x="4.738" y="10.314" width="1.484" height="1.324" rx=".662" fill="url(#P)"/><path d="M9.015 22.255a857.565 857.565 0 0 1-1.546 5.219l1.074 1.39c.86-1.614 2.641-4.986 2.93-5.66.242-.566.566-.71.808-.855l1.34-.805-1.973-2.473c-.12.094-.594.445-1.32 1.075-.734.636-1.169 1.617-1.313 2.11Z" fill="url(#Q)"/><path d="M9.015 22.255a857.565 857.565 0 0 1-1.546 5.219l1.074 1.39c.86-1.614 2.641-4.986 2.93-5.66.242-.566.566-.71.808-.855l1.34-.805-1.973-2.473c-.12.094-.594.445-1.32 1.075-.734.636-1.169 1.617-1.313 2.11Z" fill="url(#R)"/><path d="M9.015 22.255a857.565 857.565 0 0 1-1.546 5.219l1.074 1.39c.86-1.614 2.641-4.986 2.93-5.66.242-.566.566-.71.808-.855l1.34-.805-1.973-2.473c-.12.094-.594.445-1.32 1.075-.734.636-1.169 1.617-1.313 2.11Z" fill="url(#S)"/><path d="M9.015 22.255a857.565 857.565 0 0 1-1.546 5.219l1.074 1.39c.86-1.614 2.641-4.986 2.93-5.66.242-.566.566-.71.808-.855l1.34-.805-1.973-2.473c-.12.094-.594.445-1.32 1.075-.734.636-1.169 1.617-1.313 2.11Z" fill="url(#T)"/><g filter="url(#U)"><path d="m5.039 27.404 2.46.07 1.048 1.39-.624 1.184a.25.25 0 0 1-.335.106l-3.41-1.749c-.197-.1-.317-.328-.197-.513.247-.381.74-.488 1.058-.488Z" fill="#534E8C"/><path d="m5.039 27.404 2.46.07 1.048 1.39-.624 1.184a.25.25 0 0 1-.335.106l-3.41-1.749c-.197-.1-.317-.328-.197-.513.247-.381.74-.488 1.058-.488Z" fill="url(#V)"/><path d="m5.039 27.404 2.46.07 1.048 1.39-.624 1.184a.25.25 0 0 1-.335.106l-3.41-1.749c-.197-.1-.317-.328-.197-.513.247-.381.74-.488 1.058-.488Z" fill="url(#W)"/></g><path d="m5.039 27.404 2.46.07 1.048 1.39-.624 1.184a.25.25 0 0 1-.335.106l-3.41-1.749c-.197-.1-.317-.328-.197-.513.247-.381.74-.488 1.058-.488Z" fill="url(#X)"/><g filter="url(#Y)"><path d="m17.937 22.966-.652-1.277 2.613-1.684.344 1.016 5.836-.688-.625 1.774c-1.422.445-4.465 1.407-5.504 1.68-1.074.28-1.848-.434-2.012-.82Z" fill="#DBA782"/><path d="m17.937 22.966-.652-1.277 2.613-1.684.344 1.016 5.836-.688-.625 1.774c-1.422.445-4.465 1.407-5.504 1.68-1.074.28-1.848-.434-2.012-.82Z" fill="url(#Z)"/><path d="m17.937 22.966-.652-1.277 2.613-1.684.344 1.016 5.836-.688-.625 1.774c-1.422.445-4.465 1.407-5.504 1.68-1.074.28-1.848-.434-2.012-.82Z" fill="url(#aa)"/></g><g filter="url(#ab)"><path d="m19.297 20.49.392 1.14a.4.4 0 0 0 .435.265l5.761-.833" stroke="#E9B69F" stroke-width=".3"/></g><path d="m26.737 19.92-1.234.473-.16 1.749c.305.315 1.058 1.04 1.715 1.634.428.387.844.467 1.146.432.23-.026.312-.276.23-.492l-1.374-3.65a.25.25 0 0 0-.323-.146Z" fill="#473F82"/><path d="m26.737 19.92-1.234.473-.16 1.749c.305.315 1.058 1.04 1.715 1.634.428.387.844.467 1.146.432.23-.026.312-.276.23-.492l-1.374-3.65a.25.25 0 0 0-.323-.146Z" fill="url(#ac)"/><path d="m26.737 19.92-1.234.473-.16 1.749c.305.315 1.058 1.04 1.715 1.634.428.387.844.467 1.146.432.23-.026.312-.276.23-.492l-1.374-3.65a.25.25 0 0 0-.323-.146Z" fill="url(#ad)"/><path d="m26.737 19.92-1.234.473-.16 1.749c.305.315 1.058 1.04 1.715 1.634.428.387.844.467 1.146.432.23-.026.312-.276.23-.492l-1.374-3.65a.25.25 0 0 0-.323-.146Z" fill="url(#ae)"/><g filter="url(#af)"><path d="m17.226 21.904-.914-2.149 1.793-3.844c1.258 1.754 1.738 2.664 1.98 3.055.269.433.298.922-.062 1.281-.637.57-2.13 1.341-2.797 1.657Z" fill="#97919E"/><path d="m17.226 21.904-.914-2.149 1.793-3.844c1.258 1.754 1.738 2.664 1.98 3.055.269.433.298.922-.062 1.281-.637.57-2.13 1.341-2.797 1.657Z" fill="url(#ag)"/></g><path d="M17.351 14.575s-4.125 3.032-6.023 4.704a17.65 17.65 0 0 0 2.544 2.853.92.92 0 0 0 1.23-.012c.92-.81 1.78-1.601 2.616-2.552 1.375-1.563 1.047-2.663.766-3.313-.244-.562-.857-1.354-1.133-1.68Z" fill="#918996"/><path d="M17.351 14.575s-4.125 3.032-6.023 4.704a17.65 17.65 0 0 0 2.544 2.853.92.92 0 0 0 1.23-.012c.92-.81 1.78-1.601 2.616-2.552 1.375-1.563 1.047-2.663.766-3.313-.244-.562-.857-1.354-1.133-1.68Z" fill="url(#ah)"/><path d="M17.351 14.575s-4.125 3.032-6.023 4.704a17.65 17.65 0 0 0 2.544 2.853.92.92 0 0 0 1.23-.012c.92-.81 1.78-1.601 2.616-2.552 1.375-1.563 1.047-2.663.766-3.313-.244-.562-.857-1.354-1.133-1.68Z" fill="url(#ai)"/><path d="M17.351 14.575s-4.125 3.032-6.023 4.704a17.65 17.65 0 0 0 2.544 2.853.92.92 0 0 0 1.23-.012c.92-.81 1.78-1.601 2.616-2.552 1.375-1.563 1.047-2.663.766-3.313-.244-.562-.857-1.354-1.133-1.68Z" fill="url(#aj)"/><path d="M17.351 14.575s-4.125 3.032-6.023 4.704a17.65 17.65 0 0 0 2.544 2.853.92.92 0 0 0 1.23-.012c.92-.81 1.78-1.601 2.616-2.552 1.375-1.563 1.047-2.663.766-3.313-.244-.562-.857-1.354-1.133-1.68Z" fill="url(#ak)"/><path d="M17.351 14.575s-4.125 3.032-6.023 4.704a17.65 17.65 0 0 0 2.544 2.853.92.92 0 0 0 1.23-.012c.92-.81 1.78-1.601 2.616-2.552 1.375-1.563 1.047-2.663.766-3.313-.244-.562-.857-1.354-1.133-1.68Z" fill="url(#al)"/><g filter="url(#am)"><path d="M20.705 9.625c-.563-.488-1.182-.714-1.422-.766.704-.058 1.422.41 1.766.668l2.468 2.035h.563l-.563.594c-.703-.64-2.25-2.044-2.812-2.531Z" fill="#EEBB9B"/></g><defs><radialGradient id="a" cx="0" cy="0" r="1" gradientUnits="userSpaceOnUse" gradientTransform="matrix(-.05152 -2.21336 1.59858 -.0372 13.877 9.183)"><stop offset=".116" stop-color="#E1A181"/><stop offset="1" stop-color="#D88C6E"/></radialGradient><radialGradient id="b" cx="0" cy="0" r="1" gradientUnits="userSpaceOnUse" gradientTransform="rotate(128.9 5.296 7.207) scale(.85382 1.15634)"><stop stop-color="#CD875F"/><stop offset="1" stop-color="#D5916D" stop-opacity="0"/></radialGradient><radialGradient id="c" cx="0" cy="0" r="1" gradientUnits="userSpaceOnUse" gradientTransform="matrix(.01105 -.86884 .23985 .00305 12.383 9.587)"><stop stop-color="#ECA78E"/><stop offset="1" stop-color="#DA8D72" stop-opacity="0"/></radialGradient><radialGradient id="d" cx="0" cy="0" r="1" gradientUnits="userSpaceOnUse" gradientTransform="matrix(.5157 .24995 -.35282 .72794 9.147 6.747)"><stop offset=".101" stop-color="#FEC19D"/><stop offset=".684" stop-color="#F2B08A"/></radialGradient><radialGradient id="e" cx="0" cy="0" r="1" gradientUnits="userSpaceOnUse" gradientTransform="matrix(-.1406 -.30237 .4538 -.211 9.59 7.063)"><stop stop-color="#F0AA89"/><stop offset="1" stop-color="#F0AA89" stop-opacity="0"/></radialGradient><radialGradient id="h" cx="0" cy="0" r="1" gradientUnits="userSpaceOnUse" gradientTransform="matrix(-.89375 -.00977 .0119 -1.08966 12.983 5.831)"><stop offset=".156" stop-color="#DD9C79"/><stop offset="1" stop-color="#DD9C79" stop-opacity="0"/></radialGradient><radialGradient id="i" cx="0" cy="0" r="1" gradientUnits="userSpaceOnUse" gradientTransform="matrix(-.2445 -5.48134 2.1298 -.095 9.979 7.222)"><stop offset=".219" stop-color="#FBBCA1"/><stop offset="1" stop-color="#FBBCA1" stop-opacity="0"/></radialGradient><radialGradient id="j" cx="0" cy="0" r="1" gradientUnits="userSpaceOnUse" gradientTransform="matrix(.01841 .41275 -.6437 .02871 10.8 5.978)"><stop offset=".155" stop-color="#E6AA86"/><stop offset="1" stop-color="#E6AA86" stop-opacity="0"/></radialGradient><radialGradient id="l" cx="0" cy="0" r="1" gradientUnits="userSpaceOnUse" gradientTransform="matrix(1.60147 -.52848 1.13253 3.43195 9.577 3.616)"><stop stop-color="#FFECB8"/><stop offset="1" stop-color="#FFECB8" stop-opacity="0"/></radialGradient><radialGradient id="m" cx="0" cy="0" r="1" gradientUnits="userSpaceOnUse" gradientTransform="matrix(.75778 -.25713 .1255 .36986 12.659 5.73)"><stop offset=".17" stop-color="#EBB497"/><stop offset="1" stop-color="#E1A587"/></radialGradient><radialGradient id="n" cx="0" cy="0" r="1" gradientUnits="userSpaceOnUse" gradientTransform="rotate(76.603 2.914 10.731) scale(1.27049 1.32391)"><stop offset=".556" stop-color="#E1A38B" stop-opacity="0"/><stop offset="1" stop-color="#DD9A7E"/></radialGradient><radialGradient id="q" cx="0" cy="0" r="1" gradientUnits="userSpaceOnUse" gradientTransform="matrix(.28893 -.01289 .02504 .56134 10.49 6.021)"><stop offset=".895" stop-color="#916A62"/><stop offset="1" stop-color="#824D44"/></radialGradient><radialGradient id="r" cx="0" cy="0" r="1" gradientUnits="userSpaceOnUse" gradientTransform="matrix(.26474 -.0118 .02556 .57291 10.313 6.053)"><stop stop-color="#666361"/><stop offset=".813" stop-color="#565352"/></radialGradient><radialGradient id="v" cx="0" cy="0" r="1" gradientUnits="userSpaceOnUse" gradientTransform="matrix(1.21002 -.125 .20081 1.94388 3.535 11.984)"><stop stop-color="#FFC5A1"/><stop offset="1" stop-color="#FFC5A1" stop-opacity="0"/></radialGradient><radialGradient id="w" cx="0" cy="0" r="1" gradientUnits="userSpaceOnUse" gradientTransform="matrix(-.32812 2.84912 -1.43111 -.16482 11.698 12.52)"><stop stop-color="#D28670"/><stop offset="1" stop-color="#D28670" stop-opacity="0"/></radialGradient><radialGradient id="x" cx="0" cy="0" r="1" gradientUnits="userSpaceOnUse" gradientTransform="matrix(-.85938 .29932 -.3001 -.8616 5.338 11.276)"><stop offset=".258" stop-color="#CE8F78"/><stop offset="1" stop-color="#CE8F78" stop-opacity="0"/></radialGradient><radialGradient id="y" cx="0" cy="0" r="1" gradientUnits="userSpaceOnUse" gradientTransform="rotate(141.806 6.095 10.092) scale(5.40769 7.07772)"><stop offset=".611" stop-color="#836DBC" stop-opacity="0"/><stop offset=".986" stop-color="#836DBC"/></radialGradient><radialGradient id="z" cx="0" cy="0" r="1" gradientUnits="userSpaceOnUse" gradientTransform="rotate(-159.126 10.333 5.401) scale(7.10407 10.7105)"><stop offset=".765" stop-color="#746399" stop-opacity="0"/><stop offset=".965" stop-color="#746399"/></radialGradient><radialGradient id="A" cx="0" cy="0" r="1" gradientUnits="userSpaceOnUse" gradientTransform="matrix(-3.36366 1.59373 -2.8979 -6.11618 17.364 13.943)"><stop offset=".109" stop-color="#896FCC"/><stop offset="1" stop-color="#896FCC" stop-opacity="0"/></radialGradient><radialGradient id="B" cx="0" cy="0" r="1" gradientUnits="userSpaceOnUse" gradientTransform="rotate(121.109 5.127 10.006) scale(2.11694 2.06251)"><stop stop-color="#68549D"/><stop offset="1" stop-color="#68549D" stop-opacity="0"/></radialGradient><radialGradient id="C" cx="0" cy="0" r="1" gradientUnits="userSpaceOnUse" gradientTransform="matrix(2.125 -1.09375 .92592 1.79894 15.047 10.677)"><stop offset=".279" stop-color="#5B39A7"/><stop offset="1" stop-color="#5B39A7" stop-opacity="0"/></radialGradient><radialGradient id="D" cx="0" cy="0" r="1" gradientUnits="userSpaceOnUse" gradientTransform="matrix(-.89062 .32813 -.43976 -1.19362 13.422 10.833)"><stop offset=".274" stop-color="#715FA7"/><stop offset="1" stop-color="#715FA7" stop-opacity="0"/></radialGradient><radialGradient id="E" cx="0" cy="0" r="1" gradientUnits="userSpaceOnUse" gradientTransform="matrix(-.26562 -.34375 2.58518 -1.99762 15.719 15.864)"><stop offset=".403" stop-color="#7052BB"/><stop offset="1" stop-color="#7052BB" stop-opacity="0"/></radialGradient><radialGradient id="H" cx="0" cy="0" r="1" gradientUnits="userSpaceOnUse" gradientTransform="rotate(24.692 -17.637 55.506) scale(1.12213 1.1783)"><stop stop-color="#D69381"/><stop offset=".906" stop-color="#B06D7A"/></radialGradient><radialGradient id="M" cx="0" cy="0" r="1" gradientUnits="userSpaceOnUse" gradientTransform="matrix(1.33216 .125 -.21108 2.2495 12.918 10.411)"><stop stop-color="#806CB1"/><stop offset="1" stop-color="#6C57A8" stop-opacity="0"/></radialGradient><radialGradient id="N" cx="0" cy="0" r="1" gradientUnits="userSpaceOnUse" gradientTransform="matrix(-.875 .45313 -.88734 -1.71347 17.485 8.88)"><stop offset=".164" stop-color="#7D68BA"/><stop offset="1" stop-color="#7D68BA" stop-opacity="0"/></radialGradient><radialGradient id="O" cx="0" cy="0" r="1" gradientUnits="userSpaceOnUse" gradientTransform="matrix(.4375 -.74756 1.05666 .6184 5.276 11.638)"><stop stop-color="#CD857E"/><stop offset="1" stop-color="#CD857E" stop-opacity="0"/></radialGradient><radialGradient id="P" cx="0" cy="0" r="1" gradientUnits="userSpaceOnUse" gradientTransform="matrix(.5586 0 0 1.24803 4.717 10.976)"><stop stop-color="#F6BF9D"/><stop offset="1" stop-color="#F6BF9D" stop-opacity="0"/></radialGradient><radialGradient id="S" cx="0" cy="0" r="1" gradientUnits="userSpaceOnUse" gradientTransform="matrix(-4.65317 9.34098 -2.71885 -1.35439 14.084 21.429)"><stop offset=".183" stop-color="#CE9391"/><stop offset="1" stop-color="#CE9391" stop-opacity="0"/></radialGradient><radialGradient id="T" cx="0" cy="0" r="1" gradientUnits="userSpaceOnUse" gradientTransform="matrix(-1.8268 4.82559 -1.33887 -.50685 13.911 21.394)"><stop stop-color="#B47284"/><stop offset="1" stop-color="#B47284" stop-opacity="0"/></radialGradient><radialGradient id="X" cx="0" cy="0" r="1" gradientUnits="userSpaceOnUse" gradientTransform="rotate(-18.357 89.398 1.956) scale(.94262 1.56541)"><stop stop-color="#64628C"/><stop offset="1" stop-color="#64628C" stop-opacity="0"/></radialGradient><radialGradient id="Z" cx="0" cy="0" r="1" gradientUnits="userSpaceOnUse" gradientTransform="rotate(71.565 -4.08 23.919) scale(1.70467 1.02263)"><stop stop-color="#EEBA9F"/><stop offset="1" stop-color="#EEBA9F" stop-opacity="0"/></radialGradient><radialGradient id="aa" cx="0" cy="0" r="1" gradientUnits="userSpaceOnUse" gradientTransform="matrix(.70312 1.125 -2.57259 1.60787 17.87 21.12)"><stop stop-color="#C37D80"/><stop offset="1" stop-color="#C37D80" stop-opacity="0"/></radialGradient><radialGradient id="ag" cx="0" cy="0" r="1" gradientUnits="userSpaceOnUse" gradientTransform="matrix(2.4375 4.75 -1.7011 .87293 17.015 19.068)"><stop offset=".329" stop-color="#746484"/><stop offset="1" stop-color="#827483" stop-opacity="0"/></radialGradient><radialGradient id="ah" cx="0" cy="0" r="1" gradientUnits="userSpaceOnUse" gradientTransform="rotate(51.34 -11.023 23.126) scale(4.60225 17.5153)"><stop offset=".554" stop-color="#917EA3" stop-opacity="0"/><stop offset="1" stop-color="#917EA3"/></radialGradient><radialGradient id="ai" cx="0" cy="0" r="1" gradientUnits="userSpaceOnUse" gradientTransform="matrix(1.01138 -2.18079 7.25457 3.36445 14.536 22.766)"><stop stop-color="#885FA7"/><stop offset="1" stop-color="#9583A6" stop-opacity="0"/></radialGradient><radialGradient id="aj" cx="0" cy="0" r="1" gradientUnits="userSpaceOnUse" gradientTransform="matrix(-2.05436 1.3596 -1.29326 -1.95412 18.044 17.109)"><stop stop-color="#AFA8B2"/><stop offset="1" stop-color="#9B92A1" stop-opacity="0"/></radialGradient><radialGradient id="al" cx="0" cy="0" r="1" gradientUnits="userSpaceOnUse" gradientTransform="matrix(1.90625 -.90625 .11383 .23944 13.515 17.396)"><stop offset=".207" stop-color="#9C959A"/><stop offset="1" stop-color="#9C959A" stop-opacity="0"/></radialGradient><linearGradient id="g" x1="12.688" y1="6.63" x2="9.672" y2="6.946" gradientUnits="userSpaceOnUse"><stop stop-color="#DFA289"/><stop offset="1" stop-color="#F2B592"/></linearGradient><linearGradient id="o" x1="12.604" y1="5.805" x2="12.762" y2="5.81" gradientUnits="userSpaceOnUse"><stop stop-color="#E5A88D"/><stop offset="1" stop-color="#E4A88B" stop-opacity="0"/></linearGradient><linearGradient id="s" x1="10.29" y1="5.637" x2="10.487" y2="5.701" gradientUnits="userSpaceOnUse"><stop stop-color="#fff"/><stop offset="1" stop-color="#fff" stop-opacity="0"/></linearGradient><linearGradient id="u" x1="4.37" y1="11.692" x2="12.307" y2="13.942" gradientUnits="userSpaceOnUse"><stop stop-color="#DEA17E"/><stop offset="1" stop-color="#D39875"/></linearGradient><linearGradient id="G" x1="5.604" y1="11.751" x2="8.541" y2="13.376" gradientUnits="userSpaceOnUse"><stop stop-color="#E2A789"/><stop offset="1" stop-color="#E2A789" stop-opacity="0"/></linearGradient><linearGradient id="J" x1="17.817" y1="9.142" x2="25.325" y2="13.143" gradientUnits="userSpaceOnUse"><stop stop-color="#E4AB88"/><stop offset="1" stop-color="#EFBF98"/></linearGradient><linearGradient id="K" x1="15.125" y1="8.193" x2="15.781" y2="9.318" gradientUnits="userSpaceOnUse"><stop stop-color="#6B5396"/><stop offset="1" stop-color="#6B5396" stop-opacity="0"/></linearGradient><linearGradient id="L" x1="16.515" y1="11.286" x2="15.109" y2="8.849" gradientUnits="userSpaceOnUse"><stop stop-color="#5836A4"/><stop offset="1" stop-color="#5836A4" stop-opacity="0"/></linearGradient><linearGradient id="Q" x1="12.453" y1="20.349" x2="9.078" y2="28.474" gradientUnits="userSpaceOnUse"><stop stop-color="#E1AB93"/><stop offset="1" stop-color="#E5A996"/></linearGradient><linearGradient id="R" x1="7.845" y1="25.013" x2="9.12" y2="25.496" gradientUnits="userSpaceOnUse"><stop stop-color="#FFC9A2"/><stop offset="1" stop-color="#FFC9A2" stop-opacity="0"/></linearGradient><linearGradient id="V" x1="5.898" y1="29.31" x2="6.054" y2="28.997" gradientUnits="userSpaceOnUse"><stop stop-color="#443088"/><stop offset="1" stop-color="#534F8C" stop-opacity="0"/></linearGradient><linearGradient id="W" x1="8.14" y1="29.708" x2="7.484" y2="29.271" gradientUnits="userSpaceOnUse"><stop stop-color="#4C438D"/><stop offset="1" stop-color="#4C438D" stop-opacity="0"/></linearGradient><linearGradient id="ac" x1="26.14" y1="19.904" x2="26.64" y2="21.068" gradientUnits="userSpaceOnUse"><stop offset=".024" stop-color="#444367"/><stop offset="1" stop-color="#444367" stop-opacity="0"/></linearGradient><linearGradient id="ad" x1="26.14" y1="22.864" x2="26.904" y2="22.059" gradientUnits="userSpaceOnUse"><stop stop-color="#5A418F"/><stop offset="1" stop-color="#5A418F" stop-opacity="0"/></linearGradient><linearGradient id="ae" x1="27.922" y1="22.146" x2="27.515" y2="22.286" gradientUnits="userSpaceOnUse"><stop offset=".213" stop-color="#5E5D8F"/><stop offset="1" stop-color="#484083" stop-opacity="0"/></linearGradient><linearGradient id="ak" x1="13.171" y1="17.536" x2="13.859" y2="18.468" gradientUnits="userSpaceOnUse"><stop stop-color="#908582"/><stop offset="1" stop-color="#908582" stop-opacity="0"/></linearGradient><filter id="f" x="9.425" y="3.472" width="4.742" height="5.667" filterUnits="userSpaceOnUse" color-interpolation-filters="sRGB"><feFlood flood-opacity="0" result="BackgroundImageFix"/><feBlend in="SourceGraphic" in2="BackgroundImageFix" result="shape"/><feColorMatrix in="SourceAlpha" values="0 0 0 0 0 0 0 0 0 0 0 0 0 0 0 0 0 0 127 0" result="hardAlpha"/><feOffset dx="-.2" dy="-.2"/><feGaussianBlur stdDeviation=".5"/><feComposite in2="hardAlpha" operator="arithmetic" k2="-1" k3="1"/><feColorMatrix values="0 0 0 0 0.847059 0 0 0 0 0.521569 0 0 0 0 0.447059 0 0 0 1 0"/><feBlend in2="shape" result="effect1_innerShadow_4002_545"/></filter><filter id="k" x="8.944" y="1.837" width="7.369" height="7.638" filterUnits="userSpaceOnUse" color-interpolation-filters="sRGB"><feFlood flood-opacity="0" result="BackgroundImageFix"/><feBlend in="SourceGraphic" in2="BackgroundImageFix" result="shape"/><feColorMatrix in="SourceAlpha" values="0 0 0 0 0 0 0 0 0 0 0 0 0 0 0 0 0 0 127 0" result="hardAlpha"/><feOffset dx="-.4" dy=".4"/><feGaussianBlur stdDeviation=".3"/><feComposite in2="hardAlpha" operator="arithmetic" k2="-1" k3="1"/><feColorMatrix values="0 0 0 0 1 0 0 0 0 0.972549 0 0 0 0 0.737255 0 0 0 1 0"/><feBlend in2="shape" result="effect1_innerShadow_4002_545"/><feColorMatrix in="SourceAlpha" values="0 0 0 0 0 0 0 0 0 0 0 0 0 0 0 0 0 0 127 0" result="hardAlpha"/><feOffset dy="-.2"/><feGaussianBlur stdDeviation=".25"/><feComposite in2="hardAlpha" operator="arithmetic" k2="-1" k3="1"/><feColorMatrix values="0 0 0 0 0.956863 0 0 0 0 0.788235 0 0 0 0 0.631373 0 0 0 1 0"/><feBlend in2="effect1_innerShadow_4002_545" result="effect2_innerShadow_4002_545"/></filter><filter id="p" x="10.176" y="4.612" width="1.073" height=".569" filterUnits="userSpaceOnUse" color-interpolation-filters="sRGB"><feFlood flood-opacity="0" result="BackgroundImageFix"/><feBlend in="SourceGraphic" in2="BackgroundImageFix" result="shape"/><feColorMatrix in="SourceAlpha" values="0 0 0 0 0 0 0 0 0 0 0 0 0 0 0 0 0 0 127 0" result="hardAlpha"/><feOffset dx="-.1" dy=".1"/><feGaussianBlur stdDeviation=".1"/><feComposite in2="hardAlpha" operator="arithmetic" k2="-1" k3="1"/><feColorMatrix values="0 0 0 0 0.470588 0 0 0 0 0.270588 0 0 0 0 0.164706 0 0 0 1 0"/><feBlend in2="shape" result="effect1_innerShadow_4002_545"/></filter><filter id="t" x="3.335" y="9.44" width="10.979" height="5.402" filterUnits="userSpaceOnUse" color-interpolation-filters="sRGB"><feFlood flood-opacity="0" result="BackgroundImageFix"/><feBlend in="SourceGraphic" in2="BackgroundImageFix" result="shape"/><feColorMatrix in="SourceAlpha" values="0 0 0 0 0 0 0 0 0 0 0 0 0 0 0 0 0 0 127 0" result="hardAlpha"/><feOffset dx="-.2" dy=".2"/><feGaussianBlur stdDeviation=".25"/><feComposite in2="hardAlpha" operator="arithmetic" k2="-1" k3="1"/><feColorMatrix values="0 0 0 0 0.780392 0 0 0 0 0.584314 0 0 0 0 0.45098 0 0 0 1 0"/><feBlend in2="shape" result="effect1_innerShadow_4002_545"/><feColorMatrix in="SourceAlpha" values="0 0 0 0 0 0 0 0 0 0 0 0 0 0 0 0 0 0 127 0" result="hardAlpha"/><feOffset dx="-.2" dy="-.6"/><feGaussianBlur stdDeviation=".5"/><feComposite in2="hardAlpha" operator="arithmetic" k2="-1" k3="1"/><feColorMatrix values="0 0 0 0 0.701961 0 0 0 0 0.411765 0 0 0 0 0.494118 0 0 0 1 0"/><feBlend in2="effect1_innerShadow_4002_545" result="effect2_innerShadow_4002_545"/></filter><filter id="F" x="5.507" y="11.264" width="3.929" height="2.283" filterUnits="userSpaceOnUse" color-interpolation-filters="sRGB"><feFlood flood-opacity="0" result="BackgroundImageFix"/><feBlend in="SourceGraphic" in2="BackgroundImageFix" result="shape"/><feGaussianBlur stdDeviation=".1" result="effect1_foregroundBlur_4002_545"/></filter><filter id="I" x="14.278" y="6.968" width="10.118" height="6.174" filterUnits="userSpaceOnUse" color-interpolation-filters="sRGB"><feFlood flood-opacity="0" result="BackgroundImageFix"/><feBlend in="SourceGraphic" in2="BackgroundImageFix" result="shape"/><feColorMatrix in="SourceAlpha" values="0 0 0 0 0 0 0 0 0 0 0 0 0 0 0 0 0 0 127 0" result="hardAlpha"/><feOffset dy="-.8"/><feGaussianBlur stdDeviation=".7"/><feComposite in2="hardAlpha" operator="arithmetic" k2="-1" k3="1"/><feColorMatrix values="0 0 0 0 0.737255 0 0 0 0 0.454902 0 0 0 0 0.509804 0 0 0 1 0"/><feBlend in2="shape" result="effect1_innerShadow_4002_545"/></filter><filter id="U" x="3.933" y="27.404" width="4.813" height="3.178" filterUnits="userSpaceOnUse" color-interpolation-filters="sRGB"><feFlood flood-opacity="0" result="BackgroundImageFix"/><feBlend in="SourceGraphic" in2="BackgroundImageFix" result="shape"/><feColorMatrix in="SourceAlpha" values="0 0 0 0 0 0 0 0 0 0 0 0 0 0 0 0 0 0 127 0" result="hardAlpha"/><feOffset dx=".2" dy=".4"/><feGaussianBlur stdDeviation=".2"/><feComposite in2="hardAlpha" operator="arithmetic" k2="-1" k3="1"/><feColorMatrix values="0 0 0 0 0.298039 0 0 0 0 0.286275 0 0 0 0 0.454902 0 0 0 1 0"/><feBlend in2="shape" result="effect1_innerShadow_4002_545"/></filter><filter id="Y" x="17.285" y="19.505" width="9.043" height="4.345" filterUnits="userSpaceOnUse" color-interpolation-filters="sRGB"><feFlood flood-opacity="0" result="BackgroundImageFix"/><feBlend in="SourceGraphic" in2="BackgroundImageFix" result="shape"/><feColorMatrix in="SourceAlpha" values="0 0 0 0 0 0 0 0 0 0 0 0 0 0 0 0 0 0 127 0" result="hardAlpha"/><feOffset dx=".25" dy="-.5"/><feGaussianBlur stdDeviation=".5"/><feComposite in2="hardAlpha" operator="arithmetic" k2="-1" k3="1"/><feColorMatrix values="0 0 0 0 0.717647 0 0 0 0 0.45098 0 0 0 0 0.537255 0 0 0 1 0"/><feBlend in2="shape" result="effect1_innerShadow_4002_545"/></filter><filter id="ab" x="18.555" y="19.841" width="7.952" height="2.809" filterUnits="userSpaceOnUse" color-interpolation-filters="sRGB"><feFlood flood-opacity="0" result="BackgroundImageFix"/><feBlend in="SourceGraphic" in2="BackgroundImageFix" result="shape"/><feGaussianBlur stdDeviation=".3" result="effect1_foregroundBlur_4002_545"/></filter><filter id="af" x="16.312" y="15.811" width="3.978" height="6.092" filterUnits="userSpaceOnUse" color-interpolation-filters="sRGB"><feFlood flood-opacity="0" result="BackgroundImageFix"/><feBlend in="SourceGraphic" in2="BackgroundImageFix" result="shape"/><feColorMatrix in="SourceAlpha" values="0 0 0 0 0 0 0 0 0 0 0 0 0 0 0 0 0 0 127 0" result="hardAlpha"/><feOffset dy="-.1"/><feGaussianBlur stdDeviation=".25"/><feComposite in2="hardAlpha" operator="arithmetic" k2="-1" k3="1"/><feColorMatrix values="0 0 0 0 0.513726 0 0 0 0 0.458824 0 0 0 0 0.482353 0 0 0 1 0"/><feBlend in2="shape" result="effect1_innerShadow_4002_545"/></filter><filter id="am" x="18.783" y="8.354" width="5.797" height="4.302" filterUnits="userSpaceOnUse" color-interpolation-filters="sRGB"><feFlood flood-opacity="0" result="BackgroundImageFix"/><feBlend in="SourceGraphic" in2="BackgroundImageFix" result="shape"/><feGaussianBlur stdDeviation=".25" result="effect1_foregroundBlur_4002_545"/></filter></defs></svg>