<svg xmlns="http://www.w3.org/2000/svg" fill="none" viewBox="0 0 32 32"><path fill="url(#yawning-face_svg__a)" d="M15.999 29.998c9.334 0 13.999-6.268 13.999-14 0-7.73-4.665-13.998-14-13.998C6.665 2 2 8.268 2 15.999s4.664 13.999 13.999 13.999"/><path fill="url(#yawning-face_svg__b)" d="M15.999 29.998c9.334 0 13.999-6.268 13.999-14 0-7.73-4.665-13.998-14-13.998C6.665 2 2 8.268 2 15.999s4.664 13.999 13.999 13.999"/><path fill="url(#yawning-face_svg__c)" d="M15.999 29.998c9.334 0 13.999-6.268 13.999-14 0-7.73-4.665-13.998-14-13.998C6.665 2 2 8.268 2 15.999s4.664 13.999 13.999 13.999"/><path fill="url(#yawning-face_svg__d)" fill-opacity=".6" d="M15.999 29.998c9.334 0 13.999-6.268 13.999-14 0-7.73-4.665-13.998-14-13.998C6.665 2 2 8.268 2 15.999s4.664 13.999 13.999 13.999"/><path fill="url(#yawning-face_svg__e)" d="M15.999 29.998c9.334 0 13.999-6.268 13.999-14 0-7.73-4.665-13.998-14-13.998C6.665 2 2 8.268 2 15.999s4.664 13.999 13.999 13.999"/><path fill="url(#yawning-face_svg__f)" d="M15.999 29.998c9.334 0 13.999-6.268 13.999-14 0-7.73-4.665-13.998-14-13.998C6.665 2 2 8.268 2 15.999s4.664 13.999 13.999 13.999"/><path fill="url(#yawning-face_svg__g)" d="M15.999 29.998c9.334 0 13.999-6.268 13.999-14 0-7.73-4.665-13.998-14-13.998C6.665 2 2 8.268 2 15.999s4.664 13.999 13.999 13.999"/><path fill="url(#yawning-face_svg__h)" d="M15.999 29.998c9.334 0 13.999-6.268 13.999-14 0-7.73-4.665-13.998-14-13.998C6.665 2 2 8.268 2 15.999s4.664 13.999 13.999 13.999"/><path fill="url(#yawning-face_svg__i)" d="M16 29.999c9.334 0 13.999-6.267 13.999-13.999C29.999 8.27 25.334 2.001 16 2.001s-13.999 6.268-13.999 14c0 7.73 4.665 13.998 13.999 13.998"/><g filter="url(#yawning-face_svg__j)"><path fill="#BE6B12" d="M15.45 17.337a1.246 1.246 0 0 0-1.687-.36l-3.526 2.197.388-.901c.269-.626-.037-1.348-.684-1.614-.65-.267-1.397.029-1.662.66l-1.075 2.555-1.165 1.984a1 1 0 0 0-.058.112c-.397.559-.492 2.164-.21 2.844.812 2.625 2.458 1.79 4.854 2.093 1.054.133 2.308.524 3.138 0l3.411-1.619a1.2 1.2 0 0 0 .469-1.686 1.26 1.26 0 0 0-.665-.537l.506-.314a1.21 1.21 0 0 0 .374-1.71 1.28 1.28 0 0 0-.663-.503l.155-.097a1.21 1.21 0 0 0 .375-1.709 1.304 1.304 0 0 0-1.765-.376l-.576.358c.316-.384.358-.938.066-1.377"/></g><ellipse cx="16" cy="20.947" fill="url(#yawning-face_svg__k)" rx="5.766" ry="5.758"/><g filter="url(#yawning-face_svg__l)"><path stroke="#DD8526" stroke-linecap="round" stroke-linejoin="round" stroke-opacity=".75" stroke-width="1.9" d="M24.208 12.126c-.969-2.031-3.406-2.156-5.25-1.687"/></g><path stroke="url(#yawning-face_svg__m)" stroke-linecap="round" stroke-linejoin="round" stroke-width="1.9" d="M25.226 11.689c-1.532-2.047-4.125-2.547-6.266-1.344"/><g filter="url(#yawning-face_svg__n)"><path stroke="#DD8526" stroke-linecap="round" stroke-linejoin="round" stroke-opacity=".75" stroke-width="1.9" d="M6.272 13.126c1.717-2.562 4.28-3.031 6.124-2.562"/></g><path stroke="url(#yawning-face_svg__o)" stroke-linecap="round" stroke-linejoin="round" stroke-width="1.9" d="M7.272 11.689c1.532-2.047 4.125-2.547 6.266-1.344"/><g filter="url(#yawning-face_svg__p)"><path fill="url(#yawning-face_svg__q)" d="M15.66 16.732a1.36 1.36 0 0 0-1.878-.105l-3.432 2.958.266-1.037c.186-.72-.265-1.447-1.007-1.625-.746-.18-1.5.265-1.681.99l-.731 2.933-.923 2.334a2 2 0 0 0-.045.13 4.7 4.7 0 0 0-.489 2.224c.074 2.608 2.27 4.662 4.902 4.587a4.78 4.78 0 0 0 3.015-1.177l5.193-3.93c.61-.46.71-1.316.223-1.896-.212-.252-.5-.41-.806-.467l.492-.424a1.32 1.32 0 0 0 .118-1.905 1.4 1.4 0 0 0-.8-.432l.152-.13a1.32 1.32 0 0 0 .117-1.905 1.423 1.423 0 0 0-1.965-.11l-.56.483a1.26 1.26 0 0 0-.16-1.496"/><path fill="url(#yawning-face_svg__r)" d="M15.66 16.732a1.36 1.36 0 0 0-1.878-.105l-3.432 2.958.266-1.037c.186-.72-.265-1.447-1.007-1.625-.746-.18-1.5.265-1.681.99l-.731 2.933-.923 2.334a2 2 0 0 0-.045.13 4.7 4.7 0 0 0-.489 2.224c.074 2.608 2.27 4.662 4.902 4.587a4.78 4.78 0 0 0 3.015-1.177l5.193-3.93c.61-.46.71-1.316.223-1.896-.212-.252-.5-.41-.806-.467l.492-.424a1.32 1.32 0 0 0 .118-1.905 1.4 1.4 0 0 0-.8-.432l.152-.13a1.32 1.32 0 0 0 .117-1.905 1.423 1.423 0 0 0-1.965-.11l-.56.483a1.26 1.26 0 0 0-.16-1.496"/><path fill="url(#yawning-face_svg__s)" d="M15.66 16.732a1.36 1.36 0 0 0-1.878-.105l-3.432 2.958.266-1.037c.186-.72-.265-1.447-1.007-1.625-.746-.18-1.5.265-1.681.99l-.731 2.933-.923 2.334a2 2 0 0 0-.045.13 4.7 4.7 0 0 0-.489 2.224c.074 2.608 2.27 4.662 4.902 4.587a4.78 4.78 0 0 0 3.015-1.177l5.193-3.93c.61-.46.71-1.316.223-1.896-.212-.252-.5-.41-.806-.467l.492-.424a1.32 1.32 0 0 0 .118-1.905 1.4 1.4 0 0 0-.8-.432l.152-.13a1.32 1.32 0 0 0 .117-1.905 1.423 1.423 0 0 0-1.965-.11l-.56.483a1.26 1.26 0 0 0-.16-1.496"/></g><path fill="url(#yawning-face_svg__t)" d="M13.755 16.632a1.37 1.37 0 0 1 1.89.11 1.27 1.27 0 0 1-.088 1.816l-4.56 4.088a1.333 1.333 0 0 1-1.808-.04l-.39-.379a.7.7 0 0 1-.015-.994l1.51-1.613z"/><path fill="url(#yawning-face_svg__u)" d="M12.417 21.37a1.32 1.32 0 0 0 .163 1.575c.51.556 1.39.605 1.965.11l3.66-3.294a1.32 1.32 0 0 0 .118-1.905 1.423 1.423 0 0 0-1.966-.11l-.528.474c-.101.086-.276.262-.387.358z"/><path fill="url(#yawning-face_svg__v)" d="M13.679 23.276c.017.293.302.728.519.965.51.556 1.39.606 1.965.11l2.46-2.12c.576-.496.767-1.346.256-1.903-.09-.099-.234-.205-.392-.299-.379-.225-.833-.102-1.17.182z"/><path fill="url(#yawning-face_svg__w)" d="m15.315 25.02 1.227 1.722 1.475-1.105.795-.621c.616-.46.716-1.326.222-1.914a1.4 1.4 0 0 0-.43-.343c-.257-.132-.557-.033-.779.153z"/><path fill="url(#yawning-face_svg__x)" d="m7.89 22.142 2.476-2.596c.543-1.528.136-1.927.043-2.096z"/><g filter="url(#yawning-face_svg__y)"><path fill="url(#yawning-face_svg__z)" d="M19.033 24.58c-.328.121-.718-.116-.872-.53s-.013-.85.315-.971c.328-.122.718.115.872.53.153.414.012.849-.315.97"/></g><g filter="url(#yawning-face_svg__A)"><path fill="url(#yawning-face_svg__B)" d="M18.814 21.78c-.328.122-.718-.116-.872-.53s-.013-.85.315-.971c.328-.122.718.116.872.53s.013.85-.315.971"/></g><g filter="url(#yawning-face_svg__C)"><path fill="url(#yawning-face_svg__D)" d="M18.105 19.272c-.328.121-.718-.116-.872-.53s-.013-.85.315-.972c.328-.121.718.116.872.53s.013.85-.315.971"/></g><g filter="url(#yawning-face_svg__E)"><path fill="url(#yawning-face_svg__F)" d="M15.656 18.072c-.328.122-.719-.116-.872-.53s-.013-.85.314-.97c.328-.122.719.115.872.53.154.414.013.849-.315.97"/></g><g filter="url(#yawning-face_svg__G)"><path stroke="url(#yawning-face_svg__H)" stroke-linecap="round" stroke-width="1.5" d="M11.515 20.971c.938.707 2.9 2.687 3.24 4.955"/></g><path fill="url(#yawning-face_svg__I)" d="M10.46 18.689c-.339.519-1.078.65-1.676.284s-.808-1.085-.468-1.604c.339-.518 1.099-.642 1.697-.275s.787 1.076.448 1.595"/><defs><radialGradient id="yawning-face_svg__a" cx="0" cy="0" r="1" gradientTransform="rotate(132.839 10.786 10.065)scale(37.5033)" gradientUnits="userSpaceOnUse"><stop stop-color="#FFF478"/><stop offset=".475" stop-color="#FFB02E"/><stop offset="1" stop-color="#F70A8D"/></radialGradient><radialGradient id="yawning-face_svg__b" cx="0" cy="0" r="1" gradientTransform="rotate(131.878 10.74 10.193)scale(38.9487)" gradientUnits="userSpaceOnUse"><stop stop-color="#FFF478"/><stop offset=".475" stop-color="#FFB02E"/><stop offset="1" stop-color="#F70A8D"/></radialGradient><radialGradient id="yawning-face_svg__c" cx="0" cy="0" r="1" gradientTransform="rotate(101.31 2.876 12.808)scale(17.8466 22.8581)" gradientUnits="userSpaceOnUse"><stop offset=".788" stop-color="#F59639" stop-opacity="0"/><stop offset=".973" stop-color="#FF7DCE"/></radialGradient><radialGradient id="yawning-face_svg__d" cx="0" cy="0" r="1" gradientTransform="matrix(-29 29 -29 -29 18 14)" gradientUnits="userSpaceOnUse"><stop offset=".315" stop-opacity="0"/><stop offset="1"/></radialGradient><radialGradient id="yawning-face_svg__e" cx="0" cy="0" r="1" gradientTransform="rotate(77.692 -2.555 18.434)scale(28.1469)" gradientUnits="userSpaceOnUse"><stop offset=".508" stop-color="#7D6133" stop-opacity="0"/><stop offset="1" stop-color="#715B32"/></radialGradient><radialGradient id="yawning-face_svg__f" cx="0" cy="0" r="1" gradientTransform="rotate(55.713 -7.36 23.86)scale(13.3135 9.65032)" gradientUnits="userSpaceOnUse"><stop stop-color="#FFB849"/><stop offset="1" stop-color="#FFB847" stop-opacity="0"/></radialGradient><radialGradient id="yawning-face_svg__g" cx="0" cy="0" r="1" gradientTransform="matrix(11.49998 2 -2 11.49998 20.5 18)" gradientUnits="userSpaceOnUse"><stop stop-color="#FFA64B"/><stop offset=".9" stop-color="#FFAE46" stop-opacity="0"/></radialGradient><radialGradient id="yawning-face_svg__h" cx="0" cy="0" r="1" gradientTransform="rotate(43.971 -9.827 29.173)scale(59.0529)" gradientUnits="userSpaceOnUse"><stop offset=".185" stop-opacity="0"/><stop offset="1" stop-opacity=".4"/></radialGradient><radialGradient id="yawning-face_svg__i" cx="0" cy="0" r="1" gradientTransform="rotate(96.176 11.673 6.36)scale(33.6956)" gradientUnits="userSpaceOnUse"><stop offset=".641" stop-color="#F59639" stop-opacity="0"/><stop offset="1" stop-color="#F68354"/></radialGradient><radialGradient id="yawning-face_svg__k" cx="0" cy="0" r="1" gradientTransform="matrix(0 -11.6997 11.7155 0 16 29.263)" gradientUnits="userSpaceOnUse"><stop stop-color="#F70A8D"/><stop offset="1" stop-color="#89029C"/></radialGradient><radialGradient id="yawning-face_svg__m" cx="0" cy="0" r="1" gradientTransform="rotate(-88.301 17.163 -5.441)scale(7.92539 12.3133)" gradientUnits="userSpaceOnUse"><stop offset=".167" stop-color="#482641"/><stop offset=".276" stop-color="#503A4A"/><stop offset=".401" stop-color="#483637"/></radialGradient><radialGradient id="yawning-face_svg__o" cx="0" cy="0" r="1" gradientTransform="rotate(-91.699 10.967 .887)scale(7.92539 12.3133)" gradientUnits="userSpaceOnUse"><stop offset=".167" stop-color="#482641"/><stop offset=".276" stop-color="#503A4A"/><stop offset=".401" stop-color="#483637"/></radialGradient><radialGradient id="yawning-face_svg__q" cx="0" cy="0" r="1" gradientTransform="matrix(-23.69014 22.196 -22.05584 -23.54054 21.323 15.413)" gradientUnits="userSpaceOnUse"><stop offset=".24" stop-color="#FFD43C"/><stop offset=".614" stop-color="#FFB02E"/><stop offset="1" stop-color="#F70A8D"/></radialGradient><radialGradient id="yawning-face_svg__s" cx="0" cy="0" r="1" gradientTransform="rotate(115.708 4.803 14.334)scale(20.7424 28.3094)" gradientUnits="userSpaceOnUse"><stop offset=".732" stop-color="#FD61C2" stop-opacity="0"/><stop offset="1" stop-color="#FF63C4"/></radialGradient><radialGradient id="yawning-face_svg__z" cx="0" cy="0" r="1" gradientTransform="rotate(-168.602 10.473 11.056)scale(.81396 .95111)" gradientUnits="userSpaceOnUse"><stop offset=".328" stop-color="#FAF194" stop-opacity=".4"/><stop offset=".724" stop-color="#FFF478" stop-opacity="0"/></radialGradient><radialGradient id="yawning-face_svg__B" cx="0" cy="0" r="1" gradientTransform="rotate(-168.602 10.224 9.667)scale(.81396 .95111)" gradientUnits="userSpaceOnUse"><stop offset=".328" stop-color="#FAF194" stop-opacity=".4"/><stop offset=".724" stop-color="#FFF478" stop-opacity="0"/></radialGradient><radialGradient id="yawning-face_svg__D" cx="0" cy="0" r="1" gradientTransform="rotate(-168.602 9.744 8.448)scale(.81396 .95111)" gradientUnits="userSpaceOnUse"><stop offset=".328" stop-color="#FAF194" stop-opacity=".4"/><stop offset=".724" stop-color="#FFF478" stop-opacity="0"/></radialGradient><radialGradient id="yawning-face_svg__F" cx="0" cy="0" r="1" gradientTransform="rotate(-168.602 8.46 7.97)scale(.81396 .95111)" gradientUnits="userSpaceOnUse"><stop offset=".328" stop-color="#FAF194" stop-opacity=".4"/><stop offset=".724" stop-color="#FFF478" stop-opacity="0"/></radialGradient><radialGradient id="yawning-face_svg__I" cx="0" cy="0" r="1" gradientTransform="matrix(-1.6064 1.04544 -1.09804 -1.68721 9.99 17.783)" gradientUnits="userSpaceOnUse"><stop offset=".328" stop-color="#FFF478" stop-opacity=".3"/><stop offset=".724" stop-color="#FFF478" stop-opacity="0"/></radialGradient><filter id="yawning-face_svg__j" width="16.456" height="14.612" x="3.609" y="14.56" color-interpolation-filters="sRGB" filterUnits="userSpaceOnUse"><feFlood flood-opacity="0" result="BackgroundImageFix"/><feBlend in="SourceGraphic" in2="BackgroundImageFix" result="shape"/><feGaussianBlur result="effect1_foregroundBlur_6890_5229" stdDeviation="1"/></filter><filter id="yawning-face_svg__l" width="10.15" height="6.814" x="16.508" y="7.762" color-interpolation-filters="sRGB" filterUnits="userSpaceOnUse"><feFlood flood-opacity="0" result="BackgroundImageFix"/><feBlend in="SourceGraphic" in2="BackgroundImageFix" result="shape"/><feGaussianBlur result="effect1_foregroundBlur_6890_5229" stdDeviation=".75"/></filter><filter id="yawning-face_svg__n" width="11.024" height="7.623" x="3.822" y="7.953" color-interpolation-filters="sRGB" filterUnits="userSpaceOnUse"><feFlood flood-opacity="0" result="BackgroundImageFix"/><feBlend in="SourceGraphic" in2="BackgroundImageFix" result="shape"/><feGaussianBlur result="effect1_foregroundBlur_6890_5229" stdDeviation=".75"/></filter><filter id="yawning-face_svg__p" width="15.643" height="15.822" x="5.738" y="14.3" color-interpolation-filters="sRGB" filterUnits="userSpaceOnUse"><feFlood flood-opacity="0" result="BackgroundImageFix"/><feBlend in="SourceGraphic" in2="BackgroundImageFix" result="shape"/><feColorMatrix in="SourceAlpha" result="hardAlpha" values="0 0 0 0 0 0 0 0 0 0 0 0 0 0 0 0 0 0 127 0"/><feOffset dx="2" dy="-2"/><feGaussianBlur stdDeviation="2"/><feComposite in2="hardAlpha" k2="-1" k3="1" operator="arithmetic"/><feColorMatrix values="0 0 0 0 0 0 0 0 0 0 0 0 0 0 0 0 0 0 0.08 0"/><feBlend in2="shape" result="effect1_innerShadow_6890_5229"/></filter><filter id="yawning-face_svg__y" width="2.311" height="2.565" x="17.599" y="22.547" color-interpolation-filters="sRGB" filterUnits="userSpaceOnUse"><feFlood flood-opacity="0" result="BackgroundImageFix"/><feBlend in="SourceGraphic" in2="BackgroundImageFix" result="shape"/><feGaussianBlur result="effect1_foregroundBlur_6890_5229" stdDeviation=".25"/></filter><filter id="yawning-face_svg__A" width="2.311" height="2.565" x="17.38" y="19.747" color-interpolation-filters="sRGB" filterUnits="userSpaceOnUse"><feFlood flood-opacity="0" result="BackgroundImageFix"/><feBlend in="SourceGraphic" in2="BackgroundImageFix" result="shape"/><feGaussianBlur result="effect1_foregroundBlur_6890_5229" stdDeviation=".25"/></filter><filter id="yawning-face_svg__C" width="2.311" height="2.565" x="16.671" y="17.239" color-interpolation-filters="sRGB" filterUnits="userSpaceOnUse"><feFlood flood-opacity="0" result="BackgroundImageFix"/><feBlend in="SourceGraphic" in2="BackgroundImageFix" result="shape"/><feGaussianBlur result="effect1_foregroundBlur_6890_5229" stdDeviation=".25"/></filter><filter id="yawning-face_svg__E" width="2.311" height="2.565" x="14.221" y="16.04" color-interpolation-filters="sRGB" filterUnits="userSpaceOnUse"><feFlood flood-opacity="0" result="BackgroundImageFix"/><feBlend in="SourceGraphic" in2="BackgroundImageFix" result="shape"/><feGaussianBlur result="effect1_foregroundBlur_6890_5229" stdDeviation=".25"/></filter><filter id="yawning-face_svg__G" width="7.74" height="9.455" x="9.265" y="18.721" color-interpolation-filters="sRGB" filterUnits="userSpaceOnUse"><feFlood flood-opacity="0" result="BackgroundImageFix"/><feBlend in="SourceGraphic" in2="BackgroundImageFix" result="shape"/><feGaussianBlur result="effect1_foregroundBlur_6890_5229" stdDeviation=".75"/></filter><linearGradient id="yawning-face_svg__r" x1="3.01" x2="8.199" y1="17.251" y2="17.115" gradientUnits="userSpaceOnUse"><stop offset=".328" stop-color="#EE891E"/><stop offset=".865" stop-color="#FA9428" stop-opacity="0"/></linearGradient><linearGradient id="yawning-face_svg__t" x1="10.477" x2="13.05" y1="15.254" y2="18.392" gradientUnits="userSpaceOnUse"><stop offset=".386" stop-color="#83480A"/><stop offset=".545" stop-color="#CD7313"/><stop offset="1" stop-color="#FA9428" stop-opacity="0"/></linearGradient><linearGradient id="yawning-face_svg__u" x1="13.461" x2="14.435" y1="18.741" y2="19.945" gradientUnits="userSpaceOnUse"><stop offset=".386" stop-color="#83480A"/><stop offset=".545" stop-color="#CD7313"/><stop offset="1" stop-color="#FA9428" stop-opacity="0"/></linearGradient><linearGradient id="yawning-face_svg__v" x1="14.905" x2="16.035" y1="20.307" y2="21.748" gradientUnits="userSpaceOnUse"><stop offset=".386" stop-color="#83480A"/><stop offset=".545" stop-color="#CD7313"/><stop offset="1" stop-color="#FA9428" stop-opacity="0"/></linearGradient><linearGradient id="yawning-face_svg__w" x1="16.644" x2="17.567" y1="22.493" y2="23.665" gradientUnits="userSpaceOnUse"><stop offset=".386" stop-color="#83480A"/><stop offset=".545" stop-color="#CD7313"/><stop offset="1" stop-color="#FA9428" stop-opacity="0"/></linearGradient><linearGradient id="yawning-face_svg__x" x1="9.178" x2="8.602" y1="21.462" y2="21.094" gradientUnits="userSpaceOnUse"><stop offset=".307" stop-color="#E27F17" stop-opacity=".53"/><stop offset="1" stop-color="#FA9428" stop-opacity="0"/></linearGradient><linearGradient id="yawning-face_svg__H" x1="9.999" x2="15.776" y1="20.846" y2="28.101" gradientUnits="userSpaceOnUse"><stop offset=".328" stop-color="#FFF478" stop-opacity=".5"/><stop offset="1" stop-color="#FFF478" stop-opacity="0"/></linearGradient></defs></svg>