<svg xmlns="http://www.w3.org/2000/svg" fill="none" viewBox="0 0 32 32"><g clip-path="url(#zany-face_svg__a)"><g clip-path="url(#zany-face_svg__b)"><path fill="url(#zany-face_svg__c)" d="M19.622 29.521c9.016-2.416 11.9-9.677 9.898-17.145-2-7.468-8.128-12.315-17.145-9.899s-11.9 9.677-9.898 17.145c2 7.468 8.128 12.315 17.145 9.9"/><path fill="url(#zany-face_svg__d)" d="M19.622 29.521c9.016-2.416 11.9-9.677 9.898-17.145-2-7.468-8.128-12.315-17.145-9.899s-11.9 9.677-9.898 17.145c2 7.468 8.128 12.315 17.145 9.9"/><path fill="url(#zany-face_svg__e)" d="M19.622 29.521c9.016-2.416 11.9-9.677 9.898-17.145-2-7.468-8.128-12.315-17.145-9.899s-11.9 9.677-9.898 17.145c2 7.468 8.128 12.315 17.145 9.9"/><path fill="url(#zany-face_svg__f)" fill-opacity=".6" d="M19.622 29.521c9.016-2.416 11.9-9.677 9.898-17.145-2-7.468-8.128-12.315-17.145-9.899s-11.9 9.677-9.898 17.145c2 7.468 8.128 12.315 17.145 9.9"/><path fill="url(#zany-face_svg__g)" d="M19.622 29.521c9.016-2.416 11.9-9.677 9.898-17.145-2-7.468-8.128-12.315-17.145-9.899s-11.9 9.677-9.898 17.145c2 7.468 8.128 12.315 17.145 9.9"/><path fill="url(#zany-face_svg__h)" d="M19.622 29.521c9.016-2.416 11.9-9.677 9.898-17.145-2-7.468-8.128-12.315-17.145-9.899s-11.9 9.677-9.898 17.145c2 7.468 8.128 12.315 17.145 9.9"/><path fill="url(#zany-face_svg__i)" d="M19.622 29.521c9.016-2.416 11.9-9.677 9.898-17.145-2-7.468-8.128-12.315-17.145-9.899s-11.9 9.677-9.898 17.145c2 7.468 8.128 12.315 17.145 9.9"/><path fill="url(#zany-face_svg__j)" d="M19.622 29.521c9.016-2.416 11.9-9.677 9.898-17.145-2-7.468-8.128-12.315-17.145-9.899s-11.9 9.677-9.898 17.145c2 7.468 8.128 12.315 17.145 9.9"/></g><path fill="url(#zany-face_svg__k)" d="M18.588 25.66C8.93 28.246 6.341 18.587 6.341 18.587l19.318-5.176s2.589 9.66-7.07 12.247"/><path fill="url(#zany-face_svg__l)" d="M23.633 15.508 9.143 19.39a1.5 1.5 0 0 1-1.836-1.06l17.386-4.66a1.5 1.5 0 0 1-1.06 1.838"/><path fill="url(#zany-face_svg__m)" d="M19.38 28.553c4.057-1.087 4.244-6.78 4.098-7.827-.34-2.336-4.096-1.884-6.526-1.233s-5.961 2.161-5.065 4.338c.397.981 3.436 5.809 7.493 4.722"/><g filter="url(#zany-face_svg__n)" opacity=".5"><path stroke="#fff" d="M20.65 25.625c.836-.742 2.51-2.226 2.12-3.675"/></g><circle cx="8.203" cy="13.948" r="5" fill="url(#zany-face_svg__o)" transform="rotate(-15 8.203 13.948)"/><circle cx="17.475" cy="10.713" r="4.5" fill="url(#zany-face_svg__p)" transform="rotate(-15 17.475 10.713)"/><path fill="#fff" d="M10.429 16.458a4.5 4.5 0 1 0-2.33-8.694 4.5 4.5 0 0 0 2.33 8.694M21.054 13.61a4.5 4.5 0 1 0-2.33-8.693 4.5 4.5 0 0 0 2.33 8.694"/><path fill="url(#zany-face_svg__q)" d="M9.687 15.621a2 2 0 1 0-1.035-3.864 2 2 0 0 0 1.035 3.864"/><path fill="url(#zany-face_svg__r)" d="M20.502 9.617a2 2 0 1 0-1.036-3.863 2 2 0 0 0 1.036 3.863"/></g><defs><radialGradient id="zany-face_svg__c" cx="0" cy="0" r="1" gradientTransform="rotate(117.839 9.639 10.432)scale(37.5033)" gradientUnits="userSpaceOnUse"><stop stop-color="#FFF478"/><stop offset=".475" stop-color="#FFB02E"/><stop offset="1" stop-color="#F70A8D"/></radialGradient><radialGradient id="zany-face_svg__d" cx="0" cy="0" r="1" gradientTransform="rotate(116.878 9.6 10.566)scale(38.9487)" gradientUnits="userSpaceOnUse"><stop stop-color="#FFF478"/><stop offset=".475" stop-color="#FFB02E"/><stop offset="1" stop-color="#F70A8D"/></radialGradient><radialGradient id="zany-face_svg__e" cx="0" cy="0" r="1" gradientTransform="matrix(1.1486 17.8096 -22.81071 1.47114 15.094 12.62)" gradientUnits="userSpaceOnUse"><stop offset=".788" stop-color="#F59639" stop-opacity="0"/><stop offset=".973" stop-color="#FF7DCE"/></radialGradient><radialGradient id="zany-face_svg__f" cx="0" cy="0" r="1" gradientTransform="rotate(120 4.795 11.802)scale(41.0122)" gradientUnits="userSpaceOnUse"><stop offset=".315" stop-opacity="0"/><stop offset="1"/></radialGradient><radialGradient id="zany-face_svg__g" cx="0" cy="0" r="1" gradientTransform="rotate(62.692 -5.797 21.83)scale(28.1469)" gradientUnits="userSpaceOnUse"><stop offset=".508" stop-color="#7D6133" stop-opacity="0"/><stop offset="1" stop-color="#715B32"/></radialGradient><radialGradient id="zany-face_svg__h" cx="0" cy="0" r="1" gradientTransform="matrix(10.09144 8.68402 -6.29463 7.3148 16.612 16.354)" gradientUnits="userSpaceOnUse"><stop stop-color="#FFB849"/><stop offset="1" stop-color="#FFB847" stop-opacity="0"/></radialGradient><radialGradient id="zany-face_svg__i" cx="0" cy="0" r="1" gradientTransform="rotate(-5.134 197.422 -224.298)scale(11.6726)" gradientUnits="userSpaceOnUse"><stop stop-color="#FFA64B"/><stop offset=".9" stop-color="#FFAE46" stop-opacity="0"/></radialGradient><radialGradient id="zany-face_svg__j" cx="0" cy="0" r="1" gradientTransform="rotate(28.971 -19.75 40.592)scale(59.0529)" gradientUnits="userSpaceOnUse"><stop offset=".185" stop-opacity="0"/><stop offset="1" stop-opacity=".4"/></radialGradient><radialGradient id="zany-face_svg__k" cx="0" cy="0" r="1" gradientTransform="rotate(-105 20.25 6.55)scale(12.2222 24.4444)" gradientUnits="userSpaceOnUse"><stop stop-color="#F70A8D"/><stop offset="1" stop-color="#89029C"/></radialGradient><radialGradient id="zany-face_svg__m" cx="0" cy="0" r="1" gradientTransform="rotate(-114.866 19.44 8.276)scale(11.6726 20.292)" gradientUnits="userSpaceOnUse"><stop stop-color="#FF1C4A"/><stop offset=".766" stop-color="#FF2B8F"/><stop offset=".864" stop-color="#BB0773"/><stop offset=".886" stop-color="#9F0762"/></radialGradient><radialGradient id="zany-face_svg__o" cx="0" cy="0" r="1" gradientTransform="rotate(146.661 4.54 6.84)scale(10.4604 5.41393)" gradientUnits="userSpaceOnUse"><stop stop-color="#392108"/><stop offset="1" stop-color="#C87928" stop-opacity="0"/></radialGradient><radialGradient id="zany-face_svg__p" cx="0" cy="0" r="1" gradientTransform="rotate(-147.897 11.846 2.443)scale(6.80073 3.83912)" gradientUnits="userSpaceOnUse"><stop stop-color="#392108"/><stop offset="1" stop-color="#C87928" stop-opacity="0"/></radialGradient><linearGradient id="zany-face_svg__l" x1="16" x2="16.388" y1="16" y2="17.449" gradientUnits="userSpaceOnUse"><stop stop-color="#ECCDFF"/><stop offset="1" stop-color="#fff"/></linearGradient><linearGradient id="zany-face_svg__q" x1="16.973" x2="17.351" y1="9.528" y2="13.599" gradientUnits="userSpaceOnUse"><stop stop-color="#553B3E"/><stop offset="1" stop-color="#3D2432"/></linearGradient><linearGradient id="zany-face_svg__r" x1="20.061" x2="20.438" y1="5.594" y2="9.666" gradientUnits="userSpaceOnUse"><stop stop-color="#553B3E"/><stop offset="1" stop-color="#3D2432"/></linearGradient><clipPath id="zany-face_svg__a"><path fill="#fff" d="M0 0h32v32H0z"/></clipPath><clipPath id="zany-face_svg__b"><path fill="#fff" d="m-3.596 4.686 30.91-8.282 8.282 30.91-30.91 8.282z"/></clipPath><filter id="zany-face_svg__n" width="5.011" height="6.178" x="19.318" y="20.821" color-interpolation-filters="sRGB" filterUnits="userSpaceOnUse"><feFlood flood-opacity="0" result="BackgroundImageFix"/><feBlend in="SourceGraphic" in2="BackgroundImageFix" result="shape"/><feGaussianBlur result="effect1_foregroundBlur_31_30" stdDeviation=".5"/></filter></defs></svg>