<svg width="32" height="32" fill="none" xmlns="http://www.w3.org/2000/svg"><path d="M4.293 18.123 9.1 19.33l-6.21 4.3 4.82 1.195" stroke="#92C7F8" stroke-width="1.8" stroke-linecap="round" stroke-linejoin="round"/><path d="M4.293 18.123 9.1 19.33l-6.21 4.3 4.82 1.195" stroke="url(#a)" stroke-width="1.8" stroke-linecap="round" stroke-linejoin="round"/><path d="m2.89 23.631 4.82 1.195" stroke="url(#b)" stroke-width="1.8" stroke-linecap="round" stroke-linejoin="round"/><g filter="url(#c)"><path d="m4.206 23.453 3.454.883" stroke="#9DD7FF" stroke-width=".5" stroke-linecap="round"/></g><path d="M4.502 17.242a.9.9 0 1 0-.438 1.746l2.91.731 2.213-1.3-4.685-1.177Z" fill="url(#d)"/><path d="M4.502 17.242a.9.9 0 1 0-.438 1.746l2.91.731 2.213-1.3-4.685-1.177Z" fill="url(#e)"/><path d="M9.612 20.07a.9.9 0 1 0-1.025-1.479l-5.89 4.079 2.34.57 4.575-3.17Z" fill="url(#f)"/><path d="M9.612 20.07a.9.9 0 1 0-1.025-1.479l-5.89 4.079 2.34.57 4.575-3.17Z" fill="url(#g)"/><g filter="url(#h)"><ellipse cx="9.473" cy="19.227" rx=".303" ry=".403" transform="rotate(-14.595 9.473 19.227)" fill="#9DD7FF"/></g><g filter="url(#i)"><ellipse cx="7.993" cy="24.913" rx=".398" ry=".531" transform="rotate(18.361 7.993 24.913)" fill="#9DD7FF" fill-opacity=".75"/></g><g filter="url(#j)"><path d="m5.085 17.902 3.84.95" stroke="#9DD7FF" stroke-width=".25" stroke-linecap="round"/></g><path d="M9.868 14.948h6.626l-6.626 7.626h6.626" stroke="#48D4FF" stroke-width="2.5" stroke-linecap="round" stroke-linejoin="round"/><path d="M9.868 14.948h6.626l-6.626 7.626h6.626" stroke="url(#k)" stroke-width="2.5" stroke-linecap="round" stroke-linejoin="round"/><path d="m8.924 21.754 4.823-5.55 1.085-1.212h1.296c.066.039 1.126-1.04 1.185-.988a1.25 1.25 0 0 1 .124 1.764l-4.824 5.552h-1L10.3 23.747a1.25 1.25 0 0 1-1.376-1.993Z" fill="url(#l)"/><path d="m8.924 21.754 4.823-5.55 1.085-1.212h1.296c.066.039 1.126-1.04 1.185-.988a1.25 1.25 0 0 1 .124 1.764l-4.824 5.552h-1L10.3 23.747a1.25 1.25 0 0 1-1.376-1.993Z" fill="url(#m)"/><path d="m16 13.698-2.255 2.5H9.959a1.25 1.25 0 0 1 0-2.5H16Z" fill="url(#n)"/><path d="M9.868 22.574h6.626" stroke="url(#o)" stroke-width="2.5" stroke-linecap="round" stroke-linejoin="round"/><path d="M9.868 22.574h6.626" stroke="url(#p)" stroke-width="2.5" stroke-linecap="round" stroke-linejoin="round"/><path d="M9.868 22.574h6.626" stroke="url(#q)" stroke-width="2.5" stroke-linecap="round" stroke-linejoin="round"/><g filter="url(#r)"><ellipse cx="17.12" cy="22.527" rx=".336" ry=".754" fill="#8AEAFF"/></g><g filter="url(#s)"><ellipse cx="16.914" cy="14.58" rx=".462" ry=".504" transform="rotate(-38.684 16.914 14.58)" fill="#8AEAFF"/></g><g filter="url(#t)"><path d="m12.253 21.367-.984.61" stroke="#8AEAFF" stroke-width=".25" stroke-linecap="round"/></g><path d="m16.57 8.08 9.068-2.156-6.522 12.42 9.016-2.131" stroke="#3999FF" stroke-width="3.4" stroke-linecap="round" stroke-linejoin="round"/><path d="m16.57 8.08 9.068-2.156-6.522 12.42 9.016-2.131" stroke="url(#u)" stroke-width="3.4" stroke-linecap="round" stroke-linejoin="round"/><path d="m16.57 8.08 9.068-2.156-6.522 12.42 9.016-2.131" stroke="url(#v)" stroke-width="3.4" stroke-linecap="round" stroke-linejoin="round"/><path d="M25.347 4.242 23.59 6.737l-1.203 1.708-5.423 1.29a1.7 1.7 0 0 1-.787-3.309l9.171-2.184Z" fill="url(#w)"/><path d="M25.347 4.242 23.59 6.737l-1.203 1.708-5.423 1.29a1.7 1.7 0 0 1-.787-3.309l9.171-2.184Z" fill="url(#x)"/><path d="m22.398 8.438-4.787 9.115a1.7 1.7 0 1 0 3.01 1.581l6.245-11.893-2.02.542-2.448.655Z" fill="url(#y)"/><path d="m22.398 8.438-4.787 9.115a1.7 1.7 0 1 0 3.01 1.581l6.245-11.893-2.02.542-2.448.655Z" fill="url(#z)"/><path d="M23.956 6.18 22.39 8.438l2.473-.649.593-.781-1.5-.828Z" fill="url(#A)"/><path fill-rule="evenodd" clip-rule="evenodd" d="M29.787 15.822a1.7 1.7 0 0 1-1.264 2.045l-9.016 2.13a1.7 1.7 0 0 1-.782-3.308l9.016-2.13a1.7 1.7 0 0 1 2.046 1.263Z" fill="url(#B)"/><path d="m19.766 19.937 2.558-4.098 5.417-1.28a1.7 1.7 0 0 1 .782 3.308l-8.757 2.07Z" fill="url(#C)"/><path d="m19.766 19.937 2.558-4.098 5.417-1.28a1.7 1.7 0 0 1 .782 3.308l-8.757 2.07Z" fill="url(#D)"/><g filter="url(#E)"><ellipse cx="28.639" cy="16" rx=".681" ry=".875" transform="rotate(-15.293 28.64 16)" fill="#5CB8FF"/></g><g filter="url(#F)"><ellipse cx="25.978" cy="5.515" rx=".533" ry=".684" transform="rotate(-38.992 25.978 5.515)" fill="#5CB8FF"/></g><g filter="url(#G)"><path d="m21.94 16.43-1.234 2" stroke="url(#H)" stroke-width=".25" stroke-linecap="round"/></g><defs><linearGradient id="b" x1="5.007" y1="25.208" x2="5.3" y2="23.631" gradientUnits="userSpaceOnUse"><stop stop-color="#8188FF"/><stop offset="1" stop-color="#92C7F8" stop-opacity="0"/></linearGradient><linearGradient id="d" x1="6.285" y1="19.508" x2="6.746" y2="17.854" gradientUnits="userSpaceOnUse"><stop stop-color="#8188FF"/><stop offset="1" stop-color="#92C7F8" stop-opacity="0"/></linearGradient><linearGradient id="e" x1="2.802" y1="17.945" x2="4.534" y2="18.36" gradientUnits="userSpaceOnUse"><stop stop-color="#6B93BA"/><stop offset="1" stop-color="#6B93BA" stop-opacity="0"/></linearGradient><linearGradient id="f" x1="8.035" y1="21.648" x2="6.956" y2="20.256" gradientUnits="userSpaceOnUse"><stop stop-color="#8188FF"/><stop offset="1" stop-color="#92C7F8" stop-opacity="0"/></linearGradient><linearGradient id="g" x1="4.113" y1="20.43" x2="5.019" y2="21.57" gradientUnits="userSpaceOnUse"><stop stop-color="#6B93BA"/><stop offset="1" stop-color="#6B93BA" stop-opacity="0"/></linearGradient><linearGradient id="l" x1="10.628" y1="19.102" x2="11.613" y2="19.945" gradientUnits="userSpaceOnUse"><stop stop-color="#2580EE"/><stop offset="1" stop-color="#4B9DFF" stop-opacity="0"/></linearGradient><linearGradient id="m" x1="13.738" y1="21.727" x2="11.957" y2="20.258" gradientUnits="userSpaceOnUse"><stop stop-color="#4B9DFF"/><stop offset=".705" stop-color="#4B9DFF" stop-opacity="0"/></linearGradient><linearGradient id="n" x1="11.925" y1="16.695" x2="11.925" y2="14.948" gradientUnits="userSpaceOnUse"><stop stop-color="#348FFD"/><stop offset=".966" stop-color="#4B9DFF" stop-opacity="0"/></linearGradient><linearGradient id="q" x1="13.181" y1="24.211" x2="13.181" y2="22.305" gradientUnits="userSpaceOnUse"><stop offset=".063" stop-color="#3A92FB"/><stop offset="1" stop-color="#4B9DFF" stop-opacity="0"/></linearGradient><linearGradient id="w" x1="21.488" y1="9.32" x2="20.925" y2="7.002" gradientUnits="userSpaceOnUse"><stop stop-color="#2A56D1"/><stop offset="1" stop-color="#4374FF" stop-opacity="0"/></linearGradient><linearGradient id="x" x1="20.238" y1="4.695" x2="20.644" y2="6.258" gradientUnits="userSpaceOnUse"><stop stop-color="#4297C4"/><stop offset="1" stop-color="#4297C4" stop-opacity="0"/></linearGradient><linearGradient id="y" x1="21.206" y1="10.508" x2="23.186" y2="11.415" gradientUnits="userSpaceOnUse"><stop stop-color="#2E64FD"/><stop offset="1" stop-color="#4374FF" stop-opacity="0"/></linearGradient><linearGradient id="z" x1="20.363" y1="9.227" x2="22.033" y2="10.011" gradientUnits="userSpaceOnUse"><stop stop-color="#1E56A9"/><stop offset="1" stop-color="#2F6AC0" stop-opacity="0"/></linearGradient><linearGradient id="A" x1="22.081" y1="8.68" x2="24.693" y2="8.226" gradientUnits="userSpaceOnUse"><stop stop-color="#1F56F1"/><stop offset="1" stop-color="#4374FF" stop-opacity="0"/></linearGradient><linearGradient id="B" x1="24.675" y1="19.445" x2="24.113" y2="16.57" gradientUnits="userSpaceOnUse"><stop offset=".053" stop-color="#2C5FED"/><stop offset="1" stop-color="#4374FF" stop-opacity="0"/></linearGradient><linearGradient id="C" x1="24.799" y1="14.512" x2="25.081" y2="17.225" gradientUnits="userSpaceOnUse"><stop stop-color="#3D82B9"/><stop offset="1" stop-color="#458FCA" stop-opacity="0"/></linearGradient><linearGradient id="D" x1="31.238" y1="15.976" x2="28.863" y2="16.82" gradientUnits="userSpaceOnUse"><stop stop-color="#5CB8FF"/><stop offset="1" stop-color="#5CB8FF" stop-opacity="0"/></linearGradient><linearGradient id="H" x1="22.175" y1="16.603" x2="21.324" y2="18.431" gradientUnits="userSpaceOnUse"><stop stop-color="#5CB8FF"/><stop offset="1" stop-color="#5CB8FF" stop-opacity="0"/></linearGradient><filter id="c" x="3.206" y="22.453" width="5.453" height="2.883" filterUnits="userSpaceOnUse" color-interpolation-filters="sRGB"><feFlood flood-opacity="0" result="BackgroundImageFix"/><feBlend in="SourceGraphic" in2="BackgroundImageFix" result="shape"/><feGaussianBlur stdDeviation=".375" result="effect1_foregroundBlur_7169_6168"/></filter><filter id="h" x="8.763" y="18.43" width="1.421" height="1.596" filterUnits="userSpaceOnUse" color-interpolation-filters="sRGB"><feFlood flood-opacity="0" result="BackgroundImageFix"/><feBlend in="SourceGraphic" in2="BackgroundImageFix" result="shape"/><feGaussianBlur stdDeviation=".2" result="effect1_foregroundBlur_7169_6168"/></filter><filter id="i" x="7.179" y="23.993" width="1.627" height="1.84" filterUnits="userSpaceOnUse" color-interpolation-filters="sRGB"><feFlood flood-opacity="0" result="BackgroundImageFix"/><feBlend in="SourceGraphic" in2="BackgroundImageFix" result="shape"/><feGaussianBlur stdDeviation=".2" result="effect1_foregroundBlur_7169_6168"/></filter><filter id="j" x="4.21" y="17.027" width="5.59" height="2.699" filterUnits="userSpaceOnUse" color-interpolation-filters="sRGB"><feFlood flood-opacity="0" result="BackgroundImageFix"/><feBlend in="SourceGraphic" in2="BackgroundImageFix" result="shape"/><feGaussianBlur stdDeviation=".375" result="effect1_foregroundBlur_7169_6168"/></filter><filter id="r" x="16.285" y="21.273" width="1.672" height="2.508" filterUnits="userSpaceOnUse" color-interpolation-filters="sRGB"><feFlood flood-opacity="0" result="BackgroundImageFix"/><feBlend in="SourceGraphic" in2="BackgroundImageFix" result="shape"/><feGaussianBlur stdDeviation=".25" result="effect1_foregroundBlur_7169_6168"/></filter><filter id="s" x="15.685" y="13.342" width="2.458" height="2.476" filterUnits="userSpaceOnUse" color-interpolation-filters="sRGB"><feFlood flood-opacity="0" result="BackgroundImageFix"/><feBlend in="SourceGraphic" in2="BackgroundImageFix" result="shape"/><feGaussianBlur stdDeviation=".375" result="effect1_foregroundBlur_7169_6168"/></filter><filter id="t" x="10.644" y="20.742" width="2.234" height="1.859" filterUnits="userSpaceOnUse" color-interpolation-filters="sRGB"><feFlood flood-opacity="0" result="BackgroundImageFix"/><feBlend in="SourceGraphic" in2="BackgroundImageFix" result="shape"/><feGaussianBlur stdDeviation=".25" result="effect1_foregroundBlur_7169_6168"/></filter><filter id="E" x="26.942" y="14.137" width="3.394" height="3.726" filterUnits="userSpaceOnUse" color-interpolation-filters="sRGB"><feFlood flood-opacity="0" result="BackgroundImageFix"/><feBlend in="SourceGraphic" in2="BackgroundImageFix" result="shape"/><feGaussianBlur stdDeviation=".5" result="effect1_foregroundBlur_7169_6168"/></filter><filter id="F" x="24.381" y="3.886" width="3.195" height="3.258" filterUnits="userSpaceOnUse" color-interpolation-filters="sRGB"><feFlood flood-opacity="0" result="BackgroundImageFix"/><feBlend in="SourceGraphic" in2="BackgroundImageFix" result="shape"/><feGaussianBlur stdDeviation=".5" result="effect1_foregroundBlur_7169_6168"/></filter><filter id="G" x="20.331" y="16.056" width="1.984" height="2.75" filterUnits="userSpaceOnUse" color-interpolation-filters="sRGB"><feFlood flood-opacity="0" result="BackgroundImageFix"/><feBlend in="SourceGraphic" in2="BackgroundImageFix" result="shape"/><feGaussianBlur stdDeviation=".125" result="effect1_foregroundBlur_7169_6168"/></filter><radialGradient id="a" cx="0" cy="0" r="1" gradientUnits="userSpaceOnUse" gradientTransform="matrix(2.25 -.28125 .26054 2.0843 1.956 24.164)"><stop stop-color="#6B93BA"/><stop offset="1" stop-color="#6B93BA" stop-opacity="0"/></radialGradient><radialGradient id="k" cx="0" cy="0" r="1" gradientUnits="userSpaceOnUse" gradientTransform="matrix(2.40625 0 0 2.1136 7.988 14.948)"><stop stop-color="#3995D2"/><stop offset="1" stop-color="#3995D2" stop-opacity="0"/></radialGradient><radialGradient id="o" cx="0" cy="0" r="1" gradientUnits="userSpaceOnUse" gradientTransform="matrix(1.59375 -2.28125 15.11488 10.55971 9.144 24.195)"><stop stop-color="#4B9DFF"/><stop offset="1" stop-color="#4B9DFF" stop-opacity="0"/></radialGradient><radialGradient id="p" cx="0" cy="0" r="1" gradientUnits="userSpaceOnUse" gradientTransform="matrix(-6.25 0 0 -41.4107 19.738 22.574)"><stop stop-color="#85E6FF"/><stop offset="1" stop-color="#99EAFF" stop-opacity="0"/></radialGradient><radialGradient id="u" cx="0" cy="0" r="1" gradientUnits="userSpaceOnUse" gradientTransform="matrix(4.5 -.125 .18074 6.50649 13.863 9.258)"><stop stop-color="#2F6FC8"/><stop offset="1" stop-color="#2F6FC8" stop-opacity="0"/></radialGradient><radialGradient id="v" cx="0" cy="0" r="1" gradientUnits="userSpaceOnUse" gradientTransform="matrix(-2.1875 1.84375 -1.71646 -2.03648 27.8 5.07)"><stop stop-color="#5CB8FF"/><stop offset="1" stop-color="#5CB8FF" stop-opacity="0"/></radialGradient></defs></svg>