<svg xmlns="http://www.w3.org/2000/svg" fill="none" viewBox="0 0 32 32"><g stroke-linecap="round" stroke-width="2.2" filter="url(#fe-dna-a)"><path stroke="url(#fe-dna-b)" d="M21.649 3.203c-.828.693-2.344 2.453-2.196 4.867.134 2.178.781 3.36.875 3.703"/><path stroke="url(#fe-dna-c)" d="M21.649 3.203c-.828.693-2.344 2.453-2.196 4.867.134 2.178.781 3.36.875 3.703"/></g><g stroke-linecap="round" stroke-width=".6" filter="url(#fe-dna-d)"><path stroke="url(#fe-dna-e)" d="M22.078 2.969c-.828.692-2.57 2.687-2.42 5.101.133 2.178.78 3.36.874 3.703"/><path stroke="url(#fe-dna-f)" d="M22.078 2.969c-.828.692-2.57 2.687-2.42 5.101.133 2.178.78 3.36.874 3.703"/></g><g stroke-linecap="round" stroke-width="2.2" filter="url(#fe-dna-g)"><path stroke="#3ab3ff" d="M10.584 28.867c.828-.693 2.344-2.453 2.195-4.867-.133-2.177-.78-3.36-.875-3.703"/><path stroke="url(#fe-dna-h)" d="M10.584 28.867c.828-.693 2.344-2.453 2.195-4.867-.133-2.177-.78-3.36-.875-3.703"/></g><g filter="url(#fe-dna-i)"><path stroke="url(#fe-dna-j)" stroke-linecap="round" stroke-width=".6" d="M10.794 28.867c.828-.693 2.344-2.453 2.196-4.867-.134-2.177-.781-3.36-.875-3.703"/></g><path fill="url(#fe-dna-k)" d="M21.696 4.71c.33-.607.89-.937.89-.937l2.785 2.777a.15.15 0 0 1 0 .213l-.706.705a.15.15 0 0 1-.212 0z"/><path fill="url(#fe-dna-l)" d="M21.696 4.71c.33-.607.89-.937.89-.937l2.785 2.777a.15.15 0 0 1 0 .213l-.706.705a.15.15 0 0 1-.212 0z"/><path fill="#53b6ff" d="M15.131 11.17c.33-.607.918-.917.918-.917l2.837 2.836a.15.15 0 0 1 0 .213l-.706.705a.15.15 0 0 1-.212 0z"/><path fill="url(#fe-dna-m)" d="M15.131 11.17c.33-.607.918-.917.918-.917l2.837 2.836a.15.15 0 0 1 0 .213l-.706.705a.15.15 0 0 1-.212 0z"/><path fill="url(#fe-dna-n)" d="M15.131 11.17c.33-.607.918-.917.918-.917l2.837 2.836a.15.15 0 0 1 0 .213l-.706.705a.15.15 0 0 1-.212 0z"/><path fill="url(#fe-dna-o)" d="M13 13.28c.33-.608.918-.918.918-.918l2.837 2.837a.15.15 0 0 1 0 .212l-.706.706a.15.15 0 0 1-.212 0z"/><path fill="url(#fe-dna-p)" d="M10.773 15.436c.33-.608.918-.918.918-.918l2.837 2.837a.15.15 0 0 1 0 .212l-.706.706a.15.15 0 0 1-.212 0z"/><path fill="url(#fe-dna-q)" d="M6.254 20.445c.875-.441 1.516-.308 1.516-.308L9.8 22.149a.15.15 0 0 1 0 .212l-.705.706a.15.15 0 0 1-.212 0z"/><path fill="url(#fe-dna-r)" d="M3.89 22.37c.33-.608.806-1.016.806-1.016l2.95 2.935a.15.15 0 0 1 0 .212l-.707.706a.15.15 0 0 1-.212 0z"/><path fill="url(#fe-dna-s)" d="M20.508 7.805c-.039-.735.265-1.469.265-1.469l2.384 2.383a.15.15 0 0 1 0 .213l-.706.705a.15.15 0 0 1-.212 0z"/><path fill="url(#fe-dna-t)" d="M28.42 9.6s-.316.68-.9.931l-2.855-2.85a.15.15 0 0 1 0-.213l.706-.706a.15.15 0 0 1 .212 0z"/><path fill="url(#fe-dna-u)" d="M28.42 9.6s-.316.68-.9.931l-2.855-2.85a.15.15 0 0 1 0-.213l.706-.706a.15.15 0 0 1 .212 0z"/><path fill="url(#fe-dna-v)" d="M28.42 9.6s-.316.68-.9.931l-2.855-2.85a.15.15 0 0 1 0-.213l.706-.706a.15.15 0 0 1 .212 0z"/><path fill="url(#fe-dna-w)" d="M20.453 14.719s.36 1.023-.27 1.543l-2.005-2.042a.15.15 0 0 1 0-.212l.705-.704a.15.15 0 0 1 .214.002z"/><path fill="url(#fe-dna-x)" d="M20.453 14.719s.36 1.023-.27 1.543l-2.005-2.042a.15.15 0 0 1 0-.212l.705-.704a.15.15 0 0 1 .214.002z"/><path fill="url(#fe-dna-y)" d="M17.509 20.336s-.07.586-.7 1.105l-2.991-2.968a.15.15 0 0 1 0-.213l.705-.705a.15.15 0 0 1 .212 0z"/><path fill="url(#fe-dna-z)" d="M17.509 20.336s-.07.586-.7 1.105l-2.991-2.968a.15.15 0 0 1 0-.213l.705-.705a.15.15 0 0 1 .212 0z"/><path fill="url(#fe-dna-A)" d="M19.735 18.18s-.07.585-.699 1.105l-2.991-2.968a.15.15 0 0 1-.001-.213l.705-.705a.15.15 0 0 1 .212 0z"/><path fill="url(#fe-dna-B)" d="M19.735 18.18s-.07.585-.699 1.105l-2.991-2.968a.15.15 0 0 1-.001-.213l.705-.705a.15.15 0 0 1 .212 0z"/><path fill="url(#fe-dna-C)" d="M11.679 24.07s.117.852-.203 1.594l-2.382-2.383a.15.15 0 0 1 0-.212l.706-.706a.15.15 0 0 1 .212 0z"/><path fill="url(#fe-dna-D)" d="M11.679 24.07s.117.852-.203 1.594l-2.382-2.383a.15.15 0 0 1 0-.212l.706-.706a.15.15 0 0 1 .212 0z"/><path fill="url(#fe-dna-E)" d="M10.626 27.27s-.257.4-.885.92l-2.806-2.772a.15.15 0 0 1 0-.213l.705-.705a.15.15 0 0 1 .212 0z"/><path fill="url(#fe-dna-F)" d="M10.626 27.27s-.257.4-.885.92l-2.806-2.772a.15.15 0 0 1 0-.213l.705-.705a.15.15 0 0 1 .212 0z"/><path fill="url(#fe-dna-G)" d="M25.9 11.463s-.357.375-1.46.375l-1.992-1.99a.15.15 0 0 1 0-.212l.706-.706a.15.15 0 0 1 .212 0z"/><path fill="url(#fe-dna-H)" d="M25.9 11.463s-.357.375-1.46.375l-1.992-1.99a.15.15 0 0 1 0-.212l.706-.706a.15.15 0 0 1 .212 0z"/><path fill="url(#fe-dna-I)" d="M25.9 11.463s-.357.375-1.46.375l-1.992-1.99a.15.15 0 0 1 0-.212l.706-.706a.15.15 0 0 1 .212 0z"/><g stroke-linecap="round" stroke-width="2.2" filter="url(#fe-dna-J)"><path stroke="url(#fe-dna-K)" d="M3.151 21.555c.727-.907 2.55-2.614 5.258-2.461 3.741.21 6.946 3.34 10.531 1.164 3.257-1.977 2.513-6.18 1.529-8.227"/><path stroke="url(#fe-dna-L)" d="M3.151 21.555c.727-.907 2.55-2.614 5.258-2.461 3.741.21 6.946 3.34 10.531 1.164 3.257-1.977 2.513-6.18 1.529-8.227"/></g><g filter="url(#fe-dna-M)"><path stroke="url(#fe-dna-N)" stroke-linecap="round" stroke-width=".65" d="M3.491 21.614c.727-.906 2.55-2.613 5.258-2.46 3.741.21 6.946 3.34 10.531 1.163 3.257-1.976 2.513-6.18 1.529-8.226"/></g><g filter="url(#fe-dna-O)"><path fill="url(#fe-dna-P)" d="M29.967 11.141a1.1 1.1 0 1 0-1.717-1.376c-.633.79-2.15 2.174-4.337 2.05-.73-.04-1.475-.26-2.297-.574-.345-.131-.686-.274-1.044-.422l-.21-.087c-.427-.177-.876-.36-1.333-.521-.912-.322-1.922-.58-3.005-.54-1.106.04-2.22.39-3.339 1.18-1.816 1.283-2.534 3.228-2.68 5.032a9.8 9.8 0 0 0 .102 2.355c.473.11.928.245 1.364.387.364.12.725.248 1.073.372a7.8 7.8 0 0 1-.346-2.936c.111-1.376.631-2.618 1.756-3.412.784-.554 1.488-.756 2.151-.78.687-.026 1.397.136 2.193.417.396.14.798.302 1.222.478l.2.084c.358.148.733.304 1.11.448.895.343 1.89.656 2.959.716 3.227.182 5.357-1.848 6.178-2.87"/></g><g stroke-linecap="round" stroke-width=".6" filter="url(#fe-dna-Q)"><path stroke="url(#fe-dna-R)" d="M29.305 10.253c-.726.906-2.55 2.613-5.257 2.46-3.598-.202-6.726-3.851-10.532-1.164-2.217 1.567-2.499 4.396-2.08 6.57"/><path stroke="url(#fe-dna-S)" d="M29.305 10.253c-.726.906-2.55 2.613-5.257 2.46-3.598-.202-6.726-3.851-10.532-1.164-2.217 1.567-2.499 4.396-2.08 6.57"/></g><defs><linearGradient id="fe-dna-b" x1="21.649" x2="20.546" y1="3.063" y2="11.773" gradientUnits="userSpaceOnUse"><stop stop-color="#e32c5b"/><stop offset="1" stop-color="#d31f63"/></linearGradient><linearGradient id="fe-dna-e" x1="19.647" x2="19.25" y1="10.75" y2="6.438" gradientUnits="userSpaceOnUse"><stop stop-color="#fd577a"/><stop offset="1" stop-color="#fd577a" stop-opacity="0"/></linearGradient><linearGradient id="fe-dna-f" x1="22.313" x2="20.938" y1="2.719" y2="4.063" gradientUnits="userSpaceOnUse"><stop offset=".294" stop-color="#fd577a"/><stop offset="1" stop-color="#fd577a" stop-opacity="0"/></linearGradient><linearGradient id="fe-dna-k" x1="24.407" x2="23.375" y1="5.469" y2="6.5" gradientUnits="userSpaceOnUse"><stop stop-color="#f72d60"/><stop offset=".341" stop-color="#f1476d"/><stop offset=".907" stop-color="#a11c56"/></linearGradient><linearGradient id="fe-dna-m" x1="16.813" x2="17.532" y1="13" y2="12.281" gradientUnits="userSpaceOnUse"><stop offset=".054" stop-color="#4c6de8"/><stop offset="1" stop-color="#4c6de8" stop-opacity="0"/></linearGradient><linearGradient id="fe-dna-n" x1="18.516" x2="18.047" y1="12.25" y2="12.891" gradientUnits="userSpaceOnUse"><stop offset=".139" stop-color="#1c5fe3"/><stop offset="1" stop-color="#1c5fe3" stop-opacity="0"/></linearGradient><linearGradient id="fe-dna-o" x1="16.032" x2="15" y1="14.261" y2="15.266" gradientUnits="userSpaceOnUse"><stop stop-color="#34a9ff"/><stop offset=".366" stop-color="#60ceff"/><stop offset="1" stop-color="#4172e9"/></linearGradient><linearGradient id="fe-dna-p" x1="13.805" x2="12.774" y1="16.418" y2="17.422" gradientUnits="userSpaceOnUse"><stop stop-color="#34a9ff"/><stop offset=".366" stop-color="#60ceff"/><stop offset="1" stop-color="#4172e9"/></linearGradient><linearGradient id="fe-dna-q" x1="9.25" x2="8.158" y1="21.344" y2="22.512" gradientUnits="userSpaceOnUse"><stop stop-color="#c92a66"/><stop offset=".346" stop-color="#ff5590"/><stop offset=".849" stop-color="#d23d7e"/></linearGradient><linearGradient id="fe-dna-r" x1="6.857" x2="5.79" y1="23.419" y2="24.506" gradientUnits="userSpaceOnUse"><stop stop-color="#fd3377"/><stop offset=".362" stop-color="#ff5590"/><stop offset=".861" stop-color="#d23d7e"/></linearGradient><linearGradient id="fe-dna-s" x1="22.366" x2="21.446" y1="7.853" y2="8.704" gradientUnits="userSpaceOnUse"><stop stop-color="#f72d60"/><stop offset=".341" stop-color="#f1476d"/><stop offset=".907" stop-color="#a11c56"/></linearGradient><linearGradient id="fe-dna-t" x1="27.39" x2="26.342" y1="8.441" y2="9.494" gradientUnits="userSpaceOnUse"><stop stop-color="#53f1ff"/><stop offset=".341" stop-color="#67f2ff"/><stop offset=".907" stop-color="#42afff"/></linearGradient><linearGradient id="fe-dna-u" x1="26.621" x2="26.353" y1="9.246" y2="9.486" gradientUnits="userSpaceOnUse"><stop stop-color="#4bbfff" stop-opacity="0"/><stop offset="1" stop-color="#6491ce"/></linearGradient><linearGradient id="fe-dna-v" x1="25.18" x2="25.657" y1="6.469" y2="6.914" gradientUnits="userSpaceOnUse"><stop offset=".434" stop-color="#713490"/><stop offset="1" stop-color="#4fc5ff" stop-opacity="0"/></linearGradient><linearGradient id="fe-dna-w" x1="20.172" x2="19.227" y1="14.539" y2="15.375" gradientUnits="userSpaceOnUse"><stop stop-color="#eb2a67"/><stop offset=".346" stop-color="#f73e76"/><stop offset=".849" stop-color="#aa2760"/></linearGradient><linearGradient id="fe-dna-x" x1="18.532" x2="18.719" y1="13.563" y2="13.75" gradientUnits="userSpaceOnUse"><stop stop-color="#80215c"/><stop offset="1" stop-color="#80215c" stop-opacity="0"/></linearGradient><linearGradient id="fe-dna-y" x1="16.75" x2="15.547" y1="19.234" y2="20.406" gradientUnits="userSpaceOnUse"><stop stop-color="#eb2a67"/><stop offset=".346" stop-color="#f73e76"/><stop offset=".849" stop-color="#8f1c55"/></linearGradient><linearGradient id="fe-dna-z" x1="14.242" x2="14.414" y1="17.797" y2="17.969" gradientUnits="userSpaceOnUse"><stop stop-color="#80215c"/><stop offset="1" stop-color="#80215c" stop-opacity="0"/></linearGradient><linearGradient id="fe-dna-A" x1="18.977" x2="17.774" y1="17.078" y2="18.25" gradientUnits="userSpaceOnUse"><stop stop-color="#eb2a67"/><stop offset=".346" stop-color="#f73e76"/><stop offset=".849" stop-color="#aa2760"/></linearGradient><linearGradient id="fe-dna-B" x1="16.469" x2="16.641" y1="15.641" y2="15.813" gradientUnits="userSpaceOnUse"><stop stop-color="#80215c"/><stop offset="1" stop-color="#80215c" stop-opacity="0"/></linearGradient><linearGradient id="fe-dna-C" x1="10.952" x2="9.94" y1="23.488" y2="24.399" gradientUnits="userSpaceOnUse"><stop stop-color="#2ba2ff"/><stop offset=".399" stop-color="#51baff"/><stop offset="1" stop-color="#447aff"/></linearGradient><linearGradient id="fe-dna-D" x1="9.5" x2="9.821" y1="22.325" y2="22.648" gradientUnits="userSpaceOnUse"><stop offset=".46" stop-color="#713490"/><stop offset=".905" stop-color="#4b97ff" stop-opacity="0"/></linearGradient><linearGradient id="fe-dna-E" x1="9.329" x2="8.23" y1="25.724" y2="26.894" gradientUnits="userSpaceOnUse"><stop stop-color="#2ba2ff"/><stop offset=".399" stop-color="#51baff"/><stop offset="1" stop-color="#447aff"/></linearGradient><linearGradient id="fe-dna-F" x1="7.529" x2="7.797" y1="24.471" y2="24.734" gradientUnits="userSpaceOnUse"><stop offset=".268" stop-color="#713490"/><stop offset=".905" stop-color="#4b97ff" stop-opacity="0"/></linearGradient><linearGradient id="fe-dna-G" x1="24.875" x2="23.797" y1="10.141" y2="11.219" gradientUnits="userSpaceOnUse"><stop stop-color="#53f1ff"/><stop offset=".341" stop-color="#67f2ff"/><stop offset=".907" stop-color="#42afff"/></linearGradient><linearGradient id="fe-dna-H" x1="24.152" x2="23.825" y1="10.891" y2="11.308" gradientUnits="userSpaceOnUse"><stop stop-color="#4bbfff" stop-opacity="0"/><stop offset="1" stop-color="#6491ce"/></linearGradient><linearGradient id="fe-dna-I" x1="22.946" x2="23.352" y1="8.672" y2="9.063" gradientUnits="userSpaceOnUse"><stop offset=".46" stop-color="#713490"/><stop offset="1" stop-color="#4fc5ff" stop-opacity="0"/></linearGradient><linearGradient id="fe-dna-K" x1="3.151" x2="10.608" y1="21.711" y2="9.21" gradientUnits="userSpaceOnUse"><stop stop-color="#fa2e8b"/><stop offset="1" stop-color="#e91865"/></linearGradient><linearGradient id="fe-dna-P" x1="30" x2="19.125" y1="9.75" y2="19.375" gradientUnits="userSpaceOnUse"><stop offset=".505" stop-color="#4fd4ff"/><stop offset="1" stop-color="#3d97ff"/></linearGradient><linearGradient id="fe-dna-R" x1="29.885" x2="19.485" y1="9.712" y2="17.094" gradientUnits="userSpaceOnUse"><stop stop-color="#71f6ff"/><stop offset="1" stop-color="#71f6ff" stop-opacity="0"/></linearGradient><linearGradient id="fe-dna-S" x1="12.005" x2="12.595" y1="18.377" y2="13.85" gradientUnits="userSpaceOnUse"><stop stop-color="#56b5ff"/><stop offset="1" stop-color="#56b5ff" stop-opacity="0"/></linearGradient><filter id="fe-dna-a" width="4.656" height="10.771" x="18.343" y="2.103" color-interpolation-filters="sRGB" filterUnits="userSpaceOnUse"><feFlood flood-opacity="0" result="BackgroundImageFix"/><feBlend in="SourceGraphic" in2="BackgroundImageFix" result="shape"/><feColorMatrix in="SourceAlpha" result="hardAlpha" values="0 0 0 0 0 0 0 0 0 0 0 0 0 0 0 0 0 0 127 0"/><feOffset dx=".25"/><feGaussianBlur stdDeviation=".5"/><feComposite in2="hardAlpha" k2="-1" k3="1" operator="arithmetic"/><feColorMatrix values="0 0 0 0 0.584314 0 0 0 0 0.219608 0 0 0 0 0.317647 0 0 0 1 0"/><feBlend in2="shape" result="effect1_innerShadow_18_24963"/></filter><filter id="fe-dna-d" width="4.23" height="10.605" x="18.748" y="2.069" color-interpolation-filters="sRGB" filterUnits="userSpaceOnUse"><feFlood flood-opacity="0" result="BackgroundImageFix"/><feBlend in="SourceGraphic" in2="BackgroundImageFix" result="shape"/><feGaussianBlur result="effect1_foregroundBlur_18_24963" stdDeviation=".3"/></filter><filter id="fe-dna-g" width="5.156" height="10.771" x="9.484" y="19.197" color-interpolation-filters="sRGB" filterUnits="userSpaceOnUse"><feFlood flood-opacity="0" result="BackgroundImageFix"/><feBlend in="SourceGraphic" in2="BackgroundImageFix" result="shape"/><feColorMatrix in="SourceAlpha" result="hardAlpha" values="0 0 0 0 0 0 0 0 0 0 0 0 0 0 0 0 0 0 127 0"/><feOffset dx=".75"/><feGaussianBlur stdDeviation=".5"/><feComposite in2="hardAlpha" k2="-1" k3="1" operator="arithmetic"/><feColorMatrix values="0 0 0 0 0.180392 0 0 0 0 0.54902 0 0 0 0 1 0 0 0 1 0"/><feBlend in2="shape" result="effect1_innerShadow_18_24963"/><feColorMatrix in="SourceAlpha" result="hardAlpha" values="0 0 0 0 0 0 0 0 0 0 0 0 0 0 0 0 0 0 127 0"/><feOffset dx=".15"/><feGaussianBlur stdDeviation=".2"/><feComposite in2="hardAlpha" k2="-1" k3="1" operator="arithmetic"/><feColorMatrix values="0 0 0 0 0.254902 0 0 0 0 0.458824 0 0 0 0 0.831373 0 0 0 1 0"/><feBlend in2="effect1_innerShadow_18_24963" result="effect2_innerShadow_18_24963"/></filter><filter id="fe-dna-i" width="3.806" height="10.17" x="9.994" y="19.497" color-interpolation-filters="sRGB" filterUnits="userSpaceOnUse"><feFlood flood-opacity="0" result="BackgroundImageFix"/><feBlend in="SourceGraphic" in2="BackgroundImageFix" result="shape"/><feGaussianBlur result="effect1_foregroundBlur_18_24963" stdDeviation=".25"/></filter><filter id="fe-dna-J" width="20.608" height="11.724" x="2.051" y="10.931" color-interpolation-filters="sRGB" filterUnits="userSpaceOnUse"><feFlood flood-opacity="0" result="BackgroundImageFix"/><feBlend in="SourceGraphic" in2="BackgroundImageFix" result="shape"/><feColorMatrix in="SourceAlpha" result="hardAlpha" values="0 0 0 0 0 0 0 0 0 0 0 0 0 0 0 0 0 0 127 0"/><feOffset dx=".25"/><feGaussianBlur stdDeviation=".25"/><feComposite in2="hardAlpha" k2="-1" k3="1" operator="arithmetic"/><feColorMatrix values="0 0 0 0 0.67451 0 0 0 0 0.223529 0 0 0 0 0.317647 0 0 0 1 0"/><feBlend in2="shape" result="effect1_innerShadow_18_24963"/></filter><filter id="fe-dna-M" width="20.108" height="11.473" x="2.516" y="11.116" color-interpolation-filters="sRGB" filterUnits="userSpaceOnUse"><feFlood flood-opacity="0" result="BackgroundImageFix"/><feBlend in="SourceGraphic" in2="BackgroundImageFix" result="shape"/><feGaussianBlur result="effect1_foregroundBlur_18_24963" stdDeviation=".325"/></filter><filter id="fe-dna-O" width="20.433" height="9.894" x="9.975" y="9.103" color-interpolation-filters="sRGB" filterUnits="userSpaceOnUse"><feFlood flood-opacity="0" result="BackgroundImageFix"/><feBlend in="SourceGraphic" in2="BackgroundImageFix" result="shape"/><feColorMatrix in="SourceAlpha" result="hardAlpha" values="0 0 0 0 0 0 0 0 0 0 0 0 0 0 0 0 0 0 127 0"/><feOffset dx=".2" dy="-.25"/><feGaussianBlur stdDeviation=".375"/><feComposite in2="hardAlpha" k2="-1" k3="1" operator="arithmetic"/><feColorMatrix values="0 0 0 0 0.352941 0 0 0 0 0.419608 0 0 0 0 0.945098 0 0 0 1 0"/><feBlend in2="shape" result="effect1_innerShadow_18_24963"/></filter><filter id="fe-dna-Q" width="19.833" height="9.667" x="10.373" y="9.353" color-interpolation-filters="sRGB" filterUnits="userSpaceOnUse"><feFlood flood-opacity="0" result="BackgroundImageFix"/><feBlend in="SourceGraphic" in2="BackgroundImageFix" result="shape"/><feGaussianBlur result="effect1_foregroundBlur_18_24963" stdDeviation=".3"/></filter><radialGradient id="fe-dna-c" cx="0" cy="0" r="1" gradientTransform="rotate(240.255 13.385 .102)scale(4.59801 1.61374)" gradientUnits="userSpaceOnUse"><stop offset=".232" stop-color="#953853"/><stop offset="1" stop-color="#da2562" stop-opacity="0"/></radialGradient><radialGradient id="fe-dna-h" cx="0" cy="0" r="1" gradientTransform="rotate(31.89 -30.568 31.318)scale(3.79672 1.53097)" gradientUnits="userSpaceOnUse"><stop offset=".205" stop-color="#2248c9"/><stop offset="1" stop-color="#3196ff" stop-opacity="0"/></radialGradient><radialGradient id="fe-dna-j" cx="0" cy="0" r="1" gradientTransform="rotate(184.021 7.314 12.05)scale(5.17053 4.54651)" gradientUnits="userSpaceOnUse"><stop offset=".146" stop-color="#63cbff"/><stop offset="1" stop-color="#63cbff" stop-opacity="0"/></radialGradient><radialGradient id="fe-dna-l" cx="0" cy="0" r="1" gradientTransform="rotate(137.911 10.579 6.236)scale(.97906 .14025)" gradientUnits="userSpaceOnUse"><stop stop-color="#f84770"/><stop offset="1" stop-color="#f84770" stop-opacity="0"/></radialGradient><radialGradient id="fe-dna-L" cx="0" cy="0" r="1" gradientTransform="rotate(32.62 -11.773 42.975)scale(8.4637 2.54717)" gradientUnits="userSpaceOnUse"><stop offset=".259" stop-color="#953853"/><stop offset="1" stop-color="#da2562" stop-opacity="0"/></radialGradient><radialGradient id="fe-dna-N" cx="0" cy="0" r="1" gradientTransform="rotate(200.909 12.629 7.783)scale(14.4478 5.96581)" gradientUnits="userSpaceOnUse"><stop offset=".14" stop-color="#fb527b"/><stop offset="1" stop-color="#fb527b" stop-opacity="0"/></radialGradient></defs></svg>