<svg xmlns="http://www.w3.org/2000/svg" fill="none" viewBox="0 0 32 32"><path fill="url(#fe-magic-wand-a)" d="M4.64 29.423a1.414 1.414 0 0 1-2.005-1.995l17.287-17.37a1.414 1.414 0 1 1 2.005 1.995z"/><path fill="url(#fe-magic-wand-b)" d="M4.64 29.423a1.414 1.414 0 0 1-2.005-1.995l17.287-17.37a1.414 1.414 0 1 1 2.005 1.995z"/><g filter="url(#fe-magic-wand-c)"><path fill="url(#fe-magic-wand-d)" fill-rule="evenodd" d="M25.52 7.74a.99.99 0 0 0-.73-.753 7.4 7.4 0 0 1-1.348-.515.535.535 0 0 1 0-.97 7.4 7.4 0 0 1 1.348-.514.99.99 0 0 0 .73-.753c.112-.557.294-1.245.57-1.917a.476.476 0 0 1 .898 0c.276.672.458 1.36.569 1.917a1 1 0 0 0 .73.753c.407.107.847.273 1.342.514.41.2.41.77 0 .97a7.3 7.3 0 0 1-1.342.515 1 1 0 0 0-.73.752 10.6 10.6 0 0 1-.57 1.918.476.476 0 0 1-.897 0 10.7 10.7 0 0 1-.57-1.918" clip-rule="evenodd"/></g><g filter="url(#fe-magic-wand-e)"><path fill="url(#fe-magic-wand-f)" fill-rule="evenodd" d="M14.262 7.297a.74.74 0 0 0-.547-.563 5.5 5.5 0 0 1-1.007-.384.4.4 0 0 1 0-.725c.371-.18.702-.305 1.007-.385a.74.74 0 0 0 .547-.562c.082-.417.219-.93.425-1.434a.356.356 0 0 1 .671 0c.206.503.342 1.017.425 1.434a.74.74 0 0 0 .546.562c.305.08.633.204 1.003.385a.4.4 0 0 1 0 .725c-.37.18-.698.304-1.003.384a.74.74 0 0 0-.546.563c-.083.417-.219.93-.425 1.433a.356.356 0 0 1-.671 0 8 8 0 0 1-.425-1.433" clip-rule="evenodd"/></g><g filter="url(#fe-magic-wand-g)"><path fill="url(#fe-magic-wand-h)" fill-rule="evenodd" d="M23.824 18.266a.74.74 0 0 0-.546-.563 5.5 5.5 0 0 1-1.008-.385.4.4 0 0 1 0-.724c.372-.18.702-.305 1.008-.385a.74.74 0 0 0 .546-.563c.083-.416.22-.93.425-1.433a.356.356 0 0 1 .672 0c.206.503.342 1.017.425 1.433a.74.74 0 0 0 .546.563c.304.08.632.204 1.002.384a.4.4 0 0 1 0 .726c-.37.18-.698.304-1.002.384a.74.74 0 0 0-.546.563c-.083.417-.22.93-.425 1.433a.356.356 0 0 1-.672 0 8 8 0 0 1-.425-1.433" clip-rule="evenodd"/></g><circle cx="28.758" cy="12.951" r="1.242" fill="url(#fe-magic-wand-i)"/><circle cx="28.758" cy="12.951" r="1.242" fill="url(#fe-magic-wand-j)"/><circle cx="19.023" cy="21.123" r="1.242" fill="url(#fe-magic-wand-k)"/><circle cx="19.023" cy="21.123" r="1.242" fill="url(#fe-magic-wand-l)"/><circle cx="12.053" cy="13.162" r="1.193" fill="url(#fe-magic-wand-m)"/><circle cx="12.053" cy="13.162" r="1.193" fill="url(#fe-magic-wand-n)"/><circle cx="19.043" cy="3.007" r=".996" fill="url(#fe-magic-wand-o)"/><circle cx="19.043" cy="3.007" r=".996" fill="url(#fe-magic-wand-p)"/><g filter="url(#fe-magic-wand-q)"><path stroke="url(#fe-magic-wand-r)" stroke-width=".5" d="M19.328 12.24 4.172 27.46"/></g><path fill="#cfc9d8" d="m18.2 11.789 1.722-1.731a1.414 1.414 0 1 1 2.005 1.995l-1.714 1.722z"/><path fill="url(#fe-magic-wand-s)" d="m18.2 11.789 1.722-1.731a1.414 1.414 0 1 1 2.005 1.995l-1.714 1.722z"/><path fill="url(#fe-magic-wand-t)" d="m18.2 11.789 1.722-1.731a1.414 1.414 0 1 1 2.005 1.995l-1.714 1.722z"/><path fill="url(#fe-magic-wand-u)" d="m18.2 11.789 1.722-1.731a1.414 1.414 0 1 1 2.005 1.995l-1.714 1.722z"/><g filter="url(#fe-magic-wand-v)"><path fill="#cfc6dd" d="M2.638 29.425c.553.553 1.45.552 2.003-.002l1.69-1.698-2.007-1.994-1.688 1.697a1.414 1.414 0 0 0 .002 1.997"/><path fill="url(#fe-magic-wand-w)" d="M2.638 29.425c.553.553 1.45.552 2.003-.002l1.69-1.698-2.007-1.994-1.688 1.697a1.414 1.414 0 0 0 .002 1.997"/></g><path fill="url(#fe-magic-wand-x)" d="M2.638 29.425c.553.553 1.45.552 2.003-.002l1.69-1.698-2.007-1.994-1.688 1.697a1.414 1.414 0 0 0 .002 1.997"/><path fill="url(#fe-magic-wand-y)" d="M2.638 29.425c.553.553 1.45.552 2.003-.002l1.69-1.698-2.007-1.994-1.688 1.697a1.414 1.414 0 0 0 .002 1.997"/><defs><radialGradient id="fe-magic-wand-i" cx="0" cy="0" r="1" gradientTransform="rotate(127.823 11.603 13.407)scale(1.87474 1.75343)" gradientUnits="userSpaceOnUse"><stop stop-color="#ffd463"/><stop offset="1" stop-color="#e68f2b"/></radialGradient><radialGradient id="fe-magic-wand-j" cx="0" cy="0" r="1" gradientTransform="matrix(0 2.06202 -1.79752 0 28.758 12.131)" gradientUnits="userSpaceOnUse"><stop offset=".797" stop-color="#e37a42" stop-opacity="0"/><stop offset="1" stop-color="#e37a42"/></radialGradient><radialGradient id="fe-magic-wand-k" cx="0" cy="0" r="1" gradientTransform="rotate(127.823 4.735 15.11)scale(1.87474 1.75343)" gradientUnits="userSpaceOnUse"><stop stop-color="#ffd463"/><stop offset="1" stop-color="#e68f2b"/></radialGradient><radialGradient id="fe-magic-wand-l" cx="0" cy="0" r="1" gradientTransform="matrix(0 2.06202 -1.79752 0 19.023 20.303)" gradientUnits="userSpaceOnUse"><stop offset=".797" stop-color="#e37a42" stop-opacity="0"/><stop offset="1" stop-color="#e37a42"/></radialGradient><radialGradient id="fe-magic-wand-m" cx="0" cy="0" r="1" gradientTransform="rotate(127.823 3.183 9.427)scale(1.80105 1.68451)" gradientUnits="userSpaceOnUse"><stop stop-color="#ffd463"/><stop offset="1" stop-color="#e68f2b"/></radialGradient><radialGradient id="fe-magic-wand-n" cx="0" cy="0" r="1" gradientTransform="matrix(0 1.98096 -1.72686 0 12.053 12.374)" gradientUnits="userSpaceOnUse"><stop offset=".797" stop-color="#e37a42" stop-opacity="0"/><stop offset="1" stop-color="#e37a42"/></radialGradient><radialGradient id="fe-magic-wand-o" cx="0" cy="0" r="1" gradientTransform="rotate(127.823 9.102 6.078)scale(1.50333 1.40606)" gradientUnits="userSpaceOnUse"><stop stop-color="#ffd463"/><stop offset="1" stop-color="#e68f2b"/></radialGradient><radialGradient id="fe-magic-wand-p" cx="0" cy="0" r="1" gradientTransform="matrix(0 1.6535 -1.44141 0 19.043 2.35)" gradientUnits="userSpaceOnUse"><stop offset=".869" stop-color="#e37a42" stop-opacity="0"/><stop offset="1" stop-color="#e37a42"/></radialGradient><radialGradient id="fe-magic-wand-u" cx="0" cy="0" r="1" gradientTransform="rotate(133.939 8.748 9.69)scale(1.19345 1.44186)" gradientUnits="userSpaceOnUse"><stop offset=".21" stop-color="#ece8f2"/><stop offset="1" stop-color="#ece8f2" stop-opacity="0"/></radialGradient><radialGradient id="fe-magic-wand-y" cx="0" cy="0" r="1" gradientTransform="rotate(98.473 -9.024 14.792)scale(4.8498 4.95098)" gradientUnits="userSpaceOnUse"><stop offset=".661" stop-color="#8f6eaf" stop-opacity="0"/><stop offset=".918" stop-color="#8f6eaf"/></radialGradient><linearGradient id="fe-magic-wand-a" x1="19.234" x2="5.172" y1="13.021" y2="27.396" gradientUnits="userSpaceOnUse"><stop stop-color="#60105f"/><stop offset="1" stop-color="#54155e"/></linearGradient><linearGradient id="fe-magic-wand-b" x1="5.5" x2="6.969" y1="24.068" y2="25.521" gradientUnits="userSpaceOnUse"><stop stop-color="#523253"/><stop offset="1" stop-color="#523253" stop-opacity="0"/></linearGradient><linearGradient id="fe-magic-wand-d" x1="28.981" x2="25.017" y1="4.112" y2="8.079" gradientUnits="userSpaceOnUse"><stop stop-color="#ffd459"/><stop offset="1" stop-color="#ffa271"/></linearGradient><linearGradient id="fe-magic-wand-f" x1="16.848" x2="13.885" y1="4.585" y2="7.551" gradientUnits="userSpaceOnUse"><stop stop-color="#ffd465"/><stop offset="1" stop-color="#ffaf36"/></linearGradient><linearGradient id="fe-magic-wand-h" x1="26.41" x2="23.447" y1="15.554" y2="18.52" gradientUnits="userSpaceOnUse"><stop stop-color="#ffd465"/><stop offset="1" stop-color="#ffaf36"/></linearGradient><linearGradient id="fe-magic-wand-r" x1="18.547" x2="4.172" y1="13.334" y2="27.459" gradientUnits="userSpaceOnUse"><stop stop-color="#692167"/><stop offset="1" stop-color="#5b2460"/></linearGradient><linearGradient id="fe-magic-wand-s" x1="18.847" x2="19.849" y1="11.021" y2="11.969" gradientUnits="userSpaceOnUse"><stop stop-color="#c1bfc3"/><stop offset="1" stop-color="#c1bfc3" stop-opacity="0"/></linearGradient><linearGradient id="fe-magic-wand-t" x1="21.422" x2="20.797" y1="12.881" y2="12.225" gradientUnits="userSpaceOnUse"><stop stop-color="#b0a1bf"/><stop offset="1" stop-color="#b0a1bf" stop-opacity="0"/></linearGradient><linearGradient id="fe-magic-wand-w" x1="3.283" x2="4.277" y1="26.585" y2="27.578" gradientUnits="userSpaceOnUse"><stop stop-color="#a8a6ad"/><stop offset="1" stop-color="#a8a6ad" stop-opacity="0"/></linearGradient><linearGradient id="fe-magic-wand-x" x1="2.609" x2="3.391" y1="29.74" y2="28.771" gradientUnits="userSpaceOnUse"><stop stop-color="#968fa1"/><stop offset="1" stop-color="#968fa1" stop-opacity="0"/></linearGradient><filter id="fe-magic-wand-c" width="7.104" height="8.275" x="22.983" y="1.85" color-interpolation-filters="sRGB" filterUnits="userSpaceOnUse"><feFlood flood-opacity="0" result="BackgroundImageFix"/><feBlend in="SourceGraphic" in2="BackgroundImageFix" result="shape"/><feColorMatrix in="SourceAlpha" result="hardAlpha" values="0 0 0 0 0 0 0 0 0 0 0 0 0 0 0 0 0 0 127 0"/><feOffset dx=".15" dy="-.15"/><feGaussianBlur stdDeviation=".375"/><feComposite in2="hardAlpha" k2="-1" k3="1" operator="arithmetic"/><feColorMatrix values="0 0 0 0 0.94902 0 0 0 0 0.513726 0 0 0 0 0.392157 0 0 0 1 0"/><feBlend in2="shape" result="effect1_innerShadow_18_3440"/><feColorMatrix in="SourceAlpha" result="hardAlpha" values="0 0 0 0 0 0 0 0 0 0 0 0 0 0 0 0 0 0 127 0"/><feOffset dx="-.15" dy=".15"/><feGaussianBlur stdDeviation=".3"/><feComposite in2="hardAlpha" k2="-1" k3="1" operator="arithmetic"/><feColorMatrix values="0 0 0 0 1 0 0 0 0 0.823529 0 0 0 0 0.407843 0 0 0 1 0"/><feBlend in2="effect1_innerShadow_18_3440" result="effect2_innerShadow_18_3440"/></filter><filter id="fe-magic-wand-e" width="5.385" height="6.261" x="12.327" y="2.857" color-interpolation-filters="sRGB" filterUnits="userSpaceOnUse"><feFlood flood-opacity="0" result="BackgroundImageFix"/><feBlend in="SourceGraphic" in2="BackgroundImageFix" result="shape"/><feColorMatrix in="SourceAlpha" result="hardAlpha" values="0 0 0 0 0 0 0 0 0 0 0 0 0 0 0 0 0 0 127 0"/><feOffset dx=".15" dy="-.15"/><feGaussianBlur stdDeviation=".375"/><feComposite in2="hardAlpha" k2="-1" k3="1" operator="arithmetic"/><feColorMatrix values="0 0 0 0 0.94902 0 0 0 0 0.513726 0 0 0 0 0.392157 0 0 0 1 0"/><feBlend in2="shape" result="effect1_innerShadow_18_3440"/><feColorMatrix in="SourceAlpha" result="hardAlpha" values="0 0 0 0 0 0 0 0 0 0 0 0 0 0 0 0 0 0 127 0"/><feOffset dx="-.15" dy=".15"/><feGaussianBlur stdDeviation=".3"/><feComposite in2="hardAlpha" k2="-1" k3="1" operator="arithmetic"/><feColorMatrix values="0 0 0 0 1 0 0 0 0 0.823529 0 0 0 0 0.407843 0 0 0 1 0"/><feBlend in2="effect1_innerShadow_18_3440" result="effect2_innerShadow_18_3440"/></filter><filter id="fe-magic-wand-g" width="5.385" height="6.261" x="21.89" y="13.826" color-interpolation-filters="sRGB" filterUnits="userSpaceOnUse"><feFlood flood-opacity="0" result="BackgroundImageFix"/><feBlend in="SourceGraphic" in2="BackgroundImageFix" result="shape"/><feColorMatrix in="SourceAlpha" result="hardAlpha" values="0 0 0 0 0 0 0 0 0 0 0 0 0 0 0 0 0 0 127 0"/><feOffset dx=".15" dy="-.15"/><feGaussianBlur stdDeviation=".375"/><feComposite in2="hardAlpha" k2="-1" k3="1" operator="arithmetic"/><feColorMatrix values="0 0 0 0 0.94902 0 0 0 0 0.513726 0 0 0 0 0.392157 0 0 0 1 0"/><feBlend in2="shape" result="effect1_innerShadow_18_3440"/><feColorMatrix in="SourceAlpha" result="hardAlpha" values="0 0 0 0 0 0 0 0 0 0 0 0 0 0 0 0 0 0 127 0"/><feOffset dx="-.15" dy=".15"/><feGaussianBlur stdDeviation=".3"/><feComposite in2="hardAlpha" k2="-1" k3="1" operator="arithmetic"/><feColorMatrix values="0 0 0 0 1 0 0 0 0 0.823529 0 0 0 0 0.407843 0 0 0 1 0"/><feBlend in2="effect1_innerShadow_18_3440" result="effect2_innerShadow_18_3440"/></filter><filter id="fe-magic-wand-q" width="16.511" height="16.572" x="3.495" y="11.564" color-interpolation-filters="sRGB" filterUnits="userSpaceOnUse"><feFlood flood-opacity="0" result="BackgroundImageFix"/><feBlend in="SourceGraphic" in2="BackgroundImageFix" result="shape"/><feGaussianBlur result="effect1_foregroundBlur_18_3440" stdDeviation=".25"/></filter><filter id="fe-magic-wand-v" width="4.206" height="4.608" x="2.124" y="25.231" color-interpolation-filters="sRGB" filterUnits="userSpaceOnUse"><feFlood flood-opacity="0" result="BackgroundImageFix"/><feBlend in="SourceGraphic" in2="BackgroundImageFix" result="shape"/><feColorMatrix in="SourceAlpha" result="hardAlpha" values="0 0 0 0 0 0 0 0 0 0 0 0 0 0 0 0 0 0 127 0"/><feOffset dx="-.1" dy="-.5"/><feGaussianBlur stdDeviation=".5"/><feComposite in2="hardAlpha" k2="-1" k3="1" operator="arithmetic"/><feColorMatrix values="0 0 0 0 0.698039 0 0 0 0 0.619608 0 0 0 0 0.792157 0 0 0 1 0"/><feBlend in2="shape" result="effect1_innerShadow_18_3440"/></filter></defs></svg>