<svg xmlns="http://www.w3.org/2000/svg" fill="none" viewBox="0 0 32 32"><g filter="url(#fe-man-facepalming-medium-a)"><path fill="#1d79c4" d="M25.5 29.972v-.39c0-5.39-4.47-9.77-9.99-9.77-5.52.01-9.99 4.38-9.99 9.77v.39z"/><path fill="url(#fe-man-facepalming-medium-b)" d="M25.5 29.972v-.39c0-5.39-4.47-9.77-9.99-9.77-5.52.01-9.99 4.38-9.99 9.77v.39z"/></g><path fill="url(#fe-man-facepalming-medium-c)" d="M25.5 29.972v-.39c0-5.39-4.47-9.77-9.99-9.77-5.52.01-9.99 4.38-9.99 9.77v.39z"/><path fill="url(#fe-man-facepalming-medium-d)" d="M15.535 23.333c-1.438 0-2.605-.605-2.605-1.969V17.99c0-1.365 1.167-2.471 2.605-2.471 1.439 0 2.605 1.106 2.605 2.47v3.375c0 1.364-1.166 1.969-2.605 1.969"/><path fill="url(#fe-man-facepalming-medium-e)" d="M15.535 23.333c-1.438 0-2.605-.605-2.605-1.969V17.99c0-1.365 1.167-2.471 2.605-2.471 1.439 0 2.605 1.106 2.605 2.47v3.375c0 1.364-1.166 1.969-2.605 1.969"/><g filter="url(#fe-man-facepalming-medium-f)"><circle cx="9.481" cy="13.345" r="2.116" fill="url(#fe-man-facepalming-medium-g)"/></g><circle cx="9.481" cy="13.345" r="2.116" fill="url(#fe-man-facepalming-medium-h)"/><g filter="url(#fe-man-facepalming-medium-i)"><circle cx="9.481" cy="13.345" r="1.261" fill="url(#fe-man-facepalming-medium-j)"/></g><g filter="url(#fe-man-facepalming-medium-k)"><circle cx="21.54" cy="13.345" r="2.116" fill="url(#fe-man-facepalming-medium-l)"/><circle cx="21.54" cy="13.345" r="2.116" fill="url(#fe-man-facepalming-medium-m)"/></g><g filter="url(#fe-man-facepalming-medium-n)"><circle cx="21.54" cy="13.345" r="1.261" fill="#a57c70"/><circle cx="21.54" cy="13.345" r="1.261" fill="url(#fe-man-facepalming-medium-o)"/><circle cx="21.54" cy="13.345" r="1.261" fill="url(#fe-man-facepalming-medium-p)"/></g><g filter="url(#fe-man-facepalming-medium-q)"><path fill="url(#fe-man-facepalming-medium-r)" d="m9.034 12.569.063.002s-.068-1.082-.136-1.826c0-.338.136-.743.408-.946l.204-.203c.34-.27.476-.676.476-1.082V7.433c0-.338.204-.609.543-.676.816-.203 2.516-.541 4.964-.541s4.147.338 4.963.54c.272.068.544.339.544.677v1.081c0 .406.204.812.476 1.082.637.446.597.691.544 1.217a59 59 0 0 0-.136 1.825h.023l-.337 5.018c-.203 2.243-1.967 3.806-4.07 3.806h-4.069c-2.17 0-3.866-1.563-4.069-3.806z"/><path fill="url(#fe-man-facepalming-medium-s)" d="m9.034 12.569.063.002s-.068-1.082-.136-1.826c0-.338.136-.743.408-.946l.204-.203c.34-.27.476-.676.476-1.082V7.433c0-.338.204-.609.543-.676.816-.203 2.516-.541 4.964-.541s4.147.338 4.963.54c.272.068.544.339.544.677v1.081c0 .406.204.812.476 1.082.637.446.597.691.544 1.217a59 59 0 0 0-.136 1.825h.023l-.337 5.018c-.203 2.243-1.967 3.806-4.07 3.806h-4.069c-2.17 0-3.866-1.563-4.069-3.806z"/><path fill="url(#fe-man-facepalming-medium-t)" d="m9.034 12.569.063.002s-.068-1.082-.136-1.826c0-.338.136-.743.408-.946l.204-.203c.34-.27.476-.676.476-1.082V7.433c0-.338.204-.609.543-.676.816-.203 2.516-.541 4.964-.541s4.147.338 4.963.54c.272.068.544.339.544.677v1.081c0 .406.204.812.476 1.082.637.446.597.691.544 1.217a59 59 0 0 0-.136 1.825h.023l-.337 5.018c-.203 2.243-1.967 3.806-4.07 3.806h-4.069c-2.17 0-3.866-1.563-4.069-3.806z"/></g><path fill="url(#fe-man-facepalming-medium-u)" d="M8.96 10.745c0-.338.137-.743.409-.946l.204-.203c.34-.27.476-.676.476-1.082V7.433c0-.338.204-.609.543-.676.816-.203 2.516-.541 4.964-.541s4.147.338 4.963.54c.272.068.544.339.544.677v1.081c0 .406.204.812.476 1.082.637.446.597.691.544 1.217a59 59 0 0 0-.136 1.825h.023l-.337 5.018c-.203 2.243-1.967 3.806-4.07 3.806h-4.069c-2.17 0-3.866-1.563-4.069-3.806-.177-2.303-.254-4.612-.464-6.91"/><path fill="url(#fe-man-facepalming-medium-v)" d="M8.96 10.745c0-.338.137-.743.409-.946l.204-.203c.34-.27.476-.676.476-1.082V7.433c0-.338.204-.609.543-.676.816-.203 2.516-.541 4.964-.541s4.147.338 4.963.54c.272.068.544.339.544.677v1.081c0 .406.204.812.476 1.082.637.446.597.691.544 1.217a59 59 0 0 0-.136 1.825h.023l-.337 5.018c-.203 2.243-1.967 3.806-4.07 3.806h-4.069c-2.17 0-3.866-1.563-4.069-3.806-.177-2.303-.254-4.612-.464-6.91"/><path fill="url(#fe-man-facepalming-medium-w)" d="M8.96 10.745c0-.338.137-.743.409-.946l.204-.203c.34-.27.476-.676.476-1.082V7.433c0-.338.204-.609.543-.676.816-.203 2.516-.541 4.964-.541s4.147.338 4.963.54c.272.068.544.339.544.677v1.081c0 .406.204.812.476 1.082.637.446.597.691.544 1.217a59 59 0 0 0-.136 1.825h.023l-.337 5.018c-.203 2.243-1.967 3.806-4.07 3.806h-4.069c-2.17 0-3.866-1.563-4.069-3.806-.177-2.303-.254-4.612-.464-6.91"/><path fill="url(#fe-man-facepalming-medium-x)" d="M8.96 10.745c0-.338.137-.743.409-.946l.204-.203c.34-.27.476-.676.476-1.082V7.433c0-.338.204-.609.543-.676.816-.203 2.516-.541 4.964-.541s4.147.338 4.963.54c.272.068.544.339.544.677v1.081c0 .406.204.812.476 1.082.637.446.597.691.544 1.217a59 59 0 0 0-.136 1.825h.023l-.337 5.018c-.203 2.243-1.967 3.806-4.07 3.806h-4.069c-2.17 0-3.866-1.563-4.069-3.806-.177-2.303-.254-4.612-.464-6.91"/><g filter="url(#fe-man-facepalming-medium-y)"><path fill="url(#fe-man-facepalming-medium-z)" d="m20.523 6.216-3.9 1.3a1.328 1.328 0 0 0 .595 2.575l3.879-.52z"/></g><g filter="url(#fe-man-facepalming-medium-A)"><path fill="#4f3332" d="m21.607 5.134.544.27c.952.474 1.496 1.555 1.292 2.705l-.748 3.853c-.067.398-.33.666-.725.676h-.023s.068-1.15.136-1.825c.056-.55-.04-.717-.544-1.217-.272-.27-.476-.676-.476-1.082V7.433c0-.338-.272-.609-.543-.676-.816-.203-2.516-.541-4.964-.541s-4.147.338-4.963.54c-.34.068-.544.339-.544.677v1.081c0 .406-.136.812-.476 1.082l-.204.203c-.272.203-.408.608-.408.946.068.744.136 1.826.136 1.826l-.062-.002a.8.8 0 0 1-.754-.674L7.533 8.04c-.136-1.082.408-2.163 1.36-2.636l.544-.27c.34-.204.68-.474 1.02-.745l1.223-1.284c.748-.676 1.836-.879 2.788-.406.68.203 1.428.203 2.108 0 1.02-.338 2.176-.067 2.992.676l1.02 1.014c.271.338.611.541 1.02.744"/><path fill="url(#fe-man-facepalming-medium-B)" d="m21.607 5.134.544.27c.952.474 1.496 1.555 1.292 2.705l-.748 3.853c-.067.398-.33.666-.725.676h-.023s.068-1.15.136-1.825c.056-.55-.04-.717-.544-1.217-.272-.27-.476-.676-.476-1.082V7.433c0-.338-.272-.609-.543-.676-.816-.203-2.516-.541-4.964-.541s-4.147.338-4.963.54c-.34.068-.544.339-.544.677v1.081c0 .406-.136.812-.476 1.082l-.204.203c-.272.203-.408.608-.408.946.068.744.136 1.826.136 1.826l-.062-.002a.8.8 0 0 1-.754-.674L7.533 8.04c-.136-1.082.408-2.163 1.36-2.636l.544-.27c.34-.204.68-.474 1.02-.745l1.223-1.284c.748-.676 1.836-.879 2.788-.406.68.203 1.428.203 2.108 0 1.02-.338 2.176-.067 2.992.676l1.02 1.014c.271.338.611.541 1.02.744"/><path fill="url(#fe-man-facepalming-medium-C)" d="m21.607 5.134.544.27c.952.474 1.496 1.555 1.292 2.705l-.748 3.853c-.067.398-.33.666-.725.676h-.023s.068-1.15.136-1.825c.056-.55-.04-.717-.544-1.217-.272-.27-.476-.676-.476-1.082V7.433c0-.338-.272-.609-.543-.676-.816-.203-2.516-.541-4.964-.541s-4.147.338-4.963.54c-.34.068-.544.339-.544.677v1.081c0 .406-.136.812-.476 1.082l-.204.203c-.272.203-.408.608-.408.946.068.744.136 1.826.136 1.826l-.062-.002a.8.8 0 0 1-.754-.674L7.533 8.04c-.136-1.082.408-2.163 1.36-2.636l.544-.27c.34-.204.68-.474 1.02-.745l1.223-1.284c.748-.676 1.836-.879 2.788-.406.68.203 1.428.203 2.108 0 1.02-.338 2.176-.067 2.992.676l1.02 1.014c.271.338.611.541 1.02.744"/><path fill="url(#fe-man-facepalming-medium-D)" d="m21.607 5.134.544.27c.952.474 1.496 1.555 1.292 2.705l-.748 3.853c-.067.398-.33.666-.725.676h-.023s.068-1.15.136-1.825c.056-.55-.04-.717-.544-1.217-.272-.27-.476-.676-.476-1.082V7.433c0-.338-.272-.609-.543-.676-.816-.203-2.516-.541-4.964-.541s-4.147.338-4.963.54c-.34.068-.544.339-.544.677v1.081c0 .406-.136.812-.476 1.082l-.204.203c-.272.203-.408.608-.408.946.068.744.136 1.826.136 1.826l-.062-.002a.8.8 0 0 1-.754-.674L7.533 8.04c-.136-1.082.408-2.163 1.36-2.636l.544-.27c.34-.204.68-.474 1.02-.745l1.223-1.284c.748-.676 1.836-.879 2.788-.406.68.203 1.428.203 2.108 0 1.02-.338 2.176-.067 2.992.676l1.02 1.014c.271.338.611.541 1.02.744"/><path fill="url(#fe-man-facepalming-medium-E)" d="m21.607 5.134.544.27c.952.474 1.496 1.555 1.292 2.705l-.748 3.853c-.067.398-.33.666-.725.676h-.023s.068-1.15.136-1.825c.056-.55-.04-.717-.544-1.217-.272-.27-.476-.676-.476-1.082V7.433c0-.338-.272-.609-.543-.676-.816-.203-2.516-.541-4.964-.541s-4.147.338-4.963.54c-.34.068-.544.339-.544.677v1.081c0 .406-.136.812-.476 1.082l-.204.203c-.272.203-.408.608-.408.946.068.744.136 1.826.136 1.826l-.062-.002a.8.8 0 0 1-.754-.674L7.533 8.04c-.136-1.082.408-2.163 1.36-2.636l.544-.27c.34-.204.68-.474 1.02-.745l1.223-1.284c.748-.676 1.836-.879 2.788-.406.68.203 1.428.203 2.108 0 1.02-.338 2.176-.067 2.992.676l1.02 1.014c.271.338.611.541 1.02.744"/></g><g filter="url(#fe-man-facepalming-medium-F)"><path fill="#4c3230" d="M20.214 9.897h-.002l-.002-.003-.006-.004-.015-.013-.046-.034a3.276 3.276 0 0 0-.683-.369 3.6 3.6 0 0 0-1.891-.2.677.677 0 0 0 .21 1.336c.505-.08.909.013 1.184.122a2 2 0 0 1 .38.203l.01.007a.677.677 0 0 0 .86-1.045"/><path fill="url(#fe-man-facepalming-medium-G)" d="M20.214 9.897h-.002l-.002-.003-.006-.004-.015-.013-.046-.034a3.276 3.276 0 0 0-.683-.369 3.6 3.6 0 0 0-1.891-.2.677.677 0 0 0 .21 1.336c.505-.08.909.013 1.184.122a2 2 0 0 1 .38.203l.01.007a.677.677 0 0 0 .86-1.045"/></g><g filter="url(#fe-man-facepalming-medium-H)"><path fill="#4c3230" d="M10.716 9.898zh.002l.002-.003.006-.004.015-.013.046-.034q.055-.041.15-.102c.126-.079.306-.177.532-.267a3.6 3.6 0 0 1 1.892-.2.677.677 0 1 1-.21 1.336 2.24 2.24 0 0 0-1.184.122 2 2 0 0 0-.391.21.676.676 0 0 1-.86-1.044"/><path fill="url(#fe-man-facepalming-medium-I)" d="M10.716 9.898zh.002l.002-.003.006-.004.015-.013.046-.034q.055-.041.15-.102c.126-.079.306-.177.532-.267a3.6 3.6 0 0 1 1.892-.2.677.677 0 1 1-.21 1.336 2.24 2.24 0 0 0-1.184.122 2 2 0 0 0-.391.21.676.676 0 0 1-.86-1.044"/></g><g filter="url(#fe-man-facepalming-medium-J)"><path stroke="url(#fe-man-facepalming-medium-K)" stroke-linecap="round" stroke-width=".5" d="M17.604 9.714c.545-.095 1.608-.068 2.344.504"/></g><g filter="url(#fe-man-facepalming-medium-L)"><path stroke="url(#fe-man-facepalming-medium-M)" stroke-linecap="round" stroke-width=".5" d="M10.988 10.371c.415-.366 1.32-.752 2.443-.573"/></g><g filter="url(#fe-man-facepalming-medium-N)"><path stroke="url(#fe-man-facepalming-medium-O)" stroke-linecap="round" stroke-width=".25" d="M9.753 7.246v1.138c-.01.189-.089.61-.327.788"/></g><path fill="url(#fe-man-facepalming-medium-P)" d="M21.106 14.284a2 2 0 0 0 1.09-.373v1.123a2.62 2.62 0 0 1-1.616 2.435c.205-.437.346-.914.417-1.423z"/><path fill="url(#fe-man-facepalming-medium-Q)" d="M21.106 14.284a2 2 0 0 0 1.09-.373v1.123a2.62 2.62 0 0 1-1.616 2.435c.205-.437.346-.914.417-1.423z"/><g filter="url(#fe-man-facepalming-medium-R)"><path fill="url(#fe-man-facepalming-medium-S)" d="M16.95 8.508a.946.946 0 0 1 1.108.75l.356 1.849-.086-1.383a.946.946 0 1 1 1.888-.117l.197 3.17.327-.675a.989.989 0 1 1 1.78.863l-.817 1.684c-.174.42-.182.807-.19 1.218-.009.374-.017.767-.152 1.221-.236.796-.707 1.434-.913 1.653l-2.634.752c-2.028-.497-2.646-1.652-2.982-2.62-.269-.773-.551-1.379-.659-1.585l-1.161-2.238a.946.946 0 1 1 1.678-.871l.194.371-.463-1.348a.946.946 0 1 1 1.79-.614l.404 1.18-.414-2.152a.946.946 0 0 1 .75-1.108"/></g><g filter="url(#fe-man-facepalming-medium-T)"><path fill="url(#fe-man-facepalming-medium-U)" fill-rule="evenodd" d="M14.575 12.542c.15.109.184.319.074.469a2.02 2.02 0 0 1-1.641.828 2.05 2.05 0 0 1-1.639-.824.336.336 0 1 1 .538-.403c.256.34.656.555 1.1.555.457 0 .855-.216 1.099-.551.109-.15.32-.184.47-.075" clip-rule="evenodd"/></g><path fill="#8a0052" d="M17.701 17.94a2.47 2.47 0 0 0-2.06-1.12c-.861 0-1.618.45-2.059 1.12-.095.144.039.317.192.298H17.5c.164 0 .297-.144.201-.297"/><g filter="url(#fe-man-facepalming-medium-V)"><path fill="url(#fe-man-facepalming-medium-W)" d="M17.678 7.71a1.1 1.1 0 0 1 1.288.871l.415 2.15-.1-1.608a1.1 1.1 0 1 1 2.195-.136l.23 3.687.38-.785a1.15 1.15 0 1 1 2.07 1.004l-.95 1.957c-.203.49-.212.94-.222 1.417-.01.436-.019.893-.176 1.421-.275.925-.823 1.667-1.062 1.922l-3.063.875c-2.36-.578-3.078-1.922-3.469-3.047-.312-.9-.64-1.604-.765-1.844l-1.351-2.602a1.1 1.1 0 0 1 1.952-1.014l.225.432-.539-1.568a1.1 1.1 0 0 1 2.081-.714l.471 1.372-.482-2.502a1.1 1.1 0 0 1 .872-1.289"/><path fill="url(#fe-man-facepalming-medium-X)" d="M17.678 7.71a1.1 1.1 0 0 1 1.288.871l.415 2.15-.1-1.608a1.1 1.1 0 1 1 2.195-.136l.23 3.687.38-.785a1.15 1.15 0 1 1 2.07 1.004l-.95 1.957c-.203.49-.212.94-.222 1.417-.01.436-.019.893-.176 1.421-.275.925-.823 1.667-1.062 1.922l-3.063.875c-2.36-.578-3.078-1.922-3.469-3.047-.312-.9-.64-1.604-.765-1.844l-1.351-2.602a1.1 1.1 0 0 1 1.952-1.014l.225.432-.539-1.568a1.1 1.1 0 0 1 2.081-.714l.471 1.372-.482-2.502a1.1 1.1 0 0 1 .872-1.289"/><path fill="url(#fe-man-facepalming-medium-Y)" d="M17.678 7.71a1.1 1.1 0 0 1 1.288.871l.415 2.15-.1-1.608a1.1 1.1 0 1 1 2.195-.136l.23 3.687.38-.785a1.15 1.15 0 1 1 2.07 1.004l-.95 1.957c-.203.49-.212.94-.222 1.417-.01.436-.019.893-.176 1.421-.275.925-.823 1.667-1.062 1.922l-3.063.875c-2.36-.578-3.078-1.922-3.469-3.047-.312-.9-.64-1.604-.765-1.844l-1.351-2.602a1.1 1.1 0 0 1 1.952-1.014l.225.432-.539-1.568a1.1 1.1 0 0 1 2.081-.714l.471 1.372-.482-2.502a1.1 1.1 0 0 1 .872-1.289"/><path fill="url(#fe-man-facepalming-medium-Z)" d="M17.678 7.71a1.1 1.1 0 0 1 1.288.871l.415 2.15-.1-1.608a1.1 1.1 0 1 1 2.195-.136l.23 3.687.38-.785a1.15 1.15 0 1 1 2.07 1.004l-.95 1.957c-.203.49-.212.94-.222 1.417-.01.436-.019.893-.176 1.421-.275.925-.823 1.667-1.062 1.922l-3.063.875c-2.36-.578-3.078-1.922-3.469-3.047-.312-.9-.64-1.604-.765-1.844l-1.351-2.602a1.1 1.1 0 0 1 1.952-1.014l.225.432-.539-1.568a1.1 1.1 0 0 1 2.081-.714l.471 1.372-.482-2.502a1.1 1.1 0 0 1 .872-1.289"/><path fill="url(#fe-man-facepalming-medium-aa)" d="M17.678 7.71a1.1 1.1 0 0 1 1.288.871l.415 2.15-.1-1.608a1.1 1.1 0 1 1 2.195-.136l.23 3.687.38-.785a1.15 1.15 0 1 1 2.07 1.004l-.95 1.957c-.203.49-.212.94-.222 1.417-.01.436-.019.893-.176 1.421-.275.925-.823 1.667-1.062 1.922l-3.063.875c-2.36-.578-3.078-1.922-3.469-3.047-.312-.9-.64-1.604-.765-1.844l-1.351-2.602a1.1 1.1 0 0 1 1.952-1.014l.225.432-.539-1.568a1.1 1.1 0 0 1 2.081-.714l.471 1.372-.482-2.502a1.1 1.1 0 0 1 .872-1.289"/></g><path fill="url(#fe-man-facepalming-medium-ab)" d="M17.678 7.71a1.1 1.1 0 0 1 1.288.871l.415 2.15-.1-1.608a1.1 1.1 0 1 1 2.195-.136l.23 3.687.38-.785a1.15 1.15 0 1 1 2.07 1.004l-.95 1.957c-.203.49-.212.94-.222 1.417-.01.436-.019.893-.176 1.421-.275.925-.823 1.667-1.062 1.922l-3.063.875c-2.36-.578-3.078-1.922-3.469-3.047-.312-.9-.64-1.604-.765-1.844l-1.351-2.602a1.1 1.1 0 0 1 1.952-1.014l.225.432-.539-1.568a1.1 1.1 0 0 1 2.081-.714l.471 1.372-.482-2.502a1.1 1.1 0 0 1 .872-1.289"/><path fill="url(#fe-man-facepalming-medium-ac)" d="M17.678 7.71a1.1 1.1 0 0 1 1.288.871l.415 2.15-.1-1.608a1.1 1.1 0 1 1 2.195-.136l.23 3.687.38-.785a1.15 1.15 0 1 1 2.07 1.004l-.95 1.957c-.203.49-.212.94-.222 1.417-.01.436-.019.893-.176 1.421-.275.925-.823 1.667-1.062 1.922l-3.063.875c-2.36-.578-3.078-1.922-3.469-3.047-.312-.9-.64-1.604-.765-1.844l-1.351-2.602a1.1 1.1 0 0 1 1.952-1.014l.225.432-.539-1.568a1.1 1.1 0 0 1 2.081-.714l.471 1.372-.482-2.502a1.1 1.1 0 0 1 .872-1.289"/><path fill="url(#fe-man-facepalming-medium-ad)" d="M17.678 7.71a1.1 1.1 0 0 1 1.288.871l.415 2.15-.1-1.608a1.1 1.1 0 1 1 2.195-.136l.23 3.687.38-.785a1.15 1.15 0 1 1 2.07 1.004l-.95 1.957c-.203.49-.212.94-.222 1.417-.01.436-.019.893-.176 1.421-.275.925-.823 1.667-1.062 1.922l-3.063.875c-2.36-.578-3.078-1.922-3.469-3.047-.312-.9-.64-1.604-.765-1.844l-1.351-2.602a1.1 1.1 0 0 1 1.952-1.014l.225.432-.539-1.568a1.1 1.1 0 0 1 2.081-.714l.471 1.372-.482-2.502a1.1 1.1 0 0 1 .872-1.289"/><path fill="url(#fe-man-facepalming-medium-ae)" d="M17.678 7.71a1.1 1.1 0 0 1 1.288.871l.415 2.15-.1-1.608a1.1 1.1 0 1 1 2.195-.136l.23 3.687.38-.785a1.15 1.15 0 1 1 2.07 1.004l-.95 1.957c-.203.49-.212.94-.222 1.417-.01.436-.019.893-.176 1.421-.275.925-.823 1.667-1.062 1.922l-3.063.875c-2.36-.578-3.078-1.922-3.469-3.047-.312-.9-.64-1.604-.765-1.844l-1.351-2.602a1.1 1.1 0 0 1 1.952-1.014l.225.432-.539-1.568a1.1 1.1 0 0 1 2.081-.714l.471 1.372-.482-2.502a1.1 1.1 0 0 1 .872-1.289"/><path fill="url(#fe-man-facepalming-medium-af)" d="M17.678 7.71a1.1 1.1 0 0 1 1.288.871l.415 2.15-.1-1.608a1.1 1.1 0 1 1 2.195-.136l.23 3.687.38-.785a1.15 1.15 0 1 1 2.07 1.004l-.95 1.957c-.203.49-.212.94-.222 1.417-.01.436-.019.893-.176 1.421-.275.925-.823 1.667-1.062 1.922l-3.063.875c-2.36-.578-3.078-1.922-3.469-3.047-.312-.9-.64-1.604-.765-1.844l-1.351-2.602a1.1 1.1 0 0 1 1.952-1.014l.225.432-.539-1.568a1.1 1.1 0 0 1 2.081-.714l.471 1.372-.482-2.502a1.1 1.1 0 0 1 .872-1.289"/><path fill="url(#fe-man-facepalming-medium-ag)" d="M17.39 20.468a.25.25 0 0 1 .182-.302l4.733-1.205a.25.25 0 0 1 .305.184l.274 1.13-5.229 1.267z"/><path fill="url(#fe-man-facepalming-medium-ah)" d="M17.39 20.468a.25.25 0 0 1 .182-.302l4.733-1.205a.25.25 0 0 1 .305.184l.274 1.13-5.229 1.267z"/><path fill="url(#fe-man-facepalming-medium-ai)" d="M16.827 22.542a1 1 0 0 1 .723-1.221l5.303-1.339a1 1 0 0 1 1.213.718l2.414 9.29h-7.719z"/><path fill="url(#fe-man-facepalming-medium-aj)" d="M16.827 22.542a1 1 0 0 1 .723-1.221l5.303-1.339a1 1 0 0 1 1.213.718l2.414 9.29h-7.719z"/><path fill="url(#fe-man-facepalming-medium-ak)" d="M16.827 22.542a1 1 0 0 1 .723-1.221l5.303-1.339a1 1 0 0 1 1.213.718l2.414 9.29h-7.719z"/><path fill="url(#fe-man-facepalming-medium-al)" d="M16.827 22.542a1 1 0 0 1 .723-1.221l5.303-1.339a1 1 0 0 1 1.213.718l2.414 9.29h-7.719z"/><g filter="url(#fe-man-facepalming-medium-am)"><path stroke="#be9988" stroke-linecap="round" stroke-width=".75" d="m18.229 8.846.719 4"/></g><g filter="url(#fe-man-facepalming-medium-an)"><path stroke="#be9988" stroke-linecap="round" stroke-width=".75" d="m16.166 10.627 1 2.875"/></g><g filter="url(#fe-man-facepalming-medium-ao)"><path stroke="#be9988" stroke-linecap="round" stroke-width=".75" d="m14.354 12.658 1.094 2"/></g><g filter="url(#fe-man-facepalming-medium-ap)"><path stroke="url(#fe-man-facepalming-medium-aq)" stroke-linecap="round" stroke-width=".75" d="m23.386 12.532-.937 1.89a3.56 3.56 0 0 0-.36 1.782c.079.968-.265 1.828-.64 2.234"/></g><g filter="url(#fe-man-facepalming-medium-ar)"><path stroke="url(#fe-man-facepalming-medium-as)" stroke-linecap="round" stroke-width=".75" d="m20.59 8.844.671 8.438"/></g><defs><radialGradient id="fe-man-facepalming-medium-b" cx="0" cy="0" r="1" gradientTransform="rotate(158.988 8.002 15.125)scale(6.84218 15.541)" gradientUnits="userSpaceOnUse"><stop offset=".52" stop-color="#1d6fc7"/><stop offset="1" stop-color="#1d6fc7" stop-opacity="0"/></radialGradient><radialGradient id="fe-man-facepalming-medium-c" cx="0" cy="0" r="1" gradientTransform="matrix(0 4.84375 -6.97792 0 15.51 18.173)" gradientUnits="userSpaceOnUse"><stop offset=".503" stop-color="#115284"/><stop offset="1" stop-color="#115284" stop-opacity="0"/></radialGradient><radialGradient id="fe-man-facepalming-medium-d" cx="0" cy="0" r="1" gradientTransform="rotate(55.648 -12.521 23.836)scale(4.12586 4.67196)" gradientUnits="userSpaceOnUse"><stop offset=".191" stop-color="#804760"/><stop offset=".878" stop-color="#966b73"/></radialGradient><radialGradient id="fe-man-facepalming-medium-g" cx="0" cy="0" r="1" gradientTransform="matrix(2.22444 0 0 3.89278 7.364 13.345)" gradientUnits="userSpaceOnUse"><stop offset=".351" stop-color="#865d5f"/><stop offset="1" stop-color="#76594a"/></radialGradient><radialGradient id="fe-man-facepalming-medium-h" cx="0" cy="0" r="1" gradientTransform="rotate(235.02 8.766 5.262)scale(2.10006)" gradientUnits="userSpaceOnUse"><stop offset=".34" stop-color="#834e63"/><stop offset="1" stop-color="#834e63" stop-opacity="0"/></radialGradient><radialGradient id="fe-man-facepalming-medium-m" cx="0" cy="0" r="1" gradientTransform="rotate(-36.06 30.99 -27.306)scale(1.29629 1.47954)" gradientUnits="userSpaceOnUse"><stop offset=".543" stop-color="#8f6459"/><stop offset="1" stop-color="#8f6459" stop-opacity="0"/></radialGradient><radialGradient id="fe-man-facepalming-medium-o" cx="0" cy="0" r="1" gradientTransform="matrix(1.04102 -1.91472 1.1207 .6093 21.487 14.386)" gradientUnits="userSpaceOnUse"><stop offset=".755" stop-color="#8a5d55" stop-opacity="0"/><stop offset=".916" stop-color="#8a5d55"/></radialGradient><radialGradient id="fe-man-facepalming-medium-p" cx="0" cy="0" r="1" gradientTransform="matrix(.32867 .32533 -.4194 .4237 21.54 13.345)" gradientUnits="userSpaceOnUse"><stop stop-color="#895f52"/><stop offset="1" stop-color="#895f52" stop-opacity="0"/></radialGradient><radialGradient id="fe-man-facepalming-medium-s" cx="0" cy="0" r="1" gradientTransform="matrix(0 -1.65683 2.03918 0 18.473 11.733)" gradientUnits="userSpaceOnUse"><stop stop-color="#ab7773"/><stop offset="1" stop-color="#ab7773" stop-opacity="0"/></radialGradient><radialGradient id="fe-man-facepalming-medium-t" cx="0" cy="0" r="1" gradientTransform="matrix(0 -1.7418 2.16608 0 12.695 11.903)" gradientUnits="userSpaceOnUse"><stop stop-color="#8f5d65"/><stop offset="1" stop-color="#8f5d65" stop-opacity="0"/></radialGradient><radialGradient id="fe-man-facepalming-medium-w" cx="0" cy="0" r="1" gradientTransform="matrix(0 10.557 -13.0847 0 15.336 11.401)" gradientUnits="userSpaceOnUse"><stop offset=".554" stop-color="#864c6d" stop-opacity="0"/><stop offset="1" stop-color="#8e508f"/></radialGradient><radialGradient id="fe-man-facepalming-medium-x" cx="0" cy="0" r="1" gradientTransform="rotate(230.528 12.583 4.668)scale(4.81747 3.946)" gradientUnits="userSpaceOnUse"><stop stop-color="#824d63"/><stop offset="1" stop-color="#824d63" stop-opacity="0"/></radialGradient><radialGradient id="fe-man-facepalming-medium-B" cx="0" cy="0" r="1" gradientTransform="matrix(1.0113 -3.74776 1.3898 .37502 21.007 8.14)" gradientUnits="userSpaceOnUse"><stop stop-color="#554042"/><stop offset="1" stop-color="#554042" stop-opacity="0"/></radialGradient><radialGradient id="fe-man-facepalming-medium-C" cx="0" cy="0" r="1" gradientTransform="matrix(4.8483 .44616 -.2399 2.6069 18.925 5.91)" gradientUnits="userSpaceOnUse"><stop offset=".122" stop-color="#644949"/><stop offset="1" stop-color="#644949" stop-opacity="0"/></radialGradient><radialGradient id="fe-man-facepalming-medium-D" cx="0" cy="0" r="1" gradientTransform="matrix(0 2.12849 -3.29643 0 15.499 2.442)" gradientUnits="userSpaceOnUse"><stop stop-color="#624c49"/><stop offset="1" stop-color="#624c49" stop-opacity="0"/></radialGradient><radialGradient id="fe-man-facepalming-medium-E" cx="0" cy="0" r="1" gradientTransform="rotate(-36.235 20.602 -5.65)scale(4.83074 7.56819)" gradientUnits="userSpaceOnUse"><stop stop-color="#4e3c3a"/><stop offset="1" stop-color="#4e3c3a" stop-opacity="0"/></radialGradient><radialGradient id="fe-man-facepalming-medium-G" cx="0" cy="0" r="1" gradientTransform="rotate(-80.2 15.653 -5.69)scale(.77601 2.29577)" gradientUnits="userSpaceOnUse"><stop stop-color="#422235"/><stop offset="1" stop-color="#422235" stop-opacity="0"/></radialGradient><radialGradient id="fe-man-facepalming-medium-I" cx="0" cy="0" r="1" gradientTransform="rotate(-80.2 12.39 -1.815)scale(.77602 2.2959)" gradientUnits="userSpaceOnUse"><stop stop-color="#422235"/><stop offset="1" stop-color="#422235" stop-opacity="0"/></radialGradient><radialGradient id="fe-man-facepalming-medium-P" cx="0" cy="0" r="1" gradientTransform="rotate(103.679 5.501 15.574)scale(3.93208 4.671)" gradientUnits="userSpaceOnUse"><stop offset=".043" stop-color="#ffc135"/><stop offset=".909" stop-color="#e26839"/></radialGradient><radialGradient id="fe-man-facepalming-medium-Q" cx="0" cy="0" r="1" gradientTransform="rotate(53.902 -3.481 27.802)scale(.60043 .51007)" gradientUnits="userSpaceOnUse"><stop stop-color="#e18c2a"/><stop offset="1" stop-color="#e18c2a" stop-opacity="0"/></radialGradient><radialGradient id="fe-man-facepalming-medium-U" cx="0" cy="0" r="1" gradientTransform="rotate(37.466 -12.44 23.131)scale(2.0187 .82303)" gradientUnits="userSpaceOnUse"><stop stop-color="#3c3133"/><stop offset="1" stop-color="#22141e"/></radialGradient><radialGradient id="fe-man-facepalming-medium-W" cx="0" cy="0" r="1" gradientTransform="rotate(103.362 5.63 14.2)scale(9.1866 8.111)" gradientUnits="userSpaceOnUse"><stop offset=".747" stop-color="#b5867d"/><stop offset="1" stop-color="#936176"/></radialGradient><radialGradient id="fe-man-facepalming-medium-X" cx="0" cy="0" r="1" gradientTransform="rotate(69.02 -.965 16.739)scale(2.7549 .45445)" gradientUnits="userSpaceOnUse"><stop offset=".126" stop-color="#814f4f"/><stop offset="1" stop-color="#814f4f" stop-opacity="0"/></radialGradient><radialGradient id="fe-man-facepalming-medium-Y" cx="0" cy="0" r="1" gradientTransform="rotate(75.635 2.242 15.627)scale(3.9678 .65452)" gradientUnits="userSpaceOnUse"><stop stop-color="#814f4f"/><stop offset="1" stop-color="#814f4f" stop-opacity="0"/></radialGradient><radialGradient id="fe-man-facepalming-medium-Z" cx="0" cy="0" r="1" gradientTransform="rotate(81.47 4.463 15.475)scale(4.42395 .55144)" gradientUnits="userSpaceOnUse"><stop stop-color="#814f4f"/><stop offset="1" stop-color="#814f4f" stop-opacity="0"/></radialGradient><radialGradient id="fe-man-facepalming-medium-aa" cx="0" cy="0" r="1" gradientTransform="rotate(98.227 6.56 15.043)scale(3.93108 .49374)" gradientUnits="userSpaceOnUse"><stop offset=".001" stop-color="#814f4f"/><stop offset="1" stop-color="#814f4f" stop-opacity="0"/></radialGradient><radialGradient id="fe-man-facepalming-medium-ab" cx="0" cy="0" r="1" gradientTransform="rotate(66.69 -2.013 16.001)scale(1.21669 1.52605)" gradientUnits="userSpaceOnUse"><stop stop-color="#86634e"/><stop offset="1" stop-color="#86634e" stop-opacity="0"/></radialGradient><radialGradient id="fe-man-facepalming-medium-ac" cx="0" cy="0" r="1" gradientTransform="rotate(77.412 1.962 14.063)scale(1.91746 2.53532)" gradientUnits="userSpaceOnUse"><stop offset=".038" stop-color="#86634e"/><stop offset="1" stop-color="#86634e" stop-opacity="0"/></radialGradient><radialGradient id="fe-man-facepalming-medium-ad" cx="0" cy="0" r="1" gradientTransform="matrix(.2362 1.81686 -2.40232 .3123 17.64 7.376)" gradientUnits="userSpaceOnUse"><stop offset=".038" stop-color="#86634e"/><stop offset="1" stop-color="#86634e" stop-opacity="0"/></radialGradient><radialGradient id="fe-man-facepalming-medium-ae" cx="0" cy="0" r="1" gradientTransform="matrix(.19985 1.9622 -2.76485 .2816 20.51 7.54)" gradientUnits="userSpaceOnUse"><stop offset=".038" stop-color="#86634e"/><stop offset="1" stop-color="#86634e" stop-opacity="0"/></radialGradient><radialGradient id="fe-man-facepalming-medium-af" cx="0" cy="0" r="1" gradientTransform="rotate(120.736 8.82 12.35)scale(1.56419 2.20402)" gradientUnits="userSpaceOnUse"><stop offset=".038" stop-color="#86634e"/><stop offset="1" stop-color="#86634e" stop-opacity="0"/></radialGradient><radialGradient id="fe-man-facepalming-medium-ag" cx="0" cy="0" r="1" gradientTransform="rotate(165.742 9.577 11.268)scale(3.42011 2.21707)" gradientUnits="userSpaceOnUse"><stop stop-color="#489ed5"/><stop offset="1" stop-color="#20669e"/></radialGradient><radialGradient id="fe-man-facepalming-medium-aj" cx="0" cy="0" r="1" gradientTransform="rotate(77.94 -1.77 24.754)scale(10.9768 3.22604)" gradientUnits="userSpaceOnUse"><stop stop-color="#47c9ff"/><stop offset="1" stop-color="#1c9ae9" stop-opacity="0"/></radialGradient><filter id="fe-man-facepalming-medium-a" width="20.98" height="11.16" x="5.52" y="19.812" color-interpolation-filters="sRGB" filterUnits="userSpaceOnUse"><feFlood flood-opacity="0" result="BackgroundImageFix"/><feBlend in="SourceGraphic" in2="BackgroundImageFix" result="shape"/><feColorMatrix in="SourceAlpha" result="hardAlpha" values="0 0 0 0 0 0 0 0 0 0 0 0 0 0 0 0 0 0 127 0"/><feOffset dx="1" dy="1"/><feGaussianBlur stdDeviation="1"/><feComposite in2="hardAlpha" k2="-1" k3="1" operator="arithmetic"/><feColorMatrix values="0 0 0 0 0.254902 0 0 0 0 0.501961 0 0 0 0 0.682353 0 0 0 1 0"/><feBlend in2="shape" result="effect1_innerShadow_4002_4117"/></filter><filter id="fe-man-facepalming-medium-f" width="4.432" height="4.232" x="7.364" y="11.229" color-interpolation-filters="sRGB" filterUnits="userSpaceOnUse"><feFlood flood-opacity="0" result="BackgroundImageFix"/><feBlend in="SourceGraphic" in2="BackgroundImageFix" result="shape"/><feColorMatrix in="SourceAlpha" result="hardAlpha" values="0 0 0 0 0 0 0 0 0 0 0 0 0 0 0 0 0 0 127 0"/><feOffset dx=".2"/><feGaussianBlur stdDeviation=".15"/><feComposite in2="hardAlpha" k2="-1" k3="1" operator="arithmetic"/><feColorMatrix values="0 0 0 0 0.619608 0 0 0 0 0.470588 0 0 0 0 0.407843 0 0 0 1 0"/><feBlend in2="shape" result="effect1_innerShadow_4002_4117"/></filter><filter id="fe-man-facepalming-medium-i" width="3.522" height="3.522" x="7.719" y="11.584" color-interpolation-filters="sRGB" filterUnits="userSpaceOnUse"><feFlood flood-opacity="0" result="BackgroundImageFix"/><feBlend in="SourceGraphic" in2="BackgroundImageFix" result="shape"/><feGaussianBlur result="effect1_foregroundBlur_4002_4117" stdDeviation=".25"/></filter><filter id="fe-man-facepalming-medium-k" width="4.482" height="4.482" x="19.423" y="10.979" color-interpolation-filters="sRGB" filterUnits="userSpaceOnUse"><feFlood flood-opacity="0" result="BackgroundImageFix"/><feBlend in="SourceGraphic" in2="BackgroundImageFix" result="shape"/><feColorMatrix in="SourceAlpha" result="hardAlpha" values="0 0 0 0 0 0 0 0 0 0 0 0 0 0 0 0 0 0 127 0"/><feOffset dx=".25" dy="-.25"/><feGaussianBlur stdDeviation=".25"/><feComposite in2="hardAlpha" k2="-1" k3="1" operator="arithmetic"/><feColorMatrix values="0 0 0 0 0.584314 0 0 0 0 0.368627 0 0 0 0 0.470588 0 0 0 1 0"/><feBlend in2="shape" result="effect1_innerShadow_4002_4117"/></filter><filter id="fe-man-facepalming-medium-n" width="3.522" height="3.522" x="19.778" y="11.584" color-interpolation-filters="sRGB" filterUnits="userSpaceOnUse"><feFlood flood-opacity="0" result="BackgroundImageFix"/><feBlend in="SourceGraphic" in2="BackgroundImageFix" result="shape"/><feGaussianBlur result="effect1_foregroundBlur_4002_4117" stdDeviation=".25"/></filter><filter id="fe-man-facepalming-medium-q" width="13.149" height="15.496" x="8.961" y="6.216" color-interpolation-filters="sRGB" filterUnits="userSpaceOnUse"><feFlood flood-opacity="0" result="BackgroundImageFix"/><feBlend in="SourceGraphic" in2="BackgroundImageFix" result="shape"/><feColorMatrix in="SourceAlpha" result="hardAlpha" values="0 0 0 0 0 0 0 0 0 0 0 0 0 0 0 0 0 0 127 0"/><feOffset dy=".25"/><feGaussianBlur stdDeviation=".375"/><feComposite in2="hardAlpha" k2="-1" k3="1" operator="arithmetic"/><feColorMatrix values="0 0 0 0 0.305882 0 0 0 0 0.2 0 0 0 0 0.172549 0 0 0 1 0"/><feBlend in2="shape" result="effect1_innerShadow_4002_4117"/></filter><filter id="fe-man-facepalming-medium-y" width="9.382" height="7.887" x="13.714" y="4.216" color-interpolation-filters="sRGB" filterUnits="userSpaceOnUse"><feFlood flood-opacity="0" result="BackgroundImageFix"/><feBlend in="SourceGraphic" in2="BackgroundImageFix" result="shape"/><feGaussianBlur result="effect1_foregroundBlur_4002_4117" stdDeviation="1"/></filter><filter id="fe-man-facepalming-medium-A" width="15.973" height="10.696" x="7.512" y="1.942" color-interpolation-filters="sRGB" filterUnits="userSpaceOnUse"><feFlood flood-opacity="0" result="BackgroundImageFix"/><feBlend in="SourceGraphic" in2="BackgroundImageFix" result="shape"/><feColorMatrix in="SourceAlpha" result="hardAlpha" values="0 0 0 0 0 0 0 0 0 0 0 0 0 0 0 0 0 0 127 0"/><feOffset dy="-.5"/><feGaussianBlur stdDeviation=".375"/><feComposite in2="hardAlpha" k2="-1" k3="1" operator="arithmetic"/><feColorMatrix values="0 0 0 0 0.207843 0 0 0 0 0.109804 0 0 0 0 0.109804 0 0 0 1 0"/><feBlend in2="shape" result="effect1_innerShadow_4002_4117"/></filter><filter id="fe-man-facepalming-medium-F" width="3.71" height="2.267" x="16.998" y="8.827" color-interpolation-filters="sRGB" filterUnits="userSpaceOnUse"><feFlood flood-opacity="0" result="BackgroundImageFix"/><feBlend in="SourceGraphic" in2="BackgroundImageFix" result="shape"/><feColorMatrix in="SourceAlpha" result="hardAlpha" values="0 0 0 0 0 0 0 0 0 0 0 0 0 0 0 0 0 0 127 0"/><feOffset dx=".25" dy="-.4"/><feGaussianBlur stdDeviation=".3"/><feComposite in2="hardAlpha" k2="-1" k3="1" operator="arithmetic"/><feColorMatrix values="0 0 0 0 0.254902 0 0 0 0 0.156863 0 0 0 0 0.152941 0 0 0 1 0"/><feBlend in2="shape" result="effect1_innerShadow_4002_4117"/></filter><filter id="fe-man-facepalming-medium-H" width="3.71" height="2.267" x="10.472" y="8.827" color-interpolation-filters="sRGB" filterUnits="userSpaceOnUse"><feFlood flood-opacity="0" result="BackgroundImageFix"/><feBlend in="SourceGraphic" in2="BackgroundImageFix" result="shape"/><feColorMatrix in="SourceAlpha" result="hardAlpha" values="0 0 0 0 0 0 0 0 0 0 0 0 0 0 0 0 0 0 127 0"/><feOffset dx=".25" dy="-.4"/><feGaussianBlur stdDeviation=".3"/><feComposite in2="hardAlpha" k2="-1" k3="1" operator="arithmetic"/><feColorMatrix values="0 0 0 0 0.254902 0 0 0 0 0.156863 0 0 0 0 0.152941 0 0 0 1 0"/><feBlend in2="shape" result="effect1_innerShadow_4002_4117"/></filter><filter id="fe-man-facepalming-medium-J" width="3.844" height="2.047" x="16.854" y="8.922" color-interpolation-filters="sRGB" filterUnits="userSpaceOnUse"><feFlood flood-opacity="0" result="BackgroundImageFix"/><feBlend in="SourceGraphic" in2="BackgroundImageFix" result="shape"/><feGaussianBlur result="effect1_foregroundBlur_4002_4117" stdDeviation=".25"/></filter><filter id="fe-man-facepalming-medium-L" width="3.943" height="2.119" x="10.238" y="9.003" color-interpolation-filters="sRGB" filterUnits="userSpaceOnUse"><feFlood flood-opacity="0" result="BackgroundImageFix"/><feBlend in="SourceGraphic" in2="BackgroundImageFix" result="shape"/><feGaussianBlur result="effect1_foregroundBlur_4002_4117" stdDeviation=".25"/></filter><filter id="fe-man-facepalming-medium-N" width="1.077" height="2.676" x="9.051" y="6.871" color-interpolation-filters="sRGB" filterUnits="userSpaceOnUse"><feFlood flood-opacity="0" result="BackgroundImageFix"/><feBlend in="SourceGraphic" in2="BackgroundImageFix" result="shape"/><feGaussianBlur result="effect1_foregroundBlur_4002_4117" stdDeviation=".125"/></filter><filter id="fe-man-facepalming-medium-R" width="12.214" height="13.502" x="11.655" y="7.241" color-interpolation-filters="sRGB" filterUnits="userSpaceOnUse"><feFlood flood-opacity="0" result="BackgroundImageFix"/><feBlend in="SourceGraphic" in2="BackgroundImageFix" result="shape"/><feGaussianBlur result="effect1_foregroundBlur_4002_4117" stdDeviation=".625"/></filter><filter id="fe-man-facepalming-medium-T" width="3.412" height="1.462" x="11.302" y="12.377" color-interpolation-filters="sRGB" filterUnits="userSpaceOnUse"><feFlood flood-opacity="0" result="BackgroundImageFix"/><feBlend in="SourceGraphic" in2="BackgroundImageFix" result="shape"/><feColorMatrix in="SourceAlpha" result="hardAlpha" values="0 0 0 0 0 0 0 0 0 0 0 0 0 0 0 0 0 0 127 0"/><feOffset dy="-.1"/><feGaussianBlur stdDeviation=".1"/><feComposite in2="hardAlpha" k2="-1" k3="1" operator="arithmetic"/><feColorMatrix values="0 0 0 0 0.0470588 0 0 0 0 0.0235294 0 0 0 0 0.0627451 0 0 0 1 0"/><feBlend in2="shape" result="effect1_innerShadow_4002_4117"/></filter><filter id="fe-man-facepalming-medium-V" width="11.547" height="12.796" x="12.974" y="7.689" color-interpolation-filters="sRGB" filterUnits="userSpaceOnUse"><feFlood flood-opacity="0" result="BackgroundImageFix"/><feBlend in="SourceGraphic" in2="BackgroundImageFix" result="shape"/><feColorMatrix in="SourceAlpha" result="hardAlpha" values="0 0 0 0 0 0 0 0 0 0 0 0 0 0 0 0 0 0 127 0"/><feOffset dx=".25"/><feGaussianBlur stdDeviation=".75"/><feComposite in2="hardAlpha" k2="-1" k3="1" operator="arithmetic"/><feColorMatrix values="0 0 0 0 0.576471 0 0 0 0 0.392157 0 0 0 0 0.4 0 0 0 1 0"/><feBlend in2="shape" result="effect1_innerShadow_4002_4117"/><feColorMatrix in="SourceAlpha" result="hardAlpha" values="0 0 0 0 0 0 0 0 0 0 0 0 0 0 0 0 0 0 127 0"/><feOffset dx=".1"/><feGaussianBlur stdDeviation=".05"/><feComposite in2="hardAlpha" k2="-1" k3="1" operator="arithmetic"/><feColorMatrix values="0 0 0 0 0.6 0 0 0 0 0.415686 0 0 0 0 0.415686 0 0 0 1 0"/><feBlend in2="effect1_innerShadow_4002_4117" result="effect2_innerShadow_4002_4117"/></filter><filter id="fe-man-facepalming-medium-am" width="2.469" height="5.75" x="17.354" y="7.971" color-interpolation-filters="sRGB" filterUnits="userSpaceOnUse"><feFlood flood-opacity="0" result="BackgroundImageFix"/><feBlend in="SourceGraphic" in2="BackgroundImageFix" result="shape"/><feGaussianBlur result="effect1_foregroundBlur_4002_4117" stdDeviation=".25"/></filter><filter id="fe-man-facepalming-medium-an" width="2.75" height="4.625" x="15.291" y="9.752" color-interpolation-filters="sRGB" filterUnits="userSpaceOnUse"><feFlood flood-opacity="0" result="BackgroundImageFix"/><feBlend in="SourceGraphic" in2="BackgroundImageFix" result="shape"/><feGaussianBlur result="effect1_foregroundBlur_4002_4117" stdDeviation=".25"/></filter><filter id="fe-man-facepalming-medium-ao" width="2.844" height="3.75" x="13.479" y="11.783" color-interpolation-filters="sRGB" filterUnits="userSpaceOnUse"><feFlood flood-opacity="0" result="BackgroundImageFix"/><feBlend in="SourceGraphic" in2="BackgroundImageFix" result="shape"/><feGaussianBlur result="effect1_foregroundBlur_4002_4117" stdDeviation=".25"/></filter><filter id="fe-man-facepalming-medium-ap" width="3.688" height="7.656" x="20.574" y="11.657" color-interpolation-filters="sRGB" filterUnits="userSpaceOnUse"><feFlood flood-opacity="0" result="BackgroundImageFix"/><feBlend in="SourceGraphic" in2="BackgroundImageFix" result="shape"/><feGaussianBlur result="effect1_foregroundBlur_4002_4117" stdDeviation=".25"/></filter><filter id="fe-man-facepalming-medium-ar" width="2.422" height="10.188" x="19.715" y="7.969" color-interpolation-filters="sRGB" filterUnits="userSpaceOnUse"><feFlood flood-opacity="0" result="BackgroundImageFix"/><feBlend in="SourceGraphic" in2="BackgroundImageFix" result="shape"/><feGaussianBlur result="effect1_foregroundBlur_4002_4117" stdDeviation=".25"/></filter><linearGradient id="fe-man-facepalming-medium-e" x1="12.581" x2="14.061" y1="21.52" y2="21.52" gradientUnits="userSpaceOnUse"><stop stop-color="#825757"/><stop offset="1" stop-color="#825757" stop-opacity="0"/></linearGradient><linearGradient id="fe-man-facepalming-medium-j" x1="9.481" x2="8.669" y1="13.698" y2="13.698" gradientUnits="userSpaceOnUse"><stop stop-color="#694448"/><stop offset="1" stop-color="#6e464d"/></linearGradient><linearGradient id="fe-man-facepalming-medium-l" x1="22.917" x2="21.879" y1="11.961" y2="15.177" gradientUnits="userSpaceOnUse"><stop stop-color="#cca68c"/><stop offset="1" stop-color="#ae7f75"/></linearGradient><linearGradient id="fe-man-facepalming-medium-r" x1="20.615" x2="10.934" y1="13.839" y2="15.281" gradientUnits="userSpaceOnUse"><stop stop-color="#c69980"/><stop offset="1" stop-color="#916762"/></linearGradient><linearGradient id="fe-man-facepalming-medium-u" x1="8.659" x2="11.044" y1="17.256" y2="17.171" gradientUnits="userSpaceOnUse"><stop stop-color="#9b7569"/><stop offset="1" stop-color="#9b7569" stop-opacity="0"/></linearGradient><linearGradient id="fe-man-facepalming-medium-v" x1="21.736" x2="20.327" y1="16.19" y2="16.067" gradientUnits="userSpaceOnUse"><stop stop-color="#c1987f"/><stop offset="1" stop-color="#c1987f" stop-opacity="0"/></linearGradient><linearGradient id="fe-man-facepalming-medium-z" x1="14.825" x2="25.148" y1="10.055" y2="6.359" gradientUnits="userSpaceOnUse"><stop stop-color="#c89f8b"/><stop offset="1" stop-color="#c89f8b" stop-opacity="0"/></linearGradient><linearGradient id="fe-man-facepalming-medium-K" x1="19.267" x2="18.734" y1="9.837" y2="8.748" gradientUnits="userSpaceOnUse"><stop stop-color="#5b4545"/><stop offset="1" stop-color="#5b4545" stop-opacity="0"/></linearGradient><linearGradient id="fe-man-facepalming-medium-M" x1="12.543" x2="11.035" y1="9.675" y2="9.043" gradientUnits="userSpaceOnUse"><stop stop-color="#5b4545"/><stop offset="1" stop-color="#5b4545" stop-opacity="0"/></linearGradient><linearGradient id="fe-man-facepalming-medium-O" x1="9.59" x2="9.59" y1="7.121" y2="9.856" gradientUnits="userSpaceOnUse"><stop offset=".228" stop-color="#4a3236"/><stop offset="1" stop-color="#4a3236" stop-opacity="0"/></linearGradient><linearGradient id="fe-man-facepalming-medium-S" x1="17.762" x2="15.061" y1="8.491" y2="19.157" gradientUnits="userSpaceOnUse"><stop stop-color="#7b4254"/><stop offset="1" stop-color="#814d5f"/></linearGradient><linearGradient id="fe-man-facepalming-medium-ah" x1="19.964" x2="20.062" y1="19.465" y2="19.829" gradientUnits="userSpaceOnUse"><stop offset=".245" stop-color="#1b7db4"/><stop offset="1" stop-color="#1b7db4" stop-opacity="0"/></linearGradient><linearGradient id="fe-man-facepalming-medium-ai" x1="19.214" x2="25.652" y1="28.157" y2="26.782" gradientUnits="userSpaceOnUse"><stop stop-color="#2474c2"/><stop offset="1" stop-color="#45aaed"/></linearGradient><linearGradient id="fe-man-facepalming-medium-ak" x1="18.01" x2="19.229" y1="27.829" y2="27.454" gradientUnits="userSpaceOnUse"><stop stop-color="#3476ba"/><stop offset="1" stop-color="#3476ba" stop-opacity="0"/></linearGradient><linearGradient id="fe-man-facepalming-medium-al" x1="19.664" x2="20.008" y1="20.423" y2="21.86" gradientUnits="userSpaceOnUse"><stop offset=".19" stop-color="#0792d5"/><stop offset="1" stop-color="#0792d5" stop-opacity="0"/></linearGradient><linearGradient id="fe-man-facepalming-medium-aq" x1="22.418" x2="22.418" y1="12.532" y2="18.438" gradientUnits="userSpaceOnUse"><stop stop-color="#be9988"/><stop offset="1" stop-color="#be9988" stop-opacity="0"/></linearGradient><linearGradient id="fe-man-facepalming-medium-as" x1="20.925" x2="20.925" y1="8.844" y2="17.282" gradientUnits="userSpaceOnUse"><stop stop-color="#be9988"/><stop offset="1" stop-color="#be9988" stop-opacity="0"/></linearGradient></defs></svg>