<svg xmlns="http://www.w3.org/2000/svg" fill="none" viewBox="0 0 32 32"><path fill="url(#fe-sleeping-face-a)" d="M15.999 29.998c9.334 0 13.999-6.268 13.999-14 0-7.73-4.665-13.998-14-13.998C6.665 2 2 8.268 2 15.999s4.664 13.999 13.999 13.999"/><path fill="url(#fe-sleeping-face-b)" d="M15.999 29.998c9.334 0 13.999-6.268 13.999-14 0-7.73-4.665-13.998-14-13.998C6.665 2 2 8.268 2 15.999s4.664 13.999 13.999 13.999"/><path fill="url(#fe-sleeping-face-c)" d="M15.999 29.998c9.334 0 13.999-6.268 13.999-14 0-7.73-4.665-13.998-14-13.998C6.665 2 2 8.268 2 15.999s4.664 13.999 13.999 13.999"/><path fill="url(#fe-sleeping-face-d)" fill-opacity=".6" d="M15.999 29.998c9.334 0 13.999-6.268 13.999-14 0-7.73-4.665-13.998-14-13.998C6.665 2 2 8.268 2 15.999s4.664 13.999 13.999 13.999"/><path fill="url(#fe-sleeping-face-e)" d="M15.999 29.998c9.334 0 13.999-6.268 13.999-14 0-7.73-4.665-13.998-14-13.998C6.665 2 2 8.268 2 15.999s4.664 13.999 13.999 13.999"/><path fill="url(#fe-sleeping-face-f)" d="M15.999 29.998c9.334 0 13.999-6.268 13.999-14 0-7.73-4.665-13.998-14-13.998C6.665 2 2 8.268 2 15.999s4.664 13.999 13.999 13.999"/><path fill="url(#fe-sleeping-face-g)" d="M15.999 29.998c9.334 0 13.999-6.268 13.999-14 0-7.73-4.665-13.998-14-13.998C6.665 2 2 8.268 2 15.999s4.664 13.999 13.999 13.999"/><path fill="url(#fe-sleeping-face-h)" d="M15.999 29.998c9.334 0 13.999-6.268 13.999-14 0-7.73-4.665-13.998-14-13.998C6.665 2 2 8.268 2 15.999s4.664 13.999 13.999 13.999"/><path stroke="url(#fe-sleeping-face-i)" stroke-linecap="round" stroke-linejoin="round" stroke-width="2" d="M7 17s1 1 3 1 3-1 3-1"/><path stroke="url(#fe-sleeping-face-j)" stroke-linecap="round" stroke-linejoin="round" stroke-width="2" d="M19 17s1 1 3 1 3-1 3-1"/><rect width="4" height="4" x="14" y="22" fill="url(#fe-sleeping-face-k)" rx="2"/><rect width="20" height="20" x="8" fill="url(#fe-sleeping-face-l)" rx="10"/><path fill="url(#fe-sleeping-face-m)" fill-rule="evenodd" d="M28.78 2.374a1 1 0 0 1 .114 1.073l-2.027 4.056 1.89-.473a1 1 0 1 1 .485 1.94l-4 1a1 1 0 0 1-1.136-1.417l2.027-4.056-1.89.473a1 1 0 1 1-.485-1.94l4-1a1 1 0 0 1 1.022.344" clip-rule="evenodd"/><path fill="url(#fe-sleeping-face-n)" fill-rule="evenodd" d="M28.78 2.374a1 1 0 0 1 .114 1.073l-2.027 4.056 1.89-.473a1 1 0 1 1 .485 1.94l-4 1a1 1 0 0 1-1.136-1.417l2.027-4.056-1.89.473a1 1 0 1 1-.485-1.94l4-1a1 1 0 0 1 1.022.344" clip-rule="evenodd"/><path fill="url(#fe-sleeping-face-o)" fill-rule="evenodd" d="m26.077 2.45 1.68-.42a1 1 0 0 1 1.137 1.417l-.774 1.55L28 5a2 2 0 0 1-1.923-2.55" clip-rule="evenodd"/><path fill="#00a6ed" fill-rule="evenodd" d="M19 6.5a.5.5 0 0 1 .5-.5h3a.5.5 0 0 1 .4.8L20.5 10h2a.5.5 0 0 1 0 1h-3a.5.5 0 0 1-.4-.8L21.5 7h-2a.5.5 0 0 1-.5-.5M14.026 8.342a.5.5 0 0 1 .632-.316l3 1a.5.5 0 0 1 .09.908L15.22 11.38l1.94.647a.5.5 0 1 1-.317.948l-3-1a.5.5 0 0 1-.09-.908L16.28 9.62l-1.94-.647a.5.5 0 0 1-.315-.632" clip-rule="evenodd"/><defs><radialGradient id="fe-sleeping-face-a" cx="0" cy="0" r="1" gradientTransform="rotate(132.839 10.786 10.065)scale(37.5033)" gradientUnits="userSpaceOnUse"><stop stop-color="#fff478"/><stop offset=".475" stop-color="#ffb02e"/><stop offset="1" stop-color="#f70a8d"/></radialGradient><radialGradient id="fe-sleeping-face-b" cx="0" cy="0" r="1" gradientTransform="rotate(131.878 10.74 10.193)scale(38.9487)" gradientUnits="userSpaceOnUse"><stop stop-color="#fff478"/><stop offset=".475" stop-color="#ffb02e"/><stop offset="1" stop-color="#f70a8d"/></radialGradient><radialGradient id="fe-sleeping-face-c" cx="0" cy="0" r="1" gradientTransform="rotate(101.31 2.876 12.808)scale(17.8466 22.8581)" gradientUnits="userSpaceOnUse"><stop offset=".788" stop-color="#f59639" stop-opacity="0"/><stop offset=".973" stop-color="#ff7dce"/></radialGradient><radialGradient id="fe-sleeping-face-d" cx="0" cy="0" r="1" gradientTransform="matrix(-29 29 -29 -29 18 14)" gradientUnits="userSpaceOnUse"><stop offset=".315" stop-opacity="0"/><stop offset="1"/></radialGradient><radialGradient id="fe-sleeping-face-e" cx="0" cy="0" r="1" gradientTransform="rotate(77.692 -2.555 18.434)scale(28.1469)" gradientUnits="userSpaceOnUse"><stop offset=".508" stop-color="#7d6133" stop-opacity="0"/><stop offset="1" stop-color="#715b32"/></radialGradient><radialGradient id="fe-sleeping-face-f" cx="0" cy="0" r="1" gradientTransform="rotate(55.713 -7.36 23.86)scale(13.3135 9.65032)" gradientUnits="userSpaceOnUse"><stop stop-color="#ffb849"/><stop offset="1" stop-color="#ffb847" stop-opacity="0"/></radialGradient><radialGradient id="fe-sleeping-face-g" cx="0" cy="0" r="1" gradientTransform="matrix(11.49998 2 -2 11.49998 20.5 18)" gradientUnits="userSpaceOnUse"><stop stop-color="#ffa64b"/><stop offset=".9" stop-color="#ffae46" stop-opacity="0"/></radialGradient><radialGradient id="fe-sleeping-face-h" cx="0" cy="0" r="1" gradientTransform="rotate(43.97 -9.827 29.173)scale(59.0529)" gradientUnits="userSpaceOnUse"><stop offset=".185" stop-opacity="0"/><stop offset="1" stop-opacity=".4"/></radialGradient><radialGradient id="fe-sleeping-face-k" cx="0" cy="0" r="1" gradientTransform="rotate(-90 21.444 5.444)scale(4.88889)" gradientUnits="userSpaceOnUse"><stop stop-color="#f70a8d"/><stop offset="1" stop-color="#89029c"/></radialGradient><radialGradient id="fe-sleeping-face-l" cx="0" cy="0" r="1" gradientTransform="matrix(7.5 -3 2.14127 5.35318 16.5 11.5)" gradientUnits="userSpaceOnUse"><stop stop-color="#efa031"/><stop offset="1" stop-color="#f0a83e" stop-opacity="0"/></radialGradient><radialGradient id="fe-sleeping-face-n" cx="0" cy="0" r="1" gradientTransform="matrix(-3.50001 .99998 -.23103 -.80862 29 7.5)" gradientUnits="userSpaceOnUse"><stop stop-color="#63befe"/><stop offset="1" stop-color="#63befe" stop-opacity="0"/></radialGradient><radialGradient id="fe-sleeping-face-o" cx="0" cy="0" r="1" gradientTransform="matrix(1 1 -1 1 28 2.5)" gradientUnits="userSpaceOnUse"><stop stop-color="#63befe"/><stop offset="1" stop-color="#4fb5fc" stop-opacity="0"/></radialGradient><linearGradient id="fe-sleeping-face-i" x1="11.2" x2="10.965" y1="16.75" y2="18.161" gradientUnits="userSpaceOnUse"><stop stop-color="#52383e"/><stop offset="1" stop-color="#432a35"/></linearGradient><linearGradient id="fe-sleeping-face-j" x1="23.2" x2="22.965" y1="16.75" y2="18.161" gradientUnits="userSpaceOnUse"><stop stop-color="#52383e"/><stop offset="1" stop-color="#432a35"/></linearGradient><linearGradient id="fe-sleeping-face-m" x1="24" x2="28" y1="8.5" y2="6.5" gradientUnits="userSpaceOnUse"><stop stop-color="#2c80e2"/><stop offset="1" stop-color="#00a6ed"/></linearGradient></defs></svg>