<svg xmlns="http://www.w3.org/2000/svg" fill="none" viewBox="0 0 32 32"><path fill="#966661" d="M21.697 7.667c1.726 4.216 5.703 5.84 6.578 6.746s.973 2.594 0 3.63c-1.258 1.338-2.569.994-4.094.093-.515-.305-2.218-1.437-2.218-1.437v10.25c0 2.11-1.262 3.041-2.422 3.041s-2.563-1.166-2.563-3.041V22.98s-.611 1.313-2.408 1.313-2.31-1.625-2.31-1.625-.383.851-2.055.851c-1.578 0-2.213-1.652-2.213-1.652s-.6.605-2.006.605c-1.078 0-2.976-1.523-2.976-3.164 0-7.09.701-17.318 10.095-17.318 2.49-.01 6.866 1.462 8.592 5.677"/><path fill="#764C49" fill-rule="evenodd" d="M8.984 23.13c-.694-.488-.992-1.263-.992-1.263l-.008.008V18.5a.5.5 0 0 1 1 0zM13.25 23.923c-.745-.48-.99-1.255-.99-1.255l-.01.018v-2.178a.5.5 0 0 1 1 0zM19.171 29.952c-.98-.196-2.01-1.15-2.171-2.605v-7.313c.01-.54.016-1.027.016-1.425 0-.797.968-.859.968 0v9.037c0 1.392.37 1.903 1.187 2.306" clip-rule="evenodd"/></svg>