<svg xmlns="http://www.w3.org/2000/svg" fill="none" viewBox="0 0 32 32"><path fill="#F92F60" d="M2 16C2 8.268 8.268 2 16 2s14 6.268 14 14-6.268 14-14 14S2 23.732 2 16"/><path fill="#fff" d="M13 7a1 1 0 0 1 1-1h8a1 1 0 0 1 1 1v6a1 1 0 0 1-1 1h-8a1 1 0 0 1-1-1zm7.875 4h-5.75a.125.125 0 0 0-.125.125v.75c0 .069.056.125.125.125h5.75a.125.125 0 0 0 .125-.125v-.75a.125.125 0 0 0-.125-.125M15 8.875c0 .069.056.125.125.125h5.75A.125.125 0 0 0 21 8.875v-.75A.125.125 0 0 0 20.875 8h-5.75a.125.125 0 0 0-.125.125zM6.707 12.294a1 1 0 0 1 0-1.415l3.536-3.535a1 1 0 1 1 1.414 1.414L8.12 12.294a1 1 0 0 1-1.414 0M9 16.342a.125.125 0 0 0-.213-.089l-.666.666a1 1 0 0 1-1.414-1.415l3.536-3.535a1 1 0 0 1 1.414 1.414l-.62.62a.13.13 0 0 0-.037.089V25a1 1 0 1 1-2 0zM15.7 21.254a1 1 0 0 0-1.415 1.414l1.414 1.414a1 1 0 0 0 1.415-1.414z"/><path fill="#fff" d="M13 15a1 1 0 1 0 0 2h6.875c.069 0 .125.056.125.125v.75a.125.125 0 0 1-.125.125H13a1 1 0 1 0 0 2h6.875c.069 0 .125.056.125.125v3.75a.125.125 0 0 1-.125.125H19a1 1 0 1 0 0 2h2a1 1 0 0 0 1-1v-4.875c0-.069.056-.125.125-.125H24a1 1 0 1 0 0-2h-1.875a.125.125 0 0 1-.125-.125v-.75c0-.069.056-.125.125-.125H24a1 1 0 1 0 0-2z"/></svg>