<svg width="32" height="32" fill="none" xmlns="http://www.w3.org/2000/svg"><path d="M23.958 2H8.042A3.046 3.046 0 0 0 5 5.05v21.9A3.046 3.046 0 0 0 8.042 30h15.916A3.046 3.046 0 0 0 27 26.95V5.05A3.046 3.046 0 0 0 23.958 2Z" fill="#BEBEBE"/><path d="M7 7.25a.75.75 0 0 1 .75-.75h2.5a.75.75 0 0 1 0 1.5h-2.5A.75.75 0 0 1 7 7.25Zm.75 8a.75.75 0 0 0 0 1.5h2.5a.75.75 0 0 0 0-1.5h-2.5Zm14 0a.75.75 0 0 0 0 1.5h2.5a.75.75 0 0 0 0-1.5h-2.5Zm0-8.75a.75.75 0 0 0 0 1.5h2.5a.75.75 0 0 0 0-1.5h-2.5ZM7 25.25a.75.75 0 0 1 .75-.75h2.5a.75.75 0 0 1 0 1.5h-2.5a.75.75 0 0 1-.75-.75Zm14.75-.75a.75.75 0 0 0 0 1.5h2.5a.75.75 0 0 0 0-1.5h-2.5Z" fill="#636363"/><path d="M12.5 9a3.5 3.5 0 1 1 7 0v14a3.5 3.5 0 1 1-7 0V9Z" fill="#D3D3D3"/><path d="M13.5 9a2.5 2.5 0 0 1 5 0v14a2.5 2.5 0 0 1-5 0V9Z" fill="#635994"/><path d="M11 12a2 2 0 0 1 2-2h6a2 2 0 1 1 0 4h-6a2 2 0 0 1-2-2Z" fill="#00A6ED"/></svg>