<svg xmlns="http://www.w3.org/2000/svg" fill="none" viewBox="0 0 32 32"><path fill="#B4ACBC" d="M6 13a4 4 0 0 0 0 8h20a4 4 0 0 0 0-8zm-2 4a2 2 0 0 1 2-2h4v4H6a2 2 0 0 1-2-2m22 2h-4v-4h4a2 2 0 1 1 0 4"/><path fill="#CDC4D6" d="M7 14h18v7a9 9 0 1 1-18 0z"/><path fill="#E1D8EC" d="M25 14a9 9 0 1 1-18 0 9 9 0 0 1 18 0"/><path fill="#FF6723" d="M24 14a8 8 0 1 1-16 0 8 8 0 0 1 16 0"/><path fill="#FCD53F" d="M18 18a2 2 0 1 1 4 0zM11 19a1 1 0 1 1 2 0z"/><path fill="#00D26A" d="M20 10a2 2 0 0 0-2 2 1 1 0 1 0-2 0h6a2 2 0 0 0-2-2M14 21a2 2 0 1 1 4 0z"/><path fill="#990838" d="M15.75 9a.75.75 0 1 1-1.5 0 .75.75 0 0 1 1.5 0M10.75 16a.75.75 0 1 1-1.5 0 .75.75 0 0 1 1.5 0M21 14.75a.75.75 0 1 0 0-1.5.75.75 0 0 0 0 1.5"/><path fill="#7D4533" d="M12.561 10.976c.967 0 1.75.783 1.75 1.75 0 .55.446.995.995.995a1.75 1.75 0 1 1 0 3.5 4.495 4.495 0 0 1-4.495-4.495c0-.967.784-1.75 1.75-1.75"/></svg>