<svg width="32" height="32" fill="none" xmlns="http://www.w3.org/2000/svg"><path d="M25.897 25.899c6.6-6.6 5.467-14.33 0-19.798C20.43.634 12.7-.499 6.1 6.101c-6.6 6.6-5.467 14.33 0 19.798 5.467 5.467 13.197 6.6 19.797 0Z" fill="#FFB02E"/><path d="M15.051 5.784a1 1 0 1 1 1.898.633l-.782 2.345 2.345-.782a1 1 0 1 1 .633 1.898l-4.243 1.414a1 1 0 0 1-1.265-1.265l1.414-4.243ZM5.784 15.051a1 1 0 1 0 .633 1.898l2.345-.782-.782 2.345a1 1 0 0 0 1.898.633l1.414-4.243a1 1 0 0 0-1.265-1.265l-4.243 1.414Z" fill="#402A32"/><path d="M22.364 22.364c-6.364 6.364-12.728 0-12.728 0L22.364 9.636s6.364 6.364 0 12.728Z" fill="#BB1D80"/><path d="m10.697 22.01-.354-.353 11.314-11.314.353.354a1 1 0 0 1 0 1.414l-9.9 9.9a1 1 0 0 1-1.413 0Z" fill="#fff"/><path d="M11.05 22.364v4.766a2.121 2.121 0 1 1-4.242 0v-4.766a2.121 2.121 0 1 1 4.242 0ZM22.54 10.873h4.766a2.121 2.121 0 0 0 0-4.242h-4.765a2.121 2.121 0 1 0 0 4.242Z" fill="#3F5FFF"/></svg>