<svg xmlns="http://www.w3.org/2000/svg" fill="none" viewBox="0 0 32 32"><path fill="#F8312F" d="m19.056 10.97-4.839-3.548-.002.003a2.75 2.75 0 0 0-3.247 4.429l-.003.003.08.058q.042.033.085.063l4.67 3.424a2.75 2.75 0 1 0 3.256-4.433"/><path fill="#F8312F" d="M8.665 7.157a1.125 1.125 0 0 1 1.573-.242l2.218 1.626a1.125 1.125 0 1 1-1.33 1.815L8.906 8.73a1.125 1.125 0 0 1-.242-1.573"/><path fill="#9B9B9B" d="M14.892 14.125a2.8 2.8 0 0 1-.137-1.038l4.553-1.91q.07.062.137.129a2.75 2.75 0 0 1-1.091 4.559l-3.11 1.387 2.12 4.623a1.5 1.5 0 1 1-2.728 1.25l-2.75-6a1.5 1.5 0 0 1 .753-1.995z"/><path fill="#00A6ED" d="M24.458 10.473a.5.5 0 0 1-.268.655l-15.635 6.6a.5.5 0 0 1-.387-.921l15.635-6.601a.5.5 0 0 1 .655.267"/><path fill="#C68D7B" d="m6.272 9.166-.227-.416H5.82a.5.5 0 0 1-.496-.561l.077-.623-.158-.288a2.392 2.392 0 1 1 4.26-2.174l.293.615a3 3 0 0 1-1.238 3.905l-.233.13a1.5 1.5 0 0 1-2.052-.588M8.174 15.544c.37-.63 1.45.09 1.45.09l.95 2.22-.94.48q-.036.016-.077.036c-.294.137-.77.361-1.053.334-.36-.03-.8-.58-1.01-1.07 0 0-.25-.61-.18-1.16.05-.41.53-.39.53-.39s.1-.15.33-.54"/><path fill="#593B39" d="M10.5 5.5q-.001.269-.088.508a.5.5 0 0 1 .442.846l-.395.35c-.276.246-.721.117-.894-.21a3.76 3.76 0 0 0-2.04-1.771A1.5 1.5 0 0 1 10.5 5.5"/><path fill="#990838" d="M7.125 8.219c.07 0 .125.056.125.125 0 .174-.042.34-.15.465-.11.127-.274.191-.475.191a.125.125 0 1 1 0-.25c.146 0 .234-.045.286-.105.055-.064.09-.163.09-.301 0-.07.055-.125.124-.125"/><path fill="#00A6ED" d="M9.969 3.403c-.47-1.158-1.77-1.711-2.895-1.228l-1.711.745C4.238 3.403 3.7 4.742 4.17 5.9l.127.311a.46.46 0 0 0 .606.252l1.673-.725a.73.73 0 0 1 .968.413.31.31 0 0 0 .4.171l2.21-.956a.603.603 0 0 0 .304-.765z"/><path fill="#0074BA" d="M8 5.5a.5.5 0 1 0 0-1 .5.5 0 0 0 0 1"/><path fill="#26EAFC" d="m5.325 7.69.01-.003a.13.13 0 0 1 .103.011l.956.571.91-.39a1.106 1.106 0 1 0-.871-2.033l-1.578.676c.043.278.135.553.278.815z"/><path fill="#9B9B9B" d="M5.349 7.732q.015.028.044.046l.573.35a1 1 0 0 0 .915.066l.472-.203a1.231 1.231 0 0 0-.97-2.263l-1.545.663q.025.252.104.5l1.638-.703a.731.731 0 0 1 .576 1.344l-.61.262a.25.25 0 0 1-.229-.016l-.421-.255a.5.5 0 0 0-.469-.026l-.166.077z"/><path fill="#FF822D" d="M8.848 17.237a1.25 1.25 0 0 1 .667-1.637l3.359-1.416a.25.25 0 0 0 .133-.329L11.35 9.992a1.25 1.25 0 1 1 2.298-.984l1.656 3.862a2.75 2.75 0 0 1-1.46 3.618l-3.36 1.415a1.25 1.25 0 0 1-1.637-.666"/><path fill="#00A6ED" d="m16.4 19.127 1.959 4.908a.4.4 0 0 1-.216.516l-.292.124-4.997 2.13a.5.5 0 0 1-.655-.263l-.22-.51a1 1 0 0 1 .12-.997l1.872-2.489-.954-1.976a1 1 0 0 1 .625-1.396L14 19.07c.145-.041.299.027.367.162a.314.314 0 0 0 .404.148l1.1-.473a.4.4 0 0 1 .53.22"/><path fill="#26EAFC" d="m16.4 19.127 1.35 3.373-1.903.745a1.5 1.5 0 0 1-1.897-.744l-.933-1.931a1 1 0 0 1 .626-1.396L14 19.07c.145-.041.299.027.367.162a.314.314 0 0 0 .404.148l1.1-.473a.4.4 0 0 1 .53.22"/><path fill="#0074BA" d="M22.493 9.427c.155-.108.357-.022.43.157l1.05 2.582c.073.178-.008.387-.192.425a1.69 1.69 0 0 1-1.898-1.039 1.78 1.78 0 0 1 .61-2.125M12.987 20.503l3.603-.9-.19-.476a.4.4 0 0 0-.529-.219l-1.1.473a.314.314 0 0 1-.404-.148.314.314 0 0 0-.367-.162l-.357.103a1 1 0 0 0-.656 1.33M13.888 22.365a.25.25 0 0 1-.337-.115l-.218-.45a.25.25 0 0 1 .114-.332l.83-.415a.5.5 0 1 1 .447.894zM12.602 24.309a.25.25 0 0 1-.023-.327l.303-.404a.25.25 0 0 1 .377-.026l.595.594a.5.5 0 0 1-.707.708zM18.359 24.035l-.264-.661-1.772.756a.5.5 0 0 0-.268.645l.227.569 1.862-.793a.4.4 0 0 0 .215-.516M13.974 25.689a.5.5 0 0 0-.66-.275l-1.351.577c.07.186.15.37.231.553a.506.506 0 0 0 .66.26l1.338-.57z"/><path fill="#FF822D" d="M26.96 21.51a.5.5 0 0 1-.263.654L8.653 29.86a1.744 1.744 0 0 1-2.241-.82l-.332-.658a.747.747 0 1 1 1.335-.671l.331.658c.06.117.2.169.32.117l18.045-7.696a.5.5 0 0 1 .653.262z"/></svg>