<svg xmlns="http://www.w3.org/2000/svg" fill="none" viewBox="0 0 32 32"><path fill="#BEBEBE" d="M21.913 29.37 2.653 10.11c-.87-.87-.87-2.27 0-3.13l4.31-4.3a2.206 2.206 0 0 1 2.808-.27l-.11.754.803-.112 1.672 1.671v.692h.692l1.746 1.746-.113.816.799-.13 1.689 1.69-.127.8.784-.144 1.752 1.752-.118.81.792-.135 1.66 1.66-.08.744.743-.081 1.776 1.775-.073.752.753-.072 1.677 1.678-.087.737.738-.086 1.833 1.833v.678h.628a2.2 2.2 0 0 1-.258 2.822l-4.3 4.3c-.86.87-2.27.87-3.13.01"/><path fill="#8D65C5" d="m28.93 21.517.413.413q.15.151.266.32l-1.903 1.904a.5.5 0 1 1-.707-.707zM26.45 19.037l.707.707-1.175 1.214a.5.5 0 0 1-.719-.696zM24.11 16.697l.706.707-1.93 1.93a.5.5 0 1 1-.707-.707zM21.67 14.257l.707.707-1.175 1.214a.5.5 0 0 1-.719-.696zM19.33 11.917l.706.707-1.93 1.93a.5.5 0 1 1-.707-.707zM16.91 9.497l.706.707-1.187 1.207a.5.5 0 1 1-.713-.702zM14.56 7.147l.706.707-1.93 1.93a.5.5 0 1 1-.707-.707zM12.13 4.717l.706.707-1.175 1.205a.5.5 0 1 1-.716-.698zM10.486 3.074l-1.93 1.93a.5.5 0 0 1-.707-.707l1.9-1.9q.183.12.344.283z"/></svg>