<svg xmlns="http://www.w3.org/2000/svg" fill="none" viewBox="0 0 32 32"><path fill="#212121" stroke="#212121" d="m23.086 19.52-.011-.01-.013-.01a.635.635 0 0 0-.794 0l-.012.01-.012.01-2.59 2.35-.002.002a.47.47 0 0 1-.634 0l-.002-.002-2.59-2.35-.011-.01-.013-.01a.635.635 0 0 0-.794 0l-.013.01-.011.01-2.59 2.35-.002.002a.47.47 0 0 1-.634 0l-.002-.002-2.59-2.35-.012-.01-.012-.01a.635.635 0 0 0-.794 0l-.012.01-.012.01-2.588 2.348h-.001a.48.48 0 0 1-.673-.032.48.48 0 0 1 .032-.674l.002-.002 3.33-3.02.002-.002a.47.47 0 0 1 .634 0l.002.002 2.59 2.35.011.01.013.01a.635.635 0 0 0 .794 0l.013-.01.011-.01 2.59-2.35.002-.002a.47.47 0 0 1 .634 0l.002.002 2.59 2.35.011.01.013.01a.635.635 0 0 0 .794 0l.012-.01.012-.01 2.59-2.35.002-.002a.47.47 0 0 1 .634 0l.002.002 3.33 3.02.002.002c.192.173.21.476.033.673a.46.46 0 0 1-.349.155.5.5 0 0 1-.326-.122zm3.252-5.694-.008.009a.43.43 0 0 1-.33.145.5.5 0 0 1-.326-.122l-2.588-2.348-.011-.01-.013-.01a.635.635 0 0 0-.794 0l-.012.01-.012.01-2.59 2.35-.002.002a.47.47 0 0 1-.634 0l-.002-.002-2.59-2.35-.011-.01-.013-.01a.635.635 0 0 0-.794 0l-.013.01-.011.01-2.59 2.35-.002.002a.47.47 0 0 1-.634 0l-.003-.003-2.6-2.35-.01-.01-.013-.01a.635.635 0 0 0-.794 0l-.013.01-.011.01-2.588 2.35h-.001a.48.48 0 0 1-.673-.034.48.48 0 0 1 .032-.673l.002-.002 3.33-3.02.002-.002a.47.47 0 0 1 .634 0l.002.002 2.59 2.35.011.01.013.01a.635.635 0 0 0 .794 0l.013-.01.011-.01 2.59-2.35.002-.002a.47.47 0 0 1 .634 0l.002.002 2.59 2.35.012.01.012.01a.635.635 0 0 0 .794 0l.012-.01.012-.01 2.59-2.35.002-.002a.47.47 0 0 1 .634 0l.002.002 3.33 3.02.002.002c.192.173.21.477.032.674ZM1.5 6A4.5 4.5 0 0 1 6 1.5h20A4.5 4.5 0 0 1 30.5 6v20a4.5 4.5 0 0 1-4.5 4.5H6A4.5 4.5 0 0 1 1.5 26zM6 2.5A3.5 3.5 0 0 0 2.5 6v20A3.5 3.5 0 0 0 6 29.5h20a3.5 3.5 0 0 0 3.5-3.5V6A3.5 3.5 0 0 0 26 2.5z"/></svg>