<svg width="32" height="32" fill="none" xmlns="http://www.w3.org/2000/svg"><path d="M12.24 12.25a.75.75 0 0 0 0 1.5h1.99v4.77a.75.75 0 0 0 1.5 0v-4.77h1.98a.75.75 0 0 0 0-1.5h-5.47ZM26.847 12.405a.752.752 0 0 1 .293.595v5.52a.75.75 0 0 1-1.5 0v-3.71l-1.67 1.67a.748.748 0 0 1-.535.22.748.748 0 0 1-.536-.22l-1.659-1.665v3.705a.75.75 0 0 1-1.5 0V13a.753.753 0 0 1 .463-.693.746.746 0 0 1 .818.164l2.415 2.422 2.424-2.423a.748.748 0 0 1 .518-.22h.012a.747.747 0 0 1 .457.155ZM9.028 12.879c-.22-.465-.69-.572-.953-.572-.262 0-.733.107-.953.572l-2.444 5.328a.75.75 0 0 0 1.364.626l.405-.883h3.256l.405.883a.75.75 0 0 0 1.364-.626l-2.44-5.32-.004-.008Zm-.013 3.571h-1.88l.94-2.05.94 2.05Z" fill="#212121"/><path d="M6 1a5 5 0 0 0-5 5v20a5 5 0 0 0 5 5h20a5 5 0 0 0 5-5V6a5 5 0 0 0-5-5H6ZM3 6a3 3 0 0 1 3-3h20a3 3 0 0 1 3 3v20a3 3 0 0 1-3 3H6a3 3 0 0 1-3-3V6Z" fill="#212121"/></svg>