<svg width="32" height="32" fill="none" xmlns="http://www.w3.org/2000/svg"><path d="M26.861 5.14c-2.853-2.854-7.477-2.852-10.336-.002L5.139 16.524a7.314 7.314 0 0 0 0 10.337 7.314 7.314 0 0 0 10.337 0l11.385-11.385a7.314 7.314 0 0 0 0-10.337Zm-8.924 1.414a5.314 5.314 0 0 1 7.51 0 5.314 5.314 0 0 1 0 7.508L14.062 25.447a5.314 5.314 0 0 1-7.509 0 5.314 5.314 0 0 1 0-7.51l.128-.127 3.732 3.731a1.556 1.556 0 0 0 2.206 0 1.556 1.556 0 0 0 0-2.206l-3.732-3.731 2.255-2.255 3.736 3.736a1.556 1.556 0 0 0 2.207 0 1.572 1.572 0 0 0 0-2.207l-3.736-3.736 2.255-2.255 3.731 3.732a1.556 1.556 0 0 0 2.207 0 1.556 1.556 0 0 0 0-2.207l-3.732-3.73.127-.128Z" fill="#212121"/></svg>