<svg xmlns="http://www.w3.org/2000/svg" fill="none" viewBox="0 0 32 32"><path fill="#212121" d="M9 6c0-2 1.5-4 4-4h6c2.5 0 4 2 4 4v5h6a2 2 0 0 1 2 2v3a2 2 0 0 1-1.9 1.998l-3.005 10.138A4 4 0 0 1 22.26 31H9.716a4 4 0 0 1-3.823-2.824l-3.136-10.19A2 2 0 0 1 1 16v-3a2 2 0 0 1 2-2h6zm2 5h10V6c0-2.5-1.5-3-3-3h-4c-1.5 0-3 .5-3 3zm10 2H3v3h26v-3h-6v1a1 1 0 1 1-2 0zm4.314 5 .91.91.738-.738.05-.172zm-3.333.91.91-.91h-1.82zM16.83 18l.91.91.91-.91zm-3.333.91.91-.91h-1.82zm-4.243 0 .91-.91h-1.82zM4.854 18l.25.816L5.92 18zm.963 3.131.286.929.322-.322zm20.484-.73-.077-.077-1.414 1.414.845.845zm-1.126 3.8.156-.527-1.229-1.229-1.414 1.415 1.414 1.414zm-.813 2.746-.26-.259-1.414 1.414.608.608c.416-.251.736-.652.882-1.142zM22.172 29l-.19-.19-.191.19zm-1.796 0 .898-.898-1.414-1.414-1.414 1.414.897.898zm-2.828 0h.381l-.19-.19zm-1.414 0 .897-.898-1.414-1.414-1.414 1.414.898.898zm-2.829 0h.381l-.19-.19zm-1.414 0 .898-.898-1.415-1.414-1.414 1.414.898.898zm-2.469-.022-.169-.169-.108.108q.136.04.277.061m-1.154-.598.278-.278-.843-.843.101.33c.094.303.255.572.464.791m-1.194-3.163.058.057 1.414-1.414-1.414-1.415-.696.696zm.058-7.014-1.414 1.414 1.414 1.414 1.414-1.414zm2.121 2.121L7.84 21.738l1.414 1.415 1.414-1.415zm2.121 2.121L9.96 23.86l1.414 1.414 1.415-1.414zm.708-.707 1.414 1.415 1.414-1.415-1.414-1.414zm1.414 2.829-1.414 1.414 1.414 1.414 1.414-1.414zm2.121.707 1.414-1.414-1.414-1.415-1.414 1.415zm-4.243-4.243 1.415-1.414-1.415-1.414-1.414 1.414zm9.193 4.95 1.414 1.414 1.414-1.414-1.414-1.414zm2.828-4.243-1.414-1.414-1.414 1.414 1.414 1.415zm-5.657 5.657 1.415-1.414-1.415-1.414-1.414 1.414zm.708-7.778 1.414 1.414 1.414-1.414-1.414-1.414zm-1.415 0-1.414-1.414-1.414 1.414 1.414 1.414zm7.072 1.414 1.414-1.414-1.415-1.414-1.414 1.414zm-7.779.707 1.414 1.415 1.415-1.415-1.415-1.414zm-7.07 5.657 1.413-1.414-1.414-1.414L7.84 25.98zm9.192-3.535 1.414 1.414 1.414-1.414-1.414-1.415z"/></svg>