<svg xmlns="http://www.w3.org/2000/svg" fill="none" viewBox="0 0 32 32"><path fill="#212121" d="M9.447 13.106a1 1 0 0 0-.894 1.788L10.763 16l-2.21 1.105a1 1 0 0 0 .894 1.79l4-2a1 1 0 0 0 0-1.79zM23.895 13.553a1 1 0 0 0-1.342-.448l-4 2a1 1 0 0 0 0 1.79l4 2a1 1 0 1 0 .894-1.79L21.237 16l2.21-1.106a1 1 0 0 0 .448-1.341M12.293 20.293a1 1 0 0 1 1.414 0L16 22.586l2.293-2.293a1 1 0 0 1 1.414 0L22 22.586l1.293-1.293a1 1 0 0 1 1.414 1.414l-2 2a1 1 0 0 1-1.414 0L19 22.414l-2.293 2.293a1 1 0 0 1-1.414 0L13 22.414l-2.293 2.293a1 1 0 0 1-1.414 0l-2-2a1 1 0 1 1 1.414-1.414L10 22.586z"/><path fill="#212121" d="M15.999 1C11.095 1 7.313 2.654 4.763 5.423 2.226 8.178 1 11.938 1 15.999s1.226 7.82 3.763 10.576c2.55 2.769 6.332 4.423 11.236 4.423s8.686-1.654 11.235-4.423c2.537-2.755 3.764-6.515 3.764-10.576S29.77 8.178 27.234 5.423C24.684 2.654 20.903 1 16 1M3 15.999c0-3.67 1.106-6.91 3.235-9.221C8.35 4.48 11.568 3 15.999 3s7.648 1.48 9.764 3.778c2.129 2.311 3.235 5.55 3.235 9.22s-1.106 6.91-3.235 9.222c-2.116 2.298-5.333 3.778-9.764 3.778s-7.648-1.48-9.764-3.778C4.105 22.91 3 19.67 3 16"/></svg>