<svg xmlns="http://www.w3.org/2000/svg" fill="none" viewBox="0 0 32 32"><path fill="#212121" d="M21.641 4.54c.36-.74 1.42-.73 1.77.01.13.28.47.39.75.24l.17-.09c.66-.35 1.44.21 1.3.94l-.04.19c-.06.3.15.59.46.63l.19.03c.74.1 1.04 1 .49 1.51l-.14.13c-.23.21-.23.56 0 .77l.14.13c.54.51.24 1.41-.5 1.51l-.2.02c-.31.04-.52.32-.46.62l.03.19c.13.73-.65 1.28-1.3.93l-.17-.09a.544.544 0 0 0-.75.24c-.36.74-1.42.73-1.77-.01a.54.54 0 0 0-.75-.24l-.17.09c-.66.35-1.44-.21-1.3-.94l.04-.19c.06-.3-.15-.59-.46-.63l-.19-.03c-.74-.1-1.04-1-.49-1.51l.14-.13c.23-.21.23-.56 0-.77l-.14-.13c-.54-.51-.24-1.41.5-1.51l.19-.02c.31-.04.52-.32.46-.62l-.03-.19c-.13-.73.65-1.28 1.3-.93l.17.09c.29.15.63.04.76-.24M3.71 21.867v-.857h1.139v2.204h-.132c-.425 0-.633-.11-.753-.254-.138-.166-.254-.485-.254-1.093"/><path fill="#212121" d="M5.7 1A4.7 4.7 0 0 0 1 5.7v20.6A4.7 4.7 0 0 0 5.7 31h20.6a4.7 4.7 0 0 0 4.7-4.7V5.7A4.7 4.7 0 0 0 26.3 1zM3.011 5.452A2.7 2.7 0 0 1 5.7 3h20.6A2.7 2.7 0 0 1 29 5.7v13.716a1 1 0 0 0-.004.068c0 .28-.208.52-.487.52a.51.51 0 0 1-.494-.52v-1.973c0-.313-.252-.515-.531-.515h-.01c-.28 0-.47-.23-.47-.51v-.976c0-.28-.247-.51-.527-.51h-2.189C23.58 15 23 15.58 23 16.29v1.204c0 .28-.21.51-.489.51h-.995c-.28 0-.51.23-.51.51v.985c0 .28-.229.51-.509.51h-2.479a4.3 4.3 0 0 1-.7 1.042.37.37 0 0 0-.102-.17l-.226-.213c1.034-1.175 1.024-2.607 1.018-3.44l-.001-.171V15.25c0-.887-.72-1.574-1.795-1.574-.442 0-.816.092-1.104.271l-.06-.056a.369.369 0 0 0-.506.536l.073.07c-.1.211-.154.463-.154.753v2.172c0 1.24-1.175 1.34-1.507 1.34h-.613v-4.491c0-.584-.143-1.134-.396-1.618l.32-.32a.369.369 0 1 0-.521-.522l-.217.217a3.49 3.49 0 0 0-2.682-1.253c-1.07 0-2.026.48-2.668 1.236l-.216-.211a.369.369 0 1 0-.521.522l.314.314a3.5 3.5 0 0 0-.405 1.635v1.624h-.385a.369.369 0 1 0 0 .737h.385v7.081h-.632c-1.023 0-1.507-.542-1.507-1.847V20.6a.3.3 0 0 0 .124-.078l.457-.457a.369.369 0 0 0-.521-.522l-.06.052V17.61c0-.357-.08-.648-.199-.88zm.27 22.048a2.7 2.7 0 0 1-.212-.59c.692.246 1.396.323 2.28.33v.517h-.5v-.03a7 7 0 0 1-1.568-.227m2.068 1.477a2.7 2.7 0 0 1-.5-.114v-.368h.5zM7.878 29h-.75v-3.062H5.66c-.735 0-1.729-.089-2.649-.528v-.853c.843.517 1.844.631 2.649.631h1.468v-3.521l.75.813zm2.27-10.996h.75v5.283l-.75.692zm0 10.996v-4.039a.4.4 0 0 0 .09-.06l.66-.61V29zm0-13.712a.375.375 0 0 1 .75 0v1.978h-.75zM12.842 29h-.5v-1.895h.346a.4.4 0 0 0 .154-.034zm3.592-7.81.02-.015.256.243q.063.057.137.082l-.106.085q-.213.165-.445.304a6 6 0 0 1-1.199.54c-.8.264-1.617.376-2.255.41v3.562a.4.4 0 0 0-.154-.034h-.346v-4.015c1.01.007 2.868-.21 4.092-1.162m-8.555-5.902v6.104l-.75-.814v-5.29a.375.375 0 1 1 .75 0m7.909.929a.375.375 0 0 1 .75 0q.001.239.011.527c.014.454.03.976-.021 1.45-.075.69-.3 1.42-.965 1.87-.559.378-1.022.594-1.585.708-.476.096-1.013.116-1.716.12v-.75c.697-.005 1.167-.025 1.568-.106.44-.088.812-.254 1.313-.593.393-.266.574-.721.64-1.329.045-.422.031-.85.018-1.28a20 20 0 0 1-.013-.617"/></svg>