<svg xmlns="http://www.w3.org/2000/svg" fill="none" viewBox="0 0 32 32"><path fill="#212121" d="M14.465 2.811q.742-.06 1.535-.061.793 0 1.535.061a.75.75 0 0 0 .123-1.495A20 20 0 0 0 16 1.25q-.851 0-1.658.066a.75.75 0 0 0 .123 1.495M22.009 2.25a.75.75 0 0 0-.52 1.407c.982.364 1.867.829 2.657 1.379a.75.75 0 0 0 .857-1.23A13.3 13.3 0 0 0 22.01 2.25M10.512 3.657a.75.75 0 1 0-.52-1.406c-1.1.406-2.098.93-2.995 1.554a.75.75 0 0 0 .857 1.231c.79-.55 1.675-1.015 2.658-1.379M5.06 7.852a.75.75 0 1 0-1.236-.85 13.8 13.8 0 0 0-1.546 2.993.75.75 0 1 0 1.405.525c.358-.96.817-1.853 1.377-2.668M28.176 7.002a.75.75 0 1 0-1.236.85c.56.815 1.02 1.709 1.377 2.668a.75.75 0 0 0 1.405-.525 13.8 13.8 0 0 0-1.546-2.993M2.815 14.469a.75.75 0 1 0-1.494-.13 19 19 0 0 0 0 3.322.75.75 0 1 0 1.494-.13 17.7 17.7 0 0 1 0-3.062M30.679 14.34a.75.75 0 1 0-1.494.129 17.7 17.7 0 0 1 0 3.062.75.75 0 0 0 1.494.13 19 19 0 0 0 0-3.322M29.722 22.005a.75.75 0 1 0-1.405-.525c-.358.96-.817 1.854-1.377 2.668a.75.75 0 0 0 1.236.85 13.8 13.8 0 0 0 1.546-2.994M3.683 21.48a.75.75 0 1 0-1.405.524 13.8 13.8 0 0 0 1.546 2.994.75.75 0 0 0 1.236-.85 12.3 12.3 0 0 1-1.377-2.668M7.854 26.964a.75.75 0 0 0-.857 1.23A13.3 13.3 0 0 0 9.99 29.75a.75.75 0 1 0 .52-1.406 11.8 11.8 0 0 1-2.657-1.379M25.003 28.195a.75.75 0 1 0-.857-1.231c-.79.55-1.675 1.015-2.658 1.379a.75.75 0 1 0 .52 1.406 13.3 13.3 0 0 0 2.995-1.554M14.465 29.189a.75.75 0 0 0-.123 1.495q.806.066 1.658.066t1.658-.066a.75.75 0 0 0-.123-1.495q-.742.06-1.535.061-.793 0-1.535-.061M14.33 11.481a3.21 3.21 0 1 1-6.42 0 3.21 3.21 0 0 1 6.42 0M17.667 11.481a3.21 3.21 0 1 0 6.42 0 3.21 3.21 0 0 0-6.42 0M10.743 19.502a.75.75 0 0 1 .75-.75h9.012a.75.75 0 0 1 0 1.5h-9.012a.75.75 0 0 1-.75-.75"/></svg>