<svg xmlns="http://www.w3.org/2000/svg" fill="none" viewBox="0 0 32 32"><path fill="#212121" d="M4.763 5.423C7.313 2.654 11.095 1 16 1s8.686 1.654 11.235 4.423c2.537 2.755 3.764 6.515 3.764 10.576s-1.227 7.82-3.764 10.576c-2.55 2.769-6.331 4.423-11.235 4.423q-.753 0-1.47-.052a6 6 0 0 0 .869-.584l1.984-1.414c3.725-.277 6.492-1.676 8.381-3.728 2.129-2.311 3.235-5.55 3.235-9.221 0-3.67-1.106-6.91-3.235-9.221C23.647 4.48 20.43 3 16 3S8.35 4.48 6.235 6.778C4.105 9.089 3 12.328 3 15.998c0 3.577 1.05 6.743 3.072 9.042a5.7 5.7 0 0 0 .343 3.039 12.7 12.7 0 0 1-1.652-1.504C2.226 23.82 1 20.06 1 15.999S2.226 8.178 4.763 5.423"/><path fill="#212121" d="M14 14a2 2 0 1 1-4 0 2 2 0 0 1 4 0M20 16a2 2 0 1 1 0-4 2 2 0 0 1 0 4M15.264 17.3a1.355 1.355 0 0 1 1.868.159c.375.433.405 1.037.117 1.494l.572-.465a1.42 1.42 0 0 1 1.955.166 1.316 1.316 0 0 1-.171 1.894l-.154.126c.296.058.574.21.783.452a1.316 1.316 0 0 1-.17 1.895l-.503.408c.303.066.585.231.79.489.468.591.343 1.44-.276 1.882l-5.285 3.767a4.76 4.76 0 0 1-3.037 1.087C9.128 30.654 7 28.546 7 25.945c0-.795.199-1.544.55-2.2q.021-.066.048-.129l.986-2.299.812-2.901c.2-.717.965-1.138 1.702-.938.734.198 1.163.936.958 1.647l-.295 1.025zM21 7.225a.75.75 0 0 0 .725.775C23.839 8.07 25 9.837 25 11.25a.75.75 0 0 0 1.5 0c0-2.087-1.674-4.647-4.725-4.75a.75.75 0 0 0-.775.725M10.775 8a.75.75 0 0 0-.05-1.5C7.674 6.603 6 9.163 6 11.25a.75.75 0 0 0 1.5 0c0-1.413 1.161-3.18 3.275-3.25"/></svg>