<svg xmlns="http://www.w3.org/2000/svg" fill="none" viewBox="0 0 32 32"><path fill="#212121" d="M16 1c8.284 0 15 6.716 15 15s-6.716 15-15 15S1 24.284 1 16 7.716 1 16 1m-.975 2.036L3.036 15.025a13.2 13.2 0 0 0 .09 2.789L17.814 3.126a13 13 0 0 0-2.79-.09m-2.577.455a13.03 13.03 0 0 0-8.957 8.957zM3.495 19.566c.206.722.472 1.42.794 2.084L21.65 4.29a13 13 0 0 0-2.084-.794zM23.01 5.05 5.05 23.01q.558.87 1.243 1.637L24.647 6.293A13 13 0 0 0 23.01 5.05m2.697 2.303L7.354 25.708q.768.683 1.637 1.242L26.95 8.99a13 13 0 0 0-1.242-1.637m2.004 2.997L10.35 27.71q1 .484 2.084.794l16.07-16.07a13 13 0 0 0-.793-2.085m1.164 3.836L14.186 28.875a13 13 0 0 0 2.79.089l11.988-11.989a13.2 13.2 0 0 0-.09-2.789m-.366 5.366-8.957 8.957a13.03 13.03 0 0 0 8.957-8.957"/></svg>