<svg width="32" height="32" fill="none" xmlns="http://www.w3.org/2000/svg"><path d="M7.55 9.16a2.77 2.77 0 0 0 1.41 3.66 2.778 2.778 0 0 0 3.658-1.406l.002-.004-5.07-2.25ZM19.107 9.956l2.96-3.44-.005-.003.658-.763a2.77 2.77 0 0 1 .29 3.91 2.772 2.772 0 0 1-3.034.805 2.743 2.743 0 0 1-.854-.496l-.015-.013ZM14.57 10.49a1.83 1.83 0 1 0 0-3.66 1.83 1.83 0 0 0 0 3.66ZM25.98 15.22a1.83 1.83 0 1 1-3.66 0 1.83 1.83 0 0 1 3.66 0ZM14.52 18.15a1.83 1.83 0 1 0 0-3.66 1.83 1.83 0 0 0 0 3.66Z" fill="#212121"/><path d="M16 1a6.855 6.855 0 0 0-4.678 1.841c-.271.253-.5.52-.653.699l-.012.015c-.177.206-.271.314-.364.403l-.003.002H10c-4.972 0-9 4.028-9 9v5.27c0 6.781 5.497 12.29 12.28 12.29h5.41c6.783 0 12.28-5.509 12.28-12.29v-5.27a9.001 9.001 0 0 0-6.486-8.645 9.01 9.01 0 0 0-2.514-.355h-.26l-.003-.002a6.283 6.283 0 0 1-.4-.443 7.991 7.991 0 0 0-.728-.764A6.854 6.854 0 0 0 16 1Zm5.144 5.046 1.145-1.328a.5.5 0 0 1 .705-.052l.379.327a3.772 3.772 0 0 1 .394 5.32 3.773 3.773 0 0 1-1.658 1.117 8.252 8.252 0 0 0-2.011.11 3.733 3.733 0 0 1-1.643-.826l-.375.436a.766.766 0 0 0 .022 1.023c-.244.114-.482.24-.712.377-.879.518-1.98.56-2.895.125a.776.776 0 0 0-.445-.635l-.514-.228-.002.003a3.774 3.774 0 0 1-6.9-3.057L6.12 8.53c-.44-.2-.94.05-1.06.51a5.195 5.195 0 0 0 .49 3.738c-.511.342-.982.74-1.403 1.184a6.813 6.813 0 0 1-.387-2.272c0-.1 0-.21.01-.31.18-2.41 2.12-4.35 4.52-4.52.03-.01.06-.01.09-.01 1.5-.08 2.87-.83 3.81-2.01a4.862 4.862 0 0 1 7.62 0c.38.478.832.886 1.334 1.206Zm-16.562 8.93a7.29 7.29 0 0 1 1.53-1.372 5.178 5.178 0 0 0 7.954-.026 4.112 4.112 0 0 0 3.834-.168c.437-.26.904-.474 1.394-.637a7.188 7.188 0 0 1 3.75-.208 7.209 7.209 0 0 1 4.23 2.695 5.785 5.785 0 0 1-.757 1.267 5.771 5.771 0 0 1-4.547 2.213H10a5.786 5.786 0 0 1-5.418-3.764Zm23.16-.724a8.232 8.232 0 0 0-3.545-2.404 5.155 5.155 0 0 0 1.882-4.166 4.917 4.917 0 0 1 2.151 3.698c0 .056.003.11.005.162.003.05.005.1.005.148 0 .906-.177 1.77-.497 2.562Zm1.228 3.978c0 5.679-4.603 10.29-10.28 10.29h-5.41C7.603 28.52 3 23.909 3 18.23v-1.393a7.996 7.996 0 0 0 7 4.123h11.97a7.996 7.996 0 0 0 7-4.123v1.393Z" fill="#212121"/></svg>