<svg width="32" height="32" fill="none" xmlns="http://www.w3.org/2000/svg"><path d="M16 25c-9 0-9-9-9-9h18s0 9-9 9ZM9.349 10.412c-.21.228-.32.532-.367.779a1 1 0 0 1-1.964-.382c.089-.456.31-1.153.858-1.749C8.453 8.431 9.316 8 10.5 8c1.195 0 2.062.452 2.636 1.082.544.597.77 1.292.85 1.747a1 1 0 0 1-1.971.342 1.546 1.546 0 0 0-.358-.742C11.47 10.222 11.142 10 10.5 10c-.653 0-.972.217-1.151.412ZM20.35 10.412c-.21.228-.32.532-.368.779a1 1 0 0 1-1.963-.382c.088-.456.31-1.153.857-1.749C19.453 8.431 20.316 8 21.5 8c1.196 0 2.062.452 2.636 1.082.544.597.77 1.292.85 1.747a1 1 0 0 1-1.971.342 1.545 1.545 0 0 0-.358-.742C22.47 10.222 22.142 10 21.5 10c-.653 0-.971.217-1.15.412Z" fill="#212121"/><path d="M4.763 5.423C7.313 2.654 11.095 1 16 1c4.904 0 8.686 1.654 11.235 4.423 2.537 2.755 3.764 6.515 3.764 10.576 0 4.061-1.227 7.82-3.764 10.576-2.55 2.769-6.331 4.423-11.235 4.423-4.904 0-8.686-1.654-11.236-4.423C2.226 23.82 1 20.06 1 15.999c0-4.061 1.226-7.821 3.763-10.576Zm1.472 1.355C4.105 9.089 3 12.328 3 15.998c0 3.671 1.106 6.91 3.235 9.222 2.116 2.298 5.333 3.778 9.764 3.778 4.43 0 7.648-1.48 9.764-3.778 2.129-2.311 3.235-5.55 3.235-9.221 0-3.67-1.106-6.91-3.235-9.221C23.647 4.48 20.43 3 16 3c-4.43 0-7.648 1.48-9.764 3.778Z" fill="#212121"/></svg>