<svg width="32" height="32" fill="none" xmlns="http://www.w3.org/2000/svg"><g clip-path="url(#a)"><path d="M4.742 15.418a2 2 0 0 0-.182.358 11.25 11.25 0 0 0-1.135 4.937C3.425 26.947 8.48 32 14.713 32c3.927 0 7.384-2.007 9.403-5.042l4.248-5.506a4.628 4.628 0 0 0-.93-6.56 4.356 4.356 0 0 0-2.045-3.445 4.352 4.352 0 0 0-2.08-.658 4.664 4.664 0 0 0-2.65-3.348l.45-.636a4.323 4.323 0 0 0-6.405-5.725 5.983 5.983 0 0 0-.339-.246C13.316.128 11.701-.42 9.995.432 9.147.857 8.43 1.435 7.962 2.216c-.479.799-.59 1.635-.52 2.373.12 1.247.8 2.37 1.128 2.913l.051.084a16.563 16.563 0 0 1 .22.376 14.265 14.265 0 0 1 .386.9l-3.075 4.494a11.309 11.309 0 0 0-1.41 2.062Zm2.788-.593c.068-.083.137-.164.208-.244l3.358-4.908a.503.503 0 0 0 .098-.106l3.927-5.723a.499.499 0 0 0 .073-.16l.471-.689a2.323 2.323 0 1 1 3.813 2.654l-2.215 3.127-2.658 3.417a.5.5 0 0 0 .79.614l2.92-3.755a2.678 2.678 0 0 1 3.04 3.142L19.1 15.2a.5.5 0 0 0 .8.6l2.051-2.735a2.377 2.377 0 0 1 2.378.078c.7.438 1.089 1.177 1.112 1.938l-2.226 2.969a.5.5 0 0 0 .8.6l1.802-2.403c.103.048.203.103.3.166l.02.013.02.013a2.627 2.627 0 0 1 .623 3.79l-4.292 5.566a9.287 9.287 0 0 1-16.765-7.422c.168-.65.406-1.273.704-1.86l.008-.015-.01.002.037-.055c.3-.578.658-1.12 1.068-1.62Zm6.692-11.437-3.178 4.63a16.83 16.83 0 0 0-.371-.863c-.077-.165-.199-.368-.337-.599-.717-1.192-1.875-3.12.554-4.335.926-.463 1.845-.14 2.583.436.279.217.531.47.748.73Z" fill="#212121"/></g><defs><clipPath id="a"><path fill="#fff" d="M0 0h32v32H0z"/></clipPath></defs></svg>