<svg width="32" height="32" fill="none" xmlns="http://www.w3.org/2000/svg"><path d="m2.022 2.712 1.49 4.85c.12.39.62.51.91.22l.974-.971 5.919 5.918a1 1 0 0 0 1.414-1.414L6.813 5.398l.979-.976a.55.55 0 0 0-.23-.91l-4.85-1.49a.559.559 0 0 0-.69.69ZM25.942 27.032l-.014-.014a.998.998 0 0 0 1.087-1.112l.037.036a1.498 1.498 0 0 0 2.91-.5c0-.41-.16-.78-.43-1.05l-.02-.02-2.91-2.84a2.2 2.2 0 0 0-1.52-.61l-2.728.017-3.685-3.684a1 1 0 0 0-1.414 1.414l3.684 3.684-.017 2.709c0 .57.22 1.11.61 1.52l2.84 2.91.02.02c.27.27.64.43 1.05.43.83 0 1.5-.67 1.5-1.5 0-.65-.42-1.2-1-1.41Z" fill="#212121"/><path d="M2 14c0-1.946.572-3.72 1.64-5.108.505.13 1.076.01 1.489-.403l.266-.265.87.869c-.245.18-.47.377-.675.592C4.596 10.725 4 12.217 4 14c0 1.732.703 3.54 1.856 5.326 1.15 1.78 2.701 3.467 4.284 4.935a45.443 45.443 0 0 0 5.814 4.54l.046.029.046-.03c.35-.226.849-.561 1.448-.99a47.18 47.18 0 0 0 2.53-1.945 3.21 3.21 0 0 0 .783 1.406l.292.299c-.896.73-1.734 1.36-2.441 1.866-.625.447-1.15.8-1.526 1.044a17.766 17.766 0 0 1-.596.37 1.797 1.797 0 0 1-.151.074 1.02 1.02 0 0 1-.092.032h-.002c-.024.008-.14.044-.29.044-.152 0-.268-.036-.292-.043h-.002a1.032 1.032 0 0 1-.242-.108 17.948 17.948 0 0 1-.597-.37 47.416 47.416 0 0 1-6.087-4.752c-1.654-1.533-3.333-3.347-4.605-5.316C2.91 18.45 2 16.261 2 14ZM13.727 9.51c-.7-.6-1.627-1.176-2.794-1.405L8.878 6.05c.316-.033.639-.05.968-.05 2.317 0 4.045 1.016 5.182 1.99.389.334.713.665.972.955.26-.29.583-.621.972-.954C18.11 7.016 19.837 6 22.154 6c2.325 0 4.305.842 5.701 2.303C29.247 9.759 30 11.766 30 14c0 2.261-.91 4.45-2.176 6.411-.12.186-.244.371-.371.554l-.153-.149-.009-.008a3.208 3.208 0 0 0-1.592-.826c.154-.217.302-.436.445-.656C27.298 17.54 28 15.731 28 14c0-1.783-.596-3.275-1.59-4.315C25.42 8.65 23.977 8 22.154 8c-1.692 0-2.976.734-3.88 1.51a8.65 8.65 0 0 0-1.049 1.078c-.096.117-.173.216-.24.303l-.062.078a3.463 3.463 0 0 1-.13.158 1.068 1.068 0 0 1-.29.24 1.015 1.015 0 0 1-1.17-.116c-.06-.05-.104-.1-.125-.124a3.6 3.6 0 0 1-.13-.158l-.062-.078a14.633 14.633 0 0 0-.241-.303 8.642 8.642 0 0 0-1.048-1.079Z" fill="#212121"/></svg>