<svg xmlns="http://www.w3.org/2000/svg" fill="none" viewBox="0 0 32 32"><path fill="#212121" d="M21.646 12.632s-.355-.987-1.408-.96c-.222.019-.919.253-.815 1.315v.011c.04.44.15 1.68 1.741 1.276.638-.162.772-.879.482-1.642"/><path fill="#212121" d="M21.5 4.002a2 2 0 0 1-1.727 1.982L19.517 7H25a1 1 0 0 1 .883 1.47c2.134 1.058 3.96 3.845 3.093 7.747l-.015.06-3.748 12.994-.004.013a2 2 0 0 1-.09.257 2.6 2.6 0 0 1-.319.559c-.324.432-.907.9-1.8.9H9a2.2 2.2 0 0 1-1.8-.9 2.6 2.6 0 0 1-.41-.816l-.003-.013L3.04 16.277l-.015-.06c-.867-3.902.959-6.689 3.093-7.747A1 1 0 0 1 7 7h10.97l.35-1.383a2 2 0 1 1 3.18-1.614m-7.966 9.728a3.347 3.347 0 0 1-.592-.024 4.2 4.2 0 0 1-1.38-.441c-.97-.505-1.986-1.48-2.721-3.265H8c-1.271 0-3.891 1.812-3.03 5.754L5.33 17h21.34l.36-1.246C27.891 11.812 25.271 10 24 10h-1.28c-.465.599-1.161 1.183-2.139 1.225h-.01a2.413 2.413 0 0 1-.714-.045 2.74 2.74 0 0 1-1.428-.828q-.004-.004-.024-.02a1 1 0 0 0-.34-.168.3.3 0 0 0-.06-.01.3.3 0 0 0-.04.049c-.111.181-.203.402-.334.723l-.022.056c-.201.497-.497 1.229-1.128 1.797-.687.62-1.636.944-2.94.95zM7.493 24.5l1.218 4.223.004.015.013.034c.016.038.04.086.072.128.051.068.093.1.2.1h14c.107 0 .149-.032.2-.1a.6.6 0 0 0 .085-.162l.004-.015 1.218-4.223zm10.523-14.354-.004.003.002-.001z"/></svg>