<svg width="32" height="32" fill="none" xmlns="http://www.w3.org/2000/svg"><path d="M8 21c1.657 0 3-.895 3-2s-1.343-2-3-2-3 .895-3 2 1.343 2 3 2ZM27 19c0 1.105-1.343 2-3 2s-3-.895-3-2 1.343-2 3-2 3 .895 3 2ZM17.67 16.92a1 1 0 1 0 0 2 .52.52 0 1 1 0 1.04 1 1 0 1 0 0 2 .52.52 0 1 1 0 1.04 1 1 0 1 0 0 2 2.52 2.52 0 0 0 2.01-4.04 2.52 2.52 0 0 0-2.01-4.04ZM6.974 9.658c.144-.43.502-1.108 1.095-1.67C8.654 7.433 9.452 7 10.5 7a.5.5 0 0 0 0-1c-1.351 0-2.386.567-3.118 1.262-.724.688-1.166 1.51-1.355 2.08a.5.5 0 0 0 .948.316ZM25.026 9.658c-.144-.43-.502-1.108-1.095-1.67C23.346 7.433 22.548 7 21.5 7a.5.5 0 0 1 0-1c1.351 0 2.386.567 3.118 1.262.724.688 1.166 1.51 1.355 2.08a.5.5 0 0 1-.948.316ZM8.982 14.19c.048-.246.158-.55.367-.777.18-.196.498-.413 1.15-.413.643 0 .97.222 1.158.429.218.24.323.545.358.742a1 1 0 0 0 1.97-.342 3.544 3.544 0 0 0-.85-1.747C12.563 11.452 11.696 11 10.5 11c-1.184 0-2.047.431-2.624 1.06-.548.596-.769 1.293-.858 1.75a1 1 0 1 0 1.964.38ZM19.982 14.19c.048-.246.158-.55.367-.777.18-.196.498-.413 1.151-.413.642 0 .969.222 1.157.429.219.24.324.545.358.742a1 1 0 0 0 1.97-.342 3.543 3.543 0 0 0-.85-1.747C23.563 11.452 22.696 11 21.5 11c-1.184 0-2.047.431-2.624 1.06-.548.596-.769 1.293-.857 1.75a1 1 0 1 0 1.963.38Z" fill="#212121"/><path d="M4.763 5.423C7.313 2.654 11.095 1 16 1c4.904 0 8.686 1.654 11.235 4.423 2.537 2.755 3.764 6.515 3.764 10.576 0 4.061-1.227 7.82-3.764 10.576-2.55 2.769-6.331 4.423-11.235 4.423-4.904 0-8.686-1.654-11.236-4.423C2.226 23.82 1 20.06 1 15.999c0-4.061 1.226-7.821 3.763-10.576Zm1.472 1.355C4.105 9.089 3 12.328 3 15.998c0 3.671 1.106 6.91 3.235 9.222 2.116 2.298 5.333 3.778 9.764 3.778 4.43 0 7.648-1.48 9.764-3.778 2.129-2.311 3.235-5.55 3.235-9.221 0-3.67-1.106-6.91-3.235-9.221C23.647 4.48 20.43 3 16 3c-4.43 0-7.648 1.48-9.764 3.778Z" fill="#212121"/></svg>