<svg xmlns="http://www.w3.org/2000/svg" fill="none" viewBox="0 0 32 32"><path fill="#212121" d="M16.539 5.669 4.937 1.113a1.54 1.54 0 0 0-1.398.124 1 1 0 0 0-.146.113 1.5 1.5 0 0 0-.57.995L1.018 14.547l-.003.028c-.031.26-.014.522.06.777q.022.124.078.244c.15.318.386.587.686.784l.007.005 14.458 9.355c.278.185.586.265.883.26.306.539.721 1.185 1.243 1.804 1.233 1.465 3.17 2.902 5.707 2.177 2-.572 3.01-1.526 3.486-2.55.187-.403.284-.804.333-1.17l1.241.66c.358.192.803-.05.803-.433v-1.996c0-.383-.445-.615-.803-.424l-1.208.653c-.045-.575-.222-1.177-.459-1.774-.19-.48-.427-.973-.683-1.466a.6.6 0 0 1 .23-.014l1.394.129c.368.037.64-.323.485-.647l-.805-1.682c-.154-.323-.61-.36-.832-.073l-.814 1.09a.7.7 0 0 1-.209.177l-.317-.567c-.298-.534-.588-1.05-.84-1.542h.003l1.4-.07c.37-.016.583-.385.379-.66l-1.06-1.43c-.204-.275-.67-.25-.836.042l-.473.828a7 7 0 0 1-.078-.22c-.32-.962.059-1.949.802-2.865.737-.908 1.756-1.645 2.467-2.04a.5.5 0 1 0-.486-.874c-.79.439-1.92 1.252-2.758 2.284-.832 1.026-1.453 2.373-.973 3.811q.081.243.185.498l-1.253.061c-.37.017-.583.386-.379.66l1.06 1.431c.204.275.67.25.836-.042l.404-.708c.24.456.5.92.757 1.377l.015.027-.622-.058c-.368-.037-.64.323-.485.647l.805 1.682c.154.323.61.36.832.073l.428-.572c.186.371.353.733.492 1.082.205.516.338.982.382 1.391l-1.18-.628c-.358-.192-.803.05-.803.433v1.996c0 .383.445.615.803.424l1.132-.612c-.042.224-.11.456-.219.689-.328.705-1.067 1.5-2.853 2.01-1.964.561-3.526-.502-4.668-1.859a11 11 0 0 1-1.057-1.512c.38-.296.617-.772.576-1.308l-.983-17.042v-.002a1.93 1.93 0 0 0-.34-.98 1 1 0 0 0-.148-.168 1.8 1.8 0 0 0-.704-.48m.128 17.924L9.325 11.034 3.03 14.615 4.72 3.186l4.585 7.848 6.294-3.586.14.056z"/></svg>