<svg xmlns="http://www.w3.org/2000/svg" fill="none" viewBox="0 0 32 32"><path fill="#212121" d="M7.75 6.5a.75.75 0 0 0 0 1.5h2.5a.75.75 0 0 0 0-1.5zM7 16a.75.75 0 0 1 .75-.75h2.5a.75.75 0 0 1 0 1.5h-2.5A.75.75 0 0 1 7 16M21 16a.75.75 0 0 1 .75-.75h2.5a.75.75 0 0 1 0 1.5h-2.5A.75.75 0 0 1 21 16M21 7.25a.75.75 0 0 1 .75-.75h2.5a.75.75 0 0 1 0 1.5h-2.5a.75.75 0 0 1-.75-.75M7.75 24.5a.75.75 0 0 0 0 1.5h2.5a.75.75 0 0 0 0-1.5zM21 25.25a.75.75 0 0 1 .75-.75h2.5a.75.75 0 0 1 0 1.5h-2.5a.75.75 0 0 1-.75-.75M11 12a2 2 0 0 1 2-2h6a2 2 0 1 1 0 4h-6a2 2 0 0 1-2-2M16 6.5a2.5 2.5 0 0 1 2.5 2.496h-5A2.5 2.5 0 0 1 16 6.5M13.5 23v-8h5v8a2.5 2.5 0 0 1-5 0"/><path fill="#212121" d="M8.042 1A4.046 4.046 0 0 0 4 5.05v21.9A4.046 4.046 0 0 0 8.042 31h15.916A4.046 4.046 0 0 0 28 26.95V5.05A4.046 4.046 0 0 0 23.958 1zM6 5.05C6 3.915 6.917 3 8.042 3h15.916C25.083 3 26 3.915 26 5.05v21.9c0 1.135-.917 2.05-2.042 2.05H8.042A2.046 2.046 0 0 1 6 26.95z"/></svg>