<svg xmlns="http://www.w3.org/2000/svg" fill="none" viewBox="0 0 32 32"><path fill="#212121" d="M9.235 23.555a1.24 1.24 0 1 1-2.48 0 1.24 1.24 0 0 1 2.48 0M10.855 27.795a1.24 1.24 0 1 0 0-2.48 1.24 1.24 0 0 0 0 2.48M8.235 27.445a1.24 1.24 0 1 1-2.48 0 1.24 1.24 0 0 1 2.48 0M13.315 9.47c-.15 0-.31-.07-.4-.2a.51.51 0 0 1 .09-.71l.006-.004c.08-.057.834-.591 1.904-.466.28.03.48.29.44.56-.03.28-.29.48-.56.44-.64-.083-1.082.212-1.159.263l-.011.007c-.09.08-.2.11-.31.11M19.665 9.47a.52.52 0 0 1-.31-.1l-.004-.002a1.75 1.75 0 0 0-1.166-.268.506.506 0 0 1-.56-.44c-.03-.28.17-.53.44-.56a2.82 2.82 0 0 1 1.904.466l.006.004c.22.17.26.49.09.71-.1.13-.25.19-.4.19M14.275 9.83c-.61 0-1.11.42-1.25.98-.04.16.08.31.25.31h.39a.828.828 0 0 1 .8-1.05c.46 0 .83.37.82.83 0 .08-.01.15-.03.22h.08c.13 0 .24-.12.21-.25-.12-.6-.64-1.04-1.27-1.04M18.705 9.83c.61 0 1.11.42 1.25.98a.25.25 0 0 1-.25.31h-.39a.828.828 0 0 0-.8-1.05c-.46 0-.83.37-.82.83 0 .08.01.15.03.22h-.08c-.13 0-.24-.12-.21-.25.12-.6.64-1.04 1.27-1.04"/><path fill="#212121" d="M14.335 10.57a.15.15 0 0 1-.272.087.47.47 0 0 0-.068.243c0 .08.02.15.05.22h.84c.03-.07.05-.14.05-.22a.47.47 0 0 0-.645-.437.15.15 0 0 1 .045.107M18.405 10.57a.15.15 0 0 1-.287.062.47.47 0 0 0-.083.268c0 .08.02.15.06.22h.83c.03-.07.05-.14.05-.22a.47.47 0 0 0-.623-.445.15.15 0 0 1 .053.115M16.145 10.83l-.48 1.55c-.1.32.14.64.47.64h.71c.33 0 .57-.32.47-.64l-.48-1.55c-.1-.34-.59-.34-.69 0M15.125 13.6c.39.21.86.33 1.36.33s.97-.12 1.36-.33c.14-.07.28.08.2.21-.33.51-.9.85-1.56.85s-1.23-.34-1.56-.85c-.08-.13.07-.28.2-.21"/><path fill="#212121" d="M9.37 3.613A18 18 0 0 1 18.725 1a5.27 5.27 0 0 1 5.27 5.27c0 .495-.209.939-.54 1.253v1.97a2.509 2.509 0 0 1-.79 3.815l-.095 1.22q0 .013-.003.025c-.05.492-.189.953-.398 1.371q.739.399 1.412.89a2.492 2.492 0 0 0 .698 2.513q-.094.345-.17.69a10 10 0 0 0-3.126-2.456 2.815 2.815 0 0 1-2.37 2.517c.315.432.502.965.502 1.542v1.67a2.623 2.623 0 0 1-2.62-2.616 2.623 2.623 0 0 1-2.62 2.616v-1.67c0-.577.187-1.11.503-1.542a2.815 2.815 0 0 1-2.371-2.517 10.05 10.05 0 0 0-3.553 2.993 5.22 5.22 0 0 1 4.14 3.374L14.444 29h8.636q.041-.21.145-.393a1.24 1.24 0 0 1-.002-1.244 1.24 1.24 0 0 1 .002-1.244 1.22 1.22 0 0 1-.169-.664c.018-.653.535-1.147 1.143-1.209a.5.5 0 0 1 .127-.016h.52a13.7 13.7 0 0 1 .52-5.119 1.996 1.996 0 0 1-.643-2.56c.631-1.323 1.837-1.996 3.215-2.086h.033c.181 0 .369.057.535.2l.01.008a.79.79 0 0 1 .172.945l-.005.011-.006.01c-.252.448-.331.875-.217 1.423l.011.05v.013q.03.17.03.34c0 .677-.335 1.274-.848 1.635.305 1.04.487 2.076.549 3.129a2 2 0 0 1 1.294 1.871v5.01a1.87 1.87 0 0 1-1.792 1.868 1 1 0 0 1-.208.022H4.265a1 1 0 0 1-.945-.674l-.98-2.84-.001-.001c-1.194-3.485.906-7.249 4.34-7.89 1.05-1.49 2.43-2.73 4.035-3.613a4 4 0 0 1-.439-1.464l-.103-1.314a2.507 2.507 0 0 1-.547-3.781V7.907a2.28 2.28 0 0 1-1.63-2.187c0-.798.412-1.538 1.111-1.95l.001-.001zM13.379 29l-1.724-4.728a4.22 4.22 0 0 0-4.243-2.762l-.055.007c-2.317.226-3.994 2.783-3.126 5.319L4.978 29zm14.116-3.77h-3.07a.5.5 0 0 1-.1.01c-.157 0-.267.122-.27.242v.006a.25.25 0 0 0 .117.216.5.5 0 0 1-.004.835.25.25 0 0 0-.113.201c0 .09.043.157.103.195a.5.5 0 0 1 .01.844.25.25 0 0 0-.113.201c0 .09.043.157.103.195a.5.5 0 0 1 .037.825h3.1q.096-.02.2-.02v-3.75m-.316-3.266a13 13 0 0 0-.6-2.951l-.069-.212-.071.22a13 13 0 0 0-.602 2.943zM17.985 17.5h-2.98q-.102 0-.202-.006a2.01 2.01 0 0 0 1.772 1.076c.773 0 1.446-.444 1.78-1.089a4 4 0 0 1-.37.02m3.734-6.889-.067.96a.51.51 0 0 0 .067-.96M11 11.082c0 .216.136.402.328.476l-.065-.924a.51.51 0 0 0-.263.447m14.622 5.907-.004.01-.005.008a.998.998 0 0 0 .529 1.392l.365.14.363-.144a1 1 0 0 0 .438-.34.8.8 0 0 1-.196.02c-.44 0-.78-.38-.78-.82 0-.3-.24-.54-.54-.54h-.022a3 3 0 0 0-.148.274m-4.936-5.94-.021.002.051-.69a106 106 0 0 0 .08-1.179v-.008a.37.37 0 0 0-.124-.3l-.001-.001-.177-.157a1.59 1.59 0 0 1-.539-1.195V7.5h-6.96v.02c0 .464-.192.887-.532 1.199l-.007.006-.177.156a.4.4 0 0 0-.114.306v.007l.348 4.984c.139 1.37 1.2 2.322 2.492 2.322h2.98c1.286 0 2.353-.947 2.482-2.31z"/></svg>