<svg width="32" height="32" fill="none" xmlns="http://www.w3.org/2000/svg"><path d="M16.215 11.16a6.934 6.934 0 0 0-.08-.594.794.794 0 0 0 .1-.466.784.784 0 0 0-.702-.71c-.1-.034-.168-.01-.168-.01s-.09-.99-1.73-.83c-.755.076-1.226-.021-1.509-.254l.04.034c-.182.336-.26.72-.224 1.1l.062.678c-.099.25-.226.488-.378.709a.6.6 0 0 0-.154.373.525.525 0 0 0 .53.4h.04a.223.223 0 0 0 .107-.031c.136 1.167.383 2.025 1.605 2.025a3.127 3.127 0 0 0 .688-.079l.27 1.058c.7-.674 1.851-.673 2.257-.673.117 0 .172 0 .136-.016l-.524-2.01c-.182-.091-.326-.293-.366-.704Zm1.182 11.156.145-.152c.214-.196.377-.442.473-.716.09-.281.112-.604.058-.964l-.123-.636-.162-.843v.001l-1.54.173-.815.092.024.209.156 1.364a.068.068 0 0 1 .012.053.245.245 0 0 1-.07.116l-1.832 2.065a6.638 6.638 0 0 0-.903 1.015 12.7 12.7 0 0 0-.654 1.128l-.003.007a.4.4 0 0 0 .12.511l-.024.092a.4.4 0 0 0 .153.539.39.39 0 0 0 .535-.162.508.508 0 0 0 .153.1.385.385 0 0 0 .33-.042.416.416 0 0 0 .15-.16l.356-.665.152-.056c.317-.12.613-.29.875-.506l2.434-2.563Zm-7.799 4.626c.453-.479.984-1.017 1.515-1.544l.002-.067c.012-.202.067-.398.16-.577a7.69 7.69 0 0 1 1.747-2.4l.13-.147c-.316-2.886-.492-5.77.398-7.629a2.4 2.4 0 0 1-2.279-2.169 1.5 1.5 0 0 1-.793-1.139 1.52 1.52 0 0 1 .318-1.006c.071-.103.135-.211.192-.323l-.038-.417a2.926 2.926 0 0 1 .08-1.014 2.422 2.422 0 0 1-.27-.953 1.974 1.974 0 0 1 1.815-2.212 4.11 4.11 0 0 1 1.212.04c.057.013.116.02.174.023.108-.014.214-.045.313-.091A4.652 4.652 0 0 1 15.93 5a2.893 2.893 0 0 1 3.051 2.785 5.984 5.984 0 0 1-.27 2.876c.095.19.15.399.16.611a1.487 1.487 0 0 1-1.015 1.519l.111.426c2.126 1.442 2.647 5.602 2.966 9.471l.016.19c.01.128.021.247.031.359.322.723.534 1.489.63 2.274l3.28 3.039a1.446 1.446 0 0 1-1.183 2.49l-.044-.006-.043-.01-3.742-.864-7.77.834-.054.006H12c-1.642 0-2.678-.472-3.078-1.4a2.557 2.557 0 0 1 .676-2.658Zm3.517-16.682a.85.85 0 0 1 .006.172l.334-.032c.07-.01.13-.09.12-.17v-.01c-.03-.36-.36-.53-.65-.5-.287.03-.574.255-.541.599-.011-.251.127-.46.321-.48.2-.03.38.17.41.42Zm-.73.08.002.01-.002-.01Zm.1-.01c0 .06.03.12.06.16l.33-.04c.02-.04.03-.1.02-.16-.01-.15-.11-.26-.23-.25a.163.163 0 0 0-.074.026c.013.014.021.034.023.057.005.05-.022.093-.06.096a.065.065 0 0 1-.056-.026.304.304 0 0 0-.013.137Zm.889 1.213a.13.13 0 0 1 .098.155.704.704 0 0 1-.846.528.13.13 0 0 1 .058-.253.445.445 0 0 0 .534-.332.13.13 0 0 1 .156-.098Zm.021-2.263.054-.085-.004.006-.05.079Zm-.075.116h.001a.139.139 0 0 0 .149-.233h-.001l-.002-.002-.005-.003a.715.715 0 0 0-.071-.038 1.393 1.393 0 0 0-.885-.096.139.139 0 1 0 .059.27 1.116 1.116 0 0 1 .746.097l.009.005Zm-1.99 17.198c-.357.36-.7.712-1.006 1.035C9.68 28.309 9 30 12 30l7.945-.847-.755-1.74c-.45-.103-.694-.14-.994-.157-.24-.013-.512-.011-.936-.009-.21.002-.459.003-.76.003a.5.5 0 1 1 0-1l.711-.002h.002c.45-.003.765-.005 1.036.01.422.022.753.083 1.329.218a.5.5 0 0 1 .119.044c.323-.318.47-.575.942-.544C20.587 25.116 20 23.5 20 23.5h-2.354l-1.96 2.063-.044.046-.05.041c-.288.236-.608.432-.95.583l-.183.343a1.411 1.411 0 0 1-1.242.746h-.11a1.4 1.4 0 0 1-1.772-.717l-.005-.01Z" fill="#212121"/></svg>