<svg xmlns="http://www.w3.org/2000/svg" fill="none" viewBox="0 0 32 32"><path fill="#212121" d="M17.76 8.501c-.11.02-.23 0-.35-.05-.03-.02-.59-.28-1.3-.07a.54.54 0 0 1-.68-.37c-.09-.29.08-.6.37-.68a3.04 3.04 0 0 1 2.13.14c.27.14.37.47.23.74-.09.16-.23.26-.4.29M10.53 9.551c.13.12.3.17.47.14.11-.02.22-.07.3-.16l.002-.001c.035-.036.462-.47 1.198-.509.3-.02.54-.28.52-.58a.55.55 0 0 0-.58-.52c-1.179.068-1.883.792-1.946.856l-.004.004c-.2.23-.18.57.04.77M14.04 12.352l.22-1.74c.05-.38.57-.47.75-.13l.8 1.56c.17.32-.03.71-.38.77l-.76.13a.533.533 0 0 1-.63-.59M15.22 13.862c-.53.09-1.05.05-1.52-.09-.16-.05-.28.14-.17.26.45.48 1.12.73 1.82.61s1.25-.59 1.5-1.2c.06-.15-.12-.29-.25-.19-.37.3-.85.51-1.38.61M17.9 9.702c-.08.01-.14.06-.19.13-.16.26-.42.45-.74.51s-.63-.03-.86-.23a.29.29 0 0 0-.22-.06c-.22.04-.3.32-.12.47.35.29.82.43 1.3.34.48-.08.87-.37 1.11-.77.12-.18-.05-.43-.28-.39M13.28 10.522c-.08.01-.14.06-.19.13-.16.26-.42.45-.74.51-.31.05-.62-.04-.86-.23a.29.29 0 0 0-.22-.06c-.22.04-.3.33-.12.47.35.29.82.43 1.3.34.48-.08.87-.37 1.11-.77.11-.19-.06-.43-.28-.39"/><path fill="#212121" d="m18.76 3.662-.45-.14c-.32-.1-.63-.24-.9-.44l-.96-.67c-.72-.5-1.66-.55-2.43-.12-.5.28-1.07.38-1.63.29-.79-.22-1.63.07-2.1.74l-.82 1.17c-.19.27-.43.52-.7.72l-.38.28c-.7.52-.97 1.44-.67 2.26l.278.745q.007.609.148 1.227a2.641 2.641 0 0 0 1.12 4.478l.267 1.064.003.012q.096.35.241.667c-.807.267-1.414.861-1.867 1.737l-.76 1.474a2.99 2.99 0 0 0-2.32 2.056L2 30h9.979l-.209-.328c-1.17-2.03-.48-4.64 1.56-5.81l2.43-1.4a4.24 4.24 0 0 1 2.712-.529q-.091.456-.092.938c0 1.277.499 2.438 1.312 3.298-.393.3-.667.74-.753 1.242l-1.489-1.489c-.41-.42-1.09-.42-1.51 0-.42.41-.42 1.09 0 1.51l.26.26c.06.06.02.18-.08.18h-2.57c-.59 0-1.07.48-1.07 1.07S12.96 30 13.55 30h5.35q.08.006.16 0h7.88c1.48 0 2.68-1.178 2.68-2.658 0-.763-.285-1.522-.782-2.041l-1.008-1.235q.148-.574.15-1.195a4.8 4.8 0 0 0-5.256-4.778c-.798-.68-1.7-1.247-2.68-1.674.709-.837 1.09-1.957.993-3.167l-.001-.012-.114-1.094a2.64 2.64 0 0 0-.48-4.594 5.8 5.8 0 0 0-.287-1.227l.005-.763c.01-.88-.56-1.65-1.4-1.9M8.755 10.528l.065.174c.11.29.41.47.72.42 0 0-.21-.86-.35-1.41-.07-.28 0-.58.18-.81l.15-.19c.21-.27.3-.61.24-.94l-.16-.86c-.04-.24.09-.48.31-.58.6-.27 1.91-.78 3.78-1.11s3.27-.3 3.93-.25c.25.02.45.2.49.44l.15.85c.06.33.26.63.55.81l.22.14c.25.15.41.41.44.7.06.56.15 1.43.15 1.43.3-.07.51-.33.52-.64l.001-.189a1.64 1.64 0 0 1-.285 3.047l.184 1.772c.086 1.08-.31 2.05-1.012 2.705a3.2 3.2 0 0 1-1.648.815l-1.924.338a.95.95 0 0 1 .304.982l-.68 2.54q-.015.057-.037.11a.95.95 0 0 1-1.123.57h-.02l-1.521-.412a.8.8 0 0 0 .261-.208.8.8 0 0 0 .165-.463.78.78 0 0 0-.285-.628l-.99-.8-.01-.008 1.56.219a.774.774 0 0 0 .87-.66c.05-.3-.1-.589-.338-.75a.777.777 0 0 0 .868-.661.775.775 0 0 0-.66-.87l-1.66-.23c-.06-.01-.67-.09-.67-.09a5 5 0 0 0-.676-.047 3.6 3.6 0 0 1-.314-.772l-.432-1.725a1.64 1.64 0 0 1-1.313-2.76M26.98 22.871c0 .68-.179 1.319-.492 1.871l-5.773 1.021a3.8 3.8 0 1 1 6.265-2.892m-11.244-2.093-.176-.046.622-2.31.175.046c.16.04.29.18.32.34l.08.38c.02.08.08.14.17.16l.21.06c.26.07.41.33.34.59s-.33.41-.59.34l-.21-.06c-.08-.02-.17 0-.23.07l-.26.29c-.11.13-.29.18-.45.14"/></svg>