<svg xmlns="http://www.w3.org/2000/svg" fill="none" viewBox="0 0 32 32"><path fill="#212121" d="M17.77 6.65q.007.002.016.003l-.015-.004c.03-.03.05-.06.069-.108a.2.2 0 0 0 .008-.1q-.023.025-.05.018c-.027-.008-.041-.04-.032-.072a.06.06 0 0 1 .036-.042.14.14 0 0 0-.052-.034c-.08-.02-.17.04-.2.14-.01.04-.01.09 0 .12l.208.075-.017-.003z"/><path fill="#212121" d="M17.74 6.16a.23.23 0 0 1 .102.063.43.43 0 0 0-.242-.162c-.2-.05-.45.02-.53.26v.01c-.02.06.01.12.06.14l.244.068a1 1 0 0 1 .016-.128c.05-.18.21-.29.35-.25M17.227 5.716a.1.1 0 0 1 .058-.128l.002-.001.004-.002.012-.004.043-.012a1.005 1.005 0 0 1 .633.05.1.1 0 1 1-.078.184.8.8 0 0 0-.537-.032l-.009.003c-.066.017-.113-.032-.128-.058"/><path fill="#212121" d="M12.29 7.092c.287-.152.6-.254.924-.3l.113-.121a1.5 1.5 0 0 1-.146-.311 3.3 3.3 0 0 1-.146-1.03v-.134c.01-.183.021-.385.043-.611q.071-.496.216-.977a2.17 2.17 0 0 1 2.68-1.526 1.7 1.7 0 0 1 .786-.01c.21.046.41.132.588.254h.015q.111-.013.222-.013.187 0 .37.04A1.67 1.67 0 0 1 19 3.084a1.658 1.658 0 0 1 .146 2.938q-.014.062-.031.123l-.081.267q.026.082.046.133c.11.265.134.557.069.836a1.25 1.25 0 0 1-.676.855 1.99 1.99 0 0 1-1.8 1.347l.327.571.123.209.253.407 3.593-.019a1.87 1.87 0 0 1 .386 3.7h5.455c.59 0 1.07.48 1.08 1.07 0 .59-.48 1.07-1.07 1.07h.12l.02 3.893c.583-.073.937-.283 1.29-.493.438-.26.875-.52 1.75-.52l-.011 3.61c-1.137.002-1.76.369-2.25.66l-.011.007c-.377.224-.628.373-1.228.373s-.85-.15-1.228-.373l-.011-.007c-.492-.292-1.117-.66-2.261-.66s-1.77.368-2.26.66l-.012.007c-.377.224-.628.373-1.228.373s-.85-.15-1.228-.373l-.011-.007c-.492-.292-1.117-.66-2.261-.66s-1.77.368-2.26.66l-.012.007c-.377.224-.628.373-1.228.373-.24 0-.424-.024-.583-.067l2.123-2.123c.581-.59.7-1.458.355-2.155l5.278-5.278-1.71.009-2.81 2.811-.007.014a1.96 1.96 0 0 1-.942.935l-.659.659a1.88 1.88 0 0 0-2.155.355l-2.44 2.44a1.87 1.87 0 0 0-.546 1.396c-.78.1-1.266.387-1.665.624l-.011.007c-.377.224-.628.373-1.228.373s-.85-.15-1.228-.373l-.011-.007c-.492-.292-1.117-.66-2.261-.66v-3.61c.875 0 1.313.26 1.75.52s.875.52 1.75.52 1.313-.26 1.75-.52q.14-.085.287-.166L5.59 16.591h-.57a1.071 1.071 0 0 1 0-2.14h3.42a3 3 0 0 1-.078-.357c-.048-2.171 1.168-4.41 2.713-5.988q.087-.089.175-.175.385-.374.787-.689.123-.081.253-.15m2.309-.575-.005.257-.936 1a1 1 0 0 0-.116-.005 1.78 1.78 0 0 0-.992.331 8.8 8.8 0 0 0-2.651 3.637l3.884 1.11q.189-.688.493-1.335l.021.007 1.721-1.068-.257-.451h-.018l-.421-.737a1.4 1.4 0 0 0-.079-.509l-.016-.037.381-.413q.245.14.515.219.23.069.472.074c.5 0 .764-.306.957-.767a.1.1 0 0 1-.068.034.5.5 0 0 1-.527-.48.093.093 0 1 1 .186-.007.313.313 0 0 0 .333.3.093.093 0 0 1 .097.102 5 5 0 0 0 .122-.346.064.064 0 0 1 .07-.05h.079a.29.29 0 0 0 .321-.224.4.4 0 0 0-.037-.264 3 3 0 0 1-.093-.3.63.63 0 0 1 0-.36l.11-.37c.058-.206.07-.422.031-.632.01 0 .023.008.023.008s-1.104-.258-1.469-.341a.39.39 0 0 0-.47.3c-.04.17-.21.28-.38.24l-.08-.02a.27.27 0 0 0-.33.21l-.14.57c-.078.32-.514.396-.731.317M16.486 10h.028zm.134 1.455-.09-.145-1.482.92.083.135a2.34 2.34 0 0 0 2.01 1.14h.039l3.78-.02a.87.87 0 1 0 0-1.74l-3.81.02a.61.61 0 0 1-.52-.29zm-7.033 1.233a4.2 4.2 0 0 0-.227 1.372c.004.13.04.262.097.39h5.733l-1.473-.582z"/><path fill="#212121" d="M2 28.97v-4.89c.417 0 .734.06 1 .15.292.098.52.235.75.37.438.26.875.52 1.75.52s1.313-.26 1.75-.52.875-.52 1.75-.52 1.313.26 1.75.52.875.52 1.75.52 1.313-.26 1.75-.52.875-.52 1.75-.52 1.313.26 1.75.52.875.52 1.75.52 1.313-.26 1.75-.52.875-.52 1.75-.52 1.313.26 1.75.52.875.52 1.75.52 1.313-.26 1.75-.52c.229-.135.458-.271.75-.37.262-.09.575-.148.985-.15l-.015 4.89z"/></svg>