<svg xmlns="http://www.w3.org/2000/svg" fill="none" viewBox="0 0 32 32"><path fill="#212121" d="m14.538 2.542 1.121 2.248a.38.38 0 0 0 .681 0l1.122-2.248A.378.378 0 0 0 17.121 2h-2.243a.377.377 0 0 0-.34.542m-6.406 2.65 2.38.79a.367.367 0 0 0 .47-.46l-.79-2.38a.37.37 0 0 0-.62-.15l-1.58 1.58a.373.373 0 0 0 .14.62m15.728 0-2.37.79a.367.367 0 0 1-.47-.46l.79-2.38a.37.37 0 0 1 .62-.15l1.58 1.58a.38.38 0 0 1-.15.618zm2.962 25.809H5.179a4.1 4.1 0 0 1-4.179-4 3.8 3.8 0 0 1 .339-1.576l2.741-6.618a4.6 4.6 0 0 1 3.142-2.677q.048-.076.1-.145l-.029-.178c-.117-.616-.5-2.639-.507-2.719a3.93 3.93 0 0 1 .43-2.347 4 4 0 0 1 2.227-1.9 2.37 2.37 0 0 0 1.253-.982 4 4 0 0 1 3.369-1.863 3.9 3.9 0 0 1 1.577.327.88.88 0 0 0 .729-.009A3.8 3.8 0 0 1 17.922 6a3.99 3.99 0 0 1 3.371 1.852c.295.46.735.81 1.251.992a3.94 3.94 0 0 1 2.22 1.9v.008a3.82 3.82 0 0 1 .37 2.538c-.021.1-.513 2.758-.491 2.658q.078.1.143.208a4.6 4.6 0 0 1 3.047 2.645l2.821 6.613c.227.497.344 1.037.343 1.583a4.1 4.1 0 0 1-4.178 4zM8.503 17.816a1 1 0 0 1-.24.137 1.5 1.5 0 0 0 1.038 1.229l-.058-.733-.012-.161a1.06 1.06 0 0 1-.568-.627 1 1 0 0 1-.16.155m1 3.942-.121-1.535a2.5 2.5 0 0 1-2.09-2.016 2.6 2.6 0 0 0-1.37 1.37l-1.67 4.038c.306-.076.621-.115.937-.115q.456.005.9.111h.021c.1.026.232.06.356.105l4.642 1.391q.188.045.371.11.183.067.358.157a5.47 5.47 0 0 1-2.335-3.617zm2.751 3.872.001.002c.497.351.876.845 1.087 1.416l1.926.917a1.32 1.32 0 0 1 .729 1.027h.019a1.32 1.32 0 0 1 .729-1.027l1.926-.917c.19-.523.522-.982.958-1.328a7.7 7.7 0 0 1-3.6.778 7.65 7.65 0 0 1-3.775-.868m-1.653.369-4.434-1.325h-.016l-.016-.006c-.073-.027-.159-.049-.276-.08a2.815 2.815 0 0 0-2.143.324l-.542 1.307a1.9 1.9 0 0 0-.174.782 2.1 2.1 0 0 0 2.179 2h3.325v-.756a2.193 2.193 0 0 1 2.098-2.244zm10.8 0q.203.006.4.05a2.21 2.21 0 0 1 1.7 2.188v.756h3.321a2.1 2.1 0 0 0 2.178-2c0-.266-.058-.53-.17-.771l-.568-1.331a2.82 2.82 0 0 0-2.122-.311c-.117.031-.2.053-.275.08l-.016.006h-.017zm1.1 3v-.764a1.195 1.195 0 0 0-1.148-1.23 1.1 1.1 0 0 0-.472.105l-3.706 1.764a.3.3 0 0 0-.132.127zm0-7.245-.003-.004a5.38 5.38 0 0 1-2.189 3.553 3 3 0 0 1 .583-.196l4.644-1.39c.124-.045.256-.079.356-.105h.02q.444-.107.9-.111.456 0 .9.106l-1.707-4.023a2.6 2.6 0 0 0-1.3-1.338 2.5 2.5 0 0 1-2.078 1.98zM9.504 28.996h5.454a.3.3 0 0 0-.133-.127l-2.12-1.01c-1.632-.776-1.712-.858-2.058-.859A1.194 1.194 0 0 0 9.5 28.23zm13.206-9.818a1.5 1.5 0 0 0 1.025-1.217 1 1 0 0 1-.429-.342l-.043.121v.01a1.04 1.04 0 0 1-.475.518l-.009.105zm-12.47-.806.257 3.276v.022c0 .024.011.063.022.113q.046.219.117.432c.159.48.395.93.7 1.333.719.947 2.078 1.952 4.691 1.952s3.954-1 4.658-1.949c.299-.403.528-.852.68-1.33q.068-.212.111-.431l.02-.113v-.02l.277-3.361.075-.9-.062-.066a2.05 2.05 0 0 1-.612-1.55l.01-.266a19.8 19.8 0 0 1-5.18.746 19.7 19.7 0 0 1-5.191-.755l.01.275a2.04 2.04 0 0 1-.6 1.539l-.064.078.076.984zm5.28 2.548-.66 2.14a.676.676 0 0 0 .65.88h.98a.68.68 0 0 0 .65-.88l-.66-2.14a.5.5 0 0 0-.958 0zM11.61 19a.33.33 0 0 1-.28-.181.55.55 0 0 1 .06-.634 2.93 2.93 0 0 1 2.389-.75.45.45 0 0 1 .31.5c-.02.246-.19.427-.39.4a2.35 2.35 0 0 0-1.88.57.29.29 0 0 1-.209.095m8.78 0a.29.29 0 0 1-.21-.09 2.35 2.35 0 0 0-1.88-.57.395.395 0 0 1-.39-.4.44.44 0 0 1 .31-.5 2.93 2.93 0 0 1 2.389.75.55.55 0 0 1 .06.634.32.32 0 0 1-.279.176m-7.45.53a1.8 1.8 0 0 0-1.74 1.35.356.356 0 0 0 .34.44h.56a1.14 1.14 0 1 1 2.2 0h.09a.3.3 0 0 0 .29-.35 1.76 1.76 0 0 0-1.74-1.44m6.12 0a1.8 1.8 0 0 1 1.74 1.35.356.356 0 0 1-.34.44h-.56q.037-.148.04-.3a1.14 1.14 0 1 0-2.24.3h-.09a.3.3 0 0 1-.29-.35 1.76 1.76 0 0 1 1.74-1.44m-5.86.84a.65.65 0 0 1 .65.65.6.6 0 0 1-.07.3h-1.158a.7.7 0 0 1-.07-.3c0-.12.032-.236.094-.338a.2.2 0 0 0 .348-.027.2.2 0 0 0-.048-.233.7.7 0 0 1 .254-.052m5.59 0a.7.7 0 0 0-.229.041.2.2 0 0 1 .01.321.2.2 0 0 1-.31-.083.65.65 0 0 0-.116.371.7.7 0 0 0 .07.3h1.16a.7.7 0 0 0 .07-.3.65.65 0 0 0-.655-.65"/></svg>