<svg xmlns="http://www.w3.org/2000/svg" fill="none" viewBox="0 0 32 32"><path fill="#212121" d="M14.882 12.7a.644.644 0 0 0-.629.49.128.128 0 0 0 .12.157h.213a.5.5 0 0 1-.019-.111c0-.231.185-.416.416-.416.222 0 .407.185.416.416 0 .037-.01.074-.018.11h.027c.065 0 .12-.055.102-.129a.63.63 0 0 0-.628-.517M15.56 13.975l.26-.84c.06-.18.32-.18.36 0l.26.84c.06.18-.07.35-.25.35h-.38c-.17 0-.3-.18-.25-.35M15.993 14.68c-.24 0-.453-.06-.64-.17-.062-.04-.134.04-.09.11.16.27.428.45.739.45.31 0 .578-.18.738-.45.035-.07-.027-.15-.09-.11-.204.11-.417.17-.657.17M17.76 13.19a.644.644 0 0 0-.628-.49.63.63 0 0 0-.628.517c-.019.074.037.13.101.13h.028q-.017-.056-.018-.111a.426.426 0 0 1 .415-.416c.231 0 .416.185.416.416 0 .037-.01.074-.018.11h.212a.128.128 0 0 0 .12-.156"/><path fill="#212121" d="M15.214 13.236a.24.24 0 0 0-.331-.223.073.073 0 1 1-.112.092.24.24 0 0 0-.01.242h.416a.18.18 0 0 0 .037-.111M16.8 13.236q0-.077.042-.138a.074.074 0 1 0 .112-.087.239.239 0 0 1 .298.336h-.415a.18.18 0 0 1-.037-.11M16.858 12.538a.27.27 0 0 1-.217-.114.25.25 0 0 1 .076-.349c.472-.311.944-.226.963-.217.141.028.226.16.198.302a.247.247 0 0 1-.293.198h-.01A.88.88 0 0 0 17 12.5a.27.27 0 0 1-.142.038M15.173 12.6a.3.3 0 0 1-.151-.047c-.284-.208-.567-.18-.586-.17a.26.26 0 0 1-.283-.217.253.253 0 0 1 .217-.283l.013-.001c.084-.007.52-.041.94.265a.257.257 0 0 1 .057.359.29.29 0 0 1-.207.094"/><path fill="#212121" d="M5.9 2h.2a.9.9 0 0 1 .9.9v1.482a1.5 1.5 0 0 1 1.5-.296 1.5 1.5 0 0 1 1 0 1.5 1.5 0 0 1 1 0 1.5 1.5 0 0 1 2 1.414V6h7v-.5a1.5 1.5 0 0 1 2-1.414 1.5 1.5 0 0 1 1 0 1.5 1.5 0 0 1 1 0 1.5 1.5 0 0 1 1.5.296V2.9a.9.9 0 0 1 .9-.9h.2a.9.9 0 0 1 .9.9v1.5a.9.9 0 0 1 .9-.9h.2a.9.9 0 0 1 .9.9V6h.87a.13.13 0 0 1 .13.13v.74a.13.13 0 0 1-.13.13H29v1.6a.9.9 0 0 1-.9.9h-.2a.9.9 0 0 1-.9-.9v1.5a.9.9 0 0 1-.9.9h-.2a.9.9 0 0 1-.9-.9V7.458c-.634 1.29-1.773 3.605-2.838 5.765.03.224-.002.452-.092.66a11.7 11.7 0 0 0-1.072 3.467v.692q.248-.042.5-.042a3 3 0 0 1 3 3v1.37c.01.338-.089.671-.282.949l-.317 4.202q.663.432 1.368.794a1.61 1.61 0 0 1 .652 1.947 1.004 1.004 0 0 1-.97.743h-3.942a1 1 0 0 1-1-.997L20 28.055l-.186-1.768A9 9 0 0 1 16.02 27a10 10 0 0 1-3.816-.625L12 28.06V30a1 1 0 0 1-1 1H7.042a1 1 0 0 1-.966-.739 1.67 1.67 0 0 1 .6-1.922 52 52 0 0 0 1.412-.865l-.336-3.681A1.52 1.52 0 0 1 7 22.485V21a3 3 0 0 1 4-2.829v-.821a11.6 11.6 0 0 0-1.067-3.463 1.26 1.26 0 0 1-.1-.663C8.776 11.084 7.638 8.772 7 7.476V10.1a.9.9 0 0 1-.9.9h-.2a.9.9 0 0 1-.9-.9V8.6a.9.9 0 0 1-.9.9h-.2a.9.9 0 0 1-.9-.9V7h-.87A.13.13 0 0 1 2 6.87v-.74A.13.13 0 0 1 2.13 6H3V4.4a.9.9 0 0 1 .9-.9h.2a.9.9 0 0 1 .9.9V2.9a.9.9 0 0 1 .9-.9m16.941 5.742a2 2 0 0 1-.173.1 1.376 1.376 0 0 1-2.026.697l-.822 1.659c.167.362.225.78.144 1.203l-.123.69.012.027 1.397.698 2.615-5.32-.024-.004A1.5 1.5 0 0 1 23 7.75q-.081.002-.159-.008m-2.902 5.537a1.75 1.75 0 0 1-.605.915l-.027.407-.001.011C19.186 15.947 18.129 17 16.77 17h-1.54c-1.36 0-2.415-1.053-2.536-2.388v-.011l-.028-.407a1.75 1.75 0 0 1-.605-.915l-1.066.533A13.3 13.3 0 0 1 12 17.35V21h7.5c0-.505.19-.967.5-1.32v-2.33c.17-1.22.508-2.412 1.005-3.539zm-7.792-1.162.013-.028-.129-.723a2 2 0 0 1 .147-1.171l-.822-1.655a1.376 1.376 0 0 1-2.025-.697 2 2 0 0 1-.172-.101 1.493 1.493 0 0 1-1-.25l-.034.004a4338 4338 0 0 0 2.62 5.322zM19 12.82a.75.75 0 0 0-.211-.521l-.077.432a.31.31 0 0 1-.288.269l.049-.707a.46.46 0 0 0-.144-.378l-.096-.09a.58.58 0 0 1-.192-.437v-.428a.265.265 0 0 0-.192-.259c-.307-.08-.95-.209-1.85-.209-.902 0-1.545.13-1.852.209a.265.265 0 0 0-.191.259v.408c0 .169-.077.328-.192.438l-.087.08a.5.5 0 0 0-.143.378l.047.706a.33.33 0 0 1-.297-.269l-.072-.404a.75.75 0 0 0 .413 1.263l.065.962c.078.859.736 1.478 1.54 1.478h1.54c.804 0 1.462-.62 1.54-1.478l.064-.962a.75.75 0 0 0 .626-.74m-.274-3.656.007.004.22.108.018.01q.074.04.143.086l.875-1.764-.05-.047A1.5 1.5 0 0 1 19.586 7h-7.172a1.5 1.5 0 0 1-.403.608l.872 1.758a2 2 0 0 1 .17-.1l.01-.005.186-.092a.6.6 0 0 0 .13-.097l.48-.498a1.86 1.86 0 0 1 2.105-.412.2.2 0 0 0 .09-.004l.003-.002a2.07 2.07 0 0 1 2.165.506l.006.006.399.414a.4.4 0 0 0 .1.082M21 5a.5.5 0 0 0-.5.5v1a.5.5 0 0 0 1 0 .5.5 0 0 0 1 0v-.25a.5.5 0 0 0 1 0V6a.5.5 0 0 0 1 0v-.5a.5.5 0 0 0-1 0 .5.5 0 0 0-1 0 .5.5 0 0 0-1 0A.5.5 0 0 0 21 5m-9.5 1.5V5.475a.5.5 0 0 0-1 .025.5.5 0 0 0-1 0 .5.5 0 1 0-1 0 .5.5 0 1 0-1 0V6a.5.5 0 1 0 1 0v.25a.5.5 0 1 0 1 0v.25a.5.5 0 1 0 1 0 .5.5 0 0 0 1 0M11.475 23H8.684l.456 5H11l.607-5.017a.5.5 0 0 1-.132.017m9 0L21 28h1.86l.38-5.04h-.12a.6.6 0 0 1-.216.04z"/></svg>