<svg xmlns="http://www.w3.org/2000/svg" fill="none" viewBox="0 0 32 32"><path fill="#212121" d="M7.69 12.002c.28 0 .5.22.5.5s-.22.5-.5.5h-3c-.28 0-.5-.22-.5-.5s.22-.5.5-.5zM9.69 12.002c.28 0 .5.22.5.5s-.22.5-.5.5-.5-.22-.5-.5.22-.5.5-.5M9.19 14.502c0 .28.22.5.5.5s.5-.22.5-.5-.22-.5-.5-.5-.5.22-.5.5M6.76 14.002H4.63c-.24 0-.43.19-.43.43v.13c0 .24.19.43.43.43h2.13c.24 0 .43-.19.43-.43v-.13c0-.24-.19-.43-.43-.43"/><path fill="#212121" d="M5.7 1h20.6A4.7 4.7 0 0 1 31 5.7v20.6a4.7 4.7 0 0 1-4.7 4.7H5.7A4.7 4.7 0 0 1 1 26.3V5.7A4.7 4.7 0 0 1 5.7 1M3 5.666q.085-.003.17-.004c1.02 0 1.964.33 2.73.888a8.5 8.5 0 0 1 5.16-1.737 8.55 8.55 0 0 1 8.234 6.237 6 6 0 0 1 2.194-.6 4.16 4.16 0 0 1 3.453-1.838c.675 0 1.312.161 1.876.447a2.18 2.18 0 0 1 1.363-.476h.12q.363-.001.7-.116V5.7A2.7 2.7 0 0 0 26.3 3H5.7A2.7 2.7 0 0 0 3 5.666m0 1v1.156l2.18 2.18h4.89c1.16 0 2.125.938 2.11 2.117v2.773c0 .582-.236 1.11-.619 1.491l.62.62h-1.99v.8c0 .1-.08.19-.19.19h-.61a.19.19 0 0 1-.19-.19v-.8H5.19v.8c0 .1-.08.19-.19.19h-.61a.19.19 0 0 1-.19-.19v-.8H3v8.13l9.19-8.13h7.926l2.015-2.38 3.984-4.785a3.16 3.16 0 0 0-4.037 1.596l-.117-.002a5.04 5.04 0 0 0-3.377 1.292 7.553 7.553 0 0 0-7.523-6.911 7.51 7.51 0 0 0-5.18 2.06A3.629 3.629 0 0 0 3 6.667M14.599 29H17.4l-.471-4.782h-1.86zM29 25.095v-8.093h-8.81zM11.18 14.892v-2.78c.01-.61-.49-1.11-1.11-1.11H4.3c-.61 0-1.11.5-1.11 1.11v2.78c0 .61.5 1.11 1.11 1.11h5.77c.306 0 .583-.125.784-.326s.327-.479.327-.784m5.22 3.982-.15-1.498h-.5l-.15 1.498zm.38 3.835-.31-3.096h-.94l-.31 3.106z"/></svg>