<svg width="32" height="32" fill="none" xmlns="http://www.w3.org/2000/svg"><path d="M23.82 10.1a.262.262 0 0 1 .012.069c.017.165.025.33.025.496v.008a4.83 4.83 0 0 1-.575 2.294c.005-.034-1.185 1.45-1.733 1.802-.76.49-1.645.753-2.549.758h-.408a9.248 9.248 0 0 0 2.945-2.173.5.5 0 0 0-.737-.674 9.115 9.115 0 0 1-6.213 2.85H13a4.723 4.723 0 0 1-2.492-.721c-.514-.322-1.728-1.762-1.724-1.729a4.832 4.832 0 0 1-.638-2.407v-.008c0-.126.005-.25.014-.373 0-.015.005-.03.008-.043a.202.202 0 0 0 .008-.049c.022-.252.064-.502.124-.747v-.012a4.852 4.852 0 0 1 4.7-3.63h6a4.851 4.851 0 0 1 4.613 3.351l.009.013.006.026.011.028a.263.263 0 0 1 .011.027c.01.036.017.075.023.113.005.033.01.067.019.099.05.19.09.385.116.58.002.017.007.034.011.051ZM13.8 8.14l-.043.06a1.211 1.211 0 0 0-.065.116c-.018.035-.035.07-.056.103a7.618 7.618 0 0 1 2.386 4.072 7.616 7.616 0 0 1 2.287-3.955l-.04-.069a5.016 5.016 0 0 0-.214-.343 2.578 2.578 0 0 0-4.255.016Zm-.8 6.387h1.534v.003c.18-.007.357-.027.536-.046l.041-.005c.093-.398.105-.81.036-1.213l-.047-.278a6.623 6.623 0 0 0-2.237-3.941 2.34 2.34 0 0 0-3.463.48 3.8 3.8 0 0 0 3.6 5Zm8.696-2.908a1.5 1.5 0 0 1 .791.696l.001.011a3.8 3.8 0 0 0 .2-2.742 2.308 2.308 0 0 0-2.432-1.022c-.085.02-.17.045-.252.075a2.319 2.319 0 0 0-.577.281 2.229 2.229 0 0 0-.24.161l-.022.018-.031.027a6.631 6.631 0 0 0-2.2 3.92l-.039.24a3.05 3.05 0 0 0-.023.8 8.015 8.015 0 0 0 3.181-2.069 1.494 1.494 0 0 1 1.643-.396Z" fill="#212121"/><path d="M28.281 8.582 30 7.894l.008 4.995-1.008.4v.211a10.5 10.5 0 0 1-1.542 5.473H30v5.114h-7.431a.15.15 0 0 0-.139.207.15.15 0 0 0 .064.073l1.727 1a1.478 1.478 0 1 1-1.478 2.56L21.137 27a3.43 3.43 0 0 1-3.4 3h-2.352a.385.385 0 0 1-.385-.385v-.194a3.43 3.43 0 0 1 3.429-3.429h.964l-2.134-1.232a5 5 0 0 0-2.5-.67H2v-5l2.133-.85a10.5 10.5 0 0 1-1.129-4.692 2.498 2.498 0 0 1-.013-.26 13.1 13.1 0 0 1 5.369-10.8 2.492 2.492 0 0 1 2.777-.084c.278.174.52.401.71.668l.029.041A2.5 2.5 0 0 1 14.344.992c1.92-.017 3.83.278 5.656.873a2.499 2.499 0 0 1 3.606-.772 12.66 12.66 0 0 1 3.748 5c.37.805.68 1.637.927 2.489ZM27 13.546V13.5l.009-.036-.003-.15-.003-.15v-.026a15.935 15.935 0 0 0-.479-3.454 12.479 12.479 0 0 1-.1-.356 15.993 15.993 0 0 0-.881-2.405c-.014-.036-.029-.068-.044-.1l-.015-.031-.06-.128a15.597 15.597 0 0 0-.127-.259 12.582 12.582 0 0 0-1.755-2.676 7.037 7.037 0 0 0-1.088-1.004.5.5 0 0 0-.378-.086.5.5 0 0 0-.41.581.5.5 0 0 0 .203.324c.363.268.692.578.981.924.347.408.661.843.941 1.3.265.43.506.873.723 1.329a11.342 11.342 0 0 0-2.555-2.127c-.25-.154-.513-.302-.789-.445a16.292 16.292 0 0 0-.415-.2l-.1-.048-.208-.093a13.041 13.041 0 0 0-.662-.267l-.205-.075c-.343-.12-.701-.23-1.075-.33a15.464 15.464 0 0 0-2.728-.456A17.799 17.799 0 0 0 14.344 3a.5.5 0 1 0 0 1c.484 0 .948.018 1.393.054a14.28 14.28 0 0 1 2.768.493l.225.069c.092.027.184.055.275.084.42.139.833.3 1.236.484A8.372 8.372 0 0 0 19 5.016C18.832 5 18.667 5 18.5 5h-5a8.321 8.321 0 0 0-1.092.07l-.163.022a8.482 8.482 0 0 0-4.277 1.953A9.9 9.9 0 0 1 9.042 5.81a9.21 9.21 0 0 1 1.058-.884.5.5 0 0 0-.026-.83.5.5 0 0 0-.557.02c-.394.282-.767.592-1.117.928a10.821 10.821 0 0 0-1.239 1.408l-.061.093a11.351 11.351 0 0 0-2.109 6.741A.44.44 0 0 0 5 13.4v.1a8.5 8.5 0 0 0 8.5 8.492h5a8.478 8.478 0 0 0 6.5-3.019h.006A8.5 8.5 0 0 0 27 13.546Z" fill="#212121"/></svg>