<svg xmlns="http://www.w3.org/2000/svg" fill="none" viewBox="0 0 32 32"><path fill="#212121" d="M13.567 8.498a.3.3 0 0 1-.185-.534 2.74 2.74 0 0 1 1.92-.47.3.3 0 0 1-.07.593 2.25 2.25 0 0 0-1.484.35.3.3 0 0 1-.18.061M20.393 8.437a.3.3 0 0 0 .183.062.3.3 0 0 0 .183-.535 2.73 2.73 0 0 0-1.919-.47.3.3 0 0 0 .071.593 2.22 2.22 0 0 1 1.482.35M14.629 9.14c-.67 0-1.23.46-1.38 1.08-.04.18.09.35.27.35h.44a.913.913 0 0 1 .88-1.15.9.9 0 0 1 .91.91q0 .12-.03.24h-.002.082c.15 0 .26-.13.23-.28-.13-.65-.7-1.15-1.4-1.15M19.519 9.14c.67 0 1.23.46 1.38 1.08.04.18-.09.35-.27.35h-.442.001q.03-.12.03-.24c0-.5-.41-.91-.91-.91-.51 0-.91.41-.91.91q0 .12.03.24h.002-.081a.23.23 0 0 1-.23-.28c.13-.65.7-1.15 1.4-1.15"/><path fill="#212121" d="M14.839 9.81a.516.516 0 0 1 .46.76h-.92a.522.522 0 0 1 .016-.513.16.16 0 1 0 .24-.206.5.5 0 0 1 .204-.04M19.309 9.81a.5.5 0 0 0-.184.033.16.16 0 1 1-.244.189.52.52 0 0 0-.032.538h.92q.06-.105.06-.24c0-.29-.23-.52-.52-.52"/><path fill="#212121" d="M28.991 31H5v-4.5a12 12 0 0 1 2.347-7.128l-1.338-2.31-.62.358c-.14.08-.31.03-.39-.11l-.25-.43a.29.29 0 0 1 .1-.39l1.492-.862L2.06 8.21a.42.42 0 0 1 .16-.58l1-.57c.2-.12.46-.05.58.16l4.273 7.409 1.486-.859a.29.29 0 0 1 .39.1l.25.43c.08.15.03.32-.1.4l-.597.345.847 1.466q.339-.227.696-.431a5.9 5.9 0 0 1-.824-2.316l-.009-.134-.379-5.764a6.23 6.23 0 0 1 1.533-4.841A6.04 6.04 0 0 1 15.951 1h2.25a6.145 6.145 0 0 1 6.111 6.93l-.36 5.835a5.9 5.9 0 0 1-.869 2.386 12.01 12.01 0 0 1 5.908 10.35zm-7.86-13.611-.434-.197c-.357.22-.744.396-1.151.521l-2.397 3.914-2.546-3.958a5 5 0 0 1-1.123-.547l-.501.22q-.758.334-1.446.783L18.531 29h3.36l-2.951-4.59 3.66-6.197q-.696-.472-1.469-.824m-2.102-11.03h-3.76c-1.66 0-2.97 1.4-2.85 3.06l.1 1.44a1.573 1.573 0 0 0 2.45 1.19l.82-.56c.82-.55 1.89-.55 2.71 0l.82.56a1.573 1.573 0 0 0 2.45-1.19l.1-1.44a2.85 2.85 0 0 0-2.84-3.06"/></svg>