<svg xmlns="http://www.w3.org/2000/svg" fill="none" viewBox="0 0 32 32"><path fill="#212121" d="M30 16c0 7.732-6.268 14-14 14S2 23.732 2 16 8.268 2 16 2s14 6.268 14 14m-5.233 6.645A10.95 10.95 0 0 0 27 16c0-6.075-4.925-11-11-11-2.497 0-4.8.832-6.645 2.233l1.652 1.652A1 1 0 0 1 12 8h8a1 1 0 0 1 1 1v9.879zm-2.122 2.122-1.651-1.652A1 1 0 0 1 20 24h-8a1 1 0 0 1-1-1v-9.879L7.233 9.355A10.95 10.95 0 0 0 5 16c0 6.075 4.925 11 11 11 2.497 0 4.8-.832 6.645-2.233M12 14.12v7.629c0 .138.112.25.25.25h7.5a.25.25 0 0 0 .105-.023zm8 3.758V11.25a.25.25 0 0 0-.25-.25h-6.629zM13 9.5a.5.5 0 0 0 .5.5h5a.5.5 0 0 0 0-1h-5a.5.5 0 0 0-.5.5"/></svg>