<svg xmlns="http://www.w3.org/2000/svg" fill="none" viewBox="0 0 32 32"><path fill="#212121" d="M22.96 13.15c-.327-.284-.707-.586-1.282-.767-.567-.178-1.278-.226-2.26-.106a.517.517 0 1 0 .125 1.026c.897-.11 1.446-.053 1.824.066.37.117.62.305.913.56a.517.517 0 0 0 .68-.779M9.015 17.367a2.607 2.607 0 0 1 5.085.128.428.428 0 0 1-.425.505h-.148q.06-.207.059-.443a1.664 1.664 0 1 0-3.268.443h-.8a.512.512 0 0 1-.503-.633M15.287 17.527l-.99 3.17a1.005 1.005 0 0 0 .97 1.303h1.466c.688 0 1.173-.662.97-1.304l-.99-3.17c-.213-.701-1.203-.701-1.426 0M13.417 23.283c.747.39 1.637.612 2.583.612.956 0 1.836-.222 2.583-.612.256-.13.53.148.369.39A3.53 3.53 0 0 1 16 25.25a3.53 3.53 0 0 1-2.952-1.577c-.16-.232.114-.52.369-.39M20.458 15.4c1.214 0 2.24.84 2.527 1.967a.512.512 0 0 1-.503.633h-.8a1.664 1.664 0 0 0-1.61-2.108 1.65 1.65 0 0 0-1.658 1.665q0 .236.06.443h-.149a.428.428 0 0 1-.424-.504 2.6 2.6 0 0 1 2.557-2.096"/><path fill="#212121" d="M12.875 17.557a.947.947 0 0 0-1.329-.866.301.301 0 0 1-.191.529.3.3 0 0 1-.248-.136c-.081.139-.127.3-.127.473 0 .157.039.305.108.443h1.679a1 1 0 0 0 .108-.443M19.274 17.032a.94.94 0 0 0-.16.525c0 .157.04.305.11.443h1.678a.947.947 0 0 0-1.182-1.325.3.3 0 0 1-.17.545.3.3 0 0 1-.276-.188M9.364 13.13l-.001.002a.517.517 0 0 0 .633.818l.005-.004.03-.022q.045-.032.14-.09a4.138 4.138 0 0 1 2.585-.53.517.517 0 1 0 .127-1.027 5.17 5.17 0 0 0-3.242.67 4 4 0 0 0-.253.166l-.016.012-.006.004zM19.425 18.666a.5.5 0 1 0-.745.668c.252.281.544.54.954.72.404.18.886.266 1.498.266a.5.5 0 1 0 0-1c-.52 0-.854-.074-1.094-.18-.236-.104-.418-.255-.613-.474M13.425 18.638a.5.5 0 0 0-.707.017l-.016.016q-.025.023-.082.071a2.562 2.562 0 0 1-1.62.578.5.5 0 0 0 0 1 3.56 3.56 0 0 0 2.424-.957l.011-.011.004-.004.002-.002.001-.001a.5.5 0 0 0-.017-.707"/><path fill="#212121" d="M25.052 6.11c.959.33 1.819 1 2.363 1.96.87 1.53 1.741 3.36.802 4.71a2.9 2.9 0 0 0-.504 1.63v.661A3.99 3.99 0 0 1 29 18.01a3.99 3.99 0 0 1-1.252 2.907l.002 1.069c0 1.128-.914 2.172-1.973 2.92a8.3 8.3 0 0 1-8.01 6.104h-3.518a8.3 8.3 0 0 1-8.008-6.09c-1.066-.75-1.991-1.8-1.991-2.934q.022-.52.034-1.039A3.99 3.99 0 0 1 3 18.01c0-1.157.491-2.2 1.276-2.93l-.001-.67c0-.58-.178-1.15-.505-1.63C2.88 11.47 3 9.64 4 8.07c.836-1.312 1.62-1.549 2.439-1.795.16-.049.323-.098.487-.155a5 5 0 0 0 2.58-2.07A4.34 4.34 0 0 1 13.187 2c.603 0 1.176.13 1.71.35.712.31 1.513.31 2.225 0a4.4 4.4 0 0 1 1.7-.35c1.573 0 2.947.85 3.709 2.11.573.95 1.473 1.64 2.521 2M12.79 8C9.899 8 7.5 10.374 7.5 13.3v2.606l-.62.09-.253.049a2 2 0 0 0 .26 3.962l.884.05L8 23.56a6.3 6.3 0 0 0 6.249 5.449h3.517a6.3 6.3 0 0 0 6.249-5.448l.22-3.504.884-.051a2 2 0 0 0 .216-3.97l-.887-.148.166-2.768a1.7 1.7 0 0 0-1.593-1.651h-2.35a.5.5 0 0 1-.171.03h-9a.5.5 0 0 1 0-1h5.817a5.5 5.5 0 0 1-1.1-1H13.5a.5.5 0 0 1 0-1h2.048a6 6 0 0 1-.151-.313l-.008-.018-.007-.018A.24.24 0 0 0 15.163 8z"/></svg>