<svg width="32" height="32" fill="none" xmlns="http://www.w3.org/2000/svg"><path d="M22 9a1 1 0 1 0 0-2 1 1 0 0 0 0 2ZM15 13a3 3 0 0 1-3 3 1.001 1.001 0 0 0-.707 1.707A1 1 0 0 0 12 18a3 3 0 1 1-2.241 4.994l-.012.008-3.188-3.83a.992.992 0 1 0-1.525 1.268l3.053 3.669-.002.001a5 5 0 0 0 8.588-4.893l4.088-1.49c1.553-.494 2.739-.34 3.488.077.727.404 1.157 1.11 1.157 2.04 0 1.143-.432 1.86-1.015 2.264-.605.42-1.524.604-2.659.357l-2.045-.527a1 1 0 1 0-.499 1.937l2.063.53.017.005.016.004c1.546.341 3.074.15 4.247-.662 1.198-.83 1.875-2.208 1.875-3.908 0-1.633-.803-3.02-2.186-3.789-1.357-.753-3.15-.849-5.088-.226l-.017.006-.02.007-4.532 1.65A5.02 5.02 0 0 0 15 17a5 5 0 1 0-8-4 1 1 0 1 0 2 0 3 3 0 1 1 6 0Z" fill="#212121"/><path d="M19.03 9.205a1 1 0 0 1 1.39.262l.343.504a3 3 0 0 0 2.906 1.277l.782-.113a1 1 0 0 1 .285 1.98l-.782.112a5 5 0 0 1-4.842-2.129l-.344-.503a1 1 0 0 1 .262-1.39Z" fill="#212121"/><path d="M6 1a5 5 0 0 0-5 5v20a5 5 0 0 0 5 5h20a5 5 0 0 0 5-5V6a5 5 0 0 0-5-5H6ZM3 6a3 3 0 0 1 3-3h20a3 3 0 0 1 3 3v20a3 3 0 0 1-3 3H6a3 3 0 0 1-3-3V6Z" fill="#212121"/></svg>