<svg width="32" height="32" fill="none" xmlns="http://www.w3.org/2000/svg"><path d="M15.371 13.041c.111.037.226.064.342.081.185.047.373.08.563.1a1.978 1.978 0 0 0 3.846.114c.218-.786.33-1.598.333-2.414a9.441 9.441 0 0 0 1.168-2.1l.013-.03.107-.26.137-.346a28.99 28.99 0 0 0 .415-1.146l.027-.08.01-.032c.068-.2.136-.422.2-.646.038-.129.074-.26.109-.392a9.501 9.501 0 0 0 .322-1.791v-.03a2 2 0 0 0-1.732-2.052c-.389-.05-.784.018-1.134.195a2 2 0 0 0-1.091 1.636v.01a8.502 8.502 0 0 1-.43 1.793c-.1.3-.2.585-.3.84-.2-.103-.41-.19-.624-.26l-.019-.009a3.592 3.592 0 0 0-2.262 6.818v.001Zm3.786.031a.978.978 0 0 1-1.849.117c.19-.034.377-.082.559-.144a4.434 4.434 0 0 0 1.489-.89c-.05.31-.116.615-.199.917Zm-5.11-4.26a2.586 2.586 0 0 1 3.27-1.64l.03.01c.195.062.383.144.561.244l-.021.049v.012a5.428 5.428 0 0 1-.9 1.429l-.016.016-.025.029a1.88 1.88 0 0 1-.1.109 2.193 2.193 0 0 0-.1-.038l-.03-.01a.634.634 0 0 0-.8.4.575.575 0 0 0 .03.48c.06.128.162.231.289.292.034.008.067.017.1.028.09.032.184.053.279.061a.8.8 0 0 0 .437-.1c.07-.036.137-.077.2-.124.168-.132.322-.28.458-.445l.01-.01a6.325 6.325 0 0 0 1.077-1.693 4.624 4.624 0 0 0 .088-.215.03.03 0 0 0 0-.015l.01-.024a16.897 16.897 0 0 0 .162-.393l.034-.087.034-.088c.424-1.015.72-2.079.883-3.167a.999.999 0 0 1 .333-.674.979.979 0 0 1 .707-.246c.215.012.42.096.58.24a1 1 0 0 1 .34.79c-.01.159-.029.327-.055.5-.08.492-.192.98-.336 1.457l-.042.14a23.581 23.581 0 0 1-.615 1.764l-.033.084a24.263 24.263 0 0 1-.174.429l-.015.036-.086.208a8.517 8.517 0 0 1-1.414 2.24 3.736 3.736 0 0 1-1.831 1.26c-.34.092-.694.117-1.043.072a2.942 2.942 0 0 1-.422-.084.905.905 0 0 1-.214-.045 2.593 2.593 0 0 1-1.64-3.281ZM12.06 3.98a.96.96 0 1 1-1.066-1.596.96.96 0 0 1 1.066 1.596ZM23.968 22.826a.97.97 0 1 1 1.078 1.612.97.97 0 0 1-1.078-1.612ZM24.967 8.912a1.16 1.16 0 1 0 0-2.32 1.16 1.16 0 0 0 0 2.32ZM6.651 8.716a1.16 1.16 0 1 1-1.288-1.929 1.16 1.16 0 0 1 1.288 1.93Z" fill="#212121"/><path d="M29.396 14.89c-.252.116-.539.128-.799.032a6.646 6.646 0 0 0-6.397.969c2.327.06 4.602.694 6.623 1.849a2.15 2.15 0 0 1-2.086 3.76 9.742 9.742 0 0 0-7.981-.813c.335.643.586 1.327.745 2.035.057.211.085.43.084.648a1.963 1.963 0 0 1-.48 1.542c-.08.08-.169.15-.265.209a2.4 2.4 0 0 1-1.055.591l-12.738 3.41a2.42 2.42 0 0 1-2.96-2.97l3.41-12.74a2.4 2.4 0 0 1 .6-1.065c.057-.092.124-.178.2-.255a1.938 1.938 0 0 1 1.495-.482c.243-.006.486.025.72.092.621.14 1.223.354 1.794.636.28-1.62.01-3.288-.769-4.736a1.174 1.174 0 0 1 2.07-1.11 9.715 9.715 0 0 1 .824 7.11 21.066 21.066 0 0 1 2.209 1.805 1.15 1.15 0 0 1 1.677 1.573 16.103 16.103 0 0 1 4.522-1.051 1.05 1.05 0 0 1 .004-1.641 8.74 8.74 0 0 1 8.486-1.33 1.048 1.048 0 0 1 .067 1.932Zm-17.888 7.357-.181-.155.166.142.015.012Zm0 0 .132.112a13.258 13.258 0 0 0-.132-.113Zm-7.454 5.908c.24.065.494.065.735.001l.578-.151a11.293 11.293 0 0 1-2.183-2.08l-.131.49a1.419 1.419 0 0 0 1.001 1.74Zm1.596-2.507a10.26 10.26 0 0 0 2.379 1.641l2.798-.749a17.513 17.513 0 0 1-3.03-2.265 19.225 19.225 0 0 1-3.142-3.853l-.794 2.969a10.149 10.149 0 0 0 1.789 2.257Zm3.517-2.835a16.3 16.3 0 0 0 4.53 2.96l2.491-.668a16.71 16.71 0 0 1-6.011-4.073 22.352 22.352 0 0 1-1.664-1.85c-.23-.285-.444-.57-.644-.853a12.932 12.932 0 0 1-1.772-3.307l-.703 2.661a18.654 18.654 0 0 0 3.773 5.13Zm19.534-3.91a1.15 1.15 0 0 0-.356-.288h-.005a13.151 13.151 0 0 0-11.255-.857l-.192.07.009.01a13.12 13.12 0 0 0-4.94 3.476c.259.227.51.435.759.635.349.28.7.539 1.1.8a10.151 10.151 0 0 1 4.028-2.82 10.86 10.86 0 0 1 9.375.693 1.15 1.15 0 0 0 1.477-1.72Z" fill="#212121"/></svg>