<svg xmlns="http://www.w3.org/2000/svg" fill="none" viewBox="0 0 32 32"><path fill="#212121" d="M26.595 1.39a4 4 0 0 0-2.821 1.15l-.008.008-.662.666-10.552 8.436-.02.018c-.93.833-1.791 1.738-2.575 2.709l-.027.033-7.08 10.477-.287.283-.005.004a3 3 0 0 0-.306 3.883l-1.071 1.07a.5.5 0 1 0 .707.708l1.077-1.078a3 3 0 0 0 3.837-.34l.285-.286 10.486-7.09.04-.035a28 28 0 0 0 2.981-2.92l.015-.017 8.122-10.152 1.065 1.066-5.303 5.303a.5.5 0 1 0 .707.707l5.303-5.303a1 1 0 0 0 0-1.415L29.427 8.2l.006-.006a4 4 0 0 0-2.838-6.804m1.418 5.395-2.828-2.828a2 2 0 0 1 2.828 2.828M24.48 4.667l2.832 2.831-.041.043-8.14 10.175-4.872-4.87 10.184-8.141zM17.031 19.86q-.327.297-.666.582L6.034 27.43l-1.485-1.485 6.99-10.343a21 21 0 0 1 .565-.668z"/></svg>