<svg width="32" height="32" fill="none" xmlns="http://www.w3.org/2000/svg"><g clip-path="url(#a)" fill="#212121"><path d="M9.825 10.44C9.507 9.66 8.815 9.121 8 9.121c-.813 0-1.505.537-1.823 1.317-.047.095-.169.074-.178-.031v-.158c0-1.286.963-2.33 2.123-2.245.991.063 1.795.959 1.87 2.065.01.116.01.222 0 .338-.01.105-.13.126-.168.031ZM10.5 14.611c-2.083 0-3.894-.99-4.827-2.444-.174-.278-.673-.176-.673.139 0 .157.01.315.033.481.26 2.269 2.451 4.065 5.12 4.204C13.343 17.158 16 15 16 12.306v-.01c0-.314-.499-.407-.673-.138-.932 1.463-2.744 2.453-4.827 2.453ZM12.996 9.122c.812 0 1.502.537 1.82 1.317.037.095.168.074.177-.031.01-.106.01-.222 0-.338-.075-1.106-.877-2.002-1.866-2.065C11.961 7.92 11 8.964 11 10.25v.158c.01.105.13.126.177.031.318-.78 1.008-1.317 1.82-1.317ZM21.5 23.63c1.893 0 3.54 1.09 4.389 2.689.157.305.611.193.611-.153 0-.173-.01-.346-.03-.53-.236-2.495-2.228-4.47-4.654-4.624-2.9-.183-5.316 2.19-5.316 5.154v.01c0 .346.454.448.611.153.849-1.61 2.495-2.7 4.389-2.7ZM20.815 20.44c-.318-.78-1.01-1.318-1.823-1.318-.814 0-1.506.538-1.814 1.317-.047.095-.169.074-.178-.031v-.158c0-1.286.963-2.33 2.123-2.245.991.063 1.795.959 1.87 2.066.01.115.01.231 0 .337-.01.105-.14.126-.178.031ZM24.013 19.122c.813 0 1.505.538 1.823 1.317.038.095.168.074.178-.031a2.02 2.02 0 0 0 0-.338c-.075-1.106-.88-2.002-1.87-2.065-1.16-.085-2.123.959-2.123 2.245v.158c.01.105.13.126.177.031.309-.78 1.001-1.317 1.815-1.317Z"/><path d="m15.421.322-1.757.745a8.083 8.083 0 0 1-6.31 0l-.004-.002L5.587.322 5.585.32C2.647-.922-.481 1.587.06 4.71l1.757 10.009v.003a8.815 8.815 0 0 0 10.49 7.092l.51 2.905.001.003A8.815 8.815 0 0 0 21.5 32a8.815 8.815 0 0 0 8.682-7.278l1.757-10.008v-.004c.543-3.123-2.588-5.632-5.526-4.388l-1.757.746a8.087 8.087 0 0 1-4.913.448l1.192-6.794.001-.005c.56-3.136-2.583-5.637-5.515-4.395ZM2.031 4.368c-.273-1.57 1.302-2.829 2.776-2.205l1.766.745a10.08 10.08 0 0 0 7.872 0l1.756-.745c1.474-.624 3.048.634 2.766 2.205L17.21 14.372v.001A6.813 6.813 0 0 1 10.499 20a6.815 6.815 0 0 1-6.712-5.627L2.031 4.368ZM14.046 20.15a7.816 7.816 0 0 0 4.15-5.603v-.001l.23-1.316a10.055 10.055 0 0 0 1.958.417c1.704.19 3.447-.056 5.053-.738l1.756-.745c1.474-.624 3.049.634 2.776 2.204l-1.756 10.005A6.815 6.815 0 0 1 21.5 30a6.815 6.815 0 0 1-6.713-5.627l-.741-4.223Z"/></g><defs><clipPath id="a"><path fill="#fff" d="M0 0h32v32H0z"/></clipPath></defs></svg>