<svg xmlns="http://www.w3.org/2000/svg" fill="none" viewBox="0 0 32 32"><path fill="#212121" d="M12.571 5.283a.93.93 0 0 1 .643-.159.125.125 0 1 0 .031-.248 1.18 1.18 0 0 0-.816.201.125.125 0 1 0 .142.206M15.05 5.58a.62.62 0 0 1 .6.47.13.13 0 0 1-.068.136.1.1 0 0 1-.052.014h-.14a.4.4 0 0 0 0-.11.39.39 0 0 0-.39-.39.4.4 0 0 0-.37.39v.11h-.1a.11.11 0 0 1-.1-.12.62.62 0 0 1 .62-.5M13.84 6.06l-.23.73a.25.25 0 0 0 .23.31h.33a.24.24 0 0 0 .22-.31l-.22-.73a.17.17 0 0 0-.33 0M14 7.51a1.4 1.4 0 0 1-.63-.15c-.06 0-.13 0-.09.1a.87.87 0 0 0 1.45 0c0-.06 0-.14-.09-.1a1.5 1.5 0 0 1-.64.15M13 5.58a.62.62 0 0 0-.6.47.12.12 0 0 0 .12.15h.13a.4.4 0 0 1 0-.11.4.4 0 0 1 .4-.39.4.4 0 0 1 .35.39.4.4 0 0 1 0 .11h.12a.11.11 0 0 0 .1-.12.63.63 0 0 0-.62-.5"/><path fill="#212121" d="M13.031 5.887a.3.3 0 0 0-.067.008.07.07 0 1 1-.108.09.5.5 0 0 0-.036.215h.45c0-.145-.051-.313-.239-.313M14.998 5.887a.2.2 0 0 0-.097.019.07.07 0 0 1-.087.099.6.6 0 0 0-.027.195h.45c0-.145-.051-.313-.239-.313M14.766 4.876c.287-.033.576.038.814.2a.125.125 0 1 1-.14.207.96.96 0 0 0-.646-.159.125.125 0 0 1-.028-.248"/><path fill="#212121" d="M22.494 22.153c-.14-.214-.39-.585-.576-.86l2.43-.836.004-.002a2.25 2.25 0 0 1 2.876 1.406l.007.022.006.022a2.26 2.26 0 0 1-1.398 2.745l-.009.003-1.492.514.038.11a1.37 1.37 0 0 1-1.889 1.667l-.01-.005-1.359-.663L10.312 30H21.35c3.181 0 6.696-2.298 7.994-5.431A8.6 8.6 0 0 0 30 21.26c0-4.4-5.3-5.7-7.1-2.36a10 10 0 0 1-1.335 1.87c-.836-1.267-1.657-2.695-1.657-3.84v-1.475q.045.039.083.065.236.163.515.233c.152.118.328.2.516.24q.15.032.3.032.24.101.5.108h.006q.1 0 .2-.01.226.06.462.057c.561 0 1.272-.314 1.474-1.81a8 8 0 0 0 .065-1.075v-.093q.001-.06.01-.12l.006-.046.004-.042c.009-.084.017-.162.021-.253a4.3 4.3 0 0 0-.055-.888C23.38 7.53 19.745 6.9 17.7 6.806a1.73 1.73 0 0 0-.109-1.476 2 2 0 0 0-.058-1.954 1.97 1.97 0 0 0-1.083-.892.13.13 0 0 1-.08-.05 2 2 0 0 0-.723-.7A2 2 0 0 0 14 1.59a2 2 0 0 0-.655-.11h-.027a2 2 0 0 0-1.7.94.12.12 0 0 1-.062.06 2.02 2.02 0 0 0-1.155 2.852 1.72 1.72 0 0 0 .08 1.818v.01a1.94 1.94 0 0 0 .787 1.559q.154.25.357.46a4.9 4.9 0 0 1-3.843 2.784H7.7a6 6 0 0 1-.656-.059 6 6 0 0 0-.8-.068 2.57 2.57 0 0 0-2.045.99 1.1 1.1 0 0 0-.154.282 1.55 1.55 0 0 0-.389.87 1.41 1.41 0 0 0 .033 1.433c.13.192.303.35.505.465q.077.087.166.16l.044.035c.227.163.5.248.78.243q.131 0 .261-.023c.259.237.598.366.95.362a1.63 1.63 0 0 0 1.042-.385l.3-.27.3-.024.216-.018h.054a9.1 9.1 0 0 0 4.062-1.62l-.026.068L6.19 27.417a1 1 0 0 0-.095.382L2.2 29.14a.44.44 0 0 0 .14.86h2.795a12.9 12.9 0 0 0 4.255-.74l11.798-4.064 1.732.844a.37.37 0 0 0 .51-.45l-.36-1.043 2.43-.837a1.26 1.26 0 0 0 .77-1.56 1.25 1.25 0 0 0-1.103-.819h-.015l-.016-.001a1.3 1.3 0 0 0-.456.07zM11.484 5.577a.7.7 0 0 1 .296-.127V5.1a1.47 1.47 0 0 1 1.47-1.47h.55a.29.29 0 0 1 .27.19 1.07 1.07 0 0 0 1 .62h.61a.64.64 0 0 1 .426.19c.176.18.152.369.125.577-.01.078-.02.16-.02.243.094.021.262.072.339.13v.035a.72.72 0 0 1-.004 1.133l-.005.001a.7.7 0 0 1-.394.15l-.037.631A1.71 1.71 0 0 1 14.42 9h-.82a1.69 1.69 0 0 1-1.72-1.51l-.038-.592a.7.7 0 0 1-.362-.133V6.76a.72.72 0 0 1 0-1.17c0-.007.004-.013.004-.013m1 4.198c.32.141.67.218 1.025.225h.922a2.71 2.71 0 0 0 2.649-2.208c2.668.04 5.439.724 5.954 4.208h-2.128a2.8 2.8 0 0 0-.38-.925 2.73 2.73 0 0 0-2.446-1.08h-.179c-.563.075-.467.38-.369.688l.01.03q.024.072.041.143c.1.276.21.556.321.84l.063.16a10 10 0 0 1 .946 3.615v1.45c0 1.117.886 2.812 1.464 3.797l-2.118.882a15.3 15.3 0 0 1-2.1-3.484.44.44 0 0 0-.418-.258.48.48 0 0 0-.394.211l-4.859 7.233-1.895-.631 4.666-9.874a1 1 0 0 0 .092-.727 20 20 0 0 1-.447-1.488 8.43 8.43 0 0 1-4.01 2.24l-.332-1.993a6.14 6.14 0 0 0 3.921-3.054M20.93 13h2.121q-.008.071-.013.151v.143q.005.473-.056.941c-.072.535-.2.944-.483.944a.4.4 0 0 1-.247-.048.2.2 0 0 0-.119-.029 1 1 0 0 0-.14.015 1 1 0 0 1-.127.015h-.007a.34.34 0 0 1-.2-.065.3.3 0 0 0-.18-.049h-.144a.316.316 0 0 1-.255-.103.57.57 0 0 0-.266-.124.7.7 0 0 1-.238-.1c-.162-.115-.079-.336-.028-.468.04-.106.026-.122-.045-.139a.254.254 0 0 1-.223-.205.97.97 0 0 1 .261-.758.36.36 0 0 1 .215-.058q.083 0 .164.02v-.015zm.597 9.486-1.864.641a15 15 0 0 1-.718-.729l1.968-.82c.106.155.364.534.614.908M8.163 25.58l2.003.668-.014.153-2.839.977zm10.435-2.087-7.406 2.55 4.446-6.617a17.1 17.1 0 0 0 2.96 4.067M6.918 12.896q.323.048.652.063l.337 2.022a7 7 0 0 1-.575.031l-.543.492a.63.63 0 0 1-.4.15.37.37 0 0 1-.29-.119c-.282-.336.074-.66.257-.8h-.018a.89.89 0 0 0-.767.373l-.087.1a.42.42 0 0 1-.3.115A.32.32 0 0 1 5 15.27a.39.39 0 0 1-.16-.234h-.034a.35.35 0 0 1-.275-.163.49.49 0 0 1 .135-.59.56.56 0 0 1 .31-.657.27.27 0 0 1 .024-.203 1.58 1.58 0 0 1 1.242-.586q.34.009.675.06m11.977-1.395v-.003l-.17-.429a1.43 1.43 0 0 1 .955.557c.136.213.226.45.265.7l-.017.012a1.7 1.7 0 0 0-.479.64v.002c-.17-.514-.367-1.009-.554-1.479M27.67 10.91a.86.86 0 1 1-1.72 0 .86.86 0 0 1 1.72 0M29.81 12.99a.98.98 0 1 1-1.96 0 .98.98 0 0 1 1.96 0"/><path fill="#212121" d="M25.82 16.18a1.25 1.25 0 1 0 0-2.5 1.25 1.25 0 0 0 0 2.5"/></svg>