<svg width="32" height="32" fill="none" xmlns="http://www.w3.org/2000/svg"><path d="M16 16.94h.87a.61.61 0 0 0 .58-.79l-.59-1.9a.446.446 0 0 0-.85.01l-.59 1.9a.6.6 0 0 0 .58.78ZM18.336 17.757a.178.178 0 0 1-.026.113 2.246 2.246 0 0 1-2.95.751 2.224 2.224 0 0 1-.81-.751.179.179 0 0 1 .24-.25 3.562 3.562 0 0 0 3.28 0 .18.18 0 0 1 .266.137ZM19.635 14.951a1.722 1.722 0 0 1-.715.159 1.7 1.7 0 0 1-1.29-.6.284.284 0 0 1 .21-.47.3.3 0 0 1 .22.1 1.144 1.144 0 0 0 1.72 0 .321.321 0 0 1 .22-.1.288.288 0 0 1 .22.47c-.161.187-.36.338-.585.441ZM14.79 14.14a.321.321 0 0 1 .22-.1.282.282 0 0 1 .22.47 1.72 1.72 0 0 1-1.3.6 1.701 1.701 0 0 1-1.29-.6.283.283 0 0 1 .21-.47.3.3 0 0 1 .22.1 1.14 1.14 0 0 0 1.72 0Z" fill="#212121"/><path d="M26.775 24.705a12.34 12.34 0 0 1 2.047 4.96A2 2 0 0 1 26.85 32H6a2.001 2.001 0 0 1-1.972-2.33 12.29 12.29 0 0 1 6.054-8.62 12.317 12.317 0 0 1-.114-.174 4.4 4.4 0 0 1-2.078-3.751V16.9a3.871 3.871 0 0 1-.78-2.332v-.089a3.192 3.192 0 0 1-.12-.869L6.98 2a2 2 0 0 1 2-2h3.37a2 2 0 0 1 2 2v1.024c.119-.009.239-.014.36-.014a4.455 4.455 0 0 1 1.725.336 4.749 4.749 0 0 1 2.065-.313V2a2 2 0 0 1 2-2h3.37a2 2 0 0 1 2 2l-.01 11.6c.001.305-.043.608-.13.9v.068a3.88 3.88 0 0 1-.76 2.3v.252a4.423 4.423 0 0 1-1.977 3.686 9.906 9.906 0 0 1-.177.276c1.57.903 2.92 2.14 3.959 3.623Zm-13.521-3.391c.226.129.463.237.709.323a4.372 4.372 0 0 0 1.437.243h2.132a4.374 4.374 0 0 0 1.756-.385c.157-.068.31-.145.457-.231l.045-.028.039-.024c.052-.033.105-.065.156-.1a4.419 4.419 0 0 0 1.526-1.769 4.4 4.4 0 0 0 .379-1.293l.155-2.389a2.119 2.119 0 0 1-1.458-2.021v-.968c-.005.006-.006.013-.006.02 0 .007 0 .013-.004.018a.29.29 0 0 1-.24.11.329.329 0 0 1-.19-.06 2.524 2.524 0 0 0-1.67-.39.308.308 0 0 1-.35-.27.3.3 0 0 1 .17-.293 2.134 2.134 0 0 1-1.463-2.993 2.735 2.735 0 0 1-.207-.324.734.734 0 0 0-.7-.47h-.5l.163.163a2.144 2.144 0 0 1-1.007 3.621.3.3 0 0 1 .16.286.31.31 0 0 1-.35.27 2.435 2.435 0 0 0-1.66.39.3.3 0 0 1-.329.039.318.318 0 0 1-.111-.089c-.012-.014-.013-.03-.014-.045-.001-.01-.002-.022-.006-.032v1.02a2.13 2.13 0 0 1-1.4 2l.157 2.407a4.592 4.592 0 0 0 1.444 2.718c.18.153.371.292.573.415l.063.041c.047.031.095.062.144.09Zm6.891.882-.032.507a3.501 3.501 0 0 1-6.976.126l-.046-.47a5.404 5.404 0 0 1-.523-.283A10.423 10.423 0 0 0 6 30h20.85a10.378 10.378 0 0 0-6.538-7.901c-.055.033-.11.066-.167.097ZM12.27 10.92v1.48a.293.293 0 0 1 .08-.139c.355-.245.76-.41 1.185-.484a2.144 2.144 0 0 1-.944-.531l-.321-.326Zm8.31 1.47v-1.47l-.317.326c-.267.257-.595.44-.953.533a2.98 2.98 0 0 1 1.2.492c.03.022.043.054.056.086l.014.033ZM20.5 2v3.35a4.459 4.459 0 0 1-.233 1.017.388.388 0 0 1-.026.047c-.007.012-.015.025-.021.038-.044.09-.093.178-.148.263-.075.113-.16.219-.252.317l-.015.019a.208.208 0 0 1-.015.019l-1.133 1.138-.682.682a1.21 1.21 0 0 0-.25.365c-.03.085-.051.174-.062.264a1.107 1.107 0 0 0 .625 1.238c.138.063.287.097.438.101a1.089 1.089 0 0 0 .835-.328l.414-.42.24-.24.013-.008A.813.813 0 0 1 20.5 9.7a.75.75 0 0 1 .108-.041.785.785 0 0 1 .444.039.124.124 0 0 1 .026.007c.028.014.055.03.08.048.065.035.124.08.176.132.05.05.095.106.13.168.006.01.013.018.02.026.01.01.019.019.024.031h-.017a.799.799 0 0 1 .084.34v3.19a1.13 1.13 0 0 0 .347.818c.089.078.19.141.3.186.047.025.096.047.146.066.071.019.144.032.218.039.056.011.113.019.17.021a1.11 1.11 0 0 0 .43-.1.071.071 0 0 0 .014-.01c.005-.003.009-.007.014-.009.193-.094.351-.248.45-.439a1.03 1.03 0 0 0 .062-.1c.05-.107.083-.221.1-.338.016-.057.027-.115.034-.174L23.87 2H20.5Zm-8.15 3.35V2H8.98l.01 11.606c.007.049.017.097.029.144a1.173 1.173 0 0 0 .338.7c.01.01.022.018.033.025l.028.02c.079.073.167.133.263.181a1.1 1.1 0 0 0 .409.1h.014a1.31 1.31 0 0 0 .428-.078l.023-.011.019-.01a1.1 1.1 0 0 0 .357-.222 1.13 1.13 0 0 0 .347-.818v-3.19a.808.808 0 0 1 1.377-.573l.643.653a1.09 1.09 0 0 0 .835.328 1.12 1.12 0 0 0 .8-.367 1.148 1.148 0 0 0-.05-1.6l-1.82-1.82a.163.163 0 0 1-.015-.02 2.423 2.423 0 0 1-.413-.598.639.639 0 0 0-.02-.034.415.415 0 0 1-.028-.051 4.468 4.468 0 0 1-.237-1.015Zm3.05 17.53a5.395 5.395 0 0 1-1.268-.15 2.499 2.499 0 0 0 4.983-.09 5.389 5.389 0 0 1-1.595.24H15.4Z" fill="#212121"/></svg>