<svg width="32" height="32" fill="none" xmlns="http://www.w3.org/2000/svg"><path d="M18.387 4.3a.912.912 0 0 1 .575.218.108.108 0 0 0 .078.032.111.111 0 0 0 .08-.032.113.113 0 0 0 0-.158 1.116 1.116 0 0 0-.727-.282.11.11 0 0 0-.115.109.11.11 0 0 0 .031.08.11.11 0 0 0 .078.033ZM18.594 5.278a.827.827 0 0 0 .023-.089.343.343 0 0 0-.236-.408.254.254 0 0 0-.141.025.5.5 0 0 1 .54-.066.459.459 0 0 1 .244.46v.008a.12.12 0 0 1-.13.11l-.3-.04Z" fill="#212121"/><path d="M18.42 5.258a.31.31 0 0 0 .06-.13c.01-.12-.05-.23-.14-.24a.153.153 0 0 0-.074.01.074.074 0 0 1 .017.06.066.066 0 0 1-.069.061.06.06 0 0 1-.043-.033.286.286 0 0 0-.031.092.22.22 0 0 0 .02.14l.26.04ZM18.658 6.263a.104.104 0 0 1-.004.08.568.568 0 0 1-.76.259.104.104 0 0 1 .09-.188.359.359 0 0 0 .482-.161.104.104 0 0 1 .192.01ZM12.73 28.058a.48.48 0 1 0 0 .96.48.48 0 0 0 0-.96ZM18.197 26.98a.6.6 0 1 1 .666.996.6.6 0 0 1-.666-.997ZM24.49 29.018a.48.48 0 1 0 0-.96.48.48 0 0 0 0 .96Z" fill="#212121"/><path d="M27.19 24.998c.155.268.238.57.24.88a1.77 1.77 0 0 1-.751 1.447 2.49 2.49 0 1 1-4.669 1.206v-.034a2.67 2.67 0 0 0-.012.002c-.018.004-.035.007-.053.007a3.557 3.557 0 0 1-6.725.245 2.49 2.49 0 1 1-4.659-1.426 1.773 1.773 0 0 1-.685-.942 1.194 1.194 0 0 1-.778-.105l-3.183-1.566a1.329 1.329 0 0 1 .381-2.51l.037-.005h.037l2.1-.17 1-5.14a2.559 2.559 0 0 1 2.393-2.288l.731-.072a1.337 1.337 0 0 1 .306-1.087 1.243 1.243 0 0 1 .735-.794l.857-.37a6.012 6.012 0 0 1 1.662-.3h.092l.435-1.792a3.3 3.3 0 0 1 .836-1.663 2.19 2.19 0 0 1-.909-1.932 1.424 1.424 0 0 1-.407-1.15c.057-.335.238-.637.508-.844.048-.04.093-.083.136-.128l.045-.329a2.55 2.55 0 0 1 .237-.773 2.212 2.212 0 0 1-.018-.782A1.765 1.765 0 0 1 18.909 1c.085 0 .17.006.254.017.338.043.669.133.982.268a.487.487 0 0 0 .142.044c.05 0 .1-.004.15-.011.187-.026.375-.04.563-.04.77-.026 1.524.23 2.117.722a2.473 2.473 0 0 1 1.243-.332 2.454 2.454 0 0 1 2.436 2.837l-.241 1.5a2.485 2.485 0 0 1-1.308 1.792 2.455 2.455 0 0 1 .639 2.08l-1.2 7.419a1.522 1.522 0 0 1 .888 1.382v1.73a1.522 1.522 0 0 1-1.52 1.52h-.258c.21.323.33.697.348 1.083l2.4 1.343c.267.155.49.377.645.644Zm-2.96 2.07c.172-.034.35-.034.522 0v-.42h-.522v.42ZM22.779 15.28a.43.43 0 1 0-.478.716.43.43 0 0 0 .478-.716Zm-5.422-9.923c-.095.083-.152.134-.167.23a.428.428 0 0 0 .373.427.33.33 0 0 0 .089-.007c-.118 1-.063 1.744 1.111 1.9.108.015.217.023.326.024l.01.692a.118.118 0 0 0-.023.012l-.016.01a2.256 2.256 0 0 1 2.066.158.042.042 0 0 1-.01-.01c-.005-.004-.009-.009-.014-.009l-.044-1.74c.004.008.011.008.016.008a.627.627 0 0 1-.161-.615c.026-.194.041-.363.048-.512a.628.628 0 0 0-.291-1.016.205.205 0 0 0-.1-.022s.11-.79-1.2-.97a1.621 1.621 0 0 1-1.123-.477.022.022 0 0 1 .003.011c0 .004 0 .007.003.01-.201.23-.33.513-.373.816l-.081.6a2.53 2.53 0 0 1-.433.472l-.009.008ZM9.83 25.287l.54-1.1 2.38-5.68a.503.503 0 0 1 .073-.13c-.002.004-.002.009-.003.013 0 .005 0 .01-.003.014a.511.511 0 0 1 .433-.247h.727v-1.058a.352.352 0 0 1 .333-.346v-.014a.828.828 0 0 1 .58-.787v-.643l-2.93.29c-.74.05-1.3.44-1.51 1.49l-1.15 5.88-2.86.229a.329.329 0 0 0-.1.62l3.19 1.57a.2.2 0 0 0 .1.026.233.233 0 0 0 .2-.126Zm6.487-7.13h4.245l-2.216-1.63h-.5a.87.87 0 0 1-.87-.87.791.791 0 0 1 .024-.12l-.311-.363-.004-.015h-.281l-1 .1v.694a.83.83 0 0 1 .58.787v.013a.347.347 0 0 1 .333.347v1.057Zm.276-3.339-.004-.016 1.246-.012h.33l2.111-.02a.96.96 0 0 0 .91-.9l.073-1.284-.42-.027-.4-.024-.374-.023-.22-.014-.266-.018-.2-.013-.019.333a.108.108 0 0 1-.1.1l-2.229.052-.857.022c-.43.02-.856.09-1.27.21l-.88.38a.32.32 0 0 0-.18.4l-.07.04a.328.328 0 0 0-.057.579.335.335 0 0 0 .185.056.303.303 0 0 0 .122-.025.3.3 0 0 0 .05.15.327.327 0 0 0 .28.147c.048 0 .096-.01.14-.027l.071-.031.509-.22.13.04c.173.058.352.097.533.115.102.01.204.016.307.016h.539l.01.014Zm-3.606 12.255v-.42h-.522v.42c.172-.034.35-.034.522 0Zm-1.39-3.232 1.37-.765.004-.004c.006-.405.126-.8.344-1.14h-.069c-.268 0-.531-.07-.763-.205l-.886 2.114Zm.646 5.424a.87.87 0 0 0 .483.147l.004-.004a.87.87 0 0 0 .866-.866.87.87 0 1 0-1.353.723Zm5.45-.546a1.5 1.5 0 0 0 .833.253l.004-.004a1.5 1.5 0 0 0 1.243-2.33 1.5 1.5 0 1 0-2.08 2.081Zm5.39-5.147.043-.3.004-.004a1.17 1.17 0 0 0-1.16-1.326h-.93v-1.01h-5.01v1.01h-.89a1.17 1.17 0 0 0-1.15 1.38l.053.3.539 3.03.018.1a.955.955 0 0 0 .94.78h.425v-.05a2.56 2.56 0 1 1 5.12 0v.05h.611a.956.956 0 0 0 .94-.82l.009-.06.438-3.08Zm.265-15.54-.001.003.004-.004h-.003Zm0 0a1.436 1.436 0 0 1 .667.117l-.012-.01c-.005-.005-.01-.01-.017-.01l.164-1.057h-.038c-.207 0-.412-.046-.6-.132l.011.008-.175 1.083Zm.659 21.23a.87.87 0 1 0 .966-1.447.87.87 0 0 0-.966 1.446Z" fill="#212121"/></svg>