<svg width="32" height="32" fill="none" xmlns="http://www.w3.org/2000/svg"><path d="M9.389 9.7c-.781.521-1.7.8-2.639.8A4.756 4.756 0 0 1 2 5.75 4.75 4.75 0 1 1 9.389 9.7ZM6.19 8.618a5.707 5.707 0 0 1-2.672-1 3.751 3.751 0 0 0 1.884 1.619c.301-.152.57-.362.788-.619Zm-.218.79c.255.058.516.088.778.091.123-.006.245-.019.367-.037A3.209 3.209 0 0 0 8.19 7.22a3.858 3.858 0 0 0-.51-2.16c-.258.21-.48.46-.66.74a4 4 0 0 1 .16 1.48 3.018 3.018 0 0 1-.4 1.26.076.076 0 0 1-.02.04 2.8 2.8 0 0 1-.788.829ZM8.61 4.57a2.13 2.13 0 0 0-.56.23c.438.739.643 1.593.59 2.45a3.821 3.821 0 0 1-.76 2.059c.52-.164.998-.44 1.4-.809a5.047 5.047 0 0 0-.33-3.99 2.214 2.214 0 0 0-.34.06Zm-.897 4.789Zm2.248-1.702c.35-.575.535-1.234.539-1.907a3.715 3.715 0 0 0-.154-1.006A2.321 2.321 0 0 0 9.44 4.5c.463.984.644 2.077.521 3.157Zm.29-3.204.028.079-.023-.068a2.399 2.399 0 0 0-.094-.249c.033.076.061.157.09.238ZM8.5 4.14a3.063 3.063 0 0 1 1.643.039A3.749 3.749 0 0 0 9.45 3.16c-.63-.024-1.256.1-1.83.36-.814.37-1.494.98-1.95 1.75.309.156.645.247.99.27a3.263 3.263 0 0 1 1.84-1.4Zm-.777-1.996c-.376.071-.74.195-1.083.366a5.266 5.266 0 0 0-1.98 1.85c.168.26.381.487.63.67a4.7 4.7 0 0 1 2.153-1.908 4.9 4.9 0 0 1 1.5-.4 3.727 3.727 0 0 0-1.22-.578Zm-3.561.904c.051.3.138.593.258.872a5.757 5.757 0 0 1 2.242-1.911 3.731 3.731 0 0 0-2.5 1.039Zm.043 1.392a4.006 4.006 0 0 1-.4-.984 3.72 3.72 0 0 0-.549.962A3.055 3.055 0 0 0 4.4 6.09c.686.496 1.513.76 2.36.75a4 4 0 0 0-.14-.86 2.9 2.9 0 0 1-1.19-.34 3.082 3.082 0 0 1-1.185-1.12.2.2 0 0 1-.04-.08Zm-1.058.33a4.8 4.8 0 0 1-.023.075c-.02.065-.04.13-.053.197.015-.067.035-.133.055-.2l.021-.072Zm.993 1.66a3.612 3.612 0 0 1-1.078-1.288v-.001A3.7 3.7 0 0 0 3 5.75c.004.302.044.602.12.894.05.013.092.044.12.086.01.02.77 1.2 3.23 1.48.148-.29.24-.606.27-.93a4.439 4.439 0 0 1-2.6-.85Zm-.817.826.025.05v-.001a.881.881 0 0 0-.027-.053m.002.004-.002-.004ZM15.781 10.313a.176.176 0 0 1-.081.019h-.004a.182.182 0 0 1-.084-.345c.378-.17.805-.195 1.2-.071a.183.183 0 0 1 .036.338.184.184 0 0 1-.142.01 1.352 1.352 0 0 0-.925.049ZM18.91 10.652c.32.015.623.144.856.363a.185.185 0 0 0 .133.058.183.183 0 0 0 .134-.306 1.686 1.686 0 0 0-1.1-.479.186.186 0 0 0-.192.173.183.183 0 0 0 .17.191ZM16.538 11.463a.32.32 0 0 1 .012.157.372.372 0 0 1-.07.14l-.55-.1a.317.317 0 0 1 .058-.3.1.1 0 0 0 .092.06.1.1 0 0 0 .076-.165.319.319 0 0 1 .382.208Z" fill="#212121"/><path d="m15.41 11.57.27.047a.724.724 0 0 1 .01-.147.555.555 0 0 1 .64-.45.574.574 0 0 1 .46.65.559.559 0 0 1-.047.134l.037.006a.139.139 0 0 0 .157-.079.139.139 0 0 0 .013-.061.874.874 0 0 0-1.67-.34.172.172 0 0 0 .13.24ZM18.853 11.72a.307.307 0 0 1 .117 0 .325.325 0 0 1 .256.368.35.35 0 0 1-.06.14l-.55-.1a.241.241 0 0 1-.02-.15.31.31 0 0 1 .084-.163.1.1 0 0 0 .1.073.1.1 0 0 0 .073-.168Z" fill="#212121"/><path d="m18.32 12.08.04.007a.644.644 0 0 1 .01-.13.572.572 0 0 1 .65-.44.555.555 0 0 1 .415.758l.255.045a.17.17 0 0 0 .188-.104.169.169 0 0 0 .012-.076.88.88 0 0 0-.72-.79.862.862 0 0 0-.96.54.145.145 0 0 0 .11.19ZM17.6 13.25l-.47-.08a.335.335 0 0 1-.24-.48l.5-.97a.246.246 0 0 1 .46.08l.14 1.08a.334.334 0 0 1-.39.37ZM17.22 13.79c-.309-.053-.6-.18-.85-.37a.1.1 0 0 0-.15.11 1.23 1.23 0 0 0 2.03.36.1.1 0 0 0-.04-.155.1.1 0 0 0-.06-.005 2.05 2.05 0 0 1-.93.06Z" fill="#212121"/><path d="m12.983 13.125.006-.055.053-.545a2.245 2.245 0 0 1-.25-1.314l.186-1.66a4.326 4.326 0 0 1 1.64-3.146 4.2 4.2 0 0 1 2.614-.908c.261 0 .521.024.778.07l1.355.241a4.311 4.311 0 0 1 3.504 3.683 4.26 4.26 0 0 1-.15 1.777l-.4 1.615a2.247 2.247 0 0 1-.61 1.086l-.122.5v.045l-.047.147a3.655 3.655 0 0 1-.124.336c.106.015.211.034.316.06l.685.161a1.58 1.58 0 0 1 .806-1.239 1.477 1.477 0 0 1 .237-1.619c.181-.204.414-.355.674-.437.045-.057.093-.112.144-.164a1.506 1.506 0 0 1 1.411-.37 1.5 1.5 0 0 1 1.452.415c.122.126.235.26.34.4.355.101.661.328.86.64.384.606.588 1.31.586 2.027l-.009 7.46c-.34.02-.675.08-1 .178l.01-7.637a2.756 2.756 0 0 0-.43-1.49.493.493 0 0 0-.59-.2 2.702 2.702 0 0 0-.49-.69.49.49 0 0 0-.357-.15.515.515 0 0 0-.354.14l-.02.02-.01-.01a.49.49 0 0 0-.356-.15.515.515 0 0 0-.354.14.471.471 0 0 0-.14.433.5.5 0 0 0-.59.8 1.7 1.7 0 0 1 .47 1.18v.13a.1.1 0 0 1-.1.1.117.117 0 0 1-.067-.022l-.19-.17a.558.558 0 1 0-.75.827l.85.77a.7.7 0 0 1 .23.53v1.79l-.75-1.05a3.727 3.727 0 0 0-2.419-1.764l-.847 3.253.627.155v.008a.56.56 0 0 1 .289.248L25 24.21a.23.23 0 0 1 .04.05v.01l.01.014.01.01.06.071a1.322 1.322 0 0 1-1.279-.026l-2.56-3.385-.4 1.5a4.276 4.276 0 0 0-3.42.58l-1.18.8a1.358 1.358 0 0 1-1.5 0l-1.174-.8a4.253 4.253 0 0 0-3.8-.478l.845-3.19.107-.39L7 18.526l-.06-.007h-.008l-.076-.012a3.4 3.4 0 0 1-2.826-3.82l.36-2.377-.57-.4a2.984 2.984 0 0 1-1.385-2.358c.456.518 1.001.95 1.61 1.276.092.088.193.168.3.237l.67.47a.812.812 0 0 1 .37.81l-.368 2.492a2.391 2.391 0 0 0 1.99 2.69.134.134 0 0 1 .04 0 .191.191 0 0 0 .04 0l4.44.53a.259.259 0 0 1 .04.006l.5.045.74-3.006-4.52-.473a.2.2 0 0 1-.177-.149.2.2 0 0 1 0-.08l.465-3.197c.377-.126.74-.291 1.083-.492l-.438 3.012 3.847.4a3.648 3.648 0 0 1-.084-.944v-.055Zm1.798-3.189-.314 2.216-.12 1.053a2.414 2.414 0 0 0 1.99 2.48l1.14.2a2.406 2.406 0 0 0 2.72-1.65l.152-.631.59-2.79a1.322 1.322 0 0 0-.005-.474l-1.7-.3a1.8 1.8 0 0 1-1.12-.69l-.34-.459-1.41-.251a1.322 1.322 0 0 0-1.102.307c-.233.203-.389.479-.442.783l-.04.206Zm4.81 6.444.123-.551-.189-.02c.03-.021.058-.045.085-.068l.045-.04a2.757 2.757 0 0 1-2.205.562l-1.17-.21a2.768 2.768 0 0 1-1.445-.735l-.365-.038v.2a2.6 2.6 0 0 0 5.12.9Z" fill="#212121"/><path d="M29.918 23.412h.017l.035.008v6.55H2v-6.65c.173.006.346.025.516.058a.843.843 0 0 1 .095.025c.023.007.046.014.069.019.11.024.218.053.325.088h.008c.107.042.212.09.314.144l.065.029c.033.014.067.028.098.046a3 3 0 0 1 .435.3l1.17.96a2.32 2.32 0 0 0 2.94 0l.132-.108 1.038-.852a3.243 3.243 0 0 1 3.84-.17l1.18.8a2.357 2.357 0 0 0 2.62 0l1.18-.8a3.275 3.275 0 0 1 3.536-.037v-.01c.104.067.205.139.3.217l1.17.96a2.32 2.32 0 0 0 2.94 0l1.17-.96a3.272 3.272 0 0 1 2.777-.617Z" fill="#212121"/><path d="m4.557 23.259 1.166.957a1.32 1.32 0 0 0 1.671 0l1.168-.959.035-.029.9-3.395-1.416-.169-.054.045a2.32 2.32 0 0 1-2.94 0l-1.17-.96A3.154 3.154 0 0 0 2 18.04v4.28h.029a4.154 4.154 0 0 1 2.528.939Z" fill="#212121"/></svg>