<svg xmlns="http://www.w3.org/2000/svg" fill="none" viewBox="0 0 32 32"><path fill="#212121" d="M26 15.5a3.5 3.5 0 1 1-7 0 3.5 3.5 0 0 1 7 0M18 19.5a2.5 2.5 0 1 1-5 0 2.5 2.5 0 0 1 5 0M25 24a2 2 0 1 1-4 0 2 2 0 0 1 4 0"/><path fill="#212121" d="M27.796 1.768A3.53 3.53 0 0 0 24.773.87c-.53.09-1.116.203-1.745.342C17.985 2.328 9.96 5.204 3.87 12.612q-.5.606-.98 1.254c-.63.85-.827 1.86-.664 2.804a3.93 3.93 0 0 0 1.917 2.721L23 30.271C25.668 31.809 29 29.883 29 26.806V4.59a3.84 3.84 0 0 0-1.204-2.822M5.424 13.872C11.12 6.949 18.656 4.228 23.46 3.165a34 34 0 0 1 1.648-.323c.523-.089.985.073 1.326.39.338.315.566.795.566 1.358v2.43c-8.418.345-15.717 5.026-19.725 11.869l-2.132-1.23a1.93 1.93 0 0 1-.945-1.329c-.075-.433.013-.88.294-1.264zM27 9.022v17.784c0 1.54-1.666 2.501-3 1.732l-14.992-8.65C12.669 13.645 19.323 9.367 27 9.023"/></svg>