<svg width="32" height="32" fill="none" xmlns="http://www.w3.org/2000/svg"><path d="M18 5a1 1 0 1 0 0 2h1v1h-2a6.5 6.5 0 0 0-6 6.481.5.5 0 0 0 .5.5h3a.5.5 0 0 0 .5-.5 2.5 2.5 0 0 1 2-2.45V12h8a1 1 0 0 0 1-1V9a1 1 0 0 0-1-1h-4V7h1a1 1 0 1 0 0-2h-4ZM7.316 17.1l2.458 8.19a1 1 0 0 0 .958.713h4.497a1 1 0 0 0 .958-.71l2.478-8.208a.845.845 0 0 0-1.615-.498l-.968 3.082a.5.5 0 0 1-.477.35h-5.246a.5.5 0 0 1-.479-.356l-.92-3.057a.858.858 0 0 0-1.644.494Z" fill="#212121"/><path d="M1 6a5 5 0 0 1 5-5h20a5 5 0 0 1 5 5v20a5 5 0 0 1-5 5H6a5 5 0 0 1-5-5V6Zm5-3a3 3 0 0 0-3 3v20a3 3 0 0 0 3 3h20a3 3 0 0 0 3-3V6a3 3 0 0 0-3-3H6Z" fill="#212121"/></svg>