<svg xmlns="http://www.w3.org/2000/svg" fill="none" viewBox="0 0 32 32"><path fill="#212121" d="m15.99 13.976-.55 1.77c-.11.36.16.73.54.73h.81c.38 0 .65-.37.54-.73l-.55-1.77c-.11-.39-.66-.39-.79 0M16.39 17.476c-.56 0-1.09-.14-1.54-.37-.15-.08-.31.09-.22.24a2.093 2.093 0 0 0 3.52 0c.09-.14-.07-.32-.22-.24-.45.24-.97.37-1.54.37M12.42 13.946c.16-.64.75-1.12 1.44-1.12.72 0 1.32.51 1.44 1.19.03.15-.09.29-.24.29h-.08c.02-.08.03-.16.03-.25a.93.93 0 0 0-.94-.95.95.95 0 0 0-.95.95c0 .09.01.17.03.25h-.45c-.18 0-.33-.18-.28-.36M20.37 13.946c-.16-.64-.75-1.12-1.44-1.12-.72 0-1.32.51-1.44 1.19-.03.15.09.29.24.29h.07a1 1 0 0 1-.03-.25c-.01-.53.42-.95.94-.95s.95.42.95.95c0 .09-.01.17-.03.25h.46c.18 0 .33-.18.28-.36"/><path fill="#212121" d="M13.75 13.846a.17.17 0 0 0 .121-.29.538.538 0 0 1 .689.749h-.96a.5.5 0 0 1-.06-.25.54.54 0 0 1 .075-.276.17.17 0 0 0 .135.067M18.42 13.846a.17.17 0 0 0 .11-.3.538.538 0 0 1 .72.51c0 .09-.02.18-.06.25h-.96a.54.54 0 0 1 .036-.559.17.17 0 0 0 .154.099M16.39 10.746a1.28 1.28 0 1 0 0-2.56 1.28 1.28 0 0 0 0 2.56M13.91 9.466a.83.83 0 1 1-1.66 0 .83.83 0 0 1 1.66 0M19.69 10.296a.83.83 0 1 0 0-1.66.83.83 0 0 0 0 1.66M18.544 26.046a.55.55 0 1 0 0-1.1.55.55 0 0 0 0 1.1M19.084 27.606a.55.55 0 1 1-1.1 0 .55.55 0 0 1 1.1 0"/><path fill="#212121" d="M5.001 31.005H27.76l-.003.007a1 1 0 0 0 .989-1.15 19 19 0 0 0-.654-2.858 12.1 12.1 0 0 0-1.894-3.7v-1.038a2.23 2.23 0 0 0-2.02-3.177h-1.521q.088-.237.154-.483a3.27 3.27 0 0 0 .655-1.875 2.73 2.73 0 0 0-.073-4.94l1.11-5.137a1.74 1.74 0 0 0 .844-1.344 1.68 1.68 0 0 0-.526-1.342 1.81 1.81 0 0 0-1.475-.482 1.75 1.75 0 0 0-1.549 1.484l-.11.065-.571-1.316a1.217 1.217 0 0 0-.88-2.063c-.676 0-1.22.544-1.22 1.22 0 .228.06.44.167.62l-.573.778-.443-.553c.157-.311.22-.662.18-1.009a1.955 1.955 0 0 0-1.757-1.7 2.05 2.05 0 0 0-1.572.507 1.846 1.846 0 0 0-.427 2.2l-.433.54-.568-.762a1.217 1.217 0 0 0-1.046-1.84 1.217 1.217 0 0 0-.88 2.06l-.576 1.323-.13-.077v-.005A1.744 1.744 0 0 0 9.409 3.48a1.83 1.83 0 0 0-1.478.482A1.7 1.7 0 0 0 7.41 5.32a1.72 1.72 0 0 0 .843 1.321l1.135 5.253a2.733 2.733 0 0 0-.086 4.7c.019.705.26 1.385.689 1.944q.07.28.169.548H8.581a2.233 2.233 0 0 0-2.02 3.177v1.057a12 12 0 0 0-1.851 3.61l-.033.1a19 19 0 0 0-.667 2.822 1 1 0 0 0 .991 1.154m10.899-2H6.21c.105-.463.229-.917.37-1.348l.003-.01.032-.096c.28-.897.685-1.75 1.2-2.532a1.102 1.102 0 0 0 1.314.22 1.1 1.1 0 0 0 1.028 0 1.09 1.09 0 0 0 1.024-.004 1.09 1.09 0 0 0 1.025.007c.145.08.312.124.489.124.56 0 1.024-.45 1.01-1.027v-.602a4.46 4.46 0 0 0 2.195.863zm-2.197-7.75a2.736 2.736 0 0 0 2.677 2.15 2.736 2.736 0 0 0 2.67-2.124 4.6 4.6 0 0 0 1.074-.585 1 1 0 0 0 .795.393h3.261a.23.23 0 0 1 .23.23.22.22 0 0 1-.037.123 1 1 0 0 0-.172.561v.036H19.5v.004a.5.5 0 0 0-.346.196 3.47 3.47 0 0 1-2.774 1.387 3.47 3.47 0 0 1-2.775-1.387.5.5 0 0 0-.433-.198v-.002H8.56v-.028a1 1 0 0 0-.172-.56.231.231 0 0 1 .192-.357h3.313a1 1 0 0 0 .8-.4q.467.342 1.01.56m1.18.3q.264.03.537.03h1.98q.24 0 .474-.024a1.74 1.74 0 0 1-1.494.845 1.74 1.74 0 0 1-1.498-.852m-.67-1.177a3.62 3.62 0 0 1-2.375-2.912l-.305-4.74h9.745l-.296 4.74a3.62 3.62 0 0 1-3.582 3.12h-1.98c-.422 0-.829-.073-1.208-.208m7.922-5.325.094-1.509.05.002a.73.73 0 0 1 .076 1.456q-.114.014-.22.051m-.779-3.327h-9.968l-1.034-4.784 1.576.924a1.69 1.69 0 0 0 2.2-.377l2.246-2.8 2.243 2.793a1.705 1.705 0 0 0 2.183.39l1.591-.934zM10.19 13.773a.73.73 0 0 1 .395-.216l.094 1.47a1 1 0 0 0-.139-.046.73.73 0 0 1-.35-1.208m14.011 9.87q0 .031.002.064v.637l-.001.002-.002.002c-.007.006-.025.018-.058.018a.1.1 0 0 1-.05-.012l-.002-.002-.003-.002a.5.5 0 0 0-.913-.006c-.002.003-.016.022-.059.022a.1.1 0 0 1-.046-.011c-.008-.005-.006-.007-.004 0a.5.5 0 0 0-.922-.01c-.002.003-.015.02-.055.02a.06.06 0 0 1-.034-.009l-.008-.007-.002-.002a.501.501 0 0 0-.931-.002c-.002.003-.015.02-.055.02a.1.1 0 0 1-.044-.01l-.004-.003a.5.5 0 0 0-.934.01l-.004.003h-.02v-1.326h4.149zm1.987 3.955q.213.669.372 1.407h-9.7V24.6a4.45 4.45 0 0 0 2.193-.863v.601a1 1 0 0 0 1.01 1.028c.177 0 .344-.045.49-.124a1.09 1.09 0 0 0 1.024-.007 1.089 1.089 0 0 0 1.024.003 1.1 1.1 0 0 0 1.027.001 1.1 1.1 0 0 0 1.328-.236c.53.801.946 1.675 1.232 2.595m-13.483-3.252v-1.307H8.56v.63a1 1 0 0 1-.006.112v.563l.003.004c.007.006.025.018.058.018a.1.1 0 0 0 .05-.012l.005-.004a.5.5 0 0 1 .913-.006c.002.003.016.022.059.022.024 0 .039-.007.046-.011l.002-.002.003-.002-.002.003.002-.003a.5.5 0 0 1 .92-.005c.002.002.015.02.056.02a.06.06 0 0 0 .034-.01l.008-.007.001-.002a.501.501 0 0 1 .932-.002s.011.02.055.02a.1.1 0 0 0 .044-.01l.004-.003a.5.5 0 0 1 .934.01l.004.003h.019v-.019"/></svg>