<svg xmlns="http://www.w3.org/2000/svg" fill="none" viewBox="0 0 32 32"><path fill="#212121" d="M31 28a3 3 0 0 1-3 3H4a3 3 0 0 1-3-3V4a3 3 0 0 1 3-3h24a3 3 0 0 1 3 3zm-3 1a1 1 0 0 0 1-1v-1.234L26.766 29zm-4.062 0L29 23.938v-2.172L21.766 29zm-5 0L29 18.938v-2.172L16.766 29zm-5 0L29 13.938v-2.172L11.766 29zm-5 0L29 8.938V6.766L6.766 29zm-4.999-.002L29 3.94A1 1 0 0 0 28 3h-.234L3 27.766V28a1 1 0 0 0 .94.998M3 24.938 24.938 3h-2.172L3 22.766zM19.938 3h-2.172L3 17.766v2.172zm-5 0h-2.172L3 12.766v2.172zm-5 0H7.766L3 7.766v2.172zm-5 0H4a1 1 0 0 0-1 1v.938z"/></svg>