<svg width="32" height="32" fill="none" xmlns="http://www.w3.org/2000/svg"><path d="M14.83 24.18a.68.68 0 0 0 0-1.36H5.18a.68.68 0 0 0 0 1.36h9.65ZM15.51 20.99c0 .38-.31.68-.68.68H5.18a.68.68 0 0 1 0-1.36h9.65c.38-.01.68.3.68.68ZM14.83 19.15a.68.68 0 0 0 0-1.36H5.18a.68.68 0 0 0 0 1.36h9.65ZM15.51 15.96c0 .38-.31.68-.68.68H5.18a.68.68 0 0 1 0-1.36h9.65c.38-.01.68.3.68.68ZM14.83 14.12a.68.68 0 0 0 0-1.36H5.18a.68.68 0 0 0 0 1.36h9.65ZM19.79 24.17a1.25 1.25 0 1 0 0-2.5 1.25 1.25 0 0 0 0 2.5ZM26.62 22.92a1.25 1.25 0 1 1-2.5 0 1.25 1.25 0 0 1 2.5 0ZM18.45 12.26c-.936 0-1.7.764-1.7 1.7v4.83c0 .936.764 1.7 1.7 1.7h7.87c.936 0 1.7-.764 1.7-1.7v-4.83c0-.936-.764-1.7-1.7-1.7h-7.87Zm.64 4.36c0-.43.35-.79.79-.79.44 0 .79.36.8.79v2.87h-1.59v-2.87Z" fill="#212121"/><path d="m7.958 8.103 16.664-3.28a1.13 1.13 0 0 1 1.238-.813 1 1 0 0 1 .787 1.754 1.129 1.129 0 0 1-1.842.042L9.545 8.81H27.38a3.631 3.631 0 0 1 3.63 3.613V24.69a3.633 3.633 0 0 1-3.63 3.63h-.49v.05c0 .76-.62 1.37-1.37 1.37-.76 0-1.37-.61-1.37-1.37v-.05H7.74v.05c0 .76-.61 1.37-1.37 1.37-.76 0-1.37-.61-1.37-1.37v-.05h-.37A3.633 3.633 0 0 1 1 24.69V12.44a3.633 3.633 0 0 1 3.63-3.63h.432a2.04 2.04 0 0 1 2.896-.707ZM5.062 10.81H4.63c-.898 0-1.63.732-1.63 1.63v12.25c0 .898.732 1.63 1.63 1.63h22.75c.898 0 1.63-.732 1.63-1.63V12.434a1.631 1.631 0 0 0-1.63-1.624H8.619a2.04 2.04 0 0 1-3.557 0Z" fill="#212121"/></svg>