<svg width="32" height="32" fill="none" xmlns="http://www.w3.org/2000/svg"><path d="M16.563.969c-1.272 0-2.262.523-2.876 1.41a3.66 3.66 0 0 0-.452.907 2.904 2.904 0 0 0-.295-.09c-.754-.187-1.514-.057-2.158.25-1.255.598-2.286 1.985-2.147 3.644l.23 4.828a5.358 5.358 0 0 0-.5-.326c-.543-.31-1.2-.545-1.916-.5-.744.046-1.43.386-2.01 1.008-1.105 1.188-1.397 3.126-.478 4.441.368.527.757 1.072 1.15 1.623.602.843 1.214 1.7 1.777 2.528.46.677.87 1.308 1.19 1.86.33.565.535.993.623 1.275 1.378 4.446 5.419 7.155 9.268 7.155 4.537 0 9.376-3.412 9.763-8.801l.711-12.131c.055-.775-.207-1.678-.713-2.395-.525-.743-1.394-1.39-2.574-1.39-.347 0-.662.047-.945.122v-.184c0-.843-.402-1.584-.94-2.097-.538-.513-1.286-.872-2.1-.872-.603 0-1.11.093-1.533.245a4.503 4.503 0 0 0-.312-.811 3.124 3.124 0 0 0-1.041-1.206c-.487-.325-1.067-.493-1.723-.493Zm9.884 8.957-.71 12.118c-.302 4.157-4.089 6.938-7.768 6.938-2.964 0-6.236-2.13-7.358-5.747-.157-.508-.457-1.095-.804-1.69a34.865 34.865 0 0 0-1.266-1.977c-.57-.838-1.212-1.74-1.828-2.603-.39-.547-.77-1.079-1.112-1.569-.289-.413-.275-1.312.303-1.934.273-.293.497-.364.67-.374.2-.013.465.05.797.24.303.173.604.419.883.696.529.914 1.102 1.948 1.417 2.52a1 1 0 0 0 1.87-.599l-.905-8.872-.004-.097-.003-.042c-.064-.708.385-1.383 1.014-1.683.3-.143.585-.17.817-.114.178.044.381.152.575.399l.294 7.286a1 1 0 1 0 1.998-.081l-.311-7.73c0-.11-.003-.228-.005-.345l-.003-.148c.04-.418.156-.759.324-1 .21-.303.559-.55 1.23-.55.301 0 .487.074.612.157.132.089.257.23.369.448.236.465.336 1.138.348 1.835a.78.78 0 0 0 0 .026c-.01.114-.015.227-.016.34l-.28 6.307a1 1 0 1 0 1.998.088l.282-6.35v-.022c0-.05.002-.1.006-.15a.653.653 0 0 1 .081-.086c.121-.107.446-.327 1.21-.327.225 0 .496.107.719.32.221.21.32.454.32.65v1.921c0 .053.004.106.012.157l-.222 5.679a1 1 0 1 0 1.998.078l.215-5.482a1.613 1.613 0 0 1 .942-.291c.375 0 .69.189.94.543.267.379.372.831.352 1.101l-.001.016Zm-.71 12.118v.007-.013.006Z" fill="#212121"/></svg>