<svg xmlns="http://www.w3.org/2000/svg" fill="none" viewBox="0 0 32 32"><path fill="#212121" d="M16 1c8.284 0 15 6.716 15 15s-6.716 15-15 15S1 24.284 1 16 7.716 1 16 1m-1.5 2.086L28.914 17.5a13 13 0 0 0 .072-2.1L16.6 3.015a13 13 0 0 0-2.1.072m-2.338.49q-.81.25-1.572.6L27.824 21.41q.35-.761.6-1.572zM26.81 23.224 8.776 5.19q-.646.433-1.234.938l18.33 18.33q.506-.588.938-1.234m-2.352 2.648L6.128 7.542q-.505.588-.938 1.234L23.224 26.81q.645-.432 1.234-.938m-3.048 1.952L4.176 10.59a13 13 0 0 0-.6 1.572l16.262 16.262q.81-.25 1.572-.6m-3.91 1.09L3.086 14.5a13 13 0 0 0-.072 2.1L15.4 28.985a13 13 0 0 0 2.1-.072m-5.561-.56L3.647 20.06a13.03 13.03 0 0 0 8.292 8.292m16.414-16.415a13.03 13.03 0 0 0-8.292-8.292z"/></svg>