<svg xmlns="http://www.w3.org/2000/svg" fill="none" viewBox="0 0 32 32"><path fill="#212121" d="m13.543 8.393 1.57-1.34c.34-.29.86-.25 1.16.1s.26.87-.09 1.16l-1.57 1.33c-.35.3-.87.26-1.16-.09-.3-.35-.26-.87.09-1.16M20.273 11.233v-2.06c0-.45.37-.82.82-.82s.82.37.82.82v2.06c0 .45-.37.82-.82.82s-.82-.37-.82-.82M11.873 13.763l.84 1.88c.19.42.67.6 1.09.42.42-.19.6-.67.42-1.09l-.84-1.88a.82.82 0 0 0-1.09-.41c-.42.18-.6.67-.42 1.08M7.583 14.503l-1.83.95c-.4.21-.56.71-.35 1.11s.71.56 1.11.35l1.83-.95c.4-.21.56-.71.35-1.11a.827.827 0 0 0-1.11-.35M8.513 9.663l-1.22 1.66c-.27.37-.2.88.17 1.15s.88.19 1.15-.17l1.22-1.66a.81.81 0 0 0-.17-1.15.827.827 0 0 0-1.15.17M24.513 15.333l1.33 1.57c.29.35.81.39 1.16.09.35-.29.39-.81.09-1.16l-1.33-1.57a.814.814 0 0 0-1.16-.09c-.34.3-.39.82-.09 1.16M26.823 21.203l-1.51 1.4a.82.82 0 1 1-1.12-1.2l1.51-1.4a.821.821 0 0 1 1.12 1.2M8.163 21.983l-1.03-1.78a.83.83 0 0 0-1.13-.3.83.83 0 0 0-.3 1.13l1.03 1.78c.23.39.73.53 1.13.3s.53-.73.3-1.13M18.713 13.913l1.89.81c.42.18.61.66.43 1.08s-.66.61-1.08.43l-1.89-.81a.82.82 0 0 1-.43-1.08c.18-.42.66-.61 1.08-.43"/><path fill="#212121" d="M18.708 31.025a9.5 9.5 0 0 1-1.479-.151 7.3 7.3 0 0 0-2.42 0 6 6 0 0 1-2.515.024 5.96 5.96 0 0 1-2.223-1.3 8 8 0 0 0-.931-.687 8 8 0 0 0-1.082-.476 6.1 6.1 0 0 1-2.212-1.255A6.1 6.1 0 0 1 4.6 24.968a8 8 0 0 0-.48-1.086 7.6 7.6 0 0 0-.692-.946 6.1 6.1 0 0 1-1.3-2.2 6 6 0 0 1 .025-2.5q.111-.604.131-1.216a8 8 0 0 0-.131-1.2 6 6 0 0 1-.025-2.515 6 6 0 0 1 1.305-2.221q.377-.44.687-.932.28-.53.48-1.094a6.1 6.1 0 0 1 1.25-2.212 6.1 6.1 0 0 1 2.217-1.253q.563-.201 1.091-.479.498-.31.944-.691a6.04 6.04 0 0 1 2.2-1.3 5.9 5.9 0 0 1 2.5.025 7.3 7.3 0 0 0 2.421 0 6.05 6.05 0 0 1 2.515-.025 6 6 0 0 1 2.22 1.3q.442.378.933.687.524.28 1.083.478c.817.256 1.57.682 2.211 1.25a6.1 6.1 0 0 1 1.251 2.213q.2.56.479 1.086.31.499.692.945a6.05 6.05 0 0 1 1.3 2.2c.169.826.16 1.678-.024 2.5q-.113.603-.132 1.216a8 8 0 0 0 .129 1.206c.188.83.192 1.691.014 2.524a6 6 0 0 1-1.3 2.212 8 8 0 0 0-.687.931q-.278.523-.476 1.082a6.1 6.1 0 0 1-1.251 2.213 6.1 6.1 0 0 1-2.212 1.25 8 8 0 0 0-1.086.478 7.6 7.6 0 0 0-.945.693 6.1 6.1 0 0 1-2.206 1.3 3.9 3.9 0 0 1-1.023.138M9 26.649V19a1 1 0 0 1 1-1h12a1 1 0 0 1 1 1v7.657q.123-.047.246-.092a4.5 4.5 0 0 0 1.519-.8c.362-.45.634-.967.8-1.52a9.6 9.6 0 0 1 .612-1.362q.385-.625.863-1.183c.403-.424.717-.925.924-1.472a4.3 4.3 0 0 0-.058-1.7 10 10 0 0 1-.153-1.512 10 10 0 0 1 .155-1.526c.13-.548.154-1.115.071-1.672a4.5 4.5 0 0 0-.922-1.467 9 9 0 0 1-.872-1.208 10 10 0 0 1-.609-1.36 4.5 4.5 0 0 0-.8-1.52 4.5 4.5 0 0 0-1.518-.8 10 10 0 0 1-1.358-.614 9.3 9.3 0 0 1-1.2-.865 4.4 4.4 0 0 0-1.471-.922 4.4 4.4 0 0 0-1.7.066 10.2 10.2 0 0 1-3.038 0 4.4 4.4 0 0 0-1.673-.069 4.4 4.4 0 0 0-1.466.92 9 9 0 0 1-1.21.872q-.658.355-1.362.608a4.5 4.5 0 0 0-1.526.8c-.362.45-.634.966-.8 1.519q-.253.706-.612 1.364a9.4 9.4 0 0 1-.864 1.19c-.4.423-.712.922-.916 1.468a4.4 4.4 0 0 0 .066 1.7q.138.751.155 1.514a10 10 0 0 1-.155 1.525 4.4 4.4 0 0 0-.069 1.673c.207.545.52 1.043.92 1.467q.486.57.872 1.209.357.656.61 1.359a4.5 4.5 0 0 0 .8 1.52c.45.362.966.633 1.519.8q.11.039.22.082"/></svg>