<svg width="32" height="32" fill="none" xmlns="http://www.w3.org/2000/svg"><path d="M15.502 1.017c-.62-.051-1.184.004-1.77.282a2.862 2.862 0 0 0-.744.464l-.291.22-.013.062-.978 1.033L6.03 8.991l-.002.002a2.52 2.52 0 0 0-.344.453l-.147.154-1.68 3.766-.243.545-1.64 3.033a1.17 1.17 0 0 0-.048.096c-.2.378-.328.774-.4 1.18l-.003.019-.544 3.96.522 1.568v.001a8.309 8.309 0 0 0 2.023 3.273l.93.93a8.22 8.22 0 0 0 2.174 1.569l1.362.676.003.002a8.323 8.323 0 0 0 3.758.886h.002L15 31.096v.008H23.726c.89-.015 1.918-.468 2.522-1.157a4.37 4.37 0 0 0 .577-.64l.077-.104 3.318-3.778a3.193 3.193 0 0 0 .744-2.69l-.117-.627a4.298 4.298 0 0 0-.077-.56v-.005l-.417-2.115.006-.008-.928-4.668v-.001a4.348 4.348 0 0 0-1.626-2.631l-3.63-3.227-2.31-4.273-.018-.028c-.421-.672-.8-1.224-1.314-1.655-.526-.442-1.125-.703-1.88-.95l-1.247-.44-.51-.179-.007-.002a5.646 5.646 0 0 0-.393-.14 5.07 5.07 0 0 0-.973-.207l-.01-.001-.011-.001ZM23.7 29.104H17v-3.177l9.195-1.451 2.7-1.929.101.546v.002c.066.366-.034.733-.276 1.007l-3.376 3.844-.128.173-.002.002c-.1.137-.215.261-.34.372l-.047.042-.078.089-.003.002c-.214.247-.698.47-1.046.478Zm-12.19-8.49 4.49 4.49-11-3 .79-3.13c.13-.56.48-1.03.97-1.33l4.24-2.54v4.28c0 .46.18.9.51 1.23Zm-.51-5.51-2.605-5.69 4.757-4.953.068-.072L11 15.104Zm7.18 5.44c-.66-.3-1-1.05-.79-1.75l2.17-7.228 7.812 3.216c.04.114.073.232.096.353v.002l.753 3.79-.004.006.495 2.515-2.907 2.076-.792.126-6.833-3.106Zm1.67-9.94.15-.5.692-3.448 1.892 3.498 3.3 2.934-6.034-2.485Zm-16.463 12.5h1.48L15 25.867v3.229l-3.25.008h-.002a6.324 6.324 0 0 1-2.857-.673l-1.376-.683-.003-.001a6.22 6.22 0 0 1-1.645-1.19l-.93-.93A6.341 6.341 0 0 1 3.4 23.14l-.013-.036ZM16.18 3.237l.565.198c.327.114.773.272 1.252.441l.012.004.012.004c.678.222.991.386 1.227.584.205.172.4.41.693.855L19.03 9.86l-2.597 8.645a2.463 2.463 0 0 0 1.334 2.948l4.23 1.922-5.633.677-4.146-4.146a.733.733 0 0 1-.217-.523v-4.178l2.497-12.052c.099-.055.18-.088.253-.11.13-.038.296-.057.577-.035.197.022.403.074.572.126a3.695 3.695 0 0 1 .243.086l.009.004.028.012ZM3.74 17.89l.017-.031v-.002l1.65-3.051 1.767-3.966a.725.725 0 0 1 .129-.206l.367-.401 2.048 4.473-3.472 2.08-.008.005a3.117 3.117 0 0 0-1.42 1.946l-.597 2.367H3.147l.35-2.554a1.97 1.97 0 0 1 .223-.623l.005-.009.015-.028Z" fill="#212121"/></svg>