<svg xmlns="http://www.w3.org/2000/svg" fill="none" viewBox="0 0 32 32"><path fill="#212121" d="M12.4 31H4.73a3.723 3.723 0 0 1-3.72-3.72V14.07c0-1.47.542-2.839 1.395-3.956l.002-.003A13.6 13.6 0 0 0 5.109 3.62c.19-1.453 1.385-2.61 2.921-2.61h14.344c.565 0 1.229 0 1.845.01 1.516.005 2.716 1.175 2.893 2.627a13.4 13.4 0 0 0 2.549 6.334l.003.004c.815 1.102 1.346 2.446 1.346 3.885v13.41A3.723 3.723 0 0 1 27.29 31h-7.65a4.64 4.64 0 0 1-3.628-1.744A4.6 4.6 0 0 1 12.4 31M10.01 3.01V22H15v-8.992L11.49 3.3a2 2 0 0 0-.13-.29zm10.651 0q-.076.138-.131.29l-3.514 9.708V22h4.994V3.01zm-12.651 0c-.456.01-.85.351-.918.87a15.6 15.6 0 0 1-3.098 7.448c-.627.822-.984 1.773-.984 2.742V22h5zM3.01 24v3.28c0 .948.772 1.72 1.72 1.72h7.67a2.6 2.6 0 0 0 2.6-2.408V24zm14.006 2.59A2.626 2.626 0 0 0 19.64 29h7.65c.948 0 1.72-.772 1.72-1.72V24H17.016zM29.01 22v-8.13c0-.94-.348-1.875-.953-2.694a15.4 15.4 0 0 1-2.93-7.28V3.89c-.063-.524-.478-.87-.917-.87h-.016l-.184-.003V22z"/></svg>