<svg xmlns="http://www.w3.org/2000/svg" fill="none" viewBox="0 0 32 32"><path fill="#212121" d="M26.912 16.391a4 4 0 0 0-.128-.411 4 4 0 0 0-.121-.387 4 4 0 0 0-.29-.533c-.037-.061-.063-.129-.1-.188-.071-.105-.16-.194-.24-.292V4.5a3.5 3.5 0 1 0-7 0v1.972q-.096-.044-.194-.081a3 3 0 0 0-.428-.119c-.066-.015-.13-.035-.2-.046a4 4 0 0 0-.636-.054c-.5-.003-.993.122-1.431.363l-.016.01a3 3 0 0 0-.541.387c-.047.041-.087.091-.132.135q-.17.165-.314.353c-.022.028-.05.05-.07.079-.052.071-.088.153-.134.228s-.1.164-.147.251c-.035.066-.074.129-.105.2a3.7 3.7 0 0 0-.951-.327l-.06-.012a3.7 3.7 0 0 0-1.454 0c-.081.016-.155.049-.234.07A3.495 3.495 0 0 0 5 8.03V20a11.24 11.24 0 0 0 2.794 7.749A10.8 10.8 0 0 0 16 31a9.5 9.5 0 0 0 4.415-1.002c1.7-.851 3.28-2.345 4.314-3.953A15.1 15.1 0 0 0 27 17.25q0-.434-.088-.859M22.531 3a1.5 1.5 0 0 1 1.5 1.5v8.719A4.2 4.2 0 0 0 22.75 13h-1.656v-2.6q.002-.48-.063-.958V4.5a1.5 1.5 0 0 1 1.5-1.5m-4.458 5.243q.034.01.067.019a1.1 1.1 0 0 1 .595.488c.02.032.041.06.06.1q.074.146.124.3c.007.022.016.037.023.06.11.39.16.795.152 1.2V13h-1.453q-.416 0-.823.087c-.116.024-.221.07-.333.1-.084.026-.169.048-.251.078V10.4a4 4 0 0 1 .058-.654q.024-.162.065-.32l.024-.086q.051-.175.125-.34l.016-.035q.064-.132.146-.253.027-.04.055-.078a2 2 0 0 1 .229-.235c.122-.095.263-.164.413-.2q.102-.022.207-.024.256-.003.501.068m-4.739 1.566a.95.95 0 0 1 .545.338c.26.389.385.852.355 1.319v2.615c.024.5-.107.994-.376 1.416a1.01 1.01 0 0 1-.881.425 1.773 1.773 0 0 1-1.7-1.841v-2.615a1.7 1.7 0 0 1 .47-1.2q.066-.062.138-.119c.047-.039.07-.061.109-.088q.088-.055.181-.1c.037-.018.072-.041.111-.057q.11-.042.224-.07c.035-.009.068-.023.1-.03a2 2 0 0 1 .359-.035q.185.003.365.042M16 29a8.82 8.82 0 0 1-6.739-2.609A9.25 9.25 0 0 1 7 20V8.03a1.5 1.5 0 1 1 3 0v1.226a3.7 3.7 0 0 0-.719 2.21v2.615a3.77 3.77 0 0 0 3.7 3.841q.383 0 .755-.086a4 4 0 0 0 1.652 2.464 10 10 0 0 0-3.612 2.542 1 1 0 1 0 1.479 1.345 8.35 8.35 0 0 1 5.942-2.7c1.139 2.949 2.51 3.693 3.6 3.693.037 0 .071-.007.107-.009-.819 1.206-2.077 2.386-3.362 3.032A7.5 7.5 0 0 1 16 29m6.869-5.829c-.351.053-1.252-.561-2.115-3.282l-.14-.279a1.49 1.49 0 0 0-1.262-.61h-1.711a2 2 0 0 1-1.429-3.395c.031-.032.067-.059.1-.089q.095-.089.2-.164c.036-.025.077-.043.115-.066q.11-.069.227-.123c.053-.023.11-.036.165-.054q.104-.039.213-.066.203-.042.41-.043h5.108a2.24 2.24 0 0 1 1.589.659q.016.019.031.038a2.2 2.2 0 0 1 .452.68v.009a2.3 2.3 0 0 1 .178.864c0 3.361-1.282 5.79-2.131 5.921"/></svg>