<svg xmlns="http://www.w3.org/2000/svg" fill="none" viewBox="0 0 32 32"><path fill="#212121" d="m24.701 5.048-.011.003a3.1 3.1 0 0 0-1.384.926C21.494 4.755 19.088 4 16 4c-3.086 0-5.49.754-7.302 1.974a3.1 3.1 0 0 0-1.38-.923l-.012-.003-.01-.003-.009-.003-.056-.02a5 5 0 0 1-.398-.16C9.094 3.065 12.15 2 16 2c3.851 0 6.908 1.067 9.17 2.864a6 6 0 0 1-.449.178l-.01.003zM27.456 11.91c.715-.136 1.37-.432 1.55-.91l.01-.02q.08-.15.153-.298c1.882-3.88-.02-7.455-.02-7.455s-.32-.51-.6 0C27.398 5.267 25.005 6 25.005 6c-1.08.36-1.618 1.467-1.608 2.687 0 1.78 1.318 3.313 3.108 3.313.304 0 .633-.03.95-.09"/><path fill="#212121" d="M27.998 15.999c0-1.092-.104-2.135-.305-3.116q.343-.068.667-.18c.366-.128.83-.346 1.182-.718a17.3 17.3 0 0 1 .456 4.014c0 7.731-4.665 13.999-14 13.999C6.665 29.998 2 23.73 2 15.998c0-1.397.152-2.747.457-4.02.353.376.821.596 1.19.725.211.074.433.133.658.178A15.5 15.5 0 0 0 4 16c0 3.475 1.046 6.454 2.97 8.544 1.9 2.063 4.835 3.455 9.029 3.455s7.129-1.393 9.029-3.455c1.924-2.09 2.97-5.07 2.97-8.544"/><path fill="#212121" d="M5.5 12c-.307 0-.638-.03-.958-.091C3.83 11.77 3.179 11.476 3 11l-.011-.02a9 9 0 0 1-.156-.308c-1.875-3.876.025-7.445.025-7.445s.32-.51.6 0C4.608 5.267 7 6 7 6c1.08.36 1.618 1.467 1.608 2.687C8.608 10.467 7.29 12 5.5 12M11.8 22.4a1 1 0 0 0-1.6 1.2c.69.92 2.688 2.4 5.8 2.4s5.11-1.48 5.8-2.4a1 1 0 0 0-1.6-1.2c-.31.413-1.712 1.6-4.2 1.6s-3.89-1.187-4.2-1.6M14 18a2 2 0 1 1-4 0 2 2 0 0 1 4 0M20 20a2 2 0 1 0 0-4 2 2 0 0 0 0 4M10.977 11.065a.75.75 0 0 0-1.455.367v.002l.001.001.001.005.004.012a3 3 0 0 0 .048.16 5.367 5.367 0 0 0 .867 1.603c.708.895 1.91 1.785 3.807 1.785a.75.75 0 0 0 0-1.5c-1.354 0-2.151-.61-2.63-1.216A3.9 3.9 0 0 1 11 11.147l-.02-.069zM21.023 11.065l-.003.012-.021.069a3.87 3.87 0 0 1-.618 1.139c-.48.605-1.277 1.215-2.631 1.215a.75.75 0 0 0 0 1.5c1.896 0 3.099-.89 3.807-1.784a5.4 5.4 0 0 0 .867-1.604l.048-.16.004-.012v-.005l.001-.002c0-.002.045-.18 0-.001a.75.75 0 0 0-1.454-.367"/></svg>