<svg xmlns="http://www.w3.org/2000/svg" fill="none" viewBox="0 0 32 32"><path fill="#212121" d="M23.335 3.126a7 7 0 0 0-9.9 0l-7 7a3.503 3.503 0 0 0-4.188 4.669 7 7 0 0 0 1.288 8.13l5.657 5.657a7 7 0 0 0 9.9 0l.485-.485a2.5 2.5 0 0 0 4.412-1.357 4.5 4.5 0 0 0 4.526-7.58l.476-.477a7 7 0 0 0 0-9.9zM8.983 13.158a3.5 3.5 0 0 0-.822-1.93l6.687-6.688a5 5 0 0 1 7.071 0l5.657 5.657a5 5 0 0 1 0 7.071l-.89.89a4.5 4.5 0 0 0-3.241.337l3.181-3.181a2 2 0 0 0 0-2.829l-7.07-7.07a2 2 0 0 0-2.83 0zm-.237 1.651 8.688-8.688a1 1 0 0 1 1.414 0l7.071 7.071a1 1 0 0 1 0 1.415L14.606 25.92a1 1 0 0 1-1.414 0l-7.07-7.07a1 1 0 0 1 0-1.415l.687-.688a3.51 3.51 0 0 0 1.938-1.938m-5.042 1.696a3.5 3.5 0 0 0 1.49.482 2 2 0 0 0 .22 2.57l7.07 7.07a2 2 0 0 0 2.829 0l6.181-6.181a4.508 4.508 0 0 0-.337 3.241l-.436.436a2.5 2.5 0 0 0-1.599 1.599l-1.445 1.446a5 5 0 0 1-7.071 0L4.95 21.51a5 5 0 0 1-1.245-5.006M25.5 26a3.5 3.5 0 1 1 0-7 3.5 3.5 0 0 1 0 7m-4-1q.141 0 .275.025c.32.472.728.88 1.2 1.2q.024.134.025.275a1.5 1.5 0 1 1-1.5-1.5m-16-9a2.5 2.5 0 1 1 0-5 2.5 2.5 0 0 1 0 5M6 5.5a1.5 1.5 0 1 1-3 0 1.5 1.5 0 0 1 3 0m-1 0a.5.5 0 1 0-1 0 .5.5 0 0 0 1 0"/></svg>