<svg xmlns="http://www.w3.org/2000/svg" fill="none" viewBox="0 0 32 32"><path fill="#212121" d="m12.276 11.704-1.097 1.097 1.113 1.111 1.098-1.1zM14.098 13.52l-1.1 1.1 1.112 1.11 1.101-1.101zM15.934 17.555l-1.117-1.117 1.102-1.104 1.12 1.116zM15.92 13.922l-1.115-1.11 1.118-1.117 1.112 1.11zM17.04 9.164 15.93 8.05l-1.12 1.12 1.113 1.11zM18.859 10.982l-1.116 1.116-1.112-1.11 1.116-1.117zM18.45 12.805l1.119 1.115 1.114-1.114-1.117-1.117zM14.102 9.877l1.113 1.11-1.118 1.119-1.113-1.11zM16.627 14.627l1.119 1.116 1.116-1.116-1.119-1.115z"/><path fill="#212121" d="M9.595 13.04a6.37 6.37 0 0 1 6.36-6.362 6.367 6.367 0 0 1 6.36 6.361 6.367 6.367 0 0 1-6.36 6.36 6.367 6.367 0 0 1-6.36-6.36m11.721 0c0-.395-.05-.776-.13-1.146l-.912-.916.411-.41a5.3 5.3 0 0 0-.558-.857l-.561.562-1.112-1.112.536-.536a5.5 5.5 0 0 0-.91-.505l-.333.334-.648-.648c-.37-.08-.75-.129-1.143-.129-.422 0-.828.062-1.222.154l-.632.632-.317-.316q-.479.214-.903.512l.512.513-1.12 1.12-.53-.53q-.314.404-.549.864l.375.372-.82.82c-.093.393-.154.8-.154 1.221 0 .17.023.332.046.495q.011.08.021.161l.923.923-.545.546q.21.482.505.91l.747-.748 1.112 1.112-.773.773q.4.319.856.558l.624-.624 1.116 1.117-.059.059.064.009c.238.035.477.07.724.07.226 0 .443-.032.66-.063l.087-.012-.063-.063 1.106-1.106.638.634q.459-.234.862-.551l-.793-.79 1.115-1.115.772.772q.297-.427.51-.904l-.575-.575.979-.979q.01-.088.022-.176c.02-.142.04-.285.04-.433"/><path fill="#212121" d="M27.195 11.118c.844-1.282 1.034-2.641.457-3.82-.576-1.188-1.772-1.877-3.312-2.002.01-1.533-.57-2.774-1.69-3.445-1.026-.623-2.263-.624-3.511-.063C18.385.658 17.346.013 16.169 0L16.073 0c-1.258 0-2.371.72-3.165 1.962-1.354-.684-2.71-.726-3.805-.038-1.135.709-1.696 1.988-1.648 3.553-1.563.134-2.77.846-3.35 2.073-.552 1.196-.33 2.556.543 3.829-1.196.961-1.797 2.194-1.616 3.49.183 1.305 1.112 2.33 2.548 2.927-.482 1.458-.316 2.823.54 3.814.867 1 2.204 1.357 3.73 1.075.39 1.48 1.27 2.532 2.529 2.898q.449.128.9.128c.605 0 1.206-.188 1.782-.514v3.681c-.754-1.844-2.559-3.157-4.67-3.157H8.324c-.161 0-.28.13-.28.28v.42c0 2.4 1.95 4.35 4.26 4.37l2.879.009a.24.24 0 0 0 .097-.02h1.783v-.007a.3.3 0 0 0 .12.027h2.07c2.7 0 4.9-2.15 5.041-4.81a.253.253 0 0 0-.25-.27l-2.88.009c-1.92.016-3.59 1.364-4.1 3.196V25.15c.877.487 1.81.63 2.715.356 1.273-.382 2.146-1.46 2.509-2.97 1.504.244 2.824-.129 3.663-1.126.857-1.015.999-2.397.478-3.864 1.404-.622 2.303-1.658 2.46-2.955.158-1.303-.47-2.53-1.693-3.472M23.27 16.19c1.32 1.48 1.85 3.1 1.15 3.93-.69.82-2.359.58-4.04-.45.3 1.961-.15 3.61-1.18 3.92s-2.299-.8-3.149-2.58c-.82 1.81-2.08 2.95-3.12 2.65-1.03-.3-1.5-1.93-1.24-3.88-1.67 1.07-3.35 1.34-4.06.52s-.21-2.43 1.07-3.93c-1.99-.02-3.54-.71-3.69-1.78s1.15-2.15 3.04-2.71c-1.66-1.09-2.58-2.52-2.13-3.49.47-1 2.21-1.2 4.15-.58-.83-1.85-.84-3.61.09-4.19.89-.56 2.379.15 3.639 1.6.34-1.89 1.25-3.249 2.311-3.22.98.01 1.8 1.211 2.13 2.91 1.191-1.269 2.53-1.86 3.37-1.35.92.551.95 2.241.19 4.061 1.89-.6 3.58-.42 4.05.55.47.96-.42 2.4-2.05 3.51 1.91.53 3.23 1.6 3.1 2.67s-1.66 1.779-3.63 1.84"/></svg>