<svg xmlns="http://www.w3.org/2000/svg" fill="none" viewBox="0 0 32 32"><path fill="#212121" d="M16 13.68c-.54 0-1.05-.13-1.48-.36-.15-.08-.3.09-.21.23.36.55.98.92 1.69.92s1.33-.37 1.69-.92c.09-.14-.07-.3-.21-.23-.43.23-.93.36-1.48.36M12.18 10.28c.15-.62.71-1.08 1.38-1.08.69 0 1.27.49 1.4 1.15a.23.23 0 0 1-.23.28h-.08q.03-.12.03-.24c0-.5-.4-.91-.91-.91a.913.913 0 0 0-.88 1.15h-.44c-.18 0-.31-.17-.27-.35"/><path fill="#212121" d="M14.29 10.38c0-.29-.23-.52-.52-.52a.5.5 0 0 0-.204.04.16.16 0 0 1-.106.28.16.16 0 0 1-.134-.073.52.52 0 0 0-.016.513h.92q.06-.105.06-.24M19.83 10.28c-.15-.62-.71-1.08-1.38-1.08-.7 0-1.27.49-1.4 1.15-.03.15.08.28.23.28h.07a1 1 0 0 1-.02-.195.9.9 0 0 1 .91-.91.913.913 0 0 1 .89 1.105h.43c.18 0 .31-.17.27-.35"/><path fill="#212121" d="M18.05 9.895a.516.516 0 0 1 .65.725h-.92a.521.521 0 0 1 .026-.53.16.16 0 1 0 .244-.195"/><path fill="#212121" d="M11.595 2.576A3.36 3.36 0 0 1 14.45 1c.483 0 .923.1 1.322.266l.018.007a.52.52 0 0 0 .42 0l.006-.002c.401-.172.855-.271 1.324-.271 1.23 0 2.29.66 2.889 1.621l.006.01c.177.292.478.53.841.65l.011.004c.434.15.845.39 1.197.715h6.876c.35 0 .62.28.62.62v19.74a.61.61 0 0 1-.61.63h-1.474q.094.743.094 1.51V29c0 1.102-.898 2-2 2H5a1 1 0 0 1-1-1v-3.5q0-.768.094-1.51H2.62c-.34 0-.62-.28-.62-.62V4.62c0-.34.28-.62.62-.62h6.888c.348-.32.755-.563 1.196-.715.36-.125.68-.377.89-.709m6.012 13.91a3.52 3.52 0 0 0 2.833-2.97l.078-1.278a.5.5 0 0 1 .458-.467q.181-.015.348-.083a1 1 0 0 1 .162-.08 1.183 1.183 0 0 0 .032-2.01 1 1 0 0 1-.224-.112 1 1 0 0 0-.173-.05.5.5 0 0 1-.136-.049.2.2 0 0 0-.005.043v1.11c0 1.06-.86 1.91-1.91 1.91h-.71a1.9 1.9 0 0 1-1.455-.673l.075.243c.11.35-.15.71-.52.71h-.78c-.37 0-.63-.36-.52-.71l.064-.207c-.35.391-.86.637-1.424.637h-.71a1.91 1.91 0 0 1-1.91-1.91v-1.1a.17.17 0 0 0-.076-.134.5.5 0 0 1-.253.11 1 1 0 0 0-.165.034 1 1 0 0 1-.327.148 1.182 1.182 0 0 0 .046 2.009q.135.04.25.11.169.053.348.053a.5.5 0 0 1 .5.468l.086 1.309a3.51 3.51 0 0 0 2.824 2.94h.027v.004q.302.055.613.056h1.916q.3 0 .59-.052v-.009zm3.131-7.996.017-.427a.99.99 0 0 0-.947-1.02h-1.413a3 3 0 0 1-2.735-1.754.2.2 0 0 0-.18-.129h-1.31a2.943 2.943 0 0 0-2.94 2.916l.028.42a.4.4 0 0 1 .062-.006h1.044a.28.28 0 0 1-.119-.146.27.27 0 0 1 .09-.305 2.7 2.7 0 0 1 1.9-.467.274.274 0 0 1 .14.484.27.27 0 0 1-.2.056 2.2 2.2 0 0 0-1.533.378H14.8c.3 0 .58.14.77.37.12.15.3.24.51.24s.39-.09.51-.24c.19-.23.47-.37.77-.37h2.012l-.027-.019a2.24 2.24 0 0 0-1.5-.355.274.274 0 0 1-.063-.544 2.72 2.72 0 0 1 1.9.467.274.274 0 0 1-.03.451zm-4.288 1.82v-.37a.374.374 0 0 0-.37-.36c-.2 0-.36.15-.37.35v.328c.15-.327.635-.31.74.052m-1.93 7.202a1.557 1.557 0 0 0 2.955.004q-.25.03-.503.031h-1.916q-.27 0-.537-.035m5.362-.284.84 1.806c.09.173-.05.373-.262.373h-1.057c-.242 0-.353.265-.191.41l.205.183h1.423c.45 0 .81.36.81.81v.034h.006V22.6h.014c.826 0 1.5.674 1.5 1.5V29h2.82v-2.5c0-4.05-2.4-7.534-5.857-9.108a1 1 0 0 1-.251-.164m1.768 6.373v1.087a.5.5 0 0 1-.498.542H18.6a.5.5 0 0 1-.1.01c-.157 0-.267.122-.27.242v.006a.25.25 0 0 0 .117.216.5.5 0 0 1-.005.835.25.25 0 0 0-.112.201c0 .09.042.157.103.195a.5.5 0 0 1 .01.844.25.25 0 0 0-.113.201c0 .09.042.157.103.195a.5.5 0 0 1 .037.825h3.8v-4.9a.503.503 0 0 0-.52-.5m-.994-1.001v-1.74H12.1a.87.87 0 0 0 0 1.74zm-2.603-4.06a2.556 2.556 0 0 1-4.2-.124V20h4.2zm-5.358 1.278c.161-.146.05-.41-.191-.41h-1.058c-.211 0-.352-.201-.262-.374l.957-1.834a1 1 0 0 1-.286.197A10 10 0 0 0 6 26.5V29h2.82v-4.9c0-.44.214-.817.483-1.073.26-.246.623-.428 1.007-.427v-.72c0-1.04.84-1.89 1.89-1.88h.29zM10.31 23.6a.5.5 0 0 0-.319.153.5.5 0 0 0-.171.347V29h3.8a.5.5 0 0 1 .037-.825.22.22 0 0 0 .103-.195.25.25 0 0 0-.112-.2.5.5 0 0 1 .009-.845.22.22 0 0 0 .103-.195.25.25 0 0 0-.112-.2.5.5 0 0 1-.005-.836.25.25 0 0 0 .117-.216v-.006c-.003-.12-.113-.242-.27-.242a.5.5 0 0 1-.1-.01h-2.564a.5.5 0 0 1-.5-.48h-.006V23.6zM8.456 6H4v16.99h.521a12.03 12.03 0 0 1 5.5-6.896 5.9 5.9 0 0 1-.543-1.77 3.2 3.2 0 0 1-.318-1.008c-1.016-.477-1.694-1.535-1.694-2.719 0-1.048.531-1.998 1.358-2.533A3.4 3.4 0 0 1 8.456 6M27.47 22.99h.52V6h-4.458a3.4 3.4 0 0 1-.417 2.153 3.02 3.02 0 0 1 1.229 2.444 3 3 0 0 1-1.511 2.625 3.2 3.2 0 0 1-.333 1.12 6 6 0 0 1-.535 1.745 12.02 12.02 0 0 1 5.505 6.903m-13.75-10.9c.91 0 1.65-.74 1.65-1.65h-.01v-.72c0-.49-.39-.88-.88-.88H12.4c-.49 0-.88.39-.88.88v.72c0 .91.74 1.65 1.65 1.65zm5.28 0c.91 0 1.65-.74 1.65-1.65v-.72c0-.49-.39-.88-.88-.88h-2.09c-.49 0-.88.39-.88.88v.72c0 .91.74 1.65 1.65 1.65z"/></svg>