<svg xmlns="http://www.w3.org/2000/svg" fill="none" viewBox="0 0 32 32"><path fill="#212121" d="M8 5V3.304C8 2.582 8.558 2 9.25 2s1.25.582 1.25 1.304V5zM20.5 19.2a.7.7 0 0 1 .7-.7h2.6a.7.7 0 0 1 .7.7v2.6a.7.7 0 0 1-.7.7h-2.6a.7.7 0 0 1-.7-.7zM7.5 14.2a.7.7 0 0 1 .7-.7h2.6a.7.7 0 0 1 .7.7v2.6a.7.7 0 0 1-.7.7H8.2a.7.7 0 0 1-.7-.7zm1 .3v2h2v-2zM14 14.2a.7.7 0 0 1 .7-.7h2.6a.7.7 0 0 1 .7.7v2.6a.7.7 0 0 1-.7.7h-2.6a.7.7 0 0 1-.7-.7zm1 .3v2h2v-2zM20.5 14.2a.7.7 0 0 1 .7-.7h2.6a.7.7 0 0 1 .7.7v2.6a.7.7 0 0 1-.7.7h-2.6a.7.7 0 0 1-.7-.7zm1 .3v2h2v-2zM7.5 19.2a.7.7 0 0 1 .7-.7h2.6a.7.7 0 0 1 .7.7v2.6a.7.7 0 0 1-.7.7H8.2a.7.7 0 0 1-.7-.7zm1 .3v2h2v-2zM14 19.2a.7.7 0 0 1 .7-.7h2.6a.7.7 0 0 1 .7.7v2.6a.7.7 0 0 1-.7.7h-2.6a.7.7 0 0 1-.7-.7zm1 .3v2h2v-2zM7.5 24.2a.7.7 0 0 1 .7-.7h2.6a.7.7 0 0 1 .7.7v2.6a.7.7 0 0 1-.7.7H8.2a.7.7 0 0 1-.7-.7zm1 .3v2h2v-2zM14 24.2a.7.7 0 0 1 .7-.7h2.6a.7.7 0 0 1 .7.7v2.6a.7.7 0 0 1-.7.7h-2.6a.7.7 0 0 1-.7-.7zm1 .3v2h2v-2z"/><path fill="#212121" d="M8 6.696C8 7.418 8.558 8 9.25 8s1.25-.582 1.25-1.304V5h11v1.696c0 .722.558 1.304 1.25 1.304S24 7.418 24 6.696V5h3.241C29.311 5 31 6.691 31 8.785V26.24c0 2.62-2.125 4.76-4.759 4.76H5.76A4.77 4.77 0 0 1 1 26.24V8.785C1 6.691 2.69 4.99 4.759 5H8zM3 11v15.24A2.77 2.77 0 0 0 5.759 29H22.51v-1.5H21.2a.7.7 0 0 1-.7-.7v-2.6a.7.7 0 0 1 .7-.7h2.6a.7.7 0 0 1 .2.029 4.24 4.24 0 0 1 2.77-1.029H29V11zm19.522 15.447a4.2 4.2 0 0 1 .64-1.947H21.5v2h1.018zm.988 2.346 5.293-5.293H26.77a3.27 3.27 0 0 0-3.26 3.26z"/><path fill="#212121" d="M21.5 3.304V5H24V3.304C24 2.582 23.442 2 22.75 2s-1.25.582-1.25 1.304"/></svg>