<svg xmlns="http://www.w3.org/2000/svg" fill="none" viewBox="0 0 32 32"><path fill="#212121" d="M15 6a2 2 0 0 0-1.01 3.727L10.467 15H10v-1.501c0-.28-.22-.499-.5-.499s-.5.22-.5.499V15H5c-1.076 0-2.068.528-2.772 1.237C1.523 16.947 1 17.945 1 19.03v5.974A3.003 3.003 0 0 0 3.998 28h.354a3.5 3.5 0 0 0 6.336 0h9.56A5.5 5.5 0 0 0 29 21.347v-2.911q.001-.226-.025-.436h.536a.5.5 0 1 0 0-1h-.814a3.5 3.5 0 0 0-.832-1.141 3.7 3.7 0 0 0-.864-.592V8a2 2 0 0 0-2-2zm12 12.436v1.174A5.5 5.5 0 0 0 19.204 26h-6.192v-.473l-.002-.002v-.015c0-2.486-2.014-4.5-4.5-4.5H6.02a.5.5 0 0 0 0 1h2.49a3.5 3.5 0 0 1 3.5 3.456l-.006.007V26h-1.02a3.5 3.5 0 0 0-6.927 0h-.059C3.451 26 3 25.55 3 25.004V24h.507c.276 0 .493-.23.493-.5 0-.28-.217-.5-.493-.5H3v-1h.507c.276 0 .493-.23.493-.5 0-.28-.217-.5-.493-.5H3v-1h.507c.276 0 .493-.22.493-.5s-.217-.5-.493-.5H3q.002-.07.01-.14c.05-.402.27-.844.637-1.214C4.068 17.222 4.576 17 5 17h18.99A6.99 6.99 0 0 0 17 24a.5.5 0 0 0 1 0c0-3.315 2.677-6 5.99-6h2.943q.066.207.067.436m-.003 5.93L27 24.5a2.5 2.5 0 1 1-.003-.133M8.915 26q.084.236.085.5a1.5 1.5 0 1 1-.085-.5m3.288-10 4.68-7H17v7zM18 16V9h6v7z"/></svg>