<svg width="32" height="32" fill="none" xmlns="http://www.w3.org/2000/svg"><path d="M18.5 15.578c0-1.045-1.242-1.59-2.012-.884l-2.998 2.754a1.5 1.5 0 0 0 .016 2.223l2.994 2.675c.774.691 2 .142 2-.894v-5.874Zm-1.335-.147a.2.2 0 0 1 .335.147v5.874a.2.2 0 0 1-.333.149l-2.995-2.676a.5.5 0 0 1-.005-.741l2.998-2.754ZM8.112 16.986a1.095 1.095 0 1 1-2.19 0 1.095 1.095 0 0 1 2.19 0Z" fill="#212121"/><path d="M14.938 6.008V6H23a4 4 0 0 1 4 4v4.742a3.617 3.617 0 0 1 2.094-.648c.197 0 .47.018.75.131.307.125.561.338.745.63.314.5.38 1.177.38 1.895v5.358l-.004.045a2.13 2.13 0 0 1-.57 1.24c-.402.426-.99.7-1.739.7-.61 0-1.172-.236-1.656-.6V27a4 4 0 0 1-4 4h-8.063v-.008c-.145.005-.29.008-.437.008-6.054 0-11.102-4.303-12.253-10.017a1.055 1.055 0 0 1-.528-2.037 1.055 1.055 0 0 1 .384-2.054C2.892 10.748 8.14 6 14.5 6c.146 0 .292.003.438.008ZM14.5 8c-2.714 0-5.188 1.03-7.052 2.72a10.78 10.78 0 0 1 3.24 7.718 10.78 10.78 0 0 1-3.306 7.781A10.462 10.462 0 0 0 14.5 29c5.673 0 10.295-4.498 10.493-10.123a3.839 3.839 0 0 1 .007-.454C24.958 12.659 20.273 8 14.5 8Zm6.785 0A12.568 12.568 0 0 1 25 11.715V10a2 2 0 0 0-2-2h-1.715ZM25 25.285A12.568 12.568 0 0 1 21.285 29H23a2 2 0 0 0 2-2v-1.715Zm2-6.784v.441c0 1.006.302 1.843.693 2.406.419.605.818.746.963.746a.582.582 0 0 0 .225-.035.159.159 0 0 0 .057-.038.161.161 0 0 0 .03-.046V16.75c0-.296-.014-.504-.036-.65-.607.055-1.079.415-1.431.97A3.42 3.42 0 0 0 27 18.502Zm-23 0c0 2.692 1.014 5.148 2.68 7.006a9.782 9.782 0 0 0 3.008-7.07 9.78 9.78 0 0 0-2.948-7.01A10.457 10.457 0 0 0 4 18.5Z" fill="#212121"/></svg>