<svg width="32" height="32" fill="none" xmlns="http://www.w3.org/2000/svg"><path d="M6.974 11.658c.144-.43.502-1.107 1.095-1.67C8.654 9.433 9.452 9 10.5 9a.5.5 0 0 0 0-1c-1.351 0-2.386.567-3.118 1.262-.724.688-1.166 1.51-1.355 2.08a.5.5 0 1 0 .948.316ZM14.973 15a4.537 4.537 0 0 1 0 1 4.5 4.5 0 0 1-8.946-1h8.945Zm-4.844 1H7.035a3.5 3.5 0 0 0 6.627 1.003c-.386.311-.877.497-1.412.497a2.27 2.27 0 0 1-2.12-1.5ZM25.973 15a4.537 4.537 0 0 1 0 1 4.5 4.5 0 0 1-8.945-1h8.945Zm-4.844 1h-3.094a3.501 3.501 0 0 0 6.627 1.003c-.386.311-.877.497-1.412.497a2.27 2.27 0 0 1-2.12-1.5ZM25.026 11.658c-.144-.43-.502-1.107-1.095-1.67C23.346 9.433 22.548 9 21.5 9a.5.5 0 0 1 0-1c1.351 0 2.386.567 3.118 1.262.724.688 1.166 1.51 1.355 2.08a.5.5 0 0 1-.948.316ZM12.894 25.447C13.066 25.104 13.995 24 16 24s2.934 1.104 3.105 1.447a1 1 0 0 0 1.79-.894C20.398 23.563 18.794 22 16 22c-2.795 0-4.4 1.563-4.895 2.553a1 1 0 0 0 1.79.894Z" fill="#212121"/><path d="M15.999 1C11.095 1 7.313 2.654 4.763 5.423 2.226 8.178 1 11.938 1 15.999c0 4.061 1.226 7.82 3.763 10.576 2.55 2.769 6.332 4.423 11.236 4.423 4.904 0 8.686-1.654 11.235-4.423 2.537-2.755 3.764-6.515 3.764-10.576 0-4.061-1.227-7.821-3.764-10.576C24.684 2.654 20.903 1 16 1ZM3 15.999c0-3.67 1.106-6.91 3.235-9.221C8.35 4.48 11.568 3 15.999 3c4.43 0 7.648 1.48 9.764 3.778 2.129 2.311 3.235 5.55 3.235 9.22 0 3.671-1.106 6.91-3.235 9.222-2.116 2.298-5.333 3.778-9.764 3.778-4.43 0-7.648-1.48-9.764-3.778C4.105 22.91 3 19.67 3 16Z" fill="#212121"/></svg>