<svg xmlns="http://www.w3.org/2000/svg" fill="none" viewBox="0 0 32 32"><path fill="#212121" d="M11 19a1 1 0 0 1 1-1h6a1 1 0 0 1 1 1v2a1 1 0 0 1-1 1h-6a1 1 0 0 1-1-1z"/><path fill="#212121" d="M9 17.5a1.5 1.5 0 0 1 1.5-1.5h9a1.5 1.5 0 0 1 1.5 1.5v.5h1a1 1 0 0 1 1 1v2a1 1 0 0 1-1 1h-1v.5a1.5 1.5 0 0 1-1.5 1.5h-9A1.5 1.5 0 0 1 9 22.5zm11 0a.5.5 0 0 0-.5-.5h-9a.5.5 0 0 0-.5.5v5a.5.5 0 0 0 .5.5h9a.5.5 0 0 0 .5-.5z"/><path fill="#212121" d="M3 8a1 1 0 0 1 1 1h1.5A1.5 1.5 0 0 1 7 10.5V10h11a4 4 0 0 1 4 4h7a1 1 0 0 1 1 1v6a1 1 0 0 1-1 1h-3v6a2 2 0 0 1-2 2H9a2 2 0 0 1-2-2V13.5A1.5 1.5 0 0 1 5.5 15H4a1 1 0 1 1-2 0V9a1 1 0 0 1 1-1m25 13v-6h-2v6zm-3-6H8v10h17zM13 27.5a.5.5 0 0 0 .5.5h1a.5.5 0 0 0 0-1h-1a.5.5 0 0 0-.5.5m5.5.5a.5.5 0 1 0 0-1 .5.5 0 0 0 0 1m2.33-15A3 3 0 0 0 18 11H8v2z"/></svg>