<svg xmlns="http://www.w3.org/2000/svg" fill="none" viewBox="0 0 32 32"><path fill="#212121" d="m9.8 20.23 2 1.99c.27.27.28.73 0 1.01s-.73.28-1.01 0l-2-1.99a.71.71 0 0 1 0-1.01c.28-.28.73-.28 1.01 0M13.33 17.28l-.015-.04-.015-.04-.06-.1c-.38-.67-1.23-.91-1.91-.53l-1.3.73c-.21.12-.45.12-.65.04a.622.622 0 0 0-.76-.96c-.3.17-.4.54-.24.83 0 0 0 .01.01.01l.06.1c.38.67 1.23.91 1.91.53l1.3-.73a.73.73 0 0 1 .61-.05.622.622 0 0 0 .78.94c.26-.14.38-.46.28-.73M14.75 18.645l-.04-.015a.616.616 0 0 0-.73.29.623.623 0 0 0 .95.77c.07.19.07.41-.04.61l-.71 1.31c-.36.68-.11 1.53.57 1.9l.1.06c0 .01.01.01.01.01.3.16.67.05.83-.25a.623.623 0 0 0-.97-.75c-.09-.2-.08-.44.03-.65l.71-1.31c.36-.68.11-1.53-.57-1.9l-.1-.06z"/><path fill="#212121" d="M25.767 2.235a.64.64 0 1 1 .355-.349l.343.354a1.26 1.26 0 0 1 1.825-.05l1.4 1.39c.539.539.476 1.42-.117 1.887l.35.364a.64.64 0 0 1 .867.599.64.64 0 1 1-1.227-.255l-.405-.423-.81.55.335.35a.64.64 0 0 1 .867.598.64.64 0 1 1-1.227-.256l-.393-.409-.11.075a.59.59 0 0 1-.73-.07l-.034-.034-3.4 3.78.617.615a5.14 5.14 0 0 1 .562 6.54 8 8 0 0 1-.73.861q-.15.155-.28.326l-.088.122-.107.106-2.23 2.23a2.38 2.38 0 0 1-2.718.463l.088.089a2.715 2.715 0 0 1 0 3.838l-2.15 2.15-.16.156-.014.009-.976.975a9.2 9.2 0 0 1-1.375 1.127A6.43 6.43 0 0 1 10.554 31a6.53 6.53 0 0 1-4.625-1.911l-2.95-2.93a6.5 6.5 0 0 1-1.1-7.917 8.8 8.8 0 0 1 1.336-1.729l1.047-1.055 2.19-2.19a2.71 2.71 0 0 1 3.869.032l.135.14a2.38 2.38 0 0 1 .416-2.81l3.09-3.09.089-.085.073-.06.053-.047q.172-.155.359-.29a4.9 4.9 0 0 1 2.84-.9 5.02 5.02 0 0 1 3.55 1.464l.651.648 3.748-3.425-.035-.035a.59.59 0 0 1-.07-.73l.12-.18-.44-.452a.64.64 0 0 1-.87-.598.64.64 0 1 1 1.228.253l.365.375.551-.825zm-8.391 5.923a2.93 2.93 0 0 0-1.69.532c-.065.047-.126.101-.187.154l-.123.106-3.09 3.09a.38.38 0 0 0 0 .54 1.873 1.873 0 0 1 .08 2.56l-.06.06a.4.4 0 0 1-.07.06 2.02 2.02 0 0 1-1.375.535 2.1 2.1 0 0 1-1.485-.615l-.094-.092c-.101-.1-.246-.24-.406-.408a.71.71 0 0 0-1.01 0l-2.2 2.2-1.03 1.04c-.397.4-.742.846-1.03 1.33a4.525 4.525 0 0 0 .78 5.49l.558.555L7.18 22.36c.16-.2.45-.22.63-.04l1.91 1.89c.18.18.16.47-.03.63L6.78 27.117l.557.553A4.57 4.57 0 0 0 10.554 29c.868 0 1.717-.253 2.442-.73q.571-.385 1.06-.87l1.11-1.11q.008-.008.02-.015l.02-.015 2.15-2.148a.71.71 0 0 0 0-1.01l-.03-.03a4 4 0 0 1-.52-.47 2.06 2.06 0 0 1-.1-2.86q.015-.016.03-.035l.03-.035.03-.03a1.8 1.8 0 0 1 1.264-.5c.501-.002.984.191 1.346.538l.04.04a.38.38 0 0 0 .54 0l2.23-2.23q.21-.28.45-.53.305-.309.56-.66a3.16 3.16 0 0 0-.36-3.93l-.549-.545-3.027 3.365c-.26.28-.69.3-.96.03l-1.6-1.58a.66.66 0 0 1 .02-.96l3.35-3.06-.584-.58a3.04 3.04 0 0 0-2.14-.882m11.608-3.87L27.586 2.9l-.003-.003a.258.258 0 0 0-.397.042l-.005.007-.937 1.401 1.304 1.29 1.389-.943a.264.264 0 0 0 .047-.406"/></svg>