<svg xmlns="http://www.w3.org/2000/svg" fill="none" viewBox="0 0 32 32"><path fill="#212121" d="M16.75 5.75v.278a9.96 9.96 0 0 1 5.788 2.405l.202-.202a.75.75 0 0 1 1.06 1.06l-.204.205a9.96 9.96 0 0 1 2.379 5.785h.306a.75.75 0 1 1 0 1.5h-.311a9.96 9.96 0 0 1-2.403 5.757l.233.233a.75.75 0 0 1-1.06 1.06l-.236-.235a9.96 9.96 0 0 1-5.754 2.376v.34a.75.75 0 0 1-1.5 0v-.34a9.96 9.96 0 0 1-5.754-2.376l-.236.235a.75.75 0 1 1-1.06-1.06l.233-.233A9.96 9.96 0 0 1 6.03 16.78H5.72a.75.75 0 1 1 0-1.5h.306a9.96 9.96 0 0 1 2.379-5.785L8.2 9.292A.75.75 0 0 1 9.26 8.23l.202.202a9.96 9.96 0 0 1 5.788-2.405V5.75a.75.75 0 0 1 1.5 0m0 1.783v5.562q.426.11.794.332l3.93-3.93a8.46 8.46 0 0 0-4.724-1.964m5.782 3.027-3.936 3.936c.14.242.249.506.317.785h5.557a8.46 8.46 0 0 0-1.938-4.72m-3.635 6.221a3 3 0 0 1-.324.763l3.93 3.93a8.46 8.46 0 0 0 1.962-4.693zm2.543 5.75-3.936-3.935a3 3 0 0 1-.754.31v5.561a8.46 8.46 0 0 0 4.69-1.935m-6.19-3.625a3 3 0 0 1-.754-.31l-3.936 3.936a8.46 8.46 0 0 0 4.69 1.935zm-5.753 2.568 3.93-3.93a3 3 0 0 1-.324-.763H7.535c.163 1.78.873 3.4 1.962 4.693m3.59-6.193q.104-.42.317-.785L9.468 10.56a8.46 8.46 0 0 0-1.938 4.721zm-2.56-5.784 3.93 3.93q.367-.222.793-.332V7.533a8.46 8.46 0 0 0-4.724 1.964M16 17.5a1.5 1.5 0 1 0 0-3 1.5 1.5 0 0 0 0 3"/><path fill="#212121" d="M6 1a5 5 0 0 0-5 5v20a5 5 0 0 0 5 5h20a5 5 0 0 0 5-5V6a5 5 0 0 0-5-5zM3 6a3 3 0 0 1 3-3h20a3 3 0 0 1 3 3v20a3 3 0 0 1-3 3H6a3 3 0 0 1-3-3z"/></svg>