<svg xmlns="http://www.w3.org/2000/svg" fill="none" viewBox="0 0 32 32"><path fill="#212121" d="M18 25.51a.52.52 0 1 1-1.04 0 .52.52 0 0 1 1.04 0M17.48 28a.52.52 0 1 0 0-1.04.52.52 0 0 0 0 1.04M13.43 14.71a.534.534 0 0 1 .47.78h-.94a.54.54 0 0 1 .024-.535.16.16 0 1 0 .243-.204.5.5 0 0 1 .203-.041M18.07 14.71a.5.5 0 0 0-.21.044.16.16 0 1 1-.24.209.52.52 0 0 0-.08.277c0 .08.02.17.06.25h.94a.534.534 0 0 0-.47-.78M15.75 18.36c-.54 0-1.04-.13-1.47-.35-.15-.08-.3.09-.21.23a2.006 2.006 0 0 0 3.36 0c.09-.14-.07-.3-.21-.23-.43.22-.93.35-1.47.35M14.84 16.7l.53-1.7c.11-.37.64-.37.76 0l.53 1.7c.1.35-.16.7-.52.7h-.78c-.37 0-.63-.35-.52-.7"/><path fill="#212121" d="M22.985 31.019H5.891v-.01H3.84l.177-1.151q.212-1.353.61-2.664l.053-.149a11.7 11.7 0 0 1 2.614-4.408 1 1 0 0 1 0-.184 1.44 1.44 0 0 1 .474-1.011l.166-.142a4.28 4.28 0 0 1-.489-4.208 4.4 4.4 0 0 1-.34-1.693c0-.858.252-1.696.726-2.411q.039-.058.073-.117c.032-.253.11-.498.229-.723a1.9 1.9 0 0 1-.247-.959c0-.346.085-.687.248-.992a1.95 1.95 0 0 1-.248-.959c.002-.336.082-.667.235-.967a2.26 2.26 0 0 1-.235-.982c0-.367.097-.728.282-1.045a2.1 2.1 0 0 1-.023-1.6 2.07 2.07 0 0 1 1.03-1.108h.023l.009-.056a2.08 2.08 0 0 1 1.7-1.612q.2-.026.4-.024a2.25 2.25 0 0 1 2.461-.503 1.98 1.98 0 0 1 1.94-.163 2.53 2.53 0 0 1 1.965.076l.115.064c.252-.122.528-.184.808-.18a2.07 2.07 0 0 1 1.54.688q.213 0 .424.029a2.1 2.1 0 0 1 1.74 1.6l.014.064c.418.194.758.523.965.934a2.07 2.07 0 0 1 .07 1.762c.177.332.272.7.277 1.077 0 .343-.085.681-.245.985.163.295.247.627.245.964.001.364-.097.722-.283 1.035.187.268.282.59.272.916 0 .346-.086.686-.248.991.11.196.186.41.222.631q.045.084.1.164c.471.717.724 1.555.728 2.413a4.4 4.4 0 0 1-.342 1.7 4.28 4.28 0 0 1-.492 4.215q.056.045.113.1a1.45 1.45 0 0 1 .5 1.2 11.6 11.6 0 0 1 2.672 4.544c.277.886.486 1.793.625 2.711l.171 1.147zm-14.771-2 7.076-.005v-4.49a3.77 3.77 0 0 1-3.057-2.376A9.2 9.2 0 0 0 9.77 23.66c-.18.15-.44.13-.6-.03l-.022-.023-.09.085-.078.079a9.75 9.75 0 0 0-2.412 3.932l-.047.129q-.174.59-.307 1.177h2zm17.087-.011a17 17 0 0 0-.34-1.264 9.6 9.6 0 0 0-2.626-4.165l-.009-.008-.026.03c-.16.17-.42.18-.59.03a9.3 9.3 0 0 0-2.48-1.503 3.74 3.74 0 0 1-3.03 2.393v4.493zm-11.66-7.442a2.12 2.12 0 0 0 2.089 1.754 2.11 2.11 0 0 0 2.076-1.726 5.5 5.5 0 0 1-2.046.386 5.5 5.5 0 0 1-2.118-.414m-3.82-7.355q-.034.15-.034.316c0 .676.45 1.195.982 1.299a.5.5 0 0 1 .404.466c.14 2.847 2.163 4.688 4.587 4.688 2.417 0 4.45-1.846 4.588-4.698a.5.5 0 0 1 .388-.463c.517-.119.947-.631.947-1.293a1.5 1.5 0 0 0-.034-.312q-.059.006-.119.006h-1.998q.055.033.108.07c.22.16.24.49.04.67l-.04.036q.024.065.04.134c.04.18-.09.35-.28.35h-.438c.019-.077.028-.154.028-.24 0-.52-.42-.93-.93-.93s-.92.42-.91.93c0 .086.01.163.027.24h-.087c-.15 0-.27-.13-.24-.28.09-.421.358-.778.726-.98h-3.657c.367.202.638.559.721.98.03.15-.09.28-.24.28h-.088c.019-.077.028-.154.028-.24a.9.9 0 0 0-.91-.93c-.51 0-.93.41-.93.93 0 .086.01.163.027.24H12.1c-.19 0-.32-.17-.28-.35q.016-.069.04-.134l-.04-.036c-.2-.18-.18-.51.04-.67q.052-.037.108-.07H9.96q-.07 0-.139-.009"/></svg>