<svg xmlns="http://www.w3.org/2000/svg" fill="none" viewBox="0 0 32 32"><path fill="#212121" d="M16.6 7.13a.3.3 0 0 1-.039.15h-.56a.3.3 0 0 1-.042-.15.3.3 0 0 1 .041-.164.1.1 0 1 0 .15-.13.326.326 0 0 1 .45.295M16.7 8.746a.1.1 0 0 0-.13.139 1.19 1.19 0 0 0 1.01.55 1.21 1.21 0 0 0 1.01-.55.1.1 0 0 0-.069-.147.1.1 0 0 0-.06.008 1.95 1.95 0 0 1-.88.21c-.31 0-.613-.072-.889-.21zM15.518 6.088l.011-.007.048-.026q.093-.046.191-.078c.22-.07.454-.085.682-.045a.15.15 0 0 0 .051-.296 1.74 1.74 0 0 0-.824.055 1.5 1.5 0 0 0-.3.136l-.02.01h-.005a.15.15 0 0 0 .168.25zM17.331 8.45h.482a.326.326 0 0 0 .317-.42l-.317-1.02a.258.258 0 0 0-.482 0l-.317 1.02a.326.326 0 0 0 .317.42"/><path fill="#212121" d="m15.34 6.99-.023.08a.17.17 0 0 0 .029.145.17.17 0 0 0 .131.066h.27a.555.555 0 1 1 1.07 0h.04a.14.14 0 0 0 .14-.17.85.85 0 0 0-.552-.651.8.8 0 0 0-.4-.11c-.253.002-.5.078-.71.22a.26.26 0 0 0-.02.4zM19.147 7.28a.3.3 0 0 0 .04-.15.32.32 0 0 0-.443-.295.1.1 0 0 1-.001.15.1.1 0 0 1-.149-.02.3.3 0 0 0-.047.165.3.3 0 0 0 .04.15z"/><path fill="#212121" d="M27.282 13.6a2.82 2.82 0 0 1-.8 2 2.75 2.75 0 0 1-1.98.816 2.8 2.8 0 0 1-1.359-.346l-1.312-.655V17c-.001.25-.05.498-.143.73a7.74 7.74 0 0 1 1.646 5.082 8.35 8.35 0 0 1-.678 3.515A6.84 6.84 0 0 1 16.576 30h-3.13a3.384 3.384 0 0 1-3.346-3.03.31.31 0 0 0-.18-.22l-.792-.34a2.28 2.28 0 0 1-1.458-2.09v-.61c0-.2.237-.3.428-.26.62.093 1.213.322 1.736.67.417.232.757.58.982 1a.26.26 0 0 0 .23.15.28.28 0 0 0 .23-.15A3 3 0 0 1 12.461 24a4.7 4.7 0 0 1 1.61-.545c.28-.04.39.1.39.3v.574a2.22 2.22 0 0 1-1.375 2.09l-.76.31a.2.2 0 0 0-.084.27 1.89 1.89 0 0 0 1.766.962C17.394 27.95 18 26.613 18 25c0-1.4-1.149-2.095-2.309-2.794-1.18-.711-2.37-1.43-2.37-2.906 0-.42.074-.836.217-1.23a2 2 0 0 1-.317-1.07h-.447q-.058-.001-.113-.01a1 1 0 0 0-.087-.01 3.4 3.4 0 0 1-2.143.714H8.994l-.032.03a1.93 1.93 0 0 1-1.325.609 1.45 1.45 0 0 1-1.177-.601q-.15.033-.306.033a1.53 1.53 0 0 1-.829-.256 1.41 1.41 0 0 1-.619-.96 1.58 1.58 0 0 1 .3-1.224 3.35 3.35 0 0 1 2.162-1.62c.23-.017.6-.056 1.028-.106A4.7 4.7 0 0 1 8 12.274a4.74 4.74 0 0 1 3.8-4.627.624.624 0 0 0 .481-.647 3.753 3.753 0 0 1 3.398-4 .63.63 0 0 0 .41-.212 2 2 0 0 1 3.086.146.34.34 0 0 0 .272.138c.42.001.832.106 1.2.306a.75.75 0 0 1 .545-.253.69.69 0 0 1 .7.51l.138.417.417.008a.73.73 0 0 1 .7.527.76.76 0 0 1-.246.818l-.35.293.132.45a.77.77 0 0 1-.29.84 1 1 0 0 1-.1.054q.09.217.12.45a1.534 1.534 0 0 1 1.572-1.213 1.44 1.44 0 0 1 1.28.779q.196-.052.4-.052a1.51 1.51 0 0 1 1.5 1.5zm-4.91-5.383q-.045.164-.122.316a.8.8 0 0 0 .03.814c.263.385.404.841.405 1.308l.318.17.044-.361-.165-.2a3.1 3.1 0 0 1-.51-2.043zm-1.3-4.555a.25.25 0 0 0-.112.148l-.149.448-.1.307h-.17l-.453.008h-.15a.22.22 0 0 0-.164.07.3.3 0 0 0-.064.096v.042a.3.3 0 0 0 0 .11.26.26 0 0 0 .09.14l.575.448-.019.228-.167.575a.27.27 0 0 0 .094.284.235.235 0 0 0 .286 0l.306-.22.2-.143.14-.1.63.464c.04.03.09.044.14.042q.03 0 .06-.007a.3.3 0 0 0 .076-.03.26.26 0 0 0 .1-.293l-.187-.68v-.1l.566-.477a.27.27 0 0 0 .086-.287.24.24 0 0 0-.228-.173l-.777-.014-.056-.168-.022-.067-.173-.52a.21.21 0 0 0-.22-.166.25.25 0 0 0-.142.039zM13.68 7.23a.95.95 0 0 0 .92.95c.048.426.18.837.388 1.212l.027.04.027.042.017.026q.039.062.083.126.078.114.174.213.26.285.588.488h-.015a3.05 3.05 0 0 0 1.661.48 3 3 0 0 0 1.66-.484q.25-.164.458-.378l.013-.014a3.1 3.1 0 0 0 .66-1.068q.013-.066.032-.136a2 2 0 0 0 .034-.136l.005-.023c.018-.092.036-.18.053-.277l.011-.114h.007a.95.95 0 0 0 .95-.95.9.9 0 0 0-.1-.393l-.139-.1-.347.25a.74.74 0 0 1-.884-.011 1 1 0 0 1-.1-.1l-.01.035c-.006.023-.012.046-.03.065l-.023.02q.012.04.022.08a.17.17 0 0 1-.17.21l-.255-.003q.018-.075.02-.15a.555.555 0 1 0-1.09.15l-.045.003a.14.14 0 0 1-.14-.17.85.85 0 0 1 .558-.653.8.8 0 0 1 .4-.11c.207.006.41.061.591.163a.8.8 0 0 1 0-.348l.134-.46-.346-.267a1 1 0 0 1-.119-.13h-1.383a2.32 2.32 0 0 1-1.9-1 .161.161 0 0 0-.28.03l-.049.117a1.32 1.32 0 0 1-.7.729L15 5.212a.9.9 0 0 0-.483.865v.21a.95.95 0 0 0-.837.943M19.5 16h-4a1.98 1.98 0 0 1-1.28-.476V17a1 1 0 0 0 1 1h4.611a1 1 0 0 0 1-1v-1.518a1.98 1.98 0 0 1-1.33.518m6.782-2.4-.114-5.073a.516.516 0 0 0-.5-.523.55.55 0 0 0-.483.3.5.5 0 0 0-.048.223v.358c0 .042 0 .055-.009.08a.4.4 0 0 1-.034.1.2.2 0 0 1-.026.052.16.16 0 0 1-.1.05q-.007.001-.011.007-.006.005-.014.006h-.008c-.237-.008-.469-.31-.469-.716V7.84a.517.517 0 0 0-.47-.56.544.544 0 0 0-.61.56 3 3 0 0 0 .29 1.812l.32.38a.31.31 0 0 1 .09.25l-.222 1.829a.2.2 0 0 1-.294.153L20.8 10.78a3 3 0 0 0-.28-.107l-.12-.042a4.016 4.016 0 0 1-5.68.008q-.287.1-.56.23a2.4 2.4 0 0 0-.452.322l-.026.023-.074.067a10 10 0 0 0-.394.389l-.05.052q-.103.105-.208.21l-2.45 2.258a.57.57 0 0 1-.32.16c-.242.035-.492.069-.741.103l-.033.004H9.37q-.368.048-.717.09l-.052.013a39 39 0 0 1-1.344.144c-.53.043-1.012.66-1.449 1.23a.493.493 0 0 0 .353.832.75.75 0 0 0 .487-.246 3 3 0 0 0 .245-.267c.086-.1.171-.2.255-.272a.54.54 0 0 1 .246-.117q.009 0 .017-.004l.015-.004a.25.25 0 0 1 .155.055.13.13 0 0 1 .061.11q-.001.014-.007.028l-.007.018a.3.3 0 0 1-.029.087q-.012.018-.028.037l-.017.022-.012.016a.7.7 0 0 1-.1.116l-.024.025-.052.054-.008.007a.543.543 0 0 0 0 .8c.08.064.18.1.282.1A1 1 0 0 0 8.274 17a.83.83 0 0 1 .513-.306h1.64c.305.005.61-.044.9-.145l.062-.027.028-.012q.153-.061.294-.147l.015-.008q.045-.026.091-.055.195-.127.37-.28l1.456-1.284A2 2 0 0 1 13.5 14v-.5a.5.5 0 0 1 .5-.5h2.3a1 1 0 0 1 .941.662l.074.206a.2.2 0 0 0 .376 0l.074-.206A1 1 0 0 1 18.7 13H21a.5.5 0 0 1 .5.5v.5q0 .038-.007.075-.004.025-.006.052l2.13 1.063c.27.152.576.231.887.229a1.75 1.75 0 0 0 1.262-.51 1.82 1.82 0 0 0 .516-1.31"/></svg>