<svg xmlns="http://www.w3.org/2000/svg" fill="none" viewBox="0 0 32 32"><path fill="#212121" d="M13.106 8.782c.012-.012.122-.114.336-.204.242-.102.628-.192 1.174-.11a.25.25 0 1 0 .076-.493c-.64-.098-1.119.005-1.444.142a1.8 1.8 0 0 0-.366.204 1 1 0 0 0-.135.113.254.254 0 0 0 .006.356c.1.096.256.087.353-.008M20.094 8.403l-.305.397a1.97 1.97 0 0 0-.39-.201 2.4 2.4 0 0 0-1.126-.136.25.25 0 1 1-.055-.496 2.9 2.9 0 0 1 1.358.164c.162.062.288.127.375.179.067.04.104.065.14.091zM19.789 8.8a.25.25 0 0 0 .306-.395zM16.008 10.314l-.561 1.904c-.116.386.159.782.55.782h.836c.391 0 .677-.396.56-.782l-.56-1.904a.428.428 0 0 0-.825 0M14.92 13.412c.44.23.95.36 1.5.36s1.06-.13 1.5-.36c.14-.08.3.09.21.23-.36.56-.99.93-1.71.93s-1.35-.37-1.71-.93c-.09-.14.06-.31.21-.23M13.835 9.184c.238 0 .461.07.66.184.466.17.822.575.92 1.066a.23.23 0 0 1-.23.28h-.08q.03-.12.03-.24c0-.5-.41-.91-.91-.91a.913.913 0 0 0-.88 1.15h-.44c-.18 0-.32-.17-.28-.35q.016-.063.038-.125l-.028-.025a.43.43 0 0 1 .04-.67c.32-.23.75-.36 1.16-.36M18.334 9.368c.2-.114.422-.184.66-.184.41 0 .84.13 1.16.36.22.16.24.48.03.67l-.02.018q.024.064.04.132c.04.18-.09.35-.27.35h-.45q.03-.12.03-.24c0-.5-.41-.91-.91-.91a.913.913 0 0 0-.88 1.15h-.07a.23.23 0 0 1-.23-.28c.092-.491.445-.897.91-1.066"/><path fill="#212121" d="M14.225 9.954a.516.516 0 0 1 .46.76h-.92a.522.522 0 0 1 .016-.513.16.16 0 1 0 .24-.207.5.5 0 0 1 .204-.04M18.401 9.994a.5.5 0 0 1 .204-.04.516.516 0 0 1 .46.76h-.92a.522.522 0 0 1 .016-.513.16.16 0 1 0 .24-.207M16.523 24.891a.14.14 0 0 1-.206 0 2.827 2.827 0 0 1 0-3.782.14.14 0 0 1 .206 0 2.827 2.827 0 0 1 0 3.782"/><path fill="#212121" d="M24.052 13.092c.274 1.236-.11 2.51-1.143 3.287.061.528-.017 1.08-.172 1.584l.683.521c2.443 2.018 4 5.07 4 8.486V30h-22v-3.03c0-2.489.827-4.785 2.22-6.628.702-.928 1.543-1.677 2.463-2.379-.155-.505-.233-1.056-.172-1.583-1.033-.777-1.417-2.052-1.143-3.288a2.6 2.6 0 0 0 .061-.505c-.532-.581-1.104-1.495-1.48-2.344-.2-.455-.375-.957-.438-1.427-.052-.394-.072-1.119.479-1.62.437-.415.989-.427 1.333-.382.346.045.692.17.994.308.009-1.537.947-2.938 2.517-3.33.661-.166 1.279-.386 1.812-.83a3.68 3.68 0 0 1 4.711.002c.384.32.791.592 1.262.768l1.05.394c1.208.453 1.953 1.568 2.03 2.8.16-.05.322-.09.485-.111.346-.047.904-.039 1.346.38.51.461.555 1.112.52 1.533-.039.464-.193.952-.384 1.4a9 9 0 0 1-1.011 1.752l-.008.031a2.6 2.6 0 0 0-.015 1.181m-7.05-6.664a2.59 2.59 0 0 0-.479-2.669.14.14 0 0 0-.206 0 2.59 2.59 0 0 0-.532 2.523c.265.095.548.146.84.146zm-.972 13.384a.5.5 0 0 0 .783.003l2.17-2.715q.16-.202.263-.433a6.07 6.07 0 0 1-3.077.833 6.1 6.1 0 0 1-2.322-.458l.002.003zM11.778 9.084a.5.5 0 0 1-.8.408c-.48-.36-1.063-.748-1.57-.985l-.063-.03c-.196-.094-.457-.219-.667-.179V8.3c-.007.014-.04.091-.01.318.036.27.15.625.323 1.019.35.79.884 1.604 1.286 2.012.368.376.787.55 1.072.48a.5.5 0 0 1 .605.367 4.597 4.597 0 0 0 8.926.016.5.5 0 0 1 .544-.377c.416.049.815-.157 1.14-.485.54-.553 1.076-1.37 1.392-2.11.159-.372.249-.694.269-.936.014-.176-.018-.273-.029-.292l-.001-.002-.002-.003c-.027-.024-.081-.015-.12-.009l-.018.003c-.152.02-.365.09-.626.213-.517.242-1.11.636-1.59.998a.5.5 0 0 1-.799-.36l-.063-.829a.43.43 0 0 0-.427-.395h-3.675a3.98 3.98 0 0 1-3.155-1.554 3.15 3.15 0 0 1-1.11 1.247l-.569.37c-.18.116-.22.31-.26.503l-.013.063zM24.19 8.3h.003zM14.221 21a4.3 4.3 0 0 1-3.094-1.31 9 9 0 0 0-2.113 2.164L14.602 28h10.751l-7.233-7z"/></svg>