<svg xmlns="http://www.w3.org/2000/svg" fill="none" viewBox="0 0 32 32"><path fill="#212121" d="m9.665 14.424-.008.005a.5.5 0 0 1-.514-.858h.001l.002-.002.006-.003.017-.01a3 3 0 0 1 .277-.143c.184-.088.445-.2.765-.302.633-.202 1.52-.372 2.476-.203a.5.5 0 1 1-.174.984c-.743-.13-1.457 0-1.998.172a5 5 0 0 0-.85.36M11.25 15.416A2 2 0 0 0 11 15.4c-.7 0-1.375.2-1.975.7-.6.4-.5.9-.1 1.2l.09.063v.004a.512.512 0 0 0 .503.633h.8a1.664 1.664 0 1 1 3.209 0h.148a.428.428 0 0 0 .424-.504 2.607 2.607 0 0 0-2.848-2.08M14.296 20.696l.991-3.17c.223-.701 1.213-.701 1.426 0l.99 3.17a1.01 1.01 0 0 1-.97 1.304h-1.466a1.005 1.005 0 0 1-.97-1.304M13.417 22.783c.747.39 1.637.612 2.583.612.956 0 1.836-.222 2.583-.612.256-.13.53.148.369.39A3.53 3.53 0 0 1 16 24.75a3.53 3.53 0 0 1-2.952-1.577c-.16-.232.114-.52.369-.39M20.855 15.43q.172-.03.345-.03c.7 0 1.375.2 1.975.7.6.4.5.9.1 1.2l-.275.192a.513.513 0 0 1-.518.508h-.8a1.664 1.664 0 0 0-1.61-2.108 1.65 1.65 0 0 0-1.658 1.665q0 .236.06.443h-.149a.428.428 0 0 1-.424-.504 2.6 2.6 0 0 1 2.954-2.066"/><path fill="#212121" d="M12.875 17.557a.947.947 0 0 0-1.329-.866.3.3 0 0 1-.191.529.3.3 0 0 1-.248-.136c-.081.139-.127.3-.127.473 0 .157.039.305.108.443h1.679a1 1 0 0 0 .108-.443M19.115 17.557a.94.94 0 0 1 .16-.525c.043.11.15.188.274.188a.3.3 0 0 0 .17-.545A.947.947 0 0 1 20.903 18h-1.678a1 1 0 0 1-.11-.443M22.856 13.57l.001.001a.5.5 0 0 1-.513.858h-.001l-.008-.005-.04-.022a5.12 5.12 0 0 0-.809-.338c-.542-.173-1.256-.303-2-.172a.5.5 0 0 1-.173-.984c.957-.17 1.843 0 2.477.203a6 6 0 0 1 .98.411l.06.034.019.01.005.003z"/><path fill="#212121" d="m6.033 14.415-.014-.347-.019-.57v-.028c.044-2.016 1.245-2.837 1.78-3.115a.5.5 0 0 1 .089-.037l.04-.018.007-.002.097-.04a3.8 3.8 0 0 0 1.943-2.024l.003-.008.153-.362a.992.992 0 0 1 1.729-.19l.005.008a6.7 6.7 0 0 0 5.533 2.902h6.003c.225 0 .843.05 1.433.461.618.43 1.129 1.204 1.185 2.501v.042l-.039.946a3.501 3.501 0 0 1-.553 6.842c-1.183 4.205-4.978 6.876-9.42 6.876-4.424 0-8.207-2.65-9.407-6.826a3.501 3.501 0 0 1-.558-6.685l-.007-.175a.5.5 0 0 1 .017-.151M11.03 8.26l-.148.35a4.8 4.8 0 0 1-2.523 2.586l-.016.006-.04.017-.007.003-.083.034c-.36.192-1.176.749-1.213 2.221l.019.554v.002l.019.493a.5.5 0 0 1-.017.15l.016.4a.5.5 0 0 1-.373.504 2.501 2.501 0 0 0 .369 4.905.5.5 0 0 1 .432.375c.973 3.88 4.406 6.39 8.523 6.39 4.144 0 7.595-2.543 8.542-6.468a.5.5 0 0 1 .483-.383 2.5 2.5 0 0 0 .358-4.973.5.5 0 0 1-.426-.515L25 13.57c-.049-1.01-.426-1.474-.756-1.703a1.6 1.6 0 0 0-.862-.282H17.38A7.7 7.7 0 0 1 11.03 8.26"/><path fill="#212121" d="M8 31a7 7 0 0 1-6.3-10.053 7.15 7.15 0 0 1 .475-7.015c.539-.82.826-1.78.825-2.762A7.2 7.2 0 0 1 9.967 4h.184A7.27 7.27 0 0 1 16 1a7.18 7.18 0 0 1 5.812 2.982A7.194 7.194 0 0 1 29 11.151c-.004.984.28 1.949.818 2.773a7.17 7.17 0 0 1 .477 7.044c.465.943.706 1.98.705 3.032a7.01 7.01 0 0 1-7 7zm8-28a5.17 5.17 0 0 0-4.188 2.15 2.05 2.05 0 0 1-1.661.85h-.131A5.184 5.184 0 0 0 5 11.151a7.03 7.03 0 0 1-1.145 3.868A5.14 5.14 0 0 0 3 17.868c.004.774.178 1.539.511 2.238a1.95 1.95 0 0 1-.011 1.718A5 5 0 0 0 8 29h16a5.006 5.006 0 0 0 5-5 5.1 5.1 0 0 0-.507-2.193 1.95 1.95 0 0 1 .008-1.725 5 5 0 0 0 .5-2.214 5.1 5.1 0 0 0-.84-2.826A7.04 7.04 0 0 1 27 11.17 5.16 5.16 0 0 0 21.849 6a2 2 0 0 1-1.681-.88A5.16 5.16 0 0 0 16 3"/></svg>