<svg xmlns="http://www.w3.org/2000/svg" fill="none" viewBox="0 0 32 32"><path fill="#212121" d="m15.66 4.79-1.122-2.248a.377.377 0 0 1 .34-.542h2.244c.28 0 .46.291.34.542L16.34 4.789a.38.38 0 0 1-.68 0M10.512 5.982l-2.38-.79a.373.373 0 0 1-.14-.62l1.58-1.58c.2-.2.53-.12.62.15l.79 2.38c.1.28-.18.56-.47.46M21.49 5.98l2.37-.79a.38.38 0 0 0 .15-.62l-1.58-1.58c-.2-.2-.53-.12-.62.15l-.79 2.38c-.1.28.18.56.47.46M14.86 23.06l.66-2.14c.14-.47.81-.47.96 0l.66 2.14c.14.43-.19.88-.65.88h-.98c-.46 0-.79-.44-.65-.88M11.324 18.346a.35.35 0 0 0 .49.07c.01-.01.76-.57 1.88-.44.2.02.37-.12.39-.31a.357.357 0 0 0-.31-.39c-1.392-.17-2.34.542-2.39.58a.35.35 0 0 0-.06.49M13.504 19.62a1.65 1.65 0 0 0-.794-.21c-.51 0-1.05.16-1.46.45-.28.2-.3.61-.04.83l.038.034q-.027.077-.048.156c-.06.22.12.44.34.44h.56a1.14 1.14 0 1 1 2.2 0h.09c.18 0 .33-.17.29-.35a1.76 1.76 0 0 0-1.176-1.35M18.496 19.62c.24-.13.507-.21.794-.21.51 0 1.05.16 1.46.45.28.2.3.61.04.83l-.038.034q.027.077.048.156c.06.22-.12.44-.34.44h-.56a1.14 1.14 0 0 0-1.1-1.44c-.63 0-1.15.52-1.14 1.14 0 .1.01.2.04.3h-.09c-.18 0-.33-.17-.29-.35a1.76 1.76 0 0 1 1.176-1.35"/><path fill="#212121" d="M13.85 21.02a.65.65 0 0 0-.905-.598.2.2 0 1 1-.3.26.65.65 0 0 0-.095.338c0 .11.03.21.07.3h1.16c.05-.09.07-.19.07-.3M18.561 20.411a.65.65 0 0 1 .879.609c0 .11-.03.21-.07.3h-1.16a.7.7 0 0 1-.07-.3c0-.138.043-.266.116-.372a.2.2 0 1 0 .305-.237"/><path fill="#212121" d="M26.821 31H5.178A4.1 4.1 0 0 1 1 26.995c0-.543.114-1.08.338-1.576l1.634-3.942a3.94 3.94 0 0 1-.882-3.572 3.79 3.79 0 0 1 2.6-2.859 3.1 3.1 0 0 0 1.567-.956c.42-.552.65-1.227.652-1.921a5.15 5.15 0 0 1 4.99-5.148A5.15 5.15 0 0 1 15.99 5a5.13 5.13 0 0 1 4.091 2.032 5.146 5.146 0 0 1 4.989 5.137 2.87 2.87 0 0 0 .4 1.524 3.2 3.2 0 0 0 1.829 1.283 3.78 3.78 0 0 1 2.611 2.89 3.94 3.94 0 0 1-.939 3.591l1.687 3.955c.227.497.344 1.037.342 1.583A4.1 4.1 0 0 1 26.821 31m.55-10.746-.455-1.066a3.58 3.58 0 0 0-1.67-1.795 3 3 0 0 1-2.45 2.808 3 3 0 0 1-.063.293 6 6 0 0 1-.236.72 8 8 0 0 1-1.067 1.902C20.4 24.464 18.686 25.75 16 25.75c-2.427 0-4.065-1.051-5.116-2.255-1.038-1.187-1.505-2.52-1.642-3.138l-.034-.156a3 3 0 0 1-2.456-2.847 3.58 3.58 0 0 0-1.748 1.834l-.446 1.076q.111.114.24.208a1 1 0 0 1 .279 1.146l-.827 1.997c.3-.075.616-.115.939-.115.317 0 .626.046.904.11l.01.003.01.003c.102.026.232.06.356.105l4.64 1.388c.107.027.243.062.372.11.856.314 1.546.981 1.85 1.83l1.927.918.004.002c.396.193.675.58.729 1.026h.018c.055-.445.333-.833.73-1.026l.003-.002 1.927-.917c.305-.85.994-1.517 1.85-1.831.13-.048.266-.083.373-.11l4.639-1.388c.124-.046.254-.079.356-.105l.01-.003.01-.002a4 4 0 0 1 .904-.111q.468.001.904.106l-.855-2.004a1 1 0 0 1 .287-1.167q.119-.083.224-.18M22.5 28.232v-.002c.007-.687-.524-1.221-1.147-1.23q-.258 0-.473.105l-3.705 1.764a.3.3 0 0 0-.132.126h5.453zM26.81 24.5a3 3 0 0 0-.946.163l-.016.006-4.451 1.332q.206.006.401.05c.988.22 1.711 1.129 1.7 2.188l-.003.756h3.325A2.1 2.1 0 0 0 29 26.99c0-.266-.058-.529-.17-.77l-.565-1.325a2.8 2.8 0 0 0-1.454-.395M10.602 26l-4.451-1.33-.016-.007a2.985 2.985 0 0 0-.946-.163c-.55 0-1.054.15-1.473.407l-.539 1.301a1.86 1.86 0 0 0-.174.782 2.1 2.1 0 0 0 2.178 2.005h3.323L8.5 28.24v-.001c-.012-1.198.915-2.205 2.102-2.238m4.355 2.995a.3.3 0 0 0-.132-.126l-3.705-1.765-.054-.024a1.1 1.1 0 0 0-.419-.08c-.623.009-1.154.543-1.147 1.23v.002l.004.763zM23 17.361l-.121 1.752a1.5 1.5 0 0 0 .524-2.324l-.023.069c-.05.137-.134.297-.28.426a1 1 0 0 1-.1.077M10.223 20.16c.113.5.52 1.655 1.414 2.678.89 1.02 2.265 1.913 4.363 1.913 2.314 0 3.756-1.089 4.635-2.24a7 7 0 0 0 .93-1.66 5 5 0 0 0 .2-.605c.03-.123.043-.197.047-.228l.175-2.517h-2.045c.4.159.638.338.662.356.15.12.18.34.06.49-.07.1-.18.14-.28.14-.07 0-.15-.02-.21-.07-.01-.01-.77-.57-1.88-.44-.2.01-.37-.12-.39-.31a.4.4 0 0 1 .02-.166h-1.058a6.4 6.4 0 0 1-3.083-1h-.011l-.127-.085a6.5 6.5 0 0 1-1.61-1.555l-.048.116-.005.013c-.137.381-.324.847-.576 1.268-.27.452-.66.927-1.213 1.138q-.09.034-.183.058l.183 2.529v.001l.003.034.001.01q.006.041.022.115zm-1.285-3.67a1.5 1.5 0 0 0 .19 2.626z"/></svg>