<svg xmlns="http://www.w3.org/2000/svg" fill="none" viewBox="0 0 32 32"><path fill="#212121" d="M18.311 6.474a.174.174 0 0 0-.03-.244h-.002l-.002-.002-.005-.004a1 1 0 0 0-.082-.054 1.636 1.636 0 0 0-1.039-.213.174.174 0 1 0 .045.345 1.3 1.3 0 0 1 .86.195l.01.007.002.001a.174.174 0 0 0 .243-.031M13.88 6.574zl.01-.008.049-.03a1.39 1.39 0 0 1 .872-.177.174.174 0 0 0 .044-.345 1.74 1.74 0 0 0-1.18.278l-.005.004-.002.002a.174.174 0 0 0 .21.276M13.91 6.88a.15.15 0 0 1 .21.03c.107.145.295.24.505.24s.398-.095.504-.24a.15.15 0 0 1 .242.179.93.93 0 0 1-.746.361.93.93 0 0 1-.746-.361.15.15 0 0 1 .032-.21M15.798 7.168l-.284 1.11c-.06.23.086.46.275.46h.422c.197 0 .335-.23.275-.46l-.284-1.11c-.06-.24-.344-.24-.404 0M16 9.492c-.318 0-.608-.083-.861-.228-.084-.052-.178.062-.122.145.206.353.571.591.983.591s.777-.238.983-.591c.056-.093-.038-.197-.122-.145a1.7 1.7 0 0 1-.861.228M16.66 6.88a.15.15 0 0 1 .21.03c.107.145.295.24.505.24s.398-.095.504-.24a.15.15 0 0 1 .242.179.93.93 0 0 1-.746.361.93.93 0 0 1-.746-.361.15.15 0 0 1 .032-.21"/><path fill="#212121" d="M21.03 12.13a3.13 3.13 0 0 0 .944-1.872 3.14 3.14 0 0 0-.169-1.488 3.2 3.2 0 0 0-.043-2.315 2.3 2.3 0 0 0-.3-.564 1.15 1.15 0 0 1-.176-.616A3.2 3.2 0 0 0 18.4 2.086 3.2 3.2 0 0 0 16 1a3.2 3.2 0 0 0-2.4 1.086 3.18 3.18 0 0 0-2.885 3.182c.001.227-.064.449-.187.639a3.2 3.2 0 0 0-.33 2.861 3.14 3.14 0 0 0 .772 3.362A6.99 6.99 0 0 0 9 17v.65c0 .021 0 .04-.076.218v.01l-.006.014a4 4 0 0 0-.114.295v.007c-.153.36-.382.684-.672.949q-.642.634-1.346 1.2l-.1.086-.013.011-.011.01c-.21.174-.424.351-.629.53l-.437-.072a1.448 1.448 0 0 0-1.682 1.5 1.37 1.37 0 0 0-.878 1.037v.032c-.036.228-.016.46.058.679a1.384 1.384 0 0 0 .476 1.333 1.39 1.39 0 0 0 1.1.771q.206.026.413.023.135.078.282.124a4.24 4.24 0 0 0 3.468 2.579h.017c.06.012.117.018.155.022l.012.001a2.053 2.053 0 0 0 3.54 1.358l1.205-1.277a.4.4 0 0 1 .05-.046c1.04-.006 2.07-.015 2.877-.022l.288-.002 1.177-.02q.023.015.044.031.03.021.053.048l1.2 1.277a2.054 2.054 0 0 0 3.55-1.363 4.24 4.24 0 0 0 3.65-2.593 1.5 1.5 0 0 0 .284-.125q.207.003.413-.023a1.39 1.39 0 0 0 1.1-.771 1.39 1.39 0 0 0 .48-1.308q0-.012-.004-.025c.075-.218.095-.451.058-.679v-.032A1.37 1.37 0 0 0 28.1 22.4q.008-.15-.017-.3a1.447 1.447 0 0 0-1.665-1.2l-.438.072q-.282-.245-.571-.484l-.068-.056-.013-.011-.1-.086a18 18 0 0 1-1.346-1.2 2.7 2.7 0 0 1-.672-.949v-.007a4 4 0 0 0-.114-.295l-.006-.014v-.01c-.09-.17-.09-.189-.09-.21V17a6.98 6.98 0 0 0-1.97-4.87m-1.03.655q.096-.038.19-.08A5.99 5.99 0 0 1 22 17v.647c.007.213.06.422.156.613q.05.116.094.24a5.8 5.8 0 0 0 1.877 2.228l.044.038.412.344.1.085.09.076.02.017a35 35 0 0 1 .465.394l.065.057.025.021c.108.093.216.186.312.279l.178-.029.425-.07.131-.021.17-.028h.014a.445.445 0 0 1 .512.369.5.5 0 0 1 0 .111.44.44 0 0 1-.374.407h-.009l-.16.028q.028.037.054.076l.01.014q.053.08.095.17a1 1 0 0 1-.103-.072.063.063 0 1 0-.076.099c.293.227.659.33 1.035.288h.001a.325.325 0 0 1 .37.289v.001a.33.33 0 0 1-.177.328.45.45 0 0 0-.254-.042h-.004q-.131.014-.259.004a1.3 1.3 0 0 1-.685-.267l-.005-.003-.951-.74a.063.063 0 0 0-.077.098l.956.744a1.42 1.42 0 0 0 1.035.288h.004a.4.4 0 0 1 .21.043.32.32 0 0 1 .157.246v.003a.32.32 0 0 1-.245.355.45.45 0 0 0-.196-.247.5.5 0 0 0-.302-.07 1.3 1.3 0 0 1-.946-.264l-1.23-.956a.062.062 0 0 0-.078.098l.01.01 1.23.957c.294.227.66.33 1.036.289h.002a.33.33 0 0 1 .215.044.31.31 0 0 1 .145.218l.007.054h.005c.01.17-.12.323-.296.338h-.003q-.302.039-.593-.015l.004-.038a.46.46 0 0 0-.416-.499 1.4 1.4 0 0 1-.69-.273.1.1 0 0 0-.023-.011l-1.215-.945a.063.063 0 1 0-.077.098l1.23.957c.22.165.47.268.752.299.186.016.321.183.304.366a.34.34 0 0 1-.372.298 2 2 0 0 1-.225-.033.063.063 0 0 0-.072.043A2.16 2.16 0 0 1 25 25.05l-.152-.118c-2.545-1.967-3.407-2.634-3.848-3.004a5 5 0 0 1-.33-.3l-.133-.132-.037-.037a3.6 3.6 0 0 1-.5-.657zm-8.19-.08q.094.044.19.08v8.021a3.6 3.6 0 0 1-.5.657l-.037.036-.134.132c-.093.09-.189.178-.329.3-.436.37-1.302 1.04-3.86 3.017l-.135.105a2.16 2.16 0 0 1-.97.427 1 1 0 0 0-.113.004c-.326 0-.403-.166-.42-.346a.337.337 0 0 1 .303-.366h.002c.281-.031.532-.134.75-.298l.001-.001 1.23-.957a.062.062 0 1 0-.077-.098l-1.215.945a.1.1 0 0 0-.024.01 1.4 1.4 0 0 1-.688.274.46.46 0 0 0-.413.537 1.9 1.9 0 0 1-.593.016h-.003a.323.323 0 0 1-.296-.34h.005l.007-.053a.31.31 0 0 1 .145-.217.33.33 0 0 1 .215-.045h.002c.376.041.742-.062 1.035-.289l1.23-.957.01-.01a.062.062 0 0 0-.077-.098l-1.23.956a1.3 1.3 0 0 1-.946.264.5.5 0 0 0-.302.07.45.45 0 0 0-.196.247.32.32 0 0 1-.246-.355v-.003a.32.32 0 0 1 .159-.246.4.4 0 0 1 .21-.043h.003q.143.015.283.004c.274-.023.534-.123.752-.293l.956-.743a.062.062 0 0 0-.077-.098l-.951.74-.005.003a1.3 1.3 0 0 1-.944.263h-.004c-.09-.012-.254.042-.254.042l-.058.04a.4.4 0 0 1-.2-.383v-.031a.39.39 0 0 1 .28-.3.5.5 0 0 1 .17-.017l.052.003.047.004q.147.005.29-.022.05-.01.1-.023.14-.037.267-.105h.006l.041-.023a1.5 1.5 0 0 1 .126-.242l.01-.014q.025-.039.055-.076l-.16-.028h-.01a.44.44 0 0 1-.375-.407.5.5 0 0 1 0-.111.446.446 0 0 1 .512-.369h.014l.17.028.131.021.6.1c.113-.105.239-.214.365-.324l.007-.006.122-.107.488-.41.1-.085.024-.02q.144-.116.287-.24l.09-.076.055-.046A5.8 5.8 0 0 0 9.75 18.5q.039-.113.085-.218l.01-.022c.095-.19.148-.4.155-.613V17a5.98 5.98 0 0 1 1.81-4.295m.884-3.963a1 1 0 0 1-.075-1.877V6.75l-.007-.2a1.03 1.03 0 0 1 .54-.958l.034-.013.034-.014c.36-.162.644-.456.792-.822l.055-.129a.176.176 0 0 1 .236-.094.2.2 0 0 1 .071.06 2.57 2.57 0 0 0 2.119 1.11h2.144c.12 0 .72.058.756.887l-.012.288a1 1 0 0 1-.083 1.88 3.2 3.2 0 0 1-.934 1.97c-.603.588-1.442.928-2.368.928-.892 0-1.702-.315-2.3-.864a3.2 3.2 0 0 1-1.002-2.037m.512 2.935c.76.617 1.739.966 2.79.966a4.4 4.4 0 0 0 2.786-.964q.11.056.218.117v.463C19 13.771 17.718 15 16.142 15h-.294C14.27 15 12.99 13.78 13 12.27v-.484q.102-.056.207-.11m11.171 14.158c.344.267.74.46 1.162.565a3.24 3.24 0 0 1-2.704 1.6l-.713-2.863A1.5 1.5 0 0 0 20.667 24h-1.072l.743-1.323c.466.396 1.336 1.069 3.771 2.951zM21.767 28l.187.681q.048.155.046.319a1.03 1.03 0 0 1-1.04 1 1.05 1.05 0 0 1-.77-.323L18.982 28.4a1.15 1.15 0 0 0-.78-.4c-.155 0-.61 0-1.242.009-.895.008-2.14.018-3.38.025l-.005.002h-3.526c-.38-.003-.677-.011-.857-.021A.5.5 0 0 1 9 27.99a3.25 3.25 0 0 1-2.545-1.585 3.1 3.1 0 0 0 1.165-.566l.272-.211a306 306 0 0 0 3.36-2.613l.952 1.726a.5.5 0 0 0 .438.259h8.025a.5.5 0 0 1 .485.38l.653 2.62zm-9.347 1.035-.606.642a1.05 1.05 0 0 1-.77.323A1.03 1.03 0 0 1 10 29.035z"/></svg>