<svg width="32" height="32" fill="none" xmlns="http://www.w3.org/2000/svg"><path d="M16.6 7.13a.29.29 0 0 1-.039.15h-.56a.276.276 0 0 1-.042-.15.318.318 0 0 1 .041-.164.1.1 0 1 0 .15-.13.326.326 0 0 1 .45.295ZM16.7 8.746a.1.1 0 0 0-.13.139 1.187 1.187 0 0 0 1.01.55 1.213 1.213 0 0 0 1.01-.55.1.1 0 0 0-.069-.147.1.1 0 0 0-.06.008 1.95 1.95 0 0 1-.88.21c-.31 0-.613-.072-.889-.21h.008ZM15.518 6.088l.011-.007.048-.026a1.438 1.438 0 0 1 .873-.123.15.15 0 0 0 .051-.296 1.74 1.74 0 0 0-.824.055 1.494 1.494 0 0 0-.3.136l-.02.01h-.005a.15.15 0 0 0 .168.25h-.002ZM17.331 8.45h.482a.326.326 0 0 0 .317-.42l-.317-1.02a.258.258 0 0 0-.482 0l-.317 1.02a.326.326 0 0 0 .317.42Z" fill="#212121"/><path d="M15.34 6.99a1.046 1.046 0 0 0-.023.08.166.166 0 0 0 .029.145.168.168 0 0 0 .131.066h.27a.555.555 0 1 1 1.07 0h.04a.141.141 0 0 0 .14-.17.849.849 0 0 0-.552-.651.8.8 0 0 0-.4-.11c-.253.002-.5.078-.71.22a.26.26 0 0 0-.02.4l.024.02ZM19.147 7.28a.282.282 0 0 0 .04-.15.32.32 0 0 0-.443-.295.1.1 0 0 1-.001.15.1.1 0 0 1-.149-.02.316.316 0 0 0-.047.165.282.282 0 0 0 .04.15h.56Z" fill="#212121"/><path d="M27.282 13.6a2.816 2.816 0 0 1-.8 2 2.754 2.754 0 0 1-1.98.816 2.783 2.783 0 0 1-1.359-.346l-1.312-.655V17c-.001.25-.05.498-.143.73a7.744 7.744 0 0 1 1.646 5.082 8.349 8.349 0 0 1-.678 3.515A6.839 6.839 0 0 1 16.576 30h-3.13a3.384 3.384 0 0 1-3.346-3.03.31.31 0 0 0-.18-.22l-.792-.34a2.28 2.28 0 0 1-1.458-2.09v-.61c0-.2.237-.3.428-.26.62.093 1.213.322 1.736.67.417.232.757.58.982 1a.264.264 0 0 0 .23.15.276.276 0 0 0 .23-.15A3.014 3.014 0 0 1 12.461 24a4.714 4.714 0 0 1 1.61-.545c.28-.04.39.1.39.3v.574a2.222 2.222 0 0 1-1.375 2.09l-.76.31a.2.2 0 0 0-.084.27 1.89 1.89 0 0 0 1.766.962C17.394 27.95 18 26.613 18 25c0-1.4-1.149-2.095-2.309-2.794-1.18-.711-2.37-1.43-2.37-2.906 0-.42.074-.836.217-1.23a1.98 1.98 0 0 1-.317-1.07h-.447c-.039 0-.076-.005-.113-.01a.957.957 0 0 0-.087-.01 3.394 3.394 0 0 1-2.143.714H8.994l-.032.03a1.93 1.93 0 0 1-1.325.609 1.449 1.449 0 0 1-1.177-.601c-.1.022-.203.033-.306.033a1.529 1.529 0 0 1-.829-.256 1.411 1.411 0 0 1-.619-.96 1.582 1.582 0 0 1 .3-1.224 3.35 3.35 0 0 1 2.162-1.62c.23-.017.6-.056 1.028-.106A4.676 4.676 0 0 1 8 12.274a4.738 4.738 0 0 1 3.8-4.627.624.624 0 0 0 .481-.647 3.753 3.753 0 0 1 3.398-4 .63.63 0 0 0 .41-.212 2 2 0 0 1 3.086.146.341.341 0 0 0 .272.138c.42.001.832.106 1.2.306a.745.745 0 0 1 .545-.253.69.69 0 0 1 .7.51l.138.417.417.008a.734.734 0 0 1 .7.527.764.764 0 0 1-.246.818l-.35.293.132.45a.766.766 0 0 1-.29.84.64.64 0 0 1-.1.054c.06.144.1.295.12.45a1.534 1.534 0 0 1 1.572-1.213 1.444 1.444 0 0 1 1.28.779 1.511 1.511 0 0 1 1.9 1.448l.117 5.094Zm-4.91-5.383c-.03.109-.071.215-.122.316a.8.8 0 0 0 .03.814c.263.385.404.841.405 1.308l.318.17.044-.361-.165-.2a3.093 3.093 0 0 1-.51-2.043v-.004Zm-1.3-4.555a.251.251 0 0 0-.112.148l-.149.448-.1.307h-.17l-.453.008h-.15a.22.22 0 0 0-.164.07.258.258 0 0 0-.064.096v.042a.272.272 0 0 0 0 .11.257.257 0 0 0 .09.14l.575.448-.019.228-.167.575a.27.27 0 0 0 .094.284.235.235 0 0 0 .286 0l.306-.22.2-.143.14-.1.63.464c.04.03.09.044.14.042a.28.28 0 0 0 .136-.037.264.264 0 0 0 .1-.293l-.187-.68v-.1l.566-.477a.27.27 0 0 0 .086-.287.237.237 0 0 0-.228-.173l-.777-.014-.056-.168-.022-.067-.173-.52a.21.21 0 0 0-.22-.166.254.254 0 0 0-.142.039l.004-.004ZM13.68 7.23a.95.95 0 0 0 .92.95c.048.426.18.837.388 1.212l.027.04.027.042.017.026c.026.041.053.083.083.126a2.755 2.755 0 0 0 .762.701h-.015a3.046 3.046 0 0 0 1.661.48 3.008 3.008 0 0 0 1.66-.484c.166-.109.32-.236.458-.378l.013-.014a3.06 3.06 0 0 0 .66-1.068c.008-.043.02-.09.032-.136a1.93 1.93 0 0 0 .034-.136l.005-.023c.018-.092.036-.18.053-.277l.011-.114h.007a.95.95 0 0 0 .95-.95.93.93 0 0 0-.1-.393l-.139-.1-.347.25a.736.736 0 0 1-.884-.011.752.752 0 0 1-.1-.1.223.223 0 0 0-.01.035c-.006.023-.012.046-.03.065l-.023.02c.008.027.016.053.022.08a.17.17 0 0 1-.17.21l-.255-.003a.555.555 0 1 0-1.07 0l-.045.003a.14.14 0 0 1-.14-.17.85.85 0 0 1 .558-.653.807.807 0 0 1 .4-.11c.207.006.41.061.591.163a.786.786 0 0 1 0-.348l.134-.46-.346-.267a.799.799 0 0 1-.119-.13h-1.383a2.322 2.322 0 0 1-1.9-1 .161.161 0 0 0-.28.03l-.049.117a1.318 1.318 0 0 1-.7.729L15 5.212a.9.9 0 0 0-.483.865v.21a.95.95 0 0 0-.837.943ZM19.5 16h-4a1.981 1.981 0 0 1-1.28-.476V17a1 1 0 0 0 1 1h4.611a1 1 0 0 0 1-1v-1.518a1.982 1.982 0 0 1-1.33.518Zm6.782-2.4-.114-5.073a.516.516 0 0 0-.5-.523.545.545 0 0 0-.483.3.53.53 0 0 0-.048.223v.358c0 .042 0 .055-.009.08a.389.389 0 0 1-.034.1.21.21 0 0 1-.026.052.159.159 0 0 1-.1.05c-.005 0-.008.004-.011.007-.004.003-.008.006-.014.006h-.008c-.237-.008-.469-.31-.469-.716V7.84a.517.517 0 0 0-.47-.56.544.544 0 0 0-.61.56 3 3 0 0 0 .29 1.812l.32.38a.313.313 0 0 1 .09.25l-.222 1.829a.2.2 0 0 1-.294.153L20.8 10.78a2.852 2.852 0 0 0-.28-.107l-.12-.042a4.016 4.016 0 0 1-5.68.008c-.192.066-.378.143-.56.23a2.4 2.4 0 0 0-.452.322l-.026.023-.074.067a9.59 9.59 0 0 0-.394.389l-.05.052c-.069.07-.137.14-.208.21l-2.45 2.258a.575.575 0 0 1-.32.16c-.242.035-.492.069-.741.103l-.033.004H9.37c-.245.032-.485.062-.717.09l-.052.013a38.86 38.86 0 0 1-1.344.144c-.53.043-1.012.66-1.449 1.23a.493.493 0 0 0 .353.832.753.753 0 0 0 .487-.246 2.89 2.89 0 0 0 .245-.267c.086-.1.171-.2.255-.272a.535.535 0 0 1 .246-.117c.006 0 .011-.002.017-.004a.045.045 0 0 1 .015-.004.25.25 0 0 1 .155.055.134.134 0 0 1 .061.11c0 .01-.004.018-.007.028a.113.113 0 0 0-.007.018.279.279 0 0 1-.029.087c-.007.012-.018.024-.028.037l-.017.022-.012.016a.71.71 0 0 1-.1.116l-.024.025-.052.054-.008.007a.543.543 0 0 0 0 .8c.08.064.18.1.282.1A.992.992 0 0 0 8.274 17a.829.829 0 0 1 .513-.306h1.64c.305.005.61-.044.9-.145a.787.787 0 0 0 .062-.027l.028-.012c.102-.041.2-.09.294-.147l.015-.008c.03-.018.06-.035.091-.055.13-.085.253-.178.37-.28l1.456-1.284A1.983 1.983 0 0 1 13.5 14v-.5a.5.5 0 0 1 .5-.5h2.3a1 1 0 0 1 .941.662l.074.206a.2.2 0 0 0 .376 0l.074-.206A1 1 0 0 1 18.7 13H21a.5.5 0 0 1 .5.5v.5c0 .026-.003.05-.007.075-.002.017-.005.034-.006.052l2.13 1.063c.27.152.576.231.887.229a1.75 1.75 0 0 0 1.262-.51 1.822 1.822 0 0 0 .516-1.31Z" fill="#212121"/></svg>