<svg xmlns="http://www.w3.org/2000/svg" fill="none" viewBox="0 0 32 32"><path fill="#212121" d="m11.664 7.749.056-.039a.7.7 0 0 0-.05-.13c-.11-.19-.31-.27-.46-.19-.06.032-.102.1-.124.182a.52.52 0 0 1 .254-.342c.21-.12.52-.1.67.16v.01c.04.07.02.14-.03.17z"/><path fill="#212121" d="M11.31 7.94a.24.24 0 0 1-.1-.1.3.3 0 0 1-.033-.1q.027.013.051 0c.029-.016.034-.06.012-.099a.1.1 0 0 0-.036-.036.2.2 0 0 1 .046-.045c.08-.05.2 0 .26.11.03.05.04.1.04.14zM12.31 8.473a.11.11 0 0 1 .127.086.6.6 0 0 1-.463.697.109.109 0 1 1-.049-.212.384.384 0 0 0 .298-.444.11.11 0 0 1 .086-.127"/><path fill="#212121" d="M22.274 20.556a4.8 4.8 0 0 1 1.616-.28l.001-.004a4.794 4.794 0 1 1-4.618 6.083l-.922.121a1.64 1.64 0 0 1-.951-.176 1.4 1.4 0 0 1-.56.12l-3.2-.01a1.155 1.155 0 0 1-1.106-.847 4.8 4.8 0 1 1-3.477-5.118l1.357-3.358a.5.5 0 0 1 .129-.186l.388-.956c-.426.09-.776.152-.946.181a1.31 1.31 0 0 1-1.515.631 2.12 2.12 0 0 1-1.67-1.831 2.073 2.073 0 0 1 1.69-3.273h2.844l.054-.017c.105-.033.208-.066.285-.098q.473-.202.893-.5a2.33 2.33 0 0 1-1.664-1.048 1.31 1.31 0 0 1-.967-.723 1.43 1.43 0 0 1-.122-.887q.005-.03.006-.065a1.42 1.42 0 0 1-.586-.612l-.411-.833a2.87 2.87 0 0 1-.132-2.219 2.9 2.9 0 0 1 1.47-1.661l1.434-.7a2.9 2.9 0 0 1 3.869 1.328l.407.826q.105.208.136.437a2.44 2.44 0 0 1 1.911 2.184v.003q.006.075.007.15l.076.027a9.8 9.8 0 0 1 4.028 3.312c.297.336.55.709.751 1.109q.081.127.156.256L23 12v.039q.272.502.438 1.05c.195.766.13 1.575-.186 2.3-.23.481-.526.928-.879 1.327L20.9 18.409zm-8.24-12.195.34.905q.025.068.01.135a.2.2 0 0 0 .008-.068l.418.279.813-1.015c-.6-.003-1.356-.178-1.59-.236m.684 1.967a8 8 0 0 1-1.453 1.413q.005.005.01.004.006 0 .009.003-.044.032-.093.062l-.08.052a6 6 0 0 1-.188.124q-.41.27-.861.466a4 4 0 0 1-.331.121l-.016.006q-1.134.334-2.3.523c-.295.076-.57.212-.81.4 0 0-.112.113-.253.285a4 4 0 0 0-.186.247l-.028.04a3 3 0 0 0-.166.272 2 2 0 0 0-.087.188l-.01.025-.025.064a1 1 0 0 0-.055.269.6.6 0 0 0 .033.2q.006.018.017.036l.01.02a.8.8 0 0 0 .114.172q.044.054.095.1l.01.008.01.01.033.027q.06.05.128.09l.012.008.024.016q.085.052.165.091l.045.02a1 1 0 0 0 .1.047l.047.019c.071.028.122.044.122.044q.038.01.077.01a.3.3 0 0 0 .182-.065.4.4 0 0 0 .064-.078.4.4 0 0 0 .036-.046.8.8 0 0 0 .071-.221.21.21 0 0 1 .124-.16 1 1 0 0 1 .254-.059l.132-.021.068-.011.053-.009c.263-.046.944-.17 1.657-.346q.23-.055.454-.118.076-.022.15-.045l.032-.01a8 8 0 0 0 .736-.251 8.8 8.8 0 0 0 3.069-2.242l-.003-.003c.863-.968 1.297-1.83 1.324-1.895.27-.5.06-1.12-.45-1.38-.51-.25-1.13-.05-1.39.46a7 7 0 0 1-.678 1.022zm.861 6.367a2.75 2.75 0 0 0-.503 1.543 3 3 0 0 0 .024.412l.778 4.756-.536.284-1.522.8a.63.63 0 0 0-.35.59v.17a.16.16 0 0 0 .162.16l3.2.01a.423.423 0 0 0 .42-.42v-.954l-.04-5.39zm4.914 6.747 2.628.345-1.228-1.913a3.77 3.77 0 0 0-1.4 1.568m-9.089-6.178a.5.5 0 0 1-.038.208l-.606 1.5 3.849 2.884-.233-1.432-1.646-1.204c-.2-.14-.34-.34-.4-.57l-.01-.011v-.009c-.19-.75.15-1.54.82-1.94l.991-.589h-.001l2.236-1.396.373-.291-.15-.255-.472-.8a9.4 9.4 0 0 1-2.881 1.934 10 10 0 0 1-1.189.387zm2.522-7.83-1.142-3.03L10.66 7.44a.4.4 0 0 1-.086.032l.146.246a.84.84 0 0 1 .11.41c-.004.16-.015.268-.024.352l-.002.021a.47.47 0 0 0 .026.307.31.31 0 0 0 .294.188.6.6 0 0 0 .216-.048.1.1 0 0 1 .03 0 .08.08 0 0 1 .07.034c.374.607.738 1.054 1.289 1.054.284-.014.56-.101.8-.254q.224-.13.422-.299a.2.2 0 0 1-.025-.049m-2.468-3.332a.315.315 0 0 0 .352.048l1.26-.61a.32.32 0 0 0 .15-.43.317.317 0 0 0-.43-.16l-1.26.62a.317.317 0 0 0-.15.43q.03.06.078.102m-5.21 22.402c.485.218 1.01.331 1.542.332a3.768 3.768 0 0 0 1.835-7.056l-1.359 3.362a.513.513 0 0 1-.952-.384l1.354-3.351a3.765 3.765 0 0 0-2.42 7.097m5.506-6.122c.443.656.716 1.412.795 2.199a1.6 1.6 0 0 1 .807-.975l1.1-.584-4.094-3.064-.349.864c.7.368 1.299.904 1.741 1.56m6.47-3.22.014 1.8.365-1.662a2 2 0 0 1-.379-.138m1.429.138-.858 3.919.638.081a4.8 4.8 0 0 1 1.911-2.3l-1.217-1.9a2 2 0 0 1-.474.2m2.016 8.815a3.77 3.77 0 0 0 3.784.382 3.77 3.77 0 0 0 1.613-5.456 3.77 3.77 0 0 0-4.22-1.591l1.619 2.532a.89.89 0 0 1-.185 1.718l-3.98.523c.244.76.724 1.422 1.369 1.892M20.612 10.37l-3.567 2.526q.276.418.51.864l3.678-2.605a9 9 0 0 0-.621-.785"/></svg>