<svg xmlns="http://www.w3.org/2000/svg" fill="none" viewBox="0 0 32 32"><path fill="#212121" d="M12.581 5.149a.54.54 0 0 1 .517-.09.505.505 0 0 1 .334.461v.01a.134.134 0 0 1-.12.14h-.3a1 1 0 0 0 .018-.14.38.38 0 0 0-.33-.41.3.3 0 0 0-.119.029M12.481 5.229"/><path fill="#212121" d="M12.484 5.412a.3.3 0 0 0-.024.118q.004.075.04.14v.01h.3a.3.3 0 0 0 .04-.15.225.225 0 0 0-.19-.24.2.2 0 0 0-.074.018.1.1 0 0 1 .014.052c0 .044-.027.08-.06.08a.06.06 0 0 1-.046-.028M13.046 6.689a.12.12 0 0 1 .087-.009.115.115 0 0 1 .081.138.61.61 0 0 1-.786.4A.115.115 0 0 1 12.5 7a.38.38 0 0 0 .49-.243.12.12 0 0 1 .056-.068"/><path fill="#212121" d="m24.034 25.426.885.831a1.24 1.24 0 0 1 .415.906c.006.325-.114.64-.335.88l-2.63 2.821a1.35 1.35 0 0 1-.978.419 1.36 1.36 0 0 1-1.032-.472 1.34 1.34 0 0 1-.31-1.076v-.033l.007-.032.54-2.5-3.245-3.2-.093-.089a10.5 10.5 0 0 1-1.446-1.57l-.293.333-1.757 5.894-.692 2.044a1.216 1.216 0 0 1-1.509.643l-3.633-1.238a1.35 1.35 0 0 1 .127-2.6l2.325-.5.49-4.544c.072-.874.246-1.737.52-2.57l.31-.85.318-1.022q-.136.114-.277.227l-.04.037-.58.54-.02.019-.022.018-.063.054c-.315.31-.703.536-1.127.659a1.4 1.4 0 0 1-.25.023 2.38 2.38 0 0 1-1.672-.943 2.9 2.9 0 0 1-.575-1.268 1.3 1.3 0 0 1 .432-1.2l.02-.067a1.466 1.466 0 0 1 1.517-1.067q.095 0 .185.007a8.6 8.6 0 0 0 1.874-2.182q.027-.219.125-.417.315-.586.521-1.218a5 5 0 0 1 .088-.251 5 5 0 0 1 .442-1.332 2.25 2.25 0 0 1-1.545-2.1 1.31 1.31 0 0 1-.492-1.125c.019-.307.135-.6.331-.836.037-.049.08-.11.137-.2v-.433q.003-.238.046-.471a2.08 2.08 0 0 1-.24-1.684 2.27 2.27 0 0 1 2.04-1.7 1.7 1.7 0 0 1 .58.1q.205.071.356.133.123.057.257.086.161-.013.315-.064c.39-.112.794-.17 1.2-.171a2.73 2.73 0 0 1 2.944 2.837 7 7 0 0 1-.152 1.679 2.407 2.407 0 0 1 .727 2.233c-.091.464-.31.894-.63 1.242q.887.679 1.635 1.508a1.2 1.2 0 0 1 .206.343 13.7 13.7 0 0 1 2.49 4.421l.053.148c.046.126.09.247.121.36l.28.7.012.033.006.015c.196.434.278.91.236 1.385-.185 1-1.422 1.417-1.565 1.462-.284.085-.58.128-.876.13a2.3 2.3 0 0 1-.532-.059 1.3 1.3 0 0 1-.467-.2l.265 1.114zM21.9 15.781l-.04-.111a12.8 12.8 0 0 0-1.915-3.596l-1.345 1.28c.594.927 1.093 1.91 1.491 2.936q.034.103.068.226c.025.089.053.184.083.276-.132.191-.495.763-.132 1.027.28.2.39.29.39.29s-.05.36.26.43q.154.036.312.034.295-.003.578-.084c.38-.12.83-.42.88-.69a2.2 2.2 0 0 0-.193-.862l-.007-.018-.3-.75a4 4 0 0 0-.112-.337zm-7.277 6.356.07-.229 3.095-3.512a2.57 2.57 0 0 0 .592-1.884l-.004-.027-.003-.02q-.006-.05-.015-.1h-.017v-.01h.02l-.016-.14h-4.594l-1.11 3.035-.31.99a10.3 10.3 0 0 0-.47 2.35l-.546 5.063L12.59 28.8l1.961-6.42zM12 6.787q.02.024.021.053c.02 1.05.21 1.81 1.472 1.825h.03q.266-.004.526-.055.651-.128 1.28-.343a1.97 1.97 0 0 1-.586-1.432l.008-.48a.7.7 0 1 0 .005-1.4 1 1 0 0 0-.193-.441.77.77 0 0 0-.47-.28h-.01a.7.7 0 0 0-.45.06 1.46 1.46 0 0 1-.642.109c.16.031.312.094.447.184a.123.123 0 0 1-.077.22.12.12 0 0 1-.074-.025 1 1 0 0 0-.662-.156.123.123 0 1 1-.028-.244q.097-.009.193 0a1.4 1.4 0 0 1-.319-.082 2 2 0 0 1-.26-.148q-.026-.017-.014-.008a1.7 1.7 0 0 0-.166.716v.466a.8.8 0 0 1-.12.43 4 4 0 0 1-.212.314.5.5 0 0 0-.138.3.38.38 0 0 0 .39.39.1.1 0 0 1 .05.028M11.02 17.43v-.006h-.005A12 12 0 0 0 12.9 15.6a15 15 0 0 1-.254-2.548l-.2-.109q0 .006-.002.013c-.001.009-.003.019.002.026A9.6 9.6 0 0 1 9.831 16a2 2 0 0 0-.465-.07c-.24 0-.487.066-.554.319-.09.33-.13.46-.13.46s-.35.08-.3.4c.062.291.188.564.37.8.216.292.533.494.89.565q.03 0 .06-.005c.25-.101.476-.25.668-.44l.07-.059zm6.927 5.721.093.089 3.656 3.594v-.014l1.59-.73-3.773-5.1a.7.7 0 0 1-.13-.27l-.51-2.148a3.5 3.5 0 0 1-.324.473l-2.089 2.373v.012a6.8 6.8 0 0 0 1.487 1.721"/></svg>