<svg xmlns="http://www.w3.org/2000/svg" fill="none" viewBox="0 0 32 32"><path fill="#212121" d="M26.5 30h-7.102q.16-.11.367-.228C20.428 29.399 21.485 29 23 29c1.536 0 2.519.36 3.092.676.212.117.373.23.488.323zM11.5 15.5c1.655 0 3-.408 3-2.04 0-1.634-1.345-2.96-3-2.96s-3 1.326-3 2.96c0 1.632 1.345 2.04 3 2.04M20.5 15.5c1.655 0 3-.408 3-2.04 0-1.634-1.345-2.96-3-2.96s-3 1.326-3 2.96c0 1.632 1.345 2.04 3 2.04M16.6 16.9h-1.3c-.3 0-.5-.3-.4-.6l.2-.7c.1-.4.5-.6.8-.6.4 0 .7.2.8.6l.2.7c.3.3.1.6-.3.6"/><path fill="#212121" d="M17.308 29.19a1 1 0 0 0-.188.81h-2.14a1 1 0 0 0-.212-.84l-.001-.002-.002-.002a2 2 0 0 0-.118-.129 5 5 0 0 0-.278-.262 6.3 6.3 0 0 0-1.054-.737C12.378 27.501 10.985 27 9.1 27c-1.864 0-3.181.44-4.058.924-.435.24-.754.487-.973.685q-.163.15-.253.253c-.04.044-.115.137-.115.137L3.7 29a1 1 0 0 0-.174.372C2.611 28.734 2 27.674 2 26.5v-21C2 3.6 3.6 2 5.5 2h21C28.4 2 30 3.6 30 5.5v21c0 1.138-.574 2.168-1.442 2.811A1 1 0 0 0 28.4 29v-.001s-.076-.093-.116-.137a4 4 0 0 0-.253-.253 5.2 5.2 0 0 0-.973-.685C26.181 27.441 24.864 27 23 27c-1.885 0-3.278.501-4.215 1.028a6.3 6.3 0 0 0-1.054.737 5 5 0 0 0-.396.391l-.002.002-.001.002zM25 13c0-5-4.03-9-9-9s-9 4-9 9c0 3.139 1.588 4.307 4 4.742V20.5a1.5 1.5 0 0 0 3 0V19h1v2a1 1 0 1 0 2 0v-2h1v1.5a1.5 1.5 0 0 0 3 0v-2.758c2.412-.435 4-1.603 4-4.742M15 23a1 1 0 1 0 0 2h2a1 1 0 1 0 0-2zm-1 4a1 1 0 0 0 1 1h2a1 1 0 1 0 0-2h-2a1 1 0 0 0-1 1"/><path fill="#212121" d="M12.335 29.772q.207.118.367.228H5.519c.115-.093.276-.207.49-.324C6.58 29.359 7.563 29 9.1 29c1.515 0 2.572.399 3.235.772"/></svg>