<svg width="32" height="32" fill="none" xmlns="http://www.w3.org/2000/svg"><path d="M26.5 30h-7.102c.106-.073.229-.15.367-.228.663-.373 1.72-.772 3.235-.772 1.536 0 2.519.36 3.092.676.212.117.373.23.488.323L26.5 30ZM11.5 15.5c1.655 0 3-.408 3-2.04 0-1.634-1.345-2.96-3-2.96s-3 1.326-3 2.96c0 1.632 1.345 2.04 3 2.04ZM20.5 15.5c1.655 0 3-.408 3-2.04 0-1.634-1.345-2.96-3-2.96s-3 1.326-3 2.96c0 1.632 1.345 2.04 3 2.04ZM16.6 16.9h-1.3c-.3 0-.5-.3-.4-.6l.2-.7c.1-.4.5-.6.8-.6.4 0 .7.2.8.6l.2.7c.3.3.1.6-.3.6Z" fill="#212121"/><path d="M17.308 29.19a.998.998 0 0 0-.188.81h-2.14a.998.998 0 0 0-.212-.84l-.001-.002-.002-.002a2.253 2.253 0 0 0-.118-.129 4.494 4.494 0 0 0-.278-.262 6.338 6.338 0 0 0-1.054-.737C12.378 27.501 10.985 27 9.1 27c-1.864 0-3.181.44-4.058.924-.435.24-.754.487-.973.685-.109.099-.193.185-.253.253-.04.044-.115.137-.115.137L3.7 29a.997.997 0 0 0-.174.372C2.611 28.734 2 27.674 2 26.5v-21C2 3.6 3.6 2 5.5 2h21C28.4 2 30 3.6 30 5.5v21c0 1.138-.574 2.168-1.442 2.811A1 1 0 0 0 28.4 29v-.001s-.076-.093-.116-.137a3.544 3.544 0 0 0-.253-.253 5.161 5.161 0 0 0-.973-.685C26.181 27.441 24.864 27 23 27c-1.885 0-3.278.501-4.215 1.028a6.338 6.338 0 0 0-1.054.737 4.494 4.494 0 0 0-.396.391l-.002.002-.001.002-.024.03ZM25 13c0-5-4.03-9-9-9s-9 4-9 9c0 3.139 1.588 4.307 4 4.742V20.5a1.5 1.5 0 0 0 3 0V19h1v2a1 1 0 1 0 2 0v-2h1v1.5a1.5 1.5 0 0 0 3 0v-2.758c2.412-.435 4-1.603 4-4.742ZM15 23a1 1 0 1 0 0 2h2a1 1 0 1 0 0-2h-2Zm-1 4a1 1 0 0 0 1 1h2a1 1 0 1 0 0-2h-2a1 1 0 0 0-1 1Z" fill="#212121"/><path d="M12.335 29.772c.138.078.26.155.367.228H5.519c.115-.093.276-.207.49-.324C6.58 29.359 7.563 29 9.1 29c1.515 0 2.572.399 3.235.772Z" fill="#212121"/></svg>