<svg width="32" height="32" fill="none" xmlns="http://www.w3.org/2000/svg"><path d="M6.235 6.778C4.105 9.089 3 12.328 3 15.998c0 2.164.384 4.177 1.135 5.94-.1.346-.207.602-.31.757a4.917 4.917 0 0 0-.69 1.688C1.7 21.963 1 19.067 1 16c0-4.061 1.226-7.821 3.763-10.576C7.313 2.654 11.095 1 16 1c4.904 0 8.686 1.654 11.235 4.423 2.537 2.755 3.764 6.515 3.764 10.576 0 4.061-1.227 7.82-3.764 10.576-2.55 2.769-6.331 4.423-11.235 4.423-1.722 0-3.306-.204-4.747-.589.186-.088.366-.181.539-.277.709-.394 1.343-.854 1.866-1.283.74.098 1.52.149 2.342.149 4.43 0 7.648-1.48 9.764-3.778 2.129-2.311 3.235-5.55 3.235-9.221 0-3.67-1.106-6.91-3.235-9.221C23.647 4.48 20.43 3 16 3c-4.43 0-7.648 1.48-9.764 3.778Z" fill="#212121"/><path d="m17.748 24.841-2.146 2.146a6 6 0 1 0-2.021-11.48 2.277 2.277 0 0 1 .348.357 2.25 2.25 0 0 1 3.114 3.113 2.25 2.25 0 0 1 .682 2.66l.023.022a2.25 2.25 0 0 1 0 3.182ZM9.941 10.824c-.937.312-1.692.914-2.047 1.623a1 1 0 1 1-1.788-.894c.645-1.291 1.89-2.189 3.203-2.627 1.313-.438 2.847-.466 4.138.18a1 1 0 1 1-.894 1.788c-.71-.354-1.675-.383-2.612-.07ZM22.059 10.824c.936.312 1.692.914 2.046 1.623a1 1 0 0 0 1.79-.894c-.646-1.291-1.89-2.189-3.204-2.627-1.313-.438-2.847-.466-4.138.18a1 1 0 0 0 .894 1.788c.71-.354 1.675-.383 2.612-.07Z" fill="#212121"/><path d="M13.04 16.366a1.25 1.25 0 0 1 .16 1.573l1.073-1.073a1.25 1.25 0 0 1 1.768 1.768l-1.073 1.073a1.25 1.25 0 0 1 1.512 1.984l-.354.31a1.25 1.25 0 0 1 .915 2.134l-2.643 2.642c-.407.455-4.925 5.335-8.741 2.473-2-1.5-2-4.5-1-6 .619-.929.879-3.115.965-4.751.036-.69.595-1.249 1.285-1.249s1.25.56 1.25 1.25v.982l3.116-3.116a1.25 1.25 0 0 1 1.768 0Z" fill="#212121"/></svg>