<svg xmlns="http://www.w3.org/2000/svg" fill="none" viewBox="0 0 32 32"><path stroke="#212121" stroke-linejoin="round" stroke-width="2" d="M15.2 8.18a1 1 0 0 0 1.6 0 8 8 0 0 1 3.373-2.542c1.492-.575 3.322-.693 5.38.336 2.593 1.296 3.551 3.511 3.387 5.977-.169 2.528-1.536 5.31-3.647 7.421-2.213 2.214-6.027 6.025-8.79 8.125a.764.764 0 0 1-.952-.023c-2.553-2.06-6.69-5.947-8.844-8.102-2.111-2.11-3.478-4.893-3.647-7.422-.164-2.465.794-4.68 3.387-5.976 2.058-1.03 3.888-.911 5.38-.336A8 8 0 0 1 15.2 8.179Z"/><mask id="yellow-heart_svg__a" width="28" height="25" x="2" y="4" maskUnits="userSpaceOnUse" style="mask-type:alpha"><path fill="#C4C4C4" d="M26 5.08c-4.665-2.333-8.5.5-10 2.5-1.5-2-5.335-4.833-10-2.5-6 3-4.5 10.5 0 15 2.196 2.195 6.063 6.062 8.891 8.213a1.76 1.76 0 0 0 2.186-.04c2.593-2.093 6.758-6.009 8.923-8.174 4.5-4.5 6-12 0-15"/></mask><g stroke="#212121" stroke-linecap="round" stroke-linejoin="round" stroke-width=".5" mask="url(#yellow-heart_svg__a)"><path d="M29.957-19.454 1.337 9.166M29.957-4.454l-28.62 28.62M29.957 10.546l-28.62 28.62M29.957-19.454 1.337 9.166M29.957-4.454l-28.62 28.62M29.957 10.546l-28.62 28.62M29.957-14.454l-28.62 28.62M29.957.546l-28.62 28.62M29.957 15.546l-28.62 28.62M29.957 20.546l-28.62 28.62M29.957-9.454l-28.62 28.62M29.957 5.546l-28.62 28.62M29.957 25.546l-28.62 28.62"/></g></svg>