<svg xmlns="http://www.w3.org/2000/svg" fill="none" viewBox="0 0 32 32"><g clip-path="url(#fe-fearful-face-a)"><path fill="url(#fe-fearful-face-b)" d="M15.999 29.998c9.334 0 13.999-6.268 13.999-14 0-7.73-4.665-13.998-14-13.998C6.665 2 2 8.268 2 15.999s4.664 13.999 13.999 13.999"/><path fill="url(#fe-fearful-face-c)" d="M15.999 29.998c9.334 0 13.999-6.268 13.999-14 0-7.73-4.665-13.998-14-13.998C6.665 2 2 8.268 2 15.999s4.664 13.999 13.999 13.999"/><path fill="url(#fe-fearful-face-d)" fill-opacity=".6" d="M15.999 29.998c9.334 0 13.999-6.268 13.999-14 0-7.73-4.665-13.998-14-13.998C6.665 2 2 8.268 2 15.999s4.664 13.999 13.999 13.999"/><circle cx="9" cy="15" r="5" fill="url(#fe-fearful-face-e)"/><circle cx="19.5" cy="15.5" r="4.5" fill="url(#fe-fearful-face-f)"/><path fill="#fff" d="M10.5 18a4.5 4.5 0 1 0 0-9 4.5 4.5 0 0 0 0 9M21.5 18a4.5 4.5 0 1 0 0-9 4.5 4.5 0 0 0 0 9"/><path fill="url(#fe-fearful-face-g)" d="M12 16a2 2 0 1 0 0-4 2 2 0 0 0 0 4"/><path fill="url(#fe-fearful-face-h)" d="M20 16a2 2 0 1 0 0-4 2 2 0 0 0 0 4"/><path stroke="url(#fe-fearful-face-i)" stroke-linecap="round" stroke-linejoin="round" stroke-width="1.25" d="M10.5 5.5s-.5 3-4 3"/><path stroke="url(#fe-fearful-face-j)" stroke-linecap="round" stroke-linejoin="round" stroke-width="1.25" d="M10.5 5.5s-.5 3-4 3"/><path stroke="url(#fe-fearful-face-k)" stroke-linecap="round" stroke-linejoin="round" stroke-width="1.25" d="M21.5 5.5s.5 3 4 3"/><path fill="url(#fe-fearful-face-l)" d="M22.718 24.026c.31 1.06-.615 1.974-1.72 1.974h-9.997c-1.105 0-2.03-.914-1.719-1.974a7.003 7.003 0 0 1 13.436 0"/></g><defs><radialGradient id="fe-fearful-face-b" cx="0" cy="0" r="1" gradientTransform="rotate(132.839 10.786 10.065)scale(37.5033)" gradientUnits="userSpaceOnUse"><stop stop-color="#fff478"/><stop offset=".475" stop-color="#ffb02e"/><stop offset="1" stop-color="#f70a8d"/></radialGradient><radialGradient id="fe-fearful-face-c" cx="0" cy="0" r="1" gradientTransform="matrix(0 -51 64.9968 0 16 49)" gradientUnits="userSpaceOnUse"><stop offset=".67" stop-color="#bfb2dd" stop-opacity="0"/><stop offset=".748" stop-color="#a4aeeb"/><stop offset=".812" stop-color="#379eff"/><stop offset=".964" stop-color="#1345b7"/></radialGradient><radialGradient id="fe-fearful-face-d" cx="0" cy="0" r="1" gradientTransform="matrix(-29 29 -29 -29 18 14)" gradientUnits="userSpaceOnUse"><stop offset=".315" stop-opacity="0"/><stop offset="1"/></radialGradient><radialGradient id="fe-fearful-face-e" cx="0" cy="0" r="1" gradientTransform="rotate(135 4.143 8.225)scale(9.74236 5.04232)" gradientUnits="userSpaceOnUse"><stop stop-color="#392108"/><stop offset="1" stop-color="#c87928" stop-opacity="0"/></radialGradient><radialGradient id="fe-fearful-face-f" cx="0" cy="0" r="1" gradientTransform="matrix(-5.75 5.75 -3.24597 -3.24597 23 12)" gradientUnits="userSpaceOnUse"><stop stop-color="#392108"/><stop offset="1" stop-color="#c87928" stop-opacity="0"/></radialGradient><radialGradient id="fe-fearful-face-j" cx="0" cy="0" r="1" gradientTransform="matrix(2.5 3.5 -3.5 2.5 7 5)" gradientUnits="userSpaceOnUse"><stop offset=".542" stop-color="#493032"/><stop offset=".807" stop-color="#5e445a"/><stop offset=".955" stop-color="#4a2c42"/></radialGradient><radialGradient id="fe-fearful-face-k" cx="0" cy="0" r="1" gradientTransform="rotate(125.538 11.213 8.933)scale(4.30116)" gradientUnits="userSpaceOnUse"><stop stop-color="#c2b4b5"/><stop offset=".887" stop-color="#462b45"/><stop offset="1" stop-color="#4a2c42"/></radialGradient><radialGradient id="fe-fearful-face-l" cx="0" cy="0" r="1" gradientTransform="matrix(0 -9 18 0 16 27)" gradientUnits="userSpaceOnUse"><stop stop-color="#f70a8d"/><stop offset="1" stop-color="#89029c"/></radialGradient><linearGradient id="fe-fearful-face-g" x1="20.615" x2="19.927" y1="12" y2="16.03" gradientUnits="userSpaceOnUse"><stop stop-color="#553b3e"/><stop offset="1" stop-color="#3d2432"/></linearGradient><linearGradient id="fe-fearful-face-h" x1="20.615" x2="19.927" y1="12" y2="16.03" gradientUnits="userSpaceOnUse"><stop stop-color="#553b3e"/><stop offset="1" stop-color="#3d2432"/></linearGradient><linearGradient id="fe-fearful-face-i" x1="9.5" x2="9.5" y1="5" y2="6.5" gradientUnits="userSpaceOnUse"><stop offset=".03" stop-color="#524049"/><stop offset="1" stop-color="#4a2c42"/></linearGradient><clipPath id="fe-fearful-face-a"><path fill="#fff" d="M0 0h32v32H0z"/></clipPath></defs></svg>