<svg xmlns="http://www.w3.org/2000/svg" fill="none" viewBox="0 0 32 32"><g filter="url(#fe-person-mountain-biking-medium-a)"><path fill="url(#fe-person-mountain-biking-medium-b)" d="m3.898 17.344-1.867 1.938v11.28H29.97v-16.53l-6.14-9.306a2.3 2.3 0 0 0-3.841.003l-8.916 13.549a.5.5 0 0 1-.715.127l-2.048-1.518c-1.32-.98-3.2-.8-4.41.457"/><path fill="url(#fe-person-mountain-biking-medium-c)" d="m3.898 17.344-1.867 1.938v11.28H29.97v-16.53l-6.14-9.306a2.3 2.3 0 0 0-3.841.003l-8.916 13.549a.5.5 0 0 1-.715.127l-2.048-1.518c-1.32-.98-3.2-.8-4.41.457"/></g><g filter="url(#fe-person-mountain-biking-medium-d)"><path fill="url(#fe-person-mountain-biking-medium-e)" d="m17.771 8.097 2.247-1.315a.4.4 0 0 1 .511.09l1.07 1.3a.6.6 0 0 0 .927 0l1.067-1.296a.4.4 0 0 1 .515-.089L25.9 7.864l-2.07-3.138a2.3 2.3 0 0 0-3.841.003z"/></g><path fill="url(#fe-person-mountain-biking-medium-f)" d="m17.771 8.097 2.247-1.315a.4.4 0 0 1 .511.09l1.07 1.3a.6.6 0 0 0 .927 0l1.067-1.296a.4.4 0 0 1 .515-.089L25.9 7.864l-2.07-3.138a2.3 2.3 0 0 0-3.841.003z"/><g filter="url(#fe-person-mountain-biking-medium-g)"><path fill="#97595f" d="m5.663 27.749-3.616 2.158v.672h27.922v-.672l-3.532-2.15a2.4 2.4 0 0 0-2.429-.04l-.817.462a2 2 0 0 1-1.838.067l-1.319-.623a2.25 2.25 0 0 0-1.965.021l-1.176.587a2 2 0 0 1-1.823-.02l-1.126-.591a2 2 0 0 0-1.783-.039l-1.42.67a2 2 0 0 1-1.825-.062l-.855-.476a2.4 2.4 0 0 0-2.398.036"/><path fill="url(#fe-person-mountain-biking-medium-h)" d="m5.663 27.749-3.616 2.158v.672h27.922v-.672l-3.532-2.15a2.4 2.4 0 0 0-2.429-.04l-.817.462a2 2 0 0 1-1.838.067l-1.319-.623a2.25 2.25 0 0 0-1.965.021l-1.176.587a2 2 0 0 1-1.823-.02l-1.126-.591a2 2 0 0 0-1.783-.039l-1.42.67a2 2 0 0 1-1.825-.062l-.855-.476a2.4 2.4 0 0 0-2.398.036"/></g><g filter="url(#fe-person-mountain-biking-medium-i)"><path fill="url(#fe-person-mountain-biking-medium-j)" fill-rule="evenodd" d="M7 21.596a3.969 3.969 0 1 0 0 7.938 3.969 3.969 0 0 0 0-7.938m-4.969 3.97a4.969 4.969 0 1 1 9.938-.001 4.969 4.969 0 0 1-9.938 0" clip-rule="evenodd"/></g><g filter="url(#fe-person-mountain-biking-medium-k)"><circle cx="7" cy="25.565" r="4.555" stroke="url(#fe-person-mountain-biking-medium-l)" stroke-width=".3"/></g><path fill="url(#fe-person-mountain-biking-medium-m)" d="m19.131 20.721-1.826-1.988-.424 2.059 1.001.705z"/><path fill="#413354" d="m17.826 21.454-.3 1.981c-.067.476-.04.887.364 1.167.101.07.237.031.306-.071l1.964-2.902a.2.2 0 0 0-.053-.278l-.952-.644z"/><path fill="url(#fe-person-mountain-biking-medium-n)" d="m17.826 21.454-.3 1.981c-.067.476-.04.887.364 1.167.101.07.237.031.306-.071l1.964-2.902a.2.2 0 0 0-.053-.278l-.952-.644z"/><path fill="url(#fe-person-mountain-biking-medium-o)" d="m17.826 21.454-.3 1.981c-.067.476-.04.887.364 1.167.101.07.237.031.306-.071l1.964-2.902a.2.2 0 0 0-.053-.278l-.952-.644z"/><path fill="url(#fe-person-mountain-biking-medium-p)" fill-rule="evenodd" d="M12.432 12.189a.5.5 0 0 1 .272.653l-2.54 6.247a.5.5 0 0 1-.924-.382l2.54-6.247a.5.5 0 0 1 .652-.271" clip-rule="evenodd"/><path fill="url(#fe-person-mountain-biking-medium-q)" fill-rule="evenodd" d="M12.432 12.189a.5.5 0 0 1 .272.653l-2.54 6.247a.5.5 0 0 1-.924-.382l2.54-6.247a.5.5 0 0 1 .652-.271" clip-rule="evenodd"/><path fill="url(#fe-person-mountain-biking-medium-r)" fill-rule="evenodd" d="M10.498 16.924a.55.55 0 0 1 .3.718l-3.29 8a.55.55 0 0 1-1.017-.419l3.29-8a.55.55 0 0 1 .717-.3" clip-rule="evenodd"/><path fill="url(#fe-person-mountain-biking-medium-s)" fill-rule="evenodd" d="M9.574 19.151c.102-.222.431-.465.673-.282l6.25 4.75a.55.55 0 0 1-.666.876l-6.08-4.61c-.243-.184-.306-.453-.177-.734" clip-rule="evenodd"/><path fill="url(#fe-person-mountain-biking-medium-t)" fill-rule="evenodd" d="M9.574 19.151c.102-.222.431-.465.673-.282l6.25 4.75a.55.55 0 0 1-.666.876l-6.08-4.61c-.243-.184-.306-.453-.177-.734" clip-rule="evenodd"/><g fill-rule="evenodd" clip-rule="evenodd" filter="url(#fe-person-mountain-biking-medium-u)"><path fill="url(#fe-person-mountain-biking-medium-v)" d="M24.945 21.596a3.969 3.969 0 1 0 0 7.938 3.969 3.969 0 0 0 0-7.938m-4.968 3.97a4.969 4.969 0 1 1 9.937-.001 4.969 4.969 0 0 1-9.937 0"/><path fill="url(#fe-person-mountain-biking-medium-w)" d="M24.945 21.596a3.969 3.969 0 1 0 0 7.938 3.969 3.969 0 0 0 0-7.938m-4.968 3.97a4.969 4.969 0 1 1 9.937-.001 4.969 4.969 0 0 1-9.937 0"/></g><path fill="url(#fe-person-mountain-biking-medium-x)" fill-rule="evenodd" d="M19.683 17.21a.55.55 0 0 0-.172.758l4.72 7.477a.55.55 0 1 0 .93-.587l-4.72-7.477a.55.55 0 0 0-.758-.172" clip-rule="evenodd"/><path fill="url(#fe-person-mountain-biking-medium-y)" fill-rule="evenodd" d="M19.987 17.13a.55.55 0 0 1 .417.656l-1.578 7.078a.55.55 0 0 1-1.074-.239l1.578-7.078a.55.55 0 0 1 .657-.417" clip-rule="evenodd"/><path fill="url(#fe-person-mountain-biking-medium-z)" fill-rule="evenodd" d="M19.987 17.13a.55.55 0 0 1 .417.656l-1.578 7.078a.55.55 0 0 1-1.074-.239l1.578-7.078a.55.55 0 0 1 .657-.417" clip-rule="evenodd"/><path fill="url(#fe-person-mountain-biking-medium-A)" fill-rule="evenodd" d="M19.987 17.13a.55.55 0 0 1 .417.656l-1.578 7.078a.55.55 0 0 1-1.074-.239l1.578-7.078a.55.55 0 0 1 .657-.417" clip-rule="evenodd"/><path fill="url(#fe-person-mountain-biking-medium-B)" d="m13.942 16.034 1.34-.836 1.039 1.039-.766 3.531c-.513-.38-1.568-1.16-1.687-1.242-.149-.102-.661-.543-.653-1.238.008-.711.477-1.072.727-1.254"/><path fill="url(#fe-person-mountain-biking-medium-C)" d="m13.942 16.034 1.34-.836 1.039 1.039-.766 3.531c-.513-.38-1.568-1.16-1.687-1.242-.149-.102-.661-.543-.653-1.238.008-.711.477-1.072.727-1.254"/><path fill="url(#fe-person-mountain-biking-medium-D)" d="m13.942 16.034 1.34-.836 1.039 1.039-.766 3.531c-.513-.38-1.568-1.16-1.687-1.242-.149-.102-.661-.543-.653-1.238.008-.711.477-1.072.727-1.254"/><path fill="url(#fe-person-mountain-biking-medium-E)" d="m13.942 16.034 1.34-.836 1.039 1.039-.766 3.531c-.513-.38-1.568-1.16-1.687-1.242-.149-.102-.661-.543-.653-1.238.008-.711.477-1.072.727-1.254"/><path fill="url(#fe-person-mountain-biking-medium-F)" d="m15.223 15.233 2.64-1.61 1.207.63-2.726 2.476c-.269-.231-.84-1.05-1.121-1.496"/><path fill="url(#fe-person-mountain-biking-medium-G)" d="m15.223 15.233 2.64-1.61 1.207.63-2.726 2.476c-.269-.231-.84-1.05-1.121-1.496"/><g filter="url(#fe-person-mountain-biking-medium-H)"><path fill="url(#fe-person-mountain-biking-medium-I)" d="M18.857 27.389q-.187.04-.384.04a1.863 1.863 0 1 1 .402-3.684l5.898.906a.927.927 0 0 1-.086 1.837z"/><path fill="url(#fe-person-mountain-biking-medium-J)" d="M18.857 27.389q-.187.04-.384.04a1.863 1.863 0 1 1 .402-3.684l5.898.906a.927.927 0 0 1-.086 1.837z"/></g><circle cx="18.316" cy="25.565" r="1.027" fill="url(#fe-person-mountain-biking-medium-K)"/><circle cx="18.316" cy="25.565" r="1.027" fill="url(#fe-person-mountain-biking-medium-L)"/><g filter="url(#fe-person-mountain-biking-medium-M)"><path fill="#5b4e85" d="m16.043 23.814-1.81.862c-.43.211-.756.464-.761.956-.001.123.107.214.23.214h3.504a.2.2 0 0 0 .2-.2v-1.15z"/><path fill="url(#fe-person-mountain-biking-medium-N)" d="m16.043 23.814-1.81.862c-.43.211-.756.464-.761.956-.001.123.107.214.23.214h3.504a.2.2 0 0 0 .2-.2v-1.15z"/><path fill="url(#fe-person-mountain-biking-medium-O)" d="m16.043 23.814-1.81.862c-.43.211-.756.464-.761.956-.001.123.107.214.23.214h3.504a.2.2 0 0 0 .2-.2v-1.15z"/></g><path fill="url(#fe-person-mountain-biking-medium-P)" d="M13.482 8.501h2.154v2.668h-2.154z" transform="rotate(-55.397 13.482 8.501)"/><path fill="url(#fe-person-mountain-biking-medium-Q)" d="M13.482 8.501h2.154v2.668h-2.154z" transform="rotate(-55.397 13.482 8.501)"/><g filter="url(#fe-person-mountain-biking-medium-R)"><path fill="url(#fe-person-mountain-biking-medium-S)" d="m16.024 16.589.553-.515 2.04 1.917c-.273.154-.887.463-1.03.582-.11.09-.11.234-.11.328l-.047 5.594-1.406-.672c-.138-.794-.42-2.708-.77-4.3-.395-1.802.377-2.593.77-2.934"/><path fill="url(#fe-person-mountain-biking-medium-T)" d="m16.024 16.589.553-.515 2.04 1.917c-.273.154-.887.463-1.03.582-.11.09-.11.234-.11.328l-.047 5.594-1.406-.672c-.138-.794-.42-2.708-.77-4.3-.395-1.802.377-2.593.77-2.934"/></g><g filter="url(#fe-person-mountain-biking-medium-U)"><path fill="url(#fe-person-mountain-biking-medium-V)" d="m18.308 14.366-.636-.7 4.031-2.476c1.422 1.867 1.5 3.211.836 4.274-.664 1.062-1.582 2.05-2.617 2.945-.271.234-.803.361-1.36-.18-.707-.687-1.578-1.578-2.039-2.113l1.778-1.609a.1.1 0 0 0 .007-.141"/><path fill="url(#fe-person-mountain-biking-medium-W)" d="m18.308 14.366-.636-.7 4.031-2.476c1.422 1.867 1.5 3.211.836 4.274-.664 1.062-1.582 2.05-2.617 2.945-.271.234-.803.361-1.36-.18-.707-.687-1.578-1.578-2.039-2.113l1.778-1.609a.1.1 0 0 0 .007-.141"/></g><g filter="url(#fe-person-mountain-biking-medium-X)"><path fill="url(#fe-person-mountain-biking-medium-Y)" d="M16.04 11.745c.663.625 1.362 1.586 1.67 1.969l4.243-2.18c-.586-.977-2.07-2.531-3.539-3.36-1.719-.812-2.672 0-3.305 1.07-.414.852.258 1.782.93 2.5"/></g><g filter="url(#fe-person-mountain-biking-medium-Z)"><path fill="#c0b9bc" d="M12.883 12.198a.575.575 0 0 0-.575-.575h-3.05a2.13 2.13 0 0 0 0 4.26h.183a.575.575 0 1 0 0-1.15h-.183a.98.98 0 1 1 0-1.96h3.05a.575.575 0 0 0 .575-.575"/><path fill="url(#fe-person-mountain-biking-medium-aa)" d="M12.883 12.198a.575.575 0 0 0-.575-.575h-3.05a2.13 2.13 0 0 0 0 4.26h.183a.575.575 0 1 0 0-1.15h-.183a.98.98 0 1 1 0-1.96h3.05a.575.575 0 0 0 .575-.575"/></g><g filter="url(#fe-person-mountain-biking-medium-ab)"><path fill="#2b174f" fill-rule="evenodd" d="M8.277 13.811v-.021a.572.572 0 1 0-1.144 0v.021h-.004a2.13 2.13 0 0 0 2.129 2.071h.183a.575.575 0 0 0 0-1.15h-.183a.98.98 0 0 1-.978-.92z" clip-rule="evenodd"/></g><g fill-rule="evenodd" clip-rule="evenodd" filter="url(#fe-person-mountain-biking-medium-ac)"><path fill="#9f7968" d="M17.07 8.862c.478.328.6.981.273 1.46-.782 1.145-3.151 4.303-7.932 4.788-.577.058-1.595-.32-1.653-.896s.864-1.135 1.441-1.194c3.844-.39 5.74-2.903 6.411-3.884a1.05 1.05 0 0 1 1.46-.274"/><path fill="url(#fe-person-mountain-biking-medium-ad)" d="M17.07 8.862c.478.328.6.981.273 1.46-.782 1.145-3.151 4.303-7.932 4.788-.577.058-1.595-.32-1.653-.896s.864-1.135 1.441-1.194c3.844-.39 5.74-2.903 6.411-3.884a1.05 1.05 0 0 1 1.46-.274"/></g><path fill="url(#fe-person-mountain-biking-medium-ae)" fill-rule="evenodd" d="M9.264 13.51a.35.35 0 0 1-.35.35c-.173 0-.435.043-.662.15-.226.107-.37.252-.416.439a.35.35 0 1 1-.68-.166c.114-.466.462-.748.797-.906.334-.158.7-.217.961-.217a.35.35 0 0 1 .35.35" clip-rule="evenodd"/><path fill="url(#fe-person-mountain-biking-medium-af)" fill-rule="evenodd" d="M9.264 13.51a.35.35 0 0 1-.35.35c-.173 0-.435.043-.662.15-.226.107-.37.252-.416.439a.35.35 0 1 1-.68-.166c.114-.466.462-.748.797-.906.334-.158.7-.217.961-.217a.35.35 0 0 1 .35.35" clip-rule="evenodd"/><g filter="url(#fe-person-mountain-biking-medium-ag)"><path fill="url(#fe-person-mountain-biking-medium-ah)" d="m20.934 13.484-.524-.864 1.125-.656c.969 1.313 1.344 2.297.735 2.875-.488.463-2.87 1.724-4 2.297l2.503-2.414a1 1 0 0 0 .16-1.238"/></g><path fill="url(#fe-person-mountain-biking-medium-ai)" fill-rule="evenodd" d="M8.754 14.046a.35.35 0 0 1-.227.44.6.6 0 0 0-.406.457.35.35 0 1 1-.683-.152c.05-.223.235-.768.876-.972a.35.35 0 0 1 .44.226" clip-rule="evenodd"/><path fill="url(#fe-person-mountain-biking-medium-aj)" fill-rule="evenodd" d="M8.754 14.046a.35.35 0 0 1-.227.44.6.6 0 0 0-.406.457.35.35 0 1 1-.683-.152c.05-.223.235-.768.876-.972a.35.35 0 0 1 .44.226" clip-rule="evenodd"/><path fill="url(#fe-person-mountain-biking-medium-ak)" fill-rule="evenodd" d="M8.902 14.105a.33.33 0 0 1 0 .402c-.152.126-.343.389-.373.593a.35.35 0 1 1-.693-.1 1.4 1.4 0 0 1 .155-.43c.08-.147.197-.312.354-.442.149-.124.433-.172.557-.023" clip-rule="evenodd"/><path fill="url(#fe-person-mountain-biking-medium-al)" fill-rule="evenodd" d="M8.902 14.105a.33.33 0 0 1 0 .402c-.152.126-.343.389-.373.593a.35.35 0 1 1-.693-.1 1.4 1.4 0 0 1 .155-.43c.08-.147.197-.312.354-.442.149-.124.433-.172.557-.023" clip-rule="evenodd"/><g filter="url(#fe-person-mountain-biking-medium-am)"><circle cx="9.168" cy="14.012" r=".885" fill="#a7826b"/></g><path fill="url(#fe-person-mountain-biking-medium-an)" d="M10.766 8.978c-.204-.138-.209-.298-.145-.654a.82.82 0 0 0-.067-.537l.822.99c-.107.223-.407.34-.61.201"/><g filter="url(#fe-person-mountain-biking-medium-ao)"><path fill="url(#fe-person-mountain-biking-medium-ap)" d="M11.954 9.73c-.788-.738-1.443-1.929-1.706-2.394l3.45-2.126 1.87 1.668a5.2 5.2 0 0 1-.92 1.921c-.703.896-1.662 1.899-2.694.93"/><path fill="url(#fe-person-mountain-biking-medium-aq)" d="M11.954 9.73c-.788-.738-1.443-1.929-1.706-2.394l3.45-2.126 1.87 1.668a5.2 5.2 0 0 1-.92 1.921c-.703.896-1.662 1.899-2.694.93"/><path fill="url(#fe-person-mountain-biking-medium-ar)" d="M11.954 9.73c-.788-.738-1.443-1.929-1.706-2.394l3.45-2.126 1.87 1.668a5.2 5.2 0 0 1-.92 1.921c-.703.896-1.662 1.899-2.694.93"/><path fill="url(#fe-person-mountain-biking-medium-as)" d="M11.954 9.73c-.788-.738-1.443-1.929-1.706-2.394l3.45-2.126 1.87 1.668a5.2 5.2 0 0 1-.92 1.921c-.703.896-1.662 1.899-2.694.93"/></g><path fill="#87004d" fill-rule="evenodd" d="M11.84 9.2a.117.117 0 0 1 .04-.162c.102-.062.236-.214.308-.531a.118.118 0 0 1 .229.051c-.081.363-.245.578-.415.68a.117.117 0 0 1-.161-.039" clip-rule="evenodd"/><g filter="url(#fe-person-mountain-biking-medium-at)"><path fill="#3c2230" d="m14.541 6.906-1.202-1.211 1.765-.922c.217.363.227 1.055.187 1.31a.51.51 0 0 1 .658.412c.024.195-.146.592-.6.7-.363.088-.69-.156-.808-.29"/><path fill="url(#fe-person-mountain-biking-medium-au)" d="m14.541 6.906-1.202-1.211 1.765-.922c.217.363.227 1.055.187 1.31a.51.51 0 0 1 .658.412c.024.195-.146.592-.6.7-.363.088-.69-.156-.808-.29"/></g><path fill="#fff" d="M10.938 7.3c-.069.229.07.457.143.572l.886-.533c-.532-.59-.936-.351-1.03-.04"/><path fill="#654b4b" d="m11.578 7.573-.03-.049c-.162-.248-.401-.379-.535-.291-.134.087-.111.36.05.607l.02.03z"/><path fill="url(#fe-person-mountain-biking-medium-av)" d="M11.388 7.687a.6.6 0 0 0-.048-.093c-.09-.138-.222-.211-.295-.164s-.058.198.032.336a1 1 0 0 0 .057.073z"/><circle cx="11.054" cy="7.407" r=".085" fill="#dfdfdf" transform="rotate(-64.436 11.054 7.407)"/><circle cx="13.406" cy="6.337" r=".657" fill="url(#fe-person-mountain-biking-medium-aw)" transform="rotate(-64.436 13.406 6.337)"/><circle cx="13.406" cy="6.337" r=".657" fill="url(#fe-person-mountain-biking-medium-ax)" transform="rotate(-64.436 13.406 6.337)"/><path fill="#4d3771" fill-rule="evenodd" d="M12.639 5.625a.294.294 0 0 1 .39.144l1.528 3.327a.294.294 0 1 1-.534.245l-1.529-3.327a.294.294 0 0 1 .145-.39" clip-rule="evenodd"/><path fill="url(#fe-person-mountain-biking-medium-ay)" fill-rule="evenodd" d="M12.639 5.625a.294.294 0 0 1 .39.144l1.528 3.327a.294.294 0 1 1-.534.245l-1.529-3.327a.294.294 0 0 1 .145-.39" clip-rule="evenodd"/><path fill="url(#fe-person-mountain-biking-medium-az)" fill-rule="evenodd" d="M12.639 5.625a.294.294 0 0 1 .39.144l1.528 3.327a.294.294 0 1 1-.534.245l-1.529-3.327a.294.294 0 0 1 .145-.39" clip-rule="evenodd"/><path fill="url(#fe-person-mountain-biking-medium-aA)" fill-rule="evenodd" d="M12.639 5.625a.294.294 0 0 1 .39.144l1.528 3.327a.294.294 0 1 1-.534.245l-1.529-3.327a.294.294 0 0 1 .145-.39" clip-rule="evenodd"/><g filter="url(#fe-person-mountain-biking-medium-aB)"><path fill="url(#fe-person-mountain-biking-medium-aC)" d="m15.007 4.938-4.698 2.48a.26.26 0 0 1-.341-.074 5.6 5.6 0 0 1-.586-1.133c-.556-1.446.447-2.273.578-2.4.19-.185.713-.641 1.846-1.072 1.328-.505 2.182.077 2.602.624.265.344.555.862.724 1.211a.276.276 0 0 1-.125.364"/></g><g filter="url(#fe-person-mountain-biking-medium-aD)"><path fill="url(#fe-person-mountain-biking-medium-aE)" d="M11.217 5.73a.355.355 0 0 1 .156-.477l1.303-.66a.355.355 0 1 1 .32.634l-1.302.66a.355.355 0 0 1-.477-.157"/></g><defs><radialGradient id="fe-person-mountain-biking-medium-f" cx="0" cy="0" r="1" gradientTransform="rotate(150.331 11.73 6.34)scale(3.70975 8.36641)" gradientUnits="userSpaceOnUse"><stop offset=".19" stop-color="#ebeaed"/><stop offset="1" stop-color="#d9d1df" stop-opacity="0"/></radialGradient><radialGradient id="fe-person-mountain-biking-medium-h" cx="0" cy="0" r="1" gradientTransform="rotate(43.39 -24.55 38.514)scale(6.08956 3.40495)" gradientUnits="userSpaceOnUse"><stop stop-color="#8a4c56"/><stop offset="1" stop-color="#8a4c56" stop-opacity="0"/></radialGradient><radialGradient id="fe-person-mountain-biking-medium-j" cx="0" cy="0" r="1" gradientTransform="rotate(126.943 -.283 13.382)scale(9.77501 9.43553)" gradientUnits="userSpaceOnUse"><stop stop-color="#32295b"/><stop offset="1" stop-color="#3c2150"/></radialGradient><radialGradient id="fe-person-mountain-biking-medium-o" cx="0" cy="0" r="1" gradientTransform="rotate(121.973 4.163 16.393)scale(2.89181 .52404)" gradientUnits="userSpaceOnUse"><stop stop-color="#5d5c7e"/><stop offset="1" stop-color="#5d5c7e" stop-opacity="0"/></radialGradient><radialGradient id="fe-person-mountain-biking-medium-q" cx="0" cy="0" r="1" gradientTransform="rotate(-68.025 18.008 .771)scale(2.88119 .32513)" gradientUnits="userSpaceOnUse"><stop stop-color="#baa3b9"/><stop offset="1" stop-color="#baa3b9" stop-opacity="0"/></radialGradient><radialGradient id="fe-person-mountain-biking-medium-s" cx="0" cy="0" r="1" gradientTransform="rotate(35.701 -24.587 25.309)scale(8.2736 2.25511)" gradientUnits="userSpaceOnUse"><stop stop-color="#ce3d5e"/><stop offset="1" stop-color="#932145"/></radialGradient><radialGradient id="fe-person-mountain-biking-medium-v" cx="0" cy="0" r="1" gradientTransform="rotate(134.451 9.874 17.357)scale(9.80603 9.46548)" gradientUnits="userSpaceOnUse"><stop offset=".427" stop-color="#373c67"/><stop offset="1" stop-color="#38144f"/></radialGradient><radialGradient id="fe-person-mountain-biking-medium-z" cx="0" cy="0" r="1" gradientTransform="rotate(103.707 2.97 16.893)scale(4.61583 .44083)" gradientUnits="userSpaceOnUse"><stop stop-color="#e44354"/><stop offset="1" stop-color="#e44354" stop-opacity="0"/></radialGradient><radialGradient id="fe-person-mountain-biking-medium-A" cx="0" cy="0" r="1" gradientTransform="rotate(-91.685 21.031 3.221)scale(1.06296 1.65553)" gradientUnits="userSpaceOnUse"><stop stop-color="#ac2735"/><stop offset="1" stop-color="#ac2735" stop-opacity="0"/></radialGradient><radialGradient id="fe-person-mountain-biking-medium-B" cx="0" cy="0" r="1" gradientTransform="rotate(94.03 .32 15.038)scale(4.00257 5.06631)" gradientUnits="userSpaceOnUse"><stop offset=".321" stop-color="#7f584e"/><stop offset=".868" stop-color="#92576c"/></radialGradient><radialGradient id="fe-person-mountain-biking-medium-C" cx="0" cy="0" r="1" gradientTransform="matrix(1.21875 .45313 -.35 .94138 15.71 17.745)" gradientUnits="userSpaceOnUse"><stop offset=".346" stop-color="#774c50"/><stop offset="1" stop-color="#865959" stop-opacity="0"/></radialGradient><radialGradient id="fe-person-mountain-biking-medium-E" cx="0" cy="0" r="1" gradientTransform="rotate(192.745 8.83 8.028)scale(2.69131 3.58612)" gradientUnits="userSpaceOnUse"><stop offset=".738" stop-color="#a57970" stop-opacity="0"/><stop offset="1" stop-color="#a57970"/></radialGradient><radialGradient id="fe-person-mountain-biking-medium-F" cx="0" cy="0" r="1" gradientTransform="rotate(143.881 6.862 10.22)scale(2.86275 1.23215)" gradientUnits="userSpaceOnUse"><stop offset=".255" stop-color="#4f414e"/><stop offset="1" stop-color="#564a5a"/></radialGradient><radialGradient id="fe-person-mountain-biking-medium-J" cx="0" cy="0" r="1" gradientTransform="matrix(-.86719 0 0 -.96875 25.547 25.401)" gradientUnits="userSpaceOnUse"><stop stop-color="#ffd359"/><stop offset="1" stop-color="#ffd359" stop-opacity="0"/></radialGradient><radialGradient id="fe-person-mountain-biking-medium-K" cx="0" cy="0" r="1" gradientTransform="matrix(1.5625 -.65625 .66797 1.5904 17.648 25.76)" gradientUnits="userSpaceOnUse"><stop offset=".47" stop-color="#d8cfe2"/><stop offset="1" stop-color="#c5bfcb"/></radialGradient><radialGradient id="fe-person-mountain-biking-medium-L" cx="0" cy="0" r="1" gradientTransform="rotate(151.189 6.178 15.067)scale(1.78324)" gradientUnits="userSpaceOnUse"><stop offset=".632" stop-color="#e2dfe5" stop-opacity="0"/><stop offset="1" stop-color="#e2dfe5"/></radialGradient><radialGradient id="fe-person-mountain-biking-medium-O" cx="0" cy="0" r="1" gradientTransform="matrix(-1.1094 -2 6.41983 -3.56106 16.227 26.104)" gradientUnits="userSpaceOnUse"><stop offset=".301" stop-color="#5c4f86" stop-opacity="0"/><stop offset=".943" stop-color="#493b63"/></radialGradient><radialGradient id="fe-person-mountain-biking-medium-Q" cx="0" cy="0" r="1" gradientTransform="rotate(88.737 2.605 12.362)scale(1.42145 .52556)" gradientUnits="userSpaceOnUse"><stop offset=".18" stop-color="#b18873"/><stop offset="1" stop-color="#b18873" stop-opacity="0"/></radialGradient><radialGradient id="fe-person-mountain-biking-medium-S" cx="0" cy="0" r="1" gradientTransform="rotate(-94.882 20.18 4.044)scale(8.81322 2.53802)" gradientUnits="userSpaceOnUse"><stop offset=".122" stop-color="#bc8f7c"/><stop offset="1" stop-color="#9e716c"/></radialGradient><radialGradient id="fe-person-mountain-biking-medium-T" cx="0" cy="0" r="1" gradientTransform="rotate(177.879 9.218 9.28)scale(1.68866 3.01761)" gradientUnits="userSpaceOnUse"><stop offset=".284" stop-color="#8f506d"/><stop offset="1" stop-color="#a36f76" stop-opacity="0"/></radialGradient><radialGradient id="fe-person-mountain-biking-medium-V" cx="0" cy="0" r="1" gradientTransform="matrix(5.125 -4.9297 2.6132 2.71672 16.742 16.12)" gradientUnits="userSpaceOnUse"><stop offset=".148" stop-color="#726b71"/><stop offset="1" stop-color="#a3a1a2"/></radialGradient><radialGradient id="fe-person-mountain-biking-medium-W" cx="0" cy="0" r="1" gradientTransform="rotate(-2.07 407.64 -495.504)scale(2.59544 .49949)" gradientUnits="userSpaceOnUse"><stop offset=".22" stop-color="#736e75"/><stop offset="1" stop-color="#736e75" stop-opacity="0"/></radialGradient><radialGradient id="fe-person-mountain-biking-medium-Y" cx="0" cy="0" r="1" gradientTransform="rotate(229.254 13.298 1.218)scale(5.36227 2.25588)" gradientUnits="userSpaceOnUse"><stop stop-color="#ff8e59"/><stop offset="1" stop-color="#ff6030"/></radialGradient><radialGradient id="fe-person-mountain-biking-medium-aa" cx="0" cy="0" r="1" gradientTransform="matrix(3.25232 0 0 1.29925 10.005 13.526)" gradientUnits="userSpaceOnUse"><stop offset=".254" stop-color="#8c5ea8"/><stop offset="1" stop-color="#8c5ea8" stop-opacity="0"/></radialGradient><radialGradient id="fe-person-mountain-biking-medium-ad" cx="0" cy="0" r="1" gradientTransform="rotate(158.559 7.88 6.328)scale(1.11134 1.23837)" gradientUnits="userSpaceOnUse"><stop stop-color="#bf9984"/><stop offset="1" stop-color="#bf9984" stop-opacity="0"/></radialGradient><radialGradient id="fe-person-mountain-biking-medium-ae" cx="0" cy="0" r="1" gradientTransform="rotate(55.877 -8.296 13.73)scale(1.67785 2.30132)" gradientUnits="userSpaceOnUse"><stop offset=".668" stop-color="#976e65"/><stop offset="1" stop-color="#895864"/></radialGradient><radialGradient id="fe-person-mountain-biking-medium-af" cx="0" cy="0" r="1" gradientTransform="rotate(190.423 4.844 6.851)scale(1.33255 2.06198)" gradientUnits="userSpaceOnUse"><stop offset=".68" stop-color="#9f776f" stop-opacity="0"/><stop offset="1" stop-color="#9f776f"/></radialGradient><radialGradient id="fe-person-mountain-biking-medium-ah" cx="0" cy="0" r="1" gradientTransform="matrix(5.5 -1.4375 2.00475 7.67032 17.305 15.276)" gradientUnits="userSpaceOnUse"><stop offset=".625" stop-color="#afa6a9" stop-opacity="0"/><stop offset=".905" stop-color="#afa6a9"/></radialGradient><radialGradient id="fe-person-mountain-biking-medium-ai" cx="0" cy="0" r="1" gradientTransform="rotate(64.801 -6.818 12.976)scale(1.30062 1.60976)" gradientUnits="userSpaceOnUse"><stop offset=".668" stop-color="#976e65"/><stop offset="1" stop-color="#895864"/></radialGradient><radialGradient id="fe-person-mountain-biking-medium-aj" cx="0" cy="0" r="1" gradientTransform="rotate(192.026 4.882 7.05)scale(.83427 1.78585)" gradientUnits="userSpaceOnUse"><stop offset=".68" stop-color="#9f776f" stop-opacity="0"/><stop offset="1" stop-color="#9f776f"/></radialGradient><radialGradient id="fe-person-mountain-biking-medium-ak" cx="0" cy="0" r="1" gradientTransform="rotate(30.518 -22.462 21.222)scale(1.17925 1.62361)" gradientUnits="userSpaceOnUse"><stop offset=".686" stop-color="#976e65"/><stop offset="1" stop-color="#94597b"/></radialGradient><radialGradient id="fe-person-mountain-biking-medium-al" cx="0" cy="0" r="1" gradientTransform="rotate(185.947 4.656 7.338)scale(.75406 1.6728)" gradientUnits="userSpaceOnUse"><stop offset=".68" stop-color="#9f776f" stop-opacity="0"/><stop offset="1" stop-color="#9f776f"/></radialGradient><radialGradient id="fe-person-mountain-biking-medium-an" cx="0" cy="0" r="1" gradientTransform="rotate(34.535 -7.941 21.4)scale(.80762 .63375)" gradientUnits="userSpaceOnUse"><stop offset=".391" stop-color="#967866"/><stop offset="1" stop-color="#996f64"/></radialGradient><radialGradient id="fe-person-mountain-biking-medium-ap" cx="0" cy="0" r="1" gradientTransform="rotate(-20.33 29.15 -27.822)scale(3.32486 3.44842)" gradientUnits="userSpaceOnUse"><stop offset=".164" stop-color="#967465"/><stop offset="1" stop-color="#9e7071"/></radialGradient><radialGradient id="fe-person-mountain-biking-medium-aq" cx="0" cy="0" r="1" gradientTransform="rotate(54.832 1.083 15.334)scale(1.9158 1.54591)" gradientUnits="userSpaceOnUse"><stop stop-color="#734c58"/><stop offset="1" stop-color="#734c58" stop-opacity="0"/></radialGradient><radialGradient id="fe-person-mountain-biking-medium-ar" cx="0" cy="0" r="1" gradientTransform="rotate(81.014 2.133 11.12)scale(3.08474 4.1807)" gradientUnits="userSpaceOnUse"><stop offset=".506" stop-color="#926367" stop-opacity="0"/><stop offset=".925" stop-color="#89526c"/></radialGradient><radialGradient id="fe-person-mountain-biking-medium-as" cx="0" cy="0" r="1" gradientTransform="matrix(.125 2.8125 -1.65853 .07371 14.655 6.307)" gradientUnits="userSpaceOnUse"><stop stop-color="#b18c7e"/><stop offset="1" stop-color="#b18c7e" stop-opacity="0"/></radialGradient><radialGradient id="fe-person-mountain-biking-medium-au" cx="0" cy="0" r="1" gradientTransform="rotate(155.246 6.906 4.826)scale(1.15047 .36548)" gradientUnits="userSpaceOnUse"><stop offset=".197" stop-color="#473b3b"/><stop offset="1" stop-color="#473b3b" stop-opacity="0"/></radialGradient><radialGradient id="fe-person-mountain-biking-medium-aw" cx="0" cy="0" r="1" gradientTransform="rotate(83.69 3.268 10.56)scale(.96081)" gradientUnits="userSpaceOnUse"><stop offset=".392" stop-color="#967371"/><stop offset="1" stop-color="#915666"/></radialGradient><radialGradient id="fe-person-mountain-biking-medium-ax" cx="0" cy="0" r="1" gradientTransform="rotate(211.779 7.962 1.346)scale(.75163)" gradientUnits="userSpaceOnUse"><stop stop-color="#b89987"/><stop offset="1" stop-color="#b89987" stop-opacity="0"/></radialGradient><radialGradient id="fe-person-mountain-biking-medium-aA" cx="0" cy="0" r="1" gradientTransform="matrix(.18946 -.0875 .51293 1.1105 13.35 6.957)" gradientUnits="userSpaceOnUse"><stop stop-color="#564975"/><stop offset="1" stop-color="#4d3a6e" stop-opacity="0"/></radialGradient><radialGradient id="fe-person-mountain-biking-medium-aC" cx="0" cy="0" r="1" gradientTransform="rotate(65.257 2.966 11.135)scale(2.3867 2.80523)" gradientUnits="userSpaceOnUse"><stop offset=".045" stop-color="#4fbdff"/><stop offset=".919" stop-color="#52abe4"/></radialGradient><radialGradient id="fe-person-mountain-biking-medium-aE" cx="0" cy="0" r="1" gradientTransform="rotate(244.584 7.92 -1.125)scale(.6855 1.75791)" gradientUnits="userSpaceOnUse"><stop offset=".218" stop-color="#4b89d0"/><stop offset="1" stop-color="#337bcd"/></radialGradient><linearGradient id="fe-person-mountain-biking-medium-b" x1="9.65" x2="27.955" y1="21.637" y2="9.447" gradientUnits="userSpaceOnUse"><stop stop-color="#37c173"/><stop offset="1" stop-color="#36c571"/></linearGradient><linearGradient id="fe-person-mountain-biking-medium-c" x1="29.363" x2="25.903" y1="12.625" y2="15.039" gradientUnits="userSpaceOnUse"><stop offset=".164" stop-color="#4cdd80"/><stop offset="1" stop-color="#36c871" stop-opacity="0"/></linearGradient><linearGradient id="fe-person-mountain-biking-medium-e" x1="21.156" x2="24.898" y1="7.637" y2="5.545" gradientUnits="userSpaceOnUse"><stop stop-color="#d7cfdf"/><stop offset="1" stop-color="#e2dce7"/></linearGradient><linearGradient id="fe-person-mountain-biking-medium-l" x1="9.211" x2="3.18" y1="21.901" y2="28.932" gradientUnits="userSpaceOnUse"><stop stop-color="#302a5b"/><stop offset="1" stop-color="#302a5b" stop-opacity="0"/></linearGradient><linearGradient id="fe-person-mountain-biking-medium-m" x1="17.68" x2="18.648" y1="21.104" y2="20.098" gradientUnits="userSpaceOnUse"><stop offset=".573" stop-color="#8f5266"/><stop offset="1" stop-color="#9e7569"/></linearGradient><linearGradient id="fe-person-mountain-biking-medium-n" x1="22.195" x2="17.602" y1="22.672" y2="22.213" gradientUnits="userSpaceOnUse"><stop offset=".891" stop-color="#615f76" stop-opacity="0"/><stop offset="1" stop-color="#615f76"/></linearGradient><linearGradient id="fe-person-mountain-biking-medium-p" x1="11.477" x2="10.602" y1="15.495" y2="15.214" gradientUnits="userSpaceOnUse"><stop stop-color="#bfa8c7"/><stop offset="1" stop-color="#908590"/></linearGradient><linearGradient id="fe-person-mountain-biking-medium-r" x1="9.711" x2="8.43" y1="20.448" y2="19.964" gradientUnits="userSpaceOnUse"><stop offset=".146" stop-color="#d4385b"/><stop offset="1" stop-color="#973c50"/></linearGradient><linearGradient id="fe-person-mountain-biking-medium-t" x1="12.93" x2="13.32" y1="22.495" y2="21.995" gradientUnits="userSpaceOnUse"><stop stop-color="#96275e"/><stop offset="1" stop-color="#96275e" stop-opacity="0"/><stop offset="1" stop-color="#9c2649" stop-opacity="0"/></linearGradient><linearGradient id="fe-person-mountain-biking-medium-w" x1="19.977" x2="27.731" y1="28.006" y2="25.565" gradientUnits="userSpaceOnUse"><stop stop-color="#352542"/><stop offset="1" stop-color="#352542" stop-opacity="0"/></linearGradient><linearGradient id="fe-person-mountain-biking-medium-x" x1="23.758" x2="22.695" y1="22.432" y2="23.182" gradientUnits="userSpaceOnUse"><stop stop-color="#fd5a60"/><stop offset="1" stop-color="#af253c"/></linearGradient><linearGradient id="fe-person-mountain-biking-medium-y" x1="19.555" x2="18.539" y1="21.206" y2="21.057" gradientUnits="userSpaceOnUse"><stop stop-color="#e5435f"/><stop offset="1" stop-color="#a62f2f"/></linearGradient><linearGradient id="fe-person-mountain-biking-medium-D" x1="14.492" x2="14.914" y1="15.463" y2="16.151" gradientUnits="userSpaceOnUse"><stop stop-color="#8c6756"/><stop offset="1" stop-color="#6c4d43" stop-opacity="0"/><stop offset="1" stop-color="#8c6756" stop-opacity="0"/></linearGradient><linearGradient id="fe-person-mountain-biking-medium-G" x1="16.563" x2="16.93" y1="14.331" y2="14.862" gradientUnits="userSpaceOnUse"><stop stop-color="#72696b"/><stop offset="1" stop-color="#72696b" stop-opacity="0"/></linearGradient><linearGradient id="fe-person-mountain-biking-medium-I" x1="25.273" x2="16.609" y1="25.565" y2="25.565" gradientUnits="userSpaceOnUse"><stop stop-color="#f7b14e"/><stop offset="1" stop-color="#e8774d"/></linearGradient><linearGradient id="fe-person-mountain-biking-medium-N" x1="17.407" x2="16.648" y1="25.432" y2="25.432" gradientUnits="userSpaceOnUse"><stop stop-color="#605c92"/><stop offset="1" stop-color="#605c92" stop-opacity="0"/></linearGradient><linearGradient id="fe-person-mountain-biking-medium-P" x1="15.492" x2="13.888" y1="9.964" y2="9.894" gradientUnits="userSpaceOnUse"><stop stop-color="#b39074"/><stop offset="1" stop-color="#804d5c"/></linearGradient><linearGradient id="fe-person-mountain-biking-medium-av" x1="11.071" x2="11.311" y1="7.762" y2="7.619" gradientUnits="userSpaceOnUse"><stop offset=".242" stop-color="#5f5451"/><stop offset=".667" stop-color="#383838"/></linearGradient><linearGradient id="fe-person-mountain-biking-medium-ay" x1="13.722" x2="13.3" y1="7.145" y2="7.361" gradientUnits="userSpaceOnUse"><stop stop-color="#37234c"/><stop offset="1" stop-color="#37234c" stop-opacity="0"/></linearGradient><linearGradient id="fe-person-mountain-biking-medium-az" x1="13.571" x2="14.099" y1="8.966" y2="8.649" gradientUnits="userSpaceOnUse"><stop offset=".324" stop-color="#72687c"/><stop offset="1" stop-color="#72687c" stop-opacity="0"/></linearGradient><filter id="fe-person-mountain-biking-medium-a" width="28.938" height="27.87" x="2.031" y="3.693" color-interpolation-filters="sRGB" filterUnits="userSpaceOnUse"><feFlood flood-opacity="0" result="BackgroundImageFix"/><feBlend in="SourceGraphic" in2="BackgroundImageFix" result="shape"/><feColorMatrix in="SourceAlpha" result="hardAlpha" values="0 0 0 0 0 0 0 0 0 0 0 0 0 0 0 0 0 0 127 0"/><feOffset dx="1" dy="1"/><feGaussianBlur stdDeviation="1"/><feComposite in2="hardAlpha" k2="-1" k3="1" operator="arithmetic"/><feColorMatrix values="0 0 0 0 0.219608 0 0 0 0 0.658824 0 0 0 0 0.352941 0 0 0 1 0"/><feBlend in2="shape" result="effect1_innerShadow_3987_23487"/></filter><filter id="fe-person-mountain-biking-medium-d" width="8.378" height="5.198" x="17.771" y="3.693" color-interpolation-filters="sRGB" filterUnits="userSpaceOnUse"><feFlood flood-opacity="0" result="BackgroundImageFix"/><feBlend in="SourceGraphic" in2="BackgroundImageFix" result="shape"/><feColorMatrix in="SourceAlpha" result="hardAlpha" values="0 0 0 0 0 0 0 0 0 0 0 0 0 0 0 0 0 0 127 0"/><feOffset dx=".25" dy=".5"/><feGaussianBlur stdDeviation=".375"/><feComposite in2="hardAlpha" k2="-1" k3="1" operator="arithmetic"/><feColorMatrix values="0 0 0 0 0.705882 0 0 0 0 0.705882 0 0 0 0 0.709804 0 0 0 1 0"/><feBlend in2="shape" result="effect1_innerShadow_3987_23487"/></filter><filter id="fe-person-mountain-biking-medium-g" width="27.922" height="3.388" x="2.047" y="27.39" color-interpolation-filters="sRGB" filterUnits="userSpaceOnUse"><feFlood flood-opacity="0" result="BackgroundImageFix"/><feBlend in="SourceGraphic" in2="BackgroundImageFix" result="shape"/><feColorMatrix in="SourceAlpha" result="hardAlpha" values="0 0 0 0 0 0 0 0 0 0 0 0 0 0 0 0 0 0 127 0"/><feOffset dy=".2"/><feGaussianBlur stdDeviation=".5"/><feComposite in2="hardAlpha" k2="-1" k3="1" operator="arithmetic"/><feColorMatrix values="0 0 0 0 0.47451 0 0 0 0 0.258824 0 0 0 0 0.25098 0 0 0 1 0"/><feBlend in2="shape" result="effect1_innerShadow_3987_23487"/></filter><filter id="fe-person-mountain-biking-medium-i" width="9.938" height="9.938" x="2.031" y="20.596" color-interpolation-filters="sRGB" filterUnits="userSpaceOnUse"><feFlood flood-opacity="0" result="BackgroundImageFix"/><feBlend in="SourceGraphic" in2="BackgroundImageFix" result="shape"/><feColorMatrix in="SourceAlpha" result="hardAlpha" values="0 0 0 0 0 0 0 0 0 0 0 0 0 0 0 0 0 0 127 0"/><feOffset/><feGaussianBlur stdDeviation=".25"/><feComposite in2="hardAlpha" k2="-1" k3="1" operator="arithmetic"/><feColorMatrix values="0 0 0 0 0.227451 0 0 0 0 0.156863 0 0 0 0 0.27451 0 0 0 1 0"/><feBlend in2="shape" result="effect1_innerShadow_3987_23487"/></filter><filter id="fe-person-mountain-biking-medium-k" width="10.409" height="10.409" x="1.795" y="20.36" color-interpolation-filters="sRGB" filterUnits="userSpaceOnUse"><feFlood flood-opacity="0" result="BackgroundImageFix"/><feBlend in="SourceGraphic" in2="BackgroundImageFix" result="shape"/><feGaussianBlur result="effect1_foregroundBlur_3987_23487" stdDeviation=".25"/></filter><filter id="fe-person-mountain-biking-medium-u" width="10.037" height="10.037" x="19.977" y="20.496" color-interpolation-filters="sRGB" filterUnits="userSpaceOnUse"><feFlood flood-opacity="0" result="BackgroundImageFix"/><feBlend in="SourceGraphic" in2="BackgroundImageFix" result="shape"/><feColorMatrix in="SourceAlpha" result="hardAlpha" values="0 0 0 0 0 0 0 0 0 0 0 0 0 0 0 0 0 0 127 0"/><feOffset dx=".1" dy="-.1"/><feGaussianBlur stdDeviation=".2"/><feComposite in2="hardAlpha" k2="-1" k3="1" operator="arithmetic"/><feColorMatrix values="0 0 0 0 0.152941 0 0 0 0 0.0862745 0 0 0 0 0.164706 0 0 0 1 0"/><feBlend in2="shape" result="effect1_innerShadow_3987_23487"/></filter><filter id="fe-person-mountain-biking-medium-H" width="9.188" height="4.077" x="16.609" y="23.452" color-interpolation-filters="sRGB" filterUnits="userSpaceOnUse"><feFlood flood-opacity="0" result="BackgroundImageFix"/><feBlend in="SourceGraphic" in2="BackgroundImageFix" result="shape"/><feColorMatrix in="SourceAlpha" result="hardAlpha" values="0 0 0 0 0 0 0 0 0 0 0 0 0 0 0 0 0 0 127 0"/><feOffset dx=".25" dy="-.25"/><feGaussianBlur stdDeviation=".25"/><feComposite in2="hardAlpha" k2="-1" k3="1" operator="arithmetic"/><feColorMatrix values="0 0 0 0 0.701961 0 0 0 0 0.341176 0 0 0 0 0.254902 0 0 0 1 0"/><feBlend in2="shape" result="effect1_innerShadow_3987_23487"/><feColorMatrix in="SourceAlpha" result="hardAlpha" values="0 0 0 0 0 0 0 0 0 0 0 0 0 0 0 0 0 0 127 0"/><feOffset dx=".25" dy=".1"/><feGaussianBlur stdDeviation=".25"/><feComposite in2="hardAlpha" k2="-1" k3="1" operator="arithmetic"/><feColorMatrix values="0 0 0 0 0.894118 0 0 0 0 0.490196 0 0 0 0 0.196078 0 0 0 1 0"/><feBlend in2="effect1_innerShadow_3987_23487" result="effect2_innerShadow_3987_23487"/></filter><filter id="fe-person-mountain-biking-medium-M" width="4.034" height="2.181" x="13.472" y="23.664" color-interpolation-filters="sRGB" filterUnits="userSpaceOnUse"><feFlood flood-opacity="0" result="BackgroundImageFix"/><feBlend in="SourceGraphic" in2="BackgroundImageFix" result="shape"/><feColorMatrix in="SourceAlpha" result="hardAlpha" values="0 0 0 0 0 0 0 0 0 0 0 0 0 0 0 0 0 0 127 0"/><feOffset dx=".1" dy="-.15"/><feGaussianBlur stdDeviation=".125"/><feComposite in2="hardAlpha" k2="-1" k3="1" operator="arithmetic"/><feColorMatrix values="0 0 0 0 0.27451 0 0 0 0 0.188235 0 0 0 0 0.52549 0 0 0 1 0"/><feBlend in2="shape" result="effect1_innerShadow_3987_23487"/></filter><filter id="fe-person-mountain-biking-medium-R" width="3.572" height="8.62" x="15.145" y="16.074" color-interpolation-filters="sRGB" filterUnits="userSpaceOnUse"><feFlood flood-opacity="0" result="BackgroundImageFix"/><feBlend in="SourceGraphic" in2="BackgroundImageFix" result="shape"/><feColorMatrix in="SourceAlpha" result="hardAlpha" values="0 0 0 0 0 0 0 0 0 0 0 0 0 0 0 0 0 0 127 0"/><feOffset dx=".1" dy=".2"/><feGaussianBlur stdDeviation=".1"/><feComposite in2="hardAlpha" k2="-1" k3="1" operator="arithmetic"/><feColorMatrix values="0 0 0 0 0.647059 0 0 0 0 0.47451 0 0 0 0 0.423529 0 0 0 1 0"/><feBlend in2="shape" result="effect1_innerShadow_3987_23487"/></filter><filter id="fe-person-mountain-biking-medium-U" width="6.668" height="7.67" x="16.523" y="10.94" color-interpolation-filters="sRGB" filterUnits="userSpaceOnUse"><feFlood flood-opacity="0" result="BackgroundImageFix"/><feBlend in="SourceGraphic" in2="BackgroundImageFix" result="shape"/><feColorMatrix in="SourceAlpha" result="hardAlpha" values="0 0 0 0 0 0 0 0 0 0 0 0 0 0 0 0 0 0 127 0"/><feOffset dx=".25" dy="-.25"/><feGaussianBlur stdDeviation=".625"/><feComposite in2="hardAlpha" k2="-1" k3="1" operator="arithmetic"/><feColorMatrix values="0 0 0 0 0.482353 0 0 0 0 0.360784 0 0 0 0 0.556863 0 0 0 1 0"/><feBlend in2="shape" result="effect1_innerShadow_3987_23487"/></filter><filter id="fe-person-mountain-biking-medium-X" width="7.971" height="5.869" x="14.982" y="7.844" color-interpolation-filters="sRGB" filterUnits="userSpaceOnUse"><feFlood flood-opacity="0" result="BackgroundImageFix"/><feBlend in="SourceGraphic" in2="BackgroundImageFix" result="shape"/><feColorMatrix in="SourceAlpha" result="hardAlpha" values="0 0 0 0 0 0 0 0 0 0 0 0 0 0 0 0 0 0 127 0"/><feOffset dx="1"/><feGaussianBlur stdDeviation=".75"/><feComposite in2="hardAlpha" k2="-1" k3="1" operator="arithmetic"/><feColorMatrix values="0 0 0 0 0.85098 0 0 0 0 0.286275 0 0 0 0 0.317647 0 0 0 1 0"/><feBlend in2="shape" result="effect1_innerShadow_3987_23487"/></filter><filter id="fe-person-mountain-biking-medium-Z" width="6.005" height="4.259" x="6.878" y="11.623" color-interpolation-filters="sRGB" filterUnits="userSpaceOnUse"><feFlood flood-opacity="0" result="BackgroundImageFix"/><feBlend in="SourceGraphic" in2="BackgroundImageFix" result="shape"/><feColorMatrix in="SourceAlpha" result="hardAlpha" values="0 0 0 0 0 0 0 0 0 0 0 0 0 0 0 0 0 0 127 0"/><feOffset dx="-.25"/><feGaussianBlur stdDeviation=".5"/><feComposite in2="hardAlpha" k2="-1" k3="1" operator="arithmetic"/><feColorMatrix values="0 0 0 0 0.576471 0 0 0 0 0.505882 0 0 0 0 0.529412 0 0 0 1 0"/><feBlend in2="shape" result="effect1_innerShadow_3987_23487"/></filter><filter id="fe-person-mountain-biking-medium-ab" width="3.137" height="2.915" x="6.879" y="13.217" color-interpolation-filters="sRGB" filterUnits="userSpaceOnUse"><feFlood flood-opacity="0" result="BackgroundImageFix"/><feBlend in="SourceGraphic" in2="BackgroundImageFix" result="shape"/><feColorMatrix in="SourceAlpha" result="hardAlpha" values="0 0 0 0 0 0 0 0 0 0 0 0 0 0 0 0 0 0 127 0"/><feOffset dx="-.25" dy=".25"/><feGaussianBlur stdDeviation=".25"/><feComposite in2="hardAlpha" k2="-1" k3="1" operator="arithmetic"/><feColorMatrix values="0 0 0 0 0.164706 0 0 0 0 0.117647 0 0 0 0 0.231373 0 0 0 1 0"/><feBlend in2="shape" result="effect1_innerShadow_3987_23487"/></filter><filter id="fe-person-mountain-biking-medium-ac" width="10.272" height="6.937" x="7.755" y="8.179" color-interpolation-filters="sRGB" filterUnits="userSpaceOnUse"><feFlood flood-opacity="0" result="BackgroundImageFix"/><feBlend in="SourceGraphic" in2="BackgroundImageFix" result="shape"/><feColorMatrix in="SourceAlpha" result="hardAlpha" values="0 0 0 0 0 0 0 0 0 0 0 0 0 0 0 0 0 0 127 0"/><feOffset dx=".5" dy="-.5"/><feGaussianBlur stdDeviation=".375"/><feComposite in2="hardAlpha" k2="-1" k3="1" operator="arithmetic"/><feColorMatrix values="0 0 0 0 0.592157 0 0 0 0 0.333333 0 0 0 0 0.478431 0 0 0 1 0"/><feBlend in2="shape" result="effect1_innerShadow_3987_23487"/></filter><filter id="fe-person-mountain-biking-medium-ag" width="5.496" height="6.372" x="17.669" y="11.364" color-interpolation-filters="sRGB" filterUnits="userSpaceOnUse"><feFlood flood-opacity="0" result="BackgroundImageFix"/><feBlend in="SourceGraphic" in2="BackgroundImageFix" result="shape"/><feGaussianBlur result="effect1_foregroundBlur_3987_23487" stdDeviation=".3"/></filter><filter id="fe-person-mountain-biking-medium-am" width="2.969" height="2.969" x="7.683" y="12.528" color-interpolation-filters="sRGB" filterUnits="userSpaceOnUse"><feFlood flood-opacity="0" result="BackgroundImageFix"/><feBlend in="SourceGraphic" in2="BackgroundImageFix" result="shape"/><feGaussianBlur result="effect1_foregroundBlur_3987_23487" stdDeviation=".3"/></filter><filter id="fe-person-mountain-biking-medium-ao" width="5.569" height="5.065" x="10.248" y="5.21" color-interpolation-filters="sRGB" filterUnits="userSpaceOnUse"><feFlood flood-opacity="0" result="BackgroundImageFix"/><feBlend in="SourceGraphic" in2="BackgroundImageFix" result="shape"/><feColorMatrix in="SourceAlpha" result="hardAlpha" values="0 0 0 0 0 0 0 0 0 0 0 0 0 0 0 0 0 0 127 0"/><feOffset dx=".25" dy=".15"/><feGaussianBlur stdDeviation=".15"/><feComposite in2="hardAlpha" k2="-1" k3="1" operator="arithmetic"/><feColorMatrix values="0 0 0 0 0.627451 0 0 0 0 0.486275 0 0 0 0 0.411765 0 0 0 1 0"/><feBlend in2="shape" result="effect1_innerShadow_3987_23487"/></filter><filter id="fe-person-mountain-biking-medium-at" width="2.762" height="2.541" x="13.339" y="4.673" color-interpolation-filters="sRGB" filterUnits="userSpaceOnUse"><feFlood flood-opacity="0" result="BackgroundImageFix"/><feBlend in="SourceGraphic" in2="BackgroundImageFix" result="shape"/><feColorMatrix in="SourceAlpha" result="hardAlpha" values="0 0 0 0 0 0 0 0 0 0 0 0 0 0 0 0 0 0 127 0"/><feOffset dx=".15" dy="-.1"/><feGaussianBlur stdDeviation=".15"/><feComposite in2="hardAlpha" k2="-1" k3="1" operator="arithmetic"/><feColorMatrix values="0 0 0 0 0.156863 0 0 0 0 0.0745098 0 0 0 0 0.0901961 0 0 0 1 0"/><feBlend in2="shape" result="effect1_innerShadow_3987_23487"/></filter><filter id="fe-person-mountain-biking-medium-aB" width="5.944" height="5.056" x="9.215" y="2.396" color-interpolation-filters="sRGB" filterUnits="userSpaceOnUse"><feFlood flood-opacity="0" result="BackgroundImageFix"/><feBlend in="SourceGraphic" in2="BackgroundImageFix" result="shape"/><feColorMatrix in="SourceAlpha" result="hardAlpha" values="0 0 0 0 0 0 0 0 0 0 0 0 0 0 0 0 0 0 127 0"/><feOffset dy="-.15"/><feGaussianBlur stdDeviation=".3"/><feComposite in2="hardAlpha" k2="-1" k3="1" operator="arithmetic"/><feColorMatrix values="0 0 0 0 0.305882 0 0 0 0 0.556863 0 0 0 0 0.882353 0 0 0 1 0"/><feBlend in2="shape" result="effect1_innerShadow_3987_23487"/></filter><filter id="fe-person-mountain-biking-medium-aD" width="2.012" height="1.369" x="11.179" y="4.556" color-interpolation-filters="sRGB" filterUnits="userSpaceOnUse"><feFlood flood-opacity="0" result="BackgroundImageFix"/><feBlend in="SourceGraphic" in2="BackgroundImageFix" result="shape"/><feColorMatrix in="SourceAlpha" result="hardAlpha" values="0 0 0 0 0 0 0 0 0 0 0 0 0 0 0 0 0 0 127 0"/><feOffset/><feGaussianBlur stdDeviation=".25"/><feComposite in2="hardAlpha" k2="-1" k3="1" operator="arithmetic"/><feColorMatrix values="0 0 0 0 0.137255 0 0 0 0 0.482353 0 0 0 0 0.796078 0 0 0 1 0"/><feBlend in2="shape" result="effect1_innerShadow_3987_23487"/></filter></defs></svg>