<?xml version="1.0" standalone="no"?>
<!DOCTYPE svg PUBLIC "-//W3C//DTD SVG 1.1//EN" "http://www.w3.org/Graphics/SVG/1.1/DTD/svg11.dtd" >
<svg xmlns="http://www.w3.org/2000/svg">
<defs>
  <font id="fluentui-emoji-high-contrast" horiz-adv-x="32">
    <font-face font-family="fluentui-emoji-high-contrast"
      units-per-em="33" ascent="33"
      descent="0" />
    <missing-glyph horiz-adv-x="0" />
    <glyph glyph-name="1st-place-medal"
      unicode="&#xEA01;"
      horiz-adv-x="32" d="M10.6 17.82A7.477 7.477 0 0 0 15.99 20.11C17.95 20.11 19.9 19.35 21.38 17.82C24.35 14.77 24.35 9.81 21.38 6.76A7.459 7.459 0 0 0 15.99 4.47C13.96 4.47 12.04 5.28 10.6 6.76A7.872 7.872 0 0 0 8.37 12.29C8.37 14.38 9.16 16.34 10.6 17.82zM15.076 16.959A1 1 0 0 1 15 14.962V9A1 1 0 1 1 17 9V15.959A1 1 0 0 1 16 16.959H15.076zM13.548 29.07L15.998 25.043L18.448 29.07C18.788 29.65 19.398 30 20.068 30H26.658C28.108 30 29.018 28.44 28.318 27.18A16.614 16.614 0 0 0 22.888 21.4A4.427 4.427 0 0 0 21.705 20.751C24.319 18.893 26.03 15.797 26.03 12.29C26.03 6.607 21.535 2 15.99 2C10.445 2 5.95 6.607 5.95 12.29C5.95 15.8 7.665 18.9 10.282 20.756A4.315 4.315 0 0 0 9.118 21.4A16.7 16.7 0 0 0 3.688 27.18C2.978 28.44 3.888 30 5.338 30H11.928C12.598 30 13.208 29.65 13.548 29.07zM15.667 22.575A9.8 9.8 0 0 0 20.474 21.5A3.38 3.38 0 0 1 22.28 22.194L22.31 22.218L22.344 22.238A15.615 15.615 0 0 1 27.445 27.668A0.9 0.9 0 0 1 26.658 29H20.068A0.868 0.868 0 0 1 19.31 28.564L19.306 28.557L15.666 22.575zM9.76 5.89A8.638 8.638 0 0 1 16 3.24C18.35 3.24 20.57 4.18 22.25 5.89C25.69 9.42 25.69 15.16 22.25 18.69A8.69 8.69 0 0 1 9.76 18.69A9.098 9.098 0 0 1 7.17 12.29C7.17 9.87 8.09 7.6 9.76 5.89z" />
    <glyph glyph-name="2nd-place-medal"
      unicode="&#xEA02;"
      horiz-adv-x="32" d="M10.6 17.82A7.477 7.477 0 0 0 15.99 20.11C17.95 20.11 19.9 19.35 21.38 17.82C24.35 14.77 24.35 9.81 21.38 6.76A7.459 7.459 0 0 0 15.99 4.47C13.96 4.47 12.04 5.28 10.6 6.76A7.872 7.872 0 0 0 8.37 12.29C8.37 14.38 9.16 16.34 10.6 17.82zM13.868 8.05H17.838C18.398 8.05 18.838 8.51 18.838 9.07S18.388 10.08 17.828 10.08H15.988L17.938 12.48C18.598 13.29 18.738 14.38 18.308 15.34A2.69 2.69 0 0 1 15.978 16.93H15.848C14.878 16.93 13.968 16.46 13.408 15.67C13.088 15.21 13.188 14.58 13.648 14.26C14.108 13.94 14.738 14.05 15.058 14.5C15.248 14.76 15.538 14.91 15.858 14.91H15.908C16.278 14.9 16.438 14.63 16.488 14.51C16.528 14.41 16.648 14.07 16.388 13.75L13.088 9.7C12.838 9.4 12.788 8.98 12.958 8.63A1 1 0 0 1 13.868 8.05zM15.998 25.043L13.548 29.07C13.208 29.65 12.598 30 11.928 30H5.338C3.888 30 2.978 28.44 3.688 27.18A16.7 16.7 0 0 1 9.118 21.4C9.472 21.125 9.865 20.909 10.282 20.756C7.665 18.9 5.95 15.8 5.95 12.29C5.95 6.607 10.445 2 15.99 2C21.535 2 26.03 6.607 26.03 12.29C26.03 15.797 24.319 18.893 21.705 20.751C22.127 20.904 22.525 21.122 22.888 21.4C25.138 22.86 26.998 24.84 28.318 27.18C29.018 28.44 28.108 30 26.658 30H20.068C19.398 30 18.788 29.65 18.448 29.07L15.998 25.043zM15.99 22.58C15.882 22.58 15.774 22.578 15.667 22.575L19.307 28.557L19.311 28.564A0.868 0.868 0 0 0 20.068 29H26.658A0.9 0.9 0 0 0 27.445 27.668A15.615 15.615 0 0 0 22.343 22.238L22.311 22.218L22.28 22.194A3.38 3.38 0 0 0 20.473 21.5A9.8 9.8 0 0 1 15.99 22.58zM9.76 5.89A9.098 9.098 0 0 0 7.17 12.29C7.17 14.71 8.09 16.98 9.76 18.69A8.69 8.69 0 0 0 22.25 18.69C25.69 15.16 25.69 9.42 22.25 5.89C20.57 4.18 18.35 3.24 16 3.24C13.64 3.24 11.42 4.18 9.76 5.89z" />
    <glyph glyph-name="3rd-place-medal"
      unicode="&#xEA03;"
      horiz-adv-x="32" d="M10.6 17.82A7.872 7.872 0 0 1 8.37 12.29C8.37 10.2 9.16 8.24 10.6 6.76A7.476 7.476 0 0 1 15.99 4.47C18.03 4.47 19.94 5.28 21.38 6.76C24.35 9.81 24.35 14.77 21.38 17.82A7.46 7.46 0 0 1 15.99 20.11C14.04 20.11 12.08 19.35 10.6 17.82zM18.45 15.536L17.402 13.726A3.071 3.071 0 0 0 18.978 11.051A3.053 3.053 0 0 0 15.928 8A3.06 3.06 0 0 0 13.06 10.024A0.966 0.966 0 0 0 13.65 11.264A0.975 0.975 0 0 0 14.89 10.674C15.043 10.237 15.46 9.942 15.928 9.942C16.538 9.942 17.036 10.441 17.036 11.051S16.538 12.159 15.928 12.159A0.977 0.977 0 0 0 14.951 13.136A0.96 0.96 0 0 0 15.165 13.736L15.917 15.047H14.514A0.977 0.977 0 0 0 14.514 17H17.605A0.97 0.97 0 0 0 18.45 16.512A0.984 0.984 0 0 0 18.45 15.536zM15.998 25.043L13.548 29.07C13.208 29.65 12.598 30 11.928 30H5.338C3.888 30 2.978 28.44 3.688 27.18A16.7 16.7 0 0 1 9.118 21.4C9.472 21.125 9.865 20.909 10.282 20.756C7.665 18.9 5.95 15.8 5.95 12.29C5.95 6.607 10.445 2 15.99 2C21.535 2 26.03 6.607 26.03 12.29C26.03 15.797 24.319 18.893 21.705 20.751C22.127 20.904 22.525 21.122 22.888 21.4C25.138 22.86 26.998 24.84 28.318 27.18C29.018 28.44 28.108 30 26.658 30H20.068C19.398 30 18.788 29.65 18.448 29.07L15.998 25.043zM15.99 22.58C15.882 22.58 15.774 22.578 15.667 22.575L19.307 28.557L19.311 28.564A0.868 0.868 0 0 0 20.068 29H26.658A0.9 0.9 0 0 0 27.445 27.668A15.615 15.615 0 0 0 22.343 22.238L22.311 22.218L22.28 22.194A3.38 3.38 0 0 0 20.473 21.5A9.8 9.8 0 0 1 15.99 22.58zM9.76 5.89A9.098 9.098 0 0 0 7.17 12.29C7.17 14.71 8.09 16.98 9.76 18.69A8.69 8.69 0 0 0 22.25 18.69C25.69 15.16 25.69 9.42 22.25 5.89C20.57 4.18 18.35 3.24 16 3.24C13.64 3.24 11.42 4.18 9.76 5.89z" />
    <glyph glyph-name="a-button-blood-type"
      unicode="&#xEA04;"
      horiz-adv-x="32" d="M15.907 24.311A1.75 1.75 0 0 0 17.537 23.221L22.886 10.1A1.75 1.75 0 1 0 19.645 8.778L18.911 10.579A0.125 0.125 0 0 1 18.795 10.657H13.182A0.125 0.125 0 0 1 13.066 10.578L12.362 8.796A1.75 1.75 0 0 0 9.107 10.082L14.289 23.204A1.75 1.75 0 0 0 15.907 24.311zM17.382 14.329L16.06 17.573A0.125 0.125 0 0 1 15.828 17.573L14.547 14.328A0.125 0.125 0 0 1 14.663 14.158H17.266C17.356 14.158 17.416 14.248 17.382 14.329zM6 31A5 5 0 0 1 1 26V6A5 5 0 0 1 6 1H26A5 5 0 0 1 31 6V26A5 5 0 0 1 26 31H6zM3 26A3 3 0 0 0 6 29H26A3 3 0 0 0 29 26V6A3 3 0 0 0 26 3H6A3 3 0 0 0 3 6V26z" />
    <glyph glyph-name="ab-button-blood-type"
      unicode="&#xEA05;"
      horiz-adv-x="32" d="M11.226 22.222A1.375 1.375 0 0 1 8.674 22.208L4.184 10.836A1.375 1.375 0 1 1 6.741 9.826L7.382 11.449A0.125 0.125 0 0 0 7.498 11.529H12.532C12.582 11.529 12.628 11.498 12.648 11.451L13.316 9.811A1.375 1.375 0 1 1 15.862 10.85L11.226 22.222zM8.683 14.278A0.125 0.125 0 0 0 8.567 14.449L9.859 17.721A0.125 0.125 0 0 0 10.091 17.722L11.425 14.451A0.125 0.125 0 0 0 11.309 14.278H8.683zM16.978 21.55A1.375 1.375 0 0 0 18.353 22.922H22.267C24.56 22.922 26.456 21.087 26.456 18.778C26.456 18.031 26.257 17.334 25.911 16.732A0.13 0.13 0 0 1 25.947 16.562A4.115 4.115 0 0 0 27.631 13.241C27.631 10.951 25.765 9.127 23.498 9.097A1.396 1.396 0 0 0 23.398 9.094H18.328A1.374 1.374 0 0 0 16.953 10.472L16.978 21.55zM22.268 14.634H19.837A0.125 0.125 0 0 1 19.712 14.51L19.706 11.969C19.706 11.899 19.762 11.844 19.831 11.844H23.347C23.378 11.846 23.41 11.847 23.442 11.847C24.258 11.847 24.881 12.492 24.881 13.241C24.881 13.99 24.258 14.634 23.442 14.634H22.267zM23.706 18.778C23.706 19.528 23.083 20.172 22.267 20.172H19.85A0.125 0.125 0 0 1 19.725 20.047L19.719 17.51C19.719 17.44 19.775 17.384 19.844 17.384H22.289C23.093 17.396 23.706 18.036 23.706 18.778zM6 31A5 5 0 0 1 1 26V6A5 5 0 0 1 6 1H26A5 5 0 0 1 31 6V26A5 5 0 0 1 26 31H6zM3 26A3 3 0 0 0 6 29H26A3 3 0 0 0 29 26V6A3 3 0 0 0 26 3H6A3 3 0 0 0 3 6V26z" />
    <glyph glyph-name="abacus"
      unicode="&#xEA06;"
      horiz-adv-x="32" d="M2 24A6 6 0 0 0 8 30H24A6 6 0 0 0 30 24V8A6 6 0 0 0 24 2H8A6 6 0 0 0 2 8V24zM4 24H6A1.5 1.5 0 1 0 9 24A1.5 1.5 0 1 0 12 24A1.5 1.5 0 0 0 15 24A1.5 1.5 0 0 0 18 24H23A1.5 1.5 0 0 0 26 24H28A4 4 0 0 1 24 28H8A4 4 0 0 1 4 24zM24.5 21.5A1.5 1.5 0 0 0 23 23H18A1.5 1.5 0 0 0 15 23A1.5 1.5 0 0 0 12 23A1.5 1.5 0 0 0 9 23A1.5 1.5 0 1 0 6 23H4V19H6A1.5 1.5 0 0 0 9 19A1.5 1.5 0 0 0 12 19A1.5 1.5 0 0 0 15 19A1.5 1.5 0 0 0 18 19H23A1.5 1.5 0 0 0 26 19H28V23H26A1.5 1.5 0 0 0 24.5 21.5zM23 18H18A1.5 1.5 0 0 0 15 18A1.5 1.5 0 0 0 12 18A1.5 1.5 0 0 0 9 18A1.5 1.5 0 0 0 6 18H4V14H6A1.5 1.5 0 0 0 9 14A1.5 1.5 0 0 0 12 14A1.5 1.5 0 0 0 15 14A1.5 1.5 0 0 0 18 14H23A1.5 1.5 0 0 0 26 14H28V18H26A1.5 1.5 0 0 0 23 18zM24.5 11.5A1.5 1.5 0 0 0 23 13H18A1.5 1.5 0 0 0 15 13A1.5 1.5 0 0 0 12 13A1.5 1.5 0 0 0 9 13A1.5 1.5 0 0 0 6 13H4V9H6A1.5 1.5 0 0 0 9 9A1.5 1.5 0 0 0 12 9A1.5 1.5 0 0 0 15 9A1.5 1.5 0 0 0 18 9H23A1.5 1.5 0 0 0 26 9H28V13H26A1.5 1.5 0 0 0 24.5 11.5zM23 8H18A1.5 1.5 0 0 0 15 8A1.5 1.5 0 0 0 12 8A1.5 1.5 0 0 0 9 8A1.5 1.5 0 0 0 6 8H4A4 4 0 0 1 8 4H24A4 4 0 0 1 28 8H26A1.5 1.5 0 0 0 23 8z" />
    <glyph glyph-name="accordion"
      unicode="&#xEA07;"
      horiz-adv-x="32" d="M23.017 26.281A1 1 0 0 0 24.12 27.167L29.09 26.622A1 1 0 0 0 29.975 25.519L27.69 4.644A1 1 0 0 0 26.587 3.759L21.617 4.303A1 1 0 0 0 20.77 5H20.717L21.099 25.999A3.98 3.98 0 0 0 22.932 25.503L23.017 26.281zM27.164 22.809A0.5 0.5 0 1 1 27.272 23.804A0.5 0.5 0 0 1 27.164 22.809zM25.067 22.033A0.5 0.5 0 1 1 25.175 23.027A0.5 0.5 0 0 1 25.067 22.033zM24.74 19.051A0.5 0.5 0 1 1 24.849 20.045A0.5 0.5 0 0 1 24.74 19.051zM24.638 13.529A0.5 0.5 0 1 1 23.644 13.638A0.5 0.5 0 0 1 24.638 13.529zM23.76 10.104A0.5 0.5 0 1 1 23.87 11.098A0.5 0.5 0 0 1 23.76 10.104zM23.434 7.122A0.5 0.5 0 1 1 23.542 8.116A0.5 0.5 0 0 1 23.434 7.122zM24.964 16.512A0.5 0.5 0 1 1 23.971 16.62A0.5 0.5 0 0 1 24.965 16.511zM26.082 8.342A0.5 0.5 0 1 1 25.088 8.45A0.5 0.5 0 0 1 26.082 8.341zM25.857 10.881A0.5 0.5 0 1 1 25.967 11.875A0.5 0.5 0 0 1 25.857 10.881zM26.735 14.305A0.5 0.5 0 1 1 25.741 14.415A0.5 0.5 0 0 1 26.735 14.305zM26.51 16.845A0.5 0.5 0 1 1 26.62 17.839A0.5 0.5 0 0 1 26.51 16.845zM27.388 20.27A0.5 0.5 0 1 1 26.394 20.379A0.5 0.5 0 0 1 27.388 20.269zM18.379 26H20.099L19.717 5.047V5.05L18.38 26zM15.419 26H17.377L18.718 5H18.688A0.492 0.492 0 0 1 18.682 5.096L15.418 26zM14.414 25.957L17.641 5.287L17.691 5.085A1 1 0 0 0 16.962 3.873L8.23 1.695A1 1 0 0 0 7.018 2.424L1.938 22.8A1 1 0 0 0 2.666 24.012L11.398 26.189A1 1 0 0 0 12.611 25.461L12.664 25.247A3.979 3.979 0 0 0 14.414 25.957zM3.028 22.557L3.27 21.587A0.5 0.5 0 0 1 3.876 21.222L6.313 21.83A0.5 0.5 0 0 0 6.692 22.332L9.117 22.937L9.213 22.553L8.729 24.493L3.393 23.163A0.5 0.5 0 0 1 3.028 22.557zM6.326 21.73L3.901 21.125A0.5 0.5 0 0 1 3.537 20.519L3.778 19.549A0.5 0.5 0 0 1 4.385 19.185L6.81 19.789A0.5 0.5 0 0 0 7.176 20.391L9.601 20.996L9.721 20.516L9.237 22.456L9.359 21.966L6.934 21.361A0.5 0.5 0 0 0 6.327 21.726V21.73zM6.843 19.695L4.409 19.088A0.5 0.5 0 0 1 4.045 18.482L4.286 17.512A0.5 0.5 0 0 1 4.893 17.147L10.229 18.477L9.745 20.418L9.843 20.026L7.417 19.421A0.5 0.5 0 0 0 6.843 19.695zM4.553 16.444L4.794 15.474A0.5 0.5 0 0 1 5.401 15.109L7.845 15.719A0.5 0.5 0 0 0 8.223 16.243L10.636 16.845L10.253 18.381L4.917 17.05A0.5 0.5 0 0 1 4.553 16.444zM10.878 15.874L8.465 15.273A0.5 0.5 0 0 0 7.863 15.62L5.425 15.012A0.5 0.5 0 0 1 5.061 14.406L5.302 13.436A0.5 0.5 0 0 1 5.909 13.072L8.363 13.684A0.5 0.5 0 0 0 8.723 14.308L11.12 14.905L10.878 15.875zM8.401 13.59L5.933 12.975A0.5 0.5 0 0 1 5.569 12.369L5.811 11.399A0.5 0.5 0 0 1 6.417 11.034L8.842 11.639A0.5 0.5 0 0 0 9.207 12.245L11.632 12.85L11.753 12.365L11.362 13.935L8.965 13.338A0.5 0.5 0 0 0 8.401 13.59zM8.876 11.544L6.441 10.937A0.5 0.5 0 0 1 6.077 10.331L6.319 9.361A0.5 0.5 0 0 1 6.925 8.997L12.261 10.327L11.777 12.267L11.874 11.879L9.448 11.275A0.5 0.5 0 0 0 8.876 11.545zM6.585 8.294L6.827 7.324A0.5 0.5 0 0 1 7.433 6.959L9.936 7.583V7.586A0.5 0.5 0 0 0 10.299 8.192L12.648 8.777L12.285 10.23L6.95 8.9A0.5 0.5 0 0 1 6.586 8.294zM9.97 7.489L7.457 6.862A0.5 0.5 0 0 1 7.093 6.256L7.335 5.286A0.5 0.5 0 0 1 7.941 4.921L10.391 5.532A0.5 0.5 0 0 0 10.764 6.092L13.168 6.691L12.89 7.807L10.541 7.221A0.5 0.5 0 0 0 9.97 7.489zM10.415 5.435L7.965 4.825A0.5 0.5 0 0 1 7.601 4.218L7.843 3.248A0.5 0.5 0 0 1 8.449 2.884L13.785 4.214L13.41 5.72L11.006 5.121A0.5 0.5 0 0 0 10.416 5.435z" />
    <glyph glyph-name="adhesive-bandage"
      unicode="&#xEA08;"
      horiz-adv-x="32" d="M19.14 27.359C21.328 29.546 24.92 29.549 27.119 27.358L27.359 27.118C29.546 24.931 29.549 21.339 27.359 19.14L27.357 19.139L25.045 16.826L16.826 25.045L19.14 27.359zM16.12 24.338L24.338 16.119L15.918 7.7L7.7 15.92L16.12 24.339zM15.212 6.993L12.86 4.641C10.671 2.453 7.07 2.453 4.882 4.641L4.642 4.882C2.454 7.069 2.452 10.661 4.642 12.86V12.861L6.993 15.211L15.212 6.993zM28.53 28.774C25.552 31.741 20.695 31.744 17.725 28.773L3.226 14.273H3.225C0.258 11.294 0.255 6.438 3.226 3.468L3.466 3.227C6.436 0.257 11.304 0.257 14.273 3.227L28.772 17.727H28.773C31.74 20.706 31.743 25.562 28.772 28.532L28.532 28.773L28.53 28.774zM21 24.5A0.5 0.5 0 1 0 20 24.5A0.5 0.5 0 0 0 21 24.5zM22.5 22A0.5 0.5 0 1 1 22.5 23A0.5 0.5 0 0 1 22.5 22zM25 20.5A0.5 0.5 0 1 0 24 20.5A0.5 0.5 0 0 0 25 20.5zM22.5 26A0.5 0.5 0 1 1 22.5 27A0.5 0.5 0 0 1 22.5 26zM25 24.5A0.5 0.5 0 1 0 24 24.5A0.5 0.5 0 0 0 25 24.5zM26.5 22A0.5 0.5 0 1 1 26.5 23A0.5 0.5 0 0 1 26.5 22zM6 9.5A0.5 0.5 0 1 0 5 9.5A0.5 0.5 0 0 0 6 9.5zM7.5 7A0.5 0.5 0 1 1 7.5 8A0.5 0.5 0 0 1 7.5 7zM10 5.5A0.5 0.5 0 1 0 9 5.5A0.5 0.5 0 0 0 10 5.5zM7.5 11A0.5 0.5 0 1 1 7.5 12A0.5 0.5 0 0 1 7.5 11zM10 9.5A0.5 0.5 0 1 0 9 9.5A0.5 0.5 0 0 0 10 9.5zM11.5 7A0.5 0.5 0 1 1 11.5 8A0.5 0.5 0 0 1 11.5 7z" />
    <glyph glyph-name="admission-tickets"
      unicode="&#xEA09;"
      horiz-adv-x="32" d="M23 20C22.452 20 22 19.552 22 19.008V12.992A1.001 1.001 0 0 1 24 12.992V19.008A0.994 0.994 0 0 1 23 20zM18.005 16A2 2 0 1 0 14.005 16A2 2 0 0 0 18.005 16zM8 19.008C8 19.552 8.456 20 9.01 20A1 1 0 0 0 10.02 19.008V12.992C10.02 12.448 9.564 12 9.01 12S8 12.448 8 12.992V19.008zM6.05 19.8C6.05 21.144 7.186 22.203 8.55 22.203H23.46C24.824 22.203 25.96 21.144 25.96 19.8V12.169C25.96 10.824 24.824 9.766 23.46 9.766H8.55C7.2 9.766 6.05 10.812 6.05 12.169V19.8zM23.46 10.766C24.316 10.766 24.96 11.42 24.96 12.169V19.8C24.96 20.55 24.316 21.203 23.46 21.203H20.85V10.766H23.46zM19.85 10.766V21.203H12.16V10.766H19.85zM11.16 21.203H8.55C7.694 21.203 7.05 20.549 7.05 19.8V12.169C7.05 11.413 7.7 10.766 8.55 10.766H11.16V21.203zM26.24 27H5.75A2.574 2.574 0 0 1 3.211 24.812A1.243 1.243 0 0 0 2.144 23.82A2.47 2.47 0 0 1 0 21.374V19.823C0 19.236 0.209 18.669 0.59 18.223A2.461 2.461 0 0 1 0 16.623V15.369C0 14.782 0.209 14.215 0.59 13.769A2.456 2.456 0 0 1 0 12.169V10.608A2.476 2.476 0 0 1 2.174 8.159A1.221 1.221 0 0 0 3.214 7.159A2.571 2.571 0 0 1 5.75 5H26.26A2.574 2.574 0 0 1 28.8 7.168A1.219 1.219 0 0 0 29.846 8.159A2.472 2.472 0 0 1 32 10.606V12.167C32 12.751 31.793 13.317 31.415 13.761A2.461 2.461 0 0 1 32.01 15.368V16.622A2.46 2.46 0 0 1 31.42 18.222A2.46 2.46 0 0 1 32.01 19.822V21.364A2.477 2.477 0 0 1 29.836 23.814A1.24 1.24 0 0 0 28.776 24.836A2.575 2.575 0 0 1 26.24 27zM26.24 25A0.567 0.567 0 0 0 26.8 24.526A3.248 3.248 0 0 1 29.59 21.826A0.472 0.472 0 0 0 30.01 21.361V19.82A0.476 0.476 0 0 0 29.53 19.346H29.31A1.13 1.13 0 0 1 28.17 18.2A1.158 1.158 0 0 1 29.35 17.1H29.53A0.478 0.478 0 0 0 30.01 16.625V15.371A0.476 0.476 0 0 0 29.53 14.897H29.31A1.127 1.127 0 1 1 29.31 12.644H29.52A0.478 0.478 0 0 0 30 12.17V10.609A0.47 0.47 0 0 0 29.58 10.145A3.229 3.229 0 0 1 26.82 7.467A0.56 0.56 0 0 0 26.26 7.003H5.75A0.56 0.56 0 0 0 5.19 7.467A3.229 3.229 0 0 1 2.42 10.145A0.47 0.47 0 0 0 2 10.606V12.167A0.477 0.477 0 0 0 2.48 12.641H2.7A1.127 1.127 0 1 1 2.7 14.894H2.48A0.477 0.477 0 0 0 2 15.368V16.622A0.478 0.478 0 0 0 2.48 17.097H2.7A1.13 1.13 0 0 1 3.84 18.243A1.158 1.158 0 0 1 2.66 19.349H2.48A0.477 0.477 0 0 0 2 19.823V21.374A0.472 0.472 0 0 0 2.42 21.839A3.248 3.248 0 0 1 5.19 24.526A0.559 0.559 0 0 0 5.75 25H26.24z" />
    <glyph glyph-name="aerial-tramway"
      unicode="&#xEA0A;"
      horiz-adv-x="32" d="M27.846 29.988L21.846 29.05L9.346 27.1L3.846 26.241A1 1 0 1 1 4.154 24.265L9.654 25.124L11.508 25.414L15 25.957V22H11A4 4 0 0 1 7 18V4A4 4 0 0 1 11 0H21A4 4 0 0 1 25 4V18A4 4 0 0 1 21 22H17V26.269L21.433 26.962L22.154 27.074L28.154 28.012A1 1 0 1 1 27.846 29.988zM21 2H11A2 2 0 0 0 9 4H23A2 2 0 0 0 21 2zM23 18H17.93A0.9 0.9 0 0 1 17 17.139V9.861A0.9 0.9 0 0 1 17.93 9H23V6H9V9H14.07A0.9 0.9 0 0 1 15 9.861V17.139A0.9 0.9 0 0 1 14.07 18H9A2 2 0 0 0 11 20H21A2 2 0 0 0 23 18z" />
    <glyph glyph-name="airplane-arrival"
      unicode="&#xEA0B;"
      horiz-adv-x="32" d="M2.03 25.22L2.613 29.691A0.642 0.642 0 0 0 3.332 30.247A4.364 4.364 0 0 0 6.754 27.683L8.172 24.418L11.746 23.951L10.424 26.488C9.754 27.773 10.808 29.272 12.237 29.085C12.675 29.03 13.081 28.813 13.368 28.473L17.062 24.119L18.088 23.983C18.588 23.922 18.962 23.501 18.983 23.006L27.195 21.934C28.572 21.757 29.655 20.768 30.052 19.487L30.065 19.485A3.62 3.62 0 0 0 30.199 17.918L30.192 17.909L30.183 17.911C29.923 15.938 28.169 14.552 26.265 14.797L19.203 15.717L17.078 14.237A1.033 1.033 0 0 0 16.514 12.275L14.62 12.525L10.955 9.972A1.81 1.81 0 0 0 9.705 9.662C8.275 9.849 7.638 11.576 8.613 12.642L12.253 16.624L7.218 17.281A6.174 6.174 0 0 0 1.894 24.205L2.031 25.22zM27.067 20.942H27.065L2.89 24.1L2.887 24.075V24.074A5.174 5.174 0 0 1 7.348 18.274L13.078 17.526L14.334 18.901A1.29 1.29 0 0 0 15.45 19.314L20.482 18.663C21.357 18.553 21.636 17.42 20.912 16.908L20.423 16.568L26.394 15.789C27.724 15.619 29 16.588 29.192 18.04L26.206 18.429A0.777 0.777 0 0 0 25.539 19.299A0.759 0.759 0 0 0 26.409 19.966L28.914 19.637A2.452 2.452 0 0 1 27.068 20.943zM30.003 7.01A1 1 0 0 1 29.003 8.01H3.003A1 1 0 0 1 2.003 7.01V3.01A1 1 0 0 1 3.003 2.01H29.003A1 1 0 0 1 30.003 3.01V7.01zM4 5A0.5 0.5 0 0 0 4.5 5.5H8A0.5 0.5 0 0 0 8 4.5H4.5A0.5 0.5 0 0 0 4 5zM10.5 5A0.5 0.5 0 0 0 11 5.5H14.5A0.5 0.5 0 0 0 14.5 4.5H11A0.5 0.5 0 0 0 10.5 5zM17 5A0.5 0.5 0 0 0 17.5 5.5H21A0.5 0.5 0 0 0 21 4.5H17.5A0.5 0.5 0 0 0 17 5zM23.5 5A0.5 0.5 0 0 0 24 5.5H27.5A0.5 0.5 0 0 0 27.5 4.5H24A0.5 0.5 0 0 0 23.5 5z" />
    <glyph glyph-name="airplane-departure"
      unicode="&#xEA0C;"
      horiz-adv-x="32" d="M29.536 28.266A3.357 3.357 0 0 0 28.388 23.686L22.558 20.323L21.814 17.993A0.975 0.975 0 0 0 22.514 16.193L20.949 15.293L19.664 11.273A1.71 1.71 0 0 0 18.904 10.323A1.693 1.693 0 0 0 16.374 11.933L16.819 17.011L12.664 14.611A5.774 5.774 0 0 0 9.764 13.829A5.86 5.86 0 0 0 4.694 16.751L4.213 17.591L2.083 21.281A0.606 0.606 0 0 0 2.303 22.111A4.123 4.123 0 0 0 6.343 22.151L9.279 20.515L12.232 22.215L9.783 23.36A1.688 1.688 0 0 0 10.853 26.54L16.126 25.392L16.973 25.88A0.957 0.957 0 0 0 18.188 25.651L24.982 29.571A3.225 3.225 0 0 0 27.443 29.886C27.834 29.781 28.203 29.608 28.533 29.374L28.543 29.38C28.943 29.1 29.283 28.73 29.543 28.28V28.27L29.536 28.266zM27.882 24.546A2.355 2.355 0 0 1 28.667 27.764L26.253 26.37C25.903 26.17 25.453 26.29 25.253 26.64C25.043 26.99 25.163 27.44 25.523 27.64L27.527 28.794A2.435 2.435 0 0 1 27.184 28.915A2.218 2.218 0 0 1 25.484 28.7L5.577 17.221A4.864 4.864 0 0 1 9.183 14.862A4.8 4.8 0 0 1 12.163 15.476L16.925 18.223L17.073 19.91A1.22 1.22 0 0 0 17.673 20.86L21.823 23.26A0.915 0.915 0 0 0 23.153 22.19L23.007 21.733L27.882 24.545zM29.003 8.01H3.003A1 1 0 0 1 2.003 7.01V3.01A1 1 0 0 1 3.003 2.01H29.003A1 1 0 0 1 30.003 3.01V7.01A1 1 0 0 1 29.003 8.01zM4 5A0.5 0.5 0 0 0 4.5 5.5H8A0.5 0.5 0 1 0 8 4.5H4.5A0.5 0.5 0 0 0 4 5zM10.5 5A0.5 0.5 0 0 0 11 5.5H14.5A0.5 0.5 0 1 0 14.5 4.5H11A0.5 0.5 0 0 0 10.5 5zM17 5A0.5 0.5 0 0 0 17.5 5.5H21A0.5 0.5 0 1 0 21 4.5H17.5A0.5 0.5 0 0 0 17 5zM23.5 5A0.5 0.5 0 0 0 24 5.5H27.5A0.5 0.5 0 1 0 27.5 4.5H24A0.5 0.5 0 0 0 23.5 5z" />
    <glyph glyph-name="airplane"
      unicode="&#xEA0D;"
      horiz-adv-x="32" d="M12.772 8.68L14.121 3.125C14.201 2.814 14.111 2.493 13.871 2.253C13.431 1.811 12.912 1.982 12.423 2.503L8.256 6.727L6.84 5.315A1.07 1.07 0 0 0 5.314 5.325A1.082 1.082 0 0 0 5.324 6.858L6.736 8.268L2.473 12.59C2.033 13.05 1.793 13.602 2.233 14.043C2.463 14.263 2.783 14.354 3.093 14.273L8.617 12.87A26.163 26.163 0 0 0 12.263 17.683L15.216 20.755L6.966 25.439C5.676 26.169 5.676 28.029 6.976 28.759C7.396 28.989 7.886 29.059 8.346 28.949L14.022 27.619L15.084 28.675A1.126 1.126 0 0 0 16.677 28.665A1.14 1.14 0 0 0 16.667 27.064L16.615 27.012L20.382 26.13L22.882 28.732A4.138 4.138 0 0 0 28.806 28.772A4.163 4.163 0 0 0 28.706 22.836L26.429 20.675L27.443 15.915C27.853 16.084 28.343 16.002 28.67 15.665A1.123 1.123 0 0 0 28.66 14.064L27.98 13.388L29 8.6C29.1 8.13 29.02 7.65 28.78 7.24C28.03 5.96 26.16 5.99 25.46 7.3L21.009 15.528L17.597 12.288A26.028 26.028 0 0 0 12.772 8.679zM26.253 27.781A0.732 0.732 0 0 1 25.221 27.791A0.713 0.713 0 0 1 25.211 26.769L26.751 25.217C27.033 24.927 27.501 24.927 27.783 25.207A0.722 0.722 0 0 1 27.793 26.229L26.253 27.781z" />
    <glyph glyph-name="alarm-clock"
      unicode="&#xEA0E;"
      horiz-adv-x="32" d="M4.273 22.772C3.538 25.056 4.312 27.655 6.306 29.066C8.3 30.477 10.894 30.244 12.626 28.67C13.168 28.173 13.11 27.27 12.52 26.853L5.919 22.193C5.319 21.777 4.505 22.061 4.273 22.772zM16 21A1 1 0 0 0 17 20V15.535L19.555 13.832A1 1 0 0 0 18.445 12.168L15.445 14.168A1 1 0 0 0 15 15.017V20A1 1 0 0 0 16 21zM23.207 7.42A10.478 10.478 0 0 1 27 15.5C27 21.299 22.299 26 16.5 26S6 21.299 6 15.5A10.47 10.47 0 0 1 9.297 7.86L6.711 5.623C5.317 4.412 6.11 2 7.905 2H24.09C25.886 2 26.689 4.412 25.284 5.623L23.207 7.421zM16.5 8A7.5 7.5 0 1 0 16.5 23A7.5 7.5 0 0 0 16.5 8zM26.694 29.066C28.688 27.656 29.462 25.056 28.727 22.772C28.495 22.062 27.681 21.777 27.081 22.193L20.481 26.853C19.89 27.269 19.831 28.173 20.374 28.67C22.106 30.244 24.7 30.477 26.694 29.066z" />
    <glyph glyph-name="alembic"
      unicode="&#xEA0F;"
      horiz-adv-x="32" d="M13.376 28C7.077 28 1.998 22.844 1.998 16.5C1.998 15.28 2.186 14.104 2.534 13H2.25A0.75 0.75 0 0 1 2.25 11.5H3.127A11.521 11.521 0 0 1 5.675 8.031L2.145 3.192A0.75 0.75 0 1 1 3.355 2.308L6.84 7.083A11.238 11.238 0 0 1 13 5.006V3A1 1 0 1 1 15 3V5C15 5.039 14.998 5.077 14.993 5.115A11.684 11.684 0 0 1 20.103 7.161L23.644 2.308A0.75 0.75 0 1 1 24.856 3.192L21.27 8.106A11.676 11.676 0 0 1 23.825 11.5H24.75A0.75 0.75 0 0 1 24.75 13H24.44C24.802 14.103 24.999 15.278 24.999 16.5V16.543C24.999 17.2 24.999 17.866 24.87 18.561L28.63 17.071A1 1 0 0 1 29.893 17.553L30.893 19.553A1 1 0 0 1 30.439 20.898L17.891 27.053A11.23 11.23 0 0 1 13.376 28zM22.308 13H21.248A8.47 8.47 0 0 1 21.985 17H5.015A8.47 8.47 0 0 1 5.752 13H4.654A9.598 9.598 0 0 0 4 16.5C4 21.762 8.205 26 13.377 26C14.669 26 15.908 25.731 17.033 25.247L28.655 19.546L28.515 19.268L23.386 21.302A1 1 0 0 1 22.204 19.79C22.988 18.696 23 17.852 23 16.5A9.198 9.198 0 0 0 22.309 13zM6.625 11.5C6.884 11.145 7.169 10.811 7.478 10.501L6.865 9.661A9.506 9.506 0 0 0 5.399 11.5H6.625zM20.375 11.5H21.529A9.741 9.741 0 0 0 20.082 9.734L19.522 10.501A8.55 8.55 0 0 1 20.375 11.5zM13 13A1 1 0 1 0 13 15A1 1 0 0 0 13 13zM8.02 8.7L8.629 9.534A8.461 8.461 0 0 1 13.5 8A8.461 8.461 0 0 1 18.371 9.534L18.924 8.776A9.616 9.616 0 0 0 13.376 7A9.257 9.257 0 0 0 8.02 8.7zM9 14A1 1 0 1 0 9 16A1 1 0 0 0 9 14zM13 10A1 1 0 1 0 11 10A1 1 0 0 0 13 10z" />
    <glyph glyph-name="alien-monster"
      unicode="&#xEA10;"
      horiz-adv-x="32" d="M9 29H10C10.55 29 11 28.55 11 28V26.57C11 26.26 10.74 26 10.43 26H9C8.45 26 8 26.45 8 27V28C8 28.55 8.45 29 9 29zM11.99 2.97H13C13.55 2.97 14 3.42 14 3.97V4.97C14 5.52 13.55 5.97 13 5.97H10.57C10.26 5.97 10 5.71 10 5.4V4.96C10 3.86 10.89 2.97 11.99 2.97zM18 4.97V3.97C18 3.42 18.45 2.97 19 2.97H20.03C21.12 2.97 22 3.85 22 4.94V5.4A0.57 0.57 0 0 1 21.43 5.97H19C18.45 5.97 18 5.52 18 4.97zM24 27V28C24 28.55 23.55 29 23 29H22C21.45 29 21 28.55 21 28V26.57C21 26.26 21.26 26 21.57 26H23C23.55 26 24 26.45 24 27zM28 20.97C28 21.52 28.45 21.97 29 21.97S30 21.52 30 20.97V16.97C30 16.42 29.55 15.97 29 15.97H28.57A0.57 0.57 0 0 1 28 15.4V14.94C28 13.85 27.12 12.97 26.03 12.97H25.57A0.57 0.57 0 0 1 25 12.4V7.96C25 6.86 24.11 5.97 23.01 5.97H22.57A0.57 0.57 0 0 0 22 6.54V9.4A0.57 0.57 0 0 1 21.43 9.97H10.57A0.57 0.57 0 0 1 10 9.4V6.54C10 6.23 9.75 5.97 9.43 5.97H9C7.9 5.97 7 6.87 7 7.97V12.4C7 12.71 6.74 12.97 6.43 12.97H6C4.9 12.97 4 13.87 4 14.97V15.4C4 15.71 3.74 15.97 3.43 15.97H3C2.45 15.97 2 16.42 2 16.97V20.97C2 21.52 2.45 21.97 3 21.97H3.03C3.58 21.97 4.03 21.52 4.03 20.97V19.54C4.03 19.22 4.28 18.97 4.6 18.97L6.4 18.98C6.7 18.99 6.96 19.2 7 19.49C7.24 21.3 8.71 22.71 10.53 22.94C10.8 22.97 11 23.22 11 23.5V25.43C11 25.74 11.26 26 11.58 26H11.88C13.05 26 14 25.05 14 23.88V23.54C14 23.22 14.26 22.97 14.57 22.97H17.43C17.74 22.97 18 23.22 18 23.54V23.93C18 25.07 18.93 26 20.07 26H20.43C20.74 26 21 25.74 21 25.43V23.5C21 23.22 21.2 22.97 21.47 22.94C23.29 22.72 24.74 21.3 24.97 19.48C25.01 19.18 25.27 18.97 25.57 18.97H27.43C27.74 18.97 28 19.22 28 19.54V20.97zM11 15A1 1 0 0 1 12 16.018V17.982C12 18.547 11.554 19 11 19C10.445 19 10 18.547 10 17.982V16.018C10 15.453 10.445 15 11 15zM20 16.018C20 15.453 20.445 15 21 15C21.555 15 22 15.463 22 16.018V17.982C22 18.547 21.555 19 21 19C20.445 19 20 18.547 20 17.982V16.018z" />
    <glyph glyph-name="alien"
      unicode="&#xEA11;"
      horiz-adv-x="32" d="M13.368 8.775A1 1 0 0 0 14.775 8.632C15.151 8.171 15.6 7.987 16 7.987C16.4 7.987 16.85 8.171 17.225 8.632A1 1 0 1 0 18.775 7.368C18.051 6.479 17.049 5.988 16 5.988C14.95 5.988 13.95 6.479 13.225 7.368A1 1 0 0 0 13.368 8.775zM13.319 11.167C11.075 8.924 8.729 10.22 6.474 12.473C4.221 14.726 2.924 17.061 5.167 19.314C7.411 21.567 11.065 21.557 13.308 19.314C15.552 17.072 15.572 13.409 13.318 11.167zM12.62 16.38C13.23 16.99 13.09 18.11 12.31 18.89C11.53 19.66 10.41 19.81 9.8 19.2C9.19 18.59 9.33 17.47 10.11 16.69C10.89 15.91 12.01 15.77 12.62 16.38zM18.678 11.167C20.923 8.924 23.27 10.22 25.525 12.473C27.779 14.726 29.077 17.061 26.832 19.314C24.588 21.567 20.932 21.557 18.689 19.314C16.444 17.072 16.434 13.409 18.679 11.167zM25.59 18.89C26.37 18.11 26.51 16.99 25.9 16.38C25.29 15.77 24.17 15.91 23.39 16.69C22.61 17.47 22.47 18.59 23.08 19.2C23.69 19.81 24.82 19.66 25.59 18.89zM1 16.08C1 24.322 7.678 31 15.92 31S30.84 24.322 30.84 16.08C30.84 11.775 27.814 8 24.641 5.384A26.032 26.032 0 0 0 19.806 2.224C18.341 1.493 16.918 1 15.92 1C14.922 1 13.5 1.494 12.034 2.223A26.031 26.031 0 0 0 7.199 5.385C4.026 7.998 1 11.774 1 16.08zM15.92 29C8.782 29 3 23.218 3 16.08C3 12.695 5.434 9.43 8.471 6.928A24.03 24.03 0 0 1 12.925 4.014C14.35 3.304 15.418 3 15.92 3C16.422 3 17.49 3.305 18.915 4.014A24.028 24.028 0 0 1 23.369 6.928C26.406 9.431 28.84 12.695 28.84 16.08C28.84 23.218 23.058 29 15.92 29z" />
    <glyph glyph-name="ambulance"
      unicode="&#xEA12;"
      horiz-adv-x="32" d="M2.264 13.311L7.821 20.456A4 4 0 0 0 10 21.879V22A1 1 0 0 0 11 23A1 1 0 1 0 13 23C13.136 23 13.265 22.973 13.383 22.924A5.001 5.001 0 0 0 18 26H27A4 4 0 0 0 31 22V9A4 4 0 0 0 27 5H26.965A3.501 3.501 0 0 0 20.035 5H11.965A3.501 3.501 0 0 0 5.035 5H5A4 4 0 0 0 1 9V9.628A6 6 0 0 0 2.264 13.311zM27 7A2 2 0 0 1 28.732 8H28A1 1 0 1 0 28 10H29V11H15V7H20.337A3.5 3.5 0 0 0 26.663 7H27zM14 7V20H10.978A2 2 0 0 1 9.399 19.228L9.222 19H12A1 1 0 0 0 13 18V16A2 2 0 0 0 11 14H5.333L3.843 12.083A4 4 0 0 1 3.243 11H4A1 1 0 0 0 5 10V9A1 1 0 0 0 4 8H3.268A2 2 0 0 1 5 7H5.337A3.5 3.5 0 0 0 11.663 7H14zM28.732 23A2 2 0 0 1 27 24H18C17.111 24 16.313 23.614 15.764 23H28.732zM22 20A1 1 0 0 1 21 19V18H20A1 1 0 1 1 20 16H21V15A1 1 0 1 1 23 15V16H24A1 1 0 1 1 24 18H23V19A1 1 0 0 1 22 20zM10 5.5A1.5 1.5 0 1 1 7 5.5A1.5 1.5 0 0 1 10 5.5zM25 5.5A1.5 1.5 0 1 1 22 5.5A1.5 1.5 0 0 1 25 5.5z" />
    <glyph glyph-name="american-football"
      unicode="&#xEA13;"
      horiz-adv-x="32" d="M5.87 1.289A5.523 5.523 0 0 0 1.29 5.867A21.66 21.66 0 0 0 26.142 30.713H26.145A5.545 5.545 0 0 0 30.715 26.138V26.136A21.66 21.66 0 0 0 5.87 1.289zM19.55 28.743A19.661 19.661 0 0 1 16.165 27.885L27.886 16.165A19.657 19.657 0 0 1 28.744 19.549L19.55 28.742zM16.087 4.206L4.207 16.086A19.68 19.68 0 0 1 3.309 12.742L12.743 3.308A19.674 19.674 0 0 1 16.087 4.206zM12.88 16.62A0.875 0.875 0 0 1 12.88 15.382L14.88 13.382A0.875 0.875 0 1 1 16.118 14.62L14.118 16.62A0.875 0.875 0 0 1 12.88 16.62zM11.618 14.12A0.875 0.875 0 1 1 10.38 12.882L12.38 10.882A0.875 0.875 0 1 1 13.618 12.12L11.618 14.12zM15.38 19.12A0.875 0.875 0 0 1 15.38 17.882L17.38 15.882A0.875 0.875 0 1 1 18.618 17.12L16.618 19.12A0.875 0.875 0 0 1 15.38 19.12zM19.118 21.62A0.875 0.875 0 1 1 17.88 20.382L19.88 18.382A0.875 0.875 0 1 1 21.118 19.62L19.118 21.62z" />
    <glyph glyph-name="amphora"
      unicode="&#xEA14;"
      horiz-adv-x="32" d="M11.75 29A1 1 0 0 0 12.75 30H19.25A1 1 0 1 0 19.25 28H19C19 27.995 18.898 27.24 18.545 25.544C18.477 25.219 18.415 24.919 18.366 24.643L18.604 24.884C19.388 25.764 20.404 26.315 21.436 26.423C22.486 26.533 23.533 26.174 24.278 25.273C24.886 24.538 25.224 23.732 25.1 22.818C24.98 21.939 24.446 21.082 23.604 20.189A0.657 0.657 0 0 0 23.581 20.166L22.481 19.116C22.799 18.609 23.067 18.033 23.248 17.375H21A0.375 0.375 0 0 1 20.625 17V15.5C20.625 15.293 20.793 15.125 21 15.125H23.497C23.482 14.475 23.412 13.951 23.227 13.375H19.875V17A0.375 0.375 0 0 1 19.5 17.375H14A0.375 0.375 0 0 1 13.625 17V15.5C13.625 15.293 13.793 15.125 14 15.125H17.125V13.375H12.875V17A0.375 0.375 0 0 1 12.5 17.375H8.752A6.49 6.49 0 0 0 9.518 19.114L8.414 20.166A0.64 0.64 0 0 0 8.391 20.189C7.549 21.082 7.015 21.939 6.896 22.818C6.771 23.732 7.109 24.538 7.716 25.273C8.462 26.174 9.509 26.533 10.559 26.423C11.59 26.315 12.607 25.763 13.391 24.884L13.635 24.637C13.585 24.915 13.523 25.217 13.455 25.544C13.102 27.24 13 27.995 13 28H12.75A1 1 0 0 0 11.75 29zM13.609 22.881L12.489 24.019A0.723 0.723 0 0 0 12.467 24.042C11.858 24.729 11.113 25.108 10.43 25.179C9.761 25.249 9.138 25.029 8.68 24.476C8.217 23.916 8.071 23.449 8.134 22.986C8.202 22.492 8.524 21.872 9.289 21.059L10.28 20.114C11.163 21.084 12.188 21.715 12.894 22.15L13 22.215C13.301 22.401 13.495 22.62 13.609 22.881zM21.718 20.117L22.706 21.059C23.471 21.872 23.793 22.492 23.861 22.987C23.924 23.449 23.779 23.915 23.315 24.477C22.857 25.029 22.234 25.249 21.565 25.179C20.882 25.109 20.137 24.729 19.528 24.042A0.723 0.723 0 0 0 19.506 24.019L18.39 22.885C18.504 22.622 18.698 22.401 19 22.215L19.106 22.15C19.812 21.716 20.836 21.086 21.718 20.116zM21.375 16.625H23.409C23.447 16.385 23.474 16.135 23.489 15.875H21.375V16.625zM19.5 12.625H22.934C22.628 11.944 22.166 11.125 21.478 9.967C19.774 7.093 18.5 4.5 18.5 4.5L19.5 3C20 2.25 19.5 2 19 2H13C12.5 2 12 2.25 12.5 3L13.5 4.5S12.226 7.093 10.522 9.967C9.834 11.126 9.372 11.944 9.066 12.625H10.5A0.375 0.375 0 0 1 10.875 13V15.5A0.375 0.375 0 0 1 10.5 15.875H8.512C8.526 16.135 8.552 16.385 8.591 16.625H12.125V13C12.125 12.793 12.293 12.625 12.5 12.625H17.5A0.375 0.375 0 0 1 17.875 13V15.5A0.375 0.375 0 0 1 17.5 15.875H14.375V16.625H19.125V13C19.125 12.793 19.293 12.625 19.5 12.625zM10.125 13.375H8.774C8.588 13.951 8.518 14.475 8.504 15.125H10.125V13.375z" />
    <glyph glyph-name="anatomical-heart"
      unicode="&#xEA15;"
      horiz-adv-x="32" d="M28.517 20H27.675A7.16 7.16 0 0 1 26.887 21.67L27.617 22.4A0.999 0.999 0 0 1 26.534 24.034C26.834 24.447 27.017 24.95 27.017 25.5A2.5 2.5 0 0 1 24.517 28H22.017C21.674 28 21.34 27.967 21.01 27.919A1 1 0 0 1 20.018 29C19.664 29 19.323 28.812 19.14 28.481L18.713 27.703A8.153 8.153 0 0 1 17.017 27.981V29A1 1 0 1 1 15.017 29V27.861A7.795 7.795 0 0 1 13.927 27.583L12.824 29.091A1 1 0 0 1 11.209 27.909L12.12 26.665C12.091 26.644 12.065 26.62 12.037 26.598H12C11.318 26.598 10.656 26.515 10.017 26.371V26.5A2.5 2.5 0 1 1 5.017 26.5V25.4L4.724 25.707A1 1 0 0 1 3.31 24.293L4.779 22.953A8.949 8.949 0 0 1 3 17.598V16.227C3 14.439 3.896 12.866 5.259 11.916A7.168 7.168 0 0 1 6.659 10.33L15.28 3.136A7.48 7.48 0 0 1 20.517 1A7.484 7.484 0 0 1 25.82 3.196L25.821 3.197A7.486 7.486 0 0 1 28.017 8.5V17.811C28.017 17.875 28.009 17.937 28.007 18H28.517A1 1 0 1 1 28.517 20zM24.406 4.611A5.476 5.476 0 0 0 20.517 3A5.475 5.475 0 0 0 16.628 4.611L16.596 4.643L8.934 11.038C11.516 11.373 13.517 13.555 13.517 16.228V19.567C14.027 19.361 14.582 19.207 15.167 19.112C15.335 18.457 15.639 17.85 16.076 17.351A3.896 3.896 0 0 1 18.803 16.006L19.016 16C21.225 16.001 23.016 17.79 23.017 20V21.5C23.018 21.818 23.118 22.112 23.287 22.354C23.596 22.186 23.885 21.99 24.153 21.764C24.267 21.668 24.392 21.585 24.498 21.48C24.867 21.111 25.159 20.675 25.404 20.211C25.517 19.996 25.617 19.775 25.7 19.543C25.854 19.111 25.947 18.655 25.981 18.178C25.99 18.054 26.018 17.937 26.018 17.811V8.5A5.484 5.484 0 0 0 24.406 4.611zM17.084 25.965A7.032 7.032 0 0 1 15.7 24A6.905 6.905 0 0 1 15.311 23A7.032 7.032 0 0 1 15.026 21.182C14.444 21.323 13.93 21.532 13.517 21.796C13.042 22.099 12.709 22.464 12.517 22.842C12.49 22.895 12.456 22.947 12.435 23A1.407 1.407 0 0 0 12.329 23.5A1.378 1.378 0 0 0 12.516 24.19C13.083 25.242 14.262 25.692 15.373 25.894C15.374 25.894 17.023 25.97 17.084 25.965zM25.017 25.5C25.017 25.225 24.792 25 24.517 25C23.11 25 21.82 24.109 21.303 22.807C20.942 21.899 21.018 20.951 21.017 20A2.004 2.004 0 0 0 19.016 18L18.908 18.003C18.387 18.031 17.931 18.273 17.58 18.669A2.28 2.28 0 0 0 17.32 19.042C16.487 20.511 17.094 22.797 18.073 24.044C19.726 26.151 22.132 26 24.517 26C24.792 26 25.016 25.775 25.017 25.5zM5 17.598C5.001 20.65 7.092 23.446 10.017 24.309A6.56 6.56 0 0 0 10.461 24.423A3.321 3.321 0 0 1 10.329 23.5C10.329 22.759 10.58 22.061 11.017 21.444C11.163 21.238 11.331 21.042 11.517 20.856V16.227A3.262 3.262 0 0 0 8.259 12.969A3.225 3.225 0 0 0 6.713 13.378A3.251 3.251 0 0 0 5.099 15.469A3.206 3.206 0 0 0 5 16.227V17.598zM7.017 25.4V26.5A0.5 0.5 0 0 0 8.017 26.5V25.659A9.017 9.017 0 0 1 7.017 25.09V25.4z" />
    <glyph glyph-name="anchor"
      unicode="&#xEA16;"
      horiz-adv-x="32" d="M14 24.762A2.992 2.992 0 0 0 13 27C13 28.66 14.34 30 16 30S19 28.66 19 27C19 26.11 18.615 25.31 18 24.762V22H21.5C22.33 22 23 21.33 23 20.5S22.33 19 21.5 19H18V5.224A9.02 9.02 0 0 1 24.06 10H24.02C23.15 10 22.68 11.02 23.25 11.68L26.64 15.64C27.21 16.31 28.3 15.99 28.42 15.12L28.99 11.16C29.08 10.55 28.6 10 27.98 10H27.31C25.67 5.34 21.23 2 16 2S6.33 5.34 4.69 10H4.02C3.4 10 2.92 10.55 3.01 11.16L3.58 15.12C3.7 15.99 4.79 16.31 5.36 15.64L8.75 11.68C9.32 11.02 8.85 10 7.98 10H7.94A9.022 9.022 0 0 1 14 5.224V19H10.5C9.67 19 9 19.67 9 20.5S9.67 22 10.5 22H14V24.762zM16 28C15.45 28 15 27.55 15 27S15.45 26 16 26S17 26.45 17 27S16.55 28 16 28z" />
    <glyph glyph-name="anger-symbol"
      unicode="&#xEA17;"
      horiz-adv-x="32" d="M9.329 29.495A2 2 0 0 1 6.671 26.505C11.929 21.832 20.071 21.832 25.329 26.505A2 2 0 1 1 22.671 29.495C18.929 26.168 13.071 26.168 9.329 29.495zM9.369 2.542C12.859 5.819 19.141 5.819 22.631 2.542A2 2 0 1 1 25.369 5.458C20.339 10.181 11.661 10.181 6.631 5.458A2 2 0 1 1 9.369 2.542zM29.369 25.458A2 2 0 0 0 29.458 22.631C26.181 19.141 26.181 12.859 29.458 9.369A2 2 0 1 0 26.542 6.631C21.819 11.661 21.819 20.339 26.542 25.369A2 2 0 0 0 29.369 25.458zM5.458 25.369A2 2 0 1 1 2.542 22.631C5.819 19.141 5.819 12.859 2.542 9.369A2 2 0 1 1 5.458 6.631C10.181 11.661 10.181 20.339 5.458 25.369z" />
    <glyph glyph-name="angry-face-with-horns"
      unicode="&#xEA18;"
      horiz-adv-x="32" d="M24.701 26.953L24.69 26.949A3.078 3.078 0 0 1 23.306 26.023C21.494 27.245 19.088 28 16 28C12.914 28 10.51 27.246 8.698 26.026A3.078 3.078 0 0 1 7.318 26.949L7.306 26.953L7.296 26.955L7.287 26.958L7.231 26.978A4.925 4.925 0 0 0 6.833 27.138C9.094 28.935 12.15 30 16 30C19.851 30 22.908 28.933 25.17 27.137A6.129 6.129 0 0 0 24.721 26.958L24.711 26.955L24.702 26.953zM25.987 26.422C26.782 26.836 27.877 27.582 28.548 28.773C28.828 29.283 29.148 28.773 29.148 28.773S31.156 25 29.006 21C28.746 20.31 27.496 20 26.506 20C24.716 20 23.398 21.533 23.398 23.313C23.392 24.129 23.63 24.893 24.111 25.418C24.349 25.679 24.648 25.881 25.006 26C25.006 26 25.42 26.127 25.986 26.422zM27.998 16.001C27.998 17.093 27.894 18.136 27.693 19.117C27.92 19.163 28.145 19.222 28.36 19.297C28.726 19.425 29.19 19.643 29.542 20.015C29.846 18.744 29.998 17.396 29.998 16.001C29.998 8.27 25.333 2.002 15.998 2.002C6.665 2.002 2 8.27 2 16.002C2 17.399 2.152 18.749 2.457 20.022C2.81 19.646 3.278 19.426 3.647 19.297C3.858 19.223 4.08 19.164 4.305 19.119A15.517 15.517 0 0 1 4 16C4 12.525 5.046 9.546 6.97 7.456C8.87 5.393 11.805 4.001 15.999 4.001S23.128 5.394 25.027 7.456C26.952 9.546 27.997 12.526 27.997 16zM7.892 25.422A2.105 2.105 0 0 1 7 26S6.583 26.128 6.014 26.425C5.219 26.84 4.128 27.585 3.458 28.773C3.178 29.283 2.858 28.773 2.858 28.773S0.85 25 3 21C3.26 20.31 4.51 20 5.5 20C7.29 20 8.608 21.533 8.608 23.313C8.614 24.131 8.375 24.897 7.892 25.423zM12.894 6.553C13.066 6.896 13.995 8 16 8S18.934 6.896 19.105 6.553A1 1 0 0 1 20.895 7.447C20.398 8.437 18.794 10 16 10C13.205 10 11.6 8.437 11.105 7.447A1 1 0 0 1 12.895 6.553zM14 14A2 2 0 1 0 10 14A2 2 0 0 0 14 14zM20 12A2 2 0 1 1 20 16A2 2 0 0 1 20 12zM10.977 20.935A0.75 0.75 0 0 1 9.522 20.568V20.566L9.523 20.565L9.524 20.56L9.528 20.548A2.645 2.645 0 0 1 9.576 20.388A5.367 5.367 0 0 1 10.443 18.785C11.151 17.89 12.353 17 14.25 17A0.75 0.75 0 0 1 14.25 18.5C12.896 18.5 12.099 19.11 11.62 19.716A3.87 3.87 0 0 0 11 20.854A1.901 1.901 0 0 0 10.98 20.923L10.976 20.935zM21.023 20.935L21.02 20.923L20.999 20.854A3.87 3.87 0 0 0 20.381 19.715C19.901 19.11 19.104 18.5 17.75 18.5A0.75 0.75 0 0 1 17.75 17C19.646 17 20.849 17.89 21.557 18.784A5.37 5.37 0 0 1 22.424 20.388A3.664 3.664 0 0 1 22.468 20.534L22.472 20.548L22.476 20.56V20.565L22.477 20.567S22.53 20.854 22.48 20.577L22.478 20.568A0.75 0.75 0 0 1 21.023 20.935z" />
    <glyph glyph-name="angry-face"
      unicode="&#xEA19;"
      horiz-adv-x="32" d="M14.999 18.71A0.75 0.75 0 0 1 14.289 19.499C13.461 19.543 12.785 19.74 12.25 20.112C11.723 20.479 11.271 21.06 10.961 21.988A0.75 0.75 0 1 1 9.539 21.512C9.933 20.332 10.558 19.463 11.393 18.882C12.221 18.305 13.193 18.055 14.21 18.002A0.75 0.75 0 0 1 14.999 18.71zM17.001 18.71A0.75 0.75 0 0 0 17.71 19.499C18.54 19.543 19.215 19.74 19.75 20.112C20.276 20.479 20.728 21.06 21.039 21.988A0.75 0.75 0 1 0 22.461 21.512C22.067 20.332 21.442 19.463 20.607 18.882C19.779 18.305 18.807 18.055 17.79 18.002A0.75 0.75 0 0 0 17 18.71zM12.894 6.553C13.066 6.896 13.995 8 16 8S18.934 6.896 19.105 6.553A1 1 0 0 1 20.895 7.447C20.398 8.437 18.794 10 16 10C13.205 10 11.6 8.438 11.105 7.447A1 1 0 0 1 12.895 6.553zM12 13A2 2 0 1 1 12 17A2 2 0 0 1 12 13zM20 13A2 2 0 1 1 20 17A2 2 0 0 1 20 13zM15.999 2.002C25.333 2.002 29.998 8.27 29.998 16.002C29.998 23.732 25.333 30 15.998 30C6.665 30 2 23.732 2 16.001C2 8.27 6.664 2.002 15.999 2.002zM27.998 16.002C27.998 12.526 26.952 9.547 25.028 7.457C23.128 5.394 20.193 4.002 15.998 4.002C11.805 4.002 8.87 5.395 6.97 7.457C5.046 9.547 4 12.527 4 16.001C4 19.476 5.046 22.455 6.97 24.545C8.87 26.608 11.805 28 16 28S23.129 26.608 25.028 24.545C26.953 22.455 27.998 19.475 27.998 16.001z" />
    <glyph glyph-name="anguished-face"
      unicode="&#xEA1A;"
      horiz-adv-x="32" d="M9.07 23.012C8.476 22.45 8.118 21.772 7.974 21.342A0.5 0.5 0 1 0 7.026 21.658C7.216 22.228 7.657 23.05 8.381 23.738C9.113 24.433 10.148 25 11.5 25A0.5 0.5 0 1 0 11.5 24C10.452 24 9.654 23.567 9.07 23.012zM12 15A2 2 0 1 1 12 19A2 2 0 0 1 12 15zM20 15A2 2 0 1 1 20 19A2 2 0 0 1 20 15zM22.93 23.012C23.524 22.45 23.882 21.772 24.026 21.342A0.5 0.5 0 1 1 24.974 21.658C24.784 22.228 24.343 23.05 23.619 23.738C22.887 24.433 21.852 25 20.5 25A0.5 0.5 0 1 1 20.5 24C21.548 24 22.346 23.567 22.93 23.012zM21.815 8.485C22.019 7.682 21.328 7 20.5 7H11.5C10.672 7 9.98 7.682 10.185 8.485A6.003 6.003 0 0 0 21.815 8.485zM15.999 31C11.095 31 7.313 29.346 4.763 26.577C2.226 23.822 1 20.062 1 16.001C1 11.94 2.226 8.181 4.763 5.425C7.313 2.656 11.095 1.002 15.999 1.002C20.903 1.002 24.685 2.656 27.234 5.425C29.771 8.18 30.998 11.94 30.998 16.001C30.998 20.062 29.771 23.822 27.234 26.577C24.684 29.346 20.903 31 16 31zM3 16.001C3 19.671 4.106 22.911 6.235 25.222C8.35 27.52 11.568 29 15.999 29C20.429 29 23.647 27.52 25.763 25.222C27.892 22.911 28.998 19.672 28.998 16.002C28.998 12.331 27.892 9.092 25.763 6.78C23.647 4.482 20.43 3.002 15.999 3.002C11.569 3.002 8.351 4.482 6.235 6.78C4.105 9.09 3 12.33 3 16z" />
    <glyph glyph-name="ant"
      unicode="&#xEA1B;"
      horiz-adv-x="32" d="M2.51 30.06A0.5 0.5 0 0 1 2.51 29.06A5.603 5.603 0 0 0 8.095 23.98A5.497 5.497 0 0 1 3.07 18.5C3.07 15.46 5.53 15 8.57 15C10.4 15 12.02 15.167 13.02 15.963C13.024 15.528 13.12 15.114 13.29 14.741L9.636 12.131C8.648 12.943 7.336 13.333 6.051 13.333C4.625 13.333 3.165 12.852 2.156 11.843A0.5 0.5 0 1 1 2.864 11.137C3.645 11.918 4.83 12.333 6.051 12.333C7.273 12.333 8.461 11.919 9.247 11.136A0.5 0.5 0 0 1 9.891 11.083L13.849 13.912C13.909 13.849 13.972 13.788 14.038 13.729L7.186 2.765A0.5 0.5 0 1 1 8.034 2.235L14.885 13.2C14.952 13.172 15.021 13.146 15.09 13.123V2.5A0.5 0.5 0 0 1 16.09 2.5V12.97A3.016 3.016 0 0 1 18.485 14.217C18.114 12.931 18.07 11.302 18.07 9.53C18.07 5.37 18.31 2 22.47 2S30 5.37 30 9.53S26.63 17.06 22.47 17.06C20.703 17.06 19.644 16.452 19.009 15.434A3.02 3.02 0 0 1 14.065 18.274A5.497 5.497 0 0 1 9.099 23.974A6.603 6.603 0 0 1 2.51 30.06zM6.56 21.48C6.97 21.48 7.31 21.15 7.31 20.73V19.85A0.749 0.749 0 1 0 5.81 19.85V20.73C5.82 21.14 6.15 21.48 6.56 21.48z" />
    <glyph glyph-name="antenna-bars"
      unicode="&#xEA1C;"
      horiz-adv-x="32" d="M8.12 5H5.88C5.39 5 5 5.39 5 5.88V11.13C5 11.61 5.39 12 5.88 12H8.13C8.61 12 9 11.61 9 11.12V5.87C9 5.39 8.61 5 8.12 5zM11.88 5H14.12C14.61 5 15 5.39 15.01 5.87V17.12C15.01 17.61 14.61 18 14.13 18H11.88C11.39 18 11 17.61 11 17.12V5.88C11 5.39 11.39 5 11.88 5zM20.12 5H17.87C17.39 5 17 5.39 17 5.88V22.12C17 22.61 17.39 23 17.88 23H20.13C20.61 23 21 22.61 21 22.12V5.87C21 5.39 20.61 5 20.12 5zM23.87 5H26.12C26.61 5 27 5.39 27 5.87V26.12C27 26.61 26.61 27 26.13 27H23.88C23.39 27 23 26.61 23 26.12V5.88C23 5.39 23.39 5 23.87 5zM1 26A5 5 0 0 0 6 31H26A5 5 0 0 0 31 26V6A5 5 0 0 0 26 1H6A5 5 0 0 0 1 6V26zM6 29A3 3 0 0 1 3 26V6A3 3 0 0 1 6 3H26A3 3 0 0 1 29 6V26A3 3 0 0 1 26 29H6z" />
    <glyph glyph-name="anxious-face-with-sweat"
      unicode="&#xEA1D;"
      horiz-adv-x="32" d="M6.235 25.222C4.295 23.116 3.205 20.239 3.026 16.968A3.487 3.487 0 0 1 1 15.95V16.002C1 20.063 2.226 23.823 4.763 26.578C7.313 29.346 11.095 31 16 31C20.904 31 24.686 29.346 27.235 26.577C29.772 23.822 30.999 20.062 30.999 16.001C30.999 11.94 29.772 8.181 27.235 5.425C24.685 2.656 20.904 1.002 16 1.002C11.096 1.002 7.314 2.656 4.764 5.425C4.571 5.635 4.386 5.85 4.208 6.072A3.48 3.48 0 0 1 5.998 7.047C6.075 6.957 6.155 6.867 6.236 6.78C8.352 4.482 11.569 3.002 16 3.002C20.43 3.002 23.648 4.482 25.764 6.78C27.893 9.091 28.999 12.33 28.999 16.001C28.999 19.671 27.893 22.911 25.764 25.222C23.647 27.52 20.43 29 16 29C11.57 29 8.352 27.52 6.236 25.222zM11.007 25.583A0.5 0.5 0 0 0 11.993 25.418V25.411L11.99 25.401L11.983 25.366A4.005 4.005 0 0 0 11.837 24.862A4.49 4.49 0 0 0 11.212 23.7C10.564 22.835 9.42 22 7.5 22A0.5 0.5 0 1 0 7.5 23C9.08 23 9.937 23.665 10.412 24.3A3.49 3.49 0 0 1 10.987 25.492L11.004 25.567L11.007 25.583zM4.573 7.242A2.506 2.506 0 0 1 6 9.5V13.5A2.5 2.5 0 0 1 1 13.5V9.5A2.5 2.5 0 0 1 4.573 7.242zM20.996 25.567L20.993 25.583A0.5 0.5 0 0 1 20.007 25.418C19.965 25.567 20.007 25.417 20.007 25.417V25.415L20.008 25.411L20.01 25.401A1.744 1.744 0 0 1 20.043 25.25A4.49 4.49 0 0 1 20.787 23.7C21.437 22.835 22.58 22 24.5 22A0.5 0.5 0 1 1 24.5 23C22.92 23 22.063 23.665 21.587 24.3A3.49 3.49 0 0 0 21.013 25.492A1.742 1.742 0 0 0 20.996 25.567zM12 15A2 2 0 1 1 12 19A2 2 0 0 1 12 15zM20 15A2 2 0 1 1 20 19A2 2 0 0 1 20 15zM20 6C20.552 6 21.01 6.452 20.901 6.994A5.002 5.002 0 0 1 11.099 6.994C10.989 6.452 11.448 6 12 6H20z" />
    <glyph glyph-name="aquarius"
      unicode="&#xEA1E;"
      horiz-adv-x="32" d="M23.086 12.48L23.075 12.49L23.062 12.5A0.635 0.635 0 0 1 22.268 12.5L22.256 12.49L22.244 12.48L19.654 10.13L19.652 10.128A0.469 0.469 0 0 0 19.018 10.128L19.016 10.13L16.426 12.48L16.415 12.49L16.402 12.5A0.635 0.635 0 0 1 15.608 12.5L15.595 12.49L15.584 12.48L12.994 10.13L12.992 10.128A0.469 0.469 0 0 0 12.358 10.128L12.356 10.13L9.766 12.48L9.754 12.49L9.742 12.5A0.635 0.635 0 0 1 8.948 12.5L8.936 12.49L8.924 12.48L6.336 10.132H6.335A0.479 0.479 0 0 0 5.662 10.164A0.479 0.479 0 0 0 5.694 10.838L5.696 10.84L9.026 13.86L9.028 13.862A0.469 0.469 0 0 0 9.662 13.862L9.664 13.86L12.254 11.51L12.265 11.5L12.278 11.49A0.635 0.635 0 0 1 13.072 11.49L13.085 11.5L13.096 11.51L15.686 13.86L15.688 13.862A0.469 0.469 0 0 0 16.322 13.862L16.324 13.86L18.914 11.51L18.925 11.5L18.938 11.49A0.635 0.635 0 0 1 19.732 11.49L19.744 11.5L19.756 11.51L22.346 13.86L22.348 13.862A0.469 0.469 0 0 0 22.982 13.862L22.984 13.86L26.314 10.84L26.316 10.838C26.508 10.665 26.526 10.362 26.349 10.165A0.464 0.464 0 0 0 26 10.01A0.491 0.491 0 0 0 25.674 10.132L23.086 12.48zM26.338 18.174L26.33 18.165A0.428 0.428 0 0 0 26 18.02A0.49 0.49 0 0 0 25.674 18.142L23.086 20.49L23.075 20.5L23.062 20.51A0.635 0.635 0 0 1 22.268 20.51L22.256 20.5L22.244 20.49L19.654 18.14L19.652 18.138A0.469 0.469 0 0 0 19.018 18.138L19.016 18.14L16.426 20.49L16.415 20.5L16.402 20.51A0.635 0.635 0 0 1 15.608 20.51L15.595 20.5L15.584 20.49L12.994 18.14L12.992 18.138A0.469 0.469 0 0 0 12.358 18.138L12.355 18.141L9.755 20.491L9.745 20.501L9.732 20.511A0.635 0.635 0 0 1 8.938 20.511L8.925 20.501L8.914 20.491L6.326 18.141H6.325A0.479 0.479 0 0 0 5.652 18.175A0.479 0.479 0 0 0 5.684 18.848L5.686 18.85L9.016 21.87L9.018 21.872A0.469 0.469 0 0 0 9.652 21.872L9.654 21.87L12.244 19.52L12.255 19.51L12.268 19.5A0.635 0.635 0 0 1 13.062 19.5L13.075 19.51L13.086 19.52L15.676 21.87L15.678 21.872A0.469 0.469 0 0 0 16.312 21.872L16.314 21.87L18.904 19.52L18.916 19.51L18.928 19.5A0.635 0.635 0 0 1 19.722 19.5L19.734 19.51L19.746 19.52L22.336 21.87L22.338 21.872A0.469 0.469 0 0 0 22.972 21.872L22.974 21.87L26.304 18.85L26.306 18.848C26.498 18.675 26.516 18.371 26.338 18.174zM1.5 26A4.5 4.5 0 0 0 6 30.5H26A4.5 4.5 0 0 0 30.5 26V6A4.5 4.5 0 0 0 26 1.5H6A4.5 4.5 0 0 0 1.5 6V26zM6 29.5A3.5 3.5 0 0 1 2.5 26V6A3.5 3.5 0 0 1 6 2.5H26A3.5 3.5 0 0 1 29.5 6V26A3.5 3.5 0 0 1 26 29.5H6z" />
    <glyph glyph-name="aries"
      unicode="&#xEA1F;"
      horiz-adv-x="32" d="M20.01 25.48C20.77 26.14 21.75 26.5 22.76 26.5C25.1 26.5 27 24.6 27 22.26C27 21.71 26.55 21.26 26 21.26S25 21.71 25 22.26C25 23.5 24 24.5 22.76 24.5C21.65 24.5 20.72 23.7 20.55 22.61L18.14 7.33A2.154 2.154 0 0 0 16 5.5C14.93 5.5 14.03 6.27 13.86 7.33L11.45 22.61A2.22 2.22 0 0 1 9.24 24.5C8 24.5 7 23.5 7 22.26C7 21.71 6.55 21.26 6 21.26S5 21.71 5 22.26A4.242 4.242 0 0 0 11.99 25.49C12.75 24.83 13.26 23.93 13.42 22.93L15.83 7.64C15.84 7.56 15.92 7.5 16 7.5C16.09 7.5 16.16 7.56 16.17 7.64L18.58 22.92C18.74 23.92 19.24 24.83 20.01 25.48zM6 31A5 5 0 0 1 1 26V6A5 5 0 0 1 6 1H26A5 5 0 0 1 31 6V26A5 5 0 0 1 26 31H6zM3 26A3 3 0 0 0 6 29H26A3 3 0 0 0 29 26V6A3 3 0 0 0 26 3H6A3 3 0 0 0 3 6V26z" />
    <glyph glyph-name="articulated-lorry"
      unicode="&#xEA20;"
      horiz-adv-x="32" d="M11.007 18H8.993A0.999 0.999 0 0 1 8 17.002V14.998C8 14.449 8.447 14 8.993 14H11.007C11.553 14 12 14.45 12 14.998V17.002A0.999 0.999 0 0 1 11.007 18zM16.57 11H18.43C18.74 11 19 11.25 19 11.57V23.43A0.57 0.57 0 0 1 18.43 24H16.57A0.57 0.57 0 0 1 16 23.43V11.57C16 11.25 16.26 11 16.57 11zM21.068 11H22.932C23.251 11 23.5 11.25 23.5 11.57V23.43C23.5 23.75 23.24 24 22.932 24H21.068A0.569 0.569 0 0 1 20.5 23.43V11.57C20.5 11.25 20.76 11 21.068 11zM27.43 11H25.57A0.57 0.57 0 0 0 25 11.57V23.43C25 23.74 25.25 24 25.57 24H27.43C27.74 24 28 23.75 28 23.43V11.57C28 11.25 27.75 11 27.43 11zM16 27C14.348 27 13 25.652 13 24V21H12V22.61C12 23.3 11.33 23.78 10.68 23.56L7.9 22.63A2.775 2.775 0 0 1 6.187 21H5.607C4.86 21 4.157 20.587 3.811 19.898V19.896L1.411 15.078L1.408 15.071A4.125 4.125 0 0 1 1 13.3V7C1 5.897 1.899 5 3 5H4.337A3.5 3.5 0 0 1 10.663 5H14.337A3.5 3.5 0 0 1 20.663 5H21.327A3.5 3.5 0 0 1 27.653 5H29C30.118 5 31 5.904 31 7V24A3 3 0 0 1 28 27H16zM7.5 10A3.5 3.5 0 0 1 4.035 7H3V9.004C3.558 9.05 4 9.52 4 10.09V11.91C4 12.48 3.558 12.95 3 12.996V13.3C3 13.53 3.043 13.769 3.126 14H6C6.55 14 7 14.45 7 15V17C7 17.55 6.54 18.01 5.99 18.01H5.106L5.598 18.998L5.608 19H13V12A1 1 0 1 1 15 12V24C15 24.548 15.452 25 16 25H28A1 1 0 0 0 29 24V10.914A1.501 1.501 0 0 1 28.002 9.43A1.51 1.51 0 0 1 29 8.099V7H27.955A3.501 3.501 0 0 1 21.025 7H20.965A3.501 3.501 0 0 1 14.035 7H10.965A3.5 3.5 0 0 1 7.5 10zM7.5 5A1.5 1.5 0 1 0 7.5 8A1.5 1.5 0 0 0 7.5 5zM19 6.5A1.5 1.5 0 1 0 16 6.5A1.5 1.5 0 0 0 19 6.5zM26 6.5A1.5 1.5 0 1 0 23 6.5A1.5 1.5 0 0 0 26 6.5z" />
    <glyph glyph-name="artist-palette"
      unicode="&#xEA21;"
      horiz-adv-x="32" d="M24 13A3 3 0 1 1 24 19A3 3 0 0 1 24 13zM24 14A2 2 0 1 0 24 18A2 2 0 0 0 24 14zM16.5 23.25A2.25 2.25 0 1 0 12 23.25A2.25 2.25 0 0 0 16.5 23.25zM10.5 19.25A2.25 2.25 0 1 0 6 19.25A2.25 2.25 0 0 0 10.5 19.25zM8.25 10A2.25 2.25 0 1 1 8.25 14.5A2.25 2.25 0 0 1 8.25 10zM16 7.75A2.25 2.25 0 1 0 11.5 7.75A2.25 2.25 0 0 0 16 7.75zM16.2 1A16.717 16.717 0 0 0 8.36 3.622A15.045 15.045 0 0 0 1.412 12.787A13.032 13.032 0 0 0 2.859 22.78C6.616 28.98 15.038 30.813 22.447 27.036C26.866 24.781 30.171 20.845 30.865 17.006A6.8 6.8 0 0 0 29.253 10.986C27.095 8.63 24.31 8.663 22.286 8.686H22.279C20.934 8.71 20.094 8.686 19.893 8.286C19.963 7.978 20.085 7.682 20.253 7.413A3.916 3.916 0 0 0 20.044 2.606A4.7 4.7 0 0 0 16.2 1zM14.529 27A11.35 11.35 0 0 1 4.568 21.75A11.048 11.048 0 0 1 3.35 13.277A13.03 13.03 0 0 1 9.38 5.343C12.731 3.355 17.014 2.043 18.491 3.87C19.278 4.838 19.028 5.435 18.479 6.492A2.843 2.843 0 0 0 18.107 9.192C18.888 10.732 20.625 10.715 22.307 10.692C24.142 10.667 26.224 10.642 27.779 12.341A4.909 4.909 0 0 1 28.899 16.655C28.321 19.855 25.363 23.308 21.541 25.255A15.482 15.482 0 0 1 14.531 26.995L14.529 27z" />
    <glyph glyph-name="artist"
      unicode="&#xEA22;"
      horiz-adv-x="32" d="M9.235 8.445A1.24 1.24 0 1 0 6.755 8.445A1.24 1.24 0 0 0 9.235 8.445zM10.855 4.205A1.24 1.24 0 1 1 10.855 6.685A1.24 1.24 0 0 1 10.855 4.205zM8.235 4.555A1.24 1.24 0 1 0 5.755 4.555A1.24 1.24 0 0 0 8.235 4.555zM14.055 22.8C13.385 22.8 12.825 22.34 12.675 21.72C12.635 21.55 12.765 21.37 12.945 21.37H13.385A0.913 0.913 0 0 0 14.265 22.52A0.9 0.9 0 0 0 15.175 21.61C15.175 21.53 15.165 21.45 15.145 21.37H15.225C15.375 21.37 15.485 21.5 15.455 21.65A1.41 1.41 0 0 1 14.055 22.8zM18.945 22.8C19.615 22.8 20.175 22.34 20.325 21.72C20.365 21.54 20.235 21.37 20.055 21.37H19.615A0.913 0.913 0 0 1 18.735 22.52A0.913 0.913 0 0 1 17.855 21.37H17.775A0.23 0.23 0 0 0 17.545 21.65C17.675 22.31 18.255 22.8 18.945 22.8zM14.275 22.14A0.516 0.516 0 0 0 14.735 21.38H13.815A0.522 0.522 0 0 0 13.826 21.885A0.16 0.16 0 1 1 14.065 22.097A0.525 0.525 0 0 0 14.275 22.14zM18.735 22.14A0.527 0.527 0 0 1 18.552 22.107A0.16 0.16 0 1 0 18.307 21.918A0.52 0.52 0 0 1 18.275 21.38H19.195A0.516 0.516 0 0 1 18.735 22.14zM16.185 21.69L15.655 19.98C15.545 19.63 15.805 19.27 16.175 19.27H16.955C17.325 19.27 17.585 19.63 17.475 19.98L16.945 21.69C16.835 22.07 16.305 22.07 16.185 21.69zM15.025 18.68C15.455 18.45 15.965 18.32 16.505 18.32S17.555 18.45 17.985 18.68C18.125 18.75 18.285 18.59 18.195 18.45C17.835 17.9 17.215 17.53 16.505 17.53S15.175 17.9 14.815 18.45C14.725 18.59 14.875 18.76 15.025 18.68zM12.815 23.986A0.3 0.3 0 0 1 13.182 23.513L13.184 23.515L13.19 23.519L13.2 23.527C13.216 23.537 13.241 23.554 13.275 23.574A2.24 2.24 0 0 0 14.664 23.862A0.3 0.3 0 0 1 14.734 24.457A2.838 2.838 0 0 1 12.967 24.087A1.938 1.938 0 0 1 12.86 24.018L12.815 23.986zM20.245 23.566A0.3 0.3 0 0 1 20.193 23.986L20.191 23.988L20.188 23.99L20.178 23.997A1.24 1.24 0 0 1 20.041 24.087A2.838 2.838 0 0 1 18.274 24.457A0.3 0.3 0 0 1 18.344 23.863A2.24 2.24 0 0 0 19.734 23.574A1.37 1.37 0 0 0 19.824 23.515L19.826 23.513A0.3 0.3 0 0 1 20.246 23.566zM9.37 28.387A17.991 17.991 0 0 0 18.725 31A5.268 5.268 0 0 0 23.995 25.73C23.995 25.235 23.786 24.791 23.455 24.477V23.097C23.829 22.637 24.055 22.05 24.055 21.41C24.055 20.72 23.793 20.092 23.365 19.619V19.11A3.18 3.18 0 0 0 22.825 17.336C22.682 16.876 22.472 16.446 22.209 16.054C22.687 15.795 23.145 15.504 23.581 15.185A2.492 2.492 0 0 1 24.279 12.672C24.216 12.442 24.16 12.212 24.109 11.982A10.043 10.043 0 0 1 20.983 14.439A2.815 2.815 0 0 0 18.613 11.922C18.928 11.49 19.115 10.957 19.115 10.38V8.71A2.623 2.623 0 0 0 16.495 11.326A2.623 2.623 0 0 0 13.875 8.71V10.38C13.875 10.957 14.062 11.49 14.378 11.922A2.815 2.815 0 0 0 12.007 14.439A10.05 10.05 0 0 1 8.454 11.446A5.222 5.222 0 0 0 12.594 8.072L14.444 3H23.08C23.107 3.14 23.156 3.272 23.225 3.393A1.238 1.238 0 0 0 23.223 4.637A1.238 1.238 0 0 0 23.225 5.881A1.224 1.224 0 0 0 23.056 6.545C23.074 7.198 23.591 7.692 24.199 7.754A0.501 0.501 0 0 0 24.326 7.77H24.846A13.706 13.706 0 0 0 25.366 12.889A1.996 1.996 0 0 0 24.723 15.449C25.354 16.772 26.56 17.445 27.938 17.535H27.971C28.152 17.535 28.34 17.478 28.506 17.335L28.516 17.327A0.789 0.789 0 0 0 28.688 16.382L28.683 16.371L28.677 16.361C28.425 15.913 28.346 15.486 28.46 14.938L28.471 14.888V14.875A1.996 1.996 0 0 0 27.653 12.899C27.958 11.86 28.14 10.823 28.202 9.771A2.004 2.004 0 0 0 29.496 7.9V2.89A1.87 1.87 0 0 0 27.704 1.022A1.001 1.001 0 0 0 27.496 1H4.265A1 1 0 0 0 3.32 1.674L2.34 4.514L2.339 4.515C1.145 8 3.245 11.764 6.679 12.405A12.053 12.053 0 0 0 10.886 16.111A4.922 4.922 0 0 0 10.416 17.025A3.167 3.167 0 0 0 9.625 19.12V19.693A2.662 2.662 0 0 0 9 21.41C9 22.064 9.236 22.663 9.625 23.126V24.093A2.276 2.276 0 0 0 7.995 26.28C7.995 27.078 8.407 27.818 9.106 28.23L9.107 28.231L9.37 28.387zM13.379 3L11.655 7.728A4.217 4.217 0 0 1 7.412 10.49A0.933 0.933 0 0 0 7.357 10.483C5.04 10.257 3.363 7.7 4.231 5.164L4.978 3H13.378zM27.495 6.77H24.425A0.507 0.507 0 0 0 24.325 6.76C24.168 6.76 24.058 6.638 24.055 6.518V6.512A0.25 0.25 0 0 1 24.172 6.296A0.5 0.5 0 0 0 24.168 5.461A0.245 0.245 0 0 1 24.055 5.26C24.055 5.17 24.098 5.103 24.158 5.065A0.5 0.5 0 0 0 24.168 4.221A0.245 0.245 0 0 1 24.055 4.02C24.055 3.93 24.098 3.863 24.158 3.825A0.5 0.5 0 0 0 24.195 3H27.295C27.359 3.013 27.426 3.02 27.495 3.02V6.77zM27.179 10.036A13.126 13.126 0 0 1 26.579 12.987L26.51 13.199L26.439 12.979A13.088 13.088 0 0 1 25.837 10.036H27.179zM14.765 14.58A2.006 2.006 0 0 1 16.575 13.429C17.374 13.429 18.067 13.903 18.387 14.584A4.485 4.485 0 0 0 17.515 14.499H15.615A4.46 4.46 0 0 0 14.765 14.58zM11.79 24.5C11.793 24.424 11.797 24.348 11.803 24.27L11.804 24.263L12.183 18.491A3.475 3.475 0 0 1 15.615 15.5H17.515A3.467 3.467 0 0 1 20.947 18.49L21.307 24.272V24.284C21.316 24.356 21.322 24.428 21.326 24.5H11.79zM25.622 15.012L25.618 15.002L25.613 14.994A0.998 0.998 0 0 1 26.142 13.602L26.507 13.462L26.87 13.606A1 1 0 0 1 27.308 13.946A0.79 0.79 0 0 0 27.112 13.926C26.672 13.926 26.332 14.306 26.332 14.746C26.332 15.046 26.092 15.286 25.792 15.286H25.77A2.848 2.848 0 0 1 25.622 15.012z" />
    <glyph glyph-name="astonished-face"
      unicode="&#xEA23;"
      horiz-adv-x="32" d="M9.07 23.012C8.476 22.45 8.118 21.772 7.974 21.342A0.5 0.5 0 1 0 7.026 21.658C7.216 22.228 7.657 23.05 8.381 23.738C9.113 24.433 10.148 25 11.5 25A0.5 0.5 0 1 0 11.5 24C10.452 24 9.654 23.567 9.07 23.012zM12 15A2 2 0 1 1 12 19A2 2 0 0 1 12 15zM20 15A2 2 0 1 1 20 19A2 2 0 0 1 20 15zM22.93 23.012C23.524 22.45 23.882 21.772 24.026 21.342A0.5 0.5 0 1 1 24.974 21.658C24.784 22.228 24.343 23.05 23.619 23.738C22.887 24.433 21.852 25 20.5 25A0.5 0.5 0 1 1 20.5 24C21.548 24 22.346 23.567 22.93 23.012zM13 11A3 3 0 1 0 19 11V9A3 3 0 1 0 13 9V11zM15.999 31C11.095 31 7.313 29.346 4.763 26.577C2.226 23.822 1 20.062 1 16.001C1 11.94 2.226 8.181 4.763 5.425C7.313 2.656 11.095 1.002 15.999 1.002C20.903 1.002 24.685 2.656 27.234 5.425C29.771 8.18 30.998 11.94 30.998 16.001C30.998 20.062 29.771 23.822 27.234 26.577C24.684 29.346 20.903 31 16 31zM3 16.001C3 19.671 4.106 22.911 6.235 25.222C8.35 27.52 11.568 29 15.999 29C20.429 29 23.647 27.52 25.763 25.222C27.892 22.911 28.998 19.672 28.998 16.002C28.998 12.331 27.892 9.092 25.763 6.78C23.647 4.482 20.43 3.002 15.999 3.002C11.569 3.002 8.351 4.482 6.235 6.78C4.105 9.09 3 12.33 3 16z" />
    <glyph glyph-name="astronaut"
      unicode="&#xEA24;"
      horiz-adv-x="32" d="M15.17 19.69L15.7 21.4C15.81 21.78 16.35 21.78 16.46 21.4L16.99 19.69C17.1 19.34 16.84 18.98 16.47 18.98H15.69C15.32 18.98 15.06 19.34 15.17 19.69zM16.01 18.02C15.47 18.02 14.96 18.15 14.53 18.38C14.38 18.46 14.23 18.29 14.32 18.15C14.68 17.6 15.3 17.23 16.01 17.23S17.34 17.6 17.7 18.15C17.79 18.29 17.63 18.46 17.49 18.38C17.06 18.15 16.55 18.02 16.01 18.02zM19.655 23.636L19.52 23.46L19.643 23.621L19.339 23.221L19.336 23.224L19.319 23.236A2.113 2.113 0 0 1 18.939 23.432A2.234 2.234 0 0 1 17.855 23.572A0.3 0.3 0 0 0 17.785 24.167A2.833 2.833 0 0 0 19.657 23.73L19.688 23.708L19.698 23.701L19.7 23.699H19.702L19.655 23.636zM19.643 23.621L19.645 23.623L19.702 23.698A0.3 0.3 0 0 0 19.339 23.222L19.644 23.621zM12.51 23.46L12.328 23.698A0.3 0.3 0 0 1 12.691 23.222L12.694 23.224A1.048 1.048 0 0 0 12.787 23.284A2.235 2.235 0 0 0 14.175 23.574A0.3 0.3 0 0 1 14.245 24.167A2.833 2.833 0 0 1 12.373 23.73A1.196 1.196 0 0 1 12.342 23.708L12.332 23.701L12.33 23.699H12.328L12.51 23.46zM13.57 22.51C12.9 22.51 12.34 22.05 12.18 21.43C12.14 21.25 12.27 21.08 12.45 21.08H12.9A0.913 0.913 0 0 0 13.78 22.23A0.913 0.913 0 0 0 14.66 21.08H14.73C14.88 21.08 14.99 21.21 14.96 21.36C14.84 22.01 14.26 22.51 13.57 22.51zM18.46 22.51C19.13 22.51 19.69 22.05 19.85 21.43C19.89 21.25 19.76 21.08 19.58 21.08H19.13A0.913 0.913 0 0 1 18.25 22.23A0.9 0.9 0 0 1 17.34 21.32C17.34 21.24 17.35 21.16 17.37 21.08H17.3A0.23 0.23 0 0 0 17.07 21.36C17.18 22.01 17.76 22.51 18.46 22.51zM13.78 21.84A0.516 0.516 0 0 0 14.24 21.08H13.32A0.522 0.522 0 0 0 13.331 21.585A0.16 0.16 0 1 1 13.57 21.797A0.526 0.526 0 0 0 13.78 21.84zM18.24 21.84A0.528 0.528 0 0 1 18.057 21.808A0.16 0.16 0 1 0 17.812 21.618A0.52 0.52 0 0 1 17.72 21.32C17.72 21.24 17.75 21.15 17.78 21.08H18.7A0.516 0.516 0 0 1 18.24 21.84zM21.14 15.51A7.484 7.484 0 0 0 15.64 13.489A7.47 7.47 0 0 0 11.487 15A7.504 7.504 0 0 0 8.5 20.99C8.5 25.13 11.87 28.5 16.01 28.5S23.52 25.13 23.52 20.99A7.47 7.47 0 0 0 23.016 18.285A7.54 7.54 0 0 0 21.139 15.51zM20.98 18.13L21.34 23.92L21.345 23.959A12.01 12.01 0 0 1 16.01 25.199C14.145 25.199 12.382 24.777 10.81 24.024L10.82 23.92L11.2 18.13A3.96 3.96 0 0 1 15.13 14.69H16.542A0.924 0.924 0 0 0 17.15 15.09A6.015 6.015 0 0 1 19.805 16.34H18.03C17.76 16.34 17.53 16.56 17.53 16.84S17.75 17.34 18.03 17.34H20.775L20.806 17.38C20.887 17.62 20.946 17.87 20.98 18.13zM15.07 8.01A1.06 1.06 0 1 0 12.95 8.01A1.06 1.06 0 0 0 15.07 8.01zM18.01 6.95A1.06 1.06 0 1 1 18.01 9.07A1.06 1.06 0 0 1 18.01 6.95zM6.451 23.973A10.008 10.008 0 0 0 16.01 31C20.495 31 24.297 28.046 25.568 23.973C26.399 23.783 27.02 23.039 27.02 22.15V18.89A1.87 1.87 0 0 0 25.203 17.02A10.004 10.004 0 0 0 23.638 14.505C23.985 14.018 24.169 13.424 24.191 12.841A11.957 11.957 0 0 0 28.02 4.06V2.01A1 1 0 0 0 27.02 1.01H5A1 1 0 0 0 4 2.01V4.06C4 7.528 5.474 10.65 7.822 12.84C7.842 13.425 8.027 14.022 8.377 14.51A10.005 10.005 0 0 0 6.817 17.02A1.87 1.87 0 0 0 5 18.89V22.15C5 23.038 5.62 23.783 6.451 23.973zM16.01 29A8.007 8.007 0 0 1 8.204 22.796A1 1 0 0 0 7.229 22.02H7V19.02H7.5A1 1 0 0 0 8.444 18.35A8.008 8.008 0 0 1 10.502 15.171A1 1 0 0 0 10.226 13.533C10.006 13.434 9.755 13.049 9.832 12.574C9.838 12.542 9.842 12.509 9.843 12.476A10.48 10.48 0 0 1 16.01 10.47C18.313 10.47 20.439 11.21 22.171 12.472C22.173 12.504 22.176 12.537 22.181 12.569C22.257 13.047 22.005 13.435 21.788 13.534A1 1 0 0 0 21.516 15.17A8.01 8.01 0 0 1 23.576 18.35A1 1 0 0 0 24.52 19.02H25.02V22.02H24.79A1 1 0 0 0 23.816 22.796A8.016 8.016 0 0 1 16.01 29zM7.03 5.3C7.22 5.3 7.37 5.15 7.37 4.96V3.34A0.338 0.338 0 0 0 7.12 3.01H11.5V5.2C11.5 5.65 11.87 6.02 12.32 6.02H19.69C20.15 6.02 20.51 5.66 20.51 5.2V3.01H26.02V4.06A9.962 9.962 0 0 1 22.622 11.564A11.417 11.417 0 0 0 16.01 9.47C13.547 9.47 11.267 10.253 9.396 11.567A9.986 9.986 0 0 1 6.076 5.3H7.03z" />
    <glyph glyph-name="atm-sign"
      unicode="&#xEA25;"
      horiz-adv-x="32" d="M12.24 19.75A0.75 0.75 0 0 1 12.24 18.25H14.23V13.48A0.75 0.75 0 0 1 15.73 13.48V18.25H17.71A0.75 0.75 0 0 1 17.71 19.75H12.24zM26.847 19.595A0.752 0.752 0 0 0 27.14 19V13.48A0.75 0.75 0 0 0 25.64 13.48V17.19L23.97 15.52A0.748 0.748 0 0 0 23.435 15.3A0.748 0.748 0 0 0 22.899 15.52L21.24 17.185V13.48A0.75 0.75 0 0 0 19.74 13.48V19A0.753 0.753 0 0 0 20.203 19.693A0.746 0.746 0 0 0 21.021 19.529L23.436 17.107L25.86 19.53A0.748 0.748 0 0 0 26.378 19.75H26.39A0.747 0.747 0 0 0 26.847 19.595zM9.028 19.121C8.808 19.586 8.338 19.693 8.075 19.693C7.813 19.693 7.342 19.586 7.122 19.121L4.678 13.793A0.75 0.75 0 0 1 6.042 13.167L6.447 14.05H9.703L10.108 13.167A0.75 0.75 0 0 1 11.472 13.793L9.032 19.113L9.028 19.121zM9.015 15.55H7.135L8.075 17.6L9.015 15.55zM6 31A5 5 0 0 1 1 26V6A5 5 0 0 1 6 1H26A5 5 0 0 1 31 6V26A5 5 0 0 1 26 31H6zM3 26A3 3 0 0 0 6 29H26A3 3 0 0 0 29 26V6A3 3 0 0 0 26 3H6A3 3 0 0 0 3 6V26z" />
    <glyph glyph-name="atom-symbol"
      unicode="&#xEA26;"
      horiz-adv-x="32" d="M17.75 16A1.75 1.75 0 1 0 14.25 16A1.75 1.75 0 0 0 17.75 16zM20.173 8.771C19.22 5.871 17.707 3.996 16.003 3.996C14.299 3.996 12.784 5.87 11.83 8.772C8.84 8.147 6.46 8.52 5.608 9.996C4.756 11.472 5.622 13.72 7.658 15.996C5.622 18.272 4.756 20.52 5.608 21.996C6.46 23.472 8.839 23.846 11.828 23.221C12.78 26.121 14.293 27.996 15.997 27.996C17.701 27.996 19.216 26.122 20.17 23.221C23.16 23.845 25.54 23.472 26.392 21.996C27.244 20.52 26.378 18.272 24.342 15.996C26.378 13.72 27.244 11.472 26.392 9.996C25.541 8.52 23.161 8.146 20.172 8.771zM15.015 6.015C15.449 5.593 15.78 5.495 16.003 5.495C16.225 5.496 16.557 5.593 16.991 6.015C17.431 6.444 17.897 7.137 18.321 8.11C18.461 8.431 18.592 8.776 18.715 9.14A22.962 22.962 0 0 0 16 10.146C15.073 9.737 14.163 9.402 13.288 9.143C13.411 8.777 13.543 8.432 13.684 8.11C14.108 7.137 14.574 6.444 15.014 6.015zM17.81 11.026C18.258 10.859 18.698 10.711 19.126 10.584C19.229 11.018 19.321 11.472 19.4 11.944A27.68 27.68 0 0 0 17.81 11.026zM23.293 14.919A22.991 22.991 0 0 0 21.068 13.071A22.944 22.944 0 0 0 20.581 10.218C20.959 10.142 21.323 10.084 21.671 10.045C22.726 9.925 23.558 9.982 24.151 10.15C24.732 10.315 24.982 10.554 25.093 10.746C25.204 10.939 25.286 11.274 25.138 11.861C24.988 12.457 24.62 13.207 23.989 14.061C23.781 14.343 23.549 14.629 23.293 14.919zM23.293 17.073C23.548 17.363 23.781 17.65 23.989 17.931C24.62 18.785 24.987 19.535 25.138 20.131C25.286 20.718 25.204 21.053 25.093 21.246C24.983 21.439 24.733 21.677 24.15 21.842C23.558 22.01 22.725 22.067 21.67 21.947C21.322 21.907 20.957 21.85 20.578 21.773C20.791 20.885 20.957 19.929 21.067 18.923C21.884 18.323 22.63 17.702 23.293 17.073zM21.209 16.913A28.029 28.029 0 0 0 21.209 15.079C21.578 15.383 21.925 15.689 22.249 15.996A20.251 20.251 0 0 1 21.209 16.914zM19.398 20.049C19.319 20.52 19.228 20.974 19.124 21.408C18.696 21.281 18.257 21.133 17.81 20.966A27.958 27.958 0 0 0 19.398 20.049zM16 21.847A22.961 22.961 0 0 0 18.712 22.85A12.891 12.891 0 0 1 18.316 23.883C17.892 24.856 17.426 25.549 16.986 25.977C16.551 26.399 16.22 26.496 15.997 26.496C15.775 26.496 15.443 26.399 15.009 25.976C14.569 25.548 14.103 24.856 13.679 23.882C13.539 23.561 13.408 23.216 13.285 22.852C14.161 22.592 15.072 22.256 16 21.847zM11.42 21.774A12.865 12.865 0 0 1 10.33 21.947C9.275 22.067 8.442 22.01 7.85 21.842C7.268 21.677 7.018 21.439 6.907 21.246C6.796 21.053 6.714 20.718 6.862 20.131C7.012 19.535 7.38 18.785 8.011 17.931C8.219 17.65 8.451 17.363 8.707 17.073A22.963 22.963 0 0 0 10.932 18.921C11.042 19.929 11.207 20.885 11.419 21.774zM8.707 14.919C8.452 14.629 8.219 14.343 8.011 14.061C7.38 13.207 7.013 12.457 6.862 11.861C6.714 11.274 6.796 10.939 6.907 10.746C7.017 10.554 7.267 10.315 7.85 10.15C8.442 9.982 9.275 9.925 10.33 10.045C10.678 10.085 11.043 10.142 11.421 10.219A22.983 22.983 0 0 0 10.933 13.07A22.97 22.97 0 0 0 8.707 14.919zM10.791 15.079A28.004 28.004 0 0 0 10.791 16.913C10.422 16.609 10.075 16.303 9.751 15.996C10.075 15.689 10.422 15.383 10.791 15.078zM12.361 13.895A25.894 25.894 0 0 1 16.001 11.794A25.881 25.881 0 0 1 19.64 13.895A25.864 25.864 0 0 1 19.639 18.098A25.913 25.913 0 0 1 16 20.198A25.862 25.862 0 0 1 12.36 18.097A25.867 25.867 0 0 1 12.361 13.895zM12.602 11.943C12.681 11.472 12.772 11.018 12.876 10.584C13.304 10.712 13.743 10.859 14.19 11.026A27.824 27.824 0 0 0 12.602 11.943zM12.874 21.408C12.771 20.974 12.679 20.52 12.6 20.048A28.307 28.307 0 0 0 14.19 20.966A20.239 20.239 0 0 1 12.874 21.408zM6 31A5 5 0 0 1 1 26V6A5 5 0 0 1 6 1H26A5 5 0 0 1 31 6V26A5 5 0 0 1 26 31H6zM3 26A3 3 0 0 0 6 29H26A3 3 0 0 0 29 26V6A3 3 0 0 0 26 3H6A3 3 0 0 0 3 6V26z" />
    <glyph glyph-name="auto-rickshaw"
      unicode="&#xEA27;"
      horiz-adv-x="32" d="M28 5.5A1.5 1.5 0 1 0 25 5.5A1.5 1.5 0 0 0 28 5.5zM9.92 26C8.77 26 7.74 25.26 7.38 24.17C7.35 24.09 7.41 24 7.5 24H9.648L7.322 17H7.314L6.98 16H6.99L6.94 15.853A0.474 0.474 0 0 1 6.934 15.83L6.69 15.1A5.33 5.33 0 0 1 6.629 11.922C6.256 11.776 5.99 11.412 5.99 10.99V10.472A4.5 4.5 0 0 1 2 6.17C2 6.08 2.07 6 2.17 6H3.035A3.5 3.5 0 1 1 9.97 5.04L9.99 5H23.025A3.501 3.501 0 1 1 28.99 7.95V9C28.44 9 27.99 9.45 27.99 10V11.69C27.99 11.86 28.13 12 28.3 12H29V13H28.996V21.07C29.006 23.79 26.78 26 24.06 26H9.92zM10.702 24H11V19.33C11 18.04 9.96 17 8.67 17H8.375L10.702 24zM23.98 24V13H22.46C21.65 13 20.99 12.34 20.99 11.53V8H18.99V24H23.98zM12.98 24H17.99V13H16.46C15.65 13 14.99 12.34 14.99 11.53V8H12.99V16H12.98V24zM4 5.5C4 5.671 4.017 5.838 4.05 6H5.085A1.5 1.5 0 1 1 7.915 6H8.95A2.5 2.5 0 1 0 4 5.5zM6.99 8.98V11.99H8.5C9.33 11.99 10.01 11.32 10.01 10.48C10 9.66 9.33 8.98 8.5 8.98H6.99zM26.49 3A2.5 2.5 0 1 0 26.49 8A2.5 2.5 0 0 0 26.49 3z" />
    <glyph glyph-name="automobile"
      unicode="&#xEA28;"
      horiz-adv-x="32" d="M18.97 14H23.01C23.54 14 23.97 14.43 23.97 14.96V19.04A0.96 0.96 0 0 1 23.01 20H18.97A0.96 0.96 0 0 1 18.01 19.04V14.96C18.01 14.43 18.44 14 18.97 14zM14.98 23H14.942C13.55 22.947 12.283 22.203 11.522 21.072L11.175 20.566L11.169 20.556L7.456 15H4.88A3.882 3.882 0 0 1 1.177 12.304A1.001 1.001 0 0 1 1.143 12.163C1.03 11.763 1 11.343 1 10.73V7.39A2.387 2.387 0 0 1 3.39 5H5.357A3.5 3.5 0 0 1 11.683 5H20.337A3.5 3.5 0 0 1 26.663 5H28.61A2.387 2.387 0 0 1 31 7.39V12.49C31 13.065 30.944 13.635 30.843 14.18A0.987 0.987 0 0 1 30.811 14.31A8.881 8.881 0 0 1 30.408 15.767L28.77 20.13A2.875 2.875 0 0 1 28.676 20.361A4.41 4.41 0 0 1 24.64 23H14.98zM29 8H26.663A3.5 3.5 0 0 1 20.337 8H11.683A3.5 3.5 0 0 1 5.357 8H3V9C3.545 9.005 3.99 9.453 3.99 10V11C3.99 11.478 3.65 11.881 3.199 11.978A1.885 1.885 0 0 0 4.88 13H7.98A1 1 0 0 1 8.74 13.349L8.784 13.402A0.999 0.999 0 0 1 8.857 13.497L9.193 14H15.03C15.56 14 15.99 14.43 15.99 14.96V19.04A0.96 0.96 0 0 1 15.03 20H13.213A2.344 2.344 0 0 0 15 21H24.639A2.41 2.41 0 0 0 26.641 19.928C26.255 19.775 25.979 19.397 25.979 18.96V14.96C25.979 14.43 26.409 14 26.939 14H28.833L28.858 13.864A1 1 0 0 1 28.892 13.724C28.962 13.32 28.999 12.904 28.999 12.49V11.918A1.501 1.501 0 0 1 27.989 10.43C28.019 9.808 28.439 9.298 28.999 9.095V8zM8.5 5A1.5 1.5 0 1 0 8.5 8A1.5 1.5 0 0 0 8.5 5zM23.5 5A1.5 1.5 0 1 0 23.5 8A1.5 1.5 0 0 0 23.5 5z" />
    <glyph glyph-name="avocado"
      unicode="&#xEA29;"
      horiz-adv-x="32" d="M17.65 15.67A4.36 4.36 0 1 0 8.93 15.67A4.36 4.36 0 0 0 17.65 15.67zM27.42 26.12L25.56 27.98A6.933 6.933 0 0 1 20.66 30C18.82 30 17.08 29.28 15.78 27.98L15.6 27.79C14.65 26.84 13.38 26.25 12.03 26.13C9.44 25.91 7.01 24.78 5.18 22.95A10.788 10.788 0 0 1 2 15.28A10.771 10.771 0 0 1 5.466 7.334L7.74 5.06A10.441 10.441 0 0 1 22.51 5.06C24.28 6.83 25.37 9.17 25.58 11.67C25.622 12.166 25.62 12.658 25.617 13.138C25.609 14.487 25.602 15.742 26.59 16.73L27.42 17.56A6.06 6.06 0 0 1 27.42 26.12zM6.22 8.66C5.97 8.91 5.737 9.17 5.521 9.44L5.529 9.408A9.368 9.368 0 0 0 6.197 21.887L6.22 21.91A9.53 9.53 0 0 0 12.16 24.67C13.85 24.81 15.44 25.55 16.64 26.75L16.827 26.937A5.382 5.382 0 0 0 20.649 28.53A5.432 5.432 0 0 0 24.51 19.26L24.32 19.07A7.247 7.247 0 0 1 22.23 14.6A9.53 9.53 0 0 0 19.47 8.66A9.367 9.367 0 0 0 6.22 8.66z" />
    <glyph glyph-name="axe"
      unicode="&#xEA2A;"
      horiz-adv-x="32" d="M14.384 30.15A1.69 1.69 0 0 1 12.079 30.776L10.399 29.806C9.575 29.331 9.343 28.274 9.789 27.476L8.869 26.946A3.709 3.709 0 0 0 6.787 26.457L6.095 26.51H6.058C5.605 26.51 5.16 26.281 4.91 25.864L4.902 25.851L4.895 25.837A7.008 7.008 0 0 1 10.938 15.409C11.447 15.409 11.865 15.698 12.085 16.065L12.415 16.727A3.705 3.705 0 0 0 13.876 18.293L14.789 18.819L20.843 8.337C21.185 7.749 21.368 7.072 21.368 6.399V4.529A3.527 3.527 0 0 1 24.898 0.999C25.586 0.999 26.26 1.193 26.849 1.563A3.641 3.641 0 0 1 28.062 6.483L19.378 21.508C19.881 21.963 20.15 22.751 19.718 23.468L16.284 29.42C15.874 30.112 15.074 30.317 14.412 30.102L14.384 30.15zM17.664 20.477L26.334 5.474A1.641 1.641 0 0 0 25.786 3.256C25.515 3.086 25.209 3 24.898 3C24.05 3 23.368 3.682 23.368 4.53V6.4C23.368 7.427 23.091 8.45 22.573 9.34L16.522 19.818L17.664 20.477zM25.757 4.151A0.996 0.996 0 0 1 25.828 5.144A1 1 0 1 1 25.757 4.151zM14.77 28.04L17.768 22.845L12.878 20.025A5.692 5.692 0 0 1 10.781 17.913A4.508 4.508 0 0 0 7.098 20.158A4.49 4.49 0 0 0 6.989 24.449A5.713 5.713 0 0 1 9.866 25.212L14.77 28.04z" />
    <glyph glyph-name="b-button-blood-type"
      unicode="&#xEA2B;"
      horiz-adv-x="32" d="M10.005 22.254A1.75 1.75 0 0 0 11.755 24H16.179C18.875 24 21.109 21.842 21.109 19.12C21.109 18.334 20.923 17.594 20.592 16.94A0.27 0.27 0 0 1 20.662 16.612A4.84 4.84 0 0 0 22.438 12.862C22.438 10.164 20.243 8.02 17.579 7.982C17.539 7.979 17.498 7.978 17.456 7.978H11.726A1.75 1.75 0 0 0 9.976 9.732L10.005 22.254zM16.179 14.241H13.736A0.25 0.25 0 0 1 13.486 13.991L13.481 11.729C13.481 11.59 13.593 11.478 13.731 11.478H17.392C17.43 11.48 17.469 11.482 17.507 11.482C18.324 11.482 18.937 12.126 18.937 12.862C18.937 13.597 18.324 14.241 17.507 14.241H16.18zM17.609 19.121C17.609 19.856 16.995 20.5 16.179 20.5H13.75A0.25 0.25 0 0 1 13.5 20.25L13.495 17.992C13.495 17.853 13.607 17.741 13.745 17.741H16.204C17.008 17.754 17.609 18.392 17.609 19.121zM6 31A5 5 0 0 1 1 26V6A5 5 0 0 1 6 1H26A5 5 0 0 1 31 6V26A5 5 0 0 1 26 31H6zM3 26A3 3 0 0 0 6 29H26A3 3 0 0 0 29 26V6A3 3 0 0 0 26 3H6A3 3 0 0 0 3 6V26z" />
    <glyph glyph-name="baby-angel"
      unicode="&#xEA2C;"
      horiz-adv-x="32" d="M15.95 7.61C14.92 7.61 13.96 7.86 13.14 8.28C12.86 8.43 12.57 8.11 12.74 7.85A3.818 3.818 0 0 1 19.16 7.85C19.33 8.11 19.04 8.43 18.76 8.28C17.94 7.86 16.98 7.61 15.95 7.61zM16.94 9.48C16.71 9.15 16.33 8.93 15.89 8.93C15.46 8.93 15.07 9.15 14.84 9.48A0.46 0.46 0 0 0 15.22 10.2H16.56C16.93 10.2 17.15 9.78 16.94 9.48zM11.72 12.53C12.37 12.53 12.89 12.01 12.89 11.36C12.89 11.16 12.84 10.98 12.75 10.82H10.68A1.196 1.196 0 0 0 10.67 11.88A0.36 0.36 0 0 1 11.169 12.395C11.333 12.481 11.52 12.53 11.72 12.53zM11.25 14.01C9.75 14.01 8.49 12.98 8.15 11.59C8.05 11.19 8.36 10.81 8.77 10.81H13.87C14.2 10.81 14.46 11.11 14.39 11.43A3.199 3.199 0 0 1 11.25 14.01zM11.72 13.4C10.59 13.4 9.67 12.48 9.67 11.35C9.67 11.16 9.7 10.98 9.75 10.81H13.69C13.74 10.98 13.77 11.16 13.77 11.35C13.77 12.49 12.85 13.4 11.72 13.4zM19.096 12.026A1.17 1.17 0 0 1 18.89 11.36C18.89 11.16 18.94 10.98 19.03 10.82H21.1C21.18 10.98 21.23 11.16 21.23 11.36C21.23 12.01 20.71 12.53 20.06 12.53C19.911 12.53 19.77 12.503 19.64 12.453A0.36 0.36 0 1 0 19.096 12.026zM20.53 14.01C22.03 14.01 23.29 12.98 23.63 11.59C23.73 11.19 23.42 10.81 23.01 10.81H17.91C17.58 10.81 17.32 11.11 17.39 11.43A3.207 3.207 0 0 0 20.53 14.01zM20.06 13.4C21.19 13.4 22.11 12.48 22.11 11.35C22.11 11.16 22.08 10.98 22.03 10.81H18.09C18.04 10.98 18.01 11.16 18.01 11.35C18.01 12.49 18.93 13.4 20.06 13.4zM12.358 15.638C11.445 15.721 10.752 15.59 10.262 15.421A0.464 0.464 0 0 0 9.959 16.299C10.569 16.509 11.395 16.659 12.443 16.562A0.464 0.464 0 1 0 12.358 15.638zM19.448 16.562C20.495 16.659 21.322 16.51 21.932 16.299A0.464 0.464 0 1 0 21.629 15.421C21.139 15.591 20.445 15.721 19.533 15.638A0.464 0.464 0 1 0 19.448 16.562zM7.834 24.45C7.267 24.958 6.95 25.528 6.95 26.13C6.95 28.27 10.96 30 15.91 30C20.87 30 24.89 28.27 24.89 26.13C24.89 25.536 24.581 24.974 24.028 24.47C26.126 22.386 27.197 19.37 26.906 16.315L26.904 16.303L26.761 14.973A4.011 4.011 0 0 0 25.905 7.628A8.561 8.561 0 0 0 25.364 6.04H27.91C28.14 6.04 28.33 5.85 28.33 5.62C28.33 4.74 27.61 4.02 26.72 4.02H26.31C26.54 4.02 26.73 3.83 26.73 3.6C26.73 2.72 26.01 2 25.13 2H22.82C23.37 2 23.82 2.45 23.82 3V3.75A7.676 7.676 0 0 0 20.604 1.727H20.601A15.42 15.42 0 0 0 11.278 1.727H11.276A7.693 7.693 0 0 0 8.07 3.737V3C8.07 2.45 8.52 2 9.07 2H6.76C5.88 2 5.16 2.72 5.16 3.6C5.16 3.83 5.35 4.02 5.58 4.02H5.17C4.28 4.02 3.56 4.74 3.56 5.62C3.56 5.85 3.75 6.04 3.98 6.04H6.512A8.503 8.503 0 0 0 5.972 7.631A4.011 4.011 0 0 0 5.12 14.967L4.976 16.303L4.974 16.318C4.694 19.362 5.757 22.367 7.834 24.45zM15.91 28.5C13.75 28.5 11.65 28.13 10.17 27.49C8.92 26.95 8.45 26.37 8.45 26.13C8.45 25.99 8.606 25.731 8.986 25.433A8.958 8.958 0 0 0 13.448 27.107A3.925 3.925 0 0 0 16 28A3.938 3.938 0 0 0 18.44 27.106A8.956 8.956 0 0 0 22.862 25.456C23.227 25.745 23.38 25.993 23.38 26.13C23.38 26.37 22.91 26.95 21.66 27.49C20.17 28.13 18.07 28.5 15.91 28.5zM17.44 23.09A2.957 2.957 0 0 1 16.64 25.14H14.21A6.937 6.937 0 0 1 9.988 23.686C7.878 22.068 6.708 19.334 6.965 16.509L7.185 14.457A1 1 0 0 0 6.493 13.397A2.011 2.011 0 0 1 6.917 9.478A1 1 0 0 0 7.817 8.626C8.165 6.243 9.765 4.31 11.884 3.633C14.526 2.796 17.344 2.796 19.997 3.633C22.113 4.309 23.707 6.241 24.062 8.628A1 1 0 0 0 24.966 9.478A2.01 2.01 0 0 1 25.391 13.399A1 1 0 0 0 24.695 14.46L24.915 16.51C25.182 19.334 24.013 22.067 21.893 23.685L21.892 23.686A7.102 7.102 0 0 1 19.832 24.786A3.968 3.968 0 0 0 17.211 20.29A0.506 0.506 0 0 0 16.68 21.11C17.15 21.64 17.43 22.33 17.44 23.09z" />
    <glyph glyph-name="baby-bottle"
      unicode="&#xEA2D;"
      horiz-adv-x="32" d="M9.3 10.68L15.55 4.43A3.223 3.223 0 0 1 20.11 4.43L27.54 11.86A3.223 3.223 0 0 1 27.54 16.42L23.55 20.45A0.62 0.62 0 0 1 22.79 20.54L9.54 12.64C8.85 12.22 8.73 11.26 9.3 10.68zM14.99 14.17C15.29 14.47 15.76 14.47 16.05 14.17C16.34 13.88 16.34 13.4 16.05 13.11L14.28 11.34C13.99 11.05 13.51 11.05 13.22 11.34A0.754 0.754 0 0 0 13.22 12.4L14.99 14.17zM18.35 10.82C18.65 11.11 19.12 11.11 19.41 10.82C19.7 10.53 19.7 10.05 19.41 9.76L17.64 7.99C17.35 7.7 16.87 7.7 16.58 7.99A0.754 0.754 0 0 0 16.58 9.05L18.35 10.82zM9.86 15.76L11.63 17.53C11.93 17.83 12.4 17.83 12.69 17.53C12.98 17.24 12.98 16.76 12.69 16.47L10.92 14.7C10.63 14.41 10.15 14.41 9.86 14.7A0.754 0.754 0 0 0 9.86 15.76zM6.27 28.7L5.59 29.38A2.1 2.1 0 0 1 2.62 26.41L3.3 25.73C3.56 25.47 3.66 25.08 3.54 24.72L3 23.11C2.76 22.4 2.95 21.62 3.48 21.1L4.1 20.47L4.05 20.42A0.99 0.99 0 0 1 4.05 19.03L4.157 18.923A5.206 5.206 0 0 1 4.452 12.023L4.457 12.018L13.803 2.673A5.726 5.726 0 0 1 21.907 2.673L29.337 10.103A5.726 5.726 0 0 1 29.337 18.207L19.962 27.582L19.917 27.605A5.206 5.206 0 0 1 13.066 27.835L12.96 27.94C12.58 28.33 11.96 28.33 11.58 27.95L11.53 27.9L10.9 28.52C10.38 29.05 9.6 29.24 8.89 29L7.28 28.46C6.92 28.34 6.53 28.44 6.27 28.7zM14.097 26.073A3.205 3.205 0 0 0 18.579 26.117L18.916 25.78H18.936L27.923 16.793A3.726 3.726 0 0 0 27.923 11.517L20.493 4.087A3.726 3.726 0 0 0 15.217 4.087L5.883 13.421A3.205 3.205 0 0 0 5.927 17.903L14.097 26.073z" />
    <glyph glyph-name="baby-chick"
      unicode="&#xEA2E;"
      horiz-adv-x="32" d="M9.5 19.17A1.5 1.5 0 1 1 9.5 22.171A1.5 1.5 0 0 1 9.5 19.171zM3 18.01L1.73 18.98A1.795 1.795 0 0 0 1.708 21.853L3.483 23.348A8.485 8.485 0 0 0 11.48 29A8.473 8.473 0 0 0 19.668 22.738L29.284 20.218A2.295 2.295 0 0 0 31 18C31 10.91 25.731 5.052 18.895 4.127L18.77 3.5H20.55C21.28 3.5 21.89 2.98 22.03 2.29C22.06 2.14 21.94 2 21.78 2H9.25C9.09 2 8.97 2.14 9.01 2.29C9.15 2.98 9.75 3.5 10.48 3.5H12.28L12.526 4.73C6.988 6.596 3 11.832 3 18V18.01zM15.52 3.5H17.27L17.371 4.005A14.05 14.05 0 0 0 13.947 4.335L13.78 3.5H15.52zM11.48 27A6.481 6.481 0 0 1 5 20.52V18C5 11.372 10.372 6 17 6C19.291 6 21.433 6.642 23.253 7.756A9.092 9.092 0 0 0 21.269 7.5H21.26C17.927 7.5 14.354 9.15 12.486 11.949A0.5 0.5 0 0 0 13.318 12.504C14.973 10.024 18.208 8.501 21.255 8.5A8.143 8.143 0 0 1 26.209 10.306A11.952 11.952 0 0 1 29 18A0.294 0.294 0 0 1 28.776 18.283L19.116 20.815A1.963 1.963 0 0 0 17.747 22.179L17.745 22.186L17.743 22.193A6.473 6.473 0 0 1 11.48 27z" />
    <glyph glyph-name="baby-symbol"
      unicode="&#xEA2F;"
      horiz-adv-x="32" d="M19.5 23.5A3.5 3.5 0 1 0 12.5 23.5A3.5 3.5 0 0 0 19.5 23.5zM12.901 8.401A0.25 0.25 0 0 0 12.905 8.743L13.171 9.02A0.5 0.5 0 0 1 13.156 9.727L12.073 10.765A0.5 0.5 0 0 1 11.366 10.75L10.776 10.135A2.25 2.25 0 0 1 10.741 7.059L12.453 5.188A1.25 1.25 0 1 1 14.297 6.875L12.901 8.4zM19.062 8.401A0.25 0.25 0 0 1 19.058 8.743L18.792 9.02A0.5 0.5 0 0 0 18.807 9.727L19.89 10.765A0.5 0.5 0 0 0 20.597 10.75L21.187 10.135C22.007 9.279 22.023 7.934 21.223 7.059L19.511 5.188A1.25 1.25 0 1 0 17.666 6.875L19.062 8.401zM12.744 18.707A1 1 0 0 0 13.45 19H18.548A1 1 0 0 0 19.255 18.707L21.033 16.929L22.594 18.489L22.609 18.475A1 1 0 0 0 23.998 17.086L24.008 17.076L23.928 16.996A0.997 0.997 0 0 0 23.82 16.887L21.74 14.807A1 1 0 0 0 20.326 14.807L19 16.136V14.5A0.5 0.5 0 0 0 18.5 14H13.5A0.5 0.5 0 0 0 13 14.5V16.135L11.673 14.808A1 1 0 0 0 10.259 14.808L8.179 16.887A0.996 0.996 0 0 0 8.071 16.995L7.991 17.075L8.001 17.086A1 1 0 0 0 9.39 18.475L9.405 18.49L10.965 16.929L12.744 18.707zM19.5 13A0.5 0.5 0 0 0 20 12.5V12.207A0.5 0.5 0 0 0 19.854 11.854L18.293 10.293A1 1 0 0 0 17.586 10H14.414A1 1 0 0 0 13.707 10.293L12.147 11.853A0.5 0.5 0 0 0 12 12.207V12.5A0.5 0.5 0 0 0 12.5 13H19.5zM6 31A5 5 0 0 1 1 26V6A5 5 0 0 1 6 1H26A5 5 0 0 1 31 6V26A5 5 0 0 1 26 31H6zM3 26A3 3 0 0 0 6 29H26A3 3 0 0 0 29 26V6A3 3 0 0 0 26 3H6A3 3 0 0 0 3 6V26z" />
    <glyph glyph-name="baby"
      unicode="&#xEA30;"
      horiz-adv-x="32" d="M12.941 28.93A4.243 4.243 0 0 0 15.82 30C16.853 29.986 17.801 29.6 18.534 28.971A4.261 4.261 0 0 0 19.906 26.733C19.982 26.413 20.022 26.081 20.02 25.74C20.02 23.86 18.81 22.27 17.13 21.7A0.542 0.542 0 0 0 16.56 22.58C17.06 23.15 17.36 23.89 17.37 24.71A3.23 3.23 0 0 1 16.426 27H14.097A7.865 7.865 0 0 1 9.391 25.41C7.038 23.637 5.749 20.674 6.041 17.622L6.289 15.379A1 1 0 0 0 5.666 14.341A2.251 2.251 0 0 1 6.143 10.028A1 1 0 0 0 6.977 9.176C7.274 7 8.435 5.488 10.053 4.493C11.7 3.481 13.837 3 16 3C18.163 3 20.3 3.481 21.947 4.493C23.565 5.488 24.726 7 25.023 9.176A1 1 0 0 0 25.857 10.028A2.25 2.25 0 0 1 26.334 14.341A1 1 0 0 0 25.711 15.379L25.959 17.622C26.251 20.674 24.962 23.637 22.609 25.41A8.105 8.105 0 0 1 20.986 26.354A5.2 5.2 0 0 1 20.072 28.752A9.993 9.993 0 0 0 23.808 27.011L23.811 27.009C26.741 24.802 28.308 21.149 27.949 17.423L27.948 17.409L27.774 15.841A4.251 4.251 0 0 0 26.887 8.232C26.363 5.75 24.897 3.959 22.995 2.79C20.953 1.534 18.425 1 16 1C13.574 1 11.047 1.534 9.005 2.79C7.103 3.96 5.638 5.75 5.112 8.232A4.251 4.251 0 0 0 4.226 15.841L4.052 17.409L4.051 17.423C3.691 21.148 5.259 24.803 8.189 27.009L8.192 27.011A9.93 9.93 0 0 0 12.941 28.931zM12.985 8.77A6.41 6.41 0 0 1 15.992 8.037C17.097 8.037 18.132 8.307 19.019 8.77C19.318 8.92 19.626 8.579 19.447 8.298A4.104 4.104 0 0 0 16.002 6.411A4.09 4.09 0 0 0 12.557 8.298C12.367 8.588 12.687 8.93 12.985 8.77zM16.002 9.35C16.485 9.35 16.916 9.595 17.162 9.963A0.504 0.504 0 0 1 16.742 10.75H15.263C14.853 10.75 14.606 10.29 14.842 9.963C15.088 9.585 15.52 9.35 16.002 9.35zM10.71 15C9.1 15 7.74 13.874 7.37 12.352C7.26 11.916 7.59 11.5 8.03 11.5H9.1A2.2 2.2 0 0 0 11.22 14.28C12.44 14.28 13.42 13.29 13.43 12.08C13.43 11.88 13.4 11.69 13.35 11.5H13.53C13.88 11.5 14.16 11.825 14.09 12.18C13.78 13.783 12.38 15 10.71 15zM20.71 15C22.32 15 23.68 13.874 24.05 12.352A0.683 0.683 0 0 0 23.39 11.5H22.32A2.2 2.2 0 0 1 20.2 14.28C18.98 14.28 17.99 13.29 17.99 12.08C17.99 11.88 18.02 11.69 18.07 11.5H17.89A0.573 0.573 0 0 0 17.33 12.18C17.64 13.783 19.03 15 20.71 15zM12.48 12.08C12.48 12.78 11.92 13.34 11.22 13.34C10.947 13.34 10.696 13.255 10.491 13.11A0.39 0.39 0 0 0 10.053 12.56A1.269 1.269 0 0 1 10.1 11.5H12.33C12.42 11.67 12.48 11.87 12.48 12.08zM19.74 13.254C19.883 13.309 20.038 13.34 20.2 13.34C20.9 13.34 21.46 12.78 21.46 12.08C21.46 11.87 21.41 11.67 21.32 11.5H19.09C18.99 11.67 18.94 11.87 18.94 12.08C18.94 12.341 19.018 12.583 19.152 12.784A0.39 0.39 0 1 1 19.74 13.254zM9.648 16.449C10.169 16.634 10.916 16.775 11.903 16.682A0.5 0.5 0 1 1 11.997 17.677C10.864 17.784 9.971 17.625 9.312 17.391A0.5 0.5 0 0 1 9.648 16.449zM22.218 17.39C21.559 17.625 20.666 17.784 19.533 17.677A0.5 0.5 0 1 1 19.627 16.682C20.614 16.775 21.361 16.634 21.882 16.449A0.5 0.5 0 0 1 22.218 17.391z" />
    <glyph glyph-name="back-arrow"
      unicode="&#xEA31;"
      horiz-adv-x="32" d="M2.36 20.77L10.67 13.2C11.28 12.64 12.27 13.08 12.27 13.91V17.54C12.27 17.89 12.56 18.18 12.91 18.18H28.77C29.43 18.18 29.96 18.71 29.96 19.37V23.58C29.96 24.24 29.43 24.77 28.77 24.77H12.91C12.56 24.77 12.27 25.06 12.27 25.41V29.04C12.27 29.87 11.28 30.31 10.67 29.75L2.36 22.18A0.946 0.946 0 0 1 2.36 20.77zM16.33 3.24L13.79 10.19C13.63 10.68 13.17 11 12.66 11C12.15 11 11.69 10.68 11.54 10.21L8.97 3.23C8.79 2.75 9.04 2.23 9.52 2.05C9.62 2.02 9.73 2 9.84 2C10.21 2 10.57 2.23 10.7 2.6L11.11 3.73C11.15 3.72 11.19 3.72 11.23 3.72H14.1C14.13 3.72 14.17 3.72 14.2 3.73L14.61 2.61C14.79 2.13 15.31 1.88 15.79 2.06C16.26 2.23 16.5 2.76 16.33 3.24zM11.79 5.56L12.66 7.94L13.52 5.56H11.79zM8.23 8.29C8.23 7.76 8.08 7.27 7.82 6.86A2.7 2.7 0 0 0 8.89 4.71C8.89 3.33 7.84 2.17 6.49 2.02C6.45 2.01 6.4 2 6.36 2.01C6.3 2 6.24 2 6.18 2H2.92A0.92 0.92 0 0 0 2 2.93V10.09C2 10.59 2.41 11 2.92 11H5.52C5.62 11 5.71 11 5.79 10.99A7.905 7.905 0 0 1 5.98 10.96C7.26 10.74 8.23 9.62 8.23 8.29zM5.53 9.16H3.84V7.42H5.52C6 7.42 6.4 7.81 6.4 8.29A0.87 0.87 0 0 1 5.53 9.16zM3.84 5.59V3.85H6.19A0.87 0.87 0 0 1 6.19 5.59H3.84zM22.6 3.65A3.308 3.308 0 0 0 16.43 5.31V7.69C16.43 9.52 17.91 11 19.74 11C20.92 11 22.02 10.36 22.61 9.35C22.87 8.91 22.71 8.35 22.28 8.09C21.84 7.83 21.28 7.98 21.02 8.42A1.5 1.5 0 0 1 19.74 9.16C18.94 9.16 18.27 8.5 18.27 7.69V5.31C18.27 4.5 18.94 3.84 19.74 3.84C20.27 3.84 20.75 4.12 21.02 4.58C21.28 5.01 21.83 5.17 22.28 4.91C22.7 4.65 22.86 4.09 22.6 3.65zM27.23 7.13L29.83 3.45C30.12 3.03 30.03 2.46 29.6 2.16C29.18 1.87 28.61 1.97 28.32 2.38L25.91 5.8L25.22 5.11V2.91C25.22 2.4 24.81 1.99 24.3 1.99S23.38 2.4 23.38 2.91V10.08C23.38 10.59 23.79 11 24.3 11S25.22 10.59 25.22 10.08V7.71L28.23 10.73C28.59 11.09 29.17 11.09 29.53 10.73C29.89 10.37 29.89 9.79 29.53 9.43L27.23 7.13z" />
    <glyph glyph-name="backhand-index-pointing-down"
      unicode="&#xEA32;"
      horiz-adv-x="32" d="M18.803 29.24A10.672 10.672 0 0 1 13.135 31.013H13.113C2 31.013 2 18.176 2 12.695A4.62 4.62 0 0 1 3.263 9.918A4.632 4.632 0 0 1 5.983 8.531A4.769 4.769 0 0 1 7.612 8.794A3.312 3.312 0 0 1 10.208 7.484A4.146 4.146 0 0 1 12.011 7.847A3.352 3.352 0 0 1 14.577 6.711A4.09 4.09 0 0 1 15.987 6.951V5.051A3.865 3.865 0 0 1 16.951 2.309C17.617 1.554 18.551 1.089 19.555 1.01C21.259 1.01 22.982 2.398 22.982 5.051V13.451C23.272 13.265 23.533 13.099 23.693 13.005C25.217 12.107 27.2 11.325 29.033 13.275A3.714 3.714 0 0 1 29.023 18.284A8.189 8.189 0 0 1 27.722 19.251A12.194 12.194 0 0 0 22.641 24.713A10.647 10.647 0 0 1 18.803 29.24zM27.08 14.234C26.888 14.134 26.678 14.077 26.462 14.068A3.716 3.716 0 0 0 24.709 14.728C24.303 14.966 23 15.826 22.532 16.137A1.003 1.003 0 0 1 20.975 15.304V5.054C20.975 3.547 20.208 3.013 19.551 3.013A1.915 1.915 0 0 0 17.986 5.054V7.522L17.994 7.523V12.539A1 1 0 0 1 15.991 12.539V9.325A1.627 1.627 0 0 0 14.576 8.71A1.404 1.404 0 0 0 13.26 9.528V11.554A1 1 0 0 1 11.257 11.554V9.711C11.102 9.613 10.787 9.484 10.203 9.484C9.533 9.484 9.123 10.068 8.964 10.354V13.523A1 1 0 0 1 6.961 13.523V10.689A2.013 2.013 0 0 0 5.978 10.531A2.743 2.743 0 0 0 3.998 12.695C3.998 20.764 5.081 29.013 13.113 29.013H13.135A8.584 8.584 0 0 0 17.693 27.593A8.565 8.565 0 0 0 20.783 23.957A14.109 14.109 0 0 1 26.615 17.584A8.4 8.4 0 0 0 27.579 16.896A1.715 1.715 0 0 0 27.569 14.645A1.475 1.475 0 0 0 27.079 14.234z" />
    <glyph glyph-name="backhand-index-pointing-left"
      unicode="&#xEA33;"
      horiz-adv-x="32" d="M12.609 1.016A4.156 4.156 0 0 0 8.562 4.609A5.274 5.274 0 0 0 8.82 6.3A3.417 3.417 0 0 0 7.52 8.937A4.58 4.58 0 0 0 7.884 10.823A3.352 3.352 0 0 0 6.692 13.435C6.687 13.876 6.755 14.315 6.892 14.735H5.031A3.862 3.862 0 0 0 0.99 18.28A3.786 3.786 0 0 0 5.031 21.969H13.438C13.289 22.206 13.158 22.417 13.077 22.554C12.36 23.767 11.161 25.797 13.217 27.729A3.719 3.719 0 0 0 18.226 27.719C18.579 27.338 18.895 26.924 19.17 26.484A12.44 12.44 0 0 1 24.691 21.484A10.641 10.641 0 0 0 30.991 11.962C30.99 1.016 18.109 1.016 12.609 1.016zM10.775 5.813C10.609 5.434 10.535 5.021 10.562 4.607A2.226 2.226 0 0 1 12.609 3.014C21.117 3.014 28.99 4.099 28.99 11.968A8.562 8.562 0 0 1 23.934 19.635A14.366 14.366 0 0 0 17.52 25.355A8.546 8.546 0 0 1 16.837 26.281A1.719 1.719 0 0 1 14.586 26.271C13.886 25.614 13.834 25.204 14.798 23.571C15.044 23.155 15.766 22.036 16.017 21.648V21.647L16.104 21.513A1 1 0 0 0 15.266 19.969H5.031A1.815 1.815 0 0 1 2.99 18.28A1.9 1.9 0 0 1 3.466 17.333C4.059 17.176 4.876 17.063 5.938 17.063H14.313A0.5 0.5 0 0 0 14.635 16.18C14.295 15.894 13.635 15.607 12.729 15.366C11.882 15.14 10.769 14.941 9.389 14.828A1 1 0 0 0 9.333 14.804A1.422 1.422 0 0 1 8.688 13.436A1.405 1.405 0 0 1 9.331 12.219H12.5A1 1 0 0 0 12.5 10.219H9.813A2.037 2.037 0 0 1 9.515 8.937A1.717 1.717 0 0 1 10.125 7.812H13.767A1 1 0 1 0 13.767 5.812H10.775z" />
    <glyph glyph-name="backhand-index-pointing-right"
      unicode="&#xEA34;"
      horiz-adv-x="32" d="M19.372 1.016A4.156 4.156 0 0 1 23.419 4.609A5.273 5.273 0 0 1 23.161 6.3A3.417 3.417 0 0 1 24.461 8.937A4.579 4.579 0 0 1 24.097 10.823A3.352 3.352 0 0 1 25.289 13.435A4.052 4.052 0 0 1 25.089 14.735H26.95A3.862 3.862 0 0 1 30.991 18.28A3.786 3.786 0 0 1 26.95 21.969H18.543C18.692 22.206 18.823 22.417 18.904 22.554C19.621 23.767 20.82 25.797 18.764 27.729A3.719 3.719 0 0 1 13.755 27.719A8.307 8.307 0 0 1 12.811 26.484A12.44 12.44 0 0 0 7.29 21.484A10.642 10.642 0 0 1 0.99 11.962C0.991 1.016 13.872 1.016 19.372 1.016zM21.206 5.813C21.372 5.434 21.446 5.021 21.419 4.607A2.226 2.226 0 0 0 19.372 3.014C10.864 3.014 2.991 4.099 2.991 11.968A8.562 8.562 0 0 0 8.047 19.635A14.365 14.365 0 0 1 14.461 25.355C14.668 25.679 14.896 25.988 15.144 26.281A1.719 1.719 0 0 0 17.395 26.271C18.095 25.614 18.147 25.204 17.183 23.571C16.937 23.155 16.215 22.036 15.964 21.648V21.647L15.877 21.513A1.001 1.001 0 0 1 16.715 19.969H26.95A1.815 1.815 0 0 0 28.991 18.28A1.9 1.9 0 0 0 28.515 17.333C27.922 17.176 27.105 17.063 26.044 17.063H17.669A0.5 0.5 0 0 1 17.346 16.18C17.686 15.894 18.346 15.607 19.252 15.366C20.099 15.14 21.212 14.941 22.592 14.828A0.993 0.993 0 0 1 22.648 14.804A1.423 1.423 0 0 0 23.293 13.436A1.405 1.405 0 0 0 22.65 12.219H19.48A1 1 0 0 1 19.48 10.219H22.167C22.405 9.837 22.51 9.386 22.465 8.937A1.717 1.717 0 0 0 21.856 7.812H18.213A1 1 0 1 1 18.213 5.812H21.205z" />
    <glyph glyph-name="backhand-index-pointing-up"
      unicode="&#xEA35;"
      horiz-adv-x="32" d="M14.197 2.783A10.671 10.671 0 0 1 19.865 1.01H19.887C31 1.01 31 13.847 31 19.328A4.618 4.618 0 0 1 29.737 22.105A4.632 4.632 0 0 1 27.017 23.492A4.77 4.77 0 0 1 25.388 23.229A3.311 3.311 0 0 1 22.792 24.539A4.146 4.146 0 0 1 20.989 24.176A3.35 3.35 0 0 1 18.423 25.312A4.09 4.09 0 0 1 17.013 25.072V26.972A3.865 3.865 0 0 1 16.049 29.714A3.877 3.877 0 0 1 13.445 31.013C11.741 31.013 10.018 29.625 10.018 26.972V18.572C9.728 18.758 9.467 18.924 9.307 19.018C7.783 19.916 5.8 20.698 3.967 18.748A3.715 3.715 0 0 1 3.977 13.739C4.377 13.374 4.813 13.05 5.278 12.772C7.502 11.526 9.278 9.616 10.359 7.31A10.647 10.647 0 0 1 14.197 2.783zM5.92 17.79C6.112 17.89 6.323 17.946 6.538 17.956A3.716 3.716 0 0 0 8.291 17.296C8.697 17.058 10 16.198 10.468 15.887A1.003 1.003 0 0 1 12.025 16.72V26.969C12.025 28.476 12.792 29.01 13.449 29.01A1.915 1.915 0 0 0 15.014 26.969V24.501L15.006 24.5V19.484A1 1 0 0 1 17.009 19.484V22.698A1.628 1.628 0 0 0 18.424 23.313A1.404 1.404 0 0 0 19.74 22.495V20.469A1 1 0 0 1 21.743 20.469V22.312C21.898 22.41 22.213 22.539 22.797 22.539C23.467 22.539 23.877 21.955 24.036 21.669V18.5A1 1 0 0 1 26.039 18.5V21.334C26.347 21.467 26.684 21.523 27.022 21.492A2.743 2.743 0 0 0 29.002 19.328C29.002 11.259 27.919 3.01 19.887 3.01H19.865A8.585 8.585 0 0 0 15.307 4.43A8.565 8.565 0 0 0 12.217 8.066A14.108 14.108 0 0 1 6.385 14.439A8.392 8.392 0 0 0 5.421 15.127A1.714 1.714 0 0 0 5.431 17.378C5.561 17.549 5.729 17.69 5.921 17.789z" />
    <glyph glyph-name="backpack"
      unicode="&#xEA36;"
      horiz-adv-x="32" d="M7.609 7.64C7.609 7.4 7.799 7.21 8.039 7.21S8.469 7.4 8.469 7.64S8.279 8.07 8.039 8.07S7.609 7.88 7.609 7.64zM20.944 25.799A4.921 4.921 0 0 1 11.244 25.842C7.548 24.053 5 20.268 5 15.89V5.74A3.74 3.74 0 0 1 8.74 2H23.35C25.42 2 27.09 3.68 27.1 5.74V15.89C27.1 20.233 24.59 23.993 20.944 25.799zM12.722 24.392A8.078 8.078 0 0 1 10.035 22.688A8.313 8.313 0 0 1 8.742 21.11A6.565 6.565 0 0 1 8.369 20.429L8.366 20.423V20.422A0.5 0.5 0 0 0 7.444 20.809L7.445 20.811L7.447 20.816L7.453 20.83L7.475 20.88C7.495 20.92 7.522 20.979 7.559 21.051C7.633 21.197 7.743 21.401 7.896 21.642A9.311 9.311 0 0 0 9.346 23.412A9.13 9.13 0 0 0 12.7 25.448C13.667 25.778 14.788 25.984 16.078 25.984C17.388 25.984 18.516 25.772 19.482 25.432A8.676 8.676 0 0 0 22.724 23.406C23.375 22.761 23.824 22.116 24.11 21.631A7.265 7.265 0 0 0 24.503 20.865C24.512 20.845 24.519 20.828 24.523 20.815L24.529 20.801L24.531 20.796V20.795S24.439 21.038 24.532 20.793A0.5 0.5 0 0 0 23.598 20.437L23.595 20.444L23.588 20.462L23.582 20.476A6.197 6.197 0 0 1 23.249 21.122A7.837 7.837 0 0 1 20.829 23.66A7.682 7.682 0 0 1 19.455 24.374C18.527 24.744 17.411 24.984 16.078 24.984C14.766 24.984 13.656 24.752 12.722 24.392zM13.546 22.705C13.744 22.847 13.986 22.93 14.25 22.93H17.84A1.206 1.206 0 0 0 19.05 21.72V21.059A1.181 1.181 0 0 0 18.845 20.433A1.2 1.2 0 0 0 17.85 19.91H14.25A1.207 1.207 0 0 0 13.04 21.12V21.72C13.04 22.127 13.24 22.486 13.546 22.705zM19.162 26.495A11.044 11.044 0 0 1 16.05 26.94C15.004 26.94 13.991 26.794 13.032 26.522A3.42 3.42 0 0 0 19.162 26.495zM8.039 8.41C8.429 8.41 8.759 8.12 8.809 7.74L9.079 5.88C9.139 5.42 8.779 5 8.309 5H7.779A0.77 0.77 0 0 0 7.009 5.88L7.269 7.74C7.329 8.13 7.649 8.41 8.039 8.41zM10.709 12.877C9.515 11.557 8.888 9.87 8.648 8.439L7.662 8.604C7.924 10.169 8.612 12.05 9.967 13.548C11.335 15.06 13.359 16.156 16.219 16.156C19.385 16.156 21.467 14.568 22.737 12.651C23.992 10.756 24.469 8.525 24.469 7.125A0.5 0.5 0 0 0 23.469 7.125C23.469 8.35 23.039 10.385 21.903 12.099C20.783 13.791 18.99 15.156 16.219 15.156C13.646 15.156 11.89 14.183 10.709 12.877z" />
    <glyph glyph-name="bacon"
      unicode="&#xEA37;"
      horiz-adv-x="32" d="M19.294 30.005C18.619 31.123 17.055 31.359 16.101 30.405L11.807 26.111C10.883 25.187 10.065 23.954 10.272 22.29C10.324 21.572 10.525 20.84 10.817 20.208A6.125 6.125 0 0 1 12.467 18.091C13.748 17.022 15.003 16.846 15.737 16.742L15.852 16.727C16.086 16.698 16.294 16.673 16.475 16.497C16.64 16.331 16.669 16.099 16.698 15.877L16.709 15.786C16.827 14.943 17.029 13.493 18.461 12.061C19.888 10.633 21.344 10.428 22.176 10.311L22.268 10.298H22.297A4.185 4.185 0 0 1 25.735 11.491L30.375 16.131C31.329 17.085 31.093 18.649 29.975 19.324L29.963 19.331C28.962 19.917 28.033 20.046 27.445 20.12L27.366 20.13C27.129 20.16 26.932 20.184 26.751 20.36C26.579 20.532 26.557 20.727 26.531 20.95A6.19 6.19 0 0 1 26.517 21.07C26.399 21.913 26.197 23.363 24.765 24.795C23.338 26.222 21.882 26.428 21.05 26.545L20.982 26.555C20.745 26.586 20.494 26.62 20.316 26.794C20.143 26.962 20.121 27.174 20.097 27.398C20.092 27.448 20.087 27.498 20.079 27.548C19.999 28.116 19.869 29.022 19.301 29.993L19.294 30.005zM14.998 21.458C13.807 22.648 13.641 23.83 13.531 24.61L13.528 24.628L13.526 24.642C13.447 25.242 13.415 25.491 13.008 25.898L15.358 28.248C16.553 27.053 16.717 25.878 16.827 25.088L16.828 25.078L16.83 25.064C16.909 24.464 16.941 24.214 17.348 23.808C17.758 23.408 18.008 23.368 18.618 23.288L18.636 23.285C19.416 23.175 20.597 23.009 21.788 21.818C22.983 20.623 23.147 19.448 23.257 18.658L23.258 18.648L23.26 18.634C23.338 18.034 23.371 17.784 23.778 17.378C24.188 16.978 24.438 16.938 25.048 16.858L25.066 16.855C25.846 16.745 27.027 16.579 28.218 15.388L25.868 13.038C25.458 13.438 25.208 13.478 24.598 13.558L24.581 13.56C23.801 13.67 22.619 13.837 21.428 15.028C20.233 16.223 20.069 17.398 19.959 18.188L19.958 18.198L19.956 18.212C19.878 18.812 19.845 19.061 19.438 19.468C19.028 19.868 18.778 19.908 18.168 19.988L18.151 19.99C17.371 20.1 16.189 20.267 14.998 21.458zM10.055 20.732C9.38 21.85 7.815 22.087 6.861 21.132L2.568 16.84C1.644 15.916 0.825 14.682 1.033 13.018C1.085 12.3 1.286 11.568 1.577 10.936A6.125 6.125 0 0 1 3.228 8.82C4.508 7.75 5.764 7.574 6.498 7.47L6.612 7.456C6.846 7.426 7.054 7.401 7.236 7.225C7.401 7.059 7.43 6.827 7.458 6.605L7.47 6.515C7.587 5.671 7.79 4.221 9.221 2.789C10.649 1.362 12.104 1.157 12.936 1.039L13.028 1.026H13.057A4.184 4.184 0 0 1 16.495 2.219L21.135 6.859C22.09 7.813 21.853 9.378 20.735 10.053L20.724 10.059C19.722 10.646 18.794 10.775 18.206 10.849L18.154 10.855L18.127 10.858C17.889 10.888 17.692 10.912 17.511 11.088C17.34 11.26 17.317 11.455 17.291 11.678L17.277 11.798C17.16 12.641 16.957 14.091 15.525 15.524C14.098 16.951 12.643 17.156 11.81 17.274L11.742 17.283C11.505 17.315 11.255 17.349 11.077 17.523C10.904 17.691 10.881 17.903 10.857 18.127C10.852 18.177 10.847 18.227 10.84 18.277C10.76 18.845 10.63 19.75 10.062 20.722L10.055 20.733zM5.758 12.185C4.568 13.376 4.401 14.558 4.291 15.338L4.288 15.355L4.287 15.369C4.208 15.969 4.175 16.219 3.768 16.625L6.118 18.975C7.313 17.78 7.478 16.605 7.588 15.815V15.805L7.59 15.791C7.669 15.191 7.702 14.942 8.108 14.535C8.518 14.135 8.768 14.095 9.378 14.015L9.396 14.013C10.176 13.903 11.357 13.736 12.548 12.545C13.743 11.35 13.908 10.175 14.018 9.385V9.375L14.02 9.361C14.099 8.761 14.132 8.512 14.538 8.105C14.948 7.705 15.198 7.665 15.808 7.585L15.826 7.583C16.606 7.473 17.787 7.306 18.978 6.115L16.628 3.765C16.218 4.165 15.968 4.205 15.358 4.285L15.341 4.288C14.561 4.398 13.38 4.564 12.188 5.755C10.993 6.95 10.83 8.125 10.72 8.915L10.718 8.925L10.717 8.939C10.637 9.539 10.605 9.789 10.198 10.195C9.788 10.595 9.538 10.635 8.928 10.715L8.911 10.718C8.131 10.828 6.949 10.994 5.758 12.185z" />
    <glyph glyph-name="badger"
      unicode="&#xEA38;"
      horiz-adv-x="32" d="M7.571 17.366A1.161 1.161 0 0 0 9.828 17.61A1.666 1.666 0 0 0 11.28 18.458C12.203 18.458 12.926 17.708 12.94 16.806V16.408C12.94 16.068 12.859 15.747 12.715 15.462A0.729 0.729 0 0 1 13.52 15.41C13.8 15.57 14.05 15.76 14.28 15.99C14.97 16.68 15.91 17.07 16.88 17.07H22.11C22.21 17.07 22.311 17.068 22.41 17.062H25.834C26.584 17.028 27.748 16.831 28.734 16.073C29.746 15.296 30.5 13.983 30.5 11.875V4.203C30.5 3.783 30.129 3.388 29.642 3.482A4.665 4.665 0 0 0 28 4.178V2.62C28 2.28 27.72 2 27.38 2H24.97C24.75 2 24.55 2.11 24.44 2.29L22.892 4.737L21.34 2.29A0.63 0.63 0 0 0 20.81 2H19.31C19.14 2 19 2.14 19 2.31V6H16V2.31C16 2.14 15.86 2 15.69 2H14.19C13.97 2 13.77 2.11 13.66 2.29L11.888 5.084L9.56 2.33C9.38 2.12 9.12 2 8.84 2H6.63C6.39 2 6.24 2.24 6.34 2.45L7.85 5.47C8.06 5.88 8.04 6.37 7.8 6.76L6.117 9.554H3.62C2.947 9.554 2.41 9.994 2.07 10.467C1.725 10.947 1.5 11.568 1.5 12.138C1.5 12.71 1.97 13.168 2.54 13.168H2.94C3.328 13.168 3.682 13.36 3.902 13.692V13.693L5.252 15.761A3.745 3.745 0 0 0 7.572 17.366zM11.991 10.569A0.107 0.107 0 0 1 12.039 10.609A0.38 0.38 0 0 1 12.094 10.812A0.42 0.42 0 0 1 12.026 11.031A0.159 0.159 0 0 1 11.975 11.081A0.166 0.166 0 0 1 11.89 11.098H5.62A0.883 0.883 0 0 0 4.746 12.125A0.84 0.84 0 0 0 4.963 12.578C5.203 12.848 5.89 13.663 6.453 14.354A2.613 2.613 0 0 0 8.47 15.318H10.85C11.454 15.318 11.94 15.804 11.94 16.408V16.794A0.667 0.667 0 0 1 11.28 17.458A0.657 0.657 0 0 1 10.626 16.896L10.571 16.458H8.4C7.466 16.458 6.595 15.991 6.089 15.215L4.737 13.143C4.481 12.755 4.117 12.465 3.697 12.306A0.75 0.75 0 0 0 2.747 11.266C2.787 11.191 2.833 11.119 2.882 11.05C3.13 10.706 3.403 10.554 3.62 10.554H5.514L5.51 10.56H11.89A0.544 0.544 0 0 1 11.99 10.57zM28 11.17V5.445A4.12 4.12 0 0 1 29.5 4.55V11.875C29.5 13.717 28.858 14.717 28.125 15.28C27.371 15.86 26.447 16.032 25.801 16.062H25.402A5.897 5.897 0 0 0 28 11.17zM8.797 13.226A0.75 0.75 0 1 1 7.297 13.226A0.75 0.75 0 0 1 8.797 13.226z" />
    <glyph glyph-name="badminton"
      unicode="&#xEA39;"
      horiz-adv-x="32" d="M22.23 29.57A7.274 7.274 0 0 1 12.296 26.905L10.976 24.625A7.276 7.276 0 0 1 12.573 15.44L6.166 4.35C5.836 3.76 6.036 3.02 6.616 2.68C7.196 2.35 7.946 2.55 8.286 3.13L14.678 14.196A7.276 7.276 0 0 1 23.575 17.356L24.895 19.634L24.896 19.637C26.891 23.114 25.699 27.562 22.231 29.569zM21.16 28.443L20.129 26.685L17.934 27.953L18.575 29.043A5.74 5.74 0 0 0 21.16 28.443zM17.756 28.982L17.35 28.29L16.638 28.701A5.81 5.81 0 0 0 17.756 28.981zM15.876 28.362L17.009 27.708L15.76 25.583L13.915 26.649A5.737 5.737 0 0 0 15.875 28.363zM13.552 26.08L15.419 25.001L14.166 22.869L12.312 23.939L13.552 26.08zM12.002 23.339L13.825 22.287L12.575 20.159L11.506 20.775A5.739 5.739 0 0 0 12.002 23.339zM11.599 19.943L12.233 19.577L11.871 18.961A5.81 5.81 0 0 0 11.599 19.943zM12.214 18.213L12.817 19.24L15.016 17.971L13.998 16.237A5.736 5.736 0 0 0 12.214 18.213zM14.575 15.887L15.6 17.634L17.798 16.366L17.124 15.218A5.743 5.743 0 0 0 14.575 15.888zM17.927 15.254L18.383 16.028L19.21 15.551A5.805 5.805 0 0 0 17.927 15.254zM19.977 15.887L18.724 16.61L19.976 18.74L21.95 17.6A5.737 5.737 0 0 0 19.977 15.886zM22.314 18.17L20.318 19.321L21.568 21.449L23.549 20.304L22.314 18.17zM23.86 20.904L21.91 22.03L23.16 24.156L24.359 23.463C24.389 22.603 24.229 21.728 23.86 20.903zM24.27 24.294L23.5 24.738L23.928 25.465C24.082 25.087 24.197 24.695 24.269 24.295zM23.57 26.188L22.917 25.075L20.713 26.348L21.745 28.108A5.737 5.737 0 0 0 23.571 26.188zM19.392 19.077L18.14 16.947L15.941 18.216L17.191 20.346L19.391 19.076zM16.607 20.683L15.357 18.553L13.159 19.821L14.409 21.951L16.607 20.683zM14.75 22.532L16.002 24.664L18.197 23.396L16.947 21.265L14.75 22.532zM17.531 20.928L18.781 23.058L20.983 21.786L19.733 19.658L17.531 20.928zM22.574 24.494L21.324 22.368L19.123 23.64L20.37 25.766L22.574 24.494zM19.786 26.104L18.54 23.977L16.344 25.246L17.593 27.371L19.787 26.104zM21.506 8.06A0.932 0.932 0 0 1 20.876 9.43L17.88 10.03L17.874 10.027L17.876 10.03L17.366 10.31A1.72 1.72 0 0 1 15.026 9.65C14.566 8.83 14.856 7.78 15.686 7.32L16.196 7.04L16.198 7.045L16.2 7.04L18.266 4.78C18.696 4.31 19.456 4.4 19.766 4.95A0.941 0.941 0 0 1 19.498 6.163A0.86 0.86 0 0 1 20.636 6.5C20.866 6.91 20.716 7.42 20.316 7.65L20.202 7.714L20.236 7.7C20.686 7.45 21.256 7.61 21.506 8.06z" />
    </font>
</defs>
</svg>
